<svg class="main-svg" xmlns="http://www.w3.org/2000/svg" xmlns:xlink="http://www.w3.org/1999/xlink" width="700" height="500" style="" viewBox="0 0 700 500"><rect x="0" y="0" width="700" height="500" style="fill: rgb(0, 0, 0); fill-opacity: 0;"/><defs id="defs-9e5740"><g class="clips"><clipPath id="clip9e5740xyplot" class="plotclip"><rect width="540" height="320"/></clipPath><clipPath class="axesclip" id="clip9e5740x"><rect x="80" y="0" width="540" height="500"/></clipPath><clipPath class="axesclip" id="clip9e5740y"><rect x="0" y="100" width="700" height="320"/></clipPath><clipPath class="axesclip" id="clip9e5740xy"><rect x="80" y="100" width="540" height="320"/></clipPath></g><g class="gradients"/><g class="patterns"/></defs><g class="bglayer"><rect class="bg" x="80" y="100" width="540" height="320" style="fill: rgb(0, 0, 0); fill-opacity: 0; stroke-width: 0;"/></g><g class="layer-below"><g class="imagelayer"/><g class="shapelayer"/></g><g class="cartesianlayer"><g class="subplot xy"><g class="layer-subplot"><g class="shapelayer"/><g class="imagelayer"/></g><g class="minor-gridlayer"><g class="x"/><g class="y"/></g><g class="gridlayer"><g class="x"><path class="xgrid crisp" transform="translate(101.53,0)" d="M0,100v320" style="stroke: rgb(255, 255, 255); stroke-opacity: 1; stroke-width: 1px;"/><path class="xgrid crisp" transform="translate(208.39,0)" d="M0,100v320" style="stroke: rgb(255, 255, 255); stroke-opacity: 1; stroke-width: 1px;"/><path class="xgrid crisp" transform="translate(315.11,0)" d="M0,100v320" style="stroke: rgb(255, 255, 255); stroke-opacity: 1; stroke-width: 1px;"/><path class="xgrid crisp" transform="translate(421.97,0)" d="M0,100v320" style="stroke: rgb(255, 255, 255); stroke-opacity: 1; stroke-width: 1px;"/><path class="xgrid crisp" transform="translate(528.6800000000001,0)" d="M0,100v320" style="stroke: rgb(255, 255, 255); stroke-opacity: 1; stroke-width: 1px;"/></g><g class="y"><path class="ygrid crisp" transform="translate(0,334.75)" d="M80,0h540" style="stroke: rgb(255, 255, 255); stroke-opacity: 1; stroke-width: 1px;"/><path class="ygrid crisp" transform="translate(0,249.5)" d="M80,0h540" style="stroke: rgb(255, 255, 255); stroke-opacity: 1; stroke-width: 1px;"/><path class="ygrid crisp" transform="translate(0,164.25)" d="M80,0h540" style="stroke: rgb(255, 255, 255); stroke-opacity: 1; stroke-width: 1px;"/></g></g><g class="zerolinelayer"><path class="yzl zl crisp" transform="translate(0,420)" d="M80,0h540" style="stroke: rgb(255, 255, 255); stroke-opacity: 1; stroke-width: 2px;"/></g><g class="layer-between"><g class="shapelayer"/><g class="imagelayer"/></g><path class="xlines-below"/><path class="ylines-below"/><g class="overlines-below"/><g class="xaxislayer-below"/><g class="yaxislayer-below"/><g class="overaxes-below"/><g class="overplot"><g class="xy" transform="translate(80,100)" clip-path="url(#clip9e5740xyplot)"><g class="scatterlayer mlayer"><g class="trace scatter trace9bd203" style="stroke-miterlimit: 2;"><g class="fills"><g><path class="js-fill" d="M540,320L0,320L0,319.83L0,319.49L2.01,319.32L3.92,318.3L4.65,318.12L5.27,316.93L5.66,316.76L6.27,315.74L6.59,315.57L8.76,311.99L9.17,311.82L10.35,310.79L10.35,310.62L11.26,309.77L11.95,309.6L13,307.55L13,307.38L13.28,306.53L13.78,306.36L14.47,304.83L15.01,304.66L16.21,304.14L17.47,303.97L18.72,302.95L18.97,302.78L19.12,302.61L22.2,302.44L27.51,299.88L27.62,299.71L28.35,299.37L30.27,299.2L33.32,297.32L34.56,297.15L38.6,294.43L38.6,294.25L38.91,293.4L39.57,293.23L41.8,291.02L41.8,290.84L42.51,290.16L42.81,289.99L45.13,287.95L46.45,287.78L48.67,285.73L48.82,285.56L49.19,284.88L49.87,284.71L54.24,282.83L54.91,282.66L55.98,281.64L57.16,281.47L61.41,278.23L63.04,278.06L66.41,274.99L66.51,274.82L66.63,274.48L67.42,274.31L70.08,272.94L70.12,272.77L70.44,272.43L71.21,272.26L72.4,271.92L73.38,271.75L74.23,270.56L74.64,270.38L80.7,268.34L80.82,268.17L82.45,267.15L82.99,266.97L83.79,265.78L84,265.61L86.7,264.42L86.94,264.25L86.97,263.91L87.84,263.74L88.58,262.88L88.86,262.71L89.57,262.2L89.92,262.03L89.92,261.69L91.04,261.52L91.06,261.18L91.93,261.01L96.28,259.64L96.77,259.47L97.9,258.79L98.21,258.62L102.9,256.57L102.92,256.4L104.19,255.38L104.2,255.21L104.93,252.99L104.96,252.82L115.14,247.2L116.47,247.03L119.59,245.83L120.41,245.66L121.91,244.98L122.93,244.81L124.84,243.62L124.88,243.45L129.64,241.23L129.84,241.06L130.89,240.38L131.3,240.21L137.26,236.28L137.27,236.11L144.24,232.87L144.38,232.7L144.84,232.02L145.43,231.85L153.82,227.76L155.09,227.59L155.14,227.42L156.26,227.25L157.41,225.88L158.33,225.71L158.59,225.37L159.13,225.2L164.28,223.67L164.43,223.5L165.26,222.82L165.44,222.64L177.86,217.36L178.02,217.19L178.12,216.85L179.98,216.68L185.93,214.46L186.04,214.29L190.72,212.59L190.88,212.42L191.48,211.73L192.07,211.56L192.38,211.22L193.39,211.05L194.16,210.71L194.35,210.54L195.14,209.86L195.28,209.69L195.62,209.01L196.46,208.83L198.51,207.13L199.38,206.96L200.73,205.77L201.31,205.6L208.6,203.89L208.85,203.72L212.54,202.53L212.57,202.36L214.87,201.33L216.69,201.16L217.95,200.82L218.82,200.65L222.62,199.12L222.91,198.95L228.94,195.02L228.98,194.85L229.76,194.51L229.92,194.34L232.95,191.44L234.02,191.27L236.37,190.25L236.51,190.08L237.12,189.74L239.3,189.57L245.17,187.86L245.24,187.69L246.17,187.18L246.49,187.01L248.04,186.16L248.22,185.99L249.06,185.14L250.27,184.96L251.99,183.77L252.58,183.6L253.33,182.75L253.77,182.58L254.49,181.73L254.59,181.55L255.5,180.87L255.77,180.7L256.67,179.85L256.69,179.68L259.47,178.14L259.72,177.97L261.36,176.61L261.88,176.44L264.61,175.08L264.71,174.91L265.24,174.39L265.72,174.22L269.78,171.15L270.86,170.98L272.9,169.45L273.32,169.28L278.18,166.72L278.33,166.55L279.21,165.7L279.49,165.53L279.9,165.19L280.37,165.02L281.07,164.68L282.26,164.5L283.66,163.82L285.16,163.65L285.47,163.14L289.11,162.97L295.73,161.44L295.74,161.27L299.33,159.56L299.56,159.39L302.91,157.68L303.45,157.51L303.74,157L304.5,156.83L306.66,156.15L307.11,155.98L308.87,154.62L308.9,154.45L309.64,153.93L310.92,153.76L313.07,151.72L314.14,151.55L315.06,150.01L315.13,149.84L315.84,149.33L316.18,149.16L319.22,147.28L320.07,147.11L323.15,144.9L324.52,144.73L326.1,143.36L326.26,143.19L328.45,142.51L329.06,142.34L330.35,141.49L331.5,141.32L332.31,140.98L333.15,140.81L333.29,140.46L334.44,140.29L335.22,139.44L335.6,139.27L343.67,137.4L344.54,137.22L349.08,134.5L349.15,134.33L351.99,133.64L352.77,133.47L356.12,131.6L357.27,131.43L359,130.92L359.9,130.75L363.29,128.36L363.6,128.19L371.15,125.12L372.02,124.95L379.33,122.05L379.47,121.88L381.2,121.03L382.34,120.86L382.98,120.35L383.39,120.17L386.22,118.81L386.22,118.64L386.22,118.3L387.52,118.13L388.58,117.62L390.47,117.45L390.93,116.94L391.77,116.77L391.78,116.59L392.94,116.42L393.09,116.25L394.68,116.08L399.96,113.87L400.24,113.7L400.94,112.84L401.09,112.67L401.87,111.99L402.19,111.82L406.12,110.29L406.15,110.12L407.11,109.6L407.41,109.43L408.02,108.75L409.49,108.58L410.29,107.73L411.14,107.56L418.37,104.83L419.1,104.66L423.51,102.61L423.53,102.44L424.33,101.93L425.51,101.76L426.75,101.08L427.58,100.91L434.86,94.94L434.86,94.77L435.6,93.07L435.87,92.9L439.8,89.66L440.5,89.49L447.21,84.37L448.07,84.2L451.53,83.18L451.68,83.01L454.9,80.28L455.02,80.11L455.6,77.89L455.96,77.72L457.08,75.16L457.09,74.99L457.96,73.8L458.22,73.63L464.46,68.68L465.28,68.51L466.48,66.98L466.51,66.81L467.67,65.1L468.17,64.93L470.15,62.89L470.81,62.72L471.69,61.52L471.89,61.35L473.61,60.16L473.61,59.99L474.47,58.97L474.8,58.8L476.81,56.75L477.6,56.58L479.8,55.39L479.91,55.21L482.67,52.49L482.69,52.32L483.97,50.95L483.98,50.78L484.71,50.1L484.75,49.93L488.15,45.84L488.79,45.67L489.67,44.64L490.3,44.47L492.19,42.94L492.31,42.77L493.47,41.75L493.77,41.57L495.4,41.06L495.84,40.89L497.14,38.68L497.93,38.51L500.35,36.8L502.07,36.63L502.13,36.46L502.99,36.29L506.38,34.41L506.52,34.24L510.61,32.2L510.62,32.03L512.36,31L512.65,30.83L514.77,29.81L514.91,29.64L521,26.57L521.84,26.4L522.62,25.72L522.86,25.55L523.03,25.21L523.78,25.04L525.7,23.84L525.77,23.67L528.89,22.65L528.93,22.48L530.18,21.11L530.6,20.94L530.92,20.43L531.9,20.26L532.03,19.92L533.08,19.75L537.18,17.88L537.35,17.7L539.96,16.17L540,16" style="fill: rgb(255, 127, 14); fill-opacity: 0.5; stroke-width: 0;"/></g></g><g class="errorbars"/><g class="lines"><path class="js-line" d="M0,319.83L0,319.49L2.01,319.32L3.92,318.3L4.65,318.12L5.27,316.93L5.66,316.76L6.27,315.74L6.59,315.57L8.76,311.99L9.17,311.82L10.35,310.79L10.35,310.62L11.26,309.77L11.95,309.6L13,307.55L13,307.38L13.28,306.53L13.78,306.36L14.47,304.83L15.01,304.66L16.21,304.14L17.47,303.97L18.72,302.95L18.97,302.78L19.12,302.61L22.2,302.44L27.51,299.88L27.62,299.71L28.35,299.37L30.27,299.2L33.32,297.32L34.56,297.15L38.6,294.43L38.6,294.25L38.91,293.4L39.57,293.23L41.8,291.02L41.8,290.84L42.51,290.16L42.81,289.99L45.13,287.95L46.45,287.78L48.67,285.73L48.82,285.56L49.19,284.88L49.87,284.71L54.24,282.83L54.91,282.66L55.98,281.64L57.16,281.47L61.41,278.23L63.04,278.06L66.41,274.99L66.51,274.82L66.63,274.48L67.42,274.31L70.08,272.94L70.12,272.77L70.44,272.43L71.21,272.26L72.4,271.92L73.38,271.75L74.23,270.56L74.64,270.38L80.7,268.34L80.82,268.17L82.45,267.15L82.99,266.97L83.79,265.78L84,265.61L86.7,264.42L86.94,264.25L86.97,263.91L87.84,263.74L88.58,262.88L88.86,262.71L89.57,262.2L89.92,262.03L89.92,261.69L91.04,261.52L91.06,261.18L91.93,261.01L96.28,259.64L96.77,259.47L97.9,258.79L98.21,258.62L102.9,256.57L102.92,256.4L104.19,255.38L104.2,255.21L104.93,252.99L104.96,252.82L115.14,247.2L116.47,247.03L119.59,245.83L120.41,245.66L121.91,244.98L122.93,244.81L124.84,243.62L124.88,243.45L129.64,241.23L129.84,241.06L130.89,240.38L131.3,240.21L137.26,236.28L137.27,236.11L144.24,232.87L144.38,232.7L144.84,232.02L145.43,231.85L153.82,227.76L155.09,227.59L155.14,227.42L156.26,227.25L157.41,225.88L158.33,225.71L158.59,225.37L159.13,225.2L164.28,223.67L164.43,223.5L165.26,222.82L165.44,222.64L177.86,217.36L178.02,217.19L178.12,216.85L179.98,216.68L185.93,214.46L186.04,214.29L190.72,212.59L190.88,212.42L191.48,211.73L192.07,211.56L192.38,211.22L193.39,211.05L194.16,210.71L194.35,210.54L195.14,209.86L195.28,209.69L195.62,209.01L196.46,208.83L198.51,207.13L199.38,206.96L200.73,205.77L201.31,205.6L208.6,203.89L208.85,203.72L212.54,202.53L212.57,202.36L214.87,201.33L216.69,201.16L217.95,200.82L218.82,200.65L222.62,199.12L222.91,198.95L228.94,195.02L228.98,194.85L229.76,194.51L229.92,194.34L232.95,191.44L234.02,191.27L236.37,190.25L236.51,190.08L237.12,189.74L239.3,189.57L245.17,187.86L245.24,187.69L246.17,187.18L246.49,187.01L248.04,186.16L248.22,185.99L249.06,185.14L250.27,184.96L251.99,183.77L252.58,183.6L253.33,182.75L253.77,182.58L254.49,181.73L254.59,181.55L255.5,180.87L255.77,180.7L256.67,179.85L256.69,179.68L259.47,178.14L259.72,177.97L261.36,176.61L261.88,176.44L264.61,175.08L264.71,174.91L265.24,174.39L265.72,174.22L269.78,171.15L270.86,170.98L272.9,169.45L273.32,169.28L278.18,166.72L278.33,166.55L279.21,165.7L279.49,165.53L279.9,165.19L280.37,165.02L281.07,164.68L282.26,164.5L283.66,163.82L285.16,163.65L285.47,163.14L289.11,162.97L295.73,161.44L295.74,161.27L299.33,159.56L299.56,159.39L302.91,157.68L303.45,157.51L303.74,157L304.5,156.83L306.66,156.15L307.11,155.98L308.87,154.62L308.9,154.45L309.64,153.93L310.92,153.76L313.07,151.72L314.14,151.55L315.06,150.01L315.13,149.84L315.84,149.33L316.18,149.16L319.22,147.28L320.07,147.11L323.15,144.9L324.52,144.73L326.1,143.36L326.26,143.19L328.45,142.51L329.06,142.34L330.35,141.49L331.5,141.32L332.31,140.98L333.15,140.81L333.29,140.46L334.44,140.29L335.22,139.44L335.6,139.27L343.67,137.4L344.54,137.22L349.08,134.5L349.15,134.33L351.99,133.64L352.77,133.47L356.12,131.6L357.27,131.43L359,130.92L359.9,130.75L363.29,128.36L363.6,128.19L371.15,125.12L372.02,124.95L379.33,122.05L379.47,121.88L381.2,121.03L382.34,120.86L382.98,120.35L383.39,120.17L386.22,118.81L386.22,118.64L386.22,118.3L387.52,118.13L388.58,117.62L390.47,117.45L390.93,116.94L391.77,116.77L391.78,116.59L392.94,116.42L393.09,116.25L394.68,116.08L399.96,113.87L400.24,113.7L400.94,112.84L401.09,112.67L401.87,111.99L402.19,111.82L406.12,110.29L406.15,110.12L407.11,109.6L407.41,109.43L408.02,108.75L409.49,108.58L410.29,107.73L411.14,107.56L418.37,104.83L419.1,104.66L423.51,102.61L423.53,102.44L424.33,101.93L425.51,101.76L426.75,101.08L427.58,100.91L434.86,94.94L434.86,94.77L435.6,93.07L435.87,92.9L439.8,89.66L440.5,89.49L447.21,84.37L448.07,84.2L451.53,83.18L451.68,83.01L454.9,80.28L455.02,80.11L455.6,77.89L455.96,77.72L457.08,75.16L457.09,74.99L457.96,73.8L458.22,73.63L464.46,68.68L465.28,68.51L466.48,66.98L466.51,66.81L467.67,65.1L468.17,64.93L470.15,62.89L470.81,62.72L471.69,61.52L471.89,61.35L473.61,60.16L473.61,59.99L474.47,58.97L474.8,58.8L476.81,56.75L477.6,56.58L479.8,55.39L479.91,55.21L482.67,52.49L482.69,52.32L483.97,50.95L483.98,50.78L484.71,50.1L484.75,49.93L488.15,45.84L488.79,45.67L489.67,44.64L490.3,44.47L492.19,42.94L492.31,42.77L493.47,41.75L493.77,41.57L495.4,41.06L495.84,40.89L497.14,38.68L497.93,38.51L500.35,36.8L502.07,36.63L502.13,36.46L502.99,36.29L506.38,34.41L506.52,34.24L510.61,32.2L510.62,32.03L512.36,31L512.65,30.83L514.77,29.81L514.91,29.64L521,26.57L521.84,26.4L522.62,25.72L522.86,25.55L523.03,25.21L523.78,25.04L525.7,23.84L525.77,23.67L528.89,22.65L528.93,22.48L530.18,21.11L530.6,20.94L530.92,20.43L531.9,20.26L532.03,19.92L533.08,19.75L537.18,17.88L537.35,17.7L539.96,16.17L540,16" style="vector-effect: none; fill: none; stroke: rgb(255, 127, 14); stroke-opacity: 1; stroke-width: 2px; opacity: 1;"/></g><g class="points"/><g class="text"/></g></g></g></g><g class="zerolinelayer-above"/><path class="xlines-above crisp" d="M0,0" style="fill: none;"/><path class="ylines-above crisp" d="M0,0" style="fill: none;"/><g class="overlines-above"/><g class="xaxislayer-above"><g class="xtick"><text text-anchor="middle" x="0" y="439" transform="translate(101.53,0)" style="font-family: 'Open Sans'; font-size: 18px; fill: rgb(0, 0, 0); fill-opacity: 1; white-space: pre;">2016</text></g><g class="xtick"><text text-anchor="middle" x="0" y="439" style="font-family: 'Open Sans'; font-size: 18px; fill: rgb(0, 0, 0); fill-opacity: 1; white-space: pre;" transform="translate(208.39,0)">2018</text></g><g class="xtick"><text text-anchor="middle" x="0" y="439" style="font-family: 'Open Sans'; font-size: 18px; fill: rgb(0, 0, 0); fill-opacity: 1; white-space: pre;" transform="translate(315.11,0)">2020</text></g><g class="xtick"><text text-anchor="middle" x="0" y="439" style="font-family: 'Open Sans'; font-size: 18px; fill: rgb(0, 0, 0); fill-opacity: 1; white-space: pre;" transform="translate(421.97,0)">2022</text></g><g class="xtick"><text text-anchor="middle" x="0" y="439" style="font-family: 'Open Sans'; font-size: 18px; fill: rgb(0, 0, 0); fill-opacity: 1; white-space: pre;" transform="translate(528.6800000000001,0)">2024</text></g></g><g class="yaxislayer-above"><g class="ytick"><text text-anchor="end" x="79" y="6.3" transform="translate(0,420)" style="font-family: 'Open Sans'; font-size: 18px; fill: rgb(0, 0, 0); fill-opacity: 1; white-space: pre;">0</text></g><g class="ytick"><text text-anchor="end" x="79" y="6.3" style="font-family: 'Open Sans'; font-size: 18px; fill: rgb(0, 0, 0); fill-opacity: 1; white-space: pre;" transform="translate(0,334.75)">500</text></g><g class="ytick"><text text-anchor="end" x="79" y="6.3" style="font-family: 'Open Sans'; font-size: 18px; fill: rgb(0, 0, 0); fill-opacity: 1; white-space: pre;" transform="translate(0,249.5)">1000</text></g><g class="ytick"><text text-anchor="end" x="79" y="6.3" style="font-family: 'Open Sans'; font-size: 18px; fill: rgb(0, 0, 0); fill-opacity: 1; white-space: pre;" transform="translate(0,164.25)">1500</text></g></g><g class="overaxes-above"/></g></g><g class="polarlayer"/><g class="smithlayer"/><g class="ternarylayer"/><g class="geolayer"/><g class="funnelarealayer"/><g class="pielayer"/><g class="iciclelayer"/><g class="treemaplayer"/><g class="sunburstlayer"/><g class="glimages"/><defs id="topdefs-9e5740"><g class="clips"/></defs><g class="layer-above"><g class="imagelayer"/><g class="shapelayer"/></g><g class="infolayer"><g class="g-gtitle"><text class="gtitle" x="35" y="50" text-anchor="start" dy="0em" style="opacity: 1; font-family: 'Open Sans'; font-size: 25px; fill: rgb(0, 0, 0); fill-opacity: 1; white-space: pre;">MultiQC/MultiQC - Issues Created Over Time</text></g><g class="g-xtitle"><text class="xtitle" x="350" y="472.9" text-anchor="middle" style="opacity: 1; font-family: 'Open Sans'; font-size: 22px; fill: rgb(0, 0, 0); fill-opacity: 1; white-space: pre;">Date</text></g><g class="g-ytitle"><text class="ytitle" transform="rotate(-90,20.799999999999997,260)" x="20.799999999999997" y="260" text-anchor="middle" style="opacity: 1; font-family: 'Open Sans'; font-size: 22px; fill: rgb(0, 0, 0); fill-opacity: 1; white-space: pre;">Cumulative Issues Created</text></g></g></svg>