<svg class="main-svg" xmlns="http://www.w3.org/2000/svg" xmlns:xlink="http://www.w3.org/1999/xlink" width="700" height="500" style="" viewBox="0 0 700 500"><rect x="0" y="0" width="700" height="500" style="fill: rgb(0, 0, 0); fill-opacity: 0;"/><defs id="defs-b34525"><g class="clips"><clipPath id="clipb34525xyplot" class="plotclip"><rect width="540" height="320"/></clipPath><clipPath class="axesclip" id="clipb34525x"><rect x="80" y="0" width="540" height="500"/></clipPath><clipPath class="axesclip" id="clipb34525y"><rect x="0" y="100" width="700" height="320"/></clipPath><clipPath class="axesclip" id="clipb34525xy"><rect x="80" y="100" width="540" height="320"/></clipPath></g><g class="gradients"/><g class="patterns"/></defs><g class="bglayer"><rect class="bg" x="80" y="100" width="540" height="320" style="fill: rgb(0, 0, 0); fill-opacity: 0; stroke-width: 0;"/></g><g class="layer-below"><g class="imagelayer"/><g class="shapelayer"/></g><g class="cartesianlayer"><g class="subplot xy"><g class="layer-subplot"><g class="shapelayer"/><g class="imagelayer"/></g><g class="minor-gridlayer"><g class="x"/><g class="y"/></g><g class="gridlayer"><g class="x"><path class="xgrid crisp" transform="translate(97.59,0)" d="M0,100v320" style="stroke: rgb(255, 255, 255); stroke-opacity: 1; stroke-width: 1px;"/><path class="xgrid crisp" transform="translate(205.26,0)" d="M0,100v320" style="stroke: rgb(255, 255, 255); stroke-opacity: 1; stroke-width: 1px;"/><path class="xgrid crisp" transform="translate(312.78,0)" d="M0,100v320" style="stroke: rgb(255, 255, 255); stroke-opacity: 1; stroke-width: 1px;"/><path class="xgrid crisp" transform="translate(420.45,0)" d="M0,100v320" style="stroke: rgb(255, 255, 255); stroke-opacity: 1; stroke-width: 1px;"/><path class="xgrid crisp" transform="translate(527.98,0)" d="M0,100v320" style="stroke: rgb(255, 255, 255); stroke-opacity: 1; stroke-width: 1px;"/></g><g class="y"><path class="ygrid crisp" transform="translate(0,370.97)" d="M80,0h540" style="stroke: rgb(255, 255, 255); stroke-opacity: 1; stroke-width: 1px;"/><path class="ygrid crisp" transform="translate(0,321.94)" d="M80,0h540" style="stroke: rgb(255, 255, 255); stroke-opacity: 1; stroke-width: 1px;"/><path class="ygrid crisp" transform="translate(0,272.9)" d="M80,0h540" style="stroke: rgb(255, 255, 255); stroke-opacity: 1; stroke-width: 1px;"/><path class="ygrid crisp" transform="translate(0,223.87)" d="M80,0h540" style="stroke: rgb(255, 255, 255); stroke-opacity: 1; stroke-width: 1px;"/><path class="ygrid crisp" transform="translate(0,174.84)" d="M80,0h540" style="stroke: rgb(255, 255, 255); stroke-opacity: 1; stroke-width: 1px;"/><path class="ygrid crisp" transform="translate(0,125.81)" d="M80,0h540" style="stroke: rgb(255, 255, 255); stroke-opacity: 1; stroke-width: 1px;"/></g></g><g class="zerolinelayer"><path class="yzl zl crisp" transform="translate(0,420)" d="M80,0h540" style="stroke: rgb(255, 255, 255); stroke-opacity: 1; stroke-width: 2px;"/></g><g class="layer-between"><g class="shapelayer"/><g class="imagelayer"/></g><path class="xlines-below"/><path class="ylines-below"/><g class="overlines-below"/><g class="xaxislayer-below"/><g class="yaxislayer-below"/><g class="overaxes-below"/><g class="overplot"><g class="xy" transform="translate(80,100)" clip-path="url(#clipb34525xyplot)"><g class="scatterlayer mlayer"><g class="trace scatter tracead6bba" style="stroke-miterlimit: 2;"><g class="fills"><g><path class="js-fill" d="M540,320L0,320L0,315.1L0.11,320L1.07,315.1L1.78,320L1.89,315.1L1.89,320L3.2,315.1L3.68,320L3.97,315.1L3.97,320L4.87,315.1L4.87,320L4.97,320L5.73,315.1L5.73,320L6.34,320L7.21,315.1L7.21,320L7.81,320L9.41,315.1L9.41,320L10.07,315.1L10.3,320L12.07,315.1L12.07,320L15.02,315.1L15.02,320L22.68,315.1L22.68,320L22.89,315.1L22.89,320L24.56,315.1L24.56,310.19L24.71,315.1L25.89,320L27.66,315.1L27.66,320L28.57,310.19L28.57,315.1L29.03,310.19L29.03,315.1L29.03,320L31.97,315.1L31.97,320L32.11,315.1L32.11,320L33.4,315.1L33.4,320L34.02,320L34.95,315.1L34.95,320L35.75,315.1L36.28,320L36.53,315.1L36.63,320L37.87,315.1L39.32,310.19L39.77,315.1L39.9,310.19L39.9,315.1L41.24,320L42,315.1L42,320L43.77,315.1L43.77,320L44.9,315.1L44.9,320L45.4,300.39L45.52,305.29L46.06,310.19L46.52,315.1L46.98,310.19L46.99,315.1L48.29,310.19L52.28,305.29L52.28,310.19L52.59,315.1L53.42,310.19L54.35,320L55.82,315.1L56.23,320L59.49,315.1L59.5,320L59.5,315.1L61.05,310.19L61.39,315.1L62.21,310.19L63.01,305.29L63.04,310.19L63.04,305.29L63.63,320L65.55,315.1L65.85,320L66.56,315.1L66.72,310.19L67.72,315.1L67.91,305.29L68.04,310.19L68.9,315.1L69.22,310.19L69.22,315.1L69.79,310.19L69.87,300.39L70.07,320L70.69,315.1L71.56,310.19L71.57,315.1L72.33,305.29L72.33,310.19L73.06,305.29L77.75,300.39L78.24,295.48L79.98,320L81.02,315.1L81.02,320L82.03,315.1L83.27,310.19L83.33,315.1L84.28,310.19L84.43,305.29L85.39,295.48L85.39,300.39L85.41,305.29L86.6,295.48L86.61,300.39L87.47,295.48L87.47,300.39L87.77,305.29L88.37,300.39L88.37,305.29L88.37,300.39L90.25,305.29L90.44,300.39L90.44,305.29L91.37,300.39L91.61,305.29L92.36,300.39L92.83,295.48L93.64,300.39L94.38,295.48L94.68,300.39L97.03,295.48L97.03,300.39L97.64,295.48L97.67,300.39L99.1,305.29L99.62,300.39L99.84,305.29L99.98,300.39L99.99,305.29L101.04,300.39L101.05,270.97L101.77,295.48L102.06,300.39L102.07,305.29L102.23,295.48L102.64,295.48L103.25,290.58L103.99,295.48L104.17,290.58L104.72,280.77L104.89,290.58L104.98,295.48L105.63,275.87L105.72,285.68L105.76,290.58L105.76,285.68L106.76,290.58L107.21,275.87L107.21,275.87L107.77,280.77L108.85,256.26L109.85,251.35L110.9,256.26L111.2,251.35L111.95,261.16L111.95,261.16L112.08,256.26L112.39,275.87L112.52,270.97L113.2,266.06L113.72,246.45L113.72,251.35L114.12,256.26L114.16,261.16L115.04,256.26L115.17,251.35L115.19,256.26L116.52,261.16L116.64,280.77L117.24,275.87L117.25,270.97L117.26,280.77L118.4,275.87L118.4,280.77L120.63,275.87L120.63,270.97L120.64,280.77L122.69,275.87L122.71,280.77L122.71,275.87L123.81,280.77L123.87,275.87L125.78,270.97L126.65,280.77L126.65,275.87L126.81,280.77L126.98,275.87L126.99,280.77L127.84,275.87L128.18,280.77L128.91,275.87L128.94,280.77L130.63,275.87L130.65,280.77L132.57,275.87L132.68,280.77L133.08,275.87L133.58,270.97L133.71,275.87L134.63,270.97L134.63,275.87L135.06,256.26L135.2,256.26L135.61,251.35L135.97,275.87L135.97,275.87L136.99,270.97L137.1,280.77L137.29,280.77L138.02,275.87L139.03,270.97L139.15,266.06L139.74,270.97L139.93,266.06L140.78,251.35L140.81,256.26L141.84,241.55L141.84,236.65L141.84,231.74L141.99,261.16L143.31,256.26L143.42,251.35L143.44,256.26L144.92,251.35L145.72,270.97L146.98,266.06L147.4,270.97L149.06,266.06L150.18,261.16L150.18,266.06L151.55,251.35L151.56,256.26L151.82,261.16L151.85,266.06L152.26,256.26L152.26,261.16L152.6,256.26L152.6,261.16L153.63,266.06L153.81,275.87L154.54,270.97L154.64,266.06L156.3,261.16L156.85,246.45L156.86,251.35L156.87,256.26L156.92,270.97L158.78,266.06L158.88,270.97L158.93,266.06L160.57,261.16L160.58,266.06L161.99,261.16L161.99,266.06L162.43,261.16L162.9,256.26L163.61,251.35L163.65,256.26L166.6,261.16L169.75,251.35L170.51,246.45L171.31,251.35L172.05,246.45L172.05,251.35L174.82,246.45L175.3,251.35L175.93,246.45L177.19,241.55L177.44,246.45L177.44,241.55L177.48,280.77L177.49,275.87L179.96,270.97L179.98,275.87L182.39,280.77L183.53,275.87L183.53,280.77L184.19,275.87L184.22,280.77L186.5,275.87L186.67,270.97L188.1,275.87L188.11,280.77L188.72,241.55L188.81,246.45L188.81,241.55L188.84,261.16L190.41,256.26L190.76,241.55L192.48,236.65L193,231.74L193.01,236.65L195.28,231.74L195.78,236.65L197.16,231.74L197.47,236.65L197.78,231.74L200.04,226.84L203.13,221.94L203.24,226.84L204.17,221.94L204.9,226.84L204.93,217.03L205.16,221.94L206.08,226.84L206.34,246.45L207.2,251.35L207.28,256.26L207.38,246.45L210.93,241.55L211.52,246.45L212.23,241.55L212.38,236.65L214.6,231.74L217.67,226.84L219.3,221.94L219.32,217.03L220.69,212.13L221.5,217.03L221.52,212.13L221.83,246.45L221.84,241.55L222.85,246.45L223.29,251.35L223.3,246.45L224.49,251.35L224.97,261.16L225.35,256.26L225.37,261.16L225.92,246.45L225.96,256.26L226.55,261.16L226.58,266.06L227.52,261.16L228.73,256.26L228.75,261.16L230.8,251.35L231.1,246.45L233.54,241.55L234.7,246.45L236.34,241.55L236.84,236.65L239.23,226.84L239.24,231.74L240.12,217.03L242.02,212.13L242.31,197.42L242.86,192.52L243.96,182.71L244.01,187.61L246.34,153.29L246.42,158.19L246.42,163.1L246.58,148.39L247.01,158.19L247.19,153.29L247.31,148.39L248.65,143.48L248.8,138.58L249.08,153.29L249.08,158.19L249.26,187.61L249.54,177.81L250.06,172.9L251.14,256.26L251.39,251.35L251.57,246.45L251.59,241.55L252.21,256.26L252.3,251.35L252.5,246.45L253.35,256.26L253.46,261.16L253.47,251.35L253.92,266.06L254.24,270.97L254.66,256.26L254.7,251.35L255.27,266.06L255.52,261.16L255.67,266.06L255.83,261.16L256.55,256.26L256.59,251.35L257.43,256.26L257.94,246.45L258.6,241.55L259.5,231.74L259.5,236.65L259.56,231.74L260.39,226.84L260.39,231.74L261,226.84L261.8,221.94L261.91,217.03L262.89,221.94L266.66,217.03L266.75,212.13L267.02,207.23L267.34,212.13L268.98,207.23L269.96,197.42L270.32,192.52L270.72,187.61L272.37,182.71L272.83,168L273.04,182.71L273.04,187.61L274.3,163.1L276.44,158.19L276.51,148.39L277.58,143.48L279.27,133.68L279.31,138.58L279.33,172.9L279.98,153.29L280.27,148.39L280.27,153.29L280.42,148.39L282.63,143.48L284.38,138.58L284.58,133.68L286.39,128.77L286.4,133.68L286.4,128.77L286.4,133.68L287.39,128.77L287.59,123.87L288.29,128.77L288.84,148.39L289.01,143.48L289.28,148.39L289.49,153.29L291.09,148.39L291.63,153.29L291.98,148.39L293.78,138.58L293.78,143.48L294.6,138.58L294.65,133.68L294.72,128.77L295.91,133.68L296.49,192.52L299.14,187.61L299.64,192.52L300.05,187.61L300.07,192.52L302.98,187.61L303.71,197.42L303.75,192.52L303.86,187.61L303.86,192.52L304.12,192.52L304.84,197.42L305.02,187.61L305.02,192.52L307.46,187.61L307.47,182.71L308.29,177.81L310.38,172.9L310.92,168L311.08,153.29L311.13,177.81L311.5,168L311.97,172.9L312.46,182.71L312.69,177.81L312.96,172.9L313.79,236.65L314.02,231.74L315.04,217.03L315.68,212.13L316.72,187.61L317.72,182.71L318.64,177.81L318.75,172.9L319.62,158.19L319.67,163.1L320.67,109.16L322.94,104.26L324.92,99.35L324.92,94.45L328.42,99.35L328.5,94.45L329.81,89.55L330.24,84.65L332.32,65.03L332.32,60.13L332.46,50.32L332.87,153.29L333.2,148.39L333.65,143.48L333.67,158.19L333.93,153.29L334.09,148.39L335.15,123.87L335.27,128.77L337.7,123.87L338.22,118.97L338.52,123.87L339.51,118.97L339.91,123.87L341.11,118.97L342.61,123.87L342.64,138.58L343.32,133.68L344.05,138.58L344.51,168L344.94,172.9L345.08,168L345.4,182.71L345.61,177.81L346,182.71L346.58,177.81L347.44,163.1L348.36,158.19L348.59,148.39L349.25,143.48L350.14,153.29L350.56,148.39L350.56,153.29L351.3,148.39L351.58,153.29L351.58,163.1L352.17,158.19L353.55,153.29L353.77,143.48L354.22,158.19L354.24,158.19L354.24,163.1L354.91,153.29L355.13,148.39L355.95,138.58L355.96,143.48L359.15,138.58L359.55,143.48L360.97,138.58L361.43,133.68L361.44,138.58L362.22,143.48L362.51,138.58L362.6,148.39L363.37,143.48L364.52,128.77L364.52,133.68L364.98,123.87L365.56,118.97L366.01,128.77L366.03,118.97L366.58,123.87L366.58,118.97L367.2,123.87L367.94,118.97L368.09,123.87L368.79,118.97L369.37,114.06L369.59,118.97L370,104.26L370.05,114.06L370.86,109.16L370.91,104.26L371.76,99.35L372.91,94.45L373,89.55L373.74,69.94L374.11,65.03L374.23,69.94L376.01,65.03L376.3,60.13L377.41,55.23L377.57,99.35L377.69,99.35L379.21,94.45L380.17,89.55L380.18,94.45L382.09,89.55L382.09,94.45L382.52,89.55L385.04,84.65L385.04,89.55L385.73,89.55L386.35,84.65L387.13,65.03L387.2,69.94L388.43,65.03L388.53,55.23L388.98,79.74L388.99,84.65L389.37,79.74L389.6,84.65L390.6,79.74L391.45,60.13L391.67,55.23L392.28,79.74L392.39,65.03L392.59,60.13L393.32,89.55L393.57,84.65L394.23,128.77L394.36,123.87L394.43,128.77L394.43,133.68L395.09,133.68L395.22,138.58L395.25,158.19L395.64,153.29L396.41,158.19L396.42,153.29L396.46,158.19L398.99,153.29L399.62,138.58L399.65,143.48L399.9,148.39L403.58,143.48L403.59,148.39L404.33,138.58L405.27,143.48L406.43,138.58L407.39,133.68L407.39,138.58L409.3,133.68L409.45,123.87L410.5,128.77L411.07,118.97L411.07,114.06L411.09,94.45L414.97,99.35L416.09,79.74L418.28,74.84L418.79,65.03L418.79,69.94L418.79,74.84L420.95,65.03L421.42,60.13L424.29,50.32L424.49,45.42L425.08,40.52L425.08,45.42L425.26,50.32L425.88,74.84L426,65.03L426.02,69.94L426.7,65.03L426.71,60.13L427.63,25.81L427.79,35.61L427.79,40.52L427.84,55.23L428.5,35.61L428.63,30.71L428.93,25.81L429.04,40.52L429.06,45.42L429.11,40.52L429.56,60.13L429.79,60.13L429.84,55.23L429.92,50.32L429.93,69.94L430.43,60.13L430.53,65.03L430.53,69.94L430.57,60.13L430.85,60.13L431.55,55.23L431.62,50.32L432.06,79.74L432.06,74.84L432.49,69.94L433.01,35.61L433.2,89.55L433.52,84.65L433.98,55.23L434.13,74.84L434.13,79.74L434.18,89.55L434.77,74.84L434.81,79.74L435.44,74.84L435.58,89.55L436.17,65.03L436.25,60.13L436.31,65.03L436.69,40.52L436.7,35.61L436.74,16L436.87,99.35L437.2,79.74L437.63,74.84L438.07,65.03L438.17,74.84L438.31,79.74L438.99,69.94L439.26,74.84L439.8,89.55L439.99,79.74L440.09,84.65L440.45,74.84L440.84,99.35L440.97,94.45L440.98,104.26L441.29,79.74L441.46,99.35L441.88,94.45L442.57,118.97L443.18,114.06L443.54,118.97L443.55,109.16L443.94,104.26L444.2,79.74L444.95,84.65L445.1,109.16L445.41,74.84L445.58,84.65L445.76,89.55L445.99,84.65L446.16,99.35L447.36,94.45L447.5,104.26L447.67,94.45L448.36,89.55L448.52,94.45L448.71,84.65L449.06,79.74L449.1,94.45L449.51,84.65L450.24,79.74L450.77,74.84L450.77,79.74L450.77,84.65L451.32,74.84L451.32,69.94L451.33,65.03L451.37,84.65L451.51,69.94L452.39,65.03L452.63,50.32L452.76,69.94L452.84,74.84L453.58,114.06L453.85,104.26L453.85,99.35L454.23,94.45L454.23,104.26L454.23,109.16L454.23,104.26L454.23,118.97L454.85,114.06L455.09,109.16L455.34,114.06L455.6,94.45L455.73,99.35L455.74,94.45L456.32,128.77L456.51,109.16L456.52,104.26L456.58,94.45L456.6,128.77L456.8,109.16L457.24,104.26L457.24,109.16L457.97,84.65L458.25,89.55L458.81,133.68L458.98,128.77L459.41,133.68L459.87,109.16L460.17,114.06L460.42,109.16L460.43,114.06L460.89,104.26L460.89,104.26L462.04,99.35L462.66,89.55L462.66,94.45L463.5,89.55L463.55,84.65L463.57,123.87L464,118.97L464.56,123.87L464.68,128.77L464.83,109.16L464.83,109.16L464.85,104.26L465.28,89.55L465.57,109.16L465.58,109.16L465.61,114.06L465.95,99.35L466.02,123.87L466.04,128.77L466.32,133.68L466.76,118.97L466.83,123.87L466.83,128.77L466.95,118.97L467.23,128.77L467.56,133.68L467.93,138.58L468.25,118.97L468.28,123.87L468.69,118.97L469.82,104.26L470.16,109.16L470.19,104.26L470.78,123.87L471.08,118.97L471.09,123.87L471.37,114.06L471.63,123.87L471.94,118.97L472.26,138.58L472.53,128.77L472.85,133.68L473.54,123.87L473.54,128.77L473.8,123.87L473.97,109.16L473.99,128.77L474.17,118.97L474.9,123.87L475.3,118.97L475.46,138.58L475.89,133.68L476.19,128.77L476.21,138.58L476.5,133.68L476.8,128.77L477.5,123.87L477.5,128.77L477.67,133.68L477.68,128.77L477.83,153.29L478.39,148.39L478.45,143.48L478.54,138.58L479.14,153.29L479.16,148.39L479.27,153.29L480.01,128.77L480.01,148.39L480.02,153.29L480.02,148.39L480.16,158.19L480.77,153.29L481.03,148.39L481.03,158.19L481.49,158.19L481.79,153.29L481.95,168L482.37,163.1L482.68,158.19L483.54,153.29L483.68,158.19L484.49,148.39L484.5,143.48L484.6,172.9L485.17,158.19L485.33,153.29L486.08,172.9L486.08,168L486.17,172.9L486.5,158.19L486.51,163.1L487.08,158.19L487.08,163.1L487.21,148.39L487.83,153.29L487.84,148.39L487.84,143.48L488.27,163.1L488.47,163.1L488.6,158.19L489.33,143.48L489.59,148.39L489.59,153.29L489.61,143.48L489.63,148.39L490.62,143.48L490.62,148.39L491.24,138.58L491.25,143.48L491.4,138.58L492.41,123.87L492.41,128.77L492.53,133.68L492.84,123.87L493.79,128.77L493.87,133.68L494.44,123.87L494.44,128.77L494.49,123.87L495.03,148.39L495.07,148.39L495.47,143.48L495.5,153.29L495.55,138.58L495.93,138.58L496.23,133.68L496.53,123.87L496.54,143.48L496.84,133.68L496.86,138.58L497.53,133.68L497.53,138.58L497.91,133.68L497.91,138.58L498.14,123.87L498.16,138.58L498.86,133.68L499.01,158.19L499.6,153.29L499.63,148.39L499.68,143.48L500.34,172.9L501.14,168L501.55,172.9L501.59,168L502.27,163.1L502.84,172.9L503.64,168L504.1,158.19L504.52,163.1L504.6,168L504.97,158.19L504.98,163.1L505.04,168L505.06,172.9L505.09,163.1L505.22,168L505.79,163.1L505.79,168L506.23,153.29L506.29,158.19L507.01,163.1L507.14,153.29L507.65,163.1L508.55,158.19L509.45,153.29L509.45,158.19L509.45,153.29L509.49,163.1L510.07,163.1L510.98,158.19L511.09,148.39L511.11,163.1L511.25,153.29L512.12,158.19L512.73,138.58L513.07,133.68L513.61,138.58L513.79,133.68L513.79,128.77L514.45,109.16L514.46,138.58L514.56,133.68L515.11,123.87L515.12,133.68L515.12,138.58L515.73,133.68L515.98,138.58L516.1,133.68L516.43,148.39L517.1,153.29L517.6,143.48L517.73,153.29L517.73,158.19L517.73,153.29L518.13,168L518.43,168L518.6,163.1L519.23,158.19L519.32,163.1L519.34,168L519.55,153.29L519.7,158.19L520.37,153.29L521.25,168L521.3,163.1L521.55,168L522,158.19L522.27,163.1L522.62,148.39L522.71,158.19L523.52,153.29L523.91,163.1L523.99,148.39L524.35,143.48L524.94,133.68L525.06,158.19L525.07,153.29L525.07,158.19L525.7,143.48L526.29,138.58L527.08,128.77L527.5,133.68L527.5,138.58L528.5,133.68L528.76,143.48L529.23,123.87L529.23,143.48L529.27,138.58L530.11,133.68L531.57,128.77L532.78,109.16L532.89,114.06L532.89,123.87L533.07,109.16L533.11,109.16L535.42,114.06L535.83,104.26L535.86,138.58L536.14,133.68L536.27,143.48L536.27,138.58L537.02,133.68L537.32,138.58L537.33,128.77L537.33,133.68L537.93,128.77L538.06,109.16L538.34,123.87L538.8,128.77L539.4,109.16L539.86,104.26L539.95,99.35L539.99,109.16L540,109.16" style="fill: rgb(44, 160, 44); fill-opacity: 0.5; stroke-width: 0;"/></g></g><g class="errorbars"/><g class="lines"><path class="js-line" d="M0,315.1L0.11,320L1.07,315.1L1.78,320L1.89,315.1L1.89,320L3.2,315.1L3.68,320L3.97,315.1L3.97,320L4.87,315.1L4.87,320L4.97,320L5.73,315.1L5.73,320L6.34,320L7.21,315.1L7.21,320L7.81,320L9.41,315.1L9.41,320L10.07,315.1L10.3,320L12.07,315.1L12.07,320L15.02,315.1L15.02,320L22.68,315.1L22.68,320L22.89,315.1L22.89,320L24.56,315.1L24.56,310.19L24.71,315.1L25.89,320L27.66,315.1L27.66,320L28.57,310.19L28.57,315.1L29.03,310.19L29.03,315.1L29.03,320L31.97,315.1L31.97,320L32.11,315.1L32.11,320L33.4,315.1L33.4,320L34.02,320L34.95,315.1L34.95,320L35.75,315.1L36.28,320L36.53,315.1L36.63,320L37.87,315.1L39.32,310.19L39.77,315.1L39.9,310.19L39.9,315.1L41.24,320L42,315.1L42,320L43.77,315.1L43.77,320L44.9,315.1L44.9,320L45.4,300.39L45.52,305.29L46.06,310.19L46.52,315.1L46.98,310.19L46.99,315.1L48.29,310.19L52.28,305.29L52.28,310.19L52.59,315.1L53.42,310.19L54.35,320L55.82,315.1L56.23,320L59.49,315.1L59.5,320L59.5,315.1L61.05,310.19L61.39,315.1L62.21,310.19L63.01,305.29L63.04,310.19L63.04,305.29L63.63,320L65.55,315.1L65.85,320L66.56,315.1L66.72,310.19L67.72,315.1L67.91,305.29L68.04,310.19L68.9,315.1L69.22,310.19L69.22,315.1L69.79,310.19L69.87,300.39L70.07,320L70.69,315.1L71.56,310.19L71.57,315.1L72.33,305.29L72.33,310.19L73.06,305.29L77.75,300.39L78.24,295.48L79.98,320L81.02,315.1L81.02,320L82.03,315.1L83.27,310.19L83.33,315.1L84.28,310.19L84.43,305.29L85.39,295.48L85.39,300.39L85.41,305.29L86.6,295.48L86.61,300.39L87.47,295.48L87.47,300.39L87.77,305.29L88.37,300.39L88.37,305.29L88.37,300.39L90.25,305.29L90.44,300.39L90.44,305.29L91.37,300.39L91.61,305.29L92.36,300.39L92.83,295.48L93.64,300.39L94.38,295.48L94.68,300.39L97.03,295.48L97.03,300.39L97.64,295.48L97.67,300.39L99.1,305.29L99.62,300.39L99.84,305.29L99.98,300.39L99.99,305.29L101.04,300.39L101.05,270.97L101.77,295.48L102.06,300.39L102.07,305.29L102.23,295.48L102.64,295.48L103.25,290.58L103.99,295.48L104.17,290.58L104.72,280.77L104.89,290.58L104.98,295.48L105.63,275.87L105.72,285.68L105.76,290.58L105.76,285.68L106.76,290.58L107.21,275.87L107.21,275.87L107.77,280.77L108.85,256.26L109.85,251.35L110.9,256.26L111.2,251.35L111.95,261.16L111.95,261.16L112.08,256.26L112.39,275.87L112.52,270.97L113.2,266.06L113.72,246.45L113.72,251.35L114.12,256.26L114.16,261.16L115.04,256.26L115.17,251.35L115.19,256.26L116.52,261.16L116.64,280.77L117.24,275.87L117.25,270.97L117.26,280.77L118.4,275.87L118.4,280.77L120.63,275.87L120.63,270.97L120.64,280.77L122.69,275.87L122.71,280.77L122.71,275.87L123.81,280.77L123.87,275.87L125.78,270.97L126.65,280.77L126.65,275.87L126.81,280.77L126.98,275.87L126.99,280.77L127.84,275.87L128.18,280.77L128.91,275.87L128.94,280.77L130.63,275.87L130.65,280.77L132.57,275.87L132.68,280.77L133.08,275.87L133.58,270.97L133.71,275.87L134.63,270.97L134.63,275.87L135.06,256.26L135.2,256.26L135.61,251.35L135.97,275.87L135.97,275.87L136.99,270.97L137.1,280.77L137.29,280.77L138.02,275.87L139.03,270.97L139.15,266.06L139.74,270.97L139.93,266.06L140.78,251.35L140.81,256.26L141.84,241.55L141.84,236.65L141.84,231.74L141.99,261.16L143.31,256.26L143.42,251.35L143.44,256.26L144.92,251.35L145.72,270.97L146.98,266.06L147.4,270.97L149.06,266.06L150.18,261.16L150.18,266.06L151.55,251.35L151.56,256.26L151.82,261.16L151.85,266.06L152.26,256.26L152.26,261.16L152.6,256.26L152.6,261.16L153.63,266.06L153.81,275.87L154.54,270.97L154.64,266.06L156.3,261.16L156.85,246.45L156.86,251.35L156.87,256.26L156.92,270.97L158.78,266.06L158.88,270.97L158.93,266.06L160.57,261.16L160.58,266.06L161.99,261.16L161.99,266.06L162.43,261.16L162.9,256.26L163.61,251.35L163.65,256.26L166.6,261.16L169.75,251.35L170.51,246.45L171.31,251.35L172.05,246.45L172.05,251.35L174.82,246.45L175.3,251.35L175.93,246.45L177.19,241.55L177.44,246.45L177.44,241.55L177.48,280.77L177.49,275.87L179.96,270.97L179.98,275.87L182.39,280.77L183.53,275.87L183.53,280.77L184.19,275.87L184.22,280.77L186.5,275.87L186.67,270.97L188.1,275.87L188.11,280.77L188.72,241.55L188.81,246.45L188.81,241.55L188.84,261.16L190.41,256.26L190.76,241.55L192.48,236.65L193,231.74L193.01,236.65L195.28,231.74L195.78,236.65L197.16,231.74L197.47,236.65L197.78,231.74L200.04,226.84L203.13,221.94L203.24,226.84L204.17,221.94L204.9,226.84L204.93,217.03L205.16,221.94L206.08,226.84L206.34,246.45L207.2,251.35L207.28,256.26L207.38,246.45L210.93,241.55L211.52,246.45L212.23,241.55L212.38,236.65L214.6,231.74L217.67,226.84L219.3,221.94L219.32,217.03L220.69,212.13L221.5,217.03L221.52,212.13L221.83,246.45L221.84,241.55L222.85,246.45L223.29,251.35L223.3,246.45L224.49,251.35L224.97,261.16L225.35,256.26L225.37,261.16L225.92,246.45L225.96,256.26L226.55,261.16L226.58,266.06L227.52,261.16L228.73,256.26L228.75,261.16L230.8,251.35L231.1,246.45L233.54,241.55L234.7,246.45L236.34,241.55L236.84,236.65L239.23,226.84L239.24,231.74L240.12,217.03L242.02,212.13L242.31,197.42L242.86,192.52L243.96,182.71L244.01,187.61L246.34,153.29L246.42,158.19L246.42,163.1L246.58,148.39L247.01,158.19L247.19,153.29L247.31,148.39L248.65,143.48L248.8,138.58L249.08,153.29L249.08,158.19L249.26,187.61L249.54,177.81L250.06,172.9L251.14,256.26L251.39,251.35L251.57,246.45L251.59,241.55L252.21,256.26L252.3,251.35L252.5,246.45L253.35,256.26L253.46,261.16L253.47,251.35L253.92,266.06L254.24,270.97L254.66,256.26L254.7,251.35L255.27,266.06L255.52,261.16L255.67,266.06L255.83,261.16L256.55,256.26L256.59,251.35L257.43,256.26L257.94,246.45L258.6,241.55L259.5,231.74L259.5,236.65L259.56,231.74L260.39,226.84L260.39,231.74L261,226.84L261.8,221.94L261.91,217.03L262.89,221.94L266.66,217.03L266.75,212.13L267.02,207.23L267.34,212.13L268.98,207.23L269.96,197.42L270.32,192.52L270.72,187.61L272.37,182.71L272.83,168L273.04,182.71L273.04,187.61L274.3,163.1L276.44,158.19L276.51,148.39L277.58,143.48L279.27,133.68L279.31,138.58L279.33,172.9L279.98,153.29L280.27,148.39L280.27,153.29L280.42,148.39L282.63,143.48L284.38,138.58L284.58,133.68L286.39,128.77L286.4,133.68L286.4,128.77L286.4,133.68L287.39,128.77L287.59,123.87L288.29,128.77L288.84,148.39L289.01,143.48L289.28,148.39L289.49,153.29L291.09,148.39L291.63,153.29L291.98,148.39L293.78,138.58L293.78,143.48L294.6,138.58L294.65,133.68L294.72,128.77L295.91,133.68L296.49,192.52L299.14,187.61L299.64,192.52L300.05,187.61L300.07,192.52L302.98,187.61L303.71,197.42L303.75,192.52L303.86,187.61L303.86,192.52L304.12,192.52L304.84,197.42L305.02,187.61L305.02,192.52L307.46,187.61L307.47,182.71L308.29,177.81L310.38,172.9L310.92,168L311.08,153.29L311.13,177.81L311.5,168L311.97,172.9L312.46,182.71L312.69,177.81L312.96,172.9L313.79,236.65L314.02,231.74L315.04,217.03L315.68,212.13L316.72,187.61L317.72,182.71L318.64,177.81L318.75,172.9L319.62,158.19L319.67,163.1L320.67,109.16L322.94,104.26L324.92,99.35L324.92,94.45L328.42,99.35L328.5,94.45L329.81,89.55L330.24,84.65L332.32,65.03L332.32,60.13L332.46,50.32L332.87,153.29L333.2,148.39L333.65,143.48L333.67,158.19L333.93,153.29L334.09,148.39L335.15,123.87L335.27,128.77L337.7,123.87L338.22,118.97L338.52,123.87L339.51,118.97L339.91,123.87L341.11,118.97L342.61,123.87L342.64,138.58L343.32,133.68L344.05,138.58L344.51,168L344.94,172.9L345.08,168L345.4,182.71L345.61,177.81L346,182.71L346.58,177.81L347.44,163.1L348.36,158.19L348.59,148.39L349.25,143.48L350.14,153.29L350.56,148.39L350.56,153.29L351.3,148.39L351.58,153.29L351.58,163.1L352.17,158.19L353.55,153.29L353.77,143.48L354.22,158.19L354.24,158.19L354.24,163.1L354.91,153.29L355.13,148.39L355.95,138.58L355.96,143.48L359.15,138.58L359.55,143.48L360.97,138.58L361.43,133.68L361.44,138.58L362.22,143.48L362.51,138.58L362.6,148.39L363.37,143.48L364.52,128.77L364.52,133.68L364.98,123.87L365.56,118.97L366.01,128.77L366.03,118.97L366.58,123.87L366.58,118.97L367.2,123.87L367.94,118.97L368.09,123.87L368.79,118.97L369.37,114.06L369.59,118.97L370,104.26L370.05,114.06L370.86,109.16L370.91,104.26L371.76,99.35L372.91,94.45L373,89.55L373.74,69.94L374.11,65.03L374.23,69.94L376.01,65.03L376.3,60.13L377.41,55.23L377.57,99.35L377.69,99.35L379.21,94.45L380.17,89.55L380.18,94.45L382.09,89.55L382.09,94.45L382.52,89.55L385.04,84.65L385.04,89.55L385.73,89.55L386.35,84.65L387.13,65.03L387.2,69.94L388.43,65.03L388.53,55.23L388.98,79.74L388.99,84.65L389.37,79.74L389.6,84.65L390.6,79.74L391.45,60.13L391.67,55.23L392.28,79.74L392.39,65.03L392.59,60.13L393.32,89.55L393.57,84.65L394.23,128.77L394.36,123.87L394.43,128.77L394.43,133.68L395.09,133.68L395.22,138.58L395.25,158.19L395.64,153.29L396.41,158.19L396.42,153.29L396.46,158.19L398.99,153.29L399.62,138.58L399.65,143.48L399.9,148.39L403.58,143.48L403.59,148.39L404.33,138.58L405.27,143.48L406.43,138.58L407.39,133.68L407.39,138.58L409.3,133.68L409.45,123.87L410.5,128.77L411.07,118.97L411.07,114.06L411.09,94.45L414.97,99.35L416.09,79.74L418.28,74.84L418.79,65.03L418.79,69.94L418.79,74.84L420.95,65.03L421.42,60.13L424.29,50.32L424.49,45.42L425.08,40.52L425.08,45.42L425.26,50.32L425.88,74.84L426,65.03L426.02,69.94L426.7,65.03L426.71,60.13L427.63,25.81L427.79,35.61L427.79,40.52L427.84,55.23L428.5,35.61L428.63,30.71L428.93,25.81L429.04,40.52L429.06,45.42L429.11,40.52L429.56,60.13L429.79,60.13L429.84,55.23L429.92,50.32L429.93,69.94L430.43,60.13L430.53,65.03L430.53,69.94L430.57,60.13L430.85,60.13L431.55,55.23L431.62,50.32L432.06,79.74L432.06,74.84L432.49,69.94L433.01,35.61L433.2,89.55L433.52,84.65L433.98,55.23L434.13,74.84L434.13,79.74L434.18,89.55L434.77,74.84L434.81,79.74L435.44,74.84L435.58,89.55L436.17,65.03L436.25,60.13L436.31,65.03L436.69,40.52L436.7,35.61L436.74,16L436.87,99.35L437.2,79.74L437.63,74.84L438.07,65.03L438.17,74.84L438.31,79.74L438.99,69.94L439.26,74.84L439.8,89.55L439.99,79.74L440.09,84.65L440.45,74.84L440.84,99.35L440.97,94.45L440.98,104.26L441.29,79.74L441.46,99.35L441.88,94.45L442.57,118.97L443.18,114.06L443.54,118.97L443.55,109.16L443.94,104.26L444.2,79.74L444.95,84.65L445.1,109.16L445.41,74.84L445.58,84.65L445.76,89.55L445.99,84.65L446.16,99.35L447.36,94.45L447.5,104.26L447.67,94.45L448.36,89.55L448.52,94.45L448.71,84.65L449.06,79.74L449.1,94.45L449.51,84.65L450.24,79.74L450.77,74.84L450.77,79.74L450.77,84.65L451.32,74.84L451.32,69.94L451.33,65.03L451.37,84.65L451.51,69.94L452.39,65.03L452.63,50.32L452.76,69.94L452.84,74.84L453.58,114.06L453.85,104.26L453.85,99.35L454.23,94.45L454.23,104.26L454.23,109.16L454.23,104.26L454.23,118.97L454.85,114.06L455.09,109.16L455.34,114.06L455.6,94.45L455.73,99.35L455.74,94.45L456.32,128.77L456.51,109.16L456.52,104.26L456.58,94.45L456.6,128.77L456.8,109.16L457.24,104.26L457.24,109.16L457.97,84.65L458.25,89.55L458.81,133.68L458.98,128.77L459.41,133.68L459.87,109.16L460.17,114.06L460.42,109.16L460.43,114.06L460.89,104.26L460.89,104.26L462.04,99.35L462.66,89.55L462.66,94.45L463.5,89.55L463.55,84.65L463.57,123.87L464,118.97L464.56,123.87L464.68,128.77L464.83,109.16L464.83,109.16L464.85,104.26L465.28,89.55L465.57,109.16L465.58,109.16L465.61,114.06L465.95,99.35L466.02,123.87L466.04,128.77L466.32,133.68L466.76,118.97L466.83,123.87L466.83,128.77L466.95,118.97L467.23,128.77L467.56,133.68L467.93,138.58L468.25,118.97L468.28,123.87L468.69,118.97L469.82,104.26L470.16,109.16L470.19,104.26L470.78,123.87L471.08,118.97L471.09,123.87L471.37,114.06L471.63,123.87L471.94,118.97L472.26,138.58L472.53,128.77L472.85,133.68L473.54,123.87L473.54,128.77L473.8,123.87L473.97,109.16L473.99,128.77L474.17,118.97L474.9,123.87L475.3,118.97L475.46,138.58L475.89,133.68L476.19,128.77L476.21,138.58L476.5,133.68L476.8,128.77L477.5,123.87L477.5,128.77L477.67,133.68L477.68,128.77L477.83,153.29L478.39,148.39L478.45,143.48L478.54,138.58L479.14,153.29L479.16,148.39L479.27,153.29L480.01,128.77L480.01,148.39L480.02,153.29L480.02,148.39L480.16,158.19L480.77,153.29L481.03,148.39L481.03,158.19L481.49,158.19L481.79,153.29L481.95,168L482.37,163.1L482.68,158.19L483.54,153.29L483.68,158.19L484.49,148.39L484.5,143.48L484.6,172.9L485.17,158.19L485.33,153.29L486.08,172.9L486.08,168L486.17,172.9L486.5,158.19L486.51,163.1L487.08,158.19L487.08,163.1L487.21,148.39L487.83,153.29L487.84,148.39L487.84,143.48L488.27,163.1L488.47,163.1L488.6,158.19L489.33,143.48L489.59,148.39L489.59,153.29L489.61,143.48L489.63,148.39L490.62,143.48L490.62,148.39L491.24,138.58L491.25,143.48L491.4,138.58L492.41,123.87L492.41,128.77L492.53,133.68L492.84,123.87L493.79,128.77L493.87,133.68L494.44,123.87L494.44,128.77L494.49,123.87L495.03,148.39L495.07,148.39L495.47,143.48L495.5,153.29L495.55,138.58L495.93,138.58L496.23,133.68L496.53,123.87L496.54,143.48L496.84,133.68L496.86,138.58L497.53,133.68L497.53,138.58L497.91,133.68L497.91,138.58L498.14,123.87L498.16,138.58L498.86,133.68L499.01,158.19L499.6,153.29L499.63,148.39L499.68,143.48L500.34,172.9L501.14,168L501.55,172.9L501.59,168L502.27,163.1L502.84,172.9L503.64,168L504.1,158.19L504.52,163.1L504.6,168L504.97,158.19L504.98,163.1L505.04,168L505.06,172.9L505.09,163.1L505.22,168L505.79,163.1L505.79,168L506.23,153.29L506.29,158.19L507.01,163.1L507.14,153.29L507.65,163.1L508.55,158.19L509.45,153.29L509.45,158.19L509.45,153.29L509.49,163.1L510.07,163.1L510.98,158.19L511.09,148.39L511.11,163.1L511.25,153.29L512.12,158.19L512.73,138.58L513.07,133.68L513.61,138.58L513.79,133.68L513.79,128.77L514.45,109.16L514.46,138.58L514.56,133.68L515.11,123.87L515.12,133.68L515.12,138.58L515.73,133.68L515.98,138.58L516.1,133.68L516.43,148.39L517.1,153.29L517.6,143.48L517.73,153.29L517.73,158.19L517.73,153.29L518.13,168L518.43,168L518.6,163.1L519.23,158.19L519.32,163.1L519.34,168L519.55,153.29L519.7,158.19L520.37,153.29L521.25,168L521.3,163.1L521.55,168L522,158.19L522.27,163.1L522.62,148.39L522.71,158.19L523.52,153.29L523.91,163.1L523.99,148.39L524.35,143.48L524.94,133.68L525.06,158.19L525.07,153.29L525.07,158.19L525.7,143.48L526.29,138.58L527.08,128.77L527.5,133.68L527.5,138.58L528.5,133.68L528.76,143.48L529.23,123.87L529.23,143.48L529.27,138.58L530.11,133.68L531.57,128.77L532.78,109.16L532.89,114.06L532.89,123.87L533.07,109.16L533.11,109.16L535.42,114.06L535.83,104.26L535.86,138.58L536.14,133.68L536.27,143.48L536.27,138.58L537.02,133.68L537.32,138.58L537.33,128.77L537.33,133.68L537.93,128.77L538.06,109.16L538.34,123.87L538.8,128.77L539.4,109.16L539.86,104.26L539.95,99.35L539.99,109.16L540,109.16" style="vector-effect: none; fill: none; stroke: rgb(44, 160, 44); stroke-opacity: 1; stroke-width: 2px; opacity: 1;"/></g><g class="points"/><g class="text"/></g></g></g></g><g class="zerolinelayer-above"/><path class="xlines-above crisp" d="M0,0" style="fill: none;"/><path class="ylines-above crisp" d="M0,0" style="fill: none;"/><g class="overlines-above"/><g class="xaxislayer-above"><g class="xtick"><text text-anchor="middle" x="0" y="439" transform="translate(97.59,0)" style="font-family: 'Open Sans'; font-size: 18px; fill: rgb(255, 255, 255); fill-opacity: 1; white-space: pre;">2016</text></g><g class="xtick"><text text-anchor="middle" x="0" y="439" style="font-family: 'Open Sans'; font-size: 18px; fill: rgb(255, 255, 255); fill-opacity: 1; white-space: pre;" transform="translate(205.26,0)">2018</text></g><g class="xtick"><text text-anchor="middle" x="0" y="439" style="font-family: 'Open Sans'; font-size: 18px; fill: rgb(255, 255, 255); fill-opacity: 1; white-space: pre;" transform="translate(312.78,0)">2020</text></g><g class="xtick"><text text-anchor="middle" x="0" y="439" style="font-family: 'Open Sans'; font-size: 18px; fill: rgb(255, 255, 255); fill-opacity: 1; white-space: pre;" transform="translate(420.45,0)">2022</text></g><g class="xtick"><text text-anchor="middle" x="0" y="439" style="font-family: 'Open Sans'; font-size: 18px; fill: rgb(255, 255, 255); fill-opacity: 1; white-space: pre;" transform="translate(527.98,0)">2024</text></g></g><g class="yaxislayer-above"><g class="ytick"><text text-anchor="end" x="79" y="6.3" transform="translate(0,420)" style="font-family: 'Open Sans'; font-size: 18px; fill: rgb(255, 255, 255); fill-opacity: 1; white-space: pre;">0</text></g><g class="ytick"><text text-anchor="end" x="79" y="6.3" style="font-family: 'Open Sans'; font-size: 18px; fill: rgb(255, 255, 255); fill-opacity: 1; white-space: pre;" transform="translate(0,370.97)">10</text></g><g class="ytick"><text text-anchor="end" x="79" y="6.3" style="font-family: 'Open Sans'; font-size: 18px; fill: rgb(255, 255, 255); fill-opacity: 1; white-space: pre;" transform="translate(0,321.94)">20</text></g><g class="ytick"><text text-anchor="end" x="79" y="6.3" style="font-family: 'Open Sans'; font-size: 18px; fill: rgb(255, 255, 255); fill-opacity: 1; white-space: pre;" transform="translate(0,272.9)">30</text></g><g class="ytick"><text text-anchor="end" x="79" y="6.3" style="font-family: 'Open Sans'; font-size: 18px; fill: rgb(255, 255, 255); fill-opacity: 1; white-space: pre;" transform="translate(0,223.87)">40</text></g><g class="ytick"><text text-anchor="end" x="79" y="6.3" style="font-family: 'Open Sans'; font-size: 18px; fill: rgb(255, 255, 255); fill-opacity: 1; white-space: pre;" transform="translate(0,174.84)">50</text></g><g class="ytick"><text text-anchor="end" x="79" y="6.3" style="font-family: 'Open Sans'; font-size: 18px; fill: rgb(255, 255, 255); fill-opacity: 1; white-space: pre;" transform="translate(0,125.81)">60</text></g></g><g class="overaxes-above"/></g></g><g class="polarlayer"/><g class="smithlayer"/><g class="ternarylayer"/><g class="geolayer"/><g class="funnelarealayer"/><g class="pielayer"/><g class="iciclelayer"/><g class="treemaplayer"/><g class="sunburstlayer"/><g class="glimages"/><defs id="topdefs-b34525"><g class="clips"/></defs><g class="layer-above"><g class="imagelayer"/><g class="shapelayer"/></g><g class="infolayer"><g class="g-gtitle"><text class="gtitle" x="35" y="50" text-anchor="start" dy="0em" style="opacity: 1; font-family: 'Open Sans'; font-size: 25px; fill: rgb(255, 255, 255); fill-opacity: 1; white-space: pre;">MultiQC/MultiQC - Open Pull Requests Over Time</text></g><g class="g-xtitle"><text class="xtitle" x="350" y="472.9" text-anchor="middle" style="opacity: 1; font-family: 'Open Sans'; font-size: 22px; fill: rgb(255, 255, 255); fill-opacity: 1; white-space: pre;">Date</text></g><g class="g-ytitle"><text class="ytitle" transform="rotate(-90,38.8,260)" x="38.8" y="260" text-anchor="middle" style="opacity: 1; font-family: 'Open Sans'; font-size: 22px; fill: rgb(255, 255, 255); fill-opacity: 1; white-space: pre;">Number of Open PRs</text></g></g></svg>