<svg class="main-svg" xmlns="http://www.w3.org/2000/svg" xmlns:xlink="http://www.w3.org/1999/xlink" width="700" height="500" style="" viewBox="0 0 700 500"><rect x="0" y="0" width="700" height="500" style="fill: rgb(0, 0, 0); fill-opacity: 0;"/><defs id="defs-406438"><g class="clips"><clipPath id="clip406438xyplot" class="plotclip"><rect width="540" height="320"/></clipPath><clipPath class="axesclip" id="clip406438x"><rect x="80" y="0" width="540" height="500"/></clipPath><clipPath class="axesclip" id="clip406438y"><rect x="0" y="100" width="700" height="320"/></clipPath><clipPath class="axesclip" id="clip406438xy"><rect x="80" y="100" width="540" height="320"/></clipPath></g><g class="gradients"/><g class="patterns"/></defs><g class="bglayer"><rect class="bg" x="80" y="100" width="540" height="320" style="fill: rgb(0, 0, 0); fill-opacity: 0; stroke-width: 0;"/></g><g class="layer-below"><g class="imagelayer"/><g class="shapelayer"/></g><g class="cartesianlayer"><g class="subplot xy"><g class="layer-subplot"><g class="shapelayer"/><g class="imagelayer"/></g><g class="minor-gridlayer"><g class="x"/><g class="y"/></g><g class="gridlayer"><g class="x"><path class="xgrid crisp" transform="translate(101.61,0)" d="M0,100v320" style="stroke: rgb(255, 255, 255); stroke-opacity: 1; stroke-width: 1px;"/><path class="xgrid crisp" transform="translate(207.37,0)" d="M0,100v320" style="stroke: rgb(255, 255, 255); stroke-opacity: 1; stroke-width: 1px;"/><path class="xgrid crisp" transform="translate(313,0)" d="M0,100v320" style="stroke: rgb(255, 255, 255); stroke-opacity: 1; stroke-width: 1px;"/><path class="xgrid crisp" transform="translate(418.76,0)" d="M0,100v320" style="stroke: rgb(255, 255, 255); stroke-opacity: 1; stroke-width: 1px;"/><path class="xgrid crisp" transform="translate(524.39,0)" d="M0,100v320" style="stroke: rgb(255, 255, 255); stroke-opacity: 1; stroke-width: 1px;"/></g><g class="y"><path class="ygrid crisp" transform="translate(0,355.59000000000003)" d="M80,0h540" style="stroke: rgb(255, 255, 255); stroke-opacity: 1; stroke-width: 1px;"/><path class="ygrid crisp" transform="translate(0,291.19)" d="M80,0h540" style="stroke: rgb(255, 255, 255); stroke-opacity: 1; stroke-width: 1px;"/><path class="ygrid crisp" transform="translate(0,226.78)" d="M80,0h540" style="stroke: rgb(255, 255, 255); stroke-opacity: 1; stroke-width: 1px;"/><path class="ygrid crisp" transform="translate(0,162.37)" d="M80,0h540" style="stroke: rgb(255, 255, 255); stroke-opacity: 1; stroke-width: 1px;"/></g></g><g class="zerolinelayer"><path class="yzl zl crisp" transform="translate(0,420)" d="M80,0h540" style="stroke: rgb(255, 255, 255); stroke-opacity: 1; stroke-width: 2px;"/></g><g class="layer-between"><g class="shapelayer"/><g class="imagelayer"/></g><path class="xlines-below"/><path class="ylines-below"/><g class="overlines-below"/><g class="xaxislayer-below"/><g class="yaxislayer-below"/><g class="overaxes-below"/><g class="overplot"><g class="xy" transform="translate(80,100)" clip-path="url(#clip406438xyplot)"><g class="scatterlayer mlayer"><g class="trace scatter trace09aac2" style="stroke-miterlimit: 2;"><g class="fills"><g><path class="js-fill" d="M540,320L0,320L0,318.71L7.38,316.14L7.95,314.85L10.26,313.56L28.41,312.27L32.39,310.98L40.2,309.69L48.78,307.12L48.91,305.83L49.9,304.54L56.78,303.25L59.58,300.68L66.22,299.39L66.62,298.1L67.85,296.81L68.72,294.24L72.93,292.95L75.35,291.66L81.19,290.37L87.65,287.8L89.41,286.51L93.18,285.22L100.26,283.93L103.6,281.36L103.6,280.07L103.74,273.63L104.73,272.34L106.49,271.05L106.61,269.76L110.4,263.32L110.68,262.03L112.12,260.75L112.25,259.46L117.93,255.59L122.66,254.31L128.46,251.73L129.04,250.44L136.59,249.15L136.72,247.86L137.14,246.58L140.89,245.29L141.85,241.42L143.66,240.14L143.79,234.98L145.25,233.69L153.7,232.41L156.12,231.12L158.26,229.83L158.27,228.54L168.75,227.25L169.87,225.97L173.3,224.68L173.31,223.39L187.49,218.24L189.22,216.95L193.59,214.37L194.59,213.08L205.57,210.51L205.6,209.22L212.88,207.93L215.14,206.64L219.64,205.36L219.76,204.07L221.94,202.78L227.01,201.49L228.75,200.2L229.16,198.92L237.15,197.63L239.44,196.34L240.2,195.05L242.06,193.76L243.95,191.19L244.37,189.9L245.82,186.03L246.08,184.75L246.6,182.17L247.13,180.88L247.23,179.59L249.19,178.31L250.46,177.02L250.58,175.73L254.5,166.71L255.13,165.42L256.26,164.14L256.35,162.85L259.17,160.27L266.28,158.98L266.64,156.41L268.52,155.12L269.36,153.83L271.89,152.54L275.91,151.25L276.63,149.97L276.97,148.68L278.5,147.39L278.92,144.81L279.36,143.53L279.79,140.95L281.53,139.66L285.67,138.37L286.5,137.08L286.9,135.8L288.24,134.51L309.16,129.36L309.17,128.07L309.77,125.49L313.1,124.2L313.57,122.92L321.62,121.63L323.51,120.34L328.69,119.05L332.09,115.19L333.03,113.9L333.18,111.32L345.63,110.03L358.93,108.75L359.82,107.46L367.29,102.31L367.65,101.02L368.7,95.86L369.52,94.58L369.82,93.29L373.99,92L379.66,89.42L388.02,88.14L389.8,85.56L389.8,84.27L389.8,75.25L390.9,73.97L391.36,72.68L392.97,71.39L401.34,70.1L402.36,68.81L412.33,67.53L413.06,66.24L423.72,64.95L425.65,63.66L426.66,61.08L427.26,59.8L429.7,58.51L429.83,57.22L435.83,55.93L435.83,54.64L435.95,53.36L445.89,52.07L447.84,49.49L454.48,48.2L471.4,45.63L473.68,44.34L473.71,40.47L475.87,39.19L490.61,37.9L491.09,36.61L495.3,35.32L495.3,34.03L495.3,31.46L500.44,30.17L500.44,28.88L512.3,27.59L512.91,23.73L518.99,22.44L522.46,21.15L523.75,19.86L530.3,17.29L540,16" style="fill: rgb(99, 110, 250); fill-opacity: 0.5; stroke-width: 0;"/></g></g><g class="errorbars"/><g class="lines"><path class="js-line" d="M0,318.71L7.38,316.14L7.95,314.85L10.26,313.56L28.41,312.27L32.39,310.98L40.2,309.69L48.78,307.12L48.91,305.83L49.9,304.54L56.78,303.25L59.58,300.68L66.22,299.39L66.62,298.1L67.85,296.81L68.72,294.24L72.93,292.95L75.35,291.66L81.19,290.37L87.65,287.8L89.41,286.51L93.18,285.22L100.26,283.93L103.6,281.36L103.6,280.07L103.74,273.63L104.73,272.34L106.49,271.05L106.61,269.76L110.4,263.32L110.68,262.03L112.12,260.75L112.25,259.46L117.93,255.59L122.66,254.31L128.46,251.73L129.04,250.44L136.59,249.15L136.72,247.86L137.14,246.58L140.89,245.29L141.85,241.42L143.66,240.14L143.79,234.98L145.25,233.69L153.7,232.41L156.12,231.12L158.26,229.83L158.27,228.54L168.75,227.25L169.87,225.97L173.3,224.68L173.31,223.39L187.49,218.24L189.22,216.95L193.59,214.37L194.59,213.08L205.57,210.51L205.6,209.22L212.88,207.93L215.14,206.64L219.64,205.36L219.76,204.07L221.94,202.78L227.01,201.49L228.75,200.2L229.16,198.92L237.15,197.63L239.44,196.34L240.2,195.05L242.06,193.76L243.95,191.19L244.37,189.9L245.82,186.03L246.08,184.75L246.6,182.17L247.13,180.88L247.23,179.59L249.19,178.31L250.46,177.02L250.58,175.73L254.5,166.71L255.13,165.42L256.26,164.14L256.35,162.85L259.17,160.27L266.28,158.98L266.64,156.41L268.52,155.12L269.36,153.83L271.89,152.54L275.91,151.25L276.63,149.97L276.97,148.68L278.5,147.39L278.92,144.81L279.36,143.53L279.79,140.95L281.53,139.66L285.67,138.37L286.5,137.08L286.9,135.8L288.24,134.51L309.16,129.36L309.17,128.07L309.77,125.49L313.1,124.2L313.57,122.92L321.62,121.63L323.51,120.34L328.69,119.05L332.09,115.19L333.03,113.9L333.18,111.32L345.63,110.03L358.93,108.75L359.82,107.46L367.29,102.31L367.65,101.02L368.7,95.86L369.52,94.58L369.82,93.29L373.99,92L379.66,89.42L388.02,88.14L389.8,85.56L389.8,84.27L389.8,75.25L390.9,73.97L391.36,72.68L392.97,71.39L401.34,70.1L402.36,68.81L412.33,67.53L413.06,66.24L423.72,64.95L425.65,63.66L426.66,61.08L427.26,59.8L429.7,58.51L429.83,57.22L435.83,55.93L435.83,54.64L435.95,53.36L445.89,52.07L447.84,49.49L454.48,48.2L471.4,45.63L473.68,44.34L473.71,40.47L475.87,39.19L490.61,37.9L491.09,36.61L495.3,35.32L495.3,34.03L495.3,31.46L500.44,30.17L500.44,28.88L512.3,27.59L512.91,23.73L518.99,22.44L522.46,21.15L523.75,19.86L530.3,17.29L540,16" style="vector-effect: none; fill: none; stroke: rgb(99, 110, 250); stroke-opacity: 1; stroke-width: 2px; opacity: 1;"/></g><g class="points"/><g class="text"/></g></g></g></g><g class="zerolinelayer-above"/><path class="xlines-above crisp" d="M0,0" style="fill: none;"/><path class="ylines-above crisp" d="M0,0" style="fill: none;"/><g class="overlines-above"/><g class="xaxislayer-above"><g class="xtick"><text text-anchor="middle" x="0" y="439" transform="translate(101.61,0)" style="font-family: 'Open Sans'; font-size: 18px; fill: rgb(0, 0, 0); fill-opacity: 1; white-space: pre;">2016</text></g><g class="xtick"><text text-anchor="middle" x="0" y="439" style="font-family: 'Open Sans'; font-size: 18px; fill: rgb(0, 0, 0); fill-opacity: 1; white-space: pre;" transform="translate(207.37,0)">2018</text></g><g class="xtick"><text text-anchor="middle" x="0" y="439" style="font-family: 'Open Sans'; font-size: 18px; fill: rgb(0, 0, 0); fill-opacity: 1; white-space: pre;" transform="translate(313,0)">2020</text></g><g class="xtick"><text text-anchor="middle" x="0" y="439" style="font-family: 'Open Sans'; font-size: 18px; fill: rgb(0, 0, 0); fill-opacity: 1; white-space: pre;" transform="translate(418.76,0)">2022</text></g><g class="xtick"><text text-anchor="middle" x="0" y="439" style="font-family: 'Open Sans'; font-size: 18px; fill: rgb(0, 0, 0); fill-opacity: 1; white-space: pre;" transform="translate(524.39,0)">2024</text></g></g><g class="yaxislayer-above"><g class="ytick"><text text-anchor="end" x="79" y="6.3" transform="translate(0,420)" style="font-family: 'Open Sans'; font-size: 18px; fill: rgb(0, 0, 0); fill-opacity: 1; white-space: pre;">0</text></g><g class="ytick"><text text-anchor="end" x="79" y="6.3" style="font-family: 'Open Sans'; font-size: 18px; fill: rgb(0, 0, 0); fill-opacity: 1; white-space: pre;" transform="translate(0,355.59000000000003)">50</text></g><g class="ytick"><text text-anchor="end" x="79" y="6.3" style="font-family: 'Open Sans'; font-size: 18px; fill: rgb(0, 0, 0); fill-opacity: 1; white-space: pre;" transform="translate(0,291.19)">100</text></g><g class="ytick"><text text-anchor="end" x="79" y="6.3" style="font-family: 'Open Sans'; font-size: 18px; fill: rgb(0, 0, 0); fill-opacity: 1; white-space: pre;" transform="translate(0,226.78)">150</text></g><g class="ytick"><text text-anchor="end" x="79" y="6.3" style="font-family: 'Open Sans'; font-size: 18px; fill: rgb(0, 0, 0); fill-opacity: 1; white-space: pre;" transform="translate(0,162.37)">200</text></g></g><g class="overaxes-above"/></g></g><g class="polarlayer"/><g class="smithlayer"/><g class="ternarylayer"/><g class="geolayer"/><g class="funnelarealayer"/><g class="pielayer"/><g class="iciclelayer"/><g class="treemaplayer"/><g class="sunburstlayer"/><g class="glimages"/><defs id="topdefs-406438"><g class="clips"/></defs><g class="layer-above"><g class="imagelayer"/><g class="shapelayer"/></g><g class="infolayer"><g class="g-gtitle"><text class="gtitle" x="35" y="50" text-anchor="start" dy="0em" style="opacity: 1; font-family: 'Open Sans'; font-size: 25px; fill: rgb(0, 0, 0); fill-opacity: 1; white-space: pre;">MultiQC code contributors over time</text></g><g class="g-xtitle"><text class="xtitle" x="350" y="472.9" text-anchor="middle" style="opacity: 1; font-family: 'Open Sans'; font-size: 22px; fill: rgb(0, 0, 0); fill-opacity: 1; white-space: pre;">Date</text></g><g class="g-ytitle"><text class="ytitle" transform="rotate(-90,29.799999999999997,260)" x="29.799999999999997" y="260" text-anchor="middle" style="opacity: 1; font-family: 'Open Sans'; font-size: 22px; fill: rgb(0, 0, 0); fill-opacity: 1; white-space: pre;">Number of contributors</text></g></g></svg>