<svg class="main-svg" xmlns="http://www.w3.org/2000/svg" xmlns:xlink="http://www.w3.org/1999/xlink" width="700" height="500" style="" viewBox="0 0 700 500"><rect x="0" y="0" width="700" height="500" style="fill: rgb(0, 0, 0); fill-opacity: 0;"/><defs id="defs-41ffef"><g class="clips"><clipPath id="clip41ffefxyplot" class="plotclip"><rect width="540" height="320"/></clipPath><clipPath class="axesclip" id="clip41ffefx"><rect x="80" y="0" width="540" height="500"/></clipPath><clipPath class="axesclip" id="clip41ffefy"><rect x="0" y="100" width="700" height="320"/></clipPath><clipPath class="axesclip" id="clip41ffefxy"><rect x="80" y="100" width="540" height="320"/></clipPath></g><g class="gradients"/><g class="patterns"/></defs><g class="bglayer"><rect class="bg" x="80" y="100" width="540" height="320" style="fill: rgb(0, 0, 0); fill-opacity: 0; stroke-width: 0;"/></g><g class="layer-below"><g class="imagelayer"/><g class="shapelayer"/></g><g class="cartesianlayer"><g class="subplot xy"><g class="layer-subplot"><g class="shapelayer"/><g class="imagelayer"/></g><g class="minor-gridlayer"><g class="x"/><g class="y"/></g><g class="gridlayer"><g class="x"><path class="xgrid crisp" transform="translate(100.35,0)" d="M0,100v320" style="stroke: rgb(255, 255, 255); stroke-opacity: 1; stroke-width: 1px;"/><path class="xgrid crisp" transform="translate(199.98000000000002,0)" d="M0,100v320" style="stroke: rgb(255, 255, 255); stroke-opacity: 1; stroke-width: 1px;"/><path class="xgrid crisp" transform="translate(299.48,0)" d="M0,100v320" style="stroke: rgb(255, 255, 255); stroke-opacity: 1; stroke-width: 1px;"/><path class="xgrid crisp" transform="translate(399.1,0)" d="M0,100v320" style="stroke: rgb(255, 255, 255); stroke-opacity: 1; stroke-width: 1px;"/><path class="xgrid crisp" transform="translate(498.6,0)" d="M0,100v320" style="stroke: rgb(255, 255, 255); stroke-opacity: 1; stroke-width: 1px;"/><path class="xgrid crisp" transform="translate(598.23,0)" d="M0,100v320" style="stroke: rgb(255, 255, 255); stroke-opacity: 1; stroke-width: 1px;"/></g><g class="y"><path class="ygrid crisp" transform="translate(0,359.68)" d="M80,0h540" style="stroke: rgb(255, 255, 255); stroke-opacity: 1; stroke-width: 1px;"/><path class="ygrid crisp" transform="translate(0,299.37)" d="M80,0h540" style="stroke: rgb(255, 255, 255); stroke-opacity: 1; stroke-width: 1px;"/><path class="ygrid crisp" transform="translate(0,239.05)" d="M80,0h540" style="stroke: rgb(255, 255, 255); stroke-opacity: 1; stroke-width: 1px;"/><path class="ygrid crisp" transform="translate(0,178.73000000000002)" d="M80,0h540" style="stroke: rgb(255, 255, 255); stroke-opacity: 1; stroke-width: 1px;"/><path class="ygrid crisp" transform="translate(0,118.41)" d="M80,0h540" style="stroke: rgb(255, 255, 255); stroke-opacity: 1; stroke-width: 1px;"/></g></g><g class="zerolinelayer"><path class="yzl zl crisp" transform="translate(0,420)" d="M80,0h540" style="stroke: rgb(255, 255, 255); stroke-opacity: 1; stroke-width: 2px;"/></g><g class="layer-between"><g class="shapelayer"/><g class="imagelayer"/></g><path class="xlines-below"/><path class="ylines-below"/><g class="overlines-below"/><g class="xaxislayer-below"/><g class="yaxislayer-below"/><g class="overaxes-below"/><g class="overplot"><g class="xy" transform="translate(80,100)" clip-path="url(#clip41ffefxyplot)"><g class="scatterlayer mlayer"><g class="trace scatter trace6b220b" style="stroke-miterlimit: 2;"><g class="fills"><g><path class="js-fill" d="M540,320L0,320L0,318.79L6.95,316.38L7.49,315.17L9.66,313.97L26.76,312.76L30.51,311.56L37.86,310.35L45.95,307.94L46.07,306.73L47.01,305.52L53.48,304.32L56.12,301.9L62.38,300.7L64.06,297.08L64.74,295.87L82.56,289.84L84.22,288.63L87.78,287.43L94.44,286.22L97.59,283.81L97.59,282.6L97.72,276.57L98.65,275.37L100.31,274.16L100.42,272.95L103.99,266.92L104.25,265.71L105.61,264.51L105.73,263.3L111.08,259.68L115.54,258.48L121.01,256.06L121.55,254.86L128.66,253.65L128.78,252.44L129.18,251.24L132.71,250.03L133.61,246.41L135.32,245.21L135.45,240.38L136.82,239.17L144.78,237.97L147.06,236.76L149.07,235.56L149.08,234.35L158.96,233.14L160.01,231.94L163.25,230.73L163.25,229.52L176.61,224.7L178.24,223.49L182.35,221.08L183.3,219.87L193.64,217.46L193.67,216.25L200.53,215.05L202.65,213.84L206.89,212.63L207,211.43L209.06,210.22L213.83,209.02L215.86,206.6L223.38,205.4L226.26,202.98L228.01,201.78L229.79,199.37L230.18,198.16L231.56,194.54L231.8,193.33L232.79,189.71L232.88,188.51L235.92,186.1L236.04,184.89L239.73,176.44L240.33,175.24L244.13,170.41L250.83,169.21L251.16,166.79L252.94,165.59L253.73,164.38L256.12,163.17L259.9,161.97L260.58,160.76L260.89,159.56L262.34,158.35L262.74,155.94L263.15,154.73L263.56,152.32L265.19,151.11L269.09,149.9L269.87,148.7L270.25,147.49L271.51,146.29L291.22,141.46L291.23,140.25L291.79,137.84L294.93,136.63L295.38,135.43L302.95,134.22L304.73,133.02L309.61,131.81L312.82,128.19L313.7,126.98L313.85,124.57L325.57,123.37L338.1,122.16L338.94,120.95L345.97,116.13L346.32,114.92L347.31,110.1L348.07,108.89L348.35,107.68L352.29,106.48L357.63,104.06L365.5,102.86L367.18,100.44L367.18,99.24L367.18,90.79L368.22,89.59L368.64,88.38L370.16,87.17L378.05,85.97L379,84.76L388.4,83.56L389.09,82.35L399.13,81.14L400.94,79.94L401.9,77.52L402.46,76.32L404.76,75.11L404.89,73.9L410.54,72.7L410.54,71.49L410.65,70.29L420.02,69.08L421.85,66.67L428.11,65.46L444.04,63.05L446.19,61.84L446.22,58.22L448.25,57.02L462.14,55.81L462.59,54.6L466.55,53.4L466.56,52.19L466.56,49.78L471.4,48.57L471.4,47.37L482.57,46.16L483.15,42.54L488.87,41.33L497.18,37.71L499.52,36.51L514.08,34.1L519.84,32.89L531.65,31.68L533.27,30.48L536.02,28.06L536.02,26.86L536.22,17.21L540,16" style="fill: rgb(99, 110, 250); fill-opacity: 0.5; stroke-width: 0;"/></g></g><g class="errorbars"/><g class="lines"><path class="js-line" d="M0,318.79L6.95,316.38L7.49,315.17L9.66,313.97L26.76,312.76L30.51,311.56L37.86,310.35L45.95,307.94L46.07,306.73L47.01,305.52L53.48,304.32L56.12,301.9L62.38,300.7L64.06,297.08L64.74,295.87L82.56,289.84L84.22,288.63L87.78,287.43L94.44,286.22L97.59,283.81L97.59,282.6L97.72,276.57L98.65,275.37L100.31,274.16L100.42,272.95L103.99,266.92L104.25,265.71L105.61,264.51L105.73,263.3L111.08,259.68L115.54,258.48L121.01,256.06L121.55,254.86L128.66,253.65L128.78,252.44L129.18,251.24L132.71,250.03L133.61,246.41L135.32,245.21L135.45,240.38L136.82,239.17L144.78,237.97L147.06,236.76L149.07,235.56L149.08,234.35L158.96,233.14L160.01,231.94L163.25,230.73L163.25,229.52L176.61,224.7L178.24,223.49L182.35,221.08L183.3,219.87L193.64,217.46L193.67,216.25L200.53,215.05L202.65,213.84L206.89,212.63L207,211.43L209.06,210.22L213.83,209.02L215.86,206.6L223.38,205.4L226.26,202.98L228.01,201.78L229.79,199.37L230.18,198.16L231.56,194.54L231.8,193.33L232.79,189.71L232.88,188.51L235.92,186.1L236.04,184.89L239.73,176.44L240.33,175.24L244.13,170.41L250.83,169.21L251.16,166.79L252.94,165.59L253.73,164.38L256.12,163.17L259.9,161.97L260.58,160.76L260.89,159.56L262.34,158.35L262.74,155.94L263.15,154.73L263.56,152.32L265.19,151.11L269.09,149.9L269.87,148.7L270.25,147.49L271.51,146.29L291.22,141.46L291.23,140.25L291.79,137.84L294.93,136.63L295.38,135.43L302.95,134.22L304.73,133.02L309.61,131.81L312.82,128.19L313.7,126.98L313.85,124.57L325.57,123.37L338.1,122.16L338.94,120.95L345.97,116.13L346.32,114.92L347.31,110.1L348.07,108.89L348.35,107.68L352.29,106.48L357.63,104.06L365.5,102.86L367.18,100.44L367.18,99.24L367.18,90.79L368.22,89.59L368.64,88.38L370.16,87.17L378.05,85.97L379,84.76L388.4,83.56L389.09,82.35L399.13,81.14L400.94,79.94L401.9,77.52L402.46,76.32L404.76,75.11L404.89,73.9L410.54,72.7L410.54,71.49L410.65,70.29L420.02,69.08L421.85,66.67L428.11,65.46L444.04,63.05L446.19,61.84L446.22,58.22L448.25,57.02L462.14,55.81L462.59,54.6L466.55,53.4L466.56,52.19L466.56,49.78L471.4,48.57L471.4,47.37L482.57,46.16L483.15,42.54L488.87,41.33L497.18,37.71L499.52,36.51L514.08,34.1L519.84,32.89L531.65,31.68L533.27,30.48L536.02,28.06L536.02,26.86L536.22,17.21L540,16" style="vector-effect: none; fill: none; stroke: rgb(99, 110, 250); stroke-opacity: 1; stroke-width: 2px; opacity: 1;"/></g><g class="points"/><g class="text"/></g></g></g></g><g class="zerolinelayer-above"/><path class="xlines-above crisp" d="M0,0" style="fill: none;"/><path class="ylines-above crisp" d="M0,0" style="fill: none;"/><g class="overlines-above"/><g class="xaxislayer-above"><g class="xtick"><text text-anchor="middle" x="0" y="439" transform="translate(100.35,0)" style="font-family: 'Open Sans'; font-size: 18px; fill: rgb(0, 0, 0); fill-opacity: 1; white-space: pre;">2016</text></g><g class="xtick"><text text-anchor="middle" x="0" y="439" style="font-family: 'Open Sans'; font-size: 18px; fill: rgb(0, 0, 0); fill-opacity: 1; white-space: pre;" transform="translate(199.98000000000002,0)">2018</text></g><g class="xtick"><text text-anchor="middle" x="0" y="439" style="font-family: 'Open Sans'; font-size: 18px; fill: rgb(0, 0, 0); fill-opacity: 1; white-space: pre;" transform="translate(299.48,0)">2020</text></g><g class="xtick"><text text-anchor="middle" x="0" y="439" style="font-family: 'Open Sans'; font-size: 18px; fill: rgb(0, 0, 0); fill-opacity: 1; white-space: pre;" transform="translate(399.1,0)">2022</text></g><g class="xtick"><text text-anchor="middle" x="0" y="439" style="font-family: 'Open Sans'; font-size: 18px; fill: rgb(0, 0, 0); fill-opacity: 1; white-space: pre;" transform="translate(498.6,0)">2024</text></g><g class="xtick"><text text-anchor="middle" x="0" y="439" style="font-family: 'Open Sans'; font-size: 18px; fill: rgb(0, 0, 0); fill-opacity: 1; white-space: pre;" transform="translate(598.23,0)">2026</text></g></g><g class="yaxislayer-above"><g class="ytick"><text text-anchor="end" x="79" y="6.3" transform="translate(0,420)" style="font-family: 'Open Sans'; font-size: 18px; fill: rgb(0, 0, 0); fill-opacity: 1; white-space: pre;">0</text></g><g class="ytick"><text text-anchor="end" x="79" y="6.3" style="font-family: 'Open Sans'; font-size: 18px; fill: rgb(0, 0, 0); fill-opacity: 1; white-space: pre;" transform="translate(0,359.68)">50</text></g><g class="ytick"><text text-anchor="end" x="79" y="6.3" style="font-family: 'Open Sans'; font-size: 18px; fill: rgb(0, 0, 0); fill-opacity: 1; white-space: pre;" transform="translate(0,299.37)">100</text></g><g class="ytick"><text text-anchor="end" x="79" y="6.3" style="font-family: 'Open Sans'; font-size: 18px; fill: rgb(0, 0, 0); fill-opacity: 1; white-space: pre;" transform="translate(0,239.05)">150</text></g><g class="ytick"><text text-anchor="end" x="79" y="6.3" style="font-family: 'Open Sans'; font-size: 18px; fill: rgb(0, 0, 0); fill-opacity: 1; white-space: pre;" transform="translate(0,178.73000000000002)">200</text></g><g class="ytick"><text text-anchor="end" x="79" y="6.3" style="font-family: 'Open Sans'; font-size: 18px; fill: rgb(0, 0, 0); fill-opacity: 1; white-space: pre;" transform="translate(0,118.41)">250</text></g></g><g class="overaxes-above"/></g></g><g class="polarlayer"/><g class="smithlayer"/><g class="ternarylayer"/><g class="geolayer"/><g class="funnelarealayer"/><g class="pielayer"/><g class="iciclelayer"/><g class="treemaplayer"/><g class="sunburstlayer"/><g class="glimages"/><defs id="topdefs-41ffef"><g class="clips"/></defs><g class="layer-above"><g class="imagelayer"/><g class="shapelayer"/></g><g class="infolayer"><g class="g-gtitle"><text class="gtitle" x="35" y="50" text-anchor="start" dy="0em" style="opacity: 1; font-family: 'Open Sans'; font-size: 25px; fill: rgb(0, 0, 0); fill-opacity: 1; white-space: pre;">MultiQC code contributors over time</text></g><g class="g-xtitle"><text class="xtitle" x="350" y="472.9" text-anchor="middle" style="opacity: 1; font-family: 'Open Sans'; font-size: 22px; fill: rgb(0, 0, 0); fill-opacity: 1; white-space: pre;">Date</text></g><g class="g-ytitle"><text class="ytitle" transform="rotate(-90,29.799999999999997,260)" x="29.799999999999997" y="260" text-anchor="middle" style="opacity: 1; font-family: 'Open Sans'; font-size: 22px; fill: rgb(0, 0, 0); fill-opacity: 1; white-space: pre;">Number of contributors</text></g></g></svg>