<svg class="main-svg" xmlns="http://www.w3.org/2000/svg" xmlns:xlink="http://www.w3.org/1999/xlink" width="700" height="500" style="" viewBox="0 0 700 500"><rect x="0" y="0" width="700" height="500" style="fill: rgb(0, 0, 0); fill-opacity: 0;"/><defs id="defs-18816a"><g class="clips"><clipPath id="clip18816axyplot" class="plotclip"><rect width="540" height="320"/></clipPath><clipPath class="axesclip" id="clip18816ax"><rect x="80" y="0" width="540" height="500"/></clipPath><clipPath class="axesclip" id="clip18816ay"><rect x="0" y="100" width="700" height="320"/></clipPath><clipPath class="axesclip" id="clip18816axy"><rect x="80" y="100" width="540" height="320"/></clipPath></g><g class="gradients"/><g class="patterns"/></defs><g class="bglayer"><rect class="bg" x="80" y="100" width="540" height="320" style="fill: rgb(0, 0, 0); fill-opacity: 0; stroke-width: 0;"/></g><g class="layer-below"><g class="imagelayer"/><g class="shapelayer"/></g><g class="cartesianlayer"><g class="subplot xy"><g class="layer-subplot"><g class="shapelayer"/><g class="imagelayer"/></g><g class="minor-gridlayer"><g class="x"/><g class="y"/></g><g class="gridlayer"><g class="x"><path class="xgrid crisp" transform="translate(100.61,0)" d="M0,100v320" style="stroke: rgb(255, 255, 255); stroke-opacity: 1; stroke-width: 1px;"/><path class="xgrid crisp" transform="translate(201.5,0)" d="M0,100v320" style="stroke: rgb(255, 255, 255); stroke-opacity: 1; stroke-width: 1px;"/><path class="xgrid crisp" transform="translate(302.24,0)" d="M0,100v320" style="stroke: rgb(255, 255, 255); stroke-opacity: 1; stroke-width: 1px;"/><path class="xgrid crisp" transform="translate(403.13,0)" d="M0,100v320" style="stroke: rgb(255, 255, 255); stroke-opacity: 1; stroke-width: 1px;"/><path class="xgrid crisp" transform="translate(503.88,0)" d="M0,100v320" style="stroke: rgb(255, 255, 255); stroke-opacity: 1; stroke-width: 1px;"/><path class="xgrid crisp" transform="translate(604.76,0)" d="M0,100v320" style="stroke: rgb(255, 255, 255); stroke-opacity: 1; stroke-width: 1px;"/></g><g class="y"><path class="ygrid crisp" transform="translate(0,356.67)" d="M80,0h540" style="stroke: rgb(255, 255, 255); stroke-opacity: 1; stroke-width: 1px;"/><path class="ygrid crisp" transform="translate(0,293.33000000000004)" d="M80,0h540" style="stroke: rgb(255, 255, 255); stroke-opacity: 1; stroke-width: 1px;"/><path class="ygrid crisp" transform="translate(0,230)" d="M80,0h540" style="stroke: rgb(255, 255, 255); stroke-opacity: 1; stroke-width: 1px;"/><path class="ygrid crisp" transform="translate(0,166.67000000000002)" d="M80,0h540" style="stroke: rgb(255, 255, 255); stroke-opacity: 1; stroke-width: 1px;"/><path class="ygrid crisp" transform="translate(0,103.33)" d="M80,0h540" style="stroke: rgb(255, 255, 255); stroke-opacity: 1; stroke-width: 1px;"/></g></g><g class="zerolinelayer"><path class="yzl zl crisp" transform="translate(0,420)" d="M80,0h540" style="stroke: rgb(255, 255, 255); stroke-opacity: 1; stroke-width: 2px;"/></g><g class="layer-between"><g class="shapelayer"/><g class="imagelayer"/></g><path class="xlines-below"/><path class="ylines-below"/><g class="overlines-below"/><g class="xaxislayer-below"/><g class="yaxislayer-below"/><g class="overaxes-below"/><g class="overplot"><g class="xy" transform="translate(80,100)" clip-path="url(#clip18816axyplot)"><g class="scatterlayer mlayer"><g class="trace scatter traceac5fb8" style="stroke-miterlimit: 2;"><g class="fills"><g><path class="js-fill" d="M540,320L0,320L0,318.73L7.04,316.2L7.58,314.93L9.78,313.67L27.09,312.4L30.89,311.13L38.34,309.87L46.53,307.33L46.65,306.07L47.6,304.8L54.16,303.53L56.83,301L63.17,299.73L63.55,298.47L64.72,297.2L65.55,294.67L69.56,293.4L71.87,292.13L77.44,290.87L83.6,288.33L85.28,287.07L88.88,285.8L95.64,284.53L98.82,282L98.82,280.73L98.96,274.4L99.89,273.13L101.58,271.87L101.69,270.6L105.3,264.27L105.57,263L106.95,261.73L107.07,260.47L112.49,256.67L117,255.4L122.53,252.87L123.08,251.6L130.28,250.33L130.41,249.07L130.81,247.8L134.39,246.53L135.3,242.73L137.03,241.47L137.15,236.4L138.54,235.13L146.6,233.87L148.91,232.6L150.95,231.33L150.96,230.07L160.97,228.8L162.03,227.53L165.31,226.27L165.31,225L178.83,219.93L180.48,218.67L184.65,216.13L185.61,214.87L196.08,212.33L196.11,211.07L203.06,209.8L205.21,208.53L209.5,207.27L209.62,206L211.7,204.73L216.53,203.47L218.19,202.2L218.58,200.93L226.2,199.67L228.39,198.4L229.12,197.13L230.89,195.87L232.69,193.33L233.09,192.07L234.48,188.27L234.72,187L235.82,181.93L237.69,180.67L238.9,179.4L239.02,178.13L243.36,168L244.43,166.73L244.52,165.47L246.36,164.2L247.21,162.93L253.99,161.67L254.33,159.13L256.13,157.87L256.93,156.6L259.35,155.33L263.18,154.07L263.87,152.8L264.18,151.53L265.65,150.27L266.05,147.73L266.47,146.47L266.88,143.93L268.54,142.67L272.49,141.4L273.28,140.13L273.66,138.87L274.94,137.6L294.89,132.53L294.91,131.27L295.47,128.73L298.65,127.47L299.1,126.2L306.78,124.93L308.58,123.67L313.52,122.4L316.76,118.6L317.66,117.33L317.81,114.8L329.68,113.53L342.36,112.27L343.21,111L350.34,105.93L350.68,104.67L351.69,99.6L352.46,98.33L352.75,97.07L356.73,95.8L362.14,93.27L370.11,92L371.81,89.47L371.81,88.2L371.81,79.33L372.86,78.07L373.29,76.8L374.83,75.53L382.82,74.27L383.79,73L393.3,71.73L394,70.47L404.16,69.2L406,67.93L406.97,65.4L407.54,64.13L409.87,62.87L409.99,61.6L415.72,60.33L415.72,59.07L415.83,57.8L425.31,56.53L427.17,54L433.51,52.73L449.64,50.2L451.82,48.93L451.85,45.13L453.9,43.87L467.97,42.6L468.42,41.33L472.44,40.07L472.44,38.8L472.44,36.27L477.35,35L477.35,33.73L488.66,32.47L489.24,28.67L495.04,27.4L503.45,23.6L505.83,22.33L520.56,19.8L526.4,18.53L538.36,17.27L540,16" style="fill: rgb(99, 110, 250); fill-opacity: 0.5; stroke-width: 0;"/></g></g><g class="errorbars"/><g class="lines"><path class="js-line" d="M0,318.73L7.04,316.2L7.58,314.93L9.78,313.67L27.09,312.4L30.89,311.13L38.34,309.87L46.53,307.33L46.65,306.07L47.6,304.8L54.16,303.53L56.83,301L63.17,299.73L63.55,298.47L64.72,297.2L65.55,294.67L69.56,293.4L71.87,292.13L77.44,290.87L83.6,288.33L85.28,287.07L88.88,285.8L95.64,284.53L98.82,282L98.82,280.73L98.96,274.4L99.89,273.13L101.58,271.87L101.69,270.6L105.3,264.27L105.57,263L106.95,261.73L107.07,260.47L112.49,256.67L117,255.4L122.53,252.87L123.08,251.6L130.28,250.33L130.41,249.07L130.81,247.8L134.39,246.53L135.3,242.73L137.03,241.47L137.15,236.4L138.54,235.13L146.6,233.87L148.91,232.6L150.95,231.33L150.96,230.07L160.97,228.8L162.03,227.53L165.31,226.27L165.31,225L178.83,219.93L180.48,218.67L184.65,216.13L185.61,214.87L196.08,212.33L196.11,211.07L203.06,209.8L205.21,208.53L209.5,207.27L209.62,206L211.7,204.73L216.53,203.47L218.19,202.2L218.58,200.93L226.2,199.67L228.39,198.4L229.12,197.13L230.89,195.87L232.69,193.33L233.09,192.07L234.48,188.27L234.72,187L235.82,181.93L237.69,180.67L238.9,179.4L239.02,178.13L243.36,168L244.43,166.73L244.52,165.47L246.36,164.2L247.21,162.93L253.99,161.67L254.33,159.13L256.13,157.87L256.93,156.6L259.35,155.33L263.18,154.07L263.87,152.8L264.18,151.53L265.65,150.27L266.05,147.73L266.47,146.47L266.88,143.93L268.54,142.67L272.49,141.4L273.28,140.13L273.66,138.87L274.94,137.6L294.89,132.53L294.91,131.27L295.47,128.73L298.65,127.47L299.1,126.2L306.78,124.93L308.58,123.67L313.52,122.4L316.76,118.6L317.66,117.33L317.81,114.8L329.68,113.53L342.36,112.27L343.21,111L350.34,105.93L350.68,104.67L351.69,99.6L352.46,98.33L352.75,97.07L356.73,95.8L362.14,93.27L370.11,92L371.81,89.47L371.81,88.2L371.81,79.33L372.86,78.07L373.29,76.8L374.83,75.53L382.82,74.27L383.79,73L393.3,71.73L394,70.47L404.16,69.2L406,67.93L406.97,65.4L407.54,64.13L409.87,62.87L409.99,61.6L415.72,60.33L415.72,59.07L415.83,57.8L425.31,56.53L427.17,54L433.51,52.73L449.64,50.2L451.82,48.93L451.85,45.13L453.9,43.87L467.97,42.6L468.42,41.33L472.44,40.07L472.44,38.8L472.44,36.27L477.35,35L477.35,33.73L488.66,32.47L489.24,28.67L495.04,27.4L503.45,23.6L505.83,22.33L520.56,19.8L526.4,18.53L538.36,17.27L540,16" style="vector-effect: none; fill: none; stroke: rgb(99, 110, 250); stroke-opacity: 1; stroke-width: 2px; opacity: 1;"/></g><g class="points"/><g class="text"/></g></g></g></g><g class="zerolinelayer-above"/><path class="xlines-above crisp" d="M0,0" style="fill: none;"/><path class="ylines-above crisp" d="M0,0" style="fill: none;"/><g class="overlines-above"/><g class="xaxislayer-above"><g class="xtick"><text text-anchor="middle" x="0" y="439" transform="translate(100.61,0)" style="font-family: 'Open Sans'; font-size: 18px; fill: rgb(0, 0, 0); fill-opacity: 1; white-space: pre;">2016</text></g><g class="xtick"><text text-anchor="middle" x="0" y="439" style="font-family: 'Open Sans'; font-size: 18px; fill: rgb(0, 0, 0); fill-opacity: 1; white-space: pre;" transform="translate(201.5,0)">2018</text></g><g class="xtick"><text text-anchor="middle" x="0" y="439" style="font-family: 'Open Sans'; font-size: 18px; fill: rgb(0, 0, 0); fill-opacity: 1; white-space: pre;" transform="translate(302.24,0)">2020</text></g><g class="xtick"><text text-anchor="middle" x="0" y="439" style="font-family: 'Open Sans'; font-size: 18px; fill: rgb(0, 0, 0); fill-opacity: 1; white-space: pre;" transform="translate(403.13,0)">2022</text></g><g class="xtick"><text text-anchor="middle" x="0" y="439" style="font-family: 'Open Sans'; font-size: 18px; fill: rgb(0, 0, 0); fill-opacity: 1; white-space: pre;" transform="translate(503.88,0)">2024</text></g><g class="xtick"><text text-anchor="middle" x="0" y="439" style="font-family: 'Open Sans'; font-size: 18px; fill: rgb(0, 0, 0); fill-opacity: 1; white-space: pre;" transform="translate(604.76,0)">2026</text></g></g><g class="yaxislayer-above"><g class="ytick"><text text-anchor="end" x="79" y="6.3" transform="translate(0,420)" style="font-family: 'Open Sans'; font-size: 18px; fill: rgb(0, 0, 0); fill-opacity: 1; white-space: pre;">0</text></g><g class="ytick"><text text-anchor="end" x="79" y="6.3" style="font-family: 'Open Sans'; font-size: 18px; fill: rgb(0, 0, 0); fill-opacity: 1; white-space: pre;" transform="translate(0,356.67)">50</text></g><g class="ytick"><text text-anchor="end" x="79" y="6.3" style="font-family: 'Open Sans'; font-size: 18px; fill: rgb(0, 0, 0); fill-opacity: 1; white-space: pre;" transform="translate(0,293.33000000000004)">100</text></g><g class="ytick"><text text-anchor="end" x="79" y="6.3" style="font-family: 'Open Sans'; font-size: 18px; fill: rgb(0, 0, 0); fill-opacity: 1; white-space: pre;" transform="translate(0,230)">150</text></g><g class="ytick"><text text-anchor="end" x="79" y="6.3" style="font-family: 'Open Sans'; font-size: 18px; fill: rgb(0, 0, 0); fill-opacity: 1; white-space: pre;" transform="translate(0,166.67000000000002)">200</text></g><g class="ytick"><text text-anchor="end" x="79" y="6.3" style="font-family: 'Open Sans'; font-size: 18px; fill: rgb(0, 0, 0); fill-opacity: 1; white-space: pre;" transform="translate(0,103.33)">250</text></g></g><g class="overaxes-above"/></g></g><g class="polarlayer"/><g class="smithlayer"/><g class="ternarylayer"/><g class="geolayer"/><g class="funnelarealayer"/><g class="pielayer"/><g class="iciclelayer"/><g class="treemaplayer"/><g class="sunburstlayer"/><g class="glimages"/><defs id="topdefs-18816a"><g class="clips"/></defs><g class="layer-above"><g class="imagelayer"/><g class="shapelayer"/></g><g class="infolayer"><g class="g-gtitle"><text class="gtitle" x="35" y="50" text-anchor="start" dy="0em" style="opacity: 1; font-family: 'Open Sans'; font-size: 25px; fill: rgb(0, 0, 0); fill-opacity: 1; white-space: pre;">MultiQC code contributors over time</text></g><g class="g-xtitle"><text class="xtitle" x="350" y="472.9" text-anchor="middle" style="opacity: 1; font-family: 'Open Sans'; font-size: 22px; fill: rgb(0, 0, 0); fill-opacity: 1; white-space: pre;">Date</text></g><g class="g-ytitle"><text class="ytitle" transform="rotate(-90,29.799999999999997,260)" x="29.799999999999997" y="260" text-anchor="middle" style="opacity: 1; font-family: 'Open Sans'; font-size: 22px; fill: rgb(0, 0, 0); fill-opacity: 1; white-space: pre;">Number of contributors</text></g></g></svg>