<svg class="main-svg" xmlns="http://www.w3.org/2000/svg" xmlns:xlink="http://www.w3.org/1999/xlink" width="700" height="500" style="" viewBox="0 0 700 500"><rect x="0" y="0" width="700" height="500" style="fill: rgb(0, 0, 0); fill-opacity: 0;"/><defs id="defs-fbdaf5"><g class="clips"><clipPath id="clipfbdaf5xyplot" class="plotclip"><rect width="540" height="320"/></clipPath><clipPath class="axesclip" id="clipfbdaf5x"><rect x="80" y="0" width="540" height="500"/></clipPath><clipPath class="axesclip" id="clipfbdaf5y"><rect x="0" y="100" width="700" height="320"/></clipPath><clipPath class="axesclip" id="clipfbdaf5xy"><rect x="80" y="100" width="540" height="320"/></clipPath></g><g class="gradients"/><g class="patterns"/></defs><g class="bglayer"><rect class="bg" x="80" y="100" width="540" height="320" style="fill: rgb(0, 0, 0); fill-opacity: 0; stroke-width: 0;"/></g><g class="layer-below"><g class="imagelayer"/><g class="shapelayer"/></g><g class="cartesianlayer"><g class="subplot xy"><g class="layer-subplot"><g class="shapelayer"/><g class="imagelayer"/></g><g class="minor-gridlayer"><g class="x"/><g class="y"/></g><g class="gridlayer"><g class="x"><path class="xgrid crisp" transform="translate(102,0)" d="M0,100v320" style="stroke: rgb(255, 255, 255); stroke-opacity: 1; stroke-width: 1px;"/><path class="xgrid crisp" transform="translate(209.71,0)" d="M0,100v320" style="stroke: rgb(255, 255, 255); stroke-opacity: 1; stroke-width: 1px;"/><path class="xgrid crisp" transform="translate(317.26,0)" d="M0,100v320" style="stroke: rgb(255, 255, 255); stroke-opacity: 1; stroke-width: 1px;"/><path class="xgrid crisp" transform="translate(424.96,0)" d="M0,100v320" style="stroke: rgb(255, 255, 255); stroke-opacity: 1; stroke-width: 1px;"/><path class="xgrid crisp" transform="translate(532.52,0)" d="M0,100v320" style="stroke: rgb(255, 255, 255); stroke-opacity: 1; stroke-width: 1px;"/></g><g class="y"><path class="ygrid crisp" transform="translate(0,355.32)" d="M80,0h540" style="stroke: rgb(255, 255, 255); stroke-opacity: 1; stroke-width: 1px;"/><path class="ygrid crisp" transform="translate(0,290.64)" d="M80,0h540" style="stroke: rgb(255, 255, 255); stroke-opacity: 1; stroke-width: 1px;"/><path class="ygrid crisp" transform="translate(0,225.95999999999998)" d="M80,0h540" style="stroke: rgb(255, 255, 255); stroke-opacity: 1; stroke-width: 1px;"/><path class="ygrid crisp" transform="translate(0,161.28)" d="M80,0h540" style="stroke: rgb(255, 255, 255); stroke-opacity: 1; stroke-width: 1px;"/></g></g><g class="zerolinelayer"><path class="yzl zl crisp" transform="translate(0,420)" d="M80,0h540" style="stroke: rgb(255, 255, 255); stroke-opacity: 1; stroke-width: 2px;"/></g><g class="layer-between"><g class="shapelayer"/><g class="imagelayer"/></g><path class="xlines-below"/><path class="ylines-below"/><g class="overlines-below"/><g class="xaxislayer-below"/><g class="yaxislayer-below"/><g class="overaxes-below"/><g class="overplot"><g class="xy" transform="translate(80,100)" clip-path="url(#clipfbdaf5xyplot)"><g class="scatterlayer mlayer"><g class="trace scatter trace1b0981" style="stroke-miterlimit: 2;"><g class="fills"><g><path class="js-fill" d="M540,320L0,320L0,318.71L7.52,316.12L8.09,314.83L10.44,313.53L28.93,312.24L32.98,310.94L40.93,309.65L49.68,307.06L49.8,305.77L50.81,304.48L57.82,303.18L60.67,300.6L67.44,299.3L67.84,298.01L69.09,296.71L69.98,294.13L74.26,292.83L76.73,291.54L82.67,290.25L89.25,287.66L91.04,286.37L94.89,285.07L102.1,283.78L105.5,281.19L105.5,279.9L105.64,273.43L106.64,272.14L108.44,270.84L108.56,269.55L112.42,263.08L112.7,261.79L114.17,260.49L114.3,259.2L120.09,255.32L124.91,254.03L130.81,251.44L131.4,250.14L139.09,248.85L139.22,247.56L139.65,246.26L143.47,244.97L144.44,241.09L146.29,239.8L146.42,234.62L147.9,233.33L156.51,232.03L158.97,230.74L161.15,229.45L161.16,228.15L171.84,226.86L172.98,225.57L176.48,224.27L176.48,222.98L190.92,217.8L192.68,216.51L197.13,213.92L198.15,212.63L209.33,210.04L209.36,208.75L216.78,207.46L219.07,206.16L223.65,204.87L223.78,203.57L226,202.28L231.16,200.99L232.93,199.69L233.35,198.4L241.48,197.11L243.82,195.81L244.6,194.52L246.49,193.23L248.41,190.64L248.84,189.34L250.32,185.46L250.58,184.17L251.11,181.58L251.65,180.29L251.75,179L253.75,177.7L255.04,176.41L255.17,175.11L259.15,166.06L259.8,164.77L260.94,163.47L261.04,162.18L263.92,159.59L271.15,158.3L271.52,155.71L273.44,154.42L274.29,153.12L276.87,151.83L280.96,150.54L281.69,149.24L282.03,147.95L283.6,146.66L284.03,144.07L284.47,142.77L284.91,140.19L286.68,138.89L290.9,137.6L291.74,136.31L292.14,135.01L293.51,133.72L314.82,128.54L314.83,127.25L315.43,124.66L318.82,123.37L319.31,122.08L327.5,120.78L329.43,119.49L334.7,118.2L338.16,114.31L339.12,113.02L339.28,110.43L351.95,109.14L365.49,107.85L366.4,106.55L374.01,101.38L374.38,100.09L375.45,94.91L376.28,93.62L376.58,92.32L380.83,91.03L386.6,88.44L395.12,87.15L396.93,84.56L396.93,83.27L396.93,74.21L398.06,72.92L398.52,71.63L400.16,70.33L408.68,69.04L409.72,67.74L419.87,66.45L420.61,65.16L431.47,63.86L433.43,62.57L434.47,59.98L435.08,58.69L437.56,57.4L437.69,56.1L443.81,54.81L443.81,53.51L443.92,52.22L454.05,50.93L456.03,48.34L462.8,47.05L480.02,44.46L482.35,43.17L482.38,39.29L484.57,37.99L499.59,36.7L500.07,35.4L504.36,34.11L504.36,32.82L504.36,30.23L509.6,28.94L509.6,27.64L521.67,26.35L522.3,22.47L528.48,21.17L532.02,19.88L533.33,18.59L540,16" style="fill: rgb(99, 110, 250); fill-opacity: 0.5; stroke-width: 0;"/></g></g><g class="errorbars"/><g class="lines"><path class="js-line" d="M0,318.71L7.52,316.12L8.09,314.83L10.44,313.53L28.93,312.24L32.98,310.94L40.93,309.65L49.68,307.06L49.8,305.77L50.81,304.48L57.82,303.18L60.67,300.6L67.44,299.3L67.84,298.01L69.09,296.71L69.98,294.13L74.26,292.83L76.73,291.54L82.67,290.25L89.25,287.66L91.04,286.37L94.89,285.07L102.1,283.78L105.5,281.19L105.5,279.9L105.64,273.43L106.64,272.14L108.44,270.84L108.56,269.55L112.42,263.08L112.7,261.79L114.17,260.49L114.3,259.2L120.09,255.32L124.91,254.03L130.81,251.44L131.4,250.14L139.09,248.85L139.22,247.56L139.65,246.26L143.47,244.97L144.44,241.09L146.29,239.8L146.42,234.62L147.9,233.33L156.51,232.03L158.97,230.74L161.15,229.45L161.16,228.15L171.84,226.86L172.98,225.57L176.48,224.27L176.48,222.98L190.92,217.8L192.68,216.51L197.13,213.92L198.15,212.63L209.33,210.04L209.36,208.75L216.78,207.46L219.07,206.16L223.65,204.87L223.78,203.57L226,202.28L231.16,200.99L232.93,199.69L233.35,198.4L241.48,197.11L243.82,195.81L244.6,194.52L246.49,193.23L248.41,190.64L248.84,189.34L250.32,185.46L250.58,184.17L251.11,181.58L251.65,180.29L251.75,179L253.75,177.7L255.04,176.41L255.17,175.11L259.15,166.06L259.8,164.77L260.94,163.47L261.04,162.18L263.92,159.59L271.15,158.3L271.52,155.71L273.44,154.42L274.29,153.12L276.87,151.83L280.96,150.54L281.69,149.24L282.03,147.95L283.6,146.66L284.03,144.07L284.47,142.77L284.91,140.19L286.68,138.89L290.9,137.6L291.74,136.31L292.14,135.01L293.51,133.72L314.82,128.54L314.83,127.25L315.43,124.66L318.82,123.37L319.31,122.08L327.5,120.78L329.43,119.49L334.7,118.2L338.16,114.31L339.12,113.02L339.28,110.43L351.95,109.14L365.49,107.85L366.4,106.55L374.01,101.38L374.38,100.09L375.45,94.91L376.28,93.62L376.58,92.32L380.83,91.03L386.6,88.44L395.12,87.15L396.93,84.56L396.93,83.27L396.93,74.21L398.06,72.92L398.52,71.63L400.16,70.33L408.68,69.04L409.72,67.74L419.87,66.45L420.61,65.16L431.47,63.86L433.43,62.57L434.47,59.98L435.08,58.69L437.56,57.4L437.69,56.1L443.81,54.81L443.81,53.51L443.92,52.22L454.05,50.93L456.03,48.34L462.8,47.05L480.02,44.46L482.35,43.17L482.38,39.29L484.57,37.99L499.59,36.7L500.07,35.4L504.36,34.11L504.36,32.82L504.36,30.23L509.6,28.94L509.6,27.64L521.67,26.35L522.3,22.47L528.48,21.17L532.02,19.88L533.33,18.59L540,16" style="vector-effect: none; fill: none; stroke: rgb(99, 110, 250); stroke-opacity: 1; stroke-width: 2px; opacity: 1;"/></g><g class="points"/><g class="text"/></g></g></g></g><g class="zerolinelayer-above"/><path class="xlines-above crisp" d="M0,0" style="fill: none;"/><path class="ylines-above crisp" d="M0,0" style="fill: none;"/><g class="overlines-above"/><g class="xaxislayer-above"><g class="xtick"><text text-anchor="middle" x="0" y="439" transform="translate(102,0)" style="font-family: 'Open Sans'; font-size: 18px; fill: rgb(255, 255, 255); fill-opacity: 1; white-space: pre;">2016</text></g><g class="xtick"><text text-anchor="middle" x="0" y="439" style="font-family: 'Open Sans'; font-size: 18px; fill: rgb(255, 255, 255); fill-opacity: 1; white-space: pre;" transform="translate(209.71,0)">2018</text></g><g class="xtick"><text text-anchor="middle" x="0" y="439" style="font-family: 'Open Sans'; font-size: 18px; fill: rgb(255, 255, 255); fill-opacity: 1; white-space: pre;" transform="translate(317.26,0)">2020</text></g><g class="xtick"><text text-anchor="middle" x="0" y="439" style="font-family: 'Open Sans'; font-size: 18px; fill: rgb(255, 255, 255); fill-opacity: 1; white-space: pre;" transform="translate(424.96,0)">2022</text></g><g class="xtick"><text text-anchor="middle" x="0" y="439" style="font-family: 'Open Sans'; font-size: 18px; fill: rgb(255, 255, 255); fill-opacity: 1; white-space: pre;" transform="translate(532.52,0)">2024</text></g></g><g class="yaxislayer-above"><g class="ytick"><text text-anchor="end" x="79" y="6.3" transform="translate(0,420)" style="font-family: 'Open Sans'; font-size: 18px; fill: rgb(255, 255, 255); fill-opacity: 1; white-space: pre;">0</text></g><g class="ytick"><text text-anchor="end" x="79" y="6.3" style="font-family: 'Open Sans'; font-size: 18px; fill: rgb(255, 255, 255); fill-opacity: 1; white-space: pre;" transform="translate(0,355.32)">50</text></g><g class="ytick"><text text-anchor="end" x="79" y="6.3" style="font-family: 'Open Sans'; font-size: 18px; fill: rgb(255, 255, 255); fill-opacity: 1; white-space: pre;" transform="translate(0,290.64)">100</text></g><g class="ytick"><text text-anchor="end" x="79" y="6.3" style="font-family: 'Open Sans'; font-size: 18px; fill: rgb(255, 255, 255); fill-opacity: 1; white-space: pre;" transform="translate(0,225.95999999999998)">150</text></g><g class="ytick"><text text-anchor="end" x="79" y="6.3" style="font-family: 'Open Sans'; font-size: 18px; fill: rgb(255, 255, 255); fill-opacity: 1; white-space: pre;" transform="translate(0,161.28)">200</text></g></g><g class="overaxes-above"/></g></g><g class="polarlayer"/><g class="smithlayer"/><g class="ternarylayer"/><g class="geolayer"/><g class="funnelarealayer"/><g class="pielayer"/><g class="iciclelayer"/><g class="treemaplayer"/><g class="sunburstlayer"/><g class="glimages"/><defs id="topdefs-fbdaf5"><g class="clips"/></defs><g class="layer-above"><g class="imagelayer"/><g class="shapelayer"/></g><g class="infolayer"><g class="g-gtitle"><text class="gtitle" x="35" y="50" text-anchor="start" dy="0em" style="opacity: 1; font-family: 'Open Sans'; font-size: 25px; fill: rgb(255, 255, 255); fill-opacity: 1; white-space: pre;">MultiQC code contributors over time</text></g><g class="g-xtitle"><text class="xtitle" x="350" y="472.9" text-anchor="middle" style="opacity: 1; font-family: 'Open Sans'; font-size: 22px; fill: rgb(255, 255, 255); fill-opacity: 1; white-space: pre;">Date</text></g><g class="g-ytitle"><text class="ytitle" transform="rotate(-90,29.799999999999997,260)" x="29.799999999999997" y="260" text-anchor="middle" style="opacity: 1; font-family: 'Open Sans'; font-size: 22px; fill: rgb(255, 255, 255); fill-opacity: 1; white-space: pre;">Number of contributors</text></g></g></svg>