<svg class="main-svg" xmlns="http://www.w3.org/2000/svg" xmlns:xlink="http://www.w3.org/1999/xlink" width="700" height="500" style="" viewBox="0 0 700 500"><rect x="0" y="0" width="700" height="500" style="fill: rgb(0, 0, 0); fill-opacity: 0;"/><defs id="defs-ad7baa"><g class="clips"><clipPath id="clipad7baaxyplot" class="plotclip"><rect width="540" height="320"/></clipPath><clipPath class="axesclip" id="clipad7baax"><rect x="80" y="0" width="540" height="500"/></clipPath><clipPath class="axesclip" id="clipad7baay"><rect x="0" y="100" width="700" height="320"/></clipPath><clipPath class="axesclip" id="clipad7baaxy"><rect x="80" y="100" width="540" height="320"/></clipPath></g><g class="gradients"/><g class="patterns"/></defs><g class="bglayer"><rect class="bg" x="80" y="100" width="540" height="320" style="fill: rgb(0, 0, 0); fill-opacity: 0; stroke-width: 0;"/></g><g class="layer-below"><g class="imagelayer"/><g class="shapelayer"/></g><g class="cartesianlayer"><g class="subplot xy"><g class="layer-subplot"><g class="shapelayer"/><g class="imagelayer"/></g><g class="minor-gridlayer"><g class="x"/><g class="y"/></g><g class="gridlayer"><g class="x"><path class="xgrid crisp" transform="translate(101.14,0)" d="M0,100v320" style="stroke: rgb(255, 255, 255); stroke-opacity: 1; stroke-width: 1px;"/><path class="xgrid crisp" transform="translate(204.64,0)" d="M0,100v320" style="stroke: rgb(255, 255, 255); stroke-opacity: 1; stroke-width: 1px;"/><path class="xgrid crisp" transform="translate(307.99,0)" d="M0,100v320" style="stroke: rgb(255, 255, 255); stroke-opacity: 1; stroke-width: 1px;"/><path class="xgrid crisp" transform="translate(411.48,0)" d="M0,100v320" style="stroke: rgb(255, 255, 255); stroke-opacity: 1; stroke-width: 1px;"/><path class="xgrid crisp" transform="translate(514.8299999999999,0)" d="M0,100v320" style="stroke: rgb(255, 255, 255); stroke-opacity: 1; stroke-width: 1px;"/><path class="xgrid crisp" transform="translate(618.32,0)" d="M0,100v320" style="stroke: rgb(255, 255, 255); stroke-opacity: 1; stroke-width: 1px;"/></g><g class="y"><path class="ygrid crisp" transform="translate(0,356.13)" d="M80,0h540" style="stroke: rgb(255, 255, 255); stroke-opacity: 1; stroke-width: 1px;"/><path class="ygrid crisp" transform="translate(0,292.27)" d="M80,0h540" style="stroke: rgb(255, 255, 255); stroke-opacity: 1; stroke-width: 1px;"/><path class="ygrid crisp" transform="translate(0,228.4)" d="M80,0h540" style="stroke: rgb(255, 255, 255); stroke-opacity: 1; stroke-width: 1px;"/><path class="ygrid crisp" transform="translate(0,164.54000000000002)" d="M80,0h540" style="stroke: rgb(255, 255, 255); stroke-opacity: 1; stroke-width: 1px;"/></g></g><g class="zerolinelayer"><path class="yzl zl crisp" transform="translate(0,420)" d="M80,0h540" style="stroke: rgb(255, 255, 255); stroke-opacity: 1; stroke-width: 2px;"/></g><g class="layer-between"><g class="shapelayer"/><g class="imagelayer"/></g><path class="xlines-below"/><path class="ylines-below"/><g class="overlines-below"/><g class="xaxislayer-below"/><g class="yaxislayer-below"/><g class="overaxes-below"/><g class="overplot"><g class="xy" transform="translate(80,100)" clip-path="url(#clipad7baaxyplot)"><g class="scatterlayer mlayer"><g class="trace scatter trace4c7372" style="stroke-miterlimit: 2;"><g class="fills"><g><path class="js-fill" d="M540,320L0,320L0,318.72L7.22,316.17L7.78,314.89L10.04,313.61L27.8,312.34L31.69,311.06L39.33,309.78L47.73,307.23L47.86,305.95L48.83,304.67L55.56,303.39L58.3,300.84L64.8,299.56L65.19,298.29L66.39,297.01L67.25,294.45L71.36,293.18L73.73,291.9L79.44,290.62L85.77,288.07L87.48,286.79L91.18,285.51L98.11,284.24L101.37,281.68L101.37,280.4L101.51,274.02L102.47,272.74L104.2,271.46L104.32,270.18L108.02,263.8L108.3,262.52L109.71,261.24L109.83,259.97L115.39,256.13L120.03,254.86L125.7,252.3L126.26,251.03L133.65,249.75L133.78,248.47L134.19,247.19L137.86,245.92L138.8,242.08L140.57,240.81L140.7,235.7L142.12,234.42L150.39,233.14L152.76,231.87L154.86,230.59L154.86,229.31L165.13,228.03L166.22,226.76L169.58,225.48L169.58,224.2L183.46,219.09L185.15,217.82L189.42,215.26L190.41,213.98L201.15,211.43L201.18,210.15L208.31,208.87L210.51,207.6L214.91,206.32L215.03,205.04L217.17,203.76L222.13,202.49L223.83,201.21L224.23,199.93L232.05,198.66L234.29,197.38L235.04,196.1L236.85,194.82L238.7,192.27L239.11,190.99L240.54,187.16L240.79,185.88L241.81,182.05L241.91,180.77L245.07,178.22L245.19,176.94L249.02,168L249.65,166.72L250.75,165.45L250.84,164.17L253.6,161.61L260.56,160.34L260.9,157.78L262.75,156.5L263.57,155.23L266.05,153.95L269.98,152.67L270.69,151.39L271.01,150.12L272.52,148.84L272.93,146.29L273.36,145.01L273.78,142.45L275.48,141.18L279.53,139.9L280.34,138.62L280.73,137.34L282.04,136.07L302.51,130.96L302.53,129.68L303.11,127.13L306.36,125.85L306.83,124.57L314.7,123.29L316.55,122.02L321.62,120.74L324.95,116.91L325.87,115.63L326.02,113.08L338.2,111.8L351.21,110.52L352.08,109.24L359.39,104.13L359.75,102.86L360.78,97.75L361.57,96.47L361.86,95.19L365.95,93.92L371.49,91.36L379.68,90.08L381.42,87.53L381.42,86.25L381.42,77.31L382.5,76.03L382.94,74.76L384.52,73.48L392.71,72.2L393.7,70.92L403.46,69.65L404.18,68.37L414.6,67.09L416.49,65.82L417.49,63.26L418.07,61.98L420.46,60.71L420.59,59.43L426.46,58.15L426.46,56.87L426.57,55.6L436.31,54.32L438.21,51.76L444.71,50.49L461.26,47.93L463.5,46.66L463.53,42.82L465.63,41.55L480.06,40.27L480.53,38.99L484.65,37.71L484.65,36.44L484.65,33.88L489.68,32.61L489.68,31.33L501.28,30.05L501.89,26.22L507.83,24.94L516.46,21.11L518.9,19.83L534.01,17.28L540,16" style="fill: rgb(99, 110, 250); fill-opacity: 0.5; stroke-width: 0;"/></g></g><g class="errorbars"/><g class="lines"><path class="js-line" d="M0,318.72L7.22,316.17L7.78,314.89L10.04,313.61L27.8,312.34L31.69,311.06L39.33,309.78L47.73,307.23L47.86,305.95L48.83,304.67L55.56,303.39L58.3,300.84L64.8,299.56L65.19,298.29L66.39,297.01L67.25,294.45L71.36,293.18L73.73,291.9L79.44,290.62L85.77,288.07L87.48,286.79L91.18,285.51L98.11,284.24L101.37,281.68L101.37,280.4L101.51,274.02L102.47,272.74L104.2,271.46L104.32,270.18L108.02,263.8L108.3,262.52L109.71,261.24L109.83,259.97L115.39,256.13L120.03,254.86L125.7,252.3L126.26,251.03L133.65,249.75L133.78,248.47L134.19,247.19L137.86,245.92L138.8,242.08L140.57,240.81L140.7,235.7L142.12,234.42L150.39,233.14L152.76,231.87L154.86,230.59L154.86,229.31L165.13,228.03L166.22,226.76L169.58,225.48L169.58,224.2L183.46,219.09L185.15,217.82L189.42,215.26L190.41,213.98L201.15,211.43L201.18,210.15L208.31,208.87L210.51,207.6L214.91,206.32L215.03,205.04L217.17,203.76L222.13,202.49L223.83,201.21L224.23,199.93L232.05,198.66L234.29,197.38L235.04,196.1L236.85,194.82L238.7,192.27L239.11,190.99L240.54,187.16L240.79,185.88L241.81,182.05L241.91,180.77L245.07,178.22L245.19,176.94L249.02,168L249.65,166.72L250.75,165.45L250.84,164.17L253.6,161.61L260.56,160.34L260.9,157.78L262.75,156.5L263.57,155.23L266.05,153.95L269.98,152.67L270.69,151.39L271.01,150.12L272.52,148.84L272.93,146.29L273.36,145.01L273.78,142.45L275.48,141.18L279.53,139.9L280.34,138.62L280.73,137.34L282.04,136.07L302.51,130.96L302.53,129.68L303.11,127.13L306.36,125.85L306.83,124.57L314.7,123.29L316.55,122.02L321.62,120.74L324.95,116.91L325.87,115.63L326.02,113.08L338.2,111.8L351.21,110.52L352.08,109.24L359.39,104.13L359.75,102.86L360.78,97.75L361.57,96.47L361.86,95.19L365.95,93.92L371.49,91.36L379.68,90.08L381.42,87.53L381.42,86.25L381.42,77.31L382.5,76.03L382.94,74.76L384.52,73.48L392.71,72.2L393.7,70.92L403.46,69.65L404.18,68.37L414.6,67.09L416.49,65.82L417.49,63.26L418.07,61.98L420.46,60.71L420.59,59.43L426.46,58.15L426.46,56.87L426.57,55.6L436.31,54.32L438.21,51.76L444.71,50.49L461.26,47.93L463.5,46.66L463.53,42.82L465.63,41.55L480.06,40.27L480.53,38.99L484.65,37.71L484.65,36.44L484.65,33.88L489.68,32.61L489.68,31.33L501.28,30.05L501.89,26.22L507.83,24.94L516.46,21.11L518.9,19.83L534.01,17.28L540,16" style="vector-effect: none; fill: none; stroke: rgb(99, 110, 250); stroke-opacity: 1; stroke-width: 2px; opacity: 1;"/></g><g class="points"/><g class="text"/></g></g></g></g><g class="zerolinelayer-above"/><path class="xlines-above crisp" d="M0,0" style="fill: none;"/><path class="ylines-above crisp" d="M0,0" style="fill: none;"/><g class="overlines-above"/><g class="xaxislayer-above"><g class="xtick"><text text-anchor="middle" x="0" y="439" transform="translate(101.14,0)" style="font-family: 'Open Sans'; font-size: 18px; fill: rgb(0, 0, 0); fill-opacity: 1; white-space: pre;">2016</text></g><g class="xtick"><text text-anchor="middle" x="0" y="439" style="font-family: 'Open Sans'; font-size: 18px; fill: rgb(0, 0, 0); fill-opacity: 1; white-space: pre;" transform="translate(204.64,0)">2018</text></g><g class="xtick"><text text-anchor="middle" x="0" y="439" style="font-family: 'Open Sans'; font-size: 18px; fill: rgb(0, 0, 0); fill-opacity: 1; white-space: pre;" transform="translate(307.99,0)">2020</text></g><g class="xtick"><text text-anchor="middle" x="0" y="439" style="font-family: 'Open Sans'; font-size: 18px; fill: rgb(0, 0, 0); fill-opacity: 1; white-space: pre;" transform="translate(411.48,0)">2022</text></g><g class="xtick"><text text-anchor="middle" x="0" y="439" style="font-family: 'Open Sans'; font-size: 18px; fill: rgb(0, 0, 0); fill-opacity: 1; white-space: pre;" transform="translate(514.8299999999999,0)">2024</text></g><g class="xtick"><text text-anchor="middle" x="0" y="439" style="font-family: 'Open Sans'; font-size: 18px; fill: rgb(0, 0, 0); fill-opacity: 1; white-space: pre;" transform="translate(618.32,0)">2026</text></g></g><g class="yaxislayer-above"><g class="ytick"><text text-anchor="end" x="79" y="6.3" transform="translate(0,420)" style="font-family: 'Open Sans'; font-size: 18px; fill: rgb(0, 0, 0); fill-opacity: 1; white-space: pre;">0</text></g><g class="ytick"><text text-anchor="end" x="79" y="6.3" style="font-family: 'Open Sans'; font-size: 18px; fill: rgb(0, 0, 0); fill-opacity: 1; white-space: pre;" transform="translate(0,356.13)">50</text></g><g class="ytick"><text text-anchor="end" x="79" y="6.3" style="font-family: 'Open Sans'; font-size: 18px; fill: rgb(0, 0, 0); fill-opacity: 1; white-space: pre;" transform="translate(0,292.27)">100</text></g><g class="ytick"><text text-anchor="end" x="79" y="6.3" style="font-family: 'Open Sans'; font-size: 18px; fill: rgb(0, 0, 0); fill-opacity: 1; white-space: pre;" transform="translate(0,228.4)">150</text></g><g class="ytick"><text text-anchor="end" x="79" y="6.3" style="font-family: 'Open Sans'; font-size: 18px; fill: rgb(0, 0, 0); fill-opacity: 1; white-space: pre;" transform="translate(0,164.54000000000002)">200</text></g><g class="ytick"><text text-anchor="end" x="79" y="6.3" style="font-family: 'Open Sans'; font-size: 18px; fill: rgb(0, 0, 0); fill-opacity: 1; white-space: pre;" transform="translate(0,100.67)">250</text></g></g><g class="overaxes-above"/></g></g><g class="polarlayer"/><g class="smithlayer"/><g class="ternarylayer"/><g class="geolayer"/><g class="funnelarealayer"/><g class="pielayer"/><g class="iciclelayer"/><g class="treemaplayer"/><g class="sunburstlayer"/><g class="glimages"/><defs id="topdefs-ad7baa"><g class="clips"/></defs><g class="layer-above"><g class="imagelayer"/><g class="shapelayer"/></g><g class="infolayer"><g class="g-gtitle"><text class="gtitle" x="35" y="50" text-anchor="start" dy="0em" style="opacity: 1; font-family: 'Open Sans'; font-size: 25px; fill: rgb(0, 0, 0); fill-opacity: 1; white-space: pre;">MultiQC code contributors over time</text></g><g class="g-xtitle"><text class="xtitle" x="350" y="472.9" text-anchor="middle" style="opacity: 1; font-family: 'Open Sans'; font-size: 22px; fill: rgb(0, 0, 0); fill-opacity: 1; white-space: pre;">Date</text></g><g class="g-ytitle"><text class="ytitle" transform="rotate(-90,29.799999999999997,260)" x="29.799999999999997" y="260" text-anchor="middle" style="opacity: 1; font-family: 'Open Sans'; font-size: 22px; fill: rgb(0, 0, 0); fill-opacity: 1; white-space: pre;">Number of contributors</text></g></g></svg>