<svg class="main-svg" xmlns="http://www.w3.org/2000/svg" xmlns:xlink="http://www.w3.org/1999/xlink" width="700" height="500" style="" viewBox="0 0 700 500"><rect x="0" y="0" width="700" height="500" style="fill: rgb(0, 0, 0); fill-opacity: 0;"/><defs id="defs-3593c1"><g class="clips"><clipPath id="clip3593c1xyplot" class="plotclip"><rect width="540" height="320"/></clipPath><clipPath class="axesclip" id="clip3593c1x"><rect x="80" y="0" width="540" height="500"/></clipPath><clipPath class="axesclip" id="clip3593c1y"><rect x="0" y="100" width="700" height="320"/></clipPath><clipPath class="axesclip" id="clip3593c1xy"><rect x="80" y="100" width="540" height="320"/></clipPath></g><g class="gradients"/><g class="patterns"/></defs><g class="bglayer"><rect class="bg" x="80" y="100" width="540" height="320" style="fill: rgb(0, 0, 0); fill-opacity: 0; stroke-width: 0;"/></g><g class="layer-below"><g class="imagelayer"/><g class="shapelayer"/></g><g class="cartesianlayer"><g class="subplot xy"><g class="layer-subplot"><g class="shapelayer"/><g class="imagelayer"/></g><g class="minor-gridlayer"><g class="x"/><g class="y"/></g><g class="gridlayer"><g class="x"><path class="xgrid crisp" transform="translate(100.53999999999999,0)" d="M0,100v320" style="stroke: rgb(255, 255, 255); stroke-opacity: 1; stroke-width: 1px;"/><path class="xgrid crisp" transform="translate(201.09,0)" d="M0,100v320" style="stroke: rgb(255, 255, 255); stroke-opacity: 1; stroke-width: 1px;"/><path class="xgrid crisp" transform="translate(301.49,0)" d="M0,100v320" style="stroke: rgb(255, 255, 255); stroke-opacity: 1; stroke-width: 1px;"/><path class="xgrid crisp" transform="translate(402.04,0)" d="M0,100v320" style="stroke: rgb(255, 255, 255); stroke-opacity: 1; stroke-width: 1px;"/><path class="xgrid crisp" transform="translate(502.45,0)" d="M0,100v320" style="stroke: rgb(255, 255, 255); stroke-opacity: 1; stroke-width: 1px;"/><path class="xgrid crisp" transform="translate(602.99,0)" d="M0,100v320" style="stroke: rgb(255, 255, 255); stroke-opacity: 1; stroke-width: 1px;"/></g><g class="y"><path class="ygrid crisp" transform="translate(0,356.93)" d="M80,0h540" style="stroke: rgb(255, 255, 255); stroke-opacity: 1; stroke-width: 1px;"/><path class="ygrid crisp" transform="translate(0,293.86)" d="M80,0h540" style="stroke: rgb(255, 255, 255); stroke-opacity: 1; stroke-width: 1px;"/><path class="ygrid crisp" transform="translate(0,230.79)" d="M80,0h540" style="stroke: rgb(255, 255, 255); stroke-opacity: 1; stroke-width: 1px;"/><path class="ygrid crisp" transform="translate(0,167.72)" d="M80,0h540" style="stroke: rgb(255, 255, 255); stroke-opacity: 1; stroke-width: 1px;"/><path class="ygrid crisp" transform="translate(0,104.65)" d="M80,0h540" style="stroke: rgb(255, 255, 255); stroke-opacity: 1; stroke-width: 1px;"/></g></g><g class="zerolinelayer"><path class="yzl zl crisp" transform="translate(0,420)" d="M80,0h540" style="stroke: rgb(255, 255, 255); stroke-opacity: 1; stroke-width: 2px;"/></g><g class="layer-between"><g class="shapelayer"/><g class="imagelayer"/></g><path class="xlines-below"/><path class="ylines-below"/><g class="overlines-below"/><g class="xaxislayer-below"/><g class="yaxislayer-below"/><g class="overaxes-below"/><g class="overplot"><g class="xy" transform="translate(80,100)" clip-path="url(#clip3593c1xyplot)"><g class="scatterlayer mlayer"><g class="trace scatter tracecc456b" style="stroke-miterlimit: 2;"><g class="fills"><g><path class="js-fill" d="M540,320L0,320L0,318.74L7.02,316.22L7.56,314.95L9.75,313.69L27,312.43L30.79,311.17L38.21,309.91L46.37,307.39L46.49,306.12L47.44,304.86L53.98,303.6L56.64,301.08L62.95,299.82L64.65,296.03L65.33,294.77L83.32,288.46L84.99,287.2L88.58,285.94L95.31,284.68L98.49,282.16L98.49,280.9L98.62,274.59L99.56,273.33L101.23,272.07L101.35,270.8L104.95,264.5L105.21,263.24L106.59,261.98L106.7,260.71L112.11,256.93L116.61,255.67L122.12,253.15L122.67,251.88L129.84,250.62L129.97,249.36L130.37,248.1L133.94,246.84L134.84,243.05L136.57,241.79L136.69,236.75L138.07,235.49L146.11,234.22L148.41,232.96L150.44,231.7L150.45,230.44L160.42,229.18L161.49,227.92L164.75,226.66L164.75,225.39L178.23,220.35L179.87,219.09L184.03,216.56L184.98,215.3L195.42,212.78L195.45,211.52L202.37,210.26L204.51,209L208.79,207.73L208.91,206.47L210.99,205.21L215.8,203.95L217.46,202.69L217.84,201.43L225.44,200.17L227.61,198.9L228.35,197.64L230.11,196.38L231.9,193.86L232.3,192.6L233.68,188.81L233.93,187.55L235.02,182.51L236.89,181.24L238.09,179.98L238.21,178.72L242.54,168.63L243.6,167.37L243.69,166.11L245.52,164.85L246.38,163.59L253.14,162.32L253.47,159.8L255.27,158.54L256.06,157.28L258.47,156.02L262.29,154.76L262.98,153.49L263.29,152.23L264.75,150.97L265.15,148.45L265.57,147.19L265.98,144.66L267.63,143.4L271.57,142.14L272.35,140.88L272.73,139.62L274.01,138.36L293.9,133.31L293.91,132.05L294.47,129.53L297.64,128.27L298.09,127L305.74,125.74L307.54,124.48L312.46,123.22L315.69,119.44L316.58,118.17L316.73,115.65L328.57,114.39L341.21,113.13L342.05,111.87L349.15,106.82L349.5,105.56L350.5,100.51L351.27,99.25L351.56,97.99L355.53,96.73L360.91,94.21L368.86,92.95L370.55,90.42L370.55,89.16L370.55,80.33L371.6,79.07L372.03,77.81L373.57,76.55L381.53,75.29L382.49,74.02L391.97,72.76L392.66,71.5L402.8,70.24L404.63,68.98L405.6,66.46L406.17,65.2L408.48,63.93L408.61,62.67L414.31,61.41L414.31,60.15L414.42,58.89L423.88,57.63L425.72,55.1L432.04,53.84L448.12,51.32L450.3,50.06L450.33,46.27L452.37,45.01L466.39,43.75L466.84,42.49L470.85,41.23L470.85,39.97L470.85,37.44L475.74,36.18L475.74,34.92L487.01,33.66L487.59,29.88L493.36,28.61L501.75,24.83L504.12,23.57L518.8,21.05L524.62,19.78L536.54,18.52L538.18,17.26L540,16" style="fill: rgb(99, 110, 250); fill-opacity: 0.5; stroke-width: 0;"/></g></g><g class="errorbars"/><g class="lines"><path class="js-line" d="M0,318.74L7.02,316.22L7.56,314.95L9.75,313.69L27,312.43L30.79,311.17L38.21,309.91L46.37,307.39L46.49,306.12L47.44,304.86L53.98,303.6L56.64,301.08L62.95,299.82L64.65,296.03L65.33,294.77L83.32,288.46L84.99,287.2L88.58,285.94L95.31,284.68L98.49,282.16L98.49,280.9L98.62,274.59L99.56,273.33L101.23,272.07L101.35,270.8L104.95,264.5L105.21,263.24L106.59,261.98L106.7,260.71L112.11,256.93L116.61,255.67L122.12,253.15L122.67,251.88L129.84,250.62L129.97,249.36L130.37,248.1L133.94,246.84L134.84,243.05L136.57,241.79L136.69,236.75L138.07,235.49L146.11,234.22L148.41,232.96L150.44,231.7L150.45,230.44L160.42,229.18L161.49,227.92L164.75,226.66L164.75,225.39L178.23,220.35L179.87,219.09L184.03,216.56L184.98,215.3L195.42,212.78L195.45,211.52L202.37,210.26L204.51,209L208.79,207.73L208.91,206.47L210.99,205.21L215.8,203.95L217.46,202.69L217.84,201.43L225.44,200.17L227.61,198.9L228.35,197.64L230.11,196.38L231.9,193.86L232.3,192.6L233.68,188.81L233.93,187.55L235.02,182.51L236.89,181.24L238.09,179.98L238.21,178.72L242.54,168.63L243.6,167.37L243.69,166.11L245.52,164.85L246.38,163.59L253.14,162.32L253.47,159.8L255.27,158.54L256.06,157.28L258.47,156.02L262.29,154.76L262.98,153.49L263.29,152.23L264.75,150.97L265.15,148.45L265.57,147.19L265.98,144.66L267.63,143.4L271.57,142.14L272.35,140.88L272.73,139.62L274.01,138.36L293.9,133.31L293.91,132.05L294.47,129.53L297.64,128.27L298.09,127L305.74,125.74L307.54,124.48L312.46,123.22L315.69,119.44L316.58,118.17L316.73,115.65L328.57,114.39L341.21,113.13L342.05,111.87L349.15,106.82L349.5,105.56L350.5,100.51L351.27,99.25L351.56,97.99L355.53,96.73L360.91,94.21L368.86,92.95L370.55,90.42L370.55,89.16L370.55,80.33L371.6,79.07L372.03,77.81L373.57,76.55L381.53,75.29L382.49,74.02L391.97,72.76L392.66,71.5L402.8,70.24L404.63,68.98L405.6,66.46L406.17,65.2L408.48,63.93L408.61,62.67L414.31,61.41L414.31,60.15L414.42,58.89L423.88,57.63L425.72,55.1L432.04,53.84L448.12,51.32L450.3,50.06L450.33,46.27L452.37,45.01L466.39,43.75L466.84,42.49L470.85,41.23L470.85,39.97L470.85,37.44L475.74,36.18L475.74,34.92L487.01,33.66L487.59,29.88L493.36,28.61L501.75,24.83L504.12,23.57L518.8,21.05L524.62,19.78L536.54,18.52L538.18,17.26L540,16" style="vector-effect: none; fill: none; stroke: rgb(99, 110, 250); stroke-opacity: 1; stroke-width: 2px; opacity: 1;"/></g><g class="points"/><g class="text"/></g></g></g></g><g class="zerolinelayer-above"/><path class="xlines-above crisp" d="M0,0" style="fill: none;"/><path class="ylines-above crisp" d="M0,0" style="fill: none;"/><g class="overlines-above"/><g class="xaxislayer-above"><g class="xtick"><text text-anchor="middle" x="0" y="439" transform="translate(100.53999999999999,0)" style="font-family: 'Open Sans'; font-size: 18px; fill: rgb(0, 0, 0); fill-opacity: 1; white-space: pre;">2016</text></g><g class="xtick"><text text-anchor="middle" x="0" y="439" style="font-family: 'Open Sans'; font-size: 18px; fill: rgb(0, 0, 0); fill-opacity: 1; white-space: pre;" transform="translate(201.09,0)">2018</text></g><g class="xtick"><text text-anchor="middle" x="0" y="439" style="font-family: 'Open Sans'; font-size: 18px; fill: rgb(0, 0, 0); fill-opacity: 1; white-space: pre;" transform="translate(301.49,0)">2020</text></g><g class="xtick"><text text-anchor="middle" x="0" y="439" style="font-family: 'Open Sans'; font-size: 18px; fill: rgb(0, 0, 0); fill-opacity: 1; white-space: pre;" transform="translate(402.04,0)">2022</text></g><g class="xtick"><text text-anchor="middle" x="0" y="439" style="font-family: 'Open Sans'; font-size: 18px; fill: rgb(0, 0, 0); fill-opacity: 1; white-space: pre;" transform="translate(502.45,0)">2024</text></g><g class="xtick"><text text-anchor="middle" x="0" y="439" style="font-family: 'Open Sans'; font-size: 18px; fill: rgb(0, 0, 0); fill-opacity: 1; white-space: pre;" transform="translate(602.99,0)">2026</text></g></g><g class="yaxislayer-above"><g class="ytick"><text text-anchor="end" x="79" y="6.3" transform="translate(0,420)" style="font-family: 'Open Sans'; font-size: 18px; fill: rgb(0, 0, 0); fill-opacity: 1; white-space: pre;">0</text></g><g class="ytick"><text text-anchor="end" x="79" y="6.3" style="font-family: 'Open Sans'; font-size: 18px; fill: rgb(0, 0, 0); fill-opacity: 1; white-space: pre;" transform="translate(0,356.93)">50</text></g><g class="ytick"><text text-anchor="end" x="79" y="6.3" style="font-family: 'Open Sans'; font-size: 18px; fill: rgb(0, 0, 0); fill-opacity: 1; white-space: pre;" transform="translate(0,293.86)">100</text></g><g class="ytick"><text text-anchor="end" x="79" y="6.3" style="font-family: 'Open Sans'; font-size: 18px; fill: rgb(0, 0, 0); fill-opacity: 1; white-space: pre;" transform="translate(0,230.79)">150</text></g><g class="ytick"><text text-anchor="end" x="79" y="6.3" style="font-family: 'Open Sans'; font-size: 18px; fill: rgb(0, 0, 0); fill-opacity: 1; white-space: pre;" transform="translate(0,167.72)">200</text></g><g class="ytick"><text text-anchor="end" x="79" y="6.3" style="font-family: 'Open Sans'; font-size: 18px; fill: rgb(0, 0, 0); fill-opacity: 1; white-space: pre;" transform="translate(0,104.65)">250</text></g></g><g class="overaxes-above"/></g></g><g class="polarlayer"/><g class="smithlayer"/><g class="ternarylayer"/><g class="geolayer"/><g class="funnelarealayer"/><g class="pielayer"/><g class="iciclelayer"/><g class="treemaplayer"/><g class="sunburstlayer"/><g class="glimages"/><defs id="topdefs-3593c1"><g class="clips"/></defs><g class="layer-above"><g class="imagelayer"/><g class="shapelayer"/></g><g class="infolayer"><g class="g-gtitle"><text class="gtitle" x="35" y="50" text-anchor="start" dy="0em" style="opacity: 1; font-family: 'Open Sans'; font-size: 25px; fill: rgb(0, 0, 0); fill-opacity: 1; white-space: pre;">MultiQC code contributors over time</text></g><g class="g-xtitle"><text class="xtitle" x="350" y="472.9" text-anchor="middle" style="opacity: 1; font-family: 'Open Sans'; font-size: 22px; fill: rgb(0, 0, 0); fill-opacity: 1; white-space: pre;">Date</text></g><g class="g-ytitle"><text class="ytitle" transform="rotate(-90,29.799999999999997,260)" x="29.799999999999997" y="260" text-anchor="middle" style="opacity: 1; font-family: 'Open Sans'; font-size: 22px; fill: rgb(0, 0, 0); fill-opacity: 1; white-space: pre;">Number of contributors</text></g></g></svg>