<svg class="main-svg" xmlns="http://www.w3.org/2000/svg" xmlns:xlink="http://www.w3.org/1999/xlink" width="700" height="500" style="" viewBox="0 0 700 500"><rect x="0" y="0" width="700" height="500" style="fill: rgb(0, 0, 0); fill-opacity: 0;"/><defs id="defs-92661d"><g class="clips"><clipPath id="clip92661dxyplot" class="plotclip"><rect width="540" height="320"/></clipPath><clipPath class="axesclip" id="clip92661dx"><rect x="80" y="0" width="540" height="500"/></clipPath><clipPath class="axesclip" id="clip92661dy"><rect x="0" y="100" width="700" height="320"/></clipPath><clipPath class="axesclip" id="clip92661dxy"><rect x="80" y="100" width="540" height="320"/></clipPath></g><g class="gradients"/><g class="patterns"/></defs><g class="bglayer"><rect class="bg" x="80" y="100" width="540" height="320" style="fill: rgb(0, 0, 0); fill-opacity: 0; stroke-width: 0;"/></g><g class="layer-below"><g class="imagelayer"/><g class="shapelayer"/></g><g class="cartesianlayer"><g class="subplot xy"><g class="layer-subplot"><g class="shapelayer"/><g class="imagelayer"/></g><g class="minor-gridlayer"><g class="x"/><g class="y"/></g><g class="gridlayer"><g class="x"><path class="xgrid crisp" transform="translate(100.5,0)" d="M0,100v320" style="stroke: rgb(255, 255, 255); stroke-opacity: 1; stroke-width: 1px;"/><path class="xgrid crisp" transform="translate(200.82999999999998,0)" d="M0,100v320" style="stroke: rgb(255, 255, 255); stroke-opacity: 1; stroke-width: 1px;"/><path class="xgrid crisp" transform="translate(301.02,0)" d="M0,100v320" style="stroke: rgb(255, 255, 255); stroke-opacity: 1; stroke-width: 1px;"/><path class="xgrid crisp" transform="translate(401.35,0)" d="M0,100v320" style="stroke: rgb(255, 255, 255); stroke-opacity: 1; stroke-width: 1px;"/><path class="xgrid crisp" transform="translate(501.55,0)" d="M0,100v320" style="stroke: rgb(255, 255, 255); stroke-opacity: 1; stroke-width: 1px;"/><path class="xgrid crisp" transform="translate(601.88,0)" d="M0,100v320" style="stroke: rgb(255, 255, 255); stroke-opacity: 1; stroke-width: 1px;"/></g><g class="y"><path class="ygrid crisp" transform="translate(0,359.44)" d="M80,0h540" style="stroke: rgb(255, 255, 255); stroke-opacity: 1; stroke-width: 1px;"/><path class="ygrid crisp" transform="translate(0,298.88)" d="M80,0h540" style="stroke: rgb(255, 255, 255); stroke-opacity: 1; stroke-width: 1px;"/><path class="ygrid crisp" transform="translate(0,238.33)" d="M80,0h540" style="stroke: rgb(255, 255, 255); stroke-opacity: 1; stroke-width: 1px;"/><path class="ygrid crisp" transform="translate(0,177.76999999999998)" d="M80,0h540" style="stroke: rgb(255, 255, 255); stroke-opacity: 1; stroke-width: 1px;"/><path class="ygrid crisp" transform="translate(0,117.21000000000001)" d="M80,0h540" style="stroke: rgb(255, 255, 255); stroke-opacity: 1; stroke-width: 1px;"/></g></g><g class="zerolinelayer"><path class="yzl zl crisp" transform="translate(0,420)" d="M80,0h540" style="stroke: rgb(255, 255, 255); stroke-opacity: 1; stroke-width: 2px;"/></g><g class="layer-between"><g class="shapelayer"/><g class="imagelayer"/></g><path class="xlines-below"/><path class="ylines-below"/><g class="overlines-below"/><g class="xaxislayer-below"/><g class="yaxislayer-below"/><g class="overaxes-below"/><g class="overplot"><g class="xy" transform="translate(80,100)" clip-path="url(#clip92661dxyplot)"><g class="scatterlayer mlayer"><g class="trace scatter tracea263ec" style="stroke-miterlimit: 2;"><g class="fills"><g><path class="js-fill" d="M540,320L0,320L0,318.79L7,316.37L7.54,315.16L9.73,313.94L26.95,312.73L30.72,311.52L38.13,310.31L46.28,307.89L46.39,306.68L47.34,305.47L53.86,304.25L56.51,301.83L62.82,300.62L64.51,296.99L65.19,295.78L83.14,289.72L84.81,288.51L88.4,287.3L95.11,286.09L98.28,283.67L98.28,282.45L98.41,276.4L99.34,275.19L101.02,273.98L101.13,272.76L104.72,266.71L104.99,265.5L106.36,264.29L106.48,263.08L111.87,259.44L116.36,258.23L121.86,255.81L122.4,254.6L129.57,253.39L129.69,252.18L130.09,250.96L133.65,249.75L134.56,246.12L136.28,244.91L136.4,240.06L137.78,238.85L145.8,237.64L148.09,236.43L150.12,235.22L150.13,234.01L160.08,232.8L161.14,231.59L164.4,230.37L164.4,229.16L177.85,224.32L179.49,223.11L183.64,220.69L184.59,219.47L195,217.05L195.03,215.84L201.94,214.63L204.08,213.42L208.35,212.21L208.46,211L210.54,209.78L215.34,208.57L217.38,206.15L224.96,204.94L227.86,202.52L229.62,201.31L231.41,198.88L231.81,197.67L233.19,194.04L233.43,192.83L234.52,187.98L236.38,186.77L237.59,185.56L237.7,184.35L242.02,174.66L243.08,173.45L243.17,172.24L245,171.03L245.85,169.82L252.6,168.61L252.93,166.18L254.72,164.97L255.51,163.76L257.92,162.55L261.73,161.34L262.42,160.13L262.73,158.92L264.19,157.71L264.59,155.28L265,154.07L265.41,151.65L267.06,150.44L270.99,149.23L271.77,148.02L272.15,146.8L273.43,145.59L293.27,140.75L293.28,139.54L293.85,137.12L297,135.9L297.46,134.69L305.09,133.48L306.88,132.27L311.79,131.06L315.02,127.43L315.91,126.22L316.06,123.79L327.87,122.58L340.48,121.37L341.33,120.16L348.41,115.31L348.76,114.1L349.75,109.26L350.53,108.05L350.81,106.84L354.77,105.63L360.15,103.2L368.08,101.99L369.76,99.57L369.76,98.36L369.76,89.88L370.81,88.67L371.24,87.46L372.77,86.25L380.71,85.04L381.68,83.82L391.13,82.61L391.83,81.4L401.94,80.19L403.77,78.98L404.73,76.56L405.3,75.35L407.61,74.14L407.74,72.92L413.43,71.71L413.43,70.5L413.54,69.29L422.98,68.08L424.82,65.66L431.12,64.45L447.17,62.02L449.34,60.81L449.37,57.18L451.41,55.97L465.4,54.76L465.85,53.55L469.84,52.33L469.84,51.12L469.84,48.7L474.72,47.49L474.72,46.28L485.97,45.07L486.55,41.43L492.31,40.22L500.68,36.59L503.04,35.38L517.7,32.96L523.5,31.75L535.4,30.53L537.03,29.32L539.8,26.9L539.8,25.69L540,16" style="fill: rgb(99, 110, 250); fill-opacity: 0.5; stroke-width: 0;"/></g></g><g class="errorbars"/><g class="lines"><path class="js-line" d="M0,318.79L7,316.37L7.54,315.16L9.73,313.94L26.95,312.73L30.72,311.52L38.13,310.31L46.28,307.89L46.39,306.68L47.34,305.47L53.86,304.25L56.51,301.83L62.82,300.62L64.51,296.99L65.19,295.78L83.14,289.72L84.81,288.51L88.4,287.3L95.11,286.09L98.28,283.67L98.28,282.45L98.41,276.4L99.34,275.19L101.02,273.98L101.13,272.76L104.72,266.71L104.99,265.5L106.36,264.29L106.48,263.08L111.87,259.44L116.36,258.23L121.86,255.81L122.4,254.6L129.57,253.39L129.69,252.18L130.09,250.96L133.65,249.75L134.56,246.12L136.28,244.91L136.4,240.06L137.78,238.85L145.8,237.64L148.09,236.43L150.12,235.22L150.13,234.01L160.08,232.8L161.14,231.59L164.4,230.37L164.4,229.16L177.85,224.32L179.49,223.11L183.64,220.69L184.59,219.47L195,217.05L195.03,215.84L201.94,214.63L204.08,213.42L208.35,212.21L208.46,211L210.54,209.78L215.34,208.57L217.38,206.15L224.96,204.94L227.86,202.52L229.62,201.31L231.41,198.88L231.81,197.67L233.19,194.04L233.43,192.83L234.52,187.98L236.38,186.77L237.59,185.56L237.7,184.35L242.02,174.66L243.08,173.45L243.17,172.24L245,171.03L245.85,169.82L252.6,168.61L252.93,166.18L254.72,164.97L255.51,163.76L257.92,162.55L261.73,161.34L262.42,160.13L262.73,158.92L264.19,157.71L264.59,155.28L265,154.07L265.41,151.65L267.06,150.44L270.99,149.23L271.77,148.02L272.15,146.8L273.43,145.59L293.27,140.75L293.28,139.54L293.85,137.12L297,135.9L297.46,134.69L305.09,133.48L306.88,132.27L311.79,131.06L315.02,127.43L315.91,126.22L316.06,123.79L327.87,122.58L340.48,121.37L341.33,120.16L348.41,115.31L348.76,114.1L349.75,109.26L350.53,108.05L350.81,106.84L354.77,105.63L360.15,103.2L368.08,101.99L369.76,99.57L369.76,98.36L369.76,89.88L370.81,88.67L371.24,87.46L372.77,86.25L380.71,85.04L381.68,83.82L391.13,82.61L391.83,81.4L401.94,80.19L403.77,78.98L404.73,76.56L405.3,75.35L407.61,74.14L407.74,72.92L413.43,71.71L413.43,70.5L413.54,69.29L422.98,68.08L424.82,65.66L431.12,64.45L447.17,62.02L449.34,60.81L449.37,57.18L451.41,55.97L465.4,54.76L465.85,53.55L469.84,52.33L469.84,51.12L469.84,48.7L474.72,47.49L474.72,46.28L485.97,45.07L486.55,41.43L492.31,40.22L500.68,36.59L503.04,35.38L517.7,32.96L523.5,31.75L535.4,30.53L537.03,29.32L539.8,26.9L539.8,25.69L540,16" style="vector-effect: none; fill: none; stroke: rgb(99, 110, 250); stroke-opacity: 1; stroke-width: 2px; opacity: 1;"/></g><g class="points"/><g class="text"/></g></g></g></g><g class="zerolinelayer-above"/><path class="xlines-above crisp" d="M0,0" style="fill: none;"/><path class="ylines-above crisp" d="M0,0" style="fill: none;"/><g class="overlines-above"/><g class="xaxislayer-above"><g class="xtick"><text text-anchor="middle" x="0" y="439" transform="translate(100.5,0)" style="font-family: 'Open Sans'; font-size: 18px; fill: rgb(0, 0, 0); fill-opacity: 1; white-space: pre;">2016</text></g><g class="xtick"><text text-anchor="middle" x="0" y="439" style="font-family: 'Open Sans'; font-size: 18px; fill: rgb(0, 0, 0); fill-opacity: 1; white-space: pre;" transform="translate(200.82999999999998,0)">2018</text></g><g class="xtick"><text text-anchor="middle" x="0" y="439" style="font-family: 'Open Sans'; font-size: 18px; fill: rgb(0, 0, 0); fill-opacity: 1; white-space: pre;" transform="translate(301.02,0)">2020</text></g><g class="xtick"><text text-anchor="middle" x="0" y="439" style="font-family: 'Open Sans'; font-size: 18px; fill: rgb(0, 0, 0); fill-opacity: 1; white-space: pre;" transform="translate(401.35,0)">2022</text></g><g class="xtick"><text text-anchor="middle" x="0" y="439" style="font-family: 'Open Sans'; font-size: 18px; fill: rgb(0, 0, 0); fill-opacity: 1; white-space: pre;" transform="translate(501.55,0)">2024</text></g><g class="xtick"><text text-anchor="middle" x="0" y="439" style="font-family: 'Open Sans'; font-size: 18px; fill: rgb(0, 0, 0); fill-opacity: 1; white-space: pre;" transform="translate(601.88,0)">2026</text></g></g><g class="yaxislayer-above"><g class="ytick"><text text-anchor="end" x="79" y="6.3" transform="translate(0,420)" style="font-family: 'Open Sans'; font-size: 18px; fill: rgb(0, 0, 0); fill-opacity: 1; white-space: pre;">0</text></g><g class="ytick"><text text-anchor="end" x="79" y="6.3" style="font-family: 'Open Sans'; font-size: 18px; fill: rgb(0, 0, 0); fill-opacity: 1; white-space: pre;" transform="translate(0,359.44)">50</text></g><g class="ytick"><text text-anchor="end" x="79" y="6.3" style="font-family: 'Open Sans'; font-size: 18px; fill: rgb(0, 0, 0); fill-opacity: 1; white-space: pre;" transform="translate(0,298.88)">100</text></g><g class="ytick"><text text-anchor="end" x="79" y="6.3" style="font-family: 'Open Sans'; font-size: 18px; fill: rgb(0, 0, 0); fill-opacity: 1; white-space: pre;" transform="translate(0,238.33)">150</text></g><g class="ytick"><text text-anchor="end" x="79" y="6.3" style="font-family: 'Open Sans'; font-size: 18px; fill: rgb(0, 0, 0); fill-opacity: 1; white-space: pre;" transform="translate(0,177.76999999999998)">200</text></g><g class="ytick"><text text-anchor="end" x="79" y="6.3" style="font-family: 'Open Sans'; font-size: 18px; fill: rgb(0, 0, 0); fill-opacity: 1; white-space: pre;" transform="translate(0,117.21000000000001)">250</text></g></g><g class="overaxes-above"/></g></g><g class="polarlayer"/><g class="smithlayer"/><g class="ternarylayer"/><g class="geolayer"/><g class="funnelarealayer"/><g class="pielayer"/><g class="iciclelayer"/><g class="treemaplayer"/><g class="sunburstlayer"/><g class="glimages"/><defs id="topdefs-92661d"><g class="clips"/></defs><g class="layer-above"><g class="imagelayer"/><g class="shapelayer"/></g><g class="infolayer"><g class="g-gtitle"><text class="gtitle" x="35" y="50" text-anchor="start" dy="0em" style="opacity: 1; font-family: 'Open Sans'; font-size: 25px; fill: rgb(0, 0, 0); fill-opacity: 1; white-space: pre;">MultiQC code contributors over time</text></g><g class="g-xtitle"><text class="xtitle" x="350" y="472.9" text-anchor="middle" style="opacity: 1; font-family: 'Open Sans'; font-size: 22px; fill: rgb(0, 0, 0); fill-opacity: 1; white-space: pre;">Date</text></g><g class="g-ytitle"><text class="ytitle" transform="rotate(-90,29.799999999999997,260)" x="29.799999999999997" y="260" text-anchor="middle" style="opacity: 1; font-family: 'Open Sans'; font-size: 22px; fill: rgb(0, 0, 0); fill-opacity: 1; white-space: pre;">Number of contributors</text></g></g></svg>