<svg class="main-svg" xmlns="http://www.w3.org/2000/svg" xmlns:xlink="http://www.w3.org/1999/xlink" width="700" height="500" style="" viewBox="0 0 700 500"><rect x="0" y="0" width="700" height="500" style="fill: rgb(0, 0, 0); fill-opacity: 0;"/><defs id="defs-acbc84"><g class="clips"><clipPath id="clipacbc84xyplot" class="plotclip"><rect width="540" height="320"/></clipPath><clipPath class="axesclip" id="clipacbc84x"><rect x="80" y="0" width="540" height="500"/></clipPath><clipPath class="axesclip" id="clipacbc84y"><rect x="0" y="100" width="700" height="320"/></clipPath><clipPath class="axesclip" id="clipacbc84xy"><rect x="80" y="100" width="540" height="320"/></clipPath></g><g class="gradients"/><g class="patterns"/></defs><g class="bglayer"><rect class="bg" x="80" y="100" width="540" height="320" style="fill: rgb(0, 0, 0); fill-opacity: 0; stroke-width: 0;"/></g><g class="layer-below"><g class="imagelayer"/><g class="shapelayer"/></g><g class="cartesianlayer"><g class="subplot xy"><g class="layer-subplot"><g class="shapelayer"/><g class="imagelayer"/></g><g class="minor-gridlayer"><g class="x"/><g class="y"/></g><g class="gridlayer"><g class="x"><path class="xgrid crisp" transform="translate(100.67,0)" d="M0,100v320" style="stroke: rgb(255, 255, 255); stroke-opacity: 1; stroke-width: 1px;"/><path class="xgrid crisp" transform="translate(201.87,0)" d="M0,100v320" style="stroke: rgb(255, 255, 255); stroke-opacity: 1; stroke-width: 1px;"/><path class="xgrid crisp" transform="translate(302.91999999999996,0)" d="M0,100v320" style="stroke: rgb(255, 255, 255); stroke-opacity: 1; stroke-width: 1px;"/><path class="xgrid crisp" transform="translate(404.12,0)" d="M0,100v320" style="stroke: rgb(255, 255, 255); stroke-opacity: 1; stroke-width: 1px;"/><path class="xgrid crisp" transform="translate(505.17,0)" d="M0,100v320" style="stroke: rgb(255, 255, 255); stroke-opacity: 1; stroke-width: 1px;"/><path class="xgrid crisp" transform="translate(606.36,0)" d="M0,100v320" style="stroke: rgb(255, 255, 255); stroke-opacity: 1; stroke-width: 1px;"/></g><g class="y"><path class="ygrid crisp" transform="translate(0,356.4)" d="M80,0h540" style="stroke: rgb(255, 255, 255); stroke-opacity: 1; stroke-width: 1px;"/><path class="ygrid crisp" transform="translate(0,292.8)" d="M80,0h540" style="stroke: rgb(255, 255, 255); stroke-opacity: 1; stroke-width: 1px;"/><path class="ygrid crisp" transform="translate(0,229.21)" d="M80,0h540" style="stroke: rgb(255, 255, 255); stroke-opacity: 1; stroke-width: 1px;"/><path class="ygrid crisp" transform="translate(0,165.61)" d="M80,0h540" style="stroke: rgb(255, 255, 255); stroke-opacity: 1; stroke-width: 1px;"/><path class="ygrid crisp" transform="translate(0,102.01)" d="M80,0h540" style="stroke: rgb(255, 255, 255); stroke-opacity: 1; stroke-width: 1px;"/></g></g><g class="zerolinelayer"><path class="yzl zl crisp" transform="translate(0,420)" d="M80,0h540" style="stroke: rgb(255, 255, 255); stroke-opacity: 1; stroke-width: 2px;"/></g><g class="layer-between"><g class="shapelayer"/><g class="imagelayer"/></g><path class="xlines-below"/><path class="ylines-below"/><g class="overlines-below"/><g class="xaxislayer-below"/><g class="yaxislayer-below"/><g class="overaxes-below"/><g class="overplot"><g class="xy" transform="translate(80,100)" clip-path="url(#clipacbc84xyplot)"><g class="scatterlayer mlayer"><g class="trace scatter trace566862" style="stroke-miterlimit: 2;"><g class="fills"><g><path class="js-fill" d="M540,320L0,320L0,318.73L7.06,316.18L7.61,314.91L9.81,313.64L27.18,312.37L30.99,311.1L38.46,309.82L46.67,307.28L46.79,306.01L47.74,304.74L54.32,303.46L57,300.92L63.36,299.65L63.74,298.38L64.92,297.1L65.75,294.56L69.77,293.29L72.09,292.02L77.68,290.74L83.86,288.2L85.54,286.93L89.16,285.66L95.93,284.38L99.12,281.84L99.12,280.57L99.26,274.21L100.2,272.94L101.89,271.67L102,270.39L105.62,264.03L105.89,262.76L107.27,261.49L107.39,260.22L112.83,256.4L117.36,255.13L122.91,252.59L123.46,251.31L130.68,250.04L130.8,248.77L131.21,247.5L134.8,246.23L135.71,242.41L137.45,241.14L137.57,236.05L138.96,234.78L147.05,233.51L149.37,232.23L151.41,230.96L151.42,229.69L161.46,228.42L162.53,227.15L165.81,225.87L165.81,224.6L179.38,219.51L181.03,218.24L185.22,215.7L186.18,214.43L196.68,211.88L196.71,210.61L203.68,209.34L205.83,208.07L210.14,206.79L210.26,205.52L212.35,204.25L217.19,202.98L218.86,201.71L219.25,200.44L226.89,199.16L229.08,197.89L229.82,196.62L231.59,195.35L233.4,192.8L233.8,191.53L235.19,187.72L235.44,186.44L235.93,183.9L236.44,182.63L236.54,181.36L238.42,180.08L239.63,178.81L239.75,177.54L243.49,168.64L244.1,167.36L247.97,162.28L254.77,161L255.11,158.46L256.91,157.19L257.71,155.92L260.14,154.64L263.98,153.37L264.67,152.1L264.99,150.83L266.46,149.56L266.86,147.01L267.28,145.74L267.69,143.2L269.36,141.92L273.32,140.65L274.11,139.38L274.49,138.11L275.78,136.84L295.79,131.75L295.81,130.48L296.37,127.93L299.56,126.66L300.01,125.39L307.71,124.12L309.52,122.85L314.47,121.57L317.73,117.76L318.63,116.49L318.78,113.94L330.68,112.67L343.41,111.4L344.26,110.13L351.41,105.04L351.75,103.77L352.76,98.68L353.54,97.41L353.82,96.13L357.82,94.86L363.24,92.32L371.24,91.05L372.94,88.5L372.94,87.23L372.94,78.33L374,77.05L374.43,75.78L375.98,74.51L383.99,73.24L384.96,71.97L394.5,70.69L395.2,69.42L405.39,68.15L407.24,66.88L408.21,64.33L408.78,63.06L411.12,61.79L411.24,60.52L416.99,59.25L416.99,57.97L417.1,56.7L426.61,55.43L428.47,52.89L434.83,51.62L451.01,49.07L453.2,47.8L453.23,43.98L455.29,42.71L469.4,41.44L469.85,40.17L473.88,38.9L473.88,37.62L473.88,35.08L478.8,33.81L478.8,32.54L490.15,31.26L490.74,27.45L496.55,26.18L504.99,22.36L507.37,21.09L522.15,18.54L528,17.27L540,16" style="fill: rgb(99, 110, 250); fill-opacity: 0.5; stroke-width: 0;"/></g></g><g class="errorbars"/><g class="lines"><path class="js-line" d="M0,318.73L7.06,316.18L7.61,314.91L9.81,313.64L27.18,312.37L30.99,311.1L38.46,309.82L46.67,307.28L46.79,306.01L47.74,304.74L54.32,303.46L57,300.92L63.36,299.65L63.74,298.38L64.92,297.1L65.75,294.56L69.77,293.29L72.09,292.02L77.68,290.74L83.86,288.2L85.54,286.93L89.16,285.66L95.93,284.38L99.12,281.84L99.12,280.57L99.26,274.21L100.2,272.94L101.89,271.67L102,270.39L105.62,264.03L105.89,262.76L107.27,261.49L107.39,260.22L112.83,256.4L117.36,255.13L122.91,252.59L123.46,251.31L130.68,250.04L130.8,248.77L131.21,247.5L134.8,246.23L135.71,242.41L137.45,241.14L137.57,236.05L138.96,234.78L147.05,233.51L149.37,232.23L151.41,230.96L151.42,229.69L161.46,228.42L162.53,227.15L165.81,225.87L165.81,224.6L179.38,219.51L181.03,218.24L185.22,215.7L186.18,214.43L196.68,211.88L196.71,210.61L203.68,209.34L205.83,208.07L210.14,206.79L210.26,205.52L212.35,204.25L217.19,202.98L218.86,201.71L219.25,200.44L226.89,199.16L229.08,197.89L229.82,196.62L231.59,195.35L233.4,192.8L233.8,191.53L235.19,187.72L235.44,186.44L235.93,183.9L236.44,182.63L236.54,181.36L238.42,180.08L239.63,178.81L239.75,177.54L243.49,168.64L244.1,167.36L247.97,162.28L254.77,161L255.11,158.46L256.91,157.19L257.71,155.92L260.14,154.64L263.98,153.37L264.67,152.1L264.99,150.83L266.46,149.56L266.86,147.01L267.28,145.74L267.69,143.2L269.36,141.92L273.32,140.65L274.11,139.38L274.49,138.11L275.78,136.84L295.79,131.75L295.81,130.48L296.37,127.93L299.56,126.66L300.01,125.39L307.71,124.12L309.52,122.85L314.47,121.57L317.73,117.76L318.63,116.49L318.78,113.94L330.68,112.67L343.41,111.4L344.26,110.13L351.41,105.04L351.75,103.77L352.76,98.68L353.54,97.41L353.82,96.13L357.82,94.86L363.24,92.32L371.24,91.05L372.94,88.5L372.94,87.23L372.94,78.33L374,77.05L374.43,75.78L375.98,74.51L383.99,73.24L384.96,71.97L394.5,70.69L395.2,69.42L405.39,68.15L407.24,66.88L408.21,64.33L408.78,63.06L411.12,61.79L411.24,60.52L416.99,59.25L416.99,57.97L417.1,56.7L426.61,55.43L428.47,52.89L434.83,51.62L451.01,49.07L453.2,47.8L453.23,43.98L455.29,42.71L469.4,41.44L469.85,40.17L473.88,38.9L473.88,37.62L473.88,35.08L478.8,33.81L478.8,32.54L490.15,31.26L490.74,27.45L496.55,26.18L504.99,22.36L507.37,21.09L522.15,18.54L528,17.27L540,16" style="vector-effect: none; fill: none; stroke: rgb(99, 110, 250); stroke-opacity: 1; stroke-width: 2px; opacity: 1;"/></g><g class="points"/><g class="text"/></g></g></g></g><g class="zerolinelayer-above"/><path class="xlines-above crisp" d="M0,0" style="fill: none;"/><path class="ylines-above crisp" d="M0,0" style="fill: none;"/><g class="overlines-above"/><g class="xaxislayer-above"><g class="xtick"><text text-anchor="middle" x="0" y="439" transform="translate(100.67,0)" style="font-family: 'Open Sans'; font-size: 18px; fill: rgb(255, 255, 255); fill-opacity: 1; white-space: pre;">2016</text></g><g class="xtick"><text text-anchor="middle" x="0" y="439" style="font-family: 'Open Sans'; font-size: 18px; fill: rgb(255, 255, 255); fill-opacity: 1; white-space: pre;" transform="translate(201.87,0)">2018</text></g><g class="xtick"><text text-anchor="middle" x="0" y="439" style="font-family: 'Open Sans'; font-size: 18px; fill: rgb(255, 255, 255); fill-opacity: 1; white-space: pre;" transform="translate(302.91999999999996,0)">2020</text></g><g class="xtick"><text text-anchor="middle" x="0" y="439" style="font-family: 'Open Sans'; font-size: 18px; fill: rgb(255, 255, 255); fill-opacity: 1; white-space: pre;" transform="translate(404.12,0)">2022</text></g><g class="xtick"><text text-anchor="middle" x="0" y="439" style="font-family: 'Open Sans'; font-size: 18px; fill: rgb(255, 255, 255); fill-opacity: 1; white-space: pre;" transform="translate(505.17,0)">2024</text></g><g class="xtick"><text text-anchor="middle" x="0" y="439" style="font-family: 'Open Sans'; font-size: 18px; fill: rgb(255, 255, 255); fill-opacity: 1; white-space: pre;" transform="translate(606.36,0)">2026</text></g></g><g class="yaxislayer-above"><g class="ytick"><text text-anchor="end" x="79" y="6.3" transform="translate(0,420)" style="font-family: 'Open Sans'; font-size: 18px; fill: rgb(255, 255, 255); fill-opacity: 1; white-space: pre;">0</text></g><g class="ytick"><text text-anchor="end" x="79" y="6.3" style="font-family: 'Open Sans'; font-size: 18px; fill: rgb(255, 255, 255); fill-opacity: 1; white-space: pre;" transform="translate(0,356.4)">50</text></g><g class="ytick"><text text-anchor="end" x="79" y="6.3" style="font-family: 'Open Sans'; font-size: 18px; fill: rgb(255, 255, 255); fill-opacity: 1; white-space: pre;" transform="translate(0,292.8)">100</text></g><g class="ytick"><text text-anchor="end" x="79" y="6.3" style="font-family: 'Open Sans'; font-size: 18px; fill: rgb(255, 255, 255); fill-opacity: 1; white-space: pre;" transform="translate(0,229.21)">150</text></g><g class="ytick"><text text-anchor="end" x="79" y="6.3" style="font-family: 'Open Sans'; font-size: 18px; fill: rgb(255, 255, 255); fill-opacity: 1; white-space: pre;" transform="translate(0,165.61)">200</text></g><g class="ytick"><text text-anchor="end" x="79" y="6.3" style="font-family: 'Open Sans'; font-size: 18px; fill: rgb(255, 255, 255); fill-opacity: 1; white-space: pre;" transform="translate(0,102.01)">250</text></g></g><g class="overaxes-above"/></g></g><g class="polarlayer"/><g class="smithlayer"/><g class="ternarylayer"/><g class="geolayer"/><g class="funnelarealayer"/><g class="pielayer"/><g class="iciclelayer"/><g class="treemaplayer"/><g class="sunburstlayer"/><g class="glimages"/><defs id="topdefs-acbc84"><g class="clips"/></defs><g class="layer-above"><g class="imagelayer"/><g class="shapelayer"/></g><g class="infolayer"><g class="g-gtitle"><text class="gtitle" x="35" y="50" text-anchor="start" dy="0em" style="opacity: 1; font-family: 'Open Sans'; font-size: 25px; fill: rgb(255, 255, 255); fill-opacity: 1; white-space: pre;">MultiQC code contributors over time</text></g><g class="g-xtitle"><text class="xtitle" x="350" y="472.9" text-anchor="middle" style="opacity: 1; font-family: 'Open Sans'; font-size: 22px; fill: rgb(255, 255, 255); fill-opacity: 1; white-space: pre;">Date</text></g><g class="g-ytitle"><text class="ytitle" transform="rotate(-90,29.799999999999997,260)" x="29.799999999999997" y="260" text-anchor="middle" style="opacity: 1; font-family: 'Open Sans'; font-size: 22px; fill: rgb(255, 255, 255); fill-opacity: 1; white-space: pre;">Number of contributors</text></g></g></svg>