<svg class="main-svg" xmlns="http://www.w3.org/2000/svg" xmlns:xlink="http://www.w3.org/1999/xlink" width="700" height="500" style="" viewBox="0 0 700 500"><rect x="0" y="0" width="700" height="500" style="fill: rgb(0, 0, 0); fill-opacity: 0;"/><defs id="defs-f6ce1c"><g class="clips"><clipPath id="clipf6ce1cxyplot" class="plotclip"><rect width="540" height="320"/></clipPath><clipPath class="axesclip" id="clipf6ce1cx"><rect x="80" y="0" width="540" height="500"/></clipPath><clipPath class="axesclip" id="clipf6ce1cy"><rect x="0" y="100" width="700" height="320"/></clipPath><clipPath class="axesclip" id="clipf6ce1cxy"><rect x="80" y="100" width="540" height="320"/></clipPath></g><g class="gradients"/><g class="patterns"/></defs><g class="bglayer"><rect class="bg" x="80" y="100" width="540" height="320" style="fill: rgb(0, 0, 0); fill-opacity: 0; stroke-width: 0;"/></g><g class="layer-below"><g class="imagelayer"/><g class="shapelayer"/></g><g class="cartesianlayer"><g class="subplot xy"><g class="layer-subplot"><g class="shapelayer"/><g class="imagelayer"/></g><g class="minor-gridlayer"><g class="x"/><g class="y"/></g><g class="gridlayer"><g class="x"><path class="xgrid crisp" transform="translate(101.38,0)" d="M0,100v320" style="stroke: rgb(255, 255, 255); stroke-opacity: 1; stroke-width: 1px;"/><path class="xgrid crisp" transform="translate(206.03,0)" d="M0,100v320" style="stroke: rgb(255, 255, 255); stroke-opacity: 1; stroke-width: 1px;"/><path class="xgrid crisp" transform="translate(310.53999999999996,0)" d="M0,100v320" style="stroke: rgb(255, 255, 255); stroke-opacity: 1; stroke-width: 1px;"/><path class="xgrid crisp" transform="translate(415.2,0)" d="M0,100v320" style="stroke: rgb(255, 255, 255); stroke-opacity: 1; stroke-width: 1px;"/><path class="xgrid crisp" transform="translate(519.71,0)" d="M0,100v320" style="stroke: rgb(255, 255, 255); stroke-opacity: 1; stroke-width: 1px;"/></g><g class="y"><path class="ygrid crisp" transform="translate(0,355.86)" d="M80,0h540" style="stroke: rgb(255, 255, 255); stroke-opacity: 1; stroke-width: 1px;"/><path class="ygrid crisp" transform="translate(0,291.73)" d="M80,0h540" style="stroke: rgb(255, 255, 255); stroke-opacity: 1; stroke-width: 1px;"/><path class="ygrid crisp" transform="translate(0,227.59)" d="M80,0h540" style="stroke: rgb(255, 255, 255); stroke-opacity: 1; stroke-width: 1px;"/><path class="ygrid crisp" transform="translate(0,163.46)" d="M80,0h540" style="stroke: rgb(255, 255, 255); stroke-opacity: 1; stroke-width: 1px;"/></g></g><g class="zerolinelayer"><path class="yzl zl crisp" transform="translate(0,420)" d="M80,0h540" style="stroke: rgb(255, 255, 255); stroke-opacity: 1; stroke-width: 2px;"/></g><g class="layer-between"><g class="shapelayer"/><g class="imagelayer"/></g><path class="xlines-below"/><path class="ylines-below"/><g class="overlines-below"/><g class="xaxislayer-below"/><g class="yaxislayer-below"/><g class="overaxes-below"/><g class="overplot"><g class="xy" transform="translate(80,100)" clip-path="url(#clipf6ce1cxyplot)"><g class="scatterlayer mlayer"><g class="trace scatter trace6247d9" style="stroke-miterlimit: 2;"><g class="fills"><g><path class="js-fill" d="M540,320L0,320L0,318.72L7.3,316.15L7.87,314.87L10.15,313.59L28.11,312.3L32.05,311.02L39.77,309.74L48.27,307.17L48.39,305.89L49.38,304.61L56.18,303.32L58.95,300.76L65.53,299.48L65.92,298.19L67.13,296.91L68,294.35L72.16,293.06L74.55,291.78L80.33,290.5L86.73,287.93L88.46,286.65L92.2,285.37L99.21,284.08L102.51,281.52L102.51,280.24L102.65,273.82L103.62,272.54L105.37,271.26L105.49,269.97L109.24,263.56L109.51,262.28L110.94,261L111.06,259.71L116.69,255.86L121.37,254.58L127.11,252.02L127.68,250.73L135.15,249.45L135.28,248.17L135.69,246.89L139.41,245.6L140.35,241.76L142.15,240.47L142.28,235.34L143.72,234.06L152.08,232.78L154.47,231.49L156.59,230.21L156.6,228.93L166.98,227.65L168.08,226.36L171.48,225.08L171.48,223.8L185.51,218.67L187.22,217.38L191.55,214.82L192.54,213.54L203.4,210.97L203.43,209.69L210.64,208.41L212.87,207.12L217.32,205.84L217.44,204.56L219.61,203.27L224.61,201.99L226.34,200.71L226.74,199.43L234.65,198.14L236.91,196.86L237.67,195.58L239.51,194.3L241.38,191.73L241.79,190.45L243.23,186.6L243.49,185.32L244,182.75L244.52,181.47L244.62,180.19L246.57,178.9L247.82,177.62L247.94,176.34L251.82,167.36L252.45,166.08L253.56,164.79L253.65,163.51L256.44,160.95L263.48,159.66L263.83,157.1L265.69,155.81L266.52,154.53L269.03,153.25L273.01,151.97L273.72,150.68L274.05,149.4L275.57,148.12L275.99,145.55L276.42,144.27L276.85,141.7L278.57,140.42L282.66,139.14L283.48,137.86L283.87,136.57L285.2,135.29L305.91,130.16L305.92,128.88L306.5,126.31L309.8,125.03L310.27,123.75L318.23,122.46L320.1,121.18L325.22,119.9L328.59,116.05L329.52,114.77L329.67,112.2L341.99,110.92L355.15,109.64L356.03,108.35L363.42,103.22L363.78,101.94L364.82,96.81L365.63,95.53L365.92,94.24L370.05,92.96L375.66,90.4L383.93,89.11L385.69,86.55L385.69,85.27L385.69,76.29L386.79,75L387.23,73.72L388.83,72.44L397.11,71.16L398.12,69.87L407.98,68.59L408.71,67.31L419.25,66.03L421.16,64.74L422.17,62.18L422.76,60.89L425.17,59.61L425.3,58.33L431.24,57.05L431.24,55.76L431.36,54.48L441.2,53.2L443.12,50.63L449.7,49.35L466.43,46.78L468.69,45.5L468.72,41.65L470.85,40.37L485.45,39.09L485.92,37.81L490.08,36.52L490.08,35.24L490.08,32.68L495.17,31.39L495.17,30.11L506.9,28.83L507.51,24.98L513.52,23.7L522.25,19.85L524.71,18.57L540,16" style="fill: rgb(99, 110, 250); fill-opacity: 0.5; stroke-width: 0;"/></g></g><g class="errorbars"/><g class="lines"><path class="js-line" d="M0,318.72L7.3,316.15L7.87,314.87L10.15,313.59L28.11,312.3L32.05,311.02L39.77,309.74L48.27,307.17L48.39,305.89L49.38,304.61L56.18,303.32L58.95,300.76L65.53,299.48L65.92,298.19L67.13,296.91L68,294.35L72.16,293.06L74.55,291.78L80.33,290.5L86.73,287.93L88.46,286.65L92.2,285.37L99.21,284.08L102.51,281.52L102.51,280.24L102.65,273.82L103.62,272.54L105.37,271.26L105.49,269.97L109.24,263.56L109.51,262.28L110.94,261L111.06,259.71L116.69,255.86L121.37,254.58L127.11,252.02L127.68,250.73L135.15,249.45L135.28,248.17L135.69,246.89L139.41,245.6L140.35,241.76L142.15,240.47L142.28,235.34L143.72,234.06L152.08,232.78L154.47,231.49L156.59,230.21L156.6,228.93L166.98,227.65L168.08,226.36L171.48,225.08L171.48,223.8L185.51,218.67L187.22,217.38L191.55,214.82L192.54,213.54L203.4,210.97L203.43,209.69L210.64,208.41L212.87,207.12L217.32,205.84L217.44,204.56L219.61,203.27L224.61,201.99L226.34,200.71L226.74,199.43L234.65,198.14L236.91,196.86L237.67,195.58L239.51,194.3L241.38,191.73L241.79,190.45L243.23,186.6L243.49,185.32L244,182.75L244.52,181.47L244.62,180.19L246.57,178.9L247.82,177.62L247.94,176.34L251.82,167.36L252.45,166.08L253.56,164.79L253.65,163.51L256.44,160.95L263.48,159.66L263.83,157.1L265.69,155.81L266.52,154.53L269.03,153.25L273.01,151.97L273.72,150.68L274.05,149.4L275.57,148.12L275.99,145.55L276.42,144.27L276.85,141.7L278.57,140.42L282.66,139.14L283.48,137.86L283.87,136.57L285.2,135.29L305.91,130.16L305.92,128.88L306.5,126.31L309.8,125.03L310.27,123.75L318.23,122.46L320.1,121.18L325.22,119.9L328.59,116.05L329.52,114.77L329.67,112.2L341.99,110.92L355.15,109.64L356.03,108.35L363.42,103.22L363.78,101.94L364.82,96.81L365.63,95.53L365.92,94.24L370.05,92.96L375.66,90.4L383.93,89.11L385.69,86.55L385.69,85.27L385.69,76.29L386.79,75L387.23,73.72L388.83,72.44L397.11,71.16L398.12,69.87L407.98,68.59L408.71,67.31L419.25,66.03L421.16,64.74L422.17,62.18L422.76,60.89L425.17,59.61L425.3,58.33L431.24,57.05L431.24,55.76L431.36,54.48L441.2,53.2L443.12,50.63L449.7,49.35L466.43,46.78L468.69,45.5L468.72,41.65L470.85,40.37L485.45,39.09L485.92,37.81L490.08,36.52L490.08,35.24L490.08,32.68L495.17,31.39L495.17,30.11L506.9,28.83L507.51,24.98L513.52,23.7L522.25,19.85L524.71,18.57L540,16" style="vector-effect: none; fill: none; stroke: rgb(99, 110, 250); stroke-opacity: 1; stroke-width: 2px; opacity: 1;"/></g><g class="points"/><g class="text"/></g></g></g></g><g class="zerolinelayer-above"/><path class="xlines-above crisp" d="M0,0" style="fill: none;"/><path class="ylines-above crisp" d="M0,0" style="fill: none;"/><g class="overlines-above"/><g class="xaxislayer-above"><g class="xtick"><text text-anchor="middle" x="0" y="439" transform="translate(101.38,0)" style="font-family: 'Open Sans'; font-size: 18px; fill: rgb(255, 255, 255); fill-opacity: 1; white-space: pre;">2016</text></g><g class="xtick"><text text-anchor="middle" x="0" y="439" style="font-family: 'Open Sans'; font-size: 18px; fill: rgb(255, 255, 255); fill-opacity: 1; white-space: pre;" transform="translate(206.03,0)">2018</text></g><g class="xtick"><text text-anchor="middle" x="0" y="439" style="font-family: 'Open Sans'; font-size: 18px; fill: rgb(255, 255, 255); fill-opacity: 1; white-space: pre;" transform="translate(310.53999999999996,0)">2020</text></g><g class="xtick"><text text-anchor="middle" x="0" y="439" style="font-family: 'Open Sans'; font-size: 18px; fill: rgb(255, 255, 255); fill-opacity: 1; white-space: pre;" transform="translate(415.2,0)">2022</text></g><g class="xtick"><text text-anchor="middle" x="0" y="439" style="font-family: 'Open Sans'; font-size: 18px; fill: rgb(255, 255, 255); fill-opacity: 1; white-space: pre;" transform="translate(519.71,0)">2024</text></g></g><g class="yaxislayer-above"><g class="ytick"><text text-anchor="end" x="79" y="6.3" transform="translate(0,420)" style="font-family: 'Open Sans'; font-size: 18px; fill: rgb(255, 255, 255); fill-opacity: 1; white-space: pre;">0</text></g><g class="ytick"><text text-anchor="end" x="79" y="6.3" style="font-family: 'Open Sans'; font-size: 18px; fill: rgb(255, 255, 255); fill-opacity: 1; white-space: pre;" transform="translate(0,355.86)">50</text></g><g class="ytick"><text text-anchor="end" x="79" y="6.3" style="font-family: 'Open Sans'; font-size: 18px; fill: rgb(255, 255, 255); fill-opacity: 1; white-space: pre;" transform="translate(0,291.73)">100</text></g><g class="ytick"><text text-anchor="end" x="79" y="6.3" style="font-family: 'Open Sans'; font-size: 18px; fill: rgb(255, 255, 255); fill-opacity: 1; white-space: pre;" transform="translate(0,227.59)">150</text></g><g class="ytick"><text text-anchor="end" x="79" y="6.3" style="font-family: 'Open Sans'; font-size: 18px; fill: rgb(255, 255, 255); fill-opacity: 1; white-space: pre;" transform="translate(0,163.46)">200</text></g></g><g class="overaxes-above"/></g></g><g class="polarlayer"/><g class="smithlayer"/><g class="ternarylayer"/><g class="geolayer"/><g class="funnelarealayer"/><g class="pielayer"/><g class="iciclelayer"/><g class="treemaplayer"/><g class="sunburstlayer"/><g class="glimages"/><defs id="topdefs-f6ce1c"><g class="clips"/></defs><g class="layer-above"><g class="imagelayer"/><g class="shapelayer"/></g><g class="infolayer"><g class="g-gtitle"><text class="gtitle" x="35" y="50" text-anchor="start" dy="0em" style="opacity: 1; font-family: 'Open Sans'; font-size: 25px; fill: rgb(255, 255, 255); fill-opacity: 1; white-space: pre;">MultiQC code contributors over time</text></g><g class="g-xtitle"><text class="xtitle" x="350" y="472.9" text-anchor="middle" style="opacity: 1; font-family: 'Open Sans'; font-size: 22px; fill: rgb(255, 255, 255); fill-opacity: 1; white-space: pre;">Date</text></g><g class="g-ytitle"><text class="ytitle" transform="rotate(-90,29.799999999999997,260)" x="29.799999999999997" y="260" text-anchor="middle" style="opacity: 1; font-family: 'Open Sans'; font-size: 22px; fill: rgb(255, 255, 255); fill-opacity: 1; white-space: pre;">Number of contributors</text></g></g></svg>