<svg class="main-svg" xmlns="http://www.w3.org/2000/svg" xmlns:xlink="http://www.w3.org/1999/xlink" width="700" height="500" style="" viewBox="0 0 700 500"><rect x="0" y="0" width="700" height="500" style="fill: rgb(0, 0, 0); fill-opacity: 0;"/><defs id="defs-b1350f"><g class="clips"><clipPath id="clipb1350fxyplot" class="plotclip"><rect width="540" height="320"/></clipPath><clipPath class="axesclip" id="clipb1350fx"><rect x="80" y="0" width="540" height="500"/></clipPath><clipPath class="axesclip" id="clipb1350fy"><rect x="0" y="100" width="700" height="320"/></clipPath><clipPath class="axesclip" id="clipb1350fxy"><rect x="80" y="100" width="540" height="320"/></clipPath></g><g class="gradients"/><g class="patterns"/></defs><g class="bglayer"><rect class="bg" x="80" y="100" width="540" height="320" style="fill: rgb(0, 0, 0); fill-opacity: 0; stroke-width: 0;"/></g><g class="layer-below"><g class="imagelayer"/><g class="shapelayer"/></g><g class="cartesianlayer"><g class="subplot xy"><g class="layer-subplot"><g class="shapelayer"/><g class="imagelayer"/></g><g class="minor-gridlayer"><g class="x"/><g class="y"/></g><g class="gridlayer"><g class="x"><path class="xgrid crisp" transform="translate(101.21000000000001,0)" d="M0,100v320" style="stroke: rgb(255, 255, 255); stroke-opacity: 1; stroke-width: 1px;"/><path class="xgrid crisp" transform="translate(202.53,0)" d="M0,100v320" style="stroke: rgb(255, 255, 255); stroke-opacity: 1; stroke-width: 1px;"/><path class="xgrid crisp" transform="translate(303.71000000000004,0)" d="M0,100v320" style="stroke: rgb(255, 255, 255); stroke-opacity: 1; stroke-width: 1px;"/><path class="xgrid crisp" transform="translate(405.03,0)" d="M0,100v320" style="stroke: rgb(255, 255, 255); stroke-opacity: 1; stroke-width: 1px;"/><path class="xgrid crisp" transform="translate(506.21,0)" d="M0,100v320" style="stroke: rgb(255, 255, 255); stroke-opacity: 1; stroke-width: 1px;"/><path class="xgrid crisp" transform="translate(607.53,0)" d="M0,100v320" style="stroke: rgb(255, 255, 255); stroke-opacity: 1; stroke-width: 1px;"/></g><g class="y"><path class="ygrid crisp" transform="translate(0,353.90999999999997)" d="M80,0h540" style="stroke: rgb(255, 255, 255); stroke-opacity: 1; stroke-width: 1px;"/><path class="ygrid crisp" transform="translate(0,287.83000000000004)" d="M80,0h540" style="stroke: rgb(255, 255, 255); stroke-opacity: 1; stroke-width: 1px;"/><path class="ygrid crisp" transform="translate(0,221.74)" d="M80,0h540" style="stroke: rgb(255, 255, 255); stroke-opacity: 1; stroke-width: 1px;"/><path class="ygrid crisp" transform="translate(0,155.65)" d="M80,0h540" style="stroke: rgb(255, 255, 255); stroke-opacity: 1; stroke-width: 1px;"/></g></g><g class="zerolinelayer"><path class="yzl zl crisp" transform="translate(0,420)" d="M80,0h540" style="stroke: rgb(255, 255, 255); stroke-opacity: 1; stroke-width: 2px;"/></g><g class="layer-between"><g class="shapelayer"/><g class="imagelayer"/></g><path class="xlines-below"/><path class="ylines-below"/><g class="overlines-below"/><g class="xaxislayer-below"/><g class="yaxislayer-below"/><g class="overaxes-below"/><g class="overplot"><g class="xy" transform="translate(80,100)" clip-path="url(#clipb1350fxyplot)"><g class="scatterlayer mlayer"><g class="trace scatter tracebd0415" style="stroke-miterlimit: 2;"><g class="fills"><g><path class="js-fill" d="M540,320L0,320L0,286.96L4.3,49.04L8.45,174.61L12.75,154.78L16.91,260.52L21.21,267.13L25.5,240.7L29.52,240.7L33.82,174.61L37.98,168L42.27,194.43L46.43,207.65L50.73,247.3L55.03,194.43L59.18,207.65L63.48,207.65L67.64,240.7L71.94,253.91L76.23,234.09L80.11,194.43L84.41,234.09L88.57,253.91L92.86,234.09L97.02,134.96L101.32,220.87L105.62,227.48L109.77,273.74L114.07,247.3L118.23,240.7L122.53,201.04L126.82,227.48L130.7,240.7L135,201.04L139.16,214.26L143.45,273.74L147.61,220.87L151.91,267.13L156.21,227.48L160.36,247.3L168.82,260.52L173.12,240.7L177.41,280.35L181.29,201.04L185.59,201.04L189.75,247.3L194.05,293.57L198.2,234.09L202.5,267.13L206.8,260.52L210.95,227.48L215.25,181.22L219.41,234.09L223.71,253.91L228,273.74L232.02,207.65L236.32,227.48L240.48,181.22L244.77,207.65L248.93,201.04L253.23,227.48L257.53,207.65L261.68,207.65L265.98,260.52L270.14,293.57L274.44,286.96L278.73,267.13L282.61,207.65L286.91,253.91L291.07,227.48L295.36,168L299.52,214.26L303.82,227.48L308.12,227.48L312.27,260.52L316.57,247.3L320.73,280.35L325.03,273.74L329.32,201.04L333.2,260.52L337.5,267.13L341.66,194.43L345.95,260.52L350.11,253.91L354.41,273.74L358.71,234.09L362.86,214.26L367.16,273.74L371.32,273.74L375.62,247.3L379.91,220.87L383.79,214.26L388.09,240.7L392.25,260.52L396.55,260.52L400.7,234.09L405,201.04L409.3,141.57L413.45,168L417.75,187.83L421.91,234.09L426.21,240.7L430.5,16L434.52,187.83L438.82,174.61L442.98,134.96L447.27,174.61L451.43,194.43L455.73,121.74L460.03,148.17L464.18,168L468.48,194.43L472.64,234.09L476.94,234.09L485.11,220.87L489.41,234.09L493.57,240.7L497.86,240.7L502.02,194.43L506.32,240.7L510.62,234.09L514.77,247.3L519.07,267.13L523.23,181.22L527.53,273.74L531.82,260.52L535.7,267.13L540,260.52" style="fill: rgb(255, 127, 14); fill-opacity: 0.5; stroke-width: 0;"/></g></g><g class="errorbars"/><g class="lines"><path class="js-line" d="M0,286.96L4.3,49.04L8.45,174.61L12.75,154.78L16.91,260.52L21.21,267.13L25.5,240.7L29.52,240.7L33.82,174.61L37.98,168L42.27,194.43L46.43,207.65L50.73,247.3L55.03,194.43L59.18,207.65L63.48,207.65L67.64,240.7L71.94,253.91L76.23,234.09L80.11,194.43L84.41,234.09L88.57,253.91L92.86,234.09L97.02,134.96L101.32,220.87L105.62,227.48L109.77,273.74L114.07,247.3L118.23,240.7L122.53,201.04L126.82,227.48L130.7,240.7L135,201.04L139.16,214.26L143.45,273.74L147.61,220.87L151.91,267.13L156.21,227.48L160.36,247.3L168.82,260.52L173.12,240.7L177.41,280.35L181.29,201.04L185.59,201.04L189.75,247.3L194.05,293.57L198.2,234.09L202.5,267.13L206.8,260.52L210.95,227.48L215.25,181.22L219.41,234.09L223.71,253.91L228,273.74L232.02,207.65L236.32,227.48L240.48,181.22L244.77,207.65L248.93,201.04L253.23,227.48L257.53,207.65L261.68,207.65L265.98,260.52L270.14,293.57L274.44,286.96L278.73,267.13L282.61,207.65L286.91,253.91L291.07,227.48L295.36,168L299.52,214.26L303.82,227.48L308.12,227.48L312.27,260.52L316.57,247.3L320.73,280.35L325.03,273.74L329.32,201.04L333.2,260.52L337.5,267.13L341.66,194.43L345.95,260.52L350.11,253.91L354.41,273.74L358.71,234.09L362.86,214.26L367.16,273.74L371.32,273.74L375.62,247.3L379.91,220.87L383.79,214.26L388.09,240.7L392.25,260.52L396.55,260.52L400.7,234.09L405,201.04L409.3,141.57L413.45,168L417.75,187.83L421.91,234.09L426.21,240.7L430.5,16L434.52,187.83L438.82,174.61L442.98,134.96L447.27,174.61L451.43,194.43L455.73,121.74L460.03,148.17L464.18,168L468.48,194.43L472.64,234.09L476.94,234.09L485.11,220.87L489.41,234.09L493.57,240.7L497.86,240.7L502.02,194.43L506.32,240.7L510.62,234.09L514.77,247.3L519.07,267.13L523.23,181.22L527.53,273.74L531.82,260.52L535.7,267.13L540,260.52" style="vector-effect: none; fill: none; stroke: rgb(255, 127, 14); stroke-opacity: 1; stroke-width: 2px; opacity: 1;"/></g><g class="points"/><g class="text"/></g></g></g></g><g class="zerolinelayer-above"/><path class="xlines-above crisp" d="M0,0" style="fill: none;"/><path class="ylines-above crisp" d="M0,0" style="fill: none;"/><g class="overlines-above"/><g class="xaxislayer-above"><g class="xtick"><text text-anchor="middle" x="0" y="439" transform="translate(101.21000000000001,0)" style="font-family: 'Open Sans'; font-size: 18px; fill: rgb(0, 0, 0); fill-opacity: 1; white-space: pre;">2016</text></g><g class="xtick"><text text-anchor="middle" x="0" y="439" style="font-family: 'Open Sans'; font-size: 18px; fill: rgb(0, 0, 0); fill-opacity: 1; white-space: pre;" transform="translate(202.53,0)">2018</text></g><g class="xtick"><text text-anchor="middle" x="0" y="439" style="font-family: 'Open Sans'; font-size: 18px; fill: rgb(0, 0, 0); fill-opacity: 1; white-space: pre;" transform="translate(303.71000000000004,0)">2020</text></g><g class="xtick"><text text-anchor="middle" x="0" y="439" style="font-family: 'Open Sans'; font-size: 18px; fill: rgb(0, 0, 0); fill-opacity: 1; white-space: pre;" transform="translate(405.03,0)">2022</text></g><g class="xtick"><text text-anchor="middle" x="0" y="439" style="font-family: 'Open Sans'; font-size: 18px; fill: rgb(0, 0, 0); fill-opacity: 1; white-space: pre;" transform="translate(506.21,0)">2024</text></g><g class="xtick"><text text-anchor="middle" x="0" y="439" style="font-family: 'Open Sans'; font-size: 18px; fill: rgb(0, 0, 0); fill-opacity: 1; white-space: pre;" transform="translate(607.53,0)">2026</text></g></g><g class="yaxislayer-above"><g class="ytick"><text text-anchor="end" x="79" y="6.3" transform="translate(0,420)" style="font-family: 'Open Sans'; font-size: 18px; fill: rgb(0, 0, 0); fill-opacity: 1; white-space: pre;">0</text></g><g class="ytick"><text text-anchor="end" x="79" y="6.3" style="font-family: 'Open Sans'; font-size: 18px; fill: rgb(0, 0, 0); fill-opacity: 1; white-space: pre;" transform="translate(0,353.90999999999997)">10</text></g><g class="ytick"><text text-anchor="end" x="79" y="6.3" style="font-family: 'Open Sans'; font-size: 18px; fill: rgb(0, 0, 0); fill-opacity: 1; white-space: pre;" transform="translate(0,287.83000000000004)">20</text></g><g class="ytick"><text text-anchor="end" x="79" y="6.3" style="font-family: 'Open Sans'; font-size: 18px; fill: rgb(0, 0, 0); fill-opacity: 1; white-space: pre;" transform="translate(0,221.74)">30</text></g><g class="ytick"><text text-anchor="end" x="79" y="6.3" style="font-family: 'Open Sans'; font-size: 18px; fill: rgb(0, 0, 0); fill-opacity: 1; white-space: pre;" transform="translate(0,155.65)">40</text></g></g><g class="overaxes-above"/></g></g><g class="polarlayer"/><g class="smithlayer"/><g class="ternarylayer"/><g class="geolayer"/><g class="funnelarealayer"/><g class="pielayer"/><g class="iciclelayer"/><g class="treemaplayer"/><g class="sunburstlayer"/><g class="glimages"/><defs id="topdefs-b1350f"><g class="clips"/></defs><g class="layer-above"><g class="imagelayer"/><g class="shapelayer"/></g><g class="infolayer"><g class="g-gtitle"><text class="gtitle" x="35" y="50" text-anchor="start" dy="0em" style="opacity: 1; font-family: 'Open Sans'; font-size: 25px; fill: rgb(0, 0, 0); fill-opacity: 1; white-space: pre;">MultiQC/MultiQC - New Issues Per Month</text></g><g class="g-xtitle"><text class="xtitle" x="350" y="472.9" text-anchor="middle" style="opacity: 1; font-family: 'Open Sans'; font-size: 22px; fill: rgb(0, 0, 0); fill-opacity: 1; white-space: pre;">Month</text></g><g class="g-ytitle"><text class="ytitle" transform="rotate(-90,38.8,260)" x="38.8" y="260" text-anchor="middle" style="opacity: 1; font-family: 'Open Sans'; font-size: 22px; fill: rgb(0, 0, 0); fill-opacity: 1; white-space: pre;">New Issues Created</text></g></g></svg>