<svg class="main-svg" xmlns="http://www.w3.org/2000/svg" xmlns:xlink="http://www.w3.org/1999/xlink" width="700" height="500" style="" viewBox="0 0 700 500"><rect x="0" y="0" width="700" height="500" style="fill: rgb(0, 0, 0); fill-opacity: 0;"/><defs id="defs-5176ad"><g class="clips"><clipPath id="clip5176adxyplot" class="plotclip"><rect width="540" height="320"/></clipPath><clipPath class="axesclip" id="clip5176adx"><rect x="80" y="0" width="540" height="500"/></clipPath><clipPath class="axesclip" id="clip5176ady"><rect x="0" y="100" width="700" height="320"/></clipPath><clipPath class="axesclip" id="clip5176adxy"><rect x="80" y="100" width="540" height="320"/></clipPath></g><g class="gradients"/><g class="patterns"/></defs><g class="bglayer"><rect class="bg" x="80" y="100" width="540" height="320" style="fill: rgb(0, 0, 0); fill-opacity: 0; stroke-width: 0;"/></g><g class="layer-below"><g class="imagelayer"/><g class="shapelayer"/></g><g class="cartesianlayer"><g class="subplot xy"><g class="layer-subplot"><g class="shapelayer"/><g class="imagelayer"/></g><g class="minor-gridlayer"><g class="x"/><g class="y"/></g><g class="gridlayer"><g class="x"><path class="xgrid crisp" transform="translate(100.86,0)" d="M0,100v320" style="stroke: rgb(255, 255, 255); stroke-opacity: 1; stroke-width: 1px;"/><path class="xgrid crisp" transform="translate(204.39,0)" d="M0,100v320" style="stroke: rgb(255, 255, 255); stroke-opacity: 1; stroke-width: 1px;"/><path class="xgrid crisp" transform="translate(307.77,0)" d="M0,100v320" style="stroke: rgb(255, 255, 255); stroke-opacity: 1; stroke-width: 1px;"/><path class="xgrid crisp" transform="translate(411.29,0)" d="M0,100v320" style="stroke: rgb(255, 255, 255); stroke-opacity: 1; stroke-width: 1px;"/><path class="xgrid crisp" transform="translate(514.6800000000001,0)" d="M0,100v320" style="stroke: rgb(255, 255, 255); stroke-opacity: 1; stroke-width: 1px;"/><path class="xgrid crisp" transform="translate(618.2,0)" d="M0,100v320" style="stroke: rgb(255, 255, 255); stroke-opacity: 1; stroke-width: 1px;"/></g><g class="y"><path class="ygrid crisp" transform="translate(0,356.13)" d="M80,0h540" style="stroke: rgb(255, 255, 255); stroke-opacity: 1; stroke-width: 1px;"/><path class="ygrid crisp" transform="translate(0,292.27)" d="M80,0h540" style="stroke: rgb(255, 255, 255); stroke-opacity: 1; stroke-width: 1px;"/><path class="ygrid crisp" transform="translate(0,228.4)" d="M80,0h540" style="stroke: rgb(255, 255, 255); stroke-opacity: 1; stroke-width: 1px;"/><path class="ygrid crisp" transform="translate(0,164.54000000000002)" d="M80,0h540" style="stroke: rgb(255, 255, 255); stroke-opacity: 1; stroke-width: 1px;"/></g></g><g class="zerolinelayer"><path class="yzl zl crisp" transform="translate(0,420)" d="M80,0h540" style="stroke: rgb(255, 255, 255); stroke-opacity: 1; stroke-width: 2px;"/></g><g class="layer-between"><g class="shapelayer"/><g class="imagelayer"/></g><path class="xlines-below"/><path class="ylines-below"/><g class="overlines-below"/><g class="xaxislayer-below"/><g class="yaxislayer-below"/><g class="overaxes-below"/><g class="overplot"><g class="xy" transform="translate(80,100)" clip-path="url(#clip5176adxyplot)"><g class="scatterlayer mlayer"><g class="trace scatter tracef1372a" style="stroke-miterlimit: 2;"><g class="fills"><g><path class="js-fill" d="M540,320L0,320L0,318.72L0,316.17L0.56,317.45L1.83,318.72L1.95,317.45L2.97,318.72L3.8,312.34L3.82,313.61L4.51,312.34L4.93,307.23L5.1,308.5L5.48,309.78L5.65,305.95L5.94,311.06L6.08,308.5L6.38,309.78L7.06,298.29L7.18,297.01L7.35,295.73L7.61,298.29L7.62,299.56L7.63,300.84L7.79,290.62L8.49,289.34L8.87,298.29L8.88,299.56L9.61,308.5L9.62,307.23L9.74,305.95L10.03,302.12L10.03,300.84L10.47,298.29L10.5,302.12L10.89,303.39L10.91,302.12L11.47,305.95L11.58,304.67L11.73,303.39L12.7,285.51L12.74,291.9L12.74,293.18L12.86,290.62L13.17,294.45L13.35,291.9L13.58,290.62L13.98,284.24L14.13,288.07L14.54,286.79L14.73,285.51L14.86,288.07L15.56,289.34L15.73,293.18L16.92,291.9L17.53,289.34L17.65,288.07L18.38,282.96L18.39,284.24L18.52,282.96L18.96,284.24L21.5,282.96L21.51,284.24L21.91,280.4L21.92,282.96L23.45,281.68L23.64,282.96L23.79,281.68L24.63,280.4L25.35,277.85L25.46,279.13L25.77,277.85L26.52,286.79L26.58,285.51L26.87,281.68L27.3,284.24L27.32,285.51L27.46,284.24L27.71,285.51L28.88,286.79L30.33,282.96L30.55,284.24L30.59,288.07L30.59,288.07L31.39,286.79L31.86,290.62L31.86,290.62L32.28,289.34L32.48,295.73L33.38,297.01L34.08,294.45L34.08,295.73L34.22,297.01L35.11,293.18L35.23,294.45L35.84,295.73L36.21,294.45L36.22,295.73L36.36,289.34L36.64,290.62L37.34,289.34L37.57,285.51L37.76,293.18L38.27,294.45L38.34,293.18L38.78,297.01L38.83,298.29L39.06,293.18L39.35,294.45L39.65,295.73L40.5,289.34L40.63,293.18L40.97,291.9L41.18,289.34L41.2,291.9L41.34,293.18L42.74,285.51L43.43,284.24L43.72,282.96L44.33,284.24L45.01,285.51L45.29,284.24L45.31,288.07L45.77,282.96L46.04,284.24L46.1,281.68L46.42,288.07L46.57,289.34L47.15,293.18L47.29,290.62L47.3,289.34L47.4,293.18L47.72,291.9L48.27,293.18L48.28,297.01L48.57,294.45L49.14,295.73L49.53,294.45L49.53,295.73L50.23,294.45L50.23,295.73L50.42,293.18L50.54,293.18L51.37,291.9L52.54,289.34L53.1,290.62L53.1,291.9L53.53,288.07L53.68,290.62L54.13,289.34L54.23,288.07L54.54,291.9L55.37,290.62L56.7,285.51L57.2,284.24L58.44,272.74L58.51,275.29L58.61,276.57L58.61,277.85L59.2,275.29L59.37,274.02L59.49,272.74L59.51,274.02L61.07,272.74L62.28,265.08L62.4,266.35L63.3,263.8L63.85,262.52L64.55,251.03L64.58,253.58L65.32,252.3L65.97,254.86L65.97,256.13L66.28,262.52L66.98,261.24L68.24,257.41L68.99,256.13L69.24,263.8L70.14,262.52L71.24,275.29L71.39,274.02L71.92,272.74L71.92,271.46L72.31,271.46L72.77,272.74L73.85,268.91L73.85,270.18L74.29,268.91L74.31,267.63L74.36,268.91L75.22,267.63L76,266.35L76.51,265.08L79.83,254.86L79.83,256.13L80.29,259.97L80.42,256.13L80.82,257.41L81.11,258.69L81.18,254.86L81.38,257.41L82.12,258.69L82.44,252.3L82.45,253.58L83.59,252.3L83.8,253.58L83.99,252.3L84.23,251.03L84.26,249.75L84.97,253.58L85.1,252.3L85.24,253.58L85.81,249.75L85.82,251.03L85.96,252.3L86.36,257.41L86.77,256.13L87.11,254.86L87.12,252.3L87.23,256.13L88.19,254.86L88.22,253.58L88.89,256.13L89.06,254.86L89.87,257.41L90.2,256.13L90.78,257.41L90.86,258.69L91.18,263.8L91.72,262.52L92.03,271.46L92.32,268.91L92.78,267.63L93.84,263.8L93.98,265.08L93.98,266.35L95.84,258.69L95.86,259.97L97.96,252.3L98.1,253.58L98.1,254.86L98.99,257.41L99.1,258.69L99.96,270.18L100.27,268.91L100.67,271.46L100.68,270.18L100.77,268.91L100.81,271.46L101.23,258.69L101.24,258.69L101.66,257.41L101.97,254.86L102.24,261.24L102.63,259.97L103.63,257.41L103.63,258.69L103.63,259.97L103.76,262.52L104.2,261.24L104.69,259.97L105.04,263.8L105.18,261.24L105.58,259.97L105.6,261.24L106.16,258.69L106.18,259.97L106.77,258.69L106.88,257.41L106.88,258.69L107.57,259.97L107.57,261.24L108.18,259.97L108.74,258.69L109.15,254.86L109.57,253.58L110.94,247.19L110.98,248.47L111.05,249.75L113.12,245.92L113.69,247.19L115.09,243.36L115.56,244.64L115.85,243.36L116.69,274.02L116.8,272.74L117.42,270.18L117.69,271.46L118.1,270.18L118.1,271.46L119.09,270.18L119.49,271.46L119.8,270.18L119.81,268.91L120.5,267.63L120.75,268.91L120.76,271.46L121.5,265.08L121.5,266.35L121.73,265.08L122.54,261.24L122.78,262.52L122.91,263.8L123.03,267.63L124.78,266.35L125,267.63L125.05,266.35L125.57,265.08L126.01,259.97L126.8,258.69L128.5,253.58L128.88,254.86L129.35,252.3L129.43,253.58L129.43,254.86L129.58,261.24L129.95,258.69L130.48,257.41L131,254.86L131.24,256.13L131.85,261.24L132.56,259.97L133.54,254.86L133.92,256.13L134.61,254.86L135.68,253.58L136.83,249.75L137.64,251.03L137.64,249.75L138.38,249.75L138.45,251.03L138.97,249.75L139.32,248.47L139.33,251.03L139.87,245.92L139.87,245.92L140.32,244.64L140.32,242.08L140.89,243.36L141.24,242.08L141.75,239.53L141.78,238.25L141.85,236.97L141.9,240.81L142.45,239.53L142.48,240.81L142.89,238.25L143.52,239.53L143.92,235.7L144.17,245.92L144.17,247.19L144.74,244.64L144.83,243.36L145.58,245.92L146.76,244.64L147.42,243.36L147.53,245.92L148.35,244.64L148.36,245.92L149.02,242.08L149.08,243.36L149.64,244.64L151.38,242.08L151.39,243.36L152.5,236.97L153.39,235.7L153.64,233.14L154.16,234.42L154.17,233.14L154.83,239.53L155.2,238.25L156.4,236.97L156.73,238.25L159.15,231.87L159.29,233.14L159.81,228.03L160.1,226.76L161.42,219.09L162.15,217.82L162.15,219.09L162.54,217.82L163.63,216.54L163.69,215.26L164.15,220.37L164.58,219.09L165.64,216.54L165.64,215.26L165.66,213.98L165.87,222.92L167.15,221.65L167.4,219.09L168.5,217.82L169.23,222.92L169.59,221.65L172.5,211.43L172.56,210.15L172.61,211.43L174.36,210.15L174.6,215.26L174.61,216.54L174.62,220.37L175.03,217.82L176.99,216.54L177.02,219.09L177.17,217.82L177.91,216.54L178.43,211.43L178.44,212.71L178.97,213.98L179.32,215.26L180.23,210.15L180.29,211.43L180.42,212.71L181.27,211.43L181.27,212.71L184.4,207.6L184.5,206.32L185.07,202.49L185.08,203.76L185.5,202.49L185.53,205.04L186.19,203.76L186.37,202.49L187.06,203.76L187.36,202.49L187.36,201.21L188.1,201.21L188.28,199.93L189.05,197.38L189.19,196.1L189.37,197.38L189.51,194.82L189.53,196.1L190.33,194.82L191.71,185.88L191.71,188.44L191.98,187.16L192.31,184.61L192.63,185.88L193.15,184.61L193.35,182.05L193.82,184.61L194.08,183.33L194.46,180.77L195.03,179.5L196.2,178.22L196.2,179.5L196.28,178.22L196.31,179.5L197.66,178.22L198.4,179.5L199.13,178.22L199.36,176.94L199.36,178.22L201.23,176.94L201.93,175.66L201.94,176.94L201.94,178.22L202.33,176.94L203.17,178.22L203.17,179.5L203.87,179.5L204.04,178.22L205.02,175.66L205.75,174.39L206.4,170.55L206.77,171.83L208.17,166.72L208.49,168L209.92,166.72L210.15,165.45L211.15,164.17L211.27,165.45L211.99,164.17L213.8,160.34L214.1,161.61L214.46,157.78L215.21,156.5L215.64,159.06L215.67,157.78L215.95,156.5L216.7,153.95L216.91,155.23L216.95,156.5L216.97,160.34L217.69,157.78L217.71,156.5L218.14,155.23L218.64,162.89L218.66,161.61L219.39,160.34L219.61,161.61L220.08,157.78L220.21,159.06L221.04,175.66L221.05,174.39L221.11,173.11L222,189.71L222.58,188.44L222.75,189.71L223.18,184.61L223.18,185.88L223.34,187.16L223.62,188.44L223.78,185.88L223.89,184.61L224.86,179.5L225.16,178.22L225.64,174.39L225.68,173.11L225.79,178.22L226.71,176.94L228.73,174.39L228.75,173.11L229.35,166.72L229.72,165.45L230.17,166.72L231.83,165.45L232.99,162.89L233.06,161.61L233.92,160.34L234.33,161.61L235.07,159.06L236.93,157.78L237.51,155.23L237.59,153.95L238.48,150.12L238.61,151.39L238.8,150.12L239.95,148.84L240.27,145.01L240.29,152.67L240.29,153.95L240.29,155.23L240.85,150.12L241.28,148.84L241.49,150.12L242.45,148.84L242.61,150.12L242.85,148.84L243.44,150.12L243.51,148.84L243.69,153.95L244.12,151.39L244.39,152.67L244.7,151.39L244.72,153.95L244.82,153.95L244.83,155.23L245.85,151.39L246.29,150.12L246.7,147.56L246.84,153.95L247.21,152.67L247.52,151.39L247.67,152.67L247.7,153.95L247.79,152.67L248.1,155.23L248.41,156.5L248.5,153.95L248.53,164.17L248.54,165.45L249.35,187.16L249.48,185.88L249.79,187.16L250.34,185.88L251.37,180.77L251.47,182.05L252.78,173.11L252.92,174.39L253.2,173.11L254.44,169.28L254.45,170.55L254.59,171.83L255.18,168L255.49,166.72L255.69,165.45L256.34,166.72L256.96,160.34L257.42,159.06L257.9,153.95L257.92,155.23L258.45,156.5L259.27,151.39L259.46,150.12L260.72,142.45L261.16,141.18L261.36,139.9L262.41,138.62L263.83,130.96L264.25,129.68L265.24,125.85L265.28,127.13L266.64,120.74L267.3,119.46L269.29,113.08L269.3,114.35L272.29,97.75L272.51,99.03L272.52,101.58L273.45,100.3L273.45,101.58L274.17,97.75L274.8,96.47L275.09,97.75L276.26,96.47L276.56,92.64L279.01,93.92L279.18,123.29L280.09,122.02L281.27,123.29L281.43,122.02L281.43,120.74L281.51,124.57L281.69,122.02L282.29,123.29L285.21,122.02L285.94,120.74L286.5,116.91L286.51,115.63L286.63,118.18L287.16,116.91L287.27,115.63L287.32,116.91L288.26,115.63L289.45,122.02L289.56,120.74L289.75,119.46L289.78,122.02L290.21,119.46L290.45,118.18L291.21,115.63L291.3,114.35L291.69,111.8L292.05,113.08L292.05,114.35L292.34,127.13L293.29,125.85L293.46,127.13L293.97,124.57L293.98,125.85L293.98,127.13L294.99,124.57L295.17,125.85L295.28,123.29L295.72,124.57L296.1,125.85L296.57,127.13L297.08,125.85L298.55,120.74L298.86,119.46L299.19,122.02L299.34,116.91L299.46,118.18L299.51,116.91L300.07,118.18L301.21,116.91L301.23,118.18L301.78,115.63L302.13,114.35L302.45,109.24L302.72,110.52L303.1,111.8L303.1,116.91L303.3,114.35L304.33,113.08L305.06,124.57L305.06,123.29L305.17,122.02L305.19,120.74L305.51,132.24L305.65,132.24L305.75,133.51L305.8,142.45L306.5,139.9L306.86,141.18L307.57,136.07L307.73,137.34L308.41,134.79L308.95,133.51L308.98,134.79L309.25,130.96L310.08,129.68L310.31,130.96L310.31,129.68L310.94,128.4L311.26,132.24L311.37,128.4L311.83,127.13L312.22,123.29L312.86,122.02L313.06,120.74L314.39,119.46L315.06,115.63L315.12,114.35L316.34,106.69L317.33,105.41L320.04,96.47L321.15,95.19L321.93,92.64L322.75,91.36L322.89,88.81L323.63,90.08L323.99,109.24L324.19,107.97L324.47,109.24L324.76,107.97L324.77,110.52L325.12,109.24L325.76,110.52L326.27,109.24L327.01,110.52L328.14,106.69L329.09,105.41L330.38,104.13L330.72,105.41L330.77,106.69L331.78,105.41L332.3,102.86L332.76,104.13L332.94,102.86L333.37,104.13L333.4,105.41L333.4,106.69L334.08,104.13L334.76,105.41L335.75,141.18L336.03,139.9L336.2,136.07L336.65,141.18L336.8,142.45L338.25,130.96L338.6,129.68L338.72,132.24L339.19,130.96L339.62,129.68L340.61,132.24L341,130.96L341.98,129.68L341.99,130.96L342.6,129.68L342.82,128.4L343.17,127.13L343.58,128.4L343.96,127.13L344.55,125.85L344.8,124.57L345,122.02L346.11,120.74L346.39,119.46L347.48,118.18L349.09,113.08L349.09,114.35L349.12,115.63L350.08,110.52L350.61,111.8L351.45,106.69L351.46,107.97L351.95,106.69L352,107.97L352.62,105.41L352.62,104.13L352.73,101.58L354.04,100.3L354.89,97.75L354.92,96.47L355.74,93.92L356.07,92.64L357.01,97.75L357.39,96.47L357.58,95.19L359.09,92.64L359.31,93.92L360.4,91.36L360.97,90.08L362.52,84.97L363.13,83.7L363.5,82.42L363.71,83.7L363.77,84.97L363.79,83.7L364.67,82.42L365.79,79.87L365.9,78.59L366.89,77.31L366.91,78.59L366.98,96.47L367.62,92.64L367.88,93.92L368.5,91.36L368.74,90.08L369.49,91.36L370.4,90.08L371.03,86.25L371.14,87.53L371.42,86.25L372.7,83.7L373.54,82.42L374.16,79.87L374.16,78.59L374.16,72.2L375.42,70.92L376.45,67.09L377.95,68.37L377.95,70.92L378.37,67.09L378.37,68.37L378.72,67.09L379.22,68.37L379.54,67.09L379.55,65.82L379.8,67.09L380.67,65.82L380.81,64.54L380.82,65.82L382.13,67.09L382.76,65.82L382.82,67.09L382.99,68.37L382.99,69.65L383.6,69.65L383.91,70.92L384.11,84.97L385.09,86.25L386.11,83.7L386.62,82.42L386.75,79.87L386.79,83.7L387.21,84.97L388.42,76.03L388.43,77.31L388.43,76.03L388.45,82.42L388.77,79.87L389.32,78.59L390.62,74.76L391.75,73.48L392.45,69.65L393.16,68.37L393.53,64.54L394.01,67.09L394.26,65.82L395.28,59.43L395.28,60.71L396.71,59.43L397.48,53.04L397.49,55.6L398.31,54.32L398.64,55.6L398.68,54.32L399.18,53.04L399.74,50.49L400.38,51.76L401.33,47.93L401.96,46.66L402.58,44.1L402.8,45.38L402.94,46.66L403.25,47.93L403.46,46.66L404.63,47.93L407.01,38.99L407.29,37.71L408.27,36.44L409,37.71L410.08,33.88L410.16,32.61L410.23,33.88L410.39,28.77L411.01,30.05L411.09,27.5L412.23,26.22L412.39,23.66L412.58,26.22L412.84,27.5L413.23,26.22L413.4,27.5L413.43,28.77L413.7,31.33L414.23,30.05L415.26,22.39L415.27,24.94L415.31,26.22L416.04,23.66L416.05,24.94L416.25,26.22L416.65,27.5L416.9,24.94L417.17,23.66L417.33,24.94L417.44,22.39L417.76,24.94L417.8,26.22L417.9,27.5L418.33,23.66L418.4,22.39L419.44,18.55L419.44,17.28L419.92,16L420,17.28L420.02,18.55L420.34,17.28L420.56,21.11L420.56,22.39L420.99,36.44L421.28,24.94L421.36,26.22L421.97,33.88L422,30.05L422.12,31.33L423.8,22.39L423.86,23.66L424,36.44L424.4,31.33L424.68,30.05L424.72,32.61L425.25,30.05L425.83,28.77L426.47,32.61L426.75,31.33L426.97,30.05L427.12,32.61L427.2,31.33L427.77,30.05L428.41,40.27L428.44,38.99L428.82,37.71L428.89,36.44L429.21,40.27L429.48,38.99L429.82,37.71L430.24,33.88L430.41,36.44L430.95,35.16L431.37,31.33L431.76,32.61L431.77,33.88L432.33,51.76L432.62,53.04L433.25,49.21L434.08,47.93L434.22,51.76L435.2,53.04L436.29,50.49L436.33,49.21L436.49,50.49L436.86,49.21L437.33,47.93L437.78,45.38L437.9,49.21L438.03,47.93L438.28,46.66L438.92,44.1L439.28,45.38L439.89,51.76L440.12,49.21L440.15,47.93L440.6,51.76L440.84,51.76L440.99,50.49L441.38,41.55L441.75,49.21L441.85,47.93L442.13,44.1L442.25,51.76L442.25,53.04L442.84,44.1L442.96,46.66L443.09,45.38L443.45,41.55L443.67,42.82L443.86,44.1L444.1,41.55L444.27,51.76L444.27,53.04L444.56,69.65L444.98,64.54L445.08,65.82L445.09,67.09L445.84,65.82L446.07,63.26L446.13,73.48L446.25,72.2L446.55,70.92L446.65,72.2L447.05,70.92L447.09,72.2L447.2,69.65L447.8,68.37L448.62,63.26L448.78,61.98L449.36,56.87L449.62,59.43L449.64,60.71L449.8,59.43L450.17,65.82L450.75,64.54L450.88,65.82L451.14,63.26L451.31,64.54L451.65,65.82L452.31,55.6L452.61,54.32L452.63,53.04L452.71,56.87L453.07,54.32L453.56,53.04L453.57,54.32L454.15,44.1L454.19,46.66L454.98,45.38L455.47,41.55L456.03,42.82L456.16,40.27L456.44,46.66L456.82,45.38L456.84,44.1L457.15,42.82L457.42,45.38L457.71,44.1L457.89,46.66L458.25,44.1L458.59,45.38L459.12,38.99L459.47,41.55L459.53,42.82L459.66,41.55L459.69,45.38L460.12,42.82L460.55,41.55L460.56,40.27L461.1,51.76L461.12,49.21L461.27,47.93L462.5,51.76L462.69,50.49L462.94,53.04L463.4,51.76L463.65,50.49L464.64,55.6L464.78,53.04L464.82,51.76L464.93,49.21L465.48,53.04L465.48,53.04L465.83,51.76L466.08,47.93L466.46,51.76L466.5,53.04L466.81,51.76L467.64,72.2L467.92,70.92L469.62,55.6L469.71,56.87L469.78,54.32L469.89,65.82L470.18,64.54L470.18,65.82L470.73,64.54L470.75,65.82L471.01,67.09L471.41,74.76L471.7,72.2L471.84,70.92L471.96,65.82L472.59,65.82L472.72,64.54L472.82,63.26L472.85,68.37L473.01,67.09L473.48,68.37L473.75,69.65L474.04,65.82L474.39,64.54L474.69,68.37L474.71,69.65L475.97,65.82L476.68,64.54L476.94,59.43L477.25,64.54L477.55,63.26L478.67,53.04L479.43,54.32L479.95,67.09L480.36,65.82L480.46,68.37L480.8,60.71L480.97,61.98L481.22,60.71L481.69,68.37L482.39,67.09L482.58,65.82L482.9,68.37L482.91,69.65L483.55,67.09L483.8,81.14L483.89,79.87L483.89,77.31L484.45,84.97L484.73,83.7L484.94,84.97L486.4,83.7L486.99,84.97L487.29,83.7L487.74,84.97L487.76,83.7L488.3,82.42L488.3,81.14L488.56,84.97L488.64,83.7L489.26,82.42L489.48,83.7L489.81,82.42L490.2,81.14L490.28,78.59L490.42,82.42L490.71,81.14L491.23,79.87L491.31,78.59L491.74,83.7L491.74,84.97L492.83,81.14L493.22,82.42L493.47,79.87L493.78,81.14L493.78,82.42L493.82,84.97L494.37,84.97L494.55,83.7L495.33,76.03L495.36,78.59L495.37,79.87L495.37,81.14L495.52,78.59L496.37,79.87L496.37,78.59L496.64,78.59L497.8,77.31L498.35,73.48L498.6,76.03L498.69,74.76L499.33,69.65L499.52,68.37L500.17,70.92L500.21,68.37L500.35,67.09L501.17,65.82L501.74,67.09L501.76,69.65L502.3,69.65L502.59,68.37L502.59,67.09L503.3,69.65L503.49,68.37L503.59,67.09L504.5,65.82L505.12,67.09L505.55,65.82L506.3,60.71L506.54,59.43L506.54,60.71L506.71,59.43L507.43,58.15L507.69,60.71L508.14,59.43L508.25,60.71L508.66,55.6L508.82,58.15L509.1,59.43L509.36,55.6L511.14,56.87L511.46,53.04L512.1,54.32L512.35,67.09L512.8,63.26L512.93,64.54L513.05,67.09L513.63,65.82L514.03,64.54L514.35,60.71L515.29,59.43L515.42,56.87L516.44,55.6L517.1,53.04L517.21,51.76L517.33,49.21L518.75,50.49L519.17,69.65L519.46,67.09L519.54,65.82L519.6,68.37L520.33,67.09L521.27,63.26L521.28,64.54L522,70.92L522.04,69.65L522.47,68.37L523.11,63.26L523.14,64.54L523.59,63.26L526.06,58.15L526.39,56.87L527.02,54.32L527.49,53.04L528.45,50.49L528.5,49.21L528.7,50.49L529.34,49.21L530,46.66L531.5,45.38L532.73,42.82L533.06,41.55L534.43,33.88L534.44,35.16L534.47,33.88L534.52,37.71L535.09,35.16L535.3,33.88L536.14,24.94L536.28,23.66L536.84,19.83L539.82,18.55L540,17.28" style="fill: rgb(255, 127, 14); fill-opacity: 0.5; stroke-width: 0;"/></g></g><g class="errorbars"/><g class="lines"><path class="js-line" d="M0,318.72L0,316.17L0.56,317.45L1.83,318.72L1.95,317.45L2.97,318.72L3.8,312.34L3.82,313.61L4.51,312.34L4.93,307.23L5.1,308.5L5.48,309.78L5.65,305.95L5.94,311.06L6.08,308.5L6.38,309.78L7.06,298.29L7.18,297.01L7.35,295.73L7.61,298.29L7.62,299.56L7.63,300.84L7.79,290.62L8.49,289.34L8.87,298.29L8.88,299.56L9.61,308.5L9.62,307.23L9.74,305.95L10.03,302.12L10.03,300.84L10.47,298.29L10.5,302.12L10.89,303.39L10.91,302.12L11.47,305.95L11.58,304.67L11.73,303.39L12.7,285.51L12.74,291.9L12.74,293.18L12.86,290.62L13.17,294.45L13.35,291.9L13.58,290.62L13.98,284.24L14.13,288.07L14.54,286.79L14.73,285.51L14.86,288.07L15.56,289.34L15.73,293.18L16.92,291.9L17.53,289.34L17.65,288.07L18.38,282.96L18.39,284.24L18.52,282.96L18.96,284.24L21.5,282.96L21.51,284.24L21.91,280.4L21.92,282.96L23.45,281.68L23.64,282.96L23.79,281.68L24.63,280.4L25.35,277.85L25.46,279.13L25.77,277.85L26.52,286.79L26.58,285.51L26.87,281.68L27.3,284.24L27.32,285.51L27.46,284.24L27.71,285.51L28.88,286.79L30.33,282.96L30.55,284.24L30.59,288.07L30.59,288.07L31.39,286.79L31.86,290.62L31.86,290.62L32.28,289.34L32.48,295.73L33.38,297.01L34.08,294.45L34.08,295.73L34.22,297.01L35.11,293.18L35.23,294.45L35.84,295.73L36.21,294.45L36.22,295.73L36.36,289.34L36.64,290.62L37.34,289.34L37.57,285.51L37.76,293.18L38.27,294.45L38.34,293.18L38.78,297.01L38.83,298.29L39.06,293.18L39.35,294.45L39.65,295.73L40.5,289.34L40.63,293.18L40.97,291.9L41.18,289.34L41.2,291.9L41.34,293.18L42.74,285.51L43.43,284.24L43.72,282.96L44.33,284.24L45.01,285.51L45.29,284.24L45.31,288.07L45.77,282.96L46.04,284.24L46.1,281.68L46.42,288.07L46.57,289.34L47.15,293.18L47.29,290.62L47.3,289.34L47.4,293.18L47.72,291.9L48.27,293.18L48.28,297.01L48.57,294.45L49.14,295.73L49.53,294.45L49.53,295.73L50.23,294.45L50.23,295.73L50.42,293.18L50.54,293.18L51.37,291.9L52.54,289.34L53.1,290.62L53.1,291.9L53.53,288.07L53.68,290.62L54.13,289.34L54.23,288.07L54.54,291.9L55.37,290.62L56.7,285.51L57.2,284.24L58.44,272.74L58.51,275.29L58.61,276.57L58.61,277.85L59.2,275.29L59.37,274.02L59.49,272.74L59.51,274.02L61.07,272.74L62.28,265.08L62.4,266.35L63.3,263.8L63.85,262.52L64.55,251.03L64.58,253.58L65.32,252.3L65.97,254.86L65.97,256.13L66.28,262.52L66.98,261.24L68.24,257.41L68.99,256.13L69.24,263.8L70.14,262.52L71.24,275.29L71.39,274.02L71.92,272.74L71.92,271.46L72.31,271.46L72.77,272.74L73.85,268.91L73.85,270.18L74.29,268.91L74.31,267.63L74.36,268.91L75.22,267.63L76,266.35L76.51,265.08L79.83,254.86L79.83,256.13L80.29,259.97L80.42,256.13L80.82,257.41L81.11,258.69L81.18,254.86L81.38,257.41L82.12,258.69L82.44,252.3L82.45,253.58L83.59,252.3L83.8,253.58L83.99,252.3L84.23,251.03L84.26,249.75L84.97,253.58L85.1,252.3L85.24,253.58L85.81,249.75L85.82,251.03L85.96,252.3L86.36,257.41L86.77,256.13L87.11,254.86L87.12,252.3L87.23,256.13L88.19,254.86L88.22,253.58L88.89,256.13L89.06,254.86L89.87,257.41L90.2,256.13L90.78,257.41L90.86,258.69L91.18,263.8L91.72,262.52L92.03,271.46L92.32,268.91L92.78,267.63L93.84,263.8L93.98,265.08L93.98,266.35L95.84,258.69L95.86,259.97L97.96,252.3L98.1,253.58L98.1,254.86L98.99,257.41L99.1,258.69L99.96,270.18L100.27,268.91L100.67,271.46L100.68,270.18L100.77,268.91L100.81,271.46L101.23,258.69L101.24,258.69L101.66,257.41L101.97,254.86L102.24,261.24L102.63,259.97L103.63,257.41L103.63,258.69L103.63,259.97L103.76,262.52L104.2,261.24L104.69,259.97L105.04,263.8L105.18,261.24L105.58,259.97L105.6,261.24L106.16,258.69L106.18,259.97L106.77,258.69L106.88,257.41L106.88,258.69L107.57,259.97L107.57,261.24L108.18,259.97L108.74,258.69L109.15,254.86L109.57,253.58L110.94,247.19L110.98,248.47L111.05,249.75L113.12,245.92L113.69,247.19L115.09,243.36L115.56,244.64L115.85,243.36L116.69,274.02L116.8,272.74L117.42,270.18L117.69,271.46L118.1,270.18L118.1,271.46L119.09,270.18L119.49,271.46L119.8,270.18L119.81,268.91L120.5,267.63L120.75,268.91L120.76,271.46L121.5,265.08L121.5,266.35L121.73,265.08L122.54,261.24L122.78,262.52L122.91,263.8L123.03,267.63L124.78,266.35L125,267.63L125.05,266.35L125.57,265.08L126.01,259.97L126.8,258.69L128.5,253.58L128.88,254.86L129.35,252.3L129.43,253.58L129.43,254.86L129.58,261.24L129.95,258.69L130.48,257.41L131,254.86L131.24,256.13L131.85,261.24L132.56,259.97L133.54,254.86L133.92,256.13L134.61,254.86L135.68,253.58L136.83,249.75L137.64,251.03L137.64,249.75L138.38,249.75L138.45,251.03L138.97,249.75L139.32,248.47L139.33,251.03L139.87,245.92L139.87,245.92L140.32,244.64L140.32,242.08L140.89,243.36L141.24,242.08L141.75,239.53L141.78,238.25L141.85,236.97L141.9,240.81L142.45,239.53L142.48,240.81L142.89,238.25L143.52,239.53L143.92,235.7L144.17,245.92L144.17,247.19L144.74,244.64L144.83,243.36L145.58,245.92L146.76,244.64L147.42,243.36L147.53,245.92L148.35,244.64L148.36,245.92L149.02,242.08L149.08,243.36L149.64,244.64L151.38,242.08L151.39,243.36L152.5,236.97L153.39,235.7L153.64,233.14L154.16,234.42L154.17,233.14L154.83,239.53L155.2,238.25L156.4,236.97L156.73,238.25L159.15,231.87L159.29,233.14L159.81,228.03L160.1,226.76L161.42,219.09L162.15,217.82L162.15,219.09L162.54,217.82L163.63,216.54L163.69,215.26L164.15,220.37L164.58,219.09L165.64,216.54L165.64,215.26L165.66,213.98L165.87,222.92L167.15,221.65L167.4,219.09L168.5,217.82L169.23,222.92L169.59,221.65L172.5,211.43L172.56,210.15L172.61,211.43L174.36,210.15L174.6,215.26L174.61,216.54L174.62,220.37L175.03,217.82L176.99,216.54L177.02,219.09L177.17,217.82L177.91,216.54L178.43,211.43L178.44,212.71L178.97,213.98L179.32,215.26L180.23,210.15L180.29,211.43L180.42,212.71L181.27,211.43L181.27,212.71L184.4,207.6L184.5,206.32L185.07,202.49L185.08,203.76L185.5,202.49L185.53,205.04L186.19,203.76L186.37,202.49L187.06,203.76L187.36,202.49L187.36,201.21L188.1,201.21L188.28,199.93L189.05,197.38L189.19,196.1L189.37,197.38L189.51,194.82L189.53,196.1L190.33,194.82L191.71,185.88L191.71,188.44L191.98,187.16L192.31,184.61L192.63,185.88L193.15,184.61L193.35,182.05L193.82,184.61L194.08,183.33L194.46,180.77L195.03,179.5L196.2,178.22L196.2,179.5L196.28,178.22L196.31,179.5L197.66,178.22L198.4,179.5L199.13,178.22L199.36,176.94L199.36,178.22L201.23,176.94L201.93,175.66L201.94,176.94L201.94,178.22L202.33,176.94L203.17,178.22L203.17,179.5L203.87,179.5L204.04,178.22L205.02,175.66L205.75,174.39L206.4,170.55L206.77,171.83L208.17,166.72L208.49,168L209.92,166.72L210.15,165.45L211.15,164.17L211.27,165.45L211.99,164.17L213.8,160.34L214.1,161.61L214.46,157.78L215.21,156.5L215.64,159.06L215.67,157.78L215.95,156.5L216.7,153.95L216.91,155.23L216.95,156.5L216.97,160.34L217.69,157.78L217.71,156.5L218.14,155.23L218.64,162.89L218.66,161.61L219.39,160.34L219.61,161.61L220.08,157.78L220.21,159.06L221.04,175.66L221.05,174.39L221.11,173.11L222,189.71L222.58,188.44L222.75,189.71L223.18,184.61L223.18,185.88L223.34,187.16L223.62,188.44L223.78,185.88L223.89,184.61L224.86,179.5L225.16,178.22L225.64,174.39L225.68,173.11L225.79,178.22L226.71,176.94L228.73,174.39L228.75,173.11L229.35,166.72L229.72,165.45L230.17,166.72L231.83,165.45L232.99,162.89L233.06,161.61L233.92,160.34L234.33,161.61L235.07,159.06L236.93,157.78L237.51,155.23L237.59,153.95L238.48,150.12L238.61,151.39L238.8,150.12L239.95,148.84L240.27,145.01L240.29,152.67L240.29,153.95L240.29,155.23L240.85,150.12L241.28,148.84L241.49,150.12L242.45,148.84L242.61,150.12L242.85,148.84L243.44,150.12L243.51,148.84L243.69,153.95L244.12,151.39L244.39,152.67L244.7,151.39L244.72,153.95L244.82,153.95L244.83,155.23L245.85,151.39L246.29,150.12L246.7,147.56L246.84,153.95L247.21,152.67L247.52,151.39L247.67,152.67L247.7,153.95L247.79,152.67L248.1,155.23L248.41,156.5L248.5,153.95L248.53,164.17L248.54,165.45L249.35,187.16L249.48,185.88L249.79,187.16L250.34,185.88L251.37,180.77L251.47,182.05L252.78,173.11L252.92,174.39L253.2,173.11L254.44,169.28L254.45,170.55L254.59,171.83L255.18,168L255.49,166.72L255.69,165.45L256.34,166.72L256.96,160.34L257.42,159.06L257.9,153.95L257.92,155.23L258.45,156.5L259.27,151.39L259.46,150.12L260.72,142.45L261.16,141.18L261.36,139.9L262.41,138.62L263.83,130.96L264.25,129.68L265.24,125.85L265.28,127.13L266.64,120.74L267.3,119.46L269.29,113.08L269.3,114.35L272.29,97.75L272.51,99.03L272.52,101.58L273.45,100.3L273.45,101.58L274.17,97.75L274.8,96.47L275.09,97.75L276.26,96.47L276.56,92.64L279.01,93.92L279.18,123.29L280.09,122.02L281.27,123.29L281.43,122.02L281.43,120.74L281.51,124.57L281.69,122.02L282.29,123.29L285.21,122.02L285.94,120.74L286.5,116.91L286.51,115.63L286.63,118.18L287.16,116.91L287.27,115.63L287.32,116.91L288.26,115.63L289.45,122.02L289.56,120.74L289.75,119.46L289.78,122.02L290.21,119.46L290.45,118.18L291.21,115.63L291.3,114.35L291.69,111.8L292.05,113.08L292.05,114.35L292.34,127.13L293.29,125.85L293.46,127.13L293.97,124.57L293.98,125.85L293.98,127.13L294.99,124.57L295.17,125.85L295.28,123.29L295.72,124.57L296.1,125.85L296.57,127.13L297.08,125.85L298.55,120.74L298.86,119.46L299.19,122.02L299.34,116.91L299.46,118.18L299.51,116.91L300.07,118.18L301.21,116.91L301.23,118.18L301.78,115.63L302.13,114.35L302.45,109.24L302.72,110.52L303.1,111.8L303.1,116.91L303.3,114.35L304.33,113.08L305.06,124.57L305.06,123.29L305.17,122.02L305.19,120.74L305.51,132.24L305.65,132.24L305.75,133.51L305.8,142.45L306.5,139.9L306.86,141.18L307.57,136.07L307.73,137.34L308.41,134.79L308.95,133.51L308.98,134.79L309.25,130.96L310.08,129.68L310.31,130.96L310.31,129.68L310.94,128.4L311.26,132.24L311.37,128.4L311.83,127.13L312.22,123.29L312.86,122.02L313.06,120.74L314.39,119.46L315.06,115.63L315.12,114.35L316.34,106.69L317.33,105.41L320.04,96.47L321.15,95.19L321.93,92.64L322.75,91.36L322.89,88.81L323.63,90.08L323.99,109.24L324.19,107.97L324.47,109.24L324.76,107.97L324.77,110.52L325.12,109.24L325.76,110.52L326.27,109.24L327.01,110.52L328.14,106.69L329.09,105.41L330.38,104.13L330.72,105.41L330.77,106.69L331.78,105.41L332.3,102.86L332.76,104.13L332.94,102.86L333.37,104.13L333.4,105.41L333.4,106.69L334.08,104.13L334.76,105.41L335.75,141.18L336.03,139.9L336.2,136.07L336.65,141.18L336.8,142.45L338.25,130.96L338.6,129.68L338.72,132.24L339.19,130.96L339.62,129.68L340.61,132.24L341,130.96L341.98,129.68L341.99,130.96L342.6,129.68L342.82,128.4L343.17,127.13L343.58,128.4L343.96,127.13L344.55,125.85L344.8,124.57L345,122.02L346.11,120.74L346.39,119.46L347.48,118.18L349.09,113.08L349.09,114.35L349.12,115.63L350.08,110.52L350.61,111.8L351.45,106.69L351.46,107.97L351.95,106.69L352,107.97L352.62,105.41L352.62,104.13L352.73,101.58L354.04,100.3L354.89,97.75L354.92,96.47L355.74,93.92L356.07,92.64L357.01,97.75L357.39,96.47L357.58,95.19L359.09,92.64L359.31,93.92L360.4,91.36L360.97,90.08L362.52,84.97L363.13,83.7L363.5,82.42L363.71,83.7L363.77,84.97L363.79,83.7L364.67,82.42L365.79,79.87L365.9,78.59L366.89,77.31L366.91,78.59L366.98,96.47L367.62,92.64L367.88,93.92L368.5,91.36L368.74,90.08L369.49,91.36L370.4,90.08L371.03,86.25L371.14,87.53L371.42,86.25L372.7,83.7L373.54,82.42L374.16,79.87L374.16,78.59L374.16,72.2L375.42,70.92L376.45,67.09L377.95,68.37L377.95,70.92L378.37,67.09L378.37,68.37L378.72,67.09L379.22,68.37L379.54,67.09L379.55,65.82L379.8,67.09L380.67,65.82L380.81,64.54L380.82,65.82L382.13,67.09L382.76,65.82L382.82,67.09L382.99,68.37L382.99,69.65L383.6,69.65L383.91,70.92L384.11,84.97L385.09,86.25L386.11,83.7L386.62,82.42L386.75,79.87L386.79,83.7L387.21,84.97L388.42,76.03L388.43,77.31L388.43,76.03L388.45,82.42L388.77,79.87L389.32,78.59L390.62,74.76L391.75,73.48L392.45,69.65L393.16,68.37L393.53,64.54L394.01,67.09L394.26,65.82L395.28,59.43L395.28,60.71L396.71,59.43L397.48,53.04L397.49,55.6L398.31,54.32L398.64,55.6L398.68,54.32L399.18,53.04L399.74,50.49L400.38,51.76L401.33,47.93L401.96,46.66L402.58,44.1L402.8,45.38L402.94,46.66L403.25,47.93L403.46,46.66L404.63,47.93L407.01,38.99L407.29,37.71L408.27,36.44L409,37.71L410.08,33.88L410.16,32.61L410.23,33.88L410.39,28.77L411.01,30.05L411.09,27.5L412.23,26.22L412.39,23.66L412.58,26.22L412.84,27.5L413.23,26.22L413.4,27.5L413.43,28.77L413.7,31.33L414.23,30.05L415.26,22.39L415.27,24.94L415.31,26.22L416.04,23.66L416.05,24.94L416.25,26.22L416.65,27.5L416.9,24.94L417.17,23.66L417.33,24.94L417.44,22.39L417.76,24.94L417.8,26.22L417.9,27.5L418.33,23.66L418.4,22.39L419.44,18.55L419.44,17.28L419.92,16L420,17.28L420.02,18.55L420.34,17.28L420.56,21.11L420.56,22.39L420.99,36.44L421.28,24.94L421.36,26.22L421.97,33.88L422,30.05L422.12,31.33L423.8,22.39L423.86,23.66L424,36.44L424.4,31.33L424.68,30.05L424.72,32.61L425.25,30.05L425.83,28.77L426.47,32.61L426.75,31.33L426.97,30.05L427.12,32.61L427.2,31.33L427.77,30.05L428.41,40.27L428.44,38.99L428.82,37.71L428.89,36.44L429.21,40.27L429.48,38.99L429.82,37.71L430.24,33.88L430.41,36.44L430.95,35.16L431.37,31.33L431.76,32.61L431.77,33.88L432.33,51.76L432.62,53.04L433.25,49.21L434.08,47.93L434.22,51.76L435.2,53.04L436.29,50.49L436.33,49.21L436.49,50.49L436.86,49.21L437.33,47.93L437.78,45.38L437.9,49.21L438.03,47.93L438.28,46.66L438.92,44.1L439.28,45.38L439.89,51.76L440.12,49.21L440.15,47.93L440.6,51.76L440.84,51.76L440.99,50.49L441.38,41.55L441.75,49.21L441.85,47.93L442.13,44.1L442.25,51.76L442.25,53.04L442.84,44.1L442.96,46.66L443.09,45.38L443.45,41.55L443.67,42.82L443.86,44.1L444.1,41.55L444.27,51.76L444.27,53.04L444.56,69.65L444.98,64.54L445.08,65.82L445.09,67.09L445.84,65.82L446.07,63.26L446.13,73.48L446.25,72.2L446.55,70.92L446.65,72.2L447.05,70.92L447.09,72.2L447.2,69.65L447.8,68.37L448.62,63.26L448.78,61.98L449.36,56.87L449.62,59.43L449.64,60.71L449.8,59.43L450.17,65.82L450.75,64.54L450.88,65.82L451.14,63.26L451.31,64.54L451.65,65.82L452.31,55.6L452.61,54.32L452.63,53.04L452.71,56.87L453.07,54.32L453.56,53.04L453.57,54.32L454.15,44.1L454.19,46.66L454.98,45.38L455.47,41.55L456.03,42.82L456.16,40.27L456.44,46.66L456.82,45.38L456.84,44.1L457.15,42.82L457.42,45.38L457.71,44.1L457.89,46.66L458.25,44.1L458.59,45.38L459.12,38.99L459.47,41.55L459.53,42.82L459.66,41.55L459.69,45.38L460.12,42.82L460.55,41.55L460.56,40.27L461.1,51.76L461.12,49.21L461.27,47.93L462.5,51.76L462.69,50.49L462.94,53.04L463.4,51.76L463.65,50.49L464.64,55.6L464.78,53.04L464.82,51.76L464.93,49.21L465.48,53.04L465.48,53.04L465.83,51.76L466.08,47.93L466.46,51.76L466.5,53.04L466.81,51.76L467.64,72.2L467.92,70.92L469.62,55.6L469.71,56.87L469.78,54.32L469.89,65.82L470.18,64.54L470.18,65.82L470.73,64.54L470.75,65.82L471.01,67.09L471.41,74.76L471.7,72.2L471.84,70.92L471.96,65.82L472.59,65.82L472.72,64.54L472.82,63.26L472.85,68.37L473.01,67.09L473.48,68.37L473.75,69.65L474.04,65.82L474.39,64.54L474.69,68.37L474.71,69.65L475.97,65.82L476.68,64.54L476.94,59.43L477.25,64.54L477.55,63.26L478.67,53.04L479.43,54.32L479.95,67.09L480.36,65.82L480.46,68.37L480.8,60.71L480.97,61.98L481.22,60.71L481.69,68.37L482.39,67.09L482.58,65.82L482.9,68.37L482.91,69.65L483.55,67.09L483.8,81.14L483.89,79.87L483.89,77.31L484.45,84.97L484.73,83.7L484.94,84.97L486.4,83.7L486.99,84.97L487.29,83.7L487.74,84.97L487.76,83.7L488.3,82.42L488.3,81.14L488.56,84.97L488.64,83.7L489.26,82.42L489.48,83.7L489.81,82.42L490.2,81.14L490.28,78.59L490.42,82.42L490.71,81.14L491.23,79.87L491.31,78.59L491.74,83.7L491.74,84.97L492.83,81.14L493.22,82.42L493.47,79.87L493.78,81.14L493.78,82.42L493.82,84.97L494.37,84.97L494.55,83.7L495.33,76.03L495.36,78.59L495.37,79.87L495.37,81.14L495.52,78.59L496.37,79.87L496.37,78.59L496.64,78.59L497.8,77.31L498.35,73.48L498.6,76.03L498.69,74.76L499.33,69.65L499.52,68.37L500.17,70.92L500.21,68.37L500.35,67.09L501.17,65.82L501.74,67.09L501.76,69.65L502.3,69.65L502.59,68.37L502.59,67.09L503.3,69.65L503.49,68.37L503.59,67.09L504.5,65.82L505.12,67.09L505.55,65.82L506.3,60.71L506.54,59.43L506.54,60.71L506.71,59.43L507.43,58.15L507.69,60.71L508.14,59.43L508.25,60.71L508.66,55.6L508.82,58.15L509.1,59.43L509.36,55.6L511.14,56.87L511.46,53.04L512.1,54.32L512.35,67.09L512.8,63.26L512.93,64.54L513.05,67.09L513.63,65.82L514.03,64.54L514.35,60.71L515.29,59.43L515.42,56.87L516.44,55.6L517.1,53.04L517.21,51.76L517.33,49.21L518.75,50.49L519.17,69.65L519.46,67.09L519.54,65.82L519.6,68.37L520.33,67.09L521.27,63.26L521.28,64.54L522,70.92L522.04,69.65L522.47,68.37L523.11,63.26L523.14,64.54L523.59,63.26L526.06,58.15L526.39,56.87L527.02,54.32L527.49,53.04L528.45,50.49L528.5,49.21L528.7,50.49L529.34,49.21L530,46.66L531.5,45.38L532.73,42.82L533.06,41.55L534.43,33.88L534.44,35.16L534.47,33.88L534.52,37.71L535.09,35.16L535.3,33.88L536.14,24.94L536.28,23.66L536.84,19.83L539.82,18.55L540,17.28" style="vector-effect: none; fill: none; stroke: rgb(255, 127, 14); stroke-opacity: 1; stroke-width: 2px; opacity: 1;"/></g><g class="points"/><g class="text"/></g></g></g></g><g class="zerolinelayer-above"/><path class="xlines-above crisp" d="M0,0" style="fill: none;"/><path class="ylines-above crisp" d="M0,0" style="fill: none;"/><g class="overlines-above"/><g class="xaxislayer-above"><g class="xtick"><text text-anchor="middle" x="0" y="439" transform="translate(100.86,0)" style="font-family: 'Open Sans'; font-size: 18px; fill: rgb(0, 0, 0); fill-opacity: 1; white-space: pre;">2016</text></g><g class="xtick"><text text-anchor="middle" x="0" y="439" style="font-family: 'Open Sans'; font-size: 18px; fill: rgb(0, 0, 0); fill-opacity: 1; white-space: pre;" transform="translate(204.39,0)">2018</text></g><g class="xtick"><text text-anchor="middle" x="0" y="439" style="font-family: 'Open Sans'; font-size: 18px; fill: rgb(0, 0, 0); fill-opacity: 1; white-space: pre;" transform="translate(307.77,0)">2020</text></g><g class="xtick"><text text-anchor="middle" x="0" y="439" style="font-family: 'Open Sans'; font-size: 18px; fill: rgb(0, 0, 0); fill-opacity: 1; white-space: pre;" transform="translate(411.29,0)">2022</text></g><g class="xtick"><text text-anchor="middle" x="0" y="439" style="font-family: 'Open Sans'; font-size: 18px; fill: rgb(0, 0, 0); fill-opacity: 1; white-space: pre;" transform="translate(514.6800000000001,0)">2024</text></g><g class="xtick"><text text-anchor="middle" x="0" y="439" style="font-family: 'Open Sans'; font-size: 18px; fill: rgb(0, 0, 0); fill-opacity: 1; white-space: pre;" transform="translate(618.2,0)">2026</text></g></g><g class="yaxislayer-above"><g class="ytick"><text text-anchor="end" x="79" y="6.3" transform="translate(0,420)" style="font-family: 'Open Sans'; font-size: 18px; fill: rgb(0, 0, 0); fill-opacity: 1; white-space: pre;">0</text></g><g class="ytick"><text text-anchor="end" x="79" y="6.3" style="font-family: 'Open Sans'; font-size: 18px; fill: rgb(0, 0, 0); fill-opacity: 1; white-space: pre;" transform="translate(0,356.13)">50</text></g><g class="ytick"><text text-anchor="end" x="79" y="6.3" style="font-family: 'Open Sans'; font-size: 18px; fill: rgb(0, 0, 0); fill-opacity: 1; white-space: pre;" transform="translate(0,292.27)">100</text></g><g class="ytick"><text text-anchor="end" x="79" y="6.3" style="font-family: 'Open Sans'; font-size: 18px; fill: rgb(0, 0, 0); fill-opacity: 1; white-space: pre;" transform="translate(0,228.4)">150</text></g><g class="ytick"><text text-anchor="end" x="79" y="6.3" style="font-family: 'Open Sans'; font-size: 18px; fill: rgb(0, 0, 0); fill-opacity: 1; white-space: pre;" transform="translate(0,164.54000000000002)">200</text></g><g class="ytick"><text text-anchor="end" x="79" y="6.3" style="font-family: 'Open Sans'; font-size: 18px; fill: rgb(0, 0, 0); fill-opacity: 1; white-space: pre;" transform="translate(0,100.67)">250</text></g></g><g class="overaxes-above"/></g></g><g class="polarlayer"/><g class="smithlayer"/><g class="ternarylayer"/><g class="geolayer"/><g class="funnelarealayer"/><g class="pielayer"/><g class="iciclelayer"/><g class="treemaplayer"/><g class="sunburstlayer"/><g class="glimages"/><defs id="topdefs-5176ad"><g class="clips"/></defs><g class="layer-above"><g class="imagelayer"/><g class="shapelayer"/></g><g class="infolayer"><g class="g-gtitle"><text class="gtitle" x="35" y="50" text-anchor="start" dy="0em" style="opacity: 1; font-family: 'Open Sans'; font-size: 25px; fill: rgb(0, 0, 0); fill-opacity: 1; white-space: pre;">MultiQC/MultiQC - Open Issues Over Time</text></g><g class="g-xtitle"><text class="xtitle" x="350" y="472.9" text-anchor="middle" style="opacity: 1; font-family: 'Open Sans'; font-size: 22px; fill: rgb(0, 0, 0); fill-opacity: 1; white-space: pre;">Date</text></g><g class="g-ytitle"><text class="ytitle" transform="rotate(-90,29.799999999999997,260)" x="29.799999999999997" y="260" text-anchor="middle" style="opacity: 1; font-family: 'Open Sans'; font-size: 22px; fill: rgb(0, 0, 0); fill-opacity: 1; white-space: pre;">Number of Open Issues</text></g></g></svg>