<svg class="main-svg" xmlns="http://www.w3.org/2000/svg" xmlns:xlink="http://www.w3.org/1999/xlink" width="700" height="500" style="" viewBox="0 0 700 500"><rect x="0" y="0" width="700" height="500" style="fill: rgb(0, 0, 0); fill-opacity: 0;"/><defs id="defs-8c5b43"><g class="clips"><clipPath id="clip8c5b43xyplot" class="plotclip"><rect width="540" height="320"/></clipPath><clipPath class="axesclip" id="clip8c5b43x"><rect x="80" y="0" width="540" height="500"/></clipPath><clipPath class="axesclip" id="clip8c5b43y"><rect x="0" y="100" width="700" height="320"/></clipPath><clipPath class="axesclip" id="clip8c5b43xy"><rect x="80" y="100" width="540" height="320"/></clipPath></g><g class="gradients"/><g class="patterns"/></defs><g class="bglayer"><rect class="bg" x="80" y="100" width="540" height="320" style="fill: rgb(0, 0, 0); fill-opacity: 0; stroke-width: 0;"/></g><g class="layer-below"><g class="imagelayer"/><g class="shapelayer"/></g><g class="cartesianlayer"><g class="subplot xy"><g class="layer-subplot"><g class="shapelayer"/><g class="imagelayer"/></g><g class="minor-gridlayer"><g class="x"/><g class="y"/></g><g class="gridlayer"><g class="x"><path class="xgrid crisp" transform="translate(102.25,0)" d="M0,100v320" style="stroke: rgb(255, 255, 255); stroke-opacity: 1; stroke-width: 1px;"/><path class="xgrid crisp" transform="translate(208.53,0)" d="M0,100v320" style="stroke: rgb(255, 255, 255); stroke-opacity: 1; stroke-width: 1px;"/><path class="xgrid crisp" transform="translate(314.66999999999996,0)" d="M0,100v320" style="stroke: rgb(255, 255, 255); stroke-opacity: 1; stroke-width: 1px;"/><path class="xgrid crisp" transform="translate(420.95,0)" d="M0,100v320" style="stroke: rgb(255, 255, 255); stroke-opacity: 1; stroke-width: 1px;"/><path class="xgrid crisp" transform="translate(527.0899999999999,0)" d="M0,100v320" style="stroke: rgb(255, 255, 255); stroke-opacity: 1; stroke-width: 1px;"/></g><g class="y"><path class="ygrid crisp" transform="translate(0,353.90999999999997)" d="M80,0h540" style="stroke: rgb(255, 255, 255); stroke-opacity: 1; stroke-width: 1px;"/><path class="ygrid crisp" transform="translate(0,287.83000000000004)" d="M80,0h540" style="stroke: rgb(255, 255, 255); stroke-opacity: 1; stroke-width: 1px;"/><path class="ygrid crisp" transform="translate(0,221.74)" d="M80,0h540" style="stroke: rgb(255, 255, 255); stroke-opacity: 1; stroke-width: 1px;"/><path class="ygrid crisp" transform="translate(0,155.65)" d="M80,0h540" style="stroke: rgb(255, 255, 255); stroke-opacity: 1; stroke-width: 1px;"/></g></g><g class="zerolinelayer"><path class="yzl zl crisp" transform="translate(0,420)" d="M80,0h540" style="stroke: rgb(255, 255, 255); stroke-opacity: 1; stroke-width: 2px;"/></g><g class="layer-between"><g class="shapelayer"/><g class="imagelayer"/></g><path class="xlines-below"/><path class="ylines-below"/><g class="overlines-below"/><g class="xaxislayer-below"/><g class="yaxislayer-below"/><g class="overaxes-below"/><g class="overplot"><g class="xy" transform="translate(80,100)" clip-path="url(#clip8c5b43xyplot)"><g class="scatterlayer mlayer"><g class="trace scatter traceb9c4ff" style="stroke-miterlimit: 2;"><g class="fills"><g><path class="js-fill" d="M540,320L0,320L0,286.96L4.51,49.04L8.87,174.61L13.38,154.78L17.74,260.52L22.25,267.13L26.75,240.7L30.97,240.7L35.48,174.61L39.84,168L44.35,194.43L48.71,207.65L53.21,247.3L57.72,194.43L62.08,207.65L66.59,207.65L70.95,240.7L75.46,253.91L79.97,234.09L84.04,194.43L88.55,234.09L92.91,253.91L97.42,234.09L101.78,134.96L106.28,220.87L110.79,227.48L115.15,273.74L119.66,247.3L124.02,240.7L128.53,201.04L133.04,227.48L137.11,240.7L141.62,201.04L145.98,214.26L150.48,273.74L154.85,220.87L159.35,267.13L163.86,227.48L168.22,247.3L177.09,260.52L181.6,240.7L186.11,280.35L190.18,201.04L194.68,201.04L199.05,247.3L203.55,293.57L207.92,234.09L212.42,267.13L216.93,260.52L221.29,227.48L225.8,181.22L230.16,234.09L234.67,253.91L239.18,273.74L243.39,207.65L247.9,227.48L252.26,181.22L256.77,207.65L261.13,201.04L265.64,227.48L270.15,207.65L274.51,207.65L279.01,260.52L283.38,293.57L287.88,286.96L292.39,267.13L296.46,207.65L300.97,253.91L305.33,227.48L309.84,168L314.2,214.26L318.71,227.48L323.21,227.48L327.58,260.52L332.08,247.3L336.45,280.35L340.95,273.74L345.46,201.04L349.53,260.52L354.04,267.13L358.4,194.43L362.91,260.52L367.27,253.91L371.78,273.74L376.28,234.09L380.65,214.26L385.15,273.74L389.52,273.74L394.02,247.3L398.53,220.87L402.6,214.26L407.11,240.7L411.47,260.52L415.98,260.52L420.34,234.09L424.85,201.04L429.35,141.57L433.72,168L438.22,187.83L442.58,234.09L447.09,240.7L451.6,16L455.82,187.83L460.32,174.61L464.68,134.96L469.19,174.61L473.55,194.43L478.06,121.74L482.57,148.17L486.93,168L491.44,194.43L495.8,234.09L500.31,234.09L508.89,220.87L513.39,234.09L517.75,240.7L522.26,240.7L526.62,194.43L531.13,240.7L535.64,234.09L540,247.3" style="fill: rgb(255, 127, 14); fill-opacity: 0.5; stroke-width: 0;"/></g></g><g class="errorbars"/><g class="lines"><path class="js-line" d="M0,286.96L4.51,49.04L8.87,174.61L13.38,154.78L17.74,260.52L22.25,267.13L26.75,240.7L30.97,240.7L35.48,174.61L39.84,168L44.35,194.43L48.71,207.65L53.21,247.3L57.72,194.43L62.08,207.65L66.59,207.65L70.95,240.7L75.46,253.91L79.97,234.09L84.04,194.43L88.55,234.09L92.91,253.91L97.42,234.09L101.78,134.96L106.28,220.87L110.79,227.48L115.15,273.74L119.66,247.3L124.02,240.7L128.53,201.04L133.04,227.48L137.11,240.7L141.62,201.04L145.98,214.26L150.48,273.74L154.85,220.87L159.35,267.13L163.86,227.48L168.22,247.3L177.09,260.52L181.6,240.7L186.11,280.35L190.18,201.04L194.68,201.04L199.05,247.3L203.55,293.57L207.92,234.09L212.42,267.13L216.93,260.52L221.29,227.48L225.8,181.22L230.16,234.09L234.67,253.91L239.18,273.74L243.39,207.65L247.9,227.48L252.26,181.22L256.77,207.65L261.13,201.04L265.64,227.48L270.15,207.65L274.51,207.65L279.01,260.52L283.38,293.57L287.88,286.96L292.39,267.13L296.46,207.65L300.97,253.91L305.33,227.48L309.84,168L314.2,214.26L318.71,227.48L323.21,227.48L327.58,260.52L332.08,247.3L336.45,280.35L340.95,273.74L345.46,201.04L349.53,260.52L354.04,267.13L358.4,194.43L362.91,260.52L367.27,253.91L371.78,273.74L376.28,234.09L380.65,214.26L385.15,273.74L389.52,273.74L394.02,247.3L398.53,220.87L402.6,214.26L407.11,240.7L411.47,260.52L415.98,260.52L420.34,234.09L424.85,201.04L429.35,141.57L433.72,168L438.22,187.83L442.58,234.09L447.09,240.7L451.6,16L455.82,187.83L460.32,174.61L464.68,134.96L469.19,174.61L473.55,194.43L478.06,121.74L482.57,148.17L486.93,168L491.44,194.43L495.8,234.09L500.31,234.09L508.89,220.87L513.39,234.09L517.75,240.7L522.26,240.7L526.62,194.43L531.13,240.7L535.64,234.09L540,247.3" style="vector-effect: none; fill: none; stroke: rgb(255, 127, 14); stroke-opacity: 1; stroke-width: 2px; opacity: 1;"/></g><g class="points"/><g class="text"/></g></g></g></g><g class="zerolinelayer-above"/><path class="xlines-above crisp" d="M0,0" style="fill: none;"/><path class="ylines-above crisp" d="M0,0" style="fill: none;"/><g class="overlines-above"/><g class="xaxislayer-above"><g class="xtick"><text text-anchor="middle" x="0" y="439" transform="translate(102.25,0)" style="font-family: 'Open Sans'; font-size: 18px; fill: rgb(0, 0, 0); fill-opacity: 1; white-space: pre;">2016</text></g><g class="xtick"><text text-anchor="middle" x="0" y="439" style="font-family: 'Open Sans'; font-size: 18px; fill: rgb(0, 0, 0); fill-opacity: 1; white-space: pre;" transform="translate(208.53,0)">2018</text></g><g class="xtick"><text text-anchor="middle" x="0" y="439" style="font-family: 'Open Sans'; font-size: 18px; fill: rgb(0, 0, 0); fill-opacity: 1; white-space: pre;" transform="translate(314.66999999999996,0)">2020</text></g><g class="xtick"><text text-anchor="middle" x="0" y="439" style="font-family: 'Open Sans'; font-size: 18px; fill: rgb(0, 0, 0); fill-opacity: 1; white-space: pre;" transform="translate(420.95,0)">2022</text></g><g class="xtick"><text text-anchor="middle" x="0" y="439" style="font-family: 'Open Sans'; font-size: 18px; fill: rgb(0, 0, 0); fill-opacity: 1; white-space: pre;" transform="translate(527.0899999999999,0)">2024</text></g></g><g class="yaxislayer-above"><g class="ytick"><text text-anchor="end" x="79" y="6.3" transform="translate(0,420)" style="font-family: 'Open Sans'; font-size: 18px; fill: rgb(0, 0, 0); fill-opacity: 1; white-space: pre;">0</text></g><g class="ytick"><text text-anchor="end" x="79" y="6.3" style="font-family: 'Open Sans'; font-size: 18px; fill: rgb(0, 0, 0); fill-opacity: 1; white-space: pre;" transform="translate(0,353.90999999999997)">10</text></g><g class="ytick"><text text-anchor="end" x="79" y="6.3" style="font-family: 'Open Sans'; font-size: 18px; fill: rgb(0, 0, 0); fill-opacity: 1; white-space: pre;" transform="translate(0,287.83000000000004)">20</text></g><g class="ytick"><text text-anchor="end" x="79" y="6.3" style="font-family: 'Open Sans'; font-size: 18px; fill: rgb(0, 0, 0); fill-opacity: 1; white-space: pre;" transform="translate(0,221.74)">30</text></g><g class="ytick"><text text-anchor="end" x="79" y="6.3" style="font-family: 'Open Sans'; font-size: 18px; fill: rgb(0, 0, 0); fill-opacity: 1; white-space: pre;" transform="translate(0,155.65)">40</text></g></g><g class="overaxes-above"/></g></g><g class="polarlayer"/><g class="smithlayer"/><g class="ternarylayer"/><g class="geolayer"/><g class="funnelarealayer"/><g class="pielayer"/><g class="iciclelayer"/><g class="treemaplayer"/><g class="sunburstlayer"/><g class="glimages"/><defs id="topdefs-8c5b43"><g class="clips"/></defs><g class="layer-above"><g class="imagelayer"/><g class="shapelayer"/></g><g class="infolayer"><g class="g-gtitle"><text class="gtitle" x="35" y="50" text-anchor="start" dy="0em" style="opacity: 1; font-family: 'Open Sans'; font-size: 25px; fill: rgb(0, 0, 0); fill-opacity: 1; white-space: pre;">MultiQC/MultiQC - New Issues Per Month</text></g><g class="g-xtitle"><text class="xtitle" x="350" y="472.9" text-anchor="middle" style="opacity: 1; font-family: 'Open Sans'; font-size: 22px; fill: rgb(0, 0, 0); fill-opacity: 1; white-space: pre;">Month</text></g><g class="g-ytitle"><text class="ytitle" transform="rotate(-90,38.8,260)" x="38.8" y="260" text-anchor="middle" style="opacity: 1; font-family: 'Open Sans'; font-size: 22px; fill: rgb(0, 0, 0); fill-opacity: 1; white-space: pre;">New Issues Created</text></g></g></svg>