<svg class="main-svg" xmlns="http://www.w3.org/2000/svg" xmlns:xlink="http://www.w3.org/1999/xlink" width="700" height="500" style="" viewBox="0 0 700 500"><rect x="0" y="0" width="700" height="500" style="fill: rgb(0, 0, 0); fill-opacity: 0;"/><defs id="defs-671313"><g class="clips"><clipPath id="clip671313xyplot" class="plotclip"><rect width="540" height="320"/></clipPath><clipPath class="axesclip" id="clip671313x"><rect x="80" y="0" width="540" height="500"/></clipPath><clipPath class="axesclip" id="clip671313y"><rect x="0" y="100" width="700" height="320"/></clipPath><clipPath class="axesclip" id="clip671313xy"><rect x="80" y="100" width="540" height="320"/></clipPath></g><g class="gradients"/><g class="patterns"/></defs><g class="bglayer"><rect class="bg" x="80" y="100" width="540" height="320" style="fill: rgb(0, 0, 0); fill-opacity: 0; stroke-width: 0;"/></g><g class="layer-below"><g class="imagelayer"/><g class="shapelayer"/></g><g class="cartesianlayer"><g class="subplot xy"><g class="layer-subplot"><g class="shapelayer"/><g class="imagelayer"/></g><g class="minor-gridlayer"><g class="x"/><g class="y"/></g><g class="gridlayer"><g class="x"><path class="xgrid crisp" transform="translate(100.81,0)" d="M0,100v320" style="stroke: rgb(255, 255, 255); stroke-opacity: 1; stroke-width: 1px;"/><path class="xgrid crisp" transform="translate(204.09,0)" d="M0,100v320" style="stroke: rgb(255, 255, 255); stroke-opacity: 1; stroke-width: 1px;"/><path class="xgrid crisp" transform="translate(307.23,0)" d="M0,100v320" style="stroke: rgb(255, 255, 255); stroke-opacity: 1; stroke-width: 1px;"/><path class="xgrid crisp" transform="translate(410.51,0)" d="M0,100v320" style="stroke: rgb(255, 255, 255); stroke-opacity: 1; stroke-width: 1px;"/><path class="xgrid crisp" transform="translate(513.64,0)" d="M0,100v320" style="stroke: rgb(255, 255, 255); stroke-opacity: 1; stroke-width: 1px;"/><path class="xgrid crisp" transform="translate(616.92,0)" d="M0,100v320" style="stroke: rgb(255, 255, 255); stroke-opacity: 1; stroke-width: 1px;"/></g><g class="y"><path class="ygrid crisp" transform="translate(0,357.19)" d="M80,0h540" style="stroke: rgb(255, 255, 255); stroke-opacity: 1; stroke-width: 1px;"/><path class="ygrid crisp" transform="translate(0,294.38)" d="M80,0h540" style="stroke: rgb(255, 255, 255); stroke-opacity: 1; stroke-width: 1px;"/><path class="ygrid crisp" transform="translate(0,231.57)" d="M80,0h540" style="stroke: rgb(255, 255, 255); stroke-opacity: 1; stroke-width: 1px;"/><path class="ygrid crisp" transform="translate(0,168.76)" d="M80,0h540" style="stroke: rgb(255, 255, 255); stroke-opacity: 1; stroke-width: 1px;"/><path class="ygrid crisp" transform="translate(0,105.95)" d="M80,0h540" style="stroke: rgb(255, 255, 255); stroke-opacity: 1; stroke-width: 1px;"/></g></g><g class="zerolinelayer"><path class="yzl zl crisp" transform="translate(0,420)" d="M80,0h540" style="stroke: rgb(255, 255, 255); stroke-opacity: 1; stroke-width: 2px;"/></g><g class="layer-between"><g class="shapelayer"/><g class="imagelayer"/></g><path class="xlines-below"/><path class="ylines-below"/><g class="overlines-below"/><g class="xaxislayer-below"/><g class="yaxislayer-below"/><g class="overaxes-below"/><g class="overplot"><g class="xy" transform="translate(80,100)" clip-path="url(#clip671313xyplot)"><g class="scatterlayer mlayer"><g class="trace scatter traceaf40f9" style="stroke-miterlimit: 2;"><g class="fills"><g><path class="js-fill" d="M540,320L0,320L0,318.74L0,316.23L0.56,317.49L1.83,318.74L1.94,317.49L2.96,318.74L3.79,312.46L3.81,313.72L4.5,312.46L4.92,307.44L5.09,308.69L5.46,309.95L5.63,306.18L5.92,311.21L6.06,308.69L6.36,309.95L7.16,297.39L7.33,296.13L7.61,301.16L7.76,296.13L7.76,294.88L8.47,289.85L8.62,291.11L9.59,308.69L9.6,307.44L9.72,306.18L10.04,301.16L10.04,299.9L10.45,298.64L10.47,301.16L10.48,302.41L11.44,306.18L11.55,304.93L11.7,303.67L12.67,286.08L12.71,292.36L12.71,293.62L12.83,291.11L13.14,294.88L13.32,292.36L13.55,291.11L13.95,284.83L14.1,288.6L14.51,287.34L14.7,286.08L14.83,288.6L15.52,289.85L15.69,293.62L16.88,292.36L17.48,289.85L17.61,288.6L18.34,283.57L18.35,284.83L18.48,283.57L18.92,284.83L21.45,283.57L21.45,284.83L21.86,281.06L21.86,283.57L23.39,282.31L23.58,283.57L23.73,282.31L24.57,281.06L25.29,278.55L25.39,279.8L25.71,278.55L26.45,287.34L26.52,286.08L26.8,282.31L27.24,284.83L27.26,286.08L27.4,284.83L27.65,286.08L28.82,287.34L30.26,283.57L30.48,284.83L30.52,288.6L30.52,288.6L31.31,287.34L31.79,291.11L32.21,289.85L32.4,296.13L33.3,297.39L34,294.88L34,296.13L34.14,297.39L34.74,294.88L35.03,293.62L35.76,296.13L36.13,294.88L36.13,296.13L36.27,289.85L36.55,291.11L37.25,289.85L37.48,286.08L37.67,293.62L38.17,294.88L38.24,293.62L38.68,297.39L38.74,298.64L38.97,293.62L39.26,294.88L39.56,296.13L40.4,289.85L40.53,293.62L40.87,292.36L41.08,289.85L41.1,292.36L41.24,293.62L42.64,286.08L43.32,284.83L43.62,283.57L44.23,284.83L44.9,286.08L45.19,284.83L45.21,288.6L45.66,283.57L45.93,284.83L45.99,283.57L45.99,282.31L46.61,292.36L47.01,291.11L47.02,293.62L47.19,289.85L47.6,292.36L48.16,293.62L48.17,297.39L48.46,294.88L49.02,296.13L49.41,294.88L49.41,296.13L50.11,294.88L50.11,296.13L50.3,293.62L50.42,293.62L51.25,292.36L52.42,289.85L52.97,291.11L52.97,292.36L53.4,288.6L53.56,291.11L54,289.85L54.1,288.6L54.41,292.36L55.24,291.11L56.56,286.08L57.07,284.83L58.3,273.52L58.37,276.03L58.47,277.29L58.47,278.55L59.06,276.03L59.23,274.78L59.35,273.52L59.37,274.78L60.93,273.52L62.13,265.98L62.25,267.24L63.15,264.73L63.69,263.47L64.4,252.17L64.42,254.68L65.16,253.42L65.82,255.93L65.82,257.19L65.83,263.47L66.13,263.47L66.82,262.21L68.08,258.45L68.82,257.19L69.07,264.73L69.97,263.47L71.07,276.03L71.22,274.78L71.74,273.52L72.14,272.26L72.59,273.52L73.67,269.75L73.68,271.01L74.11,269.75L74.14,268.5L74.19,269.75L75.04,268.5L75.82,267.24L76.33,265.98L79.64,255.93L79.64,257.19L80.09,260.96L80.23,257.19L80.63,258.45L80.92,259.7L80.99,255.93L81.19,258.45L81.92,259.7L82.25,253.42L82.26,254.68L83.39,253.42L83.6,254.68L83.79,253.42L84.03,252.17L84.05,250.91L84.77,254.68L84.89,253.42L85.03,254.68L85.61,250.91L85.61,252.17L85.75,253.42L86.16,258.45L86.57,257.19L86.91,255.93L86.91,253.42L87.02,257.19L87.98,255.93L88.01,254.68L88.68,257.19L88.85,255.93L89.65,258.45L89.99,257.19L90.56,258.45L90.65,259.7L90.96,264.73L91.5,263.47L91.81,272.26L92.1,269.75L92.56,268.5L93.62,264.73L93.76,265.98L93.76,267.24L95.61,259.7L95.63,260.96L97.73,253.42L97.86,254.68L97.86,255.93L98.76,258.45L98.86,259.7L99.72,271.01L100.03,269.75L100.43,272.26L100.44,271.01L100.53,269.75L100.57,272.26L100.99,259.7L101,259.7L101.41,258.45L101.73,255.93L102,262.21L102.39,260.96L103.38,258.45L103.39,259.7L103.39,260.96L103.51,263.47L103.95,262.21L104.44,260.96L104.79,264.73L104.92,262.21L105.33,260.96L105.35,262.21L105.91,259.7L105.93,260.96L106.52,259.7L106.63,258.45L106.63,259.7L107.31,260.96L107.66,262.21L107.92,260.96L108.48,259.7L108.89,255.93L109.31,254.68L110.67,248.4L110.71,249.65L110.78,250.91L112.85,247.14L113.41,248.4L114.81,244.63L115.28,245.88L115.58,244.63L116.41,274.78L116.52,273.52L117.14,271.01L117.41,272.26L117.82,271.01L117.82,272.26L118.81,271.01L119.21,272.26L119.51,271.01L119.53,269.75L120.21,268.5L120.46,269.75L120.47,272.26L120.69,267.24L121.21,265.98L121.21,267.24L121.63,264.73L121.69,264.73L122.25,263.47L122.25,262.21L122.74,268.5L124.48,267.24L124.7,268.5L124.75,267.24L125.27,265.98L125.71,260.96L126.5,259.7L128.2,254.68L128.57,255.93L129.04,253.42L129.12,254.68L129.12,255.93L129.27,262.21L129.64,259.7L130.17,258.45L130.69,255.93L130.93,257.19L131.53,262.21L132.24,260.96L133.23,255.93L133.6,257.19L134.29,255.93L135.36,254.68L136.5,250.91L137.31,252.17L138.05,250.91L138.12,252.17L138.63,250.91L138.99,249.65L139,252.17L139.54,247.14L139.54,247.14L139.98,245.88L139.99,243.37L140.55,244.63L140.91,243.37L141.41,240.86L141.44,239.6L141.52,238.35L141.57,242.12L142.12,240.86L142.14,242.12L142.55,239.6L143.18,240.86L143.57,237.09L143.82,248.4L144.39,247.14L144.48,244.63L145.13,244.63L145.2,245.88L145.21,244.63L145.23,247.14L146.41,245.88L147.06,244.63L147.18,247.14L148,245.88L148.01,247.14L148.66,243.37L148.72,244.63L149.29,245.88L151.02,243.37L151.03,244.63L152.14,238.35L153.02,237.09L153.27,234.58L153.8,235.83L153.8,234.58L154.46,240.86L154.83,239.6L156.02,238.35L156.36,239.6L158.77,233.32L158.91,234.58L159.43,229.55L159.72,228.3L161.03,220.76L161.76,219.5L161.77,220.76L162.15,219.5L163.24,218.25L163.3,216.99L163.76,222.02L164.19,220.76L165.24,218.25L165.25,216.99L165.27,215.74L165.48,224.53L166.75,223.27L167,220.76L168.1,219.5L168.83,224.53L169.18,223.27L172.08,213.22L172.15,211.97L172.2,213.22L173.94,211.97L174.19,216.99L174.2,218.25L174.2,222.02L174.62,219.5L176.57,218.25L176.6,220.76L176.75,219.5L177.49,218.25L178.01,213.22L178.01,214.48L178.54,215.74L178.9,216.99L179.8,211.97L179.86,213.22L179.99,214.48L180.83,213.22L180.84,214.48L183.96,209.45L184.06,208.2L184.63,204.43L184.64,205.69L185.06,204.43L185.09,206.94L185.75,205.69L185.93,204.43L186.62,205.69L186.91,204.43L187.65,203.17L187.84,201.92L188.6,199.4L188.74,198.15L188.92,199.4L189.06,196.89L189.08,198.15L189.88,196.89L191.25,188.1L191.26,190.61L191.52,189.36L191.86,186.84L192.17,188.1L192.69,186.84L192.89,184.33L193.35,186.84L193.62,185.59L194,183.07L194.56,181.82L195.73,180.56L195.73,181.82L195.81,180.56L195.84,181.82L197.19,180.56L197.93,181.82L198.66,180.56L198.89,179.31L198.89,180.56L200.75,179.31L201.45,178.05L201.46,179.31L201.46,180.56L201.85,179.31L202.69,180.56L202.69,181.82L203.38,181.82L203.56,180.56L204.53,178.05L205.26,176.79L205.9,173.02L206.28,174.28L207.67,169.26L208,170.51L209.42,169.26L209.65,168L210.65,166.74L210.76,168L211.48,166.74L213.29,162.98L213.59,164.23L213.95,160.46L214.69,159.21L215.13,161.72L215.16,160.46L215.44,159.21L216.18,156.69L216.4,157.95L216.43,159.21L216.46,162.98L217.17,160.46L217.19,159.21L217.62,157.95L218.12,165.49L218.14,164.23L218.87,162.98L219.09,164.23L219.56,160.46L219.69,161.72L220.44,176.79L220.52,178.05L220.58,175.54L220.68,185.59L221.26,184.33L221.28,185.59L221.47,191.87L222.05,190.61L222.22,191.87L222.65,186.84L222.65,188.1L222.81,189.36L223.08,190.61L223.25,188.1L223.36,186.84L224.32,181.82L224.62,180.56L225.1,176.79L225.14,175.54L225.25,180.56L226.17,179.31L228.18,176.79L228.21,175.54L228.8,169.26L229.17,168L229.62,169.26L231.28,168L232.43,165.49L232.51,164.23L233.36,162.98L233.78,164.23L234.51,161.72L236.36,160.46L236.95,157.95L237.02,156.69L237.91,152.93L238.04,154.18L238.23,152.93L239.38,151.67L239.7,147.9L239.72,155.44L239.72,156.69L239.72,157.95L240.27,152.93L240.71,151.67L240.91,152.93L241.88,151.67L242.03,152.93L242.27,151.67L242.86,152.93L242.93,151.67L243.11,156.69L243.54,154.18L243.81,155.44L244.11,154.18L244.13,156.69L244.24,156.69L244.25,157.95L245.26,154.18L245.71,152.93L246.11,150.41L246.23,156.69L246.25,156.69L246.62,155.44L246.93,154.18L247.08,155.44L247.11,156.69L247.2,155.44L247.51,157.95L247.82,159.21L247.91,156.69L247.94,166.74L247.95,168L248.47,188.1L248.62,186.84L248.75,188.1L249.2,189.36L249.74,188.1L250.78,183.07L250.87,184.33L252.18,175.54L252.32,176.79L252.6,175.54L253.83,171.77L253.84,173.02L253.98,174.28L254.58,170.51L254.88,169.26L255.08,168L255.72,169.26L256.35,162.98L256.81,161.72L257.29,156.69L257.3,157.95L257.84,159.21L258.66,154.18L258.84,152.93L260.1,145.39L260.54,144.13L260.74,142.88L261.78,141.62L263.2,134.08L263.62,132.83L264.61,129.06L264.65,130.31L266,124.03L266.66,122.78L268.65,116.5L268.65,117.75L271.64,101.42L271.86,102.68L271.87,105.19L272.8,103.93L272.8,105.19L273.52,101.42L274.15,100.17L274.44,101.42L275.6,100.17L275.9,96.4L278.35,97.65L278.51,126.55L279.42,125.29L280.6,126.55L280.76,125.29L280.76,124.03L280.84,127.8L281.02,125.29L281.62,126.55L284.53,125.29L285.26,124.03L285.82,120.26L285.83,119.01L285.95,121.52L286.47,120.26L286.59,119.01L286.64,120.26L287.57,119.01L288.76,125.29L288.87,124.03L289.06,122.78L289.09,125.29L289.52,122.78L289.76,121.52L290.52,119.01L290.61,117.75L290.99,115.24L291.35,116.5L291.35,117.75L291.64,130.31L292.59,129.06L292.76,130.31L293.27,127.8L293.28,129.06L293.28,130.31L294.29,127.8L294.46,129.06L294.57,126.55L295.02,127.8L295.4,129.06L295.86,130.31L296.38,129.06L297.84,124.03L298.15,122.78L298.48,125.29L298.63,120.26L298.75,121.52L298.8,120.26L299.35,121.52L300.49,120.26L300.52,121.52L301.06,119.01L301.41,117.75L301.73,112.73L302,113.98L302.37,115.24L302.38,120.26L302.57,117.75L303.61,116.5L304.33,127.8L304.33,126.55L304.44,125.29L304.47,124.03L304.78,135.34L304.93,135.34L305.02,136.6L305.07,145.39L305.77,142.88L306.12,144.13L306.83,139.11L307,140.36L307.67,137.85L308.21,136.6L308.24,137.85L308.52,134.08L309.34,132.83L309.57,134.08L309.58,132.83L310.2,131.57L310.52,135.34L310.63,131.57L311.08,130.31L311.48,126.55L312.12,125.29L312.32,124.03L313.64,122.78L314.31,119.01L314.37,117.75L315.59,110.21L316.57,108.96L319.28,100.17L320.39,98.91L321.17,96.4L321.98,95.14L322.12,92.63L322.86,93.88L323.22,112.73L323.42,111.47L323.7,112.73L323.98,111.47L324,113.98L324.35,112.73L324.98,113.98L325.5,112.73L326.23,113.98L327.36,110.21L328.31,108.96L329.59,107.7L329.93,108.96L329.98,110.21L330.99,108.96L331.51,106.45L331.97,107.7L332.15,106.45L332.58,107.7L332.6,108.96L332.6,110.21L333.28,107.7L333.96,108.96L334.95,144.13L335.23,142.88L335.4,139.11L335.85,144.13L336,145.39L337.45,134.08L337.79,132.83L337.91,135.34L338.38,134.08L338.81,132.83L339.8,135.34L340.19,134.08L341.17,132.83L341.18,134.08L341.78,132.83L342.01,131.57L342.35,130.31L342.76,131.57L343.14,130.31L343.73,129.06L343.98,127.8L344.18,125.29L345.29,124.03L345.56,122.78L346.66,121.52L348.26,116.5L348.26,117.75L348.28,119.01L349.24,113.98L349.77,115.24L350.62,110.21L350.62,111.47L351.11,110.21L351.16,111.47L351.78,108.96L351.79,107.7L351.89,105.19L353.2,103.93L354.04,101.42L354.07,100.17L354.9,97.65L355.23,96.4L356.16,101.42L356.54,100.17L356.72,98.91L358.24,96.4L358.45,97.65L359.55,95.14L360.11,93.88L361.66,88.86L362.27,87.6L362.64,86.35L362.85,87.6L362.91,88.86L362.92,87.6L363.8,86.35L364.92,83.83L365.03,82.58L366.01,81.32L366.03,82.58L366.1,100.17L366.75,96.4L367,97.65L367.63,95.14L367.87,93.88L368.61,95.14L369.52,93.88L370.14,90.12L370.25,91.37L370.54,90.12L371.81,87.6L372.65,86.35L373.27,83.83L373.27,82.58L373.27,76.3L374.53,75.04L375.56,71.27L377.05,72.53L377.06,75.04L377.47,71.27L377.47,72.53L377.82,71.27L378.32,72.53L378.63,71.27L378.64,70.02L378.9,71.27L379.77,70.02L379.91,68.76L379.91,70.02L381.22,71.27L381.85,70.02L381.91,71.27L382.08,72.53L382.08,73.79L382.69,73.79L383,75.04L383.2,88.86L384.18,90.12L385.19,87.6L385.7,86.35L385.83,83.83L385.87,87.6L386.29,88.86L387.49,80.07L387.5,81.32L387.5,80.07L387.53,86.35L387.84,83.83L388.39,82.58L389.69,78.81L390.82,77.55L391.52,73.79L392.23,72.53L392.6,68.76L393.07,71.27L393.32,70.02L394.34,63.74L394.34,64.99L395.77,63.74L396.54,57.45L396.55,58.71L396.55,59.97L397.36,58.71L397.69,59.97L398.39,54.94L398.61,56.2L398.78,54.94L399.43,56.2L400.37,52.43L401.01,51.17L401.62,48.66L401.84,49.92L401.98,51.17L402.29,52.43L402.49,51.17L403.67,52.43L406.04,43.64L406.32,42.38L407.3,41.12L408.02,42.38L409.11,38.61L409.19,37.36L409.25,38.61L409.42,33.59L410.03,34.84L410.11,32.33L411.25,31.07L411.41,28.56L411.59,31.07L411.85,32.33L412.25,31.07L412.41,32.33L412.44,33.59L412.71,36.1L413.24,34.84L414.28,27.31L414.32,31.07L414.98,29.82L415.05,28.56L415.26,31.07L415.5,31.07L415.66,32.33L416.45,27.31L416.77,28.56L416.91,32.33L417.4,27.31L417.73,26.05L418.31,23.54L418.31,24.79L418.37,26.05L418.92,21.02L419.02,23.54L419.28,24.79L419.45,22.28L419.59,33.59L419.59,34.84L419.99,41.12L420.28,29.82L420.35,31.07L420.97,38.61L421,34.84L421.12,36.1L422.79,27.31L422.85,28.56L422.99,41.12L423.39,36.1L423.67,34.84L423.71,37.36L424.23,34.84L424.81,33.59L425.45,37.36L425.73,36.1L425.96,34.84L426.1,37.36L426.18,36.1L426.75,34.84L427.39,44.89L427.42,43.64L427.8,42.38L427.87,41.12L428.19,44.89L428.46,43.64L428.8,42.38L429.21,38.61L429.39,41.12L429.92,39.87L430.34,36.1L430.74,37.36L430.74,38.61L431.3,56.2L431.59,57.45L432.22,53.69L433.05,52.43L433.18,56.2L434.16,57.45L435.25,54.94L435.29,53.69L435.45,54.94L435.82,53.69L436.28,52.43L436.74,49.92L436.86,53.69L436.99,52.43L437.24,51.17L437.87,48.66L438.23,49.92L438.84,56.2L439.07,53.69L439.1,52.43L439.55,56.2L439.8,56.2L439.94,54.94L440.33,46.15L440.7,53.69L440.8,52.43L441.08,48.66L441.19,56.2L441.2,57.45L441.79,48.66L441.91,51.17L442.04,49.92L442.39,46.15L442.61,47.4L442.8,48.66L443.05,46.15L443.21,54.94L443.21,56.2L443.5,73.79L443.92,68.76L444.02,70.02L444.03,71.27L444.78,70.02L445.01,67.5L445.07,77.55L445.19,76.3L445.49,75.04L445.58,76.3L445.98,75.04L446.03,76.3L446.13,73.79L446.74,72.53L447.37,68.76L447.55,67.5L448.29,61.22L448.55,63.74L448.57,64.99L448.73,63.74L449.1,70.02L449.68,68.76L449.8,70.02L450.07,67.5L450.24,68.76L450.58,70.02L451.23,59.97L451.53,58.71L451.55,57.45L451.64,61.22L451.99,58.71L452.48,57.45L452.49,58.71L453.07,48.66L453.11,51.17L453.9,49.92L454.39,46.15L454.94,47.4L455.07,44.89L455.35,51.17L455.73,49.92L455.75,48.66L456.07,47.4L456.33,49.92L456.62,48.66L456.8,51.17L457.16,48.66L457.5,49.92L458.03,43.64L458.38,46.15L458.43,47.4L458.56,46.15L458.59,49.92L459.03,47.4L459.46,46.15L459.47,44.89L460.01,56.2L460.03,53.69L460.17,52.43L461.4,56.2L461.58,54.94L461.84,57.45L462.3,56.2L462.55,54.94L463.54,59.97L463.68,57.45L463.71,56.2L463.82,53.69L464.37,57.45L464.38,57.45L464.72,56.2L464.97,52.43L465.35,56.2L465.39,57.45L465.7,56.2L466.53,76.3L466.8,75.04L468.5,59.97L468.59,61.22L468.66,58.71L468.77,70.02L469.06,68.76L469.06,70.02L469.61,68.76L469.63,70.02L469.89,71.27L470.29,78.81L470.57,76.3L470.72,75.04L470.84,70.02L471.47,70.02L471.59,68.76L471.69,67.5L471.72,72.53L471.88,71.27L472.35,72.53L472.62,73.79L472.91,70.02L473.26,68.76L473.56,72.53L473.58,73.79L474.83,70.02L475.54,68.76L475.8,63.74L476.11,68.76L476.41,67.5L477.53,57.45L478.29,58.71L478.81,71.27L479.22,70.02L479.31,72.53L479.65,64.99L479.82,66.25L480.08,64.99L480.54,72.53L481.24,71.27L481.43,70.02L481.75,72.53L481.76,73.79L482.4,71.27L482.65,85.09L482.74,83.83L482.74,81.32L483.3,88.86L483.58,87.6L483.79,88.86L485.24,87.6L485.83,88.86L486.13,87.6L486.58,88.86L486.59,87.6L487.13,86.35L487.14,85.09L487.39,88.86L487.47,87.6L488.09,86.35L488.31,87.6L488.64,86.35L489.03,85.09L489.11,82.58L489.25,86.35L489.54,85.09L490.06,83.83L490.14,82.58L490.57,87.6L490.57,88.86L491.66,85.09L492.05,86.35L492.3,83.83L492.61,86.35L492.61,87.6L493.2,88.86L493.37,87.6L494.16,80.07L494.18,82.58L494.19,83.83L494.19,85.09L494.34,82.58L495.18,83.83L495.18,82.58L495.46,82.58L496.62,81.32L497.16,77.55L497.41,80.07L497.51,78.81L498.14,73.79L498.34,72.53L498.98,75.04L499.01,72.53L499.16,71.27L499.98,70.02L500.54,71.27L501.1,73.79L501.39,72.53L501.4,71.27L502.1,73.79L502.29,72.53L502.39,71.27L503.3,70.02L503.91,71.27L504.35,70.02L505.1,64.99L505.33,63.74L505.35,64.99L505.5,63.74L506.22,62.48L506.48,64.99L506.93,63.74L507.04,64.99L507.45,59.97L507.61,62.48L507.89,63.74L508.15,59.97L509.92,61.22L510.25,57.45L510.88,58.71L511.13,71.27L511.7,70.02L511.83,71.27L511.97,68.76L512.41,70.02L512.81,68.76L513.12,64.99L514.06,63.74L514.19,61.22L515.21,59.97L515.87,57.45L515.98,56.2L516.1,53.69L517.52,54.94L517.93,73.79L518.22,71.27L518.3,70.02L518.36,72.53L519.09,71.27L520.03,67.5L520.04,68.76L520.75,75.04L520.8,73.79L521.23,72.53L521.86,67.5L521.9,68.76L522.34,67.5L524.81,62.48L525.13,61.22L526.23,57.45L527.15,56.2L527.25,53.69L527.44,54.94L528.08,53.69L528.74,51.17L530.23,49.92L531.79,46.15L531.92,44.89L533.16,38.61L533.17,39.87L533.2,38.61L533.24,42.38L533.81,39.87L534.03,38.61L534.86,29.82L535,28.56L535.57,24.79L538.53,23.54L540,16" style="fill: rgb(255, 127, 14); fill-opacity: 0.5; stroke-width: 0;"/></g></g><g class="errorbars"/><g class="lines"><path class="js-line" d="M0,318.74L0,316.23L0.56,317.49L1.83,318.74L1.94,317.49L2.96,318.74L3.79,312.46L3.81,313.72L4.5,312.46L4.92,307.44L5.09,308.69L5.46,309.95L5.63,306.18L5.92,311.21L6.06,308.69L6.36,309.95L7.16,297.39L7.33,296.13L7.61,301.16L7.76,296.13L7.76,294.88L8.47,289.85L8.62,291.11L9.59,308.69L9.6,307.44L9.72,306.18L10.04,301.16L10.04,299.9L10.45,298.64L10.47,301.16L10.48,302.41L11.44,306.18L11.55,304.93L11.7,303.67L12.67,286.08L12.71,292.36L12.71,293.62L12.83,291.11L13.14,294.88L13.32,292.36L13.55,291.11L13.95,284.83L14.1,288.6L14.51,287.34L14.7,286.08L14.83,288.6L15.52,289.85L15.69,293.62L16.88,292.36L17.48,289.85L17.61,288.6L18.34,283.57L18.35,284.83L18.48,283.57L18.92,284.83L21.45,283.57L21.45,284.83L21.86,281.06L21.86,283.57L23.39,282.31L23.58,283.57L23.73,282.31L24.57,281.06L25.29,278.55L25.39,279.8L25.71,278.55L26.45,287.34L26.52,286.08L26.8,282.31L27.24,284.83L27.26,286.08L27.4,284.83L27.65,286.08L28.82,287.34L30.26,283.57L30.48,284.83L30.52,288.6L30.52,288.6L31.31,287.34L31.79,291.11L32.21,289.85L32.4,296.13L33.3,297.39L34,294.88L34,296.13L34.14,297.39L34.74,294.88L35.03,293.62L35.76,296.13L36.13,294.88L36.13,296.13L36.27,289.85L36.55,291.11L37.25,289.85L37.48,286.08L37.67,293.62L38.17,294.88L38.24,293.62L38.68,297.39L38.74,298.64L38.97,293.62L39.26,294.88L39.56,296.13L40.4,289.85L40.53,293.62L40.87,292.36L41.08,289.85L41.1,292.36L41.24,293.62L42.64,286.08L43.32,284.83L43.62,283.57L44.23,284.83L44.9,286.08L45.19,284.83L45.21,288.6L45.66,283.57L45.93,284.83L45.99,283.57L45.99,282.31L46.61,292.36L47.01,291.11L47.02,293.62L47.19,289.85L47.6,292.36L48.16,293.62L48.17,297.39L48.46,294.88L49.02,296.13L49.41,294.88L49.41,296.13L50.11,294.88L50.11,296.13L50.3,293.62L50.42,293.62L51.25,292.36L52.42,289.85L52.97,291.11L52.97,292.36L53.4,288.6L53.56,291.11L54,289.85L54.1,288.6L54.41,292.36L55.24,291.11L56.56,286.08L57.07,284.83L58.3,273.52L58.37,276.03L58.47,277.29L58.47,278.55L59.06,276.03L59.23,274.78L59.35,273.52L59.37,274.78L60.93,273.52L62.13,265.98L62.25,267.24L63.15,264.73L63.69,263.47L64.4,252.17L64.42,254.68L65.16,253.42L65.82,255.93L65.82,257.19L65.83,263.47L66.13,263.47L66.82,262.21L68.08,258.45L68.82,257.19L69.07,264.73L69.97,263.47L71.07,276.03L71.22,274.78L71.74,273.52L72.14,272.26L72.59,273.52L73.67,269.75L73.68,271.01L74.11,269.75L74.14,268.5L74.19,269.75L75.04,268.5L75.82,267.24L76.33,265.98L79.64,255.93L79.64,257.19L80.09,260.96L80.23,257.19L80.63,258.45L80.92,259.7L80.99,255.93L81.19,258.45L81.92,259.7L82.25,253.42L82.26,254.68L83.39,253.42L83.6,254.68L83.79,253.42L84.03,252.17L84.05,250.91L84.77,254.68L84.89,253.42L85.03,254.68L85.61,250.91L85.61,252.17L85.75,253.42L86.16,258.45L86.57,257.19L86.91,255.93L86.91,253.42L87.02,257.19L87.98,255.93L88.01,254.68L88.68,257.19L88.85,255.93L89.65,258.45L89.99,257.19L90.56,258.45L90.65,259.7L90.96,264.73L91.5,263.47L91.81,272.26L92.1,269.75L92.56,268.5L93.62,264.73L93.76,265.98L93.76,267.24L95.61,259.7L95.63,260.96L97.73,253.42L97.86,254.68L97.86,255.93L98.76,258.45L98.86,259.7L99.72,271.01L100.03,269.75L100.43,272.26L100.44,271.01L100.53,269.75L100.57,272.26L100.99,259.7L101,259.7L101.41,258.45L101.73,255.93L102,262.21L102.39,260.96L103.38,258.45L103.39,259.7L103.39,260.96L103.51,263.47L103.95,262.21L104.44,260.96L104.79,264.73L104.92,262.21L105.33,260.96L105.35,262.21L105.91,259.7L105.93,260.96L106.52,259.7L106.63,258.45L106.63,259.7L107.31,260.96L107.66,262.21L107.92,260.96L108.48,259.7L108.89,255.93L109.31,254.68L110.67,248.4L110.71,249.65L110.78,250.91L112.85,247.14L113.41,248.4L114.81,244.63L115.28,245.88L115.58,244.63L116.41,274.78L116.52,273.52L117.14,271.01L117.41,272.26L117.82,271.01L117.82,272.26L118.81,271.01L119.21,272.26L119.51,271.01L119.53,269.75L120.21,268.5L120.46,269.75L120.47,272.26L120.69,267.24L121.21,265.98L121.21,267.24L121.63,264.73L121.69,264.73L122.25,263.47L122.25,262.21L122.74,268.5L124.48,267.24L124.7,268.5L124.75,267.24L125.27,265.98L125.71,260.96L126.5,259.7L128.2,254.68L128.57,255.93L129.04,253.42L129.12,254.68L129.12,255.93L129.27,262.21L129.64,259.7L130.17,258.45L130.69,255.93L130.93,257.19L131.53,262.21L132.24,260.96L133.23,255.93L133.6,257.19L134.29,255.93L135.36,254.68L136.5,250.91L137.31,252.17L138.05,250.91L138.12,252.17L138.63,250.91L138.99,249.65L139,252.17L139.54,247.14L139.54,247.14L139.98,245.88L139.99,243.37L140.55,244.63L140.91,243.37L141.41,240.86L141.44,239.6L141.52,238.35L141.57,242.12L142.12,240.86L142.14,242.12L142.55,239.6L143.18,240.86L143.57,237.09L143.82,248.4L144.39,247.14L144.48,244.63L145.13,244.63L145.2,245.88L145.21,244.63L145.23,247.14L146.41,245.88L147.06,244.63L147.18,247.14L148,245.88L148.01,247.14L148.66,243.37L148.72,244.63L149.29,245.88L151.02,243.37L151.03,244.63L152.14,238.35L153.02,237.09L153.27,234.58L153.8,235.83L153.8,234.58L154.46,240.86L154.83,239.6L156.02,238.35L156.36,239.6L158.77,233.32L158.91,234.58L159.43,229.55L159.72,228.3L161.03,220.76L161.76,219.5L161.77,220.76L162.15,219.5L163.24,218.25L163.3,216.99L163.76,222.02L164.19,220.76L165.24,218.25L165.25,216.99L165.27,215.74L165.48,224.53L166.75,223.27L167,220.76L168.1,219.5L168.83,224.53L169.18,223.27L172.08,213.22L172.15,211.97L172.2,213.22L173.94,211.97L174.19,216.99L174.2,218.25L174.2,222.02L174.62,219.5L176.57,218.25L176.6,220.76L176.75,219.5L177.49,218.25L178.01,213.22L178.01,214.48L178.54,215.74L178.9,216.99L179.8,211.97L179.86,213.22L179.99,214.48L180.83,213.22L180.84,214.48L183.96,209.45L184.06,208.2L184.63,204.43L184.64,205.69L185.06,204.43L185.09,206.94L185.75,205.69L185.93,204.43L186.62,205.69L186.91,204.43L187.65,203.17L187.84,201.92L188.6,199.4L188.74,198.15L188.92,199.4L189.06,196.89L189.08,198.15L189.88,196.89L191.25,188.1L191.26,190.61L191.52,189.36L191.86,186.84L192.17,188.1L192.69,186.84L192.89,184.33L193.35,186.84L193.62,185.59L194,183.07L194.56,181.82L195.73,180.56L195.73,181.82L195.81,180.56L195.84,181.82L197.19,180.56L197.93,181.82L198.66,180.56L198.89,179.31L198.89,180.56L200.75,179.31L201.45,178.05L201.46,179.31L201.46,180.56L201.85,179.31L202.69,180.56L202.69,181.82L203.38,181.82L203.56,180.56L204.53,178.05L205.26,176.79L205.9,173.02L206.28,174.28L207.67,169.26L208,170.51L209.42,169.26L209.65,168L210.65,166.74L210.76,168L211.48,166.74L213.29,162.98L213.59,164.23L213.95,160.46L214.69,159.21L215.13,161.72L215.16,160.46L215.44,159.21L216.18,156.69L216.4,157.95L216.43,159.21L216.46,162.98L217.17,160.46L217.19,159.21L217.62,157.95L218.12,165.49L218.14,164.23L218.87,162.98L219.09,164.23L219.56,160.46L219.69,161.72L220.44,176.79L220.52,178.05L220.58,175.54L220.68,185.59L221.26,184.33L221.28,185.59L221.47,191.87L222.05,190.61L222.22,191.87L222.65,186.84L222.65,188.1L222.81,189.36L223.08,190.61L223.25,188.1L223.36,186.84L224.32,181.82L224.62,180.56L225.1,176.79L225.14,175.54L225.25,180.56L226.17,179.31L228.18,176.79L228.21,175.54L228.8,169.26L229.17,168L229.62,169.26L231.28,168L232.43,165.49L232.51,164.23L233.36,162.98L233.78,164.23L234.51,161.72L236.36,160.46L236.95,157.95L237.02,156.69L237.91,152.93L238.04,154.18L238.23,152.93L239.38,151.67L239.7,147.9L239.72,155.44L239.72,156.69L239.72,157.95L240.27,152.93L240.71,151.67L240.91,152.93L241.88,151.67L242.03,152.93L242.27,151.67L242.86,152.93L242.93,151.67L243.11,156.69L243.54,154.18L243.81,155.44L244.11,154.18L244.13,156.69L244.24,156.69L244.25,157.95L245.26,154.18L245.71,152.93L246.11,150.41L246.23,156.69L246.25,156.69L246.62,155.44L246.93,154.18L247.08,155.44L247.11,156.69L247.2,155.44L247.51,157.95L247.82,159.21L247.91,156.69L247.94,166.74L247.95,168L248.47,188.1L248.62,186.84L248.75,188.1L249.2,189.36L249.74,188.1L250.78,183.07L250.87,184.33L252.18,175.54L252.32,176.79L252.6,175.54L253.83,171.77L253.84,173.02L253.98,174.28L254.58,170.51L254.88,169.26L255.08,168L255.72,169.26L256.35,162.98L256.81,161.72L257.29,156.69L257.3,157.95L257.84,159.21L258.66,154.18L258.84,152.93L260.1,145.39L260.54,144.13L260.74,142.88L261.78,141.62L263.2,134.08L263.62,132.83L264.61,129.06L264.65,130.31L266,124.03L266.66,122.78L268.65,116.5L268.65,117.75L271.64,101.42L271.86,102.68L271.87,105.19L272.8,103.93L272.8,105.19L273.52,101.42L274.15,100.17L274.44,101.42L275.6,100.17L275.9,96.4L278.35,97.65L278.51,126.55L279.42,125.29L280.6,126.55L280.76,125.29L280.76,124.03L280.84,127.8L281.02,125.29L281.62,126.55L284.53,125.29L285.26,124.03L285.82,120.26L285.83,119.01L285.95,121.52L286.47,120.26L286.59,119.01L286.64,120.26L287.57,119.01L288.76,125.29L288.87,124.03L289.06,122.78L289.09,125.29L289.52,122.78L289.76,121.52L290.52,119.01L290.61,117.75L290.99,115.24L291.35,116.5L291.35,117.75L291.64,130.31L292.59,129.06L292.76,130.31L293.27,127.8L293.28,129.06L293.28,130.31L294.29,127.8L294.46,129.06L294.57,126.55L295.02,127.8L295.4,129.06L295.86,130.31L296.38,129.06L297.84,124.03L298.15,122.78L298.48,125.29L298.63,120.26L298.75,121.52L298.8,120.26L299.35,121.52L300.49,120.26L300.52,121.52L301.06,119.01L301.41,117.75L301.73,112.73L302,113.98L302.37,115.24L302.38,120.26L302.57,117.75L303.61,116.5L304.33,127.8L304.33,126.55L304.44,125.29L304.47,124.03L304.78,135.34L304.93,135.34L305.02,136.6L305.07,145.39L305.77,142.88L306.12,144.13L306.83,139.11L307,140.36L307.67,137.85L308.21,136.6L308.24,137.85L308.52,134.08L309.34,132.83L309.57,134.08L309.58,132.83L310.2,131.57L310.52,135.34L310.63,131.57L311.08,130.31L311.48,126.55L312.12,125.29L312.32,124.03L313.64,122.78L314.31,119.01L314.37,117.75L315.59,110.21L316.57,108.96L319.28,100.17L320.39,98.91L321.17,96.4L321.98,95.14L322.12,92.63L322.86,93.88L323.22,112.73L323.42,111.47L323.7,112.73L323.98,111.47L324,113.98L324.35,112.73L324.98,113.98L325.5,112.73L326.23,113.98L327.36,110.21L328.31,108.96L329.59,107.7L329.93,108.96L329.98,110.21L330.99,108.96L331.51,106.45L331.97,107.7L332.15,106.45L332.58,107.7L332.6,108.96L332.6,110.21L333.28,107.7L333.96,108.96L334.95,144.13L335.23,142.88L335.4,139.11L335.85,144.13L336,145.39L337.45,134.08L337.79,132.83L337.91,135.34L338.38,134.08L338.81,132.83L339.8,135.34L340.19,134.08L341.17,132.83L341.18,134.08L341.78,132.83L342.01,131.57L342.35,130.31L342.76,131.57L343.14,130.31L343.73,129.06L343.98,127.8L344.18,125.29L345.29,124.03L345.56,122.78L346.66,121.52L348.26,116.5L348.26,117.75L348.28,119.01L349.24,113.98L349.77,115.24L350.62,110.21L350.62,111.47L351.11,110.21L351.16,111.47L351.78,108.96L351.79,107.7L351.89,105.19L353.2,103.93L354.04,101.42L354.07,100.17L354.9,97.65L355.23,96.4L356.16,101.42L356.54,100.17L356.72,98.91L358.24,96.4L358.45,97.65L359.55,95.14L360.11,93.88L361.66,88.86L362.27,87.6L362.64,86.35L362.85,87.6L362.91,88.86L362.92,87.6L363.8,86.35L364.92,83.83L365.03,82.58L366.01,81.32L366.03,82.58L366.1,100.17L366.75,96.4L367,97.65L367.63,95.14L367.87,93.88L368.61,95.14L369.52,93.88L370.14,90.12L370.25,91.37L370.54,90.12L371.81,87.6L372.65,86.35L373.27,83.83L373.27,82.58L373.27,76.3L374.53,75.04L375.56,71.27L377.05,72.53L377.06,75.04L377.47,71.27L377.47,72.53L377.82,71.27L378.32,72.53L378.63,71.27L378.64,70.02L378.9,71.27L379.77,70.02L379.91,68.76L379.91,70.02L381.22,71.27L381.85,70.02L381.91,71.27L382.08,72.53L382.08,73.79L382.69,73.79L383,75.04L383.2,88.86L384.18,90.12L385.19,87.6L385.7,86.35L385.83,83.83L385.87,87.6L386.29,88.86L387.49,80.07L387.5,81.32L387.5,80.07L387.53,86.35L387.84,83.83L388.39,82.58L389.69,78.81L390.82,77.55L391.52,73.79L392.23,72.53L392.6,68.76L393.07,71.27L393.32,70.02L394.34,63.74L394.34,64.99L395.77,63.74L396.54,57.45L396.55,58.71L396.55,59.97L397.36,58.71L397.69,59.97L398.39,54.94L398.61,56.2L398.78,54.94L399.43,56.2L400.37,52.43L401.01,51.17L401.62,48.66L401.84,49.92L401.98,51.17L402.29,52.43L402.49,51.17L403.67,52.43L406.04,43.64L406.32,42.38L407.3,41.12L408.02,42.38L409.11,38.61L409.19,37.36L409.25,38.61L409.42,33.59L410.03,34.84L410.11,32.33L411.25,31.07L411.41,28.56L411.59,31.07L411.85,32.33L412.25,31.07L412.41,32.33L412.44,33.59L412.71,36.1L413.24,34.84L414.28,27.31L414.32,31.07L414.98,29.82L415.05,28.56L415.26,31.07L415.5,31.07L415.66,32.33L416.45,27.31L416.77,28.56L416.91,32.33L417.4,27.31L417.73,26.05L418.31,23.54L418.31,24.79L418.37,26.05L418.92,21.02L419.02,23.54L419.28,24.79L419.45,22.28L419.59,33.59L419.59,34.84L419.99,41.12L420.28,29.82L420.35,31.07L420.97,38.61L421,34.84L421.12,36.1L422.79,27.31L422.85,28.56L422.99,41.12L423.39,36.1L423.67,34.84L423.71,37.36L424.23,34.84L424.81,33.59L425.45,37.36L425.73,36.1L425.96,34.84L426.1,37.36L426.18,36.1L426.75,34.84L427.39,44.89L427.42,43.64L427.8,42.38L427.87,41.12L428.19,44.89L428.46,43.64L428.8,42.38L429.21,38.61L429.39,41.12L429.92,39.87L430.34,36.1L430.74,37.36L430.74,38.61L431.3,56.2L431.59,57.45L432.22,53.69L433.05,52.43L433.18,56.2L434.16,57.45L435.25,54.94L435.29,53.69L435.45,54.94L435.82,53.69L436.28,52.43L436.74,49.92L436.86,53.69L436.99,52.43L437.24,51.17L437.87,48.66L438.23,49.92L438.84,56.2L439.07,53.69L439.1,52.43L439.55,56.2L439.8,56.2L439.94,54.94L440.33,46.15L440.7,53.69L440.8,52.43L441.08,48.66L441.19,56.2L441.2,57.45L441.79,48.66L441.91,51.17L442.04,49.92L442.39,46.15L442.61,47.4L442.8,48.66L443.05,46.15L443.21,54.94L443.21,56.2L443.5,73.79L443.92,68.76L444.02,70.02L444.03,71.27L444.78,70.02L445.01,67.5L445.07,77.55L445.19,76.3L445.49,75.04L445.58,76.3L445.98,75.04L446.03,76.3L446.13,73.79L446.74,72.53L447.37,68.76L447.55,67.5L448.29,61.22L448.55,63.74L448.57,64.99L448.73,63.74L449.1,70.02L449.68,68.76L449.8,70.02L450.07,67.5L450.24,68.76L450.58,70.02L451.23,59.97L451.53,58.71L451.55,57.45L451.64,61.22L451.99,58.71L452.48,57.45L452.49,58.71L453.07,48.66L453.11,51.17L453.9,49.92L454.39,46.15L454.94,47.4L455.07,44.89L455.35,51.17L455.73,49.92L455.75,48.66L456.07,47.4L456.33,49.92L456.62,48.66L456.8,51.17L457.16,48.66L457.5,49.92L458.03,43.64L458.38,46.15L458.43,47.4L458.56,46.15L458.59,49.92L459.03,47.4L459.46,46.15L459.47,44.89L460.01,56.2L460.03,53.69L460.17,52.43L461.4,56.2L461.58,54.94L461.84,57.45L462.3,56.2L462.55,54.94L463.54,59.97L463.68,57.45L463.71,56.2L463.82,53.69L464.37,57.45L464.38,57.45L464.72,56.2L464.97,52.43L465.35,56.2L465.39,57.45L465.7,56.2L466.53,76.3L466.8,75.04L468.5,59.97L468.59,61.22L468.66,58.71L468.77,70.02L469.06,68.76L469.06,70.02L469.61,68.76L469.63,70.02L469.89,71.27L470.29,78.81L470.57,76.3L470.72,75.04L470.84,70.02L471.47,70.02L471.59,68.76L471.69,67.5L471.72,72.53L471.88,71.27L472.35,72.53L472.62,73.79L472.91,70.02L473.26,68.76L473.56,72.53L473.58,73.79L474.83,70.02L475.54,68.76L475.8,63.74L476.11,68.76L476.41,67.5L477.53,57.45L478.29,58.71L478.81,71.27L479.22,70.02L479.31,72.53L479.65,64.99L479.82,66.25L480.08,64.99L480.54,72.53L481.24,71.27L481.43,70.02L481.75,72.53L481.76,73.79L482.4,71.27L482.65,85.09L482.74,83.83L482.74,81.32L483.3,88.86L483.58,87.6L483.79,88.86L485.24,87.6L485.83,88.86L486.13,87.6L486.58,88.86L486.59,87.6L487.13,86.35L487.14,85.09L487.39,88.86L487.47,87.6L488.09,86.35L488.31,87.6L488.64,86.35L489.03,85.09L489.11,82.58L489.25,86.35L489.54,85.09L490.06,83.83L490.14,82.58L490.57,87.6L490.57,88.86L491.66,85.09L492.05,86.35L492.3,83.83L492.61,86.35L492.61,87.6L493.2,88.86L493.37,87.6L494.16,80.07L494.18,82.58L494.19,83.83L494.19,85.09L494.34,82.58L495.18,83.83L495.18,82.58L495.46,82.58L496.62,81.32L497.16,77.55L497.41,80.07L497.51,78.81L498.14,73.79L498.34,72.53L498.98,75.04L499.01,72.53L499.16,71.27L499.98,70.02L500.54,71.27L501.1,73.79L501.39,72.53L501.4,71.27L502.1,73.79L502.29,72.53L502.39,71.27L503.3,70.02L503.91,71.27L504.35,70.02L505.1,64.99L505.33,63.74L505.35,64.99L505.5,63.74L506.22,62.48L506.48,64.99L506.93,63.74L507.04,64.99L507.45,59.97L507.61,62.48L507.89,63.74L508.15,59.97L509.92,61.22L510.25,57.45L510.88,58.71L511.13,71.27L511.7,70.02L511.83,71.27L511.97,68.76L512.41,70.02L512.81,68.76L513.12,64.99L514.06,63.74L514.19,61.22L515.21,59.97L515.87,57.45L515.98,56.2L516.1,53.69L517.52,54.94L517.93,73.79L518.22,71.27L518.3,70.02L518.36,72.53L519.09,71.27L520.03,67.5L520.04,68.76L520.75,75.04L520.8,73.79L521.23,72.53L521.86,67.5L521.9,68.76L522.34,67.5L524.81,62.48L525.13,61.22L526.23,57.45L527.15,56.2L527.25,53.69L527.44,54.94L528.08,53.69L528.74,51.17L530.23,49.92L531.79,46.15L531.92,44.89L533.16,38.61L533.17,39.87L533.2,38.61L533.24,42.38L533.81,39.87L534.03,38.61L534.86,29.82L535,28.56L535.57,24.79L538.53,23.54L540,16" style="vector-effect: none; fill: none; stroke: rgb(255, 127, 14); stroke-opacity: 1; stroke-width: 2px; opacity: 1;"/></g><g class="points"/><g class="text"/></g></g></g></g><g class="zerolinelayer-above"/><path class="xlines-above crisp" d="M0,0" style="fill: none;"/><path class="ylines-above crisp" d="M0,0" style="fill: none;"/><g class="overlines-above"/><g class="xaxislayer-above"><g class="xtick"><text text-anchor="middle" x="0" y="439" transform="translate(100.81,0)" style="font-family: 'Open Sans'; font-size: 18px; fill: rgb(255, 255, 255); fill-opacity: 1; white-space: pre;">2016</text></g><g class="xtick"><text text-anchor="middle" x="0" y="439" style="font-family: 'Open Sans'; font-size: 18px; fill: rgb(255, 255, 255); fill-opacity: 1; white-space: pre;" transform="translate(204.09,0)">2018</text></g><g class="xtick"><text text-anchor="middle" x="0" y="439" style="font-family: 'Open Sans'; font-size: 18px; fill: rgb(255, 255, 255); fill-opacity: 1; white-space: pre;" transform="translate(307.23,0)">2020</text></g><g class="xtick"><text text-anchor="middle" x="0" y="439" style="font-family: 'Open Sans'; font-size: 18px; fill: rgb(255, 255, 255); fill-opacity: 1; white-space: pre;" transform="translate(410.51,0)">2022</text></g><g class="xtick"><text text-anchor="middle" x="0" y="439" style="font-family: 'Open Sans'; font-size: 18px; fill: rgb(255, 255, 255); fill-opacity: 1; white-space: pre;" transform="translate(513.64,0)">2024</text></g><g class="xtick"><text text-anchor="middle" x="0" y="439" style="font-family: 'Open Sans'; font-size: 18px; fill: rgb(255, 255, 255); fill-opacity: 1; white-space: pre;" transform="translate(616.92,0)">2026</text></g></g><g class="yaxislayer-above"><g class="ytick"><text text-anchor="end" x="79" y="6.3" transform="translate(0,420)" style="font-family: 'Open Sans'; font-size: 18px; fill: rgb(255, 255, 255); fill-opacity: 1; white-space: pre;">0</text></g><g class="ytick"><text text-anchor="end" x="79" y="6.3" style="font-family: 'Open Sans'; font-size: 18px; fill: rgb(255, 255, 255); fill-opacity: 1; white-space: pre;" transform="translate(0,357.19)">50</text></g><g class="ytick"><text text-anchor="end" x="79" y="6.3" style="font-family: 'Open Sans'; font-size: 18px; fill: rgb(255, 255, 255); fill-opacity: 1; white-space: pre;" transform="translate(0,294.38)">100</text></g><g class="ytick"><text text-anchor="end" x="79" y="6.3" style="font-family: 'Open Sans'; font-size: 18px; fill: rgb(255, 255, 255); fill-opacity: 1; white-space: pre;" transform="translate(0,231.57)">150</text></g><g class="ytick"><text text-anchor="end" x="79" y="6.3" style="font-family: 'Open Sans'; font-size: 18px; fill: rgb(255, 255, 255); fill-opacity: 1; white-space: pre;" transform="translate(0,168.76)">200</text></g><g class="ytick"><text text-anchor="end" x="79" y="6.3" style="font-family: 'Open Sans'; font-size: 18px; fill: rgb(255, 255, 255); fill-opacity: 1; white-space: pre;" transform="translate(0,105.95)">250</text></g></g><g class="overaxes-above"/></g></g><g class="polarlayer"/><g class="smithlayer"/><g class="ternarylayer"/><g class="geolayer"/><g class="funnelarealayer"/><g class="pielayer"/><g class="iciclelayer"/><g class="treemaplayer"/><g class="sunburstlayer"/><g class="glimages"/><defs id="topdefs-671313"><g class="clips"/></defs><g class="layer-above"><g class="imagelayer"/><g class="shapelayer"/></g><g class="infolayer"><g class="g-gtitle"><text class="gtitle" x="35" y="50" text-anchor="start" dy="0em" style="opacity: 1; font-family: 'Open Sans'; font-size: 25px; fill: rgb(255, 255, 255); fill-opacity: 1; white-space: pre;">MultiQC/MultiQC - Open Issues Over Time</text></g><g class="g-xtitle"><text class="xtitle" x="350" y="472.9" text-anchor="middle" style="opacity: 1; font-family: 'Open Sans'; font-size: 22px; fill: rgb(255, 255, 255); fill-opacity: 1; white-space: pre;">Date</text></g><g class="g-ytitle"><text class="ytitle" transform="rotate(-90,29.799999999999997,260)" x="29.799999999999997" y="260" text-anchor="middle" style="opacity: 1; font-family: 'Open Sans'; font-size: 22px; fill: rgb(255, 255, 255); fill-opacity: 1; white-space: pre;">Number of Open Issues</text></g></g></svg>