<svg class="main-svg" xmlns="http://www.w3.org/2000/svg" xmlns:xlink="http://www.w3.org/1999/xlink" width="700" height="500" style="" viewBox="0 0 700 500"><rect x="0" y="0" width="700" height="500" style="fill: rgb(0, 0, 0); fill-opacity: 0;"/><defs id="defs-a5d9c5"><g class="clips"><clipPath id="clipa5d9c5xyplot" class="plotclip"><rect width="540" height="320"/></clipPath><clipPath class="axesclip" id="clipa5d9c5x"><rect x="80" y="0" width="540" height="500"/></clipPath><clipPath class="axesclip" id="clipa5d9c5y"><rect x="0" y="100" width="700" height="320"/></clipPath><clipPath class="axesclip" id="clipa5d9c5xy"><rect x="80" y="100" width="540" height="320"/></clipPath></g><g class="gradients"/><g class="patterns"/></defs><g class="bglayer"><rect class="bg" x="80" y="100" width="540" height="320" style="fill: rgb(0, 0, 0); fill-opacity: 0; stroke-width: 0;"/></g><g class="layer-below"><g class="imagelayer"/><g class="shapelayer"/></g><g class="cartesianlayer"><g class="subplot xy"><g class="layer-subplot"><g class="shapelayer"/><g class="imagelayer"/></g><g class="minor-gridlayer"><g class="x"/><g class="y"/></g><g class="gridlayer"><g class="x"><path class="xgrid crisp" transform="translate(101.2,0)" d="M0,100v320" style="stroke: rgb(255, 255, 255); stroke-opacity: 1; stroke-width: 1px;"/><path class="xgrid crisp" transform="translate(206.38,0)" d="M0,100v320" style="stroke: rgb(255, 255, 255); stroke-opacity: 1; stroke-width: 1px;"/><path class="xgrid crisp" transform="translate(311.40999999999997,0)" d="M0,100v320" style="stroke: rgb(255, 255, 255); stroke-opacity: 1; stroke-width: 1px;"/><path class="xgrid crisp" transform="translate(416.59,0)" d="M0,100v320" style="stroke: rgb(255, 255, 255); stroke-opacity: 1; stroke-width: 1px;"/><path class="xgrid crisp" transform="translate(521.63,0)" d="M0,100v320" style="stroke: rgb(255, 255, 255); stroke-opacity: 1; stroke-width: 1px;"/></g><g class="y"><path class="ygrid crisp" transform="translate(0,356.13)" d="M80,0h540" style="stroke: rgb(255, 255, 255); stroke-opacity: 1; stroke-width: 1px;"/><path class="ygrid crisp" transform="translate(0,292.27)" d="M80,0h540" style="stroke: rgb(255, 255, 255); stroke-opacity: 1; stroke-width: 1px;"/><path class="ygrid crisp" transform="translate(0,228.4)" d="M80,0h540" style="stroke: rgb(255, 255, 255); stroke-opacity: 1; stroke-width: 1px;"/><path class="ygrid crisp" transform="translate(0,164.54000000000002)" d="M80,0h540" style="stroke: rgb(255, 255, 255); stroke-opacity: 1; stroke-width: 1px;"/></g></g><g class="zerolinelayer"><path class="yzl zl crisp" transform="translate(0,420)" d="M80,0h540" style="stroke: rgb(255, 255, 255); stroke-opacity: 1; stroke-width: 2px;"/></g><g class="layer-between"><g class="shapelayer"/><g class="imagelayer"/></g><path class="xlines-below"/><path class="ylines-below"/><g class="overlines-below"/><g class="xaxislayer-below"/><g class="yaxislayer-below"/><g class="overaxes-below"/><g class="overplot"><g class="xy" transform="translate(80,100)" clip-path="url(#clipa5d9c5xyplot)"><g class="scatterlayer mlayer"><g class="trace scatter tracec6b705" style="stroke-miterlimit: 2;"><g class="fills"><g><path class="js-fill" d="M540,320L0,320L0,318.72L0,316.17L0.57,317.45L1.86,318.72L1.98,317.45L3.01,318.72L3.86,312.34L3.88,313.61L4.58,312.34L5.01,307.23L5.18,308.5L5.56,309.78L5.74,305.95L6.03,311.06L6.18,308.5L6.48,309.78L7.17,298.29L7.29,297.01L7.46,295.73L7.74,298.29L7.74,299.56L7.75,300.84L7.92,290.62L8.62,289.34L9.02,298.29L9.02,299.56L9.76,308.5L9.77,307.23L9.9,305.95L10.19,302.12L10.19,300.84L10.64,298.29L10.67,302.12L11.06,303.39L11.08,302.12L11.65,305.95L11.77,304.67L11.92,303.39L12.9,285.51L12.94,290.62L12.95,291.9L13.07,290.62L13.38,294.45L13.56,291.9L13.8,290.62L14.21,284.24L14.36,288.07L14.77,286.79L14.97,285.51L15.1,288.07L15.81,289.34L15.98,293.18L17.19,291.9L17.81,289.34L17.94,288.07L18.68,282.96L18.68,284.24L18.82,282.96L19.27,284.24L21.85,282.96L21.85,284.24L22.26,280.4L22.27,282.96L23.82,281.68L24.01,282.96L24.17,281.68L25.02,280.4L25.75,277.85L25.86,279.13L26.18,277.85L26.94,286.79L27.01,285.51L27.29,281.68L27.74,284.24L27.76,285.51L27.9,284.24L28.16,285.51L29.35,286.79L30.82,282.96L31.04,284.24L31.08,288.07L31.08,288.07L31.89,286.79L32.37,290.62L32.37,290.62L32.8,289.34L33,295.73L33.91,297.01L34.63,294.45L34.63,295.73L34.77,297.01L35.38,294.45L35.67,293.18L36.42,295.73L36.79,294.45L36.79,295.73L36.94,289.34L37.23,290.62L37.93,289.34L38.17,285.51L38.37,293.18L38.88,294.45L38.95,293.18L39.4,297.01L39.46,298.29L39.68,293.18L39.98,294.45L40.28,295.73L41.15,289.34L41.28,293.18L41.63,291.9L41.84,289.34L41.86,291.9L42,293.18L43.42,285.51L44.12,284.24L44.42,282.96L45.04,284.24L45.73,285.51L46.02,284.24L46.04,288.07L46.5,282.96L46.77,284.24L46.84,281.68L47.16,288.07L47.32,289.34L47.9,293.18L48.05,290.62L48.06,289.34L48.16,293.18L48.48,291.9L49.05,293.18L49.05,297.01L49.35,294.45L49.92,295.73L50.32,294.45L50.32,295.73L51.03,294.45L51.03,295.73L51.22,293.18L51.35,293.18L52.19,291.9L53.38,289.34L53.95,290.62L53.95,291.9L54.39,288.07L54.54,290.62L55,289.34L55.1,288.07L55.41,291.9L56.26,290.62L57.6,285.51L58.12,284.24L59.37,272.74L59.45,275.29L59.55,276.57L59.55,277.85L60.15,275.29L60.32,274.02L60.44,272.74L60.46,274.02L62.05,272.74L62.58,266.35L63.11,267.63L63.6,265.08L63.71,266.35L64.17,265.08L65.59,251.03L65.61,253.58L66.36,252.3L67.03,254.86L67.03,256.13L67.04,262.52L67.35,262.52L68.05,261.24L69.33,257.41L70.09,256.13L70.35,263.8L71.26,262.52L72.38,275.29L72.53,274.02L73.07,272.74L73.07,271.46L73.47,271.46L73.93,272.74L75.03,268.91L75.03,270.18L75.5,267.63L75.55,268.91L76.43,267.63L77.22,266.35L77.74,265.08L81.11,254.86L81.11,256.13L81.57,259.97L81.71,256.13L82.12,257.41L82.41,258.69L82.48,254.86L82.68,257.41L83.43,258.69L83.76,252.3L83.77,253.58L84.93,252.3L85.14,253.58L85.34,252.3L85.58,251.03L85.6,249.75L86.33,253.58L86.46,252.3L86.6,253.58L87.18,249.75L87.19,251.03L87.33,252.3L87.74,257.41L88.16,256.13L88.51,254.86L88.51,252.3L88.62,256.13L89.61,254.86L89.61,256.13L89.63,253.58L90.31,256.13L90.49,254.86L91.3,257.41L91.64,256.13L92.23,257.41L92.32,258.69L92.64,263.8L93.19,262.52L93.5,271.46L93.79,268.91L94.27,267.63L95.35,263.8L95.48,265.08L95.49,266.35L97.38,258.69L97.39,259.97L99.53,252.3L99.67,253.58L99.67,254.86L100.58,257.41L100.68,258.69L101.56,270.18L101.87,268.91L102.29,271.46L102.29,270.18L102.38,268.91L102.43,271.46L102.85,258.69L102.86,258.69L103.28,257.41L103.6,254.86L103.88,261.24L104.28,259.97L105.29,257.41L105.29,258.69L105.29,259.97L105.42,262.52L105.87,261.24L106.36,259.97L106.72,263.8L106.86,261.24L107.27,259.97L107.29,261.24L107.86,258.69L107.88,259.97L108.48,258.69L108.59,257.41L108.59,258.69L109.29,259.97L109.29,261.24L109.91,259.97L110.48,258.69L110.9,254.86L111.32,253.58L112.71,247.19L112.75,248.47L112.83,249.75L113.33,248.47L114.64,247.19L114.93,245.92L115.5,247.19L116.93,243.36L117.41,244.64L117.71,243.36L118.56,274.02L118.67,272.74L119.29,270.18L119.58,271.46L119.99,270.18L119.99,271.46L121,270.18L121.4,271.46L121.71,270.18L121.73,268.91L122.42,267.63L122.68,268.91L122.69,271.46L122.91,266.35L123.44,265.08L123.44,266.35L123.87,263.8L123.93,263.8L124.5,262.52L124.5,261.24L125,267.63L126.77,266.35L127,267.63L127.05,266.35L127.58,265.08L128.03,259.97L128.83,258.69L130.56,253.58L130.94,254.86L131.42,252.3L131.5,253.58L131.5,254.86L131.65,261.24L132.02,258.69L132.57,257.41L133.09,254.86L133.34,256.13L133.96,261.24L134.68,259.97L135.68,254.86L136.07,256.13L136.77,254.86L137.85,253.58L139.02,249.75L139.84,251.03L140.59,249.75L140.66,251.03L141.19,249.75L141.55,248.47L141.56,251.03L142.11,245.92L142.11,245.92L142.56,244.64L142.57,242.08L143.14,243.36L143.5,242.08L144.01,239.53L144.05,238.25L144.12,236.97L144.17,240.81L144.73,239.53L144.75,240.81L145.17,238.25L145.82,239.53L146.22,235.7L146.47,247.19L147.05,245.92L147.15,243.36L147.8,243.36L147.88,244.64L147.89,243.36L147.91,245.92L149.11,244.64L149.77,243.36L149.89,245.92L150.72,244.64L150.74,245.92L151.4,242.08L151.46,243.36L152.04,244.64L152.66,243.36L152.66,244.64L152.7,243.36L153.8,242.08L153.81,243.36L153.99,239.53L154.27,239.53L154.78,238.25L156.1,233.14L156.63,234.42L156.63,233.14L157.31,239.53L157.68,238.25L158.9,236.97L159.24,238.25L161.69,231.87L161.84,233.14L162.37,228.03L162.67,226.76L164,219.09L164.74,217.82L164.75,219.09L165.14,217.82L166.25,216.54L166.31,215.26L166.77,220.37L167.22,219.09L168.29,216.54L168.29,215.26L168.31,213.98L168.53,222.92L169.83,221.65L170.07,219.09L171.2,217.82L171.94,222.92L172.3,221.65L175.25,211.43L175.32,210.15L175.37,211.43L177.15,210.15L177.4,215.26L177.41,216.54L177.41,220.37L177.83,217.82L179.83,216.54L179.85,219.09L180,217.82L180.76,216.54L181.28,211.43L181.29,212.71L181.83,213.98L182.19,215.26L183.11,210.15L183.17,211.43L183.31,212.71L184.16,211.43L184.17,212.71L187.35,207.6L187.45,206.32L188.03,202.49L188.04,203.76L188.47,202.49L188.5,205.04L189.17,203.76L189.35,202.49L190.05,203.76L190.35,202.49L191.11,201.21L191.3,199.93L192.07,197.38L192.21,196.1L192.4,197.38L192.55,194.82L192.56,196.1L193.38,194.82L194.78,185.88L194.78,188.44L195.05,187.16L195.39,184.61L195.71,185.88L196.24,184.61L196.45,182.05L196.92,184.61L197.19,183.33L197.57,180.77L198.15,179.5L199.34,178.22L199.34,179.5L199.42,178.22L199.45,179.5L200.82,178.22L201.57,179.5L202.32,178.22L202.55,176.94L202.55,178.22L204.44,176.94L205.16,175.66L205.17,176.94L205.17,178.22L205.57,176.94L206.42,178.22L206.42,179.5L207.13,179.5L207.31,178.22L208.3,175.66L209.04,174.39L209.7,170.55L210.08,171.83L211.5,166.72L211.83,168L213.28,166.72L213.51,165.45L214.53,164.17L214.65,165.45L215.38,164.17L217.22,160.34L217.52,161.61L217.89,157.78L218.65,156.5L219.09,159.06L219.12,157.78L219.41,156.5L220.16,153.95L220.38,155.23L220.42,156.5L220.44,160.34L221.17,157.78L221.19,156.5L221.63,155.23L222.14,162.89L222.16,161.61L222.9,160.34L223.12,161.61L223.6,157.78L223.73,159.06L224.58,175.66L224.59,174.39L224.65,173.11L225.55,189.71L226.15,188.44L226.15,189.71L226.75,184.61L226.75,185.88L226.91,187.16L227.19,188.44L227.36,185.88L227.47,184.61L228.46,179.5L228.76,178.22L229.25,174.39L229.29,173.11L229.4,178.22L230.34,176.94L232.39,174.39L232.41,173.11L233.01,166.72L233.39,165.45L233.85,166.72L235.54,165.45L236.71,162.89L236.79,161.61L237.66,160.34L238.08,161.61L238.83,159.06L240.72,157.78L241.31,155.23L241.39,153.95L241.55,151.39L242.3,150.12L242.43,151.39L242.62,150.12L243.79,148.84L244.12,145.01L244.14,152.67L244.14,153.95L244.14,155.23L244.7,150.12L245.14,148.84L245.35,150.12L246.33,148.84L246.49,150.12L246.73,148.84L247.33,150.12L247.41,148.84L247.59,153.95L248.03,151.39L248.3,152.67L248.61,151.39L248.63,153.95L248.74,153.95L248.75,155.23L249.78,151.39L250.23,150.12L250.65,147.56L250.79,153.95L251.17,152.67L251.48,151.39L251.63,152.67L251.67,153.95L251.75,152.67L252.07,155.23L252.39,156.5L252.48,153.95L252.52,166.72L252.52,168L252.64,165.45L253.49,187.16L253.66,185.88L253.66,187.16L254.34,185.88L254.56,184.61L255.4,180.77L255.49,182.05L256.82,173.11L256.97,174.39L257.25,173.11L258.51,169.28L258.52,170.55L258.66,171.83L259.27,168L259.58,166.72L259.78,165.45L260.44,166.72L261.07,160.34L261.54,159.06L262.03,153.95L262.04,155.23L262.59,156.5L263.42,151.39L263.61,150.12L264.89,142.45L265.34,141.18L265.54,139.9L266.6,138.62L268.05,130.96L268.47,129.68L269.48,125.85L269.52,127.13L270.9,120.74L271.57,119.46L273.6,113.08L273.6,114.35L276.65,97.75L276.87,99.03L276.88,101.58L277.83,100.3L277.83,101.58L278.56,97.75L279.2,96.47L279.49,97.75L280.68,96.47L280.98,92.64L283.47,93.92L283.64,123.29L284.57,122.02L285.77,123.29L285.93,122.02L285.93,120.74L286.02,124.57L286.2,122.02L286.81,123.29L289.77,122.02L290.52,120.74L291.08,116.91L291.09,115.63L291.21,118.18L291.75,116.91L291.87,115.63L291.92,116.91L292.87,115.63L294.08,122.02L294.19,120.74L294.42,122.02L295.11,116.91L295.78,115.63L295.82,116.91L296.35,111.8L296.72,113.08L297.02,127.13L297.98,125.85L298.15,127.13L298.68,124.57L298.68,125.85L298.69,127.13L299.71,124.57L299.89,125.85L300,123.29L300.45,124.57L300.84,125.85L301.31,127.13L301.84,125.85L303.32,120.74L303.64,119.46L303.97,122.02L304.13,116.91L304.25,118.18L304.31,116.91L304.87,118.18L306.03,116.91L306.05,118.18L306.6,115.63L306.96,114.35L307.28,109.24L307.56,110.52L307.94,111.8L307.95,116.91L308.15,114.35L309.2,113.08L309.94,124.57L309.94,123.29L310.05,122.02L310.07,120.74L310.39,132.24L310.54,132.24L310.64,133.51L310.69,142.45L311.21,141.18L311.4,139.9L311.76,141.18L311.79,139.9L312.09,138.62L312.76,136.07L313.34,134.79L314.06,133.51L314.14,132.24L314.2,130.96L315.04,129.68L315.27,130.96L315.28,129.68L315.92,128.4L316.24,132.24L316.35,128.4L316.82,127.13L317.22,123.29L317.87,122.02L318.07,120.74L319.42,119.46L320.1,115.63L320.16,114.35L321.4,106.69L322.4,105.41L325.16,96.47L326.29,95.19L327.08,92.64L327.91,91.36L328.05,88.81L328.81,90.08L329.18,109.24L329.38,107.97L329.66,109.24L329.95,107.97L329.97,110.52L330.32,109.24L330.97,110.52L331.49,109.24L332.24,110.52L333.39,106.69L334.36,105.41L335.66,104.13L336.01,105.41L336.06,106.69L337.09,105.41L337.62,102.86L338.08,104.13L338.27,102.86L338.7,104.13L338.73,105.41L338.73,106.69L339.42,104.13L340.11,105.41L341.12,141.18L341.41,139.9L341.57,136.07L342.03,141.18L342.19,142.45L343.66,130.96L344.01,129.68L344.14,132.24L344.61,130.96L345.05,129.68L346.05,132.24L346.45,130.96L347.23,129.68L347.33,130.96L348.31,128.4L348.66,127.13L349.08,128.4L349.46,127.13L350.06,125.85L350.31,124.57L350.52,122.02L351.65,120.74L351.93,119.46L353.04,118.18L354.67,113.08L354.67,114.35L354.7,115.63L355.68,110.52L356.21,111.8L357.08,106.69L357.08,107.97L357.58,106.69L357.63,107.97L358.26,105.41L358.27,104.13L358.38,101.58L359.7,100.3L360.56,97.75L360.6,96.47L361.43,93.92L361.77,92.64L362.72,97.75L363.11,96.47L363.3,95.19L364.84,92.64L365.05,93.92L366.17,91.36L366.74,90.08L368.32,84.97L368.94,83.7L369.32,82.42L369.53,83.7L369.59,84.97L369.61,83.7L370.5,82.42L371.64,79.87L371.76,78.59L372.76,77.31L372.77,78.59L372.85,96.47L373.5,92.64L373.77,93.92L374.4,91.36L374.64,90.08L375.4,91.36L376.33,90.08L376.96,86.25L377.07,87.53L377.36,86.25L378.66,83.7L379.52,82.42L380.15,79.87L380.15,78.59L380.15,72.2L381.43,70.92L382.47,67.09L384,68.37L384,70.92L384.42,67.09L384.42,68.37L384.78,67.09L385.29,68.37L385.61,67.09L385.62,65.82L385.88,67.09L386.76,65.82L386.91,64.54L386.91,65.82L388.24,67.09L388.89,65.82L388.95,67.09L389.12,68.37L389.12,69.65L389.74,69.65L390.06,70.92L390.26,84.97L391.25,86.25L392.28,83.7L392.81,82.42L392.94,79.87L392.98,83.7L393.4,84.97L394.63,76.03L394.64,77.31L394.64,76.03L394.67,82.42L394.98,79.87L395.55,78.59L396.87,74.76L398.01,73.48L398.73,69.65L399.45,68.37L399.83,64.54L400.31,67.09L400.57,65.82L401.61,59.43L401.61,60.71L403.06,59.43L403.84,53.04L403.85,54.32L403.85,55.6L404.68,54.32L405.01,55.6L405.05,54.32L405.57,53.04L406.13,50.49L406.79,51.76L407.75,47.93L408.39,46.66L409.02,44.1L409.25,45.38L409.38,46.66L409.7,47.93L409.91,46.66L411.1,47.93L413.52,38.99L413.8,37.71L414.8,36.44L415.54,37.71L416.64,33.88L416.73,32.61L416.79,33.88L416.96,28.77L417.58,30.05L417.66,27.5L418.82,26.22L418.99,23.66L419.18,26.22L419.44,27.5L419.84,26.22L420.01,27.5L420.04,28.77L420.32,31.33L420.86,30.05L421.91,22.39L421.95,26.22L422.62,24.94L422.7,23.66L422.91,26.22L423.15,26.22L423.32,27.5L424.12,22.39L424.45,23.66L424.59,27.5L425.09,22.39L425.43,21.11L426.01,18.55L426.02,19.83L426.08,21.11L426.64,16L426.74,18.55L427.01,19.83L427.18,17.28L427.32,28.77L427.32,30.05L427.72,36.44L428.02,24.94L428.1,26.22L428.72,33.88L428.75,30.05L428.88,31.33L430.58,22.39L430.64,23.66L430.78,36.44L431.19,31.33L431.48,30.05L431.52,32.61L432.05,30.05L432.64,28.77L433.29,32.61L433.57,31.33L433.8,30.05L433.95,32.61L434.03,31.33L434.61,30.05L435.27,40.27L435.29,38.99L435.68,37.71L435.75,36.44L436.08,40.27L436.35,38.99L436.69,37.71L437.12,33.88L437.3,36.44L437.84,35.16L438.27,31.33L438.67,32.61L438.67,33.88L439.25,51.76L439.54,53.04L440.18,49.21L441.03,47.93L441.16,51.76L442.16,53.04L443.27,50.49L443.31,49.21L443.47,50.49L443.85,49.21L444.32,47.93L444.79,45.38L444.91,49.21L445.04,47.93L445.29,46.66L445.94,44.1L446.3,45.38L446.93,51.76L447.16,49.21L447.19,47.93L447.65,51.76L447.9,51.76L448.04,50.49L448.44,41.55L448.82,49.21L448.92,47.93L449.2,44.1L449.32,51.76L449.32,53.04L449.93,44.1L450.05,46.66L450.18,45.38L450.54,41.55L450.76,42.82L450.96,44.1L451.21,41.55L451.38,51.76L451.38,53.04L451.67,69.65L452.1,64.54L452.2,65.82L452.2,67.09L452.97,65.82L453.21,63.26L453.25,72.2L453.27,73.48L453.69,70.92L453.79,72.2L454.2,70.92L454.25,72.2L454.35,69.65L454.97,68.37L455.61,64.54L455.8,63.26L456.55,56.87L456.81,59.43L456.84,60.71L457,59.43L457.37,65.82L457.96,64.54L458.09,65.82L458.36,63.26L458.53,64.54L458.88,65.82L459.54,55.6L459.85,54.32L459.87,53.04L459.96,56.87L460.31,54.32L460.81,53.04L460.83,54.32L461.42,44.1L461.45,46.66L462.26,45.38L462.76,41.55L463.32,42.82L463.46,40.27L463.74,46.66L464.12,45.38L464.14,44.1L464.47,42.82L464.73,45.38L465.03,44.1L465.21,46.66L465.58,44.1L465.93,45.38L466.47,38.99L466.82,41.55L466.88,42.82L467.01,41.55L467.04,45.38L467.48,42.82L467.92,41.55L467.93,40.27L468.48,51.76L468.5,49.21L468.64,47.93L469.9,51.76L470.09,50.49L470.35,53.04L470.81,51.76L471.07,50.49L472.08,55.6L472.22,53.04L472.25,51.76L472.36,49.21L472.92,53.04L472.93,53.04L473.28,51.76L473.53,47.93L473.93,51.76L473.96,53.04L474.28,51.76L475.13,72.2L475.4,70.92L475.49,69.65L476.24,67.09L476.26,65.82L477.13,55.6L477.22,56.87L477.3,54.32L477.41,65.82L477.7,64.54L477.7,65.82L478.26,64.54L478.28,65.82L478.55,67.09L478.95,74.76L479.24,72.2L479.39,70.92L479.51,65.82L480.13,67.09L480.15,65.82L480.38,63.26L480.41,68.37L480.57,67.09L481.05,68.37L481.33,69.65L481.98,64.54L482.28,65.82L482.3,69.65L483,67.09L483.13,68.37L483.58,65.82L484.3,64.54L484.57,59.43L484.88,64.54L485.19,63.26L486.32,53.04L487.1,54.32L487.63,67.09L488.04,65.82L488.14,68.37L488.49,60.71L488.66,61.98L488.92,60.71L489.4,68.37L490.1,67.09L490.3,65.82L490.63,68.37L490.63,69.65L491.29,67.09L491.54,81.14L491.63,79.87L491.63,77.31L492.2,84.97L492.49,83.7L492.7,84.97L494.18,83.7L494.78,84.97L495.08,83.7L495.54,84.97L495.56,83.7L496.11,82.42L496.11,81.14L496.37,84.97L496.45,83.7L497.09,82.42L497.31,83.7L497.64,82.42L498.04,81.14L498.12,78.59L498.26,82.42L498.56,81.14L499.09,79.87L499.17,78.59L499.6,83.7L499.6,84.97L500.72,81.14L501.11,82.42L501.37,79.87L501.68,81.14L501.68,82.42L501.72,84.97L502.28,84.97L502.46,83.7L503.26,76.03L503.28,78.59L503.29,79.87L503.29,81.14L503.44,78.59L504.31,79.87L504.31,78.59L504.59,78.59L505.76,77.31L506.32,73.48L506.45,74.76L506.57,76.03L507.77,68.37L508.17,69.65L508.18,70.92L508.48,65.82L508.65,67.09L509.19,65.82L509.77,68.37L509.78,69.65L510.27,68.37L510.33,69.65L510.63,68.37L510.63,67.09L511.35,69.65L511.55,68.37L511.64,67.09L512.57,65.82L513.2,67.09L513.64,65.82L514.4,60.71L514.64,59.43L514.66,60.71L514.81,59.43L515.54,58.15L515.81,60.71L516.27,59.43L516.38,60.71L516.8,55.6L516.96,58.15L517.24,59.43L517.51,55.6L519.31,56.87L519.65,53.04L520.29,54.32L520.55,67.09L521,63.26L521.13,64.54L521.26,67.09L521.85,65.82L522.25,64.54L522.58,60.71L523.53,59.43L523.66,56.87L524.7,55.6L525.37,53.04L525.48,51.76L525.61,49.21L527.05,50.49L527.48,69.65L527.77,67.09L527.85,65.82L527.91,68.37L528.66,67.09L529.61,63.26L529.61,64.54L530.35,70.92L530.39,69.65L530.83,68.37L531.47,63.26L531.51,64.54L531.96,63.26L534.48,58.15L534.81,56.87L535.45,54.32L535.93,53.04L536.9,50.49L536.96,49.21L537.16,50.49L537.81,49.21L538.48,46.66L540,45.38" style="fill: rgb(255, 127, 14); fill-opacity: 0.5; stroke-width: 0;"/></g></g><g class="errorbars"/><g class="lines"><path class="js-line" d="M0,318.72L0,316.17L0.57,317.45L1.86,318.72L1.98,317.45L3.01,318.72L3.86,312.34L3.88,313.61L4.58,312.34L5.01,307.23L5.18,308.5L5.56,309.78L5.74,305.95L6.03,311.06L6.18,308.5L6.48,309.78L7.17,298.29L7.29,297.01L7.46,295.73L7.74,298.29L7.74,299.56L7.75,300.84L7.92,290.62L8.62,289.34L9.02,298.29L9.02,299.56L9.76,308.5L9.77,307.23L9.9,305.95L10.19,302.12L10.19,300.84L10.64,298.29L10.67,302.12L11.06,303.39L11.08,302.12L11.65,305.95L11.77,304.67L11.92,303.39L12.9,285.51L12.94,290.62L12.95,291.9L13.07,290.62L13.38,294.45L13.56,291.9L13.8,290.62L14.21,284.24L14.36,288.07L14.77,286.79L14.97,285.51L15.1,288.07L15.81,289.34L15.98,293.18L17.19,291.9L17.81,289.34L17.94,288.07L18.68,282.96L18.68,284.24L18.82,282.96L19.27,284.24L21.85,282.96L21.85,284.24L22.26,280.4L22.27,282.96L23.82,281.68L24.01,282.96L24.17,281.68L25.02,280.4L25.75,277.85L25.86,279.13L26.18,277.85L26.94,286.79L27.01,285.51L27.29,281.68L27.74,284.24L27.76,285.51L27.9,284.24L28.16,285.51L29.35,286.79L30.82,282.96L31.04,284.24L31.08,288.07L31.08,288.07L31.89,286.79L32.37,290.62L32.37,290.62L32.8,289.34L33,295.73L33.91,297.01L34.63,294.45L34.63,295.73L34.77,297.01L35.38,294.45L35.67,293.18L36.42,295.73L36.79,294.45L36.79,295.73L36.94,289.34L37.23,290.62L37.93,289.34L38.17,285.51L38.37,293.18L38.88,294.45L38.95,293.18L39.4,297.01L39.46,298.29L39.68,293.18L39.98,294.45L40.28,295.73L41.15,289.34L41.28,293.18L41.63,291.9L41.84,289.34L41.86,291.9L42,293.18L43.42,285.51L44.12,284.24L44.42,282.96L45.04,284.24L45.73,285.51L46.02,284.24L46.04,288.07L46.5,282.96L46.77,284.24L46.84,281.68L47.16,288.07L47.32,289.34L47.9,293.18L48.05,290.62L48.06,289.34L48.16,293.18L48.48,291.9L49.05,293.18L49.05,297.01L49.35,294.45L49.92,295.73L50.32,294.45L50.32,295.73L51.03,294.45L51.03,295.73L51.22,293.18L51.35,293.18L52.19,291.9L53.38,289.34L53.95,290.62L53.95,291.9L54.39,288.07L54.54,290.62L55,289.34L55.1,288.07L55.41,291.9L56.26,290.62L57.6,285.51L58.12,284.24L59.37,272.74L59.45,275.29L59.55,276.57L59.55,277.85L60.15,275.29L60.32,274.02L60.44,272.74L60.46,274.02L62.05,272.74L62.58,266.35L63.11,267.63L63.6,265.08L63.71,266.35L64.17,265.08L65.59,251.03L65.61,253.58L66.36,252.3L67.03,254.86L67.03,256.13L67.04,262.52L67.35,262.52L68.05,261.24L69.33,257.41L70.09,256.13L70.35,263.8L71.26,262.52L72.38,275.29L72.53,274.02L73.07,272.74L73.07,271.46L73.47,271.46L73.93,272.74L75.03,268.91L75.03,270.18L75.5,267.63L75.55,268.91L76.43,267.63L77.22,266.35L77.74,265.08L81.11,254.86L81.11,256.13L81.57,259.97L81.71,256.13L82.12,257.41L82.41,258.69L82.48,254.86L82.68,257.41L83.43,258.69L83.76,252.3L83.77,253.58L84.93,252.3L85.14,253.58L85.34,252.3L85.58,251.03L85.6,249.75L86.33,253.58L86.46,252.3L86.6,253.58L87.18,249.75L87.19,251.03L87.33,252.3L87.74,257.41L88.16,256.13L88.51,254.86L88.51,252.3L88.62,256.13L89.61,254.86L89.61,256.13L89.63,253.58L90.31,256.13L90.49,254.86L91.3,257.41L91.64,256.13L92.23,257.41L92.32,258.69L92.64,263.8L93.19,262.52L93.5,271.46L93.79,268.91L94.27,267.63L95.35,263.8L95.48,265.08L95.49,266.35L97.38,258.69L97.39,259.97L99.53,252.3L99.67,253.58L99.67,254.86L100.58,257.41L100.68,258.69L101.56,270.18L101.87,268.91L102.29,271.46L102.29,270.18L102.38,268.91L102.43,271.46L102.85,258.69L102.86,258.69L103.28,257.41L103.6,254.86L103.88,261.24L104.28,259.97L105.29,257.41L105.29,258.69L105.29,259.97L105.42,262.52L105.87,261.24L106.36,259.97L106.72,263.8L106.86,261.24L107.27,259.97L107.29,261.24L107.86,258.69L107.88,259.97L108.48,258.69L108.59,257.41L108.59,258.69L109.29,259.97L109.29,261.24L109.91,259.97L110.48,258.69L110.9,254.86L111.32,253.58L112.71,247.19L112.75,248.47L112.83,249.75L113.33,248.47L114.64,247.19L114.93,245.92L115.5,247.19L116.93,243.36L117.41,244.64L117.71,243.36L118.56,274.02L118.67,272.74L119.29,270.18L119.58,271.46L119.99,270.18L119.99,271.46L121,270.18L121.4,271.46L121.71,270.18L121.73,268.91L122.42,267.63L122.68,268.91L122.69,271.46L122.91,266.35L123.44,265.08L123.44,266.35L123.87,263.8L123.93,263.8L124.5,262.52L124.5,261.24L125,267.63L126.77,266.35L127,267.63L127.05,266.35L127.58,265.08L128.03,259.97L128.83,258.69L130.56,253.58L130.94,254.86L131.42,252.3L131.5,253.58L131.5,254.86L131.65,261.24L132.02,258.69L132.57,257.41L133.09,254.86L133.34,256.13L133.96,261.24L134.68,259.97L135.68,254.86L136.07,256.13L136.77,254.86L137.85,253.58L139.02,249.75L139.84,251.03L140.59,249.75L140.66,251.03L141.19,249.75L141.55,248.47L141.56,251.03L142.11,245.92L142.11,245.92L142.56,244.64L142.57,242.08L143.14,243.36L143.5,242.08L144.01,239.53L144.05,238.25L144.12,236.97L144.17,240.81L144.73,239.53L144.75,240.81L145.17,238.25L145.82,239.53L146.22,235.7L146.47,247.19L147.05,245.92L147.15,243.36L147.8,243.36L147.88,244.64L147.89,243.36L147.91,245.92L149.11,244.64L149.77,243.36L149.89,245.92L150.72,244.64L150.74,245.92L151.4,242.08L151.46,243.36L152.04,244.64L152.66,243.36L152.66,244.64L152.7,243.36L153.8,242.08L153.81,243.36L153.99,239.53L154.27,239.53L154.78,238.25L156.1,233.14L156.63,234.42L156.63,233.14L157.31,239.53L157.68,238.25L158.9,236.97L159.24,238.25L161.69,231.87L161.84,233.14L162.37,228.03L162.67,226.76L164,219.09L164.74,217.82L164.75,219.09L165.14,217.82L166.25,216.54L166.31,215.26L166.77,220.37L167.22,219.09L168.29,216.54L168.29,215.26L168.31,213.98L168.53,222.92L169.83,221.65L170.07,219.09L171.2,217.82L171.94,222.92L172.3,221.65L175.25,211.43L175.32,210.15L175.37,211.43L177.15,210.15L177.4,215.26L177.41,216.54L177.41,220.37L177.83,217.82L179.83,216.54L179.85,219.09L180,217.82L180.76,216.54L181.28,211.43L181.29,212.71L181.83,213.98L182.19,215.26L183.11,210.15L183.17,211.43L183.31,212.71L184.16,211.43L184.17,212.71L187.35,207.6L187.45,206.32L188.03,202.49L188.04,203.76L188.47,202.49L188.5,205.04L189.17,203.76L189.35,202.49L190.05,203.76L190.35,202.49L191.11,201.21L191.3,199.93L192.07,197.38L192.21,196.1L192.4,197.38L192.55,194.82L192.56,196.1L193.38,194.82L194.78,185.88L194.78,188.44L195.05,187.16L195.39,184.61L195.71,185.88L196.24,184.61L196.45,182.05L196.92,184.61L197.19,183.33L197.57,180.77L198.15,179.5L199.34,178.22L199.34,179.5L199.42,178.22L199.45,179.5L200.82,178.22L201.57,179.5L202.32,178.22L202.55,176.94L202.55,178.22L204.44,176.94L205.16,175.66L205.17,176.94L205.17,178.22L205.57,176.94L206.42,178.22L206.42,179.5L207.13,179.5L207.31,178.22L208.3,175.66L209.04,174.39L209.7,170.55L210.08,171.83L211.5,166.72L211.83,168L213.28,166.72L213.51,165.45L214.53,164.17L214.65,165.45L215.38,164.17L217.22,160.34L217.52,161.61L217.89,157.78L218.65,156.5L219.09,159.06L219.12,157.78L219.41,156.5L220.16,153.95L220.38,155.23L220.42,156.5L220.44,160.34L221.17,157.78L221.19,156.5L221.63,155.23L222.14,162.89L222.16,161.61L222.9,160.34L223.12,161.61L223.6,157.78L223.73,159.06L224.58,175.66L224.59,174.39L224.65,173.11L225.55,189.71L226.15,188.44L226.15,189.71L226.75,184.61L226.75,185.88L226.91,187.16L227.19,188.44L227.36,185.88L227.47,184.61L228.46,179.5L228.76,178.22L229.25,174.39L229.29,173.11L229.4,178.22L230.34,176.94L232.39,174.39L232.41,173.11L233.01,166.72L233.39,165.45L233.85,166.72L235.54,165.45L236.71,162.89L236.79,161.61L237.66,160.34L238.08,161.61L238.83,159.06L240.72,157.78L241.31,155.23L241.39,153.95L241.55,151.39L242.3,150.12L242.43,151.39L242.62,150.12L243.79,148.84L244.12,145.01L244.14,152.67L244.14,153.95L244.14,155.23L244.7,150.12L245.14,148.84L245.35,150.12L246.33,148.84L246.49,150.12L246.73,148.84L247.33,150.12L247.41,148.84L247.59,153.95L248.03,151.39L248.3,152.67L248.61,151.39L248.63,153.95L248.74,153.95L248.75,155.23L249.78,151.39L250.23,150.12L250.65,147.56L250.79,153.95L251.17,152.67L251.48,151.39L251.63,152.67L251.67,153.95L251.75,152.67L252.07,155.23L252.39,156.5L252.48,153.95L252.52,166.72L252.52,168L252.64,165.45L253.49,187.16L253.66,185.88L253.66,187.16L254.34,185.88L254.56,184.61L255.4,180.77L255.49,182.05L256.82,173.11L256.97,174.39L257.25,173.11L258.51,169.28L258.52,170.55L258.66,171.83L259.27,168L259.58,166.72L259.78,165.45L260.44,166.72L261.07,160.34L261.54,159.06L262.03,153.95L262.04,155.23L262.59,156.5L263.42,151.39L263.61,150.12L264.89,142.45L265.34,141.18L265.54,139.9L266.6,138.62L268.05,130.96L268.47,129.68L269.48,125.85L269.52,127.13L270.9,120.74L271.57,119.46L273.6,113.08L273.6,114.35L276.65,97.75L276.87,99.03L276.88,101.58L277.83,100.3L277.83,101.58L278.56,97.75L279.2,96.47L279.49,97.75L280.68,96.47L280.98,92.64L283.47,93.92L283.64,123.29L284.57,122.02L285.77,123.29L285.93,122.02L285.93,120.74L286.02,124.57L286.2,122.02L286.81,123.29L289.77,122.02L290.52,120.74L291.08,116.91L291.09,115.63L291.21,118.18L291.75,116.91L291.87,115.63L291.92,116.91L292.87,115.63L294.08,122.02L294.19,120.74L294.42,122.02L295.11,116.91L295.78,115.63L295.82,116.91L296.35,111.8L296.72,113.08L297.02,127.13L297.98,125.85L298.15,127.13L298.68,124.57L298.68,125.85L298.69,127.13L299.71,124.57L299.89,125.85L300,123.29L300.45,124.57L300.84,125.85L301.31,127.13L301.84,125.85L303.32,120.74L303.64,119.46L303.97,122.02L304.13,116.91L304.25,118.18L304.31,116.91L304.87,118.18L306.03,116.91L306.05,118.18L306.6,115.63L306.96,114.35L307.28,109.24L307.56,110.52L307.94,111.8L307.95,116.91L308.15,114.35L309.2,113.08L309.94,124.57L309.94,123.29L310.05,122.02L310.07,120.74L310.39,132.24L310.54,132.24L310.64,133.51L310.69,142.45L311.21,141.18L311.4,139.9L311.76,141.18L311.79,139.9L312.09,138.62L312.76,136.07L313.34,134.79L314.06,133.51L314.14,132.24L314.2,130.96L315.04,129.68L315.27,130.96L315.28,129.68L315.92,128.4L316.24,132.24L316.35,128.4L316.82,127.13L317.22,123.29L317.87,122.02L318.07,120.74L319.42,119.46L320.1,115.63L320.16,114.35L321.4,106.69L322.4,105.41L325.16,96.47L326.29,95.19L327.08,92.64L327.91,91.36L328.05,88.81L328.81,90.08L329.18,109.24L329.38,107.97L329.66,109.24L329.95,107.97L329.97,110.52L330.32,109.24L330.97,110.52L331.49,109.24L332.24,110.52L333.39,106.69L334.36,105.41L335.66,104.13L336.01,105.41L336.06,106.69L337.09,105.41L337.62,102.86L338.08,104.13L338.27,102.86L338.7,104.13L338.73,105.41L338.73,106.69L339.42,104.13L340.11,105.41L341.12,141.18L341.41,139.9L341.57,136.07L342.03,141.18L342.19,142.45L343.66,130.96L344.01,129.68L344.14,132.24L344.61,130.96L345.05,129.68L346.05,132.24L346.45,130.96L347.23,129.68L347.33,130.96L348.31,128.4L348.66,127.13L349.08,128.4L349.46,127.13L350.06,125.85L350.31,124.57L350.52,122.02L351.65,120.74L351.93,119.46L353.04,118.18L354.67,113.08L354.67,114.35L354.7,115.63L355.68,110.52L356.21,111.8L357.08,106.69L357.08,107.97L357.58,106.69L357.63,107.97L358.26,105.41L358.27,104.13L358.38,101.58L359.7,100.3L360.56,97.75L360.6,96.47L361.43,93.92L361.77,92.64L362.72,97.75L363.11,96.47L363.3,95.19L364.84,92.64L365.05,93.92L366.17,91.36L366.74,90.08L368.32,84.97L368.94,83.7L369.32,82.42L369.53,83.7L369.59,84.97L369.61,83.7L370.5,82.42L371.64,79.87L371.76,78.59L372.76,77.31L372.77,78.59L372.85,96.47L373.5,92.64L373.77,93.92L374.4,91.36L374.64,90.08L375.4,91.36L376.33,90.08L376.96,86.25L377.07,87.53L377.36,86.25L378.66,83.7L379.52,82.42L380.15,79.87L380.15,78.59L380.15,72.2L381.43,70.92L382.47,67.09L384,68.37L384,70.92L384.42,67.09L384.42,68.37L384.78,67.09L385.29,68.37L385.61,67.09L385.62,65.82L385.88,67.09L386.76,65.82L386.91,64.54L386.91,65.82L388.24,67.09L388.89,65.82L388.95,67.09L389.12,68.37L389.12,69.65L389.74,69.65L390.06,70.92L390.26,84.97L391.25,86.25L392.28,83.7L392.81,82.42L392.94,79.87L392.98,83.7L393.4,84.97L394.63,76.03L394.64,77.31L394.64,76.03L394.67,82.42L394.98,79.87L395.55,78.59L396.87,74.76L398.01,73.48L398.73,69.65L399.45,68.37L399.83,64.54L400.31,67.09L400.57,65.82L401.61,59.43L401.61,60.71L403.06,59.43L403.84,53.04L403.85,54.32L403.85,55.6L404.68,54.32L405.01,55.6L405.05,54.32L405.57,53.04L406.13,50.49L406.79,51.76L407.75,47.93L408.39,46.66L409.02,44.1L409.25,45.38L409.38,46.66L409.7,47.93L409.91,46.66L411.1,47.93L413.52,38.99L413.8,37.71L414.8,36.44L415.54,37.71L416.64,33.88L416.73,32.61L416.79,33.88L416.96,28.77L417.58,30.05L417.66,27.5L418.82,26.22L418.99,23.66L419.18,26.22L419.44,27.5L419.84,26.22L420.01,27.5L420.04,28.77L420.32,31.33L420.86,30.05L421.91,22.39L421.95,26.22L422.62,24.94L422.7,23.66L422.91,26.22L423.15,26.22L423.32,27.5L424.12,22.39L424.45,23.66L424.59,27.5L425.09,22.39L425.43,21.11L426.01,18.55L426.02,19.83L426.08,21.11L426.64,16L426.74,18.55L427.01,19.83L427.18,17.28L427.32,28.77L427.32,30.05L427.72,36.44L428.02,24.94L428.1,26.22L428.72,33.88L428.75,30.05L428.88,31.33L430.58,22.39L430.64,23.66L430.78,36.44L431.19,31.33L431.48,30.05L431.52,32.61L432.05,30.05L432.64,28.77L433.29,32.61L433.57,31.33L433.8,30.05L433.95,32.61L434.03,31.33L434.61,30.05L435.27,40.27L435.29,38.99L435.68,37.71L435.75,36.44L436.08,40.27L436.35,38.99L436.69,37.71L437.12,33.88L437.3,36.44L437.84,35.16L438.27,31.33L438.67,32.61L438.67,33.88L439.25,51.76L439.54,53.04L440.18,49.21L441.03,47.93L441.16,51.76L442.16,53.04L443.27,50.49L443.31,49.21L443.47,50.49L443.85,49.21L444.32,47.93L444.79,45.38L444.91,49.21L445.04,47.93L445.29,46.66L445.94,44.1L446.3,45.38L446.93,51.76L447.16,49.21L447.19,47.93L447.65,51.76L447.9,51.76L448.04,50.49L448.44,41.55L448.82,49.21L448.92,47.93L449.2,44.1L449.32,51.76L449.32,53.04L449.93,44.1L450.05,46.66L450.18,45.38L450.54,41.55L450.76,42.82L450.96,44.1L451.21,41.55L451.38,51.76L451.38,53.04L451.67,69.65L452.1,64.54L452.2,65.82L452.2,67.09L452.97,65.82L453.21,63.26L453.25,72.2L453.27,73.48L453.69,70.92L453.79,72.2L454.2,70.92L454.25,72.2L454.35,69.65L454.97,68.37L455.61,64.54L455.8,63.26L456.55,56.87L456.81,59.43L456.84,60.71L457,59.43L457.37,65.82L457.96,64.54L458.09,65.82L458.36,63.26L458.53,64.54L458.88,65.82L459.54,55.6L459.85,54.32L459.87,53.04L459.96,56.87L460.31,54.32L460.81,53.04L460.83,54.32L461.42,44.1L461.45,46.66L462.26,45.38L462.76,41.55L463.32,42.82L463.46,40.27L463.74,46.66L464.12,45.38L464.14,44.1L464.47,42.82L464.73,45.38L465.03,44.1L465.21,46.66L465.58,44.1L465.93,45.38L466.47,38.99L466.82,41.55L466.88,42.82L467.01,41.55L467.04,45.38L467.48,42.82L467.92,41.55L467.93,40.27L468.48,51.76L468.5,49.21L468.64,47.93L469.9,51.76L470.09,50.49L470.35,53.04L470.81,51.76L471.07,50.49L472.08,55.6L472.22,53.04L472.25,51.76L472.36,49.21L472.92,53.04L472.93,53.04L473.28,51.76L473.53,47.93L473.93,51.76L473.96,53.04L474.28,51.76L475.13,72.2L475.4,70.92L475.49,69.65L476.24,67.09L476.26,65.82L477.13,55.6L477.22,56.87L477.3,54.32L477.41,65.82L477.7,64.54L477.7,65.82L478.26,64.54L478.28,65.82L478.55,67.09L478.95,74.76L479.24,72.2L479.39,70.92L479.51,65.82L480.13,67.09L480.15,65.82L480.38,63.26L480.41,68.37L480.57,67.09L481.05,68.37L481.33,69.65L481.98,64.54L482.28,65.82L482.3,69.65L483,67.09L483.13,68.37L483.58,65.82L484.3,64.54L484.57,59.43L484.88,64.54L485.19,63.26L486.32,53.04L487.1,54.32L487.63,67.09L488.04,65.82L488.14,68.37L488.49,60.71L488.66,61.98L488.92,60.71L489.4,68.37L490.1,67.09L490.3,65.82L490.63,68.37L490.63,69.65L491.29,67.09L491.54,81.14L491.63,79.87L491.63,77.31L492.2,84.97L492.49,83.7L492.7,84.97L494.18,83.7L494.78,84.97L495.08,83.7L495.54,84.97L495.56,83.7L496.11,82.42L496.11,81.14L496.37,84.97L496.45,83.7L497.09,82.42L497.31,83.7L497.64,82.42L498.04,81.14L498.12,78.59L498.26,82.42L498.56,81.14L499.09,79.87L499.17,78.59L499.6,83.7L499.6,84.97L500.72,81.14L501.11,82.42L501.37,79.87L501.68,81.14L501.68,82.42L501.72,84.97L502.28,84.97L502.46,83.7L503.26,76.03L503.28,78.59L503.29,79.87L503.29,81.14L503.44,78.59L504.31,79.87L504.31,78.59L504.59,78.59L505.76,77.31L506.32,73.48L506.45,74.76L506.57,76.03L507.77,68.37L508.17,69.65L508.18,70.92L508.48,65.82L508.65,67.09L509.19,65.82L509.77,68.37L509.78,69.65L510.27,68.37L510.33,69.65L510.63,68.37L510.63,67.09L511.35,69.65L511.55,68.37L511.64,67.09L512.57,65.82L513.2,67.09L513.64,65.82L514.4,60.71L514.64,59.43L514.66,60.71L514.81,59.43L515.54,58.15L515.81,60.71L516.27,59.43L516.38,60.71L516.8,55.6L516.96,58.15L517.24,59.43L517.51,55.6L519.31,56.87L519.65,53.04L520.29,54.32L520.55,67.09L521,63.26L521.13,64.54L521.26,67.09L521.85,65.82L522.25,64.54L522.58,60.71L523.53,59.43L523.66,56.87L524.7,55.6L525.37,53.04L525.48,51.76L525.61,49.21L527.05,50.49L527.48,69.65L527.77,67.09L527.85,65.82L527.91,68.37L528.66,67.09L529.61,63.26L529.61,64.54L530.35,70.92L530.39,69.65L530.83,68.37L531.47,63.26L531.51,64.54L531.96,63.26L534.48,58.15L534.81,56.87L535.45,54.32L535.93,53.04L536.9,50.49L536.96,49.21L537.16,50.49L537.81,49.21L538.48,46.66L540,45.38" style="vector-effect: none; fill: none; stroke: rgb(255, 127, 14); stroke-opacity: 1; stroke-width: 2px; opacity: 1;"/></g><g class="points"/><g class="text"/></g></g></g></g><g class="zerolinelayer-above"/><path class="xlines-above crisp" d="M0,0" style="fill: none;"/><path class="ylines-above crisp" d="M0,0" style="fill: none;"/><g class="overlines-above"/><g class="xaxislayer-above"><g class="xtick"><text text-anchor="middle" x="0" y="439" transform="translate(101.2,0)" style="font-family: 'Open Sans'; font-size: 18px; fill: rgb(255, 255, 255); fill-opacity: 1; white-space: pre;">2016</text></g><g class="xtick"><text text-anchor="middle" x="0" y="439" style="font-family: 'Open Sans'; font-size: 18px; fill: rgb(255, 255, 255); fill-opacity: 1; white-space: pre;" transform="translate(206.38,0)">2018</text></g><g class="xtick"><text text-anchor="middle" x="0" y="439" style="font-family: 'Open Sans'; font-size: 18px; fill: rgb(255, 255, 255); fill-opacity: 1; white-space: pre;" transform="translate(311.40999999999997,0)">2020</text></g><g class="xtick"><text text-anchor="middle" x="0" y="439" style="font-family: 'Open Sans'; font-size: 18px; fill: rgb(255, 255, 255); fill-opacity: 1; white-space: pre;" transform="translate(416.59,0)">2022</text></g><g class="xtick"><text text-anchor="middle" x="0" y="439" style="font-family: 'Open Sans'; font-size: 18px; fill: rgb(255, 255, 255); fill-opacity: 1; white-space: pre;" transform="translate(521.63,0)">2024</text></g></g><g class="yaxislayer-above"><g class="ytick"><text text-anchor="end" x="79" y="6.3" transform="translate(0,420)" style="font-family: 'Open Sans'; font-size: 18px; fill: rgb(255, 255, 255); fill-opacity: 1; white-space: pre;">0</text></g><g class="ytick"><text text-anchor="end" x="79" y="6.3" style="font-family: 'Open Sans'; font-size: 18px; fill: rgb(255, 255, 255); fill-opacity: 1; white-space: pre;" transform="translate(0,356.13)">50</text></g><g class="ytick"><text text-anchor="end" x="79" y="6.3" style="font-family: 'Open Sans'; font-size: 18px; fill: rgb(255, 255, 255); fill-opacity: 1; white-space: pre;" transform="translate(0,292.27)">100</text></g><g class="ytick"><text text-anchor="end" x="79" y="6.3" style="font-family: 'Open Sans'; font-size: 18px; fill: rgb(255, 255, 255); fill-opacity: 1; white-space: pre;" transform="translate(0,228.4)">150</text></g><g class="ytick"><text text-anchor="end" x="79" y="6.3" style="font-family: 'Open Sans'; font-size: 18px; fill: rgb(255, 255, 255); fill-opacity: 1; white-space: pre;" transform="translate(0,164.54000000000002)">200</text></g><g class="ytick"><text text-anchor="end" x="79" y="6.3" style="font-family: 'Open Sans'; font-size: 18px; fill: rgb(255, 255, 255); fill-opacity: 1; white-space: pre;" transform="translate(0,100.67)">250</text></g></g><g class="overaxes-above"/></g></g><g class="polarlayer"/><g class="smithlayer"/><g class="ternarylayer"/><g class="geolayer"/><g class="funnelarealayer"/><g class="pielayer"/><g class="iciclelayer"/><g class="treemaplayer"/><g class="sunburstlayer"/><g class="glimages"/><defs id="topdefs-a5d9c5"><g class="clips"/></defs><g class="layer-above"><g class="imagelayer"/><g class="shapelayer"/></g><g class="infolayer"><g class="g-gtitle"><text class="gtitle" x="35" y="50" text-anchor="start" dy="0em" style="opacity: 1; font-family: 'Open Sans'; font-size: 25px; fill: rgb(255, 255, 255); fill-opacity: 1; white-space: pre;">MultiQC/MultiQC - Open Issues Over Time</text></g><g class="g-xtitle"><text class="xtitle" x="350" y="472.9" text-anchor="middle" style="opacity: 1; font-family: 'Open Sans'; font-size: 22px; fill: rgb(255, 255, 255); fill-opacity: 1; white-space: pre;">Date</text></g><g class="g-ytitle"><text class="ytitle" transform="rotate(-90,29.799999999999997,260)" x="29.799999999999997" y="260" text-anchor="middle" style="opacity: 1; font-family: 'Open Sans'; font-size: 22px; fill: rgb(255, 255, 255); fill-opacity: 1; white-space: pre;">Number of Open Issues</text></g></g></svg>