<svg class="main-svg" xmlns="http://www.w3.org/2000/svg" xmlns:xlink="http://www.w3.org/1999/xlink" width="700" height="500" style="" viewBox="0 0 700 500"><rect x="0" y="0" width="700" height="500" style="fill: rgb(0, 0, 0); fill-opacity: 0;"/><defs id="defs-d1cead"><g class="clips"><clipPath id="clipd1ceadxyplot" class="plotclip"><rect width="540" height="320"/></clipPath><clipPath class="axesclip" id="clipd1ceadx"><rect x="80" y="0" width="540" height="500"/></clipPath><clipPath class="axesclip" id="clipd1ceady"><rect x="0" y="100" width="700" height="320"/></clipPath><clipPath class="axesclip" id="clipd1ceadxy"><rect x="80" y="100" width="540" height="320"/></clipPath></g><g class="gradients"/><g class="patterns"/></defs><g class="bglayer"><rect class="bg" x="80" y="100" width="540" height="320" style="fill: rgb(0, 0, 0); fill-opacity: 0; stroke-width: 0;"/></g><g class="layer-below"><g class="imagelayer"/><g class="shapelayer"/></g><g class="cartesianlayer"><g class="subplot xy"><g class="layer-subplot"><g class="shapelayer"/><g class="imagelayer"/></g><g class="minor-gridlayer"><g class="x"/><g class="y"/></g><g class="gridlayer"><g class="x"><path class="xgrid crisp" transform="translate(100.55,0)" d="M0,100v320" style="stroke: rgb(255, 255, 255); stroke-opacity: 1; stroke-width: 1px;"/><path class="xgrid crisp" transform="translate(202.51999999999998,0)" d="M0,100v320" style="stroke: rgb(255, 255, 255); stroke-opacity: 1; stroke-width: 1px;"/><path class="xgrid crisp" transform="translate(304.35,0)" d="M0,100v320" style="stroke: rgb(255, 255, 255); stroke-opacity: 1; stroke-width: 1px;"/><path class="xgrid crisp" transform="translate(406.32,0)" d="M0,100v320" style="stroke: rgb(255, 255, 255); stroke-opacity: 1; stroke-width: 1px;"/><path class="xgrid crisp" transform="translate(508.15,0)" d="M0,100v320" style="stroke: rgb(255, 255, 255); stroke-opacity: 1; stroke-width: 1px;"/><path class="xgrid crisp" transform="translate(610.13,0)" d="M0,100v320" style="stroke: rgb(255, 255, 255); stroke-opacity: 1; stroke-width: 1px;"/></g><g class="y"><path class="ygrid crisp" transform="translate(0,337.57)" d="M80,0h540" style="stroke: rgb(255, 255, 255); stroke-opacity: 1; stroke-width: 1px;"/><path class="ygrid crisp" transform="translate(0,255.14)" d="M80,0h540" style="stroke: rgb(255, 255, 255); stroke-opacity: 1; stroke-width: 1px;"/><path class="ygrid crisp" transform="translate(0,172.70999999999998)" d="M80,0h540" style="stroke: rgb(255, 255, 255); stroke-opacity: 1; stroke-width: 1px;"/></g></g><g class="zerolinelayer"><path class="yzl zl crisp" transform="translate(0,420)" d="M80,0h540" style="stroke: rgb(255, 255, 255); stroke-opacity: 1; stroke-width: 2px;"/></g><g class="layer-between"><g class="shapelayer"/><g class="imagelayer"/></g><path class="xlines-below"/><path class="ylines-below"/><g class="overlines-below"/><g class="xaxislayer-below"/><g class="yaxislayer-below"/><g class="overaxes-below"/><g class="overplot"><g class="xy" transform="translate(80,100)" clip-path="url(#clipd1ceadxyplot)"><g class="scatterlayer mlayer"><g class="trace scatter trace538c02" style="stroke-miterlimit: 2;"><g class="fills"><g><path class="js-fill" d="M540,320L0,320L0,319.84L0,319.51L1.92,319.34L3.74,318.35L4.44,318.19L5.03,317.03L5.4,316.87L5.99,315.88L6.28,315.71L8.75,312.09L9.47,311.92L9.91,310.6L10.31,310.44L10.74,310.11L11.41,309.94L12.4,307.8L12.4,307.64L13.15,306.65L13.38,306.48L13.81,305.33L14.32,305.16L15.47,304.67L16.67,304.5L18.11,303.35L18.24,303.18L23.43,302.2L24.26,302.03L25.38,301.54L25.93,301.37L27.05,300.05L28.88,299.89L31.8,298.07L32.98,297.91L36.83,295.11L36.85,294.94L37.13,294.28L37.76,294.12L39.89,291.97L39.89,291.81L40.56,291.15L40.85,290.98L43.07,289.01L44.33,288.84L46.58,286.7L46.59,286.53L51.76,284.06L52.4,283.9L53.42,282.91L54.54,282.74L58.6,279.61L60.16,279.44L63.37,276.48L63.47,276.31L63.58,275.98L64.34,275.82L66.87,274.5L66.91,274.33L67.22,274L67.95,273.84L69.09,273.51L70.03,273.34L70.84,272.19L71.23,272.03L77.01,270.05L77.12,269.88L79.21,268.4L79.82,268.23L80.16,267.41L81.03,267.25L81.21,266.59L82.34,266.42L84.79,264.61L84.84,264.44L95.26,259.99L95.29,259.83L99.31,257.68L99.43,257.52L100.16,255.05L100.44,254.88L109.87,249.61L111.14,249.44L115.65,247.63L116.33,247.46L118.98,246.31L119.13,246.14L119.91,245.65L120.09,245.48L120.93,244.82L122.9,244.66L132.59,238.23L133.65,238.07L135.86,237.24L136.3,237.08L137.77,235.43L138.21,235.26L138.77,234.77L139.12,234.6L141.52,233.12L141.76,232.95L145.2,231.64L145.2,231.47L149.22,230.15L149.26,229.99L150.06,229.16L150.21,229L156.23,227.18L156.3,227.02L158.32,225.54L158.32,225.37L160.1,224.71L161.18,224.55L161.24,224.38L162.11,224.22L167.42,222.07L167.84,221.91L168.9,221.25L169.47,221.08L169.97,220.26L171.74,220.1L178.29,217.62L178.55,217.46L181.99,216.14L182.15,215.97L182.72,215.31L183.29,215.15L183.57,214.82L184.55,214.66L185.28,214.33L185.46,214.16L186.37,213.17L186.45,213.01L189.1,211.19L189.28,211.03L190.45,210.2L191.17,210.04L192.1,209.38L193.25,209.21L193.33,209.05L194.7,208.89L199.06,207.73L199.29,207.57L202.81,206.41L202.84,206.25L205.04,205.26L206.77,205.09L207.98,204.76L208.81,204.6L212.44,203.11L212.71,202.95L217.73,199.65L217.79,199.49L219.58,198.33L219.59,198.17L222.3,195.7L223.31,195.53L225.56,194.54L225.69,194.38L226.27,194.05L228.35,193.88L233.95,192.23L234.02,192.07L234.9,191.57L235.21,191.41L236.87,190.42L236.96,190.26L237.66,189.6L238.82,189.43L240.46,188.28L241.02,188.11L241.74,187.29L242.16,187.12L242.85,186.3L242.94,186.13L243.81,185.48L244.07,185.31L244.93,184.49L244.95,184.32L247.84,182.67L247.97,182.51L248.98,181.52L249.4,181.35L252.6,179.7L252.61,179.54L263.68,172.62L264.55,172.45L265.62,171.46L266.16,171.3L266.73,170.47L267.1,170.31L272.41,168.33L275.89,168.16L282.2,166.68L282.21,166.52L285.64,164.87L285.86,164.7L289.05,163.05L289.56,162.89L289.84,162.39L290.57,162.23L293.06,161.41L293.49,161.24L300.48,156.3L300.59,156.13L301.39,154.98L301.71,154.81L304.61,153L305.42,152.83L308.36,150.69L309.68,150.52L311.18,149.21L311.33,149.04L315.24,147.39L316.33,147.23L317.1,146.9L317.91,146.73L318.04,146.4L319.13,146.24L319.88,145.41L320.24,145.25L328.78,143.27L329.06,143.11L331.84,141.95L331.87,141.79L333.18,140.47L333.52,140.3L339.78,138L339.82,137.83L344.16,136.51L344.24,136.35L346.18,134.86L346.67,134.7L350.73,132.56L351.64,132.39L359.2,129.92L359.95,129.75L367.94,126.29L368.55,126.13L368.55,124.97L369.79,124.81L370.8,124.31L372.6,124.15L373.04,123.65L373.84,123.49L373.85,123.32L374.96,123.16L375.1,122.99L376.62,122.83L381.93,120.52L381.94,120.36L382.89,119.2L382.93,119.04L388.35,116.73L388.48,116.56L395.93,112.94L396.33,112.77L397.4,112.28L398.93,112.11L402.14,110.79L403.37,110.63L404.15,109.64L404.24,109.48L408.62,107.66L408.73,107.5L414.96,102.06L414.96,101.89L415.67,100.57L415.93,100.41L419.67,97.28L420.34,97.11L427.57,92L429.34,91.84L433.51,89.36L433.54,89.2L434.37,87.55L434.4,87.38L437.44,81.61L437.99,81.45L438.31,80.79L439.15,80.62L440.49,79.14L441.09,78.98L441.71,78.48L441.89,78.32L444.37,76.5L444.89,76.34L446.27,73.54L446.75,73.37L448.64,71.39L449.27,71.23L450.11,70.07L450.3,69.91L451.94,68.75L451.94,68.59L452.76,67.6L453.08,67.44L454.99,65.46L455.74,65.29L457.85,64.14L457.95,63.97L460.59,61.34L460.61,61.17L461.83,59.85L461.84,59.69L462.57,58.86L462.7,58.7L462.96,58.04L463.66,57.87L464.55,56.56L464.76,56.39L465.5,55.57L465.62,55.4L467.27,53.75L467.86,53.59L469.67,52.1L469.78,51.94L471.18,50.79L471.39,50.62L471.48,50.46L472.73,50.29L473.38,49.3L473.56,49.14L474,48.31L474.38,48.15L475.15,47.82L475.34,47.65L476.63,46.66L476.63,46.5L486.05,42.54L486.07,42.38L487.71,41.22L487.9,41.06L488.08,40.73L488.92,40.56L492.85,37.93L492.97,37.76L498.51,35.78L498.67,35.62L499.1,34.96L499.81,34.79L501.65,33.64L501.72,33.48L504.69,32.49L504.73,32.32L505.93,31L506.32,30.84L506.63,30.34L507.56,30.18L507.68,29.85L508.69,29.68L512.6,27.87L512.76,27.7L515.26,26.22L515.29,26.06L526.42,21.77L526.45,21.61L527.95,20.29L527.95,20.12L528.39,19.13L528.79,18.97L533.01,17.98L533.17,17.81L536.46,16.82L536.76,16.66L537.1,16.33L538.97,16.16L540,16" style="fill: rgb(255, 127, 14); fill-opacity: 0.5; stroke-width: 0;"/></g></g><g class="errorbars"/><g class="lines"><path class="js-line" d="M0,319.84L0,319.51L1.92,319.34L3.74,318.35L4.44,318.19L5.03,317.03L5.4,316.87L5.99,315.88L6.28,315.71L8.75,312.09L9.47,311.92L9.91,310.6L10.31,310.44L10.74,310.11L11.41,309.94L12.4,307.8L12.4,307.64L13.15,306.65L13.38,306.48L13.81,305.33L14.32,305.16L15.47,304.67L16.67,304.5L18.11,303.35L18.24,303.18L23.43,302.2L24.26,302.03L25.38,301.54L25.93,301.37L27.05,300.05L28.88,299.89L31.8,298.07L32.98,297.91L36.83,295.11L36.85,294.94L37.13,294.28L37.76,294.12L39.89,291.97L39.89,291.81L40.56,291.15L40.85,290.98L43.07,289.01L44.33,288.84L46.58,286.7L46.59,286.53L51.76,284.06L52.4,283.9L53.42,282.91L54.54,282.74L58.6,279.61L60.16,279.44L63.37,276.48L63.47,276.31L63.58,275.98L64.34,275.82L66.87,274.5L66.91,274.33L67.22,274L67.95,273.84L69.09,273.51L70.03,273.34L70.84,272.19L71.23,272.03L77.01,270.05L77.12,269.88L79.21,268.4L79.82,268.23L80.16,267.41L81.03,267.25L81.21,266.59L82.34,266.42L84.79,264.61L84.84,264.44L95.26,259.99L95.29,259.83L99.31,257.68L99.43,257.52L100.16,255.05L100.44,254.88L109.87,249.61L111.14,249.44L115.65,247.63L116.33,247.46L118.98,246.31L119.13,246.14L119.91,245.65L120.09,245.48L120.93,244.82L122.9,244.66L132.59,238.23L133.65,238.07L135.86,237.24L136.3,237.08L137.77,235.43L138.21,235.26L138.77,234.77L139.12,234.6L141.52,233.12L141.76,232.95L145.2,231.64L145.2,231.47L149.22,230.15L149.26,229.99L150.06,229.16L150.21,229L156.23,227.18L156.3,227.02L158.32,225.54L158.32,225.37L160.1,224.71L161.18,224.55L161.24,224.38L162.11,224.22L167.42,222.07L167.84,221.91L168.9,221.25L169.47,221.08L169.97,220.26L171.74,220.1L178.29,217.62L178.55,217.46L181.99,216.14L182.15,215.97L182.72,215.31L183.29,215.15L183.57,214.82L184.55,214.66L185.28,214.33L185.46,214.16L186.37,213.17L186.45,213.01L189.1,211.19L189.28,211.03L190.45,210.2L191.17,210.04L192.1,209.38L193.25,209.21L193.33,209.05L194.7,208.89L199.06,207.73L199.29,207.57L202.81,206.41L202.84,206.25L205.04,205.26L206.77,205.09L207.98,204.76L208.81,204.6L212.44,203.11L212.71,202.95L217.73,199.65L217.79,199.49L219.58,198.33L219.59,198.17L222.3,195.7L223.31,195.53L225.56,194.54L225.69,194.38L226.27,194.05L228.35,193.88L233.95,192.23L234.02,192.07L234.9,191.57L235.21,191.41L236.87,190.42L236.96,190.26L237.66,189.6L238.82,189.43L240.46,188.28L241.02,188.11L241.74,187.29L242.16,187.12L242.85,186.3L242.94,186.13L243.81,185.48L244.07,185.31L244.93,184.49L244.95,184.32L247.84,182.67L247.97,182.51L248.98,181.52L249.4,181.35L252.6,179.7L252.61,179.54L263.68,172.62L264.55,172.45L265.62,171.46L266.16,171.3L266.73,170.47L267.1,170.31L272.41,168.33L275.89,168.16L282.2,166.68L282.21,166.52L285.64,164.87L285.86,164.7L289.05,163.05L289.56,162.89L289.84,162.39L290.57,162.23L293.06,161.41L293.49,161.24L300.48,156.3L300.59,156.13L301.39,154.98L301.71,154.81L304.61,153L305.42,152.83L308.36,150.69L309.68,150.52L311.18,149.21L311.33,149.04L315.24,147.39L316.33,147.23L317.1,146.9L317.91,146.73L318.04,146.4L319.13,146.24L319.88,145.41L320.24,145.25L328.78,143.27L329.06,143.11L331.84,141.95L331.87,141.79L333.18,140.47L333.52,140.3L339.78,138L339.82,137.83L344.16,136.51L344.24,136.35L346.18,134.86L346.67,134.7L350.73,132.56L351.64,132.39L359.2,129.92L359.95,129.75L367.94,126.29L368.55,126.13L368.55,124.97L369.79,124.81L370.8,124.31L372.6,124.15L373.04,123.65L373.84,123.49L373.85,123.32L374.96,123.16L375.1,122.99L376.62,122.83L381.93,120.52L381.94,120.36L382.89,119.2L382.93,119.04L388.35,116.73L388.48,116.56L395.93,112.94L396.33,112.77L397.4,112.28L398.93,112.11L402.14,110.79L403.37,110.63L404.15,109.64L404.24,109.48L408.62,107.66L408.73,107.5L414.96,102.06L414.96,101.89L415.67,100.57L415.93,100.41L419.67,97.28L420.34,97.11L427.57,92L429.34,91.84L433.51,89.36L433.54,89.2L434.37,87.55L434.4,87.38L437.44,81.61L437.99,81.45L438.31,80.79L439.15,80.62L440.49,79.14L441.09,78.98L441.71,78.48L441.89,78.32L444.37,76.5L444.89,76.34L446.27,73.54L446.75,73.37L448.64,71.39L449.27,71.23L450.11,70.07L450.3,69.91L451.94,68.75L451.94,68.59L452.76,67.6L453.08,67.44L454.99,65.46L455.74,65.29L457.85,64.14L457.95,63.97L460.59,61.34L460.61,61.17L461.83,59.85L461.84,59.69L462.57,58.86L462.7,58.7L462.96,58.04L463.66,57.87L464.55,56.56L464.76,56.39L465.5,55.57L465.62,55.4L467.27,53.75L467.86,53.59L469.67,52.1L469.78,51.94L471.18,50.79L471.39,50.62L471.48,50.46L472.73,50.29L473.38,49.3L473.56,49.14L474,48.31L474.38,48.15L475.15,47.82L475.34,47.65L476.63,46.66L476.63,46.5L486.05,42.54L486.07,42.38L487.71,41.22L487.9,41.06L488.08,40.73L488.92,40.56L492.85,37.93L492.97,37.76L498.51,35.78L498.67,35.62L499.1,34.96L499.81,34.79L501.65,33.64L501.72,33.48L504.69,32.49L504.73,32.32L505.93,31L506.32,30.84L506.63,30.34L507.56,30.18L507.68,29.85L508.69,29.68L512.6,27.87L512.76,27.7L515.26,26.22L515.29,26.06L526.42,21.77L526.45,21.61L527.95,20.29L527.95,20.12L528.39,19.13L528.79,18.97L533.01,17.98L533.17,17.81L536.46,16.82L536.76,16.66L537.1,16.33L538.97,16.16L540,16" style="vector-effect: none; fill: none; stroke: rgb(255, 127, 14); stroke-opacity: 1; stroke-width: 2px; opacity: 1;"/></g><g class="points"/><g class="text"/></g></g></g></g><g class="zerolinelayer-above"/><path class="xlines-above crisp" d="M0,0" style="fill: none;"/><path class="ylines-above crisp" d="M0,0" style="fill: none;"/><g class="overlines-above"/><g class="xaxislayer-above"><g class="xtick"><text text-anchor="middle" x="0" y="439" transform="translate(100.55,0)" style="font-family: 'Open Sans'; font-size: 18px; fill: rgb(0, 0, 0); fill-opacity: 1; white-space: pre;">2016</text></g><g class="xtick"><text text-anchor="middle" x="0" y="439" style="font-family: 'Open Sans'; font-size: 18px; fill: rgb(0, 0, 0); fill-opacity: 1; white-space: pre;" transform="translate(202.51999999999998,0)">2018</text></g><g class="xtick"><text text-anchor="middle" x="0" y="439" style="font-family: 'Open Sans'; font-size: 18px; fill: rgb(0, 0, 0); fill-opacity: 1; white-space: pre;" transform="translate(304.35,0)">2020</text></g><g class="xtick"><text text-anchor="middle" x="0" y="439" style="font-family: 'Open Sans'; font-size: 18px; fill: rgb(0, 0, 0); fill-opacity: 1; white-space: pre;" transform="translate(406.32,0)">2022</text></g><g class="xtick"><text text-anchor="middle" x="0" y="439" style="font-family: 'Open Sans'; font-size: 18px; fill: rgb(0, 0, 0); fill-opacity: 1; white-space: pre;" transform="translate(508.15,0)">2024</text></g><g class="xtick"><text text-anchor="middle" x="0" y="439" style="font-family: 'Open Sans'; font-size: 18px; fill: rgb(0, 0, 0); fill-opacity: 1; white-space: pre;" transform="translate(610.13,0)">2026</text></g></g><g class="yaxislayer-above"><g class="ytick"><text text-anchor="end" x="79" y="6.3" transform="translate(0,420)" style="font-family: 'Open Sans'; font-size: 18px; fill: rgb(0, 0, 0); fill-opacity: 1; white-space: pre;">0</text></g><g class="ytick"><text text-anchor="end" x="79" y="6.3" style="font-family: 'Open Sans'; font-size: 18px; fill: rgb(0, 0, 0); fill-opacity: 1; white-space: pre;" transform="translate(0,337.57)">500</text></g><g class="ytick"><text text-anchor="end" x="79" y="6.3" style="font-family: 'Open Sans'; font-size: 18px; fill: rgb(0, 0, 0); fill-opacity: 1; white-space: pre;" transform="translate(0,255.14)">1000</text></g><g class="ytick"><text text-anchor="end" x="79" y="6.3" style="font-family: 'Open Sans'; font-size: 18px; fill: rgb(0, 0, 0); fill-opacity: 1; white-space: pre;" transform="translate(0,172.70999999999998)">1500</text></g></g><g class="overaxes-above"/></g></g><g class="polarlayer"/><g class="smithlayer"/><g class="ternarylayer"/><g class="geolayer"/><g class="funnelarealayer"/><g class="pielayer"/><g class="iciclelayer"/><g class="treemaplayer"/><g class="sunburstlayer"/><g class="glimages"/><defs id="topdefs-d1cead"><g class="clips"/></defs><g class="layer-above"><g class="imagelayer"/><g class="shapelayer"/></g><g class="infolayer"><g class="g-gtitle"><text class="gtitle" x="35" y="50" text-anchor="start" dy="0em" style="opacity: 1; font-family: 'Open Sans'; font-size: 25px; fill: rgb(0, 0, 0); fill-opacity: 1; white-space: pre;">MultiQC/MultiQC - Issues Created Over Time</text></g><g class="g-xtitle"><text class="xtitle" x="350" y="472.9" text-anchor="middle" style="opacity: 1; font-family: 'Open Sans'; font-size: 22px; fill: rgb(0, 0, 0); fill-opacity: 1; white-space: pre;">Date</text></g><g class="g-ytitle"><text class="ytitle" transform="rotate(-90,20.799999999999997,260)" x="20.799999999999997" y="260" text-anchor="middle" style="opacity: 1; font-family: 'Open Sans'; font-size: 22px; fill: rgb(0, 0, 0); fill-opacity: 1; white-space: pre;">Cumulative Issues Created</text></g></g></svg>