<svg class="main-svg" xmlns="http://www.w3.org/2000/svg" xmlns:xlink="http://www.w3.org/1999/xlink" width="700" height="500" style="" viewBox="0 0 700 500"><rect x="0" y="0" width="700" height="500" style="fill: rgb(0, 0, 0); fill-opacity: 0;"/><defs id="defs-f45017"><g class="clips"><clipPath id="clipf45017xyplot" class="plotclip"><rect width="540" height="320"/></clipPath><clipPath class="axesclip" id="clipf45017x"><rect x="80" y="0" width="540" height="500"/></clipPath><clipPath class="axesclip" id="clipf45017y"><rect x="0" y="100" width="700" height="320"/></clipPath><clipPath class="axesclip" id="clipf45017xy"><rect x="80" y="100" width="540" height="320"/></clipPath></g><g class="gradients"/><g class="patterns"/></defs><g class="bglayer"><rect class="bg" x="80" y="100" width="540" height="320" style="fill: rgb(0, 0, 0); fill-opacity: 0; stroke-width: 0;"/></g><g class="layer-below"><g class="imagelayer"/><g class="shapelayer"/></g><g class="cartesianlayer"><g class="subplot xy"><g class="layer-subplot"><g class="shapelayer"/><g class="imagelayer"/></g><g class="minor-gridlayer"><g class="x"/><g class="y"/></g><g class="gridlayer"><g class="x"><path class="xgrid crisp" transform="translate(100.23,0)" d="M0,100v320" style="stroke: rgb(255, 255, 255); stroke-opacity: 1; stroke-width: 1px;"/><path class="xgrid crisp" transform="translate(200.61,0)" d="M0,100v320" style="stroke: rgb(255, 255, 255); stroke-opacity: 1; stroke-width: 1px;"/><path class="xgrid crisp" transform="translate(300.86,0)" d="M0,100v320" style="stroke: rgb(255, 255, 255); stroke-opacity: 1; stroke-width: 1px;"/><path class="xgrid crisp" transform="translate(401.24,0)" d="M0,100v320" style="stroke: rgb(255, 255, 255); stroke-opacity: 1; stroke-width: 1px;"/><path class="xgrid crisp" transform="translate(501.48,0)" d="M0,100v320" style="stroke: rgb(255, 255, 255); stroke-opacity: 1; stroke-width: 1px;"/><path class="xgrid crisp" transform="translate(601.87,0)" d="M0,100v320" style="stroke: rgb(255, 255, 255); stroke-opacity: 1; stroke-width: 1px;"/></g><g class="y"><path class="ygrid crisp" transform="translate(0,338.5)" d="M80,0h540" style="stroke: rgb(255, 255, 255); stroke-opacity: 1; stroke-width: 1px;"/><path class="ygrid crisp" transform="translate(0,257)" d="M80,0h540" style="stroke: rgb(255, 255, 255); stroke-opacity: 1; stroke-width: 1px;"/><path class="ygrid crisp" transform="translate(0,175.5)" d="M80,0h540" style="stroke: rgb(255, 255, 255); stroke-opacity: 1; stroke-width: 1px;"/></g></g><g class="zerolinelayer"><path class="yzl zl crisp" transform="translate(0,420)" d="M80,0h540" style="stroke: rgb(255, 255, 255); stroke-opacity: 1; stroke-width: 2px;"/></g><g class="layer-between"><g class="shapelayer"/><g class="imagelayer"/></g><path class="xlines-below"/><path class="ylines-below"/><g class="overlines-below"/><g class="xaxislayer-below"/><g class="yaxislayer-below"/><g class="overaxes-below"/><g class="overplot"><g class="xy" transform="translate(80,100)" clip-path="url(#clipf45017xyplot)"><g class="scatterlayer mlayer"><g class="trace scatter trace0e17db" style="stroke-miterlimit: 2;"><g class="fills"><g><path class="js-fill" d="M540,320L0,320L0,319.84L0,319.51L1.89,319.35L4.37,318.21L4.37,318.04L5.32,316.74L5.48,316.58L6.28,315.6L6.31,315.44L8.62,312.18L9.32,312.01L10.15,310.38L10.57,310.22L11.63,309.24L11.63,309.08L12.36,307.29L12.47,307.12L13.56,305.98L13.56,305.82L14.28,305L15.23,304.84L17.12,303.86L17.58,303.7L17.96,303.37L20.85,303.21L25.84,300.77L25.95,300.6L26.63,300.28L28.43,300.11L31.3,298.32L32.47,298.16L36.26,295.39L36.27,295.22L36.55,294.57L37.17,294.41L39.27,292.45L39.27,292.29L39.93,291.47L40.22,291.31L42.39,289.36L43.64,289.19L45.86,287.07L45.87,286.91L50.95,284.47L51.58,284.3L52.59,283.32L53.69,283.16L57.69,280.06L59.22,279.9L62.39,276.97L62.48,276.8L62.59,276.48L63.33,276.32L65.83,275.01L65.87,274.85L66.17,274.52L66.89,274.36L68.01,274.03L68.93,273.87L69.73,272.73L70.12,272.57L75.81,270.61L75.92,270.45L77.45,269.47L77.96,269.31L78.72,268.17L78.91,268L81.44,266.86L81.67,266.7L81.7,266.37L82.51,266.21L83.21,265.39L83.47,265.23L84.14,264.74L84.47,264.58L84.47,264.25L85.52,264.09L85.54,263.76L86.36,263.6L90.44,262.3L90.9,262.13L92.26,261.32L92.82,261.16L94.16,260.34L94.53,260.18L97.76,258.55L97.77,258.38L98.16,256.59L98.16,256.43L98.88,255.61L99.12,255.45L102.59,253.33L102.94,253.17L105.67,251.7L105.84,251.54L118.04,246.49L118.22,246.32L119.05,245.67L120.99,245.51L130.53,239.15L131.57,238.99L133.47,238.34L133.75,238.17L135.42,236.87L135.5,236.71L136.96,235.56L137.44,235.4L138.13,234.75L138.28,234.59L142.31,232.79L142.94,232.63L142.94,232.47L143.85,232.3L145.73,231.49L146.79,231.33L147.87,230.02L148.73,229.86L149.49,229.37L150.49,229.21L154.32,227.9L154.46,227.74L155.24,227.09L155.41,226.93L167.22,221.71L167.26,221.55L167.33,221.38L169.07,221.22L174.66,219.1L174.76,218.94L179.16,217.31L179.31,217.15L179.87,216.49L180.43,216.33L180.71,216L181.67,215.84L182.39,215.52L182.57,215.35L183.54,214.21L183.7,214.05L184.56,213.72L184.69,213.56L187.45,211.6L187.48,211.44L199.5,208.02L199.52,207.85L200.94,207.04L201.69,206.88L201.85,206.55L203.55,206.39L204.74,206.06L205.55,205.9L209.13,204.43L209.4,204.27L215.06,200.52L215.1,200.36L215.83,200.03L215.98,199.87L218.83,197.1L219.83,196.93L222.04,195.95L222.17,195.79L222.75,195.47L224.79,195.3L230.31,193.67L230.38,193.51L231.24,193.02L231.55,192.86L233.18,191.88L233.27,191.72L233.96,191.06L235.1,190.9L236.71,189.76L237.27,189.6L237.97,188.78L238.39,188.62L239.06,187.8L239.16,187.64L240.01,186.99L240.27,186.83L241.13,185.85L241.65,185.69L259.57,174.28L260.43,174.11L261.49,173.13L262.01,172.97L262.57,172.16L262.94,171.99L268.16,170.04L271.59,169.87L277.8,168.41L277.81,168.24L281.19,166.61L281.4,166.45L286.31,163.68L287.44,163.52L290.11,162.05L290.15,161.89L290.87,161.24L292.07,161.07L294.09,159.12L295.1,158.95L295.96,157.49L296.03,157.32L296.69,156.83L297.01,156.67L299.87,154.88L300.67,154.72L303.56,152.6L304.85,152.43L306.33,151.13L306.48,150.97L308.54,150.31L309.11,150.15L310.33,149.34L311.4,149.17L312.16,148.85L312.95,148.68L313.09,148.36L314.16,148.2L314.9,147.38L315.25,147.22L323.66,145.26L323.94,145.1L326.67,143.96L326.7,143.79L327.99,142.49L328.32,142.33L334.48,140.05L334.53,139.88L338.8,138.58L338.88,138.42L340.79,136.95L341.27,136.78L346.16,134.5L346.55,134.34L347.53,134.01L348.19,133.85L356.72,130.43L356.74,130.26L362.81,127.98L362.81,127.82L362.81,127.17L364.03,127L365.03,126.52L366.8,126.35L367.23,125.86L368.02,125.7L368.03,125.54L369.12,125.37L369.26,125.21L370.75,125.05L375.72,122.93L375.98,122.77L376.78,121.79L376.8,121.63L377.81,120.97L378.59,120.81L380.54,120L381.23,119.83L383.29,118.04L384.67,117.88L385.42,117.06L386.22,116.9L393.69,114.13L394.24,113.96L398.58,111.68L398.61,111.52L401.89,110.38L401.91,110.22L404.67,108.1L404.78,107.93L406.58,106.63L406.71,106.47L407.18,105.98L407.57,105.81L408.28,105.16L408.49,105L409.2,103.04L409.45,102.88L413.79,99.62L414,99.46L414.23,99.13L414.79,98.97L416.35,97.34L416.77,97.18L418.28,96.03L418.74,95.87L419.76,95.06L419.92,94.89L420.91,94.57L422.65,94.4L426.76,91.96L426.79,91.8L427.63,90L427.71,89.84L428.54,88.05L428.59,87.88L429.4,85.6L429.65,85.44L430.2,84.62L430.44,84.46L437.45,79.25L437.96,79.08L439.32,76.31L439.79,76.15L441.65,74.19L442.27,74.03L443.09,72.89L443.28,72.72L444.9,71.58L444.9,71.42L445.71,70.44L446.02,70.28L448.64,68.16L449.34,68L453.33,64.74L453.37,64.57L453.8,63.76L454.42,63.6L455.74,60.99L456.44,60.83L457.52,59.36L457.52,59.2L458.25,58.54L458.37,58.38L459.99,56.75L460.58,56.59L463.28,54.63L463.28,54.47L464.04,53.65L464.14,53.49L465.92,52.51L466,52.35L467.93,50.72L468.8,50.56L469.61,49.42L470.02,49.25L473.48,48.27L473.81,48.11L475.81,46.81L476.32,46.64L477.32,46.16L477.73,45.99L479.17,45.34L479.54,45.18L480.34,44.04L480.48,43.87L483.56,42.57L483.69,42.41L489.42,39.47L490.21,39.31L490.94,38.66L491.16,38.49L491.33,38.17L492.03,38.01L493.84,36.86L493.9,36.7L496.82,35.72L496.87,35.56L498.04,34.26L498.43,34.09L498.74,33.6L499.65,33.44L499.78,33.12L500.76,32.95L504.62,31.16L504.78,31L507.23,29.53L507.27,29.37L518.25,24.97L518.67,24.8L520.55,22.36L523.44,22.19L524.86,21.22L526.64,21.05L526.66,20.89L527.58,20.73L528.74,19.75L530.57,19.59L534.97,18.12L535.25,17.96L537.97,16.82L539.85,16.65L540,16" style="fill: rgb(255, 127, 14); fill-opacity: 0.5; stroke-width: 0;"/></g></g><g class="errorbars"/><g class="lines"><path class="js-line" d="M0,319.84L0,319.51L1.89,319.35L4.37,318.21L4.37,318.04L5.32,316.74L5.48,316.58L6.28,315.6L6.31,315.44L8.62,312.18L9.32,312.01L10.15,310.38L10.57,310.22L11.63,309.24L11.63,309.08L12.36,307.29L12.47,307.12L13.56,305.98L13.56,305.82L14.28,305L15.23,304.84L17.12,303.86L17.58,303.7L17.96,303.37L20.85,303.21L25.84,300.77L25.95,300.6L26.63,300.28L28.43,300.11L31.3,298.32L32.47,298.16L36.26,295.39L36.27,295.22L36.55,294.57L37.17,294.41L39.27,292.45L39.27,292.29L39.93,291.47L40.22,291.31L42.39,289.36L43.64,289.19L45.86,287.07L45.87,286.91L50.95,284.47L51.58,284.3L52.59,283.32L53.69,283.16L57.69,280.06L59.22,279.9L62.39,276.97L62.48,276.8L62.59,276.48L63.33,276.32L65.83,275.01L65.87,274.85L66.17,274.52L66.89,274.36L68.01,274.03L68.93,273.87L69.73,272.73L70.12,272.57L75.81,270.61L75.92,270.45L77.45,269.47L77.96,269.31L78.72,268.17L78.91,268L81.44,266.86L81.67,266.7L81.7,266.37L82.51,266.21L83.21,265.39L83.47,265.23L84.14,264.74L84.47,264.58L84.47,264.25L85.52,264.09L85.54,263.76L86.36,263.6L90.44,262.3L90.9,262.13L92.26,261.32L92.82,261.16L94.16,260.34L94.53,260.18L97.76,258.55L97.77,258.38L98.16,256.59L98.16,256.43L98.88,255.61L99.12,255.45L102.59,253.33L102.94,253.17L105.67,251.7L105.84,251.54L118.04,246.49L118.22,246.32L119.05,245.67L120.99,245.51L130.53,239.15L131.57,238.99L133.47,238.34L133.75,238.17L135.42,236.87L135.5,236.71L136.96,235.56L137.44,235.4L138.13,234.75L138.28,234.59L142.31,232.79L142.94,232.63L142.94,232.47L143.85,232.3L145.73,231.49L146.79,231.33L147.87,230.02L148.73,229.86L149.49,229.37L150.49,229.21L154.32,227.9L154.46,227.74L155.24,227.09L155.41,226.93L167.22,221.71L167.26,221.55L167.33,221.38L169.07,221.22L174.66,219.1L174.76,218.94L179.16,217.31L179.31,217.15L179.87,216.49L180.43,216.33L180.71,216L181.67,215.84L182.39,215.52L182.57,215.35L183.54,214.21L183.7,214.05L184.56,213.72L184.69,213.56L187.45,211.6L187.48,211.44L199.5,208.02L199.52,207.85L200.94,207.04L201.69,206.88L201.85,206.55L203.55,206.39L204.74,206.06L205.55,205.9L209.13,204.43L209.4,204.27L215.06,200.52L215.1,200.36L215.83,200.03L215.98,199.87L218.83,197.1L219.83,196.93L222.04,195.95L222.17,195.79L222.75,195.47L224.79,195.3L230.31,193.67L230.38,193.51L231.24,193.02L231.55,192.86L233.18,191.88L233.27,191.72L233.96,191.06L235.1,190.9L236.71,189.76L237.27,189.6L237.97,188.78L238.39,188.62L239.06,187.8L239.16,187.64L240.01,186.99L240.27,186.83L241.13,185.85L241.65,185.69L259.57,174.28L260.43,174.11L261.49,173.13L262.01,172.97L262.57,172.16L262.94,171.99L268.16,170.04L271.59,169.87L277.8,168.41L277.81,168.24L281.19,166.61L281.4,166.45L286.31,163.68L287.44,163.52L290.11,162.05L290.15,161.89L290.87,161.24L292.07,161.07L294.09,159.12L295.1,158.95L295.96,157.49L296.03,157.32L296.69,156.83L297.01,156.67L299.87,154.88L300.67,154.72L303.56,152.6L304.85,152.43L306.33,151.13L306.48,150.97L308.54,150.31L309.11,150.15L310.33,149.34L311.4,149.17L312.16,148.85L312.95,148.68L313.09,148.36L314.16,148.2L314.9,147.38L315.25,147.22L323.66,145.26L323.94,145.1L326.67,143.96L326.7,143.79L327.99,142.49L328.32,142.33L334.48,140.05L334.53,139.88L338.8,138.58L338.88,138.42L340.79,136.95L341.27,136.78L346.16,134.5L346.55,134.34L347.53,134.01L348.19,133.85L356.72,130.43L356.74,130.26L362.81,127.98L362.81,127.82L362.81,127.17L364.03,127L365.03,126.52L366.8,126.35L367.23,125.86L368.02,125.7L368.03,125.54L369.12,125.37L369.26,125.21L370.75,125.05L375.72,122.93L375.98,122.77L376.78,121.79L376.8,121.63L377.81,120.97L378.59,120.81L380.54,120L381.23,119.83L383.29,118.04L384.67,117.88L385.42,117.06L386.22,116.9L393.69,114.13L394.24,113.96L398.58,111.68L398.61,111.52L401.89,110.38L401.91,110.22L404.67,108.1L404.78,107.93L406.58,106.63L406.71,106.47L407.18,105.98L407.57,105.81L408.28,105.16L408.49,105L409.2,103.04L409.45,102.88L413.79,99.62L414,99.46L414.23,99.13L414.79,98.97L416.35,97.34L416.77,97.18L418.28,96.03L418.74,95.87L419.76,95.06L419.92,94.89L420.91,94.57L422.65,94.4L426.76,91.96L426.79,91.8L427.63,90L427.71,89.84L428.54,88.05L428.59,87.88L429.4,85.6L429.65,85.44L430.2,84.62L430.44,84.46L437.45,79.25L437.96,79.08L439.32,76.31L439.79,76.15L441.65,74.19L442.27,74.03L443.09,72.89L443.28,72.72L444.9,71.58L444.9,71.42L445.71,70.44L446.02,70.28L448.64,68.16L449.34,68L453.33,64.74L453.37,64.57L453.8,63.76L454.42,63.6L455.74,60.99L456.44,60.83L457.52,59.36L457.52,59.2L458.25,58.54L458.37,58.38L459.99,56.75L460.58,56.59L463.28,54.63L463.28,54.47L464.04,53.65L464.14,53.49L465.92,52.51L466,52.35L467.93,50.72L468.8,50.56L469.61,49.42L470.02,49.25L473.48,48.27L473.81,48.11L475.81,46.81L476.32,46.64L477.32,46.16L477.73,45.99L479.17,45.34L479.54,45.18L480.34,44.04L480.48,43.87L483.56,42.57L483.69,42.41L489.42,39.47L490.21,39.31L490.94,38.66L491.16,38.49L491.33,38.17L492.03,38.01L493.84,36.86L493.9,36.7L496.82,35.72L496.87,35.56L498.04,34.26L498.43,34.09L498.74,33.6L499.65,33.44L499.78,33.12L500.76,32.95L504.62,31.16L504.78,31L507.23,29.53L507.27,29.37L518.25,24.97L518.67,24.8L520.55,22.36L523.44,22.19L524.86,21.22L526.64,21.05L526.66,20.89L527.58,20.73L528.74,19.75L530.57,19.59L534.97,18.12L535.25,17.96L537.97,16.82L539.85,16.65L540,16" style="vector-effect: none; fill: none; stroke: rgb(255, 127, 14); stroke-opacity: 1; stroke-width: 2px; opacity: 1;"/></g><g class="points"/><g class="text"/></g></g></g></g><g class="zerolinelayer-above"/><path class="xlines-above crisp" d="M0,0" style="fill: none;"/><path class="ylines-above crisp" d="M0,0" style="fill: none;"/><g class="overlines-above"/><g class="xaxislayer-above"><g class="xtick"><text text-anchor="middle" x="0" y="439" transform="translate(100.23,0)" style="font-family: 'Open Sans'; font-size: 18px; fill: rgb(0, 0, 0); fill-opacity: 1; white-space: pre;">2016</text></g><g class="xtick"><text text-anchor="middle" x="0" y="439" style="font-family: 'Open Sans'; font-size: 18px; fill: rgb(0, 0, 0); fill-opacity: 1; white-space: pre;" transform="translate(200.61,0)">2018</text></g><g class="xtick"><text text-anchor="middle" x="0" y="439" style="font-family: 'Open Sans'; font-size: 18px; fill: rgb(0, 0, 0); fill-opacity: 1; white-space: pre;" transform="translate(300.86,0)">2020</text></g><g class="xtick"><text text-anchor="middle" x="0" y="439" style="font-family: 'Open Sans'; font-size: 18px; fill: rgb(0, 0, 0); fill-opacity: 1; white-space: pre;" transform="translate(401.24,0)">2022</text></g><g class="xtick"><text text-anchor="middle" x="0" y="439" style="font-family: 'Open Sans'; font-size: 18px; fill: rgb(0, 0, 0); fill-opacity: 1; white-space: pre;" transform="translate(501.48,0)">2024</text></g><g class="xtick"><text text-anchor="middle" x="0" y="439" style="font-family: 'Open Sans'; font-size: 18px; fill: rgb(0, 0, 0); fill-opacity: 1; white-space: pre;" transform="translate(601.87,0)">2026</text></g></g><g class="yaxislayer-above"><g class="ytick"><text text-anchor="end" x="79" y="6.3" transform="translate(0,420)" style="font-family: 'Open Sans'; font-size: 18px; fill: rgb(0, 0, 0); fill-opacity: 1; white-space: pre;">0</text></g><g class="ytick"><text text-anchor="end" x="79" y="6.3" style="font-family: 'Open Sans'; font-size: 18px; fill: rgb(0, 0, 0); fill-opacity: 1; white-space: pre;" transform="translate(0,338.5)">500</text></g><g class="ytick"><text text-anchor="end" x="79" y="6.3" style="font-family: 'Open Sans'; font-size: 18px; fill: rgb(0, 0, 0); fill-opacity: 1; white-space: pre;" transform="translate(0,257)">1000</text></g><g class="ytick"><text text-anchor="end" x="79" y="6.3" style="font-family: 'Open Sans'; font-size: 18px; fill: rgb(0, 0, 0); fill-opacity: 1; white-space: pre;" transform="translate(0,175.5)">1500</text></g></g><g class="overaxes-above"/></g></g><g class="polarlayer"/><g class="smithlayer"/><g class="ternarylayer"/><g class="geolayer"/><g class="funnelarealayer"/><g class="pielayer"/><g class="iciclelayer"/><g class="treemaplayer"/><g class="sunburstlayer"/><g class="glimages"/><defs id="topdefs-f45017"><g class="clips"/></defs><g class="layer-above"><g class="imagelayer"/><g class="shapelayer"/></g><g class="infolayer"><g class="g-gtitle"><text class="gtitle" x="35" y="50" text-anchor="start" dy="0em" style="opacity: 1; font-family: 'Open Sans'; font-size: 25px; fill: rgb(0, 0, 0); fill-opacity: 1; white-space: pre;">MultiQC/MultiQC - Issues Created Over Time</text></g><g class="g-xtitle"><text class="xtitle" x="350" y="472.9" text-anchor="middle" style="opacity: 1; font-family: 'Open Sans'; font-size: 22px; fill: rgb(0, 0, 0); fill-opacity: 1; white-space: pre;">Date</text></g><g class="g-ytitle"><text class="ytitle" transform="rotate(-90,20.799999999999997,260)" x="20.799999999999997" y="260" text-anchor="middle" style="opacity: 1; font-family: 'Open Sans'; font-size: 22px; fill: rgb(0, 0, 0); fill-opacity: 1; white-space: pre;">Cumulative Issues Created</text></g></g></svg>