<svg class="main-svg" xmlns="http://www.w3.org/2000/svg" xmlns:xlink="http://www.w3.org/1999/xlink" width="700" height="500" style="" viewBox="0 0 700 500"><rect x="0" y="0" width="700" height="500" style="fill: rgb(0, 0, 0); fill-opacity: 0;"/><defs id="defs-202322"><g class="clips"><clipPath id="clip202322xyplot" class="plotclip"><rect width="540" height="320"/></clipPath><clipPath class="axesclip" id="clip202322x"><rect x="80" y="0" width="540" height="500"/></clipPath><clipPath class="axesclip" id="clip202322y"><rect x="0" y="100" width="700" height="320"/></clipPath><clipPath class="axesclip" id="clip202322xy"><rect x="80" y="100" width="540" height="320"/></clipPath></g><g class="gradients"/><g class="patterns"/></defs><g class="bglayer"><rect class="bg" x="80" y="100" width="540" height="320" style="fill: rgb(0, 0, 0); fill-opacity: 0; stroke-width: 0;"/></g><g class="layer-below"><g class="imagelayer"/><g class="shapelayer"/></g><g class="cartesianlayer"><g class="subplot xy"><g class="layer-subplot"><g class="shapelayer"/><g class="imagelayer"/></g><g class="minor-gridlayer"><g class="x"/><g class="y"/></g><g class="gridlayer"><g class="x"><path class="xgrid crisp" transform="translate(100.15,0)" d="M0,100v320" style="stroke: rgb(255, 255, 255); stroke-opacity: 1; stroke-width: 1px;"/><path class="xgrid crisp" transform="translate(200.11,0)" d="M0,100v320" style="stroke: rgb(255, 255, 255); stroke-opacity: 1; stroke-width: 1px;"/><path class="xgrid crisp" transform="translate(299.95,0)" d="M0,100v320" style="stroke: rgb(255, 255, 255); stroke-opacity: 1; stroke-width: 1px;"/><path class="xgrid crisp" transform="translate(399.92,0)" d="M0,100v320" style="stroke: rgb(255, 255, 255); stroke-opacity: 1; stroke-width: 1px;"/><path class="xgrid crisp" transform="translate(499.75,0)" d="M0,100v320" style="stroke: rgb(255, 255, 255); stroke-opacity: 1; stroke-width: 1px;"/><path class="xgrid crisp" transform="translate(599.72,0)" d="M0,100v320" style="stroke: rgb(255, 255, 255); stroke-opacity: 1; stroke-width: 1px;"/></g><g class="y"><path class="ygrid crisp" transform="translate(0,363.49)" d="M80,0h540" style="stroke: rgb(255, 255, 255); stroke-opacity: 1; stroke-width: 1px;"/><path class="ygrid crisp" transform="translate(0,306.99)" d="M80,0h540" style="stroke: rgb(255, 255, 255); stroke-opacity: 1; stroke-width: 1px;"/><path class="ygrid crisp" transform="translate(0,250.48)" d="M80,0h540" style="stroke: rgb(255, 255, 255); stroke-opacity: 1; stroke-width: 1px;"/><path class="ygrid crisp" transform="translate(0,193.98000000000002)" d="M80,0h540" style="stroke: rgb(255, 255, 255); stroke-opacity: 1; stroke-width: 1px;"/><path class="ygrid crisp" transform="translate(0,137.47)" d="M80,0h540" style="stroke: rgb(255, 255, 255); stroke-opacity: 1; stroke-width: 1px;"/></g></g><g class="zerolinelayer"><path class="yzl zl crisp" transform="translate(0,420)" d="M80,0h540" style="stroke: rgb(255, 255, 255); stroke-opacity: 1; stroke-width: 2px;"/></g><g class="layer-between"><g class="shapelayer"/><g class="imagelayer"/></g><path class="xlines-below"/><path class="ylines-below"/><g class="overlines-below"/><g class="xaxislayer-below"/><g class="yaxislayer-below"/><g class="overaxes-below"/><g class="overplot"><g class="xy" transform="translate(80,100)" clip-path="url(#clip202322xyplot)"><g class="scatterlayer mlayer"><g class="trace scatter trace904f11" style="stroke-miterlimit: 2;"><g class="fills"><g><path class="js-fill" d="M540,320L0,320L0,318.87L0,316.61L0.54,317.74L1.77,318.87L1.88,317.74L2.86,318.87L3.67,313.22L3.69,314.35L4.35,313.22L4.76,308.7L4.93,309.83L5.29,310.96L5.45,307.57L5.73,312.09L5.87,309.83L6.16,310.96L6.82,300.79L6.93,299.66L7.09,298.53L7.35,301.92L7.36,303.05L7.53,294.01L8.2,292.88L8.57,301.92L8.57,303.05L9.29,309.83L9.29,308.7L9.41,307.57L9.72,303.05L9.72,301.92L10.11,300.79L10.14,303.05L10.14,304.18L11.07,307.57L11.18,306.44L11.33,305.31L12.26,289.49L12.3,292.88L12.3,294.01L12.72,297.4L12.89,295.14L13.12,294.01L13.5,288.36L13.65,291.75L14.04,290.62L14.23,289.49L14.35,291.75L15.03,292.88L15.19,296.27L16.34,295.14L16.92,292.88L17.05,291.75L17.75,287.23L17.76,288.36L17.89,287.23L18.31,288.36L20.77,287.23L20.77,288.36L21.16,284.97L21.16,287.23L22.64,286.1L22.82,287.23L22.97,286.1L23.78,284.97L24.48,282.71L24.58,283.84L24.89,282.71L25.61,290.62L25.67,289.49L25.94,286.1L26.38,289.49L26.52,288.36L26.76,289.49L27.89,290.62L29.29,287.23L29.5,288.36L29.54,291.75L29.54,291.75L30.31,290.62L30.77,294.01L31.18,292.88L31.36,298.53L32.23,299.66L32.91,297.4L32.91,298.53L33.05,299.66L33.91,296.27L34.02,297.4L34.61,298.53L34.97,297.4L34.97,298.53L35.11,292.88L35.38,294.01L36.06,292.88L36.28,289.49L36.46,296.27L36.95,297.4L37.02,296.27L37.44,299.66L37.5,300.79L37.72,296.27L38,297.4L38.29,298.53L39.11,292.88L39.23,296.27L39.56,295.14L39.77,292.88L39.92,296.27L40.05,295.14L40.18,296.27L41.13,290.62L41.15,291.75L41.93,288.36L42.22,287.23L42.97,289.49L43.46,288.36L43.76,291.75L44.2,287.23L44.45,288.36L44.52,286.1L44.83,291.75L44.97,292.88L45.53,296.27L45.67,294.01L45.68,292.88L45.77,296.27L46.08,295.14L46.62,296.27L46.62,299.66L46.91,297.4L47.45,298.53L47.82,297.4L47.83,298.53L48.5,297.4L48.5,298.53L48.68,296.27L48.8,296.27L49.61,295.14L50.74,292.88L51.28,294.01L51.28,295.14L51.69,291.75L51.84,294.01L52.27,292.88L52.37,291.75L52.67,295.14L53.47,294.01L54.75,289.49L55.24,288.36L56.43,278.19L56.5,280.45L56.6,281.58L56.6,282.71L57.33,279.32L57.45,278.19L57.46,279.32L58.98,278.19L60.14,271.41L60.25,272.54L61.13,270.28L61.65,269.14L62.34,258.97L62.36,261.23L63.07,260.1L63.71,262.36L63.71,263.49L63.72,269.14L64.01,269.14L64.68,268.01L65.9,264.62L66.62,263.49L66.86,270.28L67.73,269.14L68.79,280.45L68.94,279.32L69.45,278.19L69.45,277.06L69.83,277.06L70.27,278.19L71.31,274.8L71.32,275.93L71.74,274.8L71.76,273.67L71.81,274.8L72.64,273.67L73.39,272.54L73.88,271.41L77.09,262.36L77.09,263.49L77.53,266.88L77.66,263.49L78.05,264.62L78.33,265.75L78.39,262.36L78.59,264.62L79.29,265.75L79.61,260.1L79.62,261.23L80.72,260.1L80.92,261.23L81.11,260.1L81.33,258.97L81.36,257.84L82.05,261.23L82.17,260.1L82.31,261.23L82.86,257.84L82.87,258.97L83,260.1L83.4,264.62L83.79,263.49L84.12,262.36L84.13,260.1L84.23,263.49L85.17,262.36L85.17,263.49L85.19,261.23L85.84,263.49L86,262.36L86.78,264.62L87.1,263.49L87.66,264.62L87.74,265.75L88.05,270.28L88.57,269.14L88.87,277.06L89.14,274.8L89.6,273.67L90.62,270.28L90.75,271.41L90.75,272.54L92.55,265.75L92.57,266.88L94.59,260.1L94.73,261.23L94.73,262.36L95.59,264.62L95.69,265.75L96.52,275.93L96.82,274.8L97.22,277.06L97.22,275.93L97.31,274.8L97.35,277.06L97.76,265.75L97.76,265.75L98.16,264.62L98.47,262.36L98.73,268.01L99.11,266.88L100.07,264.62L100.07,265.75L100.07,266.88L100.19,269.14L100.62,268.01L101.09,266.88L101.43,270.28L101.56,268.01L101.96,266.88L101.98,268.01L102.52,265.75L102.54,266.88L103.1,265.75L103.21,264.62L103.21,265.75L103.88,266.88L103.88,268.01L104.46,266.88L105.01,265.75L105.23,262.36L105.4,262.36L105.81,261.23L107.13,255.58L107.16,256.71L107.24,257.84L109.24,254.45L109.78,255.58L111.14,252.19L111.59,253.32L111.87,252.19L112.68,279.32L112.79,278.19L113.38,275.93L113.65,277.06L114.05,275.93L114.05,277.06L115,275.93L115.39,277.06L115.68,275.93L115.7,274.8L116.36,273.67L116.6,274.8L116.61,277.06L116.82,272.54L117.32,271.41L117.33,272.54L117.73,270.28L117.79,270.28L118.33,269.14L118.33,268.01L118.81,273.67L120.49,272.54L120.7,273.67L120.75,272.54L121.26,271.41L121.68,266.88L122.45,265.75L124.09,261.23L124.45,262.36L124.91,260.1L124.98,261.23L124.98,262.36L125.13,268.01L125.48,265.75L126,264.62L126.5,262.36L126.73,263.49L126.73,264.62L127.32,268.01L128,266.88L128.96,262.36L129.32,263.49L129.99,262.36L131.02,261.23L132.13,257.84L132.91,258.97L133.63,257.84L133.69,258.97L134.19,257.84L134.54,256.71L134.55,258.97L135.07,254.45L135.07,254.45L135.5,253.32L135.5,251.06L136.05,252.19L136.39,251.06L136.88,248.8L136.91,247.67L136.98,246.54L137.03,249.93L137.56,248.8L137.58,249.93L137.98,247.67L138.59,248.8L138.97,245.41L139.22,255.58L139.76,254.45L140.48,252.19L140.55,253.32L140.56,252.19L140.58,254.45L141.72,253.32L142.35,252.19L142.46,254.45L143.25,253.32L143.27,254.45L143.9,251.06L143.96,252.19L144.5,253.32L146.18,251.06L146.19,252.19L147.26,246.54L148.12,245.41L148.36,243.15L148.87,245.41L149.48,246.54L149.51,248.8L149.87,247.67L151.02,246.54L151.35,247.67L151.79,246.54L151.93,245.41L151.93,246.54L152.16,244.28L153.16,243.15L154.04,239.76L154.32,238.63L156.58,229.59L156.58,230.72L158.07,227.33L158.07,228.46L158.5,229.59L158.51,231.85L158.93,230.72L159.56,229.59L159.95,227.33L159.97,226.2L160.18,234.11L161.41,232.98L161.65,230.72L162.72,229.59L163.42,234.11L163.76,232.98L166.57,223.94L166.64,222.81L166.68,223.94L168.37,222.81L168.61,227.33L168.62,228.46L168.62,231.85L169.02,229.59L170.92,228.46L170.94,230.72L171.08,229.59L171.8,228.46L172.3,223.94L172.31,225.07L172.82,226.2L173.16,227.33L174.04,222.81L174.1,223.94L174.22,225.07L175.04,223.94L175.05,225.07L176.01,223.94L176.31,222.81L177.55,221.68L178.16,219.42L178.2,218.29L178.72,216.03L178.73,217.16L179.13,216.03L179.16,218.29L179.8,217.16L179.97,216.03L180.64,217.16L180.92,216.03L181.64,214.9L181.82,213.77L182.56,211.51L182.69,210.38L182.86,211.51L183,209.25L183.02,210.38L183.79,209.25L185.13,201.34L185.13,203.6L185.39,202.47L185.71,200.21L186.01,201.34L186.52,200.21L186.71,197.95L187.16,200.21L187.42,199.08L187.79,196.82L188.33,195.69L189.46,194.56L189.46,195.69L189.54,194.56L189.57,195.69L190.87,194.56L191.59,195.69L192.3,194.56L192.52,193.43L192.52,194.56L194.31,193.43L194.99,192.3L195.01,193.43L195.01,194.56L195.38,193.43L196.19,194.56L196.19,195.69L196.87,195.69L197.03,194.56L197.98,192.3L198.68,191.17L199.31,187.78L199.67,188.91L201.02,184.39L201.33,185.52L202.71,184.39L203.9,182.13L204.01,183.26L206.45,178.74L206.74,179.87L207.1,176.48L207.81,175.35L208.23,177.61L208.27,176.48L208.54,175.35L209.26,173.09L209.46,174.22L209.5,175.35L209.52,178.74L210.23,175.35L210.28,176.48L210.65,174.22L210.73,179.87L210.73,181L211.88,177.61L212,178.74L212.07,179.87L212.52,176.48L212.65,178.74L212.69,179.87L213.32,183.26L213.33,184.39L213.61,199.08L214.1,197.95L214.95,204.73L215.09,203.6L215.1,204.73L215.51,200.21L215.67,202.47L215.94,203.6L217.14,195.69L217.43,194.56L217.89,191.17L217.93,190.04L218.03,194.56L218.93,193.43L220.87,191.17L220.9,190.04L221.47,184.39L221.83,183.26L222.26,184.39L223.87,183.26L224.98,181L225.06,179.87L225.88,178.74L226.29,179.87L227,177.61L228.79,176.48L229.36,174.22L229.43,173.09L230.29,169.7L230.42,170.83L230.6,169.7L231.71,168.57L232.02,165.17L232.04,171.96L232.04,173.09L232.04,174.22L232.58,169.7L233,168.57L233.19,169.7L234.13,168.57L234.27,169.7L234.5,168.57L235.08,169.7L235.15,168.57L235.32,173.09L235.74,170.83L236,171.96L236.29,170.83L236.31,173.09L236.41,173.09L236.42,174.22L237.83,169.7L237.84,170.83L238.23,167.43L238.36,173.09L238.72,171.96L239.02,170.83L239.16,171.96L239.2,173.09L239.28,171.96L239.58,174.22L239.88,175.35L239.97,173.09L240.01,184.39L240.01,185.52L240.12,183.26L240.93,202.47L241.09,201.34L241.09,202.47L241.74,201.34L241.95,200.21L242.74,196.82L242.83,197.95L244.1,190.04L244.24,191.17L244.51,190.04L245.7,186.65L245.71,187.78L245.85,188.91L246.42,185.52L246.72,184.39L246.91,183.26L247.53,184.39L248.14,178.74L248.58,177.61L249.05,173.09L249.06,174.22L249.58,175.35L250.37,170.83L250.55,169.7L251.77,162.91L252.19,161.78L252.38,160.65L253.39,159.52L254.77,152.74L255.17,151.61L256.3,148.22L256.31,149.35L260.04,136.92L260.05,138.05L262.94,123.36L263.15,124.49L263.16,126.75L264.06,125.62L264.06,126.75L264.75,123.36L265.36,122.23L265.65,123.36L266.77,122.23L267.06,118.84L269.43,119.97L269.59,145.96L270.47,144.83L271.61,145.96L271.76,144.83L271.76,143.7L271.84,147.09L272.02,144.83L272.6,145.96L275.41,144.83L276.12,143.7L276.66,140.31L276.67,139.18L276.78,141.44L277.41,139.18L277.45,140.31L278.36,139.18L278.6,140.31L279.12,144.83L279.29,142.57L279.5,143.7L279.8,142.57L279.83,144.83L280.24,142.57L280.48,141.44L281.21,139.18L281.3,138.05L281.67,135.79L282.02,136.92L282.02,138.05L282.3,149.35L283.21,148.22L283.38,149.35L283.88,147.09L283.89,148.22L283.89,149.35L284.86,147.09L285.03,148.22L285.13,145.96L285.57,147.09L285.93,148.22L286.38,149.35L286.88,148.22L288.29,143.7L288.6,142.57L288.91,144.83L289.06,140.31L289.23,140.31L289.61,141.44L289.67,140.31L289.76,141.44L290.87,140.31L290.89,141.44L291.41,139.18L291.75,138.05L292.06,133.53L292.32,134.66L292.69,135.79L292.69,140.31L292.88,138.05L293.88,136.92L294.58,147.09L294.58,145.96L294.68,144.83L294.71,143.7L295.01,153.87L295.16,153.87L295.25,155L295.3,162.91L295.98,160.65L296.32,161.78L297,157.26L297.16,158.39L297.82,156.13L298.34,155L298.36,156.13L298.63,152.74L299.43,151.61L299.65,152.74L299.66,151.61L300.26,150.48L300.57,153.87L300.67,150.48L301.12,149.35L301.5,145.96L302.12,144.83L302.31,143.7L303.59,142.57L304.24,139.18L304.3,138.05L305.48,131.27L306.43,130.14L309.05,122.23L310.12,121.1L310.88,118.84L311.67,117.71L311.8,115.45L312.52,116.58L312.87,133.53L313.06,132.4L313.33,133.53L313.6,132.4L313.62,134.66L313.95,133.53L314.57,134.66L315.07,133.53L315.78,134.66L316.87,131.27L317.79,130.14L319.03,129.01L319.36,130.14L319.41,131.27L320.39,130.14L320.89,127.88L321.33,129.01L321.51,127.88L321.92,129.01L321.95,130.14L321.95,131.27L322.6,129.01L323.26,130.14L324.22,161.78L324.49,160.65L324.65,157.26L325.09,161.78L325.24,162.91L326.63,152.74L326.97,151.61L327.09,153.87L327.54,152.74L327.96,151.61L328.91,153.87L329.29,152.74L330.24,151.61L330.25,152.74L330.83,151.61L331.05,150.48L332.15,148.22L332.7,149.35L333.15,144.83L334.23,143.7L334.49,142.57L335.55,141.44L337.1,136.92L337.1,138.05L337.13,139.18L338.05,134.66L338.56,135.79L339.38,131.27L339.39,132.4L339.86,131.27L339.91,132.4L340.51,129.01L340.56,127.88L340.62,126.75L341.88,125.62L342.7,123.36L342.73,122.23L343.53,119.97L343.84,118.84L344.75,123.36L345.12,122.23L345.3,121.1L346.76,118.84L346.96,119.97L348.03,117.71L348.57,116.58L350.07,112.06L350.66,110.93L351.02,109.8L351.22,110.93L351.28,112.06L351.3,110.93L352.15,109.8L353.23,107.54L353.34,106.41L354.29,105.28L354.3,106.41L354.32,107.54L354.37,122.23L355,118.84L355.25,119.97L355.85,117.71L356.08,116.58L356.8,117.71L357.68,116.58L358.28,113.19L358.39,114.32L358.66,113.19L359.9,110.93L360.71,109.8L361.31,107.54L361.31,106.41L361.31,100.76L362.53,99.63L363.52,96.24L364.97,97.37L364.97,99.63L365.37,96.24L365.71,96.24L366.19,97.37L366.51,95.11L366.76,96.24L367.6,95.11L367.74,93.98L367.74,95.11L369,96.24L369.62,95.11L369.67,96.24L369.84,97.37L369.84,98.5L370.43,98.5L370.73,99.63L370.92,112.06L371.87,113.19L372.85,110.93L373.34,109.8L373.47,107.54L373.51,110.93L373.91,112.06L375.09,104.15L375.11,105.28L375.11,109.8L375.41,107.54L375.95,106.41L377.21,103.02L378.29,101.89L378.98,98.5L379.66,97.37L380.02,93.98L380.48,96.24L380.72,95.11L381.71,89.46L381.71,90.59L383.09,89.46L383.83,83.81L383.84,86.07L384.63,84.94L384.94,86.07L384.98,84.94L385.47,83.81L386.01,81.55L386.63,82.68L387.55,79.29L388.16,78.16L388.75,75.9L388.97,77.03L389.1,78.16L389.4,79.29L389.6,78.16L390.73,79.29L394.25,69.12L394.95,70.25L396,66.86L396.08,65.72L396.14,66.86L396.3,62.33L396.89,63.46L396.97,61.2L398.07,60.07L398.23,57.81L398.41,60.07L398.66,61.2L399.04,60.07L399.2,61.2L399.23,62.33L399.49,64.59L400,63.46L401,56.68L401.05,60.07L401.68,58.94L401.75,57.81L401.96,60.07L402.19,60.07L402.34,61.2L403.11,56.68L403.42,57.81L403.42,58.94L403.55,61.2L404.03,56.68L404.35,55.55L404.9,53.29L404.91,54.42L404.97,55.55L405.5,51.03L405.6,53.29L405.85,54.42L406.01,52.16L406.14,63.46L406.14,64.59L406.53,69.12L406.81,58.94L406.89,60.07L407.48,66.86L407.63,64.59L407.76,63.46L409.25,56.68L409.3,57.81L409.31,58.94L409.36,57.81L409.43,69.12L409.67,66.86L409.68,67.99L410.1,63.46L410.43,64.59L410.52,63.46L410.64,64.59L410.64,63.46L411.2,62.33L411.82,65.72L412.09,64.59L412.31,63.46L412.45,65.72L412.53,64.59L413.08,63.46L413.7,72.51L413.72,71.38L414.09,70.25L414.16,69.12L414.47,72.51L414.73,71.38L415.06,70.25L415.46,66.86L415.63,69.12L416.15,67.99L416.55,64.59L416.94,66.86L416.94,67.99L417.76,83.81L417.96,82.68L418.37,80.42L419.17,79.29L419.31,82.68L420.25,83.81L421.31,81.55L421.35,80.42L421.5,81.55L421.86,80.42L422.31,79.29L422.75,77.03L422.86,80.42L422.99,79.29L423.23,78.16L423.84,75.9L424.19,77.03L424.78,82.68L425,80.42L425.03,79.29L425.47,82.68L425.7,82.68L425.84,81.55L426.22,73.64L426.58,80.42L426.68,79.29L426.95,75.9L427.06,82.68L427.06,83.81L427.63,75.9L427.75,78.16L427.88,77.03L428.22,73.64L428.61,75.9L428.67,74.77L428.85,73.64L428.99,77.03L428.99,78.16L429.29,98.5L429.7,93.98L429.79,95.11L429.8,96.24L430.53,95.11L430.6,93.98L430.75,92.85L430.81,101.89L430.94,99.63L431.05,100.76L431.84,98.5L432.42,97.37L433.22,92.85L433.37,91.72L433.93,87.2L434.2,90.59L434.21,91.72L434.35,89.46L434.62,93.98L434.71,95.11L435.53,93.98L435.65,92.85L436.14,95.11L436.22,91.72L436.26,90.59L436.26,91.72L436.77,86.07L437.06,84.94L437.08,83.81L437.17,87.2L437.51,84.94L437.98,83.81L437.99,84.94L438.56,75.9L438.59,78.16L439.36,77.03L439.83,73.64L440.37,74.77L440.49,72.51L440.76,78.16L441.13,77.03L441.15,75.9L441.45,74.77L441.71,77.03L441.99,75.9L442.16,78.16L442.51,75.9L442.84,77.03L443.35,71.38L443.69,73.64L443.75,74.77L443.87,73.64L443.9,77.03L444.32,74.77L444.74,73.64L444.75,72.51L445.27,82.68L445.42,79.29L445.68,80.42L445.68,79.29L445.96,82.68L446.06,81.55L446.61,82.68L446.8,81.55L447.04,83.81L447.49,82.68L448,81.55L448.05,82.68L448.12,83.81L448.69,86.07L448.69,84.94L448.82,83.81L448.96,80.42L449.5,83.81L449.83,82.68L450.07,79.29L450.44,82.68L450.48,83.81L450.78,82.68L451.58,100.76L451.85,99.63L453.49,86.07L453.58,87.2L453.65,84.94L453.75,95.11L454.03,95.11L454.56,93.98L455.22,103.02L455.36,100.76L455.43,99.63L455.5,100.76L455.76,95.11L456.34,96.24L456.58,92.85L456.61,97.37L456.76,96.24L457.21,97.37L457.48,98.5L458.1,93.98L458.39,95.11L458.41,98.5L459.06,96.24L459.19,97.37L459.62,95.11L460.31,93.98L460.56,89.46L460.86,93.98L461.15,92.85L462.23,83.81L462.97,84.94L463.47,96.24L463.86,95.11L463.95,97.37L464.28,90.59L464.45,91.72L464.7,90.59L465.15,97.37L465.82,96.24L466,95.11L466.32,97.37L466.32,98.5L466.94,96.24L467.18,108.67L467.27,107.54L467.27,105.28L467.81,112.06L468.09,110.93L468.29,112.06L469.69,110.93L470.26,112.06L470.55,110.93L470.99,112.06L471,110.93L471.53,109.8L471.53,108.67L471.78,112.06L471.85,110.93L472.46,109.8L472.67,110.93L472.98,109.8L473.36,108.67L473.44,106.41L473.57,109.8L473.85,108.67L474.36,107.54L474.43,106.41L474.85,110.93L474.85,112.06L475.91,108.67L476.28,109.8L476.53,107.54L476.82,109.8L476.82,110.93L477.39,112.06L477.56,110.93L477.59,109.8L478.32,104.15L478.5,106.41L479.32,107.54L479.32,106.41L479.59,106.41L480.7,105.28L481.23,101.89L481.47,104.15L481.57,103.02L482.18,98.5L482.37,97.37L483,99.63L483.03,97.37L483.17,96.24L483.96,95.11L484.51,96.24L484.52,98.5L485.05,98.5L485.33,97.37L485.33,96.24L486.02,98.5L486.2,97.37L486.29,96.24L487.17,95.11L487.77,96.24L488.19,95.11L488.91,90.59L489.14,89.46L489.16,90.59L489.3,89.46L490,88.33L490.25,90.59L490.69,89.46L490.79,90.59L491.19,86.07L491.34,88.33L491.61,89.46L491.87,86.07L493.58,87.2L493.9,83.81L494.51,84.94L494.76,96.24L495.31,95.11L495.43,96.24L495.56,93.98L495.99,95.11L496.38,93.98L496.68,90.59L497.59,89.46L497.72,87.2L498.7,86.07L499.34,83.81L499.44,82.68L499.56,80.42L500.94,81.55L501.34,98.5L501.62,96.24L501.7,95.11L501.75,97.37L502.46,96.24L503.37,92.85L503.37,93.98L503.39,95.11L504.07,99.63L504.11,98.5L504.53,97.37L505.14,92.85L505.18,93.98L505.6,92.85L508,88.33L508.31,87.2L509.37,83.81L510.26,82.68L510.35,80.42L510.54,81.55L511.16,80.42L511.8,78.16L513.24,77.03L514.75,73.64L514.88,72.51L516.08,66.86L516.09,67.99L516.11,66.86L516.16,70.25L516.71,67.99L516.92,66.86L517.72,58.94L517.86,57.81L518.41,54.42L521.28,53.29L522.7,46.51L524.47,45.38L524.49,44.25L525.41,43.12L525.42,44.25L525.92,40.86L526.22,39.73L526.56,37.47L528.39,36.34L530.18,34.08L530.34,32.95L531.27,30.69L531.33,29.56L531.45,30.69L532,29.56L532.22,28.43L534.88,22.78L535.08,21.65L535.75,20.52L537.62,19.39L537.62,20.52L537.78,17.13L538.66,16L538.85,17.13L540,16" style="fill: rgb(255, 127, 14); fill-opacity: 0.5; stroke-width: 0;"/></g></g><g class="errorbars"/><g class="lines"><path class="js-line" d="M0,318.87L0,316.61L0.54,317.74L1.77,318.87L1.88,317.74L2.86,318.87L3.67,313.22L3.69,314.35L4.35,313.22L4.76,308.7L4.93,309.83L5.29,310.96L5.45,307.57L5.73,312.09L5.87,309.83L6.16,310.96L6.82,300.79L6.93,299.66L7.09,298.53L7.35,301.92L7.36,303.05L7.53,294.01L8.2,292.88L8.57,301.92L8.57,303.05L9.29,309.83L9.29,308.7L9.41,307.57L9.72,303.05L9.72,301.92L10.11,300.79L10.14,303.05L10.14,304.18L11.07,307.57L11.18,306.44L11.33,305.31L12.26,289.49L12.3,292.88L12.3,294.01L12.72,297.4L12.89,295.14L13.12,294.01L13.5,288.36L13.65,291.75L14.04,290.62L14.23,289.49L14.35,291.75L15.03,292.88L15.19,296.27L16.34,295.14L16.92,292.88L17.05,291.75L17.75,287.23L17.76,288.36L17.89,287.23L18.31,288.36L20.77,287.23L20.77,288.36L21.16,284.97L21.16,287.23L22.64,286.1L22.82,287.23L22.97,286.1L23.78,284.97L24.48,282.71L24.58,283.84L24.89,282.71L25.61,290.62L25.67,289.49L25.94,286.1L26.38,289.49L26.52,288.36L26.76,289.49L27.89,290.62L29.29,287.23L29.5,288.36L29.54,291.75L29.54,291.75L30.31,290.62L30.77,294.01L31.18,292.88L31.36,298.53L32.23,299.66L32.91,297.4L32.91,298.53L33.05,299.66L33.91,296.27L34.02,297.4L34.61,298.53L34.97,297.4L34.97,298.53L35.11,292.88L35.38,294.01L36.06,292.88L36.28,289.49L36.46,296.27L36.95,297.4L37.02,296.27L37.44,299.66L37.5,300.79L37.72,296.27L38,297.4L38.29,298.53L39.11,292.88L39.23,296.27L39.56,295.14L39.77,292.88L39.92,296.27L40.05,295.14L40.18,296.27L41.13,290.62L41.15,291.75L41.93,288.36L42.22,287.23L42.97,289.49L43.46,288.36L43.76,291.75L44.2,287.23L44.45,288.36L44.52,286.1L44.83,291.75L44.97,292.88L45.53,296.27L45.67,294.01L45.68,292.88L45.77,296.27L46.08,295.14L46.62,296.27L46.62,299.66L46.91,297.4L47.45,298.53L47.82,297.4L47.83,298.53L48.5,297.4L48.5,298.53L48.68,296.27L48.8,296.27L49.61,295.14L50.74,292.88L51.28,294.01L51.28,295.14L51.69,291.75L51.84,294.01L52.27,292.88L52.37,291.75L52.67,295.14L53.47,294.01L54.75,289.49L55.24,288.36L56.43,278.19L56.5,280.45L56.6,281.58L56.6,282.71L57.33,279.32L57.45,278.19L57.46,279.32L58.98,278.19L60.14,271.41L60.25,272.54L61.13,270.28L61.65,269.14L62.34,258.97L62.36,261.23L63.07,260.1L63.71,262.36L63.71,263.49L63.72,269.14L64.01,269.14L64.68,268.01L65.9,264.62L66.62,263.49L66.86,270.28L67.73,269.14L68.79,280.45L68.94,279.32L69.45,278.19L69.45,277.06L69.83,277.06L70.27,278.19L71.31,274.8L71.32,275.93L71.74,274.8L71.76,273.67L71.81,274.8L72.64,273.67L73.39,272.54L73.88,271.41L77.09,262.36L77.09,263.49L77.53,266.88L77.66,263.49L78.05,264.62L78.33,265.75L78.39,262.36L78.59,264.62L79.29,265.75L79.61,260.1L79.62,261.23L80.72,260.1L80.92,261.23L81.11,260.1L81.33,258.97L81.36,257.84L82.05,261.23L82.17,260.1L82.31,261.23L82.86,257.84L82.87,258.97L83,260.1L83.4,264.62L83.79,263.49L84.12,262.36L84.13,260.1L84.23,263.49L85.17,262.36L85.17,263.49L85.19,261.23L85.84,263.49L86,262.36L86.78,264.62L87.1,263.49L87.66,264.62L87.74,265.75L88.05,270.28L88.57,269.14L88.87,277.06L89.14,274.8L89.6,273.67L90.62,270.28L90.75,271.41L90.75,272.54L92.55,265.75L92.57,266.88L94.59,260.1L94.73,261.23L94.73,262.36L95.59,264.62L95.69,265.75L96.52,275.93L96.82,274.8L97.22,277.06L97.22,275.93L97.31,274.8L97.35,277.06L97.76,265.75L97.76,265.75L98.16,264.62L98.47,262.36L98.73,268.01L99.11,266.88L100.07,264.62L100.07,265.75L100.07,266.88L100.19,269.14L100.62,268.01L101.09,266.88L101.43,270.28L101.56,268.01L101.96,266.88L101.98,268.01L102.52,265.75L102.54,266.88L103.1,265.75L103.21,264.62L103.21,265.75L103.88,266.88L103.88,268.01L104.46,266.88L105.01,265.75L105.23,262.36L105.4,262.36L105.81,261.23L107.13,255.58L107.16,256.71L107.24,257.84L109.24,254.45L109.78,255.58L111.14,252.19L111.59,253.32L111.87,252.19L112.68,279.32L112.79,278.19L113.38,275.93L113.65,277.06L114.05,275.93L114.05,277.06L115,275.93L115.39,277.06L115.68,275.93L115.7,274.8L116.36,273.67L116.6,274.8L116.61,277.06L116.82,272.54L117.32,271.41L117.33,272.54L117.73,270.28L117.79,270.28L118.33,269.14L118.33,268.01L118.81,273.67L120.49,272.54L120.7,273.67L120.75,272.54L121.26,271.41L121.68,266.88L122.45,265.75L124.09,261.23L124.45,262.36L124.91,260.1L124.98,261.23L124.98,262.36L125.13,268.01L125.48,265.75L126,264.62L126.5,262.36L126.73,263.49L126.73,264.62L127.32,268.01L128,266.88L128.96,262.36L129.32,263.49L129.99,262.36L131.02,261.23L132.13,257.84L132.91,258.97L133.63,257.84L133.69,258.97L134.19,257.84L134.54,256.71L134.55,258.97L135.07,254.45L135.07,254.45L135.5,253.32L135.5,251.06L136.05,252.19L136.39,251.06L136.88,248.8L136.91,247.67L136.98,246.54L137.03,249.93L137.56,248.8L137.58,249.93L137.98,247.67L138.59,248.8L138.97,245.41L139.22,255.58L139.76,254.45L140.48,252.19L140.55,253.32L140.56,252.19L140.58,254.45L141.72,253.32L142.35,252.19L142.46,254.45L143.25,253.32L143.27,254.45L143.9,251.06L143.96,252.19L144.5,253.32L146.18,251.06L146.19,252.19L147.26,246.54L148.12,245.41L148.36,243.15L148.87,245.41L149.48,246.54L149.51,248.8L149.87,247.67L151.02,246.54L151.35,247.67L151.79,246.54L151.93,245.41L151.93,246.54L152.16,244.28L153.16,243.15L154.04,239.76L154.32,238.63L156.58,229.59L156.58,230.72L158.07,227.33L158.07,228.46L158.5,229.59L158.51,231.85L158.93,230.72L159.56,229.59L159.95,227.33L159.97,226.2L160.18,234.11L161.41,232.98L161.65,230.72L162.72,229.59L163.42,234.11L163.76,232.98L166.57,223.94L166.64,222.81L166.68,223.94L168.37,222.81L168.61,227.33L168.62,228.46L168.62,231.85L169.02,229.59L170.92,228.46L170.94,230.72L171.08,229.59L171.8,228.46L172.3,223.94L172.31,225.07L172.82,226.2L173.16,227.33L174.04,222.81L174.1,223.94L174.22,225.07L175.04,223.94L175.05,225.07L176.01,223.94L176.31,222.81L177.55,221.68L178.16,219.42L178.2,218.29L178.72,216.03L178.73,217.16L179.13,216.03L179.16,218.29L179.8,217.16L179.97,216.03L180.64,217.16L180.92,216.03L181.64,214.9L181.82,213.77L182.56,211.51L182.69,210.38L182.86,211.51L183,209.25L183.02,210.38L183.79,209.25L185.13,201.34L185.13,203.6L185.39,202.47L185.71,200.21L186.01,201.34L186.52,200.21L186.71,197.95L187.16,200.21L187.42,199.08L187.79,196.82L188.33,195.69L189.46,194.56L189.46,195.69L189.54,194.56L189.57,195.69L190.87,194.56L191.59,195.69L192.3,194.56L192.52,193.43L192.52,194.56L194.31,193.43L194.99,192.3L195.01,193.43L195.01,194.56L195.38,193.43L196.19,194.56L196.19,195.69L196.87,195.69L197.03,194.56L197.98,192.3L198.68,191.17L199.31,187.78L199.67,188.91L201.02,184.39L201.33,185.52L202.71,184.39L203.9,182.13L204.01,183.26L206.45,178.74L206.74,179.87L207.1,176.48L207.81,175.35L208.23,177.61L208.27,176.48L208.54,175.35L209.26,173.09L209.46,174.22L209.5,175.35L209.52,178.74L210.23,175.35L210.28,176.48L210.65,174.22L210.73,179.87L210.73,181L211.88,177.61L212,178.74L212.07,179.87L212.52,176.48L212.65,178.74L212.69,179.87L213.32,183.26L213.33,184.39L213.61,199.08L214.1,197.95L214.95,204.73L215.09,203.6L215.1,204.73L215.51,200.21L215.67,202.47L215.94,203.6L217.14,195.69L217.43,194.56L217.89,191.17L217.93,190.04L218.03,194.56L218.93,193.43L220.87,191.17L220.9,190.04L221.47,184.39L221.83,183.26L222.26,184.39L223.87,183.26L224.98,181L225.06,179.87L225.88,178.74L226.29,179.87L227,177.61L228.79,176.48L229.36,174.22L229.43,173.09L230.29,169.7L230.42,170.83L230.6,169.7L231.71,168.57L232.02,165.17L232.04,171.96L232.04,173.09L232.04,174.22L232.58,169.7L233,168.57L233.19,169.7L234.13,168.57L234.27,169.7L234.5,168.57L235.08,169.7L235.15,168.57L235.32,173.09L235.74,170.83L236,171.96L236.29,170.83L236.31,173.09L236.41,173.09L236.42,174.22L237.83,169.7L237.84,170.83L238.23,167.43L238.36,173.09L238.72,171.96L239.02,170.83L239.16,171.96L239.2,173.09L239.28,171.96L239.58,174.22L239.88,175.35L239.97,173.09L240.01,184.39L240.01,185.52L240.12,183.26L240.93,202.47L241.09,201.34L241.09,202.47L241.74,201.34L241.95,200.21L242.74,196.82L242.83,197.95L244.1,190.04L244.24,191.17L244.51,190.04L245.7,186.65L245.71,187.78L245.85,188.91L246.42,185.52L246.72,184.39L246.91,183.26L247.53,184.39L248.14,178.74L248.58,177.61L249.05,173.09L249.06,174.22L249.58,175.35L250.37,170.83L250.55,169.7L251.77,162.91L252.19,161.78L252.38,160.65L253.39,159.52L254.77,152.74L255.17,151.61L256.3,148.22L256.31,149.35L260.04,136.92L260.05,138.05L262.94,123.36L263.15,124.49L263.16,126.75L264.06,125.62L264.06,126.75L264.75,123.36L265.36,122.23L265.65,123.36L266.77,122.23L267.06,118.84L269.43,119.97L269.59,145.96L270.47,144.83L271.61,145.96L271.76,144.83L271.76,143.7L271.84,147.09L272.02,144.83L272.6,145.96L275.41,144.83L276.12,143.7L276.66,140.31L276.67,139.18L276.78,141.44L277.41,139.18L277.45,140.31L278.36,139.18L278.6,140.31L279.12,144.83L279.29,142.57L279.5,143.7L279.8,142.57L279.83,144.83L280.24,142.57L280.48,141.44L281.21,139.18L281.3,138.05L281.67,135.79L282.02,136.92L282.02,138.05L282.3,149.35L283.21,148.22L283.38,149.35L283.88,147.09L283.89,148.22L283.89,149.35L284.86,147.09L285.03,148.22L285.13,145.96L285.57,147.09L285.93,148.22L286.38,149.35L286.88,148.22L288.29,143.7L288.6,142.57L288.91,144.83L289.06,140.31L289.23,140.31L289.61,141.44L289.67,140.31L289.76,141.44L290.87,140.31L290.89,141.44L291.41,139.18L291.75,138.05L292.06,133.53L292.32,134.66L292.69,135.79L292.69,140.31L292.88,138.05L293.88,136.92L294.58,147.09L294.58,145.96L294.68,144.83L294.71,143.7L295.01,153.87L295.16,153.87L295.25,155L295.3,162.91L295.98,160.65L296.32,161.78L297,157.26L297.16,158.39L297.82,156.13L298.34,155L298.36,156.13L298.63,152.74L299.43,151.61L299.65,152.74L299.66,151.61L300.26,150.48L300.57,153.87L300.67,150.48L301.12,149.35L301.5,145.96L302.12,144.83L302.31,143.7L303.59,142.57L304.24,139.18L304.3,138.05L305.48,131.27L306.43,130.14L309.05,122.23L310.12,121.1L310.88,118.84L311.67,117.71L311.8,115.45L312.52,116.58L312.87,133.53L313.06,132.4L313.33,133.53L313.6,132.4L313.62,134.66L313.95,133.53L314.57,134.66L315.07,133.53L315.78,134.66L316.87,131.27L317.79,130.14L319.03,129.01L319.36,130.14L319.41,131.27L320.39,130.14L320.89,127.88L321.33,129.01L321.51,127.88L321.92,129.01L321.95,130.14L321.95,131.27L322.6,129.01L323.26,130.14L324.22,161.78L324.49,160.65L324.65,157.26L325.09,161.78L325.24,162.91L326.63,152.74L326.97,151.61L327.09,153.87L327.54,152.74L327.96,151.61L328.91,153.87L329.29,152.74L330.24,151.61L330.25,152.74L330.83,151.61L331.05,150.48L332.15,148.22L332.7,149.35L333.15,144.83L334.23,143.7L334.49,142.57L335.55,141.44L337.1,136.92L337.1,138.05L337.13,139.18L338.05,134.66L338.56,135.79L339.38,131.27L339.39,132.4L339.86,131.27L339.91,132.4L340.51,129.01L340.56,127.88L340.62,126.75L341.88,125.62L342.7,123.36L342.73,122.23L343.53,119.97L343.84,118.84L344.75,123.36L345.12,122.23L345.3,121.1L346.76,118.84L346.96,119.97L348.03,117.71L348.57,116.58L350.07,112.06L350.66,110.93L351.02,109.8L351.22,110.93L351.28,112.06L351.3,110.93L352.15,109.8L353.23,107.54L353.34,106.41L354.29,105.28L354.3,106.41L354.32,107.54L354.37,122.23L355,118.84L355.25,119.97L355.85,117.71L356.08,116.58L356.8,117.71L357.68,116.58L358.28,113.19L358.39,114.32L358.66,113.19L359.9,110.93L360.71,109.8L361.31,107.54L361.31,106.41L361.31,100.76L362.53,99.63L363.52,96.24L364.97,97.37L364.97,99.63L365.37,96.24L365.71,96.24L366.19,97.37L366.51,95.11L366.76,96.24L367.6,95.11L367.74,93.98L367.74,95.11L369,96.24L369.62,95.11L369.67,96.24L369.84,97.37L369.84,98.5L370.43,98.5L370.73,99.63L370.92,112.06L371.87,113.19L372.85,110.93L373.34,109.8L373.47,107.54L373.51,110.93L373.91,112.06L375.09,104.15L375.11,105.28L375.11,109.8L375.41,107.54L375.95,106.41L377.21,103.02L378.29,101.89L378.98,98.5L379.66,97.37L380.02,93.98L380.48,96.24L380.72,95.11L381.71,89.46L381.71,90.59L383.09,89.46L383.83,83.81L383.84,86.07L384.63,84.94L384.94,86.07L384.98,84.94L385.47,83.81L386.01,81.55L386.63,82.68L387.55,79.29L388.16,78.16L388.75,75.9L388.97,77.03L389.1,78.16L389.4,79.29L389.6,78.16L390.73,79.29L394.25,69.12L394.95,70.25L396,66.86L396.08,65.72L396.14,66.86L396.3,62.33L396.89,63.46L396.97,61.2L398.07,60.07L398.23,57.81L398.41,60.07L398.66,61.2L399.04,60.07L399.2,61.2L399.23,62.33L399.49,64.59L400,63.46L401,56.68L401.05,60.07L401.68,58.94L401.75,57.81L401.96,60.07L402.19,60.07L402.34,61.2L403.11,56.68L403.42,57.81L403.42,58.94L403.55,61.2L404.03,56.68L404.35,55.55L404.9,53.29L404.91,54.42L404.97,55.55L405.5,51.03L405.6,53.29L405.85,54.42L406.01,52.16L406.14,63.46L406.14,64.59L406.53,69.12L406.81,58.94L406.89,60.07L407.48,66.86L407.63,64.59L407.76,63.46L409.25,56.68L409.3,57.81L409.31,58.94L409.36,57.81L409.43,69.12L409.67,66.86L409.68,67.99L410.1,63.46L410.43,64.59L410.52,63.46L410.64,64.59L410.64,63.46L411.2,62.33L411.82,65.72L412.09,64.59L412.31,63.46L412.45,65.72L412.53,64.59L413.08,63.46L413.7,72.51L413.72,71.38L414.09,70.25L414.16,69.12L414.47,72.51L414.73,71.38L415.06,70.25L415.46,66.86L415.63,69.12L416.15,67.99L416.55,64.59L416.94,66.86L416.94,67.99L417.76,83.81L417.96,82.68L418.37,80.42L419.17,79.29L419.31,82.68L420.25,83.81L421.31,81.55L421.35,80.42L421.5,81.55L421.86,80.42L422.31,79.29L422.75,77.03L422.86,80.42L422.99,79.29L423.23,78.16L423.84,75.9L424.19,77.03L424.78,82.68L425,80.42L425.03,79.29L425.47,82.68L425.7,82.68L425.84,81.55L426.22,73.64L426.58,80.42L426.68,79.29L426.95,75.9L427.06,82.68L427.06,83.81L427.63,75.9L427.75,78.16L427.88,77.03L428.22,73.64L428.61,75.9L428.67,74.77L428.85,73.64L428.99,77.03L428.99,78.16L429.29,98.5L429.7,93.98L429.79,95.11L429.8,96.24L430.53,95.11L430.6,93.98L430.75,92.85L430.81,101.89L430.94,99.63L431.05,100.76L431.84,98.5L432.42,97.37L433.22,92.85L433.37,91.72L433.93,87.2L434.2,90.59L434.21,91.72L434.35,89.46L434.62,93.98L434.71,95.11L435.53,93.98L435.65,92.85L436.14,95.11L436.22,91.72L436.26,90.59L436.26,91.72L436.77,86.07L437.06,84.94L437.08,83.81L437.17,87.2L437.51,84.94L437.98,83.81L437.99,84.94L438.56,75.9L438.59,78.16L439.36,77.03L439.83,73.64L440.37,74.77L440.49,72.51L440.76,78.16L441.13,77.03L441.15,75.9L441.45,74.77L441.71,77.03L441.99,75.9L442.16,78.16L442.51,75.9L442.84,77.03L443.35,71.38L443.69,73.64L443.75,74.77L443.87,73.64L443.9,77.03L444.32,74.77L444.74,73.64L444.75,72.51L445.27,82.68L445.42,79.29L445.68,80.42L445.68,79.29L445.96,82.68L446.06,81.55L446.61,82.68L446.8,81.55L447.04,83.81L447.49,82.68L448,81.55L448.05,82.68L448.12,83.81L448.69,86.07L448.69,84.94L448.82,83.81L448.96,80.42L449.5,83.81L449.83,82.68L450.07,79.29L450.44,82.68L450.48,83.81L450.78,82.68L451.58,100.76L451.85,99.63L453.49,86.07L453.58,87.2L453.65,84.94L453.75,95.11L454.03,95.11L454.56,93.98L455.22,103.02L455.36,100.76L455.43,99.63L455.5,100.76L455.76,95.11L456.34,96.24L456.58,92.85L456.61,97.37L456.76,96.24L457.21,97.37L457.48,98.5L458.1,93.98L458.39,95.11L458.41,98.5L459.06,96.24L459.19,97.37L459.62,95.11L460.31,93.98L460.56,89.46L460.86,93.98L461.15,92.85L462.23,83.81L462.97,84.94L463.47,96.24L463.86,95.11L463.95,97.37L464.28,90.59L464.45,91.72L464.7,90.59L465.15,97.37L465.82,96.24L466,95.11L466.32,97.37L466.32,98.5L466.94,96.24L467.18,108.67L467.27,107.54L467.27,105.28L467.81,112.06L468.09,110.93L468.29,112.06L469.69,110.93L470.26,112.06L470.55,110.93L470.99,112.06L471,110.93L471.53,109.8L471.53,108.67L471.78,112.06L471.85,110.93L472.46,109.8L472.67,110.93L472.98,109.8L473.36,108.67L473.44,106.41L473.57,109.8L473.85,108.67L474.36,107.54L474.43,106.41L474.85,110.93L474.85,112.06L475.91,108.67L476.28,109.8L476.53,107.54L476.82,109.8L476.82,110.93L477.39,112.06L477.56,110.93L477.59,109.8L478.32,104.15L478.5,106.41L479.32,107.54L479.32,106.41L479.59,106.41L480.7,105.28L481.23,101.89L481.47,104.15L481.57,103.02L482.18,98.5L482.37,97.37L483,99.63L483.03,97.37L483.17,96.24L483.96,95.11L484.51,96.24L484.52,98.5L485.05,98.5L485.33,97.37L485.33,96.24L486.02,98.5L486.2,97.37L486.29,96.24L487.17,95.11L487.77,96.24L488.19,95.11L488.91,90.59L489.14,89.46L489.16,90.59L489.3,89.46L490,88.33L490.25,90.59L490.69,89.46L490.79,90.59L491.19,86.07L491.34,88.33L491.61,89.46L491.87,86.07L493.58,87.2L493.9,83.81L494.51,84.94L494.76,96.24L495.31,95.11L495.43,96.24L495.56,93.98L495.99,95.11L496.38,93.98L496.68,90.59L497.59,89.46L497.72,87.2L498.7,86.07L499.34,83.81L499.44,82.68L499.56,80.42L500.94,81.55L501.34,98.5L501.62,96.24L501.7,95.11L501.75,97.37L502.46,96.24L503.37,92.85L503.37,93.98L503.39,95.11L504.07,99.63L504.11,98.5L504.53,97.37L505.14,92.85L505.18,93.98L505.6,92.85L508,88.33L508.31,87.2L509.37,83.81L510.26,82.68L510.35,80.42L510.54,81.55L511.16,80.42L511.8,78.16L513.24,77.03L514.75,73.64L514.88,72.51L516.08,66.86L516.09,67.99L516.11,66.86L516.16,70.25L516.71,67.99L516.92,66.86L517.72,58.94L517.86,57.81L518.41,54.42L521.28,53.29L522.7,46.51L524.47,45.38L524.49,44.25L525.41,43.12L525.42,44.25L525.92,40.86L526.22,39.73L526.56,37.47L528.39,36.34L530.18,34.08L530.34,32.95L531.27,30.69L531.33,29.56L531.45,30.69L532,29.56L532.22,28.43L534.88,22.78L535.08,21.65L535.75,20.52L537.62,19.39L537.62,20.52L537.78,17.13L538.66,16L538.85,17.13L540,16" style="vector-effect: none; fill: none; stroke: rgb(255, 127, 14); stroke-opacity: 1; stroke-width: 2px; opacity: 1;"/></g><g class="points"/><g class="text"/></g></g></g></g><g class="zerolinelayer-above"/><path class="xlines-above crisp" d="M0,0" style="fill: none;"/><path class="ylines-above crisp" d="M0,0" style="fill: none;"/><g class="overlines-above"/><g class="xaxislayer-above"><g class="xtick"><text text-anchor="middle" x="0" y="439" transform="translate(100.15,0)" style="font-family: 'Open Sans'; font-size: 18px; fill: rgb(0, 0, 0); fill-opacity: 1; white-space: pre;">2016</text></g><g class="xtick"><text text-anchor="middle" x="0" y="439" style="font-family: 'Open Sans'; font-size: 18px; fill: rgb(0, 0, 0); fill-opacity: 1; white-space: pre;" transform="translate(200.11,0)">2018</text></g><g class="xtick"><text text-anchor="middle" x="0" y="439" style="font-family: 'Open Sans'; font-size: 18px; fill: rgb(0, 0, 0); fill-opacity: 1; white-space: pre;" transform="translate(299.95,0)">2020</text></g><g class="xtick"><text text-anchor="middle" x="0" y="439" style="font-family: 'Open Sans'; font-size: 18px; fill: rgb(0, 0, 0); fill-opacity: 1; white-space: pre;" transform="translate(399.92,0)">2022</text></g><g class="xtick"><text text-anchor="middle" x="0" y="439" style="font-family: 'Open Sans'; font-size: 18px; fill: rgb(0, 0, 0); fill-opacity: 1; white-space: pre;" transform="translate(499.75,0)">2024</text></g><g class="xtick"><text text-anchor="middle" x="0" y="439" style="font-family: 'Open Sans'; font-size: 18px; fill: rgb(0, 0, 0); fill-opacity: 1; white-space: pre;" transform="translate(599.72,0)">2026</text></g></g><g class="yaxislayer-above"><g class="ytick"><text text-anchor="end" x="79" y="6.3" transform="translate(0,420)" style="font-family: 'Open Sans'; font-size: 18px; fill: rgb(0, 0, 0); fill-opacity: 1; white-space: pre;">0</text></g><g class="ytick"><text text-anchor="end" x="79" y="6.3" style="font-family: 'Open Sans'; font-size: 18px; fill: rgb(0, 0, 0); fill-opacity: 1; white-space: pre;" transform="translate(0,363.49)">50</text></g><g class="ytick"><text text-anchor="end" x="79" y="6.3" style="font-family: 'Open Sans'; font-size: 18px; fill: rgb(0, 0, 0); fill-opacity: 1; white-space: pre;" transform="translate(0,306.99)">100</text></g><g class="ytick"><text text-anchor="end" x="79" y="6.3" style="font-family: 'Open Sans'; font-size: 18px; fill: rgb(0, 0, 0); fill-opacity: 1; white-space: pre;" transform="translate(0,250.48)">150</text></g><g class="ytick"><text text-anchor="end" x="79" y="6.3" style="font-family: 'Open Sans'; font-size: 18px; fill: rgb(0, 0, 0); fill-opacity: 1; white-space: pre;" transform="translate(0,193.98000000000002)">200</text></g><g class="ytick"><text text-anchor="end" x="79" y="6.3" style="font-family: 'Open Sans'; font-size: 18px; fill: rgb(0, 0, 0); fill-opacity: 1; white-space: pre;" transform="translate(0,137.47)">250</text></g></g><g class="overaxes-above"/></g></g><g class="polarlayer"/><g class="smithlayer"/><g class="ternarylayer"/><g class="geolayer"/><g class="funnelarealayer"/><g class="pielayer"/><g class="iciclelayer"/><g class="treemaplayer"/><g class="sunburstlayer"/><g class="glimages"/><defs id="topdefs-202322"><g class="clips"/></defs><g class="layer-above"><g class="imagelayer"/><g class="shapelayer"/></g><g class="infolayer"><g class="g-gtitle"><text class="gtitle" x="35" y="50" text-anchor="start" dy="0em" style="opacity: 1; font-family: 'Open Sans'; font-size: 25px; fill: rgb(0, 0, 0); fill-opacity: 1; white-space: pre;">MultiQC/MultiQC - Open Issues Over Time</text></g><g class="g-xtitle"><text class="xtitle" x="350" y="472.9" text-anchor="middle" style="opacity: 1; font-family: 'Open Sans'; font-size: 22px; fill: rgb(0, 0, 0); fill-opacity: 1; white-space: pre;">Date</text></g><g class="g-ytitle"><text class="ytitle" transform="rotate(-90,29.799999999999997,260)" x="29.799999999999997" y="260" text-anchor="middle" style="opacity: 1; font-family: 'Open Sans'; font-size: 22px; fill: rgb(0, 0, 0); fill-opacity: 1; white-space: pre;">Number of Open Issues</text></g></g></svg>