<svg class="main-svg" xmlns="http://www.w3.org/2000/svg" xmlns:xlink="http://www.w3.org/1999/xlink" width="700" height="500" style="" viewBox="0 0 700 500"><rect x="0" y="0" width="700" height="500" style="fill: rgb(0, 0, 0); fill-opacity: 0;"/><defs id="defs-cb6077"><g class="clips"><clipPath id="clipcb6077xyplot" class="plotclip"><rect width="540" height="320"/></clipPath><clipPath class="axesclip" id="clipcb6077x"><rect x="80" y="0" width="540" height="500"/></clipPath><clipPath class="axesclip" id="clipcb6077y"><rect x="0" y="100" width="700" height="320"/></clipPath><clipPath class="axesclip" id="clipcb6077xy"><rect x="80" y="100" width="540" height="320"/></clipPath></g><g class="gradients"/><g class="patterns"/></defs><g class="bglayer"><rect class="bg" x="80" y="100" width="540" height="320" style="fill: rgb(0, 0, 0); fill-opacity: 0; stroke-width: 0;"/></g><g class="layer-below"><g class="imagelayer"/><g class="shapelayer"/></g><g class="cartesianlayer"><g class="subplot xy"><g class="layer-subplot"><g class="shapelayer"/><g class="imagelayer"/></g><g class="minor-gridlayer"><g class="x"/><g class="y"/></g><g class="gridlayer"><g class="x"><path class="xgrid crisp" transform="translate(100.98,0)" d="M0,100v320" style="stroke: rgb(255, 255, 255); stroke-opacity: 1; stroke-width: 1px;"/><path class="xgrid crisp" transform="translate(205.12,0)" d="M0,100v320" style="stroke: rgb(255, 255, 255); stroke-opacity: 1; stroke-width: 1px;"/><path class="xgrid crisp" transform="translate(309.11,0)" d="M0,100v320" style="stroke: rgb(255, 255, 255); stroke-opacity: 1; stroke-width: 1px;"/><path class="xgrid crisp" transform="translate(413.24,0)" d="M0,100v320" style="stroke: rgb(255, 255, 255); stroke-opacity: 1; stroke-width: 1px;"/><path class="xgrid crisp" transform="translate(517.23,0)" d="M0,100v320" style="stroke: rgb(255, 255, 255); stroke-opacity: 1; stroke-width: 1px;"/></g><g class="y"><path class="ygrid crisp" transform="translate(0,356.13)" d="M80,0h540" style="stroke: rgb(255, 255, 255); stroke-opacity: 1; stroke-width: 1px;"/><path class="ygrid crisp" transform="translate(0,292.27)" d="M80,0h540" style="stroke: rgb(255, 255, 255); stroke-opacity: 1; stroke-width: 1px;"/><path class="ygrid crisp" transform="translate(0,228.4)" d="M80,0h540" style="stroke: rgb(255, 255, 255); stroke-opacity: 1; stroke-width: 1px;"/><path class="ygrid crisp" transform="translate(0,164.54000000000002)" d="M80,0h540" style="stroke: rgb(255, 255, 255); stroke-opacity: 1; stroke-width: 1px;"/></g></g><g class="zerolinelayer"><path class="yzl zl crisp" transform="translate(0,420)" d="M80,0h540" style="stroke: rgb(255, 255, 255); stroke-opacity: 1; stroke-width: 2px;"/></g><g class="layer-between"><g class="shapelayer"/><g class="imagelayer"/></g><path class="xlines-below"/><path class="ylines-below"/><g class="overlines-below"/><g class="xaxislayer-below"/><g class="yaxislayer-below"/><g class="overaxes-below"/><g class="overplot"><g class="xy" transform="translate(80,100)" clip-path="url(#clipcb6077xyplot)"><g class="scatterlayer mlayer"><g class="trace scatter trace7aaf72" style="stroke-miterlimit: 2;"><g class="fills"><g><path class="js-fill" d="M540,320L0,320L0,318.72L0,316.17L0.56,317.45L1.84,318.72L1.96,317.45L2.98,318.72L3.82,312.34L3.85,313.61L4.53,312.34L4.96,307.23L5.13,308.5L5.51,309.78L5.68,305.95L5.97,311.06L6.11,308.5L6.42,309.78L7.1,298.29L7.22,297.01L7.39,295.73L7.66,298.29L7.66,299.56L7.67,300.84L7.84,290.62L8.54,289.34L8.93,298.29L8.93,299.56L9.66,308.5L9.68,307.23L9.8,305.95L10.09,302.12L10.09,300.84L10.53,298.29L10.56,302.12L10.95,303.39L10.97,302.12L11.53,305.95L11.65,304.67L11.8,303.39L12.78,285.51L12.82,291.9L12.82,293.18L12.94,290.62L13.25,294.45L13.43,291.9L13.66,290.62L14.06,284.24L14.21,288.07L14.63,286.79L14.82,285.51L14.95,288.07L15.65,289.34L15.82,293.18L17.02,291.9L17.63,289.34L17.76,288.07L18.49,282.96L18.5,284.24L18.63,282.96L19.08,284.24L21.63,282.96L21.63,284.24L22.04,280.4L22.05,282.96L23.58,281.68L23.78,282.96L23.93,281.68L24.77,280.4L25.5,277.85L25.6,279.13L25.92,277.85L26.67,286.79L26.74,285.51L27.02,281.68L27.46,284.24L27.48,285.51L27.63,284.24L27.88,285.51L29.05,286.79L30.51,282.96L30.73,284.24L30.77,288.07L30.77,288.07L31.57,286.79L32.05,290.62L32.47,289.34L32.67,295.73L33.58,297.01L34.28,294.45L34.28,295.73L34.43,297.01L35.03,294.45L35.32,293.18L36.05,295.73L36.43,294.45L36.43,295.73L36.57,289.34L36.86,290.62L37.56,289.34L37.79,285.51L37.98,293.18L38.49,294.45L38.56,293.18L39,297.01L39.06,298.29L39.29,293.18L39.58,294.45L39.88,295.73L40.74,289.34L40.87,293.18L41.21,291.9L41.42,289.34L41.44,291.9L41.58,293.18L42.99,285.51L43.68,284.24L43.98,282.96L44.59,284.24L45.27,285.51L45.56,284.24L45.58,288.07L46.04,282.96L46.31,284.24L46.38,281.68L46.69,288.07L46.85,289.34L47.42,293.18L47.57,290.62L47.58,289.34L47.68,293.18L48,291.9L48.56,293.18L48.57,297.01L48.86,294.45L49.43,295.73L49.82,294.45L49.82,295.73L50.52,294.45L50.52,295.73L50.71,293.18L50.83,293.18L51.67,291.9L52.85,289.34L53.41,290.62L53.41,291.9L53.85,288.07L54,290.62L54.45,289.34L54.55,288.07L54.86,291.9L55.7,290.62L57.03,285.51L57.54,284.24L58.78,272.74L58.86,275.29L58.95,276.57L58.95,277.85L59.55,275.29L59.72,274.02L59.84,272.74L59.86,274.02L61.43,272.74L61.96,266.35L62.48,267.63L62.97,265.08L63.07,266.35L63.54,265.08L64.93,251.03L64.96,253.58L65.7,252.3L66.36,254.86L66.36,256.13L66.37,262.52L66.67,262.52L67.38,261.24L68.64,257.41L69.39,256.13L69.65,263.8L70.55,262.52L71.66,275.29L71.81,274.02L72.34,272.74L72.34,271.46L72.74,271.46L73.19,272.74L74.28,268.91L74.29,270.18L74.75,267.63L74.8,268.91L75.66,267.63L76.45,266.35L76.96,265.08L80.3,254.86L80.3,256.13L80.76,259.97L80.89,256.13L81.3,257.41L81.59,258.69L81.66,254.86L81.86,257.41L82.6,258.69L82.93,252.3L82.94,253.58L84.08,252.3L84.29,253.58L84.49,252.3L84.72,251.03L84.75,249.75L85.47,253.58L85.6,252.3L85.74,253.58L86.32,249.75L86.32,251.03L86.46,252.3L86.87,257.41L87.28,256.13L87.63,254.86L87.63,252.3L87.74,256.13L88.71,254.86L88.74,253.58L89.42,256.13L89.59,254.86L90.4,257.41L90.73,256.13L91.31,257.41L91.4,258.69L91.72,263.8L92.26,262.52L92.57,271.46L92.86,268.91L93.33,267.63L94.4,263.8L94.53,265.08L94.54,266.35L96.41,258.69L96.43,259.97L98.53,252.3L98.67,253.58L98.68,254.86L99.58,257.41L99.68,258.69L100.54,270.18L100.86,268.91L101.27,271.46L101.27,270.18L101.36,268.91L101.41,271.46L101.83,258.69L101.84,258.69L102.25,257.41L102.57,254.86L102.84,261.24L103.24,259.97L104.24,257.41L104.24,258.69L104.24,259.97L104.37,262.52L104.81,261.24L105.31,259.97L105.66,263.8L105.79,261.24L106.2,259.97L106.22,261.24L106.79,258.69L106.81,259.97L107.4,258.69L107.51,257.41L107.51,258.69L108.2,259.97L108.2,261.24L108.81,259.97L109.38,258.69L109.79,254.86L110.22,253.58L111.59,247.19L111.63,248.47L111.7,249.75L113.79,245.92L114.35,247.19L115.77,243.36L116.24,244.64L116.54,243.36L117.38,274.02L117.49,272.74L118.11,270.18L118.39,271.46L118.8,270.18L118.8,271.46L119.79,270.18L120.2,271.46L120.5,270.18L120.52,268.91L121.21,267.63L121.46,268.91L121.47,271.46L122.21,265.08L122.21,266.35L122.45,265.08L123.26,261.24L123.39,262.52L123.4,263.8L123.5,262.52L123.76,267.63L125.51,266.35L125.73,267.63L125.78,266.35L126.31,265.08L126.75,259.97L127.55,258.69L129.26,253.58L129.64,254.86L130.11,252.3L130.19,253.58L130.19,254.86L130.34,261.24L130.71,258.69L131.25,257.41L131.77,254.86L132.01,256.13L132.01,257.41L132.62,261.24L133.34,259.97L134.33,254.86L134.71,256.13L135.4,254.86L136.48,253.58L137.63,249.75L138.45,251.03L138.45,249.75L139.19,249.75L139.26,251.03L139.78,249.75L140.14,248.47L140.15,251.03L140.69,245.92L140.7,245.92L141.14,244.64L141.15,242.08L141.72,243.36L142.07,242.08L142.58,239.53L142.62,238.25L142.69,236.97L142.74,240.81L143.29,239.53L143.31,240.81L143.73,238.25L144.37,239.53L144.76,235.7L145.01,247.19L145.58,245.92L146.33,243.36L146.41,244.64L146.41,243.36L146.44,245.92L147.62,244.64L148.28,243.36L148.4,245.92L149.22,244.64L149.24,245.92L149.89,242.08L149.96,243.36L150.52,244.64L151.14,243.36L151.14,244.64L151.18,243.36L152.27,242.08L152.28,243.36L152.46,239.53L152.74,239.53L153.24,238.25L154.54,233.14L155.07,234.42L155.07,233.14L155.74,239.53L156.11,238.25L157.32,236.97L157.65,238.25L160.08,231.87L160.23,233.14L160.75,228.03L161.05,226.76L162.36,219.09L163.1,217.82L163.1,219.09L163.5,217.82L164.6,216.54L164.65,215.26L165.11,220.37L165.55,219.09L166.61,216.54L166.62,215.26L166.64,213.98L166.85,222.92L168.14,221.65L168.38,219.09L169.49,217.82L170.23,222.92L170.58,221.65L173.51,211.43L173.58,210.15L173.62,211.43L175.38,210.15L175.63,215.26L175.64,216.54L175.65,220.37L176.06,217.82L178.04,216.54L178.06,219.09L178.21,217.82L178.96,216.54L179.48,211.43L179.49,212.71L180.02,213.98L180.38,215.26L181.29,210.15L181.35,211.43L181.48,212.71L182.33,211.43L182.34,212.71L185.48,207.6L185.58,206.32L186.16,202.49L186.17,203.76L186.59,202.49L186.62,205.04L187.29,203.76L187.47,202.49L188.16,203.76L188.46,202.49L189.2,201.21L189.39,199.93L190.16,197.38L190.3,196.1L190.48,197.38L190.63,194.82L190.64,196.1L191.45,194.82L192.84,185.88L192.84,188.44L193.11,187.16L193.45,184.61L193.76,185.88L194.29,184.61L194.49,182.05L194.96,184.61L195.23,183.33L195.61,180.77L196.17,179.5L197.35,178.22L197.35,179.5L197.43,178.22L197.46,179.5L198.82,178.22L199.57,179.5L200.31,178.22L200.53,176.94L200.54,178.22L202.41,176.94L203.12,175.66L203.13,176.94L203.13,178.22L203.52,176.94L204.37,178.22L204.37,179.5L205.07,179.5L205.24,178.22L206.23,175.66L206.96,174.39L207.61,170.55L207.99,171.83L209.39,166.72L209.72,168L211.16,166.72L211.38,165.45L212.39,164.17L212.51,165.45L213.23,164.17L215.05,160.34L215.35,161.61L215.72,157.78L216.47,156.5L216.91,159.06L216.94,157.78L217.22,156.5L217.97,153.95L218.19,155.23L218.23,156.5L218.25,160.34L218.97,157.78L218.99,156.5L219.43,155.23L219.93,162.89L219.95,161.61L220.7,159.06L220.83,160.34L221.19,157.78L221.55,161.61L221.9,162.89L221.93,161.61L222.34,175.66L222.41,173.11L222.49,174.39L223.3,189.71L223.89,188.44L224.06,189.71L224.49,184.61L224.49,185.88L224.65,187.16L224.93,188.44L225.09,185.88L225.21,184.61L226.18,179.5L226.48,178.22L226.97,174.39L227.01,173.11L227.11,178.22L228.05,176.94L230.07,174.39L230.1,173.11L230.69,166.72L231.07,165.45L231.52,166.72L233.19,165.45L234.36,162.89L234.43,161.61L235.29,160.34L235.71,161.61L236.45,159.06L238.32,157.78L238.91,155.23L238.99,153.95L239.15,151.39L239.88,150.12L240.01,151.39L240.2,150.12L241.36,148.84L241.69,145.01L241.71,152.67L241.71,153.95L241.71,155.23L242.26,150.12L242.7,148.84L242.91,150.12L243.88,148.84L244.03,150.12L244.27,148.84L244.87,150.12L244.94,148.84L245.13,153.95L245.56,151.39L245.83,152.67L246.14,151.39L246.16,153.95L246.26,153.95L246.27,155.23L247.29,151.39L247.74,150.12L248.15,147.56L248.29,153.95L248.67,152.67L248.98,151.39L249.13,152.67L249.16,153.95L249.24,152.67L249.56,155.23L249.87,156.5L249.96,153.95L249.99,164.17L250,165.45L250.82,187.16L250.95,185.88L251.26,187.16L251.81,185.88L252.85,180.77L252.94,182.05L254.26,173.11L254.41,174.39L254.69,173.11L255.94,169.28L255.94,170.55L256.09,171.83L256.68,168L257,166.72L257.19,165.45L257.84,166.72L258.47,160.34L258.94,159.06L259.42,153.95L259.43,155.23L259.97,156.5L260.8,151.39L260.98,150.12L262.26,142.45L262.69,141.18L262.89,139.9L263.95,138.62L265.38,130.96L265.8,129.68L266.8,125.85L266.84,127.13L268.2,120.74L268.87,119.46L270.87,113.08L270.88,114.35L273.89,97.75L274.11,99.03L274.13,101.58L275.06,100.3L275.06,101.58L275.78,97.75L276.42,96.47L276.71,97.75L277.89,96.47L278.18,92.64L280.65,93.92L280.82,123.29L281.74,122.02L282.93,123.29L283.08,122.02L283.08,120.74L283.17,124.57L283.35,122.02L283.95,123.29L286.88,122.02L287.62,120.74L288.18,116.91L288.19,115.63L288.31,118.18L288.84,116.91L288.96,115.63L289.01,116.91L289.96,115.63L291.15,122.02L291.26,120.74L291.45,119.46L291.48,122.02L291.92,119.46L292.16,118.18L292.93,115.63L293.01,114.35L293.4,111.8L293.77,113.08L293.77,114.35L294.06,127.13L295.01,125.85L295.18,127.13L295.7,124.57L295.71,125.85L295.71,127.13L296.73,124.57L296.9,125.85L297.01,123.29L297.46,124.57L297.84,125.85L298.31,127.13L298.83,125.85L300.3,120.74L300.62,119.46L300.95,122.02L301.1,116.91L301.22,118.18L301.28,116.91L301.83,118.18L302.98,116.91L303.01,118.18L303.55,115.63L303.9,114.35L304.22,109.24L304.5,110.52L304.88,111.8L304.89,116.91L305.08,114.35L306.12,113.08L306.85,124.57L306.85,123.29L306.96,122.02L306.99,120.74L307.3,132.24L307.45,132.24L307.55,133.51L307.6,142.45L308.3,139.9L308.66,141.18L309.37,136.07L309.54,137.34L310.22,134.79L310.76,133.51L310.79,134.79L311.07,130.96L311.9,129.68L312.13,130.96L312.14,129.68L312.77,128.4L313.09,132.24L313.2,128.4L313.66,127.13L314.06,123.29L314.7,122.02L314.9,120.74L316.24,119.46L316.92,115.63L316.98,114.35L318.2,106.69L319.19,105.41L321.92,96.47L323.04,95.19L323.82,92.64L324.65,91.36L324.79,88.81L325.54,90.08L325.9,109.24L326.1,107.97L326.38,109.24L326.67,107.97L326.68,110.52L327.03,109.24L327.67,110.52L328.19,109.24L328.93,110.52L330.07,106.69L331.03,105.41L332.32,104.13L332.67,105.41L332.72,106.69L333.73,105.41L334.26,102.86L334.72,104.13L334.9,102.86L335.33,104.13L335.36,105.41L335.36,106.69L336.04,104.13L336.73,105.41L337.72,141.18L338.01,139.9L338.17,136.07L338.63,141.18L338.78,142.45L340.24,130.96L340.59,129.68L340.71,132.24L341.18,130.96L341.62,129.68L342.61,132.24L343,130.96L343.99,129.68L344,130.96L344.61,129.68L344.84,128.4L345.18,127.13L345.6,128.4L345.98,127.13L346.58,125.85L346.82,124.57L347.03,122.02L348.15,120.74L348.42,119.46L349.53,118.18L351.14,113.08L351.14,114.35L351.17,115.63L352.14,110.52L352.67,111.8L353.52,106.69L353.52,107.97L354.02,106.69L354.07,107.97L354.69,105.41L354.7,104.13L354.81,101.58L356.12,100.3L356.97,97.75L357.01,96.47L357.83,93.92L358.17,92.64L359.11,97.75L359.5,96.47L359.68,95.19L361.2,92.64L361.42,93.92L362.52,91.36L363.09,90.08L364.65,84.97L365.27,83.7L365.64,82.42L365.85,83.7L365.91,84.97L365.93,83.7L366.82,82.42L367.94,79.87L368.05,78.59L369.05,77.31L369.06,78.59L369.13,96.47L369.78,92.64L370.04,93.92L370.67,91.36L370.91,90.08L371.66,91.36L372.58,90.08L373.21,86.25L373.32,87.53L373.6,86.25L374.89,83.7L375.74,82.42L376.36,79.87L376.36,78.59L376.36,72.2L377.63,70.92L378.67,67.09L380.18,68.37L380.18,70.92L380.59,67.09L380.6,68.37L380.95,67.09L381.45,68.37L381.77,67.09L381.78,65.82L382.03,67.09L382.91,65.82L383.05,64.54L383.06,65.82L384.38,67.09L385.02,65.82L385.07,67.09L385.24,68.37L385.24,69.65L385.86,69.65L386.17,70.92L386.37,84.97L387.36,86.25L388.38,83.7L388.9,82.42L389.03,79.87L389.06,83.7L389.49,84.97L390.7,76.03L390.71,77.31L390.71,76.03L390.74,82.42L391.05,79.87L391.61,78.59L392.92,74.76L394.05,73.48L394.76,69.65L395.47,68.37L395.85,64.54L396.33,67.09L396.58,65.82L397.61,59.43L397.61,60.71L399.04,59.43L399.82,53.04L399.83,55.6L400.65,54.32L400.98,55.6L401.02,54.32L401.53,53.04L402.09,50.49L402.74,51.76L403.69,47.93L404.33,46.66L404.94,44.1L405.17,45.38L405.31,46.66L405.62,47.93L405.83,46.66L407.01,47.93L409.4,38.99L409.68,37.71L410.67,36.44L411.4,37.71L412.49,33.88L412.58,32.61L412.64,33.88L412.81,28.77L413.43,30.05L413.5,27.5L414.65,26.22L414.82,23.66L415,26.22L415.26,27.5L415.66,26.22L415.83,27.5L415.86,28.77L416.13,31.33L416.67,30.05L417.71,22.39L417.75,26.22L418.41,24.94L418.49,23.66L418.7,26.22L418.94,26.22L419.1,27.5L419.9,22.39L420.22,23.66L420.36,27.5L420.86,22.39L421.19,21.11L421.77,18.55L421.77,19.83L421.84,21.11L422.39,16L422.49,18.55L422.76,19.83L422.92,17.28L423.06,32.61L423.06,33.88L423.46,36.44L423.76,33.88L423.76,32.61L423.76,24.94L424.45,33.88L424.49,30.05L424.61,31.33L426.29,22.39L426.35,23.66L426.49,36.44L426.89,31.33L427.18,30.05L427.22,32.61L427.75,30.05L428.33,28.77L428.98,32.61L429.25,31.33L429.48,30.05L429.63,32.61L429.71,31.33L430.29,30.05L430.93,40.27L430.96,38.99L431.34,37.71L431.41,36.44L431.74,40.27L432,38.99L432.35,37.71L432.77,33.88L432.94,36.44L433.48,35.16L433.9,31.33L434.3,32.61L434.3,33.88L435.16,53.04L435.37,51.76L435.8,49.21L436.64,47.93L436.77,51.76L437.76,53.04L438.86,50.49L438.9,49.21L439.06,50.49L439.43,49.21L439.9,47.93L440.36,45.38L440.48,49.21L440.61,47.93L440.86,46.66L441.5,44.1L441.86,45.38L442.48,51.76L442.71,49.21L442.73,47.93L443.44,51.76L443.58,50.49L443.97,41.55L444.35,49.21L444.45,47.93L444.73,44.1L444.85,51.76L444.85,53.04L445.45,44.1L445.57,46.66L445.7,45.38L446.05,41.55L446.27,42.82L446.47,44.1L446.71,41.55L446.88,51.76L446.88,53.04L447.17,69.65L447.6,64.54L447.69,65.82L447.7,67.09L448.46,65.82L448.69,63.26L448.74,72.2L448.75,73.48L449.18,70.92L449.27,72.2L449.68,70.92L449.72,72.2L449.83,69.65L450.44,68.37L451.08,64.54L451.26,63.26L452,56.87L452.26,59.43L452.29,60.71L452.45,59.43L452.82,65.82L453.4,64.54L453.53,65.82L453.79,63.26L453.97,64.54L454.31,65.82L454.97,55.6L455.27,54.32L455.29,53.04L455.38,56.87L455.73,54.32L456.22,53.04L456.24,54.32L456.82,44.1L456.86,46.66L457.66,45.38L458.15,41.55L458.71,42.82L458.84,40.27L459.12,46.66L459.5,45.38L459.52,44.1L459.84,42.82L460.11,45.38L460.4,44.1L460.58,46.66L460.94,44.1L461.29,45.38L461.82,38.99L462.17,41.55L462.23,42.82L462.36,41.55L462.39,45.38L462.83,42.82L463.26,41.55L463.27,40.27L463.82,51.76L463.83,49.21L463.98,47.93L465.22,51.76L465.41,50.49L465.66,53.04L466.13,51.76L466.38,50.49L467.38,55.6L467.52,53.04L467.55,51.76L467.66,49.21L468.21,53.04L468.22,53.04L468.57,51.76L468.82,47.93L469.21,51.76L469.24,53.04L469.56,51.76L470.39,72.2L470.67,70.92L470.76,69.65L471.5,67.09L471.52,65.82L472.38,55.6L472.47,56.87L472.55,54.32L472.66,65.82L472.94,64.54L472.94,65.82L473.5,64.54L473.52,65.82L473.78,67.09L474.18,74.76L474.47,72.2L474.62,70.92L474.74,65.82L475.37,65.82L475.49,64.54L475.6,63.26L475.63,68.37L475.79,67.09L476.26,68.37L476.54,69.65L477.18,64.54L477.48,65.82L477.5,69.65L478.19,67.09L478.32,68.37L478.77,65.82L479.48,64.54L479.74,59.43L480.05,64.54L480.36,63.26L481.48,53.04L482.25,54.32L482.77,67.09L483.18,65.82L483.28,68.37L483.62,60.71L483.8,61.98L484.05,60.71L484.52,68.37L485.22,67.09L485.41,65.82L485.74,68.37L485.75,69.65L486.39,67.09L486.64,81.14L486.74,79.87L486.74,77.31L487.3,84.97L487.58,83.7L487.8,84.97L489.26,83.7L489.85,84.97L490.15,83.7L490.61,84.97L490.62,83.7L491.17,82.42L491.17,81.14L491.43,84.97L491.51,83.7L492.14,82.42L492.36,83.7L492.69,82.42L493.08,81.14L493.16,78.59L493.3,82.42L493.59,81.14L494.12,79.87L494.2,78.59L494.63,83.7L494.63,84.97L495.73,81.14L496.12,82.42L496.38,79.87L496.68,81.14L496.69,82.42L496.72,84.97L497.28,84.97L497.46,83.7L498.25,76.03L498.27,78.59L498.28,79.87L498.28,81.14L498.43,78.59L499.28,79.87L499.28,78.59L499.56,78.59L500.73,77.31L501.28,73.48L501.53,76.03L501.63,74.76L502.27,69.65L502.46,68.37L503.12,70.92L503.15,68.37L503.3,67.09L504.12,65.82L504.69,67.09L504.71,69.65L505.25,69.65L505.55,68.37L505.55,67.09L506.26,69.65L506.45,68.37L506.55,67.09L507.46,65.82L508.09,67.09L508.52,65.82L509.28,60.71L509.51,59.43L509.54,60.71L509.69,59.43L510.41,58.15L510.67,60.71L511.13,59.43L511.24,60.71L511.65,55.6L511.81,58.15L512.09,59.43L512.36,55.6L514.14,56.87L514.47,53.04L515.11,54.32L515.37,67.09L515.81,63.26L515.94,64.54L516.07,67.09L516.65,65.82L517.05,64.54L517.37,60.71L518.32,59.43L518.45,56.87L519.48,55.6L520.14,53.04L520.25,51.76L520.37,49.21L521.8,50.49L522.22,69.65L522.51,67.09L522.59,65.82L522.65,68.37L523.39,67.09L524.34,63.26L524.34,64.54L525.07,70.92L525.11,69.65L525.54,68.37L526.18,63.26L526.22,64.54L526.67,63.26L529.16,58.15L529.48,56.87L530.59,53.04L531.51,51.76L531.61,49.21L531.81,50.49L532.46,49.21L533.12,46.66L534.62,45.38L535.86,42.82L536.19,41.55L537.58,33.88L537.59,35.16L537.61,33.88L537.66,37.71L538.23,35.16L538.45,33.88L539.29,24.94L539.43,23.66L540,19.83" style="fill: rgb(255, 127, 14); fill-opacity: 0.5; stroke-width: 0;"/></g></g><g class="errorbars"/><g class="lines"><path class="js-line" d="M0,318.72L0,316.17L0.56,317.45L1.84,318.72L1.96,317.45L2.98,318.72L3.82,312.34L3.85,313.61L4.53,312.34L4.96,307.23L5.13,308.5L5.51,309.78L5.68,305.95L5.97,311.06L6.11,308.5L6.42,309.78L7.1,298.29L7.22,297.01L7.39,295.73L7.66,298.29L7.66,299.56L7.67,300.84L7.84,290.62L8.54,289.34L8.93,298.29L8.93,299.56L9.66,308.5L9.68,307.23L9.8,305.95L10.09,302.12L10.09,300.84L10.53,298.29L10.56,302.12L10.95,303.39L10.97,302.12L11.53,305.95L11.65,304.67L11.8,303.39L12.78,285.51L12.82,291.9L12.82,293.18L12.94,290.62L13.25,294.45L13.43,291.9L13.66,290.62L14.06,284.24L14.21,288.07L14.63,286.79L14.82,285.51L14.95,288.07L15.65,289.34L15.82,293.18L17.02,291.9L17.63,289.34L17.76,288.07L18.49,282.96L18.5,284.24L18.63,282.96L19.08,284.24L21.63,282.96L21.63,284.24L22.04,280.4L22.05,282.96L23.58,281.68L23.78,282.96L23.93,281.68L24.77,280.4L25.5,277.85L25.6,279.13L25.92,277.85L26.67,286.79L26.74,285.51L27.02,281.68L27.46,284.24L27.48,285.51L27.63,284.24L27.88,285.51L29.05,286.79L30.51,282.96L30.73,284.24L30.77,288.07L30.77,288.07L31.57,286.79L32.05,290.62L32.47,289.34L32.67,295.73L33.58,297.01L34.28,294.45L34.28,295.73L34.43,297.01L35.03,294.45L35.32,293.18L36.05,295.73L36.43,294.45L36.43,295.73L36.57,289.34L36.86,290.62L37.56,289.34L37.79,285.51L37.98,293.18L38.49,294.45L38.56,293.18L39,297.01L39.06,298.29L39.29,293.18L39.58,294.45L39.88,295.73L40.74,289.34L40.87,293.18L41.21,291.9L41.42,289.34L41.44,291.9L41.58,293.18L42.99,285.51L43.68,284.24L43.98,282.96L44.59,284.24L45.27,285.51L45.56,284.24L45.58,288.07L46.04,282.96L46.31,284.24L46.38,281.68L46.69,288.07L46.85,289.34L47.42,293.18L47.57,290.62L47.58,289.34L47.68,293.18L48,291.9L48.56,293.18L48.57,297.01L48.86,294.45L49.43,295.73L49.82,294.45L49.82,295.73L50.52,294.45L50.52,295.73L50.71,293.18L50.83,293.18L51.67,291.9L52.85,289.34L53.41,290.62L53.41,291.9L53.85,288.07L54,290.62L54.45,289.34L54.55,288.07L54.86,291.9L55.7,290.62L57.03,285.51L57.54,284.24L58.78,272.74L58.86,275.29L58.95,276.57L58.95,277.85L59.55,275.29L59.72,274.02L59.84,272.74L59.86,274.02L61.43,272.74L61.96,266.35L62.48,267.63L62.97,265.08L63.07,266.35L63.54,265.08L64.93,251.03L64.96,253.58L65.7,252.3L66.36,254.86L66.36,256.13L66.37,262.52L66.67,262.52L67.38,261.24L68.64,257.41L69.39,256.13L69.65,263.8L70.55,262.52L71.66,275.29L71.81,274.02L72.34,272.74L72.34,271.46L72.74,271.46L73.19,272.74L74.28,268.91L74.29,270.18L74.75,267.63L74.8,268.91L75.66,267.63L76.45,266.35L76.96,265.08L80.3,254.86L80.3,256.13L80.76,259.97L80.89,256.13L81.3,257.41L81.59,258.69L81.66,254.86L81.86,257.41L82.6,258.69L82.93,252.3L82.94,253.58L84.08,252.3L84.29,253.58L84.49,252.3L84.72,251.03L84.75,249.75L85.47,253.58L85.6,252.3L85.74,253.58L86.32,249.75L86.32,251.03L86.46,252.3L86.87,257.41L87.28,256.13L87.63,254.86L87.63,252.3L87.74,256.13L88.71,254.86L88.74,253.58L89.42,256.13L89.59,254.86L90.4,257.41L90.73,256.13L91.31,257.41L91.4,258.69L91.72,263.8L92.26,262.52L92.57,271.46L92.86,268.91L93.33,267.63L94.4,263.8L94.53,265.08L94.54,266.35L96.41,258.69L96.43,259.97L98.53,252.3L98.67,253.58L98.68,254.86L99.58,257.41L99.68,258.69L100.54,270.18L100.86,268.91L101.27,271.46L101.27,270.18L101.36,268.91L101.41,271.46L101.83,258.69L101.84,258.69L102.25,257.41L102.57,254.86L102.84,261.24L103.24,259.97L104.24,257.41L104.24,258.69L104.24,259.97L104.37,262.52L104.81,261.24L105.31,259.97L105.66,263.8L105.79,261.24L106.2,259.97L106.22,261.24L106.79,258.69L106.81,259.97L107.4,258.69L107.51,257.41L107.51,258.69L108.2,259.97L108.2,261.24L108.81,259.97L109.38,258.69L109.79,254.86L110.22,253.58L111.59,247.19L111.63,248.47L111.7,249.75L113.79,245.92L114.35,247.19L115.77,243.36L116.24,244.64L116.54,243.36L117.38,274.02L117.49,272.74L118.11,270.18L118.39,271.46L118.8,270.18L118.8,271.46L119.79,270.18L120.2,271.46L120.5,270.18L120.52,268.91L121.21,267.63L121.46,268.91L121.47,271.46L122.21,265.08L122.21,266.35L122.45,265.08L123.26,261.24L123.39,262.52L123.4,263.8L123.5,262.52L123.76,267.63L125.51,266.35L125.73,267.63L125.78,266.35L126.31,265.08L126.75,259.97L127.55,258.69L129.26,253.58L129.64,254.86L130.11,252.3L130.19,253.58L130.19,254.86L130.34,261.24L130.71,258.69L131.25,257.41L131.77,254.86L132.01,256.13L132.01,257.41L132.62,261.24L133.34,259.97L134.33,254.86L134.71,256.13L135.4,254.86L136.48,253.58L137.63,249.75L138.45,251.03L138.45,249.75L139.19,249.75L139.26,251.03L139.78,249.75L140.14,248.47L140.15,251.03L140.69,245.92L140.7,245.92L141.14,244.64L141.15,242.08L141.72,243.36L142.07,242.08L142.58,239.53L142.62,238.25L142.69,236.97L142.74,240.81L143.29,239.53L143.31,240.81L143.73,238.25L144.37,239.53L144.76,235.7L145.01,247.19L145.58,245.92L146.33,243.36L146.41,244.64L146.41,243.36L146.44,245.92L147.62,244.64L148.28,243.36L148.4,245.92L149.22,244.64L149.24,245.92L149.89,242.08L149.96,243.36L150.52,244.64L151.14,243.36L151.14,244.64L151.18,243.36L152.27,242.08L152.28,243.36L152.46,239.53L152.74,239.53L153.24,238.25L154.54,233.14L155.07,234.42L155.07,233.14L155.74,239.53L156.11,238.25L157.32,236.97L157.65,238.25L160.08,231.87L160.23,233.14L160.75,228.03L161.05,226.76L162.36,219.09L163.1,217.82L163.1,219.09L163.5,217.82L164.6,216.54L164.65,215.26L165.11,220.37L165.55,219.09L166.61,216.54L166.62,215.26L166.64,213.98L166.85,222.92L168.14,221.65L168.38,219.09L169.49,217.82L170.23,222.92L170.58,221.65L173.51,211.43L173.58,210.15L173.62,211.43L175.38,210.15L175.63,215.26L175.64,216.54L175.65,220.37L176.06,217.82L178.04,216.54L178.06,219.09L178.21,217.82L178.96,216.54L179.48,211.43L179.49,212.71L180.02,213.98L180.38,215.26L181.29,210.15L181.35,211.43L181.48,212.71L182.33,211.43L182.34,212.71L185.48,207.6L185.58,206.32L186.16,202.49L186.17,203.76L186.59,202.49L186.62,205.04L187.29,203.76L187.47,202.49L188.16,203.76L188.46,202.49L189.2,201.21L189.39,199.93L190.16,197.38L190.3,196.1L190.48,197.38L190.63,194.82L190.64,196.1L191.45,194.82L192.84,185.88L192.84,188.44L193.11,187.16L193.45,184.61L193.76,185.88L194.29,184.61L194.49,182.05L194.96,184.61L195.23,183.33L195.61,180.77L196.17,179.5L197.35,178.22L197.35,179.5L197.43,178.22L197.46,179.5L198.82,178.22L199.57,179.5L200.31,178.22L200.53,176.94L200.54,178.22L202.41,176.94L203.12,175.66L203.13,176.94L203.13,178.22L203.52,176.94L204.37,178.22L204.37,179.5L205.07,179.5L205.24,178.22L206.23,175.66L206.96,174.39L207.61,170.55L207.99,171.83L209.39,166.72L209.72,168L211.16,166.72L211.38,165.45L212.39,164.17L212.51,165.45L213.23,164.17L215.05,160.34L215.35,161.61L215.72,157.78L216.47,156.5L216.91,159.06L216.94,157.78L217.22,156.5L217.97,153.95L218.19,155.23L218.23,156.5L218.25,160.34L218.97,157.78L218.99,156.5L219.43,155.23L219.93,162.89L219.95,161.61L220.7,159.06L220.83,160.34L221.19,157.78L221.55,161.61L221.9,162.89L221.93,161.61L222.34,175.66L222.41,173.11L222.49,174.39L223.3,189.71L223.89,188.44L224.06,189.71L224.49,184.61L224.49,185.88L224.65,187.16L224.93,188.44L225.09,185.88L225.21,184.61L226.18,179.5L226.48,178.22L226.97,174.39L227.01,173.11L227.11,178.22L228.05,176.94L230.07,174.39L230.1,173.11L230.69,166.72L231.07,165.45L231.52,166.72L233.19,165.45L234.36,162.89L234.43,161.61L235.29,160.34L235.71,161.61L236.45,159.06L238.32,157.78L238.91,155.23L238.99,153.95L239.15,151.39L239.88,150.12L240.01,151.39L240.2,150.12L241.36,148.84L241.69,145.01L241.71,152.67L241.71,153.95L241.71,155.23L242.26,150.12L242.7,148.84L242.91,150.12L243.88,148.84L244.03,150.12L244.27,148.84L244.87,150.12L244.94,148.84L245.13,153.95L245.56,151.39L245.83,152.67L246.14,151.39L246.16,153.95L246.26,153.95L246.27,155.23L247.29,151.39L247.74,150.12L248.15,147.56L248.29,153.95L248.67,152.67L248.98,151.39L249.13,152.67L249.16,153.95L249.24,152.67L249.56,155.23L249.87,156.5L249.96,153.95L249.99,164.17L250,165.45L250.82,187.16L250.95,185.88L251.26,187.16L251.81,185.88L252.85,180.77L252.94,182.05L254.26,173.11L254.41,174.39L254.69,173.11L255.94,169.28L255.94,170.55L256.09,171.83L256.68,168L257,166.72L257.19,165.45L257.84,166.72L258.47,160.34L258.94,159.06L259.42,153.95L259.43,155.23L259.97,156.5L260.8,151.39L260.98,150.12L262.26,142.45L262.69,141.18L262.89,139.9L263.95,138.62L265.38,130.96L265.8,129.68L266.8,125.85L266.84,127.13L268.2,120.74L268.87,119.46L270.87,113.08L270.88,114.35L273.89,97.75L274.11,99.03L274.13,101.58L275.06,100.3L275.06,101.58L275.78,97.75L276.42,96.47L276.71,97.75L277.89,96.47L278.18,92.64L280.65,93.92L280.82,123.29L281.74,122.02L282.93,123.29L283.08,122.02L283.08,120.74L283.17,124.57L283.35,122.02L283.95,123.29L286.88,122.02L287.62,120.74L288.18,116.91L288.19,115.63L288.31,118.18L288.84,116.91L288.96,115.63L289.01,116.91L289.96,115.63L291.15,122.02L291.26,120.74L291.45,119.46L291.48,122.02L291.92,119.46L292.16,118.18L292.93,115.63L293.01,114.35L293.4,111.8L293.77,113.08L293.77,114.35L294.06,127.13L295.01,125.85L295.18,127.13L295.7,124.57L295.71,125.85L295.71,127.13L296.73,124.57L296.9,125.85L297.01,123.29L297.46,124.57L297.84,125.85L298.31,127.13L298.83,125.85L300.3,120.74L300.62,119.46L300.95,122.02L301.1,116.91L301.22,118.18L301.28,116.91L301.83,118.18L302.98,116.91L303.01,118.18L303.55,115.63L303.9,114.35L304.22,109.24L304.5,110.52L304.88,111.8L304.89,116.91L305.08,114.35L306.12,113.08L306.85,124.57L306.85,123.29L306.96,122.02L306.99,120.74L307.3,132.24L307.45,132.24L307.55,133.51L307.6,142.45L308.3,139.9L308.66,141.18L309.37,136.07L309.54,137.34L310.22,134.79L310.76,133.51L310.79,134.79L311.07,130.96L311.9,129.68L312.13,130.96L312.14,129.68L312.77,128.4L313.09,132.24L313.2,128.4L313.66,127.13L314.06,123.29L314.7,122.02L314.9,120.74L316.24,119.46L316.92,115.63L316.98,114.35L318.2,106.69L319.19,105.41L321.92,96.47L323.04,95.19L323.82,92.64L324.65,91.36L324.79,88.81L325.54,90.08L325.9,109.24L326.1,107.97L326.38,109.24L326.67,107.97L326.68,110.52L327.03,109.24L327.67,110.52L328.19,109.24L328.93,110.52L330.07,106.69L331.03,105.41L332.32,104.13L332.67,105.41L332.72,106.69L333.73,105.41L334.26,102.86L334.72,104.13L334.9,102.86L335.33,104.13L335.36,105.41L335.36,106.69L336.04,104.13L336.73,105.41L337.72,141.18L338.01,139.9L338.17,136.07L338.63,141.18L338.78,142.45L340.24,130.96L340.59,129.68L340.71,132.24L341.18,130.96L341.62,129.68L342.61,132.24L343,130.96L343.99,129.68L344,130.96L344.61,129.68L344.84,128.4L345.18,127.13L345.6,128.4L345.98,127.13L346.58,125.85L346.82,124.57L347.03,122.02L348.15,120.74L348.42,119.46L349.53,118.18L351.14,113.08L351.14,114.35L351.17,115.63L352.14,110.52L352.67,111.8L353.52,106.69L353.52,107.97L354.02,106.69L354.07,107.97L354.69,105.41L354.7,104.13L354.81,101.58L356.12,100.3L356.97,97.75L357.01,96.47L357.83,93.92L358.17,92.64L359.11,97.75L359.5,96.47L359.68,95.19L361.2,92.64L361.42,93.92L362.52,91.36L363.09,90.08L364.65,84.97L365.27,83.7L365.64,82.42L365.85,83.7L365.91,84.97L365.93,83.7L366.82,82.42L367.94,79.87L368.05,78.59L369.05,77.31L369.06,78.59L369.13,96.47L369.78,92.64L370.04,93.92L370.67,91.36L370.91,90.08L371.66,91.36L372.58,90.08L373.21,86.25L373.32,87.53L373.6,86.25L374.89,83.7L375.74,82.42L376.36,79.87L376.36,78.59L376.36,72.2L377.63,70.92L378.67,67.09L380.18,68.37L380.18,70.92L380.59,67.09L380.6,68.37L380.95,67.09L381.45,68.37L381.77,67.09L381.78,65.82L382.03,67.09L382.91,65.82L383.05,64.54L383.06,65.82L384.38,67.09L385.02,65.82L385.07,67.09L385.24,68.37L385.24,69.65L385.86,69.65L386.17,70.92L386.37,84.97L387.36,86.25L388.38,83.7L388.9,82.42L389.03,79.87L389.06,83.7L389.49,84.97L390.7,76.03L390.71,77.31L390.71,76.03L390.74,82.42L391.05,79.87L391.61,78.59L392.92,74.76L394.05,73.48L394.76,69.65L395.47,68.37L395.85,64.54L396.33,67.09L396.58,65.82L397.61,59.43L397.61,60.71L399.04,59.43L399.82,53.04L399.83,55.6L400.65,54.32L400.98,55.6L401.02,54.32L401.53,53.04L402.09,50.49L402.74,51.76L403.69,47.93L404.33,46.66L404.94,44.1L405.17,45.38L405.31,46.66L405.62,47.93L405.83,46.66L407.01,47.93L409.4,38.99L409.68,37.71L410.67,36.44L411.4,37.71L412.49,33.88L412.58,32.61L412.64,33.88L412.81,28.77L413.43,30.05L413.5,27.5L414.65,26.22L414.82,23.66L415,26.22L415.26,27.5L415.66,26.22L415.83,27.5L415.86,28.77L416.13,31.33L416.67,30.05L417.71,22.39L417.75,26.22L418.41,24.94L418.49,23.66L418.7,26.22L418.94,26.22L419.1,27.5L419.9,22.39L420.22,23.66L420.36,27.5L420.86,22.39L421.19,21.11L421.77,18.55L421.77,19.83L421.84,21.11L422.39,16L422.49,18.55L422.76,19.83L422.92,17.28L423.06,32.61L423.06,33.88L423.46,36.44L423.76,33.88L423.76,32.61L423.76,24.94L424.45,33.88L424.49,30.05L424.61,31.33L426.29,22.39L426.35,23.66L426.49,36.44L426.89,31.33L427.18,30.05L427.22,32.61L427.75,30.05L428.33,28.77L428.98,32.61L429.25,31.33L429.48,30.05L429.63,32.61L429.71,31.33L430.29,30.05L430.93,40.27L430.96,38.99L431.34,37.71L431.41,36.44L431.74,40.27L432,38.99L432.35,37.71L432.77,33.88L432.94,36.44L433.48,35.16L433.9,31.33L434.3,32.61L434.3,33.88L435.16,53.04L435.37,51.76L435.8,49.21L436.64,47.93L436.77,51.76L437.76,53.04L438.86,50.49L438.9,49.21L439.06,50.49L439.43,49.21L439.9,47.93L440.36,45.38L440.48,49.21L440.61,47.93L440.86,46.66L441.5,44.1L441.86,45.38L442.48,51.76L442.71,49.21L442.73,47.93L443.44,51.76L443.58,50.49L443.97,41.55L444.35,49.21L444.45,47.93L444.73,44.1L444.85,51.76L444.85,53.04L445.45,44.1L445.57,46.66L445.7,45.38L446.05,41.55L446.27,42.82L446.47,44.1L446.71,41.55L446.88,51.76L446.88,53.04L447.17,69.65L447.6,64.54L447.69,65.82L447.7,67.09L448.46,65.82L448.69,63.26L448.74,72.2L448.75,73.48L449.18,70.92L449.27,72.2L449.68,70.92L449.72,72.2L449.83,69.65L450.44,68.37L451.08,64.54L451.26,63.26L452,56.87L452.26,59.43L452.29,60.71L452.45,59.43L452.82,65.82L453.4,64.54L453.53,65.82L453.79,63.26L453.97,64.54L454.31,65.82L454.97,55.6L455.27,54.32L455.29,53.04L455.38,56.87L455.73,54.32L456.22,53.04L456.24,54.32L456.82,44.1L456.86,46.66L457.66,45.38L458.15,41.55L458.71,42.82L458.84,40.27L459.12,46.66L459.5,45.38L459.52,44.1L459.84,42.82L460.11,45.38L460.4,44.1L460.58,46.66L460.94,44.1L461.29,45.38L461.82,38.99L462.17,41.55L462.23,42.82L462.36,41.55L462.39,45.38L462.83,42.82L463.26,41.55L463.27,40.27L463.82,51.76L463.83,49.21L463.98,47.93L465.22,51.76L465.41,50.49L465.66,53.04L466.13,51.76L466.38,50.49L467.38,55.6L467.52,53.04L467.55,51.76L467.66,49.21L468.21,53.04L468.22,53.04L468.57,51.76L468.82,47.93L469.21,51.76L469.24,53.04L469.56,51.76L470.39,72.2L470.67,70.92L470.76,69.65L471.5,67.09L471.52,65.82L472.38,55.6L472.47,56.87L472.55,54.32L472.66,65.82L472.94,64.54L472.94,65.82L473.5,64.54L473.52,65.82L473.78,67.09L474.18,74.76L474.47,72.2L474.62,70.92L474.74,65.82L475.37,65.82L475.49,64.54L475.6,63.26L475.63,68.37L475.79,67.09L476.26,68.37L476.54,69.65L477.18,64.54L477.48,65.82L477.5,69.65L478.19,67.09L478.32,68.37L478.77,65.82L479.48,64.54L479.74,59.43L480.05,64.54L480.36,63.26L481.48,53.04L482.25,54.32L482.77,67.09L483.18,65.82L483.28,68.37L483.62,60.71L483.8,61.98L484.05,60.71L484.52,68.37L485.22,67.09L485.41,65.82L485.74,68.37L485.75,69.65L486.39,67.09L486.64,81.14L486.74,79.87L486.74,77.31L487.3,84.97L487.58,83.7L487.8,84.97L489.26,83.7L489.85,84.97L490.15,83.7L490.61,84.97L490.62,83.7L491.17,82.42L491.17,81.14L491.43,84.97L491.51,83.7L492.14,82.42L492.36,83.7L492.69,82.42L493.08,81.14L493.16,78.59L493.3,82.42L493.59,81.14L494.12,79.87L494.2,78.59L494.63,83.7L494.63,84.97L495.73,81.14L496.12,82.42L496.38,79.87L496.68,81.14L496.69,82.42L496.72,84.97L497.28,84.97L497.46,83.7L498.25,76.03L498.27,78.59L498.28,79.87L498.28,81.14L498.43,78.59L499.28,79.87L499.28,78.59L499.56,78.59L500.73,77.31L501.28,73.48L501.53,76.03L501.63,74.76L502.27,69.65L502.46,68.37L503.12,70.92L503.15,68.37L503.3,67.09L504.12,65.82L504.69,67.09L504.71,69.65L505.25,69.65L505.55,68.37L505.55,67.09L506.26,69.65L506.45,68.37L506.55,67.09L507.46,65.82L508.09,67.09L508.52,65.82L509.28,60.71L509.51,59.43L509.54,60.71L509.69,59.43L510.41,58.15L510.67,60.71L511.13,59.43L511.24,60.71L511.65,55.6L511.81,58.15L512.09,59.43L512.36,55.6L514.14,56.87L514.47,53.04L515.11,54.32L515.37,67.09L515.81,63.26L515.94,64.54L516.07,67.09L516.65,65.82L517.05,64.54L517.37,60.71L518.32,59.43L518.45,56.87L519.48,55.6L520.14,53.04L520.25,51.76L520.37,49.21L521.8,50.49L522.22,69.65L522.51,67.09L522.59,65.82L522.65,68.37L523.39,67.09L524.34,63.26L524.34,64.54L525.07,70.92L525.11,69.65L525.54,68.37L526.18,63.26L526.22,64.54L526.67,63.26L529.16,58.15L529.48,56.87L530.59,53.04L531.51,51.76L531.61,49.21L531.81,50.49L532.46,49.21L533.12,46.66L534.62,45.38L535.86,42.82L536.19,41.55L537.58,33.88L537.59,35.16L537.61,33.88L537.66,37.71L538.23,35.16L538.45,33.88L539.29,24.94L539.43,23.66L540,19.83" style="vector-effect: none; fill: none; stroke: rgb(255, 127, 14); stroke-opacity: 1; stroke-width: 2px; opacity: 1;"/></g><g class="points"/><g class="text"/></g></g></g></g><g class="zerolinelayer-above"/><path class="xlines-above crisp" d="M0,0" style="fill: none;"/><path class="ylines-above crisp" d="M0,0" style="fill: none;"/><g class="overlines-above"/><g class="xaxislayer-above"><g class="xtick"><text text-anchor="middle" x="0" y="439" transform="translate(100.98,0)" style="font-family: 'Open Sans'; font-size: 18px; fill: rgb(0, 0, 0); fill-opacity: 1; white-space: pre;">2016</text></g><g class="xtick"><text text-anchor="middle" x="0" y="439" style="font-family: 'Open Sans'; font-size: 18px; fill: rgb(0, 0, 0); fill-opacity: 1; white-space: pre;" transform="translate(205.12,0)">2018</text></g><g class="xtick"><text text-anchor="middle" x="0" y="439" style="font-family: 'Open Sans'; font-size: 18px; fill: rgb(0, 0, 0); fill-opacity: 1; white-space: pre;" transform="translate(309.11,0)">2020</text></g><g class="xtick"><text text-anchor="middle" x="0" y="439" style="font-family: 'Open Sans'; font-size: 18px; fill: rgb(0, 0, 0); fill-opacity: 1; white-space: pre;" transform="translate(413.24,0)">2022</text></g><g class="xtick"><text text-anchor="middle" x="0" y="439" style="font-family: 'Open Sans'; font-size: 18px; fill: rgb(0, 0, 0); fill-opacity: 1; white-space: pre;" transform="translate(517.23,0)">2024</text></g></g><g class="yaxislayer-above"><g class="ytick"><text text-anchor="end" x="79" y="6.3" transform="translate(0,420)" style="font-family: 'Open Sans'; font-size: 18px; fill: rgb(0, 0, 0); fill-opacity: 1; white-space: pre;">0</text></g><g class="ytick"><text text-anchor="end" x="79" y="6.3" style="font-family: 'Open Sans'; font-size: 18px; fill: rgb(0, 0, 0); fill-opacity: 1; white-space: pre;" transform="translate(0,356.13)">50</text></g><g class="ytick"><text text-anchor="end" x="79" y="6.3" style="font-family: 'Open Sans'; font-size: 18px; fill: rgb(0, 0, 0); fill-opacity: 1; white-space: pre;" transform="translate(0,292.27)">100</text></g><g class="ytick"><text text-anchor="end" x="79" y="6.3" style="font-family: 'Open Sans'; font-size: 18px; fill: rgb(0, 0, 0); fill-opacity: 1; white-space: pre;" transform="translate(0,228.4)">150</text></g><g class="ytick"><text text-anchor="end" x="79" y="6.3" style="font-family: 'Open Sans'; font-size: 18px; fill: rgb(0, 0, 0); fill-opacity: 1; white-space: pre;" transform="translate(0,164.54000000000002)">200</text></g><g class="ytick"><text text-anchor="end" x="79" y="6.3" style="font-family: 'Open Sans'; font-size: 18px; fill: rgb(0, 0, 0); fill-opacity: 1; white-space: pre;" transform="translate(0,100.67)">250</text></g></g><g class="overaxes-above"/></g></g><g class="polarlayer"/><g class="smithlayer"/><g class="ternarylayer"/><g class="geolayer"/><g class="funnelarealayer"/><g class="pielayer"/><g class="iciclelayer"/><g class="treemaplayer"/><g class="sunburstlayer"/><g class="glimages"/><defs id="topdefs-cb6077"><g class="clips"/></defs><g class="layer-above"><g class="imagelayer"/><g class="shapelayer"/></g><g class="infolayer"><g class="g-gtitle"><text class="gtitle" x="35" y="50" text-anchor="start" dy="0em" style="opacity: 1; font-family: 'Open Sans'; font-size: 25px; fill: rgb(0, 0, 0); fill-opacity: 1; white-space: pre;">MultiQC/MultiQC - Open Issues Over Time</text></g><g class="g-xtitle"><text class="xtitle" x="350" y="472.9" text-anchor="middle" style="opacity: 1; font-family: 'Open Sans'; font-size: 22px; fill: rgb(0, 0, 0); fill-opacity: 1; white-space: pre;">Date</text></g><g class="g-ytitle"><text class="ytitle" transform="rotate(-90,29.799999999999997,260)" x="29.799999999999997" y="260" text-anchor="middle" style="opacity: 1; font-family: 'Open Sans'; font-size: 22px; fill: rgb(0, 0, 0); fill-opacity: 1; white-space: pre;">Number of Open Issues</text></g></g></svg>