<svg class="main-svg" xmlns="http://www.w3.org/2000/svg" xmlns:xlink="http://www.w3.org/1999/xlink" width="700" height="500" style="" viewBox="0 0 700 500"><rect x="0" y="0" width="700" height="500" style="fill: rgb(0, 0, 0); fill-opacity: 0;"/><defs id="defs-d868c3"><g class="clips"><clipPath id="clipd868c3xyplot" class="plotclip"><rect width="540" height="320"/></clipPath><clipPath class="axesclip" id="clipd868c3x"><rect x="80" y="0" width="540" height="500"/></clipPath><clipPath class="axesclip" id="clipd868c3y"><rect x="0" y="100" width="700" height="320"/></clipPath><clipPath class="axesclip" id="clipd868c3xy"><rect x="80" y="100" width="540" height="320"/></clipPath></g><g class="gradients"/><g class="patterns"/></defs><g class="bglayer"><rect class="bg" x="80" y="100" width="540" height="320" style="fill: rgb(0, 0, 0); fill-opacity: 0; stroke-width: 0;"/></g><g class="layer-below"><g class="imagelayer"/><g class="shapelayer"/></g><g class="cartesianlayer"><g class="subplot xy"><g class="layer-subplot"><g class="shapelayer"/><g class="imagelayer"/></g><g class="minor-gridlayer"><g class="x"/><g class="y"/></g><g class="gridlayer"><g class="x"><path class="xgrid crisp" transform="translate(101.48,0)" d="M0,100v320" style="stroke: rgb(255, 255, 255); stroke-opacity: 1; stroke-width: 1px;"/><path class="xgrid crisp" transform="translate(208.08,0)" d="M0,100v320" style="stroke: rgb(255, 255, 255); stroke-opacity: 1; stroke-width: 1px;"/><path class="xgrid crisp" transform="translate(314.53,0)" d="M0,100v320" style="stroke: rgb(255, 255, 255); stroke-opacity: 1; stroke-width: 1px;"/><path class="xgrid crisp" transform="translate(421.13,0)" d="M0,100v320" style="stroke: rgb(255, 255, 255); stroke-opacity: 1; stroke-width: 1px;"/><path class="xgrid crisp" transform="translate(527.5799999999999,0)" d="M0,100v320" style="stroke: rgb(255, 255, 255); stroke-opacity: 1; stroke-width: 1px;"/></g><g class="y"><path class="ygrid crisp" transform="translate(0,334.89)" d="M80,0h540" style="stroke: rgb(255, 255, 255); stroke-opacity: 1; stroke-width: 1px;"/><path class="ygrid crisp" transform="translate(0,249.79)" d="M80,0h540" style="stroke: rgb(255, 255, 255); stroke-opacity: 1; stroke-width: 1px;"/><path class="ygrid crisp" transform="translate(0,164.68)" d="M80,0h540" style="stroke: rgb(255, 255, 255); stroke-opacity: 1; stroke-width: 1px;"/></g></g><g class="zerolinelayer"><path class="yzl zl crisp" transform="translate(0,420)" d="M80,0h540" style="stroke: rgb(255, 255, 255); stroke-opacity: 1; stroke-width: 2px;"/></g><g class="layer-between"><g class="shapelayer"/><g class="imagelayer"/></g><path class="xlines-below"/><path class="ylines-below"/><g class="overlines-below"/><g class="xaxislayer-below"/><g class="yaxislayer-below"/><g class="overaxes-below"/><g class="overplot"><g class="xy" transform="translate(80,100)" clip-path="url(#clipd868c3xyplot)"><g class="scatterlayer mlayer"><g class="trace scatter traceec7fa0" style="stroke-miterlimit: 2;"><g class="fills"><g><path class="js-fill" d="M540,320L0,320L0,319.83L0,319.49L2.01,319.32L3.91,318.3L4.64,318.13L5.25,316.94L5.65,316.77L6.26,315.74L6.57,315.57L8.74,312L9.15,311.83L10.33,310.81L10.33,310.64L10.78,309.96L11.23,309.79L12.35,308.77L12.35,308.6L13.08,306.89L13.12,306.72L15.17,304.34L16.17,304.17L18.18,303.15L18.67,302.98L19.07,302.64L22.14,302.47L27.44,299.91L27.55,299.74L28.28,299.4L30.19,299.23L33.24,297.36L34.48,297.19L38.5,294.47L38.5,294.3L38.82,293.45L39.47,293.28L41.7,291.06L41.7,290.89L42.4,290.21L42.71,290.04L45.02,288L46.34,287.83L48.55,285.79L48.69,285.62L49.07,284.94L49.75,284.77L54.1,282.89L54.78,282.72L55.84,281.7L57.01,281.53L61.26,278.3L62.89,278.13L66.25,275.06L66.35,274.89L66.47,274.55L67.25,274.38L69.91,273.02L69.95,272.85L70.27,272.51L71.04,272.34L72.22,272L73.2,271.83L74.05,270.64L74.46,270.47L80.5,268.43L80.62,268.26L82.25,267.23L82.78,267.06L83.59,265.87L83.79,265.7L86.48,264.51L86.73,264.34L86.76,264L87.62,263.83L88.36,262.98L88.64,262.81L89.35,262.3L89.7,262.13L89.7,261.79L90.81,261.62L90.84,261.28L91.71,261.11L96.04,259.74L96.53,259.57L97.66,258.89L97.97,258.72L102.65,256.68L102.66,256.51L103.94,255.49L103.94,255.32L104.67,253.11L104.7,252.94L114.86,247.32L116.18,247.15L119.29,245.96L120.12,245.79L121.61,245.11L122.63,244.94L124.54,243.74L124.57,243.57L129.32,241.36L129.52,241.19L130.57,240.51L130.98,240.34L137.33,236.09L137.51,235.91L142.57,234.21L142.6,234.04L144.02,232.85L144.02,232.68L146.68,230.98L146.84,230.81L151.79,228.6L152.75,228.43L154.75,227.57L155.88,227.4L157.03,226.04L157.94,225.87L158.2,225.53L158.74,225.36L163.87,223.83L164.02,223.66L164.86,222.98L165.03,222.81L177.18,217.7L177.42,217.53L177.69,217.02L179.53,216.85L185.48,214.64L185.58,214.47L190.25,212.77L190.41,212.6L191.01,211.91L191.6,211.74L191.9,211.4L192.92,211.23L192.92,211.06L193.68,210.89L198.02,207.32L198.88,207.15L200.24,205.96L200.81,205.79L208.09,204.09L208.34,203.91L211.87,202.89L212.01,202.72L212.52,202.21L213.38,202.04L220.6,199.83L220.83,199.66L224.09,198.3L224.17,198.13L225.93,196.94L226.28,196.77L227.18,196.09L227.52,195.91L228.45,194.89L229.19,194.72L232.38,191.66L233.44,191.49L235.79,190.47L235.93,190.3L236.54,189.96L238.71,189.79L244.56,188.09L244.64,187.91L245.56,187.4L245.88,187.23L247.43,186.38L247.61,186.21L248.44,185.36L249.65,185.19L251.37,184L251.96,183.83L252.7,182.98L253.14,182.81L253.86,181.96L253.96,181.79L254.87,181.11L255.14,180.94L256.04,180.09L256.06,179.91L259.08,178.21L259.22,178.04L260.28,177.02L260.72,176.85L264.06,175.15L264.07,174.98L275.64,167.83L276.55,167.66L277.67,166.64L278.23,166.47L278.83,165.62L279.22,165.45L284.76,163.4L288.4,163.23L295,161.7L295.01,161.53L298.53,160L298.59,159.83L300.96,158.3L301.99,158.13L304.04,156.77L305.23,156.6L307.96,155.23L308.07,155.06L308.88,154.21L310.15,154.04L312.3,152L313.37,151.83L314.28,150.3L314.35,150.13L315.06,149.62L315.4,149.45L318.43,147.57L319.28,147.4L322.35,145.19L323.72,145.02L325.3,143.66L325.46,143.49L327.65,142.81L328.25,142.64L329.54,141.79L330.68,141.62L331.49,141.28L332.33,141.11L332.47,140.77L333.61,140.6L334.4,139.74L334.77,139.57L342.82,137.7L343.69,137.53L348.22,134.81L348.29,134.64L351.12,133.96L351.9,133.79L355.24,131.91L356.39,131.74L358.12,131.23L359.02,131.06L362.4,128.68L362.7,128.51L370.23,125.45L371.1,125.28L378.4,122.38L378.53,122.21L380.26,121.36L381.4,121.19L382.04,120.68L382.44,120.51L385.27,119.15L385.27,118.98L385.27,118.64L386.57,118.47L387.63,117.96L389.51,117.79L389.96,117.28L390.8,117.11L390.81,116.94L391.97,116.77L392.12,116.6L393.71,116.43L398.98,114.21L399.25,114.04L399.95,113.19L400.1,113.02L400.88,112.34L401.2,112.17L405.12,110.64L405.15,110.47L406.11,109.96L406.4,109.79L407.01,109.11L408.48,108.94L409.28,108.09L410.13,107.91L417.34,105.19L418.07,105.02L422.47,102.98L422.49,102.81L423.29,102.3L424.47,102.13L425.7,101.45L426.53,101.28L433.79,95.32L433.79,95.15L434.53,93.45L434.8,93.28L438.71,90.04L439.41,89.87L446.97,84.6L448.82,84.43L453.18,81.87L453.21,81.7L453.92,80.17L454.08,80L455.28,77.11L455.39,76.94L455.99,75.23L456.25,75.06L456.83,74.21L457.09,74.04L463.31,69.11L464.13,68.94L465.33,67.4L465.37,67.23L466.16,65.87L466.46,65.7L467.63,64L468.49,63.83L468.99,63.32L469.65,63.15L470.52,61.96L470.72,61.79L472.44,60.6L472.45,60.43L473.2,59.57L473.3,59.4L474.8,57.87L474.81,57.7L475.63,57.19L476.42,57.02L478.62,55.83L478.73,55.66L481.48,52.94L481.5,52.77L482.78,51.4L482.79,51.23L483.52,50.55L483.56,50.38L486.95,46.3L487.59,46.13L488.47,45.11L489.09,44.94L490.98,43.4L491.09,43.23L492.25,42.21L492.55,42.04L494.18,41.53L494.62,41.36L495.92,39.15L496.71,38.98L499.12,37.28L500.84,37.11L500.89,36.94L501.75,36.77L505.13,34.89L505.27,34.72L509.35,32.68L509.37,32.51L510.23,31.66L511.1,31.49L515.2,28.77L515.33,28.6L521.13,26.55L521.29,26.38L521.75,25.7L522.49,25.53L524.41,24.34L524.48,24.17L527.58,23.15L527.63,22.98L528.88,21.62L529.29,21.45L529.61,20.94L530.59,20.77L530.72,20.43L531.77,20.26L535.86,18.38L536.03,18.21L538.12,16.85L538.63,16.68L539.13,16.34L539.96,16.17L540,16" style="fill: rgb(255, 127, 14); fill-opacity: 0.5; stroke-width: 0;"/></g></g><g class="errorbars"/><g class="lines"><path class="js-line" d="M0,319.83L0,319.49L2.01,319.32L3.91,318.3L4.64,318.13L5.25,316.94L5.65,316.77L6.26,315.74L6.57,315.57L8.74,312L9.15,311.83L10.33,310.81L10.33,310.64L10.78,309.96L11.23,309.79L12.35,308.77L12.35,308.6L13.08,306.89L13.12,306.72L15.17,304.34L16.17,304.17L18.18,303.15L18.67,302.98L19.07,302.64L22.14,302.47L27.44,299.91L27.55,299.74L28.28,299.4L30.19,299.23L33.24,297.36L34.48,297.19L38.5,294.47L38.5,294.3L38.82,293.45L39.47,293.28L41.7,291.06L41.7,290.89L42.4,290.21L42.71,290.04L45.02,288L46.34,287.83L48.55,285.79L48.69,285.62L49.07,284.94L49.75,284.77L54.1,282.89L54.78,282.72L55.84,281.7L57.01,281.53L61.26,278.3L62.89,278.13L66.25,275.06L66.35,274.89L66.47,274.55L67.25,274.38L69.91,273.02L69.95,272.85L70.27,272.51L71.04,272.34L72.22,272L73.2,271.83L74.05,270.64L74.46,270.47L80.5,268.43L80.62,268.26L82.25,267.23L82.78,267.06L83.59,265.87L83.79,265.7L86.48,264.51L86.73,264.34L86.76,264L87.62,263.83L88.36,262.98L88.64,262.81L89.35,262.3L89.7,262.13L89.7,261.79L90.81,261.62L90.84,261.28L91.71,261.11L96.04,259.74L96.53,259.57L97.66,258.89L97.97,258.72L102.65,256.68L102.66,256.51L103.94,255.49L103.94,255.32L104.67,253.11L104.7,252.94L114.86,247.32L116.18,247.15L119.29,245.96L120.12,245.79L121.61,245.11L122.63,244.94L124.54,243.74L124.57,243.57L129.32,241.36L129.52,241.19L130.57,240.51L130.98,240.34L137.33,236.09L137.51,235.91L142.57,234.21L142.6,234.04L144.02,232.85L144.02,232.68L146.68,230.98L146.84,230.81L151.79,228.6L152.75,228.43L154.75,227.57L155.88,227.4L157.03,226.04L157.94,225.87L158.2,225.53L158.74,225.36L163.87,223.83L164.02,223.66L164.86,222.98L165.03,222.81L177.18,217.7L177.42,217.53L177.69,217.02L179.53,216.85L185.48,214.64L185.58,214.47L190.25,212.77L190.41,212.6L191.01,211.91L191.6,211.74L191.9,211.4L192.92,211.23L192.92,211.06L193.68,210.89L198.02,207.32L198.88,207.15L200.24,205.96L200.81,205.79L208.09,204.09L208.34,203.91L211.87,202.89L212.01,202.72L212.52,202.21L213.38,202.04L220.6,199.83L220.83,199.66L224.09,198.3L224.17,198.13L225.93,196.94L226.28,196.77L227.18,196.09L227.52,195.91L228.45,194.89L229.19,194.72L232.38,191.66L233.44,191.49L235.79,190.47L235.93,190.3L236.54,189.96L238.71,189.79L244.56,188.09L244.64,187.91L245.56,187.4L245.88,187.23L247.43,186.38L247.61,186.21L248.44,185.36L249.65,185.19L251.37,184L251.96,183.83L252.7,182.98L253.14,182.81L253.86,181.96L253.96,181.79L254.87,181.11L255.14,180.94L256.04,180.09L256.06,179.91L259.08,178.21L259.22,178.04L260.28,177.02L260.72,176.85L264.06,175.15L264.07,174.98L275.64,167.83L276.55,167.66L277.67,166.64L278.23,166.47L278.83,165.62L279.22,165.45L284.76,163.4L288.4,163.23L295,161.7L295.01,161.53L298.53,160L298.59,159.83L300.96,158.3L301.99,158.13L304.04,156.77L305.23,156.6L307.96,155.23L308.07,155.06L308.88,154.21L310.15,154.04L312.3,152L313.37,151.83L314.28,150.3L314.35,150.13L315.06,149.62L315.4,149.45L318.43,147.57L319.28,147.4L322.35,145.19L323.72,145.02L325.3,143.66L325.46,143.49L327.65,142.81L328.25,142.64L329.54,141.79L330.68,141.62L331.49,141.28L332.33,141.11L332.47,140.77L333.61,140.6L334.4,139.74L334.77,139.57L342.82,137.7L343.69,137.53L348.22,134.81L348.29,134.64L351.12,133.96L351.9,133.79L355.24,131.91L356.39,131.74L358.12,131.23L359.02,131.06L362.4,128.68L362.7,128.51L370.23,125.45L371.1,125.28L378.4,122.38L378.53,122.21L380.26,121.36L381.4,121.19L382.04,120.68L382.44,120.51L385.27,119.15L385.27,118.98L385.27,118.64L386.57,118.47L387.63,117.96L389.51,117.79L389.96,117.28L390.8,117.11L390.81,116.94L391.97,116.77L392.12,116.6L393.71,116.43L398.98,114.21L399.25,114.04L399.95,113.19L400.1,113.02L400.88,112.34L401.2,112.17L405.12,110.64L405.15,110.47L406.11,109.96L406.4,109.79L407.01,109.11L408.48,108.94L409.28,108.09L410.13,107.91L417.34,105.19L418.07,105.02L422.47,102.98L422.49,102.81L423.29,102.3L424.47,102.13L425.7,101.45L426.53,101.28L433.79,95.32L433.79,95.15L434.53,93.45L434.8,93.28L438.71,90.04L439.41,89.87L446.97,84.6L448.82,84.43L453.18,81.87L453.21,81.7L453.92,80.17L454.08,80L455.28,77.11L455.39,76.94L455.99,75.23L456.25,75.06L456.83,74.21L457.09,74.04L463.31,69.11L464.13,68.94L465.33,67.4L465.37,67.23L466.16,65.87L466.46,65.7L467.63,64L468.49,63.83L468.99,63.32L469.65,63.15L470.52,61.96L470.72,61.79L472.44,60.6L472.45,60.43L473.2,59.57L473.3,59.4L474.8,57.87L474.81,57.7L475.63,57.19L476.42,57.02L478.62,55.83L478.73,55.66L481.48,52.94L481.5,52.77L482.78,51.4L482.79,51.23L483.52,50.55L483.56,50.38L486.95,46.3L487.59,46.13L488.47,45.11L489.09,44.94L490.98,43.4L491.09,43.23L492.25,42.21L492.55,42.04L494.18,41.53L494.62,41.36L495.92,39.15L496.71,38.98L499.12,37.28L500.84,37.11L500.89,36.94L501.75,36.77L505.13,34.89L505.27,34.72L509.35,32.68L509.37,32.51L510.23,31.66L511.1,31.49L515.2,28.77L515.33,28.6L521.13,26.55L521.29,26.38L521.75,25.7L522.49,25.53L524.41,24.34L524.48,24.17L527.58,23.15L527.63,22.98L528.88,21.62L529.29,21.45L529.61,20.94L530.59,20.77L530.72,20.43L531.77,20.26L535.86,18.38L536.03,18.21L538.12,16.85L538.63,16.68L539.13,16.34L539.96,16.17L540,16" style="vector-effect: none; fill: none; stroke: rgb(255, 127, 14); stroke-opacity: 1; stroke-width: 2px; opacity: 1;"/></g><g class="points"/><g class="text"/></g></g></g></g><g class="zerolinelayer-above"/><path class="xlines-above crisp" d="M0,0" style="fill: none;"/><path class="ylines-above crisp" d="M0,0" style="fill: none;"/><g class="overlines-above"/><g class="xaxislayer-above"><g class="xtick"><text text-anchor="middle" x="0" y="439" transform="translate(101.48,0)" style="font-family: 'Open Sans'; font-size: 18px; fill: rgb(255, 255, 255); fill-opacity: 1; white-space: pre;">2016</text></g><g class="xtick"><text text-anchor="middle" x="0" y="439" style="font-family: 'Open Sans'; font-size: 18px; fill: rgb(255, 255, 255); fill-opacity: 1; white-space: pre;" transform="translate(208.08,0)">2018</text></g><g class="xtick"><text text-anchor="middle" x="0" y="439" style="font-family: 'Open Sans'; font-size: 18px; fill: rgb(255, 255, 255); fill-opacity: 1; white-space: pre;" transform="translate(314.53,0)">2020</text></g><g class="xtick"><text text-anchor="middle" x="0" y="439" style="font-family: 'Open Sans'; font-size: 18px; fill: rgb(255, 255, 255); fill-opacity: 1; white-space: pre;" transform="translate(421.13,0)">2022</text></g><g class="xtick"><text text-anchor="middle" x="0" y="439" style="font-family: 'Open Sans'; font-size: 18px; fill: rgb(255, 255, 255); fill-opacity: 1; white-space: pre;" transform="translate(527.5799999999999,0)">2024</text></g></g><g class="yaxislayer-above"><g class="ytick"><text text-anchor="end" x="79" y="6.3" transform="translate(0,420)" style="font-family: 'Open Sans'; font-size: 18px; fill: rgb(255, 255, 255); fill-opacity: 1; white-space: pre;">0</text></g><g class="ytick"><text text-anchor="end" x="79" y="6.3" style="font-family: 'Open Sans'; font-size: 18px; fill: rgb(255, 255, 255); fill-opacity: 1; white-space: pre;" transform="translate(0,334.89)">500</text></g><g class="ytick"><text text-anchor="end" x="79" y="6.3" style="font-family: 'Open Sans'; font-size: 18px; fill: rgb(255, 255, 255); fill-opacity: 1; white-space: pre;" transform="translate(0,249.79)">1000</text></g><g class="ytick"><text text-anchor="end" x="79" y="6.3" style="font-family: 'Open Sans'; font-size: 18px; fill: rgb(255, 255, 255); fill-opacity: 1; white-space: pre;" transform="translate(0,164.68)">1500</text></g></g><g class="overaxes-above"/></g></g><g class="polarlayer"/><g class="smithlayer"/><g class="ternarylayer"/><g class="geolayer"/><g class="funnelarealayer"/><g class="pielayer"/><g class="iciclelayer"/><g class="treemaplayer"/><g class="sunburstlayer"/><g class="glimages"/><defs id="topdefs-d868c3"><g class="clips"/></defs><g class="layer-above"><g class="imagelayer"/><g class="shapelayer"/></g><g class="infolayer"><g class="g-gtitle"><text class="gtitle" x="35" y="50" text-anchor="start" dy="0em" style="opacity: 1; font-family: 'Open Sans'; font-size: 25px; fill: rgb(255, 255, 255); fill-opacity: 1; white-space: pre;">MultiQC/MultiQC - Issues Created Over Time</text></g><g class="g-xtitle"><text class="xtitle" x="350" y="472.9" text-anchor="middle" style="opacity: 1; font-family: 'Open Sans'; font-size: 22px; fill: rgb(255, 255, 255); fill-opacity: 1; white-space: pre;">Date</text></g><g class="g-ytitle"><text class="ytitle" transform="rotate(-90,20.799999999999997,260)" x="20.799999999999997" y="260" text-anchor="middle" style="opacity: 1; font-family: 'Open Sans'; font-size: 22px; fill: rgb(255, 255, 255); fill-opacity: 1; white-space: pre;">Cumulative Issues Created</text></g></g></svg>