<svg class="main-svg" xmlns="http://www.w3.org/2000/svg" xmlns:xlink="http://www.w3.org/1999/xlink" width="700" height="500" style="" viewBox="0 0 700 500"><rect x="0" y="0" width="700" height="500" style="fill: rgb(0, 0, 0); fill-opacity: 0;"/><defs id="defs-31d10b"><g class="clips"><clipPath id="clip31d10bxyplot" class="plotclip"><rect width="540" height="320"/></clipPath><clipPath class="axesclip" id="clip31d10bx"><rect x="80" y="0" width="540" height="500"/></clipPath><clipPath class="axesclip" id="clip31d10by"><rect x="0" y="100" width="700" height="320"/></clipPath><clipPath class="axesclip" id="clip31d10bxy"><rect x="80" y="100" width="540" height="320"/></clipPath></g><g class="gradients"/><g class="patterns"/></defs><g class="bglayer"><rect class="bg" x="80" y="100" width="540" height="320" style="fill: rgb(0, 0, 0); fill-opacity: 0; stroke-width: 0;"/></g><g class="layer-below"><g class="imagelayer"/><g class="shapelayer"/></g><g class="cartesianlayer"><g class="subplot xy"><g class="layer-subplot"><g class="shapelayer"/><g class="imagelayer"/></g><g class="minor-gridlayer"><g class="x"/><g class="y"/></g><g class="gridlayer"><g class="x"><path class="xgrid crisp" transform="translate(100.59,0)" d="M0,100v320" style="stroke: rgb(255, 255, 255); stroke-opacity: 1; stroke-width: 1px;"/><path class="xgrid crisp" transform="translate(202.75,0)" d="M0,100v320" style="stroke: rgb(255, 255, 255); stroke-opacity: 1; stroke-width: 1px;"/><path class="xgrid crisp" transform="translate(304.78,0)" d="M0,100v320" style="stroke: rgb(255, 255, 255); stroke-opacity: 1; stroke-width: 1px;"/><path class="xgrid crisp" transform="translate(406.95,0)" d="M0,100v320" style="stroke: rgb(255, 255, 255); stroke-opacity: 1; stroke-width: 1px;"/><path class="xgrid crisp" transform="translate(508.97,0)" d="M0,100v320" style="stroke: rgb(255, 255, 255); stroke-opacity: 1; stroke-width: 1px;"/><path class="xgrid crisp" transform="translate(611.14,0)" d="M0,100v320" style="stroke: rgb(255, 255, 255); stroke-opacity: 1; stroke-width: 1px;"/></g><g class="y"><path class="ygrid crisp" transform="translate(0,359.44)" d="M80,0h540" style="stroke: rgb(255, 255, 255); stroke-opacity: 1; stroke-width: 1px;"/><path class="ygrid crisp" transform="translate(0,298.88)" d="M80,0h540" style="stroke: rgb(255, 255, 255); stroke-opacity: 1; stroke-width: 1px;"/><path class="ygrid crisp" transform="translate(0,238.33)" d="M80,0h540" style="stroke: rgb(255, 255, 255); stroke-opacity: 1; stroke-width: 1px;"/><path class="ygrid crisp" transform="translate(0,177.76999999999998)" d="M80,0h540" style="stroke: rgb(255, 255, 255); stroke-opacity: 1; stroke-width: 1px;"/><path class="ygrid crisp" transform="translate(0,117.21000000000001)" d="M80,0h540" style="stroke: rgb(255, 255, 255); stroke-opacity: 1; stroke-width: 1px;"/></g></g><g class="zerolinelayer"><path class="yzl zl crisp" transform="translate(0,420)" d="M80,0h540" style="stroke: rgb(255, 255, 255); stroke-opacity: 1; stroke-width: 2px;"/></g><g class="layer-between"><g class="shapelayer"/><g class="imagelayer"/></g><path class="xlines-below"/><path class="ylines-below"/><g class="overlines-below"/><g class="xaxislayer-below"/><g class="yaxislayer-below"/><g class="overaxes-below"/><g class="overplot"><g class="xy" transform="translate(80,100)" clip-path="url(#clip31d10bxyplot)"><g class="scatterlayer mlayer"><g class="trace scatter trace9735cf" style="stroke-miterlimit: 2;"><g class="fills"><g><path class="js-fill" d="M540,320L0,320L0,318.79L0,316.37L0.55,317.58L1.81,318.79L1.92,317.58L2.93,318.79L3.75,312.73L3.77,313.94L4.45,312.73L4.87,307.89L5.04,309.1L5.41,310.31L5.57,306.68L5.86,311.52L6,309.1L6.3,310.31L6.97,299.41L7.08,298.2L7.25,296.99L7.51,299.41L7.52,300.62L7.53,301.83L7.69,292.14L8.38,290.93L8.76,300.62L8.76,301.83L9.48,309.1L9.49,307.89L9.61,306.68L9.9,303.04L9.9,301.83L10.33,299.41L10.36,303.04L10.75,304.25L10.76,303.04L11.32,306.68L11.43,305.47L11.58,304.25L12.53,287.3L12.56,289.72L12.57,290.93L13,295.78L13.18,293.35L13.41,292.14L13.8,286.09L13.95,289.72L14.35,288.51L14.54,287.3L14.67,289.72L15.36,290.93L15.52,294.57L16.7,293.35L17.3,290.93L17.42,289.72L18.14,284.88L18.15,286.09L18.28,284.88L18.71,286.09L21.22,284.88L21.22,286.09L21.62,282.45L21.63,284.88L23.14,283.67L23.33,284.88L23.47,283.67L24.3,282.45L25.02,280.03L25.12,281.24L25.43,280.03L26.17,288.51L26.23,287.3L26.27,286.09L26.3,283.67L26.96,287.3L27.1,286.09L27.35,287.3L28.51,288.51L29.93,284.88L30.15,286.09L30.19,289.72L30.19,289.72L30.98,288.51L31.45,292.14L31.86,290.93L32.05,296.99L32.94,298.2L33.63,295.78L33.64,296.99L33.78,298.2L34.65,294.57L34.76,295.78L35.37,296.99L35.74,295.78L35.74,296.99L35.88,290.93L36.16,292.14L36.85,290.93L37.08,287.3L37.27,294.57L37.76,295.78L37.83,294.57L38.27,298.2L38.32,299.41L38.83,294.57L38.83,295.78L39.13,296.99L39.97,290.93L40.1,294.57L40.43,293.35L40.64,290.93L40.79,294.57L40.93,293.35L41.06,294.57L42.03,288.51L42.06,289.72L42.86,286.09L43.15,284.88L43.91,287.3L44.41,286.09L44.72,289.72L44.98,286.09L45.17,284.88L45.5,283.67L45.65,287.3L45.66,288.51L45.7,287.3L46.11,293.35L46.5,292.14L46.68,290.93L46.78,294.57L47.09,293.35L47.64,294.57L47.65,298.2L47.94,295.78L48.49,296.99L48.88,295.78L48.88,296.99L49.57,295.78L49.57,296.99L49.75,294.57L49.87,294.57L50.7,293.35L51.85,290.93L52.4,292.14L52.4,293.35L52.83,289.72L52.98,292.14L53.42,290.93L53.52,289.72L53.82,293.35L54.64,292.14L55.95,287.3L56.45,286.09L57.67,275.19L57.75,277.61L57.84,278.82L57.84,280.03L58.59,276.4L58.71,275.19L58.73,276.4L60.27,275.19L61.46,267.92L61.58,269.13L62.47,266.71L63.01,265.5L63.71,254.6L63.73,257.02L64.46,255.81L65.11,258.23L65.11,259.44L65.12,265.5L65.42,265.5L66.1,264.29L67.35,260.65L68.08,259.44L68.33,266.71L69.22,265.5L70.31,277.61L70.45,276.4L70.97,275.19L70.97,273.98L71.36,273.98L71.81,275.19L72.88,271.55L72.88,272.76L73.31,271.55L73.34,270.34L73.39,271.55L74.23,270.34L75.01,269.13L75.51,267.92L78.78,258.23L78.78,259.44L79.23,263.08L79.37,259.44L79.76,260.65L80.05,261.86L80.11,258.23L80.31,260.65L81.04,261.86L81.36,255.81L81.37,257.02L82.49,255.81L82.7,257.02L82.89,255.81L83.12,254.6L83.15,253.39L83.85,257.02L83.98,255.81L84.12,257.02L84.69,253.39L84.69,254.6L84.83,255.81L85.23,260.65L85.64,259.44L85.97,258.23L85.97,255.81L86.08,259.44L87.04,258.23L87.04,259.44L87.06,257.02L87.73,259.44L87.9,258.23L88.69,260.65L89.02,259.44L89.59,260.65L89.67,261.86L89.98,266.71L90.52,265.5L90.82,273.98L91.1,271.55L91.57,270.34L92.61,266.71L92.75,267.92L92.75,269.13L94.58,261.86L94.6,263.08L96.67,255.81L96.81,257.02L96.81,258.23L97.7,260.65L97.8,261.86L98.64,272.76L98.95,271.55L99.35,273.98L99.35,272.76L99.45,271.55L99.49,273.98L99.91,261.86L99.91,261.86L100.32,260.65L100.64,258.23L100.9,264.29L101.29,263.08L102.27,260.65L102.27,261.86L102.27,263.08L102.4,265.5L102.83,264.29L103.32,263.08L103.66,266.71L103.8,264.29L104.2,263.08L104.22,264.29L104.77,261.86L104.79,263.08L105.37,261.86L105.48,260.65L105.48,261.86L106.16,263.08L106.16,264.29L106.76,263.08L107.32,261.86L107.55,258.23L107.72,258.23L108.13,257.02L109.48,250.96L109.52,252.18L109.59,253.39L111.64,249.75L112.19,250.96L113.58,247.33L114.04,248.54L114.33,247.33L115.16,276.4L115.27,275.19L115.88,272.76L116.15,273.98L116.55,272.76L116.56,273.98L117.53,272.76L117.93,273.98L118.22,272.76L118.24,271.55L118.92,270.34L119.16,271.55L119.17,273.98L119.39,269.13L119.9,267.92L119.9,269.13L120.32,266.71L120.38,266.71L120.94,265.5L120.94,264.29L121.42,270.34L123.14,269.13L123.36,270.34L123.41,269.13L123.92,267.92L124.36,263.08L125.14,261.86L126.82,257.02L127.19,258.23L127.65,255.81L127.73,257.02L127.73,258.23L127.88,264.29L128.24,261.86L128.77,260.65L129.28,258.23L129.52,259.44L129.52,260.65L130.12,264.29L130.82,263.08L131.79,258.23L132.17,259.44L132.85,258.23L133.9,257.02L135.03,253.39L135.83,254.6L136.56,253.39L136.63,254.6L137.14,253.39L137.5,252.18L137.51,254.6L138.04,249.75L138.04,249.75L138.48,248.54L138.48,246.12L139.04,247.33L139.39,246.12L139.89,243.7L139.92,242.49L139.99,241.27L140.04,244.91L140.59,243.7L140.61,244.91L141.01,242.49L141.64,243.7L142.03,240.06L142.28,250.96L142.83,249.75L143.56,247.33L143.64,248.54L143.65,247.33L143.67,249.75L144.83,248.54L145.48,247.33L145.59,249.75L146.4,248.54L146.42,249.75L147.06,246.12L147.12,247.33L147.68,248.54L149.4,246.12L149.41,247.33L150.5,241.27L151.37,240.06L151.62,237.64L152.14,238.85L152.14,237.64L152.8,243.7L153.16,242.49L154.34,241.27L154.67,242.49L157.06,236.43L157.2,237.64L157.71,232.8L158,231.59L159.3,224.32L160.02,223.11L160.02,224.32L160.41,223.11L161.49,221.9L161.54,220.69L161.99,225.53L162.42,224.32L163.47,221.9L163.47,220.69L163.49,219.47L163.7,227.95L164.96,226.74L165.2,224.32L166.29,223.11L167.01,227.95L167.36,226.74L170.23,217.05L170.3,215.84L170.34,217.05L172.07,215.84L172.31,220.69L172.32,221.9L172.33,225.53L172.74,223.11L174.67,221.9L174.69,224.32L174.84,223.11L175.58,221.9L176.09,217.05L176.1,218.26L176.62,219.47L176.97,220.69L177.86,215.84L177.92,217.05L178.05,218.26L178.89,217.05L178.9,218.26L181.98,213.42L182.08,212.21L182.64,208.57L182.65,209.78L183.07,208.57L183.09,211L183.75,209.78L183.93,208.57L184.61,209.78L184.9,208.57L185.63,207.36L185.81,206.15L186.57,203.73L186.71,202.52L186.88,203.73L187.03,201.31L187.04,202.52L187.83,201.31L189.2,192.83L189.2,195.25L189.46,194.04L189.79,191.62L190.1,192.83L190.62,191.62L190.82,189.2L191.27,191.62L191.54,190.41L191.91,187.98L192.47,186.77L193.62,185.56L193.62,186.77L193.7,185.56L193.73,186.77L195.07,185.56L195.8,186.77L196.52,185.56L196.75,184.35L196.75,185.56L198.59,184.35L199.28,183.14L199.29,184.35L199.29,185.56L199.68,184.35L200.51,185.56L200.51,186.77L201.19,186.77L201.37,185.56L202.33,183.14L203.05,181.93L203.69,178.29L204.06,179.51L205.44,174.66L205.76,175.87L207.17,174.66L207.39,173.45L208.38,172.24L208.49,173.45L209.2,172.24L210.99,168.61L211.29,169.82L211.65,166.18L212.38,164.97L212.81,167.39L212.85,166.18L213.12,164.97L213.86,162.55L214.07,163.76L214.1,164.97L214.13,168.61L214.85,164.97L214.91,166.18L215.28,163.76L215.36,171.03L215.75,169.82L215.77,171.03L215.79,169.82L216.51,168.61L216.73,169.82L217.19,166.18L217.32,167.39L218.14,183.14L218.15,181.93L218.21,180.72L219.08,196.46L219.66,195.25L219.83,196.46L220.25,191.62L220.25,192.83L220.41,194.04L220.68,195.25L220.84,192.83L220.96,191.62L221.91,186.77L222.21,185.56L222.68,181.93L222.72,180.72L222.82,185.56L223.74,184.35L225.73,181.93L225.75,180.72L226.34,174.66L226.7,173.45L227.15,174.66L228.79,173.45L229.93,171.03L230.01,169.82L230.85,168.61L231.26,169.82L231.99,167.39L233.82,166.18L234.4,163.76L234.47,162.55L235.35,158.92L235.48,160.13L235.66,158.92L236.81,157.71L237.12,154.07L237.14,161.34L237.14,162.55L237.14,163.76L237.69,158.92L238.12,157.71L238.32,158.92L239.27,157.71L239.42,158.92L239.66,157.71L240.24,158.92L240.32,157.71L240.5,162.55L240.92,160.13L241.19,161.34L241.49,160.13L241.51,162.55L241.61,162.55L241.62,163.76L242.62,160.13L243.06,158.92L243.47,156.49L243.6,162.55L243.97,161.34L244.28,160.13L244.42,161.34L244.45,162.55L244.54,161.34L244.84,163.76L245.15,164.97L245.24,162.55L245.27,172.24L245.28,173.45L245.8,192.83L245.95,191.62L246.08,192.83L246.08,194.04L246.51,194.04L247.05,192.83L248.08,187.98L248.17,189.2L249.46,180.72L249.6,181.93L249.88,180.72L251.1,177.08L251.11,178.29L251.25,179.51L251.84,175.87L252.14,174.66L252.33,173.45L252.97,174.66L253.59,168.61L254.05,167.39L254.52,162.55L254.53,163.76L255.06,164.97L255.87,160.13L256.05,158.92L257.3,151.65L257.73,150.44L257.93,149.23L258.96,148.02L260.37,140.75L260.78,139.54L261.93,135.9L261.94,137.12L265.76,123.79L265.76,125L268.72,109.26L268.94,110.47L268.95,112.89L269.86,111.68L269.86,112.89L270.57,109.26L271.2,108.05L271.48,109.26L272.64,108.05L272.93,104.41L275.35,105.63L275.51,133.48L276.41,132.27L277.58,133.48L277.73,132.27L277.73,131.06L277.82,134.69L277.99,132.27L278.59,133.48L281.46,132.27L282.19,131.06L282.74,127.43L282.75,126.22L282.87,128.64L283.5,126.22L283.55,127.43L284.48,126.22L284.72,127.43L285.26,132.27L285.43,129.85L285.65,131.06L285.65,132.27L285.95,129.85L286.4,129.85L286.64,128.64L287.39,126.22L287.48,125L287.86,122.58L288.22,123.79L288.22,125L288.5,137.12L289.44,135.9L289.61,137.12L290.12,134.69L290.13,135.9L290.13,137.12L291.12,134.69L291.29,135.9L291.4,133.48L291.84,134.69L292.22,135.9L292.68,137.12L293.19,135.9L294.63,131.06L294.94,129.85L295.26,132.27L295.41,127.43L295.53,128.64L295.58,127.43L296.13,128.64L297.26,127.43L297.28,128.64L297.82,126.22L298.16,125L298.48,120.16L298.74,121.37L299.12,122.58L299.13,127.43L299.32,125L300.34,123.79L301.06,134.69L301.06,133.48L301.16,132.27L301.19,131.06L301.5,141.96L301.64,141.96L301.74,143.17L301.79,151.65L302.48,149.23L302.83,150.44L303.53,145.59L303.69,146.8L304.36,144.38L304.89,143.17L304.92,144.38L305.2,140.75L306.01,139.54L306.24,140.75L306.24,139.54L306.86,138.33L307.18,141.96L307.28,138.33L307.74,137.12L308.13,133.48L308.76,132.27L308.95,131.06L310.27,129.85L310.93,126.22L310.99,125L312.19,117.74L313.16,116.53L315.84,108.05L316.94,106.84L317.71,104.41L318.52,103.2L318.65,100.78L319.39,101.99L319.74,120.16L319.94,118.95L320.22,120.16L320.5,118.95L320.51,121.37L320.85,120.16L321.48,121.37L321.99,120.16L322.72,121.37L323.83,117.74L324.78,116.53L326.04,115.31L326.38,116.53L326.43,117.74L327.43,116.53L327.94,114.1L328.4,115.31L328.57,114.1L329,115.31L329.02,116.53L329.02,117.74L329.69,115.31L330.37,116.53L331.34,150.44L331.62,149.23L331.78,145.59L332.23,150.44L332.39,151.65L333.81,140.75L334.16,139.54L334.28,141.96L334.74,140.75L335.16,139.54L336.14,141.96L336.53,140.75L337.5,139.54L337.51,140.75L338.1,139.54L338.33,138.33L338.66,137.12L339.07,138.33L339.44,137.12L340.03,135.9L340.27,134.69L340.47,132.27L341.57,131.06L341.84,129.85L342.93,128.64L344.51,123.79L344.51,125L344.54,126.22L345.48,121.37L346.01,122.58L346.84,117.74L346.85,118.95L347.33,117.74L347.38,118.95L347.99,116.53L348,115.31L348.11,112.89L349.39,111.68L350.23,109.26L350.26,108.05L351.08,105.63L351.4,104.41L352.33,109.26L352.7,108.05L352.88,106.84L354.38,104.41L354.59,105.63L355.68,103.2L356.23,101.99L357.77,97.15L358.37,95.94L358.73,94.73L358.94,95.94L359,97.15L359.02,95.94L359.89,94.73L360.99,92.3L361.1,91.09L362.07,89.88L362.09,91.09L362.16,108.05L362.8,104.41L363.05,105.63L363.67,103.2L363.91,101.99L364.64,103.2L365.55,101.99L366.16,98.36L366.27,99.57L366.55,98.36L367.81,95.94L368.64,94.73L369.25,92.3L369.25,91.09L369.25,85.04L370.5,83.82L371.51,80.19L373,81.4L373,83.82L373.41,80.19L373.75,80.19L374.24,81.4L374.57,78.98L374.82,80.19L375.68,78.98L375.82,77.77L375.82,78.98L377.11,80.19L377.74,78.98L377.8,80.19L377.96,81.4L378.57,82.61L378.88,83.82L379.07,97.15L380.04,98.36L381.04,95.94L381.55,94.73L381.68,92.3L381.72,95.94L382.13,97.15L383.32,88.67L383.33,89.88L383.33,88.67L383.36,94.73L383.66,92.3L384.21,91.09L385.5,87.46L386.61,86.25L387.31,82.61L388,81.4L388.37,77.77L388.84,80.19L389.09,78.98L390.1,72.92L390.1,74.14L391.51,72.92L392.27,66.87L392.28,69.29L393.08,68.08L393.41,69.29L393.45,68.08L393.94,66.87L394.49,64.45L395.13,65.66L396.06,62.02L396.69,60.81L397.29,58.39L397.52,59.6L397.65,60.81L397.96,62.02L398.16,60.81L399.32,62.02L401.67,53.55L401.94,52.33L402.91,51.12L403.63,52.33L404.7,48.7L404.78,47.49L404.85,48.7L405.01,43.86L405.62,45.07L405.69,42.65L406.82,41.43L406.98,39.01L407.16,41.43L407.42,42.65L407.81,41.43L407.97,42.65L408,43.86L408.27,46.28L408.8,45.07L409.82,37.8L409.86,41.43L410.51,40.22L410.58,39.01L410.79,41.43L411.02,41.43L411.19,42.65L411.97,37.8L412.28,39.01L412.42,42.65L412.91,37.8L413.23,36.59L413.8,34.17L413.81,35.38L413.87,36.59L414.41,31.75L414.51,34.17L414.77,35.38L414.93,32.96L415.07,45.07L415.07,46.28L415.47,51.12L415.76,40.22L415.83,41.43L416.44,48.7L416.47,45.07L416.59,46.28L418.24,37.8L418.3,39.01L418.43,51.12L418.83,46.28L419.11,45.07L419.15,47.49L419.67,45.07L420.24,43.86L420.87,47.49L421.15,46.28L421.37,45.07L421.52,47.49L421.59,46.28L422.16,45.07L422.79,54.76L422.82,53.55L423.19,52.33L423.26,51.12L423.58,54.76L423.84,53.55L424.18,52.33L424.59,48.7L424.76,51.12L425.29,49.91L425.71,46.28L426.1,48.7L426.1,49.91L426.94,66.87L427.14,65.66L427.22,64.45L427.23,65.66L427.56,63.24L428.39,62.02L428.52,65.66L429.49,66.87L430.57,64.45L430.61,63.24L430.77,64.45L431.13,63.24L431.59,62.02L432.04,59.6L432.16,63.24L432.29,62.02L432.53,60.81L433.16,58.39L433.51,59.6L434.12,65.66L434.34,63.24L434.37,62.02L435.06,65.66L435.2,64.45L435.59,55.97L435.96,63.24L436.05,62.02L436.33,58.39L436.44,64.45L436.44,65.66L436.45,66.87L437.03,58.39L437.15,59.6L437.15,60.81L437.63,55.97L437.84,57.18L438.03,58.39L438.28,55.97L438.44,64.45L438.44,65.66L438.73,82.61L439.14,77.77L439.24,78.98L439.25,80.19L439.99,78.98L440.06,77.77L440.22,76.56L440.28,86.25L440.42,83.82L440.52,85.04L441.33,82.61L441.93,81.4L442.74,76.56L442.89,75.35L443.47,70.5L443.74,74.14L443.75,75.35L443.9,72.92L444.17,77.77L444.27,78.98L445.1,77.77L445.22,76.56L445.73,78.98L445.8,75.35L445.85,74.14L445.85,75.35L446.37,69.29L446.67,68.08L446.69,66.87L446.77,70.5L447.12,68.08L447.61,66.87L447.62,68.08L448.2,58.39L448.23,60.81L449.01,59.6L449.5,55.97L450.05,57.18L450.17,54.76L450.45,60.81L450.82,59.6L450.84,58.39L451.16,57.18L451.41,59.6L451.7,58.39L451.88,60.81L452.24,58.39L452.58,59.6L453.1,53.55L453.44,55.97L453.5,57.18L453.63,55.97L453.66,59.6L454.09,57.18L454.51,55.97L454.52,54.76L455.05,65.66L455.21,62.02L455.47,63.24L455.47,62.02L455.76,65.66L455.86,64.45L456.43,65.66L456.62,64.45L456.87,66.87L457.32,65.66L457.85,64.45L457.9,65.66L457.97,66.87L458.55,69.29L458.55,68.08L458.69,66.87L458.83,63.24L459.38,66.87L459.72,65.66L459.96,62.02L460.34,65.66L460.38,66.87L460.69,65.66L461.51,85.04L461.78,83.82L462.88,71.71L463.42,70.5L463.62,68.08L463.73,78.98L463.84,75.35L464.01,76.56L464.01,78.98L464.57,78.98L464.83,80.19L465.22,87.46L465.51,85.04L465.65,83.82L465.77,78.98L466.39,78.98L466.51,77.77L466.61,76.56L466.64,81.4L466.8,80.19L467.26,81.4L467.53,82.61L468.16,77.77L468.46,78.98L468.48,82.61L469.15,80.19L469.28,81.4L469.72,78.98L470.42,77.77L470.68,72.92L470.98,77.77L471.29,76.56L472.39,66.87L473.14,68.08L473.65,80.19L474.06,78.98L474.15,81.4L474.49,74.14L474.66,75.35L474.91,74.14L475.37,81.4L476.06,80.19L476.25,78.98L476.57,81.4L476.57,82.61L477.21,80.19L477.45,93.51L477.54,92.3L477.55,89.88L478.1,97.15L478.37,95.94L478.58,97.15L480.02,95.94L480.6,97.15L480.89,95.94L481.34,97.15L481.36,95.94L481.89,94.73L481.89,93.51L482.15,97.15L482.23,95.94L482.84,94.73L483.06,95.94L483.38,94.73L483.77,93.51L483.84,91.09L483.98,94.73L484.27,93.51L484.79,92.3L484.86,91.09L485.28,95.94L485.29,97.15L486.37,93.51L486.75,94.73L487,92.3L487.3,94.73L487.31,95.94L487.89,97.15L488.06,95.94L488.08,94.73L488.84,88.67L488.87,92.3L488.87,93.51L489.02,91.09L489.85,92.3L489.85,91.09L490.13,91.09L491.27,89.88L491.81,86.25L492.06,88.67L492.15,87.46L492.78,82.61L492.97,81.4L493.61,83.82L493.64,81.4L493.79,80.19L494.6,78.98L495.16,80.19L495.17,82.61L495.71,82.61L496,81.4L496,80.19L496.7,82.61L496.89,81.4L496.98,80.19L497.88,78.98L498.49,80.19L498.92,78.98L499.66,74.14L499.89,72.92L499.91,74.14L500.06,72.92L500.77,71.71L501.02,74.14L501.47,72.92L501.58,74.14L501.99,69.29L502.14,71.71L502.42,72.92L502.68,69.29L504.43,70.5L504.75,66.87L505.38,68.08L505.63,80.19L506.2,78.98L506.32,80.19L506.46,77.77L506.89,78.98L507.29,77.77L507.6,74.14L508.53,72.92L508.66,70.5L509.66,69.29L510.32,66.87L510.42,65.66L510.54,63.24L511.95,64.45L512.36,82.61L512.64,80.19L512.72,78.98L512.78,81.4L513.51,80.19L514.44,76.56L514.44,77.77L515.15,83.82L515.19,82.61L515.62,81.4L516.24,76.56L516.28,77.77L516.72,76.56L519.16,71.71L519.48,70.5L520.11,68.08L520.57,66.87L521.52,64.45L521.57,63.24L521.77,64.45L522.4,63.24L523.05,60.81L524.52,59.6L526.06,55.97L526.19,54.76L527.42,48.7L527.43,49.91L527.46,48.7L527.5,52.33L528.07,49.91L528.28,48.7L529.1,40.22L529.24,39.01L529.8,35.38L532.74,34.17L534.19,26.9L536,25.69L536.01,24.48L536.96,23.27L536.97,24.48L537.48,20.84L537.79,19.63L538.13,17.21L540,16" style="fill: rgb(255, 127, 14); fill-opacity: 0.5; stroke-width: 0;"/></g></g><g class="errorbars"/><g class="lines"><path class="js-line" d="M0,318.79L0,316.37L0.55,317.58L1.81,318.79L1.92,317.58L2.93,318.79L3.75,312.73L3.77,313.94L4.45,312.73L4.87,307.89L5.04,309.1L5.41,310.31L5.57,306.68L5.86,311.52L6,309.1L6.3,310.31L6.97,299.41L7.08,298.2L7.25,296.99L7.51,299.41L7.52,300.62L7.53,301.83L7.69,292.14L8.38,290.93L8.76,300.62L8.76,301.83L9.48,309.1L9.49,307.89L9.61,306.68L9.9,303.04L9.9,301.83L10.33,299.41L10.36,303.04L10.75,304.25L10.76,303.04L11.32,306.68L11.43,305.47L11.58,304.25L12.53,287.3L12.56,289.72L12.57,290.93L13,295.78L13.18,293.35L13.41,292.14L13.8,286.09L13.95,289.72L14.35,288.51L14.54,287.3L14.67,289.72L15.36,290.93L15.52,294.57L16.7,293.35L17.3,290.93L17.42,289.72L18.14,284.88L18.15,286.09L18.28,284.88L18.71,286.09L21.22,284.88L21.22,286.09L21.62,282.45L21.63,284.88L23.14,283.67L23.33,284.88L23.47,283.67L24.3,282.45L25.02,280.03L25.12,281.24L25.43,280.03L26.17,288.51L26.23,287.3L26.27,286.09L26.3,283.67L26.96,287.3L27.1,286.09L27.35,287.3L28.51,288.51L29.93,284.88L30.15,286.09L30.19,289.72L30.19,289.72L30.98,288.51L31.45,292.14L31.86,290.93L32.05,296.99L32.94,298.2L33.63,295.78L33.64,296.99L33.78,298.2L34.65,294.57L34.76,295.78L35.37,296.99L35.74,295.78L35.74,296.99L35.88,290.93L36.16,292.14L36.85,290.93L37.08,287.3L37.27,294.57L37.76,295.78L37.83,294.57L38.27,298.2L38.32,299.41L38.83,294.57L38.83,295.78L39.13,296.99L39.97,290.93L40.1,294.57L40.43,293.35L40.64,290.93L40.79,294.57L40.93,293.35L41.06,294.57L42.03,288.51L42.06,289.72L42.86,286.09L43.15,284.88L43.91,287.3L44.41,286.09L44.72,289.72L44.98,286.09L45.17,284.88L45.5,283.67L45.65,287.3L45.66,288.51L45.7,287.3L46.11,293.35L46.5,292.14L46.68,290.93L46.78,294.57L47.09,293.35L47.64,294.57L47.65,298.2L47.94,295.78L48.49,296.99L48.88,295.78L48.88,296.99L49.57,295.78L49.57,296.99L49.75,294.57L49.87,294.57L50.7,293.35L51.85,290.93L52.4,292.14L52.4,293.35L52.83,289.72L52.98,292.14L53.42,290.93L53.52,289.72L53.82,293.35L54.64,292.14L55.95,287.3L56.45,286.09L57.67,275.19L57.75,277.61L57.84,278.82L57.84,280.03L58.59,276.4L58.71,275.19L58.73,276.4L60.27,275.19L61.46,267.92L61.58,269.13L62.47,266.71L63.01,265.5L63.71,254.6L63.73,257.02L64.46,255.81L65.11,258.23L65.11,259.44L65.12,265.5L65.42,265.5L66.1,264.29L67.35,260.65L68.08,259.44L68.33,266.71L69.22,265.5L70.31,277.61L70.45,276.4L70.97,275.19L70.97,273.98L71.36,273.98L71.81,275.19L72.88,271.55L72.88,272.76L73.31,271.55L73.34,270.34L73.39,271.55L74.23,270.34L75.01,269.13L75.51,267.92L78.78,258.23L78.78,259.44L79.23,263.08L79.37,259.44L79.76,260.65L80.05,261.86L80.11,258.23L80.31,260.65L81.04,261.86L81.36,255.81L81.37,257.02L82.49,255.81L82.7,257.02L82.89,255.81L83.12,254.6L83.15,253.39L83.85,257.02L83.98,255.81L84.12,257.02L84.69,253.39L84.69,254.6L84.83,255.81L85.23,260.65L85.64,259.44L85.97,258.23L85.97,255.81L86.08,259.44L87.04,258.23L87.04,259.44L87.06,257.02L87.73,259.44L87.9,258.23L88.69,260.65L89.02,259.44L89.59,260.65L89.67,261.86L89.98,266.71L90.52,265.5L90.82,273.98L91.1,271.55L91.57,270.34L92.61,266.71L92.75,267.92L92.75,269.13L94.58,261.86L94.6,263.08L96.67,255.81L96.81,257.02L96.81,258.23L97.7,260.65L97.8,261.86L98.64,272.76L98.95,271.55L99.35,273.98L99.35,272.76L99.45,271.55L99.49,273.98L99.91,261.86L99.91,261.86L100.32,260.65L100.64,258.23L100.9,264.29L101.29,263.08L102.27,260.65L102.27,261.86L102.27,263.08L102.4,265.5L102.83,264.29L103.32,263.08L103.66,266.71L103.8,264.29L104.2,263.08L104.22,264.29L104.77,261.86L104.79,263.08L105.37,261.86L105.48,260.65L105.48,261.86L106.16,263.08L106.16,264.29L106.76,263.08L107.32,261.86L107.55,258.23L107.72,258.23L108.13,257.02L109.48,250.96L109.52,252.18L109.59,253.39L111.64,249.75L112.19,250.96L113.58,247.33L114.04,248.54L114.33,247.33L115.16,276.4L115.27,275.19L115.88,272.76L116.15,273.98L116.55,272.76L116.56,273.98L117.53,272.76L117.93,273.98L118.22,272.76L118.24,271.55L118.92,270.34L119.16,271.55L119.17,273.98L119.39,269.13L119.9,267.92L119.9,269.13L120.32,266.71L120.38,266.71L120.94,265.5L120.94,264.29L121.42,270.34L123.14,269.13L123.36,270.34L123.41,269.13L123.92,267.92L124.36,263.08L125.14,261.86L126.82,257.02L127.19,258.23L127.65,255.81L127.73,257.02L127.73,258.23L127.88,264.29L128.24,261.86L128.77,260.65L129.28,258.23L129.52,259.44L129.52,260.65L130.12,264.29L130.82,263.08L131.79,258.23L132.17,259.44L132.85,258.23L133.9,257.02L135.03,253.39L135.83,254.6L136.56,253.39L136.63,254.6L137.14,253.39L137.5,252.18L137.51,254.6L138.04,249.75L138.04,249.75L138.48,248.54L138.48,246.12L139.04,247.33L139.39,246.12L139.89,243.7L139.92,242.49L139.99,241.27L140.04,244.91L140.59,243.7L140.61,244.91L141.01,242.49L141.64,243.7L142.03,240.06L142.28,250.96L142.83,249.75L143.56,247.33L143.64,248.54L143.65,247.33L143.67,249.75L144.83,248.54L145.48,247.33L145.59,249.75L146.4,248.54L146.42,249.75L147.06,246.12L147.12,247.33L147.68,248.54L149.4,246.12L149.41,247.33L150.5,241.27L151.37,240.06L151.62,237.64L152.14,238.85L152.14,237.64L152.8,243.7L153.16,242.49L154.34,241.27L154.67,242.49L157.06,236.43L157.2,237.64L157.71,232.8L158,231.59L159.3,224.32L160.02,223.11L160.02,224.32L160.41,223.11L161.49,221.9L161.54,220.69L161.99,225.53L162.42,224.32L163.47,221.9L163.47,220.69L163.49,219.47L163.7,227.95L164.96,226.74L165.2,224.32L166.29,223.11L167.01,227.95L167.36,226.74L170.23,217.05L170.3,215.84L170.34,217.05L172.07,215.84L172.31,220.69L172.32,221.9L172.33,225.53L172.74,223.11L174.67,221.9L174.69,224.32L174.84,223.11L175.58,221.9L176.09,217.05L176.1,218.26L176.62,219.47L176.97,220.69L177.86,215.84L177.92,217.05L178.05,218.26L178.89,217.05L178.9,218.26L181.98,213.42L182.08,212.21L182.64,208.57L182.65,209.78L183.07,208.57L183.09,211L183.75,209.78L183.93,208.57L184.61,209.78L184.9,208.57L185.63,207.36L185.81,206.15L186.57,203.73L186.71,202.52L186.88,203.73L187.03,201.31L187.04,202.52L187.83,201.31L189.2,192.83L189.2,195.25L189.46,194.04L189.79,191.62L190.1,192.83L190.62,191.62L190.82,189.2L191.27,191.62L191.54,190.41L191.91,187.98L192.47,186.77L193.62,185.56L193.62,186.77L193.7,185.56L193.73,186.77L195.07,185.56L195.8,186.77L196.52,185.56L196.75,184.35L196.75,185.56L198.59,184.35L199.28,183.14L199.29,184.35L199.29,185.56L199.68,184.35L200.51,185.56L200.51,186.77L201.19,186.77L201.37,185.56L202.33,183.14L203.05,181.93L203.69,178.29L204.06,179.51L205.44,174.66L205.76,175.87L207.17,174.66L207.39,173.45L208.38,172.24L208.49,173.45L209.2,172.24L210.99,168.61L211.29,169.82L211.65,166.18L212.38,164.97L212.81,167.39L212.85,166.18L213.12,164.97L213.86,162.55L214.07,163.76L214.1,164.97L214.13,168.61L214.85,164.97L214.91,166.18L215.28,163.76L215.36,171.03L215.75,169.82L215.77,171.03L215.79,169.82L216.51,168.61L216.73,169.82L217.19,166.18L217.32,167.39L218.14,183.14L218.15,181.93L218.21,180.72L219.08,196.46L219.66,195.25L219.83,196.46L220.25,191.62L220.25,192.83L220.41,194.04L220.68,195.25L220.84,192.83L220.96,191.62L221.91,186.77L222.21,185.56L222.68,181.93L222.72,180.72L222.82,185.56L223.74,184.35L225.73,181.93L225.75,180.72L226.34,174.66L226.7,173.45L227.15,174.66L228.79,173.45L229.93,171.03L230.01,169.82L230.85,168.61L231.26,169.82L231.99,167.39L233.82,166.18L234.4,163.76L234.47,162.55L235.35,158.92L235.48,160.13L235.66,158.92L236.81,157.71L237.12,154.07L237.14,161.34L237.14,162.55L237.14,163.76L237.69,158.92L238.12,157.71L238.32,158.92L239.27,157.71L239.42,158.92L239.66,157.71L240.24,158.92L240.32,157.71L240.5,162.55L240.92,160.13L241.19,161.34L241.49,160.13L241.51,162.55L241.61,162.55L241.62,163.76L242.62,160.13L243.06,158.92L243.47,156.49L243.6,162.55L243.97,161.34L244.28,160.13L244.42,161.34L244.45,162.55L244.54,161.34L244.84,163.76L245.15,164.97L245.24,162.55L245.27,172.24L245.28,173.45L245.8,192.83L245.95,191.62L246.08,192.83L246.08,194.04L246.51,194.04L247.05,192.83L248.08,187.98L248.17,189.2L249.46,180.72L249.6,181.93L249.88,180.72L251.1,177.08L251.11,178.29L251.25,179.51L251.84,175.87L252.14,174.66L252.33,173.45L252.97,174.66L253.59,168.61L254.05,167.39L254.52,162.55L254.53,163.76L255.06,164.97L255.87,160.13L256.05,158.92L257.3,151.65L257.73,150.44L257.93,149.23L258.96,148.02L260.37,140.75L260.78,139.54L261.93,135.9L261.94,137.12L265.76,123.79L265.76,125L268.72,109.26L268.94,110.47L268.95,112.89L269.86,111.68L269.86,112.89L270.57,109.26L271.2,108.05L271.48,109.26L272.64,108.05L272.93,104.41L275.35,105.63L275.51,133.48L276.41,132.27L277.58,133.48L277.73,132.27L277.73,131.06L277.82,134.69L277.99,132.27L278.59,133.48L281.46,132.27L282.19,131.06L282.74,127.43L282.75,126.22L282.87,128.64L283.5,126.22L283.55,127.43L284.48,126.22L284.72,127.43L285.26,132.27L285.43,129.85L285.65,131.06L285.65,132.27L285.95,129.85L286.4,129.85L286.64,128.64L287.39,126.22L287.48,125L287.86,122.58L288.22,123.79L288.22,125L288.5,137.12L289.44,135.9L289.61,137.12L290.12,134.69L290.13,135.9L290.13,137.12L291.12,134.69L291.29,135.9L291.4,133.48L291.84,134.69L292.22,135.9L292.68,137.12L293.19,135.9L294.63,131.06L294.94,129.85L295.26,132.27L295.41,127.43L295.53,128.64L295.58,127.43L296.13,128.64L297.26,127.43L297.28,128.64L297.82,126.22L298.16,125L298.48,120.16L298.74,121.37L299.12,122.58L299.13,127.43L299.32,125L300.34,123.79L301.06,134.69L301.06,133.48L301.16,132.27L301.19,131.06L301.5,141.96L301.64,141.96L301.74,143.17L301.79,151.65L302.48,149.23L302.83,150.44L303.53,145.59L303.69,146.8L304.36,144.38L304.89,143.17L304.92,144.38L305.2,140.75L306.01,139.54L306.24,140.75L306.24,139.54L306.86,138.33L307.18,141.96L307.28,138.33L307.74,137.12L308.13,133.48L308.76,132.27L308.95,131.06L310.27,129.85L310.93,126.22L310.99,125L312.19,117.74L313.16,116.53L315.84,108.05L316.94,106.84L317.71,104.41L318.52,103.2L318.65,100.78L319.39,101.99L319.74,120.16L319.94,118.95L320.22,120.16L320.5,118.95L320.51,121.37L320.85,120.16L321.48,121.37L321.99,120.16L322.72,121.37L323.83,117.74L324.78,116.53L326.04,115.31L326.38,116.53L326.43,117.74L327.43,116.53L327.94,114.1L328.4,115.31L328.57,114.1L329,115.31L329.02,116.53L329.02,117.74L329.69,115.31L330.37,116.53L331.34,150.44L331.62,149.23L331.78,145.59L332.23,150.44L332.39,151.65L333.81,140.75L334.16,139.54L334.28,141.96L334.74,140.75L335.16,139.54L336.14,141.96L336.53,140.75L337.5,139.54L337.51,140.75L338.1,139.54L338.33,138.33L338.66,137.12L339.07,138.33L339.44,137.12L340.03,135.9L340.27,134.69L340.47,132.27L341.57,131.06L341.84,129.85L342.93,128.64L344.51,123.79L344.51,125L344.54,126.22L345.48,121.37L346.01,122.58L346.84,117.74L346.85,118.95L347.33,117.74L347.38,118.95L347.99,116.53L348,115.31L348.11,112.89L349.39,111.68L350.23,109.26L350.26,108.05L351.08,105.63L351.4,104.41L352.33,109.26L352.7,108.05L352.88,106.84L354.38,104.41L354.59,105.63L355.68,103.2L356.23,101.99L357.77,97.15L358.37,95.94L358.73,94.73L358.94,95.94L359,97.15L359.02,95.94L359.89,94.73L360.99,92.3L361.1,91.09L362.07,89.88L362.09,91.09L362.16,108.05L362.8,104.41L363.05,105.63L363.67,103.2L363.91,101.99L364.64,103.2L365.55,101.99L366.16,98.36L366.27,99.57L366.55,98.36L367.81,95.94L368.64,94.73L369.25,92.3L369.25,91.09L369.25,85.04L370.5,83.82L371.51,80.19L373,81.4L373,83.82L373.41,80.19L373.75,80.19L374.24,81.4L374.57,78.98L374.82,80.19L375.68,78.98L375.82,77.77L375.82,78.98L377.11,80.19L377.74,78.98L377.8,80.19L377.96,81.4L378.57,82.61L378.88,83.82L379.07,97.15L380.04,98.36L381.04,95.94L381.55,94.73L381.68,92.3L381.72,95.94L382.13,97.15L383.32,88.67L383.33,89.88L383.33,88.67L383.36,94.73L383.66,92.3L384.21,91.09L385.5,87.46L386.61,86.25L387.31,82.61L388,81.4L388.37,77.77L388.84,80.19L389.09,78.98L390.1,72.92L390.1,74.14L391.51,72.92L392.27,66.87L392.28,69.29L393.08,68.08L393.41,69.29L393.45,68.08L393.94,66.87L394.49,64.45L395.13,65.66L396.06,62.02L396.69,60.81L397.29,58.39L397.52,59.6L397.65,60.81L397.96,62.02L398.16,60.81L399.32,62.02L401.67,53.55L401.94,52.33L402.91,51.12L403.63,52.33L404.7,48.7L404.78,47.49L404.85,48.7L405.01,43.86L405.62,45.07L405.69,42.65L406.82,41.43L406.98,39.01L407.16,41.43L407.42,42.65L407.81,41.43L407.97,42.65L408,43.86L408.27,46.28L408.8,45.07L409.82,37.8L409.86,41.43L410.51,40.22L410.58,39.01L410.79,41.43L411.02,41.43L411.19,42.65L411.97,37.8L412.28,39.01L412.42,42.65L412.91,37.8L413.23,36.59L413.8,34.17L413.81,35.38L413.87,36.59L414.41,31.75L414.51,34.17L414.77,35.38L414.93,32.96L415.07,45.07L415.07,46.28L415.47,51.12L415.76,40.22L415.83,41.43L416.44,48.7L416.47,45.07L416.59,46.28L418.24,37.8L418.3,39.01L418.43,51.12L418.83,46.28L419.11,45.07L419.15,47.49L419.67,45.07L420.24,43.86L420.87,47.49L421.15,46.28L421.37,45.07L421.52,47.49L421.59,46.28L422.16,45.07L422.79,54.76L422.82,53.55L423.19,52.33L423.26,51.12L423.58,54.76L423.84,53.55L424.18,52.33L424.59,48.7L424.76,51.12L425.29,49.91L425.71,46.28L426.1,48.7L426.1,49.91L426.94,66.87L427.14,65.66L427.22,64.45L427.23,65.66L427.56,63.24L428.39,62.02L428.52,65.66L429.49,66.87L430.57,64.45L430.61,63.24L430.77,64.45L431.13,63.24L431.59,62.02L432.04,59.6L432.16,63.24L432.29,62.02L432.53,60.81L433.16,58.39L433.51,59.6L434.12,65.66L434.34,63.24L434.37,62.02L435.06,65.66L435.2,64.45L435.59,55.97L435.96,63.24L436.05,62.02L436.33,58.39L436.44,64.45L436.44,65.66L436.45,66.87L437.03,58.39L437.15,59.6L437.15,60.81L437.63,55.97L437.84,57.18L438.03,58.39L438.28,55.97L438.44,64.45L438.44,65.66L438.73,82.61L439.14,77.77L439.24,78.98L439.25,80.19L439.99,78.98L440.06,77.77L440.22,76.56L440.28,86.25L440.42,83.82L440.52,85.04L441.33,82.61L441.93,81.4L442.74,76.56L442.89,75.35L443.47,70.5L443.74,74.14L443.75,75.35L443.9,72.92L444.17,77.77L444.27,78.98L445.1,77.77L445.22,76.56L445.73,78.98L445.8,75.35L445.85,74.14L445.85,75.35L446.37,69.29L446.67,68.08L446.69,66.87L446.77,70.5L447.12,68.08L447.61,66.87L447.62,68.08L448.2,58.39L448.23,60.81L449.01,59.6L449.5,55.97L450.05,57.18L450.17,54.76L450.45,60.81L450.82,59.6L450.84,58.39L451.16,57.18L451.41,59.6L451.7,58.39L451.88,60.81L452.24,58.39L452.58,59.6L453.1,53.55L453.44,55.97L453.5,57.18L453.63,55.97L453.66,59.6L454.09,57.18L454.51,55.97L454.52,54.76L455.05,65.66L455.21,62.02L455.47,63.24L455.47,62.02L455.76,65.66L455.86,64.45L456.43,65.66L456.62,64.45L456.87,66.87L457.32,65.66L457.85,64.45L457.9,65.66L457.97,66.87L458.55,69.29L458.55,68.08L458.69,66.87L458.83,63.24L459.38,66.87L459.72,65.66L459.96,62.02L460.34,65.66L460.38,66.87L460.69,65.66L461.51,85.04L461.78,83.82L462.88,71.71L463.42,70.5L463.62,68.08L463.73,78.98L463.84,75.35L464.01,76.56L464.01,78.98L464.57,78.98L464.83,80.19L465.22,87.46L465.51,85.04L465.65,83.82L465.77,78.98L466.39,78.98L466.51,77.77L466.61,76.56L466.64,81.4L466.8,80.19L467.26,81.4L467.53,82.61L468.16,77.77L468.46,78.98L468.48,82.61L469.15,80.19L469.28,81.4L469.72,78.98L470.42,77.77L470.68,72.92L470.98,77.77L471.29,76.56L472.39,66.87L473.14,68.08L473.65,80.19L474.06,78.98L474.15,81.4L474.49,74.14L474.66,75.35L474.91,74.14L475.37,81.4L476.06,80.19L476.25,78.98L476.57,81.4L476.57,82.61L477.21,80.19L477.45,93.51L477.54,92.3L477.55,89.88L478.1,97.15L478.37,95.94L478.58,97.15L480.02,95.94L480.6,97.15L480.89,95.94L481.34,97.15L481.36,95.94L481.89,94.73L481.89,93.51L482.15,97.15L482.23,95.94L482.84,94.73L483.06,95.94L483.38,94.73L483.77,93.51L483.84,91.09L483.98,94.73L484.27,93.51L484.79,92.3L484.86,91.09L485.28,95.94L485.29,97.15L486.37,93.51L486.75,94.73L487,92.3L487.3,94.73L487.31,95.94L487.89,97.15L488.06,95.94L488.08,94.73L488.84,88.67L488.87,92.3L488.87,93.51L489.02,91.09L489.85,92.3L489.85,91.09L490.13,91.09L491.27,89.88L491.81,86.25L492.06,88.67L492.15,87.46L492.78,82.61L492.97,81.4L493.61,83.82L493.64,81.4L493.79,80.19L494.6,78.98L495.16,80.19L495.17,82.61L495.71,82.61L496,81.4L496,80.19L496.7,82.61L496.89,81.4L496.98,80.19L497.88,78.98L498.49,80.19L498.92,78.98L499.66,74.14L499.89,72.92L499.91,74.14L500.06,72.92L500.77,71.71L501.02,74.14L501.47,72.92L501.58,74.14L501.99,69.29L502.14,71.71L502.42,72.92L502.68,69.29L504.43,70.5L504.75,66.87L505.38,68.08L505.63,80.19L506.2,78.98L506.32,80.19L506.46,77.77L506.89,78.98L507.29,77.77L507.6,74.14L508.53,72.92L508.66,70.5L509.66,69.29L510.32,66.87L510.42,65.66L510.54,63.24L511.95,64.45L512.36,82.61L512.64,80.19L512.72,78.98L512.78,81.4L513.51,80.19L514.44,76.56L514.44,77.77L515.15,83.82L515.19,82.61L515.62,81.4L516.24,76.56L516.28,77.77L516.72,76.56L519.16,71.71L519.48,70.5L520.11,68.08L520.57,66.87L521.52,64.45L521.57,63.24L521.77,64.45L522.4,63.24L523.05,60.81L524.52,59.6L526.06,55.97L526.19,54.76L527.42,48.7L527.43,49.91L527.46,48.7L527.5,52.33L528.07,49.91L528.28,48.7L529.1,40.22L529.24,39.01L529.8,35.38L532.74,34.17L534.19,26.9L536,25.69L536.01,24.48L536.96,23.27L536.97,24.48L537.48,20.84L537.79,19.63L538.13,17.21L540,16" style="vector-effect: none; fill: none; stroke: rgb(255, 127, 14); stroke-opacity: 1; stroke-width: 2px; opacity: 1;"/></g><g class="points"/><g class="text"/></g></g></g></g><g class="zerolinelayer-above"/><path class="xlines-above crisp" d="M0,0" style="fill: none;"/><path class="ylines-above crisp" d="M0,0" style="fill: none;"/><g class="overlines-above"/><g class="xaxislayer-above"><g class="xtick"><text text-anchor="middle" x="0" y="439" transform="translate(100.59,0)" style="font-family: 'Open Sans'; font-size: 18px; fill: rgb(0, 0, 0); fill-opacity: 1; white-space: pre;">2016</text></g><g class="xtick"><text text-anchor="middle" x="0" y="439" style="font-family: 'Open Sans'; font-size: 18px; fill: rgb(0, 0, 0); fill-opacity: 1; white-space: pre;" transform="translate(202.75,0)">2018</text></g><g class="xtick"><text text-anchor="middle" x="0" y="439" style="font-family: 'Open Sans'; font-size: 18px; fill: rgb(0, 0, 0); fill-opacity: 1; white-space: pre;" transform="translate(304.78,0)">2020</text></g><g class="xtick"><text text-anchor="middle" x="0" y="439" style="font-family: 'Open Sans'; font-size: 18px; fill: rgb(0, 0, 0); fill-opacity: 1; white-space: pre;" transform="translate(406.95,0)">2022</text></g><g class="xtick"><text text-anchor="middle" x="0" y="439" style="font-family: 'Open Sans'; font-size: 18px; fill: rgb(0, 0, 0); fill-opacity: 1; white-space: pre;" transform="translate(508.97,0)">2024</text></g><g class="xtick"><text text-anchor="middle" x="0" y="439" style="font-family: 'Open Sans'; font-size: 18px; fill: rgb(0, 0, 0); fill-opacity: 1; white-space: pre;" transform="translate(611.14,0)">2026</text></g></g><g class="yaxislayer-above"><g class="ytick"><text text-anchor="end" x="79" y="6.3" transform="translate(0,420)" style="font-family: 'Open Sans'; font-size: 18px; fill: rgb(0, 0, 0); fill-opacity: 1; white-space: pre;">0</text></g><g class="ytick"><text text-anchor="end" x="79" y="6.3" style="font-family: 'Open Sans'; font-size: 18px; fill: rgb(0, 0, 0); fill-opacity: 1; white-space: pre;" transform="translate(0,359.44)">50</text></g><g class="ytick"><text text-anchor="end" x="79" y="6.3" style="font-family: 'Open Sans'; font-size: 18px; fill: rgb(0, 0, 0); fill-opacity: 1; white-space: pre;" transform="translate(0,298.88)">100</text></g><g class="ytick"><text text-anchor="end" x="79" y="6.3" style="font-family: 'Open Sans'; font-size: 18px; fill: rgb(0, 0, 0); fill-opacity: 1; white-space: pre;" transform="translate(0,238.33)">150</text></g><g class="ytick"><text text-anchor="end" x="79" y="6.3" style="font-family: 'Open Sans'; font-size: 18px; fill: rgb(0, 0, 0); fill-opacity: 1; white-space: pre;" transform="translate(0,177.76999999999998)">200</text></g><g class="ytick"><text text-anchor="end" x="79" y="6.3" style="font-family: 'Open Sans'; font-size: 18px; fill: rgb(0, 0, 0); fill-opacity: 1; white-space: pre;" transform="translate(0,117.21000000000001)">250</text></g></g><g class="overaxes-above"/></g></g><g class="polarlayer"/><g class="smithlayer"/><g class="ternarylayer"/><g class="geolayer"/><g class="funnelarealayer"/><g class="pielayer"/><g class="iciclelayer"/><g class="treemaplayer"/><g class="sunburstlayer"/><g class="glimages"/><defs id="topdefs-31d10b"><g class="clips"/></defs><g class="layer-above"><g class="imagelayer"/><g class="shapelayer"/></g><g class="infolayer"><g class="g-gtitle"><text class="gtitle" x="35" y="50" text-anchor="start" dy="0em" style="opacity: 1; font-family: 'Open Sans'; font-size: 25px; fill: rgb(0, 0, 0); fill-opacity: 1; white-space: pre;">MultiQC/MultiQC - Open Issues Over Time</text></g><g class="g-xtitle"><text class="xtitle" x="350" y="472.9" text-anchor="middle" style="opacity: 1; font-family: 'Open Sans'; font-size: 22px; fill: rgb(0, 0, 0); fill-opacity: 1; white-space: pre;">Date</text></g><g class="g-ytitle"><text class="ytitle" transform="rotate(-90,29.799999999999997,260)" x="29.799999999999997" y="260" text-anchor="middle" style="opacity: 1; font-family: 'Open Sans'; font-size: 22px; fill: rgb(0, 0, 0); fill-opacity: 1; white-space: pre;">Number of Open Issues</text></g></g></svg>