<svg class="main-svg" xmlns="http://www.w3.org/2000/svg" xmlns:xlink="http://www.w3.org/1999/xlink" width="700" height="500" style="" viewBox="0 0 700 500"><rect x="0" y="0" width="700" height="500" style="fill: rgb(0, 0, 0); fill-opacity: 0;"/><defs id="defs-a9117a"><g class="clips"><clipPath id="clipa9117axyplot" class="plotclip"><rect width="540" height="320"/></clipPath><clipPath class="axesclip" id="clipa9117ax"><rect x="80" y="0" width="540" height="500"/></clipPath><clipPath class="axesclip" id="clipa9117ay"><rect x="0" y="100" width="700" height="320"/></clipPath><clipPath class="axesclip" id="clipa9117axy"><rect x="80" y="100" width="540" height="320"/></clipPath></g><g class="gradients"/><g class="patterns"/></defs><g class="bglayer"><rect class="bg" x="80" y="100" width="540" height="320" style="fill: rgb(0, 0, 0); fill-opacity: 0; stroke-width: 0;"/></g><g class="layer-below"><g class="imagelayer"/><g class="shapelayer"/></g><g class="cartesianlayer"><g class="subplot xy"><g class="layer-subplot"><g class="shapelayer"/><g class="imagelayer"/></g><g class="minor-gridlayer"><g class="x"/><g class="y"/></g><g class="gridlayer"><g class="x"><path class="xgrid crisp" transform="translate(100.51,0)" d="M0,100v320" style="stroke: rgb(255, 255, 255); stroke-opacity: 1; stroke-width: 1px;"/><path class="xgrid crisp" transform="translate(202.3,0)" d="M0,100v320" style="stroke: rgb(255, 255, 255); stroke-opacity: 1; stroke-width: 1px;"/><path class="xgrid crisp" transform="translate(303.95,0)" d="M0,100v320" style="stroke: rgb(255, 255, 255); stroke-opacity: 1; stroke-width: 1px;"/><path class="xgrid crisp" transform="translate(405.74,0)" d="M0,100v320" style="stroke: rgb(255, 255, 255); stroke-opacity: 1; stroke-width: 1px;"/><path class="xgrid crisp" transform="translate(507.39,0)" d="M0,100v320" style="stroke: rgb(255, 255, 255); stroke-opacity: 1; stroke-width: 1px;"/><path class="xgrid crisp" transform="translate(609.18,0)" d="M0,100v320" style="stroke: rgb(255, 255, 255); stroke-opacity: 1; stroke-width: 1px;"/></g><g class="y"><path class="ygrid crisp" transform="translate(0,337.65999999999997)" d="M80,0h540" style="stroke: rgb(255, 255, 255); stroke-opacity: 1; stroke-width: 1px;"/><path class="ygrid crisp" transform="translate(0,255.32)" d="M80,0h540" style="stroke: rgb(255, 255, 255); stroke-opacity: 1; stroke-width: 1px;"/><path class="ygrid crisp" transform="translate(0,172.98000000000002)" d="M80,0h540" style="stroke: rgb(255, 255, 255); stroke-opacity: 1; stroke-width: 1px;"/></g></g><g class="zerolinelayer"><path class="yzl zl crisp" transform="translate(0,420)" d="M80,0h540" style="stroke: rgb(255, 255, 255); stroke-opacity: 1; stroke-width: 2px;"/></g><g class="layer-between"><g class="shapelayer"/><g class="imagelayer"/></g><path class="xlines-below"/><path class="ylines-below"/><g class="overlines-below"/><g class="xaxislayer-below"/><g class="yaxislayer-below"/><g class="overaxes-below"/><g class="overplot"><g class="xy" transform="translate(80,100)" clip-path="url(#clipa9117axyplot)"><g class="scatterlayer mlayer"><g class="trace scatter trace7b8abd" style="stroke-miterlimit: 2;"><g class="fills"><g><path class="js-fill" d="M540,320L0,320L0,319.84L0,319.51L1.92,319.34L3.74,318.35L4.43,318.19L5.02,317.04L5.39,316.87L5.98,315.88L6.27,315.72L8.35,312.26L8.74,312.1L9.86,311.11L9.86,310.94L10.72,310.12L11.39,309.95L12.38,307.81L12.38,307.65L13.13,306.66L13.36,306.5L13.79,305.34L14.3,305.18L15.44,304.68L16.64,304.52L18.07,303.37L18.21,303.2L23.39,302.21L24.21,302.05L25.34,301.56L25.89,301.39L27,300.07L28.83,299.91L31.74,298.1L32.92,297.93L36.76,295.3L36.77,295.13L37.07,294.31L37.69,294.15L39.82,292L39.82,291.84L40.49,291.18L40.78,291.02L42.99,289.04L44.25,288.88L46.5,286.73L46.51,286.57L51.66,284.1L52.3,283.93L53.32,282.95L54.44,282.78L58.5,279.65L60.05,279.49L63.36,276.36L63.38,276.2L64.22,275.87L64.88,275.7L64.99,275.37L65.86,275.21L68.97,273.56L69.9,273.4L70.71,272.24L71.1,272.08L76.87,270.1L76.98,269.94L78.54,268.95L79.05,268.78L79.82,267.63L80.01,267.47L82.58,266.31L82.82,266.15L82.84,265.82L83.67,265.66L84.37,264.83L84.64,264.67L85.32,264.17L85.65,264.01L85.66,263.68L86.72,263.51L86.74,263.19L87.57,263.02L91.71,261.7L92.18,261.54L93.25,260.88L93.55,260.72L98.02,258.74L98.03,258.57L99.25,257.59L99.25,257.42L99.98,255.12L100.26,254.95L109.68,249.68L110.94,249.52L113.91,248.36L114.7,248.2L116.12,247.54L117.1,247.38L118.92,246.22L118.95,246.06L123.68,243.75L123.78,243.59L124.68,243.09L125.07,242.93L134.53,237.66L135.34,237.5L137.97,235.19L137.97,235.02L141.13,233.38L141.27,233.21L144.3,231.9L144.94,231.73L144.94,231.57L145.86,231.4L147.77,230.58L148.84,230.41L149.94,229.1L150.82,228.93L151.06,228.6L151.58,228.44L156.48,226.96L156.62,226.79L157.42,226.13L157.59,225.97L169.57,220.7L169.6,220.53L169.67,220.37L171.43,220.2L177.11,218.06L177.21,217.9L181.67,216.25L181.83,216.09L182.39,215.43L182.96,215.26L183.25,214.93L184.22,214.77L184.95,214.44L185.13,214.28L186.04,213.29L186.11,213.12L189.09,210.98L189.91,210.82L191.21,209.66L191.76,209.5L200.32,207.52L200.62,207.36L201.58,207.03L202.3,206.86L202.94,206.04L203.76,205.88L212.06,203.24L212.33,203.08L218.12,199.12L218.15,198.96L219.42,197.97L219.44,197.81L221.74,196.33L221.78,196.16L221.9,195.83L222.91,195.67L225.15,194.68L225.29,194.51L225.87,194.18L227.94,194.02L233.53,192.37L233.61,192.21L234.49,191.71L234.79,191.55L236.44,190.56L236.54,190.4L237.24,189.74L238.39,189.57L240.03,188.42L240.59,188.26L241.31,187.43L241.73,187.27L242.41,186.44L242.51,186.28L243.37,185.62L243.63,185.46L244.49,184.63L244.51,184.47L247.4,182.82L247.53,182.66L248.54,181.67L248.96,181.5L252.15,179.86L252.16,179.69L263.21,172.78L264.08,172.61L265.15,171.62L265.68,171.46L266.25,170.63L266.62,170.47L271.92,168.49L275.4,168.33L281.7,166.85L281.71,166.68L285.13,165.04L285.35,164.87L288.53,163.22L289.05,163.06L289.33,162.57L290.05,162.4L292.53,161.58L292.97,161.41L299.95,156.47L300.05,156.31L300.85,155.15L301.18,154.99L304.07,153.18L304.88,153.01L307.81,150.87L309.12,150.71L310.78,149.23L311.04,149.06L313.91,147.91L314.43,147.74L316.54,147.09L317.34,146.92L317.48,146.59L318.57,146.43L319.31,145.6L319.67,145.44L328.19,143.46L328.48,143.3L331.25,142.15L331.28,141.98L332.51,140.83L332.58,140.66L337.42,139.02L338.19,138.85L338.78,138.52L339.02,138.36L340.31,137.86L340.58,137.7L343.63,136.55L343.78,136.38L344.21,135.72L344.87,135.56L345.56,135.06L346.05,134.9L350.11,132.76L351.01,132.59L358.56,130.12L359.31,129.96L366.45,126.67L367.28,126.5L367.89,125.68L367.89,125.51L367.89,125.18L369.13,125.02L370.14,124.52L371.94,124.36L372.37,123.87L373.18,123.7L373.19,123.54L374.29,123.37L374.43,123.21L375.95,123.04L380.98,120.9L381.25,120.74L381.92,119.91L382.06,119.75L382.8,119.09L383.11,118.93L386.85,117.44L386.87,117.28L387.79,116.78L388.07,116.62L388.66,115.96L390.06,115.8L390.82,114.97L391.63,114.81L398.52,112.17L399.21,112.01L403.41,110.03L403.43,109.87L404.2,109.37L405.32,109.21L406.5,108.55L407.29,108.39L414.22,102.46L414.22,102.29L414.93,100.81L415.19,100.65L418.93,97.52L419.59,97.35L426.81,92.25L428.57,92.08L432.59,89.78L432.74,89.61L433.98,86.15L434.33,85.99L435.67,82.86L435.69,82.7L438.77,80.23L438.79,80.06L444.16,76.27L444.21,76.11L444.73,74.79L445.02,74.63L445.47,73.8L445.96,73.64L447.84,71.66L448.47,71.5L449.3,70.34L449.49,70.18L451.14,69.03L451.14,68.86L451.95,67.87L452.27,67.71L454.18,65.73L454.93,65.57L457.03,64.42L457.14,64.25L459.77,61.62L459.78,61.45L461.01,60.13L461.02,59.97L461.75,59.15L461.87,58.98L462.84,58.16L463.13,57.99L463.95,56.18L464.05,56.02L465.66,54.86L465.69,54.7L470.55,50.91L470.64,50.75L472.45,49.76L472.54,49.59L474.49,47.95L475.37,47.78L476.19,46.63L476.61,46.47L480.12,45.48L480.45,45.31L482.35,44.16L482.48,44L486.38,42.02L486.39,41.85L488.05,40.87L488.32,40.7L490.34,39.71L490.47,39.55L496.28,36.59L497.08,36.42L497.82,35.76L498.05,35.6L498.21,35.27L498.92,35.1L500.76,33.95L500.82,33.79L503.79,32.8L503.84,32.63L505.02,31.32L505.42,31.15L505.73,30.66L506.66,30.49L506.78,30.16L507.78,30L511.69,28.19L511.85,28.02L513.85,26.7L514.34,26.54L514.81,26.21L515.6,26.05L515.65,25.88L517.11,25.72L518.65,24.89L519.55,24.73L519.65,24.4L520.47,24.23L521.12,23.9L522.59,23.74L524.92,22.59L525.26,22.42L527.85,19.29L530.77,19.13L532.22,18.14L534.02,17.98L534.04,17.81L534.98,17.65L536.15,16.66L538.01,16.49L540,16" style="fill: rgb(255, 127, 14); fill-opacity: 0.5; stroke-width: 0;"/></g></g><g class="errorbars"/><g class="lines"><path class="js-line" d="M0,319.84L0,319.51L1.92,319.34L3.74,318.35L4.43,318.19L5.02,317.04L5.39,316.87L5.98,315.88L6.27,315.72L8.35,312.26L8.74,312.1L9.86,311.11L9.86,310.94L10.72,310.12L11.39,309.95L12.38,307.81L12.38,307.65L13.13,306.66L13.36,306.5L13.79,305.34L14.3,305.18L15.44,304.68L16.64,304.52L18.07,303.37L18.21,303.2L23.39,302.21L24.21,302.05L25.34,301.56L25.89,301.39L27,300.07L28.83,299.91L31.74,298.1L32.92,297.93L36.76,295.3L36.77,295.13L37.07,294.31L37.69,294.15L39.82,292L39.82,291.84L40.49,291.18L40.78,291.02L42.99,289.04L44.25,288.88L46.5,286.73L46.51,286.57L51.66,284.1L52.3,283.93L53.32,282.95L54.44,282.78L58.5,279.65L60.05,279.49L63.36,276.36L63.38,276.2L64.22,275.87L64.88,275.7L64.99,275.37L65.86,275.21L68.97,273.56L69.9,273.4L70.71,272.24L71.1,272.08L76.87,270.1L76.98,269.94L78.54,268.95L79.05,268.78L79.82,267.63L80.01,267.47L82.58,266.31L82.82,266.15L82.84,265.82L83.67,265.66L84.37,264.83L84.64,264.67L85.32,264.17L85.65,264.01L85.66,263.68L86.72,263.51L86.74,263.19L87.57,263.02L91.71,261.7L92.18,261.54L93.25,260.88L93.55,260.72L98.02,258.74L98.03,258.57L99.25,257.59L99.25,257.42L99.98,255.12L100.26,254.95L109.68,249.68L110.94,249.52L113.91,248.36L114.7,248.2L116.12,247.54L117.1,247.38L118.92,246.22L118.95,246.06L123.68,243.75L123.78,243.59L124.68,243.09L125.07,242.93L134.53,237.66L135.34,237.5L137.97,235.19L137.97,235.02L141.13,233.38L141.27,233.21L144.3,231.9L144.94,231.73L144.94,231.57L145.86,231.4L147.77,230.58L148.84,230.41L149.94,229.1L150.82,228.93L151.06,228.6L151.58,228.44L156.48,226.96L156.62,226.79L157.42,226.13L157.59,225.97L169.57,220.7L169.6,220.53L169.67,220.37L171.43,220.2L177.11,218.06L177.21,217.9L181.67,216.25L181.83,216.09L182.39,215.43L182.96,215.26L183.25,214.93L184.22,214.77L184.95,214.44L185.13,214.28L186.04,213.29L186.11,213.12L189.09,210.98L189.91,210.82L191.21,209.66L191.76,209.5L200.32,207.52L200.62,207.36L201.58,207.03L202.3,206.86L202.94,206.04L203.76,205.88L212.06,203.24L212.33,203.08L218.12,199.12L218.15,198.96L219.42,197.97L219.44,197.81L221.74,196.33L221.78,196.16L221.9,195.83L222.91,195.67L225.15,194.68L225.29,194.51L225.87,194.18L227.94,194.02L233.53,192.37L233.61,192.21L234.49,191.71L234.79,191.55L236.44,190.56L236.54,190.4L237.24,189.74L238.39,189.57L240.03,188.42L240.59,188.26L241.31,187.43L241.73,187.27L242.41,186.44L242.51,186.28L243.37,185.62L243.63,185.46L244.49,184.63L244.51,184.47L247.4,182.82L247.53,182.66L248.54,181.67L248.96,181.5L252.15,179.86L252.16,179.69L263.21,172.78L264.08,172.61L265.15,171.62L265.68,171.46L266.25,170.63L266.62,170.47L271.92,168.49L275.4,168.33L281.7,166.85L281.71,166.68L285.13,165.04L285.35,164.87L288.53,163.22L289.05,163.06L289.33,162.57L290.05,162.4L292.53,161.58L292.97,161.41L299.95,156.47L300.05,156.31L300.85,155.15L301.18,154.99L304.07,153.18L304.88,153.01L307.81,150.87L309.12,150.71L310.78,149.23L311.04,149.06L313.91,147.91L314.43,147.74L316.54,147.09L317.34,146.92L317.48,146.59L318.57,146.43L319.31,145.6L319.67,145.44L328.19,143.46L328.48,143.3L331.25,142.15L331.28,141.98L332.51,140.83L332.58,140.66L337.42,139.02L338.19,138.85L338.78,138.52L339.02,138.36L340.31,137.86L340.58,137.7L343.63,136.55L343.78,136.38L344.21,135.72L344.87,135.56L345.56,135.06L346.05,134.9L350.11,132.76L351.01,132.59L358.56,130.12L359.31,129.96L366.45,126.67L367.28,126.5L367.89,125.68L367.89,125.51L367.89,125.18L369.13,125.02L370.14,124.52L371.94,124.36L372.37,123.87L373.18,123.7L373.19,123.54L374.29,123.37L374.43,123.21L375.95,123.04L380.98,120.9L381.25,120.74L381.92,119.91L382.06,119.75L382.8,119.09L383.11,118.93L386.85,117.44L386.87,117.28L387.79,116.78L388.07,116.62L388.66,115.96L390.06,115.8L390.82,114.97L391.63,114.81L398.52,112.17L399.21,112.01L403.41,110.03L403.43,109.87L404.2,109.37L405.32,109.21L406.5,108.55L407.29,108.39L414.22,102.46L414.22,102.29L414.93,100.81L415.19,100.65L418.93,97.52L419.59,97.35L426.81,92.25L428.57,92.08L432.59,89.78L432.74,89.61L433.98,86.15L434.33,85.99L435.67,82.86L435.69,82.7L438.77,80.23L438.79,80.06L444.16,76.27L444.21,76.11L444.73,74.79L445.02,74.63L445.47,73.8L445.96,73.64L447.84,71.66L448.47,71.5L449.3,70.34L449.49,70.18L451.14,69.03L451.14,68.86L451.95,67.87L452.27,67.71L454.18,65.73L454.93,65.57L457.03,64.42L457.14,64.25L459.77,61.62L459.78,61.45L461.01,60.13L461.02,59.97L461.75,59.15L461.87,58.98L462.84,58.16L463.13,57.99L463.95,56.18L464.05,56.02L465.66,54.86L465.69,54.7L470.55,50.91L470.64,50.75L472.45,49.76L472.54,49.59L474.49,47.95L475.37,47.78L476.19,46.63L476.61,46.47L480.12,45.48L480.45,45.31L482.35,44.16L482.48,44L486.38,42.02L486.39,41.85L488.05,40.87L488.32,40.7L490.34,39.71L490.47,39.55L496.28,36.59L497.08,36.42L497.82,35.76L498.05,35.6L498.21,35.27L498.92,35.1L500.76,33.95L500.82,33.79L503.79,32.8L503.84,32.63L505.02,31.32L505.42,31.15L505.73,30.66L506.66,30.49L506.78,30.16L507.78,30L511.69,28.19L511.85,28.02L513.85,26.7L514.34,26.54L514.81,26.21L515.6,26.05L515.65,25.88L517.11,25.72L518.65,24.89L519.55,24.73L519.65,24.4L520.47,24.23L521.12,23.9L522.59,23.74L524.92,22.59L525.26,22.42L527.85,19.29L530.77,19.13L532.22,18.14L534.02,17.98L534.04,17.81L534.98,17.65L536.15,16.66L538.01,16.49L540,16" style="vector-effect: none; fill: none; stroke: rgb(255, 127, 14); stroke-opacity: 1; stroke-width: 2px; opacity: 1;"/></g><g class="points"/><g class="text"/></g></g></g></g><g class="zerolinelayer-above"/><path class="xlines-above crisp" d="M0,0" style="fill: none;"/><path class="ylines-above crisp" d="M0,0" style="fill: none;"/><g class="overlines-above"/><g class="xaxislayer-above"><g class="xtick"><text text-anchor="middle" x="0" y="439" transform="translate(100.51,0)" style="font-family: 'Open Sans'; font-size: 18px; fill: rgb(0, 0, 0); fill-opacity: 1; white-space: pre;">2016</text></g><g class="xtick"><text text-anchor="middle" x="0" y="439" style="font-family: 'Open Sans'; font-size: 18px; fill: rgb(0, 0, 0); fill-opacity: 1; white-space: pre;" transform="translate(202.3,0)">2018</text></g><g class="xtick"><text text-anchor="middle" x="0" y="439" style="font-family: 'Open Sans'; font-size: 18px; fill: rgb(0, 0, 0); fill-opacity: 1; white-space: pre;" transform="translate(303.95,0)">2020</text></g><g class="xtick"><text text-anchor="middle" x="0" y="439" style="font-family: 'Open Sans'; font-size: 18px; fill: rgb(0, 0, 0); fill-opacity: 1; white-space: pre;" transform="translate(405.74,0)">2022</text></g><g class="xtick"><text text-anchor="middle" x="0" y="439" style="font-family: 'Open Sans'; font-size: 18px; fill: rgb(0, 0, 0); fill-opacity: 1; white-space: pre;" transform="translate(507.39,0)">2024</text></g><g class="xtick"><text text-anchor="middle" x="0" y="439" style="font-family: 'Open Sans'; font-size: 18px; fill: rgb(0, 0, 0); fill-opacity: 1; white-space: pre;" transform="translate(609.18,0)">2026</text></g></g><g class="yaxislayer-above"><g class="ytick"><text text-anchor="end" x="79" y="6.3" transform="translate(0,420)" style="font-family: 'Open Sans'; font-size: 18px; fill: rgb(0, 0, 0); fill-opacity: 1; white-space: pre;">0</text></g><g class="ytick"><text text-anchor="end" x="79" y="6.3" style="font-family: 'Open Sans'; font-size: 18px; fill: rgb(0, 0, 0); fill-opacity: 1; white-space: pre;" transform="translate(0,337.65999999999997)">500</text></g><g class="ytick"><text text-anchor="end" x="79" y="6.3" style="font-family: 'Open Sans'; font-size: 18px; fill: rgb(0, 0, 0); fill-opacity: 1; white-space: pre;" transform="translate(0,255.32)">1000</text></g><g class="ytick"><text text-anchor="end" x="79" y="6.3" style="font-family: 'Open Sans'; font-size: 18px; fill: rgb(0, 0, 0); fill-opacity: 1; white-space: pre;" transform="translate(0,172.98000000000002)">1500</text></g></g><g class="overaxes-above"/></g></g><g class="polarlayer"/><g class="smithlayer"/><g class="ternarylayer"/><g class="geolayer"/><g class="funnelarealayer"/><g class="pielayer"/><g class="iciclelayer"/><g class="treemaplayer"/><g class="sunburstlayer"/><g class="glimages"/><defs id="topdefs-a9117a"><g class="clips"/></defs><g class="layer-above"><g class="imagelayer"/><g class="shapelayer"/></g><g class="infolayer"><g class="g-gtitle"><text class="gtitle" x="35" y="50" text-anchor="start" dy="0em" style="opacity: 1; font-family: 'Open Sans'; font-size: 25px; fill: rgb(0, 0, 0); fill-opacity: 1; white-space: pre;">MultiQC/MultiQC - Issues Created Over Time</text></g><g class="g-xtitle"><text class="xtitle" x="350" y="472.9" text-anchor="middle" style="opacity: 1; font-family: 'Open Sans'; font-size: 22px; fill: rgb(0, 0, 0); fill-opacity: 1; white-space: pre;">Date</text></g><g class="g-ytitle"><text class="ytitle" transform="rotate(-90,20.799999999999997,260)" x="20.799999999999997" y="260" text-anchor="middle" style="opacity: 1; font-family: 'Open Sans'; font-size: 22px; fill: rgb(0, 0, 0); fill-opacity: 1; white-space: pre;">Cumulative Issues Created</text></g></g></svg>