<svg class="main-svg" xmlns="http://www.w3.org/2000/svg" xmlns:xlink="http://www.w3.org/1999/xlink" width="700" height="500" style="" viewBox="0 0 700 500"><rect x="0" y="0" width="700" height="500" style="fill: rgb(0, 0, 0); fill-opacity: 0;"/><defs id="defs-2e78d4"><g class="clips"><clipPath id="clip2e78d4xyplot" class="plotclip"><rect width="540" height="320"/></clipPath><clipPath class="axesclip" id="clip2e78d4x"><rect x="80" y="0" width="540" height="500"/></clipPath><clipPath class="axesclip" id="clip2e78d4y"><rect x="0" y="100" width="700" height="320"/></clipPath><clipPath class="axesclip" id="clip2e78d4xy"><rect x="80" y="100" width="540" height="320"/></clipPath></g><g class="gradients"/><g class="patterns"/></defs><g class="bglayer"><rect class="bg" x="80" y="100" width="540" height="320" style="fill: rgb(0, 0, 0); fill-opacity: 0; stroke-width: 0;"/></g><g class="layer-below"><g class="imagelayer"/><g class="shapelayer"/></g><g class="cartesianlayer"><g class="subplot xy"><g class="layer-subplot"><g class="shapelayer"/><g class="imagelayer"/></g><g class="minor-gridlayer"><g class="x"/><g class="y"/></g><g class="gridlayer"><g class="x"><path class="xgrid crisp" transform="translate(100.15,0)" d="M0,100v320" style="stroke: rgb(255, 255, 255); stroke-opacity: 1; stroke-width: 1px;"/><path class="xgrid crisp" transform="translate(200.11,0)" d="M0,100v320" style="stroke: rgb(255, 255, 255); stroke-opacity: 1; stroke-width: 1px;"/><path class="xgrid crisp" transform="translate(299.95,0)" d="M0,100v320" style="stroke: rgb(255, 255, 255); stroke-opacity: 1; stroke-width: 1px;"/><path class="xgrid crisp" transform="translate(399.92,0)" d="M0,100v320" style="stroke: rgb(255, 255, 255); stroke-opacity: 1; stroke-width: 1px;"/><path class="xgrid crisp" transform="translate(499.75,0)" d="M0,100v320" style="stroke: rgb(255, 255, 255); stroke-opacity: 1; stroke-width: 1px;"/><path class="xgrid crisp" transform="translate(599.72,0)" d="M0,100v320" style="stroke: rgb(255, 255, 255); stroke-opacity: 1; stroke-width: 1px;"/></g><g class="y"><path class="ygrid crisp" transform="translate(0,338.59000000000003)" d="M80,0h540" style="stroke: rgb(255, 255, 255); stroke-opacity: 1; stroke-width: 1px;"/><path class="ygrid crisp" transform="translate(0,257.16999999999996)" d="M80,0h540" style="stroke: rgb(255, 255, 255); stroke-opacity: 1; stroke-width: 1px;"/><path class="ygrid crisp" transform="translate(0,175.76)" d="M80,0h540" style="stroke: rgb(255, 255, 255); stroke-opacity: 1; stroke-width: 1px;"/></g></g><g class="zerolinelayer"><path class="yzl zl crisp" transform="translate(0,420)" d="M80,0h540" style="stroke: rgb(255, 255, 255); stroke-opacity: 1; stroke-width: 2px;"/></g><g class="layer-between"><g class="shapelayer"/><g class="imagelayer"/></g><path class="xlines-below"/><path class="ylines-below"/><g class="overlines-below"/><g class="xaxislayer-below"/><g class="yaxislayer-below"/><g class="overaxes-below"/><g class="overplot"><g class="xy" transform="translate(80,100)" clip-path="url(#clip2e78d4xyplot)"><g class="scatterlayer mlayer"><g class="trace scatter tracee96c2a" style="stroke-miterlimit: 2;"><g class="fills"><g><path class="js-fill" d="M540,320L0,320L0,319.84L0,319.51L1.88,319.35L3.67,318.37L4.35,318.21L4.93,317.07L5.3,316.91L5.87,315.93L6.16,315.77L8.2,312.35L8.58,312.18L9.68,311.21L9.68,311.04L10.53,310.23L11.18,310.07L12.16,307.95L12.16,307.79L12.89,306.81L13.12,306.65L13.54,305.51L14.04,305.35L15.16,304.86L16.34,304.69L17.75,303.55L17.89,303.39L22.97,302.41L23.78,302.25L24.89,301.76L25.42,301.6L26.52,300.3L28.32,300.13L32.33,298.18L32.63,298.02L36.11,295.41L36.12,295.25L36.4,294.6L37.02,294.44L39.11,292.32L39.11,292.16L39.77,291.51L40.05,291.34L42.22,289.39L43.46,289.23L45.67,287.11L45.68,286.95L49.85,284.67L50.74,284.5L53.69,283.04L53.7,282.88L56.18,281.41L56.34,281.25L57.01,280.6L57.17,280.43L57.45,280.11L58.98,279.94L62.22,276.85L62.24,276.69L63.07,276.36L63.72,276.2L63.82,275.87L64.68,275.71L67.73,274.08L68.65,273.92L69.45,272.78L69.83,272.62L75.5,270.66L75.61,270.5L77.13,269.52L77.64,269.36L78.39,268.22L78.58,268.06L81.11,266.92L81.33,266.76L81.36,266.43L82.17,266.27L82.86,265.45L83.13,265.29L83.79,264.8L84.12,264.64L84.13,264.31L85.17,264.15L85.19,263.82L86,263.66L90.07,262.36L90.53,262.2L91.59,261.54L91.88,261.38L96.27,259.43L96.28,259.27L97.48,258.13L97.48,257.96L98.19,255.85L98.47,255.68L104.46,252.43L105.01,252.26L105.4,251.61L105.81,251.45L107.72,250.47L108.96,250.31L113.38,248.52L114.05,248.36L116.64,247.22L116.79,247.05L117.55,246.56L117.73,246.4L118.56,245.75L120.49,245.59L129.99,239.24L131.02,239.07L133.19,238.26L133.63,238.1L134.94,236.79L135.07,236.63L135.5,235.98L136.05,235.82L143.9,231.91L145.09,231.75L145.13,231.58L146.18,231.42L147.26,230.12L148.12,229.96L148.87,229.47L149.87,229.3L153.23,228.16L153.68,228L155.87,226.21L156.58,226.05L166.57,221.65L166.64,221.49L172.03,220.35L172.18,220.19L173.26,219.54L173.83,219.37L175.04,218.72L176.01,218.56L178.71,216.93L178.72,216.77L182.71,214.49L182.79,214.32L185.39,212.53L185.56,212.37L187.79,210.91L188.33,210.74L195.15,209.11L195.38,208.95L198.83,207.81L198.86,207.65L201.02,206.67L202.71,206.51L203.9,206.18L204.71,206.02L208.27,204.55L208.54,204.39L214.17,200.65L214.21,200.48L215.09,200L215.26,199.83L216.09,198.86L216.2,198.69L217.43,197.88L217.78,197.72L217.93,197.23L218.93,197.06L221.13,196.09L221.26,195.93L221.83,195.6L223.87,195.44L229.36,193.81L229.43,193.65L230.29,193.16L230.6,192.99L232.21,192.02L232.31,191.85L233,191.2L234.13,191.04L235.74,189.9L236.29,189.74L236.99,188.92L237.4,188.76L238.08,187.95L238.17,187.78L239.02,187.13L239.28,186.97L240.12,186.16L240.14,185.99L242.97,184.36L243.11,184.2L244.1,183.22L244.51,183.06L247.64,181.43L247.65,181.27L258.5,174.43L259.35,174.27L260.41,173.29L260.93,173.13L261.49,172.31L261.85,172.15L267.06,170.2L270.47,170.04L276.66,168.57L276.67,168.41L280.03,166.78L280.24,166.62L283.37,164.99L283.88,164.82L284.15,164.34L284.86,164.17L287.3,163.36L287.73,163.2L294.71,157.99L294.74,157.82L295.47,157.01L295.79,156.85L298.63,155.06L299.43,154.89L302.31,152.78L303.59,152.61L305.07,151.31L305.22,151.15L309.05,149.52L310.12,149.36L310.88,149.03L311.67,148.87L311.8,148.54L312.87,148.38L313.6,147.57L313.95,147.4L322.32,145.45L322.6,145.29L325.33,144.15L325.35,143.98L326.57,142.84L326.63,142.68L334.49,139.75L335.55,139.59L340.56,136.33L340.62,136.17L343.53,135.03L343.84,134.86L348.83,133.24L349.09,133.07L354.37,131.45L354.47,131.28L356.61,129.98L357.68,129.82L358.66,129.17L359.03,129L361.31,127.86L361.31,127.7L361.31,127.37L362.53,127.21L363.52,126.72L365.29,126.56L365.71,126.07L366.5,125.91L366.51,125.75L367.6,125.58L367.74,125.42L369.23,125.26L374.43,122.98L374.44,122.82L375.37,121.68L375.41,121.51L379.95,119.56L380.02,119.4L383.1,117.93L383.2,117.77L389.6,114.84L391.09,114.67L394.25,113.37L395.45,113.21L396.22,112.23L396.3,112.07L400.6,110.28L400.7,110.11L406.81,104.9L406.81,104.74L407.51,103.28L407.76,103.11L412.53,99.37L413.08,99.21L414.64,97.58L415.06,97.41L416.55,96.27L417.02,96.11L418.03,95.3L418.19,95.13L419.17,94.81L420.91,94.65L425,92.2L425.03,92.04L425.87,90.25L425.95,90.09L426.78,88.3L426.83,88.13L427.63,85.85L427.88,85.69L428.43,84.88L428.67,84.71L434.5,79.99L435.27,79.83L436.4,78.36L436.43,78.2L437.46,76.73L437.51,76.57L438.3,75.6L438.32,75.43L443.77,70.87L443.87,70.71L445.27,69.24L445.29,69.08L446.06,68.59L446.8,68.43L448.86,67.29L448.96,67.13L451.54,64.52L451.56,64.36L452.77,62.89L452.77,62.73L453.61,61.92L453.65,61.75L459.06,56.71L459.33,56.54L459.62,56.06L460.31,55.89L460.56,55.24L461.15,55.08L464.26,52.31L464.28,52.15L465.08,51.33L465.82,51.17L468.09,49.54L469.69,49.38L470.55,49.05L471,48.89L473.57,47.43L473.72,47.26L474.8,46.61L475.36,46.45L478.32,44.49L478.36,44.33L479.59,43.84L480.7,43.68L481.7,42.7L482.02,42.54L483.03,41.56L483.17,41.4L483.96,41.08L484.55,40.91L490.8,37.98L490.83,37.82L495.06,35.21L495.17,35.05L501.7,31.79L502.46,31.63L503.37,30.98L504.07,30.82L504.66,30L505.14,29.84L505.6,29.51L506.38,29.35L506.42,29.19L507.86,29.03L509.37,28.21L510.26,28.05L510.35,27.72L511.16,27.56L511.8,27.24L513.24,27.07L515.53,25.93L515.86,25.77L518.41,22.68L521.28,22.51L522.7,21.54L524.47,21.37L524.49,21.21L525.41,21.05L526.56,20.07L528.39,19.91L532.22,18.61L532.76,18.44L535.75,17.14L537.62,16.98L538.66,16.16L540,16" style="fill: rgb(255, 127, 14); fill-opacity: 0.5; stroke-width: 0;"/></g></g><g class="errorbars"/><g class="lines"><path class="js-line" d="M0,319.84L0,319.51L1.88,319.35L3.67,318.37L4.35,318.21L4.93,317.07L5.3,316.91L5.87,315.93L6.16,315.77L8.2,312.35L8.58,312.18L9.68,311.21L9.68,311.04L10.53,310.23L11.18,310.07L12.16,307.95L12.16,307.79L12.89,306.81L13.12,306.65L13.54,305.51L14.04,305.35L15.16,304.86L16.34,304.69L17.75,303.55L17.89,303.39L22.97,302.41L23.78,302.25L24.89,301.76L25.42,301.6L26.52,300.3L28.32,300.13L32.33,298.18L32.63,298.02L36.11,295.41L36.12,295.25L36.4,294.6L37.02,294.44L39.11,292.32L39.11,292.16L39.77,291.51L40.05,291.34L42.22,289.39L43.46,289.23L45.67,287.11L45.68,286.95L49.85,284.67L50.74,284.5L53.69,283.04L53.7,282.88L56.18,281.41L56.34,281.25L57.01,280.6L57.17,280.43L57.45,280.11L58.98,279.94L62.22,276.85L62.24,276.69L63.07,276.36L63.72,276.2L63.82,275.87L64.68,275.71L67.73,274.08L68.65,273.92L69.45,272.78L69.83,272.62L75.5,270.66L75.61,270.5L77.13,269.52L77.64,269.36L78.39,268.22L78.58,268.06L81.11,266.92L81.33,266.76L81.36,266.43L82.17,266.27L82.86,265.45L83.13,265.29L83.79,264.8L84.12,264.64L84.13,264.31L85.17,264.15L85.19,263.82L86,263.66L90.07,262.36L90.53,262.2L91.59,261.54L91.88,261.38L96.27,259.43L96.28,259.27L97.48,258.13L97.48,257.96L98.19,255.85L98.47,255.68L104.46,252.43L105.01,252.26L105.4,251.61L105.81,251.45L107.72,250.47L108.96,250.31L113.38,248.52L114.05,248.36L116.64,247.22L116.79,247.05L117.55,246.56L117.73,246.4L118.56,245.75L120.49,245.59L129.99,239.24L131.02,239.07L133.19,238.26L133.63,238.1L134.94,236.79L135.07,236.63L135.5,235.98L136.05,235.82L143.9,231.91L145.09,231.75L145.13,231.58L146.18,231.42L147.26,230.12L148.12,229.96L148.87,229.47L149.87,229.3L153.23,228.16L153.68,228L155.87,226.21L156.58,226.05L166.57,221.65L166.64,221.49L172.03,220.35L172.18,220.19L173.26,219.54L173.83,219.37L175.04,218.72L176.01,218.56L178.71,216.93L178.72,216.77L182.71,214.49L182.79,214.32L185.39,212.53L185.56,212.37L187.79,210.91L188.33,210.74L195.15,209.11L195.38,208.95L198.83,207.81L198.86,207.65L201.02,206.67L202.71,206.51L203.9,206.18L204.71,206.02L208.27,204.55L208.54,204.39L214.17,200.65L214.21,200.48L215.09,200L215.26,199.83L216.09,198.86L216.2,198.69L217.43,197.88L217.78,197.72L217.93,197.23L218.93,197.06L221.13,196.09L221.26,195.93L221.83,195.6L223.87,195.44L229.36,193.81L229.43,193.65L230.29,193.16L230.6,192.99L232.21,192.02L232.31,191.85L233,191.2L234.13,191.04L235.74,189.9L236.29,189.74L236.99,188.92L237.4,188.76L238.08,187.95L238.17,187.78L239.02,187.13L239.28,186.97L240.12,186.16L240.14,185.99L242.97,184.36L243.11,184.2L244.1,183.22L244.51,183.06L247.64,181.43L247.65,181.27L258.5,174.43L259.35,174.27L260.41,173.29L260.93,173.13L261.49,172.31L261.85,172.15L267.06,170.2L270.47,170.04L276.66,168.57L276.67,168.41L280.03,166.78L280.24,166.62L283.37,164.99L283.88,164.82L284.15,164.34L284.86,164.17L287.3,163.36L287.73,163.2L294.71,157.99L294.74,157.82L295.47,157.01L295.79,156.85L298.63,155.06L299.43,154.89L302.31,152.78L303.59,152.61L305.07,151.31L305.22,151.15L309.05,149.52L310.12,149.36L310.88,149.03L311.67,148.87L311.8,148.54L312.87,148.38L313.6,147.57L313.95,147.4L322.32,145.45L322.6,145.29L325.33,144.15L325.35,143.98L326.57,142.84L326.63,142.68L334.49,139.75L335.55,139.59L340.56,136.33L340.62,136.17L343.53,135.03L343.84,134.86L348.83,133.24L349.09,133.07L354.37,131.45L354.47,131.28L356.61,129.98L357.68,129.82L358.66,129.17L359.03,129L361.31,127.86L361.31,127.7L361.31,127.37L362.53,127.21L363.52,126.72L365.29,126.56L365.71,126.07L366.5,125.91L366.51,125.75L367.6,125.58L367.74,125.42L369.23,125.26L374.43,122.98L374.44,122.82L375.37,121.68L375.41,121.51L379.95,119.56L380.02,119.4L383.1,117.93L383.2,117.77L389.6,114.84L391.09,114.67L394.25,113.37L395.45,113.21L396.22,112.23L396.3,112.07L400.6,110.28L400.7,110.11L406.81,104.9L406.81,104.74L407.51,103.28L407.76,103.11L412.53,99.37L413.08,99.21L414.64,97.58L415.06,97.41L416.55,96.27L417.02,96.11L418.03,95.3L418.19,95.13L419.17,94.81L420.91,94.65L425,92.2L425.03,92.04L425.87,90.25L425.95,90.09L426.78,88.3L426.83,88.13L427.63,85.85L427.88,85.69L428.43,84.88L428.67,84.71L434.5,79.99L435.27,79.83L436.4,78.36L436.43,78.2L437.46,76.73L437.51,76.57L438.3,75.6L438.32,75.43L443.77,70.87L443.87,70.71L445.27,69.24L445.29,69.08L446.06,68.59L446.8,68.43L448.86,67.29L448.96,67.13L451.54,64.52L451.56,64.36L452.77,62.89L452.77,62.73L453.61,61.92L453.65,61.75L459.06,56.71L459.33,56.54L459.62,56.06L460.31,55.89L460.56,55.24L461.15,55.08L464.26,52.31L464.28,52.15L465.08,51.33L465.82,51.17L468.09,49.54L469.69,49.38L470.55,49.05L471,48.89L473.57,47.43L473.72,47.26L474.8,46.61L475.36,46.45L478.32,44.49L478.36,44.33L479.59,43.84L480.7,43.68L481.7,42.7L482.02,42.54L483.03,41.56L483.17,41.4L483.96,41.08L484.55,40.91L490.8,37.98L490.83,37.82L495.06,35.21L495.17,35.05L501.7,31.79L502.46,31.63L503.37,30.98L504.07,30.82L504.66,30L505.14,29.84L505.6,29.51L506.38,29.35L506.42,29.19L507.86,29.03L509.37,28.21L510.26,28.05L510.35,27.72L511.16,27.56L511.8,27.24L513.24,27.07L515.53,25.93L515.86,25.77L518.41,22.68L521.28,22.51L522.7,21.54L524.47,21.37L524.49,21.21L525.41,21.05L526.56,20.07L528.39,19.91L532.22,18.61L532.76,18.44L535.75,17.14L537.62,16.98L538.66,16.16L540,16" style="vector-effect: none; fill: none; stroke: rgb(255, 127, 14); stroke-opacity: 1; stroke-width: 2px; opacity: 1;"/></g><g class="points"/><g class="text"/></g></g></g></g><g class="zerolinelayer-above"/><path class="xlines-above crisp" d="M0,0" style="fill: none;"/><path class="ylines-above crisp" d="M0,0" style="fill: none;"/><g class="overlines-above"/><g class="xaxislayer-above"><g class="xtick"><text text-anchor="middle" x="0" y="439" transform="translate(100.15,0)" style="font-family: 'Open Sans'; font-size: 18px; fill: rgb(0, 0, 0); fill-opacity: 1; white-space: pre;">2016</text></g><g class="xtick"><text text-anchor="middle" x="0" y="439" style="font-family: 'Open Sans'; font-size: 18px; fill: rgb(0, 0, 0); fill-opacity: 1; white-space: pre;" transform="translate(200.11,0)">2018</text></g><g class="xtick"><text text-anchor="middle" x="0" y="439" style="font-family: 'Open Sans'; font-size: 18px; fill: rgb(0, 0, 0); fill-opacity: 1; white-space: pre;" transform="translate(299.95,0)">2020</text></g><g class="xtick"><text text-anchor="middle" x="0" y="439" style="font-family: 'Open Sans'; font-size: 18px; fill: rgb(0, 0, 0); fill-opacity: 1; white-space: pre;" transform="translate(399.92,0)">2022</text></g><g class="xtick"><text text-anchor="middle" x="0" y="439" style="font-family: 'Open Sans'; font-size: 18px; fill: rgb(0, 0, 0); fill-opacity: 1; white-space: pre;" transform="translate(499.75,0)">2024</text></g><g class="xtick"><text text-anchor="middle" x="0" y="439" style="font-family: 'Open Sans'; font-size: 18px; fill: rgb(0, 0, 0); fill-opacity: 1; white-space: pre;" transform="translate(599.72,0)">2026</text></g></g><g class="yaxislayer-above"><g class="ytick"><text text-anchor="end" x="79" y="6.3" transform="translate(0,420)" style="font-family: 'Open Sans'; font-size: 18px; fill: rgb(0, 0, 0); fill-opacity: 1; white-space: pre;">0</text></g><g class="ytick"><text text-anchor="end" x="79" y="6.3" style="font-family: 'Open Sans'; font-size: 18px; fill: rgb(0, 0, 0); fill-opacity: 1; white-space: pre;" transform="translate(0,338.59000000000003)">500</text></g><g class="ytick"><text text-anchor="end" x="79" y="6.3" style="font-family: 'Open Sans'; font-size: 18px; fill: rgb(0, 0, 0); fill-opacity: 1; white-space: pre;" transform="translate(0,257.16999999999996)">1000</text></g><g class="ytick"><text text-anchor="end" x="79" y="6.3" style="font-family: 'Open Sans'; font-size: 18px; fill: rgb(0, 0, 0); fill-opacity: 1; white-space: pre;" transform="translate(0,175.76)">1500</text></g></g><g class="overaxes-above"/></g></g><g class="polarlayer"/><g class="smithlayer"/><g class="ternarylayer"/><g class="geolayer"/><g class="funnelarealayer"/><g class="pielayer"/><g class="iciclelayer"/><g class="treemaplayer"/><g class="sunburstlayer"/><g class="glimages"/><defs id="topdefs-2e78d4"><g class="clips"/></defs><g class="layer-above"><g class="imagelayer"/><g class="shapelayer"/></g><g class="infolayer"><g class="g-gtitle"><text class="gtitle" x="35" y="50" text-anchor="start" dy="0em" style="opacity: 1; font-family: 'Open Sans'; font-size: 25px; fill: rgb(0, 0, 0); fill-opacity: 1; white-space: pre;">MultiQC/MultiQC - Issues Created Over Time</text></g><g class="g-xtitle"><text class="xtitle" x="350" y="472.9" text-anchor="middle" style="opacity: 1; font-family: 'Open Sans'; font-size: 22px; fill: rgb(0, 0, 0); fill-opacity: 1; white-space: pre;">Date</text></g><g class="g-ytitle"><text class="ytitle" transform="rotate(-90,20.799999999999997,260)" x="20.799999999999997" y="260" text-anchor="middle" style="opacity: 1; font-family: 'Open Sans'; font-size: 22px; fill: rgb(0, 0, 0); fill-opacity: 1; white-space: pre;">Cumulative Issues Created</text></g></g></svg>