<svg class="main-svg" xmlns="http://www.w3.org/2000/svg" xmlns:xlink="http://www.w3.org/1999/xlink" width="700" height="500" style="" viewBox="0 0 700 500"><rect x="0" y="0" width="700" height="500" style="fill: rgb(0, 0, 0); fill-opacity: 0;"/><defs id="defs-192dd7"><g class="clips"><clipPath id="clip192dd7xyplot" class="plotclip"><rect width="540" height="320"/></clipPath><clipPath class="axesclip" id="clip192dd7x"><rect x="80" y="0" width="540" height="500"/></clipPath><clipPath class="axesclip" id="clip192dd7y"><rect x="0" y="100" width="700" height="320"/></clipPath><clipPath class="axesclip" id="clip192dd7xy"><rect x="80" y="100" width="540" height="320"/></clipPath></g><g class="gradients"/><g class="patterns"/></defs><g class="bglayer"><rect class="bg" x="80" y="100" width="540" height="320" style="fill: rgb(0, 0, 0); fill-opacity: 0; stroke-width: 0;"/></g><g class="layer-below"><g class="imagelayer"/><g class="shapelayer"/></g><g class="cartesianlayer"><g class="subplot xy"><g class="layer-subplot"><g class="shapelayer"/><g class="imagelayer"/></g><g class="minor-gridlayer"><g class="x"/><g class="y"/></g><g class="gridlayer"><g class="x"><path class="xgrid crisp" transform="translate(100.74,0)" d="M0,100v320" style="stroke: rgb(255, 255, 255); stroke-opacity: 1; stroke-width: 1px;"/><path class="xgrid crisp" transform="translate(203.67000000000002,0)" d="M0,100v320" style="stroke: rgb(255, 255, 255); stroke-opacity: 1; stroke-width: 1px;"/><path class="xgrid crisp" transform="translate(306.45,0)" d="M0,100v320" style="stroke: rgb(255, 255, 255); stroke-opacity: 1; stroke-width: 1px;"/><path class="xgrid crisp" transform="translate(409.38,0)" d="M0,100v320" style="stroke: rgb(255, 255, 255); stroke-opacity: 1; stroke-width: 1px;"/><path class="xgrid crisp" transform="translate(512.1600000000001,0)" d="M0,100v320" style="stroke: rgb(255, 255, 255); stroke-opacity: 1; stroke-width: 1px;"/><path class="xgrid crisp" transform="translate(615.09,0)" d="M0,100v320" style="stroke: rgb(255, 255, 255); stroke-opacity: 1; stroke-width: 1px;"/></g><g class="y"><path class="ygrid crisp" transform="translate(0,357.7)" d="M80,0h540" style="stroke: rgb(255, 255, 255); stroke-opacity: 1; stroke-width: 1px;"/><path class="ygrid crisp" transform="translate(0,295.40999999999997)" d="M80,0h540" style="stroke: rgb(255, 255, 255); stroke-opacity: 1; stroke-width: 1px;"/><path class="ygrid crisp" transform="translate(0,233.11)" d="M80,0h540" style="stroke: rgb(255, 255, 255); stroke-opacity: 1; stroke-width: 1px;"/><path class="ygrid crisp" transform="translate(0,170.82)" d="M80,0h540" style="stroke: rgb(255, 255, 255); stroke-opacity: 1; stroke-width: 1px;"/><path class="ygrid crisp" transform="translate(0,108.52)" d="M80,0h540" style="stroke: rgb(255, 255, 255); stroke-opacity: 1; stroke-width: 1px;"/></g></g><g class="zerolinelayer"><path class="yzl zl crisp" transform="translate(0,420)" d="M80,0h540" style="stroke: rgb(255, 255, 255); stroke-opacity: 1; stroke-width: 2px;"/></g><g class="layer-between"><g class="shapelayer"/><g class="imagelayer"/></g><path class="xlines-below"/><path class="ylines-below"/><g class="overlines-below"/><g class="xaxislayer-below"/><g class="yaxislayer-below"/><g class="overaxes-below"/><g class="overplot"><g class="xy" transform="translate(80,100)" clip-path="url(#clip192dd7xyplot)"><g class="scatterlayer mlayer"><g class="trace scatter tracee69215" style="stroke-miterlimit: 2;"><g class="fills"><g><path class="js-fill" d="M540,320L0,320L0,318.75L0,316.26L0.56,317.51L1.82,318.75L1.94,317.51L2.95,318.75L3.78,312.52L3.8,313.77L4.48,312.52L4.9,307.54L5.07,308.79L5.45,310.03L5.61,306.3L5.9,311.28L6.04,308.79L6.34,310.03L7.02,298.82L7.14,297.57L7.3,296.33L7.57,300.07L7.58,301.31L7.75,291.34L8.44,290.1L8.82,298.82L8.83,300.07L9.55,308.79L9.56,307.54L9.69,306.3L10,301.31L10,300.07L10.37,301.31L10.41,300.07L10.41,298.82L10.95,303.8L11.4,305.05L11.4,306.3L11.93,296.33L11.95,297.57L12.39,296.33L12.52,288.85L12.52,287.61L12.63,286.36L12.67,293.84L12.79,291.34L13.07,292.59L13.09,295.08L13.79,287.61L13.9,286.36L13.9,285.11L13.94,288.85L14.65,286.36L14.75,287.61L15.47,292.59L15.61,291.34L15.64,293.84L16.82,292.59L17.42,290.1L17.55,288.85L18.28,283.87L18.28,285.11L18.41,283.87L18.85,285.11L21.38,283.87L21.38,285.11L21.79,281.38L21.79,283.87L23.31,282.62L23.5,283.87L23.65,282.62L24.49,281.38L25.2,278.89L25.31,280.13L25.62,278.89L26.36,287.61L26.43,286.36L26.46,285.11L26.71,282.62L27.17,286.36L27.3,285.11L27.55,286.36L28.72,287.61L30.15,283.87L30.37,285.11L30.41,288.85L30.41,288.85L31.21,287.61L31.68,291.34L32.1,290.1L32.29,296.33L33.19,297.57L33.89,295.08L33.89,296.33L34.03,297.57L34.62,295.08L34.91,293.84L35.64,296.33L36,295.08L36.01,296.33L36.15,290.1L36.43,291.34L37.12,290.1L37.35,286.36L37.54,293.84L38.04,295.08L38.11,293.84L38.55,297.57L38.61,298.82L38.83,293.84L39.12,295.08L39.42,296.33L40.27,290.1L40.39,293.84L40.73,292.59L40.94,290.1L41.1,293.84L41.24,292.59L41.37,293.84L42.34,287.61L42.37,288.85L43.18,285.11L43.47,283.87L44.24,286.36L44.74,285.11L45.05,288.85L45.31,285.11L45.51,283.87L45.84,282.62L45.99,286.36L46,287.61L46.04,286.36L46.45,292.59L46.85,291.34L46.86,293.84L47.03,290.1L47.44,292.59L48,293.84L48,297.57L48.29,295.08L48.85,296.33L49.24,295.08L49.24,296.33L49.93,295.08L49.94,296.33L50.12,293.84L50.24,293.84L51.07,292.59L52.24,290.1L52.79,291.34L52.79,292.59L53.22,288.85L53.37,291.34L53.82,290.1L53.92,288.85L54.22,292.59L55.05,291.34L56.37,286.36L56.87,285.11L58.1,273.9L58.18,276.39L58.27,277.64L58.27,278.89L58.86,276.39L59.03,275.15L59.15,273.9L59.16,275.15L60.72,273.9L61.92,266.43L62.04,267.67L62.93,265.18L63.48,263.93L64.18,252.72L64.2,255.21L64.94,253.97L65.59,256.46L65.59,257.7L65.6,263.93L65.9,263.93L66.59,262.69L67.85,258.95L68.59,257.7L68.84,265.18L69.74,263.93L70.83,276.39L70.97,275.15L71.5,273.9L71.5,272.66L71.89,272.66L72.34,273.9L73.42,270.16L73.43,271.41L73.86,270.16L73.89,268.92L73.93,270.16L74.79,268.92L75.56,267.67L76.07,266.43L79.37,256.46L79.37,257.7L79.82,261.44L79.96,257.7L80.36,258.95L80.64,260.2L80.71,256.46L80.91,258.95L81.64,260.2L81.97,253.97L81.98,255.21L83.11,253.97L83.31,255.21L83.51,253.97L83.74,252.72L83.77,251.48L84.48,255.21L84.6,253.97L84.74,255.21L85.31,251.48L85.32,252.72L85.46,253.97L85.86,258.95L86.27,257.7L86.61,256.46L86.61,253.97L86.72,257.7L87.68,256.46L87.71,255.21L88.38,257.7L88.55,256.46L89.35,258.95L89.68,257.7L90.25,258.95L90.34,260.2L90.65,265.18L91.19,263.93L91.49,272.66L91.78,270.16L92.25,268.92L93.3,265.18L93.44,266.43L93.44,267.67L95.29,260.2L95.31,261.44L97.39,253.97L97.53,255.21L97.53,256.46L98.42,258.95L98.52,260.2L99.38,271.41L99.69,270.16L100.09,272.66L100.09,271.41L100.19,270.16L100.23,272.66L100.65,260.2L100.66,260.2L101.07,258.95L101.38,256.46L101.65,262.69L102.04,261.44L103.03,258.95L103.03,260.2L103.03,261.44L103.16,263.93L103.6,262.69L104.08,261.44L104.43,265.18L104.57,262.69L104.97,261.44L104.99,262.69L105.55,260.2L105.57,261.44L106.15,260.2L106.26,258.95L106.26,260.2L106.95,261.44L106.95,262.69L107.55,261.44L108.11,260.2L108.52,256.46L108.94,255.21L110.29,248.98L110.33,250.23L110.41,251.48L112.47,247.74L113.03,248.98L114.42,245.25L114.89,246.49L115.18,245.25L116.02,275.15L116.12,273.9L116.74,271.41L117.01,272.66L117.42,271.41L117.42,272.66L118.4,271.41L118.8,272.66L119.1,271.41L119.12,270.16L119.8,268.92L120.05,270.16L120.06,272.66L120.28,267.67L120.79,266.43L120.8,267.67L121.21,265.18L121.27,265.18L121.83,263.93L121.83,262.69L122.32,268.92L124.06,267.67L124.27,268.92L124.33,267.67L124.85,266.43L125.28,261.44L126.07,260.2L127.76,255.21L128.13,256.46L128.6,253.97L128.68,255.21L128.68,256.46L128.83,262.69L129.19,260.2L129.73,258.95L130.24,256.46L130.48,257.7L130.48,258.95L131.08,262.69L131.79,261.44L132.77,256.46L133.15,257.7L133.83,256.46L134.9,255.21L136.04,251.48L136.84,252.72L137.58,251.48L137.65,252.72L138.16,251.48L138.52,250.23L138.53,252.72L139.06,247.74L139.06,247.74L139.51,246.49L139.51,244L140.07,245.25L140.43,244L140.93,241.51L140.96,240.26L141.03,239.02L141.08,242.75L141.63,241.51L141.65,242.75L142.06,240.26L142.69,241.51L143.08,237.77L143.33,247.74L143.33,248.98L143.9,246.49L143.99,245.25L144.74,247.74L145.91,246.49L146.56,245.25L146.68,247.74L147.49,246.49L147.51,247.74L148.15,244L148.22,245.25L148.78,246.49L150.51,244L150.52,245.25L151.62,239.02L152.5,237.77L152.75,235.28L153.27,236.52L153.27,235.28L153.94,241.51L154.3,240.26L155.49,239.02L155.83,240.26L158.23,234.03L158.37,235.28L158.89,230.3L159.18,229.05L160.48,221.57L161.21,220.33L161.21,221.57L161.6,220.33L162.69,219.08L162.75,217.84L163.2,222.82L163.63,221.57L164.68,219.08L164.68,217.84L164.7,216.59L164.91,225.31L166.19,224.07L166.43,221.57L167.53,220.33L168.26,225.31L168.61,224.07L171.5,214.1L171.57,212.85L171.61,214.1L173.35,212.85L173.59,217.84L173.6,219.08L173.61,222.82L174.02,220.33L175.97,219.08L175.99,221.57L176.14,220.33L176.89,219.08L177.4,214.1L177.41,215.34L177.93,216.59L178.29,217.84L179.19,212.85L179.24,214.1L179.38,215.34L180.22,214.1L180.23,215.34L183.33,210.36L183.43,209.11L184,205.38L184.01,206.62L184.43,205.38L184.46,207.87L185.12,206.62L185.29,205.38L185.98,206.62L186.27,205.38L187.01,204.13L187.2,202.89L187.96,200.39L188.09,199.15L188.27,200.39L188.42,197.9L188.43,199.15L189.23,197.9L190.6,189.18L190.6,191.67L190.87,190.43L191.2,187.93L191.51,189.18L192.03,187.93L192.23,185.44L192.69,187.93L192.96,186.69L193.34,184.2L193.9,182.95L195.06,181.7L195.06,182.95L195.14,181.7L195.17,182.95L196.52,181.7L197.25,182.95L197.98,181.7L198.21,180.46L198.21,181.7L200.06,180.46L200.76,179.21L200.78,180.46L200.78,181.7L201.16,180.46L202,181.7L202,182.95L202.69,182.95L202.86,181.7L203.84,179.21L204.56,177.97L205.2,174.23L205.58,175.48L206.96,170.49L207.29,171.74L208.71,170.49L208.93,169.25L209.93,168L210.04,169.25L210.76,168L212.56,164.26L212.86,165.51L213.22,161.77L213.96,160.52L214.39,163.02L214.43,161.77L214.7,160.52L215.45,158.03L215.66,159.28L215.7,160.52L215.72,164.26L216.45,160.52L216.5,161.77L216.88,159.28L216.96,165.51L216.96,166.75L218.14,163.02L218.27,164.26L218.34,165.51L218.81,161.77L218.94,164.26L218.98,165.51L219.63,168L219.63,169.25L220.49,186.69L220.51,185.44L220.71,192.92L221.3,191.67L221.46,192.92L221.89,187.93L221.89,189.18L222.05,190.43L222.32,191.67L222.48,189.18L222.6,187.93L223.56,182.95L223.86,181.7L224.33,177.97L224.38,176.72L224.48,181.7L225.4,180.46L227.4,177.97L227.43,176.72L228.02,170.49L228.39,169.25L228.84,170.49L230.49,169.25L231.64,166.75L231.72,165.51L232.57,164.26L232.98,165.51L233.71,163.02L235.56,161.77L236.14,159.28L236.21,158.03L237.1,154.3L237.23,155.54L237.42,154.3L238.57,153.05L238.88,149.31L238.9,156.79L238.9,158.03L238.91,159.28L239.46,154.3L239.89,153.05L240.09,154.3L241.05,153.05L241.2,154.3L241.44,153.05L242.03,154.3L242.1,153.05L242.28,158.03L242.71,155.54L242.98,156.79L243.28,155.54L243.3,158.03L243.41,158.03L243.42,159.28L244.43,155.54L244.87,154.3L245.28,151.8L245.39,158.03L245.41,158.03L245.78,156.79L246.09,155.54L246.24,156.79L246.27,158.03L246.35,156.79L246.66,159.28L246.98,160.52L247.06,158.03L247.1,169.25L247.11,170.49L247.22,169.25L247.63,189.18L247.78,187.93L247.91,189.18L247.91,190.43L248.35,190.43L248.89,189.18L249.92,184.2L250.01,185.44L251.32,176.72L251.46,177.97L251.74,176.72L252.97,172.98L252.97,174.23L253.12,175.48L253.71,171.74L254.02,170.49L254.21,169.25L254.85,170.49L255.48,164.26L255.93,163.02L256.41,158.03L256.43,159.28L256.96,160.52L257.78,155.54L257.96,154.3L259.22,146.82L259.65,145.57L259.85,144.33L260.89,143.08L262.3,135.61L262.72,134.36L263.88,130.62L263.89,131.87L267.73,118.16L267.74,119.41L270.72,103.21L270.94,104.46L270.95,106.95L271.87,105.7L271.87,106.95L272.59,103.21L273.21,101.97L273.5,103.21L274.66,101.97L274.96,98.23L277.4,99.48L277.56,128.13L278.47,126.89L279.65,128.13L279.8,126.89L279.8,125.64L279.88,129.38L280.06,126.89L280.66,128.13L283.56,126.89L284.29,125.64L284.84,121.9L284.85,120.66L284.97,123.15L285.5,121.9L285.61,120.66L285.66,121.9L286.59,120.66L287.77,126.89L287.89,125.64L288.07,124.39L288.11,126.89L288.77,123.15L288.79,121.9L289.53,120.66L289.62,119.41L290,116.92L290.36,118.16L290.36,119.41L290.65,131.87L291.59,130.62L291.76,131.87L292.27,129.38L292.28,130.62L292.28,131.87L293.29,129.38L293.46,130.62L293.57,128.13L294.01,129.38L294.39,130.62L294.85,131.87L295.37,130.62L296.82,125.64L297.14,124.39L297.46,126.89L297.61,121.9L297.73,123.15L297.78,121.9L298.33,123.15L299.47,121.9L299.49,123.15L300.03,120.66L300.38,119.41L300.7,114.43L300.97,115.67L301.34,116.92L301.35,121.9L301.54,119.41L302.57,118.16L303.3,129.38L303.3,128.13L303.4,126.89L303.43,125.64L303.74,136.85L303.89,136.85L303.98,138.1L304.03,146.82L304.73,144.33L305.08,145.57L305.79,140.59L305.95,141.84L306.63,139.34L307.16,138.1L307.19,139.34L307.47,135.61L308.28,134.36L308.52,135.61L308.52,134.36L309.15,133.11L309.46,136.85L309.57,133.11L310.02,131.87L310.42,128.13L311.05,126.89L311.25,125.64L312.57,124.39L313.24,120.66L313.3,119.41L314.51,111.93L315.49,110.69L318.19,101.97L319.29,100.72L320.07,98.23L320.88,96.98L321.02,94.49L321.76,95.74L322.12,114.43L322.32,113.18L322.6,114.43L322.88,113.18L322.9,115.67L323.24,114.43L323.87,115.67L324.39,114.43L325.12,115.67L326.24,111.93L327.19,110.69L328.47,109.44L328.81,110.69L328.86,111.93L329.86,110.69L330.38,108.2L330.84,109.44L331.02,108.2L331.44,109.44L331.47,110.69L331.47,111.93L332.15,109.44L332.82,110.69L333.8,145.57L334.09,144.33L334.25,140.59L334.7,145.57L334.86,146.82L336.3,135.61L336.64,134.36L336.76,136.85L337.23,135.61L337.66,134.36L338.64,136.85L339.03,135.61L340.01,134.36L340.02,135.61L340.62,134.36L340.84,133.11L341.18,131.87L341.59,133.11L341.97,131.87L342.56,130.62L342.8,129.38L343.01,126.89L344.11,125.64L344.39,124.39L345.48,123.15L347.07,118.16L347.07,119.41L347.1,120.66L348.05,115.67L348.58,116.92L349.42,111.93L349.42,113.18L349.92,111.93L349.96,113.18L350.59,109.44L350.64,108.2L350.69,106.95L351.99,105.7L352.83,103.21L352.87,101.97L353.69,99.48L354.01,98.23L354.94,103.21L355.33,101.97L355.51,100.72L357.02,98.23L357.23,99.48L358.32,96.98L358.88,95.74L360.43,90.75L361.03,89.51L361.4,88.26L361.61,89.51L361.67,90.75L361.69,89.51L362.56,88.26L363.68,85.77L363.79,84.52L364.77,83.28L364.78,84.52L364.85,101.97L365.5,98.23L365.75,99.48L366.37,96.98L366.61,95.74L367.35,96.98L368.26,95.74L368.88,92L368.99,93.25L369.27,92L370.54,89.51L371.38,88.26L372,85.77L372,84.52L372,78.3L373.25,77.05L374.28,73.31L375.77,74.56L375.77,77.05L376.18,73.31L376.18,74.56L376.53,73.31L377.03,74.56L377.34,73.31L377.35,72.07L377.6,73.31L378.47,72.07L378.61,70.82L378.61,72.07L379.92,73.31L380.55,72.07L380.61,73.31L380.77,74.56L381.39,75.8L381.7,77.05L381.89,90.75L382.87,92L383.87,89.51L384.39,88.26L384.52,85.77L384.55,89.51L384.97,90.75L386.17,82.03L386.18,83.28L386.18,82.03L386.21,88.26L386.52,85.77L387.07,84.52L388.37,80.79L389.48,79.54L390.19,75.8L390.89,74.56L391.26,70.82L391.73,73.31L391.98,72.07L393,65.84L393,67.08L394.42,65.84L395.19,59.61L395.2,60.85L395.2,62.1L396,60.85L396.33,62.1L397.03,57.11L397.25,58.36L397.43,57.11L398.07,58.36L399.01,54.62L399.64,53.38L400.25,50.89L400.47,52.13L400.61,53.38L400.92,54.62L401.12,53.38L402.29,54.62L404.65,45.9L404.93,44.66L405.91,43.41L406.63,44.66L407.71,40.92L407.79,39.67L407.86,40.92L408.02,35.93L408.63,37.18L408.71,34.69L409.85,33.44L410.01,30.95L410.19,33.44L410.45,34.69L410.84,33.44L411.01,34.69L411.04,35.93L411.31,38.43L411.84,37.18L412.86,29.7L412.91,33.44L413.56,32.2L413.64,30.95L413.85,33.44L414.08,33.44L414.25,34.69L415.03,29.7L415.35,30.95L415.48,34.69L415.98,29.7L416.31,28.46L416.88,25.97L416.88,27.21L416.95,28.46L417.5,23.48L417.59,25.97L417.85,27.21L418.02,24.72L418.16,35.93L418.16,37.18L418.56,43.41L418.85,32.2L418.92,33.44L419.53,40.92L419.56,37.18L419.68,38.43L421.35,29.7L421.41,30.95L421.54,43.41L421.95,38.43L422.23,37.18L422.27,39.67L422.79,37.18L423.36,35.93L424,39.67L424.28,38.43L424.5,37.18L424.65,39.67L424.73,38.43L425.3,37.18L425.94,47.15L425.96,45.9L426.34,44.66L426.41,43.41L426.73,47.15L427,45.9L427.33,44.66L427.75,40.92L427.92,43.41L428.45,42.16L428.87,38.43L429.27,39.67L429.27,40.92L429.83,58.36L430.11,59.61L430.74,55.87L431.57,54.62L431.71,58.36L432.68,59.61L433.77,57.11L433.81,55.87L433.97,57.11L434.34,55.87L434.8,54.62L435.25,52.13L435.37,55.87L435.5,54.62L435.75,53.38L436.38,50.89L436.74,52.13L437.35,58.36L437.57,55.87L437.6,54.62L438.3,58.36L438.44,57.11L438.83,48.39L439.2,55.87L439.3,54.62L439.57,50.89L439.69,58.36L439.69,59.61L440.28,50.89L440.4,53.38L440.53,52.13L440.88,48.39L441.1,49.64L441.29,50.89L441.54,48.39L441.7,57.11L441.7,58.36L441.99,75.8L442.41,70.82L442.5,72.07L442.51,73.31L443.26,72.07L443.49,69.57L443.54,78.3L443.55,79.54L443.97,77.05L444.06,78.3L444.46,77.05L444.51,78.3L444.61,75.8L445.22,74.56L445.85,70.82L446.03,69.57L446.76,63.34L447.02,65.84L447.04,67.08L447.2,65.84L447.57,72.07L448.15,70.82L448.27,72.07L448.53,69.57L448.71,70.82L449.04,72.07L449.69,62.1L449.99,60.85L450.01,59.61L450.1,63.34L450.45,60.85L450.94,59.61L450.95,60.85L451.53,50.89L451.56,53.38L452.35,52.13L452.84,48.39L453.39,49.64L453.52,47.15L453.8,53.38L454.17,52.13L454.2,50.89L454.51,49.64L454.77,52.13L455.06,50.89L455.24,53.38L455.6,50.89L455.94,52.13L456.47,45.9L456.82,48.39L456.87,49.64L457,48.39L457.03,52.13L457.46,49.64L457.89,48.39L457.9,47.15L458.44,58.36L458.46,55.87L458.6,54.62L459.82,58.36L460.01,57.11L460.26,59.61L460.72,58.36L460.97,57.11L461.96,62.1L462.1,59.61L462.13,58.36L462.24,55.87L462.79,59.61L462.79,59.61L463.13,58.36L463.38,54.62L463.77,58.36L463.8,59.61L464.11,58.36L464.94,78.3L465.21,77.05L465.3,75.8L466.03,73.31L466.05,72.07L466.9,62.1L466.99,63.34L467.07,60.85L467.18,72.07L467.46,70.82L467.46,72.07L468.01,70.82L468.03,72.07L468.29,73.31L468.68,80.79L468.97,78.3L469.11,77.05L469.24,72.07L469.86,72.07L469.98,70.82L470.08,69.57L470.11,74.56L470.27,73.31L470.74,74.56L471.01,75.8L471.3,72.07L471.65,70.82L471.95,74.56L471.97,75.8L473.22,72.07L473.92,70.82L474.18,65.84L474.49,70.82L474.79,69.57L475.9,59.61L476.66,60.85L477.17,73.31L477.58,72.07L477.68,74.56L478.02,67.08L478.19,68.33L478.44,67.08L478.91,74.56L479.6,73.31L479.79,72.07L480.11,74.56L480.11,75.8L480.76,73.31L481,87.02L481.09,85.77L481.1,84.52L481.1,83.28L481.65,90.75L481.93,89.51L482.14,90.75L483.59,89.51L484.17,90.75L484.47,89.51L484.92,90.75L484.94,89.51L485.47,88.26L485.48,87.02L485.73,90.75L485.81,89.51L486.43,88.26L486.65,89.51L486.97,88.26L487.37,87.02L487.44,84.52L487.58,88.26L487.87,87.02L488.39,85.77L488.47,84.52L488.89,89.51L488.89,90.75L489.98,87.02L490.37,88.26L490.62,85.77L490.92,87.02L490.93,88.26L490.97,90.75L491.52,90.75L491.69,89.51L492.47,82.03L492.5,84.52L492.5,85.77L492.5,87.02L492.65,84.52L493.5,85.77L493.5,84.52L493.77,84.52L494.92,83.28L495.47,79.54L495.71,82.03L495.81,80.79L496.45,75.8L496.64,74.56L497.28,77.05L497.31,74.56L497.46,73.31L498.28,72.07L498.84,73.31L498.86,75.8L499.39,75.8L499.69,74.56L499.69,73.31L500.39,75.8L500.58,74.56L500.68,73.31L501.58,72.07L502.2,73.31L502.63,72.07L503.38,67.08L503.61,65.84L503.63,67.08L503.78,65.84L504.49,64.59L504.75,67.08L505.2,65.84L505.31,67.08L505.72,62.1L505.88,64.59L506.16,65.84L506.42,62.1L508.18,63.34L508.51,59.61L509.14,60.85L509.39,73.31L509.96,72.07L510.09,73.31L510.22,70.82L510.66,72.07L511.06,70.82L511.37,67.08L512.31,65.84L512.44,63.34L513.45,62.1L514.11,59.61L514.22,58.36L514.34,55.87L515.75,57.11L516.17,75.8L516.45,73.31L516.54,72.07L516.59,74.56L517.32,73.31L518.26,69.57L518.26,70.82L518.98,77.05L519.02,75.8L519.45,74.56L520.08,69.57L520.12,70.82L520.56,69.57L523.02,64.59L523.34,63.34L524.44,59.61L525.35,58.36L525.45,55.87L525.65,57.11L526.28,55.87L526.94,53.38L528.43,52.13L529.98,48.39L530.1,47.15L531.34,40.92L531.35,42.16L531.38,40.92L531.43,44.66L531.99,42.16L532.21,40.92L532.9,32.2L533.03,33.44L533.74,27.21L536.7,25.97L538.16,18.49L539.98,17.25L540,16" style="fill: rgb(255, 127, 14); fill-opacity: 0.5; stroke-width: 0;"/></g></g><g class="errorbars"/><g class="lines"><path class="js-line" d="M0,318.75L0,316.26L0.56,317.51L1.82,318.75L1.94,317.51L2.95,318.75L3.78,312.52L3.8,313.77L4.48,312.52L4.9,307.54L5.07,308.79L5.45,310.03L5.61,306.3L5.9,311.28L6.04,308.79L6.34,310.03L7.02,298.82L7.14,297.57L7.3,296.33L7.57,300.07L7.58,301.31L7.75,291.34L8.44,290.1L8.82,298.82L8.83,300.07L9.55,308.79L9.56,307.54L9.69,306.3L10,301.31L10,300.07L10.37,301.31L10.41,300.07L10.41,298.82L10.95,303.8L11.4,305.05L11.4,306.3L11.93,296.33L11.95,297.57L12.39,296.33L12.52,288.85L12.52,287.61L12.63,286.36L12.67,293.84L12.79,291.34L13.07,292.59L13.09,295.08L13.79,287.61L13.9,286.36L13.9,285.11L13.94,288.85L14.65,286.36L14.75,287.61L15.47,292.59L15.61,291.34L15.64,293.84L16.82,292.59L17.42,290.1L17.55,288.85L18.28,283.87L18.28,285.11L18.41,283.87L18.85,285.11L21.38,283.87L21.38,285.11L21.79,281.38L21.79,283.87L23.31,282.62L23.5,283.87L23.65,282.62L24.49,281.38L25.2,278.89L25.31,280.13L25.62,278.89L26.36,287.61L26.43,286.36L26.46,285.11L26.71,282.62L27.17,286.36L27.3,285.11L27.55,286.36L28.72,287.61L30.15,283.87L30.37,285.11L30.41,288.85L30.41,288.85L31.21,287.61L31.68,291.34L32.1,290.1L32.29,296.33L33.19,297.57L33.89,295.08L33.89,296.33L34.03,297.57L34.62,295.08L34.91,293.84L35.64,296.33L36,295.08L36.01,296.33L36.15,290.1L36.43,291.34L37.12,290.1L37.35,286.36L37.54,293.84L38.04,295.08L38.11,293.84L38.55,297.57L38.61,298.82L38.83,293.84L39.12,295.08L39.42,296.33L40.27,290.1L40.39,293.84L40.73,292.59L40.94,290.1L41.1,293.84L41.24,292.59L41.37,293.84L42.34,287.61L42.37,288.85L43.18,285.11L43.47,283.87L44.24,286.36L44.74,285.11L45.05,288.85L45.31,285.11L45.51,283.87L45.84,282.62L45.99,286.36L46,287.61L46.04,286.36L46.45,292.59L46.85,291.34L46.86,293.84L47.03,290.1L47.44,292.59L48,293.84L48,297.57L48.29,295.08L48.85,296.33L49.24,295.08L49.24,296.33L49.93,295.08L49.94,296.33L50.12,293.84L50.24,293.84L51.07,292.59L52.24,290.1L52.79,291.34L52.79,292.59L53.22,288.85L53.37,291.34L53.82,290.1L53.92,288.85L54.22,292.59L55.05,291.34L56.37,286.36L56.87,285.11L58.1,273.9L58.18,276.39L58.27,277.64L58.27,278.89L58.86,276.39L59.03,275.15L59.15,273.9L59.16,275.15L60.72,273.9L61.92,266.43L62.04,267.67L62.93,265.18L63.48,263.93L64.18,252.72L64.2,255.21L64.94,253.97L65.59,256.46L65.59,257.7L65.6,263.93L65.9,263.93L66.59,262.69L67.85,258.95L68.59,257.7L68.84,265.18L69.74,263.93L70.83,276.39L70.97,275.15L71.5,273.9L71.5,272.66L71.89,272.66L72.34,273.9L73.42,270.16L73.43,271.41L73.86,270.16L73.89,268.92L73.93,270.16L74.79,268.92L75.56,267.67L76.07,266.43L79.37,256.46L79.37,257.7L79.82,261.44L79.96,257.7L80.36,258.95L80.64,260.2L80.71,256.46L80.91,258.95L81.64,260.2L81.97,253.97L81.98,255.21L83.11,253.97L83.31,255.21L83.51,253.97L83.74,252.72L83.77,251.48L84.48,255.21L84.6,253.97L84.74,255.21L85.31,251.48L85.32,252.72L85.46,253.97L85.86,258.95L86.27,257.7L86.61,256.46L86.61,253.97L86.72,257.7L87.68,256.46L87.71,255.21L88.38,257.7L88.55,256.46L89.35,258.95L89.68,257.7L90.25,258.95L90.34,260.2L90.65,265.18L91.19,263.93L91.49,272.66L91.78,270.16L92.25,268.92L93.3,265.18L93.44,266.43L93.44,267.67L95.29,260.2L95.31,261.44L97.39,253.97L97.53,255.21L97.53,256.46L98.42,258.95L98.52,260.2L99.38,271.41L99.69,270.16L100.09,272.66L100.09,271.41L100.19,270.16L100.23,272.66L100.65,260.2L100.66,260.2L101.07,258.95L101.38,256.46L101.65,262.69L102.04,261.44L103.03,258.95L103.03,260.2L103.03,261.44L103.16,263.93L103.6,262.69L104.08,261.44L104.43,265.18L104.57,262.69L104.97,261.44L104.99,262.69L105.55,260.2L105.57,261.44L106.15,260.2L106.26,258.95L106.26,260.2L106.95,261.44L106.95,262.69L107.55,261.44L108.11,260.2L108.52,256.46L108.94,255.21L110.29,248.98L110.33,250.23L110.41,251.48L112.47,247.74L113.03,248.98L114.42,245.25L114.89,246.49L115.18,245.25L116.02,275.15L116.12,273.9L116.74,271.41L117.01,272.66L117.42,271.41L117.42,272.66L118.4,271.41L118.8,272.66L119.1,271.41L119.12,270.16L119.8,268.92L120.05,270.16L120.06,272.66L120.28,267.67L120.79,266.43L120.8,267.67L121.21,265.18L121.27,265.18L121.83,263.93L121.83,262.69L122.32,268.92L124.06,267.67L124.27,268.92L124.33,267.67L124.85,266.43L125.28,261.44L126.07,260.2L127.76,255.21L128.13,256.46L128.6,253.97L128.68,255.21L128.68,256.46L128.83,262.69L129.19,260.2L129.73,258.95L130.24,256.46L130.48,257.7L130.48,258.95L131.08,262.69L131.79,261.44L132.77,256.46L133.15,257.7L133.83,256.46L134.9,255.21L136.04,251.48L136.84,252.72L137.58,251.48L137.65,252.72L138.16,251.48L138.52,250.23L138.53,252.72L139.06,247.74L139.06,247.74L139.51,246.49L139.51,244L140.07,245.25L140.43,244L140.93,241.51L140.96,240.26L141.03,239.02L141.08,242.75L141.63,241.51L141.65,242.75L142.06,240.26L142.69,241.51L143.08,237.77L143.33,247.74L143.33,248.98L143.9,246.49L143.99,245.25L144.74,247.74L145.91,246.49L146.56,245.25L146.68,247.74L147.49,246.49L147.51,247.74L148.15,244L148.22,245.25L148.78,246.49L150.51,244L150.52,245.25L151.62,239.02L152.5,237.77L152.75,235.28L153.27,236.52L153.27,235.28L153.94,241.51L154.3,240.26L155.49,239.02L155.83,240.26L158.23,234.03L158.37,235.28L158.89,230.3L159.18,229.05L160.48,221.57L161.21,220.33L161.21,221.57L161.6,220.33L162.69,219.08L162.75,217.84L163.2,222.82L163.63,221.57L164.68,219.08L164.68,217.84L164.7,216.59L164.91,225.31L166.19,224.07L166.43,221.57L167.53,220.33L168.26,225.31L168.61,224.07L171.5,214.1L171.57,212.85L171.61,214.1L173.35,212.85L173.59,217.84L173.6,219.08L173.61,222.82L174.02,220.33L175.97,219.08L175.99,221.57L176.14,220.33L176.89,219.08L177.4,214.1L177.41,215.34L177.93,216.59L178.29,217.84L179.19,212.85L179.24,214.1L179.38,215.34L180.22,214.1L180.23,215.34L183.33,210.36L183.43,209.11L184,205.38L184.01,206.62L184.43,205.38L184.46,207.87L185.12,206.62L185.29,205.38L185.98,206.62L186.27,205.38L187.01,204.13L187.2,202.89L187.96,200.39L188.09,199.15L188.27,200.39L188.42,197.9L188.43,199.15L189.23,197.9L190.6,189.18L190.6,191.67L190.87,190.43L191.2,187.93L191.51,189.18L192.03,187.93L192.23,185.44L192.69,187.93L192.96,186.69L193.34,184.2L193.9,182.95L195.06,181.7L195.06,182.95L195.14,181.7L195.17,182.95L196.52,181.7L197.25,182.95L197.98,181.7L198.21,180.46L198.21,181.7L200.06,180.46L200.76,179.21L200.78,180.46L200.78,181.7L201.16,180.46L202,181.7L202,182.95L202.69,182.95L202.86,181.7L203.84,179.21L204.56,177.97L205.2,174.23L205.58,175.48L206.96,170.49L207.29,171.74L208.71,170.49L208.93,169.25L209.93,168L210.04,169.25L210.76,168L212.56,164.26L212.86,165.51L213.22,161.77L213.96,160.52L214.39,163.02L214.43,161.77L214.7,160.52L215.45,158.03L215.66,159.28L215.7,160.52L215.72,164.26L216.45,160.52L216.5,161.77L216.88,159.28L216.96,165.51L216.96,166.75L218.14,163.02L218.27,164.26L218.34,165.51L218.81,161.77L218.94,164.26L218.98,165.51L219.63,168L219.63,169.25L220.49,186.69L220.51,185.44L220.71,192.92L221.3,191.67L221.46,192.92L221.89,187.93L221.89,189.18L222.05,190.43L222.32,191.67L222.48,189.18L222.6,187.93L223.56,182.95L223.86,181.7L224.33,177.97L224.38,176.72L224.48,181.7L225.4,180.46L227.4,177.97L227.43,176.72L228.02,170.49L228.39,169.25L228.84,170.49L230.49,169.25L231.64,166.75L231.72,165.51L232.57,164.26L232.98,165.51L233.71,163.02L235.56,161.77L236.14,159.28L236.21,158.03L237.1,154.3L237.23,155.54L237.42,154.3L238.57,153.05L238.88,149.31L238.9,156.79L238.9,158.03L238.91,159.28L239.46,154.3L239.89,153.05L240.09,154.3L241.05,153.05L241.2,154.3L241.44,153.05L242.03,154.3L242.1,153.05L242.28,158.03L242.71,155.54L242.98,156.79L243.28,155.54L243.3,158.03L243.41,158.03L243.42,159.28L244.43,155.54L244.87,154.3L245.28,151.8L245.39,158.03L245.41,158.03L245.78,156.79L246.09,155.54L246.24,156.79L246.27,158.03L246.35,156.79L246.66,159.28L246.98,160.52L247.06,158.03L247.1,169.25L247.11,170.49L247.22,169.25L247.63,189.18L247.78,187.93L247.91,189.18L247.91,190.43L248.35,190.43L248.89,189.18L249.92,184.2L250.01,185.44L251.32,176.72L251.46,177.97L251.74,176.72L252.97,172.98L252.97,174.23L253.12,175.48L253.71,171.74L254.02,170.49L254.21,169.25L254.85,170.49L255.48,164.26L255.93,163.02L256.41,158.03L256.43,159.28L256.96,160.52L257.78,155.54L257.96,154.3L259.22,146.82L259.65,145.57L259.85,144.33L260.89,143.08L262.3,135.61L262.72,134.36L263.88,130.62L263.89,131.87L267.73,118.16L267.74,119.41L270.72,103.21L270.94,104.46L270.95,106.95L271.87,105.7L271.87,106.95L272.59,103.21L273.21,101.97L273.5,103.21L274.66,101.97L274.96,98.23L277.4,99.48L277.56,128.13L278.47,126.89L279.65,128.13L279.8,126.89L279.8,125.64L279.88,129.38L280.06,126.89L280.66,128.13L283.56,126.89L284.29,125.64L284.84,121.9L284.85,120.66L284.97,123.15L285.5,121.9L285.61,120.66L285.66,121.9L286.59,120.66L287.77,126.89L287.89,125.64L288.07,124.39L288.11,126.89L288.77,123.15L288.79,121.9L289.53,120.66L289.62,119.41L290,116.92L290.36,118.16L290.36,119.41L290.65,131.87L291.59,130.62L291.76,131.87L292.27,129.38L292.28,130.62L292.28,131.87L293.29,129.38L293.46,130.62L293.57,128.13L294.01,129.38L294.39,130.62L294.85,131.87L295.37,130.62L296.82,125.64L297.14,124.39L297.46,126.89L297.61,121.9L297.73,123.15L297.78,121.9L298.33,123.15L299.47,121.9L299.49,123.15L300.03,120.66L300.38,119.41L300.7,114.43L300.97,115.67L301.34,116.92L301.35,121.9L301.54,119.41L302.57,118.16L303.3,129.38L303.3,128.13L303.4,126.89L303.43,125.64L303.74,136.85L303.89,136.85L303.98,138.1L304.03,146.82L304.73,144.33L305.08,145.57L305.79,140.59L305.95,141.84L306.63,139.34L307.16,138.1L307.19,139.34L307.47,135.61L308.28,134.36L308.52,135.61L308.52,134.36L309.15,133.11L309.46,136.85L309.57,133.11L310.02,131.87L310.42,128.13L311.05,126.89L311.25,125.64L312.57,124.39L313.24,120.66L313.3,119.41L314.51,111.93L315.49,110.69L318.19,101.97L319.29,100.72L320.07,98.23L320.88,96.98L321.02,94.49L321.76,95.74L322.12,114.43L322.32,113.18L322.6,114.43L322.88,113.18L322.9,115.67L323.24,114.43L323.87,115.67L324.39,114.43L325.12,115.67L326.24,111.93L327.19,110.69L328.47,109.44L328.81,110.69L328.86,111.93L329.86,110.69L330.38,108.2L330.84,109.44L331.02,108.2L331.44,109.44L331.47,110.69L331.47,111.93L332.15,109.44L332.82,110.69L333.8,145.57L334.09,144.33L334.25,140.59L334.7,145.57L334.86,146.82L336.3,135.61L336.64,134.36L336.76,136.85L337.23,135.61L337.66,134.36L338.64,136.85L339.03,135.61L340.01,134.36L340.02,135.61L340.62,134.36L340.84,133.11L341.18,131.87L341.59,133.11L341.97,131.87L342.56,130.62L342.8,129.38L343.01,126.89L344.11,125.64L344.39,124.39L345.48,123.15L347.07,118.16L347.07,119.41L347.1,120.66L348.05,115.67L348.58,116.92L349.42,111.93L349.42,113.18L349.92,111.93L349.96,113.18L350.59,109.44L350.64,108.2L350.69,106.95L351.99,105.7L352.83,103.21L352.87,101.97L353.69,99.48L354.01,98.23L354.94,103.21L355.33,101.97L355.51,100.72L357.02,98.23L357.23,99.48L358.32,96.98L358.88,95.74L360.43,90.75L361.03,89.51L361.4,88.26L361.61,89.51L361.67,90.75L361.69,89.51L362.56,88.26L363.68,85.77L363.79,84.52L364.77,83.28L364.78,84.52L364.85,101.97L365.5,98.23L365.75,99.48L366.37,96.98L366.61,95.74L367.35,96.98L368.26,95.74L368.88,92L368.99,93.25L369.27,92L370.54,89.51L371.38,88.26L372,85.77L372,84.52L372,78.3L373.25,77.05L374.28,73.31L375.77,74.56L375.77,77.05L376.18,73.31L376.18,74.56L376.53,73.31L377.03,74.56L377.34,73.31L377.35,72.07L377.6,73.31L378.47,72.07L378.61,70.82L378.61,72.07L379.92,73.31L380.55,72.07L380.61,73.31L380.77,74.56L381.39,75.8L381.7,77.05L381.89,90.75L382.87,92L383.87,89.51L384.39,88.26L384.52,85.77L384.55,89.51L384.97,90.75L386.17,82.03L386.18,83.28L386.18,82.03L386.21,88.26L386.52,85.77L387.07,84.52L388.37,80.79L389.48,79.54L390.19,75.8L390.89,74.56L391.26,70.82L391.73,73.31L391.98,72.07L393,65.84L393,67.08L394.42,65.84L395.19,59.61L395.2,60.85L395.2,62.1L396,60.85L396.33,62.1L397.03,57.11L397.25,58.36L397.43,57.11L398.07,58.36L399.01,54.62L399.64,53.38L400.25,50.89L400.47,52.13L400.61,53.38L400.92,54.62L401.12,53.38L402.29,54.62L404.65,45.9L404.93,44.66L405.91,43.41L406.63,44.66L407.71,40.92L407.79,39.67L407.86,40.92L408.02,35.93L408.63,37.18L408.71,34.69L409.85,33.44L410.01,30.95L410.19,33.44L410.45,34.69L410.84,33.44L411.01,34.69L411.04,35.93L411.31,38.43L411.84,37.18L412.86,29.7L412.91,33.44L413.56,32.2L413.64,30.95L413.85,33.44L414.08,33.44L414.25,34.69L415.03,29.7L415.35,30.95L415.48,34.69L415.98,29.7L416.31,28.46L416.88,25.97L416.88,27.21L416.95,28.46L417.5,23.48L417.59,25.97L417.85,27.21L418.02,24.72L418.16,35.93L418.16,37.18L418.56,43.41L418.85,32.2L418.92,33.44L419.53,40.92L419.56,37.18L419.68,38.43L421.35,29.7L421.41,30.95L421.54,43.41L421.95,38.43L422.23,37.18L422.27,39.67L422.79,37.18L423.36,35.93L424,39.67L424.28,38.43L424.5,37.18L424.65,39.67L424.73,38.43L425.3,37.18L425.94,47.15L425.96,45.9L426.34,44.66L426.41,43.41L426.73,47.15L427,45.9L427.33,44.66L427.75,40.92L427.92,43.41L428.45,42.16L428.87,38.43L429.27,39.67L429.27,40.92L429.83,58.36L430.11,59.61L430.74,55.87L431.57,54.62L431.71,58.36L432.68,59.61L433.77,57.11L433.81,55.87L433.97,57.11L434.34,55.87L434.8,54.62L435.25,52.13L435.37,55.87L435.5,54.62L435.75,53.38L436.38,50.89L436.74,52.13L437.35,58.36L437.57,55.87L437.6,54.62L438.3,58.36L438.44,57.11L438.83,48.39L439.2,55.87L439.3,54.62L439.57,50.89L439.69,58.36L439.69,59.61L440.28,50.89L440.4,53.38L440.53,52.13L440.88,48.39L441.1,49.64L441.29,50.89L441.54,48.39L441.7,57.11L441.7,58.36L441.99,75.8L442.41,70.82L442.5,72.07L442.51,73.31L443.26,72.07L443.49,69.57L443.54,78.3L443.55,79.54L443.97,77.05L444.06,78.3L444.46,77.05L444.51,78.3L444.61,75.8L445.22,74.56L445.85,70.82L446.03,69.57L446.76,63.34L447.02,65.84L447.04,67.08L447.2,65.84L447.57,72.07L448.15,70.82L448.27,72.07L448.53,69.57L448.71,70.82L449.04,72.07L449.69,62.1L449.99,60.85L450.01,59.61L450.1,63.34L450.45,60.85L450.94,59.61L450.95,60.85L451.53,50.89L451.56,53.38L452.35,52.13L452.84,48.39L453.39,49.64L453.52,47.15L453.8,53.38L454.17,52.13L454.2,50.89L454.51,49.64L454.77,52.13L455.06,50.89L455.24,53.38L455.6,50.89L455.94,52.13L456.47,45.9L456.82,48.39L456.87,49.64L457,48.39L457.03,52.13L457.46,49.64L457.89,48.39L457.9,47.15L458.44,58.36L458.46,55.87L458.6,54.62L459.82,58.36L460.01,57.11L460.26,59.61L460.72,58.36L460.97,57.11L461.96,62.1L462.1,59.61L462.13,58.36L462.24,55.87L462.79,59.61L462.79,59.61L463.13,58.36L463.38,54.62L463.77,58.36L463.8,59.61L464.11,58.36L464.94,78.3L465.21,77.05L465.3,75.8L466.03,73.31L466.05,72.07L466.9,62.1L466.99,63.34L467.07,60.85L467.18,72.07L467.46,70.82L467.46,72.07L468.01,70.82L468.03,72.07L468.29,73.31L468.68,80.79L468.97,78.3L469.11,77.05L469.24,72.07L469.86,72.07L469.98,70.82L470.08,69.57L470.11,74.56L470.27,73.31L470.74,74.56L471.01,75.8L471.3,72.07L471.65,70.82L471.95,74.56L471.97,75.8L473.22,72.07L473.92,70.82L474.18,65.84L474.49,70.82L474.79,69.57L475.9,59.61L476.66,60.85L477.17,73.31L477.58,72.07L477.68,74.56L478.02,67.08L478.19,68.33L478.44,67.08L478.91,74.56L479.6,73.31L479.79,72.07L480.11,74.56L480.11,75.8L480.76,73.31L481,87.02L481.09,85.77L481.1,84.52L481.1,83.28L481.65,90.75L481.93,89.51L482.14,90.75L483.59,89.51L484.17,90.75L484.47,89.51L484.92,90.75L484.94,89.51L485.47,88.26L485.48,87.02L485.73,90.75L485.81,89.51L486.43,88.26L486.65,89.51L486.97,88.26L487.37,87.02L487.44,84.52L487.58,88.26L487.87,87.02L488.39,85.77L488.47,84.52L488.89,89.51L488.89,90.75L489.98,87.02L490.37,88.26L490.62,85.77L490.92,87.02L490.93,88.26L490.97,90.75L491.52,90.75L491.69,89.51L492.47,82.03L492.5,84.52L492.5,85.77L492.5,87.02L492.65,84.52L493.5,85.77L493.5,84.52L493.77,84.52L494.92,83.28L495.47,79.54L495.71,82.03L495.81,80.79L496.45,75.8L496.64,74.56L497.28,77.05L497.31,74.56L497.46,73.31L498.28,72.07L498.84,73.31L498.86,75.8L499.39,75.8L499.69,74.56L499.69,73.31L500.39,75.8L500.58,74.56L500.68,73.31L501.58,72.07L502.2,73.31L502.63,72.07L503.38,67.08L503.61,65.84L503.63,67.08L503.78,65.84L504.49,64.59L504.75,67.08L505.2,65.84L505.31,67.08L505.72,62.1L505.88,64.59L506.16,65.84L506.42,62.1L508.18,63.34L508.51,59.61L509.14,60.85L509.39,73.31L509.96,72.07L510.09,73.31L510.22,70.82L510.66,72.07L511.06,70.82L511.37,67.08L512.31,65.84L512.44,63.34L513.45,62.1L514.11,59.61L514.22,58.36L514.34,55.87L515.75,57.11L516.17,75.8L516.45,73.31L516.54,72.07L516.59,74.56L517.32,73.31L518.26,69.57L518.26,70.82L518.98,77.05L519.02,75.8L519.45,74.56L520.08,69.57L520.12,70.82L520.56,69.57L523.02,64.59L523.34,63.34L524.44,59.61L525.35,58.36L525.45,55.87L525.65,57.11L526.28,55.87L526.94,53.38L528.43,52.13L529.98,48.39L530.1,47.15L531.34,40.92L531.35,42.16L531.38,40.92L531.43,44.66L531.99,42.16L532.21,40.92L532.9,32.2L533.03,33.44L533.74,27.21L536.7,25.97L538.16,18.49L539.98,17.25L540,16" style="vector-effect: none; fill: none; stroke: rgb(255, 127, 14); stroke-opacity: 1; stroke-width: 2px; opacity: 1;"/></g><g class="points"/><g class="text"/></g></g></g></g><g class="zerolinelayer-above"/><path class="xlines-above crisp" d="M0,0" style="fill: none;"/><path class="ylines-above crisp" d="M0,0" style="fill: none;"/><g class="overlines-above"/><g class="xaxislayer-above"><g class="xtick"><text text-anchor="middle" x="0" y="439" transform="translate(100.74,0)" style="font-family: 'Open Sans'; font-size: 18px; fill: rgb(0, 0, 0); fill-opacity: 1; white-space: pre;">2016</text></g><g class="xtick"><text text-anchor="middle" x="0" y="439" style="font-family: 'Open Sans'; font-size: 18px; fill: rgb(0, 0, 0); fill-opacity: 1; white-space: pre;" transform="translate(203.67000000000002,0)">2018</text></g><g class="xtick"><text text-anchor="middle" x="0" y="439" style="font-family: 'Open Sans'; font-size: 18px; fill: rgb(0, 0, 0); fill-opacity: 1; white-space: pre;" transform="translate(306.45,0)">2020</text></g><g class="xtick"><text text-anchor="middle" x="0" y="439" style="font-family: 'Open Sans'; font-size: 18px; fill: rgb(0, 0, 0); fill-opacity: 1; white-space: pre;" transform="translate(409.38,0)">2022</text></g><g class="xtick"><text text-anchor="middle" x="0" y="439" style="font-family: 'Open Sans'; font-size: 18px; fill: rgb(0, 0, 0); fill-opacity: 1; white-space: pre;" transform="translate(512.1600000000001,0)">2024</text></g><g class="xtick"><text text-anchor="middle" x="0" y="439" style="font-family: 'Open Sans'; font-size: 18px; fill: rgb(0, 0, 0); fill-opacity: 1; white-space: pre;" transform="translate(615.09,0)">2026</text></g></g><g class="yaxislayer-above"><g class="ytick"><text text-anchor="end" x="79" y="6.3" transform="translate(0,420)" style="font-family: 'Open Sans'; font-size: 18px; fill: rgb(0, 0, 0); fill-opacity: 1; white-space: pre;">0</text></g><g class="ytick"><text text-anchor="end" x="79" y="6.3" style="font-family: 'Open Sans'; font-size: 18px; fill: rgb(0, 0, 0); fill-opacity: 1; white-space: pre;" transform="translate(0,357.7)">50</text></g><g class="ytick"><text text-anchor="end" x="79" y="6.3" style="font-family: 'Open Sans'; font-size: 18px; fill: rgb(0, 0, 0); fill-opacity: 1; white-space: pre;" transform="translate(0,295.40999999999997)">100</text></g><g class="ytick"><text text-anchor="end" x="79" y="6.3" style="font-family: 'Open Sans'; font-size: 18px; fill: rgb(0, 0, 0); fill-opacity: 1; white-space: pre;" transform="translate(0,233.11)">150</text></g><g class="ytick"><text text-anchor="end" x="79" y="6.3" style="font-family: 'Open Sans'; font-size: 18px; fill: rgb(0, 0, 0); fill-opacity: 1; white-space: pre;" transform="translate(0,170.82)">200</text></g><g class="ytick"><text text-anchor="end" x="79" y="6.3" style="font-family: 'Open Sans'; font-size: 18px; fill: rgb(0, 0, 0); fill-opacity: 1; white-space: pre;" transform="translate(0,108.52)">250</text></g></g><g class="overaxes-above"/></g></g><g class="polarlayer"/><g class="smithlayer"/><g class="ternarylayer"/><g class="geolayer"/><g class="funnelarealayer"/><g class="pielayer"/><g class="iciclelayer"/><g class="treemaplayer"/><g class="sunburstlayer"/><g class="glimages"/><defs id="topdefs-192dd7"><g class="clips"/></defs><g class="layer-above"><g class="imagelayer"/><g class="shapelayer"/></g><g class="infolayer"><g class="g-gtitle"><text class="gtitle" x="35" y="50" text-anchor="start" dy="0em" style="opacity: 1; font-family: 'Open Sans'; font-size: 25px; fill: rgb(0, 0, 0); fill-opacity: 1; white-space: pre;">MultiQC/MultiQC - Open Issues Over Time</text></g><g class="g-xtitle"><text class="xtitle" x="350" y="472.9" text-anchor="middle" style="opacity: 1; font-family: 'Open Sans'; font-size: 22px; fill: rgb(0, 0, 0); fill-opacity: 1; white-space: pre;">Date</text></g><g class="g-ytitle"><text class="ytitle" transform="rotate(-90,29.799999999999997,260)" x="29.799999999999997" y="260" text-anchor="middle" style="opacity: 1; font-family: 'Open Sans'; font-size: 22px; fill: rgb(0, 0, 0); fill-opacity: 1; white-space: pre;">Number of Open Issues</text></g></g></svg>