<svg class="main-svg" xmlns="http://www.w3.org/2000/svg" xmlns:xlink="http://www.w3.org/1999/xlink" width="700" height="500" style="" viewBox="0 0 700 500"><rect x="0" y="0" width="700" height="500" style="fill: rgb(0, 0, 0); fill-opacity: 0;"/><defs id="defs-60784f"><g class="clips"><clipPath id="clip60784fxyplot" class="plotclip"><rect width="540" height="320"/></clipPath><clipPath class="axesclip" id="clip60784fx"><rect x="80" y="0" width="540" height="500"/></clipPath><clipPath class="axesclip" id="clip60784fy"><rect x="0" y="100" width="700" height="320"/></clipPath><clipPath class="axesclip" id="clip60784fxy"><rect x="80" y="100" width="540" height="320"/></clipPath></g><g class="gradients"/><g class="patterns"/></defs><g class="bglayer"><rect class="bg" x="80" y="100" width="540" height="320" style="fill: rgb(0, 0, 0); fill-opacity: 0; stroke-width: 0;"/></g><g class="layer-below"><g class="imagelayer"/><g class="shapelayer"/></g><g class="cartesianlayer"><g class="subplot xy"><g class="layer-subplot"><g class="shapelayer"/><g class="imagelayer"/></g><g class="minor-gridlayer"><g class="x"/><g class="y"/></g><g class="gridlayer"><g class="x"><path class="xgrid crisp" transform="translate(100.7,0)" d="M0,100v320" style="stroke: rgb(255, 255, 255); stroke-opacity: 1; stroke-width: 1px;"/><path class="xgrid crisp" transform="translate(203.42000000000002,0)" d="M0,100v320" style="stroke: rgb(255, 255, 255); stroke-opacity: 1; stroke-width: 1px;"/><path class="xgrid crisp" transform="translate(305.99,0)" d="M0,100v320" style="stroke: rgb(255, 255, 255); stroke-opacity: 1; stroke-width: 1px;"/><path class="xgrid crisp" transform="translate(408.71,0)" d="M0,100v320" style="stroke: rgb(255, 255, 255); stroke-opacity: 1; stroke-width: 1px;"/><path class="xgrid crisp" transform="translate(511.29,0)" d="M0,100v320" style="stroke: rgb(255, 255, 255); stroke-opacity: 1; stroke-width: 1px;"/><path class="xgrid crisp" transform="translate(614,0)" d="M0,100v320" style="stroke: rgb(255, 255, 255); stroke-opacity: 1; stroke-width: 1px;"/></g><g class="y"><path class="ygrid crisp" transform="translate(0,337.3)" d="M80,0h540" style="stroke: rgb(255, 255, 255); stroke-opacity: 1; stroke-width: 1px;"/><path class="ygrid crisp" transform="translate(0,254.6)" d="M80,0h540" style="stroke: rgb(255, 255, 255); stroke-opacity: 1; stroke-width: 1px;"/><path class="ygrid crisp" transform="translate(0,171.9)" d="M80,0h540" style="stroke: rgb(255, 255, 255); stroke-opacity: 1; stroke-width: 1px;"/></g></g><g class="zerolinelayer"><path class="yzl zl crisp" transform="translate(0,420)" d="M80,0h540" style="stroke: rgb(255, 255, 255); stroke-opacity: 1; stroke-width: 2px;"/></g><g class="layer-between"><g class="shapelayer"/><g class="imagelayer"/></g><path class="xlines-below"/><path class="ylines-below"/><g class="overlines-below"/><g class="xaxislayer-below"/><g class="yaxislayer-below"/><g class="overaxes-below"/><g class="overplot"><g class="xy" transform="translate(80,100)" clip-path="url(#clip60784fxyplot)"><g class="scatterlayer mlayer"><g class="trace scatter trace6aba2b" style="stroke-miterlimit: 2;"><g class="fills"><g><path class="js-fill" d="M540,320L0,320L0,319.83L0,319.5L1.93,319.34L3.77,318.35L4.47,318.18L5.06,317.02L5.44,316.86L6.03,315.87L6.33,315.7L8.42,312.23L8.82,312.06L9.95,311.07L9.95,310.9L10.82,310.08L11.49,309.91L12.49,307.76L12.49,307.6L12.76,306.93L13.25,306.77L13.91,305.28L14.43,305.11L15.58,304.62L16.79,304.45L18.24,303.29L18.38,303.13L23.6,302.14L24.44,301.97L25.57,301.48L26.12,301.31L27.25,299.99L29.09,299.82L33.52,297.67L33.82,297.51L42.26,289.57L42.33,289.4L43.38,288.91L44.65,288.74L46.92,286.59L46.93,286.42L52.13,283.94L52.78,283.78L53.81,282.79L54.94,282.62L59.03,279.48L60.6,279.31L63.84,276.34L63.93,276.17L64.05,275.84L64.81,275.67L67.36,274.35L67.4,274.18L67.71,273.85L68.45,273.69L69.59,273.36L70.54,273.19L70.83,272.37L71.36,272.2L71.75,271.87L72.51,271.7L72.51,271.54L73.27,271.37L79.78,268.4L79.79,268.23L81.63,267.07L81.64,266.91L81.8,266.41L82.94,266.25L85.41,264.43L85.46,264.26L95.96,259.8L95.99,259.63L100.04,257.48L100.16,257.31L100.89,254.83L101.18,254.67L106.05,251.86L106.91,251.69L109.24,249.87L109.7,249.71L113.2,248.88L113.81,248.71L117.18,247.23L118.16,247.06L120,245.9L120.04,245.74L124.81,243.42L124.91,243.26L125.81,242.76L126.21,242.59L131.94,238.79L131.95,238.62L138.65,235.48L138.78,235.32L139.23,234.66L139.79,234.49L147.85,230.52L149.08,230.35L149.12,230.19L150.2,230.02L151.31,228.7L152.19,228.54L152.96,228.04L153.99,227.87L157.44,226.72L157.91,226.55L160.16,224.73L160.89,224.57L173.67,219.44L175.61,219.27L178.02,217.95L178.61,217.78L179.85,217.12L180.85,216.96L183.62,215.3L183.63,215.14L187.74,212.82L187.81,212.66L190.22,211L190.48,210.84L192.95,209.18L193.51,209.02L200.51,207.36L200.75,207.2L204.3,206.04L204.33,205.88L206.54,204.88L208.29,204.72L209.5,204.39L210.33,204.22L213.99,202.73L214.27,202.57L220.1,198.6L220.14,198.43L221.42,197.44L221.44,197.28L223.76,195.79L223.8,195.62L223.92,195.29L224.95,195.13L227.21,194.13L227.34,193.97L227.93,193.64L230.02,193.47L235.66,191.82L235.74,191.65L236.62,191.16L236.93,190.99L238.6,190L238.69,189.83L239.4,189.17L240.56,189.01L242.22,187.85L242.79,187.68L243.51,186.86L243.93,186.69L244.62,185.86L244.72,185.7L245.59,185.04L245.85,184.87L246.72,184.04L246.74,183.88L249.65,182.22L249.79,182.06L250.81,181.07L251.23,180.9L254.45,179.25L254.45,179.08L270.17,169.32L271.32,169.16L272.66,168.5L274.11,168.33L274.4,167.83L277.91,167.67L284.27,166.18L284.27,166.02L287.73,164.36L287.95,164.2L291.16,162.54L291.68,162.38L291.96,161.88L292.69,161.71L295.2,160.89L295.64,160.72L302.68,155.76L302.79,155.6L303.59,154.44L303.92,154.27L306.84,152.45L307.66,152.29L310.62,150.14L311.94,149.97L313.46,148.65L313.61,148.48L317.54,146.83L318.65,146.66L319.42,146.33L320.23,146.17L320.37,145.84L321.47,145.67L322.22,144.84L322.59,144.68L331.18,142.69L331.47,142.53L334.27,141.37L334.3,141.21L335.61,139.88L335.96,139.72L342.26,137.4L342.31,137.24L346.68,135.91L346.76,135.75L348.71,134.26L349.21,134.09L354.21,131.78L354.61,131.61L356.29,131.12L356.76,130.95L362.58,129.13L362.94,128.97L364.21,128.3L364.47,128.14L366.42,126.98L367.52,126.82L368.52,126.15L368.9,125.99L371.25,124.83L371.25,124.67L371.25,124.34L372.5,124.17L373.52,123.67L375.33,123.51L375.77,123.01L376.58,122.85L376.59,122.68L377.7,122.52L377.85,122.35L379.38,122.18L384.46,120.03L384.72,119.87L385.4,119.04L385.54,118.88L386.29,118.22L386.6,118.05L390.38,116.56L390.4,116.4L391.33,115.9L391.61,115.73L392.2,115.07L393.62,114.91L394.38,114.08L395.2,113.92L402.15,111.27L402.85,111.1L407.09,109.12L407.11,108.95L407.88,108.46L409.02,108.29L410.21,107.63L411,107.46L416.17,103.16L416.17,103L418,101.68L418,101.51L418.71,99.86L418.97,99.69L423.87,95.89L424.44,95.72L426.03,94.07L426.47,93.9L428,92.74L428.48,92.58L429.52,91.75L429.69,91.59L430.7,91.26L432.48,91.09L436.69,88.61L436.71,88.44L437.55,86.79L437.58,86.62L440.64,80.84L441.19,80.67L441.51,80.01L442.36,79.84L443.71,78.35L444.31,78.19L445.12,77.53L445.28,77.36L447.62,75.71L448.14,75.54L449.53,72.73L450.02,72.57L451.92,70.58L452.56,70.42L453.4,69.26L453.59,69.09L455.25,67.93L455.25,67.77L456.07,66.78L456.4,66.61L459.08,64.46L459.79,64.3L463.87,60.99L463.92,60.82L464.36,60L464.98,59.83L467.06,57.02L467.35,56.85L468.28,54.87L468.91,54.7L470.69,52.88L471.29,52.72L473.11,51.23L473.22,51.06L474.34,50.07L474.62,49.91L476.19,49.41L476.61,49.24L477.87,47.09L478.63,46.93L480.95,45.28L482.61,45.11L482.66,44.94L483.49,44.78L487.4,42.63L487.48,42.46L491.47,40.15L491.51,39.98L492.77,39.49L493.92,39.32L494.94,38.33L495.27,38.16L496.31,37.17L496.45,37.01L497.27,36.67L497.87,36.51L504.32,33.37L504.62,33.2L505.39,32.54L507.22,32.37L510.34,29.4L511.27,29.23L511.4,28.9L512.41,28.74L516.35,26.92L516.52,26.75L518.54,25.43L519.03,25.26L519.5,24.93L520.3,24.77L520.35,24.6L521.83,24.44L523.38,23.61L524.29,23.44L524.38,23.11L525.22,22.95L525.87,22.62L527.35,22.45L529.7,21.29L530.05,21.13L532.26,18.15L532.66,17.98L536.86,17.16L536.91,16.99L537.07,16.83L538.89,16.66L538.91,16.5L539.85,16.33L540,16" style="fill: rgb(255, 127, 14); fill-opacity: 0.5; stroke-width: 0;"/></g></g><g class="errorbars"/><g class="lines"><path class="js-line" d="M0,319.83L0,319.5L1.93,319.34L3.77,318.35L4.47,318.18L5.06,317.02L5.44,316.86L6.03,315.87L6.33,315.7L8.42,312.23L8.82,312.06L9.95,311.07L9.95,310.9L10.82,310.08L11.49,309.91L12.49,307.76L12.49,307.6L12.76,306.93L13.25,306.77L13.91,305.28L14.43,305.11L15.58,304.62L16.79,304.45L18.24,303.29L18.38,303.13L23.6,302.14L24.44,301.97L25.57,301.48L26.12,301.31L27.25,299.99L29.09,299.82L33.52,297.67L33.82,297.51L42.26,289.57L42.33,289.4L43.38,288.91L44.65,288.74L46.92,286.59L46.93,286.42L52.13,283.94L52.78,283.78L53.81,282.79L54.94,282.62L59.03,279.48L60.6,279.31L63.84,276.34L63.93,276.17L64.05,275.84L64.81,275.67L67.36,274.35L67.4,274.18L67.71,273.85L68.45,273.69L69.59,273.36L70.54,273.19L70.83,272.37L71.36,272.2L71.75,271.87L72.51,271.7L72.51,271.54L73.27,271.37L79.78,268.4L79.79,268.23L81.63,267.07L81.64,266.91L81.8,266.41L82.94,266.25L85.41,264.43L85.46,264.26L95.96,259.8L95.99,259.63L100.04,257.48L100.16,257.31L100.89,254.83L101.18,254.67L106.05,251.86L106.91,251.69L109.24,249.87L109.7,249.71L113.2,248.88L113.81,248.71L117.18,247.23L118.16,247.06L120,245.9L120.04,245.74L124.81,243.42L124.91,243.26L125.81,242.76L126.21,242.59L131.94,238.79L131.95,238.62L138.65,235.48L138.78,235.32L139.23,234.66L139.79,234.49L147.85,230.52L149.08,230.35L149.12,230.19L150.2,230.02L151.31,228.7L152.19,228.54L152.96,228.04L153.99,227.87L157.44,226.72L157.91,226.55L160.16,224.73L160.89,224.57L173.67,219.44L175.61,219.27L178.02,217.95L178.61,217.78L179.85,217.12L180.85,216.96L183.62,215.3L183.63,215.14L187.74,212.82L187.81,212.66L190.22,211L190.48,210.84L192.95,209.18L193.51,209.02L200.51,207.36L200.75,207.2L204.3,206.04L204.33,205.88L206.54,204.88L208.29,204.72L209.5,204.39L210.33,204.22L213.99,202.73L214.27,202.57L220.1,198.6L220.14,198.43L221.42,197.44L221.44,197.28L223.76,195.79L223.8,195.62L223.92,195.29L224.95,195.13L227.21,194.13L227.34,193.97L227.93,193.64L230.02,193.47L235.66,191.82L235.74,191.65L236.62,191.16L236.93,190.99L238.6,190L238.69,189.83L239.4,189.17L240.56,189.01L242.22,187.85L242.79,187.68L243.51,186.86L243.93,186.69L244.62,185.86L244.72,185.7L245.59,185.04L245.85,184.87L246.72,184.04L246.74,183.88L249.65,182.22L249.79,182.06L250.81,181.07L251.23,180.9L254.45,179.25L254.45,179.08L270.17,169.32L271.32,169.16L272.66,168.5L274.11,168.33L274.4,167.83L277.91,167.67L284.27,166.18L284.27,166.02L287.73,164.36L287.95,164.2L291.16,162.54L291.68,162.38L291.96,161.88L292.69,161.71L295.2,160.89L295.64,160.72L302.68,155.76L302.79,155.6L303.59,154.44L303.92,154.27L306.84,152.45L307.66,152.29L310.62,150.14L311.94,149.97L313.46,148.65L313.61,148.48L317.54,146.83L318.65,146.66L319.42,146.33L320.23,146.17L320.37,145.84L321.47,145.67L322.22,144.84L322.59,144.68L331.18,142.69L331.47,142.53L334.27,141.37L334.3,141.21L335.61,139.88L335.96,139.72L342.26,137.4L342.31,137.24L346.68,135.91L346.76,135.75L348.71,134.26L349.21,134.09L354.21,131.78L354.61,131.61L356.29,131.12L356.76,130.95L362.58,129.13L362.94,128.97L364.21,128.3L364.47,128.14L366.42,126.98L367.52,126.82L368.52,126.15L368.9,125.99L371.25,124.83L371.25,124.67L371.25,124.34L372.5,124.17L373.52,123.67L375.33,123.51L375.77,123.01L376.58,122.85L376.59,122.68L377.7,122.52L377.85,122.35L379.38,122.18L384.46,120.03L384.72,119.87L385.4,119.04L385.54,118.88L386.29,118.22L386.6,118.05L390.38,116.56L390.4,116.4L391.33,115.9L391.61,115.73L392.2,115.07L393.62,114.91L394.38,114.08L395.2,113.92L402.15,111.27L402.85,111.1L407.09,109.12L407.11,108.95L407.88,108.46L409.02,108.29L410.21,107.63L411,107.46L416.17,103.16L416.17,103L418,101.68L418,101.51L418.71,99.86L418.97,99.69L423.87,95.89L424.44,95.72L426.03,94.07L426.47,93.9L428,92.74L428.48,92.58L429.52,91.75L429.69,91.59L430.7,91.26L432.48,91.09L436.69,88.61L436.71,88.44L437.55,86.79L437.58,86.62L440.64,80.84L441.19,80.67L441.51,80.01L442.36,79.84L443.71,78.35L444.31,78.19L445.12,77.53L445.28,77.36L447.62,75.71L448.14,75.54L449.53,72.73L450.02,72.57L451.92,70.58L452.56,70.42L453.4,69.26L453.59,69.09L455.25,67.93L455.25,67.77L456.07,66.78L456.4,66.61L459.08,64.46L459.79,64.3L463.87,60.99L463.92,60.82L464.36,60L464.98,59.83L467.06,57.02L467.35,56.85L468.28,54.87L468.91,54.7L470.69,52.88L471.29,52.72L473.11,51.23L473.22,51.06L474.34,50.07L474.62,49.91L476.19,49.41L476.61,49.24L477.87,47.09L478.63,46.93L480.95,45.28L482.61,45.11L482.66,44.94L483.49,44.78L487.4,42.63L487.48,42.46L491.47,40.15L491.51,39.98L492.77,39.49L493.92,39.32L494.94,38.33L495.27,38.16L496.31,37.17L496.45,37.01L497.27,36.67L497.87,36.51L504.32,33.37L504.62,33.2L505.39,32.54L507.22,32.37L510.34,29.4L511.27,29.23L511.4,28.9L512.41,28.74L516.35,26.92L516.52,26.75L518.54,25.43L519.03,25.26L519.5,24.93L520.3,24.77L520.35,24.6L521.83,24.44L523.38,23.61L524.29,23.44L524.38,23.11L525.22,22.95L525.87,22.62L527.35,22.45L529.7,21.29L530.05,21.13L532.26,18.15L532.66,17.98L536.86,17.16L536.91,16.99L537.07,16.83L538.89,16.66L538.91,16.5L539.85,16.33L540,16" style="vector-effect: none; fill: none; stroke: rgb(255, 127, 14); stroke-opacity: 1; stroke-width: 2px; opacity: 1;"/></g><g class="points"/><g class="text"/></g></g></g></g><g class="zerolinelayer-above"/><path class="xlines-above crisp" d="M0,0" style="fill: none;"/><path class="ylines-above crisp" d="M0,0" style="fill: none;"/><g class="overlines-above"/><g class="xaxislayer-above"><g class="xtick"><text text-anchor="middle" x="0" y="439" transform="translate(100.7,0)" style="font-family: 'Open Sans'; font-size: 18px; fill: rgb(0, 0, 0); fill-opacity: 1; white-space: pre;">2016</text></g><g class="xtick"><text text-anchor="middle" x="0" y="439" style="font-family: 'Open Sans'; font-size: 18px; fill: rgb(0, 0, 0); fill-opacity: 1; white-space: pre;" transform="translate(203.42000000000002,0)">2018</text></g><g class="xtick"><text text-anchor="middle" x="0" y="439" style="font-family: 'Open Sans'; font-size: 18px; fill: rgb(0, 0, 0); fill-opacity: 1; white-space: pre;" transform="translate(305.99,0)">2020</text></g><g class="xtick"><text text-anchor="middle" x="0" y="439" style="font-family: 'Open Sans'; font-size: 18px; fill: rgb(0, 0, 0); fill-opacity: 1; white-space: pre;" transform="translate(408.71,0)">2022</text></g><g class="xtick"><text text-anchor="middle" x="0" y="439" style="font-family: 'Open Sans'; font-size: 18px; fill: rgb(0, 0, 0); fill-opacity: 1; white-space: pre;" transform="translate(511.29,0)">2024</text></g><g class="xtick"><text text-anchor="middle" x="0" y="439" style="font-family: 'Open Sans'; font-size: 18px; fill: rgb(0, 0, 0); fill-opacity: 1; white-space: pre;" transform="translate(614,0)">2026</text></g></g><g class="yaxislayer-above"><g class="ytick"><text text-anchor="end" x="79" y="6.3" transform="translate(0,420)" style="font-family: 'Open Sans'; font-size: 18px; fill: rgb(0, 0, 0); fill-opacity: 1; white-space: pre;">0</text></g><g class="ytick"><text text-anchor="end" x="79" y="6.3" style="font-family: 'Open Sans'; font-size: 18px; fill: rgb(0, 0, 0); fill-opacity: 1; white-space: pre;" transform="translate(0,337.3)">500</text></g><g class="ytick"><text text-anchor="end" x="79" y="6.3" style="font-family: 'Open Sans'; font-size: 18px; fill: rgb(0, 0, 0); fill-opacity: 1; white-space: pre;" transform="translate(0,254.6)">1000</text></g><g class="ytick"><text text-anchor="end" x="79" y="6.3" style="font-family: 'Open Sans'; font-size: 18px; fill: rgb(0, 0, 0); fill-opacity: 1; white-space: pre;" transform="translate(0,171.9)">1500</text></g></g><g class="overaxes-above"/></g></g><g class="polarlayer"/><g class="smithlayer"/><g class="ternarylayer"/><g class="geolayer"/><g class="funnelarealayer"/><g class="pielayer"/><g class="iciclelayer"/><g class="treemaplayer"/><g class="sunburstlayer"/><g class="glimages"/><defs id="topdefs-60784f"><g class="clips"/></defs><g class="layer-above"><g class="imagelayer"/><g class="shapelayer"/></g><g class="infolayer"><g class="g-gtitle"><text class="gtitle" x="35" y="50" text-anchor="start" dy="0em" style="opacity: 1; font-family: 'Open Sans'; font-size: 25px; fill: rgb(0, 0, 0); fill-opacity: 1; white-space: pre;">MultiQC/MultiQC - Issues Created Over Time</text></g><g class="g-xtitle"><text class="xtitle" x="350" y="472.9" text-anchor="middle" style="opacity: 1; font-family: 'Open Sans'; font-size: 22px; fill: rgb(0, 0, 0); fill-opacity: 1; white-space: pre;">Date</text></g><g class="g-ytitle"><text class="ytitle" transform="rotate(-90,20.799999999999997,260)" x="20.799999999999997" y="260" text-anchor="middle" style="opacity: 1; font-family: 'Open Sans'; font-size: 22px; fill: rgb(0, 0, 0); fill-opacity: 1; white-space: pre;">Cumulative Issues Created</text></g></g></svg>