<svg class="main-svg" xmlns="http://www.w3.org/2000/svg" xmlns:xlink="http://www.w3.org/1999/xlink" width="700" height="500" style="" viewBox="0 0 700 500"><rect x="0" y="0" width="700" height="500" style="fill: rgb(0, 0, 0); fill-opacity: 0;"/><defs id="defs-129f93"><g class="clips"><clipPath id="clip129f93xyplot" class="plotclip"><rect width="540" height="320"/></clipPath><clipPath class="axesclip" id="clip129f93x"><rect x="80" y="0" width="540" height="500"/></clipPath><clipPath class="axesclip" id="clip129f93y"><rect x="0" y="100" width="700" height="320"/></clipPath><clipPath class="axesclip" id="clip129f93xy"><rect x="80" y="100" width="540" height="320"/></clipPath></g><g class="gradients"/><g class="patterns"/></defs><g class="bglayer"><rect class="bg" x="80" y="100" width="540" height="320" style="fill: rgb(0, 0, 0); fill-opacity: 0; stroke-width: 0;"/></g><g class="layer-below"><g class="imagelayer"/><g class="shapelayer"/></g><g class="cartesianlayer"><g class="subplot xy"><g class="layer-subplot"><g class="shapelayer"/><g class="imagelayer"/></g><g class="minor-gridlayer"><g class="x"/><g class="y"/></g><g class="gridlayer"><g class="x"><path class="xgrid crisp" transform="translate(101.38,0)" d="M0,100v320" style="stroke: rgb(255, 255, 255); stroke-opacity: 1; stroke-width: 1px;"/><path class="xgrid crisp" transform="translate(203.51,0)" d="M0,100v320" style="stroke: rgb(255, 255, 255); stroke-opacity: 1; stroke-width: 1px;"/><path class="xgrid crisp" transform="translate(305.5,0)" d="M0,100v320" style="stroke: rgb(255, 255, 255); stroke-opacity: 1; stroke-width: 1px;"/><path class="xgrid crisp" transform="translate(407.63,0)" d="M0,100v320" style="stroke: rgb(255, 255, 255); stroke-opacity: 1; stroke-width: 1px;"/><path class="xgrid crisp" transform="translate(509.62,0)" d="M0,100v320" style="stroke: rgb(255, 255, 255); stroke-opacity: 1; stroke-width: 1px;"/><path class="xgrid crisp" transform="translate(611.76,0)" d="M0,100v320" style="stroke: rgb(255, 255, 255); stroke-opacity: 1; stroke-width: 1px;"/></g><g class="y"><path class="ygrid crisp" transform="translate(0,353.90999999999997)" d="M80,0h540" style="stroke: rgb(255, 255, 255); stroke-opacity: 1; stroke-width: 1px;"/><path class="ygrid crisp" transform="translate(0,287.83000000000004)" d="M80,0h540" style="stroke: rgb(255, 255, 255); stroke-opacity: 1; stroke-width: 1px;"/><path class="ygrid crisp" transform="translate(0,221.74)" d="M80,0h540" style="stroke: rgb(255, 255, 255); stroke-opacity: 1; stroke-width: 1px;"/><path class="ygrid crisp" transform="translate(0,155.65)" d="M80,0h540" style="stroke: rgb(255, 255, 255); stroke-opacity: 1; stroke-width: 1px;"/></g></g><g class="zerolinelayer"><path class="yzl zl crisp" transform="translate(0,420)" d="M80,0h540" style="stroke: rgb(255, 255, 255); stroke-opacity: 1; stroke-width: 2px;"/></g><g class="layer-between"><g class="shapelayer"/><g class="imagelayer"/></g><path class="xlines-below"/><path class="ylines-below"/><g class="overlines-below"/><g class="xaxislayer-below"/><g class="yaxislayer-below"/><g class="overaxes-below"/><g class="overplot"><g class="xy" transform="translate(80,100)" clip-path="url(#clip129f93xyplot)"><g class="scatterlayer mlayer"><g class="trace scatter trace66aa12" style="stroke-miterlimit: 2;"><g class="fills"><g><path class="js-fill" d="M540,320L0,320L0,286.96L4.33,49.04L8.52,174.61L12.85,154.78L17.05,260.52L21.38,267.13L25.71,240.7L29.76,240.7L34.09,174.61L38.28,168L42.61,194.43L46.8,207.65L51.14,247.3L55.47,194.43L59.66,207.65L63.99,207.65L68.18,240.7L72.51,253.91L76.84,234.09L80.76,194.43L85.09,234.09L89.28,253.91L93.61,234.09L97.8,134.96L102.13,220.87L106.46,227.48L110.65,273.74L114.99,247.3L119.18,240.7L123.51,201.04L127.84,227.48L131.75,240.7L136.08,201.04L140.27,214.26L144.61,273.74L148.8,220.87L153.13,267.13L157.46,227.48L161.65,247.3L170.17,260.52L174.5,240.7L178.84,280.35L182.75,201.04L187.08,201.04L191.27,247.3L195.6,293.57L199.79,234.09L204.12,267.13L208.46,260.52L212.65,227.48L216.98,181.22L221.17,234.09L225.5,253.91L229.83,273.74L233.88,207.65L238.21,227.48L242.41,181.22L246.74,207.65L250.93,201.04L255.26,227.48L259.59,207.65L263.78,207.65L268.11,260.52L272.31,293.57L276.64,286.96L280.97,267.13L284.88,207.65L289.21,253.91L293.4,227.48L297.73,168L301.92,214.26L306.26,227.48L310.59,227.48L314.78,260.52L319.11,247.3L323.3,280.35L327.63,273.74L331.96,201.04L335.88,260.52L340.21,267.13L344.4,194.43L348.73,260.52L352.92,253.91L357.25,273.74L361.58,234.09L365.77,214.26L370.11,273.74L374.3,273.74L378.63,247.3L382.96,220.87L386.87,214.26L391.2,240.7L395.39,260.52L399.73,260.52L403.92,234.09L408.25,201.04L412.58,141.57L416.77,168L421.1,187.83L425.29,234.09L429.62,240.7L433.96,16L438.01,187.83L442.34,174.61L446.53,134.96L450.86,174.61L455.05,194.43L459.38,121.74L463.72,148.17L467.91,168L472.24,194.43L476.43,234.09L480.76,234.09L489,220.87L493.34,234.09L497.53,240.7L501.86,240.7L506.05,194.43L510.38,240.7L514.71,234.09L518.9,247.3L523.23,267.13L527.43,181.22L531.76,273.74L536.09,260.52L540,306.78" style="fill: rgb(255, 127, 14); fill-opacity: 0.5; stroke-width: 0;"/></g></g><g class="errorbars"/><g class="lines"><path class="js-line" d="M0,286.96L4.33,49.04L8.52,174.61L12.85,154.78L17.05,260.52L21.38,267.13L25.71,240.7L29.76,240.7L34.09,174.61L38.28,168L42.61,194.43L46.8,207.65L51.14,247.3L55.47,194.43L59.66,207.65L63.99,207.65L68.18,240.7L72.51,253.91L76.84,234.09L80.76,194.43L85.09,234.09L89.28,253.91L93.61,234.09L97.8,134.96L102.13,220.87L106.46,227.48L110.65,273.74L114.99,247.3L119.18,240.7L123.51,201.04L127.84,227.48L131.75,240.7L136.08,201.04L140.27,214.26L144.61,273.74L148.8,220.87L153.13,267.13L157.46,227.48L161.65,247.3L170.17,260.52L174.5,240.7L178.84,280.35L182.75,201.04L187.08,201.04L191.27,247.3L195.6,293.57L199.79,234.09L204.12,267.13L208.46,260.52L212.65,227.48L216.98,181.22L221.17,234.09L225.5,253.91L229.83,273.74L233.88,207.65L238.21,227.48L242.41,181.22L246.74,207.65L250.93,201.04L255.26,227.48L259.59,207.65L263.78,207.65L268.11,260.52L272.31,293.57L276.64,286.96L280.97,267.13L284.88,207.65L289.21,253.91L293.4,227.48L297.73,168L301.92,214.26L306.26,227.48L310.59,227.48L314.78,260.52L319.11,247.3L323.3,280.35L327.63,273.74L331.96,201.04L335.88,260.52L340.21,267.13L344.4,194.43L348.73,260.52L352.92,253.91L357.25,273.74L361.58,234.09L365.77,214.26L370.11,273.74L374.3,273.74L378.63,247.3L382.96,220.87L386.87,214.26L391.2,240.7L395.39,260.52L399.73,260.52L403.92,234.09L408.25,201.04L412.58,141.57L416.77,168L421.1,187.83L425.29,234.09L429.62,240.7L433.96,16L438.01,187.83L442.34,174.61L446.53,134.96L450.86,174.61L455.05,194.43L459.38,121.74L463.72,148.17L467.91,168L472.24,194.43L476.43,234.09L480.76,234.09L489,220.87L493.34,234.09L497.53,240.7L501.86,240.7L506.05,194.43L510.38,240.7L514.71,234.09L518.9,247.3L523.23,267.13L527.43,181.22L531.76,273.74L536.09,260.52L540,306.78" style="vector-effect: none; fill: none; stroke: rgb(255, 127, 14); stroke-opacity: 1; stroke-width: 2px; opacity: 1;"/></g><g class="points"/><g class="text"/></g></g></g></g><g class="zerolinelayer-above"/><path class="xlines-above crisp" d="M0,0" style="fill: none;"/><path class="ylines-above crisp" d="M0,0" style="fill: none;"/><g class="overlines-above"/><g class="xaxislayer-above"><g class="xtick"><text text-anchor="middle" x="0" y="439" transform="translate(101.38,0)" style="font-family: 'Open Sans'; font-size: 18px; fill: rgb(255, 255, 255); fill-opacity: 1; white-space: pre;">2016</text></g><g class="xtick"><text text-anchor="middle" x="0" y="439" style="font-family: 'Open Sans'; font-size: 18px; fill: rgb(255, 255, 255); fill-opacity: 1; white-space: pre;" transform="translate(203.51,0)">2018</text></g><g class="xtick"><text text-anchor="middle" x="0" y="439" style="font-family: 'Open Sans'; font-size: 18px; fill: rgb(255, 255, 255); fill-opacity: 1; white-space: pre;" transform="translate(305.5,0)">2020</text></g><g class="xtick"><text text-anchor="middle" x="0" y="439" style="font-family: 'Open Sans'; font-size: 18px; fill: rgb(255, 255, 255); fill-opacity: 1; white-space: pre;" transform="translate(407.63,0)">2022</text></g><g class="xtick"><text text-anchor="middle" x="0" y="439" style="font-family: 'Open Sans'; font-size: 18px; fill: rgb(255, 255, 255); fill-opacity: 1; white-space: pre;" transform="translate(509.62,0)">2024</text></g><g class="xtick"><text text-anchor="middle" x="0" y="439" style="font-family: 'Open Sans'; font-size: 18px; fill: rgb(255, 255, 255); fill-opacity: 1; white-space: pre;" transform="translate(611.76,0)">2026</text></g></g><g class="yaxislayer-above"><g class="ytick"><text text-anchor="end" x="79" y="6.3" transform="translate(0,420)" style="font-family: 'Open Sans'; font-size: 18px; fill: rgb(255, 255, 255); fill-opacity: 1; white-space: pre;">0</text></g><g class="ytick"><text text-anchor="end" x="79" y="6.3" style="font-family: 'Open Sans'; font-size: 18px; fill: rgb(255, 255, 255); fill-opacity: 1; white-space: pre;" transform="translate(0,353.90999999999997)">10</text></g><g class="ytick"><text text-anchor="end" x="79" y="6.3" style="font-family: 'Open Sans'; font-size: 18px; fill: rgb(255, 255, 255); fill-opacity: 1; white-space: pre;" transform="translate(0,287.83000000000004)">20</text></g><g class="ytick"><text text-anchor="end" x="79" y="6.3" style="font-family: 'Open Sans'; font-size: 18px; fill: rgb(255, 255, 255); fill-opacity: 1; white-space: pre;" transform="translate(0,221.74)">30</text></g><g class="ytick"><text text-anchor="end" x="79" y="6.3" style="font-family: 'Open Sans'; font-size: 18px; fill: rgb(255, 255, 255); fill-opacity: 1; white-space: pre;" transform="translate(0,155.65)">40</text></g></g><g class="overaxes-above"/></g></g><g class="polarlayer"/><g class="smithlayer"/><g class="ternarylayer"/><g class="geolayer"/><g class="funnelarealayer"/><g class="pielayer"/><g class="iciclelayer"/><g class="treemaplayer"/><g class="sunburstlayer"/><g class="glimages"/><defs id="topdefs-129f93"><g class="clips"/></defs><g class="layer-above"><g class="imagelayer"/><g class="shapelayer"/></g><g class="infolayer"><g class="g-gtitle"><text class="gtitle" x="35" y="50" text-anchor="start" dy="0em" style="opacity: 1; font-family: 'Open Sans'; font-size: 25px; fill: rgb(255, 255, 255); fill-opacity: 1; white-space: pre;">MultiQC/MultiQC - New Issues Per Month</text></g><g class="g-xtitle"><text class="xtitle" x="350" y="472.9" text-anchor="middle" style="opacity: 1; font-family: 'Open Sans'; font-size: 22px; fill: rgb(255, 255, 255); fill-opacity: 1; white-space: pre;">Month</text></g><g class="g-ytitle"><text class="ytitle" transform="rotate(-90,38.8,260)" x="38.8" y="260" text-anchor="middle" style="opacity: 1; font-family: 'Open Sans'; font-size: 22px; fill: rgb(255, 255, 255); fill-opacity: 1; white-space: pre;">New Issues Created</text></g></g></svg>