<svg class="main-svg" xmlns="http://www.w3.org/2000/svg" xmlns:xlink="http://www.w3.org/1999/xlink" width="700" height="500" style="" viewBox="0 0 700 500"><rect x="0" y="0" width="700" height="500" style="fill: rgb(0, 0, 0); fill-opacity: 0;"/><defs id="defs-4a59cc"><g class="clips"><clipPath id="clip4a59ccxyplot" class="plotclip"><rect width="540" height="320"/></clipPath><clipPath class="axesclip" id="clip4a59ccx"><rect x="80" y="0" width="540" height="500"/></clipPath><clipPath class="axesclip" id="clip4a59ccy"><rect x="0" y="100" width="700" height="320"/></clipPath><clipPath class="axesclip" id="clip4a59ccxy"><rect x="80" y="100" width="540" height="320"/></clipPath></g><g class="gradients"/><g class="patterns"/></defs><g class="bglayer"><rect class="bg" x="80" y="100" width="540" height="320" style="fill: rgb(0, 0, 0); fill-opacity: 0; stroke-width: 0;"/></g><g class="layer-below"><g class="imagelayer"/><g class="shapelayer"/></g><g class="cartesianlayer"><g class="subplot xy"><g class="layer-subplot"><g class="shapelayer"/><g class="imagelayer"/></g><g class="minor-gridlayer"><g class="x"/><g class="y"/></g><g class="gridlayer"><g class="x"><path class="xgrid crisp" transform="translate(100.2,0)" d="M0,100v320" style="stroke: rgb(255, 255, 255); stroke-opacity: 1; stroke-width: 1px;"/><path class="xgrid crisp" transform="translate(200.41,0)" d="M0,100v320" style="stroke: rgb(255, 255, 255); stroke-opacity: 1; stroke-width: 1px;"/><path class="xgrid crisp" transform="translate(300.49,0)" d="M0,100v320" style="stroke: rgb(255, 255, 255); stroke-opacity: 1; stroke-width: 1px;"/><path class="xgrid crisp" transform="translate(400.71,0)" d="M0,100v320" style="stroke: rgb(255, 255, 255); stroke-opacity: 1; stroke-width: 1px;"/><path class="xgrid crisp" transform="translate(500.79,0)" d="M0,100v320" style="stroke: rgb(255, 255, 255); stroke-opacity: 1; stroke-width: 1px;"/><path class="xgrid crisp" transform="translate(601.01,0)" d="M0,100v320" style="stroke: rgb(255, 255, 255); stroke-opacity: 1; stroke-width: 1px;"/></g><g class="y"><path class="ygrid crisp" transform="translate(0,338.53999999999996)" d="M80,0h540" style="stroke: rgb(255, 255, 255); stroke-opacity: 1; stroke-width: 1px;"/><path class="ygrid crisp" transform="translate(0,257.08000000000004)" d="M80,0h540" style="stroke: rgb(255, 255, 255); stroke-opacity: 1; stroke-width: 1px;"/><path class="ygrid crisp" transform="translate(0,175.63)" d="M80,0h540" style="stroke: rgb(255, 255, 255); stroke-opacity: 1; stroke-width: 1px;"/></g></g><g class="zerolinelayer"><path class="yzl zl crisp" transform="translate(0,420)" d="M80,0h540" style="stroke: rgb(255, 255, 255); stroke-opacity: 1; stroke-width: 2px;"/></g><g class="layer-between"><g class="shapelayer"/><g class="imagelayer"/></g><path class="xlines-below"/><path class="ylines-below"/><g class="overlines-below"/><g class="xaxislayer-below"/><g class="yaxislayer-below"/><g class="overaxes-below"/><g class="overplot"><g class="xy" transform="translate(80,100)" clip-path="url(#clip4a59ccxyplot)"><g class="scatterlayer mlayer"><g class="trace scatter trace780c57" style="stroke-miterlimit: 2;"><g class="fills"><g><path class="js-fill" d="M540,320L0,320L0,319.84L0,319.51L1.89,319.35L3.68,318.37L4.36,318.21L4.94,317.07L5.31,316.9L5.88,315.93L6.18,315.76L8.22,312.34L8.6,312.18L9.71,311.2L9.71,311.04L10.56,310.23L11.21,310.06L12.19,307.94L12.19,307.78L12.92,306.8L13.15,306.64L13.57,305.5L14.08,305.34L15.2,304.85L16.38,304.69L17.79,303.55L17.93,303.38L23.03,302.41L23.84,302.24L24.95,301.75L25.49,301.59L26.59,300.29L28.39,300.12L32.41,298.17L32.71,298.01L36.2,295.4L36.21,295.24L36.49,294.59L37.11,294.42L39.2,292.3L39.21,292.14L39.87,291.49L40.15,291.33L42.32,289.37L43.57,289.21L45.78,287.09L45.79,286.93L50.87,284.48L51.5,284.32L52.5,283.34L53.6,283.18L59.12,279.92L59.36,279.76L60.18,278.95L60.29,278.78L62.23,277.15L62.28,276.99L63.23,276.34L63.88,276.18L63.98,275.85L64.84,275.69L67.9,274.06L68.82,273.89L69.62,272.75L70,272.59L75.69,270.64L75.79,270.47L77.85,269.01L78.45,268.84L78.78,268.03L79.64,267.87L79.81,267.22L80.92,267.05L83.33,265.26L83.38,265.1L97.46,258.91L97.55,258.74L98.72,255.65L98.96,255.49L105.27,252.23L105.27,252.06L106.58,250.92L107.03,250.76L112.15,249.13L112.93,248.97L114.33,248.32L115.29,248.15L117.08,247.01L117.11,246.85L121.58,244.73L121.77,244.57L122.75,243.92L123.14,243.76L131.56,238.87L132.19,238.71L135.84,236.1L135.84,235.94L138.95,234.31L139.09,234.14L142.07,232.84L142.71,232.68L142.71,232.51L143.61,232.35L145.49,231.54L146.55,231.37L147.63,230.07L148.49,229.91L149.24,229.42L150.24,229.26L154.06,227.95L154.21,227.79L154.99,227.14L155.15,226.98L166.95,221.76L166.99,221.6L167.05,221.44L168.79,221.27L174.38,219.16L174.47,218.99L178.86,217.36L179.02,217.2L179.58,216.55L180.13,216.39L180.42,216.06L181.37,215.9L182.09,215.57L182.27,215.41L183.24,214.27L183.4,214.11L184.25,213.78L184.38,213.62L187.14,211.66L187.18,211.5L199.18,208.08L199.19,207.91L200.61,207.1L201.35,206.94L201.52,206.61L203.22,206.45L204.41,206.12L205.21,205.96L208.79,204.49L209.05,204.33L213.99,201.07L214.05,200.91L215.8,199.77L215.82,199.61L218.47,197.16L219.47,197L221.68,196.02L221.81,195.86L222.38,195.53L224.42,195.37L229.93,193.74L230,193.58L230.86,193.09L231.17,192.93L232.79,191.95L232.88,191.79L233.58,191.13L234.71,190.97L236.33,189.83L236.88,189.67L237.58,188.85L237.99,188.69L238.67,187.88L238.76,187.71L239.62,187.06L239.87,186.9L240.72,186.08L240.73,185.92L243.58,184.29L243.71,184.13L244.7,183.15L245.11,182.99L248.26,181.36L248.26,181.2L259.15,174.35L260,174.19L261.06,173.21L261.58,173.05L262.14,172.24L262.51,172.07L267.72,170.12L271.14,169.95L277.35,168.49L277.36,168.33L280.72,166.7L280.94,166.53L284.86,164.25L285.57,164.09L288.02,163.28L288.44,163.11L295.32,158.23L295.42,158.06L296.2,156.92L296.53,156.76L299.38,154.97L300.17,154.8L303.06,152.69L304.35,152.52L305.83,151.22L305.98,151.06L309.82,149.43L310.89,149.26L311.65,148.94L312.44,148.78L312.57,148.45L313.65,148.29L314.38,147.47L314.74,147.31L323.12,145.35L323.41,145.19L326.14,144.05L326.16,143.89L327.38,142.75L327.45,142.59L330.11,141.93L330.84,141.77L333.98,139.98L335.06,139.82L336.68,139.33L337.53,139.16L340.99,136.72L341.36,136.56L341.47,136.07L342.73,135.91L355.26,131.34L355.35,131.18L359.56,129.06L359.93,128.9L362.21,127.76L362.21,127.6L362.21,127.27L363.43,127.11L364.43,126.62L366.2,126.46L366.62,125.97L367.41,125.8L367.42,125.64L368.51,125.48L368.65,125.32L370.15,125.15L375.1,123.04L375.36,122.87L376.18,121.73L376.31,121.57L377.19,121.08L377.97,120.92L379.92,120.1L380.6,119.94L382.66,118.15L384.04,117.98L384.79,117.17L385.58,117.01L392.37,114.4L393.05,114.24L397.18,112.28L397.2,112.12L397.96,111.63L399.06,111.47L400.22,110.82L401,110.65L407,105.6L407.02,105.44L407.83,104.46L407.83,104.3L408.52,103.16L408.78,103L412.46,99.9L413.11,99.74L420.22,94.69L421.96,94.53L426.06,92.08L426.09,91.92L426.75,90.45L426.9,90.29L428.14,87.03L428.43,86.87L429.92,84.42L430.46,84.26L430.77,83.61L431.6,83.45L432.91,81.98L433.5,81.82L434.29,81.17L434.45,81L436.73,79.37L437.24,79.21L438.59,76.44L439.07,76.28L440.92,74.32L441.54,74.16L442.55,72.86L443.09,72.69L444.35,71.23L444.46,71.07L446.23,69.44L446.24,69.27L447.91,68.3L448.6,68.13L452.48,65.04L452.59,64.87L453.06,63.9L453.67,63.73L455.69,60.96L455.98,60.8L456.78,59.01L456.89,58.85L458.47,57.71L458.49,57.54L463.08,53.96L463.28,53.8L463.38,53.63L464.61,53.47L465.24,52.49L465.41,52.33L465.85,51.52L466.22,51.35L466.98,51.03L467.16,50.86L468.44,49.89L468.44,49.72L476.94,46.14L477.09,45.98L479.01,44.67L479.32,44.51L480.78,43.7L481.9,43.53L482.9,42.56L483.22,42.39L484.23,41.41L484.37,41.25L485.16,40.93L485.75,40.76L492.02,37.83L492.05,37.67L493.09,36.85L494.88,36.69L497.92,33.76L498.83,33.59L498.95,33.27L499.94,33.11L503.79,31.31L503.95,31.15L506.4,29.68L506.43,29.52L517.36,25.29L517.4,25.12L518.87,23.82L518.88,23.66L519.31,22.68L519.7,22.52L523.84,21.54L524,21.38L527.23,20.4L527.53,20.24L527.87,19.91L529.7,19.75L534.09,18.28L534.37,18.12L537.08,16.98L538.96,16.81L540,16" style="fill: rgb(255, 127, 14); fill-opacity: 0.5; stroke-width: 0;"/></g></g><g class="errorbars"/><g class="lines"><path class="js-line" d="M0,319.84L0,319.51L1.89,319.35L3.68,318.37L4.36,318.21L4.94,317.07L5.31,316.9L5.88,315.93L6.18,315.76L8.22,312.34L8.6,312.18L9.71,311.2L9.71,311.04L10.56,310.23L11.21,310.06L12.19,307.94L12.19,307.78L12.92,306.8L13.15,306.64L13.57,305.5L14.08,305.34L15.2,304.85L16.38,304.69L17.79,303.55L17.93,303.38L23.03,302.41L23.84,302.24L24.95,301.75L25.49,301.59L26.59,300.29L28.39,300.12L32.41,298.17L32.71,298.01L36.2,295.4L36.21,295.24L36.49,294.59L37.11,294.42L39.2,292.3L39.21,292.14L39.87,291.49L40.15,291.33L42.32,289.37L43.57,289.21L45.78,287.09L45.79,286.93L50.87,284.48L51.5,284.32L52.5,283.34L53.6,283.18L59.12,279.92L59.36,279.76L60.18,278.95L60.29,278.78L62.23,277.15L62.28,276.99L63.23,276.34L63.88,276.18L63.98,275.85L64.84,275.69L67.9,274.06L68.82,273.89L69.62,272.75L70,272.59L75.69,270.64L75.79,270.47L77.85,269.01L78.45,268.84L78.78,268.03L79.64,267.87L79.81,267.22L80.92,267.05L83.33,265.26L83.38,265.1L97.46,258.91L97.55,258.74L98.72,255.65L98.96,255.49L105.27,252.23L105.27,252.06L106.58,250.92L107.03,250.76L112.15,249.13L112.93,248.97L114.33,248.32L115.29,248.15L117.08,247.01L117.11,246.85L121.58,244.73L121.77,244.57L122.75,243.92L123.14,243.76L131.56,238.87L132.19,238.71L135.84,236.1L135.84,235.94L138.95,234.31L139.09,234.14L142.07,232.84L142.71,232.68L142.71,232.51L143.61,232.35L145.49,231.54L146.55,231.37L147.63,230.07L148.49,229.91L149.24,229.42L150.24,229.26L154.06,227.95L154.21,227.79L154.99,227.14L155.15,226.98L166.95,221.76L166.99,221.6L167.05,221.44L168.79,221.27L174.38,219.16L174.47,218.99L178.86,217.36L179.02,217.2L179.58,216.55L180.13,216.39L180.42,216.06L181.37,215.9L182.09,215.57L182.27,215.41L183.24,214.27L183.4,214.11L184.25,213.78L184.38,213.62L187.14,211.66L187.18,211.5L199.18,208.08L199.19,207.91L200.61,207.1L201.35,206.94L201.52,206.61L203.22,206.45L204.41,206.12L205.21,205.96L208.79,204.49L209.05,204.33L213.99,201.07L214.05,200.91L215.8,199.77L215.82,199.61L218.47,197.16L219.47,197L221.68,196.02L221.81,195.86L222.38,195.53L224.42,195.37L229.93,193.74L230,193.58L230.86,193.09L231.17,192.93L232.79,191.95L232.88,191.79L233.58,191.13L234.71,190.97L236.33,189.83L236.88,189.67L237.58,188.85L237.99,188.69L238.67,187.88L238.76,187.71L239.62,187.06L239.87,186.9L240.72,186.08L240.73,185.92L243.58,184.29L243.71,184.13L244.7,183.15L245.11,182.99L248.26,181.36L248.26,181.2L259.15,174.35L260,174.19L261.06,173.21L261.58,173.05L262.14,172.24L262.51,172.07L267.72,170.12L271.14,169.95L277.35,168.49L277.36,168.33L280.72,166.7L280.94,166.53L284.86,164.25L285.57,164.09L288.02,163.28L288.44,163.11L295.32,158.23L295.42,158.06L296.2,156.92L296.53,156.76L299.38,154.97L300.17,154.8L303.06,152.69L304.35,152.52L305.83,151.22L305.98,151.06L309.82,149.43L310.89,149.26L311.65,148.94L312.44,148.78L312.57,148.45L313.65,148.29L314.38,147.47L314.74,147.31L323.12,145.35L323.41,145.19L326.14,144.05L326.16,143.89L327.38,142.75L327.45,142.59L330.11,141.93L330.84,141.77L333.98,139.98L335.06,139.82L336.68,139.33L337.53,139.16L340.99,136.72L341.36,136.56L341.47,136.07L342.73,135.91L355.26,131.34L355.35,131.18L359.56,129.06L359.93,128.9L362.21,127.76L362.21,127.6L362.21,127.27L363.43,127.11L364.43,126.62L366.2,126.46L366.62,125.97L367.41,125.8L367.42,125.64L368.51,125.48L368.65,125.32L370.15,125.15L375.1,123.04L375.36,122.87L376.18,121.73L376.31,121.57L377.19,121.08L377.97,120.92L379.92,120.1L380.6,119.94L382.66,118.15L384.04,117.98L384.79,117.17L385.58,117.01L392.37,114.4L393.05,114.24L397.18,112.28L397.2,112.12L397.96,111.63L399.06,111.47L400.22,110.82L401,110.65L407,105.6L407.02,105.44L407.83,104.46L407.83,104.3L408.52,103.16L408.78,103L412.46,99.9L413.11,99.74L420.22,94.69L421.96,94.53L426.06,92.08L426.09,91.92L426.75,90.45L426.9,90.29L428.14,87.03L428.43,86.87L429.92,84.42L430.46,84.26L430.77,83.61L431.6,83.45L432.91,81.98L433.5,81.82L434.29,81.17L434.45,81L436.73,79.37L437.24,79.21L438.59,76.44L439.07,76.28L440.92,74.32L441.54,74.16L442.55,72.86L443.09,72.69L444.35,71.23L444.46,71.07L446.23,69.44L446.24,69.27L447.91,68.3L448.6,68.13L452.48,65.04L452.59,64.87L453.06,63.9L453.67,63.73L455.69,60.96L455.98,60.8L456.78,59.01L456.89,58.85L458.47,57.71L458.49,57.54L463.08,53.96L463.28,53.8L463.38,53.63L464.61,53.47L465.24,52.49L465.41,52.33L465.85,51.52L466.22,51.35L466.98,51.03L467.16,50.86L468.44,49.89L468.44,49.72L476.94,46.14L477.09,45.98L479.01,44.67L479.32,44.51L480.78,43.7L481.9,43.53L482.9,42.56L483.22,42.39L484.23,41.41L484.37,41.25L485.16,40.93L485.75,40.76L492.02,37.83L492.05,37.67L493.09,36.85L494.88,36.69L497.92,33.76L498.83,33.59L498.95,33.27L499.94,33.11L503.79,31.31L503.95,31.15L506.4,29.68L506.43,29.52L517.36,25.29L517.4,25.12L518.87,23.82L518.88,23.66L519.31,22.68L519.7,22.52L523.84,21.54L524,21.38L527.23,20.4L527.53,20.24L527.87,19.91L529.7,19.75L534.09,18.28L534.37,18.12L537.08,16.98L538.96,16.81L540,16" style="vector-effect: none; fill: none; stroke: rgb(255, 127, 14); stroke-opacity: 1; stroke-width: 2px; opacity: 1;"/></g><g class="points"/><g class="text"/></g></g></g></g><g class="zerolinelayer-above"/><path class="xlines-above crisp" d="M0,0" style="fill: none;"/><path class="ylines-above crisp" d="M0,0" style="fill: none;"/><g class="overlines-above"/><g class="xaxislayer-above"><g class="xtick"><text text-anchor="middle" x="0" y="439" transform="translate(100.2,0)" style="font-family: 'Open Sans'; font-size: 18px; fill: rgb(0, 0, 0); fill-opacity: 1; white-space: pre;">2016</text></g><g class="xtick"><text text-anchor="middle" x="0" y="439" style="font-family: 'Open Sans'; font-size: 18px; fill: rgb(0, 0, 0); fill-opacity: 1; white-space: pre;" transform="translate(200.41,0)">2018</text></g><g class="xtick"><text text-anchor="middle" x="0" y="439" style="font-family: 'Open Sans'; font-size: 18px; fill: rgb(0, 0, 0); fill-opacity: 1; white-space: pre;" transform="translate(300.49,0)">2020</text></g><g class="xtick"><text text-anchor="middle" x="0" y="439" style="font-family: 'Open Sans'; font-size: 18px; fill: rgb(0, 0, 0); fill-opacity: 1; white-space: pre;" transform="translate(400.71,0)">2022</text></g><g class="xtick"><text text-anchor="middle" x="0" y="439" style="font-family: 'Open Sans'; font-size: 18px; fill: rgb(0, 0, 0); fill-opacity: 1; white-space: pre;" transform="translate(500.79,0)">2024</text></g><g class="xtick"><text text-anchor="middle" x="0" y="439" style="font-family: 'Open Sans'; font-size: 18px; fill: rgb(0, 0, 0); fill-opacity: 1; white-space: pre;" transform="translate(601.01,0)">2026</text></g></g><g class="yaxislayer-above"><g class="ytick"><text text-anchor="end" x="79" y="6.3" transform="translate(0,420)" style="font-family: 'Open Sans'; font-size: 18px; fill: rgb(0, 0, 0); fill-opacity: 1; white-space: pre;">0</text></g><g class="ytick"><text text-anchor="end" x="79" y="6.3" style="font-family: 'Open Sans'; font-size: 18px; fill: rgb(0, 0, 0); fill-opacity: 1; white-space: pre;" transform="translate(0,338.53999999999996)">500</text></g><g class="ytick"><text text-anchor="end" x="79" y="6.3" style="font-family: 'Open Sans'; font-size: 18px; fill: rgb(0, 0, 0); fill-opacity: 1; white-space: pre;" transform="translate(0,257.08000000000004)">1000</text></g><g class="ytick"><text text-anchor="end" x="79" y="6.3" style="font-family: 'Open Sans'; font-size: 18px; fill: rgb(0, 0, 0); fill-opacity: 1; white-space: pre;" transform="translate(0,175.63)">1500</text></g></g><g class="overaxes-above"/></g></g><g class="polarlayer"/><g class="smithlayer"/><g class="ternarylayer"/><g class="geolayer"/><g class="funnelarealayer"/><g class="pielayer"/><g class="iciclelayer"/><g class="treemaplayer"/><g class="sunburstlayer"/><g class="glimages"/><defs id="topdefs-4a59cc"><g class="clips"/></defs><g class="layer-above"><g class="imagelayer"/><g class="shapelayer"/></g><g class="infolayer"><g class="g-gtitle"><text class="gtitle" x="35" y="50" text-anchor="start" dy="0em" style="opacity: 1; font-family: 'Open Sans'; font-size: 25px; fill: rgb(0, 0, 0); fill-opacity: 1; white-space: pre;">MultiQC/MultiQC - Issues Created Over Time</text></g><g class="g-xtitle"><text class="xtitle" x="350" y="472.9" text-anchor="middle" style="opacity: 1; font-family: 'Open Sans'; font-size: 22px; fill: rgb(0, 0, 0); fill-opacity: 1; white-space: pre;">Date</text></g><g class="g-ytitle"><text class="ytitle" transform="rotate(-90,20.799999999999997,260)" x="20.799999999999997" y="260" text-anchor="middle" style="opacity: 1; font-family: 'Open Sans'; font-size: 22px; fill: rgb(0, 0, 0); fill-opacity: 1; white-space: pre;">Cumulative Issues Created</text></g></g></svg>