<svg class="main-svg" xmlns="http://www.w3.org/2000/svg" xmlns:xlink="http://www.w3.org/1999/xlink" width="700" height="500" style="" viewBox="0 0 700 500"><rect x="0" y="0" width="700" height="500" style="fill: rgb(0, 0, 0); fill-opacity: 0;"/><defs id="defs-a43d0f"><g class="clips"><clipPath id="clipa43d0fxyplot" class="plotclip"><rect width="540" height="320"/></clipPath><clipPath class="axesclip" id="clipa43d0fx"><rect x="80" y="0" width="540" height="500"/></clipPath><clipPath class="axesclip" id="clipa43d0fy"><rect x="0" y="100" width="700" height="320"/></clipPath><clipPath class="axesclip" id="clipa43d0fxy"><rect x="80" y="100" width="540" height="320"/></clipPath></g><g class="gradients"/><g class="patterns"/></defs><g class="bglayer"><rect class="bg" x="80" y="100" width="540" height="320" style="fill: rgb(0, 0, 0); fill-opacity: 0; stroke-width: 0;"/></g><g class="layer-below"><g class="imagelayer"/><g class="shapelayer"/></g><g class="cartesianlayer"><g class="subplot xy"><g class="layer-subplot"><g class="shapelayer"/><g class="imagelayer"/></g><g class="minor-gridlayer"><g class="x"/><g class="y"/></g><g class="gridlayer"><g class="x"><path class="xgrid crisp" transform="translate(100.59,0)" d="M0,100v320" style="stroke: rgb(255, 255, 255); stroke-opacity: 1; stroke-width: 1px;"/><path class="xgrid crisp" transform="translate(202.75,0)" d="M0,100v320" style="stroke: rgb(255, 255, 255); stroke-opacity: 1; stroke-width: 1px;"/><path class="xgrid crisp" transform="translate(304.78,0)" d="M0,100v320" style="stroke: rgb(255, 255, 255); stroke-opacity: 1; stroke-width: 1px;"/><path class="xgrid crisp" transform="translate(406.95,0)" d="M0,100v320" style="stroke: rgb(255, 255, 255); stroke-opacity: 1; stroke-width: 1px;"/><path class="xgrid crisp" transform="translate(508.97,0)" d="M0,100v320" style="stroke: rgb(255, 255, 255); stroke-opacity: 1; stroke-width: 1px;"/><path class="xgrid crisp" transform="translate(611.14,0)" d="M0,100v320" style="stroke: rgb(255, 255, 255); stroke-opacity: 1; stroke-width: 1px;"/></g><g class="y"><path class="ygrid crisp" transform="translate(0,337.53)" d="M80,0h540" style="stroke: rgb(255, 255, 255); stroke-opacity: 1; stroke-width: 1px;"/><path class="ygrid crisp" transform="translate(0,255.05)" d="M80,0h540" style="stroke: rgb(255, 255, 255); stroke-opacity: 1; stroke-width: 1px;"/><path class="ygrid crisp" transform="translate(0,172.57999999999998)" d="M80,0h540" style="stroke: rgb(255, 255, 255); stroke-opacity: 1; stroke-width: 1px;"/></g></g><g class="zerolinelayer"><path class="yzl zl crisp" transform="translate(0,420)" d="M80,0h540" style="stroke: rgb(255, 255, 255); stroke-opacity: 1; stroke-width: 2px;"/></g><g class="layer-between"><g class="shapelayer"/><g class="imagelayer"/></g><path class="xlines-below"/><path class="ylines-below"/><g class="overlines-below"/><g class="xaxislayer-below"/><g class="yaxislayer-below"/><g class="overaxes-below"/><g class="overplot"><g class="xy" transform="translate(80,100)" clip-path="url(#clipa43d0fxyplot)"><g class="scatterlayer mlayer"><g class="trace scatter trace294762" style="stroke-miterlimit: 2;"><g class="fills"><g><path class="js-fill" d="M540,320L0,320L0,319.84L0,319.51L1.92,319.34L3.75,318.35L4.45,318.19L5.04,317.03L5.41,316.87L6,315.88L6.3,315.71L8.38,312.25L8.77,312.08L9.9,311.09L9.9,310.93L10.76,310.1L11.43,309.94L12.43,307.79L12.43,307.63L13.18,306.64L13.41,306.47L13.84,305.32L14.35,305.15L15.5,304.66L16.7,304.49L18.14,303.34L18.28,303.18L23.47,302.19L24.3,302.02L25.43,301.53L25.98,301.36L27.1,300.04L28.94,299.88L31.86,298.06L33.04,297.9L36.9,295.09L36.92,294.93L37.2,294.27L37.83,294.1L39.97,292.12L39.97,291.96L40.64,291.13L40.93,290.97L43.15,288.99L44.41,288.82L46.53,286.85L46.67,286.68L47.03,286.02L47.68,285.86L50.94,284.21L51.85,284.04L54.87,282.56L54.88,282.39L57.14,281.07L57.42,280.91L58.71,279.59L60.27,279.42L63.49,276.45L63.59,276.29L63.71,275.96L64.46,275.79L67,274.47L67.04,274.31L67.35,273.98L68.08,273.81L69.22,273.48L70.16,273.32L70.45,272.49L70.97,272.33L71.36,272L72.12,271.84L72.12,271.67L72.88,271.51L79.97,268.21L80.05,268.04L80.31,267.38L81.19,267.22L81.36,266.56L82.49,266.39L84.69,264.74L84.95,264.58L85.63,264.08L85.97,263.92L85.97,263.59L87.04,263.42L87.06,263.09L87.9,262.93L92.05,261.61L92.52,261.44L93.6,260.78L93.9,260.62L98.38,258.64L98.4,258.47L99.62,257.48L99.62,257.32L100.35,255.01L100.64,254.85L105.48,252.04L106.33,251.88L108.65,250.06L109.11,249.9L112.59,249.07L113.2,248.91L116.55,247.42L117.53,247.26L119.36,246.1L119.39,245.94L124.14,243.63L124.24,243.46L125.14,242.97L125.53,242.8L131.23,239.01L131.24,238.85L137.9,235.71L138.04,235.55L138.48,234.89L139.04,234.72L148.32,230.43L149.4,230.27L150.5,228.95L151.37,228.78L152.14,228.29L153.16,228.12L156.59,226.97L157.06,226.8L159.3,224.99L160.02,224.82L170.23,220.37L170.3,220.21L175.81,219.05L175.97,218.89L177.06,218.23L177.65,218.06L178.89,217.4L179.88,217.24L182.64,215.59L182.64,215.42L186.71,213.28L186.73,213.11L187.83,212.45L187.97,212.29L190.78,210.31L190.82,210.14L203.05,206.68L203.07,206.52L204.51,205.69L205.27,205.53L205.44,205.2L207.17,205.03L208.38,204.7L209.2,204.54L212.85,203.05L213.12,202.89L218.92,198.93L218.96,198.76L220.23,197.77L220.25,197.61L222.56,196.12L222.6,195.96L222.72,195.63L223.74,195.46L225.99,194.47L226.12,194.31L226.7,193.98L228.79,193.81L234.4,192.16L234.47,192L235.35,191.51L235.66,191.34L237.14,190.52L237.32,190.35L238.12,189.53L239.27,189.36L240.92,188.21L241.48,188.04L242.2,187.22L242.62,187.05L243.31,186.23L243.41,186.06L244.28,185.4L244.54,185.24L245.4,184.41L245.41,184.25L248.31,182.6L248.45,182.43L249.46,181.44L249.88,181.28L253.09,179.46L253.35,179.3L262.37,173.53L262.88,173.36L263.14,173.03L263.79,172.87L267.21,170.56L267.24,170.39L272.93,168.25L276.41,168.08L282.74,166.6L282.75,166.43L286.12,164.95L286.18,164.78L289.6,162.97L290.12,162.8L290.4,162.31L291.12,162.14L293.62,161.32L294.05,161.15L301.06,156.21L301.16,156.04L301.96,154.89L302.29,154.72L305.2,152.91L306.01,152.74L308.95,150.6L310.27,150.43L311.78,149.11L311.93,148.95L314.03,148.29L314.6,148.12L315.84,147.3L316.94,147.13L317.71,146.8L318.52,146.64L318.65,146.31L319.74,146.14L320.5,145.32L320.85,145.15L328.57,143.34L329.41,143.18L335.16,139.88L336.53,139.71L340.03,138.23L340.27,138.06L341.84,137.4L342.93,137.24L351.4,132.45L352.31,132.29L359.02,129.98L359.89,129.81L362.67,128.49L362.8,128.33L364.45,127.51L365.55,127.34L366.55,126.68L366.93,126.52L369.25,125.36L369.25,125.2L369.25,124.87L370.5,124.7L371.51,124.21L373.32,124.04L373.75,123.55L374.56,123.38L374.57,123.22L375.68,123.05L375.82,122.89L377.34,122.72L382.39,120.58L382.66,120.41L383.47,119.42L383.49,119.26L384.53,118.6L385.32,118.43L387.31,117.61L388,117.44L389.61,115.96L390.06,115.79L390.1,115.63L391.51,115.46L392.27,114.64L393.08,114.47L402.91,110.68L404.14,110.52L404.93,109.53L405.01,109.36L409.4,107.55L409.51,107.38L415.75,102.1L415.76,101.94L416.47,100.45L416.73,100.29L420.48,97.15L421.15,96.99L427.56,92.04L428.39,91.88L431.69,90.89L431.83,90.72L434.92,88.08L435.03,87.92L436.05,85.44L436.16,85.28L437.84,81.81L438.09,81.65L444.05,76.87L444.84,76.7L445.99,75.22L446.02,75.05L447.12,73.4L447.61,73.24L449.5,71.26L450.13,71.09L450.97,69.94L451.16,69.77L452.81,68.62L452.81,68.45L453.53,67.63L453.63,67.46L455.06,65.98L455.07,65.81L456.62,65.15L457.32,64.99L461.39,61.69L461.43,61.53L461.86,60.7L462.49,60.54L463.84,57.9L464.55,57.73L465.44,56.41L465.65,56.25L466.39,55.42L466.51,55.26L468.16,53.61L468.76,53.44L470.57,51.96L470.68,51.79L471.79,50.8L472.08,50.64L473.64,50.14L474.06,49.98L475.3,47.84L476.06,47.67L478.37,46.02L480.02,45.86L480.89,45.53L481.36,45.36L483.98,43.88L484.13,43.71L485.8,42.89L486.22,42.72L487.69,42.06L488.06,41.9L488.87,40.74L489.02,40.58L492.16,39.26L492.29,39.09L498.11,36.12L498.92,35.96L499.66,35.3L499.89,35.13L500.06,34.8L500.77,34.64L502.61,33.48L502.68,33.32L505.65,32.33L505.7,32.16L506.89,30.85L507.29,30.68L507.6,30.19L508.53,30.02L508.66,29.69L509.66,29.53L513.58,27.71L513.74,27.55L516.24,26.06L516.28,25.9L527.42,21.61L527.46,21.44L528.96,20.12L528.96,19.96L529.4,18.97L529.8,18.8L533.98,17.98L534.03,17.81L534.19,17.65L536,17.48L536.01,17.32L536.96,17.15L538.13,16.16L540,16" style="fill: rgb(255, 127, 14); fill-opacity: 0.5; stroke-width: 0;"/></g></g><g class="errorbars"/><g class="lines"><path class="js-line" d="M0,319.84L0,319.51L1.92,319.34L3.75,318.35L4.45,318.19L5.04,317.03L5.41,316.87L6,315.88L6.3,315.71L8.38,312.25L8.77,312.08L9.9,311.09L9.9,310.93L10.76,310.1L11.43,309.94L12.43,307.79L12.43,307.63L13.18,306.64L13.41,306.47L13.84,305.32L14.35,305.15L15.5,304.66L16.7,304.49L18.14,303.34L18.28,303.18L23.47,302.19L24.3,302.02L25.43,301.53L25.98,301.36L27.1,300.04L28.94,299.88L31.86,298.06L33.04,297.9L36.9,295.09L36.92,294.93L37.2,294.27L37.83,294.1L39.97,292.12L39.97,291.96L40.64,291.13L40.93,290.97L43.15,288.99L44.41,288.82L46.53,286.85L46.67,286.68L47.03,286.02L47.68,285.86L50.94,284.21L51.85,284.04L54.87,282.56L54.88,282.39L57.14,281.07L57.42,280.91L58.71,279.59L60.27,279.42L63.49,276.45L63.59,276.29L63.71,275.96L64.46,275.79L67,274.47L67.04,274.31L67.35,273.98L68.08,273.81L69.22,273.48L70.16,273.32L70.45,272.49L70.97,272.33L71.36,272L72.12,271.84L72.12,271.67L72.88,271.51L79.97,268.21L80.05,268.04L80.31,267.38L81.19,267.22L81.36,266.56L82.49,266.39L84.69,264.74L84.95,264.58L85.63,264.08L85.97,263.92L85.97,263.59L87.04,263.42L87.06,263.09L87.9,262.93L92.05,261.61L92.52,261.44L93.6,260.78L93.9,260.62L98.38,258.64L98.4,258.47L99.62,257.48L99.62,257.32L100.35,255.01L100.64,254.85L105.48,252.04L106.33,251.88L108.65,250.06L109.11,249.9L112.59,249.07L113.2,248.91L116.55,247.42L117.53,247.26L119.36,246.1L119.39,245.94L124.14,243.63L124.24,243.46L125.14,242.97L125.53,242.8L131.23,239.01L131.24,238.85L137.9,235.71L138.04,235.55L138.48,234.89L139.04,234.72L148.32,230.43L149.4,230.27L150.5,228.95L151.37,228.78L152.14,228.29L153.16,228.12L156.59,226.97L157.06,226.8L159.3,224.99L160.02,224.82L170.23,220.37L170.3,220.21L175.81,219.05L175.97,218.89L177.06,218.23L177.65,218.06L178.89,217.4L179.88,217.24L182.64,215.59L182.64,215.42L186.71,213.28L186.73,213.11L187.83,212.45L187.97,212.29L190.78,210.31L190.82,210.14L203.05,206.68L203.07,206.52L204.51,205.69L205.27,205.53L205.44,205.2L207.17,205.03L208.38,204.7L209.2,204.54L212.85,203.05L213.12,202.89L218.92,198.93L218.96,198.76L220.23,197.77L220.25,197.61L222.56,196.12L222.6,195.96L222.72,195.63L223.74,195.46L225.99,194.47L226.12,194.31L226.7,193.98L228.79,193.81L234.4,192.16L234.47,192L235.35,191.51L235.66,191.34L237.14,190.52L237.32,190.35L238.12,189.53L239.27,189.36L240.92,188.21L241.48,188.04L242.2,187.22L242.62,187.05L243.31,186.23L243.41,186.06L244.28,185.4L244.54,185.24L245.4,184.41L245.41,184.25L248.31,182.6L248.45,182.43L249.46,181.44L249.88,181.28L253.09,179.46L253.35,179.3L262.37,173.53L262.88,173.36L263.14,173.03L263.79,172.87L267.21,170.56L267.24,170.39L272.93,168.25L276.41,168.08L282.74,166.6L282.75,166.43L286.12,164.95L286.18,164.78L289.6,162.97L290.12,162.8L290.4,162.31L291.12,162.14L293.62,161.32L294.05,161.15L301.06,156.21L301.16,156.04L301.96,154.89L302.29,154.72L305.2,152.91L306.01,152.74L308.95,150.6L310.27,150.43L311.78,149.11L311.93,148.95L314.03,148.29L314.6,148.12L315.84,147.3L316.94,147.13L317.71,146.8L318.52,146.64L318.65,146.31L319.74,146.14L320.5,145.32L320.85,145.15L328.57,143.34L329.41,143.18L335.16,139.88L336.53,139.71L340.03,138.23L340.27,138.06L341.84,137.4L342.93,137.24L351.4,132.45L352.31,132.29L359.02,129.98L359.89,129.81L362.67,128.49L362.8,128.33L364.45,127.51L365.55,127.34L366.55,126.68L366.93,126.52L369.25,125.36L369.25,125.2L369.25,124.87L370.5,124.7L371.51,124.21L373.32,124.04L373.75,123.55L374.56,123.38L374.57,123.22L375.68,123.05L375.82,122.89L377.34,122.72L382.39,120.58L382.66,120.41L383.47,119.42L383.49,119.26L384.53,118.6L385.32,118.43L387.31,117.61L388,117.44L389.61,115.96L390.06,115.79L390.1,115.63L391.51,115.46L392.27,114.64L393.08,114.47L402.91,110.68L404.14,110.52L404.93,109.53L405.01,109.36L409.4,107.55L409.51,107.38L415.75,102.1L415.76,101.94L416.47,100.45L416.73,100.29L420.48,97.15L421.15,96.99L427.56,92.04L428.39,91.88L431.69,90.89L431.83,90.72L434.92,88.08L435.03,87.92L436.05,85.44L436.16,85.28L437.84,81.81L438.09,81.65L444.05,76.87L444.84,76.7L445.99,75.22L446.02,75.05L447.12,73.4L447.61,73.24L449.5,71.26L450.13,71.09L450.97,69.94L451.16,69.77L452.81,68.62L452.81,68.45L453.53,67.63L453.63,67.46L455.06,65.98L455.07,65.81L456.62,65.15L457.32,64.99L461.39,61.69L461.43,61.53L461.86,60.7L462.49,60.54L463.84,57.9L464.55,57.73L465.44,56.41L465.65,56.25L466.39,55.42L466.51,55.26L468.16,53.61L468.76,53.44L470.57,51.96L470.68,51.79L471.79,50.8L472.08,50.64L473.64,50.14L474.06,49.98L475.3,47.84L476.06,47.67L478.37,46.02L480.02,45.86L480.89,45.53L481.36,45.36L483.98,43.88L484.13,43.71L485.8,42.89L486.22,42.72L487.69,42.06L488.06,41.9L488.87,40.74L489.02,40.58L492.16,39.26L492.29,39.09L498.11,36.12L498.92,35.96L499.66,35.3L499.89,35.13L500.06,34.8L500.77,34.64L502.61,33.48L502.68,33.32L505.65,32.33L505.7,32.16L506.89,30.85L507.29,30.68L507.6,30.19L508.53,30.02L508.66,29.69L509.66,29.53L513.58,27.71L513.74,27.55L516.24,26.06L516.28,25.9L527.42,21.61L527.46,21.44L528.96,20.12L528.96,19.96L529.4,18.97L529.8,18.8L533.98,17.98L534.03,17.81L534.19,17.65L536,17.48L536.01,17.32L536.96,17.15L538.13,16.16L540,16" style="vector-effect: none; fill: none; stroke: rgb(255, 127, 14); stroke-opacity: 1; stroke-width: 2px; opacity: 1;"/></g><g class="points"/><g class="text"/></g></g></g></g><g class="zerolinelayer-above"/><path class="xlines-above crisp" d="M0,0" style="fill: none;"/><path class="ylines-above crisp" d="M0,0" style="fill: none;"/><g class="overlines-above"/><g class="xaxislayer-above"><g class="xtick"><text text-anchor="middle" x="0" y="439" transform="translate(100.59,0)" style="font-family: 'Open Sans'; font-size: 18px; fill: rgb(0, 0, 0); fill-opacity: 1; white-space: pre;">2016</text></g><g class="xtick"><text text-anchor="middle" x="0" y="439" style="font-family: 'Open Sans'; font-size: 18px; fill: rgb(0, 0, 0); fill-opacity: 1; white-space: pre;" transform="translate(202.75,0)">2018</text></g><g class="xtick"><text text-anchor="middle" x="0" y="439" style="font-family: 'Open Sans'; font-size: 18px; fill: rgb(0, 0, 0); fill-opacity: 1; white-space: pre;" transform="translate(304.78,0)">2020</text></g><g class="xtick"><text text-anchor="middle" x="0" y="439" style="font-family: 'Open Sans'; font-size: 18px; fill: rgb(0, 0, 0); fill-opacity: 1; white-space: pre;" transform="translate(406.95,0)">2022</text></g><g class="xtick"><text text-anchor="middle" x="0" y="439" style="font-family: 'Open Sans'; font-size: 18px; fill: rgb(0, 0, 0); fill-opacity: 1; white-space: pre;" transform="translate(508.97,0)">2024</text></g><g class="xtick"><text text-anchor="middle" x="0" y="439" style="font-family: 'Open Sans'; font-size: 18px; fill: rgb(0, 0, 0); fill-opacity: 1; white-space: pre;" transform="translate(611.14,0)">2026</text></g></g><g class="yaxislayer-above"><g class="ytick"><text text-anchor="end" x="79" y="6.3" transform="translate(0,420)" style="font-family: 'Open Sans'; font-size: 18px; fill: rgb(0, 0, 0); fill-opacity: 1; white-space: pre;">0</text></g><g class="ytick"><text text-anchor="end" x="79" y="6.3" style="font-family: 'Open Sans'; font-size: 18px; fill: rgb(0, 0, 0); fill-opacity: 1; white-space: pre;" transform="translate(0,337.53)">500</text></g><g class="ytick"><text text-anchor="end" x="79" y="6.3" style="font-family: 'Open Sans'; font-size: 18px; fill: rgb(0, 0, 0); fill-opacity: 1; white-space: pre;" transform="translate(0,255.05)">1000</text></g><g class="ytick"><text text-anchor="end" x="79" y="6.3" style="font-family: 'Open Sans'; font-size: 18px; fill: rgb(0, 0, 0); fill-opacity: 1; white-space: pre;" transform="translate(0,172.57999999999998)">1500</text></g></g><g class="overaxes-above"/></g></g><g class="polarlayer"/><g class="smithlayer"/><g class="ternarylayer"/><g class="geolayer"/><g class="funnelarealayer"/><g class="pielayer"/><g class="iciclelayer"/><g class="treemaplayer"/><g class="sunburstlayer"/><g class="glimages"/><defs id="topdefs-a43d0f"><g class="clips"/></defs><g class="layer-above"><g class="imagelayer"/><g class="shapelayer"/></g><g class="infolayer"><g class="g-gtitle"><text class="gtitle" x="35" y="50" text-anchor="start" dy="0em" style="opacity: 1; font-family: 'Open Sans'; font-size: 25px; fill: rgb(0, 0, 0); fill-opacity: 1; white-space: pre;">MultiQC/MultiQC - Issues Created Over Time</text></g><g class="g-xtitle"><text class="xtitle" x="350" y="472.9" text-anchor="middle" style="opacity: 1; font-family: 'Open Sans'; font-size: 22px; fill: rgb(0, 0, 0); fill-opacity: 1; white-space: pre;">Date</text></g><g class="g-ytitle"><text class="ytitle" transform="rotate(-90,20.799999999999997,260)" x="20.799999999999997" y="260" text-anchor="middle" style="opacity: 1; font-family: 'Open Sans'; font-size: 22px; fill: rgb(0, 0, 0); fill-opacity: 1; white-space: pre;">Cumulative Issues Created</text></g></g></svg>