<svg class="main-svg" xmlns="http://www.w3.org/2000/svg" xmlns:xlink="http://www.w3.org/1999/xlink" width="700" height="500" style="" viewBox="0 0 700 500"><rect x="0" y="0" width="700" height="500" style="fill: rgb(0, 0, 0); fill-opacity: 0;"/><defs id="defs-81db4e"><g class="clips"><clipPath id="clip81db4exyplot" class="plotclip"><rect width="540" height="320"/></clipPath><clipPath class="axesclip" id="clip81db4ex"><rect x="80" y="0" width="540" height="500"/></clipPath><clipPath class="axesclip" id="clip81db4ey"><rect x="0" y="100" width="700" height="320"/></clipPath><clipPath class="axesclip" id="clip81db4exy"><rect x="80" y="100" width="540" height="320"/></clipPath></g><g class="gradients"/><g class="patterns"/></defs><g class="bglayer"><rect class="bg" x="80" y="100" width="540" height="320" style="fill: rgb(0, 0, 0); fill-opacity: 0; stroke-width: 0;"/></g><g class="layer-below"><g class="imagelayer"/><g class="shapelayer"/></g><g class="cartesianlayer"><g class="subplot xy"><g class="layer-subplot"><g class="shapelayer"/><g class="imagelayer"/></g><g class="minor-gridlayer"><g class="x"/><g class="y"/></g><g class="gridlayer"><g class="x"><path class="xgrid crisp" transform="translate(101.03999999999999,0)" d="M0,100v320" style="stroke: rgb(255, 255, 255); stroke-opacity: 1; stroke-width: 1px;"/><path class="xgrid crisp" transform="translate(205.44,0)" d="M0,100v320" style="stroke: rgb(255, 255, 255); stroke-opacity: 1; stroke-width: 1px;"/><path class="xgrid crisp" transform="translate(309.69,0)" d="M0,100v320" style="stroke: rgb(255, 255, 255); stroke-opacity: 1; stroke-width: 1px;"/><path class="xgrid crisp" transform="translate(414.09,0)" d="M0,100v320" style="stroke: rgb(255, 255, 255); stroke-opacity: 1; stroke-width: 1px;"/><path class="xgrid crisp" transform="translate(518.35,0)" d="M0,100v320" style="stroke: rgb(255, 255, 255); stroke-opacity: 1; stroke-width: 1px;"/></g><g class="y"><path class="ygrid crisp" transform="translate(0,356.13)" d="M80,0h540" style="stroke: rgb(255, 255, 255); stroke-opacity: 1; stroke-width: 1px;"/><path class="ygrid crisp" transform="translate(0,292.27)" d="M80,0h540" style="stroke: rgb(255, 255, 255); stroke-opacity: 1; stroke-width: 1px;"/><path class="ygrid crisp" transform="translate(0,228.4)" d="M80,0h540" style="stroke: rgb(255, 255, 255); stroke-opacity: 1; stroke-width: 1px;"/><path class="ygrid crisp" transform="translate(0,164.54000000000002)" d="M80,0h540" style="stroke: rgb(255, 255, 255); stroke-opacity: 1; stroke-width: 1px;"/></g></g><g class="zerolinelayer"><path class="yzl zl crisp" transform="translate(0,420)" d="M80,0h540" style="stroke: rgb(255, 255, 255); stroke-opacity: 1; stroke-width: 2px;"/></g><g class="layer-between"><g class="shapelayer"/><g class="imagelayer"/></g><path class="xlines-below"/><path class="ylines-below"/><g class="overlines-below"/><g class="xaxislayer-below"/><g class="yaxislayer-below"/><g class="overaxes-below"/><g class="overplot"><g class="xy" transform="translate(80,100)" clip-path="url(#clip81db4exyplot)"><g class="scatterlayer mlayer"><g class="trace scatter tracefc7776" style="stroke-miterlimit: 2;"><g class="fills"><g><path class="js-fill" d="M540,320L0,320L0,318.72L0,316.17L0.57,317.45L1.85,318.72L1.97,317.45L2.99,318.72L3.83,312.34L3.86,313.61L4.54,312.34L4.97,307.23L5.15,308.5L5.52,309.78L5.69,305.95L5.99,311.06L6.13,308.5L6.43,309.78L7.12,298.29L7.24,297.01L7.41,295.73L7.68,298.29L7.68,299.56L7.69,300.84L7.86,290.62L8.56,289.34L8.95,298.29L8.95,299.56L9.69,308.5L9.7,307.23L9.82,305.95L10.11,302.12L10.11,300.84L10.56,298.29L10.59,302.12L10.98,303.39L11,302.12L11.56,305.95L11.68,304.67L11.83,303.39L12.81,285.51L12.85,291.9L12.85,293.18L12.97,290.62L13.28,294.45L13.46,291.9L13.7,290.62L14.1,284.24L14.25,288.07L14.66,286.79L14.86,285.51L14.99,288.07L15.69,289.34L15.86,293.18L17.07,291.9L17.67,289.34L17.8,288.07L18.54,282.96L18.54,284.24L18.68,282.96L19.12,284.24L21.69,282.96L21.69,284.24L22.1,280.4L22.1,282.96L23.64,281.68L23.84,282.96L23.99,281.68L24.84,280.4L25.56,277.85L25.67,279.13L25.99,277.85L26.74,286.79L26.81,285.51L27.09,281.68L27.53,284.24L27.55,285.51L27.7,284.24L27.95,285.51L29.13,286.79L30.59,282.96L30.81,284.24L30.85,288.07L30.85,288.07L31.65,286.79L32.13,290.62L32.13,290.62L32.56,289.34L32.75,295.73L33.66,297.01L34.37,294.45L34.37,295.73L34.51,297.01L35.41,293.18L35.52,294.45L36.15,295.73L36.52,294.45L36.52,295.73L36.66,289.34L36.95,290.62L37.65,289.34L37.89,285.51L38.08,293.18L38.59,294.45L38.66,293.18L39.1,297.01L39.16,298.29L39.39,293.18L39.68,294.45L39.98,295.73L40.84,289.34L40.97,293.18L41.32,291.9L41.53,289.34L41.55,291.9L41.69,293.18L43.1,285.51L43.79,284.24L44.09,282.96L44.71,284.24L45.39,285.51L45.68,284.24L45.7,288.07L46.16,282.96L46.42,284.24L46.49,282.96L46.49,281.68L47.12,291.9L47.52,290.62L47.53,293.18L47.7,289.34L48.12,291.9L48.68,293.18L48.69,297.01L48.98,294.45L49.55,295.73L49.94,294.45L49.94,295.73L50.65,294.45L50.65,295.73L50.84,293.18L50.96,293.18L51.81,291.9L52.99,289.34L53.55,290.62L53.55,291.9L53.98,288.07L54.14,290.62L54.59,289.34L54.69,288.07L55,291.9L55.84,290.62L57.18,285.51L57.69,284.24L58.93,272.74L59.01,275.29L59.1,276.57L59.1,277.85L59.7,275.29L59.87,274.02L60,272.74L60.01,274.02L61.59,272.74L62.12,266.35L62.64,267.63L63.13,265.08L63.24,266.35L63.7,265.08L65.1,251.03L65.12,253.58L65.87,252.3L66.53,254.86L66.53,256.13L66.54,262.52L66.84,262.52L67.55,261.24L68.82,257.41L69.57,256.13L69.82,263.8L70.73,262.52L71.84,275.29L71.99,274.02L72.52,272.74L72.52,271.46L72.92,271.46L73.38,272.74L74.47,268.91L74.48,270.18L74.94,267.63L74.99,268.91L75.86,267.63L76.65,266.35L77.16,265.08L80.5,254.86L80.51,256.13L80.96,259.97L81.1,256.13L81.51,257.41L81.8,258.69L81.86,254.86L82.07,257.41L82.81,258.69L83.14,252.3L83.15,253.58L84.3,252.3L84.5,253.58L84.7,252.3L84.94,251.03L84.97,249.75L85.69,253.58L85.82,252.3L85.96,253.58L86.54,249.75L86.54,251.03L86.68,252.3L87.09,257.41L87.51,256.13L87.85,254.86L87.85,252.3L87.97,256.13L88.94,254.86L88.94,256.13L88.97,253.58L89.64,256.13L89.82,254.86L90.63,257.41L90.96,256.13L91.54,257.41L91.63,258.69L91.95,263.8L92.49,262.52L92.8,271.46L93.1,268.91L93.57,267.63L94.64,263.8L94.77,265.08L94.78,266.35L96.65,258.69L96.67,259.97L98.79,252.3L98.93,253.58L98.93,254.86L99.83,257.41L99.94,258.69L100.8,270.18L101.11,268.91L101.53,271.46L101.53,270.18L101.62,268.91L101.66,271.46L102.09,258.69L102.1,258.69L102.52,257.41L102.84,254.86L103.1,261.24L103.5,259.97L104.51,257.41L104.51,258.69L104.51,259.97L104.63,262.52L105.08,261.24L105.57,259.97L105.93,263.8L106.06,261.24L106.47,259.97L106.5,261.24L107.06,258.69L107.08,259.97L107.67,258.69L107.78,257.41L107.79,258.69L108.48,259.97L108.48,261.24L109.09,259.97L109.66,258.69L109.9,254.86L110.07,254.86L110.5,253.58L111.87,247.19L111.91,248.47L111.99,249.75L114.08,245.92L114.65,247.19L116.06,243.36L116.53,244.64L116.83,243.36L117.68,274.02L117.79,272.74L118.41,270.18L118.69,271.46L119.1,270.18L119.1,271.46L120.1,270.18L120.5,271.46L120.81,270.18L120.82,268.91L121.52,267.63L121.77,268.91L121.78,271.46L122.52,265.08L122.53,266.35L123.58,261.24L123.81,262.52L123.95,263.8L124.07,267.63L125.83,266.35L126.05,267.63L126.11,266.35L126.63,265.08L127.08,259.97L127.87,258.69L129.59,253.58L129.97,254.86L130.44,252.3L130.52,253.58L130.52,254.86L130.67,261.24L131.04,258.69L131.58,257.41L132.11,254.86L132.35,256.13L132.96,261.24L133.68,259.97L134.67,254.86L135.06,256.13L135.75,254.86L136.83,253.58L137.98,249.75L138.8,251.03L139.55,249.75L139.62,251.03L140.14,249.75L140.5,248.47L140.51,251.03L141.05,245.92L141.05,245.92L141.5,244.64L141.51,242.08L142.08,243.36L142.44,242.08L142.95,239.53L142.98,238.25L143.05,236.97L143.1,240.81L143.66,239.53L143.68,240.81L144.1,238.25L144.73,239.53L145.13,235.7L145.39,244.64L145.39,245.92L145.39,247.19L146.05,243.36L146.12,243.36L146.52,244.64L146.79,243.36L146.81,245.92L148,244.64L148.66,243.36L148.78,245.92L149.6,244.64L149.62,245.92L150.27,242.08L150.34,243.36L150.91,244.64L151.52,243.36L151.53,244.64L151.56,243.36L152.66,242.08L152.67,243.36L152.85,239.53L153.13,239.53L153.64,238.25L154.94,233.14L155.46,234.42L155.47,233.14L156.14,239.53L156.51,238.25L157.72,236.97L158.06,238.25L160.49,231.87L160.64,233.14L161.16,228.03L161.46,226.76L162.78,219.09L163.52,217.82L163.52,219.09L163.91,217.82L165.02,216.54L165.07,215.26L165.53,220.37L165.97,219.09L167.04,216.54L167.04,215.26L167.06,213.98L167.27,222.92L168.56,221.65L168.81,219.09L169.93,217.82L170.66,222.92L171.02,221.65L173.95,211.43L174.02,210.15L174.07,211.43L175.83,210.15L176.08,215.26L176.09,216.54L176.1,220.37L176.51,217.82L178.49,216.54L178.51,219.09L178.67,217.82L179.42,216.54L179.94,211.43L179.95,212.71L180.48,213.98L180.84,215.26L181.75,210.15L181.81,211.43L181.95,212.71L182.8,211.43L182.81,212.71L185.96,207.6L186.06,206.32L186.64,202.49L186.65,203.76L187.07,202.49L187.1,205.04L187.77,203.76L187.95,202.49L188.64,203.76L188.94,202.49L189.69,201.21L189.88,199.93L190.65,197.38L190.79,196.1L190.97,197.38L191.12,194.82L191.13,196.1L191.94,194.82L193.33,185.88L193.33,188.44L193.6,187.16L193.94,184.61L194.26,185.88L194.78,184.61L194.99,182.05L195.45,184.61L195.72,183.33L196.11,180.77L196.67,179.5L197.85,178.22L197.86,179.5L197.94,178.22L197.97,179.5L199.33,178.22L200.08,179.5L200.82,178.22L201.05,176.94L201.05,178.22L202.93,176.94L203.64,175.66L203.65,176.94L203.65,178.22L204.04,176.94L204.89,178.22L204.89,179.5L205.59,179.5L205.77,178.22L206.75,175.66L207.49,174.39L208.14,170.55L208.52,171.83L209.93,166.72L210.26,168L211.7,166.72L211.92,165.45L212.93,164.17L213.05,165.45L213.78,164.17L215.6,160.34L215.9,161.61L216.27,157.78L217.02,156.5L217.46,159.06L217.5,157.78L217.78,156.5L218.53,153.95L218.74,155.23L218.78,156.5L218.81,160.34L219.53,157.78L219.55,156.5L219.99,155.23L220.49,162.89L220.51,161.61L221.27,159.06L221.39,160.34L221.47,161.61L221.94,157.78L222.08,160.34L222.11,161.61L222.78,165.45L222.78,166.72L223.08,183.33L223.59,182.05L223.87,189.71L224.47,188.44L224.47,189.71L225.06,184.61L225.06,185.88L225.23,187.16L225.51,188.44L225.67,185.88L225.78,184.61L226.76,179.5L227.06,178.22L227.55,174.39L227.59,173.11L227.69,178.22L228.63,176.94L230.66,174.39L230.69,173.11L231.28,166.72L231.66,165.45L232.11,166.72L233.79,165.45L234.95,162.89L235.03,161.61L235.89,160.34L236.31,161.61L237.06,159.06L238.93,157.78L239.52,155.23L239.6,153.95L239.76,151.39L240.5,150.12L240.63,151.39L240.81,150.12L241.98,148.84L242.3,145.01L242.32,152.67L242.32,153.95L242.32,155.23L242.88,150.12L243.32,148.84L243.53,150.12L244.5,148.84L244.66,150.12L244.9,148.84L245.5,150.12L245.57,148.84L245.75,153.95L246.19,151.39L246.46,152.67L246.76,151.39L246.79,153.95L246.89,153.95L246.9,155.23L247.92,151.39L248.37,150.12L248.79,147.56L248.92,153.95L249.3,152.67L249.61,151.39L249.76,152.67L249.8,153.95L249.88,152.67L250.19,155.23L250.51,156.5L250.6,153.95L250.63,164.17L250.64,165.45L251.46,187.16L251.59,185.88L251.9,187.16L252.45,185.88L253.5,180.77L253.59,182.05L254.91,173.11L255.06,174.39L255.34,173.11L256.59,169.28L256.6,170.55L256.74,171.83L257.34,168L257.65,166.72L257.85,165.45L258.5,166.72L259.13,160.34L259.6,159.06L260.08,153.95L260.1,155.23L260.64,156.5L261.47,151.39L261.65,150.12L262.93,142.45L263.37,141.18L263.57,139.9L264.62,138.62L266.06,130.96L266.48,129.68L267.48,125.85L267.52,127.13L268.89,120.74L269.56,119.46L271.57,113.08L271.57,114.35L274.59,97.75L274.81,99.03L274.83,101.58L275.76,100.3L275.76,101.58L276.49,97.75L277.12,96.47L277.42,97.75L278.6,96.47L278.89,92.64L281.37,93.92L281.53,123.29L282.46,122.02L283.65,123.29L283.8,122.02L283.8,120.74L283.89,124.57L284.07,122.02L284.68,123.29L287.62,122.02L288.36,120.74L288.92,116.91L288.93,115.63L289.05,118.18L289.58,116.91L289.7,115.63L289.75,116.91L290.7,115.63L291.89,122.02L292.01,120.74L292.23,122.02L292.92,116.91L293.59,115.63L293.63,116.91L294.15,111.8L294.52,113.08L294.81,127.13L295.76,125.85L295.94,127.13L296.46,124.57L296.47,125.85L296.47,127.13L297.49,124.57L297.66,125.85L297.77,123.29L298.22,124.57L298.6,125.85L299.07,127.13L299.59,125.85L301.07,120.74L301.39,119.46L301.72,122.02L301.87,116.91L301.99,118.18L302.05,116.91L302.6,118.18L303.76,116.91L303.78,118.18L304.33,115.63L304.68,114.35L305,109.24L305.27,110.52L305.66,111.8L305.67,116.91L305.86,114.35L306.91,113.08L307.64,124.57L307.64,123.29L307.74,122.02L307.77,120.74L308.09,132.24L308.24,132.24L308.34,133.51L308.38,142.45L309.09,139.9L309.45,141.18L310.16,136.07L310.33,137.34L311.01,134.79L311.56,133.51L311.59,134.79L311.87,130.96L312.7,129.68L312.93,130.96L312.94,129.68L313.57,128.4L313.89,132.24L314,128.4L314.46,127.13L314.86,123.29L315.5,122.02L315.71,120.74L317.05,119.46L317.73,115.63L317.79,114.35L319.01,106.69L320.01,105.41L322.74,96.47L323.86,95.19L324.65,92.64L325.48,91.36L325.62,88.81L326.37,90.08L326.73,109.24L326.93,107.97L327.21,109.24L327.5,107.97L327.52,110.52L327.87,109.24L328.51,110.52L329.03,109.24L329.77,110.52L330.91,106.69L331.87,105.41L333.17,104.13L333.51,105.41L333.57,106.69L334.58,105.41L335.11,102.86L335.57,104.13L335.75,102.86L336.19,104.13L336.21,105.41L336.21,106.69L336.9,104.13L337.59,105.41L338.58,141.18L338.87,139.9L339.04,136.07L339.49,141.18L339.65,142.45L341.11,130.96L341.46,129.68L341.58,132.24L342.06,130.96L342.49,129.68L343.48,132.24L343.88,130.96L344.87,129.68L344.88,130.96L345.49,129.68L345.72,128.4L346.07,127.13L346.48,128.4L346.86,127.13L347.46,125.85L347.71,124.57L347.92,122.02L349.04,120.74L349.31,119.46L350.42,118.18L352.04,113.08L352.04,114.35L352.07,115.63L353.03,110.52L353.57,111.8L354.42,106.69L354.43,107.97L354.92,106.69L354.97,107.97L355.6,105.41L355.6,104.13L355.71,101.58L357.03,100.3L357.89,97.75L357.92,96.47L358.75,93.92L359.08,92.64L360.03,97.75L360.41,96.47L360.6,95.19L362.13,92.64L362.34,93.92L363.45,91.36L364.02,90.08L365.59,84.97L366.2,83.7L366.57,82.42L366.79,83.7L366.85,84.97L366.86,83.7L367.75,82.42L368.88,79.87L368.99,78.59L369.99,77.31L370.01,78.59L370.08,96.47L370.73,92.64L370.99,93.92L371.62,91.36L371.86,90.08L372.61,91.36L373.53,90.08L374.16,86.25L374.27,87.53L374.56,86.25L375.85,83.7L376.7,82.42L377.33,79.87L377.33,78.59L377.33,72.2L378.6,70.92L379.63,67.09L381.15,68.37L381.15,70.92L381.57,67.09L381.57,68.37L381.92,67.09L382.42,68.37L382.74,67.09L382.75,65.82L383.01,67.09L383.89,65.82L384.03,64.54L384.03,65.82L385.36,67.09L386,65.82L386.06,67.09L386.22,68.37L386.85,69.65L387.16,70.92L387.36,84.97L388.35,86.25L389.37,83.7L389.89,82.42L390.02,79.87L390.06,83.7L390.48,84.97L391.7,76.03L391.71,77.31L391.71,76.03L391.73,82.42L392.05,79.87L392.61,78.59L393.93,74.76L395.06,73.48L395.77,69.65L396.48,68.37L396.86,64.54L397.34,67.09L397.59,65.82L398.62,59.43L398.62,60.71L400.06,59.43L400.84,53.04L400.85,55.6L401.67,54.32L402,55.6L402.04,54.32L402.55,53.04L403.11,50.49L403.77,51.76L404.72,47.93L405.36,46.66L405.98,44.1L406.21,45.38L406.34,46.66L406.66,47.93L406.86,46.66L408.05,47.93L410.45,38.99L410.73,37.71L411.72,36.44L412.45,37.71L413.55,33.88L413.63,32.61L413.69,33.88L413.86,28.77L414.48,30.05L414.56,27.5L415.71,26.22L415.88,23.66L416.06,26.22L416.32,27.5L416.72,26.22L416.89,27.5L416.92,28.77L417.19,31.33L417.73,30.05L418.77,22.39L418.77,24.94L418.82,26.22L419.56,23.66L419.57,24.94L419.77,26.22L420.17,27.5L420.42,24.94L420.69,23.66L420.85,24.94L420.97,22.39L421.29,24.94L421.33,26.22L421.43,27.5L421.87,23.66L421.93,22.39L422.98,18.55L422.98,17.28L423.47,16L423.55,17.28L423.57,18.55L423.89,17.28L424.11,21.11L424.12,22.39L424.55,36.44L424.84,24.94L424.92,26.22L425.54,33.88L425.57,30.05L425.69,31.33L427.38,22.39L427.44,23.66L427.58,36.44L427.98,31.33L428.27,30.05L428.31,32.61L428.84,30.05L429.42,28.77L430.07,32.61L430.35,31.33L430.58,30.05L430.73,32.61L430.81,31.33L431.39,30.05L432.03,40.27L432.06,38.99L432.44,37.71L432.51,36.44L432.84,40.27L433.11,38.99L433.45,37.71L433.87,33.88L434.05,36.44L434.59,35.16L435.01,31.33L435.41,32.61L435.41,33.88L435.99,51.76L436.27,53.04L436.91,49.21L437.75,47.93L437.89,51.76L438.88,53.04L439.98,50.49L440.02,49.21L440.18,50.49L440.56,49.21L441.02,47.93L441.48,45.38L441.6,49.21L441.74,47.93L441.98,46.66L442.63,44.1L442.99,45.38L443.61,51.76L443.84,49.21L443.86,47.93L444.57,51.76L444.72,50.49L445.11,41.55L445.48,49.21L445.58,47.93L445.87,44.1L445.98,50.49L445.98,51.76L445.99,53.04L446.58,44.1L446.7,45.38L446.7,46.66L447.19,41.55L447.41,42.82L447.61,44.1L447.86,41.55L448.02,51.76L448.02,53.04L448.32,69.65L448.74,64.54L448.84,65.82L448.85,67.09L449.61,65.82L449.84,63.26L449.9,73.48L450.02,72.2L450.32,70.92L450.42,72.2L450.83,70.92L450.87,72.2L450.98,69.65L451.59,68.37L452.23,64.54L452.41,63.26L453.16,56.87L453.42,59.43L453.44,60.71L453.6,59.43L453.98,65.82L454.56,64.54L454.69,65.82L454.95,63.26L455.13,64.54L455.47,65.82L456.13,55.6L456.43,54.32L456.45,53.04L456.54,56.87L456.89,54.32L457.39,53.04L457.4,54.32L457.99,44.1L458.03,46.66L458.83,45.38L459.32,41.55L459.88,42.82L460.01,40.27L460.3,46.66L460.68,45.38L460.7,44.1L461.02,42.82L461.28,45.38L461.58,44.1L461.76,46.66L462.12,44.1L462.47,45.38L463,38.99L463.35,41.55L463.41,42.82L463.54,41.55L463.57,45.38L464.01,42.82L464.44,41.55L464.46,40.27L465,51.76L465.02,49.21L465.16,47.93L466.41,51.76L466.6,50.49L466.85,53.04L467.32,51.76L467.57,50.49L468.57,55.6L468.71,53.04L468.75,51.76L468.86,49.21L469.41,53.04L469.42,53.04L469.76,51.76L470.01,47.93L470.41,51.76L470.44,53.04L470.76,51.76L471.6,72.2L471.87,70.92L471.96,69.65L472.7,67.09L472.73,65.82L473.58,55.6L473.68,56.87L473.75,54.32L473.86,65.82L474.15,64.54L474.15,65.82L474.71,64.54L474.72,65.82L474.99,67.09L475.39,74.76L475.68,72.2L475.83,70.92L475.95,65.82L476.56,67.09L476.59,65.82L476.81,63.26L476.84,68.37L477,67.09L477.48,68.37L477.75,69.65L478.04,65.82L478.4,64.54L478.7,68.37L478.72,69.65L479.99,65.82L480.71,64.54L480.97,59.43L481.28,64.54L481.59,63.26L482.71,53.04L483.48,54.32L484.01,67.09L484.42,65.82L484.51,68.37L484.86,60.71L485.03,61.98L485.29,60.71L485.76,68.37L486.46,67.09L486.65,65.82L486.98,68.37L486.99,69.65L487.64,67.09L487.89,81.14L487.98,79.87L487.98,77.31L488.55,84.97L488.83,83.7L489.04,84.97L490.51,83.7L491.1,84.97L491.4,83.7L491.86,84.97L491.88,83.7L492.42,82.42L492.42,81.14L492.68,84.97L492.77,83.7L493.39,82.42L493.61,83.7L493.95,82.42L494.34,81.14L494.42,78.59L494.56,82.42L494.85,81.14L495.38,79.87L495.46,78.59L495.89,83.7L495.89,84.97L497,81.14L497.39,82.42L497.64,79.87L497.95,81.14L497.95,82.42L498.55,84.97L498.73,83.7L499.52,76.03L499.55,78.59L499.55,79.87L499.55,81.14L499.71,78.59L500.56,79.87L500.56,78.59L500.84,78.59L502.01,77.31L502.56,73.48L502.81,76.03L502.91,74.76L503.55,69.65L503.75,68.37L504.4,70.92L504.43,68.37L504.58,67.09L505.41,65.82L505.98,67.09L506,69.65L506.54,69.65L506.84,68.37L506.84,67.09L507.55,69.65L507.75,68.37L507.84,67.09L508.76,65.82L509.38,67.09L509.82,65.82L510.58,60.71L510.82,59.43L510.82,60.71L510.99,59.43L511.71,58.15L511.97,60.71L512.43,59.43L512.54,60.71L512.96,55.6L513.12,58.15L513.4,59.43L513.66,55.6L515.46,56.87L515.79,53.04L516.43,54.32L516.68,67.09L517.13,63.26L517.26,64.54L517.39,67.09L517.97,65.82L518.38,64.54L518.69,60.71L519.65,59.43L519.77,56.87L520.8,55.6L521.47,53.04L521.58,51.76L521.7,49.21L523.14,50.49L523.56,69.65L523.85,67.09L523.93,65.82L523.99,68.37L524.73,67.09L525.68,63.26L525.68,64.54L526.41,70.92L526.45,69.65L526.89,68.37L527.53,63.26L527.56,64.54L528.01,63.26L530.51,58.15L530.83,56.87L531.47,54.32L531.95,53.04L532.91,50.49L532.97,49.21L533.17,50.49L533.82,49.21L534.48,46.66L535.99,45.38L537.23,42.82L537.56,41.55L538.37,37.71L538.73,36.44L538.98,33.88L539.03,37.71L539.42,36.44L539.61,35.16L540,31.33" style="fill: rgb(255, 127, 14); fill-opacity: 0.5; stroke-width: 0;"/></g></g><g class="errorbars"/><g class="lines"><path class="js-line" d="M0,318.72L0,316.17L0.57,317.45L1.85,318.72L1.97,317.45L2.99,318.72L3.83,312.34L3.86,313.61L4.54,312.34L4.97,307.23L5.15,308.5L5.52,309.78L5.69,305.95L5.99,311.06L6.13,308.5L6.43,309.78L7.12,298.29L7.24,297.01L7.41,295.73L7.68,298.29L7.68,299.56L7.69,300.84L7.86,290.62L8.56,289.34L8.95,298.29L8.95,299.56L9.69,308.5L9.7,307.23L9.82,305.95L10.11,302.12L10.11,300.84L10.56,298.29L10.59,302.12L10.98,303.39L11,302.12L11.56,305.95L11.68,304.67L11.83,303.39L12.81,285.51L12.85,291.9L12.85,293.18L12.97,290.62L13.28,294.45L13.46,291.9L13.7,290.62L14.1,284.24L14.25,288.07L14.66,286.79L14.86,285.51L14.99,288.07L15.69,289.34L15.86,293.18L17.07,291.9L17.67,289.34L17.8,288.07L18.54,282.96L18.54,284.24L18.68,282.96L19.12,284.24L21.69,282.96L21.69,284.24L22.1,280.4L22.1,282.96L23.64,281.68L23.84,282.96L23.99,281.68L24.84,280.4L25.56,277.85L25.67,279.13L25.99,277.85L26.74,286.79L26.81,285.51L27.09,281.68L27.53,284.24L27.55,285.51L27.7,284.24L27.95,285.51L29.13,286.79L30.59,282.96L30.81,284.24L30.85,288.07L30.85,288.07L31.65,286.79L32.13,290.62L32.13,290.62L32.56,289.34L32.75,295.73L33.66,297.01L34.37,294.45L34.37,295.73L34.51,297.01L35.41,293.18L35.52,294.45L36.15,295.73L36.52,294.45L36.52,295.73L36.66,289.34L36.95,290.62L37.65,289.34L37.89,285.51L38.08,293.18L38.59,294.45L38.66,293.18L39.1,297.01L39.16,298.29L39.39,293.18L39.68,294.45L39.98,295.73L40.84,289.34L40.97,293.18L41.32,291.9L41.53,289.34L41.55,291.9L41.69,293.18L43.1,285.51L43.79,284.24L44.09,282.96L44.71,284.24L45.39,285.51L45.68,284.24L45.7,288.07L46.16,282.96L46.42,284.24L46.49,282.96L46.49,281.68L47.12,291.9L47.52,290.62L47.53,293.18L47.7,289.34L48.12,291.9L48.68,293.18L48.69,297.01L48.98,294.45L49.55,295.73L49.94,294.45L49.94,295.73L50.65,294.45L50.65,295.73L50.84,293.18L50.96,293.18L51.81,291.9L52.99,289.34L53.55,290.62L53.55,291.9L53.98,288.07L54.14,290.62L54.59,289.34L54.69,288.07L55,291.9L55.84,290.62L57.18,285.51L57.69,284.24L58.93,272.74L59.01,275.29L59.1,276.57L59.1,277.85L59.7,275.29L59.87,274.02L60,272.74L60.01,274.02L61.59,272.74L62.12,266.35L62.64,267.63L63.13,265.08L63.24,266.35L63.7,265.08L65.1,251.03L65.12,253.58L65.87,252.3L66.53,254.86L66.53,256.13L66.54,262.52L66.84,262.52L67.55,261.24L68.82,257.41L69.57,256.13L69.82,263.8L70.73,262.52L71.84,275.29L71.99,274.02L72.52,272.74L72.52,271.46L72.92,271.46L73.38,272.74L74.47,268.91L74.48,270.18L74.94,267.63L74.99,268.91L75.86,267.63L76.65,266.35L77.16,265.08L80.5,254.86L80.51,256.13L80.96,259.97L81.1,256.13L81.51,257.41L81.8,258.69L81.86,254.86L82.07,257.41L82.81,258.69L83.14,252.3L83.15,253.58L84.3,252.3L84.5,253.58L84.7,252.3L84.94,251.03L84.97,249.75L85.69,253.58L85.82,252.3L85.96,253.58L86.54,249.75L86.54,251.03L86.68,252.3L87.09,257.41L87.51,256.13L87.85,254.86L87.85,252.3L87.97,256.13L88.94,254.86L88.94,256.13L88.97,253.58L89.64,256.13L89.82,254.86L90.63,257.41L90.96,256.13L91.54,257.41L91.63,258.69L91.95,263.8L92.49,262.52L92.8,271.46L93.1,268.91L93.57,267.63L94.64,263.8L94.77,265.08L94.78,266.35L96.65,258.69L96.67,259.97L98.79,252.3L98.93,253.58L98.93,254.86L99.83,257.41L99.94,258.69L100.8,270.18L101.11,268.91L101.53,271.46L101.53,270.18L101.62,268.91L101.66,271.46L102.09,258.69L102.1,258.69L102.52,257.41L102.84,254.86L103.1,261.24L103.5,259.97L104.51,257.41L104.51,258.69L104.51,259.97L104.63,262.52L105.08,261.24L105.57,259.97L105.93,263.8L106.06,261.24L106.47,259.97L106.5,261.24L107.06,258.69L107.08,259.97L107.67,258.69L107.78,257.41L107.79,258.69L108.48,259.97L108.48,261.24L109.09,259.97L109.66,258.69L109.9,254.86L110.07,254.86L110.5,253.58L111.87,247.19L111.91,248.47L111.99,249.75L114.08,245.92L114.65,247.19L116.06,243.36L116.53,244.64L116.83,243.36L117.68,274.02L117.79,272.74L118.41,270.18L118.69,271.46L119.1,270.18L119.1,271.46L120.1,270.18L120.5,271.46L120.81,270.18L120.82,268.91L121.52,267.63L121.77,268.91L121.78,271.46L122.52,265.08L122.53,266.35L123.58,261.24L123.81,262.52L123.95,263.8L124.07,267.63L125.83,266.35L126.05,267.63L126.11,266.35L126.63,265.08L127.08,259.97L127.87,258.69L129.59,253.58L129.97,254.86L130.44,252.3L130.52,253.58L130.52,254.86L130.67,261.24L131.04,258.69L131.58,257.41L132.11,254.86L132.35,256.13L132.96,261.24L133.68,259.97L134.67,254.86L135.06,256.13L135.75,254.86L136.83,253.58L137.98,249.75L138.8,251.03L139.55,249.75L139.62,251.03L140.14,249.75L140.5,248.47L140.51,251.03L141.05,245.92L141.05,245.92L141.5,244.64L141.51,242.08L142.08,243.36L142.44,242.08L142.95,239.53L142.98,238.25L143.05,236.97L143.1,240.81L143.66,239.53L143.68,240.81L144.1,238.25L144.73,239.53L145.13,235.7L145.39,244.64L145.39,245.92L145.39,247.19L146.05,243.36L146.12,243.36L146.52,244.64L146.79,243.36L146.81,245.92L148,244.64L148.66,243.36L148.78,245.92L149.6,244.64L149.62,245.92L150.27,242.08L150.34,243.36L150.91,244.64L151.52,243.36L151.53,244.64L151.56,243.36L152.66,242.08L152.67,243.36L152.85,239.53L153.13,239.53L153.64,238.25L154.94,233.14L155.46,234.42L155.47,233.14L156.14,239.53L156.51,238.25L157.72,236.97L158.06,238.25L160.49,231.87L160.64,233.14L161.16,228.03L161.46,226.76L162.78,219.09L163.52,217.82L163.52,219.09L163.91,217.82L165.02,216.54L165.07,215.26L165.53,220.37L165.97,219.09L167.04,216.54L167.04,215.26L167.06,213.98L167.27,222.92L168.56,221.65L168.81,219.09L169.93,217.82L170.66,222.92L171.02,221.65L173.95,211.43L174.02,210.15L174.07,211.43L175.83,210.15L176.08,215.26L176.09,216.54L176.1,220.37L176.51,217.82L178.49,216.54L178.51,219.09L178.67,217.82L179.42,216.54L179.94,211.43L179.95,212.71L180.48,213.98L180.84,215.26L181.75,210.15L181.81,211.43L181.95,212.71L182.8,211.43L182.81,212.71L185.96,207.6L186.06,206.32L186.64,202.49L186.65,203.76L187.07,202.49L187.1,205.04L187.77,203.76L187.95,202.49L188.64,203.76L188.94,202.49L189.69,201.21L189.88,199.93L190.65,197.38L190.79,196.1L190.97,197.38L191.12,194.82L191.13,196.1L191.94,194.82L193.33,185.88L193.33,188.44L193.6,187.16L193.94,184.61L194.26,185.88L194.78,184.61L194.99,182.05L195.45,184.61L195.72,183.33L196.11,180.77L196.67,179.5L197.85,178.22L197.86,179.5L197.94,178.22L197.97,179.5L199.33,178.22L200.08,179.5L200.82,178.22L201.05,176.94L201.05,178.22L202.93,176.94L203.64,175.66L203.65,176.94L203.65,178.22L204.04,176.94L204.89,178.22L204.89,179.5L205.59,179.5L205.77,178.22L206.75,175.66L207.49,174.39L208.14,170.55L208.52,171.83L209.93,166.72L210.26,168L211.7,166.72L211.92,165.45L212.93,164.17L213.05,165.45L213.78,164.17L215.6,160.34L215.9,161.61L216.27,157.78L217.02,156.5L217.46,159.06L217.5,157.78L217.78,156.5L218.53,153.95L218.74,155.23L218.78,156.5L218.81,160.34L219.53,157.78L219.55,156.5L219.99,155.23L220.49,162.89L220.51,161.61L221.27,159.06L221.39,160.34L221.47,161.61L221.94,157.78L222.08,160.34L222.11,161.61L222.78,165.45L222.78,166.72L223.08,183.33L223.59,182.05L223.87,189.71L224.47,188.44L224.47,189.71L225.06,184.61L225.06,185.88L225.23,187.16L225.51,188.44L225.67,185.88L225.78,184.61L226.76,179.5L227.06,178.22L227.55,174.39L227.59,173.11L227.69,178.22L228.63,176.94L230.66,174.39L230.69,173.11L231.28,166.72L231.66,165.45L232.11,166.72L233.79,165.45L234.95,162.89L235.03,161.61L235.89,160.34L236.31,161.61L237.06,159.06L238.93,157.78L239.52,155.23L239.6,153.95L239.76,151.39L240.5,150.12L240.63,151.39L240.81,150.12L241.98,148.84L242.3,145.01L242.32,152.67L242.32,153.95L242.32,155.23L242.88,150.12L243.32,148.84L243.53,150.12L244.5,148.84L244.66,150.12L244.9,148.84L245.5,150.12L245.57,148.84L245.75,153.95L246.19,151.39L246.46,152.67L246.76,151.39L246.79,153.95L246.89,153.95L246.9,155.23L247.92,151.39L248.37,150.12L248.79,147.56L248.92,153.95L249.3,152.67L249.61,151.39L249.76,152.67L249.8,153.95L249.88,152.67L250.19,155.23L250.51,156.5L250.6,153.95L250.63,164.17L250.64,165.45L251.46,187.16L251.59,185.88L251.9,187.16L252.45,185.88L253.5,180.77L253.59,182.05L254.91,173.11L255.06,174.39L255.34,173.11L256.59,169.28L256.6,170.55L256.74,171.83L257.34,168L257.65,166.72L257.85,165.45L258.5,166.72L259.13,160.34L259.6,159.06L260.08,153.95L260.1,155.23L260.64,156.5L261.47,151.39L261.65,150.12L262.93,142.45L263.37,141.18L263.57,139.9L264.62,138.62L266.06,130.96L266.48,129.68L267.48,125.85L267.52,127.13L268.89,120.74L269.56,119.46L271.57,113.08L271.57,114.35L274.59,97.75L274.81,99.03L274.83,101.58L275.76,100.3L275.76,101.58L276.49,97.75L277.12,96.47L277.42,97.75L278.6,96.47L278.89,92.64L281.37,93.92L281.53,123.29L282.46,122.02L283.65,123.29L283.8,122.02L283.8,120.74L283.89,124.57L284.07,122.02L284.68,123.29L287.62,122.02L288.36,120.74L288.92,116.91L288.93,115.63L289.05,118.18L289.58,116.91L289.7,115.63L289.75,116.91L290.7,115.63L291.89,122.02L292.01,120.74L292.23,122.02L292.92,116.91L293.59,115.63L293.63,116.91L294.15,111.8L294.52,113.08L294.81,127.13L295.76,125.85L295.94,127.13L296.46,124.57L296.47,125.85L296.47,127.13L297.49,124.57L297.66,125.85L297.77,123.29L298.22,124.57L298.6,125.85L299.07,127.13L299.59,125.85L301.07,120.74L301.39,119.46L301.72,122.02L301.87,116.91L301.99,118.18L302.05,116.91L302.6,118.18L303.76,116.91L303.78,118.18L304.33,115.63L304.68,114.35L305,109.24L305.27,110.52L305.66,111.8L305.67,116.91L305.86,114.35L306.91,113.08L307.64,124.57L307.64,123.29L307.74,122.02L307.77,120.74L308.09,132.24L308.24,132.24L308.34,133.51L308.38,142.45L309.09,139.9L309.45,141.18L310.16,136.07L310.33,137.34L311.01,134.79L311.56,133.51L311.59,134.79L311.87,130.96L312.7,129.68L312.93,130.96L312.94,129.68L313.57,128.4L313.89,132.24L314,128.4L314.46,127.13L314.86,123.29L315.5,122.02L315.71,120.74L317.05,119.46L317.73,115.63L317.79,114.35L319.01,106.69L320.01,105.41L322.74,96.47L323.86,95.19L324.65,92.64L325.48,91.36L325.62,88.81L326.37,90.08L326.73,109.24L326.93,107.97L327.21,109.24L327.5,107.97L327.52,110.52L327.87,109.24L328.51,110.52L329.03,109.24L329.77,110.52L330.91,106.69L331.87,105.41L333.17,104.13L333.51,105.41L333.57,106.69L334.58,105.41L335.11,102.86L335.57,104.13L335.75,102.86L336.19,104.13L336.21,105.41L336.21,106.69L336.9,104.13L337.59,105.41L338.58,141.18L338.87,139.9L339.04,136.07L339.49,141.18L339.65,142.45L341.11,130.96L341.46,129.68L341.58,132.24L342.06,130.96L342.49,129.68L343.48,132.24L343.88,130.96L344.87,129.68L344.88,130.96L345.49,129.68L345.72,128.4L346.07,127.13L346.48,128.4L346.86,127.13L347.46,125.85L347.71,124.57L347.92,122.02L349.04,120.74L349.31,119.46L350.42,118.18L352.04,113.08L352.04,114.35L352.07,115.63L353.03,110.52L353.57,111.8L354.42,106.69L354.43,107.97L354.92,106.69L354.97,107.97L355.6,105.41L355.6,104.13L355.71,101.58L357.03,100.3L357.89,97.75L357.92,96.47L358.75,93.92L359.08,92.64L360.03,97.75L360.41,96.47L360.6,95.19L362.13,92.64L362.34,93.92L363.45,91.36L364.02,90.08L365.59,84.97L366.2,83.7L366.57,82.42L366.79,83.7L366.85,84.97L366.86,83.7L367.75,82.42L368.88,79.87L368.99,78.59L369.99,77.31L370.01,78.59L370.08,96.47L370.73,92.64L370.99,93.92L371.62,91.36L371.86,90.08L372.61,91.36L373.53,90.08L374.16,86.25L374.27,87.53L374.56,86.25L375.85,83.7L376.7,82.42L377.33,79.87L377.33,78.59L377.33,72.2L378.6,70.92L379.63,67.09L381.15,68.37L381.15,70.92L381.57,67.09L381.57,68.37L381.92,67.09L382.42,68.37L382.74,67.09L382.75,65.82L383.01,67.09L383.89,65.82L384.03,64.54L384.03,65.82L385.36,67.09L386,65.82L386.06,67.09L386.22,68.37L386.85,69.65L387.16,70.92L387.36,84.97L388.35,86.25L389.37,83.7L389.89,82.42L390.02,79.87L390.06,83.7L390.48,84.97L391.7,76.03L391.71,77.31L391.71,76.03L391.73,82.42L392.05,79.87L392.61,78.59L393.93,74.76L395.06,73.48L395.77,69.65L396.48,68.37L396.86,64.54L397.34,67.09L397.59,65.82L398.62,59.43L398.62,60.71L400.06,59.43L400.84,53.04L400.85,55.6L401.67,54.32L402,55.6L402.04,54.32L402.55,53.04L403.11,50.49L403.77,51.76L404.72,47.93L405.36,46.66L405.98,44.1L406.21,45.38L406.34,46.66L406.66,47.93L406.86,46.66L408.05,47.93L410.45,38.99L410.73,37.71L411.72,36.44L412.45,37.71L413.55,33.88L413.63,32.61L413.69,33.88L413.86,28.77L414.48,30.05L414.56,27.5L415.71,26.22L415.88,23.66L416.06,26.22L416.32,27.5L416.72,26.22L416.89,27.5L416.92,28.77L417.19,31.33L417.73,30.05L418.77,22.39L418.77,24.94L418.82,26.22L419.56,23.66L419.57,24.94L419.77,26.22L420.17,27.5L420.42,24.94L420.69,23.66L420.85,24.94L420.97,22.39L421.29,24.94L421.33,26.22L421.43,27.5L421.87,23.66L421.93,22.39L422.98,18.55L422.98,17.28L423.47,16L423.55,17.28L423.57,18.55L423.89,17.28L424.11,21.11L424.12,22.39L424.55,36.44L424.84,24.94L424.92,26.22L425.54,33.88L425.57,30.05L425.69,31.33L427.38,22.39L427.44,23.66L427.58,36.44L427.98,31.33L428.27,30.05L428.31,32.61L428.84,30.05L429.42,28.77L430.07,32.61L430.35,31.33L430.58,30.05L430.73,32.61L430.81,31.33L431.39,30.05L432.03,40.27L432.06,38.99L432.44,37.71L432.51,36.44L432.84,40.27L433.11,38.99L433.45,37.71L433.87,33.88L434.05,36.44L434.59,35.16L435.01,31.33L435.41,32.61L435.41,33.88L435.99,51.76L436.27,53.04L436.91,49.21L437.75,47.93L437.89,51.76L438.88,53.04L439.98,50.49L440.02,49.21L440.18,50.49L440.56,49.21L441.02,47.93L441.48,45.38L441.6,49.21L441.74,47.93L441.98,46.66L442.63,44.1L442.99,45.38L443.61,51.76L443.84,49.21L443.86,47.93L444.57,51.76L444.72,50.49L445.11,41.55L445.48,49.21L445.58,47.93L445.87,44.1L445.98,50.49L445.98,51.76L445.99,53.04L446.58,44.1L446.7,45.38L446.7,46.66L447.19,41.55L447.41,42.82L447.61,44.1L447.86,41.55L448.02,51.76L448.02,53.04L448.32,69.65L448.74,64.54L448.84,65.82L448.85,67.09L449.61,65.82L449.84,63.26L449.9,73.48L450.02,72.2L450.32,70.92L450.42,72.2L450.83,70.92L450.87,72.2L450.98,69.65L451.59,68.37L452.23,64.54L452.41,63.26L453.16,56.87L453.42,59.43L453.44,60.71L453.6,59.43L453.98,65.82L454.56,64.54L454.69,65.82L454.95,63.26L455.13,64.54L455.47,65.82L456.13,55.6L456.43,54.32L456.45,53.04L456.54,56.87L456.89,54.32L457.39,53.04L457.4,54.32L457.99,44.1L458.03,46.66L458.83,45.38L459.32,41.55L459.88,42.82L460.01,40.27L460.3,46.66L460.68,45.38L460.7,44.1L461.02,42.82L461.28,45.38L461.58,44.1L461.76,46.66L462.12,44.1L462.47,45.38L463,38.99L463.35,41.55L463.41,42.82L463.54,41.55L463.57,45.38L464.01,42.82L464.44,41.55L464.46,40.27L465,51.76L465.02,49.21L465.16,47.93L466.41,51.76L466.6,50.49L466.85,53.04L467.32,51.76L467.57,50.49L468.57,55.6L468.71,53.04L468.75,51.76L468.86,49.21L469.41,53.04L469.42,53.04L469.76,51.76L470.01,47.93L470.41,51.76L470.44,53.04L470.76,51.76L471.6,72.2L471.87,70.92L471.96,69.65L472.7,67.09L472.73,65.82L473.58,55.6L473.68,56.87L473.75,54.32L473.86,65.82L474.15,64.54L474.15,65.82L474.71,64.54L474.72,65.82L474.99,67.09L475.39,74.76L475.68,72.2L475.83,70.92L475.95,65.82L476.56,67.09L476.59,65.82L476.81,63.26L476.84,68.37L477,67.09L477.48,68.37L477.75,69.65L478.04,65.82L478.4,64.54L478.7,68.37L478.72,69.65L479.99,65.82L480.71,64.54L480.97,59.43L481.28,64.54L481.59,63.26L482.71,53.04L483.48,54.32L484.01,67.09L484.42,65.82L484.51,68.37L484.86,60.71L485.03,61.98L485.29,60.71L485.76,68.37L486.46,67.09L486.65,65.82L486.98,68.37L486.99,69.65L487.64,67.09L487.89,81.14L487.98,79.87L487.98,77.31L488.55,84.97L488.83,83.7L489.04,84.97L490.51,83.7L491.1,84.97L491.4,83.7L491.86,84.97L491.88,83.7L492.42,82.42L492.42,81.14L492.68,84.97L492.77,83.7L493.39,82.42L493.61,83.7L493.95,82.42L494.34,81.14L494.42,78.59L494.56,82.42L494.85,81.14L495.38,79.87L495.46,78.59L495.89,83.7L495.89,84.97L497,81.14L497.39,82.42L497.64,79.87L497.95,81.14L497.95,82.42L498.55,84.97L498.73,83.7L499.52,76.03L499.55,78.59L499.55,79.87L499.55,81.14L499.71,78.59L500.56,79.87L500.56,78.59L500.84,78.59L502.01,77.31L502.56,73.48L502.81,76.03L502.91,74.76L503.55,69.65L503.75,68.37L504.4,70.92L504.43,68.37L504.58,67.09L505.41,65.82L505.98,67.09L506,69.65L506.54,69.65L506.84,68.37L506.84,67.09L507.55,69.65L507.75,68.37L507.84,67.09L508.76,65.82L509.38,67.09L509.82,65.82L510.58,60.71L510.82,59.43L510.82,60.71L510.99,59.43L511.71,58.15L511.97,60.71L512.43,59.43L512.54,60.71L512.96,55.6L513.12,58.15L513.4,59.43L513.66,55.6L515.46,56.87L515.79,53.04L516.43,54.32L516.68,67.09L517.13,63.26L517.26,64.54L517.39,67.09L517.97,65.82L518.38,64.54L518.69,60.71L519.65,59.43L519.77,56.87L520.8,55.6L521.47,53.04L521.58,51.76L521.7,49.21L523.14,50.49L523.56,69.65L523.85,67.09L523.93,65.82L523.99,68.37L524.73,67.09L525.68,63.26L525.68,64.54L526.41,70.92L526.45,69.65L526.89,68.37L527.53,63.26L527.56,64.54L528.01,63.26L530.51,58.15L530.83,56.87L531.47,54.32L531.95,53.04L532.91,50.49L532.97,49.21L533.17,50.49L533.82,49.21L534.48,46.66L535.99,45.38L537.23,42.82L537.56,41.55L538.37,37.71L538.73,36.44L538.98,33.88L539.03,37.71L539.42,36.44L539.61,35.16L540,31.33" style="vector-effect: none; fill: none; stroke: rgb(255, 127, 14); stroke-opacity: 1; stroke-width: 2px; opacity: 1;"/></g><g class="points"/><g class="text"/></g></g></g></g><g class="zerolinelayer-above"/><path class="xlines-above crisp" d="M0,0" style="fill: none;"/><path class="ylines-above crisp" d="M0,0" style="fill: none;"/><g class="overlines-above"/><g class="xaxislayer-above"><g class="xtick"><text text-anchor="middle" x="0" y="439" transform="translate(101.03999999999999,0)" style="font-family: 'Open Sans'; font-size: 18px; fill: rgb(0, 0, 0); fill-opacity: 1; white-space: pre;">2016</text></g><g class="xtick"><text text-anchor="middle" x="0" y="439" style="font-family: 'Open Sans'; font-size: 18px; fill: rgb(0, 0, 0); fill-opacity: 1; white-space: pre;" transform="translate(205.44,0)">2018</text></g><g class="xtick"><text text-anchor="middle" x="0" y="439" style="font-family: 'Open Sans'; font-size: 18px; fill: rgb(0, 0, 0); fill-opacity: 1; white-space: pre;" transform="translate(309.69,0)">2020</text></g><g class="xtick"><text text-anchor="middle" x="0" y="439" style="font-family: 'Open Sans'; font-size: 18px; fill: rgb(0, 0, 0); fill-opacity: 1; white-space: pre;" transform="translate(414.09,0)">2022</text></g><g class="xtick"><text text-anchor="middle" x="0" y="439" style="font-family: 'Open Sans'; font-size: 18px; fill: rgb(0, 0, 0); fill-opacity: 1; white-space: pre;" transform="translate(518.35,0)">2024</text></g></g><g class="yaxislayer-above"><g class="ytick"><text text-anchor="end" x="79" y="6.3" transform="translate(0,420)" style="font-family: 'Open Sans'; font-size: 18px; fill: rgb(0, 0, 0); fill-opacity: 1; white-space: pre;">0</text></g><g class="ytick"><text text-anchor="end" x="79" y="6.3" style="font-family: 'Open Sans'; font-size: 18px; fill: rgb(0, 0, 0); fill-opacity: 1; white-space: pre;" transform="translate(0,356.13)">50</text></g><g class="ytick"><text text-anchor="end" x="79" y="6.3" style="font-family: 'Open Sans'; font-size: 18px; fill: rgb(0, 0, 0); fill-opacity: 1; white-space: pre;" transform="translate(0,292.27)">100</text></g><g class="ytick"><text text-anchor="end" x="79" y="6.3" style="font-family: 'Open Sans'; font-size: 18px; fill: rgb(0, 0, 0); fill-opacity: 1; white-space: pre;" transform="translate(0,228.4)">150</text></g><g class="ytick"><text text-anchor="end" x="79" y="6.3" style="font-family: 'Open Sans'; font-size: 18px; fill: rgb(0, 0, 0); fill-opacity: 1; white-space: pre;" transform="translate(0,164.54000000000002)">200</text></g><g class="ytick"><text text-anchor="end" x="79" y="6.3" style="font-family: 'Open Sans'; font-size: 18px; fill: rgb(0, 0, 0); fill-opacity: 1; white-space: pre;" transform="translate(0,100.67)">250</text></g></g><g class="overaxes-above"/></g></g><g class="polarlayer"/><g class="smithlayer"/><g class="ternarylayer"/><g class="geolayer"/><g class="funnelarealayer"/><g class="pielayer"/><g class="iciclelayer"/><g class="treemaplayer"/><g class="sunburstlayer"/><g class="glimages"/><defs id="topdefs-81db4e"><g class="clips"/></defs><g class="layer-above"><g class="imagelayer"/><g class="shapelayer"/></g><g class="infolayer"><g class="g-gtitle"><text class="gtitle" x="35" y="50" text-anchor="start" dy="0em" style="opacity: 1; font-family: 'Open Sans'; font-size: 25px; fill: rgb(0, 0, 0); fill-opacity: 1; white-space: pre;">MultiQC/MultiQC - Open Issues Over Time</text></g><g class="g-xtitle"><text class="xtitle" x="350" y="472.9" text-anchor="middle" style="opacity: 1; font-family: 'Open Sans'; font-size: 22px; fill: rgb(0, 0, 0); fill-opacity: 1; white-space: pre;">Date</text></g><g class="g-ytitle"><text class="ytitle" transform="rotate(-90,29.799999999999997,260)" x="29.799999999999997" y="260" text-anchor="middle" style="opacity: 1; font-family: 'Open Sans'; font-size: 22px; fill: rgb(0, 0, 0); fill-opacity: 1; white-space: pre;">Number of Open Issues</text></g></g></svg>