<svg class="main-svg" xmlns="http://www.w3.org/2000/svg" xmlns:xlink="http://www.w3.org/1999/xlink" width="700" height="500" style="" viewBox="0 0 700 500"><rect x="0" y="0" width="700" height="500" style="fill: rgb(0, 0, 0); fill-opacity: 0;"/><defs id="defs-7beccd"><g class="clips"><clipPath id="clip7beccdxyplot" class="plotclip"><rect width="540" height="320"/></clipPath><clipPath class="axesclip" id="clip7beccdx"><rect x="80" y="0" width="540" height="500"/></clipPath><clipPath class="axesclip" id="clip7beccdy"><rect x="0" y="100" width="700" height="320"/></clipPath><clipPath class="axesclip" id="clip7beccdxy"><rect x="80" y="100" width="540" height="320"/></clipPath></g><g class="gradients"/><g class="patterns"/></defs><g class="bglayer"><rect class="bg" x="80" y="100" width="540" height="320" style="fill: rgb(0, 0, 0); fill-opacity: 0; stroke-width: 0;"/></g><g class="layer-below"><g class="imagelayer"/><g class="shapelayer"/></g><g class="cartesianlayer"><g class="subplot xy"><g class="layer-subplot"><g class="shapelayer"/><g class="imagelayer"/></g><g class="minor-gridlayer"><g class="x"/><g class="y"/></g><g class="gridlayer"><g class="x"><path class="xgrid crisp" transform="translate(101.16,0)" d="M0,100v320" style="stroke: rgb(255, 255, 255); stroke-opacity: 1; stroke-width: 1px;"/><path class="xgrid crisp" transform="translate(206.18,0)" d="M0,100v320" style="stroke: rgb(255, 255, 255); stroke-opacity: 1; stroke-width: 1px;"/><path class="xgrid crisp" transform="translate(311.06,0)" d="M0,100v320" style="stroke: rgb(255, 255, 255); stroke-opacity: 1; stroke-width: 1px;"/><path class="xgrid crisp" transform="translate(416.08,0)" d="M0,100v320" style="stroke: rgb(255, 255, 255); stroke-opacity: 1; stroke-width: 1px;"/><path class="xgrid crisp" transform="translate(520.95,0)" d="M0,100v320" style="stroke: rgb(255, 255, 255); stroke-opacity: 1; stroke-width: 1px;"/></g><g class="y"><path class="ygrid crisp" transform="translate(0,335.56)" d="M80,0h540" style="stroke: rgb(255, 255, 255); stroke-opacity: 1; stroke-width: 1px;"/><path class="ygrid crisp" transform="translate(0,251.11)" d="M80,0h540" style="stroke: rgb(255, 255, 255); stroke-opacity: 1; stroke-width: 1px;"/><path class="ygrid crisp" transform="translate(0,166.67000000000002)" d="M80,0h540" style="stroke: rgb(255, 255, 255); stroke-opacity: 1; stroke-width: 1px;"/></g></g><g class="zerolinelayer"><path class="yzl zl crisp" transform="translate(0,420)" d="M80,0h540" style="stroke: rgb(255, 255, 255); stroke-opacity: 1; stroke-width: 2px;"/></g><g class="layer-between"><g class="shapelayer"/><g class="imagelayer"/></g><path class="xlines-below"/><path class="ylines-below"/><g class="overlines-below"/><g class="xaxislayer-below"/><g class="yaxislayer-below"/><g class="overaxes-below"/><g class="overplot"><g class="xy" transform="translate(80,100)" clip-path="url(#clip7beccdxyplot)"><g class="scatterlayer mlayer"><g class="trace scatter traceaefb76" style="stroke-miterlimit: 2;"><g class="fills"><g><path class="js-fill" d="M540,320L0,320L0,319.83L0,319.49L1.98,319.32L3.85,318.31L4.57,318.14L5.18,316.96L5.56,316.79L6.17,315.78L6.47,315.61L8.61,312.06L9.02,311.89L10.17,310.88L10.17,310.71L11.06,309.87L11.75,309.7L12.77,307.5L12.77,307.33L13.05,306.66L13.54,306.49L14.23,304.97L14.75,304.8L15.93,304.29L17.17,304.12L18.4,303.11L18.65,302.94L18.79,302.77L21.81,302.6L27.04,300.07L27.15,299.9L27.86,299.56L29.75,299.4L32.75,297.54L33.97,297.37L37.93,294.67L37.93,294.5L38.24,293.65L38.89,293.48L41.08,291.46L41.08,291.29L41.77,290.44L42.07,290.28L44.35,288.25L45.65,288.08L47.83,286.05L47.97,285.88L48.35,285.21L49.02,285.04L52.37,283.35L53.3,283.18L56.41,281.66L56.41,281.49L58.73,280.14L59.02,279.97L60.35,278.62L61.96,278.45L65.27,275.41L65.36,275.24L65.48,274.91L66.26,274.74L68.87,273.39L68.91,273.22L69.23,272.88L69.98,272.71L71.15,272.37L72.12,272.2L72.42,271.36L72.95,271.19L73.35,270.85L74.14,270.68L74.14,270.52L74.91,270.35L81.57,267.31L81.58,267.14L83.45,265.96L83.47,265.79L83.63,265.28L84.8,265.11L87.32,263.25L87.37,263.08L97.11,259.03L97.23,258.86L102.27,256.33L102.28,256.16L102.7,254.3L102.7,254.13L103.45,253.29L103.7,253.12L108.31,250.59L108.42,250.42L110.41,249.4L110.55,249.24L112.54,248.05L113.16,247.88L117.47,246.7L117.53,246.53L122.24,244.84L122.52,244.68L123.25,244L123.49,243.83L124.55,242.99L126.58,242.82L127.8,241.47L127.83,241.3L130.2,240.12L130.36,239.95L132.36,238.93L132.42,238.76L132.89,238.26L133.6,238.09L135.47,236.57L136.3,236.4L138.8,235.56L139.63,235.39L142.34,233.19L142.35,233.02L142.92,232.68L143.28,232.52L146.82,230.66L146.83,230.49L147.66,229.81L148.88,229.64L153.72,227.79L153.75,227.62L155.86,226.27L156.39,226.1L161.45,224.58L161.59,224.41L162.41,223.73L162.59,223.56L174.53,218.67L174.56,218.5L175.05,217.82L176.87,217.65L182.73,215.46L182.83,215.29L187.43,213.6L187.59,213.43L188.18,212.76L188.76,212.59L189.06,212.25L190.06,212.08L190.81,211.74L191,211.57L191.78,210.9L191.92,210.73L192.25,210.05L193.08,209.88L195.09,208.2L195.94,208.03L197.27,206.84L197.84,206.68L205,204.99L205.25,204.82L208.87,203.64L208.9,203.47L211.17,202.45L212.95,202.28L214.2,201.95L215.05,201.78L218.79,200.26L219.07,200.09L224.99,196.2L225.03,196.04L225.8,195.7L225.96,195.53L228.94,192.66L229.99,192.49L232.3,191.48L232.44,191.31L233.03,190.97L235.17,190.8L240.94,189.11L241.02,188.94L241.92,188.44L242.24,188.27L243.76,187.42L243.94,187.25L244.76,186.41L245.95,186.24L247.65,185.06L248.22,184.89L248.96,184.04L249.39,183.88L250.2,182.86L250.26,182.69L251.36,182.02L252.07,181.85L252.81,180.84L253.08,180.67L256.86,177.96L257.37,177.8L260.05,176.44L260.15,176.28L260.67,175.77L261.14,175.6L265.13,172.56L266.19,172.39L268.2,170.87L268.61,170.7L273.39,168.17L273.54,168L274.16,167.32L274.4,167.16L278.13,165.47L278.77,165.3L290.44,163.27L290.44,163.1L291.42,162.43L292.42,162.26L294.17,161.08L294.4,160.91L297.69,159.22L298.22,159.05L298.51,158.54L299.25,158.37L301.37,157.7L301.81,157.53L303.55,156.18L303.58,156.01L304.31,155.5L305.56,155.33L307.67,153.31L308.73,153.14L309.63,151.62L309.7,151.45L310.39,150.94L310.73,150.77L313.72,148.92L314.55,148.75L317.58,146.55L318.93,146.38L320.48,145.03L320.64,144.86L322.79,144.19L323.39,144.02L324.66,143.17L325.79,143L326.58,142.67L327.41,142.5L327.55,142.16L328.67,141.99L329.44,141.15L329.81,140.98L338.6,138.95L338.9,138.78L341.76,137.6L341.79,137.43L343.06,136.25L343.13,136.08L345.92,135.4L346.69,135.24L349.98,133.38L351.11,133.21L352.81,132.7L353.7,132.53L357.03,130.17L357.33,130L364.75,126.96L365.61,126.79L372.79,123.92L372.93,123.75L374.63,122.91L375.75,122.74L376.78,122.06L377.17,121.89L379.56,120.71L379.56,120.54L379.56,120.2L380.84,120.04L381.89,119.53L383.74,119.36L384.19,118.85L385.01,118.68L385.03,118.52L386.17,118.35L386.31,118.18L387.88,118.01L393.07,115.81L393.34,115.64L394.03,114.8L394.18,114.63L394.94,113.96L395.26,113.79L399.13,112.27L399.15,112.1L400.09,111.59L400.39,111.42L400.99,110.75L402.44,110.58L403.22,109.73L404.06,109.56L414.16,105.68L415.42,105.51L416.23,104.5L416.32,104.33L420.83,102.47L420.94,102.3L427.36,96.73L427.36,96.56L428.09,95.21L428.36,95.04L432.22,91.83L432.9,91.66L440.35,86.43L442.17,86.26L446.47,83.72L446.5,83.56L447.35,81.87L447.38,81.7L450.51,75.79L451.08,75.62L451.4,74.94L452.27,74.77L453.65,73.25L454.27,73.08L454.91,72.58L455.1,72.41L457.65,70.55L458.18,70.38L459.61,67.51L460.1,67.34L462.05,65.32L462.69,65.15L463.56,63.96L463.75,63.8L465.45,62.61L465.45,62.44L466.29,61.43L466.62,61.26L468.59,59.24L469.36,59.07L471.53,57.88L471.64,57.72L474.35,55.01L474.37,54.84L475.63,53.49L475.64,53.32L476.39,52.48L476.53,52.31L476.79,51.64L477.52,51.47L478.43,50.12L478.65,49.95L478.78,49.27L479.41,49.1L481.24,47.24L481.85,47.08L483.71,45.56L483.82,45.39L484.96,44.37L485.26,44.2L486.86,43.7L487.29,43.53L488.57,41.33L489.35,41.16L491.73,39.48L493.42,39.31L493.47,39.14L494.32,38.97L497.65,37.11L497.79,36.94L501.81,34.92L501.82,34.75L503.53,33.73L503.81,33.56L505.9,32.55L506.03,32.38L512.02,29.34L512.85,29.17L513.61,28.5L513.85,28.33L514.02,27.99L514.75,27.82L516.64,26.64L516.71,26.47L519.77,25.46L519.82,25.29L521.04,23.94L521.45,23.77L521.77,23.26L522.73,23.09L522.86,22.76L523.89,22.59L527.92,20.73L528.09,20.56L530.66,19.04L530.69,18.87L540,16" style="fill: rgb(255, 127, 14); fill-opacity: 0.5; stroke-width: 0;"/></g></g><g class="errorbars"/><g class="lines"><path class="js-line" d="M0,319.83L0,319.49L1.98,319.32L3.85,318.31L4.57,318.14L5.18,316.96L5.56,316.79L6.17,315.78L6.47,315.61L8.61,312.06L9.02,311.89L10.17,310.88L10.17,310.71L11.06,309.87L11.75,309.7L12.77,307.5L12.77,307.33L13.05,306.66L13.54,306.49L14.23,304.97L14.75,304.8L15.93,304.29L17.17,304.12L18.4,303.11L18.65,302.94L18.79,302.77L21.81,302.6L27.04,300.07L27.15,299.9L27.86,299.56L29.75,299.4L32.75,297.54L33.97,297.37L37.93,294.67L37.93,294.5L38.24,293.65L38.89,293.48L41.08,291.46L41.08,291.29L41.77,290.44L42.07,290.28L44.35,288.25L45.65,288.08L47.83,286.05L47.97,285.88L48.35,285.21L49.02,285.04L52.37,283.35L53.3,283.18L56.41,281.66L56.41,281.49L58.73,280.14L59.02,279.97L60.35,278.62L61.96,278.45L65.27,275.41L65.36,275.24L65.48,274.91L66.26,274.74L68.87,273.39L68.91,273.22L69.23,272.88L69.98,272.71L71.15,272.37L72.12,272.2L72.42,271.36L72.95,271.19L73.35,270.85L74.14,270.68L74.14,270.52L74.91,270.35L81.57,267.31L81.58,267.14L83.45,265.96L83.47,265.79L83.63,265.28L84.8,265.11L87.32,263.25L87.37,263.08L97.11,259.03L97.23,258.86L102.27,256.33L102.28,256.16L102.7,254.3L102.7,254.13L103.45,253.29L103.7,253.12L108.31,250.59L108.42,250.42L110.41,249.4L110.55,249.24L112.54,248.05L113.16,247.88L117.47,246.7L117.53,246.53L122.24,244.84L122.52,244.68L123.25,244L123.49,243.83L124.55,242.99L126.58,242.82L127.8,241.47L127.83,241.3L130.2,240.12L130.36,239.95L132.36,238.93L132.42,238.76L132.89,238.26L133.6,238.09L135.47,236.57L136.3,236.4L138.8,235.56L139.63,235.39L142.34,233.19L142.35,233.02L142.92,232.68L143.28,232.52L146.82,230.66L146.83,230.49L147.66,229.81L148.88,229.64L153.72,227.79L153.75,227.62L155.86,226.27L156.39,226.1L161.45,224.58L161.59,224.41L162.41,223.73L162.59,223.56L174.53,218.67L174.56,218.5L175.05,217.82L176.87,217.65L182.73,215.46L182.83,215.29L187.43,213.6L187.59,213.43L188.18,212.76L188.76,212.59L189.06,212.25L190.06,212.08L190.81,211.74L191,211.57L191.78,210.9L191.92,210.73L192.25,210.05L193.08,209.88L195.09,208.2L195.94,208.03L197.27,206.84L197.84,206.68L205,204.99L205.25,204.82L208.87,203.64L208.9,203.47L211.17,202.45L212.95,202.28L214.2,201.95L215.05,201.78L218.79,200.26L219.07,200.09L224.99,196.2L225.03,196.04L225.8,195.7L225.96,195.53L228.94,192.66L229.99,192.49L232.3,191.48L232.44,191.31L233.03,190.97L235.17,190.8L240.94,189.11L241.02,188.94L241.92,188.44L242.24,188.27L243.76,187.42L243.94,187.25L244.76,186.41L245.95,186.24L247.65,185.06L248.22,184.89L248.96,184.04L249.39,183.88L250.2,182.86L250.26,182.69L251.36,182.02L252.07,181.85L252.81,180.84L253.08,180.67L256.86,177.96L257.37,177.8L260.05,176.44L260.15,176.28L260.67,175.77L261.14,175.6L265.13,172.56L266.19,172.39L268.2,170.87L268.61,170.7L273.39,168.17L273.54,168L274.16,167.32L274.4,167.16L278.13,165.47L278.77,165.3L290.44,163.27L290.44,163.1L291.42,162.43L292.42,162.26L294.17,161.08L294.4,160.91L297.69,159.22L298.22,159.05L298.51,158.54L299.25,158.37L301.37,157.7L301.81,157.53L303.55,156.18L303.58,156.01L304.31,155.5L305.56,155.33L307.67,153.31L308.73,153.14L309.63,151.62L309.7,151.45L310.39,150.94L310.73,150.77L313.72,148.92L314.55,148.75L317.58,146.55L318.93,146.38L320.48,145.03L320.64,144.86L322.79,144.19L323.39,144.02L324.66,143.17L325.79,143L326.58,142.67L327.41,142.5L327.55,142.16L328.67,141.99L329.44,141.15L329.81,140.98L338.6,138.95L338.9,138.78L341.76,137.6L341.79,137.43L343.06,136.25L343.13,136.08L345.92,135.4L346.69,135.24L349.98,133.38L351.11,133.21L352.81,132.7L353.7,132.53L357.03,130.17L357.33,130L364.75,126.96L365.61,126.79L372.79,123.92L372.93,123.75L374.63,122.91L375.75,122.74L376.78,122.06L377.17,121.89L379.56,120.71L379.56,120.54L379.56,120.2L380.84,120.04L381.89,119.53L383.74,119.36L384.19,118.85L385.01,118.68L385.03,118.52L386.17,118.35L386.31,118.18L387.88,118.01L393.07,115.81L393.34,115.64L394.03,114.8L394.18,114.63L394.94,113.96L395.26,113.79L399.13,112.27L399.15,112.1L400.09,111.59L400.39,111.42L400.99,110.75L402.44,110.58L403.22,109.73L404.06,109.56L414.16,105.68L415.42,105.51L416.23,104.5L416.32,104.33L420.83,102.47L420.94,102.3L427.36,96.73L427.36,96.56L428.09,95.21L428.36,95.04L432.22,91.83L432.9,91.66L440.35,86.43L442.17,86.26L446.47,83.72L446.5,83.56L447.35,81.87L447.38,81.7L450.51,75.79L451.08,75.62L451.4,74.94L452.27,74.77L453.65,73.25L454.27,73.08L454.91,72.58L455.1,72.41L457.65,70.55L458.18,70.38L459.61,67.51L460.1,67.34L462.05,65.32L462.69,65.15L463.56,63.96L463.75,63.8L465.45,62.61L465.45,62.44L466.29,61.43L466.62,61.26L468.59,59.24L469.36,59.07L471.53,57.88L471.64,57.72L474.35,55.01L474.37,54.84L475.63,53.49L475.64,53.32L476.39,52.48L476.53,52.31L476.79,51.64L477.52,51.47L478.43,50.12L478.65,49.95L478.78,49.27L479.41,49.1L481.24,47.24L481.85,47.08L483.71,45.56L483.82,45.39L484.96,44.37L485.26,44.2L486.86,43.7L487.29,43.53L488.57,41.33L489.35,41.16L491.73,39.48L493.42,39.31L493.47,39.14L494.32,38.97L497.65,37.11L497.79,36.94L501.81,34.92L501.82,34.75L503.53,33.73L503.81,33.56L505.9,32.55L506.03,32.38L512.02,29.34L512.85,29.17L513.61,28.5L513.85,28.33L514.02,27.99L514.75,27.82L516.64,26.64L516.71,26.47L519.77,25.46L519.82,25.29L521.04,23.94L521.45,23.77L521.77,23.26L522.73,23.09L522.86,22.76L523.89,22.59L527.92,20.73L528.09,20.56L530.66,19.04L530.69,18.87L540,16" style="vector-effect: none; fill: none; stroke: rgb(255, 127, 14); stroke-opacity: 1; stroke-width: 2px; opacity: 1;"/></g><g class="points"/><g class="text"/></g></g></g></g><g class="zerolinelayer-above"/><path class="xlines-above crisp" d="M0,0" style="fill: none;"/><path class="ylines-above crisp" d="M0,0" style="fill: none;"/><g class="overlines-above"/><g class="xaxislayer-above"><g class="xtick"><text text-anchor="middle" x="0" y="439" transform="translate(101.16,0)" style="font-family: 'Open Sans'; font-size: 18px; fill: rgb(255, 255, 255); fill-opacity: 1; white-space: pre;">2016</text></g><g class="xtick"><text text-anchor="middle" x="0" y="439" style="font-family: 'Open Sans'; font-size: 18px; fill: rgb(255, 255, 255); fill-opacity: 1; white-space: pre;" transform="translate(206.18,0)">2018</text></g><g class="xtick"><text text-anchor="middle" x="0" y="439" style="font-family: 'Open Sans'; font-size: 18px; fill: rgb(255, 255, 255); fill-opacity: 1; white-space: pre;" transform="translate(311.06,0)">2020</text></g><g class="xtick"><text text-anchor="middle" x="0" y="439" style="font-family: 'Open Sans'; font-size: 18px; fill: rgb(255, 255, 255); fill-opacity: 1; white-space: pre;" transform="translate(416.08,0)">2022</text></g><g class="xtick"><text text-anchor="middle" x="0" y="439" style="font-family: 'Open Sans'; font-size: 18px; fill: rgb(255, 255, 255); fill-opacity: 1; white-space: pre;" transform="translate(520.95,0)">2024</text></g></g><g class="yaxislayer-above"><g class="ytick"><text text-anchor="end" x="79" y="6.3" transform="translate(0,420)" style="font-family: 'Open Sans'; font-size: 18px; fill: rgb(255, 255, 255); fill-opacity: 1; white-space: pre;">0</text></g><g class="ytick"><text text-anchor="end" x="79" y="6.3" style="font-family: 'Open Sans'; font-size: 18px; fill: rgb(255, 255, 255); fill-opacity: 1; white-space: pre;" transform="translate(0,335.56)">500</text></g><g class="ytick"><text text-anchor="end" x="79" y="6.3" style="font-family: 'Open Sans'; font-size: 18px; fill: rgb(255, 255, 255); fill-opacity: 1; white-space: pre;" transform="translate(0,251.11)">1000</text></g><g class="ytick"><text text-anchor="end" x="79" y="6.3" style="font-family: 'Open Sans'; font-size: 18px; fill: rgb(255, 255, 255); fill-opacity: 1; white-space: pre;" transform="translate(0,166.67000000000002)">1500</text></g></g><g class="overaxes-above"/></g></g><g class="polarlayer"/><g class="smithlayer"/><g class="ternarylayer"/><g class="geolayer"/><g class="funnelarealayer"/><g class="pielayer"/><g class="iciclelayer"/><g class="treemaplayer"/><g class="sunburstlayer"/><g class="glimages"/><defs id="topdefs-7beccd"><g class="clips"/></defs><g class="layer-above"><g class="imagelayer"/><g class="shapelayer"/></g><g class="infolayer"><g class="g-gtitle"><text class="gtitle" x="35" y="50" text-anchor="start" dy="0em" style="opacity: 1; font-family: 'Open Sans'; font-size: 25px; fill: rgb(255, 255, 255); fill-opacity: 1; white-space: pre;">MultiQC/MultiQC - Issues Created Over Time</text></g><g class="g-xtitle"><text class="xtitle" x="350" y="472.9" text-anchor="middle" style="opacity: 1; font-family: 'Open Sans'; font-size: 22px; fill: rgb(255, 255, 255); fill-opacity: 1; white-space: pre;">Date</text></g><g class="g-ytitle"><text class="ytitle" transform="rotate(-90,20.799999999999997,260)" x="20.799999999999997" y="260" text-anchor="middle" style="opacity: 1; font-family: 'Open Sans'; font-size: 22px; fill: rgb(255, 255, 255); fill-opacity: 1; white-space: pre;">Cumulative Issues Created</text></g></g></svg>