<svg class="main-svg" xmlns="http://www.w3.org/2000/svg" xmlns:xlink="http://www.w3.org/1999/xlink" width="700" height="500" style="" viewBox="0 0 700 500"><rect x="0" y="0" width="700" height="500" style="fill: rgb(0, 0, 0); fill-opacity: 0;"/><defs id="defs-a2a13c"><g class="clips"><clipPath id="clipa2a13cxyplot" class="plotclip"><rect width="540" height="320"/></clipPath><clipPath class="axesclip" id="clipa2a13cx"><rect x="80" y="0" width="540" height="500"/></clipPath><clipPath class="axesclip" id="clipa2a13cy"><rect x="0" y="100" width="700" height="320"/></clipPath><clipPath class="axesclip" id="clipa2a13cxy"><rect x="80" y="100" width="540" height="320"/></clipPath></g><g class="gradients"/><g class="patterns"/></defs><g class="bglayer"><rect class="bg" x="80" y="100" width="540" height="320" style="fill: rgb(0, 0, 0); fill-opacity: 0; stroke-width: 0;"/></g><g class="layer-below"><g class="imagelayer"/><g class="shapelayer"/></g><g class="cartesianlayer"><g class="subplot xy"><g class="layer-subplot"><g class="shapelayer"/><g class="imagelayer"/></g><g class="minor-gridlayer"><g class="x"/><g class="y"/></g><g class="gridlayer"><g class="x"><path class="xgrid crisp" transform="translate(101.03999999999999,0)" d="M0,100v320" style="stroke: rgb(255, 255, 255); stroke-opacity: 1; stroke-width: 1px;"/><path class="xgrid crisp" transform="translate(205.44,0)" d="M0,100v320" style="stroke: rgb(255, 255, 255); stroke-opacity: 1; stroke-width: 1px;"/><path class="xgrid crisp" transform="translate(309.69,0)" d="M0,100v320" style="stroke: rgb(255, 255, 255); stroke-opacity: 1; stroke-width: 1px;"/><path class="xgrid crisp" transform="translate(414.09,0)" d="M0,100v320" style="stroke: rgb(255, 255, 255); stroke-opacity: 1; stroke-width: 1px;"/><path class="xgrid crisp" transform="translate(518.35,0)" d="M0,100v320" style="stroke: rgb(255, 255, 255); stroke-opacity: 1; stroke-width: 1px;"/></g><g class="y"><path class="ygrid crisp" transform="translate(0,336.25)" d="M80,0h540" style="stroke: rgb(255, 255, 255); stroke-opacity: 1; stroke-width: 1px;"/><path class="ygrid crisp" transform="translate(0,252.51)" d="M80,0h540" style="stroke: rgb(255, 255, 255); stroke-opacity: 1; stroke-width: 1px;"/><path class="ygrid crisp" transform="translate(0,168.76)" d="M80,0h540" style="stroke: rgb(255, 255, 255); stroke-opacity: 1; stroke-width: 1px;"/></g></g><g class="zerolinelayer"><path class="yzl zl crisp" transform="translate(0,420)" d="M80,0h540" style="stroke: rgb(255, 255, 255); stroke-opacity: 1; stroke-width: 2px;"/></g><g class="layer-between"><g class="shapelayer"/><g class="imagelayer"/></g><path class="xlines-below"/><path class="ylines-below"/><g class="overlines-below"/><g class="xaxislayer-below"/><g class="yaxislayer-below"/><g class="overaxes-below"/><g class="overplot"><g class="xy" transform="translate(80,100)" clip-path="url(#clipa2a13cxyplot)"><g class="scatterlayer mlayer"><g class="trace scatter trace6790a3" style="stroke-miterlimit: 2;"><g class="fills"><g><path class="js-fill" d="M540,320L0,320L0,319.83L0,319.5L1.97,319.33L3.83,318.33L4.54,318.16L5.15,316.99L5.53,316.82L6.13,315.81L6.43,315.65L8.56,312.13L8.96,311.96L10.11,310.96L10.11,310.79L11,309.95L11.68,309.78L12.7,307.61L12.7,307.44L12.97,306.77L13.46,306.6L14.14,305.09L14.66,304.93L15.84,304.42L17.07,304.26L18.54,303.08L18.68,302.92L23.99,301.91L24.84,301.74L25.99,301.24L26.55,301.07L27.7,299.73L29.57,299.57L32.56,297.72L33.77,297.56L37.71,294.71L37.72,294.54L38.02,293.87L38.66,293.7L40.84,291.69L40.84,291.53L41.53,290.69L41.83,290.52L44.09,288.51L45.38,288.34L47.54,286.5L47.55,286.33L48.98,285.16L49.77,284.99L52.06,283.65L52.99,283.49L56.07,281.98L56.08,281.81L58.39,280.47L58.67,280.3L60,278.96L61.59,278.8L64.88,275.78L64.98,275.61L65.1,275.28L65.87,275.11L68.46,273.77L68.51,273.6L68.82,273.27L69.57,273.1L70.73,272.77L71.69,272.6L72.52,271.43L72.92,271.26L78.84,269.25L78.96,269.08L80.55,268.08L81.08,267.91L81.86,266.74L82.07,266.57L84.7,265.4L84.94,265.23L84.97,264.89L85.82,264.73L86.54,263.89L86.81,263.72L87.51,263.22L87.85,263.05L87.85,262.72L88.94,262.55L88.97,262.21L89.82,262.05L94.06,260.71L94.54,260.54L95.64,259.87L95.95,259.7L100.53,257.69L100.55,257.53L101.8,256.52L101.8,256.35L102.54,254.01L102.84,253.84L107.78,250.99L108.66,250.83L110.72,249.32L110.89,249.15L111.87,248.65L112.49,248.48L116.78,247.31L116.83,247.14L121.52,245.47L121.79,245.3L122.52,244.63L122.76,244.46L123.81,243.62L125.83,243.46L127.05,242.12L127.08,241.95L129.43,240.78L129.59,240.61L131.64,239.44L131.64,239.27L132.92,238.6L133.68,238.43L134.67,237.26L135.5,237.09L137.98,236.25L138.81,236.09L141.51,233.74L141.51,233.57L144.75,231.9L144.89,231.73L148,230.39L148.66,230.22L148.66,230.06L149.6,229.89L151.56,229.05L152.66,228.88L153.79,227.54L154.68,227.38L154.94,227.04L155.47,226.87L160.49,225.37L160.64,225.2L161.46,224.53L161.63,224.36L173.76,219.17L173.92,219L174.02,218.67L175.83,218.5L181.65,216.32L181.75,216.15L186.33,214.48L186.49,214.31L187.07,213.64L187.65,213.47L187.95,213.14L188.94,212.97L189.69,212.64L189.88,212.47L190.65,211.8L190.79,211.63L191.12,210.96L191.94,210.79L193.94,209.12L194.78,208.95L196.11,207.78L196.67,207.61L203.79,205.94L204.04,205.77L207.64,204.6L207.67,204.43L209.93,203.42L211.7,203.26L212.93,202.92L213.78,202.75L217.5,201.25L217.78,201.08L223.71,197.06L223.74,196.89L225.04,195.89L225.06,195.72L227.06,194.38L227.43,194.21L227.59,193.71L228.63,193.54L230.93,192.54L231.06,192.37L231.66,192.04L233.79,191.87L239.52,190.19L239.6,190.03L239.76,189.69L240.5,189.52L242.6,188.18L242.61,188.02L243.32,187.51L244.5,187.35L246.19,186.17L246.76,186.01L247.49,185.17L247.92,185L248.63,184.16L248.73,184L249.61,183.33L249.88,183.16L250.76,182.32L250.78,182.15L253.5,180.65L253.74,180.48L255.85,178.97L256.52,178.8L257.65,177.97L257.85,177.8L259.8,176.63L260.03,176.46L260.74,175.79L261.04,175.62L263.37,173.95L263.57,173.78L265.74,172.77L265.86,172.61L268.89,170.76L269.56,170.6L272.78,168.42L273.05,168.25L273.46,167.92L273.92,167.75L274.59,167.41L275.76,167.25L277.12,166.58L278.6,166.41L278.89,165.91L282.46,165.74L288.92,164.23L288.93,164.06L292.38,162.56L292.44,162.39L294.75,160.88L295.76,160.71L297.77,159.37L298.94,159.21L301.61,157.87L301.72,157.7L302.51,156.86L303.76,156.69L305.86,154.68L306.91,154.52L307.8,153.01L307.87,152.84L308.56,152.34L308.9,152.17L311.01,151L311.56,150.83L312.94,149.99L313.57,149.83L314.75,148.49L314.86,148.32L318.06,146.81L318.07,146.64L326.77,143.29L326.91,143.13L327.5,142.62L327.87,142.46L336.61,140.45L336.9,140.28L339.74,139.11L339.77,138.94L341.04,137.77L341.11,137.6L343.88,136.93L344.65,136.76L347.92,134.92L349.04,134.75L357.03,130.73L357.6,130.57L359.08,129.56L360.01,129.39L367.75,126.88L368.52,126.71L377.33,122.36L377.33,122.19L377.33,121.86L378.6,121.69L379.63,121.19L381.47,121.02L381.92,120.52L382.74,120.35L382.75,120.18L383.89,120.01L384.03,119.85L385.59,119.68L390.75,117.5L391.02,117.33L391.71,116.5L391.85,116.33L392.61,115.66L392.93,115.49L396.77,113.98L396.79,113.82L397.73,113.31L398.02,113.15L398.62,112.48L400.06,112.31L400.84,111.47L401.67,111.3L411.72,107.45L412.97,107.28L413.78,106.28L413.86,106.11L418.35,104.27L418.46,104.1L424.84,98.57L424.84,98.41L425.57,97.07L425.84,96.9L429.67,93.72L430.35,93.55L436.91,88.52L437.75,88.36L441.13,87.35L441.27,87.18L444.43,84.5L444.54,84.34L445.11,82.16L445.46,81.99L446.84,78.81L446.86,78.64L449.84,76.3L450.02,76.13L450.83,75.63L450.9,75.46L451.7,74.79L452.23,74.62L455.77,71.27L455.8,71.11L459.32,67.42L459.97,67.25L460.82,66.08L461.02,65.91L462.7,64.74L462.7,64.57L463.54,63.57L463.87,63.4L465.82,61.39L466.6,61.22L468.75,60.05L468.86,59.88L471.55,57.2L471.57,57.04L472.83,55.7L472.84,55.53L473.58,54.69L473.72,54.52L473.98,53.85L474.71,53.69L475.61,52.35L475.83,52.18L475.95,51.51L476.59,51.34L478.4,49.5L479,49.33L480.86,47.82L480.97,47.66L482.1,46.65L482.4,46.48L483.99,45.98L484.42,45.81L485.69,43.64L486.46,43.47L488.83,41.79L490.51,41.63L490.56,41.46L491.4,41.29L494.72,39.45L494.85,39.28L498.85,37.27L498.86,37.1L500.84,35.93L502.01,35.76L503.05,34.76L503.38,34.59L504,33.92L504.43,33.75L504.71,33.25L505.41,33.08L510.54,31.07L510.58,30.91L513.66,28.9L515.53,28.73L518.69,25.71L519.65,25.55L519.77,25.21L520.8,25.04L524.73,23.37L524.81,23.2L526.45,22.36L526.89,22.2L528.01,21.19L528.82,21.02L528.87,20.86L530.37,20.69L531.95,19.85L532.87,19.68L532.97,19.35L533.82,19.18L534.48,18.85L535.99,18.68L538.37,17.51L538.73,17.34L540,16" style="fill: rgb(255, 127, 14); fill-opacity: 0.5; stroke-width: 0;"/></g></g><g class="errorbars"/><g class="lines"><path class="js-line" d="M0,319.83L0,319.5L1.97,319.33L3.83,318.33L4.54,318.16L5.15,316.99L5.53,316.82L6.13,315.81L6.43,315.65L8.56,312.13L8.96,311.96L10.11,310.96L10.11,310.79L11,309.95L11.68,309.78L12.7,307.61L12.7,307.44L12.97,306.77L13.46,306.6L14.14,305.09L14.66,304.93L15.84,304.42L17.07,304.26L18.54,303.08L18.68,302.92L23.99,301.91L24.84,301.74L25.99,301.24L26.55,301.07L27.7,299.73L29.57,299.57L32.56,297.72L33.77,297.56L37.71,294.71L37.72,294.54L38.02,293.87L38.66,293.7L40.84,291.69L40.84,291.53L41.53,290.69L41.83,290.52L44.09,288.51L45.38,288.34L47.54,286.5L47.55,286.33L48.98,285.16L49.77,284.99L52.06,283.65L52.99,283.49L56.07,281.98L56.08,281.81L58.39,280.47L58.67,280.3L60,278.96L61.59,278.8L64.88,275.78L64.98,275.61L65.1,275.28L65.87,275.11L68.46,273.77L68.51,273.6L68.82,273.27L69.57,273.1L70.73,272.77L71.69,272.6L72.52,271.43L72.92,271.26L78.84,269.25L78.96,269.08L80.55,268.08L81.08,267.91L81.86,266.74L82.07,266.57L84.7,265.4L84.94,265.23L84.97,264.89L85.82,264.73L86.54,263.89L86.81,263.72L87.51,263.22L87.85,263.05L87.85,262.72L88.94,262.55L88.97,262.21L89.82,262.05L94.06,260.71L94.54,260.54L95.64,259.87L95.95,259.7L100.53,257.69L100.55,257.53L101.8,256.52L101.8,256.35L102.54,254.01L102.84,253.84L107.78,250.99L108.66,250.83L110.72,249.32L110.89,249.15L111.87,248.65L112.49,248.48L116.78,247.31L116.83,247.14L121.52,245.47L121.79,245.3L122.52,244.63L122.76,244.46L123.81,243.62L125.83,243.46L127.05,242.12L127.08,241.95L129.43,240.78L129.59,240.61L131.64,239.44L131.64,239.27L132.92,238.6L133.68,238.43L134.67,237.26L135.5,237.09L137.98,236.25L138.81,236.09L141.51,233.74L141.51,233.57L144.75,231.9L144.89,231.73L148,230.39L148.66,230.22L148.66,230.06L149.6,229.89L151.56,229.05L152.66,228.88L153.79,227.54L154.68,227.38L154.94,227.04L155.47,226.87L160.49,225.37L160.64,225.2L161.46,224.53L161.63,224.36L173.76,219.17L173.92,219L174.02,218.67L175.83,218.5L181.65,216.32L181.75,216.15L186.33,214.48L186.49,214.31L187.07,213.64L187.65,213.47L187.95,213.14L188.94,212.97L189.69,212.64L189.88,212.47L190.65,211.8L190.79,211.63L191.12,210.96L191.94,210.79L193.94,209.12L194.78,208.95L196.11,207.78L196.67,207.61L203.79,205.94L204.04,205.77L207.64,204.6L207.67,204.43L209.93,203.42L211.7,203.26L212.93,202.92L213.78,202.75L217.5,201.25L217.78,201.08L223.71,197.06L223.74,196.89L225.04,195.89L225.06,195.72L227.06,194.38L227.43,194.21L227.59,193.71L228.63,193.54L230.93,192.54L231.06,192.37L231.66,192.04L233.79,191.87L239.52,190.19L239.6,190.03L239.76,189.69L240.5,189.52L242.6,188.18L242.61,188.02L243.32,187.51L244.5,187.35L246.19,186.17L246.76,186.01L247.49,185.17L247.92,185L248.63,184.16L248.73,184L249.61,183.33L249.88,183.16L250.76,182.32L250.78,182.15L253.5,180.65L253.74,180.48L255.85,178.97L256.52,178.8L257.65,177.97L257.85,177.8L259.8,176.63L260.03,176.46L260.74,175.79L261.04,175.62L263.37,173.95L263.57,173.78L265.74,172.77L265.86,172.61L268.89,170.76L269.56,170.6L272.78,168.42L273.05,168.25L273.46,167.92L273.92,167.75L274.59,167.41L275.76,167.25L277.12,166.58L278.6,166.41L278.89,165.91L282.46,165.74L288.92,164.23L288.93,164.06L292.38,162.56L292.44,162.39L294.75,160.88L295.76,160.71L297.77,159.37L298.94,159.21L301.61,157.87L301.72,157.7L302.51,156.86L303.76,156.69L305.86,154.68L306.91,154.52L307.8,153.01L307.87,152.84L308.56,152.34L308.9,152.17L311.01,151L311.56,150.83L312.94,149.99L313.57,149.83L314.75,148.49L314.86,148.32L318.06,146.81L318.07,146.64L326.77,143.29L326.91,143.13L327.5,142.62L327.87,142.46L336.61,140.45L336.9,140.28L339.74,139.11L339.77,138.94L341.04,137.77L341.11,137.6L343.88,136.93L344.65,136.76L347.92,134.92L349.04,134.75L357.03,130.73L357.6,130.57L359.08,129.56L360.01,129.39L367.75,126.88L368.52,126.71L377.33,122.36L377.33,122.19L377.33,121.86L378.6,121.69L379.63,121.19L381.47,121.02L381.92,120.52L382.74,120.35L382.75,120.18L383.89,120.01L384.03,119.85L385.59,119.68L390.75,117.5L391.02,117.33L391.71,116.5L391.85,116.33L392.61,115.66L392.93,115.49L396.77,113.98L396.79,113.82L397.73,113.31L398.02,113.15L398.62,112.48L400.06,112.31L400.84,111.47L401.67,111.3L411.72,107.45L412.97,107.28L413.78,106.28L413.86,106.11L418.35,104.27L418.46,104.1L424.84,98.57L424.84,98.41L425.57,97.07L425.84,96.9L429.67,93.72L430.35,93.55L436.91,88.52L437.75,88.36L441.13,87.35L441.27,87.18L444.43,84.5L444.54,84.34L445.11,82.16L445.46,81.99L446.84,78.81L446.86,78.64L449.84,76.3L450.02,76.13L450.83,75.63L450.9,75.46L451.7,74.79L452.23,74.62L455.77,71.27L455.8,71.11L459.32,67.42L459.97,67.25L460.82,66.08L461.02,65.91L462.7,64.74L462.7,64.57L463.54,63.57L463.87,63.4L465.82,61.39L466.6,61.22L468.75,60.05L468.86,59.88L471.55,57.2L471.57,57.04L472.83,55.7L472.84,55.53L473.58,54.69L473.72,54.52L473.98,53.85L474.71,53.69L475.61,52.35L475.83,52.18L475.95,51.51L476.59,51.34L478.4,49.5L479,49.33L480.86,47.82L480.97,47.66L482.1,46.65L482.4,46.48L483.99,45.98L484.42,45.81L485.69,43.64L486.46,43.47L488.83,41.79L490.51,41.63L490.56,41.46L491.4,41.29L494.72,39.45L494.85,39.28L498.85,37.27L498.86,37.1L500.84,35.93L502.01,35.76L503.05,34.76L503.38,34.59L504,33.92L504.43,33.75L504.71,33.25L505.41,33.08L510.54,31.07L510.58,30.91L513.66,28.9L515.53,28.73L518.69,25.71L519.65,25.55L519.77,25.21L520.8,25.04L524.73,23.37L524.81,23.2L526.45,22.36L526.89,22.2L528.01,21.19L528.82,21.02L528.87,20.86L530.37,20.69L531.95,19.85L532.87,19.68L532.97,19.35L533.82,19.18L534.48,18.85L535.99,18.68L538.37,17.51L538.73,17.34L540,16" style="vector-effect: none; fill: none; stroke: rgb(255, 127, 14); stroke-opacity: 1; stroke-width: 2px; opacity: 1;"/></g><g class="points"/><g class="text"/></g></g></g></g><g class="zerolinelayer-above"/><path class="xlines-above crisp" d="M0,0" style="fill: none;"/><path class="ylines-above crisp" d="M0,0" style="fill: none;"/><g class="overlines-above"/><g class="xaxislayer-above"><g class="xtick"><text text-anchor="middle" x="0" y="439" transform="translate(101.03999999999999,0)" style="font-family: 'Open Sans'; font-size: 18px; fill: rgb(0, 0, 0); fill-opacity: 1; white-space: pre;">2016</text></g><g class="xtick"><text text-anchor="middle" x="0" y="439" style="font-family: 'Open Sans'; font-size: 18px; fill: rgb(0, 0, 0); fill-opacity: 1; white-space: pre;" transform="translate(205.44,0)">2018</text></g><g class="xtick"><text text-anchor="middle" x="0" y="439" style="font-family: 'Open Sans'; font-size: 18px; fill: rgb(0, 0, 0); fill-opacity: 1; white-space: pre;" transform="translate(309.69,0)">2020</text></g><g class="xtick"><text text-anchor="middle" x="0" y="439" style="font-family: 'Open Sans'; font-size: 18px; fill: rgb(0, 0, 0); fill-opacity: 1; white-space: pre;" transform="translate(414.09,0)">2022</text></g><g class="xtick"><text text-anchor="middle" x="0" y="439" style="font-family: 'Open Sans'; font-size: 18px; fill: rgb(0, 0, 0); fill-opacity: 1; white-space: pre;" transform="translate(518.35,0)">2024</text></g></g><g class="yaxislayer-above"><g class="ytick"><text text-anchor="end" x="79" y="6.3" transform="translate(0,420)" style="font-family: 'Open Sans'; font-size: 18px; fill: rgb(0, 0, 0); fill-opacity: 1; white-space: pre;">0</text></g><g class="ytick"><text text-anchor="end" x="79" y="6.3" style="font-family: 'Open Sans'; font-size: 18px; fill: rgb(0, 0, 0); fill-opacity: 1; white-space: pre;" transform="translate(0,336.25)">500</text></g><g class="ytick"><text text-anchor="end" x="79" y="6.3" style="font-family: 'Open Sans'; font-size: 18px; fill: rgb(0, 0, 0); fill-opacity: 1; white-space: pre;" transform="translate(0,252.51)">1000</text></g><g class="ytick"><text text-anchor="end" x="79" y="6.3" style="font-family: 'Open Sans'; font-size: 18px; fill: rgb(0, 0, 0); fill-opacity: 1; white-space: pre;" transform="translate(0,168.76)">1500</text></g></g><g class="overaxes-above"/></g></g><g class="polarlayer"/><g class="smithlayer"/><g class="ternarylayer"/><g class="geolayer"/><g class="funnelarealayer"/><g class="pielayer"/><g class="iciclelayer"/><g class="treemaplayer"/><g class="sunburstlayer"/><g class="glimages"/><defs id="topdefs-a2a13c"><g class="clips"/></defs><g class="layer-above"><g class="imagelayer"/><g class="shapelayer"/></g><g class="infolayer"><g class="g-gtitle"><text class="gtitle" x="35" y="50" text-anchor="start" dy="0em" style="opacity: 1; font-family: 'Open Sans'; font-size: 25px; fill: rgb(0, 0, 0); fill-opacity: 1; white-space: pre;">MultiQC/MultiQC - Issues Created Over Time</text></g><g class="g-xtitle"><text class="xtitle" x="350" y="472.9" text-anchor="middle" style="opacity: 1; font-family: 'Open Sans'; font-size: 22px; fill: rgb(0, 0, 0); fill-opacity: 1; white-space: pre;">Date</text></g><g class="g-ytitle"><text class="ytitle" transform="rotate(-90,20.799999999999997,260)" x="20.799999999999997" y="260" text-anchor="middle" style="opacity: 1; font-family: 'Open Sans'; font-size: 22px; fill: rgb(0, 0, 0); fill-opacity: 1; white-space: pre;">Cumulative Issues Created</text></g></g></svg>