<svg class="main-svg" xmlns="http://www.w3.org/2000/svg" xmlns:xlink="http://www.w3.org/1999/xlink" width="700" height="500" style="" viewBox="0 0 700 500"><rect x="0" y="0" width="700" height="500" style="fill: rgb(0, 0, 0); fill-opacity: 0;"/><defs id="defs-8b4e5e"><g class="clips"><clipPath id="clip8b4e5exyplot" class="plotclip"><rect width="540" height="320"/></clipPath><clipPath class="axesclip" id="clip8b4e5ex"><rect x="80" y="0" width="540" height="500"/></clipPath><clipPath class="axesclip" id="clip8b4e5ey"><rect x="0" y="100" width="700" height="320"/></clipPath><clipPath class="axesclip" id="clip8b4e5exy"><rect x="80" y="100" width="540" height="320"/></clipPath></g><g class="gradients"/><g class="patterns"/></defs><g class="bglayer"><rect class="bg" x="80" y="100" width="540" height="320" style="fill: rgb(0, 0, 0); fill-opacity: 0; stroke-width: 0;"/></g><g class="layer-below"><g class="imagelayer"/><g class="shapelayer"/></g><g class="cartesianlayer"><g class="subplot xy"><g class="layer-subplot"><g class="shapelayer"/><g class="imagelayer"/></g><g class="minor-gridlayer"><g class="x"/><g class="y"/></g><g class="gridlayer"><g class="x"><path class="xgrid crisp" transform="translate(100.7,0)" d="M0,100v320" style="stroke: rgb(255, 255, 255); stroke-opacity: 1; stroke-width: 1px;"/><path class="xgrid crisp" transform="translate(203.42000000000002,0)" d="M0,100v320" style="stroke: rgb(255, 255, 255); stroke-opacity: 1; stroke-width: 1px;"/><path class="xgrid crisp" transform="translate(305.99,0)" d="M0,100v320" style="stroke: rgb(255, 255, 255); stroke-opacity: 1; stroke-width: 1px;"/><path class="xgrid crisp" transform="translate(408.71,0)" d="M0,100v320" style="stroke: rgb(255, 255, 255); stroke-opacity: 1; stroke-width: 1px;"/><path class="xgrid crisp" transform="translate(511.29,0)" d="M0,100v320" style="stroke: rgb(255, 255, 255); stroke-opacity: 1; stroke-width: 1px;"/><path class="xgrid crisp" transform="translate(614,0)" d="M0,100v320" style="stroke: rgb(255, 255, 255); stroke-opacity: 1; stroke-width: 1px;"/></g><g class="y"><path class="ygrid crisp" transform="translate(0,358.21)" d="M80,0h540" style="stroke: rgb(255, 255, 255); stroke-opacity: 1; stroke-width: 1px;"/><path class="ygrid crisp" transform="translate(0,296.41999999999996)" d="M80,0h540" style="stroke: rgb(255, 255, 255); stroke-opacity: 1; stroke-width: 1px;"/><path class="ygrid crisp" transform="translate(0,234.63)" d="M80,0h540" style="stroke: rgb(255, 255, 255); stroke-opacity: 1; stroke-width: 1px;"/><path class="ygrid crisp" transform="translate(0,172.85)" d="M80,0h540" style="stroke: rgb(255, 255, 255); stroke-opacity: 1; stroke-width: 1px;"/><path class="ygrid crisp" transform="translate(0,111.06)" d="M80,0h540" style="stroke: rgb(255, 255, 255); stroke-opacity: 1; stroke-width: 1px;"/></g></g><g class="zerolinelayer"><path class="yzl zl crisp" transform="translate(0,420)" d="M80,0h540" style="stroke: rgb(255, 255, 255); stroke-opacity: 1; stroke-width: 2px;"/></g><g class="layer-between"><g class="shapelayer"/><g class="imagelayer"/></g><path class="xlines-below"/><path class="ylines-below"/><g class="overlines-below"/><g class="xaxislayer-below"/><g class="yaxislayer-below"/><g class="overaxes-below"/><g class="overplot"><g class="xy" transform="translate(80,100)" clip-path="url(#clip8b4e5exyplot)"><g class="scatterlayer mlayer"><g class="trace scatter trace5b3ade" style="stroke-miterlimit: 2;"><g class="fills"><g><path class="js-fill" d="M540,320L0,320L0,318.76L0,316.29L0.56,317.53L1.82,318.76L1.93,317.53L2.94,318.76L3.77,312.59L3.79,313.82L4.47,312.59L4.89,307.64L5.06,308.88L5.43,310.11L5.6,306.41L5.89,311.35L6.03,308.88L6.33,310.11L7,298.99L7.12,297.76L7.29,296.52L7.55,298.99L7.56,300.23L7.57,301.46L7.73,291.58L8.42,290.34L8.8,298.99L8.81,300.23L9.53,308.88L9.54,307.64L9.67,306.41L9.98,301.46L9.98,300.23L10.39,298.99L10.42,301.46L10.42,302.7L11.38,306.41L11.49,305.17L11.64,303.93L12.6,286.63L12.64,292.81L12.64,294.05L12.76,291.58L13.07,295.28L13.25,292.81L13.48,291.58L13.87,285.4L14.02,289.11L14.43,287.87L14.62,286.63L14.75,289.11L15.44,290.34L15.6,294.05L16.79,292.81L17.39,290.34L17.52,289.11L18.24,284.16L18.25,285.4L18.38,284.16L18.82,285.4L21.34,284.16L21.34,285.4L21.74,281.69L21.75,284.16L23.26,282.93L23.45,284.16L23.6,282.93L24.44,281.69L25.15,279.22L25.26,280.46L25.57,279.22L26.31,287.87L26.38,286.63L26.66,282.93L27.09,285.4L27.11,286.63L27.25,285.4L27.5,286.63L28.66,287.87L30.09,284.16L30.31,285.4L30.35,289.11L30.35,289.11L31.14,287.87L31.62,291.58L32.03,290.34L32.22,296.52L33.12,297.76L33.82,295.28L33.82,296.52L33.96,297.76L34.55,295.28L34.84,294.05L35.56,296.52L35.93,295.28L35.93,296.52L36.07,290.34L36.36,291.58L37.05,290.34L37.28,286.63L37.47,294.05L37.97,295.28L38.04,294.05L38.47,297.76L38.53,298.99L38.75,294.05L39.04,295.28L39.34,296.52L40.19,290.34L40.31,294.05L40.65,292.81L40.86,290.34L41.01,294.05L41.15,292.81L41.28,294.05L42.26,287.87L42.28,289.11L43.09,285.4L43.38,284.16L44.15,286.63L44.65,285.4L44.96,289.11L45.22,285.4L45.41,284.16L45.75,282.93L45.9,286.63L45.91,287.87L45.94,286.63L46.36,292.81L46.75,291.58L46.93,290.34L47.03,294.05L47.34,292.81L47.9,294.05L47.91,297.76L48.2,295.28L48.75,296.52L49.14,295.28L49.14,296.52L49.83,295.28L49.84,296.52L50.02,294.05L50.14,294.05L50.97,292.81L52.13,290.34L52.69,291.58L52.69,292.81L53.11,289.11L53.27,291.58L53.71,290.34L53.81,289.11L54.11,292.81L54.94,291.58L56.25,286.63L56.76,285.4L57.98,274.28L58.06,276.75L58.15,277.98L58.15,279.22L58.74,276.75L58.91,275.51L59.03,274.28L59.04,275.51L60.6,274.28L61.79,266.86L61.91,268.1L62.81,265.63L63.35,264.39L64.05,253.27L64.07,255.74L64.81,254.5L65.46,256.98L65.46,258.21L65.47,264.39L65.77,264.39L66.46,263.15L67.71,259.45L68.45,258.21L68.7,265.63L69.59,264.39L70.69,276.75L70.83,275.51L71.36,274.28L71.36,273.04L71.75,273.04L72.2,274.28L73.27,270.57L73.28,271.8L73.71,270.57L73.74,269.33L73.78,270.57L74.64,269.33L75.41,268.1L75.92,266.86L79.21,256.98L79.21,258.21L79.66,261.92L79.79,258.21L80.19,259.45L80.48,260.68L80.55,256.98L80.75,259.45L81.47,260.68L81.8,254.5L81.81,255.74L82.94,254.5L83.14,255.74L83.34,254.5L83.57,253.27L83.6,252.03L84.31,255.74L84.43,254.5L84.57,255.74L85.14,252.03L85.15,253.27L85.29,254.5L85.69,259.45L86.1,258.21L86.43,256.98L86.44,254.5L86.55,258.21L87.51,256.98L87.51,258.21L87.53,255.74L88.2,258.21L88.37,256.98L89.17,259.45L89.5,258.21L90.07,259.45L90.16,260.68L90.47,265.63L91,264.39L91.31,273.04L91.6,270.57L92.06,269.33L93.11,265.63L93.25,266.86L93.25,268.1L95.09,260.68L95.11,261.92L97.19,254.5L97.33,255.74L97.33,256.98L98.22,259.45L98.33,260.68L99.18,271.8L99.48,270.57L99.89,273.04L99.89,271.8L99.99,270.57L100.03,273.04L100.44,260.68L100.45,260.68L100.86,259.45L101.18,256.98L101.44,263.15L101.83,261.92L102.82,259.45L102.82,260.68L102.82,261.92L102.95,264.39L103.39,263.15L103.87,261.92L104.22,265.63L104.36,263.15L104.76,261.92L104.78,263.15L105.34,260.68L105.36,261.92L105.94,260.68L106.05,259.45L106.05,260.68L106.73,261.92L106.73,263.15L107.33,261.92L107.89,260.68L108.3,256.98L108.72,255.74L110.07,249.56L110.11,250.8L110.18,252.03L112.24,248.33L112.8,249.56L114.19,245.85L114.66,247.09L114.95,245.85L115.78,275.51L115.89,274.28L116.5,271.8L116.78,273.04L117.18,271.8L117.18,273.04L118.16,271.8L118.56,273.04L118.86,271.8L118.88,270.57L119.56,269.33L119.8,270.57L119.81,273.04L120.04,268.1L120.55,266.86L120.55,268.1L120.97,265.63L121.03,265.63L121.59,264.39L121.59,263.15L122.07,269.33L123.8,268.1L124.02,269.33L124.07,268.1L124.59,266.86L125.03,261.92L125.81,260.68L127.5,255.74L127.87,256.98L128.34,254.5L128.42,255.74L128.42,256.98L128.57,263.15L128.93,260.68L129.46,259.45L129.98,256.98L130.22,258.21L130.82,263.15L131.52,261.92L132.5,256.98L132.88,258.21L133.56,256.98L134.63,255.74L135.76,252.03L136.56,253.27L137.3,252.03L137.37,253.27L137.88,252.03L138.24,250.8L138.25,253.27L138.78,248.33L138.78,248.33L139.22,247.09L139.23,244.62L139.79,245.85L140.14,244.62L140.64,242.15L140.68,240.91L140.75,239.67L140.8,243.38L141.34,242.15L141.36,243.38L141.77,240.91L142.4,242.15L142.79,238.44L143.04,248.33L143.04,249.56L143.61,247.09L143.7,245.85L144.44,248.33L145.62,247.09L146.27,245.85L146.38,248.33L147.19,247.09L147.21,248.33L147.85,244.62L147.92,245.85L148.47,247.09L150.2,244.62L150.21,245.85L151.31,239.67L152.19,238.44L152.44,235.97L152.96,237.2L152.96,235.97L153.63,242.15L153.99,240.91L155.18,239.67L155.51,240.91L157.91,234.73L158.05,235.97L158.56,231.02L158.86,229.79L160.16,222.37L160.89,221.14L160.89,222.37L161.27,221.14L162.36,219.9L162.42,218.67L162.87,223.61L163.3,222.37L164.35,219.9L164.35,218.67L164.37,217.43L164.58,226.08L165.85,224.85L166.09,222.37L167.19,221.14L167.91,226.08L168.27,224.85L171.15,214.96L171.22,213.72L171.26,214.96L173,213.72L173.24,218.67L173.25,219.9L173.26,223.61L173.67,221.14L175.61,219.9L175.64,222.37L175.79,221.14L176.53,219.9L177.04,214.96L177.05,216.2L177.57,217.43L177.92,218.67L178.82,213.72L178.88,214.96L179.01,216.2L179.85,214.96L179.86,216.2L182.96,211.25L183.06,210.02L183.63,206.31L183.64,207.54L184.06,206.31L184.08,208.78L184.74,207.54L184.92,206.31L185.6,207.54L185.9,206.31L185.9,205.07L186.63,205.07L186.82,203.84L187.57,201.37L187.71,200.13L187.89,201.37L188.04,198.89L188.05,200.13L188.85,198.89L190.22,190.24L190.22,192.72L190.48,191.48L190.82,189.01L191.13,190.24L191.65,189.01L191.85,186.54L192.3,189.01L192.57,187.77L192.95,185.3L193.51,184.07L194.67,182.83L194.67,184.07L194.75,182.83L194.78,184.07L196.12,182.83L196.85,184.07L197.58,182.83L197.81,181.59L197.81,182.83L199.66,181.59L200.36,180.36L200.37,181.59L200.37,182.83L200.75,181.59L201.59,182.83L201.59,184.07L202.28,184.07L202.45,182.83L203.42,180.36L204.14,179.12L204.79,175.41L205.16,176.65L206.54,171.71L206.87,172.94L208.29,171.71L208.51,170.47L209.5,169.24L209.62,170.47L210.33,169.24L212.13,165.53L212.43,166.76L212.79,163.06L213.53,161.82L213.96,164.29L213.99,163.06L214.27,161.82L215.01,159.35L215.22,160.59L215.26,161.82L215.28,165.53L216.01,161.82L216.07,163.06L216.44,160.59L216.52,168L216.91,166.76L216.94,168L216.96,166.76L217.68,165.53L217.9,166.76L218.36,163.06L218.5,164.29L219.24,179.12L219.32,180.36L219.38,177.89L219.49,187.77L219.98,186.54L220.04,187.77L220.06,186.54L220.26,193.95L220.85,192.72L221.01,193.95L221.44,189.01L221.44,190.24L221.6,191.48L221.87,192.72L222.03,190.24L222.15,189.01L223.11,184.07L223.4,182.83L223.88,179.12L223.92,177.89L224.03,182.83L224.95,181.59L226.94,179.12L226.97,177.89L227.56,171.71L227.93,170.47L228.37,171.71L230.02,170.47L231.17,168L231.25,166.76L232.09,165.53L232.51,166.76L233.24,164.29L235.08,163.06L235.66,160.59L235.74,159.35L235.89,156.88L236.62,155.64L236.75,156.88L236.93,155.64L238.08,154.41L238.4,150.7L238.42,158.11L238.42,159.35L238.42,160.59L238.97,155.64L239.4,154.41L239.6,155.64L240.56,154.41L240.72,155.64L240.95,154.41L241.54,155.64L241.61,154.41L241.79,159.35L242.22,156.88L242.49,158.11L242.79,156.88L242.81,159.35L242.91,159.35L242.92,160.59L243.93,156.88L244.37,155.64L244.78,153.17L244.91,159.35L245.28,158.11L245.59,156.88L245.74,158.11L245.77,159.35L245.85,158.11L246.16,160.59L246.48,161.82L246.56,159.35L246.6,170.47L246.61,171.71L246.72,170.47L247.12,190.24L247.27,189.01L247.4,190.24L247.84,191.48L248.39,190.24L249.41,185.3L249.5,186.54L250.81,177.89L250.95,179.12L251.23,177.89L252.46,174.18L252.46,175.41L252.61,176.65L253.19,172.94L253.5,171.71L253.7,170.47L254.34,171.71L254.96,165.53L255.42,164.29L255.89,159.35L255.91,160.59L256.44,161.82L257.25,156.88L257.43,155.64L258.69,148.23L259.12,146.99L259.32,145.76L260.36,144.52L261.77,137.11L262.19,135.87L263.17,132.16L263.21,133.4L264.56,127.22L265.21,125.98L267.19,119.8L267.2,121.04L270.17,104.98L270.39,106.21L270.4,108.68L271.32,107.45L271.32,108.68L272.03,104.98L272.66,103.74L272.95,104.98L274.11,103.74L274.4,100.03L276.83,101.27L277,129.69L277.91,128.46L279.08,129.69L279.23,128.46L279.23,127.22L279.32,130.93L279.49,128.46L280.09,129.69L282.98,128.46L283.71,127.22L284.27,123.51L284.27,122.28L284.39,124.75L284.92,123.51L285.03,122.28L285.08,123.51L286.01,122.28L287.19,128.46L287.3,127.22L287.49,125.98L287.52,128.46L287.95,125.98L288.19,124.75L288.94,122.28L289.03,121.04L289.41,118.57L289.77,119.8L289.77,121.04L290.06,133.4L291,132.16L291.17,133.4L291.68,130.93L291.69,132.16L291.69,133.4L292.69,130.93L292.86,132.16L292.97,129.69L293.42,130.93L293.79,132.16L294.26,133.4L294.77,132.16L296.22,127.22L296.53,125.98L296.85,128.46L297.01,123.51L297.13,124.75L297.18,123.51L297.73,124.75L298.86,123.51L298.89,124.75L299.42,122.28L299.77,121.04L300.09,116.1L300.36,117.33L300.73,118.57L300.74,123.51L300.93,121.04L301.96,119.8L302.68,130.93L302.68,129.69L302.79,128.46L302.81,127.22L303.12,138.34L303.27,138.34L303.37,139.58L303.42,148.23L304.11,145.76L304.46,146.99L305.17,142.05L305.33,143.28L306,140.81L306.54,139.58L306.57,140.81L306.84,137.11L307.66,135.87L307.89,137.11L307.89,135.87L308.52,134.63L308.83,138.34L308.94,134.63L309.4,133.4L309.79,129.69L310.42,128.46L310.62,127.22L311.94,125.98L312.61,122.28L312.67,121.04L313.87,113.63L314.85,112.39L317.54,103.74L318.65,102.5L319.42,100.03L320.23,98.8L320.37,96.33L321.11,97.56L321.47,116.1L321.66,114.86L321.94,116.1L322.22,114.86L322.24,117.33L322.59,116.1L323.22,117.33L323.73,116.1L324.46,117.33L325.58,113.63L326.53,112.39L327.8,111.15L328.14,112.39L328.19,113.63L329.19,112.39L329.71,109.92L330.17,111.15L330.34,109.92L330.77,111.15L330.8,112.39L330.8,113.63L331.47,111.15L332.15,112.39L333.13,146.99L333.41,145.76L333.57,142.05L334.02,146.99L334.18,148.23L335.61,137.11L335.96,135.87L336.08,138.34L336.54,137.11L336.97,135.87L337.95,138.34L338.34,137.11L339.32,135.87L339.33,137.11L339.93,135.87L340.15,134.63L340.49,133.4L340.9,134.63L341.27,133.4L341.86,132.16L342.11,130.93L342.31,128.46L343.42,127.22L343.69,125.98L344.77,124.75L346.36,119.8L346.37,121.04L346.39,122.28L347.35,117.33L347.87,118.57L348.71,113.63L348.72,114.86L349.21,113.63L349.25,114.86L349.87,112.39L349.88,111.15L349.98,108.68L351.28,107.45L352.12,104.98L352.15,103.74L352.97,101.27L353.3,100.03L354.23,104.98L354.61,103.74L354.79,102.5L356.29,100.03L356.5,101.27L357.59,98.8L358.15,97.56L359.7,92.62L360.3,91.38L360.67,90.15L360.88,91.38L360.94,92.62L360.95,91.38L361.83,90.15L362.94,87.67L363.05,86.44L364.03,85.2L364.04,86.44L364.12,103.74L364.76,100.03L365.01,101.27L365.63,98.8L365.87,97.56L366.61,98.8L367.52,97.56L368.13,93.85L368.24,95.09L368.52,93.85L369.79,91.38L370.63,90.15L371.25,87.67L371.25,86.44L371.25,80.26L372.5,79.02L373.52,75.32L375.01,76.55L375.01,79.02L375.42,75.32L375.42,76.55L375.77,75.32L376.26,76.55L376.58,75.32L376.59,74.08L376.84,75.32L377.7,74.08L377.85,72.85L377.85,74.08L379.15,75.32L379.78,74.08L379.84,75.32L380,76.55L380.61,77.79L380.92,79.02L381.12,92.62L382.09,93.85L383.1,91.38L383.61,90.15L383.74,87.67L383.77,91.38L384.19,92.62L385.39,83.97L385.4,85.2L385.4,83.97L385.42,90.15L385.73,87.67L386.29,86.44L387.58,82.73L388.69,81.5L389.39,77.79L390.1,76.55L390.47,72.85L390.94,75.32L391.19,74.08L392.2,67.9L392.2,69.14L393.62,67.9L394.38,61.72L394.4,64.2L395.2,62.96L395.53,64.2L395.57,62.96L396.07,61.72L396.62,59.25L397.26,60.49L398.2,56.78L398.83,55.54L399.44,53.07L399.66,54.31L399.79,55.54L400.1,56.78L400.31,55.54L401.47,56.78L403.83,48.13L404.11,46.89L405.09,45.66L405.81,46.89L406.89,43.19L406.97,41.95L407.03,43.19L407.19,38.24L407.81,39.48L407.88,37.01L409.02,35.77L409.18,33.3L409.36,35.77L409.62,37.01L410.01,35.77L410.17,37.01L410.2,38.24L410.47,40.72L411,39.48L412.03,32.07L412.07,35.77L412.72,34.54L412.8,33.3L413.01,35.77L413.24,35.77L413.41,37.01L414.19,32.07L414.51,33.3L414.64,37.01L415.14,32.07L415.46,30.83L416.03,28.36L416.04,29.59L416.1,30.83L416.65,25.89L416.75,28.36L417.01,29.59L417.17,27.12L417.31,41.95L417.31,43.19L417.71,45.66L417.99,43.19L418,41.95L418,34.54L418.68,43.19L418.71,39.48L418.83,40.72L420.5,32.07L420.55,33.3L420.69,45.66L421.09,40.72L421.37,39.48L421.41,41.95L421.93,39.48L422.51,38.24L423.14,41.95L423.42,40.72L423.64,39.48L423.79,41.95L423.87,40.72L424.44,39.48L425.07,49.37L425.1,48.13L425.47,46.89L425.55,45.66L425.87,49.37L426.13,48.13L426.47,46.89L426.88,43.19L427.06,45.66L427.59,44.42L428,40.72L428.4,43.19L428.4,44.42L429.24,61.72L429.45,60.49L429.52,59.25L429.53,60.49L429.87,58.02L430.7,56.78L430.83,60.49L431.81,61.72L432.89,59.25L432.93,58.02L433.09,59.25L433.46,58.02L433.92,56.78L434.37,54.31L434.49,58.02L434.62,56.78L434.86,55.54L435.5,53.07L435.85,54.31L436.46,60.49L436.69,58.02L436.71,56.78L437.41,60.49L437.55,59.25L437.94,50.6L438.31,58.02L438.41,56.78L438.68,53.07L438.8,60.49L438.8,61.72L439.39,53.07L439.51,55.54L439.64,54.31L439.99,50.6L440.21,51.84L440.4,53.07L440.64,50.6L440.8,60.49L440.81,61.72L441.09,77.79L441.51,72.85L441.61,74.08L441.61,75.32L442.36,74.08L442.44,72.85L442.59,71.61L442.65,81.5L442.79,79.02L442.9,80.26L443.71,77.79L444.31,76.55L445.12,71.61L445.28,70.37L445.86,65.43L446.11,67.9L446.14,69.14L446.29,67.9L446.66,74.08L447.24,72.85L447.36,74.08L447.62,71.61L447.8,72.85L448.13,74.08L448.78,64.2L449.08,62.96L449.1,61.72L449.18,65.43L449.53,62.96L450.02,61.72L450.04,62.96L450.61,53.07L450.65,55.54L451.44,54.31L451.92,50.6L452.47,51.84L452.6,49.37L452.88,55.54L453.25,54.31L453.27,53.07L453.59,51.84L453.85,54.31L454.14,53.07L454.32,55.54L454.67,53.07L455.02,54.31L455.54,48.13L455.89,50.6L455.95,51.84L456.07,50.6L456.1,54.31L456.54,51.84L456.96,50.6L456.97,49.37L457.51,60.49L457.53,58.02L457.67,56.78L458.89,60.49L459.08,59.25L459.33,61.72L459.79,60.49L460.03,59.25L461.02,64.2L461.16,61.72L461.19,60.49L461.3,58.02L461.85,61.72L461.85,61.72L462.2,60.49L462.44,56.78L462.83,60.49L462.86,61.72L463.17,60.49L464,80.26L464.27,79.02L464.36,77.79L465.09,75.32L465.11,74.08L465.96,64.2L466.05,65.43L466.12,62.96L466.23,74.08L466.51,74.08L467.06,72.85L467.73,82.73L467.88,80.26L467.95,79.02L468.02,80.26L468.28,74.08L468.89,75.32L469.13,71.61L469.16,76.55L469.32,75.32L469.78,76.55L470.06,77.79L470.69,72.85L470.99,74.08L471.01,77.79L471.68,75.32L471.81,76.55L472.26,74.08L472.96,72.85L473.22,67.9L473.53,72.85L473.83,71.61L474.93,61.72L475.69,62.96L476.21,75.32L476.61,74.08L476.71,76.55L477.05,69.14L477.22,70.37L477.47,69.14L477.93,76.55L478.63,75.32L478.81,74.08L479.14,76.55L479.14,77.79L479.78,75.32L480.03,88.91L480.12,87.67L480.12,85.2L480.68,92.62L480.95,91.38L481.16,92.62L482.61,91.38L483.19,92.62L483.49,91.38L483.94,92.62L483.95,91.38L484.49,90.15L484.49,88.91L484.75,92.62L484.83,91.38L485.44,90.15L485.66,91.38L485.99,90.15L486.38,88.91L486.45,86.44L486.59,90.15L486.88,88.91L487.4,87.67L487.48,86.44L487.9,91.38L487.9,92.62L488.99,88.91L489.38,90.15L489.63,87.67L489.93,90.15L489.93,91.38L490.52,92.62L490.69,91.38L491.47,83.97L491.5,87.67L491.5,88.91L491.65,86.44L492.5,87.67L492.5,86.44L492.77,86.44L493.92,85.2L494.46,81.5L494.71,83.97L494.8,82.73L495.44,77.79L495.63,76.55L496.27,79.02L496.31,76.55L496.45,75.32L497.27,74.08L497.83,75.32L497.84,77.79L498.38,77.79L498.67,76.55L498.67,75.32L499.38,77.79L499.57,76.55L499.66,75.32L500.56,74.08L501.18,75.32L501.61,74.08L502.35,69.14L502.59,67.9L502.59,69.14L502.76,67.9L503.47,66.67L503.73,69.14L504.18,67.9L504.29,69.14L504.7,64.2L504.85,66.67L505.13,67.9L505.39,64.2L507.15,65.43L507.48,61.72L508.11,62.96L508.36,75.32L508.8,71.61L508.93,72.85L509.05,75.32L509.63,74.08L510.02,72.85L510.34,69.14L511.27,67.9L511.4,65.43L512.41,64.2L513.07,61.72L513.17,60.49L513.3,58.02L514.71,59.25L515.12,77.79L515.41,75.32L515.49,74.08L515.54,76.55L516.27,75.32L517.21,71.61L517.21,72.85L517.93,79.02L517.97,77.79L518.4,76.55L519.03,71.61L519.06,72.85L519.5,71.61L521.96,66.67L522.28,65.43L522.91,62.96L523.38,61.72L524.33,59.25L524.38,58.02L524.58,59.25L525.22,58.02L525.87,55.54L527.35,54.31L528.57,51.84L528.9,50.6L530.27,43.19L530.28,44.42L530.3,43.19L530.35,46.89L530.92,44.42L531.13,43.19L531.96,34.54L532.1,33.3L532.66,29.59L535.61,28.36L537.07,20.94L538.89,19.71L538.91,18.47L539.85,17.24L539.87,18.47L540,16" style="fill: rgb(255, 127, 14); fill-opacity: 0.5; stroke-width: 0;"/></g></g><g class="errorbars"/><g class="lines"><path class="js-line" d="M0,318.76L0,316.29L0.56,317.53L1.82,318.76L1.93,317.53L2.94,318.76L3.77,312.59L3.79,313.82L4.47,312.59L4.89,307.64L5.06,308.88L5.43,310.11L5.6,306.41L5.89,311.35L6.03,308.88L6.33,310.11L7,298.99L7.12,297.76L7.29,296.52L7.55,298.99L7.56,300.23L7.57,301.46L7.73,291.58L8.42,290.34L8.8,298.99L8.81,300.23L9.53,308.88L9.54,307.64L9.67,306.41L9.98,301.46L9.98,300.23L10.39,298.99L10.42,301.46L10.42,302.7L11.38,306.41L11.49,305.17L11.64,303.93L12.6,286.63L12.64,292.81L12.64,294.05L12.76,291.58L13.07,295.28L13.25,292.81L13.48,291.58L13.87,285.4L14.02,289.11L14.43,287.87L14.62,286.63L14.75,289.11L15.44,290.34L15.6,294.05L16.79,292.81L17.39,290.34L17.52,289.11L18.24,284.16L18.25,285.4L18.38,284.16L18.82,285.4L21.34,284.16L21.34,285.4L21.74,281.69L21.75,284.16L23.26,282.93L23.45,284.16L23.6,282.93L24.44,281.69L25.15,279.22L25.26,280.46L25.57,279.22L26.31,287.87L26.38,286.63L26.66,282.93L27.09,285.4L27.11,286.63L27.25,285.4L27.5,286.63L28.66,287.87L30.09,284.16L30.31,285.4L30.35,289.11L30.35,289.11L31.14,287.87L31.62,291.58L32.03,290.34L32.22,296.52L33.12,297.76L33.82,295.28L33.82,296.52L33.96,297.76L34.55,295.28L34.84,294.05L35.56,296.52L35.93,295.28L35.93,296.52L36.07,290.34L36.36,291.58L37.05,290.34L37.28,286.63L37.47,294.05L37.97,295.28L38.04,294.05L38.47,297.76L38.53,298.99L38.75,294.05L39.04,295.28L39.34,296.52L40.19,290.34L40.31,294.05L40.65,292.81L40.86,290.34L41.01,294.05L41.15,292.81L41.28,294.05L42.26,287.87L42.28,289.11L43.09,285.4L43.38,284.16L44.15,286.63L44.65,285.4L44.96,289.11L45.22,285.4L45.41,284.16L45.75,282.93L45.9,286.63L45.91,287.87L45.94,286.63L46.36,292.81L46.75,291.58L46.93,290.34L47.03,294.05L47.34,292.81L47.9,294.05L47.91,297.76L48.2,295.28L48.75,296.52L49.14,295.28L49.14,296.52L49.83,295.28L49.84,296.52L50.02,294.05L50.14,294.05L50.97,292.81L52.13,290.34L52.69,291.58L52.69,292.81L53.11,289.11L53.27,291.58L53.71,290.34L53.81,289.11L54.11,292.81L54.94,291.58L56.25,286.63L56.76,285.4L57.98,274.28L58.06,276.75L58.15,277.98L58.15,279.22L58.74,276.75L58.91,275.51L59.03,274.28L59.04,275.51L60.6,274.28L61.79,266.86L61.91,268.1L62.81,265.63L63.35,264.39L64.05,253.27L64.07,255.74L64.81,254.5L65.46,256.98L65.46,258.21L65.47,264.39L65.77,264.39L66.46,263.15L67.71,259.45L68.45,258.21L68.7,265.63L69.59,264.39L70.69,276.75L70.83,275.51L71.36,274.28L71.36,273.04L71.75,273.04L72.2,274.28L73.27,270.57L73.28,271.8L73.71,270.57L73.74,269.33L73.78,270.57L74.64,269.33L75.41,268.1L75.92,266.86L79.21,256.98L79.21,258.21L79.66,261.92L79.79,258.21L80.19,259.45L80.48,260.68L80.55,256.98L80.75,259.45L81.47,260.68L81.8,254.5L81.81,255.74L82.94,254.5L83.14,255.74L83.34,254.5L83.57,253.27L83.6,252.03L84.31,255.74L84.43,254.5L84.57,255.74L85.14,252.03L85.15,253.27L85.29,254.5L85.69,259.45L86.1,258.21L86.43,256.98L86.44,254.5L86.55,258.21L87.51,256.98L87.51,258.21L87.53,255.74L88.2,258.21L88.37,256.98L89.17,259.45L89.5,258.21L90.07,259.45L90.16,260.68L90.47,265.63L91,264.39L91.31,273.04L91.6,270.57L92.06,269.33L93.11,265.63L93.25,266.86L93.25,268.1L95.09,260.68L95.11,261.92L97.19,254.5L97.33,255.74L97.33,256.98L98.22,259.45L98.33,260.68L99.18,271.8L99.48,270.57L99.89,273.04L99.89,271.8L99.99,270.57L100.03,273.04L100.44,260.68L100.45,260.68L100.86,259.45L101.18,256.98L101.44,263.15L101.83,261.92L102.82,259.45L102.82,260.68L102.82,261.92L102.95,264.39L103.39,263.15L103.87,261.92L104.22,265.63L104.36,263.15L104.76,261.92L104.78,263.15L105.34,260.68L105.36,261.92L105.94,260.68L106.05,259.45L106.05,260.68L106.73,261.92L106.73,263.15L107.33,261.92L107.89,260.68L108.3,256.98L108.72,255.74L110.07,249.56L110.11,250.8L110.18,252.03L112.24,248.33L112.8,249.56L114.19,245.85L114.66,247.09L114.95,245.85L115.78,275.51L115.89,274.28L116.5,271.8L116.78,273.04L117.18,271.8L117.18,273.04L118.16,271.8L118.56,273.04L118.86,271.8L118.88,270.57L119.56,269.33L119.8,270.57L119.81,273.04L120.04,268.1L120.55,266.86L120.55,268.1L120.97,265.63L121.03,265.63L121.59,264.39L121.59,263.15L122.07,269.33L123.8,268.1L124.02,269.33L124.07,268.1L124.59,266.86L125.03,261.92L125.81,260.68L127.5,255.74L127.87,256.98L128.34,254.5L128.42,255.74L128.42,256.98L128.57,263.15L128.93,260.68L129.46,259.45L129.98,256.98L130.22,258.21L130.82,263.15L131.52,261.92L132.5,256.98L132.88,258.21L133.56,256.98L134.63,255.74L135.76,252.03L136.56,253.27L137.3,252.03L137.37,253.27L137.88,252.03L138.24,250.8L138.25,253.27L138.78,248.33L138.78,248.33L139.22,247.09L139.23,244.62L139.79,245.85L140.14,244.62L140.64,242.15L140.68,240.91L140.75,239.67L140.8,243.38L141.34,242.15L141.36,243.38L141.77,240.91L142.4,242.15L142.79,238.44L143.04,248.33L143.04,249.56L143.61,247.09L143.7,245.85L144.44,248.33L145.62,247.09L146.27,245.85L146.38,248.33L147.19,247.09L147.21,248.33L147.85,244.62L147.92,245.85L148.47,247.09L150.2,244.62L150.21,245.85L151.31,239.67L152.19,238.44L152.44,235.97L152.96,237.2L152.96,235.97L153.63,242.15L153.99,240.91L155.18,239.67L155.51,240.91L157.91,234.73L158.05,235.97L158.56,231.02L158.86,229.79L160.16,222.37L160.89,221.14L160.89,222.37L161.27,221.14L162.36,219.9L162.42,218.67L162.87,223.61L163.3,222.37L164.35,219.9L164.35,218.67L164.37,217.43L164.58,226.08L165.85,224.85L166.09,222.37L167.19,221.14L167.91,226.08L168.27,224.85L171.15,214.96L171.22,213.72L171.26,214.96L173,213.72L173.24,218.67L173.25,219.9L173.26,223.61L173.67,221.14L175.61,219.9L175.64,222.37L175.79,221.14L176.53,219.9L177.04,214.96L177.05,216.2L177.57,217.43L177.92,218.67L178.82,213.72L178.88,214.96L179.01,216.2L179.85,214.96L179.86,216.2L182.96,211.25L183.06,210.02L183.63,206.31L183.64,207.54L184.06,206.31L184.08,208.78L184.74,207.54L184.92,206.31L185.6,207.54L185.9,206.31L185.9,205.07L186.63,205.07L186.82,203.84L187.57,201.37L187.71,200.13L187.89,201.37L188.04,198.89L188.05,200.13L188.85,198.89L190.22,190.24L190.22,192.72L190.48,191.48L190.82,189.01L191.13,190.24L191.65,189.01L191.85,186.54L192.3,189.01L192.57,187.77L192.95,185.3L193.51,184.07L194.67,182.83L194.67,184.07L194.75,182.83L194.78,184.07L196.12,182.83L196.85,184.07L197.58,182.83L197.81,181.59L197.81,182.83L199.66,181.59L200.36,180.36L200.37,181.59L200.37,182.83L200.75,181.59L201.59,182.83L201.59,184.07L202.28,184.07L202.45,182.83L203.42,180.36L204.14,179.12L204.79,175.41L205.16,176.65L206.54,171.71L206.87,172.94L208.29,171.71L208.51,170.47L209.5,169.24L209.62,170.47L210.33,169.24L212.13,165.53L212.43,166.76L212.79,163.06L213.53,161.82L213.96,164.29L213.99,163.06L214.27,161.82L215.01,159.35L215.22,160.59L215.26,161.82L215.28,165.53L216.01,161.82L216.07,163.06L216.44,160.59L216.52,168L216.91,166.76L216.94,168L216.96,166.76L217.68,165.53L217.9,166.76L218.36,163.06L218.5,164.29L219.24,179.12L219.32,180.36L219.38,177.89L219.49,187.77L219.98,186.54L220.04,187.77L220.06,186.54L220.26,193.95L220.85,192.72L221.01,193.95L221.44,189.01L221.44,190.24L221.6,191.48L221.87,192.72L222.03,190.24L222.15,189.01L223.11,184.07L223.4,182.83L223.88,179.12L223.92,177.89L224.03,182.83L224.95,181.59L226.94,179.12L226.97,177.89L227.56,171.71L227.93,170.47L228.37,171.71L230.02,170.47L231.17,168L231.25,166.76L232.09,165.53L232.51,166.76L233.24,164.29L235.08,163.06L235.66,160.59L235.74,159.35L235.89,156.88L236.62,155.64L236.75,156.88L236.93,155.64L238.08,154.41L238.4,150.7L238.42,158.11L238.42,159.35L238.42,160.59L238.97,155.64L239.4,154.41L239.6,155.64L240.56,154.41L240.72,155.64L240.95,154.41L241.54,155.64L241.61,154.41L241.79,159.35L242.22,156.88L242.49,158.11L242.79,156.88L242.81,159.35L242.91,159.35L242.92,160.59L243.93,156.88L244.37,155.64L244.78,153.17L244.91,159.35L245.28,158.11L245.59,156.88L245.74,158.11L245.77,159.35L245.85,158.11L246.16,160.59L246.48,161.82L246.56,159.35L246.6,170.47L246.61,171.71L246.72,170.47L247.12,190.24L247.27,189.01L247.4,190.24L247.84,191.48L248.39,190.24L249.41,185.3L249.5,186.54L250.81,177.89L250.95,179.12L251.23,177.89L252.46,174.18L252.46,175.41L252.61,176.65L253.19,172.94L253.5,171.71L253.7,170.47L254.34,171.71L254.96,165.53L255.42,164.29L255.89,159.35L255.91,160.59L256.44,161.82L257.25,156.88L257.43,155.64L258.69,148.23L259.12,146.99L259.32,145.76L260.36,144.52L261.77,137.11L262.19,135.87L263.17,132.16L263.21,133.4L264.56,127.22L265.21,125.98L267.19,119.8L267.2,121.04L270.17,104.98L270.39,106.21L270.4,108.68L271.32,107.45L271.32,108.68L272.03,104.98L272.66,103.74L272.95,104.98L274.11,103.74L274.4,100.03L276.83,101.27L277,129.69L277.91,128.46L279.08,129.69L279.23,128.46L279.23,127.22L279.32,130.93L279.49,128.46L280.09,129.69L282.98,128.46L283.71,127.22L284.27,123.51L284.27,122.28L284.39,124.75L284.92,123.51L285.03,122.28L285.08,123.51L286.01,122.28L287.19,128.46L287.3,127.22L287.49,125.98L287.52,128.46L287.95,125.98L288.19,124.75L288.94,122.28L289.03,121.04L289.41,118.57L289.77,119.8L289.77,121.04L290.06,133.4L291,132.16L291.17,133.4L291.68,130.93L291.69,132.16L291.69,133.4L292.69,130.93L292.86,132.16L292.97,129.69L293.42,130.93L293.79,132.16L294.26,133.4L294.77,132.16L296.22,127.22L296.53,125.98L296.85,128.46L297.01,123.51L297.13,124.75L297.18,123.51L297.73,124.75L298.86,123.51L298.89,124.75L299.42,122.28L299.77,121.04L300.09,116.1L300.36,117.33L300.73,118.57L300.74,123.51L300.93,121.04L301.96,119.8L302.68,130.93L302.68,129.69L302.79,128.46L302.81,127.22L303.12,138.34L303.27,138.34L303.37,139.58L303.42,148.23L304.11,145.76L304.46,146.99L305.17,142.05L305.33,143.28L306,140.81L306.54,139.58L306.57,140.81L306.84,137.11L307.66,135.87L307.89,137.11L307.89,135.87L308.52,134.63L308.83,138.34L308.94,134.63L309.4,133.4L309.79,129.69L310.42,128.46L310.62,127.22L311.94,125.98L312.61,122.28L312.67,121.04L313.87,113.63L314.85,112.39L317.54,103.74L318.65,102.5L319.42,100.03L320.23,98.8L320.37,96.33L321.11,97.56L321.47,116.1L321.66,114.86L321.94,116.1L322.22,114.86L322.24,117.33L322.59,116.1L323.22,117.33L323.73,116.1L324.46,117.33L325.58,113.63L326.53,112.39L327.8,111.15L328.14,112.39L328.19,113.63L329.19,112.39L329.71,109.92L330.17,111.15L330.34,109.92L330.77,111.15L330.8,112.39L330.8,113.63L331.47,111.15L332.15,112.39L333.13,146.99L333.41,145.76L333.57,142.05L334.02,146.99L334.18,148.23L335.61,137.11L335.96,135.87L336.08,138.34L336.54,137.11L336.97,135.87L337.95,138.34L338.34,137.11L339.32,135.87L339.33,137.11L339.93,135.87L340.15,134.63L340.49,133.4L340.9,134.63L341.27,133.4L341.86,132.16L342.11,130.93L342.31,128.46L343.42,127.22L343.69,125.98L344.77,124.75L346.36,119.8L346.37,121.04L346.39,122.28L347.35,117.33L347.87,118.57L348.71,113.63L348.72,114.86L349.21,113.63L349.25,114.86L349.87,112.39L349.88,111.15L349.98,108.68L351.28,107.45L352.12,104.98L352.15,103.74L352.97,101.27L353.3,100.03L354.23,104.98L354.61,103.74L354.79,102.5L356.29,100.03L356.5,101.27L357.59,98.8L358.15,97.56L359.7,92.62L360.3,91.38L360.67,90.15L360.88,91.38L360.94,92.62L360.95,91.38L361.83,90.15L362.94,87.67L363.05,86.44L364.03,85.2L364.04,86.44L364.12,103.74L364.76,100.03L365.01,101.27L365.63,98.8L365.87,97.56L366.61,98.8L367.52,97.56L368.13,93.85L368.24,95.09L368.52,93.85L369.79,91.38L370.63,90.15L371.25,87.67L371.25,86.44L371.25,80.26L372.5,79.02L373.52,75.32L375.01,76.55L375.01,79.02L375.42,75.32L375.42,76.55L375.77,75.32L376.26,76.55L376.58,75.32L376.59,74.08L376.84,75.32L377.7,74.08L377.85,72.85L377.85,74.08L379.15,75.32L379.78,74.08L379.84,75.32L380,76.55L380.61,77.79L380.92,79.02L381.12,92.62L382.09,93.85L383.1,91.38L383.61,90.15L383.74,87.67L383.77,91.38L384.19,92.62L385.39,83.97L385.4,85.2L385.4,83.97L385.42,90.15L385.73,87.67L386.29,86.44L387.58,82.73L388.69,81.5L389.39,77.79L390.1,76.55L390.47,72.85L390.94,75.32L391.19,74.08L392.2,67.9L392.2,69.14L393.62,67.9L394.38,61.72L394.4,64.2L395.2,62.96L395.53,64.2L395.57,62.96L396.07,61.72L396.62,59.25L397.26,60.49L398.2,56.78L398.83,55.54L399.44,53.07L399.66,54.31L399.79,55.54L400.1,56.78L400.31,55.54L401.47,56.78L403.83,48.13L404.11,46.89L405.09,45.66L405.81,46.89L406.89,43.19L406.97,41.95L407.03,43.19L407.19,38.24L407.81,39.48L407.88,37.01L409.02,35.77L409.18,33.3L409.36,35.77L409.62,37.01L410.01,35.77L410.17,37.01L410.2,38.24L410.47,40.72L411,39.48L412.03,32.07L412.07,35.77L412.72,34.54L412.8,33.3L413.01,35.77L413.24,35.77L413.41,37.01L414.19,32.07L414.51,33.3L414.64,37.01L415.14,32.07L415.46,30.83L416.03,28.36L416.04,29.59L416.1,30.83L416.65,25.89L416.75,28.36L417.01,29.59L417.17,27.12L417.31,41.95L417.31,43.19L417.71,45.66L417.99,43.19L418,41.95L418,34.54L418.68,43.19L418.71,39.48L418.83,40.72L420.5,32.07L420.55,33.3L420.69,45.66L421.09,40.72L421.37,39.48L421.41,41.95L421.93,39.48L422.51,38.24L423.14,41.95L423.42,40.72L423.64,39.48L423.79,41.95L423.87,40.72L424.44,39.48L425.07,49.37L425.1,48.13L425.47,46.89L425.55,45.66L425.87,49.37L426.13,48.13L426.47,46.89L426.88,43.19L427.06,45.66L427.59,44.42L428,40.72L428.4,43.19L428.4,44.42L429.24,61.72L429.45,60.49L429.52,59.25L429.53,60.49L429.87,58.02L430.7,56.78L430.83,60.49L431.81,61.72L432.89,59.25L432.93,58.02L433.09,59.25L433.46,58.02L433.92,56.78L434.37,54.31L434.49,58.02L434.62,56.78L434.86,55.54L435.5,53.07L435.85,54.31L436.46,60.49L436.69,58.02L436.71,56.78L437.41,60.49L437.55,59.25L437.94,50.6L438.31,58.02L438.41,56.78L438.68,53.07L438.8,60.49L438.8,61.72L439.39,53.07L439.51,55.54L439.64,54.31L439.99,50.6L440.21,51.84L440.4,53.07L440.64,50.6L440.8,60.49L440.81,61.72L441.09,77.79L441.51,72.85L441.61,74.08L441.61,75.32L442.36,74.08L442.44,72.85L442.59,71.61L442.65,81.5L442.79,79.02L442.9,80.26L443.71,77.79L444.31,76.55L445.12,71.61L445.28,70.37L445.86,65.43L446.11,67.9L446.14,69.14L446.29,67.9L446.66,74.08L447.24,72.85L447.36,74.08L447.62,71.61L447.8,72.85L448.13,74.08L448.78,64.2L449.08,62.96L449.1,61.72L449.18,65.43L449.53,62.96L450.02,61.72L450.04,62.96L450.61,53.07L450.65,55.54L451.44,54.31L451.92,50.6L452.47,51.84L452.6,49.37L452.88,55.54L453.25,54.31L453.27,53.07L453.59,51.84L453.85,54.31L454.14,53.07L454.32,55.54L454.67,53.07L455.02,54.31L455.54,48.13L455.89,50.6L455.95,51.84L456.07,50.6L456.1,54.31L456.54,51.84L456.96,50.6L456.97,49.37L457.51,60.49L457.53,58.02L457.67,56.78L458.89,60.49L459.08,59.25L459.33,61.72L459.79,60.49L460.03,59.25L461.02,64.2L461.16,61.72L461.19,60.49L461.3,58.02L461.85,61.72L461.85,61.72L462.2,60.49L462.44,56.78L462.83,60.49L462.86,61.72L463.17,60.49L464,80.26L464.27,79.02L464.36,77.79L465.09,75.32L465.11,74.08L465.96,64.2L466.05,65.43L466.12,62.96L466.23,74.08L466.51,74.08L467.06,72.85L467.73,82.73L467.88,80.26L467.95,79.02L468.02,80.26L468.28,74.08L468.89,75.32L469.13,71.61L469.16,76.55L469.32,75.32L469.78,76.55L470.06,77.79L470.69,72.85L470.99,74.08L471.01,77.79L471.68,75.32L471.81,76.55L472.26,74.08L472.96,72.85L473.22,67.9L473.53,72.85L473.83,71.61L474.93,61.72L475.69,62.96L476.21,75.32L476.61,74.08L476.71,76.55L477.05,69.14L477.22,70.37L477.47,69.14L477.93,76.55L478.63,75.32L478.81,74.08L479.14,76.55L479.14,77.79L479.78,75.32L480.03,88.91L480.12,87.67L480.12,85.2L480.68,92.62L480.95,91.38L481.16,92.62L482.61,91.38L483.19,92.62L483.49,91.38L483.94,92.62L483.95,91.38L484.49,90.15L484.49,88.91L484.75,92.62L484.83,91.38L485.44,90.15L485.66,91.38L485.99,90.15L486.38,88.91L486.45,86.44L486.59,90.15L486.88,88.91L487.4,87.67L487.48,86.44L487.9,91.38L487.9,92.62L488.99,88.91L489.38,90.15L489.63,87.67L489.93,90.15L489.93,91.38L490.52,92.62L490.69,91.38L491.47,83.97L491.5,87.67L491.5,88.91L491.65,86.44L492.5,87.67L492.5,86.44L492.77,86.44L493.92,85.2L494.46,81.5L494.71,83.97L494.8,82.73L495.44,77.79L495.63,76.55L496.27,79.02L496.31,76.55L496.45,75.32L497.27,74.08L497.83,75.32L497.84,77.79L498.38,77.79L498.67,76.55L498.67,75.32L499.38,77.79L499.57,76.55L499.66,75.32L500.56,74.08L501.18,75.32L501.61,74.08L502.35,69.14L502.59,67.9L502.59,69.14L502.76,67.9L503.47,66.67L503.73,69.14L504.18,67.9L504.29,69.14L504.7,64.2L504.85,66.67L505.13,67.9L505.39,64.2L507.15,65.43L507.48,61.72L508.11,62.96L508.36,75.32L508.8,71.61L508.93,72.85L509.05,75.32L509.63,74.08L510.02,72.85L510.34,69.14L511.27,67.9L511.4,65.43L512.41,64.2L513.07,61.72L513.17,60.49L513.3,58.02L514.71,59.25L515.12,77.79L515.41,75.32L515.49,74.08L515.54,76.55L516.27,75.32L517.21,71.61L517.21,72.85L517.93,79.02L517.97,77.79L518.4,76.55L519.03,71.61L519.06,72.85L519.5,71.61L521.96,66.67L522.28,65.43L522.91,62.96L523.38,61.72L524.33,59.25L524.38,58.02L524.58,59.25L525.22,58.02L525.87,55.54L527.35,54.31L528.57,51.84L528.9,50.6L530.27,43.19L530.28,44.42L530.3,43.19L530.35,46.89L530.92,44.42L531.13,43.19L531.96,34.54L532.1,33.3L532.66,29.59L535.61,28.36L537.07,20.94L538.89,19.71L538.91,18.47L539.85,17.24L539.87,18.47L540,16" style="vector-effect: none; fill: none; stroke: rgb(255, 127, 14); stroke-opacity: 1; stroke-width: 2px; opacity: 1;"/></g><g class="points"/><g class="text"/></g></g></g></g><g class="zerolinelayer-above"/><path class="xlines-above crisp" d="M0,0" style="fill: none;"/><path class="ylines-above crisp" d="M0,0" style="fill: none;"/><g class="overlines-above"/><g class="xaxislayer-above"><g class="xtick"><text text-anchor="middle" x="0" y="439" transform="translate(100.7,0)" style="font-family: 'Open Sans'; font-size: 18px; fill: rgb(0, 0, 0); fill-opacity: 1; white-space: pre;">2016</text></g><g class="xtick"><text text-anchor="middle" x="0" y="439" style="font-family: 'Open Sans'; font-size: 18px; fill: rgb(0, 0, 0); fill-opacity: 1; white-space: pre;" transform="translate(203.42000000000002,0)">2018</text></g><g class="xtick"><text text-anchor="middle" x="0" y="439" style="font-family: 'Open Sans'; font-size: 18px; fill: rgb(0, 0, 0); fill-opacity: 1; white-space: pre;" transform="translate(305.99,0)">2020</text></g><g class="xtick"><text text-anchor="middle" x="0" y="439" style="font-family: 'Open Sans'; font-size: 18px; fill: rgb(0, 0, 0); fill-opacity: 1; white-space: pre;" transform="translate(408.71,0)">2022</text></g><g class="xtick"><text text-anchor="middle" x="0" y="439" style="font-family: 'Open Sans'; font-size: 18px; fill: rgb(0, 0, 0); fill-opacity: 1; white-space: pre;" transform="translate(511.29,0)">2024</text></g><g class="xtick"><text text-anchor="middle" x="0" y="439" style="font-family: 'Open Sans'; font-size: 18px; fill: rgb(0, 0, 0); fill-opacity: 1; white-space: pre;" transform="translate(614,0)">2026</text></g></g><g class="yaxislayer-above"><g class="ytick"><text text-anchor="end" x="79" y="6.3" transform="translate(0,420)" style="font-family: 'Open Sans'; font-size: 18px; fill: rgb(0, 0, 0); fill-opacity: 1; white-space: pre;">0</text></g><g class="ytick"><text text-anchor="end" x="79" y="6.3" style="font-family: 'Open Sans'; font-size: 18px; fill: rgb(0, 0, 0); fill-opacity: 1; white-space: pre;" transform="translate(0,358.21)">50</text></g><g class="ytick"><text text-anchor="end" x="79" y="6.3" style="font-family: 'Open Sans'; font-size: 18px; fill: rgb(0, 0, 0); fill-opacity: 1; white-space: pre;" transform="translate(0,296.41999999999996)">100</text></g><g class="ytick"><text text-anchor="end" x="79" y="6.3" style="font-family: 'Open Sans'; font-size: 18px; fill: rgb(0, 0, 0); fill-opacity: 1; white-space: pre;" transform="translate(0,234.63)">150</text></g><g class="ytick"><text text-anchor="end" x="79" y="6.3" style="font-family: 'Open Sans'; font-size: 18px; fill: rgb(0, 0, 0); fill-opacity: 1; white-space: pre;" transform="translate(0,172.85)">200</text></g><g class="ytick"><text text-anchor="end" x="79" y="6.3" style="font-family: 'Open Sans'; font-size: 18px; fill: rgb(0, 0, 0); fill-opacity: 1; white-space: pre;" transform="translate(0,111.06)">250</text></g></g><g class="overaxes-above"/></g></g><g class="polarlayer"/><g class="smithlayer"/><g class="ternarylayer"/><g class="geolayer"/><g class="funnelarealayer"/><g class="pielayer"/><g class="iciclelayer"/><g class="treemaplayer"/><g class="sunburstlayer"/><g class="glimages"/><defs id="topdefs-8b4e5e"><g class="clips"/></defs><g class="layer-above"><g class="imagelayer"/><g class="shapelayer"/></g><g class="infolayer"><g class="g-gtitle"><text class="gtitle" x="35" y="50" text-anchor="start" dy="0em" style="opacity: 1; font-family: 'Open Sans'; font-size: 25px; fill: rgb(0, 0, 0); fill-opacity: 1; white-space: pre;">MultiQC/MultiQC - Open Issues Over Time</text></g><g class="g-xtitle"><text class="xtitle" x="350" y="472.9" text-anchor="middle" style="opacity: 1; font-family: 'Open Sans'; font-size: 22px; fill: rgb(0, 0, 0); fill-opacity: 1; white-space: pre;">Date</text></g><g class="g-ytitle"><text class="ytitle" transform="rotate(-90,29.799999999999997,260)" x="29.799999999999997" y="260" text-anchor="middle" style="opacity: 1; font-family: 'Open Sans'; font-size: 22px; fill: rgb(0, 0, 0); fill-opacity: 1; white-space: pre;">Number of Open Issues</text></g></g></svg>