<svg class="main-svg" xmlns="http://www.w3.org/2000/svg" xmlns:xlink="http://www.w3.org/1999/xlink" width="700" height="500" style="" viewBox="0 0 700 500"><rect x="0" y="0" width="700" height="500" style="fill: rgb(0, 0, 0); fill-opacity: 0;"/><defs id="defs-9352bc"><g class="clips"><clipPath id="clip9352bcxyplot" class="plotclip"><rect width="540" height="320"/></clipPath><clipPath class="axesclip" id="clip9352bcx"><rect x="80" y="0" width="540" height="500"/></clipPath><clipPath class="axesclip" id="clip9352bcy"><rect x="0" y="100" width="700" height="320"/></clipPath><clipPath class="axesclip" id="clip9352bcxy"><rect x="80" y="100" width="540" height="320"/></clipPath></g><g class="gradients"/><g class="patterns"/></defs><g class="bglayer"><rect class="bg" x="80" y="100" width="540" height="320" style="fill: rgb(0, 0, 0); fill-opacity: 0; stroke-width: 0;"/></g><g class="layer-below"><g class="imagelayer"/><g class="shapelayer"/></g><g class="cartesianlayer"><g class="subplot xy"><g class="layer-subplot"><g class="shapelayer"/><g class="imagelayer"/></g><g class="minor-gridlayer"><g class="x"/><g class="y"/></g><g class="gridlayer"><g class="x"><path class="xgrid crisp" transform="translate(100.51,0)" d="M0,100v320" style="stroke: rgb(255, 255, 255); stroke-opacity: 1; stroke-width: 1px;"/><path class="xgrid crisp" transform="translate(202.3,0)" d="M0,100v320" style="stroke: rgb(255, 255, 255); stroke-opacity: 1; stroke-width: 1px;"/><path class="xgrid crisp" transform="translate(303.95,0)" d="M0,100v320" style="stroke: rgb(255, 255, 255); stroke-opacity: 1; stroke-width: 1px;"/><path class="xgrid crisp" transform="translate(405.74,0)" d="M0,100v320" style="stroke: rgb(255, 255, 255); stroke-opacity: 1; stroke-width: 1px;"/><path class="xgrid crisp" transform="translate(507.39,0)" d="M0,100v320" style="stroke: rgb(255, 255, 255); stroke-opacity: 1; stroke-width: 1px;"/><path class="xgrid crisp" transform="translate(609.18,0)" d="M0,100v320" style="stroke: rgb(255, 255, 255); stroke-opacity: 1; stroke-width: 1px;"/></g><g class="y"><path class="ygrid crisp" transform="translate(0,360.16)" d="M80,0h540" style="stroke: rgb(255, 255, 255); stroke-opacity: 1; stroke-width: 1px;"/><path class="ygrid crisp" transform="translate(0,300.31)" d="M80,0h540" style="stroke: rgb(255, 255, 255); stroke-opacity: 1; stroke-width: 1px;"/><path class="ygrid crisp" transform="translate(0,240.47)" d="M80,0h540" style="stroke: rgb(255, 255, 255); stroke-opacity: 1; stroke-width: 1px;"/><path class="ygrid crisp" transform="translate(0,180.63)" d="M80,0h540" style="stroke: rgb(255, 255, 255); stroke-opacity: 1; stroke-width: 1px;"/><path class="ygrid crisp" transform="translate(0,120.78999999999999)" d="M80,0h540" style="stroke: rgb(255, 255, 255); stroke-opacity: 1; stroke-width: 1px;"/></g></g><g class="zerolinelayer"><path class="yzl zl crisp" transform="translate(0,420)" d="M80,0h540" style="stroke: rgb(255, 255, 255); stroke-opacity: 1; stroke-width: 2px;"/></g><g class="layer-between"><g class="shapelayer"/><g class="imagelayer"/></g><path class="xlines-below"/><path class="ylines-below"/><g class="overlines-below"/><g class="xaxislayer-below"/><g class="yaxislayer-below"/><g class="overaxes-below"/><g class="overplot"><g class="xy" transform="translate(80,100)" clip-path="url(#clip9352bcxyplot)"><g class="scatterlayer mlayer"><g class="trace scatter trace6afcdf" style="stroke-miterlimit: 2;"><g class="fills"><g><path class="js-fill" d="M540,320L0,320L0,318.8L0,316.41L0.55,317.61L1.8,318.8L1.92,317.61L2.92,318.8L3.74,312.82L3.76,314.02L4.43,312.82L4.85,308.03L5.02,309.23L5.39,310.43L5.55,306.83L5.84,311.62L5.98,309.23L6.27,310.43L6.94,299.65L7.06,298.46L7.22,297.26L7.49,300.85L7.5,302.05L7.66,292.47L8.35,291.28L8.73,300.85L8.73,302.05L9.45,309.23L9.46,308.03L9.58,306.83L9.89,302.05L9.89,300.85L10.29,299.65L10.32,302.05L10.33,303.24L11.28,306.83L11.39,305.64L11.53,304.44L12.49,287.69L12.53,293.67L12.53,294.87L12.65,292.47L12.95,296.06L13.13,293.67L13.36,292.47L13.75,286.49L13.89,290.08L14.3,288.88L14.48,287.69L14.61,290.08L15.3,291.28L15.46,294.87L16.64,293.67L17.23,291.28L17.36,290.08L18.07,285.29L18.08,286.49L18.21,285.29L18.65,286.49L21.14,285.29L21.15,286.49L21.54,282.9L21.55,285.29L23.05,284.09L23.24,285.29L23.39,284.09L24.21,282.9L24.92,280.5L25.03,281.7L25.34,280.5L26.07,288.88L26.14,287.69L26.41,284.09L26.84,286.49L26.87,287.69L27,286.49L27.25,287.69L28.4,288.88L29.82,285.29L30.04,286.49L30.08,290.08L30.08,290.08L30.86,288.88L31.33,292.47L31.74,291.28L31.93,297.26L32.82,298.46L33.51,296.06L33.51,297.26L33.65,298.46L34.52,294.87L34.64,296.06L35.24,297.26L35.61,296.06L35.61,297.26L35.75,291.28L36.03,292.47L36.71,291.28L36.94,287.69L37.13,294.87L37.62,296.06L37.69,294.87L38.13,298.46L38.18,299.65L38.4,294.87L38.69,296.06L38.99,297.26L39.82,291.28L39.95,294.87L40.28,293.67L40.49,291.28L40.64,294.87L40.78,293.67L40.91,294.87L41.95,288.88L42.02,287.69L42.99,285.29L43.59,286.49L44.25,287.69L44.53,286.49L44.55,290.08L45,285.29L45.26,286.49L45.33,285.29L45.33,284.09L45.94,293.67L46.33,292.47L46.34,294.87L46.51,291.28L46.92,293.67L47.47,294.87L47.47,298.46L47.76,296.06L48.31,297.26L48.7,296.06L48.7,297.26L49.38,296.06L49.39,297.26L49.57,294.87L49.69,294.87L50.51,293.67L51.66,291.28L52.21,292.47L52.21,293.67L52.63,290.08L52.78,292.47L53.22,291.28L53.32,290.08L53.63,293.67L54.44,292.47L55.75,287.69L56.24,286.49L57.46,275.72L57.53,278.11L57.63,279.31L57.63,280.5L58.38,276.91L58.5,275.72L58.51,276.91L60.05,275.72L61.23,268.54L61.35,269.73L62.24,267.34L62.78,266.14L63.47,255.37L63.5,257.76L64.22,256.57L64.87,258.96L64.87,260.16L64.88,266.14L65.17,266.14L65.86,264.94L67.1,261.35L67.83,260.16L68.08,267.34L68.97,266.14L70.05,278.11L70.19,276.91L70.71,275.72L70.71,274.52L71.1,274.52L71.55,275.72L72.61,272.13L72.61,273.32L73.04,272.13L73.07,270.93L73.12,272.13L73.96,270.93L74.73,269.73L75.23,268.54L78.49,258.96L78.49,260.16L78.94,263.75L79.07,260.16L79.47,261.35L79.75,262.55L79.82,258.96L80.02,261.35L80.74,262.55L81.06,256.57L81.07,257.76L82.19,256.57L82.39,257.76L82.58,256.57L82.82,255.37L82.84,254.17L83.54,257.76L83.67,256.57L83.81,257.76L84.37,254.17L84.38,255.37L84.52,256.57L84.91,261.35L85.32,260.16L85.65,258.96L85.66,256.57L85.77,260.16L86.72,258.96L86.72,260.16L86.74,257.76L87.4,260.16L87.57,258.96L88.36,261.35L88.69,260.16L89.26,261.35L89.34,262.55L89.65,267.34L90.18,266.14L90.48,274.52L90.77,272.13L91.23,270.93L92.27,267.34L92.41,268.54L92.41,269.73L94.24,262.55L94.25,263.75L96.32,256.57L96.45,257.76L96.45,258.96L97.34,261.35L97.44,262.55L98.28,273.32L98.59,272.13L98.99,274.52L98.99,273.32L99.08,272.13L99.12,274.52L99.54,262.55L99.54,262.55L99.95,261.35L100.26,258.96L100.53,264.94L100.91,263.75L101.89,261.35L101.9,262.55L101.9,263.75L102.02,266.14L102.45,264.94L102.94,263.75L103.28,267.34L103.41,264.94L103.81,263.75L103.83,264.94L104.38,262.55L104.4,263.75L104.98,262.55L105.09,261.35L105.09,262.55L105.77,263.75L105.77,264.94L106.36,263.75L106.92,262.55L107.15,258.96L107.32,258.96L107.74,257.76L109.08,251.78L109.12,252.98L109.19,254.17L111.23,250.58L111.78,251.78L113.16,248.19L113.62,249.39L113.91,248.19L114.74,276.91L114.84,275.72L115.45,273.32L115.72,274.52L116.12,273.32L116.13,274.52L117.1,273.32L117.49,274.52L117.79,273.32L117.8,272.13L118.48,270.93L118.72,272.13L118.73,274.52L118.95,269.73L119.46,268.54L119.46,269.73L119.88,267.34L119.93,267.34L120.49,266.14L120.49,264.94L120.97,270.93L122.69,269.73L122.9,270.93L122.95,269.73L123.47,268.54L123.9,263.75L124.68,262.55L126.35,257.76L126.72,258.96L127.18,256.57L127.26,257.76L127.26,258.96L127.41,264.94L127.77,262.55L128.29,261.35L128.8,258.96L129.04,260.16L129.04,261.35L129.64,264.94L130.34,263.75L131.31,258.96L131.68,260.16L132.36,258.96L133.41,257.76L134.53,254.17L135.33,255.37L136.06,254.17L136.13,255.37L136.64,254.17L136.99,252.98L137,255.37L137.53,250.58L137.53,250.58L137.97,249.39L137.97,246.99L138.53,248.19L138.88,246.99L139.37,244.6L139.41,243.4L139.48,242.2L139.53,245.8L140.07,244.6L140.09,245.8L140.49,243.4L141.12,244.6L141.5,241.01L141.75,251.78L142.3,250.58L143.03,248.19L143.11,249.39L143.12,248.19L143.14,250.58L144.3,249.39L144.94,248.19L145.06,250.58L145.86,249.39L145.88,250.58L146.52,246.99L146.58,248.19L147.13,249.39L148.84,246.99L148.86,248.19L149.94,242.2L150.82,241.01L151.06,238.61L151.58,239.81L151.58,238.61L152.24,244.6L152.6,243.4L153.78,242.2L154.1,243.4L156.48,237.42L156.62,238.61L157.13,233.83L157.42,232.63L158.71,225.45L159.43,224.25L159.43,225.45L159.82,224.25L160.89,223.06L160.95,221.86L161.4,226.65L161.82,225.45L162.86,223.06L162.87,221.86L162.89,220.66L163.09,229.04L164.35,227.84L164.59,225.45L165.68,224.25L166.4,229.04L166.75,227.84L169.6,218.27L169.67,217.07L169.72,218.27L171.43,217.07L171.68,221.86L171.69,223.06L171.69,226.65L172.1,224.25L174.03,223.06L174.05,225.45L174.2,224.25L174.93,223.06L175.44,218.27L175.45,219.46L175.97,220.66L176.32,221.86L177.21,217.07L177.27,218.27L177.4,219.46L178.23,218.27L178.24,219.46L181.31,214.68L181.41,213.48L181.97,209.89L181.98,211.09L182.39,209.89L182.42,212.28L183.07,211.09L183.25,209.89L183.93,211.09L184.22,209.89L184.22,208.69L184.95,208.69L185.13,207.5L185.88,205.1L186.02,203.91L186.19,205.1L186.34,202.71L186.35,203.91L187.14,202.71L188.5,194.33L188.5,196.72L188.76,195.53L189.09,193.13L189.4,194.33L189.91,193.13L190.11,190.74L190.57,193.13L190.83,191.94L191.21,189.54L191.76,188.35L192.91,187.15L192.91,188.35L192.99,187.15L193.02,188.35L194.35,187.15L195.08,188.35L195.8,187.15L196.02,185.95L196.02,187.15L197.85,185.95L198.55,184.76L198.56,185.95L198.56,187.15L198.94,185.95L199.77,187.15L199.77,188.35L200.45,188.35L200.62,187.15L201.58,184.76L202.3,183.56L202.94,179.97L203.31,181.17L204.68,176.38L205,177.57L206.4,176.38L207.61,173.98L207.73,175.18L210.21,170.39L210.51,171.59L210.87,168L211.6,166.8L212.02,169.2L212.06,168L212.33,166.8L213.07,164.41L213.28,165.61L213.31,166.8L213.34,170.39L214.06,166.8L214.11,168L214.49,165.61L214.57,171.59L214.57,172.79L215.74,169.2L215.86,170.39L215.93,171.59L216.39,168L216.53,170.39L216.56,171.59L217.21,175.18L217.21,176.38L217.5,191.94L218,190.74L218.86,197.92L219.01,196.72L219.02,197.92L219.44,193.13L219.6,195.53L219.87,196.72L221.09,188.35L221.39,187.15L221.86,183.56L221.9,182.36L222,187.15L222.91,185.95L224.89,183.56L224.92,182.36L225.5,176.38L225.87,175.18L226.31,176.38L227.94,175.18L229.08,172.79L229.16,171.59L230,170.39L230.41,171.59L231.13,169.2L232.96,168L233.53,165.61L233.61,164.41L233.76,162.02L234.49,160.82L234.61,162.02L234.79,160.82L235.93,159.62L236.25,156.03L236.27,163.21L236.27,164.41L236.27,165.61L236.81,160.82L237.24,159.62L237.44,160.82L238.39,159.62L238.54,160.82L238.78,159.62L239.36,160.82L239.43,159.62L239.61,164.41L240.03,162.02L240.3,163.21L240.6,162.02L240.62,164.41L240.72,164.41L240.73,165.61L242.16,160.82L242.17,162.02L242.29,163.21L242.51,159.62L242.57,158.43L242.7,164.41L243.07,163.21L243.37,162.02L244.25,166.8L244.32,165.61L244.34,164.41L244.89,194.33L245.04,193.13L245.17,194.33L245.17,195.53L245.6,195.53L246.14,194.33L247.16,189.54L247.25,190.74L248.54,182.36L248.68,183.56L248.96,182.36L250.17,178.77L250.18,179.97L250.32,181.17L250.91,177.57L251.21,176.38L251.4,175.18L252.04,176.38L252.66,170.39L253.11,169.2L253.58,164.41L253.6,165.61L254.12,166.8L254.93,162.02L255.11,160.82L256.35,153.64L256.78,152.44L256.98,151.24L258.01,150.05L259.4,142.87L259.82,141.67L260.79,138.08L260.83,139.28L260.97,138.08L260.98,139.28L261.4,136.88L261.91,135.69L262.17,133.29L262.82,132.09L264.78,126.11L264.78,127.31L267.73,111.75L267.94,112.94L267.96,115.34L268.87,114.14L268.87,115.34L269.58,111.75L270.2,110.55L270.48,111.75L271.63,110.55L271.92,106.96L274.33,108.16L274.5,135.69L275.4,134.49L276.56,135.69L276.71,134.49L276.71,133.29L276.79,136.88L276.97,134.49L277.56,135.69L280.43,134.49L281.15,133.29L281.7,129.7L281.71,128.5L281.82,130.9L282.46,128.5L282.51,129.7L283.43,128.5L283.67,129.7L284.2,134.49L284.37,132.09L284.59,133.29L284.89,132.09L284.92,134.49L285.34,133.29L285.35,132.09L286.8,124.91L287.15,126.11L287.44,139.28L288.37,138.08L288.54,139.28L289.05,136.88L289.06,138.08L289.06,139.28L290.05,136.88L290.22,138.08L290.33,135.69L290.77,136.88L291.14,138.08L291.6,139.28L292.11,138.08L293.54,133.29L293.86,132.09L294.17,134.49L294.33,129.7L294.49,129.7L294.88,130.9L294.95,129.7L295.04,130.9L296.16,129.7L296.19,130.9L296.72,128.5L297.06,127.31L297.38,122.52L297.64,123.72L298.02,124.91L298.02,129.7L298.21,127.31L299.23,126.11L299.95,136.88L299.95,135.69L300.05,134.49L300.08,133.29L300.39,144.06L300.53,144.06L300.63,145.26L300.68,153.64L301.37,151.24L301.71,152.44L302.41,147.65L302.57,148.85L303.24,146.46L303.77,145.26L303.8,146.46L304.07,142.87L304.88,141.67L305.11,142.87L305.11,141.67L305.73,140.47L306.04,144.06L306.15,140.47L306.6,139.28L306.99,135.69L307.62,134.49L307.81,133.29L309.12,132.09L309.78,128.5L309.84,127.31L311.04,120.13L312.01,118.93L314.68,110.55L315.77,109.35L316.54,106.96L317.34,105.76L317.48,103.37L318.21,104.57L318.56,122.52L318.76,121.32L319.04,122.52L319.31,121.32L319.33,123.72L319.67,122.52L320.3,123.72L320.8,122.52L321.53,123.72L322.64,120.13L323.58,118.93L324.84,117.73L325.18,118.93L325.23,120.13L326.22,118.93L326.73,116.54L327.18,117.73L327.36,116.54L327.78,117.73L327.81,118.93L327.81,120.13L328.48,117.73L329.15,118.93L330.12,152.44L330.4,151.24L330.56,147.65L331.01,152.44L331.16,153.64L332.58,142.87L332.92,141.67L333.04,144.06L333.5,142.87L333.93,141.67L334.9,144.06L335.28,142.87L336.25,141.67L336.26,142.87L336.86,141.67L337.08,140.47L338.2,138.08L338.76,139.28L339.22,134.49L340.31,133.29L340.58,132.09L341.66,130.9L343.24,126.11L343.24,127.31L343.26,128.5L344.21,123.72L344.73,124.91L345.56,120.13L345.57,121.32L346.05,120.13L346.1,121.32L346.71,118.93L346.71,117.73L346.82,115.34L348.1,114.14L348.94,111.75L348.97,110.55L349.78,108.16L350.11,106.96L351.03,111.75L351.4,110.55L351.58,109.35L353.07,106.96L353.28,108.16L354.36,105.76L354.92,104.57L356.45,99.78L357.05,98.58L357.41,97.39L357.62,98.58L357.68,99.78L357.69,98.58L358.56,97.39L359.66,94.99L359.77,93.8L360.74,92.6L360.76,93.8L360.83,110.55L361.46,106.96L361.72,108.16L362.33,105.76L362.56,104.57L363.3,105.76L364.2,104.57L364.81,100.98L364.92,102.17L365.19,100.98L366.45,98.58L367.28,97.39L367.89,94.99L367.89,93.8L367.89,87.81L369.13,86.61L370.14,83.02L371.62,84.22L371.62,86.61L372.03,83.02L372.37,83.02L372.86,84.22L373.19,81.83L373.43,83.02L374.29,81.83L374.43,80.63L374.43,81.83L375.72,83.02L376.35,81.83L376.41,83.02L376.57,84.22L376.57,85.42L377.17,85.42L377.48,86.61L377.68,99.78L378.64,100.98L379.63,98.58L380.14,97.39L380.27,94.99L380.31,98.58L380.72,99.78L381.91,91.4L381.92,92.6L381.92,91.4L381.94,97.39L382.25,94.99L382.8,93.8L384.08,90.2L385.18,89.01L385.88,85.42L386.57,84.22L386.94,80.63L387.41,83.02L387.65,81.83L388.66,75.84L388.66,77.04L390.06,75.84L390.82,69.86L390.83,72.25L391.63,71.06L391.95,72.25L391.99,71.06L392.49,69.86L393.04,67.46L393.67,68.66L394.6,65.07L395.23,63.87L395.83,61.48L396.05,62.68L396.18,63.87L396.49,65.07L396.69,63.87L397.85,65.07L400.19,56.69L400.46,55.5L401.43,54.3L402.14,55.5L403.21,51.91L403.29,50.71L403.35,51.91L403.52,47.12L404.12,48.31L404.2,45.92L405.32,44.72L405.48,42.33L405.66,44.72L405.92,45.92L406.31,44.72L406.47,45.92L406.5,47.12L406.76,49.51L407.29,48.31L408.31,41.13L408.35,44.72L408.99,43.53L409.07,42.33L409.28,44.72L409.51,44.72L409.67,45.92L410.45,41.13L410.76,42.33L410.9,45.92L411.39,41.13L411.71,39.94L412.28,37.54L412.28,38.74L412.34,39.94L412.89,35.15L412.98,37.54L413.24,38.74L413.4,36.35L413.54,48.31L413.54,49.51L413.93,54.3L414.22,43.53L414.3,44.72L414.9,51.91L415.05,49.51L415.19,48.31L416.7,41.13L416.75,42.33L416.77,43.53L416.81,42.33L416.89,54.3L417.29,49.51L417.56,48.31L417.6,50.71L418.12,48.31L418.69,47.12L419.32,50.71L419.59,49.51L419.82,48.31L419.96,50.71L420.04,49.51L420.6,48.31L421.23,57.89L421.26,56.69L421.63,55.5L421.7,54.3L422.02,57.89L422.28,56.69L422.62,55.5L423.03,51.91L423.2,54.3L423.72,53.1L424.14,49.51L424.53,51.91L424.53,53.1L425.37,69.86L425.57,68.66L425.64,67.46L425.65,68.66L425.99,66.27L426.81,65.07L426.94,68.66L427.91,69.86L428.98,67.46L429.02,66.27L429.18,67.46L429.54,66.27L430,65.07L430.45,62.68L430.56,66.27L430.69,65.07L430.93,63.87L431.56,61.48L431.91,62.68L432.52,68.66L432.74,66.27L432.77,65.07L433.21,68.66L433.46,68.66L433.6,67.46L433.98,59.09L434.35,66.27L434.45,65.07L434.72,61.48L434.83,68.66L434.84,69.86L435.42,61.48L435.54,63.87L435.67,62.68L436.01,59.09L436.42,61.48L436.47,60.28L436.66,59.09L436.8,62.68L436.8,63.87L437.11,85.42L437.52,80.63L437.62,81.83L437.63,83.02L438.37,81.83L438.44,80.63L438.6,79.43L438.65,89.01L438.79,86.61L438.9,87.81L439.7,85.42L440.3,84.22L441.1,79.43L441.26,78.24L441.83,73.45L442.11,77.04L442.11,78.24L442.26,75.84L442.53,80.63L442.63,81.83L443.46,80.63L443.58,79.43L444.08,81.83L444.16,78.24L444.21,77.04L444.21,78.24L444.73,72.25L445.02,71.06L445.04,69.86L445.13,73.45L445.47,71.06L445.96,69.86L445.97,71.06L446.54,61.48L446.58,63.87L447.36,62.68L447.84,59.09L448.39,60.28L448.51,57.89L448.79,63.87L449.16,62.68L449.18,61.48L449.49,60.28L449.75,62.68L450.04,61.48L450.21,63.87L450.57,61.48L450.91,62.68L451.43,56.69L451.77,59.09L451.83,60.28L451.95,59.09L451.98,62.68L452.41,60.28L452.83,59.09L452.85,57.89L453.38,68.66L453.39,66.27L453.54,65.07L454.75,68.66L454.93,67.46L455.18,69.86L455.63,68.66L455.88,67.46L456.86,72.25L456.99,69.86L457.03,68.66L457.14,66.27L457.68,69.86L457.68,69.86L458.02,68.66L458.26,65.07L458.65,68.66L458.68,69.86L458.99,68.66L459.81,87.81L460.08,86.61L461.75,72.25L461.84,73.45L461.91,71.06L462.02,81.83L462.3,81.83L462.84,80.63L463.51,90.2L463.65,87.81L463.72,86.61L463.79,87.81L464.05,81.83L464.65,83.02L464.89,79.43L464.92,84.22L465.08,83.02L465.54,84.22L465.81,85.42L466.44,80.63L466.73,81.83L466.75,85.42L467.42,83.02L467.55,84.22L467.99,81.83L468.69,80.63L468.94,75.84L469.25,80.63L469.55,79.43L470.64,69.86L471.4,71.06L471.91,83.02L472.31,81.83L472.4,84.22L472.74,77.04L472.91,78.24L473.16,77.04L473.62,84.22L474.3,83.02L474.49,81.83L474.81,84.22L474.81,85.42L475.45,83.02L475.69,96.19L475.78,94.99L475.78,92.6L476.33,99.78L476.61,98.58L476.82,99.78L478.25,98.58L478.83,99.78L479.12,98.58L479.56,99.78L479.58,98.58L480.11,97.39L480.12,96.19L480.37,99.78L480.45,98.58L481.06,97.39L481.27,98.58L481.6,97.39L481.98,96.19L482.06,93.8L482.2,97.39L482.48,96.19L483,94.99L483.07,93.8L483.5,98.58L483.5,99.78L484.57,96.19L484.96,97.39L485.2,94.99L485.51,97.39L485.51,98.58L486.09,99.78L486.26,98.58L486.28,97.39L487.03,91.4L487.06,94.99L487.07,96.19L487.21,93.8L488.05,94.99L488.05,93.8L488.32,93.8L489.46,92.6L490,89.01L490.24,91.4L490.34,90.2L490.97,85.42L491.15,84.22L491.79,86.61L491.82,84.22L491.97,83.02L492.77,81.83L493.33,83.02L493.35,85.42L493.88,85.42L494.17,84.22L494.17,83.02L494.87,85.42L495.05,84.22L495.15,83.02L496.04,81.83L496.65,83.02L497.08,81.83L497.82,77.04L498.05,75.84L498.07,77.04L498.21,75.84L498.92,74.65L499.18,77.04L499.62,75.84L499.73,77.04L500.14,72.25L500.29,74.65L500.57,75.84L500.82,72.25L502.57,73.45L502.89,69.86L503.52,71.06L503.77,83.02L504.2,79.43L504.33,80.63L504.45,83.02L505.02,81.83L505.42,80.63L505.73,77.04L506.66,75.84L506.78,73.45L507.78,72.25L508.44,69.86L508.54,68.66L508.66,66.27L510.06,67.46L510.47,85.42L510.75,83.02L510.83,81.83L510.89,84.22L511.61,83.02L512.54,79.43L512.54,80.63L513.25,86.61L513.29,85.42L513.72,84.22L514.34,79.43L514.38,80.63L514.81,79.43L517.25,74.65L517.57,73.45L518.65,69.86L519.55,68.66L519.65,66.27L519.84,67.46L520.47,66.27L521.12,63.87L522.59,62.68L524.12,59.09L524.25,57.89L525.48,51.91L525.49,53.1L525.51,51.91L525.56,55.5L526.12,53.1L526.33,51.91L527.15,43.53L527.29,42.33L527.85,38.74L530.77,37.54L532.22,30.36L534.02,29.17L534.04,27.97L534.98,26.77L534.99,27.97L535.5,24.38L535.8,23.18L536.15,20.79L538.01,19.59L539.83,17.2L540,16" style="fill: rgb(255, 127, 14); fill-opacity: 0.5; stroke-width: 0;"/></g></g><g class="errorbars"/><g class="lines"><path class="js-line" d="M0,318.8L0,316.41L0.55,317.61L1.8,318.8L1.92,317.61L2.92,318.8L3.74,312.82L3.76,314.02L4.43,312.82L4.85,308.03L5.02,309.23L5.39,310.43L5.55,306.83L5.84,311.62L5.98,309.23L6.27,310.43L6.94,299.65L7.06,298.46L7.22,297.26L7.49,300.85L7.5,302.05L7.66,292.47L8.35,291.28L8.73,300.85L8.73,302.05L9.45,309.23L9.46,308.03L9.58,306.83L9.89,302.05L9.89,300.85L10.29,299.65L10.32,302.05L10.33,303.24L11.28,306.83L11.39,305.64L11.53,304.44L12.49,287.69L12.53,293.67L12.53,294.87L12.65,292.47L12.95,296.06L13.13,293.67L13.36,292.47L13.75,286.49L13.89,290.08L14.3,288.88L14.48,287.69L14.61,290.08L15.3,291.28L15.46,294.87L16.64,293.67L17.23,291.28L17.36,290.08L18.07,285.29L18.08,286.49L18.21,285.29L18.65,286.49L21.14,285.29L21.15,286.49L21.54,282.9L21.55,285.29L23.05,284.09L23.24,285.29L23.39,284.09L24.21,282.9L24.92,280.5L25.03,281.7L25.34,280.5L26.07,288.88L26.14,287.69L26.41,284.09L26.84,286.49L26.87,287.69L27,286.49L27.25,287.69L28.4,288.88L29.82,285.29L30.04,286.49L30.08,290.08L30.08,290.08L30.86,288.88L31.33,292.47L31.74,291.28L31.93,297.26L32.82,298.46L33.51,296.06L33.51,297.26L33.65,298.46L34.52,294.87L34.64,296.06L35.24,297.26L35.61,296.06L35.61,297.26L35.75,291.28L36.03,292.47L36.71,291.28L36.94,287.69L37.13,294.87L37.62,296.06L37.69,294.87L38.13,298.46L38.18,299.65L38.4,294.87L38.69,296.06L38.99,297.26L39.82,291.28L39.95,294.87L40.28,293.67L40.49,291.28L40.64,294.87L40.78,293.67L40.91,294.87L41.95,288.88L42.02,287.69L42.99,285.29L43.59,286.49L44.25,287.69L44.53,286.49L44.55,290.08L45,285.29L45.26,286.49L45.33,285.29L45.33,284.09L45.94,293.67L46.33,292.47L46.34,294.87L46.51,291.28L46.92,293.67L47.47,294.87L47.47,298.46L47.76,296.06L48.31,297.26L48.7,296.06L48.7,297.26L49.38,296.06L49.39,297.26L49.57,294.87L49.69,294.87L50.51,293.67L51.66,291.28L52.21,292.47L52.21,293.67L52.63,290.08L52.78,292.47L53.22,291.28L53.32,290.08L53.63,293.67L54.44,292.47L55.75,287.69L56.24,286.49L57.46,275.72L57.53,278.11L57.63,279.31L57.63,280.5L58.38,276.91L58.5,275.72L58.51,276.91L60.05,275.72L61.23,268.54L61.35,269.73L62.24,267.34L62.78,266.14L63.47,255.37L63.5,257.76L64.22,256.57L64.87,258.96L64.87,260.16L64.88,266.14L65.17,266.14L65.86,264.94L67.1,261.35L67.83,260.16L68.08,267.34L68.97,266.14L70.05,278.11L70.19,276.91L70.71,275.72L70.71,274.52L71.1,274.52L71.55,275.72L72.61,272.13L72.61,273.32L73.04,272.13L73.07,270.93L73.12,272.13L73.96,270.93L74.73,269.73L75.23,268.54L78.49,258.96L78.49,260.16L78.94,263.75L79.07,260.16L79.47,261.35L79.75,262.55L79.82,258.96L80.02,261.35L80.74,262.55L81.06,256.57L81.07,257.76L82.19,256.57L82.39,257.76L82.58,256.57L82.82,255.37L82.84,254.17L83.54,257.76L83.67,256.57L83.81,257.76L84.37,254.17L84.38,255.37L84.52,256.57L84.91,261.35L85.32,260.16L85.65,258.96L85.66,256.57L85.77,260.16L86.72,258.96L86.72,260.16L86.74,257.76L87.4,260.16L87.57,258.96L88.36,261.35L88.69,260.16L89.26,261.35L89.34,262.55L89.65,267.34L90.18,266.14L90.48,274.52L90.77,272.13L91.23,270.93L92.27,267.34L92.41,268.54L92.41,269.73L94.24,262.55L94.25,263.75L96.32,256.57L96.45,257.76L96.45,258.96L97.34,261.35L97.44,262.55L98.28,273.32L98.59,272.13L98.99,274.52L98.99,273.32L99.08,272.13L99.12,274.52L99.54,262.55L99.54,262.55L99.95,261.35L100.26,258.96L100.53,264.94L100.91,263.75L101.89,261.35L101.9,262.55L101.9,263.75L102.02,266.14L102.45,264.94L102.94,263.75L103.28,267.34L103.41,264.94L103.81,263.75L103.83,264.94L104.38,262.55L104.4,263.75L104.98,262.55L105.09,261.35L105.09,262.55L105.77,263.75L105.77,264.94L106.36,263.75L106.92,262.55L107.15,258.96L107.32,258.96L107.74,257.76L109.08,251.78L109.12,252.98L109.19,254.17L111.23,250.58L111.78,251.78L113.16,248.19L113.62,249.39L113.91,248.19L114.74,276.91L114.84,275.72L115.45,273.32L115.72,274.52L116.12,273.32L116.13,274.52L117.1,273.32L117.49,274.52L117.79,273.32L117.8,272.13L118.48,270.93L118.72,272.13L118.73,274.52L118.95,269.73L119.46,268.54L119.46,269.73L119.88,267.34L119.93,267.34L120.49,266.14L120.49,264.94L120.97,270.93L122.69,269.73L122.9,270.93L122.95,269.73L123.47,268.54L123.9,263.75L124.68,262.55L126.35,257.76L126.72,258.96L127.18,256.57L127.26,257.76L127.26,258.96L127.41,264.94L127.77,262.55L128.29,261.35L128.8,258.96L129.04,260.16L129.04,261.35L129.64,264.94L130.34,263.75L131.31,258.96L131.68,260.16L132.36,258.96L133.41,257.76L134.53,254.17L135.33,255.37L136.06,254.17L136.13,255.37L136.64,254.17L136.99,252.98L137,255.37L137.53,250.58L137.53,250.58L137.97,249.39L137.97,246.99L138.53,248.19L138.88,246.99L139.37,244.6L139.41,243.4L139.48,242.2L139.53,245.8L140.07,244.6L140.09,245.8L140.49,243.4L141.12,244.6L141.5,241.01L141.75,251.78L142.3,250.58L143.03,248.19L143.11,249.39L143.12,248.19L143.14,250.58L144.3,249.39L144.94,248.19L145.06,250.58L145.86,249.39L145.88,250.58L146.52,246.99L146.58,248.19L147.13,249.39L148.84,246.99L148.86,248.19L149.94,242.2L150.82,241.01L151.06,238.61L151.58,239.81L151.58,238.61L152.24,244.6L152.6,243.4L153.78,242.2L154.1,243.4L156.48,237.42L156.62,238.61L157.13,233.83L157.42,232.63L158.71,225.45L159.43,224.25L159.43,225.45L159.82,224.25L160.89,223.06L160.95,221.86L161.4,226.65L161.82,225.45L162.86,223.06L162.87,221.86L162.89,220.66L163.09,229.04L164.35,227.84L164.59,225.45L165.68,224.25L166.4,229.04L166.75,227.84L169.6,218.27L169.67,217.07L169.72,218.27L171.43,217.07L171.68,221.86L171.69,223.06L171.69,226.65L172.1,224.25L174.03,223.06L174.05,225.45L174.2,224.25L174.93,223.06L175.44,218.27L175.45,219.46L175.97,220.66L176.32,221.86L177.21,217.07L177.27,218.27L177.4,219.46L178.23,218.27L178.24,219.46L181.31,214.68L181.41,213.48L181.97,209.89L181.98,211.09L182.39,209.89L182.42,212.28L183.07,211.09L183.25,209.89L183.93,211.09L184.22,209.89L184.22,208.69L184.95,208.69L185.13,207.5L185.88,205.1L186.02,203.91L186.19,205.1L186.34,202.71L186.35,203.91L187.14,202.71L188.5,194.33L188.5,196.72L188.76,195.53L189.09,193.13L189.4,194.33L189.91,193.13L190.11,190.74L190.57,193.13L190.83,191.94L191.21,189.54L191.76,188.35L192.91,187.15L192.91,188.35L192.99,187.15L193.02,188.35L194.35,187.15L195.08,188.35L195.8,187.15L196.02,185.95L196.02,187.15L197.85,185.95L198.55,184.76L198.56,185.95L198.56,187.15L198.94,185.95L199.77,187.15L199.77,188.35L200.45,188.35L200.62,187.15L201.58,184.76L202.3,183.56L202.94,179.97L203.31,181.17L204.68,176.38L205,177.57L206.4,176.38L207.61,173.98L207.73,175.18L210.21,170.39L210.51,171.59L210.87,168L211.6,166.8L212.02,169.2L212.06,168L212.33,166.8L213.07,164.41L213.28,165.61L213.31,166.8L213.34,170.39L214.06,166.8L214.11,168L214.49,165.61L214.57,171.59L214.57,172.79L215.74,169.2L215.86,170.39L215.93,171.59L216.39,168L216.53,170.39L216.56,171.59L217.21,175.18L217.21,176.38L217.5,191.94L218,190.74L218.86,197.92L219.01,196.72L219.02,197.92L219.44,193.13L219.6,195.53L219.87,196.72L221.09,188.35L221.39,187.15L221.86,183.56L221.9,182.36L222,187.15L222.91,185.95L224.89,183.56L224.92,182.36L225.5,176.38L225.87,175.18L226.31,176.38L227.94,175.18L229.08,172.79L229.16,171.59L230,170.39L230.41,171.59L231.13,169.2L232.96,168L233.53,165.61L233.61,164.41L233.76,162.02L234.49,160.82L234.61,162.02L234.79,160.82L235.93,159.62L236.25,156.03L236.27,163.21L236.27,164.41L236.27,165.61L236.81,160.82L237.24,159.62L237.44,160.82L238.39,159.62L238.54,160.82L238.78,159.62L239.36,160.82L239.43,159.62L239.61,164.41L240.03,162.02L240.3,163.21L240.6,162.02L240.62,164.41L240.72,164.41L240.73,165.61L242.16,160.82L242.17,162.02L242.29,163.21L242.51,159.62L242.57,158.43L242.7,164.41L243.07,163.21L243.37,162.02L244.25,166.8L244.32,165.61L244.34,164.41L244.89,194.33L245.04,193.13L245.17,194.33L245.17,195.53L245.6,195.53L246.14,194.33L247.16,189.54L247.25,190.74L248.54,182.36L248.68,183.56L248.96,182.36L250.17,178.77L250.18,179.97L250.32,181.17L250.91,177.57L251.21,176.38L251.4,175.18L252.04,176.38L252.66,170.39L253.11,169.2L253.58,164.41L253.6,165.61L254.12,166.8L254.93,162.02L255.11,160.82L256.35,153.64L256.78,152.44L256.98,151.24L258.01,150.05L259.4,142.87L259.82,141.67L260.79,138.08L260.83,139.28L260.97,138.08L260.98,139.28L261.4,136.88L261.91,135.69L262.17,133.29L262.82,132.09L264.78,126.11L264.78,127.31L267.73,111.75L267.94,112.94L267.96,115.34L268.87,114.14L268.87,115.34L269.58,111.75L270.2,110.55L270.48,111.75L271.63,110.55L271.92,106.96L274.33,108.16L274.5,135.69L275.4,134.49L276.56,135.69L276.71,134.49L276.71,133.29L276.79,136.88L276.97,134.49L277.56,135.69L280.43,134.49L281.15,133.29L281.7,129.7L281.71,128.5L281.82,130.9L282.46,128.5L282.51,129.7L283.43,128.5L283.67,129.7L284.2,134.49L284.37,132.09L284.59,133.29L284.89,132.09L284.92,134.49L285.34,133.29L285.35,132.09L286.8,124.91L287.15,126.11L287.44,139.28L288.37,138.08L288.54,139.28L289.05,136.88L289.06,138.08L289.06,139.28L290.05,136.88L290.22,138.08L290.33,135.69L290.77,136.88L291.14,138.08L291.6,139.28L292.11,138.08L293.54,133.29L293.86,132.09L294.17,134.49L294.33,129.7L294.49,129.7L294.88,130.9L294.95,129.7L295.04,130.9L296.16,129.7L296.19,130.9L296.72,128.5L297.06,127.31L297.38,122.52L297.64,123.72L298.02,124.91L298.02,129.7L298.21,127.31L299.23,126.11L299.95,136.88L299.95,135.69L300.05,134.49L300.08,133.29L300.39,144.06L300.53,144.06L300.63,145.26L300.68,153.64L301.37,151.24L301.71,152.44L302.41,147.65L302.57,148.85L303.24,146.46L303.77,145.26L303.8,146.46L304.07,142.87L304.88,141.67L305.11,142.87L305.11,141.67L305.73,140.47L306.04,144.06L306.15,140.47L306.6,139.28L306.99,135.69L307.62,134.49L307.81,133.29L309.12,132.09L309.78,128.5L309.84,127.31L311.04,120.13L312.01,118.93L314.68,110.55L315.77,109.35L316.54,106.96L317.34,105.76L317.48,103.37L318.21,104.57L318.56,122.52L318.76,121.32L319.04,122.52L319.31,121.32L319.33,123.72L319.67,122.52L320.3,123.72L320.8,122.52L321.53,123.72L322.64,120.13L323.58,118.93L324.84,117.73L325.18,118.93L325.23,120.13L326.22,118.93L326.73,116.54L327.18,117.73L327.36,116.54L327.78,117.73L327.81,118.93L327.81,120.13L328.48,117.73L329.15,118.93L330.12,152.44L330.4,151.24L330.56,147.65L331.01,152.44L331.16,153.64L332.58,142.87L332.92,141.67L333.04,144.06L333.5,142.87L333.93,141.67L334.9,144.06L335.28,142.87L336.25,141.67L336.26,142.87L336.86,141.67L337.08,140.47L338.2,138.08L338.76,139.28L339.22,134.49L340.31,133.29L340.58,132.09L341.66,130.9L343.24,126.11L343.24,127.31L343.26,128.5L344.21,123.72L344.73,124.91L345.56,120.13L345.57,121.32L346.05,120.13L346.1,121.32L346.71,118.93L346.71,117.73L346.82,115.34L348.1,114.14L348.94,111.75L348.97,110.55L349.78,108.16L350.11,106.96L351.03,111.75L351.4,110.55L351.58,109.35L353.07,106.96L353.28,108.16L354.36,105.76L354.92,104.57L356.45,99.78L357.05,98.58L357.41,97.39L357.62,98.58L357.68,99.78L357.69,98.58L358.56,97.39L359.66,94.99L359.77,93.8L360.74,92.6L360.76,93.8L360.83,110.55L361.46,106.96L361.72,108.16L362.33,105.76L362.56,104.57L363.3,105.76L364.2,104.57L364.81,100.98L364.92,102.17L365.19,100.98L366.45,98.58L367.28,97.39L367.89,94.99L367.89,93.8L367.89,87.81L369.13,86.61L370.14,83.02L371.62,84.22L371.62,86.61L372.03,83.02L372.37,83.02L372.86,84.22L373.19,81.83L373.43,83.02L374.29,81.83L374.43,80.63L374.43,81.83L375.72,83.02L376.35,81.83L376.41,83.02L376.57,84.22L376.57,85.42L377.17,85.42L377.48,86.61L377.68,99.78L378.64,100.98L379.63,98.58L380.14,97.39L380.27,94.99L380.31,98.58L380.72,99.78L381.91,91.4L381.92,92.6L381.92,91.4L381.94,97.39L382.25,94.99L382.8,93.8L384.08,90.2L385.18,89.01L385.88,85.42L386.57,84.22L386.94,80.63L387.41,83.02L387.65,81.83L388.66,75.84L388.66,77.04L390.06,75.84L390.82,69.86L390.83,72.25L391.63,71.06L391.95,72.25L391.99,71.06L392.49,69.86L393.04,67.46L393.67,68.66L394.6,65.07L395.23,63.87L395.83,61.48L396.05,62.68L396.18,63.87L396.49,65.07L396.69,63.87L397.85,65.07L400.19,56.69L400.46,55.5L401.43,54.3L402.14,55.5L403.21,51.91L403.29,50.71L403.35,51.91L403.52,47.12L404.12,48.31L404.2,45.92L405.32,44.72L405.48,42.33L405.66,44.72L405.92,45.92L406.31,44.72L406.47,45.92L406.5,47.12L406.76,49.51L407.29,48.31L408.31,41.13L408.35,44.72L408.99,43.53L409.07,42.33L409.28,44.72L409.51,44.72L409.67,45.92L410.45,41.13L410.76,42.33L410.9,45.92L411.39,41.13L411.71,39.94L412.28,37.54L412.28,38.74L412.34,39.94L412.89,35.15L412.98,37.54L413.24,38.74L413.4,36.35L413.54,48.31L413.54,49.51L413.93,54.3L414.22,43.53L414.3,44.72L414.9,51.91L415.05,49.51L415.19,48.31L416.7,41.13L416.75,42.33L416.77,43.53L416.81,42.33L416.89,54.3L417.29,49.51L417.56,48.31L417.6,50.71L418.12,48.31L418.69,47.12L419.32,50.71L419.59,49.51L419.82,48.31L419.96,50.71L420.04,49.51L420.6,48.31L421.23,57.89L421.26,56.69L421.63,55.5L421.7,54.3L422.02,57.89L422.28,56.69L422.62,55.5L423.03,51.91L423.2,54.3L423.72,53.1L424.14,49.51L424.53,51.91L424.53,53.1L425.37,69.86L425.57,68.66L425.64,67.46L425.65,68.66L425.99,66.27L426.81,65.07L426.94,68.66L427.91,69.86L428.98,67.46L429.02,66.27L429.18,67.46L429.54,66.27L430,65.07L430.45,62.68L430.56,66.27L430.69,65.07L430.93,63.87L431.56,61.48L431.91,62.68L432.52,68.66L432.74,66.27L432.77,65.07L433.21,68.66L433.46,68.66L433.6,67.46L433.98,59.09L434.35,66.27L434.45,65.07L434.72,61.48L434.83,68.66L434.84,69.86L435.42,61.48L435.54,63.87L435.67,62.68L436.01,59.09L436.42,61.48L436.47,60.28L436.66,59.09L436.8,62.68L436.8,63.87L437.11,85.42L437.52,80.63L437.62,81.83L437.63,83.02L438.37,81.83L438.44,80.63L438.6,79.43L438.65,89.01L438.79,86.61L438.9,87.81L439.7,85.42L440.3,84.22L441.1,79.43L441.26,78.24L441.83,73.45L442.11,77.04L442.11,78.24L442.26,75.84L442.53,80.63L442.63,81.83L443.46,80.63L443.58,79.43L444.08,81.83L444.16,78.24L444.21,77.04L444.21,78.24L444.73,72.25L445.02,71.06L445.04,69.86L445.13,73.45L445.47,71.06L445.96,69.86L445.97,71.06L446.54,61.48L446.58,63.87L447.36,62.68L447.84,59.09L448.39,60.28L448.51,57.89L448.79,63.87L449.16,62.68L449.18,61.48L449.49,60.28L449.75,62.68L450.04,61.48L450.21,63.87L450.57,61.48L450.91,62.68L451.43,56.69L451.77,59.09L451.83,60.28L451.95,59.09L451.98,62.68L452.41,60.28L452.83,59.09L452.85,57.89L453.38,68.66L453.39,66.27L453.54,65.07L454.75,68.66L454.93,67.46L455.18,69.86L455.63,68.66L455.88,67.46L456.86,72.25L456.99,69.86L457.03,68.66L457.14,66.27L457.68,69.86L457.68,69.86L458.02,68.66L458.26,65.07L458.65,68.66L458.68,69.86L458.99,68.66L459.81,87.81L460.08,86.61L461.75,72.25L461.84,73.45L461.91,71.06L462.02,81.83L462.3,81.83L462.84,80.63L463.51,90.2L463.65,87.81L463.72,86.61L463.79,87.81L464.05,81.83L464.65,83.02L464.89,79.43L464.92,84.22L465.08,83.02L465.54,84.22L465.81,85.42L466.44,80.63L466.73,81.83L466.75,85.42L467.42,83.02L467.55,84.22L467.99,81.83L468.69,80.63L468.94,75.84L469.25,80.63L469.55,79.43L470.64,69.86L471.4,71.06L471.91,83.02L472.31,81.83L472.4,84.22L472.74,77.04L472.91,78.24L473.16,77.04L473.62,84.22L474.3,83.02L474.49,81.83L474.81,84.22L474.81,85.42L475.45,83.02L475.69,96.19L475.78,94.99L475.78,92.6L476.33,99.78L476.61,98.58L476.82,99.78L478.25,98.58L478.83,99.78L479.12,98.58L479.56,99.78L479.58,98.58L480.11,97.39L480.12,96.19L480.37,99.78L480.45,98.58L481.06,97.39L481.27,98.58L481.6,97.39L481.98,96.19L482.06,93.8L482.2,97.39L482.48,96.19L483,94.99L483.07,93.8L483.5,98.58L483.5,99.78L484.57,96.19L484.96,97.39L485.2,94.99L485.51,97.39L485.51,98.58L486.09,99.78L486.26,98.58L486.28,97.39L487.03,91.4L487.06,94.99L487.07,96.19L487.21,93.8L488.05,94.99L488.05,93.8L488.32,93.8L489.46,92.6L490,89.01L490.24,91.4L490.34,90.2L490.97,85.42L491.15,84.22L491.79,86.61L491.82,84.22L491.97,83.02L492.77,81.83L493.33,83.02L493.35,85.42L493.88,85.42L494.17,84.22L494.17,83.02L494.87,85.42L495.05,84.22L495.15,83.02L496.04,81.83L496.65,83.02L497.08,81.83L497.82,77.04L498.05,75.84L498.07,77.04L498.21,75.84L498.92,74.65L499.18,77.04L499.62,75.84L499.73,77.04L500.14,72.25L500.29,74.65L500.57,75.84L500.82,72.25L502.57,73.45L502.89,69.86L503.52,71.06L503.77,83.02L504.2,79.43L504.33,80.63L504.45,83.02L505.02,81.83L505.42,80.63L505.73,77.04L506.66,75.84L506.78,73.45L507.78,72.25L508.44,69.86L508.54,68.66L508.66,66.27L510.06,67.46L510.47,85.42L510.75,83.02L510.83,81.83L510.89,84.22L511.61,83.02L512.54,79.43L512.54,80.63L513.25,86.61L513.29,85.42L513.72,84.22L514.34,79.43L514.38,80.63L514.81,79.43L517.25,74.65L517.57,73.45L518.65,69.86L519.55,68.66L519.65,66.27L519.84,67.46L520.47,66.27L521.12,63.87L522.59,62.68L524.12,59.09L524.25,57.89L525.48,51.91L525.49,53.1L525.51,51.91L525.56,55.5L526.12,53.1L526.33,51.91L527.15,43.53L527.29,42.33L527.85,38.74L530.77,37.54L532.22,30.36L534.02,29.17L534.04,27.97L534.98,26.77L534.99,27.97L535.5,24.38L535.8,23.18L536.15,20.79L538.01,19.59L539.83,17.2L540,16" style="vector-effect: none; fill: none; stroke: rgb(255, 127, 14); stroke-opacity: 1; stroke-width: 2px; opacity: 1;"/></g><g class="points"/><g class="text"/></g></g></g></g><g class="zerolinelayer-above"/><path class="xlines-above crisp" d="M0,0" style="fill: none;"/><path class="ylines-above crisp" d="M0,0" style="fill: none;"/><g class="overlines-above"/><g class="xaxislayer-above"><g class="xtick"><text text-anchor="middle" x="0" y="439" transform="translate(100.51,0)" style="font-family: 'Open Sans'; font-size: 18px; fill: rgb(0, 0, 0); fill-opacity: 1; white-space: pre;">2016</text></g><g class="xtick"><text text-anchor="middle" x="0" y="439" style="font-family: 'Open Sans'; font-size: 18px; fill: rgb(0, 0, 0); fill-opacity: 1; white-space: pre;" transform="translate(202.3,0)">2018</text></g><g class="xtick"><text text-anchor="middle" x="0" y="439" style="font-family: 'Open Sans'; font-size: 18px; fill: rgb(0, 0, 0); fill-opacity: 1; white-space: pre;" transform="translate(303.95,0)">2020</text></g><g class="xtick"><text text-anchor="middle" x="0" y="439" style="font-family: 'Open Sans'; font-size: 18px; fill: rgb(0, 0, 0); fill-opacity: 1; white-space: pre;" transform="translate(405.74,0)">2022</text></g><g class="xtick"><text text-anchor="middle" x="0" y="439" style="font-family: 'Open Sans'; font-size: 18px; fill: rgb(0, 0, 0); fill-opacity: 1; white-space: pre;" transform="translate(507.39,0)">2024</text></g><g class="xtick"><text text-anchor="middle" x="0" y="439" style="font-family: 'Open Sans'; font-size: 18px; fill: rgb(0, 0, 0); fill-opacity: 1; white-space: pre;" transform="translate(609.18,0)">2026</text></g></g><g class="yaxislayer-above"><g class="ytick"><text text-anchor="end" x="79" y="6.3" transform="translate(0,420)" style="font-family: 'Open Sans'; font-size: 18px; fill: rgb(0, 0, 0); fill-opacity: 1; white-space: pre;">0</text></g><g class="ytick"><text text-anchor="end" x="79" y="6.3" style="font-family: 'Open Sans'; font-size: 18px; fill: rgb(0, 0, 0); fill-opacity: 1; white-space: pre;" transform="translate(0,360.16)">50</text></g><g class="ytick"><text text-anchor="end" x="79" y="6.3" style="font-family: 'Open Sans'; font-size: 18px; fill: rgb(0, 0, 0); fill-opacity: 1; white-space: pre;" transform="translate(0,300.31)">100</text></g><g class="ytick"><text text-anchor="end" x="79" y="6.3" style="font-family: 'Open Sans'; font-size: 18px; fill: rgb(0, 0, 0); fill-opacity: 1; white-space: pre;" transform="translate(0,240.47)">150</text></g><g class="ytick"><text text-anchor="end" x="79" y="6.3" style="font-family: 'Open Sans'; font-size: 18px; fill: rgb(0, 0, 0); fill-opacity: 1; white-space: pre;" transform="translate(0,180.63)">200</text></g><g class="ytick"><text text-anchor="end" x="79" y="6.3" style="font-family: 'Open Sans'; font-size: 18px; fill: rgb(0, 0, 0); fill-opacity: 1; white-space: pre;" transform="translate(0,120.78999999999999)">250</text></g></g><g class="overaxes-above"/></g></g><g class="polarlayer"/><g class="smithlayer"/><g class="ternarylayer"/><g class="geolayer"/><g class="funnelarealayer"/><g class="pielayer"/><g class="iciclelayer"/><g class="treemaplayer"/><g class="sunburstlayer"/><g class="glimages"/><defs id="topdefs-9352bc"><g class="clips"/></defs><g class="layer-above"><g class="imagelayer"/><g class="shapelayer"/></g><g class="infolayer"><g class="g-gtitle"><text class="gtitle" x="35" y="50" text-anchor="start" dy="0em" style="opacity: 1; font-family: 'Open Sans'; font-size: 25px; fill: rgb(0, 0, 0); fill-opacity: 1; white-space: pre;">MultiQC/MultiQC - Open Issues Over Time</text></g><g class="g-xtitle"><text class="xtitle" x="350" y="472.9" text-anchor="middle" style="opacity: 1; font-family: 'Open Sans'; font-size: 22px; fill: rgb(0, 0, 0); fill-opacity: 1; white-space: pre;">Date</text></g><g class="g-ytitle"><text class="ytitle" transform="rotate(-90,29.799999999999997,260)" x="29.799999999999997" y="260" text-anchor="middle" style="opacity: 1; font-family: 'Open Sans'; font-size: 22px; fill: rgb(0, 0, 0); fill-opacity: 1; white-space: pre;">Number of Open Issues</text></g></g></svg>