<svg class="main-svg" xmlns="http://www.w3.org/2000/svg" xmlns:xlink="http://www.w3.org/1999/xlink" width="700" height="500" style="" viewBox="0 0 700 500"><rect x="0" y="0" width="700" height="500" style="fill: rgb(0, 0, 0); fill-opacity: 0;"/><defs id="defs-1903df"><g class="clips"><clipPath id="clip1903dfxyplot" class="plotclip"><rect width="540" height="320"/></clipPath><clipPath class="axesclip" id="clip1903dfx"><rect x="80" y="0" width="540" height="500"/></clipPath><clipPath class="axesclip" id="clip1903dfy"><rect x="0" y="100" width="700" height="320"/></clipPath><clipPath class="axesclip" id="clip1903dfxy"><rect x="80" y="100" width="540" height="320"/></clipPath></g><g class="gradients"/><g class="patterns"/></defs><g class="bglayer"><rect class="bg" x="80" y="100" width="540" height="320" style="fill: rgb(0, 0, 0); fill-opacity: 0; stroke-width: 0;"/></g><g class="layer-below"><g class="imagelayer"/><g class="shapelayer"/></g><g class="cartesianlayer"><g class="subplot xy"><g class="layer-subplot"><g class="shapelayer"/><g class="imagelayer"/></g><g class="minor-gridlayer"><g class="x"/><g class="y"/></g><g class="gridlayer"><g class="x"><path class="xgrid crisp" transform="translate(100.23,0)" d="M0,100v320" style="stroke: rgb(255, 255, 255); stroke-opacity: 1; stroke-width: 1px;"/><path class="xgrid crisp" transform="translate(200.61,0)" d="M0,100v320" style="stroke: rgb(255, 255, 255); stroke-opacity: 1; stroke-width: 1px;"/><path class="xgrid crisp" transform="translate(300.86,0)" d="M0,100v320" style="stroke: rgb(255, 255, 255); stroke-opacity: 1; stroke-width: 1px;"/><path class="xgrid crisp" transform="translate(401.24,0)" d="M0,100v320" style="stroke: rgb(255, 255, 255); stroke-opacity: 1; stroke-width: 1px;"/><path class="xgrid crisp" transform="translate(501.48,0)" d="M0,100v320" style="stroke: rgb(255, 255, 255); stroke-opacity: 1; stroke-width: 1px;"/><path class="xgrid crisp" transform="translate(601.87,0)" d="M0,100v320" style="stroke: rgb(255, 255, 255); stroke-opacity: 1; stroke-width: 1px;"/></g><g class="y"><path class="ygrid crisp" transform="translate(0,363.28)" d="M80,0h540" style="stroke: rgb(255, 255, 255); stroke-opacity: 1; stroke-width: 1px;"/><path class="ygrid crisp" transform="translate(0,306.57)" d="M80,0h540" style="stroke: rgb(255, 255, 255); stroke-opacity: 1; stroke-width: 1px;"/><path class="ygrid crisp" transform="translate(0,249.85)" d="M80,0h540" style="stroke: rgb(255, 255, 255); stroke-opacity: 1; stroke-width: 1px;"/><path class="ygrid crisp" transform="translate(0,193.13)" d="M80,0h540" style="stroke: rgb(255, 255, 255); stroke-opacity: 1; stroke-width: 1px;"/><path class="ygrid crisp" transform="translate(0,136.42000000000002)" d="M80,0h540" style="stroke: rgb(255, 255, 255); stroke-opacity: 1; stroke-width: 1px;"/></g></g><g class="zerolinelayer"><path class="yzl zl crisp" transform="translate(0,420)" d="M80,0h540" style="stroke: rgb(255, 255, 255); stroke-opacity: 1; stroke-width: 2px;"/></g><g class="layer-between"><g class="shapelayer"/><g class="imagelayer"/></g><path class="xlines-below"/><path class="ylines-below"/><g class="overlines-below"/><g class="xaxislayer-below"/><g class="yaxislayer-below"/><g class="overaxes-below"/><g class="overplot"><g class="xy" transform="translate(80,100)" clip-path="url(#clip1903dfxyplot)"><g class="scatterlayer mlayer"><g class="trace scatter traceeb885d" style="stroke-miterlimit: 2;"><g class="fills"><g><path class="js-fill" d="M540,320L0,320L0,318.87L0,316.6L0.54,317.73L1.78,318.87L1.89,317.73L2.88,318.87L3.68,313.19L3.71,314.33L4.37,313.19L4.78,308.66L4.95,309.79L5.31,310.93L5.48,307.52L5.76,312.06L5.89,309.79L6.19,310.93L6.85,300.72L6.96,299.58L7.12,298.45L7.38,301.85L7.39,302.99L7.56,293.91L8.23,292.78L8.61,301.85L8.61,302.99L9.32,309.79L9.33,308.66L9.45,307.52L9.76,302.99L9.76,301.85L10.15,300.72L10.18,302.99L10.18,304.12L11.12,307.52L11.23,306.39L11.37,305.25L12.31,289.37L12.36,295.04L12.47,293.91L12.77,297.31L12.95,295.04L13.17,293.91L13.56,288.24L13.7,291.64L14.1,290.51L14.28,289.37L14.41,291.64L15.09,292.78L15.25,296.18L16.41,295.04L16.99,292.78L17.12,291.64L17.82,287.1L17.83,288.24L17.96,287.1L18.39,288.24L20.85,287.1L20.85,288.24L21.25,284.84L21.25,287.1L22.73,285.97L22.92,287.1L23.07,285.97L23.88,284.84L24.58,282.57L24.68,283.7L24.99,282.57L25.71,290.51L25.78,289.37L26.05,285.97L26.49,289.37L26.63,288.24L26.87,289.37L28.01,290.51L29.41,287.1L29.62,288.24L29.66,291.64L29.66,291.64L30.44,290.51L30.9,293.91L31.3,292.78L31.49,298.45L32.37,299.58L33.05,297.31L33.05,298.45L33.19,299.58L34.05,296.18L34.16,297.31L34.76,298.45L35.11,297.31L35.12,298.45L35.25,292.78L35.53,293.91L36.2,292.78L36.43,289.37L36.62,296.18L37.1,297.31L37.17,296.18L37.6,299.58L37.66,300.72L37.87,296.18L38.16,297.31L38.45,298.45L39.27,292.78L39.4,296.18L39.73,295.04L39.93,292.78L40.08,296.18L40.22,295.04L40.35,296.18L41.3,290.51L41.32,291.64L42.11,288.24L42.39,287.1L43.15,289.37L43.64,288.24L43.94,291.64L44.38,287.1L44.64,288.24L44.71,285.97L45.01,291.64L45.16,292.78L45.72,296.18L45.86,293.91L45.87,292.78L45.96,296.18L46.27,295.04L46.81,296.18L46.82,299.58L47.1,297.31L47.65,298.45L48.02,297.31L48.02,298.45L48.7,297.31L48.7,298.45L48.89,296.18L49,296.18L49.81,295.04L50.95,292.78L51.49,293.91L51.49,295.04L51.91,291.64L52.06,293.91L52.49,292.78L52.59,291.64L52.88,295.04L53.69,293.91L54.98,289.37L55.47,288.24L56.67,278.03L56.74,280.3L56.83,281.43L56.83,282.57L57.57,279.16L57.69,278.03L57.7,279.16L59.22,278.03L60.39,271.22L60.5,272.36L61.38,270.09L61.91,268.96L62.59,258.75L62.62,261.01L63.33,259.88L63.97,262.15L63.97,263.28L63.98,268.96L64.27,268.96L64.95,267.82L66.17,264.42L66.89,263.28L67.14,270.09L68.01,268.96L69.08,280.3L69.22,279.16L69.73,278.03L69.73,276.9L70.12,276.9L70.56,278.03L71.61,274.63L71.61,275.76L72.03,274.63L72.06,273.49L72.11,274.63L72.94,273.49L73.7,272.36L74.19,271.22L77.41,262.15L77.41,263.28L77.85,266.69L77.98,263.28L78.37,264.42L78.65,265.55L78.72,262.15L78.91,264.42L79.62,265.55L79.94,259.88L79.95,261.01L81.05,259.88L81.25,261.01L81.44,259.88L81.67,258.75L81.7,257.61L82.39,261.01L82.51,259.88L82.65,261.01L83.21,257.61L83.21,258.75L83.35,259.88L83.74,264.42L84.14,263.28L84.47,262.15L84.47,259.88L84.58,263.28L85.52,262.15L85.52,263.28L85.54,261.01L86.19,263.28L86.36,262.15L87.14,264.42L87.46,263.28L88.02,264.42L88.11,265.55L88.41,270.09L88.94,268.96L89.23,276.9L89.51,274.63L89.97,273.49L91,270.09L91.13,271.22L91.13,272.36L92.93,265.55L92.95,266.69L94.99,259.88L95.12,261.01L95.12,262.15L95.99,264.42L96.09,265.55L96.92,275.76L97.22,274.63L97.62,276.9L97.62,275.76L97.71,274.63L97.75,276.9L98.16,265.55L98.17,265.55L98.57,264.42L98.88,262.15L99.14,267.82L99.52,266.69L100.49,264.42L100.49,265.55L100.49,266.69L100.61,268.96L101.04,267.82L101.51,266.69L101.85,270.09L101.98,267.82L102.38,266.69L102.4,267.82L102.94,265.55L102.96,266.69L103.53,265.55L103.64,264.42L103.64,265.55L104.31,266.69L104.31,267.82L104.89,266.69L105.44,265.55L105.84,262.15L106.25,261.01L107.57,255.34L107.61,256.48L107.68,257.61L109.69,254.21L110.24,255.34L111.6,251.94L112.05,253.07L112.34,251.94L113.15,279.16L113.25,278.03L113.85,275.76L114.12,276.9L114.52,275.76L114.52,276.9L115.48,275.76L115.87,276.9L116.16,275.76L116.18,274.63L116.84,273.49L117.08,274.63L117.09,276.9L117.31,272.36L117.81,271.22L117.81,272.36L118.22,270.09L118.28,270.09L118.82,268.96L118.82,267.82L119.3,273.49L120.99,272.36L121.2,273.49L121.25,272.36L121.76,271.22L122.19,266.69L122.95,265.55L124.6,261.01L124.97,262.15L125.42,259.88L125.5,261.01L125.5,262.15L125.64,267.82L126,265.55L126.52,264.42L127.02,262.15L127.26,263.28L127.26,264.42L127.85,267.82L128.53,266.69L129.49,262.15L129.86,263.28L130.53,262.15L131.57,261.01L132.67,257.61L133.46,258.75L134.18,257.61L134.25,258.75L134.75,257.61L135.1,256.48L135.1,258.75L135.63,254.21L135.63,254.21L136.06,253.07L136.06,250.81L136.61,251.94L136.96,250.81L137.45,248.54L137.48,247.4L137.55,246.27L137.6,249.67L138.13,248.54L138.15,249.67L138.55,247.4L139.17,248.54L139.55,245.13L139.79,255.34L140.34,254.21L141.06,251.94L141.13,253.07L141.14,251.94L141.16,254.21L142.31,253.07L142.94,251.94L143.05,254.21L143.85,253.07L143.86,254.21L144.49,250.81L144.56,251.94L145.1,253.07L146.79,250.81L146.8,251.94L147.87,246.27L148.73,245.13L149.49,242.87L149.49,244L149.49,245.13L150.13,247.4L150.13,248.54L150.49,247.4L151.65,246.27L151.97,247.4L152.42,246.27L152.56,245.13L152.56,246.27L152.79,244L153.8,242.87L154.67,239.46L154.96,238.33L157.23,229.25L157.23,230.39L158.72,226.99L158.73,228.12L159.16,229.25L159.17,231.52L159.59,230.39L160.22,229.25L160.61,226.99L160.63,225.85L160.84,233.79L162.08,232.66L162.32,230.39L163.39,229.25L164.1,233.79L164.44,232.66L167.26,223.58L167.33,222.45L167.37,223.58L169.07,222.45L169.3,226.99L169.31,228.12L169.32,231.52L169.72,229.25L171.62,228.12L171.64,230.39L171.79,229.25L172.51,228.12L173.01,223.58L173.02,224.72L173.54,225.85L173.88,226.99L174.76,222.45L174.82,223.58L174.95,224.72L175.76,223.58L175.77,224.72L176.74,223.58L177.04,222.45L178.28,221.31L178.9,219.04L178.93,217.91L179.46,215.64L179.47,216.78L179.87,215.64L179.9,217.91L180.54,216.78L180.71,215.64L181.38,216.78L181.67,215.64L182.39,214.51L182.57,213.37L183.31,211.1L183.45,209.97L183.62,211.1L183.76,208.84L183.78,209.97L184.56,208.84L185.89,200.9L185.89,203.16L186.15,202.03L186.48,199.76L186.78,200.9L187.29,199.76L187.48,197.49L187.93,199.76L188.19,198.63L188.56,196.36L189.11,195.22L190.24,194.09L190.24,195.22L190.32,194.09L190.35,195.22L191.66,194.09L192.38,195.22L193.09,194.09L193.31,192.96L193.31,194.09L195.12,192.96L195.8,191.82L195.82,192.96L195.82,194.09L196.19,192.96L197.01,194.09L197.01,195.22L197.68,195.22L197.85,194.09L198.8,191.82L199.5,190.69L200.13,187.28L200.5,188.42L201.85,183.88L202.17,185.01L203.55,183.88L204.74,181.61L204.85,182.75L207.31,178.21L207.6,179.34L207.95,175.94L208.67,174.81L209.09,177.07L209.13,175.94L209.4,174.81L210.12,172.54L210.33,173.67L210.37,174.81L210.39,178.21L211.1,174.81L211.15,175.94L211.52,173.67L211.6,179.34L211.6,180.48L212.75,177.07L212.88,178.21L212.94,179.34L213.4,175.94L213.53,178.21L213.57,179.34L214.21,182.75L214.21,183.88L214.5,198.63L214.98,197.49L215.84,204.3L215.98,203.16L215.99,204.3L216.4,199.76L216.56,202.03L216.83,203.16L218.33,194.09L218.68,192.96L218.83,189.55L218.93,194.09L219.83,192.96L221.78,190.69L221.81,189.55L222.38,183.88L222.75,182.75L223.18,183.88L224.79,182.75L225.91,180.48L225.99,179.34L226.82,178.21L227.22,179.34L227.94,177.07L229.74,175.94L230.31,173.67L230.38,172.54L231.24,169.13L231.37,170.27L231.55,169.13L232.67,168L232.98,164.6L233,171.4L233,172.54L233,173.67L233.54,169.13L233.96,168L234.16,169.13L235.1,168L235.24,169.13L235.48,168L236.05,169.13L236.12,168L236.3,172.54L236.71,170.27L236.97,171.4L237.27,170.27L237.29,172.54L237.39,172.54L237.4,173.67L238.82,169.13L238.82,170.27L239.21,166.87L239.35,172.54L239.71,171.4L240.01,170.27L240.15,171.4L240.19,172.54L240.27,171.4L240.57,173.67L240.87,174.81L240.96,172.54L240.99,181.61L241,182.75L241.51,200.9L241.65,199.76L241.78,200.9L241.78,202.03L242.21,202.03L242.74,200.9L243.75,196.36L243.83,197.49L245.11,189.55L245.25,190.69L245.52,189.55L246.72,186.15L246.72,187.28L246.86,188.42L247.44,185.01L247.74,183.88L247.93,182.75L248.56,183.88L249.16,178.21L249.61,177.07L250.08,172.54L250.09,173.67L250.61,174.81L251.41,170.27L251.58,169.13L253.23,161.19L253.43,160.06L254.59,157.79L254.73,156.66L254.87,154.39L255.51,153.25L256.36,149.85L256.75,148.72L258.33,144.18L258.54,143.04L259.55,140.78L259.57,139.64L260.5,137.37L260.58,138.51L261.46,135.1L261.49,133.97L262.01,131.7L262.06,130.57L264.03,122.63L264.24,123.76L264.25,126.03L265.15,124.9L265.15,126.03L265.85,122.63L266.46,121.49L266.74,122.63L267.88,121.49L268.16,118.09L270.54,119.22L270.7,145.31L271.59,144.18L272.74,145.31L272.89,144.18L272.89,143.04L272.97,146.45L273.14,144.18L273.72,145.31L276.55,144.18L277.26,143.04L277.8,139.64L277.81,138.51L277.93,140.78L278.56,138.51L278.6,139.64L279.51,138.51L279.75,139.64L280.28,144.18L280.44,141.91L280.66,143.04L280.66,144.18L280.96,141.91L281.4,141.91L281.64,140.78L282.38,138.51L282.46,137.37L282.83,135.1L283.19,136.24L283.19,137.37L283.47,148.72L284.39,147.58L284.55,148.72L285.05,146.45L285.06,147.58L285.06,148.72L286.04,146.45L286.21,147.58L286.31,145.31L286.75,146.45L287.12,147.58L287.57,148.72L288.07,147.58L289.49,143.04L289.79,141.91L290.11,144.18L290.26,139.64L290.42,139.64L290.81,140.78L290.87,139.64L290.96,140.78L292.07,139.64L292.09,140.78L292.62,138.51L292.96,137.37L293.27,132.84L293.53,133.97L293.9,135.1L293.91,139.64L294.09,137.37L295.1,136.24L295.8,146.45L295.8,145.31L295.9,144.18L295.93,143.04L296.23,153.25L296.38,153.25L296.47,154.39L296.52,162.33L297.2,160.06L297.54,161.19L298.23,156.66L298.39,157.79L299.05,155.52L299.57,154.39L299.6,155.52L299.87,152.12L300.67,150.99L300.89,152.12L300.9,150.99L301.51,149.85L301.81,153.25L301.92,149.85L302.36,148.72L302.75,145.31L303.37,144.18L303.56,143.04L304.85,141.91L305.5,138.51L305.56,137.37L306.74,130.57L307.69,129.43L310.33,121.49L311.4,120.36L312.16,118.09L312.95,116.96L313.09,114.69L313.81,115.82L314.16,132.84L314.35,131.7L314.63,132.84L314.9,131.7L314.92,133.97L315.25,132.84L315.87,133.97L316.37,132.84L317.08,133.97L318.18,130.57L319.11,129.43L320.35,128.3L320.68,129.43L320.73,130.57L321.71,129.43L322.22,127.16L322.66,128.3L322.84,127.16L323.25,128.3L323.28,129.43L323.28,130.57L323.94,128.3L324.6,129.43L325.56,161.19L325.84,160.06L325.99,156.66L326.43,161.19L326.58,162.33L327.99,152.12L328.32,150.99L328.44,153.25L328.89,152.12L329.31,150.99L330.27,153.25L330.65,152.12L331.6,150.99L331.61,152.12L332.42,149.85L332.75,148.72L333.15,149.85L333.52,148.72L333.53,147.58L334.07,148.72L334.09,147.58L334.33,146.45L334.53,144.18L335.61,143.04L335.88,141.91L336.94,140.78L338.49,136.24L338.49,137.37L338.52,138.51L339.45,133.97L339.97,135.1L340.79,130.57L340.79,131.7L341.27,130.57L341.32,131.7L341.92,128.3L341.97,127.16L342.03,126.03L343.29,124.9L344.12,122.63L344.15,121.49L344.95,119.22L345.27,118.09L346.17,122.63L346.55,121.49L346.72,120.36L348.19,118.09L348.4,119.22L349.47,116.96L350.01,115.82L351.52,111.28L352.11,110.15L352.47,109.01L352.68,110.15L352.73,111.28L352.75,110.15L353.6,109.01L354.69,106.75L354.8,105.61L355.75,104.48L355.77,105.61L355.78,106.75L355.84,121.49L356.34,119.22L356.46,118.09L356.72,119.22L356.74,118.09L357.32,116.96L358.09,115.82L358.28,116.96L359.22,114.69L359.59,113.55L360.52,111.28L361.39,110.15L362.81,107.88L362.81,106.75L362.81,99.94L364.03,98.81L365.03,95.4L366.48,96.54L366.48,98.81L366.89,95.4L367.23,95.4L367.71,96.54L368.03,94.27L368.27,95.4L369.12,94.27L369.26,93.13L369.26,94.27L370.53,95.4L371.15,94.27L371.2,95.4L371.37,96.54L371.37,97.67L371.96,97.67L372.26,98.81L372.46,111.28L373.41,112.42L374.39,110.15L374.89,109.01L375.01,106.75L375.05,110.15L375.46,111.28L376.64,103.34L376.66,104.48L376.66,109.01L376.97,106.75L377.51,105.61L378.77,102.21L379.86,101.07L380.54,97.67L381.23,96.54L381.59,93.13L382.05,95.4L382.3,94.27L383.29,88.6L383.29,89.73L384.67,88.6L385.42,82.93L385.43,85.19L386.22,84.06L386.54,85.19L386.58,84.06L387.07,82.93L387.6,80.66L388.23,81.79L389.15,78.39L389.76,77.25L390.36,74.99L390.58,76.12L390.71,77.25L391.01,78.39L391.21,77.25L392.35,78.39L395.88,68.18L396.58,69.31L397.64,65.91L397.72,64.78L397.78,65.91L397.94,61.37L398.54,62.51L398.61,60.24L399.72,59.1L399.88,56.84L400.05,59.1L400.31,60.24L400.69,59.1L400.85,60.24L400.88,61.37L401.14,63.64L401.66,62.51L402.66,55.7L402.7,59.1L403.34,57.97L403.42,56.84L403.62,59.1L403.85,59.1L404.01,60.24L404.78,55.7L405.08,56.84L405.22,60.24L405.7,55.7L406.02,54.57L406.58,52.3L406.58,53.43L406.65,54.57L407.18,50.03L407.27,52.3L407.53,53.43L407.69,51.16L407.83,64.78L407.83,65.91L408.21,68.18L408.49,65.91L408.5,64.78L408.5,57.97L409.17,65.91L409.2,62.51L409.31,63.64L410.94,55.7L410.99,56.84L411.13,68.18L411.52,63.64L411.79,62.51L411.83,64.78L412.34,62.51L412.9,61.37L413.53,64.78L413.79,63.64L414.01,62.51L414.16,64.78L414.23,63.64L414.79,62.51L415.41,71.58L415.44,70.45L415.8,69.31L415.87,68.18L416.19,71.58L416.44,70.45L416.77,69.31L417.18,65.91L417.35,68.18L417.87,67.04L418.28,63.64L418.66,65.91L418.66,67.04L419.49,82.93L419.77,81.79L419.92,80.66L420.91,78.39L420.91,79.52L421.04,81.79L421.99,82.93L423.05,80.66L423.09,79.52L423.25,80.66L423.61,79.52L424.05,78.39L424.5,76.12L424.61,79.52L424.74,78.39L424.98,77.25L425.6,74.99L425.94,76.12L426.54,81.79L426.76,79.52L426.79,78.39L427.23,81.79L427.47,81.79L427.61,80.66L427.98,72.72L428.34,79.52L428.44,78.39L428.71,74.99L428.82,81.79L428.83,82.93L429.4,74.99L429.52,77.25L429.65,76.12L429.99,72.72L430.39,74.99L430.44,73.85L430.63,72.72L430.77,76.12L430.77,77.25L431.07,97.67L431.48,93.13L431.57,94.27L431.58,95.4L432.31,94.27L432.38,93.13L432.53,92L432.59,101.07L432.73,98.81L432.83,99.94L433.62,97.67L434.21,96.54L435.01,92L435.16,90.87L435.72,86.33L436,89.73L436,90.87L436.15,88.6L436.42,93.13L436.51,94.27L437.33,93.13L437.45,92L437.95,94.27L438.02,90.87L438.07,89.73L438.07,90.87L438.58,85.19L438.87,84.06L438.89,82.93L438.97,86.33L439.32,84.06L439.79,82.93L439.81,84.06L440.37,74.99L440.4,77.25L441.18,76.12L441.65,72.72L442.19,73.85L442.31,71.58L442.59,77.25L442.95,76.12L442.97,74.99L443.28,73.85L443.53,76.12L443.82,74.99L443.99,77.25L444.34,74.99L444.67,76.12L445.19,70.45L445.53,72.72L445.58,73.85L445.71,72.72L445.74,76.12L446.16,73.85L446.58,72.72L446.59,71.58L447.11,81.79L447.27,78.39L447.52,79.52L447.52,78.39L447.8,81.79L447.9,80.66L448.46,81.79L448.64,80.66L448.89,82.93L449.34,81.79L449.86,80.66L449.9,81.79L449.97,82.93L450.54,85.19L450.55,84.06L450.68,82.93L450.82,79.52L451.36,82.93L451.69,81.79L451.93,78.39L452.31,81.79L452.34,82.93L452.64,81.79L453.45,99.94L453.72,98.81L455.36,85.19L455.45,86.33L455.53,84.06L455.63,94.27L455.91,94.27L456.44,93.13L457.1,102.21L457.24,99.94L457.31,98.81L457.38,99.94L457.64,94.27L458.23,95.4L458.47,92L458.5,96.54L458.65,95.4L459.11,96.54L459.37,97.67L459.99,93.13L460.28,94.27L460.3,97.67L460.96,95.4L461.09,96.54L461.52,94.27L462.21,93.13L462.46,88.6L462.76,93.13L463.06,92L464.14,82.93L464.88,84.06L465.38,95.4L465.78,94.27L465.87,96.54L466.21,89.73L466.37,90.87L466.62,89.73L467.07,96.54L467.75,95.4L467.93,94.27L468.25,96.54L468.25,97.67L468.88,95.4L469.11,107.88L469.21,106.75L469.21,104.48L469.75,111.28L470.02,110.15L470.23,111.28L471.64,110.15L472.21,111.28L472.5,110.15L472.94,111.28L472.95,110.15L473.48,109.01L473.48,107.88L473.73,111.28L473.81,110.15L474.41,109.01L474.62,110.15L474.94,109.01L475.32,107.88L475.4,105.61L475.53,109.01L475.81,107.88L476.32,106.75L476.4,105.61L476.81,110.15L476.81,111.28L477.88,107.88L478.25,109.01L478.5,106.75L478.8,109.01L478.8,110.15L479.37,111.28L479.54,110.15L479.56,109.01L480.3,103.34L480.48,105.61L481.3,106.75L481.3,105.61L481.57,105.61L482.69,104.48L483.23,101.07L483.47,103.34L483.56,102.21L484.18,97.67L484.36,96.54L484.99,98.81L485.02,96.54L485.17,95.4L485.96,94.27L486.51,95.4L486.53,97.67L487.05,97.67L487.34,96.54L487.34,95.4L488.03,97.67L488.21,96.54L488.3,95.4L489.19,94.27L489.79,95.4L490.21,94.27L490.94,89.73L491.16,88.6L491.18,89.73L491.33,88.6L492.03,87.46L492.28,89.73L492.72,88.6L492.82,89.73L493.22,85.19L493.38,87.46L493.65,88.6L493.9,85.19L495.62,86.33L495.94,82.93L496.56,84.06L496.81,95.4L497.36,94.27L497.48,95.4L497.61,93.13L498.04,94.27L498.43,93.13L498.74,89.73L499.65,88.6L499.78,86.33L500.76,85.19L501.41,82.93L501.51,81.79L501.63,79.52L503.01,80.66L503.41,97.67L503.69,95.4L503.77,94.27L503.83,96.54L504.54,95.4L505.45,92L505.46,93.13L506.16,98.81L506.2,97.67L506.62,96.54L507.23,92L507.27,93.13L507.7,92L510.1,87.46L510.41,86.33L511.48,82.93L512.37,81.79L512.46,79.52L512.66,80.66L513.28,79.52L513.92,77.25L515.37,76.12L516.88,72.72L517.01,71.58L518.21,65.91L518.22,67.04L518.25,65.91L518.29,69.31L518.85,67.04L519.05,65.91L519.87,57.97L520,56.84L520.55,53.43L523.44,52.3L524.86,45.49L526.64,44.36L526.66,43.22L527.58,42.09L527.6,43.22L528.1,39.82L528.4,38.69L528.74,36.42L530.57,35.28L532.37,33.01L532.54,31.88L533.47,29.61L533.53,28.48L533.65,29.61L534.2,28.48L534.42,27.34L537.09,21.67L537.29,20.54L537.97,19.4L539.85,18.27L539.85,19.4L540,16" style="fill: rgb(255, 127, 14); fill-opacity: 0.5; stroke-width: 0;"/></g></g><g class="errorbars"/><g class="lines"><path class="js-line" d="M0,318.87L0,316.6L0.54,317.73L1.78,318.87L1.89,317.73L2.88,318.87L3.68,313.19L3.71,314.33L4.37,313.19L4.78,308.66L4.95,309.79L5.31,310.93L5.48,307.52L5.76,312.06L5.89,309.79L6.19,310.93L6.85,300.72L6.96,299.58L7.12,298.45L7.38,301.85L7.39,302.99L7.56,293.91L8.23,292.78L8.61,301.85L8.61,302.99L9.32,309.79L9.33,308.66L9.45,307.52L9.76,302.99L9.76,301.85L10.15,300.72L10.18,302.99L10.18,304.12L11.12,307.52L11.23,306.39L11.37,305.25L12.31,289.37L12.36,295.04L12.47,293.91L12.77,297.31L12.95,295.04L13.17,293.91L13.56,288.24L13.7,291.64L14.1,290.51L14.28,289.37L14.41,291.64L15.09,292.78L15.25,296.18L16.41,295.04L16.99,292.78L17.12,291.64L17.82,287.1L17.83,288.24L17.96,287.1L18.39,288.24L20.85,287.1L20.85,288.24L21.25,284.84L21.25,287.1L22.73,285.97L22.92,287.1L23.07,285.97L23.88,284.84L24.58,282.57L24.68,283.7L24.99,282.57L25.71,290.51L25.78,289.37L26.05,285.97L26.49,289.37L26.63,288.24L26.87,289.37L28.01,290.51L29.41,287.1L29.62,288.24L29.66,291.64L29.66,291.64L30.44,290.51L30.9,293.91L31.3,292.78L31.49,298.45L32.37,299.58L33.05,297.31L33.05,298.45L33.19,299.58L34.05,296.18L34.16,297.31L34.76,298.45L35.11,297.31L35.12,298.45L35.25,292.78L35.53,293.91L36.2,292.78L36.43,289.37L36.62,296.18L37.1,297.31L37.17,296.18L37.6,299.58L37.66,300.72L37.87,296.18L38.16,297.31L38.45,298.45L39.27,292.78L39.4,296.18L39.73,295.04L39.93,292.78L40.08,296.18L40.22,295.04L40.35,296.18L41.3,290.51L41.32,291.64L42.11,288.24L42.39,287.1L43.15,289.37L43.64,288.24L43.94,291.64L44.38,287.1L44.64,288.24L44.71,285.97L45.01,291.64L45.16,292.78L45.72,296.18L45.86,293.91L45.87,292.78L45.96,296.18L46.27,295.04L46.81,296.18L46.82,299.58L47.1,297.31L47.65,298.45L48.02,297.31L48.02,298.45L48.7,297.31L48.7,298.45L48.89,296.18L49,296.18L49.81,295.04L50.95,292.78L51.49,293.91L51.49,295.04L51.91,291.64L52.06,293.91L52.49,292.78L52.59,291.64L52.88,295.04L53.69,293.91L54.98,289.37L55.47,288.24L56.67,278.03L56.74,280.3L56.83,281.43L56.83,282.57L57.57,279.16L57.69,278.03L57.7,279.16L59.22,278.03L60.39,271.22L60.5,272.36L61.38,270.09L61.91,268.96L62.59,258.75L62.62,261.01L63.33,259.88L63.97,262.15L63.97,263.28L63.98,268.96L64.27,268.96L64.95,267.82L66.17,264.42L66.89,263.28L67.14,270.09L68.01,268.96L69.08,280.3L69.22,279.16L69.73,278.03L69.73,276.9L70.12,276.9L70.56,278.03L71.61,274.63L71.61,275.76L72.03,274.63L72.06,273.49L72.11,274.63L72.94,273.49L73.7,272.36L74.19,271.22L77.41,262.15L77.41,263.28L77.85,266.69L77.98,263.28L78.37,264.42L78.65,265.55L78.72,262.15L78.91,264.42L79.62,265.55L79.94,259.88L79.95,261.01L81.05,259.88L81.25,261.01L81.44,259.88L81.67,258.75L81.7,257.61L82.39,261.01L82.51,259.88L82.65,261.01L83.21,257.61L83.21,258.75L83.35,259.88L83.74,264.42L84.14,263.28L84.47,262.15L84.47,259.88L84.58,263.28L85.52,262.15L85.52,263.28L85.54,261.01L86.19,263.28L86.36,262.15L87.14,264.42L87.46,263.28L88.02,264.42L88.11,265.55L88.41,270.09L88.94,268.96L89.23,276.9L89.51,274.63L89.97,273.49L91,270.09L91.13,271.22L91.13,272.36L92.93,265.55L92.95,266.69L94.99,259.88L95.12,261.01L95.12,262.15L95.99,264.42L96.09,265.55L96.92,275.76L97.22,274.63L97.62,276.9L97.62,275.76L97.71,274.63L97.75,276.9L98.16,265.55L98.17,265.55L98.57,264.42L98.88,262.15L99.14,267.82L99.52,266.69L100.49,264.42L100.49,265.55L100.49,266.69L100.61,268.96L101.04,267.82L101.51,266.69L101.85,270.09L101.98,267.82L102.38,266.69L102.4,267.82L102.94,265.55L102.96,266.69L103.53,265.55L103.64,264.42L103.64,265.55L104.31,266.69L104.31,267.82L104.89,266.69L105.44,265.55L105.84,262.15L106.25,261.01L107.57,255.34L107.61,256.48L107.68,257.61L109.69,254.21L110.24,255.34L111.6,251.94L112.05,253.07L112.34,251.94L113.15,279.16L113.25,278.03L113.85,275.76L114.12,276.9L114.52,275.76L114.52,276.9L115.48,275.76L115.87,276.9L116.16,275.76L116.18,274.63L116.84,273.49L117.08,274.63L117.09,276.9L117.31,272.36L117.81,271.22L117.81,272.36L118.22,270.09L118.28,270.09L118.82,268.96L118.82,267.82L119.3,273.49L120.99,272.36L121.2,273.49L121.25,272.36L121.76,271.22L122.19,266.69L122.95,265.55L124.6,261.01L124.97,262.15L125.42,259.88L125.5,261.01L125.5,262.15L125.64,267.82L126,265.55L126.52,264.42L127.02,262.15L127.26,263.28L127.26,264.42L127.85,267.82L128.53,266.69L129.49,262.15L129.86,263.28L130.53,262.15L131.57,261.01L132.67,257.61L133.46,258.75L134.18,257.61L134.25,258.75L134.75,257.61L135.1,256.48L135.1,258.75L135.63,254.21L135.63,254.21L136.06,253.07L136.06,250.81L136.61,251.94L136.96,250.81L137.45,248.54L137.48,247.4L137.55,246.27L137.6,249.67L138.13,248.54L138.15,249.67L138.55,247.4L139.17,248.54L139.55,245.13L139.79,255.34L140.34,254.21L141.06,251.94L141.13,253.07L141.14,251.94L141.16,254.21L142.31,253.07L142.94,251.94L143.05,254.21L143.85,253.07L143.86,254.21L144.49,250.81L144.56,251.94L145.1,253.07L146.79,250.81L146.8,251.94L147.87,246.27L148.73,245.13L149.49,242.87L149.49,244L149.49,245.13L150.13,247.4L150.13,248.54L150.49,247.4L151.65,246.27L151.97,247.4L152.42,246.27L152.56,245.13L152.56,246.27L152.79,244L153.8,242.87L154.67,239.46L154.96,238.33L157.23,229.25L157.23,230.39L158.72,226.99L158.73,228.12L159.16,229.25L159.17,231.52L159.59,230.39L160.22,229.25L160.61,226.99L160.63,225.85L160.84,233.79L162.08,232.66L162.32,230.39L163.39,229.25L164.1,233.79L164.44,232.66L167.26,223.58L167.33,222.45L167.37,223.58L169.07,222.45L169.3,226.99L169.31,228.12L169.32,231.52L169.72,229.25L171.62,228.12L171.64,230.39L171.79,229.25L172.51,228.12L173.01,223.58L173.02,224.72L173.54,225.85L173.88,226.99L174.76,222.45L174.82,223.58L174.95,224.72L175.76,223.58L175.77,224.72L176.74,223.58L177.04,222.45L178.28,221.31L178.9,219.04L178.93,217.91L179.46,215.64L179.47,216.78L179.87,215.64L179.9,217.91L180.54,216.78L180.71,215.64L181.38,216.78L181.67,215.64L182.39,214.51L182.57,213.37L183.31,211.1L183.45,209.97L183.62,211.1L183.76,208.84L183.78,209.97L184.56,208.84L185.89,200.9L185.89,203.16L186.15,202.03L186.48,199.76L186.78,200.9L187.29,199.76L187.48,197.49L187.93,199.76L188.19,198.63L188.56,196.36L189.11,195.22L190.24,194.09L190.24,195.22L190.32,194.09L190.35,195.22L191.66,194.09L192.38,195.22L193.09,194.09L193.31,192.96L193.31,194.09L195.12,192.96L195.8,191.82L195.82,192.96L195.82,194.09L196.19,192.96L197.01,194.09L197.01,195.22L197.68,195.22L197.85,194.09L198.8,191.82L199.5,190.69L200.13,187.28L200.5,188.42L201.85,183.88L202.17,185.01L203.55,183.88L204.74,181.61L204.85,182.75L207.31,178.21L207.6,179.34L207.95,175.94L208.67,174.81L209.09,177.07L209.13,175.94L209.4,174.81L210.12,172.54L210.33,173.67L210.37,174.81L210.39,178.21L211.1,174.81L211.15,175.94L211.52,173.67L211.6,179.34L211.6,180.48L212.75,177.07L212.88,178.21L212.94,179.34L213.4,175.94L213.53,178.21L213.57,179.34L214.21,182.75L214.21,183.88L214.5,198.63L214.98,197.49L215.84,204.3L215.98,203.16L215.99,204.3L216.4,199.76L216.56,202.03L216.83,203.16L218.33,194.09L218.68,192.96L218.83,189.55L218.93,194.09L219.83,192.96L221.78,190.69L221.81,189.55L222.38,183.88L222.75,182.75L223.18,183.88L224.79,182.75L225.91,180.48L225.99,179.34L226.82,178.21L227.22,179.34L227.94,177.07L229.74,175.94L230.31,173.67L230.38,172.54L231.24,169.13L231.37,170.27L231.55,169.13L232.67,168L232.98,164.6L233,171.4L233,172.54L233,173.67L233.54,169.13L233.96,168L234.16,169.13L235.1,168L235.24,169.13L235.48,168L236.05,169.13L236.12,168L236.3,172.54L236.71,170.27L236.97,171.4L237.27,170.27L237.29,172.54L237.39,172.54L237.4,173.67L238.82,169.13L238.82,170.27L239.21,166.87L239.35,172.54L239.71,171.4L240.01,170.27L240.15,171.4L240.19,172.54L240.27,171.4L240.57,173.67L240.87,174.81L240.96,172.54L240.99,181.61L241,182.75L241.51,200.9L241.65,199.76L241.78,200.9L241.78,202.03L242.21,202.03L242.74,200.9L243.75,196.36L243.83,197.49L245.11,189.55L245.25,190.69L245.52,189.55L246.72,186.15L246.72,187.28L246.86,188.42L247.44,185.01L247.74,183.88L247.93,182.75L248.56,183.88L249.16,178.21L249.61,177.07L250.08,172.54L250.09,173.67L250.61,174.81L251.41,170.27L251.58,169.13L253.23,161.19L253.43,160.06L254.59,157.79L254.73,156.66L254.87,154.39L255.51,153.25L256.36,149.85L256.75,148.72L258.33,144.18L258.54,143.04L259.55,140.78L259.57,139.64L260.5,137.37L260.58,138.51L261.46,135.1L261.49,133.97L262.01,131.7L262.06,130.57L264.03,122.63L264.24,123.76L264.25,126.03L265.15,124.9L265.15,126.03L265.85,122.63L266.46,121.49L266.74,122.63L267.88,121.49L268.16,118.09L270.54,119.22L270.7,145.31L271.59,144.18L272.74,145.31L272.89,144.18L272.89,143.04L272.97,146.45L273.14,144.18L273.72,145.31L276.55,144.18L277.26,143.04L277.8,139.64L277.81,138.51L277.93,140.78L278.56,138.51L278.6,139.64L279.51,138.51L279.75,139.64L280.28,144.18L280.44,141.91L280.66,143.04L280.66,144.18L280.96,141.91L281.4,141.91L281.64,140.78L282.38,138.51L282.46,137.37L282.83,135.1L283.19,136.24L283.19,137.37L283.47,148.72L284.39,147.58L284.55,148.72L285.05,146.45L285.06,147.58L285.06,148.72L286.04,146.45L286.21,147.58L286.31,145.31L286.75,146.45L287.12,147.58L287.57,148.72L288.07,147.58L289.49,143.04L289.79,141.91L290.11,144.18L290.26,139.64L290.42,139.64L290.81,140.78L290.87,139.64L290.96,140.78L292.07,139.64L292.09,140.78L292.62,138.51L292.96,137.37L293.27,132.84L293.53,133.97L293.9,135.1L293.91,139.64L294.09,137.37L295.1,136.24L295.8,146.45L295.8,145.31L295.9,144.18L295.93,143.04L296.23,153.25L296.38,153.25L296.47,154.39L296.52,162.33L297.2,160.06L297.54,161.19L298.23,156.66L298.39,157.79L299.05,155.52L299.57,154.39L299.6,155.52L299.87,152.12L300.67,150.99L300.89,152.12L300.9,150.99L301.51,149.85L301.81,153.25L301.92,149.85L302.36,148.72L302.75,145.31L303.37,144.18L303.56,143.04L304.85,141.91L305.5,138.51L305.56,137.37L306.74,130.57L307.69,129.43L310.33,121.49L311.4,120.36L312.16,118.09L312.95,116.96L313.09,114.69L313.81,115.82L314.16,132.84L314.35,131.7L314.63,132.84L314.9,131.7L314.92,133.97L315.25,132.84L315.87,133.97L316.37,132.84L317.08,133.97L318.18,130.57L319.11,129.43L320.35,128.3L320.68,129.43L320.73,130.57L321.71,129.43L322.22,127.16L322.66,128.3L322.84,127.16L323.25,128.3L323.28,129.43L323.28,130.57L323.94,128.3L324.6,129.43L325.56,161.19L325.84,160.06L325.99,156.66L326.43,161.19L326.58,162.33L327.99,152.12L328.32,150.99L328.44,153.25L328.89,152.12L329.31,150.99L330.27,153.25L330.65,152.12L331.6,150.99L331.61,152.12L332.42,149.85L332.75,148.72L333.15,149.85L333.52,148.72L333.53,147.58L334.07,148.72L334.09,147.58L334.33,146.45L334.53,144.18L335.61,143.04L335.88,141.91L336.94,140.78L338.49,136.24L338.49,137.37L338.52,138.51L339.45,133.97L339.97,135.1L340.79,130.57L340.79,131.7L341.27,130.57L341.32,131.7L341.92,128.3L341.97,127.16L342.03,126.03L343.29,124.9L344.12,122.63L344.15,121.49L344.95,119.22L345.27,118.09L346.17,122.63L346.55,121.49L346.72,120.36L348.19,118.09L348.4,119.22L349.47,116.96L350.01,115.82L351.52,111.28L352.11,110.15L352.47,109.01L352.68,110.15L352.73,111.28L352.75,110.15L353.6,109.01L354.69,106.75L354.8,105.61L355.75,104.48L355.77,105.61L355.78,106.75L355.84,121.49L356.34,119.22L356.46,118.09L356.72,119.22L356.74,118.09L357.32,116.96L358.09,115.82L358.28,116.96L359.22,114.69L359.59,113.55L360.52,111.28L361.39,110.15L362.81,107.88L362.81,106.75L362.81,99.94L364.03,98.81L365.03,95.4L366.48,96.54L366.48,98.81L366.89,95.4L367.23,95.4L367.71,96.54L368.03,94.27L368.27,95.4L369.12,94.27L369.26,93.13L369.26,94.27L370.53,95.4L371.15,94.27L371.2,95.4L371.37,96.54L371.37,97.67L371.96,97.67L372.26,98.81L372.46,111.28L373.41,112.42L374.39,110.15L374.89,109.01L375.01,106.75L375.05,110.15L375.46,111.28L376.64,103.34L376.66,104.48L376.66,109.01L376.97,106.75L377.51,105.61L378.77,102.21L379.86,101.07L380.54,97.67L381.23,96.54L381.59,93.13L382.05,95.4L382.3,94.27L383.29,88.6L383.29,89.73L384.67,88.6L385.42,82.93L385.43,85.19L386.22,84.06L386.54,85.19L386.58,84.06L387.07,82.93L387.6,80.66L388.23,81.79L389.15,78.39L389.76,77.25L390.36,74.99L390.58,76.12L390.71,77.25L391.01,78.39L391.21,77.25L392.35,78.39L395.88,68.18L396.58,69.31L397.64,65.91L397.72,64.78L397.78,65.91L397.94,61.37L398.54,62.51L398.61,60.24L399.72,59.1L399.88,56.84L400.05,59.1L400.31,60.24L400.69,59.1L400.85,60.24L400.88,61.37L401.14,63.64L401.66,62.51L402.66,55.7L402.7,59.1L403.34,57.97L403.42,56.84L403.62,59.1L403.85,59.1L404.01,60.24L404.78,55.7L405.08,56.84L405.22,60.24L405.7,55.7L406.02,54.57L406.58,52.3L406.58,53.43L406.65,54.57L407.18,50.03L407.27,52.3L407.53,53.43L407.69,51.16L407.83,64.78L407.83,65.91L408.21,68.18L408.49,65.91L408.5,64.78L408.5,57.97L409.17,65.91L409.2,62.51L409.31,63.64L410.94,55.7L410.99,56.84L411.13,68.18L411.52,63.64L411.79,62.51L411.83,64.78L412.34,62.51L412.9,61.37L413.53,64.78L413.79,63.64L414.01,62.51L414.16,64.78L414.23,63.64L414.79,62.51L415.41,71.58L415.44,70.45L415.8,69.31L415.87,68.18L416.19,71.58L416.44,70.45L416.77,69.31L417.18,65.91L417.35,68.18L417.87,67.04L418.28,63.64L418.66,65.91L418.66,67.04L419.49,82.93L419.77,81.79L419.92,80.66L420.91,78.39L420.91,79.52L421.04,81.79L421.99,82.93L423.05,80.66L423.09,79.52L423.25,80.66L423.61,79.52L424.05,78.39L424.5,76.12L424.61,79.52L424.74,78.39L424.98,77.25L425.6,74.99L425.94,76.12L426.54,81.79L426.76,79.52L426.79,78.39L427.23,81.79L427.47,81.79L427.61,80.66L427.98,72.72L428.34,79.52L428.44,78.39L428.71,74.99L428.82,81.79L428.83,82.93L429.4,74.99L429.52,77.25L429.65,76.12L429.99,72.72L430.39,74.99L430.44,73.85L430.63,72.72L430.77,76.12L430.77,77.25L431.07,97.67L431.48,93.13L431.57,94.27L431.58,95.4L432.31,94.27L432.38,93.13L432.53,92L432.59,101.07L432.73,98.81L432.83,99.94L433.62,97.67L434.21,96.54L435.01,92L435.16,90.87L435.72,86.33L436,89.73L436,90.87L436.15,88.6L436.42,93.13L436.51,94.27L437.33,93.13L437.45,92L437.95,94.27L438.02,90.87L438.07,89.73L438.07,90.87L438.58,85.19L438.87,84.06L438.89,82.93L438.97,86.33L439.32,84.06L439.79,82.93L439.81,84.06L440.37,74.99L440.4,77.25L441.18,76.12L441.65,72.72L442.19,73.85L442.31,71.58L442.59,77.25L442.95,76.12L442.97,74.99L443.28,73.85L443.53,76.12L443.82,74.99L443.99,77.25L444.34,74.99L444.67,76.12L445.19,70.45L445.53,72.72L445.58,73.85L445.71,72.72L445.74,76.12L446.16,73.85L446.58,72.72L446.59,71.58L447.11,81.79L447.27,78.39L447.52,79.52L447.52,78.39L447.8,81.79L447.9,80.66L448.46,81.79L448.64,80.66L448.89,82.93L449.34,81.79L449.86,80.66L449.9,81.79L449.97,82.93L450.54,85.19L450.55,84.06L450.68,82.93L450.82,79.52L451.36,82.93L451.69,81.79L451.93,78.39L452.31,81.79L452.34,82.93L452.64,81.79L453.45,99.94L453.72,98.81L455.36,85.19L455.45,86.33L455.53,84.06L455.63,94.27L455.91,94.27L456.44,93.13L457.1,102.21L457.24,99.94L457.31,98.81L457.38,99.94L457.64,94.27L458.23,95.4L458.47,92L458.5,96.54L458.65,95.4L459.11,96.54L459.37,97.67L459.99,93.13L460.28,94.27L460.3,97.67L460.96,95.4L461.09,96.54L461.52,94.27L462.21,93.13L462.46,88.6L462.76,93.13L463.06,92L464.14,82.93L464.88,84.06L465.38,95.4L465.78,94.27L465.87,96.54L466.21,89.73L466.37,90.87L466.62,89.73L467.07,96.54L467.75,95.4L467.93,94.27L468.25,96.54L468.25,97.67L468.88,95.4L469.11,107.88L469.21,106.75L469.21,104.48L469.75,111.28L470.02,110.15L470.23,111.28L471.64,110.15L472.21,111.28L472.5,110.15L472.94,111.28L472.95,110.15L473.48,109.01L473.48,107.88L473.73,111.28L473.81,110.15L474.41,109.01L474.62,110.15L474.94,109.01L475.32,107.88L475.4,105.61L475.53,109.01L475.81,107.88L476.32,106.75L476.4,105.61L476.81,110.15L476.81,111.28L477.88,107.88L478.25,109.01L478.5,106.75L478.8,109.01L478.8,110.15L479.37,111.28L479.54,110.15L479.56,109.01L480.3,103.34L480.48,105.61L481.3,106.75L481.3,105.61L481.57,105.61L482.69,104.48L483.23,101.07L483.47,103.34L483.56,102.21L484.18,97.67L484.36,96.54L484.99,98.81L485.02,96.54L485.17,95.4L485.96,94.27L486.51,95.4L486.53,97.67L487.05,97.67L487.34,96.54L487.34,95.4L488.03,97.67L488.21,96.54L488.3,95.4L489.19,94.27L489.79,95.4L490.21,94.27L490.94,89.73L491.16,88.6L491.18,89.73L491.33,88.6L492.03,87.46L492.28,89.73L492.72,88.6L492.82,89.73L493.22,85.19L493.38,87.46L493.65,88.6L493.9,85.19L495.62,86.33L495.94,82.93L496.56,84.06L496.81,95.4L497.36,94.27L497.48,95.4L497.61,93.13L498.04,94.27L498.43,93.13L498.74,89.73L499.65,88.6L499.78,86.33L500.76,85.19L501.41,82.93L501.51,81.79L501.63,79.52L503.01,80.66L503.41,97.67L503.69,95.4L503.77,94.27L503.83,96.54L504.54,95.4L505.45,92L505.46,93.13L506.16,98.81L506.2,97.67L506.62,96.54L507.23,92L507.27,93.13L507.7,92L510.1,87.46L510.41,86.33L511.48,82.93L512.37,81.79L512.46,79.52L512.66,80.66L513.28,79.52L513.92,77.25L515.37,76.12L516.88,72.72L517.01,71.58L518.21,65.91L518.22,67.04L518.25,65.91L518.29,69.31L518.85,67.04L519.05,65.91L519.87,57.97L520,56.84L520.55,53.43L523.44,52.3L524.86,45.49L526.64,44.36L526.66,43.22L527.58,42.09L527.6,43.22L528.1,39.82L528.4,38.69L528.74,36.42L530.57,35.28L532.37,33.01L532.54,31.88L533.47,29.61L533.53,28.48L533.65,29.61L534.2,28.48L534.42,27.34L537.09,21.67L537.29,20.54L537.97,19.4L539.85,18.27L539.85,19.4L540,16" style="vector-effect: none; fill: none; stroke: rgb(255, 127, 14); stroke-opacity: 1; stroke-width: 2px; opacity: 1;"/></g><g class="points"/><g class="text"/></g></g></g></g><g class="zerolinelayer-above"/><path class="xlines-above crisp" d="M0,0" style="fill: none;"/><path class="ylines-above crisp" d="M0,0" style="fill: none;"/><g class="overlines-above"/><g class="xaxislayer-above"><g class="xtick"><text text-anchor="middle" x="0" y="439" transform="translate(100.23,0)" style="font-family: 'Open Sans'; font-size: 18px; fill: rgb(0, 0, 0); fill-opacity: 1; white-space: pre;">2016</text></g><g class="xtick"><text text-anchor="middle" x="0" y="439" style="font-family: 'Open Sans'; font-size: 18px; fill: rgb(0, 0, 0); fill-opacity: 1; white-space: pre;" transform="translate(200.61,0)">2018</text></g><g class="xtick"><text text-anchor="middle" x="0" y="439" style="font-family: 'Open Sans'; font-size: 18px; fill: rgb(0, 0, 0); fill-opacity: 1; white-space: pre;" transform="translate(300.86,0)">2020</text></g><g class="xtick"><text text-anchor="middle" x="0" y="439" style="font-family: 'Open Sans'; font-size: 18px; fill: rgb(0, 0, 0); fill-opacity: 1; white-space: pre;" transform="translate(401.24,0)">2022</text></g><g class="xtick"><text text-anchor="middle" x="0" y="439" style="font-family: 'Open Sans'; font-size: 18px; fill: rgb(0, 0, 0); fill-opacity: 1; white-space: pre;" transform="translate(501.48,0)">2024</text></g><g class="xtick"><text text-anchor="middle" x="0" y="439" style="font-family: 'Open Sans'; font-size: 18px; fill: rgb(0, 0, 0); fill-opacity: 1; white-space: pre;" transform="translate(601.87,0)">2026</text></g></g><g class="yaxislayer-above"><g class="ytick"><text text-anchor="end" x="79" y="6.3" transform="translate(0,420)" style="font-family: 'Open Sans'; font-size: 18px; fill: rgb(0, 0, 0); fill-opacity: 1; white-space: pre;">0</text></g><g class="ytick"><text text-anchor="end" x="79" y="6.3" style="font-family: 'Open Sans'; font-size: 18px; fill: rgb(0, 0, 0); fill-opacity: 1; white-space: pre;" transform="translate(0,363.28)">50</text></g><g class="ytick"><text text-anchor="end" x="79" y="6.3" style="font-family: 'Open Sans'; font-size: 18px; fill: rgb(0, 0, 0); fill-opacity: 1; white-space: pre;" transform="translate(0,306.57)">100</text></g><g class="ytick"><text text-anchor="end" x="79" y="6.3" style="font-family: 'Open Sans'; font-size: 18px; fill: rgb(0, 0, 0); fill-opacity: 1; white-space: pre;" transform="translate(0,249.85)">150</text></g><g class="ytick"><text text-anchor="end" x="79" y="6.3" style="font-family: 'Open Sans'; font-size: 18px; fill: rgb(0, 0, 0); fill-opacity: 1; white-space: pre;" transform="translate(0,193.13)">200</text></g><g class="ytick"><text text-anchor="end" x="79" y="6.3" style="font-family: 'Open Sans'; font-size: 18px; fill: rgb(0, 0, 0); fill-opacity: 1; white-space: pre;" transform="translate(0,136.42000000000002)">250</text></g></g><g class="overaxes-above"/></g></g><g class="polarlayer"/><g class="smithlayer"/><g class="ternarylayer"/><g class="geolayer"/><g class="funnelarealayer"/><g class="pielayer"/><g class="iciclelayer"/><g class="treemaplayer"/><g class="sunburstlayer"/><g class="glimages"/><defs id="topdefs-1903df"><g class="clips"/></defs><g class="layer-above"><g class="imagelayer"/><g class="shapelayer"/></g><g class="infolayer"><g class="g-gtitle"><text class="gtitle" x="35" y="50" text-anchor="start" dy="0em" style="opacity: 1; font-family: 'Open Sans'; font-size: 25px; fill: rgb(0, 0, 0); fill-opacity: 1; white-space: pre;">MultiQC/MultiQC - Open Issues Over Time</text></g><g class="g-xtitle"><text class="xtitle" x="350" y="472.9" text-anchor="middle" style="opacity: 1; font-family: 'Open Sans'; font-size: 22px; fill: rgb(0, 0, 0); fill-opacity: 1; white-space: pre;">Date</text></g><g class="g-ytitle"><text class="ytitle" transform="rotate(-90,29.799999999999997,260)" x="29.799999999999997" y="260" text-anchor="middle" style="opacity: 1; font-family: 'Open Sans'; font-size: 22px; fill: rgb(0, 0, 0); fill-opacity: 1; white-space: pre;">Number of Open Issues</text></g></g></svg>