<svg class="main-svg" xmlns="http://www.w3.org/2000/svg" xmlns:xlink="http://www.w3.org/1999/xlink" width="700" height="500" style="" viewBox="0 0 700 500"><rect x="0" y="0" width="700" height="500" style="fill: rgb(0, 0, 0); fill-opacity: 0;"/><defs id="defs-08d44c"><g class="clips"><clipPath id="clip08d44cxyplot" class="plotclip"><rect width="540" height="320"/></clipPath><clipPath class="axesclip" id="clip08d44cx"><rect x="80" y="0" width="540" height="500"/></clipPath><clipPath class="axesclip" id="clip08d44cy"><rect x="0" y="100" width="700" height="320"/></clipPath><clipPath class="axesclip" id="clip08d44cxy"><rect x="80" y="100" width="540" height="320"/></clipPath></g><g class="gradients"/><g class="patterns"/></defs><g class="bglayer"><rect class="bg" x="80" y="100" width="540" height="320" style="fill: rgb(0, 0, 0); fill-opacity: 0; stroke-width: 0;"/></g><g class="layer-below"><g class="imagelayer"/><g class="shapelayer"/></g><g class="cartesianlayer"><g class="subplot xy"><g class="layer-subplot"><g class="shapelayer"/><g class="imagelayer"/></g><g class="minor-gridlayer"><g class="x"/><g class="y"/></g><g class="gridlayer"><g class="x"><path class="xgrid crisp" transform="translate(101.08,0)" d="M0,100v320" style="stroke: rgb(255, 255, 255); stroke-opacity: 1; stroke-width: 1px;"/><path class="xgrid crisp" transform="translate(205.67000000000002,0)" d="M0,100v320" style="stroke: rgb(255, 255, 255); stroke-opacity: 1; stroke-width: 1px;"/><path class="xgrid crisp" transform="translate(310.13,0)" d="M0,100v320" style="stroke: rgb(255, 255, 255); stroke-opacity: 1; stroke-width: 1px;"/><path class="xgrid crisp" transform="translate(414.72,0)" d="M0,100v320" style="stroke: rgb(255, 255, 255); stroke-opacity: 1; stroke-width: 1px;"/><path class="xgrid crisp" transform="translate(519.1800000000001,0)" d="M0,100v320" style="stroke: rgb(255, 255, 255); stroke-opacity: 1; stroke-width: 1px;"/></g><g class="y"><path class="ygrid crisp" transform="translate(0,336.02)" d="M80,0h540" style="stroke: rgb(255, 255, 255); stroke-opacity: 1; stroke-width: 1px;"/><path class="ygrid crisp" transform="translate(0,252.04)" d="M80,0h540" style="stroke: rgb(255, 255, 255); stroke-opacity: 1; stroke-width: 1px;"/><path class="ygrid crisp" transform="translate(0,168.07)" d="M80,0h540" style="stroke: rgb(255, 255, 255); stroke-opacity: 1; stroke-width: 1px;"/></g></g><g class="zerolinelayer"><path class="yzl zl crisp" transform="translate(0,420)" d="M80,0h540" style="stroke: rgb(255, 255, 255); stroke-opacity: 1; stroke-width: 2px;"/></g><g class="layer-between"><g class="shapelayer"/><g class="imagelayer"/></g><path class="xlines-below"/><path class="ylines-below"/><g class="overlines-below"/><g class="xaxislayer-below"/><g class="yaxislayer-below"/><g class="overaxes-below"/><g class="overplot"><g class="xy" transform="translate(80,100)" clip-path="url(#clip08d44cxyplot)"><g class="scatterlayer mlayer"><g class="trace scatter trace7ab916" style="stroke-miterlimit: 2;"><g class="fills"><g><path class="js-fill" d="M540,320L0,320L0,319.83L0,319.5L1.97,319.33L3.84,318.32L4.55,318.15L5.16,316.98L5.54,316.81L6.14,315.8L6.45,315.63L8.58,312.11L8.98,311.94L10.13,310.93L10.13,310.76L11.02,309.92L11.7,309.75L12.72,307.57L12.72,307.4L12.99,306.73L13.49,306.56L14.17,305.05L14.69,304.88L15.87,304.38L17.1,304.21L18.57,303.04L18.71,302.87L24.03,301.86L24.88,301.69L26.04,301.19L26.6,301.02L27.75,299.68L29.63,299.51L32.62,297.66L33.83,297.49L37.78,294.81L37.78,294.64L38.09,293.8L38.73,293.63L40.92,291.45L40.92,291.28L41.61,290.61L41.9,290.44L44.17,288.42L45.47,288.26L47.78,286.07L47.79,285.9L53.09,283.39L53.75,283.22L54.79,282.21L55.94,282.04L60.11,278.85L61.71,278.68L65,275.66L65.1,275.49L65.22,275.16L65.99,274.99L68.59,273.64L68.64,273.48L68.95,273.14L69.7,272.97L70.87,272.64L71.83,272.47L72.13,271.63L72.66,271.46L73.06,271.12L73.84,270.96L73.84,270.79L74.61,270.62L81.24,267.6L81.25,267.43L83.12,266.25L83.14,266.09L83.3,265.58L84.46,265.41L86.7,263.73L86.97,263.57L87.67,263.06L88.02,262.9L88.02,262.56L89.11,262.39L89.13,262.06L89.99,261.89L94.24,260.54L94.72,260.38L95.82,259.7L96.13,259.54L100.72,257.52L100.74,257.35L101.99,256.34L101.99,256.18L102.74,253.83L103.03,253.66L107.99,250.8L108.86,250.63L111.24,248.79L111.7,248.62L115.27,247.78L115.89,247.61L119.33,246.1L120.32,245.93L122.2,244.76L122.23,244.59L127.09,242.24L127.19,242.07L128.11,241.56L128.52,241.4L137.3,236.36L137.97,236.19L141.77,233.5L141.77,233.33L144.09,231.99L144.37,231.82L146.98,230.48L147.06,230.31L151.81,228.97L151.85,228.8L153.33,227.96L153.38,227.79L154.08,227.29L154.97,227.12L155.23,226.78L155.76,226.62L160.8,225.1L160.94,224.94L161.76,224.27L161.93,224.1L174.09,218.89L174.24,218.72L174.35,218.39L176.16,218.22L181.99,216.04L182.09,215.87L186.68,214.19L186.84,214.02L187.42,213.35L188,213.18L188.3,212.84L189.3,212.68L190.05,212.34L190.23,212.17L191,211.5L191.15,211.33L191.47,210.66L192.3,210.49L194.31,208.81L195.15,208.65L196.48,207.47L197.04,207.3L204.18,205.62L204.42,205.45L207.89,204.45L208.03,204.28L208.53,203.77L209.37,203.61L217.43,201.09L217.91,200.92L225.23,196.05L225.24,195.88L229.06,193.19L230.47,193.03L231.5,192.02L231.72,191.85L234.23,191.51L235.2,191.35L236.34,190.84L237.2,190.67L237.5,190.34L239.38,190.17L242.73,188.49L242.76,188.32L243.34,187.31L243.78,187.15L246.27,186.14L246.27,185.97L248.97,184.12L249.07,183.96L249.77,183.12L250.08,182.95L254.53,179.59L254.68,179.42L270.06,170.18L270.45,170.02L270.47,169.85L271.36,169.68L272.46,168.67L273.01,168.5L273.59,167.66L273.97,167.5L279.42,165.48L282.99,165.31L289.46,163.8L289.47,163.63L292.93,162.12L292.99,161.95L296.49,160.11L297.01,159.94L297.3,159.43L298.05,159.27L300.16,158.59L300.6,158.43L302.33,157.08L302.36,156.91L303.08,156.41L304.33,156.24L307.48,154.06L307.72,153.89L308.45,152.38L308.49,152.21L316.3,147.51L317.65,147.34L319.35,145.83L319.61,145.66L323.09,144.32L323.35,144.15L327.38,142.81L327.53,142.64L328.12,142.13L328.49,141.97L337.24,139.95L337.53,139.78L340.38,138.61L340.41,138.44L341.68,137.26L341.75,137.1L344.53,136.42L345.3,136.26L347.53,135.08L348.12,134.91L349.97,134.07L351.08,133.9L354.41,131.72L354.43,131.55L358.44,129.87L358.56,129.71L359.31,129.37L359.42,129.2L363.28,128.03L364.13,127.86L371.29,125L371.43,124.84L373.12,124L374.24,123.83L375.26,123.16L375.65,122.99L378.04,121.81L378.04,121.64L378.04,121.31L379.31,121.14L380.35,120.64L382.19,120.47L382.64,119.96L383.47,119.8L383.48,119.63L384.61,119.46L384.76,119.29L386.32,119.12L391.38,117.11L391.49,116.94L394.67,114.59L395.8,114.42L396.52,113.92L397.23,113.75L398.88,112.24L399.34,112.07L399.37,111.9L400.82,111.73L401.6,110.9L402.43,110.73L409.51,108.04L410.22,107.87L414.53,105.86L414.56,105.69L415.34,105.18L416.5,105.02L417.71,104.34L418.52,104.18L424.78,98.97L424.8,98.8L425.64,97.96L425.64,97.79L426.37,96.45L426.64,96.28L430.48,93.09L431.16,92.92L438.58,87.72L440.39,87.55L444.67,85.03L444.7,84.86L445.55,83.18L445.58,83.01L448.7,77.14L449.26,76.97L449.59,76.3L450.45,76.13L451.82,74.62L452.44,74.45L453.27,73.78L453.43,73.61L455.81,71.93L456.34,71.76L457.76,68.91L458.25,68.74L460.19,66.72L460.83,66.55L461.89,65.21L462.45,65.04L463.77,63.53L463.87,63.36L465.72,61.85L465.72,61.68L466.31,60.84L466.7,60.68L469.63,59.33L469.74,59.16L472.44,56.48L472.46,56.31L473.72,54.97L473.73,54.8L474.48,53.96L474.61,53.79L474.87,53.12L475.6,52.95L476.5,51.61L476.72,51.44L477.48,50.6L477.61,50.43L479.3,48.75L479.91,48.58L481.76,47.07L481.87,46.9L483.01,45.9L483.31,45.73L484.9,45.22L485.33,45.06L486.6,42.87L487.38,42.7L489.75,41.03L491.43,40.86L492.33,40.52L492.8,40.35L495.49,38.84L495.65,38.67L497.36,37.83L497.78,37.67L499.29,36.99L499.67,36.83L500.5,35.65L500.65,35.48L503.86,34.14L504,33.97L509.96,30.95L510.78,30.78L511.54,30.11L511.78,29.94L511.95,29.6L512.68,29.44L514.56,28.26L514.63,28.09L517.68,27.09L517.73,26.92L518.95,25.57L519.35,25.41L519.67,24.9L520.62,24.73L520.75,24.4L521.78,24.23L525.8,22.38L525.96,22.21L528.02,20.87L528.52,20.7L529.01,20.37L529.82,20.2L529.86,20.03L531.37,19.86L532.95,19.02L533.87,18.86L533.97,18.52L534.82,18.35L535.49,18.02L537,17.85L539.39,16.67L539.74,16.5L540,16" style="fill: rgb(255, 127, 14); fill-opacity: 0.5; stroke-width: 0;"/></g></g><g class="errorbars"/><g class="lines"><path class="js-line" d="M0,319.83L0,319.5L1.97,319.33L3.84,318.32L4.55,318.15L5.16,316.98L5.54,316.81L6.14,315.8L6.45,315.63L8.58,312.11L8.98,311.94L10.13,310.93L10.13,310.76L11.02,309.92L11.7,309.75L12.72,307.57L12.72,307.4L12.99,306.73L13.49,306.56L14.17,305.05L14.69,304.88L15.87,304.38L17.1,304.21L18.57,303.04L18.71,302.87L24.03,301.86L24.88,301.69L26.04,301.19L26.6,301.02L27.75,299.68L29.63,299.51L32.62,297.66L33.83,297.49L37.78,294.81L37.78,294.64L38.09,293.8L38.73,293.63L40.92,291.45L40.92,291.28L41.61,290.61L41.9,290.44L44.17,288.42L45.47,288.26L47.78,286.07L47.79,285.9L53.09,283.39L53.75,283.22L54.79,282.21L55.94,282.04L60.11,278.85L61.71,278.68L65,275.66L65.1,275.49L65.22,275.16L65.99,274.99L68.59,273.64L68.64,273.48L68.95,273.14L69.7,272.97L70.87,272.64L71.83,272.47L72.13,271.63L72.66,271.46L73.06,271.12L73.84,270.96L73.84,270.79L74.61,270.62L81.24,267.6L81.25,267.43L83.12,266.25L83.14,266.09L83.3,265.58L84.46,265.41L86.7,263.73L86.97,263.57L87.67,263.06L88.02,262.9L88.02,262.56L89.11,262.39L89.13,262.06L89.99,261.89L94.24,260.54L94.72,260.38L95.82,259.7L96.13,259.54L100.72,257.52L100.74,257.35L101.99,256.34L101.99,256.18L102.74,253.83L103.03,253.66L107.99,250.8L108.86,250.63L111.24,248.79L111.7,248.62L115.27,247.78L115.89,247.61L119.33,246.1L120.32,245.93L122.2,244.76L122.23,244.59L127.09,242.24L127.19,242.07L128.11,241.56L128.52,241.4L137.3,236.36L137.97,236.19L141.77,233.5L141.77,233.33L144.09,231.99L144.37,231.82L146.98,230.48L147.06,230.31L151.81,228.97L151.85,228.8L153.33,227.96L153.38,227.79L154.08,227.29L154.97,227.12L155.23,226.78L155.76,226.62L160.8,225.1L160.94,224.94L161.76,224.27L161.93,224.1L174.09,218.89L174.24,218.72L174.35,218.39L176.16,218.22L181.99,216.04L182.09,215.87L186.68,214.19L186.84,214.02L187.42,213.35L188,213.18L188.3,212.84L189.3,212.68L190.05,212.34L190.23,212.17L191,211.5L191.15,211.33L191.47,210.66L192.3,210.49L194.31,208.81L195.15,208.65L196.48,207.47L197.04,207.3L204.18,205.62L204.42,205.45L207.89,204.45L208.03,204.28L208.53,203.77L209.37,203.61L217.43,201.09L217.91,200.92L225.23,196.05L225.24,195.88L229.06,193.19L230.47,193.03L231.5,192.02L231.72,191.85L234.23,191.51L235.2,191.35L236.34,190.84L237.2,190.67L237.5,190.34L239.38,190.17L242.73,188.49L242.76,188.32L243.34,187.31L243.78,187.15L246.27,186.14L246.27,185.97L248.97,184.12L249.07,183.96L249.77,183.12L250.08,182.95L254.53,179.59L254.68,179.42L270.06,170.18L270.45,170.02L270.47,169.85L271.36,169.68L272.46,168.67L273.01,168.5L273.59,167.66L273.97,167.5L279.42,165.48L282.99,165.31L289.46,163.8L289.47,163.63L292.93,162.12L292.99,161.95L296.49,160.11L297.01,159.94L297.3,159.43L298.05,159.27L300.16,158.59L300.6,158.43L302.33,157.08L302.36,156.91L303.08,156.41L304.33,156.24L307.48,154.06L307.72,153.89L308.45,152.38L308.49,152.21L316.3,147.51L317.65,147.34L319.35,145.83L319.61,145.66L323.09,144.32L323.35,144.15L327.38,142.81L327.53,142.64L328.12,142.13L328.49,141.97L337.24,139.95L337.53,139.78L340.38,138.61L340.41,138.44L341.68,137.26L341.75,137.1L344.53,136.42L345.3,136.26L347.53,135.08L348.12,134.91L349.97,134.07L351.08,133.9L354.41,131.72L354.43,131.55L358.44,129.87L358.56,129.71L359.31,129.37L359.42,129.2L363.28,128.03L364.13,127.86L371.29,125L371.43,124.84L373.12,124L374.24,123.83L375.26,123.16L375.65,122.99L378.04,121.81L378.04,121.64L378.04,121.31L379.31,121.14L380.35,120.64L382.19,120.47L382.64,119.96L383.47,119.8L383.48,119.63L384.61,119.46L384.76,119.29L386.32,119.12L391.38,117.11L391.49,116.94L394.67,114.59L395.8,114.42L396.52,113.92L397.23,113.75L398.88,112.24L399.34,112.07L399.37,111.9L400.82,111.73L401.6,110.9L402.43,110.73L409.51,108.04L410.22,107.87L414.53,105.86L414.56,105.69L415.34,105.18L416.5,105.02L417.71,104.34L418.52,104.18L424.78,98.97L424.8,98.8L425.64,97.96L425.64,97.79L426.37,96.45L426.64,96.28L430.48,93.09L431.16,92.92L438.58,87.72L440.39,87.55L444.67,85.03L444.7,84.86L445.55,83.18L445.58,83.01L448.7,77.14L449.26,76.97L449.59,76.3L450.45,76.13L451.82,74.62L452.44,74.45L453.27,73.78L453.43,73.61L455.81,71.93L456.34,71.76L457.76,68.91L458.25,68.74L460.19,66.72L460.83,66.55L461.89,65.21L462.45,65.04L463.77,63.53L463.87,63.36L465.72,61.85L465.72,61.68L466.31,60.84L466.7,60.68L469.63,59.33L469.74,59.16L472.44,56.48L472.46,56.31L473.72,54.97L473.73,54.8L474.48,53.96L474.61,53.79L474.87,53.12L475.6,52.95L476.5,51.61L476.72,51.44L477.48,50.6L477.61,50.43L479.3,48.75L479.91,48.58L481.76,47.07L481.87,46.9L483.01,45.9L483.31,45.73L484.9,45.22L485.33,45.06L486.6,42.87L487.38,42.7L489.75,41.03L491.43,40.86L492.33,40.52L492.8,40.35L495.49,38.84L495.65,38.67L497.36,37.83L497.78,37.67L499.29,36.99L499.67,36.83L500.5,35.65L500.65,35.48L503.86,34.14L504,33.97L509.96,30.95L510.78,30.78L511.54,30.11L511.78,29.94L511.95,29.6L512.68,29.44L514.56,28.26L514.63,28.09L517.68,27.09L517.73,26.92L518.95,25.57L519.35,25.41L519.67,24.9L520.62,24.73L520.75,24.4L521.78,24.23L525.8,22.38L525.96,22.21L528.02,20.87L528.52,20.7L529.01,20.37L529.82,20.2L529.86,20.03L531.37,19.86L532.95,19.02L533.87,18.86L533.97,18.52L534.82,18.35L535.49,18.02L537,17.85L539.39,16.67L539.74,16.5L540,16" style="vector-effect: none; fill: none; stroke: rgb(255, 127, 14); stroke-opacity: 1; stroke-width: 2px; opacity: 1;"/></g><g class="points"/><g class="text"/></g></g></g></g><g class="zerolinelayer-above"/><path class="xlines-above crisp" d="M0,0" style="fill: none;"/><path class="ylines-above crisp" d="M0,0" style="fill: none;"/><g class="overlines-above"/><g class="xaxislayer-above"><g class="xtick"><text text-anchor="middle" x="0" y="439" transform="translate(101.08,0)" style="font-family: 'Open Sans'; font-size: 18px; fill: rgb(255, 255, 255); fill-opacity: 1; white-space: pre;">2016</text></g><g class="xtick"><text text-anchor="middle" x="0" y="439" style="font-family: 'Open Sans'; font-size: 18px; fill: rgb(255, 255, 255); fill-opacity: 1; white-space: pre;" transform="translate(205.67000000000002,0)">2018</text></g><g class="xtick"><text text-anchor="middle" x="0" y="439" style="font-family: 'Open Sans'; font-size: 18px; fill: rgb(255, 255, 255); fill-opacity: 1; white-space: pre;" transform="translate(310.13,0)">2020</text></g><g class="xtick"><text text-anchor="middle" x="0" y="439" style="font-family: 'Open Sans'; font-size: 18px; fill: rgb(255, 255, 255); fill-opacity: 1; white-space: pre;" transform="translate(414.72,0)">2022</text></g><g class="xtick"><text text-anchor="middle" x="0" y="439" style="font-family: 'Open Sans'; font-size: 18px; fill: rgb(255, 255, 255); fill-opacity: 1; white-space: pre;" transform="translate(519.1800000000001,0)">2024</text></g></g><g class="yaxislayer-above"><g class="ytick"><text text-anchor="end" x="79" y="6.3" transform="translate(0,420)" style="font-family: 'Open Sans'; font-size: 18px; fill: rgb(255, 255, 255); fill-opacity: 1; white-space: pre;">0</text></g><g class="ytick"><text text-anchor="end" x="79" y="6.3" style="font-family: 'Open Sans'; font-size: 18px; fill: rgb(255, 255, 255); fill-opacity: 1; white-space: pre;" transform="translate(0,336.02)">500</text></g><g class="ytick"><text text-anchor="end" x="79" y="6.3" style="font-family: 'Open Sans'; font-size: 18px; fill: rgb(255, 255, 255); fill-opacity: 1; white-space: pre;" transform="translate(0,252.04)">1000</text></g><g class="ytick"><text text-anchor="end" x="79" y="6.3" style="font-family: 'Open Sans'; font-size: 18px; fill: rgb(255, 255, 255); fill-opacity: 1; white-space: pre;" transform="translate(0,168.07)">1500</text></g></g><g class="overaxes-above"/></g></g><g class="polarlayer"/><g class="smithlayer"/><g class="ternarylayer"/><g class="geolayer"/><g class="funnelarealayer"/><g class="pielayer"/><g class="iciclelayer"/><g class="treemaplayer"/><g class="sunburstlayer"/><g class="glimages"/><defs id="topdefs-08d44c"><g class="clips"/></defs><g class="layer-above"><g class="imagelayer"/><g class="shapelayer"/></g><g class="infolayer"><g class="g-gtitle"><text class="gtitle" x="35" y="50" text-anchor="start" dy="0em" style="opacity: 1; font-family: 'Open Sans'; font-size: 25px; fill: rgb(255, 255, 255); fill-opacity: 1; white-space: pre;">MultiQC/MultiQC - Issues Created Over Time</text></g><g class="g-xtitle"><text class="xtitle" x="350" y="472.9" text-anchor="middle" style="opacity: 1; font-family: 'Open Sans'; font-size: 22px; fill: rgb(255, 255, 255); fill-opacity: 1; white-space: pre;">Date</text></g><g class="g-ytitle"><text class="ytitle" transform="rotate(-90,20.799999999999997,260)" x="20.799999999999997" y="260" text-anchor="middle" style="opacity: 1; font-family: 'Open Sans'; font-size: 22px; fill: rgb(255, 255, 255); fill-opacity: 1; white-space: pre;">Cumulative Issues Created</text></g></g></svg>