<svg class="main-svg" xmlns="http://www.w3.org/2000/svg" xmlns:xlink="http://www.w3.org/1999/xlink" width="700" height="500" style="" viewBox="0 0 700 500"><rect x="0" y="0" width="700" height="500" style="fill: rgb(0, 0, 0); fill-opacity: 0;"/><defs id="defs-772649"><g class="clips"><clipPath id="clip772649xyplot" class="plotclip"><rect width="540" height="320"/></clipPath><clipPath class="axesclip" id="clip772649x"><rect x="80" y="0" width="540" height="500"/></clipPath><clipPath class="axesclip" id="clip772649y"><rect x="0" y="100" width="700" height="320"/></clipPath><clipPath class="axesclip" id="clip772649xy"><rect x="80" y="100" width="540" height="320"/></clipPath></g><g class="gradients"/><g class="patterns"/></defs><g class="bglayer"><rect class="bg" x="80" y="100" width="540" height="320" style="fill: rgb(0, 0, 0); fill-opacity: 0; stroke-width: 0;"/></g><g class="layer-below"><g class="imagelayer"/><g class="shapelayer"/></g><g class="cartesianlayer"><g class="subplot xy"><g class="layer-subplot"><g class="shapelayer"/><g class="imagelayer"/></g><g class="minor-gridlayer"><g class="x"/><g class="y"/></g><g class="gridlayer"><g class="x"><path class="xgrid crisp" transform="translate(101.16,0)" d="M0,100v320" style="stroke: rgb(255, 255, 255); stroke-opacity: 1; stroke-width: 1px;"/><path class="xgrid crisp" transform="translate(206.18,0)" d="M0,100v320" style="stroke: rgb(255, 255, 255); stroke-opacity: 1; stroke-width: 1px;"/><path class="xgrid crisp" transform="translate(311.06,0)" d="M0,100v320" style="stroke: rgb(255, 255, 255); stroke-opacity: 1; stroke-width: 1px;"/><path class="xgrid crisp" transform="translate(416.08,0)" d="M0,100v320" style="stroke: rgb(255, 255, 255); stroke-opacity: 1; stroke-width: 1px;"/><path class="xgrid crisp" transform="translate(520.95,0)" d="M0,100v320" style="stroke: rgb(255, 255, 255); stroke-opacity: 1; stroke-width: 1px;"/></g><g class="y"><path class="ygrid crisp" transform="translate(0,356.13)" d="M80,0h540" style="stroke: rgb(255, 255, 255); stroke-opacity: 1; stroke-width: 1px;"/><path class="ygrid crisp" transform="translate(0,292.27)" d="M80,0h540" style="stroke: rgb(255, 255, 255); stroke-opacity: 1; stroke-width: 1px;"/><path class="ygrid crisp" transform="translate(0,228.4)" d="M80,0h540" style="stroke: rgb(255, 255, 255); stroke-opacity: 1; stroke-width: 1px;"/><path class="ygrid crisp" transform="translate(0,164.54000000000002)" d="M80,0h540" style="stroke: rgb(255, 255, 255); stroke-opacity: 1; stroke-width: 1px;"/></g></g><g class="zerolinelayer"><path class="yzl zl crisp" transform="translate(0,420)" d="M80,0h540" style="stroke: rgb(255, 255, 255); stroke-opacity: 1; stroke-width: 2px;"/></g><g class="layer-between"><g class="shapelayer"/><g class="imagelayer"/></g><path class="xlines-below"/><path class="ylines-below"/><g class="overlines-below"/><g class="xaxislayer-below"/><g class="yaxislayer-below"/><g class="overaxes-below"/><g class="overplot"><g class="xy" transform="translate(80,100)" clip-path="url(#clip772649xyplot)"><g class="scatterlayer mlayer"><g class="trace scatter traceb0b7fc" style="stroke-miterlimit: 2;"><g class="fills"><g><path class="js-fill" d="M540,320L0,320L0,318.72L0,316.17L0.57,317.45L1.86,318.72L1.98,317.45L3.01,318.72L3.85,312.34L3.88,313.61L4.57,312.34L5,307.23L5.18,308.5L5.56,309.78L5.73,305.95L6.02,311.06L6.17,308.5L6.47,309.78L7.16,298.29L7.28,297.01L7.45,295.73L7.72,298.29L7.73,299.56L7.74,300.84L7.91,290.62L8.61,289.34L9,298.29L9.01,299.56L9.75,308.5L9.76,307.23L9.88,305.95L10.17,302.12L10.17,300.84L10.62,298.29L10.65,302.12L11.05,303.39L11.06,302.12L11.63,305.95L11.75,304.67L11.9,303.39L12.88,285.51L12.92,290.62L12.93,291.9L13.05,290.62L13.36,294.45L13.54,291.9L13.78,290.62L14.18,284.24L14.33,288.07L14.75,286.79L14.94,285.51L15.08,288.07L15.78,289.34L15.95,293.18L17.17,291.9L17.78,289.34L17.91,288.07L18.65,282.96L18.65,284.24L18.79,282.96L19.24,284.24L21.81,282.96L21.82,284.24L22.23,280.4L22.23,282.96L23.78,281.68L23.98,282.96L24.13,281.68L24.98,280.4L25.71,277.85L25.82,279.13L26.14,277.85L26.9,286.79L26.97,285.51L27.25,281.68L27.7,284.24L27.72,285.51L27.86,284.24L28.11,285.51L29.3,286.79L30.77,282.96L30.99,284.24L31.03,288.07L31.03,288.07L31.84,286.79L32.32,290.62L32.32,290.62L32.75,289.34L32.95,295.73L33.86,297.01L34.57,294.45L34.58,295.73L34.72,297.01L35.32,294.45L35.62,293.18L36.36,295.73L36.74,294.45L36.74,295.73L36.88,289.34L37.17,290.62L37.88,289.34L38.11,285.51L38.31,293.18L38.82,294.45L38.89,293.18L39.34,297.01L39.39,298.29L39.91,293.18L39.92,294.45L40.22,295.73L41.09,289.34L41.21,293.18L41.56,291.9L41.77,289.34L41.79,291.9L41.93,293.18L43.36,285.51L44.05,284.24L44.35,282.96L44.97,284.24L45.65,285.51L45.95,284.24L45.97,288.07L46.43,282.96L46.7,284.24L46.77,282.96L46.77,281.68L47.4,291.9L47.8,290.62L47.81,293.18L47.98,289.34L48.4,291.9L48.97,293.18L48.98,297.01L49.28,294.45L49.85,295.73L50.24,294.45L50.24,295.73L50.95,294.45L50.95,295.73L51.14,293.18L51.27,293.18L52.11,291.9L53.3,289.34L53.87,290.62L53.87,291.9L54.3,288.07L54.46,290.62L54.91,289.34L55.01,288.07L55.33,291.9L56.17,290.62L57.52,285.51L58.03,284.24L59.28,272.74L59.36,275.29L59.45,276.57L59.45,277.85L60.06,275.29L60.23,274.02L60.35,272.74L60.37,274.02L61.96,272.74L63.18,265.08L63.3,266.35L64.21,263.8L64.77,262.52L65.48,251.03L65.51,253.58L66.26,252.3L66.92,254.86L66.93,256.13L66.94,262.52L67.24,262.52L67.95,261.24L69.23,257.41L69.98,256.13L70.24,263.8L71.15,262.52L72.27,275.29L72.42,274.02L72.95,272.74L72.95,271.46L73.35,271.46L73.82,272.74L74.91,268.91L74.92,270.18L75.39,267.63L75.44,268.91L76.31,267.63L77.1,266.35L77.62,265.08L80.98,254.86L80.98,256.13L81.44,259.97L81.58,256.13L81.99,257.41L82.28,258.69L82.35,254.86L82.56,257.41L83.3,258.69L83.63,252.3L83.64,253.58L84.8,252.3L85.01,253.58L85.2,252.3L85.44,251.03L85.47,249.75L86.19,253.58L86.32,252.3L86.47,253.58L87.05,249.75L87.05,251.03L87.2,252.3L87.61,257.41L88.03,256.13L88.37,254.86L88.37,252.3L88.49,256.13L89.47,254.86L89.47,256.13L89.49,253.58L90.18,256.13L90.35,254.86L91.16,257.41L91.5,256.13L92.09,257.41L92.18,258.69L92.5,263.8L93.04,262.52L93.35,271.46L93.65,268.91L94.12,267.63L95.2,263.8L95.34,265.08L95.34,266.35L97.23,258.69L97.24,259.97L99.37,252.3L99.51,253.58L99.51,254.86L100.42,257.41L100.53,258.69L101.4,270.18L101.71,268.91L102.13,271.46L102.13,270.18L102.23,268.91L102.27,271.46L102.7,258.69L102.7,258.69L103.12,257.41L103.45,254.86L103.72,261.24L104.11,259.97L105.13,257.41L105.13,258.69L105.13,259.97L105.26,262.52L105.7,261.24L106.2,259.97L106.56,263.8L106.69,261.24L107.11,259.97L107.13,261.24L107.7,258.69L107.72,259.97L108.31,258.69L108.42,257.41L108.43,258.69L109.12,259.97L109.12,261.24L109.74,259.97L110.31,258.69L110.73,254.86L111.15,253.58L112.54,247.19L112.58,248.47L112.65,249.75L114.75,245.92L115.33,247.19L116.75,243.36L117.23,244.64L117.53,243.36L118.38,274.02L118.48,272.74L119.11,270.18L119.39,271.46L119.81,270.18L119.81,271.46L120.81,270.18L121.22,271.46L121.53,270.18L121.54,268.91L122.24,267.63L122.49,268.91L122.5,271.46L122.72,266.35L123.25,265.08L123.25,266.35L123.68,263.8L123.74,263.8L124.31,262.52L124.31,261.24L124.81,267.63L126.58,266.35L126.8,267.63L126.85,266.35L127.38,265.08L127.83,259.97L128.63,258.69L130.36,253.58L130.74,254.86L131.22,252.3L131.29,253.58L131.29,254.86L131.45,261.24L131.82,258.69L132.36,257.41L132.89,254.86L133.14,256.13L133.75,261.24L134.47,259.97L135.47,254.86L135.86,256.13L136.55,254.86L137.64,253.58L138.8,249.75L139.62,251.03L140.38,249.75L140.45,251.03L140.97,249.75L141.33,248.47L141.34,251.03L141.89,245.92L141.89,245.92L142.34,244.64L142.35,242.08L142.92,243.36L143.28,242.08L143.79,239.53L143.83,238.25L143.9,236.97L143.95,240.81L144.51,239.53L144.53,240.81L144.95,238.25L145.59,239.53L145.99,235.7L146.25,244.64L146.25,245.92L146.25,247.19L146.92,243.36L146.99,243.36L147.39,244.64L147.66,243.36L147.68,245.92L148.88,244.64L149.54,243.36L149.66,245.92L150.49,244.64L150.51,245.92L151.17,242.08L151.23,243.36L151.8,244.64L152.42,243.36L152.43,244.64L152.46,243.36L153.57,242.08L153.58,243.36L153.75,239.53L154.04,239.53L154.55,238.25L155.86,233.14L156.39,234.42L156.39,233.14L157.07,239.53L157.44,238.25L158.65,236.97L158.99,238.25L161.45,231.87L161.59,233.14L162.12,228.03L162.41,226.76L163.74,219.09L164.49,217.82L164.49,219.09L164.89,217.82L165.99,216.54L166.05,215.26L166.52,220.37L166.96,219.09L168.03,216.54L168.03,215.26L168.05,213.98L168.27,222.92L169.56,221.65L169.81,219.09L170.94,217.82L171.68,222.92L172.04,221.65L174.99,211.43L175.05,210.15L175.1,211.43L176.87,210.15L177.12,215.26L177.13,216.54L177.14,220.37L177.56,217.82L179.55,216.54L179.57,219.09L179.73,217.82L180.48,216.54L181.01,211.43L181.01,212.71L181.55,213.98L181.91,215.26L182.83,210.15L182.89,211.43L183.03,212.71L183.88,211.43L183.89,212.71L187.06,207.6L187.16,206.32L187.74,202.49L187.75,203.76L188.18,202.49L188.21,205.04L188.88,203.76L189.06,202.49L189.76,203.76L190.06,202.49L190.81,201.21L191,199.93L191.78,197.38L191.92,196.1L192.1,197.38L192.25,194.82L192.26,196.1L193.08,194.82L194.48,185.88L194.48,188.44L194.75,187.16L195.09,184.61L195.41,185.88L195.94,184.61L196.14,182.05L196.61,184.61L196.89,183.33L197.27,180.77L197.84,179.5L199.03,178.22L199.03,179.5L199.11,178.22L199.14,179.5L200.51,178.22L201.26,179.5L202.01,178.22L202.24,176.94L202.24,178.22L204.13,176.94L204.84,175.66L204.86,176.94L204.86,178.22L205.25,176.94L206.1,178.22L206.1,179.5L206.81,179.5L206.99,178.22L207.98,175.66L208.72,174.39L209.37,170.55L209.75,171.83L211.17,166.72L211.5,168L212.95,166.72L213.18,165.45L214.2,164.17L214.32,165.45L216.88,160.34L217.19,161.61L217.56,157.78L218.31,156.5L218.75,159.06L218.79,157.78L219.07,156.5L219.83,153.95L220.04,155.23L220.08,156.5L220.11,160.34L220.83,157.78L220.85,156.5L221.29,155.23L221.8,162.89L221.82,161.61L222.56,160.34L222.78,161.61L223.26,157.78L223.39,159.06L224.23,175.66L224.24,174.39L224.3,173.11L225.2,189.71L225.8,188.44L225.8,189.71L226.4,184.61L226.4,185.88L226.56,187.16L226.84,188.44L227.01,185.88L227.12,184.61L228.11,179.5L228.41,178.22L228.9,174.39L228.94,173.11L229.05,178.22L229.99,176.94L232.03,174.39L232.05,173.11L232.66,166.72L233.03,165.45L233.49,166.72L235.17,165.45L236.35,162.89L236.43,161.61L237.29,160.34L237.72,161.61L238.46,159.06L240.35,157.78L240.94,155.23L241.02,153.95L241.92,150.12L242.06,151.39L242.24,150.12L243.42,148.84L243.74,145.01L243.76,152.67L243.76,153.95L243.76,155.23L244.32,150.12L244.76,148.84L244.97,150.12L245.95,148.84L246.11,150.12L246.35,148.84L246.95,150.12L247.03,148.84L247.21,153.95L247.65,151.39L247.92,152.67L248.23,151.39L248.25,153.95L248.35,153.95L248.37,155.23L249.4,151.39L249.85,150.12L250.26,147.56L250.38,153.95L250.4,153.95L250.78,152.67L251.1,151.39L251.24,152.67L251.28,153.95L251.36,152.67L251.68,155.23L252,156.5L252.09,153.95L252.13,166.72L252.13,168L252.25,165.45L253.1,187.16L253.27,185.88L253.27,187.16L253.95,185.88L254.17,184.61L255,180.77L255.09,182.05L256.43,173.11L256.57,174.39L256.86,173.11L258.11,169.28L258.12,170.55L258.27,171.83L258.87,168L259.18,166.72L259.38,165.45L260.03,166.72L260.67,160.34L261.14,159.06L261.62,153.95L261.64,155.23L262.18,156.5L263.02,151.39L263.2,150.12L264.49,142.45L264.93,141.18L265.13,139.9L266.19,138.62L267.63,130.96L268.06,129.68L269.07,125.85L269.11,127.13L270.48,120.74L271.16,119.46L273.18,113.08L273.18,114.35L276.22,97.75L276.44,99.03L276.46,101.58L277.4,100.3L277.4,101.58L278.13,97.75L278.77,96.47L279.06,97.75L280.25,96.47L280.55,92.64L283.04,93.92L283.2,123.29L284.13,122.02L285.33,123.29L285.49,122.02L285.49,120.74L285.57,124.57L285.75,122.02L286.37,123.29L289.32,122.02L290.07,120.74L290.63,116.91L290.64,115.63L290.76,118.18L291.3,116.91L291.42,115.63L291.47,116.91L292.42,115.63L293.62,122.02L293.74,120.74L293.96,122.02L294.66,116.91L295.33,115.63L295.37,116.91L295.9,111.8L296.26,113.08L296.56,127.13L297.52,125.85L297.69,127.13L298.22,124.57L298.23,125.85L298.23,127.13L299.25,124.57L299.43,125.85L299.54,123.29L299.99,124.57L300.38,125.85L300.85,127.13L301.37,125.85L302.86,120.74L303.18,119.46L303.51,122.02L303.66,116.91L303.78,118.18L303.84,116.91L304.4,118.18L305.56,116.91L305.58,118.18L306.13,115.63L306.49,114.35L306.81,109.24L307.09,110.52L307.47,111.8L307.48,116.91L307.67,114.35L308.73,113.08L309.46,124.57L309.46,123.29L309.57,122.02L309.6,120.74L309.92,132.24L310.06,132.24L310.16,133.51L310.21,142.45L310.73,141.18L310.93,139.9L311.28,141.18L311.31,139.9L311.61,138.62L312.28,136.07L312.86,134.79L313.58,133.51L313.65,132.24L313.72,130.96L314.55,129.68L314.79,130.96L314.79,129.68L315.43,128.4L315.75,132.24L315.86,128.4L316.33,127.13L316.73,123.29L317.38,122.02L317.58,120.74L318.93,119.46L319.61,115.63L319.67,114.35L320.91,106.69L321.9,105.41L324.66,96.47L325.79,95.19L326.58,92.64L327.41,91.36L327.55,88.81L328.3,90.08L328.83,109.24L328.87,107.97L329.16,109.24L329.44,107.97L329.46,110.52L329.81,109.24L330.46,110.52L330.98,109.24L331.73,110.52L332.87,106.69L333.84,105.41L335.15,104.13L335.49,105.41L335.55,106.69L336.57,105.41L337.1,102.86L337.56,104.13L337.75,102.86L338.18,104.13L338.21,105.41L338.21,106.69L338.9,104.13L339.59,105.41L340.59,141.18L340.88,139.9L341.05,136.07L341.51,141.18L341.66,142.45L343.13,130.96L343.48,129.68L343.61,132.24L344.08,130.96L344.52,129.68L345.52,132.24L345.92,130.96L346.92,129.68L346.93,130.96L347.54,129.68L347.77,128.4L348.12,127.13L348.54,128.4L348.92,127.13L349.52,125.85L349.77,124.57L349.98,122.02L351.11,120.74L351.39,119.46L352.5,118.18L354.12,113.08L354.13,114.35L354.15,115.63L355.13,110.52L355.67,111.8L356.53,106.69L356.53,107.97L357.03,106.69L357.08,107.97L357.71,105.41L357.71,104.13L357.82,101.58L359.15,100.3L360.01,97.75L360.04,96.47L360.88,93.92L361.21,92.64L362.16,97.75L362.55,96.47L362.74,95.19L364.27,92.64L364.49,93.92L365.61,91.36L366.18,90.08L367.75,84.97L368.37,83.7L368.75,82.42L368.96,83.7L369.02,84.97L369.04,83.7L369.93,82.42L371.07,79.87L371.18,78.59L372.18,77.31L372.2,78.59L372.27,96.47L372.93,92.64L373.19,93.92L373.82,91.36L374.07,90.08L374.82,91.36L375.75,90.08L376.38,86.25L376.49,87.53L376.78,86.25L378.08,83.7L378.93,82.42L379.56,79.87L379.56,78.59L379.56,72.2L380.84,70.92L381.89,67.09L383.41,68.37L383.41,70.92L383.83,67.09L383.83,68.37L384.19,67.09L384.69,68.37L385.01,67.09L385.03,65.82L385.28,67.09L386.17,65.82L386.31,64.54L386.31,65.82L387.64,67.09L388.29,65.82L388.35,67.09L388.52,68.37L388.52,69.65L389.14,69.65L389.46,70.92L389.66,84.97L390.65,86.25L391.68,83.7L392.2,82.42L392.33,79.87L392.37,83.7L392.8,84.97L394.02,76.03L394.03,77.31L394.03,76.03L394.06,82.42L394.38,79.87L394.94,78.59L396.26,74.76L397.4,73.48L398.12,69.65L398.84,68.37L399.21,64.54L399.7,67.09L399.95,65.82L400.99,59.43L400.99,60.71L402.44,59.43L403.22,53.04L403.23,54.32L403.23,55.6L404.06,54.32L404.39,55.6L404.43,54.32L404.94,53.04L405.51,50.49L406.16,51.76L407.12,47.93L407.76,46.66L408.39,44.1L408.62,45.38L408.75,46.66L409.07,47.93L409.28,46.66L410.47,47.93L412.88,38.99L413.16,37.71L414.16,36.44L414.9,37.71L416,33.88L416.08,32.61L416.15,33.88L416.32,28.77L416.94,30.05L417.02,27.5L418.18,26.22L418.34,23.66L418.53,26.22L418.79,27.5L419.2,26.22L419.36,27.5L419.39,28.77L419.67,31.33L420.21,30.05L421.26,22.39L421.3,26.22L421.97,24.94L422.05,23.66L422.26,26.22L422.5,26.22L422.67,27.5L423.47,22.39L423.79,23.66L423.93,27.5L424.44,22.39L424.77,21.11L425.35,18.55L425.36,19.83L425.43,21.11L425.98,16L426.08,18.55L426.35,19.83L426.52,17.28L426.66,28.77L426.66,30.05L427.07,36.44L427.36,24.94L427.44,26.22L428.06,33.88L428.09,30.05L428.22,31.33L429.92,22.39L429.97,23.66L430.12,36.44L430.52,31.33L430.81,30.05L430.85,32.61L431.38,30.05L431.97,28.77L432.62,32.61L432.9,31.33L433.14,30.05L433.28,32.61L433.36,31.33L433.95,30.05L434.6,40.27L434.62,38.99L435.01,37.71L435.08,36.44L435.41,40.27L435.68,38.99L436.02,37.71L436.45,33.88L436.62,36.44L437.17,35.16L437.59,31.33L438,32.61L438,33.88L438.57,51.76L438.86,53.04L439.5,49.21L440.35,47.93L440.48,51.76L441.48,53.04L442.59,50.49L442.63,49.21L442.79,50.49L443.17,49.21L443.64,47.93L444.1,45.38L444.22,49.21L444.36,47.93L444.6,46.66L445.25,44.1L445.61,45.38L446.24,51.76L446.47,49.21L446.5,47.93L446.96,51.76L447.21,51.76L447.35,50.49L447.75,41.55L448.13,49.21L448.23,47.93L448.51,44.1L448.63,51.76L448.63,53.04L449.23,44.1L449.35,46.66L449.49,45.38L449.85,41.55L450.07,42.82L450.26,44.1L450.51,41.55L450.68,50.49L450.68,51.76L450.98,69.65L451.4,64.54L451.5,65.82L451.51,67.09L452.27,65.82L452.51,63.26L452.55,72.2L452.57,73.48L452.99,70.92L453.09,72.2L453.5,70.92L453.55,72.2L453.65,69.65L454.27,68.37L454.91,64.54L455.1,63.26L455.85,56.87L456.11,59.43L456.13,60.71L456.29,59.43L456.67,65.82L457.26,64.54L457.38,65.82L457.65,63.26L457.83,64.54L458.17,65.82L458.84,55.6L459.14,54.32L459.16,53.04L459.25,56.87L459.61,54.32L460.1,53.04L460.12,54.32L460.71,44.1L460.74,46.66L461.55,45.38L462.05,41.55L462.61,42.82L462.74,40.27L463.03,46.66L463.41,45.38L463.43,44.1L463.75,42.82L464.02,45.38L464.31,44.1L464.49,46.66L464.86,44.1L465.21,45.38L465.75,38.99L466.1,41.55L466.16,42.82L466.29,41.55L466.32,45.38L466.76,42.82L467.2,41.55L467.21,40.27L467.76,51.76L467.78,49.21L467.92,47.93L469.17,51.76L469.36,50.49L469.62,53.04L470.09,51.76L470.34,50.49L471.35,55.6L471.49,53.04L471.53,51.76L471.64,49.21L472.2,53.04L472.2,53.04L472.55,51.76L472.8,47.93L473.2,51.76L473.23,53.04L473.55,51.76L474.39,72.2L474.67,70.92L474.76,69.65L475.51,67.09L475.53,65.82L476.39,55.6L476.49,56.87L476.56,54.32L476.67,65.82L476.96,64.54L476.96,65.82L477.52,64.54L477.54,65.82L477.81,67.09L478.21,74.76L478.5,72.2L478.65,70.92L478.78,65.82L479.39,67.09L479.41,65.82L479.64,63.26L479.67,68.37L479.83,67.09L480.31,68.37L480.59,69.65L481.24,64.54L481.54,65.82L481.56,69.65L482.25,67.09L482.38,68.37L482.84,65.82L483.56,64.54L483.82,59.43L484.13,64.54L484.44,63.26L485.57,53.04L486.35,54.32L486.88,67.09L487.29,65.82L487.39,68.37L487.74,60.71L487.91,61.98L488.17,60.71L488.64,68.37L489.35,67.09L489.54,65.82L489.87,68.37L489.88,69.65L490.53,67.09L490.78,81.14L490.88,79.87L490.88,77.31L491.44,84.97L491.73,83.7L491.94,84.97L493.42,83.7L494.02,84.97L494.32,83.7L494.78,84.97L494.79,83.7L495.34,82.42L495.35,81.14L495.61,84.97L495.69,83.7L496.32,82.42L496.54,83.7L496.88,82.42L497.27,81.14L497.35,78.59L497.49,82.42L497.79,81.14L498.32,79.87L498.4,78.59L498.83,83.7L498.83,84.97L499.94,81.14L500.34,82.42L500.6,79.87L500.9,81.14L500.91,82.42L500.95,84.97L501.51,84.97L501.69,83.7L502.48,76.03L502.51,78.59L502.52,79.87L502.52,81.14L502.67,78.59L503.53,79.87L503.53,78.59L503.81,78.59L504.99,77.31L505.54,73.48L505.79,76.03L505.89,74.76L506.54,69.65L506.73,68.37L507.39,70.92L507.42,68.37L507.58,67.09L508.41,65.82L508.98,67.09L509,69.65L509.55,69.65L509.84,68.37L509.85,67.09L510.57,69.65L510.76,68.37L510.86,67.09L511.78,65.82L512.41,67.09L512.85,65.82L513.61,60.71L513.85,59.43L513.87,60.71L514.02,59.43L514.75,58.15L515.01,60.71L515.47,59.43L515.58,60.71L516,55.6L516.16,58.15L516.45,59.43L516.71,55.6L518.51,56.87L518.85,53.04L519.49,54.32L519.75,67.09L520.2,63.26L520.33,64.54L520.46,67.09L521.04,65.82L521.45,64.54L521.77,60.71L522.73,59.43L522.86,56.87L523.89,55.6L524.56,53.04L524.67,51.76L524.8,49.21L526.24,50.49L526.66,69.65L526.95,67.09L527.04,65.82L527.1,68.37L527.84,67.09L528.8,63.26L528.8,64.54L529.53,70.92L529.57,69.65L530.01,68.37L530.66,63.26L530.69,64.54L531.14,63.26L533.66,58.15L533.98,56.87L534.63,54.32L535.1,53.04L536.08,50.49L536.13,49.21L536.33,50.49L536.98,49.21L537.65,46.66L539.17,45.38L540,44.1" style="fill: rgb(255, 127, 14); fill-opacity: 0.5; stroke-width: 0;"/></g></g><g class="errorbars"/><g class="lines"><path class="js-line" d="M0,318.72L0,316.17L0.57,317.45L1.86,318.72L1.98,317.45L3.01,318.72L3.85,312.34L3.88,313.61L4.57,312.34L5,307.23L5.18,308.5L5.56,309.78L5.73,305.95L6.02,311.06L6.17,308.5L6.47,309.78L7.16,298.29L7.28,297.01L7.45,295.73L7.72,298.29L7.73,299.56L7.74,300.84L7.91,290.62L8.61,289.34L9,298.29L9.01,299.56L9.75,308.5L9.76,307.23L9.88,305.95L10.17,302.12L10.17,300.84L10.62,298.29L10.65,302.12L11.05,303.39L11.06,302.12L11.63,305.95L11.75,304.67L11.9,303.39L12.88,285.51L12.92,290.62L12.93,291.9L13.05,290.62L13.36,294.45L13.54,291.9L13.78,290.62L14.18,284.24L14.33,288.07L14.75,286.79L14.94,285.51L15.08,288.07L15.78,289.34L15.95,293.18L17.17,291.9L17.78,289.34L17.91,288.07L18.65,282.96L18.65,284.24L18.79,282.96L19.24,284.24L21.81,282.96L21.82,284.24L22.23,280.4L22.23,282.96L23.78,281.68L23.98,282.96L24.13,281.68L24.98,280.4L25.71,277.85L25.82,279.13L26.14,277.85L26.9,286.79L26.97,285.51L27.25,281.68L27.7,284.24L27.72,285.51L27.86,284.24L28.11,285.51L29.3,286.79L30.77,282.96L30.99,284.24L31.03,288.07L31.03,288.07L31.84,286.79L32.32,290.62L32.32,290.62L32.75,289.34L32.95,295.73L33.86,297.01L34.57,294.45L34.58,295.73L34.72,297.01L35.32,294.45L35.62,293.18L36.36,295.73L36.74,294.45L36.74,295.73L36.88,289.34L37.17,290.62L37.88,289.34L38.11,285.51L38.31,293.18L38.82,294.45L38.89,293.18L39.34,297.01L39.39,298.29L39.91,293.18L39.92,294.45L40.22,295.73L41.09,289.34L41.21,293.18L41.56,291.9L41.77,289.34L41.79,291.9L41.93,293.18L43.36,285.51L44.05,284.24L44.35,282.96L44.97,284.24L45.65,285.51L45.95,284.24L45.97,288.07L46.43,282.96L46.7,284.24L46.77,282.96L46.77,281.68L47.4,291.9L47.8,290.62L47.81,293.18L47.98,289.34L48.4,291.9L48.97,293.18L48.98,297.01L49.28,294.45L49.85,295.73L50.24,294.45L50.24,295.73L50.95,294.45L50.95,295.73L51.14,293.18L51.27,293.18L52.11,291.9L53.3,289.34L53.87,290.62L53.87,291.9L54.3,288.07L54.46,290.62L54.91,289.34L55.01,288.07L55.33,291.9L56.17,290.62L57.52,285.51L58.03,284.24L59.28,272.74L59.36,275.29L59.45,276.57L59.45,277.85L60.06,275.29L60.23,274.02L60.35,272.74L60.37,274.02L61.96,272.74L63.18,265.08L63.3,266.35L64.21,263.8L64.77,262.52L65.48,251.03L65.51,253.58L66.26,252.3L66.92,254.86L66.93,256.13L66.94,262.52L67.24,262.52L67.95,261.24L69.23,257.41L69.98,256.13L70.24,263.8L71.15,262.52L72.27,275.29L72.42,274.02L72.95,272.74L72.95,271.46L73.35,271.46L73.82,272.74L74.91,268.91L74.92,270.18L75.39,267.63L75.44,268.91L76.31,267.63L77.1,266.35L77.62,265.08L80.98,254.86L80.98,256.13L81.44,259.97L81.58,256.13L81.99,257.41L82.28,258.69L82.35,254.86L82.56,257.41L83.3,258.69L83.63,252.3L83.64,253.58L84.8,252.3L85.01,253.58L85.2,252.3L85.44,251.03L85.47,249.75L86.19,253.58L86.32,252.3L86.47,253.58L87.05,249.75L87.05,251.03L87.2,252.3L87.61,257.41L88.03,256.13L88.37,254.86L88.37,252.3L88.49,256.13L89.47,254.86L89.47,256.13L89.49,253.58L90.18,256.13L90.35,254.86L91.16,257.41L91.5,256.13L92.09,257.41L92.18,258.69L92.5,263.8L93.04,262.52L93.35,271.46L93.65,268.91L94.12,267.63L95.2,263.8L95.34,265.08L95.34,266.35L97.23,258.69L97.24,259.97L99.37,252.3L99.51,253.58L99.51,254.86L100.42,257.41L100.53,258.69L101.4,270.18L101.71,268.91L102.13,271.46L102.13,270.18L102.23,268.91L102.27,271.46L102.7,258.69L102.7,258.69L103.12,257.41L103.45,254.86L103.72,261.24L104.11,259.97L105.13,257.41L105.13,258.69L105.13,259.97L105.26,262.52L105.7,261.24L106.2,259.97L106.56,263.8L106.69,261.24L107.11,259.97L107.13,261.24L107.7,258.69L107.72,259.97L108.31,258.69L108.42,257.41L108.43,258.69L109.12,259.97L109.12,261.24L109.74,259.97L110.31,258.69L110.73,254.86L111.15,253.58L112.54,247.19L112.58,248.47L112.65,249.75L114.75,245.92L115.33,247.19L116.75,243.36L117.23,244.64L117.53,243.36L118.38,274.02L118.48,272.74L119.11,270.18L119.39,271.46L119.81,270.18L119.81,271.46L120.81,270.18L121.22,271.46L121.53,270.18L121.54,268.91L122.24,267.63L122.49,268.91L122.5,271.46L122.72,266.35L123.25,265.08L123.25,266.35L123.68,263.8L123.74,263.8L124.31,262.52L124.31,261.24L124.81,267.63L126.58,266.35L126.8,267.63L126.85,266.35L127.38,265.08L127.83,259.97L128.63,258.69L130.36,253.58L130.74,254.86L131.22,252.3L131.29,253.58L131.29,254.86L131.45,261.24L131.82,258.69L132.36,257.41L132.89,254.86L133.14,256.13L133.75,261.24L134.47,259.97L135.47,254.86L135.86,256.13L136.55,254.86L137.64,253.58L138.8,249.75L139.62,251.03L140.38,249.75L140.45,251.03L140.97,249.75L141.33,248.47L141.34,251.03L141.89,245.92L141.89,245.92L142.34,244.64L142.35,242.08L142.92,243.36L143.28,242.08L143.79,239.53L143.83,238.25L143.9,236.97L143.95,240.81L144.51,239.53L144.53,240.81L144.95,238.25L145.59,239.53L145.99,235.7L146.25,244.64L146.25,245.92L146.25,247.19L146.92,243.36L146.99,243.36L147.39,244.64L147.66,243.36L147.68,245.92L148.88,244.64L149.54,243.36L149.66,245.92L150.49,244.64L150.51,245.92L151.17,242.08L151.23,243.36L151.8,244.64L152.42,243.36L152.43,244.64L152.46,243.36L153.57,242.08L153.58,243.36L153.75,239.53L154.04,239.53L154.55,238.25L155.86,233.14L156.39,234.42L156.39,233.14L157.07,239.53L157.44,238.25L158.65,236.97L158.99,238.25L161.45,231.87L161.59,233.14L162.12,228.03L162.41,226.76L163.74,219.09L164.49,217.82L164.49,219.09L164.89,217.82L165.99,216.54L166.05,215.26L166.52,220.37L166.96,219.09L168.03,216.54L168.03,215.26L168.05,213.98L168.27,222.92L169.56,221.65L169.81,219.09L170.94,217.82L171.68,222.92L172.04,221.65L174.99,211.43L175.05,210.15L175.1,211.43L176.87,210.15L177.12,215.26L177.13,216.54L177.14,220.37L177.56,217.82L179.55,216.54L179.57,219.09L179.73,217.82L180.48,216.54L181.01,211.43L181.01,212.71L181.55,213.98L181.91,215.26L182.83,210.15L182.89,211.43L183.03,212.71L183.88,211.43L183.89,212.71L187.06,207.6L187.16,206.32L187.74,202.49L187.75,203.76L188.18,202.49L188.21,205.04L188.88,203.76L189.06,202.49L189.76,203.76L190.06,202.49L190.81,201.21L191,199.93L191.78,197.38L191.92,196.1L192.1,197.38L192.25,194.82L192.26,196.1L193.08,194.82L194.48,185.88L194.48,188.44L194.75,187.16L195.09,184.61L195.41,185.88L195.94,184.61L196.14,182.05L196.61,184.61L196.89,183.33L197.27,180.77L197.84,179.5L199.03,178.22L199.03,179.5L199.11,178.22L199.14,179.5L200.51,178.22L201.26,179.5L202.01,178.22L202.24,176.94L202.24,178.22L204.13,176.94L204.84,175.66L204.86,176.94L204.86,178.22L205.25,176.94L206.1,178.22L206.1,179.5L206.81,179.5L206.99,178.22L207.98,175.66L208.72,174.39L209.37,170.55L209.75,171.83L211.17,166.72L211.5,168L212.95,166.72L213.18,165.45L214.2,164.17L214.32,165.45L216.88,160.34L217.19,161.61L217.56,157.78L218.31,156.5L218.75,159.06L218.79,157.78L219.07,156.5L219.83,153.95L220.04,155.23L220.08,156.5L220.11,160.34L220.83,157.78L220.85,156.5L221.29,155.23L221.8,162.89L221.82,161.61L222.56,160.34L222.78,161.61L223.26,157.78L223.39,159.06L224.23,175.66L224.24,174.39L224.3,173.11L225.2,189.71L225.8,188.44L225.8,189.71L226.4,184.61L226.4,185.88L226.56,187.16L226.84,188.44L227.01,185.88L227.12,184.61L228.11,179.5L228.41,178.22L228.9,174.39L228.94,173.11L229.05,178.22L229.99,176.94L232.03,174.39L232.05,173.11L232.66,166.72L233.03,165.45L233.49,166.72L235.17,165.45L236.35,162.89L236.43,161.61L237.29,160.34L237.72,161.61L238.46,159.06L240.35,157.78L240.94,155.23L241.02,153.95L241.92,150.12L242.06,151.39L242.24,150.12L243.42,148.84L243.74,145.01L243.76,152.67L243.76,153.95L243.76,155.23L244.32,150.12L244.76,148.84L244.97,150.12L245.95,148.84L246.11,150.12L246.35,148.84L246.95,150.12L247.03,148.84L247.21,153.95L247.65,151.39L247.92,152.67L248.23,151.39L248.25,153.95L248.35,153.95L248.37,155.23L249.4,151.39L249.85,150.12L250.26,147.56L250.38,153.95L250.4,153.95L250.78,152.67L251.1,151.39L251.24,152.67L251.28,153.95L251.36,152.67L251.68,155.23L252,156.5L252.09,153.95L252.13,166.72L252.13,168L252.25,165.45L253.1,187.16L253.27,185.88L253.27,187.16L253.95,185.88L254.17,184.61L255,180.77L255.09,182.05L256.43,173.11L256.57,174.39L256.86,173.11L258.11,169.28L258.12,170.55L258.27,171.83L258.87,168L259.18,166.72L259.38,165.45L260.03,166.72L260.67,160.34L261.14,159.06L261.62,153.95L261.64,155.23L262.18,156.5L263.02,151.39L263.2,150.12L264.49,142.45L264.93,141.18L265.13,139.9L266.19,138.62L267.63,130.96L268.06,129.68L269.07,125.85L269.11,127.13L270.48,120.74L271.16,119.46L273.18,113.08L273.18,114.35L276.22,97.75L276.44,99.03L276.46,101.58L277.4,100.3L277.4,101.58L278.13,97.75L278.77,96.47L279.06,97.75L280.25,96.47L280.55,92.64L283.04,93.92L283.2,123.29L284.13,122.02L285.33,123.29L285.49,122.02L285.49,120.74L285.57,124.57L285.75,122.02L286.37,123.29L289.32,122.02L290.07,120.74L290.63,116.91L290.64,115.63L290.76,118.18L291.3,116.91L291.42,115.63L291.47,116.91L292.42,115.63L293.62,122.02L293.74,120.74L293.96,122.02L294.66,116.91L295.33,115.63L295.37,116.91L295.9,111.8L296.26,113.08L296.56,127.13L297.52,125.85L297.69,127.13L298.22,124.57L298.23,125.85L298.23,127.13L299.25,124.57L299.43,125.85L299.54,123.29L299.99,124.57L300.38,125.85L300.85,127.13L301.37,125.85L302.86,120.74L303.18,119.46L303.51,122.02L303.66,116.91L303.78,118.18L303.84,116.91L304.4,118.18L305.56,116.91L305.58,118.18L306.13,115.63L306.49,114.35L306.81,109.24L307.09,110.52L307.47,111.8L307.48,116.91L307.67,114.35L308.73,113.08L309.46,124.57L309.46,123.29L309.57,122.02L309.6,120.74L309.92,132.24L310.06,132.24L310.16,133.51L310.21,142.45L310.73,141.18L310.93,139.9L311.28,141.18L311.31,139.9L311.61,138.62L312.28,136.07L312.86,134.79L313.58,133.51L313.65,132.24L313.72,130.96L314.55,129.68L314.79,130.96L314.79,129.68L315.43,128.4L315.75,132.24L315.86,128.4L316.33,127.13L316.73,123.29L317.38,122.02L317.58,120.74L318.93,119.46L319.61,115.63L319.67,114.35L320.91,106.69L321.9,105.41L324.66,96.47L325.79,95.19L326.58,92.64L327.41,91.36L327.55,88.81L328.3,90.08L328.83,109.24L328.87,107.97L329.16,109.24L329.44,107.97L329.46,110.52L329.81,109.24L330.46,110.52L330.98,109.24L331.73,110.52L332.87,106.69L333.84,105.41L335.15,104.13L335.49,105.41L335.55,106.69L336.57,105.41L337.1,102.86L337.56,104.13L337.75,102.86L338.18,104.13L338.21,105.41L338.21,106.69L338.9,104.13L339.59,105.41L340.59,141.18L340.88,139.9L341.05,136.07L341.51,141.18L341.66,142.45L343.13,130.96L343.48,129.68L343.61,132.24L344.08,130.96L344.52,129.68L345.52,132.24L345.92,130.96L346.92,129.68L346.93,130.96L347.54,129.68L347.77,128.4L348.12,127.13L348.54,128.4L348.92,127.13L349.52,125.85L349.77,124.57L349.98,122.02L351.11,120.74L351.39,119.46L352.5,118.18L354.12,113.08L354.13,114.35L354.15,115.63L355.13,110.52L355.67,111.8L356.53,106.69L356.53,107.97L357.03,106.69L357.08,107.97L357.71,105.41L357.71,104.13L357.82,101.58L359.15,100.3L360.01,97.75L360.04,96.47L360.88,93.92L361.21,92.64L362.16,97.75L362.55,96.47L362.74,95.19L364.27,92.64L364.49,93.92L365.61,91.36L366.18,90.08L367.75,84.97L368.37,83.7L368.75,82.42L368.96,83.7L369.02,84.97L369.04,83.7L369.93,82.42L371.07,79.87L371.18,78.59L372.18,77.31L372.2,78.59L372.27,96.47L372.93,92.64L373.19,93.92L373.82,91.36L374.07,90.08L374.82,91.36L375.75,90.08L376.38,86.25L376.49,87.53L376.78,86.25L378.08,83.7L378.93,82.42L379.56,79.87L379.56,78.59L379.56,72.2L380.84,70.92L381.89,67.09L383.41,68.37L383.41,70.92L383.83,67.09L383.83,68.37L384.19,67.09L384.69,68.37L385.01,67.09L385.03,65.82L385.28,67.09L386.17,65.82L386.31,64.54L386.31,65.82L387.64,67.09L388.29,65.82L388.35,67.09L388.52,68.37L388.52,69.65L389.14,69.65L389.46,70.92L389.66,84.97L390.65,86.25L391.68,83.7L392.2,82.42L392.33,79.87L392.37,83.7L392.8,84.97L394.02,76.03L394.03,77.31L394.03,76.03L394.06,82.42L394.38,79.87L394.94,78.59L396.26,74.76L397.4,73.48L398.12,69.65L398.84,68.37L399.21,64.54L399.7,67.09L399.95,65.82L400.99,59.43L400.99,60.71L402.44,59.43L403.22,53.04L403.23,54.32L403.23,55.6L404.06,54.32L404.39,55.6L404.43,54.32L404.94,53.04L405.51,50.49L406.16,51.76L407.12,47.93L407.76,46.66L408.39,44.1L408.62,45.38L408.75,46.66L409.07,47.93L409.28,46.66L410.47,47.93L412.88,38.99L413.16,37.71L414.16,36.44L414.9,37.71L416,33.88L416.08,32.61L416.15,33.88L416.32,28.77L416.94,30.05L417.02,27.5L418.18,26.22L418.34,23.66L418.53,26.22L418.79,27.5L419.2,26.22L419.36,27.5L419.39,28.77L419.67,31.33L420.21,30.05L421.26,22.39L421.3,26.22L421.97,24.94L422.05,23.66L422.26,26.22L422.5,26.22L422.67,27.5L423.47,22.39L423.79,23.66L423.93,27.5L424.44,22.39L424.77,21.11L425.35,18.55L425.36,19.83L425.43,21.11L425.98,16L426.08,18.55L426.35,19.83L426.52,17.28L426.66,28.77L426.66,30.05L427.07,36.44L427.36,24.94L427.44,26.22L428.06,33.88L428.09,30.05L428.22,31.33L429.92,22.39L429.97,23.66L430.12,36.44L430.52,31.33L430.81,30.05L430.85,32.61L431.38,30.05L431.97,28.77L432.62,32.61L432.9,31.33L433.14,30.05L433.28,32.61L433.36,31.33L433.95,30.05L434.6,40.27L434.62,38.99L435.01,37.71L435.08,36.44L435.41,40.27L435.68,38.99L436.02,37.71L436.45,33.88L436.62,36.44L437.17,35.16L437.59,31.33L438,32.61L438,33.88L438.57,51.76L438.86,53.04L439.5,49.21L440.35,47.93L440.48,51.76L441.48,53.04L442.59,50.49L442.63,49.21L442.79,50.49L443.17,49.21L443.64,47.93L444.1,45.38L444.22,49.21L444.36,47.93L444.6,46.66L445.25,44.1L445.61,45.38L446.24,51.76L446.47,49.21L446.5,47.93L446.96,51.76L447.21,51.76L447.35,50.49L447.75,41.55L448.13,49.21L448.23,47.93L448.51,44.1L448.63,51.76L448.63,53.04L449.23,44.1L449.35,46.66L449.49,45.38L449.85,41.55L450.07,42.82L450.26,44.1L450.51,41.55L450.68,50.49L450.68,51.76L450.98,69.65L451.4,64.54L451.5,65.82L451.51,67.09L452.27,65.82L452.51,63.26L452.55,72.2L452.57,73.48L452.99,70.92L453.09,72.2L453.5,70.92L453.55,72.2L453.65,69.65L454.27,68.37L454.91,64.54L455.1,63.26L455.85,56.87L456.11,59.43L456.13,60.71L456.29,59.43L456.67,65.82L457.26,64.54L457.38,65.82L457.65,63.26L457.83,64.54L458.17,65.82L458.84,55.6L459.14,54.32L459.16,53.04L459.25,56.87L459.61,54.32L460.1,53.04L460.12,54.32L460.71,44.1L460.74,46.66L461.55,45.38L462.05,41.55L462.61,42.82L462.74,40.27L463.03,46.66L463.41,45.38L463.43,44.1L463.75,42.82L464.02,45.38L464.31,44.1L464.49,46.66L464.86,44.1L465.21,45.38L465.75,38.99L466.1,41.55L466.16,42.82L466.29,41.55L466.32,45.38L466.76,42.82L467.2,41.55L467.21,40.27L467.76,51.76L467.78,49.21L467.92,47.93L469.17,51.76L469.36,50.49L469.62,53.04L470.09,51.76L470.34,50.49L471.35,55.6L471.49,53.04L471.53,51.76L471.64,49.21L472.2,53.04L472.2,53.04L472.55,51.76L472.8,47.93L473.2,51.76L473.23,53.04L473.55,51.76L474.39,72.2L474.67,70.92L474.76,69.65L475.51,67.09L475.53,65.82L476.39,55.6L476.49,56.87L476.56,54.32L476.67,65.82L476.96,64.54L476.96,65.82L477.52,64.54L477.54,65.82L477.81,67.09L478.21,74.76L478.5,72.2L478.65,70.92L478.78,65.82L479.39,67.09L479.41,65.82L479.64,63.26L479.67,68.37L479.83,67.09L480.31,68.37L480.59,69.65L481.24,64.54L481.54,65.82L481.56,69.65L482.25,67.09L482.38,68.37L482.84,65.82L483.56,64.54L483.82,59.43L484.13,64.54L484.44,63.26L485.57,53.04L486.35,54.32L486.88,67.09L487.29,65.82L487.39,68.37L487.74,60.71L487.91,61.98L488.17,60.71L488.64,68.37L489.35,67.09L489.54,65.82L489.87,68.37L489.88,69.65L490.53,67.09L490.78,81.14L490.88,79.87L490.88,77.31L491.44,84.97L491.73,83.7L491.94,84.97L493.42,83.7L494.02,84.97L494.32,83.7L494.78,84.97L494.79,83.7L495.34,82.42L495.35,81.14L495.61,84.97L495.69,83.7L496.32,82.42L496.54,83.7L496.88,82.42L497.27,81.14L497.35,78.59L497.49,82.42L497.79,81.14L498.32,79.87L498.4,78.59L498.83,83.7L498.83,84.97L499.94,81.14L500.34,82.42L500.6,79.87L500.9,81.14L500.91,82.42L500.95,84.97L501.51,84.97L501.69,83.7L502.48,76.03L502.51,78.59L502.52,79.87L502.52,81.14L502.67,78.59L503.53,79.87L503.53,78.59L503.81,78.59L504.99,77.31L505.54,73.48L505.79,76.03L505.89,74.76L506.54,69.65L506.73,68.37L507.39,70.92L507.42,68.37L507.58,67.09L508.41,65.82L508.98,67.09L509,69.65L509.55,69.65L509.84,68.37L509.85,67.09L510.57,69.65L510.76,68.37L510.86,67.09L511.78,65.82L512.41,67.09L512.85,65.82L513.61,60.71L513.85,59.43L513.87,60.71L514.02,59.43L514.75,58.15L515.01,60.71L515.47,59.43L515.58,60.71L516,55.6L516.16,58.15L516.45,59.43L516.71,55.6L518.51,56.87L518.85,53.04L519.49,54.32L519.75,67.09L520.2,63.26L520.33,64.54L520.46,67.09L521.04,65.82L521.45,64.54L521.77,60.71L522.73,59.43L522.86,56.87L523.89,55.6L524.56,53.04L524.67,51.76L524.8,49.21L526.24,50.49L526.66,69.65L526.95,67.09L527.04,65.82L527.1,68.37L527.84,67.09L528.8,63.26L528.8,64.54L529.53,70.92L529.57,69.65L530.01,68.37L530.66,63.26L530.69,64.54L531.14,63.26L533.66,58.15L533.98,56.87L534.63,54.32L535.1,53.04L536.08,50.49L536.13,49.21L536.33,50.49L536.98,49.21L537.65,46.66L539.17,45.38L540,44.1" style="vector-effect: none; fill: none; stroke: rgb(255, 127, 14); stroke-opacity: 1; stroke-width: 2px; opacity: 1;"/></g><g class="points"/><g class="text"/></g></g></g></g><g class="zerolinelayer-above"/><path class="xlines-above crisp" d="M0,0" style="fill: none;"/><path class="ylines-above crisp" d="M0,0" style="fill: none;"/><g class="overlines-above"/><g class="xaxislayer-above"><g class="xtick"><text text-anchor="middle" x="0" y="439" transform="translate(101.16,0)" style="font-family: 'Open Sans'; font-size: 18px; fill: rgb(0, 0, 0); fill-opacity: 1; white-space: pre;">2016</text></g><g class="xtick"><text text-anchor="middle" x="0" y="439" style="font-family: 'Open Sans'; font-size: 18px; fill: rgb(0, 0, 0); fill-opacity: 1; white-space: pre;" transform="translate(206.18,0)">2018</text></g><g class="xtick"><text text-anchor="middle" x="0" y="439" style="font-family: 'Open Sans'; font-size: 18px; fill: rgb(0, 0, 0); fill-opacity: 1; white-space: pre;" transform="translate(311.06,0)">2020</text></g><g class="xtick"><text text-anchor="middle" x="0" y="439" style="font-family: 'Open Sans'; font-size: 18px; fill: rgb(0, 0, 0); fill-opacity: 1; white-space: pre;" transform="translate(416.08,0)">2022</text></g><g class="xtick"><text text-anchor="middle" x="0" y="439" style="font-family: 'Open Sans'; font-size: 18px; fill: rgb(0, 0, 0); fill-opacity: 1; white-space: pre;" transform="translate(520.95,0)">2024</text></g></g><g class="yaxislayer-above"><g class="ytick"><text text-anchor="end" x="79" y="6.3" transform="translate(0,420)" style="font-family: 'Open Sans'; font-size: 18px; fill: rgb(0, 0, 0); fill-opacity: 1; white-space: pre;">0</text></g><g class="ytick"><text text-anchor="end" x="79" y="6.3" style="font-family: 'Open Sans'; font-size: 18px; fill: rgb(0, 0, 0); fill-opacity: 1; white-space: pre;" transform="translate(0,356.13)">50</text></g><g class="ytick"><text text-anchor="end" x="79" y="6.3" style="font-family: 'Open Sans'; font-size: 18px; fill: rgb(0, 0, 0); fill-opacity: 1; white-space: pre;" transform="translate(0,292.27)">100</text></g><g class="ytick"><text text-anchor="end" x="79" y="6.3" style="font-family: 'Open Sans'; font-size: 18px; fill: rgb(0, 0, 0); fill-opacity: 1; white-space: pre;" transform="translate(0,228.4)">150</text></g><g class="ytick"><text text-anchor="end" x="79" y="6.3" style="font-family: 'Open Sans'; font-size: 18px; fill: rgb(0, 0, 0); fill-opacity: 1; white-space: pre;" transform="translate(0,164.54000000000002)">200</text></g><g class="ytick"><text text-anchor="end" x="79" y="6.3" style="font-family: 'Open Sans'; font-size: 18px; fill: rgb(0, 0, 0); fill-opacity: 1; white-space: pre;" transform="translate(0,100.67)">250</text></g></g><g class="overaxes-above"/></g></g><g class="polarlayer"/><g class="smithlayer"/><g class="ternarylayer"/><g class="geolayer"/><g class="funnelarealayer"/><g class="pielayer"/><g class="iciclelayer"/><g class="treemaplayer"/><g class="sunburstlayer"/><g class="glimages"/><defs id="topdefs-772649"><g class="clips"/></defs><g class="layer-above"><g class="imagelayer"/><g class="shapelayer"/></g><g class="infolayer"><g class="g-gtitle"><text class="gtitle" x="35" y="50" text-anchor="start" dy="0em" style="opacity: 1; font-family: 'Open Sans'; font-size: 25px; fill: rgb(0, 0, 0); fill-opacity: 1; white-space: pre;">MultiQC/MultiQC - Open Issues Over Time</text></g><g class="g-xtitle"><text class="xtitle" x="350" y="472.9" text-anchor="middle" style="opacity: 1; font-family: 'Open Sans'; font-size: 22px; fill: rgb(0, 0, 0); fill-opacity: 1; white-space: pre;">Date</text></g><g class="g-ytitle"><text class="ytitle" transform="rotate(-90,29.799999999999997,260)" x="29.799999999999997" y="260" text-anchor="middle" style="opacity: 1; font-family: 'Open Sans'; font-size: 22px; fill: rgb(0, 0, 0); fill-opacity: 1; white-space: pre;">Number of Open Issues</text></g></g></svg>