<svg class="main-svg" xmlns="http://www.w3.org/2000/svg" xmlns:xlink="http://www.w3.org/1999/xlink" width="700" height="500" style="" viewBox="0 0 700 500"><rect x="0" y="0" width="700" height="500" style="fill: rgb(0, 0, 0); fill-opacity: 0;"/><defs id="defs-908058"><g class="clips"><clipPath id="clip908058xyplot" class="plotclip"><rect width="540" height="320"/></clipPath><clipPath class="axesclip" id="clip908058x"><rect x="80" y="0" width="540" height="500"/></clipPath><clipPath class="axesclip" id="clip908058y"><rect x="0" y="100" width="700" height="320"/></clipPath><clipPath class="axesclip" id="clip908058xy"><rect x="80" y="100" width="540" height="320"/></clipPath></g><g class="gradients"/><g class="patterns"/></defs><g class="bglayer"><rect class="bg" x="80" y="100" width="540" height="320" style="fill: rgb(0, 0, 0); fill-opacity: 0; stroke-width: 0;"/></g><g class="layer-below"><g class="imagelayer"/><g class="shapelayer"/></g><g class="cartesianlayer"><g class="subplot xy"><g class="layer-subplot"><g class="shapelayer"/><g class="imagelayer"/></g><g class="minor-gridlayer"><g class="x"/><g class="y"/></g><g class="gridlayer"><g class="x"><path class="xgrid crisp" transform="translate(101.26,0)" d="M0,100v320" style="stroke: rgb(255, 255, 255); stroke-opacity: 1; stroke-width: 1px;"/><path class="xgrid crisp" transform="translate(206.73000000000002,0)" d="M0,100v320" style="stroke: rgb(255, 255, 255); stroke-opacity: 1; stroke-width: 1px;"/><path class="xgrid crisp" transform="translate(312.07,0)" d="M0,100v320" style="stroke: rgb(255, 255, 255); stroke-opacity: 1; stroke-width: 1px;"/><path class="xgrid crisp" transform="translate(417.54,0)" d="M0,100v320" style="stroke: rgb(255, 255, 255); stroke-opacity: 1; stroke-width: 1px;"/><path class="xgrid crisp" transform="translate(522.88,0)" d="M0,100v320" style="stroke: rgb(255, 255, 255); stroke-opacity: 1; stroke-width: 1px;"/></g><g class="y"><path class="ygrid crisp" transform="translate(0,356.13)" d="M80,0h540" style="stroke: rgb(255, 255, 255); stroke-opacity: 1; stroke-width: 1px;"/><path class="ygrid crisp" transform="translate(0,292.27)" d="M80,0h540" style="stroke: rgb(255, 255, 255); stroke-opacity: 1; stroke-width: 1px;"/><path class="ygrid crisp" transform="translate(0,228.4)" d="M80,0h540" style="stroke: rgb(255, 255, 255); stroke-opacity: 1; stroke-width: 1px;"/><path class="ygrid crisp" transform="translate(0,164.54000000000002)" d="M80,0h540" style="stroke: rgb(255, 255, 255); stroke-opacity: 1; stroke-width: 1px;"/></g></g><g class="zerolinelayer"><path class="yzl zl crisp" transform="translate(0,420)" d="M80,0h540" style="stroke: rgb(255, 255, 255); stroke-opacity: 1; stroke-width: 2px;"/></g><g class="layer-between"><g class="shapelayer"/><g class="imagelayer"/></g><path class="xlines-below"/><path class="ylines-below"/><g class="overlines-below"/><g class="xaxislayer-below"/><g class="yaxislayer-below"/><g class="overaxes-below"/><g class="overplot"><g class="xy" transform="translate(80,100)" clip-path="url(#clip908058xyplot)"><g class="scatterlayer mlayer"><g class="trace scatter traceac3dee" style="stroke-miterlimit: 2;"><g class="fills"><g><path class="js-fill" d="M540,320L0,320L0,318.72L0,316.17L0.57,317.45L1.87,318.72L1.99,317.45L3.02,318.72L3.87,312.34L3.9,313.61L4.59,312.34L5.03,307.23L5.2,308.5L5.58,309.78L5.75,305.95L6.05,311.06L6.19,308.5L6.5,309.78L7.19,298.29L7.31,297.01L7.49,295.73L7.76,298.29L7.76,299.56L7.77,300.84L7.94,290.62L8.65,289.34L9.04,298.29L9.04,299.56L9.79,308.5L9.79,307.23L9.8,308.5L10.25,299.56L10.63,300.84L10.67,298.29L11.09,303.39L11.22,303.39L11.68,304.67L11.68,305.95L12.22,295.73L12.25,297.01L12.7,295.73L12.83,288.07L12.83,286.79L12.94,285.51L12.98,293.18L13.1,290.62L13.4,291.9L13.42,294.45L14.13,286.79L14.25,285.51L14.25,284.24L14.29,288.07L14.97,286.79L15.01,285.51L16.02,293.18L17.24,291.9L17.86,289.34L17.99,288.07L18.73,282.96L18.74,284.24L18.87,282.96L19.32,284.24L21.91,282.96L21.91,284.24L22.33,280.4L22.33,282.96L23.89,281.68L24.08,282.96L24.24,281.68L25.09,280.4L25.83,277.85L25.94,279.13L26.26,277.85L27.01,285.51L27.02,286.79L27.37,281.68L27.38,282.96L27.82,284.24L28.24,285.51L29.43,286.79L30.9,282.96L31.13,284.24L31.17,288.07L31.17,288.07L31.98,286.79L32.47,290.62L32.89,289.34L33.09,295.73L34.01,297.01L34.73,294.45L34.73,295.73L34.87,297.01L35.48,294.45L35.77,293.18L36.52,295.73L36.9,294.45L36.9,295.73L37.04,289.34L37.33,290.62L38.04,289.34L38.28,285.51L38.47,293.18L38.99,294.45L39.06,293.18L39.51,297.01L39.57,298.29L39.8,293.18L40.09,294.45L40.4,295.73L41.27,289.34L41.39,293.18L41.74,291.9L41.96,289.34L41.98,291.9L42.12,293.18L43.55,285.51L44.25,284.24L44.55,282.96L45.17,284.24L45.85,285.51L46.15,284.24L46.17,288.07L46.63,282.96L46.9,284.24L46.97,281.68L47.3,288.07L47.45,289.34L48.04,293.18L48.18,290.62L48.19,289.34L48.3,293.18L48.62,291.9L49.19,293.18L49.19,297.01L49.49,294.45L50.07,295.73L50.46,294.45L50.46,295.73L51.17,294.45L51.18,295.73L51.37,293.18L51.49,293.18L52.34,291.9L53.54,289.34L54.1,290.62L54.1,291.9L54.54,288.07L54.7,290.62L55.15,289.34L55.26,288.07L55.57,291.9L56.42,290.62L57.77,285.51L58.28,284.24L59.54,272.74L59.62,275.29L59.71,276.57L59.71,277.85L60.32,275.29L60.49,274.02L60.62,272.74L60.63,274.02L62.23,272.74L62.76,266.35L63.29,267.63L63.78,265.08L63.89,266.35L64.36,265.08L65.77,251.03L65.8,253.58L66.55,252.3L67.22,254.86L67.22,256.13L67.23,262.52L67.54,262.52L68.25,261.24L69.53,257.41L70.29,256.13L70.54,263.8L71.46,262.52L72.59,275.29L72.73,274.02L73.27,272.74L73.27,271.46L73.68,271.46L74.14,272.74L75.24,268.91L75.25,270.18L75.72,267.63L75.77,268.91L76.64,267.63L77.44,266.35L77.96,265.08L81.34,254.86L81.34,256.13L81.8,259.97L81.94,256.13L82.35,257.41L82.64,258.69L82.71,254.86L82.92,257.41L83.66,258.69L84,252.3L84.01,253.58L85.17,252.3L85.38,253.58L85.58,252.3L85.82,251.03L85.84,249.75L86.57,253.58L86.7,252.3L86.84,253.58L87.43,249.75L87.43,251.03L87.58,252.3L87.99,257.41L88.41,256.13L88.76,254.86L88.76,252.3L88.87,256.13L89.86,254.86L89.86,256.13L89.89,253.58L90.57,256.13L90.74,254.86L91.56,257.41L91.9,256.13L92.49,257.41L92.58,258.69L92.9,263.8L93.45,262.52L93.76,271.46L94.06,268.91L94.53,267.63L95.61,263.8L95.75,265.08L95.76,266.35L97.65,258.69L97.67,259.97L99.81,252.3L99.95,253.58L99.95,254.86L100.86,257.41L100.97,258.69L101.84,270.18L102.16,268.91L102.57,271.46L102.57,270.18L102.67,268.91L102.71,271.46L103.14,258.69L103.15,258.69L103.57,257.41L103.9,254.86L104.17,261.24L104.57,259.97L105.59,257.41L105.59,258.69L105.59,259.97L105.72,262.52L106.17,261.24L106.66,259.97L107.02,263.8L107.16,261.24L107.57,259.97L107.6,261.24L108.17,258.69L108.19,259.97L108.79,258.69L108.9,257.41L108.9,258.69L109.6,259.97L109.6,261.24L110.22,259.97L110.79,258.69L111.21,254.86L111.64,253.58L113.03,247.19L113.07,248.47L113.14,249.75L115.26,245.92L115.83,247.19L117.26,243.36L117.74,244.64L118.04,243.36L118.89,274.02L119,272.74L119.63,270.18L119.91,271.46L120.33,270.18L120.33,271.46L121.34,270.18L121.75,271.46L122.06,270.18L122.07,268.91L122.77,267.63L123.02,268.91L123.03,271.46L123.26,266.35L123.79,265.08L123.79,266.35L124.22,263.8L124.28,263.8L124.86,262.52L124.86,261.24L125.35,267.63L127.13,266.35L127.35,267.63L127.41,266.35L127.94,265.08L128.39,259.97L129.19,258.69L130.93,253.58L131.31,254.86L131.79,252.3L131.87,253.58L131.87,254.86L132.02,261.24L132.4,258.69L132.94,257.41L133.47,254.86L133.72,256.13L134.33,261.24L135.06,259.97L136.06,254.86L136.45,256.13L137.15,254.86L138.24,253.58L139.41,249.75L140.23,251.03L140.99,249.75L141.06,251.03L141.59,249.75L141.95,248.47L141.96,251.03L142.51,245.92L142.51,245.92L142.96,244.64L142.97,242.08L143.55,243.36L143.91,242.08L144.42,239.53L144.46,238.25L144.53,236.97L144.58,240.81L145.14,239.53L145.16,240.81L145.58,238.25L146.23,239.53L146.63,235.7L146.89,247.19L147.46,245.92L148.22,243.36L148.3,244.64L148.3,243.36L148.33,245.92L149.53,244.64L150.2,243.36L150.31,245.92L151.15,244.64L151.16,245.92L151.83,242.08L151.89,243.36L152.46,244.64L154.24,242.08L154.25,243.36L155.38,236.97L156.28,235.7L156.54,233.14L157.07,234.42L157.07,233.14L157.75,239.53L158.13,238.25L159.35,236.97L159.69,238.25L162.15,231.87L162.3,233.14L162.83,228.03L163.12,226.76L164.46,219.09L165.21,217.82L165.21,219.09L165.61,217.82L166.72,216.54L166.78,215.26L167.24,220.37L167.69,219.09L168.76,216.54L168.77,215.26L168.79,213.98L169,222.92L170.31,221.65L170.56,219.09L171.68,217.82L172.43,222.92L172.79,221.65L175.75,211.43L175.82,210.15L175.87,211.43L177.65,210.15L177.9,215.26L177.91,216.54L177.92,220.37L178.33,217.82L180.33,216.54L180.36,219.09L180.51,217.82L181.27,216.54L181.8,211.43L181.8,212.71L182.34,213.98L182.71,215.26L183.63,210.15L183.69,211.43L183.83,212.71L184.69,211.43L184.69,212.71L187.88,207.6L187.98,206.32L188.56,202.49L188.57,203.76L189,202.49L189.03,205.04L189.71,203.76L189.89,202.49L190.59,203.76L190.89,202.49L191.65,201.21L191.84,199.93L192.61,197.38L192.76,196.1L192.94,197.38L193.09,194.82L193.1,196.1L193.92,194.82L195.33,185.88L195.33,188.44L195.6,187.16L195.94,184.61L196.26,185.88L196.8,184.61L197,182.05L197.47,184.61L197.75,183.33L198.13,180.77L198.71,179.5L199.9,178.22L199.9,179.5L199.98,178.22L200.01,179.5L201.39,178.22L202.14,179.5L202.89,178.22L203.12,176.94L203.13,178.22L205.02,176.94L205.74,175.66L205.75,176.94L205.75,178.22L206.15,176.94L207,178.22L207,179.5L207.71,179.5L207.89,178.22L208.89,175.66L209.63,174.39L210.29,170.55L210.67,171.83L212.09,166.72L212.43,168L213.88,166.72L214.11,165.45L215.13,164.17L215.25,165.45L217.83,160.34L218.13,161.61L218.51,157.78L219.27,156.5L219.71,159.06L219.74,157.78L220.03,156.5L220.79,153.95L221,155.23L221.04,156.5L221.07,160.34L221.74,156.5L221.8,157.78L222.26,155.23L222.34,162.89L222.74,161.61L222.77,162.89L222.79,161.61L223.53,160.34L223.75,161.61L224.23,157.78L224.37,159.06L225.08,168L225.13,166.72L225.38,183.33L225.9,182.05L226.18,189.71L226.78,188.44L226.95,189.71L227.39,184.61L227.39,185.88L227.55,187.16L227.84,188.44L228,185.88L228.12,184.61L229.1,179.5L229.41,178.22L229.9,174.39L229.94,173.11L230.05,178.22L230.99,176.94L233.04,174.39L233.07,173.11L233.67,166.72L234.05,165.45L234.51,166.72L236.2,165.45L237.38,162.89L237.46,161.61L238.33,160.34L238.76,161.61L239.51,159.06L241.4,157.78L242,155.23L242.07,153.95L242.23,151.39L242.98,150.12L243.11,151.39L243.3,150.12L244.48,148.84L244.81,145.01L244.83,152.67L244.83,153.95L244.83,155.23L245.39,150.12L245.83,148.84L246.04,150.12L247.03,148.84L247.18,150.12L247.43,148.84L248.03,150.12L248.11,148.84L248.29,153.95L248.73,151.39L249,152.67L249.31,151.39L249.33,153.95L249.44,153.95L249.45,155.23L250.49,151.39L250.94,150.12L251.36,147.56L251.47,153.95L251.49,153.95L251.88,152.67L252.19,151.39L252.34,152.67L252.38,153.95L252.46,152.67L252.78,155.23L253.1,156.5L253.19,153.95L253.22,164.17L253.23,165.45L253.77,185.88L253.92,184.61L254.05,185.88L254.5,187.16L255.06,185.88L256.12,180.77L256.21,182.05L257.55,173.11L257.69,174.39L257.98,173.11L259.24,169.28L259.25,170.55L259.39,171.83L260,168L260.31,166.72L260.51,165.45L261.17,166.72L261.81,160.34L262.28,159.06L262.77,153.95L262.78,155.23L263.33,156.5L264.17,151.39L264.35,150.12L265.64,142.45L266.09,141.18L266.29,139.9L267.36,138.62L268.8,130.96L269.23,129.68L270.24,125.85L270.28,127.13L271.67,120.74L272.34,119.46L274.37,113.08L274.38,114.35L277.43,97.75L277.65,99.03L277.66,101.58L278.61,100.3L278.61,101.58L279.34,97.75L279.99,96.47L280.28,97.75L281.47,96.47L281.77,92.64L284.27,93.92L284.44,123.29L285.37,122.02L286.58,123.29L286.74,122.02L286.74,120.74L286.82,124.57L287,122.02L287.62,123.29L290.59,122.02L291.34,120.74L291.9,116.91L291.91,115.63L292.04,118.18L292.57,116.91L292.69,115.63L292.74,116.91L293.7,115.63L294.91,122.02L295.02,120.74L295.25,122.02L295.95,116.91L296.62,115.63L296.66,116.91L297.19,111.8L297.56,113.08L297.86,127.13L298.82,125.85L299,127.13L299.52,124.57L299.53,125.85L299.53,127.13L300.56,124.57L300.73,125.85L300.85,123.29L301.3,124.57L301.69,125.85L302.16,127.13L302.69,125.85L304.18,120.74L304.5,119.46L304.83,122.02L304.99,116.91L305.11,118.18L305.17,116.91L305.73,118.18L306.89,116.91L306.92,118.18L307.47,115.63L307.83,114.35L308.15,109.24L308.43,110.52L308.81,111.8L308.82,116.91L309.02,114.35L310.08,113.08L310.81,124.57L310.82,123.29L310.92,122.02L310.95,120.74L311.27,132.24L311.42,132.24L311.52,133.51L311.57,142.45L312.09,141.18L312.28,139.9L312.64,141.18L312.67,139.9L312.97,138.62L313.65,136.07L314.23,134.79L314.95,133.51L315.02,132.24L315.09,130.96L315.93,129.68L316.16,130.96L316.17,129.68L316.81,128.4L317.13,132.24L317.24,128.4L317.71,127.13L318.11,123.29L318.76,122.02L318.97,120.74L320.32,119.46L321.01,115.63L321.07,114.35L322.31,106.69L323.31,105.41L326.08,96.47L327.21,95.19L328.01,92.64L328.84,91.36L328.98,88.81L329.74,90.08L330.11,109.24L330.31,107.97L330.6,109.24L330.88,107.97L330.9,110.52L331.25,109.24L331.9,110.52L332.43,109.24L333.18,110.52L334.33,106.69L335.3,105.41L336.61,104.13L336.96,105.41L337.01,106.69L338.04,105.41L338.57,102.86L339.04,104.13L339.22,102.86L339.66,104.13L339.69,105.41L339.69,106.69L340.38,104.13L341.07,105.41L342.08,141.18L342.37,139.9L342.54,136.07L343,141.18L343.16,142.45L344.63,130.96L344.99,129.68L345.11,132.24L345.59,130.96L346.03,129.68L347.03,132.24L347.43,130.96L348.21,129.68L348.31,130.96L349.29,128.4L349.64,127.13L350.06,128.4L350.45,127.13L351.05,125.85L351.3,124.57L351.51,122.02L352.64,120.74L352.92,119.46L354.04,118.18L355.67,113.08L355.68,114.35L355.7,115.63L356.68,110.52L357.22,111.8L358.08,106.69L358.09,107.97L358.59,106.69L358.64,107.97L359.27,105.41L359.28,104.13L359.39,101.58L360.72,100.3L361.58,97.75L361.61,96.47L362.45,93.92L362.79,92.64L363.74,97.75L364.14,96.47L364.32,95.19L365.87,92.64L366.08,93.92L367.2,91.36L367.78,90.08L369.36,84.97L369.98,83.7L370.36,82.42L370.58,83.7L370.64,84.97L370.65,83.7L371.55,82.42L372.69,79.87L372.81,78.59L373.81,77.31L373.83,78.59L373.9,96.47L374.56,92.64L374.82,93.92L375.46,91.36L375.7,90.08L376.46,91.36L377.39,90.08L378.03,86.25L378.14,87.53L378.43,86.25L379.73,83.7L380.59,82.42L381.22,79.87L381.22,78.59L381.22,72.2L382.51,70.92L383.56,67.09L385.09,68.37L385.09,70.92L385.51,67.09L385.51,68.37L385.87,67.09L386.37,68.37L386.7,67.09L386.71,65.82L386.97,67.09L387.85,65.82L388,64.54L388,65.82L389.34,67.09L389.99,65.82L390.04,67.09L390.21,68.37L390.84,69.65L391.16,70.92L391.36,84.97L392.36,86.25L393.39,83.7L393.92,82.42L394.05,79.87L394.09,83.7L394.52,84.97L395.75,76.03L395.75,77.31L395.75,76.03L395.78,82.42L396.1,79.87L396.67,78.59L397.99,74.76L399.14,73.48L399.86,69.65L400.58,68.37L400.96,64.54L401.44,67.09L401.7,65.82L402.74,59.43L402.74,60.71L404.19,59.43L404.98,53.04L404.99,55.6L405.82,54.32L406.16,55.6L406.2,54.32L406.71,53.04L407.28,50.49L407.94,51.76L408.9,47.93L409.55,46.66L410.17,44.1L410.4,45.38L410.54,46.66L410.86,47.93L411.07,46.66L412.26,47.93L414.69,38.99L414.97,37.71L415.97,36.44L416.71,37.71L417.82,33.88L417.9,32.61L417.97,33.88L418.14,28.77L418.76,30.05L418.84,27.5L420.01,26.22L420.17,23.66L420.36,26.22L420.62,27.5L421.03,26.22L421.19,27.5L421.23,28.77L421.5,31.33L422.05,30.05L423.1,22.39L423.14,26.22L423.81,24.94L423.89,23.66L424.11,26.22L424.35,26.22L424.52,27.5L425.32,22.39L425.65,23.66L425.79,27.5L426.29,22.39L426.63,21.11L427.21,18.55L427.22,19.83L427.29,21.11L427.85,16L427.95,18.55L428.21,19.83L428.38,17.28L428.52,30.05L428.52,31.33L428.93,36.44L429.23,27.5L429.23,26.22L429.23,24.94L429.93,33.88L429.97,30.05L430.09,31.33L431.8,22.39L431.85,23.66L432,36.44L432.41,31.33L432.69,30.05L432.74,32.61L433.27,30.05L433.86,28.77L434.52,32.61L434.8,31.33L435.03,30.05L435.18,32.61L435.26,31.33L435.84,30.05L436.5,40.27L436.52,38.99L436.91,37.71L436.98,36.44L437.31,40.27L437.58,38.99L437.93,37.71L438.35,33.88L438.53,36.44L439.08,35.16L439.51,31.33L439.91,32.61L439.91,33.88L440.49,51.76L440.78,53.04L441.42,49.21L442.27,47.93L442.41,51.76L443.41,53.04L444.53,50.49L444.57,49.21L444.73,50.49L445.11,49.21L445.58,47.93L446.04,45.38L446.16,49.21L446.3,47.93L446.55,46.66L447.2,44.1L447.56,45.38L448.19,51.76L448.42,49.21L448.45,47.93L449.16,51.76L449.31,50.49L449.7,41.55L450.09,49.21L450.19,47.93L450.47,44.1L450.59,51.76L450.59,53.04L451.2,44.1L451.32,46.66L451.45,45.38L451.81,41.55L452.04,42.82L452.23,44.1L452.48,41.55L452.65,50.49L452.65,51.76L452.95,69.65L453.38,64.54L453.47,65.82L453.48,67.09L454.25,65.82L454.49,63.26L454.53,72.2L454.55,73.48L454.97,70.92L455.07,72.2L455.48,70.92L455.53,72.2L455.63,69.65L456.25,68.37L456.9,64.54L457.09,63.26L457.84,56.87L458.1,59.43L458.13,60.71L458.29,59.43L458.67,65.82L459.26,64.54L459.38,65.82L459.65,63.26L459.83,64.54L460.17,65.82L460.84,55.6L461.15,54.32L461.17,53.04L461.25,56.87L461.61,54.32L462.12,53.04L462.13,54.32L462.72,44.1L462.76,46.66L463.57,45.38L464.07,41.55L464.63,42.82L464.76,40.27L465.05,46.66L465.43,45.38L465.46,44.1L465.78,42.82L466.05,45.38L466.34,44.1L466.53,46.66L466.89,44.1L467.24,45.38L467.78,38.99L468.14,41.55L468.2,42.82L468.33,41.55L468.36,45.38L468.8,42.82L469.24,41.55L469.25,40.27L469.8,51.76L469.82,49.21L469.97,47.93L471.22,51.76L471.42,50.49L471.68,53.04L472.14,51.76L472.4,50.49L473.41,55.6L473.55,53.04L473.59,51.76L473.7,49.21L474.26,53.04L474.27,53.04L474.62,51.76L474.87,47.93L475.27,51.76L475.3,53.04L475.62,51.76L476.47,72.2L476.75,70.92L478.48,55.6L478.57,56.87L478.65,54.32L478.76,65.82L479.05,64.54L479.05,65.82L479.61,64.54L479.63,65.82L479.9,67.09L480.3,74.76L480.6,72.2L480.74,70.92L480.87,65.82L481.49,67.09L481.51,65.82L481.74,63.26L481.77,68.37L481.93,67.09L482.41,68.37L482.69,69.65L483.34,64.54L483.64,65.82L483.67,69.65L484.36,67.09L484.49,68.37L484.95,65.82L485.67,64.54L485.94,59.43L486.25,64.54L486.56,63.26L487.7,53.04L488.48,54.32L489.01,67.09L489.42,65.82L489.52,68.37L489.87,60.71L490.04,61.98L490.3,60.71L490.78,68.37L491.49,67.09L491.68,65.82L492.02,68.37L492.02,69.65L492.67,67.09L492.93,81.14L493.02,79.87L493.02,77.31L493.59,84.97L493.88,83.7L494.09,84.97L495.58,83.7L496.18,84.97L496.48,83.7L496.94,84.97L496.96,83.7L497.51,82.42L497.51,81.14L497.77,84.97L497.86,83.7L498.49,82.42L498.71,83.7L499.05,82.42L499.45,81.14L499.53,78.59L499.67,82.42L499.97,81.14L500.5,79.87L500.58,78.59L501.01,83.7L501.02,84.97L502.13,81.14L502.53,82.42L502.78,79.87L503.09,81.14L503.1,82.42L503.14,84.97L503.7,84.97L503.88,83.7L504.68,76.03L504.71,77.31L504.71,78.59L504.71,81.14L504.87,78.59L505.73,79.87L505.73,78.59L506.01,78.59L507.19,77.31L507.75,73.48L507.88,74.76L508,76.03L509.21,68.37L509.61,69.65L509.61,70.92L509.92,65.82L510.08,67.09L510.63,65.82L511.21,68.37L511.22,69.65L511.71,68.37L511.77,69.65L512.07,68.37L512.08,67.09L512.8,69.65L512.99,68.37L513.09,67.09L514.02,65.82L514.65,67.09L515.09,65.82L515.86,60.71L516.09,59.43L516.12,60.71L516.27,59.43L517,58.15L517.26,60.71L517.73,59.43L517.84,60.71L518.26,55.6L518.42,58.15L518.71,59.43L518.97,55.6L520.78,56.87L521.11,53.04L521.76,54.32L522.02,67.09L522.47,63.26L522.6,64.54L522.73,67.09L523.32,65.82L523.73,64.54L524.05,60.71L525.01,59.43L525.14,56.87L526.18,55.6L526.86,53.04L526.96,51.76L527.09,49.21L528.54,50.49L528.97,69.65L529.26,67.09L529.34,65.82L529.4,68.37L530.15,67.09L531.11,63.26L531.11,64.54L531.85,70.92L531.89,69.65L532.33,68.37L532.98,63.26L533.01,64.54L533.47,63.26L535.99,58.15L536.32,56.87L536.96,54.32L537.44,53.04L538.42,50.49L538.48,49.21L538.68,50.49L539.33,49.21L540,46.66" style="fill: rgb(255, 127, 14); fill-opacity: 0.5; stroke-width: 0;"/></g></g><g class="errorbars"/><g class="lines"><path class="js-line" d="M0,318.72L0,316.17L0.57,317.45L1.87,318.72L1.99,317.45L3.02,318.72L3.87,312.34L3.9,313.61L4.59,312.34L5.03,307.23L5.2,308.5L5.58,309.78L5.75,305.95L6.05,311.06L6.19,308.5L6.5,309.78L7.19,298.29L7.31,297.01L7.49,295.73L7.76,298.29L7.76,299.56L7.77,300.84L7.94,290.62L8.65,289.34L9.04,298.29L9.04,299.56L9.79,308.5L9.79,307.23L9.8,308.5L10.25,299.56L10.63,300.84L10.67,298.29L11.09,303.39L11.22,303.39L11.68,304.67L11.68,305.95L12.22,295.73L12.25,297.01L12.7,295.73L12.83,288.07L12.83,286.79L12.94,285.51L12.98,293.18L13.1,290.62L13.4,291.9L13.42,294.45L14.13,286.79L14.25,285.51L14.25,284.24L14.29,288.07L14.97,286.79L15.01,285.51L16.02,293.18L17.24,291.9L17.86,289.34L17.99,288.07L18.73,282.96L18.74,284.24L18.87,282.96L19.32,284.24L21.91,282.96L21.91,284.24L22.33,280.4L22.33,282.96L23.89,281.68L24.08,282.96L24.24,281.68L25.09,280.4L25.83,277.85L25.94,279.13L26.26,277.85L27.01,285.51L27.02,286.79L27.37,281.68L27.38,282.96L27.82,284.24L28.24,285.51L29.43,286.79L30.9,282.96L31.13,284.24L31.17,288.07L31.17,288.07L31.98,286.79L32.47,290.62L32.89,289.34L33.09,295.73L34.01,297.01L34.73,294.45L34.73,295.73L34.87,297.01L35.48,294.45L35.77,293.18L36.52,295.73L36.9,294.45L36.9,295.73L37.04,289.34L37.33,290.62L38.04,289.34L38.28,285.51L38.47,293.18L38.99,294.45L39.06,293.18L39.51,297.01L39.57,298.29L39.8,293.18L40.09,294.45L40.4,295.73L41.27,289.34L41.39,293.18L41.74,291.9L41.96,289.34L41.98,291.9L42.12,293.18L43.55,285.51L44.25,284.24L44.55,282.96L45.17,284.24L45.85,285.51L46.15,284.24L46.17,288.07L46.63,282.96L46.9,284.24L46.97,281.68L47.3,288.07L47.45,289.34L48.04,293.18L48.18,290.62L48.19,289.34L48.3,293.18L48.62,291.9L49.19,293.18L49.19,297.01L49.49,294.45L50.07,295.73L50.46,294.45L50.46,295.73L51.17,294.45L51.18,295.73L51.37,293.18L51.49,293.18L52.34,291.9L53.54,289.34L54.1,290.62L54.1,291.9L54.54,288.07L54.7,290.62L55.15,289.34L55.26,288.07L55.57,291.9L56.42,290.62L57.77,285.51L58.28,284.24L59.54,272.74L59.62,275.29L59.71,276.57L59.71,277.85L60.32,275.29L60.49,274.02L60.62,272.74L60.63,274.02L62.23,272.74L62.76,266.35L63.29,267.63L63.78,265.08L63.89,266.35L64.36,265.08L65.77,251.03L65.8,253.58L66.55,252.3L67.22,254.86L67.22,256.13L67.23,262.52L67.54,262.52L68.25,261.24L69.53,257.41L70.29,256.13L70.54,263.8L71.46,262.52L72.59,275.29L72.73,274.02L73.27,272.74L73.27,271.46L73.68,271.46L74.14,272.74L75.24,268.91L75.25,270.18L75.72,267.63L75.77,268.91L76.64,267.63L77.44,266.35L77.96,265.08L81.34,254.86L81.34,256.13L81.8,259.97L81.94,256.13L82.35,257.41L82.64,258.69L82.71,254.86L82.92,257.41L83.66,258.69L84,252.3L84.01,253.58L85.17,252.3L85.38,253.58L85.58,252.3L85.82,251.03L85.84,249.75L86.57,253.58L86.7,252.3L86.84,253.58L87.43,249.75L87.43,251.03L87.58,252.3L87.99,257.41L88.41,256.13L88.76,254.86L88.76,252.3L88.87,256.13L89.86,254.86L89.86,256.13L89.89,253.58L90.57,256.13L90.74,254.86L91.56,257.41L91.9,256.13L92.49,257.41L92.58,258.69L92.9,263.8L93.45,262.52L93.76,271.46L94.06,268.91L94.53,267.63L95.61,263.8L95.75,265.08L95.76,266.35L97.65,258.69L97.67,259.97L99.81,252.3L99.95,253.58L99.95,254.86L100.86,257.41L100.97,258.69L101.84,270.18L102.16,268.91L102.57,271.46L102.57,270.18L102.67,268.91L102.71,271.46L103.14,258.69L103.15,258.69L103.57,257.41L103.9,254.86L104.17,261.24L104.57,259.97L105.59,257.41L105.59,258.69L105.59,259.97L105.72,262.52L106.17,261.24L106.66,259.97L107.02,263.8L107.16,261.24L107.57,259.97L107.6,261.24L108.17,258.69L108.19,259.97L108.79,258.69L108.9,257.41L108.9,258.69L109.6,259.97L109.6,261.24L110.22,259.97L110.79,258.69L111.21,254.86L111.64,253.58L113.03,247.19L113.07,248.47L113.14,249.75L115.26,245.92L115.83,247.19L117.26,243.36L117.74,244.64L118.04,243.36L118.89,274.02L119,272.74L119.63,270.18L119.91,271.46L120.33,270.18L120.33,271.46L121.34,270.18L121.75,271.46L122.06,270.18L122.07,268.91L122.77,267.63L123.02,268.91L123.03,271.46L123.26,266.35L123.79,265.08L123.79,266.35L124.22,263.8L124.28,263.8L124.86,262.52L124.86,261.24L125.35,267.63L127.13,266.35L127.35,267.63L127.41,266.35L127.94,265.08L128.39,259.97L129.19,258.69L130.93,253.58L131.31,254.86L131.79,252.3L131.87,253.58L131.87,254.86L132.02,261.24L132.4,258.69L132.94,257.41L133.47,254.86L133.72,256.13L134.33,261.24L135.06,259.97L136.06,254.86L136.45,256.13L137.15,254.86L138.24,253.58L139.41,249.75L140.23,251.03L140.99,249.75L141.06,251.03L141.59,249.75L141.95,248.47L141.96,251.03L142.51,245.92L142.51,245.92L142.96,244.64L142.97,242.08L143.55,243.36L143.91,242.08L144.42,239.53L144.46,238.25L144.53,236.97L144.58,240.81L145.14,239.53L145.16,240.81L145.58,238.25L146.23,239.53L146.63,235.7L146.89,247.19L147.46,245.92L148.22,243.36L148.3,244.64L148.3,243.36L148.33,245.92L149.53,244.64L150.2,243.36L150.31,245.92L151.15,244.64L151.16,245.92L151.83,242.08L151.89,243.36L152.46,244.64L154.24,242.08L154.25,243.36L155.38,236.97L156.28,235.7L156.54,233.14L157.07,234.42L157.07,233.14L157.75,239.53L158.13,238.25L159.35,236.97L159.69,238.25L162.15,231.87L162.3,233.14L162.83,228.03L163.12,226.76L164.46,219.09L165.21,217.82L165.21,219.09L165.61,217.82L166.72,216.54L166.78,215.26L167.24,220.37L167.69,219.09L168.76,216.54L168.77,215.26L168.79,213.98L169,222.92L170.31,221.65L170.56,219.09L171.68,217.82L172.43,222.92L172.79,221.65L175.75,211.43L175.82,210.15L175.87,211.43L177.65,210.15L177.9,215.26L177.91,216.54L177.92,220.37L178.33,217.82L180.33,216.54L180.36,219.09L180.51,217.82L181.27,216.54L181.8,211.43L181.8,212.71L182.34,213.98L182.71,215.26L183.63,210.15L183.69,211.43L183.83,212.71L184.69,211.43L184.69,212.71L187.88,207.6L187.98,206.32L188.56,202.49L188.57,203.76L189,202.49L189.03,205.04L189.71,203.76L189.89,202.49L190.59,203.76L190.89,202.49L191.65,201.21L191.84,199.93L192.61,197.38L192.76,196.1L192.94,197.38L193.09,194.82L193.1,196.1L193.92,194.82L195.33,185.88L195.33,188.44L195.6,187.16L195.94,184.61L196.26,185.88L196.8,184.61L197,182.05L197.47,184.61L197.75,183.33L198.13,180.77L198.71,179.5L199.9,178.22L199.9,179.5L199.98,178.22L200.01,179.5L201.39,178.22L202.14,179.5L202.89,178.22L203.12,176.94L203.13,178.22L205.02,176.94L205.74,175.66L205.75,176.94L205.75,178.22L206.15,176.94L207,178.22L207,179.5L207.71,179.5L207.89,178.22L208.89,175.66L209.63,174.39L210.29,170.55L210.67,171.83L212.09,166.72L212.43,168L213.88,166.72L214.11,165.45L215.13,164.17L215.25,165.45L217.83,160.34L218.13,161.61L218.51,157.78L219.27,156.5L219.71,159.06L219.74,157.78L220.03,156.5L220.79,153.95L221,155.23L221.04,156.5L221.07,160.34L221.74,156.5L221.8,157.78L222.26,155.23L222.34,162.89L222.74,161.61L222.77,162.89L222.79,161.61L223.53,160.34L223.75,161.61L224.23,157.78L224.37,159.06L225.08,168L225.13,166.72L225.38,183.33L225.9,182.05L226.18,189.71L226.78,188.44L226.95,189.71L227.39,184.61L227.39,185.88L227.55,187.16L227.84,188.44L228,185.88L228.12,184.61L229.1,179.5L229.41,178.22L229.9,174.39L229.94,173.11L230.05,178.22L230.99,176.94L233.04,174.39L233.07,173.11L233.67,166.72L234.05,165.45L234.51,166.72L236.2,165.45L237.38,162.89L237.46,161.61L238.33,160.34L238.76,161.61L239.51,159.06L241.4,157.78L242,155.23L242.07,153.95L242.23,151.39L242.98,150.12L243.11,151.39L243.3,150.12L244.48,148.84L244.81,145.01L244.83,152.67L244.83,153.95L244.83,155.23L245.39,150.12L245.83,148.84L246.04,150.12L247.03,148.84L247.18,150.12L247.43,148.84L248.03,150.12L248.11,148.84L248.29,153.95L248.73,151.39L249,152.67L249.31,151.39L249.33,153.95L249.44,153.95L249.45,155.23L250.49,151.39L250.94,150.12L251.36,147.56L251.47,153.95L251.49,153.95L251.88,152.67L252.19,151.39L252.34,152.67L252.38,153.95L252.46,152.67L252.78,155.23L253.1,156.5L253.19,153.95L253.22,164.17L253.23,165.45L253.77,185.88L253.92,184.61L254.05,185.88L254.5,187.16L255.06,185.88L256.12,180.77L256.21,182.05L257.55,173.11L257.69,174.39L257.98,173.11L259.24,169.28L259.25,170.55L259.39,171.83L260,168L260.31,166.72L260.51,165.45L261.17,166.72L261.81,160.34L262.28,159.06L262.77,153.95L262.78,155.23L263.33,156.5L264.17,151.39L264.35,150.12L265.64,142.45L266.09,141.18L266.29,139.9L267.36,138.62L268.8,130.96L269.23,129.68L270.24,125.85L270.28,127.13L271.67,120.74L272.34,119.46L274.37,113.08L274.38,114.35L277.43,97.75L277.65,99.03L277.66,101.58L278.61,100.3L278.61,101.58L279.34,97.75L279.99,96.47L280.28,97.75L281.47,96.47L281.77,92.64L284.27,93.92L284.44,123.29L285.37,122.02L286.58,123.29L286.74,122.02L286.74,120.74L286.82,124.57L287,122.02L287.62,123.29L290.59,122.02L291.34,120.74L291.9,116.91L291.91,115.63L292.04,118.18L292.57,116.91L292.69,115.63L292.74,116.91L293.7,115.63L294.91,122.02L295.02,120.74L295.25,122.02L295.95,116.91L296.62,115.63L296.66,116.91L297.19,111.8L297.56,113.08L297.86,127.13L298.82,125.85L299,127.13L299.52,124.57L299.53,125.85L299.53,127.13L300.56,124.57L300.73,125.85L300.85,123.29L301.3,124.57L301.69,125.85L302.16,127.13L302.69,125.85L304.18,120.74L304.5,119.46L304.83,122.02L304.99,116.91L305.11,118.18L305.17,116.91L305.73,118.18L306.89,116.91L306.92,118.18L307.47,115.63L307.83,114.35L308.15,109.24L308.43,110.52L308.81,111.8L308.82,116.91L309.02,114.35L310.08,113.08L310.81,124.57L310.82,123.29L310.92,122.02L310.95,120.74L311.27,132.24L311.42,132.24L311.52,133.51L311.57,142.45L312.09,141.18L312.28,139.9L312.64,141.18L312.67,139.9L312.97,138.62L313.65,136.07L314.23,134.79L314.95,133.51L315.02,132.24L315.09,130.96L315.93,129.68L316.16,130.96L316.17,129.68L316.81,128.4L317.13,132.24L317.24,128.4L317.71,127.13L318.11,123.29L318.76,122.02L318.97,120.74L320.32,119.46L321.01,115.63L321.07,114.35L322.31,106.69L323.31,105.41L326.08,96.47L327.21,95.19L328.01,92.64L328.84,91.36L328.98,88.81L329.74,90.08L330.11,109.24L330.31,107.97L330.6,109.24L330.88,107.97L330.9,110.52L331.25,109.24L331.9,110.52L332.43,109.24L333.18,110.52L334.33,106.69L335.3,105.41L336.61,104.13L336.96,105.41L337.01,106.69L338.04,105.41L338.57,102.86L339.04,104.13L339.22,102.86L339.66,104.13L339.69,105.41L339.69,106.69L340.38,104.13L341.07,105.41L342.08,141.18L342.37,139.9L342.54,136.07L343,141.18L343.16,142.45L344.63,130.96L344.99,129.68L345.11,132.24L345.59,130.96L346.03,129.68L347.03,132.24L347.43,130.96L348.21,129.68L348.31,130.96L349.29,128.4L349.64,127.13L350.06,128.4L350.45,127.13L351.05,125.85L351.3,124.57L351.51,122.02L352.64,120.74L352.92,119.46L354.04,118.18L355.67,113.08L355.68,114.35L355.7,115.63L356.68,110.52L357.22,111.8L358.08,106.69L358.09,107.97L358.59,106.69L358.64,107.97L359.27,105.41L359.28,104.13L359.39,101.58L360.72,100.3L361.58,97.75L361.61,96.47L362.45,93.92L362.79,92.64L363.74,97.75L364.14,96.47L364.32,95.19L365.87,92.64L366.08,93.92L367.2,91.36L367.78,90.08L369.36,84.97L369.98,83.7L370.36,82.42L370.58,83.7L370.64,84.97L370.65,83.7L371.55,82.42L372.69,79.87L372.81,78.59L373.81,77.31L373.83,78.59L373.9,96.47L374.56,92.64L374.82,93.92L375.46,91.36L375.7,90.08L376.46,91.36L377.39,90.08L378.03,86.25L378.14,87.53L378.43,86.25L379.73,83.7L380.59,82.42L381.22,79.87L381.22,78.59L381.22,72.2L382.51,70.92L383.56,67.09L385.09,68.37L385.09,70.92L385.51,67.09L385.51,68.37L385.87,67.09L386.37,68.37L386.7,67.09L386.71,65.82L386.97,67.09L387.85,65.82L388,64.54L388,65.82L389.34,67.09L389.99,65.82L390.04,67.09L390.21,68.37L390.84,69.65L391.16,70.92L391.36,84.97L392.36,86.25L393.39,83.7L393.92,82.42L394.05,79.87L394.09,83.7L394.52,84.97L395.75,76.03L395.75,77.31L395.75,76.03L395.78,82.42L396.1,79.87L396.67,78.59L397.99,74.76L399.14,73.48L399.86,69.65L400.58,68.37L400.96,64.54L401.44,67.09L401.7,65.82L402.74,59.43L402.74,60.71L404.19,59.43L404.98,53.04L404.99,55.6L405.82,54.32L406.16,55.6L406.2,54.32L406.71,53.04L407.28,50.49L407.94,51.76L408.9,47.93L409.55,46.66L410.17,44.1L410.4,45.38L410.54,46.66L410.86,47.93L411.07,46.66L412.26,47.93L414.69,38.99L414.97,37.71L415.97,36.44L416.71,37.71L417.82,33.88L417.9,32.61L417.97,33.88L418.14,28.77L418.76,30.05L418.84,27.5L420.01,26.22L420.17,23.66L420.36,26.22L420.62,27.5L421.03,26.22L421.19,27.5L421.23,28.77L421.5,31.33L422.05,30.05L423.1,22.39L423.14,26.22L423.81,24.94L423.89,23.66L424.11,26.22L424.35,26.22L424.52,27.5L425.32,22.39L425.65,23.66L425.79,27.5L426.29,22.39L426.63,21.11L427.21,18.55L427.22,19.83L427.29,21.11L427.85,16L427.95,18.55L428.21,19.83L428.38,17.28L428.52,30.05L428.52,31.33L428.93,36.44L429.23,27.5L429.23,26.22L429.23,24.94L429.93,33.88L429.97,30.05L430.09,31.33L431.8,22.39L431.85,23.66L432,36.44L432.41,31.33L432.69,30.05L432.74,32.61L433.27,30.05L433.86,28.77L434.52,32.61L434.8,31.33L435.03,30.05L435.18,32.61L435.26,31.33L435.84,30.05L436.5,40.27L436.52,38.99L436.91,37.71L436.98,36.44L437.31,40.27L437.58,38.99L437.93,37.71L438.35,33.88L438.53,36.44L439.08,35.16L439.51,31.33L439.91,32.61L439.91,33.88L440.49,51.76L440.78,53.04L441.42,49.21L442.27,47.93L442.41,51.76L443.41,53.04L444.53,50.49L444.57,49.21L444.73,50.49L445.11,49.21L445.58,47.93L446.04,45.38L446.16,49.21L446.3,47.93L446.55,46.66L447.2,44.1L447.56,45.38L448.19,51.76L448.42,49.21L448.45,47.93L449.16,51.76L449.31,50.49L449.7,41.55L450.09,49.21L450.19,47.93L450.47,44.1L450.59,51.76L450.59,53.04L451.2,44.1L451.32,46.66L451.45,45.38L451.81,41.55L452.04,42.82L452.23,44.1L452.48,41.55L452.65,50.49L452.65,51.76L452.95,69.65L453.38,64.54L453.47,65.82L453.48,67.09L454.25,65.82L454.49,63.26L454.53,72.2L454.55,73.48L454.97,70.92L455.07,72.2L455.48,70.92L455.53,72.2L455.63,69.65L456.25,68.37L456.9,64.54L457.09,63.26L457.84,56.87L458.1,59.43L458.13,60.71L458.29,59.43L458.67,65.82L459.26,64.54L459.38,65.82L459.65,63.26L459.83,64.54L460.17,65.82L460.84,55.6L461.15,54.32L461.17,53.04L461.25,56.87L461.61,54.32L462.12,53.04L462.13,54.32L462.72,44.1L462.76,46.66L463.57,45.38L464.07,41.55L464.63,42.82L464.76,40.27L465.05,46.66L465.43,45.38L465.46,44.1L465.78,42.82L466.05,45.38L466.34,44.1L466.53,46.66L466.89,44.1L467.24,45.38L467.78,38.99L468.14,41.55L468.2,42.82L468.33,41.55L468.36,45.38L468.8,42.82L469.24,41.55L469.25,40.27L469.8,51.76L469.82,49.21L469.97,47.93L471.22,51.76L471.42,50.49L471.68,53.04L472.14,51.76L472.4,50.49L473.41,55.6L473.55,53.04L473.59,51.76L473.7,49.21L474.26,53.04L474.27,53.04L474.62,51.76L474.87,47.93L475.27,51.76L475.3,53.04L475.62,51.76L476.47,72.2L476.75,70.92L478.48,55.6L478.57,56.87L478.65,54.32L478.76,65.82L479.05,64.54L479.05,65.82L479.61,64.54L479.63,65.82L479.9,67.09L480.3,74.76L480.6,72.2L480.74,70.92L480.87,65.82L481.49,67.09L481.51,65.82L481.74,63.26L481.77,68.37L481.93,67.09L482.41,68.37L482.69,69.65L483.34,64.54L483.64,65.82L483.67,69.65L484.36,67.09L484.49,68.37L484.95,65.82L485.67,64.54L485.94,59.43L486.25,64.54L486.56,63.26L487.7,53.04L488.48,54.32L489.01,67.09L489.42,65.82L489.52,68.37L489.87,60.71L490.04,61.98L490.3,60.71L490.78,68.37L491.49,67.09L491.68,65.82L492.02,68.37L492.02,69.65L492.67,67.09L492.93,81.14L493.02,79.87L493.02,77.31L493.59,84.97L493.88,83.7L494.09,84.97L495.58,83.7L496.18,84.97L496.48,83.7L496.94,84.97L496.96,83.7L497.51,82.42L497.51,81.14L497.77,84.97L497.86,83.7L498.49,82.42L498.71,83.7L499.05,82.42L499.45,81.14L499.53,78.59L499.67,82.42L499.97,81.14L500.5,79.87L500.58,78.59L501.01,83.7L501.02,84.97L502.13,81.14L502.53,82.42L502.78,79.87L503.09,81.14L503.1,82.42L503.14,84.97L503.7,84.97L503.88,83.7L504.68,76.03L504.71,77.31L504.71,78.59L504.71,81.14L504.87,78.59L505.73,79.87L505.73,78.59L506.01,78.59L507.19,77.31L507.75,73.48L507.88,74.76L508,76.03L509.21,68.37L509.61,69.65L509.61,70.92L509.92,65.82L510.08,67.09L510.63,65.82L511.21,68.37L511.22,69.65L511.71,68.37L511.77,69.65L512.07,68.37L512.08,67.09L512.8,69.65L512.99,68.37L513.09,67.09L514.02,65.82L514.65,67.09L515.09,65.82L515.86,60.71L516.09,59.43L516.12,60.71L516.27,59.43L517,58.15L517.26,60.71L517.73,59.43L517.84,60.71L518.26,55.6L518.42,58.15L518.71,59.43L518.97,55.6L520.78,56.87L521.11,53.04L521.76,54.32L522.02,67.09L522.47,63.26L522.6,64.54L522.73,67.09L523.32,65.82L523.73,64.54L524.05,60.71L525.01,59.43L525.14,56.87L526.18,55.6L526.86,53.04L526.96,51.76L527.09,49.21L528.54,50.49L528.97,69.65L529.26,67.09L529.34,65.82L529.4,68.37L530.15,67.09L531.11,63.26L531.11,64.54L531.85,70.92L531.89,69.65L532.33,68.37L532.98,63.26L533.01,64.54L533.47,63.26L535.99,58.15L536.32,56.87L536.96,54.32L537.44,53.04L538.42,50.49L538.48,49.21L538.68,50.49L539.33,49.21L540,46.66" style="vector-effect: none; fill: none; stroke: rgb(255, 127, 14); stroke-opacity: 1; stroke-width: 2px; opacity: 1;"/></g><g class="points"/><g class="text"/></g></g></g></g><g class="zerolinelayer-above"/><path class="xlines-above crisp" d="M0,0" style="fill: none;"/><path class="ylines-above crisp" d="M0,0" style="fill: none;"/><g class="overlines-above"/><g class="xaxislayer-above"><g class="xtick"><text text-anchor="middle" x="0" y="439" transform="translate(101.26,0)" style="font-family: 'Open Sans'; font-size: 18px; fill: rgb(255, 255, 255); fill-opacity: 1; white-space: pre;">2016</text></g><g class="xtick"><text text-anchor="middle" x="0" y="439" style="font-family: 'Open Sans'; font-size: 18px; fill: rgb(255, 255, 255); fill-opacity: 1; white-space: pre;" transform="translate(206.73000000000002,0)">2018</text></g><g class="xtick"><text text-anchor="middle" x="0" y="439" style="font-family: 'Open Sans'; font-size: 18px; fill: rgb(255, 255, 255); fill-opacity: 1; white-space: pre;" transform="translate(312.07,0)">2020</text></g><g class="xtick"><text text-anchor="middle" x="0" y="439" style="font-family: 'Open Sans'; font-size: 18px; fill: rgb(255, 255, 255); fill-opacity: 1; white-space: pre;" transform="translate(417.54,0)">2022</text></g><g class="xtick"><text text-anchor="middle" x="0" y="439" style="font-family: 'Open Sans'; font-size: 18px; fill: rgb(255, 255, 255); fill-opacity: 1; white-space: pre;" transform="translate(522.88,0)">2024</text></g></g><g class="yaxislayer-above"><g class="ytick"><text text-anchor="end" x="79" y="6.3" transform="translate(0,420)" style="font-family: 'Open Sans'; font-size: 18px; fill: rgb(255, 255, 255); fill-opacity: 1; white-space: pre;">0</text></g><g class="ytick"><text text-anchor="end" x="79" y="6.3" style="font-family: 'Open Sans'; font-size: 18px; fill: rgb(255, 255, 255); fill-opacity: 1; white-space: pre;" transform="translate(0,356.13)">50</text></g><g class="ytick"><text text-anchor="end" x="79" y="6.3" style="font-family: 'Open Sans'; font-size: 18px; fill: rgb(255, 255, 255); fill-opacity: 1; white-space: pre;" transform="translate(0,292.27)">100</text></g><g class="ytick"><text text-anchor="end" x="79" y="6.3" style="font-family: 'Open Sans'; font-size: 18px; fill: rgb(255, 255, 255); fill-opacity: 1; white-space: pre;" transform="translate(0,228.4)">150</text></g><g class="ytick"><text text-anchor="end" x="79" y="6.3" style="font-family: 'Open Sans'; font-size: 18px; fill: rgb(255, 255, 255); fill-opacity: 1; white-space: pre;" transform="translate(0,164.54000000000002)">200</text></g><g class="ytick"><text text-anchor="end" x="79" y="6.3" style="font-family: 'Open Sans'; font-size: 18px; fill: rgb(255, 255, 255); fill-opacity: 1; white-space: pre;" transform="translate(0,100.67)">250</text></g></g><g class="overaxes-above"/></g></g><g class="polarlayer"/><g class="smithlayer"/><g class="ternarylayer"/><g class="geolayer"/><g class="funnelarealayer"/><g class="pielayer"/><g class="iciclelayer"/><g class="treemaplayer"/><g class="sunburstlayer"/><g class="glimages"/><defs id="topdefs-908058"><g class="clips"/></defs><g class="layer-above"><g class="imagelayer"/><g class="shapelayer"/></g><g class="infolayer"><g class="g-gtitle"><text class="gtitle" x="35" y="50" text-anchor="start" dy="0em" style="opacity: 1; font-family: 'Open Sans'; font-size: 25px; fill: rgb(255, 255, 255); fill-opacity: 1; white-space: pre;">MultiQC/MultiQC - Open Issues Over Time</text></g><g class="g-xtitle"><text class="xtitle" x="350" y="472.9" text-anchor="middle" style="opacity: 1; font-family: 'Open Sans'; font-size: 22px; fill: rgb(255, 255, 255); fill-opacity: 1; white-space: pre;">Date</text></g><g class="g-ytitle"><text class="ytitle" transform="rotate(-90,29.799999999999997,260)" x="29.799999999999997" y="260" text-anchor="middle" style="opacity: 1; font-family: 'Open Sans'; font-size: 22px; fill: rgb(255, 255, 255); fill-opacity: 1; white-space: pre;">Number of Open Issues</text></g></g></svg>