<svg class="main-svg" xmlns="http://www.w3.org/2000/svg" xmlns:xlink="http://www.w3.org/1999/xlink" width="700" height="500" style="" viewBox="0 0 700 500"><rect x="0" y="0" width="700" height="500" style="fill: rgb(0, 0, 0); fill-opacity: 0;"/><defs id="defs-6e3080"><g class="clips"><clipPath id="clip6e3080xyplot" class="plotclip"><rect width="540" height="320"/></clipPath><clipPath class="axesclip" id="clip6e3080x"><rect x="80" y="0" width="540" height="500"/></clipPath><clipPath class="axesclip" id="clip6e3080y"><rect x="0" y="100" width="700" height="320"/></clipPath><clipPath class="axesclip" id="clip6e3080xy"><rect x="80" y="100" width="540" height="320"/></clipPath></g><g class="gradients"/><g class="patterns"/></defs><g class="bglayer"><rect class="bg" x="80" y="100" width="540" height="320" style="fill: rgb(0, 0, 0); fill-opacity: 0; stroke-width: 0;"/></g><g class="layer-below"><g class="imagelayer"/><g class="shapelayer"/></g><g class="cartesianlayer"><g class="subplot xy"><g class="layer-subplot"><g class="shapelayer"/><g class="imagelayer"/></g><g class="minor-gridlayer"><g class="x"/><g class="y"/></g><g class="gridlayer"><g class="x"><path class="xgrid crisp" transform="translate(101.48,0)" d="M0,100v320" style="stroke: rgb(255, 255, 255); stroke-opacity: 1; stroke-width: 1px;"/><path class="xgrid crisp" transform="translate(208.08,0)" d="M0,100v320" style="stroke: rgb(255, 255, 255); stroke-opacity: 1; stroke-width: 1px;"/><path class="xgrid crisp" transform="translate(314.53,0)" d="M0,100v320" style="stroke: rgb(255, 255, 255); stroke-opacity: 1; stroke-width: 1px;"/><path class="xgrid crisp" transform="translate(421.13,0)" d="M0,100v320" style="stroke: rgb(255, 255, 255); stroke-opacity: 1; stroke-width: 1px;"/><path class="xgrid crisp" transform="translate(527.5799999999999,0)" d="M0,100v320" style="stroke: rgb(255, 255, 255); stroke-opacity: 1; stroke-width: 1px;"/></g><g class="y"><path class="ygrid crisp" transform="translate(0,356.13)" d="M80,0h540" style="stroke: rgb(255, 255, 255); stroke-opacity: 1; stroke-width: 1px;"/><path class="ygrid crisp" transform="translate(0,292.27)" d="M80,0h540" style="stroke: rgb(255, 255, 255); stroke-opacity: 1; stroke-width: 1px;"/><path class="ygrid crisp" transform="translate(0,228.4)" d="M80,0h540" style="stroke: rgb(255, 255, 255); stroke-opacity: 1; stroke-width: 1px;"/><path class="ygrid crisp" transform="translate(0,164.54000000000002)" d="M80,0h540" style="stroke: rgb(255, 255, 255); stroke-opacity: 1; stroke-width: 1px;"/></g></g><g class="zerolinelayer"><path class="yzl zl crisp" transform="translate(0,420)" d="M80,0h540" style="stroke: rgb(255, 255, 255); stroke-opacity: 1; stroke-width: 2px;"/></g><g class="layer-between"><g class="shapelayer"/><g class="imagelayer"/></g><path class="xlines-below"/><path class="ylines-below"/><g class="overlines-below"/><g class="xaxislayer-below"/><g class="yaxislayer-below"/><g class="overaxes-below"/><g class="overplot"><g class="xy" transform="translate(80,100)" clip-path="url(#clip6e3080xyplot)"><g class="scatterlayer mlayer"><g class="trace scatter trace376489" style="stroke-miterlimit: 2;"><g class="fills"><g><path class="js-fill" d="M540,320L0,320L0,318.72L0,316.17L0.58,317.45L1.89,318.72L2.01,317.45L3.05,318.72L3.91,312.34L3.94,313.61L4.64,312.34L5.08,307.23L5.25,308.5L5.64,309.78L5.81,305.95L6.11,311.06L6.26,308.5L6.57,309.78L7.27,298.29L7.39,297.01L7.57,295.73L7.84,298.29L7.84,299.56L7.85,300.84L8.03,290.62L8.74,289.34L9.14,298.29L9.14,299.56L9.89,308.5L9.9,307.23L9.9,308.5L10.36,299.56L10.74,300.84L10.78,298.29L11.21,303.39L11.34,303.39L11.81,304.67L11.81,305.95L12.35,295.73L12.38,297.01L12.84,295.73L13.08,285.51L13.12,291.9L13.12,293.18L13.24,290.62L13.56,294.45L13.75,291.9L13.99,290.62L14.4,284.24L14.55,288.07L14.97,286.79L15.17,285.51L15.3,288.07L16.02,289.34L16.19,293.18L17.42,291.9L18.05,289.34L18.18,288.07L18.93,282.96L18.93,284.24L19.07,282.96L19.53,284.24L22.14,282.96L22.14,284.24L22.56,280.4L22.57,282.96L24.14,281.68L24.34,282.96L24.49,281.68L25.36,280.4L26.1,277.85L26.21,279.13L26.54,277.85L27.28,284.24L27.3,285.51L27.3,286.79L27.44,281.68L27.67,282.96L28.11,284.24L28.54,285.51L29.74,286.79L31.23,282.96L31.46,284.24L31.5,288.07L31.5,288.07L32.32,286.79L32.81,290.62L33.24,289.34L33.44,295.73L34.37,297.01L35.09,294.45L35.1,295.73L35.24,297.01L35.85,294.45L36.15,293.18L36.91,295.73L37.29,294.45L37.29,295.73L37.44,289.34L37.73,290.62L38.45,289.34L38.68,285.51L38.88,293.18L39.4,294.45L39.47,293.18L39.93,297.01L39.99,298.29L40.22,293.18L40.52,294.45L40.83,295.73L41.7,289.34L41.83,293.18L42.19,291.9L42.4,289.34L42.42,291.9L42.56,293.18L44.01,285.51L44.72,284.24L45.02,282.96L45.65,284.24L46.34,285.51L46.64,284.24L46.66,288.07L47.13,282.96L47.4,284.24L47.47,281.68L47.8,288.07L47.96,289.34L48.55,293.18L48.69,290.62L48.71,289.34L48.81,293.18L49.13,291.9L49.71,293.18L49.71,297.01L50.02,294.45L50.6,295.73L51,294.45L51,295.73L51.72,294.45L51.72,295.73L51.91,293.18L52.04,293.18L52.9,291.9L54.1,289.34L54.68,290.62L54.68,291.9L55.12,288.07L55.28,290.62L55.74,289.34L55.84,288.07L56.16,291.9L57.01,290.62L58.38,285.51L58.9,284.24L60.17,272.74L60.25,275.29L60.35,276.57L60.35,277.85L60.96,275.29L61.13,274.02L61.26,272.74L61.27,274.02L62.89,272.74L63.43,266.35L63.96,267.63L64.46,265.08L64.57,266.35L65.04,265.08L66.47,251.03L66.49,253.58L67.25,252.3L67.93,254.86L67.93,256.13L67.94,262.52L68.25,262.52L68.97,261.24L70.27,257.41L71.04,256.13L71.29,263.8L72.22,262.52L73.36,275.29L73.51,274.02L74.05,272.74L74.05,271.46L74.46,271.46L74.93,272.74L76.04,268.91L76.04,270.18L76.52,267.63L76.57,268.91L77.45,267.63L78.26,266.35L78.78,265.08L82.2,254.86L82.2,256.13L82.67,259.97L82.81,256.13L83.22,257.41L83.52,258.69L83.59,254.86L83.8,257.41L84.55,258.69L84.89,252.3L84.9,253.58L86.07,252.3L86.28,253.58L86.48,252.3L86.73,251.03L86.73,252.3L86.76,249.75L87.32,252.3L87.49,253.58L88.36,249.75L88.36,251.03L88.51,252.3L88.92,257.41L89.35,256.13L89.7,254.86L89.7,252.3L89.82,256.13L90.81,254.86L90.84,253.58L91.53,256.13L91.71,254.86L92.53,257.41L92.88,256.13L93.47,257.41L93.56,258.69L93.89,263.8L94.44,262.52L94.76,271.46L95.06,268.91L95.54,267.63L96.63,263.8L96.77,265.08L96.77,266.35L98.69,258.69L98.71,259.97L100.87,252.3L101.01,253.58L101.01,254.86L101.93,257.41L102.04,258.69L102.92,270.18L103.24,268.91L103.66,271.46L103.66,270.18L103.76,268.91L103.8,271.46L104.24,258.69L104.25,258.69L104.67,257.41L105,254.86L105.28,261.24L105.68,259.97L106.71,257.41L106.71,258.69L106.71,259.97L106.84,262.52L107.29,261.24L107.8,259.97L108.16,263.8L108.3,261.24L108.72,259.97L108.74,261.24L109.31,258.69L109.34,259.97L109.94,258.69L110.05,257.41L110.06,258.69L110.76,259.97L111.12,261.24L111.39,259.97L111.97,258.69L112.21,254.86L112.39,254.86L112.82,253.58L114.23,247.19L114.27,248.47L114.35,249.75L114.86,248.47L116.18,247.19L116.48,245.92L117.06,247.19L118.5,243.36L118.99,244.64L119.29,243.36L120.16,274.02L120.27,272.74L120.9,270.18L121.19,271.46L121.61,270.18L121.61,271.46L122.63,270.18L123.04,271.46L123.35,270.18L123.37,268.91L124.07,267.63L124.33,268.91L124.34,271.46L124.57,266.35L125.1,265.08L125.1,266.35L125.54,263.8L125.6,263.8L126.18,262.52L126.18,261.24L126.68,267.63L128.48,266.35L128.71,267.63L128.76,266.35L129.3,265.08L129.75,259.97L130.57,258.69L132.31,253.58L132.7,254.86L133.19,252.3L133.27,253.58L133.27,254.86L133.42,261.24L133.8,258.69L134.35,257.41L134.89,254.86L135.14,256.13L135.76,261.24L136.49,259.97L137.51,254.86L137.9,256.13L138.61,254.86L139.71,253.58L140.89,249.75L141.72,251.03L142.03,249.75L142.41,251.03L142.49,249.75L142.6,251.03L143.09,249.75L143.46,248.47L143.47,251.03L144.02,245.92L144.02,245.92L144.48,244.64L144.49,242.08L145.07,243.36L145.44,242.08L145.95,239.53L145.99,238.25L146.06,236.97L146.12,240.81L146.68,239.53L146.7,240.81L147.13,238.25L147.78,239.53L148.19,235.7L148.45,244.64L148.45,245.92L148.45,247.19L149.13,243.36L149.2,243.36L149.6,244.64L149.88,243.36L149.9,245.92L151.12,244.64L151.79,243.36L151.91,245.92L152.75,244.64L152.77,245.92L153.44,242.08L153.5,243.36L154.08,244.64L154.71,243.36L154.72,244.64L154.75,243.36L155.88,242.08L155.89,243.36L156.06,239.53L156.35,239.53L156.87,238.25L158.2,233.14L158.74,234.42L158.74,233.14L159.43,239.53L159.8,238.25L161.04,236.97L161.38,238.25L163.87,231.87L164.02,233.14L164.55,228.03L164.86,226.76L166.21,219.09L166.96,217.82L166.96,219.09L167.36,217.82L168.49,216.54L168.55,215.26L169.02,220.37L169.47,219.09L170.56,216.54L170.56,215.26L170.58,213.98L170.8,222.92L172.11,221.65L172.37,219.09L173.5,217.82L174.26,222.92L174.62,221.65L177.62,211.43L177.69,210.15L177.73,211.43L179.53,210.15L179.79,215.26L179.79,216.54L179.8,220.37L180.23,217.82L182.25,216.54L182.27,219.09L182.43,217.82L183.19,216.54L183.73,211.43L183.73,212.71L184.28,213.98L184.65,215.26L185.58,210.15L185.64,211.43L185.78,212.71L186.65,211.43L186.65,212.71L189.87,207.6L189.97,206.32L190.57,202.49L190.58,203.76L191.01,202.49L191.03,205.04L191.72,203.76L191.9,202.49L192.61,203.76L192.92,202.49L192.92,201.21L192.93,202.49L193.68,201.21L194.91,194.82L194.94,196.1L194.99,197.38L195.14,194.82L195.15,196.1L195.98,194.82L197.4,185.88L197.4,188.44L197.68,187.16L198.02,184.61L198.35,185.88L198.88,184.61L199.09,182.05L199.16,183.33L199.57,184.61L200.81,179.5L202.02,178.22L202.02,179.5L202.14,179.5L203.53,178.22L204.29,179.5L205.05,178.22L205.28,176.94L205.28,178.22L207.2,176.94L207.92,175.66L207.94,176.94L207.94,178.22L208.34,176.94L209.2,178.22L209.2,179.5L209.92,179.5L210.1,178.22L211.11,175.66L211.85,174.39L212.52,170.55L212.91,171.83L214.35,166.72L214.68,168L216.15,166.72L216.39,165.45L217.42,164.17L217.54,165.45L220.14,160.34L220.45,161.61L220.83,157.78L221.59,156.5L222.04,159.06L222.08,157.78L222.36,156.5L223.13,153.95L223.35,155.23L223.39,156.5L223.41,160.34L224.09,156.5L224.15,157.78L224.62,155.23L224.7,162.89L225.11,161.61L225.13,162.89L225.15,161.61L225.9,160.34L226.13,161.61L226.61,157.78L226.75,159.06L227.47,168L227.52,166.72L227.78,183.33L228.29,182.05L228.58,189.71L229.19,188.44L229.36,189.71L229.8,184.61L229.8,185.88L229.97,187.16L230.25,188.44L230.42,185.88L230.54,184.61L231.53,179.5L231.84,178.22L232.34,174.39L232.38,173.11L232.49,178.22L233.44,176.94L235.52,174.39L235.54,173.11L236.15,166.72L236.54,165.45L237,166.72L238.71,165.45L239.9,162.89L239.98,161.61L240.86,160.34L241.29,161.61L242.05,159.06L243.96,157.78L244.56,155.23L244.64,153.95L244.8,151.39L245.56,150.12L245.69,151.39L245.88,150.12L247.08,148.84L247.4,145.01L247.43,152.67L247.43,153.95L247.43,155.23L248,150.12L248.44,148.84L248.65,150.12L249.65,148.84L249.81,150.12L250.05,148.84L250.66,150.12L250.74,148.84L250.93,153.95L251.37,151.39L251.65,152.67L251.96,151.39L251.98,153.95L252.09,153.95L252.1,155.23L253.14,151.39L253.6,150.12L254.02,147.56L254.16,153.95L254.55,152.67L254.87,151.39L255.02,152.67L255.06,153.95L255.14,152.67L255.46,155.23L255.79,156.5L255.88,153.95L255.92,166.72L255.92,168L256.04,165.45L256.9,187.16L257.07,185.88L257.2,187.16L257.77,185.88L257.99,184.61L258.84,180.77L258.93,182.05L260.28,173.11L260.43,174.39L260.72,173.11L261.99,169.28L262,170.55L262.15,171.83L262.76,168L263.08,166.72L263.28,165.45L263.94,166.72L264.59,160.34L265.06,159.06L265.56,153.95L265.57,155.23L266.12,156.5L266.97,151.39L267.16,150.12L268.46,142.45L268.91,141.18L269.12,139.9L270.19,138.62L271.66,130.96L272.09,129.68L273.11,125.85L273.15,127.13L274.55,120.74L275.23,119.46L277.28,113.08L277.29,114.35L280.37,97.75L280.6,99.03L280.61,101.58L281.57,100.3L281.57,101.58L282.31,97.75L282.96,96.47L283.26,97.75L284.46,96.47L284.76,92.64L287.29,93.92L287.46,123.29L288.4,122.02L289.62,123.29L289.78,122.02L289.78,120.74L289.87,124.57L290.05,122.02L290.67,123.29L293.67,122.02L294.43,120.74L295,116.91L295.01,115.63L295.14,118.18L295.68,116.91L295.8,115.63L295.85,116.91L296.82,115.63L298.04,122.02L298.15,120.74L298.38,122.02L299.09,116.91L299.77,115.63L299.81,116.91L300.34,111.8L300.72,113.08L301.02,127.13L301.99,125.85L302.17,127.13L302.7,124.57L302.71,125.85L302.71,127.13L303.75,124.57L303.93,125.85L304.04,123.29L304.5,124.57L304.89,125.85L305.37,127.13L305.9,125.85L307.41,120.74L307.73,119.46L308.07,122.02L308.23,116.91L308.35,118.18L308.4,116.91L308.97,118.18L310.15,116.91L310.17,118.18L310.73,115.63L311.09,114.35L311.42,109.24L311.7,110.52L312.09,111.8L312.1,116.91L312.3,114.35L313.37,113.08L314.11,124.57L314.12,123.29L314.22,122.02L314.25,120.74L314.57,132.24L314.73,132.24L314.83,133.51L314.88,142.45L315.4,141.18L315.6,139.9L315.96,141.18L315.99,139.9L316.29,138.62L316.98,136.07L317.56,134.79L318.29,133.51L318.37,132.24L318.43,130.96L319.28,129.68L319.52,130.96L319.52,129.68L320.17,128.4L320.5,132.24L320.61,128.4L321.08,127.13L321.49,123.29L322.15,122.02L322.35,120.74L323.72,119.46L324.42,115.63L324.48,114.35L325.73,106.69L326.74,105.41L329.54,96.47L330.68,95.19L331.49,92.64L332.33,91.36L332.47,88.81L333.24,90.08L333.61,109.24L333.81,107.97L334.1,109.24L334.4,107.97L334.41,110.52L334.77,109.24L335.43,110.52L335.96,109.24L336.71,110.52L337.88,106.69L338.86,105.41L340.18,104.13L340.54,105.41L340.59,106.69L341.63,105.41L342.17,102.86L342.64,104.13L342.82,102.86L343.27,104.13L343.29,105.41L343.29,106.69L343.99,104.13L344.69,105.41L345.14,141.18L345.71,139.9L345.71,141.18L346.17,136.07L346.18,137.34L346.62,138.62L346.8,142.45L347.37,138.62L347.65,137.34L347.67,138.62L348.29,130.96L348.65,129.68L348.77,132.24L349.26,130.96L349.7,129.68L350.72,132.24L351.12,130.96L351.9,129.68L352.01,130.96L353,128.4L353.35,127.13L353.78,128.4L354.16,127.13L354.78,125.85L355.03,124.57L355.24,122.02L356.39,120.74L356.67,119.46L357.8,118.18L359.45,113.08L359.45,114.35L359.48,115.63L360.47,110.52L361.01,111.8L361.88,106.69L361.89,107.97L362.4,106.69L362.45,107.97L363.08,105.41L363.09,104.13L363.2,101.58L364.55,100.3L365.42,97.75L365.45,96.47L366.3,93.92L366.64,92.64L367.61,97.75L368,96.47L368.19,95.19L369.75,92.64L369.97,93.92L371.1,91.36L371.68,90.08L373.28,84.97L373.91,83.7L374.29,82.42L374.51,83.7L374.57,84.97L374.59,83.7L375.49,82.42L376.65,79.87L376.76,78.59L377.78,77.31L377.8,78.59L377.87,96.47L378.53,92.64L378.8,93.92L379.44,91.36L379.69,90.08L380.46,91.36L381.4,90.08L382.04,86.25L382.15,87.53L382.44,86.25L383.76,83.7L384.63,82.42L385.27,79.87L385.27,78.59L385.27,72.2L386.57,70.92L387.63,67.09L389.17,68.37L389.17,70.92L389.6,67.09L389.6,68.37L389.96,67.09L390.47,68.37L390.8,67.09L390.81,65.82L391.07,67.09L391.97,65.82L392.12,64.54L392.12,65.82L393.47,67.09L394.13,65.82L394.18,67.09L394.36,68.37L394.36,69.65L394.99,69.65L395.31,70.92L395.51,84.97L396.52,86.25L397.57,83.7L398.1,82.42L398.23,79.87L398.27,83.7L398.7,84.97L399.95,76.03L399.95,77.31L399.95,76.03L399.98,82.42L400.3,79.87L400.88,78.59L402.22,74.76L403.38,73.48L404.1,69.65L404.83,68.37L405.21,64.54L405.7,67.09L405.96,65.82L407.01,59.43L407.02,60.71L408.48,59.43L409.28,53.04L409.29,54.32L409.29,55.6L410.13,54.32L410.47,55.6L411.19,50.49L411.42,51.76L411.6,50.49L412.27,51.76L413.24,47.93L413.89,46.66L414.52,44.1L414.76,45.38L414.9,46.66L415.22,47.93L415.43,46.66L416.64,47.93L419.09,38.99L419.37,37.71L420.39,36.44L421.14,37.71L422.25,33.88L422.34,32.61L422.4,33.88L422.57,28.77L423.21,30.05L423.29,27.5L424.47,26.22L424.63,23.66L424.82,26.22L425.09,27.5L425.5,26.22L425.67,27.5L425.7,28.77L425.98,31.33L426.53,30.05L427.59,22.39L427.59,24.94L427.64,26.22L428.39,23.66L428.4,24.94L428.61,26.22L429.02,27.5L429.27,24.94L429.55,23.66L429.71,24.94L429.83,22.39L430.16,23.66L430.16,24.94L430.3,27.5L430.82,22.39L431.16,21.11L431.75,18.55L431.75,19.83L431.82,21.11L432.39,16L432.49,18.55L432.76,19.83L432.93,17.28L433.07,28.77L433.07,30.05L433.48,36.44L433.79,24.94L433.86,26.22L434.5,33.88L434.53,30.05L434.65,31.33L436.38,22.39L436.44,23.66L436.58,36.44L437,31.33L437.29,30.05L437.33,32.61L437.87,30.05L438.47,28.77L439.13,32.61L439.41,31.33L439.65,30.05L439.8,32.61L439.88,31.33L440.47,30.05L441.13,40.27L441.16,38.99L441.55,37.71L441.62,36.44L441.95,40.27L442.23,38.99L442.58,37.71L443.01,33.88L443.19,36.44L443.74,35.16L444.17,31.33L444.58,32.61L444.58,33.88L445.17,51.76L445.46,53.04L446.11,49.21L446.97,47.93L447.11,51.76L448.12,53.04L449.24,50.49L449.28,49.21L449.45,50.49L449.83,49.21L450.31,47.93L450.78,45.38L450.9,49.21L451.04,47.93L451.29,46.66L451.95,44.1L452.31,45.38L452.95,51.76L453.18,49.21L453.21,47.93L453.68,51.76L453.93,51.76L454.08,50.49L454.48,41.55L454.86,49.21L454.97,47.93L455.25,44.1L455.37,51.76L455.37,53.04L455.99,44.1L456.11,46.66L456.25,45.38L456.61,41.55L456.83,42.82L457.03,44.1L457.28,41.55L457.45,50.49L457.46,51.76L457.75,69.65L458.19,64.54L458.29,65.82L458.3,67.09L459.07,65.82L459.31,63.26L459.36,72.2L459.37,73.48L459.8,70.92L459.9,72.2L460.32,70.92L460.36,72.2L460.47,69.65L461.1,68.37L461.75,64.54L461.94,63.26L462.7,56.87L462.96,59.43L462.99,60.71L463.15,59.43L463.53,65.82L464.13,64.54L464.26,65.82L464.53,63.26L464.71,64.54L465.06,65.82L465.73,55.6L466.04,54.32L466.06,53.04L466.15,56.87L466.51,54.32L467.02,53.04L467.03,54.32L467.63,44.1L467.67,46.66L468.49,45.38L468.99,41.55L469.57,42.82L469.7,40.27L469.99,46.66L470.37,45.38L470.4,44.1L470.72,42.82L470.99,45.38L471.29,44.1L471.48,46.66L471.85,44.1L472.2,45.38L472.75,38.99L473.11,41.55L473.17,42.82L473.3,41.55L473.33,45.38L473.78,42.82L474.22,41.55L474.23,40.27L474.79,51.76L474.81,49.21L474.96,47.93L476.23,51.76L476.42,50.49L476.68,53.04L477.16,51.76L477.41,50.49L478.44,55.6L478.58,53.04L478.61,51.76L478.73,49.21L479.29,53.04L479.3,53.04L479.65,51.76L479.91,47.93L480.31,51.76L480.34,53.04L480.67,51.76L481.52,72.2L481.81,70.92L483.56,55.6L483.65,56.87L483.73,54.32L483.84,65.82L484.13,64.54L484.13,65.82L484.7,64.54L484.72,65.82L484.99,67.09L485.4,74.76L485.7,72.2L485.85,70.92L485.97,65.82L486.6,67.09L486.62,65.82L486.85,63.26L486.88,68.37L487.05,67.09L487.53,68.37L487.81,69.65L488.11,65.82L488.47,64.54L488.78,68.37L488.8,69.65L489.79,65.82L489.86,67.09L489.86,68.37L491.09,59.43L491.41,61.98L491.41,63.26L491.41,64.54L492,58.15L492.25,56.87L492.87,53.04L493.66,54.32L494.2,67.09L494.62,65.82L494.72,68.37L495.07,60.71L495.24,61.98L495.51,60.71L495.99,68.37L496.71,67.09L496.9,65.82L497.24,68.37L497.24,69.65L497.9,67.09L498.16,81.14L498.25,79.87L498.26,77.31L498.83,84.97L499.12,83.7L499.34,84.97L500.84,83.7L501.44,84.97L501.75,83.7L502.22,84.97L502.23,83.7L502.79,82.42L502.79,81.14L503.06,84.97L503.14,83.7L503.78,82.42L504.01,83.7L504.34,82.42L504.75,81.14L504.83,78.59L504.97,82.42L505.27,81.14L505.81,79.87L505.89,78.59L506.03,82.42L506.33,82.42L506.33,83.7L506.33,84.97L506.87,83.7L507.3,82.42L508.12,79.87L508.43,81.14L509.05,84.97L509.23,83.7L510.04,76.03L510.06,77.31L510.06,78.59L510.07,81.14L510.23,78.59L511.1,79.87L511.1,78.59L511.39,78.59L512.58,77.31L513.14,73.48L513.27,74.76L513.4,76.03L514.61,68.37L515.02,69.65L515.02,70.92L515.33,65.82L515.5,67.09L516.05,65.82L516.63,68.37L516.65,69.65L517.14,68.37L517.21,69.65L517.51,68.37L517.51,67.09L518.24,69.65L518.44,68.37L518.53,67.09L519.47,65.82L520.11,67.09L520.56,65.82L521.33,60.71L521.57,59.43L521.59,60.71L521.75,59.43L522.49,58.15L522.75,60.71L523.22,59.43L523.33,60.71L523.76,55.6L523.92,58.15L524.21,59.43L524.48,55.6L526.31,56.87L526.65,53.04L527.3,54.32L527.56,67.09L528.02,63.26L528.15,64.54L528.28,67.09L528.88,65.82L529.29,64.54L529.61,60.71L530.59,59.43L530.72,56.87L531.77,55.6L532.45,53.04L532.56,51.76L532.69,49.21L534.15,50.49L534.58,69.65L534.88,67.09L534.96,65.82L535.02,68.37L535.78,67.09L536.75,63.26L536.75,64.54L537.49,70.92L537.54,69.65L538.07,65.82L538.12,64.54L538.63,63.26L538.65,64.54L538.67,65.82L539.13,63.26L539.96,61.98L540,60.71" style="fill: rgb(255, 127, 14); fill-opacity: 0.5; stroke-width: 0;"/></g></g><g class="errorbars"/><g class="lines"><path class="js-line" d="M0,318.72L0,316.17L0.58,317.45L1.89,318.72L2.01,317.45L3.05,318.72L3.91,312.34L3.94,313.61L4.64,312.34L5.08,307.23L5.25,308.5L5.64,309.78L5.81,305.95L6.11,311.06L6.26,308.5L6.57,309.78L7.27,298.29L7.39,297.01L7.57,295.73L7.84,298.29L7.84,299.56L7.85,300.84L8.03,290.62L8.74,289.34L9.14,298.29L9.14,299.56L9.89,308.5L9.9,307.23L9.9,308.5L10.36,299.56L10.74,300.84L10.78,298.29L11.21,303.39L11.34,303.39L11.81,304.67L11.81,305.95L12.35,295.73L12.38,297.01L12.84,295.73L13.08,285.51L13.12,291.9L13.12,293.18L13.24,290.62L13.56,294.45L13.75,291.9L13.99,290.62L14.4,284.24L14.55,288.07L14.97,286.79L15.17,285.51L15.3,288.07L16.02,289.34L16.19,293.18L17.42,291.9L18.05,289.34L18.18,288.07L18.93,282.96L18.93,284.24L19.07,282.96L19.53,284.24L22.14,282.96L22.14,284.24L22.56,280.4L22.57,282.96L24.14,281.68L24.34,282.96L24.49,281.68L25.36,280.4L26.1,277.85L26.21,279.13L26.54,277.85L27.28,284.24L27.3,285.51L27.3,286.79L27.44,281.68L27.67,282.96L28.11,284.24L28.54,285.51L29.74,286.79L31.23,282.96L31.46,284.24L31.5,288.07L31.5,288.07L32.32,286.79L32.81,290.62L33.24,289.34L33.44,295.73L34.37,297.01L35.09,294.45L35.1,295.73L35.24,297.01L35.85,294.45L36.15,293.18L36.91,295.73L37.29,294.45L37.29,295.73L37.44,289.34L37.73,290.62L38.45,289.34L38.68,285.51L38.88,293.18L39.4,294.45L39.47,293.18L39.93,297.01L39.99,298.29L40.22,293.18L40.52,294.45L40.83,295.73L41.7,289.34L41.83,293.18L42.19,291.9L42.4,289.34L42.42,291.9L42.56,293.18L44.01,285.51L44.72,284.24L45.02,282.96L45.65,284.24L46.34,285.51L46.64,284.24L46.66,288.07L47.13,282.96L47.4,284.24L47.47,281.68L47.8,288.07L47.96,289.34L48.55,293.18L48.69,290.62L48.71,289.34L48.81,293.18L49.13,291.9L49.71,293.18L49.71,297.01L50.02,294.45L50.6,295.73L51,294.45L51,295.73L51.72,294.45L51.72,295.73L51.91,293.18L52.04,293.18L52.9,291.9L54.1,289.34L54.68,290.62L54.68,291.9L55.12,288.07L55.28,290.62L55.74,289.34L55.84,288.07L56.16,291.9L57.01,290.62L58.38,285.51L58.9,284.24L60.17,272.74L60.25,275.29L60.35,276.57L60.35,277.85L60.96,275.29L61.13,274.02L61.26,272.74L61.27,274.02L62.89,272.74L63.43,266.35L63.96,267.63L64.46,265.08L64.57,266.35L65.04,265.08L66.47,251.03L66.49,253.58L67.25,252.3L67.93,254.86L67.93,256.13L67.94,262.52L68.25,262.52L68.97,261.24L70.27,257.41L71.04,256.13L71.29,263.8L72.22,262.52L73.36,275.29L73.51,274.02L74.05,272.74L74.05,271.46L74.46,271.46L74.93,272.74L76.04,268.91L76.04,270.18L76.52,267.63L76.57,268.91L77.45,267.63L78.26,266.35L78.78,265.08L82.2,254.86L82.2,256.13L82.67,259.97L82.81,256.13L83.22,257.41L83.52,258.69L83.59,254.86L83.8,257.41L84.55,258.69L84.89,252.3L84.9,253.58L86.07,252.3L86.28,253.58L86.48,252.3L86.73,251.03L86.73,252.3L86.76,249.75L87.32,252.3L87.49,253.58L88.36,249.75L88.36,251.03L88.51,252.3L88.92,257.41L89.35,256.13L89.7,254.86L89.7,252.3L89.82,256.13L90.81,254.86L90.84,253.58L91.53,256.13L91.71,254.86L92.53,257.41L92.88,256.13L93.47,257.41L93.56,258.69L93.89,263.8L94.44,262.52L94.76,271.46L95.06,268.91L95.54,267.63L96.63,263.8L96.77,265.08L96.77,266.35L98.69,258.69L98.71,259.97L100.87,252.3L101.01,253.58L101.01,254.86L101.93,257.41L102.04,258.69L102.92,270.18L103.24,268.91L103.66,271.46L103.66,270.18L103.76,268.91L103.8,271.46L104.24,258.69L104.25,258.69L104.67,257.41L105,254.86L105.28,261.24L105.68,259.97L106.71,257.41L106.71,258.69L106.71,259.97L106.84,262.52L107.29,261.24L107.8,259.97L108.16,263.8L108.3,261.24L108.72,259.97L108.74,261.24L109.31,258.69L109.34,259.97L109.94,258.69L110.05,257.41L110.06,258.69L110.76,259.97L111.12,261.24L111.39,259.97L111.97,258.69L112.21,254.86L112.39,254.86L112.82,253.58L114.23,247.19L114.27,248.47L114.35,249.75L114.86,248.47L116.18,247.19L116.48,245.92L117.06,247.19L118.5,243.36L118.99,244.64L119.29,243.36L120.16,274.02L120.27,272.74L120.9,270.18L121.19,271.46L121.61,270.18L121.61,271.46L122.63,270.18L123.04,271.46L123.35,270.18L123.37,268.91L124.07,267.63L124.33,268.91L124.34,271.46L124.57,266.35L125.1,265.08L125.1,266.35L125.54,263.8L125.6,263.8L126.18,262.52L126.18,261.24L126.68,267.63L128.48,266.35L128.71,267.63L128.76,266.35L129.3,265.08L129.75,259.97L130.57,258.69L132.31,253.58L132.7,254.86L133.19,252.3L133.27,253.58L133.27,254.86L133.42,261.24L133.8,258.69L134.35,257.41L134.89,254.86L135.14,256.13L135.76,261.24L136.49,259.97L137.51,254.86L137.9,256.13L138.61,254.86L139.71,253.58L140.89,249.75L141.72,251.03L142.03,249.75L142.41,251.03L142.49,249.75L142.6,251.03L143.09,249.75L143.46,248.47L143.47,251.03L144.02,245.92L144.02,245.92L144.48,244.64L144.49,242.08L145.07,243.36L145.44,242.08L145.95,239.53L145.99,238.25L146.06,236.97L146.12,240.81L146.68,239.53L146.7,240.81L147.13,238.25L147.78,239.53L148.19,235.7L148.45,244.64L148.45,245.92L148.45,247.19L149.13,243.36L149.2,243.36L149.6,244.64L149.88,243.36L149.9,245.92L151.12,244.64L151.79,243.36L151.91,245.92L152.75,244.64L152.77,245.92L153.44,242.08L153.5,243.36L154.08,244.64L154.71,243.36L154.72,244.64L154.75,243.36L155.88,242.08L155.89,243.36L156.06,239.53L156.35,239.53L156.87,238.25L158.2,233.14L158.74,234.42L158.74,233.14L159.43,239.53L159.8,238.25L161.04,236.97L161.38,238.25L163.87,231.87L164.02,233.14L164.55,228.03L164.86,226.76L166.21,219.09L166.96,217.82L166.96,219.09L167.36,217.82L168.49,216.54L168.55,215.26L169.02,220.37L169.47,219.09L170.56,216.54L170.56,215.26L170.58,213.98L170.8,222.92L172.11,221.65L172.37,219.09L173.5,217.82L174.26,222.92L174.62,221.65L177.62,211.43L177.69,210.15L177.73,211.43L179.53,210.15L179.79,215.26L179.79,216.54L179.8,220.37L180.23,217.82L182.25,216.54L182.27,219.09L182.43,217.82L183.19,216.54L183.73,211.43L183.73,212.71L184.28,213.98L184.65,215.26L185.58,210.15L185.64,211.43L185.78,212.71L186.65,211.43L186.65,212.71L189.87,207.6L189.97,206.32L190.57,202.49L190.58,203.76L191.01,202.49L191.03,205.04L191.72,203.76L191.9,202.49L192.61,203.76L192.92,202.49L192.92,201.21L192.93,202.49L193.68,201.21L194.91,194.82L194.94,196.1L194.99,197.38L195.14,194.82L195.15,196.1L195.98,194.82L197.4,185.88L197.4,188.44L197.68,187.16L198.02,184.61L198.35,185.88L198.88,184.61L199.09,182.05L199.16,183.33L199.57,184.61L200.81,179.5L202.02,178.22L202.02,179.5L202.14,179.5L203.53,178.22L204.29,179.5L205.05,178.22L205.28,176.94L205.28,178.22L207.2,176.94L207.92,175.66L207.94,176.94L207.94,178.22L208.34,176.94L209.2,178.22L209.2,179.5L209.92,179.5L210.1,178.22L211.11,175.66L211.85,174.39L212.52,170.55L212.91,171.83L214.35,166.72L214.68,168L216.15,166.72L216.39,165.45L217.42,164.17L217.54,165.45L220.14,160.34L220.45,161.61L220.83,157.78L221.59,156.5L222.04,159.06L222.08,157.78L222.36,156.5L223.13,153.95L223.35,155.23L223.39,156.5L223.41,160.34L224.09,156.5L224.15,157.78L224.62,155.23L224.7,162.89L225.11,161.61L225.13,162.89L225.15,161.61L225.9,160.34L226.13,161.61L226.61,157.78L226.75,159.06L227.47,168L227.52,166.72L227.78,183.33L228.29,182.05L228.58,189.71L229.19,188.44L229.36,189.71L229.8,184.61L229.8,185.88L229.97,187.16L230.25,188.44L230.42,185.88L230.54,184.61L231.53,179.5L231.84,178.22L232.34,174.39L232.38,173.11L232.49,178.22L233.44,176.94L235.52,174.39L235.54,173.11L236.15,166.72L236.54,165.45L237,166.72L238.71,165.45L239.9,162.89L239.98,161.61L240.86,160.34L241.29,161.61L242.05,159.06L243.96,157.78L244.56,155.23L244.64,153.95L244.8,151.39L245.56,150.12L245.69,151.39L245.88,150.12L247.08,148.84L247.4,145.01L247.43,152.67L247.43,153.95L247.43,155.23L248,150.12L248.44,148.84L248.65,150.12L249.65,148.84L249.81,150.12L250.05,148.84L250.66,150.12L250.74,148.84L250.93,153.95L251.37,151.39L251.65,152.67L251.96,151.39L251.98,153.95L252.09,153.95L252.1,155.23L253.14,151.39L253.6,150.12L254.02,147.56L254.16,153.95L254.55,152.67L254.87,151.39L255.02,152.67L255.06,153.95L255.14,152.67L255.46,155.23L255.79,156.5L255.88,153.95L255.92,166.72L255.92,168L256.04,165.45L256.9,187.16L257.07,185.88L257.2,187.16L257.77,185.88L257.99,184.61L258.84,180.77L258.93,182.05L260.28,173.11L260.43,174.39L260.72,173.11L261.99,169.28L262,170.55L262.15,171.83L262.76,168L263.08,166.72L263.28,165.45L263.94,166.72L264.59,160.34L265.06,159.06L265.56,153.95L265.57,155.23L266.12,156.5L266.97,151.39L267.16,150.12L268.46,142.45L268.91,141.18L269.12,139.9L270.19,138.62L271.66,130.96L272.09,129.68L273.11,125.85L273.15,127.13L274.55,120.74L275.23,119.46L277.28,113.08L277.29,114.35L280.37,97.75L280.6,99.03L280.61,101.58L281.57,100.3L281.57,101.58L282.31,97.75L282.96,96.47L283.26,97.75L284.46,96.47L284.76,92.64L287.29,93.92L287.46,123.29L288.4,122.02L289.62,123.29L289.78,122.02L289.78,120.74L289.87,124.57L290.05,122.02L290.67,123.29L293.67,122.02L294.43,120.74L295,116.91L295.01,115.63L295.14,118.18L295.68,116.91L295.8,115.63L295.85,116.91L296.82,115.63L298.04,122.02L298.15,120.74L298.38,122.02L299.09,116.91L299.77,115.63L299.81,116.91L300.34,111.8L300.72,113.08L301.02,127.13L301.99,125.85L302.17,127.13L302.7,124.57L302.71,125.85L302.71,127.13L303.75,124.57L303.93,125.85L304.04,123.29L304.5,124.57L304.89,125.85L305.37,127.13L305.9,125.85L307.41,120.74L307.73,119.46L308.07,122.02L308.23,116.91L308.35,118.18L308.4,116.91L308.97,118.18L310.15,116.91L310.17,118.18L310.73,115.63L311.09,114.35L311.42,109.24L311.7,110.52L312.09,111.8L312.1,116.91L312.3,114.35L313.37,113.08L314.11,124.57L314.12,123.29L314.22,122.02L314.25,120.74L314.57,132.24L314.73,132.24L314.83,133.51L314.88,142.45L315.4,141.18L315.6,139.9L315.96,141.18L315.99,139.9L316.29,138.62L316.98,136.07L317.56,134.79L318.29,133.51L318.37,132.24L318.43,130.96L319.28,129.68L319.52,130.96L319.52,129.68L320.17,128.4L320.5,132.24L320.61,128.4L321.08,127.13L321.49,123.29L322.15,122.02L322.35,120.74L323.72,119.46L324.42,115.63L324.48,114.35L325.73,106.69L326.74,105.41L329.54,96.47L330.68,95.19L331.49,92.64L332.33,91.36L332.47,88.81L333.24,90.08L333.61,109.24L333.81,107.97L334.1,109.24L334.4,107.97L334.41,110.52L334.77,109.24L335.43,110.52L335.96,109.24L336.71,110.52L337.88,106.69L338.86,105.41L340.18,104.13L340.54,105.41L340.59,106.69L341.63,105.41L342.17,102.86L342.64,104.13L342.82,102.86L343.27,104.13L343.29,105.41L343.29,106.69L343.99,104.13L344.69,105.41L345.14,141.18L345.71,139.9L345.71,141.18L346.17,136.07L346.18,137.34L346.62,138.62L346.8,142.45L347.37,138.62L347.65,137.34L347.67,138.62L348.29,130.96L348.65,129.68L348.77,132.24L349.26,130.96L349.7,129.68L350.72,132.24L351.12,130.96L351.9,129.68L352.01,130.96L353,128.4L353.35,127.13L353.78,128.4L354.16,127.13L354.78,125.85L355.03,124.57L355.24,122.02L356.39,120.74L356.67,119.46L357.8,118.18L359.45,113.08L359.45,114.35L359.48,115.63L360.47,110.52L361.01,111.8L361.88,106.69L361.89,107.97L362.4,106.69L362.45,107.97L363.08,105.41L363.09,104.13L363.2,101.58L364.55,100.3L365.42,97.75L365.45,96.47L366.3,93.92L366.64,92.64L367.61,97.75L368,96.47L368.19,95.19L369.75,92.64L369.97,93.92L371.1,91.36L371.68,90.08L373.28,84.97L373.91,83.7L374.29,82.42L374.51,83.7L374.57,84.97L374.59,83.7L375.49,82.42L376.65,79.87L376.76,78.59L377.78,77.31L377.8,78.59L377.87,96.47L378.53,92.64L378.8,93.92L379.44,91.36L379.69,90.08L380.46,91.36L381.4,90.08L382.04,86.25L382.15,87.53L382.44,86.25L383.76,83.7L384.63,82.42L385.27,79.87L385.27,78.59L385.27,72.2L386.57,70.92L387.63,67.09L389.17,68.37L389.17,70.92L389.6,67.09L389.6,68.37L389.96,67.09L390.47,68.37L390.8,67.09L390.81,65.82L391.07,67.09L391.97,65.82L392.12,64.54L392.12,65.82L393.47,67.09L394.13,65.82L394.18,67.09L394.36,68.37L394.36,69.65L394.99,69.65L395.31,70.92L395.51,84.97L396.52,86.25L397.57,83.7L398.1,82.42L398.23,79.87L398.27,83.7L398.7,84.97L399.95,76.03L399.95,77.31L399.95,76.03L399.98,82.42L400.3,79.87L400.88,78.59L402.22,74.76L403.38,73.48L404.1,69.65L404.83,68.37L405.21,64.54L405.7,67.09L405.96,65.82L407.01,59.43L407.02,60.71L408.48,59.43L409.28,53.04L409.29,54.32L409.29,55.6L410.13,54.32L410.47,55.6L411.19,50.49L411.42,51.76L411.6,50.49L412.27,51.76L413.24,47.93L413.89,46.66L414.52,44.1L414.76,45.38L414.9,46.66L415.22,47.93L415.43,46.66L416.64,47.93L419.09,38.99L419.37,37.71L420.39,36.44L421.14,37.71L422.25,33.88L422.34,32.61L422.4,33.88L422.57,28.77L423.21,30.05L423.29,27.5L424.47,26.22L424.63,23.66L424.82,26.22L425.09,27.5L425.5,26.22L425.67,27.5L425.7,28.77L425.98,31.33L426.53,30.05L427.59,22.39L427.59,24.94L427.64,26.22L428.39,23.66L428.4,24.94L428.61,26.22L429.02,27.5L429.27,24.94L429.55,23.66L429.71,24.94L429.83,22.39L430.16,23.66L430.16,24.94L430.3,27.5L430.82,22.39L431.16,21.11L431.75,18.55L431.75,19.83L431.82,21.11L432.39,16L432.49,18.55L432.76,19.83L432.93,17.28L433.07,28.77L433.07,30.05L433.48,36.44L433.79,24.94L433.86,26.22L434.5,33.88L434.53,30.05L434.65,31.33L436.38,22.39L436.44,23.66L436.58,36.44L437,31.33L437.29,30.05L437.33,32.61L437.87,30.05L438.47,28.77L439.13,32.61L439.41,31.33L439.65,30.05L439.8,32.61L439.88,31.33L440.47,30.05L441.13,40.27L441.16,38.99L441.55,37.71L441.62,36.44L441.95,40.27L442.23,38.99L442.58,37.71L443.01,33.88L443.19,36.44L443.74,35.16L444.17,31.33L444.58,32.61L444.58,33.88L445.17,51.76L445.46,53.04L446.11,49.21L446.97,47.93L447.11,51.76L448.12,53.04L449.24,50.49L449.28,49.21L449.45,50.49L449.83,49.21L450.31,47.93L450.78,45.38L450.9,49.21L451.04,47.93L451.29,46.66L451.95,44.1L452.31,45.38L452.95,51.76L453.18,49.21L453.21,47.93L453.68,51.76L453.93,51.76L454.08,50.49L454.48,41.55L454.86,49.21L454.97,47.93L455.25,44.1L455.37,51.76L455.37,53.04L455.99,44.1L456.11,46.66L456.25,45.38L456.61,41.55L456.83,42.82L457.03,44.1L457.28,41.55L457.45,50.49L457.46,51.76L457.75,69.65L458.19,64.54L458.29,65.82L458.3,67.09L459.07,65.82L459.31,63.26L459.36,72.2L459.37,73.48L459.8,70.92L459.9,72.2L460.32,70.92L460.36,72.2L460.47,69.65L461.1,68.37L461.75,64.54L461.94,63.26L462.7,56.87L462.96,59.43L462.99,60.71L463.15,59.43L463.53,65.82L464.13,64.54L464.26,65.82L464.53,63.26L464.71,64.54L465.06,65.82L465.73,55.6L466.04,54.32L466.06,53.04L466.15,56.87L466.51,54.32L467.02,53.04L467.03,54.32L467.63,44.1L467.67,46.66L468.49,45.38L468.99,41.55L469.57,42.82L469.7,40.27L469.99,46.66L470.37,45.38L470.4,44.1L470.72,42.82L470.99,45.38L471.29,44.1L471.48,46.66L471.85,44.1L472.2,45.38L472.75,38.99L473.11,41.55L473.17,42.82L473.3,41.55L473.33,45.38L473.78,42.82L474.22,41.55L474.23,40.27L474.79,51.76L474.81,49.21L474.96,47.93L476.23,51.76L476.42,50.49L476.68,53.04L477.16,51.76L477.41,50.49L478.44,55.6L478.58,53.04L478.61,51.76L478.73,49.21L479.29,53.04L479.3,53.04L479.65,51.76L479.91,47.93L480.31,51.76L480.34,53.04L480.67,51.76L481.52,72.2L481.81,70.92L483.56,55.6L483.65,56.87L483.73,54.32L483.84,65.82L484.13,64.54L484.13,65.82L484.7,64.54L484.72,65.82L484.99,67.09L485.4,74.76L485.7,72.2L485.85,70.92L485.97,65.82L486.6,67.09L486.62,65.82L486.85,63.26L486.88,68.37L487.05,67.09L487.53,68.37L487.81,69.65L488.11,65.82L488.47,64.54L488.78,68.37L488.8,69.65L489.79,65.82L489.86,67.09L489.86,68.37L491.09,59.43L491.41,61.98L491.41,63.26L491.41,64.54L492,58.15L492.25,56.87L492.87,53.04L493.66,54.32L494.2,67.09L494.62,65.82L494.72,68.37L495.07,60.71L495.24,61.98L495.51,60.71L495.99,68.37L496.71,67.09L496.9,65.82L497.24,68.37L497.24,69.65L497.9,67.09L498.16,81.14L498.25,79.87L498.26,77.31L498.83,84.97L499.12,83.7L499.34,84.97L500.84,83.7L501.44,84.97L501.75,83.7L502.22,84.97L502.23,83.7L502.79,82.42L502.79,81.14L503.06,84.97L503.14,83.7L503.78,82.42L504.01,83.7L504.34,82.42L504.75,81.14L504.83,78.59L504.97,82.42L505.27,81.14L505.81,79.87L505.89,78.59L506.03,82.42L506.33,82.42L506.33,83.7L506.33,84.97L506.87,83.7L507.3,82.42L508.12,79.87L508.43,81.14L509.05,84.97L509.23,83.7L510.04,76.03L510.06,77.31L510.06,78.59L510.07,81.14L510.23,78.59L511.1,79.87L511.1,78.59L511.39,78.59L512.58,77.31L513.14,73.48L513.27,74.76L513.4,76.03L514.61,68.37L515.02,69.65L515.02,70.92L515.33,65.82L515.5,67.09L516.05,65.82L516.63,68.37L516.65,69.65L517.14,68.37L517.21,69.65L517.51,68.37L517.51,67.09L518.24,69.65L518.44,68.37L518.53,67.09L519.47,65.82L520.11,67.09L520.56,65.82L521.33,60.71L521.57,59.43L521.59,60.71L521.75,59.43L522.49,58.15L522.75,60.71L523.22,59.43L523.33,60.71L523.76,55.6L523.92,58.15L524.21,59.43L524.48,55.6L526.31,56.87L526.65,53.04L527.3,54.32L527.56,67.09L528.02,63.26L528.15,64.54L528.28,67.09L528.88,65.82L529.29,64.54L529.61,60.71L530.59,59.43L530.72,56.87L531.77,55.6L532.45,53.04L532.56,51.76L532.69,49.21L534.15,50.49L534.58,69.65L534.88,67.09L534.96,65.82L535.02,68.37L535.78,67.09L536.75,63.26L536.75,64.54L537.49,70.92L537.54,69.65L538.07,65.82L538.12,64.54L538.63,63.26L538.65,64.54L538.67,65.82L539.13,63.26L539.96,61.98L540,60.71" style="vector-effect: none; fill: none; stroke: rgb(255, 127, 14); stroke-opacity: 1; stroke-width: 2px; opacity: 1;"/></g><g class="points"/><g class="text"/></g></g></g></g><g class="zerolinelayer-above"/><path class="xlines-above crisp" d="M0,0" style="fill: none;"/><path class="ylines-above crisp" d="M0,0" style="fill: none;"/><g class="overlines-above"/><g class="xaxislayer-above"><g class="xtick"><text text-anchor="middle" x="0" y="439" transform="translate(101.48,0)" style="font-family: 'Open Sans'; font-size: 18px; fill: rgb(255, 255, 255); fill-opacity: 1; white-space: pre;">2016</text></g><g class="xtick"><text text-anchor="middle" x="0" y="439" style="font-family: 'Open Sans'; font-size: 18px; fill: rgb(255, 255, 255); fill-opacity: 1; white-space: pre;" transform="translate(208.08,0)">2018</text></g><g class="xtick"><text text-anchor="middle" x="0" y="439" style="font-family: 'Open Sans'; font-size: 18px; fill: rgb(255, 255, 255); fill-opacity: 1; white-space: pre;" transform="translate(314.53,0)">2020</text></g><g class="xtick"><text text-anchor="middle" x="0" y="439" style="font-family: 'Open Sans'; font-size: 18px; fill: rgb(255, 255, 255); fill-opacity: 1; white-space: pre;" transform="translate(421.13,0)">2022</text></g><g class="xtick"><text text-anchor="middle" x="0" y="439" style="font-family: 'Open Sans'; font-size: 18px; fill: rgb(255, 255, 255); fill-opacity: 1; white-space: pre;" transform="translate(527.5799999999999,0)">2024</text></g></g><g class="yaxislayer-above"><g class="ytick"><text text-anchor="end" x="79" y="6.3" transform="translate(0,420)" style="font-family: 'Open Sans'; font-size: 18px; fill: rgb(255, 255, 255); fill-opacity: 1; white-space: pre;">0</text></g><g class="ytick"><text text-anchor="end" x="79" y="6.3" style="font-family: 'Open Sans'; font-size: 18px; fill: rgb(255, 255, 255); fill-opacity: 1; white-space: pre;" transform="translate(0,356.13)">50</text></g><g class="ytick"><text text-anchor="end" x="79" y="6.3" style="font-family: 'Open Sans'; font-size: 18px; fill: rgb(255, 255, 255); fill-opacity: 1; white-space: pre;" transform="translate(0,292.27)">100</text></g><g class="ytick"><text text-anchor="end" x="79" y="6.3" style="font-family: 'Open Sans'; font-size: 18px; fill: rgb(255, 255, 255); fill-opacity: 1; white-space: pre;" transform="translate(0,228.4)">150</text></g><g class="ytick"><text text-anchor="end" x="79" y="6.3" style="font-family: 'Open Sans'; font-size: 18px; fill: rgb(255, 255, 255); fill-opacity: 1; white-space: pre;" transform="translate(0,164.54000000000002)">200</text></g><g class="ytick"><text text-anchor="end" x="79" y="6.3" style="font-family: 'Open Sans'; font-size: 18px; fill: rgb(255, 255, 255); fill-opacity: 1; white-space: pre;" transform="translate(0,100.67)">250</text></g></g><g class="overaxes-above"/></g></g><g class="polarlayer"/><g class="smithlayer"/><g class="ternarylayer"/><g class="geolayer"/><g class="funnelarealayer"/><g class="pielayer"/><g class="iciclelayer"/><g class="treemaplayer"/><g class="sunburstlayer"/><g class="glimages"/><defs id="topdefs-6e3080"><g class="clips"/></defs><g class="layer-above"><g class="imagelayer"/><g class="shapelayer"/></g><g class="infolayer"><g class="g-gtitle"><text class="gtitle" x="35" y="50" text-anchor="start" dy="0em" style="opacity: 1; font-family: 'Open Sans'; font-size: 25px; fill: rgb(255, 255, 255); fill-opacity: 1; white-space: pre;">MultiQC/MultiQC - Open Issues Over Time</text></g><g class="g-xtitle"><text class="xtitle" x="350" y="472.9" text-anchor="middle" style="opacity: 1; font-family: 'Open Sans'; font-size: 22px; fill: rgb(255, 255, 255); fill-opacity: 1; white-space: pre;">Date</text></g><g class="g-ytitle"><text class="ytitle" transform="rotate(-90,29.799999999999997,260)" x="29.799999999999997" y="260" text-anchor="middle" style="opacity: 1; font-family: 'Open Sans'; font-size: 22px; fill: rgb(255, 255, 255); fill-opacity: 1; white-space: pre;">Number of Open Issues</text></g></g></svg>