<svg class="main-svg" xmlns="http://www.w3.org/2000/svg" xmlns:xlink="http://www.w3.org/1999/xlink" width="700" height="500" style="" viewBox="0 0 700 500"><rect x="0" y="0" width="700" height="500" style="fill: rgb(0, 0, 0); fill-opacity: 0;"/><defs id="defs-7066ee"><g class="clips"><clipPath id="clip7066eexyplot" class="plotclip"><rect width="540" height="320"/></clipPath><clipPath class="axesclip" id="clip7066eex"><rect x="80" y="0" width="540" height="500"/></clipPath><clipPath class="axesclip" id="clip7066eey"><rect x="0" y="100" width="700" height="320"/></clipPath><clipPath class="axesclip" id="clip7066eexy"><rect x="80" y="100" width="540" height="320"/></clipPath></g><g class="gradients"/><g class="patterns"/></defs><g class="bglayer"><rect class="bg" x="80" y="100" width="540" height="320" style="fill: rgb(0, 0, 0); fill-opacity: 0; stroke-width: 0;"/></g><g class="layer-below"><g class="imagelayer"/><g class="shapelayer"/></g><g class="cartesianlayer"><g class="subplot xy"><g class="layer-subplot"><g class="shapelayer"/><g class="imagelayer"/></g><g class="minor-gridlayer"><g class="x"/><g class="y"/></g><g class="gridlayer"><g class="x"><path class="xgrid crisp" transform="translate(100.98,0)" d="M0,100v320" style="stroke: rgb(255, 255, 255); stroke-opacity: 1; stroke-width: 1px;"/><path class="xgrid crisp" transform="translate(205.12,0)" d="M0,100v320" style="stroke: rgb(255, 255, 255); stroke-opacity: 1; stroke-width: 1px;"/><path class="xgrid crisp" transform="translate(309.11,0)" d="M0,100v320" style="stroke: rgb(255, 255, 255); stroke-opacity: 1; stroke-width: 1px;"/><path class="xgrid crisp" transform="translate(413.24,0)" d="M0,100v320" style="stroke: rgb(255, 255, 255); stroke-opacity: 1; stroke-width: 1px;"/><path class="xgrid crisp" transform="translate(517.23,0)" d="M0,100v320" style="stroke: rgb(255, 255, 255); stroke-opacity: 1; stroke-width: 1px;"/></g><g class="y"><path class="ygrid crisp" transform="translate(0,336.76)" d="M80,0h540" style="stroke: rgb(255, 255, 255); stroke-opacity: 1; stroke-width: 1px;"/><path class="ygrid crisp" transform="translate(0,253.52)" d="M80,0h540" style="stroke: rgb(255, 255, 255); stroke-opacity: 1; stroke-width: 1px;"/><path class="ygrid crisp" transform="translate(0,170.26999999999998)" d="M80,0h540" style="stroke: rgb(255, 255, 255); stroke-opacity: 1; stroke-width: 1px;"/></g></g><g class="zerolinelayer"><path class="yzl zl crisp" transform="translate(0,420)" d="M80,0h540" style="stroke: rgb(255, 255, 255); stroke-opacity: 1; stroke-width: 2px;"/></g><g class="layer-between"><g class="shapelayer"/><g class="imagelayer"/></g><path class="xlines-below"/><path class="ylines-below"/><g class="overlines-below"/><g class="xaxislayer-below"/><g class="yaxislayer-below"/><g class="overaxes-below"/><g class="overplot"><g class="xy" transform="translate(80,100)" clip-path="url(#clip7066eexyplot)"><g class="scatterlayer mlayer"><g class="trace scatter trace836153" style="stroke-miterlimit: 2;"><g class="fills"><g><path class="js-fill" d="M540,320L0,320L0,319.83L0,319.5L1.96,319.33L3.82,318.34L4.53,318.17L5.13,317L5.52,316.84L6.11,315.84L6.42,315.67L8.54,312.18L8.94,312.01L10.09,311.01L10.09,310.84L10.97,310.01L11.65,309.84L12.66,307.68L12.67,307.51L12.94,306.85L13.43,306.68L14.11,305.18L14.63,305.02L15.79,304.52L17.02,304.35L18.49,303.19L18.63,303.02L23.93,302.02L24.77,301.85L25.92,301.35L26.48,301.19L27.63,299.86L29.5,299.69L32.47,297.86L33.68,297.69L37.61,294.86L37.63,294.69L37.92,294.03L38.56,293.86L40.74,291.7L40.74,291.53L41.42,290.87L41.72,290.7L43.98,288.7L45.27,288.53L47.43,286.54L47.57,286.37L47.94,285.7L48.6,285.54L51.92,283.87L52.85,283.71L55.93,282.21L55.94,282.04L58.24,280.71L58.52,280.54L59.84,279.21L61.43,279.04L64.72,276.05L64.81,275.88L64.93,275.55L65.7,275.38L68.29,274.05L68.33,273.88L68.64,273.55L69.39,273.38L70.55,273.05L71.51,272.88L72.34,271.72L72.74,271.55L78.64,269.56L78.76,269.39L80.35,268.39L80.87,268.22L81.66,267.06L81.86,266.89L84.49,265.73L84.72,265.56L84.75,265.23L85.6,265.06L86.32,264.23L86.59,264.06L87.28,263.56L87.63,263.4L87.63,263.06L88.71,262.9L88.74,262.56L89.59,262.4L93.82,261.06L94.3,260.9L95.4,260.23L95.71,260.07L100.28,258.07L100.29,257.9L101.54,256.9L101.54,256.74L102.28,254.41L102.57,254.24L108.81,250.91L109.38,250.74L109.79,250.08L110.22,249.91L112.2,248.91L113.5,248.74L118.11,246.91L118.8,246.75L121.5,245.58L121.66,245.42L122.45,244.92L122.64,244.75L123.5,244.08L125.51,243.92L135.4,237.42L136.48,237.26L138.74,236.42L139.19,236.26L140.56,234.93L140.69,234.76L141.15,234.09L141.72,233.93L149.89,229.93L151.14,229.77L151.18,229.6L152.27,229.43L153.4,228.1L154.29,227.93L154.54,227.6L155.07,227.43L160.08,225.94L160.23,225.77L161.05,225.1L161.21,224.94L173.32,219.78L173.47,219.61L173.58,219.28L175.38,219.11L181.19,216.95L181.29,216.78L185.85,215.12L186.01,214.95L186.59,214.28L187.17,214.12L187.47,213.78L188.46,213.62L189.2,213.28L189.39,213.12L190.16,212.45L190.3,212.28L190.63,211.62L191.45,211.45L193.45,209.79L194.29,209.62L195.61,208.46L196.17,208.29L203.28,206.62L203.52,206.46L207.11,205.29L207.14,205.13L209.39,204.13L211.16,203.96L212.39,203.63L213.23,203.46L216.94,201.96L217.22,201.8L223.09,197.97L223.14,197.8L223.89,197.47L224.05,197.3L227.01,194.47L228.05,194.3L230.34,193.31L230.48,193.14L231.07,192.81L233.19,192.64L238.91,190.97L238.99,190.81L239.15,190.48L239.88,190.31L242,188.81L242.06,188.64L244.27,187.81L244.91,187.65L245.56,186.98L246.13,186.81L246.86,185.98L247.29,185.81L248,184.98L248.09,184.81L248.98,184.15L249.24,183.98L250.12,183.15L250.14,182.98L252.85,181.49L253.09,181.32L255.2,179.82L255.86,179.65L257.19,178.65L257.85,178.49L259.42,176.99L260.01,176.82L261.11,175.99L261.64,175.82L267.42,172.16L267.94,172L268.2,171.66L268.87,171.5L272.08,169.33L272.36,169.17L272.76,168.83L273.22,168.67L273.89,168.33L275.06,168.17L276.42,167.5L277.89,167.33L278.18,166.83L281.74,166.67L288.18,165.17L288.19,165L291.63,163.5L291.69,163.34L295.18,161.51L295.7,161.34L295.99,160.84L296.73,160.67L298.83,160.01L299.27,159.84L300.99,158.51L301.02,158.34L301.74,157.84L302.98,157.68L305.08,155.68L306.12,155.51L307.02,154.02L307.09,153.85L307.78,153.35L308.11,153.18L311.07,151.35L311.9,151.19L314.9,149.02L316.24,148.85L317.78,147.52L317.93,147.36L321.92,145.69L323.04,145.52L323.82,145.19L324.65,145.03L324.79,144.69L325.9,144.53L326.67,143.69L327.03,143.53L335.75,141.53L336.04,141.36L338.88,140.2L338.9,140.03L340.17,138.87L340.24,138.7L343,138.03L343.77,137.87L345.99,136.7L346.58,136.53L348.42,135.7L349.53,135.54L354.75,132.21L354.81,132.04L357.72,131.04L357.83,130.87L361.67,129.71L362.52,129.54L369.49,126.88L369.65,126.71L370.91,125.88L371.47,125.71L375.74,124.38L376.36,124.21L376.36,123.05L377.63,122.88L378.67,122.38L380.5,122.22L380.95,121.72L381.77,121.55L381.78,121.38L382.91,121.22L383.05,121.05L384.61,120.88L389.65,118.89L389.76,118.72L392.92,116.39L394.05,116.22L394.76,115.72L395.47,115.56L397.11,114.06L397.57,113.89L397.61,113.73L399.04,113.56L399.82,112.73L400.65,112.56L407.7,109.9L408.4,109.73L412.7,107.73L412.72,107.57L413.5,107.07L414.65,106.9L415.86,106.23L416.67,106.07L423.76,100.07L423.76,99.91L424.49,98.41L424.75,98.24L429.71,94.41L430.29,94.25L431.91,92.58L432.35,92.42L433.9,91.25L434.39,91.08L435.44,90.25L435.61,90.09L436.64,89.75L438.44,89.59L442.71,87.09L442.73,86.92L443.58,85.26L443.61,85.09L446.71,79.26L447.27,79.1L447.6,78.43L448.46,78.27L449.83,76.77L450.44,76.6L451.08,76.1L451.26,75.93L453.79,74.1L454.32,73.94L455.73,71.11L456.22,70.94L458.15,68.94L458.79,68.78L459.84,67.44L460.4,67.28L461.71,65.78L461.82,65.61L463.66,63.95L463.67,63.78L465.41,62.78L466.13,62.62L470.27,59.29L470.31,59.12L470.76,58.29L471.39,58.12L473.5,55.29L473.8,55.12L474.63,53.29L474.74,53.13L476.38,51.96L476.41,51.79L480.6,48.63L480.62,48.46L483.6,46.47L483.6,46.3L484.45,45.3L485.22,45.13L487.58,43.47L489.26,43.3L489.31,43.14L490.15,42.97L494.12,40.81L494.2,40.64L498.29,38.14L498.43,37.98L501.63,36.64L501.77,36.48L507.7,33.48L508.52,33.31L509.28,32.65L509.51,32.48L509.69,32.15L510.41,31.98L512.29,30.82L512.36,30.65L515.39,29.65L515.44,29.49L516.65,28.15L517.05,27.99L517.37,27.49L518.32,27.32L518.45,26.99L519.48,26.82L523.47,24.99L523.64,24.82L526.18,23.33L526.22,23.16L537.58,18.83L537.61,18.66L539.15,17.33L539.15,17.17L539.59,16.17L540,16" style="fill: rgb(255, 127, 14); fill-opacity: 0.5; stroke-width: 0;"/></g></g><g class="errorbars"/><g class="lines"><path class="js-line" d="M0,319.83L0,319.5L1.96,319.33L3.82,318.34L4.53,318.17L5.13,317L5.52,316.84L6.11,315.84L6.42,315.67L8.54,312.18L8.94,312.01L10.09,311.01L10.09,310.84L10.97,310.01L11.65,309.84L12.66,307.68L12.67,307.51L12.94,306.85L13.43,306.68L14.11,305.18L14.63,305.02L15.79,304.52L17.02,304.35L18.49,303.19L18.63,303.02L23.93,302.02L24.77,301.85L25.92,301.35L26.48,301.19L27.63,299.86L29.5,299.69L32.47,297.86L33.68,297.69L37.61,294.86L37.63,294.69L37.92,294.03L38.56,293.86L40.74,291.7L40.74,291.53L41.42,290.87L41.72,290.7L43.98,288.7L45.27,288.53L47.43,286.54L47.57,286.37L47.94,285.7L48.6,285.54L51.92,283.87L52.85,283.71L55.93,282.21L55.94,282.04L58.24,280.71L58.52,280.54L59.84,279.21L61.43,279.04L64.72,276.05L64.81,275.88L64.93,275.55L65.7,275.38L68.29,274.05L68.33,273.88L68.64,273.55L69.39,273.38L70.55,273.05L71.51,272.88L72.34,271.72L72.74,271.55L78.64,269.56L78.76,269.39L80.35,268.39L80.87,268.22L81.66,267.06L81.86,266.89L84.49,265.73L84.72,265.56L84.75,265.23L85.6,265.06L86.32,264.23L86.59,264.06L87.28,263.56L87.63,263.4L87.63,263.06L88.71,262.9L88.74,262.56L89.59,262.4L93.82,261.06L94.3,260.9L95.4,260.23L95.71,260.07L100.28,258.07L100.29,257.9L101.54,256.9L101.54,256.74L102.28,254.41L102.57,254.24L108.81,250.91L109.38,250.74L109.79,250.08L110.22,249.91L112.2,248.91L113.5,248.74L118.11,246.91L118.8,246.75L121.5,245.58L121.66,245.42L122.45,244.92L122.64,244.75L123.5,244.08L125.51,243.92L135.4,237.42L136.48,237.26L138.74,236.42L139.19,236.26L140.56,234.93L140.69,234.76L141.15,234.09L141.72,233.93L149.89,229.93L151.14,229.77L151.18,229.6L152.27,229.43L153.4,228.1L154.29,227.93L154.54,227.6L155.07,227.43L160.08,225.94L160.23,225.77L161.05,225.1L161.21,224.94L173.32,219.78L173.47,219.61L173.58,219.28L175.38,219.11L181.19,216.95L181.29,216.78L185.85,215.12L186.01,214.95L186.59,214.28L187.17,214.12L187.47,213.78L188.46,213.62L189.2,213.28L189.39,213.12L190.16,212.45L190.3,212.28L190.63,211.62L191.45,211.45L193.45,209.79L194.29,209.62L195.61,208.46L196.17,208.29L203.28,206.62L203.52,206.46L207.11,205.29L207.14,205.13L209.39,204.13L211.16,203.96L212.39,203.63L213.23,203.46L216.94,201.96L217.22,201.8L223.09,197.97L223.14,197.8L223.89,197.47L224.05,197.3L227.01,194.47L228.05,194.3L230.34,193.31L230.48,193.14L231.07,192.81L233.19,192.64L238.91,190.97L238.99,190.81L239.15,190.48L239.88,190.31L242,188.81L242.06,188.64L244.27,187.81L244.91,187.65L245.56,186.98L246.13,186.81L246.86,185.98L247.29,185.81L248,184.98L248.09,184.81L248.98,184.15L249.24,183.98L250.12,183.15L250.14,182.98L252.85,181.49L253.09,181.32L255.2,179.82L255.86,179.65L257.19,178.65L257.85,178.49L259.42,176.99L260.01,176.82L261.11,175.99L261.64,175.82L267.42,172.16L267.94,172L268.2,171.66L268.87,171.5L272.08,169.33L272.36,169.17L272.76,168.83L273.22,168.67L273.89,168.33L275.06,168.17L276.42,167.5L277.89,167.33L278.18,166.83L281.74,166.67L288.18,165.17L288.19,165L291.63,163.5L291.69,163.34L295.18,161.51L295.7,161.34L295.99,160.84L296.73,160.67L298.83,160.01L299.27,159.84L300.99,158.51L301.02,158.34L301.74,157.84L302.98,157.68L305.08,155.68L306.12,155.51L307.02,154.02L307.09,153.85L307.78,153.35L308.11,153.18L311.07,151.35L311.9,151.19L314.9,149.02L316.24,148.85L317.78,147.52L317.93,147.36L321.92,145.69L323.04,145.52L323.82,145.19L324.65,145.03L324.79,144.69L325.9,144.53L326.67,143.69L327.03,143.53L335.75,141.53L336.04,141.36L338.88,140.2L338.9,140.03L340.17,138.87L340.24,138.7L343,138.03L343.77,137.87L345.99,136.7L346.58,136.53L348.42,135.7L349.53,135.54L354.75,132.21L354.81,132.04L357.72,131.04L357.83,130.87L361.67,129.71L362.52,129.54L369.49,126.88L369.65,126.71L370.91,125.88L371.47,125.71L375.74,124.38L376.36,124.21L376.36,123.05L377.63,122.88L378.67,122.38L380.5,122.22L380.95,121.72L381.77,121.55L381.78,121.38L382.91,121.22L383.05,121.05L384.61,120.88L389.65,118.89L389.76,118.72L392.92,116.39L394.05,116.22L394.76,115.72L395.47,115.56L397.11,114.06L397.57,113.89L397.61,113.73L399.04,113.56L399.82,112.73L400.65,112.56L407.7,109.9L408.4,109.73L412.7,107.73L412.72,107.57L413.5,107.07L414.65,106.9L415.86,106.23L416.67,106.07L423.76,100.07L423.76,99.91L424.49,98.41L424.75,98.24L429.71,94.41L430.29,94.25L431.91,92.58L432.35,92.42L433.9,91.25L434.39,91.08L435.44,90.25L435.61,90.09L436.64,89.75L438.44,89.59L442.71,87.09L442.73,86.92L443.58,85.26L443.61,85.09L446.71,79.26L447.27,79.1L447.6,78.43L448.46,78.27L449.83,76.77L450.44,76.6L451.08,76.1L451.26,75.93L453.79,74.1L454.32,73.94L455.73,71.11L456.22,70.94L458.15,68.94L458.79,68.78L459.84,67.44L460.4,67.28L461.71,65.78L461.82,65.61L463.66,63.95L463.67,63.78L465.41,62.78L466.13,62.62L470.27,59.29L470.31,59.12L470.76,58.29L471.39,58.12L473.5,55.29L473.8,55.12L474.63,53.29L474.74,53.13L476.38,51.96L476.41,51.79L480.6,48.63L480.62,48.46L483.6,46.47L483.6,46.3L484.45,45.3L485.22,45.13L487.58,43.47L489.26,43.3L489.31,43.14L490.15,42.97L494.12,40.81L494.2,40.64L498.29,38.14L498.43,37.98L501.63,36.64L501.77,36.48L507.7,33.48L508.52,33.31L509.28,32.65L509.51,32.48L509.69,32.15L510.41,31.98L512.29,30.82L512.36,30.65L515.39,29.65L515.44,29.49L516.65,28.15L517.05,27.99L517.37,27.49L518.32,27.32L518.45,26.99L519.48,26.82L523.47,24.99L523.64,24.82L526.18,23.33L526.22,23.16L537.58,18.83L537.61,18.66L539.15,17.33L539.15,17.17L539.59,16.17L540,16" style="vector-effect: none; fill: none; stroke: rgb(255, 127, 14); stroke-opacity: 1; stroke-width: 2px; opacity: 1;"/></g><g class="points"/><g class="text"/></g></g></g></g><g class="zerolinelayer-above"/><path class="xlines-above crisp" d="M0,0" style="fill: none;"/><path class="ylines-above crisp" d="M0,0" style="fill: none;"/><g class="overlines-above"/><g class="xaxislayer-above"><g class="xtick"><text text-anchor="middle" x="0" y="439" transform="translate(100.98,0)" style="font-family: 'Open Sans'; font-size: 18px; fill: rgb(0, 0, 0); fill-opacity: 1; white-space: pre;">2016</text></g><g class="xtick"><text text-anchor="middle" x="0" y="439" style="font-family: 'Open Sans'; font-size: 18px; fill: rgb(0, 0, 0); fill-opacity: 1; white-space: pre;" transform="translate(205.12,0)">2018</text></g><g class="xtick"><text text-anchor="middle" x="0" y="439" style="font-family: 'Open Sans'; font-size: 18px; fill: rgb(0, 0, 0); fill-opacity: 1; white-space: pre;" transform="translate(309.11,0)">2020</text></g><g class="xtick"><text text-anchor="middle" x="0" y="439" style="font-family: 'Open Sans'; font-size: 18px; fill: rgb(0, 0, 0); fill-opacity: 1; white-space: pre;" transform="translate(413.24,0)">2022</text></g><g class="xtick"><text text-anchor="middle" x="0" y="439" style="font-family: 'Open Sans'; font-size: 18px; fill: rgb(0, 0, 0); fill-opacity: 1; white-space: pre;" transform="translate(517.23,0)">2024</text></g></g><g class="yaxislayer-above"><g class="ytick"><text text-anchor="end" x="79" y="6.3" transform="translate(0,420)" style="font-family: 'Open Sans'; font-size: 18px; fill: rgb(0, 0, 0); fill-opacity: 1; white-space: pre;">0</text></g><g class="ytick"><text text-anchor="end" x="79" y="6.3" style="font-family: 'Open Sans'; font-size: 18px; fill: rgb(0, 0, 0); fill-opacity: 1; white-space: pre;" transform="translate(0,336.76)">500</text></g><g class="ytick"><text text-anchor="end" x="79" y="6.3" style="font-family: 'Open Sans'; font-size: 18px; fill: rgb(0, 0, 0); fill-opacity: 1; white-space: pre;" transform="translate(0,253.52)">1000</text></g><g class="ytick"><text text-anchor="end" x="79" y="6.3" style="font-family: 'Open Sans'; font-size: 18px; fill: rgb(0, 0, 0); fill-opacity: 1; white-space: pre;" transform="translate(0,170.26999999999998)">1500</text></g></g><g class="overaxes-above"/></g></g><g class="polarlayer"/><g class="smithlayer"/><g class="ternarylayer"/><g class="geolayer"/><g class="funnelarealayer"/><g class="pielayer"/><g class="iciclelayer"/><g class="treemaplayer"/><g class="sunburstlayer"/><g class="glimages"/><defs id="topdefs-7066ee"><g class="clips"/></defs><g class="layer-above"><g class="imagelayer"/><g class="shapelayer"/></g><g class="infolayer"><g class="g-gtitle"><text class="gtitle" x="35" y="50" text-anchor="start" dy="0em" style="opacity: 1; font-family: 'Open Sans'; font-size: 25px; fill: rgb(0, 0, 0); fill-opacity: 1; white-space: pre;">MultiQC/MultiQC - Issues Created Over Time</text></g><g class="g-xtitle"><text class="xtitle" x="350" y="472.9" text-anchor="middle" style="opacity: 1; font-family: 'Open Sans'; font-size: 22px; fill: rgb(0, 0, 0); fill-opacity: 1; white-space: pre;">Date</text></g><g class="g-ytitle"><text class="ytitle" transform="rotate(-90,20.799999999999997,260)" x="20.799999999999997" y="260" text-anchor="middle" style="opacity: 1; font-family: 'Open Sans'; font-size: 22px; fill: rgb(0, 0, 0); fill-opacity: 1; white-space: pre;">Cumulative Issues Created</text></g></g></svg>