<svg class="main-svg" xmlns="http://www.w3.org/2000/svg" xmlns:xlink="http://www.w3.org/1999/xlink" width="700" height="500" style="" viewBox="0 0 700 500"><rect x="0" y="0" width="700" height="500" style="fill: rgb(0, 0, 0); fill-opacity: 0;"/><defs id="defs-4d52e6"><g class="clips"><clipPath id="clip4d52e6xyplot" class="plotclip"><rect width="540" height="320"/></clipPath><clipPath class="axesclip" id="clip4d52e6x"><rect x="80" y="0" width="540" height="500"/></clipPath><clipPath class="axesclip" id="clip4d52e6y"><rect x="0" y="100" width="700" height="320"/></clipPath><clipPath class="axesclip" id="clip4d52e6xy"><rect x="80" y="100" width="540" height="320"/></clipPath></g><g class="gradients"/><g class="patterns"/></defs><g class="bglayer"><rect class="bg" x="80" y="100" width="540" height="320" style="fill: rgb(0, 0, 0); fill-opacity: 0; stroke-width: 0;"/></g><g class="layer-below"><g class="imagelayer"/><g class="shapelayer"/></g><g class="cartesianlayer"><g class="subplot xy"><g class="layer-subplot"><g class="shapelayer"/><g class="imagelayer"/></g><g class="minor-gridlayer"><g class="x"/><g class="y"/></g><g class="gridlayer"><g class="x"><path class="xgrid crisp" transform="translate(100.47,0)" d="M0,100v320" style="stroke: rgb(255, 255, 255); stroke-opacity: 1; stroke-width: 1px;"/><path class="xgrid crisp" transform="translate(202.07,0)" d="M0,100v320" style="stroke: rgb(255, 255, 255); stroke-opacity: 1; stroke-width: 1px;"/><path class="xgrid crisp" transform="translate(303.53999999999996,0)" d="M0,100v320" style="stroke: rgb(255, 255, 255); stroke-opacity: 1; stroke-width: 1px;"/><path class="xgrid crisp" transform="translate(405.14,0)" d="M0,100v320" style="stroke: rgb(255, 255, 255); stroke-opacity: 1; stroke-width: 1px;"/><path class="xgrid crisp" transform="translate(506.6,0)" d="M0,100v320" style="stroke: rgb(255, 255, 255); stroke-opacity: 1; stroke-width: 1px;"/><path class="xgrid crisp" transform="translate(608.2,0)" d="M0,100v320" style="stroke: rgb(255, 255, 255); stroke-opacity: 1; stroke-width: 1px;"/></g><g class="y"><path class="ygrid crisp" transform="translate(0,337.78999999999996)" d="M80,0h540" style="stroke: rgb(255, 255, 255); stroke-opacity: 1; stroke-width: 1px;"/><path class="ygrid crisp" transform="translate(0,255.59)" d="M80,0h540" style="stroke: rgb(255, 255, 255); stroke-opacity: 1; stroke-width: 1px;"/><path class="ygrid crisp" transform="translate(0,173.38)" d="M80,0h540" style="stroke: rgb(255, 255, 255); stroke-opacity: 1; stroke-width: 1px;"/></g></g><g class="zerolinelayer"><path class="yzl zl crisp" transform="translate(0,420)" d="M80,0h540" style="stroke: rgb(255, 255, 255); stroke-opacity: 1; stroke-width: 2px;"/></g><g class="layer-between"><g class="shapelayer"/><g class="imagelayer"/></g><path class="xlines-below"/><path class="ylines-below"/><g class="overlines-below"/><g class="xaxislayer-below"/><g class="yaxislayer-below"/><g class="overaxes-below"/><g class="overplot"><g class="xy" transform="translate(80,100)" clip-path="url(#clip4d52e6xyplot)"><g class="scatterlayer mlayer"><g class="trace scatter trace18b38b" style="stroke-miterlimit: 2;"><g class="fills"><g><path class="js-fill" d="M540,320L0,320L0,319.84L0,319.51L1.91,319.34L3.73,318.36L4.42,318.19L5.01,317.04L5.38,316.88L5.97,315.89L6.26,315.73L8.33,312.27L8.72,312.11L9.84,311.12L9.84,310.96L10.7,310.14L11.37,309.97L12.36,307.83L12.36,307.67L13.1,306.68L13.33,306.52L13.76,305.37L14.27,305.2L15.41,304.71L16.61,304.55L18.04,303.39L18.18,303.23L23.34,302.24L24.17,302.08L25.29,301.59L25.84,301.42L26.95,300.11L28.78,299.94L31.68,298.13L32.86,297.97L36.7,295.17L36.71,295.01L37,294.35L37.62,294.19L39.75,292.05L39.75,291.89L40.42,291.23L40.7,291.06L42.91,289.09L44.17,288.93L46.41,286.79L46.42,286.62L51.57,284.16L52.21,283.99L53.22,283.01L54.34,282.84L58.39,279.72L59.94,279.55L63.14,276.59L63.24,276.43L63.35,276.1L64.1,275.94L66.63,274.62L66.67,274.46L66.97,274.13L67.71,273.96L68.84,273.64L69.77,273.47L70.58,272.32L70.97,272.16L76.73,270.18L76.84,270.02L78.39,269.03L78.9,268.87L79.67,267.72L79.87,267.55L82.43,266.4L82.66,266.24L82.69,265.91L83.52,265.74L84.22,264.92L84.48,264.76L85.16,264.26L85.49,264.1L85.5,263.77L86.56,263.61L86.58,263.28L87.41,263.11L91.54,261.8L92.01,261.63L93.08,260.98L93.38,260.81L97.84,258.84L97.85,258.67L99.07,257.69L99.07,257.52L99.79,255.22L100.08,255.06L104.89,252.26L105.74,252.1L108.05,250.29L108.5,250.12L115.91,247.66L116.88,247.49L118.7,246.34L118.73,246.18L123.45,243.88L123.55,243.71L124.45,243.22L124.84,243.05L130.5,239.27L130.51,239.11L137.14,235.98L137.27,235.82L137.71,235.16L138.27,235L146.25,231.05L147.46,230.89L147.5,230.72L148.57,230.56L149.67,229.24L150.54,229.08L150.78,228.75L151.3,228.59L156.19,227.11L156.33,226.94L157.13,226.28L157.29,226.12L168.85,221.35L168.88,221.19L169.36,220.53L171.12,220.37L181.1,216.75L181.19,216.58L182.91,215.1L183.87,214.94L184.6,214.61L184.79,214.45L185.53,213.79L185.67,213.62L185.99,212.97L186.79,212.8L188.74,211.16L189.56,210.99L190.85,209.84L191.4,209.68L199.94,207.71L200.25,207.54L201.21,207.21L201.92,207.05L202.56,206.23L203.38,206.06L210.26,203.92L210.48,203.76L213.59,202.44L213.66,202.28L215.99,200.47L216.53,200.31L219.01,198.17L219.03,198.01L221.33,196.53L221.37,196.36L221.49,196.03L222.5,195.87L224.74,194.88L224.87,194.72L225.45,194.39L227.52,194.22L233.1,192.58L233.17,192.42L234.05,191.92L234.36,191.76L236,190.77L236.1,190.61L236.8,189.95L237.95,189.78L239.59,188.63L240.15,188.47L240.86,187.65L241.28,187.48L241.96,186.66L242.06,186.5L242.92,185.84L243.18,185.67L244.04,184.85L244.05,184.69L246.94,183.04L247.07,182.88L248.08,181.89L248.5,181.73L251.69,179.92L251.95,179.76L260.92,174L261.43,173.84L261.68,173.51L262.33,173.34L265.24,171.37L265.47,171.21L269.08,169.56L269.69,169.4L280.98,167.42L280.99,167.26L281.93,166.6L282.9,166.44L284.6,165.29L284.82,165.12L288.79,162.82L289.51,162.66L291.56,162L291.99,161.83L293.67,160.52L293.7,160.35L294.4,159.86L295.61,159.7L297.66,157.72L298.68,157.56L299.55,156.08L299.62,155.92L300.29,155.42L300.62,155.26L303.51,153.45L304.31,153.29L307.24,151.15L308.55,150.98L310.05,149.67L310.2,149.5L314.09,147.86L315.18,147.69L315.95,147.37L316.75,147.2L316.89,146.87L317.97,146.71L318.72,145.89L319.08,145.72L326.75,143.91L327.58,143.75L333.31,140.46L334.66,140.3L338.15,138.82L338.39,138.65L339.68,138.16L339.95,137.99L342.99,136.84L343.14,136.68L343.57,136.02L344.23,135.86L344.92,135.36L345.41,135.2L350.36,132.9L350.75,132.73L352.42,132.24L352.88,132.08L358.99,130.1L359.1,129.94L360.79,128.95L361.05,128.79L361.66,128.46L361.89,128.29L367.21,126.16L367.21,125.99L367.21,125.5L368.45,125.33L369.46,124.84L371.25,124.68L371.68,124.18L372.48,124.02L372.49,123.86L373.6,123.69L373.74,123.53L375.25,123.36L380.28,121.22L380.54,121.06L381.35,120.07L381.37,119.91L382.4,119.25L383.19,119.09L384.96,118.43L385.16,118.27L387.07,117.11L387.35,116.95L387.94,116.29L389.34,116.13L390.1,115.31L390.9,115.14L400.68,111.36L401.9,111.2L402.68,110.21L402.77,110.04L407.14,108.24L407.24,108.07L413.45,102.81L413.45,102.65L414.16,101.17L414.42,101L418.81,97.71L419.02,97.55L419.82,97.06L419.92,96.89L421.1,95.74L421.33,95.58L422.24,94.75L422.94,94.59L424.29,93.44L424.78,93.27L425.2,92.78L426.02,92.62L429.3,91.63L429.44,91.47L432.62,88.67L432.64,88.51L433.17,86.53L433.52,86.37L434.86,83.24L434.88,83.08L437.69,80.94L437.78,80.78L441.59,77.65L442.37,77.49L443.52,76.01L443.55,75.85L444.65,74.2L445.13,74.04L447.01,72.06L447.64,71.9L448.47,70.75L448.66,70.59L450.3,69.43L450.3,69.27L451.11,68.28L451.43,68.12L453.34,66.15L454.09,65.98L456.18,64.83L456.29,64.67L460.07,60.88L460.13,60.72L460.89,59.57L461.02,59.41L461.27,58.75L461.98,58.58L462.86,57.27L463.07,57.1L463.81,56.28L463.93,56.12L465.57,54.47L466.16,54.31L467.97,52.83L468.07,52.66L469.18,51.68L469.46,51.51L471.02,51.02L471.43,50.86L472.67,48.72L473.42,48.55L475.73,46.91L477.36,46.75L478.23,46.42L478.69,46.25L481.3,44.77L481.45,44.61L482.55,43.95L483.11,43.79L486.13,41.81L486.17,41.65L487.41,41.16L488.55,40.99L489.56,40L489.88,39.84L490.91,38.85L491.06,38.69L491.86,38.36L492.46,38.2L498.84,35.07L499.13,34.91L499.89,34.25L501.71,34.09L504.79,31.13L505.72,30.96L505.84,30.63L506.84,30.47L510.74,28.66L510.9,28.5L513.38,27.02L513.42,26.85L524.5,22.58L524.54,22.41L526.03,21.1L526.04,20.93L526.47,19.95L526.87,19.78L531.07,18.8L531.23,18.63L534.51,17.64L534.81,17.48L535.15,17.15L537.01,16.99L540,16" style="fill: rgb(255, 127, 14); fill-opacity: 0.5; stroke-width: 0;"/></g></g><g class="errorbars"/><g class="lines"><path class="js-line" d="M0,319.84L0,319.51L1.91,319.34L3.73,318.36L4.42,318.19L5.01,317.04L5.38,316.88L5.97,315.89L6.26,315.73L8.33,312.27L8.72,312.11L9.84,311.12L9.84,310.96L10.7,310.14L11.37,309.97L12.36,307.83L12.36,307.67L13.1,306.68L13.33,306.52L13.76,305.37L14.27,305.2L15.41,304.71L16.61,304.55L18.04,303.39L18.18,303.23L23.34,302.24L24.17,302.08L25.29,301.59L25.84,301.42L26.95,300.11L28.78,299.94L31.68,298.13L32.86,297.97L36.7,295.17L36.71,295.01L37,294.35L37.62,294.19L39.75,292.05L39.75,291.89L40.42,291.23L40.7,291.06L42.91,289.09L44.17,288.93L46.41,286.79L46.42,286.62L51.57,284.16L52.21,283.99L53.22,283.01L54.34,282.84L58.39,279.72L59.94,279.55L63.14,276.59L63.24,276.43L63.35,276.1L64.1,275.94L66.63,274.62L66.67,274.46L66.97,274.13L67.71,273.96L68.84,273.64L69.77,273.47L70.58,272.32L70.97,272.16L76.73,270.18L76.84,270.02L78.39,269.03L78.9,268.87L79.67,267.72L79.87,267.55L82.43,266.4L82.66,266.24L82.69,265.91L83.52,265.74L84.22,264.92L84.48,264.76L85.16,264.26L85.49,264.1L85.5,263.77L86.56,263.61L86.58,263.28L87.41,263.11L91.54,261.8L92.01,261.63L93.08,260.98L93.38,260.81L97.84,258.84L97.85,258.67L99.07,257.69L99.07,257.52L99.79,255.22L100.08,255.06L104.89,252.26L105.74,252.1L108.05,250.29L108.5,250.12L115.91,247.66L116.88,247.49L118.7,246.34L118.73,246.18L123.45,243.88L123.55,243.71L124.45,243.22L124.84,243.05L130.5,239.27L130.51,239.11L137.14,235.98L137.27,235.82L137.71,235.16L138.27,235L146.25,231.05L147.46,230.89L147.5,230.72L148.57,230.56L149.67,229.24L150.54,229.08L150.78,228.75L151.3,228.59L156.19,227.11L156.33,226.94L157.13,226.28L157.29,226.12L168.85,221.35L168.88,221.19L169.36,220.53L171.12,220.37L181.1,216.75L181.19,216.58L182.91,215.1L183.87,214.94L184.6,214.61L184.79,214.45L185.53,213.79L185.67,213.62L185.99,212.97L186.79,212.8L188.74,211.16L189.56,210.99L190.85,209.84L191.4,209.68L199.94,207.71L200.25,207.54L201.21,207.21L201.92,207.05L202.56,206.23L203.38,206.06L210.26,203.92L210.48,203.76L213.59,202.44L213.66,202.28L215.99,200.47L216.53,200.31L219.01,198.17L219.03,198.01L221.33,196.53L221.37,196.36L221.49,196.03L222.5,195.87L224.74,194.88L224.87,194.72L225.45,194.39L227.52,194.22L233.1,192.58L233.17,192.42L234.05,191.92L234.36,191.76L236,190.77L236.1,190.61L236.8,189.95L237.95,189.78L239.59,188.63L240.15,188.47L240.86,187.65L241.28,187.48L241.96,186.66L242.06,186.5L242.92,185.84L243.18,185.67L244.04,184.85L244.05,184.69L246.94,183.04L247.07,182.88L248.08,181.89L248.5,181.73L251.69,179.92L251.95,179.76L260.92,174L261.43,173.84L261.68,173.51L262.33,173.34L265.24,171.37L265.47,171.21L269.08,169.56L269.69,169.4L280.98,167.42L280.99,167.26L281.93,166.6L282.9,166.44L284.6,165.29L284.82,165.12L288.79,162.82L289.51,162.66L291.56,162L291.99,161.83L293.67,160.52L293.7,160.35L294.4,159.86L295.61,159.7L297.66,157.72L298.68,157.56L299.55,156.08L299.62,155.92L300.29,155.42L300.62,155.26L303.51,153.45L304.31,153.29L307.24,151.15L308.55,150.98L310.05,149.67L310.2,149.5L314.09,147.86L315.18,147.69L315.95,147.37L316.75,147.2L316.89,146.87L317.97,146.71L318.72,145.89L319.08,145.72L326.75,143.91L327.58,143.75L333.31,140.46L334.66,140.3L338.15,138.82L338.39,138.65L339.68,138.16L339.95,137.99L342.99,136.84L343.14,136.68L343.57,136.02L344.23,135.86L344.92,135.36L345.41,135.2L350.36,132.9L350.75,132.73L352.42,132.24L352.88,132.08L358.99,130.1L359.1,129.94L360.79,128.95L361.05,128.79L361.66,128.46L361.89,128.29L367.21,126.16L367.21,125.99L367.21,125.5L368.45,125.33L369.46,124.84L371.25,124.68L371.68,124.18L372.48,124.02L372.49,123.86L373.6,123.69L373.74,123.53L375.25,123.36L380.28,121.22L380.54,121.06L381.35,120.07L381.37,119.91L382.4,119.25L383.19,119.09L384.96,118.43L385.16,118.27L387.07,117.11L387.35,116.95L387.94,116.29L389.34,116.13L390.1,115.31L390.9,115.14L400.68,111.36L401.9,111.2L402.68,110.21L402.77,110.04L407.14,108.24L407.24,108.07L413.45,102.81L413.45,102.65L414.16,101.17L414.42,101L418.81,97.71L419.02,97.55L419.82,97.06L419.92,96.89L421.1,95.74L421.33,95.58L422.24,94.75L422.94,94.59L424.29,93.44L424.78,93.27L425.2,92.78L426.02,92.62L429.3,91.63L429.44,91.47L432.62,88.67L432.64,88.51L433.17,86.53L433.52,86.37L434.86,83.24L434.88,83.08L437.69,80.94L437.78,80.78L441.59,77.65L442.37,77.49L443.52,76.01L443.55,75.85L444.65,74.2L445.13,74.04L447.01,72.06L447.64,71.9L448.47,70.75L448.66,70.59L450.3,69.43L450.3,69.27L451.11,68.28L451.43,68.12L453.34,66.15L454.09,65.98L456.18,64.83L456.29,64.67L460.07,60.88L460.13,60.72L460.89,59.57L461.02,59.41L461.27,58.75L461.98,58.58L462.86,57.27L463.07,57.1L463.81,56.28L463.93,56.12L465.57,54.47L466.16,54.31L467.97,52.83L468.07,52.66L469.18,51.68L469.46,51.51L471.02,51.02L471.43,50.86L472.67,48.72L473.42,48.55L475.73,46.91L477.36,46.75L478.23,46.42L478.69,46.25L481.3,44.77L481.45,44.61L482.55,43.95L483.11,43.79L486.13,41.81L486.17,41.65L487.41,41.16L488.55,40.99L489.56,40L489.88,39.84L490.91,38.85L491.06,38.69L491.86,38.36L492.46,38.2L498.84,35.07L499.13,34.91L499.89,34.25L501.71,34.09L504.79,31.13L505.72,30.96L505.84,30.63L506.84,30.47L510.74,28.66L510.9,28.5L513.38,27.02L513.42,26.85L524.5,22.58L524.54,22.41L526.03,21.1L526.04,20.93L526.47,19.95L526.87,19.78L531.07,18.8L531.23,18.63L534.51,17.64L534.81,17.48L535.15,17.15L537.01,16.99L540,16" style="vector-effect: none; fill: none; stroke: rgb(255, 127, 14); stroke-opacity: 1; stroke-width: 2px; opacity: 1;"/></g><g class="points"/><g class="text"/></g></g></g></g><g class="zerolinelayer-above"/><path class="xlines-above crisp" d="M0,0" style="fill: none;"/><path class="ylines-above crisp" d="M0,0" style="fill: none;"/><g class="overlines-above"/><g class="xaxislayer-above"><g class="xtick"><text text-anchor="middle" x="0" y="439" transform="translate(100.47,0)" style="font-family: 'Open Sans'; font-size: 18px; fill: rgb(255, 255, 255); fill-opacity: 1; white-space: pre;">2016</text></g><g class="xtick"><text text-anchor="middle" x="0" y="439" style="font-family: 'Open Sans'; font-size: 18px; fill: rgb(255, 255, 255); fill-opacity: 1; white-space: pre;" transform="translate(202.07,0)">2018</text></g><g class="xtick"><text text-anchor="middle" x="0" y="439" style="font-family: 'Open Sans'; font-size: 18px; fill: rgb(255, 255, 255); fill-opacity: 1; white-space: pre;" transform="translate(303.53999999999996,0)">2020</text></g><g class="xtick"><text text-anchor="middle" x="0" y="439" style="font-family: 'Open Sans'; font-size: 18px; fill: rgb(255, 255, 255); fill-opacity: 1; white-space: pre;" transform="translate(405.14,0)">2022</text></g><g class="xtick"><text text-anchor="middle" x="0" y="439" style="font-family: 'Open Sans'; font-size: 18px; fill: rgb(255, 255, 255); fill-opacity: 1; white-space: pre;" transform="translate(506.6,0)">2024</text></g><g class="xtick"><text text-anchor="middle" x="0" y="439" style="font-family: 'Open Sans'; font-size: 18px; fill: rgb(255, 255, 255); fill-opacity: 1; white-space: pre;" transform="translate(608.2,0)">2026</text></g></g><g class="yaxislayer-above"><g class="ytick"><text text-anchor="end" x="79" y="6.3" transform="translate(0,420)" style="font-family: 'Open Sans'; font-size: 18px; fill: rgb(255, 255, 255); fill-opacity: 1; white-space: pre;">0</text></g><g class="ytick"><text text-anchor="end" x="79" y="6.3" style="font-family: 'Open Sans'; font-size: 18px; fill: rgb(255, 255, 255); fill-opacity: 1; white-space: pre;" transform="translate(0,337.78999999999996)">500</text></g><g class="ytick"><text text-anchor="end" x="79" y="6.3" style="font-family: 'Open Sans'; font-size: 18px; fill: rgb(255, 255, 255); fill-opacity: 1; white-space: pre;" transform="translate(0,255.59)">1000</text></g><g class="ytick"><text text-anchor="end" x="79" y="6.3" style="font-family: 'Open Sans'; font-size: 18px; fill: rgb(255, 255, 255); fill-opacity: 1; white-space: pre;" transform="translate(0,173.38)">1500</text></g></g><g class="overaxes-above"/></g></g><g class="polarlayer"/><g class="smithlayer"/><g class="ternarylayer"/><g class="geolayer"/><g class="funnelarealayer"/><g class="pielayer"/><g class="iciclelayer"/><g class="treemaplayer"/><g class="sunburstlayer"/><g class="glimages"/><defs id="topdefs-4d52e6"><g class="clips"/></defs><g class="layer-above"><g class="imagelayer"/><g class="shapelayer"/></g><g class="infolayer"><g class="g-gtitle"><text class="gtitle" x="35" y="50" text-anchor="start" dy="0em" style="opacity: 1; font-family: 'Open Sans'; font-size: 25px; fill: rgb(255, 255, 255); fill-opacity: 1; white-space: pre;">MultiQC/MultiQC - Issues Created Over Time</text></g><g class="g-xtitle"><text class="xtitle" x="350" y="472.9" text-anchor="middle" style="opacity: 1; font-family: 'Open Sans'; font-size: 22px; fill: rgb(255, 255, 255); fill-opacity: 1; white-space: pre;">Date</text></g><g class="g-ytitle"><text class="ytitle" transform="rotate(-90,20.799999999999997,260)" x="20.799999999999997" y="260" text-anchor="middle" style="opacity: 1; font-family: 'Open Sans'; font-size: 22px; fill: rgb(255, 255, 255); fill-opacity: 1; white-space: pre;">Cumulative Issues Created</text></g></g></svg>