<svg class="main-svg" xmlns="http://www.w3.org/2000/svg" xmlns:xlink="http://www.w3.org/1999/xlink" width="700" height="500" style="" viewBox="0 0 700 500"><rect x="0" y="0" width="700" height="500" style="fill: rgb(0, 0, 0); fill-opacity: 0;"/><defs id="defs-05b956"><g class="clips"><clipPath id="clip05b956xyplot" class="plotclip"><rect width="540" height="320"/></clipPath><clipPath class="axesclip" id="clip05b956x"><rect x="80" y="0" width="540" height="500"/></clipPath><clipPath class="axesclip" id="clip05b956y"><rect x="0" y="100" width="700" height="320"/></clipPath><clipPath class="axesclip" id="clip05b956xy"><rect x="80" y="100" width="540" height="320"/></clipPath></g><g class="gradients"/><g class="patterns"/></defs><g class="bglayer"><rect class="bg" x="80" y="100" width="540" height="320" style="fill: rgb(0, 0, 0); fill-opacity: 0; stroke-width: 0;"/></g><g class="layer-below"><g class="imagelayer"/><g class="shapelayer"/></g><g class="cartesianlayer"><g class="subplot xy"><g class="layer-subplot"><g class="shapelayer"/><g class="imagelayer"/></g><g class="minor-gridlayer"><g class="x"/><g class="y"/></g><g class="gridlayer"><g class="x"><path class="xgrid crisp" transform="translate(100.44,0)" d="M0,100v320" style="stroke: rgb(255, 255, 255); stroke-opacity: 1; stroke-width: 1px;"/><path class="xgrid crisp" transform="translate(201.87,0)" d="M0,100v320" style="stroke: rgb(255, 255, 255); stroke-opacity: 1; stroke-width: 1px;"/><path class="xgrid crisp" transform="translate(303.15999999999997,0)" d="M0,100v320" style="stroke: rgb(255, 255, 255); stroke-opacity: 1; stroke-width: 1px;"/><path class="xgrid crisp" transform="translate(404.59,0)" d="M0,100v320" style="stroke: rgb(255, 255, 255); stroke-opacity: 1; stroke-width: 1px;"/><path class="xgrid crisp" transform="translate(505.88,0)" d="M0,100v320" style="stroke: rgb(255, 255, 255); stroke-opacity: 1; stroke-width: 1px;"/><path class="xgrid crisp" transform="translate(607.31,0)" d="M0,100v320" style="stroke: rgb(255, 255, 255); stroke-opacity: 1; stroke-width: 1px;"/></g><g class="y"><path class="ygrid crisp" transform="translate(0,361.09)" d="M80,0h540" style="stroke: rgb(255, 255, 255); stroke-opacity: 1; stroke-width: 1px;"/><path class="ygrid crisp" transform="translate(0,302.16999999999996)" d="M80,0h540" style="stroke: rgb(255, 255, 255); stroke-opacity: 1; stroke-width: 1px;"/><path class="ygrid crisp" transform="translate(0,243.26)" d="M80,0h540" style="stroke: rgb(255, 255, 255); stroke-opacity: 1; stroke-width: 1px;"/><path class="ygrid crisp" transform="translate(0,184.34)" d="M80,0h540" style="stroke: rgb(255, 255, 255); stroke-opacity: 1; stroke-width: 1px;"/><path class="ygrid crisp" transform="translate(0,125.43)" d="M80,0h540" style="stroke: rgb(255, 255, 255); stroke-opacity: 1; stroke-width: 1px;"/></g></g><g class="zerolinelayer"><path class="yzl zl crisp" transform="translate(0,420)" d="M80,0h540" style="stroke: rgb(255, 255, 255); stroke-opacity: 1; stroke-width: 2px;"/></g><g class="layer-between"><g class="shapelayer"/><g class="imagelayer"/></g><path class="xlines-below"/><path class="ylines-below"/><g class="overlines-below"/><g class="xaxislayer-below"/><g class="yaxislayer-below"/><g class="overaxes-below"/><g class="overplot"><g class="xy" transform="translate(80,100)" clip-path="url(#clip05b956xyplot)"><g class="scatterlayer mlayer"><g class="trace scatter tracea06e27" style="stroke-miterlimit: 2;"><g class="fills"><g><path class="js-fill" d="M540,320L0,320L0,318.82L0,316.47L0.55,317.64L1.8,318.82L1.91,317.64L2.91,318.82L3.72,312.93L3.75,314.11L4.42,312.93L4.83,308.22L5,309.4L5.37,310.57L5.53,307.04L5.82,311.75L5.96,309.4L6.25,310.57L6.92,299.97L7.03,298.79L7.2,297.61L7.46,299.97L7.46,301.15L7.47,302.33L7.64,292.9L8.32,291.72L8.7,301.15L8.7,302.33L9.41,309.4L9.42,308.22L9.54,307.04L9.86,302.33L9.86,301.15L10.26,299.97L10.29,302.33L10.29,303.5L11.24,307.04L11.35,305.86L11.49,304.68L12.44,288.19L12.48,294.08L12.49,295.26L12.6,292.9L12.9,296.43L13.08,294.08L13.31,292.9L13.7,287.01L13.84,290.54L14.25,289.36L14.43,288.19L14.56,290.54L15.25,291.72L15.41,295.26L16.58,294.08L17.17,291.72L17.3,290.54L18.01,285.83L18.02,287.01L18.15,285.83L18.58,287.01L21.07,285.83L21.07,287.01L21.47,283.47L21.47,285.83L22.97,284.65L23.16,285.83L23.31,284.65L24.13,283.47L24.84,281.12L24.94,282.29L25.25,281.12L25.98,289.36L26.05,288.19L26.32,284.65L26.77,288.19L26.91,287.01L27.15,288.19L28.3,289.36L29.72,285.83L29.93,287.01L29.97,290.54L29.97,290.54L30.75,289.36L31.22,292.9L31.63,291.72L31.82,297.61L32.71,298.79L33.39,296.43L33.39,297.61L33.53,298.79L34.4,295.26L34.51,296.43L35.12,297.61L35.48,296.43L35.48,297.61L35.62,291.72L35.9,292.9L36.58,291.72L36.81,288.19L37,295.26L37.49,296.43L37.56,295.26L37.99,298.79L38.05,299.97L38.27,295.26L38.55,296.43L38.85,297.61L39.68,291.72L39.81,295.26L40.14,294.08L40.35,291.72L40.5,295.26L40.64,294.08L40.77,295.26L41.73,289.36L41.75,290.54L42.55,287.01L42.84,285.83L43.6,288.19L44.09,287.01L44.4,290.54L44.65,287.01L44.85,285.83L45.17,284.65L45.33,288.19L45.33,289.36L45.37,288.19L45.78,294.08L46.17,292.9L46.18,295.26L46.35,291.72L46.75,294.08L47.3,295.26L47.31,298.79L47.59,296.43L48.14,297.61L48.52,296.43L48.52,297.61L49.21,296.43L49.21,297.61L49.4,295.26L49.51,295.26L50.33,294.08L51.48,291.72L52.03,292.9L52.03,294.08L52.45,290.54L52.6,292.9L53.04,291.72L53.13,290.54L53.44,294.08L54.25,292.9L55.55,288.19L56.05,287.01L57.26,276.4L57.33,278.76L57.42,279.94L57.42,281.12L58.17,277.58L58.29,276.4L58.3,277.58L59.84,276.4L61.02,269.33L61.13,270.51L62.02,268.16L62.55,266.98L63.25,256.37L63.27,258.73L63.99,257.55L64.64,259.91L64.64,261.09L64.65,266.98L64.94,266.98L65.63,265.8L66.86,262.26L67.59,261.09L67.84,268.16L68.72,266.98L69.8,278.76L69.94,277.58L70.46,276.4L70.46,275.22L70.85,275.22L71.29,276.4L72.35,272.87L72.36,274.05L72.78,272.87L72.81,271.69L72.86,272.87L73.7,271.69L74.47,270.51L74.96,269.33L78.21,259.91L78.22,261.09L78.66,264.62L78.79,261.09L79.19,262.26L79.47,263.44L79.54,259.91L79.74,262.26L80.45,263.44L80.78,257.55L80.79,258.73L81.9,257.55L82.1,258.73L82.29,257.55L82.52,256.37L82.55,255.19L83.25,258.73L83.38,257.55L83.51,258.73L84.08,255.19L84.08,256.37L84.22,257.55L84.61,262.26L85.02,261.09L85.35,259.91L85.35,257.55L85.46,261.09L86.41,259.91L86.41,261.09L86.44,258.73L87.09,261.09L87.26,259.91L88.05,262.26L88.38,261.09L88.94,262.26L89.03,263.44L89.34,268.16L89.86,266.98L90.16,275.22L90.45,272.87L90.91,271.69L91.95,268.16L92.08,269.33L92.08,270.51L93.9,263.44L93.92,264.62L95.98,257.55L96.11,258.73L96.11,259.91L96.99,262.26L97.09,263.44L97.93,274.05L98.24,272.87L98.64,275.22L98.64,274.05L98.73,272.87L98.77,275.22L99.19,263.44L99.19,263.44L99.6,262.26L99.91,259.91L100.17,265.8L100.56,264.62L101.53,262.26L101.54,263.44L101.54,264.62L101.66,266.98L102.09,265.8L102.57,264.62L102.92,268.16L103.05,265.8L103.45,264.62L103.47,265.8L104.02,263.44L104.04,264.62L104.61,263.44L104.72,262.26L104.72,263.44L105.39,264.62L105.73,265.8L105.99,264.62L106.54,263.44L106.94,259.91L107.36,258.73L108.69,252.84L108.73,254.02L108.8,255.19L110.83,251.66L111.39,252.84L112.76,249.3L113.22,250.48L113.51,249.3L114.33,277.58L114.44,276.4L115.04,274.05L115.31,275.22L115.71,274.05L115.72,275.22L116.68,274.05L117.08,275.22L117.37,274.05L117.39,272.87L118.06,271.69L118.3,272.87L118.31,275.22L118.53,270.51L119.04,269.33L119.04,270.51L119.45,268.16L119.51,268.16L120.06,266.98L120.06,265.8L120.54,271.69L122.25,270.51L122.47,271.69L122.52,270.51L123.03,269.33L123.46,264.62L124.24,263.44L125.9,258.73L126.27,259.91L126.73,257.55L126.81,258.73L126.81,259.91L126.96,265.8L127.32,263.44L127.84,262.26L128.35,259.91L128.59,261.09L128.59,262.26L129.18,265.8L129.88,264.62L130.84,259.91L131.21,261.09L131.89,259.91L132.94,258.73L134.06,255.19L134.85,256.37L135.58,255.19L135.65,256.37L136.15,255.19L136.5,254.02L136.51,256.37L137.04,251.66L137.04,251.66L137.48,250.48L137.48,248.12L138.04,249.3L138.39,248.12L138.88,245.77L138.91,244.59L138.98,243.41L139.03,246.95L139.57,245.77L139.59,246.95L140,244.59L140.62,245.77L141,242.23L141.25,252.84L141.8,251.66L142.53,249.3L142.61,250.48L142.61,249.3L142.64,251.66L143.79,250.48L144.43,249.3L144.54,251.66L145.35,250.48L145.36,251.66L146,248.12L146.06,249.3L146.61,250.48L148.32,248.12L148.33,249.3L149.41,243.41L150.28,242.23L150.53,239.88L151.04,241.05L151.05,239.88L151.7,245.77L152.06,244.59L153.23,243.41L153.56,244.59L155.93,238.7L156.07,239.88L156.58,235.16L156.87,233.98L158.15,226.91L158.87,225.74L158.87,226.91L159.25,225.74L160.32,224.56L160.38,223.38L160.83,228.09L161.25,226.91L162.29,224.56L162.29,223.38L162.31,222.2L162.52,230.45L163.77,229.27L164.01,226.91L165.09,225.74L165.81,230.45L166.16,229.27L169.01,219.84L169.07,218.67L169.12,219.84L170.83,218.67L171.07,223.38L171.08,224.56L171.09,228.09L171.49,225.74L173.41,224.56L173.44,226.91L173.58,225.74L174.31,224.56L174.82,219.84L174.83,221.02L175.35,222.2L175.7,223.38L176.58,218.67L176.64,219.84L176.77,221.02L177.6,219.84L177.61,221.02L180.67,216.31L180.77,215.13L181.33,211.6L181.34,212.78L181.75,211.6L181.77,213.95L182.43,212.78L182.6,211.6L183.28,212.78L183.57,211.6L183.57,210.42L184.29,210.42L184.48,209.24L185.22,206.88L185.36,205.71L185.54,206.88L185.68,204.53L185.69,205.71L186.48,204.53L187.83,196.28L187.83,198.64L188.1,197.46L188.42,195.1L188.73,196.28L189.24,195.1L189.44,192.74L189.89,195.1L190.16,193.92L190.53,191.57L191.08,190.39L192.23,189.21L192.23,190.39L192.31,189.21L192.34,190.39L193.66,189.21L194.39,190.39L195.11,189.21L195.33,188.03L195.33,189.21L197.15,188.03L197.84,186.85L197.86,188.03L197.86,189.21L198.24,188.03L199.06,189.21L199.06,190.39L199.74,190.39L199.91,189.21L200.87,186.85L201.59,185.67L202.22,182.14L202.59,183.32L203.96,178.6L204.28,179.78L205.68,178.6L206.88,176.25L206.99,177.43L209.47,172.71L209.76,173.89L210.12,170.36L210.85,169.18L211.28,171.53L211.31,170.36L211.58,169.18L212.31,166.82L212.52,168L212.56,169.18L212.58,172.71L213.3,169.18L213.36,170.36L213.73,168L213.81,175.07L214.2,173.89L214.22,175.07L214.24,173.89L214.95,172.71L215.17,173.89L215.63,170.36L215.76,171.53L216.49,185.67L216.57,186.85L216.64,184.5L216.74,193.92L217.23,192.74L217.29,193.92L217.3,192.74L217.5,199.81L218.08,198.64L218.24,199.81L218.66,195.1L218.66,196.28L218.82,197.46L219.09,198.64L219.25,196.28L219.36,195.1L220.31,190.39L220.6,189.21L221.07,185.67L221.12,184.5L221.22,189.21L222.13,188.03L224.1,185.67L224.13,184.5L224.71,178.6L225.07,177.43L225.51,178.6L227.14,177.43L228.27,175.07L228.35,173.89L229.19,172.71L229.59,173.89L230.32,171.53L232.14,170.36L232.71,168L232.78,166.82L233.66,163.29L233.78,164.47L233.97,163.29L235.1,162.11L235.41,158.57L235.43,165.64L235.43,166.82L235.43,168L235.98,163.29L236.4,162.11L236.6,163.29L237.55,162.11L237.7,163.29L237.93,162.11L238.51,163.29L238.59,162.11L238.76,166.82L239.19,164.47L239.45,165.64L239.75,164.47L239.77,166.82L239.87,166.82L239.88,168L241.31,163.29L241.32,164.47L241.71,160.93L241.84,166.82L242.21,165.64L242.52,164.47L242.66,165.64L242.69,166.82L242.77,165.64L243.08,168L243.39,169.18L243.47,166.82L243.52,178.6L243.52,179.78L243.63,177.43L244.31,197.46L244.43,196.28L244.74,197.46L245.27,196.28L246.29,191.57L246.38,192.74L247.66,184.5L247.81,185.67L248.08,184.5L249.29,180.96L249.3,182.14L249.44,183.32L250.02,179.78L250.32,178.6L250.52,177.43L251.15,178.6L251.76,172.71L252.22,171.53L252.69,166.82L252.7,168L253.22,169.18L254.03,164.47L254.21,163.29L255.45,156.22L255.88,155.04L256.07,153.86L257.1,152.68L258.49,145.61L258.9,144.43L260.05,140.9L260.05,142.08L262.26,133.83L262.28,132.65L263.22,130.29L263.3,131.47L264.19,127.94L264.21,126.76L264.75,124.4L264.8,123.22L266.78,114.98L267,116.16L267.01,118.51L267.92,117.33L267.92,118.51L268.62,114.98L269.24,113.8L269.53,114.98L270.67,113.8L270.96,110.26L273.36,111.44L273.53,138.54L274.42,137.36L275.58,138.54L275.73,137.36L275.73,136.19L275.82,139.72L275.99,137.36L276.58,138.54L279.44,137.36L280.16,136.19L280.7,132.65L280.71,131.47L280.83,133.83L281.46,131.47L281.51,132.65L282.43,131.47L282.67,132.65L283.2,137.36L283.37,135.01L283.59,136.19L283.59,137.36L283.89,135.01L284.34,135.01L284.58,133.83L285.32,131.47L285.41,130.29L285.79,127.94L286.14,129.12L286.14,130.29L286.43,142.08L287.35,140.9L287.52,142.08L288.03,139.72L288.04,140.9L288.04,142.08L289.03,139.72L289.19,140.9L289.3,138.54L289.74,139.72L290.11,140.9L290.57,142.08L291.07,140.9L292.51,136.19L292.82,135.01L293.14,137.36L293.29,132.65L293.4,133.83L293.46,132.65L294,133.83L295.12,132.65L295.14,133.83L295.67,131.47L296.01,130.29L296.33,125.58L296.59,126.76L296.96,127.94L296.97,132.65L297.16,130.29L298.18,129.12L298.89,139.72L298.89,138.54L298.99,137.36L299.02,136.19L299.33,146.79L299.47,146.79L299.57,147.97L299.61,156.22L300.3,153.86L300.65,155.04L301.34,150.33L301.5,151.5L302.17,149.15L302.7,147.97L302.73,149.15L303,145.61L303.8,144.43L304.03,145.61L304.04,144.43L304.65,143.26L304.96,146.79L305.07,143.26L305.52,142.08L305.91,138.54L306.53,137.36L306.73,136.19L308.03,135.01L308.69,131.47L308.75,130.29L309.94,123.22L310.91,122.05L313.57,113.8L314.65,112.62L315.42,110.26L316.22,109.09L316.36,106.73L317.09,107.91L317.44,125.58L317.63,124.4L317.91,125.58L318.19,124.4L318.2,126.76L318.54,125.58L319.17,126.76L319.67,125.58L320.39,126.76L321.5,123.22L322.44,122.05L323.69,120.87L324.03,122.05L324.08,123.22L325.07,122.05L325.58,119.69L326.03,120.87L326.2,119.69L326.63,120.87L326.65,122.05L326.65,123.22L327.32,120.87L327.99,122.05L328.95,155.04L329.24,153.86L329.39,150.33L329.84,155.04L329.99,156.22L331.41,145.61L331.75,144.43L331.87,146.79L332.33,145.61L332.75,144.43L333.72,146.79L334.1,145.61L335.06,144.43L335.07,145.61L335.67,144.43L335.89,143.26L336.22,142.08L336.63,143.26L337,142.08L337.58,140.9L337.82,139.72L338.02,137.36L339.11,136.19L339.38,135.01L340.45,133.83L342.02,129.12L342.03,130.29L342.05,131.47L342.99,126.76L343.51,127.94L344.34,123.22L344.35,124.4L344.83,123.22L344.88,124.4L345.49,122.05L345.49,120.87L345.6,118.51L346.88,117.33L347.71,114.98L347.74,113.8L348.55,111.44L348.87,110.26L349.79,114.98L350.16,113.8L350.34,112.62L351.83,110.26L352.04,111.44L353.11,109.09L353.66,107.91L355.19,103.19L355.79,102.02L356.15,100.84L356.36,102.02L356.41,103.19L356.43,102.02L357.29,100.84L358.39,98.48L358.5,97.3L359.47,96.12L359.48,97.3L359.55,113.8L360.19,110.26L360.44,111.44L361.05,109.09L361.28,107.91L362.02,109.09L362.91,107.91L363.52,104.37L363.63,105.55L363.91,104.37L365.16,102.02L365.98,100.84L366.59,98.48L366.59,97.3L366.59,91.41L367.83,90.23L368.84,86.7L370.31,87.88L370.31,90.23L370.72,86.7L371.06,86.7L371.55,87.88L371.87,85.52L372.12,86.7L372.97,85.52L373.11,84.34L373.11,85.52L374.4,86.7L375.02,85.52L375.08,86.7L375.24,87.88L375.24,89.05L375.84,89.05L376.15,90.23L376.34,103.19L377.3,104.37L378.3,102.02L378.8,100.84L378.93,98.48L378.97,102.02L379.38,103.19L380.56,94.95L380.57,96.12L380.57,94.95L380.59,100.84L380.9,98.48L381.45,97.3L382.72,93.77L383.82,92.59L384.52,89.05L385.21,87.88L385.57,84.34L386.04,86.7L386.29,85.52L387.29,79.63L387.29,80.81L388.68,79.63L389.44,73.74L389.45,76.09L390.25,74.91L390.57,76.09L390.61,74.91L391.11,73.74L391.65,71.38L392.28,72.56L393.21,69.02L393.83,67.84L394.43,65.49L394.65,66.67L394.78,67.84L395.09,69.02L395.29,67.84L396.44,69.02L398.77,60.78L399.05,59.6L400.01,58.42L400.72,59.6L401.79,56.06L401.87,54.88L401.93,56.06L402.09,51.35L402.7,52.53L402.77,50.17L403.89,48.99L404.05,46.64L404.23,48.99L404.48,50.17L404.87,48.99L405.03,50.17L405.06,51.35L405.33,53.71L405.85,52.53L406.86,45.46L406.91,48.99L407.55,47.81L407.63,46.64L407.83,48.99L408.06,48.99L408.23,50.17L409,45.46L409.31,46.64L409.45,50.17L409.93,45.46L410.26,44.28L410.82,41.92L410.83,43.1L410.89,44.28L411.43,39.57L411.53,41.92L411.78,43.1L411.95,40.74L412.08,52.53L412.08,53.71L412.47,58.42L412.76,47.81L412.83,50.17L412.84,51.35L413.44,56.06L413.58,53.71L413.72,52.53L415.23,45.46L415.28,46.64L415.3,47.81L415.34,46.64L415.42,58.42L415.69,56.06L415.81,54.88L416.09,52.53L416.52,52.53L416.64,53.71L417.21,51.35L417.22,52.53L417.45,51.35L417.84,54.88L418.11,53.71L418.32,52.53L418.48,54.88L418.56,53.71L419.12,52.53L419.75,61.95L419.77,60.78L420.14,59.6L420.21,58.42L420.53,61.95L420.79,60.78L421.12,59.6L421.53,56.06L421.7,58.42L422.23,57.24L422.64,53.71L423.03,56.06L423.03,57.24L423.86,73.74L424.07,72.56L424.14,71.38L424.15,72.56L424.48,70.2L425.3,69.02L425.43,72.56L426.4,73.74L427.47,71.38L427.51,70.2L427.66,71.38L428.03,70.2L428.48,69.02L428.93,66.67L429.04,70.2L429.17,69.02L429.41,67.84L430.04,65.49L430.39,66.67L430.99,72.56L431.21,70.2L431.24,69.02L431.93,72.56L432.07,71.38L432.45,63.13L432.81,70.2L432.91,69.02L433.19,65.49L433.3,72.56L433.3,73.74L433.88,65.49L434,67.84L434.13,66.67L434.48,63.13L434.88,65.49L434.93,64.31L435.12,63.13L435.26,66.67L435.26,67.84L435.57,89.05L435.98,84.34L436.07,85.52L436.08,86.7L436.82,85.52L436.89,84.34L437.05,83.16L437.1,92.59L437.24,90.23L437.35,91.41L438.15,89.05L438.75,87.88L439.37,84.34L439.55,83.16L440.27,77.27L440.55,80.81L440.55,81.98L440.7,79.63L440.97,84.34L441.07,85.52L441.89,84.34L442.01,83.16L442.52,85.52L442.59,81.98L442.64,80.81L442.64,81.98L443.16,76.09L443.45,74.91L443.47,73.74L443.56,77.27L443.9,74.91L444.38,73.74L444.4,74.91L444.97,65.49L445,67.84L445.78,66.67L446.26,63.13L446.8,64.31L446.93,61.95L447.21,67.84L447.57,66.67L447.6,65.49L447.91,64.31L448.16,66.67L448.45,65.49L448.62,67.84L448.98,65.49L449.31,66.67L449.83,60.78L450.18,63.13L450.23,64.31L450.36,63.13L450.39,66.67L450.82,64.31L451.24,63.13L451.25,61.95L451.78,72.56L451.93,69.02L452.19,70.2L452.19,69.02L452.48,72.56L452.58,71.38L453.14,72.56L453.33,71.38L453.58,73.74L454.03,72.56L454.55,71.38L454.6,72.56L454.67,73.74L455.24,76.09L455.25,74.91L455.38,73.74L455.52,70.2L456.07,73.74L456.4,72.56L456.65,69.02L457.03,72.56L457.06,73.74L457.37,72.56L458.18,91.41L458.45,90.23L458.54,89.05L459.26,86.7L459.28,85.52L460.12,76.09L460.21,77.27L460.28,74.91L460.39,85.52L460.67,85.52L461.21,84.34L461.87,93.77L462.01,91.41L462.08,90.23L462.15,91.41L462.42,85.52L463.01,86.7L463.25,83.16L463.28,87.88L463.44,86.7L463.9,87.88L464.17,89.05L464.79,84.34L465.09,85.52L465.11,89.05L465.77,86.7L465.9,87.88L466.34,85.52L467.04,84.34L467.29,79.63L467.59,84.34L467.89,83.16L468.98,73.74L469.73,74.91L470.24,86.7L470.64,85.52L470.74,87.88L471.07,80.81L471.24,81.98L471.49,80.81L471.95,87.88L472.63,86.7L472.81,85.52L473.14,87.88L473.14,89.05L473.77,86.7L474.01,99.66L474.1,98.48L474.1,96.12L474.65,103.19L474.93,102.02L475.13,103.19L476.56,102.02L477.14,103.19L477.43,102.02L477.87,103.19L477.89,102.02L478.42,100.84L478.42,99.66L478.67,103.19L478.75,102.02L479.36,100.84L479.58,102.02L479.9,100.84L480.28,99.66L480.36,97.3L480.49,100.84L480.78,99.66L481.29,98.48L481.37,97.3L481.79,102.02L481.79,103.19L482.86,99.66L483.25,100.84L483.49,98.48L483.79,100.84L483.79,102.02L484.37,103.19L484.54,102.02L484.57,100.84L485.31,94.95L485.34,98.48L485.35,99.66L485.49,97.3L486.32,98.48L486.32,97.3L486.6,97.3L487.73,96.12L488.27,92.59L488.51,94.95L488.6,93.77L489.23,89.05L489.42,87.88L490.06,90.23L490.09,87.88L490.23,86.7L491.03,85.52L491.59,86.7L491.61,89.05L492.14,89.05L492.42,87.88L492.43,86.7L493.12,89.05L493.31,87.88L493.4,86.7L494.29,85.52L494.9,86.7L495.32,85.52L496.06,80.81L496.29,79.63L496.31,80.81L496.46,79.63L497.16,78.45L497.41,80.81L497.86,79.63L497.97,80.81L498.37,76.09L498.53,78.45L498.8,79.63L499.06,76.09L500.8,77.27L501.12,73.74L501.74,74.91L501.99,86.7L502.55,85.52L502.67,86.7L502.81,84.34L503.24,85.52L503.63,84.34L503.94,80.81L504.87,79.63L504.99,77.27L505.99,76.09L506.64,73.74L506.74,72.56L506.87,70.2L508.26,71.38L508.67,89.05L508.95,86.7L509.03,85.52L509.09,87.88L509.81,86.7L510.73,83.16L510.73,84.34L511.44,90.23L511.48,89.05L511.9,87.88L512.52,83.16L512.56,84.34L512.99,83.16L515.42,78.45L515.74,77.27L516.82,73.74L517.72,72.56L517.81,70.2L518.01,71.38L518.63,70.2L519.28,67.84L520.75,66.67L522.27,63.13L522.4,61.95L523.62,56.06L523.63,57.24L523.66,56.06L523.7,59.6L524.26,57.24L524.47,56.06L525.29,47.81L525.43,46.64L525.98,43.1L528.9,41.92L530.34,34.85L532.14,33.67L532.15,32.5L533.09,31.32L533.1,32.5L533.61,28.96L533.91,27.78L534.25,25.43L536.11,24.25L537.92,21.89L538.09,20.71L539.04,18.36L539.09,17.18L539.22,18.36L539.78,17.18L540,16" style="fill: rgb(255, 127, 14); fill-opacity: 0.5; stroke-width: 0;"/></g></g><g class="errorbars"/><g class="lines"><path class="js-line" d="M0,318.82L0,316.47L0.55,317.64L1.8,318.82L1.91,317.64L2.91,318.82L3.72,312.93L3.75,314.11L4.42,312.93L4.83,308.22L5,309.4L5.37,310.57L5.53,307.04L5.82,311.75L5.96,309.4L6.25,310.57L6.92,299.97L7.03,298.79L7.2,297.61L7.46,299.97L7.46,301.15L7.47,302.33L7.64,292.9L8.32,291.72L8.7,301.15L8.7,302.33L9.41,309.4L9.42,308.22L9.54,307.04L9.86,302.33L9.86,301.15L10.26,299.97L10.29,302.33L10.29,303.5L11.24,307.04L11.35,305.86L11.49,304.68L12.44,288.19L12.48,294.08L12.49,295.26L12.6,292.9L12.9,296.43L13.08,294.08L13.31,292.9L13.7,287.01L13.84,290.54L14.25,289.36L14.43,288.19L14.56,290.54L15.25,291.72L15.41,295.26L16.58,294.08L17.17,291.72L17.3,290.54L18.01,285.83L18.02,287.01L18.15,285.83L18.58,287.01L21.07,285.83L21.07,287.01L21.47,283.47L21.47,285.83L22.97,284.65L23.16,285.83L23.31,284.65L24.13,283.47L24.84,281.12L24.94,282.29L25.25,281.12L25.98,289.36L26.05,288.19L26.32,284.65L26.77,288.19L26.91,287.01L27.15,288.19L28.3,289.36L29.72,285.83L29.93,287.01L29.97,290.54L29.97,290.54L30.75,289.36L31.22,292.9L31.63,291.72L31.82,297.61L32.71,298.79L33.39,296.43L33.39,297.61L33.53,298.79L34.4,295.26L34.51,296.43L35.12,297.61L35.48,296.43L35.48,297.61L35.62,291.72L35.9,292.9L36.58,291.72L36.81,288.19L37,295.26L37.49,296.43L37.56,295.26L37.99,298.79L38.05,299.97L38.27,295.26L38.55,296.43L38.85,297.61L39.68,291.72L39.81,295.26L40.14,294.08L40.35,291.72L40.5,295.26L40.64,294.08L40.77,295.26L41.73,289.36L41.75,290.54L42.55,287.01L42.84,285.83L43.6,288.19L44.09,287.01L44.4,290.54L44.65,287.01L44.85,285.83L45.17,284.65L45.33,288.19L45.33,289.36L45.37,288.19L45.78,294.08L46.17,292.9L46.18,295.26L46.35,291.72L46.75,294.08L47.3,295.26L47.31,298.79L47.59,296.43L48.14,297.61L48.52,296.43L48.52,297.61L49.21,296.43L49.21,297.61L49.4,295.26L49.51,295.26L50.33,294.08L51.48,291.72L52.03,292.9L52.03,294.08L52.45,290.54L52.6,292.9L53.04,291.72L53.13,290.54L53.44,294.08L54.25,292.9L55.55,288.19L56.05,287.01L57.26,276.4L57.33,278.76L57.42,279.94L57.42,281.12L58.17,277.58L58.29,276.4L58.3,277.58L59.84,276.4L61.02,269.33L61.13,270.51L62.02,268.16L62.55,266.98L63.25,256.37L63.27,258.73L63.99,257.55L64.64,259.91L64.64,261.09L64.65,266.98L64.94,266.98L65.63,265.8L66.86,262.26L67.59,261.09L67.84,268.16L68.72,266.98L69.8,278.76L69.94,277.58L70.46,276.4L70.46,275.22L70.85,275.22L71.29,276.4L72.35,272.87L72.36,274.05L72.78,272.87L72.81,271.69L72.86,272.87L73.7,271.69L74.47,270.51L74.96,269.33L78.21,259.91L78.22,261.09L78.66,264.62L78.79,261.09L79.19,262.26L79.47,263.44L79.54,259.91L79.74,262.26L80.45,263.44L80.78,257.55L80.79,258.73L81.9,257.55L82.1,258.73L82.29,257.55L82.52,256.37L82.55,255.19L83.25,258.73L83.38,257.55L83.51,258.73L84.08,255.19L84.08,256.37L84.22,257.55L84.61,262.26L85.02,261.09L85.35,259.91L85.35,257.55L85.46,261.09L86.41,259.91L86.41,261.09L86.44,258.73L87.09,261.09L87.26,259.91L88.05,262.26L88.38,261.09L88.94,262.26L89.03,263.44L89.34,268.16L89.86,266.98L90.16,275.22L90.45,272.87L90.91,271.69L91.95,268.16L92.08,269.33L92.08,270.51L93.9,263.44L93.92,264.62L95.98,257.55L96.11,258.73L96.11,259.91L96.99,262.26L97.09,263.44L97.93,274.05L98.24,272.87L98.64,275.22L98.64,274.05L98.73,272.87L98.77,275.22L99.19,263.44L99.19,263.44L99.6,262.26L99.91,259.91L100.17,265.8L100.56,264.62L101.53,262.26L101.54,263.44L101.54,264.62L101.66,266.98L102.09,265.8L102.57,264.62L102.92,268.16L103.05,265.8L103.45,264.62L103.47,265.8L104.02,263.44L104.04,264.62L104.61,263.44L104.72,262.26L104.72,263.44L105.39,264.62L105.73,265.8L105.99,264.62L106.54,263.44L106.94,259.91L107.36,258.73L108.69,252.84L108.73,254.02L108.8,255.19L110.83,251.66L111.39,252.84L112.76,249.3L113.22,250.48L113.51,249.3L114.33,277.58L114.44,276.4L115.04,274.05L115.31,275.22L115.71,274.05L115.72,275.22L116.68,274.05L117.08,275.22L117.37,274.05L117.39,272.87L118.06,271.69L118.3,272.87L118.31,275.22L118.53,270.51L119.04,269.33L119.04,270.51L119.45,268.16L119.51,268.16L120.06,266.98L120.06,265.8L120.54,271.69L122.25,270.51L122.47,271.69L122.52,270.51L123.03,269.33L123.46,264.62L124.24,263.44L125.9,258.73L126.27,259.91L126.73,257.55L126.81,258.73L126.81,259.91L126.96,265.8L127.32,263.44L127.84,262.26L128.35,259.91L128.59,261.09L128.59,262.26L129.18,265.8L129.88,264.62L130.84,259.91L131.21,261.09L131.89,259.91L132.94,258.73L134.06,255.19L134.85,256.37L135.58,255.19L135.65,256.37L136.15,255.19L136.5,254.02L136.51,256.37L137.04,251.66L137.04,251.66L137.48,250.48L137.48,248.12L138.04,249.3L138.39,248.12L138.88,245.77L138.91,244.59L138.98,243.41L139.03,246.95L139.57,245.77L139.59,246.95L140,244.59L140.62,245.77L141,242.23L141.25,252.84L141.8,251.66L142.53,249.3L142.61,250.48L142.61,249.3L142.64,251.66L143.79,250.48L144.43,249.3L144.54,251.66L145.35,250.48L145.36,251.66L146,248.12L146.06,249.3L146.61,250.48L148.32,248.12L148.33,249.3L149.41,243.41L150.28,242.23L150.53,239.88L151.04,241.05L151.05,239.88L151.7,245.77L152.06,244.59L153.23,243.41L153.56,244.59L155.93,238.7L156.07,239.88L156.58,235.16L156.87,233.98L158.15,226.91L158.87,225.74L158.87,226.91L159.25,225.74L160.32,224.56L160.38,223.38L160.83,228.09L161.25,226.91L162.29,224.56L162.29,223.38L162.31,222.2L162.52,230.45L163.77,229.27L164.01,226.91L165.09,225.74L165.81,230.45L166.16,229.27L169.01,219.84L169.07,218.67L169.12,219.84L170.83,218.67L171.07,223.38L171.08,224.56L171.09,228.09L171.49,225.74L173.41,224.56L173.44,226.91L173.58,225.74L174.31,224.56L174.82,219.84L174.83,221.02L175.35,222.2L175.7,223.38L176.58,218.67L176.64,219.84L176.77,221.02L177.6,219.84L177.61,221.02L180.67,216.31L180.77,215.13L181.33,211.6L181.34,212.78L181.75,211.6L181.77,213.95L182.43,212.78L182.6,211.6L183.28,212.78L183.57,211.6L183.57,210.42L184.29,210.42L184.48,209.24L185.22,206.88L185.36,205.71L185.54,206.88L185.68,204.53L185.69,205.71L186.48,204.53L187.83,196.28L187.83,198.64L188.1,197.46L188.42,195.1L188.73,196.28L189.24,195.1L189.44,192.74L189.89,195.1L190.16,193.92L190.53,191.57L191.08,190.39L192.23,189.21L192.23,190.39L192.31,189.21L192.34,190.39L193.66,189.21L194.39,190.39L195.11,189.21L195.33,188.03L195.33,189.21L197.15,188.03L197.84,186.85L197.86,188.03L197.86,189.21L198.24,188.03L199.06,189.21L199.06,190.39L199.74,190.39L199.91,189.21L200.87,186.85L201.59,185.67L202.22,182.14L202.59,183.32L203.96,178.6L204.28,179.78L205.68,178.6L206.88,176.25L206.99,177.43L209.47,172.71L209.76,173.89L210.12,170.36L210.85,169.18L211.28,171.53L211.31,170.36L211.58,169.18L212.31,166.82L212.52,168L212.56,169.18L212.58,172.71L213.3,169.18L213.36,170.36L213.73,168L213.81,175.07L214.2,173.89L214.22,175.07L214.24,173.89L214.95,172.71L215.17,173.89L215.63,170.36L215.76,171.53L216.49,185.67L216.57,186.85L216.64,184.5L216.74,193.92L217.23,192.74L217.29,193.92L217.3,192.74L217.5,199.81L218.08,198.64L218.24,199.81L218.66,195.1L218.66,196.28L218.82,197.46L219.09,198.64L219.25,196.28L219.36,195.1L220.31,190.39L220.6,189.21L221.07,185.67L221.12,184.5L221.22,189.21L222.13,188.03L224.1,185.67L224.13,184.5L224.71,178.6L225.07,177.43L225.51,178.6L227.14,177.43L228.27,175.07L228.35,173.89L229.19,172.71L229.59,173.89L230.32,171.53L232.14,170.36L232.71,168L232.78,166.82L233.66,163.29L233.78,164.47L233.97,163.29L235.1,162.11L235.41,158.57L235.43,165.64L235.43,166.82L235.43,168L235.98,163.29L236.4,162.11L236.6,163.29L237.55,162.11L237.7,163.29L237.93,162.11L238.51,163.29L238.59,162.11L238.76,166.82L239.19,164.47L239.45,165.64L239.75,164.47L239.77,166.82L239.87,166.82L239.88,168L241.31,163.29L241.32,164.47L241.71,160.93L241.84,166.82L242.21,165.64L242.52,164.47L242.66,165.64L242.69,166.82L242.77,165.64L243.08,168L243.39,169.18L243.47,166.82L243.52,178.6L243.52,179.78L243.63,177.43L244.31,197.46L244.43,196.28L244.74,197.46L245.27,196.28L246.29,191.57L246.38,192.74L247.66,184.5L247.81,185.67L248.08,184.5L249.29,180.96L249.3,182.14L249.44,183.32L250.02,179.78L250.32,178.6L250.52,177.43L251.15,178.6L251.76,172.71L252.22,171.53L252.69,166.82L252.7,168L253.22,169.18L254.03,164.47L254.21,163.29L255.45,156.22L255.88,155.04L256.07,153.86L257.1,152.68L258.49,145.61L258.9,144.43L260.05,140.9L260.05,142.08L262.26,133.83L262.28,132.65L263.22,130.29L263.3,131.47L264.19,127.94L264.21,126.76L264.75,124.4L264.8,123.22L266.78,114.98L267,116.16L267.01,118.51L267.92,117.33L267.92,118.51L268.62,114.98L269.24,113.8L269.53,114.98L270.67,113.8L270.96,110.26L273.36,111.44L273.53,138.54L274.42,137.36L275.58,138.54L275.73,137.36L275.73,136.19L275.82,139.72L275.99,137.36L276.58,138.54L279.44,137.36L280.16,136.19L280.7,132.65L280.71,131.47L280.83,133.83L281.46,131.47L281.51,132.65L282.43,131.47L282.67,132.65L283.2,137.36L283.37,135.01L283.59,136.19L283.59,137.36L283.89,135.01L284.34,135.01L284.58,133.83L285.32,131.47L285.41,130.29L285.79,127.94L286.14,129.12L286.14,130.29L286.43,142.08L287.35,140.9L287.52,142.08L288.03,139.72L288.04,140.9L288.04,142.08L289.03,139.72L289.19,140.9L289.3,138.54L289.74,139.72L290.11,140.9L290.57,142.08L291.07,140.9L292.51,136.19L292.82,135.01L293.14,137.36L293.29,132.65L293.4,133.83L293.46,132.65L294,133.83L295.12,132.65L295.14,133.83L295.67,131.47L296.01,130.29L296.33,125.58L296.59,126.76L296.96,127.94L296.97,132.65L297.16,130.29L298.18,129.12L298.89,139.72L298.89,138.54L298.99,137.36L299.02,136.19L299.33,146.79L299.47,146.79L299.57,147.97L299.61,156.22L300.3,153.86L300.65,155.04L301.34,150.33L301.5,151.5L302.17,149.15L302.7,147.97L302.73,149.15L303,145.61L303.8,144.43L304.03,145.61L304.04,144.43L304.65,143.26L304.96,146.79L305.07,143.26L305.52,142.08L305.91,138.54L306.53,137.36L306.73,136.19L308.03,135.01L308.69,131.47L308.75,130.29L309.94,123.22L310.91,122.05L313.57,113.8L314.65,112.62L315.42,110.26L316.22,109.09L316.36,106.73L317.09,107.91L317.44,125.58L317.63,124.4L317.91,125.58L318.19,124.4L318.2,126.76L318.54,125.58L319.17,126.76L319.67,125.58L320.39,126.76L321.5,123.22L322.44,122.05L323.69,120.87L324.03,122.05L324.08,123.22L325.07,122.05L325.58,119.69L326.03,120.87L326.2,119.69L326.63,120.87L326.65,122.05L326.65,123.22L327.32,120.87L327.99,122.05L328.95,155.04L329.24,153.86L329.39,150.33L329.84,155.04L329.99,156.22L331.41,145.61L331.75,144.43L331.87,146.79L332.33,145.61L332.75,144.43L333.72,146.79L334.1,145.61L335.06,144.43L335.07,145.61L335.67,144.43L335.89,143.26L336.22,142.08L336.63,143.26L337,142.08L337.58,140.9L337.82,139.72L338.02,137.36L339.11,136.19L339.38,135.01L340.45,133.83L342.02,129.12L342.03,130.29L342.05,131.47L342.99,126.76L343.51,127.94L344.34,123.22L344.35,124.4L344.83,123.22L344.88,124.4L345.49,122.05L345.49,120.87L345.6,118.51L346.88,117.33L347.71,114.98L347.74,113.8L348.55,111.44L348.87,110.26L349.79,114.98L350.16,113.8L350.34,112.62L351.83,110.26L352.04,111.44L353.11,109.09L353.66,107.91L355.19,103.19L355.79,102.02L356.15,100.84L356.36,102.02L356.41,103.19L356.43,102.02L357.29,100.84L358.39,98.48L358.5,97.3L359.47,96.12L359.48,97.3L359.55,113.8L360.19,110.26L360.44,111.44L361.05,109.09L361.28,107.91L362.02,109.09L362.91,107.91L363.52,104.37L363.63,105.55L363.91,104.37L365.16,102.02L365.98,100.84L366.59,98.48L366.59,97.3L366.59,91.41L367.83,90.23L368.84,86.7L370.31,87.88L370.31,90.23L370.72,86.7L371.06,86.7L371.55,87.88L371.87,85.52L372.12,86.7L372.97,85.52L373.11,84.34L373.11,85.52L374.4,86.7L375.02,85.52L375.08,86.7L375.24,87.88L375.24,89.05L375.84,89.05L376.15,90.23L376.34,103.19L377.3,104.37L378.3,102.02L378.8,100.84L378.93,98.48L378.97,102.02L379.38,103.19L380.56,94.95L380.57,96.12L380.57,94.95L380.59,100.84L380.9,98.48L381.45,97.3L382.72,93.77L383.82,92.59L384.52,89.05L385.21,87.88L385.57,84.34L386.04,86.7L386.29,85.52L387.29,79.63L387.29,80.81L388.68,79.63L389.44,73.74L389.45,76.09L390.25,74.91L390.57,76.09L390.61,74.91L391.11,73.74L391.65,71.38L392.28,72.56L393.21,69.02L393.83,67.84L394.43,65.49L394.65,66.67L394.78,67.84L395.09,69.02L395.29,67.84L396.44,69.02L398.77,60.78L399.05,59.6L400.01,58.42L400.72,59.6L401.79,56.06L401.87,54.88L401.93,56.06L402.09,51.35L402.7,52.53L402.77,50.17L403.89,48.99L404.05,46.64L404.23,48.99L404.48,50.17L404.87,48.99L405.03,50.17L405.06,51.35L405.33,53.71L405.85,52.53L406.86,45.46L406.91,48.99L407.55,47.81L407.63,46.64L407.83,48.99L408.06,48.99L408.23,50.17L409,45.46L409.31,46.64L409.45,50.17L409.93,45.46L410.26,44.28L410.82,41.92L410.83,43.1L410.89,44.28L411.43,39.57L411.53,41.92L411.78,43.1L411.95,40.74L412.08,52.53L412.08,53.71L412.47,58.42L412.76,47.81L412.83,50.17L412.84,51.35L413.44,56.06L413.58,53.71L413.72,52.53L415.23,45.46L415.28,46.64L415.3,47.81L415.34,46.64L415.42,58.42L415.69,56.06L415.81,54.88L416.09,52.53L416.52,52.53L416.64,53.71L417.21,51.35L417.22,52.53L417.45,51.35L417.84,54.88L418.11,53.71L418.32,52.53L418.48,54.88L418.56,53.71L419.12,52.53L419.75,61.95L419.77,60.78L420.14,59.6L420.21,58.42L420.53,61.95L420.79,60.78L421.12,59.6L421.53,56.06L421.7,58.42L422.23,57.24L422.64,53.71L423.03,56.06L423.03,57.24L423.86,73.74L424.07,72.56L424.14,71.38L424.15,72.56L424.48,70.2L425.3,69.02L425.43,72.56L426.4,73.74L427.47,71.38L427.51,70.2L427.66,71.38L428.03,70.2L428.48,69.02L428.93,66.67L429.04,70.2L429.17,69.02L429.41,67.84L430.04,65.49L430.39,66.67L430.99,72.56L431.21,70.2L431.24,69.02L431.93,72.56L432.07,71.38L432.45,63.13L432.81,70.2L432.91,69.02L433.19,65.49L433.3,72.56L433.3,73.74L433.88,65.49L434,67.84L434.13,66.67L434.48,63.13L434.88,65.49L434.93,64.31L435.12,63.13L435.26,66.67L435.26,67.84L435.57,89.05L435.98,84.34L436.07,85.52L436.08,86.7L436.82,85.52L436.89,84.34L437.05,83.16L437.1,92.59L437.24,90.23L437.35,91.41L438.15,89.05L438.75,87.88L439.37,84.34L439.55,83.16L440.27,77.27L440.55,80.81L440.55,81.98L440.7,79.63L440.97,84.34L441.07,85.52L441.89,84.34L442.01,83.16L442.52,85.52L442.59,81.98L442.64,80.81L442.64,81.98L443.16,76.09L443.45,74.91L443.47,73.74L443.56,77.27L443.9,74.91L444.38,73.74L444.4,74.91L444.97,65.49L445,67.84L445.78,66.67L446.26,63.13L446.8,64.31L446.93,61.95L447.21,67.84L447.57,66.67L447.6,65.49L447.91,64.31L448.16,66.67L448.45,65.49L448.62,67.84L448.98,65.49L449.31,66.67L449.83,60.78L450.18,63.13L450.23,64.31L450.36,63.13L450.39,66.67L450.82,64.31L451.24,63.13L451.25,61.95L451.78,72.56L451.93,69.02L452.19,70.2L452.19,69.02L452.48,72.56L452.58,71.38L453.14,72.56L453.33,71.38L453.58,73.74L454.03,72.56L454.55,71.38L454.6,72.56L454.67,73.74L455.24,76.09L455.25,74.91L455.38,73.74L455.52,70.2L456.07,73.74L456.4,72.56L456.65,69.02L457.03,72.56L457.06,73.74L457.37,72.56L458.18,91.41L458.45,90.23L458.54,89.05L459.26,86.7L459.28,85.52L460.12,76.09L460.21,77.27L460.28,74.91L460.39,85.52L460.67,85.52L461.21,84.34L461.87,93.77L462.01,91.41L462.08,90.23L462.15,91.41L462.42,85.52L463.01,86.7L463.25,83.16L463.28,87.88L463.44,86.7L463.9,87.88L464.17,89.05L464.79,84.34L465.09,85.52L465.11,89.05L465.77,86.7L465.9,87.88L466.34,85.52L467.04,84.34L467.29,79.63L467.59,84.34L467.89,83.16L468.98,73.74L469.73,74.91L470.24,86.7L470.64,85.52L470.74,87.88L471.07,80.81L471.24,81.98L471.49,80.81L471.95,87.88L472.63,86.7L472.81,85.52L473.14,87.88L473.14,89.05L473.77,86.7L474.01,99.66L474.1,98.48L474.1,96.12L474.65,103.19L474.93,102.02L475.13,103.19L476.56,102.02L477.14,103.19L477.43,102.02L477.87,103.19L477.89,102.02L478.42,100.84L478.42,99.66L478.67,103.19L478.75,102.02L479.36,100.84L479.58,102.02L479.9,100.84L480.28,99.66L480.36,97.3L480.49,100.84L480.78,99.66L481.29,98.48L481.37,97.3L481.79,102.02L481.79,103.19L482.86,99.66L483.25,100.84L483.49,98.48L483.79,100.84L483.79,102.02L484.37,103.19L484.54,102.02L484.57,100.84L485.31,94.95L485.34,98.48L485.35,99.66L485.49,97.3L486.32,98.48L486.32,97.3L486.6,97.3L487.73,96.12L488.27,92.59L488.51,94.95L488.6,93.77L489.23,89.05L489.42,87.88L490.06,90.23L490.09,87.88L490.23,86.7L491.03,85.52L491.59,86.7L491.61,89.05L492.14,89.05L492.42,87.88L492.43,86.7L493.12,89.05L493.31,87.88L493.4,86.7L494.29,85.52L494.9,86.7L495.32,85.52L496.06,80.81L496.29,79.63L496.31,80.81L496.46,79.63L497.16,78.45L497.41,80.81L497.86,79.63L497.97,80.81L498.37,76.09L498.53,78.45L498.8,79.63L499.06,76.09L500.8,77.27L501.12,73.74L501.74,74.91L501.99,86.7L502.55,85.52L502.67,86.7L502.81,84.34L503.24,85.52L503.63,84.34L503.94,80.81L504.87,79.63L504.99,77.27L505.99,76.09L506.64,73.74L506.74,72.56L506.87,70.2L508.26,71.38L508.67,89.05L508.95,86.7L509.03,85.52L509.09,87.88L509.81,86.7L510.73,83.16L510.73,84.34L511.44,90.23L511.48,89.05L511.9,87.88L512.52,83.16L512.56,84.34L512.99,83.16L515.42,78.45L515.74,77.27L516.82,73.74L517.72,72.56L517.81,70.2L518.01,71.38L518.63,70.2L519.28,67.84L520.75,66.67L522.27,63.13L522.4,61.95L523.62,56.06L523.63,57.24L523.66,56.06L523.7,59.6L524.26,57.24L524.47,56.06L525.29,47.81L525.43,46.64L525.98,43.1L528.9,41.92L530.34,34.85L532.14,33.67L532.15,32.5L533.09,31.32L533.1,32.5L533.61,28.96L533.91,27.78L534.25,25.43L536.11,24.25L537.92,21.89L538.09,20.71L539.04,18.36L539.09,17.18L539.22,18.36L539.78,17.18L540,16" style="vector-effect: none; fill: none; stroke: rgb(255, 127, 14); stroke-opacity: 1; stroke-width: 2px; opacity: 1;"/></g><g class="points"/><g class="text"/></g></g></g></g><g class="zerolinelayer-above"/><path class="xlines-above crisp" d="M0,0" style="fill: none;"/><path class="ylines-above crisp" d="M0,0" style="fill: none;"/><g class="overlines-above"/><g class="xaxislayer-above"><g class="xtick"><text text-anchor="middle" x="0" y="439" transform="translate(100.44,0)" style="font-family: 'Open Sans'; font-size: 18px; fill: rgb(255, 255, 255); fill-opacity: 1; white-space: pre;">2016</text></g><g class="xtick"><text text-anchor="middle" x="0" y="439" style="font-family: 'Open Sans'; font-size: 18px; fill: rgb(255, 255, 255); fill-opacity: 1; white-space: pre;" transform="translate(201.87,0)">2018</text></g><g class="xtick"><text text-anchor="middle" x="0" y="439" style="font-family: 'Open Sans'; font-size: 18px; fill: rgb(255, 255, 255); fill-opacity: 1; white-space: pre;" transform="translate(303.15999999999997,0)">2020</text></g><g class="xtick"><text text-anchor="middle" x="0" y="439" style="font-family: 'Open Sans'; font-size: 18px; fill: rgb(255, 255, 255); fill-opacity: 1; white-space: pre;" transform="translate(404.59,0)">2022</text></g><g class="xtick"><text text-anchor="middle" x="0" y="439" style="font-family: 'Open Sans'; font-size: 18px; fill: rgb(255, 255, 255); fill-opacity: 1; white-space: pre;" transform="translate(505.88,0)">2024</text></g><g class="xtick"><text text-anchor="middle" x="0" y="439" style="font-family: 'Open Sans'; font-size: 18px; fill: rgb(255, 255, 255); fill-opacity: 1; white-space: pre;" transform="translate(607.31,0)">2026</text></g></g><g class="yaxislayer-above"><g class="ytick"><text text-anchor="end" x="79" y="6.3" transform="translate(0,420)" style="font-family: 'Open Sans'; font-size: 18px; fill: rgb(255, 255, 255); fill-opacity: 1; white-space: pre;">0</text></g><g class="ytick"><text text-anchor="end" x="79" y="6.3" style="font-family: 'Open Sans'; font-size: 18px; fill: rgb(255, 255, 255); fill-opacity: 1; white-space: pre;" transform="translate(0,361.09)">50</text></g><g class="ytick"><text text-anchor="end" x="79" y="6.3" style="font-family: 'Open Sans'; font-size: 18px; fill: rgb(255, 255, 255); fill-opacity: 1; white-space: pre;" transform="translate(0,302.16999999999996)">100</text></g><g class="ytick"><text text-anchor="end" x="79" y="6.3" style="font-family: 'Open Sans'; font-size: 18px; fill: rgb(255, 255, 255); fill-opacity: 1; white-space: pre;" transform="translate(0,243.26)">150</text></g><g class="ytick"><text text-anchor="end" x="79" y="6.3" style="font-family: 'Open Sans'; font-size: 18px; fill: rgb(255, 255, 255); fill-opacity: 1; white-space: pre;" transform="translate(0,184.34)">200</text></g><g class="ytick"><text text-anchor="end" x="79" y="6.3" style="font-family: 'Open Sans'; font-size: 18px; fill: rgb(255, 255, 255); fill-opacity: 1; white-space: pre;" transform="translate(0,125.43)">250</text></g></g><g class="overaxes-above"/></g></g><g class="polarlayer"/><g class="smithlayer"/><g class="ternarylayer"/><g class="geolayer"/><g class="funnelarealayer"/><g class="pielayer"/><g class="iciclelayer"/><g class="treemaplayer"/><g class="sunburstlayer"/><g class="glimages"/><defs id="topdefs-05b956"><g class="clips"/></defs><g class="layer-above"><g class="imagelayer"/><g class="shapelayer"/></g><g class="infolayer"><g class="g-gtitle"><text class="gtitle" x="35" y="50" text-anchor="start" dy="0em" style="opacity: 1; font-family: 'Open Sans'; font-size: 25px; fill: rgb(255, 255, 255); fill-opacity: 1; white-space: pre;">MultiQC/MultiQC - Open Issues Over Time</text></g><g class="g-xtitle"><text class="xtitle" x="350" y="472.9" text-anchor="middle" style="opacity: 1; font-family: 'Open Sans'; font-size: 22px; fill: rgb(255, 255, 255); fill-opacity: 1; white-space: pre;">Date</text></g><g class="g-ytitle"><text class="ytitle" transform="rotate(-90,29.799999999999997,260)" x="29.799999999999997" y="260" text-anchor="middle" style="opacity: 1; font-family: 'Open Sans'; font-size: 22px; fill: rgb(255, 255, 255); fill-opacity: 1; white-space: pre;">Number of Open Issues</text></g></g></svg>