<svg class="main-svg" xmlns="http://www.w3.org/2000/svg" xmlns:xlink="http://www.w3.org/1999/xlink" width="700" height="500" style="" viewBox="0 0 700 500"><rect x="0" y="0" width="700" height="500" style="fill: rgb(0, 0, 0); fill-opacity: 0;"/><defs id="defs-488dd1"><g class="clips"><clipPath id="clip488dd1xyplot" class="plotclip"><rect width="540" height="320"/></clipPath><clipPath class="axesclip" id="clip488dd1x"><rect x="80" y="0" width="540" height="500"/></clipPath><clipPath class="axesclip" id="clip488dd1y"><rect x="0" y="100" width="700" height="320"/></clipPath><clipPath class="axesclip" id="clip488dd1xy"><rect x="80" y="100" width="540" height="320"/></clipPath></g><g class="gradients"/><g class="patterns"/></defs><g class="bglayer"><rect class="bg" x="80" y="100" width="540" height="320" style="fill: rgb(0, 0, 0); fill-opacity: 0; stroke-width: 0;"/></g><g class="layer-below"><g class="imagelayer"/><g class="shapelayer"/></g><g class="cartesianlayer"><g class="subplot xy"><g class="layer-subplot"><g class="shapelayer"/><g class="imagelayer"/></g><g class="minor-gridlayer"><g class="x"/><g class="y"/></g><g class="gridlayer"><g class="x"><path class="xgrid crisp" transform="translate(101.28,0)" d="M0,100v320" style="stroke: rgb(255, 255, 255); stroke-opacity: 1; stroke-width: 1px;"/><path class="xgrid crisp" transform="translate(206.87,0)" d="M0,100v320" style="stroke: rgb(255, 255, 255); stroke-opacity: 1; stroke-width: 1px;"/><path class="xgrid crisp" transform="translate(312.32,0)" d="M0,100v320" style="stroke: rgb(255, 255, 255); stroke-opacity: 1; stroke-width: 1px;"/><path class="xgrid crisp" transform="translate(417.92,0)" d="M0,100v320" style="stroke: rgb(255, 255, 255); stroke-opacity: 1; stroke-width: 1px;"/><path class="xgrid crisp" transform="translate(523.37,0)" d="M0,100v320" style="stroke: rgb(255, 255, 255); stroke-opacity: 1; stroke-width: 1px;"/></g><g class="y"><path class="ygrid crisp" transform="translate(0,356.13)" d="M80,0h540" style="stroke: rgb(255, 255, 255); stroke-opacity: 1; stroke-width: 1px;"/><path class="ygrid crisp" transform="translate(0,292.27)" d="M80,0h540" style="stroke: rgb(255, 255, 255); stroke-opacity: 1; stroke-width: 1px;"/><path class="ygrid crisp" transform="translate(0,228.4)" d="M80,0h540" style="stroke: rgb(255, 255, 255); stroke-opacity: 1; stroke-width: 1px;"/><path class="ygrid crisp" transform="translate(0,164.54000000000002)" d="M80,0h540" style="stroke: rgb(255, 255, 255); stroke-opacity: 1; stroke-width: 1px;"/></g></g><g class="zerolinelayer"><path class="yzl zl crisp" transform="translate(0,420)" d="M80,0h540" style="stroke: rgb(255, 255, 255); stroke-opacity: 1; stroke-width: 2px;"/></g><g class="layer-between"><g class="shapelayer"/><g class="imagelayer"/></g><path class="xlines-below"/><path class="ylines-below"/><g class="overlines-below"/><g class="xaxislayer-below"/><g class="yaxislayer-below"/><g class="overaxes-below"/><g class="overplot"><g class="xy" transform="translate(80,100)" clip-path="url(#clip488dd1xyplot)"><g class="scatterlayer mlayer"><g class="trace scatter trace9ca458" style="stroke-miterlimit: 2;"><g class="fills"><g><path class="js-fill" d="M540,320L0,320L0,318.72L0,316.17L0.57,317.45L1.87,318.72L1.99,317.45L3.02,318.72L3.88,312.34L3.9,313.61L4.6,312.34L5.03,307.23L5.2,308.5L5.59,309.78L5.76,305.95L6.05,311.06L6.2,308.5L6.51,309.78L7.2,298.29L7.32,297.01L7.49,295.73L7.77,298.29L7.77,299.56L7.78,300.84L7.95,290.62L8.66,289.34L9.05,298.29L9.05,299.56L9.8,308.5L9.8,307.23L9.81,308.5L10.26,299.56L10.64,300.84L10.68,298.29L11.11,303.39L11.23,303.39L11.7,304.67L11.7,305.95L12.23,295.73L12.26,297.01L12.72,295.73L12.95,285.51L13,291.9L13,293.18L13.12,290.62L13.43,294.45L13.62,291.9L13.86,290.62L14.26,284.24L14.41,288.07L14.83,286.79L15.03,285.51L15.16,288.07L15.87,289.34L16.04,293.18L17.26,291.9L17.88,289.34L18.01,288.07L18.75,282.96L18.76,284.24L18.89,282.96L19.34,284.24L21.93,282.96L21.94,284.24L22.35,280.4L22.35,282.96L23.91,281.68L24.11,282.96L24.26,281.68L25.12,280.4L25.86,277.85L25.96,279.13L26.29,277.85L27.04,285.51L27.05,286.79L27.4,281.68L27.41,282.96L27.85,284.24L28.27,285.51L29.46,286.79L30.94,282.96L31.16,284.24L31.2,288.07L31.2,288.07L32.02,286.79L32.5,290.62L32.93,289.34L33.13,295.73L34.05,297.01L34.76,294.45L34.77,295.73L34.91,297.01L35.52,294.45L35.81,293.18L36.56,295.73L36.94,294.45L36.94,295.73L37.08,289.34L37.37,290.62L38.08,289.34L38.32,285.51L38.52,293.18L39.03,294.45L39.1,293.18L39.55,297.01L39.61,298.29L39.84,293.18L40.14,294.45L40.44,295.73L41.31,289.34L41.44,293.18L41.79,291.9L42,289.34L42.02,291.9L42.16,293.18L43.6,285.51L44.29,284.24L44.6,282.96L45.22,284.24L45.91,285.51L46.2,284.24L46.22,288.07L46.69,282.96L46.96,284.24L47.03,281.68L47.35,288.07L47.5,289.34L48.09,293.18L48.24,290.62L48.25,289.34L48.35,293.18L48.67,291.9L49.24,293.18L49.25,297.01L49.55,294.45L50.12,295.73L50.52,294.45L50.52,295.73L51.23,294.45L51.23,295.73L51.42,293.18L51.55,293.18L52.4,291.9L53.6,289.34L54.16,290.62L54.16,291.9L54.6,288.07L54.76,290.62L55.21,289.34L55.32,288.07L55.63,291.9L56.48,290.62L57.83,285.51L58.35,284.24L59.61,272.74L59.68,275.29L59.78,276.57L59.78,277.85L60.39,275.29L60.56,274.02L60.68,272.74L60.7,274.02L62.3,272.74L62.83,266.35L63.36,267.63L63.85,265.08L63.96,266.35L64.43,265.08L65.84,251.03L65.87,253.58L66.62,252.3L67.29,254.86L67.29,256.13L67.61,262.52L68.32,261.24L69.61,257.41L70.37,256.13L70.62,263.8L71.54,262.52L72.67,275.29L72.81,274.02L73.35,272.74L73.35,271.46L73.76,271.46L74.22,272.74L75.32,268.91L75.33,270.18L75.8,267.63L75.85,268.91L76.73,267.63L77.52,266.35L78.04,265.08L81.43,254.86L81.43,256.13L81.89,259.97L82.03,256.13L82.44,257.41L82.74,258.69L82.8,254.86L83.01,257.41L83.76,258.69L84.09,252.3L84.1,253.58L85.26,252.3L85.47,253.58L85.67,252.3L85.91,251.03L85.94,249.75L86.67,253.58L86.8,252.3L86.94,253.58L87.53,249.75L87.53,251.03L87.68,252.3L88.09,257.41L88.51,256.13L88.86,254.86L88.86,252.3L88.97,256.13L89.96,254.86L89.96,256.13L89.99,253.58L90.67,256.13L90.84,254.86L91.66,257.41L92.01,256.13L92.59,257.41L92.68,258.69L93,263.8L93.55,262.52L93.87,271.46L94.16,268.91L94.64,267.63L95.72,263.8L95.86,265.08L95.86,266.35L97.76,258.69L97.78,259.97L99.92,252.3L100.06,253.58L100.06,254.86L100.97,257.41L101.08,258.69L101.96,270.18L102.27,268.91L102.69,271.46L102.69,270.18L102.79,268.91L102.83,271.46L103.26,258.69L103.27,258.69L103.69,257.41L104.01,254.86L104.29,261.24L104.69,259.97L105.7,257.41L105.7,258.69L105.71,259.97L105.83,262.52L106.28,261.24L106.78,259.97L107.14,263.8L107.28,261.24L107.69,259.97L107.72,261.24L108.29,258.69L108.31,259.97L108.91,258.69L109.02,257.41L109.02,258.69L109.72,259.97L109.72,261.24L110.34,259.97L110.92,258.69L111.15,254.86L111.33,254.86L111.76,253.58L113.15,247.19L113.2,248.47L113.27,249.75L115.38,245.92L115.96,247.19L117.39,243.36L117.87,244.64L118.17,243.36L119.03,274.02L119.13,272.74L119.76,270.18L120.05,271.46L120.47,270.18L120.47,271.46L121.47,270.18L121.88,271.46L122.19,270.18L122.21,268.91L122.91,267.63L123.16,268.91L123.17,271.46L123.4,266.35L123.93,265.08L123.93,266.35L124.36,263.8L124.42,263.8L124.99,262.52L124.99,261.24L125.49,267.63L127.27,266.35L127.5,267.63L127.55,266.35L128.08,265.08L128.53,259.97L129.34,258.69L131.07,253.58L131.46,254.86L131.94,252.3L132.01,253.58L132.01,254.86L132.17,261.24L132.54,258.69L133.09,257.41L133.62,254.86L133.87,256.13L134.48,261.24L135.21,259.97L136.21,254.86L136.6,256.13L137.3,254.86L138.4,253.58L139.56,249.75L140.39,251.03L141.15,249.75L141.22,251.03L141.74,249.75L142.11,248.47L142.12,251.03L142.67,245.92L142.67,245.92L143.12,244.64L143.13,242.08L143.71,243.36L144.07,242.08L144.58,239.53L144.62,238.25L144.69,236.97L144.74,240.81L145.3,239.53L145.33,240.81L145.75,238.25L146.39,239.53L146.79,235.7L147.05,244.64L147.05,245.92L147.05,247.19L147.73,243.36L147.8,243.36L148.2,244.64L148.47,243.36L148.49,245.92L149.69,244.64L150.36,243.36L150.48,245.92L151.32,244.64L151.33,245.92L152,242.08L152.06,243.36L152.63,244.64L154.41,242.08L154.42,243.36L155.55,236.97L156.45,235.7L156.71,233.14L157.25,234.42L157.25,233.14L157.93,239.53L158.3,238.25L159.52,236.97L159.87,238.25L162.33,231.87L162.48,233.14L163.01,228.03L163.31,226.76L164.64,219.09L165.39,217.82L165.39,219.09L165.79,217.82L166.91,216.54L166.97,215.26L167.43,220.37L167.87,219.09L168.95,216.54L168.95,215.26L168.98,213.98L169.19,222.92L170.5,221.65L170.74,219.09L171.87,217.82L172.62,222.92L172.98,221.65L175.95,211.43L176.02,210.15L176.06,211.43L177.84,210.15L178.1,215.26L178.1,216.54L178.11,220.37L178.53,217.82L180.53,216.54L180.56,219.09L180.71,217.82L181.47,216.54L182,211.43L182.01,212.71L182.55,213.98L182.91,215.26L183.83,210.15L183.89,211.43L184.03,212.71L184.89,211.43L184.9,212.71L188.09,207.6L188.19,206.32L188.77,202.49L188.78,203.76L189.21,202.49L189.24,205.04L189.92,203.76L190.1,202.49L190.8,203.76L191.1,202.49L191.86,201.21L192.05,199.93L192.83,197.38L192.97,196.1L193.15,197.38L193.3,194.82L193.32,196.1L194.14,194.82L195.55,185.88L195.55,188.44L195.82,187.16L196.16,184.61L196.48,185.88L197.01,184.61L197.22,182.05L197.69,184.61L197.97,183.33L198.35,180.77L198.93,179.5L200.12,178.22L200.12,179.5L200.2,178.22L200.24,179.5L201.62,178.22L202.37,179.5L203.12,178.22L203.35,176.94L203.35,178.22L205.25,176.94L205.97,175.66L205.98,176.94L205.98,178.22L206.38,176.94L207.23,178.22L207.23,179.5L207.94,179.5L208.12,178.22L209.12,175.66L209.86,174.39L210.52,170.55L210.91,171.83L212.33,166.72L212.66,168L214.12,166.72L214.35,165.45L215.37,164.17L215.49,165.45L216.23,164.17L218.07,160.34L218.38,161.61L218.75,157.78L219.51,156.5L219.95,159.06L219.99,157.78L220.27,156.5L221.03,153.95L221.25,155.23L221.29,156.5L221.31,160.34L222.04,157.78L222.06,156.5L222.51,155.23L223.01,162.89L223.03,161.61L223.78,160.34L224,161.61L224.48,157.78L224.62,159.06L225.33,168L225.38,166.72L225.63,183.33L226.15,182.05L226.44,189.71L227.04,188.44L227.04,189.71L227.64,184.61L227.64,185.88L227.81,187.16L228.09,188.44L228.25,185.88L228.37,184.61L229.36,179.5L229.66,178.22L230.15,174.39L230.2,173.11L230.3,178.22L231.25,176.94L233.3,174.39L233.33,173.11L233.93,166.72L234.31,165.45L234.77,166.72L236.46,165.45L237.64,162.89L237.72,161.61L238.6,160.34L239.02,161.61L239.77,159.06L241.67,157.78L242.26,155.23L242.34,153.95L242.5,151.39L243.25,150.12L243.38,151.39L243.57,150.12L244.75,148.84L245.08,145.01L245.1,152.67L245.1,153.95L245.1,155.23L245.66,150.12L246.11,148.84L246.32,150.12L247.3,148.84L247.46,150.12L247.7,148.84L248.31,150.12L248.38,148.84L248.57,153.95L249.01,151.39L249.28,152.67L249.59,151.39L249.61,153.95L249.72,153.95L249.73,155.23L250.76,151.39L251.22,150.12L251.64,147.56L251.75,153.95L251.77,153.95L252.16,152.67L252.47,151.39L252.62,152.67L252.66,153.95L252.74,152.67L253.06,155.23L253.38,156.5L253.47,153.95L253.5,164.17L253.51,165.45L254.34,187.16L254.47,185.88L254.79,187.16L255.35,185.88L256.4,180.77L256.49,182.05L257.83,173.11L257.98,174.39L258.27,173.11L259.53,169.28L259.53,170.55L259.68,171.83L260.29,168L260.6,166.72L260.8,165.45L261.46,166.72L262.1,160.34L262.57,159.06L263.06,153.95L263.08,155.23L263.62,156.5L264.46,151.39L264.65,150.12L265.94,142.45L266.38,141.18L266.58,139.9L267.65,138.62L269.1,130.96L269.53,129.68L270.54,125.85L270.58,127.13L271.97,120.74L272.64,119.46L274.68,113.08L274.68,114.35L277.74,97.75L277.96,99.03L277.97,101.58L278.92,100.3L278.92,101.58L279.65,97.75L280.3,96.47L280.6,97.75L281.79,96.47L282.09,92.64L284.59,93.92L284.76,123.29L285.69,122.02L286.9,123.29L287.06,122.02L287.06,120.74L287.14,124.57L287.32,122.02L287.94,123.29L290.91,122.02L291.66,120.74L292.23,116.91L292.24,115.63L292.36,118.18L292.9,116.91L293.02,115.63L293.07,116.91L294.03,115.63L295.23,122.02L295.35,120.74L295.58,122.02L296.27,116.91L296.95,115.63L296.99,116.91L297.52,111.8L297.89,113.08L298.19,127.13L299.15,125.85L299.33,127.13L299.85,124.57L299.86,125.85L299.86,127.13L300.89,124.57L301.07,125.85L301.18,123.29L301.64,124.57L302.02,125.85L302.5,127.13L303.03,125.85L304.52,120.74L304.84,119.46L305.17,122.02L305.33,116.91L305.45,118.18L305.5,116.91L306.07,118.18L307.24,116.91L307.26,118.18L307.81,115.63L308.17,114.35L308.49,109.24L308.77,110.52L309.16,111.8L309.17,116.91L309.36,114.35L310.42,113.08L311.16,124.57L311.16,123.29L311.27,122.02L311.3,120.74L311.62,132.24L311.77,132.24L311.87,133.51L311.92,142.45L312.44,141.18L312.63,139.9L312.99,141.18L313.02,139.9L313.32,138.62L314,136.07L314.58,134.79L315.3,133.51L315.37,132.24L315.44,130.96L316.28,129.68L316.52,130.96L316.52,129.68L317.16,128.4L317.49,132.24L317.59,128.4L318.06,127.13L318.47,123.29L319.12,122.02L319.32,120.74L320.68,119.46L321.37,115.63L321.42,114.35L322.67,106.69L323.67,105.41L326.44,96.47L327.57,95.19L328.37,92.64L329.21,91.36L329.35,88.81L330.1,90.08L330.63,109.24L330.68,107.97L330.96,109.24L331.25,107.97L331.27,110.52L331.62,109.24L332.27,110.52L332.8,109.24L333.55,110.52L334.7,106.69L335.67,105.41L336.99,104.13L337.33,105.41L337.39,106.69L338.42,105.41L338.95,102.86L339.42,104.13L339.6,102.86L340.04,104.13L340.06,105.41L340.07,106.69L340.76,104.13L341.45,105.41L342.46,141.18L342.75,139.9L342.92,136.07L343.38,141.18L343.54,142.45L345.02,130.96L345.37,129.68L345.5,132.24L345.97,130.96L346.41,129.68L347.42,132.24L347.82,130.96L348.59,129.68L348.7,130.96L349.68,128.4L350.03,127.13L350.45,128.4L350.83,127.13L351.44,125.85L351.69,124.57L351.9,122.02L353.04,120.74L353.32,119.46L354.43,118.18L356.07,113.08L356.07,114.35L356.1,115.63L357.08,110.52L357.62,111.8L358.48,106.69L358.49,107.97L358.99,106.69L359.04,107.97L359.67,105.41L359.68,104.13L359.79,101.58L361.12,100.3L361.98,97.75L362.02,96.47L362.86,93.92L363.19,92.64L364.15,97.75L364.54,96.47L364.73,95.19L366.27,92.64L366.49,93.92L367.61,91.36L368.19,90.08L369.77,84.97L370.4,83.7L370.77,82.42L370.99,83.7L371.05,84.97L371.07,83.7L371.96,82.42L373.11,79.87L373.22,78.59L374.23,77.31L374.24,78.59L374.32,96.47L374.97,92.64L375.24,93.92L375.87,91.36L376.12,90.08L376.88,91.36L377.81,90.08L378.45,86.25L378.56,87.53L378.85,86.25L380.15,83.7L381.01,82.42L381.65,79.87L381.65,78.59L381.65,72.2L382.93,70.92L383.98,67.09L385.51,68.37L385.51,70.92L385.94,67.09L385.94,68.37L386.3,67.09L386.8,68.37L387.13,67.09L387.14,65.82L387.4,67.09L388.29,65.82L388.43,64.54L388.43,65.82L389.77,67.09L390.42,65.82L390.48,67.09L390.65,68.37L390.65,69.65L391.28,69.65L391.59,70.92L391.8,84.97L392.8,86.25L393.83,83.7L394.36,82.42L394.49,79.87L394.53,83.7L394.96,84.97L396.19,76.03L396.19,77.31L396.19,76.03L396.22,82.42L396.54,79.87L397.11,78.59L398.44,74.76L399.58,73.48L400.3,69.65L401.03,68.37L401.4,64.54L401.89,67.09L402.15,65.82L403.19,59.43L403.19,60.71L404.64,59.43L405.43,53.04L405.44,55.6L406.27,54.32L406.61,55.6L406.65,54.32L407.17,53.04L407.73,50.49L408.39,51.76L409.36,47.93L410,46.66L410.63,44.1L410.86,45.38L410.99,46.66L411.31,47.93L411.52,46.66L412.72,47.93L415.15,38.99L415.43,37.71L416.43,36.44L417.18,37.71L418.28,33.88L418.37,32.61L418.43,33.88L418.6,28.77L419.23,30.05L419.31,27.5L420.47,26.22L420.64,23.66L420.83,26.22L421.09,27.5L421.5,26.22L421.66,27.5L421.69,28.77L421.97,31.33L422.52,30.05L423.57,22.39L423.61,26.22L424.28,24.94L424.36,23.66L424.58,26.22L424.82,26.22L424.99,27.5L425.79,22.39L426.12,23.66L426.26,27.5L426.77,22.39L427.1,21.11L427.69,18.55L427.69,19.83L427.76,21.11L428.32,16L428.42,18.55L428.69,19.83L428.86,17.28L429,28.77L429,30.05L429.41,36.44L429.71,24.94L429.78,26.22L430.41,33.88L430.44,30.05L430.57,31.33L432.28,22.39L432.33,23.66L432.48,36.44L432.89,31.33L433.18,30.05L433.22,32.61L433.75,30.05L434.34,28.77L435,32.61L435.28,31.33L435.51,30.05L435.66,32.61L435.74,31.33L436.33,30.05L436.98,40.27L437.01,38.99L437.39,37.71L437.47,36.44L437.8,40.27L437.97,37.71L438.07,38.99L438.84,33.88L438.88,35.16L439.02,36.44L439.67,33.88L439.73,32.61L439.99,31.33L440.4,32.61L440.4,33.88L440.98,51.76L441.27,53.04L441.91,49.21L442.76,47.93L442.9,51.76L443.9,53.04L445.02,50.49L445.06,49.21L445.22,50.49L445.6,49.21L446.07,47.93L446.54,45.38L446.66,49.21L446.8,47.93L447.04,46.66L447.7,44.1L448.06,45.38L448.69,51.76L448.92,49.21L448.95,47.93L449.41,51.76L449.66,51.76L449.81,50.49L450.2,41.55L450.59,49.21L450.69,47.93L450.97,44.1L451.09,51.76L451.09,53.04L451.7,44.1L451.82,46.66L451.96,45.38L452.32,41.55L452.54,42.82L452.73,44.1L452.99,41.55L453.15,50.49L453.15,51.76L453.45,69.65L453.88,64.54L453.98,65.82L453.99,67.09L454.76,65.82L454.99,63.26L455.05,73.48L455.18,72.2L455.48,70.92L455.58,72.2L455.99,70.92L456.04,72.2L456.14,69.65L456.76,68.37L457.41,64.54L457.6,63.26L458.35,56.87L458.61,59.43L458.64,60.71L458.8,59.43L459.18,65.82L459.77,64.54L459.89,65.82L460.16,63.26L460.34,64.54L460.69,65.82L461.35,55.6L461.66,54.32L461.68,53.04L461.77,56.87L462.13,54.32L462.63,53.04L462.64,54.32L463.24,44.1L463.27,46.66L464.08,45.38L464.58,41.55L465.15,42.82L465.28,40.27L465.57,46.66L465.95,45.38L465.97,44.1L466.3,42.82L466.56,45.38L466.86,44.1L467.04,46.66L467.41,44.1L467.76,45.38L468.3,38.99L468.66,41.55L468.72,42.82L468.85,41.55L468.88,45.38L469.33,42.82L469.76,41.55L469.78,40.27L470.33,51.76L470.35,49.21L470.49,47.93L471.75,51.76L471.94,50.49L472.2,53.04L472.67,51.76L472.92,50.49L473.94,55.6L474.08,53.04L474.11,51.76L474.23,49.21L474.79,53.04L474.79,53.04L475.14,51.76L475.4,47.93L475.79,51.76L475.83,53.04L476.15,51.76L477,72.2L477.28,70.92L479.01,55.6L479.1,56.87L479.18,54.32L479.29,65.82L479.58,64.54L479.58,65.82L480.14,64.54L480.16,65.82L480.43,67.09L480.84,74.76L481.13,72.2L481.28,70.92L481.4,65.82L482.02,67.09L482.04,65.82L482.27,63.26L482.3,68.37L482.47,67.09L482.94,68.37L483.22,69.65L483.52,65.82L483.88,64.54L484.19,68.37L484.2,69.65L485.49,65.82L486.21,64.54L486.48,59.43L486.79,64.54L487.1,63.26L488.24,53.04L489.02,54.32L489.55,67.09L489.97,65.82L490.06,68.37L490.41,60.71L490.59,61.98L490.85,60.71L491.32,68.37L492.04,67.09L492.23,65.82L492.56,68.37L492.56,69.65L493.22,67.09L493.47,81.14L493.57,79.87L493.57,77.31L494.14,84.97L494.43,83.7L494.64,84.97L496.13,83.7L496.73,84.97L497.03,83.7L497.49,84.97L497.51,83.7L498.06,82.42L498.06,81.14L498.33,84.97L498.41,83.7L499.04,82.42L499.27,83.7L499.6,82.42L500,81.14L500.08,78.59L500.22,82.42L500.52,81.14L501.05,79.87L501.13,78.59L501.27,82.42L501.57,82.42L501.57,83.7L501.57,84.97L502.11,83.7L502.53,82.42L503.34,79.87L503.65,81.14L504.26,84.97L504.44,83.7L505.24,76.03L505.27,77.31L505.27,78.59L505.27,81.14L505.43,78.59L506.29,79.87L506.29,78.59L506.58,78.59L507.76,77.31L508.32,73.48L508.45,74.76L508.57,76.03L509.77,68.37L510.18,69.65L510.18,70.92L510.49,65.82L510.65,67.09L511.2,65.82L511.78,68.37L511.79,69.65L512.28,68.37L512.34,69.65L512.64,68.37L512.65,67.09L513.37,69.65L513.56,68.37L513.66,67.09L514.59,65.82L515.22,67.09L515.66,65.82L516.43,60.71L516.67,59.43L516.69,60.71L516.84,59.43L517.57,58.15L517.84,60.71L518.3,59.43L518.41,60.71L518.83,55.6L518.99,58.15L519.28,59.43L519.55,55.6L521.36,56.87L521.69,53.04L522.34,54.32L522.6,67.09L523.05,63.26L523.18,64.54L523.31,67.09L523.9,65.82L524.31,64.54L524.64,60.71L525.6,59.43L525.73,56.87L526.77,55.6L527.44,53.04L527.55,51.76L527.68,49.21L529.13,50.49L529.55,69.65L529.85,67.09L529.93,65.82L529.99,68.37L530.74,67.09L531.7,63.26L531.7,64.54L532.44,70.92L532.48,69.65L532.92,68.37L533.57,63.26L533.61,64.54L534.06,63.26L536.58,58.15L536.91,56.87L537.56,54.32L538.04,53.04L539.02,50.49L539.07,49.21L539.28,50.49L539.93,49.21L540,47.93" style="fill: rgb(255, 127, 14); fill-opacity: 0.5; stroke-width: 0;"/></g></g><g class="errorbars"/><g class="lines"><path class="js-line" d="M0,318.72L0,316.17L0.57,317.45L1.87,318.72L1.99,317.45L3.02,318.72L3.88,312.34L3.9,313.61L4.6,312.34L5.03,307.23L5.2,308.5L5.59,309.78L5.76,305.95L6.05,311.06L6.2,308.5L6.51,309.78L7.2,298.29L7.32,297.01L7.49,295.73L7.77,298.29L7.77,299.56L7.78,300.84L7.95,290.62L8.66,289.34L9.05,298.29L9.05,299.56L9.8,308.5L9.8,307.23L9.81,308.5L10.26,299.56L10.64,300.84L10.68,298.29L11.11,303.39L11.23,303.39L11.7,304.67L11.7,305.95L12.23,295.73L12.26,297.01L12.72,295.73L12.95,285.51L13,291.9L13,293.18L13.12,290.62L13.43,294.45L13.62,291.9L13.86,290.62L14.26,284.24L14.41,288.07L14.83,286.79L15.03,285.51L15.16,288.07L15.87,289.34L16.04,293.18L17.26,291.9L17.88,289.34L18.01,288.07L18.75,282.96L18.76,284.24L18.89,282.96L19.34,284.24L21.93,282.96L21.94,284.24L22.35,280.4L22.35,282.96L23.91,281.68L24.11,282.96L24.26,281.68L25.12,280.4L25.86,277.85L25.96,279.13L26.29,277.85L27.04,285.51L27.05,286.79L27.4,281.68L27.41,282.96L27.85,284.24L28.27,285.51L29.46,286.79L30.94,282.96L31.16,284.24L31.2,288.07L31.2,288.07L32.02,286.79L32.5,290.62L32.93,289.34L33.13,295.73L34.05,297.01L34.76,294.45L34.77,295.73L34.91,297.01L35.52,294.45L35.81,293.18L36.56,295.73L36.94,294.45L36.94,295.73L37.08,289.34L37.37,290.62L38.08,289.34L38.32,285.51L38.52,293.18L39.03,294.45L39.1,293.18L39.55,297.01L39.61,298.29L39.84,293.18L40.14,294.45L40.44,295.73L41.31,289.34L41.44,293.18L41.79,291.9L42,289.34L42.02,291.9L42.16,293.18L43.6,285.51L44.29,284.24L44.6,282.96L45.22,284.24L45.91,285.51L46.2,284.24L46.22,288.07L46.69,282.96L46.96,284.24L47.03,281.68L47.35,288.07L47.5,289.34L48.09,293.18L48.24,290.62L48.25,289.34L48.35,293.18L48.67,291.9L49.24,293.18L49.25,297.01L49.55,294.45L50.12,295.73L50.52,294.45L50.52,295.73L51.23,294.45L51.23,295.73L51.42,293.18L51.55,293.18L52.4,291.9L53.6,289.34L54.16,290.62L54.16,291.9L54.6,288.07L54.76,290.62L55.21,289.34L55.32,288.07L55.63,291.9L56.48,290.62L57.83,285.51L58.35,284.24L59.61,272.74L59.68,275.29L59.78,276.57L59.78,277.85L60.39,275.29L60.56,274.02L60.68,272.74L60.7,274.02L62.3,272.74L62.83,266.35L63.36,267.63L63.85,265.08L63.96,266.35L64.43,265.08L65.84,251.03L65.87,253.58L66.62,252.3L67.29,254.86L67.29,256.13L67.61,262.52L68.32,261.24L69.61,257.41L70.37,256.13L70.62,263.8L71.54,262.52L72.67,275.29L72.81,274.02L73.35,272.74L73.35,271.46L73.76,271.46L74.22,272.74L75.32,268.91L75.33,270.18L75.8,267.63L75.85,268.91L76.73,267.63L77.52,266.35L78.04,265.08L81.43,254.86L81.43,256.13L81.89,259.97L82.03,256.13L82.44,257.41L82.74,258.69L82.8,254.86L83.01,257.41L83.76,258.69L84.09,252.3L84.1,253.58L85.26,252.3L85.47,253.58L85.67,252.3L85.91,251.03L85.94,249.75L86.67,253.58L86.8,252.3L86.94,253.58L87.53,249.75L87.53,251.03L87.68,252.3L88.09,257.41L88.51,256.13L88.86,254.86L88.86,252.3L88.97,256.13L89.96,254.86L89.96,256.13L89.99,253.58L90.67,256.13L90.84,254.86L91.66,257.41L92.01,256.13L92.59,257.41L92.68,258.69L93,263.8L93.55,262.52L93.87,271.46L94.16,268.91L94.64,267.63L95.72,263.8L95.86,265.08L95.86,266.35L97.76,258.69L97.78,259.97L99.92,252.3L100.06,253.58L100.06,254.86L100.97,257.41L101.08,258.69L101.96,270.18L102.27,268.91L102.69,271.46L102.69,270.18L102.79,268.91L102.83,271.46L103.26,258.69L103.27,258.69L103.69,257.41L104.01,254.86L104.29,261.24L104.69,259.97L105.7,257.41L105.7,258.69L105.71,259.97L105.83,262.52L106.28,261.24L106.78,259.97L107.14,263.8L107.28,261.24L107.69,259.97L107.72,261.24L108.29,258.69L108.31,259.97L108.91,258.69L109.02,257.41L109.02,258.69L109.72,259.97L109.72,261.24L110.34,259.97L110.92,258.69L111.15,254.86L111.33,254.86L111.76,253.58L113.15,247.19L113.2,248.47L113.27,249.75L115.38,245.92L115.96,247.19L117.39,243.36L117.87,244.64L118.17,243.36L119.03,274.02L119.13,272.74L119.76,270.18L120.05,271.46L120.47,270.18L120.47,271.46L121.47,270.18L121.88,271.46L122.19,270.18L122.21,268.91L122.91,267.63L123.16,268.91L123.17,271.46L123.4,266.35L123.93,265.08L123.93,266.35L124.36,263.8L124.42,263.8L124.99,262.52L124.99,261.24L125.49,267.63L127.27,266.35L127.5,267.63L127.55,266.35L128.08,265.08L128.53,259.97L129.34,258.69L131.07,253.58L131.46,254.86L131.94,252.3L132.01,253.58L132.01,254.86L132.17,261.24L132.54,258.69L133.09,257.41L133.62,254.86L133.87,256.13L134.48,261.24L135.21,259.97L136.21,254.86L136.6,256.13L137.3,254.86L138.4,253.58L139.56,249.75L140.39,251.03L141.15,249.75L141.22,251.03L141.74,249.75L142.11,248.47L142.12,251.03L142.67,245.92L142.67,245.92L143.12,244.64L143.13,242.08L143.71,243.36L144.07,242.08L144.58,239.53L144.62,238.25L144.69,236.97L144.74,240.81L145.3,239.53L145.33,240.81L145.75,238.25L146.39,239.53L146.79,235.7L147.05,244.64L147.05,245.92L147.05,247.19L147.73,243.36L147.8,243.36L148.2,244.64L148.47,243.36L148.49,245.92L149.69,244.64L150.36,243.36L150.48,245.92L151.32,244.64L151.33,245.92L152,242.08L152.06,243.36L152.63,244.64L154.41,242.08L154.42,243.36L155.55,236.97L156.45,235.7L156.71,233.14L157.25,234.42L157.25,233.14L157.93,239.53L158.3,238.25L159.52,236.97L159.87,238.25L162.33,231.87L162.48,233.14L163.01,228.03L163.31,226.76L164.64,219.09L165.39,217.82L165.39,219.09L165.79,217.82L166.91,216.54L166.97,215.26L167.43,220.37L167.87,219.09L168.95,216.54L168.95,215.26L168.98,213.98L169.19,222.92L170.5,221.65L170.74,219.09L171.87,217.82L172.62,222.92L172.98,221.65L175.95,211.43L176.02,210.15L176.06,211.43L177.84,210.15L178.1,215.26L178.1,216.54L178.11,220.37L178.53,217.82L180.53,216.54L180.56,219.09L180.71,217.82L181.47,216.54L182,211.43L182.01,212.71L182.55,213.98L182.91,215.26L183.83,210.15L183.89,211.43L184.03,212.71L184.89,211.43L184.9,212.71L188.09,207.6L188.19,206.32L188.77,202.49L188.78,203.76L189.21,202.49L189.24,205.04L189.92,203.76L190.1,202.49L190.8,203.76L191.1,202.49L191.86,201.21L192.05,199.93L192.83,197.38L192.97,196.1L193.15,197.38L193.3,194.82L193.32,196.1L194.14,194.82L195.55,185.88L195.55,188.44L195.82,187.16L196.16,184.61L196.48,185.88L197.01,184.61L197.22,182.05L197.69,184.61L197.97,183.33L198.35,180.77L198.93,179.5L200.12,178.22L200.12,179.5L200.2,178.22L200.24,179.5L201.62,178.22L202.37,179.5L203.12,178.22L203.35,176.94L203.35,178.22L205.25,176.94L205.97,175.66L205.98,176.94L205.98,178.22L206.38,176.94L207.23,178.22L207.23,179.5L207.94,179.5L208.12,178.22L209.12,175.66L209.86,174.39L210.52,170.55L210.91,171.83L212.33,166.72L212.66,168L214.12,166.72L214.35,165.45L215.37,164.17L215.49,165.45L216.23,164.17L218.07,160.34L218.38,161.61L218.75,157.78L219.51,156.5L219.95,159.06L219.99,157.78L220.27,156.5L221.03,153.95L221.25,155.23L221.29,156.5L221.31,160.34L222.04,157.78L222.06,156.5L222.51,155.23L223.01,162.89L223.03,161.61L223.78,160.34L224,161.61L224.48,157.78L224.62,159.06L225.33,168L225.38,166.72L225.63,183.33L226.15,182.05L226.44,189.71L227.04,188.44L227.04,189.71L227.64,184.61L227.64,185.88L227.81,187.16L228.09,188.44L228.25,185.88L228.37,184.61L229.36,179.5L229.66,178.22L230.15,174.39L230.2,173.11L230.3,178.22L231.25,176.94L233.3,174.39L233.33,173.11L233.93,166.72L234.31,165.45L234.77,166.72L236.46,165.45L237.64,162.89L237.72,161.61L238.6,160.34L239.02,161.61L239.77,159.06L241.67,157.78L242.26,155.23L242.34,153.95L242.5,151.39L243.25,150.12L243.38,151.39L243.57,150.12L244.75,148.84L245.08,145.01L245.1,152.67L245.1,153.95L245.1,155.23L245.66,150.12L246.11,148.84L246.32,150.12L247.3,148.84L247.46,150.12L247.7,148.84L248.31,150.12L248.38,148.84L248.57,153.95L249.01,151.39L249.28,152.67L249.59,151.39L249.61,153.95L249.72,153.95L249.73,155.23L250.76,151.39L251.22,150.12L251.64,147.56L251.75,153.95L251.77,153.95L252.16,152.67L252.47,151.39L252.62,152.67L252.66,153.95L252.74,152.67L253.06,155.23L253.38,156.5L253.47,153.95L253.5,164.17L253.51,165.45L254.34,187.16L254.47,185.88L254.79,187.16L255.35,185.88L256.4,180.77L256.49,182.05L257.83,173.11L257.98,174.39L258.27,173.11L259.53,169.28L259.53,170.55L259.68,171.83L260.29,168L260.6,166.72L260.8,165.45L261.46,166.72L262.1,160.34L262.57,159.06L263.06,153.95L263.08,155.23L263.62,156.5L264.46,151.39L264.65,150.12L265.94,142.45L266.38,141.18L266.58,139.9L267.65,138.62L269.1,130.96L269.53,129.68L270.54,125.85L270.58,127.13L271.97,120.74L272.64,119.46L274.68,113.08L274.68,114.35L277.74,97.75L277.96,99.03L277.97,101.58L278.92,100.3L278.92,101.58L279.65,97.75L280.3,96.47L280.6,97.75L281.79,96.47L282.09,92.64L284.59,93.92L284.76,123.29L285.69,122.02L286.9,123.29L287.06,122.02L287.06,120.74L287.14,124.57L287.32,122.02L287.94,123.29L290.91,122.02L291.66,120.74L292.23,116.91L292.24,115.63L292.36,118.18L292.9,116.91L293.02,115.63L293.07,116.91L294.03,115.63L295.23,122.02L295.35,120.74L295.58,122.02L296.27,116.91L296.95,115.63L296.99,116.91L297.52,111.8L297.89,113.08L298.19,127.13L299.15,125.85L299.33,127.13L299.85,124.57L299.86,125.85L299.86,127.13L300.89,124.57L301.07,125.85L301.18,123.29L301.64,124.57L302.02,125.85L302.5,127.13L303.03,125.85L304.52,120.74L304.84,119.46L305.17,122.02L305.33,116.91L305.45,118.18L305.5,116.91L306.07,118.18L307.24,116.91L307.26,118.18L307.81,115.63L308.17,114.35L308.49,109.24L308.77,110.52L309.16,111.8L309.17,116.91L309.36,114.35L310.42,113.08L311.16,124.57L311.16,123.29L311.27,122.02L311.3,120.74L311.62,132.24L311.77,132.24L311.87,133.51L311.92,142.45L312.44,141.18L312.63,139.9L312.99,141.18L313.02,139.9L313.32,138.62L314,136.07L314.58,134.79L315.3,133.51L315.37,132.24L315.44,130.96L316.28,129.68L316.52,130.96L316.52,129.68L317.16,128.4L317.49,132.24L317.59,128.4L318.06,127.13L318.47,123.29L319.12,122.02L319.32,120.74L320.68,119.46L321.37,115.63L321.42,114.35L322.67,106.69L323.67,105.41L326.44,96.47L327.57,95.19L328.37,92.64L329.21,91.36L329.35,88.81L330.1,90.08L330.63,109.24L330.68,107.97L330.96,109.24L331.25,107.97L331.27,110.52L331.62,109.24L332.27,110.52L332.8,109.24L333.55,110.52L334.7,106.69L335.67,105.41L336.99,104.13L337.33,105.41L337.39,106.69L338.42,105.41L338.95,102.86L339.42,104.13L339.6,102.86L340.04,104.13L340.06,105.41L340.07,106.69L340.76,104.13L341.45,105.41L342.46,141.18L342.75,139.9L342.92,136.07L343.38,141.18L343.54,142.45L345.02,130.96L345.37,129.68L345.5,132.24L345.97,130.96L346.41,129.68L347.42,132.24L347.82,130.96L348.59,129.68L348.7,130.96L349.68,128.4L350.03,127.13L350.45,128.4L350.83,127.13L351.44,125.85L351.69,124.57L351.9,122.02L353.04,120.74L353.32,119.46L354.43,118.18L356.07,113.08L356.07,114.35L356.1,115.63L357.08,110.52L357.62,111.8L358.48,106.69L358.49,107.97L358.99,106.69L359.04,107.97L359.67,105.41L359.68,104.13L359.79,101.58L361.12,100.3L361.98,97.75L362.02,96.47L362.86,93.92L363.19,92.64L364.15,97.75L364.54,96.47L364.73,95.19L366.27,92.64L366.49,93.92L367.61,91.36L368.19,90.08L369.77,84.97L370.4,83.7L370.77,82.42L370.99,83.7L371.05,84.97L371.07,83.7L371.96,82.42L373.11,79.87L373.22,78.59L374.23,77.31L374.24,78.59L374.32,96.47L374.97,92.64L375.24,93.92L375.87,91.36L376.12,90.08L376.88,91.36L377.81,90.08L378.45,86.25L378.56,87.53L378.85,86.25L380.15,83.7L381.01,82.42L381.65,79.87L381.65,78.59L381.65,72.2L382.93,70.92L383.98,67.09L385.51,68.37L385.51,70.92L385.94,67.09L385.94,68.37L386.3,67.09L386.8,68.37L387.13,67.09L387.14,65.82L387.4,67.09L388.29,65.82L388.43,64.54L388.43,65.82L389.77,67.09L390.42,65.82L390.48,67.09L390.65,68.37L390.65,69.65L391.28,69.65L391.59,70.92L391.8,84.97L392.8,86.25L393.83,83.7L394.36,82.42L394.49,79.87L394.53,83.7L394.96,84.97L396.19,76.03L396.19,77.31L396.19,76.03L396.22,82.42L396.54,79.87L397.11,78.59L398.44,74.76L399.58,73.48L400.3,69.65L401.03,68.37L401.4,64.54L401.89,67.09L402.15,65.82L403.19,59.43L403.19,60.71L404.64,59.43L405.43,53.04L405.44,55.6L406.27,54.32L406.61,55.6L406.65,54.32L407.17,53.04L407.73,50.49L408.39,51.76L409.36,47.93L410,46.66L410.63,44.1L410.86,45.38L410.99,46.66L411.31,47.93L411.52,46.66L412.72,47.93L415.15,38.99L415.43,37.71L416.43,36.44L417.18,37.71L418.28,33.88L418.37,32.61L418.43,33.88L418.6,28.77L419.23,30.05L419.31,27.5L420.47,26.22L420.64,23.66L420.83,26.22L421.09,27.5L421.5,26.22L421.66,27.5L421.69,28.77L421.97,31.33L422.52,30.05L423.57,22.39L423.61,26.22L424.28,24.94L424.36,23.66L424.58,26.22L424.82,26.22L424.99,27.5L425.79,22.39L426.12,23.66L426.26,27.5L426.77,22.39L427.1,21.11L427.69,18.55L427.69,19.83L427.76,21.11L428.32,16L428.42,18.55L428.69,19.83L428.86,17.28L429,28.77L429,30.05L429.41,36.44L429.71,24.94L429.78,26.22L430.41,33.88L430.44,30.05L430.57,31.33L432.28,22.39L432.33,23.66L432.48,36.44L432.89,31.33L433.18,30.05L433.22,32.61L433.75,30.05L434.34,28.77L435,32.61L435.28,31.33L435.51,30.05L435.66,32.61L435.74,31.33L436.33,30.05L436.98,40.27L437.01,38.99L437.39,37.71L437.47,36.44L437.8,40.27L437.97,37.71L438.07,38.99L438.84,33.88L438.88,35.16L439.02,36.44L439.67,33.88L439.73,32.61L439.99,31.33L440.4,32.61L440.4,33.88L440.98,51.76L441.27,53.04L441.91,49.21L442.76,47.93L442.9,51.76L443.9,53.04L445.02,50.49L445.06,49.21L445.22,50.49L445.6,49.21L446.07,47.93L446.54,45.38L446.66,49.21L446.8,47.93L447.04,46.66L447.7,44.1L448.06,45.38L448.69,51.76L448.92,49.21L448.95,47.93L449.41,51.76L449.66,51.76L449.81,50.49L450.2,41.55L450.59,49.21L450.69,47.93L450.97,44.1L451.09,51.76L451.09,53.04L451.7,44.1L451.82,46.66L451.96,45.38L452.32,41.55L452.54,42.82L452.73,44.1L452.99,41.55L453.15,50.49L453.15,51.76L453.45,69.65L453.88,64.54L453.98,65.82L453.99,67.09L454.76,65.82L454.99,63.26L455.05,73.48L455.18,72.2L455.48,70.92L455.58,72.2L455.99,70.92L456.04,72.2L456.14,69.65L456.76,68.37L457.41,64.54L457.6,63.26L458.35,56.87L458.61,59.43L458.64,60.71L458.8,59.43L459.18,65.82L459.77,64.54L459.89,65.82L460.16,63.26L460.34,64.54L460.69,65.82L461.35,55.6L461.66,54.32L461.68,53.04L461.77,56.87L462.13,54.32L462.63,53.04L462.64,54.32L463.24,44.1L463.27,46.66L464.08,45.38L464.58,41.55L465.15,42.82L465.28,40.27L465.57,46.66L465.95,45.38L465.97,44.1L466.3,42.82L466.56,45.38L466.86,44.1L467.04,46.66L467.41,44.1L467.76,45.38L468.3,38.99L468.66,41.55L468.72,42.82L468.85,41.55L468.88,45.38L469.33,42.82L469.76,41.55L469.78,40.27L470.33,51.76L470.35,49.21L470.49,47.93L471.75,51.76L471.94,50.49L472.2,53.04L472.67,51.76L472.92,50.49L473.94,55.6L474.08,53.04L474.11,51.76L474.23,49.21L474.79,53.04L474.79,53.04L475.14,51.76L475.4,47.93L475.79,51.76L475.83,53.04L476.15,51.76L477,72.2L477.28,70.92L479.01,55.6L479.1,56.87L479.18,54.32L479.29,65.82L479.58,64.54L479.58,65.82L480.14,64.54L480.16,65.82L480.43,67.09L480.84,74.76L481.13,72.2L481.28,70.92L481.4,65.82L482.02,67.09L482.04,65.82L482.27,63.26L482.3,68.37L482.47,67.09L482.94,68.37L483.22,69.65L483.52,65.82L483.88,64.54L484.19,68.37L484.2,69.65L485.49,65.82L486.21,64.54L486.48,59.43L486.79,64.54L487.1,63.26L488.24,53.04L489.02,54.32L489.55,67.09L489.97,65.82L490.06,68.37L490.41,60.71L490.59,61.98L490.85,60.71L491.32,68.37L492.04,67.09L492.23,65.82L492.56,68.37L492.56,69.65L493.22,67.09L493.47,81.14L493.57,79.87L493.57,77.31L494.14,84.97L494.43,83.7L494.64,84.97L496.13,83.7L496.73,84.97L497.03,83.7L497.49,84.97L497.51,83.7L498.06,82.42L498.06,81.14L498.33,84.97L498.41,83.7L499.04,82.42L499.27,83.7L499.6,82.42L500,81.14L500.08,78.59L500.22,82.42L500.52,81.14L501.05,79.87L501.13,78.59L501.27,82.42L501.57,82.42L501.57,83.7L501.57,84.97L502.11,83.7L502.53,82.42L503.34,79.87L503.65,81.14L504.26,84.97L504.44,83.7L505.24,76.03L505.27,77.31L505.27,78.59L505.27,81.14L505.43,78.59L506.29,79.87L506.29,78.59L506.58,78.59L507.76,77.31L508.32,73.48L508.45,74.76L508.57,76.03L509.77,68.37L510.18,69.65L510.18,70.92L510.49,65.82L510.65,67.09L511.2,65.82L511.78,68.37L511.79,69.65L512.28,68.37L512.34,69.65L512.64,68.37L512.65,67.09L513.37,69.65L513.56,68.37L513.66,67.09L514.59,65.82L515.22,67.09L515.66,65.82L516.43,60.71L516.67,59.43L516.69,60.71L516.84,59.43L517.57,58.15L517.84,60.71L518.3,59.43L518.41,60.71L518.83,55.6L518.99,58.15L519.28,59.43L519.55,55.6L521.36,56.87L521.69,53.04L522.34,54.32L522.6,67.09L523.05,63.26L523.18,64.54L523.31,67.09L523.9,65.82L524.31,64.54L524.64,60.71L525.6,59.43L525.73,56.87L526.77,55.6L527.44,53.04L527.55,51.76L527.68,49.21L529.13,50.49L529.55,69.65L529.85,67.09L529.93,65.82L529.99,68.37L530.74,67.09L531.7,63.26L531.7,64.54L532.44,70.92L532.48,69.65L532.92,68.37L533.57,63.26L533.61,64.54L534.06,63.26L536.58,58.15L536.91,56.87L537.56,54.32L538.04,53.04L539.02,50.49L539.07,49.21L539.28,50.49L539.93,49.21L540,47.93" style="vector-effect: none; fill: none; stroke: rgb(255, 127, 14); stroke-opacity: 1; stroke-width: 2px; opacity: 1;"/></g><g class="points"/><g class="text"/></g></g></g></g><g class="zerolinelayer-above"/><path class="xlines-above crisp" d="M0,0" style="fill: none;"/><path class="ylines-above crisp" d="M0,0" style="fill: none;"/><g class="overlines-above"/><g class="xaxislayer-above"><g class="xtick"><text text-anchor="middle" x="0" y="439" transform="translate(101.28,0)" style="font-family: 'Open Sans'; font-size: 18px; fill: rgb(0, 0, 0); fill-opacity: 1; white-space: pre;">2016</text></g><g class="xtick"><text text-anchor="middle" x="0" y="439" style="font-family: 'Open Sans'; font-size: 18px; fill: rgb(0, 0, 0); fill-opacity: 1; white-space: pre;" transform="translate(206.87,0)">2018</text></g><g class="xtick"><text text-anchor="middle" x="0" y="439" style="font-family: 'Open Sans'; font-size: 18px; fill: rgb(0, 0, 0); fill-opacity: 1; white-space: pre;" transform="translate(312.32,0)">2020</text></g><g class="xtick"><text text-anchor="middle" x="0" y="439" style="font-family: 'Open Sans'; font-size: 18px; fill: rgb(0, 0, 0); fill-opacity: 1; white-space: pre;" transform="translate(417.92,0)">2022</text></g><g class="xtick"><text text-anchor="middle" x="0" y="439" style="font-family: 'Open Sans'; font-size: 18px; fill: rgb(0, 0, 0); fill-opacity: 1; white-space: pre;" transform="translate(523.37,0)">2024</text></g></g><g class="yaxislayer-above"><g class="ytick"><text text-anchor="end" x="79" y="6.3" transform="translate(0,420)" style="font-family: 'Open Sans'; font-size: 18px; fill: rgb(0, 0, 0); fill-opacity: 1; white-space: pre;">0</text></g><g class="ytick"><text text-anchor="end" x="79" y="6.3" style="font-family: 'Open Sans'; font-size: 18px; fill: rgb(0, 0, 0); fill-opacity: 1; white-space: pre;" transform="translate(0,356.13)">50</text></g><g class="ytick"><text text-anchor="end" x="79" y="6.3" style="font-family: 'Open Sans'; font-size: 18px; fill: rgb(0, 0, 0); fill-opacity: 1; white-space: pre;" transform="translate(0,292.27)">100</text></g><g class="ytick"><text text-anchor="end" x="79" y="6.3" style="font-family: 'Open Sans'; font-size: 18px; fill: rgb(0, 0, 0); fill-opacity: 1; white-space: pre;" transform="translate(0,228.4)">150</text></g><g class="ytick"><text text-anchor="end" x="79" y="6.3" style="font-family: 'Open Sans'; font-size: 18px; fill: rgb(0, 0, 0); fill-opacity: 1; white-space: pre;" transform="translate(0,164.54000000000002)">200</text></g><g class="ytick"><text text-anchor="end" x="79" y="6.3" style="font-family: 'Open Sans'; font-size: 18px; fill: rgb(0, 0, 0); fill-opacity: 1; white-space: pre;" transform="translate(0,100.67)">250</text></g></g><g class="overaxes-above"/></g></g><g class="polarlayer"/><g class="smithlayer"/><g class="ternarylayer"/><g class="geolayer"/><g class="funnelarealayer"/><g class="pielayer"/><g class="iciclelayer"/><g class="treemaplayer"/><g class="sunburstlayer"/><g class="glimages"/><defs id="topdefs-488dd1"><g class="clips"/></defs><g class="layer-above"><g class="imagelayer"/><g class="shapelayer"/></g><g class="infolayer"><g class="g-gtitle"><text class="gtitle" x="35" y="50" text-anchor="start" dy="0em" style="opacity: 1; font-family: 'Open Sans'; font-size: 25px; fill: rgb(0, 0, 0); fill-opacity: 1; white-space: pre;">MultiQC/MultiQC - Open Issues Over Time</text></g><g class="g-xtitle"><text class="xtitle" x="350" y="472.9" text-anchor="middle" style="opacity: 1; font-family: 'Open Sans'; font-size: 22px; fill: rgb(0, 0, 0); fill-opacity: 1; white-space: pre;">Date</text></g><g class="g-ytitle"><text class="ytitle" transform="rotate(-90,29.799999999999997,260)" x="29.799999999999997" y="260" text-anchor="middle" style="opacity: 1; font-family: 'Open Sans'; font-size: 22px; fill: rgb(0, 0, 0); fill-opacity: 1; white-space: pre;">Number of Open Issues</text></g></g></svg>