<svg class="main-svg" xmlns="http://www.w3.org/2000/svg" xmlns:xlink="http://www.w3.org/1999/xlink" width="700" height="500" style="" viewBox="0 0 700 500"><rect x="0" y="0" width="700" height="500" style="fill: rgb(0, 0, 0); fill-opacity: 0;"/><defs id="defs-bd7b08"><g class="clips"><clipPath id="clipbd7b08xyplot" class="plotclip"><rect width="540" height="320"/></clipPath><clipPath class="axesclip" id="clipbd7b08x"><rect x="80" y="0" width="540" height="500"/></clipPath><clipPath class="axesclip" id="clipbd7b08y"><rect x="0" y="100" width="700" height="320"/></clipPath><clipPath class="axesclip" id="clipbd7b08xy"><rect x="80" y="100" width="540" height="320"/></clipPath></g><g class="gradients"/><g class="patterns"/></defs><g class="bglayer"><rect class="bg" x="80" y="100" width="540" height="320" style="fill: rgb(0, 0, 0); fill-opacity: 0; stroke-width: 0;"/></g><g class="layer-below"><g class="imagelayer"/><g class="shapelayer"/></g><g class="cartesianlayer"><g class="subplot xy"><g class="layer-subplot"><g class="shapelayer"/><g class="imagelayer"/></g><g class="minor-gridlayer"><g class="x"/><g class="y"/></g><g class="gridlayer"><g class="x"><path class="xgrid crisp" transform="translate(101.52,0)" d="M0,100v320" style="stroke: rgb(255, 255, 255); stroke-opacity: 1; stroke-width: 1px;"/><path class="xgrid crisp" transform="translate(208.29,0)" d="M0,100v320" style="stroke: rgb(255, 255, 255); stroke-opacity: 1; stroke-width: 1px;"/><path class="xgrid crisp" transform="translate(314.90999999999997,0)" d="M0,100v320" style="stroke: rgb(255, 255, 255); stroke-opacity: 1; stroke-width: 1px;"/><path class="xgrid crisp" transform="translate(421.68,0)" d="M0,100v320" style="stroke: rgb(255, 255, 255); stroke-opacity: 1; stroke-width: 1px;"/><path class="xgrid crisp" transform="translate(528.3,0)" d="M0,100v320" style="stroke: rgb(255, 255, 255); stroke-opacity: 1; stroke-width: 1px;"/></g><g class="y"><path class="ygrid crisp" transform="translate(0,356.13)" d="M80,0h540" style="stroke: rgb(255, 255, 255); stroke-opacity: 1; stroke-width: 1px;"/><path class="ygrid crisp" transform="translate(0,292.27)" d="M80,0h540" style="stroke: rgb(255, 255, 255); stroke-opacity: 1; stroke-width: 1px;"/><path class="ygrid crisp" transform="translate(0,228.4)" d="M80,0h540" style="stroke: rgb(255, 255, 255); stroke-opacity: 1; stroke-width: 1px;"/><path class="ygrid crisp" transform="translate(0,164.54000000000002)" d="M80,0h540" style="stroke: rgb(255, 255, 255); stroke-opacity: 1; stroke-width: 1px;"/></g></g><g class="zerolinelayer"><path class="yzl zl crisp" transform="translate(0,420)" d="M80,0h540" style="stroke: rgb(255, 255, 255); stroke-opacity: 1; stroke-width: 2px;"/></g><g class="layer-between"><g class="shapelayer"/><g class="imagelayer"/></g><path class="xlines-below"/><path class="ylines-below"/><g class="overlines-below"/><g class="xaxislayer-below"/><g class="yaxislayer-below"/><g class="overaxes-below"/><g class="overplot"><g class="xy" transform="translate(80,100)" clip-path="url(#clipbd7b08xyplot)"><g class="scatterlayer mlayer"><g class="trace scatter tracefb4b02" style="stroke-miterlimit: 2;"><g class="fills"><g><path class="js-fill" d="M540,320L0,320L0,318.72L0,316.17L0.58,317.45L1.89,318.72L2.01,317.45L3.06,318.72L3.92,312.34L3.94,313.61L4.65,312.34L5.09,307.23L5.26,308.5L5.65,309.78L5.82,305.95L6.12,311.06L6.27,308.5L6.58,309.78L7.28,298.29L7.4,297.01L7.58,295.73L7.85,298.29L7.85,299.56L7.86,300.84L8.04,290.62L8.75,289.34L9.15,298.29L9.16,299.56L9.91,308.5L9.91,307.23L9.92,308.5L10.38,299.56L10.76,300.84L10.8,298.29L11.23,303.39L11.36,303.39L11.83,304.67L11.83,305.95L12.37,295.73L12.4,297.01L12.86,295.73L12.99,288.07L12.99,286.79L13.1,285.51L13.14,293.18L13.26,290.62L13.56,291.9L13.58,294.45L14.31,286.79L14.42,285.51L14.42,284.24L14.46,288.07L15.16,286.79L15.19,285.51L16.22,293.18L17.45,291.9L18.07,289.34L18.21,288.07L18.96,282.96L18.97,284.24L19.1,282.96L19.56,284.24L22.18,282.96L22.18,284.24L22.6,280.4L22.6,282.96L24.18,281.68L24.38,282.96L24.53,281.68L25.4,280.4L26.14,277.85L26.25,279.13L26.58,277.85L27.32,284.24L27.35,285.51L27.35,286.79L27.49,281.68L27.72,282.96L28.16,284.24L28.58,285.51L29.79,286.79L31.28,282.96L31.51,284.24L31.55,288.07L31.55,288.07L32.37,286.79L32.86,290.62L32.86,290.62L33.3,289.34L33.5,295.73L34.43,297.01L35.15,294.45L35.15,295.73L35.3,297.01L35.91,294.45L36.21,293.18L36.97,295.73L37.35,294.45L37.35,295.73L37.5,289.34L37.79,290.62L38.51,289.34L38.75,285.51L38.94,293.18L39.47,294.45L39.54,293.18L39.99,297.01L40.05,298.29L40.28,293.18L40.58,294.45L40.89,295.73L41.77,289.34L41.9,293.18L42.25,291.9L42.47,289.34L42.49,291.9L42.63,293.18L44.08,285.51L44.79,284.24L45.09,282.96L45.72,284.24L46.42,285.51L46.71,284.24L46.73,288.07L47.21,282.96L47.48,284.24L47.55,281.68L47.88,288.07L48.03,289.34L48.62,293.18L48.77,290.62L48.78,289.34L48.89,293.18L49.21,291.9L49.79,293.18L49.8,297.01L50.1,294.45L50.68,295.73L51.08,294.45L51.08,295.73L51.8,294.45L51.8,295.73L52,293.18L52.12,293.18L52.98,291.9L54.19,289.34L54.76,290.62L54.76,291.9L55.21,288.07L55.37,290.62L55.83,289.34L55.93,288.07L56.25,291.9L57.11,290.62L58.47,285.51L59,284.24L60.27,272.74L60.35,275.29L60.45,276.57L60.45,277.85L61.06,275.29L61.23,274.02L61.36,272.74L61.37,274.02L62.99,272.74L63.53,266.35L64.06,267.63L64.56,265.08L64.67,266.35L65.14,265.08L66.58,251.03L66.6,253.58L67.36,252.3L68.04,254.86L68.04,256.13L68.05,262.52L68.36,262.52L69.08,261.24L70.38,257.41L71.15,256.13L71.41,263.8L72.34,262.52L73.47,275.29L73.62,274.02L74.17,272.74L74.17,271.46L74.58,271.46L75.05,272.74L76.16,268.91L76.17,270.18L76.64,267.63L76.69,268.91L77.58,267.63L78.39,266.35L78.91,265.08L82.33,254.86L82.33,256.13L82.8,259.97L82.94,256.13L83.36,257.41L83.66,258.69L83.72,254.86L83.93,257.41L84.69,258.69L85.03,252.3L85.04,253.58L86.21,252.3L86.42,253.58L86.62,252.3L86.87,251.03L86.87,252.3L86.9,249.75L87.46,252.3L87.63,253.58L88.5,249.75L88.51,251.03L88.65,252.3L89.07,257.41L89.49,256.13L89.84,254.86L89.85,252.3L89.96,256.13L90.96,254.86L90.96,256.13L90.99,253.58L91.68,256.13L91.86,254.86L92.68,257.41L93.03,256.13L93.62,257.41L93.71,258.69L94.04,263.8L94.59,262.52L94.91,271.46L95.21,268.91L95.69,267.63L96.79,263.8L96.93,265.08L96.93,266.35L98.85,258.69L98.87,259.97L101.03,252.3L101.17,253.58L101.17,254.86L102.1,257.41L102.2,258.69L103.09,270.18L103.41,268.91L103.83,271.46L103.83,270.18L103.93,268.91L103.97,271.46L104.41,258.69L104.42,258.69L104.84,257.41L105.17,254.86L105.45,261.24L105.85,259.97L106.88,257.41L106.88,258.69L106.88,259.97L107.01,262.52L107.47,261.24L107.97,259.97L108.33,263.8L108.47,261.24L108.89,259.97L108.91,261.24L109.49,258.69L109.51,259.97L110.12,258.69L110.23,257.41L110.23,258.69L110.94,259.97L110.94,261.24L111.57,259.97L112.15,258.69L112.39,254.86L112.57,254.86L113.01,253.58L114.41,247.19L114.45,248.47L114.53,249.75L115.04,248.47L116.37,247.19L116.67,245.92L117.25,247.19L118.7,243.36L119.18,244.64L119.49,243.36L120.35,274.02L120.46,272.74L121.1,270.18L121.38,271.46L121.81,270.18L121.81,271.46L122.82,270.18L123.24,271.46L123.55,270.18L123.57,268.91L124.27,267.63L124.53,268.91L124.54,271.46L124.77,266.35L125.3,265.08L125.31,266.35L125.74,263.8L125.8,263.8L126.38,262.52L126.38,261.24L126.89,267.63L128.69,266.35L128.91,267.63L128.97,266.35L129.51,265.08L129.96,259.97L130.78,258.69L132.53,253.58L132.92,254.86L133.4,252.3L133.48,253.58L133.48,254.86L133.64,261.24L134.02,258.69L134.57,257.41L135.11,254.86L135.36,256.13L135.98,261.24L136.71,259.97L137.73,254.86L138.12,256.13L138.83,254.86L139.94,253.58L141.12,249.75L141.95,251.03L142.26,249.75L142.64,251.03L142.72,249.75L142.83,251.03L143.32,249.75L143.69,248.47L143.7,251.03L144.26,245.92L144.26,245.92L144.72,244.64L144.72,242.08L145.31,243.36L145.67,242.08L146.19,239.53L146.23,238.25L146.3,236.97L146.35,240.81L146.92,239.53L146.94,240.81L147.37,238.25L148.02,239.53L148.43,235.7L148.69,244.64L148.69,245.92L148.69,247.19L149.37,243.36L149.44,243.36L149.85,244.64L150.12,243.36L150.14,245.92L151.36,244.64L152.04,243.36L152.15,245.92L153,244.64L153.02,245.92L153.69,242.08L153.75,243.36L154.33,244.64L154.96,243.36L154.97,244.64L155,243.36L156.13,242.08L156.14,243.36L156.32,239.53L156.6,239.53L157.12,238.25L157.28,236.97L158.2,235.7L158.45,233.14L158.99,234.42L159,233.14L159.69,239.53L160.06,238.25L161.3,236.97L161.64,238.25L164.14,231.87L164.29,233.14L164.82,228.03L165.12,226.76L166.48,219.09L167.23,217.82L167.23,219.09L167.63,217.82L168.76,216.54L168.82,215.26L169.29,220.37L169.74,219.09L170.83,216.54L170.83,215.26L170.86,213.98L171.07,222.92L172.39,221.65L172.64,219.09L173.79,217.82L174.54,222.92L174.9,221.65L177.9,211.43L177.97,210.15L178.02,211.43L179.82,210.15L180.08,215.26L180.09,216.54L180.09,220.37L180.52,217.82L182.54,216.54L182.57,219.09L182.72,217.82L183.49,216.54L184.02,211.43L184.03,212.71L184.58,213.98L184.94,215.26L185.88,210.15L185.94,211.43L186.08,212.71L186.95,211.43L186.96,212.71L190.18,207.6L190.28,206.32L190.87,202.49L190.88,203.76L191.32,202.49L191.34,205.04L192.03,203.76L192.21,202.49L192.92,203.76L193.23,202.49L193.99,201.21L194.19,199.93L194.97,197.38L195.12,196.1L195.3,197.38L195.45,194.82L195.47,196.1L196.3,194.82L197.72,185.88L197.72,188.44L198,187.16L198.34,184.61L198.67,185.88L199.21,184.61L199.41,182.05L199.89,184.61L200.17,183.33L200.56,180.77L201.14,179.5L202.35,178.22L202.35,179.5L202.43,178.22L202.46,179.5L203.86,178.22L204.62,179.5L205.38,178.22L205.61,176.94L205.61,178.22L207.53,176.94L208.26,175.66L208.27,176.94L208.27,178.22L208.67,176.94L209.54,178.22L209.54,179.5L210.26,179.5L210.44,178.22L211.45,175.66L212.2,174.39L212.86,170.55L213.25,171.83L214.69,166.72L215.03,168L216.5,166.72L216.74,165.45L217.77,164.17L217.89,165.45L220.5,160.34L220.81,161.61L221.18,157.78L221.95,156.5L222.4,159.06L222.44,157.78L222.72,156.5L223.49,153.95L223.71,155.23L223.75,156.5L223.78,160.34L224.45,156.5L224.51,157.78L224.98,155.23L225.07,162.89L225.47,161.61L225.49,162.89L225.52,161.61L226.27,160.34L226.49,161.61L226.98,157.78L227.12,159.06L227.84,168L227.88,166.72L228.15,183.33L228.66,182.05L228.95,189.71L229.56,188.44L229.73,189.71L230.17,184.61L230.17,185.88L230.34,187.16L230.63,188.44L230.79,185.88L230.91,184.61L231.91,179.5L232.22,178.22L232.71,174.39L232.76,173.11L232.86,178.22L233.82,176.94L235.9,174.39L235.92,173.11L236.53,166.72L236.92,165.45L237.38,166.72L239.1,165.45L240.29,162.89L240.37,161.61L241.25,160.34L241.68,161.61L242.44,159.06L244.36,157.78L244.96,155.23L245.04,153.95L245.2,151.39L245.96,150.12L246.09,151.39L246.28,150.12L247.48,148.84L247.8,145.01L247.83,152.67L247.83,153.95L247.83,155.23L248.4,150.12L248.85,148.84L249.06,150.12L250.05,148.84L250.21,150.12L250.46,148.84L251.07,150.12L251.15,148.84L251.33,153.95L251.78,151.39L252.05,152.67L252.37,151.39L252.39,153.95L252.5,153.95L252.51,155.23L253.55,151.39L254.01,150.12L254.44,147.56L254.58,153.95L254.96,152.67L255.28,151.39L255.43,152.67L255.47,153.95L255.55,152.67L255.87,155.23L256.2,156.5L256.29,153.95L256.32,164.17L256.33,165.45L257.17,187.16L257.3,185.88L257.62,187.16L258.19,185.88L259.25,180.77L259.35,182.05L260.7,173.11L260.85,174.39L261.14,173.11L262.42,169.28L262.42,170.55L262.57,171.83L263.18,168L263.5,166.72L263.7,165.45L264.37,166.72L265.02,160.34L265.49,159.06L265.99,153.95L266,155.23L266.55,156.5L267.4,151.39L267.59,150.12L268.9,142.45L269.35,141.18L269.55,139.9L270.63,138.62L272.1,130.96L272.53,129.68L273.55,125.85L273.59,127.13L274.99,120.74L275.68,119.46L277.73,113.08L277.74,114.35L280.83,97.75L281.05,99.03L281.07,101.58L282.02,100.3L282.02,101.58L282.76,97.75L283.42,96.47L283.72,97.75L284.92,96.47L285.23,92.64L287.76,93.92L287.93,123.29L288.87,122.02L290.09,123.29L290.25,122.02L290.25,120.74L290.34,124.57L290.52,122.02L291.14,123.29L294.15,122.02L294.91,120.74L295.48,116.91L295.49,115.63L295.61,118.18L296.16,116.91L296.28,115.63L296.33,116.91L297.3,115.63L298.52,122.02L298.64,120.74L298.86,122.02L299.57,116.91L300.25,115.63L300.29,116.91L300.83,111.8L301.2,113.08L301.5,127.13L302.48,125.85L302.66,127.13L303.19,124.57L303.2,125.85L303.2,127.13L304.24,124.57L304.42,125.85L304.53,123.29L304.99,124.57L305.38,125.85L305.87,127.13L306.4,125.85L307.91,120.74L308.23,119.46L308.57,122.02L308.73,116.91L308.85,118.18L308.9,116.91L309.47,118.18L310.65,116.91L310.68,118.18L311.24,115.63L311.6,114.35L311.93,109.24L312.21,110.52L312.6,111.8L312.61,116.91L312.8,114.35L313.87,113.08L314.62,124.57L314.62,123.29L314.73,122.02L314.76,120.74L315.08,132.24L315.23,132.24L315.34,133.51L315.39,142.45L315.91,141.18L316.11,139.9L316.47,141.18L316.5,139.9L316.81,138.62L317.49,136.07L318.08,134.79L318.8,133.51L318.88,132.24L318.95,130.96L319.8,129.68L320.04,130.96L320.04,129.68L320.69,128.4L321.02,132.24L321.13,128.4L321.6,127.13L322.01,123.29L322.67,122.02L322.87,120.74L324.25,119.46L324.94,115.63L325,114.35L326.26,106.69L327.27,105.41L330.07,96.47L331.22,95.19L332.02,92.64L332.87,91.36L333.01,88.81L333.78,90.08L334.15,109.24L334.35,107.97L334.64,109.24L334.94,107.97L334.95,110.52L335.31,109.24L335.97,110.52L336.5,109.24L337.26,110.52L338.43,106.69L339.41,105.41L340.73,104.13L341.09,105.41L341.14,106.69L342.18,105.41L342.72,102.86L343.19,104.13L343.38,102.86L343.82,104.13L343.85,105.41L343.85,106.69L344.55,104.13L345.25,105.41L345.7,141.18L346.27,139.9L346.27,141.18L346.73,136.07L346.74,137.34L347.18,138.62L347.36,142.45L347.93,138.62L348.21,137.34L348.23,138.62L348.85,130.96L349.21,129.68L349.34,132.24L349.82,130.96L350.27,129.68L351.28,132.24L351.69,130.96L352.47,129.68L352.58,130.96L353.57,128.4L353.92,127.13L354.35,128.4L354.74,127.13L355.35,125.85L355.61,124.57L355.82,122.02L356.96,120.74L357.25,119.46L358.38,118.18L360.03,113.08L360.03,114.35L360.06,115.63L361.05,110.52L361.6,111.8L362.47,106.69L362.47,107.97L362.98,106.69L363.03,107.97L363.67,105.41L363.68,104.13L363.79,101.58L365.14,100.3L366.01,97.75L366.04,96.47L366.89,93.92L367.23,92.64L368.2,97.75L368.6,96.47L368.78,95.19L370.35,92.64L370.57,93.92L371.7,91.36L372.28,90.08L373.89,84.97L374.52,83.7L374.9,82.42L375.12,83.7L375.18,84.97L375.19,83.7L376.1,82.42L377.26,79.87L377.37,78.59L378.39,77.31L378.41,78.59L378.48,96.47L379.15,92.64L379.41,93.92L380.05,91.36L380.3,90.08L381.07,91.36L382.02,90.08L382.66,86.25L382.77,87.53L383.06,86.25L384.38,83.7L385.25,82.42L385.89,79.87L385.89,78.59L385.89,72.2L387.19,70.92L388.25,67.09L389.8,68.37L389.8,70.92L390.23,67.09L390.23,68.37L390.59,67.09L391.11,68.37L391.43,67.09L391.45,65.82L391.71,67.09L392.61,65.82L392.75,64.54L392.75,65.82L394.11,67.09L394.76,65.82L394.82,67.09L394.99,68.37L395.63,69.65L395.95,70.92L396.15,84.97L397.17,86.25L398.21,83.7L398.74,82.42L398.88,79.87L398.91,83.7L399.35,84.97L400.59,76.03L400.6,77.31L400.6,76.03L400.63,82.42L400.95,79.87L401.53,78.59L402.87,74.76L404.03,73.48L404.76,69.65L405.49,68.37L405.87,64.54L406.36,67.09L406.62,65.82L407.67,59.43L407.68,60.71L409.15,59.43L409.94,53.04L409.95,54.32L409.95,55.6L410.79,54.32L411.13,55.6L411.17,54.32L411.7,53.04L412.27,50.49L412.93,51.76L413.91,47.93L414.56,46.66L415.2,44.1L415.43,45.38L415.57,46.66L415.89,47.93L416.1,46.66L417.31,47.93L419.76,38.99L420.05,37.71L421.07,36.44L421.82,37.71L422.94,33.88L423.02,32.61L423.09,33.88L423.26,28.77L423.89,30.05L423.97,27.5L425.15,26.22L425.32,23.66L425.51,26.22L425.78,27.5L426.19,26.22L426.35,27.5L426.39,28.77L426.67,31.33L427.22,30.05L428.28,22.39L428.28,24.94L428.33,26.22L429.08,23.66L429.1,24.94L429.3,26.22L429.71,27.5L429.97,24.94L430.25,23.66L430.41,24.94L430.53,22.39L430.86,23.66L430.86,24.94L431,27.5L431.51,22.39L431.85,21.11L432.45,18.55L432.45,19.83L432.52,21.11L433.09,16L433.19,18.55L433.46,19.83L433.63,17.28L433.77,28.77L433.77,30.05L434.19,36.44L434.49,24.94L434.57,26.22L435.2,33.88L435.23,30.05L435.36,31.33L437.09,22.39L437.14,23.66L437.29,36.44L437.7,31.33L437.99,30.05L438.04,32.61L438.58,30.05L439.18,28.77L439.84,32.61L440.12,31.33L440.36,30.05L440.51,32.61L440.59,31.33L441.18,30.05L441.84,40.27L441.87,38.99L442.26,37.71L442.34,36.44L442.67,40.27L442.84,37.71L442.94,38.99L443.72,33.88L443.76,35.16L443.9,36.44L444.56,33.88L444.62,32.61L444.89,31.33L445.3,32.61L445.3,33.88L445.89,51.76L446.18,53.04L446.83,49.21L447.69,47.93L447.83,51.76L448.84,53.04L449.97,50.49L450.01,49.21L450.18,50.49L450.56,49.21L451.03,47.93L451.51,45.38L451.63,49.21L451.77,47.93L452.02,46.66L452.68,44.1L453.05,45.38L453.68,51.76L453.91,49.21L453.94,47.93L454.66,51.76L454.81,50.49L455.21,41.55L455.6,47.93L455.6,49.21L455.99,44.1L456.11,51.76L456.11,53.04L456.72,44.1L456.85,46.66L456.98,45.38L457.35,41.55L457.57,42.82L457.77,44.1L458.02,41.55L458.2,50.49L458.2,51.76L458.5,69.65L458.93,64.54L459.03,65.82L459.04,67.09L459.82,65.82L460.05,63.26L460.11,73.48L460.24,72.2L460.55,70.92L460.65,72.2L461.06,70.92L461.11,72.2L461.21,69.65L461.84,68.37L462.5,64.54L462.69,63.26L463.45,56.87L463.71,59.43L463.74,60.71L463.9,59.43L464.28,65.82L464.88,64.54L465.01,65.82L465.28,63.26L465.46,64.54L465.81,65.82L466.49,55.6L466.79,54.32L466.82,53.04L466.9,56.87L467.27,54.32L467.78,53.04L467.79,54.32L468.39,44.1L468.43,46.66L469.25,45.38L469.75,41.55L470.32,42.82L470.46,40.27L470.75,46.66L471.14,45.38L471.48,42.82L471.75,45.38L472.06,44.1L472.24,46.66L472.61,44.1L472.97,45.38L473.51,38.99L473.88,41.55L473.93,42.82L474.07,41.55L474.1,45.38L474.55,42.82L474.99,41.55L475,40.27L475.56,51.76L475.58,49.21L475.73,47.93L477,51.76L477.19,50.49L477.45,53.04L477.93,51.76L478.18,50.49L479.21,55.6L479.35,53.04L479.39,51.76L479.5,49.21L480.07,53.04L480.08,53.04L480.43,51.76L480.69,47.93L481.09,51.76L481.12,53.04L481.45,51.76L482.3,72.2L482.59,70.92L484.34,55.6L484.43,56.87L484.51,54.32L484.62,65.82L484.91,64.54L484.92,65.82L485.48,64.54L485.5,65.82L485.78,67.09L486.19,74.76L486.48,72.2L486.63,70.92L486.76,65.82L487.39,67.09L487.64,63.26L487.67,68.37L487.83,67.09L488.32,68.37L488.6,69.65L488.9,65.82L489.26,64.54L489.57,68.37L489.59,69.65L490.58,65.82L490.65,67.09L490.65,68.37L491.89,59.43L492.21,61.98L492.21,63.26L492.21,64.54L492.79,58.15L493.05,56.87L493.67,53.04L494.46,54.32L494.99,67.09L495.42,65.82L495.52,68.37L495.87,60.71L496.05,61.98L496.31,60.71L496.79,68.37L497.51,67.09L497.7,65.82L498.04,68.37L498.04,69.65L498.07,70.92L498.71,67.09L498.76,68.37L498.96,81.14L499.49,79.87L499.55,81.14L500.15,84.97L501.65,83.7L502.26,84.97L502.56,83.7L503.03,84.97L503.05,83.7L503.6,82.42L503.61,81.14L503.87,84.97L503.95,83.7L504.6,82.42L504.82,83.7L505.16,82.42L505.57,81.14L505.64,78.59L505.79,82.42L506.09,81.14L506.63,79.87L506.71,78.59L506.85,82.42L507.15,82.42L507.15,83.7L507.15,84.97L507.69,83.7L508.12,82.42L508.94,79.87L509.26,81.14L509.3,84.97L509.87,84.97L510.05,83.7L510.86,76.03L510.89,77.31L510.89,78.59L510.9,81.14L511.05,78.59L511.92,79.87L512.21,78.59L513.41,77.31L513.97,73.48L514.1,74.76L514.23,76.03L515.44,68.37L515.85,69.65L515.85,70.92L516.17,65.82L516.33,67.09L516.88,65.82L517.47,68.37L517.49,69.65L517.98,68.37L518.04,69.65L518.35,68.37L518.35,67.09L519.08,69.65L519.28,68.37L519.37,67.09L520.31,65.82L520.95,67.09L521.4,65.82L522.17,60.71L522.41,59.43L522.44,60.71L522.59,59.43L523.33,58.15L523.6,60.71L524.07,59.43L524.18,60.71L524.61,55.6L524.77,58.15L525.06,59.43L525.33,55.6L527.16,56.87L527.5,53.04L528.15,54.32L528.42,67.09L528.87,63.26L529,64.54L529.13,67.09L529.73,65.82L530.15,64.54L530.47,60.71L531.44,59.43L531.57,56.87L532.63,55.6L533.31,53.04L533.42,51.76L533.55,49.21L535.01,50.49L535.44,69.65L535.74,67.09L535.83,65.82L535.88,68.37L536.64,67.09L537.62,63.26L537.62,64.54L538.36,70.92L538.41,69.65L538.94,65.82L538.99,64.54L539.5,63.26L539.52,64.54L539.54,65.82L540,63.26" style="fill: rgb(255, 127, 14); fill-opacity: 0.5; stroke-width: 0;"/></g></g><g class="errorbars"/><g class="lines"><path class="js-line" d="M0,318.72L0,316.17L0.58,317.45L1.89,318.72L2.01,317.45L3.06,318.72L3.92,312.34L3.94,313.61L4.65,312.34L5.09,307.23L5.26,308.5L5.65,309.78L5.82,305.95L6.12,311.06L6.27,308.5L6.58,309.78L7.28,298.29L7.4,297.01L7.58,295.73L7.85,298.29L7.85,299.56L7.86,300.84L8.04,290.62L8.75,289.34L9.15,298.29L9.16,299.56L9.91,308.5L9.91,307.23L9.92,308.5L10.38,299.56L10.76,300.84L10.8,298.29L11.23,303.39L11.36,303.39L11.83,304.67L11.83,305.95L12.37,295.73L12.4,297.01L12.86,295.73L12.99,288.07L12.99,286.79L13.1,285.51L13.14,293.18L13.26,290.62L13.56,291.9L13.58,294.45L14.31,286.79L14.42,285.51L14.42,284.24L14.46,288.07L15.16,286.79L15.19,285.51L16.22,293.18L17.45,291.9L18.07,289.34L18.21,288.07L18.96,282.96L18.97,284.24L19.1,282.96L19.56,284.24L22.18,282.96L22.18,284.24L22.6,280.4L22.6,282.96L24.18,281.68L24.38,282.96L24.53,281.68L25.4,280.4L26.14,277.85L26.25,279.13L26.58,277.85L27.32,284.24L27.35,285.51L27.35,286.79L27.49,281.68L27.72,282.96L28.16,284.24L28.58,285.51L29.79,286.79L31.28,282.96L31.51,284.24L31.55,288.07L31.55,288.07L32.37,286.79L32.86,290.62L32.86,290.62L33.3,289.34L33.5,295.73L34.43,297.01L35.15,294.45L35.15,295.73L35.3,297.01L35.91,294.45L36.21,293.18L36.97,295.73L37.35,294.45L37.35,295.73L37.5,289.34L37.79,290.62L38.51,289.34L38.75,285.51L38.94,293.18L39.47,294.45L39.54,293.18L39.99,297.01L40.05,298.29L40.28,293.18L40.58,294.45L40.89,295.73L41.77,289.34L41.9,293.18L42.25,291.9L42.47,289.34L42.49,291.9L42.63,293.18L44.08,285.51L44.79,284.24L45.09,282.96L45.72,284.24L46.42,285.51L46.71,284.24L46.73,288.07L47.21,282.96L47.48,284.24L47.55,281.68L47.88,288.07L48.03,289.34L48.62,293.18L48.77,290.62L48.78,289.34L48.89,293.18L49.21,291.9L49.79,293.18L49.8,297.01L50.1,294.45L50.68,295.73L51.08,294.45L51.08,295.73L51.8,294.45L51.8,295.73L52,293.18L52.12,293.18L52.98,291.9L54.19,289.34L54.76,290.62L54.76,291.9L55.21,288.07L55.37,290.62L55.83,289.34L55.93,288.07L56.25,291.9L57.11,290.62L58.47,285.51L59,284.24L60.27,272.74L60.35,275.29L60.45,276.57L60.45,277.85L61.06,275.29L61.23,274.02L61.36,272.74L61.37,274.02L62.99,272.74L63.53,266.35L64.06,267.63L64.56,265.08L64.67,266.35L65.14,265.08L66.58,251.03L66.6,253.58L67.36,252.3L68.04,254.86L68.04,256.13L68.05,262.52L68.36,262.52L69.08,261.24L70.38,257.41L71.15,256.13L71.41,263.8L72.34,262.52L73.47,275.29L73.62,274.02L74.17,272.74L74.17,271.46L74.58,271.46L75.05,272.74L76.16,268.91L76.17,270.18L76.64,267.63L76.69,268.91L77.58,267.63L78.39,266.35L78.91,265.08L82.33,254.86L82.33,256.13L82.8,259.97L82.94,256.13L83.36,257.41L83.66,258.69L83.72,254.86L83.93,257.41L84.69,258.69L85.03,252.3L85.04,253.58L86.21,252.3L86.42,253.58L86.62,252.3L86.87,251.03L86.87,252.3L86.9,249.75L87.46,252.3L87.63,253.58L88.5,249.75L88.51,251.03L88.65,252.3L89.07,257.41L89.49,256.13L89.84,254.86L89.85,252.3L89.96,256.13L90.96,254.86L90.96,256.13L90.99,253.58L91.68,256.13L91.86,254.86L92.68,257.41L93.03,256.13L93.62,257.41L93.71,258.69L94.04,263.8L94.59,262.52L94.91,271.46L95.21,268.91L95.69,267.63L96.79,263.8L96.93,265.08L96.93,266.35L98.85,258.69L98.87,259.97L101.03,252.3L101.17,253.58L101.17,254.86L102.1,257.41L102.2,258.69L103.09,270.18L103.41,268.91L103.83,271.46L103.83,270.18L103.93,268.91L103.97,271.46L104.41,258.69L104.42,258.69L104.84,257.41L105.17,254.86L105.45,261.24L105.85,259.97L106.88,257.41L106.88,258.69L106.88,259.97L107.01,262.52L107.47,261.24L107.97,259.97L108.33,263.8L108.47,261.24L108.89,259.97L108.91,261.24L109.49,258.69L109.51,259.97L110.12,258.69L110.23,257.41L110.23,258.69L110.94,259.97L110.94,261.24L111.57,259.97L112.15,258.69L112.39,254.86L112.57,254.86L113.01,253.58L114.41,247.19L114.45,248.47L114.53,249.75L115.04,248.47L116.37,247.19L116.67,245.92L117.25,247.19L118.7,243.36L119.18,244.64L119.49,243.36L120.35,274.02L120.46,272.74L121.1,270.18L121.38,271.46L121.81,270.18L121.81,271.46L122.82,270.18L123.24,271.46L123.55,270.18L123.57,268.91L124.27,267.63L124.53,268.91L124.54,271.46L124.77,266.35L125.3,265.08L125.31,266.35L125.74,263.8L125.8,263.8L126.38,262.52L126.38,261.24L126.89,267.63L128.69,266.35L128.91,267.63L128.97,266.35L129.51,265.08L129.96,259.97L130.78,258.69L132.53,253.58L132.92,254.86L133.4,252.3L133.48,253.58L133.48,254.86L133.64,261.24L134.02,258.69L134.57,257.41L135.11,254.86L135.36,256.13L135.98,261.24L136.71,259.97L137.73,254.86L138.12,256.13L138.83,254.86L139.94,253.58L141.12,249.75L141.95,251.03L142.26,249.75L142.64,251.03L142.72,249.75L142.83,251.03L143.32,249.75L143.69,248.47L143.7,251.03L144.26,245.92L144.26,245.92L144.72,244.64L144.72,242.08L145.31,243.36L145.67,242.08L146.19,239.53L146.23,238.25L146.3,236.97L146.35,240.81L146.92,239.53L146.94,240.81L147.37,238.25L148.02,239.53L148.43,235.7L148.69,244.64L148.69,245.92L148.69,247.19L149.37,243.36L149.44,243.36L149.85,244.64L150.12,243.36L150.14,245.92L151.36,244.64L152.04,243.36L152.15,245.92L153,244.64L153.02,245.92L153.69,242.08L153.75,243.36L154.33,244.64L154.96,243.36L154.97,244.64L155,243.36L156.13,242.08L156.14,243.36L156.32,239.53L156.6,239.53L157.12,238.25L157.28,236.97L158.2,235.7L158.45,233.14L158.99,234.42L159,233.14L159.69,239.53L160.06,238.25L161.3,236.97L161.64,238.25L164.14,231.87L164.29,233.14L164.82,228.03L165.12,226.76L166.48,219.09L167.23,217.82L167.23,219.09L167.63,217.82L168.76,216.54L168.82,215.26L169.29,220.37L169.74,219.09L170.83,216.54L170.83,215.26L170.86,213.98L171.07,222.92L172.39,221.65L172.64,219.09L173.79,217.82L174.54,222.92L174.9,221.65L177.9,211.43L177.97,210.15L178.02,211.43L179.82,210.15L180.08,215.26L180.09,216.54L180.09,220.37L180.52,217.82L182.54,216.54L182.57,219.09L182.72,217.82L183.49,216.54L184.02,211.43L184.03,212.71L184.58,213.98L184.94,215.26L185.88,210.15L185.94,211.43L186.08,212.71L186.95,211.43L186.96,212.71L190.18,207.6L190.28,206.32L190.87,202.49L190.88,203.76L191.32,202.49L191.34,205.04L192.03,203.76L192.21,202.49L192.92,203.76L193.23,202.49L193.99,201.21L194.19,199.93L194.97,197.38L195.12,196.1L195.3,197.38L195.45,194.82L195.47,196.1L196.3,194.82L197.72,185.88L197.72,188.44L198,187.16L198.34,184.61L198.67,185.88L199.21,184.61L199.41,182.05L199.89,184.61L200.17,183.33L200.56,180.77L201.14,179.5L202.35,178.22L202.35,179.5L202.43,178.22L202.46,179.5L203.86,178.22L204.62,179.5L205.38,178.22L205.61,176.94L205.61,178.22L207.53,176.94L208.26,175.66L208.27,176.94L208.27,178.22L208.67,176.94L209.54,178.22L209.54,179.5L210.26,179.5L210.44,178.22L211.45,175.66L212.2,174.39L212.86,170.55L213.25,171.83L214.69,166.72L215.03,168L216.5,166.72L216.74,165.45L217.77,164.17L217.89,165.45L220.5,160.34L220.81,161.61L221.18,157.78L221.95,156.5L222.4,159.06L222.44,157.78L222.72,156.5L223.49,153.95L223.71,155.23L223.75,156.5L223.78,160.34L224.45,156.5L224.51,157.78L224.98,155.23L225.07,162.89L225.47,161.61L225.49,162.89L225.52,161.61L226.27,160.34L226.49,161.61L226.98,157.78L227.12,159.06L227.84,168L227.88,166.72L228.15,183.33L228.66,182.05L228.95,189.71L229.56,188.44L229.73,189.71L230.17,184.61L230.17,185.88L230.34,187.16L230.63,188.44L230.79,185.88L230.91,184.61L231.91,179.5L232.22,178.22L232.71,174.39L232.76,173.11L232.86,178.22L233.82,176.94L235.9,174.39L235.92,173.11L236.53,166.72L236.92,165.45L237.38,166.72L239.1,165.45L240.29,162.89L240.37,161.61L241.25,160.34L241.68,161.61L242.44,159.06L244.36,157.78L244.96,155.23L245.04,153.95L245.2,151.39L245.96,150.12L246.09,151.39L246.28,150.12L247.48,148.84L247.8,145.01L247.83,152.67L247.83,153.95L247.83,155.23L248.4,150.12L248.85,148.84L249.06,150.12L250.05,148.84L250.21,150.12L250.46,148.84L251.07,150.12L251.15,148.84L251.33,153.95L251.78,151.39L252.05,152.67L252.37,151.39L252.39,153.95L252.5,153.95L252.51,155.23L253.55,151.39L254.01,150.12L254.44,147.56L254.58,153.95L254.96,152.67L255.28,151.39L255.43,152.67L255.47,153.95L255.55,152.67L255.87,155.23L256.2,156.5L256.29,153.95L256.32,164.17L256.33,165.45L257.17,187.16L257.3,185.88L257.62,187.16L258.19,185.88L259.25,180.77L259.35,182.05L260.7,173.11L260.85,174.39L261.14,173.11L262.42,169.28L262.42,170.55L262.57,171.83L263.18,168L263.5,166.72L263.7,165.45L264.37,166.72L265.02,160.34L265.49,159.06L265.99,153.95L266,155.23L266.55,156.5L267.4,151.39L267.59,150.12L268.9,142.45L269.35,141.18L269.55,139.9L270.63,138.62L272.1,130.96L272.53,129.68L273.55,125.85L273.59,127.13L274.99,120.74L275.68,119.46L277.73,113.08L277.74,114.35L280.83,97.75L281.05,99.03L281.07,101.58L282.02,100.3L282.02,101.58L282.76,97.75L283.42,96.47L283.72,97.75L284.92,96.47L285.23,92.64L287.76,93.92L287.93,123.29L288.87,122.02L290.09,123.29L290.25,122.02L290.25,120.74L290.34,124.57L290.52,122.02L291.14,123.29L294.15,122.02L294.91,120.74L295.48,116.91L295.49,115.63L295.61,118.18L296.16,116.91L296.28,115.63L296.33,116.91L297.3,115.63L298.52,122.02L298.64,120.74L298.86,122.02L299.57,116.91L300.25,115.63L300.29,116.91L300.83,111.8L301.2,113.08L301.5,127.13L302.48,125.85L302.66,127.13L303.19,124.57L303.2,125.85L303.2,127.13L304.24,124.57L304.42,125.85L304.53,123.29L304.99,124.57L305.38,125.85L305.87,127.13L306.4,125.85L307.91,120.74L308.23,119.46L308.57,122.02L308.73,116.91L308.85,118.18L308.9,116.91L309.47,118.18L310.65,116.91L310.68,118.18L311.24,115.63L311.6,114.35L311.93,109.24L312.21,110.52L312.6,111.8L312.61,116.91L312.8,114.35L313.87,113.08L314.62,124.57L314.62,123.29L314.73,122.02L314.76,120.74L315.08,132.24L315.23,132.24L315.34,133.51L315.39,142.45L315.91,141.18L316.11,139.9L316.47,141.18L316.5,139.9L316.81,138.62L317.49,136.07L318.08,134.79L318.8,133.51L318.88,132.24L318.95,130.96L319.8,129.68L320.04,130.96L320.04,129.68L320.69,128.4L321.02,132.24L321.13,128.4L321.6,127.13L322.01,123.29L322.67,122.02L322.87,120.74L324.25,119.46L324.94,115.63L325,114.35L326.26,106.69L327.27,105.41L330.07,96.47L331.22,95.19L332.02,92.64L332.87,91.36L333.01,88.81L333.78,90.08L334.15,109.24L334.35,107.97L334.64,109.24L334.94,107.97L334.95,110.52L335.31,109.24L335.97,110.52L336.5,109.24L337.26,110.52L338.43,106.69L339.41,105.41L340.73,104.13L341.09,105.41L341.14,106.69L342.18,105.41L342.72,102.86L343.19,104.13L343.38,102.86L343.82,104.13L343.85,105.41L343.85,106.69L344.55,104.13L345.25,105.41L345.7,141.18L346.27,139.9L346.27,141.18L346.73,136.07L346.74,137.34L347.18,138.62L347.36,142.45L347.93,138.62L348.21,137.34L348.23,138.62L348.85,130.96L349.21,129.68L349.34,132.24L349.82,130.96L350.27,129.68L351.28,132.24L351.69,130.96L352.47,129.68L352.58,130.96L353.57,128.4L353.92,127.13L354.35,128.4L354.74,127.13L355.35,125.85L355.61,124.57L355.82,122.02L356.96,120.74L357.25,119.46L358.38,118.18L360.03,113.08L360.03,114.35L360.06,115.63L361.05,110.52L361.6,111.8L362.47,106.69L362.47,107.97L362.98,106.69L363.03,107.97L363.67,105.41L363.68,104.13L363.79,101.58L365.14,100.3L366.01,97.75L366.04,96.47L366.89,93.92L367.23,92.64L368.2,97.75L368.6,96.47L368.78,95.19L370.35,92.64L370.57,93.92L371.7,91.36L372.28,90.08L373.89,84.97L374.52,83.7L374.9,82.42L375.12,83.7L375.18,84.97L375.19,83.7L376.1,82.42L377.26,79.87L377.37,78.59L378.39,77.31L378.41,78.59L378.48,96.47L379.15,92.64L379.41,93.92L380.05,91.36L380.3,90.08L381.07,91.36L382.02,90.08L382.66,86.25L382.77,87.53L383.06,86.25L384.38,83.7L385.25,82.42L385.89,79.87L385.89,78.59L385.89,72.2L387.19,70.92L388.25,67.09L389.8,68.37L389.8,70.92L390.23,67.09L390.23,68.37L390.59,67.09L391.11,68.37L391.43,67.09L391.45,65.82L391.71,67.09L392.61,65.82L392.75,64.54L392.75,65.82L394.11,67.09L394.76,65.82L394.82,67.09L394.99,68.37L395.63,69.65L395.95,70.92L396.15,84.97L397.17,86.25L398.21,83.7L398.74,82.42L398.88,79.87L398.91,83.7L399.35,84.97L400.59,76.03L400.6,77.31L400.6,76.03L400.63,82.42L400.95,79.87L401.53,78.59L402.87,74.76L404.03,73.48L404.76,69.65L405.49,68.37L405.87,64.54L406.36,67.09L406.62,65.82L407.67,59.43L407.68,60.71L409.15,59.43L409.94,53.04L409.95,54.32L409.95,55.6L410.79,54.32L411.13,55.6L411.17,54.32L411.7,53.04L412.27,50.49L412.93,51.76L413.91,47.93L414.56,46.66L415.2,44.1L415.43,45.38L415.57,46.66L415.89,47.93L416.1,46.66L417.31,47.93L419.76,38.99L420.05,37.71L421.07,36.44L421.82,37.71L422.94,33.88L423.02,32.61L423.09,33.88L423.26,28.77L423.89,30.05L423.97,27.5L425.15,26.22L425.32,23.66L425.51,26.22L425.78,27.5L426.19,26.22L426.35,27.5L426.39,28.77L426.67,31.33L427.22,30.05L428.28,22.39L428.28,24.94L428.33,26.22L429.08,23.66L429.1,24.94L429.3,26.22L429.71,27.5L429.97,24.94L430.25,23.66L430.41,24.94L430.53,22.39L430.86,23.66L430.86,24.94L431,27.5L431.51,22.39L431.85,21.11L432.45,18.55L432.45,19.83L432.52,21.11L433.09,16L433.19,18.55L433.46,19.83L433.63,17.28L433.77,28.77L433.77,30.05L434.19,36.44L434.49,24.94L434.57,26.22L435.2,33.88L435.23,30.05L435.36,31.33L437.09,22.39L437.14,23.66L437.29,36.44L437.7,31.33L437.99,30.05L438.04,32.61L438.58,30.05L439.18,28.77L439.84,32.61L440.12,31.33L440.36,30.05L440.51,32.61L440.59,31.33L441.18,30.05L441.84,40.27L441.87,38.99L442.26,37.71L442.34,36.44L442.67,40.27L442.84,37.71L442.94,38.99L443.72,33.88L443.76,35.16L443.9,36.44L444.56,33.88L444.62,32.61L444.89,31.33L445.3,32.61L445.3,33.88L445.89,51.76L446.18,53.04L446.83,49.21L447.69,47.93L447.83,51.76L448.84,53.04L449.97,50.49L450.01,49.21L450.18,50.49L450.56,49.21L451.03,47.93L451.51,45.38L451.63,49.21L451.77,47.93L452.02,46.66L452.68,44.1L453.05,45.38L453.68,51.76L453.91,49.21L453.94,47.93L454.66,51.76L454.81,50.49L455.21,41.55L455.6,47.93L455.6,49.21L455.99,44.1L456.11,51.76L456.11,53.04L456.72,44.1L456.85,46.66L456.98,45.38L457.35,41.55L457.57,42.82L457.77,44.1L458.02,41.55L458.2,50.49L458.2,51.76L458.5,69.65L458.93,64.54L459.03,65.82L459.04,67.09L459.82,65.82L460.05,63.26L460.11,73.48L460.24,72.2L460.55,70.92L460.65,72.2L461.06,70.92L461.11,72.2L461.21,69.65L461.84,68.37L462.5,64.54L462.69,63.26L463.45,56.87L463.71,59.43L463.74,60.71L463.9,59.43L464.28,65.82L464.88,64.54L465.01,65.82L465.28,63.26L465.46,64.54L465.81,65.82L466.49,55.6L466.79,54.32L466.82,53.04L466.9,56.87L467.27,54.32L467.78,53.04L467.79,54.32L468.39,44.1L468.43,46.66L469.25,45.38L469.75,41.55L470.32,42.82L470.46,40.27L470.75,46.66L471.14,45.38L471.48,42.82L471.75,45.38L472.06,44.1L472.24,46.66L472.61,44.1L472.97,45.38L473.51,38.99L473.88,41.55L473.93,42.82L474.07,41.55L474.1,45.38L474.55,42.82L474.99,41.55L475,40.27L475.56,51.76L475.58,49.21L475.73,47.93L477,51.76L477.19,50.49L477.45,53.04L477.93,51.76L478.18,50.49L479.21,55.6L479.35,53.04L479.39,51.76L479.5,49.21L480.07,53.04L480.08,53.04L480.43,51.76L480.69,47.93L481.09,51.76L481.12,53.04L481.45,51.76L482.3,72.2L482.59,70.92L484.34,55.6L484.43,56.87L484.51,54.32L484.62,65.82L484.91,64.54L484.92,65.82L485.48,64.54L485.5,65.82L485.78,67.09L486.19,74.76L486.48,72.2L486.63,70.92L486.76,65.82L487.39,67.09L487.64,63.26L487.67,68.37L487.83,67.09L488.32,68.37L488.6,69.65L488.9,65.82L489.26,64.54L489.57,68.37L489.59,69.65L490.58,65.82L490.65,67.09L490.65,68.37L491.89,59.43L492.21,61.98L492.21,63.26L492.21,64.54L492.79,58.15L493.05,56.87L493.67,53.04L494.46,54.32L494.99,67.09L495.42,65.82L495.52,68.37L495.87,60.71L496.05,61.98L496.31,60.71L496.79,68.37L497.51,67.09L497.7,65.82L498.04,68.37L498.04,69.65L498.07,70.92L498.71,67.09L498.76,68.37L498.96,81.14L499.49,79.87L499.55,81.14L500.15,84.97L501.65,83.7L502.26,84.97L502.56,83.7L503.03,84.97L503.05,83.7L503.6,82.42L503.61,81.14L503.87,84.97L503.95,83.7L504.6,82.42L504.82,83.7L505.16,82.42L505.57,81.14L505.64,78.59L505.79,82.42L506.09,81.14L506.63,79.87L506.71,78.59L506.85,82.42L507.15,82.42L507.15,83.7L507.15,84.97L507.69,83.7L508.12,82.42L508.94,79.87L509.26,81.14L509.3,84.97L509.87,84.97L510.05,83.7L510.86,76.03L510.89,77.31L510.89,78.59L510.9,81.14L511.05,78.59L511.92,79.87L512.21,78.59L513.41,77.31L513.97,73.48L514.1,74.76L514.23,76.03L515.44,68.37L515.85,69.65L515.85,70.92L516.17,65.82L516.33,67.09L516.88,65.82L517.47,68.37L517.49,69.65L517.98,68.37L518.04,69.65L518.35,68.37L518.35,67.09L519.08,69.65L519.28,68.37L519.37,67.09L520.31,65.82L520.95,67.09L521.4,65.82L522.17,60.71L522.41,59.43L522.44,60.71L522.59,59.43L523.33,58.15L523.6,60.71L524.07,59.43L524.18,60.71L524.61,55.6L524.77,58.15L525.06,59.43L525.33,55.6L527.16,56.87L527.5,53.04L528.15,54.32L528.42,67.09L528.87,63.26L529,64.54L529.13,67.09L529.73,65.82L530.15,64.54L530.47,60.71L531.44,59.43L531.57,56.87L532.63,55.6L533.31,53.04L533.42,51.76L533.55,49.21L535.01,50.49L535.44,69.65L535.74,67.09L535.83,65.82L535.88,68.37L536.64,67.09L537.62,63.26L537.62,64.54L538.36,70.92L538.41,69.65L538.94,65.82L538.99,64.54L539.5,63.26L539.52,64.54L539.54,65.82L540,63.26" style="vector-effect: none; fill: none; stroke: rgb(255, 127, 14); stroke-opacity: 1; stroke-width: 2px; opacity: 1;"/></g><g class="points"/><g class="text"/></g></g></g></g><g class="zerolinelayer-above"/><path class="xlines-above crisp" d="M0,0" style="fill: none;"/><path class="ylines-above crisp" d="M0,0" style="fill: none;"/><g class="overlines-above"/><g class="xaxislayer-above"><g class="xtick"><text text-anchor="middle" x="0" y="439" transform="translate(101.52,0)" style="font-family: 'Open Sans'; font-size: 18px; fill: rgb(0, 0, 0); fill-opacity: 1; white-space: pre;">2016</text></g><g class="xtick"><text text-anchor="middle" x="0" y="439" style="font-family: 'Open Sans'; font-size: 18px; fill: rgb(0, 0, 0); fill-opacity: 1; white-space: pre;" transform="translate(208.29,0)">2018</text></g><g class="xtick"><text text-anchor="middle" x="0" y="439" style="font-family: 'Open Sans'; font-size: 18px; fill: rgb(0, 0, 0); fill-opacity: 1; white-space: pre;" transform="translate(314.90999999999997,0)">2020</text></g><g class="xtick"><text text-anchor="middle" x="0" y="439" style="font-family: 'Open Sans'; font-size: 18px; fill: rgb(0, 0, 0); fill-opacity: 1; white-space: pre;" transform="translate(421.68,0)">2022</text></g><g class="xtick"><text text-anchor="middle" x="0" y="439" style="font-family: 'Open Sans'; font-size: 18px; fill: rgb(0, 0, 0); fill-opacity: 1; white-space: pre;" transform="translate(528.3,0)">2024</text></g></g><g class="yaxislayer-above"><g class="ytick"><text text-anchor="end" x="79" y="6.3" transform="translate(0,420)" style="font-family: 'Open Sans'; font-size: 18px; fill: rgb(0, 0, 0); fill-opacity: 1; white-space: pre;">0</text></g><g class="ytick"><text text-anchor="end" x="79" y="6.3" style="font-family: 'Open Sans'; font-size: 18px; fill: rgb(0, 0, 0); fill-opacity: 1; white-space: pre;" transform="translate(0,356.13)">50</text></g><g class="ytick"><text text-anchor="end" x="79" y="6.3" style="font-family: 'Open Sans'; font-size: 18px; fill: rgb(0, 0, 0); fill-opacity: 1; white-space: pre;" transform="translate(0,292.27)">100</text></g><g class="ytick"><text text-anchor="end" x="79" y="6.3" style="font-family: 'Open Sans'; font-size: 18px; fill: rgb(0, 0, 0); fill-opacity: 1; white-space: pre;" transform="translate(0,228.4)">150</text></g><g class="ytick"><text text-anchor="end" x="79" y="6.3" style="font-family: 'Open Sans'; font-size: 18px; fill: rgb(0, 0, 0); fill-opacity: 1; white-space: pre;" transform="translate(0,164.54000000000002)">200</text></g><g class="ytick"><text text-anchor="end" x="79" y="6.3" style="font-family: 'Open Sans'; font-size: 18px; fill: rgb(0, 0, 0); fill-opacity: 1; white-space: pre;" transform="translate(0,100.67)">250</text></g></g><g class="overaxes-above"/></g></g><g class="polarlayer"/><g class="smithlayer"/><g class="ternarylayer"/><g class="geolayer"/><g class="funnelarealayer"/><g class="pielayer"/><g class="iciclelayer"/><g class="treemaplayer"/><g class="sunburstlayer"/><g class="glimages"/><defs id="topdefs-bd7b08"><g class="clips"/></defs><g class="layer-above"><g class="imagelayer"/><g class="shapelayer"/></g><g class="infolayer"><g class="g-gtitle"><text class="gtitle" x="35" y="50" text-anchor="start" dy="0em" style="opacity: 1; font-family: 'Open Sans'; font-size: 25px; fill: rgb(0, 0, 0); fill-opacity: 1; white-space: pre;">MultiQC/MultiQC - Open Issues Over Time</text></g><g class="g-xtitle"><text class="xtitle" x="350" y="472.9" text-anchor="middle" style="opacity: 1; font-family: 'Open Sans'; font-size: 22px; fill: rgb(0, 0, 0); fill-opacity: 1; white-space: pre;">Date</text></g><g class="g-ytitle"><text class="ytitle" transform="rotate(-90,29.799999999999997,260)" x="29.799999999999997" y="260" text-anchor="middle" style="opacity: 1; font-family: 'Open Sans'; font-size: 22px; fill: rgb(0, 0, 0); fill-opacity: 1; white-space: pre;">Number of Open Issues</text></g></g></svg>