<svg class="main-svg" xmlns="http://www.w3.org/2000/svg" xmlns:xlink="http://www.w3.org/1999/xlink" width="700" height="500" style="" viewBox="0 0 700 500"><rect x="0" y="0" width="700" height="500" style="fill: rgb(0, 0, 0); fill-opacity: 0;"/><defs id="defs-bc76c9"><g class="clips"><clipPath id="clipbc76c9xyplot" class="plotclip"><rect width="540" height="320"/></clipPath><clipPath class="axesclip" id="clipbc76c9x"><rect x="80" y="0" width="540" height="500"/></clipPath><clipPath class="axesclip" id="clipbc76c9y"><rect x="0" y="100" width="700" height="320"/></clipPath><clipPath class="axesclip" id="clipbc76c9xy"><rect x="80" y="100" width="540" height="320"/></clipPath></g><g class="gradients"/><g class="patterns"/></defs><g class="bglayer"><rect class="bg" x="80" y="100" width="540" height="320" style="fill: rgb(0, 0, 0); fill-opacity: 0; stroke-width: 0;"/></g><g class="layer-below"><g class="imagelayer"/><g class="shapelayer"/></g><g class="cartesianlayer"><g class="subplot xy"><g class="layer-subplot"><g class="shapelayer"/><g class="imagelayer"/></g><g class="minor-gridlayer"><g class="x"/><g class="y"/></g><g class="gridlayer"><g class="x"><path class="xgrid crisp" transform="translate(102.43,0)" d="M0,100v320" style="stroke: rgb(255, 255, 255); stroke-opacity: 1; stroke-width: 1px;"/><path class="xgrid crisp" transform="translate(209.58,0)" d="M0,100v320" style="stroke: rgb(255, 255, 255); stroke-opacity: 1; stroke-width: 1px;"/><path class="xgrid crisp" transform="translate(316.58000000000004,0)" d="M0,100v320" style="stroke: rgb(255, 255, 255); stroke-opacity: 1; stroke-width: 1px;"/><path class="xgrid crisp" transform="translate(423.73,0)" d="M0,100v320" style="stroke: rgb(255, 255, 255); stroke-opacity: 1; stroke-width: 1px;"/><path class="xgrid crisp" transform="translate(530.73,0)" d="M0,100v320" style="stroke: rgb(255, 255, 255); stroke-opacity: 1; stroke-width: 1px;"/></g><g class="y"><path class="ygrid crisp" transform="translate(0,353.90999999999997)" d="M80,0h540" style="stroke: rgb(255, 255, 255); stroke-opacity: 1; stroke-width: 1px;"/><path class="ygrid crisp" transform="translate(0,287.83000000000004)" d="M80,0h540" style="stroke: rgb(255, 255, 255); stroke-opacity: 1; stroke-width: 1px;"/><path class="ygrid crisp" transform="translate(0,221.74)" d="M80,0h540" style="stroke: rgb(255, 255, 255); stroke-opacity: 1; stroke-width: 1px;"/><path class="ygrid crisp" transform="translate(0,155.65)" d="M80,0h540" style="stroke: rgb(255, 255, 255); stroke-opacity: 1; stroke-width: 1px;"/></g></g><g class="zerolinelayer"><path class="yzl zl crisp" transform="translate(0,420)" d="M80,0h540" style="stroke: rgb(255, 255, 255); stroke-opacity: 1; stroke-width: 2px;"/></g><g class="layer-between"><g class="shapelayer"/><g class="imagelayer"/></g><path class="xlines-below"/><path class="ylines-below"/><g class="overlines-below"/><g class="xaxislayer-below"/><g class="yaxislayer-below"/><g class="overaxes-below"/><g class="overplot"><g class="xy" transform="translate(80,100)" clip-path="url(#clipbc76c9xyplot)"><g class="scatterlayer mlayer"><g class="trace scatter tracecfd80f" style="stroke-miterlimit: 2;"><g class="fills"><g><path class="js-fill" d="M540,320L0,320L0,286.96L4.54,49.04L8.94,174.61L13.49,154.78L17.88,260.52L22.43,267.13L26.97,240.7L31.22,240.7L35.77,174.61L40.16,168L44.71,194.43L49.1,207.65L53.65,247.3L58.19,194.43L62.59,207.65L67.13,207.65L71.53,240.7L76.07,253.91L80.62,234.09L84.72,194.43L89.27,234.09L93.66,253.91L98.21,234.09L102.61,134.96L107.15,220.87L111.69,227.48L116.09,273.74L120.64,247.3L125.03,240.7L129.58,201.04L134.12,227.48L138.22,240.7L142.77,201.04L147.17,214.26L151.71,273.74L156.11,220.87L160.65,267.13L165.2,227.48L169.59,247.3L178.53,260.52L183.08,240.7L187.62,280.35L191.73,201.04L196.27,201.04L200.67,247.3L205.21,293.57L209.61,234.09L214.15,267.13L218.7,260.52L223.09,227.48L227.64,181.22L232.04,234.09L236.58,253.91L241.12,273.74L245.37,207.65L249.92,227.48L254.32,181.22L258.86,207.65L263.26,201.04L267.8,227.48L272.35,207.65L276.74,207.65L281.29,260.52L285.68,293.57L290.23,286.96L294.77,267.13L298.88,207.65L303.42,253.91L307.82,227.48L312.36,168L316.76,214.26L321.3,227.48L325.85,227.48L330.24,260.52L334.79,247.3L339.19,280.35L343.73,273.74L348.27,201.04L352.38,260.52L356.92,267.13L361.32,194.43L365.86,260.52L370.26,253.91L374.8,273.74L379.35,234.09L383.75,214.26L388.29,273.74L392.69,273.74L397.23,247.3L401.78,220.87L405.88,214.26L410.42,240.7L414.82,260.52L419.36,260.52L423.76,234.09L428.31,201.04L432.85,141.57L437.25,168L441.79,187.83L446.19,234.09L450.73,240.7L455.28,16L459.53,187.83L464.07,174.61L468.47,134.96L473.01,174.61L477.41,194.43L481.95,121.74L486.5,148.17L490.9,168L495.44,194.43L499.84,234.09L504.38,234.09L513.03,220.87L517.57,234.09L521.97,240.7L526.51,240.7L530.91,194.43L535.46,240.7L540,247.3" style="fill: rgb(255, 127, 14); fill-opacity: 0.5; stroke-width: 0;"/></g></g><g class="errorbars"/><g class="lines"><path class="js-line" d="M0,286.96L4.54,49.04L8.94,174.61L13.49,154.78L17.88,260.52L22.43,267.13L26.97,240.7L31.22,240.7L35.77,174.61L40.16,168L44.71,194.43L49.1,207.65L53.65,247.3L58.19,194.43L62.59,207.65L67.13,207.65L71.53,240.7L76.07,253.91L80.62,234.09L84.72,194.43L89.27,234.09L93.66,253.91L98.21,234.09L102.61,134.96L107.15,220.87L111.69,227.48L116.09,273.74L120.64,247.3L125.03,240.7L129.58,201.04L134.12,227.48L138.22,240.7L142.77,201.04L147.17,214.26L151.71,273.74L156.11,220.87L160.65,267.13L165.2,227.48L169.59,247.3L178.53,260.52L183.08,240.7L187.62,280.35L191.73,201.04L196.27,201.04L200.67,247.3L205.21,293.57L209.61,234.09L214.15,267.13L218.7,260.52L223.09,227.48L227.64,181.22L232.04,234.09L236.58,253.91L241.12,273.74L245.37,207.65L249.92,227.48L254.32,181.22L258.86,207.65L263.26,201.04L267.8,227.48L272.35,207.65L276.74,207.65L281.29,260.52L285.68,293.57L290.23,286.96L294.77,267.13L298.88,207.65L303.42,253.91L307.82,227.48L312.36,168L316.76,214.26L321.3,227.48L325.85,227.48L330.24,260.52L334.79,247.3L339.19,280.35L343.73,273.74L348.27,201.04L352.38,260.52L356.92,267.13L361.32,194.43L365.86,260.52L370.26,253.91L374.8,273.74L379.35,234.09L383.75,214.26L388.29,273.74L392.69,273.74L397.23,247.3L401.78,220.87L405.88,214.26L410.42,240.7L414.82,260.52L419.36,260.52L423.76,234.09L428.31,201.04L432.85,141.57L437.25,168L441.79,187.83L446.19,234.09L450.73,240.7L455.28,16L459.53,187.83L464.07,174.61L468.47,134.96L473.01,174.61L477.41,194.43L481.95,121.74L486.5,148.17L490.9,168L495.44,194.43L499.84,234.09L504.38,234.09L513.03,220.87L517.57,234.09L521.97,240.7L526.51,240.7L530.91,194.43L535.46,240.7L540,247.3" style="vector-effect: none; fill: none; stroke: rgb(255, 127, 14); stroke-opacity: 1; stroke-width: 2px; opacity: 1;"/></g><g class="points"/><g class="text"/></g></g></g></g><g class="zerolinelayer-above"/><path class="xlines-above crisp" d="M0,0" style="fill: none;"/><path class="ylines-above crisp" d="M0,0" style="fill: none;"/><g class="overlines-above"/><g class="xaxislayer-above"><g class="xtick"><text text-anchor="middle" x="0" y="439" transform="translate(102.43,0)" style="font-family: 'Open Sans'; font-size: 18px; fill: rgb(0, 0, 0); fill-opacity: 1; white-space: pre;">2016</text></g><g class="xtick"><text text-anchor="middle" x="0" y="439" style="font-family: 'Open Sans'; font-size: 18px; fill: rgb(0, 0, 0); fill-opacity: 1; white-space: pre;" transform="translate(209.58,0)">2018</text></g><g class="xtick"><text text-anchor="middle" x="0" y="439" style="font-family: 'Open Sans'; font-size: 18px; fill: rgb(0, 0, 0); fill-opacity: 1; white-space: pre;" transform="translate(316.58000000000004,0)">2020</text></g><g class="xtick"><text text-anchor="middle" x="0" y="439" style="font-family: 'Open Sans'; font-size: 18px; fill: rgb(0, 0, 0); fill-opacity: 1; white-space: pre;" transform="translate(423.73,0)">2022</text></g><g class="xtick"><text text-anchor="middle" x="0" y="439" style="font-family: 'Open Sans'; font-size: 18px; fill: rgb(0, 0, 0); fill-opacity: 1; white-space: pre;" transform="translate(530.73,0)">2024</text></g></g><g class="yaxislayer-above"><g class="ytick"><text text-anchor="end" x="79" y="6.3" transform="translate(0,420)" style="font-family: 'Open Sans'; font-size: 18px; fill: rgb(0, 0, 0); fill-opacity: 1; white-space: pre;">0</text></g><g class="ytick"><text text-anchor="end" x="79" y="6.3" style="font-family: 'Open Sans'; font-size: 18px; fill: rgb(0, 0, 0); fill-opacity: 1; white-space: pre;" transform="translate(0,353.90999999999997)">10</text></g><g class="ytick"><text text-anchor="end" x="79" y="6.3" style="font-family: 'Open Sans'; font-size: 18px; fill: rgb(0, 0, 0); fill-opacity: 1; white-space: pre;" transform="translate(0,287.83000000000004)">20</text></g><g class="ytick"><text text-anchor="end" x="79" y="6.3" style="font-family: 'Open Sans'; font-size: 18px; fill: rgb(0, 0, 0); fill-opacity: 1; white-space: pre;" transform="translate(0,221.74)">30</text></g><g class="ytick"><text text-anchor="end" x="79" y="6.3" style="font-family: 'Open Sans'; font-size: 18px; fill: rgb(0, 0, 0); fill-opacity: 1; white-space: pre;" transform="translate(0,155.65)">40</text></g></g><g class="overaxes-above"/></g></g><g class="polarlayer"/><g class="smithlayer"/><g class="ternarylayer"/><g class="geolayer"/><g class="funnelarealayer"/><g class="pielayer"/><g class="iciclelayer"/><g class="treemaplayer"/><g class="sunburstlayer"/><g class="glimages"/><defs id="topdefs-bc76c9"><g class="clips"/></defs><g class="layer-above"><g class="imagelayer"/><g class="shapelayer"/></g><g class="infolayer"><g class="g-gtitle"><text class="gtitle" x="35" y="50" text-anchor="start" dy="0em" style="opacity: 1; font-family: 'Open Sans'; font-size: 25px; fill: rgb(0, 0, 0); fill-opacity: 1; white-space: pre;">MultiQC/MultiQC - New Issues Per Month</text></g><g class="g-xtitle"><text class="xtitle" x="350" y="472.9" text-anchor="middle" style="opacity: 1; font-family: 'Open Sans'; font-size: 22px; fill: rgb(0, 0, 0); fill-opacity: 1; white-space: pre;">Month</text></g><g class="g-ytitle"><text class="ytitle" transform="rotate(-90,38.8,260)" x="38.8" y="260" text-anchor="middle" style="opacity: 1; font-family: 'Open Sans'; font-size: 22px; fill: rgb(0, 0, 0); fill-opacity: 1; white-space: pre;">New Issues Created</text></g></g></svg>