<svg class="main-svg" xmlns="http://www.w3.org/2000/svg" xmlns:xlink="http://www.w3.org/1999/xlink" width="700" height="500" style="" viewBox="0 0 700 500"><rect x="0" y="0" width="700" height="500" style="fill: rgb(0, 0, 0); fill-opacity: 0;"/><defs id="defs-93f1f9"><g class="clips"><clipPath id="clip93f1f9xyplot" class="plotclip"><rect width="540" height="320"/></clipPath><clipPath class="axesclip" id="clip93f1f9x"><rect x="80" y="0" width="540" height="500"/></clipPath><clipPath class="axesclip" id="clip93f1f9y"><rect x="0" y="100" width="700" height="320"/></clipPath><clipPath class="axesclip" id="clip93f1f9xy"><rect x="80" y="100" width="540" height="320"/></clipPath></g><g class="gradients"/><g class="patterns"/></defs><g class="bglayer"><rect class="bg" x="80" y="100" width="540" height="320" style="fill: rgb(0, 0, 0); fill-opacity: 0; stroke-width: 0;"/></g><g class="layer-below"><g class="imagelayer"/><g class="shapelayer"/></g><g class="cartesianlayer"><g class="subplot xy"><g class="layer-subplot"><g class="shapelayer"/><g class="imagelayer"/></g><g class="minor-gridlayer"><g class="x"/><g class="y"/></g><g class="gridlayer"><g class="x"><path class="xgrid crisp" transform="translate(101.4,0)" d="M0,100v320" style="stroke: rgb(255, 255, 255); stroke-opacity: 1; stroke-width: 1px;"/><path class="xgrid crisp" transform="translate(207.57999999999998,0)" d="M0,100v320" style="stroke: rgb(255, 255, 255); stroke-opacity: 1; stroke-width: 1px;"/><path class="xgrid crisp" transform="translate(313.61,0)" d="M0,100v320" style="stroke: rgb(255, 255, 255); stroke-opacity: 1; stroke-width: 1px;"/><path class="xgrid crisp" transform="translate(419.79,0)" d="M0,100v320" style="stroke: rgb(255, 255, 255); stroke-opacity: 1; stroke-width: 1px;"/><path class="xgrid crisp" transform="translate(525.8199999999999,0)" d="M0,100v320" style="stroke: rgb(255, 255, 255); stroke-opacity: 1; stroke-width: 1px;"/></g><g class="y"><path class="ygrid crisp" transform="translate(0,356.13)" d="M80,0h540" style="stroke: rgb(255, 255, 255); stroke-opacity: 1; stroke-width: 1px;"/><path class="ygrid crisp" transform="translate(0,292.27)" d="M80,0h540" style="stroke: rgb(255, 255, 255); stroke-opacity: 1; stroke-width: 1px;"/><path class="ygrid crisp" transform="translate(0,228.4)" d="M80,0h540" style="stroke: rgb(255, 255, 255); stroke-opacity: 1; stroke-width: 1px;"/><path class="ygrid crisp" transform="translate(0,164.54000000000002)" d="M80,0h540" style="stroke: rgb(255, 255, 255); stroke-opacity: 1; stroke-width: 1px;"/></g></g><g class="zerolinelayer"><path class="yzl zl crisp" transform="translate(0,420)" d="M80,0h540" style="stroke: rgb(255, 255, 255); stroke-opacity: 1; stroke-width: 2px;"/></g><g class="layer-between"><g class="shapelayer"/><g class="imagelayer"/></g><path class="xlines-below"/><path class="ylines-below"/><g class="overlines-below"/><g class="xaxislayer-below"/><g class="yaxislayer-below"/><g class="overaxes-below"/><g class="overplot"><g class="xy" transform="translate(80,100)" clip-path="url(#clip93f1f9xyplot)"><g class="scatterlayer mlayer"><g class="trace scatter traced70fe3" style="stroke-miterlimit: 2;"><g class="fills"><g><path class="js-fill" d="M540,320L0,320L0,318.72L0,316.17L0.58,317.45L1.88,318.72L2,317.45L3.04,318.72L3.9,312.34L3.92,313.61L4.62,312.34L5.06,307.23L5.23,308.5L5.62,309.78L5.79,305.95L6.09,311.06L6.23,308.5L6.54,309.78L7.24,298.29L7.36,297.01L7.54,295.73L7.81,298.29L7.81,299.56L7.82,300.84L7.99,290.62L8.71,289.34L9.1,298.29L9.1,299.56L9.85,308.5L9.86,307.23L9.86,308.5L10.32,299.56L10.7,300.84L10.74,298.29L11.17,303.39L11.29,303.39L11.76,304.67L11.76,305.95L12.3,295.73L12.33,297.01L12.79,295.73L13.03,285.51L13.07,291.9L13.07,293.18L13.19,290.62L13.51,294.45L13.69,291.9L13.93,290.62L14.34,284.24L14.49,288.07L14.91,286.79L15.11,285.51L15.24,288.07L15.96,289.34L16.13,293.18L17.36,291.9L17.97,289.34L18.11,288.07L18.85,282.96L18.86,284.24L19,282.96L19.45,284.24L22.06,282.96L22.06,284.24L22.47,280.4L22.48,282.96L24.05,281.68L24.24,282.96L24.4,281.68L25.26,280.4L26,277.85L26.11,279.13L26.43,277.85L27.2,286.79L27.27,285.51L27.55,281.68L28,284.24L28.02,285.51L28.17,284.24L28.42,285.51L29.63,286.79L31.11,282.96L31.33,284.24L31.37,288.07L31.37,288.07L32.19,286.79L32.68,290.62L33.11,289.34L33.31,295.73L34.24,297.01L34.96,294.45L34.96,295.73L35.1,297.01L35.71,294.45L36.01,293.18L36.76,295.73L37.14,294.45L37.14,295.73L37.29,289.34L37.58,290.62L38.3,289.34L38.53,285.51L38.73,293.18L39.25,294.45L39.32,293.18L39.77,297.01L39.83,298.29L40.06,293.18L40.36,294.45L40.67,295.73L41.54,289.34L41.66,291.9L41.67,293.18L42.24,289.34L42.26,291.9L42.4,293.18L43.84,285.51L44.54,284.24L44.84,282.96L45.47,284.24L46.16,285.51L46.45,284.24L46.48,288.07L46.94,282.96L47.22,284.24L47.29,281.68L47.61,288.07L47.77,289.34L48.36,293.18L48.5,290.62L48.52,289.34L48.62,293.18L48.94,291.9L49.51,293.18L49.52,297.01L49.82,294.45L50.4,295.73L50.8,294.45L50.8,295.73L51.51,294.45L51.52,295.73L51.71,293.18L51.83,293.18L52.69,291.9L53.89,289.34L54.46,290.62L54.46,291.9L54.9,288.07L55.06,290.62L55.52,289.34L55.62,288.07L55.94,291.9L56.79,290.62L58.15,285.51L58.67,284.24L59.94,272.74L60.01,275.29L60.11,276.57L60.11,277.85L60.72,275.29L60.89,274.02L61.02,272.74L61.03,274.02L62.64,272.74L63.18,266.35L63.71,267.63L64.2,265.08L64.31,266.35L64.78,265.08L66.21,251.03L66.23,253.58L66.99,252.3L67.66,254.86L67.67,256.13L67.68,262.52L67.98,262.52L68.7,261.24L69.99,257.41L70.76,256.13L71.01,263.8L71.94,262.52L73.07,275.29L73.22,274.02L73.76,272.74L73.76,271.46L74.17,271.46L74.63,272.74L75.74,268.91L75.75,270.18L76.22,267.63L76.27,268.91L77.15,267.63L77.95,266.35L78.47,265.08L81.88,254.86L81.88,256.13L82.34,259.97L82.48,256.13L82.9,257.41L83.19,258.69L83.26,254.86L83.47,257.41L84.22,258.69L84.56,252.3L84.57,253.58L85.73,252.3L85.95,253.58L86.15,252.3L86.39,251.03L86.39,252.3L86.42,249.75L86.98,252.3L87.15,253.58L88.01,249.75L88.02,251.03L88.16,252.3L88.58,257.41L89,256.13L89.35,254.86L89.35,252.3L89.47,256.13L90.46,254.86L90.46,256.13L90.48,253.58L91.17,256.13L91.35,254.86L92.17,257.41L92.51,256.13L93.1,257.41L93.19,258.69L93.52,263.8L94.07,262.52L94.39,271.46L94.68,268.91L95.16,267.63L96.25,263.8L96.39,265.08L96.39,266.35L98.3,258.69L98.32,259.97L100.47,252.3L100.61,253.58L100.61,254.86L101.53,257.41L101.64,258.69L102.52,270.18L102.84,268.91L103.26,271.46L103.26,270.18L103.36,268.91L103.4,271.46L103.83,258.69L103.84,258.69L104.26,257.41L104.59,254.86L104.86,261.24L105.27,259.97L106.29,257.41L106.29,258.69L106.29,259.97L106.42,262.52L106.87,261.24L107.37,259.97L107.73,263.8L107.87,261.24L108.29,259.97L108.31,261.24L108.89,258.69L108.91,259.97L109.51,258.69L109.62,257.41L109.62,258.69L110.33,259.97L110.33,261.24L110.95,259.97L111.53,258.69L111.77,254.86L111.95,254.86L112.38,253.58L113.78,247.19L113.82,248.47L113.9,249.75L114.41,248.47L115.73,247.19L116.02,245.92L116.6,247.19L118.04,243.36L118.52,244.64L118.82,243.36L119.68,274.02L119.79,272.74L120.43,270.18L120.71,271.46L121.13,270.18L121.13,271.46L122.14,270.18L122.56,271.46L122.87,270.18L122.88,268.91L123.59,267.63L123.84,268.91L123.85,271.46L124.08,266.35L124.61,265.08L124.61,266.35L125.05,263.8L125.11,263.8L125.69,262.52L125.69,261.24L126.19,267.63L127.98,266.35L128.2,267.63L128.26,266.35L128.79,265.08L129.24,259.97L130.05,258.69L131.8,253.58L132.18,254.86L132.67,252.3L132.74,253.58L132.74,254.86L132.9,261.24L133.28,258.69L133.83,257.41L134.36,254.86L134.61,256.13L135.23,261.24L135.96,259.97L136.97,254.86L137.36,256.13L138.06,254.86L139.16,253.58L140.34,249.75L141.17,251.03L141.17,249.75L141.86,251.03L141.93,249.75L142.04,251.03L142.53,249.75L142.9,248.47L142.91,251.03L143.46,245.92L143.46,245.92L143.92,244.64L143.92,242.08L144.5,243.36L144.87,242.08L145.38,239.53L145.42,238.25L145.49,236.97L145.54,240.81L146.11,239.53L146.13,240.81L146.55,238.25L147.2,239.53L147.61,235.7L147.86,244.64L147.86,245.92L147.86,247.19L148.54,243.36L148.54,244.64L148.62,243.36L149.31,245.92L150.52,244.64L150.6,245.92L151.2,244.64L151.2,243.36L151.31,245.92L152.15,244.64L152.17,245.92L152.84,242.08L152.9,243.36L153.48,244.64L154.11,243.36L154.11,244.64L154.15,243.36L155.26,242.08L155.28,243.36L155.45,239.53L155.74,239.53L156.25,238.25L157.58,233.14L158.12,234.42L158.12,233.14L158.8,239.53L159.18,238.25L160.41,236.97L160.75,238.25L163.23,231.87L163.38,233.14L163.91,228.03L164.21,226.76L165.55,219.09L166.31,217.82L166.31,219.09L166.71,217.82L167.83,216.54L167.89,215.26L168.36,220.37L168.8,219.09L169.89,216.54L169.89,215.26L169.91,213.98L170.13,222.92L171.44,221.65L171.69,219.09L172.82,217.82L173.57,222.92L173.94,221.65L176.92,211.43L176.99,210.15L177.04,211.43L178.83,210.15L179.08,215.26L179.09,216.54L179.1,220.37L179.52,217.82L181.53,216.54L181.56,219.09L181.71,217.82L182.48,216.54L183.01,211.43L183.01,212.71L183.56,213.98L183.92,215.26L184.85,210.15L184.91,211.43L185.05,212.71L185.91,211.43L185.92,212.71L189.13,207.6L189.23,206.32L189.82,202.49L189.83,203.76L190.26,202.49L190.29,205.04L190.97,203.76L191.15,202.49L191.86,203.76L192.16,202.49L192.92,201.21L193.11,199.93L193.9,197.38L194.04,196.1L194.22,197.38L194.37,194.82L194.39,196.1L195.21,194.82L196.63,185.88L196.63,188.44L196.9,187.16L197.25,184.61L197.57,185.88L198.1,184.61L198.31,182.05L198.38,183.33L198.79,184.61L200.03,179.5L201.23,178.22L201.23,179.5L201.34,179.5L202.73,178.22L203.49,179.5L204.24,178.22L204.47,176.94L204.48,178.22L206.39,176.94L207.11,175.66L207.12,176.94L207.12,178.22L207.52,176.94L208.38,178.22L208.38,179.5L209.09,179.5L209.27,178.22L210.28,175.66L211.02,174.39L211.69,170.55L212.07,171.83L213.5,166.72L213.84,168L215.31,166.72L215.54,165.45L216.56,164.17L216.68,165.45L219.28,160.34L219.59,161.61L219.96,157.78L220.72,156.5L221.17,159.06L221.21,157.78L221.49,156.5L222.25,153.95L222.47,155.23L222.51,156.5L222.54,160.34L223.21,156.5L223.27,157.78L223.74,155.23L223.82,162.89L224.23,161.61L224.25,162.89L224.27,161.61L225.02,160.34L225.24,161.61L225.72,157.78L225.86,159.06L226.58,168L226.62,166.72L226.88,183.33L227.4,182.05L227.69,189.71L228.29,188.44L228.46,189.71L228.9,184.61L228.9,185.88L229.07,187.16L229.35,188.44L229.52,185.88L229.63,184.61L230.63,179.5L230.93,178.22L231.42,174.39L231.47,173.11L231.58,178.22L232.53,176.94L234.59,174.39L234.62,173.11L235.23,166.72L235.61,165.45L236.07,166.72L237.77,165.45L238.96,162.89L239.04,161.61L239.92,160.34L240.34,161.61L241.1,159.06L243,157.78L243.6,155.23L243.68,153.95L243.84,151.39L244.6,150.12L244.73,151.39L244.92,150.12L246.11,148.84L246.43,145.01L246.46,152.67L246.46,153.95L246.46,155.23L247.02,150.12L247.47,148.84L247.68,150.12L248.67,148.84L248.83,150.12L249.07,148.84L249.68,150.12L249.76,148.84L249.94,153.95L250.38,151.39L250.66,152.67L250.97,151.39L250.99,153.95L251.1,153.95L251.11,155.23L252.15,151.39L252.61,150.12L253.03,147.56L253.14,153.95L253.17,153.95L253.55,152.67L253.87,151.39L254.02,152.67L254.06,153.95L254.14,152.67L254.46,155.23L254.78,156.5L254.87,153.95L254.9,164.17L254.91,165.45L255.74,187.16L255.88,185.88L256.2,187.16L256.76,185.88L257.82,180.77L257.91,182.05L259.26,173.11L259.41,174.39L259.69,173.11L260.96,169.28L260.97,170.55L261.12,171.83L261.73,168L262.04,166.72L262.25,165.45L262.91,166.72L263.55,160.34L264.02,159.06L264.52,153.95L264.53,155.23L265.08,156.5L265.92,151.39L266.11,150.12L267.41,142.45L267.86,141.18L268.06,139.9L269.14,138.62L270.59,130.96L271.02,129.68L272.04,125.85L272.08,127.13L273.47,120.74L274.15,119.46L276.2,113.08L276.2,114.35L279.28,97.75L279.5,99.03L279.51,101.58L280.46,100.3L280.46,101.58L281.2,97.75L281.85,96.47L282.15,97.75L283.34,96.47L283.65,92.64L286.16,93.92L286.33,123.29L287.27,122.02L288.49,123.29L288.64,122.02L288.64,120.74L288.73,124.57L288.91,122.02L289.53,123.29L292.52,122.02L293.27,120.74L293.85,116.91L293.85,115.63L293.98,118.18L294.52,116.91L294.64,115.63L294.69,116.91L295.65,115.63L296.87,122.02L296.99,120.74L297.21,122.02L297.91,116.91L298.59,115.63L298.63,116.91L299.17,111.8L299.54,113.08L299.84,127.13L300.81,125.85L300.98,127.13L301.51,124.57L301.52,125.85L301.52,127.13L302.56,124.57L302.73,125.85L302.85,123.29L303.31,124.57L303.69,125.85L304.17,127.13L304.7,125.85L306.2,120.74L306.53,119.46L306.86,122.02L307.02,116.91L307.14,118.18L307.19,116.91L307.76,118.18L308.94,116.91L308.96,118.18L309.51,115.63L309.87,114.35L310.2,109.24L310.48,110.52L310.87,111.8L310.88,116.91L311.07,114.35L312.14,113.08L312.88,124.57L312.88,123.29L312.99,122.02L313.02,120.74L313.34,132.24L313.49,132.24L313.59,133.51L313.64,142.45L314.16,141.18L314.36,139.9L314.72,141.18L314.75,139.9L315.05,138.62L315.73,136.07L316.32,134.79L317.04,133.51L317.12,132.24L317.18,130.96L318.03,129.68L318.27,130.96L318.27,129.68L318.92,128.4L319.24,132.24L319.35,128.4L319.82,127.13L320.23,123.29L320.88,122.02L321.09,120.74L322.45,119.46L323.14,115.63L323.2,114.35L324.45,106.69L325.46,105.41L328.25,96.47L329.39,95.19L330.19,92.64L331.03,91.36L331.17,88.81L331.93,90.08L332.3,109.24L332.51,107.97L332.79,109.24L333.08,107.97L333.1,110.52L333.46,109.24L334.11,110.52L334.64,109.24L335.39,110.52L336.55,106.69L337.53,105.41L338.85,104.13L339.2,105.41L339.25,106.69L340.29,105.41L340.82,102.86L341.29,104.13L341.48,102.86L341.92,104.13L341.94,105.41L341.95,106.69L342.64,104.13L343.34,105.41L344.36,141.18L344.65,139.9L344.82,136.07L345.28,141.18L345.44,142.45L346.93,130.96L347.28,129.68L347.41,132.24L347.89,130.96L348.33,129.68L349.34,132.24L349.74,130.96L350.52,129.68L350.63,130.96L351.61,128.4L351.97,127.13L352.39,128.4L352.78,127.13L353.39,125.85L353.64,124.57L353.85,122.02L354.99,120.74L355.27,119.46L356.39,118.18L358.04,113.08L358.04,114.35L358.07,115.63L359.05,110.52L359.6,111.8L360.47,106.69L360.47,107.97L360.98,106.69L361.02,107.97L361.66,105.41L361.67,104.13L361.78,101.58L363.12,100.3L363.99,97.75L364.02,96.47L364.87,93.92L365.2,92.64L366.16,97.75L366.56,96.47L366.75,95.19L368.3,92.64L368.52,93.92L369.65,91.36L370.22,90.08L371.82,84.97L372.45,83.7L372.82,82.42L373.04,83.7L373.1,84.97L373.12,83.7L374.02,82.42L375.17,79.87L375.29,78.59L376.3,77.31L376.31,78.59L376.39,96.47L377.05,92.64L377.31,93.92L377.95,91.36L378.2,90.08L378.97,91.36L379.9,90.08L380.54,86.25L380.65,87.53L380.94,86.25L382.26,83.7L383.12,82.42L383.76,79.87L383.76,78.59L383.76,72.2L385.05,70.92L386.11,67.09L387.65,68.37L387.65,70.92L388.07,67.09L388.07,68.37L388.43,67.09L388.94,68.37L389.27,67.09L389.28,65.82L389.54,67.09L390.43,65.82L390.58,64.54L390.58,65.82L391.93,67.09L392.58,65.82L392.64,67.09L392.81,68.37L392.81,69.65L393.44,69.65L393.76,70.92L393.96,84.97L394.97,86.25L396.01,83.7L396.54,82.42L396.67,79.87L396.71,83.7L397.14,84.97L398.38,76.03L398.39,77.31L398.39,76.03L398.41,82.42L398.73,79.87L399.3,78.59L400.64,74.76L401.79,73.48L402.52,69.65L403.24,68.37L403.62,64.54L404.11,67.09L404.37,65.82L405.42,59.43L405.42,60.71L406.88,59.43L407.68,53.04L407.69,54.32L407.69,55.6L408.52,54.32L408.86,55.6L409.58,50.49L409.8,51.76L409.99,50.49L410.65,51.76L411.62,47.93L412.27,46.66L412.9,44.1L413.13,45.38L413.27,46.66L413.59,47.93L413.8,46.66L415.01,47.93L417.44,38.99L417.73,37.71L418.74,36.44L419.48,37.71L420.6,33.88L420.68,32.61L420.75,33.88L420.92,28.77L421.55,30.05L421.63,27.5L422.8,26.22L422.97,23.66L423.16,26.22L423.42,27.5L423.83,26.22L424,27.5L424.03,28.77L424.31,31.33L424.85,30.05L425.91,22.39L425.91,24.94L425.96,26.22L426.71,23.66L426.72,24.94L426.93,26.22L427.34,27.5L427.59,24.94L427.87,23.66L428.03,24.94L428.15,22.39L428.48,23.66L428.48,24.94L428.62,27.5L429.13,22.39L429.47,21.11L430.06,18.55L430.06,19.83L430.13,21.11L430.69,16L430.79,18.55L431.06,19.83L431.23,17.28L431.37,28.77L431.37,30.05L431.78,36.44L432.09,24.94L432.16,26.22L432.79,33.88L432.82,30.05L432.95,31.33L434.67,22.39L434.73,23.66L434.87,36.44L435.28,31.33L435.57,30.05L435.61,32.61L436.15,30.05L436.75,28.77L437.4,32.61L437.69,31.33L437.92,30.05L438.07,32.61L438.15,31.33L438.74,30.05L439.4,40.27L439.42,38.99L439.81,37.71L439.89,36.44L440.22,40.27L440.39,37.71L440.49,38.99L441.27,33.88L441.31,35.16L441.45,36.44L442.1,33.88L442.16,32.61L442.43,31.33L442.84,32.61L442.84,33.88L443.42,51.76L443.71,53.04L444.36,49.21L445.21,47.93L445.35,51.76L446.36,53.04L447.48,50.49L447.52,49.21L447.69,50.49L448.07,49.21L448.54,47.93L449.01,45.38L449.13,49.21L449.27,47.93L449.52,46.66L450.17,44.1L450.54,45.38L451.17,51.76L451.4,49.21L451.43,47.93L452.15,51.76L452.3,50.49L452.7,41.55L453.08,49.21L453.18,47.93L453.47,44.1L453.59,50.49L453.59,51.76L453.59,53.04L454.2,44.1L454.32,46.66L454.46,45.38L454.82,41.55L455.04,42.82L455.24,44.1L455.49,41.55L455.66,50.49L455.66,51.76L455.96,69.65L456.39,64.54L456.49,65.82L456.5,67.09L457.27,65.82L457.51,63.26L457.56,72.2L457.57,73.48L458,70.92L458.1,72.2L458.51,70.92L458.56,72.2L458.66,69.65L459.29,68.37L459.94,64.54L460.13,63.26L460.88,56.87L461.15,59.43L461.17,60.71L461.34,59.43L461.72,65.82L462.31,64.54L462.44,65.82L462.71,63.26L462.89,64.54L463.23,65.82L463.91,55.6L464.21,54.32L464.24,53.04L464.32,56.87L464.68,54.32L465.19,53.04L465.2,54.32L465.8,44.1L465.83,46.66L466.65,45.38L467.15,41.55L467.72,42.82L467.86,40.27L468.14,46.66L468.53,45.38L468.55,44.1L468.88,42.82L469.15,45.38L469.45,44.1L469.63,46.66L470,44.1L470.35,45.38L470.89,38.99L471.25,41.55L471.31,42.82L471.44,41.55L471.48,45.38L471.92,42.82L472.36,41.55L472.37,40.27L472.93,51.76L472.95,49.21L473.09,47.93L474.36,51.76L474.55,50.49L474.81,53.04L475.28,51.76L475.54,50.49L476.56,55.6L476.7,53.04L476.74,51.76L476.85,49.21L477.41,53.04L477.42,53.04L477.77,51.76L478.03,47.93L478.43,51.76L478.46,53.04L478.78,51.76L479.64,72.2L479.92,70.92L481.66,55.6L481.75,56.87L481.83,54.32L481.94,65.82L482.23,64.54L482.23,65.82L482.8,64.54L482.82,65.82L483.09,67.09L483.5,74.76L483.79,72.2L483.94,70.92L484.07,65.82L484.69,67.09L484.71,65.82L484.94,63.26L484.97,68.37L485.14,67.09L485.62,68.37L485.9,69.65L486.19,65.82L486.55,64.54L486.86,68.37L486.88,69.65L488.17,65.82L488.9,64.54L489.17,59.43L489.48,64.54L489.8,63.26L490.94,53.04L491.73,54.32L492.26,67.09L492.68,65.82L492.78,68.37L493.13,60.71L493.3,61.98L493.56,60.71L494.04,68.37L494.76,67.09L494.95,65.82L495.29,68.37L495.29,69.65L495.95,67.09L496.2,81.14L496.3,79.87L496.3,77.31L496.88,84.97L497.16,83.7L497.38,84.97L498.87,83.7L499.48,84.97L499.78,83.7L500.25,84.97L500.26,83.7L500.82,82.42L500.82,81.14L501.08,84.97L501.17,83.7L501.8,82.42L502.03,83.7L502.37,82.42L502.77,81.14L502.85,78.59L502.99,82.42L503.29,81.14L503.83,79.87L503.91,78.59L504.04,82.42L504.35,82.42L504.35,83.7L504.35,84.97L504.88,83.7L505.31,82.42L506.13,79.87L506.44,81.14L506.48,84.97L507.05,84.97L507.23,83.7L508.04,76.03L508.06,77.31L508.06,78.59L508.07,81.14L508.22,78.59L509.09,79.87L509.09,78.59L509.38,78.59L510.57,77.31L511.13,73.48L511.26,74.76L511.38,76.03L512.59,68.37L513,69.65L513,70.92L513.31,65.82L513.48,67.09L514.02,65.82L514.61,68.37L514.62,69.65L515.11,68.37L515.18,69.65L515.48,68.37L515.48,67.09L516.21,69.65L516.4,68.37L516.5,67.09L517.43,65.82L518.07,67.09L518.52,65.82L519.29,60.71L519.52,59.43L519.55,60.71L519.7,59.43L520.44,58.15L520.7,60.71L521.17,59.43L521.28,60.71L521.7,55.6L521.87,58.15L522.15,59.43L522.42,55.6L524.24,56.87L524.58,53.04L525.23,54.32L525.49,67.09L525.94,63.26L526.08,64.54L526.21,67.09L526.8,65.82L527.21,64.54L527.54,60.71L528.5,59.43L528.63,56.87L529.68,55.6L530.36,53.04L530.47,51.76L530.6,49.21L532.05,50.49L532.48,69.65L532.78,67.09L532.86,65.82L532.92,68.37L533.67,67.09L534.64,63.26L534.64,64.54L535.38,70.92L535.43,69.65L535.87,68.37L536.52,63.26L536.56,64.54L537.01,63.26L539.55,58.15L539.88,56.87L540,55.6" style="fill: rgb(255, 127, 14); fill-opacity: 0.5; stroke-width: 0;"/></g></g><g class="errorbars"/><g class="lines"><path class="js-line" d="M0,318.72L0,316.17L0.58,317.45L1.88,318.72L2,317.45L3.04,318.72L3.9,312.34L3.92,313.61L4.62,312.34L5.06,307.23L5.23,308.5L5.62,309.78L5.79,305.95L6.09,311.06L6.23,308.5L6.54,309.78L7.24,298.29L7.36,297.01L7.54,295.73L7.81,298.29L7.81,299.56L7.82,300.84L7.99,290.62L8.71,289.34L9.1,298.29L9.1,299.56L9.85,308.5L9.86,307.23L9.86,308.5L10.32,299.56L10.7,300.84L10.74,298.29L11.17,303.39L11.29,303.39L11.76,304.67L11.76,305.95L12.3,295.73L12.33,297.01L12.79,295.73L13.03,285.51L13.07,291.9L13.07,293.18L13.19,290.62L13.51,294.45L13.69,291.9L13.93,290.62L14.34,284.24L14.49,288.07L14.91,286.79L15.11,285.51L15.24,288.07L15.96,289.34L16.13,293.18L17.36,291.9L17.97,289.34L18.11,288.07L18.85,282.96L18.86,284.24L19,282.96L19.45,284.24L22.06,282.96L22.06,284.24L22.47,280.4L22.48,282.96L24.05,281.68L24.24,282.96L24.4,281.68L25.26,280.4L26,277.85L26.11,279.13L26.43,277.85L27.2,286.79L27.27,285.51L27.55,281.68L28,284.24L28.02,285.51L28.17,284.24L28.42,285.51L29.63,286.79L31.11,282.96L31.33,284.24L31.37,288.07L31.37,288.07L32.19,286.79L32.68,290.62L33.11,289.34L33.31,295.73L34.24,297.01L34.96,294.45L34.96,295.73L35.1,297.01L35.71,294.45L36.01,293.18L36.76,295.73L37.14,294.45L37.14,295.73L37.29,289.34L37.58,290.62L38.3,289.34L38.53,285.51L38.73,293.18L39.25,294.45L39.32,293.18L39.77,297.01L39.83,298.29L40.06,293.18L40.36,294.45L40.67,295.73L41.54,289.34L41.66,291.9L41.67,293.18L42.24,289.34L42.26,291.9L42.4,293.18L43.84,285.51L44.54,284.24L44.84,282.96L45.47,284.24L46.16,285.51L46.45,284.24L46.48,288.07L46.94,282.96L47.22,284.24L47.29,281.68L47.61,288.07L47.77,289.34L48.36,293.18L48.5,290.62L48.52,289.34L48.62,293.18L48.94,291.9L49.51,293.18L49.52,297.01L49.82,294.45L50.4,295.73L50.8,294.45L50.8,295.73L51.51,294.45L51.52,295.73L51.71,293.18L51.83,293.18L52.69,291.9L53.89,289.34L54.46,290.62L54.46,291.9L54.9,288.07L55.06,290.62L55.52,289.34L55.62,288.07L55.94,291.9L56.79,290.62L58.15,285.51L58.67,284.24L59.94,272.74L60.01,275.29L60.11,276.57L60.11,277.85L60.72,275.29L60.89,274.02L61.02,272.74L61.03,274.02L62.64,272.74L63.18,266.35L63.71,267.63L64.2,265.08L64.31,266.35L64.78,265.08L66.21,251.03L66.23,253.58L66.99,252.3L67.66,254.86L67.67,256.13L67.68,262.52L67.98,262.52L68.7,261.24L69.99,257.41L70.76,256.13L71.01,263.8L71.94,262.52L73.07,275.29L73.22,274.02L73.76,272.74L73.76,271.46L74.17,271.46L74.63,272.74L75.74,268.91L75.75,270.18L76.22,267.63L76.27,268.91L77.15,267.63L77.95,266.35L78.47,265.08L81.88,254.86L81.88,256.13L82.34,259.97L82.48,256.13L82.9,257.41L83.19,258.69L83.26,254.86L83.47,257.41L84.22,258.69L84.56,252.3L84.57,253.58L85.73,252.3L85.95,253.58L86.15,252.3L86.39,251.03L86.39,252.3L86.42,249.75L86.98,252.3L87.15,253.58L88.01,249.75L88.02,251.03L88.16,252.3L88.58,257.41L89,256.13L89.35,254.86L89.35,252.3L89.47,256.13L90.46,254.86L90.46,256.13L90.48,253.58L91.17,256.13L91.35,254.86L92.17,257.41L92.51,256.13L93.1,257.41L93.19,258.69L93.52,263.8L94.07,262.52L94.39,271.46L94.68,268.91L95.16,267.63L96.25,263.8L96.39,265.08L96.39,266.35L98.3,258.69L98.32,259.97L100.47,252.3L100.61,253.58L100.61,254.86L101.53,257.41L101.64,258.69L102.52,270.18L102.84,268.91L103.26,271.46L103.26,270.18L103.36,268.91L103.4,271.46L103.83,258.69L103.84,258.69L104.26,257.41L104.59,254.86L104.86,261.24L105.27,259.97L106.29,257.41L106.29,258.69L106.29,259.97L106.42,262.52L106.87,261.24L107.37,259.97L107.73,263.8L107.87,261.24L108.29,259.97L108.31,261.24L108.89,258.69L108.91,259.97L109.51,258.69L109.62,257.41L109.62,258.69L110.33,259.97L110.33,261.24L110.95,259.97L111.53,258.69L111.77,254.86L111.95,254.86L112.38,253.58L113.78,247.19L113.82,248.47L113.9,249.75L114.41,248.47L115.73,247.19L116.02,245.92L116.6,247.19L118.04,243.36L118.52,244.64L118.82,243.36L119.68,274.02L119.79,272.74L120.43,270.18L120.71,271.46L121.13,270.18L121.13,271.46L122.14,270.18L122.56,271.46L122.87,270.18L122.88,268.91L123.59,267.63L123.84,268.91L123.85,271.46L124.08,266.35L124.61,265.08L124.61,266.35L125.05,263.8L125.11,263.8L125.69,262.52L125.69,261.24L126.19,267.63L127.98,266.35L128.2,267.63L128.26,266.35L128.79,265.08L129.24,259.97L130.05,258.69L131.8,253.58L132.18,254.86L132.67,252.3L132.74,253.58L132.74,254.86L132.9,261.24L133.28,258.69L133.83,257.41L134.36,254.86L134.61,256.13L135.23,261.24L135.96,259.97L136.97,254.86L137.36,256.13L138.06,254.86L139.16,253.58L140.34,249.75L141.17,251.03L141.17,249.75L141.86,251.03L141.93,249.75L142.04,251.03L142.53,249.75L142.9,248.47L142.91,251.03L143.46,245.92L143.46,245.92L143.92,244.64L143.92,242.08L144.5,243.36L144.87,242.08L145.38,239.53L145.42,238.25L145.49,236.97L145.54,240.81L146.11,239.53L146.13,240.81L146.55,238.25L147.2,239.53L147.61,235.7L147.86,244.64L147.86,245.92L147.86,247.19L148.54,243.36L148.54,244.64L148.62,243.36L149.31,245.92L150.52,244.64L150.6,245.92L151.2,244.64L151.2,243.36L151.31,245.92L152.15,244.64L152.17,245.92L152.84,242.08L152.9,243.36L153.48,244.64L154.11,243.36L154.11,244.64L154.15,243.36L155.26,242.08L155.28,243.36L155.45,239.53L155.74,239.53L156.25,238.25L157.58,233.14L158.12,234.42L158.12,233.14L158.8,239.53L159.18,238.25L160.41,236.97L160.75,238.25L163.23,231.87L163.38,233.14L163.91,228.03L164.21,226.76L165.55,219.09L166.31,217.82L166.31,219.09L166.71,217.82L167.83,216.54L167.89,215.26L168.36,220.37L168.8,219.09L169.89,216.54L169.89,215.26L169.91,213.98L170.13,222.92L171.44,221.65L171.69,219.09L172.82,217.82L173.57,222.92L173.94,221.65L176.92,211.43L176.99,210.15L177.04,211.43L178.83,210.15L179.08,215.26L179.09,216.54L179.1,220.37L179.52,217.82L181.53,216.54L181.56,219.09L181.71,217.82L182.48,216.54L183.01,211.43L183.01,212.71L183.56,213.98L183.92,215.26L184.85,210.15L184.91,211.43L185.05,212.71L185.91,211.43L185.92,212.71L189.13,207.6L189.23,206.32L189.82,202.49L189.83,203.76L190.26,202.49L190.29,205.04L190.97,203.76L191.15,202.49L191.86,203.76L192.16,202.49L192.92,201.21L193.11,199.93L193.9,197.38L194.04,196.1L194.22,197.38L194.37,194.82L194.39,196.1L195.21,194.82L196.63,185.88L196.63,188.44L196.9,187.16L197.25,184.61L197.57,185.88L198.1,184.61L198.31,182.05L198.38,183.33L198.79,184.61L200.03,179.5L201.23,178.22L201.23,179.5L201.34,179.5L202.73,178.22L203.49,179.5L204.24,178.22L204.47,176.94L204.48,178.22L206.39,176.94L207.11,175.66L207.12,176.94L207.12,178.22L207.52,176.94L208.38,178.22L208.38,179.5L209.09,179.5L209.27,178.22L210.28,175.66L211.02,174.39L211.69,170.55L212.07,171.83L213.5,166.72L213.84,168L215.31,166.72L215.54,165.45L216.56,164.17L216.68,165.45L219.28,160.34L219.59,161.61L219.96,157.78L220.72,156.5L221.17,159.06L221.21,157.78L221.49,156.5L222.25,153.95L222.47,155.23L222.51,156.5L222.54,160.34L223.21,156.5L223.27,157.78L223.74,155.23L223.82,162.89L224.23,161.61L224.25,162.89L224.27,161.61L225.02,160.34L225.24,161.61L225.72,157.78L225.86,159.06L226.58,168L226.62,166.72L226.88,183.33L227.4,182.05L227.69,189.71L228.29,188.44L228.46,189.71L228.9,184.61L228.9,185.88L229.07,187.16L229.35,188.44L229.52,185.88L229.63,184.61L230.63,179.5L230.93,178.22L231.42,174.39L231.47,173.11L231.58,178.22L232.53,176.94L234.59,174.39L234.62,173.11L235.23,166.72L235.61,165.45L236.07,166.72L237.77,165.45L238.96,162.89L239.04,161.61L239.92,160.34L240.34,161.61L241.1,159.06L243,157.78L243.6,155.23L243.68,153.95L243.84,151.39L244.6,150.12L244.73,151.39L244.92,150.12L246.11,148.84L246.43,145.01L246.46,152.67L246.46,153.95L246.46,155.23L247.02,150.12L247.47,148.84L247.68,150.12L248.67,148.84L248.83,150.12L249.07,148.84L249.68,150.12L249.76,148.84L249.94,153.95L250.38,151.39L250.66,152.67L250.97,151.39L250.99,153.95L251.1,153.95L251.11,155.23L252.15,151.39L252.61,150.12L253.03,147.56L253.14,153.95L253.17,153.95L253.55,152.67L253.87,151.39L254.02,152.67L254.06,153.95L254.14,152.67L254.46,155.23L254.78,156.5L254.87,153.95L254.9,164.17L254.91,165.45L255.74,187.16L255.88,185.88L256.2,187.16L256.76,185.88L257.82,180.77L257.91,182.05L259.26,173.11L259.41,174.39L259.69,173.11L260.96,169.28L260.97,170.55L261.12,171.83L261.73,168L262.04,166.72L262.25,165.45L262.91,166.72L263.55,160.34L264.02,159.06L264.52,153.95L264.53,155.23L265.08,156.5L265.92,151.39L266.11,150.12L267.41,142.45L267.86,141.18L268.06,139.9L269.14,138.62L270.59,130.96L271.02,129.68L272.04,125.85L272.08,127.13L273.47,120.74L274.15,119.46L276.2,113.08L276.2,114.35L279.28,97.75L279.5,99.03L279.51,101.58L280.46,100.3L280.46,101.58L281.2,97.75L281.85,96.47L282.15,97.75L283.34,96.47L283.65,92.64L286.16,93.92L286.33,123.29L287.27,122.02L288.49,123.29L288.64,122.02L288.64,120.74L288.73,124.57L288.91,122.02L289.53,123.29L292.52,122.02L293.27,120.74L293.85,116.91L293.85,115.63L293.98,118.18L294.52,116.91L294.64,115.63L294.69,116.91L295.65,115.63L296.87,122.02L296.99,120.74L297.21,122.02L297.91,116.91L298.59,115.63L298.63,116.91L299.17,111.8L299.54,113.08L299.84,127.13L300.81,125.85L300.98,127.13L301.51,124.57L301.52,125.85L301.52,127.13L302.56,124.57L302.73,125.85L302.85,123.29L303.31,124.57L303.69,125.85L304.17,127.13L304.7,125.85L306.2,120.74L306.53,119.46L306.86,122.02L307.02,116.91L307.14,118.18L307.19,116.91L307.76,118.18L308.94,116.91L308.96,118.18L309.51,115.63L309.87,114.35L310.2,109.24L310.48,110.52L310.87,111.8L310.88,116.91L311.07,114.35L312.14,113.08L312.88,124.57L312.88,123.29L312.99,122.02L313.02,120.74L313.34,132.24L313.49,132.24L313.59,133.51L313.64,142.45L314.16,141.18L314.36,139.9L314.72,141.18L314.75,139.9L315.05,138.62L315.73,136.07L316.32,134.79L317.04,133.51L317.12,132.24L317.18,130.96L318.03,129.68L318.27,130.96L318.27,129.68L318.92,128.4L319.24,132.24L319.35,128.4L319.82,127.13L320.23,123.29L320.88,122.02L321.09,120.74L322.45,119.46L323.14,115.63L323.2,114.35L324.45,106.69L325.46,105.41L328.25,96.47L329.39,95.19L330.19,92.64L331.03,91.36L331.17,88.81L331.93,90.08L332.3,109.24L332.51,107.97L332.79,109.24L333.08,107.97L333.1,110.52L333.46,109.24L334.11,110.52L334.64,109.24L335.39,110.52L336.55,106.69L337.53,105.41L338.85,104.13L339.2,105.41L339.25,106.69L340.29,105.41L340.82,102.86L341.29,104.13L341.48,102.86L341.92,104.13L341.94,105.41L341.95,106.69L342.64,104.13L343.34,105.41L344.36,141.18L344.65,139.9L344.82,136.07L345.28,141.18L345.44,142.45L346.93,130.96L347.28,129.68L347.41,132.24L347.89,130.96L348.33,129.68L349.34,132.24L349.74,130.96L350.52,129.68L350.63,130.96L351.61,128.4L351.97,127.13L352.39,128.4L352.78,127.13L353.39,125.85L353.64,124.57L353.85,122.02L354.99,120.74L355.27,119.46L356.39,118.18L358.04,113.08L358.04,114.35L358.07,115.63L359.05,110.52L359.6,111.8L360.47,106.69L360.47,107.97L360.98,106.69L361.02,107.97L361.66,105.41L361.67,104.13L361.78,101.58L363.12,100.3L363.99,97.75L364.02,96.47L364.87,93.92L365.2,92.64L366.16,97.75L366.56,96.47L366.75,95.19L368.3,92.64L368.52,93.92L369.65,91.36L370.22,90.08L371.82,84.97L372.45,83.7L372.82,82.42L373.04,83.7L373.1,84.97L373.12,83.7L374.02,82.42L375.17,79.87L375.29,78.59L376.3,77.31L376.31,78.59L376.39,96.47L377.05,92.64L377.31,93.92L377.95,91.36L378.2,90.08L378.97,91.36L379.9,90.08L380.54,86.25L380.65,87.53L380.94,86.25L382.26,83.7L383.12,82.42L383.76,79.87L383.76,78.59L383.76,72.2L385.05,70.92L386.11,67.09L387.65,68.37L387.65,70.92L388.07,67.09L388.07,68.37L388.43,67.09L388.94,68.37L389.27,67.09L389.28,65.82L389.54,67.09L390.43,65.82L390.58,64.54L390.58,65.82L391.93,67.09L392.58,65.82L392.64,67.09L392.81,68.37L392.81,69.65L393.44,69.65L393.76,70.92L393.96,84.97L394.97,86.25L396.01,83.7L396.54,82.42L396.67,79.87L396.71,83.7L397.14,84.97L398.38,76.03L398.39,77.31L398.39,76.03L398.41,82.42L398.73,79.87L399.3,78.59L400.64,74.76L401.79,73.48L402.52,69.65L403.24,68.37L403.62,64.54L404.11,67.09L404.37,65.82L405.42,59.43L405.42,60.71L406.88,59.43L407.68,53.04L407.69,54.32L407.69,55.6L408.52,54.32L408.86,55.6L409.58,50.49L409.8,51.76L409.99,50.49L410.65,51.76L411.62,47.93L412.27,46.66L412.9,44.1L413.13,45.38L413.27,46.66L413.59,47.93L413.8,46.66L415.01,47.93L417.44,38.99L417.73,37.71L418.74,36.44L419.48,37.71L420.6,33.88L420.68,32.61L420.75,33.88L420.92,28.77L421.55,30.05L421.63,27.5L422.8,26.22L422.97,23.66L423.16,26.22L423.42,27.5L423.83,26.22L424,27.5L424.03,28.77L424.31,31.33L424.85,30.05L425.91,22.39L425.91,24.94L425.96,26.22L426.71,23.66L426.72,24.94L426.93,26.22L427.34,27.5L427.59,24.94L427.87,23.66L428.03,24.94L428.15,22.39L428.48,23.66L428.48,24.94L428.62,27.5L429.13,22.39L429.47,21.11L430.06,18.55L430.06,19.83L430.13,21.11L430.69,16L430.79,18.55L431.06,19.83L431.23,17.28L431.37,28.77L431.37,30.05L431.78,36.44L432.09,24.94L432.16,26.22L432.79,33.88L432.82,30.05L432.95,31.33L434.67,22.39L434.73,23.66L434.87,36.44L435.28,31.33L435.57,30.05L435.61,32.61L436.15,30.05L436.75,28.77L437.4,32.61L437.69,31.33L437.92,30.05L438.07,32.61L438.15,31.33L438.74,30.05L439.4,40.27L439.42,38.99L439.81,37.71L439.89,36.44L440.22,40.27L440.39,37.71L440.49,38.99L441.27,33.88L441.31,35.16L441.45,36.44L442.1,33.88L442.16,32.61L442.43,31.33L442.84,32.61L442.84,33.88L443.42,51.76L443.71,53.04L444.36,49.21L445.21,47.93L445.35,51.76L446.36,53.04L447.48,50.49L447.52,49.21L447.69,50.49L448.07,49.21L448.54,47.93L449.01,45.38L449.13,49.21L449.27,47.93L449.52,46.66L450.17,44.1L450.54,45.38L451.17,51.76L451.4,49.21L451.43,47.93L452.15,51.76L452.3,50.49L452.7,41.55L453.08,49.21L453.18,47.93L453.47,44.1L453.59,50.49L453.59,51.76L453.59,53.04L454.2,44.1L454.32,46.66L454.46,45.38L454.82,41.55L455.04,42.82L455.24,44.1L455.49,41.55L455.66,50.49L455.66,51.76L455.96,69.65L456.39,64.54L456.49,65.82L456.5,67.09L457.27,65.82L457.51,63.26L457.56,72.2L457.57,73.48L458,70.92L458.1,72.2L458.51,70.92L458.56,72.2L458.66,69.65L459.29,68.37L459.94,64.54L460.13,63.26L460.88,56.87L461.15,59.43L461.17,60.71L461.34,59.43L461.72,65.82L462.31,64.54L462.44,65.82L462.71,63.26L462.89,64.54L463.23,65.82L463.91,55.6L464.21,54.32L464.24,53.04L464.32,56.87L464.68,54.32L465.19,53.04L465.2,54.32L465.8,44.1L465.83,46.66L466.65,45.38L467.15,41.55L467.72,42.82L467.86,40.27L468.14,46.66L468.53,45.38L468.55,44.1L468.88,42.82L469.15,45.38L469.45,44.1L469.63,46.66L470,44.1L470.35,45.38L470.89,38.99L471.25,41.55L471.31,42.82L471.44,41.55L471.48,45.38L471.92,42.82L472.36,41.55L472.37,40.27L472.93,51.76L472.95,49.21L473.09,47.93L474.36,51.76L474.55,50.49L474.81,53.04L475.28,51.76L475.54,50.49L476.56,55.6L476.7,53.04L476.74,51.76L476.85,49.21L477.41,53.04L477.42,53.04L477.77,51.76L478.03,47.93L478.43,51.76L478.46,53.04L478.78,51.76L479.64,72.2L479.92,70.92L481.66,55.6L481.75,56.87L481.83,54.32L481.94,65.82L482.23,64.54L482.23,65.82L482.8,64.54L482.82,65.82L483.09,67.09L483.5,74.76L483.79,72.2L483.94,70.92L484.07,65.82L484.69,67.09L484.71,65.82L484.94,63.26L484.97,68.37L485.14,67.09L485.62,68.37L485.9,69.65L486.19,65.82L486.55,64.54L486.86,68.37L486.88,69.65L488.17,65.82L488.9,64.54L489.17,59.43L489.48,64.54L489.8,63.26L490.94,53.04L491.73,54.32L492.26,67.09L492.68,65.82L492.78,68.37L493.13,60.71L493.3,61.98L493.56,60.71L494.04,68.37L494.76,67.09L494.95,65.82L495.29,68.37L495.29,69.65L495.95,67.09L496.2,81.14L496.3,79.87L496.3,77.31L496.88,84.97L497.16,83.7L497.38,84.97L498.87,83.7L499.48,84.97L499.78,83.7L500.25,84.97L500.26,83.7L500.82,82.42L500.82,81.14L501.08,84.97L501.17,83.7L501.8,82.42L502.03,83.7L502.37,82.42L502.77,81.14L502.85,78.59L502.99,82.42L503.29,81.14L503.83,79.87L503.91,78.59L504.04,82.42L504.35,82.42L504.35,83.7L504.35,84.97L504.88,83.7L505.31,82.42L506.13,79.87L506.44,81.14L506.48,84.97L507.05,84.97L507.23,83.7L508.04,76.03L508.06,77.31L508.06,78.59L508.07,81.14L508.22,78.59L509.09,79.87L509.09,78.59L509.38,78.59L510.57,77.31L511.13,73.48L511.26,74.76L511.38,76.03L512.59,68.37L513,69.65L513,70.92L513.31,65.82L513.48,67.09L514.02,65.82L514.61,68.37L514.62,69.65L515.11,68.37L515.18,69.65L515.48,68.37L515.48,67.09L516.21,69.65L516.4,68.37L516.5,67.09L517.43,65.82L518.07,67.09L518.52,65.82L519.29,60.71L519.52,59.43L519.55,60.71L519.7,59.43L520.44,58.15L520.7,60.71L521.17,59.43L521.28,60.71L521.7,55.6L521.87,58.15L522.15,59.43L522.42,55.6L524.24,56.87L524.58,53.04L525.23,54.32L525.49,67.09L525.94,63.26L526.08,64.54L526.21,67.09L526.8,65.82L527.21,64.54L527.54,60.71L528.5,59.43L528.63,56.87L529.68,55.6L530.36,53.04L530.47,51.76L530.6,49.21L532.05,50.49L532.48,69.65L532.78,67.09L532.86,65.82L532.92,68.37L533.67,67.09L534.64,63.26L534.64,64.54L535.38,70.92L535.43,69.65L535.87,68.37L536.52,63.26L536.56,64.54L537.01,63.26L539.55,58.15L539.88,56.87L540,55.6" style="vector-effect: none; fill: none; stroke: rgb(255, 127, 14); stroke-opacity: 1; stroke-width: 2px; opacity: 1;"/></g><g class="points"/><g class="text"/></g></g></g></g><g class="zerolinelayer-above"/><path class="xlines-above crisp" d="M0,0" style="fill: none;"/><path class="ylines-above crisp" d="M0,0" style="fill: none;"/><g class="overlines-above"/><g class="xaxislayer-above"><g class="xtick"><text text-anchor="middle" x="0" y="439" transform="translate(101.4,0)" style="font-family: 'Open Sans'; font-size: 18px; fill: rgb(255, 255, 255); fill-opacity: 1; white-space: pre;">2016</text></g><g class="xtick"><text text-anchor="middle" x="0" y="439" style="font-family: 'Open Sans'; font-size: 18px; fill: rgb(255, 255, 255); fill-opacity: 1; white-space: pre;" transform="translate(207.57999999999998,0)">2018</text></g><g class="xtick"><text text-anchor="middle" x="0" y="439" style="font-family: 'Open Sans'; font-size: 18px; fill: rgb(255, 255, 255); fill-opacity: 1; white-space: pre;" transform="translate(313.61,0)">2020</text></g><g class="xtick"><text text-anchor="middle" x="0" y="439" style="font-family: 'Open Sans'; font-size: 18px; fill: rgb(255, 255, 255); fill-opacity: 1; white-space: pre;" transform="translate(419.79,0)">2022</text></g><g class="xtick"><text text-anchor="middle" x="0" y="439" style="font-family: 'Open Sans'; font-size: 18px; fill: rgb(255, 255, 255); fill-opacity: 1; white-space: pre;" transform="translate(525.8199999999999,0)">2024</text></g></g><g class="yaxislayer-above"><g class="ytick"><text text-anchor="end" x="79" y="6.3" transform="translate(0,420)" style="font-family: 'Open Sans'; font-size: 18px; fill: rgb(255, 255, 255); fill-opacity: 1; white-space: pre;">0</text></g><g class="ytick"><text text-anchor="end" x="79" y="6.3" style="font-family: 'Open Sans'; font-size: 18px; fill: rgb(255, 255, 255); fill-opacity: 1; white-space: pre;" transform="translate(0,356.13)">50</text></g><g class="ytick"><text text-anchor="end" x="79" y="6.3" style="font-family: 'Open Sans'; font-size: 18px; fill: rgb(255, 255, 255); fill-opacity: 1; white-space: pre;" transform="translate(0,292.27)">100</text></g><g class="ytick"><text text-anchor="end" x="79" y="6.3" style="font-family: 'Open Sans'; font-size: 18px; fill: rgb(255, 255, 255); fill-opacity: 1; white-space: pre;" transform="translate(0,228.4)">150</text></g><g class="ytick"><text text-anchor="end" x="79" y="6.3" style="font-family: 'Open Sans'; font-size: 18px; fill: rgb(255, 255, 255); fill-opacity: 1; white-space: pre;" transform="translate(0,164.54000000000002)">200</text></g><g class="ytick"><text text-anchor="end" x="79" y="6.3" style="font-family: 'Open Sans'; font-size: 18px; fill: rgb(255, 255, 255); fill-opacity: 1; white-space: pre;" transform="translate(0,100.67)">250</text></g></g><g class="overaxes-above"/></g></g><g class="polarlayer"/><g class="smithlayer"/><g class="ternarylayer"/><g class="geolayer"/><g class="funnelarealayer"/><g class="pielayer"/><g class="iciclelayer"/><g class="treemaplayer"/><g class="sunburstlayer"/><g class="glimages"/><defs id="topdefs-93f1f9"><g class="clips"/></defs><g class="layer-above"><g class="imagelayer"/><g class="shapelayer"/></g><g class="infolayer"><g class="g-gtitle"><text class="gtitle" x="35" y="50" text-anchor="start" dy="0em" style="opacity: 1; font-family: 'Open Sans'; font-size: 25px; fill: rgb(255, 255, 255); fill-opacity: 1; white-space: pre;">MultiQC/MultiQC - Open Issues Over Time</text></g><g class="g-xtitle"><text class="xtitle" x="350" y="472.9" text-anchor="middle" style="opacity: 1; font-family: 'Open Sans'; font-size: 22px; fill: rgb(255, 255, 255); fill-opacity: 1; white-space: pre;">Date</text></g><g class="g-ytitle"><text class="ytitle" transform="rotate(-90,29.799999999999997,260)" x="29.799999999999997" y="260" text-anchor="middle" style="opacity: 1; font-family: 'Open Sans'; font-size: 22px; fill: rgb(255, 255, 255); fill-opacity: 1; white-space: pre;">Number of Open Issues</text></g></g></svg>