<svg class="main-svg" xmlns="http://www.w3.org/2000/svg" xmlns:xlink="http://www.w3.org/1999/xlink" width="700" height="500" style="" viewBox="0 0 700 500"><rect x="0" y="0" width="700" height="500" style="fill: rgb(0, 0, 0); fill-opacity: 0;"/><defs id="defs-63bd4e"><g class="clips"><clipPath id="clip63bd4exyplot" class="plotclip"><rect width="540" height="320"/></clipPath><clipPath class="axesclip" id="clip63bd4ex"><rect x="80" y="0" width="540" height="500"/></clipPath><clipPath class="axesclip" id="clip63bd4ey"><rect x="0" y="100" width="700" height="320"/></clipPath><clipPath class="axesclip" id="clip63bd4exy"><rect x="80" y="100" width="540" height="320"/></clipPath></g><g class="gradients"/><g class="patterns"/></defs><g class="bglayer"><rect class="bg" x="80" y="100" width="540" height="320" style="fill: rgb(0, 0, 0); fill-opacity: 0; stroke-width: 0;"/></g><g class="layer-below"><g class="imagelayer"/><g class="shapelayer"/></g><g class="cartesianlayer"><g class="subplot xy"><g class="layer-subplot"><g class="shapelayer"/><g class="imagelayer"/></g><g class="minor-gridlayer"><g class="x"/><g class="y"/></g><g class="gridlayer"><g class="x"><path class="xgrid crisp" transform="translate(100.74,0)" d="M0,100v320" style="stroke: rgb(255, 255, 255); stroke-opacity: 1; stroke-width: 1px;"/><path class="xgrid crisp" transform="translate(203.67000000000002,0)" d="M0,100v320" style="stroke: rgb(255, 255, 255); stroke-opacity: 1; stroke-width: 1px;"/><path class="xgrid crisp" transform="translate(306.45,0)" d="M0,100v320" style="stroke: rgb(255, 255, 255); stroke-opacity: 1; stroke-width: 1px;"/><path class="xgrid crisp" transform="translate(409.38,0)" d="M0,100v320" style="stroke: rgb(255, 255, 255); stroke-opacity: 1; stroke-width: 1px;"/><path class="xgrid crisp" transform="translate(512.1600000000001,0)" d="M0,100v320" style="stroke: rgb(255, 255, 255); stroke-opacity: 1; stroke-width: 1px;"/><path class="xgrid crisp" transform="translate(615.09,0)" d="M0,100v320" style="stroke: rgb(255, 255, 255); stroke-opacity: 1; stroke-width: 1px;"/></g><g class="y"><path class="ygrid crisp" transform="translate(0,337.16999999999996)" d="M80,0h540" style="stroke: rgb(255, 255, 255); stroke-opacity: 1; stroke-width: 1px;"/><path class="ygrid crisp" transform="translate(0,254.33)" d="M80,0h540" style="stroke: rgb(255, 255, 255); stroke-opacity: 1; stroke-width: 1px;"/><path class="ygrid crisp" transform="translate(0,171.5)" d="M80,0h540" style="stroke: rgb(255, 255, 255); stroke-opacity: 1; stroke-width: 1px;"/></g></g><g class="zerolinelayer"><path class="yzl zl crisp" transform="translate(0,420)" d="M80,0h540" style="stroke: rgb(255, 255, 255); stroke-opacity: 1; stroke-width: 2px;"/></g><g class="layer-between"><g class="shapelayer"/><g class="imagelayer"/></g><path class="xlines-below"/><path class="ylines-below"/><g class="overlines-below"/><g class="xaxislayer-below"/><g class="yaxislayer-below"/><g class="overaxes-below"/><g class="overplot"><g class="xy" transform="translate(80,100)" clip-path="url(#clip63bd4exyplot)"><g class="scatterlayer mlayer"><g class="trace scatter trace8cb243" style="stroke-miterlimit: 2;"><g class="fills"><g><path class="js-fill" d="M540,320L0,320L0,319.83L0,319.5L1.94,319.34L3.78,318.34L4.48,318.18L5.07,317.02L5.45,316.85L6.04,315.86L6.34,315.69L8.44,312.21L8.84,312.05L9.97,311.05L9.97,310.89L10.84,310.06L11.51,309.89L12.52,307.74L12.52,307.57L13.27,306.58L13.51,306.42L13.94,305.26L14.46,305.09L15.61,304.59L16.82,304.43L18.28,303.27L18.41,303.1L23.65,302.11L24.49,301.94L25.62,301.45L26.17,301.28L27.3,299.95L29.15,299.79L32.1,297.97L33.29,297.8L37.18,294.98L37.19,294.82L37.48,294.16L38.11,293.99L40.26,291.84L40.27,291.67L40.94,291.01L41.24,290.84L43.47,288.85L44.74,288.69L47.02,286.54L47.03,286.37L51.32,284.05L52.24,283.88L55.28,282.39L55.29,282.23L57.85,280.74L58,280.57L58.7,279.91L58.86,279.74L59.15,279.41L60.72,279.25L64.06,276.1L64.08,275.93L64.94,275.6L65.6,275.44L65.71,275.1L66.59,274.94L69.74,273.28L70.68,273.12L71.5,271.96L71.89,271.79L77.02,269.97L77.73,269.8L78.91,268.97L79.37,268.81L79.96,268.15L80.57,267.98L80.91,267.15L81.79,266.99L81.97,266.32L83.11,266.16L85.58,264.34L85.63,264.17L96.92,259.2L97.32,259.03L97.39,258.87L99.05,258.7L99.69,258.04L100.09,257.87L100.65,255.56L100.65,255.39L101.38,254.56L101.63,254.4L106.15,251.91L106.26,251.74L108.21,250.75L108.34,250.59L110.29,249.43L110.9,249.26L115.13,248.1L115.18,247.93L119.8,246.28L120.07,246.11L120.79,245.45L121.03,245.28L122.07,244.46L124.06,244.29L125.25,242.96L125.28,242.8L127.6,241.64L127.76,241.47L129.73,240.48L129.78,240.31L130.24,239.82L130.94,239.65L132.6,238.33L132.77,238.16L137.66,236.5L137.69,236.34L139.06,235.18L139.06,235.01L141.63,233.36L141.79,233.19L145.91,231.37L146.56,231.2L146.56,231.04L147.49,230.87L149.42,230.04L150.51,229.88L151.62,228.55L152.5,228.39L152.75,228.05L153.27,227.89L158.23,226.4L158.37,226.23L159.18,225.57L159.35,225.4L171.05,220.6L171.08,220.43L171.57,219.77L173.35,219.61L179.96,217.12L180.22,216.95L183.7,215.63L183.86,215.46L184.43,214.8L185,214.64L185.29,214.3L186.27,214.14L187.01,213.81L187.2,213.64L187.96,212.98L188.09,212.81L188.42,212.15L189.23,211.98L191.2,210.33L192.03,210.16L193.9,208.84L195.06,208.67L195.14,208.51L196.52,208.34L200.92,207.18L201.16,207.01L204.71,205.86L204.74,205.69L206.96,204.7L208.71,204.53L209.93,204.2L210.76,204.03L214.43,202.54L214.7,202.38L220.51,198.57L220.55,198.4L221.3,198.07L221.46,197.9L224.38,195.09L225.4,194.92L227.67,193.93L227.8,193.76L228.39,193.43L230.49,193.26L236.14,191.61L236.21,191.44L237.1,190.94L237.42,190.78L239.08,189.79L239.18,189.62L239.89,188.96L241.05,188.79L242.71,187.63L243.28,187.47L244,186.64L244.42,186.47L245.22,185.48L245.28,185.31L246.35,184.65L247.05,184.48L247.78,183.49L248.04,183.32L251.74,180.67L252.24,180.51L254.87,179.18L254.97,179.02L255.48,178.52L255.93,178.35L259.85,175.37L260.89,175.21L262.86,173.72L263.26,173.55L268.09,170.9L268.11,170.73L270.05,169.41L270.19,169.24L274.96,167.59L278.47,167.42L284.84,165.93L284.85,165.76L288.25,164.27L288.31,164.11L290.59,162.62L291.59,162.45L293.57,161.12L294.72,160.96L297.46,159.47L297.5,159.3L298.24,158.64L299.47,158.47L301.54,156.49L302.57,156.32L303.46,154.83L303.53,154.66L304.21,154.17L304.54,154L307.47,152.18L308.28,152.01L311.25,149.86L312.57,149.69L314.1,148.37L314.25,148.2L318.19,146.55L319.29,146.38L320.07,146.05L320.88,145.88L321.02,145.55L322.12,145.39L322.88,144.56L323.24,144.39L331.02,142.57L331.86,142.4L336.23,139.75L336.3,139.59L339.03,138.93L339.78,138.76L343.01,136.94L344.11,136.77L354.01,131.64L354.93,131.47L361.69,129.15L362.56,128.99L365.37,127.66L365.5,127.49L369.27,125.84L369.65,125.67L372,124.51L372,124.35L372,124.02L373.25,123.85L374.28,123.35L376.09,123.19L376.53,122.69L377.34,122.52L377.35,122.36L378.47,122.19L378.61,122.03L380.15,121.86L385.24,119.71L385.5,119.54L386.18,118.71L386.32,118.55L387.07,117.89L387.39,117.72L391.17,116.23L391.19,116.06L392.12,115.57L392.41,115.4L393,114.74L394.42,114.57L395.19,113.74L396,113.58L402.97,110.93L403.67,110.76L407.92,108.77L407.94,108.61L408.71,108.11L409.85,107.95L411.04,107.28L411.84,107.12L418.85,101.15L418.85,100.99L419.56,99.5L419.83,99.33L423.6,96.18L424.28,96.02L431.57,90.88L433.36,90.72L437.57,88.23L437.6,88.07L438.44,86.41L438.47,86.24L441.54,80.44L442.09,80.28L442.41,79.62L443.26,79.45L444.61,77.96L445.22,77.79L445.85,77.3L446.03,77.13L448.53,75.31L449.05,75.14L450.45,72.33L450.94,72.16L452.84,70.17L453.47,70.01L454.51,68.68L455.06,68.52L456.36,67.03L456.47,66.86L458.29,65.2L458.3,65.04L460.01,64.04L460.72,63.88L464.82,60.56L464.86,60.4L465.3,59.57L465.93,59.4L467.29,56.75L468.01,56.59L469.11,55.1L469.11,54.93L469.86,54.27L469.98,54.1L471.65,52.45L472.24,52.28L474.07,50.79L474.18,50.62L475.3,49.63L475.59,49.46L477.16,48.97L477.58,48.8L478.84,46.65L479.6,46.48L481.93,44.83L483.59,44.66L483.64,44.49L484.47,44.33L488.39,42.18L488.47,42.01L492.51,39.52L492.65,39.36L495.82,38.03L495.95,37.87L501.82,34.89L502.63,34.72L503.38,34.06L503.61,33.89L503.78,33.56L504.49,33.4L506.35,32.24L506.42,32.07L509.41,31.08L509.46,30.91L510.66,29.58L511.06,29.42L511.37,28.92L512.31,28.76L512.44,28.43L513.45,28.26L517.4,26.44L517.56,26.27L519.59,24.95L520.08,24.78L520.56,24.45L521.36,24.28L521.4,24.12L522.89,23.95L524.44,23.12L525.35,22.96L525.45,22.63L526.28,22.46L526.94,22.13L528.43,21.96L530.78,20.8L531.12,20.64L533.34,17.66L533.74,17.49L537.95,16.66L538,16.5L538.16,16.33L539.98,16.17L540,16" style="fill: rgb(255, 127, 14); fill-opacity: 0.5; stroke-width: 0;"/></g></g><g class="errorbars"/><g class="lines"><path class="js-line" d="M0,319.83L0,319.5L1.94,319.34L3.78,318.34L4.48,318.18L5.07,317.02L5.45,316.85L6.04,315.86L6.34,315.69L8.44,312.21L8.84,312.05L9.97,311.05L9.97,310.89L10.84,310.06L11.51,309.89L12.52,307.74L12.52,307.57L13.27,306.58L13.51,306.42L13.94,305.26L14.46,305.09L15.61,304.59L16.82,304.43L18.28,303.27L18.41,303.1L23.65,302.11L24.49,301.94L25.62,301.45L26.17,301.28L27.3,299.95L29.15,299.79L32.1,297.97L33.29,297.8L37.18,294.98L37.19,294.82L37.48,294.16L38.11,293.99L40.26,291.84L40.27,291.67L40.94,291.01L41.24,290.84L43.47,288.85L44.74,288.69L47.02,286.54L47.03,286.37L51.32,284.05L52.24,283.88L55.28,282.39L55.29,282.23L57.85,280.74L58,280.57L58.7,279.91L58.86,279.74L59.15,279.41L60.72,279.25L64.06,276.1L64.08,275.93L64.94,275.6L65.6,275.44L65.71,275.1L66.59,274.94L69.74,273.28L70.68,273.12L71.5,271.96L71.89,271.79L77.02,269.97L77.73,269.8L78.91,268.97L79.37,268.81L79.96,268.15L80.57,267.98L80.91,267.15L81.79,266.99L81.97,266.32L83.11,266.16L85.58,264.34L85.63,264.17L96.92,259.2L97.32,259.03L97.39,258.87L99.05,258.7L99.69,258.04L100.09,257.87L100.65,255.56L100.65,255.39L101.38,254.56L101.63,254.4L106.15,251.91L106.26,251.74L108.21,250.75L108.34,250.59L110.29,249.43L110.9,249.26L115.13,248.1L115.18,247.93L119.8,246.28L120.07,246.11L120.79,245.45L121.03,245.28L122.07,244.46L124.06,244.29L125.25,242.96L125.28,242.8L127.6,241.64L127.76,241.47L129.73,240.48L129.78,240.31L130.24,239.82L130.94,239.65L132.6,238.33L132.77,238.16L137.66,236.5L137.69,236.34L139.06,235.18L139.06,235.01L141.63,233.36L141.79,233.19L145.91,231.37L146.56,231.2L146.56,231.04L147.49,230.87L149.42,230.04L150.51,229.88L151.62,228.55L152.5,228.39L152.75,228.05L153.27,227.89L158.23,226.4L158.37,226.23L159.18,225.57L159.35,225.4L171.05,220.6L171.08,220.43L171.57,219.77L173.35,219.61L179.96,217.12L180.22,216.95L183.7,215.63L183.86,215.46L184.43,214.8L185,214.64L185.29,214.3L186.27,214.14L187.01,213.81L187.2,213.64L187.96,212.98L188.09,212.81L188.42,212.15L189.23,211.98L191.2,210.33L192.03,210.16L193.9,208.84L195.06,208.67L195.14,208.51L196.52,208.34L200.92,207.18L201.16,207.01L204.71,205.86L204.74,205.69L206.96,204.7L208.71,204.53L209.93,204.2L210.76,204.03L214.43,202.54L214.7,202.38L220.51,198.57L220.55,198.4L221.3,198.07L221.46,197.9L224.38,195.09L225.4,194.92L227.67,193.93L227.8,193.76L228.39,193.43L230.49,193.26L236.14,191.61L236.21,191.44L237.1,190.94L237.42,190.78L239.08,189.79L239.18,189.62L239.89,188.96L241.05,188.79L242.71,187.63L243.28,187.47L244,186.64L244.42,186.47L245.22,185.48L245.28,185.31L246.35,184.65L247.05,184.48L247.78,183.49L248.04,183.32L251.74,180.67L252.24,180.51L254.87,179.18L254.97,179.02L255.48,178.52L255.93,178.35L259.85,175.37L260.89,175.21L262.86,173.72L263.26,173.55L268.09,170.9L268.11,170.73L270.05,169.41L270.19,169.24L274.96,167.59L278.47,167.42L284.84,165.93L284.85,165.76L288.25,164.27L288.31,164.11L290.59,162.62L291.59,162.45L293.57,161.12L294.72,160.96L297.46,159.47L297.5,159.3L298.24,158.64L299.47,158.47L301.54,156.49L302.57,156.32L303.46,154.83L303.53,154.66L304.21,154.17L304.54,154L307.47,152.18L308.28,152.01L311.25,149.86L312.57,149.69L314.1,148.37L314.25,148.2L318.19,146.55L319.29,146.38L320.07,146.05L320.88,145.88L321.02,145.55L322.12,145.39L322.88,144.56L323.24,144.39L331.02,142.57L331.86,142.4L336.23,139.75L336.3,139.59L339.03,138.93L339.78,138.76L343.01,136.94L344.11,136.77L354.01,131.64L354.93,131.47L361.69,129.15L362.56,128.99L365.37,127.66L365.5,127.49L369.27,125.84L369.65,125.67L372,124.51L372,124.35L372,124.02L373.25,123.85L374.28,123.35L376.09,123.19L376.53,122.69L377.34,122.52L377.35,122.36L378.47,122.19L378.61,122.03L380.15,121.86L385.24,119.71L385.5,119.54L386.18,118.71L386.32,118.55L387.07,117.89L387.39,117.72L391.17,116.23L391.19,116.06L392.12,115.57L392.41,115.4L393,114.74L394.42,114.57L395.19,113.74L396,113.58L402.97,110.93L403.67,110.76L407.92,108.77L407.94,108.61L408.71,108.11L409.85,107.95L411.04,107.28L411.84,107.12L418.85,101.15L418.85,100.99L419.56,99.5L419.83,99.33L423.6,96.18L424.28,96.02L431.57,90.88L433.36,90.72L437.57,88.23L437.6,88.07L438.44,86.41L438.47,86.24L441.54,80.44L442.09,80.28L442.41,79.62L443.26,79.45L444.61,77.96L445.22,77.79L445.85,77.3L446.03,77.13L448.53,75.31L449.05,75.14L450.45,72.33L450.94,72.16L452.84,70.17L453.47,70.01L454.51,68.68L455.06,68.52L456.36,67.03L456.47,66.86L458.29,65.2L458.3,65.04L460.01,64.04L460.72,63.88L464.82,60.56L464.86,60.4L465.3,59.57L465.93,59.4L467.29,56.75L468.01,56.59L469.11,55.1L469.11,54.93L469.86,54.27L469.98,54.1L471.65,52.45L472.24,52.28L474.07,50.79L474.18,50.62L475.3,49.63L475.59,49.46L477.16,48.97L477.58,48.8L478.84,46.65L479.6,46.48L481.93,44.83L483.59,44.66L483.64,44.49L484.47,44.33L488.39,42.18L488.47,42.01L492.51,39.52L492.65,39.36L495.82,38.03L495.95,37.87L501.82,34.89L502.63,34.72L503.38,34.06L503.61,33.89L503.78,33.56L504.49,33.4L506.35,32.24L506.42,32.07L509.41,31.08L509.46,30.91L510.66,29.58L511.06,29.42L511.37,28.92L512.31,28.76L512.44,28.43L513.45,28.26L517.4,26.44L517.56,26.27L519.59,24.95L520.08,24.78L520.56,24.45L521.36,24.28L521.4,24.12L522.89,23.95L524.44,23.12L525.35,22.96L525.45,22.63L526.28,22.46L526.94,22.13L528.43,21.96L530.78,20.8L531.12,20.64L533.34,17.66L533.74,17.49L537.95,16.66L538,16.5L538.16,16.33L539.98,16.17L540,16" style="vector-effect: none; fill: none; stroke: rgb(255, 127, 14); stroke-opacity: 1; stroke-width: 2px; opacity: 1;"/></g><g class="points"/><g class="text"/></g></g></g></g><g class="zerolinelayer-above"/><path class="xlines-above crisp" d="M0,0" style="fill: none;"/><path class="ylines-above crisp" d="M0,0" style="fill: none;"/><g class="overlines-above"/><g class="xaxislayer-above"><g class="xtick"><text text-anchor="middle" x="0" y="439" transform="translate(100.74,0)" style="font-family: 'Open Sans'; font-size: 18px; fill: rgb(255, 255, 255); fill-opacity: 1; white-space: pre;">2016</text></g><g class="xtick"><text text-anchor="middle" x="0" y="439" style="font-family: 'Open Sans'; font-size: 18px; fill: rgb(255, 255, 255); fill-opacity: 1; white-space: pre;" transform="translate(203.67000000000002,0)">2018</text></g><g class="xtick"><text text-anchor="middle" x="0" y="439" style="font-family: 'Open Sans'; font-size: 18px; fill: rgb(255, 255, 255); fill-opacity: 1; white-space: pre;" transform="translate(306.45,0)">2020</text></g><g class="xtick"><text text-anchor="middle" x="0" y="439" style="font-family: 'Open Sans'; font-size: 18px; fill: rgb(255, 255, 255); fill-opacity: 1; white-space: pre;" transform="translate(409.38,0)">2022</text></g><g class="xtick"><text text-anchor="middle" x="0" y="439" style="font-family: 'Open Sans'; font-size: 18px; fill: rgb(255, 255, 255); fill-opacity: 1; white-space: pre;" transform="translate(512.1600000000001,0)">2024</text></g><g class="xtick"><text text-anchor="middle" x="0" y="439" style="font-family: 'Open Sans'; font-size: 18px; fill: rgb(255, 255, 255); fill-opacity: 1; white-space: pre;" transform="translate(615.09,0)">2026</text></g></g><g class="yaxislayer-above"><g class="ytick"><text text-anchor="end" x="79" y="6.3" transform="translate(0,420)" style="font-family: 'Open Sans'; font-size: 18px; fill: rgb(255, 255, 255); fill-opacity: 1; white-space: pre;">0</text></g><g class="ytick"><text text-anchor="end" x="79" y="6.3" style="font-family: 'Open Sans'; font-size: 18px; fill: rgb(255, 255, 255); fill-opacity: 1; white-space: pre;" transform="translate(0,337.16999999999996)">500</text></g><g class="ytick"><text text-anchor="end" x="79" y="6.3" style="font-family: 'Open Sans'; font-size: 18px; fill: rgb(255, 255, 255); fill-opacity: 1; white-space: pre;" transform="translate(0,254.33)">1000</text></g><g class="ytick"><text text-anchor="end" x="79" y="6.3" style="font-family: 'Open Sans'; font-size: 18px; fill: rgb(255, 255, 255); fill-opacity: 1; white-space: pre;" transform="translate(0,171.5)">1500</text></g></g><g class="overaxes-above"/></g></g><g class="polarlayer"/><g class="smithlayer"/><g class="ternarylayer"/><g class="geolayer"/><g class="funnelarealayer"/><g class="pielayer"/><g class="iciclelayer"/><g class="treemaplayer"/><g class="sunburstlayer"/><g class="glimages"/><defs id="topdefs-63bd4e"><g class="clips"/></defs><g class="layer-above"><g class="imagelayer"/><g class="shapelayer"/></g><g class="infolayer"><g class="g-gtitle"><text class="gtitle" x="35" y="50" text-anchor="start" dy="0em" style="opacity: 1; font-family: 'Open Sans'; font-size: 25px; fill: rgb(255, 255, 255); fill-opacity: 1; white-space: pre;">MultiQC/MultiQC - Issues Created Over Time</text></g><g class="g-xtitle"><text class="xtitle" x="350" y="472.9" text-anchor="middle" style="opacity: 1; font-family: 'Open Sans'; font-size: 22px; fill: rgb(255, 255, 255); fill-opacity: 1; white-space: pre;">Date</text></g><g class="g-ytitle"><text class="ytitle" transform="rotate(-90,20.799999999999997,260)" x="20.799999999999997" y="260" text-anchor="middle" style="opacity: 1; font-family: 'Open Sans'; font-size: 22px; fill: rgb(255, 255, 255); fill-opacity: 1; white-space: pre;">Cumulative Issues Created</text></g></g></svg>