<svg class="main-svg" xmlns="http://www.w3.org/2000/svg" xmlns:xlink="http://www.w3.org/1999/xlink" width="700" height="500" style="" viewBox="0 0 700 500"><rect x="0" y="0" width="700" height="500" style="fill: rgb(0, 0, 0); fill-opacity: 0;"/><defs id="defs-19fded"><g class="clips"><clipPath id="clip19fdedxyplot" class="plotclip"><rect width="540" height="320"/></clipPath><clipPath class="axesclip" id="clip19fdedx"><rect x="80" y="0" width="540" height="500"/></clipPath><clipPath class="axesclip" id="clip19fdedy"><rect x="0" y="100" width="700" height="320"/></clipPath><clipPath class="axesclip" id="clip19fdedxy"><rect x="80" y="100" width="540" height="320"/></clipPath></g><g class="gradients"/><g class="patterns"/></defs><g class="bglayer"><rect class="bg" x="80" y="100" width="540" height="320" style="fill: rgb(0, 0, 0); fill-opacity: 0; stroke-width: 0;"/></g><g class="layer-below"><g class="imagelayer"/><g class="shapelayer"/></g><g class="cartesianlayer"><g class="subplot xy"><g class="layer-subplot"><g class="shapelayer"/><g class="imagelayer"/></g><g class="minor-gridlayer"><g class="x"/><g class="y"/></g><g class="gridlayer"><g class="x"><path class="xgrid crisp" transform="translate(100.31,0)" d="M0,100v320" style="stroke: rgb(255, 255, 255); stroke-opacity: 1; stroke-width: 1px;"/><path class="xgrid crisp" transform="translate(201.07,0)" d="M0,100v320" style="stroke: rgb(255, 255, 255); stroke-opacity: 1; stroke-width: 1px;"/><path class="xgrid crisp" transform="translate(301.69,0)" d="M0,100v320" style="stroke: rgb(255, 255, 255); stroke-opacity: 1; stroke-width: 1px;"/><path class="xgrid crisp" transform="translate(402.45,0)" d="M0,100v320" style="stroke: rgb(255, 255, 255); stroke-opacity: 1; stroke-width: 1px;"/><path class="xgrid crisp" transform="translate(503.08,0)" d="M0,100v320" style="stroke: rgb(255, 255, 255); stroke-opacity: 1; stroke-width: 1px;"/><path class="xgrid crisp" transform="translate(603.84,0)" d="M0,100v320" style="stroke: rgb(255, 255, 255); stroke-opacity: 1; stroke-width: 1px;"/></g><g class="y"><path class="ygrid crisp" transform="translate(0,362.64)" d="M80,0h540" style="stroke: rgb(255, 255, 255); stroke-opacity: 1; stroke-width: 1px;"/><path class="ygrid crisp" transform="translate(0,305.28)" d="M80,0h540" style="stroke: rgb(255, 255, 255); stroke-opacity: 1; stroke-width: 1px;"/><path class="ygrid crisp" transform="translate(0,247.92)" d="M80,0h540" style="stroke: rgb(255, 255, 255); stroke-opacity: 1; stroke-width: 1px;"/><path class="ygrid crisp" transform="translate(0,190.57)" d="M80,0h540" style="stroke: rgb(255, 255, 255); stroke-opacity: 1; stroke-width: 1px;"/><path class="ygrid crisp" transform="translate(0,133.21)" d="M80,0h540" style="stroke: rgb(255, 255, 255); stroke-opacity: 1; stroke-width: 1px;"/></g></g><g class="zerolinelayer"><path class="yzl zl crisp" transform="translate(0,420)" d="M80,0h540" style="stroke: rgb(255, 255, 255); stroke-opacity: 1; stroke-width: 2px;"/></g><g class="layer-between"><g class="shapelayer"/><g class="imagelayer"/></g><path class="xlines-below"/><path class="ylines-below"/><g class="overlines-below"/><g class="xaxislayer-below"/><g class="yaxislayer-below"/><g class="overaxes-below"/><g class="overplot"><g class="xy" transform="translate(80,100)" clip-path="url(#clip19fdedxyplot)"><g class="scatterlayer mlayer"><g class="trace scatter trace68a800" style="stroke-miterlimit: 2;"><g class="fills"><g><path class="js-fill" d="M540,320L0,320L0,318.85L0,316.56L0.55,317.71L1.78,318.85L1.9,317.71L2.89,318.85L3.7,313.12L3.72,314.26L4.39,313.12L4.8,308.53L4.97,309.68L5.33,310.82L5.5,307.38L5.78,311.97L5.92,309.68L6.21,310.82L6.87,300.5L6.99,299.35L7.15,298.2L7.41,301.65L7.42,302.79L7.59,293.62L8.26,292.47L8.64,300.5L8.64,301.65L9.35,309.68L9.36,308.53L9.48,307.38L9.79,302.79L9.79,301.65L10.19,300.5L10.22,302.79L10.22,303.94L11.16,307.38L11.27,306.23L11.42,305.09L12.36,289.03L12.39,291.32L12.4,292.47L12.82,297.06L12.99,294.76L13.22,293.62L13.61,287.88L13.75,291.32L14.15,290.17L14.34,289.03L14.46,291.32L15.14,292.47L15.31,295.91L16.47,294.76L17.06,292.47L17.18,291.32L17.89,286.73L17.9,287.88L18.03,286.73L18.46,287.88L20.93,286.73L20.93,287.88L21.33,284.44L21.33,286.73L22.82,285.58L23.01,286.73L23.15,285.58L23.97,284.44L24.67,282.14L24.78,283.29L25.08,282.14L25.81,290.17L25.87,289.03L25.9,287.88L26.15,285.58L26.59,289.03L26.73,287.88L26.97,289.03L28.11,290.17L29.52,286.73L29.74,287.88L29.77,291.32L29.77,291.32L30.55,290.17L31.01,293.62L31.01,293.62L31.42,292.47L31.61,298.2L32.49,299.35L33.17,297.06L33.17,298.2L33.31,299.35L34.17,295.91L34.29,297.06L34.89,298.2L35.25,297.06L35.25,298.2L35.39,292.47L35.66,293.62L36.34,292.47L36.57,289.03L36.75,295.91L37.24,297.06L37.31,295.91L37.74,299.35L37.8,300.5L38.02,295.91L38.3,297.06L38.59,298.2L39.42,292.47L39.54,295.91L39.88,294.76L40.08,292.47L40.23,295.91L40.37,294.76L40.5,295.91L41.45,290.17L41.48,291.32L42.27,287.88L42.55,286.73L43.31,289.03L43.8,287.88L44.11,291.32L44.55,286.73L44.81,287.88L44.87,285.58L45.18,291.32L45.33,292.47L45.89,295.91L46.03,293.62L46.04,292.47L46.14,295.91L46.44,294.76L46.99,295.91L46.99,299.35L47.28,297.06L47.83,298.2L48.2,297.06L48.2,298.2L48.88,297.06L48.89,298.2L49.07,295.91L49.19,295.91L50,294.76L51.14,292.47L51.68,293.62L51.68,294.76L52.1,291.32L52.25,293.62L52.69,292.47L52.78,291.32L53.08,294.76L53.89,293.62L55.18,289.03L55.68,287.88L56.88,277.55L56.95,279.85L57.04,281L57.04,282.14L57.79,278.7L57.91,277.55L57.92,278.7L59.44,277.55L60.62,270.67L60.73,271.82L61.61,269.52L62.14,268.38L62.83,258.05L62.85,260.35L63.57,259.2L64.21,261.49L64.21,262.64L64.22,268.38L64.52,268.38L65.19,267.23L66.42,263.79L67.15,262.64L67.39,269.52L68.27,268.38L69.34,279.85L69.48,278.7L70,277.55L70,276.41L70.38,276.41L70.82,277.55L71.88,274.11L71.88,275.26L72.3,274.11L72.33,272.97L72.38,274.11L73.21,272.97L73.97,271.82L74.47,270.67L77.7,261.49L77.7,262.64L78.14,266.08L78.27,262.64L78.67,263.79L78.95,264.94L79.01,261.49L79.21,263.79L79.92,264.94L80.24,259.2L80.25,260.35L81.36,259.2L81.56,260.35L81.75,259.2L81.98,258.05L82.01,256.91L82.7,260.35L82.83,259.2L82.96,260.35L83.52,256.91L83.53,258.05L83.66,259.2L84.06,263.79L84.46,262.64L84.79,261.49L84.79,259.2L84.9,262.64L85.84,261.49L85.87,260.35L86.52,262.64L86.69,261.49L87.47,263.79L87.79,262.64L88.35,263.79L88.44,264.94L88.75,269.52L89.27,268.38L89.57,276.41L89.85,274.11L90.31,272.97L91.34,269.52L91.47,270.67L91.47,271.82L93.28,264.94L93.3,266.08L95.34,259.2L95.48,260.35L95.48,261.49L96.35,263.79L96.45,264.94L97.29,275.26L97.59,274.11L97.99,276.41L97.99,275.26L98.08,274.11L98.12,276.41L98.53,264.94L98.54,264.94L98.94,263.79L99.25,261.49L99.51,267.23L99.89,266.08L100.87,263.79L100.87,264.94L100.87,266.08L100.99,268.38L101.42,267.23L101.9,266.08L102.24,269.52L102.37,267.23L102.76,266.08L102.78,267.23L103.33,264.94L103.35,266.08L103.92,264.94L104.03,263.79L104.03,264.94L104.7,266.08L104.7,267.23L105.29,266.08L105.84,264.94L106.07,261.49L106.24,261.49L106.65,260.35L107.98,254.61L108.01,255.76L108.09,256.91L110.1,253.46L110.65,254.61L112.02,251.17L112.47,252.32L112.76,251.17L113.58,278.7L113.68,277.55L114.28,275.26L114.55,276.41L114.95,275.26L114.95,276.41L115.91,275.26L116.3,276.41L116.6,275.26L116.61,274.11L117.28,272.97L117.52,274.11L117.53,276.41L117.75,271.82L118.25,270.67L118.26,271.82L118.67,269.52L118.72,269.52L119.27,268.38L119.27,267.23L119.75,272.97L121.45,271.82L121.66,272.97L121.71,271.82L122.22,270.67L122.65,266.08L123.42,264.94L125.07,260.35L125.44,261.49L125.9,259.2L125.97,260.35L125.97,261.49L126.12,267.23L126.48,264.94L127,263.79L127.5,261.49L127.74,262.64L127.74,263.79L128.33,267.23L129.02,266.08L129.98,261.49L130.35,262.64L131.02,261.49L132.06,260.35L133.18,256.91L133.96,258.05L134.69,256.91L134.76,258.05L134.76,256.91L135.26,256.91L135.61,255.76L135.62,258.05L136.14,253.46L136.14,253.46L136.57,252.32L136.58,250.02L137.13,251.17L137.47,250.02L137.96,247.73L138,246.58L138.07,245.43L138.12,248.88L138.65,247.73L138.67,248.88L139.07,246.58L139.69,247.73L140.08,244.29L140.32,254.61L140.87,253.46L141.59,251.17L141.67,252.32L141.67,251.17L141.7,253.46L142.84,252.32L143.48,251.17L143.59,253.46L144.39,252.32L144.41,253.46L145.04,250.02L145.1,251.17L145.65,252.32L147.34,250.02L147.35,251.17L148.43,245.43L149.29,244.29L150.05,241.99L150.05,243.14L150.05,244.29L150.7,246.58L150.7,247.73L151.06,246.58L152.22,245.43L152.55,246.58L152.99,245.43L153.14,244.29L153.14,245.43L153.36,243.14L154.38,241.99L155.26,238.55L155.55,237.4L157.82,228.23L157.82,229.37L159.32,225.93L159.33,227.08L159.76,228.23L159.77,230.52L160.19,229.37L160.83,228.23L161.22,225.93L161.24,224.78L161.45,232.82L162.69,231.67L162.93,229.37L164.01,228.23L164.72,232.82L165.06,231.67L167.89,222.49L167.96,221.34L168,222.49L169.7,221.34L169.94,225.93L169.95,227.08L169.96,230.52L170.36,228.23L172.27,227.08L172.29,229.37L172.44,228.23L173.17,227.08L173.67,222.49L173.68,223.64L174.19,224.78L174.54,225.93L175.42,221.34L175.48,222.49L175.61,223.64L176.43,222.49L176.44,223.64L177.4,222.49L177.71,221.34L178.95,220.2L179.57,217.9L179.61,216.75L180.13,214.46L180.14,215.61L180.55,214.46L180.58,216.75L181.22,215.61L181.4,214.46L182.07,215.61L182.36,214.46L182.36,213.31L183.08,213.31L183.26,212.17L184,209.87L184.14,208.72L184.31,209.87L184.46,207.58L184.47,208.72L185.25,207.58L186.59,199.55L186.6,201.84L186.86,200.69L187.18,198.4L187.49,199.55L188,198.4L188.19,196.11L188.64,198.4L188.91,197.25L189.27,194.96L189.82,193.81L190.96,192.66L190.96,193.81L191.04,192.66L191.07,193.81L192.39,192.66L193.11,193.81L193.82,192.66L194.04,191.52L194.04,192.66L195.86,191.52L196.54,190.37L196.55,191.52L196.56,192.66L196.93,191.52L197.75,192.66L197.75,193.81L198.43,193.81L198.6,192.66L199.55,190.37L200.26,189.22L200.89,185.78L201.25,186.93L202.61,182.34L202.93,183.49L204.32,182.34L205.52,180.05L205.63,181.19L208.09,176.6L208.38,177.75L208.74,174.31L209.46,173.16L209.88,175.46L209.92,174.31L210.19,173.16L210.92,170.87L211.12,172.02L211.16,173.16L211.18,176.6L211.9,173.16L211.95,174.31L212.32,172.02L212.4,177.75L212.4,178.9L213.56,175.46L213.68,176.6L213.75,177.75L214.21,174.31L214.34,176.6L214.37,177.75L215.02,181.19L215.02,182.34L215.31,197.25L215.8,196.11L216.65,202.99L216.8,201.84L216.81,202.99L217.22,198.4L217.38,200.69L217.65,201.84L219.15,192.66L219.5,191.52L219.66,188.08L219.76,192.66L220.66,191.52L222.62,189.22L222.65,188.08L223.22,182.34L223.59,181.19L224.02,182.34L225.64,181.19L226.77,178.9L226.84,177.75L227.68,176.6L228.08,177.75L228.8,175.46L230.61,174.31L231.18,172.02L231.25,170.87L232.12,167.43L232.24,168.57L232.42,167.43L233.55,166.28L233.86,162.84L233.88,169.72L233.88,170.87L233.88,172.02L234.42,167.43L234.84,166.28L235.04,167.43L235.98,166.28L236.13,167.43L236.36,166.28L236.94,167.43L237.01,166.28L237.19,170.87L237.61,168.57L237.87,169.72L238.17,168.57L238.19,170.87L238.29,170.87L238.3,172.02L239.72,167.43L239.72,168.57L239.84,169.72L240.06,166.28L240.12,165.13L240.25,170.87L240.61,169.72L240.92,168.57L241.78,173.16L241.86,172.02L241.87,170.87L242.42,199.55L242.57,198.4L242.69,199.55L243.12,200.69L243.66,199.55L244.67,194.96L244.75,196.11L246.03,188.08L246.17,189.22L246.44,188.08L247.65,184.63L247.66,185.78L247.8,186.93L248.37,183.49L248.67,182.34L248.87,181.19L249.49,182.34L250.1,176.6L250.55,175.46L251.02,170.87L251.04,172.02L251.56,173.16L252.36,168.57L252.53,167.43L254.19,159.4L254.38,158.25L255.55,155.95L255.69,154.81L255.83,152.51L256.48,151.37L257.33,147.92L257.72,146.78L259.3,142.19L259.52,141.04L260.53,138.75L260.55,137.6L261.98,135.31L262.1,134.16L262.11,135.31L262.47,131.86L263,130.72L263.56,124.98L263.93,123.83L265.03,120.39L265.24,121.54L265.24,122.69L265.25,123.83L266.15,122.69L266.15,123.83L266.85,120.39L267.47,119.25L267.75,120.39L268.89,119.25L269.18,115.8L271.56,116.95L271.72,143.34L272.61,142.19L273.77,143.34L273.92,142.19L273.92,141.04L274,144.48L274.17,142.19L274.76,143.34L277.6,142.19L278.31,141.04L278.85,137.6L278.86,136.45L278.98,138.75L279.61,136.45L279.65,137.6L280.57,136.45L280.81,137.6L281.33,142.19L281.5,139.89L281.72,141.04L281.72,142.19L282.02,139.89L282.47,139.89L282.7,138.75L283.44,136.45L283.53,135.31L283.9,133.01L284.25,134.16L284.26,135.31L284.54,146.78L285.46,145.63L285.63,146.78L286.13,144.48L286.14,145.63L286.14,146.78L287.12,144.48L287.29,145.63L287.4,143.34L287.83,144.48L288.2,145.63L288.65,146.78L289.16,145.63L290.58,141.04L290.89,139.89L291.2,142.19L291.35,137.6L291.52,137.6L291.91,138.75L291.97,137.6L292.06,138.75L293.17,137.6L293.19,138.75L293.72,136.45L294.06,135.31L294.37,130.72L294.64,131.86L295.01,133.01L295.02,137.6L295.2,135.31L296.21,134.16L296.92,144.48L296.92,143.34L297.02,142.19L297.05,141.04L297.35,151.37L297.5,151.37L297.59,152.51L297.64,160.54L298.32,158.25L298.67,159.4L299.36,154.81L299.52,155.95L300.18,153.66L300.7,152.51L300.73,153.66L301,150.22L301.8,149.07L302.03,150.22L302.03,149.07L302.64,147.92L302.95,151.37L303.06,147.92L303.51,146.78L303.89,143.34L304.51,142.19L304.71,141.04L306,139.89L306.66,136.45L306.71,135.31L307.9,128.42L308.86,127.28L311.5,119.25L312.58,118.1L313.34,115.8L314.14,114.66L314.27,112.36L315,113.51L315.35,130.72L315.54,129.57L315.81,130.72L316.09,129.57L316.11,131.86L316.44,130.72L317.06,131.86L317.56,130.72L318.28,131.86L319.38,128.42L320.31,127.28L321.56,126.13L321.89,127.28L321.94,128.42L322.93,127.28L323.43,124.98L323.88,126.13L324.05,124.98L324.48,126.13L324.5,127.28L324.5,128.42L325.16,126.13L325.82,127.28L326.79,159.4L327.07,158.25L327.22,154.81L327.66,159.4L327.82,160.54L329.22,150.22L329.56,149.07L329.68,151.37L330.14,150.22L330.56,149.07L331.52,151.37L331.9,150.22L332.86,149.07L332.87,150.22L333.46,149.07L333.68,147.92L334.79,145.63L335.34,146.78L335.79,142.19L336.88,141.04L337.14,139.89L338.21,138.75L339.77,134.16L339.77,135.31L339.8,136.45L340.73,131.86L341.25,133.01L342.07,128.42L342.08,129.57L342.56,128.42L342.6,129.57L343.21,126.13L343.26,124.98L343.32,123.83L344.59,122.69L345.42,120.39L345.45,119.25L346.25,116.95L346.57,115.8L347.48,120.39L347.86,119.25L348.03,118.1L349.51,115.8L349.72,116.95L350.79,114.66L351.33,113.51L352.85,108.92L353.44,107.77L353.8,106.63L354.01,107.77L354.07,108.92L354.08,107.77L354.94,106.63L356.03,104.33L356.14,103.18L357.1,102.04L357.11,103.18L357.13,104.33L357.18,119.25L357.81,115.8L358.06,116.95L358.67,114.66L358.9,113.51L359.63,114.66L360.52,113.51L361.13,110.07L361.23,111.22L361.51,110.07L362.75,107.77L363.57,106.63L364.18,104.33L364.18,103.18L364.18,97.45L365.41,96.3L366.41,92.86L367.87,94.01L367.87,96.3L368.27,92.86L368.62,92.86L369.1,94.01L369.42,91.71L369.66,92.86L370.51,91.71L370.65,90.57L370.65,91.71L371.93,92.86L372.55,91.71L372.61,92.86L372.77,94.01L372.77,95.15L373.37,95.15L373.67,96.3L373.86,108.92L374.82,110.07L375.8,107.77L376.31,106.63L376.43,104.33L376.47,107.77L376.88,108.92L378.06,100.89L378.08,102.04L378.09,106.63L378.39,104.33L378.93,103.18L380.2,99.74L381.29,98.6L381.98,95.15L382.67,94.01L383.03,90.57L383.49,92.86L383.74,91.71L384.73,85.98L384.74,87.12L386.12,85.98L386.88,80.24L386.89,82.54L387.68,81.39L388,82.54L388.04,81.39L388.53,80.24L389.07,77.95L389.7,79.09L390.62,75.65L391.24,74.51L391.83,72.21L392.05,73.36L392.18,74.51L392.49,75.65L392.69,74.51L393.83,75.65L396.14,67.62L396.42,66.48L397.37,65.33L398.08,66.48L399.14,63.03L399.22,61.89L399.28,63.03L399.44,58.45L400.04,59.59L400.12,57.3L401.23,56.15L401.39,53.86L401.57,56.15L401.82,57.3L402.2,56.15L402.36,57.3L402.39,58.45L402.66,60.74L403.18,59.59L404.18,52.71L404.23,56.15L404.86,55L404.94,53.86L405.15,56.15L405.37,56.15L405.53,57.3L406.3,52.71L406.61,53.86L406.62,55L406.75,57.3L407.23,52.71L407.55,51.56L408.11,49.27L408.12,50.42L408.18,51.56L408.72,46.97L408.81,49.27L409.07,50.42L409.23,48.12L409.37,61.89L409.37,63.03L409.75,65.33L410.04,63.03L410.04,61.89L410.04,55L410.71,63.03L410.74,59.59L410.86,60.74L412.49,52.71L412.55,53.86L412.68,65.33L413.35,59.59L413.38,60.74L413.39,61.89L413.77,59.59L413.9,59.59L414.46,58.45L415.09,61.89L415.36,60.74L415.58,59.59L415.72,61.89L415.8,60.74L416.36,59.59L416.98,68.77L417.01,67.62L417.37,66.48L417.45,65.33L417.76,68.77L418.02,67.62L418.35,66.48L418.75,63.03L418.93,65.33L419.45,64.18L419.85,60.74L420.24,63.03L420.24,64.18L421.07,80.24L421.35,79.09L421.51,77.95L422.5,75.65L422.5,76.8L422.63,79.09L423.59,80.24L424.65,77.95L424.69,76.8L424.84,77.95L425.21,76.8L425.66,75.65L426.1,73.36L426.22,76.8L426.35,75.65L426.58,74.51L427.21,72.21L427.55,73.36L428.15,79.09L428.37,76.8L428.4,75.65L428.84,79.09L429.08,79.09L429.22,77.95L429.6,69.92L429.96,76.8L430.06,75.65L430.33,72.21L430.44,79.09L430.45,80.24L431.02,72.21L431.14,74.51L431.27,73.36L431.61,69.92L432.01,72.21L432.07,71.06L432.25,69.92L432.39,73.36L432.39,74.51L432.7,95.15L433.11,90.57L433.2,91.71L433.21,92.86L433.94,91.71L434.01,90.57L434.17,89.42L434.22,98.6L434.36,96.3L434.46,97.45L435.26,95.15L435.85,94.01L436.65,89.42L436.81,88.27L437.37,83.68L437.64,87.12L437.65,88.27L437.8,85.98L438.07,90.57L438.16,91.71L438.98,90.57L439.1,89.42L439.6,91.71L439.68,88.27L439.72,87.12L439.72,88.27L440.24,82.54L440.53,81.39L440.55,80.24L440.63,83.68L440.98,81.39L441.45,80.24L441.47,81.39L442.03,72.21L442.07,74.51L442.84,73.36L443.32,69.92L443.86,71.06L443.99,68.77L444.26,74.51L444.62,73.36L444.65,72.21L444.95,71.06L445.21,73.36L445.49,72.21L445.67,74.51L446.02,72.21L446.35,73.36L446.87,67.62L447.21,69.92L447.26,71.06L447.39,69.92L447.42,73.36L447.84,71.06L448.26,69.92L448.27,68.77L448.8,79.09L448.96,75.65L449.21,76.8L449.21,75.65L449.49,79.09L449.59,77.95L450.16,79.09L450.34,77.95L450.59,80.24L451.03,79.09L451.56,77.95L451.6,79.09L451.67,80.24L452.24,82.54L452.25,81.39L452.38,80.24L452.52,76.8L453.06,80.24L453.4,79.09L453.64,75.65L454.02,79.09L454.05,80.24L454.35,79.09L455.16,97.45L455.43,96.3L457.08,82.54L457.17,83.68L457.25,81.39L457.35,91.71L457.63,91.71L458.17,90.57L458.83,99.74L458.97,97.45L459.04,96.3L459.11,97.45L459.37,91.71L459.96,92.86L460.2,89.42L460.23,94.01L460.38,92.86L460.84,94.01L461.11,95.15L461.73,90.57L462.02,91.71L462.04,95.15L462.7,92.86L462.83,94.01L463.27,91.71L463.96,90.57L464.21,85.98L464.51,90.57L464.81,89.42L465.89,80.24L466.64,81.39L467.14,92.86L467.54,91.71L467.63,94.01L467.97,87.12L468.13,88.27L468.38,87.12L468.84,94.01L469.51,92.86L469.7,91.71L470.02,94.01L470.02,95.15L470.65,92.86L470.89,105.48L470.98,104.33L470.98,102.04L471.52,108.92L471.8,107.77L472,108.92L473.42,107.77L473.99,108.92L474.28,107.77L474.72,108.92L474.74,107.77L475.27,106.63L475.27,105.48L475.52,108.92L475.6,107.77L476.2,106.63L476.42,107.77L476.74,106.63L477.12,105.48L477.19,103.18L477.33,106.63L477.61,105.48L478.12,104.33L478.2,103.18L478.61,107.77L478.62,108.92L479.68,105.48L480.06,106.63L480.3,104.33L480.6,106.63L480.61,107.77L481.18,108.92L481.35,107.77L481.37,106.63L482.12,100.89L482.15,104.33L482.15,105.48L482.29,103.18L483.12,104.33L483.12,103.18L483.39,103.18L484.52,102.04L485.05,98.6L485.29,100.89L485.38,99.74L486.01,95.15L486.19,94.01L486.83,96.3L486.86,94.01L487,92.86L487.8,91.71L488.35,92.86L488.37,95.15L488.89,95.15L489.18,94.01L489.18,92.86L489.87,95.15L490.06,94.01L490.15,92.86L491.03,91.71L491.64,92.86L492.06,91.71L492.79,87.12L493.02,85.98L493.04,87.12L493.18,85.98L493.88,84.83L494.14,87.12L494.58,85.98L494.68,87.12L495.09,82.54L495.24,84.83L495.51,85.98L495.77,82.54L497.5,83.68L497.82,80.24L498.43,81.39L498.68,92.86L499.24,91.71L499.36,92.86L499.49,90.57L499.92,91.71L500.31,90.57L500.62,87.12L501.54,85.98L501.66,83.68L502.66,82.54L503.3,80.24L503.4,79.09L503.52,76.8L504.91,77.95L505.32,95.15L505.6,92.86L505.67,91.71L505.73,94.01L506.45,92.86L507.36,89.42L507.37,90.57L508.07,96.3L508.11,95.15L508.53,94.01L509.15,89.42L509.18,90.57L509.61,89.42L512.02,84.83L512.34,83.68L513.41,80.24L514.3,79.09L514.4,76.8L514.59,77.95L515.22,76.8L515.86,74.51L517.31,73.36L518.83,69.92L518.96,68.77L520.17,63.03L520.18,64.18L520.21,63.03L520.25,66.48L520.81,64.18L521.02,63.03L521.83,55L521.97,53.86L522.52,50.42L525.41,49.27L526.84,42.38L528.63,41.24L528.65,40.09L529.58,38.94L529.59,40.09L530.09,36.65L530.39,35.5L530.73,33.21L532.58,32.06L534.38,29.77L534.55,28.62L535.48,26.32L535.54,25.18L535.66,26.32L536.22,25.18L536.44,24.03L539.12,18.29L539.32,17.15L540,16" style="fill: rgb(255, 127, 14); fill-opacity: 0.5; stroke-width: 0;"/></g></g><g class="errorbars"/><g class="lines"><path class="js-line" d="M0,318.85L0,316.56L0.55,317.71L1.78,318.85L1.9,317.71L2.89,318.85L3.7,313.12L3.72,314.26L4.39,313.12L4.8,308.53L4.97,309.68L5.33,310.82L5.5,307.38L5.78,311.97L5.92,309.68L6.21,310.82L6.87,300.5L6.99,299.35L7.15,298.2L7.41,301.65L7.42,302.79L7.59,293.62L8.26,292.47L8.64,300.5L8.64,301.65L9.35,309.68L9.36,308.53L9.48,307.38L9.79,302.79L9.79,301.65L10.19,300.5L10.22,302.79L10.22,303.94L11.16,307.38L11.27,306.23L11.42,305.09L12.36,289.03L12.39,291.32L12.4,292.47L12.82,297.06L12.99,294.76L13.22,293.62L13.61,287.88L13.75,291.32L14.15,290.17L14.34,289.03L14.46,291.32L15.14,292.47L15.31,295.91L16.47,294.76L17.06,292.47L17.18,291.32L17.89,286.73L17.9,287.88L18.03,286.73L18.46,287.88L20.93,286.73L20.93,287.88L21.33,284.44L21.33,286.73L22.82,285.58L23.01,286.73L23.15,285.58L23.97,284.44L24.67,282.14L24.78,283.29L25.08,282.14L25.81,290.17L25.87,289.03L25.9,287.88L26.15,285.58L26.59,289.03L26.73,287.88L26.97,289.03L28.11,290.17L29.52,286.73L29.74,287.88L29.77,291.32L29.77,291.32L30.55,290.17L31.01,293.62L31.01,293.62L31.42,292.47L31.61,298.2L32.49,299.35L33.17,297.06L33.17,298.2L33.31,299.35L34.17,295.91L34.29,297.06L34.89,298.2L35.25,297.06L35.25,298.2L35.39,292.47L35.66,293.62L36.34,292.47L36.57,289.03L36.75,295.91L37.24,297.06L37.31,295.91L37.74,299.35L37.8,300.5L38.02,295.91L38.3,297.06L38.59,298.2L39.42,292.47L39.54,295.91L39.88,294.76L40.08,292.47L40.23,295.91L40.37,294.76L40.5,295.91L41.45,290.17L41.48,291.32L42.27,287.88L42.55,286.73L43.31,289.03L43.8,287.88L44.11,291.32L44.55,286.73L44.81,287.88L44.87,285.58L45.18,291.32L45.33,292.47L45.89,295.91L46.03,293.62L46.04,292.47L46.14,295.91L46.44,294.76L46.99,295.91L46.99,299.35L47.28,297.06L47.83,298.2L48.2,297.06L48.2,298.2L48.88,297.06L48.89,298.2L49.07,295.91L49.19,295.91L50,294.76L51.14,292.47L51.68,293.62L51.68,294.76L52.1,291.32L52.25,293.62L52.69,292.47L52.78,291.32L53.08,294.76L53.89,293.62L55.18,289.03L55.68,287.88L56.88,277.55L56.95,279.85L57.04,281L57.04,282.14L57.79,278.7L57.91,277.55L57.92,278.7L59.44,277.55L60.62,270.67L60.73,271.82L61.61,269.52L62.14,268.38L62.83,258.05L62.85,260.35L63.57,259.2L64.21,261.49L64.21,262.64L64.22,268.38L64.52,268.38L65.19,267.23L66.42,263.79L67.15,262.64L67.39,269.52L68.27,268.38L69.34,279.85L69.48,278.7L70,277.55L70,276.41L70.38,276.41L70.82,277.55L71.88,274.11L71.88,275.26L72.3,274.11L72.33,272.97L72.38,274.11L73.21,272.97L73.97,271.82L74.47,270.67L77.7,261.49L77.7,262.64L78.14,266.08L78.27,262.64L78.67,263.79L78.95,264.94L79.01,261.49L79.21,263.79L79.92,264.94L80.24,259.2L80.25,260.35L81.36,259.2L81.56,260.35L81.75,259.2L81.98,258.05L82.01,256.91L82.7,260.35L82.83,259.2L82.96,260.35L83.52,256.91L83.53,258.05L83.66,259.2L84.06,263.79L84.46,262.64L84.79,261.49L84.79,259.2L84.9,262.64L85.84,261.49L85.87,260.35L86.52,262.64L86.69,261.49L87.47,263.79L87.79,262.64L88.35,263.79L88.44,264.94L88.75,269.52L89.27,268.38L89.57,276.41L89.85,274.11L90.31,272.97L91.34,269.52L91.47,270.67L91.47,271.82L93.28,264.94L93.3,266.08L95.34,259.2L95.48,260.35L95.48,261.49L96.35,263.79L96.45,264.94L97.29,275.26L97.59,274.11L97.99,276.41L97.99,275.26L98.08,274.11L98.12,276.41L98.53,264.94L98.54,264.94L98.94,263.79L99.25,261.49L99.51,267.23L99.89,266.08L100.87,263.79L100.87,264.94L100.87,266.08L100.99,268.38L101.42,267.23L101.9,266.08L102.24,269.52L102.37,267.23L102.76,266.08L102.78,267.23L103.33,264.94L103.35,266.08L103.92,264.94L104.03,263.79L104.03,264.94L104.7,266.08L104.7,267.23L105.29,266.08L105.84,264.94L106.07,261.49L106.24,261.49L106.65,260.35L107.98,254.61L108.01,255.76L108.09,256.91L110.1,253.46L110.65,254.61L112.02,251.17L112.47,252.32L112.76,251.17L113.58,278.7L113.68,277.55L114.28,275.26L114.55,276.41L114.95,275.26L114.95,276.41L115.91,275.26L116.3,276.41L116.6,275.26L116.61,274.11L117.28,272.97L117.52,274.11L117.53,276.41L117.75,271.82L118.25,270.67L118.26,271.82L118.67,269.52L118.72,269.52L119.27,268.38L119.27,267.23L119.75,272.97L121.45,271.82L121.66,272.97L121.71,271.82L122.22,270.67L122.65,266.08L123.42,264.94L125.07,260.35L125.44,261.49L125.9,259.2L125.97,260.35L125.97,261.49L126.12,267.23L126.48,264.94L127,263.79L127.5,261.49L127.74,262.64L127.74,263.79L128.33,267.23L129.02,266.08L129.98,261.49L130.35,262.64L131.02,261.49L132.06,260.35L133.18,256.91L133.96,258.05L134.69,256.91L134.76,258.05L134.76,256.91L135.26,256.91L135.61,255.76L135.62,258.05L136.14,253.46L136.14,253.46L136.57,252.32L136.58,250.02L137.13,251.17L137.47,250.02L137.96,247.73L138,246.58L138.07,245.43L138.12,248.88L138.65,247.73L138.67,248.88L139.07,246.58L139.69,247.73L140.08,244.29L140.32,254.61L140.87,253.46L141.59,251.17L141.67,252.32L141.67,251.17L141.7,253.46L142.84,252.32L143.48,251.17L143.59,253.46L144.39,252.32L144.41,253.46L145.04,250.02L145.1,251.17L145.65,252.32L147.34,250.02L147.35,251.17L148.43,245.43L149.29,244.29L150.05,241.99L150.05,243.14L150.05,244.29L150.7,246.58L150.7,247.73L151.06,246.58L152.22,245.43L152.55,246.58L152.99,245.43L153.14,244.29L153.14,245.43L153.36,243.14L154.38,241.99L155.26,238.55L155.55,237.4L157.82,228.23L157.82,229.37L159.32,225.93L159.33,227.08L159.76,228.23L159.77,230.52L160.19,229.37L160.83,228.23L161.22,225.93L161.24,224.78L161.45,232.82L162.69,231.67L162.93,229.37L164.01,228.23L164.72,232.82L165.06,231.67L167.89,222.49L167.96,221.34L168,222.49L169.7,221.34L169.94,225.93L169.95,227.08L169.96,230.52L170.36,228.23L172.27,227.08L172.29,229.37L172.44,228.23L173.17,227.08L173.67,222.49L173.68,223.64L174.19,224.78L174.54,225.93L175.42,221.34L175.48,222.49L175.61,223.64L176.43,222.49L176.44,223.64L177.4,222.49L177.71,221.34L178.95,220.2L179.57,217.9L179.61,216.75L180.13,214.46L180.14,215.61L180.55,214.46L180.58,216.75L181.22,215.61L181.4,214.46L182.07,215.61L182.36,214.46L182.36,213.31L183.08,213.31L183.26,212.17L184,209.87L184.14,208.72L184.31,209.87L184.46,207.58L184.47,208.72L185.25,207.58L186.59,199.55L186.6,201.84L186.86,200.69L187.18,198.4L187.49,199.55L188,198.4L188.19,196.11L188.64,198.4L188.91,197.25L189.27,194.96L189.82,193.81L190.96,192.66L190.96,193.81L191.04,192.66L191.07,193.81L192.39,192.66L193.11,193.81L193.82,192.66L194.04,191.52L194.04,192.66L195.86,191.52L196.54,190.37L196.55,191.52L196.56,192.66L196.93,191.52L197.75,192.66L197.75,193.81L198.43,193.81L198.6,192.66L199.55,190.37L200.26,189.22L200.89,185.78L201.25,186.93L202.61,182.34L202.93,183.49L204.32,182.34L205.52,180.05L205.63,181.19L208.09,176.6L208.38,177.75L208.74,174.31L209.46,173.16L209.88,175.46L209.92,174.31L210.19,173.16L210.92,170.87L211.12,172.02L211.16,173.16L211.18,176.6L211.9,173.16L211.95,174.31L212.32,172.02L212.4,177.75L212.4,178.9L213.56,175.46L213.68,176.6L213.75,177.75L214.21,174.31L214.34,176.6L214.37,177.75L215.02,181.19L215.02,182.34L215.31,197.25L215.8,196.11L216.65,202.99L216.8,201.84L216.81,202.99L217.22,198.4L217.38,200.69L217.65,201.84L219.15,192.66L219.5,191.52L219.66,188.08L219.76,192.66L220.66,191.52L222.62,189.22L222.65,188.08L223.22,182.34L223.59,181.19L224.02,182.34L225.64,181.19L226.77,178.9L226.84,177.75L227.68,176.6L228.08,177.75L228.8,175.46L230.61,174.31L231.18,172.02L231.25,170.87L232.12,167.43L232.24,168.57L232.42,167.43L233.55,166.28L233.86,162.84L233.88,169.72L233.88,170.87L233.88,172.02L234.42,167.43L234.84,166.28L235.04,167.43L235.98,166.28L236.13,167.43L236.36,166.28L236.94,167.43L237.01,166.28L237.19,170.87L237.61,168.57L237.87,169.72L238.17,168.57L238.19,170.87L238.29,170.87L238.3,172.02L239.72,167.43L239.72,168.57L239.84,169.72L240.06,166.28L240.12,165.13L240.25,170.87L240.61,169.72L240.92,168.57L241.78,173.16L241.86,172.02L241.87,170.87L242.42,199.55L242.57,198.4L242.69,199.55L243.12,200.69L243.66,199.55L244.67,194.96L244.75,196.11L246.03,188.08L246.17,189.22L246.44,188.08L247.65,184.63L247.66,185.78L247.8,186.93L248.37,183.49L248.67,182.34L248.87,181.19L249.49,182.34L250.1,176.6L250.55,175.46L251.02,170.87L251.04,172.02L251.56,173.16L252.36,168.57L252.53,167.43L254.19,159.4L254.38,158.25L255.55,155.95L255.69,154.81L255.83,152.51L256.48,151.37L257.33,147.92L257.72,146.78L259.3,142.19L259.52,141.04L260.53,138.75L260.55,137.6L261.98,135.31L262.1,134.16L262.11,135.31L262.47,131.86L263,130.72L263.56,124.98L263.93,123.83L265.03,120.39L265.24,121.54L265.24,122.69L265.25,123.83L266.15,122.69L266.15,123.83L266.85,120.39L267.47,119.25L267.75,120.39L268.89,119.25L269.18,115.8L271.56,116.95L271.72,143.34L272.61,142.19L273.77,143.34L273.92,142.19L273.92,141.04L274,144.48L274.17,142.19L274.76,143.34L277.6,142.19L278.31,141.04L278.85,137.6L278.86,136.45L278.98,138.75L279.61,136.45L279.65,137.6L280.57,136.45L280.81,137.6L281.33,142.19L281.5,139.89L281.72,141.04L281.72,142.19L282.02,139.89L282.47,139.89L282.7,138.75L283.44,136.45L283.53,135.31L283.9,133.01L284.25,134.16L284.26,135.31L284.54,146.78L285.46,145.63L285.63,146.78L286.13,144.48L286.14,145.63L286.14,146.78L287.12,144.48L287.29,145.63L287.4,143.34L287.83,144.48L288.2,145.63L288.65,146.78L289.16,145.63L290.58,141.04L290.89,139.89L291.2,142.19L291.35,137.6L291.52,137.6L291.91,138.75L291.97,137.6L292.06,138.75L293.17,137.6L293.19,138.75L293.72,136.45L294.06,135.31L294.37,130.72L294.64,131.86L295.01,133.01L295.02,137.6L295.2,135.31L296.21,134.16L296.92,144.48L296.92,143.34L297.02,142.19L297.05,141.04L297.35,151.37L297.5,151.37L297.59,152.51L297.64,160.54L298.32,158.25L298.67,159.4L299.36,154.81L299.52,155.95L300.18,153.66L300.7,152.51L300.73,153.66L301,150.22L301.8,149.07L302.03,150.22L302.03,149.07L302.64,147.92L302.95,151.37L303.06,147.92L303.51,146.78L303.89,143.34L304.51,142.19L304.71,141.04L306,139.89L306.66,136.45L306.71,135.31L307.9,128.42L308.86,127.28L311.5,119.25L312.58,118.1L313.34,115.8L314.14,114.66L314.27,112.36L315,113.51L315.35,130.72L315.54,129.57L315.81,130.72L316.09,129.57L316.11,131.86L316.44,130.72L317.06,131.86L317.56,130.72L318.28,131.86L319.38,128.42L320.31,127.28L321.56,126.13L321.89,127.28L321.94,128.42L322.93,127.28L323.43,124.98L323.88,126.13L324.05,124.98L324.48,126.13L324.5,127.28L324.5,128.42L325.16,126.13L325.82,127.28L326.79,159.4L327.07,158.25L327.22,154.81L327.66,159.4L327.82,160.54L329.22,150.22L329.56,149.07L329.68,151.37L330.14,150.22L330.56,149.07L331.52,151.37L331.9,150.22L332.86,149.07L332.87,150.22L333.46,149.07L333.68,147.92L334.79,145.63L335.34,146.78L335.79,142.19L336.88,141.04L337.14,139.89L338.21,138.75L339.77,134.16L339.77,135.31L339.8,136.45L340.73,131.86L341.25,133.01L342.07,128.42L342.08,129.57L342.56,128.42L342.6,129.57L343.21,126.13L343.26,124.98L343.32,123.83L344.59,122.69L345.42,120.39L345.45,119.25L346.25,116.95L346.57,115.8L347.48,120.39L347.86,119.25L348.03,118.1L349.51,115.8L349.72,116.95L350.79,114.66L351.33,113.51L352.85,108.92L353.44,107.77L353.8,106.63L354.01,107.77L354.07,108.92L354.08,107.77L354.94,106.63L356.03,104.33L356.14,103.18L357.1,102.04L357.11,103.18L357.13,104.33L357.18,119.25L357.81,115.8L358.06,116.95L358.67,114.66L358.9,113.51L359.63,114.66L360.52,113.51L361.13,110.07L361.23,111.22L361.51,110.07L362.75,107.77L363.57,106.63L364.18,104.33L364.18,103.18L364.18,97.45L365.41,96.3L366.41,92.86L367.87,94.01L367.87,96.3L368.27,92.86L368.62,92.86L369.1,94.01L369.42,91.71L369.66,92.86L370.51,91.71L370.65,90.57L370.65,91.71L371.93,92.86L372.55,91.71L372.61,92.86L372.77,94.01L372.77,95.15L373.37,95.15L373.67,96.3L373.86,108.92L374.82,110.07L375.8,107.77L376.31,106.63L376.43,104.33L376.47,107.77L376.88,108.92L378.06,100.89L378.08,102.04L378.09,106.63L378.39,104.33L378.93,103.18L380.2,99.74L381.29,98.6L381.98,95.15L382.67,94.01L383.03,90.57L383.49,92.86L383.74,91.71L384.73,85.98L384.74,87.12L386.12,85.98L386.88,80.24L386.89,82.54L387.68,81.39L388,82.54L388.04,81.39L388.53,80.24L389.07,77.95L389.7,79.09L390.62,75.65L391.24,74.51L391.83,72.21L392.05,73.36L392.18,74.51L392.49,75.65L392.69,74.51L393.83,75.65L396.14,67.62L396.42,66.48L397.37,65.33L398.08,66.48L399.14,63.03L399.22,61.89L399.28,63.03L399.44,58.45L400.04,59.59L400.12,57.3L401.23,56.15L401.39,53.86L401.57,56.15L401.82,57.3L402.2,56.15L402.36,57.3L402.39,58.45L402.66,60.74L403.18,59.59L404.18,52.71L404.23,56.15L404.86,55L404.94,53.86L405.15,56.15L405.37,56.15L405.53,57.3L406.3,52.71L406.61,53.86L406.62,55L406.75,57.3L407.23,52.71L407.55,51.56L408.11,49.27L408.12,50.42L408.18,51.56L408.72,46.97L408.81,49.27L409.07,50.42L409.23,48.12L409.37,61.89L409.37,63.03L409.75,65.33L410.04,63.03L410.04,61.89L410.04,55L410.71,63.03L410.74,59.59L410.86,60.74L412.49,52.71L412.55,53.86L412.68,65.33L413.35,59.59L413.38,60.74L413.39,61.89L413.77,59.59L413.9,59.59L414.46,58.45L415.09,61.89L415.36,60.74L415.58,59.59L415.72,61.89L415.8,60.74L416.36,59.59L416.98,68.77L417.01,67.62L417.37,66.48L417.45,65.33L417.76,68.77L418.02,67.62L418.35,66.48L418.75,63.03L418.93,65.33L419.45,64.18L419.85,60.74L420.24,63.03L420.24,64.18L421.07,80.24L421.35,79.09L421.51,77.95L422.5,75.65L422.5,76.8L422.63,79.09L423.59,80.24L424.65,77.95L424.69,76.8L424.84,77.95L425.21,76.8L425.66,75.65L426.1,73.36L426.22,76.8L426.35,75.65L426.58,74.51L427.21,72.21L427.55,73.36L428.15,79.09L428.37,76.8L428.4,75.65L428.84,79.09L429.08,79.09L429.22,77.95L429.6,69.92L429.96,76.8L430.06,75.65L430.33,72.21L430.44,79.09L430.45,80.24L431.02,72.21L431.14,74.51L431.27,73.36L431.61,69.92L432.01,72.21L432.07,71.06L432.25,69.92L432.39,73.36L432.39,74.51L432.7,95.15L433.11,90.57L433.2,91.71L433.21,92.86L433.94,91.71L434.01,90.57L434.17,89.42L434.22,98.6L434.36,96.3L434.46,97.45L435.26,95.15L435.85,94.01L436.65,89.42L436.81,88.27L437.37,83.68L437.64,87.12L437.65,88.27L437.8,85.98L438.07,90.57L438.16,91.71L438.98,90.57L439.1,89.42L439.6,91.71L439.68,88.27L439.72,87.12L439.72,88.27L440.24,82.54L440.53,81.39L440.55,80.24L440.63,83.68L440.98,81.39L441.45,80.24L441.47,81.39L442.03,72.21L442.07,74.51L442.84,73.36L443.32,69.92L443.86,71.06L443.99,68.77L444.26,74.51L444.62,73.36L444.65,72.21L444.95,71.06L445.21,73.36L445.49,72.21L445.67,74.51L446.02,72.21L446.35,73.36L446.87,67.62L447.21,69.92L447.26,71.06L447.39,69.92L447.42,73.36L447.84,71.06L448.26,69.92L448.27,68.77L448.8,79.09L448.96,75.65L449.21,76.8L449.21,75.65L449.49,79.09L449.59,77.95L450.16,79.09L450.34,77.95L450.59,80.24L451.03,79.09L451.56,77.95L451.6,79.09L451.67,80.24L452.24,82.54L452.25,81.39L452.38,80.24L452.52,76.8L453.06,80.24L453.4,79.09L453.64,75.65L454.02,79.09L454.05,80.24L454.35,79.09L455.16,97.45L455.43,96.3L457.08,82.54L457.17,83.68L457.25,81.39L457.35,91.71L457.63,91.71L458.17,90.57L458.83,99.74L458.97,97.45L459.04,96.3L459.11,97.45L459.37,91.71L459.96,92.86L460.2,89.42L460.23,94.01L460.38,92.86L460.84,94.01L461.11,95.15L461.73,90.57L462.02,91.71L462.04,95.15L462.7,92.86L462.83,94.01L463.27,91.71L463.96,90.57L464.21,85.98L464.51,90.57L464.81,89.42L465.89,80.24L466.64,81.39L467.14,92.86L467.54,91.71L467.63,94.01L467.97,87.12L468.13,88.27L468.38,87.12L468.84,94.01L469.51,92.86L469.7,91.71L470.02,94.01L470.02,95.15L470.65,92.86L470.89,105.48L470.98,104.33L470.98,102.04L471.52,108.92L471.8,107.77L472,108.92L473.42,107.77L473.99,108.92L474.28,107.77L474.72,108.92L474.74,107.77L475.27,106.63L475.27,105.48L475.52,108.92L475.6,107.77L476.2,106.63L476.42,107.77L476.74,106.63L477.12,105.48L477.19,103.18L477.33,106.63L477.61,105.48L478.12,104.33L478.2,103.18L478.61,107.77L478.62,108.92L479.68,105.48L480.06,106.63L480.3,104.33L480.6,106.63L480.61,107.77L481.18,108.92L481.35,107.77L481.37,106.63L482.12,100.89L482.15,104.33L482.15,105.48L482.29,103.18L483.12,104.33L483.12,103.18L483.39,103.18L484.52,102.04L485.05,98.6L485.29,100.89L485.38,99.74L486.01,95.15L486.19,94.01L486.83,96.3L486.86,94.01L487,92.86L487.8,91.71L488.35,92.86L488.37,95.15L488.89,95.15L489.18,94.01L489.18,92.86L489.87,95.15L490.06,94.01L490.15,92.86L491.03,91.71L491.64,92.86L492.06,91.71L492.79,87.12L493.02,85.98L493.04,87.12L493.18,85.98L493.88,84.83L494.14,87.12L494.58,85.98L494.68,87.12L495.09,82.54L495.24,84.83L495.51,85.98L495.77,82.54L497.5,83.68L497.82,80.24L498.43,81.39L498.68,92.86L499.24,91.71L499.36,92.86L499.49,90.57L499.92,91.71L500.31,90.57L500.62,87.12L501.54,85.98L501.66,83.68L502.66,82.54L503.3,80.24L503.4,79.09L503.52,76.8L504.91,77.95L505.32,95.15L505.6,92.86L505.67,91.71L505.73,94.01L506.45,92.86L507.36,89.42L507.37,90.57L508.07,96.3L508.11,95.15L508.53,94.01L509.15,89.42L509.18,90.57L509.61,89.42L512.02,84.83L512.34,83.68L513.41,80.24L514.3,79.09L514.4,76.8L514.59,77.95L515.22,76.8L515.86,74.51L517.31,73.36L518.83,69.92L518.96,68.77L520.17,63.03L520.18,64.18L520.21,63.03L520.25,66.48L520.81,64.18L521.02,63.03L521.83,55L521.97,53.86L522.52,50.42L525.41,49.27L526.84,42.38L528.63,41.24L528.65,40.09L529.58,38.94L529.59,40.09L530.09,36.65L530.39,35.5L530.73,33.21L532.58,32.06L534.38,29.77L534.55,28.62L535.48,26.32L535.54,25.18L535.66,26.32L536.22,25.18L536.44,24.03L539.12,18.29L539.32,17.15L540,16" style="vector-effect: none; fill: none; stroke: rgb(255, 127, 14); stroke-opacity: 1; stroke-width: 2px; opacity: 1;"/></g><g class="points"/><g class="text"/></g></g></g></g><g class="zerolinelayer-above"/><path class="xlines-above crisp" d="M0,0" style="fill: none;"/><path class="ylines-above crisp" d="M0,0" style="fill: none;"/><g class="overlines-above"/><g class="xaxislayer-above"><g class="xtick"><text text-anchor="middle" x="0" y="439" transform="translate(100.31,0)" style="font-family: 'Open Sans'; font-size: 18px; fill: rgb(255, 255, 255); fill-opacity: 1; white-space: pre;">2016</text></g><g class="xtick"><text text-anchor="middle" x="0" y="439" style="font-family: 'Open Sans'; font-size: 18px; fill: rgb(255, 255, 255); fill-opacity: 1; white-space: pre;" transform="translate(201.07,0)">2018</text></g><g class="xtick"><text text-anchor="middle" x="0" y="439" style="font-family: 'Open Sans'; font-size: 18px; fill: rgb(255, 255, 255); fill-opacity: 1; white-space: pre;" transform="translate(301.69,0)">2020</text></g><g class="xtick"><text text-anchor="middle" x="0" y="439" style="font-family: 'Open Sans'; font-size: 18px; fill: rgb(255, 255, 255); fill-opacity: 1; white-space: pre;" transform="translate(402.45,0)">2022</text></g><g class="xtick"><text text-anchor="middle" x="0" y="439" style="font-family: 'Open Sans'; font-size: 18px; fill: rgb(255, 255, 255); fill-opacity: 1; white-space: pre;" transform="translate(503.08,0)">2024</text></g><g class="xtick"><text text-anchor="middle" x="0" y="439" style="font-family: 'Open Sans'; font-size: 18px; fill: rgb(255, 255, 255); fill-opacity: 1; white-space: pre;" transform="translate(603.84,0)">2026</text></g></g><g class="yaxislayer-above"><g class="ytick"><text text-anchor="end" x="79" y="6.3" transform="translate(0,420)" style="font-family: 'Open Sans'; font-size: 18px; fill: rgb(255, 255, 255); fill-opacity: 1; white-space: pre;">0</text></g><g class="ytick"><text text-anchor="end" x="79" y="6.3" style="font-family: 'Open Sans'; font-size: 18px; fill: rgb(255, 255, 255); fill-opacity: 1; white-space: pre;" transform="translate(0,362.64)">50</text></g><g class="ytick"><text text-anchor="end" x="79" y="6.3" style="font-family: 'Open Sans'; font-size: 18px; fill: rgb(255, 255, 255); fill-opacity: 1; white-space: pre;" transform="translate(0,305.28)">100</text></g><g class="ytick"><text text-anchor="end" x="79" y="6.3" style="font-family: 'Open Sans'; font-size: 18px; fill: rgb(255, 255, 255); fill-opacity: 1; white-space: pre;" transform="translate(0,247.92)">150</text></g><g class="ytick"><text text-anchor="end" x="79" y="6.3" style="font-family: 'Open Sans'; font-size: 18px; fill: rgb(255, 255, 255); fill-opacity: 1; white-space: pre;" transform="translate(0,190.57)">200</text></g><g class="ytick"><text text-anchor="end" x="79" y="6.3" style="font-family: 'Open Sans'; font-size: 18px; fill: rgb(255, 255, 255); fill-opacity: 1; white-space: pre;" transform="translate(0,133.21)">250</text></g></g><g class="overaxes-above"/></g></g><g class="polarlayer"/><g class="smithlayer"/><g class="ternarylayer"/><g class="geolayer"/><g class="funnelarealayer"/><g class="pielayer"/><g class="iciclelayer"/><g class="treemaplayer"/><g class="sunburstlayer"/><g class="glimages"/><defs id="topdefs-19fded"><g class="clips"/></defs><g class="layer-above"><g class="imagelayer"/><g class="shapelayer"/></g><g class="infolayer"><g class="g-gtitle"><text class="gtitle" x="35" y="50" text-anchor="start" dy="0em" style="opacity: 1; font-family: 'Open Sans'; font-size: 25px; fill: rgb(255, 255, 255); fill-opacity: 1; white-space: pre;">MultiQC/MultiQC - Open Issues Over Time</text></g><g class="g-xtitle"><text class="xtitle" x="350" y="472.9" text-anchor="middle" style="opacity: 1; font-family: 'Open Sans'; font-size: 22px; fill: rgb(255, 255, 255); fill-opacity: 1; white-space: pre;">Date</text></g><g class="g-ytitle"><text class="ytitle" transform="rotate(-90,29.799999999999997,260)" x="29.799999999999997" y="260" text-anchor="middle" style="opacity: 1; font-family: 'Open Sans'; font-size: 22px; fill: rgb(255, 255, 255); fill-opacity: 1; white-space: pre;">Number of Open Issues</text></g></g></svg>