<svg class="main-svg" xmlns="http://www.w3.org/2000/svg" xmlns:xlink="http://www.w3.org/1999/xlink" width="700" height="500" style="" viewBox="0 0 700 500"><rect x="0" y="0" width="700" height="500" style="fill: rgb(0, 0, 0); fill-opacity: 0;"/><defs id="defs-c7d601"><g class="clips"><clipPath id="clipc7d601xyplot" class="plotclip"><rect width="540" height="320"/></clipPath><clipPath class="axesclip" id="clipc7d601x"><rect x="80" y="0" width="540" height="500"/></clipPath><clipPath class="axesclip" id="clipc7d601y"><rect x="0" y="100" width="700" height="320"/></clipPath><clipPath class="axesclip" id="clipc7d601xy"><rect x="80" y="100" width="540" height="320"/></clipPath></g><g class="gradients"/><g class="patterns"/></defs><g class="bglayer"><rect class="bg" x="80" y="100" width="540" height="320" style="fill: rgb(0, 0, 0); fill-opacity: 0; stroke-width: 0;"/></g><g class="layer-below"><g class="imagelayer"/><g class="shapelayer"/></g><g class="cartesianlayer"><g class="subplot xy"><g class="layer-subplot"><g class="shapelayer"/><g class="imagelayer"/></g><g class="minor-gridlayer"><g class="x"/><g class="y"/></g><g class="gridlayer"><g class="x"><path class="xgrid crisp" transform="translate(100.33,0)" d="M0,100v320" style="stroke: rgb(255, 255, 255); stroke-opacity: 1; stroke-width: 1px;"/><path class="xgrid crisp" transform="translate(201.19,0)" d="M0,100v320" style="stroke: rgb(255, 255, 255); stroke-opacity: 1; stroke-width: 1px;"/><path class="xgrid crisp" transform="translate(301.90999999999997,0)" d="M0,100v320" style="stroke: rgb(255, 255, 255); stroke-opacity: 1; stroke-width: 1px;"/><path class="xgrid crisp" transform="translate(402.77,0)" d="M0,100v320" style="stroke: rgb(255, 255, 255); stroke-opacity: 1; stroke-width: 1px;"/><path class="xgrid crisp" transform="translate(503.5,0)" d="M0,100v320" style="stroke: rgb(255, 255, 255); stroke-opacity: 1; stroke-width: 1px;"/><path class="xgrid crisp" transform="translate(604.36,0)" d="M0,100v320" style="stroke: rgb(255, 255, 255); stroke-opacity: 1; stroke-width: 1px;"/></g><g class="y"><path class="ygrid crisp" transform="translate(0,338.24)" d="M80,0h540" style="stroke: rgb(255, 255, 255); stroke-opacity: 1; stroke-width: 1px;"/><path class="ygrid crisp" transform="translate(0,256.47)" d="M80,0h540" style="stroke: rgb(255, 255, 255); stroke-opacity: 1; stroke-width: 1px;"/><path class="ygrid crisp" transform="translate(0,174.70999999999998)" d="M80,0h540" style="stroke: rgb(255, 255, 255); stroke-opacity: 1; stroke-width: 1px;"/></g></g><g class="zerolinelayer"><path class="yzl zl crisp" transform="translate(0,420)" d="M80,0h540" style="stroke: rgb(255, 255, 255); stroke-opacity: 1; stroke-width: 2px;"/></g><g class="layer-between"><g class="shapelayer"/><g class="imagelayer"/></g><path class="xlines-below"/><path class="ylines-below"/><g class="overlines-below"/><g class="xaxislayer-below"/><g class="yaxislayer-below"/><g class="overaxes-below"/><g class="overplot"><g class="xy" transform="translate(80,100)" clip-path="url(#clipc7d601xyplot)"><g class="scatterlayer mlayer"><g class="trace scatter trace552423" style="stroke-miterlimit: 2;"><g class="fills"><g><path class="js-fill" d="M540,320L0,320L0,319.84L0,319.51L1.9,319.35L3.7,318.36L4.39,318.2L4.97,317.06L5.34,316.89L5.92,315.91L6.22,315.75L8.27,312.31L8.66,312.15L9.77,311.17L9.77,311.01L10.62,310.19L11.28,310.02L12.27,307.9L12.27,307.74L13.01,306.75L13.23,306.59L13.66,305.45L14.17,305.28L15.3,304.79L16.49,304.63L17.91,303.48L18.04,303.32L23.18,302.34L23.99,302.18L25.11,301.68L25.65,301.52L26.76,300.21L28.57,300.05L31.45,298.25L32.62,298.09L36.43,295.31L36.44,295.14L36.73,294.49L37.35,294.33L39.46,292.2L39.46,292.04L40.12,291.38L40.41,291.22L42.6,289.26L43.84,289.09L45.94,287.13L46.07,286.97L46.43,286.31L47.08,286.15L50.29,284.51L51.19,284.35L54.17,282.88L54.18,282.72L56.69,281.24L56.84,281.08L57.52,280.43L57.68,280.26L57.96,279.94L59.5,279.77L62.68,276.83L62.78,276.66L62.89,276.34L63.64,276.17L66.15,274.87L66.19,274.7L66.49,274.38L67.21,274.21L68.34,273.88L69.26,273.72L70.07,272.58L70.45,272.41L76.17,270.45L76.28,270.29L77.82,269.31L78.33,269.14L79.09,268L79.29,267.83L81.83,266.69L82.06,266.53L82.09,266.2L82.91,266.04L83.6,265.22L83.87,265.05L84.54,264.56L84.87,264.4L84.88,264.07L85.93,263.91L85.95,263.58L86.77,263.42L90.87,262.11L91.34,261.95L92.4,261.29L92.7,261.13L97.13,259.17L97.14,259L98.35,258.02L98.35,257.86L99.07,255.57L99.35,255.41L105.39,252.14L105.95,251.97L106.34,251.32L106.75,251.15L108.68,250.17L109.93,250.01L114.4,248.21L115.07,248.05L117.68,246.9L117.84,246.74L118.6,246.25L118.78,246.08L119.62,245.43L121.57,245.27L131.15,238.89L132.19,238.73L134.38,237.91L134.82,237.75L136.28,236.11L136.71,235.95L137.26,235.46L137.61,235.29L141.01,233.49L141.02,233.33L141.81,232.68L142.98,232.51L147.64,230.71L147.67,230.55L150.2,229.08L151.21,228.91L154.6,227.77L155.06,227.61L157.26,225.81L157.98,225.64L170.53,220.57L172.44,220.41L174.8,219.1L175.38,218.94L176.6,218.29L177.58,218.12L180.3,216.49L180.31,216.32L184.32,214.2L184.35,214.03L185.44,213.38L185.57,213.22L188.34,211.25L188.38,211.09L200.46,207.66L200.47,207.49L201.9,206.67L202.65,206.51L202.81,206.18L204.52,206.02L205.72,205.69L206.53,205.53L210.13,204.06L210.4,203.89L216.09,200.13L216.13,199.97L216.86,199.64L217.02,199.48L219.88,196.7L220.88,196.54L223.1,195.55L223.24,195.39L223.81,195.06L225.87,194.9L231.41,193.27L231.48,193.1L232.35,192.61L232.65,192.45L234.29,191.47L234.38,191.3L235.08,190.65L236.22,190.49L237.84,189.34L238.4,189.18L239.11,188.36L239.52,188.2L240.21,187.38L240.3,187.21L241.16,186.56L241.41,186.4L242.28,185.42L242.81,185.25L260.81,173.81L261.67,173.64L262.73,172.66L263.26,172.5L263.83,171.68L264.19,171.52L269.44,169.55L272.89,169.39L279.13,167.92L279.14,167.75L282.53,166.12L282.75,165.96L285.9,164.32L286.41,164.16L286.69,163.67L287.41,163.5L289.44,162.85L289.87,162.69L291.53,161.38L291.56,161.21L292.26,160.72L293.46,160.56L296.51,158.43L296.73,158.27L297.48,156.63L297.74,156.47L303.34,153.36L303.36,153.2L307.12,151.07L307.29,150.91L307.94,150.42L308.2,150.26L311.56,148.95L311.81,148.79L315.7,147.48L315.84,147.31L316.4,146.82L316.76,146.66L325.2,144.7L325.48,144.53L328.23,143.39L328.26,143.23L329.55,141.92L329.89,141.75L335.93,139.63L336.08,139.46L336.13,139.3L337.21,139.14L338.85,138.65L339.7,138.48L343.19,136.03L343.55,135.87L343.66,135.38L344.93,135.21L351.94,132.43L352.21,132.27L357.45,130.8L357.54,130.63L359.03,129.49L359.26,129.33L364.54,127.2L364.54,127.04L364.54,126.55L365.77,126.38L366.77,125.89L368.55,125.73L368.98,125.24L369.78,125.07L369.79,124.91L370.88,124.75L371.02,124.58L372.52,124.42L377.51,122.29L377.77,122.13L378.59,120.99L378.73,120.82L379.62,120.33L380.4,120.17L382.36,119.35L383.05,119.19L384.64,117.71L385.08,117.55L385.12,117.39L386.51,117.22L387.26,116.41L388.06,116.24L395.57,113.46L396.12,113.3L400.48,111.01L400.51,110.85L403.81,109.7L403.83,109.54L406.6,107.41L406.71,107.25L408.52,105.94L408.65,105.78L409.12,105.29L409.52,105.12L410.23,104.47L410.44,104.31L411.15,102.34L411.41,102.18L415.77,98.91L415.97,98.75L416.77,98.25L416.87,98.09L418.04,96.95L418.27,96.78L419.17,95.97L419.86,95.8L421.2,94.66L421.69,94.49L422.1,94L422.92,93.84L426.18,92.86L426.32,92.69L429.47,89.92L429.49,89.75L430.37,87.63L430.49,87.46L433.54,82.72L434.37,82.56L435.69,81.08L436.29,80.92L437.08,80.27L437.24,80.1L439.54,78.47L440.05,78.3L441.41,75.52L441.89,75.36L443.76,73.4L444.38,73.24L445.21,72.09L445.4,71.93L447.03,70.78L447.03,70.62L447.83,69.64L448.15,69.47L450.79,67.35L451.48,67.18L455.38,64.08L455.49,63.91L455.97,62.93L456.58,62.77L458.62,59.99L458.91,59.83L459.72,58.03L459.83,57.86L461.42,56.72L461.44,56.56L468.4,51.32L468.4,51.16L469.23,50.18L469.98,50.01L472.27,48.38L473.89,48.22L474.75,47.89L475.21,47.72L477.8,46.25L477.95,46.09L479.6,45.27L480.01,45.11L481.46,44.45L481.83,44.29L482.63,43.15L482.77,42.98L485.87,41.67L486,41.51L499.39,34.15L499.48,33.99L501.12,32.68L502.04,32.52L502.16,32.19L503.16,32.03L507.03,30.23L507.18,30.06L509.65,28.59L509.69,28.43L520.69,24.18L520.72,24.01L522.21,22.7L522.21,22.54L522.64,21.56L523.04,21.4L527.21,20.42L527.37,20.25L530.62,19.27L530.92,19.11L531.26,18.78L533.11,18.62L537.52,17.14L537.8,16.98L540,16" style="fill: rgb(255, 127, 14); fill-opacity: 0.5; stroke-width: 0;"/></g></g><g class="errorbars"/><g class="lines"><path class="js-line" d="M0,319.84L0,319.51L1.9,319.35L3.7,318.36L4.39,318.2L4.97,317.06L5.34,316.89L5.92,315.91L6.22,315.75L8.27,312.31L8.66,312.15L9.77,311.17L9.77,311.01L10.62,310.19L11.28,310.02L12.27,307.9L12.27,307.74L13.01,306.75L13.23,306.59L13.66,305.45L14.17,305.28L15.3,304.79L16.49,304.63L17.91,303.48L18.04,303.32L23.18,302.34L23.99,302.18L25.11,301.68L25.65,301.52L26.76,300.21L28.57,300.05L31.45,298.25L32.62,298.09L36.43,295.31L36.44,295.14L36.73,294.49L37.35,294.33L39.46,292.2L39.46,292.04L40.12,291.38L40.41,291.22L42.6,289.26L43.84,289.09L45.94,287.13L46.07,286.97L46.43,286.31L47.08,286.15L50.29,284.51L51.19,284.35L54.17,282.88L54.18,282.72L56.69,281.24L56.84,281.08L57.52,280.43L57.68,280.26L57.96,279.94L59.5,279.77L62.68,276.83L62.78,276.66L62.89,276.34L63.64,276.17L66.15,274.87L66.19,274.7L66.49,274.38L67.21,274.21L68.34,273.88L69.26,273.72L70.07,272.58L70.45,272.41L76.17,270.45L76.28,270.29L77.82,269.31L78.33,269.14L79.09,268L79.29,267.83L81.83,266.69L82.06,266.53L82.09,266.2L82.91,266.04L83.6,265.22L83.87,265.05L84.54,264.56L84.87,264.4L84.88,264.07L85.93,263.91L85.95,263.58L86.77,263.42L90.87,262.11L91.34,261.95L92.4,261.29L92.7,261.13L97.13,259.17L97.14,259L98.35,258.02L98.35,257.86L99.07,255.57L99.35,255.41L105.39,252.14L105.95,251.97L106.34,251.32L106.75,251.15L108.68,250.17L109.93,250.01L114.4,248.21L115.07,248.05L117.68,246.9L117.84,246.74L118.6,246.25L118.78,246.08L119.62,245.43L121.57,245.27L131.15,238.89L132.19,238.73L134.38,237.91L134.82,237.75L136.28,236.11L136.71,235.95L137.26,235.46L137.61,235.29L141.01,233.49L141.02,233.33L141.81,232.68L142.98,232.51L147.64,230.71L147.67,230.55L150.2,229.08L151.21,228.91L154.6,227.77L155.06,227.61L157.26,225.81L157.98,225.64L170.53,220.57L172.44,220.41L174.8,219.1L175.38,218.94L176.6,218.29L177.58,218.12L180.3,216.49L180.31,216.32L184.32,214.2L184.35,214.03L185.44,213.38L185.57,213.22L188.34,211.25L188.38,211.09L200.46,207.66L200.47,207.49L201.9,206.67L202.65,206.51L202.81,206.18L204.52,206.02L205.72,205.69L206.53,205.53L210.13,204.06L210.4,203.89L216.09,200.13L216.13,199.97L216.86,199.64L217.02,199.48L219.88,196.7L220.88,196.54L223.1,195.55L223.24,195.39L223.81,195.06L225.87,194.9L231.41,193.27L231.48,193.1L232.35,192.61L232.65,192.45L234.29,191.47L234.38,191.3L235.08,190.65L236.22,190.49L237.84,189.34L238.4,189.18L239.11,188.36L239.52,188.2L240.21,187.38L240.3,187.21L241.16,186.56L241.41,186.4L242.28,185.42L242.81,185.25L260.81,173.81L261.67,173.64L262.73,172.66L263.26,172.5L263.83,171.68L264.19,171.52L269.44,169.55L272.89,169.39L279.13,167.92L279.14,167.75L282.53,166.12L282.75,165.96L285.9,164.32L286.41,164.16L286.69,163.67L287.41,163.5L289.44,162.85L289.87,162.69L291.53,161.38L291.56,161.21L292.26,160.72L293.46,160.56L296.51,158.43L296.73,158.27L297.48,156.63L297.74,156.47L303.34,153.36L303.36,153.2L307.12,151.07L307.29,150.91L307.94,150.42L308.2,150.26L311.56,148.95L311.81,148.79L315.7,147.48L315.84,147.31L316.4,146.82L316.76,146.66L325.2,144.7L325.48,144.53L328.23,143.39L328.26,143.23L329.55,141.92L329.89,141.75L335.93,139.63L336.08,139.46L336.13,139.3L337.21,139.14L338.85,138.65L339.7,138.48L343.19,136.03L343.55,135.87L343.66,135.38L344.93,135.21L351.94,132.43L352.21,132.27L357.45,130.8L357.54,130.63L359.03,129.49L359.26,129.33L364.54,127.2L364.54,127.04L364.54,126.55L365.77,126.38L366.77,125.89L368.55,125.73L368.98,125.24L369.78,125.07L369.79,124.91L370.88,124.75L371.02,124.58L372.52,124.42L377.51,122.29L377.77,122.13L378.59,120.99L378.73,120.82L379.62,120.33L380.4,120.17L382.36,119.35L383.05,119.19L384.64,117.71L385.08,117.55L385.12,117.39L386.51,117.22L387.26,116.41L388.06,116.24L395.57,113.46L396.12,113.3L400.48,111.01L400.51,110.85L403.81,109.7L403.83,109.54L406.6,107.41L406.71,107.25L408.52,105.94L408.65,105.78L409.12,105.29L409.52,105.12L410.23,104.47L410.44,104.31L411.15,102.34L411.41,102.18L415.77,98.91L415.97,98.75L416.77,98.25L416.87,98.09L418.04,96.95L418.27,96.78L419.17,95.97L419.86,95.8L421.2,94.66L421.69,94.49L422.1,94L422.92,93.84L426.18,92.86L426.32,92.69L429.47,89.92L429.49,89.75L430.37,87.63L430.49,87.46L433.54,82.72L434.37,82.56L435.69,81.08L436.29,80.92L437.08,80.27L437.24,80.1L439.54,78.47L440.05,78.3L441.41,75.52L441.89,75.36L443.76,73.4L444.38,73.24L445.21,72.09L445.4,71.93L447.03,70.78L447.03,70.62L447.83,69.64L448.15,69.47L450.79,67.35L451.48,67.18L455.38,64.08L455.49,63.91L455.97,62.93L456.58,62.77L458.62,59.99L458.91,59.83L459.72,58.03L459.83,57.86L461.42,56.72L461.44,56.56L468.4,51.32L468.4,51.16L469.23,50.18L469.98,50.01L472.27,48.38L473.89,48.22L474.75,47.89L475.21,47.72L477.8,46.25L477.95,46.09L479.6,45.27L480.01,45.11L481.46,44.45L481.83,44.29L482.63,43.15L482.77,42.98L485.87,41.67L486,41.51L499.39,34.15L499.48,33.99L501.12,32.68L502.04,32.52L502.16,32.19L503.16,32.03L507.03,30.23L507.18,30.06L509.65,28.59L509.69,28.43L520.69,24.18L520.72,24.01L522.21,22.7L522.21,22.54L522.64,21.56L523.04,21.4L527.21,20.42L527.37,20.25L530.62,19.27L530.92,19.11L531.26,18.78L533.11,18.62L537.52,17.14L537.8,16.98L540,16" style="vector-effect: none; fill: none; stroke: rgb(255, 127, 14); stroke-opacity: 1; stroke-width: 2px; opacity: 1;"/></g><g class="points"/><g class="text"/></g></g></g></g><g class="zerolinelayer-above"/><path class="xlines-above crisp" d="M0,0" style="fill: none;"/><path class="ylines-above crisp" d="M0,0" style="fill: none;"/><g class="overlines-above"/><g class="xaxislayer-above"><g class="xtick"><text text-anchor="middle" x="0" y="439" transform="translate(100.33,0)" style="font-family: 'Open Sans'; font-size: 18px; fill: rgb(0, 0, 0); fill-opacity: 1; white-space: pre;">2016</text></g><g class="xtick"><text text-anchor="middle" x="0" y="439" style="font-family: 'Open Sans'; font-size: 18px; fill: rgb(0, 0, 0); fill-opacity: 1; white-space: pre;" transform="translate(201.19,0)">2018</text></g><g class="xtick"><text text-anchor="middle" x="0" y="439" style="font-family: 'Open Sans'; font-size: 18px; fill: rgb(0, 0, 0); fill-opacity: 1; white-space: pre;" transform="translate(301.90999999999997,0)">2020</text></g><g class="xtick"><text text-anchor="middle" x="0" y="439" style="font-family: 'Open Sans'; font-size: 18px; fill: rgb(0, 0, 0); fill-opacity: 1; white-space: pre;" transform="translate(402.77,0)">2022</text></g><g class="xtick"><text text-anchor="middle" x="0" y="439" style="font-family: 'Open Sans'; font-size: 18px; fill: rgb(0, 0, 0); fill-opacity: 1; white-space: pre;" transform="translate(503.5,0)">2024</text></g><g class="xtick"><text text-anchor="middle" x="0" y="439" style="font-family: 'Open Sans'; font-size: 18px; fill: rgb(0, 0, 0); fill-opacity: 1; white-space: pre;" transform="translate(604.36,0)">2026</text></g></g><g class="yaxislayer-above"><g class="ytick"><text text-anchor="end" x="79" y="6.3" transform="translate(0,420)" style="font-family: 'Open Sans'; font-size: 18px; fill: rgb(0, 0, 0); fill-opacity: 1; white-space: pre;">0</text></g><g class="ytick"><text text-anchor="end" x="79" y="6.3" style="font-family: 'Open Sans'; font-size: 18px; fill: rgb(0, 0, 0); fill-opacity: 1; white-space: pre;" transform="translate(0,338.24)">500</text></g><g class="ytick"><text text-anchor="end" x="79" y="6.3" style="font-family: 'Open Sans'; font-size: 18px; fill: rgb(0, 0, 0); fill-opacity: 1; white-space: pre;" transform="translate(0,256.47)">1000</text></g><g class="ytick"><text text-anchor="end" x="79" y="6.3" style="font-family: 'Open Sans'; font-size: 18px; fill: rgb(0, 0, 0); fill-opacity: 1; white-space: pre;" transform="translate(0,174.70999999999998)">1500</text></g></g><g class="overaxes-above"/></g></g><g class="polarlayer"/><g class="smithlayer"/><g class="ternarylayer"/><g class="geolayer"/><g class="funnelarealayer"/><g class="pielayer"/><g class="iciclelayer"/><g class="treemaplayer"/><g class="sunburstlayer"/><g class="glimages"/><defs id="topdefs-c7d601"><g class="clips"/></defs><g class="layer-above"><g class="imagelayer"/><g class="shapelayer"/></g><g class="infolayer"><g class="g-gtitle"><text class="gtitle" x="35" y="50" text-anchor="start" dy="0em" style="opacity: 1; font-family: 'Open Sans'; font-size: 25px; fill: rgb(0, 0, 0); fill-opacity: 1; white-space: pre;">MultiQC/MultiQC - Issues Created Over Time</text></g><g class="g-xtitle"><text class="xtitle" x="350" y="472.9" text-anchor="middle" style="opacity: 1; font-family: 'Open Sans'; font-size: 22px; fill: rgb(0, 0, 0); fill-opacity: 1; white-space: pre;">Date</text></g><g class="g-ytitle"><text class="ytitle" transform="rotate(-90,20.799999999999997,260)" x="20.799999999999997" y="260" text-anchor="middle" style="opacity: 1; font-family: 'Open Sans'; font-size: 22px; fill: rgb(0, 0, 0); fill-opacity: 1; white-space: pre;">Cumulative Issues Created</text></g></g></svg>