<svg class="main-svg" xmlns="http://www.w3.org/2000/svg" xmlns:xlink="http://www.w3.org/1999/xlink" width="700" height="500" style="" viewBox="0 0 700 500"><rect x="0" y="0" width="700" height="500" style="fill: rgb(0, 0, 0); fill-opacity: 0;"/><defs id="defs-061aa6"><g class="clips"><clipPath id="clip061aa6xyplot" class="plotclip"><rect width="540" height="320"/></clipPath><clipPath class="axesclip" id="clip061aa6x"><rect x="80" y="0" width="540" height="500"/></clipPath><clipPath class="axesclip" id="clip061aa6y"><rect x="0" y="100" width="700" height="320"/></clipPath><clipPath class="axesclip" id="clip061aa6xy"><rect x="80" y="100" width="540" height="320"/></clipPath></g><g class="gradients"/><g class="patterns"/></defs><g class="bglayer"><rect class="bg" x="80" y="100" width="540" height="320" style="fill: rgb(0, 0, 0); fill-opacity: 0; stroke-width: 0;"/></g><g class="layer-below"><g class="imagelayer"/><g class="shapelayer"/></g><g class="cartesianlayer"><g class="subplot xy"><g class="layer-subplot"><g class="shapelayer"/><g class="imagelayer"/></g><g class="minor-gridlayer"><g class="x"/><g class="y"/></g><g class="gridlayer"><g class="x"><path class="xgrid crisp" transform="translate(101.32,0)" d="M0,100v320" style="stroke: rgb(255, 255, 255); stroke-opacity: 1; stroke-width: 1px;"/><path class="xgrid crisp" transform="translate(207.09,0)" d="M0,100v320" style="stroke: rgb(255, 255, 255); stroke-opacity: 1; stroke-width: 1px;"/><path class="xgrid crisp" transform="translate(312.72,0)" d="M0,100v320" style="stroke: rgb(255, 255, 255); stroke-opacity: 1; stroke-width: 1px;"/><path class="xgrid crisp" transform="translate(418.5,0)" d="M0,100v320" style="stroke: rgb(255, 255, 255); stroke-opacity: 1; stroke-width: 1px;"/><path class="xgrid crisp" transform="translate(524.13,0)" d="M0,100v320" style="stroke: rgb(255, 255, 255); stroke-opacity: 1; stroke-width: 1px;"/></g><g class="y"><path class="ygrid crisp" transform="translate(0,335.32)" d="M80,0h540" style="stroke: rgb(255, 255, 255); stroke-opacity: 1; stroke-width: 1px;"/><path class="ygrid crisp" transform="translate(0,250.64)" d="M80,0h540" style="stroke: rgb(255, 255, 255); stroke-opacity: 1; stroke-width: 1px;"/><path class="ygrid crisp" transform="translate(0,165.95999999999998)" d="M80,0h540" style="stroke: rgb(255, 255, 255); stroke-opacity: 1; stroke-width: 1px;"/></g></g><g class="zerolinelayer"><path class="yzl zl crisp" transform="translate(0,420)" d="M80,0h540" style="stroke: rgb(255, 255, 255); stroke-opacity: 1; stroke-width: 2px;"/></g><g class="layer-between"><g class="shapelayer"/><g class="imagelayer"/></g><path class="xlines-below"/><path class="ylines-below"/><g class="overlines-below"/><g class="xaxislayer-below"/><g class="yaxislayer-below"/><g class="overaxes-below"/><g class="overplot"><g class="xy" transform="translate(80,100)" clip-path="url(#clip061aa6xyplot)"><g class="scatterlayer mlayer"><g class="trace scatter trace27ca78" style="stroke-miterlimit: 2;"><g class="fills"><g><path class="js-fill" d="M540,320L0,320L0,319.83L0,319.49L1.99,319.32L3.88,318.31L4.6,318.14L5.21,316.95L5.6,316.78L6.21,315.77L6.52,315.6L8.67,312.04L9.08,311.87L10.25,310.85L10.25,310.69L10.7,310.01L11.14,309.84L12.25,308.82L12.25,308.65L13.02,306.79L13.14,306.62L14.29,305.44L14.29,305.27L15.05,304.42L16.04,304.25L18.04,303.23L18.53,303.06L18.92,302.73L21.97,302.56L27.23,300.02L27.34,299.85L28.06,299.51L29.96,299.34L32.99,297.48L34.21,297.31L38.2,294.6L38.21,294.43L38.52,293.58L39.17,293.41L41.38,291.21L41.38,291.04L42.08,290.36L42.38,290.19L44.67,288.16L45.98,287.99L48.17,285.96L48.32,285.79L48.7,285.11L49.37,284.94L52.74,283.25L53.69,283.08L56.81,281.56L56.82,281.39L59.16,280.03L59.45,279.86L60.79,278.51L62.4,278.34L65.74,275.29L65.84,275.12L65.96,274.78L66.74,274.61L69.37,273.26L69.41,273.09L69.73,272.75L70.49,272.58L71.67,272.24L72.64,272.07L72.94,271.22L73.48,271.06L73.88,270.72L74.67,270.55L74.67,270.38L75.45,270.21L82.16,267.16L82.17,266.99L84.06,265.81L84.07,265.64L84.24,265.13L85.41,264.96L87.95,263.1L88,262.93L98.81,258.35L98.85,258.18L103.02,255.98L103.14,255.81L103.87,253.44L103.9,253.27L113.97,247.68L115.29,247.51L118.37,246.33L119.19,246.16L120.67,245.48L121.68,245.31L123.58,244.13L123.61,243.96L128.33,241.76L128.52,241.59L129.56,240.91L129.97,240.74L136.27,236.51L136.45,236.34L141.47,234.64L141.5,234.47L142.91,233.29L142.91,233.12L145.55,231.43L145.71,231.26L150.62,229.05L151.58,228.88L153.56,228.04L154.67,227.87L155.82,226.51L156.72,226.34L156.98,226.01L157.52,225.84L162.61,224.31L162.76,224.14L163.59,223.47L163.76,223.3L176.05,218.05L176.21,217.88L176.32,217.54L178.15,217.37L184.05,215.17L184.15,215L188.78,213.3L188.95,213.13L189.54,212.46L190.12,212.29L190.42,211.95L191.43,211.78L192.19,211.44L192.38,211.27L193.16,210.59L193.3,210.42L193.64,209.75L194.47,209.58L196.5,207.88L197.35,207.71L199.27,206.36L200.46,206.19L200.55,206.02L201.96,205.85L206.48,204.67L206.73,204.5L210.24,203.48L210.38,203.31L210.88,202.8L211.74,202.63L219.89,200.09L220.37,199.92L227.77,195.01L227.79,194.84L230.59,192.3L231.64,192.13L233.97,191.12L234.11,190.95L234.71,190.61L236.87,190.44L242.68,188.75L242.76,188.58L243.67,188.07L243.99,187.9L245.52,187.05L245.7,186.88L246.53,186.04L247.73,185.87L249.43,184.68L250.02,184.51L250.76,183.67L251.19,183.5L251.91,182.65L252.01,182.48L252.91,181.8L253.18,181.63L254.07,180.79L254.09,180.62L257.09,178.92L257.23,178.75L258.28,177.74L258.71,177.57L262.03,175.88L262.03,175.71L273.52,168.59L274.42,168.42L275.54,167.41L276.09,167.24L276.68,166.39L277.06,166.22L282.57,164.19L286.18,164.02L292.73,162.5L292.74,162.33L296.23,160.8L296.29,160.63L298.64,159.11L299.67,158.94L301.7,157.58L302.88,157.42L305.59,156.06L305.7,155.89L306.5,155.04L307.76,154.87L309.89,152.84L310.95,152.67L311.86,151.15L311.93,150.98L312.63,150.47L312.97,150.3L315.98,148.44L316.82,148.27L319.87,146.07L321.23,145.9L322.79,144.54L322.95,144.37L327,142.68L328.14,142.51L328.93,142.17L329.77,142L329.91,141.66L331.04,141.5L331.82,140.65L332.19,140.48L341.05,138.45L341.34,138.28L344.23,137.09L344.25,136.92L345.54,135.74L345.61,135.57L348.42,134.89L349.19,134.72L352.5,132.86L353.64,132.69L355.36,132.18L356.25,132.01L359.61,129.64L359.91,129.47L367.38,126.42L368.24,126.25L375.48,123.37L375.62,123.2L377.33,122.36L378.46,122.19L379.1,121.68L379.5,121.51L382.3,120.16L382.3,119.99L382.3,119.65L383.59,119.48L384.64,118.97L386.51,118.8L386.96,118.29L387.79,118.12L387.8,117.95L388.95,117.78L389.1,117.62L390.68,117.45L395.9,115.24L396.18,115.08L396.87,114.23L397.02,114.06L397.79,113.38L398.11,113.21L402,111.69L402.03,111.52L402.98,111.01L403.27,110.84L403.88,110.16L405.34,109.99L406.13,109.15L406.97,108.98L414.13,106.27L414.85,106.1L419.21,104.07L419.23,103.9L420.03,103.39L421.2,103.22L422.42,102.54L423.24,102.37L430.45,96.45L430.45,96.28L431.18,94.58L431.45,94.41L435.33,91.2L436.03,91.03L442.67,85.95L443.52,85.78L446.94,84.76L447.09,84.59L450.29,81.88L450.4,81.71L451.34,79.34L451.46,79.17L453.76,75.11L454.33,74.94L454.66,74.26L455.54,74.09L456.92,72.57L457.54,72.4L458.19,71.89L458.38,71.72L460.95,69.86L461.49,69.69L462.92,66.81L463.42,66.64L465.38,64.61L466.03,64.44L466.9,63.25L467.1,63.08L468.81,61.9L468.81,61.73L469.55,60.88L469.65,60.71L471.14,59.19L471.15,59.02L472.75,58.34L473.48,58.17L477.69,54.78L477.73,54.61L478.18,53.77L478.83,53.6L480.97,50.72L481.27,50.55L482.12,48.69L482.23,48.52L483.9,47.33L483.93,47.16L488.98,43.27L489.08,43.1L490.95,42.25L490.95,42.08L492.1,40.56L492.88,40.39L495.28,38.69L496.98,38.52L497.03,38.36L497.89,38.19L501.24,36.32L501.38,36.15L505.43,34.12L505.44,33.95L507.16,32.94L507.45,32.77L509.55,31.75L509.68,31.58L515.72,28.53L516.55,28.36L517.32,27.69L517.55,27.52L517.73,27.18L518.46,27.01L520.37,25.82L520.44,25.65L523.52,24.64L523.57,24.47L524.8,23.11L525.21,22.94L525.54,22.44L526.5,22.27L526.63,21.93L527.67,21.76L531.73,19.9L531.9,19.73L533.98,18.37L534.48,18.2L534.98,17.86L535.8,17.69L535.84,17.52L537.37,17.35L538.96,16.51L539.9,16.34L540,16" style="fill: rgb(255, 127, 14); fill-opacity: 0.5; stroke-width: 0;"/></g></g><g class="errorbars"/><g class="lines"><path class="js-line" d="M0,319.83L0,319.49L1.99,319.32L3.88,318.31L4.6,318.14L5.21,316.95L5.6,316.78L6.21,315.77L6.52,315.6L8.67,312.04L9.08,311.87L10.25,310.85L10.25,310.69L10.7,310.01L11.14,309.84L12.25,308.82L12.25,308.65L13.02,306.79L13.14,306.62L14.29,305.44L14.29,305.27L15.05,304.42L16.04,304.25L18.04,303.23L18.53,303.06L18.92,302.73L21.97,302.56L27.23,300.02L27.34,299.85L28.06,299.51L29.96,299.34L32.99,297.48L34.21,297.31L38.2,294.6L38.21,294.43L38.52,293.58L39.17,293.41L41.38,291.21L41.38,291.04L42.08,290.36L42.38,290.19L44.67,288.16L45.98,287.99L48.17,285.96L48.32,285.79L48.7,285.11L49.37,284.94L52.74,283.25L53.69,283.08L56.81,281.56L56.82,281.39L59.16,280.03L59.45,279.86L60.79,278.51L62.4,278.34L65.74,275.29L65.84,275.12L65.96,274.78L66.74,274.61L69.37,273.26L69.41,273.09L69.73,272.75L70.49,272.58L71.67,272.24L72.64,272.07L72.94,271.22L73.48,271.06L73.88,270.72L74.67,270.55L74.67,270.38L75.45,270.21L82.16,267.16L82.17,266.99L84.06,265.81L84.07,265.64L84.24,265.13L85.41,264.96L87.95,263.1L88,262.93L98.81,258.35L98.85,258.18L103.02,255.98L103.14,255.81L103.87,253.44L103.9,253.27L113.97,247.68L115.29,247.51L118.37,246.33L119.19,246.16L120.67,245.48L121.68,245.31L123.58,244.13L123.61,243.96L128.33,241.76L128.52,241.59L129.56,240.91L129.97,240.74L136.27,236.51L136.45,236.34L141.47,234.64L141.5,234.47L142.91,233.29L142.91,233.12L145.55,231.43L145.71,231.26L150.62,229.05L151.58,228.88L153.56,228.04L154.67,227.87L155.82,226.51L156.72,226.34L156.98,226.01L157.52,225.84L162.61,224.31L162.76,224.14L163.59,223.47L163.76,223.3L176.05,218.05L176.21,217.88L176.32,217.54L178.15,217.37L184.05,215.17L184.15,215L188.78,213.3L188.95,213.13L189.54,212.46L190.12,212.29L190.42,211.95L191.43,211.78L192.19,211.44L192.38,211.27L193.16,210.59L193.3,210.42L193.64,209.75L194.47,209.58L196.5,207.88L197.35,207.71L199.27,206.36L200.46,206.19L200.55,206.02L201.96,205.85L206.48,204.67L206.73,204.5L210.24,203.48L210.38,203.31L210.88,202.8L211.74,202.63L219.89,200.09L220.37,199.92L227.77,195.01L227.79,194.84L230.59,192.3L231.64,192.13L233.97,191.12L234.11,190.95L234.71,190.61L236.87,190.44L242.68,188.75L242.76,188.58L243.67,188.07L243.99,187.9L245.52,187.05L245.7,186.88L246.53,186.04L247.73,185.87L249.43,184.68L250.02,184.51L250.76,183.67L251.19,183.5L251.91,182.65L252.01,182.48L252.91,181.8L253.18,181.63L254.07,180.79L254.09,180.62L257.09,178.92L257.23,178.75L258.28,177.74L258.71,177.57L262.03,175.88L262.03,175.71L273.52,168.59L274.42,168.42L275.54,167.41L276.09,167.24L276.68,166.39L277.06,166.22L282.57,164.19L286.18,164.02L292.73,162.5L292.74,162.33L296.23,160.8L296.29,160.63L298.64,159.11L299.67,158.94L301.7,157.58L302.88,157.42L305.59,156.06L305.7,155.89L306.5,155.04L307.76,154.87L309.89,152.84L310.95,152.67L311.86,151.15L311.93,150.98L312.63,150.47L312.97,150.3L315.98,148.44L316.82,148.27L319.87,146.07L321.23,145.9L322.79,144.54L322.95,144.37L327,142.68L328.14,142.51L328.93,142.17L329.77,142L329.91,141.66L331.04,141.5L331.82,140.65L332.19,140.48L341.05,138.45L341.34,138.28L344.23,137.09L344.25,136.92L345.54,135.74L345.61,135.57L348.42,134.89L349.19,134.72L352.5,132.86L353.64,132.69L355.36,132.18L356.25,132.01L359.61,129.64L359.91,129.47L367.38,126.42L368.24,126.25L375.48,123.37L375.62,123.2L377.33,122.36L378.46,122.19L379.1,121.68L379.5,121.51L382.3,120.16L382.3,119.99L382.3,119.65L383.59,119.48L384.64,118.97L386.51,118.8L386.96,118.29L387.79,118.12L387.8,117.95L388.95,117.78L389.1,117.62L390.68,117.45L395.9,115.24L396.18,115.08L396.87,114.23L397.02,114.06L397.79,113.38L398.11,113.21L402,111.69L402.03,111.52L402.98,111.01L403.27,110.84L403.88,110.16L405.34,109.99L406.13,109.15L406.97,108.98L414.13,106.27L414.85,106.1L419.21,104.07L419.23,103.9L420.03,103.39L421.2,103.22L422.42,102.54L423.24,102.37L430.45,96.45L430.45,96.28L431.18,94.58L431.45,94.41L435.33,91.2L436.03,91.03L442.67,85.95L443.52,85.78L446.94,84.76L447.09,84.59L450.29,81.88L450.4,81.71L451.34,79.34L451.46,79.17L453.76,75.11L454.33,74.94L454.66,74.26L455.54,74.09L456.92,72.57L457.54,72.4L458.19,71.89L458.38,71.72L460.95,69.86L461.49,69.69L462.92,66.81L463.42,66.64L465.38,64.61L466.03,64.44L466.9,63.25L467.1,63.08L468.81,61.9L468.81,61.73L469.55,60.88L469.65,60.71L471.14,59.19L471.15,59.02L472.75,58.34L473.48,58.17L477.69,54.78L477.73,54.61L478.18,53.77L478.83,53.6L480.97,50.72L481.27,50.55L482.12,48.69L482.23,48.52L483.9,47.33L483.93,47.16L488.98,43.27L489.08,43.1L490.95,42.25L490.95,42.08L492.1,40.56L492.88,40.39L495.28,38.69L496.98,38.52L497.03,38.36L497.89,38.19L501.24,36.32L501.38,36.15L505.43,34.12L505.44,33.95L507.16,32.94L507.45,32.77L509.55,31.75L509.68,31.58L515.72,28.53L516.55,28.36L517.32,27.69L517.55,27.52L517.73,27.18L518.46,27.01L520.37,25.82L520.44,25.65L523.52,24.64L523.57,24.47L524.8,23.11L525.21,22.94L525.54,22.44L526.5,22.27L526.63,21.93L527.67,21.76L531.73,19.9L531.9,19.73L533.98,18.37L534.48,18.2L534.98,17.86L535.8,17.69L535.84,17.52L537.37,17.35L538.96,16.51L539.9,16.34L540,16" style="vector-effect: none; fill: none; stroke: rgb(255, 127, 14); stroke-opacity: 1; stroke-width: 2px; opacity: 1;"/></g><g class="points"/><g class="text"/></g></g></g></g><g class="zerolinelayer-above"/><path class="xlines-above crisp" d="M0,0" style="fill: none;"/><path class="ylines-above crisp" d="M0,0" style="fill: none;"/><g class="overlines-above"/><g class="xaxislayer-above"><g class="xtick"><text text-anchor="middle" x="0" y="439" transform="translate(101.32,0)" style="font-family: 'Open Sans'; font-size: 18px; fill: rgb(255, 255, 255); fill-opacity: 1; white-space: pre;">2016</text></g><g class="xtick"><text text-anchor="middle" x="0" y="439" style="font-family: 'Open Sans'; font-size: 18px; fill: rgb(255, 255, 255); fill-opacity: 1; white-space: pre;" transform="translate(207.09,0)">2018</text></g><g class="xtick"><text text-anchor="middle" x="0" y="439" style="font-family: 'Open Sans'; font-size: 18px; fill: rgb(255, 255, 255); fill-opacity: 1; white-space: pre;" transform="translate(312.72,0)">2020</text></g><g class="xtick"><text text-anchor="middle" x="0" y="439" style="font-family: 'Open Sans'; font-size: 18px; fill: rgb(255, 255, 255); fill-opacity: 1; white-space: pre;" transform="translate(418.5,0)">2022</text></g><g class="xtick"><text text-anchor="middle" x="0" y="439" style="font-family: 'Open Sans'; font-size: 18px; fill: rgb(255, 255, 255); fill-opacity: 1; white-space: pre;" transform="translate(524.13,0)">2024</text></g></g><g class="yaxislayer-above"><g class="ytick"><text text-anchor="end" x="79" y="6.3" transform="translate(0,420)" style="font-family: 'Open Sans'; font-size: 18px; fill: rgb(255, 255, 255); fill-opacity: 1; white-space: pre;">0</text></g><g class="ytick"><text text-anchor="end" x="79" y="6.3" style="font-family: 'Open Sans'; font-size: 18px; fill: rgb(255, 255, 255); fill-opacity: 1; white-space: pre;" transform="translate(0,335.32)">500</text></g><g class="ytick"><text text-anchor="end" x="79" y="6.3" style="font-family: 'Open Sans'; font-size: 18px; fill: rgb(255, 255, 255); fill-opacity: 1; white-space: pre;" transform="translate(0,250.64)">1000</text></g><g class="ytick"><text text-anchor="end" x="79" y="6.3" style="font-family: 'Open Sans'; font-size: 18px; fill: rgb(255, 255, 255); fill-opacity: 1; white-space: pre;" transform="translate(0,165.95999999999998)">1500</text></g></g><g class="overaxes-above"/></g></g><g class="polarlayer"/><g class="smithlayer"/><g class="ternarylayer"/><g class="geolayer"/><g class="funnelarealayer"/><g class="pielayer"/><g class="iciclelayer"/><g class="treemaplayer"/><g class="sunburstlayer"/><g class="glimages"/><defs id="topdefs-061aa6"><g class="clips"/></defs><g class="layer-above"><g class="imagelayer"/><g class="shapelayer"/></g><g class="infolayer"><g class="g-gtitle"><text class="gtitle" x="35" y="50" text-anchor="start" dy="0em" style="opacity: 1; font-family: 'Open Sans'; font-size: 25px; fill: rgb(255, 255, 255); fill-opacity: 1; white-space: pre;">MultiQC/MultiQC - Issues Created Over Time</text></g><g class="g-xtitle"><text class="xtitle" x="350" y="472.9" text-anchor="middle" style="opacity: 1; font-family: 'Open Sans'; font-size: 22px; fill: rgb(255, 255, 255); fill-opacity: 1; white-space: pre;">Date</text></g><g class="g-ytitle"><text class="ytitle" transform="rotate(-90,20.799999999999997,260)" x="20.799999999999997" y="260" text-anchor="middle" style="opacity: 1; font-family: 'Open Sans'; font-size: 22px; fill: rgb(255, 255, 255); fill-opacity: 1; white-space: pre;">Cumulative Issues Created</text></g></g></svg>