<svg class="main-svg" xmlns="http://www.w3.org/2000/svg" xmlns:xlink="http://www.w3.org/1999/xlink" width="700" height="500" style="" viewBox="0 0 700 500"><rect x="0" y="0" width="700" height="500" style="fill: rgb(0, 0, 0); fill-opacity: 0;"/><defs id="defs-9b3918"><g class="clips"><clipPath id="clip9b3918xyplot" class="plotclip"><rect width="540" height="320"/></clipPath><clipPath class="axesclip" id="clip9b3918x"><rect x="80" y="0" width="540" height="500"/></clipPath><clipPath class="axesclip" id="clip9b3918y"><rect x="0" y="100" width="700" height="320"/></clipPath><clipPath class="axesclip" id="clip9b3918xy"><rect x="80" y="100" width="540" height="320"/></clipPath></g><g class="gradients"/><g class="patterns"/></defs><g class="bglayer"><rect class="bg" x="80" y="100" width="540" height="320" style="fill: rgb(0, 0, 0); fill-opacity: 0; stroke-width: 0;"/></g><g class="layer-below"><g class="imagelayer"/><g class="shapelayer"/></g><g class="cartesianlayer"><g class="subplot xy"><g class="layer-subplot"><g class="shapelayer"/><g class="imagelayer"/></g><g class="minor-gridlayer"><g class="x"/><g class="y"/></g><g class="gridlayer"><g class="x"><path class="xgrid crisp" transform="translate(100.66,0)" d="M0,100v320" style="stroke: rgb(255, 255, 255); stroke-opacity: 1; stroke-width: 1px;"/><path class="xgrid crisp" transform="translate(203.18,0)" d="M0,100v320" style="stroke: rgb(255, 255, 255); stroke-opacity: 1; stroke-width: 1px;"/><path class="xgrid crisp" transform="translate(305.56,0)" d="M0,100v320" style="stroke: rgb(255, 255, 255); stroke-opacity: 1; stroke-width: 1px;"/><path class="xgrid crisp" transform="translate(408.08,0)" d="M0,100v320" style="stroke: rgb(255, 255, 255); stroke-opacity: 1; stroke-width: 1px;"/><path class="xgrid crisp" transform="translate(510.46,0)" d="M0,100v320" style="stroke: rgb(255, 255, 255); stroke-opacity: 1; stroke-width: 1px;"/><path class="xgrid crisp" transform="translate(612.99,0)" d="M0,100v320" style="stroke: rgb(255, 255, 255); stroke-opacity: 1; stroke-width: 1px;"/></g><g class="y"><path class="ygrid crisp" transform="translate(0,359.2)" d="M80,0h540" style="stroke: rgb(255, 255, 255); stroke-opacity: 1; stroke-width: 1px;"/><path class="ygrid crisp" transform="translate(0,298.4)" d="M80,0h540" style="stroke: rgb(255, 255, 255); stroke-opacity: 1; stroke-width: 1px;"/><path class="ygrid crisp" transform="translate(0,237.6)" d="M80,0h540" style="stroke: rgb(255, 255, 255); stroke-opacity: 1; stroke-width: 1px;"/><path class="ygrid crisp" transform="translate(0,176.8)" d="M80,0h540" style="stroke: rgb(255, 255, 255); stroke-opacity: 1; stroke-width: 1px;"/><path class="ygrid crisp" transform="translate(0,116)" d="M80,0h540" style="stroke: rgb(255, 255, 255); stroke-opacity: 1; stroke-width: 1px;"/></g></g><g class="zerolinelayer"><path class="yzl zl crisp" transform="translate(0,420)" d="M80,0h540" style="stroke: rgb(255, 255, 255); stroke-opacity: 1; stroke-width: 2px;"/></g><g class="layer-between"><g class="shapelayer"/><g class="imagelayer"/></g><path class="xlines-below"/><path class="ylines-below"/><g class="overlines-below"/><g class="xaxislayer-below"/><g class="yaxislayer-below"/><g class="overaxes-below"/><g class="overplot"><g class="xy" transform="translate(80,100)" clip-path="url(#clip9b3918xyplot)"><g class="scatterlayer mlayer"><g class="trace scatter trace04dc25" style="stroke-miterlimit: 2;"><g class="fills"><g><path class="js-fill" d="M540,320L0,320L0,318.78L0,316.35L0.56,317.57L1.82,318.78L1.93,317.57L2.94,318.78L3.76,312.7L3.79,313.92L4.46,312.7L4.89,307.84L5.05,309.06L5.42,310.27L5.59,306.62L5.88,311.49L6.02,309.06L6.32,310.27L6.99,299.33L7.11,298.11L7.28,296.9L7.54,299.33L7.54,300.54L7.55,301.76L7.72,292.03L8.41,290.82L8.79,300.54L8.79,301.76L9.51,309.06L9.53,307.84L9.65,306.62L9.96,301.76L9.97,300.54L10.37,299.33L10.4,301.76L10.4,302.98L11.36,306.62L11.47,305.41L11.62,304.19L12.58,287.17L12.6,289.6L12.61,290.82L13.04,295.68L13.22,293.25L13.45,292.03L13.85,285.95L13.99,289.6L14.4,288.38L14.59,287.17L14.72,289.6L15.41,290.82L15.57,294.46L16.76,293.25L17.36,290.82L17.48,289.6L18.2,284.74L18.21,285.95L18.34,284.74L18.78,285.95L21.3,284.74L21.3,285.95L21.7,282.3L21.7,284.74L23.22,283.52L23.41,284.74L23.56,283.52L24.39,282.3L25.1,279.87L25.21,281.09L25.52,279.87L26.26,288.38L26.33,287.17L26.6,283.52L27.04,285.95L27.06,287.17L27.2,285.95L27.44,287.17L28.6,288.38L30.04,284.74L30.25,285.95L30.29,289.6L30.29,289.6L31.09,288.38L31.56,292.03L31.97,290.82L32.16,296.9L33.06,298.11L33.75,295.68L33.75,296.9L33.89,298.11L34.48,295.68L34.77,294.46L35.5,296.9L35.86,295.68L35.86,296.9L36,290.82L36.29,292.03L36.98,290.82L37.21,287.17L37.4,294.46L37.9,295.68L38.46,299.33L38.68,294.46L38.68,295.68L38.97,294.46L38.97,295.68L39.27,296.9L40.11,290.82L40.23,294.46L40.57,293.25L40.78,290.82L40.94,294.46L41.07,293.25L41.21,294.46L42.18,288.38L42.2,289.6L43.01,285.95L43.3,284.74L44.07,287.17L44.57,285.95L44.88,289.6L45.13,285.95L45.33,284.74L45.66,283.52L45.81,287.17L45.82,288.38L45.86,287.17L46.27,293.25L46.66,292.03L46.84,290.82L46.94,294.46L47.25,293.25L47.81,294.46L47.81,298.11L48.1,295.68L48.66,296.9L49.05,295.68L49.05,296.9L49.74,295.68L49.74,296.9L49.93,294.46L50.05,294.46L50.87,293.25L52.04,290.82L52.58,292.03L52.58,293.25L53.01,289.6L53.16,292.03L53.61,290.82L53.71,289.6L54.01,293.25L54.83,292.03L56.15,287.17L56.65,285.95L57.87,275.01L57.95,277.44L58.04,278.66L58.04,279.87L58.63,277.44L58.8,276.22L58.92,275.01L58.93,276.22L60.48,275.01L61.67,267.71L61.79,268.93L62.69,266.5L63.23,265.28L63.93,254.34L63.95,256.77L64.68,255.55L65.33,257.98L65.33,259.2L65.64,265.28L66.33,264.06L67.58,260.42L68.32,259.2L68.57,266.5L69.46,265.28L70.55,277.44L70.7,276.22L71.22,275.01L71.22,273.79L71.61,273.79L72.06,275.01L73.13,271.36L73.14,272.58L73.57,271.36L73.59,270.14L73.64,271.36L74.49,270.14L75.27,268.93L75.77,267.71L79.06,257.98L79.06,259.2L79.51,262.85L79.64,259.2L80.04,260.42L80.33,261.63L80.39,257.98L80.59,260.42L81.32,261.63L81.64,255.55L81.66,256.77L82.78,255.55L82.98,256.77L83.18,255.55L83.41,254.34L83.44,253.12L84.15,256.77L84.27,255.55L84.41,256.77L84.98,253.12L84.98,254.34L85.12,255.55L85.52,260.42L85.93,259.2L86.27,257.98L86.27,255.55L86.38,259.2L87.34,257.98L87.34,259.2L87.37,256.77L88.03,259.2L88.2,257.98L89,260.42L89.33,259.2L89.9,260.42L89.98,261.63L90.3,266.5L90.83,265.28L91.13,273.79L91.42,271.36L91.89,270.14L92.93,266.5L93.07,267.71L93.07,268.93L94.91,261.63L94.93,262.85L97.01,255.55L97.15,256.77L97.15,257.98L98.04,260.42L98.14,261.63L98.99,272.58L99.29,271.36L99.7,273.79L99.7,272.58L99.79,271.36L99.84,273.79L100.25,261.63L100.26,261.63L100.67,260.42L100.99,257.98L101.25,264.06L101.64,262.85L102.63,260.42L102.63,261.63L102.63,262.85L102.75,265.28L103.19,264.06L103.68,262.85L104.02,266.5L104.16,264.06L104.56,262.85L104.58,264.06L105.13,261.63L105.16,262.85L105.74,261.63L105.84,260.42L105.85,261.63L106.53,262.85L106.53,264.06L107.13,262.85L107.69,261.63L107.92,257.98L108.09,257.98L108.51,256.77L109.86,250.69L109.9,251.9L109.97,253.12L112.02,249.47L112.58,250.69L113.97,247.04L114.44,248.26L114.73,247.04L115.56,276.22L115.67,275.01L116.28,272.58L116.55,273.79L116.96,272.58L116.96,273.79L117.94,272.58L118.34,273.79L118.64,272.58L118.65,271.36L119.33,270.14L119.58,271.36L119.59,273.79L120.32,267.71L120.32,268.93L120.55,267.71L121.36,264.06L121.59,265.28L121.72,266.5L121.84,270.14L123.57,268.93L123.78,270.14L123.84,268.93L124.35,267.71L124.79,262.85L125.57,261.63L127.26,256.77L127.63,257.98L128.1,255.55L128.17,256.77L128.17,257.98L128.32,264.06L128.69,261.63L129.22,260.42L129.73,257.98L129.97,259.2L129.97,260.42L130.57,264.06L131.27,262.85L132.25,257.98L132.63,259.2L133.31,257.98L134.37,256.77L135.5,253.12L136.3,254.34L137.04,253.12L137.11,254.34L137.62,253.12L137.97,251.9L137.98,254.34L138.52,249.47L138.52,249.47L138.96,248.26L138.96,245.82L139.52,247.04L139.88,245.82L140.37,243.39L140.41,242.18L140.48,240.96L140.53,244.61L141.07,243.39L141.1,244.61L141.5,242.18L142.13,243.39L142.52,239.74L142.77,249.47L142.77,250.69L143.34,248.26L143.43,247.04L144.17,249.47L145.34,248.26L145.99,247.04L146.1,249.47L146.91,248.26L146.93,249.47L147.57,245.82L147.63,247.04L148.19,248.26L149.91,245.82L149.93,247.04L151.02,240.96L151.9,239.74L152.15,237.31L152.67,238.53L152.67,237.31L153.33,243.39L153.69,242.18L154.88,240.96L155.21,242.18L157.61,236.1L157.75,237.31L158.26,232.45L158.55,231.23L159.85,223.94L160.58,222.72L160.58,223.94L160.96,222.72L162.05,221.5L162.11,220.29L162.56,225.15L162.99,223.94L164.03,221.5L164.04,220.29L164.06,219.07L164.27,227.58L165.53,226.37L165.77,223.94L166.87,222.72L167.59,227.58L167.94,226.37L170.82,216.64L170.89,215.42L170.94,216.64L172.67,215.42L172.91,220.29L172.92,221.5L172.93,225.15L173.34,222.72L175.28,221.5L175.3,223.94L175.45,222.72L176.19,221.5L176.7,216.64L176.71,217.86L177.23,219.07L177.59,220.29L178.48,215.42L178.54,216.64L178.67,217.86L179.51,216.64L179.52,217.86L182.61,212.99L182.71,211.78L183.28,208.13L183.29,209.34L183.71,208.13L183.73,210.56L184.39,209.34L184.56,208.13L185.25,209.34L185.54,208.13L186.28,206.91L186.46,205.7L187.22,203.26L187.36,202.05L187.53,203.26L187.68,200.83L187.69,202.05L188.49,200.83L189.85,192.32L189.85,194.75L190.12,193.54L190.45,191.1L190.76,192.32L191.28,191.1L191.48,188.67L191.94,191.1L192.2,189.89L192.58,187.46L193.14,186.24L194.3,185.02L194.3,186.24L194.38,185.02L194.41,186.24L195.75,185.02L196.48,186.24L197.21,185.02L197.43,183.81L197.43,185.02L199.28,183.81L199.97,182.59L199.99,183.81L199.99,185.02L200.37,183.81L201.2,185.02L201.2,186.24L201.89,186.24L202.07,185.02L203.03,182.59L203.75,181.38L204.4,177.73L204.77,178.94L206.15,174.08L206.47,175.3L207.89,174.08L208.11,172.86L209.1,171.65L209.22,172.86L209.93,171.65L211.72,168L212.02,169.22L212.38,165.57L213.12,164.35L213.55,166.78L213.59,165.57L213.86,164.35L214.6,161.92L214.81,163.14L214.85,164.35L214.87,168L215.6,164.35L215.65,165.57L216.03,163.14L216.11,169.22L216.11,170.43L217.29,166.78L217.41,168L217.48,169.22L217.95,165.57L218.08,168L218.12,169.22L218.77,172.86L218.77,174.08L219.62,189.89L219.64,188.67L219.84,195.97L220.43,194.75L220.59,195.97L221.02,191.1L221.02,192.32L221.18,193.54L221.45,194.75L221.61,192.32L221.72,191.1L222.68,186.24L222.98,185.02L223.45,181.38L223.49,180.16L223.6,185.02L224.52,183.81L226.51,181.38L226.54,180.16L227.12,174.08L227.49,172.86L227.94,174.08L229.58,172.86L230.73,170.43L230.8,169.22L231.65,168L232.06,169.22L232.79,166.78L234.63,165.57L235.21,163.14L235.29,161.92L235.44,159.49L236.17,158.27L236.3,159.49L236.48,158.27L237.63,157.06L237.94,153.41L237.96,160.7L237.97,161.92L237.97,163.14L238.51,158.27L238.94,157.06L239.15,158.27L240.1,157.06L240.26,158.27L240.49,157.06L241.08,158.27L241.15,157.06L241.33,161.92L241.76,159.49L242.02,160.7L242.33,159.49L242.35,161.92L242.45,161.92L242.46,163.14L243.46,159.49L243.9,158.27L244.31,155.84L244.45,161.92L244.82,160.7L245.12,159.49L245.27,160.7L245.3,161.92L245.39,160.7L245.69,163.14L246.01,164.35L246.09,161.92L246.13,172.86L246.14,174.08L246.25,172.86L246.65,192.32L246.8,191.1L246.93,192.32L246.93,193.54L247.37,193.54L247.91,192.32L248.94,187.46L249.03,188.67L250.33,180.16L250.47,181.38L250.75,180.16L251.97,176.51L251.98,177.73L252.12,178.94L252.71,175.3L253.02,174.08L253.21,172.86L253.85,174.08L254.47,168L254.93,166.78L255.4,161.92L255.42,163.14L255.95,164.35L256.76,159.49L256.94,158.27L258.2,150.98L258.63,149.76L258.83,148.54L259.86,147.33L261.27,140.03L261.69,138.82L262.67,135.17L262.71,136.38L264.05,130.3L264.71,129.09L266.68,123.01L266.69,124.22L269.65,108.42L269.87,109.63L269.88,112.06L270.8,110.85L270.8,112.06L271.51,108.42L272.14,107.2L272.43,108.42L273.58,107.2L273.88,103.55L276.31,104.77L276.47,132.74L277.37,131.52L278.55,132.74L278.7,131.52L278.7,130.3L278.78,133.95L278.96,131.52L279.56,132.74L282.44,131.52L283.17,130.3L283.72,126.66L283.73,125.44L283.85,127.87L284.37,126.66L284.49,125.44L284.54,126.66L285.47,125.44L286.64,131.52L286.75,130.3L286.94,129.09L286.97,131.52L287.4,129.09L287.64,127.87L288.39,125.44L288.48,124.22L288.86,121.79L289.22,123.01L289.22,124.22L289.51,136.38L290.44,135.17L290.62,136.38L291.12,133.95L291.13,135.17L291.13,136.38L292.14,133.95L292.31,135.17L292.41,132.74L292.86,133.95L293.23,135.17L293.69,136.38L294.21,135.17L295.66,130.3L295.97,129.09L296.29,131.52L296.44,126.66L296.56,127.87L296.61,126.66L297.16,127.87L298.29,126.66L298.31,127.87L298.85,125.44L299.2,124.22L299.51,119.36L299.78,120.58L300.16,121.79L300.17,126.66L300.36,124.22L301.38,123.01L302.1,133.95L302.1,132.74L302.21,131.52L302.24,130.3L302.55,141.25L302.69,141.25L302.79,142.46L302.84,150.98L303.53,148.54L303.88,149.76L304.59,144.9L304.75,146.11L305.42,143.68L305.95,142.46L305.98,143.68L306.26,140.03L307.07,138.82L307.3,140.03L307.31,138.82L307.93,137.6L308.24,141.25L308.35,137.6L308.81,136.38L309.2,132.74L309.83,131.52L310.03,130.3L311.35,129.09L312.01,125.44L312.07,124.22L313.27,116.93L314.25,115.71L316.94,107.2L318.04,105.98L318.81,103.55L319.62,102.34L319.76,99.9L320.5,101.12L320.85,119.36L321.05,118.14L321.33,119.36L321.61,118.14L321.63,120.58L321.97,119.36L322.6,120.58L323.11,119.36L323.84,120.58L324.96,116.93L325.9,115.71L327.18,114.5L327.52,115.71L327.57,116.93L328.57,115.71L329.08,113.28L329.54,114.5L329.71,113.28L330.14,114.5L330.16,115.71L330.17,116.93L330.84,114.5L331.51,115.71L332.49,149.76L332.78,148.54L332.94,144.9L333.39,149.76L333.54,150.98L334.97,140.03L335.32,138.82L335.44,141.25L335.9,140.03L336.33,138.82L337.31,141.25L337.69,140.03L338.67,138.82L338.68,140.03L339.28,138.82L339.5,137.6L339.84,136.38L340.25,137.6L340.62,136.38L341.21,135.17L341.46,133.95L341.66,131.52L342.76,130.3L343.03,129.09L344.12,127.87L345.7,123.01L345.71,124.22L345.73,125.44L346.68,120.58L347.21,121.79L348.05,116.93L348.05,118.14L348.54,116.93L348.59,118.14L349.2,115.71L349.21,114.5L349.32,112.06L350.61,110.85L351.45,108.42L351.48,107.2L352.3,104.77L352.62,103.55L353.55,108.42L353.93,107.2L354.11,105.98L355.61,103.55L355.82,104.77L356.91,102.34L357.47,101.12L359.01,96.26L359.61,95.04L359.98,93.82L360.19,95.04L360.25,96.26L360.27,95.04L361.14,93.82L362.25,91.39L362.36,90.18L363.33,88.96L363.35,90.18L363.42,107.2L364.06,103.55L364.32,104.77L364.93,102.34L365.17,101.12L365.91,102.34L366.82,101.12L367.43,97.47L367.54,98.69L367.82,97.47L369.09,95.04L369.92,93.82L370.54,91.39L370.54,90.18L370.54,84.1L371.79,82.88L372.8,79.23L374.29,80.45L374.29,82.88L374.7,79.23L374.71,80.45L375.05,79.23L375.54,80.45L375.86,79.23L375.87,78.02L376.12,79.23L376.98,78.02L377.12,76.8L377.13,78.02L378.43,79.23L379.06,78.02L379.11,79.23L379.28,80.45L379.28,81.66L379.89,81.66L380.19,82.88L380.39,96.26L381.36,97.47L382.36,95.04L382.88,93.82L383,91.39L383.04,95.04L383.46,96.26L384.65,87.74L384.66,88.96L384.66,87.74L384.69,93.82L385,91.39L385.55,90.18L386.84,86.53L387.95,85.31L388.65,81.66L389.35,80.45L389.72,76.8L390.19,79.23L390.44,78.02L391.45,71.94L391.45,73.15L392.87,71.94L393.63,65.86L393.64,68.29L394.45,67.07L394.77,68.29L394.81,67.07L395.31,65.86L395.86,63.42L396.5,64.64L397.44,60.99L398.07,59.78L398.67,57.34L398.9,58.56L399.03,59.78L399.34,60.99L399.55,59.78L400.71,60.99L403.06,52.48L403.34,51.26L404.31,50.05L405.03,51.26L406.11,47.62L406.19,46.4L406.25,47.62L406.42,42.75L407.03,43.97L407.1,41.54L408.24,40.32L408.39,37.89L408.58,40.32L408.83,41.54L409.23,40.32L409.39,41.54L409.42,42.75L409.69,45.18L410.22,43.97L411.24,36.67L411.28,40.32L411.93,39.1L412.01,37.89L412.22,40.32L412.45,40.32L412.62,41.54L413.4,36.67L413.72,37.89L413.85,41.54L414.34,36.67L414.67,35.46L415.24,33.02L415.25,34.24L415.31,35.46L415.85,30.59L415.95,33.02L416.21,34.24L416.38,31.81L416.51,43.97L416.51,45.18L416.91,50.05L417.2,39.1L417.27,40.32L417.88,47.62L417.91,43.97L418.03,45.18L419.7,36.67L419.75,37.89L419.89,50.05L420.29,45.18L420.57,43.97L420.61,46.4L421.13,43.97L421.7,42.75L422.34,46.4L422.61,45.18L422.84,43.97L422.98,46.4L423.06,45.18L423.63,43.97L424.26,53.7L424.29,52.48L424.66,51.26L424.73,50.05L425.05,53.7L425.32,52.48L425.65,51.26L426.07,47.62L426.24,50.05L426.77,48.83L427.19,45.18L427.58,47.62L427.58,48.83L428.42,65.86L428.63,64.64L428.7,63.42L428.71,64.64L429.05,62.21L429.88,60.99L430.01,64.64L430.98,65.86L432.07,63.42L432.11,62.21L432.26,63.42L432.63,62.21L433.09,60.99L433.54,58.56L433.66,62.21L433.79,60.99L434.03,59.78L434.67,57.34L435.02,58.56L435.63,64.64L435.85,62.21L435.88,60.99L436.57,64.64L436.72,63.42L437.1,54.91L437.47,62.21L437.57,60.99L437.85,57.34L437.96,64.64L437.96,65.86L438.55,57.34L438.67,59.78L438.8,58.56L439.15,54.91L439.37,56.13L439.56,57.34L439.8,54.91L439.96,64.64L439.96,65.86L440.25,81.66L440.67,76.8L440.76,78.02L440.77,79.23L441.52,78.02L441.75,75.58L441.81,85.31L441.93,84.1L442.22,82.88L442.32,84.1L442.72,82.88L442.76,84.1L442.86,81.66L443.47,80.45L444.09,76.8L444.28,75.58L445.01,69.5L445.29,73.15L445.29,74.37L445.44,71.94L445.57,75.58L445.72,75.58L445.72,76.8L446.51,78.02L446.65,76.8L447.28,78.02L448.24,65.86L448.25,67.07L448.25,68.29L448.51,69.5L448.68,67.07L449.16,65.86L449.18,67.07L449.75,57.34L449.79,59.78L450.58,58.56L451.06,54.91L451.61,56.13L451.74,53.7L452.02,59.78L452.39,58.56L452.41,57.34L452.72,56.13L452.98,58.56L453.27,57.34L453.45,59.78L453.81,57.34L454.15,58.56L454.67,52.48L455.02,54.91L455.08,56.13L455.2,54.91L455.23,58.56L455.66,56.13L456.09,54.91L456.1,53.7L456.64,64.64L456.65,62.21L456.8,60.99L458.02,64.64L458.2,63.42L458.45,65.86L458.91,64.64L459.16,63.42L460.14,68.29L460.28,65.86L460.31,64.64L460.42,62.21L460.97,65.86L460.97,65.86L461.31,64.64L461.56,60.99L461.94,64.64L461.98,65.86L462.29,64.64L463.11,84.1L463.38,82.88L465.07,68.29L465.16,69.5L465.23,67.07L465.34,78.02L465.62,76.8L465.62,78.02L466.17,76.8L466.19,78.02L466.45,79.23L466.84,86.53L467.13,84.1L467.27,82.88L467.39,78.02L468.01,78.02L468.13,76.8L468.23,75.58L468.27,80.45L468.42,79.23L468.89,80.45L469.16,81.66L469.79,76.8L470.09,78.02L470.11,81.66L470.78,79.23L470.91,80.45L471.35,78.02L472.06,76.8L472.32,71.94L472.62,76.8L472.92,75.58L474.03,65.86L474.79,67.07L475.3,79.23L475.7,78.02L475.8,80.45L476.14,73.15L476.31,74.37L476.56,73.15L477.02,80.45L477.71,79.23L477.9,78.02L478.22,80.45L478.23,81.66L478.87,79.23L479.11,92.61L479.2,91.39L479.2,88.96L479.76,96.26L480.04,95.04L480.25,96.26L481.69,95.04L482.27,96.26L482.56,95.04L483.01,96.26L483.03,95.04L483.56,93.82L483.57,92.61L483.82,96.26L483.9,95.04L484.52,93.82L484.73,95.04L485.06,93.82L485.45,92.61L485.53,90.18L485.66,93.82L485.95,92.61L486.47,91.39L486.55,90.18L486.97,95.04L486.97,96.26L488.06,92.61L488.44,93.82L488.69,91.39L488.99,92.61L489,93.82L489.04,96.26L489.58,96.26L489.76,95.04L490.53,87.74L490.56,90.18L490.57,91.39L490.57,92.61L490.72,90.18L491.56,91.39L491.56,90.18L491.83,90.18L492.98,88.96L493.52,85.31L493.77,87.74L493.86,86.53L494.49,81.66L494.68,80.45L495.33,82.88L495.36,80.45L495.51,79.23L496.32,78.02L496.88,79.23L496.89,81.66L497.43,81.66L497.72,80.45L497.72,79.23L498.42,81.66L498.61,80.45L498.71,79.23L499.61,78.02L500.22,79.23L500.65,78.02L501.4,73.15L501.63,71.94L501.65,73.15L501.8,71.94L502.51,70.72L502.77,73.15L503.21,71.94L503.32,73.15L503.73,68.29L503.89,70.72L504.17,71.94L504.42,68.29L506.18,69.5L506.51,65.86L507.14,67.07L507.39,79.23L507.83,75.58L507.95,76.8L508.08,79.23L508.65,78.02L509.05,76.8L509.36,73.15L510.3,71.94L510.42,69.5L511.43,68.29L512.09,65.86L512.19,64.64L512.32,62.21L513.73,63.42L514.14,81.66L514.42,79.23L514.5,78.02L514.56,80.45L515.29,79.23L516.22,75.58L516.22,76.8L516.94,82.88L516.98,81.66L517.41,80.45L518.04,75.58L518.07,76.8L518.51,75.58L520.97,70.72L521.29,69.5L521.91,67.07L522.38,65.86L523.33,63.42L523.38,62.21L523.58,63.42L524.21,62.21L524.86,59.78L526.35,58.56L527.89,54.91L528.02,53.7L529.26,47.62L529.26,48.83L529.29,47.62L529.34,51.26L529.9,48.83L530.11,47.62L530.94,39.1L531.08,37.89L531.64,34.24L534.59,33.02L536.04,25.73L537.86,24.51L537.88,23.3L538.82,22.08L538.84,23.3L539.35,19.65L539.66,18.43L540,16" style="fill: rgb(255, 127, 14); fill-opacity: 0.5; stroke-width: 0;"/></g></g><g class="errorbars"/><g class="lines"><path class="js-line" d="M0,318.78L0,316.35L0.56,317.57L1.82,318.78L1.93,317.57L2.94,318.78L3.76,312.7L3.79,313.92L4.46,312.7L4.89,307.84L5.05,309.06L5.42,310.27L5.59,306.62L5.88,311.49L6.02,309.06L6.32,310.27L6.99,299.33L7.11,298.11L7.28,296.9L7.54,299.33L7.54,300.54L7.55,301.76L7.72,292.03L8.41,290.82L8.79,300.54L8.79,301.76L9.51,309.06L9.53,307.84L9.65,306.62L9.96,301.76L9.97,300.54L10.37,299.33L10.4,301.76L10.4,302.98L11.36,306.62L11.47,305.41L11.62,304.19L12.58,287.17L12.6,289.6L12.61,290.82L13.04,295.68L13.22,293.25L13.45,292.03L13.85,285.95L13.99,289.6L14.4,288.38L14.59,287.17L14.72,289.6L15.41,290.82L15.57,294.46L16.76,293.25L17.36,290.82L17.48,289.6L18.2,284.74L18.21,285.95L18.34,284.74L18.78,285.95L21.3,284.74L21.3,285.95L21.7,282.3L21.7,284.74L23.22,283.52L23.41,284.74L23.56,283.52L24.39,282.3L25.1,279.87L25.21,281.09L25.52,279.87L26.26,288.38L26.33,287.17L26.6,283.52L27.04,285.95L27.06,287.17L27.2,285.95L27.44,287.17L28.6,288.38L30.04,284.74L30.25,285.95L30.29,289.6L30.29,289.6L31.09,288.38L31.56,292.03L31.97,290.82L32.16,296.9L33.06,298.11L33.75,295.68L33.75,296.9L33.89,298.11L34.48,295.68L34.77,294.46L35.5,296.9L35.86,295.68L35.86,296.9L36,290.82L36.29,292.03L36.98,290.82L37.21,287.17L37.4,294.46L37.9,295.68L38.46,299.33L38.68,294.46L38.68,295.68L38.97,294.46L38.97,295.68L39.27,296.9L40.11,290.82L40.23,294.46L40.57,293.25L40.78,290.82L40.94,294.46L41.07,293.25L41.21,294.46L42.18,288.38L42.2,289.6L43.01,285.95L43.3,284.74L44.07,287.17L44.57,285.95L44.88,289.6L45.13,285.95L45.33,284.74L45.66,283.52L45.81,287.17L45.82,288.38L45.86,287.17L46.27,293.25L46.66,292.03L46.84,290.82L46.94,294.46L47.25,293.25L47.81,294.46L47.81,298.11L48.1,295.68L48.66,296.9L49.05,295.68L49.05,296.9L49.74,295.68L49.74,296.9L49.93,294.46L50.05,294.46L50.87,293.25L52.04,290.82L52.58,292.03L52.58,293.25L53.01,289.6L53.16,292.03L53.61,290.82L53.71,289.6L54.01,293.25L54.83,292.03L56.15,287.17L56.65,285.95L57.87,275.01L57.95,277.44L58.04,278.66L58.04,279.87L58.63,277.44L58.8,276.22L58.92,275.01L58.93,276.22L60.48,275.01L61.67,267.71L61.79,268.93L62.69,266.5L63.23,265.28L63.93,254.34L63.95,256.77L64.68,255.55L65.33,257.98L65.33,259.2L65.64,265.28L66.33,264.06L67.58,260.42L68.32,259.2L68.57,266.5L69.46,265.28L70.55,277.44L70.7,276.22L71.22,275.01L71.22,273.79L71.61,273.79L72.06,275.01L73.13,271.36L73.14,272.58L73.57,271.36L73.59,270.14L73.64,271.36L74.49,270.14L75.27,268.93L75.77,267.71L79.06,257.98L79.06,259.2L79.51,262.85L79.64,259.2L80.04,260.42L80.33,261.63L80.39,257.98L80.59,260.42L81.32,261.63L81.64,255.55L81.66,256.77L82.78,255.55L82.98,256.77L83.18,255.55L83.41,254.34L83.44,253.12L84.15,256.77L84.27,255.55L84.41,256.77L84.98,253.12L84.98,254.34L85.12,255.55L85.52,260.42L85.93,259.2L86.27,257.98L86.27,255.55L86.38,259.2L87.34,257.98L87.34,259.2L87.37,256.77L88.03,259.2L88.2,257.98L89,260.42L89.33,259.2L89.9,260.42L89.98,261.63L90.3,266.5L90.83,265.28L91.13,273.79L91.42,271.36L91.89,270.14L92.93,266.5L93.07,267.71L93.07,268.93L94.91,261.63L94.93,262.85L97.01,255.55L97.15,256.77L97.15,257.98L98.04,260.42L98.14,261.63L98.99,272.58L99.29,271.36L99.7,273.79L99.7,272.58L99.79,271.36L99.84,273.79L100.25,261.63L100.26,261.63L100.67,260.42L100.99,257.98L101.25,264.06L101.64,262.85L102.63,260.42L102.63,261.63L102.63,262.85L102.75,265.28L103.19,264.06L103.68,262.85L104.02,266.5L104.16,264.06L104.56,262.85L104.58,264.06L105.13,261.63L105.16,262.85L105.74,261.63L105.84,260.42L105.85,261.63L106.53,262.85L106.53,264.06L107.13,262.85L107.69,261.63L107.92,257.98L108.09,257.98L108.51,256.77L109.86,250.69L109.9,251.9L109.97,253.12L112.02,249.47L112.58,250.69L113.97,247.04L114.44,248.26L114.73,247.04L115.56,276.22L115.67,275.01L116.28,272.58L116.55,273.79L116.96,272.58L116.96,273.79L117.94,272.58L118.34,273.79L118.64,272.58L118.65,271.36L119.33,270.14L119.58,271.36L119.59,273.79L120.32,267.71L120.32,268.93L120.55,267.71L121.36,264.06L121.59,265.28L121.72,266.5L121.84,270.14L123.57,268.93L123.78,270.14L123.84,268.93L124.35,267.71L124.79,262.85L125.57,261.63L127.26,256.77L127.63,257.98L128.1,255.55L128.17,256.77L128.17,257.98L128.32,264.06L128.69,261.63L129.22,260.42L129.73,257.98L129.97,259.2L129.97,260.42L130.57,264.06L131.27,262.85L132.25,257.98L132.63,259.2L133.31,257.98L134.37,256.77L135.5,253.12L136.3,254.34L137.04,253.12L137.11,254.34L137.62,253.12L137.97,251.9L137.98,254.34L138.52,249.47L138.52,249.47L138.96,248.26L138.96,245.82L139.52,247.04L139.88,245.82L140.37,243.39L140.41,242.18L140.48,240.96L140.53,244.61L141.07,243.39L141.1,244.61L141.5,242.18L142.13,243.39L142.52,239.74L142.77,249.47L142.77,250.69L143.34,248.26L143.43,247.04L144.17,249.47L145.34,248.26L145.99,247.04L146.1,249.47L146.91,248.26L146.93,249.47L147.57,245.82L147.63,247.04L148.19,248.26L149.91,245.82L149.93,247.04L151.02,240.96L151.9,239.74L152.15,237.31L152.67,238.53L152.67,237.31L153.33,243.39L153.69,242.18L154.88,240.96L155.21,242.18L157.61,236.1L157.75,237.31L158.26,232.45L158.55,231.23L159.85,223.94L160.58,222.72L160.58,223.94L160.96,222.72L162.05,221.5L162.11,220.29L162.56,225.15L162.99,223.94L164.03,221.5L164.04,220.29L164.06,219.07L164.27,227.58L165.53,226.37L165.77,223.94L166.87,222.72L167.59,227.58L167.94,226.37L170.82,216.64L170.89,215.42L170.94,216.64L172.67,215.42L172.91,220.29L172.92,221.5L172.93,225.15L173.34,222.72L175.28,221.5L175.3,223.94L175.45,222.72L176.19,221.5L176.7,216.64L176.71,217.86L177.23,219.07L177.59,220.29L178.48,215.42L178.54,216.64L178.67,217.86L179.51,216.64L179.52,217.86L182.61,212.99L182.71,211.78L183.28,208.13L183.29,209.34L183.71,208.13L183.73,210.56L184.39,209.34L184.56,208.13L185.25,209.34L185.54,208.13L186.28,206.91L186.46,205.7L187.22,203.26L187.36,202.05L187.53,203.26L187.68,200.83L187.69,202.05L188.49,200.83L189.85,192.32L189.85,194.75L190.12,193.54L190.45,191.1L190.76,192.32L191.28,191.1L191.48,188.67L191.94,191.1L192.2,189.89L192.58,187.46L193.14,186.24L194.3,185.02L194.3,186.24L194.38,185.02L194.41,186.24L195.75,185.02L196.48,186.24L197.21,185.02L197.43,183.81L197.43,185.02L199.28,183.81L199.97,182.59L199.99,183.81L199.99,185.02L200.37,183.81L201.2,185.02L201.2,186.24L201.89,186.24L202.07,185.02L203.03,182.59L203.75,181.38L204.4,177.73L204.77,178.94L206.15,174.08L206.47,175.3L207.89,174.08L208.11,172.86L209.1,171.65L209.22,172.86L209.93,171.65L211.72,168L212.02,169.22L212.38,165.57L213.12,164.35L213.55,166.78L213.59,165.57L213.86,164.35L214.6,161.92L214.81,163.14L214.85,164.35L214.87,168L215.6,164.35L215.65,165.57L216.03,163.14L216.11,169.22L216.11,170.43L217.29,166.78L217.41,168L217.48,169.22L217.95,165.57L218.08,168L218.12,169.22L218.77,172.86L218.77,174.08L219.62,189.89L219.64,188.67L219.84,195.97L220.43,194.75L220.59,195.97L221.02,191.1L221.02,192.32L221.18,193.54L221.45,194.75L221.61,192.32L221.72,191.1L222.68,186.24L222.98,185.02L223.45,181.38L223.49,180.16L223.6,185.02L224.52,183.81L226.51,181.38L226.54,180.16L227.12,174.08L227.49,172.86L227.94,174.08L229.58,172.86L230.73,170.43L230.8,169.22L231.65,168L232.06,169.22L232.79,166.78L234.63,165.57L235.21,163.14L235.29,161.92L235.44,159.49L236.17,158.27L236.3,159.49L236.48,158.27L237.63,157.06L237.94,153.41L237.96,160.7L237.97,161.92L237.97,163.14L238.51,158.27L238.94,157.06L239.15,158.27L240.1,157.06L240.26,158.27L240.49,157.06L241.08,158.27L241.15,157.06L241.33,161.92L241.76,159.49L242.02,160.7L242.33,159.49L242.35,161.92L242.45,161.92L242.46,163.14L243.46,159.49L243.9,158.27L244.31,155.84L244.45,161.92L244.82,160.7L245.12,159.49L245.27,160.7L245.3,161.92L245.39,160.7L245.69,163.14L246.01,164.35L246.09,161.92L246.13,172.86L246.14,174.08L246.25,172.86L246.65,192.32L246.8,191.1L246.93,192.32L246.93,193.54L247.37,193.54L247.91,192.32L248.94,187.46L249.03,188.67L250.33,180.16L250.47,181.38L250.75,180.16L251.97,176.51L251.98,177.73L252.12,178.94L252.71,175.3L253.02,174.08L253.21,172.86L253.85,174.08L254.47,168L254.93,166.78L255.4,161.92L255.42,163.14L255.95,164.35L256.76,159.49L256.94,158.27L258.2,150.98L258.63,149.76L258.83,148.54L259.86,147.33L261.27,140.03L261.69,138.82L262.67,135.17L262.71,136.38L264.05,130.3L264.71,129.09L266.68,123.01L266.69,124.22L269.65,108.42L269.87,109.63L269.88,112.06L270.8,110.85L270.8,112.06L271.51,108.42L272.14,107.2L272.43,108.42L273.58,107.2L273.88,103.55L276.31,104.77L276.47,132.74L277.37,131.52L278.55,132.74L278.7,131.52L278.7,130.3L278.78,133.95L278.96,131.52L279.56,132.74L282.44,131.52L283.17,130.3L283.72,126.66L283.73,125.44L283.85,127.87L284.37,126.66L284.49,125.44L284.54,126.66L285.47,125.44L286.64,131.52L286.75,130.3L286.94,129.09L286.97,131.52L287.4,129.09L287.64,127.87L288.39,125.44L288.48,124.22L288.86,121.79L289.22,123.01L289.22,124.22L289.51,136.38L290.44,135.17L290.62,136.38L291.12,133.95L291.13,135.17L291.13,136.38L292.14,133.95L292.31,135.17L292.41,132.74L292.86,133.95L293.23,135.17L293.69,136.38L294.21,135.17L295.66,130.3L295.97,129.09L296.29,131.52L296.44,126.66L296.56,127.87L296.61,126.66L297.16,127.87L298.29,126.66L298.31,127.87L298.85,125.44L299.2,124.22L299.51,119.36L299.78,120.58L300.16,121.79L300.17,126.66L300.36,124.22L301.38,123.01L302.1,133.95L302.1,132.74L302.21,131.52L302.24,130.3L302.55,141.25L302.69,141.25L302.79,142.46L302.84,150.98L303.53,148.54L303.88,149.76L304.59,144.9L304.75,146.11L305.42,143.68L305.95,142.46L305.98,143.68L306.26,140.03L307.07,138.82L307.3,140.03L307.31,138.82L307.93,137.6L308.24,141.25L308.35,137.6L308.81,136.38L309.2,132.74L309.83,131.52L310.03,130.3L311.35,129.09L312.01,125.44L312.07,124.22L313.27,116.93L314.25,115.71L316.94,107.2L318.04,105.98L318.81,103.55L319.62,102.34L319.76,99.9L320.5,101.12L320.85,119.36L321.05,118.14L321.33,119.36L321.61,118.14L321.63,120.58L321.97,119.36L322.6,120.58L323.11,119.36L323.84,120.58L324.96,116.93L325.9,115.71L327.18,114.5L327.52,115.71L327.57,116.93L328.57,115.71L329.08,113.28L329.54,114.5L329.71,113.28L330.14,114.5L330.16,115.71L330.17,116.93L330.84,114.5L331.51,115.71L332.49,149.76L332.78,148.54L332.94,144.9L333.39,149.76L333.54,150.98L334.97,140.03L335.32,138.82L335.44,141.25L335.9,140.03L336.33,138.82L337.31,141.25L337.69,140.03L338.67,138.82L338.68,140.03L339.28,138.82L339.5,137.6L339.84,136.38L340.25,137.6L340.62,136.38L341.21,135.17L341.46,133.95L341.66,131.52L342.76,130.3L343.03,129.09L344.12,127.87L345.7,123.01L345.71,124.22L345.73,125.44L346.68,120.58L347.21,121.79L348.05,116.93L348.05,118.14L348.54,116.93L348.59,118.14L349.2,115.71L349.21,114.5L349.32,112.06L350.61,110.85L351.45,108.42L351.48,107.2L352.3,104.77L352.62,103.55L353.55,108.42L353.93,107.2L354.11,105.98L355.61,103.55L355.82,104.77L356.91,102.34L357.47,101.12L359.01,96.26L359.61,95.04L359.98,93.82L360.19,95.04L360.25,96.26L360.27,95.04L361.14,93.82L362.25,91.39L362.36,90.18L363.33,88.96L363.35,90.18L363.42,107.2L364.06,103.55L364.32,104.77L364.93,102.34L365.17,101.12L365.91,102.34L366.82,101.12L367.43,97.47L367.54,98.69L367.82,97.47L369.09,95.04L369.92,93.82L370.54,91.39L370.54,90.18L370.54,84.1L371.79,82.88L372.8,79.23L374.29,80.45L374.29,82.88L374.7,79.23L374.71,80.45L375.05,79.23L375.54,80.45L375.86,79.23L375.87,78.02L376.12,79.23L376.98,78.02L377.12,76.8L377.13,78.02L378.43,79.23L379.06,78.02L379.11,79.23L379.28,80.45L379.28,81.66L379.89,81.66L380.19,82.88L380.39,96.26L381.36,97.47L382.36,95.04L382.88,93.82L383,91.39L383.04,95.04L383.46,96.26L384.65,87.74L384.66,88.96L384.66,87.74L384.69,93.82L385,91.39L385.55,90.18L386.84,86.53L387.95,85.31L388.65,81.66L389.35,80.45L389.72,76.8L390.19,79.23L390.44,78.02L391.45,71.94L391.45,73.15L392.87,71.94L393.63,65.86L393.64,68.29L394.45,67.07L394.77,68.29L394.81,67.07L395.31,65.86L395.86,63.42L396.5,64.64L397.44,60.99L398.07,59.78L398.67,57.34L398.9,58.56L399.03,59.78L399.34,60.99L399.55,59.78L400.71,60.99L403.06,52.48L403.34,51.26L404.31,50.05L405.03,51.26L406.11,47.62L406.19,46.4L406.25,47.62L406.42,42.75L407.03,43.97L407.1,41.54L408.24,40.32L408.39,37.89L408.58,40.32L408.83,41.54L409.23,40.32L409.39,41.54L409.42,42.75L409.69,45.18L410.22,43.97L411.24,36.67L411.28,40.32L411.93,39.1L412.01,37.89L412.22,40.32L412.45,40.32L412.62,41.54L413.4,36.67L413.72,37.89L413.85,41.54L414.34,36.67L414.67,35.46L415.24,33.02L415.25,34.24L415.31,35.46L415.85,30.59L415.95,33.02L416.21,34.24L416.38,31.81L416.51,43.97L416.51,45.18L416.91,50.05L417.2,39.1L417.27,40.32L417.88,47.62L417.91,43.97L418.03,45.18L419.7,36.67L419.75,37.89L419.89,50.05L420.29,45.18L420.57,43.97L420.61,46.4L421.13,43.97L421.7,42.75L422.34,46.4L422.61,45.18L422.84,43.97L422.98,46.4L423.06,45.18L423.63,43.97L424.26,53.7L424.29,52.48L424.66,51.26L424.73,50.05L425.05,53.7L425.32,52.48L425.65,51.26L426.07,47.62L426.24,50.05L426.77,48.83L427.19,45.18L427.58,47.62L427.58,48.83L428.42,65.86L428.63,64.64L428.7,63.42L428.71,64.64L429.05,62.21L429.88,60.99L430.01,64.64L430.98,65.86L432.07,63.42L432.11,62.21L432.26,63.42L432.63,62.21L433.09,60.99L433.54,58.56L433.66,62.21L433.79,60.99L434.03,59.78L434.67,57.34L435.02,58.56L435.63,64.64L435.85,62.21L435.88,60.99L436.57,64.64L436.72,63.42L437.1,54.91L437.47,62.21L437.57,60.99L437.85,57.34L437.96,64.64L437.96,65.86L438.55,57.34L438.67,59.78L438.8,58.56L439.15,54.91L439.37,56.13L439.56,57.34L439.8,54.91L439.96,64.64L439.96,65.86L440.25,81.66L440.67,76.8L440.76,78.02L440.77,79.23L441.52,78.02L441.75,75.58L441.81,85.31L441.93,84.1L442.22,82.88L442.32,84.1L442.72,82.88L442.76,84.1L442.86,81.66L443.47,80.45L444.09,76.8L444.28,75.58L445.01,69.5L445.29,73.15L445.29,74.37L445.44,71.94L445.57,75.58L445.72,75.58L445.72,76.8L446.51,78.02L446.65,76.8L447.28,78.02L448.24,65.86L448.25,67.07L448.25,68.29L448.51,69.5L448.68,67.07L449.16,65.86L449.18,67.07L449.75,57.34L449.79,59.78L450.58,58.56L451.06,54.91L451.61,56.13L451.74,53.7L452.02,59.78L452.39,58.56L452.41,57.34L452.72,56.13L452.98,58.56L453.27,57.34L453.45,59.78L453.81,57.34L454.15,58.56L454.67,52.48L455.02,54.91L455.08,56.13L455.2,54.91L455.23,58.56L455.66,56.13L456.09,54.91L456.1,53.7L456.64,64.64L456.65,62.21L456.8,60.99L458.02,64.64L458.2,63.42L458.45,65.86L458.91,64.64L459.16,63.42L460.14,68.29L460.28,65.86L460.31,64.64L460.42,62.21L460.97,65.86L460.97,65.86L461.31,64.64L461.56,60.99L461.94,64.64L461.98,65.86L462.29,64.64L463.11,84.1L463.38,82.88L465.07,68.29L465.16,69.5L465.23,67.07L465.34,78.02L465.62,76.8L465.62,78.02L466.17,76.8L466.19,78.02L466.45,79.23L466.84,86.53L467.13,84.1L467.27,82.88L467.39,78.02L468.01,78.02L468.13,76.8L468.23,75.58L468.27,80.45L468.42,79.23L468.89,80.45L469.16,81.66L469.79,76.8L470.09,78.02L470.11,81.66L470.78,79.23L470.91,80.45L471.35,78.02L472.06,76.8L472.32,71.94L472.62,76.8L472.92,75.58L474.03,65.86L474.79,67.07L475.3,79.23L475.7,78.02L475.8,80.45L476.14,73.15L476.31,74.37L476.56,73.15L477.02,80.45L477.71,79.23L477.9,78.02L478.22,80.45L478.23,81.66L478.87,79.23L479.11,92.61L479.2,91.39L479.2,88.96L479.76,96.26L480.04,95.04L480.25,96.26L481.69,95.04L482.27,96.26L482.56,95.04L483.01,96.26L483.03,95.04L483.56,93.82L483.57,92.61L483.82,96.26L483.9,95.04L484.52,93.82L484.73,95.04L485.06,93.82L485.45,92.61L485.53,90.18L485.66,93.82L485.95,92.61L486.47,91.39L486.55,90.18L486.97,95.04L486.97,96.26L488.06,92.61L488.44,93.82L488.69,91.39L488.99,92.61L489,93.82L489.04,96.26L489.58,96.26L489.76,95.04L490.53,87.74L490.56,90.18L490.57,91.39L490.57,92.61L490.72,90.18L491.56,91.39L491.56,90.18L491.83,90.18L492.98,88.96L493.52,85.31L493.77,87.74L493.86,86.53L494.49,81.66L494.68,80.45L495.33,82.88L495.36,80.45L495.51,79.23L496.32,78.02L496.88,79.23L496.89,81.66L497.43,81.66L497.72,80.45L497.72,79.23L498.42,81.66L498.61,80.45L498.71,79.23L499.61,78.02L500.22,79.23L500.65,78.02L501.4,73.15L501.63,71.94L501.65,73.15L501.8,71.94L502.51,70.72L502.77,73.15L503.21,71.94L503.32,73.15L503.73,68.29L503.89,70.72L504.17,71.94L504.42,68.29L506.18,69.5L506.51,65.86L507.14,67.07L507.39,79.23L507.83,75.58L507.95,76.8L508.08,79.23L508.65,78.02L509.05,76.8L509.36,73.15L510.3,71.94L510.42,69.5L511.43,68.29L512.09,65.86L512.19,64.64L512.32,62.21L513.73,63.42L514.14,81.66L514.42,79.23L514.5,78.02L514.56,80.45L515.29,79.23L516.22,75.58L516.22,76.8L516.94,82.88L516.98,81.66L517.41,80.45L518.04,75.58L518.07,76.8L518.51,75.58L520.97,70.72L521.29,69.5L521.91,67.07L522.38,65.86L523.33,63.42L523.38,62.21L523.58,63.42L524.21,62.21L524.86,59.78L526.35,58.56L527.89,54.91L528.02,53.7L529.26,47.62L529.26,48.83L529.29,47.62L529.34,51.26L529.9,48.83L530.11,47.62L530.94,39.1L531.08,37.89L531.64,34.24L534.59,33.02L536.04,25.73L537.86,24.51L537.88,23.3L538.82,22.08L538.84,23.3L539.35,19.65L539.66,18.43L540,16" style="vector-effect: none; fill: none; stroke: rgb(255, 127, 14); stroke-opacity: 1; stroke-width: 2px; opacity: 1;"/></g><g class="points"/><g class="text"/></g></g></g></g><g class="zerolinelayer-above"/><path class="xlines-above crisp" d="M0,0" style="fill: none;"/><path class="ylines-above crisp" d="M0,0" style="fill: none;"/><g class="overlines-above"/><g class="xaxislayer-above"><g class="xtick"><text text-anchor="middle" x="0" y="439" transform="translate(100.66,0)" style="font-family: 'Open Sans'; font-size: 18px; fill: rgb(255, 255, 255); fill-opacity: 1; white-space: pre;">2016</text></g><g class="xtick"><text text-anchor="middle" x="0" y="439" style="font-family: 'Open Sans'; font-size: 18px; fill: rgb(255, 255, 255); fill-opacity: 1; white-space: pre;" transform="translate(203.18,0)">2018</text></g><g class="xtick"><text text-anchor="middle" x="0" y="439" style="font-family: 'Open Sans'; font-size: 18px; fill: rgb(255, 255, 255); fill-opacity: 1; white-space: pre;" transform="translate(305.56,0)">2020</text></g><g class="xtick"><text text-anchor="middle" x="0" y="439" style="font-family: 'Open Sans'; font-size: 18px; fill: rgb(255, 255, 255); fill-opacity: 1; white-space: pre;" transform="translate(408.08,0)">2022</text></g><g class="xtick"><text text-anchor="middle" x="0" y="439" style="font-family: 'Open Sans'; font-size: 18px; fill: rgb(255, 255, 255); fill-opacity: 1; white-space: pre;" transform="translate(510.46,0)">2024</text></g><g class="xtick"><text text-anchor="middle" x="0" y="439" style="font-family: 'Open Sans'; font-size: 18px; fill: rgb(255, 255, 255); fill-opacity: 1; white-space: pre;" transform="translate(612.99,0)">2026</text></g></g><g class="yaxislayer-above"><g class="ytick"><text text-anchor="end" x="79" y="6.3" transform="translate(0,420)" style="font-family: 'Open Sans'; font-size: 18px; fill: rgb(255, 255, 255); fill-opacity: 1; white-space: pre;">0</text></g><g class="ytick"><text text-anchor="end" x="79" y="6.3" style="font-family: 'Open Sans'; font-size: 18px; fill: rgb(255, 255, 255); fill-opacity: 1; white-space: pre;" transform="translate(0,359.2)">50</text></g><g class="ytick"><text text-anchor="end" x="79" y="6.3" style="font-family: 'Open Sans'; font-size: 18px; fill: rgb(255, 255, 255); fill-opacity: 1; white-space: pre;" transform="translate(0,298.4)">100</text></g><g class="ytick"><text text-anchor="end" x="79" y="6.3" style="font-family: 'Open Sans'; font-size: 18px; fill: rgb(255, 255, 255); fill-opacity: 1; white-space: pre;" transform="translate(0,237.6)">150</text></g><g class="ytick"><text text-anchor="end" x="79" y="6.3" style="font-family: 'Open Sans'; font-size: 18px; fill: rgb(255, 255, 255); fill-opacity: 1; white-space: pre;" transform="translate(0,176.8)">200</text></g><g class="ytick"><text text-anchor="end" x="79" y="6.3" style="font-family: 'Open Sans'; font-size: 18px; fill: rgb(255, 255, 255); fill-opacity: 1; white-space: pre;" transform="translate(0,116)">250</text></g></g><g class="overaxes-above"/></g></g><g class="polarlayer"/><g class="smithlayer"/><g class="ternarylayer"/><g class="geolayer"/><g class="funnelarealayer"/><g class="pielayer"/><g class="iciclelayer"/><g class="treemaplayer"/><g class="sunburstlayer"/><g class="glimages"/><defs id="topdefs-9b3918"><g class="clips"/></defs><g class="layer-above"><g class="imagelayer"/><g class="shapelayer"/></g><g class="infolayer"><g class="g-gtitle"><text class="gtitle" x="35" y="50" text-anchor="start" dy="0em" style="opacity: 1; font-family: 'Open Sans'; font-size: 25px; fill: rgb(255, 255, 255); fill-opacity: 1; white-space: pre;">MultiQC/MultiQC - Open Issues Over Time</text></g><g class="g-xtitle"><text class="xtitle" x="350" y="472.9" text-anchor="middle" style="opacity: 1; font-family: 'Open Sans'; font-size: 22px; fill: rgb(255, 255, 255); fill-opacity: 1; white-space: pre;">Date</text></g><g class="g-ytitle"><text class="ytitle" transform="rotate(-90,29.799999999999997,260)" x="29.799999999999997" y="260" text-anchor="middle" style="opacity: 1; font-family: 'Open Sans'; font-size: 22px; fill: rgb(255, 255, 255); fill-opacity: 1; white-space: pre;">Number of Open Issues</text></g></g></svg>