<svg class="main-svg" xmlns="http://www.w3.org/2000/svg" xmlns:xlink="http://www.w3.org/1999/xlink" width="700" height="500" style="" viewBox="0 0 700 500"><rect x="0" y="0" width="700" height="500" style="fill: rgb(0, 0, 0); fill-opacity: 0;"/><defs id="defs-699d9d"><g class="clips"><clipPath id="clip699d9dxyplot" class="plotclip"><rect width="540" height="320"/></clipPath><clipPath class="axesclip" id="clip699d9dx"><rect x="80" y="0" width="540" height="500"/></clipPath><clipPath class="axesclip" id="clip699d9dy"><rect x="0" y="100" width="700" height="320"/></clipPath><clipPath class="axesclip" id="clip699d9dxy"><rect x="80" y="100" width="540" height="320"/></clipPath></g><g class="gradients"/><g class="patterns"/></defs><g class="bglayer"><rect class="bg" x="80" y="100" width="540" height="320" style="fill: rgb(0, 0, 0); fill-opacity: 0; stroke-width: 0;"/></g><g class="layer-below"><g class="imagelayer"/><g class="shapelayer"/></g><g class="cartesianlayer"><g class="subplot xy"><g class="layer-subplot"><g class="shapelayer"/><g class="imagelayer"/></g><g class="minor-gridlayer"><g class="x"/><g class="y"/></g><g class="gridlayer"><g class="x"><path class="xgrid crisp" transform="translate(101.26,0)" d="M0,100v320" style="stroke: rgb(255, 255, 255); stroke-opacity: 1; stroke-width: 1px;"/><path class="xgrid crisp" transform="translate(206.73000000000002,0)" d="M0,100v320" style="stroke: rgb(255, 255, 255); stroke-opacity: 1; stroke-width: 1px;"/><path class="xgrid crisp" transform="translate(312.07,0)" d="M0,100v320" style="stroke: rgb(255, 255, 255); stroke-opacity: 1; stroke-width: 1px;"/><path class="xgrid crisp" transform="translate(417.54,0)" d="M0,100v320" style="stroke: rgb(255, 255, 255); stroke-opacity: 1; stroke-width: 1px;"/><path class="xgrid crisp" transform="translate(522.88,0)" d="M0,100v320" style="stroke: rgb(255, 255, 255); stroke-opacity: 1; stroke-width: 1px;"/></g><g class="y"><path class="ygrid crisp" transform="translate(0,335.46000000000004)" d="M80,0h540" style="stroke: rgb(255, 255, 255); stroke-opacity: 1; stroke-width: 1px;"/><path class="ygrid crisp" transform="translate(0,250.92)" d="M80,0h540" style="stroke: rgb(255, 255, 255); stroke-opacity: 1; stroke-width: 1px;"/><path class="ygrid crisp" transform="translate(0,166.38)" d="M80,0h540" style="stroke: rgb(255, 255, 255); stroke-opacity: 1; stroke-width: 1px;"/></g></g><g class="zerolinelayer"><path class="yzl zl crisp" transform="translate(0,420)" d="M80,0h540" style="stroke: rgb(255, 255, 255); stroke-opacity: 1; stroke-width: 2px;"/></g><g class="layer-between"><g class="shapelayer"/><g class="imagelayer"/></g><path class="xlines-below"/><path class="ylines-below"/><g class="overlines-below"/><g class="xaxislayer-below"/><g class="yaxislayer-below"/><g class="overaxes-below"/><g class="overplot"><g class="xy" transform="translate(80,100)" clip-path="url(#clip699d9dxyplot)"><g class="scatterlayer mlayer"><g class="trace scatter trace49e1ce" style="stroke-miterlimit: 2;"><g class="fills"><g><path class="js-fill" d="M540,320L0,320L0,319.83L0,319.49L1.99,319.32L3.87,318.31L4.59,318.14L5.2,316.96L5.59,316.79L6.19,315.77L6.5,315.6L8.65,312.05L9.05,311.88L10.22,310.87L10.22,310.7L10.67,310.02L11.11,309.86L12.22,308.84L12.22,308.67L12.94,306.98L12.98,306.81L15.01,304.44L16,304.28L17.99,303.26L18.48,303.09L18.87,302.75L21.91,302.59L27.15,300.05L27.27,299.88L27.98,299.54L29.88,299.37L32.89,297.51L34.11,297.34L38.1,294.64L38.1,294.47L38.41,293.62L39.06,293.45L41.26,291.43L41.26,291.26L41.96,290.41L42.26,290.24L44.55,288.21L45.85,288.04L48.04,286.18L48.04,286.02L49.49,284.83L50.28,284.66L52.59,283.31L53.54,283.14L56.65,281.62L56.66,281.45L58.99,280.1L59.28,279.93L60.62,278.58L62.23,278.41L65.55,275.36L65.65,275.19L65.77,274.86L66.55,274.69L69.17,273.33L69.21,273.17L69.53,272.83L70.29,272.66L71.46,272.32L72.43,272.15L73.27,270.97L73.68,270.8L79.66,268.77L79.77,268.6L81.94,267.08L82.57,266.91L82.91,266.06L83.82,265.9L84,265.22L85.17,265.05L87.71,263.19L87.76,263.02L99.32,257.95L99.73,257.78L99.81,257.61L101.51,257.44L102.16,256.77L102.57,256.6L103.14,254.23L103.14,254.06L103.9,253.21L104.15,253.05L107.79,250.85L108.17,250.68L111.03,249.16L111.21,248.99L121.34,245.44L122.06,245.27L122.77,244.76L123.05,244.59L123.79,243.92L124.03,243.75L125.09,242.9L127.13,242.73L128.36,241.38L128.39,241.21L130.76,240.03L130.93,239.86L132.94,238.84L133,238.67L133.47,238.17L134.19,238L135.49,236.81L135.89,236.65L137.15,236.14L138.24,235.97L140.53,235.12L140.99,234.95L142.51,233.26L142.96,233.09L143.55,232.59L143.91,232.42L147.46,230.56L147.47,230.39L148.3,229.71L149.53,229.54L154.39,227.68L154.43,227.52L156.54,226.16L157.07,225.99L162.15,224.47L162.3,224.3L163.12,223.63L163.3,223.46L175.56,218.22L175.71,218.05L175.82,217.71L177.65,217.54L183.53,215.34L183.63,215.17L188.25,213.48L188.41,213.31L189,212.64L189.59,212.47L189.89,212.13L190.89,211.96L191.65,211.62L191.84,211.45L192.61,210.78L192.76,210.61L193.09,209.93L193.92,209.76L195.94,208.07L196.8,207.9L198.13,206.72L198.71,206.55L205.9,204.86L206.15,204.69L209.79,203.51L209.82,203.34L212.09,202.32L213.88,202.15L215.13,201.82L215.99,201.65L219.74,200.12L220.03,199.96L225.97,196.07L226.02,195.9L226.78,195.56L226.95,195.39L229.94,192.52L230.99,192.35L233.31,191.33L233.45,191.16L234.05,190.83L236.2,190.66L242,188.97L242.07,188.8L242.98,188.29L243.3,188.12L244.83,187.27L245.01,187.11L245.83,186.26L247.03,186.09L248.73,184.91L249.31,184.74L250.05,183.89L250.48,183.72L251.2,182.88L251.3,182.71L252.19,182.03L252.46,181.86L253.35,181.02L253.37,180.85L256.36,179.16L256.5,178.99L257.55,177.98L257.98,177.81L261.29,176.12L261.29,175.95L272.75,168.85L273.65,168.68L274.76,167.66L275.31,167.49L275.9,166.65L276.28,166.48L281.77,164.45L285.37,164.28L291.9,162.76L291.91,162.59L295.4,161.07L295.46,160.9L297.8,159.38L298.82,159.21L300.85,157.86L302.03,157.69L304.73,156.33L304.83,156.16L305.64,155.32L306.89,155.15L309.02,153.12L310.08,152.95L310.98,151.43L311.05,151.26L311.75,150.75L312.09,150.59L314.23,149.4L314.78,149.23L316.17,148.39L316.81,148.22L318,146.87L318.11,146.7L321.35,145.17L321.36,145.01L330.29,141.45L330.29,141.29L336.61,139.6L338.04,139.43L344,136.89L344.02,136.72L344.99,135.71L345.59,135.54L356.52,131.14L356.52,130.97L358.08,130.13L358.59,129.96L362.79,127.76L363.73,127.59L371.55,125.05L372.33,124.89L379.73,121.5L380.59,121.33L381.22,120.49L381.22,120.32L381.22,119.98L382.51,119.81L383.56,119.31L385.42,119.14L385.87,118.63L386.7,118.46L386.71,118.29L387.85,118.12L388,117.95L389.57,117.78L394.68,115.76L394.79,115.59L397.99,113.22L399.14,113.05L399.86,112.54L400.58,112.37L402.24,110.85L402.7,110.68L402.74,110.51L404.19,110.34L404.98,109.5L405.82,109.33L412.96,106.63L413.68,106.46L418.03,104.43L418.05,104.26L418.84,103.75L420.01,103.58L421.23,102.91L422.05,102.74L428.36,97.49L428.38,97.33L429.23,96.48L429.23,96.31L429.97,94.96L430.23,94.79L434.11,91.58L434.8,91.41L441.42,86.34L442.27,86.17L445.68,85.15L445.83,84.98L449.02,82.28L449.13,82.11L450.06,79.74L450.19,79.57L452.48,75.52L453.05,75.35L453.38,74.67L454.25,74.5L455.63,72.98L456.25,72.81L456.9,72.3L457.09,72.13L459.65,70.27L460.19,70.1L461.61,67.23L462.12,67.06L464.07,65.03L464.72,64.86L465.58,63.68L465.78,63.51L467.48,62.33L467.48,62.16L468.33,61.14L468.66,60.97L470.64,58.95L471.42,58.78L473.59,57.59L473.7,57.42L476.43,54.72L476.44,54.55L477.71,53.2L477.72,53.03L478.44,52.35L478.48,52.18L481.84,48.12L482.47,47.96L483.34,46.94L483.95,46.77L485.82,45.25L485.94,45.08L487.08,44.07L487.38,43.9L488.99,43.39L489.42,43.22L490.71,41.02L491.49,40.85L493.88,39.16L495.58,38.99L495.63,38.83L496.48,38.66L499.83,36.8L499.97,36.63L504,34.6L504.02,34.43L505.73,33.41L506.01,33.25L508.11,32.23L508.24,32.06L514.26,29.02L515.09,28.85L515.86,28.17L516.09,28L516.27,27.67L517,27.5L518.9,26.31L518.97,26.14L522.04,25.13L522.09,24.96L523.32,23.61L523.73,23.44L524.05,22.93L525.01,22.76L525.14,22.42L526.18,22.26L530.23,20.4L530.4,20.23L532.98,18.71L533.01,18.54L540,16" style="fill: rgb(255, 127, 14); fill-opacity: 0.5; stroke-width: 0;"/></g></g><g class="errorbars"/><g class="lines"><path class="js-line" d="M0,319.83L0,319.49L1.99,319.32L3.87,318.31L4.59,318.14L5.2,316.96L5.59,316.79L6.19,315.77L6.5,315.6L8.65,312.05L9.05,311.88L10.22,310.87L10.22,310.7L10.67,310.02L11.11,309.86L12.22,308.84L12.22,308.67L12.94,306.98L12.98,306.81L15.01,304.44L16,304.28L17.99,303.26L18.48,303.09L18.87,302.75L21.91,302.59L27.15,300.05L27.27,299.88L27.98,299.54L29.88,299.37L32.89,297.51L34.11,297.34L38.1,294.64L38.1,294.47L38.41,293.62L39.06,293.45L41.26,291.43L41.26,291.26L41.96,290.41L42.26,290.24L44.55,288.21L45.85,288.04L48.04,286.18L48.04,286.02L49.49,284.83L50.28,284.66L52.59,283.31L53.54,283.14L56.65,281.62L56.66,281.45L58.99,280.1L59.28,279.93L60.62,278.58L62.23,278.41L65.55,275.36L65.65,275.19L65.77,274.86L66.55,274.69L69.17,273.33L69.21,273.17L69.53,272.83L70.29,272.66L71.46,272.32L72.43,272.15L73.27,270.97L73.68,270.8L79.66,268.77L79.77,268.6L81.94,267.08L82.57,266.91L82.91,266.06L83.82,265.9L84,265.22L85.17,265.05L87.71,263.19L87.76,263.02L99.32,257.95L99.73,257.78L99.81,257.61L101.51,257.44L102.16,256.77L102.57,256.6L103.14,254.23L103.14,254.06L103.9,253.21L104.15,253.05L107.79,250.85L108.17,250.68L111.03,249.16L111.21,248.99L121.34,245.44L122.06,245.27L122.77,244.76L123.05,244.59L123.79,243.92L124.03,243.75L125.09,242.9L127.13,242.73L128.36,241.38L128.39,241.21L130.76,240.03L130.93,239.86L132.94,238.84L133,238.67L133.47,238.17L134.19,238L135.49,236.81L135.89,236.65L137.15,236.14L138.24,235.97L140.53,235.12L140.99,234.95L142.51,233.26L142.96,233.09L143.55,232.59L143.91,232.42L147.46,230.56L147.47,230.39L148.3,229.71L149.53,229.54L154.39,227.68L154.43,227.52L156.54,226.16L157.07,225.99L162.15,224.47L162.3,224.3L163.12,223.63L163.3,223.46L175.56,218.22L175.71,218.05L175.82,217.71L177.65,217.54L183.53,215.34L183.63,215.17L188.25,213.48L188.41,213.31L189,212.64L189.59,212.47L189.89,212.13L190.89,211.96L191.65,211.62L191.84,211.45L192.61,210.78L192.76,210.61L193.09,209.93L193.92,209.76L195.94,208.07L196.8,207.9L198.13,206.72L198.71,206.55L205.9,204.86L206.15,204.69L209.79,203.51L209.82,203.34L212.09,202.32L213.88,202.15L215.13,201.82L215.99,201.65L219.74,200.12L220.03,199.96L225.97,196.07L226.02,195.9L226.78,195.56L226.95,195.39L229.94,192.52L230.99,192.35L233.31,191.33L233.45,191.16L234.05,190.83L236.2,190.66L242,188.97L242.07,188.8L242.98,188.29L243.3,188.12L244.83,187.27L245.01,187.11L245.83,186.26L247.03,186.09L248.73,184.91L249.31,184.74L250.05,183.89L250.48,183.72L251.2,182.88L251.3,182.71L252.19,182.03L252.46,181.86L253.35,181.02L253.37,180.85L256.36,179.16L256.5,178.99L257.55,177.98L257.98,177.81L261.29,176.12L261.29,175.95L272.75,168.85L273.65,168.68L274.76,167.66L275.31,167.49L275.9,166.65L276.28,166.48L281.77,164.45L285.37,164.28L291.9,162.76L291.91,162.59L295.4,161.07L295.46,160.9L297.8,159.38L298.82,159.21L300.85,157.86L302.03,157.69L304.73,156.33L304.83,156.16L305.64,155.32L306.89,155.15L309.02,153.12L310.08,152.95L310.98,151.43L311.05,151.26L311.75,150.75L312.09,150.59L314.23,149.4L314.78,149.23L316.17,148.39L316.81,148.22L318,146.87L318.11,146.7L321.35,145.17L321.36,145.01L330.29,141.45L330.29,141.29L336.61,139.6L338.04,139.43L344,136.89L344.02,136.72L344.99,135.71L345.59,135.54L356.52,131.14L356.52,130.97L358.08,130.13L358.59,129.96L362.79,127.76L363.73,127.59L371.55,125.05L372.33,124.89L379.73,121.5L380.59,121.33L381.22,120.49L381.22,120.32L381.22,119.98L382.51,119.81L383.56,119.31L385.42,119.14L385.87,118.63L386.7,118.46L386.71,118.29L387.85,118.12L388,117.95L389.57,117.78L394.68,115.76L394.79,115.59L397.99,113.22L399.14,113.05L399.86,112.54L400.58,112.37L402.24,110.85L402.7,110.68L402.74,110.51L404.19,110.34L404.98,109.5L405.82,109.33L412.96,106.63L413.68,106.46L418.03,104.43L418.05,104.26L418.84,103.75L420.01,103.58L421.23,102.91L422.05,102.74L428.36,97.49L428.38,97.33L429.23,96.48L429.23,96.31L429.97,94.96L430.23,94.79L434.11,91.58L434.8,91.41L441.42,86.34L442.27,86.17L445.68,85.15L445.83,84.98L449.02,82.28L449.13,82.11L450.06,79.74L450.19,79.57L452.48,75.52L453.05,75.35L453.38,74.67L454.25,74.5L455.63,72.98L456.25,72.81L456.9,72.3L457.09,72.13L459.65,70.27L460.19,70.1L461.61,67.23L462.12,67.06L464.07,65.03L464.72,64.86L465.58,63.68L465.78,63.51L467.48,62.33L467.48,62.16L468.33,61.14L468.66,60.97L470.64,58.95L471.42,58.78L473.59,57.59L473.7,57.42L476.43,54.72L476.44,54.55L477.71,53.2L477.72,53.03L478.44,52.35L478.48,52.18L481.84,48.12L482.47,47.96L483.34,46.94L483.95,46.77L485.82,45.25L485.94,45.08L487.08,44.07L487.38,43.9L488.99,43.39L489.42,43.22L490.71,41.02L491.49,40.85L493.88,39.16L495.58,38.99L495.63,38.83L496.48,38.66L499.83,36.8L499.97,36.63L504,34.6L504.02,34.43L505.73,33.41L506.01,33.25L508.11,32.23L508.24,32.06L514.26,29.02L515.09,28.85L515.86,28.17L516.09,28L516.27,27.67L517,27.5L518.9,26.31L518.97,26.14L522.04,25.13L522.09,24.96L523.32,23.61L523.73,23.44L524.05,22.93L525.01,22.76L525.14,22.42L526.18,22.26L530.23,20.4L530.4,20.23L532.98,18.71L533.01,18.54L540,16" style="vector-effect: none; fill: none; stroke: rgb(255, 127, 14); stroke-opacity: 1; stroke-width: 2px; opacity: 1;"/></g><g class="points"/><g class="text"/></g></g></g></g><g class="zerolinelayer-above"/><path class="xlines-above crisp" d="M0,0" style="fill: none;"/><path class="ylines-above crisp" d="M0,0" style="fill: none;"/><g class="overlines-above"/><g class="xaxislayer-above"><g class="xtick"><text text-anchor="middle" x="0" y="439" transform="translate(101.26,0)" style="font-family: 'Open Sans'; font-size: 18px; fill: rgb(0, 0, 0); fill-opacity: 1; white-space: pre;">2016</text></g><g class="xtick"><text text-anchor="middle" x="0" y="439" style="font-family: 'Open Sans'; font-size: 18px; fill: rgb(0, 0, 0); fill-opacity: 1; white-space: pre;" transform="translate(206.73000000000002,0)">2018</text></g><g class="xtick"><text text-anchor="middle" x="0" y="439" style="font-family: 'Open Sans'; font-size: 18px; fill: rgb(0, 0, 0); fill-opacity: 1; white-space: pre;" transform="translate(312.07,0)">2020</text></g><g class="xtick"><text text-anchor="middle" x="0" y="439" style="font-family: 'Open Sans'; font-size: 18px; fill: rgb(0, 0, 0); fill-opacity: 1; white-space: pre;" transform="translate(417.54,0)">2022</text></g><g class="xtick"><text text-anchor="middle" x="0" y="439" style="font-family: 'Open Sans'; font-size: 18px; fill: rgb(0, 0, 0); fill-opacity: 1; white-space: pre;" transform="translate(522.88,0)">2024</text></g></g><g class="yaxislayer-above"><g class="ytick"><text text-anchor="end" x="79" y="6.3" transform="translate(0,420)" style="font-family: 'Open Sans'; font-size: 18px; fill: rgb(0, 0, 0); fill-opacity: 1; white-space: pre;">0</text></g><g class="ytick"><text text-anchor="end" x="79" y="6.3" style="font-family: 'Open Sans'; font-size: 18px; fill: rgb(0, 0, 0); fill-opacity: 1; white-space: pre;" transform="translate(0,335.46000000000004)">500</text></g><g class="ytick"><text text-anchor="end" x="79" y="6.3" style="font-family: 'Open Sans'; font-size: 18px; fill: rgb(0, 0, 0); fill-opacity: 1; white-space: pre;" transform="translate(0,250.92)">1000</text></g><g class="ytick"><text text-anchor="end" x="79" y="6.3" style="font-family: 'Open Sans'; font-size: 18px; fill: rgb(0, 0, 0); fill-opacity: 1; white-space: pre;" transform="translate(0,166.38)">1500</text></g></g><g class="overaxes-above"/></g></g><g class="polarlayer"/><g class="smithlayer"/><g class="ternarylayer"/><g class="geolayer"/><g class="funnelarealayer"/><g class="pielayer"/><g class="iciclelayer"/><g class="treemaplayer"/><g class="sunburstlayer"/><g class="glimages"/><defs id="topdefs-699d9d"><g class="clips"/></defs><g class="layer-above"><g class="imagelayer"/><g class="shapelayer"/></g><g class="infolayer"><g class="g-gtitle"><text class="gtitle" x="35" y="50" text-anchor="start" dy="0em" style="opacity: 1; font-family: 'Open Sans'; font-size: 25px; fill: rgb(0, 0, 0); fill-opacity: 1; white-space: pre;">MultiQC/MultiQC - Issues Created Over Time</text></g><g class="g-xtitle"><text class="xtitle" x="350" y="472.9" text-anchor="middle" style="opacity: 1; font-family: 'Open Sans'; font-size: 22px; fill: rgb(0, 0, 0); fill-opacity: 1; white-space: pre;">Date</text></g><g class="g-ytitle"><text class="ytitle" transform="rotate(-90,20.799999999999997,260)" x="20.799999999999997" y="260" text-anchor="middle" style="opacity: 1; font-family: 'Open Sans'; font-size: 22px; fill: rgb(0, 0, 0); fill-opacity: 1; white-space: pre;">Cumulative Issues Created</text></g></g></svg>