<svg class="main-svg" xmlns="http://www.w3.org/2000/svg" xmlns:xlink="http://www.w3.org/1999/xlink" width="700" height="500" style="" viewBox="0 0 700 500"><rect x="0" y="0" width="700" height="500" style="fill: rgb(0, 0, 0); fill-opacity: 0;"/><defs id="defs-d1faea"><g class="clips"><clipPath id="clipd1faeaxyplot" class="plotclip"><rect width="540" height="320"/></clipPath><clipPath class="axesclip" id="clipd1faeax"><rect x="80" y="0" width="540" height="500"/></clipPath><clipPath class="axesclip" id="clipd1faeay"><rect x="0" y="100" width="700" height="320"/></clipPath><clipPath class="axesclip" id="clipd1faeaxy"><rect x="80" y="100" width="540" height="320"/></clipPath></g><g class="gradients"/><g class="patterns"/></defs><g class="bglayer"><rect class="bg" x="80" y="100" width="540" height="320" style="fill: rgb(0, 0, 0); fill-opacity: 0; stroke-width: 0;"/></g><g class="layer-below"><g class="imagelayer"/><g class="shapelayer"/></g><g class="cartesianlayer"><g class="subplot xy"><g class="layer-subplot"><g class="shapelayer"/><g class="imagelayer"/></g><g class="minor-gridlayer"><g class="x"/><g class="y"/></g><g class="gridlayer"><g class="x"><path class="xgrid crisp" transform="translate(101.36,0)" d="M0,100v320" style="stroke: rgb(255, 255, 255); stroke-opacity: 1; stroke-width: 1px;"/><path class="xgrid crisp" transform="translate(207.34,0)" d="M0,100v320" style="stroke: rgb(255, 255, 255); stroke-opacity: 1; stroke-width: 1px;"/><path class="xgrid crisp" transform="translate(313.16999999999996,0)" d="M0,100v320" style="stroke: rgb(255, 255, 255); stroke-opacity: 1; stroke-width: 1px;"/><path class="xgrid crisp" transform="translate(419.15,0)" d="M0,100v320" style="stroke: rgb(255, 255, 255); stroke-opacity: 1; stroke-width: 1px;"/><path class="xgrid crisp" transform="translate(524.99,0)" d="M0,100v320" style="stroke: rgb(255, 255, 255); stroke-opacity: 1; stroke-width: 1px;"/></g><g class="y"><path class="ygrid crisp" transform="translate(0,335.18)" d="M80,0h540" style="stroke: rgb(255, 255, 255); stroke-opacity: 1; stroke-width: 1px;"/><path class="ygrid crisp" transform="translate(0,250.36)" d="M80,0h540" style="stroke: rgb(255, 255, 255); stroke-opacity: 1; stroke-width: 1px;"/><path class="ygrid crisp" transform="translate(0,165.54000000000002)" d="M80,0h540" style="stroke: rgb(255, 255, 255); stroke-opacity: 1; stroke-width: 1px;"/></g></g><g class="zerolinelayer"><path class="yzl zl crisp" transform="translate(0,420)" d="M80,0h540" style="stroke: rgb(255, 255, 255); stroke-opacity: 1; stroke-width: 2px;"/></g><g class="layer-between"><g class="shapelayer"/><g class="imagelayer"/></g><path class="xlines-below"/><path class="ylines-below"/><g class="overlines-below"/><g class="xaxislayer-below"/><g class="yaxislayer-below"/><g class="overaxes-below"/><g class="overplot"><g class="xy" transform="translate(80,100)" clip-path="url(#clipd1faeaxyplot)"><g class="scatterlayer mlayer"><g class="trace scatter tracec49912" style="stroke-miterlimit: 2;"><g class="fills"><g><path class="js-fill" d="M540,320L0,320L0,319.83L0,319.49L1.99,319.32L3.89,318.3L4.61,318.13L5.22,316.95L5.61,316.78L6.22,315.76L6.53,315.59L8.69,312.03L9.1,311.86L10.27,310.84L10.27,310.67L10.72,309.99L11.16,309.82L12.28,308.8L12.28,308.63L13,306.94L13.05,306.77L15.08,304.39L16.08,304.22L18.08,303.21L18.56,303.04L18.96,302.7L22.01,302.53L27.28,299.98L27.4,299.81L28.12,299.47L30.02,299.3L33.05,297.44L34.28,297.27L38.28,294.55L38.28,294.38L38.59,293.54L39.24,293.37L41.46,291.16L41.46,290.99L42.16,290.31L42.46,290.14L44.76,288.11L46.07,287.94L48.27,285.9L48.41,285.73L48.79,285.05L49.46,284.88L53.79,283.02L54.46,282.85L55.52,281.83L56.68,281.66L60.9,278.44L62.52,278.27L65.86,275.21L65.96,275.04L66.08,274.71L66.87,274.54L69.5,273.18L69.54,273.01L69.86,272.67L70.62,272.5L71.8,272.16L72.78,271.99L73.08,271.14L73.62,270.97L74.03,270.63L74.81,270.46L74.81,270.29L75.6,270.13L82.31,267.07L82.33,266.9L84.22,265.71L84.24,265.54L84.4,265.04L85.57,264.87L87.85,263.17L88.12,263L88.83,262.49L89.18,262.32L89.18,261.98L90.29,261.81L90.31,261.47L91.18,261.3L95.48,259.95L95.97,259.78L97.09,259.1L97.4,258.93L102.05,256.89L102.07,256.72L103.34,255.71L103.34,255.54L104.07,253.33L104.1,253.16L114.19,247.56L115.51,247.39L118.6,246.21L119.42,246.04L120.9,245.36L121.92,245.19L123.82,244L123.85,243.83L128.57,241.63L128.77,241.46L129.81,240.78L130.22,240.61L136.13,236.71L136.14,236.54L143.05,233.31L143.19,233.14L143.65,232.46L144.23,232.29L153.86,227.88L154.97,227.71L156.12,226.36L157.02,226.19L157.28,225.85L157.82,225.68L162.92,224.15L163.07,223.98L163.9,223.3L164.07,223.13L176.39,217.88L176.55,217.71L176.66,217.37L178.49,217.2L184.4,214.99L184.5,214.82L189.15,213.13L189.31,212.96L189.9,212.28L190.49,212.11L190.79,211.77L191.8,211.6L192.56,211.26L192.75,211.09L193.53,210.41L193.68,210.24L194.01,209.56L194.85,209.39L196.88,207.7L197.73,207.53L199.08,206.34L199.65,206.17L206.88,204.47L207.13,204.3L210.79,203.12L210.82,202.95L213.1,201.93L214.9,201.76L216.16,201.42L217.01,201.25L220.79,199.72L221.07,199.55L227.05,195.65L227.09,195.48L227.86,195.14L228.03,194.97L231.03,192.09L232.09,191.92L234.42,190.9L234.56,190.73L235.17,190.39L237.33,190.22L243.15,188.53L243.22,188.36L244.14,187.85L244.46,187.68L245.99,186.83L246.18,186.66L247,185.81L248.2,185.64L249.91,184.46L250.5,184.29L251.24,183.44L251.68,183.27L252.39,182.42L252.49,182.25L253.39,181.57L253.66,181.4L254.56,180.55L254.57,180.38L257.58,178.69L257.72,178.52L258.77,177.5L259.21,177.33L262.53,175.63L262.54,175.46L273.64,168.68L274.02,168.51L274.05,168.34L274.95,168.17L276.07,167.15L276.62,166.98L277.21,166.13L277.6,165.96L283.11,163.93L286.73,163.76L293.29,162.23L293.3,162.06L296.8,160.54L296.86,160.37L299.22,158.84L300.24,158.67L302.28,157.31L303.46,157.14L306.18,155.79L306.28,155.62L307.09,154.77L308.36,154.6L310.49,152.56L311.55,152.39L312.46,150.87L312.53,150.7L313.23,150.19L313.57,150.02L316.59,148.15L317.43,147.98L320.49,145.78L321.85,145.61L323.41,144.25L323.57,144.08L325.75,143.4L326.35,143.23L327.63,142.38L328.77,142.21L329.57,141.88L330.4,141.71L330.55,141.37L331.68,141.2L332.46,140.35L332.83,140.18L340.84,138.31L341.7,138.14L346.2,135.43L346.27,135.26L349.09,134.58L349.86,134.41L353.18,132.54L354.32,132.38L356.04,131.87L356.94,131.7L359.79,129.49L360.3,129.32L364.52,127.12L365.46,126.95L373.32,124.4L374.1,124.23L382.4,120.67L383.04,120.5L383.04,119.31L384.33,119.14L385.38,118.63L387.25,118.46L387.7,117.96L388.54,117.79L388.55,117.62L389.7,117.45L389.85,117.28L391.43,117.11L396.67,114.9L396.94,114.73L397.64,113.88L397.79,113.71L398.55,113.04L398.88,112.87L402.78,111.34L402.8,111.17L403.76,110.66L404.05,110.49L404.66,109.81L406.12,109.64L406.91,108.79L407.75,108.63L414.93,105.91L415.65,105.74L420.02,103.71L420.04,103.54L420.84,103.03L422.01,102.86L423.24,102.18L424.05,102.01L429.39,97.6L429.39,97.43L431.27,96.07L431.27,95.9L432.01,94.21L432.28,94.04L436.17,90.81L436.87,90.64L443.52,85.55L444.38,85.38L447.8,84.37L447.95,84.2L451.15,81.48L451.27,81.31L451.84,79.11L452.2,78.94L453.31,76.39L453.33,76.22L453.96,75.21L454.19,75.04L462.49,68.76L462.5,68.59L463.03,67.4L463.34,67.23L463.81,66.38L464.31,66.21L466.27,64.18L466.93,64.01L467.8,62.82L468,62.65L469.71,61.46L469.71,61.29L470.56,60.28L470.89,60.11L473.66,57.9L474.39,57.73L477.1,55.53L477.13,55.36L478.65,54.17L478.67,54L479.1,53.32L479.75,53.15L481.89,50.27L482.2,50.1L482.81,48.91L483.03,48.74L483.16,48.06L483.8,47.89L485.64,46.03L486.26,45.86L488.14,44.33L488.25,44.16L489.4,43.14L489.7,42.97L491.32,42.46L491.75,42.29L493.04,40.09L493.83,39.92L496.23,38.22L497.93,38.05L498.84,37.71L499.32,37.54L502.05,36.02L502.21,35.85L503.35,35.17L503.94,35L507.08,32.96L507.12,32.79L508.42,32.29L509.61,32.12L510.66,31.1L511,30.93L511.63,30.25L512.07,30.08L512.35,29.57L513.06,29.4L518.31,27.2L518.55,27.03L518.72,26.69L519.46,26.52L521.37,25.33L521.44,25.16L524.53,24.14L524.58,23.97L525.81,22.62L526.22,22.45L526.55,21.94L527.51,21.77L527.64,21.43L528.69,21.26L532.75,19.39L532.92,19.22L535.51,17.7L535.55,17.53L540,16" style="fill: rgb(255, 127, 14); fill-opacity: 0.5; stroke-width: 0;"/></g></g><g class="errorbars"/><g class="lines"><path class="js-line" d="M0,319.83L0,319.49L1.99,319.32L3.89,318.3L4.61,318.13L5.22,316.95L5.61,316.78L6.22,315.76L6.53,315.59L8.69,312.03L9.1,311.86L10.27,310.84L10.27,310.67L10.72,309.99L11.16,309.82L12.28,308.8L12.28,308.63L13,306.94L13.05,306.77L15.08,304.39L16.08,304.22L18.08,303.21L18.56,303.04L18.96,302.7L22.01,302.53L27.28,299.98L27.4,299.81L28.12,299.47L30.02,299.3L33.05,297.44L34.28,297.27L38.28,294.55L38.28,294.38L38.59,293.54L39.24,293.37L41.46,291.16L41.46,290.99L42.16,290.31L42.46,290.14L44.76,288.11L46.07,287.94L48.27,285.9L48.41,285.73L48.79,285.05L49.46,284.88L53.79,283.02L54.46,282.85L55.52,281.83L56.68,281.66L60.9,278.44L62.52,278.27L65.86,275.21L65.96,275.04L66.08,274.71L66.87,274.54L69.5,273.18L69.54,273.01L69.86,272.67L70.62,272.5L71.8,272.16L72.78,271.99L73.08,271.14L73.62,270.97L74.03,270.63L74.81,270.46L74.81,270.29L75.6,270.13L82.31,267.07L82.33,266.9L84.22,265.71L84.24,265.54L84.4,265.04L85.57,264.87L87.85,263.17L88.12,263L88.83,262.49L89.18,262.32L89.18,261.98L90.29,261.81L90.31,261.47L91.18,261.3L95.48,259.95L95.97,259.78L97.09,259.1L97.4,258.93L102.05,256.89L102.07,256.72L103.34,255.71L103.34,255.54L104.07,253.33L104.1,253.16L114.19,247.56L115.51,247.39L118.6,246.21L119.42,246.04L120.9,245.36L121.92,245.19L123.82,244L123.85,243.83L128.57,241.63L128.77,241.46L129.81,240.78L130.22,240.61L136.13,236.71L136.14,236.54L143.05,233.31L143.19,233.14L143.65,232.46L144.23,232.29L153.86,227.88L154.97,227.71L156.12,226.36L157.02,226.19L157.28,225.85L157.82,225.68L162.92,224.15L163.07,223.98L163.9,223.3L164.07,223.13L176.39,217.88L176.55,217.71L176.66,217.37L178.49,217.2L184.4,214.99L184.5,214.82L189.15,213.13L189.31,212.96L189.9,212.28L190.49,212.11L190.79,211.77L191.8,211.6L192.56,211.26L192.75,211.09L193.53,210.41L193.68,210.24L194.01,209.56L194.85,209.39L196.88,207.7L197.73,207.53L199.08,206.34L199.65,206.17L206.88,204.47L207.13,204.3L210.79,203.12L210.82,202.95L213.1,201.93L214.9,201.76L216.16,201.42L217.01,201.25L220.79,199.72L221.07,199.55L227.05,195.65L227.09,195.48L227.86,195.14L228.03,194.97L231.03,192.09L232.09,191.92L234.42,190.9L234.56,190.73L235.17,190.39L237.33,190.22L243.15,188.53L243.22,188.36L244.14,187.85L244.46,187.68L245.99,186.83L246.18,186.66L247,185.81L248.2,185.64L249.91,184.46L250.5,184.29L251.24,183.44L251.68,183.27L252.39,182.42L252.49,182.25L253.39,181.57L253.66,181.4L254.56,180.55L254.57,180.38L257.58,178.69L257.72,178.52L258.77,177.5L259.21,177.33L262.53,175.63L262.54,175.46L273.64,168.68L274.02,168.51L274.05,168.34L274.95,168.17L276.07,167.15L276.62,166.98L277.21,166.13L277.6,165.96L283.11,163.93L286.73,163.76L293.29,162.23L293.3,162.06L296.8,160.54L296.86,160.37L299.22,158.84L300.24,158.67L302.28,157.31L303.46,157.14L306.18,155.79L306.28,155.62L307.09,154.77L308.36,154.6L310.49,152.56L311.55,152.39L312.46,150.87L312.53,150.7L313.23,150.19L313.57,150.02L316.59,148.15L317.43,147.98L320.49,145.78L321.85,145.61L323.41,144.25L323.57,144.08L325.75,143.4L326.35,143.23L327.63,142.38L328.77,142.21L329.57,141.88L330.4,141.71L330.55,141.37L331.68,141.2L332.46,140.35L332.83,140.18L340.84,138.31L341.7,138.14L346.2,135.43L346.27,135.26L349.09,134.58L349.86,134.41L353.18,132.54L354.32,132.38L356.04,131.87L356.94,131.7L359.79,129.49L360.3,129.32L364.52,127.12L365.46,126.95L373.32,124.4L374.1,124.23L382.4,120.67L383.04,120.5L383.04,119.31L384.33,119.14L385.38,118.63L387.25,118.46L387.7,117.96L388.54,117.79L388.55,117.62L389.7,117.45L389.85,117.28L391.43,117.11L396.67,114.9L396.94,114.73L397.64,113.88L397.79,113.71L398.55,113.04L398.88,112.87L402.78,111.34L402.8,111.17L403.76,110.66L404.05,110.49L404.66,109.81L406.12,109.64L406.91,108.79L407.75,108.63L414.93,105.91L415.65,105.74L420.02,103.71L420.04,103.54L420.84,103.03L422.01,102.86L423.24,102.18L424.05,102.01L429.39,97.6L429.39,97.43L431.27,96.07L431.27,95.9L432.01,94.21L432.28,94.04L436.17,90.81L436.87,90.64L443.52,85.55L444.38,85.38L447.8,84.37L447.95,84.2L451.15,81.48L451.27,81.31L451.84,79.11L452.2,78.94L453.31,76.39L453.33,76.22L453.96,75.21L454.19,75.04L462.49,68.76L462.5,68.59L463.03,67.4L463.34,67.23L463.81,66.38L464.31,66.21L466.27,64.18L466.93,64.01L467.8,62.82L468,62.65L469.71,61.46L469.71,61.29L470.56,60.28L470.89,60.11L473.66,57.9L474.39,57.73L477.1,55.53L477.13,55.36L478.65,54.17L478.67,54L479.1,53.32L479.75,53.15L481.89,50.27L482.2,50.1L482.81,48.91L483.03,48.74L483.16,48.06L483.8,47.89L485.64,46.03L486.26,45.86L488.14,44.33L488.25,44.16L489.4,43.14L489.7,42.97L491.32,42.46L491.75,42.29L493.04,40.09L493.83,39.92L496.23,38.22L497.93,38.05L498.84,37.71L499.32,37.54L502.05,36.02L502.21,35.85L503.35,35.17L503.94,35L507.08,32.96L507.12,32.79L508.42,32.29L509.61,32.12L510.66,31.1L511,30.93L511.63,30.25L512.07,30.08L512.35,29.57L513.06,29.4L518.31,27.2L518.55,27.03L518.72,26.69L519.46,26.52L521.37,25.33L521.44,25.16L524.53,24.14L524.58,23.97L525.81,22.62L526.22,22.45L526.55,21.94L527.51,21.77L527.64,21.43L528.69,21.26L532.75,19.39L532.92,19.22L535.51,17.7L535.55,17.53L540,16" style="vector-effect: none; fill: none; stroke: rgb(255, 127, 14); stroke-opacity: 1; stroke-width: 2px; opacity: 1;"/></g><g class="points"/><g class="text"/></g></g></g></g><g class="zerolinelayer-above"/><path class="xlines-above crisp" d="M0,0" style="fill: none;"/><path class="ylines-above crisp" d="M0,0" style="fill: none;"/><g class="overlines-above"/><g class="xaxislayer-above"><g class="xtick"><text text-anchor="middle" x="0" y="439" transform="translate(101.36,0)" style="font-family: 'Open Sans'; font-size: 18px; fill: rgb(255, 255, 255); fill-opacity: 1; white-space: pre;">2016</text></g><g class="xtick"><text text-anchor="middle" x="0" y="439" style="font-family: 'Open Sans'; font-size: 18px; fill: rgb(255, 255, 255); fill-opacity: 1; white-space: pre;" transform="translate(207.34,0)">2018</text></g><g class="xtick"><text text-anchor="middle" x="0" y="439" style="font-family: 'Open Sans'; font-size: 18px; fill: rgb(255, 255, 255); fill-opacity: 1; white-space: pre;" transform="translate(313.16999999999996,0)">2020</text></g><g class="xtick"><text text-anchor="middle" x="0" y="439" style="font-family: 'Open Sans'; font-size: 18px; fill: rgb(255, 255, 255); fill-opacity: 1; white-space: pre;" transform="translate(419.15,0)">2022</text></g><g class="xtick"><text text-anchor="middle" x="0" y="439" style="font-family: 'Open Sans'; font-size: 18px; fill: rgb(255, 255, 255); fill-opacity: 1; white-space: pre;" transform="translate(524.99,0)">2024</text></g></g><g class="yaxislayer-above"><g class="ytick"><text text-anchor="end" x="79" y="6.3" transform="translate(0,420)" style="font-family: 'Open Sans'; font-size: 18px; fill: rgb(255, 255, 255); fill-opacity: 1; white-space: pre;">0</text></g><g class="ytick"><text text-anchor="end" x="79" y="6.3" style="font-family: 'Open Sans'; font-size: 18px; fill: rgb(255, 255, 255); fill-opacity: 1; white-space: pre;" transform="translate(0,335.18)">500</text></g><g class="ytick"><text text-anchor="end" x="79" y="6.3" style="font-family: 'Open Sans'; font-size: 18px; fill: rgb(255, 255, 255); fill-opacity: 1; white-space: pre;" transform="translate(0,250.36)">1000</text></g><g class="ytick"><text text-anchor="end" x="79" y="6.3" style="font-family: 'Open Sans'; font-size: 18px; fill: rgb(255, 255, 255); fill-opacity: 1; white-space: pre;" transform="translate(0,165.54000000000002)">1500</text></g></g><g class="overaxes-above"/></g></g><g class="polarlayer"/><g class="smithlayer"/><g class="ternarylayer"/><g class="geolayer"/><g class="funnelarealayer"/><g class="pielayer"/><g class="iciclelayer"/><g class="treemaplayer"/><g class="sunburstlayer"/><g class="glimages"/><defs id="topdefs-d1faea"><g class="clips"/></defs><g class="layer-above"><g class="imagelayer"/><g class="shapelayer"/></g><g class="infolayer"><g class="g-gtitle"><text class="gtitle" x="35" y="50" text-anchor="start" dy="0em" style="opacity: 1; font-family: 'Open Sans'; font-size: 25px; fill: rgb(255, 255, 255); fill-opacity: 1; white-space: pre;">MultiQC/MultiQC - Issues Created Over Time</text></g><g class="g-xtitle"><text class="xtitle" x="350" y="472.9" text-anchor="middle" style="opacity: 1; font-family: 'Open Sans'; font-size: 22px; fill: rgb(255, 255, 255); fill-opacity: 1; white-space: pre;">Date</text></g><g class="g-ytitle"><text class="ytitle" transform="rotate(-90,20.799999999999997,260)" x="20.799999999999997" y="260" text-anchor="middle" style="opacity: 1; font-family: 'Open Sans'; font-size: 22px; fill: rgb(255, 255, 255); fill-opacity: 1; white-space: pre;">Cumulative Issues Created</text></g></g></svg>