<svg class="main-svg" xmlns="http://www.w3.org/2000/svg" xmlns:xlink="http://www.w3.org/1999/xlink" width="700" height="500" style="" viewBox="0 0 700 500"><rect x="0" y="0" width="700" height="500" style="fill: rgb(0, 0, 0); fill-opacity: 0;"/><defs id="defs-889463"><g class="clips"><clipPath id="clip889463xyplot" class="plotclip"><rect width="540" height="320"/></clipPath><clipPath class="axesclip" id="clip889463x"><rect x="80" y="0" width="540" height="500"/></clipPath><clipPath class="axesclip" id="clip889463y"><rect x="0" y="100" width="700" height="320"/></clipPath><clipPath class="axesclip" id="clip889463xy"><rect x="80" y="100" width="540" height="320"/></clipPath></g><g class="gradients"/><g class="patterns"/></defs><g class="bglayer"><rect class="bg" x="80" y="100" width="540" height="320" style="fill: rgb(0, 0, 0); fill-opacity: 0; stroke-width: 0;"/></g><g class="layer-below"><g class="imagelayer"/><g class="shapelayer"/></g><g class="cartesianlayer"><g class="subplot xy"><g class="layer-subplot"><g class="shapelayer"/><g class="imagelayer"/></g><g class="minor-gridlayer"><g class="x"/><g class="y"/></g><g class="gridlayer"><g class="x"><path class="xgrid crisp" transform="translate(101.53,0)" d="M0,100v320" style="stroke: rgb(255, 255, 255); stroke-opacity: 1; stroke-width: 1px;"/><path class="xgrid crisp" transform="translate(208.39,0)" d="M0,100v320" style="stroke: rgb(255, 255, 255); stroke-opacity: 1; stroke-width: 1px;"/><path class="xgrid crisp" transform="translate(315.11,0)" d="M0,100v320" style="stroke: rgb(255, 255, 255); stroke-opacity: 1; stroke-width: 1px;"/><path class="xgrid crisp" transform="translate(421.97,0)" d="M0,100v320" style="stroke: rgb(255, 255, 255); stroke-opacity: 1; stroke-width: 1px;"/><path class="xgrid crisp" transform="translate(528.6800000000001,0)" d="M0,100v320" style="stroke: rgb(255, 255, 255); stroke-opacity: 1; stroke-width: 1px;"/></g><g class="y"><path class="ygrid crisp" transform="translate(0,356.13)" d="M80,0h540" style="stroke: rgb(255, 255, 255); stroke-opacity: 1; stroke-width: 1px;"/><path class="ygrid crisp" transform="translate(0,292.27)" d="M80,0h540" style="stroke: rgb(255, 255, 255); stroke-opacity: 1; stroke-width: 1px;"/><path class="ygrid crisp" transform="translate(0,228.4)" d="M80,0h540" style="stroke: rgb(255, 255, 255); stroke-opacity: 1; stroke-width: 1px;"/><path class="ygrid crisp" transform="translate(0,164.54000000000002)" d="M80,0h540" style="stroke: rgb(255, 255, 255); stroke-opacity: 1; stroke-width: 1px;"/></g></g><g class="zerolinelayer"><path class="yzl zl crisp" transform="translate(0,420)" d="M80,0h540" style="stroke: rgb(255, 255, 255); stroke-opacity: 1; stroke-width: 2px;"/></g><g class="layer-between"><g class="shapelayer"/><g class="imagelayer"/></g><path class="xlines-below"/><path class="ylines-below"/><g class="overlines-below"/><g class="xaxislayer-below"/><g class="yaxislayer-below"/><g class="overaxes-below"/><g class="overplot"><g class="xy" transform="translate(80,100)" clip-path="url(#clip889463xyplot)"><g class="scatterlayer mlayer"><g class="trace scatter trace4f6f9d" style="stroke-miterlimit: 2;"><g class="fills"><g><path class="js-fill" d="M540,320L0,320L0,318.72L0,316.17L0.58,317.45L1.89,318.72L2.01,317.45L3.06,318.72L3.92,312.34L3.95,313.61L4.65,312.34L5.09,307.23L5.27,308.5L5.65,309.78L5.83,305.95L6.13,311.06L6.27,308.5L6.59,309.78L7.29,298.29L7.41,297.01L7.58,295.73L7.86,298.29L7.86,299.56L7.87,300.84L8.05,290.62L8.76,289.34L9.16,298.29L9.16,299.56L9.91,307.23L9.92,308.5L10.39,299.56L10.77,300.84L10.81,298.29L11.24,303.39L11.37,303.39L11.84,304.67L11.84,305.95L12.38,295.73L12.41,297.01L12.87,295.73L13,288.07L13,286.79L13.11,285.51L13.15,293.18L13.28,290.62L13.57,291.9L13.59,294.45L14.32,286.79L14.43,285.51L14.43,284.24L14.47,288.07L15.17,286.79L15.21,285.51L16.23,293.18L17.47,291.9L18.09,289.34L18.22,288.07L18.97,282.96L18.98,284.24L19.12,282.96L19.57,284.24L22.2,282.96L22.2,284.24L22.62,280.4L22.62,282.96L24.2,281.68L24.4,282.96L24.55,281.68L25.42,280.4L26.17,277.85L26.28,279.13L26.6,277.85L27.37,286.79L27.44,285.51L27.73,281.68L28.18,284.24L28.2,285.51L28.35,284.24L28.61,285.51L29.82,286.79L31.31,282.96L31.54,284.24L31.58,288.07L31.58,288.07L32.4,286.79L32.89,290.62L33.32,289.34L33.52,295.73L34.46,297.01L35.18,294.45L35.18,295.73L35.33,297.01L35.94,294.45L36.24,293.18L37,295.73L37.38,294.45L37.38,295.73L37.53,289.34L37.82,290.62L38.54,289.34L38.78,285.51L38.98,293.18L39.5,294.45L39.57,293.18L40.03,297.01L40.09,298.29L40.32,293.18L40.62,294.45L40.93,295.73L41.81,289.34L41.94,293.18L42.29,291.9L42.51,289.34L42.53,291.9L42.67,293.18L43.96,286.79L43.99,288.07L44.83,284.24L45.13,282.96L45.93,285.51L46.45,284.24L46.77,288.07L47.04,284.24L47.25,282.96L47.59,281.68L47.75,285.51L47.76,286.79L47.8,285.51L48.23,291.9L48.64,290.62L48.65,293.18L48.83,289.34L49.25,291.9L49.83,293.18L49.84,297.01L50.14,294.45L50.72,295.73L51.12,294.45L51.12,295.73L51.84,294.45L51.85,295.73L52.04,293.18L52.17,293.18L53.03,291.9L54.24,289.34L54.81,290.62L54.81,291.9L55.26,288.07L55.41,290.62L55.88,289.34L55.98,288.07L56.3,291.9L57.16,290.62L58.52,285.51L59.05,284.24L60.32,272.74L60.4,275.29L60.5,276.57L60.5,277.85L61.11,275.29L61.28,274.02L61.41,272.74L61.43,274.02L63.04,272.74L63.58,266.35L64.12,267.63L64.61,265.08L64.73,266.35L65.2,265.08L66.63,251.03L66.66,253.58L67.42,252.3L68.1,254.86L68.1,256.13L68.11,262.52L68.42,262.52L69.14,261.24L70.44,257.41L71.21,256.13L71.47,263.8L72.4,262.52L73.54,275.29L73.69,274.02L74.23,272.74L74.23,271.46L74.64,271.46L75.11,272.74L76.23,268.91L76.23,270.18L76.71,267.63L76.76,268.91L77.65,267.63L78.45,266.35L78.98,265.08L82.4,254.86L82.4,256.13L82.87,259.97L83.01,256.13L83.43,257.41L83.73,258.69L83.79,254.86L84.01,257.41L84.76,258.69L85.1,252.3L85.11,253.58L86.28,252.3L86.5,253.58L86.7,252.3L86.94,251.03L86.97,249.75L87.71,253.58L87.84,252.3L87.98,253.58L88.58,249.75L88.58,251.03L88.73,252.3L89.14,257.41L89.57,256.13L89.92,254.86L89.92,252.3L90.04,256.13L91.04,254.86L91.04,256.13L91.06,253.58L91.76,256.13L91.93,254.86L92.76,257.41L93.11,256.13L93.7,257.41L93.79,258.69L94.12,263.8L94.67,262.52L94.99,271.46L95.29,268.91L95.77,267.63L96.87,263.8L97.01,265.08L97.01,266.35L98.93,258.69L98.95,259.97L101.11,252.3L101.26,253.58L101.26,254.86L102.18,256.13L102.18,257.41L102.45,267.63L102.89,265.08L102.9,263.8L102.92,262.52L103.18,270.18L103.5,268.91L103.92,270.18L103.92,271.46L104.5,258.69L104.5,258.69L104.93,257.41L105.26,254.86L105.54,261.24L105.94,259.97L106.97,257.41L106.97,258.69L106.97,259.97L107.1,262.52L107.56,261.24L108.06,259.97L108.43,263.8L108.56,261.24L108.98,259.97L109.01,261.24L109.58,258.69L109.61,259.97L110.21,258.69L110.32,257.41L110.33,258.69L111.04,259.97L111.04,261.24L111.66,259.97L112.25,258.69L112.49,254.86L112.67,254.86L113.1,253.58L114.51,247.19L114.55,248.47L114.63,249.75L115.14,248.47L116.47,247.19L116.77,245.92L117.35,247.19L118.8,243.36L119.28,244.64L119.59,243.36L120.45,274.02L120.56,272.74L121.2,270.18L121.49,271.46L121.91,270.18L121.91,271.46L122.93,270.18L123.34,271.46L123.66,270.18L123.67,268.91L124.38,267.63L124.64,268.91L124.65,271.46L124.88,266.35L125.41,265.08L125.41,266.35L125.85,263.8L125.91,263.8L126.49,262.52L126.49,261.24L127,267.63L128.8,266.35L129.02,267.63L129.08,266.35L129.62,265.08L130.07,259.97L130.89,258.69L132.64,253.58L133.03,254.86L133.52,252.3L133.6,253.58L133.6,254.86L133.75,261.24L134.13,258.69L134.69,257.41L135.22,254.86L135.47,256.13L136.1,261.24L136.83,259.97L137.85,254.86L138.24,256.13L138.95,254.86L140.06,253.58L141.24,249.75L142.07,251.03L142.38,249.75L142.77,251.03L142.84,249.75L142.95,251.03L143.44,249.75L143.81,248.47L143.82,251.03L144.38,245.92L144.38,245.92L144.84,244.64L144.84,242.08L145.43,243.36L145.8,242.08L146.31,239.53L146.35,238.25L146.42,236.97L146.48,240.81L147.04,239.53L147.07,240.81L147.49,238.25L148.15,239.53L148.55,235.7L148.81,247.19L149.39,245.92L150.16,243.36L150.24,244.64L150.25,243.36L150.27,245.92L151.49,244.64L152.17,243.36L152.28,245.92L153.13,244.64L153.15,245.92L153.82,242.08L153.88,243.36L154.46,244.64L155.09,243.36L155.1,244.64L155.14,243.36L156.26,242.08L156.27,243.36L156.45,239.53L156.74,239.53L157.26,238.25L157.41,236.97L158.33,235.7L158.59,233.14L159.13,234.42L159.13,233.14L159.82,239.53L160.2,238.25L161.44,236.97L161.78,238.25L164.28,231.87L164.43,233.14L164.96,228.03L165.26,226.76L166.62,219.09L167.38,217.82L167.38,219.09L167.78,217.82L168.91,216.54L168.97,215.26L169.44,220.37L169.89,219.09L170.98,216.54L170.98,215.26L171,213.98L171.22,222.92L172.54,221.65L172.79,219.09L173.93,217.82L174.69,222.92L175.05,221.65L178.05,211.43L178.12,210.15L178.17,211.43L179.98,210.15L180.23,215.26L180.24,216.54L180.25,220.37L180.67,217.82L182.7,216.54L182.72,219.09L182.88,217.82L183.65,216.54L184.18,211.43L184.19,212.71L184.73,213.98L185.1,215.26L186.04,210.15L186.1,211.43L186.24,212.71L187.11,211.43L187.11,212.71L190.34,207.6L190.44,206.32L191.04,202.49L191.05,203.76L191.48,202.49L191.51,205.04L192.19,203.76L192.38,202.49L193.09,203.76L193.39,202.49L193.4,201.21L193.4,202.49L194.16,201.21L195.39,194.82L195.42,196.1L195.47,197.38L195.62,194.82L195.64,196.1L196.46,194.82L197.89,185.88L197.89,188.44L198.17,187.16L198.51,184.61L198.84,185.88L199.38,184.61L199.58,182.05L200.06,184.61L200.34,183.33L200.73,180.77L201.31,179.5L202.52,178.22L202.52,179.5L202.6,178.22L202.64,179.5L204.03,178.22L204.79,179.5L205.55,178.22L205.79,176.94L205.79,178.22L207.71,176.94L208.44,175.66L208.45,176.94L208.45,178.22L208.85,176.94L209.72,178.22L209.72,179.5L210.44,179.5L210.62,178.22L211.63,175.66L212.38,174.39L213.05,170.55L213.43,171.83L214.87,166.72L215.21,168L216.69,166.72L216.92,165.45L217.95,164.17L218.07,165.45L220.68,160.34L220.99,161.61L221.37,157.78L222.14,156.5L222.59,159.06L222.62,157.78L222.91,156.5L223.68,153.95L223.9,155.23L223.94,156.5L223.97,160.34L224.64,156.5L224.7,157.78L225.17,155.23L225.26,162.89L225.66,161.61L225.69,162.89L225.71,161.61L226.46,160.34L226.69,161.61L227.17,157.78L227.31,159.06L228.03,168L228.08,166.72L228.34,183.33L228.86,182.05L229.15,189.71L229.76,188.44L229.76,189.71L230.37,184.61L230.37,185.88L230.54,187.16L230.82,188.44L230.99,185.88L231.11,184.61L232.11,179.5L232.41,178.22L232.91,174.39L232.95,173.11L233.06,178.22L234.02,176.94L236.1,174.39L236.12,173.11L236.74,166.72L237.12,165.45L237.58,166.72L239.3,165.45L240.49,162.89L240.57,161.61L241.46,160.34L241.89,161.61L242.65,159.06L244.56,157.78L245.17,155.23L245.24,153.95L245.41,151.39L246.17,150.12L246.3,151.39L246.49,150.12L247.69,148.84L248.01,145.01L248.04,152.67L248.04,153.95L248.04,155.23L248.61,150.12L249.06,148.84L249.27,150.12L250.27,148.84L250.42,150.12L250.67,148.84L251.28,150.12L251.36,148.84L251.55,153.95L251.99,151.39L252.27,152.67L252.58,151.39L252.6,153.95L252.71,153.95L252.72,155.23L253.77,151.39L254.23,150.12L254.65,147.56L254.77,153.95L254.79,153.95L255.18,152.67L255.5,151.39L255.65,152.67L255.69,153.95L255.77,152.67L256.09,155.23L256.42,156.5L256.51,153.95L256.55,166.72L256.56,168L256.67,165.45L257.39,187.16L257.52,185.88L257.84,187.16L258.41,185.88L259.47,180.77L259.57,182.05L260.92,173.11L261.07,174.39L261.36,173.11L262.64,169.28L262.64,170.55L262.79,171.83L263.41,168L263.73,166.72L263.93,165.45L264.59,166.72L265.24,160.34L265.72,159.06L266.21,153.95L266.23,155.23L266.78,156.5L267.63,151.39L267.82,150.12L269.12,142.45L269.57,141.18L269.78,139.9L270.86,138.62L272.33,130.96L272.76,129.68L273.78,125.85L273.83,127.13L275.23,120.74L275.91,119.46L277.97,113.08L277.97,114.35L281.07,97.75L281.29,99.03L281.3,101.58L282.26,100.3L282.26,101.58L283,97.75L283.66,96.47L283.96,97.75L285.16,96.47L285.47,92.64L288,93.92L288.17,123.29L289.11,122.02L290.34,123.29L290.5,122.02L290.5,120.74L290.58,124.57L290.77,122.02L291.39,123.29L294.4,122.02L295.16,120.74L295.73,116.91L295.74,115.63L295.86,118.18L296.41,116.91L296.53,115.63L296.58,116.91L297.55,115.63L298.77,122.02L298.89,120.74L299.12,122.02L299.82,116.91L300.51,115.63L300.55,116.91L301.09,111.8L301.46,113.08L301.76,127.13L302.74,125.85L302.91,127.13L303.45,124.57L303.46,125.85L303.46,127.13L304.5,124.57L304.68,125.85L304.79,123.29L305.25,124.57L305.64,125.85L306.12,127.13L306.66,125.85L308.17,120.74L308.49,119.46L308.83,122.02L308.99,116.91L309.11,118.18L309.17,116.91L309.74,118.18L310.92,116.91L310.94,118.18L311.5,115.63L311.86,114.35L312.19,109.24L312.47,110.52L312.86,111.8L312.87,116.91L313.07,114.35L314.14,113.08L314.89,124.57L314.89,123.29L315,122.02L315.03,120.74L315.35,132.24L315.5,132.24L315.6,133.51L315.65,142.45L316.18,141.18L316.38,139.9L316.74,141.18L316.77,139.9L317.08,138.62L317.76,136.07L318.35,134.79L319.08,133.51L319.15,132.24L319.22,130.96L320.07,129.68L320.31,130.96L320.31,129.68L320.96,128.4L321.29,132.24L321.4,128.4L321.88,127.13L322.28,123.29L322.94,122.02L323.15,120.74L324.52,119.46L325.22,115.63L325.28,114.35L326.53,106.69L327.55,105.41L330.35,96.47L331.5,95.19L332.31,92.64L333.15,91.36L333.29,88.81L334.06,90.08L334.43,109.24L334.64,107.97L334.93,109.24L335.22,107.97L335.24,110.52L335.6,109.24L336.26,110.52L336.79,109.24L337.54,110.52L338.71,106.69L339.7,105.41L341.02,104.13L341.38,105.41L341.43,106.69L342.47,105.41L343.01,102.86L343.48,104.13L343.67,102.86L344.11,104.13L344.14,105.41L344.14,106.69L344.84,104.13L345.54,105.41L346.56,141.18L346.86,139.9L347.03,136.07L347.5,141.18L347.66,142.45L348.94,133.51L349.08,132.24L349.51,129.68L349.64,132.24L350.12,130.96L350.56,129.68L350.96,130.96L351.58,132.24L351.99,130.96L352.77,129.68L352.87,130.96L353.87,128.4L354.22,127.13L354.65,128.4L355.04,127.13L355.65,125.85L355.91,124.57L356.12,122.02L357.27,120.74L357.55,119.46L358.68,118.18L360.34,113.08L360.34,114.35L360.36,115.63L361.36,110.52L361.9,111.8L362.78,106.69L362.78,107.97L363.29,106.69L363.34,107.97L363.98,105.41L363.99,104.13L364.1,101.58L365.45,100.3L366.32,97.75L366.36,96.47L367.21,93.92L367.55,92.64L368.51,97.75L368.91,96.47L369.1,95.19L370.66,92.64L370.88,93.92L372.02,91.36L372.6,90.08L373.15,86.25L374.2,84.97L375.21,82.42L375.43,83.7L375.5,84.97L375.51,83.7L376.42,82.42L377.58,79.87L377.69,78.59L378.71,77.31L378.73,78.59L378.8,96.47L379.47,92.64L379.73,93.92L380.38,91.36L380.63,90.08L381.4,91.36L382.34,90.08L382.98,86.25L383.1,87.53L383.39,86.25L384.71,83.7L385.58,82.42L386.22,79.87L386.22,78.59L386.22,72.2L387.52,70.92L388.58,67.09L390.13,68.37L390.13,70.92L390.56,67.09L390.56,68.37L390.93,67.09L391.44,68.37L391.77,67.09L391.78,65.82L392.04,67.09L392.94,65.82L393.09,64.54L393.09,65.82L394.44,67.09L395.1,65.82L395.16,67.09L395.33,68.37L395.33,69.65L395.96,69.65L396.29,70.92L396.49,84.97L397.5,86.25L398.55,83.7L399.08,82.42L399.21,79.87L399.25,83.7L399.69,84.97L400.93,76.03L400.94,77.31L400.94,76.03L400.97,82.42L401.29,79.87L401.87,78.59L403.21,74.76L404.37,73.48L405.1,69.65L405.83,68.37L406.21,64.54L406.27,65.82L406.71,67.09L408.02,59.43L408.02,60.71L409.49,59.43L410.29,53.04L410.3,54.32L410.3,55.6L411.14,54.32L411.48,55.6L412.21,50.49L412.43,51.76L412.62,50.49L413.28,51.76L414.26,47.93L414.92,46.66L415.55,44.1L415.78,45.38L415.92,46.66L416.24,47.93L416.46,46.66L417.67,47.93L420.12,38.99L420.41,37.71L421.42,36.44L422.18,37.71L423.3,33.88L423.38,32.61L423.45,33.88L423.62,28.77L424.25,30.05L424.33,27.5L425.51,26.22L425.68,23.66L425.87,26.22L426.14,27.5L426.55,26.22L426.72,27.5L426.75,28.77L427.03,31.33L427.58,30.05L428.65,22.39L428.69,26.22L429.37,24.94L429.45,23.66L429.67,26.22L429.91,26.22L430.08,27.5L430.9,22.39L431.22,23.66L431.37,27.5L431.88,22.39L432.22,21.11L432.81,18.55L432.82,19.83L432.89,21.11L433.45,16L433.56,18.55L433.83,19.83L434,17.28L434.14,28.77L434.14,30.05L434.55,36.44L434.86,24.94L434.93,26.22L435.57,33.88L435.6,30.05L435.73,31.33L437.46,22.39L437.52,23.66L437.66,36.44L438.07,31.33L438.37,30.05L438.41,32.61L438.95,30.05L439.55,28.77L440.21,32.61L440.5,31.33L440.73,30.05L440.88,32.61L440.96,31.33L441.56,30.05L442.22,40.27L442.24,38.99L442.64,37.71L442.71,36.44L443.04,40.27L443.32,38.99L443.67,37.71L444.1,33.88L444.28,36.44L444.83,35.16L445.27,31.33L445.68,32.61L445.68,33.88L446.26,51.76L446.56,53.04L447.21,49.21L448.07,47.93L448.21,51.76L449.22,53.04L450.35,50.49L450.39,49.21L450.56,50.49L450.94,49.21L451.42,47.93L451.89,45.38L452.01,49.21L452.15,47.93L452.4,46.66L453.06,44.1L453.43,45.38L454.07,51.76L454.3,49.21L454.33,47.93L454.8,51.76L455.05,51.76L455.2,50.49L455.6,41.55L455.99,47.93L455.99,49.21L456.38,44.1L456.5,51.76L456.5,53.04L457.11,44.1L457.23,46.66L457.37,45.38L457.74,41.55L457.96,42.82L458.16,44.1L458.41,41.55L458.58,50.49L458.58,51.76L458.88,69.65L459.32,64.54L459.42,65.82L459.43,67.09L460.21,65.82L460.44,63.26L460.5,73.48L460.63,72.2L460.94,70.92L461.04,72.2L461.45,70.92L461.5,72.2L461.61,69.65L462.23,68.37L462.89,64.54L463.08,63.26L463.84,56.87L464.1,59.43L464.13,60.71L464.3,59.43L464.68,65.82L465.28,64.54L465.41,65.82L465.68,63.26L465.86,64.54L466.21,65.82L466.88,55.6L467.19,54.32L467.21,53.04L467.3,56.87L467.67,54.32L468.17,53.04L468.19,54.32L468.76,45.38L468.79,44.1L468.82,46.66L469.65,45.38L470.15,41.55L470.72,42.82L470.86,40.27L471.15,46.66L471.54,45.38L471.56,44.1L471.89,42.82L472.16,45.38L472.46,44.1L472.64,46.66L473.01,44.1L473.37,45.38L473.92,38.99L474.28,41.55L474.34,42.82L474.47,41.55L474.5,45.38L474.95,42.82L475.39,41.55L475.4,40.27L475.96,51.76L475.98,49.21L476.13,47.93L477.4,51.76L477.6,50.49L477.86,53.04L478.33,51.76L478.59,50.49L479.62,55.6L479.76,53.04L479.8,51.76L479.91,49.21L480.48,53.04L480.48,53.04L480.84,51.76L481.09,47.93L481.5,51.76L481.53,53.04L481.85,51.76L482.71,72.2L483,70.92L484.75,55.6L484.84,56.87L484.92,54.32L485.03,65.82L485.33,64.54L485.33,65.82L485.9,64.54L485.92,65.82L486.19,67.09L486.6,74.76L486.9,72.2L487.05,70.92L487.17,65.82L487.8,67.09L487.82,65.82L488.05,63.26L488.08,68.37L488.25,67.09L488.73,68.37L489.01,69.65L489.31,65.82L489.67,64.54L489.99,68.37L490.01,69.65L491,65.82L491.06,67.09L491.07,68.37L492.31,59.43L492.62,61.98L492.62,63.26L492.62,64.54L493.21,58.15L493.47,56.87L494.09,53.04L494.88,54.32L495.42,67.09L495.84,65.82L495.94,68.37L496.29,60.71L496.47,61.98L496.73,60.71L497.21,68.37L497.93,67.09L498.13,65.82L498.46,68.37L498.47,69.65L499.13,67.09L499.39,81.14L499.48,79.87L499.49,77.31L500.06,84.97L500.35,83.7L500.57,84.97L502.07,83.7L502.68,84.97L502.99,83.7L503.46,84.97L503.47,83.7L504.03,82.42L504.03,81.14L504.3,84.97L504.38,83.7L505.02,82.42L505.25,83.7L505.59,82.42L506,81.14L506.07,78.59L506.22,82.42L506.52,81.14L507.06,79.87L507.14,78.59L507.28,82.42L507.58,82.42L507.58,83.7L507.58,84.97L508.12,83.7L508.56,82.42L509.37,79.87L509.69,81.14L509.73,84.97L510.3,84.97L510.48,83.7L511.3,76.03L511.32,78.59L511.33,79.87L511.33,81.14L511.49,78.59L512.36,79.87L512.36,78.59L512.65,78.59L513.84,77.31L514.41,73.48L514.54,74.76L514.66,76.03L515.88,68.37L516.29,69.65L516.29,70.92L516.61,65.82L516.77,67.09L517.32,65.82L517.91,68.37L517.92,69.65L518.42,68.37L518.48,69.65L518.79,68.37L518.79,67.09L519.52,69.65L519.72,68.37L519.81,67.09L520.75,65.82L521.39,67.09L521.84,65.82L522.62,60.71L522.86,59.43L522.88,60.71L523.03,59.43L523.78,58.15L524.04,60.71L524.51,59.43L524.63,60.71L525.05,55.6L525.21,58.15L525.5,59.43L525.77,55.6L527.61,56.87L527.95,53.04L528.6,54.32L528.86,67.09L529.32,63.26L529.45,64.54L529.58,67.09L530.18,65.82L530.6,64.54L530.92,60.71L531.9,59.43L532.03,56.87L533.08,55.6L533.76,53.04L533.87,51.76L534,49.21L535.47,50.49L535.9,69.65L536.2,67.09L536.28,65.82L536.34,68.37L537.1,67.09L538.07,63.26L538.07,64.54L538.82,70.92L538.86,69.65L539.31,68.37L539.96,63.26L540,64.54" style="fill: rgb(255, 127, 14); fill-opacity: 0.5; stroke-width: 0;"/></g></g><g class="errorbars"/><g class="lines"><path class="js-line" d="M0,318.72L0,316.17L0.58,317.45L1.89,318.72L2.01,317.45L3.06,318.72L3.92,312.34L3.95,313.61L4.65,312.34L5.09,307.23L5.27,308.5L5.65,309.78L5.83,305.95L6.13,311.06L6.27,308.5L6.59,309.78L7.29,298.29L7.41,297.01L7.58,295.73L7.86,298.29L7.86,299.56L7.87,300.84L8.05,290.62L8.76,289.34L9.16,298.29L9.16,299.56L9.91,307.23L9.92,308.5L10.39,299.56L10.77,300.84L10.81,298.29L11.24,303.39L11.37,303.39L11.84,304.67L11.84,305.95L12.38,295.73L12.41,297.01L12.87,295.73L13,288.07L13,286.79L13.11,285.51L13.15,293.18L13.28,290.62L13.57,291.9L13.59,294.45L14.32,286.79L14.43,285.51L14.43,284.24L14.47,288.07L15.17,286.79L15.21,285.51L16.23,293.18L17.47,291.9L18.09,289.34L18.22,288.07L18.97,282.96L18.98,284.24L19.12,282.96L19.57,284.24L22.2,282.96L22.2,284.24L22.62,280.4L22.62,282.96L24.2,281.68L24.4,282.96L24.55,281.68L25.42,280.4L26.17,277.85L26.28,279.13L26.6,277.85L27.37,286.79L27.44,285.51L27.73,281.68L28.18,284.24L28.2,285.51L28.35,284.24L28.61,285.51L29.82,286.79L31.31,282.96L31.54,284.24L31.58,288.07L31.58,288.07L32.4,286.79L32.89,290.62L33.32,289.34L33.52,295.73L34.46,297.01L35.18,294.45L35.18,295.73L35.33,297.01L35.94,294.45L36.24,293.18L37,295.73L37.38,294.45L37.38,295.73L37.53,289.34L37.82,290.62L38.54,289.34L38.78,285.51L38.98,293.18L39.5,294.45L39.57,293.18L40.03,297.01L40.09,298.29L40.32,293.18L40.62,294.45L40.93,295.73L41.81,289.34L41.94,293.18L42.29,291.9L42.51,289.34L42.53,291.9L42.67,293.18L43.96,286.79L43.99,288.07L44.83,284.24L45.13,282.96L45.93,285.51L46.45,284.24L46.77,288.07L47.04,284.24L47.25,282.96L47.59,281.68L47.75,285.51L47.76,286.79L47.8,285.51L48.23,291.9L48.64,290.62L48.65,293.18L48.83,289.34L49.25,291.9L49.83,293.18L49.84,297.01L50.14,294.45L50.72,295.73L51.12,294.45L51.12,295.73L51.84,294.45L51.85,295.73L52.04,293.18L52.17,293.18L53.03,291.9L54.24,289.34L54.81,290.62L54.81,291.9L55.26,288.07L55.41,290.62L55.88,289.34L55.98,288.07L56.3,291.9L57.16,290.62L58.52,285.51L59.05,284.24L60.32,272.74L60.4,275.29L60.5,276.57L60.5,277.85L61.11,275.29L61.28,274.02L61.41,272.74L61.43,274.02L63.04,272.74L63.58,266.35L64.12,267.63L64.61,265.08L64.73,266.35L65.2,265.08L66.63,251.03L66.66,253.58L67.42,252.3L68.1,254.86L68.1,256.13L68.11,262.52L68.42,262.52L69.14,261.24L70.44,257.41L71.21,256.13L71.47,263.8L72.4,262.52L73.54,275.29L73.69,274.02L74.23,272.74L74.23,271.46L74.64,271.46L75.11,272.74L76.23,268.91L76.23,270.18L76.71,267.63L76.76,268.91L77.65,267.63L78.45,266.35L78.98,265.08L82.4,254.86L82.4,256.13L82.87,259.97L83.01,256.13L83.43,257.41L83.73,258.69L83.79,254.86L84.01,257.41L84.76,258.69L85.1,252.3L85.11,253.58L86.28,252.3L86.5,253.58L86.7,252.3L86.94,251.03L86.97,249.75L87.71,253.58L87.84,252.3L87.98,253.58L88.58,249.75L88.58,251.03L88.73,252.3L89.14,257.41L89.57,256.13L89.92,254.86L89.92,252.3L90.04,256.13L91.04,254.86L91.04,256.13L91.06,253.58L91.76,256.13L91.93,254.86L92.76,257.41L93.11,256.13L93.7,257.41L93.79,258.69L94.12,263.8L94.67,262.52L94.99,271.46L95.29,268.91L95.77,267.63L96.87,263.8L97.01,265.08L97.01,266.35L98.93,258.69L98.95,259.97L101.11,252.3L101.26,253.58L101.26,254.86L102.18,256.13L102.18,257.41L102.45,267.63L102.89,265.08L102.9,263.8L102.92,262.52L103.18,270.18L103.5,268.91L103.92,270.18L103.92,271.46L104.5,258.69L104.5,258.69L104.93,257.41L105.26,254.86L105.54,261.24L105.94,259.97L106.97,257.41L106.97,258.69L106.97,259.97L107.1,262.52L107.56,261.24L108.06,259.97L108.43,263.8L108.56,261.24L108.98,259.97L109.01,261.24L109.58,258.69L109.61,259.97L110.21,258.69L110.32,257.41L110.33,258.69L111.04,259.97L111.04,261.24L111.66,259.97L112.25,258.69L112.49,254.86L112.67,254.86L113.1,253.58L114.51,247.19L114.55,248.47L114.63,249.75L115.14,248.47L116.47,247.19L116.77,245.92L117.35,247.19L118.8,243.36L119.28,244.64L119.59,243.36L120.45,274.02L120.56,272.74L121.2,270.18L121.49,271.46L121.91,270.18L121.91,271.46L122.93,270.18L123.34,271.46L123.66,270.18L123.67,268.91L124.38,267.63L124.64,268.91L124.65,271.46L124.88,266.35L125.41,265.08L125.41,266.35L125.85,263.8L125.91,263.8L126.49,262.52L126.49,261.24L127,267.63L128.8,266.35L129.02,267.63L129.08,266.35L129.62,265.08L130.07,259.97L130.89,258.69L132.64,253.58L133.03,254.86L133.52,252.3L133.6,253.58L133.6,254.86L133.75,261.24L134.13,258.69L134.69,257.41L135.22,254.86L135.47,256.13L136.1,261.24L136.83,259.97L137.85,254.86L138.24,256.13L138.95,254.86L140.06,253.58L141.24,249.75L142.07,251.03L142.38,249.75L142.77,251.03L142.84,249.75L142.95,251.03L143.44,249.75L143.81,248.47L143.82,251.03L144.38,245.92L144.38,245.92L144.84,244.64L144.84,242.08L145.43,243.36L145.8,242.08L146.31,239.53L146.35,238.25L146.42,236.97L146.48,240.81L147.04,239.53L147.07,240.81L147.49,238.25L148.15,239.53L148.55,235.7L148.81,247.19L149.39,245.92L150.16,243.36L150.24,244.64L150.25,243.36L150.27,245.92L151.49,244.64L152.17,243.36L152.28,245.92L153.13,244.64L153.15,245.92L153.82,242.08L153.88,243.36L154.46,244.64L155.09,243.36L155.1,244.64L155.14,243.36L156.26,242.08L156.27,243.36L156.45,239.53L156.74,239.53L157.26,238.25L157.41,236.97L158.33,235.7L158.59,233.14L159.13,234.42L159.13,233.14L159.82,239.53L160.2,238.25L161.44,236.97L161.78,238.25L164.28,231.87L164.43,233.14L164.96,228.03L165.26,226.76L166.62,219.09L167.38,217.82L167.38,219.09L167.78,217.82L168.91,216.54L168.97,215.26L169.44,220.37L169.89,219.09L170.98,216.54L170.98,215.26L171,213.98L171.22,222.92L172.54,221.65L172.79,219.09L173.93,217.82L174.69,222.92L175.05,221.65L178.05,211.43L178.12,210.15L178.17,211.43L179.98,210.15L180.23,215.26L180.24,216.54L180.25,220.37L180.67,217.82L182.7,216.54L182.72,219.09L182.88,217.82L183.65,216.54L184.18,211.43L184.19,212.71L184.73,213.98L185.1,215.26L186.04,210.15L186.1,211.43L186.24,212.71L187.11,211.43L187.11,212.71L190.34,207.6L190.44,206.32L191.04,202.49L191.05,203.76L191.48,202.49L191.51,205.04L192.19,203.76L192.38,202.49L193.09,203.76L193.39,202.49L193.4,201.21L193.4,202.49L194.16,201.21L195.39,194.82L195.42,196.1L195.47,197.38L195.62,194.82L195.64,196.1L196.46,194.82L197.89,185.88L197.89,188.44L198.17,187.16L198.51,184.61L198.84,185.88L199.38,184.61L199.58,182.05L200.06,184.61L200.34,183.33L200.73,180.77L201.31,179.5L202.52,178.22L202.52,179.5L202.6,178.22L202.64,179.5L204.03,178.22L204.79,179.5L205.55,178.22L205.79,176.94L205.79,178.22L207.71,176.94L208.44,175.66L208.45,176.94L208.45,178.22L208.85,176.94L209.72,178.22L209.72,179.5L210.44,179.5L210.62,178.22L211.63,175.66L212.38,174.39L213.05,170.55L213.43,171.83L214.87,166.72L215.21,168L216.69,166.72L216.92,165.45L217.95,164.17L218.07,165.45L220.68,160.34L220.99,161.61L221.37,157.78L222.14,156.5L222.59,159.06L222.62,157.78L222.91,156.5L223.68,153.95L223.9,155.23L223.94,156.5L223.97,160.34L224.64,156.5L224.7,157.78L225.17,155.23L225.26,162.89L225.66,161.61L225.69,162.89L225.71,161.61L226.46,160.34L226.69,161.61L227.17,157.78L227.31,159.06L228.03,168L228.08,166.72L228.34,183.33L228.86,182.05L229.15,189.71L229.76,188.44L229.76,189.71L230.37,184.61L230.37,185.88L230.54,187.16L230.82,188.44L230.99,185.88L231.11,184.61L232.11,179.5L232.41,178.22L232.91,174.39L232.95,173.11L233.06,178.22L234.02,176.94L236.1,174.39L236.12,173.11L236.74,166.72L237.12,165.45L237.58,166.72L239.3,165.45L240.49,162.89L240.57,161.61L241.46,160.34L241.89,161.61L242.65,159.06L244.56,157.78L245.17,155.23L245.24,153.95L245.41,151.39L246.17,150.12L246.3,151.39L246.49,150.12L247.69,148.84L248.01,145.01L248.04,152.67L248.04,153.95L248.04,155.23L248.61,150.12L249.06,148.84L249.27,150.12L250.27,148.84L250.42,150.12L250.67,148.84L251.28,150.12L251.36,148.84L251.55,153.95L251.99,151.39L252.27,152.67L252.58,151.39L252.6,153.95L252.71,153.95L252.72,155.23L253.77,151.39L254.23,150.12L254.65,147.56L254.77,153.95L254.79,153.95L255.18,152.67L255.5,151.39L255.65,152.67L255.69,153.95L255.77,152.67L256.09,155.23L256.42,156.5L256.51,153.95L256.55,166.72L256.56,168L256.67,165.45L257.39,187.16L257.52,185.88L257.84,187.16L258.41,185.88L259.47,180.77L259.57,182.05L260.92,173.11L261.07,174.39L261.36,173.11L262.64,169.28L262.64,170.55L262.79,171.83L263.41,168L263.73,166.72L263.93,165.45L264.59,166.72L265.24,160.34L265.72,159.06L266.21,153.95L266.23,155.23L266.78,156.5L267.63,151.39L267.82,150.12L269.12,142.45L269.57,141.18L269.78,139.9L270.86,138.62L272.33,130.96L272.76,129.68L273.78,125.85L273.83,127.13L275.23,120.74L275.91,119.46L277.97,113.08L277.97,114.35L281.07,97.75L281.29,99.03L281.3,101.58L282.26,100.3L282.26,101.58L283,97.75L283.66,96.47L283.96,97.75L285.16,96.47L285.47,92.64L288,93.92L288.17,123.29L289.11,122.02L290.34,123.29L290.5,122.02L290.5,120.74L290.58,124.57L290.77,122.02L291.39,123.29L294.4,122.02L295.16,120.74L295.73,116.91L295.74,115.63L295.86,118.18L296.41,116.91L296.53,115.63L296.58,116.91L297.55,115.63L298.77,122.02L298.89,120.74L299.12,122.02L299.82,116.91L300.51,115.63L300.55,116.91L301.09,111.8L301.46,113.08L301.76,127.13L302.74,125.85L302.91,127.13L303.45,124.57L303.46,125.85L303.46,127.13L304.5,124.57L304.68,125.85L304.79,123.29L305.25,124.57L305.64,125.85L306.12,127.13L306.66,125.85L308.17,120.74L308.49,119.46L308.83,122.02L308.99,116.91L309.11,118.18L309.17,116.91L309.74,118.18L310.92,116.91L310.94,118.18L311.5,115.63L311.86,114.35L312.19,109.24L312.47,110.52L312.86,111.8L312.87,116.91L313.07,114.35L314.14,113.08L314.89,124.57L314.89,123.29L315,122.02L315.03,120.74L315.35,132.24L315.5,132.24L315.6,133.51L315.65,142.45L316.18,141.18L316.38,139.9L316.74,141.18L316.77,139.9L317.08,138.62L317.76,136.07L318.35,134.79L319.08,133.51L319.15,132.24L319.22,130.96L320.07,129.68L320.31,130.96L320.31,129.68L320.96,128.4L321.29,132.24L321.4,128.4L321.88,127.13L322.28,123.29L322.94,122.02L323.15,120.74L324.52,119.46L325.22,115.63L325.28,114.35L326.53,106.69L327.55,105.41L330.35,96.47L331.5,95.19L332.31,92.64L333.15,91.36L333.29,88.81L334.06,90.08L334.43,109.24L334.64,107.97L334.93,109.24L335.22,107.97L335.24,110.52L335.6,109.24L336.26,110.52L336.79,109.24L337.54,110.52L338.71,106.69L339.7,105.41L341.02,104.13L341.38,105.41L341.43,106.69L342.47,105.41L343.01,102.86L343.48,104.13L343.67,102.86L344.11,104.13L344.14,105.41L344.14,106.69L344.84,104.13L345.54,105.41L346.56,141.18L346.86,139.9L347.03,136.07L347.5,141.18L347.66,142.45L348.94,133.51L349.08,132.24L349.51,129.68L349.64,132.24L350.12,130.96L350.56,129.68L350.96,130.96L351.58,132.24L351.99,130.96L352.77,129.68L352.87,130.96L353.87,128.4L354.22,127.13L354.65,128.4L355.04,127.13L355.65,125.85L355.91,124.57L356.12,122.02L357.27,120.74L357.55,119.46L358.68,118.18L360.34,113.08L360.34,114.35L360.36,115.63L361.36,110.52L361.9,111.8L362.78,106.69L362.78,107.97L363.29,106.69L363.34,107.97L363.98,105.41L363.99,104.13L364.1,101.58L365.45,100.3L366.32,97.75L366.36,96.47L367.21,93.92L367.55,92.64L368.51,97.75L368.91,96.47L369.1,95.19L370.66,92.64L370.88,93.92L372.02,91.36L372.6,90.08L373.15,86.25L374.2,84.97L375.21,82.42L375.43,83.7L375.5,84.97L375.51,83.7L376.42,82.42L377.58,79.87L377.69,78.59L378.71,77.31L378.73,78.59L378.8,96.47L379.47,92.64L379.73,93.92L380.38,91.36L380.63,90.08L381.4,91.36L382.34,90.08L382.98,86.25L383.1,87.53L383.39,86.25L384.71,83.7L385.58,82.42L386.22,79.87L386.22,78.59L386.22,72.2L387.52,70.92L388.58,67.09L390.13,68.37L390.13,70.92L390.56,67.09L390.56,68.37L390.93,67.09L391.44,68.37L391.77,67.09L391.78,65.82L392.04,67.09L392.94,65.82L393.09,64.54L393.09,65.82L394.44,67.09L395.1,65.82L395.16,67.09L395.33,68.37L395.33,69.65L395.96,69.65L396.29,70.92L396.49,84.97L397.5,86.25L398.55,83.7L399.08,82.42L399.21,79.87L399.25,83.7L399.69,84.97L400.93,76.03L400.94,77.31L400.94,76.03L400.97,82.42L401.29,79.87L401.87,78.59L403.21,74.76L404.37,73.48L405.1,69.65L405.83,68.37L406.21,64.54L406.27,65.82L406.71,67.09L408.02,59.43L408.02,60.71L409.49,59.43L410.29,53.04L410.3,54.32L410.3,55.6L411.14,54.32L411.48,55.6L412.21,50.49L412.43,51.76L412.62,50.49L413.28,51.76L414.26,47.93L414.92,46.66L415.55,44.1L415.78,45.38L415.92,46.66L416.24,47.93L416.46,46.66L417.67,47.93L420.12,38.99L420.41,37.71L421.42,36.44L422.18,37.71L423.3,33.88L423.38,32.61L423.45,33.88L423.62,28.77L424.25,30.05L424.33,27.5L425.51,26.22L425.68,23.66L425.87,26.22L426.14,27.5L426.55,26.22L426.72,27.5L426.75,28.77L427.03,31.33L427.58,30.05L428.65,22.39L428.69,26.22L429.37,24.94L429.45,23.66L429.67,26.22L429.91,26.22L430.08,27.5L430.9,22.39L431.22,23.66L431.37,27.5L431.88,22.39L432.22,21.11L432.81,18.55L432.82,19.83L432.89,21.11L433.45,16L433.56,18.55L433.83,19.83L434,17.28L434.14,28.77L434.14,30.05L434.55,36.44L434.86,24.94L434.93,26.22L435.57,33.88L435.6,30.05L435.73,31.33L437.46,22.39L437.52,23.66L437.66,36.44L438.07,31.33L438.37,30.05L438.41,32.61L438.95,30.05L439.55,28.77L440.21,32.61L440.5,31.33L440.73,30.05L440.88,32.61L440.96,31.33L441.56,30.05L442.22,40.27L442.24,38.99L442.64,37.71L442.71,36.44L443.04,40.27L443.32,38.99L443.67,37.71L444.1,33.88L444.28,36.44L444.83,35.16L445.27,31.33L445.68,32.61L445.68,33.88L446.26,51.76L446.56,53.04L447.21,49.21L448.07,47.93L448.21,51.76L449.22,53.04L450.35,50.49L450.39,49.21L450.56,50.49L450.94,49.21L451.42,47.93L451.89,45.38L452.01,49.21L452.15,47.93L452.4,46.66L453.06,44.1L453.43,45.38L454.07,51.76L454.3,49.21L454.33,47.93L454.8,51.76L455.05,51.76L455.2,50.49L455.6,41.55L455.99,47.93L455.99,49.21L456.38,44.1L456.5,51.76L456.5,53.04L457.11,44.1L457.23,46.66L457.37,45.38L457.74,41.55L457.96,42.82L458.16,44.1L458.41,41.55L458.58,50.49L458.58,51.76L458.88,69.65L459.32,64.54L459.42,65.82L459.43,67.09L460.21,65.82L460.44,63.26L460.5,73.48L460.63,72.2L460.94,70.92L461.04,72.2L461.45,70.92L461.5,72.2L461.61,69.65L462.23,68.37L462.89,64.54L463.08,63.26L463.84,56.87L464.1,59.43L464.13,60.71L464.3,59.43L464.68,65.82L465.28,64.54L465.41,65.82L465.68,63.26L465.86,64.54L466.21,65.82L466.88,55.6L467.19,54.32L467.21,53.04L467.3,56.87L467.67,54.32L468.17,53.04L468.19,54.32L468.76,45.38L468.79,44.1L468.82,46.66L469.65,45.38L470.15,41.55L470.72,42.82L470.86,40.27L471.15,46.66L471.54,45.38L471.56,44.1L471.89,42.82L472.16,45.38L472.46,44.1L472.64,46.66L473.01,44.1L473.37,45.38L473.92,38.99L474.28,41.55L474.34,42.82L474.47,41.55L474.5,45.38L474.95,42.82L475.39,41.55L475.4,40.27L475.96,51.76L475.98,49.21L476.13,47.93L477.4,51.76L477.6,50.49L477.86,53.04L478.33,51.76L478.59,50.49L479.62,55.6L479.76,53.04L479.8,51.76L479.91,49.21L480.48,53.04L480.48,53.04L480.84,51.76L481.09,47.93L481.5,51.76L481.53,53.04L481.85,51.76L482.71,72.2L483,70.92L484.75,55.6L484.84,56.87L484.92,54.32L485.03,65.82L485.33,64.54L485.33,65.82L485.9,64.54L485.92,65.82L486.19,67.09L486.6,74.76L486.9,72.2L487.05,70.92L487.17,65.82L487.8,67.09L487.82,65.82L488.05,63.26L488.08,68.37L488.25,67.09L488.73,68.37L489.01,69.65L489.31,65.82L489.67,64.54L489.99,68.37L490.01,69.65L491,65.82L491.06,67.09L491.07,68.37L492.31,59.43L492.62,61.98L492.62,63.26L492.62,64.54L493.21,58.15L493.47,56.87L494.09,53.04L494.88,54.32L495.42,67.09L495.84,65.82L495.94,68.37L496.29,60.71L496.47,61.98L496.73,60.71L497.21,68.37L497.93,67.09L498.13,65.82L498.46,68.37L498.47,69.65L499.13,67.09L499.39,81.14L499.48,79.87L499.49,77.31L500.06,84.97L500.35,83.7L500.57,84.97L502.07,83.7L502.68,84.97L502.99,83.7L503.46,84.97L503.47,83.7L504.03,82.42L504.03,81.14L504.3,84.97L504.38,83.7L505.02,82.42L505.25,83.7L505.59,82.42L506,81.14L506.07,78.59L506.22,82.42L506.52,81.14L507.06,79.87L507.14,78.59L507.28,82.42L507.58,82.42L507.58,83.7L507.58,84.97L508.12,83.7L508.56,82.42L509.37,79.87L509.69,81.14L509.73,84.97L510.3,84.97L510.48,83.7L511.3,76.03L511.32,78.59L511.33,79.87L511.33,81.14L511.49,78.59L512.36,79.87L512.36,78.59L512.65,78.59L513.84,77.31L514.41,73.48L514.54,74.76L514.66,76.03L515.88,68.37L516.29,69.65L516.29,70.92L516.61,65.82L516.77,67.09L517.32,65.82L517.91,68.37L517.92,69.65L518.42,68.37L518.48,69.65L518.79,68.37L518.79,67.09L519.52,69.65L519.72,68.37L519.81,67.09L520.75,65.82L521.39,67.09L521.84,65.82L522.62,60.71L522.86,59.43L522.88,60.71L523.03,59.43L523.78,58.15L524.04,60.71L524.51,59.43L524.63,60.71L525.05,55.6L525.21,58.15L525.5,59.43L525.77,55.6L527.61,56.87L527.95,53.04L528.6,54.32L528.86,67.09L529.32,63.26L529.45,64.54L529.58,67.09L530.18,65.82L530.6,64.54L530.92,60.71L531.9,59.43L532.03,56.87L533.08,55.6L533.76,53.04L533.87,51.76L534,49.21L535.47,50.49L535.9,69.65L536.2,67.09L536.28,65.82L536.34,68.37L537.1,67.09L538.07,63.26L538.07,64.54L538.82,70.92L538.86,69.65L539.31,68.37L539.96,63.26L540,64.54" style="vector-effect: none; fill: none; stroke: rgb(255, 127, 14); stroke-opacity: 1; stroke-width: 2px; opacity: 1;"/></g><g class="points"/><g class="text"/></g></g></g></g><g class="zerolinelayer-above"/><path class="xlines-above crisp" d="M0,0" style="fill: none;"/><path class="ylines-above crisp" d="M0,0" style="fill: none;"/><g class="overlines-above"/><g class="xaxislayer-above"><g class="xtick"><text text-anchor="middle" x="0" y="439" transform="translate(101.53,0)" style="font-family: 'Open Sans'; font-size: 18px; fill: rgb(0, 0, 0); fill-opacity: 1; white-space: pre;">2016</text></g><g class="xtick"><text text-anchor="middle" x="0" y="439" style="font-family: 'Open Sans'; font-size: 18px; fill: rgb(0, 0, 0); fill-opacity: 1; white-space: pre;" transform="translate(208.39,0)">2018</text></g><g class="xtick"><text text-anchor="middle" x="0" y="439" style="font-family: 'Open Sans'; font-size: 18px; fill: rgb(0, 0, 0); fill-opacity: 1; white-space: pre;" transform="translate(315.11,0)">2020</text></g><g class="xtick"><text text-anchor="middle" x="0" y="439" style="font-family: 'Open Sans'; font-size: 18px; fill: rgb(0, 0, 0); fill-opacity: 1; white-space: pre;" transform="translate(421.97,0)">2022</text></g><g class="xtick"><text text-anchor="middle" x="0" y="439" style="font-family: 'Open Sans'; font-size: 18px; fill: rgb(0, 0, 0); fill-opacity: 1; white-space: pre;" transform="translate(528.6800000000001,0)">2024</text></g></g><g class="yaxislayer-above"><g class="ytick"><text text-anchor="end" x="79" y="6.3" transform="translate(0,420)" style="font-family: 'Open Sans'; font-size: 18px; fill: rgb(0, 0, 0); fill-opacity: 1; white-space: pre;">0</text></g><g class="ytick"><text text-anchor="end" x="79" y="6.3" style="font-family: 'Open Sans'; font-size: 18px; fill: rgb(0, 0, 0); fill-opacity: 1; white-space: pre;" transform="translate(0,356.13)">50</text></g><g class="ytick"><text text-anchor="end" x="79" y="6.3" style="font-family: 'Open Sans'; font-size: 18px; fill: rgb(0, 0, 0); fill-opacity: 1; white-space: pre;" transform="translate(0,292.27)">100</text></g><g class="ytick"><text text-anchor="end" x="79" y="6.3" style="font-family: 'Open Sans'; font-size: 18px; fill: rgb(0, 0, 0); fill-opacity: 1; white-space: pre;" transform="translate(0,228.4)">150</text></g><g class="ytick"><text text-anchor="end" x="79" y="6.3" style="font-family: 'Open Sans'; font-size: 18px; fill: rgb(0, 0, 0); fill-opacity: 1; white-space: pre;" transform="translate(0,164.54000000000002)">200</text></g><g class="ytick"><text text-anchor="end" x="79" y="6.3" style="font-family: 'Open Sans'; font-size: 18px; fill: rgb(0, 0, 0); fill-opacity: 1; white-space: pre;" transform="translate(0,100.67)">250</text></g></g><g class="overaxes-above"/></g></g><g class="polarlayer"/><g class="smithlayer"/><g class="ternarylayer"/><g class="geolayer"/><g class="funnelarealayer"/><g class="pielayer"/><g class="iciclelayer"/><g class="treemaplayer"/><g class="sunburstlayer"/><g class="glimages"/><defs id="topdefs-889463"><g class="clips"/></defs><g class="layer-above"><g class="imagelayer"/><g class="shapelayer"/></g><g class="infolayer"><g class="g-gtitle"><text class="gtitle" x="35" y="50" text-anchor="start" dy="0em" style="opacity: 1; font-family: 'Open Sans'; font-size: 25px; fill: rgb(0, 0, 0); fill-opacity: 1; white-space: pre;">MultiQC/MultiQC - Open Issues Over Time</text></g><g class="g-xtitle"><text class="xtitle" x="350" y="473.9" text-anchor="middle" style="opacity: 1; font-family: 'Open Sans'; font-size: 22px; fill: rgb(0, 0, 0); fill-opacity: 1; white-space: pre;">Date</text></g><g class="g-ytitle"><text class="ytitle" transform="rotate(-90,25.909374999999997,260)" x="25.909374999999997" y="260" text-anchor="middle" style="opacity: 1; font-family: 'Open Sans'; font-size: 22px; fill: rgb(0, 0, 0); fill-opacity: 1; white-space: pre;">Number of Open Issues</text></g></g></svg>