<svg class="main-svg" xmlns="http://www.w3.org/2000/svg" xmlns:xlink="http://www.w3.org/1999/xlink" width="700" height="500" style="" viewBox="0 0 700 500"><rect x="0" y="0" width="700" height="500" style="fill: rgb(0, 0, 0); fill-opacity: 0;"/><defs id="defs-1b173a"><g class="clips"><clipPath id="clip1b173axyplot" class="plotclip"><rect width="540" height="320"/></clipPath><clipPath class="axesclip" id="clip1b173ax"><rect x="80" y="0" width="540" height="500"/></clipPath><clipPath class="axesclip" id="clip1b173ay"><rect x="0" y="100" width="700" height="320"/></clipPath><clipPath class="axesclip" id="clip1b173axy"><rect x="80" y="100" width="540" height="320"/></clipPath></g><g class="gradients"/><g class="patterns"/></defs><g class="bglayer"><rect class="bg" x="80" y="100" width="540" height="320" style="fill: rgb(0, 0, 0); fill-opacity: 0; stroke-width: 0;"/></g><g class="layer-below"><g class="imagelayer"/><g class="shapelayer"/></g><g class="cartesianlayer"><g class="subplot xy"><g class="layer-subplot"><g class="shapelayer"/><g class="imagelayer"/></g><g class="minor-gridlayer"><g class="x"/><g class="y"/></g><g class="gridlayer"><g class="x"><path class="xgrid crisp" transform="translate(100.86,0)" d="M0,100v320" style="stroke: rgb(255, 255, 255); stroke-opacity: 1; stroke-width: 1px;"/><path class="xgrid crisp" transform="translate(204.39,0)" d="M0,100v320" style="stroke: rgb(255, 255, 255); stroke-opacity: 1; stroke-width: 1px;"/><path class="xgrid crisp" transform="translate(307.77,0)" d="M0,100v320" style="stroke: rgb(255, 255, 255); stroke-opacity: 1; stroke-width: 1px;"/><path class="xgrid crisp" transform="translate(411.29,0)" d="M0,100v320" style="stroke: rgb(255, 255, 255); stroke-opacity: 1; stroke-width: 1px;"/><path class="xgrid crisp" transform="translate(514.6800000000001,0)" d="M0,100v320" style="stroke: rgb(255, 255, 255); stroke-opacity: 1; stroke-width: 1px;"/><path class="xgrid crisp" transform="translate(618.2,0)" d="M0,100v320" style="stroke: rgb(255, 255, 255); stroke-opacity: 1; stroke-width: 1px;"/></g><g class="y"><path class="ygrid crisp" transform="translate(0,336.85)" d="M80,0h540" style="stroke: rgb(255, 255, 255); stroke-opacity: 1; stroke-width: 1px;"/><path class="ygrid crisp" transform="translate(0,253.7)" d="M80,0h540" style="stroke: rgb(255, 255, 255); stroke-opacity: 1; stroke-width: 1px;"/><path class="ygrid crisp" transform="translate(0,170.55)" d="M80,0h540" style="stroke: rgb(255, 255, 255); stroke-opacity: 1; stroke-width: 1px;"/></g></g><g class="zerolinelayer"><path class="yzl zl crisp" transform="translate(0,420)" d="M80,0h540" style="stroke: rgb(255, 255, 255); stroke-opacity: 1; stroke-width: 2px;"/></g><g class="layer-between"><g class="shapelayer"/><g class="imagelayer"/></g><path class="xlines-below"/><path class="ylines-below"/><g class="overlines-below"/><g class="xaxislayer-below"/><g class="yaxislayer-below"/><g class="overaxes-below"/><g class="overplot"><g class="xy" transform="translate(80,100)" clip-path="url(#clip1b173axyplot)"><g class="scatterlayer mlayer"><g class="trace scatter trace18b8f4" style="stroke-miterlimit: 2;"><g class="fills"><g><path class="js-fill" d="M540,320L0,320L0,319.83L0,319.5L1.95,319.33L3.8,318.34L4.51,318.17L5.1,317.01L5.48,316.84L6.08,315.84L6.38,315.68L8.49,312.18L8.89,312.02L10.03,311.02L10.03,310.85L10.91,310.02L11.58,309.86L12.59,307.69L12.59,307.53L12.86,306.86L13.35,306.7L14.02,305.2L14.54,305.03L15.7,304.53L16.92,304.37L18.38,303.2L18.52,303.04L23.79,302.04L24.63,301.87L25.77,301.37L26.33,301.21L27.46,299.88L29.32,299.71L32.28,297.88L33.48,297.72L37.39,294.89L37.41,294.72L37.7,294.06L38.34,293.89L40.5,291.73L40.5,291.56L41.18,290.9L41.48,290.73L43.72,288.74L45,288.57L47.29,286.41L47.3,286.24L51.62,283.91L52.54,283.75L55.6,282.25L55.61,282.08L57.9,280.75L58.18,280.59L59.49,279.26L61.07,279.09L64.34,276.1L64.44,275.93L64.55,275.6L65.32,275.43L67.89,274.1L67.93,273.93L68.24,273.6L68.99,273.44L70.14,273.1L71.09,272.94L71.92,271.77L72.31,271.61L78.18,269.61L78.29,269.44L80.42,267.95L81.04,267.78L81.38,266.95L82.27,266.78L82.44,266.12L83.59,265.95L85.81,264.29L86.08,264.12L86.77,263.62L87.11,263.46L87.12,263.12L88.19,262.96L88.22,262.63L89.06,262.46L93.27,261.13L93.75,260.96L94.84,260.3L95.15,260.13L99.69,258.14L99.7,257.97L100.94,256.97L100.94,256.81L101.68,254.48L101.97,254.31L106.88,251.48L107.75,251.32L109.96,249.65L110.1,249.49L121.73,245L121.92,244.83L122.78,244.17L124.78,244L125.98,242.67L126.01,242.5L128.34,241.34L128.5,241.17L130.48,240.18L130.54,240.01L131,239.51L131.7,239.34L133.54,237.85L134.36,237.68L136.83,236.85L137.64,236.68L140.32,234.52L140.32,234.35L140.89,234.02L141.24,233.86L144.73,232.03L144.74,231.86L145.56,231.19L146.76,231.03L151.57,229.03L151.76,228.87L152.5,228.2L153.39,228.04L153.64,227.7L154.17,227.54L159.15,226.04L159.29,225.87L160.1,225.21L160.27,225.04L172.05,220.22L172.07,220.05L172.56,219.39L174.36,219.22L180.13,217.06L180.23,216.89L184.76,215.23L184.92,215.06L185.5,214.4L186.08,214.23L186.37,213.9L187.36,213.73L188.1,213.4L188.28,213.23L189.21,212.24L189.29,212.07L191.71,210.41L191.98,210.24L194.46,208.58L195.03,208.41L202.09,206.75L202.33,206.58L205.9,205.42L205.93,205.25L208.17,204.25L209.92,204.09L211.15,203.75L211.99,203.59L215.67,202.09L215.95,201.93L221.79,198.1L221.83,197.93L222.58,197.6L222.74,197.44L225.68,194.61L226.71,194.44L228.99,193.44L229.13,193.28L229.72,192.95L231.83,192.78L237.51,191.12L237.59,190.95L238.48,190.45L238.8,190.28L240.29,189.45L240.47,189.29L241.28,188.46L242.45,188.29L244.12,187.12L244.69,186.96L245.42,186.13L245.85,185.96L246.55,185.13L246.64,184.96L247.52,184.3L247.79,184.13L248.66,183.3L248.68,183.13L251.37,181.64L251.61,181.47L253.71,179.97L254.37,179.81L255.49,178.98L255.69,178.81L257.86,177.48L257.88,177.31L258.56,176.81L258.85,176.65L261.16,174.98L261.36,174.82L263.51,173.82L263.64,173.65L266.64,171.82L267.3,171.66L270.49,169.5L270.77,169.33L271.17,169L271.62,168.83L272.29,168.5L273.45,168.33L274.8,167.67L276.26,167.5L276.56,167L280.09,166.84L286.5,165.34L286.51,165.17L289.93,163.68L289.99,163.51L292.28,162.01L293.29,161.85L295.28,160.52L296.43,160.35L299.08,159.02L299.19,158.85L299.98,158.02L301.21,157.86L303.3,155.86L304.33,155.69L305.22,154.2L305.29,154.03L305.98,153.53L306.31,153.37L308.41,152.2L308.95,152.04L310.31,151.2L310.94,151.04L315.4,148.04L315.4,147.88L324.17,144.39L324.18,144.22L330.38,142.56L331.78,142.39L337.65,139.73L337.75,139.56L339.62,138.4L341,138.23L344.55,136.74L344.8,136.57L346.11,136.07L346.39,135.9L349.49,134.74L349.64,134.57L350.08,133.91L350.75,133.74L351.45,133.24L351.95,133.08L356.07,130.91L356.99,130.75L363.79,128.42L364.67,128.25L367.49,126.92L367.62,126.76L369.3,125.93L370.4,125.76L371.42,125.09L371.8,124.93L374.16,123.76L374.16,123.6L374.16,123.26L375.42,123.1L376.45,122.6L378.28,122.43L378.72,121.93L379.54,121.77L379.55,121.6L380.67,121.44L380.81,121.27L382.36,121.1L387.48,118.94L387.74,118.77L388.59,117.61L388.73,117.44L389.32,117.11L389.64,116.95L393.45,115.45L393.47,115.28L394.4,114.78L394.69,114.62L395.28,113.95L396.71,113.79L397.48,112.95L398.31,112.79L405.31,110.13L406.02,109.96L410.29,107.96L410.31,107.8L411.09,107.3L412.23,107.13L413.43,106.47L414.23,106.3L419.44,101.98L419.44,101.81L421.28,100.48L421.28,100.32L422,98.65L422.27,98.49L426.07,95.33L426.75,95.16L433.25,90.17L434.08,90L437.43,89.01L437.58,88.84L440.81,86.01L440.83,85.85L441.38,83.85L441.73,83.68L442.83,81.02L442.84,80.86L449.1,75.7L449.25,75.54L449.96,74.87L450.75,74.7L451.92,73.21L451.95,73.04L453.07,71.38L453.56,71.21L455.47,69.22L456.11,69.05L457.15,67.72L457.71,67.55L459.02,66.06L459.12,65.89L460.95,64.23L460.96,64.06L462.69,63.06L463.4,62.9L467.52,59.57L467.56,59.4L468.01,58.57L468.64,58.41L470.01,55.75L470.73,55.58L471.62,54.25L471.84,54.08L472.59,53.25L472.72,53.09L474.39,51.42L474.99,51.26L476.83,49.76L476.94,49.59L478.06,48.6L478.35,48.43L479.94,47.93L480.36,47.76L481.62,45.6L482.39,45.44L484.73,43.77L486.4,43.61L486.45,43.44L487.29,43.27L490.57,41.44L490.71,41.28L494.67,39.28L494.68,39.12L496.37,38.12L496.64,37.95L498.7,36.95L498.83,36.79L504.74,33.79L505.55,33.63L506.3,32.96L506.54,32.8L506.71,32.46L507.43,32.3L509.29,31.13L509.36,30.97L512.37,29.97L512.42,29.8L513.63,28.47L514.03,28.31L514.35,27.81L515.29,27.64L515.42,27.31L516.44,27.14L520.33,25.48L520.41,25.31L522.04,24.48L522.47,24.32L523.59,23.32L524.39,23.15L524.43,22.98L525.93,22.82L527.49,21.99L528.41,21.82L528.5,21.49L529.34,21.32L530,20.99L531.5,20.82L533.86,19.66L534.21,19.49L536.44,16.5L536.84,16.33L540,16" style="fill: rgb(255, 127, 14); fill-opacity: 0.5; stroke-width: 0;"/></g></g><g class="errorbars"/><g class="lines"><path class="js-line" d="M0,319.83L0,319.5L1.95,319.33L3.8,318.34L4.51,318.17L5.1,317.01L5.48,316.84L6.08,315.84L6.38,315.68L8.49,312.18L8.89,312.02L10.03,311.02L10.03,310.85L10.91,310.02L11.58,309.86L12.59,307.69L12.59,307.53L12.86,306.86L13.35,306.7L14.02,305.2L14.54,305.03L15.7,304.53L16.92,304.37L18.38,303.2L18.52,303.04L23.79,302.04L24.63,301.87L25.77,301.37L26.33,301.21L27.46,299.88L29.32,299.71L32.28,297.88L33.48,297.72L37.39,294.89L37.41,294.72L37.7,294.06L38.34,293.89L40.5,291.73L40.5,291.56L41.18,290.9L41.48,290.73L43.72,288.74L45,288.57L47.29,286.41L47.3,286.24L51.62,283.91L52.54,283.75L55.6,282.25L55.61,282.08L57.9,280.75L58.18,280.59L59.49,279.26L61.07,279.09L64.34,276.1L64.44,275.93L64.55,275.6L65.32,275.43L67.89,274.1L67.93,273.93L68.24,273.6L68.99,273.44L70.14,273.1L71.09,272.94L71.92,271.77L72.31,271.61L78.18,269.61L78.29,269.44L80.42,267.95L81.04,267.78L81.38,266.95L82.27,266.78L82.44,266.12L83.59,265.95L85.81,264.29L86.08,264.12L86.77,263.62L87.11,263.46L87.12,263.12L88.19,262.96L88.22,262.63L89.06,262.46L93.27,261.13L93.75,260.96L94.84,260.3L95.15,260.13L99.69,258.14L99.7,257.97L100.94,256.97L100.94,256.81L101.68,254.48L101.97,254.31L106.88,251.48L107.75,251.32L109.96,249.65L110.1,249.49L121.73,245L121.92,244.83L122.78,244.17L124.78,244L125.98,242.67L126.01,242.5L128.34,241.34L128.5,241.17L130.48,240.18L130.54,240.01L131,239.51L131.7,239.34L133.54,237.85L134.36,237.68L136.83,236.85L137.64,236.68L140.32,234.52L140.32,234.35L140.89,234.02L141.24,233.86L144.73,232.03L144.74,231.86L145.56,231.19L146.76,231.03L151.57,229.03L151.76,228.87L152.5,228.2L153.39,228.04L153.64,227.7L154.17,227.54L159.15,226.04L159.29,225.87L160.1,225.21L160.27,225.04L172.05,220.22L172.07,220.05L172.56,219.39L174.36,219.22L180.13,217.06L180.23,216.89L184.76,215.23L184.92,215.06L185.5,214.4L186.08,214.23L186.37,213.9L187.36,213.73L188.1,213.4L188.28,213.23L189.21,212.24L189.29,212.07L191.71,210.41L191.98,210.24L194.46,208.58L195.03,208.41L202.09,206.75L202.33,206.58L205.9,205.42L205.93,205.25L208.17,204.25L209.92,204.09L211.15,203.75L211.99,203.59L215.67,202.09L215.95,201.93L221.79,198.1L221.83,197.93L222.58,197.6L222.74,197.44L225.68,194.61L226.71,194.44L228.99,193.44L229.13,193.28L229.72,192.95L231.83,192.78L237.51,191.12L237.59,190.95L238.48,190.45L238.8,190.28L240.29,189.45L240.47,189.29L241.28,188.46L242.45,188.29L244.12,187.12L244.69,186.96L245.42,186.13L245.85,185.96L246.55,185.13L246.64,184.96L247.52,184.3L247.79,184.13L248.66,183.3L248.68,183.13L251.37,181.64L251.61,181.47L253.71,179.97L254.37,179.81L255.49,178.98L255.69,178.81L257.86,177.48L257.88,177.31L258.56,176.81L258.85,176.65L261.16,174.98L261.36,174.82L263.51,173.82L263.64,173.65L266.64,171.82L267.3,171.66L270.49,169.5L270.77,169.33L271.17,169L271.62,168.83L272.29,168.5L273.45,168.33L274.8,167.67L276.26,167.5L276.56,167L280.09,166.84L286.5,165.34L286.51,165.17L289.93,163.68L289.99,163.51L292.28,162.01L293.29,161.85L295.28,160.52L296.43,160.35L299.08,159.02L299.19,158.85L299.98,158.02L301.21,157.86L303.3,155.86L304.33,155.69L305.22,154.2L305.29,154.03L305.98,153.53L306.31,153.37L308.41,152.2L308.95,152.04L310.31,151.2L310.94,151.04L315.4,148.04L315.4,147.88L324.17,144.39L324.18,144.22L330.38,142.56L331.78,142.39L337.65,139.73L337.75,139.56L339.62,138.4L341,138.23L344.55,136.74L344.8,136.57L346.11,136.07L346.39,135.9L349.49,134.74L349.64,134.57L350.08,133.91L350.75,133.74L351.45,133.24L351.95,133.08L356.07,130.91L356.99,130.75L363.79,128.42L364.67,128.25L367.49,126.92L367.62,126.76L369.3,125.93L370.4,125.76L371.42,125.09L371.8,124.93L374.16,123.76L374.16,123.6L374.16,123.26L375.42,123.1L376.45,122.6L378.28,122.43L378.72,121.93L379.54,121.77L379.55,121.6L380.67,121.44L380.81,121.27L382.36,121.1L387.48,118.94L387.74,118.77L388.59,117.61L388.73,117.44L389.32,117.11L389.64,116.95L393.45,115.45L393.47,115.28L394.4,114.78L394.69,114.62L395.28,113.95L396.71,113.79L397.48,112.95L398.31,112.79L405.31,110.13L406.02,109.96L410.29,107.96L410.31,107.8L411.09,107.3L412.23,107.13L413.43,106.47L414.23,106.3L419.44,101.98L419.44,101.81L421.28,100.48L421.28,100.32L422,98.65L422.27,98.49L426.07,95.33L426.75,95.16L433.25,90.17L434.08,90L437.43,89.01L437.58,88.84L440.81,86.01L440.83,85.85L441.38,83.85L441.73,83.68L442.83,81.02L442.84,80.86L449.1,75.7L449.25,75.54L449.96,74.87L450.75,74.7L451.92,73.21L451.95,73.04L453.07,71.38L453.56,71.21L455.47,69.22L456.11,69.05L457.15,67.72L457.71,67.55L459.02,66.06L459.12,65.89L460.95,64.23L460.96,64.06L462.69,63.06L463.4,62.9L467.52,59.57L467.56,59.4L468.01,58.57L468.64,58.41L470.01,55.75L470.73,55.58L471.62,54.25L471.84,54.08L472.59,53.25L472.72,53.09L474.39,51.42L474.99,51.26L476.83,49.76L476.94,49.59L478.06,48.6L478.35,48.43L479.94,47.93L480.36,47.76L481.62,45.6L482.39,45.44L484.73,43.77L486.4,43.61L486.45,43.44L487.29,43.27L490.57,41.44L490.71,41.28L494.67,39.28L494.68,39.12L496.37,38.12L496.64,37.95L498.7,36.95L498.83,36.79L504.74,33.79L505.55,33.63L506.3,32.96L506.54,32.8L506.71,32.46L507.43,32.3L509.29,31.13L509.36,30.97L512.37,29.97L512.42,29.8L513.63,28.47L514.03,28.31L514.35,27.81L515.29,27.64L515.42,27.31L516.44,27.14L520.33,25.48L520.41,25.31L522.04,24.48L522.47,24.32L523.59,23.32L524.39,23.15L524.43,22.98L525.93,22.82L527.49,21.99L528.41,21.82L528.5,21.49L529.34,21.32L530,20.99L531.5,20.82L533.86,19.66L534.21,19.49L536.44,16.5L536.84,16.33L540,16" style="vector-effect: none; fill: none; stroke: rgb(255, 127, 14); stroke-opacity: 1; stroke-width: 2px; opacity: 1;"/></g><g class="points"/><g class="text"/></g></g></g></g><g class="zerolinelayer-above"/><path class="xlines-above crisp" d="M0,0" style="fill: none;"/><path class="ylines-above crisp" d="M0,0" style="fill: none;"/><g class="overlines-above"/><g class="xaxislayer-above"><g class="xtick"><text text-anchor="middle" x="0" y="439" transform="translate(100.86,0)" style="font-family: 'Open Sans'; font-size: 18px; fill: rgb(255, 255, 255); fill-opacity: 1; white-space: pre;">2016</text></g><g class="xtick"><text text-anchor="middle" x="0" y="439" style="font-family: 'Open Sans'; font-size: 18px; fill: rgb(255, 255, 255); fill-opacity: 1; white-space: pre;" transform="translate(204.39,0)">2018</text></g><g class="xtick"><text text-anchor="middle" x="0" y="439" style="font-family: 'Open Sans'; font-size: 18px; fill: rgb(255, 255, 255); fill-opacity: 1; white-space: pre;" transform="translate(307.77,0)">2020</text></g><g class="xtick"><text text-anchor="middle" x="0" y="439" style="font-family: 'Open Sans'; font-size: 18px; fill: rgb(255, 255, 255); fill-opacity: 1; white-space: pre;" transform="translate(411.29,0)">2022</text></g><g class="xtick"><text text-anchor="middle" x="0" y="439" style="font-family: 'Open Sans'; font-size: 18px; fill: rgb(255, 255, 255); fill-opacity: 1; white-space: pre;" transform="translate(514.6800000000001,0)">2024</text></g><g class="xtick"><text text-anchor="middle" x="0" y="439" style="font-family: 'Open Sans'; font-size: 18px; fill: rgb(255, 255, 255); fill-opacity: 1; white-space: pre;" transform="translate(618.2,0)">2026</text></g></g><g class="yaxislayer-above"><g class="ytick"><text text-anchor="end" x="79" y="6.3" transform="translate(0,420)" style="font-family: 'Open Sans'; font-size: 18px; fill: rgb(255, 255, 255); fill-opacity: 1; white-space: pre;">0</text></g><g class="ytick"><text text-anchor="end" x="79" y="6.3" style="font-family: 'Open Sans'; font-size: 18px; fill: rgb(255, 255, 255); fill-opacity: 1; white-space: pre;" transform="translate(0,336.85)">500</text></g><g class="ytick"><text text-anchor="end" x="79" y="6.3" style="font-family: 'Open Sans'; font-size: 18px; fill: rgb(255, 255, 255); fill-opacity: 1; white-space: pre;" transform="translate(0,253.7)">1000</text></g><g class="ytick"><text text-anchor="end" x="79" y="6.3" style="font-family: 'Open Sans'; font-size: 18px; fill: rgb(255, 255, 255); fill-opacity: 1; white-space: pre;" transform="translate(0,170.55)">1500</text></g></g><g class="overaxes-above"/></g></g><g class="polarlayer"/><g class="smithlayer"/><g class="ternarylayer"/><g class="geolayer"/><g class="funnelarealayer"/><g class="pielayer"/><g class="iciclelayer"/><g class="treemaplayer"/><g class="sunburstlayer"/><g class="glimages"/><defs id="topdefs-1b173a"><g class="clips"/></defs><g class="layer-above"><g class="imagelayer"/><g class="shapelayer"/></g><g class="infolayer"><g class="g-gtitle"><text class="gtitle" x="35" y="50" text-anchor="start" dy="0em" style="opacity: 1; font-family: 'Open Sans'; font-size: 25px; fill: rgb(255, 255, 255); fill-opacity: 1; white-space: pre;">MultiQC/MultiQC - Issues Created Over Time</text></g><g class="g-xtitle"><text class="xtitle" x="350" y="472.9" text-anchor="middle" style="opacity: 1; font-family: 'Open Sans'; font-size: 22px; fill: rgb(255, 255, 255); fill-opacity: 1; white-space: pre;">Date</text></g><g class="g-ytitle"><text class="ytitle" transform="rotate(-90,20.799999999999997,260)" x="20.799999999999997" y="260" text-anchor="middle" style="opacity: 1; font-family: 'Open Sans'; font-size: 22px; fill: rgb(255, 255, 255); fill-opacity: 1; white-space: pre;">Cumulative Issues Created</text></g></g></svg>