<svg class="main-svg" xmlns="http://www.w3.org/2000/svg" xmlns:xlink="http://www.w3.org/1999/xlink" width="700" height="500" style="" viewBox="0 0 700 500"><rect x="0" y="0" width="700" height="500" style="fill: rgb(0, 0, 0); fill-opacity: 0;"/><defs id="defs-8cf24a"><g class="clips"><clipPath id="clip8cf24axyplot" class="plotclip"><rect width="540" height="320"/></clipPath><clipPath class="axesclip" id="clip8cf24ax"><rect x="80" y="0" width="540" height="500"/></clipPath><clipPath class="axesclip" id="clip8cf24ay"><rect x="0" y="100" width="700" height="320"/></clipPath><clipPath class="axesclip" id="clip8cf24axy"><rect x="80" y="100" width="540" height="320"/></clipPath></g><g class="gradients"/><g class="patterns"/></defs><g class="bglayer"><rect class="bg" x="80" y="100" width="540" height="320" style="fill: rgb(0, 0, 0); fill-opacity: 0; stroke-width: 0;"/></g><g class="layer-below"><g class="imagelayer"/><g class="shapelayer"/></g><g class="cartesianlayer"><g class="subplot xy"><g class="layer-subplot"><g class="shapelayer"/><g class="imagelayer"/></g><g class="minor-gridlayer"><g class="x"/><g class="y"/></g><g class="gridlayer"><g class="x"><path class="xgrid crisp" transform="translate(100.38,0)" d="M0,100v320" style="stroke: rgb(255, 255, 255); stroke-opacity: 1; stroke-width: 1px;"/><path class="xgrid crisp" transform="translate(201.51999999999998,0)" d="M0,100v320" style="stroke: rgb(255, 255, 255); stroke-opacity: 1; stroke-width: 1px;"/><path class="xgrid crisp" transform="translate(302.51,0)" d="M0,100v320" style="stroke: rgb(255, 255, 255); stroke-opacity: 1; stroke-width: 1px;"/><path class="xgrid crisp" transform="translate(403.65,0)" d="M0,100v320" style="stroke: rgb(255, 255, 255); stroke-opacity: 1; stroke-width: 1px;"/><path class="xgrid crisp" transform="translate(504.64,0)" d="M0,100v320" style="stroke: rgb(255, 255, 255); stroke-opacity: 1; stroke-width: 1px;"/><path class="xgrid crisp" transform="translate(605.78,0)" d="M0,100v320" style="stroke: rgb(255, 255, 255); stroke-opacity: 1; stroke-width: 1px;"/></g><g class="y"><path class="ygrid crisp" transform="translate(0,338.06)" d="M80,0h540" style="stroke: rgb(255, 255, 255); stroke-opacity: 1; stroke-width: 1px;"/><path class="ygrid crisp" transform="translate(0,256.12)" d="M80,0h540" style="stroke: rgb(255, 255, 255); stroke-opacity: 1; stroke-width: 1px;"/><path class="ygrid crisp" transform="translate(0,174.18)" d="M80,0h540" style="stroke: rgb(255, 255, 255); stroke-opacity: 1; stroke-width: 1px;"/></g></g><g class="zerolinelayer"><path class="yzl zl crisp" transform="translate(0,420)" d="M80,0h540" style="stroke: rgb(255, 255, 255); stroke-opacity: 1; stroke-width: 2px;"/></g><g class="layer-between"><g class="shapelayer"/><g class="imagelayer"/></g><path class="xlines-below"/><path class="ylines-below"/><g class="overlines-below"/><g class="xaxislayer-below"/><g class="yaxislayer-below"/><g class="overaxes-below"/><g class="overplot"><g class="xy" transform="translate(80,100)" clip-path="url(#clip8cf24axyplot)"><g class="scatterlayer mlayer"><g class="trace scatter traceb61a5e" style="stroke-miterlimit: 2;"><g class="fills"><g><path class="js-fill" d="M540,320L0,320L0,319.84L0,319.51L1.9,319.34L3.71,318.36L4.4,318.2L4.98,317.05L5.36,316.89L5.94,315.9L6.23,315.74L8.29,312.3L8.68,312.13L9.8,311.15L9.8,310.99L10.65,310.17L11.31,310L12.3,307.87L12.3,307.71L13.04,306.73L13.27,306.56L13.7,305.41L14.2,305.25L15.34,304.76L16.53,304.6L17.96,303.45L18.09,303.28L23.24,302.3L24.06,302.14L25.18,301.65L25.72,301.48L26.83,300.17L28.65,300.01L31.54,298.2L32.71,298.04L36.53,295.42L36.53,295.25L36.83,294.43L37.45,294.27L39.56,292.3L39.56,292.14L40.23,291.32L40.52,291.16L42.71,289.19L43.96,289.03L46.2,286.9L46.21,286.73L51.33,284.27L51.97,284.11L52.98,283.13L54.09,282.96L58.12,279.85L59.66,279.69L62.95,276.57L62.97,276.41L63.81,276.08L64.46,275.92L64.57,275.59L65.44,275.42L68.52,273.79L69.45,273.62L70.26,272.47L70.64,272.31L76.38,270.34L76.49,270.18L78.56,268.71L79.17,268.54L79.5,267.72L80.37,267.56L80.54,266.9L81.66,266.74L84.09,264.94L84.14,264.77L94.48,260.35L94.51,260.18L98.5,258.05L98.61,257.89L99.34,255.43L99.62,255.27L104.41,252.48L105.26,252.32L107.56,250.51L108.01,250.35L115.38,247.89L116.34,247.73L118.16,246.58L118.19,246.42L122.88,244.12L122.99,243.96L123.87,243.47L124.27,243.3L130.29,239.21L130.46,239.04L135.26,237.4L135.29,237.24L136.64,236.09L136.64,235.93L139.32,234.13L139.59,233.96L142.11,232.65L142.2,232.49L146.78,231.18L146.82,231.01L148.26,230.19L148.3,230.03L148.98,229.54L149.85,229.37L150.09,229.05L150.61,228.88L155.47,227.41L155.62,227.24L156.41,226.59L156.57,226.42L168.08,221.67L168.1,221.51L168.58,220.85L170.33,220.69L175.97,218.56L176.07,218.39L180.5,216.75L180.66,216.59L181.22,215.94L181.78,215.77L182.07,215.44L183.03,215.28L183.76,214.95L183.94,214.79L184.68,214.13L184.82,213.97L185.14,213.31L185.94,213.15L187.88,211.51L188.69,211.35L189.98,210.2L190.52,210.04L199.03,208.07L199.33,207.91L200.29,207.58L201,207.41L201.63,206.59L202.44,206.43L209.3,204.3L209.51,204.14L212.68,202.66L212.81,202.5L217.79,198.89L217.98,198.73L218.86,197.58L219.39,197.42L221.48,196.27L222.85,196.11L223.84,195.12L224.05,194.96L226.48,194.63L227.42,194.47L228.52,193.98L229.35,193.81L229.64,193.48L231.46,193.32L234.7,191.68L234.73,191.52L235.29,190.53L235.71,190.37L238.12,189.39L238.12,189.22L240.73,187.42L240.83,187.26L241.5,186.44L241.81,186.27L246,183.16L246.11,183L247.85,182.01L248.5,181.85L249.59,181.03L249.79,180.86L251.68,179.72L251.9,179.55L252.59,178.9L252.87,178.73L255.13,177.1L255.32,176.93L257.43,175.95L257.55,175.78L260.48,173.98L261.13,173.82L264.25,171.69L264.52,171.52L264.91,171.2L265.35,171.03L266.01,170.7L267.14,170.54L268.46,169.88L269.88,169.72L270.17,169.23L273.62,169.07L279.89,167.59L279.89,167.43L283.29,165.79L283.51,165.62L288.46,162.84L289.59,162.67L292.18,161.36L292.28,161.2L293.05,160.38L294.26,160.22L296.29,158.25L297.31,158.09L298.25,156.45L298.28,156.28L307.14,151.53L307.54,151.37L309.04,149.89L310,149.73L320.56,145.47L321.5,145.3L327.99,143.83L328.28,143.66L329.15,142.84L329.57,142.68L331.78,141.04L333.13,140.88L336.6,139.4L336.84,139.24L338.12,138.75L338.39,138.58L341.42,137.44L341.57,137.27L342,136.62L342.65,136.45L343.34,135.96L343.83,135.8L347.85,133.67L348.75,133.5L356.25,131.04L356.99,130.88L365.53,126.46L365.53,126.29L365.53,126.13L366.76,125.96L367.76,125.47L369.55,125.31L369.98,124.82L370.78,124.65L370.79,124.49L371.89,124.33L372.02,124.16L373.53,124L378.79,121.7L378.8,121.54L379.75,120.39L379.79,120.23L385.16,117.93L385.3,117.77L392.07,114.33L392.68,114.16L401.57,110.56L401.6,110.4L404.9,109.25L404.92,109.08L407.68,107.12L407.7,106.95L409.06,105.97L409.58,105.81L410.23,104.82L410.63,104.66L411.34,104L411.55,103.84L412.26,101.87L412.52,101.71L416.89,98.43L417.1,98.27L417.9,97.78L418,97.61L419.17,96.47L419.4,96.3L420.3,95.48L421,95.32L422.34,94.17L422.83,94.01L423.25,93.52L424.06,93.35L427.33,92.37L427.47,92.2L430.53,89.58L430.64,89.42L431.19,87.29L431.53,87.12L432.6,84.5L432.62,84.34L438.57,79.42L438.73,79.26L440.73,77.95L441.24,77.78L442.61,75L443.09,74.83L444.96,72.87L445.58,72.7L446.6,71.39L447.14,71.23L448.42,69.75L448.52,69.59L450.31,67.95L450.32,67.79L452.01,66.8L452.7,66.64L455.29,64.51L455.32,64.35L456.77,63.2L456.79,63.03L457.2,62.38L457.82,62.21L459.86,59.43L460.15,59.26L461.07,57.3L461.68,57.13L463.44,55.33L464.03,55.17L466.75,53.2L466.75,53.04L467.52,52.22L467.62,52.05L469.41,51.07L469.5,50.91L471.44,49.27L472.31,49.1L473.13,47.96L473.54,47.79L477.03,46.81L477.36,46.65L479.89,45.17L479.97,45.01L483.94,42.55L484.08,42.38L487.19,41.07L487.32,40.91L500.75,33.54L500.83,33.37L502.48,32.06L503.4,31.9L503.52,31.57L504.52,31.4L508.4,29.6L508.56,29.44L511.03,27.96L511.07,27.8L522.1,23.54L522.13,23.37L523.62,22.06L523.62,21.9L524.06,20.92L524.45,20.75L528.64,19.77L528.79,19.61L532.05,18.62L532.36,18.46L532.7,18.13L534.55,17.97L538.97,16.49L539.26,16.33L540,16" style="fill: rgb(255, 127, 14); fill-opacity: 0.5; stroke-width: 0;"/></g></g><g class="errorbars"/><g class="lines"><path class="js-line" d="M0,319.84L0,319.51L1.9,319.34L3.71,318.36L4.4,318.2L4.98,317.05L5.36,316.89L5.94,315.9L6.23,315.74L8.29,312.3L8.68,312.13L9.8,311.15L9.8,310.99L10.65,310.17L11.31,310L12.3,307.87L12.3,307.71L13.04,306.73L13.27,306.56L13.7,305.41L14.2,305.25L15.34,304.76L16.53,304.6L17.96,303.45L18.09,303.28L23.24,302.3L24.06,302.14L25.18,301.65L25.72,301.48L26.83,300.17L28.65,300.01L31.54,298.2L32.71,298.04L36.53,295.42L36.53,295.25L36.83,294.43L37.45,294.27L39.56,292.3L39.56,292.14L40.23,291.32L40.52,291.16L42.71,289.19L43.96,289.03L46.2,286.9L46.21,286.73L51.33,284.27L51.97,284.11L52.98,283.13L54.09,282.96L58.12,279.85L59.66,279.69L62.95,276.57L62.97,276.41L63.81,276.08L64.46,275.92L64.57,275.59L65.44,275.42L68.52,273.79L69.45,273.62L70.26,272.47L70.64,272.31L76.38,270.34L76.49,270.18L78.56,268.71L79.17,268.54L79.5,267.72L80.37,267.56L80.54,266.9L81.66,266.74L84.09,264.94L84.14,264.77L94.48,260.35L94.51,260.18L98.5,258.05L98.61,257.89L99.34,255.43L99.62,255.27L104.41,252.48L105.26,252.32L107.56,250.51L108.01,250.35L115.38,247.89L116.34,247.73L118.16,246.58L118.19,246.42L122.88,244.12L122.99,243.96L123.87,243.47L124.27,243.3L130.29,239.21L130.46,239.04L135.26,237.4L135.29,237.24L136.64,236.09L136.64,235.93L139.32,234.13L139.59,233.96L142.11,232.65L142.2,232.49L146.78,231.18L146.82,231.01L148.26,230.19L148.3,230.03L148.98,229.54L149.85,229.37L150.09,229.05L150.61,228.88L155.47,227.41L155.62,227.24L156.41,226.59L156.57,226.42L168.08,221.67L168.1,221.51L168.58,220.85L170.33,220.69L175.97,218.56L176.07,218.39L180.5,216.75L180.66,216.59L181.22,215.94L181.78,215.77L182.07,215.44L183.03,215.28L183.76,214.95L183.94,214.79L184.68,214.13L184.82,213.97L185.14,213.31L185.94,213.15L187.88,211.51L188.69,211.35L189.98,210.2L190.52,210.04L199.03,208.07L199.33,207.91L200.29,207.58L201,207.41L201.63,206.59L202.44,206.43L209.3,204.3L209.51,204.14L212.68,202.66L212.81,202.5L217.79,198.89L217.98,198.73L218.86,197.58L219.39,197.42L221.48,196.27L222.85,196.11L223.84,195.12L224.05,194.96L226.48,194.63L227.42,194.47L228.52,193.98L229.35,193.81L229.64,193.48L231.46,193.32L234.7,191.68L234.73,191.52L235.29,190.53L235.71,190.37L238.12,189.39L238.12,189.22L240.73,187.42L240.83,187.26L241.5,186.44L241.81,186.27L246,183.16L246.11,183L247.85,182.01L248.5,181.85L249.59,181.03L249.79,180.86L251.68,179.72L251.9,179.55L252.59,178.9L252.87,178.73L255.13,177.1L255.32,176.93L257.43,175.95L257.55,175.78L260.48,173.98L261.13,173.82L264.25,171.69L264.52,171.52L264.91,171.2L265.35,171.03L266.01,170.7L267.14,170.54L268.46,169.88L269.88,169.72L270.17,169.23L273.62,169.07L279.89,167.59L279.89,167.43L283.29,165.79L283.51,165.62L288.46,162.84L289.59,162.67L292.18,161.36L292.28,161.2L293.05,160.38L294.26,160.22L296.29,158.25L297.31,158.09L298.25,156.45L298.28,156.28L307.14,151.53L307.54,151.37L309.04,149.89L310,149.73L320.56,145.47L321.5,145.3L327.99,143.83L328.28,143.66L329.15,142.84L329.57,142.68L331.78,141.04L333.13,140.88L336.6,139.4L336.84,139.24L338.12,138.75L338.39,138.58L341.42,137.44L341.57,137.27L342,136.62L342.65,136.45L343.34,135.96L343.83,135.8L347.85,133.67L348.75,133.5L356.25,131.04L356.99,130.88L365.53,126.46L365.53,126.29L365.53,126.13L366.76,125.96L367.76,125.47L369.55,125.31L369.98,124.82L370.78,124.65L370.79,124.49L371.89,124.33L372.02,124.16L373.53,124L378.79,121.7L378.8,121.54L379.75,120.39L379.79,120.23L385.16,117.93L385.3,117.77L392.07,114.33L392.68,114.16L401.57,110.56L401.6,110.4L404.9,109.25L404.92,109.08L407.68,107.12L407.7,106.95L409.06,105.97L409.58,105.81L410.23,104.82L410.63,104.66L411.34,104L411.55,103.84L412.26,101.87L412.52,101.71L416.89,98.43L417.1,98.27L417.9,97.78L418,97.61L419.17,96.47L419.4,96.3L420.3,95.48L421,95.32L422.34,94.17L422.83,94.01L423.25,93.52L424.06,93.35L427.33,92.37L427.47,92.2L430.53,89.58L430.64,89.42L431.19,87.29L431.53,87.12L432.6,84.5L432.62,84.34L438.57,79.42L438.73,79.26L440.73,77.95L441.24,77.78L442.61,75L443.09,74.83L444.96,72.87L445.58,72.7L446.6,71.39L447.14,71.23L448.42,69.75L448.52,69.59L450.31,67.95L450.32,67.79L452.01,66.8L452.7,66.64L455.29,64.51L455.32,64.35L456.77,63.2L456.79,63.03L457.2,62.38L457.82,62.21L459.86,59.43L460.15,59.26L461.07,57.3L461.68,57.13L463.44,55.33L464.03,55.17L466.75,53.2L466.75,53.04L467.52,52.22L467.62,52.05L469.41,51.07L469.5,50.91L471.44,49.27L472.31,49.1L473.13,47.96L473.54,47.79L477.03,46.81L477.36,46.65L479.89,45.17L479.97,45.01L483.94,42.55L484.08,42.38L487.19,41.07L487.32,40.91L500.75,33.54L500.83,33.37L502.48,32.06L503.4,31.9L503.52,31.57L504.52,31.4L508.4,29.6L508.56,29.44L511.03,27.96L511.07,27.8L522.1,23.54L522.13,23.37L523.62,22.06L523.62,21.9L524.06,20.92L524.45,20.75L528.64,19.77L528.79,19.61L532.05,18.62L532.36,18.46L532.7,18.13L534.55,17.97L538.97,16.49L539.26,16.33L540,16" style="vector-effect: none; fill: none; stroke: rgb(255, 127, 14); stroke-opacity: 1; stroke-width: 2px; opacity: 1;"/></g><g class="points"/><g class="text"/></g></g></g></g><g class="zerolinelayer-above"/><path class="xlines-above crisp" d="M0,0" style="fill: none;"/><path class="ylines-above crisp" d="M0,0" style="fill: none;"/><g class="overlines-above"/><g class="xaxislayer-above"><g class="xtick"><text text-anchor="middle" x="0" y="439" transform="translate(100.38,0)" style="font-family: 'Open Sans'; font-size: 18px; fill: rgb(255, 255, 255); fill-opacity: 1; white-space: pre;">2016</text></g><g class="xtick"><text text-anchor="middle" x="0" y="439" style="font-family: 'Open Sans'; font-size: 18px; fill: rgb(255, 255, 255); fill-opacity: 1; white-space: pre;" transform="translate(201.51999999999998,0)">2018</text></g><g class="xtick"><text text-anchor="middle" x="0" y="439" style="font-family: 'Open Sans'; font-size: 18px; fill: rgb(255, 255, 255); fill-opacity: 1; white-space: pre;" transform="translate(302.51,0)">2020</text></g><g class="xtick"><text text-anchor="middle" x="0" y="439" style="font-family: 'Open Sans'; font-size: 18px; fill: rgb(255, 255, 255); fill-opacity: 1; white-space: pre;" transform="translate(403.65,0)">2022</text></g><g class="xtick"><text text-anchor="middle" x="0" y="439" style="font-family: 'Open Sans'; font-size: 18px; fill: rgb(255, 255, 255); fill-opacity: 1; white-space: pre;" transform="translate(504.64,0)">2024</text></g><g class="xtick"><text text-anchor="middle" x="0" y="439" style="font-family: 'Open Sans'; font-size: 18px; fill: rgb(255, 255, 255); fill-opacity: 1; white-space: pre;" transform="translate(605.78,0)">2026</text></g></g><g class="yaxislayer-above"><g class="ytick"><text text-anchor="end" x="79" y="6.3" transform="translate(0,420)" style="font-family: 'Open Sans'; font-size: 18px; fill: rgb(255, 255, 255); fill-opacity: 1; white-space: pre;">0</text></g><g class="ytick"><text text-anchor="end" x="79" y="6.3" style="font-family: 'Open Sans'; font-size: 18px; fill: rgb(255, 255, 255); fill-opacity: 1; white-space: pre;" transform="translate(0,338.06)">500</text></g><g class="ytick"><text text-anchor="end" x="79" y="6.3" style="font-family: 'Open Sans'; font-size: 18px; fill: rgb(255, 255, 255); fill-opacity: 1; white-space: pre;" transform="translate(0,256.12)">1000</text></g><g class="ytick"><text text-anchor="end" x="79" y="6.3" style="font-family: 'Open Sans'; font-size: 18px; fill: rgb(255, 255, 255); fill-opacity: 1; white-space: pre;" transform="translate(0,174.18)">1500</text></g></g><g class="overaxes-above"/></g></g><g class="polarlayer"/><g class="smithlayer"/><g class="ternarylayer"/><g class="geolayer"/><g class="funnelarealayer"/><g class="pielayer"/><g class="iciclelayer"/><g class="treemaplayer"/><g class="sunburstlayer"/><g class="glimages"/><defs id="topdefs-8cf24a"><g class="clips"/></defs><g class="layer-above"><g class="imagelayer"/><g class="shapelayer"/></g><g class="infolayer"><g class="g-gtitle"><text class="gtitle" x="35" y="50" text-anchor="start" dy="0em" style="opacity: 1; font-family: 'Open Sans'; font-size: 25px; fill: rgb(255, 255, 255); fill-opacity: 1; white-space: pre;">MultiQC/MultiQC - Issues Created Over Time</text></g><g class="g-xtitle"><text class="xtitle" x="350" y="472.9" text-anchor="middle" style="opacity: 1; font-family: 'Open Sans'; font-size: 22px; fill: rgb(255, 255, 255); fill-opacity: 1; white-space: pre;">Date</text></g><g class="g-ytitle"><text class="ytitle" transform="rotate(-90,20.799999999999997,260)" x="20.799999999999997" y="260" text-anchor="middle" style="opacity: 1; font-family: 'Open Sans'; font-size: 22px; fill: rgb(255, 255, 255); fill-opacity: 1; white-space: pre;">Cumulative Issues Created</text></g></g></svg>