<svg class="main-svg" xmlns="http://www.w3.org/2000/svg" xmlns:xlink="http://www.w3.org/1999/xlink" width="700" height="500" style="" viewBox="0 0 700 500"><rect x="0" y="0" width="700" height="500" style="fill: rgb(0, 0, 0); fill-opacity: 0;"/><defs id="defs-aac50e"><g class="clips"><clipPath id="clipaac50exyplot" class="plotclip"><rect width="540" height="320"/></clipPath><clipPath class="axesclip" id="clipaac50ex"><rect x="80" y="0" width="540" height="500"/></clipPath><clipPath class="axesclip" id="clipaac50ey"><rect x="0" y="100" width="700" height="320"/></clipPath><clipPath class="axesclip" id="clipaac50exy"><rect x="80" y="100" width="540" height="320"/></clipPath></g><g class="gradients"/><g class="patterns"/></defs><g class="bglayer"><rect class="bg" x="80" y="100" width="540" height="320" style="fill: rgb(0, 0, 0); fill-opacity: 0; stroke-width: 0;"/></g><g class="layer-below"><g class="imagelayer"/><g class="shapelayer"/></g><g class="cartesianlayer"><g class="subplot xy"><g class="layer-subplot"><g class="shapelayer"/><g class="imagelayer"/></g><g class="minor-gridlayer"><g class="x"/><g class="y"/></g><g class="gridlayer"><g class="x"><path class="xgrid crisp" transform="translate(101.36,0)" d="M0,100v320" style="stroke: rgb(255, 255, 255); stroke-opacity: 1; stroke-width: 1px;"/><path class="xgrid crisp" transform="translate(207.34,0)" d="M0,100v320" style="stroke: rgb(255, 255, 255); stroke-opacity: 1; stroke-width: 1px;"/><path class="xgrid crisp" transform="translate(313.16999999999996,0)" d="M0,100v320" style="stroke: rgb(255, 255, 255); stroke-opacity: 1; stroke-width: 1px;"/><path class="xgrid crisp" transform="translate(419.15,0)" d="M0,100v320" style="stroke: rgb(255, 255, 255); stroke-opacity: 1; stroke-width: 1px;"/><path class="xgrid crisp" transform="translate(524.99,0)" d="M0,100v320" style="stroke: rgb(255, 255, 255); stroke-opacity: 1; stroke-width: 1px;"/></g><g class="y"><path class="ygrid crisp" transform="translate(0,356.13)" d="M80,0h540" style="stroke: rgb(255, 255, 255); stroke-opacity: 1; stroke-width: 1px;"/><path class="ygrid crisp" transform="translate(0,292.27)" d="M80,0h540" style="stroke: rgb(255, 255, 255); stroke-opacity: 1; stroke-width: 1px;"/><path class="ygrid crisp" transform="translate(0,228.4)" d="M80,0h540" style="stroke: rgb(255, 255, 255); stroke-opacity: 1; stroke-width: 1px;"/><path class="ygrid crisp" transform="translate(0,164.54000000000002)" d="M80,0h540" style="stroke: rgb(255, 255, 255); stroke-opacity: 1; stroke-width: 1px;"/></g></g><g class="zerolinelayer"><path class="yzl zl crisp" transform="translate(0,420)" d="M80,0h540" style="stroke: rgb(255, 255, 255); stroke-opacity: 1; stroke-width: 2px;"/></g><g class="layer-between"><g class="shapelayer"/><g class="imagelayer"/></g><path class="xlines-below"/><path class="ylines-below"/><g class="overlines-below"/><g class="xaxislayer-below"/><g class="yaxislayer-below"/><g class="overaxes-below"/><g class="overplot"><g class="xy" transform="translate(80,100)" clip-path="url(#clipaac50exyplot)"><g class="scatterlayer mlayer"><g class="trace scatter trace68a61d" style="stroke-miterlimit: 2;"><g class="fills"><g><path class="js-fill" d="M540,320L0,320L0,318.72L0,316.17L0.57,317.45L1.88,318.72L1.99,317.45L3.04,318.72L3.89,312.34L3.91,313.61L4.61,312.34L5.05,307.23L5.22,308.5L5.61,309.78L5.78,305.95L6.08,311.06L6.22,308.5L6.53,309.78L7.23,298.29L7.35,297.01L7.52,295.73L7.79,298.29L7.8,299.56L7.81,300.84L7.98,290.62L8.69,289.34L9.08,298.29L9.09,299.56L9.83,308.5L9.84,307.23L9.85,308.5L10.3,299.56L10.68,300.84L10.72,298.29L11.15,303.39L11.27,303.39L11.74,304.67L11.74,305.95L12.28,295.73L12.31,297.01L12.76,295.73L12.89,288.07L12.89,286.79L13,285.51L13.05,293.18L13.17,290.62L13.46,291.9L13.48,294.45L14.2,286.79L14.31,285.51L14.31,284.24L14.35,288.07L15.05,286.79L15.08,285.51L16.1,293.18L17.32,291.9L17.94,289.34L18.07,288.07L18.82,282.96L18.82,284.24L18.96,282.96L19.41,284.24L22.01,282.96L22.02,284.24L22.43,280.4L22.44,282.96L24,281.68L24.2,282.96L24.35,281.68L25.21,280.4L25.95,277.85L26.06,279.13L26.38,277.85L27.15,286.79L27.21,285.51L27.5,281.68L27.51,282.96L27.95,284.24L28.37,285.51L29.57,286.79L31.05,282.96L31.28,284.24L31.32,288.07L31.32,288.07L32.13,286.79L32.62,290.62L33.05,289.34L33.25,295.73L34.17,297.01L34.89,294.45L34.89,295.73L35.04,297.01L35.65,294.45L35.94,293.18L36.69,295.73L37.07,294.45L37.07,295.73L37.22,289.34L37.51,290.62L38.22,289.34L38.46,285.51L38.66,293.18L39.17,294.45L39.24,293.18L39.7,297.01L39.76,298.29L39.99,293.18L40.28,294.45L40.59,295.73L41.46,289.34L41.59,293.18L41.94,291.9L42.16,289.34L42.18,291.9L42.32,293.18L43.75,285.51L44.46,284.24L44.76,282.96L45.38,284.24L46.07,285.51L46.37,284.24L46.39,288.07L46.86,282.96L47.13,284.24L47.2,281.68L47.52,288.07L47.68,289.34L48.27,293.18L48.41,290.62L48.42,289.34L48.53,293.18L48.85,291.9L49.42,293.18L49.43,297.01L49.73,294.45L50.3,295.73L50.7,294.45L50.7,295.73L51.42,294.45L51.42,295.73L51.61,293.18L51.74,293.18L52.59,291.9L53.79,289.34L54.36,290.62L54.36,291.9L54.8,288.07L54.96,290.62L55.42,289.34L55.52,288.07L55.83,291.9L56.68,290.62L58.04,285.51L58.56,284.24L59.83,272.74L59.9,275.29L60,276.57L60,277.85L60.61,275.29L60.78,274.02L60.9,272.74L60.92,274.02L62.52,272.74L63.06,266.35L63.59,267.63L64.08,265.08L64.19,266.35L64.66,265.08L66.08,251.03L66.11,253.58L66.87,252.3L67.54,254.86L67.54,256.13L67.55,262.52L67.86,262.52L68.57,261.24L69.86,257.41L70.62,256.13L70.88,263.8L71.8,262.52L72.93,275.29L73.08,274.02L73.62,272.74L73.62,271.46L74.03,271.46L74.49,272.74L75.6,268.91L75.6,270.18L76.08,267.63L76.13,268.91L77.01,267.63L77.81,266.35L78.33,265.08L81.72,254.86L81.72,256.13L82.19,259.97L82.33,256.13L82.74,257.41L83.04,258.69L83.1,254.86L83.31,257.41L84.06,258.69L84.4,252.3L84.41,253.58L85.57,252.3L85.78,253.58L85.98,252.3L86.23,251.03L86.25,249.75L86.98,253.58L87.11,252.3L87.26,253.58L87.85,249.75L87.85,251.03L88,252.3L88.41,257.41L88.83,256.13L89.18,254.86L89.18,252.3L89.3,256.13L90.29,254.86L90.29,256.13L90.31,253.58L91,256.13L91.18,254.86L92,257.41L92.34,256.13L92.93,257.41L93.02,258.69L93.34,263.8L93.89,262.52L94.21,271.46L94.5,268.91L94.98,267.63L96.07,263.8L96.21,265.08L96.21,266.35L98.12,258.69L98.13,259.97L100.28,252.3L100.42,253.58L100.42,254.86L101.34,257.41L101.45,258.69L102.33,270.18L102.64,268.91L103.06,271.46L103.06,270.18L103.16,268.91L103.2,271.46L103.64,258.69L103.64,258.69L104.07,257.41L104.39,254.86L104.67,261.24L105.07,259.97L106.09,257.41L106.09,258.69L106.09,259.97L106.22,262.52L106.67,261.24L107.17,259.97L107.53,263.8L107.67,261.24L108.09,259.97L108.11,261.24L108.68,258.69L108.7,259.97L109.3,258.69L109.42,257.41L109.42,258.69L110.12,259.97L110.12,261.24L110.74,259.97L111.32,258.69L111.56,254.86L111.74,254.86L112.17,253.58L113.57,247.19L113.61,248.47L113.68,249.75L114.19,248.47L115.51,247.19L115.8,245.92L116.38,247.19L117.82,243.36L118.3,244.64L118.6,243.36L119.46,274.02L119.57,272.74L120.2,270.18L120.48,271.46L120.9,270.18L120.91,271.46L121.92,270.18L122.33,271.46L122.64,270.18L122.65,268.91L123.35,267.63L123.61,268.91L123.62,271.46L123.85,266.35L124.38,265.08L124.38,266.35L124.81,263.8L124.87,263.8L125.45,262.52L125.45,261.24L125.95,267.63L127.74,266.35L127.96,267.63L128.01,266.35L128.55,265.08L129,259.97L129.81,258.69L131.55,253.58L131.93,254.86L132.42,252.3L132.5,253.58L132.5,254.86L132.65,261.24L133.03,258.69L133.58,257.41L134.11,254.86L134.35,256.13L134.97,261.24L135.7,259.97L136.71,254.86L137.1,256.13L137.8,254.86L138.9,253.58L140.07,249.75L140.9,251.03L141.66,249.75L141.73,251.03L142.26,249.75L142.63,248.47L142.64,251.03L143.19,245.92L143.19,245.92L143.65,244.64L143.65,242.08L144.23,243.36L144.59,242.08L145.11,239.53L145.14,238.25L145.22,236.97L145.27,240.81L145.83,239.53L145.85,240.81L146.28,238.25L146.93,239.53L147.33,235.7L147.59,247.19L148.16,245.92L148.92,243.36L149,244.64L149.01,243.36L149.03,245.92L150.24,244.64L150.91,243.36L151.03,245.92L151.87,244.64L151.88,245.92L152.55,242.08L152.62,243.36L153.19,244.64L153.82,243.36L153.82,244.64L153.86,243.36L154.97,242.08L154.98,243.36L155.16,239.53L155.45,239.53L155.96,238.25L157.28,233.14L157.82,234.42L157.82,233.14L158.5,239.53L158.88,238.25L160.11,236.97L160.45,238.25L162.92,231.87L163.07,233.14L163.6,228.03L163.9,226.76L165.24,219.09L166,217.82L166,219.09L166.39,217.82L167.51,216.54L167.57,215.26L168.04,220.37L168.49,219.09L169.57,216.54L169.57,215.26L169.59,213.98L169.81,222.92L171.12,221.65L171.37,219.09L172.5,217.82L173.25,222.92L173.61,221.65L176.59,211.43L176.66,210.15L176.7,211.43L178.49,210.15L178.74,215.26L178.75,216.54L178.76,220.37L179.18,217.82L181.19,216.54L181.22,219.09L181.37,217.82L182.13,216.54L182.66,211.43L182.67,212.71L183.21,213.98L183.58,215.26L184.5,210.15L184.56,211.43L184.7,212.71L185.56,211.43L185.57,212.71L188.77,207.6L188.87,206.32L189.46,202.49L189.47,203.76L189.9,202.49L189.93,205.04L190.61,203.76L190.79,202.49L191.5,203.76L191.8,202.49L192.56,201.21L192.75,199.93L193.53,197.38L193.68,196.1L193.86,197.38L194.01,194.82L194.02,196.1L194.85,194.82L196.26,185.88L196.26,187.16L196.26,188.44L196.88,184.61L197.2,185.88L197.73,184.61L197.94,182.05L198.41,184.61L198.69,183.33L199.08,180.77L199.65,179.5L200.85,178.22L200.85,179.5L200.93,178.22L200.97,179.5L202.35,178.22L203.11,179.5L203.86,178.22L204.09,176.94L204.09,178.22L206,176.94L206.72,175.66L206.73,176.94L206.73,178.22L207.13,176.94L207.99,178.22L207.99,179.5L208.7,179.5L208.88,178.22L209.88,175.66L210.63,174.39L211.29,170.55L211.67,171.83L213.1,166.72L213.44,168L214.9,166.72L215.13,165.45L216.16,164.17L216.28,165.45L218.87,160.34L219.17,161.61L219.55,157.78L220.31,156.5L220.75,159.06L220.79,157.78L221.07,156.5L221.84,153.95L222.06,155.23L222.09,156.5L222.12,160.34L222.79,156.5L222.85,157.78L223.32,155.23L223.4,162.89L223.8,161.61L223.83,162.89L223.85,161.61L224.59,160.34L224.82,161.61L225.3,157.78L225.43,159.06L226.29,175.66L226.29,174.39L226.35,173.11L227.26,189.71L227.86,188.44L228.03,189.71L228.47,184.61L228.47,185.88L228.64,187.16L228.92,188.44L229.08,185.88L229.2,184.61L230.19,179.5L230.5,178.22L230.99,174.39L231.03,173.11L231.14,178.22L232.09,176.94L234.15,174.39L234.18,173.11L234.78,166.72L235.17,165.45L235.63,166.72L237.33,165.45L238.51,162.89L238.59,161.61L239.47,160.34L239.89,161.61L240.65,159.06L242.55,157.78L243.15,155.23L243.22,153.95L243.39,151.39L244.14,150.12L244.27,151.39L244.46,150.12L245.64,148.84L245.97,145.01L245.99,151.39L245.99,152.67L245.99,155.23L246.56,150.12L247,148.84L247.21,150.12L248.2,148.84L248.36,150.12L248.6,148.84L249.21,150.12L249.29,148.84L249.47,153.95L249.91,151.39L250.19,152.67L250.5,151.39L250.52,153.95L250.63,153.95L250.64,155.23L251.68,151.39L252.13,150.12L252.55,147.56L252.69,153.95L253.07,152.67L253.39,151.39L253.54,152.67L253.58,153.95L253.66,152.67L253.98,155.23L254.31,156.5L254.39,153.95L254.43,165.45L254.44,166.72L254.56,165.45L254.97,185.88L255.13,184.61L255.26,185.88L255.26,187.16L255.71,187.16L256.28,185.88L257.34,180.77L257.43,182.05L258.77,173.11L258.92,174.39L259.21,173.11L260.47,169.28L260.48,170.55L260.63,171.83L261.24,168L261.55,166.72L261.75,165.45L262.41,166.72L263.06,160.34L263.53,159.06L264.02,153.95L264.03,155.23L264.58,156.5L265.42,151.39L265.61,150.12L266.91,142.45L267.35,141.18L267.56,139.9L268.63,138.62L270.08,130.96L270.51,129.68L271.53,125.85L271.57,127.13L272.96,120.74L273.64,119.46L275.68,113.08L275.68,114.35L278.75,97.75L278.97,99.03L278.99,101.58L279.94,100.3L279.94,101.58L280.67,97.75L281.32,96.47L281.62,97.75L282.81,96.47L283.11,92.64L285.63,93.92L285.8,123.29L286.73,122.02L287.94,123.29L288.1,122.02L288.1,120.74L288.19,124.57L288.37,122.02L288.99,123.29L291.97,122.02L292.72,120.74L293.29,116.91L293.3,115.63L293.43,118.18L293.97,116.91L294.09,115.63L294.13,116.91L295.1,115.63L296.31,122.02L296.43,120.74L296.65,122.02L297.35,116.91L298.03,115.63L298.07,116.91L298.6,111.8L298.97,113.08L299.27,127.13L300.24,125.85L300.42,127.13L300.94,124.57L300.95,125.85L300.95,127.13L301.99,124.57L302.17,125.85L302.28,123.29L302.74,124.57L303.12,125.85L303.6,127.13L304.13,125.85L305.63,120.74L305.95,119.46L306.28,122.02L306.44,116.91L306.56,118.18L306.62,116.91L307.18,118.18L308.36,116.91L308.38,118.18L308.93,115.63L309.29,114.35L309.62,109.24L309.9,110.52L310.28,111.8L310.29,116.91L310.49,114.35L311.55,113.08L312.29,124.57L312.3,123.29L312.4,122.02L312.43,120.74L312.75,132.24L312.9,132.24L313,133.51L313.05,142.45L313.57,141.18L313.77,139.9L314.13,141.18L314.16,139.9L314.46,138.62L315.14,136.07L315.72,134.79L316.45,133.51L316.52,132.24L316.59,130.96L317.43,129.68L317.67,130.96L317.67,129.68L318.32,128.4L318.64,132.24L318.75,128.4L319.22,127.13L319.63,123.29L320.28,122.02L320.49,120.74L321.85,119.46L322.54,115.63L322.6,114.35L323.84,106.69L324.85,105.41L327.63,96.47L328.77,95.19L329.57,92.64L330.4,91.36L330.55,88.81L331.31,90.08L331.68,109.24L331.88,107.97L332.17,109.24L332.46,107.97L332.48,110.52L332.83,109.24L333.48,110.52L334.01,109.24L334.76,110.52L335.92,106.69L336.9,105.41L338.21,104.13L338.56,105.41L338.62,106.69L339.65,105.41L340.18,102.86L340.65,104.13L340.84,102.86L341.28,104.13L341.3,105.41L341.3,106.69L342,104.13L342.7,105.41L343.71,141.18L344,139.9L344.17,136.07L344.63,141.18L344.79,142.45L346.27,130.96L346.63,129.68L346.75,132.24L347.23,130.96L347.68,129.68L348.68,132.24L349.09,130.96L349.86,129.68L349.97,130.96L350.95,128.4L351.31,127.13L351.73,128.4L352.11,127.13L352.72,125.85L352.97,124.57L353.18,122.02L354.32,120.74L354.6,119.46L355.72,118.18L357.37,113.08L357.37,114.35L357.4,115.63L358.38,110.52L358.92,111.8L359.79,106.69L359.79,107.97L360.3,106.69L360.35,107.97L360.98,105.41L360.99,104.13L361.1,101.58L362.43,100.3L363.3,97.75L363.34,96.47L364.18,93.92L364.52,92.64L365.48,97.75L365.87,96.47L366.06,95.19L367.61,92.64L367.83,93.92L368.95,91.36L369.53,90.08L370.08,86.25L371.12,84.97L372.12,82.42L372.34,83.7L372.4,84.97L372.42,83.7L373.32,82.42L374.47,79.87L374.58,78.59L375.59,77.31L375.61,78.59L375.68,96.47L376.34,92.64L376.61,93.92L377.24,91.36L377.49,90.08L378.25,91.36L379.19,90.08L379.83,86.25L379.94,87.53L380.23,86.25L381.54,83.7L382.4,82.42L383.04,79.87L383.04,78.59L383.04,72.2L384.33,70.92L385.38,67.09L386.92,68.37L386.92,70.92L387.34,67.09L387.35,68.37L387.7,67.09L388.21,68.37L388.54,67.09L388.55,65.82L388.81,67.09L389.7,65.82L389.85,64.54L389.85,65.82L391.19,67.09L391.84,65.82L391.9,67.09L392.07,68.37L392.07,69.65L392.7,69.65L393.02,70.92L393.22,84.97L394.23,86.25L395.26,83.7L395.79,82.42L395.92,79.87L395.96,83.7L396.39,84.97L397.63,76.03L397.64,77.31L397.64,76.03L397.66,82.42L397.98,79.87L398.55,78.59L399.89,74.76L401.04,73.48L401.76,69.65L402.49,68.37L402.87,64.54L403.35,67.09L403.61,65.82L404.66,59.43L404.66,60.71L406.12,59.43L406.91,53.04L406.92,54.32L406.92,55.6L407.75,54.32L408.09,55.6L408.13,54.32L408.65,53.04L409.22,50.49L409.88,51.76L410.85,47.93L411.5,46.66L412.12,44.1L412.35,45.38L412.49,46.66L412.81,47.93L413.02,46.66L414.23,47.93L416.66,38.99L416.94,37.71L417.95,36.44L418.7,37.71L419.81,33.88L419.89,32.61L419.96,33.88L420.13,28.77L420.76,30.05L420.84,27.5L422.01,26.22L422.17,23.66L422.36,26.22L422.63,27.5L423.03,26.22L423.2,27.5L423.23,28.77L423.51,31.33L424.05,30.05L425.11,22.39L425.11,24.94L425.16,26.22L425.91,23.66L425.92,24.94L426.13,26.22L426.54,27.5L426.79,24.94L427.06,23.66L427.22,24.94L427.34,22.39L427.67,23.66L427.67,24.94L427.81,27.5L428.32,22.39L428.66,21.11L429.25,18.55L429.25,19.83L429.32,21.11L429.88,16L429.98,18.55L430.25,19.83L430.42,17.28L430.56,28.77L430.56,30.05L430.97,36.44L431.27,24.94L431.35,26.22L431.98,33.88L432.01,30.05L432.14,31.33L433.85,22.39L433.91,23.66L434.05,36.44L434.46,31.33L434.75,30.05L434.8,32.61L435.33,30.05L435.93,28.77L436.58,32.61L436.87,31.33L437.1,30.05L437.25,32.61L437.33,31.33L437.92,30.05L438.57,40.27L438.6,38.99L438.99,37.71L439.06,36.44L439.39,40.27L439.66,38.99L440.01,37.71L440.44,33.88L440.62,36.44L441.17,35.16L441.6,31.33L442,32.61L442.01,33.88L442.59,51.76L442.88,53.04L443.52,49.21L444.38,47.93L444.52,51.76L445.52,53.04L446.64,50.49L446.68,49.21L446.84,50.49L447.23,49.21L447.7,47.93L448.16,45.38L448.29,49.21L448.42,47.93L448.67,46.66L449.33,44.1L449.69,45.38L450.32,51.76L450.56,49.21L450.58,47.93L451.3,51.76L451.45,50.49L451.84,41.55L452.23,49.21L452.33,47.93L452.62,44.1L452.73,50.49L452.73,51.76L452.74,53.04L453.34,44.1L453.46,45.38L453.47,46.66L453.96,41.55L454.19,42.82L454.38,44.1L454.64,41.55L454.8,50.49L454.81,51.76L455.1,69.65L455.53,64.54L455.63,65.82L455.64,67.09L456.41,65.82L456.65,63.26L456.7,72.2L456.71,73.48L457.14,70.92L457.24,72.2L457.65,70.92L457.7,72.2L457.8,69.65L458.42,68.37L459.07,64.54L459.26,63.26L460.02,56.87L460.28,59.43L460.31,60.71L460.47,59.43L460.85,65.82L461.44,64.54L461.57,65.82L461.84,63.26L462.02,64.54L462.36,65.82L463.03,55.6L463.34,54.32L463.36,53.04L463.45,56.87L463.81,54.32L464.31,53.04L464.33,54.32L464.92,44.1L464.96,46.66L465.77,45.38L466.27,41.55L466.84,42.82L466.98,40.27L467.27,46.66L467.65,45.38L467.67,44.1L468,42.82L468.26,45.38L468.56,44.1L468.75,46.66L469.12,44.1L469.47,45.38L470.01,38.99L470.37,41.55L470.43,42.82L470.56,41.55L470.59,45.38L471.04,42.82L471.48,41.55L471.49,40.27L472.04,51.76L472.06,49.21L472.21,47.93L473.47,51.76L473.66,50.49L473.92,53.04L474.39,51.76L474.65,50.49L475.66,55.6L475.81,53.04L475.84,51.76L475.95,49.21L476.52,53.04L476.52,53.04L476.88,51.76L477.13,47.93L477.53,51.76L477.56,53.04L477.88,51.76L478.74,72.2L479.01,70.92L480.75,55.6L480.85,56.87L480.92,54.32L481.04,65.82L481.33,64.54L481.33,65.82L481.89,64.54L481.91,65.82L482.18,67.09L482.59,74.76L482.88,72.2L483.03,70.92L483.16,65.82L483.78,67.09L483.8,65.82L484.03,63.26L484.06,68.37L484.22,67.09L484.7,68.37L484.98,69.65L485.28,65.82L485.64,64.54L485.95,68.37L485.97,69.65L487.25,65.82L487.98,64.54L488.25,59.43L488.56,64.54L488.88,63.26L490.02,53.04L490.8,54.32L491.33,67.09L491.75,65.82L491.85,68.37L492.2,60.71L492.37,61.98L492.64,60.71L493.11,68.37L493.83,67.09L494.02,65.82L494.36,68.37L494.36,69.65L495.02,67.09L495.27,81.14L495.37,79.87L495.37,77.31L495.94,84.97L496.23,83.7L496.45,84.97L497.93,83.7L498.54,84.97L498.84,83.7L499.31,84.97L499.32,83.7L499.88,82.42L499.88,81.14L500.14,84.97L500.22,83.7L500.86,82.42L501.09,83.7L501.42,82.42L501.83,81.14L501.9,78.59L502.05,82.42L502.34,81.14L502.88,79.87L502.96,78.59L503.1,82.42L503.4,82.42L503.4,83.7L503.4,84.97L503.94,83.7L504.37,82.42L505.18,79.87L505.49,81.14L505.53,84.97L506.1,84.97L506.28,83.7L507.08,76.03L507.11,77.31L507.11,78.59L507.12,81.14L507.27,78.59L508.14,79.87L508.14,78.59L508.42,78.59L509.61,77.31L510.17,73.48L510.3,74.76L510.42,76.03L511.63,68.37L512.04,69.65L512.04,70.92L512.35,65.82L512.51,67.09L513.06,65.82L513.64,68.37L513.66,69.65L514.15,68.37L514.21,69.65L514.51,68.37L514.51,67.09L515.24,69.65L515.43,68.37L515.53,67.09L516.46,65.82L517.1,67.09L517.54,65.82L518.31,60.71L518.55,59.43L518.57,60.71L518.72,59.43L519.46,58.15L519.73,60.71L520.19,59.43L520.3,60.71L520.72,55.6L520.89,58.15L521.17,59.43L521.44,55.6L523.26,56.87L523.59,53.04L524.24,54.32L524.51,67.09L524.96,63.26L525.09,64.54L525.22,67.09L525.81,65.82L526.22,64.54L526.55,60.71L527.51,59.43L527.64,56.87L528.69,55.6L529.37,53.04L529.47,51.76L529.6,49.21L531.05,50.49L531.48,69.65L531.78,67.09L531.86,65.82L531.92,68.37L532.67,67.09L533.64,63.26L533.64,64.54L534.38,70.92L534.42,69.65L534.86,68.37L535.51,63.26L535.55,64.54L536,63.26L538.54,58.15L538.87,56.87L539.52,54.32L540,53.04" style="fill: rgb(255, 127, 14); fill-opacity: 0.5; stroke-width: 0;"/></g></g><g class="errorbars"/><g class="lines"><path class="js-line" d="M0,318.72L0,316.17L0.57,317.45L1.88,318.72L1.99,317.45L3.04,318.72L3.89,312.34L3.91,313.61L4.61,312.34L5.05,307.23L5.22,308.5L5.61,309.78L5.78,305.95L6.08,311.06L6.22,308.5L6.53,309.78L7.23,298.29L7.35,297.01L7.52,295.73L7.79,298.29L7.8,299.56L7.81,300.84L7.98,290.62L8.69,289.34L9.08,298.29L9.09,299.56L9.83,308.5L9.84,307.23L9.85,308.5L10.3,299.56L10.68,300.84L10.72,298.29L11.15,303.39L11.27,303.39L11.74,304.67L11.74,305.95L12.28,295.73L12.31,297.01L12.76,295.73L12.89,288.07L12.89,286.79L13,285.51L13.05,293.18L13.17,290.62L13.46,291.9L13.48,294.45L14.2,286.79L14.31,285.51L14.31,284.24L14.35,288.07L15.05,286.79L15.08,285.51L16.1,293.18L17.32,291.9L17.94,289.34L18.07,288.07L18.82,282.96L18.82,284.24L18.96,282.96L19.41,284.24L22.01,282.96L22.02,284.24L22.43,280.4L22.44,282.96L24,281.68L24.2,282.96L24.35,281.68L25.21,280.4L25.95,277.85L26.06,279.13L26.38,277.85L27.15,286.79L27.21,285.51L27.5,281.68L27.51,282.96L27.95,284.24L28.37,285.51L29.57,286.79L31.05,282.96L31.28,284.24L31.32,288.07L31.32,288.07L32.13,286.79L32.62,290.62L33.05,289.34L33.25,295.73L34.17,297.01L34.89,294.45L34.89,295.73L35.04,297.01L35.65,294.45L35.94,293.18L36.69,295.73L37.07,294.45L37.07,295.73L37.22,289.34L37.51,290.62L38.22,289.34L38.46,285.51L38.66,293.18L39.17,294.45L39.24,293.18L39.7,297.01L39.76,298.29L39.99,293.18L40.28,294.45L40.59,295.73L41.46,289.34L41.59,293.18L41.94,291.9L42.16,289.34L42.18,291.9L42.32,293.18L43.75,285.51L44.46,284.24L44.76,282.96L45.38,284.24L46.07,285.51L46.37,284.24L46.39,288.07L46.86,282.96L47.13,284.24L47.2,281.68L47.52,288.07L47.68,289.34L48.27,293.18L48.41,290.62L48.42,289.34L48.53,293.18L48.85,291.9L49.42,293.18L49.43,297.01L49.73,294.45L50.3,295.73L50.7,294.45L50.7,295.73L51.42,294.45L51.42,295.73L51.61,293.18L51.74,293.18L52.59,291.9L53.79,289.34L54.36,290.62L54.36,291.9L54.8,288.07L54.96,290.62L55.42,289.34L55.52,288.07L55.83,291.9L56.68,290.62L58.04,285.51L58.56,284.24L59.83,272.74L59.9,275.29L60,276.57L60,277.85L60.61,275.29L60.78,274.02L60.9,272.74L60.92,274.02L62.52,272.74L63.06,266.35L63.59,267.63L64.08,265.08L64.19,266.35L64.66,265.08L66.08,251.03L66.11,253.58L66.87,252.3L67.54,254.86L67.54,256.13L67.55,262.52L67.86,262.52L68.57,261.24L69.86,257.41L70.62,256.13L70.88,263.8L71.8,262.52L72.93,275.29L73.08,274.02L73.62,272.74L73.62,271.46L74.03,271.46L74.49,272.74L75.6,268.91L75.6,270.18L76.08,267.63L76.13,268.91L77.01,267.63L77.81,266.35L78.33,265.08L81.72,254.86L81.72,256.13L82.19,259.97L82.33,256.13L82.74,257.41L83.04,258.69L83.1,254.86L83.31,257.41L84.06,258.69L84.4,252.3L84.41,253.58L85.57,252.3L85.78,253.58L85.98,252.3L86.23,251.03L86.25,249.75L86.98,253.58L87.11,252.3L87.26,253.58L87.85,249.75L87.85,251.03L88,252.3L88.41,257.41L88.83,256.13L89.18,254.86L89.18,252.3L89.3,256.13L90.29,254.86L90.29,256.13L90.31,253.58L91,256.13L91.18,254.86L92,257.41L92.34,256.13L92.93,257.41L93.02,258.69L93.34,263.8L93.89,262.52L94.21,271.46L94.5,268.91L94.98,267.63L96.07,263.8L96.21,265.08L96.21,266.35L98.12,258.69L98.13,259.97L100.28,252.3L100.42,253.58L100.42,254.86L101.34,257.41L101.45,258.69L102.33,270.18L102.64,268.91L103.06,271.46L103.06,270.18L103.16,268.91L103.2,271.46L103.64,258.69L103.64,258.69L104.07,257.41L104.39,254.86L104.67,261.24L105.07,259.97L106.09,257.41L106.09,258.69L106.09,259.97L106.22,262.52L106.67,261.24L107.17,259.97L107.53,263.8L107.67,261.24L108.09,259.97L108.11,261.24L108.68,258.69L108.7,259.97L109.3,258.69L109.42,257.41L109.42,258.69L110.12,259.97L110.12,261.24L110.74,259.97L111.32,258.69L111.56,254.86L111.74,254.86L112.17,253.58L113.57,247.19L113.61,248.47L113.68,249.75L114.19,248.47L115.51,247.19L115.8,245.92L116.38,247.19L117.82,243.36L118.3,244.64L118.6,243.36L119.46,274.02L119.57,272.74L120.2,270.18L120.48,271.46L120.9,270.18L120.91,271.46L121.92,270.18L122.33,271.46L122.64,270.18L122.65,268.91L123.35,267.63L123.61,268.91L123.62,271.46L123.85,266.35L124.38,265.08L124.38,266.35L124.81,263.8L124.87,263.8L125.45,262.52L125.45,261.24L125.95,267.63L127.74,266.35L127.96,267.63L128.01,266.35L128.55,265.08L129,259.97L129.81,258.69L131.55,253.58L131.93,254.86L132.42,252.3L132.5,253.58L132.5,254.86L132.65,261.24L133.03,258.69L133.58,257.41L134.11,254.86L134.35,256.13L134.97,261.24L135.7,259.97L136.71,254.86L137.1,256.13L137.8,254.86L138.9,253.58L140.07,249.75L140.9,251.03L141.66,249.75L141.73,251.03L142.26,249.75L142.63,248.47L142.64,251.03L143.19,245.92L143.19,245.92L143.65,244.64L143.65,242.08L144.23,243.36L144.59,242.08L145.11,239.53L145.14,238.25L145.22,236.97L145.27,240.81L145.83,239.53L145.85,240.81L146.28,238.25L146.93,239.53L147.33,235.7L147.59,247.19L148.16,245.92L148.92,243.36L149,244.64L149.01,243.36L149.03,245.92L150.24,244.64L150.91,243.36L151.03,245.92L151.87,244.64L151.88,245.92L152.55,242.08L152.62,243.36L153.19,244.64L153.82,243.36L153.82,244.64L153.86,243.36L154.97,242.08L154.98,243.36L155.16,239.53L155.45,239.53L155.96,238.25L157.28,233.14L157.82,234.42L157.82,233.14L158.5,239.53L158.88,238.25L160.11,236.97L160.45,238.25L162.92,231.87L163.07,233.14L163.6,228.03L163.9,226.76L165.24,219.09L166,217.82L166,219.09L166.39,217.82L167.51,216.54L167.57,215.26L168.04,220.37L168.49,219.09L169.57,216.54L169.57,215.26L169.59,213.98L169.81,222.92L171.12,221.65L171.37,219.09L172.5,217.82L173.25,222.92L173.61,221.65L176.59,211.43L176.66,210.15L176.7,211.43L178.49,210.15L178.74,215.26L178.75,216.54L178.76,220.37L179.18,217.82L181.19,216.54L181.22,219.09L181.37,217.82L182.13,216.54L182.66,211.43L182.67,212.71L183.21,213.98L183.58,215.26L184.5,210.15L184.56,211.43L184.7,212.71L185.56,211.43L185.57,212.71L188.77,207.6L188.87,206.32L189.46,202.49L189.47,203.76L189.9,202.49L189.93,205.04L190.61,203.76L190.79,202.49L191.5,203.76L191.8,202.49L192.56,201.21L192.75,199.93L193.53,197.38L193.68,196.1L193.86,197.38L194.01,194.82L194.02,196.1L194.85,194.82L196.26,185.88L196.26,187.16L196.26,188.44L196.88,184.61L197.2,185.88L197.73,184.61L197.94,182.05L198.41,184.61L198.69,183.33L199.08,180.77L199.65,179.5L200.85,178.22L200.85,179.5L200.93,178.22L200.97,179.5L202.35,178.22L203.11,179.5L203.86,178.22L204.09,176.94L204.09,178.22L206,176.94L206.72,175.66L206.73,176.94L206.73,178.22L207.13,176.94L207.99,178.22L207.99,179.5L208.7,179.5L208.88,178.22L209.88,175.66L210.63,174.39L211.29,170.55L211.67,171.83L213.1,166.72L213.44,168L214.9,166.72L215.13,165.45L216.16,164.17L216.28,165.45L218.87,160.34L219.17,161.61L219.55,157.78L220.31,156.5L220.75,159.06L220.79,157.78L221.07,156.5L221.84,153.95L222.06,155.23L222.09,156.5L222.12,160.34L222.79,156.5L222.85,157.78L223.32,155.23L223.4,162.89L223.8,161.61L223.83,162.89L223.85,161.61L224.59,160.34L224.82,161.61L225.3,157.78L225.43,159.06L226.29,175.66L226.29,174.39L226.35,173.11L227.26,189.71L227.86,188.44L228.03,189.71L228.47,184.61L228.47,185.88L228.64,187.16L228.92,188.44L229.08,185.88L229.2,184.61L230.19,179.5L230.5,178.22L230.99,174.39L231.03,173.11L231.14,178.22L232.09,176.94L234.15,174.39L234.18,173.11L234.78,166.72L235.17,165.45L235.63,166.72L237.33,165.45L238.51,162.89L238.59,161.61L239.47,160.34L239.89,161.61L240.65,159.06L242.55,157.78L243.15,155.23L243.22,153.95L243.39,151.39L244.14,150.12L244.27,151.39L244.46,150.12L245.64,148.84L245.97,145.01L245.99,151.39L245.99,152.67L245.99,155.23L246.56,150.12L247,148.84L247.21,150.12L248.2,148.84L248.36,150.12L248.6,148.84L249.21,150.12L249.29,148.84L249.47,153.95L249.91,151.39L250.19,152.67L250.5,151.39L250.52,153.95L250.63,153.95L250.64,155.23L251.68,151.39L252.13,150.12L252.55,147.56L252.69,153.95L253.07,152.67L253.39,151.39L253.54,152.67L253.58,153.95L253.66,152.67L253.98,155.23L254.31,156.5L254.39,153.95L254.43,165.45L254.44,166.72L254.56,165.45L254.97,185.88L255.13,184.61L255.26,185.88L255.26,187.16L255.71,187.16L256.28,185.88L257.34,180.77L257.43,182.05L258.77,173.11L258.92,174.39L259.21,173.11L260.47,169.28L260.48,170.55L260.63,171.83L261.24,168L261.55,166.72L261.75,165.45L262.41,166.72L263.06,160.34L263.53,159.06L264.02,153.95L264.03,155.23L264.58,156.5L265.42,151.39L265.61,150.12L266.91,142.45L267.35,141.18L267.56,139.9L268.63,138.62L270.08,130.96L270.51,129.68L271.53,125.85L271.57,127.13L272.96,120.74L273.64,119.46L275.68,113.08L275.68,114.35L278.75,97.75L278.97,99.03L278.99,101.58L279.94,100.3L279.94,101.58L280.67,97.75L281.32,96.47L281.62,97.75L282.81,96.47L283.11,92.64L285.63,93.92L285.8,123.29L286.73,122.02L287.94,123.29L288.1,122.02L288.1,120.74L288.19,124.57L288.37,122.02L288.99,123.29L291.97,122.02L292.72,120.74L293.29,116.91L293.3,115.63L293.43,118.18L293.97,116.91L294.09,115.63L294.13,116.91L295.1,115.63L296.31,122.02L296.43,120.74L296.65,122.02L297.35,116.91L298.03,115.63L298.07,116.91L298.6,111.8L298.97,113.08L299.27,127.13L300.24,125.85L300.42,127.13L300.94,124.57L300.95,125.85L300.95,127.13L301.99,124.57L302.17,125.85L302.28,123.29L302.74,124.57L303.12,125.85L303.6,127.13L304.13,125.85L305.63,120.74L305.95,119.46L306.28,122.02L306.44,116.91L306.56,118.18L306.62,116.91L307.18,118.18L308.36,116.91L308.38,118.18L308.93,115.63L309.29,114.35L309.62,109.24L309.9,110.52L310.28,111.8L310.29,116.91L310.49,114.35L311.55,113.08L312.29,124.57L312.3,123.29L312.4,122.02L312.43,120.74L312.75,132.24L312.9,132.24L313,133.51L313.05,142.45L313.57,141.18L313.77,139.9L314.13,141.18L314.16,139.9L314.46,138.62L315.14,136.07L315.72,134.79L316.45,133.51L316.52,132.24L316.59,130.96L317.43,129.68L317.67,130.96L317.67,129.68L318.32,128.4L318.64,132.24L318.75,128.4L319.22,127.13L319.63,123.29L320.28,122.02L320.49,120.74L321.85,119.46L322.54,115.63L322.6,114.35L323.84,106.69L324.85,105.41L327.63,96.47L328.77,95.19L329.57,92.64L330.4,91.36L330.55,88.81L331.31,90.08L331.68,109.24L331.88,107.97L332.17,109.24L332.46,107.97L332.48,110.52L332.83,109.24L333.48,110.52L334.01,109.24L334.76,110.52L335.92,106.69L336.9,105.41L338.21,104.13L338.56,105.41L338.62,106.69L339.65,105.41L340.18,102.86L340.65,104.13L340.84,102.86L341.28,104.13L341.3,105.41L341.3,106.69L342,104.13L342.7,105.41L343.71,141.18L344,139.9L344.17,136.07L344.63,141.18L344.79,142.45L346.27,130.96L346.63,129.68L346.75,132.24L347.23,130.96L347.68,129.68L348.68,132.24L349.09,130.96L349.86,129.68L349.97,130.96L350.95,128.4L351.31,127.13L351.73,128.4L352.11,127.13L352.72,125.85L352.97,124.57L353.18,122.02L354.32,120.74L354.6,119.46L355.72,118.18L357.37,113.08L357.37,114.35L357.4,115.63L358.38,110.52L358.92,111.8L359.79,106.69L359.79,107.97L360.3,106.69L360.35,107.97L360.98,105.41L360.99,104.13L361.1,101.58L362.43,100.3L363.3,97.75L363.34,96.47L364.18,93.92L364.52,92.64L365.48,97.75L365.87,96.47L366.06,95.19L367.61,92.64L367.83,93.92L368.95,91.36L369.53,90.08L370.08,86.25L371.12,84.97L372.12,82.42L372.34,83.7L372.4,84.97L372.42,83.7L373.32,82.42L374.47,79.87L374.58,78.59L375.59,77.31L375.61,78.59L375.68,96.47L376.34,92.64L376.61,93.92L377.24,91.36L377.49,90.08L378.25,91.36L379.19,90.08L379.83,86.25L379.94,87.53L380.23,86.25L381.54,83.7L382.4,82.42L383.04,79.87L383.04,78.59L383.04,72.2L384.33,70.92L385.38,67.09L386.92,68.37L386.92,70.92L387.34,67.09L387.35,68.37L387.7,67.09L388.21,68.37L388.54,67.09L388.55,65.82L388.81,67.09L389.7,65.82L389.85,64.54L389.85,65.82L391.19,67.09L391.84,65.82L391.9,67.09L392.07,68.37L392.07,69.65L392.7,69.65L393.02,70.92L393.22,84.97L394.23,86.25L395.26,83.7L395.79,82.42L395.92,79.87L395.96,83.7L396.39,84.97L397.63,76.03L397.64,77.31L397.64,76.03L397.66,82.42L397.98,79.87L398.55,78.59L399.89,74.76L401.04,73.48L401.76,69.65L402.49,68.37L402.87,64.54L403.35,67.09L403.61,65.82L404.66,59.43L404.66,60.71L406.12,59.43L406.91,53.04L406.92,54.32L406.92,55.6L407.75,54.32L408.09,55.6L408.13,54.32L408.65,53.04L409.22,50.49L409.88,51.76L410.85,47.93L411.5,46.66L412.12,44.1L412.35,45.38L412.49,46.66L412.81,47.93L413.02,46.66L414.23,47.93L416.66,38.99L416.94,37.71L417.95,36.44L418.7,37.71L419.81,33.88L419.89,32.61L419.96,33.88L420.13,28.77L420.76,30.05L420.84,27.5L422.01,26.22L422.17,23.66L422.36,26.22L422.63,27.5L423.03,26.22L423.2,27.5L423.23,28.77L423.51,31.33L424.05,30.05L425.11,22.39L425.11,24.94L425.16,26.22L425.91,23.66L425.92,24.94L426.13,26.22L426.54,27.5L426.79,24.94L427.06,23.66L427.22,24.94L427.34,22.39L427.67,23.66L427.67,24.94L427.81,27.5L428.32,22.39L428.66,21.11L429.25,18.55L429.25,19.83L429.32,21.11L429.88,16L429.98,18.55L430.25,19.83L430.42,17.28L430.56,28.77L430.56,30.05L430.97,36.44L431.27,24.94L431.35,26.22L431.98,33.88L432.01,30.05L432.14,31.33L433.85,22.39L433.91,23.66L434.05,36.44L434.46,31.33L434.75,30.05L434.8,32.61L435.33,30.05L435.93,28.77L436.58,32.61L436.87,31.33L437.1,30.05L437.25,32.61L437.33,31.33L437.92,30.05L438.57,40.27L438.6,38.99L438.99,37.71L439.06,36.44L439.39,40.27L439.66,38.99L440.01,37.71L440.44,33.88L440.62,36.44L441.17,35.16L441.6,31.33L442,32.61L442.01,33.88L442.59,51.76L442.88,53.04L443.52,49.21L444.38,47.93L444.52,51.76L445.52,53.04L446.64,50.49L446.68,49.21L446.84,50.49L447.23,49.21L447.7,47.93L448.16,45.38L448.29,49.21L448.42,47.93L448.67,46.66L449.33,44.1L449.69,45.38L450.32,51.76L450.56,49.21L450.58,47.93L451.3,51.76L451.45,50.49L451.84,41.55L452.23,49.21L452.33,47.93L452.62,44.1L452.73,50.49L452.73,51.76L452.74,53.04L453.34,44.1L453.46,45.38L453.47,46.66L453.96,41.55L454.19,42.82L454.38,44.1L454.64,41.55L454.8,50.49L454.81,51.76L455.1,69.65L455.53,64.54L455.63,65.82L455.64,67.09L456.41,65.82L456.65,63.26L456.7,72.2L456.71,73.48L457.14,70.92L457.24,72.2L457.65,70.92L457.7,72.2L457.8,69.65L458.42,68.37L459.07,64.54L459.26,63.26L460.02,56.87L460.28,59.43L460.31,60.71L460.47,59.43L460.85,65.82L461.44,64.54L461.57,65.82L461.84,63.26L462.02,64.54L462.36,65.82L463.03,55.6L463.34,54.32L463.36,53.04L463.45,56.87L463.81,54.32L464.31,53.04L464.33,54.32L464.92,44.1L464.96,46.66L465.77,45.38L466.27,41.55L466.84,42.82L466.98,40.27L467.27,46.66L467.65,45.38L467.67,44.1L468,42.82L468.26,45.38L468.56,44.1L468.75,46.66L469.12,44.1L469.47,45.38L470.01,38.99L470.37,41.55L470.43,42.82L470.56,41.55L470.59,45.38L471.04,42.82L471.48,41.55L471.49,40.27L472.04,51.76L472.06,49.21L472.21,47.93L473.47,51.76L473.66,50.49L473.92,53.04L474.39,51.76L474.65,50.49L475.66,55.6L475.81,53.04L475.84,51.76L475.95,49.21L476.52,53.04L476.52,53.04L476.88,51.76L477.13,47.93L477.53,51.76L477.56,53.04L477.88,51.76L478.74,72.2L479.01,70.92L480.75,55.6L480.85,56.87L480.92,54.32L481.04,65.82L481.33,64.54L481.33,65.82L481.89,64.54L481.91,65.82L482.18,67.09L482.59,74.76L482.88,72.2L483.03,70.92L483.16,65.82L483.78,67.09L483.8,65.82L484.03,63.26L484.06,68.37L484.22,67.09L484.7,68.37L484.98,69.65L485.28,65.82L485.64,64.54L485.95,68.37L485.97,69.65L487.25,65.82L487.98,64.54L488.25,59.43L488.56,64.54L488.88,63.26L490.02,53.04L490.8,54.32L491.33,67.09L491.75,65.82L491.85,68.37L492.2,60.71L492.37,61.98L492.64,60.71L493.11,68.37L493.83,67.09L494.02,65.82L494.36,68.37L494.36,69.65L495.02,67.09L495.27,81.14L495.37,79.87L495.37,77.31L495.94,84.97L496.23,83.7L496.45,84.97L497.93,83.7L498.54,84.97L498.84,83.7L499.31,84.97L499.32,83.7L499.88,82.42L499.88,81.14L500.14,84.97L500.22,83.7L500.86,82.42L501.09,83.7L501.42,82.42L501.83,81.14L501.9,78.59L502.05,82.42L502.34,81.14L502.88,79.87L502.96,78.59L503.1,82.42L503.4,82.42L503.4,83.7L503.4,84.97L503.94,83.7L504.37,82.42L505.18,79.87L505.49,81.14L505.53,84.97L506.1,84.97L506.28,83.7L507.08,76.03L507.11,77.31L507.11,78.59L507.12,81.14L507.27,78.59L508.14,79.87L508.14,78.59L508.42,78.59L509.61,77.31L510.17,73.48L510.3,74.76L510.42,76.03L511.63,68.37L512.04,69.65L512.04,70.92L512.35,65.82L512.51,67.09L513.06,65.82L513.64,68.37L513.66,69.65L514.15,68.37L514.21,69.65L514.51,68.37L514.51,67.09L515.24,69.65L515.43,68.37L515.53,67.09L516.46,65.82L517.1,67.09L517.54,65.82L518.31,60.71L518.55,59.43L518.57,60.71L518.72,59.43L519.46,58.15L519.73,60.71L520.19,59.43L520.3,60.71L520.72,55.6L520.89,58.15L521.17,59.43L521.44,55.6L523.26,56.87L523.59,53.04L524.24,54.32L524.51,67.09L524.96,63.26L525.09,64.54L525.22,67.09L525.81,65.82L526.22,64.54L526.55,60.71L527.51,59.43L527.64,56.87L528.69,55.6L529.37,53.04L529.47,51.76L529.6,49.21L531.05,50.49L531.48,69.65L531.78,67.09L531.86,65.82L531.92,68.37L532.67,67.09L533.64,63.26L533.64,64.54L534.38,70.92L534.42,69.65L534.86,68.37L535.51,63.26L535.55,64.54L536,63.26L538.54,58.15L538.87,56.87L539.52,54.32L540,53.04" style="vector-effect: none; fill: none; stroke: rgb(255, 127, 14); stroke-opacity: 1; stroke-width: 2px; opacity: 1;"/></g><g class="points"/><g class="text"/></g></g></g></g><g class="zerolinelayer-above"/><path class="xlines-above crisp" d="M0,0" style="fill: none;"/><path class="ylines-above crisp" d="M0,0" style="fill: none;"/><g class="overlines-above"/><g class="xaxislayer-above"><g class="xtick"><text text-anchor="middle" x="0" y="439" transform="translate(101.36,0)" style="font-family: 'Open Sans'; font-size: 18px; fill: rgb(0, 0, 0); fill-opacity: 1; white-space: pre;">2016</text></g><g class="xtick"><text text-anchor="middle" x="0" y="439" style="font-family: 'Open Sans'; font-size: 18px; fill: rgb(0, 0, 0); fill-opacity: 1; white-space: pre;" transform="translate(207.34,0)">2018</text></g><g class="xtick"><text text-anchor="middle" x="0" y="439" style="font-family: 'Open Sans'; font-size: 18px; fill: rgb(0, 0, 0); fill-opacity: 1; white-space: pre;" transform="translate(313.16999999999996,0)">2020</text></g><g class="xtick"><text text-anchor="middle" x="0" y="439" style="font-family: 'Open Sans'; font-size: 18px; fill: rgb(0, 0, 0); fill-opacity: 1; white-space: pre;" transform="translate(419.15,0)">2022</text></g><g class="xtick"><text text-anchor="middle" x="0" y="439" style="font-family: 'Open Sans'; font-size: 18px; fill: rgb(0, 0, 0); fill-opacity: 1; white-space: pre;" transform="translate(524.99,0)">2024</text></g></g><g class="yaxislayer-above"><g class="ytick"><text text-anchor="end" x="79" y="6.3" transform="translate(0,420)" style="font-family: 'Open Sans'; font-size: 18px; fill: rgb(0, 0, 0); fill-opacity: 1; white-space: pre;">0</text></g><g class="ytick"><text text-anchor="end" x="79" y="6.3" style="font-family: 'Open Sans'; font-size: 18px; fill: rgb(0, 0, 0); fill-opacity: 1; white-space: pre;" transform="translate(0,356.13)">50</text></g><g class="ytick"><text text-anchor="end" x="79" y="6.3" style="font-family: 'Open Sans'; font-size: 18px; fill: rgb(0, 0, 0); fill-opacity: 1; white-space: pre;" transform="translate(0,292.27)">100</text></g><g class="ytick"><text text-anchor="end" x="79" y="6.3" style="font-family: 'Open Sans'; font-size: 18px; fill: rgb(0, 0, 0); fill-opacity: 1; white-space: pre;" transform="translate(0,228.4)">150</text></g><g class="ytick"><text text-anchor="end" x="79" y="6.3" style="font-family: 'Open Sans'; font-size: 18px; fill: rgb(0, 0, 0); fill-opacity: 1; white-space: pre;" transform="translate(0,164.54000000000002)">200</text></g><g class="ytick"><text text-anchor="end" x="79" y="6.3" style="font-family: 'Open Sans'; font-size: 18px; fill: rgb(0, 0, 0); fill-opacity: 1; white-space: pre;" transform="translate(0,100.67)">250</text></g></g><g class="overaxes-above"/></g></g><g class="polarlayer"/><g class="smithlayer"/><g class="ternarylayer"/><g class="geolayer"/><g class="funnelarealayer"/><g class="pielayer"/><g class="iciclelayer"/><g class="treemaplayer"/><g class="sunburstlayer"/><g class="glimages"/><defs id="topdefs-aac50e"><g class="clips"/></defs><g class="layer-above"><g class="imagelayer"/><g class="shapelayer"/></g><g class="infolayer"><g class="g-gtitle"><text class="gtitle" x="35" y="50" text-anchor="start" dy="0em" style="opacity: 1; font-family: 'Open Sans'; font-size: 25px; fill: rgb(0, 0, 0); fill-opacity: 1; white-space: pre;">MultiQC/MultiQC - Open Issues Over Time</text></g><g class="g-xtitle"><text class="xtitle" x="350" y="472.9" text-anchor="middle" style="opacity: 1; font-family: 'Open Sans'; font-size: 22px; fill: rgb(0, 0, 0); fill-opacity: 1; white-space: pre;">Date</text></g><g class="g-ytitle"><text class="ytitle" transform="rotate(-90,29.799999999999997,260)" x="29.799999999999997" y="260" text-anchor="middle" style="opacity: 1; font-family: 'Open Sans'; font-size: 22px; fill: rgb(0, 0, 0); fill-opacity: 1; white-space: pre;">Number of Open Issues</text></g></g></svg>