<svg class="main-svg" xmlns="http://www.w3.org/2000/svg" xmlns:xlink="http://www.w3.org/1999/xlink" width="700" height="500" style="" viewBox="0 0 700 500"><rect x="0" y="0" width="700" height="500" style="fill: rgb(0, 0, 0); fill-opacity: 0;"/><defs id="defs-48f89a"><g class="clips"><clipPath id="clip48f89axyplot" class="plotclip"><rect width="540" height="320"/></clipPath><clipPath class="axesclip" id="clip48f89ax"><rect x="80" y="0" width="540" height="500"/></clipPath><clipPath class="axesclip" id="clip48f89ay"><rect x="0" y="100" width="700" height="320"/></clipPath><clipPath class="axesclip" id="clip48f89axy"><rect x="80" y="100" width="540" height="320"/></clipPath></g><g class="gradients"/><g class="patterns"/></defs><g class="bglayer"><rect class="bg" x="80" y="100" width="540" height="320" style="fill: rgb(0, 0, 0); fill-opacity: 0; stroke-width: 0;"/></g><g class="layer-below"><g class="imagelayer"/><g class="shapelayer"/></g><g class="cartesianlayer"><g class="subplot xy"><g class="layer-subplot"><g class="shapelayer"/><g class="imagelayer"/></g><g class="minor-gridlayer"><g class="x"/><g class="y"/></g><g class="gridlayer"><g class="x"><path class="xgrid crisp" transform="translate(100.19,0)" d="M0,100v320" style="stroke: rgb(255, 255, 255); stroke-opacity: 1; stroke-width: 1px;"/><path class="xgrid crisp" transform="translate(200.37,0)" d="M0,100v320" style="stroke: rgb(255, 255, 255); stroke-opacity: 1; stroke-width: 1px;"/><path class="xgrid crisp" transform="translate(300.41999999999996,0)" d="M0,100v320" style="stroke: rgb(255, 255, 255); stroke-opacity: 1; stroke-width: 1px;"/><path class="xgrid crisp" transform="translate(400.6,0)" d="M0,100v320" style="stroke: rgb(255, 255, 255); stroke-opacity: 1; stroke-width: 1px;"/><path class="xgrid crisp" transform="translate(500.64,0)" d="M0,100v320" style="stroke: rgb(255, 255, 255); stroke-opacity: 1; stroke-width: 1px;"/><path class="xgrid crisp" transform="translate(600.82,0)" d="M0,100v320" style="stroke: rgb(255, 255, 255); stroke-opacity: 1; stroke-width: 1px;"/></g><g class="y"><path class="ygrid crisp" transform="translate(0,363.49)" d="M80,0h540" style="stroke: rgb(255, 255, 255); stroke-opacity: 1; stroke-width: 1px;"/><path class="ygrid crisp" transform="translate(0,306.99)" d="M80,0h540" style="stroke: rgb(255, 255, 255); stroke-opacity: 1; stroke-width: 1px;"/><path class="ygrid crisp" transform="translate(0,250.48)" d="M80,0h540" style="stroke: rgb(255, 255, 255); stroke-opacity: 1; stroke-width: 1px;"/><path class="ygrid crisp" transform="translate(0,193.98000000000002)" d="M80,0h540" style="stroke: rgb(255, 255, 255); stroke-opacity: 1; stroke-width: 1px;"/><path class="ygrid crisp" transform="translate(0,137.47)" d="M80,0h540" style="stroke: rgb(255, 255, 255); stroke-opacity: 1; stroke-width: 1px;"/></g></g><g class="zerolinelayer"><path class="yzl zl crisp" transform="translate(0,420)" d="M80,0h540" style="stroke: rgb(255, 255, 255); stroke-opacity: 1; stroke-width: 2px;"/></g><g class="layer-between"><g class="shapelayer"/><g class="imagelayer"/></g><path class="xlines-below"/><path class="ylines-below"/><g class="overlines-below"/><g class="xaxislayer-below"/><g class="yaxislayer-below"/><g class="overaxes-below"/><g class="overplot"><g class="xy" transform="translate(80,100)" clip-path="url(#clip48f89axyplot)"><g class="scatterlayer mlayer"><g class="trace scatter trace80777f" style="stroke-miterlimit: 2;"><g class="fills"><g><path class="js-fill" d="M540,320L0,320L0,318.87L0,316.61L0.54,317.74L1.77,318.87L1.89,317.74L2.87,318.87L3.68,313.22L3.7,314.35L4.36,313.22L4.77,308.7L4.94,309.83L5.3,310.96L5.46,307.57L5.74,312.09L5.88,309.83L6.17,310.96L6.83,300.79L6.95,299.66L7.11,298.53L7.37,301.92L7.38,303.05L7.54,294.01L8.21,292.88L8.59,300.79L8.59,301.92L9.3,309.83L9.31,308.7L9.43,307.57L9.74,303.05L9.74,301.92L10.13,300.79L10.16,303.05L10.16,304.18L11.1,307.57L11.21,306.44L11.35,305.31L12.29,289.49L12.33,295.14L12.45,294.01L12.74,297.4L12.92,295.14L13.15,294.01L13.53,288.36L13.67,291.75L14.07,290.62L14.26,289.49L14.38,291.75L15.06,292.88L15.22,296.27L16.38,295.14L16.96,292.88L17.08,291.75L17.79,287.23L17.8,288.36L17.92,287.23L18.35,288.36L20.81,287.23L20.81,288.36L21.2,284.97L21.21,287.23L22.69,286.1L22.87,287.23L23.02,286.1L23.83,284.97L24.53,282.71L24.63,283.84L24.94,282.71L25.66,290.62L25.73,289.49L26,286.1L26.44,289.49L26.58,288.36L26.82,289.49L27.95,290.62L29.35,287.23L29.56,288.36L29.6,291.75L29.6,291.75L30.38,290.62L30.84,294.01L31.24,292.88L31.43,298.53L32.3,299.66L32.98,297.4L32.98,298.53L33.12,299.66L33.98,296.27L34.09,297.4L34.69,298.53L35.04,297.4L35.05,298.53L35.18,292.88L35.46,294.01L36.13,292.88L36.36,289.49L36.54,296.27L37.03,297.4L37.1,296.27L37.52,299.66L37.58,300.79L37.8,296.27L38.08,297.4L38.37,298.53L39.19,292.88L39.32,296.27L39.65,295.14L39.85,292.88L40,296.27L40.14,295.14L40.27,296.27L41.21,290.62L41.24,291.75L42.02,288.36L42.31,287.23L43.06,289.49L43.55,288.36L43.85,291.75L44.29,287.23L44.55,288.36L44.62,286.1L44.92,291.75L45.07,292.88L45.62,296.27L45.76,294.01L45.77,292.88L45.87,296.27L46.18,295.14L46.72,296.27L46.72,299.66L47.01,297.4L47.55,298.53L47.93,297.4L47.93,298.53L48.6,297.4L48.61,298.53L48.79,296.27L48.91,296.27L49.71,295.14L50.85,292.88L51.38,294.01L51.38,295.14L51.8,291.75L51.95,294.01L52.38,292.88L52.48,291.75L52.78,295.14L53.58,294.01L54.87,289.49L55.36,288.36L56.55,278.19L56.62,280.45L56.72,281.58L56.72,282.71L57.45,279.32L57.57,278.19L57.59,279.32L59.1,278.19L60.27,271.41L60.38,272.54L61.26,270.28L61.79,269.14L62.47,258.97L62.49,261.23L63.21,260.1L63.84,262.36L63.84,263.49L64.14,269.14L64.82,268.01L66.04,264.62L66.76,263.49L67,270.28L67.88,269.14L68.94,280.45L69.08,279.32L69.59,278.19L69.59,277.06L69.98,277.06L70.42,278.19L71.46,274.8L71.47,275.93L71.89,274.8L71.92,273.67L71.96,274.8L72.79,273.67L73.55,272.54L74.04,271.41L77.25,262.36L77.25,263.49L77.69,266.88L77.82,263.49L78.21,264.62L78.49,265.75L78.56,262.36L78.76,264.62L79.46,265.75L79.78,260.1L79.79,261.23L80.89,260.1L81.09,261.23L81.28,260.1L81.51,258.97L81.53,257.84L82.23,261.23L82.35,260.1L82.48,261.23L83.04,257.84L83.04,258.97L83.18,260.1L83.57,264.62L83.97,263.49L84.3,262.36L84.3,260.1L84.41,263.49L85.35,262.36L85.35,263.49L85.37,261.23L86.02,263.49L86.19,262.36L86.97,264.62L87.29,263.49L87.85,264.62L87.93,265.75L88.24,270.28L88.76,269.14L89.06,277.06L89.33,274.8L89.79,273.67L90.81,270.28L90.95,271.41L90.95,272.54L92.75,265.75L92.77,266.88L94.8,260.1L94.93,261.23L94.93,262.36L95.8,264.62L95.9,265.75L96.73,275.93L97.03,274.8L97.42,277.06L97.42,275.93L97.52,274.8L97.56,277.06L97.97,265.75L97.97,265.75L98.37,264.62L98.68,262.36L98.94,268.01L99.32,266.88L100.29,264.62L100.29,265.75L100.29,266.88L100.41,269.14L100.84,268.01L101.31,266.88L101.65,270.28L101.78,268.01L102.17,266.88L102.19,268.01L102.74,265.75L102.76,266.88L103.32,265.75L103.43,264.62L103.43,265.75L104.1,266.88L104.1,268.01L104.68,266.88L105.23,265.75L105.46,262.36L105.63,262.36L106.03,261.23L107.35,255.58L107.39,256.71L107.46,257.84L109.47,254.45L110.01,255.58L111.37,252.19L111.83,253.32L112.11,252.19L112.92,279.32L113.03,278.19L113.63,275.93L113.89,277.06L114.29,275.93L114.29,277.06L115.25,275.93L115.64,277.06L115.93,275.93L115.94,274.8L116.61,273.67L116.85,274.8L116.86,277.06L117.07,272.54L117.57,271.41L117.58,272.54L117.98,270.28L118.04,270.28L118.59,269.14L118.59,268.01L119.06,273.67L120.75,272.54L120.96,273.67L121.01,272.54L121.52,271.41L121.94,266.88L122.71,265.75L124.35,261.23L124.72,262.36L125.17,260.1L125.25,261.23L125.25,262.36L125.39,268.01L125.75,265.75L126.27,264.62L126.77,262.36L127,263.49L127,264.62L127.59,268.01L128.28,266.88L129.23,262.36L129.6,263.49L130.27,262.36L131.3,261.23L132.41,257.84L133.19,258.97L133.91,257.84L133.98,258.97L134.48,257.84L134.83,256.71L134.84,258.97L135.35,254.45L135.36,254.45L135.79,253.32L135.79,251.06L136.34,252.19L136.68,251.06L137.17,248.8L137.2,247.67L137.27,246.54L137.32,249.93L137.85,248.8L137.88,249.93L138.27,247.67L138.89,248.8L139.27,245.41L139.51,255.58L140.06,254.45L140.78,252.19L140.85,253.32L140.86,252.19L140.88,254.45L142.02,253.32L142.66,252.19L142.77,254.45L143.56,253.32L143.57,254.45L144.2,251.06L144.27,252.19L144.81,253.32L146.49,251.06L146.51,252.19L147.58,246.54L148.43,245.41L149.19,243.15L149.19,244.28L149.19,245.41L149.83,247.67L149.83,248.8L150.19,247.67L151.35,246.54L151.67,247.67L152.11,246.54L152.26,245.41L152.26,246.54L152.48,244.28L153.49,243.15L154.37,239.76L154.65,238.63L156.92,229.59L156.92,230.72L158.41,227.33L158.41,228.46L158.84,229.59L158.85,231.85L159.27,230.72L159.9,229.59L160.29,227.33L160.31,226.2L160.52,234.11L161.76,232.98L161.99,230.72L163.06,229.59L163.77,234.11L164.11,232.98L166.93,223.94L166.99,222.81L167.04,223.94L168.73,222.81L168.97,227.33L168.97,228.46L168.98,231.85L169.38,229.59L171.28,228.46L171.3,230.72L171.45,229.59L172.17,228.46L172.67,223.94L172.68,225.07L173.19,226.2L173.53,227.33L174.41,222.81L174.47,223.94L174.6,225.07L175.41,223.94L175.42,225.07L176.38,223.94L176.69,222.81L177.92,221.68L178.54,219.42L178.58,218.29L179.1,216.03L179.11,217.16L179.51,216.03L179.54,218.29L180.18,217.16L180.35,216.03L181.02,217.16L181.31,216.03L181.31,214.9L182.03,214.9L182.21,213.77L182.94,211.51L183.08,210.38L183.25,211.51L183.39,209.25L183.41,210.38L184.19,209.25L185.52,201.34L185.52,203.6L185.78,202.47L186.11,200.21L186.41,201.34L186.92,200.21L187.11,197.95L187.56,200.21L187.82,199.08L188.19,196.82L188.73,195.69L189.86,194.56L189.86,195.69L189.94,194.56L189.97,195.69L191.28,194.56L191.99,195.69L192.71,194.56L192.93,193.43L192.93,194.56L194.73,193.43L195.41,192.3L195.42,193.43L195.42,194.56L195.8,193.43L196.61,194.56L196.61,195.69L197.28,195.69L197.45,194.56L198.4,192.3L199.1,191.17L199.73,187.78L200.09,188.91L201.45,184.39L201.76,185.52L203.14,184.39L204.33,182.13L204.44,183.26L206.89,178.74L207.18,179.87L207.54,176.48L208.26,175.35L208.68,177.61L208.71,176.48L208.98,175.35L209.7,173.09L209.91,174.22L209.95,175.35L209.97,178.74L210.68,175.35L210.73,176.48L211.1,174.22L211.18,179.87L211.18,181L212.33,177.61L212.45,178.74L212.52,179.87L212.97,176.48L213.11,178.74L213.14,179.87L213.78,183.26L213.78,184.39L214.07,199.08L214.55,197.95L215.41,204.73L215.55,203.6L215.56,204.73L215.97,200.21L216.13,202.47L216.4,203.6L217.6,195.69L217.89,194.56L218.35,191.17L218.4,190.04L218.5,194.56L219.39,193.43L221.34,191.17L221.37,190.04L221.94,184.39L222.3,183.26L222.74,184.39L224.34,183.26L225.46,181L225.54,179.87L226.37,178.74L226.77,179.87L227.48,177.61L229.28,176.48L229.85,174.22L229.92,173.09L230.78,169.7L230.91,170.83L231.09,169.7L232.21,168.57L232.51,165.17L232.54,171.96L232.54,173.09L232.54,174.22L233.07,169.7L233.49,168.57L233.69,169.7L234.63,168.57L234.77,169.7L235,168.57L235.58,169.7L235.65,168.57L235.83,173.09L236.24,170.83L236.5,171.96L236.8,170.83L236.82,173.09L236.92,173.09L236.93,174.22L237.91,170.83L238.34,169.7L238.74,167.43L238.87,173.09L239.23,171.96L239.53,170.83L239.67,171.96L239.71,173.09L239.79,171.96L240.09,174.22L240.39,175.35L240.48,173.09L240.51,182.13L240.52,183.26L241.03,201.34L241.17,200.21L241.3,201.34L241.3,202.47L241.73,202.47L242.26,201.34L243.26,196.82L243.35,197.95L244.62,190.04L244.76,191.17L245.03,190.04L246.22,186.65L246.23,187.78L246.37,188.91L247.24,184.39L247.43,183.26L248.06,184.39L248.07,183.26L248.17,182.13L248.67,178.74L249.11,177.61L249.58,173.09L249.59,174.22L250.11,175.35L250.9,170.83L251.08,169.7L252.3,162.91L252.73,161.78L252.92,160.65L253.93,159.52L255.31,152.74L255.72,151.61L256.85,148.22L256.85,149.35L259.03,141.44L259.05,140.31L260.47,138.05L260.6,136.92L260.6,138.05L260.96,134.66L261.49,133.53L262.05,127.88L262.41,126.75L263.5,123.36L263.71,124.49L263.71,125.62L263.72,126.75L264.62,125.62L264.62,126.75L265.32,123.36L265.93,122.23L266.21,123.36L267.34,122.23L267.63,118.84L270,119.97L270.16,145.96L271.05,144.83L272.19,145.96L272.34,144.83L272.34,143.7L272.42,147.09L272.59,144.83L273.18,145.96L276,144.83L276.71,143.7L277.25,140.31L277.26,139.18L277.37,141.44L278,139.18L278.04,140.31L278.95,139.18L279.19,140.31L279.72,144.83L279.88,142.57L280.1,143.7L280.1,144.83L280.39,142.57L280.84,142.57L281.07,141.44L281.81,139.18L281.9,138.05L282.27,135.79L282.62,136.92L282.62,138.05L282.9,149.35L283.82,148.22L283.98,149.35L284.48,147.09L284.49,148.22L284.49,149.35L285.47,147.09L285.64,148.22L285.74,145.96L286.18,147.09L286.54,148.22L286.99,149.35L287.49,148.22L288.91,143.7L289.21,142.57L289.53,144.83L289.68,140.31L289.79,141.44L289.84,140.31L290.38,141.44L291.49,140.31L291.51,141.44L292.03,139.18L292.37,138.05L292.68,133.53L292.94,134.66L293.31,135.79L293.32,140.31L293.5,138.05L294.51,136.92L295.21,147.09L295.21,145.96L295.31,144.83L295.34,143.7L295.64,153.87L295.78,153.87L295.88,155L295.93,162.91L296.61,160.65L296.95,161.78L297.64,157.26L297.79,158.39L298.45,156.13L298.97,155L299,156.13L299.27,152.74L300.07,151.61L300.29,152.74L300.3,151.61L300.9,150.48L301.21,153.87L301.31,150.48L301.76,149.35L302.14,145.96L302.76,144.83L302.95,143.7L304.24,142.57L304.89,139.18L304.95,138.05L306.13,131.27L307.08,130.14L309.71,122.23L310.78,121.1L311.54,118.84L312.33,117.71L312.46,115.45L313.18,116.58L314,133.53L314.18,132.4L314.29,134.66L314.62,133.53L315.24,134.66L315.74,133.53L316.45,134.66L317.54,131.27L318.47,130.14L319.71,129.01L320.04,130.14L320.09,131.27L321.07,130.14L321.57,127.88L322.02,129.01L322.19,127.88L322.61,129.01L322.63,130.14L322.63,131.27L323.29,129.01L323.95,130.14L324.91,161.78L325.18,160.65L325.34,157.26L325.78,161.78L325.93,162.91L327.33,152.74L327.67,151.61L327.78,153.87L328.24,152.74L328.66,151.61L329.61,153.87L329.99,152.74L330.94,151.61L330.95,152.74L331.76,150.48L332.09,149.35L332.49,150.48L332.85,149.35L332.86,148.22L333.41,149.35L333.43,148.22L333.67,147.09L333.86,144.83L334.94,143.7L335.2,142.57L336.27,141.44L337.82,136.92L337.82,138.05L337.84,139.18L338.77,134.66L339.29,135.79L340.11,131.27L340.11,132.4L340.59,131.27L340.63,132.4L341.24,129.01L341.29,127.88L341.35,126.75L342.61,125.62L343.43,123.36L343.46,122.23L344.26,119.97L344.58,118.84L345.48,123.36L345.85,122.23L346.03,121.1L347.5,118.84L347.7,119.97L348.77,117.71L349.31,116.58L350.82,112.06L351.41,110.93L351.76,109.8L351.97,110.93L352.03,112.06L352.04,110.93L352.9,109.8L353.98,107.54L354.09,106.41L355.04,105.28L355.06,106.41L355.07,107.54L355.13,122.23L355.63,119.97L355.75,118.84L356.01,119.97L356.03,118.84L356.61,117.71L357.37,116.58L357.56,117.71L358.5,115.45L358.87,114.32L359.8,112.06L360.67,110.93L362.08,108.67L362.08,107.54L362.08,100.76L363.3,99.63L364.3,96.24L365.75,97.37L365.75,99.63L366.15,96.24L366.49,96.24L366.98,97.37L367.29,95.11L367.54,96.24L368.38,95.11L368.52,93.98L368.52,95.11L369.79,96.24L370.41,95.11L370.46,96.24L370.62,97.37L371.22,98.5L371.52,99.63L371.71,112.06L372.66,113.19L373.64,110.93L374.14,109.8L374.27,107.54L374.3,110.93L374.71,112.06L375.88,104.15L375.88,104.15L375.91,105.28L375.91,109.8L376.21,107.54L376.75,106.41L378.01,103.02L379.1,101.89L379.78,98.5L380.47,97.37L380.83,93.98L381.29,96.24L381.53,95.11L382.52,89.46L382.52,90.59L383.9,89.46L384.65,83.81L384.66,86.07L385.45,84.94L385.76,86.07L385.8,84.94L386.29,83.81L386.83,81.55L387.46,82.68L388.37,79.29L388.98,78.16L389.58,75.9L389.8,77.03L389.93,78.16L390.23,79.29L390.43,78.16L391.57,79.29L395.09,69.12L395.79,70.25L396.84,66.86L396.92,65.72L396.98,66.86L397.14,62.33L397.74,63.46L397.81,61.2L398.92,60.07L399.08,57.81L399.25,60.07L399.51,61.2L399.89,60.07L400.05,61.2L400.08,62.33L400.34,64.59L400.86,63.46L401.86,56.68L401.9,60.07L402.54,58.94L402.61,57.81L402.82,60.07L403.04,60.07L403.2,61.2L403.97,56.68L404.28,57.81L404.28,58.94L404.41,61.2L404.89,56.68L405.21,55.55L405.77,53.29L405.77,54.42L405.83,55.55L406.37,51.03L406.46,53.29L406.71,54.42L406.88,52.16L407.01,63.46L407.01,64.59L407.4,69.12L407.68,58.94L407.76,63.46L407.84,62.33L408.35,65.72L408.35,66.86L408.81,62.33L409.18,63.46L409.65,58.94L409.71,57.81L410.12,56.68L410.17,57.81L410.19,58.94L410.23,57.81L410.31,69.12L410.7,64.59L410.97,63.46L411.01,65.72L411.52,63.46L412.08,62.33L412.7,65.72L412.97,64.59L413.19,63.46L413.33,65.72L413.4,64.59L413.96,63.46L414.58,72.51L414.61,71.38L414.97,70.25L415.04,69.12L415.35,72.51L415.61,71.38L415.94,70.25L416.35,66.86L416.51,69.12L417.03,67.99L417.44,64.59L417.83,66.86L417.83,67.99L418.65,83.81L418.85,82.68L419.26,80.42L420.07,79.29L420.2,82.68L421.15,83.81L422.21,81.55L422.25,80.42L422.4,81.55L422.76,80.42L423.21,79.29L423.65,77.03L423.76,80.42L423.89,79.29L424.13,78.16L424.75,75.9L425.09,77.03L425.69,82.68L425.91,80.42L425.93,79.29L426.61,82.68L426.75,81.55L427.13,73.64L427.49,80.42L427.59,79.29L427.86,75.9L427.97,82.68L427.97,83.81L428.54,75.9L428.66,78.16L428.79,77.03L429.13,73.64L429.53,75.9L429.58,74.77L429.76,73.64L429.91,77.03L429.91,78.16L430.21,98.5L430.61,93.98L430.71,95.11L430.71,96.24L431.45,95.11L431.52,93.98L431.67,92.85L431.72,101.89L431.96,100.76L432.13,99.63L432.66,100.76L432.76,98.5L433.35,97.37L434.14,92.85L434.29,91.72L434.85,87.2L435.13,90.59L435.13,91.72L435.28,89.46L435.55,93.98L435.64,95.11L436.46,93.98L436.57,92.85L437.07,95.11L437.15,91.72L437.19,90.59L437.19,91.72L437.7,86.07L437.99,84.94L438.02,83.81L438.1,87.2L438.44,84.94L438.91,83.81L438.93,84.94L439.49,75.9L439.52,78.16L440.29,77.03L440.77,73.64L441.31,74.77L441.43,72.51L441.7,78.16L442.07,77.03L442.09,75.9L442.39,74.77L442.65,77.03L442.93,75.9L443.1,78.16L443.45,75.9L443.79,77.03L444.3,71.38L444.64,73.64L444.69,74.77L444.82,73.64L444.85,77.03L445.27,74.77L445.68,73.64L445.69,72.51L446.22,82.68L446.37,79.29L446.63,80.42L446.63,79.29L446.91,82.68L447.01,81.55L447.57,82.68L447.75,81.55L447.99,83.81L448.44,82.68L448.96,81.55L449,82.68L449.07,83.81L449.64,86.07L449.65,84.94L449.78,83.81L449.92,80.42L450.45,83.81L450.79,82.68L451.03,79.29L451.4,82.68L451.44,83.81L451.74,82.68L452.55,100.76L452.81,99.63L454.45,86.07L454.54,87.2L454.62,84.94L454.72,95.11L455,95.11L455.53,93.98L456.19,103.02L456.33,100.76L456.4,99.63L456.47,100.76L456.73,95.11L457.31,96.24L457.55,92.85L457.58,97.37L457.73,96.24L458.19,97.37L458.45,98.5L459.07,93.98L459.36,95.11L459.38,98.5L460.04,96.24L460.17,97.37L460.6,95.11L461.29,93.98L461.54,89.46L461.84,93.98L462.13,92.85L463.21,83.81L463.95,84.94L464.45,96.24L464.85,95.11L464.94,97.37L465.27,90.59L465.44,91.72L465.69,90.59L466.14,97.37L466.81,96.24L467,95.11L467.31,97.37L467.32,98.5L467.94,96.24L468.18,108.67L468.27,107.54L468.27,105.28L468.81,112.06L469.08,110.93L469.29,112.06L470.7,110.93L471.27,112.06L471.55,110.93L471.99,112.06L472.01,110.93L472.53,109.8L472.53,108.67L472.78,112.06L472.86,110.93L473.46,109.8L473.67,110.93L473.99,109.8L474.37,108.67L474.45,106.41L474.58,109.8L474.86,108.67L475.37,107.54L475.44,106.41L475.86,110.93L475.86,112.06L476.92,108.67L477.3,109.8L477.54,107.54L477.84,109.8L477.84,110.93L478.41,112.06L478.58,110.93L478.6,109.8L479.34,104.15L479.37,107.54L479.37,108.67L479.52,106.41L480.34,107.54L480.34,106.41L480.61,106.41L481.73,105.28L482.26,101.89L482.5,104.15L482.59,103.02L483.21,98.5L483.4,97.37L484.03,99.63L484.06,97.37L484.2,96.24L484.99,95.11L485.54,96.24L485.56,98.5L486.08,98.5L486.36,97.37L486.37,96.24L487.05,98.5L487.24,97.37L487.33,96.24L488.21,95.11L488.81,96.24L489.23,95.11L489.96,90.59L490.18,89.46L490.2,90.59L490.35,89.46L491.04,88.33L491.29,90.59L491.73,89.46L491.84,90.59L492.24,86.07L492.39,88.33L492.66,89.46L492.91,86.07L494.63,87.2L494.95,83.81L495.56,84.94L495.81,96.24L496.36,95.11L496.49,96.24L496.62,93.98L497.05,95.11L497.44,93.98L497.74,90.59L498.65,89.46L498.78,87.2L499.76,86.07L500.41,83.81L500.51,82.68L500.63,80.42L502,81.55L502.41,98.5L502.69,96.24L502.77,95.11L502.82,97.37L503.53,96.24L504.44,92.85L504.45,93.98L505.14,99.63L505.19,98.5L505.6,97.37L506.22,92.85L506.25,93.98L506.68,92.85L509.08,88.33L509.39,87.2L510.46,83.81L511.35,82.68L511.44,80.42L511.63,81.55L512.25,80.42L512.89,78.16L514.34,77.03L515.85,73.64L515.97,72.51L517.18,66.86L517.19,67.99L517.21,66.86L517.26,70.25L517.81,67.99L518.02,66.86L518.83,58.94L518.97,57.81L519.51,54.42L522.39,53.29L523.81,46.51L525.59,45.38L525.6,44.25L526.53,43.12L526.54,44.25L527.04,40.86L527.34,39.73L527.68,37.47L529.51,36.34L531.31,34.08L531.47,32.95L532.4,30.69L532.46,29.56L532.58,30.69L533.14,29.56L533.35,28.43L536.02,22.78L536.22,21.65L536.89,20.52L538.77,19.39L538.77,20.52L538.92,17.13L539.81,16L540,17.13" style="fill: rgb(255, 127, 14); fill-opacity: 0.5; stroke-width: 0;"/></g></g><g class="errorbars"/><g class="lines"><path class="js-line" d="M0,318.87L0,316.61L0.54,317.74L1.77,318.87L1.89,317.74L2.87,318.87L3.68,313.22L3.7,314.35L4.36,313.22L4.77,308.7L4.94,309.83L5.3,310.96L5.46,307.57L5.74,312.09L5.88,309.83L6.17,310.96L6.83,300.79L6.95,299.66L7.11,298.53L7.37,301.92L7.38,303.05L7.54,294.01L8.21,292.88L8.59,300.79L8.59,301.92L9.3,309.83L9.31,308.7L9.43,307.57L9.74,303.05L9.74,301.92L10.13,300.79L10.16,303.05L10.16,304.18L11.1,307.57L11.21,306.44L11.35,305.31L12.29,289.49L12.33,295.14L12.45,294.01L12.74,297.4L12.92,295.14L13.15,294.01L13.53,288.36L13.67,291.75L14.07,290.62L14.26,289.49L14.38,291.75L15.06,292.88L15.22,296.27L16.38,295.14L16.96,292.88L17.08,291.75L17.79,287.23L17.8,288.36L17.92,287.23L18.35,288.36L20.81,287.23L20.81,288.36L21.2,284.97L21.21,287.23L22.69,286.1L22.87,287.23L23.02,286.1L23.83,284.97L24.53,282.71L24.63,283.84L24.94,282.71L25.66,290.62L25.73,289.49L26,286.1L26.44,289.49L26.58,288.36L26.82,289.49L27.95,290.62L29.35,287.23L29.56,288.36L29.6,291.75L29.6,291.75L30.38,290.62L30.84,294.01L31.24,292.88L31.43,298.53L32.3,299.66L32.98,297.4L32.98,298.53L33.12,299.66L33.98,296.27L34.09,297.4L34.69,298.53L35.04,297.4L35.05,298.53L35.18,292.88L35.46,294.01L36.13,292.88L36.36,289.49L36.54,296.27L37.03,297.4L37.1,296.27L37.52,299.66L37.58,300.79L37.8,296.27L38.08,297.4L38.37,298.53L39.19,292.88L39.32,296.27L39.65,295.14L39.85,292.88L40,296.27L40.14,295.14L40.27,296.27L41.21,290.62L41.24,291.75L42.02,288.36L42.31,287.23L43.06,289.49L43.55,288.36L43.85,291.75L44.29,287.23L44.55,288.36L44.62,286.1L44.92,291.75L45.07,292.88L45.62,296.27L45.76,294.01L45.77,292.88L45.87,296.27L46.18,295.14L46.72,296.27L46.72,299.66L47.01,297.4L47.55,298.53L47.93,297.4L47.93,298.53L48.6,297.4L48.61,298.53L48.79,296.27L48.91,296.27L49.71,295.14L50.85,292.88L51.38,294.01L51.38,295.14L51.8,291.75L51.95,294.01L52.38,292.88L52.48,291.75L52.78,295.14L53.58,294.01L54.87,289.49L55.36,288.36L56.55,278.19L56.62,280.45L56.72,281.58L56.72,282.71L57.45,279.32L57.57,278.19L57.59,279.32L59.1,278.19L60.27,271.41L60.38,272.54L61.26,270.28L61.79,269.14L62.47,258.97L62.49,261.23L63.21,260.1L63.84,262.36L63.84,263.49L64.14,269.14L64.82,268.01L66.04,264.62L66.76,263.49L67,270.28L67.88,269.14L68.94,280.45L69.08,279.32L69.59,278.19L69.59,277.06L69.98,277.06L70.42,278.19L71.46,274.8L71.47,275.93L71.89,274.8L71.92,273.67L71.96,274.8L72.79,273.67L73.55,272.54L74.04,271.41L77.25,262.36L77.25,263.49L77.69,266.88L77.82,263.49L78.21,264.62L78.49,265.75L78.56,262.36L78.76,264.62L79.46,265.75L79.78,260.1L79.79,261.23L80.89,260.1L81.09,261.23L81.28,260.1L81.51,258.97L81.53,257.84L82.23,261.23L82.35,260.1L82.48,261.23L83.04,257.84L83.04,258.97L83.18,260.1L83.57,264.62L83.97,263.49L84.3,262.36L84.3,260.1L84.41,263.49L85.35,262.36L85.35,263.49L85.37,261.23L86.02,263.49L86.19,262.36L86.97,264.62L87.29,263.49L87.85,264.62L87.93,265.75L88.24,270.28L88.76,269.14L89.06,277.06L89.33,274.8L89.79,273.67L90.81,270.28L90.95,271.41L90.95,272.54L92.75,265.75L92.77,266.88L94.8,260.1L94.93,261.23L94.93,262.36L95.8,264.62L95.9,265.75L96.73,275.93L97.03,274.8L97.42,277.06L97.42,275.93L97.52,274.8L97.56,277.06L97.97,265.75L97.97,265.75L98.37,264.62L98.68,262.36L98.94,268.01L99.32,266.88L100.29,264.62L100.29,265.75L100.29,266.88L100.41,269.14L100.84,268.01L101.31,266.88L101.65,270.28L101.78,268.01L102.17,266.88L102.19,268.01L102.74,265.75L102.76,266.88L103.32,265.75L103.43,264.62L103.43,265.75L104.1,266.88L104.1,268.01L104.68,266.88L105.23,265.75L105.46,262.36L105.63,262.36L106.03,261.23L107.35,255.58L107.39,256.71L107.46,257.84L109.47,254.45L110.01,255.58L111.37,252.19L111.83,253.32L112.11,252.19L112.92,279.32L113.03,278.19L113.63,275.93L113.89,277.06L114.29,275.93L114.29,277.06L115.25,275.93L115.64,277.06L115.93,275.93L115.94,274.8L116.61,273.67L116.85,274.8L116.86,277.06L117.07,272.54L117.57,271.41L117.58,272.54L117.98,270.28L118.04,270.28L118.59,269.14L118.59,268.01L119.06,273.67L120.75,272.54L120.96,273.67L121.01,272.54L121.52,271.41L121.94,266.88L122.71,265.75L124.35,261.23L124.72,262.36L125.17,260.1L125.25,261.23L125.25,262.36L125.39,268.01L125.75,265.75L126.27,264.62L126.77,262.36L127,263.49L127,264.62L127.59,268.01L128.28,266.88L129.23,262.36L129.6,263.49L130.27,262.36L131.3,261.23L132.41,257.84L133.19,258.97L133.91,257.84L133.98,258.97L134.48,257.84L134.83,256.71L134.84,258.97L135.35,254.45L135.36,254.45L135.79,253.32L135.79,251.06L136.34,252.19L136.68,251.06L137.17,248.8L137.2,247.67L137.27,246.54L137.32,249.93L137.85,248.8L137.88,249.93L138.27,247.67L138.89,248.8L139.27,245.41L139.51,255.58L140.06,254.45L140.78,252.19L140.85,253.32L140.86,252.19L140.88,254.45L142.02,253.32L142.66,252.19L142.77,254.45L143.56,253.32L143.57,254.45L144.2,251.06L144.27,252.19L144.81,253.32L146.49,251.06L146.51,252.19L147.58,246.54L148.43,245.41L149.19,243.15L149.19,244.28L149.19,245.41L149.83,247.67L149.83,248.8L150.19,247.67L151.35,246.54L151.67,247.67L152.11,246.54L152.26,245.41L152.26,246.54L152.48,244.28L153.49,243.15L154.37,239.76L154.65,238.63L156.92,229.59L156.92,230.72L158.41,227.33L158.41,228.46L158.84,229.59L158.85,231.85L159.27,230.72L159.9,229.59L160.29,227.33L160.31,226.2L160.52,234.11L161.76,232.98L161.99,230.72L163.06,229.59L163.77,234.11L164.11,232.98L166.93,223.94L166.99,222.81L167.04,223.94L168.73,222.81L168.97,227.33L168.97,228.46L168.98,231.85L169.38,229.59L171.28,228.46L171.3,230.72L171.45,229.59L172.17,228.46L172.67,223.94L172.68,225.07L173.19,226.2L173.53,227.33L174.41,222.81L174.47,223.94L174.6,225.07L175.41,223.94L175.42,225.07L176.38,223.94L176.69,222.81L177.92,221.68L178.54,219.42L178.58,218.29L179.1,216.03L179.11,217.16L179.51,216.03L179.54,218.29L180.18,217.16L180.35,216.03L181.02,217.16L181.31,216.03L181.31,214.9L182.03,214.9L182.21,213.77L182.94,211.51L183.08,210.38L183.25,211.51L183.39,209.25L183.41,210.38L184.19,209.25L185.52,201.34L185.52,203.6L185.78,202.47L186.11,200.21L186.41,201.34L186.92,200.21L187.11,197.95L187.56,200.21L187.82,199.08L188.19,196.82L188.73,195.69L189.86,194.56L189.86,195.69L189.94,194.56L189.97,195.69L191.28,194.56L191.99,195.69L192.71,194.56L192.93,193.43L192.93,194.56L194.73,193.43L195.41,192.3L195.42,193.43L195.42,194.56L195.8,193.43L196.61,194.56L196.61,195.69L197.28,195.69L197.45,194.56L198.4,192.3L199.1,191.17L199.73,187.78L200.09,188.91L201.45,184.39L201.76,185.52L203.14,184.39L204.33,182.13L204.44,183.26L206.89,178.74L207.18,179.87L207.54,176.48L208.26,175.35L208.68,177.61L208.71,176.48L208.98,175.35L209.7,173.09L209.91,174.22L209.95,175.35L209.97,178.74L210.68,175.35L210.73,176.48L211.1,174.22L211.18,179.87L211.18,181L212.33,177.61L212.45,178.74L212.52,179.87L212.97,176.48L213.11,178.74L213.14,179.87L213.78,183.26L213.78,184.39L214.07,199.08L214.55,197.95L215.41,204.73L215.55,203.6L215.56,204.73L215.97,200.21L216.13,202.47L216.4,203.6L217.6,195.69L217.89,194.56L218.35,191.17L218.4,190.04L218.5,194.56L219.39,193.43L221.34,191.17L221.37,190.04L221.94,184.39L222.3,183.26L222.74,184.39L224.34,183.26L225.46,181L225.54,179.87L226.37,178.74L226.77,179.87L227.48,177.61L229.28,176.48L229.85,174.22L229.92,173.09L230.78,169.7L230.91,170.83L231.09,169.7L232.21,168.57L232.51,165.17L232.54,171.96L232.54,173.09L232.54,174.22L233.07,169.7L233.49,168.57L233.69,169.7L234.63,168.57L234.77,169.7L235,168.57L235.58,169.7L235.65,168.57L235.83,173.09L236.24,170.83L236.5,171.96L236.8,170.83L236.82,173.09L236.92,173.09L236.93,174.22L237.91,170.83L238.34,169.7L238.74,167.43L238.87,173.09L239.23,171.96L239.53,170.83L239.67,171.96L239.71,173.09L239.79,171.96L240.09,174.22L240.39,175.35L240.48,173.09L240.51,182.13L240.52,183.26L241.03,201.34L241.17,200.21L241.3,201.34L241.3,202.47L241.73,202.47L242.26,201.34L243.26,196.82L243.35,197.95L244.62,190.04L244.76,191.17L245.03,190.04L246.22,186.65L246.23,187.78L246.37,188.91L247.24,184.39L247.43,183.26L248.06,184.39L248.07,183.26L248.17,182.13L248.67,178.74L249.11,177.61L249.58,173.09L249.59,174.22L250.11,175.35L250.9,170.83L251.08,169.7L252.3,162.91L252.73,161.78L252.92,160.65L253.93,159.52L255.31,152.74L255.72,151.61L256.85,148.22L256.85,149.35L259.03,141.44L259.05,140.31L260.47,138.05L260.6,136.92L260.6,138.05L260.96,134.66L261.49,133.53L262.05,127.88L262.41,126.75L263.5,123.36L263.71,124.49L263.71,125.62L263.72,126.75L264.62,125.62L264.62,126.75L265.32,123.36L265.93,122.23L266.21,123.36L267.34,122.23L267.63,118.84L270,119.97L270.16,145.96L271.05,144.83L272.19,145.96L272.34,144.83L272.34,143.7L272.42,147.09L272.59,144.83L273.18,145.96L276,144.83L276.71,143.7L277.25,140.31L277.26,139.18L277.37,141.44L278,139.18L278.04,140.31L278.95,139.18L279.19,140.31L279.72,144.83L279.88,142.57L280.1,143.7L280.1,144.83L280.39,142.57L280.84,142.57L281.07,141.44L281.81,139.18L281.9,138.05L282.27,135.79L282.62,136.92L282.62,138.05L282.9,149.35L283.82,148.22L283.98,149.35L284.48,147.09L284.49,148.22L284.49,149.35L285.47,147.09L285.64,148.22L285.74,145.96L286.18,147.09L286.54,148.22L286.99,149.35L287.49,148.22L288.91,143.7L289.21,142.57L289.53,144.83L289.68,140.31L289.79,141.44L289.84,140.31L290.38,141.44L291.49,140.31L291.51,141.44L292.03,139.18L292.37,138.05L292.68,133.53L292.94,134.66L293.31,135.79L293.32,140.31L293.5,138.05L294.51,136.92L295.21,147.09L295.21,145.96L295.31,144.83L295.34,143.7L295.64,153.87L295.78,153.87L295.88,155L295.93,162.91L296.61,160.65L296.95,161.78L297.64,157.26L297.79,158.39L298.45,156.13L298.97,155L299,156.13L299.27,152.74L300.07,151.61L300.29,152.74L300.3,151.61L300.9,150.48L301.21,153.87L301.31,150.48L301.76,149.35L302.14,145.96L302.76,144.83L302.95,143.7L304.24,142.57L304.89,139.18L304.95,138.05L306.13,131.27L307.08,130.14L309.71,122.23L310.78,121.1L311.54,118.84L312.33,117.71L312.46,115.45L313.18,116.58L314,133.53L314.18,132.4L314.29,134.66L314.62,133.53L315.24,134.66L315.74,133.53L316.45,134.66L317.54,131.27L318.47,130.14L319.71,129.01L320.04,130.14L320.09,131.27L321.07,130.14L321.57,127.88L322.02,129.01L322.19,127.88L322.61,129.01L322.63,130.14L322.63,131.27L323.29,129.01L323.95,130.14L324.91,161.78L325.18,160.65L325.34,157.26L325.78,161.78L325.93,162.91L327.33,152.74L327.67,151.61L327.78,153.87L328.24,152.74L328.66,151.61L329.61,153.87L329.99,152.74L330.94,151.61L330.95,152.74L331.76,150.48L332.09,149.35L332.49,150.48L332.85,149.35L332.86,148.22L333.41,149.35L333.43,148.22L333.67,147.09L333.86,144.83L334.94,143.7L335.2,142.57L336.27,141.44L337.82,136.92L337.82,138.05L337.84,139.18L338.77,134.66L339.29,135.79L340.11,131.27L340.11,132.4L340.59,131.27L340.63,132.4L341.24,129.01L341.29,127.88L341.35,126.75L342.61,125.62L343.43,123.36L343.46,122.23L344.26,119.97L344.58,118.84L345.48,123.36L345.85,122.23L346.03,121.1L347.5,118.84L347.7,119.97L348.77,117.71L349.31,116.58L350.82,112.06L351.41,110.93L351.76,109.8L351.97,110.93L352.03,112.06L352.04,110.93L352.9,109.8L353.98,107.54L354.09,106.41L355.04,105.28L355.06,106.41L355.07,107.54L355.13,122.23L355.63,119.97L355.75,118.84L356.01,119.97L356.03,118.84L356.61,117.71L357.37,116.58L357.56,117.71L358.5,115.45L358.87,114.32L359.8,112.06L360.67,110.93L362.08,108.67L362.08,107.54L362.08,100.76L363.3,99.63L364.3,96.24L365.75,97.37L365.75,99.63L366.15,96.24L366.49,96.24L366.98,97.37L367.29,95.11L367.54,96.24L368.38,95.11L368.52,93.98L368.52,95.11L369.79,96.24L370.41,95.11L370.46,96.24L370.62,97.37L371.22,98.5L371.52,99.63L371.71,112.06L372.66,113.19L373.64,110.93L374.14,109.8L374.27,107.54L374.3,110.93L374.71,112.06L375.88,104.15L375.88,104.15L375.91,105.28L375.91,109.8L376.21,107.54L376.75,106.41L378.01,103.02L379.1,101.89L379.78,98.5L380.47,97.37L380.83,93.98L381.29,96.24L381.53,95.11L382.52,89.46L382.52,90.59L383.9,89.46L384.65,83.81L384.66,86.07L385.45,84.94L385.76,86.07L385.8,84.94L386.29,83.81L386.83,81.55L387.46,82.68L388.37,79.29L388.98,78.16L389.58,75.9L389.8,77.03L389.93,78.16L390.23,79.29L390.43,78.16L391.57,79.29L395.09,69.12L395.79,70.25L396.84,66.86L396.92,65.72L396.98,66.86L397.14,62.33L397.74,63.46L397.81,61.2L398.92,60.07L399.08,57.81L399.25,60.07L399.51,61.2L399.89,60.07L400.05,61.2L400.08,62.33L400.34,64.59L400.86,63.46L401.86,56.68L401.9,60.07L402.54,58.94L402.61,57.81L402.82,60.07L403.04,60.07L403.2,61.2L403.97,56.68L404.28,57.81L404.28,58.94L404.41,61.2L404.89,56.68L405.21,55.55L405.77,53.29L405.77,54.42L405.83,55.55L406.37,51.03L406.46,53.29L406.71,54.42L406.88,52.16L407.01,63.46L407.01,64.59L407.4,69.12L407.68,58.94L407.76,63.46L407.84,62.33L408.35,65.72L408.35,66.86L408.81,62.33L409.18,63.46L409.65,58.94L409.71,57.81L410.12,56.68L410.17,57.81L410.19,58.94L410.23,57.81L410.31,69.12L410.7,64.59L410.97,63.46L411.01,65.72L411.52,63.46L412.08,62.33L412.7,65.72L412.97,64.59L413.19,63.46L413.33,65.72L413.4,64.59L413.96,63.46L414.58,72.51L414.61,71.38L414.97,70.25L415.04,69.12L415.35,72.51L415.61,71.38L415.94,70.25L416.35,66.86L416.51,69.12L417.03,67.99L417.44,64.59L417.83,66.86L417.83,67.99L418.65,83.81L418.85,82.68L419.26,80.42L420.07,79.29L420.2,82.68L421.15,83.81L422.21,81.55L422.25,80.42L422.4,81.55L422.76,80.42L423.21,79.29L423.65,77.03L423.76,80.42L423.89,79.29L424.13,78.16L424.75,75.9L425.09,77.03L425.69,82.68L425.91,80.42L425.93,79.29L426.61,82.68L426.75,81.55L427.13,73.64L427.49,80.42L427.59,79.29L427.86,75.9L427.97,82.68L427.97,83.81L428.54,75.9L428.66,78.16L428.79,77.03L429.13,73.64L429.53,75.9L429.58,74.77L429.76,73.64L429.91,77.03L429.91,78.16L430.21,98.5L430.61,93.98L430.71,95.11L430.71,96.24L431.45,95.11L431.52,93.98L431.67,92.85L431.72,101.89L431.96,100.76L432.13,99.63L432.66,100.76L432.76,98.5L433.35,97.37L434.14,92.85L434.29,91.72L434.85,87.2L435.13,90.59L435.13,91.72L435.28,89.46L435.55,93.98L435.64,95.11L436.46,93.98L436.57,92.85L437.07,95.11L437.15,91.72L437.19,90.59L437.19,91.72L437.7,86.07L437.99,84.94L438.02,83.81L438.1,87.2L438.44,84.94L438.91,83.81L438.93,84.94L439.49,75.9L439.52,78.16L440.29,77.03L440.77,73.64L441.31,74.77L441.43,72.51L441.7,78.16L442.07,77.03L442.09,75.9L442.39,74.77L442.65,77.03L442.93,75.9L443.1,78.16L443.45,75.9L443.79,77.03L444.3,71.38L444.64,73.64L444.69,74.77L444.82,73.64L444.85,77.03L445.27,74.77L445.68,73.64L445.69,72.51L446.22,82.68L446.37,79.29L446.63,80.42L446.63,79.29L446.91,82.68L447.01,81.55L447.57,82.68L447.75,81.55L447.99,83.81L448.44,82.68L448.96,81.55L449,82.68L449.07,83.81L449.64,86.07L449.65,84.94L449.78,83.81L449.92,80.42L450.45,83.81L450.79,82.68L451.03,79.29L451.4,82.68L451.44,83.81L451.74,82.68L452.55,100.76L452.81,99.63L454.45,86.07L454.54,87.2L454.62,84.94L454.72,95.11L455,95.11L455.53,93.98L456.19,103.02L456.33,100.76L456.4,99.63L456.47,100.76L456.73,95.11L457.31,96.24L457.55,92.85L457.58,97.37L457.73,96.24L458.19,97.37L458.45,98.5L459.07,93.98L459.36,95.11L459.38,98.5L460.04,96.24L460.17,97.37L460.6,95.11L461.29,93.98L461.54,89.46L461.84,93.98L462.13,92.85L463.21,83.81L463.95,84.94L464.45,96.24L464.85,95.11L464.94,97.37L465.27,90.59L465.44,91.72L465.69,90.59L466.14,97.37L466.81,96.24L467,95.11L467.31,97.37L467.32,98.5L467.94,96.24L468.18,108.67L468.27,107.54L468.27,105.28L468.81,112.06L469.08,110.93L469.29,112.06L470.7,110.93L471.27,112.06L471.55,110.93L471.99,112.06L472.01,110.93L472.53,109.8L472.53,108.67L472.78,112.06L472.86,110.93L473.46,109.8L473.67,110.93L473.99,109.8L474.37,108.67L474.45,106.41L474.58,109.8L474.86,108.67L475.37,107.54L475.44,106.41L475.86,110.93L475.86,112.06L476.92,108.67L477.3,109.8L477.54,107.54L477.84,109.8L477.84,110.93L478.41,112.06L478.58,110.93L478.6,109.8L479.34,104.15L479.37,107.54L479.37,108.67L479.52,106.41L480.34,107.54L480.34,106.41L480.61,106.41L481.73,105.28L482.26,101.89L482.5,104.15L482.59,103.02L483.21,98.5L483.4,97.37L484.03,99.63L484.06,97.37L484.2,96.24L484.99,95.11L485.54,96.24L485.56,98.5L486.08,98.5L486.36,97.37L486.37,96.24L487.05,98.5L487.24,97.37L487.33,96.24L488.21,95.11L488.81,96.24L489.23,95.11L489.96,90.59L490.18,89.46L490.2,90.59L490.35,89.46L491.04,88.33L491.29,90.59L491.73,89.46L491.84,90.59L492.24,86.07L492.39,88.33L492.66,89.46L492.91,86.07L494.63,87.2L494.95,83.81L495.56,84.94L495.81,96.24L496.36,95.11L496.49,96.24L496.62,93.98L497.05,95.11L497.44,93.98L497.74,90.59L498.65,89.46L498.78,87.2L499.76,86.07L500.41,83.81L500.51,82.68L500.63,80.42L502,81.55L502.41,98.5L502.69,96.24L502.77,95.11L502.82,97.37L503.53,96.24L504.44,92.85L504.45,93.98L505.14,99.63L505.19,98.5L505.6,97.37L506.22,92.85L506.25,93.98L506.68,92.85L509.08,88.33L509.39,87.2L510.46,83.81L511.35,82.68L511.44,80.42L511.63,81.55L512.25,80.42L512.89,78.16L514.34,77.03L515.85,73.64L515.97,72.51L517.18,66.86L517.19,67.99L517.21,66.86L517.26,70.25L517.81,67.99L518.02,66.86L518.83,58.94L518.97,57.81L519.51,54.42L522.39,53.29L523.81,46.51L525.59,45.38L525.6,44.25L526.53,43.12L526.54,44.25L527.04,40.86L527.34,39.73L527.68,37.47L529.51,36.34L531.31,34.08L531.47,32.95L532.4,30.69L532.46,29.56L532.58,30.69L533.14,29.56L533.35,28.43L536.02,22.78L536.22,21.65L536.89,20.52L538.77,19.39L538.77,20.52L538.92,17.13L539.81,16L540,17.13" style="vector-effect: none; fill: none; stroke: rgb(255, 127, 14); stroke-opacity: 1; stroke-width: 2px; opacity: 1;"/></g><g class="points"/><g class="text"/></g></g></g></g><g class="zerolinelayer-above"/><path class="xlines-above crisp" d="M0,0" style="fill: none;"/><path class="ylines-above crisp" d="M0,0" style="fill: none;"/><g class="overlines-above"/><g class="xaxislayer-above"><g class="xtick"><text text-anchor="middle" x="0" y="439" transform="translate(100.19,0)" style="font-family: 'Open Sans'; font-size: 18px; fill: rgb(255, 255, 255); fill-opacity: 1; white-space: pre;">2016</text></g><g class="xtick"><text text-anchor="middle" x="0" y="439" style="font-family: 'Open Sans'; font-size: 18px; fill: rgb(255, 255, 255); fill-opacity: 1; white-space: pre;" transform="translate(200.37,0)">2018</text></g><g class="xtick"><text text-anchor="middle" x="0" y="439" style="font-family: 'Open Sans'; font-size: 18px; fill: rgb(255, 255, 255); fill-opacity: 1; white-space: pre;" transform="translate(300.41999999999996,0)">2020</text></g><g class="xtick"><text text-anchor="middle" x="0" y="439" style="font-family: 'Open Sans'; font-size: 18px; fill: rgb(255, 255, 255); fill-opacity: 1; white-space: pre;" transform="translate(400.6,0)">2022</text></g><g class="xtick"><text text-anchor="middle" x="0" y="439" style="font-family: 'Open Sans'; font-size: 18px; fill: rgb(255, 255, 255); fill-opacity: 1; white-space: pre;" transform="translate(500.64,0)">2024</text></g><g class="xtick"><text text-anchor="middle" x="0" y="439" style="font-family: 'Open Sans'; font-size: 18px; fill: rgb(255, 255, 255); fill-opacity: 1; white-space: pre;" transform="translate(600.82,0)">2026</text></g></g><g class="yaxislayer-above"><g class="ytick"><text text-anchor="end" x="79" y="6.3" transform="translate(0,420)" style="font-family: 'Open Sans'; font-size: 18px; fill: rgb(255, 255, 255); fill-opacity: 1; white-space: pre;">0</text></g><g class="ytick"><text text-anchor="end" x="79" y="6.3" style="font-family: 'Open Sans'; font-size: 18px; fill: rgb(255, 255, 255); fill-opacity: 1; white-space: pre;" transform="translate(0,363.49)">50</text></g><g class="ytick"><text text-anchor="end" x="79" y="6.3" style="font-family: 'Open Sans'; font-size: 18px; fill: rgb(255, 255, 255); fill-opacity: 1; white-space: pre;" transform="translate(0,306.99)">100</text></g><g class="ytick"><text text-anchor="end" x="79" y="6.3" style="font-family: 'Open Sans'; font-size: 18px; fill: rgb(255, 255, 255); fill-opacity: 1; white-space: pre;" transform="translate(0,250.48)">150</text></g><g class="ytick"><text text-anchor="end" x="79" y="6.3" style="font-family: 'Open Sans'; font-size: 18px; fill: rgb(255, 255, 255); fill-opacity: 1; white-space: pre;" transform="translate(0,193.98000000000002)">200</text></g><g class="ytick"><text text-anchor="end" x="79" y="6.3" style="font-family: 'Open Sans'; font-size: 18px; fill: rgb(255, 255, 255); fill-opacity: 1; white-space: pre;" transform="translate(0,137.47)">250</text></g></g><g class="overaxes-above"/></g></g><g class="polarlayer"/><g class="smithlayer"/><g class="ternarylayer"/><g class="geolayer"/><g class="funnelarealayer"/><g class="pielayer"/><g class="iciclelayer"/><g class="treemaplayer"/><g class="sunburstlayer"/><g class="glimages"/><defs id="topdefs-48f89a"><g class="clips"/></defs><g class="layer-above"><g class="imagelayer"/><g class="shapelayer"/></g><g class="infolayer"><g class="g-gtitle"><text class="gtitle" x="35" y="50" text-anchor="start" dy="0em" style="opacity: 1; font-family: 'Open Sans'; font-size: 25px; fill: rgb(255, 255, 255); fill-opacity: 1; white-space: pre;">MultiQC/MultiQC - Open Issues Over Time</text></g><g class="g-xtitle"><text class="xtitle" x="350" y="472.9" text-anchor="middle" style="opacity: 1; font-family: 'Open Sans'; font-size: 22px; fill: rgb(255, 255, 255); fill-opacity: 1; white-space: pre;">Date</text></g><g class="g-ytitle"><text class="ytitle" transform="rotate(-90,29.799999999999997,260)" x="29.799999999999997" y="260" text-anchor="middle" style="opacity: 1; font-family: 'Open Sans'; font-size: 22px; fill: rgb(255, 255, 255); fill-opacity: 1; white-space: pre;">Number of Open Issues</text></g></g></svg>