<svg class="main-svg" xmlns="http://www.w3.org/2000/svg" xmlns:xlink="http://www.w3.org/1999/xlink" width="700" height="500" style="" viewBox="0 0 700 500"><rect x="0" y="0" width="700" height="500" style="fill: rgb(0, 0, 0); fill-opacity: 0;"/><defs id="defs-0400c2"><g class="clips"><clipPath id="clip0400c2xyplot" class="plotclip"><rect width="540" height="320"/></clipPath><clipPath class="axesclip" id="clip0400c2x"><rect x="80" y="0" width="540" height="500"/></clipPath><clipPath class="axesclip" id="clip0400c2y"><rect x="0" y="100" width="700" height="320"/></clipPath><clipPath class="axesclip" id="clip0400c2xy"><rect x="80" y="100" width="540" height="320"/></clipPath></g><g class="gradients"/><g class="patterns"/></defs><g class="bglayer"><rect class="bg" x="80" y="100" width="540" height="320" style="fill: rgb(0, 0, 0); fill-opacity: 0; stroke-width: 0;"/></g><g class="layer-below"><g class="imagelayer"/><g class="shapelayer"/></g><g class="cartesianlayer"><g class="subplot xy"><g class="layer-subplot"><g class="shapelayer"/><g class="imagelayer"/></g><g class="minor-gridlayer"><g class="x"/><g class="y"/></g><g class="gridlayer"><g class="x"><path class="xgrid crisp" transform="translate(101.03999999999999,0)" d="M0,100v320" style="stroke: rgb(255, 255, 255); stroke-opacity: 1; stroke-width: 1px;"/><path class="xgrid crisp" transform="translate(201.59,0)" d="M0,100v320" style="stroke: rgb(255, 255, 255); stroke-opacity: 1; stroke-width: 1px;"/><path class="xgrid crisp" transform="translate(302,0)" d="M0,100v320" style="stroke: rgb(255, 255, 255); stroke-opacity: 1; stroke-width: 1px;"/><path class="xgrid crisp" transform="translate(402.54,0)" d="M0,100v320" style="stroke: rgb(255, 255, 255); stroke-opacity: 1; stroke-width: 1px;"/><path class="xgrid crisp" transform="translate(502.95,0)" d="M0,100v320" style="stroke: rgb(255, 255, 255); stroke-opacity: 1; stroke-width: 1px;"/><path class="xgrid crisp" transform="translate(603.49,0)" d="M0,100v320" style="stroke: rgb(255, 255, 255); stroke-opacity: 1; stroke-width: 1px;"/></g><g class="y"><path class="ygrid crisp" transform="translate(0,353.90999999999997)" d="M80,0h540" style="stroke: rgb(255, 255, 255); stroke-opacity: 1; stroke-width: 1px;"/><path class="ygrid crisp" transform="translate(0,287.83000000000004)" d="M80,0h540" style="stroke: rgb(255, 255, 255); stroke-opacity: 1; stroke-width: 1px;"/><path class="ygrid crisp" transform="translate(0,221.74)" d="M80,0h540" style="stroke: rgb(255, 255, 255); stroke-opacity: 1; stroke-width: 1px;"/><path class="ygrid crisp" transform="translate(0,155.65)" d="M80,0h540" style="stroke: rgb(255, 255, 255); stroke-opacity: 1; stroke-width: 1px;"/></g></g><g class="zerolinelayer"><path class="yzl zl crisp" transform="translate(0,420)" d="M80,0h540" style="stroke: rgb(255, 255, 255); stroke-opacity: 1; stroke-width: 2px;"/></g><g class="layer-between"><g class="shapelayer"/><g class="imagelayer"/></g><path class="xlines-below"/><path class="ylines-below"/><g class="overlines-below"/><g class="xaxislayer-below"/><g class="yaxislayer-below"/><g class="overaxes-below"/><g class="overplot"><g class="xy" transform="translate(80,100)" clip-path="url(#clip0400c2xyplot)"><g class="scatterlayer mlayer"><g class="trace scatter trace5d967d" style="stroke-miterlimit: 2;"><g class="fills"><g><path class="js-fill" d="M540,320L0,320L0,286.96L4.26,49.04L8.39,174.61L12.65,154.78L16.78,260.52L21.04,267.13L25.31,240.7L29.3,240.7L33.56,174.61L37.69,168L41.95,194.43L46.08,207.65L50.34,247.3L54.61,194.43L58.73,207.65L63,207.65L67.12,240.7L71.39,253.91L75.65,234.09L79.5,194.43L83.76,234.09L87.89,253.91L92.15,234.09L96.28,134.96L100.55,220.87L104.81,227.48L108.94,273.74L113.2,247.3L117.33,240.7L121.59,201.04L125.85,227.48L129.7,240.7L133.97,201.04L138.09,214.26L142.36,273.74L146.48,220.87L150.75,267.13L155.01,227.48L159.14,247.3L167.53,260.52L171.79,240.7L176.06,280.35L179.91,201.04L184.17,201.04L188.3,247.3L192.56,293.57L196.69,234.09L200.95,267.13L205.22,260.52L209.34,227.48L213.61,181.22L217.73,234.09L222,253.91L226.26,273.74L230.25,207.65L234.51,227.48L238.64,181.22L242.9,207.65L247.03,201.04L251.29,227.48L255.56,207.65L259.68,207.65L263.95,260.52L268.07,293.57L272.34,286.96L276.6,267.13L280.45,207.65L284.72,253.91L288.84,227.48L293.11,168L297.23,214.26L301.5,227.48L305.76,227.48L309.89,260.52L314.15,247.3L318.28,280.35L322.54,273.74L326.81,201.04L330.66,260.52L334.92,267.13L339.05,194.43L343.31,260.52L347.44,253.91L351.7,273.74L355.97,234.09L360.09,214.26L364.36,273.74L368.48,273.74L372.75,247.3L377.01,220.87L380.86,214.26L385.12,240.7L389.25,260.52L393.52,260.52L397.64,234.09L401.91,201.04L406.17,141.57L410.3,168L414.56,187.83L418.69,234.09L422.95,240.7L427.21,16L431.2,187.83L435.47,174.61L439.59,134.96L443.86,174.61L447.98,194.43L452.25,121.74L456.51,148.17L460.64,168L464.9,194.43L469.03,234.09L473.29,234.09L481.41,220.87L485.67,234.09L489.8,240.7L494.06,240.7L498.19,194.43L502.45,240.7L506.71,234.09L510.84,247.3L515.1,267.13L519.23,181.22L523.49,273.74L527.76,260.52L531.61,267.13L535.87,253.91L540,273.74" style="fill: rgb(255, 127, 14); fill-opacity: 0.5; stroke-width: 0;"/></g></g><g class="errorbars"/><g class="lines"><path class="js-line" d="M0,286.96L4.26,49.04L8.39,174.61L12.65,154.78L16.78,260.52L21.04,267.13L25.31,240.7L29.3,240.7L33.56,174.61L37.69,168L41.95,194.43L46.08,207.65L50.34,247.3L54.61,194.43L58.73,207.65L63,207.65L67.12,240.7L71.39,253.91L75.65,234.09L79.5,194.43L83.76,234.09L87.89,253.91L92.15,234.09L96.28,134.96L100.55,220.87L104.81,227.48L108.94,273.74L113.2,247.3L117.33,240.7L121.59,201.04L125.85,227.48L129.7,240.7L133.97,201.04L138.09,214.26L142.36,273.74L146.48,220.87L150.75,267.13L155.01,227.48L159.14,247.3L167.53,260.52L171.79,240.7L176.06,280.35L179.91,201.04L184.17,201.04L188.3,247.3L192.56,293.57L196.69,234.09L200.95,267.13L205.22,260.52L209.34,227.48L213.61,181.22L217.73,234.09L222,253.91L226.26,273.74L230.25,207.65L234.51,227.48L238.64,181.22L242.9,207.65L247.03,201.04L251.29,227.48L255.56,207.65L259.68,207.65L263.95,260.52L268.07,293.57L272.34,286.96L276.6,267.13L280.45,207.65L284.72,253.91L288.84,227.48L293.11,168L297.23,214.26L301.5,227.48L305.76,227.48L309.89,260.52L314.15,247.3L318.28,280.35L322.54,273.74L326.81,201.04L330.66,260.52L334.92,267.13L339.05,194.43L343.31,260.52L347.44,253.91L351.7,273.74L355.97,234.09L360.09,214.26L364.36,273.74L368.48,273.74L372.75,247.3L377.01,220.87L380.86,214.26L385.12,240.7L389.25,260.52L393.52,260.52L397.64,234.09L401.91,201.04L406.17,141.57L410.3,168L414.56,187.83L418.69,234.09L422.95,240.7L427.21,16L431.2,187.83L435.47,174.61L439.59,134.96L443.86,174.61L447.98,194.43L452.25,121.74L456.51,148.17L460.64,168L464.9,194.43L469.03,234.09L473.29,234.09L481.41,220.87L485.67,234.09L489.8,240.7L494.06,240.7L498.19,194.43L502.45,240.7L506.71,234.09L510.84,247.3L515.1,267.13L519.23,181.22L523.49,273.74L527.76,260.52L531.61,267.13L535.87,253.91L540,273.74" style="vector-effect: none; fill: none; stroke: rgb(255, 127, 14); stroke-opacity: 1; stroke-width: 2px; opacity: 1;"/></g><g class="points"/><g class="text"/></g></g></g></g><g class="zerolinelayer-above"/><path class="xlines-above crisp" d="M0,0" style="fill: none;"/><path class="ylines-above crisp" d="M0,0" style="fill: none;"/><g class="overlines-above"/><g class="xaxislayer-above"><g class="xtick"><text text-anchor="middle" x="0" y="439" transform="translate(101.03999999999999,0)" style="font-family: 'Open Sans'; font-size: 18px; fill: rgb(0, 0, 0); fill-opacity: 1; white-space: pre;">2016</text></g><g class="xtick"><text text-anchor="middle" x="0" y="439" style="font-family: 'Open Sans'; font-size: 18px; fill: rgb(0, 0, 0); fill-opacity: 1; white-space: pre;" transform="translate(201.59,0)">2018</text></g><g class="xtick"><text text-anchor="middle" x="0" y="439" style="font-family: 'Open Sans'; font-size: 18px; fill: rgb(0, 0, 0); fill-opacity: 1; white-space: pre;" transform="translate(302,0)">2020</text></g><g class="xtick"><text text-anchor="middle" x="0" y="439" style="font-family: 'Open Sans'; font-size: 18px; fill: rgb(0, 0, 0); fill-opacity: 1; white-space: pre;" transform="translate(402.54,0)">2022</text></g><g class="xtick"><text text-anchor="middle" x="0" y="439" style="font-family: 'Open Sans'; font-size: 18px; fill: rgb(0, 0, 0); fill-opacity: 1; white-space: pre;" transform="translate(502.95,0)">2024</text></g><g class="xtick"><text text-anchor="middle" x="0" y="439" style="font-family: 'Open Sans'; font-size: 18px; fill: rgb(0, 0, 0); fill-opacity: 1; white-space: pre;" transform="translate(603.49,0)">2026</text></g></g><g class="yaxislayer-above"><g class="ytick"><text text-anchor="end" x="79" y="6.3" transform="translate(0,420)" style="font-family: 'Open Sans'; font-size: 18px; fill: rgb(0, 0, 0); fill-opacity: 1; white-space: pre;">0</text></g><g class="ytick"><text text-anchor="end" x="79" y="6.3" style="font-family: 'Open Sans'; font-size: 18px; fill: rgb(0, 0, 0); fill-opacity: 1; white-space: pre;" transform="translate(0,353.90999999999997)">10</text></g><g class="ytick"><text text-anchor="end" x="79" y="6.3" style="font-family: 'Open Sans'; font-size: 18px; fill: rgb(0, 0, 0); fill-opacity: 1; white-space: pre;" transform="translate(0,287.83000000000004)">20</text></g><g class="ytick"><text text-anchor="end" x="79" y="6.3" style="font-family: 'Open Sans'; font-size: 18px; fill: rgb(0, 0, 0); fill-opacity: 1; white-space: pre;" transform="translate(0,221.74)">30</text></g><g class="ytick"><text text-anchor="end" x="79" y="6.3" style="font-family: 'Open Sans'; font-size: 18px; fill: rgb(0, 0, 0); fill-opacity: 1; white-space: pre;" transform="translate(0,155.65)">40</text></g></g><g class="overaxes-above"/></g></g><g class="polarlayer"/><g class="smithlayer"/><g class="ternarylayer"/><g class="geolayer"/><g class="funnelarealayer"/><g class="pielayer"/><g class="iciclelayer"/><g class="treemaplayer"/><g class="sunburstlayer"/><g class="glimages"/><defs id="topdefs-0400c2"><g class="clips"/></defs><g class="layer-above"><g class="imagelayer"/><g class="shapelayer"/></g><g class="infolayer"><g class="g-gtitle"><text class="gtitle" x="35" y="50" text-anchor="start" dy="0em" style="opacity: 1; font-family: 'Open Sans'; font-size: 25px; fill: rgb(0, 0, 0); fill-opacity: 1; white-space: pre;">MultiQC/MultiQC - New Issues Per Month</text></g><g class="g-xtitle"><text class="xtitle" x="350" y="472.9" text-anchor="middle" style="opacity: 1; font-family: 'Open Sans'; font-size: 22px; fill: rgb(0, 0, 0); fill-opacity: 1; white-space: pre;">Month</text></g><g class="g-ytitle"><text class="ytitle" transform="rotate(-90,38.8,260)" x="38.8" y="260" text-anchor="middle" style="opacity: 1; font-family: 'Open Sans'; font-size: 22px; fill: rgb(0, 0, 0); fill-opacity: 1; white-space: pre;">New Issues Created</text></g></g></svg>