<svg class="main-svg" xmlns="http://www.w3.org/2000/svg" xmlns:xlink="http://www.w3.org/1999/xlink" width="700" height="500" style="" viewBox="0 0 700 500"><rect x="0" y="0" width="700" height="500" style="fill: rgb(0, 0, 0); fill-opacity: 0;"/><defs id="defs-050255"><g class="clips"><clipPath id="clip050255xyplot" class="plotclip"><rect width="540" height="320"/></clipPath><clipPath class="axesclip" id="clip050255x"><rect x="80" y="0" width="540" height="500"/></clipPath><clipPath class="axesclip" id="clip050255y"><rect x="0" y="100" width="700" height="320"/></clipPath><clipPath class="axesclip" id="clip050255xy"><rect x="80" y="100" width="540" height="320"/></clipPath></g><g class="gradients"/><g class="patterns"/></defs><g class="bglayer"><rect class="bg" x="80" y="100" width="540" height="320" style="fill: rgb(0, 0, 0); fill-opacity: 0; stroke-width: 0;"/></g><g class="layer-below"><g class="imagelayer"/><g class="shapelayer"/></g><g class="cartesianlayer"><g class="subplot xy"><g class="layer-subplot"><g class="shapelayer"/><g class="imagelayer"/></g><g class="minor-gridlayer"><g class="x"/><g class="y"/></g><g class="gridlayer"><g class="x"><path class="xgrid crisp" transform="translate(101.2,0)" d="M0,100v320" style="stroke: rgb(255, 255, 255); stroke-opacity: 1; stroke-width: 1px;"/><path class="xgrid crisp" transform="translate(206.38,0)" d="M0,100v320" style="stroke: rgb(255, 255, 255); stroke-opacity: 1; stroke-width: 1px;"/><path class="xgrid crisp" transform="translate(311.40999999999997,0)" d="M0,100v320" style="stroke: rgb(255, 255, 255); stroke-opacity: 1; stroke-width: 1px;"/><path class="xgrid crisp" transform="translate(416.59,0)" d="M0,100v320" style="stroke: rgb(255, 255, 255); stroke-opacity: 1; stroke-width: 1px;"/><path class="xgrid crisp" transform="translate(521.63,0)" d="M0,100v320" style="stroke: rgb(255, 255, 255); stroke-opacity: 1; stroke-width: 1px;"/></g><g class="y"><path class="ygrid crisp" transform="translate(0,335.51)" d="M80,0h540" style="stroke: rgb(255, 255, 255); stroke-opacity: 1; stroke-width: 1px;"/><path class="ygrid crisp" transform="translate(0,251.02)" d="M80,0h540" style="stroke: rgb(255, 255, 255); stroke-opacity: 1; stroke-width: 1px;"/><path class="ygrid crisp" transform="translate(0,166.53)" d="M80,0h540" style="stroke: rgb(255, 255, 255); stroke-opacity: 1; stroke-width: 1px;"/></g></g><g class="zerolinelayer"><path class="yzl zl crisp" transform="translate(0,420)" d="M80,0h540" style="stroke: rgb(255, 255, 255); stroke-opacity: 1; stroke-width: 2px;"/></g><g class="layer-between"><g class="shapelayer"/><g class="imagelayer"/></g><path class="xlines-below"/><path class="ylines-below"/><g class="overlines-below"/><g class="xaxislayer-below"/><g class="yaxislayer-below"/><g class="overaxes-below"/><g class="overplot"><g class="xy" transform="translate(80,100)" clip-path="url(#clip050255xyplot)"><g class="scatterlayer mlayer"><g class="trace scatter tracea45c07" style="stroke-miterlimit: 2;"><g class="fills"><g><path class="js-fill" d="M540,320L0,320L0,319.83L0,319.49L1.98,319.32L3.86,318.31L4.58,318.14L5.18,316.96L5.57,316.79L6.18,315.78L6.48,315.61L8.62,312.06L9.03,311.89L10.19,310.87L10.19,310.71L10.64,310.03L11.08,309.86L12.19,308.85L12.19,308.68L12.9,306.99L12.95,306.82L14.97,304.45L15.95,304.28L17.94,303.27L18.42,303.1L18.82,302.76L21.85,302.59L27.08,300.06L27.19,299.89L27.9,299.55L29.79,299.38L34.02,297.36L34.33,297.19L37.99,294.48L38,294.31L38.3,293.64L38.95,293.47L41.15,291.27L41.15,291.1L41.84,290.43L42.14,290.26L44.42,288.23L45.72,288.06L47.9,286.03L48.05,285.87L48.42,285.19L49.09,285.02L52.45,283.33L53.38,283.16L56.49,281.64L56.5,281.47L58.82,280.12L59.11,279.95L60.44,278.6L62.05,278.43L65.37,275.39L65.47,275.22L65.59,274.88L66.36,274.71L68.98,273.36L69.02,273.19L69.33,272.85L70.09,272.68L71.26,272.35L72.23,272.18L73.07,270.99L73.47,270.83L79.43,268.8L79.55,268.63L81.15,267.62L81.68,267.45L82.48,266.26L82.68,266.09L85.34,264.91L85.58,264.74L85.6,264.4L86.46,264.24L87.18,263.39L87.46,263.22L88.16,262.71L88.51,262.55L88.51,262.21L89.61,262.04L89.63,261.7L90.49,261.53L94.76,260.18L95.25,260.01L96.36,259.34L96.67,259.17L101.29,257.14L101.3,256.97L102.56,255.96L102.56,255.79L103.31,253.42L103.6,253.25L109.91,249.87L110.48,249.7L110.9,249.03L111.32,248.86L113.33,247.84L114.64,247.68L117.71,246.49L118.52,246.32L119.99,245.65L121,245.48L122.88,244.3L122.91,244.13L127.6,241.93L127.8,241.76L128.83,241.09L129.24,240.92L138.07,235.85L138.74,235.68L142.57,232.97L142.57,232.8L144.89,231.45L145.17,231.28L147.8,229.93L147.89,229.76L152.66,228.41L152.7,228.24L154.19,227.4L154.24,227.23L154.94,226.72L155.84,226.55L156.1,226.21L156.63,226.05L161.69,224.52L161.84,224.36L162.67,223.68L162.84,223.51L175.06,218.27L175.22,218.1L175.32,217.77L177.15,217.6L183.01,215.4L183.11,215.23L187.72,213.54L187.88,213.37L188.47,212.7L189.05,212.53L189.35,212.19L190.35,212.02L191.11,211.68L191.3,211.51L192.07,210.84L192.21,210.67L192.55,209.99L193.38,209.82L195.39,208.13L196.24,207.96L198.15,206.61L199.34,206.44L199.42,206.27L200.82,206.11L205.32,204.92L205.57,204.75L209.2,203.57L209.23,203.4L211.5,202.39L213.28,202.22L214.53,201.88L215.38,201.71L219.12,200.19L219.41,200.02L225.34,196.14L225.38,195.97L226.15,195.63L226.31,195.46L229.29,192.59L230.34,192.42L232.65,191.4L232.79,191.24L233.39,190.9L235.54,190.73L241.31,189.04L241.39,188.87L242.3,188.36L242.62,188.19L244.14,187.35L244.32,187.18L245.14,186.33L246.33,186.17L248.03,184.98L248.61,184.81L249.35,183.97L249.78,183.8L250.49,182.95L250.59,182.79L251.48,182.11L251.75,181.94L252.64,181.1L252.65,180.93L255.64,179.24L255.78,179.07L256.82,178.05L257.25,177.89L260.55,176.2L260.56,176.03L271.57,169.27L271.96,169.1L271.98,168.93L272.87,168.76L273.98,167.75L274.53,167.58L275.12,166.73L275.5,166.56L280.98,164.54L284.57,164.37L291.08,162.85L291.09,162.68L294.56,161.16L294.63,160.99L296.96,159.47L297.98,159.3L300,157.95L301.17,157.78L303.87,156.42L303.97,156.26L304.77,155.41L306.03,155.24L308.15,153.21L309.2,153.05L310.1,151.52L310.18,151.36L310.87,150.85L311.21,150.68L313.34,149.5L313.89,149.33L315.28,148.48L315.92,148.31L317.11,146.96L317.22,146.79L320.45,145.27L320.45,145.1L329.36,141.55L329.36,141.39L335.66,139.7L337.09,139.53L343.03,136.99L343.05,136.82L344.61,135.64L345.05,135.47L348.66,134.29L349.46,134.12L350.06,133.78L350.31,133.61L351.65,133.11L351.93,132.94L355.08,131.75L355.23,131.58L355.68,130.91L356.36,130.74L357.08,130.23L357.58,130.06L361.77,127.87L362.7,127.7L370.5,125.16L371.28,124.99L378.66,121.61L379.52,121.45L380.15,120.6L380.15,120.43L380.15,120.09L381.43,119.92L382.47,119.42L384.33,119.25L384.78,118.74L385.61,118.57L385.62,118.4L386.76,118.23L386.91,118.07L388.48,117.9L393.68,115.7L393.95,115.53L394.64,114.69L394.79,114.52L395.55,113.84L395.87,113.67L399.74,112.15L399.76,111.98L400.71,111.48L401,111.31L401.61,110.63L403.06,110.46L403.84,109.62L404.68,109.45L411.8,106.74L412.51,106.57L416.8,104.72L416.85,104.55L417.66,103.87L418.82,103.7L420.04,103.03L420.86,102.86L427.15,97.62L427.18,97.45L428.02,96.6L428.02,96.44L428.75,95.08L429.02,94.91L434.03,91.03L434.61,90.86L436.25,89.17L436.69,89L438.27,87.82L438.75,87.65L439.82,86.8L440,86.63L441.03,86.3L442.85,86.13L447.16,83.59L447.19,83.42L447.89,81.9L448.04,81.73L449.34,78.35L449.64,78.19L451.21,75.65L451.77,75.48L452.1,74.81L452.97,74.64L454.35,73.12L454.97,72.95L455.61,72.44L455.8,72.27L458.36,70.41L458.89,70.24L460.31,67.37L460.81,67.2L462.76,65.17L463.41,65.01L464.27,63.82L464.47,63.65L466.17,62.47L466.17,62.3L466.91,61.46L467.01,61.29L468.49,59.77L468.5,59.6L469.31,59.09L470.09,58.92L472.26,57.74L472.36,57.57L475.08,54.87L475.1,54.7L476.36,53.35L476.37,53.18L477.09,52.5L477.13,52.33L480.48,48.28L481.11,48.11L481.98,47.09L482.59,46.92L484.45,45.4L484.57,45.23L485.71,44.22L486.01,44.05L487.61,43.54L488.04,43.38L489.32,41.18L490.1,41.01L492.49,39.32L494.18,39.15L494.23,38.98L495.08,38.81L498.42,36.95L498.56,36.78L502.48,34.93L502.58,34.76L503.44,33.74L504.31,33.57L508.21,31.04L508.36,30.87L509.19,30.53L509.81,30.36L516.38,27.32L516.41,27.15L517.51,26.31L519.39,26.14L522.58,23.1L523.53,22.93L523.66,22.59L524.7,22.42L528.74,20.56L528.9,20.39L531.47,18.87L531.51,18.7L540,16" style="fill: rgb(255, 127, 14); fill-opacity: 0.5; stroke-width: 0;"/></g></g><g class="errorbars"/><g class="lines"><path class="js-line" d="M0,319.83L0,319.49L1.98,319.32L3.86,318.31L4.58,318.14L5.18,316.96L5.57,316.79L6.18,315.78L6.48,315.61L8.62,312.06L9.03,311.89L10.19,310.87L10.19,310.71L10.64,310.03L11.08,309.86L12.19,308.85L12.19,308.68L12.9,306.99L12.95,306.82L14.97,304.45L15.95,304.28L17.94,303.27L18.42,303.1L18.82,302.76L21.85,302.59L27.08,300.06L27.19,299.89L27.9,299.55L29.79,299.38L34.02,297.36L34.33,297.19L37.99,294.48L38,294.31L38.3,293.64L38.95,293.47L41.15,291.27L41.15,291.1L41.84,290.43L42.14,290.26L44.42,288.23L45.72,288.06L47.9,286.03L48.05,285.87L48.42,285.19L49.09,285.02L52.45,283.33L53.38,283.16L56.49,281.64L56.5,281.47L58.82,280.12L59.11,279.95L60.44,278.6L62.05,278.43L65.37,275.39L65.47,275.22L65.59,274.88L66.36,274.71L68.98,273.36L69.02,273.19L69.33,272.85L70.09,272.68L71.26,272.35L72.23,272.18L73.07,270.99L73.47,270.83L79.43,268.8L79.55,268.63L81.15,267.62L81.68,267.45L82.48,266.26L82.68,266.09L85.34,264.91L85.58,264.74L85.6,264.4L86.46,264.24L87.18,263.39L87.46,263.22L88.16,262.71L88.51,262.55L88.51,262.21L89.61,262.04L89.63,261.7L90.49,261.53L94.76,260.18L95.25,260.01L96.36,259.34L96.67,259.17L101.29,257.14L101.3,256.97L102.56,255.96L102.56,255.79L103.31,253.42L103.6,253.25L109.91,249.87L110.48,249.7L110.9,249.03L111.32,248.86L113.33,247.84L114.64,247.68L117.71,246.49L118.52,246.32L119.99,245.65L121,245.48L122.88,244.3L122.91,244.13L127.6,241.93L127.8,241.76L128.83,241.09L129.24,240.92L138.07,235.85L138.74,235.68L142.57,232.97L142.57,232.8L144.89,231.45L145.17,231.28L147.8,229.93L147.89,229.76L152.66,228.41L152.7,228.24L154.19,227.4L154.24,227.23L154.94,226.72L155.84,226.55L156.1,226.21L156.63,226.05L161.69,224.52L161.84,224.36L162.67,223.68L162.84,223.51L175.06,218.27L175.22,218.1L175.32,217.77L177.15,217.6L183.01,215.4L183.11,215.23L187.72,213.54L187.88,213.37L188.47,212.7L189.05,212.53L189.35,212.19L190.35,212.02L191.11,211.68L191.3,211.51L192.07,210.84L192.21,210.67L192.55,209.99L193.38,209.82L195.39,208.13L196.24,207.96L198.15,206.61L199.34,206.44L199.42,206.27L200.82,206.11L205.32,204.92L205.57,204.75L209.2,203.57L209.23,203.4L211.5,202.39L213.28,202.22L214.53,201.88L215.38,201.71L219.12,200.19L219.41,200.02L225.34,196.14L225.38,195.97L226.15,195.63L226.31,195.46L229.29,192.59L230.34,192.42L232.65,191.4L232.79,191.24L233.39,190.9L235.54,190.73L241.31,189.04L241.39,188.87L242.3,188.36L242.62,188.19L244.14,187.35L244.32,187.18L245.14,186.33L246.33,186.17L248.03,184.98L248.61,184.81L249.35,183.97L249.78,183.8L250.49,182.95L250.59,182.79L251.48,182.11L251.75,181.94L252.64,181.1L252.65,180.93L255.64,179.24L255.78,179.07L256.82,178.05L257.25,177.89L260.55,176.2L260.56,176.03L271.57,169.27L271.96,169.1L271.98,168.93L272.87,168.76L273.98,167.75L274.53,167.58L275.12,166.73L275.5,166.56L280.98,164.54L284.57,164.37L291.08,162.85L291.09,162.68L294.56,161.16L294.63,160.99L296.96,159.47L297.98,159.3L300,157.95L301.17,157.78L303.87,156.42L303.97,156.26L304.77,155.41L306.03,155.24L308.15,153.21L309.2,153.05L310.1,151.52L310.18,151.36L310.87,150.85L311.21,150.68L313.34,149.5L313.89,149.33L315.28,148.48L315.92,148.31L317.11,146.96L317.22,146.79L320.45,145.27L320.45,145.1L329.36,141.55L329.36,141.39L335.66,139.7L337.09,139.53L343.03,136.99L343.05,136.82L344.61,135.64L345.05,135.47L348.66,134.29L349.46,134.12L350.06,133.78L350.31,133.61L351.65,133.11L351.93,132.94L355.08,131.75L355.23,131.58L355.68,130.91L356.36,130.74L357.08,130.23L357.58,130.06L361.77,127.87L362.7,127.7L370.5,125.16L371.28,124.99L378.66,121.61L379.52,121.45L380.15,120.6L380.15,120.43L380.15,120.09L381.43,119.92L382.47,119.42L384.33,119.25L384.78,118.74L385.61,118.57L385.62,118.4L386.76,118.23L386.91,118.07L388.48,117.9L393.68,115.7L393.95,115.53L394.64,114.69L394.79,114.52L395.55,113.84L395.87,113.67L399.74,112.15L399.76,111.98L400.71,111.48L401,111.31L401.61,110.63L403.06,110.46L403.84,109.62L404.68,109.45L411.8,106.74L412.51,106.57L416.8,104.72L416.85,104.55L417.66,103.87L418.82,103.7L420.04,103.03L420.86,102.86L427.15,97.62L427.18,97.45L428.02,96.6L428.02,96.44L428.75,95.08L429.02,94.91L434.03,91.03L434.61,90.86L436.25,89.17L436.69,89L438.27,87.82L438.75,87.65L439.82,86.8L440,86.63L441.03,86.3L442.85,86.13L447.16,83.59L447.19,83.42L447.89,81.9L448.04,81.73L449.34,78.35L449.64,78.19L451.21,75.65L451.77,75.48L452.1,74.81L452.97,74.64L454.35,73.12L454.97,72.95L455.61,72.44L455.8,72.27L458.36,70.41L458.89,70.24L460.31,67.37L460.81,67.2L462.76,65.17L463.41,65.01L464.27,63.82L464.47,63.65L466.17,62.47L466.17,62.3L466.91,61.46L467.01,61.29L468.49,59.77L468.5,59.6L469.31,59.09L470.09,58.92L472.26,57.74L472.36,57.57L475.08,54.87L475.1,54.7L476.36,53.35L476.37,53.18L477.09,52.5L477.13,52.33L480.48,48.28L481.11,48.11L481.98,47.09L482.59,46.92L484.45,45.4L484.57,45.23L485.71,44.22L486.01,44.05L487.61,43.54L488.04,43.38L489.32,41.18L490.1,41.01L492.49,39.32L494.18,39.15L494.23,38.98L495.08,38.81L498.42,36.95L498.56,36.78L502.48,34.93L502.58,34.76L503.44,33.74L504.31,33.57L508.21,31.04L508.36,30.87L509.19,30.53L509.81,30.36L516.38,27.32L516.41,27.15L517.51,26.31L519.39,26.14L522.58,23.1L523.53,22.93L523.66,22.59L524.7,22.42L528.74,20.56L528.9,20.39L531.47,18.87L531.51,18.7L540,16" style="vector-effect: none; fill: none; stroke: rgb(255, 127, 14); stroke-opacity: 1; stroke-width: 2px; opacity: 1;"/></g><g class="points"/><g class="text"/></g></g></g></g><g class="zerolinelayer-above"/><path class="xlines-above crisp" d="M0,0" style="fill: none;"/><path class="ylines-above crisp" d="M0,0" style="fill: none;"/><g class="overlines-above"/><g class="xaxislayer-above"><g class="xtick"><text text-anchor="middle" x="0" y="439" transform="translate(101.2,0)" style="font-family: 'Open Sans'; font-size: 18px; fill: rgb(255, 255, 255); fill-opacity: 1; white-space: pre;">2016</text></g><g class="xtick"><text text-anchor="middle" x="0" y="439" style="font-family: 'Open Sans'; font-size: 18px; fill: rgb(255, 255, 255); fill-opacity: 1; white-space: pre;" transform="translate(206.38,0)">2018</text></g><g class="xtick"><text text-anchor="middle" x="0" y="439" style="font-family: 'Open Sans'; font-size: 18px; fill: rgb(255, 255, 255); fill-opacity: 1; white-space: pre;" transform="translate(311.40999999999997,0)">2020</text></g><g class="xtick"><text text-anchor="middle" x="0" y="439" style="font-family: 'Open Sans'; font-size: 18px; fill: rgb(255, 255, 255); fill-opacity: 1; white-space: pre;" transform="translate(416.59,0)">2022</text></g><g class="xtick"><text text-anchor="middle" x="0" y="439" style="font-family: 'Open Sans'; font-size: 18px; fill: rgb(255, 255, 255); fill-opacity: 1; white-space: pre;" transform="translate(521.63,0)">2024</text></g></g><g class="yaxislayer-above"><g class="ytick"><text text-anchor="end" x="79" y="6.3" transform="translate(0,420)" style="font-family: 'Open Sans'; font-size: 18px; fill: rgb(255, 255, 255); fill-opacity: 1; white-space: pre;">0</text></g><g class="ytick"><text text-anchor="end" x="79" y="6.3" style="font-family: 'Open Sans'; font-size: 18px; fill: rgb(255, 255, 255); fill-opacity: 1; white-space: pre;" transform="translate(0,335.51)">500</text></g><g class="ytick"><text text-anchor="end" x="79" y="6.3" style="font-family: 'Open Sans'; font-size: 18px; fill: rgb(255, 255, 255); fill-opacity: 1; white-space: pre;" transform="translate(0,251.02)">1000</text></g><g class="ytick"><text text-anchor="end" x="79" y="6.3" style="font-family: 'Open Sans'; font-size: 18px; fill: rgb(255, 255, 255); fill-opacity: 1; white-space: pre;" transform="translate(0,166.53)">1500</text></g></g><g class="overaxes-above"/></g></g><g class="polarlayer"/><g class="smithlayer"/><g class="ternarylayer"/><g class="geolayer"/><g class="funnelarealayer"/><g class="pielayer"/><g class="iciclelayer"/><g class="treemaplayer"/><g class="sunburstlayer"/><g class="glimages"/><defs id="topdefs-050255"><g class="clips"/></defs><g class="layer-above"><g class="imagelayer"/><g class="shapelayer"/></g><g class="infolayer"><g class="g-gtitle"><text class="gtitle" x="35" y="50" text-anchor="start" dy="0em" style="opacity: 1; font-family: 'Open Sans'; font-size: 25px; fill: rgb(255, 255, 255); fill-opacity: 1; white-space: pre;">MultiQC/MultiQC - Issues Created Over Time</text></g><g class="g-xtitle"><text class="xtitle" x="350" y="472.9" text-anchor="middle" style="opacity: 1; font-family: 'Open Sans'; font-size: 22px; fill: rgb(255, 255, 255); fill-opacity: 1; white-space: pre;">Date</text></g><g class="g-ytitle"><text class="ytitle" transform="rotate(-90,20.799999999999997,260)" x="20.799999999999997" y="260" text-anchor="middle" style="opacity: 1; font-family: 'Open Sans'; font-size: 22px; fill: rgb(255, 255, 255); fill-opacity: 1; white-space: pre;">Cumulative Issues Created</text></g></g></svg>