<svg class="main-svg" xmlns="http://www.w3.org/2000/svg" xmlns:xlink="http://www.w3.org/1999/xlink" width="700" height="500" style="" viewBox="0 0 700 500"><rect x="0" y="0" width="700" height="500" style="fill: rgb(0, 0, 0); fill-opacity: 0;"/><defs id="defs-fec29a"><g class="clips"><clipPath id="clipfec29axyplot" class="plotclip"><rect width="540" height="320"/></clipPath><clipPath class="axesclip" id="clipfec29ax"><rect x="80" y="0" width="540" height="500"/></clipPath><clipPath class="axesclip" id="clipfec29ay"><rect x="0" y="100" width="700" height="320"/></clipPath><clipPath class="axesclip" id="clipfec29axy"><rect x="80" y="100" width="540" height="320"/></clipPath></g><g class="gradients"/><g class="patterns"/></defs><g class="bglayer"><rect class="bg" x="80" y="100" width="540" height="320" style="fill: rgb(0, 0, 0); fill-opacity: 0; stroke-width: 0;"/></g><g class="layer-below"><g class="imagelayer"/><g class="shapelayer"/></g><g class="cartesianlayer"><g class="subplot xy"><g class="layer-subplot"><g class="shapelayer"/><g class="imagelayer"/></g><g class="minor-gridlayer"><g class="x"/><g class="y"/></g><g class="gridlayer"><g class="x"><path class="xgrid crisp" transform="translate(101.12,0)" d="M0,100v320" style="stroke: rgb(255, 255, 255); stroke-opacity: 1; stroke-width: 1px;"/><path class="xgrid crisp" transform="translate(205.91,0)" d="M0,100v320" style="stroke: rgb(255, 255, 255); stroke-opacity: 1; stroke-width: 1px;"/><path class="xgrid crisp" transform="translate(310.55,0)" d="M0,100v320" style="stroke: rgb(255, 255, 255); stroke-opacity: 1; stroke-width: 1px;"/><path class="xgrid crisp" transform="translate(415.34,0)" d="M0,100v320" style="stroke: rgb(255, 255, 255); stroke-opacity: 1; stroke-width: 1px;"/><path class="xgrid crisp" transform="translate(519.99,0)" d="M0,100v320" style="stroke: rgb(255, 255, 255); stroke-opacity: 1; stroke-width: 1px;"/></g><g class="y"><path class="ygrid crisp" transform="translate(0,356.13)" d="M80,0h540" style="stroke: rgb(255, 255, 255); stroke-opacity: 1; stroke-width: 1px;"/><path class="ygrid crisp" transform="translate(0,292.27)" d="M80,0h540" style="stroke: rgb(255, 255, 255); stroke-opacity: 1; stroke-width: 1px;"/><path class="ygrid crisp" transform="translate(0,228.4)" d="M80,0h540" style="stroke: rgb(255, 255, 255); stroke-opacity: 1; stroke-width: 1px;"/><path class="ygrid crisp" transform="translate(0,164.54000000000002)" d="M80,0h540" style="stroke: rgb(255, 255, 255); stroke-opacity: 1; stroke-width: 1px;"/></g></g><g class="zerolinelayer"><path class="yzl zl crisp" transform="translate(0,420)" d="M80,0h540" style="stroke: rgb(255, 255, 255); stroke-opacity: 1; stroke-width: 2px;"/></g><g class="layer-between"><g class="shapelayer"/><g class="imagelayer"/></g><path class="xlines-below"/><path class="ylines-below"/><g class="overlines-below"/><g class="xaxislayer-below"/><g class="yaxislayer-below"/><g class="overaxes-below"/><g class="overplot"><g class="xy" transform="translate(80,100)" clip-path="url(#clipfec29axyplot)"><g class="scatterlayer mlayer"><g class="trace scatter traced396a2" style="stroke-miterlimit: 2;"><g class="fills"><g><path class="js-fill" d="M540,320L0,320L0,318.72L0,316.17L0.57,317.45L1.86,318.72L1.97,317.45L3,318.72L3.85,312.34L3.87,313.61L4.56,312.34L4.99,307.23L5.16,308.5L5.54,309.78L5.72,305.95L6.01,311.06L6.15,308.5L6.46,309.78L7.15,298.29L7.27,297.01L7.44,295.73L7.71,298.29L7.71,299.56L7.72,300.84L7.89,290.62L8.59,289.34L8.98,298.29L8.99,299.56L9.72,308.5L9.74,307.23L9.86,305.95L10.15,302.12L10.15,300.84L10.6,298.29L10.63,302.12L11.02,303.39L11.04,302.12L11.61,305.95L11.72,304.67L11.87,303.39L12.86,285.51L12.9,290.62L12.9,291.9L13.02,290.62L13.33,294.45L13.51,291.9L13.75,290.62L14.15,284.24L14.3,288.07L14.72,286.79L14.91,285.51L15.04,288.07L15.75,289.34L15.92,293.18L17.13,291.9L17.74,289.34L17.87,288.07L18.61,282.96L18.61,284.24L18.75,282.96L19.2,284.24L21.77,282.96L21.77,284.24L22.18,280.4L22.18,282.96L23.73,281.68L23.92,282.96L24.08,281.68L24.93,280.4L25.66,277.85L25.77,279.13L26.09,277.85L26.84,286.79L26.91,285.51L27.19,281.68L27.64,284.24L27.66,285.51L27.8,284.24L28.05,285.51L29.24,286.79L30.7,282.96L30.92,284.24L30.96,288.07L30.96,288.07L31.77,286.79L32.25,290.62L32.25,290.62L32.68,289.34L32.87,295.73L33.79,297.01L34.5,294.45L34.5,295.73L34.64,297.01L35.25,294.45L35.54,293.18L36.28,295.73L36.66,294.45L36.66,295.73L36.8,289.34L37.09,290.62L37.79,289.34L38.03,285.51L38.22,293.18L38.73,294.45L38.8,293.18L39.25,297.01L39.31,298.29L39.54,293.18L39.83,294.45L40.13,295.73L41,289.34L41.12,293.18L41.47,291.9L41.68,289.34L41.7,291.9L41.84,293.18L43.26,285.51L43.96,284.24L44.26,282.96L44.87,284.24L45.56,285.51L45.85,284.24L45.87,288.07L46.33,282.96L46.6,284.24L46.67,282.96L46.67,281.68L47.3,291.9L47.7,290.62L47.71,293.18L47.88,289.34L48.3,291.9L48.86,293.18L48.87,297.01L49.17,294.45L49.74,295.73L50.13,294.45L50.13,295.73L50.84,294.45L50.84,295.73L51.03,293.18L51.15,293.18L52,291.9L53.19,289.34L53.75,290.62L53.75,291.9L54.19,288.07L54.34,290.62L54.79,289.34L54.89,288.07L55.21,291.9L56.05,290.62L57.39,285.51L57.9,284.24L59.15,272.74L59.23,275.29L59.32,276.57L59.32,277.85L59.93,275.29L60.1,274.02L60.22,272.74L60.23,274.02L61.82,272.74L62.35,266.35L62.87,267.63L63.36,265.08L63.47,266.35L63.94,265.08L65.34,251.03L65.37,253.58L66.11,252.3L66.78,254.86L66.78,256.13L66.79,262.52L67.09,262.52L67.8,261.24L69.07,257.41L69.83,256.13L70.08,263.8L71,262.52L72.11,275.29L72.26,274.02L72.79,272.74L72.79,271.46L73.19,271.46L73.65,272.74L74.75,268.91L74.75,270.18L75.22,267.63L75.27,268.91L76.14,267.63L76.93,266.35L77.45,265.08L80.81,254.86L80.81,256.13L81.27,259.97L81.4,256.13L81.81,257.41L82.1,258.69L82.17,254.86L82.38,257.41L83.12,258.69L83.45,252.3L83.46,253.58L84.61,252.3L84.82,253.58L85.02,252.3L85.26,251.03L85.28,249.75L86.01,253.58L86.14,252.3L86.28,253.58L86.86,249.75L86.86,251.03L87.01,252.3L87.42,257.41L87.83,256.13L88.18,254.86L88.18,252.3L88.29,256.13L89.27,254.86L89.3,253.58L89.98,256.13L90.15,254.86L90.97,257.41L91.3,256.13L91.89,257.41L91.97,258.69L92.29,263.8L92.84,262.52L93.15,271.46L93.44,268.91L93.92,267.63L94.99,263.8L95.13,265.08L95.13,266.35L97.01,258.69L97.03,259.97L99.16,252.3L99.3,253.58L99.3,254.86L100.2,257.41L100.31,258.69L101.18,270.18L101.49,268.91L101.9,271.46L101.9,270.18L102,268.91L102.04,271.46L102.47,258.69L102.48,258.69L102.9,257.41L103.22,254.86L103.49,261.24L103.89,259.97L104.9,257.41L104.9,258.69L104.9,259.97L105.03,262.52L105.47,261.24L105.97,259.97L106.32,263.8L106.46,261.24L106.87,259.97L106.89,261.24L107.46,258.69L107.48,259.97L108.08,258.69L108.19,257.41L108.19,258.69L108.88,259.97L109.23,261.24L109.5,259.97L110.07,258.69L110.31,254.86L110.49,254.86L110.91,253.58L112.29,247.19L112.33,248.47L112.41,249.75L114.5,245.92L115.07,247.19L116.49,243.36L116.97,244.64L117.27,243.36L118.12,274.02L118.23,272.74L118.85,270.18L119.13,271.46L119.55,270.18L119.55,271.46L120.55,270.18L120.95,271.46L121.26,270.18L121.28,268.91L121.97,267.63L122.22,268.91L122.23,271.46L122.46,266.35L122.98,265.08L122.98,266.35L123.41,263.8L123.47,263.8L124.04,262.52L124.04,261.24L124.54,267.63L126.3,266.35L126.52,267.63L126.58,266.35L127.11,265.08L127.55,259.97L128.35,258.69L130.07,253.58L130.45,254.86L130.93,252.3L131.01,253.58L131.01,254.86L131.16,261.24L131.53,258.69L132.08,257.41L132.6,254.86L132.84,256.13L133.46,261.24L134.18,259.97L135.18,254.86L135.56,256.13L136.26,254.86L137.34,253.58L138.5,249.75L139.32,251.03L140.07,249.75L140.14,251.03L140.66,249.75L141.03,248.47L141.04,251.03L141.58,245.92L141.58,245.92L142.03,244.64L142.04,242.08L142.61,243.36L142.97,242.08L143.48,239.53L143.51,238.25L143.59,236.97L143.64,240.81L144.19,239.53L144.22,240.81L144.63,238.25L145.27,239.53L145.67,235.7L145.93,244.64L145.93,245.92L145.93,247.19L146.6,243.36L146.67,243.36L147.07,244.64L147.34,243.36L147.36,245.92L148.55,244.64L149.22,243.36L149.33,245.92L150.16,244.64L150.18,245.92L150.84,242.08L150.9,243.36L151.47,244.64L152.09,243.36L152.09,244.64L152.13,243.36L153.23,242.08L153.24,243.36L153.42,239.53L153.7,239.53L154.21,238.25L155.51,233.14L156.05,234.42L156.05,233.14L156.72,239.53L157.09,238.25L158.31,236.97L158.65,238.25L161.09,231.87L161.24,233.14L161.76,228.03L162.06,226.76L163.39,219.09L164.13,217.82L164.13,219.09L164.53,217.82L165.63,216.54L165.69,215.26L166.15,220.37L166.59,219.09L167.66,216.54L167.66,215.26L167.69,213.98L167.9,222.92L169.19,221.65L169.44,219.09L170.56,217.82L171.3,222.92L171.66,221.65L174.6,211.43L174.67,210.15L174.72,211.43L176.49,210.15L176.74,215.26L176.75,216.54L176.75,220.37L177.17,217.82L179.16,216.54L179.18,219.09L179.33,217.82L180.09,216.54L180.61,211.43L180.62,212.71L181.15,213.98L181.51,215.26L182.43,210.15L182.49,211.43L182.63,212.71L183.48,211.43L183.49,212.71L186.65,207.6L186.75,206.32L187.33,202.49L187.34,203.76L187.77,202.49L187.79,205.04L188.47,203.76L188.65,202.49L189.35,203.76L189.65,202.49L189.65,201.21L190.4,201.21L190.58,199.93L191.36,197.38L191.5,196.1L191.68,197.38L191.83,194.82L191.84,196.1L192.66,194.82L194.05,185.88L194.05,188.44L194.32,187.16L194.66,184.61L194.98,185.88L195.51,184.61L195.72,182.05L196.18,184.61L196.46,183.33L196.84,180.77L197.41,179.5L198.59,178.22L198.59,179.5L198.68,178.22L198.71,179.5L200.08,178.22L200.82,179.5L201.57,178.22L201.8,176.94L201.8,178.22L203.68,176.94L204.4,175.66L204.41,176.94L204.41,178.22L204.8,176.94L205.65,178.22L205.65,179.5L206.36,179.5L206.54,178.22L207.53,175.66L208.26,174.39L208.92,170.55L209.3,171.83L210.71,166.72L211.04,168L212.49,166.72L212.72,165.45L213.73,164.17L213.85,165.45L214.58,164.17L216.41,160.34L216.71,161.61L217.08,157.78L217.83,156.5L218.27,159.06L218.31,157.78L218.59,156.5L219.35,153.95L219.56,155.23L219.6,156.5L219.62,160.34L220.35,157.78L220.37,156.5L220.81,155.23L221.31,162.89L221.33,161.61L222.09,159.06L222.22,160.34L222.59,157.78L222.94,161.61L223.3,162.89L223.33,161.61L223.74,175.66L223.81,173.11L223.89,174.39L224.71,189.71L225.3,188.44L225.47,189.71L225.9,184.61L225.9,185.88L226.07,187.16L226.35,188.44L226.51,185.88L226.63,184.61L227.61,179.5L227.91,178.22L228.4,174.39L228.44,173.11L228.55,178.22L229.48,176.94L231.52,174.39L231.55,173.11L232.15,166.72L232.52,165.45L232.98,166.72L234.66,165.45L235.83,162.89L235.91,161.61L236.78,160.34L237.2,161.61L237.94,159.06L239.82,157.78L240.42,155.23L240.49,153.95L240.65,151.39L241.4,150.12L241.53,151.39L241.71,150.12L242.89,148.84L243.21,145.01L243.23,152.67L243.23,153.95L243.23,155.23L243.79,150.12L244.23,148.84L244.44,150.12L245.42,148.84L245.57,150.12L245.81,148.84L246.41,150.12L246.49,148.84L246.67,153.95L247.11,151.39L247.38,152.67L247.69,151.39L247.71,153.95L247.81,153.95L247.82,155.23L248.85,151.39L249.3,150.12L249.72,147.56L249.85,153.95L250.23,152.67L250.55,151.39L250.7,152.67L250.73,153.95L250.81,152.67L251.13,155.23L251.45,156.5L251.54,153.95L251.58,166.72L251.58,168L251.7,165.45L252.55,187.16L252.71,185.88L252.84,187.16L253.4,185.88L253.61,184.61L254.45,180.77L254.54,182.05L255.87,173.11L256.01,174.39L256.3,173.11L257.55,169.28L257.55,170.55L257.7,171.83L258.3,168L258.61,166.72L258.81,165.45L259.47,166.72L260.1,160.34L260.57,159.06L261.05,153.95L261.07,155.23L261.61,156.5L262.44,151.39L262.63,150.12L263.91,142.45L264.35,141.18L264.55,139.9L265.61,138.62L267.05,130.96L267.48,129.68L268.48,125.85L268.52,127.13L269.89,120.74L270.56,119.46L272.58,113.08L272.58,114.35L275.62,97.75L275.84,99.03L275.85,101.58L276.79,100.3L276.79,101.58L277.52,97.75L278.16,96.47L278.45,97.75L279.64,96.47L279.93,92.64L282.42,93.92L282.59,123.29L283.51,122.02L284.71,123.29L284.86,122.02L284.87,120.74L284.95,124.57L285.13,122.02L285.74,123.29L288.69,122.02L289.43,120.74L290,116.91L290.01,115.63L290.13,118.18L290.66,116.91L290.78,115.63L290.83,116.91L291.78,115.63L292.98,122.02L293.1,120.74L293.32,122.02L294.01,116.91L294.68,115.63L294.72,116.91L295.25,111.8L295.62,113.08L295.91,127.13L296.87,125.85L297.04,127.13L297.56,124.57L297.57,125.85L297.57,127.13L298.6,124.57L298.77,125.85L298.88,123.29L299.34,124.57L299.72,125.85L300.19,127.13L300.71,125.85L302.2,120.74L302.51,119.46L302.84,122.02L303,116.91L303.12,118.18L303.17,116.91L303.73,118.18L304.89,116.91L304.91,118.18L305.46,115.63L305.82,114.35L306.14,109.24L306.41,110.52L306.8,111.8L306.81,116.91L307,114.35L308.05,113.08L308.79,124.57L308.79,123.29L308.89,122.02L308.92,120.74L309.24,132.24L309.39,132.24L309.49,133.51L309.54,142.45L310.05,141.18L310.25,139.9L310.6,141.18L310.63,139.9L310.93,138.62L311.6,136.07L312.18,134.79L312.89,133.51L312.97,132.24L313.03,130.96L313.87,129.68L314.1,130.96L314.1,129.68L314.74,128.4L315.06,132.24L315.17,128.4L315.64,127.13L316.04,123.29L316.68,122.02L316.89,120.74L318.23,119.46L318.91,115.63L318.97,114.35L320.2,106.69L321.2,105.41L323.95,96.47L325.07,95.19L325.86,92.64L326.69,91.36L326.83,88.81L327.59,90.08L327.95,109.24L328.15,107.97L328.44,109.24L328.72,107.97L328.74,110.52L329.09,109.24L329.74,110.52L330.26,109.24L331,110.52L332.15,106.69L333.11,105.41L334.41,104.13L334.76,105.41L334.81,106.69L335.83,105.41L336.36,102.86L336.83,104.13L337.01,102.86L337.44,104.13L337.47,105.41L337.47,106.69L338.16,104.13L338.85,105.41L339.85,141.18L340.14,139.9L340.3,136.07L340.76,141.18L340.92,142.45L342.38,130.96L342.73,129.68L342.86,132.24L343.33,130.96L343.77,129.68L344.77,132.24L345.16,130.96L345.93,129.68L346.04,130.96L347.01,128.4L347.36,127.13L347.78,128.4L348.16,127.13L348.76,125.85L349.01,124.57L349.22,122.02L350.34,120.74L350.62,119.46L351.73,118.18L353.35,113.08L353.35,114.35L353.38,115.63L354.35,110.52L354.89,111.8L355.75,106.69L355.75,107.97L356.25,106.69L356.3,107.97L356.93,105.41L356.93,104.13L357.04,101.58L358.36,100.3L359.22,97.75L359.25,96.47L360.09,93.92L360.42,92.64L361.37,97.75L361.76,96.47L361.94,95.19L363.48,92.64L363.69,93.92L364.81,91.36L365.38,90.08L366.95,84.97L367.57,83.7L367.94,82.42L368.16,83.7L368.22,84.97L368.23,83.7L369.13,82.42L370.26,79.87L370.37,78.59L371.37,77.31L371.39,78.59L371.46,96.47L372.11,92.64L372.38,93.92L373.01,91.36L373.25,90.08L374.01,91.36L374.93,90.08L375.56,86.25L375.67,87.53L375.96,86.25L377.25,83.7L378.1,82.42L378.73,79.87L378.73,78.59L378.73,72.2L380.01,70.92L381.05,67.09L382.57,68.37L382.57,70.92L382.99,67.09L382.99,68.37L383.35,67.09L383.85,68.37L384.17,67.09L384.18,65.82L384.44,67.09L385.32,65.82L385.47,64.54L385.47,65.82L386.8,67.09L387.44,65.82L387.5,67.09L387.67,68.37L387.67,69.65L388.29,69.65L388.6,70.92L388.81,84.97L389.8,86.25L390.82,83.7L391.35,82.42L391.48,79.87L391.52,83.7L391.94,84.97L393.16,76.03L393.17,77.31L393.17,76.03L393.2,82.42L393.51,79.87L394.08,78.59L395.4,74.76L396.53,73.48L397.25,69.65L397.97,68.37L398.34,64.54L398.82,67.09L399.08,65.82L400.11,59.43L400.11,60.71L401.56,59.43L402.34,53.04L402.35,54.32L402.35,55.6L403.17,54.32L403.51,55.6L403.55,54.32L404.06,53.04L404.62,50.49L405.27,51.76L406.23,47.93L406.87,46.66L407.49,44.1L407.72,45.38L407.86,46.66L408.17,47.93L408.38,46.66L409.57,47.93L411.98,38.99L412.26,37.71L413.26,36.44L413.99,37.71L415.09,33.88L415.17,32.61L415.24,33.88L415.41,28.77L416.03,30.05L416.11,27.5L417.27,26.22L417.43,23.66L417.62,26.22L417.88,27.5L418.28,26.22L418.45,27.5L418.48,28.77L418.75,31.33L419.29,30.05L420.34,22.39L420.38,26.22L421.05,24.94L421.13,23.66L421.34,26.22L421.58,26.22L421.74,27.5L422.54,22.39L422.87,23.66L423.01,27.5L423.51,22.39L423.84,21.11L424.43,18.55L424.43,19.83L424.5,21.11L425.05,16L425.15,18.55L425.42,19.83L425.59,17.28L425.73,28.77L425.73,30.05L426.13,36.44L426.43,24.94L426.5,26.22L427.13,33.88L427.16,30.05L427.28,31.33L428.98,22.39L429.04,23.66L429.18,36.44L429.58,31.33L429.87,30.05L429.91,32.61L430.44,30.05L431.03,28.77L431.68,32.61L431.96,31.33L432.19,30.05L432.34,32.61L432.42,31.33L433,30.05L433.65,40.27L433.67,38.99L434.06,37.71L434.13,36.44L434.46,40.27L434.73,38.99L435.07,37.71L435.49,33.88L435.67,36.44L436.21,35.16L436.64,31.33L437.04,32.61L437.04,33.88L437.62,51.76L437.9,53.04L438.54,49.21L439.39,47.93L439.52,51.76L440.52,53.04L441.62,50.49L441.66,49.21L441.82,50.49L442.2,49.21L442.67,47.93L443.13,45.38L443.25,49.21L443.39,47.93L443.63,46.66L444.28,44.1L444.64,45.38L445.27,51.76L445.49,49.21L445.52,47.93L446.23,51.76L446.38,50.49L446.77,41.55L447.15,49.21L447.25,47.93L447.53,44.1L447.65,51.76L447.65,53.04L448.25,44.1L448.37,46.66L448.51,45.38L448.86,41.55L449.09,42.82L449.28,44.1L449.53,41.55L449.7,50.49L449.7,51.76L449.99,69.65L450.42,64.54L450.51,65.82L450.52,67.09L451.29,65.82L451.52,63.26L451.58,73.48L451.7,72.2L452,70.92L452.1,72.2L452.51,70.92L452.56,72.2L452.66,69.65L453.28,68.37L453.92,64.54L454.1,63.26L454.85,56.87L455.11,59.43L455.14,60.71L455.3,59.43L455.67,65.82L456.26,64.54L456.39,65.82L456.65,63.26L456.83,64.54L457.17,65.82L457.83,55.6L458.14,54.32L458.16,53.04L458.24,56.87L458.6,54.32L459.1,53.04L459.11,54.32L459.7,44.1L459.74,46.66L460.54,45.38L461.04,41.55L461.6,42.82L461.73,40.27L462.02,46.66L462.4,45.38L462.42,44.1L462.74,42.82L463,45.38L463.3,44.1L463.48,46.66L463.85,44.1L464.19,45.38L464.73,38.99L465.09,41.55L465.14,42.82L465.27,41.55L465.3,45.38L465.74,42.82L466.18,41.55L466.19,40.27L466.74,51.76L466.76,49.21L466.9,47.93L468.15,51.76L468.34,50.49L468.6,53.04L469.06,51.76L469.31,50.49L470.32,55.6L470.46,53.04L470.5,51.76L470.61,49.21L471.16,53.04L471.17,53.04L471.52,51.76L471.77,47.93L472.16,51.76L472.2,53.04L472.51,51.76L473.36,72.2L473.63,70.92L475.35,55.6L475.45,56.87L475.52,54.32L475.63,65.82L475.92,64.54L475.92,65.82L476.48,64.54L476.5,65.82L476.77,67.09L477.17,74.76L477.46,72.2L477.61,70.92L477.73,65.82L478.35,67.09L478.37,65.82L478.59,63.26L478.62,68.37L478.79,67.09L479.26,68.37L479.54,69.65L480.18,64.54L480.49,65.82L480.51,69.65L481.2,67.09L481.33,68.37L481.78,65.82L482.5,64.54L482.76,59.43L483.08,64.54L483.39,63.26L484.51,53.04L485.29,54.32L485.81,67.09L486.23,65.82L486.32,68.37L486.67,60.71L486.84,61.98L487.1,60.71L487.58,68.37L488.28,67.09L488.47,65.82L488.8,68.37L488.81,69.65L489.46,67.09L489.71,81.14L489.8,79.87L489.81,77.31L490.37,84.97L490.66,83.7L490.87,84.97L492.34,83.7L492.94,84.97L493.24,83.7L493.7,84.97L493.71,83.7L494.26,82.42L494.26,81.14L494.53,84.97L494.61,83.7L495.24,82.42L495.46,83.7L495.79,82.42L496.19,81.14L496.27,78.59L496.41,82.42L496.7,81.14L497.23,79.87L497.31,78.59L497.74,83.7L497.75,84.97L498.85,81.14L499.25,82.42L499.5,79.87L499.81,81.14L499.81,82.42L500.41,84.97L500.59,83.7L501.39,76.03L501.41,78.59L501.42,79.87L501.42,81.14L501.57,78.59L502.43,79.87L502.43,78.59L502.71,78.59L503.88,77.31L504.44,73.48L504.57,74.76L504.69,76.03L505.88,68.37L506.28,69.65L506.29,70.92L506.59,65.82L506.75,67.09L507.3,65.82L507.87,68.37L507.89,69.65L508.37,68.37L508.43,69.65L508.73,68.37L508.73,67.09L509.45,69.65L509.64,68.37L509.74,67.09L510.66,65.82L511.29,67.09L511.73,65.82L512.49,60.71L512.72,59.43L512.75,60.71L512.9,59.43L513.63,58.15L513.89,60.71L514.35,59.43L514.46,60.71L514.88,55.6L515.03,58.15L515.32,59.43L515.58,55.6L517.38,56.87L517.71,53.04L518.35,54.32L518.61,67.09L519.06,63.26L519.19,64.54L519.32,67.09L519.91,65.82L520.31,64.54L520.63,60.71L521.59,59.43L521.71,56.87L522.75,55.6L523.42,53.04L523.52,51.76L523.65,49.21L525.09,50.49L525.51,69.65L525.8,67.09L525.89,65.82L525.94,68.37L526.69,67.09L527.64,63.26L527.64,64.54L528.37,70.92L528.42,69.65L528.86,68.37L529.5,63.26L529.53,64.54L529.98,63.26L532.49,58.15L532.82,56.87L533.46,54.32L533.93,53.04L534.9,50.49L534.96,49.21L535.16,50.49L535.81,49.21L536.48,46.66L537.99,45.38L539.23,42.82L539.57,41.55L539.85,37.71L540,38.99" style="fill: rgb(255, 127, 14); fill-opacity: 0.5; stroke-width: 0;"/></g></g><g class="errorbars"/><g class="lines"><path class="js-line" d="M0,318.72L0,316.17L0.57,317.45L1.86,318.72L1.97,317.45L3,318.72L3.85,312.34L3.87,313.61L4.56,312.34L4.99,307.23L5.16,308.5L5.54,309.78L5.72,305.95L6.01,311.06L6.15,308.5L6.46,309.78L7.15,298.29L7.27,297.01L7.44,295.73L7.71,298.29L7.71,299.56L7.72,300.84L7.89,290.62L8.59,289.34L8.98,298.29L8.99,299.56L9.72,308.5L9.74,307.23L9.86,305.95L10.15,302.12L10.15,300.84L10.6,298.29L10.63,302.12L11.02,303.39L11.04,302.12L11.61,305.95L11.72,304.67L11.87,303.39L12.86,285.51L12.9,290.62L12.9,291.9L13.02,290.62L13.33,294.45L13.51,291.9L13.75,290.62L14.15,284.24L14.3,288.07L14.72,286.79L14.91,285.51L15.04,288.07L15.75,289.34L15.92,293.18L17.13,291.9L17.74,289.34L17.87,288.07L18.61,282.96L18.61,284.24L18.75,282.96L19.2,284.24L21.77,282.96L21.77,284.24L22.18,280.4L22.18,282.96L23.73,281.68L23.92,282.96L24.08,281.68L24.93,280.4L25.66,277.85L25.77,279.13L26.09,277.85L26.84,286.79L26.91,285.51L27.19,281.68L27.64,284.24L27.66,285.51L27.8,284.24L28.05,285.51L29.24,286.79L30.7,282.96L30.92,284.24L30.96,288.07L30.96,288.07L31.77,286.79L32.25,290.62L32.25,290.62L32.68,289.34L32.87,295.73L33.79,297.01L34.5,294.45L34.5,295.73L34.64,297.01L35.25,294.45L35.54,293.18L36.28,295.73L36.66,294.45L36.66,295.73L36.8,289.34L37.09,290.62L37.79,289.34L38.03,285.51L38.22,293.18L38.73,294.45L38.8,293.18L39.25,297.01L39.31,298.29L39.54,293.18L39.83,294.45L40.13,295.73L41,289.34L41.12,293.18L41.47,291.9L41.68,289.34L41.7,291.9L41.84,293.18L43.26,285.51L43.96,284.24L44.26,282.96L44.87,284.24L45.56,285.51L45.85,284.24L45.87,288.07L46.33,282.96L46.6,284.24L46.67,282.96L46.67,281.68L47.3,291.9L47.7,290.62L47.71,293.18L47.88,289.34L48.3,291.9L48.86,293.18L48.87,297.01L49.17,294.45L49.74,295.73L50.13,294.45L50.13,295.73L50.84,294.45L50.84,295.73L51.03,293.18L51.15,293.18L52,291.9L53.19,289.34L53.75,290.62L53.75,291.9L54.19,288.07L54.34,290.62L54.79,289.34L54.89,288.07L55.21,291.9L56.05,290.62L57.39,285.51L57.9,284.24L59.15,272.74L59.23,275.29L59.32,276.57L59.32,277.85L59.93,275.29L60.1,274.02L60.22,272.74L60.23,274.02L61.82,272.74L62.35,266.35L62.87,267.63L63.36,265.08L63.47,266.35L63.94,265.08L65.34,251.03L65.37,253.58L66.11,252.3L66.78,254.86L66.78,256.13L66.79,262.52L67.09,262.52L67.8,261.24L69.07,257.41L69.83,256.13L70.08,263.8L71,262.52L72.11,275.29L72.26,274.02L72.79,272.74L72.79,271.46L73.19,271.46L73.65,272.74L74.75,268.91L74.75,270.18L75.22,267.63L75.27,268.91L76.14,267.63L76.93,266.35L77.45,265.08L80.81,254.86L80.81,256.13L81.27,259.97L81.4,256.13L81.81,257.41L82.1,258.69L82.17,254.86L82.38,257.41L83.12,258.69L83.45,252.3L83.46,253.58L84.61,252.3L84.82,253.58L85.02,252.3L85.26,251.03L85.28,249.75L86.01,253.58L86.14,252.3L86.28,253.58L86.86,249.75L86.86,251.03L87.01,252.3L87.42,257.41L87.83,256.13L88.18,254.86L88.18,252.3L88.29,256.13L89.27,254.86L89.3,253.58L89.98,256.13L90.15,254.86L90.97,257.41L91.3,256.13L91.89,257.41L91.97,258.69L92.29,263.8L92.84,262.52L93.15,271.46L93.44,268.91L93.92,267.63L94.99,263.8L95.13,265.08L95.13,266.35L97.01,258.69L97.03,259.97L99.16,252.3L99.3,253.58L99.3,254.86L100.2,257.41L100.31,258.69L101.18,270.18L101.49,268.91L101.9,271.46L101.9,270.18L102,268.91L102.04,271.46L102.47,258.69L102.48,258.69L102.9,257.41L103.22,254.86L103.49,261.24L103.89,259.97L104.9,257.41L104.9,258.69L104.9,259.97L105.03,262.52L105.47,261.24L105.97,259.97L106.32,263.8L106.46,261.24L106.87,259.97L106.89,261.24L107.46,258.69L107.48,259.97L108.08,258.69L108.19,257.41L108.19,258.69L108.88,259.97L109.23,261.24L109.5,259.97L110.07,258.69L110.31,254.86L110.49,254.86L110.91,253.58L112.29,247.19L112.33,248.47L112.41,249.75L114.5,245.92L115.07,247.19L116.49,243.36L116.97,244.64L117.27,243.36L118.12,274.02L118.23,272.74L118.85,270.18L119.13,271.46L119.55,270.18L119.55,271.46L120.55,270.18L120.95,271.46L121.26,270.18L121.28,268.91L121.97,267.63L122.22,268.91L122.23,271.46L122.46,266.35L122.98,265.08L122.98,266.35L123.41,263.8L123.47,263.8L124.04,262.52L124.04,261.24L124.54,267.63L126.3,266.35L126.52,267.63L126.58,266.35L127.11,265.08L127.55,259.97L128.35,258.69L130.07,253.58L130.45,254.86L130.93,252.3L131.01,253.58L131.01,254.86L131.16,261.24L131.53,258.69L132.08,257.41L132.6,254.86L132.84,256.13L133.46,261.24L134.18,259.97L135.18,254.86L135.56,256.13L136.26,254.86L137.34,253.58L138.5,249.75L139.32,251.03L140.07,249.75L140.14,251.03L140.66,249.75L141.03,248.47L141.04,251.03L141.58,245.92L141.58,245.92L142.03,244.64L142.04,242.08L142.61,243.36L142.97,242.08L143.48,239.53L143.51,238.25L143.59,236.97L143.64,240.81L144.19,239.53L144.22,240.81L144.63,238.25L145.27,239.53L145.67,235.7L145.93,244.64L145.93,245.92L145.93,247.19L146.6,243.36L146.67,243.36L147.07,244.64L147.34,243.36L147.36,245.92L148.55,244.64L149.22,243.36L149.33,245.92L150.16,244.64L150.18,245.92L150.84,242.08L150.9,243.36L151.47,244.64L152.09,243.36L152.09,244.64L152.13,243.36L153.23,242.08L153.24,243.36L153.42,239.53L153.7,239.53L154.21,238.25L155.51,233.14L156.05,234.42L156.05,233.14L156.72,239.53L157.09,238.25L158.31,236.97L158.65,238.25L161.09,231.87L161.24,233.14L161.76,228.03L162.06,226.76L163.39,219.09L164.13,217.82L164.13,219.09L164.53,217.82L165.63,216.54L165.69,215.26L166.15,220.37L166.59,219.09L167.66,216.54L167.66,215.26L167.69,213.98L167.9,222.92L169.19,221.65L169.44,219.09L170.56,217.82L171.3,222.92L171.66,221.65L174.6,211.43L174.67,210.15L174.72,211.43L176.49,210.15L176.74,215.26L176.75,216.54L176.75,220.37L177.17,217.82L179.16,216.54L179.18,219.09L179.33,217.82L180.09,216.54L180.61,211.43L180.62,212.71L181.15,213.98L181.51,215.26L182.43,210.15L182.49,211.43L182.63,212.71L183.48,211.43L183.49,212.71L186.65,207.6L186.75,206.32L187.33,202.49L187.34,203.76L187.77,202.49L187.79,205.04L188.47,203.76L188.65,202.49L189.35,203.76L189.65,202.49L189.65,201.21L190.4,201.21L190.58,199.93L191.36,197.38L191.5,196.1L191.68,197.38L191.83,194.82L191.84,196.1L192.66,194.82L194.05,185.88L194.05,188.44L194.32,187.16L194.66,184.61L194.98,185.88L195.51,184.61L195.72,182.05L196.18,184.61L196.46,183.33L196.84,180.77L197.41,179.5L198.59,178.22L198.59,179.5L198.68,178.22L198.71,179.5L200.08,178.22L200.82,179.5L201.57,178.22L201.8,176.94L201.8,178.22L203.68,176.94L204.4,175.66L204.41,176.94L204.41,178.22L204.8,176.94L205.65,178.22L205.65,179.5L206.36,179.5L206.54,178.22L207.53,175.66L208.26,174.39L208.92,170.55L209.3,171.83L210.71,166.72L211.04,168L212.49,166.72L212.72,165.45L213.73,164.17L213.85,165.45L214.58,164.17L216.41,160.34L216.71,161.61L217.08,157.78L217.83,156.5L218.27,159.06L218.31,157.78L218.59,156.5L219.35,153.95L219.56,155.23L219.6,156.5L219.62,160.34L220.35,157.78L220.37,156.5L220.81,155.23L221.31,162.89L221.33,161.61L222.09,159.06L222.22,160.34L222.59,157.78L222.94,161.61L223.3,162.89L223.33,161.61L223.74,175.66L223.81,173.11L223.89,174.39L224.71,189.71L225.3,188.44L225.47,189.71L225.9,184.61L225.9,185.88L226.07,187.16L226.35,188.44L226.51,185.88L226.63,184.61L227.61,179.5L227.91,178.22L228.4,174.39L228.44,173.11L228.55,178.22L229.48,176.94L231.52,174.39L231.55,173.11L232.15,166.72L232.52,165.45L232.98,166.72L234.66,165.45L235.83,162.89L235.91,161.61L236.78,160.34L237.2,161.61L237.94,159.06L239.82,157.78L240.42,155.23L240.49,153.95L240.65,151.39L241.4,150.12L241.53,151.39L241.71,150.12L242.89,148.84L243.21,145.01L243.23,152.67L243.23,153.95L243.23,155.23L243.79,150.12L244.23,148.84L244.44,150.12L245.42,148.84L245.57,150.12L245.81,148.84L246.41,150.12L246.49,148.84L246.67,153.95L247.11,151.39L247.38,152.67L247.69,151.39L247.71,153.95L247.81,153.95L247.82,155.23L248.85,151.39L249.3,150.12L249.72,147.56L249.85,153.95L250.23,152.67L250.55,151.39L250.7,152.67L250.73,153.95L250.81,152.67L251.13,155.23L251.45,156.5L251.54,153.95L251.58,166.72L251.58,168L251.7,165.45L252.55,187.16L252.71,185.88L252.84,187.16L253.4,185.88L253.61,184.61L254.45,180.77L254.54,182.05L255.87,173.11L256.01,174.39L256.3,173.11L257.55,169.28L257.55,170.55L257.7,171.83L258.3,168L258.61,166.72L258.81,165.45L259.47,166.72L260.1,160.34L260.57,159.06L261.05,153.95L261.07,155.23L261.61,156.5L262.44,151.39L262.63,150.12L263.91,142.45L264.35,141.18L264.55,139.9L265.61,138.62L267.05,130.96L267.48,129.68L268.48,125.85L268.52,127.13L269.89,120.74L270.56,119.46L272.58,113.08L272.58,114.35L275.62,97.75L275.84,99.03L275.85,101.58L276.79,100.3L276.79,101.58L277.52,97.75L278.16,96.47L278.45,97.75L279.64,96.47L279.93,92.64L282.42,93.92L282.59,123.29L283.51,122.02L284.71,123.29L284.86,122.02L284.87,120.74L284.95,124.57L285.13,122.02L285.74,123.29L288.69,122.02L289.43,120.74L290,116.91L290.01,115.63L290.13,118.18L290.66,116.91L290.78,115.63L290.83,116.91L291.78,115.63L292.98,122.02L293.1,120.74L293.32,122.02L294.01,116.91L294.68,115.63L294.72,116.91L295.25,111.8L295.62,113.08L295.91,127.13L296.87,125.85L297.04,127.13L297.56,124.57L297.57,125.85L297.57,127.13L298.6,124.57L298.77,125.85L298.88,123.29L299.34,124.57L299.72,125.85L300.19,127.13L300.71,125.85L302.2,120.74L302.51,119.46L302.84,122.02L303,116.91L303.12,118.18L303.17,116.91L303.73,118.18L304.89,116.91L304.91,118.18L305.46,115.63L305.82,114.35L306.14,109.24L306.41,110.52L306.8,111.8L306.81,116.91L307,114.35L308.05,113.08L308.79,124.57L308.79,123.29L308.89,122.02L308.92,120.74L309.24,132.24L309.39,132.24L309.49,133.51L309.54,142.45L310.05,141.18L310.25,139.9L310.6,141.18L310.63,139.9L310.93,138.62L311.6,136.07L312.18,134.79L312.89,133.51L312.97,132.24L313.03,130.96L313.87,129.68L314.1,130.96L314.1,129.68L314.74,128.4L315.06,132.24L315.17,128.4L315.64,127.13L316.04,123.29L316.68,122.02L316.89,120.74L318.23,119.46L318.91,115.63L318.97,114.35L320.2,106.69L321.2,105.41L323.95,96.47L325.07,95.19L325.86,92.64L326.69,91.36L326.83,88.81L327.59,90.08L327.95,109.24L328.15,107.97L328.44,109.24L328.72,107.97L328.74,110.52L329.09,109.24L329.74,110.52L330.26,109.24L331,110.52L332.15,106.69L333.11,105.41L334.41,104.13L334.76,105.41L334.81,106.69L335.83,105.41L336.36,102.86L336.83,104.13L337.01,102.86L337.44,104.13L337.47,105.41L337.47,106.69L338.16,104.13L338.85,105.41L339.85,141.18L340.14,139.9L340.3,136.07L340.76,141.18L340.92,142.45L342.38,130.96L342.73,129.68L342.86,132.24L343.33,130.96L343.77,129.68L344.77,132.24L345.16,130.96L345.93,129.68L346.04,130.96L347.01,128.4L347.36,127.13L347.78,128.4L348.16,127.13L348.76,125.85L349.01,124.57L349.22,122.02L350.34,120.74L350.62,119.46L351.73,118.18L353.35,113.08L353.35,114.35L353.38,115.63L354.35,110.52L354.89,111.8L355.75,106.69L355.75,107.97L356.25,106.69L356.3,107.97L356.93,105.41L356.93,104.13L357.04,101.58L358.36,100.3L359.22,97.75L359.25,96.47L360.09,93.92L360.42,92.64L361.37,97.75L361.76,96.47L361.94,95.19L363.48,92.64L363.69,93.92L364.81,91.36L365.38,90.08L366.95,84.97L367.57,83.7L367.94,82.42L368.16,83.7L368.22,84.97L368.23,83.7L369.13,82.42L370.26,79.87L370.37,78.59L371.37,77.31L371.39,78.59L371.46,96.47L372.11,92.64L372.38,93.92L373.01,91.36L373.25,90.08L374.01,91.36L374.93,90.08L375.56,86.25L375.67,87.53L375.96,86.25L377.25,83.7L378.1,82.42L378.73,79.87L378.73,78.59L378.73,72.2L380.01,70.92L381.05,67.09L382.57,68.37L382.57,70.92L382.99,67.09L382.99,68.37L383.35,67.09L383.85,68.37L384.17,67.09L384.18,65.82L384.44,67.09L385.32,65.82L385.47,64.54L385.47,65.82L386.8,67.09L387.44,65.82L387.5,67.09L387.67,68.37L387.67,69.65L388.29,69.65L388.6,70.92L388.81,84.97L389.8,86.25L390.82,83.7L391.35,82.42L391.48,79.87L391.52,83.7L391.94,84.97L393.16,76.03L393.17,77.31L393.17,76.03L393.2,82.42L393.51,79.87L394.08,78.59L395.4,74.76L396.53,73.48L397.25,69.65L397.97,68.37L398.34,64.54L398.82,67.09L399.08,65.82L400.11,59.43L400.11,60.71L401.56,59.43L402.34,53.04L402.35,54.32L402.35,55.6L403.17,54.32L403.51,55.6L403.55,54.32L404.06,53.04L404.62,50.49L405.27,51.76L406.23,47.93L406.87,46.66L407.49,44.1L407.72,45.38L407.86,46.66L408.17,47.93L408.38,46.66L409.57,47.93L411.98,38.99L412.26,37.71L413.26,36.44L413.99,37.71L415.09,33.88L415.17,32.61L415.24,33.88L415.41,28.77L416.03,30.05L416.11,27.5L417.27,26.22L417.43,23.66L417.62,26.22L417.88,27.5L418.28,26.22L418.45,27.5L418.48,28.77L418.75,31.33L419.29,30.05L420.34,22.39L420.38,26.22L421.05,24.94L421.13,23.66L421.34,26.22L421.58,26.22L421.74,27.5L422.54,22.39L422.87,23.66L423.01,27.5L423.51,22.39L423.84,21.11L424.43,18.55L424.43,19.83L424.5,21.11L425.05,16L425.15,18.55L425.42,19.83L425.59,17.28L425.73,28.77L425.73,30.05L426.13,36.44L426.43,24.94L426.5,26.22L427.13,33.88L427.16,30.05L427.28,31.33L428.98,22.39L429.04,23.66L429.18,36.44L429.58,31.33L429.87,30.05L429.91,32.61L430.44,30.05L431.03,28.77L431.68,32.61L431.96,31.33L432.19,30.05L432.34,32.61L432.42,31.33L433,30.05L433.65,40.27L433.67,38.99L434.06,37.71L434.13,36.44L434.46,40.27L434.73,38.99L435.07,37.71L435.49,33.88L435.67,36.44L436.21,35.16L436.64,31.33L437.04,32.61L437.04,33.88L437.62,51.76L437.9,53.04L438.54,49.21L439.39,47.93L439.52,51.76L440.52,53.04L441.62,50.49L441.66,49.21L441.82,50.49L442.2,49.21L442.67,47.93L443.13,45.38L443.25,49.21L443.39,47.93L443.63,46.66L444.28,44.1L444.64,45.38L445.27,51.76L445.49,49.21L445.52,47.93L446.23,51.76L446.38,50.49L446.77,41.55L447.15,49.21L447.25,47.93L447.53,44.1L447.65,51.76L447.65,53.04L448.25,44.1L448.37,46.66L448.51,45.38L448.86,41.55L449.09,42.82L449.28,44.1L449.53,41.55L449.7,50.49L449.7,51.76L449.99,69.65L450.42,64.54L450.51,65.82L450.52,67.09L451.29,65.82L451.52,63.26L451.58,73.48L451.7,72.2L452,70.92L452.1,72.2L452.51,70.92L452.56,72.2L452.66,69.65L453.28,68.37L453.92,64.54L454.1,63.26L454.85,56.87L455.11,59.43L455.14,60.71L455.3,59.43L455.67,65.82L456.26,64.54L456.39,65.82L456.65,63.26L456.83,64.54L457.17,65.82L457.83,55.6L458.14,54.32L458.16,53.04L458.24,56.87L458.6,54.32L459.1,53.04L459.11,54.32L459.7,44.1L459.74,46.66L460.54,45.38L461.04,41.55L461.6,42.82L461.73,40.27L462.02,46.66L462.4,45.38L462.42,44.1L462.74,42.82L463,45.38L463.3,44.1L463.48,46.66L463.85,44.1L464.19,45.38L464.73,38.99L465.09,41.55L465.14,42.82L465.27,41.55L465.3,45.38L465.74,42.82L466.18,41.55L466.19,40.27L466.74,51.76L466.76,49.21L466.9,47.93L468.15,51.76L468.34,50.49L468.6,53.04L469.06,51.76L469.31,50.49L470.32,55.6L470.46,53.04L470.5,51.76L470.61,49.21L471.16,53.04L471.17,53.04L471.52,51.76L471.77,47.93L472.16,51.76L472.2,53.04L472.51,51.76L473.36,72.2L473.63,70.92L475.35,55.6L475.45,56.87L475.52,54.32L475.63,65.82L475.92,64.54L475.92,65.82L476.48,64.54L476.5,65.82L476.77,67.09L477.17,74.76L477.46,72.2L477.61,70.92L477.73,65.82L478.35,67.09L478.37,65.82L478.59,63.26L478.62,68.37L478.79,67.09L479.26,68.37L479.54,69.65L480.18,64.54L480.49,65.82L480.51,69.65L481.2,67.09L481.33,68.37L481.78,65.82L482.5,64.54L482.76,59.43L483.08,64.54L483.39,63.26L484.51,53.04L485.29,54.32L485.81,67.09L486.23,65.82L486.32,68.37L486.67,60.71L486.84,61.98L487.1,60.71L487.58,68.37L488.28,67.09L488.47,65.82L488.8,68.37L488.81,69.65L489.46,67.09L489.71,81.14L489.8,79.87L489.81,77.31L490.37,84.97L490.66,83.7L490.87,84.97L492.34,83.7L492.94,84.97L493.24,83.7L493.7,84.97L493.71,83.7L494.26,82.42L494.26,81.14L494.53,84.97L494.61,83.7L495.24,82.42L495.46,83.7L495.79,82.42L496.19,81.14L496.27,78.59L496.41,82.42L496.7,81.14L497.23,79.87L497.31,78.59L497.74,83.7L497.75,84.97L498.85,81.14L499.25,82.42L499.5,79.87L499.81,81.14L499.81,82.42L500.41,84.97L500.59,83.7L501.39,76.03L501.41,78.59L501.42,79.87L501.42,81.14L501.57,78.59L502.43,79.87L502.43,78.59L502.71,78.59L503.88,77.31L504.44,73.48L504.57,74.76L504.69,76.03L505.88,68.37L506.28,69.65L506.29,70.92L506.59,65.82L506.75,67.09L507.3,65.82L507.87,68.37L507.89,69.65L508.37,68.37L508.43,69.65L508.73,68.37L508.73,67.09L509.45,69.65L509.64,68.37L509.74,67.09L510.66,65.82L511.29,67.09L511.73,65.82L512.49,60.71L512.72,59.43L512.75,60.71L512.9,59.43L513.63,58.15L513.89,60.71L514.35,59.43L514.46,60.71L514.88,55.6L515.03,58.15L515.32,59.43L515.58,55.6L517.38,56.87L517.71,53.04L518.35,54.32L518.61,67.09L519.06,63.26L519.19,64.54L519.32,67.09L519.91,65.82L520.31,64.54L520.63,60.71L521.59,59.43L521.71,56.87L522.75,55.6L523.42,53.04L523.52,51.76L523.65,49.21L525.09,50.49L525.51,69.65L525.8,67.09L525.89,65.82L525.94,68.37L526.69,67.09L527.64,63.26L527.64,64.54L528.37,70.92L528.42,69.65L528.86,68.37L529.5,63.26L529.53,64.54L529.98,63.26L532.49,58.15L532.82,56.87L533.46,54.32L533.93,53.04L534.9,50.49L534.96,49.21L535.16,50.49L535.81,49.21L536.48,46.66L537.99,45.38L539.23,42.82L539.57,41.55L539.85,37.71L540,38.99" style="vector-effect: none; fill: none; stroke: rgb(255, 127, 14); stroke-opacity: 1; stroke-width: 2px; opacity: 1;"/></g><g class="points"/><g class="text"/></g></g></g></g><g class="zerolinelayer-above"/><path class="xlines-above crisp" d="M0,0" style="fill: none;"/><path class="ylines-above crisp" d="M0,0" style="fill: none;"/><g class="overlines-above"/><g class="xaxislayer-above"><g class="xtick"><text text-anchor="middle" x="0" y="439" transform="translate(101.12,0)" style="font-family: 'Open Sans'; font-size: 18px; fill: rgb(255, 255, 255); fill-opacity: 1; white-space: pre;">2016</text></g><g class="xtick"><text text-anchor="middle" x="0" y="439" style="font-family: 'Open Sans'; font-size: 18px; fill: rgb(255, 255, 255); fill-opacity: 1; white-space: pre;" transform="translate(205.91,0)">2018</text></g><g class="xtick"><text text-anchor="middle" x="0" y="439" style="font-family: 'Open Sans'; font-size: 18px; fill: rgb(255, 255, 255); fill-opacity: 1; white-space: pre;" transform="translate(310.55,0)">2020</text></g><g class="xtick"><text text-anchor="middle" x="0" y="439" style="font-family: 'Open Sans'; font-size: 18px; fill: rgb(255, 255, 255); fill-opacity: 1; white-space: pre;" transform="translate(415.34,0)">2022</text></g><g class="xtick"><text text-anchor="middle" x="0" y="439" style="font-family: 'Open Sans'; font-size: 18px; fill: rgb(255, 255, 255); fill-opacity: 1; white-space: pre;" transform="translate(519.99,0)">2024</text></g></g><g class="yaxislayer-above"><g class="ytick"><text text-anchor="end" x="79" y="6.3" transform="translate(0,420)" style="font-family: 'Open Sans'; font-size: 18px; fill: rgb(255, 255, 255); fill-opacity: 1; white-space: pre;">0</text></g><g class="ytick"><text text-anchor="end" x="79" y="6.3" style="font-family: 'Open Sans'; font-size: 18px; fill: rgb(255, 255, 255); fill-opacity: 1; white-space: pre;" transform="translate(0,356.13)">50</text></g><g class="ytick"><text text-anchor="end" x="79" y="6.3" style="font-family: 'Open Sans'; font-size: 18px; fill: rgb(255, 255, 255); fill-opacity: 1; white-space: pre;" transform="translate(0,292.27)">100</text></g><g class="ytick"><text text-anchor="end" x="79" y="6.3" style="font-family: 'Open Sans'; font-size: 18px; fill: rgb(255, 255, 255); fill-opacity: 1; white-space: pre;" transform="translate(0,228.4)">150</text></g><g class="ytick"><text text-anchor="end" x="79" y="6.3" style="font-family: 'Open Sans'; font-size: 18px; fill: rgb(255, 255, 255); fill-opacity: 1; white-space: pre;" transform="translate(0,164.54000000000002)">200</text></g><g class="ytick"><text text-anchor="end" x="79" y="6.3" style="font-family: 'Open Sans'; font-size: 18px; fill: rgb(255, 255, 255); fill-opacity: 1; white-space: pre;" transform="translate(0,100.67)">250</text></g></g><g class="overaxes-above"/></g></g><g class="polarlayer"/><g class="smithlayer"/><g class="ternarylayer"/><g class="geolayer"/><g class="funnelarealayer"/><g class="pielayer"/><g class="iciclelayer"/><g class="treemaplayer"/><g class="sunburstlayer"/><g class="glimages"/><defs id="topdefs-fec29a"><g class="clips"/></defs><g class="layer-above"><g class="imagelayer"/><g class="shapelayer"/></g><g class="infolayer"><g class="g-gtitle"><text class="gtitle" x="35" y="50" text-anchor="start" dy="0em" style="opacity: 1; font-family: 'Open Sans'; font-size: 25px; fill: rgb(255, 255, 255); fill-opacity: 1; white-space: pre;">MultiQC/MultiQC - Open Issues Over Time</text></g><g class="g-xtitle"><text class="xtitle" x="350" y="472.9" text-anchor="middle" style="opacity: 1; font-family: 'Open Sans'; font-size: 22px; fill: rgb(255, 255, 255); fill-opacity: 1; white-space: pre;">Date</text></g><g class="g-ytitle"><text class="ytitle" transform="rotate(-90,29.799999999999997,260)" x="29.799999999999997" y="260" text-anchor="middle" style="opacity: 1; font-family: 'Open Sans'; font-size: 22px; fill: rgb(255, 255, 255); fill-opacity: 1; white-space: pre;">Number of Open Issues</text></g></g></svg>