<svg class="main-svg" xmlns="http://www.w3.org/2000/svg" xmlns:xlink="http://www.w3.org/1999/xlink" width="700" height="500" style="" viewBox="0 0 700 500"><rect x="0" y="0" width="700" height="500" style="fill: rgb(0, 0, 0); fill-opacity: 0;"/><defs id="defs-f16f35"><g class="clips"><clipPath id="clipf16f35xyplot" class="plotclip"><rect width="540" height="320"/></clipPath><clipPath class="axesclip" id="clipf16f35x"><rect x="80" y="0" width="540" height="500"/></clipPath><clipPath class="axesclip" id="clipf16f35y"><rect x="0" y="100" width="700" height="320"/></clipPath><clipPath class="axesclip" id="clipf16f35xy"><rect x="80" y="100" width="540" height="320"/></clipPath></g><g class="gradients"/><g class="patterns"/></defs><g class="bglayer"><rect class="bg" x="80" y="100" width="540" height="320" style="fill: rgb(0, 0, 0); fill-opacity: 0; stroke-width: 0;"/></g><g class="layer-below"><g class="imagelayer"/><g class="shapelayer"/></g><g class="cartesianlayer"><g class="subplot xy"><g class="layer-subplot"><g class="shapelayer"/><g class="imagelayer"/></g><g class="minor-gridlayer"><g class="x"/><g class="y"/></g><g class="gridlayer"><g class="x"><path class="xgrid crisp" transform="translate(102.06,0)" d="M0,100v320" style="stroke: rgb(255, 255, 255); stroke-opacity: 1; stroke-width: 1px;"/><path class="xgrid crisp" transform="translate(207.47,0)" d="M0,100v320" style="stroke: rgb(255, 255, 255); stroke-opacity: 1; stroke-width: 1px;"/><path class="xgrid crisp" transform="translate(312.73,0)" d="M0,100v320" style="stroke: rgb(255, 255, 255); stroke-opacity: 1; stroke-width: 1px;"/><path class="xgrid crisp" transform="translate(418.13,0)" d="M0,100v320" style="stroke: rgb(255, 255, 255); stroke-opacity: 1; stroke-width: 1px;"/><path class="xgrid crisp" transform="translate(523.39,0)" d="M0,100v320" style="stroke: rgb(255, 255, 255); stroke-opacity: 1; stroke-width: 1px;"/></g><g class="y"><path class="ygrid crisp" transform="translate(0,353.90999999999997)" d="M80,0h540" style="stroke: rgb(255, 255, 255); stroke-opacity: 1; stroke-width: 1px;"/><path class="ygrid crisp" transform="translate(0,287.83000000000004)" d="M80,0h540" style="stroke: rgb(255, 255, 255); stroke-opacity: 1; stroke-width: 1px;"/><path class="ygrid crisp" transform="translate(0,221.74)" d="M80,0h540" style="stroke: rgb(255, 255, 255); stroke-opacity: 1; stroke-width: 1px;"/><path class="ygrid crisp" transform="translate(0,155.65)" d="M80,0h540" style="stroke: rgb(255, 255, 255); stroke-opacity: 1; stroke-width: 1px;"/></g></g><g class="zerolinelayer"><path class="yzl zl crisp" transform="translate(0,420)" d="M80,0h540" style="stroke: rgb(255, 255, 255); stroke-opacity: 1; stroke-width: 2px;"/></g><g class="layer-between"><g class="shapelayer"/><g class="imagelayer"/></g><path class="xlines-below"/><path class="ylines-below"/><g class="overlines-below"/><g class="xaxislayer-below"/><g class="yaxislayer-below"/><g class="overaxes-below"/><g class="overplot"><g class="xy" transform="translate(80,100)" clip-path="url(#clipf16f35xyplot)"><g class="scatterlayer mlayer"><g class="trace scatter trace725406" style="stroke-miterlimit: 2;"><g class="fills"><g><path class="js-fill" d="M540,320L0,320L0,286.96L4.47,49.04L8.8,174.61L13.27,154.78L17.59,260.52L22.06,267.13L26.53,240.7L30.71,240.7L35.18,174.61L39.51,168L43.98,194.43L48.3,207.65L52.77,247.3L57.24,194.43L61.57,207.65L66.04,207.65L70.37,240.7L74.84,253.91L79.31,234.09L83.34,194.43L87.81,234.09L92.14,253.91L96.61,234.09L100.93,134.96L105.4,220.87L109.87,227.48L114.2,273.74L118.67,247.3L123,240.7L127.47,201.04L131.94,227.48L135.97,240.7L140.44,201.04L144.77,214.26L149.24,273.74L153.56,220.87L158.03,267.13L162.5,227.48L166.83,247.3L175.63,260.52L180.1,240.7L184.57,280.35L188.6,201.04L193.07,201.04L197.4,247.3L201.87,293.57L206.19,234.09L210.66,267.13L215.13,260.52L219.46,227.48L223.93,181.22L228.26,234.09L232.73,253.91L237.2,273.74L241.38,207.65L245.85,227.48L250.17,181.22L254.64,207.65L258.97,201.04L263.44,227.48L267.91,207.65L272.23,207.65L276.7,260.52L281.03,293.57L285.5,286.96L289.97,267.13L294.01,207.65L298.48,253.91L302.8,227.48L307.27,168L311.6,214.26L316.07,227.48L320.54,227.48L324.87,260.52L329.34,247.3L333.66,280.35L338.13,273.74L342.6,201.04L346.64,260.52L351.11,267.13L355.43,194.43L359.9,260.52L364.23,253.91L368.7,273.74L373.17,234.09L377.5,214.26L381.97,273.74L386.29,273.74L390.76,247.3L395.23,220.87L399.27,214.26L403.74,240.7L408.06,260.52L412.53,260.52L416.86,234.09L421.33,201.04L425.8,141.57L430.13,168L434.6,187.83L438.92,234.09L443.39,240.7L447.86,16L452.04,187.83L456.51,174.61L460.84,134.96L465.31,174.61L469.63,194.43L474.1,121.74L478.57,148.17L482.9,168L487.37,194.43L491.7,234.09L496.17,234.09L504.67,220.87L509.14,234.09L513.47,240.7L517.94,240.7L522.26,194.43L526.73,240.7L531.2,234.09L535.53,247.3L540,300.17" style="fill: rgb(255, 127, 14); fill-opacity: 0.5; stroke-width: 0;"/></g></g><g class="errorbars"/><g class="lines"><path class="js-line" d="M0,286.96L4.47,49.04L8.8,174.61L13.27,154.78L17.59,260.52L22.06,267.13L26.53,240.7L30.71,240.7L35.18,174.61L39.51,168L43.98,194.43L48.3,207.65L52.77,247.3L57.24,194.43L61.57,207.65L66.04,207.65L70.37,240.7L74.84,253.91L79.31,234.09L83.34,194.43L87.81,234.09L92.14,253.91L96.61,234.09L100.93,134.96L105.4,220.87L109.87,227.48L114.2,273.74L118.67,247.3L123,240.7L127.47,201.04L131.94,227.48L135.97,240.7L140.44,201.04L144.77,214.26L149.24,273.74L153.56,220.87L158.03,267.13L162.5,227.48L166.83,247.3L175.63,260.52L180.1,240.7L184.57,280.35L188.6,201.04L193.07,201.04L197.4,247.3L201.87,293.57L206.19,234.09L210.66,267.13L215.13,260.52L219.46,227.48L223.93,181.22L228.26,234.09L232.73,253.91L237.2,273.74L241.38,207.65L245.85,227.48L250.17,181.22L254.64,207.65L258.97,201.04L263.44,227.48L267.91,207.65L272.23,207.65L276.7,260.52L281.03,293.57L285.5,286.96L289.97,267.13L294.01,207.65L298.48,253.91L302.8,227.48L307.27,168L311.6,214.26L316.07,227.48L320.54,227.48L324.87,260.52L329.34,247.3L333.66,280.35L338.13,273.74L342.6,201.04L346.64,260.52L351.11,267.13L355.43,194.43L359.9,260.52L364.23,253.91L368.7,273.74L373.17,234.09L377.5,214.26L381.97,273.74L386.29,273.74L390.76,247.3L395.23,220.87L399.27,214.26L403.74,240.7L408.06,260.52L412.53,260.52L416.86,234.09L421.33,201.04L425.8,141.57L430.13,168L434.6,187.83L438.92,234.09L443.39,240.7L447.86,16L452.04,187.83L456.51,174.61L460.84,134.96L465.31,174.61L469.63,194.43L474.1,121.74L478.57,148.17L482.9,168L487.37,194.43L491.7,234.09L496.17,234.09L504.67,220.87L509.14,234.09L513.47,240.7L517.94,240.7L522.26,194.43L526.73,240.7L531.2,234.09L535.53,247.3L540,300.17" style="vector-effect: none; fill: none; stroke: rgb(255, 127, 14); stroke-opacity: 1; stroke-width: 2px; opacity: 1;"/></g><g class="points"/><g class="text"/></g></g></g></g><g class="zerolinelayer-above"/><path class="xlines-above crisp" d="M0,0" style="fill: none;"/><path class="ylines-above crisp" d="M0,0" style="fill: none;"/><g class="overlines-above"/><g class="xaxislayer-above"><g class="xtick"><text text-anchor="middle" x="0" y="439" transform="translate(102.06,0)" style="font-family: 'Open Sans'; font-size: 18px; fill: rgb(0, 0, 0); fill-opacity: 1; white-space: pre;">2016</text></g><g class="xtick"><text text-anchor="middle" x="0" y="439" style="font-family: 'Open Sans'; font-size: 18px; fill: rgb(0, 0, 0); fill-opacity: 1; white-space: pre;" transform="translate(207.47,0)">2018</text></g><g class="xtick"><text text-anchor="middle" x="0" y="439" style="font-family: 'Open Sans'; font-size: 18px; fill: rgb(0, 0, 0); fill-opacity: 1; white-space: pre;" transform="translate(312.73,0)">2020</text></g><g class="xtick"><text text-anchor="middle" x="0" y="439" style="font-family: 'Open Sans'; font-size: 18px; fill: rgb(0, 0, 0); fill-opacity: 1; white-space: pre;" transform="translate(418.13,0)">2022</text></g><g class="xtick"><text text-anchor="middle" x="0" y="439" style="font-family: 'Open Sans'; font-size: 18px; fill: rgb(0, 0, 0); fill-opacity: 1; white-space: pre;" transform="translate(523.39,0)">2024</text></g></g><g class="yaxislayer-above"><g class="ytick"><text text-anchor="end" x="79" y="6.3" transform="translate(0,420)" style="font-family: 'Open Sans'; font-size: 18px; fill: rgb(0, 0, 0); fill-opacity: 1; white-space: pre;">0</text></g><g class="ytick"><text text-anchor="end" x="79" y="6.3" style="font-family: 'Open Sans'; font-size: 18px; fill: rgb(0, 0, 0); fill-opacity: 1; white-space: pre;" transform="translate(0,353.90999999999997)">10</text></g><g class="ytick"><text text-anchor="end" x="79" y="6.3" style="font-family: 'Open Sans'; font-size: 18px; fill: rgb(0, 0, 0); fill-opacity: 1; white-space: pre;" transform="translate(0,287.83000000000004)">20</text></g><g class="ytick"><text text-anchor="end" x="79" y="6.3" style="font-family: 'Open Sans'; font-size: 18px; fill: rgb(0, 0, 0); fill-opacity: 1; white-space: pre;" transform="translate(0,221.74)">30</text></g><g class="ytick"><text text-anchor="end" x="79" y="6.3" style="font-family: 'Open Sans'; font-size: 18px; fill: rgb(0, 0, 0); fill-opacity: 1; white-space: pre;" transform="translate(0,155.65)">40</text></g></g><g class="overaxes-above"/></g></g><g class="polarlayer"/><g class="smithlayer"/><g class="ternarylayer"/><g class="geolayer"/><g class="funnelarealayer"/><g class="pielayer"/><g class="iciclelayer"/><g class="treemaplayer"/><g class="sunburstlayer"/><g class="glimages"/><defs id="topdefs-f16f35"><g class="clips"/></defs><g class="layer-above"><g class="imagelayer"/><g class="shapelayer"/></g><g class="infolayer"><g class="g-gtitle"><text class="gtitle" x="35" y="50" text-anchor="start" dy="0em" style="opacity: 1; font-family: 'Open Sans'; font-size: 25px; fill: rgb(0, 0, 0); fill-opacity: 1; white-space: pre;">MultiQC/MultiQC - New Issues Per Month</text></g><g class="g-xtitle"><text class="xtitle" x="350" y="472.9" text-anchor="middle" style="opacity: 1; font-family: 'Open Sans'; font-size: 22px; fill: rgb(0, 0, 0); fill-opacity: 1; white-space: pre;">Month</text></g><g class="g-ytitle"><text class="ytitle" transform="rotate(-90,38.8,260)" x="38.8" y="260" text-anchor="middle" style="opacity: 1; font-family: 'Open Sans'; font-size: 22px; fill: rgb(0, 0, 0); fill-opacity: 1; white-space: pre;">New Issues Created</text></g></g></svg>