<svg class="main-svg" xmlns="http://www.w3.org/2000/svg" xmlns:xlink="http://www.w3.org/1999/xlink" width="700" height="500" style="" viewBox="0 0 700 500"><rect x="0" y="0" width="700" height="500" style="fill: rgb(0, 0, 0); fill-opacity: 0;"/><defs id="defs-ff1b34"><g class="clips"><clipPath id="clipff1b34xyplot" class="plotclip"><rect width="540" height="320"/></clipPath><clipPath class="axesclip" id="clipff1b34x"><rect x="80" y="0" width="540" height="500"/></clipPath><clipPath class="axesclip" id="clipff1b34y"><rect x="0" y="100" width="700" height="320"/></clipPath><clipPath class="axesclip" id="clipff1b34xy"><rect x="80" y="100" width="540" height="320"/></clipPath></g><g class="gradients"/><g class="patterns"/></defs><g class="bglayer"><rect class="bg" x="80" y="100" width="540" height="320" style="fill: rgb(0, 0, 0); fill-opacity: 0; stroke-width: 0;"/></g><g class="layer-below"><g class="imagelayer"/><g class="shapelayer"/></g><g class="cartesianlayer"><g class="subplot xy"><g class="layer-subplot"><g class="shapelayer"/><g class="imagelayer"/></g><g class="minor-gridlayer"><g class="x"/><g class="y"/></g><g class="gridlayer"><g class="x"><path class="xgrid crisp" transform="translate(100.38,0)" d="M0,100v320" style="stroke: rgb(255, 255, 255); stroke-opacity: 1; stroke-width: 1px;"/><path class="xgrid crisp" transform="translate(201.51999999999998,0)" d="M0,100v320" style="stroke: rgb(255, 255, 255); stroke-opacity: 1; stroke-width: 1px;"/><path class="xgrid crisp" transform="translate(302.51,0)" d="M0,100v320" style="stroke: rgb(255, 255, 255); stroke-opacity: 1; stroke-width: 1px;"/><path class="xgrid crisp" transform="translate(403.65,0)" d="M0,100v320" style="stroke: rgb(255, 255, 255); stroke-opacity: 1; stroke-width: 1px;"/><path class="xgrid crisp" transform="translate(504.64,0)" d="M0,100v320" style="stroke: rgb(255, 255, 255); stroke-opacity: 1; stroke-width: 1px;"/><path class="xgrid crisp" transform="translate(605.78,0)" d="M0,100v320" style="stroke: rgb(255, 255, 255); stroke-opacity: 1; stroke-width: 1px;"/></g><g class="y"><path class="ygrid crisp" transform="translate(0,361.76)" d="M80,0h540" style="stroke: rgb(255, 255, 255); stroke-opacity: 1; stroke-width: 1px;"/><path class="ygrid crisp" transform="translate(0,303.52)" d="M80,0h540" style="stroke: rgb(255, 255, 255); stroke-opacity: 1; stroke-width: 1px;"/><path class="ygrid crisp" transform="translate(0,245.29)" d="M80,0h540" style="stroke: rgb(255, 255, 255); stroke-opacity: 1; stroke-width: 1px;"/><path class="ygrid crisp" transform="translate(0,187.05)" d="M80,0h540" style="stroke: rgb(255, 255, 255); stroke-opacity: 1; stroke-width: 1px;"/><path class="ygrid crisp" transform="translate(0,128.81)" d="M80,0h540" style="stroke: rgb(255, 255, 255); stroke-opacity: 1; stroke-width: 1px;"/></g></g><g class="zerolinelayer"><path class="yzl zl crisp" transform="translate(0,420)" d="M80,0h540" style="stroke: rgb(255, 255, 255); stroke-opacity: 1; stroke-width: 2px;"/></g><g class="layer-between"><g class="shapelayer"/><g class="imagelayer"/></g><path class="xlines-below"/><path class="ylines-below"/><g class="overlines-below"/><g class="xaxislayer-below"/><g class="yaxislayer-below"/><g class="overaxes-below"/><g class="overplot"><g class="xy" transform="translate(80,100)" clip-path="url(#clipff1b34xyplot)"><g class="scatterlayer mlayer"><g class="trace scatter tracecc4191" style="stroke-miterlimit: 2;"><g class="fills"><g><path class="js-fill" d="M540,320L0,320L0,318.84L0,316.51L0.55,317.67L1.79,318.84L1.9,317.67L2.9,318.84L3.71,313.01L3.74,314.18L4.4,313.01L4.82,308.35L4.98,309.52L5.35,310.68L5.52,307.19L5.8,311.85L5.94,309.52L6.23,310.68L6.9,300.2L7.01,299.03L7.18,297.87L7.44,300.2L7.44,301.36L7.45,302.53L7.61,293.21L8.29,292.05L8.67,300.2L8.67,301.36L9.39,309.52L9.4,308.35L9.52,307.19L9.83,302.53L9.83,301.36L10.23,300.2L10.26,302.53L10.26,303.69L11.2,307.19L11.31,306.02L11.46,304.86L12.41,288.55L12.45,294.38L12.45,295.54L12.56,293.21L12.86,296.7L13.04,294.38L13.27,293.21L13.66,287.39L13.8,290.88L14.2,289.72L14.39,288.55L14.52,290.88L15.2,292.05L15.36,295.54L16.53,294.38L17.12,292.05L17.25,290.88L17.96,286.22L17.96,287.39L18.09,286.22L18.53,287.39L21.01,286.22L21.01,287.39L21.41,283.89L21.41,286.22L22.9,285.06L23.09,286.22L23.24,285.06L24.06,283.89L24.76,281.56L24.87,282.73L25.18,281.56L25.9,289.72L25.97,288.55L26.24,285.06L26.69,288.55L26.83,287.39L27.07,288.55L28.22,289.72L29.63,286.22L29.85,287.39L29.88,290.88L29.88,290.88L30.66,289.72L31.13,293.21L31.54,292.05L31.73,297.87L32.61,299.03L33.3,296.7L33.3,297.87L33.43,299.03L34.3,295.54L34.41,296.7L35.02,297.87L35.38,296.7L35.38,297.87L35.52,292.05L35.8,293.21L36.48,292.05L36.7,288.55L36.89,295.54L37.38,296.7L37.45,295.54L37.88,299.03L37.94,300.2L38.16,295.54L38.44,296.7L38.73,297.87L39.57,292.05L39.69,295.54L40.02,294.38L40.23,292.05L40.38,295.54L40.52,294.38L40.65,295.54L41.6,289.72L41.63,290.88L42.42,287.39L42.71,286.22L43.47,288.55L43.96,287.39L44.27,290.88L44.52,287.39L44.71,286.22L45.04,285.06L45.19,288.55L45.2,289.72L45.24,288.55L45.65,294.38L46.03,293.21L46.21,292.05L46.31,295.54L46.61,294.38L47.16,295.54L47.17,299.03L47.45,296.7L48,297.87L48.38,296.7L48.38,297.87L49.07,296.7L49.07,297.87L49.25,295.54L49.37,295.54L50.19,294.38L51.33,292.05L51.87,293.21L51.87,294.38L52.3,290.88L52.45,293.21L52.88,292.05L52.98,290.88L53.28,294.38L54.09,293.21L55.39,288.55L55.88,287.39L57.09,276.9L57.16,279.23L57.26,280.4L57.26,281.56L58,278.07L58.12,276.9L58.13,278.07L59.66,276.9L60.84,269.92L60.96,271.08L61.84,268.75L62.37,267.59L63.06,257.1L63.09,259.43L63.81,258.27L64.45,260.6L64.45,261.76L64.46,267.59L64.75,267.59L65.44,266.42L66.67,262.93L67.4,261.76L67.64,268.75L68.52,267.59L69.6,279.23L69.74,278.07L70.26,276.9L70.26,275.74L70.64,275.74L71.09,276.9L72.14,273.41L72.15,274.57L72.57,273.41L72.6,272.25L72.65,273.41L73.49,272.25L74.25,271.08L74.75,269.92L77.99,260.6L77.99,261.76L78.43,265.26L78.56,261.76L78.96,262.93L79.24,264.09L79.3,260.6L79.5,262.93L80.22,264.09L80.54,258.27L80.55,259.43L81.66,258.27L81.86,259.43L82.05,258.27L82.28,257.1L82.31,255.94L83.01,259.43L83.13,258.27L83.27,259.43L83.83,255.94L83.83,257.1L83.97,258.27L84.37,262.93L84.77,261.76L85.1,260.6L85.11,258.27L85.21,261.76L86.16,260.6L86.16,261.76L86.18,259.43L86.84,261.76L87.01,260.6L87.79,262.93L88.12,261.76L88.68,262.93L88.77,264.09L89.08,268.75L89.6,267.59L89.9,275.74L90.18,273.41L90.64,272.25L91.68,268.75L91.81,269.92L91.81,271.08L93.63,264.09L93.65,265.26L95.7,258.27L95.83,259.43L95.83,260.6L96.71,262.93L96.81,264.09L97.65,274.57L97.95,273.41L98.35,275.74L98.35,274.57L98.45,273.41L98.49,275.74L98.9,264.09L98.9,264.09L99.31,262.93L99.62,260.6L99.88,266.42L100.26,265.26L101.24,262.93L101.24,264.09L101.24,265.26L101.36,267.59L101.79,266.42L102.27,265.26L102.62,268.75L102.75,266.42L103.14,265.26L103.17,266.42L103.71,264.09L103.73,265.26L104.31,264.09L104.41,262.93L104.42,264.09L105.09,265.26L105.09,266.42L105.68,265.26L106.23,264.09L106.63,260.6L107.04,259.43L108.38,253.61L108.41,254.77L108.49,255.94L110.51,252.44L111.06,253.61L112.43,250.11L112.89,251.28L113.18,250.11L114,278.07L114.1,276.9L114.71,274.57L114.98,275.74L115.38,274.57L115.38,275.74L116.34,274.57L116.74,275.74L117.03,274.57L117.05,273.41L117.72,272.25L117.96,273.41L117.97,275.74L118.19,271.08L118.69,269.92L118.69,271.08L119.11,268.75L119.16,268.75L119.71,267.59L119.71,266.42L120.19,272.25L121.9,271.08L122.11,272.25L122.16,271.08L122.67,269.92L123.1,265.26L123.87,264.09L125.53,259.43L125.9,260.6L126.36,258.27L126.44,259.43L126.44,260.6L126.59,266.42L126.95,264.09L127.47,262.93L127.98,260.6L128.21,261.76L128.21,262.93L128.8,266.42L129.5,265.26L130.46,260.6L130.83,261.76L131.5,260.6L132.55,259.43L133.67,255.94L134.46,257.1L135.18,255.94L135.25,257.1L135.76,255.94L136.11,254.77L136.12,257.1L136.64,252.44L136.64,252.44L137.08,251.28L137.08,248.95L137.64,250.11L137.98,248.95L138.48,246.62L138.51,245.46L138.58,244.29L138.63,247.79L139.17,246.62L139.19,247.79L139.59,245.46L140.21,246.62L140.59,243.13L140.84,253.61L141.39,252.44L142.11,250.11L142.19,251.28L142.2,250.11L142.22,252.44L143.37,251.28L144.01,250.11L144.12,252.44L144.92,251.28L144.94,252.44L145.58,248.95L145.64,250.11L146.19,251.28L147.89,248.95L147.9,250.11L148.98,244.29L149.85,243.13L150.09,240.8L150.6,241.96L150.61,240.8L151.26,246.62L151.62,245.46L152.79,244.29L153.11,245.46L155.47,239.63L155.62,240.8L156.12,236.14L156.41,234.97L157.69,227.98L158.41,226.82L158.41,227.98L158.79,226.82L159.86,225.66L159.91,224.49L160.36,229.15L160.78,227.98L161.82,225.66L161.82,224.49L161.84,223.33L162.04,231.48L163.29,230.31L163.53,227.98L164.61,226.82L165.33,231.48L165.67,230.31L168.51,221L168.58,219.83L168.62,221L170.33,219.83L170.57,224.49L170.58,225.66L170.59,229.15L170.99,226.82L172.91,225.66L172.93,227.98L173.08,226.82L173.81,225.66L174.31,221L174.32,222.16L174.84,223.33L175.18,224.49L176.07,219.83L176.13,221L176.26,222.16L177.08,221L177.09,222.16L178.06,221L178.37,219.83L179.62,218.67L180.24,216.34L180.27,215.17L180.8,212.84L180.81,214.01L181.22,212.84L181.24,215.17L181.9,214.01L182.07,212.84L182.74,214.01L183.03,212.84L183.76,211.68L183.94,210.51L184.68,208.18L184.82,207.02L185,208.18L185.14,205.85L185.15,207.02L185.94,205.85L187.29,197.7L187.29,200.03L187.55,198.87L187.88,196.54L188.18,197.7L188.69,196.54L188.89,194.21L189.34,196.54L189.6,195.37L189.98,193.04L190.52,191.88L191.67,190.71L191.67,191.88L191.75,190.71L191.78,191.88L193.1,190.71L193.82,191.88L194.54,190.71L194.76,189.55L194.76,190.71L196.58,189.55L197.27,188.38L197.28,189.55L197.28,190.71L197.66,189.55L198.48,190.71L198.48,191.88L199.16,191.88L199.33,190.71L200.29,188.38L201,187.22L201.63,183.72L202,184.89L203.36,180.23L203.68,181.39L205.08,180.23L206.28,177.9L206.39,179.07L208.86,174.41L209.15,175.57L209.51,172.08L210.24,170.91L210.66,173.24L210.7,172.08L210.97,170.91L211.7,168.58L211.9,169.75L211.94,170.91L211.97,174.41L212.68,170.91L212.74,172.08L213.11,169.75L213.19,176.74L213.57,175.57L213.59,176.74L213.61,175.57L214.33,174.41L214.54,175.57L215,172.08L215.13,173.24L215.86,187.22L215.94,188.38L216,186.05L216.1,195.37L216.59,194.21L216.65,195.37L216.67,194.21L216.87,201.2L217.45,200.03L217.45,201.2L218.03,196.54L218.18,198.87L218.45,200.03L219.96,190.71L220.32,189.55L220.47,186.05L220.58,190.71L221.48,189.55L223.45,187.22L223.47,186.05L224.05,180.23L224.41,179.07L224.85,180.23L226.48,179.07L227.61,176.74L227.68,175.57L228.52,174.41L228.92,175.57L229.64,173.24L231.46,172.08L232.03,169.75L232.1,168.58L232.98,165.09L233.1,166.25L233.28,165.09L234.41,163.92L234.73,160.43L234.75,167.42L234.75,168.58L234.75,169.75L235.29,165.09L235.71,163.92L235.91,165.09L236.86,163.92L237.01,165.09L237.24,163.92L237.82,165.09L237.89,163.92L238.07,168.58L238.49,166.25L238.75,167.42L239.05,166.25L239.07,168.58L239.17,168.58L239.18,169.75L240.61,165.09L240.61,166.25L240.73,167.42L240.95,163.92L241.01,162.76L241.14,168.58L241.5,167.42L241.81,166.25L242.68,170.91L242.75,169.75L242.76,168.58L243.59,198.87L243.72,197.7L244.02,198.87L244.56,197.7L245.57,193.04L245.66,194.21L246.94,186.05L247.08,187.22L247.36,186.05L248.57,182.56L248.57,183.72L248.71,184.89L249.29,181.39L249.59,180.23L249.79,179.07L250.42,180.23L251.03,174.41L251.48,173.24L251.95,168.58L251.96,169.75L252.49,170.91L253.29,166.25L253.47,165.09L254.7,158.1L255.13,156.93L255.32,155.77L256.35,154.61L257.74,147.62L258.15,146.45L259.29,142.96L259.3,144.12L263.07,131.31L263.08,132.48L266.01,117.33L266.22,118.5L266.23,120.83L267.14,119.66L267.14,120.83L267.84,117.33L268.46,116.17L268.74,117.33L269.88,116.17L270.17,112.67L272.57,113.84L272.73,140.63L273.62,139.46L274.78,140.63L274.93,139.46L274.93,138.3L275.01,141.79L275.19,139.46L275.78,140.63L278.62,139.46L279.34,138.3L279.89,134.8L279.89,133.64L280.01,135.97L280.64,133.64L280.69,134.8L281.61,133.64L281.85,134.8L282.38,139.46L282.54,137.13L282.76,138.3L282.76,139.46L283.06,137.13L283.51,137.13L283.75,135.97L284.49,133.64L284.58,132.48L284.95,130.15L285.31,131.31L285.31,132.48L285.59,144.12L286.52,142.96L286.68,144.12L287.19,141.79L287.2,142.96L287.2,144.12L288.18,141.79L288.35,142.96L288.46,140.63L288.9,141.79L289.27,142.96L289.72,144.12L290.23,142.96L291.66,138.3L291.96,137.13L292.28,139.46L292.43,134.8L292.55,135.97L292.6,134.8L293.14,135.97L294.26,134.8L294.28,135.97L294.81,133.64L295.15,132.48L295.46,127.82L295.73,128.98L296.1,130.15L296.11,134.8L296.29,132.48L297.31,131.31L298.02,141.79L298.02,140.63L298.12,139.46L298.15,138.3L298.45,148.78L298.6,148.78L298.69,149.95L298.74,158.1L299.43,155.77L299.77,156.93L300.47,152.28L300.63,153.44L301.29,151.11L301.82,149.95L301.84,151.11L302.12,147.62L302.92,146.45L303.15,147.62L303.15,146.45L303.77,145.29L304.08,148.78L304.18,145.29L304.63,144.12L305.01,140.63L305.64,139.46L305.83,138.3L307.14,137.13L307.79,133.64L307.85,132.48L309.04,125.49L310,124.32L312.65,116.17L313.74,115L314.5,112.67L315.3,111.51L315.43,109.18L316.16,110.34L316.51,127.82L316.71,126.65L316.98,127.82L317.26,126.65L317.28,128.98L317.62,127.82L318.24,128.98L318.74,127.82L319.46,128.98L320.56,125.49L321.5,124.32L322.75,123.16L323.09,124.32L323.14,125.49L324.12,124.32L324.63,121.99L325.08,123.16L325.25,121.99L325.68,123.16L325.7,124.32L325.7,125.49L326.37,123.16L327.03,124.32L328,156.93L328.28,155.77L328.43,152.28L328.88,156.93L329.03,158.1L330.44,147.62L330.78,146.45L330.9,148.78L331.36,147.62L331.78,146.45L332.74,148.78L333.13,147.62L334.09,146.45L334.1,147.62L334.69,146.45L334.91,145.29L335.24,144.12L335.65,145.29L336.02,144.12L336.6,142.96L336.84,141.79L337.04,139.46L338.12,138.3L338.39,137.13L339.46,135.97L341.03,131.31L341.03,132.48L341.06,133.64L342,128.98L342.51,130.15L343.34,125.49L343.34,126.65L343.83,125.49L343.87,126.65L344.48,123.16L344.54,121.99L344.59,120.83L345.87,119.66L346.69,117.33L346.73,116.17L347.53,113.84L347.85,112.67L348.77,117.33L349.14,116.17L349.32,115L350.8,112.67L351.01,113.84L352.09,111.51L352.63,110.34L354.15,105.69L354.75,104.52L355.11,103.36L355.32,104.52L355.38,105.69L355.39,104.52L356.25,103.36L357.35,101.03L357.46,99.86L358.42,98.7L358.44,99.86L358.51,116.17L359.14,112.67L359.39,113.84L360,111.51L360.23,110.34L360.96,111.51L361.85,110.34L362.46,106.85L362.57,108.02L362.85,106.85L364.1,104.52L364.92,103.36L365.53,101.03L365.53,99.86L365.53,94.04L366.76,92.87L367.76,89.38L369.23,90.54L369.23,92.87L369.64,89.38L369.98,89.38L370.47,90.54L370.79,88.21L371.03,89.38L371.89,88.21L372.02,87.05L372.03,88.21L373.31,89.38L373.93,88.21L373.98,89.38L374.15,90.54L374.15,91.71L374.75,91.71L375.05,92.87L375.25,105.69L376.2,106.85L377.19,104.52L377.7,103.36L377.82,101.03L377.86,104.52L378.27,105.69L379.45,97.53L379.46,98.7L379.46,97.53L379.48,103.36L379.79,101.03L380.33,99.86L381.61,96.37L382.7,95.2L383.4,91.71L384.09,90.54L384.45,87.05L384.91,89.38L385.16,88.21L386.16,82.39L386.16,83.56L387.55,82.39L388.31,76.57L388.32,78.9L389.11,77.73L389.43,78.9L389.47,77.73L389.97,76.57L390.51,74.24L391.14,75.4L392.07,71.91L392.68,70.74L393.28,68.41L393.5,69.58L393.63,70.74L393.94,71.91L394.14,70.74L395.29,71.91L397.61,63.75L397.88,62.59L398.84,61.43L399.56,62.59L400.62,59.1L400.7,57.93L400.76,59.1L400.92,54.44L401.52,55.6L401.6,53.27L402.71,52.11L402.87,49.78L403.05,52.11L403.31,53.27L403.69,52.11L403.85,53.27L403.88,54.44L404.15,56.77L404.67,55.6L405.68,48.61L405.72,52.11L406.36,50.94L406.44,49.78L406.65,52.11L406.88,52.11L407.04,53.27L407.81,48.61L408.12,49.78L408.25,53.27L408.74,48.61L409.06,47.45L409.62,45.12L409.63,46.28L409.69,47.45L410.23,42.79L410.33,45.12L410.58,46.28L410.74,43.95L410.88,54.44L410.88,55.6L411.27,61.43L411.56,50.94L411.63,55.6L411.72,54.44L412.23,57.93L412.23,59.1L412.69,54.44L413.07,55.6L414.02,48.61L414.13,49.78L414.21,50.94L414.21,61.43L414.92,57.93L415.22,56.77L416,54.44L416,55.6L416.23,54.44L416.62,57.93L416.89,56.77L417.1,55.6L417.26,57.93L417.34,56.77L417.9,55.6L418.52,64.92L418.55,63.75L418.92,62.59L418.99,61.43L419.3,64.92L419.56,63.75L419.9,62.59L420.3,59.1L420.48,61.43L421,60.26L421.41,56.77L421.8,59.1L421.8,60.26L422.63,76.57L422.91,75.4L423.07,74.24L424.06,71.91L424.07,73.07L424.19,75.4L425.15,76.57L426.22,74.24L426.26,73.07L426.42,74.24L426.78,73.07L427.23,71.91L427.68,69.58L427.79,73.07L427.92,71.91L428.16,70.74L428.79,68.41L429.13,69.58L429.74,75.4L429.96,73.07L429.98,71.91L430.67,75.4L430.81,74.24L431.19,66.08L431.55,73.07L431.65,71.91L431.92,68.41L432.04,75.4L432.04,76.57L432.62,68.41L432.74,70.74L432.87,69.58L433.21,66.08L433.61,68.41L433.66,67.25L433.85,66.08L433.99,69.58L433.99,70.74L434.3,91.71L434.71,87.05L434.8,88.21L434.81,89.38L435.55,88.21L435.62,87.05L435.77,85.89L435.83,95.2L435.97,92.87L436.07,94.04L436.87,91.71L437.47,90.54L438.09,87.05L438.27,85.89L438.99,80.06L439.26,83.56L439.27,84.72L439.42,82.39L439.69,87.05L439.78,88.21L440.61,87.05L440.73,85.89L441.23,88.21L441.3,84.72L441.35,83.56L441.35,84.72L441.87,78.9L442.16,77.73L442.18,76.57L442.26,80.06L442.61,77.73L443.09,76.57L443.1,77.73L443.67,68.41L443.7,70.74L444.48,69.58L444.96,66.08L445.5,67.25L445.63,64.92L445.9,70.74L446.27,69.58L446.29,68.41L446.6,67.25L446.86,69.58L447.14,68.41L447.32,70.74L447.67,68.41L448.01,69.58L448.52,63.75L448.87,66.08L448.92,67.25L449.05,66.08L449.08,69.58L449.5,67.25L449.92,66.08L449.93,64.92L450.46,75.4L450.48,73.07L450.62,71.91L451.82,75.4L452.01,74.24L452.25,76.57L452.7,75.4L452.95,74.24L453.92,78.9L454.05,76.57L454.09,75.4L454.2,73.07L454.73,76.57L454.74,76.57L455.07,75.4L455.32,71.91L455.7,75.4L455.73,76.57L456.04,75.4L456.85,94.04L457.12,92.87L458.78,78.9L458.87,80.06L458.94,77.73L459.05,88.21L459.32,88.21L459.86,87.05L460.53,96.37L460.67,94.04L460.74,92.87L460.81,94.04L461.07,88.21L461.66,89.38L461.9,85.89L461.93,90.54L462.09,89.38L462.55,90.54L462.81,91.71L463.44,87.05L463.73,88.21L463.75,91.71L464.42,89.38L464.54,90.54L464.98,88.21L465.68,87.05L465.93,82.39L466.23,87.05L466.53,85.89L467.62,76.57L468.36,77.73L468.87,89.38L469.27,88.21L469.36,90.54L469.7,83.56L469.87,84.72L470.11,83.56L470.57,90.54L471.25,89.38L471.44,88.21L471.76,90.54L471.76,91.71L472.39,89.38L472.63,102.19L472.72,101.03L472.72,98.7L473.27,105.69L473.54,104.52L473.75,105.69L475.17,104.52L475.75,105.69L476.04,104.52L476.48,105.69L476.5,104.52L477.02,103.36L477.03,102.19L477.28,105.69L477.36,104.52L477.96,103.36L478.18,104.52L478.5,103.36L478.88,102.19L478.96,99.86L479.09,103.36L479.38,102.19L479.89,101.03L479.97,99.86L480.39,104.52L480.39,105.69L481.46,102.19L481.84,103.36L482.08,101.03L482.38,103.36L482.39,104.52L482.96,105.69L483.13,104.52L483.15,103.36L483.9,97.53L483.93,101.03L483.93,102.19L484.08,99.86L484.91,101.03L484.91,99.86L485.18,99.86L486.31,98.7L486.85,95.2L487.09,97.53L487.18,96.37L487.81,91.71L487.99,90.54L488.63,92.87L488.66,90.54L488.8,89.38L489.6,88.21L490.16,89.38L490.17,91.71L490.7,91.71L490.99,90.54L490.99,89.38L491.68,91.71L491.87,90.54L491.96,89.38L492.85,88.21L493.46,89.38L493.88,88.21L494.62,83.56L494.84,82.39L494.86,83.56L495.01,82.39L495.71,81.23L495.97,83.56L496.41,82.39L496.52,83.56L496.92,78.9L497.07,81.23L497.35,82.39L497.6,78.9L499.34,80.06L499.66,76.57L500.28,77.73L500.53,89.38L501.08,88.21L501.21,89.38L501.34,87.05L501.78,88.21L502.17,87.05L502.48,83.56L503.4,82.39L503.52,80.06L504.52,78.9L505.16,76.57L505.27,75.4L505.39,73.07L506.78,74.24L507.19,91.71L507.47,89.38L507.55,88.21L507.6,90.54L508.32,89.38L509.24,85.89L509.24,87.05L509.95,92.87L509.99,91.71L510.41,90.54L511.03,85.89L511.07,87.05L511.5,85.89L513.92,81.23L514.24,80.06L515.31,76.57L516.21,75.4L516.3,73.07L516.5,74.24L517.12,73.07L517.77,70.74L519.23,69.58L520.75,66.08L520.88,64.92L522.1,59.1L522.11,60.26L522.13,59.1L522.18,62.59L522.74,60.26L522.94,59.1L523.76,50.94L523.9,49.78L524.45,46.28L527.36,45.12L528.79,38.13L530.59,36.97L530.6,35.8L531.54,34.64L531.55,35.8L532.05,32.31L532.36,31.14L532.7,28.81L534.55,27.65L536.36,25.32L536.53,24.15L537.47,21.82L537.52,20.66L537.65,21.82L538.21,20.66L538.43,19.49L540,16" style="fill: rgb(255, 127, 14); fill-opacity: 0.5; stroke-width: 0;"/></g></g><g class="errorbars"/><g class="lines"><path class="js-line" d="M0,318.84L0,316.51L0.55,317.67L1.79,318.84L1.9,317.67L2.9,318.84L3.71,313.01L3.74,314.18L4.4,313.01L4.82,308.35L4.98,309.52L5.35,310.68L5.52,307.19L5.8,311.85L5.94,309.52L6.23,310.68L6.9,300.2L7.01,299.03L7.18,297.87L7.44,300.2L7.44,301.36L7.45,302.53L7.61,293.21L8.29,292.05L8.67,300.2L8.67,301.36L9.39,309.52L9.4,308.35L9.52,307.19L9.83,302.53L9.83,301.36L10.23,300.2L10.26,302.53L10.26,303.69L11.2,307.19L11.31,306.02L11.46,304.86L12.41,288.55L12.45,294.38L12.45,295.54L12.56,293.21L12.86,296.7L13.04,294.38L13.27,293.21L13.66,287.39L13.8,290.88L14.2,289.72L14.39,288.55L14.52,290.88L15.2,292.05L15.36,295.54L16.53,294.38L17.12,292.05L17.25,290.88L17.96,286.22L17.96,287.39L18.09,286.22L18.53,287.39L21.01,286.22L21.01,287.39L21.41,283.89L21.41,286.22L22.9,285.06L23.09,286.22L23.24,285.06L24.06,283.89L24.76,281.56L24.87,282.73L25.18,281.56L25.9,289.72L25.97,288.55L26.24,285.06L26.69,288.55L26.83,287.39L27.07,288.55L28.22,289.72L29.63,286.22L29.85,287.39L29.88,290.88L29.88,290.88L30.66,289.72L31.13,293.21L31.54,292.05L31.73,297.87L32.61,299.03L33.3,296.7L33.3,297.87L33.43,299.03L34.3,295.54L34.41,296.7L35.02,297.87L35.38,296.7L35.38,297.87L35.52,292.05L35.8,293.21L36.48,292.05L36.7,288.55L36.89,295.54L37.38,296.7L37.45,295.54L37.88,299.03L37.94,300.2L38.16,295.54L38.44,296.7L38.73,297.87L39.57,292.05L39.69,295.54L40.02,294.38L40.23,292.05L40.38,295.54L40.52,294.38L40.65,295.54L41.6,289.72L41.63,290.88L42.42,287.39L42.71,286.22L43.47,288.55L43.96,287.39L44.27,290.88L44.52,287.39L44.71,286.22L45.04,285.06L45.19,288.55L45.2,289.72L45.24,288.55L45.65,294.38L46.03,293.21L46.21,292.05L46.31,295.54L46.61,294.38L47.16,295.54L47.17,299.03L47.45,296.7L48,297.87L48.38,296.7L48.38,297.87L49.07,296.7L49.07,297.87L49.25,295.54L49.37,295.54L50.19,294.38L51.33,292.05L51.87,293.21L51.87,294.38L52.3,290.88L52.45,293.21L52.88,292.05L52.98,290.88L53.28,294.38L54.09,293.21L55.39,288.55L55.88,287.39L57.09,276.9L57.16,279.23L57.26,280.4L57.26,281.56L58,278.07L58.12,276.9L58.13,278.07L59.66,276.9L60.84,269.92L60.96,271.08L61.84,268.75L62.37,267.59L63.06,257.1L63.09,259.43L63.81,258.27L64.45,260.6L64.45,261.76L64.46,267.59L64.75,267.59L65.44,266.42L66.67,262.93L67.4,261.76L67.64,268.75L68.52,267.59L69.6,279.23L69.74,278.07L70.26,276.9L70.26,275.74L70.64,275.74L71.09,276.9L72.14,273.41L72.15,274.57L72.57,273.41L72.6,272.25L72.65,273.41L73.49,272.25L74.25,271.08L74.75,269.92L77.99,260.6L77.99,261.76L78.43,265.26L78.56,261.76L78.96,262.93L79.24,264.09L79.3,260.6L79.5,262.93L80.22,264.09L80.54,258.27L80.55,259.43L81.66,258.27L81.86,259.43L82.05,258.27L82.28,257.1L82.31,255.94L83.01,259.43L83.13,258.27L83.27,259.43L83.83,255.94L83.83,257.1L83.97,258.27L84.37,262.93L84.77,261.76L85.1,260.6L85.11,258.27L85.21,261.76L86.16,260.6L86.16,261.76L86.18,259.43L86.84,261.76L87.01,260.6L87.79,262.93L88.12,261.76L88.68,262.93L88.77,264.09L89.08,268.75L89.6,267.59L89.9,275.74L90.18,273.41L90.64,272.25L91.68,268.75L91.81,269.92L91.81,271.08L93.63,264.09L93.65,265.26L95.7,258.27L95.83,259.43L95.83,260.6L96.71,262.93L96.81,264.09L97.65,274.57L97.95,273.41L98.35,275.74L98.35,274.57L98.45,273.41L98.49,275.74L98.9,264.09L98.9,264.09L99.31,262.93L99.62,260.6L99.88,266.42L100.26,265.26L101.24,262.93L101.24,264.09L101.24,265.26L101.36,267.59L101.79,266.42L102.27,265.26L102.62,268.75L102.75,266.42L103.14,265.26L103.17,266.42L103.71,264.09L103.73,265.26L104.31,264.09L104.41,262.93L104.42,264.09L105.09,265.26L105.09,266.42L105.68,265.26L106.23,264.09L106.63,260.6L107.04,259.43L108.38,253.61L108.41,254.77L108.49,255.94L110.51,252.44L111.06,253.61L112.43,250.11L112.89,251.28L113.18,250.11L114,278.07L114.1,276.9L114.71,274.57L114.98,275.74L115.38,274.57L115.38,275.74L116.34,274.57L116.74,275.74L117.03,274.57L117.05,273.41L117.72,272.25L117.96,273.41L117.97,275.74L118.19,271.08L118.69,269.92L118.69,271.08L119.11,268.75L119.16,268.75L119.71,267.59L119.71,266.42L120.19,272.25L121.9,271.08L122.11,272.25L122.16,271.08L122.67,269.92L123.1,265.26L123.87,264.09L125.53,259.43L125.9,260.6L126.36,258.27L126.44,259.43L126.44,260.6L126.59,266.42L126.95,264.09L127.47,262.93L127.98,260.6L128.21,261.76L128.21,262.93L128.8,266.42L129.5,265.26L130.46,260.6L130.83,261.76L131.5,260.6L132.55,259.43L133.67,255.94L134.46,257.1L135.18,255.94L135.25,257.1L135.76,255.94L136.11,254.77L136.12,257.1L136.64,252.44L136.64,252.44L137.08,251.28L137.08,248.95L137.64,250.11L137.98,248.95L138.48,246.62L138.51,245.46L138.58,244.29L138.63,247.79L139.17,246.62L139.19,247.79L139.59,245.46L140.21,246.62L140.59,243.13L140.84,253.61L141.39,252.44L142.11,250.11L142.19,251.28L142.2,250.11L142.22,252.44L143.37,251.28L144.01,250.11L144.12,252.44L144.92,251.28L144.94,252.44L145.58,248.95L145.64,250.11L146.19,251.28L147.89,248.95L147.9,250.11L148.98,244.29L149.85,243.13L150.09,240.8L150.6,241.96L150.61,240.8L151.26,246.62L151.62,245.46L152.79,244.29L153.11,245.46L155.47,239.63L155.62,240.8L156.12,236.14L156.41,234.97L157.69,227.98L158.41,226.82L158.41,227.98L158.79,226.82L159.86,225.66L159.91,224.49L160.36,229.15L160.78,227.98L161.82,225.66L161.82,224.49L161.84,223.33L162.04,231.48L163.29,230.31L163.53,227.98L164.61,226.82L165.33,231.48L165.67,230.31L168.51,221L168.58,219.83L168.62,221L170.33,219.83L170.57,224.49L170.58,225.66L170.59,229.15L170.99,226.82L172.91,225.66L172.93,227.98L173.08,226.82L173.81,225.66L174.31,221L174.32,222.16L174.84,223.33L175.18,224.49L176.07,219.83L176.13,221L176.26,222.16L177.08,221L177.09,222.16L178.06,221L178.37,219.83L179.62,218.67L180.24,216.34L180.27,215.17L180.8,212.84L180.81,214.01L181.22,212.84L181.24,215.17L181.9,214.01L182.07,212.84L182.74,214.01L183.03,212.84L183.76,211.68L183.94,210.51L184.68,208.18L184.82,207.02L185,208.18L185.14,205.85L185.15,207.02L185.94,205.85L187.29,197.7L187.29,200.03L187.55,198.87L187.88,196.54L188.18,197.7L188.69,196.54L188.89,194.21L189.34,196.54L189.6,195.37L189.98,193.04L190.52,191.88L191.67,190.71L191.67,191.88L191.75,190.71L191.78,191.88L193.1,190.71L193.82,191.88L194.54,190.71L194.76,189.55L194.76,190.71L196.58,189.55L197.27,188.38L197.28,189.55L197.28,190.71L197.66,189.55L198.48,190.71L198.48,191.88L199.16,191.88L199.33,190.71L200.29,188.38L201,187.22L201.63,183.72L202,184.89L203.36,180.23L203.68,181.39L205.08,180.23L206.28,177.9L206.39,179.07L208.86,174.41L209.15,175.57L209.51,172.08L210.24,170.91L210.66,173.24L210.7,172.08L210.97,170.91L211.7,168.58L211.9,169.75L211.94,170.91L211.97,174.41L212.68,170.91L212.74,172.08L213.11,169.75L213.19,176.74L213.57,175.57L213.59,176.74L213.61,175.57L214.33,174.41L214.54,175.57L215,172.08L215.13,173.24L215.86,187.22L215.94,188.38L216,186.05L216.1,195.37L216.59,194.21L216.65,195.37L216.67,194.21L216.87,201.2L217.45,200.03L217.45,201.2L218.03,196.54L218.18,198.87L218.45,200.03L219.96,190.71L220.32,189.55L220.47,186.05L220.58,190.71L221.48,189.55L223.45,187.22L223.47,186.05L224.05,180.23L224.41,179.07L224.85,180.23L226.48,179.07L227.61,176.74L227.68,175.57L228.52,174.41L228.92,175.57L229.64,173.24L231.46,172.08L232.03,169.75L232.1,168.58L232.98,165.09L233.1,166.25L233.28,165.09L234.41,163.92L234.73,160.43L234.75,167.42L234.75,168.58L234.75,169.75L235.29,165.09L235.71,163.92L235.91,165.09L236.86,163.92L237.01,165.09L237.24,163.92L237.82,165.09L237.89,163.92L238.07,168.58L238.49,166.25L238.75,167.42L239.05,166.25L239.07,168.58L239.17,168.58L239.18,169.75L240.61,165.09L240.61,166.25L240.73,167.42L240.95,163.92L241.01,162.76L241.14,168.58L241.5,167.42L241.81,166.25L242.68,170.91L242.75,169.75L242.76,168.58L243.59,198.87L243.72,197.7L244.02,198.87L244.56,197.7L245.57,193.04L245.66,194.21L246.94,186.05L247.08,187.22L247.36,186.05L248.57,182.56L248.57,183.72L248.71,184.89L249.29,181.39L249.59,180.23L249.79,179.07L250.42,180.23L251.03,174.41L251.48,173.24L251.95,168.58L251.96,169.75L252.49,170.91L253.29,166.25L253.47,165.09L254.7,158.1L255.13,156.93L255.32,155.77L256.35,154.61L257.74,147.62L258.15,146.45L259.29,142.96L259.3,144.12L263.07,131.31L263.08,132.48L266.01,117.33L266.22,118.5L266.23,120.83L267.14,119.66L267.14,120.83L267.84,117.33L268.46,116.17L268.74,117.33L269.88,116.17L270.17,112.67L272.57,113.84L272.73,140.63L273.62,139.46L274.78,140.63L274.93,139.46L274.93,138.3L275.01,141.79L275.19,139.46L275.78,140.63L278.62,139.46L279.34,138.3L279.89,134.8L279.89,133.64L280.01,135.97L280.64,133.64L280.69,134.8L281.61,133.64L281.85,134.8L282.38,139.46L282.54,137.13L282.76,138.3L282.76,139.46L283.06,137.13L283.51,137.13L283.75,135.97L284.49,133.64L284.58,132.48L284.95,130.15L285.31,131.31L285.31,132.48L285.59,144.12L286.52,142.96L286.68,144.12L287.19,141.79L287.2,142.96L287.2,144.12L288.18,141.79L288.35,142.96L288.46,140.63L288.9,141.79L289.27,142.96L289.72,144.12L290.23,142.96L291.66,138.3L291.96,137.13L292.28,139.46L292.43,134.8L292.55,135.97L292.6,134.8L293.14,135.97L294.26,134.8L294.28,135.97L294.81,133.64L295.15,132.48L295.46,127.82L295.73,128.98L296.1,130.15L296.11,134.8L296.29,132.48L297.31,131.31L298.02,141.79L298.02,140.63L298.12,139.46L298.15,138.3L298.45,148.78L298.6,148.78L298.69,149.95L298.74,158.1L299.43,155.77L299.77,156.93L300.47,152.28L300.63,153.44L301.29,151.11L301.82,149.95L301.84,151.11L302.12,147.62L302.92,146.45L303.15,147.62L303.15,146.45L303.77,145.29L304.08,148.78L304.18,145.29L304.63,144.12L305.01,140.63L305.64,139.46L305.83,138.3L307.14,137.13L307.79,133.64L307.85,132.48L309.04,125.49L310,124.32L312.65,116.17L313.74,115L314.5,112.67L315.3,111.51L315.43,109.18L316.16,110.34L316.51,127.82L316.71,126.65L316.98,127.82L317.26,126.65L317.28,128.98L317.62,127.82L318.24,128.98L318.74,127.82L319.46,128.98L320.56,125.49L321.5,124.32L322.75,123.16L323.09,124.32L323.14,125.49L324.12,124.32L324.63,121.99L325.08,123.16L325.25,121.99L325.68,123.16L325.7,124.32L325.7,125.49L326.37,123.16L327.03,124.32L328,156.93L328.28,155.77L328.43,152.28L328.88,156.93L329.03,158.1L330.44,147.62L330.78,146.45L330.9,148.78L331.36,147.62L331.78,146.45L332.74,148.78L333.13,147.62L334.09,146.45L334.1,147.62L334.69,146.45L334.91,145.29L335.24,144.12L335.65,145.29L336.02,144.12L336.6,142.96L336.84,141.79L337.04,139.46L338.12,138.3L338.39,137.13L339.46,135.97L341.03,131.31L341.03,132.48L341.06,133.64L342,128.98L342.51,130.15L343.34,125.49L343.34,126.65L343.83,125.49L343.87,126.65L344.48,123.16L344.54,121.99L344.59,120.83L345.87,119.66L346.69,117.33L346.73,116.17L347.53,113.84L347.85,112.67L348.77,117.33L349.14,116.17L349.32,115L350.8,112.67L351.01,113.84L352.09,111.51L352.63,110.34L354.15,105.69L354.75,104.52L355.11,103.36L355.32,104.52L355.38,105.69L355.39,104.52L356.25,103.36L357.35,101.03L357.46,99.86L358.42,98.7L358.44,99.86L358.51,116.17L359.14,112.67L359.39,113.84L360,111.51L360.23,110.34L360.96,111.51L361.85,110.34L362.46,106.85L362.57,108.02L362.85,106.85L364.1,104.52L364.92,103.36L365.53,101.03L365.53,99.86L365.53,94.04L366.76,92.87L367.76,89.38L369.23,90.54L369.23,92.87L369.64,89.38L369.98,89.38L370.47,90.54L370.79,88.21L371.03,89.38L371.89,88.21L372.02,87.05L372.03,88.21L373.31,89.38L373.93,88.21L373.98,89.38L374.15,90.54L374.15,91.71L374.75,91.71L375.05,92.87L375.25,105.69L376.2,106.85L377.19,104.52L377.7,103.36L377.82,101.03L377.86,104.52L378.27,105.69L379.45,97.53L379.46,98.7L379.46,97.53L379.48,103.36L379.79,101.03L380.33,99.86L381.61,96.37L382.7,95.2L383.4,91.71L384.09,90.54L384.45,87.05L384.91,89.38L385.16,88.21L386.16,82.39L386.16,83.56L387.55,82.39L388.31,76.57L388.32,78.9L389.11,77.73L389.43,78.9L389.47,77.73L389.97,76.57L390.51,74.24L391.14,75.4L392.07,71.91L392.68,70.74L393.28,68.41L393.5,69.58L393.63,70.74L393.94,71.91L394.14,70.74L395.29,71.91L397.61,63.75L397.88,62.59L398.84,61.43L399.56,62.59L400.62,59.1L400.7,57.93L400.76,59.1L400.92,54.44L401.52,55.6L401.6,53.27L402.71,52.11L402.87,49.78L403.05,52.11L403.31,53.27L403.69,52.11L403.85,53.27L403.88,54.44L404.15,56.77L404.67,55.6L405.68,48.61L405.72,52.11L406.36,50.94L406.44,49.78L406.65,52.11L406.88,52.11L407.04,53.27L407.81,48.61L408.12,49.78L408.25,53.27L408.74,48.61L409.06,47.45L409.62,45.12L409.63,46.28L409.69,47.45L410.23,42.79L410.33,45.12L410.58,46.28L410.74,43.95L410.88,54.44L410.88,55.6L411.27,61.43L411.56,50.94L411.63,55.6L411.72,54.44L412.23,57.93L412.23,59.1L412.69,54.44L413.07,55.6L414.02,48.61L414.13,49.78L414.21,50.94L414.21,61.43L414.92,57.93L415.22,56.77L416,54.44L416,55.6L416.23,54.44L416.62,57.93L416.89,56.77L417.1,55.6L417.26,57.93L417.34,56.77L417.9,55.6L418.52,64.92L418.55,63.75L418.92,62.59L418.99,61.43L419.3,64.92L419.56,63.75L419.9,62.59L420.3,59.1L420.48,61.43L421,60.26L421.41,56.77L421.8,59.1L421.8,60.26L422.63,76.57L422.91,75.4L423.07,74.24L424.06,71.91L424.07,73.07L424.19,75.4L425.15,76.57L426.22,74.24L426.26,73.07L426.42,74.24L426.78,73.07L427.23,71.91L427.68,69.58L427.79,73.07L427.92,71.91L428.16,70.74L428.79,68.41L429.13,69.58L429.74,75.4L429.96,73.07L429.98,71.91L430.67,75.4L430.81,74.24L431.19,66.08L431.55,73.07L431.65,71.91L431.92,68.41L432.04,75.4L432.04,76.57L432.62,68.41L432.74,70.74L432.87,69.58L433.21,66.08L433.61,68.41L433.66,67.25L433.85,66.08L433.99,69.58L433.99,70.74L434.3,91.71L434.71,87.05L434.8,88.21L434.81,89.38L435.55,88.21L435.62,87.05L435.77,85.89L435.83,95.2L435.97,92.87L436.07,94.04L436.87,91.71L437.47,90.54L438.09,87.05L438.27,85.89L438.99,80.06L439.26,83.56L439.27,84.72L439.42,82.39L439.69,87.05L439.78,88.21L440.61,87.05L440.73,85.89L441.23,88.21L441.3,84.72L441.35,83.56L441.35,84.72L441.87,78.9L442.16,77.73L442.18,76.57L442.26,80.06L442.61,77.73L443.09,76.57L443.1,77.73L443.67,68.41L443.7,70.74L444.48,69.58L444.96,66.08L445.5,67.25L445.63,64.92L445.9,70.74L446.27,69.58L446.29,68.41L446.6,67.25L446.86,69.58L447.14,68.41L447.32,70.74L447.67,68.41L448.01,69.58L448.52,63.75L448.87,66.08L448.92,67.25L449.05,66.08L449.08,69.58L449.5,67.25L449.92,66.08L449.93,64.92L450.46,75.4L450.48,73.07L450.62,71.91L451.82,75.4L452.01,74.24L452.25,76.57L452.7,75.4L452.95,74.24L453.92,78.9L454.05,76.57L454.09,75.4L454.2,73.07L454.73,76.57L454.74,76.57L455.07,75.4L455.32,71.91L455.7,75.4L455.73,76.57L456.04,75.4L456.85,94.04L457.12,92.87L458.78,78.9L458.87,80.06L458.94,77.73L459.05,88.21L459.32,88.21L459.86,87.05L460.53,96.37L460.67,94.04L460.74,92.87L460.81,94.04L461.07,88.21L461.66,89.38L461.9,85.89L461.93,90.54L462.09,89.38L462.55,90.54L462.81,91.71L463.44,87.05L463.73,88.21L463.75,91.71L464.42,89.38L464.54,90.54L464.98,88.21L465.68,87.05L465.93,82.39L466.23,87.05L466.53,85.89L467.62,76.57L468.36,77.73L468.87,89.38L469.27,88.21L469.36,90.54L469.7,83.56L469.87,84.72L470.11,83.56L470.57,90.54L471.25,89.38L471.44,88.21L471.76,90.54L471.76,91.71L472.39,89.38L472.63,102.19L472.72,101.03L472.72,98.7L473.27,105.69L473.54,104.52L473.75,105.69L475.17,104.52L475.75,105.69L476.04,104.52L476.48,105.69L476.5,104.52L477.02,103.36L477.03,102.19L477.28,105.69L477.36,104.52L477.96,103.36L478.18,104.52L478.5,103.36L478.88,102.19L478.96,99.86L479.09,103.36L479.38,102.19L479.89,101.03L479.97,99.86L480.39,104.52L480.39,105.69L481.46,102.19L481.84,103.36L482.08,101.03L482.38,103.36L482.39,104.52L482.96,105.69L483.13,104.52L483.15,103.36L483.9,97.53L483.93,101.03L483.93,102.19L484.08,99.86L484.91,101.03L484.91,99.86L485.18,99.86L486.31,98.7L486.85,95.2L487.09,97.53L487.18,96.37L487.81,91.71L487.99,90.54L488.63,92.87L488.66,90.54L488.8,89.38L489.6,88.21L490.16,89.38L490.17,91.71L490.7,91.71L490.99,90.54L490.99,89.38L491.68,91.71L491.87,90.54L491.96,89.38L492.85,88.21L493.46,89.38L493.88,88.21L494.62,83.56L494.84,82.39L494.86,83.56L495.01,82.39L495.71,81.23L495.97,83.56L496.41,82.39L496.52,83.56L496.92,78.9L497.07,81.23L497.35,82.39L497.6,78.9L499.34,80.06L499.66,76.57L500.28,77.73L500.53,89.38L501.08,88.21L501.21,89.38L501.34,87.05L501.78,88.21L502.17,87.05L502.48,83.56L503.4,82.39L503.52,80.06L504.52,78.9L505.16,76.57L505.27,75.4L505.39,73.07L506.78,74.24L507.19,91.71L507.47,89.38L507.55,88.21L507.6,90.54L508.32,89.38L509.24,85.89L509.24,87.05L509.95,92.87L509.99,91.71L510.41,90.54L511.03,85.89L511.07,87.05L511.5,85.89L513.92,81.23L514.24,80.06L515.31,76.57L516.21,75.4L516.3,73.07L516.5,74.24L517.12,73.07L517.77,70.74L519.23,69.58L520.75,66.08L520.88,64.92L522.1,59.1L522.11,60.26L522.13,59.1L522.18,62.59L522.74,60.26L522.94,59.1L523.76,50.94L523.9,49.78L524.45,46.28L527.36,45.12L528.79,38.13L530.59,36.97L530.6,35.8L531.54,34.64L531.55,35.8L532.05,32.31L532.36,31.14L532.7,28.81L534.55,27.65L536.36,25.32L536.53,24.15L537.47,21.82L537.52,20.66L537.65,21.82L538.21,20.66L538.43,19.49L540,16" style="vector-effect: none; fill: none; stroke: rgb(255, 127, 14); stroke-opacity: 1; stroke-width: 2px; opacity: 1;"/></g><g class="points"/><g class="text"/></g></g></g></g><g class="zerolinelayer-above"/><path class="xlines-above crisp" d="M0,0" style="fill: none;"/><path class="ylines-above crisp" d="M0,0" style="fill: none;"/><g class="overlines-above"/><g class="xaxislayer-above"><g class="xtick"><text text-anchor="middle" x="0" y="439" transform="translate(100.38,0)" style="font-family: 'Open Sans'; font-size: 18px; fill: rgb(255, 255, 255); fill-opacity: 1; white-space: pre;">2016</text></g><g class="xtick"><text text-anchor="middle" x="0" y="439" style="font-family: 'Open Sans'; font-size: 18px; fill: rgb(255, 255, 255); fill-opacity: 1; white-space: pre;" transform="translate(201.51999999999998,0)">2018</text></g><g class="xtick"><text text-anchor="middle" x="0" y="439" style="font-family: 'Open Sans'; font-size: 18px; fill: rgb(255, 255, 255); fill-opacity: 1; white-space: pre;" transform="translate(302.51,0)">2020</text></g><g class="xtick"><text text-anchor="middle" x="0" y="439" style="font-family: 'Open Sans'; font-size: 18px; fill: rgb(255, 255, 255); fill-opacity: 1; white-space: pre;" transform="translate(403.65,0)">2022</text></g><g class="xtick"><text text-anchor="middle" x="0" y="439" style="font-family: 'Open Sans'; font-size: 18px; fill: rgb(255, 255, 255); fill-opacity: 1; white-space: pre;" transform="translate(504.64,0)">2024</text></g><g class="xtick"><text text-anchor="middle" x="0" y="439" style="font-family: 'Open Sans'; font-size: 18px; fill: rgb(255, 255, 255); fill-opacity: 1; white-space: pre;" transform="translate(605.78,0)">2026</text></g></g><g class="yaxislayer-above"><g class="ytick"><text text-anchor="end" x="79" y="6.3" transform="translate(0,420)" style="font-family: 'Open Sans'; font-size: 18px; fill: rgb(255, 255, 255); fill-opacity: 1; white-space: pre;">0</text></g><g class="ytick"><text text-anchor="end" x="79" y="6.3" style="font-family: 'Open Sans'; font-size: 18px; fill: rgb(255, 255, 255); fill-opacity: 1; white-space: pre;" transform="translate(0,361.76)">50</text></g><g class="ytick"><text text-anchor="end" x="79" y="6.3" style="font-family: 'Open Sans'; font-size: 18px; fill: rgb(255, 255, 255); fill-opacity: 1; white-space: pre;" transform="translate(0,303.52)">100</text></g><g class="ytick"><text text-anchor="end" x="79" y="6.3" style="font-family: 'Open Sans'; font-size: 18px; fill: rgb(255, 255, 255); fill-opacity: 1; white-space: pre;" transform="translate(0,245.29)">150</text></g><g class="ytick"><text text-anchor="end" x="79" y="6.3" style="font-family: 'Open Sans'; font-size: 18px; fill: rgb(255, 255, 255); fill-opacity: 1; white-space: pre;" transform="translate(0,187.05)">200</text></g><g class="ytick"><text text-anchor="end" x="79" y="6.3" style="font-family: 'Open Sans'; font-size: 18px; fill: rgb(255, 255, 255); fill-opacity: 1; white-space: pre;" transform="translate(0,128.81)">250</text></g></g><g class="overaxes-above"/></g></g><g class="polarlayer"/><g class="smithlayer"/><g class="ternarylayer"/><g class="geolayer"/><g class="funnelarealayer"/><g class="pielayer"/><g class="iciclelayer"/><g class="treemaplayer"/><g class="sunburstlayer"/><g class="glimages"/><defs id="topdefs-ff1b34"><g class="clips"/></defs><g class="layer-above"><g class="imagelayer"/><g class="shapelayer"/></g><g class="infolayer"><g class="g-gtitle"><text class="gtitle" x="35" y="50" text-anchor="start" dy="0em" style="opacity: 1; font-family: 'Open Sans'; font-size: 25px; fill: rgb(255, 255, 255); fill-opacity: 1; white-space: pre;">MultiQC/MultiQC - Open Issues Over Time</text></g><g class="g-xtitle"><text class="xtitle" x="350" y="472.9" text-anchor="middle" style="opacity: 1; font-family: 'Open Sans'; font-size: 22px; fill: rgb(255, 255, 255); fill-opacity: 1; white-space: pre;">Date</text></g><g class="g-ytitle"><text class="ytitle" transform="rotate(-90,29.799999999999997,260)" x="29.799999999999997" y="260" text-anchor="middle" style="opacity: 1; font-family: 'Open Sans'; font-size: 22px; fill: rgb(255, 255, 255); fill-opacity: 1; white-space: pre;">Number of Open Issues</text></g></g></svg>