<svg class="main-svg" xmlns="http://www.w3.org/2000/svg" xmlns:xlink="http://www.w3.org/1999/xlink" width="700" height="500" style="" viewBox="0 0 700 500"><rect x="0" y="0" width="700" height="500" style="fill: rgb(0, 0, 0); fill-opacity: 0;"/><defs id="defs-348bc9"><g class="clips"><clipPath id="clip348bc9xyplot" class="plotclip"><rect width="540" height="320"/></clipPath><clipPath class="axesclip" id="clip348bc9x"><rect x="80" y="0" width="540" height="500"/></clipPath><clipPath class="axesclip" id="clip348bc9y"><rect x="0" y="100" width="700" height="320"/></clipPath><clipPath class="axesclip" id="clip348bc9xy"><rect x="80" y="100" width="540" height="320"/></clipPath></g><g class="gradients"/><g class="patterns"/></defs><g class="bglayer"><rect class="bg" x="80" y="100" width="540" height="320" style="fill: rgb(0, 0, 0); fill-opacity: 0; stroke-width: 0;"/></g><g class="layer-below"><g class="imagelayer"/><g class="shapelayer"/></g><g class="cartesianlayer"><g class="subplot xy"><g class="layer-subplot"><g class="shapelayer"/><g class="imagelayer"/></g><g class="minor-gridlayer"><g class="x"/><g class="y"/></g><g class="gridlayer"><g class="x"><path class="xgrid crisp" transform="translate(101.89,0)" d="M0,100v320" style="stroke: rgb(255, 255, 255); stroke-opacity: 1; stroke-width: 1px;"/><path class="xgrid crisp" transform="translate(206.45,0)" d="M0,100v320" style="stroke: rgb(255, 255, 255); stroke-opacity: 1; stroke-width: 1px;"/><path class="xgrid crisp" transform="translate(310.88,0)" d="M0,100v320" style="stroke: rgb(255, 255, 255); stroke-opacity: 1; stroke-width: 1px;"/><path class="xgrid crisp" transform="translate(415.44,0)" d="M0,100v320" style="stroke: rgb(255, 255, 255); stroke-opacity: 1; stroke-width: 1px;"/><path class="xgrid crisp" transform="translate(519.87,0)" d="M0,100v320" style="stroke: rgb(255, 255, 255); stroke-opacity: 1; stroke-width: 1px;"/></g><g class="y"><path class="ygrid crisp" transform="translate(0,353.90999999999997)" d="M80,0h540" style="stroke: rgb(255, 255, 255); stroke-opacity: 1; stroke-width: 1px;"/><path class="ygrid crisp" transform="translate(0,287.83000000000004)" d="M80,0h540" style="stroke: rgb(255, 255, 255); stroke-opacity: 1; stroke-width: 1px;"/><path class="ygrid crisp" transform="translate(0,221.74)" d="M80,0h540" style="stroke: rgb(255, 255, 255); stroke-opacity: 1; stroke-width: 1px;"/><path class="ygrid crisp" transform="translate(0,155.65)" d="M80,0h540" style="stroke: rgb(255, 255, 255); stroke-opacity: 1; stroke-width: 1px;"/></g></g><g class="zerolinelayer"><path class="yzl zl crisp" transform="translate(0,420)" d="M80,0h540" style="stroke: rgb(255, 255, 255); stroke-opacity: 1; stroke-width: 2px;"/></g><g class="layer-between"><g class="shapelayer"/><g class="imagelayer"/></g><path class="xlines-below"/><path class="ylines-below"/><g class="overlines-below"/><g class="xaxislayer-below"/><g class="yaxislayer-below"/><g class="overaxes-below"/><g class="overplot"><g class="xy" transform="translate(80,100)" clip-path="url(#clip348bc9xyplot)"><g class="scatterlayer mlayer"><g class="trace scatter traced3274a" style="stroke-miterlimit: 2;"><g class="fills"><g><path class="js-fill" d="M540,320L0,320L0,286.96L4.43,49.04L8.73,174.61L13.16,154.78L17.45,260.52L21.89,267.13L26.32,240.7L30.47,240.7L34.9,174.61L39.19,168L43.63,194.43L47.92,207.65L52.35,247.3L56.79,194.43L61.08,207.65L65.52,207.65L69.81,240.7L74.24,253.91L78.68,234.09L82.68,194.43L87.12,234.09L91.41,253.91L95.84,234.09L100.13,134.96L104.57,220.87L109,227.48L113.29,273.74L117.73,247.3L122.02,240.7L126.45,201.04L130.89,227.48L134.89,240.7L139.33,201.04L143.62,214.26L148.05,273.74L152.34,220.87L156.78,267.13L161.21,227.48L165.5,247.3L174.23,260.52L178.66,240.7L183.1,280.35L187.1,201.04L191.54,201.04L195.83,247.3L200.26,293.57L204.56,234.09L208.99,267.13L213.43,260.52L217.72,227.48L222.15,181.22L226.44,234.09L230.88,253.91L235.31,273.74L239.46,207.65L243.89,227.48L248.19,181.22L252.62,207.65L256.91,201.04L261.35,227.48L265.78,207.65L270.07,207.65L274.51,260.52L278.8,293.57L283.23,286.96L287.67,267.13L291.67,207.65L296.11,253.91L300.4,227.48L304.83,168L309.12,214.26L313.56,227.48L317.99,227.48L322.28,260.52L326.72,247.3L331.01,280.35L335.44,273.74L339.88,201.04L343.88,260.52L348.32,267.13L352.61,194.43L357.04,260.52L361.34,253.91L365.77,273.74L370.2,234.09L374.5,214.26L378.93,273.74L383.22,273.74L387.66,247.3L392.09,220.87L396.1,214.26L400.53,240.7L404.82,260.52L409.26,260.52L413.55,234.09L417.98,201.04L422.42,141.57L426.71,168L431.14,187.83L435.43,234.09L439.87,240.7L444.3,16L448.45,187.83L452.88,174.61L457.18,134.96L461.61,174.61L465.9,194.43L470.34,121.74L474.77,148.17L479.06,168L483.5,194.43L487.79,234.09L492.22,234.09L500.66,220.87L505.1,234.09L509.39,240.7L513.82,240.7L518.11,194.43L522.55,240.7L526.98,234.09L531.27,247.3L535.71,267.13L540,181.22" style="fill: rgb(255, 127, 14); fill-opacity: 0.5; stroke-width: 0;"/></g></g><g class="errorbars"/><g class="lines"><path class="js-line" d="M0,286.96L4.43,49.04L8.73,174.61L13.16,154.78L17.45,260.52L21.89,267.13L26.32,240.7L30.47,240.7L34.9,174.61L39.19,168L43.63,194.43L47.92,207.65L52.35,247.3L56.79,194.43L61.08,207.65L65.52,207.65L69.81,240.7L74.24,253.91L78.68,234.09L82.68,194.43L87.12,234.09L91.41,253.91L95.84,234.09L100.13,134.96L104.57,220.87L109,227.48L113.29,273.74L117.73,247.3L122.02,240.7L126.45,201.04L130.89,227.48L134.89,240.7L139.33,201.04L143.62,214.26L148.05,273.74L152.34,220.87L156.78,267.13L161.21,227.48L165.5,247.3L174.23,260.52L178.66,240.7L183.1,280.35L187.1,201.04L191.54,201.04L195.83,247.3L200.26,293.57L204.56,234.09L208.99,267.13L213.43,260.52L217.72,227.48L222.15,181.22L226.44,234.09L230.88,253.91L235.31,273.74L239.46,207.65L243.89,227.48L248.19,181.22L252.62,207.65L256.91,201.04L261.35,227.48L265.78,207.65L270.07,207.65L274.51,260.52L278.8,293.57L283.23,286.96L287.67,267.13L291.67,207.65L296.11,253.91L300.4,227.48L304.83,168L309.12,214.26L313.56,227.48L317.99,227.48L322.28,260.52L326.72,247.3L331.01,280.35L335.44,273.74L339.88,201.04L343.88,260.52L348.32,267.13L352.61,194.43L357.04,260.52L361.34,253.91L365.77,273.74L370.2,234.09L374.5,214.26L378.93,273.74L383.22,273.74L387.66,247.3L392.09,220.87L396.1,214.26L400.53,240.7L404.82,260.52L409.26,260.52L413.55,234.09L417.98,201.04L422.42,141.57L426.71,168L431.14,187.83L435.43,234.09L439.87,240.7L444.3,16L448.45,187.83L452.88,174.61L457.18,134.96L461.61,174.61L465.9,194.43L470.34,121.74L474.77,148.17L479.06,168L483.5,194.43L487.79,234.09L492.22,234.09L500.66,220.87L505.1,234.09L509.39,240.7L513.82,240.7L518.11,194.43L522.55,240.7L526.98,234.09L531.27,247.3L535.71,267.13L540,181.22" style="vector-effect: none; fill: none; stroke: rgb(255, 127, 14); stroke-opacity: 1; stroke-width: 2px; opacity: 1;"/></g><g class="points"/><g class="text"/></g></g></g></g><g class="zerolinelayer-above"/><path class="xlines-above crisp" d="M0,0" style="fill: none;"/><path class="ylines-above crisp" d="M0,0" style="fill: none;"/><g class="overlines-above"/><g class="xaxislayer-above"><g class="xtick"><text text-anchor="middle" x="0" y="439" transform="translate(101.89,0)" style="font-family: 'Open Sans'; font-size: 18px; fill: rgb(255, 255, 255); fill-opacity: 1; white-space: pre;">2016</text></g><g class="xtick"><text text-anchor="middle" x="0" y="439" style="font-family: 'Open Sans'; font-size: 18px; fill: rgb(255, 255, 255); fill-opacity: 1; white-space: pre;" transform="translate(206.45,0)">2018</text></g><g class="xtick"><text text-anchor="middle" x="0" y="439" style="font-family: 'Open Sans'; font-size: 18px; fill: rgb(255, 255, 255); fill-opacity: 1; white-space: pre;" transform="translate(310.88,0)">2020</text></g><g class="xtick"><text text-anchor="middle" x="0" y="439" style="font-family: 'Open Sans'; font-size: 18px; fill: rgb(255, 255, 255); fill-opacity: 1; white-space: pre;" transform="translate(415.44,0)">2022</text></g><g class="xtick"><text text-anchor="middle" x="0" y="439" style="font-family: 'Open Sans'; font-size: 18px; fill: rgb(255, 255, 255); fill-opacity: 1; white-space: pre;" transform="translate(519.87,0)">2024</text></g></g><g class="yaxislayer-above"><g class="ytick"><text text-anchor="end" x="79" y="6.3" transform="translate(0,420)" style="font-family: 'Open Sans'; font-size: 18px; fill: rgb(255, 255, 255); fill-opacity: 1; white-space: pre;">0</text></g><g class="ytick"><text text-anchor="end" x="79" y="6.3" style="font-family: 'Open Sans'; font-size: 18px; fill: rgb(255, 255, 255); fill-opacity: 1; white-space: pre;" transform="translate(0,353.90999999999997)">10</text></g><g class="ytick"><text text-anchor="end" x="79" y="6.3" style="font-family: 'Open Sans'; font-size: 18px; fill: rgb(255, 255, 255); fill-opacity: 1; white-space: pre;" transform="translate(0,287.83000000000004)">20</text></g><g class="ytick"><text text-anchor="end" x="79" y="6.3" style="font-family: 'Open Sans'; font-size: 18px; fill: rgb(255, 255, 255); fill-opacity: 1; white-space: pre;" transform="translate(0,221.74)">30</text></g><g class="ytick"><text text-anchor="end" x="79" y="6.3" style="font-family: 'Open Sans'; font-size: 18px; fill: rgb(255, 255, 255); fill-opacity: 1; white-space: pre;" transform="translate(0,155.65)">40</text></g></g><g class="overaxes-above"/></g></g><g class="polarlayer"/><g class="smithlayer"/><g class="ternarylayer"/><g class="geolayer"/><g class="funnelarealayer"/><g class="pielayer"/><g class="iciclelayer"/><g class="treemaplayer"/><g class="sunburstlayer"/><g class="glimages"/><defs id="topdefs-348bc9"><g class="clips"/></defs><g class="layer-above"><g class="imagelayer"/><g class="shapelayer"/></g><g class="infolayer"><g class="g-gtitle"><text class="gtitle" x="35" y="50" text-anchor="start" dy="0em" style="opacity: 1; font-family: 'Open Sans'; font-size: 25px; fill: rgb(255, 255, 255); fill-opacity: 1; white-space: pre;">MultiQC/MultiQC - New Issues Per Month</text></g><g class="g-xtitle"><text class="xtitle" x="350" y="472.9" text-anchor="middle" style="opacity: 1; font-family: 'Open Sans'; font-size: 22px; fill: rgb(255, 255, 255); fill-opacity: 1; white-space: pre;">Month</text></g><g class="g-ytitle"><text class="ytitle" transform="rotate(-90,38.8,260)" x="38.8" y="260" text-anchor="middle" style="opacity: 1; font-family: 'Open Sans'; font-size: 22px; fill: rgb(255, 255, 255); fill-opacity: 1; white-space: pre;">New Issues Created</text></g></g></svg>