<svg class="main-svg" xmlns="http://www.w3.org/2000/svg" xmlns:xlink="http://www.w3.org/1999/xlink" width="700" height="500" style="" viewBox="0 0 700 500"><rect x="0" y="0" width="700" height="500" style="fill: rgb(0, 0, 0); fill-opacity: 0;"/><defs id="defs-68bce6"><g class="clips"><clipPath id="clip68bce6xyplot" class="plotclip"><rect width="540" height="320"/></clipPath><clipPath class="axesclip" id="clip68bce6x"><rect x="80" y="0" width="540" height="500"/></clipPath><clipPath class="axesclip" id="clip68bce6y"><rect x="0" y="100" width="700" height="320"/></clipPath><clipPath class="axesclip" id="clip68bce6xy"><rect x="80" y="100" width="540" height="320"/></clipPath></g><g class="gradients"/><g class="patterns"/></defs><g class="bglayer"><rect class="bg" x="80" y="100" width="540" height="320" style="fill: rgb(0, 0, 0); fill-opacity: 0; stroke-width: 0;"/></g><g class="layer-below"><g class="imagelayer"/><g class="shapelayer"/></g><g class="cartesianlayer"><g class="subplot xy"><g class="layer-subplot"><g class="shapelayer"/><g class="imagelayer"/></g><g class="minor-gridlayer"><g class="x"/><g class="y"/></g><g class="gridlayer"><g class="x"><path class="xgrid crisp" transform="translate(100.4,0)" d="M0,100v320" style="stroke: rgb(255, 255, 255); stroke-opacity: 1; stroke-width: 1px;"/><path class="xgrid crisp" transform="translate(201.61,0)" d="M0,100v320" style="stroke: rgb(255, 255, 255); stroke-opacity: 1; stroke-width: 1px;"/><path class="xgrid crisp" transform="translate(302.69,0)" d="M0,100v320" style="stroke: rgb(255, 255, 255); stroke-opacity: 1; stroke-width: 1px;"/><path class="xgrid crisp" transform="translate(403.9,0)" d="M0,100v320" style="stroke: rgb(255, 255, 255); stroke-opacity: 1; stroke-width: 1px;"/><path class="xgrid crisp" transform="translate(504.98,0)" d="M0,100v320" style="stroke: rgb(255, 255, 255); stroke-opacity: 1; stroke-width: 1px;"/><path class="xgrid crisp" transform="translate(606.2,0)" d="M0,100v320" style="stroke: rgb(255, 255, 255); stroke-opacity: 1; stroke-width: 1px;"/></g><g class="y"><path class="ygrid crisp" transform="translate(0,338.02)" d="M80,0h540" style="stroke: rgb(255, 255, 255); stroke-opacity: 1; stroke-width: 1px;"/><path class="ygrid crisp" transform="translate(0,256.03)" d="M80,0h540" style="stroke: rgb(255, 255, 255); stroke-opacity: 1; stroke-width: 1px;"/><path class="ygrid crisp" transform="translate(0,174.05)" d="M80,0h540" style="stroke: rgb(255, 255, 255); stroke-opacity: 1; stroke-width: 1px;"/></g></g><g class="zerolinelayer"><path class="yzl zl crisp" transform="translate(0,420)" d="M80,0h540" style="stroke: rgb(255, 255, 255); stroke-opacity: 1; stroke-width: 2px;"/></g><g class="layer-between"><g class="shapelayer"/><g class="imagelayer"/></g><path class="xlines-below"/><path class="ylines-below"/><g class="overlines-below"/><g class="xaxislayer-below"/><g class="yaxislayer-below"/><g class="overaxes-below"/><g class="overplot"><g class="xy" transform="translate(80,100)" clip-path="url(#clip68bce6xyplot)"><g class="scatterlayer mlayer"><g class="trace scatter traceebb51e" style="stroke-miterlimit: 2;"><g class="fills"><g><path class="js-fill" d="M540,320L0,320L0,319.84L0,319.51L1.91,319.34L3.71,318.36L4.41,318.2L4.99,317.05L5.36,316.88L5.94,315.9L6.24,315.74L8.3,312.29L8.69,312.13L9.8,311.15L9.81,310.98L10.66,310.16L11.32,310L12.31,307.87L12.31,307.7L13.05,306.72L13.28,306.55L13.71,305.41L14.22,305.24L15.35,304.75L16.54,304.59L17.97,303.44L18.11,303.28L23.26,302.29L24.08,302.13L25.2,301.64L25.74,301.47L26.85,300.16L28.67,300L31.56,298.19L32.74,298.03L36.56,295.24L36.57,295.08L36.86,294.42L37.48,294.26L39.6,292.13L39.6,291.96L40.26,291.31L40.55,291.14L42.75,289.17L44,289.01L46.24,286.88L46.25,286.71L51.37,284.25L52.01,284.09L53.02,283.11L54.14,282.94L58.17,279.83L59.71,279.66L62.9,276.71L63,276.55L63.11,276.22L63.86,276.06L66.38,274.74L66.42,274.58L66.72,274.25L67.45,274.09L68.58,273.76L69.51,273.6L70.31,272.45L70.7,272.28L76.44,270.32L76.55,270.15L78.63,268.68L79.23,268.51L79.56,267.69L80.43,267.53L80.6,266.87L81.73,266.71L84.16,264.91L84.21,264.74L94.55,260.31L94.59,260.15L98.58,258.02L98.69,257.86L99.42,255.4L99.7,255.23L105.76,251.95L106.32,251.79L106.72,251.13L107.13,250.97L109.06,249.98L110.32,249.82L114.8,248.02L115.47,247.85L118.09,246.71L118.25,246.54L119.02,246.05L119.2,245.89L120.04,245.23L121.99,245.07L132.87,238.34L133.51,238.18L137.19,235.56L137.19,235.39L140.33,233.75L140.47,233.59L143.49,232.28L144.13,232.11L144.13,231.95L145.04,231.78L146.94,230.96L148.01,230.8L149.1,229.49L149.97,229.32L150.21,229L150.73,228.83L155.6,227.36L155.74,227.19L156.53,226.54L156.7,226.37L168.24,221.45L168.46,221.29L168.71,220.8L170.47,220.63L176.11,218.5L176.21,218.34L180.64,216.7L180.8,216.54L181.37,215.88L181.93,215.72L182.21,215.39L183.18,215.22L183.9,214.9L184.08,214.73L184.99,213.75L185.07,213.58L187.7,211.78L187.87,211.62L190.13,210.14L190.68,209.98L199.19,208.01L199.49,207.84L200.45,207.52L201.16,207.35L201.79,206.53L202.61,206.37L210.86,203.75L211.14,203.58L216.84,199.81L216.89,199.65L217.62,199.32L217.78,199.15L220.65,196.37L221.66,196.2L223.88,195.22L224.02,195.06L224.59,194.73L226.66,194.56L232.22,192.92L232.29,192.76L233.16,192.27L233.47,192.1L235.11,191.12L235.2,190.96L235.9,190.3L237.05,190.14L238.68,188.99L239.24,188.82L239.95,188L240.36,187.84L241.05,187.02L241.14,186.86L242,186.2L242.26,186.04L243.11,185.22L243.13,185.05L246,183.41L246.14,183.25L247.14,182.27L247.55,182.1L250.73,180.46L250.73,180.3L261.73,173.41L262.59,173.25L263.66,172.26L264.18,172.1L264.75,171.28L265.12,171.12L270.39,169.15L273.84,168.98L280.11,167.51L280.12,167.34L283.46,165.87L283.52,165.7L286.91,163.9L287.42,163.74L287.7,163.24L288.41,163.08L290.88,162.26L291.31,162.1L298.36,157.01L298.39,156.85L299.15,155.87L299.48,155.7L302.36,153.9L303.16,153.73L306.08,151.6L307.38,151.44L308.88,150.13L309.02,149.96L312.9,148.32L313.99,148.16L314.75,147.83L315.55,147.67L315.69,147.34L316.77,147.18L317.51,146.36L317.87,146.19L325.51,144.39L326.34,144.22L330.64,141.6L330.71,141.44L333.39,140.78L334.14,140.62L336.3,139.47L336.86,139.31L338.66,138.49L339.73,138.32L342.95,136.19L342.97,136.03L346.97,134.22L347,134.06L355.39,131.27L355.68,131.11L359.14,129.8L359.29,129.63L360.52,128.81L361.06,128.65L365.82,127.17L365.82,127.01L365.82,126.02L367.05,125.86L368.06,125.37L369.84,125.2L370.27,124.71L371.07,124.55L371.08,124.38L372.18,124.22L372.32,124.06L373.83,123.89L378.83,121.76L379.1,121.6L379.9,120.61L379.92,120.45L380.95,119.79L381.74,119.63L383.01,119.14L383.5,118.97L386.47,116.84L387.86,116.68L388.62,115.86L389.42,115.69L396.96,112.91L397.51,112.74L401.89,110.45L401.92,110.28L405.22,109.13L405.25,108.97L408.03,106.84L408.13,106.68L409.95,105.36L410.08,105.2L410.56,104.71L410.96,104.54L411.67,103.89L411.88,103.72L412.59,101.76L412.85,101.59L417.23,98.31L417.43,98.15L418.23,97.66L418.33,97.49L419.5,96.35L419.73,96.18L420.64,95.36L421.33,95.2L422.68,94.05L423.17,93.89L423.58,93.39L424.4,93.23L427.67,92.25L427.82,92.08L430.87,89.46L430.98,89.29L432,86.83L432.1,86.67L433.77,83.23L434.01,83.06L441.08,77.82L441.59,77.65L442.96,74.87L443.44,74.7L445.31,72.73L445.94,72.57L446.77,71.42L446.96,71.26L448.59,70.11L448.59,69.95L449.4,68.96L449.72,68.8L451.62,66.83L452.37,66.67L454.45,65.52L454.56,65.35L457.17,62.73L457.19,62.57L458.42,61.09L458.42,60.93L459.27,60.11L459.3,59.94L461.33,57.48L461.33,57.32L463.47,55.35L463.81,55.19L466.05,53.88L466.09,53.71L467.99,51.91L469.23,51.75L470.05,50.6L470.05,50.43L470.88,49.45L471.63,49.29L473.92,47.65L475.55,47.48L476.42,47.15L476.88,46.99L479.48,45.51L479.63,45.35L480.72,44.69L481.28,44.53L484.29,42.56L484.32,42.4L485.57,41.91L486.7,41.74L487.71,40.76L488.03,40.6L489.05,39.61L489.19,39.45L489.99,39.12L490.59,38.96L496.95,35.84L497.24,35.68L498,35.02L499.81,34.86L502.18,32.56L502.57,32.4L502.88,31.91L503.8,31.74L503.92,31.41L504.92,31.25L508.8,29.45L508.96,29.28L511.44,27.81L511.47,27.64L522.51,23.38L522.55,23.21L524.04,21.9L524.04,21.74L524.47,20.76L524.87,20.59L529.06,19.61L529.22,19.44L532.48,18.46L532.78,18.3L533.12,17.97L534.97,17.8L538.86,16.49L539.4,16.33L540,16" style="fill: rgb(255, 127, 14); fill-opacity: 0.5; stroke-width: 0;"/></g></g><g class="errorbars"/><g class="lines"><path class="js-line" d="M0,319.84L0,319.51L1.91,319.34L3.71,318.36L4.41,318.2L4.99,317.05L5.36,316.88L5.94,315.9L6.24,315.74L8.3,312.29L8.69,312.13L9.8,311.15L9.81,310.98L10.66,310.16L11.32,310L12.31,307.87L12.31,307.7L13.05,306.72L13.28,306.55L13.71,305.41L14.22,305.24L15.35,304.75L16.54,304.59L17.97,303.44L18.11,303.28L23.26,302.29L24.08,302.13L25.2,301.64L25.74,301.47L26.85,300.16L28.67,300L31.56,298.19L32.74,298.03L36.56,295.24L36.57,295.08L36.86,294.42L37.48,294.26L39.6,292.13L39.6,291.96L40.26,291.31L40.55,291.14L42.75,289.17L44,289.01L46.24,286.88L46.25,286.71L51.37,284.25L52.01,284.09L53.02,283.11L54.14,282.94L58.17,279.83L59.71,279.66L62.9,276.71L63,276.55L63.11,276.22L63.86,276.06L66.38,274.74L66.42,274.58L66.72,274.25L67.45,274.09L68.58,273.76L69.51,273.6L70.31,272.45L70.7,272.28L76.44,270.32L76.55,270.15L78.63,268.68L79.23,268.51L79.56,267.69L80.43,267.53L80.6,266.87L81.73,266.71L84.16,264.91L84.21,264.74L94.55,260.31L94.59,260.15L98.58,258.02L98.69,257.86L99.42,255.4L99.7,255.23L105.76,251.95L106.32,251.79L106.72,251.13L107.13,250.97L109.06,249.98L110.32,249.82L114.8,248.02L115.47,247.85L118.09,246.71L118.25,246.54L119.02,246.05L119.2,245.89L120.04,245.23L121.99,245.07L132.87,238.34L133.51,238.18L137.19,235.56L137.19,235.39L140.33,233.75L140.47,233.59L143.49,232.28L144.13,232.11L144.13,231.95L145.04,231.78L146.94,230.96L148.01,230.8L149.1,229.49L149.97,229.32L150.21,229L150.73,228.83L155.6,227.36L155.74,227.19L156.53,226.54L156.7,226.37L168.24,221.45L168.46,221.29L168.71,220.8L170.47,220.63L176.11,218.5L176.21,218.34L180.64,216.7L180.8,216.54L181.37,215.88L181.93,215.72L182.21,215.39L183.18,215.22L183.9,214.9L184.08,214.73L184.99,213.75L185.07,213.58L187.7,211.78L187.87,211.62L190.13,210.14L190.68,209.98L199.19,208.01L199.49,207.84L200.45,207.52L201.16,207.35L201.79,206.53L202.61,206.37L210.86,203.75L211.14,203.58L216.84,199.81L216.89,199.65L217.62,199.32L217.78,199.15L220.65,196.37L221.66,196.2L223.88,195.22L224.02,195.06L224.59,194.73L226.66,194.56L232.22,192.92L232.29,192.76L233.16,192.27L233.47,192.1L235.11,191.12L235.2,190.96L235.9,190.3L237.05,190.14L238.68,188.99L239.24,188.82L239.95,188L240.36,187.84L241.05,187.02L241.14,186.86L242,186.2L242.26,186.04L243.11,185.22L243.13,185.05L246,183.41L246.14,183.25L247.14,182.27L247.55,182.1L250.73,180.46L250.73,180.3L261.73,173.41L262.59,173.25L263.66,172.26L264.18,172.1L264.75,171.28L265.12,171.12L270.39,169.15L273.84,168.98L280.11,167.51L280.12,167.34L283.46,165.87L283.52,165.7L286.91,163.9L287.42,163.74L287.7,163.24L288.41,163.08L290.88,162.26L291.31,162.1L298.36,157.01L298.39,156.85L299.15,155.87L299.48,155.7L302.36,153.9L303.16,153.73L306.08,151.6L307.38,151.44L308.88,150.13L309.02,149.96L312.9,148.32L313.99,148.16L314.75,147.83L315.55,147.67L315.69,147.34L316.77,147.18L317.51,146.36L317.87,146.19L325.51,144.39L326.34,144.22L330.64,141.6L330.71,141.44L333.39,140.78L334.14,140.62L336.3,139.47L336.86,139.31L338.66,138.49L339.73,138.32L342.95,136.19L342.97,136.03L346.97,134.22L347,134.06L355.39,131.27L355.68,131.11L359.14,129.8L359.29,129.63L360.52,128.81L361.06,128.65L365.82,127.17L365.82,127.01L365.82,126.02L367.05,125.86L368.06,125.37L369.84,125.2L370.27,124.71L371.07,124.55L371.08,124.38L372.18,124.22L372.32,124.06L373.83,123.89L378.83,121.76L379.1,121.6L379.9,120.61L379.92,120.45L380.95,119.79L381.74,119.63L383.01,119.14L383.5,118.97L386.47,116.84L387.86,116.68L388.62,115.86L389.42,115.69L396.96,112.91L397.51,112.74L401.89,110.45L401.92,110.28L405.22,109.13L405.25,108.97L408.03,106.84L408.13,106.68L409.95,105.36L410.08,105.2L410.56,104.71L410.96,104.54L411.67,103.89L411.88,103.72L412.59,101.76L412.85,101.59L417.23,98.31L417.43,98.15L418.23,97.66L418.33,97.49L419.5,96.35L419.73,96.18L420.64,95.36L421.33,95.2L422.68,94.05L423.17,93.89L423.58,93.39L424.4,93.23L427.67,92.25L427.82,92.08L430.87,89.46L430.98,89.29L432,86.83L432.1,86.67L433.77,83.23L434.01,83.06L441.08,77.82L441.59,77.65L442.96,74.87L443.44,74.7L445.31,72.73L445.94,72.57L446.77,71.42L446.96,71.26L448.59,70.11L448.59,69.95L449.4,68.96L449.72,68.8L451.62,66.83L452.37,66.67L454.45,65.52L454.56,65.35L457.17,62.73L457.19,62.57L458.42,61.09L458.42,60.93L459.27,60.11L459.3,59.94L461.33,57.48L461.33,57.32L463.47,55.35L463.81,55.19L466.05,53.88L466.09,53.71L467.99,51.91L469.23,51.75L470.05,50.6L470.05,50.43L470.88,49.45L471.63,49.29L473.92,47.65L475.55,47.48L476.42,47.15L476.88,46.99L479.48,45.51L479.63,45.35L480.72,44.69L481.28,44.53L484.29,42.56L484.32,42.4L485.57,41.91L486.7,41.74L487.71,40.76L488.03,40.6L489.05,39.61L489.19,39.45L489.99,39.12L490.59,38.96L496.95,35.84L497.24,35.68L498,35.02L499.81,34.86L502.18,32.56L502.57,32.4L502.88,31.91L503.8,31.74L503.92,31.41L504.92,31.25L508.8,29.45L508.96,29.28L511.44,27.81L511.47,27.64L522.51,23.38L522.55,23.21L524.04,21.9L524.04,21.74L524.47,20.76L524.87,20.59L529.06,19.61L529.22,19.44L532.48,18.46L532.78,18.3L533.12,17.97L534.97,17.8L538.86,16.49L539.4,16.33L540,16" style="vector-effect: none; fill: none; stroke: rgb(255, 127, 14); stroke-opacity: 1; stroke-width: 2px; opacity: 1;"/></g><g class="points"/><g class="text"/></g></g></g></g><g class="zerolinelayer-above"/><path class="xlines-above crisp" d="M0,0" style="fill: none;"/><path class="ylines-above crisp" d="M0,0" style="fill: none;"/><g class="overlines-above"/><g class="xaxislayer-above"><g class="xtick"><text text-anchor="middle" x="0" y="439" transform="translate(100.4,0)" style="font-family: 'Open Sans'; font-size: 18px; fill: rgb(255, 255, 255); fill-opacity: 1; white-space: pre;">2016</text></g><g class="xtick"><text text-anchor="middle" x="0" y="439" style="font-family: 'Open Sans'; font-size: 18px; fill: rgb(255, 255, 255); fill-opacity: 1; white-space: pre;" transform="translate(201.61,0)">2018</text></g><g class="xtick"><text text-anchor="middle" x="0" y="439" style="font-family: 'Open Sans'; font-size: 18px; fill: rgb(255, 255, 255); fill-opacity: 1; white-space: pre;" transform="translate(302.69,0)">2020</text></g><g class="xtick"><text text-anchor="middle" x="0" y="439" style="font-family: 'Open Sans'; font-size: 18px; fill: rgb(255, 255, 255); fill-opacity: 1; white-space: pre;" transform="translate(403.9,0)">2022</text></g><g class="xtick"><text text-anchor="middle" x="0" y="439" style="font-family: 'Open Sans'; font-size: 18px; fill: rgb(255, 255, 255); fill-opacity: 1; white-space: pre;" transform="translate(504.98,0)">2024</text></g><g class="xtick"><text text-anchor="middle" x="0" y="439" style="font-family: 'Open Sans'; font-size: 18px; fill: rgb(255, 255, 255); fill-opacity: 1; white-space: pre;" transform="translate(606.2,0)">2026</text></g></g><g class="yaxislayer-above"><g class="ytick"><text text-anchor="end" x="79" y="6.3" transform="translate(0,420)" style="font-family: 'Open Sans'; font-size: 18px; fill: rgb(255, 255, 255); fill-opacity: 1; white-space: pre;">0</text></g><g class="ytick"><text text-anchor="end" x="79" y="6.3" style="font-family: 'Open Sans'; font-size: 18px; fill: rgb(255, 255, 255); fill-opacity: 1; white-space: pre;" transform="translate(0,338.02)">500</text></g><g class="ytick"><text text-anchor="end" x="79" y="6.3" style="font-family: 'Open Sans'; font-size: 18px; fill: rgb(255, 255, 255); fill-opacity: 1; white-space: pre;" transform="translate(0,256.03)">1000</text></g><g class="ytick"><text text-anchor="end" x="79" y="6.3" style="font-family: 'Open Sans'; font-size: 18px; fill: rgb(255, 255, 255); fill-opacity: 1; white-space: pre;" transform="translate(0,174.05)">1500</text></g></g><g class="overaxes-above"/></g></g><g class="polarlayer"/><g class="smithlayer"/><g class="ternarylayer"/><g class="geolayer"/><g class="funnelarealayer"/><g class="pielayer"/><g class="iciclelayer"/><g class="treemaplayer"/><g class="sunburstlayer"/><g class="glimages"/><defs id="topdefs-68bce6"><g class="clips"/></defs><g class="layer-above"><g class="imagelayer"/><g class="shapelayer"/></g><g class="infolayer"><g class="g-gtitle"><text class="gtitle" x="35" y="50" text-anchor="start" dy="0em" style="opacity: 1; font-family: 'Open Sans'; font-size: 25px; fill: rgb(255, 255, 255); fill-opacity: 1; white-space: pre;">MultiQC/MultiQC - Issues Created Over Time</text></g><g class="g-xtitle"><text class="xtitle" x="350" y="472.9" text-anchor="middle" style="opacity: 1; font-family: 'Open Sans'; font-size: 22px; fill: rgb(255, 255, 255); fill-opacity: 1; white-space: pre;">Date</text></g><g class="g-ytitle"><text class="ytitle" transform="rotate(-90,20.799999999999997,260)" x="20.799999999999997" y="260" text-anchor="middle" style="opacity: 1; font-family: 'Open Sans'; font-size: 22px; fill: rgb(255, 255, 255); fill-opacity: 1; white-space: pre;">Cumulative Issues Created</text></g></g></svg>