<svg class="main-svg" xmlns="http://www.w3.org/2000/svg" xmlns:xlink="http://www.w3.org/1999/xlink" width="700" height="500" style="" viewBox="0 0 700 500"><rect x="0" y="0" width="700" height="500" style="fill: rgb(0, 0, 0); fill-opacity: 0;"/><defs id="defs-ff012d"><g class="clips"><clipPath id="clipff012dxyplot" class="plotclip"><rect width="540" height="320"/></clipPath><clipPath class="axesclip" id="clipff012dx"><rect x="80" y="0" width="540" height="500"/></clipPath><clipPath class="axesclip" id="clipff012dy"><rect x="0" y="100" width="700" height="320"/></clipPath><clipPath class="axesclip" id="clipff012dxy"><rect x="80" y="100" width="540" height="320"/></clipPath></g><g class="gradients"/><g class="patterns"/></defs><g class="bglayer"><rect class="bg" x="80" y="100" width="540" height="320" style="fill: rgb(0, 0, 0); fill-opacity: 0; stroke-width: 0;"/></g><g class="layer-below"><g class="imagelayer"/><g class="shapelayer"/></g><g class="cartesianlayer"><g class="subplot xy"><g class="layer-subplot"><g class="shapelayer"/><g class="imagelayer"/></g><g class="minor-gridlayer"><g class="x"/><g class="y"/></g><g class="gridlayer"><g class="x"><path class="xgrid crisp" transform="translate(101.4,0)" d="M0,100v320" style="stroke: rgb(255, 255, 255); stroke-opacity: 1; stroke-width: 1px;"/><path class="xgrid crisp" transform="translate(207.57999999999998,0)" d="M0,100v320" style="stroke: rgb(255, 255, 255); stroke-opacity: 1; stroke-width: 1px;"/><path class="xgrid crisp" transform="translate(313.61,0)" d="M0,100v320" style="stroke: rgb(255, 255, 255); stroke-opacity: 1; stroke-width: 1px;"/><path class="xgrid crisp" transform="translate(419.79,0)" d="M0,100v320" style="stroke: rgb(255, 255, 255); stroke-opacity: 1; stroke-width: 1px;"/><path class="xgrid crisp" transform="translate(525.8199999999999,0)" d="M0,100v320" style="stroke: rgb(255, 255, 255); stroke-opacity: 1; stroke-width: 1px;"/></g><g class="y"><path class="ygrid crisp" transform="translate(0,335.08000000000004)" d="M80,0h540" style="stroke: rgb(255, 255, 255); stroke-opacity: 1; stroke-width: 1px;"/><path class="ygrid crisp" transform="translate(0,250.17)" d="M80,0h540" style="stroke: rgb(255, 255, 255); stroke-opacity: 1; stroke-width: 1px;"/><path class="ygrid crisp" transform="translate(0,165.25)" d="M80,0h540" style="stroke: rgb(255, 255, 255); stroke-opacity: 1; stroke-width: 1px;"/></g></g><g class="zerolinelayer"><path class="yzl zl crisp" transform="translate(0,420)" d="M80,0h540" style="stroke: rgb(255, 255, 255); stroke-opacity: 1; stroke-width: 2px;"/></g><g class="layer-between"><g class="shapelayer"/><g class="imagelayer"/></g><path class="xlines-below"/><path class="ylines-below"/><g class="overlines-below"/><g class="xaxislayer-below"/><g class="yaxislayer-below"/><g class="overaxes-below"/><g class="overplot"><g class="xy" transform="translate(80,100)" clip-path="url(#clipff012dxyplot)"><g class="scatterlayer mlayer"><g class="trace scatter trace5269c9" style="stroke-miterlimit: 2;"><g class="fills"><g><path class="js-fill" d="M540,320L0,320L0,319.83L0,319.49L2,319.32L3.9,318.3L4.62,318.13L5.23,316.94L5.62,316.77L6.23,315.75L6.54,315.58L8.71,312.02L9.12,311.85L10.28,310.83L10.29,310.66L10.74,309.98L11.19,309.81L12.3,308.79L12.3,308.62L13.03,306.92L13.07,306.75L15.11,304.38L16.11,304.21L18.11,303.19L18.6,303.02L19,302.68L22.06,302.51L27.33,299.96L27.45,299.79L28.17,299.45L30.07,299.28L33.11,297.41L34.34,297.24L38.35,294.53L38.35,294.36L38.67,293.51L39.32,293.34L41.54,291.13L41.54,290.96L42.24,290.28L42.54,290.11L44.84,288.07L46.16,287.9L48.5,285.69L48.52,285.52L52.94,283.15L53.89,282.98L57.03,281.45L57.03,281.28L59.38,279.92L59.67,279.75L61.02,278.39L62.64,278.22L65.99,275.16L66.09,274.99L66.21,274.65L66.99,274.48L69.63,273.13L69.67,272.96L69.99,272.62L70.76,272.45L71.94,272.11L72.91,271.94L73.76,270.75L74.17,270.58L80.19,268.54L80.3,268.37L81.92,267.35L82.46,267.18L83.26,265.99L83.47,265.82L86.15,264.63L86.39,264.46L86.42,264.13L87.28,263.96L88.01,263.11L88.29,262.94L89,262.43L89.35,262.26L89.35,261.92L90.46,261.75L90.48,261.41L91.35,261.24L95.66,259.88L96.15,259.71L97.27,259.03L97.59,258.86L102.25,256.82L102.26,256.65L103.53,255.63L103.53,255.46L104.26,253.26L104.29,253.09L114.41,247.48L115.73,247.31L118.82,246.12L119.65,245.95L121.13,245.27L122.14,245.1L124.05,243.92L124.08,243.75L128.82,241.54L129.01,241.37L130.05,240.69L130.46,240.52L136.38,236.61L136.39,236.44L143.32,233.22L143.46,233.05L143.92,232.37L144.5,232.2L152.84,228.12L154.11,227.95L154.15,227.78L155.26,227.61L156.41,226.25L157.32,226.08L157.58,225.74L158.12,225.57L163.23,224.04L163.38,223.87L164.21,223.2L164.38,223.03L176.49,217.93L176.72,217.76L176.99,217.25L178.83,217.08L184.75,214.87L184.85,214.7L189.5,213.01L189.67,212.84L190.26,212.16L190.85,211.99L191.15,211.65L192.16,211.48L192.92,211.14L193.11,210.97L193.9,210.29L194.04,210.12L194.37,209.44L195.21,209.27L197.25,207.57L198.1,207.4L199.45,206.21L200.03,206.04L207.27,204.34L207.52,204.17L211.18,202.99L211.21,202.82L213.5,201.8L215.31,201.63L216.56,201.29L217.42,201.12L221.21,199.59L221.49,199.42L227.48,195.51L227.52,195.34L228.29,195L228.46,194.83L231.47,191.95L232.53,191.78L234.86,190.76L235,190.59L235.61,190.25L237.77,190.08L243.6,188.38L243.68,188.21L244.6,187.7L244.92,187.53L246.46,186.68L246.64,186.51L247.47,185.66L248.67,185.49L250.38,184.3L250.97,184.13L251.71,183.28L252.15,183.12L252.87,182.27L252.97,182.1L253.87,181.42L254.14,181.25L255.03,180.4L255.05,180.23L258.07,178.53L258.21,178.36L259.26,177.34L259.69,177.17L263.03,175.47L263.03,175.3L274.56,168.17L275.47,168L276.59,166.98L277.14,166.81L277.73,165.96L278.12,165.79L283.65,163.75L287.27,163.58L293.85,162.06L293.85,161.89L297.36,160.36L297.42,160.19L299.78,158.66L300.81,158.49L302.85,157.13L304.03,156.96L306.75,155.6L306.86,155.43L307.67,154.58L308.94,154.41L311.07,152.38L312.14,152.21L313.05,150.68L313.12,150.51L313.82,150L314.16,149.83L317.18,147.96L318.03,147.79L321.09,145.58L322.45,145.41L324.02,144.05L324.18,143.88L326.36,143.2L326.96,143.03L328.25,142.19L329.39,142.02L330.19,141.68L331.03,141.51L331.17,141.17L332.3,141L333.08,140.15L333.46,139.98L341.48,138.11L342.34,137.94L346.85,135.22L346.93,135.05L349.74,134.37L350.52,134.2L353.85,132.34L354.99,132.17L356.71,131.66L357.61,131.49L360.98,129.11L361.28,128.94L368.78,125.88L369.65,125.71L376.91,122.82L377.05,122.65L378.77,121.81L379.9,121.64L380.94,120.96L381.34,120.79L383.76,119.6L383.76,119.43L383.76,119.09L385.05,118.92L386.11,118.41L387.98,118.24L388.43,117.73L389.27,117.56L389.28,117.39L390.43,117.22L390.58,117.05L392.16,116.88L397.31,114.84L397.41,114.67L398.69,113.14L398.73,112.97L403.56,110.94L403.62,110.77L405.38,109.75L405.42,109.58L407.56,108.73L407.68,108.56L411.03,107.2L411.36,107.03L413.8,106.01L415.39,105.84L418.74,104.48L420.02,104.31L420.76,103.63L420.81,103.46L421.63,102.78L422.8,102.61L424.03,101.94L424.85,101.77L431.21,96.5L431.23,96.33L432.09,95.48L432.09,95.31L432.82,93.95L433.1,93.78L436.99,90.56L437.69,90.39L444.36,85.29L445.21,85.12L448.65,84.1L448.8,83.93L452,81.22L452.12,81.05L452.7,78.84L453.06,78.67L454.46,75.44L454.48,75.27L457.51,72.89L457.7,72.72L458,72.38L458.51,72.21L459.41,71.37L459.94,71.2L463.54,67.8L463.58,67.63L467.15,63.89L467.81,63.72L468.68,62.53L468.88,62.36L470.59,61.18L470.59,61.01L471.44,59.99L471.78,59.82L473.77,57.78L474.55,57.61L476.74,56.42L476.85,56.25L479.59,53.53L479.61,53.36L480.89,52L480.9,51.83L481.62,51.16L481.66,50.99L485.04,46.91L485.67,46.74L486.55,45.72L487.17,45.55L489.05,44.02L489.17,43.85L490.32,42.83L490.62,42.66L492.24,42.15L492.68,41.98L493.97,39.78L494.76,39.61L497.16,37.91L498.87,37.74L499.78,37.4L500.26,37.23L502.99,35.7L503.15,35.53L504.29,34.85L504.88,34.68L508.04,32.64L508.07,32.47L509.38,31.96L510.57,31.79L511.62,30.78L511.96,30.61L512.59,29.93L513.03,29.76L513.31,29.25L514.02,29.08L519.25,27.04L519.29,26.87L522.42,24.83L524.32,24.66L527.54,21.6L528.5,21.43L528.63,21.09L529.68,20.93L533.76,19.06L533.92,18.89L536.01,17.53L536.52,17.36L537.01,17.02L537.84,16.85L537.88,16.68L539.41,16.51L540,16" style="fill: rgb(255, 127, 14); fill-opacity: 0.5; stroke-width: 0;"/></g></g><g class="errorbars"/><g class="lines"><path class="js-line" d="M0,319.83L0,319.49L2,319.32L3.9,318.3L4.62,318.13L5.23,316.94L5.62,316.77L6.23,315.75L6.54,315.58L8.71,312.02L9.12,311.85L10.28,310.83L10.29,310.66L10.74,309.98L11.19,309.81L12.3,308.79L12.3,308.62L13.03,306.92L13.07,306.75L15.11,304.38L16.11,304.21L18.11,303.19L18.6,303.02L19,302.68L22.06,302.51L27.33,299.96L27.45,299.79L28.17,299.45L30.07,299.28L33.11,297.41L34.34,297.24L38.35,294.53L38.35,294.36L38.67,293.51L39.32,293.34L41.54,291.13L41.54,290.96L42.24,290.28L42.54,290.11L44.84,288.07L46.16,287.9L48.5,285.69L48.52,285.52L52.94,283.15L53.89,282.98L57.03,281.45L57.03,281.28L59.38,279.92L59.67,279.75L61.02,278.39L62.64,278.22L65.99,275.16L66.09,274.99L66.21,274.65L66.99,274.48L69.63,273.13L69.67,272.96L69.99,272.62L70.76,272.45L71.94,272.11L72.91,271.94L73.76,270.75L74.17,270.58L80.19,268.54L80.3,268.37L81.92,267.35L82.46,267.18L83.26,265.99L83.47,265.82L86.15,264.63L86.39,264.46L86.42,264.13L87.28,263.96L88.01,263.11L88.29,262.94L89,262.43L89.35,262.26L89.35,261.92L90.46,261.75L90.48,261.41L91.35,261.24L95.66,259.88L96.15,259.71L97.27,259.03L97.59,258.86L102.25,256.82L102.26,256.65L103.53,255.63L103.53,255.46L104.26,253.26L104.29,253.09L114.41,247.48L115.73,247.31L118.82,246.12L119.65,245.95L121.13,245.27L122.14,245.1L124.05,243.92L124.08,243.75L128.82,241.54L129.01,241.37L130.05,240.69L130.46,240.52L136.38,236.61L136.39,236.44L143.32,233.22L143.46,233.05L143.92,232.37L144.5,232.2L152.84,228.12L154.11,227.95L154.15,227.78L155.26,227.61L156.41,226.25L157.32,226.08L157.58,225.74L158.12,225.57L163.23,224.04L163.38,223.87L164.21,223.2L164.38,223.03L176.49,217.93L176.72,217.76L176.99,217.25L178.83,217.08L184.75,214.87L184.85,214.7L189.5,213.01L189.67,212.84L190.26,212.16L190.85,211.99L191.15,211.65L192.16,211.48L192.92,211.14L193.11,210.97L193.9,210.29L194.04,210.12L194.37,209.44L195.21,209.27L197.25,207.57L198.1,207.4L199.45,206.21L200.03,206.04L207.27,204.34L207.52,204.17L211.18,202.99L211.21,202.82L213.5,201.8L215.31,201.63L216.56,201.29L217.42,201.12L221.21,199.59L221.49,199.42L227.48,195.51L227.52,195.34L228.29,195L228.46,194.83L231.47,191.95L232.53,191.78L234.86,190.76L235,190.59L235.61,190.25L237.77,190.08L243.6,188.38L243.68,188.21L244.6,187.7L244.92,187.53L246.46,186.68L246.64,186.51L247.47,185.66L248.67,185.49L250.38,184.3L250.97,184.13L251.71,183.28L252.15,183.12L252.87,182.27L252.97,182.1L253.87,181.42L254.14,181.25L255.03,180.4L255.05,180.23L258.07,178.53L258.21,178.36L259.26,177.34L259.69,177.17L263.03,175.47L263.03,175.3L274.56,168.17L275.47,168L276.59,166.98L277.14,166.81L277.73,165.96L278.12,165.79L283.65,163.75L287.27,163.58L293.85,162.06L293.85,161.89L297.36,160.36L297.42,160.19L299.78,158.66L300.81,158.49L302.85,157.13L304.03,156.96L306.75,155.6L306.86,155.43L307.67,154.58L308.94,154.41L311.07,152.38L312.14,152.21L313.05,150.68L313.12,150.51L313.82,150L314.16,149.83L317.18,147.96L318.03,147.79L321.09,145.58L322.45,145.41L324.02,144.05L324.18,143.88L326.36,143.2L326.96,143.03L328.25,142.19L329.39,142.02L330.19,141.68L331.03,141.51L331.17,141.17L332.3,141L333.08,140.15L333.46,139.98L341.48,138.11L342.34,137.94L346.85,135.22L346.93,135.05L349.74,134.37L350.52,134.2L353.85,132.34L354.99,132.17L356.71,131.66L357.61,131.49L360.98,129.11L361.28,128.94L368.78,125.88L369.65,125.71L376.91,122.82L377.05,122.65L378.77,121.81L379.9,121.64L380.94,120.96L381.34,120.79L383.76,119.6L383.76,119.43L383.76,119.09L385.05,118.92L386.11,118.41L387.98,118.24L388.43,117.73L389.27,117.56L389.28,117.39L390.43,117.22L390.58,117.05L392.16,116.88L397.31,114.84L397.41,114.67L398.69,113.14L398.73,112.97L403.56,110.94L403.62,110.77L405.38,109.75L405.42,109.58L407.56,108.73L407.68,108.56L411.03,107.2L411.36,107.03L413.8,106.01L415.39,105.84L418.74,104.48L420.02,104.31L420.76,103.63L420.81,103.46L421.63,102.78L422.8,102.61L424.03,101.94L424.85,101.77L431.21,96.5L431.23,96.33L432.09,95.48L432.09,95.31L432.82,93.95L433.1,93.78L436.99,90.56L437.69,90.39L444.36,85.29L445.21,85.12L448.65,84.1L448.8,83.93L452,81.22L452.12,81.05L452.7,78.84L453.06,78.67L454.46,75.44L454.48,75.27L457.51,72.89L457.7,72.72L458,72.38L458.51,72.21L459.41,71.37L459.94,71.2L463.54,67.8L463.58,67.63L467.15,63.89L467.81,63.72L468.68,62.53L468.88,62.36L470.59,61.18L470.59,61.01L471.44,59.99L471.78,59.82L473.77,57.78L474.55,57.61L476.74,56.42L476.85,56.25L479.59,53.53L479.61,53.36L480.89,52L480.9,51.83L481.62,51.16L481.66,50.99L485.04,46.91L485.67,46.74L486.55,45.72L487.17,45.55L489.05,44.02L489.17,43.85L490.32,42.83L490.62,42.66L492.24,42.15L492.68,41.98L493.97,39.78L494.76,39.61L497.16,37.91L498.87,37.74L499.78,37.4L500.26,37.23L502.99,35.7L503.15,35.53L504.29,34.85L504.88,34.68L508.04,32.64L508.07,32.47L509.38,31.96L510.57,31.79L511.62,30.78L511.96,30.61L512.59,29.93L513.03,29.76L513.31,29.25L514.02,29.08L519.25,27.04L519.29,26.87L522.42,24.83L524.32,24.66L527.54,21.6L528.5,21.43L528.63,21.09L529.68,20.93L533.76,19.06L533.92,18.89L536.01,17.53L536.52,17.36L537.01,17.02L537.84,16.85L537.88,16.68L539.41,16.51L540,16" style="vector-effect: none; fill: none; stroke: rgb(255, 127, 14); stroke-opacity: 1; stroke-width: 2px; opacity: 1;"/></g><g class="points"/><g class="text"/></g></g></g></g><g class="zerolinelayer-above"/><path class="xlines-above crisp" d="M0,0" style="fill: none;"/><path class="ylines-above crisp" d="M0,0" style="fill: none;"/><g class="overlines-above"/><g class="xaxislayer-above"><g class="xtick"><text text-anchor="middle" x="0" y="439" transform="translate(101.4,0)" style="font-family: 'Open Sans'; font-size: 18px; fill: rgb(0, 0, 0); fill-opacity: 1; white-space: pre;">2016</text></g><g class="xtick"><text text-anchor="middle" x="0" y="439" style="font-family: 'Open Sans'; font-size: 18px; fill: rgb(0, 0, 0); fill-opacity: 1; white-space: pre;" transform="translate(207.57999999999998,0)">2018</text></g><g class="xtick"><text text-anchor="middle" x="0" y="439" style="font-family: 'Open Sans'; font-size: 18px; fill: rgb(0, 0, 0); fill-opacity: 1; white-space: pre;" transform="translate(313.61,0)">2020</text></g><g class="xtick"><text text-anchor="middle" x="0" y="439" style="font-family: 'Open Sans'; font-size: 18px; fill: rgb(0, 0, 0); fill-opacity: 1; white-space: pre;" transform="translate(419.79,0)">2022</text></g><g class="xtick"><text text-anchor="middle" x="0" y="439" style="font-family: 'Open Sans'; font-size: 18px; fill: rgb(0, 0, 0); fill-opacity: 1; white-space: pre;" transform="translate(525.8199999999999,0)">2024</text></g></g><g class="yaxislayer-above"><g class="ytick"><text text-anchor="end" x="79" y="6.3" transform="translate(0,420)" style="font-family: 'Open Sans'; font-size: 18px; fill: rgb(0, 0, 0); fill-opacity: 1; white-space: pre;">0</text></g><g class="ytick"><text text-anchor="end" x="79" y="6.3" style="font-family: 'Open Sans'; font-size: 18px; fill: rgb(0, 0, 0); fill-opacity: 1; white-space: pre;" transform="translate(0,335.08000000000004)">500</text></g><g class="ytick"><text text-anchor="end" x="79" y="6.3" style="font-family: 'Open Sans'; font-size: 18px; fill: rgb(0, 0, 0); fill-opacity: 1; white-space: pre;" transform="translate(0,250.17)">1000</text></g><g class="ytick"><text text-anchor="end" x="79" y="6.3" style="font-family: 'Open Sans'; font-size: 18px; fill: rgb(0, 0, 0); fill-opacity: 1; white-space: pre;" transform="translate(0,165.25)">1500</text></g></g><g class="overaxes-above"/></g></g><g class="polarlayer"/><g class="smithlayer"/><g class="ternarylayer"/><g class="geolayer"/><g class="funnelarealayer"/><g class="pielayer"/><g class="iciclelayer"/><g class="treemaplayer"/><g class="sunburstlayer"/><g class="glimages"/><defs id="topdefs-ff012d"><g class="clips"/></defs><g class="layer-above"><g class="imagelayer"/><g class="shapelayer"/></g><g class="infolayer"><g class="g-gtitle"><text class="gtitle" x="35" y="50" text-anchor="start" dy="0em" style="opacity: 1; font-family: 'Open Sans'; font-size: 25px; fill: rgb(0, 0, 0); fill-opacity: 1; white-space: pre;">MultiQC/MultiQC - Issues Created Over Time</text></g><g class="g-xtitle"><text class="xtitle" x="350" y="472.9" text-anchor="middle" style="opacity: 1; font-family: 'Open Sans'; font-size: 22px; fill: rgb(0, 0, 0); fill-opacity: 1; white-space: pre;">Date</text></g><g class="g-ytitle"><text class="ytitle" transform="rotate(-90,20.799999999999997,260)" x="20.799999999999997" y="260" text-anchor="middle" style="opacity: 1; font-family: 'Open Sans'; font-size: 22px; fill: rgb(0, 0, 0); fill-opacity: 1; white-space: pre;">Cumulative Issues Created</text></g></g></svg>