<svg class="main-svg" xmlns="http://www.w3.org/2000/svg" xmlns:xlink="http://www.w3.org/1999/xlink" width="700" height="500" style="" viewBox="0 0 700 500"><rect x="0" y="0" width="700" height="500" style="fill: rgb(0, 0, 0); fill-opacity: 0;"/><defs id="defs-6c2463"><g class="clips"><clipPath id="clip6c2463xyplot" class="plotclip"><rect width="540" height="320"/></clipPath><clipPath class="axesclip" id="clip6c2463x"><rect x="80" y="0" width="540" height="500"/></clipPath><clipPath class="axesclip" id="clip6c2463y"><rect x="0" y="100" width="700" height="320"/></clipPath><clipPath class="axesclip" id="clip6c2463xy"><rect x="80" y="100" width="540" height="320"/></clipPath></g><g class="gradients"/><g class="patterns"/></defs><g class="bglayer"><rect class="bg" x="80" y="100" width="540" height="320" style="fill: rgb(0, 0, 0); fill-opacity: 0; stroke-width: 0;"/></g><g class="layer-below"><g class="imagelayer"/><g class="shapelayer"/></g><g class="cartesianlayer"><g class="subplot xy"><g class="layer-subplot"><g class="shapelayer"/><g class="imagelayer"/></g><g class="minor-gridlayer"><g class="x"/><g class="y"/></g><g class="gridlayer"><g class="x"><path class="xgrid crisp" transform="translate(101.71000000000001,0)" d="M0,100v320" style="stroke: rgb(255, 255, 255); stroke-opacity: 1; stroke-width: 1px;"/><path class="xgrid crisp" transform="translate(205.42000000000002,0)" d="M0,100v320" style="stroke: rgb(255, 255, 255); stroke-opacity: 1; stroke-width: 1px;"/><path class="xgrid crisp" transform="translate(309,0)" d="M0,100v320" style="stroke: rgb(255, 255, 255); stroke-opacity: 1; stroke-width: 1px;"/><path class="xgrid crisp" transform="translate(412.71,0)" d="M0,100v320" style="stroke: rgb(255, 255, 255); stroke-opacity: 1; stroke-width: 1px;"/><path class="xgrid crisp" transform="translate(516.28,0)" d="M0,100v320" style="stroke: rgb(255, 255, 255); stroke-opacity: 1; stroke-width: 1px;"/></g><g class="y"><path class="ygrid crisp" transform="translate(0,353.90999999999997)" d="M80,0h540" style="stroke: rgb(255, 255, 255); stroke-opacity: 1; stroke-width: 1px;"/><path class="ygrid crisp" transform="translate(0,287.83000000000004)" d="M80,0h540" style="stroke: rgb(255, 255, 255); stroke-opacity: 1; stroke-width: 1px;"/><path class="ygrid crisp" transform="translate(0,221.74)" d="M80,0h540" style="stroke: rgb(255, 255, 255); stroke-opacity: 1; stroke-width: 1px;"/><path class="ygrid crisp" transform="translate(0,155.65)" d="M80,0h540" style="stroke: rgb(255, 255, 255); stroke-opacity: 1; stroke-width: 1px;"/></g></g><g class="zerolinelayer"><path class="yzl zl crisp" transform="translate(0,420)" d="M80,0h540" style="stroke: rgb(255, 255, 255); stroke-opacity: 1; stroke-width: 2px;"/></g><g class="layer-between"><g class="shapelayer"/><g class="imagelayer"/></g><path class="xlines-below"/><path class="ylines-below"/><g class="overlines-below"/><g class="xaxislayer-below"/><g class="yaxislayer-below"/><g class="overaxes-below"/><g class="overplot"><g class="xy" transform="translate(80,100)" clip-path="url(#clip6c2463xyplot)"><g class="scatterlayer mlayer"><g class="trace scatter tracecd2dee" style="stroke-miterlimit: 2;"><g class="fills"><g><path class="js-fill" d="M540,320L0,320L0,286.96L4.4,49.04L8.65,174.61L13.05,154.78L17.31,260.52L21.71,267.13L26.11,240.7L30.22,240.7L34.62,174.61L38.88,168L43.27,194.43L47.53,207.65L51.93,247.3L56.33,194.43L60.58,207.65L64.98,207.65L69.24,240.7L73.64,253.91L78.03,234.09L82.01,194.43L86.41,234.09L90.66,253.91L95.06,234.09L99.32,134.96L103.72,220.87L108.11,227.48L112.37,273.74L116.77,247.3L121.02,240.7L125.42,201.04L129.82,227.48L133.79,240.7L138.19,201.04L142.45,214.26L146.85,273.74L151.1,220.87L155.5,267.13L159.9,227.48L164.16,247.3L172.81,260.52L177.21,240.7L181.61,280.35L185.58,201.04L189.98,201.04L194.24,247.3L198.63,293.57L202.89,234.09L207.29,267.13L211.69,260.52L215.94,227.48L220.34,181.22L224.6,234.09L229,253.91L233.39,273.74L237.51,207.65L241.91,227.48L246.16,181.22L250.56,207.65L254.82,201.04L259.22,227.48L263.62,207.65L267.87,207.65L272.27,260.52L276.53,293.57L280.92,286.96L285.32,267.13L289.3,207.65L293.69,253.91L297.95,227.48L302.35,168L306.61,214.26L311,227.48L315.4,227.48L319.66,260.52L324.06,247.3L328.31,280.35L332.71,273.74L337.11,201.04L341.08,260.52L345.48,267.13L349.74,194.43L354.14,260.52L358.39,253.91L362.79,273.74L367.19,234.09L371.45,214.26L375.84,273.74L380.1,273.74L384.5,247.3L388.9,220.87L392.87,214.26L397.27,240.7L401.52,260.52L405.92,260.52L410.18,234.09L414.58,201.04L418.98,141.57L423.23,168L427.63,187.83L431.89,234.09L436.28,240.7L440.68,16L444.8,187.83L449.2,174.61L453.45,134.96L457.85,174.61L462.11,194.43L466.51,121.74L470.9,148.17L475.16,168L479.56,194.43L483.82,234.09L488.21,234.09L496.58,220.87L500.98,234.09L505.24,240.7L509.64,240.7L513.89,194.43L518.29,240.7L522.69,234.09L526.95,247.3L531.35,267.13L535.6,181.22L540,273.74" style="fill: rgb(255, 127, 14); fill-opacity: 0.5; stroke-width: 0;"/></g></g><g class="errorbars"/><g class="lines"><path class="js-line" d="M0,286.96L4.4,49.04L8.65,174.61L13.05,154.78L17.31,260.52L21.71,267.13L26.11,240.7L30.22,240.7L34.62,174.61L38.88,168L43.27,194.43L47.53,207.65L51.93,247.3L56.33,194.43L60.58,207.65L64.98,207.65L69.24,240.7L73.64,253.91L78.03,234.09L82.01,194.43L86.41,234.09L90.66,253.91L95.06,234.09L99.32,134.96L103.72,220.87L108.11,227.48L112.37,273.74L116.77,247.3L121.02,240.7L125.42,201.04L129.82,227.48L133.79,240.7L138.19,201.04L142.45,214.26L146.85,273.74L151.1,220.87L155.5,267.13L159.9,227.48L164.16,247.3L172.81,260.52L177.21,240.7L181.61,280.35L185.58,201.04L189.98,201.04L194.24,247.3L198.63,293.57L202.89,234.09L207.29,267.13L211.69,260.52L215.94,227.48L220.34,181.22L224.6,234.09L229,253.91L233.39,273.74L237.51,207.65L241.91,227.48L246.16,181.22L250.56,207.65L254.82,201.04L259.22,227.48L263.62,207.65L267.87,207.65L272.27,260.52L276.53,293.57L280.92,286.96L285.32,267.13L289.3,207.65L293.69,253.91L297.95,227.48L302.35,168L306.61,214.26L311,227.48L315.4,227.48L319.66,260.52L324.06,247.3L328.31,280.35L332.71,273.74L337.11,201.04L341.08,260.52L345.48,267.13L349.74,194.43L354.14,260.52L358.39,253.91L362.79,273.74L367.19,234.09L371.45,214.26L375.84,273.74L380.1,273.74L384.5,247.3L388.9,220.87L392.87,214.26L397.27,240.7L401.52,260.52L405.92,260.52L410.18,234.09L414.58,201.04L418.98,141.57L423.23,168L427.63,187.83L431.89,234.09L436.28,240.7L440.68,16L444.8,187.83L449.2,174.61L453.45,134.96L457.85,174.61L462.11,194.43L466.51,121.74L470.9,148.17L475.16,168L479.56,194.43L483.82,234.09L488.21,234.09L496.58,220.87L500.98,234.09L505.24,240.7L509.64,240.7L513.89,194.43L518.29,240.7L522.69,234.09L526.95,247.3L531.35,267.13L535.6,181.22L540,273.74" style="vector-effect: none; fill: none; stroke: rgb(255, 127, 14); stroke-opacity: 1; stroke-width: 2px; opacity: 1;"/></g><g class="points"/><g class="text"/></g></g></g></g><g class="zerolinelayer-above"/><path class="xlines-above crisp" d="M0,0" style="fill: none;"/><path class="ylines-above crisp" d="M0,0" style="fill: none;"/><g class="overlines-above"/><g class="xaxislayer-above"><g class="xtick"><text text-anchor="middle" x="0" y="439" transform="translate(101.71000000000001,0)" style="font-family: 'Open Sans'; font-size: 18px; fill: rgb(0, 0, 0); fill-opacity: 1; white-space: pre;">2016</text></g><g class="xtick"><text text-anchor="middle" x="0" y="439" style="font-family: 'Open Sans'; font-size: 18px; fill: rgb(0, 0, 0); fill-opacity: 1; white-space: pre;" transform="translate(205.42000000000002,0)">2018</text></g><g class="xtick"><text text-anchor="middle" x="0" y="439" style="font-family: 'Open Sans'; font-size: 18px; fill: rgb(0, 0, 0); fill-opacity: 1; white-space: pre;" transform="translate(309,0)">2020</text></g><g class="xtick"><text text-anchor="middle" x="0" y="439" style="font-family: 'Open Sans'; font-size: 18px; fill: rgb(0, 0, 0); fill-opacity: 1; white-space: pre;" transform="translate(412.71,0)">2022</text></g><g class="xtick"><text text-anchor="middle" x="0" y="439" style="font-family: 'Open Sans'; font-size: 18px; fill: rgb(0, 0, 0); fill-opacity: 1; white-space: pre;" transform="translate(516.28,0)">2024</text></g><g class="xtick"><text text-anchor="middle" x="0" y="439" style="font-family: 'Open Sans'; font-size: 18px; fill: rgb(0, 0, 0); fill-opacity: 1; white-space: pre;" transform="translate(620,0)">2026</text></g></g><g class="yaxislayer-above"><g class="ytick"><text text-anchor="end" x="79" y="6.3" transform="translate(0,420)" style="font-family: 'Open Sans'; font-size: 18px; fill: rgb(0, 0, 0); fill-opacity: 1; white-space: pre;">0</text></g><g class="ytick"><text text-anchor="end" x="79" y="6.3" style="font-family: 'Open Sans'; font-size: 18px; fill: rgb(0, 0, 0); fill-opacity: 1; white-space: pre;" transform="translate(0,353.90999999999997)">10</text></g><g class="ytick"><text text-anchor="end" x="79" y="6.3" style="font-family: 'Open Sans'; font-size: 18px; fill: rgb(0, 0, 0); fill-opacity: 1; white-space: pre;" transform="translate(0,287.83000000000004)">20</text></g><g class="ytick"><text text-anchor="end" x="79" y="6.3" style="font-family: 'Open Sans'; font-size: 18px; fill: rgb(0, 0, 0); fill-opacity: 1; white-space: pre;" transform="translate(0,221.74)">30</text></g><g class="ytick"><text text-anchor="end" x="79" y="6.3" style="font-family: 'Open Sans'; font-size: 18px; fill: rgb(0, 0, 0); fill-opacity: 1; white-space: pre;" transform="translate(0,155.65)">40</text></g></g><g class="overaxes-above"/></g></g><g class="polarlayer"/><g class="smithlayer"/><g class="ternarylayer"/><g class="geolayer"/><g class="funnelarealayer"/><g class="pielayer"/><g class="iciclelayer"/><g class="treemaplayer"/><g class="sunburstlayer"/><g class="glimages"/><defs id="topdefs-6c2463"><g class="clips"/></defs><g class="layer-above"><g class="imagelayer"/><g class="shapelayer"/></g><g class="infolayer"><g class="g-gtitle"><text class="gtitle" x="35" y="50" text-anchor="start" dy="0em" style="opacity: 1; font-family: 'Open Sans'; font-size: 25px; fill: rgb(0, 0, 0); fill-opacity: 1; white-space: pre;">MultiQC/MultiQC - New Issues Per Month</text></g><g class="g-xtitle"><text class="xtitle" x="350" y="472.9" text-anchor="middle" style="opacity: 1; font-family: 'Open Sans'; font-size: 22px; fill: rgb(0, 0, 0); fill-opacity: 1; white-space: pre;">Month</text></g><g class="g-ytitle"><text class="ytitle" transform="rotate(-90,38.8,260)" x="38.8" y="260" text-anchor="middle" style="opacity: 1; font-family: 'Open Sans'; font-size: 22px; fill: rgb(0, 0, 0); fill-opacity: 1; white-space: pre;">New Issues Created</text></g></g></svg>