<svg class="main-svg" xmlns="http://www.w3.org/2000/svg" xmlns:xlink="http://www.w3.org/1999/xlink" width="700" height="500" style="" viewBox="0 0 700 500"><rect x="0" y="0" width="700" height="500" style="fill: rgb(0, 0, 0); fill-opacity: 0;"/><defs id="defs-675fc7"><g class="clips"><clipPath id="clip675fc7xyplot" class="plotclip"><rect width="540" height="320"/></clipPath><clipPath class="axesclip" id="clip675fc7x"><rect x="80" y="0" width="540" height="500"/></clipPath><clipPath class="axesclip" id="clip675fc7y"><rect x="0" y="100" width="700" height="320"/></clipPath><clipPath class="axesclip" id="clip675fc7xy"><rect x="80" y="100" width="540" height="320"/></clipPath></g><g class="gradients"/><g class="patterns"/></defs><g class="bglayer"><rect class="bg" x="80" y="100" width="540" height="320" style="fill: rgb(0, 0, 0); fill-opacity: 0; stroke-width: 0;"/></g><g class="layer-below"><g class="imagelayer"/><g class="shapelayer"/></g><g class="cartesianlayer"><g class="subplot xy"><g class="layer-subplot"><g class="shapelayer"/><g class="imagelayer"/></g><g class="minor-gridlayer"><g class="x"/><g class="y"/></g><g class="gridlayer"><g class="x"><path class="xgrid crisp" transform="translate(100.33,0)" d="M0,100v320" style="stroke: rgb(255, 255, 255); stroke-opacity: 1; stroke-width: 1px;"/><path class="xgrid crisp" transform="translate(201.19,0)" d="M0,100v320" style="stroke: rgb(255, 255, 255); stroke-opacity: 1; stroke-width: 1px;"/><path class="xgrid crisp" transform="translate(301.90999999999997,0)" d="M0,100v320" style="stroke: rgb(255, 255, 255); stroke-opacity: 1; stroke-width: 1px;"/><path class="xgrid crisp" transform="translate(402.77,0)" d="M0,100v320" style="stroke: rgb(255, 255, 255); stroke-opacity: 1; stroke-width: 1px;"/><path class="xgrid crisp" transform="translate(503.49,0)" d="M0,100v320" style="stroke: rgb(255, 255, 255); stroke-opacity: 1; stroke-width: 1px;"/><path class="xgrid crisp" transform="translate(604.35,0)" d="M0,100v320" style="stroke: rgb(255, 255, 255); stroke-opacity: 1; stroke-width: 1px;"/></g><g class="y"><path class="ygrid crisp" transform="translate(0,362.64)" d="M80,0h540" style="stroke: rgb(255, 255, 255); stroke-opacity: 1; stroke-width: 1px;"/><path class="ygrid crisp" transform="translate(0,305.28)" d="M80,0h540" style="stroke: rgb(255, 255, 255); stroke-opacity: 1; stroke-width: 1px;"/><path class="ygrid crisp" transform="translate(0,247.92)" d="M80,0h540" style="stroke: rgb(255, 255, 255); stroke-opacity: 1; stroke-width: 1px;"/><path class="ygrid crisp" transform="translate(0,190.57)" d="M80,0h540" style="stroke: rgb(255, 255, 255); stroke-opacity: 1; stroke-width: 1px;"/><path class="ygrid crisp" transform="translate(0,133.21)" d="M80,0h540" style="stroke: rgb(255, 255, 255); stroke-opacity: 1; stroke-width: 1px;"/></g></g><g class="zerolinelayer"><path class="yzl zl crisp" transform="translate(0,420)" d="M80,0h540" style="stroke: rgb(255, 255, 255); stroke-opacity: 1; stroke-width: 2px;"/></g><g class="layer-between"><g class="shapelayer"/><g class="imagelayer"/></g><path class="xlines-below"/><path class="ylines-below"/><g class="overlines-below"/><g class="xaxislayer-below"/><g class="yaxislayer-below"/><g class="overaxes-below"/><g class="overplot"><g class="xy" transform="translate(80,100)" clip-path="url(#clip675fc7xyplot)"><g class="scatterlayer mlayer"><g class="trace scatter trace0214b8" style="stroke-miterlimit: 2;"><g class="fills"><g><path class="js-fill" d="M540,320L0,320L0,318.85L0,316.56L0.55,317.71L1.79,318.85L1.9,317.71L2.89,318.85L3.7,313.12L3.73,314.26L4.39,313.12L4.81,308.53L4.97,309.68L5.34,310.82L5.5,307.38L5.78,311.97L5.92,309.68L6.22,310.82L6.88,300.5L6.99,299.35L7.16,298.2L7.42,300.5L7.42,301.65L7.43,302.79L7.59,293.62L8.27,292.47L8.65,301.65L8.65,302.79L9.36,309.68L9.37,308.53L9.49,307.38L9.8,302.79L9.8,301.65L10.2,300.5L10.23,302.79L10.23,303.94L11.17,307.38L11.28,306.23L11.43,305.09L12.37,289.03L12.41,294.76L12.42,295.91L12.53,293.62L12.83,297.06L13.01,294.76L13.23,293.62L13.62,287.88L13.77,291.32L14.17,290.17L14.35,289.03L14.48,291.32L15.16,292.47L15.32,295.91L16.49,294.76L17.07,292.47L17.2,291.32L17.91,286.73L17.92,287.88L18.04,286.73L18.48,287.88L20.95,286.73L20.95,287.88L21.35,284.44L21.35,286.73L22.84,285.58L23.03,286.73L23.18,285.58L23.99,284.44L24.7,282.14L24.8,283.29L25.11,282.14L25.83,290.17L25.9,289.03L26.17,285.58L26.62,289.03L26.76,287.88L27,289.03L28.14,290.17L29.55,286.73L29.76,287.88L29.8,291.32L29.8,291.32L30.58,290.17L31.04,293.62L31.04,293.62L31.45,292.47L31.64,298.2L32.52,299.35L33.21,297.06L33.21,298.2L33.34,299.35L34.21,295.91L34.32,297.06L34.92,298.2L35.28,297.06L35.28,298.2L35.42,292.47L35.7,293.62L36.38,292.47L36.6,289.03L36.79,295.91L37.28,297.06L37.35,295.91L37.78,299.35L37.84,300.5L38.05,295.91L38.34,297.06L38.63,298.2L39.46,292.47L39.58,295.91L39.92,294.76L40.12,292.47L40.27,295.91L40.41,294.76L40.54,295.91L41.49,290.17L41.52,291.32L42.31,287.88L42.6,286.73L43.35,289.03L43.84,287.88L44.15,291.32L44.4,287.88L44.59,286.73L44.92,285.58L45.07,289.03L45.08,290.17L45.11,289.03L45.52,294.76L45.91,293.62L45.92,295.91L46.09,292.47L46.49,294.76L47.03,295.91L47.04,299.35L47.32,297.06L47.87,298.2L48.25,297.06L48.25,298.2L48.93,297.06L48.94,298.2L49.12,295.91L49.24,295.91L50.05,294.76L51.19,292.47L51.73,293.62L51.73,294.76L52.15,291.32L52.3,293.62L52.74,292.47L52.84,291.32L53.14,294.76L53.95,293.62L55.24,289.03L55.73,287.88L56.94,277.55L57.01,279.85L57.1,281L57.1,282.14L57.84,278.7L57.96,277.55L57.98,278.7L59.5,277.55L60.68,270.67L60.79,271.82L61.67,269.52L62.2,268.38L62.89,258.05L62.92,260.35L63.64,259.2L64.28,261.49L64.28,262.64L64.29,268.38L64.58,268.38L65.26,267.23L66.48,263.79L67.21,262.64L67.46,269.52L68.34,268.38L69.41,279.85L69.55,278.7L70.07,277.55L70.07,276.41L70.45,276.41L70.89,277.55L71.95,274.11L71.95,275.26L72.38,274.11L72.4,272.97L72.45,274.11L73.29,272.97L74.05,271.82L74.54,270.67L77.78,261.49L77.78,262.64L78.22,266.08L78.35,262.64L78.74,263.79L79.03,264.94L79.09,261.49L79.29,263.79L80,264.94L80.32,259.2L80.33,260.35L81.44,259.2L81.64,260.35L81.83,259.2L82.06,258.05L82.09,256.91L82.78,260.35L82.91,259.2L83.04,260.35L83.6,256.91L83.61,258.05L83.75,259.2L84.14,263.79L84.54,262.64L84.87,261.49L84.88,259.2L84.98,262.64L85.93,261.49L85.93,262.64L85.95,260.35L86.61,262.64L86.77,261.49L87.56,263.79L87.88,262.64L88.44,263.79L88.53,264.94L88.83,269.52L89.36,268.38L89.66,276.41L89.94,274.11L90.4,272.97L91.43,269.52L91.56,270.67L91.56,271.82L93.38,264.94L93.4,266.08L95.44,259.2L95.57,260.35L95.57,261.49L96.45,263.79L96.55,264.94L97.38,275.26L97.69,274.11L98.08,276.41L98.08,275.26L98.18,274.11L98.22,276.41L98.63,264.94L98.64,264.94L99.04,263.79L99.35,261.49L99.61,267.23L99.99,266.08L100.96,263.79L100.97,264.94L100.97,266.08L101.09,268.38L101.52,267.23L102,266.08L102.34,269.52L102.47,267.23L102.87,266.08L102.89,267.23L103.43,264.94L103.45,266.08L104.02,264.94L104.13,263.79L104.13,264.94L104.8,266.08L104.8,267.23L105.39,266.08L105.94,264.94L106.34,261.49L106.75,260.35L108.08,254.61L108.12,255.76L108.19,256.91L110.21,253.46L110.76,254.61L112.13,251.17L112.58,252.32L112.87,251.17L113.69,278.7L113.79,277.55L114.4,275.26L114.66,276.41L115.07,275.26L115.07,276.41L116.03,275.26L116.42,276.41L116.71,275.26L116.73,274.11L117.4,272.97L117.64,274.11L117.65,276.41L117.87,271.82L118.37,270.67L118.37,271.82L118.78,269.52L118.84,269.52L119.39,268.38L119.39,267.23L119.87,272.97L121.57,271.82L121.78,272.97L121.83,271.82L122.34,270.67L122.77,266.08L123.54,264.94L125.19,260.35L125.56,261.49L126.02,259.2L126.1,260.35L126.1,261.49L126.24,267.23L126.6,264.94L127.12,263.79L127.63,261.49L127.86,262.64L127.87,263.79L128.45,267.23L129.15,266.08L130.11,261.49L130.48,262.64L131.15,261.49L132.19,260.35L133.31,256.91L134.1,258.05L134.1,256.91L134.82,256.91L134.89,258.05L135.39,256.91L135.74,255.76L135.75,258.05L136.27,253.46L136.27,253.46L136.71,252.32L136.71,250.02L137.26,251.17L137.61,250.02L138.1,247.73L138.13,246.58L138.2,245.43L138.25,248.88L138.79,247.73L138.81,248.88L139.21,246.58L139.83,247.73L140.21,244.29L140.46,254.61L141.01,253.46L141.73,251.17L141.81,252.32L141.81,251.17L141.83,253.46L142.98,252.32L143.62,251.17L143.73,253.46L144.53,252.32L144.55,253.46L145.18,250.02L145.24,251.17L145.79,252.32L147.49,250.02L147.5,251.17L148.58,245.43L149.44,244.29L149.68,241.99L150.2,243.14L150.2,241.99L150.85,247.73L151.21,246.58L152.37,245.43L152.7,246.58L155.05,240.85L155.19,241.99L155.98,236.26L156.15,235.11L156.59,232.82L156.6,231.67L157.98,228.23L157.98,229.37L159.48,225.93L159.48,227.08L159.92,228.23L159.92,230.52L160.35,229.37L160.98,228.23L161.38,225.93L161.4,224.78L161.61,232.82L162.85,231.67L163.09,229.37L164.17,228.23L164.88,232.82L165.22,231.67L168.06,222.49L168.12,221.34L168.17,222.49L169.87,221.34L170.11,225.93L170.12,227.08L170.13,230.52L170.53,228.23L172.44,227.08L172.46,229.37L172.61,228.23L173.34,227.08L173.84,222.49L173.85,223.64L174.36,224.78L174.71,225.93L175.59,221.34L175.65,222.49L175.78,223.64L176.6,222.49L176.61,223.64L177.58,222.49L177.88,221.34L179.13,220.2L179.75,217.9L179.79,216.75L180.31,214.46L180.32,215.61L180.73,214.46L180.75,216.75L181.4,215.61L181.58,214.46L182.25,215.61L182.54,214.46L182.54,213.31L183.26,213.31L183.44,212.17L184.18,209.87L184.32,208.72L184.5,209.87L184.64,207.58L184.65,208.72L185.43,207.58L186.78,199.55L186.78,201.84L187.04,200.69L187.37,198.4L187.67,199.55L188.18,198.4L188.38,196.11L188.83,198.4L189.09,197.25L189.46,194.96L190.01,193.81L191.15,192.66L191.15,193.81L191.23,192.66L191.26,193.81L192.58,192.66L193.3,193.81L194.01,192.66L194.23,191.52L194.23,192.66L196.05,191.52L196.73,190.37L196.75,191.52L196.75,192.66L197.12,191.52L197.94,192.66L197.94,193.81L198.62,193.81L198.79,192.66L199.75,190.37L200.45,189.22L201.08,185.78L201.45,186.93L202.81,182.34L203.13,183.49L204.52,182.34L205.72,180.05L205.83,181.19L208.29,176.6L208.59,177.75L208.94,174.31L209.67,173.16L210.09,175.46L210.13,174.31L210.4,173.16L211.12,170.87L211.33,172.02L211.37,173.16L211.39,176.6L212.11,173.16L212.16,174.31L212.53,172.02L212.61,177.75L212.61,178.9L213.77,175.46L213.89,176.6L213.96,177.75L214.42,174.31L214.55,176.6L214.58,177.75L215.23,181.19L215.23,182.34L215.52,197.25L216.01,196.11L216.87,202.99L217.01,201.84L217.02,202.99L217.44,198.4L217.59,200.69L217.86,201.84L219.37,192.66L219.72,191.52L219.88,188.08L219.98,192.66L220.88,191.52L222.84,189.22L222.87,188.08L223.44,182.34L223.81,181.19L224.25,182.34L225.86,181.19L226.99,178.9L227.07,177.75L227.9,176.6L228.31,177.75L229.02,175.46L230.83,174.31L231.4,172.02L231.48,170.87L232.35,167.43L232.47,168.57L232.65,167.43L233.78,166.28L234.09,162.84L234.11,169.72L234.11,170.87L234.11,172.02L234.65,167.43L235.07,166.28L235.27,167.43L236.22,166.28L236.36,167.43L236.6,166.28L237.18,167.43L237.25,166.28L237.42,170.87L237.84,168.57L238.1,169.72L238.4,168.57L238.42,170.87L238.52,170.87L238.53,172.02L239.95,167.43L239.96,168.57L240.35,165.13L240.49,170.87L240.85,169.72L241.15,168.57L241.3,169.72L241.33,170.87L241.41,169.72L241.71,172.02L242.02,173.16L242.11,170.87L242.15,182.34L242.15,183.49L242.26,181.19L243.08,200.69L243.24,199.55L243.24,200.69L243.9,199.55L244.11,198.4L244.91,194.96L245,196.11L246.27,188.08L246.42,189.22L246.69,188.08L247.89,184.63L247.9,185.78L248.04,186.93L248.62,183.49L248.92,182.34L249.11,181.19L249.74,182.34L250.35,176.6L250.8,175.46L251.27,170.87L251.28,172.02L251.8,173.16L252.6,168.57L252.78,167.43L254.01,160.54L254.44,159.4L254.63,158.25L255.66,157.1L257.04,150.22L257.45,149.07L258.59,145.63L258.6,146.78L262.36,134.16L262.37,135.31L265.29,120.39L265.5,121.54L265.51,123.83L266.42,122.69L266.42,123.83L267.12,120.39L267.73,119.25L268.02,120.39L269.15,119.25L269.44,115.8L271.83,116.95L271.99,143.34L272.88,142.19L274.04,143.34L274.19,142.19L274.19,141.04L274.27,144.48L274.44,142.19L275.03,143.34L277.87,142.19L278.58,141.04L279.13,137.6L279.14,136.45L279.25,138.75L279.88,136.45L279.93,137.6L280.84,136.45L281.09,137.6L281.61,142.19L281.78,139.89L282,141.04L282,142.19L282.29,139.89L282.74,139.89L282.98,138.75L283.72,136.45L283.81,135.31L284.18,133.01L284.53,134.16L284.54,135.31L284.82,146.78L285.74,145.63L285.91,146.78L286.41,144.48L286.42,145.63L286.42,146.78L287.4,144.48L287.57,145.63L287.68,143.34L288.12,144.48L288.48,145.63L288.94,146.78L289.44,145.63L290.87,141.04L291.17,139.89L291.49,142.19L291.64,137.6L291.76,138.75L291.81,137.6L292.35,138.75L293.46,137.6L293.48,138.75L294.01,136.45L294.35,135.31L294.66,130.72L294.93,131.86L295.3,133.01L295.31,137.6L295.49,135.31L296.5,134.16L297.21,144.48L297.21,143.34L297.31,142.19L297.34,141.04L297.65,151.37L297.79,151.37L297.89,152.51L297.93,160.54L298.62,158.25L298.96,159.4L299.65,154.81L299.81,155.95L300.47,153.66L301,152.51L301.03,153.66L301.3,150.22L302.1,149.07L302.33,150.22L302.33,149.07L302.94,147.92L303.25,151.37L303.36,147.92L303.8,146.78L304.19,143.34L304.81,142.19L305.01,141.04L306.3,139.89L306.96,136.45L307.01,135.31L308.2,128.42L309.16,127.28L311.81,119.25L312.89,118.1L313.65,115.8L314.45,114.66L314.58,112.36L315.31,113.51L315.66,130.72L315.85,129.57L316.12,130.72L316.4,129.57L316.42,131.86L316.76,130.72L317.38,131.86L317.88,130.72L318.59,131.86L319.7,128.42L320.63,127.28L321.88,126.13L322.21,127.28L322.26,128.42L323.24,127.28L323.75,124.98L324.2,126.13L324.37,124.98L324.79,126.13L324.82,127.28L324.82,128.42L325.48,126.13L326.14,127.28L327.11,159.4L327.39,158.25L327.55,154.81L327.99,159.4L328.14,160.54L329.55,150.22L329.89,149.07L330.01,151.37L330.46,150.22L330.88,149.07L331.84,151.37L332.23,150.22L333.18,149.07L333.19,150.22L334,147.92L334.34,146.78L334.74,147.92L335.11,146.78L335.12,145.63L335.67,146.78L335.69,145.63L335.93,144.48L336.12,142.19L337.21,141.04L337.48,139.89L338.54,138.75L340.11,134.16L340.11,135.31L340.13,136.45L341.07,131.86L341.59,133.01L342.41,128.42L342.41,129.57L342.9,128.42L342.94,129.57L343.55,126.13L343.6,124.98L343.66,123.83L344.93,122.69L345.76,120.39L345.79,119.25L346.59,116.95L346.91,115.8L347.82,120.39L348.2,119.25L348.38,118.1L349.85,115.8L350.06,116.95L351.13,114.66L351.68,113.51L353.2,108.92L353.79,107.77L354.15,106.63L354.36,107.77L354.41,108.92L354.43,107.77L355.29,106.63L356.38,104.33L356.49,103.18L357.45,102.04L357.47,103.18L357.48,104.33L357.53,119.25L358.16,115.8L358.42,116.95L359.02,114.66L359.26,113.51L359.98,114.66L360.87,113.51L361.48,110.07L361.59,111.22L361.86,110.07L363.11,107.77L363.93,106.63L364.54,104.33L364.54,103.18L364.54,97.45L365.77,96.3L366.77,92.86L368.23,94.01L368.23,96.3L368.63,92.86L368.98,92.86L369.46,94.01L369.78,91.71L370.03,92.86L370.88,91.71L371.02,90.57L371.02,91.71L372.3,92.86L372.92,91.71L372.97,92.86L373.13,94.01L373.73,95.15L374.04,96.3L374.23,108.92L375.19,110.07L376.17,107.77L376.68,106.63L376.8,104.33L376.84,107.77L377.25,108.92L378.43,100.89L378.45,102.04L378.46,106.63L378.76,104.33L379.3,103.18L380.57,99.74L381.67,98.6L382.36,95.15L383.05,94.01L383.41,90.57L383.87,92.86L384.12,91.71L385.11,85.98L385.11,87.12L386.5,85.98L387.26,80.24L387.27,82.54L388.06,81.39L388.38,82.54L388.42,81.39L388.91,80.24L389.45,77.95L390.08,79.09L391,75.65L391.62,74.51L392.22,72.21L392.44,73.36L392.57,74.51L392.87,75.65L393.07,74.51L394.22,75.65L397.77,65.33L398.47,66.48L399.53,63.03L399.61,61.89L399.67,63.03L399.84,58.45L400.44,59.59L400.51,57.3L401.62,56.15L401.78,53.86L401.96,56.15L402.21,57.3L402.6,56.15L402.76,57.3L402.79,58.45L403.05,60.74L403.57,59.59L404.58,52.71L404.62,56.15L405.26,55L405.34,53.86L405.55,56.15L405.77,56.15L405.93,57.3L406.7,52.71L407.01,53.86L407.02,55L407.15,57.3L407.63,52.71L407.95,51.56L408.52,49.27L408.52,50.42L408.58,51.56L409.12,46.97L409.22,49.27L409.47,50.42L409.63,48.12L409.77,59.59L409.77,60.74L410.16,65.33L410.44,55L410.52,59.59L410.61,58.45L411.12,61.89L411.12,63.03L411.58,58.45L411.95,59.59L412.9,52.71L413.01,53.86L413.08,55L413.09,65.33L413.8,61.89L414.1,60.74L414.87,58.45L414.88,59.59L415.1,58.45L415.5,61.89L415.77,60.74L415.97,59.59L416.13,61.89L416.21,60.74L416.77,59.59L417.39,68.77L417.42,67.62L417.79,66.48L417.86,65.33L418.17,68.77L418.43,67.62L418.76,66.48L419.17,63.03L419.34,65.33L419.86,64.18L420.27,60.74L420.66,63.03L420.66,64.18L421.49,80.24L421.69,79.09L422.1,76.8L422.91,75.65L423.05,79.09L424,80.24L426.07,75.65L426.11,76.8L427.02,73.36L427.63,72.21L428.18,75.65L428.18,76.8L428.56,79.09L428.82,75.65L428.93,76.8L428.99,75.65L429.26,79.09L429.67,76.8L429.75,75.65L430.02,69.92L430.39,76.8L430.48,75.65L430.58,74.51L430.76,72.21L430.87,80.24L431.32,75.65L431.42,74.51L432.04,69.92L432.18,72.21L432.25,71.06L432.68,69.92L432.82,74.51L432.82,75.65L433.12,95.15L433.53,90.57L433.63,91.71L433.63,92.86L434.37,91.71L434.44,90.57L434.59,89.42L434.65,98.6L434.79,96.3L434.89,97.45L435.69,95.15L436.28,94.01L437.08,89.42L437.24,88.27L437.8,83.68L438.08,87.12L438.08,88.27L438.23,85.98L438.5,90.57L438.59,91.71L439.41,90.57L439.53,89.42L440.03,91.71L440.11,88.27L440.16,87.12L440.16,88.27L440.67,82.54L440.96,81.39L440.98,80.24L441.07,83.68L441.41,81.39L441.89,80.24L441.9,81.39L442.47,72.21L442.5,74.51L443.28,73.36L443.75,69.92L444.3,71.06L444.42,68.77L444.7,74.51L445.06,73.36L445.08,72.21L445.39,71.06L445.65,73.36L445.93,72.21L446.11,74.51L446.46,72.21L446.79,73.36L447.31,67.62L447.65,69.92L447.71,71.06L447.83,69.92L447.86,73.36L448.29,71.06L448.7,69.92L448.71,68.77L449.24,79.09L449.4,75.65L449.65,76.8L449.66,75.65L449.94,79.09L450.04,77.95L450.6,79.09L450.78,77.95L451.03,80.24L451.48,79.09L452,77.95L452.05,79.09L452.12,80.24L452.69,82.54L452.69,81.39L452.83,80.24L452.97,76.8L453.51,80.24L453.84,79.09L454.08,75.65L454.46,79.09L454.5,80.24L454.8,79.09L455.61,97.45L455.88,96.3L457.53,82.54L457.62,83.68L457.7,81.39L457.8,91.71L458.08,91.71L458.62,90.57L459.28,99.74L459.42,97.45L459.49,96.3L459.56,97.45L459.82,91.71L460.41,92.86L460.65,89.42L460.68,94.01L460.84,92.86L461.29,94.01L461.56,95.15L462.18,90.57L462.48,91.71L462.5,95.15L463.16,92.86L463.29,94.01L463.72,91.71L464.41,90.57L464.67,85.98L464.97,90.57L465.26,89.42L466.35,80.24L467.1,81.39L467.6,92.86L468,91.71L468.09,94.01L468.43,87.12L468.59,88.27L468.84,87.12L469.3,94.01L469.98,92.86L470.16,91.71L470.48,94.01L470.48,95.15L471.11,92.86L471.35,105.48L471.44,104.33L471.44,102.04L471.99,108.92L472.26,107.77L472.47,108.92L473.89,107.77L474.46,108.92L474.75,107.77L475.19,108.92L475.21,107.77L475.73,106.63L475.74,105.48L475.99,108.92L476.06,107.77L476.67,106.63L476.88,107.77L477.2,106.63L477.59,105.48L477.66,103.18L477.8,106.63L478.08,105.48L478.59,104.33L478.67,103.18L479.08,107.77L479.09,108.92L480.15,105.48L480.53,106.63L480.78,104.33L481.08,106.63L481.08,107.77L481.65,108.92L481.82,107.77L481.85,106.63L482.59,100.89L482.77,103.18L483.59,104.33L483.59,103.18L483.87,103.18L484.99,102.04L485.53,98.6L485.77,100.89L485.86,99.74L486.49,95.15L486.67,94.01L487.31,96.3L487.34,94.01L487.48,92.86L488.28,91.71L488.83,92.86L488.85,95.15L489.37,95.15L489.66,94.01L489.66,92.86L490.35,95.15L490.54,94.01L490.63,92.86L491.52,91.71L492.12,92.86L492.54,91.71L493.28,87.12L493.5,85.98L493.52,87.12L493.67,85.98L494.37,84.83L494.62,87.12L495.07,85.98L495.17,87.12L495.57,82.54L495.73,84.83L496,85.98L496.26,82.54L497.99,83.68L498.31,80.24L498.92,81.39L499.17,92.86L499.73,91.71L499.85,92.86L499.99,90.57L500.42,91.71L500.81,90.57L501.11,87.12L502.03,85.98L502.16,83.68L503.15,82.54L503.8,80.24L503.9,79.09L504.02,76.8L505.41,77.95L505.81,95.15L506.09,92.86L506.17,91.71L506.23,94.01L506.94,92.86L507.86,89.42L507.86,90.57L508.57,96.3L508.61,95.15L509.03,94.01L509.65,89.42L509.68,90.57L510.12,89.42L512.53,84.83L512.84,83.68L513.92,80.24L514.81,79.09L514.91,76.8L515.1,77.95L515.72,76.8L516.36,74.51L517.82,73.36L519.34,69.92L519.47,68.77L520.68,63.03L520.69,64.18L520.72,63.03L520.76,66.48L521.32,64.18L521.53,63.03L522.34,55L522.48,53.86L523.03,50.42L525.93,49.27L527.36,42.38L529.15,41.24L529.17,40.09L530.1,38.94L530.11,40.09L530.61,36.65L530.92,35.5L531.25,33.21L533.1,32.06L534.91,29.77L535.07,28.62L536.01,26.32L536.07,25.18L536.19,26.32L536.75,25.18L536.97,24.03L539.65,18.29L539.85,17.15L540,16L540,17.15" style="fill: rgb(255, 127, 14); fill-opacity: 0.5; stroke-width: 0;"/></g></g><g class="errorbars"/><g class="lines"><path class="js-line" d="M0,318.85L0,316.56L0.55,317.71L1.79,318.85L1.9,317.71L2.89,318.85L3.7,313.12L3.73,314.26L4.39,313.12L4.81,308.53L4.97,309.68L5.34,310.82L5.5,307.38L5.78,311.97L5.92,309.68L6.22,310.82L6.88,300.5L6.99,299.35L7.16,298.2L7.42,300.5L7.42,301.65L7.43,302.79L7.59,293.62L8.27,292.47L8.65,301.65L8.65,302.79L9.36,309.68L9.37,308.53L9.49,307.38L9.8,302.79L9.8,301.65L10.2,300.5L10.23,302.79L10.23,303.94L11.17,307.38L11.28,306.23L11.43,305.09L12.37,289.03L12.41,294.76L12.42,295.91L12.53,293.62L12.83,297.06L13.01,294.76L13.23,293.62L13.62,287.88L13.77,291.32L14.17,290.17L14.35,289.03L14.48,291.32L15.16,292.47L15.32,295.91L16.49,294.76L17.07,292.47L17.2,291.32L17.91,286.73L17.92,287.88L18.04,286.73L18.48,287.88L20.95,286.73L20.95,287.88L21.35,284.44L21.35,286.73L22.84,285.58L23.03,286.73L23.18,285.58L23.99,284.44L24.7,282.14L24.8,283.29L25.11,282.14L25.83,290.17L25.9,289.03L26.17,285.58L26.62,289.03L26.76,287.88L27,289.03L28.14,290.17L29.55,286.73L29.76,287.88L29.8,291.32L29.8,291.32L30.58,290.17L31.04,293.62L31.04,293.62L31.45,292.47L31.64,298.2L32.52,299.35L33.21,297.06L33.21,298.2L33.34,299.35L34.21,295.91L34.32,297.06L34.92,298.2L35.28,297.06L35.28,298.2L35.42,292.47L35.7,293.62L36.38,292.47L36.6,289.03L36.79,295.91L37.28,297.06L37.35,295.91L37.78,299.35L37.84,300.5L38.05,295.91L38.34,297.06L38.63,298.2L39.46,292.47L39.58,295.91L39.92,294.76L40.12,292.47L40.27,295.91L40.41,294.76L40.54,295.91L41.49,290.17L41.52,291.32L42.31,287.88L42.6,286.73L43.35,289.03L43.84,287.88L44.15,291.32L44.4,287.88L44.59,286.73L44.92,285.58L45.07,289.03L45.08,290.17L45.11,289.03L45.52,294.76L45.91,293.62L45.92,295.91L46.09,292.47L46.49,294.76L47.03,295.91L47.04,299.35L47.32,297.06L47.87,298.2L48.25,297.06L48.25,298.2L48.93,297.06L48.94,298.2L49.12,295.91L49.24,295.91L50.05,294.76L51.19,292.47L51.73,293.62L51.73,294.76L52.15,291.32L52.3,293.62L52.74,292.47L52.84,291.32L53.14,294.76L53.95,293.62L55.24,289.03L55.73,287.88L56.94,277.55L57.01,279.85L57.1,281L57.1,282.14L57.84,278.7L57.96,277.55L57.98,278.7L59.5,277.55L60.68,270.67L60.79,271.82L61.67,269.52L62.2,268.38L62.89,258.05L62.92,260.35L63.64,259.2L64.28,261.49L64.28,262.64L64.29,268.38L64.58,268.38L65.26,267.23L66.48,263.79L67.21,262.64L67.46,269.52L68.34,268.38L69.41,279.85L69.55,278.7L70.07,277.55L70.07,276.41L70.45,276.41L70.89,277.55L71.95,274.11L71.95,275.26L72.38,274.11L72.4,272.97L72.45,274.11L73.29,272.97L74.05,271.82L74.54,270.67L77.78,261.49L77.78,262.64L78.22,266.08L78.35,262.64L78.74,263.79L79.03,264.94L79.09,261.49L79.29,263.79L80,264.94L80.32,259.2L80.33,260.35L81.44,259.2L81.64,260.35L81.83,259.2L82.06,258.05L82.09,256.91L82.78,260.35L82.91,259.2L83.04,260.35L83.6,256.91L83.61,258.05L83.75,259.2L84.14,263.79L84.54,262.64L84.87,261.49L84.88,259.2L84.98,262.64L85.93,261.49L85.93,262.64L85.95,260.35L86.61,262.64L86.77,261.49L87.56,263.79L87.88,262.64L88.44,263.79L88.53,264.94L88.83,269.52L89.36,268.38L89.66,276.41L89.94,274.11L90.4,272.97L91.43,269.52L91.56,270.67L91.56,271.82L93.38,264.94L93.4,266.08L95.44,259.2L95.57,260.35L95.57,261.49L96.45,263.79L96.55,264.94L97.38,275.26L97.69,274.11L98.08,276.41L98.08,275.26L98.18,274.11L98.22,276.41L98.63,264.94L98.64,264.94L99.04,263.79L99.35,261.49L99.61,267.23L99.99,266.08L100.96,263.79L100.97,264.94L100.97,266.08L101.09,268.38L101.52,267.23L102,266.08L102.34,269.52L102.47,267.23L102.87,266.08L102.89,267.23L103.43,264.94L103.45,266.08L104.02,264.94L104.13,263.79L104.13,264.94L104.8,266.08L104.8,267.23L105.39,266.08L105.94,264.94L106.34,261.49L106.75,260.35L108.08,254.61L108.12,255.76L108.19,256.91L110.21,253.46L110.76,254.61L112.13,251.17L112.58,252.32L112.87,251.17L113.69,278.7L113.79,277.55L114.4,275.26L114.66,276.41L115.07,275.26L115.07,276.41L116.03,275.26L116.42,276.41L116.71,275.26L116.73,274.11L117.4,272.97L117.64,274.11L117.65,276.41L117.87,271.82L118.37,270.67L118.37,271.82L118.78,269.52L118.84,269.52L119.39,268.38L119.39,267.23L119.87,272.97L121.57,271.82L121.78,272.97L121.83,271.82L122.34,270.67L122.77,266.08L123.54,264.94L125.19,260.35L125.56,261.49L126.02,259.2L126.1,260.35L126.1,261.49L126.24,267.23L126.6,264.94L127.12,263.79L127.63,261.49L127.86,262.64L127.87,263.79L128.45,267.23L129.15,266.08L130.11,261.49L130.48,262.64L131.15,261.49L132.19,260.35L133.31,256.91L134.1,258.05L134.1,256.91L134.82,256.91L134.89,258.05L135.39,256.91L135.74,255.76L135.75,258.05L136.27,253.46L136.27,253.46L136.71,252.32L136.71,250.02L137.26,251.17L137.61,250.02L138.1,247.73L138.13,246.58L138.2,245.43L138.25,248.88L138.79,247.73L138.81,248.88L139.21,246.58L139.83,247.73L140.21,244.29L140.46,254.61L141.01,253.46L141.73,251.17L141.81,252.32L141.81,251.17L141.83,253.46L142.98,252.32L143.62,251.17L143.73,253.46L144.53,252.32L144.55,253.46L145.18,250.02L145.24,251.17L145.79,252.32L147.49,250.02L147.5,251.17L148.58,245.43L149.44,244.29L149.68,241.99L150.2,243.14L150.2,241.99L150.85,247.73L151.21,246.58L152.37,245.43L152.7,246.58L155.05,240.85L155.19,241.99L155.98,236.26L156.15,235.11L156.59,232.82L156.6,231.67L157.98,228.23L157.98,229.37L159.48,225.93L159.48,227.08L159.92,228.23L159.92,230.52L160.35,229.37L160.98,228.23L161.38,225.93L161.4,224.78L161.61,232.82L162.85,231.67L163.09,229.37L164.17,228.23L164.88,232.82L165.22,231.67L168.06,222.49L168.12,221.34L168.17,222.49L169.87,221.34L170.11,225.93L170.12,227.08L170.13,230.52L170.53,228.23L172.44,227.08L172.46,229.37L172.61,228.23L173.34,227.08L173.84,222.49L173.85,223.64L174.36,224.78L174.71,225.93L175.59,221.34L175.65,222.49L175.78,223.64L176.6,222.49L176.61,223.64L177.58,222.49L177.88,221.34L179.13,220.2L179.75,217.9L179.79,216.75L180.31,214.46L180.32,215.61L180.73,214.46L180.75,216.75L181.4,215.61L181.58,214.46L182.25,215.61L182.54,214.46L182.54,213.31L183.26,213.31L183.44,212.17L184.18,209.87L184.32,208.72L184.5,209.87L184.64,207.58L184.65,208.72L185.43,207.58L186.78,199.55L186.78,201.84L187.04,200.69L187.37,198.4L187.67,199.55L188.18,198.4L188.38,196.11L188.83,198.4L189.09,197.25L189.46,194.96L190.01,193.81L191.15,192.66L191.15,193.81L191.23,192.66L191.26,193.81L192.58,192.66L193.3,193.81L194.01,192.66L194.23,191.52L194.23,192.66L196.05,191.52L196.73,190.37L196.75,191.52L196.75,192.66L197.12,191.52L197.94,192.66L197.94,193.81L198.62,193.81L198.79,192.66L199.75,190.37L200.45,189.22L201.08,185.78L201.45,186.93L202.81,182.34L203.13,183.49L204.52,182.34L205.72,180.05L205.83,181.19L208.29,176.6L208.59,177.75L208.94,174.31L209.67,173.16L210.09,175.46L210.13,174.31L210.4,173.16L211.12,170.87L211.33,172.02L211.37,173.16L211.39,176.6L212.11,173.16L212.16,174.31L212.53,172.02L212.61,177.75L212.61,178.9L213.77,175.46L213.89,176.6L213.96,177.75L214.42,174.31L214.55,176.6L214.58,177.75L215.23,181.19L215.23,182.34L215.52,197.25L216.01,196.11L216.87,202.99L217.01,201.84L217.02,202.99L217.44,198.4L217.59,200.69L217.86,201.84L219.37,192.66L219.72,191.52L219.88,188.08L219.98,192.66L220.88,191.52L222.84,189.22L222.87,188.08L223.44,182.34L223.81,181.19L224.25,182.34L225.86,181.19L226.99,178.9L227.07,177.75L227.9,176.6L228.31,177.75L229.02,175.46L230.83,174.31L231.4,172.02L231.48,170.87L232.35,167.43L232.47,168.57L232.65,167.43L233.78,166.28L234.09,162.84L234.11,169.72L234.11,170.87L234.11,172.02L234.65,167.43L235.07,166.28L235.27,167.43L236.22,166.28L236.36,167.43L236.6,166.28L237.18,167.43L237.25,166.28L237.42,170.87L237.84,168.57L238.1,169.72L238.4,168.57L238.42,170.87L238.52,170.87L238.53,172.02L239.95,167.43L239.96,168.57L240.35,165.13L240.49,170.87L240.85,169.72L241.15,168.57L241.3,169.72L241.33,170.87L241.41,169.72L241.71,172.02L242.02,173.16L242.11,170.87L242.15,182.34L242.15,183.49L242.26,181.19L243.08,200.69L243.24,199.55L243.24,200.69L243.9,199.55L244.11,198.4L244.91,194.96L245,196.11L246.27,188.08L246.42,189.22L246.69,188.08L247.89,184.63L247.9,185.78L248.04,186.93L248.62,183.49L248.92,182.34L249.11,181.19L249.74,182.34L250.35,176.6L250.8,175.46L251.27,170.87L251.28,172.02L251.8,173.16L252.6,168.57L252.78,167.43L254.01,160.54L254.44,159.4L254.63,158.25L255.66,157.1L257.04,150.22L257.45,149.07L258.59,145.63L258.6,146.78L262.36,134.16L262.37,135.31L265.29,120.39L265.5,121.54L265.51,123.83L266.42,122.69L266.42,123.83L267.12,120.39L267.73,119.25L268.02,120.39L269.15,119.25L269.44,115.8L271.83,116.95L271.99,143.34L272.88,142.19L274.04,143.34L274.19,142.19L274.19,141.04L274.27,144.48L274.44,142.19L275.03,143.34L277.87,142.19L278.58,141.04L279.13,137.6L279.14,136.45L279.25,138.75L279.88,136.45L279.93,137.6L280.84,136.45L281.09,137.6L281.61,142.19L281.78,139.89L282,141.04L282,142.19L282.29,139.89L282.74,139.89L282.98,138.75L283.72,136.45L283.81,135.31L284.18,133.01L284.53,134.16L284.54,135.31L284.82,146.78L285.74,145.63L285.91,146.78L286.41,144.48L286.42,145.63L286.42,146.78L287.4,144.48L287.57,145.63L287.68,143.34L288.12,144.48L288.48,145.63L288.94,146.78L289.44,145.63L290.87,141.04L291.17,139.89L291.49,142.19L291.64,137.6L291.76,138.75L291.81,137.6L292.35,138.75L293.46,137.6L293.48,138.75L294.01,136.45L294.35,135.31L294.66,130.72L294.93,131.86L295.3,133.01L295.31,137.6L295.49,135.31L296.5,134.16L297.21,144.48L297.21,143.34L297.31,142.19L297.34,141.04L297.65,151.37L297.79,151.37L297.89,152.51L297.93,160.54L298.62,158.25L298.96,159.4L299.65,154.81L299.81,155.95L300.47,153.66L301,152.51L301.03,153.66L301.3,150.22L302.1,149.07L302.33,150.22L302.33,149.07L302.94,147.92L303.25,151.37L303.36,147.92L303.8,146.78L304.19,143.34L304.81,142.19L305.01,141.04L306.3,139.89L306.96,136.45L307.01,135.31L308.2,128.42L309.16,127.28L311.81,119.25L312.89,118.1L313.65,115.8L314.45,114.66L314.58,112.36L315.31,113.51L315.66,130.72L315.85,129.57L316.12,130.72L316.4,129.57L316.42,131.86L316.76,130.72L317.38,131.86L317.88,130.72L318.59,131.86L319.7,128.42L320.63,127.28L321.88,126.13L322.21,127.28L322.26,128.42L323.24,127.28L323.75,124.98L324.2,126.13L324.37,124.98L324.79,126.13L324.82,127.28L324.82,128.42L325.48,126.13L326.14,127.28L327.11,159.4L327.39,158.25L327.55,154.81L327.99,159.4L328.14,160.54L329.55,150.22L329.89,149.07L330.01,151.37L330.46,150.22L330.88,149.07L331.84,151.37L332.23,150.22L333.18,149.07L333.19,150.22L334,147.92L334.34,146.78L334.74,147.92L335.11,146.78L335.12,145.63L335.67,146.78L335.69,145.63L335.93,144.48L336.12,142.19L337.21,141.04L337.48,139.89L338.54,138.75L340.11,134.16L340.11,135.31L340.13,136.45L341.07,131.86L341.59,133.01L342.41,128.42L342.41,129.57L342.9,128.42L342.94,129.57L343.55,126.13L343.6,124.98L343.66,123.83L344.93,122.69L345.76,120.39L345.79,119.25L346.59,116.95L346.91,115.8L347.82,120.39L348.2,119.25L348.38,118.1L349.85,115.8L350.06,116.95L351.13,114.66L351.68,113.51L353.2,108.92L353.79,107.77L354.15,106.63L354.36,107.77L354.41,108.92L354.43,107.77L355.29,106.63L356.38,104.33L356.49,103.18L357.45,102.04L357.47,103.18L357.48,104.33L357.53,119.25L358.16,115.8L358.42,116.95L359.02,114.66L359.26,113.51L359.98,114.66L360.87,113.51L361.48,110.07L361.59,111.22L361.86,110.07L363.11,107.77L363.93,106.63L364.54,104.33L364.54,103.18L364.54,97.45L365.77,96.3L366.77,92.86L368.23,94.01L368.23,96.3L368.63,92.86L368.98,92.86L369.46,94.01L369.78,91.71L370.03,92.86L370.88,91.71L371.02,90.57L371.02,91.71L372.3,92.86L372.92,91.71L372.97,92.86L373.13,94.01L373.73,95.15L374.04,96.3L374.23,108.92L375.19,110.07L376.17,107.77L376.68,106.63L376.8,104.33L376.84,107.77L377.25,108.92L378.43,100.89L378.45,102.04L378.46,106.63L378.76,104.33L379.3,103.18L380.57,99.74L381.67,98.6L382.36,95.15L383.05,94.01L383.41,90.57L383.87,92.86L384.12,91.71L385.11,85.98L385.11,87.12L386.5,85.98L387.26,80.24L387.27,82.54L388.06,81.39L388.38,82.54L388.42,81.39L388.91,80.24L389.45,77.95L390.08,79.09L391,75.65L391.62,74.51L392.22,72.21L392.44,73.36L392.57,74.51L392.87,75.65L393.07,74.51L394.22,75.65L397.77,65.33L398.47,66.48L399.53,63.03L399.61,61.89L399.67,63.03L399.84,58.45L400.44,59.59L400.51,57.3L401.62,56.15L401.78,53.86L401.96,56.15L402.21,57.3L402.6,56.15L402.76,57.3L402.79,58.45L403.05,60.74L403.57,59.59L404.58,52.71L404.62,56.15L405.26,55L405.34,53.86L405.55,56.15L405.77,56.15L405.93,57.3L406.7,52.71L407.01,53.86L407.02,55L407.15,57.3L407.63,52.71L407.95,51.56L408.52,49.27L408.52,50.42L408.58,51.56L409.12,46.97L409.22,49.27L409.47,50.42L409.63,48.12L409.77,59.59L409.77,60.74L410.16,65.33L410.44,55L410.52,59.59L410.61,58.45L411.12,61.89L411.12,63.03L411.58,58.45L411.95,59.59L412.9,52.71L413.01,53.86L413.08,55L413.09,65.33L413.8,61.89L414.1,60.74L414.87,58.45L414.88,59.59L415.1,58.45L415.5,61.89L415.77,60.74L415.97,59.59L416.13,61.89L416.21,60.74L416.77,59.59L417.39,68.77L417.42,67.62L417.79,66.48L417.86,65.33L418.17,68.77L418.43,67.62L418.76,66.48L419.17,63.03L419.34,65.33L419.86,64.18L420.27,60.74L420.66,63.03L420.66,64.18L421.49,80.24L421.69,79.09L422.1,76.8L422.91,75.65L423.05,79.09L424,80.24L426.07,75.65L426.11,76.8L427.02,73.36L427.63,72.21L428.18,75.65L428.18,76.8L428.56,79.09L428.82,75.65L428.93,76.8L428.99,75.65L429.26,79.09L429.67,76.8L429.75,75.65L430.02,69.92L430.39,76.8L430.48,75.65L430.58,74.51L430.76,72.21L430.87,80.24L431.32,75.65L431.42,74.51L432.04,69.92L432.18,72.21L432.25,71.06L432.68,69.92L432.82,74.51L432.82,75.65L433.12,95.15L433.53,90.57L433.63,91.71L433.63,92.86L434.37,91.71L434.44,90.57L434.59,89.42L434.65,98.6L434.79,96.3L434.89,97.45L435.69,95.15L436.28,94.01L437.08,89.42L437.24,88.27L437.8,83.68L438.08,87.12L438.08,88.27L438.23,85.98L438.5,90.57L438.59,91.71L439.41,90.57L439.53,89.42L440.03,91.71L440.11,88.27L440.16,87.12L440.16,88.27L440.67,82.54L440.96,81.39L440.98,80.24L441.07,83.68L441.41,81.39L441.89,80.24L441.9,81.39L442.47,72.21L442.5,74.51L443.28,73.36L443.75,69.92L444.3,71.06L444.42,68.77L444.7,74.51L445.06,73.36L445.08,72.21L445.39,71.06L445.65,73.36L445.93,72.21L446.11,74.51L446.46,72.21L446.79,73.36L447.31,67.62L447.65,69.92L447.71,71.06L447.83,69.92L447.86,73.36L448.29,71.06L448.7,69.92L448.71,68.77L449.24,79.09L449.4,75.65L449.65,76.8L449.66,75.65L449.94,79.09L450.04,77.95L450.6,79.09L450.78,77.95L451.03,80.24L451.48,79.09L452,77.95L452.05,79.09L452.12,80.24L452.69,82.54L452.69,81.39L452.83,80.24L452.97,76.8L453.51,80.24L453.84,79.09L454.08,75.65L454.46,79.09L454.5,80.24L454.8,79.09L455.61,97.45L455.88,96.3L457.53,82.54L457.62,83.68L457.7,81.39L457.8,91.71L458.08,91.71L458.62,90.57L459.28,99.74L459.42,97.45L459.49,96.3L459.56,97.45L459.82,91.71L460.41,92.86L460.65,89.42L460.68,94.01L460.84,92.86L461.29,94.01L461.56,95.15L462.18,90.57L462.48,91.71L462.5,95.15L463.16,92.86L463.29,94.01L463.72,91.71L464.41,90.57L464.67,85.98L464.97,90.57L465.26,89.42L466.35,80.24L467.1,81.39L467.6,92.86L468,91.71L468.09,94.01L468.43,87.12L468.59,88.27L468.84,87.12L469.3,94.01L469.98,92.86L470.16,91.71L470.48,94.01L470.48,95.15L471.11,92.86L471.35,105.48L471.44,104.33L471.44,102.04L471.99,108.92L472.26,107.77L472.47,108.92L473.89,107.77L474.46,108.92L474.75,107.77L475.19,108.92L475.21,107.77L475.73,106.63L475.74,105.48L475.99,108.92L476.06,107.77L476.67,106.63L476.88,107.77L477.2,106.63L477.59,105.48L477.66,103.18L477.8,106.63L478.08,105.48L478.59,104.33L478.67,103.18L479.08,107.77L479.09,108.92L480.15,105.48L480.53,106.63L480.78,104.33L481.08,106.63L481.08,107.77L481.65,108.92L481.82,107.77L481.85,106.63L482.59,100.89L482.77,103.18L483.59,104.33L483.59,103.18L483.87,103.18L484.99,102.04L485.53,98.6L485.77,100.89L485.86,99.74L486.49,95.15L486.67,94.01L487.31,96.3L487.34,94.01L487.48,92.86L488.28,91.71L488.83,92.86L488.85,95.15L489.37,95.15L489.66,94.01L489.66,92.86L490.35,95.15L490.54,94.01L490.63,92.86L491.52,91.71L492.12,92.86L492.54,91.71L493.28,87.12L493.5,85.98L493.52,87.12L493.67,85.98L494.37,84.83L494.62,87.12L495.07,85.98L495.17,87.12L495.57,82.54L495.73,84.83L496,85.98L496.26,82.54L497.99,83.68L498.31,80.24L498.92,81.39L499.17,92.86L499.73,91.71L499.85,92.86L499.99,90.57L500.42,91.71L500.81,90.57L501.11,87.12L502.03,85.98L502.16,83.68L503.15,82.54L503.8,80.24L503.9,79.09L504.02,76.8L505.41,77.95L505.81,95.15L506.09,92.86L506.17,91.71L506.23,94.01L506.94,92.86L507.86,89.42L507.86,90.57L508.57,96.3L508.61,95.15L509.03,94.01L509.65,89.42L509.68,90.57L510.12,89.42L512.53,84.83L512.84,83.68L513.92,80.24L514.81,79.09L514.91,76.8L515.1,77.95L515.72,76.8L516.36,74.51L517.82,73.36L519.34,69.92L519.47,68.77L520.68,63.03L520.69,64.18L520.72,63.03L520.76,66.48L521.32,64.18L521.53,63.03L522.34,55L522.48,53.86L523.03,50.42L525.93,49.27L527.36,42.38L529.15,41.24L529.17,40.09L530.1,38.94L530.11,40.09L530.61,36.65L530.92,35.5L531.25,33.21L533.1,32.06L534.91,29.77L535.07,28.62L536.01,26.32L536.07,25.18L536.19,26.32L536.75,25.18L536.97,24.03L539.65,18.29L539.85,17.15L540,16L540,17.15" style="vector-effect: none; fill: none; stroke: rgb(255, 127, 14); stroke-opacity: 1; stroke-width: 2px; opacity: 1;"/></g><g class="points"/><g class="text"/></g></g></g></g><g class="zerolinelayer-above"/><path class="xlines-above crisp" d="M0,0" style="fill: none;"/><path class="ylines-above crisp" d="M0,0" style="fill: none;"/><g class="overlines-above"/><g class="xaxislayer-above"><g class="xtick"><text text-anchor="middle" x="0" y="439" transform="translate(100.33,0)" style="font-family: 'Open Sans'; font-size: 18px; fill: rgb(0, 0, 0); fill-opacity: 1; white-space: pre;">2016</text></g><g class="xtick"><text text-anchor="middle" x="0" y="439" style="font-family: 'Open Sans'; font-size: 18px; fill: rgb(0, 0, 0); fill-opacity: 1; white-space: pre;" transform="translate(201.19,0)">2018</text></g><g class="xtick"><text text-anchor="middle" x="0" y="439" style="font-family: 'Open Sans'; font-size: 18px; fill: rgb(0, 0, 0); fill-opacity: 1; white-space: pre;" transform="translate(301.90999999999997,0)">2020</text></g><g class="xtick"><text text-anchor="middle" x="0" y="439" style="font-family: 'Open Sans'; font-size: 18px; fill: rgb(0, 0, 0); fill-opacity: 1; white-space: pre;" transform="translate(402.77,0)">2022</text></g><g class="xtick"><text text-anchor="middle" x="0" y="439" style="font-family: 'Open Sans'; font-size: 18px; fill: rgb(0, 0, 0); fill-opacity: 1; white-space: pre;" transform="translate(503.49,0)">2024</text></g><g class="xtick"><text text-anchor="middle" x="0" y="439" style="font-family: 'Open Sans'; font-size: 18px; fill: rgb(0, 0, 0); fill-opacity: 1; white-space: pre;" transform="translate(604.35,0)">2026</text></g></g><g class="yaxislayer-above"><g class="ytick"><text text-anchor="end" x="79" y="6.3" transform="translate(0,420)" style="font-family: 'Open Sans'; font-size: 18px; fill: rgb(0, 0, 0); fill-opacity: 1; white-space: pre;">0</text></g><g class="ytick"><text text-anchor="end" x="79" y="6.3" style="font-family: 'Open Sans'; font-size: 18px; fill: rgb(0, 0, 0); fill-opacity: 1; white-space: pre;" transform="translate(0,362.64)">50</text></g><g class="ytick"><text text-anchor="end" x="79" y="6.3" style="font-family: 'Open Sans'; font-size: 18px; fill: rgb(0, 0, 0); fill-opacity: 1; white-space: pre;" transform="translate(0,305.28)">100</text></g><g class="ytick"><text text-anchor="end" x="79" y="6.3" style="font-family: 'Open Sans'; font-size: 18px; fill: rgb(0, 0, 0); fill-opacity: 1; white-space: pre;" transform="translate(0,247.92)">150</text></g><g class="ytick"><text text-anchor="end" x="79" y="6.3" style="font-family: 'Open Sans'; font-size: 18px; fill: rgb(0, 0, 0); fill-opacity: 1; white-space: pre;" transform="translate(0,190.57)">200</text></g><g class="ytick"><text text-anchor="end" x="79" y="6.3" style="font-family: 'Open Sans'; font-size: 18px; fill: rgb(0, 0, 0); fill-opacity: 1; white-space: pre;" transform="translate(0,133.21)">250</text></g></g><g class="overaxes-above"/></g></g><g class="polarlayer"/><g class="smithlayer"/><g class="ternarylayer"/><g class="geolayer"/><g class="funnelarealayer"/><g class="pielayer"/><g class="iciclelayer"/><g class="treemaplayer"/><g class="sunburstlayer"/><g class="glimages"/><defs id="topdefs-675fc7"><g class="clips"/></defs><g class="layer-above"><g class="imagelayer"/><g class="shapelayer"/></g><g class="infolayer"><g class="g-gtitle"><text class="gtitle" x="35" y="50" text-anchor="start" dy="0em" style="opacity: 1; font-family: 'Open Sans'; font-size: 25px; fill: rgb(0, 0, 0); fill-opacity: 1; white-space: pre;">MultiQC/MultiQC - Open Issues Over Time</text></g><g class="g-xtitle"><text class="xtitle" x="350" y="472.9" text-anchor="middle" style="opacity: 1; font-family: 'Open Sans'; font-size: 22px; fill: rgb(0, 0, 0); fill-opacity: 1; white-space: pre;">Date</text></g><g class="g-ytitle"><text class="ytitle" transform="rotate(-90,29.799999999999997,260)" x="29.799999999999997" y="260" text-anchor="middle" style="opacity: 1; font-family: 'Open Sans'; font-size: 22px; fill: rgb(0, 0, 0); fill-opacity: 1; white-space: pre;">Number of Open Issues</text></g></g></svg>