<svg class="main-svg" xmlns="http://www.w3.org/2000/svg" xmlns:xlink="http://www.w3.org/1999/xlink" width="700" height="500" style="" viewBox="0 0 700 500"><rect x="0" y="0" width="700" height="500" style="fill: rgb(0, 0, 0); fill-opacity: 0;"/><defs id="defs-ef70b3"><g class="clips"><clipPath id="clipef70b3xyplot" class="plotclip"><rect width="540" height="320"/></clipPath><clipPath class="axesclip" id="clipef70b3x"><rect x="80" y="0" width="540" height="500"/></clipPath><clipPath class="axesclip" id="clipef70b3y"><rect x="0" y="100" width="700" height="320"/></clipPath><clipPath class="axesclip" id="clipef70b3xy"><rect x="80" y="100" width="540" height="320"/></clipPath></g><g class="gradients"/><g class="patterns"/></defs><g class="bglayer"><rect class="bg" x="80" y="100" width="540" height="320" style="fill: rgb(0, 0, 0); fill-opacity: 0; stroke-width: 0;"/></g><g class="layer-below"><g class="imagelayer"/><g class="shapelayer"/></g><g class="cartesianlayer"><g class="subplot xy"><g class="layer-subplot"><g class="shapelayer"/><g class="imagelayer"/></g><g class="minor-gridlayer"><g class="x"/><g class="y"/></g><g class="gridlayer"><g class="x"><path class="xgrid crisp" transform="translate(101,0)" d="M0,100v320" style="stroke: rgb(255, 255, 255); stroke-opacity: 1; stroke-width: 1px;"/><path class="xgrid crisp" transform="translate(205.20999999999998,0)" d="M0,100v320" style="stroke: rgb(255, 255, 255); stroke-opacity: 1; stroke-width: 1px;"/><path class="xgrid crisp" transform="translate(309.28,0)" d="M0,100v320" style="stroke: rgb(255, 255, 255); stroke-opacity: 1; stroke-width: 1px;"/><path class="xgrid crisp" transform="translate(413.49,0)" d="M0,100v320" style="stroke: rgb(255, 255, 255); stroke-opacity: 1; stroke-width: 1px;"/><path class="xgrid crisp" transform="translate(517.56,0)" d="M0,100v320" style="stroke: rgb(255, 255, 255); stroke-opacity: 1; stroke-width: 1px;"/></g><g class="y"><path class="ygrid crisp" transform="translate(0,336.71000000000004)" d="M80,0h540" style="stroke: rgb(255, 255, 255); stroke-opacity: 1; stroke-width: 1px;"/><path class="ygrid crisp" transform="translate(0,253.42)" d="M80,0h540" style="stroke: rgb(255, 255, 255); stroke-opacity: 1; stroke-width: 1px;"/><path class="ygrid crisp" transform="translate(0,170.14)" d="M80,0h540" style="stroke: rgb(255, 255, 255); stroke-opacity: 1; stroke-width: 1px;"/></g></g><g class="zerolinelayer"><path class="yzl zl crisp" transform="translate(0,420)" d="M80,0h540" style="stroke: rgb(255, 255, 255); stroke-opacity: 1; stroke-width: 2px;"/></g><g class="layer-between"><g class="shapelayer"/><g class="imagelayer"/></g><path class="xlines-below"/><path class="ylines-below"/><g class="overlines-below"/><g class="xaxislayer-below"/><g class="yaxislayer-below"/><g class="overaxes-below"/><g class="overplot"><g class="xy" transform="translate(80,100)" clip-path="url(#clipef70b3xyplot)"><g class="scatterlayer mlayer"><g class="trace scatter trace70448c" style="stroke-miterlimit: 2;"><g class="fills"><g><path class="js-fill" d="M540,320L0,320L0,319.83L0,319.5L1.96,319.33L3.82,318.33L4.54,318.17L5.14,317L5.52,316.84L6.12,315.84L6.42,315.67L8.54,312.17L8.95,312L10.09,311L10.1,310.84L10.54,310.17L10.98,310.01L12.07,309.01L12.07,308.84L12.78,307.17L12.83,307.01L14.83,304.68L15.81,304.51L17.78,303.51L18.25,303.34L18.64,303.01L21.65,302.84L26.83,300.34L26.94,300.18L27.65,299.84L29.52,299.68L32.5,297.85L33.71,297.68L37.64,294.85L37.65,294.68L37.95,294.01L38.59,293.85L40.77,291.68L40.77,291.52L41.45,290.85L41.75,290.68L44.01,288.68L45.3,288.52L47.61,286.35L47.62,286.19L51.96,283.85L52.89,283.69L55.97,282.19L55.98,282.02L58.57,280.52L58.73,280.36L59.43,279.69L59.6,279.52L59.89,279.19L61.48,279.02L64.76,276.02L64.86,275.86L64.98,275.52L65.75,275.36L68.34,274.03L68.38,273.86L68.69,273.53L69.45,273.36L70.61,273.03L71.56,272.86L72.39,271.69L72.79,271.53L78.7,269.53L78.81,269.36L80.95,267.86L81.58,267.7L81.92,266.86L82.81,266.7L82.99,266.03L84.15,265.86L86.38,264.2L86.65,264.03L87.35,263.53L87.69,263.36L87.7,263.03L88.78,262.86L88.81,262.53L89.65,262.36L93.89,261.03L94.37,260.87L95.47,260.2L95.78,260.03L100.35,258.03L100.37,257.87L101.61,256.87L101.61,256.7L102.36,254.37L102.65,254.2L112.29,248.87L113.58,248.71L116.62,247.54L117.43,247.37L118.89,246.71L119.88,246.54L121.75,245.37L121.78,245.21L126.62,242.88L126.73,242.71L127.64,242.21L128.05,242.04L133.86,238.21L133.87,238.04L140.66,234.88L140.8,234.71L141.25,234.05L141.82,233.88L150,229.88L151.25,229.72L151.29,229.55L152.39,229.38L153.51,228.05L154.41,227.88L154.66,227.55L155.19,227.38L160.2,225.88L160.35,225.72L161.17,225.05L161.34,224.89L173.6,219.56L173.64,219.39L173.71,219.22L175.51,219.06L181.32,216.89L181.43,216.72L185.99,215.06L186.15,214.89L186.73,214.22L187.31,214.06L187.61,213.72L188.6,213.56L189.35,213.23L189.53,213.06L190.3,212.39L190.44,212.23L190.77,211.56L191.59,211.39L193.59,209.73L194.43,209.56L195.75,208.39L196.32,208.23L203.43,206.56L203.67,206.4L207.27,205.23L207.3,205.06L209.55,204.06L211.32,203.9L212.55,203.56L213.39,203.4L217.11,201.9L217.38,201.73L223.26,197.9L223.31,197.73L224.06,197.4L224.22,197.23L227.18,194.4L228.22,194.24L230.51,193.24L230.65,193.07L231.24,192.74L233.37,192.57L239.09,190.9L239.16,190.74L240.06,190.24L240.38,190.07L242.07,189.07L242.16,188.91L242.88,188.24L244.06,188.07L245.74,186.91L246.32,186.74L247.05,185.91L247.48,185.74L248.18,184.91L248.28,184.74L249.17,184.07L249.43,183.91L250.31,183.08L250.33,182.91L253.28,181.24L253.42,181.08L254.45,180.08L254.88,179.91L258.15,178.24L258.16,178.08L269.07,171.41L269.45,171.25L269.47,171.08L270.36,170.92L271.46,169.92L272,169.75L272.59,168.92L272.97,168.75L278.39,166.75L281.95,166.58L288.4,165.08L288.41,164.92L291.91,163.25L292.14,163.09L295.4,161.42L295.92,161.25L296.21,160.75L296.95,160.59L299.06,159.92L299.49,159.75L301.22,158.42L301.25,158.26L301.97,157.76L303.21,157.59L305.31,155.59L306.35,155.42L307.25,153.92L307.32,153.76L308.01,153.26L308.34,153.09L311.31,151.26L312.13,151.09L315.14,148.93L316.48,148.76L318.17,147.26L318.44,147.09L321.38,145.93L321.91,145.76L324.07,145.1L324.89,144.93L325.03,144.6L326.15,144.43L326.91,143.6L327.28,143.43L336,141.43L336.29,141.26L339.13,140.1L339.16,139.93L340.42,138.77L340.5,138.6L343.26,137.93L344.03,137.77L346.25,136.6L346.84,136.43L348.69,135.6L349.79,135.43L353.1,133.27L353.13,133.1L357.12,131.44L357.24,131.27L357.99,130.94L358.1,130.77L361.95,129.6L362.8,129.44L369.93,126.61L370.06,126.44L371.75,125.61L372.86,125.44L373.88,124.77L374.27,124.61L376.65,123.44L376.65,123.27L376.65,122.94L377.92,122.77L378.95,122.28L380.79,122.11L381.24,121.61L382.06,121.44L382.07,121.28L383.2,121.11L383.34,120.94L384.9,120.78L390.32,118.44L390.33,118.28L391.3,117.11L391.34,116.94L396.08,114.95L396.15,114.78L399.36,113.28L399.46,113.11L406.13,110.12L407.69,109.95L410.98,108.62L412.23,108.45L413.03,107.45L413.12,107.28L417.6,105.45L417.71,105.28L424.08,99.95L424.08,99.79L424.8,98.29L425.07,98.12L430.03,94.29L430.61,94.12L432.8,92.12L433.06,91.96L433.81,91.63L433.91,91.46L434.93,90.63L435.19,90.46L441.19,87.96L441.2,87.79L443.07,86.63L443.1,86.46L444.06,84.3L444.07,84.13L444.95,82.63L445.06,82.46L446.05,79.96L446.38,79.8L447.05,79.13L447.61,78.97L447.93,78.3L448.8,78.13L450.16,76.63L450.78,76.47L451.42,75.97L451.6,75.8L454.13,73.97L454.66,73.8L456.07,70.97L456.57,70.8L458.49,68.8L459.14,68.64L459.99,67.47L460.19,67.31L461.87,66.14L461.87,65.97L462.71,64.97L463.04,64.81L464.99,62.81L465.76,62.64L467.9,61.48L468.01,61.31L471.02,58.31L471.11,58.14L471.96,57.31L471.97,57.14L472.73,56.14L472.86,55.98L473.13,55.31L473.85,55.15L474.75,53.81L474.97,53.65L475.1,52.98L475.73,52.81L477.54,50.98L478.14,50.81L479.99,49.32L480.1,49.15L481.24,48.15L481.53,47.98L483.12,47.48L483.55,47.32L484.82,45.15L485.59,44.98L487.95,43.32L489.63,43.15L489.68,42.99L490.52,42.82L494.49,40.65L494.57,40.49L498.66,37.99L498.81,37.82L502.01,36.49L502.14,36.32L515.94,28.99L515.98,28.83L517.04,27.99L517.44,27.83L517.76,27.33L518.71,27.16L518.84,26.83L519.87,26.66L523.87,24.83L524.03,24.66L526.08,23.33L526.58,23.16L527.06,22.83L527.87,22.66L527.91,22.5L529.42,22.33L530.99,21.5L531.91,21.33L532.01,21L532.86,20.83L533.52,20.5L535.02,20.33L537.41,19.16L537.76,19L540,16" style="fill: rgb(255, 127, 14); fill-opacity: 0.5; stroke-width: 0;"/></g></g><g class="errorbars"/><g class="lines"><path class="js-line" d="M0,319.83L0,319.5L1.96,319.33L3.82,318.33L4.54,318.17L5.14,317L5.52,316.84L6.12,315.84L6.42,315.67L8.54,312.17L8.95,312L10.09,311L10.1,310.84L10.54,310.17L10.98,310.01L12.07,309.01L12.07,308.84L12.78,307.17L12.83,307.01L14.83,304.68L15.81,304.51L17.78,303.51L18.25,303.34L18.64,303.01L21.65,302.84L26.83,300.34L26.94,300.18L27.65,299.84L29.52,299.68L32.5,297.85L33.71,297.68L37.64,294.85L37.65,294.68L37.95,294.01L38.59,293.85L40.77,291.68L40.77,291.52L41.45,290.85L41.75,290.68L44.01,288.68L45.3,288.52L47.61,286.35L47.62,286.19L51.96,283.85L52.89,283.69L55.97,282.19L55.98,282.02L58.57,280.52L58.73,280.36L59.43,279.69L59.6,279.52L59.89,279.19L61.48,279.02L64.76,276.02L64.86,275.86L64.98,275.52L65.75,275.36L68.34,274.03L68.38,273.86L68.69,273.53L69.45,273.36L70.61,273.03L71.56,272.86L72.39,271.69L72.79,271.53L78.7,269.53L78.81,269.36L80.95,267.86L81.58,267.7L81.92,266.86L82.81,266.7L82.99,266.03L84.15,265.86L86.38,264.2L86.65,264.03L87.35,263.53L87.69,263.36L87.7,263.03L88.78,262.86L88.81,262.53L89.65,262.36L93.89,261.03L94.37,260.87L95.47,260.2L95.78,260.03L100.35,258.03L100.37,257.87L101.61,256.87L101.61,256.7L102.36,254.37L102.65,254.2L112.29,248.87L113.58,248.71L116.62,247.54L117.43,247.37L118.89,246.71L119.88,246.54L121.75,245.37L121.78,245.21L126.62,242.88L126.73,242.71L127.64,242.21L128.05,242.04L133.86,238.21L133.87,238.04L140.66,234.88L140.8,234.71L141.25,234.05L141.82,233.88L150,229.88L151.25,229.72L151.29,229.55L152.39,229.38L153.51,228.05L154.41,227.88L154.66,227.55L155.19,227.38L160.2,225.88L160.35,225.72L161.17,225.05L161.34,224.89L173.6,219.56L173.64,219.39L173.71,219.22L175.51,219.06L181.32,216.89L181.43,216.72L185.99,215.06L186.15,214.89L186.73,214.22L187.31,214.06L187.61,213.72L188.6,213.56L189.35,213.23L189.53,213.06L190.3,212.39L190.44,212.23L190.77,211.56L191.59,211.39L193.59,209.73L194.43,209.56L195.75,208.39L196.32,208.23L203.43,206.56L203.67,206.4L207.27,205.23L207.3,205.06L209.55,204.06L211.32,203.9L212.55,203.56L213.39,203.4L217.11,201.9L217.38,201.73L223.26,197.9L223.31,197.73L224.06,197.4L224.22,197.23L227.18,194.4L228.22,194.24L230.51,193.24L230.65,193.07L231.24,192.74L233.37,192.57L239.09,190.9L239.16,190.74L240.06,190.24L240.38,190.07L242.07,189.07L242.16,188.91L242.88,188.24L244.06,188.07L245.74,186.91L246.32,186.74L247.05,185.91L247.48,185.74L248.18,184.91L248.28,184.74L249.17,184.07L249.43,183.91L250.31,183.08L250.33,182.91L253.28,181.24L253.42,181.08L254.45,180.08L254.88,179.91L258.15,178.24L258.16,178.08L269.07,171.41L269.45,171.25L269.47,171.08L270.36,170.92L271.46,169.92L272,169.75L272.59,168.92L272.97,168.75L278.39,166.75L281.95,166.58L288.4,165.08L288.41,164.92L291.91,163.25L292.14,163.09L295.4,161.42L295.92,161.25L296.21,160.75L296.95,160.59L299.06,159.92L299.49,159.75L301.22,158.42L301.25,158.26L301.97,157.76L303.21,157.59L305.31,155.59L306.35,155.42L307.25,153.92L307.32,153.76L308.01,153.26L308.34,153.09L311.31,151.26L312.13,151.09L315.14,148.93L316.48,148.76L318.17,147.26L318.44,147.09L321.38,145.93L321.91,145.76L324.07,145.1L324.89,144.93L325.03,144.6L326.15,144.43L326.91,143.6L327.28,143.43L336,141.43L336.29,141.26L339.13,140.1L339.16,139.93L340.42,138.77L340.5,138.6L343.26,137.93L344.03,137.77L346.25,136.6L346.84,136.43L348.69,135.6L349.79,135.43L353.1,133.27L353.13,133.1L357.12,131.44L357.24,131.27L357.99,130.94L358.1,130.77L361.95,129.6L362.8,129.44L369.93,126.61L370.06,126.44L371.75,125.61L372.86,125.44L373.88,124.77L374.27,124.61L376.65,123.44L376.65,123.27L376.65,122.94L377.92,122.77L378.95,122.28L380.79,122.11L381.24,121.61L382.06,121.44L382.07,121.28L383.2,121.11L383.34,120.94L384.9,120.78L390.32,118.44L390.33,118.28L391.3,117.11L391.34,116.94L396.08,114.95L396.15,114.78L399.36,113.28L399.46,113.11L406.13,110.12L407.69,109.95L410.98,108.62L412.23,108.45L413.03,107.45L413.12,107.28L417.6,105.45L417.71,105.28L424.08,99.95L424.08,99.79L424.8,98.29L425.07,98.12L430.03,94.29L430.61,94.12L432.8,92.12L433.06,91.96L433.81,91.63L433.91,91.46L434.93,90.63L435.19,90.46L441.19,87.96L441.2,87.79L443.07,86.63L443.1,86.46L444.06,84.3L444.07,84.13L444.95,82.63L445.06,82.46L446.05,79.96L446.38,79.8L447.05,79.13L447.61,78.97L447.93,78.3L448.8,78.13L450.16,76.63L450.78,76.47L451.42,75.97L451.6,75.8L454.13,73.97L454.66,73.8L456.07,70.97L456.57,70.8L458.49,68.8L459.14,68.64L459.99,67.47L460.19,67.31L461.87,66.14L461.87,65.97L462.71,64.97L463.04,64.81L464.99,62.81L465.76,62.64L467.9,61.48L468.01,61.31L471.02,58.31L471.11,58.14L471.96,57.31L471.97,57.14L472.73,56.14L472.86,55.98L473.13,55.31L473.85,55.15L474.75,53.81L474.97,53.65L475.1,52.98L475.73,52.81L477.54,50.98L478.14,50.81L479.99,49.32L480.1,49.15L481.24,48.15L481.53,47.98L483.12,47.48L483.55,47.32L484.82,45.15L485.59,44.98L487.95,43.32L489.63,43.15L489.68,42.99L490.52,42.82L494.49,40.65L494.57,40.49L498.66,37.99L498.81,37.82L502.01,36.49L502.14,36.32L515.94,28.99L515.98,28.83L517.04,27.99L517.44,27.83L517.76,27.33L518.71,27.16L518.84,26.83L519.87,26.66L523.87,24.83L524.03,24.66L526.08,23.33L526.58,23.16L527.06,22.83L527.87,22.66L527.91,22.5L529.42,22.33L530.99,21.5L531.91,21.33L532.01,21L532.86,20.83L533.52,20.5L535.02,20.33L537.41,19.16L537.76,19L540,16" style="vector-effect: none; fill: none; stroke: rgb(255, 127, 14); stroke-opacity: 1; stroke-width: 2px; opacity: 1;"/></g><g class="points"/><g class="text"/></g></g></g></g><g class="zerolinelayer-above"/><path class="xlines-above crisp" d="M0,0" style="fill: none;"/><path class="ylines-above crisp" d="M0,0" style="fill: none;"/><g class="overlines-above"/><g class="xaxislayer-above"><g class="xtick"><text text-anchor="middle" x="0" y="439" transform="translate(101,0)" style="font-family: 'Open Sans'; font-size: 18px; fill: rgb(255, 255, 255); fill-opacity: 1; white-space: pre;">2016</text></g><g class="xtick"><text text-anchor="middle" x="0" y="439" style="font-family: 'Open Sans'; font-size: 18px; fill: rgb(255, 255, 255); fill-opacity: 1; white-space: pre;" transform="translate(205.20999999999998,0)">2018</text></g><g class="xtick"><text text-anchor="middle" x="0" y="439" style="font-family: 'Open Sans'; font-size: 18px; fill: rgb(255, 255, 255); fill-opacity: 1; white-space: pre;" transform="translate(309.28,0)">2020</text></g><g class="xtick"><text text-anchor="middle" x="0" y="439" style="font-family: 'Open Sans'; font-size: 18px; fill: rgb(255, 255, 255); fill-opacity: 1; white-space: pre;" transform="translate(413.49,0)">2022</text></g><g class="xtick"><text text-anchor="middle" x="0" y="439" style="font-family: 'Open Sans'; font-size: 18px; fill: rgb(255, 255, 255); fill-opacity: 1; white-space: pre;" transform="translate(517.56,0)">2024</text></g></g><g class="yaxislayer-above"><g class="ytick"><text text-anchor="end" x="79" y="6.3" transform="translate(0,420)" style="font-family: 'Open Sans'; font-size: 18px; fill: rgb(255, 255, 255); fill-opacity: 1; white-space: pre;">0</text></g><g class="ytick"><text text-anchor="end" x="79" y="6.3" style="font-family: 'Open Sans'; font-size: 18px; fill: rgb(255, 255, 255); fill-opacity: 1; white-space: pre;" transform="translate(0,336.71000000000004)">500</text></g><g class="ytick"><text text-anchor="end" x="79" y="6.3" style="font-family: 'Open Sans'; font-size: 18px; fill: rgb(255, 255, 255); fill-opacity: 1; white-space: pre;" transform="translate(0,253.42)">1000</text></g><g class="ytick"><text text-anchor="end" x="79" y="6.3" style="font-family: 'Open Sans'; font-size: 18px; fill: rgb(255, 255, 255); fill-opacity: 1; white-space: pre;" transform="translate(0,170.14)">1500</text></g></g><g class="overaxes-above"/></g></g><g class="polarlayer"/><g class="smithlayer"/><g class="ternarylayer"/><g class="geolayer"/><g class="funnelarealayer"/><g class="pielayer"/><g class="iciclelayer"/><g class="treemaplayer"/><g class="sunburstlayer"/><g class="glimages"/><defs id="topdefs-ef70b3"><g class="clips"/></defs><g class="layer-above"><g class="imagelayer"/><g class="shapelayer"/></g><g class="infolayer"><g class="g-gtitle"><text class="gtitle" x="35" y="50" text-anchor="start" dy="0em" style="opacity: 1; font-family: 'Open Sans'; font-size: 25px; fill: rgb(255, 255, 255); fill-opacity: 1; white-space: pre;">MultiQC/MultiQC - Issues Created Over Time</text></g><g class="g-xtitle"><text class="xtitle" x="350" y="472.9" text-anchor="middle" style="opacity: 1; font-family: 'Open Sans'; font-size: 22px; fill: rgb(255, 255, 255); fill-opacity: 1; white-space: pre;">Date</text></g><g class="g-ytitle"><text class="ytitle" transform="rotate(-90,20.799999999999997,260)" x="20.799999999999997" y="260" text-anchor="middle" style="opacity: 1; font-family: 'Open Sans'; font-size: 22px; fill: rgb(255, 255, 255); fill-opacity: 1; white-space: pre;">Cumulative Issues Created</text></g></g></svg>