<svg class="main-svg" xmlns="http://www.w3.org/2000/svg" xmlns:xlink="http://www.w3.org/1999/xlink" width="700" height="500" style="" viewBox="0 0 700 500"><rect x="0" y="0" width="700" height="500" style="fill: rgb(0, 0, 0); fill-opacity: 0;"/><defs id="defs-03c342"><g class="clips"><clipPath id="clip03c342xyplot" class="plotclip"><rect width="540" height="320"/></clipPath><clipPath class="axesclip" id="clip03c342x"><rect x="80" y="0" width="540" height="500"/></clipPath><clipPath class="axesclip" id="clip03c342y"><rect x="0" y="100" width="700" height="320"/></clipPath><clipPath class="axesclip" id="clip03c342xy"><rect x="80" y="100" width="540" height="320"/></clipPath></g><g class="gradients"/><g class="patterns"/></defs><g class="bglayer"><rect class="bg" x="80" y="100" width="540" height="320" style="fill: rgb(0, 0, 0); fill-opacity: 0; stroke-width: 0;"/></g><g class="layer-below"><g class="imagelayer"/><g class="shapelayer"/></g><g class="cartesianlayer"><g class="subplot xy"><g class="layer-subplot"><g class="shapelayer"/><g class="imagelayer"/></g><g class="minor-gridlayer"><g class="x"/><g class="y"/></g><g class="gridlayer"><g class="x"><path class="xgrid crisp" transform="translate(101.53,0)" d="M0,100v320" style="stroke: rgb(255, 255, 255); stroke-opacity: 1; stroke-width: 1px;"/><path class="xgrid crisp" transform="translate(204.41,0)" d="M0,100v320" style="stroke: rgb(255, 255, 255); stroke-opacity: 1; stroke-width: 1px;"/><path class="xgrid crisp" transform="translate(307.15,0)" d="M0,100v320" style="stroke: rgb(255, 255, 255); stroke-opacity: 1; stroke-width: 1px;"/><path class="xgrid crisp" transform="translate(410.02,0)" d="M0,100v320" style="stroke: rgb(255, 255, 255); stroke-opacity: 1; stroke-width: 1px;"/><path class="xgrid crisp" transform="translate(512.76,0)" d="M0,100v320" style="stroke: rgb(255, 255, 255); stroke-opacity: 1; stroke-width: 1px;"/><path class="xgrid crisp" transform="translate(615.64,0)" d="M0,100v320" style="stroke: rgb(255, 255, 255); stroke-opacity: 1; stroke-width: 1px;"/></g><g class="y"><path class="ygrid crisp" transform="translate(0,353.90999999999997)" d="M80,0h540" style="stroke: rgb(255, 255, 255); stroke-opacity: 1; stroke-width: 1px;"/><path class="ygrid crisp" transform="translate(0,287.83000000000004)" d="M80,0h540" style="stroke: rgb(255, 255, 255); stroke-opacity: 1; stroke-width: 1px;"/><path class="ygrid crisp" transform="translate(0,221.74)" d="M80,0h540" style="stroke: rgb(255, 255, 255); stroke-opacity: 1; stroke-width: 1px;"/><path class="ygrid crisp" transform="translate(0,155.65)" d="M80,0h540" style="stroke: rgb(255, 255, 255); stroke-opacity: 1; stroke-width: 1px;"/></g></g><g class="zerolinelayer"><path class="yzl zl crisp" transform="translate(0,420)" d="M80,0h540" style="stroke: rgb(255, 255, 255); stroke-opacity: 1; stroke-width: 2px;"/></g><g class="layer-between"><g class="shapelayer"/><g class="imagelayer"/></g><path class="xlines-below"/><path class="ylines-below"/><g class="overlines-below"/><g class="xaxislayer-below"/><g class="yaxislayer-below"/><g class="overaxes-below"/><g class="overplot"><g class="xy" transform="translate(80,100)" clip-path="url(#clip03c342xyplot)"><g class="scatterlayer mlayer"><g class="trace scatter trace42456b" style="stroke-miterlimit: 2;"><g class="fills"><g><path class="js-fill" d="M540,320L0,320L0,286.96L4.36,49.04L8.58,174.61L12.95,154.78L17.17,260.52L21.53,267.13L25.9,240.7L29.98,240.7L34.34,174.61L38.56,168L42.92,194.43L47.15,207.65L51.51,247.3L55.87,194.43L60.09,207.65L64.46,207.65L68.68,240.7L73.04,253.91L77.4,234.09L81.34,194.43L85.71,234.09L89.93,253.91L94.29,234.09L98.51,134.96L102.88,220.87L107.24,227.48L111.46,273.74L115.82,247.3L120.05,240.7L124.41,201.04L128.77,227.48L132.71,240.7L137.08,201.04L141.3,214.26L145.66,273.74L149.88,220.87L154.25,267.13L158.61,227.48L162.83,247.3L171.42,260.52L175.78,240.7L180.14,280.35L184.08,201.04L188.44,201.04L192.67,247.3L197.03,293.57L201.25,234.09L205.61,267.13L209.98,260.52L214.2,227.48L218.56,181.22L222.78,234.09L227.15,253.91L231.51,273.74L235.59,207.65L239.95,227.48L244.18,181.22L248.54,207.65L252.76,201.04L257.12,227.48L261.49,207.65L265.71,207.65L270.07,260.52L274.29,293.57L278.66,286.96L283.02,267.13L286.96,207.65L291.32,253.91L295.54,227.48L299.91,168L304.13,214.26L308.49,227.48L312.85,227.48L317.08,260.52L321.44,247.3L325.66,280.35L330.02,273.74L334.39,201.04L338.33,260.52L342.69,267.13L346.91,194.43L351.27,260.52L355.5,253.91L359.86,273.74L364.22,234.09L368.44,214.26L372.81,273.74L377.03,273.74L381.39,247.3L385.75,220.87L389.7,214.26L394.06,240.7L398.28,260.52L402.64,260.52L406.86,234.09L411.23,201.04L415.59,141.57L419.81,168L424.18,187.83L428.4,234.09L432.76,240.7L437.12,16L441.2,187.83L445.57,174.61L449.79,134.96L454.15,174.61L458.37,194.43L462.74,121.74L467.1,148.17L471.32,168L475.68,194.43L479.91,234.09L484.27,234.09L492.57,220.87L496.94,234.09L501.16,240.7L505.52,240.7L509.74,194.43L514.1,240.7L518.47,234.09L522.69,247.3L527.05,267.13L531.27,181.22L535.64,273.74L540,286.96" style="fill: rgb(255, 127, 14); fill-opacity: 0.5; stroke-width: 0;"/></g></g><g class="errorbars"/><g class="lines"><path class="js-line" d="M0,286.96L4.36,49.04L8.58,174.61L12.95,154.78L17.17,260.52L21.53,267.13L25.9,240.7L29.98,240.7L34.34,174.61L38.56,168L42.92,194.43L47.15,207.65L51.51,247.3L55.87,194.43L60.09,207.65L64.46,207.65L68.68,240.7L73.04,253.91L77.4,234.09L81.34,194.43L85.71,234.09L89.93,253.91L94.29,234.09L98.51,134.96L102.88,220.87L107.24,227.48L111.46,273.74L115.82,247.3L120.05,240.7L124.41,201.04L128.77,227.48L132.71,240.7L137.08,201.04L141.3,214.26L145.66,273.74L149.88,220.87L154.25,267.13L158.61,227.48L162.83,247.3L171.42,260.52L175.78,240.7L180.14,280.35L184.08,201.04L188.44,201.04L192.67,247.3L197.03,293.57L201.25,234.09L205.61,267.13L209.98,260.52L214.2,227.48L218.56,181.22L222.78,234.09L227.15,253.91L231.51,273.74L235.59,207.65L239.95,227.48L244.18,181.22L248.54,207.65L252.76,201.04L257.12,227.48L261.49,207.65L265.71,207.65L270.07,260.52L274.29,293.57L278.66,286.96L283.02,267.13L286.96,207.65L291.32,253.91L295.54,227.48L299.91,168L304.13,214.26L308.49,227.48L312.85,227.48L317.08,260.52L321.44,247.3L325.66,280.35L330.02,273.74L334.39,201.04L338.33,260.52L342.69,267.13L346.91,194.43L351.27,260.52L355.5,253.91L359.86,273.74L364.22,234.09L368.44,214.26L372.81,273.74L377.03,273.74L381.39,247.3L385.75,220.87L389.7,214.26L394.06,240.7L398.28,260.52L402.64,260.52L406.86,234.09L411.23,201.04L415.59,141.57L419.81,168L424.18,187.83L428.4,234.09L432.76,240.7L437.12,16L441.2,187.83L445.57,174.61L449.79,134.96L454.15,174.61L458.37,194.43L462.74,121.74L467.1,148.17L471.32,168L475.68,194.43L479.91,234.09L484.27,234.09L492.57,220.87L496.94,234.09L501.16,240.7L505.52,240.7L509.74,194.43L514.1,240.7L518.47,234.09L522.69,247.3L527.05,267.13L531.27,181.22L535.64,273.74L540,286.96" style="vector-effect: none; fill: none; stroke: rgb(255, 127, 14); stroke-opacity: 1; stroke-width: 2px; opacity: 1;"/></g><g class="points"/><g class="text"/></g></g></g></g><g class="zerolinelayer-above"/><path class="xlines-above crisp" d="M0,0" style="fill: none;"/><path class="ylines-above crisp" d="M0,0" style="fill: none;"/><g class="overlines-above"/><g class="xaxislayer-above"><g class="xtick"><text text-anchor="middle" x="0" y="439" transform="translate(101.53,0)" style="font-family: 'Open Sans'; font-size: 18px; fill: rgb(0, 0, 0); fill-opacity: 1; white-space: pre;">2016</text></g><g class="xtick"><text text-anchor="middle" x="0" y="439" style="font-family: 'Open Sans'; font-size: 18px; fill: rgb(0, 0, 0); fill-opacity: 1; white-space: pre;" transform="translate(204.41,0)">2018</text></g><g class="xtick"><text text-anchor="middle" x="0" y="439" style="font-family: 'Open Sans'; font-size: 18px; fill: rgb(0, 0, 0); fill-opacity: 1; white-space: pre;" transform="translate(307.15,0)">2020</text></g><g class="xtick"><text text-anchor="middle" x="0" y="439" style="font-family: 'Open Sans'; font-size: 18px; fill: rgb(0, 0, 0); fill-opacity: 1; white-space: pre;" transform="translate(410.02,0)">2022</text></g><g class="xtick"><text text-anchor="middle" x="0" y="439" style="font-family: 'Open Sans'; font-size: 18px; fill: rgb(0, 0, 0); fill-opacity: 1; white-space: pre;" transform="translate(512.76,0)">2024</text></g><g class="xtick"><text text-anchor="middle" x="0" y="439" style="font-family: 'Open Sans'; font-size: 18px; fill: rgb(0, 0, 0); fill-opacity: 1; white-space: pre;" transform="translate(615.64,0)">2026</text></g></g><g class="yaxislayer-above"><g class="ytick"><text text-anchor="end" x="79" y="6.3" transform="translate(0,420)" style="font-family: 'Open Sans'; font-size: 18px; fill: rgb(0, 0, 0); fill-opacity: 1; white-space: pre;">0</text></g><g class="ytick"><text text-anchor="end" x="79" y="6.3" style="font-family: 'Open Sans'; font-size: 18px; fill: rgb(0, 0, 0); fill-opacity: 1; white-space: pre;" transform="translate(0,353.90999999999997)">10</text></g><g class="ytick"><text text-anchor="end" x="79" y="6.3" style="font-family: 'Open Sans'; font-size: 18px; fill: rgb(0, 0, 0); fill-opacity: 1; white-space: pre;" transform="translate(0,287.83000000000004)">20</text></g><g class="ytick"><text text-anchor="end" x="79" y="6.3" style="font-family: 'Open Sans'; font-size: 18px; fill: rgb(0, 0, 0); fill-opacity: 1; white-space: pre;" transform="translate(0,221.74)">30</text></g><g class="ytick"><text text-anchor="end" x="79" y="6.3" style="font-family: 'Open Sans'; font-size: 18px; fill: rgb(0, 0, 0); fill-opacity: 1; white-space: pre;" transform="translate(0,155.65)">40</text></g></g><g class="overaxes-above"/></g></g><g class="polarlayer"/><g class="smithlayer"/><g class="ternarylayer"/><g class="geolayer"/><g class="funnelarealayer"/><g class="pielayer"/><g class="iciclelayer"/><g class="treemaplayer"/><g class="sunburstlayer"/><g class="glimages"/><defs id="topdefs-03c342"><g class="clips"/></defs><g class="layer-above"><g class="imagelayer"/><g class="shapelayer"/></g><g class="infolayer"><g class="g-gtitle"><text class="gtitle" x="35" y="50" text-anchor="start" dy="0em" style="opacity: 1; font-family: 'Open Sans'; font-size: 25px; fill: rgb(0, 0, 0); fill-opacity: 1; white-space: pre;">MultiQC/MultiQC - New Issues Per Month</text></g><g class="g-xtitle"><text class="xtitle" x="350" y="472.9" text-anchor="middle" style="opacity: 1; font-family: 'Open Sans'; font-size: 22px; fill: rgb(0, 0, 0); fill-opacity: 1; white-space: pre;">Month</text></g><g class="g-ytitle"><text class="ytitle" transform="rotate(-90,38.8,260)" x="38.8" y="260" text-anchor="middle" style="opacity: 1; font-family: 'Open Sans'; font-size: 22px; fill: rgb(0, 0, 0); fill-opacity: 1; white-space: pre;">New Issues Created</text></g></g></svg>