<svg class="main-svg" xmlns="http://www.w3.org/2000/svg" xmlns:xlink="http://www.w3.org/1999/xlink" width="700" height="500" style="" viewBox="0 0 700 500"><rect x="0" y="0" width="700" height="500" style="fill: rgb(0, 0, 0); fill-opacity: 0;"/><defs id="defs-de412c"><g class="clips"><clipPath id="clipde412cxyplot" class="plotclip"><rect width="540" height="320"/></clipPath><clipPath class="axesclip" id="clipde412cx"><rect x="80" y="0" width="540" height="500"/></clipPath><clipPath class="axesclip" id="clipde412cy"><rect x="0" y="100" width="700" height="320"/></clipPath><clipPath class="axesclip" id="clipde412cxy"><rect x="80" y="100" width="540" height="320"/></clipPath></g><g class="gradients"/><g class="patterns"/></defs><g class="bglayer"><rect class="bg" x="80" y="100" width="540" height="320" style="fill: rgb(0, 0, 0); fill-opacity: 0; stroke-width: 0;"/></g><g class="layer-below"><g class="imagelayer"/><g class="shapelayer"/></g><g class="cartesianlayer"><g class="subplot xy"><g class="layer-subplot"><g class="shapelayer"/><g class="imagelayer"/></g><g class="minor-gridlayer"><g class="x"/><g class="y"/></g><g class="gridlayer"><g class="x"><path class="xgrid crisp" transform="translate(100.81,0)" d="M0,100v320" style="stroke: rgb(255, 255, 255); stroke-opacity: 1; stroke-width: 1px;"/><path class="xgrid crisp" transform="translate(204.09,0)" d="M0,100v320" style="stroke: rgb(255, 255, 255); stroke-opacity: 1; stroke-width: 1px;"/><path class="xgrid crisp" transform="translate(307.23,0)" d="M0,100v320" style="stroke: rgb(255, 255, 255); stroke-opacity: 1; stroke-width: 1px;"/><path class="xgrid crisp" transform="translate(410.51,0)" d="M0,100v320" style="stroke: rgb(255, 255, 255); stroke-opacity: 1; stroke-width: 1px;"/><path class="xgrid crisp" transform="translate(513.64,0)" d="M0,100v320" style="stroke: rgb(255, 255, 255); stroke-opacity: 1; stroke-width: 1px;"/><path class="xgrid crisp" transform="translate(616.92,0)" d="M0,100v320" style="stroke: rgb(255, 255, 255); stroke-opacity: 1; stroke-width: 1px;"/></g><g class="y"><path class="ygrid crisp" transform="translate(0,337.08000000000004)" d="M80,0h540" style="stroke: rgb(255, 255, 255); stroke-opacity: 1; stroke-width: 1px;"/><path class="ygrid crisp" transform="translate(0,254.15)" d="M80,0h540" style="stroke: rgb(255, 255, 255); stroke-opacity: 1; stroke-width: 1px;"/><path class="ygrid crisp" transform="translate(0,171.23000000000002)" d="M80,0h540" style="stroke: rgb(255, 255, 255); stroke-opacity: 1; stroke-width: 1px;"/></g></g><g class="zerolinelayer"><path class="yzl zl crisp" transform="translate(0,420)" d="M80,0h540" style="stroke: rgb(255, 255, 255); stroke-opacity: 1; stroke-width: 2px;"/></g><g class="layer-between"><g class="shapelayer"/><g class="imagelayer"/></g><path class="xlines-below"/><path class="ylines-below"/><g class="overlines-below"/><g class="xaxislayer-below"/><g class="yaxislayer-below"/><g class="overaxes-below"/><g class="overplot"><g class="xy" transform="translate(80,100)" clip-path="url(#clipde412cxyplot)"><g class="scatterlayer mlayer"><g class="trace scatter tracef7c7a6" style="stroke-miterlimit: 2;"><g class="fills"><g><path class="js-fill" d="M540,320L0,320L0,319.83L0,319.5L1.94,319.34L3.79,318.34L4.5,318.18L5.09,317.01L5.47,316.85L6.06,315.85L6.37,315.69L8.47,312.21L8.87,312.04L10,311.04L10.01,310.88L10.88,310.05L11.55,309.88L12.56,307.73L12.56,307.56L12.83,306.9L13.32,306.73L13.99,305.24L14.51,305.07L15.67,304.58L16.88,304.41L18.34,303.25L18.48,303.08L23.73,302.09L24.57,301.92L25.71,301.42L26.26,301.26L27.4,299.93L29.25,299.77L32.21,297.94L33.4,297.78L37.3,294.96L37.32,294.79L37.61,294.13L38.24,293.96L40.4,291.97L40.4,291.81L41.08,290.98L41.38,290.81L43.62,288.82L44.9,288.65L47.04,286.66L47.18,286.5L47.55,285.84L48.2,285.67L51.5,284.01L52.42,283.85L55.47,282.35L55.48,282.19L58.04,280.69L58.2,280.53L58.9,279.86L59.06,279.7L59.35,279.37L60.93,279.2L64.18,276.22L64.28,276.05L64.4,275.72L65.16,275.55L67.73,274.23L67.77,274.06L68.08,273.73L68.82,273.56L69.97,273.23L70.92,273.06L71.75,271.9L72.14,271.74L78,269.75L78.11,269.58L80.23,268.09L80.85,267.92L81.18,267.09L82.07,266.93L82.25,266.27L83.39,266.1L85.88,264.27L85.93,264.11L97.65,258.97L97.73,258.8L100.44,257.81L100.53,257.64L101.98,254.32L102.39,254.16L111.28,249.18L112.56,249.02L115.58,247.86L116.38,247.69L117.82,247.03L118.81,246.86L120.66,245.7L120.69,245.53L125.3,243.38L125.49,243.21L126.5,242.55L126.9,242.38L132.66,238.57L132.67,238.4L139.4,235.25L139.54,235.09L139.99,234.42L140.55,234.26L148.66,230.28L149.9,230.11L149.93,229.94L151.02,229.78L152.14,228.45L153.02,228.29L153.8,227.79L154.83,227.62L158.3,226.46L158.77,226.3L161.03,224.47L161.76,224.31L174.62,219.16L176.57,219L178.99,217.67L179.58,217.51L180.83,216.84L181.83,216.68L184.62,215.02L184.63,214.85L188.74,212.7L188.76,212.53L189.88,211.87L190.01,211.7L192.85,209.71L192.89,209.55L205.28,205.9L205.41,205.73L205.9,205.23L206.74,205.07L214.69,202.58L215.16,202.41L221.31,198.27L221.34,198.1L222.63,197.11L222.65,196.94L224.99,195.45L225.02,195.28L225.14,194.95L226.17,194.78L228.45,193.79L228.58,193.62L229.17,193.29L231.28,193.13L236.95,191.47L237.02,191.3L237.91,190.8L238.23,190.64L239.9,189.64L240,189.48L240.71,188.81L241.88,188.65L243.54,187.49L244.11,187.32L244.84,186.49L245.26,186.33L245.96,185.5L246.06,185.33L246.93,184.67L247.2,184.5L248.07,183.67L248.08,183.51L251.02,181.85L251.15,181.68L252.18,180.69L252.6,180.52L255.84,178.86L255.84,178.7L267.06,171.73L267.94,171.57L269.03,170.57L269.57,170.4L270.15,169.58L270.52,169.41L275.9,167.42L279.42,167.25L285.82,165.76L285.83,165.6L289.3,163.94L289.52,163.77L294.57,160.95L295.73,160.79L298.37,159.46L298.48,159.29L299.26,158.46L300.49,158.3L302.57,156.31L303.61,156.14L304.5,154.65L304.57,154.48L305.25,153.99L305.58,153.82L307.67,152.66L308.21,152.49L309.58,151.66L310.2,151.5L319.28,146.36L320.39,146.19L321.17,145.86L321.98,145.69L322.12,145.36L323.22,145.2L323.98,144.37L324.35,144.2L332.99,142.21L333.28,142.04L336.1,140.88L336.12,140.72L337.45,139.39L337.79,139.23L344.13,136.9L344.18,136.74L348.57,135.41L348.65,135.24L351.11,133.59L351.41,133.42L358.7,130.44L359.55,130.27L366.62,127.45L366.75,127.28L370.54,125.63L370.92,125.46L373.27,124.3L373.27,124.13L373.27,123.8L374.53,123.64L375.56,123.14L377.38,122.97L377.82,122.47L378.63,122.31L378.64,122.14L379.77,121.98L379.91,121.81L381.45,121.65L386.82,119.32L386.83,119.16L387.8,118L387.84,117.83L392.53,115.84L392.6,115.67L394.3,114.68L394.34,114.51L396.54,113.52L397.36,113.35L407.3,109.54L408.54,109.37L409.33,108.38L409.42,108.21L413.86,106.39L413.97,106.22L420.28,100.91L420.28,100.75L421,99.26L421.26,99.09L425.05,95.94L425.73,95.77L433.05,90.63L434.84,90.47L439.07,87.98L439.1,87.81L439.94,86.15L439.97,85.99L443.05,80.18L443.6,80.02L443.92,79.35L444.78,79.19L446.13,77.7L446.74,77.53L447.37,77.03L447.55,76.87L450.07,75.04L450.59,74.88L451.99,72.06L452.48,71.89L454.39,69.9L455.03,69.73L455.87,68.57L456.07,68.41L457.73,67.25L457.74,67.08L458.46,66.25L458.56,66.09L460.01,64.59L460.03,64.43L460.82,63.93L461.58,63.76L463.71,62.6L463.82,62.44L466.8,59.45L466.89,59.29L467.75,58.29L467.76,58.13L468.5,57.3L468.63,57.13L468.89,56.47L469.61,56.3L470.43,55.14L470.5,54.97L476.65,49.67L476.68,49.5L479.62,47.51L479.62,47.35L480.47,46.35L481.24,46.18L483.58,44.53L485.24,44.36L485.29,44.19L486.13,44.03L490.06,41.87L490.14,41.71L494.19,39.22L494.34,39.05L497.51,37.73L497.65,37.56L503.54,34.58L504.35,34.41L505.1,33.75L505.33,33.58L505.5,33.25L506.22,33.08L508.08,31.92L508.15,31.76L511.16,30.76L511.2,30.59L512.41,29.27L512.81,29.1L513.12,28.6L514.06,28.44L514.19,28.11L515.21,27.94L519.09,26.28L519.17,26.12L520.8,25.29L521.23,25.12L522.34,24.13L523.14,23.96L523.19,23.79L524.68,23.63L526.23,22.8L527.15,22.63L527.25,22.3L528.08,22.14L528.74,21.8L530.23,21.64L532.59,20.48L532.94,20.31L535.16,17.33L535.57,17.16L539.79,16.33L539.84,16.17L540,16" style="fill: rgb(255, 127, 14); fill-opacity: 0.5; stroke-width: 0;"/></g></g><g class="errorbars"/><g class="lines"><path class="js-line" d="M0,319.83L0,319.5L1.94,319.34L3.79,318.34L4.5,318.18L5.09,317.01L5.47,316.85L6.06,315.85L6.37,315.69L8.47,312.21L8.87,312.04L10,311.04L10.01,310.88L10.88,310.05L11.55,309.88L12.56,307.73L12.56,307.56L12.83,306.9L13.32,306.73L13.99,305.24L14.51,305.07L15.67,304.58L16.88,304.41L18.34,303.25L18.48,303.08L23.73,302.09L24.57,301.92L25.71,301.42L26.26,301.26L27.4,299.93L29.25,299.77L32.21,297.94L33.4,297.78L37.3,294.96L37.32,294.79L37.61,294.13L38.24,293.96L40.4,291.97L40.4,291.81L41.08,290.98L41.38,290.81L43.62,288.82L44.9,288.65L47.04,286.66L47.18,286.5L47.55,285.84L48.2,285.67L51.5,284.01L52.42,283.85L55.47,282.35L55.48,282.19L58.04,280.69L58.2,280.53L58.9,279.86L59.06,279.7L59.35,279.37L60.93,279.2L64.18,276.22L64.28,276.05L64.4,275.72L65.16,275.55L67.73,274.23L67.77,274.06L68.08,273.73L68.82,273.56L69.97,273.23L70.92,273.06L71.75,271.9L72.14,271.74L78,269.75L78.11,269.58L80.23,268.09L80.85,267.92L81.18,267.09L82.07,266.93L82.25,266.27L83.39,266.1L85.88,264.27L85.93,264.11L97.65,258.97L97.73,258.8L100.44,257.81L100.53,257.64L101.98,254.32L102.39,254.16L111.28,249.18L112.56,249.02L115.58,247.86L116.38,247.69L117.82,247.03L118.81,246.86L120.66,245.7L120.69,245.53L125.3,243.38L125.49,243.21L126.5,242.55L126.9,242.38L132.66,238.57L132.67,238.4L139.4,235.25L139.54,235.09L139.99,234.42L140.55,234.26L148.66,230.28L149.9,230.11L149.93,229.94L151.02,229.78L152.14,228.45L153.02,228.29L153.8,227.79L154.83,227.62L158.3,226.46L158.77,226.3L161.03,224.47L161.76,224.31L174.62,219.16L176.57,219L178.99,217.67L179.58,217.51L180.83,216.84L181.83,216.68L184.62,215.02L184.63,214.85L188.74,212.7L188.76,212.53L189.88,211.87L190.01,211.7L192.85,209.71L192.89,209.55L205.28,205.9L205.41,205.73L205.9,205.23L206.74,205.07L214.69,202.58L215.16,202.41L221.31,198.27L221.34,198.1L222.63,197.11L222.65,196.94L224.99,195.45L225.02,195.28L225.14,194.95L226.17,194.78L228.45,193.79L228.58,193.62L229.17,193.29L231.28,193.13L236.95,191.47L237.02,191.3L237.91,190.8L238.23,190.64L239.9,189.64L240,189.48L240.71,188.81L241.88,188.65L243.54,187.49L244.11,187.32L244.84,186.49L245.26,186.33L245.96,185.5L246.06,185.33L246.93,184.67L247.2,184.5L248.07,183.67L248.08,183.51L251.02,181.85L251.15,181.68L252.18,180.69L252.6,180.52L255.84,178.86L255.84,178.7L267.06,171.73L267.94,171.57L269.03,170.57L269.57,170.4L270.15,169.58L270.52,169.41L275.9,167.42L279.42,167.25L285.82,165.76L285.83,165.6L289.3,163.94L289.52,163.77L294.57,160.95L295.73,160.79L298.37,159.46L298.48,159.29L299.26,158.46L300.49,158.3L302.57,156.31L303.61,156.14L304.5,154.65L304.57,154.48L305.25,153.99L305.58,153.82L307.67,152.66L308.21,152.49L309.58,151.66L310.2,151.5L319.28,146.36L320.39,146.19L321.17,145.86L321.98,145.69L322.12,145.36L323.22,145.2L323.98,144.37L324.35,144.2L332.99,142.21L333.28,142.04L336.1,140.88L336.12,140.72L337.45,139.39L337.79,139.23L344.13,136.9L344.18,136.74L348.57,135.41L348.65,135.24L351.11,133.59L351.41,133.42L358.7,130.44L359.55,130.27L366.62,127.45L366.75,127.28L370.54,125.63L370.92,125.46L373.27,124.3L373.27,124.13L373.27,123.8L374.53,123.64L375.56,123.14L377.38,122.97L377.82,122.47L378.63,122.31L378.64,122.14L379.77,121.98L379.91,121.81L381.45,121.65L386.82,119.32L386.83,119.16L387.8,118L387.84,117.83L392.53,115.84L392.6,115.67L394.3,114.68L394.34,114.51L396.54,113.52L397.36,113.35L407.3,109.54L408.54,109.37L409.33,108.38L409.42,108.21L413.86,106.39L413.97,106.22L420.28,100.91L420.28,100.75L421,99.26L421.26,99.09L425.05,95.94L425.73,95.77L433.05,90.63L434.84,90.47L439.07,87.98L439.1,87.81L439.94,86.15L439.97,85.99L443.05,80.18L443.6,80.02L443.92,79.35L444.78,79.19L446.13,77.7L446.74,77.53L447.37,77.03L447.55,76.87L450.07,75.04L450.59,74.88L451.99,72.06L452.48,71.89L454.39,69.9L455.03,69.73L455.87,68.57L456.07,68.41L457.73,67.25L457.74,67.08L458.46,66.25L458.56,66.09L460.01,64.59L460.03,64.43L460.82,63.93L461.58,63.76L463.71,62.6L463.82,62.44L466.8,59.45L466.89,59.29L467.75,58.29L467.76,58.13L468.5,57.3L468.63,57.13L468.89,56.47L469.61,56.3L470.43,55.14L470.5,54.97L476.65,49.67L476.68,49.5L479.62,47.51L479.62,47.35L480.47,46.35L481.24,46.18L483.58,44.53L485.24,44.36L485.29,44.19L486.13,44.03L490.06,41.87L490.14,41.71L494.19,39.22L494.34,39.05L497.51,37.73L497.65,37.56L503.54,34.58L504.35,34.41L505.1,33.75L505.33,33.58L505.5,33.25L506.22,33.08L508.08,31.92L508.15,31.76L511.16,30.76L511.2,30.59L512.41,29.27L512.81,29.1L513.12,28.6L514.06,28.44L514.19,28.11L515.21,27.94L519.09,26.28L519.17,26.12L520.8,25.29L521.23,25.12L522.34,24.13L523.14,23.96L523.19,23.79L524.68,23.63L526.23,22.8L527.15,22.63L527.25,22.3L528.08,22.14L528.74,21.8L530.23,21.64L532.59,20.48L532.94,20.31L535.16,17.33L535.57,17.16L539.79,16.33L539.84,16.17L540,16" style="vector-effect: none; fill: none; stroke: rgb(255, 127, 14); stroke-opacity: 1; stroke-width: 2px; opacity: 1;"/></g><g class="points"/><g class="text"/></g></g></g></g><g class="zerolinelayer-above"/><path class="xlines-above crisp" d="M0,0" style="fill: none;"/><path class="ylines-above crisp" d="M0,0" style="fill: none;"/><g class="overlines-above"/><g class="xaxislayer-above"><g class="xtick"><text text-anchor="middle" x="0" y="439" transform="translate(100.81,0)" style="font-family: 'Open Sans'; font-size: 18px; fill: rgb(0, 0, 0); fill-opacity: 1; white-space: pre;">2016</text></g><g class="xtick"><text text-anchor="middle" x="0" y="439" style="font-family: 'Open Sans'; font-size: 18px; fill: rgb(0, 0, 0); fill-opacity: 1; white-space: pre;" transform="translate(204.09,0)">2018</text></g><g class="xtick"><text text-anchor="middle" x="0" y="439" style="font-family: 'Open Sans'; font-size: 18px; fill: rgb(0, 0, 0); fill-opacity: 1; white-space: pre;" transform="translate(307.23,0)">2020</text></g><g class="xtick"><text text-anchor="middle" x="0" y="439" style="font-family: 'Open Sans'; font-size: 18px; fill: rgb(0, 0, 0); fill-opacity: 1; white-space: pre;" transform="translate(410.51,0)">2022</text></g><g class="xtick"><text text-anchor="middle" x="0" y="439" style="font-family: 'Open Sans'; font-size: 18px; fill: rgb(0, 0, 0); fill-opacity: 1; white-space: pre;" transform="translate(513.64,0)">2024</text></g><g class="xtick"><text text-anchor="middle" x="0" y="439" style="font-family: 'Open Sans'; font-size: 18px; fill: rgb(0, 0, 0); fill-opacity: 1; white-space: pre;" transform="translate(616.92,0)">2026</text></g></g><g class="yaxislayer-above"><g class="ytick"><text text-anchor="end" x="79" y="6.3" transform="translate(0,420)" style="font-family: 'Open Sans'; font-size: 18px; fill: rgb(0, 0, 0); fill-opacity: 1; white-space: pre;">0</text></g><g class="ytick"><text text-anchor="end" x="79" y="6.3" style="font-family: 'Open Sans'; font-size: 18px; fill: rgb(0, 0, 0); fill-opacity: 1; white-space: pre;" transform="translate(0,337.08000000000004)">500</text></g><g class="ytick"><text text-anchor="end" x="79" y="6.3" style="font-family: 'Open Sans'; font-size: 18px; fill: rgb(0, 0, 0); fill-opacity: 1; white-space: pre;" transform="translate(0,254.15)">1000</text></g><g class="ytick"><text text-anchor="end" x="79" y="6.3" style="font-family: 'Open Sans'; font-size: 18px; fill: rgb(0, 0, 0); fill-opacity: 1; white-space: pre;" transform="translate(0,171.23000000000002)">1500</text></g></g><g class="overaxes-above"/></g></g><g class="polarlayer"/><g class="smithlayer"/><g class="ternarylayer"/><g class="geolayer"/><g class="funnelarealayer"/><g class="pielayer"/><g class="iciclelayer"/><g class="treemaplayer"/><g class="sunburstlayer"/><g class="glimages"/><defs id="topdefs-de412c"><g class="clips"/></defs><g class="layer-above"><g class="imagelayer"/><g class="shapelayer"/></g><g class="infolayer"><g class="g-gtitle"><text class="gtitle" x="35" y="50" text-anchor="start" dy="0em" style="opacity: 1; font-family: 'Open Sans'; font-size: 25px; fill: rgb(0, 0, 0); fill-opacity: 1; white-space: pre;">MultiQC/MultiQC - Issues Created Over Time</text></g><g class="g-xtitle"><text class="xtitle" x="350" y="472.9" text-anchor="middle" style="opacity: 1; font-family: 'Open Sans'; font-size: 22px; fill: rgb(0, 0, 0); fill-opacity: 1; white-space: pre;">Date</text></g><g class="g-ytitle"><text class="ytitle" transform="rotate(-90,20.799999999999997,260)" x="20.799999999999997" y="260" text-anchor="middle" style="opacity: 1; font-family: 'Open Sans'; font-size: 22px; fill: rgb(0, 0, 0); fill-opacity: 1; white-space: pre;">Cumulative Issues Created</text></g></g></svg>