<svg class="main-svg" xmlns="http://www.w3.org/2000/svg" xmlns:xlink="http://www.w3.org/1999/xlink" width="700" height="500" style="" viewBox="0 0 700 500"><rect x="0" y="0" width="700" height="500" style="fill: rgb(0, 0, 0); fill-opacity: 0;"/><defs id="defs-014027"><g class="clips"><clipPath id="clip014027xyplot" class="plotclip"><rect width="540" height="320"/></clipPath><clipPath class="axesclip" id="clip014027x"><rect x="80" y="0" width="540" height="500"/></clipPath><clipPath class="axesclip" id="clip014027y"><rect x="0" y="100" width="700" height="320"/></clipPath><clipPath class="axesclip" id="clip014027xy"><rect x="80" y="100" width="540" height="320"/></clipPath></g><g class="gradients"/><g class="patterns"/></defs><g class="bglayer"><rect class="bg" x="80" y="100" width="540" height="320" style="fill: rgb(0, 0, 0); fill-opacity: 0; stroke-width: 0;"/></g><g class="layer-below"><g class="imagelayer"/><g class="shapelayer"/></g><g class="cartesianlayer"><g class="subplot xy"><g class="layer-subplot"><g class="shapelayer"/><g class="imagelayer"/></g><g class="minor-gridlayer"><g class="x"/><g class="y"/></g><g class="gridlayer"><g class="x"><path class="xgrid crisp" transform="translate(101.12,0)" d="M0,100v320" style="stroke: rgb(255, 255, 255); stroke-opacity: 1; stroke-width: 1px;"/><path class="xgrid crisp" transform="translate(205.94,0)" d="M0,100v320" style="stroke: rgb(255, 255, 255); stroke-opacity: 1; stroke-width: 1px;"/><path class="xgrid crisp" transform="translate(310.61,0)" d="M0,100v320" style="stroke: rgb(255, 255, 255); stroke-opacity: 1; stroke-width: 1px;"/><path class="xgrid crisp" transform="translate(415.43,0)" d="M0,100v320" style="stroke: rgb(255, 255, 255); stroke-opacity: 1; stroke-width: 1px;"/><path class="xgrid crisp" transform="translate(520.11,0)" d="M0,100v320" style="stroke: rgb(255, 255, 255); stroke-opacity: 1; stroke-width: 1px;"/></g><g class="y"><path class="ygrid crisp" transform="translate(0,335.78999999999996)" d="M80,0h540" style="stroke: rgb(255, 255, 255); stroke-opacity: 1; stroke-width: 1px;"/><path class="ygrid crisp" transform="translate(0,251.58)" d="M80,0h540" style="stroke: rgb(255, 255, 255); stroke-opacity: 1; stroke-width: 1px;"/><path class="ygrid crisp" transform="translate(0,167.37)" d="M80,0h540" style="stroke: rgb(255, 255, 255); stroke-opacity: 1; stroke-width: 1px;"/></g></g><g class="zerolinelayer"><path class="yzl zl crisp" transform="translate(0,420)" d="M80,0h540" style="stroke: rgb(255, 255, 255); stroke-opacity: 1; stroke-width: 2px;"/></g><g class="layer-between"><g class="shapelayer"/><g class="imagelayer"/></g><path class="xlines-below"/><path class="ylines-below"/><g class="overlines-below"/><g class="xaxislayer-below"/><g class="yaxislayer-below"/><g class="overaxes-below"/><g class="overplot"><g class="xy" transform="translate(80,100)" clip-path="url(#clip014027xyplot)"><g class="scatterlayer mlayer"><g class="trace scatter trace4ff1a7" style="stroke-miterlimit: 2;"><g class="fills"><g><path class="js-fill" d="M540,320L0,320L0,319.83L0,319.49L1.97,319.33L3.85,318.32L4.56,318.15L5.17,316.97L5.55,316.8L6.15,315.79L6.46,315.62L8.59,312.08L9,311.92L10.15,310.91L10.15,310.74L11.04,309.89L11.73,309.73L12.75,307.54L12.75,307.37L13.02,306.69L13.52,306.53L14.2,305.01L14.72,304.84L15.9,304.34L17.13,304.17L18.61,302.99L18.75,302.82L24.08,301.81L24.94,301.64L26.09,301.14L26.66,300.97L27.81,299.62L29.69,299.45L32.69,297.6L33.9,297.43L37.86,294.74L37.86,294.57L38.17,293.73L38.81,293.56L41,291.37L41.01,291.2L41.69,290.53L41.99,290.36L44.27,288.34L45.56,288.17L47.74,286.15L47.88,285.98L48.25,285.31L48.92,285.14L52.27,283.45L53.2,283.28L56.3,281.77L56.3,281.6L58.62,280.25L58.91,280.08L60.24,278.74L61.84,278.57L65.14,275.54L65.24,275.37L65.36,275.03L66.13,274.86L68.74,273.52L68.78,273.35L69.09,273.01L69.85,272.84L71.02,272.51L71.98,272.34L72.81,271.16L73.21,270.99L79.16,268.97L79.27,268.8L81.43,267.28L82.05,267.12L82.39,266.27L83.29,266.11L83.47,265.43L84.63,265.26L87.16,263.41L87.21,263.24L98.32,258.36L98.7,258.19L102.07,256.51L102.08,256.34L102.5,254.48L102.5,254.32L103.25,253.47L103.5,253.31L107.12,251.12L107.49,250.95L110.34,249.43L110.52,249.26L119.58,245.89L120.58,245.73L122.46,244.55L122.49,244.38L127.36,242.02L127.46,241.85L128.39,241.35L128.79,241.18L134.63,237.31L134.64,237.14L141.48,233.94L141.62,233.77L142.07,233.09L142.65,232.93L150.88,228.88L152.13,228.72L152.17,228.55L153.27,228.38L154.4,227.03L155.3,226.86L155.56,226.53L156.09,226.36L161.14,224.84L161.28,224.67L162.1,224L162.27,223.83L174.46,218.61L174.61,218.44L174.72,218.11L176.53,217.94L182.38,215.75L182.48,215.58L187.07,213.89L187.23,213.73L187.82,213.05L188.4,212.88L188.7,212.55L189.7,212.38L190.45,212.04L190.64,211.87L191.41,211.2L191.55,211.03L191.88,210.36L192.71,210.19L194.72,208.51L195.56,208.34L196.89,207.16L197.46,206.99L204.61,205.31L204.86,205.14L208.47,203.96L208.5,203.79L210.77,202.78L212.54,202.61L213.79,202.27L214.63,202.11L218.37,200.59L218.65,200.42L224.56,196.55L224.6,196.38L225.36,196.04L225.53,195.87L228.5,193.01L229.55,192.84L231.85,191.83L231.99,191.66L232.59,191.33L234.72,191.16L240.48,189.47L240.56,189.31L241.46,188.8L241.78,188.63L243.3,187.79L243.48,187.62L244.3,186.78L245.48,186.61L247.17,185.43L247.75,185.26L248.48,184.42L248.92,184.25L249.63,183.41L249.72,183.24L250.61,182.57L250.88,182.4L251.76,181.56L251.78,181.39L254.76,179.71L254.9,179.54L255.93,178.53L256.36,178.36L259.65,176.67L259.66,176.51L271.04,169.43L271.93,169.26L273.04,168.25L273.58,168.08L274.17,167.24L274.55,167.07L280.01,165.05L283.59,164.88L290.08,163.37L290.09,163.2L293.61,161.52L293.84,161.35L297.12,159.66L297.64,159.49L297.93,158.99L298.68,158.82L300.79,158.15L301.24,157.98L302.97,156.63L303,156.46L303.72,155.96L304.97,155.79L307.08,153.77L308.14,153.6L309.03,152.08L309.11,151.92L309.8,151.41L310.14,151.24L312.26,150.06L312.81,149.89L314.19,149.05L314.83,148.88L316.01,147.54L316.12,147.37L319.34,145.85L319.34,145.68L328.08,142.32L328.22,142.15L328.81,141.64L329.18,141.47L336.45,139.79L337.1,139.62L341.11,138.11L341.13,137.94L342.4,136.76L342.48,136.59L345.26,135.92L346.03,135.75L348.26,134.57L348.85,134.4L350.71,133.56L351.82,133.39L355.16,131.2L355.18,131.03L359.2,129.35L359.32,129.18L360.07,128.84L360.19,128.67L364.05,127.49L364.91,127.33L372.08,124.46L372.21,124.29L376.45,122.44L377.35,122.27L378.84,121.26L378.84,121.09L378.84,120.76L380.11,120.59L381.16,120.08L383,119.92L383.45,119.41L384.28,119.24L384.29,119.07L385.43,118.91L385.57,118.74L387.13,118.57L392.32,116.38L392.59,116.21L393.28,115.37L393.42,115.2L394.18,114.53L394.51,114.36L398.36,112.84L398.38,112.67L399.33,112.17L399.62,112L400.22,111.33L401.67,111.16L402.45,110.32L403.28,110.15L410.38,107.45L411.09,107.28L415.37,105.43L415.41,105.26L416.22,104.59L417.38,104.42L418.59,103.75L419.41,103.58L426.54,97.52L426.54,97.35L427.27,95.83L427.54,95.66L431.39,92.46L432.08,92.29L439.5,87.07L441.32,86.91L445.61,84.38L445.64,84.21L446.34,82.69L446.5,82.53L447.68,79.66L447.78,79.49L448.65,77.31L448.98,77.14L449.65,76.46L450.21,76.29L450.54,75.62L451.41,75.45L452.78,73.94L453.4,73.77L454.04,73.26L454.23,73.09L456.77,71.24L457.31,71.07L458.73,68.21L459.22,68.04L461.16,66.02L461.81,65.85L462.67,64.67L462.86,64.51L464.56,63.33L464.56,63.16L465.4,62.15L465.73,61.98L467.69,59.96L468.47,59.79L470.63,58.61L470.74,58.44L473.44,55.75L473.46,55.58L474.72,54.23L474.73,54.06L475.48,53.22L475.61,53.05L475.88,52.38L476.61,52.21L477.51,50.86L477.74,50.69L477.86,50.02L478.5,49.85L480.31,48L480.92,47.83L482.78,46.32L482.9,46.15L484.04,45.14L484.33,44.97L485.93,44.46L486.36,44.29L487.64,42.11L488.41,41.94L490.79,40.25L492.48,40.08L492.53,39.92L493.37,39.75L496.7,37.89L496.84,37.73L500.85,35.71L500.86,35.54L502.57,34.53L502.85,34.36L504.93,33.35L505.06,33.18L511.04,30.15L511.87,29.98L512.63,29.31L512.86,29.14L513.04,28.8L513.76,28.63L515.65,27.45L515.72,27.28L518.77,26.27L518.82,26.11L520.05,24.76L520.45,24.59L520.77,24.08L521.73,23.92L521.86,23.58L522.89,23.41L526.91,21.56L527.08,21.39L529.64,19.87L529.68,19.71L540,16" style="fill: rgb(255, 127, 14); fill-opacity: 0.5; stroke-width: 0;"/></g></g><g class="errorbars"/><g class="lines"><path class="js-line" d="M0,319.83L0,319.49L1.97,319.33L3.85,318.32L4.56,318.15L5.17,316.97L5.55,316.8L6.15,315.79L6.46,315.62L8.59,312.08L9,311.92L10.15,310.91L10.15,310.74L11.04,309.89L11.73,309.73L12.75,307.54L12.75,307.37L13.02,306.69L13.52,306.53L14.2,305.01L14.72,304.84L15.9,304.34L17.13,304.17L18.61,302.99L18.75,302.82L24.08,301.81L24.94,301.64L26.09,301.14L26.66,300.97L27.81,299.62L29.69,299.45L32.69,297.6L33.9,297.43L37.86,294.74L37.86,294.57L38.17,293.73L38.81,293.56L41,291.37L41.01,291.2L41.69,290.53L41.99,290.36L44.27,288.34L45.56,288.17L47.74,286.15L47.88,285.98L48.25,285.31L48.92,285.14L52.27,283.45L53.2,283.28L56.3,281.77L56.3,281.6L58.62,280.25L58.91,280.08L60.24,278.74L61.84,278.57L65.14,275.54L65.24,275.37L65.36,275.03L66.13,274.86L68.74,273.52L68.78,273.35L69.09,273.01L69.85,272.84L71.02,272.51L71.98,272.34L72.81,271.16L73.21,270.99L79.16,268.97L79.27,268.8L81.43,267.28L82.05,267.12L82.39,266.27L83.29,266.11L83.47,265.43L84.63,265.26L87.16,263.41L87.21,263.24L98.32,258.36L98.7,258.19L102.07,256.51L102.08,256.34L102.5,254.48L102.5,254.32L103.25,253.47L103.5,253.31L107.12,251.12L107.49,250.95L110.34,249.43L110.52,249.26L119.58,245.89L120.58,245.73L122.46,244.55L122.49,244.38L127.36,242.02L127.46,241.85L128.39,241.35L128.79,241.18L134.63,237.31L134.64,237.14L141.48,233.94L141.62,233.77L142.07,233.09L142.65,232.93L150.88,228.88L152.13,228.72L152.17,228.55L153.27,228.38L154.4,227.03L155.3,226.86L155.56,226.53L156.09,226.36L161.14,224.84L161.28,224.67L162.1,224L162.27,223.83L174.46,218.61L174.61,218.44L174.72,218.11L176.53,217.94L182.38,215.75L182.48,215.58L187.07,213.89L187.23,213.73L187.82,213.05L188.4,212.88L188.7,212.55L189.7,212.38L190.45,212.04L190.64,211.87L191.41,211.2L191.55,211.03L191.88,210.36L192.71,210.19L194.72,208.51L195.56,208.34L196.89,207.16L197.46,206.99L204.61,205.31L204.86,205.14L208.47,203.96L208.5,203.79L210.77,202.78L212.54,202.61L213.79,202.27L214.63,202.11L218.37,200.59L218.65,200.42L224.56,196.55L224.6,196.38L225.36,196.04L225.53,195.87L228.5,193.01L229.55,192.84L231.85,191.83L231.99,191.66L232.59,191.33L234.72,191.16L240.48,189.47L240.56,189.31L241.46,188.8L241.78,188.63L243.3,187.79L243.48,187.62L244.3,186.78L245.48,186.61L247.17,185.43L247.75,185.26L248.48,184.42L248.92,184.25L249.63,183.41L249.72,183.24L250.61,182.57L250.88,182.4L251.76,181.56L251.78,181.39L254.76,179.71L254.9,179.54L255.93,178.53L256.36,178.36L259.65,176.67L259.66,176.51L271.04,169.43L271.93,169.26L273.04,168.25L273.58,168.08L274.17,167.24L274.55,167.07L280.01,165.05L283.59,164.88L290.08,163.37L290.09,163.2L293.61,161.52L293.84,161.35L297.12,159.66L297.64,159.49L297.93,158.99L298.68,158.82L300.79,158.15L301.24,157.98L302.97,156.63L303,156.46L303.72,155.96L304.97,155.79L307.08,153.77L308.14,153.6L309.03,152.08L309.11,151.92L309.8,151.41L310.14,151.24L312.26,150.06L312.81,149.89L314.19,149.05L314.83,148.88L316.01,147.54L316.12,147.37L319.34,145.85L319.34,145.68L328.08,142.32L328.22,142.15L328.81,141.64L329.18,141.47L336.45,139.79L337.1,139.62L341.11,138.11L341.13,137.94L342.4,136.76L342.48,136.59L345.26,135.92L346.03,135.75L348.26,134.57L348.85,134.4L350.71,133.56L351.82,133.39L355.16,131.2L355.18,131.03L359.2,129.35L359.32,129.18L360.07,128.84L360.19,128.67L364.05,127.49L364.91,127.33L372.08,124.46L372.21,124.29L376.45,122.44L377.35,122.27L378.84,121.26L378.84,121.09L378.84,120.76L380.11,120.59L381.16,120.08L383,119.92L383.45,119.41L384.28,119.24L384.29,119.07L385.43,118.91L385.57,118.74L387.13,118.57L392.32,116.38L392.59,116.21L393.28,115.37L393.42,115.2L394.18,114.53L394.51,114.36L398.36,112.84L398.38,112.67L399.33,112.17L399.62,112L400.22,111.33L401.67,111.16L402.45,110.32L403.28,110.15L410.38,107.45L411.09,107.28L415.37,105.43L415.41,105.26L416.22,104.59L417.38,104.42L418.59,103.75L419.41,103.58L426.54,97.52L426.54,97.35L427.27,95.83L427.54,95.66L431.39,92.46L432.08,92.29L439.5,87.07L441.32,86.91L445.61,84.38L445.64,84.21L446.34,82.69L446.5,82.53L447.68,79.66L447.78,79.49L448.65,77.31L448.98,77.14L449.65,76.46L450.21,76.29L450.54,75.62L451.41,75.45L452.78,73.94L453.4,73.77L454.04,73.26L454.23,73.09L456.77,71.24L457.31,71.07L458.73,68.21L459.22,68.04L461.16,66.02L461.81,65.85L462.67,64.67L462.86,64.51L464.56,63.33L464.56,63.16L465.4,62.15L465.73,61.98L467.69,59.96L468.47,59.79L470.63,58.61L470.74,58.44L473.44,55.75L473.46,55.58L474.72,54.23L474.73,54.06L475.48,53.22L475.61,53.05L475.88,52.38L476.61,52.21L477.51,50.86L477.74,50.69L477.86,50.02L478.5,49.85L480.31,48L480.92,47.83L482.78,46.32L482.9,46.15L484.04,45.14L484.33,44.97L485.93,44.46L486.36,44.29L487.64,42.11L488.41,41.94L490.79,40.25L492.48,40.08L492.53,39.92L493.37,39.75L496.7,37.89L496.84,37.73L500.85,35.71L500.86,35.54L502.57,34.53L502.85,34.36L504.93,33.35L505.06,33.18L511.04,30.15L511.87,29.98L512.63,29.31L512.86,29.14L513.04,28.8L513.76,28.63L515.65,27.45L515.72,27.28L518.77,26.27L518.82,26.11L520.05,24.76L520.45,24.59L520.77,24.08L521.73,23.92L521.86,23.58L522.89,23.41L526.91,21.56L527.08,21.39L529.64,19.87L529.68,19.71L540,16" style="vector-effect: none; fill: none; stroke: rgb(255, 127, 14); stroke-opacity: 1; stroke-width: 2px; opacity: 1;"/></g><g class="points"/><g class="text"/></g></g></g></g><g class="zerolinelayer-above"/><path class="xlines-above crisp" d="M0,0" style="fill: none;"/><path class="ylines-above crisp" d="M0,0" style="fill: none;"/><g class="overlines-above"/><g class="xaxislayer-above"><g class="xtick"><text text-anchor="middle" x="0" y="439" transform="translate(101.12,0)" style="font-family: 'Open Sans'; font-size: 18px; fill: rgb(0, 0, 0); fill-opacity: 1; white-space: pre;">2016</text></g><g class="xtick"><text text-anchor="middle" x="0" y="439" style="font-family: 'Open Sans'; font-size: 18px; fill: rgb(0, 0, 0); fill-opacity: 1; white-space: pre;" transform="translate(205.94,0)">2018</text></g><g class="xtick"><text text-anchor="middle" x="0" y="439" style="font-family: 'Open Sans'; font-size: 18px; fill: rgb(0, 0, 0); fill-opacity: 1; white-space: pre;" transform="translate(310.61,0)">2020</text></g><g class="xtick"><text text-anchor="middle" x="0" y="439" style="font-family: 'Open Sans'; font-size: 18px; fill: rgb(0, 0, 0); fill-opacity: 1; white-space: pre;" transform="translate(415.43,0)">2022</text></g><g class="xtick"><text text-anchor="middle" x="0" y="439" style="font-family: 'Open Sans'; font-size: 18px; fill: rgb(0, 0, 0); fill-opacity: 1; white-space: pre;" transform="translate(520.11,0)">2024</text></g></g><g class="yaxislayer-above"><g class="ytick"><text text-anchor="end" x="79" y="6.3" transform="translate(0,420)" style="font-family: 'Open Sans'; font-size: 18px; fill: rgb(0, 0, 0); fill-opacity: 1; white-space: pre;">0</text></g><g class="ytick"><text text-anchor="end" x="79" y="6.3" style="font-family: 'Open Sans'; font-size: 18px; fill: rgb(0, 0, 0); fill-opacity: 1; white-space: pre;" transform="translate(0,335.78999999999996)">500</text></g><g class="ytick"><text text-anchor="end" x="79" y="6.3" style="font-family: 'Open Sans'; font-size: 18px; fill: rgb(0, 0, 0); fill-opacity: 1; white-space: pre;" transform="translate(0,251.58)">1000</text></g><g class="ytick"><text text-anchor="end" x="79" y="6.3" style="font-family: 'Open Sans'; font-size: 18px; fill: rgb(0, 0, 0); fill-opacity: 1; white-space: pre;" transform="translate(0,167.37)">1500</text></g></g><g class="overaxes-above"/></g></g><g class="polarlayer"/><g class="smithlayer"/><g class="ternarylayer"/><g class="geolayer"/><g class="funnelarealayer"/><g class="pielayer"/><g class="iciclelayer"/><g class="treemaplayer"/><g class="sunburstlayer"/><g class="glimages"/><defs id="topdefs-014027"><g class="clips"/></defs><g class="layer-above"><g class="imagelayer"/><g class="shapelayer"/></g><g class="infolayer"><g class="g-gtitle"><text class="gtitle" x="35" y="50" text-anchor="start" dy="0em" style="opacity: 1; font-family: 'Open Sans'; font-size: 25px; fill: rgb(0, 0, 0); fill-opacity: 1; white-space: pre;">MultiQC/MultiQC - Issues Created Over Time</text></g><g class="g-xtitle"><text class="xtitle" x="350" y="472.9" text-anchor="middle" style="opacity: 1; font-family: 'Open Sans'; font-size: 22px; fill: rgb(0, 0, 0); fill-opacity: 1; white-space: pre;">Date</text></g><g class="g-ytitle"><text class="ytitle" transform="rotate(-90,20.799999999999997,260)" x="20.799999999999997" y="260" text-anchor="middle" style="opacity: 1; font-family: 'Open Sans'; font-size: 22px; fill: rgb(0, 0, 0); fill-opacity: 1; white-space: pre;">Cumulative Issues Created</text></g></g></svg>