<svg class="main-svg" xmlns="http://www.w3.org/2000/svg" xmlns:xlink="http://www.w3.org/1999/xlink" width="700" height="500" style="" viewBox="0 0 700 500"><rect x="0" y="0" width="700" height="500" style="fill: rgb(0, 0, 0); fill-opacity: 0;"/><defs id="defs-e8e0b2"><g class="clips"><clipPath id="clipe8e0b2xyplot" class="plotclip"><rect width="540" height="320"/></clipPath><clipPath class="axesclip" id="clipe8e0b2x"><rect x="80" y="0" width="540" height="500"/></clipPath><clipPath class="axesclip" id="clipe8e0b2y"><rect x="0" y="100" width="700" height="320"/></clipPath><clipPath class="axesclip" id="clipe8e0b2xy"><rect x="80" y="100" width="540" height="320"/></clipPath></g><g class="gradients"/><g class="patterns"/></defs><g class="bglayer"><rect class="bg" x="80" y="100" width="540" height="320" style="fill: rgb(0, 0, 0); fill-opacity: 0; stroke-width: 0;"/></g><g class="layer-below"><g class="imagelayer"/><g class="shapelayer"/></g><g class="cartesianlayer"><g class="subplot xy"><g class="layer-subplot"><g class="shapelayer"/><g class="imagelayer"/></g><g class="minor-gridlayer"><g class="x"/><g class="y"/></g><g class="gridlayer"><g class="x"><path class="xgrid crisp" transform="translate(99.97,0)" d="M0,100v320" style="stroke: rgb(255, 255, 255); stroke-opacity: 1; stroke-width: 1px;"/><path class="xgrid crisp" transform="translate(199.1,0)" d="M0,100v320" style="stroke: rgb(255, 255, 255); stroke-opacity: 1; stroke-width: 1px;"/><path class="xgrid crisp" transform="translate(298.08000000000004,0)" d="M0,100v320" style="stroke: rgb(255, 255, 255); stroke-opacity: 1; stroke-width: 1px;"/><path class="xgrid crisp" transform="translate(397.2,0)" d="M0,100v320" style="stroke: rgb(255, 255, 255); stroke-opacity: 1; stroke-width: 1px;"/><path class="xgrid crisp" transform="translate(496.19,0)" d="M0,100v320" style="stroke: rgb(255, 255, 255); stroke-opacity: 1; stroke-width: 1px;"/><path class="xgrid crisp" transform="translate(595.31,0)" d="M0,100v320" style="stroke: rgb(255, 255, 255); stroke-opacity: 1; stroke-width: 1px;"/></g><g class="y"><path class="ygrid crisp" transform="translate(0,338.63)" d="M80,0h540" style="stroke: rgb(255, 255, 255); stroke-opacity: 1; stroke-width: 1px;"/><path class="ygrid crisp" transform="translate(0,257.26)" d="M80,0h540" style="stroke: rgb(255, 255, 255); stroke-opacity: 1; stroke-width: 1px;"/><path class="ygrid crisp" transform="translate(0,175.89)" d="M80,0h540" style="stroke: rgb(255, 255, 255); stroke-opacity: 1; stroke-width: 1px;"/></g></g><g class="zerolinelayer"><path class="yzl zl crisp" transform="translate(0,420)" d="M80,0h540" style="stroke: rgb(255, 255, 255); stroke-opacity: 1; stroke-width: 2px;"/></g><g class="layer-between"><g class="shapelayer"/><g class="imagelayer"/></g><path class="xlines-below"/><path class="ylines-below"/><g class="overlines-below"/><g class="xaxislayer-below"/><g class="yaxislayer-below"/><g class="overaxes-below"/><g class="overplot"><g class="xy" transform="translate(80,100)" clip-path="url(#clipe8e0b2xyplot)"><g class="scatterlayer mlayer"><g class="trace scatter tracec9e6d1" style="stroke-miterlimit: 2;"><g class="fills"><g><path class="js-fill" d="M540,320L0,320L0,319.84L0,319.51L1.87,319.35L3.64,318.37L4.31,318.21L4.89,317.07L5.25,316.91L5.82,315.93L6.11,315.77L8.13,312.35L8.51,312.19L9.6,311.21L9.6,311.05L10.44,310.24L11.09,310.07L12.06,307.96L12.06,307.79L12.78,306.82L13.01,306.66L13.43,305.52L13.92,305.35L15.03,304.87L16.2,304.7L17.6,303.56L17.73,303.4L22.78,302.42L23.58,302.26L24.68,301.77L25.21,301.61L26.3,300.31L28.08,300.15L30.91,298.36L32.06,298.19L35.8,295.43L35.82,295.26L36.1,294.61L36.7,294.45L38.78,292.5L38.78,292.33L39.43,291.52L39.71,291.36L41.86,289.4L43.09,289.24L45.28,287.13L45.29,286.96L50.31,284.52L50.93,284.36L51.93,283.38L53.02,283.22L56.96,280.13L58.48,279.97L61.69,276.87L61.72,276.71L62.54,276.39L63.18,276.22L63.28,275.9L64.13,275.73L67.16,274.11L68.07,273.94L68.86,272.81L69.24,272.64L74.86,270.69L74.96,270.53L76.48,269.55L76.98,269.39L77.73,268.25L77.92,268.09L80.42,266.95L80.64,266.78L80.67,266.46L81.48,266.3L82.16,265.48L82.42,265.32L83.08,264.83L83.41,264.67L83.41,264.34L84.44,264.18L84.47,263.85L85.28,263.69L89.3,262.39L89.76,262.23L90.81,261.58L91.1,261.41L95.45,259.46L95.46,259.3L96.65,258.16L96.65,258L97.36,255.88L97.64,255.72L102.33,252.95L103.16,252.79L105.41,251L105.85,250.84L109.23,250.02L109.83,249.86L113.08,248.39L114.03,248.23L115.8,247.09L115.83,246.93L120.25,244.81L120.44,244.65L121.41,244L121.79,243.84L131.01,238.63L131.79,238.47L134.35,236.19L134.35,236.03L137.43,234.4L137.57,234.24L139.37,233.1L140.52,232.93L145.12,230.98L145.3,230.82L146.01,230.17L146.86,230L147.61,229.52L148.6,229.35L151.93,228.21L152.38,228.05L154.55,226.26L155.25,226.1L165.16,221.7L165.22,221.54L170.57,220.4L170.72,220.24L171.79,219.59L172.35,219.43L173.55,218.78L174.51,218.61L177.19,216.99L177.2,216.82L181.16,214.54L181.24,214.38L184.13,212.27L184.94,212.1L186.19,210.96L186.73,210.8L193.49,209.17L193.72,209.01L197.14,207.87L197.17,207.71L199.31,206.73L200.99,206.57L202.17,206.24L202.97,206.08L206.5,204.62L206.77,204.45L212.36,200.71L212.4,200.55L213.12,200.22L213.27,200.06L216.08,197.29L217.07,197.13L219.25,196.15L219.38,195.99L219.95,195.67L221.97,195.5L227.41,193.88L227.48,193.71L228.34,193.22L228.64,193.06L230.24,192.09L230.33,191.92L231.02,191.27L232.14,191.11L233.74,189.97L234.28,189.81L234.98,188.99L235.39,188.83L236.06,188.02L236.15,187.85L237.25,187.04L237.92,186.88L238.62,185.9L238.87,185.74L242.43,183.13L242.91,182.97L245.44,181.67L245.54,181.51L246.03,181.02L246.47,180.86L250.24,177.93L251.24,177.76L253.52,176.14L253.96,175.97L256.31,174.51L257.15,174.35L258.2,173.37L258.72,173.21L259.27,172.39L259.63,172.23L264.79,170.28L268.17,170.12L274.31,168.65L274.32,168.49L277.65,166.86L277.87,166.7L282.71,163.93L283.82,163.77L286.36,162.47L286.46,162.3L287.22,161.49L288.4,161.33L290.39,159.37L291.39,159.21L292.24,157.75L292.31,157.58L292.96,157.1L293.28,156.93L296.1,155.14L296.89,154.98L299.74,152.87L301.02,152.7L302.63,151.24L302.88,151.07L306.18,149.77L306.43,149.61L310.25,148.31L310.38,148.15L310.94,147.66L311.29,147.49L319.59,145.54L319.87,145.38L322.57,144.24L322.59,144.08L335.03,138.22L335.04,138.06L336.5,137.24L336.98,137.08L341.81,134.8L342.19,134.64L343.82,134.15L344.27,133.99L350.23,132.03L350.34,131.87L351.98,130.9L352.23,130.73L353.06,130.24L353.59,130.08L358.25,128.62L358.25,128.45L358.25,127.48L359.45,127.31L360.44,126.83L362.19,126.66L362.61,126.18L363.39,126.01L363.4,125.85L364.48,125.69L364.62,125.52L366.09,125.36L370.99,123.25L371.25,123.08L372.06,121.94L372.19,121.78L373.06,121.29L373.84,121.13L375.76,120.32L376.44,120.15L378.47,118.36L379.83,118.2L380.58,117.39L381.36,117.22L390.9,113.48L392.09,113.32L392.86,112.34L392.94,112.18L397.2,110.39L397.3,110.23L403.36,104.86L403.36,104.69L404.05,103.39L404.3,103.23L409.03,99.49L409.58,99.32L411.54,97.53L411.66,97.37L415.62,94.93L417.34,94.77L421.4,92.33L421.42,92.16L422.26,90.37L422.34,90.21L423.06,88.58L423.15,88.42L424.79,85L425.03,84.84L430.82,80.12L431.58,79.96L432.7,78.49L432.73,78.33L433.79,76.7L434.26,76.54L436.1,74.59L436.71,74.42L437.52,73.28L437.71,73.12L439.31,71.98L439.31,71.82L440.1,70.84L440.42,70.68L443,68.57L443.69,68.4L447.52,65.31L447.63,65.15L448.1,64.17L448.7,64.01L450.7,61.24L450.99,61.08L451.78,59.29L451.89,59.13L453.45,57.99L453.48,57.82L458.21,54.08L458.3,53.92L460.06,52.94L460.15,52.78L462.05,51.15L462.9,50.99L463.71,49.85L464.11,49.69L467.85,48.55L468.45,48.39L470.33,47.08L470.41,46.92L474.3,44.48L474.44,44.32L477.49,43.01L477.61,42.85L490.74,35.69L490.77,35.53L492.36,34.23L492.47,34.06L495.21,32.93L495.29,32.76L495.32,32.6L496.69,32.44L500.33,30.32L500.38,30.16L511.57,25.76L511.7,25.6L512.55,24.79L512.7,24.63L513.47,23.49L513.47,23.32L514.01,22.84L516.86,22.67L518.26,21.7L520.02,21.53L520.04,21.37L520.95,21.21L522.09,20.23L523.9,20.07L527.71,18.77L528.24,18.6L531.21,17.3L533.06,17.14L534.09,16.33L535.42,16.16L540,16" style="fill: rgb(255, 127, 14); fill-opacity: 0.5; stroke-width: 0;"/></g></g><g class="errorbars"/><g class="lines"><path class="js-line" d="M0,319.84L0,319.51L1.87,319.35L3.64,318.37L4.31,318.21L4.89,317.07L5.25,316.91L5.82,315.93L6.11,315.77L8.13,312.35L8.51,312.19L9.6,311.21L9.6,311.05L10.44,310.24L11.09,310.07L12.06,307.96L12.06,307.79L12.78,306.82L13.01,306.66L13.43,305.52L13.92,305.35L15.03,304.87L16.2,304.7L17.6,303.56L17.73,303.4L22.78,302.42L23.58,302.26L24.68,301.77L25.21,301.61L26.3,300.31L28.08,300.15L30.91,298.36L32.06,298.19L35.8,295.43L35.82,295.26L36.1,294.61L36.7,294.45L38.78,292.5L38.78,292.33L39.43,291.52L39.71,291.36L41.86,289.4L43.09,289.24L45.28,287.13L45.29,286.96L50.31,284.52L50.93,284.36L51.93,283.38L53.02,283.22L56.96,280.13L58.48,279.97L61.69,276.87L61.72,276.71L62.54,276.39L63.18,276.22L63.28,275.9L64.13,275.73L67.16,274.11L68.07,273.94L68.86,272.81L69.24,272.64L74.86,270.69L74.96,270.53L76.48,269.55L76.98,269.39L77.73,268.25L77.92,268.09L80.42,266.95L80.64,266.78L80.67,266.46L81.48,266.3L82.16,265.48L82.42,265.32L83.08,264.83L83.41,264.67L83.41,264.34L84.44,264.18L84.47,263.85L85.28,263.69L89.3,262.39L89.76,262.23L90.81,261.58L91.1,261.41L95.45,259.46L95.46,259.3L96.65,258.16L96.65,258L97.36,255.88L97.64,255.72L102.33,252.95L103.16,252.79L105.41,251L105.85,250.84L109.23,250.02L109.83,249.86L113.08,248.39L114.03,248.23L115.8,247.09L115.83,246.93L120.25,244.81L120.44,244.65L121.41,244L121.79,243.84L131.01,238.63L131.79,238.47L134.35,236.19L134.35,236.03L137.43,234.4L137.57,234.24L139.37,233.1L140.52,232.93L145.12,230.98L145.3,230.82L146.01,230.17L146.86,230L147.61,229.52L148.6,229.35L151.93,228.21L152.38,228.05L154.55,226.26L155.25,226.1L165.16,221.7L165.22,221.54L170.57,220.4L170.72,220.24L171.79,219.59L172.35,219.43L173.55,218.78L174.51,218.61L177.19,216.99L177.2,216.82L181.16,214.54L181.24,214.38L184.13,212.27L184.94,212.1L186.19,210.96L186.73,210.8L193.49,209.17L193.72,209.01L197.14,207.87L197.17,207.71L199.31,206.73L200.99,206.57L202.17,206.24L202.97,206.08L206.5,204.62L206.77,204.45L212.36,200.71L212.4,200.55L213.12,200.22L213.27,200.06L216.08,197.29L217.07,197.13L219.25,196.15L219.38,195.99L219.95,195.67L221.97,195.5L227.41,193.88L227.48,193.71L228.34,193.22L228.64,193.06L230.24,192.09L230.33,191.92L231.02,191.27L232.14,191.11L233.74,189.97L234.28,189.81L234.98,188.99L235.39,188.83L236.06,188.02L236.15,187.85L237.25,187.04L237.92,186.88L238.62,185.9L238.87,185.74L242.43,183.13L242.91,182.97L245.44,181.67L245.54,181.51L246.03,181.02L246.47,180.86L250.24,177.93L251.24,177.76L253.52,176.14L253.96,175.97L256.31,174.51L257.15,174.35L258.2,173.37L258.72,173.21L259.27,172.39L259.63,172.23L264.79,170.28L268.17,170.12L274.31,168.65L274.32,168.49L277.65,166.86L277.87,166.7L282.71,163.93L283.82,163.77L286.36,162.47L286.46,162.3L287.22,161.49L288.4,161.33L290.39,159.37L291.39,159.21L292.24,157.75L292.31,157.58L292.96,157.1L293.28,156.93L296.1,155.14L296.89,154.98L299.74,152.87L301.02,152.7L302.63,151.24L302.88,151.07L306.18,149.77L306.43,149.61L310.25,148.31L310.38,148.15L310.94,147.66L311.29,147.49L319.59,145.54L319.87,145.38L322.57,144.24L322.59,144.08L335.03,138.22L335.04,138.06L336.5,137.24L336.98,137.08L341.81,134.8L342.19,134.64L343.82,134.15L344.27,133.99L350.23,132.03L350.34,131.87L351.98,130.9L352.23,130.73L353.06,130.24L353.59,130.08L358.25,128.62L358.25,128.45L358.25,127.48L359.45,127.31L360.44,126.83L362.19,126.66L362.61,126.18L363.39,126.01L363.4,125.85L364.48,125.69L364.62,125.52L366.09,125.36L370.99,123.25L371.25,123.08L372.06,121.94L372.19,121.78L373.06,121.29L373.84,121.13L375.76,120.32L376.44,120.15L378.47,118.36L379.83,118.2L380.58,117.39L381.36,117.22L390.9,113.48L392.09,113.32L392.86,112.34L392.94,112.18L397.2,110.39L397.3,110.23L403.36,104.86L403.36,104.69L404.05,103.39L404.3,103.23L409.03,99.49L409.58,99.32L411.54,97.53L411.66,97.37L415.62,94.93L417.34,94.77L421.4,92.33L421.42,92.16L422.26,90.37L422.34,90.21L423.06,88.58L423.15,88.42L424.79,85L425.03,84.84L430.82,80.12L431.58,79.96L432.7,78.49L432.73,78.33L433.79,76.7L434.26,76.54L436.1,74.59L436.71,74.42L437.52,73.28L437.71,73.12L439.31,71.98L439.31,71.82L440.1,70.84L440.42,70.68L443,68.57L443.69,68.4L447.52,65.31L447.63,65.15L448.1,64.17L448.7,64.01L450.7,61.24L450.99,61.08L451.78,59.29L451.89,59.13L453.45,57.99L453.48,57.82L458.21,54.08L458.3,53.92L460.06,52.94L460.15,52.78L462.05,51.15L462.9,50.99L463.71,49.85L464.11,49.69L467.85,48.55L468.45,48.39L470.33,47.08L470.41,46.92L474.3,44.48L474.44,44.32L477.49,43.01L477.61,42.85L490.74,35.69L490.77,35.53L492.36,34.23L492.47,34.06L495.21,32.93L495.29,32.76L495.32,32.6L496.69,32.44L500.33,30.32L500.38,30.16L511.57,25.76L511.7,25.6L512.55,24.79L512.7,24.63L513.47,23.49L513.47,23.32L514.01,22.84L516.86,22.67L518.26,21.7L520.02,21.53L520.04,21.37L520.95,21.21L522.09,20.23L523.9,20.07L527.71,18.77L528.24,18.6L531.21,17.3L533.06,17.14L534.09,16.33L535.42,16.16L540,16" style="vector-effect: none; fill: none; stroke: rgb(255, 127, 14); stroke-opacity: 1; stroke-width: 2px; opacity: 1;"/></g><g class="points"/><g class="text"/></g></g></g></g><g class="zerolinelayer-above"/><path class="xlines-above crisp" d="M0,0" style="fill: none;"/><path class="ylines-above crisp" d="M0,0" style="fill: none;"/><g class="overlines-above"/><g class="xaxislayer-above"><g class="xtick"><text text-anchor="middle" x="0" y="439" transform="translate(99.97,0)" style="font-family: 'Open Sans'; font-size: 18px; fill: rgb(0, 0, 0); fill-opacity: 1; white-space: pre;">2016</text></g><g class="xtick"><text text-anchor="middle" x="0" y="439" style="font-family: 'Open Sans'; font-size: 18px; fill: rgb(0, 0, 0); fill-opacity: 1; white-space: pre;" transform="translate(199.1,0)">2018</text></g><g class="xtick"><text text-anchor="middle" x="0" y="439" style="font-family: 'Open Sans'; font-size: 18px; fill: rgb(0, 0, 0); fill-opacity: 1; white-space: pre;" transform="translate(298.08000000000004,0)">2020</text></g><g class="xtick"><text text-anchor="middle" x="0" y="439" style="font-family: 'Open Sans'; font-size: 18px; fill: rgb(0, 0, 0); fill-opacity: 1; white-space: pre;" transform="translate(397.2,0)">2022</text></g><g class="xtick"><text text-anchor="middle" x="0" y="439" style="font-family: 'Open Sans'; font-size: 18px; fill: rgb(0, 0, 0); fill-opacity: 1; white-space: pre;" transform="translate(496.19,0)">2024</text></g><g class="xtick"><text text-anchor="middle" x="0" y="439" style="font-family: 'Open Sans'; font-size: 18px; fill: rgb(0, 0, 0); fill-opacity: 1; white-space: pre;" transform="translate(595.31,0)">2026</text></g></g><g class="yaxislayer-above"><g class="ytick"><text text-anchor="end" x="79" y="6.3" transform="translate(0,420)" style="font-family: 'Open Sans'; font-size: 18px; fill: rgb(0, 0, 0); fill-opacity: 1; white-space: pre;">0</text></g><g class="ytick"><text text-anchor="end" x="79" y="6.3" style="font-family: 'Open Sans'; font-size: 18px; fill: rgb(0, 0, 0); fill-opacity: 1; white-space: pre;" transform="translate(0,338.63)">500</text></g><g class="ytick"><text text-anchor="end" x="79" y="6.3" style="font-family: 'Open Sans'; font-size: 18px; fill: rgb(0, 0, 0); fill-opacity: 1; white-space: pre;" transform="translate(0,257.26)">1000</text></g><g class="ytick"><text text-anchor="end" x="79" y="6.3" style="font-family: 'Open Sans'; font-size: 18px; fill: rgb(0, 0, 0); fill-opacity: 1; white-space: pre;" transform="translate(0,175.89)">1500</text></g></g><g class="overaxes-above"/></g></g><g class="polarlayer"/><g class="smithlayer"/><g class="ternarylayer"/><g class="geolayer"/><g class="funnelarealayer"/><g class="pielayer"/><g class="iciclelayer"/><g class="treemaplayer"/><g class="sunburstlayer"/><g class="glimages"/><defs id="topdefs-e8e0b2"><g class="clips"/></defs><g class="layer-above"><g class="imagelayer"/><g class="shapelayer"/></g><g class="infolayer"><g class="g-gtitle"><text class="gtitle" x="35" y="50" text-anchor="start" dy="0em" style="opacity: 1; font-family: 'Open Sans'; font-size: 25px; fill: rgb(0, 0, 0); fill-opacity: 1; white-space: pre;">MultiQC/MultiQC - Issues Created Over Time</text></g><g class="g-xtitle"><text class="xtitle" x="350" y="472.9" text-anchor="middle" style="opacity: 1; font-family: 'Open Sans'; font-size: 22px; fill: rgb(0, 0, 0); fill-opacity: 1; white-space: pre;">Date</text></g><g class="g-ytitle"><text class="ytitle" transform="rotate(-90,20.799999999999997,260)" x="20.799999999999997" y="260" text-anchor="middle" style="opacity: 1; font-family: 'Open Sans'; font-size: 22px; fill: rgb(0, 0, 0); fill-opacity: 1; white-space: pre;">Cumulative Issues Created</text></g></g></svg>