<svg class="main-svg" xmlns="http://www.w3.org/2000/svg" xmlns:xlink="http://www.w3.org/1999/xlink" width="700" height="500" style="" viewBox="0 0 700 500"><rect x="0" y="0" width="700" height="500" style="fill: rgb(0, 0, 0); fill-opacity: 0;"/><defs id="defs-c57303"><g class="clips"><clipPath id="clipc57303xyplot" class="plotclip"><rect width="540" height="320"/></clipPath><clipPath class="axesclip" id="clipc57303x"><rect x="80" y="0" width="540" height="500"/></clipPath><clipPath class="axesclip" id="clipc57303y"><rect x="0" y="100" width="700" height="320"/></clipPath><clipPath class="axesclip" id="clipc57303xy"><rect x="80" y="100" width="540" height="320"/></clipPath></g><g class="gradients"/><g class="patterns"/></defs><g class="bglayer"><rect class="bg" x="80" y="100" width="540" height="320" style="fill: rgb(0, 0, 0); fill-opacity: 0; stroke-width: 0;"/></g><g class="layer-below"><g class="imagelayer"/><g class="shapelayer"/></g><g class="cartesianlayer"><g class="subplot xy"><g class="layer-subplot"><g class="shapelayer"/><g class="imagelayer"/></g><g class="minor-gridlayer"><g class="x"/><g class="y"/></g><g class="gridlayer"><g class="x"><path class="xgrid crisp" transform="translate(100.4,0)" d="M0,100v320" style="stroke: rgb(255, 255, 255); stroke-opacity: 1; stroke-width: 1px;"/><path class="xgrid crisp" transform="translate(201.61,0)" d="M0,100v320" style="stroke: rgb(255, 255, 255); stroke-opacity: 1; stroke-width: 1px;"/><path class="xgrid crisp" transform="translate(302.69,0)" d="M0,100v320" style="stroke: rgb(255, 255, 255); stroke-opacity: 1; stroke-width: 1px;"/><path class="xgrid crisp" transform="translate(403.9,0)" d="M0,100v320" style="stroke: rgb(255, 255, 255); stroke-opacity: 1; stroke-width: 1px;"/><path class="xgrid crisp" transform="translate(504.98,0)" d="M0,100v320" style="stroke: rgb(255, 255, 255); stroke-opacity: 1; stroke-width: 1px;"/><path class="xgrid crisp" transform="translate(606.2,0)" d="M0,100v320" style="stroke: rgb(255, 255, 255); stroke-opacity: 1; stroke-width: 1px;"/></g><g class="y"><path class="ygrid crisp" transform="translate(0,361.54)" d="M80,0h540" style="stroke: rgb(255, 255, 255); stroke-opacity: 1; stroke-width: 1px;"/><path class="ygrid crisp" transform="translate(0,303.08000000000004)" d="M80,0h540" style="stroke: rgb(255, 255, 255); stroke-opacity: 1; stroke-width: 1px;"/><path class="ygrid crisp" transform="translate(0,244.62)" d="M80,0h540" style="stroke: rgb(255, 255, 255); stroke-opacity: 1; stroke-width: 1px;"/><path class="ygrid crisp" transform="translate(0,186.15)" d="M80,0h540" style="stroke: rgb(255, 255, 255); stroke-opacity: 1; stroke-width: 1px;"/><path class="ygrid crisp" transform="translate(0,127.69)" d="M80,0h540" style="stroke: rgb(255, 255, 255); stroke-opacity: 1; stroke-width: 1px;"/></g></g><g class="zerolinelayer"><path class="yzl zl crisp" transform="translate(0,420)" d="M80,0h540" style="stroke: rgb(255, 255, 255); stroke-opacity: 1; stroke-width: 2px;"/></g><g class="layer-between"><g class="shapelayer"/><g class="imagelayer"/></g><path class="xlines-below"/><path class="ylines-below"/><g class="overlines-below"/><g class="xaxislayer-below"/><g class="yaxislayer-below"/><g class="overaxes-below"/><g class="overplot"><g class="xy" transform="translate(80,100)" clip-path="url(#clipc57303xyplot)"><g class="scatterlayer mlayer"><g class="trace scatter trace4ba5fb" style="stroke-miterlimit: 2;"><g class="fills"><g><path class="js-fill" d="M540,320L0,320L0,318.83L0,316.49L0.55,317.66L1.79,318.83L1.91,317.66L2.9,318.83L3.71,312.98L3.74,314.15L4.41,312.98L4.82,308.31L4.99,309.48L5.35,310.65L5.52,307.14L5.8,311.82L5.94,309.48L6.24,310.65L6.9,300.12L7.02,298.95L7.18,297.78L7.45,301.29L7.46,302.46L7.62,293.11L8.3,291.94L8.68,301.29L8.68,302.46L9.39,309.48L9.4,308.31L9.52,307.14L9.84,302.46L9.84,301.29L10.24,300.12L10.26,302.46L10.27,303.63L11.21,307.14L11.32,305.97L11.47,304.8L12.42,288.43L12.46,294.28L12.46,295.45L12.57,293.11L12.87,296.62L13.05,294.28L13.28,293.11L13.67,287.26L13.82,290.77L14.22,289.6L14.4,288.43L14.53,290.77L15.21,291.94L15.38,295.45L16.54,294.28L17.13,291.94L17.26,290.77L17.97,286.09L17.98,287.26L18.11,286.09L18.54,287.26L21.02,286.09L21.03,287.26L21.42,283.75L21.43,286.09L22.92,284.92L23.11,286.09L23.26,284.92L24.08,283.75L24.78,281.42L24.89,282.58L25.2,281.42L25.93,289.6L25.99,288.43L26.27,284.92L26.71,288.43L26.85,287.26L27.09,288.43L28.24,289.6L29.65,286.09L29.87,287.26L29.91,290.77L29.91,290.77L30.69,289.6L31.15,293.11L31.15,293.11L31.56,291.94L31.75,297.78L32.64,298.95L33.32,296.62L33.32,297.78L33.46,298.95L34.33,295.45L34.44,296.62L35.04,297.78L35.41,296.62L35.41,297.78L35.55,291.94L35.82,293.11L36.5,291.94L36.73,288.43L36.92,295.45L37.41,296.62L37.48,295.45L37.91,298.95L37.97,300.12L38.19,295.45L38.47,296.62L38.77,297.78L39.6,291.94L39.72,295.45L40.06,294.28L40.26,291.94L40.41,295.45L40.55,294.28L40.68,295.45L41.79,288.43L42.46,287.26L42.75,286.09L43.34,287.26L44,288.43L44.28,287.26L44.3,290.77L44.75,286.09L45.01,287.26L45.07,286.09L45.08,284.92L45.68,294.28L46.07,293.11L46.08,295.45L46.25,291.94L46.65,294.28L47.2,295.45L47.2,298.95L47.49,296.62L48.04,297.78L48.42,296.62L48.42,297.78L49.1,296.62L49.11,297.78L49.29,295.45L49.41,295.45L50.23,294.28L51.37,291.94L51.91,293.11L51.91,294.28L52.34,290.77L52.49,293.11L52.92,291.94L53.02,290.77L53.32,294.28L54.14,293.11L55.43,288.43L55.93,287.26L57.14,276.74L57.21,279.08L57.3,280.25L57.3,281.42L58.05,277.91L58.17,276.74L58.18,277.91L59.71,276.74L60.89,269.72L61,270.89L61.89,268.55L62.42,267.38L63.11,256.86L63.14,259.2L63.86,258.03L64.5,260.37L64.5,261.54L64.51,267.38L64.81,267.38L65.49,266.22L66.72,262.71L67.45,261.54L67.69,268.55L68.58,267.38L69.65,279.08L69.79,277.91L70.31,276.74L70.31,275.57L70.7,275.57L71.14,276.74L72.2,273.23L72.21,274.4L72.63,273.23L72.66,272.06L72.7,273.23L73.54,272.06L74.31,270.89L74.81,269.72L78.05,260.37L78.05,261.54L78.5,265.05L78.63,261.54L79.02,262.71L79.3,263.88L79.37,260.37L79.57,262.71L80.28,263.88L80.6,258.03L80.62,259.2L81.73,258.03L81.93,259.2L82.12,258.03L82.35,256.86L82.38,255.69L83.07,259.2L83.2,258.03L83.33,259.2L83.9,255.69L83.9,256.86L84.04,258.03L84.44,262.71L84.84,261.54L85.17,260.37L85.17,258.03L85.28,261.54L86.23,260.37L86.23,261.54L86.25,259.2L86.91,261.54L87.08,260.37L87.86,262.71L88.19,261.54L88.75,262.71L88.84,263.88L89.15,268.55L89.67,267.38L89.97,275.57L90.26,273.23L90.71,272.06L91.75,268.55L91.88,269.72L91.89,270.89L93.7,263.88L93.72,265.05L95.77,258.03L95.91,259.2L95.91,260.37L96.79,262.71L96.89,263.88L97.73,274.4L98.03,273.23L98.43,275.57L98.43,274.4L98.52,273.23L98.56,275.57L98.98,263.88L98.98,263.88L99.39,262.71L99.7,260.37L99.96,266.22L100.34,265.05L101.32,262.71L101.32,263.88L101.32,265.05L101.44,267.38L101.88,266.22L102.35,265.05L102.7,268.55L102.83,266.22L103.23,265.05L103.25,266.22L103.8,263.88L103.82,265.05L104.39,263.88L104.5,262.71L104.5,263.88L105.17,265.05L105.17,266.22L105.76,265.05L106.32,263.88L106.54,260.37L106.72,260.37L107.13,259.2L108.46,253.35L108.5,254.52L108.57,255.69L110.6,252.18L111.15,253.35L112.52,249.85L112.98,251.02L113.27,249.85L114.09,277.91L114.19,276.74L114.8,274.4L115.07,275.57L115.47,274.4L115.47,275.57L116.43,274.4L116.83,275.57L117.12,274.4L117.14,273.23L117.81,272.06L118.05,273.23L118.06,275.57L118.28,270.89L118.79,269.72L118.79,270.89L119.2,268.55L119.26,268.55L119.81,267.38L119.81,266.22L120.29,272.06L121.99,270.89L122.21,272.06L122.26,270.89L122.77,269.72L123.2,265.05L123.97,263.88L125.63,259.2L126,260.37L126.46,258.03L126.54,259.2L126.54,260.37L126.69,266.22L127.05,263.88L127.57,262.71L128.08,260.37L128.31,261.54L128.31,262.71L128.91,266.22L129.6,265.05L130.57,260.37L130.94,261.54L131.61,260.37L132.66,259.2L133.77,255.69L134.57,256.86L134.57,255.69L135.29,255.69L135.36,256.86L135.87,255.69L136.22,254.52L136.23,256.86L136.75,252.18L136.75,252.18L137.19,251.02L137.19,248.68L137.75,249.85L138.09,248.68L138.59,246.34L138.62,245.17L138.69,244L138.74,247.51L139.28,246.34L139.3,247.51L139.7,245.17L140.32,246.34L140.71,242.83L140.95,253.35L141.5,252.18L142.23,249.85L142.3,251.02L142.31,249.85L142.33,252.18L143.49,251.02L144.13,249.85L144.24,252.18L145.04,251.02L145.06,252.18L145.69,248.68L145.75,249.85L146.3,251.02L148.01,248.68L148.02,249.85L149.1,244L149.97,242.83L150.21,240.49L150.72,241.66L150.73,240.49L151.38,246.34L151.74,245.17L152.91,244L153.24,245.17L155.6,239.32L155.74,240.49L156.25,235.82L156.53,234.65L157.81,227.63L158.53,226.46L158.53,227.63L158.91,226.46L159.98,225.29L160.04,224.12L160.49,228.8L160.91,227.63L161.94,225.29L161.95,224.12L161.97,222.95L162.17,231.14L163.42,229.97L163.66,227.63L164.74,226.46L165.46,231.14L165.81,229.97L168.65,220.62L168.71,219.45L168.76,220.62L170.47,219.45L170.71,224.12L170.72,225.29L170.73,228.8L171.13,226.46L173.05,225.29L173.07,227.63L173.22,226.46L173.95,225.29L174.45,220.62L174.46,221.78L174.98,222.95L175.32,224.12L176.21,219.45L176.27,220.62L176.4,221.78L177.22,220.62L177.23,221.78L178.2,220.62L178.51,219.45L179.76,218.28L180.38,215.94L180.42,214.77L180.94,212.43L180.95,213.6L181.37,212.43L181.39,214.77L182.04,213.6L182.21,212.43L182.89,213.6L183.18,212.43L183.18,211.26L183.9,211.26L184.08,210.09L184.83,207.75L184.97,206.58L185.14,207.75L185.29,205.42L185.3,206.58L186.09,205.42L187.43,197.23L187.44,199.57L187.7,198.4L188.03,196.06L188.33,197.23L188.84,196.06L189.04,193.72L189.49,196.06L189.76,194.89L190.13,192.55L190.68,191.38L191.82,190.22L191.82,191.38L191.9,190.22L191.93,191.38L193.25,190.22L193.98,191.38L194.69,190.22L194.92,189.05L194.92,190.22L196.74,189.05L197.43,187.88L197.44,189.05L197.44,190.22L197.82,189.05L198.64,190.22L198.64,191.38L199.32,191.38L199.49,190.22L200.45,187.88L201.16,186.71L201.79,183.2L202.16,184.37L203.52,179.69L203.84,180.86L205.24,179.69L206.44,177.35L206.55,178.52L209.03,173.85L209.32,175.02L209.68,171.51L210.41,170.34L210.83,172.68L210.86,171.51L211.14,170.34L211.86,168L212.07,169.17L212.11,170.34L212.13,173.85L212.85,170.34L212.91,171.51L213.28,169.17L213.36,176.18L213.74,175.02L213.76,176.18L213.78,175.02L214.5,173.85L214.71,175.02L215.17,171.51L215.3,172.68L216.11,187.88L216.12,186.71L216.18,185.54L217.04,200.74L217.62,199.57L217.78,200.74L218.2,196.06L218.36,198.4L218.63,199.57L220.14,190.22L220.49,189.05L220.65,185.54L220.75,190.22L221.66,189.05L223.62,186.71L223.65,185.54L224.23,179.69L224.59,178.52L225.03,179.69L226.66,178.52L227.79,176.18L227.86,175.02L228.7,173.85L229.11,175.02L229.83,172.68L231.64,171.51L232.22,169.17L232.29,168L233.16,164.49L233.29,165.66L233.47,164.49L234.6,163.32L234.91,159.82L234.93,166.83L234.93,168L234.93,169.17L235.48,164.49L235.9,163.32L236.1,164.49L237.05,163.32L237.2,164.49L237.43,163.32L238.01,164.49L238.08,163.32L238.26,168L238.68,165.66L238.94,166.83L239.24,165.66L239.26,168L239.36,168L239.37,169.17L240.8,164.49L240.8,165.66L240.92,166.83L241.14,163.32L241.2,162.15L241.33,168L241.7,166.83L242,165.66L242.87,170.34L242.95,169.17L242.96,168L243.51,197.23L243.66,196.06L243.79,197.23L243.79,198.4L244.22,198.4L244.75,197.23L245.77,192.55L245.86,193.72L247.14,185.54L247.28,186.71L247.55,185.54L248.76,182.03L248.77,183.2L248.91,184.37L249.49,180.86L249.79,179.69L249.99,178.52L250.62,179.69L251.23,173.85L251.68,172.68L252.15,168L252.17,169.17L252.69,170.34L253.49,165.66L253.67,164.49L254.91,157.48L255.33,156.31L255.53,155.14L256.55,153.97L257.94,146.95L258.35,145.78L259.49,142.28L259.5,143.45L261.71,135.26L261.73,134.09L262.66,131.75L262.75,132.92L263.63,129.42L263.66,128.25L264.19,125.91L264.23,124.74L266.22,116.55L266.43,117.72L266.44,120.06L267.35,118.89L267.35,120.06L268.05,116.55L268.67,115.38L268.96,116.55L270.1,115.38L270.39,111.88L272.79,113.05L272.95,139.94L273.84,138.77L275,139.94L275.15,138.77L275.15,137.6L275.23,141.11L275.41,138.77L276,139.94L278.84,138.77L279.56,137.6L280.11,134.09L280.12,132.92L280.23,135.26L280.87,132.92L280.91,134.09L281.83,132.92L282.07,134.09L282.6,138.77L282.77,136.43L282.99,137.6L282.99,138.77L283.29,136.43L283.74,136.43L283.97,135.26L284.72,132.92L284.8,131.75L285.18,129.42L285.53,130.58L285.54,131.75L285.82,143.45L286.74,142.28L286.91,143.45L287.42,141.11L287.43,142.28L287.43,143.45L288.41,141.11L288.58,142.28L288.69,139.94L289.13,141.11L289.5,142.28L289.95,143.45L290.46,142.28L291.89,137.6L292.2,136.43L292.51,138.77L292.67,134.09L292.83,134.09L293.22,135.26L293.29,134.09L293.38,135.26L294.49,134.09L294.51,135.26L295.05,132.92L295.39,131.75L295.7,127.08L295.96,128.25L296.33,129.42L296.34,134.09L296.53,131.75L297.55,130.58L298.25,141.11L298.26,139.94L298.36,138.77L298.39,137.6L298.69,148.12L298.84,148.12L298.93,149.29L298.98,157.48L299.67,155.14L300.01,156.31L300.71,151.63L300.87,152.8L301.53,150.46L302.06,149.29L302.08,150.46L302.36,146.95L303.16,145.78L303.39,146.95L303.39,145.78L304.01,144.62L304.32,148.12L304.42,144.62L304.87,143.45L305.26,139.94L305.88,138.77L306.08,137.6L307.38,136.43L308.04,132.92L308.09,131.75L309.28,124.74L310.25,123.57L312.9,115.38L313.99,114.22L314.75,111.88L315.55,110.71L315.69,108.37L316.41,109.54L317.24,127.08L317.43,125.91L317.53,128.25L317.87,127.08L318.49,128.25L318.99,127.08L319.71,128.25L320.82,124.74L321.75,123.57L323.01,122.4L323.34,123.57L323.39,124.74L324.38,123.57L324.89,121.23L325.34,122.4L325.51,121.23L325.94,122.4L325.96,123.57L325.96,124.74L326.63,122.4L327.29,123.57L328.26,156.31L328.54,155.14L328.7,151.63L329.14,156.31L329.29,157.48L330.71,146.95L331.05,145.78L331.17,148.12L331.62,146.95L332.05,145.78L333.01,148.12L333.39,146.95L334.35,145.78L334.37,146.95L334.96,145.78L335.18,144.62L336.3,142.28L336.85,143.45L337.31,138.77L338.39,137.6L338.66,136.43L339.73,135.26L341.3,130.58L341.3,131.75L341.33,132.92L342.27,128.25L342.79,129.42L343.61,124.74L343.62,125.91L344.1,124.74L344.15,125.91L344.75,123.57L344.76,122.4L344.87,120.06L346.14,118.89L346.97,116.55L347,115.38L347.81,113.05L348.13,111.88L349.05,116.55L349.42,115.38L349.6,114.22L351.08,111.88L351.29,113.05L352.37,110.71L352.92,109.54L354.44,104.86L355.03,103.69L355.39,102.52L355.6,103.69L355.66,104.86L355.68,103.69L356.54,102.52L357.63,100.18L357.74,99.02L358.7,97.85L358.72,99.02L358.79,115.38L359.42,111.88L359.68,113.05L360.28,110.71L360.52,109.54L361.25,110.71L362.14,109.54L362.75,106.03L362.86,107.2L363.13,106.03L364.39,103.69L365.21,102.52L365.82,100.18L365.82,99.02L365.82,93.17L367.05,92L368.06,88.49L369.52,89.66L369.52,92L369.93,88.49L370.27,88.49L370.76,89.66L371.08,87.32L371.33,88.49L372.18,87.32L372.32,86.15L372.32,87.32L373.61,88.49L374.23,87.32L374.28,88.49L374.45,89.66L374.45,90.83L375.05,90.83L375.35,92L375.55,104.86L376.5,106.03L377.49,103.69L378,102.52L378.13,100.18L378.16,103.69L378.57,104.86L379.75,96.68L379.76,97.85L379.76,96.68L379.79,102.52L380.09,100.18L380.64,99.02L381.91,95.51L383.01,94.34L383.7,90.83L384.39,89.66L384.76,86.15L385.22,88.49L385.47,87.32L386.47,81.48L386.47,82.65L387.86,81.48L388.62,75.63L388.63,77.97L389.42,76.8L389.74,77.97L389.78,76.8L390.28,75.63L390.82,73.29L391.45,74.46L392.38,70.95L393,69.78L393.6,67.45L393.82,68.62L393.95,69.78L394.25,70.95L394.46,69.78L395.6,70.95L397.93,62.77L398.2,61.6L399.16,60.43L399.87,61.6L400.94,58.09L401.02,56.92L401.08,58.09L401.24,53.42L401.84,54.58L401.92,52.25L403.04,51.08L403.19,48.74L403.37,51.08L403.63,52.25L404.02,51.08L404.17,52.25L404.2,53.42L404.47,55.75L404.99,54.58L406,47.57L406.05,51.08L406.69,49.91L406.76,48.74L406.97,51.08L407.2,51.08L407.36,52.25L408.13,47.57L408.45,48.74L408.58,52.25L409.07,47.57L409.39,46.4L409.95,44.06L409.96,45.23L410.02,46.4L410.56,41.72L410.65,44.06L410.91,45.23L411.07,42.89L411.21,54.58L411.21,55.75L411.6,60.43L411.89,49.91L411.96,54.58L412.05,53.42L412.56,56.92L412.56,58.09L413.02,53.42L413.4,54.58L413.88,49.91L413.94,48.74L414.35,47.57L414.4,48.74L414.42,49.91L414.46,48.74L414.54,60.43L414.93,55.75L415.21,54.58L415.25,56.92L415.76,54.58L416.33,53.42L416.96,56.92L417.23,55.75L417.45,54.58L417.59,56.92L417.67,55.75L418.23,54.58L418.86,63.94L418.88,62.77L419.25,61.6L419.32,60.43L419.64,63.94L419.9,62.77L420.23,61.6L420.64,58.09L420.81,60.43L421.33,59.26L421.75,55.75L422.14,58.09L422.14,59.26L422.97,75.63L423.17,74.46L423.58,72.12L424.4,70.95L424.53,74.46L425.49,75.63L426.56,73.29L426.6,72.12L426.76,73.29L427.12,72.12L427.57,70.95L428.02,68.62L428.13,72.12L428.26,70.95L428.5,69.78L429.13,67.45L429.48,68.62L430.08,74.46L430.3,72.12L430.33,70.95L430.77,74.46L431.01,74.46L431.15,73.29L431.53,65.11L431.9,72.12L432,70.95L432.27,67.45L432.38,74.46L432.38,75.63L432.96,67.45L433.08,69.78L433.21,68.62L433.56,65.11L433.96,67.45L434.01,66.28L434.2,65.11L434.34,68.62L434.34,69.78L434.64,90.83L435.06,86.15L435.15,87.32L435.16,88.49L435.9,87.32L435.97,86.15L436.12,84.98L436.18,94.34L436.32,92L436.42,93.17L437.22,90.83L437.82,89.66L438.44,86.15L438.62,84.98L439.34,79.14L439.61,82.65L439.62,83.82L439.77,81.48L440.04,86.15L440.13,87.32L440.96,86.15L441.08,84.98L441.58,87.32L441.65,83.82L441.7,82.65L441.7,83.82L442.22,77.97L442.51,76.8L442.53,75.63L442.62,79.14L442.96,76.8L443.44,75.63L443.45,76.8L444.02,67.45L444.06,69.78L444.84,68.62L445.31,65.11L445.86,66.28L445.98,63.94L446.26,69.78L446.63,68.62L446.65,67.45L446.96,66.28L447.21,68.62L447.5,67.45L447.67,69.78L448.03,67.45L448.36,68.62L448.88,62.77L449.22,65.11L449.28,66.28L449.4,65.11L449.44,68.62L449.86,66.28L450.28,65.11L450.29,63.94L450.82,74.46L450.98,70.95L451.23,72.12L451.24,70.95L451.52,74.46L451.62,73.29L452.18,74.46L452.37,73.29L452.61,75.63L453.07,74.46L453.59,73.29L453.64,74.46L453.71,75.63L454.28,77.97L454.28,76.8L454.42,75.63L454.56,72.12L455.1,75.63L455.44,74.46L455.68,70.95L456.06,74.46L456.09,75.63L456.4,74.46L457.21,93.17L457.48,92L457.57,90.83L458.29,88.49L458.31,87.32L459.14,77.97L459.23,79.14L459.3,76.8L459.41,87.32L459.69,87.32L460.23,86.15L460.89,95.51L461.03,93.17L461.1,92L461.18,93.17L461.44,87.32L462.03,88.49L462.27,84.98L462.3,89.66L462.46,88.49L462.91,89.66L463.18,90.83L463.81,86.15L464.1,87.32L464.12,90.83L464.79,88.49L464.91,89.66L465.35,87.32L466.05,86.15L466.3,81.48L466.6,86.15L466.9,84.98L467.99,75.63L468.74,76.8L469.24,88.49L469.64,87.32L469.74,89.66L470.07,82.65L470.24,83.82L470.49,82.65L470.95,89.66L471.63,88.49L471.81,87.32L472.13,89.66L472.14,90.83L472.77,88.49L473.01,101.35L473.1,100.18L473.1,97.85L473.65,104.86L473.92,103.69L474.13,104.86L475.55,103.69L476.13,104.86L476.42,103.69L476.86,104.86L476.88,103.69L477.4,102.52L477.41,101.35L477.66,104.86L477.74,103.69L478.35,102.52L478.56,103.69L478.88,102.52L479.27,101.35L479.34,99.02L479.48,102.52L479.76,101.35L480.27,100.18L480.35,99.02L480.77,103.69L480.77,104.86L481.84,101.35L482.22,102.52L482.47,100.18L482.77,102.52L482.77,103.69L483.35,104.86L483.52,103.69L483.54,102.52L484.29,96.68L484.32,100.18L484.32,101.35L484.47,99.02L485.29,100.18L485.29,99.02L485.57,99.02L486.7,97.85L487.23,94.34L487.48,96.68L487.57,95.51L488.2,90.83L488.38,89.66L489.02,92L489.05,89.66L489.19,88.49L489.99,87.32L490.55,88.49L490.57,90.83L491.09,90.83L491.38,89.66L491.38,88.49L492.08,90.83L492.26,89.66L492.35,88.49L493.25,87.32L493.85,88.49L494.28,87.32L495.01,82.65L495.24,81.48L495.26,82.65L495.4,81.48L496.11,80.31L496.36,82.65L496.8,81.48L496.91,82.65L497.32,77.97L497.47,80.31L497.74,81.48L498,77.97L499.74,79.14L500.06,75.63L500.68,76.8L500.93,88.49L501.36,84.98L501.48,86.15L501.61,88.49L502.18,87.32L502.57,86.15L502.88,82.65L503.8,81.48L503.92,79.14L504.92,77.97L505.57,75.63L505.67,74.46L505.79,72.12L507.18,73.29L507.59,90.83L507.87,88.49L507.95,87.32L508.01,89.66L508.73,88.49L509.65,84.98L509.65,86.15L510.35,92L510.4,90.83L510.82,89.66L511.44,84.98L511.47,86.15L511.91,84.98L514.33,80.31L514.65,79.14L515.72,75.63L516.62,74.46L516.72,72.12L516.91,73.29L517.54,72.12L518.18,69.78L519.64,68.62L521.17,65.11L521.29,63.94L522.51,58.09L522.52,59.26L522.55,58.09L522.59,61.6L523.15,59.26L523.36,58.09L524.18,49.91L524.32,48.74L524.87,45.23L527.78,44.06L529.22,37.05L531.01,35.88L531.03,34.71L531.96,33.54L531.97,34.71L532.48,31.2L532.78,30.03L533.12,27.69L534.97,26.52L536.79,24.18L536.95,23.02L537.9,20.68L537.95,19.51L538.08,20.68L538.63,19.51L538.86,18.34L540,16" style="fill: rgb(255, 127, 14); fill-opacity: 0.5; stroke-width: 0;"/></g></g><g class="errorbars"/><g class="lines"><path class="js-line" d="M0,318.83L0,316.49L0.55,317.66L1.79,318.83L1.91,317.66L2.9,318.83L3.71,312.98L3.74,314.15L4.41,312.98L4.82,308.31L4.99,309.48L5.35,310.65L5.52,307.14L5.8,311.82L5.94,309.48L6.24,310.65L6.9,300.12L7.02,298.95L7.18,297.78L7.45,301.29L7.46,302.46L7.62,293.11L8.3,291.94L8.68,301.29L8.68,302.46L9.39,309.48L9.4,308.31L9.52,307.14L9.84,302.46L9.84,301.29L10.24,300.12L10.26,302.46L10.27,303.63L11.21,307.14L11.32,305.97L11.47,304.8L12.42,288.43L12.46,294.28L12.46,295.45L12.57,293.11L12.87,296.62L13.05,294.28L13.28,293.11L13.67,287.26L13.82,290.77L14.22,289.6L14.4,288.43L14.53,290.77L15.21,291.94L15.38,295.45L16.54,294.28L17.13,291.94L17.26,290.77L17.97,286.09L17.98,287.26L18.11,286.09L18.54,287.26L21.02,286.09L21.03,287.26L21.42,283.75L21.43,286.09L22.92,284.92L23.11,286.09L23.26,284.92L24.08,283.75L24.78,281.42L24.89,282.58L25.2,281.42L25.93,289.6L25.99,288.43L26.27,284.92L26.71,288.43L26.85,287.26L27.09,288.43L28.24,289.6L29.65,286.09L29.87,287.26L29.91,290.77L29.91,290.77L30.69,289.6L31.15,293.11L31.15,293.11L31.56,291.94L31.75,297.78L32.64,298.95L33.32,296.62L33.32,297.78L33.46,298.95L34.33,295.45L34.44,296.62L35.04,297.78L35.41,296.62L35.41,297.78L35.55,291.94L35.82,293.11L36.5,291.94L36.73,288.43L36.92,295.45L37.41,296.62L37.48,295.45L37.91,298.95L37.97,300.12L38.19,295.45L38.47,296.62L38.77,297.78L39.6,291.94L39.72,295.45L40.06,294.28L40.26,291.94L40.41,295.45L40.55,294.28L40.68,295.45L41.79,288.43L42.46,287.26L42.75,286.09L43.34,287.26L44,288.43L44.28,287.26L44.3,290.77L44.75,286.09L45.01,287.26L45.07,286.09L45.08,284.92L45.68,294.28L46.07,293.11L46.08,295.45L46.25,291.94L46.65,294.28L47.2,295.45L47.2,298.95L47.49,296.62L48.04,297.78L48.42,296.62L48.42,297.78L49.1,296.62L49.11,297.78L49.29,295.45L49.41,295.45L50.23,294.28L51.37,291.94L51.91,293.11L51.91,294.28L52.34,290.77L52.49,293.11L52.92,291.94L53.02,290.77L53.32,294.28L54.14,293.11L55.43,288.43L55.93,287.26L57.14,276.74L57.21,279.08L57.3,280.25L57.3,281.42L58.05,277.91L58.17,276.74L58.18,277.91L59.71,276.74L60.89,269.72L61,270.89L61.89,268.55L62.42,267.38L63.11,256.86L63.14,259.2L63.86,258.03L64.5,260.37L64.5,261.54L64.51,267.38L64.81,267.38L65.49,266.22L66.72,262.71L67.45,261.54L67.69,268.55L68.58,267.38L69.65,279.08L69.79,277.91L70.31,276.74L70.31,275.57L70.7,275.57L71.14,276.74L72.2,273.23L72.21,274.4L72.63,273.23L72.66,272.06L72.7,273.23L73.54,272.06L74.31,270.89L74.81,269.72L78.05,260.37L78.05,261.54L78.5,265.05L78.63,261.54L79.02,262.71L79.3,263.88L79.37,260.37L79.57,262.71L80.28,263.88L80.6,258.03L80.62,259.2L81.73,258.03L81.93,259.2L82.12,258.03L82.35,256.86L82.38,255.69L83.07,259.2L83.2,258.03L83.33,259.2L83.9,255.69L83.9,256.86L84.04,258.03L84.44,262.71L84.84,261.54L85.17,260.37L85.17,258.03L85.28,261.54L86.23,260.37L86.23,261.54L86.25,259.2L86.91,261.54L87.08,260.37L87.86,262.71L88.19,261.54L88.75,262.71L88.84,263.88L89.15,268.55L89.67,267.38L89.97,275.57L90.26,273.23L90.71,272.06L91.75,268.55L91.88,269.72L91.89,270.89L93.7,263.88L93.72,265.05L95.77,258.03L95.91,259.2L95.91,260.37L96.79,262.71L96.89,263.88L97.73,274.4L98.03,273.23L98.43,275.57L98.43,274.4L98.52,273.23L98.56,275.57L98.98,263.88L98.98,263.88L99.39,262.71L99.7,260.37L99.96,266.22L100.34,265.05L101.32,262.71L101.32,263.88L101.32,265.05L101.44,267.38L101.88,266.22L102.35,265.05L102.7,268.55L102.83,266.22L103.23,265.05L103.25,266.22L103.8,263.88L103.82,265.05L104.39,263.88L104.5,262.71L104.5,263.88L105.17,265.05L105.17,266.22L105.76,265.05L106.32,263.88L106.54,260.37L106.72,260.37L107.13,259.2L108.46,253.35L108.5,254.52L108.57,255.69L110.6,252.18L111.15,253.35L112.52,249.85L112.98,251.02L113.27,249.85L114.09,277.91L114.19,276.74L114.8,274.4L115.07,275.57L115.47,274.4L115.47,275.57L116.43,274.4L116.83,275.57L117.12,274.4L117.14,273.23L117.81,272.06L118.05,273.23L118.06,275.57L118.28,270.89L118.79,269.72L118.79,270.89L119.2,268.55L119.26,268.55L119.81,267.38L119.81,266.22L120.29,272.06L121.99,270.89L122.21,272.06L122.26,270.89L122.77,269.72L123.2,265.05L123.97,263.88L125.63,259.2L126,260.37L126.46,258.03L126.54,259.2L126.54,260.37L126.69,266.22L127.05,263.88L127.57,262.71L128.08,260.37L128.31,261.54L128.31,262.71L128.91,266.22L129.6,265.05L130.57,260.37L130.94,261.54L131.61,260.37L132.66,259.2L133.77,255.69L134.57,256.86L134.57,255.69L135.29,255.69L135.36,256.86L135.87,255.69L136.22,254.52L136.23,256.86L136.75,252.18L136.75,252.18L137.19,251.02L137.19,248.68L137.75,249.85L138.09,248.68L138.59,246.34L138.62,245.17L138.69,244L138.74,247.51L139.28,246.34L139.3,247.51L139.7,245.17L140.32,246.34L140.71,242.83L140.95,253.35L141.5,252.18L142.23,249.85L142.3,251.02L142.31,249.85L142.33,252.18L143.49,251.02L144.13,249.85L144.24,252.18L145.04,251.02L145.06,252.18L145.69,248.68L145.75,249.85L146.3,251.02L148.01,248.68L148.02,249.85L149.1,244L149.97,242.83L150.21,240.49L150.72,241.66L150.73,240.49L151.38,246.34L151.74,245.17L152.91,244L153.24,245.17L155.6,239.32L155.74,240.49L156.25,235.82L156.53,234.65L157.81,227.63L158.53,226.46L158.53,227.63L158.91,226.46L159.98,225.29L160.04,224.12L160.49,228.8L160.91,227.63L161.94,225.29L161.95,224.12L161.97,222.95L162.17,231.14L163.42,229.97L163.66,227.63L164.74,226.46L165.46,231.14L165.81,229.97L168.65,220.62L168.71,219.45L168.76,220.62L170.47,219.45L170.71,224.12L170.72,225.29L170.73,228.8L171.13,226.46L173.05,225.29L173.07,227.63L173.22,226.46L173.95,225.29L174.45,220.62L174.46,221.78L174.98,222.95L175.32,224.12L176.21,219.45L176.27,220.62L176.4,221.78L177.22,220.62L177.23,221.78L178.2,220.62L178.51,219.45L179.76,218.28L180.38,215.94L180.42,214.77L180.94,212.43L180.95,213.6L181.37,212.43L181.39,214.77L182.04,213.6L182.21,212.43L182.89,213.6L183.18,212.43L183.18,211.26L183.9,211.26L184.08,210.09L184.83,207.75L184.97,206.58L185.14,207.75L185.29,205.42L185.3,206.58L186.09,205.42L187.43,197.23L187.44,199.57L187.7,198.4L188.03,196.06L188.33,197.23L188.84,196.06L189.04,193.72L189.49,196.06L189.76,194.89L190.13,192.55L190.68,191.38L191.82,190.22L191.82,191.38L191.9,190.22L191.93,191.38L193.25,190.22L193.98,191.38L194.69,190.22L194.92,189.05L194.92,190.22L196.74,189.05L197.43,187.88L197.44,189.05L197.44,190.22L197.82,189.05L198.64,190.22L198.64,191.38L199.32,191.38L199.49,190.22L200.45,187.88L201.16,186.71L201.79,183.2L202.16,184.37L203.52,179.69L203.84,180.86L205.24,179.69L206.44,177.35L206.55,178.52L209.03,173.85L209.32,175.02L209.68,171.51L210.41,170.34L210.83,172.68L210.86,171.51L211.14,170.34L211.86,168L212.07,169.17L212.11,170.34L212.13,173.85L212.85,170.34L212.91,171.51L213.28,169.17L213.36,176.18L213.74,175.02L213.76,176.18L213.78,175.02L214.5,173.85L214.71,175.02L215.17,171.51L215.3,172.68L216.11,187.88L216.12,186.71L216.18,185.54L217.04,200.74L217.62,199.57L217.78,200.74L218.2,196.06L218.36,198.4L218.63,199.57L220.14,190.22L220.49,189.05L220.65,185.54L220.75,190.22L221.66,189.05L223.62,186.71L223.65,185.54L224.23,179.69L224.59,178.52L225.03,179.69L226.66,178.52L227.79,176.18L227.86,175.02L228.7,173.85L229.11,175.02L229.83,172.68L231.64,171.51L232.22,169.17L232.29,168L233.16,164.49L233.29,165.66L233.47,164.49L234.6,163.32L234.91,159.82L234.93,166.83L234.93,168L234.93,169.17L235.48,164.49L235.9,163.32L236.1,164.49L237.05,163.32L237.2,164.49L237.43,163.32L238.01,164.49L238.08,163.32L238.26,168L238.68,165.66L238.94,166.83L239.24,165.66L239.26,168L239.36,168L239.37,169.17L240.8,164.49L240.8,165.66L240.92,166.83L241.14,163.32L241.2,162.15L241.33,168L241.7,166.83L242,165.66L242.87,170.34L242.95,169.17L242.96,168L243.51,197.23L243.66,196.06L243.79,197.23L243.79,198.4L244.22,198.4L244.75,197.23L245.77,192.55L245.86,193.72L247.14,185.54L247.28,186.71L247.55,185.54L248.76,182.03L248.77,183.2L248.91,184.37L249.49,180.86L249.79,179.69L249.99,178.52L250.62,179.69L251.23,173.85L251.68,172.68L252.15,168L252.17,169.17L252.69,170.34L253.49,165.66L253.67,164.49L254.91,157.48L255.33,156.31L255.53,155.14L256.55,153.97L257.94,146.95L258.35,145.78L259.49,142.28L259.5,143.45L261.71,135.26L261.73,134.09L262.66,131.75L262.75,132.92L263.63,129.42L263.66,128.25L264.19,125.91L264.23,124.74L266.22,116.55L266.43,117.72L266.44,120.06L267.35,118.89L267.35,120.06L268.05,116.55L268.67,115.38L268.96,116.55L270.1,115.38L270.39,111.88L272.79,113.05L272.95,139.94L273.84,138.77L275,139.94L275.15,138.77L275.15,137.6L275.23,141.11L275.41,138.77L276,139.94L278.84,138.77L279.56,137.6L280.11,134.09L280.12,132.92L280.23,135.26L280.87,132.92L280.91,134.09L281.83,132.92L282.07,134.09L282.6,138.77L282.77,136.43L282.99,137.6L282.99,138.77L283.29,136.43L283.74,136.43L283.97,135.26L284.72,132.92L284.8,131.75L285.18,129.42L285.53,130.58L285.54,131.75L285.82,143.45L286.74,142.28L286.91,143.45L287.42,141.11L287.43,142.28L287.43,143.45L288.41,141.11L288.58,142.28L288.69,139.94L289.13,141.11L289.5,142.28L289.95,143.45L290.46,142.28L291.89,137.6L292.2,136.43L292.51,138.77L292.67,134.09L292.83,134.09L293.22,135.26L293.29,134.09L293.38,135.26L294.49,134.09L294.51,135.26L295.05,132.92L295.39,131.75L295.7,127.08L295.96,128.25L296.33,129.42L296.34,134.09L296.53,131.75L297.55,130.58L298.25,141.11L298.26,139.94L298.36,138.77L298.39,137.6L298.69,148.12L298.84,148.12L298.93,149.29L298.98,157.48L299.67,155.14L300.01,156.31L300.71,151.63L300.87,152.8L301.53,150.46L302.06,149.29L302.08,150.46L302.36,146.95L303.16,145.78L303.39,146.95L303.39,145.78L304.01,144.62L304.32,148.12L304.42,144.62L304.87,143.45L305.26,139.94L305.88,138.77L306.08,137.6L307.38,136.43L308.04,132.92L308.09,131.75L309.28,124.74L310.25,123.57L312.9,115.38L313.99,114.22L314.75,111.88L315.55,110.71L315.69,108.37L316.41,109.54L317.24,127.08L317.43,125.91L317.53,128.25L317.87,127.08L318.49,128.25L318.99,127.08L319.71,128.25L320.82,124.74L321.75,123.57L323.01,122.4L323.34,123.57L323.39,124.74L324.38,123.57L324.89,121.23L325.34,122.4L325.51,121.23L325.94,122.4L325.96,123.57L325.96,124.74L326.63,122.4L327.29,123.57L328.26,156.31L328.54,155.14L328.7,151.63L329.14,156.31L329.29,157.48L330.71,146.95L331.05,145.78L331.17,148.12L331.62,146.95L332.05,145.78L333.01,148.12L333.39,146.95L334.35,145.78L334.37,146.95L334.96,145.78L335.18,144.62L336.3,142.28L336.85,143.45L337.31,138.77L338.39,137.6L338.66,136.43L339.73,135.26L341.3,130.58L341.3,131.75L341.33,132.92L342.27,128.25L342.79,129.42L343.61,124.74L343.62,125.91L344.1,124.74L344.15,125.91L344.75,123.57L344.76,122.4L344.87,120.06L346.14,118.89L346.97,116.55L347,115.38L347.81,113.05L348.13,111.88L349.05,116.55L349.42,115.38L349.6,114.22L351.08,111.88L351.29,113.05L352.37,110.71L352.92,109.54L354.44,104.86L355.03,103.69L355.39,102.52L355.6,103.69L355.66,104.86L355.68,103.69L356.54,102.52L357.63,100.18L357.74,99.02L358.7,97.85L358.72,99.02L358.79,115.38L359.42,111.88L359.68,113.05L360.28,110.71L360.52,109.54L361.25,110.71L362.14,109.54L362.75,106.03L362.86,107.2L363.13,106.03L364.39,103.69L365.21,102.52L365.82,100.18L365.82,99.02L365.82,93.17L367.05,92L368.06,88.49L369.52,89.66L369.52,92L369.93,88.49L370.27,88.49L370.76,89.66L371.08,87.32L371.33,88.49L372.18,87.32L372.32,86.15L372.32,87.32L373.61,88.49L374.23,87.32L374.28,88.49L374.45,89.66L374.45,90.83L375.05,90.83L375.35,92L375.55,104.86L376.5,106.03L377.49,103.69L378,102.52L378.13,100.18L378.16,103.69L378.57,104.86L379.75,96.68L379.76,97.85L379.76,96.68L379.79,102.52L380.09,100.18L380.64,99.02L381.91,95.51L383.01,94.34L383.7,90.83L384.39,89.66L384.76,86.15L385.22,88.49L385.47,87.32L386.47,81.48L386.47,82.65L387.86,81.48L388.62,75.63L388.63,77.97L389.42,76.8L389.74,77.97L389.78,76.8L390.28,75.63L390.82,73.29L391.45,74.46L392.38,70.95L393,69.78L393.6,67.45L393.82,68.62L393.95,69.78L394.25,70.95L394.46,69.78L395.6,70.95L397.93,62.77L398.2,61.6L399.16,60.43L399.87,61.6L400.94,58.09L401.02,56.92L401.08,58.09L401.24,53.42L401.84,54.58L401.92,52.25L403.04,51.08L403.19,48.74L403.37,51.08L403.63,52.25L404.02,51.08L404.17,52.25L404.2,53.42L404.47,55.75L404.99,54.58L406,47.57L406.05,51.08L406.69,49.91L406.76,48.74L406.97,51.08L407.2,51.08L407.36,52.25L408.13,47.57L408.45,48.74L408.58,52.25L409.07,47.57L409.39,46.4L409.95,44.06L409.96,45.23L410.02,46.4L410.56,41.72L410.65,44.06L410.91,45.23L411.07,42.89L411.21,54.58L411.21,55.75L411.6,60.43L411.89,49.91L411.96,54.58L412.05,53.42L412.56,56.92L412.56,58.09L413.02,53.42L413.4,54.58L413.88,49.91L413.94,48.74L414.35,47.57L414.4,48.74L414.42,49.91L414.46,48.74L414.54,60.43L414.93,55.75L415.21,54.58L415.25,56.92L415.76,54.58L416.33,53.42L416.96,56.92L417.23,55.75L417.45,54.58L417.59,56.92L417.67,55.75L418.23,54.58L418.86,63.94L418.88,62.77L419.25,61.6L419.32,60.43L419.64,63.94L419.9,62.77L420.23,61.6L420.64,58.09L420.81,60.43L421.33,59.26L421.75,55.75L422.14,58.09L422.14,59.26L422.97,75.63L423.17,74.46L423.58,72.12L424.4,70.95L424.53,74.46L425.49,75.63L426.56,73.29L426.6,72.12L426.76,73.29L427.12,72.12L427.57,70.95L428.02,68.62L428.13,72.12L428.26,70.95L428.5,69.78L429.13,67.45L429.48,68.62L430.08,74.46L430.3,72.12L430.33,70.95L430.77,74.46L431.01,74.46L431.15,73.29L431.53,65.11L431.9,72.12L432,70.95L432.27,67.45L432.38,74.46L432.38,75.63L432.96,67.45L433.08,69.78L433.21,68.62L433.56,65.11L433.96,67.45L434.01,66.28L434.2,65.11L434.34,68.62L434.34,69.78L434.64,90.83L435.06,86.15L435.15,87.32L435.16,88.49L435.9,87.32L435.97,86.15L436.12,84.98L436.18,94.34L436.32,92L436.42,93.17L437.22,90.83L437.82,89.66L438.44,86.15L438.62,84.98L439.34,79.14L439.61,82.65L439.62,83.82L439.77,81.48L440.04,86.15L440.13,87.32L440.96,86.15L441.08,84.98L441.58,87.32L441.65,83.82L441.7,82.65L441.7,83.82L442.22,77.97L442.51,76.8L442.53,75.63L442.62,79.14L442.96,76.8L443.44,75.63L443.45,76.8L444.02,67.45L444.06,69.78L444.84,68.62L445.31,65.11L445.86,66.28L445.98,63.94L446.26,69.78L446.63,68.62L446.65,67.45L446.96,66.28L447.21,68.62L447.5,67.45L447.67,69.78L448.03,67.45L448.36,68.62L448.88,62.77L449.22,65.11L449.28,66.28L449.4,65.11L449.44,68.62L449.86,66.28L450.28,65.11L450.29,63.94L450.82,74.46L450.98,70.95L451.23,72.12L451.24,70.95L451.52,74.46L451.62,73.29L452.18,74.46L452.37,73.29L452.61,75.63L453.07,74.46L453.59,73.29L453.64,74.46L453.71,75.63L454.28,77.97L454.28,76.8L454.42,75.63L454.56,72.12L455.1,75.63L455.44,74.46L455.68,70.95L456.06,74.46L456.09,75.63L456.4,74.46L457.21,93.17L457.48,92L457.57,90.83L458.29,88.49L458.31,87.32L459.14,77.97L459.23,79.14L459.3,76.8L459.41,87.32L459.69,87.32L460.23,86.15L460.89,95.51L461.03,93.17L461.1,92L461.18,93.17L461.44,87.32L462.03,88.49L462.27,84.98L462.3,89.66L462.46,88.49L462.91,89.66L463.18,90.83L463.81,86.15L464.1,87.32L464.12,90.83L464.79,88.49L464.91,89.66L465.35,87.32L466.05,86.15L466.3,81.48L466.6,86.15L466.9,84.98L467.99,75.63L468.74,76.8L469.24,88.49L469.64,87.32L469.74,89.66L470.07,82.65L470.24,83.82L470.49,82.65L470.95,89.66L471.63,88.49L471.81,87.32L472.13,89.66L472.14,90.83L472.77,88.49L473.01,101.35L473.1,100.18L473.1,97.85L473.65,104.86L473.92,103.69L474.13,104.86L475.55,103.69L476.13,104.86L476.42,103.69L476.86,104.86L476.88,103.69L477.4,102.52L477.41,101.35L477.66,104.86L477.74,103.69L478.35,102.52L478.56,103.69L478.88,102.52L479.27,101.35L479.34,99.02L479.48,102.52L479.76,101.35L480.27,100.18L480.35,99.02L480.77,103.69L480.77,104.86L481.84,101.35L482.22,102.52L482.47,100.18L482.77,102.52L482.77,103.69L483.35,104.86L483.52,103.69L483.54,102.52L484.29,96.68L484.32,100.18L484.32,101.35L484.47,99.02L485.29,100.18L485.29,99.02L485.57,99.02L486.7,97.85L487.23,94.34L487.48,96.68L487.57,95.51L488.2,90.83L488.38,89.66L489.02,92L489.05,89.66L489.19,88.49L489.99,87.32L490.55,88.49L490.57,90.83L491.09,90.83L491.38,89.66L491.38,88.49L492.08,90.83L492.26,89.66L492.35,88.49L493.25,87.32L493.85,88.49L494.28,87.32L495.01,82.65L495.24,81.48L495.26,82.65L495.4,81.48L496.11,80.31L496.36,82.65L496.8,81.48L496.91,82.65L497.32,77.97L497.47,80.31L497.74,81.48L498,77.97L499.74,79.14L500.06,75.63L500.68,76.8L500.93,88.49L501.36,84.98L501.48,86.15L501.61,88.49L502.18,87.32L502.57,86.15L502.88,82.65L503.8,81.48L503.92,79.14L504.92,77.97L505.57,75.63L505.67,74.46L505.79,72.12L507.18,73.29L507.59,90.83L507.87,88.49L507.95,87.32L508.01,89.66L508.73,88.49L509.65,84.98L509.65,86.15L510.35,92L510.4,90.83L510.82,89.66L511.44,84.98L511.47,86.15L511.91,84.98L514.33,80.31L514.65,79.14L515.72,75.63L516.62,74.46L516.72,72.12L516.91,73.29L517.54,72.12L518.18,69.78L519.64,68.62L521.17,65.11L521.29,63.94L522.51,58.09L522.52,59.26L522.55,58.09L522.59,61.6L523.15,59.26L523.36,58.09L524.18,49.91L524.32,48.74L524.87,45.23L527.78,44.06L529.22,37.05L531.01,35.88L531.03,34.71L531.96,33.54L531.97,34.71L532.48,31.2L532.78,30.03L533.12,27.69L534.97,26.52L536.79,24.18L536.95,23.02L537.9,20.68L537.95,19.51L538.08,20.68L538.63,19.51L538.86,18.34L540,16" style="vector-effect: none; fill: none; stroke: rgb(255, 127, 14); stroke-opacity: 1; stroke-width: 2px; opacity: 1;"/></g><g class="points"/><g class="text"/></g></g></g></g><g class="zerolinelayer-above"/><path class="xlines-above crisp" d="M0,0" style="fill: none;"/><path class="ylines-above crisp" d="M0,0" style="fill: none;"/><g class="overlines-above"/><g class="xaxislayer-above"><g class="xtick"><text text-anchor="middle" x="0" y="439" transform="translate(100.4,0)" style="font-family: 'Open Sans'; font-size: 18px; fill: rgb(0, 0, 0); fill-opacity: 1; white-space: pre;">2016</text></g><g class="xtick"><text text-anchor="middle" x="0" y="439" style="font-family: 'Open Sans'; font-size: 18px; fill: rgb(0, 0, 0); fill-opacity: 1; white-space: pre;" transform="translate(201.61,0)">2018</text></g><g class="xtick"><text text-anchor="middle" x="0" y="439" style="font-family: 'Open Sans'; font-size: 18px; fill: rgb(0, 0, 0); fill-opacity: 1; white-space: pre;" transform="translate(302.69,0)">2020</text></g><g class="xtick"><text text-anchor="middle" x="0" y="439" style="font-family: 'Open Sans'; font-size: 18px; fill: rgb(0, 0, 0); fill-opacity: 1; white-space: pre;" transform="translate(403.9,0)">2022</text></g><g class="xtick"><text text-anchor="middle" x="0" y="439" style="font-family: 'Open Sans'; font-size: 18px; fill: rgb(0, 0, 0); fill-opacity: 1; white-space: pre;" transform="translate(504.98,0)">2024</text></g><g class="xtick"><text text-anchor="middle" x="0" y="439" style="font-family: 'Open Sans'; font-size: 18px; fill: rgb(0, 0, 0); fill-opacity: 1; white-space: pre;" transform="translate(606.2,0)">2026</text></g></g><g class="yaxislayer-above"><g class="ytick"><text text-anchor="end" x="79" y="6.3" transform="translate(0,420)" style="font-family: 'Open Sans'; font-size: 18px; fill: rgb(0, 0, 0); fill-opacity: 1; white-space: pre;">0</text></g><g class="ytick"><text text-anchor="end" x="79" y="6.3" style="font-family: 'Open Sans'; font-size: 18px; fill: rgb(0, 0, 0); fill-opacity: 1; white-space: pre;" transform="translate(0,361.54)">50</text></g><g class="ytick"><text text-anchor="end" x="79" y="6.3" style="font-family: 'Open Sans'; font-size: 18px; fill: rgb(0, 0, 0); fill-opacity: 1; white-space: pre;" transform="translate(0,303.08000000000004)">100</text></g><g class="ytick"><text text-anchor="end" x="79" y="6.3" style="font-family: 'Open Sans'; font-size: 18px; fill: rgb(0, 0, 0); fill-opacity: 1; white-space: pre;" transform="translate(0,244.62)">150</text></g><g class="ytick"><text text-anchor="end" x="79" y="6.3" style="font-family: 'Open Sans'; font-size: 18px; fill: rgb(0, 0, 0); fill-opacity: 1; white-space: pre;" transform="translate(0,186.15)">200</text></g><g class="ytick"><text text-anchor="end" x="79" y="6.3" style="font-family: 'Open Sans'; font-size: 18px; fill: rgb(0, 0, 0); fill-opacity: 1; white-space: pre;" transform="translate(0,127.69)">250</text></g></g><g class="overaxes-above"/></g></g><g class="polarlayer"/><g class="smithlayer"/><g class="ternarylayer"/><g class="geolayer"/><g class="funnelarealayer"/><g class="pielayer"/><g class="iciclelayer"/><g class="treemaplayer"/><g class="sunburstlayer"/><g class="glimages"/><defs id="topdefs-c57303"><g class="clips"/></defs><g class="layer-above"><g class="imagelayer"/><g class="shapelayer"/></g><g class="infolayer"><g class="g-gtitle"><text class="gtitle" x="35" y="50" text-anchor="start" dy="0em" style="opacity: 1; font-family: 'Open Sans'; font-size: 25px; fill: rgb(0, 0, 0); fill-opacity: 1; white-space: pre;">MultiQC/MultiQC - Open Issues Over Time</text></g><g class="g-xtitle"><text class="xtitle" x="350" y="472.9" text-anchor="middle" style="opacity: 1; font-family: 'Open Sans'; font-size: 22px; fill: rgb(0, 0, 0); fill-opacity: 1; white-space: pre;">Date</text></g><g class="g-ytitle"><text class="ytitle" transform="rotate(-90,29.799999999999997,260)" x="29.799999999999997" y="260" text-anchor="middle" style="opacity: 1; font-family: 'Open Sans'; font-size: 22px; fill: rgb(0, 0, 0); fill-opacity: 1; white-space: pre;">Number of Open Issues</text></g></g></svg>