<svg class="main-svg" xmlns="http://www.w3.org/2000/svg" xmlns:xlink="http://www.w3.org/1999/xlink" width="700" height="500" style="" viewBox="0 0 700 500"><rect x="0" y="0" width="700" height="500" style="fill: rgb(0, 0, 0); fill-opacity: 0;"/><defs id="defs-6da590"><g class="clips"><clipPath id="clip6da590xyplot" class="plotclip"><rect width="535" height="320"/></clipPath><clipPath class="axesclip" id="clip6da590x"><rect x="85" y="0" width="535" height="500"/></clipPath><clipPath class="axesclip" id="clip6da590y"><rect x="0" y="100" width="700" height="320"/></clipPath><clipPath class="axesclip" id="clip6da590xy"><rect x="85" y="100" width="535" height="320"/></clipPath></g><g class="gradients"/><g class="patterns"/></defs><g class="bglayer"><rect class="bg" x="85" y="100" width="535" height="320" style="fill: rgb(0, 0, 0); fill-opacity: 0; stroke-width: 0;"/></g><g class="layer-below"><g class="imagelayer"/><g class="shapelayer"/></g><g class="cartesianlayer"><g class="subplot xy"><g class="layer-subplot"><g class="shapelayer"/><g class="imagelayer"/></g><g class="minor-gridlayer"><g class="x"/><g class="y"/></g><g class="gridlayer"><g class="x"><path class="xgrid crisp" transform="translate(106.33,0)" d="M0,100v320" style="stroke: rgb(255, 255, 255); stroke-opacity: 1; stroke-width: 1px;"/><path class="xgrid crisp" transform="translate(212.20999999999998,0)" d="M0,100v320" style="stroke: rgb(255, 255, 255); stroke-opacity: 1; stroke-width: 1px;"/><path class="xgrid crisp" transform="translate(317.93,0)" d="M0,100v320" style="stroke: rgb(255, 255, 255); stroke-opacity: 1; stroke-width: 1px;"/><path class="xgrid crisp" transform="translate(423.8,0)" d="M0,100v320" style="stroke: rgb(255, 255, 255); stroke-opacity: 1; stroke-width: 1px;"/><path class="xgrid crisp" transform="translate(529.53,0)" d="M0,100v320" style="stroke: rgb(255, 255, 255); stroke-opacity: 1; stroke-width: 1px;"/></g><g class="y"><path class="ygrid crisp" transform="translate(0,334.75)" d="M85,0h535" style="stroke: rgb(255, 255, 255); stroke-opacity: 1; stroke-width: 1px;"/><path class="ygrid crisp" transform="translate(0,249.5)" d="M85,0h535" style="stroke: rgb(255, 255, 255); stroke-opacity: 1; stroke-width: 1px;"/><path class="ygrid crisp" transform="translate(0,164.25)" d="M85,0h535" style="stroke: rgb(255, 255, 255); stroke-opacity: 1; stroke-width: 1px;"/></g></g><g class="zerolinelayer"><path class="yzl zl crisp" transform="translate(0,420)" d="M85,0h535" style="stroke: rgb(255, 255, 255); stroke-opacity: 1; stroke-width: 2px;"/></g><g class="layer-between"><g class="shapelayer"/><g class="imagelayer"/></g><path class="xlines-below"/><path class="ylines-below"/><g class="overlines-below"/><g class="xaxislayer-below"/><g class="yaxislayer-below"/><g class="overaxes-below"/><g class="overplot"><g class="xy" transform="translate(85,100)" clip-path="url(#clip6da590xyplot)"><g class="scatterlayer mlayer"><g class="trace scatter traceb0c6f1" style="stroke-miterlimit: 2;"><g class="fills"><g><path class="js-fill" d="M535,320L0,320L0,319.83L0,319.49L1.99,319.32L3.89,318.3L4.61,318.12L5.22,316.93L5.61,316.76L6.22,315.74L6.53,315.57L8.68,311.99L9.09,311.82L10.25,310.79L10.26,310.62L10.71,309.94L11.15,309.77L12.27,308.75L12.27,308.58L12.99,306.87L13.03,306.7L15.07,304.31L16.06,304.14L18.06,303.12L18.55,302.95L18.94,302.61L21.99,302.44L27.26,299.88L27.37,299.71L28.09,299.37L29.99,299.2L33.02,297.32L34.24,297.15L38.24,294.43L38.24,294.25L38.55,293.4L39.2,293.23L41.42,291.02L41.42,290.84L42.11,290.16L42.42,289.99L44.71,287.95L46.02,287.78L48.22,285.73L48.36,285.56L48.74,284.88L49.41,284.71L53.74,282.83L54.4,282.66L55.46,281.64L56.63,281.47L60.84,278.23L62.46,278.06L65.8,274.99L65.9,274.82L66.02,274.48L66.8,274.31L69.43,272.94L69.47,272.77L69.79,272.43L70.55,272.26L71.73,271.92L72.7,271.75L73.55,270.56L73.95,270.38L79.96,268.34L80.07,268.17L81.69,267.15L82.22,266.97L83.02,265.78L83.22,265.61L85.9,264.42L86.14,264.25L86.16,263.91L87.03,263.74L87.76,262.88L88.03,262.71L88.74,262.2L89.09,262.03L89.09,261.69L90.19,261.52L90.22,261.18L91.08,261.01L95.39,259.64L95.87,259.47L96.99,258.79L97.3,258.62L101.95,256.57L101.96,256.4L103.23,255.38L103.23,255.21L103.96,252.99L103.99,252.82L114.07,247.2L115.39,247.03L120.08,245.15L120.78,244.98L123.53,243.79L123.69,243.62L124.49,243.1L124.68,242.93L125.56,242.25L127.61,242.08L128.84,240.72L128.87,240.55L131.25,239.35L131.41,239.18L133.44,238.16L133.5,237.99L133.97,237.48L134.69,237.31L136,236.11L136.39,235.94L137.66,235.43L138.76,235.26L141.06,234.41L141.51,234.24L143.04,232.53L143.5,232.36L144.08,231.85L144.45,231.68L148.01,229.81L148.02,229.64L148.86,228.95L150.09,228.78L154.97,226.91L155,226.74L157.12,225.37L157.66,225.2L162.76,223.67L162.9,223.5L163.73,222.82L163.9,222.64L175.97,217.53L176.21,217.36L176.48,216.85L178.31,216.68L184.21,214.46L184.31,214.29L188.95,212.59L189.12,212.42L189.71,211.73L190.29,211.56L190.59,211.22L191.6,211.05L192.36,210.71L192.55,210.54L193.33,209.86L193.48,209.69L193.81,209.01L194.65,208.83L196.67,207.13L197.53,206.96L198.87,205.77L199.45,205.6L208.35,203.55L208.67,203.38L209.67,203.04L210.41,202.87L211.07,202.01L211.93,201.84L219.1,199.63L219.32,199.46L222.56,198.09L222.64,197.92L224.39,196.73L224.74,196.56L225.63,195.88L225.97,195.71L226.9,194.68L227.63,194.51L230.8,191.44L231.85,191.27L234.18,190.25L234.32,190.08L234.92,189.74L237.08,189.57L242.9,187.86L242.97,187.69L243.89,187.18L244.21,187.01L245.74,186.16L245.92,185.99L246.75,185.14L247.95,184.96L249.66,183.77L250.24,183.6L250.98,182.75L251.42,182.58L252.13,181.73L252.23,181.55L253.13,180.87L253.4,180.7L254.29,179.85L254.31,179.68L257.32,177.97L257.46,177.8L258.51,176.78L258.94,176.61L262.26,174.91L262.27,174.73L273.76,167.57L274.67,167.4L275.78,166.38L276.33,166.21L276.93,165.36L277.31,165.19L282.82,163.14L286.44,162.97L292.99,161.44L293,161.27L296.56,159.56L296.79,159.39L300.93,157L301.68,156.83L303.82,156.15L304.26,155.98L306.01,154.62L306.04,154.45L306.78,153.93L308.04,153.76L310.17,151.72L311.23,151.55L312.14,150.01L312.21,149.84L312.91,149.33L313.25,149.16L316.26,147.28L317.11,147.11L320.16,144.9L321.52,144.73L323.08,143.36L323.24,143.19L325.41,142.51L326.01,142.34L327.29,141.49L328.43,141.32L329.23,140.98L330.07,140.81L330.21,140.46L331.34,140.29L332.12,139.44L332.49,139.27L340.49,137.4L341.35,137.22L345.85,134.5L345.92,134.33L348.73,133.64L349.51,133.47L351.76,132.28L352.36,132.11L354.24,131.26L355.36,131.09L358.73,128.87L358.75,128.7L362.81,126.99L362.93,126.82L363.69,126.48L363.81,126.31L367.71,125.12L368.57,124.95L375.82,122.05L375.95,121.88L377.67,121.03L378.8,120.86L379.44,120.35L379.84,120.17L382.64,118.81L382.64,118.64L382.64,118.3L383.93,118.13L384.99,117.62L386.85,117.45L387.31,116.94L388.14,116.77L388.15,116.59L389.3,116.42L389.45,116.25L391.03,116.08L396.26,113.87L396.53,113.7L397.23,112.84L397.38,112.67L398.15,111.99L398.47,111.82L402.36,110.29L402.39,110.12L403.34,109.6L403.64,109.43L404.24,108.75L405.7,108.58L406.49,107.73L407.33,107.56L414.5,104.83L415.22,104.66L419.59,102.61L419.61,102.44L420.4,101.93L421.57,101.76L422.8,101.08L423.62,100.91L429.96,95.62L429.98,95.45L430.83,94.6L430.83,94.43L431.57,93.07L431.84,92.9L435.72,89.66L436.42,89.49L443.07,84.37L443.92,84.2L447.34,83.18L447.49,83.01L450.69,80.28L450.8,80.11L451.74,77.72L451.87,77.55L454.17,73.46L454.74,73.29L455.07,72.61L455.94,72.44L457.33,70.9L457.95,70.73L458.6,70.22L458.79,70.05L461.36,68.17L461.9,68L463.34,65.1L463.84,64.93L465.8,62.89L466.45,62.72L467.32,61.52L467.52,61.35L469.23,60.16L469.23,59.99L469.97,59.14L470.07,58.97L471.56,57.43L471.57,57.26L473.17,56.58L473.9,56.41L476.61,54.19L476.64,54.02L478.16,52.83L478.18,52.66L478.61,51.98L479.26,51.8L481.4,48.91L481.7,48.74L482.66,46.69L483.3,46.52L485.14,44.64L485.76,44.47L487.63,42.94L487.75,42.77L488.9,41.75L489.2,41.57L490.81,41.06L491.25,40.89L492.54,38.68L493.32,38.51L495.72,36.8L497.42,36.63L498.33,36.29L498.81,36.12L501.53,34.58L501.69,34.41L502.83,33.73L503.42,33.56L506.56,31.52L506.6,31.34L507.9,30.83L509.08,30.66L510.14,29.64L510.47,29.47L511.54,28.45L511.69,28.28L512.53,27.93L513.15,27.76L519.77,24.7L519.8,24.52L520.91,23.67L522.8,23.5L526.01,20.43L526.97,20.26L527.1,19.92L528.14,19.75L532.21,17.88L532.37,17.7L534.46,16.34L534.96,16.17L535,16" style="fill: rgb(255, 127, 14); fill-opacity: 0.5; stroke-width: 0;"/></g></g><g class="errorbars"/><g class="lines"><path class="js-line" d="M0,319.83L0,319.49L1.99,319.32L3.89,318.3L4.61,318.12L5.22,316.93L5.61,316.76L6.22,315.74L6.53,315.57L8.68,311.99L9.09,311.82L10.25,310.79L10.26,310.62L10.71,309.94L11.15,309.77L12.27,308.75L12.27,308.58L12.99,306.87L13.03,306.7L15.07,304.31L16.06,304.14L18.06,303.12L18.55,302.95L18.94,302.61L21.99,302.44L27.26,299.88L27.37,299.71L28.09,299.37L29.99,299.2L33.02,297.32L34.24,297.15L38.24,294.43L38.24,294.25L38.55,293.4L39.2,293.23L41.42,291.02L41.42,290.84L42.11,290.16L42.42,289.99L44.71,287.95L46.02,287.78L48.22,285.73L48.36,285.56L48.74,284.88L49.41,284.71L53.74,282.83L54.4,282.66L55.46,281.64L56.63,281.47L60.84,278.23L62.46,278.06L65.8,274.99L65.9,274.82L66.02,274.48L66.8,274.31L69.43,272.94L69.47,272.77L69.79,272.43L70.55,272.26L71.73,271.92L72.7,271.75L73.55,270.56L73.95,270.38L79.96,268.34L80.07,268.17L81.69,267.15L82.22,266.97L83.02,265.78L83.22,265.61L85.9,264.42L86.14,264.25L86.16,263.91L87.03,263.74L87.76,262.88L88.03,262.71L88.74,262.2L89.09,262.03L89.09,261.69L90.19,261.52L90.22,261.18L91.08,261.01L95.39,259.64L95.87,259.47L96.99,258.79L97.3,258.62L101.95,256.57L101.96,256.4L103.23,255.38L103.23,255.21L103.96,252.99L103.99,252.82L114.07,247.2L115.39,247.03L120.08,245.15L120.78,244.98L123.53,243.79L123.69,243.62L124.49,243.1L124.68,242.93L125.56,242.25L127.61,242.08L128.84,240.72L128.87,240.55L131.25,239.35L131.41,239.18L133.44,238.16L133.5,237.99L133.97,237.48L134.69,237.31L136,236.11L136.39,235.94L137.66,235.43L138.76,235.26L141.06,234.41L141.51,234.24L143.04,232.53L143.5,232.36L144.08,231.85L144.45,231.68L148.01,229.81L148.02,229.64L148.86,228.95L150.09,228.78L154.97,226.91L155,226.74L157.12,225.37L157.66,225.2L162.76,223.67L162.9,223.5L163.73,222.82L163.9,222.64L175.97,217.53L176.21,217.36L176.48,216.85L178.31,216.68L184.21,214.46L184.31,214.29L188.95,212.59L189.12,212.42L189.71,211.73L190.29,211.56L190.59,211.22L191.6,211.05L192.36,210.71L192.55,210.54L193.33,209.86L193.48,209.69L193.81,209.01L194.65,208.83L196.67,207.13L197.53,206.96L198.87,205.77L199.45,205.6L208.35,203.55L208.67,203.38L209.67,203.04L210.41,202.87L211.07,202.01L211.93,201.84L219.1,199.63L219.32,199.46L222.56,198.09L222.64,197.92L224.39,196.73L224.74,196.56L225.63,195.88L225.97,195.71L226.9,194.68L227.63,194.51L230.8,191.44L231.85,191.27L234.18,190.25L234.32,190.08L234.92,189.74L237.08,189.57L242.9,187.86L242.97,187.69L243.89,187.18L244.21,187.01L245.74,186.16L245.92,185.99L246.75,185.14L247.95,184.96L249.66,183.77L250.24,183.6L250.98,182.75L251.42,182.58L252.13,181.73L252.23,181.55L253.13,180.87L253.4,180.7L254.29,179.85L254.31,179.68L257.32,177.97L257.46,177.8L258.51,176.78L258.94,176.61L262.26,174.91L262.27,174.73L273.76,167.57L274.67,167.4L275.78,166.38L276.33,166.21L276.93,165.36L277.31,165.19L282.82,163.14L286.44,162.97L292.99,161.44L293,161.27L296.56,159.56L296.79,159.39L300.93,157L301.68,156.83L303.82,156.15L304.26,155.98L306.01,154.62L306.04,154.45L306.78,153.93L308.04,153.76L310.17,151.72L311.23,151.55L312.14,150.01L312.21,149.84L312.91,149.33L313.25,149.16L316.26,147.28L317.11,147.11L320.16,144.9L321.52,144.73L323.08,143.36L323.24,143.19L325.41,142.51L326.01,142.34L327.29,141.49L328.43,141.32L329.23,140.98L330.07,140.81L330.21,140.46L331.34,140.29L332.12,139.44L332.49,139.27L340.49,137.4L341.35,137.22L345.85,134.5L345.92,134.33L348.73,133.64L349.51,133.47L351.76,132.28L352.36,132.11L354.24,131.26L355.36,131.09L358.73,128.87L358.75,128.7L362.81,126.99L362.93,126.82L363.69,126.48L363.81,126.31L367.71,125.12L368.57,124.95L375.82,122.05L375.95,121.88L377.67,121.03L378.8,120.86L379.44,120.35L379.84,120.17L382.64,118.81L382.64,118.64L382.64,118.3L383.93,118.13L384.99,117.62L386.85,117.45L387.31,116.94L388.14,116.77L388.15,116.59L389.3,116.42L389.45,116.25L391.03,116.08L396.26,113.87L396.53,113.7L397.23,112.84L397.38,112.67L398.15,111.99L398.47,111.82L402.36,110.29L402.39,110.12L403.34,109.6L403.64,109.43L404.24,108.75L405.7,108.58L406.49,107.73L407.33,107.56L414.5,104.83L415.22,104.66L419.59,102.61L419.61,102.44L420.4,101.93L421.57,101.76L422.8,101.08L423.62,100.91L429.96,95.62L429.98,95.45L430.83,94.6L430.83,94.43L431.57,93.07L431.84,92.9L435.72,89.66L436.42,89.49L443.07,84.37L443.92,84.2L447.34,83.18L447.49,83.01L450.69,80.28L450.8,80.11L451.74,77.72L451.87,77.55L454.17,73.46L454.74,73.29L455.07,72.61L455.94,72.44L457.33,70.9L457.95,70.73L458.6,70.22L458.79,70.05L461.36,68.17L461.9,68L463.34,65.1L463.84,64.93L465.8,62.89L466.45,62.72L467.32,61.52L467.52,61.35L469.23,60.16L469.23,59.99L469.97,59.14L470.07,58.97L471.56,57.43L471.57,57.26L473.17,56.58L473.9,56.41L476.61,54.19L476.64,54.02L478.16,52.83L478.18,52.66L478.61,51.98L479.26,51.8L481.4,48.91L481.7,48.74L482.66,46.69L483.3,46.52L485.14,44.64L485.76,44.47L487.63,42.94L487.75,42.77L488.9,41.75L489.2,41.57L490.81,41.06L491.25,40.89L492.54,38.68L493.32,38.51L495.72,36.8L497.42,36.63L498.33,36.29L498.81,36.12L501.53,34.58L501.69,34.41L502.83,33.73L503.42,33.56L506.56,31.52L506.6,31.34L507.9,30.83L509.08,30.66L510.14,29.64L510.47,29.47L511.54,28.45L511.69,28.28L512.53,27.93L513.15,27.76L519.77,24.7L519.8,24.52L520.91,23.67L522.8,23.5L526.01,20.43L526.97,20.26L527.1,19.92L528.14,19.75L532.21,17.88L532.37,17.7L534.46,16.34L534.96,16.17L535,16" style="vector-effect: none; fill: none; stroke: rgb(255, 127, 14); stroke-opacity: 1; stroke-width: 2px; opacity: 1;"/></g><g class="points"/><g class="text"/></g></g></g></g><g class="zerolinelayer-above"/><path class="xlines-above crisp" d="M0,0" style="fill: none;"/><path class="ylines-above crisp" d="M0,0" style="fill: none;"/><g class="overlines-above"/><g class="xaxislayer-above"><g class="xtick"><text text-anchor="middle" x="0" y="439" transform="translate(106.33,0)" style="font-family: 'Open Sans'; font-size: 18px; fill: rgb(255, 255, 255); fill-opacity: 1; white-space: pre;">2016</text></g><g class="xtick"><text text-anchor="middle" x="0" y="439" style="font-family: 'Open Sans'; font-size: 18px; fill: rgb(255, 255, 255); fill-opacity: 1; white-space: pre;" transform="translate(212.20999999999998,0)">2018</text></g><g class="xtick"><text text-anchor="middle" x="0" y="439" style="font-family: 'Open Sans'; font-size: 18px; fill: rgb(255, 255, 255); fill-opacity: 1; white-space: pre;" transform="translate(317.93,0)">2020</text></g><g class="xtick"><text text-anchor="middle" x="0" y="439" style="font-family: 'Open Sans'; font-size: 18px; fill: rgb(255, 255, 255); fill-opacity: 1; white-space: pre;" transform="translate(423.8,0)">2022</text></g><g class="xtick"><text text-anchor="middle" x="0" y="439" style="font-family: 'Open Sans'; font-size: 18px; fill: rgb(255, 255, 255); fill-opacity: 1; white-space: pre;" transform="translate(529.53,0)">2024</text></g></g><g class="yaxislayer-above"><g class="ytick"><text text-anchor="end" x="84" y="6.3" transform="translate(0,420)" style="font-family: 'Open Sans'; font-size: 18px; fill: rgb(255, 255, 255); fill-opacity: 1; white-space: pre;">0</text></g><g class="ytick"><text text-anchor="end" x="84" y="6.3" style="font-family: 'Open Sans'; font-size: 18px; fill: rgb(255, 255, 255); fill-opacity: 1; white-space: pre;" transform="translate(0,334.75)">500</text></g><g class="ytick"><text text-anchor="end" x="84" y="6.3" style="font-family: 'Open Sans'; font-size: 18px; fill: rgb(255, 255, 255); fill-opacity: 1; white-space: pre;" transform="translate(0,249.5)">1000</text></g><g class="ytick"><text text-anchor="end" x="84" y="6.3" style="font-family: 'Open Sans'; font-size: 18px; fill: rgb(255, 255, 255); fill-opacity: 1; white-space: pre;" transform="translate(0,164.25)">1500</text></g></g><g class="overaxes-above"/></g></g><g class="polarlayer"/><g class="smithlayer"/><g class="ternarylayer"/><g class="geolayer"/><g class="funnelarealayer"/><g class="pielayer"/><g class="iciclelayer"/><g class="treemaplayer"/><g class="sunburstlayer"/><g class="glimages"/><defs id="topdefs-6da590"><g class="clips"/></defs><g class="layer-above"><g class="imagelayer"/><g class="shapelayer"/></g><g class="infolayer"><g class="g-gtitle"><text class="gtitle" x="35" y="50" text-anchor="start" dy="0em" style="opacity: 1; font-family: 'Open Sans'; font-size: 25px; fill: rgb(255, 255, 255); fill-opacity: 1; white-space: pre;">MultiQC/MultiQC - Issues Created Over Time</text></g><g class="g-xtitle"><text class="xtitle" x="352.5" y="473.9" text-anchor="middle" style="opacity: 1; font-family: 'Open Sans'; font-size: 22px; fill: rgb(255, 255, 255); fill-opacity: 1; white-space: pre;">Date</text></g><g class="g-ytitle" transform="translate(3.3720703125,0)"><text class="ytitle" transform="rotate(-90,20.628124999999997,260)" x="20.628124999999997" y="260" text-anchor="middle" style="opacity: 1; font-family: 'Open Sans'; font-size: 22px; fill: rgb(255, 255, 255); fill-opacity: 1; white-space: pre;">Cumulative Issues Created</text></g></g></svg>