<svg class="main-svg" xmlns="http://www.w3.org/2000/svg" xmlns:xlink="http://www.w3.org/1999/xlink" width="700" height="500" style="" viewBox="0 0 700 500"><rect x="0" y="0" width="700" height="500" style="fill: rgb(0, 0, 0); fill-opacity: 0;"/><defs id="defs-73ed67"><g class="clips"><clipPath id="clip73ed67xyplot" class="plotclip"><rect width="540" height="320"/></clipPath><clipPath class="axesclip" id="clip73ed67x"><rect x="80" y="0" width="540" height="500"/></clipPath><clipPath class="axesclip" id="clip73ed67y"><rect x="0" y="100" width="700" height="320"/></clipPath><clipPath class="axesclip" id="clip73ed67xy"><rect x="80" y="100" width="540" height="320"/></clipPath></g><g class="gradients"/><g class="patterns"/></defs><g class="bglayer"><rect class="bg" x="80" y="100" width="540" height="320" style="fill: rgb(0, 0, 0); fill-opacity: 0; stroke-width: 0;"/></g><g class="layer-below"><g class="imagelayer"/><g class="shapelayer"/></g><g class="cartesianlayer"><g class="subplot xy"><g class="layer-subplot"><g class="shapelayer"/><g class="imagelayer"/></g><g class="minor-gridlayer"><g class="x"/><g class="y"/></g><g class="gridlayer"><g class="x"><path class="xgrid crisp" transform="translate(100.31,0)" d="M0,100v320" style="stroke: rgb(255, 255, 255); stroke-opacity: 1; stroke-width: 1px;"/><path class="xgrid crisp" transform="translate(201.07,0)" d="M0,100v320" style="stroke: rgb(255, 255, 255); stroke-opacity: 1; stroke-width: 1px;"/><path class="xgrid crisp" transform="translate(301.69,0)" d="M0,100v320" style="stroke: rgb(255, 255, 255); stroke-opacity: 1; stroke-width: 1px;"/><path class="xgrid crisp" transform="translate(402.45,0)" d="M0,100v320" style="stroke: rgb(255, 255, 255); stroke-opacity: 1; stroke-width: 1px;"/><path class="xgrid crisp" transform="translate(503.08,0)" d="M0,100v320" style="stroke: rgb(255, 255, 255); stroke-opacity: 1; stroke-width: 1px;"/><path class="xgrid crisp" transform="translate(603.84,0)" d="M0,100v320" style="stroke: rgb(255, 255, 255); stroke-opacity: 1; stroke-width: 1px;"/></g><g class="y"><path class="ygrid crisp" transform="translate(0,338.28)" d="M80,0h540" style="stroke: rgb(255, 255, 255); stroke-opacity: 1; stroke-width: 1px;"/><path class="ygrid crisp" transform="translate(0,256.56)" d="M80,0h540" style="stroke: rgb(255, 255, 255); stroke-opacity: 1; stroke-width: 1px;"/><path class="ygrid crisp" transform="translate(0,174.84)" d="M80,0h540" style="stroke: rgb(255, 255, 255); stroke-opacity: 1; stroke-width: 1px;"/></g></g><g class="zerolinelayer"><path class="yzl zl crisp" transform="translate(0,420)" d="M80,0h540" style="stroke: rgb(255, 255, 255); stroke-opacity: 1; stroke-width: 2px;"/></g><g class="layer-between"><g class="shapelayer"/><g class="imagelayer"/></g><path class="xlines-below"/><path class="ylines-below"/><g class="overlines-below"/><g class="xaxislayer-below"/><g class="yaxislayer-below"/><g class="overaxes-below"/><g class="overplot"><g class="xy" transform="translate(80,100)" clip-path="url(#clip73ed67xyplot)"><g class="scatterlayer mlayer"><g class="trace scatter traceddf61d" style="stroke-miterlimit: 2;"><g class="fills"><g><path class="js-fill" d="M540,320L0,320L0,319.84L0,319.51L1.9,319.35L3.7,318.37L4.39,318.2L4.97,317.06L5.34,316.89L5.92,315.91L6.21,315.75L8.26,312.32L8.65,312.15L9.76,311.17L9.76,311.01L10.61,310.19L11.27,310.03L12.25,307.91L12.25,307.74L12.99,306.76L13.22,306.6L13.65,305.45L14.15,305.29L15.28,304.8L16.47,304.64L17.89,303.49L18.03,303.33L23.15,302.35L23.97,302.18L25.08,301.69L25.62,301.53L26.73,300.22L28.54,300.06L31.42,298.26L32.59,298.1L36.39,295.48L36.4,295.32L36.69,294.5L37.31,294.34L39.42,292.22L39.42,292.05L40.08,291.4L40.37,291.23L42.55,289.27L43.8,289.11L46.03,286.98L46.04,286.82L51.14,284.37L51.78,284.21L52.78,283.23L53.89,283.06L57.91,279.96L59.44,279.79L62.62,276.85L62.72,276.69L62.83,276.36L63.57,276.2L66.08,274.89L66.12,274.73L66.42,274.4L67.15,274.24L68.27,273.91L69.19,273.75L70,272.6L70.38,272.44L76.1,270.48L76.21,270.31L77.74,269.33L78.25,269.17L79.01,268.03L79.21,267.86L81.75,266.72L81.98,266.55L82.01,266.23L82.83,266.06L83.52,265.25L83.78,265.08L84.46,264.59L84.79,264.43L84.79,264.1L85.84,263.94L85.87,263.61L86.69,263.45L90.78,262.14L91.25,261.98L92.31,261.32L92.61,261.16L97.03,259.2L97.04,259.04L98.25,257.89L98.25,257.73L98.97,255.6L99.25,255.44L108.57,250.21L109.82,250.05L112.76,248.9L113.54,248.74L114.95,248.09L115.91,247.92L117.72,246.78L117.75,246.62L122.43,244.33L122.53,244.16L123.42,243.67L123.81,243.51L129.81,239.42L129.98,239.26L134.76,237.63L134.79,237.46L136.14,236.32L136.14,236.15L138.81,234.36L139.07,234.19L141.59,232.89L141.67,232.72L146.24,231.42L146.28,231.25L147.76,230.27L147.79,230.11L155.55,227L155.83,226.84L157.82,225.69L158.2,225.53L161.22,224.39L161.24,224.22L165.06,223.08L165.43,222.92L170.36,220.63L172.27,220.46L174.63,219.16L175.2,218.99L176.43,218.34L177.4,218.18L180.13,216.54L180.13,216.38L184.16,214.09L184.24,213.93L186.59,212.29L186.86,212.13L189.82,210.33L190.96,210.17L191.04,210L192.39,209.84L196.69,208.7L196.93,208.53L200.41,207.39L200.44,207.23L202.61,206.25L204.32,206.08L205.52,205.75L206.33,205.59L209.92,204.12L210.19,203.96L215.91,200.03L215.95,199.87L217.2,198.89L217.22,198.73L219.5,197.26L219.54,197.09L219.66,196.77L220.66,196.6L222.88,195.62L223.01,195.46L223.59,195.13L225.64,194.97L231.18,193.33L231.25,193.17L232.12,192.68L232.42,192.52L234.06,191.54L234.15,191.37L234.84,190.72L235.98,190.55L237.61,189.41L238.16,189.25L238.87,188.43L239.29,188.27L239.97,187.45L240.06,187.29L240.92,186.63L241.17,186.47L242.02,185.65L242.04,185.49L244.9,183.85L245.03,183.69L246.03,182.71L246.44,182.55L249.61,180.75L249.87,180.58L259.52,174.37L260.17,174.21L263.27,172.09L263.54,171.92L263.93,171.6L264.37,171.43L265.03,171.11L266.15,170.94L267.47,170.29L268.89,170.12L269.18,169.63L272.61,169.47L278.85,168L278.86,167.84L282.25,166.2L282.47,166.04L286.41,163.75L287.12,163.59L289.16,162.93L289.58,162.77L291.24,161.46L291.28,161.3L291.97,160.81L293.17,160.65L295.2,158.68L296.21,158.52L297.08,157.05L297.15,156.89L297.81,156.4L298.14,156.23L301,154.43L301.8,154.27L304.71,152.15L306,151.98L307.49,150.68L307.64,150.51L311.5,148.88L312.58,148.71L313.34,148.39L314.14,148.22L314.27,147.9L315.35,147.73L316.09,146.92L316.44,146.75L324.88,144.79L325.16,144.63L327.91,143.48L327.93,143.32L329.16,142.18L329.22,142.01L337.14,139.07L338.21,138.91L346.57,134.17L347.47,134L354.94,131.55L355.68,131.39L364.18,126.98L364.18,126.81L364.18,126.65L365.41,126.49L366.41,126L368.18,125.83L368.62,125.34L369.41,125.18L369.42,125.02L370.51,124.85L370.65,124.69L372.15,124.52L377.14,122.4L377.4,122.24L378.2,121.26L378.22,121.09L379.24,120.44L380.02,120.28L381.98,119.46L382.67,119.29L384.73,117.5L386.12,117.33L386.88,116.52L387.68,116.35L395.18,113.57L395.73,113.41L400.09,111.12L400.12,110.96L403.41,109.82L403.43,109.65L406.18,107.69L406.2,107.53L407.55,106.55L408.07,106.38L408.72,105.4L409.11,105.24L409.83,104.58L410.04,104.42L410.74,102.46L411,102.3L414.7,99.19L415.36,99.03L421.69,94.12L422.5,93.96L425.76,92.98L425.9,92.82L429.05,90.04L429.06,89.88L429.6,87.91L429.94,87.75L431.01,85.14L431.02,84.97L434.34,82.03L434.36,81.87L439.73,77.78L439.74,77.62L442.9,73.69L443.32,73.53L444.62,72.55L444.65,72.39L446.02,71.57L446.41,71.41L449.59,67.65L450.34,67.48L452.42,66.34L452.52,66.18L456.27,62.42L456.33,62.25L457.21,60.95L457.25,60.78L462.7,55.72L462.97,55.55L463.27,55.06L463.96,54.9L464.21,54.25L464.81,54.08L467.94,51.3L467.97,51.14L468.77,50.32L469.51,50.16L471.8,48.52L473.42,48.36L474.28,48.03L474.74,47.87L477.33,46.4L477.48,46.24L478.56,45.58L479.13,45.42L482.12,43.46L482.15,43.29L483.39,42.8L484.52,42.64L485.52,41.66L485.84,41.5L486.86,40.52L487,40.35L487.8,40.03L488.39,39.86L494.69,36.92L494.72,36.76L495.77,35.94L497.57,35.78L499.92,33.49L500.31,33.32L500.62,32.83L501.54,32.67L501.66,32.34L502.66,32.18L506.52,30.38L506.68,30.22L509.15,28.75L509.18,28.58L520.17,24.34L520.21,24.17L521.69,22.86L521.69,22.7L522.12,21.72L522.52,21.56L526.69,20.58L526.84,20.41L530.09,19.43L530.39,19.27L530.73,18.94L532.58,18.78L536.44,17.47L536.99,17.31L540,16" style="fill: rgb(255, 127, 14); fill-opacity: 0.5; stroke-width: 0;"/></g></g><g class="errorbars"/><g class="lines"><path class="js-line" d="M0,319.84L0,319.51L1.9,319.35L3.7,318.37L4.39,318.2L4.97,317.06L5.34,316.89L5.92,315.91L6.21,315.75L8.26,312.32L8.65,312.15L9.76,311.17L9.76,311.01L10.61,310.19L11.27,310.03L12.25,307.91L12.25,307.74L12.99,306.76L13.22,306.6L13.65,305.45L14.15,305.29L15.28,304.8L16.47,304.64L17.89,303.49L18.03,303.33L23.15,302.35L23.97,302.18L25.08,301.69L25.62,301.53L26.73,300.22L28.54,300.06L31.42,298.26L32.59,298.1L36.39,295.48L36.4,295.32L36.69,294.5L37.31,294.34L39.42,292.22L39.42,292.05L40.08,291.4L40.37,291.23L42.55,289.27L43.8,289.11L46.03,286.98L46.04,286.82L51.14,284.37L51.78,284.21L52.78,283.23L53.89,283.06L57.91,279.96L59.44,279.79L62.62,276.85L62.72,276.69L62.83,276.36L63.57,276.2L66.08,274.89L66.12,274.73L66.42,274.4L67.15,274.24L68.27,273.91L69.19,273.75L70,272.6L70.38,272.44L76.1,270.48L76.21,270.31L77.74,269.33L78.25,269.17L79.01,268.03L79.21,267.86L81.75,266.72L81.98,266.55L82.01,266.23L82.83,266.06L83.52,265.25L83.78,265.08L84.46,264.59L84.79,264.43L84.79,264.1L85.84,263.94L85.87,263.61L86.69,263.45L90.78,262.14L91.25,261.98L92.31,261.32L92.61,261.16L97.03,259.2L97.04,259.04L98.25,257.89L98.25,257.73L98.97,255.6L99.25,255.44L108.57,250.21L109.82,250.05L112.76,248.9L113.54,248.74L114.95,248.09L115.91,247.92L117.72,246.78L117.75,246.62L122.43,244.33L122.53,244.16L123.42,243.67L123.81,243.51L129.81,239.42L129.98,239.26L134.76,237.63L134.79,237.46L136.14,236.32L136.14,236.15L138.81,234.36L139.07,234.19L141.59,232.89L141.67,232.72L146.24,231.42L146.28,231.25L147.76,230.27L147.79,230.11L155.55,227L155.83,226.84L157.82,225.69L158.2,225.53L161.22,224.39L161.24,224.22L165.06,223.08L165.43,222.92L170.36,220.63L172.27,220.46L174.63,219.16L175.2,218.99L176.43,218.34L177.4,218.18L180.13,216.54L180.13,216.38L184.16,214.09L184.24,213.93L186.59,212.29L186.86,212.13L189.82,210.33L190.96,210.17L191.04,210L192.39,209.84L196.69,208.7L196.93,208.53L200.41,207.39L200.44,207.23L202.61,206.25L204.32,206.08L205.52,205.75L206.33,205.59L209.92,204.12L210.19,203.96L215.91,200.03L215.95,199.87L217.2,198.89L217.22,198.73L219.5,197.26L219.54,197.09L219.66,196.77L220.66,196.6L222.88,195.62L223.01,195.46L223.59,195.13L225.64,194.97L231.18,193.33L231.25,193.17L232.12,192.68L232.42,192.52L234.06,191.54L234.15,191.37L234.84,190.72L235.98,190.55L237.61,189.41L238.16,189.25L238.87,188.43L239.29,188.27L239.97,187.45L240.06,187.29L240.92,186.63L241.17,186.47L242.02,185.65L242.04,185.49L244.9,183.85L245.03,183.69L246.03,182.71L246.44,182.55L249.61,180.75L249.87,180.58L259.52,174.37L260.17,174.21L263.27,172.09L263.54,171.92L263.93,171.6L264.37,171.43L265.03,171.11L266.15,170.94L267.47,170.29L268.89,170.12L269.18,169.63L272.61,169.47L278.85,168L278.86,167.84L282.25,166.2L282.47,166.04L286.41,163.75L287.12,163.59L289.16,162.93L289.58,162.77L291.24,161.46L291.28,161.3L291.97,160.81L293.17,160.65L295.2,158.68L296.21,158.52L297.08,157.05L297.15,156.89L297.81,156.4L298.14,156.23L301,154.43L301.8,154.27L304.71,152.15L306,151.98L307.49,150.68L307.64,150.51L311.5,148.88L312.58,148.71L313.34,148.39L314.14,148.22L314.27,147.9L315.35,147.73L316.09,146.92L316.44,146.75L324.88,144.79L325.16,144.63L327.91,143.48L327.93,143.32L329.16,142.18L329.22,142.01L337.14,139.07L338.21,138.91L346.57,134.17L347.47,134L354.94,131.55L355.68,131.39L364.18,126.98L364.18,126.81L364.18,126.65L365.41,126.49L366.41,126L368.18,125.83L368.62,125.34L369.41,125.18L369.42,125.02L370.51,124.85L370.65,124.69L372.15,124.52L377.14,122.4L377.4,122.24L378.2,121.26L378.22,121.09L379.24,120.44L380.02,120.28L381.98,119.46L382.67,119.29L384.73,117.5L386.12,117.33L386.88,116.52L387.68,116.35L395.18,113.57L395.73,113.41L400.09,111.12L400.12,110.96L403.41,109.82L403.43,109.65L406.18,107.69L406.2,107.53L407.55,106.55L408.07,106.38L408.72,105.4L409.11,105.24L409.83,104.58L410.04,104.42L410.74,102.46L411,102.3L414.7,99.19L415.36,99.03L421.69,94.12L422.5,93.96L425.76,92.98L425.9,92.82L429.05,90.04L429.06,89.88L429.6,87.91L429.94,87.75L431.01,85.14L431.02,84.97L434.34,82.03L434.36,81.87L439.73,77.78L439.74,77.62L442.9,73.69L443.32,73.53L444.62,72.55L444.65,72.39L446.02,71.57L446.41,71.41L449.59,67.65L450.34,67.48L452.42,66.34L452.52,66.18L456.27,62.42L456.33,62.25L457.21,60.95L457.25,60.78L462.7,55.72L462.97,55.55L463.27,55.06L463.96,54.9L464.21,54.25L464.81,54.08L467.94,51.3L467.97,51.14L468.77,50.32L469.51,50.16L471.8,48.52L473.42,48.36L474.28,48.03L474.74,47.87L477.33,46.4L477.48,46.24L478.56,45.58L479.13,45.42L482.12,43.46L482.15,43.29L483.39,42.8L484.52,42.64L485.52,41.66L485.84,41.5L486.86,40.52L487,40.35L487.8,40.03L488.39,39.86L494.69,36.92L494.72,36.76L495.77,35.94L497.57,35.78L499.92,33.49L500.31,33.32L500.62,32.83L501.54,32.67L501.66,32.34L502.66,32.18L506.52,30.38L506.68,30.22L509.15,28.75L509.18,28.58L520.17,24.34L520.21,24.17L521.69,22.86L521.69,22.7L522.12,21.72L522.52,21.56L526.69,20.58L526.84,20.41L530.09,19.43L530.39,19.27L530.73,18.94L532.58,18.78L536.44,17.47L536.99,17.31L540,16" style="vector-effect: none; fill: none; stroke: rgb(255, 127, 14); stroke-opacity: 1; stroke-width: 2px; opacity: 1;"/></g><g class="points"/><g class="text"/></g></g></g></g><g class="zerolinelayer-above"/><path class="xlines-above crisp" d="M0,0" style="fill: none;"/><path class="ylines-above crisp" d="M0,0" style="fill: none;"/><g class="overlines-above"/><g class="xaxislayer-above"><g class="xtick"><text text-anchor="middle" x="0" y="439" transform="translate(100.31,0)" style="font-family: 'Open Sans'; font-size: 18px; fill: rgb(255, 255, 255); fill-opacity: 1; white-space: pre;">2016</text></g><g class="xtick"><text text-anchor="middle" x="0" y="439" style="font-family: 'Open Sans'; font-size: 18px; fill: rgb(255, 255, 255); fill-opacity: 1; white-space: pre;" transform="translate(201.07,0)">2018</text></g><g class="xtick"><text text-anchor="middle" x="0" y="439" style="font-family: 'Open Sans'; font-size: 18px; fill: rgb(255, 255, 255); fill-opacity: 1; white-space: pre;" transform="translate(301.69,0)">2020</text></g><g class="xtick"><text text-anchor="middle" x="0" y="439" style="font-family: 'Open Sans'; font-size: 18px; fill: rgb(255, 255, 255); fill-opacity: 1; white-space: pre;" transform="translate(402.45,0)">2022</text></g><g class="xtick"><text text-anchor="middle" x="0" y="439" style="font-family: 'Open Sans'; font-size: 18px; fill: rgb(255, 255, 255); fill-opacity: 1; white-space: pre;" transform="translate(503.08,0)">2024</text></g><g class="xtick"><text text-anchor="middle" x="0" y="439" style="font-family: 'Open Sans'; font-size: 18px; fill: rgb(255, 255, 255); fill-opacity: 1; white-space: pre;" transform="translate(603.84,0)">2026</text></g></g><g class="yaxislayer-above"><g class="ytick"><text text-anchor="end" x="79" y="6.3" transform="translate(0,420)" style="font-family: 'Open Sans'; font-size: 18px; fill: rgb(255, 255, 255); fill-opacity: 1; white-space: pre;">0</text></g><g class="ytick"><text text-anchor="end" x="79" y="6.3" style="font-family: 'Open Sans'; font-size: 18px; fill: rgb(255, 255, 255); fill-opacity: 1; white-space: pre;" transform="translate(0,338.28)">500</text></g><g class="ytick"><text text-anchor="end" x="79" y="6.3" style="font-family: 'Open Sans'; font-size: 18px; fill: rgb(255, 255, 255); fill-opacity: 1; white-space: pre;" transform="translate(0,256.56)">1000</text></g><g class="ytick"><text text-anchor="end" x="79" y="6.3" style="font-family: 'Open Sans'; font-size: 18px; fill: rgb(255, 255, 255); fill-opacity: 1; white-space: pre;" transform="translate(0,174.84)">1500</text></g></g><g class="overaxes-above"/></g></g><g class="polarlayer"/><g class="smithlayer"/><g class="ternarylayer"/><g class="geolayer"/><g class="funnelarealayer"/><g class="pielayer"/><g class="iciclelayer"/><g class="treemaplayer"/><g class="sunburstlayer"/><g class="glimages"/><defs id="topdefs-73ed67"><g class="clips"/></defs><g class="layer-above"><g class="imagelayer"/><g class="shapelayer"/></g><g class="infolayer"><g class="g-gtitle"><text class="gtitle" x="35" y="50" text-anchor="start" dy="0em" style="opacity: 1; font-family: 'Open Sans'; font-size: 25px; fill: rgb(255, 255, 255); fill-opacity: 1; white-space: pre;">MultiQC/MultiQC - Issues Created Over Time</text></g><g class="g-xtitle"><text class="xtitle" x="350" y="472.9" text-anchor="middle" style="opacity: 1; font-family: 'Open Sans'; font-size: 22px; fill: rgb(255, 255, 255); fill-opacity: 1; white-space: pre;">Date</text></g><g class="g-ytitle"><text class="ytitle" transform="rotate(-90,20.799999999999997,260)" x="20.799999999999997" y="260" text-anchor="middle" style="opacity: 1; font-family: 'Open Sans'; font-size: 22px; fill: rgb(255, 255, 255); fill-opacity: 1; white-space: pre;">Cumulative Issues Created</text></g></g></svg>