<svg class="main-svg" xmlns="http://www.w3.org/2000/svg" xmlns:xlink="http://www.w3.org/1999/xlink" width="700" height="500" style="" viewBox="0 0 700 500"><rect x="0" y="0" width="700" height="500" style="fill: rgb(0, 0, 0); fill-opacity: 0;"/><defs id="defs-cd779c"><g class="clips"><clipPath id="clipcd779cxyplot" class="plotclip"><rect width="540" height="320"/></clipPath><clipPath class="axesclip" id="clipcd779cx"><rect x="80" y="0" width="540" height="500"/></clipPath><clipPath class="axesclip" id="clipcd779cy"><rect x="0" y="100" width="700" height="320"/></clipPath><clipPath class="axesclip" id="clipcd779cxy"><rect x="80" y="100" width="540" height="320"/></clipPath></g><g class="gradients"/><g class="patterns"/></defs><g class="bglayer"><rect class="bg" x="80" y="100" width="540" height="320" style="fill: rgb(0, 0, 0); fill-opacity: 0; stroke-width: 0;"/></g><g class="layer-below"><g class="imagelayer"/><g class="shapelayer"/></g><g class="cartesianlayer"><g class="subplot xy"><g class="layer-subplot"><g class="shapelayer"/><g class="imagelayer"/></g><g class="minor-gridlayer"><g class="x"/><g class="y"/></g><g class="gridlayer"><g class="x"><path class="xgrid crisp" transform="translate(100.47,0)" d="M0,100v320" style="stroke: rgb(255, 255, 255); stroke-opacity: 1; stroke-width: 1px;"/><path class="xgrid crisp" transform="translate(202.05,0)" d="M0,100v320" style="stroke: rgb(255, 255, 255); stroke-opacity: 1; stroke-width: 1px;"/><path class="xgrid crisp" transform="translate(303.49,0)" d="M0,100v320" style="stroke: rgb(255, 255, 255); stroke-opacity: 1; stroke-width: 1px;"/><path class="xgrid crisp" transform="translate(405.06,0)" d="M0,100v320" style="stroke: rgb(255, 255, 255); stroke-opacity: 1; stroke-width: 1px;"/><path class="xgrid crisp" transform="translate(506.5,0)" d="M0,100v320" style="stroke: rgb(255, 255, 255); stroke-opacity: 1; stroke-width: 1px;"/><path class="xgrid crisp" transform="translate(608.08,0)" d="M0,100v320" style="stroke: rgb(255, 255, 255); stroke-opacity: 1; stroke-width: 1px;"/></g><g class="y"><path class="ygrid crisp" transform="translate(0,360.86)" d="M80,0h540" style="stroke: rgb(255, 255, 255); stroke-opacity: 1; stroke-width: 1px;"/><path class="ygrid crisp" transform="translate(0,301.71000000000004)" d="M80,0h540" style="stroke: rgb(255, 255, 255); stroke-opacity: 1; stroke-width: 1px;"/><path class="ygrid crisp" transform="translate(0,242.57)" d="M80,0h540" style="stroke: rgb(255, 255, 255); stroke-opacity: 1; stroke-width: 1px;"/><path class="ygrid crisp" transform="translate(0,183.42000000000002)" d="M80,0h540" style="stroke: rgb(255, 255, 255); stroke-opacity: 1; stroke-width: 1px;"/><path class="ygrid crisp" transform="translate(0,124.28)" d="M80,0h540" style="stroke: rgb(255, 255, 255); stroke-opacity: 1; stroke-width: 1px;"/></g></g><g class="zerolinelayer"><path class="yzl zl crisp" transform="translate(0,420)" d="M80,0h540" style="stroke: rgb(255, 255, 255); stroke-opacity: 1; stroke-width: 2px;"/></g><g class="layer-between"><g class="shapelayer"/><g class="imagelayer"/></g><path class="xlines-below"/><path class="ylines-below"/><g class="overlines-below"/><g class="xaxislayer-below"/><g class="yaxislayer-below"/><g class="overaxes-below"/><g class="overplot"><g class="xy" transform="translate(80,100)" clip-path="url(#clipcd779cxyplot)"><g class="scatterlayer mlayer"><g class="trace scatter trace2b9bb3" style="stroke-miterlimit: 2;"><g class="fills"><g><path class="js-fill" d="M540,320L0,320L0,318.82L0,316.45L0.55,317.63L1.8,318.82L1.91,317.63L2.91,318.82L3.73,312.9L3.75,314.09L4.42,312.9L4.84,308.17L5.01,309.35L5.37,310.54L5.54,306.99L5.82,311.72L5.96,309.35L6.26,310.54L6.93,299.89L7.04,298.71L7.21,297.53L7.47,299.89L7.47,301.07L7.48,302.26L7.65,292.79L8.33,291.61L8.71,301.07L8.71,302.26L9.43,309.35L9.44,308.17L9.56,306.99L9.87,302.26L9.87,301.07L10.27,299.89L10.3,302.26L10.3,303.44L11.25,306.99L11.36,305.81L11.51,304.62L12.46,288.06L12.5,293.98L12.62,292.79L12.92,296.34L13.1,293.98L13.33,292.79L13.72,286.88L13.87,290.43L14.27,289.25L14.45,288.06L14.58,290.43L15.27,291.61L15.43,295.16L16.6,293.98L17.2,291.61L17.32,290.43L18.04,285.7L18.04,286.88L18.17,285.7L18.61,286.88L21.1,285.7L21.1,286.88L21.5,283.33L21.5,285.7L23,284.51L23.19,285.7L23.34,284.51L24.16,283.33L24.87,280.96L24.98,282.15L25.29,280.96L26.02,289.25L26.08,288.06L26.36,284.51L26.79,286.88L26.81,288.06L26.95,286.88L27.19,288.06L28.34,289.25L29.76,285.7L29.98,286.88L30.02,290.43L30.8,289.25L31.27,292.79L31.68,291.61L31.87,297.53L32.75,298.71L33.44,296.34L33.44,297.53L33.58,298.71L34.45,295.16L34.56,296.34L35.17,297.53L35.53,296.34L35.53,297.53L35.67,291.61L35.95,292.79L36.64,291.61L36.86,288.06L37.05,295.16L37.55,296.34L38.1,299.89L38.32,295.16L38.33,296.34L38.61,295.16L38.61,296.34L38.9,297.53L39.74,291.61L39.86,295.16L40.2,293.98L40.41,291.61L40.56,295.16L40.7,293.98L40.83,295.16L41.79,289.25L41.82,290.43L42.61,286.88L42.9,285.7L43.66,288.06L44.16,286.88L44.46,290.43L44.91,285.7L45.17,286.88L45.24,284.51L45.55,290.43L45.7,291.61L46.26,295.16L46.4,292.79L46.41,291.61L46.51,295.16L46.82,293.98L47.37,295.16L47.37,298.71L47.66,296.34L48.21,297.53L48.59,296.34L48.59,297.53L49.28,296.34L49.28,297.53L49.47,295.16L49.59,295.16L50.41,293.98L51.56,291.61L52.1,292.79L52.1,293.98L52.52,290.43L52.67,292.79L53.11,291.61L53.21,290.43L53.51,293.98L54.33,292.79L55.63,288.06L56.13,286.88L57.34,276.23L57.41,278.6L57.51,279.78L57.51,280.96L58.25,277.42L58.37,276.23L58.39,277.42L59.93,276.23L61.11,269.14L61.22,270.32L62.11,267.95L62.65,266.77L63.34,256.12L63.36,258.49L64.09,257.31L64.73,259.67L64.73,260.86L64.74,266.77L65.04,266.77L65.72,265.59L66.96,262.04L67.69,260.86L67.94,267.95L68.82,266.77L69.9,278.6L70.04,277.42L70.56,276.23L70.56,275.05L70.95,275.05L71.4,276.23L72.46,272.68L72.46,273.87L72.89,272.68L72.92,271.5L72.96,272.68L73.81,271.5L74.57,270.32L75.07,269.14L78.33,259.67L78.33,260.86L78.78,264.4L78.91,260.86L79.3,262.04L79.59,263.22L79.65,259.67L79.85,262.04L80.57,263.22L80.89,257.31L80.9,258.49L82.02,257.31L82.22,258.49L82.41,257.31L82.64,256.12L82.67,254.94L83.37,258.49L83.5,257.31L83.63,258.49L84.2,254.94L84.2,256.12L84.34,257.31L84.74,262.04L85.14,260.86L85.48,259.67L85.48,257.31L85.59,260.86L86.54,259.67L86.54,260.86L86.56,258.49L87.22,260.86L87.39,259.67L88.18,262.04L88.51,260.86L89.07,262.04L89.16,263.22L89.47,267.95L89.99,266.77L90.3,275.05L90.58,272.68L91.04,271.5L92.08,267.95L92.21,269.14L92.21,270.32L94.04,263.22L94.06,264.4L96.12,257.31L96.25,258.49L96.25,259.67L97.13,262.04L97.23,263.22L98.08,273.87L98.38,272.68L98.78,275.05L98.78,273.87L98.88,272.68L98.92,275.05L99.33,263.22L99.34,263.22L99.74,262.04L100.06,259.67L100.32,265.59L100.7,264.4L101.68,262.04L101.68,263.22L101.68,264.4L101.81,266.77L102.24,265.59L102.72,264.4L103.07,267.95L103.2,265.59L103.6,264.4L103.62,265.59L104.17,263.22L104.19,264.4L104.76,263.22L104.87,262.04L104.87,263.22L105.55,264.4L105.55,265.59L106.14,264.4L106.7,263.22L106.93,259.67L107.1,259.67L107.51,258.49L108.85,252.58L108.89,253.76L108.96,254.94L110.99,251.39L111.55,252.58L112.92,249.03L113.38,250.21L113.67,249.03L114.5,277.42L114.6,276.23L115.21,273.87L115.48,275.05L115.88,273.87L115.88,275.05L116.85,273.87L117.25,275.05L117.54,273.87L117.56,272.68L118.23,271.5L118.47,272.68L118.48,275.05L118.7,270.32L119.21,269.14L119.21,270.32L119.63,267.95L119.68,267.95L120.24,266.77L120.24,265.59L120.72,271.5L122.43,270.32L122.64,271.5L122.7,270.32L123.21,269.14L123.64,264.4L124.42,263.22L126.08,258.49L126.45,259.67L126.92,257.31L126.99,258.49L126.99,259.67L127.14,265.59L127.5,263.22L128.03,262.04L128.54,259.67L128.77,260.86L128.77,262.04L129.37,265.59L130.06,264.4L131.03,259.67L131.4,260.86L132.08,259.67L133.13,258.49L134.25,254.94L135.05,256.12L135.05,254.94L135.78,254.94L135.85,256.12L135.85,254.94L136.35,254.94L136.7,253.76L136.71,256.12L137.24,251.39L137.24,251.39L137.68,250.21L137.68,247.84L138.24,249.03L138.59,247.84L139.08,245.48L139.11,244.3L139.19,243.11L139.24,246.66L139.78,245.48L139.8,246.66L140.2,244.3L140.82,245.48L141.21,241.93L141.46,251.39L141.46,252.58L142.02,250.21L142.11,249.03L142.84,251.39L144,250.21L144.64,249.03L144.75,251.39L145.56,250.21L145.57,251.39L146.21,247.84L146.28,249.03L146.83,250.21L148.53,247.84L148.55,249.03L149.63,243.11L150.5,241.93L151.27,239.56L151.27,240.75L151.92,245.48L152.28,244.3L153.45,243.11L153.78,244.3L156.16,238.38L156.3,239.56L156.8,234.83L157.09,233.65L158.38,226.55L159.1,225.37L159.1,226.55L159.48,225.37L160.56,224.19L160.61,223L161.06,227.74L161.49,226.55L162.52,224.19L162.53,223L162.55,221.82L162.75,230.1L164.01,228.92L164.25,226.55L165.33,225.37L166.05,230.1L166.4,228.92L169.25,219.46L169.32,218.27L169.36,219.46L171.08,218.27L171.32,223L171.33,224.19L171.34,227.74L171.74,225.37L173.67,224.19L173.69,226.55L173.84,225.37L174.57,224.19L175.07,219.46L175.08,220.64L175.6,221.82L175.95,223L176.84,218.27L176.9,219.46L177.03,220.64L177.86,219.46L177.86,220.64L178.84,219.46L179.15,218.27L180.4,217.09L181.03,214.72L181.06,213.54L181.59,211.18L181.6,212.36L182.01,211.18L182.04,213.54L182.69,212.36L182.87,211.18L183.54,212.36L183.83,211.18L184.56,209.99L184.74,208.81L185.49,206.44L185.63,205.26L185.81,206.44L185.95,204.08L185.96,205.26L186.75,204.08L188.11,195.8L188.11,198.16L188.37,196.98L188.7,194.61L189.01,195.8L189.52,194.61L189.72,192.25L190.17,194.61L190.43,193.43L190.81,191.07L191.36,189.88L192.51,188.7L192.51,189.88L192.59,188.7L192.62,189.88L193.94,188.7L194.67,189.88L195.39,188.7L195.61,187.52L195.61,188.7L197.44,187.52L198.13,186.33L198.15,187.52L198.15,188.7L198.52,187.52L199.35,188.7L199.35,189.88L200.03,189.88L200.2,188.7L201.16,186.33L201.88,185.15L202.51,181.6L202.88,182.79L204.25,178.05L204.57,179.24L205.97,178.05L207.18,175.69L207.29,176.87L209.77,172.14L210.07,173.32L210.43,169.77L211.16,168.59L211.58,170.96L211.62,169.77L211.89,168.59L212.62,166.23L212.83,167.41L212.87,168.59L212.89,172.14L213.61,168.59L213.67,169.77L214.04,167.41L214.12,174.51L214.51,173.32L214.53,174.51L214.55,173.32L215.26,172.14L215.48,173.32L215.94,169.77L216.07,170.96L216.89,186.33L216.89,185.15L216.95,183.97L217.82,199.35L218.4,198.16L218.56,199.35L218.98,194.61L219.14,196.98L219.41,198.16L220.92,188.7L221.28,187.52L221.44,183.97L221.54,188.7L222.45,187.52L224.42,185.15L224.45,183.97L225.03,178.05L225.4,176.87L225.84,178.05L227.47,176.87L228.6,174.51L228.68,173.32L229.52,172.14L229.93,173.32L230.65,170.96L232.47,169.77L233.05,167.41L233.12,166.23L234,162.68L234.12,163.86L234.31,162.68L235.44,161.49L235.75,157.95L235.77,165.04L235.77,166.23L235.77,167.41L236.32,162.68L236.74,161.49L236.94,162.68L237.89,161.49L238.04,162.68L238.28,161.49L238.86,162.68L238.93,161.49L239.11,166.23L239.53,163.86L239.8,165.04L240.09,163.86L240.11,166.23L240.22,166.23L240.23,167.41L241.66,162.68L241.67,163.86L242.06,160.31L242.19,166.23L242.56,165.04L242.87,163.86L243.01,165.04L243.05,166.23L243.13,165.04L243.43,167.41L243.74,168.59L243.83,166.23L243.87,178.05L243.87,179.24L243.98,176.87L244.81,196.98L244.97,195.8L244.97,196.98L245.63,195.8L245.84,194.61L246.65,191.07L246.74,192.25L248.02,183.97L248.17,185.15L248.44,183.97L249.65,180.42L249.66,181.6L249.8,182.79L250.38,179.24L250.69,178.05L250.88,176.87L251.51,178.05L252.13,172.14L252.58,170.96L253.05,166.23L253.07,167.41L253.59,168.59L254.4,163.86L254.58,162.68L255.82,155.58L256.25,154.4L256.44,153.21L257.47,152.03L258.86,144.93L259.28,143.75L260.42,140.2L260.43,141.39L262.64,133.11L262.66,131.92L263.6,129.56L263.69,130.74L264.57,127.19L264.6,126.01L265.13,123.64L265.18,122.46L267.17,114.18L267.39,115.36L267.4,117.73L268.31,116.54L268.31,117.73L269.01,114.18L269.63,113L269.92,114.18L271.06,113L271.35,109.45L273.76,110.63L273.92,137.84L274.82,136.65L275.98,137.84L276.13,136.65L276.13,135.47L276.22,139.02L276.39,136.65L276.98,137.84L279.84,136.65L280.56,135.47L281.11,131.92L281.12,130.74L281.24,133.11L281.87,130.74L281.92,131.92L282.84,130.74L283.08,131.92L283.61,136.65L283.78,134.29L284,135.47L284,136.65L284.3,134.29L284.75,134.29L284.99,133.11L285.74,130.74L285.82,129.56L286.2,127.19L286.56,128.37L286.56,129.56L286.84,141.39L287.77,140.2L287.94,141.39L288.44,139.02L288.45,140.2L288.45,141.39L289.45,139.02L289.61,140.2L289.72,137.84L290.16,139.02L290.53,140.2L290.99,141.39L291.5,140.2L292.93,135.47L293.24,134.29L293.56,136.65L293.71,131.92L293.83,133.11L293.88,131.92L294.42,133.11L295.55,131.92L295.57,133.11L296.1,130.74L296.44,129.56L296.76,124.82L297.02,126.01L297.39,127.19L297.4,131.92L297.59,129.56L298.61,128.37L299.32,139.02L299.32,137.84L299.43,136.65L299.45,135.47L299.76,146.12L299.9,146.12L300,147.3L300.05,155.58L300.74,153.21L301.08,154.4L301.78,149.67L301.94,150.85L302.61,148.48L303.14,147.3L303.16,148.48L303.44,144.93L304.25,143.75L304.47,144.93L304.48,143.75L305.09,142.57L305.41,146.12L305.51,142.57L305.96,141.39L306.35,137.84L306.98,136.65L307.17,135.47L308.48,134.29L309.14,130.74L309.2,129.56L310.39,122.46L311.36,121.28L314.02,113L315.11,111.81L315.88,109.45L316.68,108.26L316.81,105.9L317.55,107.08L317.9,124.82L318.09,123.64L318.37,124.82L318.65,123.64L318.66,126.01L319.01,124.82L319.63,126.01L320.14,124.82L320.86,126.01L321.97,122.46L322.9,121.28L324.16,120.09L324.5,121.28L324.55,122.46L325.54,121.28L326.05,118.91L326.5,120.09L326.68,118.91L327.1,120.09L327.12,121.28L327.13,122.46L327.79,120.09L328.46,121.28L329.43,154.4L329.71,153.21L329.87,149.67L330.32,154.4L330.47,155.58L331.89,144.93L332.23,143.75L332.35,146.12L332.81,144.93L333.23,143.75L334.2,146.12L334.59,144.93L335.55,143.75L335.56,144.93L336.15,143.75L336.38,142.57L336.71,141.39L337.12,142.57L337.49,141.39L338.07,140.2L338.31,139.02L338.51,136.65L339.6,135.47L339.87,134.29L340.95,133.11L342.52,128.37L342.52,129.56L342.55,130.74L343.49,126.01L344.01,127.19L344.84,122.46L344.85,123.64L345.33,122.46L345.38,123.64L345.99,121.28L345.99,120.09L346.1,117.73L347.38,116.54L348.21,114.18L348.24,113L349.05,110.63L349.38,109.45L350.29,114.18L350.67,113L350.85,111.81L352.34,109.45L352.55,110.63L353.63,108.26L354.18,107.08L355.7,102.35L356.3,101.17L356.66,99.98L356.87,101.17L356.93,102.35L356.95,101.17L357.81,99.98L358.91,97.62L359.02,96.44L359.99,95.25L360,96.44L360.07,113L360.71,109.45L360.96,110.63L361.57,108.26L361.81,107.08L362.54,108.26L363.44,107.08L364.05,103.53L364.16,104.72L364.43,103.53L365.69,101.17L366.52,99.98L367.13,97.62L367.13,96.44L367.13,90.52L368.36,89.34L369.37,85.79L370.85,86.97L370.85,89.34L371.25,85.79L371.6,85.79L372.09,86.97L372.41,84.61L372.66,85.79L373.51,84.61L373.65,83.42L373.65,84.61L374.94,85.79L375.57,84.61L375.62,85.79L375.79,86.97L375.79,88.16L376.39,88.16L376.69,89.34L376.89,102.35L377.85,103.53L378.84,101.17L379.35,99.98L379.48,97.62L379.52,101.17L379.93,102.35L381.11,94.07L381.12,95.25L381.12,94.07L381.15,99.98L381.45,97.62L382,96.44L383.28,92.89L384.38,91.7L385.07,88.16L385.77,86.97L386.13,83.42L386.6,85.79L386.85,84.61L387.85,78.69L387.85,79.88L389.25,78.69L390.01,72.78L390.02,75.14L390.82,73.96L391.14,75.14L391.18,73.96L391.67,72.78L392.22,70.41L392.85,71.6L393.78,68.05L394.4,66.86L395,64.5L395.23,65.68L395.36,66.86L395.66,68.05L395.87,66.86L397.02,68.05L400.59,57.4L401.3,58.58L402.37,55.04L402.45,53.85L402.51,55.04L402.68,50.3L403.28,51.49L403.35,49.12L404.48,47.94L404.63,45.57L404.82,47.94L405.07,49.12L405.46,47.94L405.62,49.12L405.65,50.3L405.92,52.67L406.44,51.49L407.45,44.39L407.5,47.94L408.14,46.75L408.22,45.57L408.43,47.94L408.66,47.94L408.82,49.12L409.59,44.39L409.91,45.57L410.04,49.12L410.53,44.39L410.85,43.21L411.42,40.84L411.42,42.02L411.49,43.21L412.03,38.47L412.12,40.84L412.38,42.02L412.54,39.66L412.68,50.3L412.68,51.49L413.07,57.4L413.36,46.75L413.43,49.12L413.44,50.3L414.04,55.04L414.18,52.67L414.32,51.49L415.83,44.39L415.89,45.57L415.9,46.75L415.94,45.57L416.02,57.4L416.29,55.04L416.41,53.85L417.12,51.49L417.24,52.67L417.82,50.3L417.82,51.49L418.05,50.3L418.45,53.85L418.72,52.67L418.92,51.49L419.09,53.85L419.16,52.67L419.73,51.49L420.35,60.95L420.38,59.77L420.75,58.58L420.82,57.4L421.14,60.95L421.4,59.77L421.74,58.58L422.14,55.04L422.32,57.4L422.84,56.22L423.25,52.67L423.64,55.04L423.65,56.22L424.48,72.78L424.68,71.6L425.1,69.23L425.92,68.05L426.05,71.6L427.01,72.78L428.09,70.41L428.13,69.23L428.28,70.41L428.65,69.23L429.1,68.05L429.55,65.68L429.67,69.23L429.8,68.05L430.04,66.86L430.66,64.5L431.01,65.68L431.62,71.6L431.84,69.23L431.87,68.05L432.31,71.6L432.55,71.6L432.69,70.41L433.08,62.13L433.44,69.23L433.54,68.05L433.81,64.5L433.93,71.6L433.93,72.78L434.51,64.5L434.63,66.86L434.76,65.68L435.11,62.13L435.51,64.5L435.56,63.32L435.75,62.13L435.89,65.68L435.89,66.86L436.2,88.16L436.61,83.42L436.71,84.61L436.71,85.79L437.45,84.61L437.53,83.42L437.68,82.24L437.74,91.7L437.88,89.34L437.98,90.52L438.79,88.16L439.38,86.97L440.18,82.24L440.34,81.06L440.91,76.33L441.19,79.88L441.19,81.06L441.34,78.69L441.61,83.42L441.71,84.61L442.53,83.42L442.65,82.24L443.16,84.61L443.23,82.24L443.23,81.06L444.12,72.78L444.12,75.14L444.2,76.33L444.55,73.96L445.03,72.78L445.04,73.96L445.61,64.5L445.65,66.86L446.43,65.68L446.91,62.13L447.45,63.32L447.58,60.95L447.86,66.86L448.22,65.68L448.24,64.5L448.56,63.32L448.81,65.68L449.1,64.5L449.27,66.86L449.63,64.5L449.97,65.68L450.49,59.77L450.83,62.13L450.89,63.32L451.01,62.13L451.04,65.68L451.47,63.32L451.89,62.13L451.9,60.95L452.43,71.6L452.45,69.23L452.59,68.05L453.8,71.6L453.98,70.41L454.23,72.78L454.69,71.6L454.93,70.41L455.91,75.14L456.04,72.78L456.08,71.6L456.18,69.23L456.72,72.78L456.73,72.78L457.07,71.6L457.31,68.05L457.69,71.6L457.72,72.78L458.03,71.6L458.85,90.52L459.12,89.34L459.2,88.16L459.93,85.79L459.95,84.61L460.78,75.14L460.87,76.33L460.95,73.96L461.05,84.61L461.33,84.61L461.87,83.42L462.54,92.89L462.68,90.52L462.75,89.34L462.83,90.52L463.09,84.61L463.68,85.79L463.92,82.24L463.95,86.97L464.11,85.79L464.57,86.97L464.84,88.16L465.47,83.42L465.76,84.61L465.78,88.16L466.45,85.79L466.58,86.97L467.01,84.61L467.71,83.42L467.97,78.69L468.27,83.42L468.57,82.24L469.66,72.78L470.41,73.96L470.92,85.79L471.32,84.61L471.42,86.97L471.75,79.88L471.92,81.06L472.17,79.88L472.63,86.97L473.32,85.79L473.5,84.61L473.82,86.97L473.82,88.16L474.46,85.79L474.7,98.8L474.79,97.62L474.79,95.25L475.34,102.35L475.62,101.17L475.82,102.35L477.25,101.17L477.83,102.35L478.12,101.17L478.57,102.35L478.58,101.17L479.11,99.98L479.11,98.8L479.37,102.35L479.45,101.17L480.06,99.98L480.27,101.17L480.59,99.98L480.98,98.8L481.06,96.44L481.19,99.98L481.48,98.8L481.99,97.62L482.07,96.44L482.49,101.17L482.49,102.35L483.56,98.8L483.95,99.98L484.19,97.62L484.49,99.98L484.5,101.17L485.08,102.35L485.25,101.17L485.27,99.98L486.02,94.07L486.05,97.62L486.05,98.8L486.2,96.44L487.03,97.62L487.03,96.44L487.3,96.44L488.44,95.25L488.98,91.7L489.22,94.07L489.31,92.89L489.94,88.16L490.13,86.97L490.77,89.34L490.8,86.97L490.94,85.79L491.75,84.61L492.3,85.79L492.32,88.16L492.85,88.16L493.14,86.97L493.14,85.79L493.84,88.16L494.02,86.97L494.12,85.79L495.01,84.61L495.62,85.79L496.04,84.61L496.78,79.88L497.01,78.69L497.03,79.88L497.18,78.69L497.88,77.51L498.14,79.88L498.58,78.69L498.69,79.88L499.09,75.14L499.25,77.51L499.52,78.69L499.78,75.14L501.52,76.33L501.84,72.78L502.47,73.96L502.72,85.79L503.28,84.61L503.4,85.79L503.54,83.42L503.97,84.61L504.36,83.42L504.67,79.88L505.6,78.69L505.72,76.33L506.73,75.14L507.38,72.78L507.48,71.6L507.6,69.23L509,70.41L509.41,88.16L509.69,85.79L509.77,84.61L509.82,86.97L510.55,85.79L511.47,82.24L511.47,83.42L512.18,89.34L512.22,88.16L512.65,86.97L513.27,82.24L513.3,83.42L513.74,82.24L516.17,77.51L516.49,76.33L517.57,72.78L518.47,71.6L518.56,69.23L518.76,70.41L519.39,69.23L520.03,66.86L521.5,65.68L523.03,62.13L523.16,60.95L524.38,55.04L524.39,56.22L524.42,55.04L524.46,58.58L525.02,56.22L525.23,55.04L526.05,46.75L526.19,45.57L526.75,42.02L529.67,40.84L531.11,33.74L532.91,32.56L532.92,31.38L533.86,30.19L533.88,31.38L534.38,27.83L534.69,26.65L535.03,24.28L536.89,23.1L538.71,20.73L538.87,19.55L539.82,17.18L539.88,16L540,17.18" style="fill: rgb(255, 127, 14); fill-opacity: 0.5; stroke-width: 0;"/></g></g><g class="errorbars"/><g class="lines"><path class="js-line" d="M0,318.82L0,316.45L0.55,317.63L1.8,318.82L1.91,317.63L2.91,318.82L3.73,312.9L3.75,314.09L4.42,312.9L4.84,308.17L5.01,309.35L5.37,310.54L5.54,306.99L5.82,311.72L5.96,309.35L6.26,310.54L6.93,299.89L7.04,298.71L7.21,297.53L7.47,299.89L7.47,301.07L7.48,302.26L7.65,292.79L8.33,291.61L8.71,301.07L8.71,302.26L9.43,309.35L9.44,308.17L9.56,306.99L9.87,302.26L9.87,301.07L10.27,299.89L10.3,302.26L10.3,303.44L11.25,306.99L11.36,305.81L11.51,304.62L12.46,288.06L12.5,293.98L12.62,292.79L12.92,296.34L13.1,293.98L13.33,292.79L13.72,286.88L13.87,290.43L14.27,289.25L14.45,288.06L14.58,290.43L15.27,291.61L15.43,295.16L16.6,293.98L17.2,291.61L17.32,290.43L18.04,285.7L18.04,286.88L18.17,285.7L18.61,286.88L21.1,285.7L21.1,286.88L21.5,283.33L21.5,285.7L23,284.51L23.19,285.7L23.34,284.51L24.16,283.33L24.87,280.96L24.98,282.15L25.29,280.96L26.02,289.25L26.08,288.06L26.36,284.51L26.79,286.88L26.81,288.06L26.95,286.88L27.19,288.06L28.34,289.25L29.76,285.7L29.98,286.88L30.02,290.43L30.8,289.25L31.27,292.79L31.68,291.61L31.87,297.53L32.75,298.71L33.44,296.34L33.44,297.53L33.58,298.71L34.45,295.16L34.56,296.34L35.17,297.53L35.53,296.34L35.53,297.53L35.67,291.61L35.95,292.79L36.64,291.61L36.86,288.06L37.05,295.16L37.55,296.34L38.1,299.89L38.32,295.16L38.33,296.34L38.61,295.16L38.61,296.34L38.9,297.53L39.74,291.61L39.86,295.16L40.2,293.98L40.41,291.61L40.56,295.16L40.7,293.98L40.83,295.16L41.79,289.25L41.82,290.43L42.61,286.88L42.9,285.7L43.66,288.06L44.16,286.88L44.46,290.43L44.91,285.7L45.17,286.88L45.24,284.51L45.55,290.43L45.7,291.61L46.26,295.16L46.4,292.79L46.41,291.61L46.51,295.16L46.82,293.98L47.37,295.16L47.37,298.71L47.66,296.34L48.21,297.53L48.59,296.34L48.59,297.53L49.28,296.34L49.28,297.53L49.47,295.16L49.59,295.16L50.41,293.98L51.56,291.61L52.1,292.79L52.1,293.98L52.52,290.43L52.67,292.79L53.11,291.61L53.21,290.43L53.51,293.98L54.33,292.79L55.63,288.06L56.13,286.88L57.34,276.23L57.41,278.6L57.51,279.78L57.51,280.96L58.25,277.42L58.37,276.23L58.39,277.42L59.93,276.23L61.11,269.14L61.22,270.32L62.11,267.95L62.65,266.77L63.34,256.12L63.36,258.49L64.09,257.31L64.73,259.67L64.73,260.86L64.74,266.77L65.04,266.77L65.72,265.59L66.96,262.04L67.69,260.86L67.94,267.95L68.82,266.77L69.9,278.6L70.04,277.42L70.56,276.23L70.56,275.05L70.95,275.05L71.4,276.23L72.46,272.68L72.46,273.87L72.89,272.68L72.92,271.5L72.96,272.68L73.81,271.5L74.57,270.32L75.07,269.14L78.33,259.67L78.33,260.86L78.78,264.4L78.91,260.86L79.3,262.04L79.59,263.22L79.65,259.67L79.85,262.04L80.57,263.22L80.89,257.31L80.9,258.49L82.02,257.31L82.22,258.49L82.41,257.31L82.64,256.12L82.67,254.94L83.37,258.49L83.5,257.31L83.63,258.49L84.2,254.94L84.2,256.12L84.34,257.31L84.74,262.04L85.14,260.86L85.48,259.67L85.48,257.31L85.59,260.86L86.54,259.67L86.54,260.86L86.56,258.49L87.22,260.86L87.39,259.67L88.18,262.04L88.51,260.86L89.07,262.04L89.16,263.22L89.47,267.95L89.99,266.77L90.3,275.05L90.58,272.68L91.04,271.5L92.08,267.95L92.21,269.14L92.21,270.32L94.04,263.22L94.06,264.4L96.12,257.31L96.25,258.49L96.25,259.67L97.13,262.04L97.23,263.22L98.08,273.87L98.38,272.68L98.78,275.05L98.78,273.87L98.88,272.68L98.92,275.05L99.33,263.22L99.34,263.22L99.74,262.04L100.06,259.67L100.32,265.59L100.7,264.4L101.68,262.04L101.68,263.22L101.68,264.4L101.81,266.77L102.24,265.59L102.72,264.4L103.07,267.95L103.2,265.59L103.6,264.4L103.62,265.59L104.17,263.22L104.19,264.4L104.76,263.22L104.87,262.04L104.87,263.22L105.55,264.4L105.55,265.59L106.14,264.4L106.7,263.22L106.93,259.67L107.1,259.67L107.51,258.49L108.85,252.58L108.89,253.76L108.96,254.94L110.99,251.39L111.55,252.58L112.92,249.03L113.38,250.21L113.67,249.03L114.5,277.42L114.6,276.23L115.21,273.87L115.48,275.05L115.88,273.87L115.88,275.05L116.85,273.87L117.25,275.05L117.54,273.87L117.56,272.68L118.23,271.5L118.47,272.68L118.48,275.05L118.7,270.32L119.21,269.14L119.21,270.32L119.63,267.95L119.68,267.95L120.24,266.77L120.24,265.59L120.72,271.5L122.43,270.32L122.64,271.5L122.7,270.32L123.21,269.14L123.64,264.4L124.42,263.22L126.08,258.49L126.45,259.67L126.92,257.31L126.99,258.49L126.99,259.67L127.14,265.59L127.5,263.22L128.03,262.04L128.54,259.67L128.77,260.86L128.77,262.04L129.37,265.59L130.06,264.4L131.03,259.67L131.4,260.86L132.08,259.67L133.13,258.49L134.25,254.94L135.05,256.12L135.05,254.94L135.78,254.94L135.85,256.12L135.85,254.94L136.35,254.94L136.7,253.76L136.71,256.12L137.24,251.39L137.24,251.39L137.68,250.21L137.68,247.84L138.24,249.03L138.59,247.84L139.08,245.48L139.11,244.3L139.19,243.11L139.24,246.66L139.78,245.48L139.8,246.66L140.2,244.3L140.82,245.48L141.21,241.93L141.46,251.39L141.46,252.58L142.02,250.21L142.11,249.03L142.84,251.39L144,250.21L144.64,249.03L144.75,251.39L145.56,250.21L145.57,251.39L146.21,247.84L146.28,249.03L146.83,250.21L148.53,247.84L148.55,249.03L149.63,243.11L150.5,241.93L151.27,239.56L151.27,240.75L151.92,245.48L152.28,244.3L153.45,243.11L153.78,244.3L156.16,238.38L156.3,239.56L156.8,234.83L157.09,233.65L158.38,226.55L159.1,225.37L159.1,226.55L159.48,225.37L160.56,224.19L160.61,223L161.06,227.74L161.49,226.55L162.52,224.19L162.53,223L162.55,221.82L162.75,230.1L164.01,228.92L164.25,226.55L165.33,225.37L166.05,230.1L166.4,228.92L169.25,219.46L169.32,218.27L169.36,219.46L171.08,218.27L171.32,223L171.33,224.19L171.34,227.74L171.74,225.37L173.67,224.19L173.69,226.55L173.84,225.37L174.57,224.19L175.07,219.46L175.08,220.64L175.6,221.82L175.95,223L176.84,218.27L176.9,219.46L177.03,220.64L177.86,219.46L177.86,220.64L178.84,219.46L179.15,218.27L180.4,217.09L181.03,214.72L181.06,213.54L181.59,211.18L181.6,212.36L182.01,211.18L182.04,213.54L182.69,212.36L182.87,211.18L183.54,212.36L183.83,211.18L184.56,209.99L184.74,208.81L185.49,206.44L185.63,205.26L185.81,206.44L185.95,204.08L185.96,205.26L186.75,204.08L188.11,195.8L188.11,198.16L188.37,196.98L188.7,194.61L189.01,195.8L189.52,194.61L189.72,192.25L190.17,194.61L190.43,193.43L190.81,191.07L191.36,189.88L192.51,188.7L192.51,189.88L192.59,188.7L192.62,189.88L193.94,188.7L194.67,189.88L195.39,188.7L195.61,187.52L195.61,188.7L197.44,187.52L198.13,186.33L198.15,187.52L198.15,188.7L198.52,187.52L199.35,188.7L199.35,189.88L200.03,189.88L200.2,188.7L201.16,186.33L201.88,185.15L202.51,181.6L202.88,182.79L204.25,178.05L204.57,179.24L205.97,178.05L207.18,175.69L207.29,176.87L209.77,172.14L210.07,173.32L210.43,169.77L211.16,168.59L211.58,170.96L211.62,169.77L211.89,168.59L212.62,166.23L212.83,167.41L212.87,168.59L212.89,172.14L213.61,168.59L213.67,169.77L214.04,167.41L214.12,174.51L214.51,173.32L214.53,174.51L214.55,173.32L215.26,172.14L215.48,173.32L215.94,169.77L216.07,170.96L216.89,186.33L216.89,185.15L216.95,183.97L217.82,199.35L218.4,198.16L218.56,199.35L218.98,194.61L219.14,196.98L219.41,198.16L220.92,188.7L221.28,187.52L221.44,183.97L221.54,188.7L222.45,187.52L224.42,185.15L224.45,183.97L225.03,178.05L225.4,176.87L225.84,178.05L227.47,176.87L228.6,174.51L228.68,173.32L229.52,172.14L229.93,173.32L230.65,170.96L232.47,169.77L233.05,167.41L233.12,166.23L234,162.68L234.12,163.86L234.31,162.68L235.44,161.49L235.75,157.95L235.77,165.04L235.77,166.23L235.77,167.41L236.32,162.68L236.74,161.49L236.94,162.68L237.89,161.49L238.04,162.68L238.28,161.49L238.86,162.68L238.93,161.49L239.11,166.23L239.53,163.86L239.8,165.04L240.09,163.86L240.11,166.23L240.22,166.23L240.23,167.41L241.66,162.68L241.67,163.86L242.06,160.31L242.19,166.23L242.56,165.04L242.87,163.86L243.01,165.04L243.05,166.23L243.13,165.04L243.43,167.41L243.74,168.59L243.83,166.23L243.87,178.05L243.87,179.24L243.98,176.87L244.81,196.98L244.97,195.8L244.97,196.98L245.63,195.8L245.84,194.61L246.65,191.07L246.74,192.25L248.02,183.97L248.17,185.15L248.44,183.97L249.65,180.42L249.66,181.6L249.8,182.79L250.38,179.24L250.69,178.05L250.88,176.87L251.51,178.05L252.13,172.14L252.58,170.96L253.05,166.23L253.07,167.41L253.59,168.59L254.4,163.86L254.58,162.68L255.82,155.58L256.25,154.4L256.44,153.21L257.47,152.03L258.86,144.93L259.28,143.75L260.42,140.2L260.43,141.39L262.64,133.11L262.66,131.92L263.6,129.56L263.69,130.74L264.57,127.19L264.6,126.01L265.13,123.64L265.18,122.46L267.17,114.18L267.39,115.36L267.4,117.73L268.31,116.54L268.31,117.73L269.01,114.18L269.63,113L269.92,114.18L271.06,113L271.35,109.45L273.76,110.63L273.92,137.84L274.82,136.65L275.98,137.84L276.13,136.65L276.13,135.47L276.22,139.02L276.39,136.65L276.98,137.84L279.84,136.65L280.56,135.47L281.11,131.92L281.12,130.74L281.24,133.11L281.87,130.74L281.92,131.92L282.84,130.74L283.08,131.92L283.61,136.65L283.78,134.29L284,135.47L284,136.65L284.3,134.29L284.75,134.29L284.99,133.11L285.74,130.74L285.82,129.56L286.2,127.19L286.56,128.37L286.56,129.56L286.84,141.39L287.77,140.2L287.94,141.39L288.44,139.02L288.45,140.2L288.45,141.39L289.45,139.02L289.61,140.2L289.72,137.84L290.16,139.02L290.53,140.2L290.99,141.39L291.5,140.2L292.93,135.47L293.24,134.29L293.56,136.65L293.71,131.92L293.83,133.11L293.88,131.92L294.42,133.11L295.55,131.92L295.57,133.11L296.1,130.74L296.44,129.56L296.76,124.82L297.02,126.01L297.39,127.19L297.4,131.92L297.59,129.56L298.61,128.37L299.32,139.02L299.32,137.84L299.43,136.65L299.45,135.47L299.76,146.12L299.9,146.12L300,147.3L300.05,155.58L300.74,153.21L301.08,154.4L301.78,149.67L301.94,150.85L302.61,148.48L303.14,147.3L303.16,148.48L303.44,144.93L304.25,143.75L304.47,144.93L304.48,143.75L305.09,142.57L305.41,146.12L305.51,142.57L305.96,141.39L306.35,137.84L306.98,136.65L307.17,135.47L308.48,134.29L309.14,130.74L309.2,129.56L310.39,122.46L311.36,121.28L314.02,113L315.11,111.81L315.88,109.45L316.68,108.26L316.81,105.9L317.55,107.08L317.9,124.82L318.09,123.64L318.37,124.82L318.65,123.64L318.66,126.01L319.01,124.82L319.63,126.01L320.14,124.82L320.86,126.01L321.97,122.46L322.9,121.28L324.16,120.09L324.5,121.28L324.55,122.46L325.54,121.28L326.05,118.91L326.5,120.09L326.68,118.91L327.1,120.09L327.12,121.28L327.13,122.46L327.79,120.09L328.46,121.28L329.43,154.4L329.71,153.21L329.87,149.67L330.32,154.4L330.47,155.58L331.89,144.93L332.23,143.75L332.35,146.12L332.81,144.93L333.23,143.75L334.2,146.12L334.59,144.93L335.55,143.75L335.56,144.93L336.15,143.75L336.38,142.57L336.71,141.39L337.12,142.57L337.49,141.39L338.07,140.2L338.31,139.02L338.51,136.65L339.6,135.47L339.87,134.29L340.95,133.11L342.52,128.37L342.52,129.56L342.55,130.74L343.49,126.01L344.01,127.19L344.84,122.46L344.85,123.64L345.33,122.46L345.38,123.64L345.99,121.28L345.99,120.09L346.1,117.73L347.38,116.54L348.21,114.18L348.24,113L349.05,110.63L349.38,109.45L350.29,114.18L350.67,113L350.85,111.81L352.34,109.45L352.55,110.63L353.63,108.26L354.18,107.08L355.7,102.35L356.3,101.17L356.66,99.98L356.87,101.17L356.93,102.35L356.95,101.17L357.81,99.98L358.91,97.62L359.02,96.44L359.99,95.25L360,96.44L360.07,113L360.71,109.45L360.96,110.63L361.57,108.26L361.81,107.08L362.54,108.26L363.44,107.08L364.05,103.53L364.16,104.72L364.43,103.53L365.69,101.17L366.52,99.98L367.13,97.62L367.13,96.44L367.13,90.52L368.36,89.34L369.37,85.79L370.85,86.97L370.85,89.34L371.25,85.79L371.6,85.79L372.09,86.97L372.41,84.61L372.66,85.79L373.51,84.61L373.65,83.42L373.65,84.61L374.94,85.79L375.57,84.61L375.62,85.79L375.79,86.97L375.79,88.16L376.39,88.16L376.69,89.34L376.89,102.35L377.85,103.53L378.84,101.17L379.35,99.98L379.48,97.62L379.52,101.17L379.93,102.35L381.11,94.07L381.12,95.25L381.12,94.07L381.15,99.98L381.45,97.62L382,96.44L383.28,92.89L384.38,91.7L385.07,88.16L385.77,86.97L386.13,83.42L386.6,85.79L386.85,84.61L387.85,78.69L387.85,79.88L389.25,78.69L390.01,72.78L390.02,75.14L390.82,73.96L391.14,75.14L391.18,73.96L391.67,72.78L392.22,70.41L392.85,71.6L393.78,68.05L394.4,66.86L395,64.5L395.23,65.68L395.36,66.86L395.66,68.05L395.87,66.86L397.02,68.05L400.59,57.4L401.3,58.58L402.37,55.04L402.45,53.85L402.51,55.04L402.68,50.3L403.28,51.49L403.35,49.12L404.48,47.94L404.63,45.57L404.82,47.94L405.07,49.12L405.46,47.94L405.62,49.12L405.65,50.3L405.92,52.67L406.44,51.49L407.45,44.39L407.5,47.94L408.14,46.75L408.22,45.57L408.43,47.94L408.66,47.94L408.82,49.12L409.59,44.39L409.91,45.57L410.04,49.12L410.53,44.39L410.85,43.21L411.42,40.84L411.42,42.02L411.49,43.21L412.03,38.47L412.12,40.84L412.38,42.02L412.54,39.66L412.68,50.3L412.68,51.49L413.07,57.4L413.36,46.75L413.43,49.12L413.44,50.3L414.04,55.04L414.18,52.67L414.32,51.49L415.83,44.39L415.89,45.57L415.9,46.75L415.94,45.57L416.02,57.4L416.29,55.04L416.41,53.85L417.12,51.49L417.24,52.67L417.82,50.3L417.82,51.49L418.05,50.3L418.45,53.85L418.72,52.67L418.92,51.49L419.09,53.85L419.16,52.67L419.73,51.49L420.35,60.95L420.38,59.77L420.75,58.58L420.82,57.4L421.14,60.95L421.4,59.77L421.74,58.58L422.14,55.04L422.32,57.4L422.84,56.22L423.25,52.67L423.64,55.04L423.65,56.22L424.48,72.78L424.68,71.6L425.1,69.23L425.92,68.05L426.05,71.6L427.01,72.78L428.09,70.41L428.13,69.23L428.28,70.41L428.65,69.23L429.1,68.05L429.55,65.68L429.67,69.23L429.8,68.05L430.04,66.86L430.66,64.5L431.01,65.68L431.62,71.6L431.84,69.23L431.87,68.05L432.31,71.6L432.55,71.6L432.69,70.41L433.08,62.13L433.44,69.23L433.54,68.05L433.81,64.5L433.93,71.6L433.93,72.78L434.51,64.5L434.63,66.86L434.76,65.68L435.11,62.13L435.51,64.5L435.56,63.32L435.75,62.13L435.89,65.68L435.89,66.86L436.2,88.16L436.61,83.42L436.71,84.61L436.71,85.79L437.45,84.61L437.53,83.42L437.68,82.24L437.74,91.7L437.88,89.34L437.98,90.52L438.79,88.16L439.38,86.97L440.18,82.24L440.34,81.06L440.91,76.33L441.19,79.88L441.19,81.06L441.34,78.69L441.61,83.42L441.71,84.61L442.53,83.42L442.65,82.24L443.16,84.61L443.23,82.24L443.23,81.06L444.12,72.78L444.12,75.14L444.2,76.33L444.55,73.96L445.03,72.78L445.04,73.96L445.61,64.5L445.65,66.86L446.43,65.68L446.91,62.13L447.45,63.32L447.58,60.95L447.86,66.86L448.22,65.68L448.24,64.5L448.56,63.32L448.81,65.68L449.1,64.5L449.27,66.86L449.63,64.5L449.97,65.68L450.49,59.77L450.83,62.13L450.89,63.32L451.01,62.13L451.04,65.68L451.47,63.32L451.89,62.13L451.9,60.95L452.43,71.6L452.45,69.23L452.59,68.05L453.8,71.6L453.98,70.41L454.23,72.78L454.69,71.6L454.93,70.41L455.91,75.14L456.04,72.78L456.08,71.6L456.18,69.23L456.72,72.78L456.73,72.78L457.07,71.6L457.31,68.05L457.69,71.6L457.72,72.78L458.03,71.6L458.85,90.52L459.12,89.34L459.2,88.16L459.93,85.79L459.95,84.61L460.78,75.14L460.87,76.33L460.95,73.96L461.05,84.61L461.33,84.61L461.87,83.42L462.54,92.89L462.68,90.52L462.75,89.34L462.83,90.52L463.09,84.61L463.68,85.79L463.92,82.24L463.95,86.97L464.11,85.79L464.57,86.97L464.84,88.16L465.47,83.42L465.76,84.61L465.78,88.16L466.45,85.79L466.58,86.97L467.01,84.61L467.71,83.42L467.97,78.69L468.27,83.42L468.57,82.24L469.66,72.78L470.41,73.96L470.92,85.79L471.32,84.61L471.42,86.97L471.75,79.88L471.92,81.06L472.17,79.88L472.63,86.97L473.32,85.79L473.5,84.61L473.82,86.97L473.82,88.16L474.46,85.79L474.7,98.8L474.79,97.62L474.79,95.25L475.34,102.35L475.62,101.17L475.82,102.35L477.25,101.17L477.83,102.35L478.12,101.17L478.57,102.35L478.58,101.17L479.11,99.98L479.11,98.8L479.37,102.35L479.45,101.17L480.06,99.98L480.27,101.17L480.59,99.98L480.98,98.8L481.06,96.44L481.19,99.98L481.48,98.8L481.99,97.62L482.07,96.44L482.49,101.17L482.49,102.35L483.56,98.8L483.95,99.98L484.19,97.62L484.49,99.98L484.5,101.17L485.08,102.35L485.25,101.17L485.27,99.98L486.02,94.07L486.05,97.62L486.05,98.8L486.2,96.44L487.03,97.62L487.03,96.44L487.3,96.44L488.44,95.25L488.98,91.7L489.22,94.07L489.31,92.89L489.94,88.16L490.13,86.97L490.77,89.34L490.8,86.97L490.94,85.79L491.75,84.61L492.3,85.79L492.32,88.16L492.85,88.16L493.14,86.97L493.14,85.79L493.84,88.16L494.02,86.97L494.12,85.79L495.01,84.61L495.62,85.79L496.04,84.61L496.78,79.88L497.01,78.69L497.03,79.88L497.18,78.69L497.88,77.51L498.14,79.88L498.58,78.69L498.69,79.88L499.09,75.14L499.25,77.51L499.52,78.69L499.78,75.14L501.52,76.33L501.84,72.78L502.47,73.96L502.72,85.79L503.28,84.61L503.4,85.79L503.54,83.42L503.97,84.61L504.36,83.42L504.67,79.88L505.6,78.69L505.72,76.33L506.73,75.14L507.38,72.78L507.48,71.6L507.6,69.23L509,70.41L509.41,88.16L509.69,85.79L509.77,84.61L509.82,86.97L510.55,85.79L511.47,82.24L511.47,83.42L512.18,89.34L512.22,88.16L512.65,86.97L513.27,82.24L513.3,83.42L513.74,82.24L516.17,77.51L516.49,76.33L517.57,72.78L518.47,71.6L518.56,69.23L518.76,70.41L519.39,69.23L520.03,66.86L521.5,65.68L523.03,62.13L523.16,60.95L524.38,55.04L524.39,56.22L524.42,55.04L524.46,58.58L525.02,56.22L525.23,55.04L526.05,46.75L526.19,45.57L526.75,42.02L529.67,40.84L531.11,33.74L532.91,32.56L532.92,31.38L533.86,30.19L533.88,31.38L534.38,27.83L534.69,26.65L535.03,24.28L536.89,23.1L538.71,20.73L538.87,19.55L539.82,17.18L539.88,16L540,17.18" style="vector-effect: none; fill: none; stroke: rgb(255, 127, 14); stroke-opacity: 1; stroke-width: 2px; opacity: 1;"/></g><g class="points"/><g class="text"/></g></g></g></g><g class="zerolinelayer-above"/><path class="xlines-above crisp" d="M0,0" style="fill: none;"/><path class="ylines-above crisp" d="M0,0" style="fill: none;"/><g class="overlines-above"/><g class="xaxislayer-above"><g class="xtick"><text text-anchor="middle" x="0" y="439" transform="translate(100.47,0)" style="font-family: 'Open Sans'; font-size: 18px; fill: rgb(255, 255, 255); fill-opacity: 1; white-space: pre;">2016</text></g><g class="xtick"><text text-anchor="middle" x="0" y="439" style="font-family: 'Open Sans'; font-size: 18px; fill: rgb(255, 255, 255); fill-opacity: 1; white-space: pre;" transform="translate(202.05,0)">2018</text></g><g class="xtick"><text text-anchor="middle" x="0" y="439" style="font-family: 'Open Sans'; font-size: 18px; fill: rgb(255, 255, 255); fill-opacity: 1; white-space: pre;" transform="translate(303.49,0)">2020</text></g><g class="xtick"><text text-anchor="middle" x="0" y="439" style="font-family: 'Open Sans'; font-size: 18px; fill: rgb(255, 255, 255); fill-opacity: 1; white-space: pre;" transform="translate(405.06,0)">2022</text></g><g class="xtick"><text text-anchor="middle" x="0" y="439" style="font-family: 'Open Sans'; font-size: 18px; fill: rgb(255, 255, 255); fill-opacity: 1; white-space: pre;" transform="translate(506.5,0)">2024</text></g><g class="xtick"><text text-anchor="middle" x="0" y="439" style="font-family: 'Open Sans'; font-size: 18px; fill: rgb(255, 255, 255); fill-opacity: 1; white-space: pre;" transform="translate(608.08,0)">2026</text></g></g><g class="yaxislayer-above"><g class="ytick"><text text-anchor="end" x="79" y="6.3" transform="translate(0,420)" style="font-family: 'Open Sans'; font-size: 18px; fill: rgb(255, 255, 255); fill-opacity: 1; white-space: pre;">0</text></g><g class="ytick"><text text-anchor="end" x="79" y="6.3" style="font-family: 'Open Sans'; font-size: 18px; fill: rgb(255, 255, 255); fill-opacity: 1; white-space: pre;" transform="translate(0,360.86)">50</text></g><g class="ytick"><text text-anchor="end" x="79" y="6.3" style="font-family: 'Open Sans'; font-size: 18px; fill: rgb(255, 255, 255); fill-opacity: 1; white-space: pre;" transform="translate(0,301.71000000000004)">100</text></g><g class="ytick"><text text-anchor="end" x="79" y="6.3" style="font-family: 'Open Sans'; font-size: 18px; fill: rgb(255, 255, 255); fill-opacity: 1; white-space: pre;" transform="translate(0,242.57)">150</text></g><g class="ytick"><text text-anchor="end" x="79" y="6.3" style="font-family: 'Open Sans'; font-size: 18px; fill: rgb(255, 255, 255); fill-opacity: 1; white-space: pre;" transform="translate(0,183.42000000000002)">200</text></g><g class="ytick"><text text-anchor="end" x="79" y="6.3" style="font-family: 'Open Sans'; font-size: 18px; fill: rgb(255, 255, 255); fill-opacity: 1; white-space: pre;" transform="translate(0,124.28)">250</text></g></g><g class="overaxes-above"/></g></g><g class="polarlayer"/><g class="smithlayer"/><g class="ternarylayer"/><g class="geolayer"/><g class="funnelarealayer"/><g class="pielayer"/><g class="iciclelayer"/><g class="treemaplayer"/><g class="sunburstlayer"/><g class="glimages"/><defs id="topdefs-cd779c"><g class="clips"/></defs><g class="layer-above"><g class="imagelayer"/><g class="shapelayer"/></g><g class="infolayer"><g class="g-gtitle"><text class="gtitle" x="35" y="50" text-anchor="start" dy="0em" style="opacity: 1; font-family: 'Open Sans'; font-size: 25px; fill: rgb(255, 255, 255); fill-opacity: 1; white-space: pre;">MultiQC/MultiQC - Open Issues Over Time</text></g><g class="g-xtitle"><text class="xtitle" x="350" y="472.9" text-anchor="middle" style="opacity: 1; font-family: 'Open Sans'; font-size: 22px; fill: rgb(255, 255, 255); fill-opacity: 1; white-space: pre;">Date</text></g><g class="g-ytitle"><text class="ytitle" transform="rotate(-90,29.799999999999997,260)" x="29.799999999999997" y="260" text-anchor="middle" style="opacity: 1; font-family: 'Open Sans'; font-size: 22px; fill: rgb(255, 255, 255); fill-opacity: 1; white-space: pre;">Number of Open Issues</text></g></g></svg>