<svg class="main-svg" xmlns="http://www.w3.org/2000/svg" xmlns:xlink="http://www.w3.org/1999/xlink" width="700" height="500" style="" viewBox="0 0 700 500"><rect x="0" y="0" width="700" height="500" style="fill: rgb(0, 0, 0); fill-opacity: 0;"/><defs id="defs-266568"><g class="clips"><clipPath id="clip266568xyplot" class="plotclip"><rect width="540" height="320"/></clipPath><clipPath class="axesclip" id="clip266568x"><rect x="80" y="0" width="540" height="500"/></clipPath><clipPath class="axesclip" id="clip266568y"><rect x="0" y="100" width="700" height="320"/></clipPath><clipPath class="axesclip" id="clip266568xy"><rect x="80" y="100" width="540" height="320"/></clipPath></g><g class="gradients"/><g class="patterns"/></defs><g class="bglayer"><rect class="bg" x="80" y="100" width="540" height="320" style="fill: rgb(0, 0, 0); fill-opacity: 0; stroke-width: 0;"/></g><g class="layer-below"><g class="imagelayer"/><g class="shapelayer"/></g><g class="cartesianlayer"><g class="subplot xy"><g class="layer-subplot"><g class="shapelayer"/><g class="imagelayer"/></g><g class="minor-gridlayer"><g class="x"/><g class="y"/></g><g class="gridlayer"><g class="x"><path class="xgrid crisp" transform="translate(101.08,0)" d="M0,100v320" style="stroke: rgb(255, 255, 255); stroke-opacity: 1; stroke-width: 1px;"/><path class="xgrid crisp" transform="translate(205.66,0)" d="M0,100v320" style="stroke: rgb(255, 255, 255); stroke-opacity: 1; stroke-width: 1px;"/><path class="xgrid crisp" transform="translate(310.11,0)" d="M0,100v320" style="stroke: rgb(255, 255, 255); stroke-opacity: 1; stroke-width: 1px;"/><path class="xgrid crisp" transform="translate(414.69,0)" d="M0,100v320" style="stroke: rgb(255, 255, 255); stroke-opacity: 1; stroke-width: 1px;"/><path class="xgrid crisp" transform="translate(519.14,0)" d="M0,100v320" style="stroke: rgb(255, 255, 255); stroke-opacity: 1; stroke-width: 1px;"/></g><g class="y"><path class="ygrid crisp" transform="translate(0,356.13)" d="M80,0h540" style="stroke: rgb(255, 255, 255); stroke-opacity: 1; stroke-width: 1px;"/><path class="ygrid crisp" transform="translate(0,292.27)" d="M80,0h540" style="stroke: rgb(255, 255, 255); stroke-opacity: 1; stroke-width: 1px;"/><path class="ygrid crisp" transform="translate(0,228.4)" d="M80,0h540" style="stroke: rgb(255, 255, 255); stroke-opacity: 1; stroke-width: 1px;"/><path class="ygrid crisp" transform="translate(0,164.54000000000002)" d="M80,0h540" style="stroke: rgb(255, 255, 255); stroke-opacity: 1; stroke-width: 1px;"/></g></g><g class="zerolinelayer"><path class="yzl zl crisp" transform="translate(0,420)" d="M80,0h540" style="stroke: rgb(255, 255, 255); stroke-opacity: 1; stroke-width: 2px;"/></g><g class="layer-between"><g class="shapelayer"/><g class="imagelayer"/></g><path class="xlines-below"/><path class="ylines-below"/><g class="overlines-below"/><g class="xaxislayer-below"/><g class="yaxislayer-below"/><g class="overaxes-below"/><g class="overplot"><g class="xy" transform="translate(80,100)" clip-path="url(#clip266568xyplot)"><g class="scatterlayer mlayer"><g class="trace scatter traced18b99" style="stroke-miterlimit: 2;"><g class="fills"><g><path class="js-fill" d="M540,320L0,320L0,318.72L0,316.17L0.57,317.45L1.85,318.72L1.97,317.45L3,318.72L3.84,312.34L3.86,313.61L4.55,312.34L4.98,307.23L5.15,308.5L5.53,309.78L5.7,305.95L6,311.06L6.14,308.5L6.45,309.78L7.13,298.29L7.25,297.01L7.42,295.73L7.69,298.29L7.69,299.56L7.7,300.84L7.87,290.62L8.57,289.34L8.97,298.29L8.97,299.56L9.71,308.5L9.72,307.23L9.84,305.95L10.13,302.12L10.13,300.84L10.58,298.29L10.61,302.12L11,303.39L11.02,302.12L11.59,305.95L11.7,304.67L11.85,303.39L12.83,285.51L12.87,291.9L12.87,293.18L12.99,290.62L13.3,294.45L13.49,291.9L13.72,290.62L14.13,284.24L14.28,288.07L14.69,286.79L14.88,285.51L15.01,288.07L15.72,289.34L15.89,293.18L17.1,291.9L17.71,289.34L17.84,288.07L18.57,282.96L18.58,284.24L18.71,282.96L19.16,284.24L21.72,282.96L21.73,284.24L22.14,280.4L22.14,282.96L23.69,281.68L23.88,282.96L24.03,281.68L24.88,280.4L25.61,277.85L25.72,279.13L26.04,277.85L26.79,286.79L26.86,285.51L27.14,281.68L27.58,284.24L27.6,285.51L27.75,284.24L28,285.51L29.18,286.79L30.64,282.96L30.86,284.24L30.9,288.07L30.9,288.07L31.71,286.79L32.19,290.62L32.62,289.34L32.81,295.73L33.72,297.01L34.43,294.45L34.43,295.73L34.58,297.01L35.18,294.45L35.47,293.18L36.21,295.73L36.59,294.45L36.59,295.73L36.73,289.34L37.02,290.62L37.72,289.34L37.96,285.51L38.15,293.18L38.66,294.45L38.73,293.18L39.17,297.01L39.23,298.29L39.46,293.18L39.75,294.45L40.06,295.73L40.92,289.34L41.04,293.18L41.39,291.9L41.6,289.34L41.62,291.9L41.76,293.18L43.18,285.51L43.87,284.24L44.17,282.96L44.79,284.24L45.47,285.51L45.76,284.24L45.78,288.07L46.24,282.96L46.51,284.24L46.58,281.68L46.9,288.07L47.05,289.34L47.63,293.18L47.78,290.62L47.79,289.34L47.89,293.18L48.21,291.9L48.77,293.18L48.78,297.01L49.07,294.45L49.64,295.73L50.03,294.45L50.03,295.73L50.74,294.45L50.74,295.73L50.93,293.18L51.06,293.18L51.9,291.9L53.08,289.34L53.64,290.62L53.64,291.9L54.08,288.07L54.24,290.62L54.69,289.34L54.79,288.07L55.1,291.9L55.94,290.62L57.28,285.51L57.79,284.24L59.04,272.74L59.11,275.29L59.21,276.57L59.21,277.85L59.81,275.29L59.98,274.02L60.1,272.74L60.12,274.02L61.7,272.74L62.23,266.35L62.75,267.63L63.24,265.08L63.35,266.35L63.81,265.08L65.22,251.03L65.24,253.58L65.99,252.3L66.65,254.86L66.65,256.13L66.66,262.52L66.96,262.52L67.67,261.24L68.94,257.41L69.7,256.13L69.95,263.8L70.86,262.52L71.97,275.29L72.12,274.02L72.65,272.74L72.65,271.46L73.05,271.46L73.51,272.74L74.6,268.91L74.61,270.18L75.08,267.63L75.13,268.91L75.99,267.63L76.78,266.35L77.3,265.08L80.65,254.86L80.65,256.13L81.11,259.97L81.25,256.13L81.65,257.41L81.94,258.69L82.01,254.86L82.22,257.41L82.96,258.69L83.29,252.3L83.3,253.58L84.45,252.3L84.66,253.58L84.85,252.3L85.09,251.03L85.12,249.75L85.84,253.58L85.97,252.3L86.11,253.58L86.69,249.75L86.7,251.03L86.84,252.3L87.25,257.41L87.66,256.13L88.01,254.86L88.01,252.3L88.12,256.13L89.1,254.86L89.1,256.13L89.13,253.58L89.8,256.13L89.98,254.86L90.79,257.41L91.13,256.13L91.71,257.41L91.8,258.69L92.12,263.8L92.66,262.52L92.97,271.46L93.26,268.91L93.74,267.63L94.81,263.8L94.94,265.08L94.95,266.35L96.83,258.69L96.84,259.97L98.96,252.3L99.1,253.58L99.1,254.86L100.01,257.41L100.11,258.69L100.98,270.18L101.29,268.91L101.71,271.46L101.71,270.18L101.8,268.91L101.85,271.46L102.27,258.69L102.28,258.69L102.7,257.41L103.02,254.86L103.29,261.24L103.69,259.97L104.69,257.41L104.7,258.69L104.7,259.97L104.82,262.52L105.27,261.24L105.76,259.97L106.12,263.8L106.25,261.24L106.67,259.97L106.69,261.24L107.25,258.69L107.27,259.97L107.87,258.69L107.98,257.41L107.98,258.69L108.67,259.97L109.02,261.24L109.28,259.97L109.86,258.69L110.09,254.86L110.27,254.86L110.7,253.58L112.07,247.19L112.11,248.47L112.19,249.75L114.28,245.92L114.85,247.19L116.27,243.36L116.74,244.64L117.04,243.36L117.89,274.02L118,272.74L118.62,270.18L118.9,271.46L119.32,270.18L119.32,271.46L120.31,270.18L120.72,271.46L121.03,270.18L121.04,268.91L121.73,267.63L121.98,268.91L121.99,271.46L122.22,266.35L122.74,265.08L122.75,266.35L123.17,263.8L123.23,263.8L123.8,262.52L123.8,261.24L124.29,267.63L126.06,266.35L126.28,267.63L126.33,266.35L126.86,265.08L127.3,259.97L128.1,258.69L129.82,253.58L130.2,254.86L130.68,252.3L130.75,253.58L130.75,254.86L130.91,261.24L131.28,258.69L131.82,257.41L132.34,254.86L132.59,256.13L133.2,261.24L133.92,259.97L134.91,254.86L135.3,256.13L135.99,254.86L137.08,253.58L138.23,249.75L139.05,251.03L139.8,249.75L139.87,251.03L140.39,249.75L140.75,248.47L140.76,251.03L141.31,245.92L141.31,245.92L141.76,244.64L141.76,242.08L142.33,243.36L142.69,242.08L143.2,239.53L143.24,238.25L143.31,236.97L143.36,240.81L143.92,239.53L143.94,240.81L144.35,238.25L144.99,239.53L145.39,235.7L145.65,244.64L145.65,245.92L145.65,247.19L146.32,243.36L146.39,243.36L146.78,244.64L147.05,243.36L147.07,245.92L148.26,244.64L148.93,243.36L149.04,245.92L149.87,244.64L149.89,245.92L150.54,242.08L150.61,243.36L151.18,244.64L151.79,243.36L151.8,244.64L151.83,243.36L152.93,242.08L152.95,243.36L153.12,239.53L153.4,239.53L153.91,238.25L155.21,233.14L155.74,234.42L155.75,233.14L156.42,239.53L156.79,238.25L158,236.97L158.34,238.25L160.78,231.87L160.93,233.14L161.45,228.03L161.75,226.76L163.07,219.09L163.81,217.82L163.81,219.09L164.21,217.82L165.31,216.54L165.37,215.26L165.83,220.37L166.27,219.09L167.34,216.54L167.34,215.26L167.36,213.98L167.57,222.92L168.87,221.65L169.11,219.09L170.23,217.82L170.97,222.92L171.33,221.65L174.26,211.43L174.33,210.15L174.38,211.43L176.15,210.15L176.39,215.26L176.4,216.54L176.41,220.37L176.83,217.82L178.81,216.54L178.83,219.09L178.99,217.82L179.74,216.54L180.26,211.43L180.27,212.71L180.8,213.98L181.16,215.26L182.08,210.15L182.14,211.43L182.27,212.71L183.12,211.43L183.13,212.71L186.29,207.6L186.39,206.32L186.97,202.49L186.98,203.76L187.41,202.49L187.43,205.04L188.1,203.76L188.28,202.49L188.98,203.76L189.28,202.49L190.03,201.21L190.22,199.93L190.99,197.38L191.13,196.1L191.31,197.38L191.46,194.82L191.47,196.1L192.28,194.82L193.68,185.88L193.68,188.44L193.95,187.16L194.29,184.61L194.6,185.88L195.13,184.61L195.34,182.05L195.8,184.61L196.08,183.33L196.46,180.77L197.03,179.5L198.21,178.22L198.21,179.5L198.29,178.22L198.32,179.5L199.69,178.22L200.44,179.5L201.18,178.22L201.41,176.94L201.41,178.22L203.29,176.94L204,175.66L204.02,176.94L204.02,178.22L204.41,176.94L205.26,178.22L205.26,179.5L205.96,179.5L206.14,178.22L207.12,175.66L207.86,174.39L208.51,170.55L208.89,171.83L210.3,166.72L210.63,168L212.08,166.72L212.3,165.45L213.32,164.17L213.43,165.45L214.16,164.17L215.99,160.34L216.29,161.61L216.66,157.78L217.41,156.5L217.85,159.06L217.89,157.78L218.17,156.5L218.92,153.95L219.14,155.23L219.18,156.5L219.2,160.34L219.92,157.78L219.94,156.5L220.38,155.23L220.88,162.89L220.9,161.61L221.64,160.34L221.86,161.61L222.34,157.78L222.47,159.06L223.31,175.66L223.32,174.39L223.38,173.11L224.27,189.71L224.87,188.44L225.04,189.71L225.47,184.61L225.47,185.88L225.63,187.16L225.91,188.44L226.07,185.88L226.19,184.61L227.17,179.5L227.47,178.22L227.95,174.39L228,173.11L228.1,178.22L229.04,176.94L231.07,174.39L231.1,173.11L231.7,166.72L232.07,165.45L232.53,166.72L234.21,165.45L235.38,162.89L235.45,161.61L236.32,160.34L236.74,161.61L237.48,159.06L239.36,157.78L239.95,155.23L240.03,153.95L240.19,151.39L240.93,150.12L241.06,151.39L241.25,150.12L242.42,148.84L242.74,145.01L242.76,152.67L242.76,153.95L242.76,155.23L243.32,150.12L243.76,148.84L243.96,150.12L244.94,148.84L245.1,150.12L245.34,148.84L245.94,150.12L246.01,148.84L246.19,153.95L246.63,151.39L246.9,152.67L247.21,151.39L247.23,153.95L247.33,153.95L247.34,155.23L248.37,151.39L248.82,150.12L249.23,147.56L249.35,153.95L249.37,153.95L249.75,152.67L250.06,151.39L250.21,152.67L250.25,153.95L250.33,152.67L250.64,155.23L250.96,156.5L251.05,153.95L251.08,164.17L251.09,165.45L251.62,185.88L251.77,184.61L251.9,185.88L252.35,187.16L252.91,185.88L253.95,180.77L254.04,182.05L255.37,173.11L255.52,174.39L255.8,173.11L257.05,169.28L257.06,170.55L257.2,171.83L257.8,168L258.11,166.72L258.31,165.45L258.96,166.72L259.6,160.34L260.06,159.06L260.55,153.95L260.56,155.23L261.1,156.5L261.93,151.39L262.12,150.12L263.4,142.45L263.84,141.18L264.04,139.9L265.1,138.62L266.53,130.96L266.96,129.68L267.96,125.85L268,127.13L269.37,120.74L270.04,119.46L272.05,113.08L272.06,114.35L275.09,97.75L275.31,99.03L275.32,101.58L276.26,100.3L276.26,101.58L276.98,97.75L277.62,96.47L277.92,97.75L279.09,96.47L279.39,92.64L281.87,93.92L282.04,123.29L282.96,122.02L284.16,123.29L284.31,122.02L284.31,120.74L284.4,124.57L284.58,122.02L285.19,123.29L288.13,122.02L288.87,120.74L289.44,116.91L289.45,115.63L289.57,118.18L290.1,116.91L290.22,115.63L290.27,116.91L291.22,115.63L292.42,122.02L292.53,120.74L292.75,122.02L293.44,116.91L294.11,115.63L294.15,116.91L294.68,111.8L295.04,113.08L295.34,127.13L296.3,125.85L296.47,127.13L296.99,124.57L297,125.85L297,127.13L298.02,124.57L298.19,125.85L298.3,123.29L298.76,124.57L299.14,125.85L299.61,127.13L300.13,125.85L301.61,120.74L301.93,119.46L302.26,122.02L302.41,116.91L302.53,118.18L302.59,116.91L303.15,118.18L304.3,116.91L304.32,118.18L304.87,115.63L305.22,114.35L305.55,109.24L305.82,110.52L306.2,111.8L306.21,116.91L306.41,114.35L307.46,113.08L308.19,124.57L308.19,123.29L308.3,122.02L308.32,120.74L308.64,132.24L308.79,132.24L308.89,133.51L308.94,142.45L309.45,141.18L309.65,139.9L310,141.18L310.03,139.9L310.33,138.62L311,136.07L311.57,134.79L312.29,133.51L312.36,132.24L312.43,130.96L313.26,129.68L313.49,130.96L313.5,129.68L314.13,128.4L314.45,132.24L314.56,128.4L315.03,127.13L315.42,123.29L316.07,122.02L316.27,120.74L317.62,119.46L318.3,115.63L318.36,114.35L319.59,106.69L320.58,105.41L323.32,96.47L324.44,95.19L325.23,92.64L326.06,91.36L326.2,88.81L326.95,90.08L327.32,109.24L327.52,107.97L327.8,109.24L328.09,107.97L328.1,110.52L328.46,109.24L329.1,110.52L329.62,109.24L330.36,110.52L331.5,106.69L332.47,105.41L333.77,104.13L334.11,105.41L334.16,106.69L335.18,105.41L335.71,102.86L336.18,104.13L336.36,102.86L336.79,104.13L336.82,105.41L336.82,106.69L337.5,104.13L338.19,105.41L339.19,141.18L339.48,139.9L339.64,136.07L340.1,141.18L340.26,142.45L341.72,130.96L342.07,129.68L342.2,132.24L342.67,130.96L343.1,129.68L344.1,132.24L344.5,130.96L345.49,129.68L345.5,130.96L346.11,129.68L346.34,128.4L346.69,127.13L347.1,128.4L347.48,127.13L348.08,125.85L348.33,124.57L348.54,122.02L349.66,120.74L349.94,119.46L351.05,118.18L352.67,113.08L352.67,114.35L352.7,115.63L353.67,110.52L354.2,111.8L355.06,106.69L355.06,107.97L355.56,106.69L355.61,107.97L356.24,105.41L356.24,104.13L356.35,101.58L357.67,100.3L358.53,97.75L358.56,96.47L359.39,93.92L359.73,92.64L360.67,97.75L361.06,96.47L361.24,95.19L362.78,92.64L362.99,93.92L364.1,91.36L364.67,90.08L366.24,84.97L366.86,83.7L367.23,82.42L367.45,83.7L367.51,84.97L367.52,83.7L368.41,82.42L369.54,79.87L369.66,78.59L370.65,77.31L370.67,78.59L370.74,96.47L371.39,92.64L371.65,93.92L372.28,91.36L372.53,90.08L373.28,91.36L374.2,90.08L374.83,86.25L374.94,87.53L375.23,86.25L376.52,83.7L377.37,82.42L378,79.87L378,78.59L378,72.2L379.28,70.92L380.31,67.09L381.83,68.37L381.83,70.92L382.25,67.09L382.25,68.37L382.61,67.09L383.11,68.37L383.43,67.09L383.44,65.82L383.7,67.09L384.58,65.82L384.72,64.54L384.72,65.82L386.05,67.09L386.69,65.82L386.75,67.09L386.92,68.37L386.92,69.65L387.54,69.65L387.85,70.92L388.05,84.97L389.04,86.25L390.07,83.7L390.59,82.42L390.72,79.87L390.76,83.7L391.18,84.97L392.4,76.03L392.41,77.31L392.41,76.03L392.44,82.42L392.75,79.87L393.31,78.59L394.63,74.76L395.77,73.48L396.48,69.65L397.19,68.37L397.57,64.54L398.05,67.09L398.31,65.82L399.34,59.43L399.34,60.71L400.78,59.43L401.56,53.04L401.57,54.32L401.57,55.6L402.39,54.32L402.72,55.6L402.77,54.32L403.28,53.04L403.84,50.49L404.49,51.76L405.45,47.93L406.09,46.66L406.71,44.1L406.93,45.38L407.07,46.66L407.38,47.93L407.59,46.66L408.78,47.93L411.18,38.99L411.46,37.71L412.46,36.44L413.19,37.71L414.29,33.88L414.37,32.61L414.44,33.88L414.6,28.77L415.23,30.05L415.3,27.5L416.46,26.22L416.62,23.66L416.81,26.22L417.07,27.5L417.47,26.22L417.64,27.5L417.67,28.77L417.94,31.33L418.48,30.05L419.52,22.39L419.53,24.94L419.57,26.22L420.31,23.66L420.32,24.94L420.52,26.22L420.93,27.5L421.18,24.94L421.45,23.66L421.61,24.94L421.73,22.39L422.05,24.94L422.09,26.22L422.19,27.5L422.62,23.66L422.69,22.39L423.74,18.55L423.74,17.28L424.23,16L424.31,17.28L424.33,18.55L424.65,17.28L424.87,21.11L424.88,22.39L425.31,36.44L425.61,24.94L425.68,26.22L426.3,33.88L426.33,30.05L426.45,31.33L428.15,22.39L428.21,23.66L428.35,36.44L428.75,31.33L429.04,30.05L429.08,32.61L429.61,30.05L430.2,28.77L430.84,32.61L431.12,31.33L431.35,30.05L431.5,32.61L431.58,31.33L432.16,30.05L432.81,40.27L432.83,38.99L433.22,37.71L433.29,36.44L433.61,40.27L433.88,38.99L434.23,37.71L434.65,33.88L434.83,36.44L435.37,35.16L435.79,31.33L436.19,32.61L436.19,33.88L437.05,53.04L437.26,51.76L437.69,49.21L438.54,47.93L438.67,51.76L439.66,53.04L440.77,50.49L440.81,49.21L440.97,50.49L441.35,49.21L441.81,47.93L442.27,45.38L442.39,49.21L442.53,47.93L442.77,46.66L443.42,44.1L443.78,45.38L444.4,51.76L444.63,49.21L444.66,47.93L445.37,51.76L445.51,50.49L445.9,41.55L446.28,49.21L446.38,47.93L446.67,44.1L446.78,50.49L446.78,51.76L446.79,53.04L447.38,44.1L447.5,45.38L447.51,46.66L448,41.55L448.22,42.82L448.41,44.1L448.66,41.55L448.83,50.49L448.83,51.76L449.12,69.65L449.55,64.54L449.64,65.82L449.65,67.09L450.41,65.82L450.65,63.26L450.69,72.2L450.7,73.48L451.13,70.92L451.23,72.2L451.63,70.92L451.68,72.2L451.78,69.65L452.4,68.37L453.04,64.54L453.22,63.26L453.97,56.87L454.23,59.43L454.26,60.71L454.42,59.43L454.79,65.82L455.38,64.54L455.5,65.82L455.77,63.26L455.94,64.54L456.29,65.82L456.95,55.6L457.25,54.32L457.27,53.04L457.36,56.87L457.71,54.32L458.21,53.04L458.22,54.32L458.81,44.1L458.85,46.66L459.65,45.38L460.14,41.55L460.71,42.82L460.84,40.27L461.12,46.66L461.5,45.38L461.52,44.1L461.84,42.82L462.11,45.38L462.4,44.1L462.58,46.66L462.95,44.1L463.3,45.38L463.83,38.99L464.19,41.55L464.24,42.82L464.37,41.55L464.4,45.38L464.84,42.82L465.28,41.55L465.29,40.27L465.83,51.76L465.85,49.21L466,47.93L467.24,51.76L467.43,50.49L467.69,53.04L468.15,51.76L468.41,50.49L469.41,55.6L469.55,53.04L469.59,51.76L469.7,49.21L470.25,53.04L470.26,53.04L470.61,51.76L470.86,47.93L471.25,51.76L471.28,53.04L471.6,51.76L472.44,72.2L472.72,70.92L472.81,69.65L473.55,67.09L473.57,65.82L474.43,55.6L474.53,56.87L474.6,54.32L474.71,65.82L475,64.54L475,65.82L475.56,64.54L475.58,65.82L475.85,67.09L476.24,74.76L476.54,72.2L476.68,70.92L476.81,65.82L477.42,67.09L477.44,65.82L477.67,63.26L477.7,68.37L477.86,67.09L478.33,68.37L478.61,69.65L479.25,64.54L479.56,65.82L479.58,69.65L480.27,67.09L480.4,68.37L480.85,65.82L481.57,64.54L481.83,59.43L482.14,64.54L482.45,63.26L483.58,53.04L484.35,54.32L484.87,67.09L485.29,65.82L485.38,68.37L485.73,60.71L485.9,61.98L486.16,60.71L486.63,68.37L487.34,67.09L487.53,65.82L487.86,68.37L487.86,69.65L488.51,67.09L488.76,81.14L488.86,79.87L488.86,77.31L489.42,84.97L489.71,83.7L489.92,84.97L491.39,83.7L491.99,84.97L492.29,83.7L492.74,84.97L492.76,83.7L493.31,82.42L493.31,81.14L493.57,84.97L493.65,83.7L494.28,82.42L494.5,83.7L494.83,82.42L495.23,81.14L495.31,78.59L495.45,82.42L495.74,81.14L496.27,79.87L496.35,78.59L496.78,83.7L496.78,84.97L497.89,81.14L498.28,82.42L498.54,79.87L498.84,81.14L498.85,82.42L498.89,84.97L499.44,84.97L499.62,83.7L500.42,76.03L500.44,78.59L500.45,79.87L500.45,81.14L500.6,78.59L501.46,79.87L501.46,78.59L501.74,78.59L502.91,77.31L503.46,73.48L503.71,76.03L503.81,74.76L504.46,69.65L504.65,68.37L505.31,70.92L505.34,68.37L505.49,67.09L506.31,65.82L506.88,67.09L507.45,69.65L507.75,68.37L507.75,67.09L508.46,69.65L508.66,68.37L508.75,67.09L509.67,65.82L510.3,67.09L510.74,65.82L511.5,60.71L511.73,59.43L511.75,60.71L511.9,59.43L512.63,58.15L512.89,60.71L513.35,59.43L513.46,60.71L513.88,55.6L514.04,58.15L514.32,59.43L514.59,55.6L516.38,56.87L516.71,53.04L517.35,54.32L517.61,67.09L518.06,63.26L518.19,64.54L518.31,67.09L518.9,65.82L519.31,64.54L519.62,60.71L520.58,59.43L520.7,56.87L521.74,55.6L522.41,53.04L522.51,51.76L522.64,49.21L524.07,50.49L524.5,69.65L524.79,67.09L524.87,65.82L524.93,68.37L525.67,67.09L526.62,63.26L526.62,64.54L527.35,70.92L527.4,69.65L527.83,68.37L528.47,63.26L528.51,64.54L528.96,63.26L531.46,58.15L531.79,56.87L532.43,54.32L532.9,53.04L533.87,50.49L533.93,49.21L534.13,50.49L534.77,49.21L535.44,46.66L536.95,45.38L538.19,42.82L538.53,41.55L539.92,33.88L539.92,35.16L539.95,33.88L540,37.71" style="fill: rgb(255, 127, 14); fill-opacity: 0.5; stroke-width: 0;"/></g></g><g class="errorbars"/><g class="lines"><path class="js-line" d="M0,318.72L0,316.17L0.57,317.45L1.85,318.72L1.97,317.45L3,318.72L3.84,312.34L3.86,313.61L4.55,312.34L4.98,307.23L5.15,308.5L5.53,309.78L5.7,305.95L6,311.06L6.14,308.5L6.45,309.78L7.13,298.29L7.25,297.01L7.42,295.73L7.69,298.29L7.69,299.56L7.7,300.84L7.87,290.62L8.57,289.34L8.97,298.29L8.97,299.56L9.71,308.5L9.72,307.23L9.84,305.95L10.13,302.12L10.13,300.84L10.58,298.29L10.61,302.12L11,303.39L11.02,302.12L11.59,305.95L11.7,304.67L11.85,303.39L12.83,285.51L12.87,291.9L12.87,293.18L12.99,290.62L13.3,294.45L13.49,291.9L13.72,290.62L14.13,284.24L14.28,288.07L14.69,286.79L14.88,285.51L15.01,288.07L15.72,289.34L15.89,293.18L17.1,291.9L17.71,289.34L17.84,288.07L18.57,282.96L18.58,284.24L18.71,282.96L19.16,284.24L21.72,282.96L21.73,284.24L22.14,280.4L22.14,282.96L23.69,281.68L23.88,282.96L24.03,281.68L24.88,280.4L25.61,277.85L25.72,279.13L26.04,277.85L26.79,286.79L26.86,285.51L27.14,281.68L27.58,284.24L27.6,285.51L27.75,284.24L28,285.51L29.18,286.79L30.64,282.96L30.86,284.24L30.9,288.07L30.9,288.07L31.71,286.79L32.19,290.62L32.62,289.34L32.81,295.73L33.72,297.01L34.43,294.45L34.43,295.73L34.58,297.01L35.18,294.45L35.47,293.18L36.21,295.73L36.59,294.45L36.59,295.73L36.73,289.34L37.02,290.62L37.72,289.34L37.96,285.51L38.15,293.18L38.66,294.45L38.73,293.18L39.17,297.01L39.23,298.29L39.46,293.18L39.75,294.45L40.06,295.73L40.92,289.34L41.04,293.18L41.39,291.9L41.6,289.34L41.62,291.9L41.76,293.18L43.18,285.51L43.87,284.24L44.17,282.96L44.79,284.24L45.47,285.51L45.76,284.24L45.78,288.07L46.24,282.96L46.51,284.24L46.58,281.68L46.9,288.07L47.05,289.34L47.63,293.18L47.78,290.62L47.79,289.34L47.89,293.18L48.21,291.9L48.77,293.18L48.78,297.01L49.07,294.45L49.64,295.73L50.03,294.45L50.03,295.73L50.74,294.45L50.74,295.73L50.93,293.18L51.06,293.18L51.9,291.9L53.08,289.34L53.64,290.62L53.64,291.9L54.08,288.07L54.24,290.62L54.69,289.34L54.79,288.07L55.1,291.9L55.94,290.62L57.28,285.51L57.79,284.24L59.04,272.74L59.11,275.29L59.21,276.57L59.21,277.85L59.81,275.29L59.98,274.02L60.1,272.74L60.12,274.02L61.7,272.74L62.23,266.35L62.75,267.63L63.24,265.08L63.35,266.35L63.81,265.08L65.22,251.03L65.24,253.58L65.99,252.3L66.65,254.86L66.65,256.13L66.66,262.52L66.96,262.52L67.67,261.24L68.94,257.41L69.7,256.13L69.95,263.8L70.86,262.52L71.97,275.29L72.12,274.02L72.65,272.74L72.65,271.46L73.05,271.46L73.51,272.74L74.6,268.91L74.61,270.18L75.08,267.63L75.13,268.91L75.99,267.63L76.78,266.35L77.3,265.08L80.65,254.86L80.65,256.13L81.11,259.97L81.25,256.13L81.65,257.41L81.94,258.69L82.01,254.86L82.22,257.41L82.96,258.69L83.29,252.3L83.3,253.58L84.45,252.3L84.66,253.58L84.85,252.3L85.09,251.03L85.12,249.75L85.84,253.58L85.97,252.3L86.11,253.58L86.69,249.75L86.7,251.03L86.84,252.3L87.25,257.41L87.66,256.13L88.01,254.86L88.01,252.3L88.12,256.13L89.1,254.86L89.1,256.13L89.13,253.58L89.8,256.13L89.98,254.86L90.79,257.41L91.13,256.13L91.71,257.41L91.8,258.69L92.12,263.8L92.66,262.52L92.97,271.46L93.26,268.91L93.74,267.63L94.81,263.8L94.94,265.08L94.95,266.35L96.83,258.69L96.84,259.97L98.96,252.3L99.1,253.58L99.1,254.86L100.01,257.41L100.11,258.69L100.98,270.18L101.29,268.91L101.71,271.46L101.71,270.18L101.8,268.91L101.85,271.46L102.27,258.69L102.28,258.69L102.7,257.41L103.02,254.86L103.29,261.24L103.69,259.97L104.69,257.41L104.7,258.69L104.7,259.97L104.82,262.52L105.27,261.24L105.76,259.97L106.12,263.8L106.25,261.24L106.67,259.97L106.69,261.24L107.25,258.69L107.27,259.97L107.87,258.69L107.98,257.41L107.98,258.69L108.67,259.97L109.02,261.24L109.28,259.97L109.86,258.69L110.09,254.86L110.27,254.86L110.7,253.58L112.07,247.19L112.11,248.47L112.19,249.75L114.28,245.92L114.85,247.19L116.27,243.36L116.74,244.64L117.04,243.36L117.89,274.02L118,272.74L118.62,270.18L118.9,271.46L119.32,270.18L119.32,271.46L120.31,270.18L120.72,271.46L121.03,270.18L121.04,268.91L121.73,267.63L121.98,268.91L121.99,271.46L122.22,266.35L122.74,265.08L122.75,266.35L123.17,263.8L123.23,263.8L123.8,262.52L123.8,261.24L124.29,267.63L126.06,266.35L126.28,267.63L126.33,266.35L126.86,265.08L127.3,259.97L128.1,258.69L129.82,253.58L130.2,254.86L130.68,252.3L130.75,253.58L130.75,254.86L130.91,261.24L131.28,258.69L131.82,257.41L132.34,254.86L132.59,256.13L133.2,261.24L133.92,259.97L134.91,254.86L135.3,256.13L135.99,254.86L137.08,253.58L138.23,249.75L139.05,251.03L139.8,249.75L139.87,251.03L140.39,249.75L140.75,248.47L140.76,251.03L141.31,245.92L141.31,245.92L141.76,244.64L141.76,242.08L142.33,243.36L142.69,242.08L143.2,239.53L143.24,238.25L143.31,236.97L143.36,240.81L143.92,239.53L143.94,240.81L144.35,238.25L144.99,239.53L145.39,235.7L145.65,244.64L145.65,245.92L145.65,247.19L146.32,243.36L146.39,243.36L146.78,244.64L147.05,243.36L147.07,245.92L148.26,244.64L148.93,243.36L149.04,245.92L149.87,244.64L149.89,245.92L150.54,242.08L150.61,243.36L151.18,244.64L151.79,243.36L151.8,244.64L151.83,243.36L152.93,242.08L152.95,243.36L153.12,239.53L153.4,239.53L153.91,238.25L155.21,233.14L155.74,234.42L155.75,233.14L156.42,239.53L156.79,238.25L158,236.97L158.34,238.25L160.78,231.87L160.93,233.14L161.45,228.03L161.75,226.76L163.07,219.09L163.81,217.82L163.81,219.09L164.21,217.82L165.31,216.54L165.37,215.26L165.83,220.37L166.27,219.09L167.34,216.54L167.34,215.26L167.36,213.98L167.57,222.92L168.87,221.65L169.11,219.09L170.23,217.82L170.97,222.92L171.33,221.65L174.26,211.43L174.33,210.15L174.38,211.43L176.15,210.15L176.39,215.26L176.4,216.54L176.41,220.37L176.83,217.82L178.81,216.54L178.83,219.09L178.99,217.82L179.74,216.54L180.26,211.43L180.27,212.71L180.8,213.98L181.16,215.26L182.08,210.15L182.14,211.43L182.27,212.71L183.12,211.43L183.13,212.71L186.29,207.6L186.39,206.32L186.97,202.49L186.98,203.76L187.41,202.49L187.43,205.04L188.1,203.76L188.28,202.49L188.98,203.76L189.28,202.49L190.03,201.21L190.22,199.93L190.99,197.38L191.13,196.1L191.31,197.38L191.46,194.82L191.47,196.1L192.28,194.82L193.68,185.88L193.68,188.44L193.95,187.16L194.29,184.61L194.6,185.88L195.13,184.61L195.34,182.05L195.8,184.61L196.08,183.33L196.46,180.77L197.03,179.5L198.21,178.22L198.21,179.5L198.29,178.22L198.32,179.5L199.69,178.22L200.44,179.5L201.18,178.22L201.41,176.94L201.41,178.22L203.29,176.94L204,175.66L204.02,176.94L204.02,178.22L204.41,176.94L205.26,178.22L205.26,179.5L205.96,179.5L206.14,178.22L207.12,175.66L207.86,174.39L208.51,170.55L208.89,171.83L210.3,166.72L210.63,168L212.08,166.72L212.3,165.45L213.32,164.17L213.43,165.45L214.16,164.17L215.99,160.34L216.29,161.61L216.66,157.78L217.41,156.5L217.85,159.06L217.89,157.78L218.17,156.5L218.92,153.95L219.14,155.23L219.18,156.5L219.2,160.34L219.92,157.78L219.94,156.5L220.38,155.23L220.88,162.89L220.9,161.61L221.64,160.34L221.86,161.61L222.34,157.78L222.47,159.06L223.31,175.66L223.32,174.39L223.38,173.11L224.27,189.71L224.87,188.44L225.04,189.71L225.47,184.61L225.47,185.88L225.63,187.16L225.91,188.44L226.07,185.88L226.19,184.61L227.17,179.5L227.47,178.22L227.95,174.39L228,173.11L228.1,178.22L229.04,176.94L231.07,174.39L231.1,173.11L231.7,166.72L232.07,165.45L232.53,166.72L234.21,165.45L235.38,162.89L235.45,161.61L236.32,160.34L236.74,161.61L237.48,159.06L239.36,157.78L239.95,155.23L240.03,153.95L240.19,151.39L240.93,150.12L241.06,151.39L241.25,150.12L242.42,148.84L242.74,145.01L242.76,152.67L242.76,153.95L242.76,155.23L243.32,150.12L243.76,148.84L243.96,150.12L244.94,148.84L245.1,150.12L245.34,148.84L245.94,150.12L246.01,148.84L246.19,153.95L246.63,151.39L246.9,152.67L247.21,151.39L247.23,153.95L247.33,153.95L247.34,155.23L248.37,151.39L248.82,150.12L249.23,147.56L249.35,153.95L249.37,153.95L249.75,152.67L250.06,151.39L250.21,152.67L250.25,153.95L250.33,152.67L250.64,155.23L250.96,156.5L251.05,153.95L251.08,164.17L251.09,165.45L251.62,185.88L251.77,184.61L251.9,185.88L252.35,187.16L252.91,185.88L253.95,180.77L254.04,182.05L255.37,173.11L255.52,174.39L255.8,173.11L257.05,169.28L257.06,170.55L257.2,171.83L257.8,168L258.11,166.72L258.31,165.45L258.96,166.72L259.6,160.34L260.06,159.06L260.55,153.95L260.56,155.23L261.1,156.5L261.93,151.39L262.12,150.12L263.4,142.45L263.84,141.18L264.04,139.9L265.1,138.62L266.53,130.96L266.96,129.68L267.96,125.85L268,127.13L269.37,120.74L270.04,119.46L272.05,113.08L272.06,114.35L275.09,97.75L275.31,99.03L275.32,101.58L276.26,100.3L276.26,101.58L276.98,97.75L277.62,96.47L277.92,97.75L279.09,96.47L279.39,92.64L281.87,93.92L282.04,123.29L282.96,122.02L284.16,123.29L284.31,122.02L284.31,120.74L284.4,124.57L284.58,122.02L285.19,123.29L288.13,122.02L288.87,120.74L289.44,116.91L289.45,115.63L289.57,118.18L290.1,116.91L290.22,115.63L290.27,116.91L291.22,115.63L292.42,122.02L292.53,120.74L292.75,122.02L293.44,116.91L294.11,115.63L294.15,116.91L294.68,111.8L295.04,113.08L295.34,127.13L296.3,125.85L296.47,127.13L296.99,124.57L297,125.85L297,127.13L298.02,124.57L298.19,125.85L298.3,123.29L298.76,124.57L299.14,125.85L299.61,127.13L300.13,125.85L301.61,120.74L301.93,119.46L302.26,122.02L302.41,116.91L302.53,118.18L302.59,116.91L303.15,118.18L304.3,116.91L304.32,118.18L304.87,115.63L305.22,114.35L305.55,109.24L305.82,110.52L306.2,111.8L306.21,116.91L306.41,114.35L307.46,113.08L308.19,124.57L308.19,123.29L308.3,122.02L308.32,120.74L308.64,132.24L308.79,132.24L308.89,133.51L308.94,142.45L309.45,141.18L309.65,139.9L310,141.18L310.03,139.9L310.33,138.62L311,136.07L311.57,134.79L312.29,133.51L312.36,132.24L312.43,130.96L313.26,129.68L313.49,130.96L313.5,129.68L314.13,128.4L314.45,132.24L314.56,128.4L315.03,127.13L315.42,123.29L316.07,122.02L316.27,120.74L317.62,119.46L318.3,115.63L318.36,114.35L319.59,106.69L320.58,105.41L323.32,96.47L324.44,95.19L325.23,92.64L326.06,91.36L326.2,88.81L326.95,90.08L327.32,109.24L327.52,107.97L327.8,109.24L328.09,107.97L328.1,110.52L328.46,109.24L329.1,110.52L329.62,109.24L330.36,110.52L331.5,106.69L332.47,105.41L333.77,104.13L334.11,105.41L334.16,106.69L335.18,105.41L335.71,102.86L336.18,104.13L336.36,102.86L336.79,104.13L336.82,105.41L336.82,106.69L337.5,104.13L338.19,105.41L339.19,141.18L339.48,139.9L339.64,136.07L340.1,141.18L340.26,142.45L341.72,130.96L342.07,129.68L342.2,132.24L342.67,130.96L343.1,129.68L344.1,132.24L344.5,130.96L345.49,129.68L345.5,130.96L346.11,129.68L346.34,128.4L346.69,127.13L347.1,128.4L347.48,127.13L348.08,125.85L348.33,124.57L348.54,122.02L349.66,120.74L349.94,119.46L351.05,118.18L352.67,113.08L352.67,114.35L352.7,115.63L353.67,110.52L354.2,111.8L355.06,106.69L355.06,107.97L355.56,106.69L355.61,107.97L356.24,105.41L356.24,104.13L356.35,101.58L357.67,100.3L358.53,97.75L358.56,96.47L359.39,93.92L359.73,92.64L360.67,97.75L361.06,96.47L361.24,95.19L362.78,92.64L362.99,93.92L364.1,91.36L364.67,90.08L366.24,84.97L366.86,83.7L367.23,82.42L367.45,83.7L367.51,84.97L367.52,83.7L368.41,82.42L369.54,79.87L369.66,78.59L370.65,77.31L370.67,78.59L370.74,96.47L371.39,92.64L371.65,93.92L372.28,91.36L372.53,90.08L373.28,91.36L374.2,90.08L374.83,86.25L374.94,87.53L375.23,86.25L376.52,83.7L377.37,82.42L378,79.87L378,78.59L378,72.2L379.28,70.92L380.31,67.09L381.83,68.37L381.83,70.92L382.25,67.09L382.25,68.37L382.61,67.09L383.11,68.37L383.43,67.09L383.44,65.82L383.7,67.09L384.58,65.82L384.72,64.54L384.72,65.82L386.05,67.09L386.69,65.82L386.75,67.09L386.92,68.37L386.92,69.65L387.54,69.65L387.85,70.92L388.05,84.97L389.04,86.25L390.07,83.7L390.59,82.42L390.72,79.87L390.76,83.7L391.18,84.97L392.4,76.03L392.41,77.31L392.41,76.03L392.44,82.42L392.75,79.87L393.31,78.59L394.63,74.76L395.77,73.48L396.48,69.65L397.19,68.37L397.57,64.54L398.05,67.09L398.31,65.82L399.34,59.43L399.34,60.71L400.78,59.43L401.56,53.04L401.57,54.32L401.57,55.6L402.39,54.32L402.72,55.6L402.77,54.32L403.28,53.04L403.84,50.49L404.49,51.76L405.45,47.93L406.09,46.66L406.71,44.1L406.93,45.38L407.07,46.66L407.38,47.93L407.59,46.66L408.78,47.93L411.18,38.99L411.46,37.71L412.46,36.44L413.19,37.71L414.29,33.88L414.37,32.61L414.44,33.88L414.6,28.77L415.23,30.05L415.3,27.5L416.46,26.22L416.62,23.66L416.81,26.22L417.07,27.5L417.47,26.22L417.64,27.5L417.67,28.77L417.94,31.33L418.48,30.05L419.52,22.39L419.53,24.94L419.57,26.22L420.31,23.66L420.32,24.94L420.52,26.22L420.93,27.5L421.18,24.94L421.45,23.66L421.61,24.94L421.73,22.39L422.05,24.94L422.09,26.22L422.19,27.5L422.62,23.66L422.69,22.39L423.74,18.55L423.74,17.28L424.23,16L424.31,17.28L424.33,18.55L424.65,17.28L424.87,21.11L424.88,22.39L425.31,36.44L425.61,24.94L425.68,26.22L426.3,33.88L426.33,30.05L426.45,31.33L428.15,22.39L428.21,23.66L428.35,36.44L428.75,31.33L429.04,30.05L429.08,32.61L429.61,30.05L430.2,28.77L430.84,32.61L431.12,31.33L431.35,30.05L431.5,32.61L431.58,31.33L432.16,30.05L432.81,40.27L432.83,38.99L433.22,37.71L433.29,36.44L433.61,40.27L433.88,38.99L434.23,37.71L434.65,33.88L434.83,36.44L435.37,35.16L435.79,31.33L436.19,32.61L436.19,33.88L437.05,53.04L437.26,51.76L437.69,49.21L438.54,47.93L438.67,51.76L439.66,53.04L440.77,50.49L440.81,49.21L440.97,50.49L441.35,49.21L441.81,47.93L442.27,45.38L442.39,49.21L442.53,47.93L442.77,46.66L443.42,44.1L443.78,45.38L444.4,51.76L444.63,49.21L444.66,47.93L445.37,51.76L445.51,50.49L445.9,41.55L446.28,49.21L446.38,47.93L446.67,44.1L446.78,50.49L446.78,51.76L446.79,53.04L447.38,44.1L447.5,45.38L447.51,46.66L448,41.55L448.22,42.82L448.41,44.1L448.66,41.55L448.83,50.49L448.83,51.76L449.12,69.65L449.55,64.54L449.64,65.82L449.65,67.09L450.41,65.82L450.65,63.26L450.69,72.2L450.7,73.48L451.13,70.92L451.23,72.2L451.63,70.92L451.68,72.2L451.78,69.65L452.4,68.37L453.04,64.54L453.22,63.26L453.97,56.87L454.23,59.43L454.26,60.71L454.42,59.43L454.79,65.82L455.38,64.54L455.5,65.82L455.77,63.26L455.94,64.54L456.29,65.82L456.95,55.6L457.25,54.32L457.27,53.04L457.36,56.87L457.71,54.32L458.21,53.04L458.22,54.32L458.81,44.1L458.85,46.66L459.65,45.38L460.14,41.55L460.71,42.82L460.84,40.27L461.12,46.66L461.5,45.38L461.52,44.1L461.84,42.82L462.11,45.38L462.4,44.1L462.58,46.66L462.95,44.1L463.3,45.38L463.83,38.99L464.19,41.55L464.24,42.82L464.37,41.55L464.4,45.38L464.84,42.82L465.28,41.55L465.29,40.27L465.83,51.76L465.85,49.21L466,47.93L467.24,51.76L467.43,50.49L467.69,53.04L468.15,51.76L468.41,50.49L469.41,55.6L469.55,53.04L469.59,51.76L469.7,49.21L470.25,53.04L470.26,53.04L470.61,51.76L470.86,47.93L471.25,51.76L471.28,53.04L471.6,51.76L472.44,72.2L472.72,70.92L472.81,69.65L473.55,67.09L473.57,65.82L474.43,55.6L474.53,56.87L474.6,54.32L474.71,65.82L475,64.54L475,65.82L475.56,64.54L475.58,65.82L475.85,67.09L476.24,74.76L476.54,72.2L476.68,70.92L476.81,65.82L477.42,67.09L477.44,65.82L477.67,63.26L477.7,68.37L477.86,67.09L478.33,68.37L478.61,69.65L479.25,64.54L479.56,65.82L479.58,69.65L480.27,67.09L480.4,68.37L480.85,65.82L481.57,64.54L481.83,59.43L482.14,64.54L482.45,63.26L483.58,53.04L484.35,54.32L484.87,67.09L485.29,65.82L485.38,68.37L485.73,60.71L485.9,61.98L486.16,60.71L486.63,68.37L487.34,67.09L487.53,65.82L487.86,68.37L487.86,69.65L488.51,67.09L488.76,81.14L488.86,79.87L488.86,77.31L489.42,84.97L489.71,83.7L489.92,84.97L491.39,83.7L491.99,84.97L492.29,83.7L492.74,84.97L492.76,83.7L493.31,82.42L493.31,81.14L493.57,84.97L493.65,83.7L494.28,82.42L494.5,83.7L494.83,82.42L495.23,81.14L495.31,78.59L495.45,82.42L495.74,81.14L496.27,79.87L496.35,78.59L496.78,83.7L496.78,84.97L497.89,81.14L498.28,82.42L498.54,79.87L498.84,81.14L498.85,82.42L498.89,84.97L499.44,84.97L499.62,83.7L500.42,76.03L500.44,78.59L500.45,79.87L500.45,81.14L500.6,78.59L501.46,79.87L501.46,78.59L501.74,78.59L502.91,77.31L503.46,73.48L503.71,76.03L503.81,74.76L504.46,69.65L504.65,68.37L505.31,70.92L505.34,68.37L505.49,67.09L506.31,65.82L506.88,67.09L507.45,69.65L507.75,68.37L507.75,67.09L508.46,69.65L508.66,68.37L508.75,67.09L509.67,65.82L510.3,67.09L510.74,65.82L511.5,60.71L511.73,59.43L511.75,60.71L511.9,59.43L512.63,58.15L512.89,60.71L513.35,59.43L513.46,60.71L513.88,55.6L514.04,58.15L514.32,59.43L514.59,55.6L516.38,56.87L516.71,53.04L517.35,54.32L517.61,67.09L518.06,63.26L518.19,64.54L518.31,67.09L518.9,65.82L519.31,64.54L519.62,60.71L520.58,59.43L520.7,56.87L521.74,55.6L522.41,53.04L522.51,51.76L522.64,49.21L524.07,50.49L524.5,69.65L524.79,67.09L524.87,65.82L524.93,68.37L525.67,67.09L526.62,63.26L526.62,64.54L527.35,70.92L527.4,69.65L527.83,68.37L528.47,63.26L528.51,64.54L528.96,63.26L531.46,58.15L531.79,56.87L532.43,54.32L532.9,53.04L533.87,50.49L533.93,49.21L534.13,50.49L534.77,49.21L535.44,46.66L536.95,45.38L538.19,42.82L538.53,41.55L539.92,33.88L539.92,35.16L539.95,33.88L540,37.71" style="vector-effect: none; fill: none; stroke: rgb(255, 127, 14); stroke-opacity: 1; stroke-width: 2px; opacity: 1;"/></g><g class="points"/><g class="text"/></g></g></g></g><g class="zerolinelayer-above"/><path class="xlines-above crisp" d="M0,0" style="fill: none;"/><path class="ylines-above crisp" d="M0,0" style="fill: none;"/><g class="overlines-above"/><g class="xaxislayer-above"><g class="xtick"><text text-anchor="middle" x="0" y="439" transform="translate(101.08,0)" style="font-family: 'Open Sans'; font-size: 18px; fill: rgb(0, 0, 0); fill-opacity: 1; white-space: pre;">2016</text></g><g class="xtick"><text text-anchor="middle" x="0" y="439" style="font-family: 'Open Sans'; font-size: 18px; fill: rgb(0, 0, 0); fill-opacity: 1; white-space: pre;" transform="translate(205.66,0)">2018</text></g><g class="xtick"><text text-anchor="middle" x="0" y="439" style="font-family: 'Open Sans'; font-size: 18px; fill: rgb(0, 0, 0); fill-opacity: 1; white-space: pre;" transform="translate(310.11,0)">2020</text></g><g class="xtick"><text text-anchor="middle" x="0" y="439" style="font-family: 'Open Sans'; font-size: 18px; fill: rgb(0, 0, 0); fill-opacity: 1; white-space: pre;" transform="translate(414.69,0)">2022</text></g><g class="xtick"><text text-anchor="middle" x="0" y="439" style="font-family: 'Open Sans'; font-size: 18px; fill: rgb(0, 0, 0); fill-opacity: 1; white-space: pre;" transform="translate(519.14,0)">2024</text></g></g><g class="yaxislayer-above"><g class="ytick"><text text-anchor="end" x="79" y="6.3" transform="translate(0,420)" style="font-family: 'Open Sans'; font-size: 18px; fill: rgb(0, 0, 0); fill-opacity: 1; white-space: pre;">0</text></g><g class="ytick"><text text-anchor="end" x="79" y="6.3" style="font-family: 'Open Sans'; font-size: 18px; fill: rgb(0, 0, 0); fill-opacity: 1; white-space: pre;" transform="translate(0,356.13)">50</text></g><g class="ytick"><text text-anchor="end" x="79" y="6.3" style="font-family: 'Open Sans'; font-size: 18px; fill: rgb(0, 0, 0); fill-opacity: 1; white-space: pre;" transform="translate(0,292.27)">100</text></g><g class="ytick"><text text-anchor="end" x="79" y="6.3" style="font-family: 'Open Sans'; font-size: 18px; fill: rgb(0, 0, 0); fill-opacity: 1; white-space: pre;" transform="translate(0,228.4)">150</text></g><g class="ytick"><text text-anchor="end" x="79" y="6.3" style="font-family: 'Open Sans'; font-size: 18px; fill: rgb(0, 0, 0); fill-opacity: 1; white-space: pre;" transform="translate(0,164.54000000000002)">200</text></g><g class="ytick"><text text-anchor="end" x="79" y="6.3" style="font-family: 'Open Sans'; font-size: 18px; fill: rgb(0, 0, 0); fill-opacity: 1; white-space: pre;" transform="translate(0,100.67)">250</text></g></g><g class="overaxes-above"/></g></g><g class="polarlayer"/><g class="smithlayer"/><g class="ternarylayer"/><g class="geolayer"/><g class="funnelarealayer"/><g class="pielayer"/><g class="iciclelayer"/><g class="treemaplayer"/><g class="sunburstlayer"/><g class="glimages"/><defs id="topdefs-266568"><g class="clips"/></defs><g class="layer-above"><g class="imagelayer"/><g class="shapelayer"/></g><g class="infolayer"><g class="g-gtitle"><text class="gtitle" x="35" y="50" text-anchor="start" dy="0em" style="opacity: 1; font-family: 'Open Sans'; font-size: 25px; fill: rgb(0, 0, 0); fill-opacity: 1; white-space: pre;">MultiQC/MultiQC - Open Issues Over Time</text></g><g class="g-xtitle"><text class="xtitle" x="350" y="472.9" text-anchor="middle" style="opacity: 1; font-family: 'Open Sans'; font-size: 22px; fill: rgb(0, 0, 0); fill-opacity: 1; white-space: pre;">Date</text></g><g class="g-ytitle"><text class="ytitle" transform="rotate(-90,29.799999999999997,260)" x="29.799999999999997" y="260" text-anchor="middle" style="opacity: 1; font-family: 'Open Sans'; font-size: 22px; fill: rgb(0, 0, 0); fill-opacity: 1; white-space: pre;">Number of Open Issues</text></g></g></svg>