<svg class="main-svg" xmlns="http://www.w3.org/2000/svg" xmlns:xlink="http://www.w3.org/1999/xlink" width="700" height="500" style="" viewBox="0 0 700 500"><rect x="0" y="0" width="700" height="500" style="fill: rgb(0, 0, 0); fill-opacity: 0;"/><defs id="defs-08cd1e"><g class="clips"><clipPath id="clip08cd1exyplot" class="plotclip"><rect width="540" height="320"/></clipPath><clipPath class="axesclip" id="clip08cd1ex"><rect x="80" y="0" width="540" height="500"/></clipPath><clipPath class="axesclip" id="clip08cd1ey"><rect x="0" y="100" width="700" height="320"/></clipPath><clipPath class="axesclip" id="clip08cd1exy"><rect x="80" y="100" width="540" height="320"/></clipPath></g><g class="gradients"/><g class="patterns"/></defs><g class="bglayer"><rect class="bg" x="80" y="100" width="540" height="320" style="fill: rgb(0, 0, 0); fill-opacity: 0; stroke-width: 0;"/></g><g class="layer-below"><g class="imagelayer"/><g class="shapelayer"/></g><g class="cartesianlayer"><g class="subplot xy"><g class="layer-subplot"><g class="shapelayer"/><g class="imagelayer"/></g><g class="minor-gridlayer"><g class="x"/><g class="y"/></g><g class="gridlayer"><g class="x"><path class="xgrid crisp" transform="translate(100.66,0)" d="M0,100v320" style="stroke: rgb(255, 255, 255); stroke-opacity: 1; stroke-width: 1px;"/><path class="xgrid crisp" transform="translate(203.18,0)" d="M0,100v320" style="stroke: rgb(255, 255, 255); stroke-opacity: 1; stroke-width: 1px;"/><path class="xgrid crisp" transform="translate(305.56,0)" d="M0,100v320" style="stroke: rgb(255, 255, 255); stroke-opacity: 1; stroke-width: 1px;"/><path class="xgrid crisp" transform="translate(408.08,0)" d="M0,100v320" style="stroke: rgb(255, 255, 255); stroke-opacity: 1; stroke-width: 1px;"/><path class="xgrid crisp" transform="translate(510.46,0)" d="M0,100v320" style="stroke: rgb(255, 255, 255); stroke-opacity: 1; stroke-width: 1px;"/><path class="xgrid crisp" transform="translate(612.99,0)" d="M0,100v320" style="stroke: rgb(255, 255, 255); stroke-opacity: 1; stroke-width: 1px;"/></g><g class="y"><path class="ygrid crisp" transform="translate(0,337.48)" d="M80,0h540" style="stroke: rgb(255, 255, 255); stroke-opacity: 1; stroke-width: 1px;"/><path class="ygrid crisp" transform="translate(0,254.96)" d="M80,0h540" style="stroke: rgb(255, 255, 255); stroke-opacity: 1; stroke-width: 1px;"/><path class="ygrid crisp" transform="translate(0,172.44)" d="M80,0h540" style="stroke: rgb(255, 255, 255); stroke-opacity: 1; stroke-width: 1px;"/></g></g><g class="zerolinelayer"><path class="yzl zl crisp" transform="translate(0,420)" d="M80,0h540" style="stroke: rgb(255, 255, 255); stroke-opacity: 1; stroke-width: 2px;"/></g><g class="layer-between"><g class="shapelayer"/><g class="imagelayer"/></g><path class="xlines-below"/><path class="ylines-below"/><g class="overlines-below"/><g class="xaxislayer-below"/><g class="yaxislayer-below"/><g class="overaxes-below"/><g class="overplot"><g class="xy" transform="translate(80,100)" clip-path="url(#clip08cd1exyplot)"><g class="scatterlayer mlayer"><g class="trace scatter tracedccdef" style="stroke-miterlimit: 2;"><g class="fills"><g><path class="js-fill" d="M540,320L0,320L0,319.83L0,319.5L1.93,319.34L3.76,318.35L4.46,318.18L5.05,317.03L5.43,316.86L6.02,315.87L6.32,315.71L8.41,312.24L8.8,312.08L9.93,311.09L9.93,310.92L10.8,310.1L11.47,309.93L12.47,307.79L12.47,307.62L13.22,306.63L13.45,306.47L13.89,305.31L14.4,305.15L15.55,304.65L16.76,304.49L18.2,303.33L18.34,303.17L23.56,302.18L24.39,302.01L25.52,301.52L26.07,301.35L27.2,300.03L29.04,299.87L31.97,298.05L33.16,297.88L37.03,295.24L37.03,295.08L37.33,294.25L37.96,294.09L40.11,291.94L40.11,291.78L40.78,291.12L41.07,290.95L43.3,288.97L44.57,288.81L46.83,286.66L46.84,286.5L51.12,284.19L52.04,284.02L55.06,282.54L55.07,282.37L57.34,281.05L57.62,280.89L58.92,279.57L60.48,279.4L63.71,276.43L63.81,276.26L63.93,275.93L64.68,275.77L67.23,274.45L67.27,274.28L67.58,273.95L68.32,273.79L69.46,273.46L70.4,273.29L71.22,272.14L71.61,271.97L77.43,269.99L77.54,269.83L79.1,268.84L79.62,268.67L80.39,267.52L80.59,267.35L83.18,266.2L83.41,266.03L83.44,265.7L84.27,265.54L84.98,264.71L85.25,264.55L85.93,264.05L86.27,263.89L86.27,263.56L87.34,263.39L87.37,263.06L88.2,262.9L92.37,261.58L92.84,261.41L93.92,260.75L94.22,260.59L98.72,258.61L98.74,258.44L99.96,257.45L99.96,257.29L100.7,254.98L100.99,254.81L105.84,252L106.7,251.84L109.03,250.02L109.49,249.86L112.98,249.03L113.59,248.87L116.96,247.38L117.94,247.22L119.78,246.06L119.81,245.9L124.57,243.59L124.67,243.42L125.57,242.93L125.97,242.76L131.69,238.97L131.69,238.8L138.38,235.67L138.52,235.5L138.96,234.84L139.52,234.68L147.57,230.71L148.8,230.55L148.84,230.38L149.91,230.22L151.02,228.9L151.9,228.73L152.15,228.4L152.67,228.24L157.61,226.75L157.75,226.59L158.55,225.93L158.72,225.76L170.41,220.81L170.64,220.65L170.89,220.15L172.67,219.99L182.75,216.36L182.83,216.19L184.56,214.71L185.54,214.54L186.28,214.21L186.46,214.05L187.38,213.06L187.45,212.89L190.45,210.74L191.28,210.58L192.58,209.42L193.14,209.26L200.13,207.61L200.37,207.44L203.91,206.29L203.94,206.12L206.15,205.13L207.89,204.97L209.1,204.64L209.93,204.47L213.59,202.99L213.86,202.82L218.91,199.52L218.97,199.36L220.76,198.2L220.78,198.04L223.49,195.56L224.52,195.4L226.77,194.41L226.91,194.24L227.49,193.91L229.58,193.75L235.21,192.1L235.29,191.93L236.17,191.44L236.48,191.27L237.97,190.45L238.14,190.28L238.94,189.45L240.1,189.29L241.76,188.13L242.32,187.97L243.04,187.14L243.46,186.98L244.16,186.15L244.25,185.99L245.12,185.33L245.39,185.16L246.25,184.34L246.27,184.17L249.18,182.52L249.31,182.36L250.33,181.37L250.75,181.2L253.97,179.55L253.97,179.39L265.1,172.46L265.98,172.29L267.06,171.3L267.59,171.14L268.17,170.31L268.54,170.15L273.88,168.17L277.37,168L283.72,166.51L283.73,166.35L287.18,164.7L287.4,164.53L292.41,161.73L293.56,161.56L296.18,160.24L296.29,160.08L297.07,159.25L298.29,159.09L300.36,157.11L301.38,156.94L302.26,155.46L302.33,155.29L303.01,154.8L303.34,154.63L306.26,152.82L307.07,152.65L310.03,150.51L311.35,150.34L312.86,149.02L313.01,148.86L315.12,148.2L315.7,148.03L316.94,147.21L318.04,147.04L318.81,146.71L319.62,146.55L319.76,146.21L320.86,146.05L321.61,145.22L321.97,145.06L330.55,143.08L330.84,142.91L333.63,141.76L333.66,141.59L334.9,140.44L334.97,140.27L343.03,137.3L344.12,137.14L352.62,132.35L353.53,132.19L360.27,129.88L361.14,129.71L363.93,128.39L364.06,128.23L365.72,127.4L366.82,127.24L367.82,126.58L368.2,126.41L370.54,125.26L370.54,125.09L370.54,124.76L371.79,124.6L372.8,124.1L374.61,123.93L375.05,123.44L375.86,123.27L375.87,123.11L376.98,122.94L377.12,122.78L378.65,122.61L383.62,120.63L383.72,120.47L386.84,118.16L387.95,117.99L388.65,117.5L389.35,117.33L390.96,115.85L391.41,115.68L391.45,115.52L392.87,115.35L393.63,114.53L394.45,114.36L402.08,111.56L402.64,111.39L407.07,109.08L407.1,108.92L410.45,107.76L410.48,107.6L413.29,105.45L413.4,105.29L415.24,103.97L415.37,103.8L415.85,103.31L416.26,103.14L416.98,102.48L417.2,102.31L417.91,100.33L418.18,100.17L421.94,97.03L422.61,96.87L429.88,91.75L431.65,91.59L435.85,89.11L435.88,88.95L436.72,87.3L436.74,87.13L439.8,81.36L440.35,81.19L440.67,80.53L441.52,80.36L442.86,78.88L443.47,78.71L444.09,78.22L444.28,78.05L446.77,76.24L447.29,76.07L448.68,73.27L449.16,73.1L451.06,71.12L451.69,70.96L452.72,69.64L453.27,69.47L454.57,67.99L454.67,67.82L456.49,66.17L456.5,66.01L457.44,65.18L458.2,65.02L460.32,63.86L460.42,63.7L463.38,60.73L463.47,60.56L464.3,59.74L464.32,59.57L465.07,58.58L465.2,58.41L465.45,57.75L466.17,57.59L467.27,56.1L467.27,55.94L468.01,55.28L468.13,55.11L469.79,53.46L470.39,53.3L473.15,51.32L473.15,51.15L473.93,50.33L474.03,50.16L475.85,49.34L475.85,49.17L476.95,47.69L477.71,47.52L480.04,45.87L481.69,45.71L482.56,45.38L483.03,45.21L485.66,43.73L485.82,43.56L486.92,42.9L487.49,42.74L490.53,40.76L490.57,40.59L491.83,40.1L492.98,39.93L494,38.94L494.32,38.78L494.93,38.12L495.36,37.95L495.63,37.45L496.32,37.29L501.4,35.14L501.63,34.98L501.8,34.65L502.51,34.48L504.36,33.33L504.42,33.16L507.41,32.17L507.46,32.01L508.65,30.69L509.05,30.52L509.36,30.03L510.3,29.86L510.42,29.53L511.43,29.37L515.37,27.55L515.53,27.39L518.04,25.9L518.07,25.74L529.26,21.45L529.29,21.28L530.8,19.96L530.8,19.8L531.24,18.81L531.64,18.64L535.84,17.82L535.88,17.65L536.04,17.49L537.86,17.32L537.88,17.16L538.82,16.99L540,16" style="fill: rgb(255, 127, 14); fill-opacity: 0.5; stroke-width: 0;"/></g></g><g class="errorbars"/><g class="lines"><path class="js-line" d="M0,319.83L0,319.5L1.93,319.34L3.76,318.35L4.46,318.18L5.05,317.03L5.43,316.86L6.02,315.87L6.32,315.71L8.41,312.24L8.8,312.08L9.93,311.09L9.93,310.92L10.8,310.1L11.47,309.93L12.47,307.79L12.47,307.62L13.22,306.63L13.45,306.47L13.89,305.31L14.4,305.15L15.55,304.65L16.76,304.49L18.2,303.33L18.34,303.17L23.56,302.18L24.39,302.01L25.52,301.52L26.07,301.35L27.2,300.03L29.04,299.87L31.97,298.05L33.16,297.88L37.03,295.24L37.03,295.08L37.33,294.25L37.96,294.09L40.11,291.94L40.11,291.78L40.78,291.12L41.07,290.95L43.3,288.97L44.57,288.81L46.83,286.66L46.84,286.5L51.12,284.19L52.04,284.02L55.06,282.54L55.07,282.37L57.34,281.05L57.62,280.89L58.92,279.57L60.48,279.4L63.71,276.43L63.81,276.26L63.93,275.93L64.68,275.77L67.23,274.45L67.27,274.28L67.58,273.95L68.32,273.79L69.46,273.46L70.4,273.29L71.22,272.14L71.61,271.97L77.43,269.99L77.54,269.83L79.1,268.84L79.62,268.67L80.39,267.52L80.59,267.35L83.18,266.2L83.41,266.03L83.44,265.7L84.27,265.54L84.98,264.71L85.25,264.55L85.93,264.05L86.27,263.89L86.27,263.56L87.34,263.39L87.37,263.06L88.2,262.9L92.37,261.58L92.84,261.41L93.92,260.75L94.22,260.59L98.72,258.61L98.74,258.44L99.96,257.45L99.96,257.29L100.7,254.98L100.99,254.81L105.84,252L106.7,251.84L109.03,250.02L109.49,249.86L112.98,249.03L113.59,248.87L116.96,247.38L117.94,247.22L119.78,246.06L119.81,245.9L124.57,243.59L124.67,243.42L125.57,242.93L125.97,242.76L131.69,238.97L131.69,238.8L138.38,235.67L138.52,235.5L138.96,234.84L139.52,234.68L147.57,230.71L148.8,230.55L148.84,230.38L149.91,230.22L151.02,228.9L151.9,228.73L152.15,228.4L152.67,228.24L157.61,226.75L157.75,226.59L158.55,225.93L158.72,225.76L170.41,220.81L170.64,220.65L170.89,220.15L172.67,219.99L182.75,216.36L182.83,216.19L184.56,214.71L185.54,214.54L186.28,214.21L186.46,214.05L187.38,213.06L187.45,212.89L190.45,210.74L191.28,210.58L192.58,209.42L193.14,209.26L200.13,207.61L200.37,207.44L203.91,206.29L203.94,206.12L206.15,205.13L207.89,204.97L209.1,204.64L209.93,204.47L213.59,202.99L213.86,202.82L218.91,199.52L218.97,199.36L220.76,198.2L220.78,198.04L223.49,195.56L224.52,195.4L226.77,194.41L226.91,194.24L227.49,193.91L229.58,193.75L235.21,192.1L235.29,191.93L236.17,191.44L236.48,191.27L237.97,190.45L238.14,190.28L238.94,189.45L240.1,189.29L241.76,188.13L242.32,187.97L243.04,187.14L243.46,186.98L244.16,186.15L244.25,185.99L245.12,185.33L245.39,185.16L246.25,184.34L246.27,184.17L249.18,182.52L249.31,182.36L250.33,181.37L250.75,181.2L253.97,179.55L253.97,179.39L265.1,172.46L265.98,172.29L267.06,171.3L267.59,171.14L268.17,170.31L268.54,170.15L273.88,168.17L277.37,168L283.72,166.51L283.73,166.35L287.18,164.7L287.4,164.53L292.41,161.73L293.56,161.56L296.18,160.24L296.29,160.08L297.07,159.25L298.29,159.09L300.36,157.11L301.38,156.94L302.26,155.46L302.33,155.29L303.01,154.8L303.34,154.63L306.26,152.82L307.07,152.65L310.03,150.51L311.35,150.34L312.86,149.02L313.01,148.86L315.12,148.2L315.7,148.03L316.94,147.21L318.04,147.04L318.81,146.71L319.62,146.55L319.76,146.21L320.86,146.05L321.61,145.22L321.97,145.06L330.55,143.08L330.84,142.91L333.63,141.76L333.66,141.59L334.9,140.44L334.97,140.27L343.03,137.3L344.12,137.14L352.62,132.35L353.53,132.19L360.27,129.88L361.14,129.71L363.93,128.39L364.06,128.23L365.72,127.4L366.82,127.24L367.82,126.58L368.2,126.41L370.54,125.26L370.54,125.09L370.54,124.76L371.79,124.6L372.8,124.1L374.61,123.93L375.05,123.44L375.86,123.27L375.87,123.11L376.98,122.94L377.12,122.78L378.65,122.61L383.62,120.63L383.72,120.47L386.84,118.16L387.95,117.99L388.65,117.5L389.35,117.33L390.96,115.85L391.41,115.68L391.45,115.52L392.87,115.35L393.63,114.53L394.45,114.36L402.08,111.56L402.64,111.39L407.07,109.08L407.1,108.92L410.45,107.76L410.48,107.6L413.29,105.45L413.4,105.29L415.24,103.97L415.37,103.8L415.85,103.31L416.26,103.14L416.98,102.48L417.2,102.31L417.91,100.33L418.18,100.17L421.94,97.03L422.61,96.87L429.88,91.75L431.65,91.59L435.85,89.11L435.88,88.95L436.72,87.3L436.74,87.13L439.8,81.36L440.35,81.19L440.67,80.53L441.52,80.36L442.86,78.88L443.47,78.71L444.09,78.22L444.28,78.05L446.77,76.24L447.29,76.07L448.68,73.27L449.16,73.1L451.06,71.12L451.69,70.96L452.72,69.64L453.27,69.47L454.57,67.99L454.67,67.82L456.49,66.17L456.5,66.01L457.44,65.18L458.2,65.02L460.32,63.86L460.42,63.7L463.38,60.73L463.47,60.56L464.3,59.74L464.32,59.57L465.07,58.58L465.2,58.41L465.45,57.75L466.17,57.59L467.27,56.1L467.27,55.94L468.01,55.28L468.13,55.11L469.79,53.46L470.39,53.3L473.15,51.32L473.15,51.15L473.93,50.33L474.03,50.16L475.85,49.34L475.85,49.17L476.95,47.69L477.71,47.52L480.04,45.87L481.69,45.71L482.56,45.38L483.03,45.21L485.66,43.73L485.82,43.56L486.92,42.9L487.49,42.74L490.53,40.76L490.57,40.59L491.83,40.1L492.98,39.93L494,38.94L494.32,38.78L494.93,38.12L495.36,37.95L495.63,37.45L496.32,37.29L501.4,35.14L501.63,34.98L501.8,34.65L502.51,34.48L504.36,33.33L504.42,33.16L507.41,32.17L507.46,32.01L508.65,30.69L509.05,30.52L509.36,30.03L510.3,29.86L510.42,29.53L511.43,29.37L515.37,27.55L515.53,27.39L518.04,25.9L518.07,25.74L529.26,21.45L529.29,21.28L530.8,19.96L530.8,19.8L531.24,18.81L531.64,18.64L535.84,17.82L535.88,17.65L536.04,17.49L537.86,17.32L537.88,17.16L538.82,16.99L540,16" style="vector-effect: none; fill: none; stroke: rgb(255, 127, 14); stroke-opacity: 1; stroke-width: 2px; opacity: 1;"/></g><g class="points"/><g class="text"/></g></g></g></g><g class="zerolinelayer-above"/><path class="xlines-above crisp" d="M0,0" style="fill: none;"/><path class="ylines-above crisp" d="M0,0" style="fill: none;"/><g class="overlines-above"/><g class="xaxislayer-above"><g class="xtick"><text text-anchor="middle" x="0" y="439" transform="translate(100.66,0)" style="font-family: 'Open Sans'; font-size: 18px; fill: rgb(0, 0, 0); fill-opacity: 1; white-space: pre;">2016</text></g><g class="xtick"><text text-anchor="middle" x="0" y="439" style="font-family: 'Open Sans'; font-size: 18px; fill: rgb(0, 0, 0); fill-opacity: 1; white-space: pre;" transform="translate(203.18,0)">2018</text></g><g class="xtick"><text text-anchor="middle" x="0" y="439" style="font-family: 'Open Sans'; font-size: 18px; fill: rgb(0, 0, 0); fill-opacity: 1; white-space: pre;" transform="translate(305.56,0)">2020</text></g><g class="xtick"><text text-anchor="middle" x="0" y="439" style="font-family: 'Open Sans'; font-size: 18px; fill: rgb(0, 0, 0); fill-opacity: 1; white-space: pre;" transform="translate(408.08,0)">2022</text></g><g class="xtick"><text text-anchor="middle" x="0" y="439" style="font-family: 'Open Sans'; font-size: 18px; fill: rgb(0, 0, 0); fill-opacity: 1; white-space: pre;" transform="translate(510.46,0)">2024</text></g><g class="xtick"><text text-anchor="middle" x="0" y="439" style="font-family: 'Open Sans'; font-size: 18px; fill: rgb(0, 0, 0); fill-opacity: 1; white-space: pre;" transform="translate(612.99,0)">2026</text></g></g><g class="yaxislayer-above"><g class="ytick"><text text-anchor="end" x="79" y="6.3" transform="translate(0,420)" style="font-family: 'Open Sans'; font-size: 18px; fill: rgb(0, 0, 0); fill-opacity: 1; white-space: pre;">0</text></g><g class="ytick"><text text-anchor="end" x="79" y="6.3" style="font-family: 'Open Sans'; font-size: 18px; fill: rgb(0, 0, 0); fill-opacity: 1; white-space: pre;" transform="translate(0,337.48)">500</text></g><g class="ytick"><text text-anchor="end" x="79" y="6.3" style="font-family: 'Open Sans'; font-size: 18px; fill: rgb(0, 0, 0); fill-opacity: 1; white-space: pre;" transform="translate(0,254.96)">1000</text></g><g class="ytick"><text text-anchor="end" x="79" y="6.3" style="font-family: 'Open Sans'; font-size: 18px; fill: rgb(0, 0, 0); fill-opacity: 1; white-space: pre;" transform="translate(0,172.44)">1500</text></g></g><g class="overaxes-above"/></g></g><g class="polarlayer"/><g class="smithlayer"/><g class="ternarylayer"/><g class="geolayer"/><g class="funnelarealayer"/><g class="pielayer"/><g class="iciclelayer"/><g class="treemaplayer"/><g class="sunburstlayer"/><g class="glimages"/><defs id="topdefs-08cd1e"><g class="clips"/></defs><g class="layer-above"><g class="imagelayer"/><g class="shapelayer"/></g><g class="infolayer"><g class="g-gtitle"><text class="gtitle" x="35" y="50" text-anchor="start" dy="0em" style="opacity: 1; font-family: 'Open Sans'; font-size: 25px; fill: rgb(0, 0, 0); fill-opacity: 1; white-space: pre;">MultiQC/MultiQC - Issues Created Over Time</text></g><g class="g-xtitle"><text class="xtitle" x="350" y="472.9" text-anchor="middle" style="opacity: 1; font-family: 'Open Sans'; font-size: 22px; fill: rgb(0, 0, 0); fill-opacity: 1; white-space: pre;">Date</text></g><g class="g-ytitle"><text class="ytitle" transform="rotate(-90,20.799999999999997,260)" x="20.799999999999997" y="260" text-anchor="middle" style="opacity: 1; font-family: 'Open Sans'; font-size: 22px; fill: rgb(0, 0, 0); fill-opacity: 1; white-space: pre;">Cumulative Issues Created</text></g></g></svg>