<svg class="main-svg" xmlns="http://www.w3.org/2000/svg" xmlns:xlink="http://www.w3.org/1999/xlink" width="700" height="500" style="" viewBox="0 0 700 500"><rect x="0" y="0" width="700" height="500" style="fill: rgb(0, 0, 0); fill-opacity: 0;"/><defs id="defs-9d30c6"><g class="clips"><clipPath id="clip9d30c6xyplot" class="plotclip"><rect width="540" height="320"/></clipPath><clipPath class="axesclip" id="clip9d30c6x"><rect x="80" y="0" width="540" height="500"/></clipPath><clipPath class="axesclip" id="clip9d30c6y"><rect x="0" y="100" width="700" height="320"/></clipPath><clipPath class="axesclip" id="clip9d30c6xy"><rect x="80" y="100" width="540" height="320"/></clipPath></g><g class="gradients"/><g class="patterns"/></defs><g class="bglayer"><rect class="bg" x="80" y="100" width="540" height="320" style="fill: rgb(0, 0, 0); fill-opacity: 0; stroke-width: 0;"/></g><g class="layer-below"><g class="imagelayer"/><g class="shapelayer"/></g><g class="cartesianlayer"><g class="subplot xy"><g class="layer-subplot"><g class="shapelayer"/><g class="imagelayer"/></g><g class="minor-gridlayer"><g class="x"/><g class="y"/></g><g class="gridlayer"><g class="x"><path class="xgrid crisp" transform="translate(101.28,0)" d="M0,100v320" style="stroke: rgb(255, 255, 255); stroke-opacity: 1; stroke-width: 1px;"/><path class="xgrid crisp" transform="translate(206.87,0)" d="M0,100v320" style="stroke: rgb(255, 255, 255); stroke-opacity: 1; stroke-width: 1px;"/><path class="xgrid crisp" transform="translate(312.32,0)" d="M0,100v320" style="stroke: rgb(255, 255, 255); stroke-opacity: 1; stroke-width: 1px;"/><path class="xgrid crisp" transform="translate(417.92,0)" d="M0,100v320" style="stroke: rgb(255, 255, 255); stroke-opacity: 1; stroke-width: 1px;"/><path class="xgrid crisp" transform="translate(523.37,0)" d="M0,100v320" style="stroke: rgb(255, 255, 255); stroke-opacity: 1; stroke-width: 1px;"/></g><g class="y"><path class="ygrid crisp" transform="translate(0,335.40999999999997)" d="M80,0h540" style="stroke: rgb(255, 255, 255); stroke-opacity: 1; stroke-width: 1px;"/><path class="ygrid crisp" transform="translate(0,250.83)" d="M80,0h540" style="stroke: rgb(255, 255, 255); stroke-opacity: 1; stroke-width: 1px;"/><path class="ygrid crisp" transform="translate(0,166.24)" d="M80,0h540" style="stroke: rgb(255, 255, 255); stroke-opacity: 1; stroke-width: 1px;"/></g></g><g class="zerolinelayer"><path class="yzl zl crisp" transform="translate(0,420)" d="M80,0h540" style="stroke: rgb(255, 255, 255); stroke-opacity: 1; stroke-width: 2px;"/></g><g class="layer-between"><g class="shapelayer"/><g class="imagelayer"/></g><path class="xlines-below"/><path class="ylines-below"/><g class="overlines-below"/><g class="xaxislayer-below"/><g class="yaxislayer-below"/><g class="overaxes-below"/><g class="overplot"><g class="xy" transform="translate(80,100)" clip-path="url(#clip9d30c6xyplot)"><g class="scatterlayer mlayer"><g class="trace scatter trace118440" style="stroke-miterlimit: 2;"><g class="fills"><g><path class="js-fill" d="M540,320L0,320L0,319.83L0,319.49L1.99,319.32L3.88,318.31L4.6,318.14L5.2,316.95L5.59,316.79L6.2,315.77L6.51,315.6L8.66,312.05L9.06,311.88L10.23,310.86L10.23,310.7L10.68,310.02L11.12,309.85L12.23,308.83L12.23,308.67L12.95,306.97L13,306.8L15.03,304.44L16.02,304.27L18.01,303.25L18.5,303.08L18.89,302.74L21.93,302.58L27.18,300.04L27.3,299.87L28.01,299.53L29.91,299.36L32.93,297.5L34.15,297.33L38.14,294.62L38.14,294.46L38.45,293.61L39.1,293.44L41.31,291.24L41.31,291.07L42,290.4L42.31,290.23L44.6,288.2L45.9,288.03L48.09,286L48.24,285.83L48.61,285.15L49.28,284.98L53.6,283.12L54.26,282.95L55.32,281.94L56.48,281.77L60.68,278.55L62.3,278.38L65.62,275.34L65.72,275.17L65.84,274.83L66.62,274.66L69.25,273.31L69.29,273.14L69.61,272.8L70.37,272.63L71.54,272.29L72.51,272.12L73.35,270.94L73.76,270.77L79.75,268.74L79.86,268.57L81.47,267.56L82.01,267.39L82.74,266.37L82.8,266.2L85.26,265.02L85.67,264.85L90.84,261.47L92.01,261.3L97.64,258.93L97.76,258.76L102.83,256.22L102.84,256.05L103.26,254.19L103.26,254.02L104.01,253.18L104.27,253.01L107.91,250.81L108.29,250.64L111.15,249.12L111.33,248.95L121.47,245.4L122.19,245.23L122.91,244.72L123.19,244.55L123.93,243.87L124.17,243.7L125.23,242.86L127.27,242.69L128.5,241.34L128.53,241.17L130.91,239.98L131.07,239.81L133.09,238.8L133.15,238.63L133.62,238.12L134.34,237.95L135.33,237.44L135.61,237.28L136.21,236.43L137.05,236.26L139.56,235.41L140.4,235.25L143.13,232.88L143.13,232.71L146.41,231.02L146.55,230.85L149.69,229.49L150.36,229.32L150.36,229.16L151.32,228.99L153.3,228.14L154.41,227.97L155.55,226.62L156.45,226.45L156.71,226.11L157.25,225.94L162.33,224.42L162.48,224.25L163.31,223.57L163.48,223.4L175.75,218.16L175.91,217.99L176.02,217.65L177.84,217.48L183.73,215.28L183.83,215.11L188.46,213.42L188.62,213.25L189.21,212.58L189.8,212.41L190.1,212.07L191.1,211.9L191.86,211.56L192.05,211.39L192.83,210.72L192.97,210.55L193.3,209.87L194.14,209.7L196.16,208.01L197.01,207.84L198.35,206.66L198.93,206.49L206.13,204.79L206.38,204.63L210.02,203.44L210.05,203.27L212.33,202.26L214.12,202.09L215.37,201.75L216.23,201.58L219.99,200.06L220.27,199.89L226.23,196L226.27,195.83L227.04,195.49L227.2,195.32L230.2,192.45L231.25,192.28L233.57,191.26L233.71,191.09L234.31,190.75L236.46,190.58L242.26,188.89L242.34,188.72L243.25,188.22L243.57,188.05L245.1,187.2L245.28,187.03L246.11,186.19L247.3,186.02L249.01,184.83L249.59,184.66L250.33,183.82L250.76,183.65L251.48,182.8L251.58,182.63L252.47,181.96L252.74,181.79L253.63,180.94L253.65,180.77L256.65,179.08L256.79,178.91L257.83,177.9L258.27,177.73L261.58,176.04L261.58,175.87L273.05,168.76L273.95,168.59L275.06,167.58L275.61,167.41L276.21,166.56L276.59,166.39L282.09,164.36L285.69,164.19L292.23,162.67L292.24,162.5L295.72,160.98L295.79,160.81L298.13,159.29L299.15,159.12L301.18,157.77L302.36,157.6L305.06,156.24L305.17,156.07L305.98,155.23L307.24,155.06L309.36,153.03L310.42,152.86L311.33,151.34L311.4,151.17L312.1,150.66L312.44,150.49L314.58,149.31L315.13,149.14L316.52,148.29L317.16,148.12L318.36,146.77L318.47,146.6L321.71,145.08L321.71,144.91L330.66,141.36L330.66,141.19L336.99,139.49L338.42,139.33L344.38,136.79L344.4,136.62L345.97,135.43L346.41,135.27L350.03,134.08L350.83,133.91L351.44,133.57L351.69,133.4L353.04,132.9L353.32,132.73L356.47,131.54L356.63,131.37L357.08,130.7L357.76,130.53L358.48,130.02L358.99,129.85L363.19,127.65L364.13,127.48L371.96,124.95L372.74,124.78L381.01,121.22L381.65,121.06L381.65,119.87L382.93,119.7L383.98,119.19L385.84,119.03L386.3,118.52L387.13,118.35L387.14,118.18L388.29,118.01L388.43,117.84L390.01,117.67L395.23,115.47L395.5,115.3L396.19,114.46L396.34,114.29L397.11,113.61L397.43,113.44L401.32,111.92L401.34,111.75L402.29,111.24L402.58,111.07L403.19,110.4L404.64,110.23L405.43,109.38L406.27,109.21L413.42,106.51L414.14,106.34L418.49,104.31L418.51,104.14L419.31,103.63L420.47,103.46L421.7,102.78L422.52,102.62L428.84,97.37L428.86,97.2L429.71,96.19L429.71,96.02L430.44,94.83L430.71,94.66L435.74,90.77L436.33,90.6L437.97,88.91L438.42,88.74L439.99,87.56L440.48,87.39L441.55,86.54L441.73,86.38L442.76,86.04L444.6,85.87L448.92,83.33L448.95,83.16L449.65,81.64L449.81,81.47L451,78.59L451.1,78.42L451.7,76.73L451.96,76.56L452.54,75.72L452.79,75.55L459.77,70.47L460.04,70.3L464.14,65.06L464.58,64.89L465.95,63.88L465.97,63.71L467.41,62.86L467.83,62.69L470.76,58.97L471.16,58.8L474.12,57.45L474.23,57.28L476.96,54.57L476.97,54.4L478.24,53.05L478.25,52.88L478.97,52.2L479.01,52.03L482.37,47.97L483,47.8L483.88,46.79L484.49,46.62L486.36,45.1L486.48,44.93L487.62,43.91L487.92,43.74L489.53,43.24L489.97,43.07L491.25,40.87L492.04,40.7L494.43,39.01L496.13,38.84L496.18,38.67L497.03,38.5L500.38,36.64L500.52,36.47L504.56,34.44L504.58,34.27L506.29,33.26L506.58,33.09L508.67,32.07L508.81,31.9L514.83,28.86L515.66,28.69L516.43,28.01L516.67,27.84L516.84,27.5L517.57,27.33L519.48,26.15L519.55,25.98L522.62,24.97L522.67,24.8L523.9,23.44L524.31,23.27L524.64,22.77L525.6,22.6L525.73,22.26L526.77,22.09L530.82,20.23L530.99,20.06L533.57,18.54L533.61,18.37L540,16" style="fill: rgb(255, 127, 14); fill-opacity: 0.5; stroke-width: 0;"/></g></g><g class="errorbars"/><g class="lines"><path class="js-line" d="M0,319.83L0,319.49L1.99,319.32L3.88,318.31L4.6,318.14L5.2,316.95L5.59,316.79L6.2,315.77L6.51,315.6L8.66,312.05L9.06,311.88L10.23,310.86L10.23,310.7L10.68,310.02L11.12,309.85L12.23,308.83L12.23,308.67L12.95,306.97L13,306.8L15.03,304.44L16.02,304.27L18.01,303.25L18.5,303.08L18.89,302.74L21.93,302.58L27.18,300.04L27.3,299.87L28.01,299.53L29.91,299.36L32.93,297.5L34.15,297.33L38.14,294.62L38.14,294.46L38.45,293.61L39.1,293.44L41.31,291.24L41.31,291.07L42,290.4L42.31,290.23L44.6,288.2L45.9,288.03L48.09,286L48.24,285.83L48.61,285.15L49.28,284.98L53.6,283.12L54.26,282.95L55.32,281.94L56.48,281.77L60.68,278.55L62.3,278.38L65.62,275.34L65.72,275.17L65.84,274.83L66.62,274.66L69.25,273.31L69.29,273.14L69.61,272.8L70.37,272.63L71.54,272.29L72.51,272.12L73.35,270.94L73.76,270.77L79.75,268.74L79.86,268.57L81.47,267.56L82.01,267.39L82.74,266.37L82.8,266.2L85.26,265.02L85.67,264.85L90.84,261.47L92.01,261.3L97.64,258.93L97.76,258.76L102.83,256.22L102.84,256.05L103.26,254.19L103.26,254.02L104.01,253.18L104.27,253.01L107.91,250.81L108.29,250.64L111.15,249.12L111.33,248.95L121.47,245.4L122.19,245.23L122.91,244.72L123.19,244.55L123.93,243.87L124.17,243.7L125.23,242.86L127.27,242.69L128.5,241.34L128.53,241.17L130.91,239.98L131.07,239.81L133.09,238.8L133.15,238.63L133.62,238.12L134.34,237.95L135.33,237.44L135.61,237.28L136.21,236.43L137.05,236.26L139.56,235.41L140.4,235.25L143.13,232.88L143.13,232.71L146.41,231.02L146.55,230.85L149.69,229.49L150.36,229.32L150.36,229.16L151.32,228.99L153.3,228.14L154.41,227.97L155.55,226.62L156.45,226.45L156.71,226.11L157.25,225.94L162.33,224.42L162.48,224.25L163.31,223.57L163.48,223.4L175.75,218.16L175.91,217.99L176.02,217.65L177.84,217.48L183.73,215.28L183.83,215.11L188.46,213.42L188.62,213.25L189.21,212.58L189.8,212.41L190.1,212.07L191.1,211.9L191.86,211.56L192.05,211.39L192.83,210.72L192.97,210.55L193.3,209.87L194.14,209.7L196.16,208.01L197.01,207.84L198.35,206.66L198.93,206.49L206.13,204.79L206.38,204.63L210.02,203.44L210.05,203.27L212.33,202.26L214.12,202.09L215.37,201.75L216.23,201.58L219.99,200.06L220.27,199.89L226.23,196L226.27,195.83L227.04,195.49L227.2,195.32L230.2,192.45L231.25,192.28L233.57,191.26L233.71,191.09L234.31,190.75L236.46,190.58L242.26,188.89L242.34,188.72L243.25,188.22L243.57,188.05L245.1,187.2L245.28,187.03L246.11,186.19L247.3,186.02L249.01,184.83L249.59,184.66L250.33,183.82L250.76,183.65L251.48,182.8L251.58,182.63L252.47,181.96L252.74,181.79L253.63,180.94L253.65,180.77L256.65,179.08L256.79,178.91L257.83,177.9L258.27,177.73L261.58,176.04L261.58,175.87L273.05,168.76L273.95,168.59L275.06,167.58L275.61,167.41L276.21,166.56L276.59,166.39L282.09,164.36L285.69,164.19L292.23,162.67L292.24,162.5L295.72,160.98L295.79,160.81L298.13,159.29L299.15,159.12L301.18,157.77L302.36,157.6L305.06,156.24L305.17,156.07L305.98,155.23L307.24,155.06L309.36,153.03L310.42,152.86L311.33,151.34L311.4,151.17L312.1,150.66L312.44,150.49L314.58,149.31L315.13,149.14L316.52,148.29L317.16,148.12L318.36,146.77L318.47,146.6L321.71,145.08L321.71,144.91L330.66,141.36L330.66,141.19L336.99,139.49L338.42,139.33L344.38,136.79L344.4,136.62L345.97,135.43L346.41,135.27L350.03,134.08L350.83,133.91L351.44,133.57L351.69,133.4L353.04,132.9L353.32,132.73L356.47,131.54L356.63,131.37L357.08,130.7L357.76,130.53L358.48,130.02L358.99,129.85L363.19,127.65L364.13,127.48L371.96,124.95L372.74,124.78L381.01,121.22L381.65,121.06L381.65,119.87L382.93,119.7L383.98,119.19L385.84,119.03L386.3,118.52L387.13,118.35L387.14,118.18L388.29,118.01L388.43,117.84L390.01,117.67L395.23,115.47L395.5,115.3L396.19,114.46L396.34,114.29L397.11,113.61L397.43,113.44L401.32,111.92L401.34,111.75L402.29,111.24L402.58,111.07L403.19,110.4L404.64,110.23L405.43,109.38L406.27,109.21L413.42,106.51L414.14,106.34L418.49,104.31L418.51,104.14L419.31,103.63L420.47,103.46L421.7,102.78L422.52,102.62L428.84,97.37L428.86,97.2L429.71,96.19L429.71,96.02L430.44,94.83L430.71,94.66L435.74,90.77L436.33,90.6L437.97,88.91L438.42,88.74L439.99,87.56L440.48,87.39L441.55,86.54L441.73,86.38L442.76,86.04L444.6,85.87L448.92,83.33L448.95,83.16L449.65,81.64L449.81,81.47L451,78.59L451.1,78.42L451.7,76.73L451.96,76.56L452.54,75.72L452.79,75.55L459.77,70.47L460.04,70.3L464.14,65.06L464.58,64.89L465.95,63.88L465.97,63.71L467.41,62.86L467.83,62.69L470.76,58.97L471.16,58.8L474.12,57.45L474.23,57.28L476.96,54.57L476.97,54.4L478.24,53.05L478.25,52.88L478.97,52.2L479.01,52.03L482.37,47.97L483,47.8L483.88,46.79L484.49,46.62L486.36,45.1L486.48,44.93L487.62,43.91L487.92,43.74L489.53,43.24L489.97,43.07L491.25,40.87L492.04,40.7L494.43,39.01L496.13,38.84L496.18,38.67L497.03,38.5L500.38,36.64L500.52,36.47L504.56,34.44L504.58,34.27L506.29,33.26L506.58,33.09L508.67,32.07L508.81,31.9L514.83,28.86L515.66,28.69L516.43,28.01L516.67,27.84L516.84,27.5L517.57,27.33L519.48,26.15L519.55,25.98L522.62,24.97L522.67,24.8L523.9,23.44L524.31,23.27L524.64,22.77L525.6,22.6L525.73,22.26L526.77,22.09L530.82,20.23L530.99,20.06L533.57,18.54L533.61,18.37L540,16" style="vector-effect: none; fill: none; stroke: rgb(255, 127, 14); stroke-opacity: 1; stroke-width: 2px; opacity: 1;"/></g><g class="points"/><g class="text"/></g></g></g></g><g class="zerolinelayer-above"/><path class="xlines-above crisp" d="M0,0" style="fill: none;"/><path class="ylines-above crisp" d="M0,0" style="fill: none;"/><g class="overlines-above"/><g class="xaxislayer-above"><g class="xtick"><text text-anchor="middle" x="0" y="439" transform="translate(101.28,0)" style="font-family: 'Open Sans'; font-size: 18px; fill: rgb(255, 255, 255); fill-opacity: 1; white-space: pre;">2016</text></g><g class="xtick"><text text-anchor="middle" x="0" y="439" style="font-family: 'Open Sans'; font-size: 18px; fill: rgb(255, 255, 255); fill-opacity: 1; white-space: pre;" transform="translate(206.87,0)">2018</text></g><g class="xtick"><text text-anchor="middle" x="0" y="439" style="font-family: 'Open Sans'; font-size: 18px; fill: rgb(255, 255, 255); fill-opacity: 1; white-space: pre;" transform="translate(312.32,0)">2020</text></g><g class="xtick"><text text-anchor="middle" x="0" y="439" style="font-family: 'Open Sans'; font-size: 18px; fill: rgb(255, 255, 255); fill-opacity: 1; white-space: pre;" transform="translate(417.92,0)">2022</text></g><g class="xtick"><text text-anchor="middle" x="0" y="439" style="font-family: 'Open Sans'; font-size: 18px; fill: rgb(255, 255, 255); fill-opacity: 1; white-space: pre;" transform="translate(523.37,0)">2024</text></g></g><g class="yaxislayer-above"><g class="ytick"><text text-anchor="end" x="79" y="6.3" transform="translate(0,420)" style="font-family: 'Open Sans'; font-size: 18px; fill: rgb(255, 255, 255); fill-opacity: 1; white-space: pre;">0</text></g><g class="ytick"><text text-anchor="end" x="79" y="6.3" style="font-family: 'Open Sans'; font-size: 18px; fill: rgb(255, 255, 255); fill-opacity: 1; white-space: pre;" transform="translate(0,335.40999999999997)">500</text></g><g class="ytick"><text text-anchor="end" x="79" y="6.3" style="font-family: 'Open Sans'; font-size: 18px; fill: rgb(255, 255, 255); fill-opacity: 1; white-space: pre;" transform="translate(0,250.83)">1000</text></g><g class="ytick"><text text-anchor="end" x="79" y="6.3" style="font-family: 'Open Sans'; font-size: 18px; fill: rgb(255, 255, 255); fill-opacity: 1; white-space: pre;" transform="translate(0,166.24)">1500</text></g></g><g class="overaxes-above"/></g></g><g class="polarlayer"/><g class="smithlayer"/><g class="ternarylayer"/><g class="geolayer"/><g class="funnelarealayer"/><g class="pielayer"/><g class="iciclelayer"/><g class="treemaplayer"/><g class="sunburstlayer"/><g class="glimages"/><defs id="topdefs-9d30c6"><g class="clips"/></defs><g class="layer-above"><g class="imagelayer"/><g class="shapelayer"/></g><g class="infolayer"><g class="g-gtitle"><text class="gtitle" x="35" y="50" text-anchor="start" dy="0em" style="opacity: 1; font-family: 'Open Sans'; font-size: 25px; fill: rgb(255, 255, 255); fill-opacity: 1; white-space: pre;">MultiQC/MultiQC - Issues Created Over Time</text></g><g class="g-xtitle"><text class="xtitle" x="350" y="472.9" text-anchor="middle" style="opacity: 1; font-family: 'Open Sans'; font-size: 22px; fill: rgb(255, 255, 255); fill-opacity: 1; white-space: pre;">Date</text></g><g class="g-ytitle"><text class="ytitle" transform="rotate(-90,20.799999999999997,260)" x="20.799999999999997" y="260" text-anchor="middle" style="opacity: 1; font-family: 'Open Sans'; font-size: 22px; fill: rgb(255, 255, 255); fill-opacity: 1; white-space: pre;">Cumulative Issues Created</text></g></g></svg>