<svg class="main-svg" xmlns="http://www.w3.org/2000/svg" xmlns:xlink="http://www.w3.org/1999/xlink" width="700" height="500" style="" viewBox="0 0 700 500"><rect x="0" y="0" width="700" height="500" style="fill: rgb(0, 0, 0); fill-opacity: 0;"/><defs id="defs-e6be7f"><g class="clips"><clipPath id="clipe6be7fxyplot" class="plotclip"><rect width="540" height="320"/></clipPath><clipPath class="axesclip" id="clipe6be7fx"><rect x="80" y="0" width="540" height="500"/></clipPath><clipPath class="axesclip" id="clipe6be7fy"><rect x="0" y="100" width="700" height="320"/></clipPath><clipPath class="axesclip" id="clipe6be7fxy"><rect x="80" y="100" width="540" height="320"/></clipPath></g><g class="gradients"/><g class="patterns"/></defs><g class="bglayer"><rect class="bg" x="80" y="100" width="540" height="320" style="fill: rgb(0, 0, 0); fill-opacity: 0; stroke-width: 0;"/></g><g class="layer-below"><g class="imagelayer"/><g class="shapelayer"/></g><g class="cartesianlayer"><g class="subplot xy"><g class="layer-subplot"><g class="shapelayer"/><g class="imagelayer"/></g><g class="minor-gridlayer"><g class="x"/><g class="y"/></g><g class="gridlayer"><g class="x"><path class="xgrid crisp" transform="translate(101.31,0)" d="M0,100v320" style="stroke: rgb(255, 255, 255); stroke-opacity: 1; stroke-width: 1px;"/><path class="xgrid crisp" transform="translate(207.04000000000002,0)" d="M0,100v320" style="stroke: rgb(255, 255, 255); stroke-opacity: 1; stroke-width: 1px;"/><path class="xgrid crisp" transform="translate(312.64,0)" d="M0,100v320" style="stroke: rgb(255, 255, 255); stroke-opacity: 1; stroke-width: 1px;"/><path class="xgrid crisp" transform="translate(418.37,0)" d="M0,100v320" style="stroke: rgb(255, 255, 255); stroke-opacity: 1; stroke-width: 1px;"/><path class="xgrid crisp" transform="translate(523.97,0)" d="M0,100v320" style="stroke: rgb(255, 255, 255); stroke-opacity: 1; stroke-width: 1px;"/></g><g class="y"><path class="ygrid crisp" transform="translate(0,356.13)" d="M80,0h540" style="stroke: rgb(255, 255, 255); stroke-opacity: 1; stroke-width: 1px;"/><path class="ygrid crisp" transform="translate(0,292.27)" d="M80,0h540" style="stroke: rgb(255, 255, 255); stroke-opacity: 1; stroke-width: 1px;"/><path class="ygrid crisp" transform="translate(0,228.4)" d="M80,0h540" style="stroke: rgb(255, 255, 255); stroke-opacity: 1; stroke-width: 1px;"/><path class="ygrid crisp" transform="translate(0,164.54000000000002)" d="M80,0h540" style="stroke: rgb(255, 255, 255); stroke-opacity: 1; stroke-width: 1px;"/></g></g><g class="zerolinelayer"><path class="yzl zl crisp" transform="translate(0,420)" d="M80,0h540" style="stroke: rgb(255, 255, 255); stroke-opacity: 1; stroke-width: 2px;"/></g><g class="layer-between"><g class="shapelayer"/><g class="imagelayer"/></g><path class="xlines-below"/><path class="ylines-below"/><g class="overlines-below"/><g class="xaxislayer-below"/><g class="yaxislayer-below"/><g class="overaxes-below"/><g class="overplot"><g class="xy" transform="translate(80,100)" clip-path="url(#clipe6be7fxyplot)"><g class="scatterlayer mlayer"><g class="trace scatter tracea2d994" style="stroke-miterlimit: 2;"><g class="fills"><g><path class="js-fill" d="M540,320L0,320L0,318.72L0,316.17L0.57,317.45L1.87,318.72L1.99,317.45L3.03,318.72L3.88,312.34L3.91,313.61L4.6,312.34L5.04,307.23L5.21,308.5L5.59,309.78L5.77,305.95L6.06,311.06L6.21,308.5L6.52,309.78L7.21,298.29L7.33,297.01L7.5,295.73L7.78,298.29L7.78,299.56L7.79,300.84L7.96,290.62L8.67,289.34L9.06,298.29L9.07,299.56L9.81,308.5L9.82,307.23L9.95,305.95L10.24,302.12L10.24,300.84L10.69,298.29L10.73,302.12L11.12,303.39L11.14,302.12L11.71,305.95L11.83,304.67L11.98,303.39L12.97,285.51L13.01,290.62L13.01,291.9L13.14,290.62L13.45,294.45L13.64,291.9L13.87,290.62L14.28,284.24L14.43,288.07L14.85,286.79L15.05,285.51L15.18,288.07L15.89,289.34L16.06,293.18L17.28,291.9L17.9,289.34L18.03,288.07L18.77,282.96L18.78,284.24L18.92,282.96L19.37,284.24L21.96,282.96L21.97,284.24L22.38,280.4L22.38,282.96L23.95,281.68L24.14,282.96L24.3,281.68L25.15,280.4L25.89,277.85L26,279.13L26.32,277.85L27.08,286.79L27.15,285.51L27.44,281.68L27.89,284.24L27.91,285.51L28.05,284.24L28.3,285.51L29.5,286.79L30.98,282.96L31.2,284.24L31.24,288.07L31.24,288.07L32.06,286.79L32.55,290.62L32.97,289.34L33.17,295.73L34.09,297.01L34.81,294.45L34.81,295.73L34.96,297.01L35.56,294.45L35.86,293.18L36.61,295.73L36.99,294.45L36.99,295.73L37.13,289.34L37.42,290.62L38.14,289.34L38.37,285.51L38.57,293.18L39.08,294.45L39.15,293.18L39.61,297.01L39.66,298.29L39.89,293.18L40.19,294.45L40.5,295.73L41.37,289.34L41.49,291.9L41.5,293.18L42.06,289.34L42.08,291.9L42.22,293.18L43.65,285.51L44.35,284.24L44.66,282.96L45.28,284.24L45.97,285.51L46.26,284.24L46.28,288.07L46.75,282.96L47.02,284.24L47.09,281.68L47.41,288.07L47.57,289.34L48.15,293.18L48.3,290.62L48.31,289.34L48.42,293.18L48.74,291.9L49.31,293.18L49.31,297.01L49.61,294.45L50.19,295.73L50.58,294.45L50.58,295.73L51.3,294.45L51.3,295.73L51.49,293.18L51.62,293.18L52.47,291.9L53.67,289.34L54.23,290.62L54.23,291.9L54.68,288.07L54.83,290.62L55.29,289.34L55.39,288.07L55.7,291.9L56.55,290.62L57.91,285.51L58.43,284.24L59.69,272.74L59.76,275.29L59.86,276.57L59.86,277.85L60.47,275.29L60.64,274.02L60.76,272.74L60.78,274.02L62.38,272.74L62.92,266.35L63.44,267.63L63.94,265.08L64.05,266.35L64.51,265.08L65.93,251.03L65.96,253.58L66.71,252.3L67.38,254.86L67.38,256.13L67.7,262.52L68.41,261.24L69.7,257.41L70.46,256.13L70.72,263.8L71.64,262.52L72.76,275.29L72.91,274.02L73.45,272.74L73.45,271.46L73.86,271.46L74.32,272.74L75.42,268.91L75.43,270.18L75.9,267.63L75.95,268.91L76.83,267.63L77.63,266.35L78.15,265.08L81.54,254.86L81.54,256.13L82,259.97L82.14,256.13L82.55,257.41L82.85,258.69L82.91,254.86L83.12,257.41L83.87,258.69L84.2,252.3L84.22,253.58L85.38,252.3L85.59,253.58L85.79,252.3L86.03,251.03L86.06,249.75L86.78,253.58L86.92,252.3L87.06,253.58L87.64,249.75L87.65,251.03L87.79,252.3L88.21,257.41L88.63,256.13L88.98,254.86L88.98,252.3L89.09,256.13L90.08,254.86L90.08,256.13L90.11,253.58L90.79,256.13L90.97,254.86L91.79,257.41L92.13,256.13L92.72,257.41L92.81,258.69L93.13,263.8L93.68,262.52L93.99,271.46L94.29,268.91L94.77,267.63L95.85,263.8L95.99,265.08L95.99,266.35L97.89,258.69L97.91,259.97L100.05,252.3L100.19,253.58L100.19,254.86L101.11,257.41L101.22,258.69L102.09,270.18L102.41,268.91L102.83,271.46L102.83,270.18L102.92,268.91L102.97,271.46L103.4,258.69L103.4,258.69L103.83,257.41L104.15,254.86L104.43,261.24L104.83,259.97L105.85,257.41L105.85,258.69L105.85,259.97L105.98,262.52L106.43,261.24L106.93,259.97L107.29,263.8L107.42,261.24L107.84,259.97L107.86,261.24L108.43,258.69L108.45,259.97L109.05,258.69L109.16,257.41L109.17,258.69L109.87,259.97L109.87,261.24L110.49,259.97L111.07,258.69L111.3,254.86L111.48,254.86L111.91,253.58L113.31,247.19L113.35,248.47L113.42,249.75L115.54,245.92L116.11,247.19L117.55,243.36L118.03,244.64L118.33,243.36L119.19,274.02L119.29,272.74L119.93,270.18L120.21,271.46L120.63,270.18L120.63,271.46L121.64,270.18L122.05,271.46L122.36,270.18L122.37,268.91L123.07,267.63L123.33,268.91L123.34,271.46L123.56,266.35L124.09,265.08L124.09,266.35L124.53,263.8L124.58,263.8L125.16,262.52L125.16,261.24L125.66,267.63L127.44,266.35L127.67,267.63L127.72,266.35L128.25,265.08L128.7,259.97L129.51,258.69L131.25,253.58L131.63,254.86L132.11,252.3L132.19,253.58L132.19,254.86L132.35,261.24L132.72,258.69L133.27,257.41L133.8,254.86L134.05,256.13L134.66,261.24L135.39,259.97L136.4,254.86L136.79,256.13L137.49,254.86L138.58,253.58L139.75,249.75L140.58,251.03L140.58,249.75L141.26,251.03L141.34,249.75L141.45,251.03L141.94,249.75L142.3,248.47L142.31,251.03L142.86,245.92L142.86,245.92L143.32,244.64L143.32,242.08L143.9,243.36L144.26,242.08L144.78,239.53L144.81,238.25L144.88,236.97L144.94,240.81L145.5,239.53L145.52,240.81L145.94,238.25L146.59,239.53L146.99,235.7L147.25,247.19L147.82,245.92L148.58,243.36L148.66,244.64L148.67,243.36L148.69,245.92L149.9,244.64L150.57,243.36L150.68,245.92L151.52,244.64L151.54,245.92L152.2,242.08L152.27,243.36L152.84,244.64L153.46,243.36L153.47,244.64L153.5,243.36L154.62,242.08L154.63,243.36L154.81,239.53L155.09,239.53L155.6,238.25L156.92,233.14L157.46,234.42L157.46,233.14L158.14,239.53L158.51,238.25L159.74,236.97L160.08,238.25L162.55,231.87L162.7,233.14L163.23,228.03L163.53,226.76L164.86,219.09L165.62,217.82L165.62,219.09L166.01,217.82L167.13,216.54L167.19,215.26L167.65,220.37L168.1,219.09L169.18,216.54L169.18,215.26L169.2,213.98L169.42,222.92L170.72,221.65L170.97,219.09L172.1,217.82L172.85,222.92L173.21,221.65L176.18,211.43L176.25,210.15L176.3,211.43L178.08,210.15L178.33,215.26L178.34,216.54L178.35,220.37L178.77,217.82L180.78,216.54L180.8,219.09L180.95,217.82L181.72,216.54L182.24,211.43L182.25,212.71L182.79,213.98L183.15,215.26L184.08,210.15L184.14,211.43L184.28,212.71L185.14,211.43L185.15,212.71L188.34,207.6L188.44,206.32L189.03,202.49L189.04,203.76L189.47,202.49L189.49,205.04L190.17,203.76L190.35,202.49L191.06,203.76L191.36,202.49L192.12,201.21L192.31,199.93L193.09,197.38L193.23,196.1L193.41,197.38L193.56,194.82L193.58,196.1L194.4,194.82L195.81,185.88L195.81,188.44L196.08,187.16L196.42,184.61L196.74,185.88L197.28,184.61L197.48,182.05L197.55,183.33L197.96,184.61L199.19,179.5L200.39,178.22L200.39,179.5L200.5,179.5L201.89,178.22L202.64,179.5L203.39,178.22L203.62,176.94L203.62,178.22L205.52,176.94L206.24,175.66L206.26,176.94L206.26,178.22L206.65,176.94L207.51,178.22L207.51,179.5L208.22,179.5L208.4,178.22L209.4,175.66L210.14,174.39L210.81,170.55L211.19,171.83L212.61,166.72L212.95,168L214.41,166.72L214.64,165.45L215.66,164.17L215.78,165.45L218.36,160.34L218.67,161.61L219.04,157.78L219.8,156.5L220.25,159.06L220.28,157.78L220.57,156.5L221.33,153.95L221.55,155.23L221.59,156.5L221.61,160.34L222.34,157.78L222.36,156.5L222.81,155.23L223.31,162.89L223.33,161.61L224.08,160.34L224.3,161.61L224.78,157.78L224.92,159.06L225.64,168L225.68,166.72L225.94,183.33L226.45,182.05L226.74,189.71L227.34,188.44L227.51,189.71L227.95,184.61L227.95,185.88L228.11,187.16L228.39,188.44L228.56,185.88L228.68,184.61L229.66,179.5L229.97,178.22L230.46,174.39L230.5,173.11L230.61,178.22L231.56,176.94L233.61,174.39L233.64,173.11L234.25,166.72L234.63,165.45L235.09,166.72L236.78,165.45L237.96,162.89L238.04,161.61L238.92,160.34L239.34,161.61L240.09,159.06L241.99,157.78L242.59,155.23L242.66,153.95L242.83,151.39L243.58,150.12L243.71,151.39L243.9,150.12L245.08,148.84L245.41,145.01L245.43,152.67L245.43,153.95L245.43,155.23L245.99,150.12L246.44,148.84L246.65,150.12L247.63,148.84L247.79,150.12L248.03,148.84L248.64,150.12L248.72,148.84L248.9,153.95L249.34,151.39L249.61,152.67L249.93,151.39L249.95,153.95L250.05,153.95L250.06,155.23L251.1,151.39L251.55,150.12L251.97,147.56L252.11,153.95L252.49,152.67L252.81,151.39L252.96,152.67L253,153.95L253.08,152.67L253.4,155.23L253.72,156.5L253.81,153.95L253.84,164.17L253.85,165.45L254.68,187.16L254.81,185.88L255.13,187.16L255.69,185.88L256.75,180.77L256.84,182.05L258.18,173.11L258.33,174.39L258.61,173.11L259.88,169.28L259.88,170.55L260.03,171.83L260.64,168L260.95,166.72L261.15,165.45L261.81,166.72L262.45,160.34L262.92,159.06L263.41,153.95L263.43,155.23L263.98,156.5L264.82,151.39L265,150.12L266.29,142.45L266.74,141.18L266.94,139.9L268.01,138.62L269.46,130.96L269.89,129.68L270.91,125.85L270.95,127.13L272.33,120.74L273.01,119.46L275.04,113.08L275.05,114.35L278.11,97.75L278.33,99.03L278.35,101.58L279.29,100.3L279.3,101.58L279.6,99.03L280.03,97.75L280.67,96.47L280.97,97.75L282.16,96.47L282.17,95.19L282.47,92.64L284.97,93.92L285.14,123.29L286.07,122.02L287.28,123.29L287.44,122.02L287.44,120.74L287.53,124.57L287.71,122.02L288.32,123.29L291.3,122.02L292.05,120.74L292.62,116.91L292.63,115.63L292.75,118.18L293.29,116.91L293.41,115.63L293.46,116.91L294.42,115.63L295.63,122.02L295.75,120.74L295.97,122.02L296.67,116.91L297.35,115.63L297.39,116.91L297.92,111.8L298.29,113.08L298.59,127.13L299.55,125.85L299.73,127.13L300.25,124.57L300.26,125.85L300.26,127.13L301.3,124.57L301.47,125.85L301.58,123.29L302.04,124.57L302.43,125.85L302.91,127.13L303.43,125.85L304.93,120.74L305.25,119.46L305.58,122.02L305.74,116.91L305.86,118.18L305.91,116.91L306.48,118.18L307.65,116.91L307.67,118.18L308.23,115.63L308.58,114.35L308.91,109.24L309.18,110.52L309.57,111.8L309.58,116.91L309.78,114.35L310.84,113.08L311.58,124.57L311.58,123.29L311.69,122.02L311.71,120.74L312.03,132.24L312.18,132.24L312.29,133.51L312.34,142.45L312.86,141.18L313.05,139.9L313.41,141.18L313.44,139.9L313.74,138.62L314.42,136.07L315,134.79L315.72,133.51L315.8,132.24L315.86,130.96L316.7,129.68L316.94,130.96L316.94,129.68L317.59,128.4L317.91,132.24L318.02,128.4L318.49,127.13L318.89,123.29L319.55,122.02L319.75,120.74L321.11,119.46L321.8,115.63L321.86,114.35L323.1,106.69L324.11,105.41L326.88,96.47L328.01,95.19L328.81,92.64L329.65,91.36L329.79,88.81L330.55,90.08L330.92,109.24L331.12,107.97L331.41,109.24L331.7,107.97L331.71,110.52L332.07,109.24L332.72,110.52L333.24,109.24L333.99,110.52L335.15,106.69L336.13,105.41L337.44,104.13L337.79,105.41L337.84,106.69L338.87,105.41L339.4,102.86L339.87,104.13L340.05,102.86L340.5,104.13L340.52,105.41L340.52,106.69L341.22,104.13L341.91,105.41L342.35,141.18L342.92,139.9L342.92,141.18L343.38,136.07L343.38,137.34L343.82,138.62L344,142.45L344.56,138.62L344.84,137.34L344.86,138.62L345.48,130.96L345.83,129.68L345.96,132.24L346.44,130.96L346.88,129.68L347.88,132.24L348.29,130.96L349.29,129.68L349.3,130.96L349.92,129.68L350.15,128.4L350.5,127.13L350.92,128.4L351.31,127.13L351.91,125.85L352.17,124.57L352.37,122.02L353.51,120.74L353.79,119.46L354.91,118.18L356.55,113.08L356.55,114.35L356.58,115.63L357.56,110.52L358.1,111.8L358.96,106.69L358.97,107.97L359.47,106.69L359.52,107.97L360.15,105.41L360.16,104.13L360.27,101.58L361.6,100.3L362.47,97.75L362.5,96.47L363.34,93.92L363.68,92.64L364.64,97.75L365.03,96.47L365.22,95.19L366.77,92.64L366.98,93.92L368.11,91.36L368.68,90.08L369.23,86.25L370.27,84.97L371.27,82.42L371.49,83.7L371.55,84.97L371.56,83.7L372.46,82.42L373.61,79.87L373.72,78.59L374.73,77.31L374.75,78.59L374.82,96.47L375.48,92.64L375.74,93.92L376.38,91.36L376.62,90.08L377.39,91.36L378.32,90.08L378.96,86.25L379.07,87.53L379.36,86.25L380.66,83.7L381.52,82.42L382.16,79.87L382.16,78.59L382.16,72.2L383.45,70.92L384.5,67.09L386.03,68.37L386.03,70.92L386.46,67.09L386.46,68.37L386.81,67.09L387.32,68.37L387.65,67.09L387.66,65.82L387.92,67.09L388.81,65.82L388.95,64.54L388.95,65.82L390.29,67.09L390.94,65.82L391,67.09L391.17,68.37L391.8,69.65L392.12,70.92L392.32,84.97L393.32,86.25L394.36,83.7L394.88,82.42L395.02,79.87L395.05,83.7L395.49,84.97L396.72,76.03L396.73,77.31L396.73,76.03L396.75,82.42L397.07,79.87L397.64,78.59L398.97,74.76L400.12,73.48L400.84,69.65L401.56,68.37L401.94,64.54L402.43,67.09L402.69,65.82L403.73,59.43L403.73,60.71L405.19,59.43L405.98,53.04L405.99,54.32L405.99,55.6L406.82,54.32L407.15,55.6L407.19,54.32L407.71,53.04L408.28,50.49L408.94,51.76L409.91,47.93L410.55,46.66L411.18,44.1L411.41,45.38L411.55,46.66L411.87,47.93L412.08,46.66L413.28,47.93L415.7,38.99L415.99,37.71L416.99,36.44L417.74,37.71L418.85,33.88L418.93,32.61L418.99,33.88L419.16,28.77L419.79,30.05L419.87,27.5L421.04,26.22L421.2,23.66L421.39,26.22L421.66,27.5L422.06,26.22L422.23,27.5L422.26,28.77L422.54,31.33L423.08,30.05L424.14,22.39L424.18,26.22L424.85,24.94L424.93,23.66L425.15,26.22L425.39,26.22L425.56,27.5L426.36,22.39L426.69,23.66L426.83,27.5L427.34,22.39L427.68,21.11L428.26,18.55L428.27,19.83L428.33,21.11L428.9,16L429,18.55L429.27,19.83L429.44,17.28L429.58,32.61L429.58,33.88L429.99,36.44L430.28,33.88L430.28,32.61L430.29,24.94L430.99,33.88L431.02,30.05L431.14,31.33L432.86,22.39L432.91,23.66L433.06,36.44L433.47,31.33L433.76,30.05L433.8,32.61L434.33,30.05L434.93,28.77L435.58,32.61L435.86,31.33L436.1,30.05L436.25,32.61L436.33,31.33L436.91,30.05L437.57,40.27L437.59,38.99L437.98,37.71L438.06,36.44L438.38,40.27L438.56,37.71L438.66,38.99L439.43,33.88L439.47,35.16L439.61,36.44L440.26,33.88L440.32,32.61L440.58,31.33L440.99,32.61L440.99,33.88L441.57,51.76L441.86,53.04L442.51,49.21L443.36,47.93L443.5,51.76L444.5,53.04L445.62,50.49L445.66,49.21L445.82,50.49L446.2,49.21L446.67,47.93L447.14,45.38L447.26,49.21L447.4,47.93L447.64,46.66L448.3,44.1L448.66,45.38L449.29,51.76L449.52,49.21L449.55,47.93L450.26,51.76L450.41,50.49L450.81,41.55L451.19,49.21L451.29,47.93L451.58,44.1L451.7,50.49L451.7,51.76L451.7,53.04L452.3,44.1L452.43,46.66L452.56,45.38L452.92,41.55L453.15,42.82L453.34,44.1L453.59,41.55L453.76,50.49L453.76,51.76L454.06,69.65L454.49,64.54L454.59,65.82L454.6,67.09L455.37,65.82L455.6,63.26L455.66,73.48L455.79,72.2L456.09,70.92L456.19,72.2L456.6,70.92L456.65,72.2L456.75,69.65L457.37,68.37L458.02,64.54L458.21,63.26L458.96,56.87L459.22,59.43L459.25,60.71L459.41,59.43L459.79,65.82L460.38,64.54L460.51,65.82L460.78,63.26L460.96,64.54L461.3,65.82L461.97,55.6L462.28,54.32L462.3,53.04L462.39,56.87L462.75,54.32L463.25,53.04L463.26,54.32L463.86,44.1L463.89,46.66L464.71,45.38L465.2,41.55L465.77,42.82L465.91,40.27L466.19,46.66L466.58,45.38L466.6,44.1L466.92,42.82L467.19,45.38L467.49,44.1L467.67,46.66L468.04,44.1L468.39,45.38L468.93,38.99L469.29,41.55L469.35,42.82L469.48,41.55L469.51,45.38L469.96,42.82L470.39,41.55L470.41,40.27L470.96,51.76L470.98,49.21L471.12,47.93L472.38,51.76L472.57,50.49L472.83,53.04L473.3,51.76L473.56,50.49L474.57,55.6L474.72,53.04L474.75,51.76L474.86,49.21L475.42,53.04L475.43,53.04L475.78,51.76L476.03,47.93L476.43,51.76L476.47,53.04L476.79,51.76L477.64,72.2L477.92,70.92L479.65,55.6L479.75,56.87L479.82,54.32L479.93,65.82L480.22,64.54L480.22,65.82L480.79,64.54L480.81,65.82L481.08,67.09L481.48,74.76L481.78,72.2L481.92,70.92L482.05,65.82L482.67,67.09L482.69,65.82L482.92,63.26L482.95,68.37L483.11,67.09L483.59,68.37L483.87,69.65L484.17,65.82L484.53,64.54L484.84,68.37L484.85,69.65L486.14,65.82L486.86,64.54L487.13,59.43L487.44,64.54L487.76,63.26L488.89,53.04L489.68,54.32L490.21,67.09L490.62,65.82L490.72,68.37L491.07,60.71L491.18,63.26L491.25,61.98L491.51,60.71L491.64,63.26L491.65,64.54L491.65,68.37L491.98,68.37L492.7,67.09L492.89,65.82L493.22,68.37L493.23,69.65L493.88,67.09L494.14,81.14L494.23,79.87L494.23,77.31L494.8,84.97L495.09,83.7L495.31,84.97L496.79,83.7L497.4,84.97L497.7,83.7L498.16,84.97L498.18,83.7L498.73,82.42L498.73,81.14L499,84.97L499.08,83.7L499.71,82.42L499.94,83.7L500.27,82.42L500.68,81.14L500.75,78.59L500.89,82.42L501.19,81.14L501.73,79.87L501.81,78.59L502.24,83.7L502.25,84.97L503.36,81.14L503.76,82.42L504.02,79.87L504.33,81.14L504.33,82.42L504.94,84.97L505.12,83.7L505.92,76.03L505.95,77.31L505.95,78.59L505.95,81.14L506.11,78.59L506.97,79.87L506.97,78.59L507.26,78.59L508.44,77.31L509,73.48L509.13,74.76L509.25,76.03L510.46,68.37L510.86,69.65L510.86,70.92L511.17,65.82L511.34,67.09L511.88,65.82L512.46,68.37L512.48,69.65L512.97,68.37L513.03,69.65L513.33,68.37L513.33,67.09L514.06,69.65L514.25,68.37L514.35,67.09L515.28,65.82L515.91,67.09L516.35,65.82L517.12,60.71L517.36,59.43L517.38,60.71L517.53,59.43L518.27,58.15L518.53,60.71L519,59.43L519.11,60.71L519.53,55.6L519.69,58.15L519.98,59.43L520.24,55.6L522.06,56.87L522.39,53.04L523.04,54.32L523.3,67.09L523.75,63.26L523.89,64.54L524.02,67.09L524.61,65.82L525.02,64.54L525.34,60.71L526.3,59.43L526.43,56.87L527.47,55.6L528.15,53.04L528.26,51.76L528.39,49.21L529.84,50.49L530.26,69.65L530.56,67.09L530.64,65.82L530.7,68.37L531.45,67.09L532.41,63.26L532.42,64.54L533.15,70.92L533.2,69.65L533.64,68.37L534.28,63.26L534.32,64.54L534.78,63.26L537.3,58.15L537.64,56.87L538.28,54.32L538.76,53.04L539.74,50.49L539.8,49.21L540,50.49" style="fill: rgb(255, 127, 14); fill-opacity: 0.5; stroke-width: 0;"/></g></g><g class="errorbars"/><g class="lines"><path class="js-line" d="M0,318.72L0,316.17L0.57,317.45L1.87,318.72L1.99,317.45L3.03,318.72L3.88,312.34L3.91,313.61L4.6,312.34L5.04,307.23L5.21,308.5L5.59,309.78L5.77,305.95L6.06,311.06L6.21,308.5L6.52,309.78L7.21,298.29L7.33,297.01L7.5,295.73L7.78,298.29L7.78,299.56L7.79,300.84L7.96,290.62L8.67,289.34L9.06,298.29L9.07,299.56L9.81,308.5L9.82,307.23L9.95,305.95L10.24,302.12L10.24,300.84L10.69,298.29L10.73,302.12L11.12,303.39L11.14,302.12L11.71,305.95L11.83,304.67L11.98,303.39L12.97,285.51L13.01,290.62L13.01,291.9L13.14,290.62L13.45,294.45L13.64,291.9L13.87,290.62L14.28,284.24L14.43,288.07L14.85,286.79L15.05,285.51L15.18,288.07L15.89,289.34L16.06,293.18L17.28,291.9L17.9,289.34L18.03,288.07L18.77,282.96L18.78,284.24L18.92,282.96L19.37,284.24L21.96,282.96L21.97,284.24L22.38,280.4L22.38,282.96L23.95,281.68L24.14,282.96L24.3,281.68L25.15,280.4L25.89,277.85L26,279.13L26.32,277.85L27.08,286.79L27.15,285.51L27.44,281.68L27.89,284.24L27.91,285.51L28.05,284.24L28.3,285.51L29.5,286.79L30.98,282.96L31.2,284.24L31.24,288.07L31.24,288.07L32.06,286.79L32.55,290.62L32.97,289.34L33.17,295.73L34.09,297.01L34.81,294.45L34.81,295.73L34.96,297.01L35.56,294.45L35.86,293.18L36.61,295.73L36.99,294.45L36.99,295.73L37.13,289.34L37.42,290.62L38.14,289.34L38.37,285.51L38.57,293.18L39.08,294.45L39.15,293.18L39.61,297.01L39.66,298.29L39.89,293.18L40.19,294.45L40.5,295.73L41.37,289.34L41.49,291.9L41.5,293.18L42.06,289.34L42.08,291.9L42.22,293.18L43.65,285.51L44.35,284.24L44.66,282.96L45.28,284.24L45.97,285.51L46.26,284.24L46.28,288.07L46.75,282.96L47.02,284.24L47.09,281.68L47.41,288.07L47.57,289.34L48.15,293.18L48.3,290.62L48.31,289.34L48.42,293.18L48.74,291.9L49.31,293.18L49.31,297.01L49.61,294.45L50.19,295.73L50.58,294.45L50.58,295.73L51.3,294.45L51.3,295.73L51.49,293.18L51.62,293.18L52.47,291.9L53.67,289.34L54.23,290.62L54.23,291.9L54.68,288.07L54.83,290.62L55.29,289.34L55.39,288.07L55.7,291.9L56.55,290.62L57.91,285.51L58.43,284.24L59.69,272.74L59.76,275.29L59.86,276.57L59.86,277.85L60.47,275.29L60.64,274.02L60.76,272.74L60.78,274.02L62.38,272.74L62.92,266.35L63.44,267.63L63.94,265.08L64.05,266.35L64.51,265.08L65.93,251.03L65.96,253.58L66.71,252.3L67.38,254.86L67.38,256.13L67.7,262.52L68.41,261.24L69.7,257.41L70.46,256.13L70.72,263.8L71.64,262.52L72.76,275.29L72.91,274.02L73.45,272.74L73.45,271.46L73.86,271.46L74.32,272.74L75.42,268.91L75.43,270.18L75.9,267.63L75.95,268.91L76.83,267.63L77.63,266.35L78.15,265.08L81.54,254.86L81.54,256.13L82,259.97L82.14,256.13L82.55,257.41L82.85,258.69L82.91,254.86L83.12,257.41L83.87,258.69L84.2,252.3L84.22,253.58L85.38,252.3L85.59,253.58L85.79,252.3L86.03,251.03L86.06,249.75L86.78,253.58L86.92,252.3L87.06,253.58L87.64,249.75L87.65,251.03L87.79,252.3L88.21,257.41L88.63,256.13L88.98,254.86L88.98,252.3L89.09,256.13L90.08,254.86L90.08,256.13L90.11,253.58L90.79,256.13L90.97,254.86L91.79,257.41L92.13,256.13L92.72,257.41L92.81,258.69L93.13,263.8L93.68,262.52L93.99,271.46L94.29,268.91L94.77,267.63L95.85,263.8L95.99,265.08L95.99,266.35L97.89,258.69L97.91,259.97L100.05,252.3L100.19,253.58L100.19,254.86L101.11,257.41L101.22,258.69L102.09,270.18L102.41,268.91L102.83,271.46L102.83,270.18L102.92,268.91L102.97,271.46L103.4,258.69L103.4,258.69L103.83,257.41L104.15,254.86L104.43,261.24L104.83,259.97L105.85,257.41L105.85,258.69L105.85,259.97L105.98,262.52L106.43,261.24L106.93,259.97L107.29,263.8L107.42,261.24L107.84,259.97L107.86,261.24L108.43,258.69L108.45,259.97L109.05,258.69L109.16,257.41L109.17,258.69L109.87,259.97L109.87,261.24L110.49,259.97L111.07,258.69L111.3,254.86L111.48,254.86L111.91,253.58L113.31,247.19L113.35,248.47L113.42,249.75L115.54,245.92L116.11,247.19L117.55,243.36L118.03,244.64L118.33,243.36L119.19,274.02L119.29,272.74L119.93,270.18L120.21,271.46L120.63,270.18L120.63,271.46L121.64,270.18L122.05,271.46L122.36,270.18L122.37,268.91L123.07,267.63L123.33,268.91L123.34,271.46L123.56,266.35L124.09,265.08L124.09,266.35L124.53,263.8L124.58,263.8L125.16,262.52L125.16,261.24L125.66,267.63L127.44,266.35L127.67,267.63L127.72,266.35L128.25,265.08L128.7,259.97L129.51,258.69L131.25,253.58L131.63,254.86L132.11,252.3L132.19,253.58L132.19,254.86L132.35,261.24L132.72,258.69L133.27,257.41L133.8,254.86L134.05,256.13L134.66,261.24L135.39,259.97L136.4,254.86L136.79,256.13L137.49,254.86L138.58,253.58L139.75,249.75L140.58,251.03L140.58,249.75L141.26,251.03L141.34,249.75L141.45,251.03L141.94,249.75L142.3,248.47L142.31,251.03L142.86,245.92L142.86,245.92L143.32,244.64L143.32,242.08L143.9,243.36L144.26,242.08L144.78,239.53L144.81,238.25L144.88,236.97L144.94,240.81L145.5,239.53L145.52,240.81L145.94,238.25L146.59,239.53L146.99,235.7L147.25,247.19L147.82,245.92L148.58,243.36L148.66,244.64L148.67,243.36L148.69,245.92L149.9,244.64L150.57,243.36L150.68,245.92L151.52,244.64L151.54,245.92L152.2,242.08L152.27,243.36L152.84,244.64L153.46,243.36L153.47,244.64L153.5,243.36L154.62,242.08L154.63,243.36L154.81,239.53L155.09,239.53L155.6,238.25L156.92,233.14L157.46,234.42L157.46,233.14L158.14,239.53L158.51,238.25L159.74,236.97L160.08,238.25L162.55,231.87L162.7,233.14L163.23,228.03L163.53,226.76L164.86,219.09L165.62,217.82L165.62,219.09L166.01,217.82L167.13,216.54L167.19,215.26L167.65,220.37L168.1,219.09L169.18,216.54L169.18,215.26L169.2,213.98L169.42,222.92L170.72,221.65L170.97,219.09L172.1,217.82L172.85,222.92L173.21,221.65L176.18,211.43L176.25,210.15L176.3,211.43L178.08,210.15L178.33,215.26L178.34,216.54L178.35,220.37L178.77,217.82L180.78,216.54L180.8,219.09L180.95,217.82L181.72,216.54L182.24,211.43L182.25,212.71L182.79,213.98L183.15,215.26L184.08,210.15L184.14,211.43L184.28,212.71L185.14,211.43L185.15,212.71L188.34,207.6L188.44,206.32L189.03,202.49L189.04,203.76L189.47,202.49L189.49,205.04L190.17,203.76L190.35,202.49L191.06,203.76L191.36,202.49L192.12,201.21L192.31,199.93L193.09,197.38L193.23,196.1L193.41,197.38L193.56,194.82L193.58,196.1L194.4,194.82L195.81,185.88L195.81,188.44L196.08,187.16L196.42,184.61L196.74,185.88L197.28,184.61L197.48,182.05L197.55,183.33L197.96,184.61L199.19,179.5L200.39,178.22L200.39,179.5L200.5,179.5L201.89,178.22L202.64,179.5L203.39,178.22L203.62,176.94L203.62,178.22L205.52,176.94L206.24,175.66L206.26,176.94L206.26,178.22L206.65,176.94L207.51,178.22L207.51,179.5L208.22,179.5L208.4,178.22L209.4,175.66L210.14,174.39L210.81,170.55L211.19,171.83L212.61,166.72L212.95,168L214.41,166.72L214.64,165.45L215.66,164.17L215.78,165.45L218.36,160.34L218.67,161.61L219.04,157.78L219.8,156.5L220.25,159.06L220.28,157.78L220.57,156.5L221.33,153.95L221.55,155.23L221.59,156.5L221.61,160.34L222.34,157.78L222.36,156.5L222.81,155.23L223.31,162.89L223.33,161.61L224.08,160.34L224.3,161.61L224.78,157.78L224.92,159.06L225.64,168L225.68,166.72L225.94,183.33L226.45,182.05L226.74,189.71L227.34,188.44L227.51,189.71L227.95,184.61L227.95,185.88L228.11,187.16L228.39,188.44L228.56,185.88L228.68,184.61L229.66,179.5L229.97,178.22L230.46,174.39L230.5,173.11L230.61,178.22L231.56,176.94L233.61,174.39L233.64,173.11L234.25,166.72L234.63,165.45L235.09,166.72L236.78,165.45L237.96,162.89L238.04,161.61L238.92,160.34L239.34,161.61L240.09,159.06L241.99,157.78L242.59,155.23L242.66,153.95L242.83,151.39L243.58,150.12L243.71,151.39L243.9,150.12L245.08,148.84L245.41,145.01L245.43,152.67L245.43,153.95L245.43,155.23L245.99,150.12L246.44,148.84L246.65,150.12L247.63,148.84L247.79,150.12L248.03,148.84L248.64,150.12L248.72,148.84L248.9,153.95L249.34,151.39L249.61,152.67L249.93,151.39L249.95,153.95L250.05,153.95L250.06,155.23L251.1,151.39L251.55,150.12L251.97,147.56L252.11,153.95L252.49,152.67L252.81,151.39L252.96,152.67L253,153.95L253.08,152.67L253.4,155.23L253.72,156.5L253.81,153.95L253.84,164.17L253.85,165.45L254.68,187.16L254.81,185.88L255.13,187.16L255.69,185.88L256.75,180.77L256.84,182.05L258.18,173.11L258.33,174.39L258.61,173.11L259.88,169.28L259.88,170.55L260.03,171.83L260.64,168L260.95,166.72L261.15,165.45L261.81,166.72L262.45,160.34L262.92,159.06L263.41,153.95L263.43,155.23L263.98,156.5L264.82,151.39L265,150.12L266.29,142.45L266.74,141.18L266.94,139.9L268.01,138.62L269.46,130.96L269.89,129.68L270.91,125.85L270.95,127.13L272.33,120.74L273.01,119.46L275.04,113.08L275.05,114.35L278.11,97.75L278.33,99.03L278.35,101.58L279.29,100.3L279.3,101.58L279.6,99.03L280.03,97.75L280.67,96.47L280.97,97.75L282.16,96.47L282.17,95.19L282.47,92.64L284.97,93.92L285.14,123.29L286.07,122.02L287.28,123.29L287.44,122.02L287.44,120.74L287.53,124.57L287.71,122.02L288.32,123.29L291.3,122.02L292.05,120.74L292.62,116.91L292.63,115.63L292.75,118.18L293.29,116.91L293.41,115.63L293.46,116.91L294.42,115.63L295.63,122.02L295.75,120.74L295.97,122.02L296.67,116.91L297.35,115.63L297.39,116.91L297.92,111.8L298.29,113.08L298.59,127.13L299.55,125.85L299.73,127.13L300.25,124.57L300.26,125.85L300.26,127.13L301.3,124.57L301.47,125.85L301.58,123.29L302.04,124.57L302.43,125.85L302.91,127.13L303.43,125.85L304.93,120.74L305.25,119.46L305.58,122.02L305.74,116.91L305.86,118.18L305.91,116.91L306.48,118.18L307.65,116.91L307.67,118.18L308.23,115.63L308.58,114.35L308.91,109.24L309.18,110.52L309.57,111.8L309.58,116.91L309.78,114.35L310.84,113.08L311.58,124.57L311.58,123.29L311.69,122.02L311.71,120.74L312.03,132.24L312.18,132.24L312.29,133.51L312.34,142.45L312.86,141.18L313.05,139.9L313.41,141.18L313.44,139.9L313.74,138.62L314.42,136.07L315,134.79L315.72,133.51L315.8,132.24L315.86,130.96L316.7,129.68L316.94,130.96L316.94,129.68L317.59,128.4L317.91,132.24L318.02,128.4L318.49,127.13L318.89,123.29L319.55,122.02L319.75,120.74L321.11,119.46L321.8,115.63L321.86,114.35L323.1,106.69L324.11,105.41L326.88,96.47L328.01,95.19L328.81,92.64L329.65,91.36L329.79,88.81L330.55,90.08L330.92,109.24L331.12,107.97L331.41,109.24L331.7,107.97L331.71,110.52L332.07,109.24L332.72,110.52L333.24,109.24L333.99,110.52L335.15,106.69L336.13,105.41L337.44,104.13L337.79,105.41L337.84,106.69L338.87,105.41L339.4,102.86L339.87,104.13L340.05,102.86L340.5,104.13L340.52,105.41L340.52,106.69L341.22,104.13L341.91,105.41L342.35,141.18L342.92,139.9L342.92,141.18L343.38,136.07L343.38,137.34L343.82,138.62L344,142.45L344.56,138.62L344.84,137.34L344.86,138.62L345.48,130.96L345.83,129.68L345.96,132.24L346.44,130.96L346.88,129.68L347.88,132.24L348.29,130.96L349.29,129.68L349.3,130.96L349.92,129.68L350.15,128.4L350.5,127.13L350.92,128.4L351.31,127.13L351.91,125.85L352.17,124.57L352.37,122.02L353.51,120.74L353.79,119.46L354.91,118.18L356.55,113.08L356.55,114.35L356.58,115.63L357.56,110.52L358.1,111.8L358.96,106.69L358.97,107.97L359.47,106.69L359.52,107.97L360.15,105.41L360.16,104.13L360.27,101.58L361.6,100.3L362.47,97.75L362.5,96.47L363.34,93.92L363.68,92.64L364.64,97.75L365.03,96.47L365.22,95.19L366.77,92.64L366.98,93.92L368.11,91.36L368.68,90.08L369.23,86.25L370.27,84.97L371.27,82.42L371.49,83.7L371.55,84.97L371.56,83.7L372.46,82.42L373.61,79.87L373.72,78.59L374.73,77.31L374.75,78.59L374.82,96.47L375.48,92.64L375.74,93.92L376.38,91.36L376.62,90.08L377.39,91.36L378.32,90.08L378.96,86.25L379.07,87.53L379.36,86.25L380.66,83.7L381.52,82.42L382.16,79.87L382.16,78.59L382.16,72.2L383.45,70.92L384.5,67.09L386.03,68.37L386.03,70.92L386.46,67.09L386.46,68.37L386.81,67.09L387.32,68.37L387.65,67.09L387.66,65.82L387.92,67.09L388.81,65.82L388.95,64.54L388.95,65.82L390.29,67.09L390.94,65.82L391,67.09L391.17,68.37L391.8,69.65L392.12,70.92L392.32,84.97L393.32,86.25L394.36,83.7L394.88,82.42L395.02,79.87L395.05,83.7L395.49,84.97L396.72,76.03L396.73,77.31L396.73,76.03L396.75,82.42L397.07,79.87L397.64,78.59L398.97,74.76L400.12,73.48L400.84,69.65L401.56,68.37L401.94,64.54L402.43,67.09L402.69,65.82L403.73,59.43L403.73,60.71L405.19,59.43L405.98,53.04L405.99,54.32L405.99,55.6L406.82,54.32L407.15,55.6L407.19,54.32L407.71,53.04L408.28,50.49L408.94,51.76L409.91,47.93L410.55,46.66L411.18,44.1L411.41,45.38L411.55,46.66L411.87,47.93L412.08,46.66L413.28,47.93L415.7,38.99L415.99,37.71L416.99,36.44L417.74,37.71L418.85,33.88L418.93,32.61L418.99,33.88L419.16,28.77L419.79,30.05L419.87,27.5L421.04,26.22L421.2,23.66L421.39,26.22L421.66,27.5L422.06,26.22L422.23,27.5L422.26,28.77L422.54,31.33L423.08,30.05L424.14,22.39L424.18,26.22L424.85,24.94L424.93,23.66L425.15,26.22L425.39,26.22L425.56,27.5L426.36,22.39L426.69,23.66L426.83,27.5L427.34,22.39L427.68,21.11L428.26,18.55L428.27,19.83L428.33,21.11L428.9,16L429,18.55L429.27,19.83L429.44,17.28L429.58,32.61L429.58,33.88L429.99,36.44L430.28,33.88L430.28,32.61L430.29,24.94L430.99,33.88L431.02,30.05L431.14,31.33L432.86,22.39L432.91,23.66L433.06,36.44L433.47,31.33L433.76,30.05L433.8,32.61L434.33,30.05L434.93,28.77L435.58,32.61L435.86,31.33L436.1,30.05L436.25,32.61L436.33,31.33L436.91,30.05L437.57,40.27L437.59,38.99L437.98,37.71L438.06,36.44L438.38,40.27L438.56,37.71L438.66,38.99L439.43,33.88L439.47,35.16L439.61,36.44L440.26,33.88L440.32,32.61L440.58,31.33L440.99,32.61L440.99,33.88L441.57,51.76L441.86,53.04L442.51,49.21L443.36,47.93L443.5,51.76L444.5,53.04L445.62,50.49L445.66,49.21L445.82,50.49L446.2,49.21L446.67,47.93L447.14,45.38L447.26,49.21L447.4,47.93L447.64,46.66L448.3,44.1L448.66,45.38L449.29,51.76L449.52,49.21L449.55,47.93L450.26,51.76L450.41,50.49L450.81,41.55L451.19,49.21L451.29,47.93L451.58,44.1L451.7,50.49L451.7,51.76L451.7,53.04L452.3,44.1L452.43,46.66L452.56,45.38L452.92,41.55L453.15,42.82L453.34,44.1L453.59,41.55L453.76,50.49L453.76,51.76L454.06,69.65L454.49,64.54L454.59,65.82L454.6,67.09L455.37,65.82L455.6,63.26L455.66,73.48L455.79,72.2L456.09,70.92L456.19,72.2L456.6,70.92L456.65,72.2L456.75,69.65L457.37,68.37L458.02,64.54L458.21,63.26L458.96,56.87L459.22,59.43L459.25,60.71L459.41,59.43L459.79,65.82L460.38,64.54L460.51,65.82L460.78,63.26L460.96,64.54L461.3,65.82L461.97,55.6L462.28,54.32L462.3,53.04L462.39,56.87L462.75,54.32L463.25,53.04L463.26,54.32L463.86,44.1L463.89,46.66L464.71,45.38L465.2,41.55L465.77,42.82L465.91,40.27L466.19,46.66L466.58,45.38L466.6,44.1L466.92,42.82L467.19,45.38L467.49,44.1L467.67,46.66L468.04,44.1L468.39,45.38L468.93,38.99L469.29,41.55L469.35,42.82L469.48,41.55L469.51,45.38L469.96,42.82L470.39,41.55L470.41,40.27L470.96,51.76L470.98,49.21L471.12,47.93L472.38,51.76L472.57,50.49L472.83,53.04L473.3,51.76L473.56,50.49L474.57,55.6L474.72,53.04L474.75,51.76L474.86,49.21L475.42,53.04L475.43,53.04L475.78,51.76L476.03,47.93L476.43,51.76L476.47,53.04L476.79,51.76L477.64,72.2L477.92,70.92L479.65,55.6L479.75,56.87L479.82,54.32L479.93,65.82L480.22,64.54L480.22,65.82L480.79,64.54L480.81,65.82L481.08,67.09L481.48,74.76L481.78,72.2L481.92,70.92L482.05,65.82L482.67,67.09L482.69,65.82L482.92,63.26L482.95,68.37L483.11,67.09L483.59,68.37L483.87,69.65L484.17,65.82L484.53,64.54L484.84,68.37L484.85,69.65L486.14,65.82L486.86,64.54L487.13,59.43L487.44,64.54L487.76,63.26L488.89,53.04L489.68,54.32L490.21,67.09L490.62,65.82L490.72,68.37L491.07,60.71L491.18,63.26L491.25,61.98L491.51,60.71L491.64,63.26L491.65,64.54L491.65,68.37L491.98,68.37L492.7,67.09L492.89,65.82L493.22,68.37L493.23,69.65L493.88,67.09L494.14,81.14L494.23,79.87L494.23,77.31L494.8,84.97L495.09,83.7L495.31,84.97L496.79,83.7L497.4,84.97L497.7,83.7L498.16,84.97L498.18,83.7L498.73,82.42L498.73,81.14L499,84.97L499.08,83.7L499.71,82.42L499.94,83.7L500.27,82.42L500.68,81.14L500.75,78.59L500.89,82.42L501.19,81.14L501.73,79.87L501.81,78.59L502.24,83.7L502.25,84.97L503.36,81.14L503.76,82.42L504.02,79.87L504.33,81.14L504.33,82.42L504.94,84.97L505.12,83.7L505.92,76.03L505.95,77.31L505.95,78.59L505.95,81.14L506.11,78.59L506.97,79.87L506.97,78.59L507.26,78.59L508.44,77.31L509,73.48L509.13,74.76L509.25,76.03L510.46,68.37L510.86,69.65L510.86,70.92L511.17,65.82L511.34,67.09L511.88,65.82L512.46,68.37L512.48,69.65L512.97,68.37L513.03,69.65L513.33,68.37L513.33,67.09L514.06,69.65L514.25,68.37L514.35,67.09L515.28,65.82L515.91,67.09L516.35,65.82L517.12,60.71L517.36,59.43L517.38,60.71L517.53,59.43L518.27,58.15L518.53,60.71L519,59.43L519.11,60.71L519.53,55.6L519.69,58.15L519.98,59.43L520.24,55.6L522.06,56.87L522.39,53.04L523.04,54.32L523.3,67.09L523.75,63.26L523.89,64.54L524.02,67.09L524.61,65.82L525.02,64.54L525.34,60.71L526.3,59.43L526.43,56.87L527.47,55.6L528.15,53.04L528.26,51.76L528.39,49.21L529.84,50.49L530.26,69.65L530.56,67.09L530.64,65.82L530.7,68.37L531.45,67.09L532.41,63.26L532.42,64.54L533.15,70.92L533.2,69.65L533.64,68.37L534.28,63.26L534.32,64.54L534.78,63.26L537.3,58.15L537.64,56.87L538.28,54.32L538.76,53.04L539.74,50.49L539.8,49.21L540,50.49" style="vector-effect: none; fill: none; stroke: rgb(255, 127, 14); stroke-opacity: 1; stroke-width: 2px; opacity: 1;"/></g><g class="points"/><g class="text"/></g></g></g></g><g class="zerolinelayer-above"/><path class="xlines-above crisp" d="M0,0" style="fill: none;"/><path class="ylines-above crisp" d="M0,0" style="fill: none;"/><g class="overlines-above"/><g class="xaxislayer-above"><g class="xtick"><text text-anchor="middle" x="0" y="439" transform="translate(101.31,0)" style="font-family: 'Open Sans'; font-size: 18px; fill: rgb(255, 255, 255); fill-opacity: 1; white-space: pre;">2016</text></g><g class="xtick"><text text-anchor="middle" x="0" y="439" style="font-family: 'Open Sans'; font-size: 18px; fill: rgb(255, 255, 255); fill-opacity: 1; white-space: pre;" transform="translate(207.04000000000002,0)">2018</text></g><g class="xtick"><text text-anchor="middle" x="0" y="439" style="font-family: 'Open Sans'; font-size: 18px; fill: rgb(255, 255, 255); fill-opacity: 1; white-space: pre;" transform="translate(312.64,0)">2020</text></g><g class="xtick"><text text-anchor="middle" x="0" y="439" style="font-family: 'Open Sans'; font-size: 18px; fill: rgb(255, 255, 255); fill-opacity: 1; white-space: pre;" transform="translate(418.37,0)">2022</text></g><g class="xtick"><text text-anchor="middle" x="0" y="439" style="font-family: 'Open Sans'; font-size: 18px; fill: rgb(255, 255, 255); fill-opacity: 1; white-space: pre;" transform="translate(523.97,0)">2024</text></g></g><g class="yaxislayer-above"><g class="ytick"><text text-anchor="end" x="79" y="6.3" transform="translate(0,420)" style="font-family: 'Open Sans'; font-size: 18px; fill: rgb(255, 255, 255); fill-opacity: 1; white-space: pre;">0</text></g><g class="ytick"><text text-anchor="end" x="79" y="6.3" style="font-family: 'Open Sans'; font-size: 18px; fill: rgb(255, 255, 255); fill-opacity: 1; white-space: pre;" transform="translate(0,356.13)">50</text></g><g class="ytick"><text text-anchor="end" x="79" y="6.3" style="font-family: 'Open Sans'; font-size: 18px; fill: rgb(255, 255, 255); fill-opacity: 1; white-space: pre;" transform="translate(0,292.27)">100</text></g><g class="ytick"><text text-anchor="end" x="79" y="6.3" style="font-family: 'Open Sans'; font-size: 18px; fill: rgb(255, 255, 255); fill-opacity: 1; white-space: pre;" transform="translate(0,228.4)">150</text></g><g class="ytick"><text text-anchor="end" x="79" y="6.3" style="font-family: 'Open Sans'; font-size: 18px; fill: rgb(255, 255, 255); fill-opacity: 1; white-space: pre;" transform="translate(0,164.54000000000002)">200</text></g><g class="ytick"><text text-anchor="end" x="79" y="6.3" style="font-family: 'Open Sans'; font-size: 18px; fill: rgb(255, 255, 255); fill-opacity: 1; white-space: pre;" transform="translate(0,100.67)">250</text></g></g><g class="overaxes-above"/></g></g><g class="polarlayer"/><g class="smithlayer"/><g class="ternarylayer"/><g class="geolayer"/><g class="funnelarealayer"/><g class="pielayer"/><g class="iciclelayer"/><g class="treemaplayer"/><g class="sunburstlayer"/><g class="glimages"/><defs id="topdefs-e6be7f"><g class="clips"/></defs><g class="layer-above"><g class="imagelayer"/><g class="shapelayer"/></g><g class="infolayer"><g class="g-gtitle"><text class="gtitle" x="35" y="50" text-anchor="start" dy="0em" style="opacity: 1; font-family: 'Open Sans'; font-size: 25px; fill: rgb(255, 255, 255); fill-opacity: 1; white-space: pre;">MultiQC/MultiQC - Open Issues Over Time</text></g><g class="g-xtitle"><text class="xtitle" x="350" y="472.9" text-anchor="middle" style="opacity: 1; font-family: 'Open Sans'; font-size: 22px; fill: rgb(255, 255, 255); fill-opacity: 1; white-space: pre;">Date</text></g><g class="g-ytitle"><text class="ytitle" transform="rotate(-90,29.799999999999997,260)" x="29.799999999999997" y="260" text-anchor="middle" style="opacity: 1; font-family: 'Open Sans'; font-size: 22px; fill: rgb(255, 255, 255); fill-opacity: 1; white-space: pre;">Number of Open Issues</text></g></g></svg>