<svg class="main-svg" xmlns="http://www.w3.org/2000/svg" xmlns:xlink="http://www.w3.org/1999/xlink" width="700" height="500" style="" viewBox="0 0 700 500"><rect x="0" y="0" width="700" height="500" style="fill: rgb(0, 0, 0); fill-opacity: 0;"/><defs id="defs-b71a18"><g class="clips"><clipPath id="clipb71a18xyplot" class="plotclip"><rect width="540" height="320"/></clipPath><clipPath class="axesclip" id="clipb71a18x"><rect x="80" y="0" width="540" height="500"/></clipPath><clipPath class="axesclip" id="clipb71a18y"><rect x="0" y="100" width="700" height="320"/></clipPath><clipPath class="axesclip" id="clipb71a18xy"><rect x="80" y="100" width="540" height="320"/></clipPath></g><g class="gradients"/><g class="patterns"/></defs><g class="bglayer"><rect class="bg" x="80" y="100" width="540" height="320" style="fill: rgb(0, 0, 0); fill-opacity: 0; stroke-width: 0;"/></g><g class="layer-below"><g class="imagelayer"/><g class="shapelayer"/></g><g class="cartesianlayer"><g class="subplot xy"><g class="layer-subplot"><g class="shapelayer"/><g class="imagelayer"/></g><g class="minor-gridlayer"><g class="x"/><g class="y"/></g><g class="gridlayer"><g class="x"><path class="xgrid crisp" transform="translate(101,0)" d="M0,100v320" style="stroke: rgb(255, 255, 255); stroke-opacity: 1; stroke-width: 1px;"/><path class="xgrid crisp" transform="translate(205.20999999999998,0)" d="M0,100v320" style="stroke: rgb(255, 255, 255); stroke-opacity: 1; stroke-width: 1px;"/><path class="xgrid crisp" transform="translate(309.28,0)" d="M0,100v320" style="stroke: rgb(255, 255, 255); stroke-opacity: 1; stroke-width: 1px;"/><path class="xgrid crisp" transform="translate(413.49,0)" d="M0,100v320" style="stroke: rgb(255, 255, 255); stroke-opacity: 1; stroke-width: 1px;"/><path class="xgrid crisp" transform="translate(517.56,0)" d="M0,100v320" style="stroke: rgb(255, 255, 255); stroke-opacity: 1; stroke-width: 1px;"/></g><g class="y"><path class="ygrid crisp" transform="translate(0,356.13)" d="M80,0h540" style="stroke: rgb(255, 255, 255); stroke-opacity: 1; stroke-width: 1px;"/><path class="ygrid crisp" transform="translate(0,292.27)" d="M80,0h540" style="stroke: rgb(255, 255, 255); stroke-opacity: 1; stroke-width: 1px;"/><path class="ygrid crisp" transform="translate(0,228.4)" d="M80,0h540" style="stroke: rgb(255, 255, 255); stroke-opacity: 1; stroke-width: 1px;"/><path class="ygrid crisp" transform="translate(0,164.54000000000002)" d="M80,0h540" style="stroke: rgb(255, 255, 255); stroke-opacity: 1; stroke-width: 1px;"/></g></g><g class="zerolinelayer"><path class="yzl zl crisp" transform="translate(0,420)" d="M80,0h540" style="stroke: rgb(255, 255, 255); stroke-opacity: 1; stroke-width: 2px;"/></g><g class="layer-between"><g class="shapelayer"/><g class="imagelayer"/></g><path class="xlines-below"/><path class="ylines-below"/><g class="overlines-below"/><g class="xaxislayer-below"/><g class="yaxislayer-below"/><g class="overaxes-below"/><g class="overplot"><g class="xy" transform="translate(80,100)" clip-path="url(#clipb71a18xyplot)"><g class="scatterlayer mlayer"><g class="trace scatter traceb046fe" style="stroke-miterlimit: 2;"><g class="fills"><g><path class="js-fill" d="M540,320L0,320L0,318.72L0,316.17L0.56,317.45L1.85,318.72L1.96,317.45L2.99,318.72L3.82,312.34L3.85,313.61L4.54,312.34L4.97,307.23L5.14,308.5L5.51,309.78L5.68,305.95L5.97,311.06L6.12,308.5L6.42,309.78L7.11,298.29L7.23,297.01L7.4,295.73L7.66,298.29L7.67,299.56L7.68,300.84L7.85,290.62L8.54,289.34L8.93,298.29L8.94,299.56L9.67,308.5L9.68,307.23L9.81,305.95L10.13,300.84L10.13,299.56L10.54,298.29L10.57,300.84L10.57,302.12L11.54,305.95L11.66,304.67L11.81,303.39L12.78,285.51L12.83,291.9L12.83,293.18L12.95,290.62L13.26,294.45L13.44,291.9L13.67,290.62L14.08,284.24L14.22,288.07L14.64,286.79L14.83,285.51L14.96,288.07L15.66,289.34L15.83,293.18L17.03,291.9L17.64,289.34L17.77,288.07L18.5,282.96L18.51,284.24L18.64,282.96L19.09,284.24L21.65,282.96L21.65,284.24L22.06,280.4L22.06,282.96L23.6,281.68L23.79,282.96L23.94,281.68L24.79,280.4L25.52,277.85L25.62,279.13L25.94,277.85L26.69,286.79L26.76,285.51L27.04,281.68L27.48,284.24L27.5,285.51L27.65,284.24L27.9,285.51L29.08,286.79L30.53,282.96L30.75,284.24L30.79,288.07L30.79,288.07L31.6,286.79L32.08,290.62L32.5,289.34L32.69,295.73L33.6,297.01L34.31,294.45L34.31,295.73L34.45,297.01L35.05,294.45L35.34,293.18L36.08,295.73L36.45,294.45L36.46,295.73L36.6,289.34L36.88,290.62L37.59,289.34L37.82,285.51L38.01,293.18L38.52,294.45L38.59,293.18L39.03,297.01L39.09,298.29L39.32,293.18L39.61,294.45L39.91,295.73L40.77,289.34L40.9,293.18L41.24,291.9L41.45,289.34L41.47,291.9L41.61,293.18L43.02,285.51L43.71,284.24L44.01,282.96L44.63,284.24L45.3,285.51L45.59,284.24L45.62,288.07L46.07,282.96L46.34,284.24L46.41,281.68L46.73,288.07L46.88,289.34L47.46,293.18L47.61,290.62L47.62,289.34L47.72,293.18L48.03,291.9L48.59,293.18L48.6,297.01L48.9,294.45L49.46,295.73L49.85,294.45L49.86,295.73L50.56,294.45L50.56,295.73L50.75,293.18L50.87,293.18L51.71,291.9L52.89,289.34L53.45,290.62L53.45,291.9L53.89,288.07L54.04,290.62L54.49,289.34L54.59,288.07L54.9,291.9L55.74,290.62L57.07,285.51L57.58,284.24L58.83,272.74L58.9,275.29L59,276.57L59,277.85L59.6,275.29L59.77,274.02L59.89,272.74L59.9,274.02L61.48,272.74L62.69,265.08L62.81,266.35L63.72,263.8L64.27,262.52L64.98,251.03L65.01,253.58L65.75,252.3L66.41,254.86L66.41,256.13L66.42,262.52L66.72,262.52L67.43,261.24L68.69,257.41L69.45,256.13L69.7,263.8L70.61,262.52L71.71,275.29L71.86,274.02L72.39,272.74L72.39,271.46L72.79,271.46L73.25,272.74L74.34,268.91L74.34,270.18L74.78,268.91L74.81,267.63L74.86,268.91L75.72,267.63L76.51,266.35L77.02,265.08L80.36,254.86L80.36,256.13L80.82,259.97L80.95,256.13L81.36,257.41L81.65,258.69L81.72,254.86L81.92,257.41L82.66,258.69L82.99,252.3L83,253.58L84.15,252.3L84.35,253.58L84.55,252.3L84.79,251.03L84.81,249.75L85.53,253.58L85.66,252.3L85.8,253.58L86.38,249.75L86.38,251.03L86.53,252.3L86.93,257.41L87.35,256.13L87.69,254.86L87.7,252.3L87.81,256.13L88.78,254.86L88.78,256.13L88.81,253.58L89.48,256.13L89.65,254.86L90.46,257.41L90.8,256.13L91.38,257.41L91.47,258.69L91.79,263.8L92.33,262.52L92.64,271.46L92.93,268.91L93.4,267.63L94.47,263.8L94.6,265.08L94.61,266.35L96.48,258.69L96.5,259.97L98.61,252.3L98.75,253.58L98.75,254.86L99.65,257.41L99.76,258.69L100.62,270.18L100.93,268.91L101.34,271.46L101.34,270.18L101.44,268.91L101.48,271.46L101.91,258.69L101.91,258.69L102.33,257.41L102.65,254.86L102.92,261.24L103.31,259.97L104.32,257.41L104.32,258.69L104.32,259.97L104.45,262.52L104.89,261.24L105.38,259.97L105.74,263.8L105.87,261.24L106.28,259.97L106.3,261.24L106.87,258.69L106.89,259.97L107.48,258.69L107.59,257.41L107.59,258.69L108.28,259.97L108.63,261.24L108.89,259.97L109.46,258.69L109.88,254.86L110.3,253.58L111.67,247.19L111.71,248.47L111.79,249.75L113.87,245.92L114.44,247.19L115.85,243.36L116.32,244.64L116.62,243.36L117.47,274.02L117.57,272.74L117.75,271.46L118.89,270.18L118.89,271.46L119.88,270.18L120.29,271.46L121.3,267.63L121.55,268.91L121.56,271.46L121.78,266.35L122.3,265.08L122.3,266.35L122.73,263.8L122.79,263.8L123.36,262.52L123.36,261.24L123.85,267.63L125.6,266.35L125.83,267.63L125.88,266.35L126.4,265.08L126.85,259.97L127.64,258.69L129.35,253.58L129.73,254.86L130.21,252.3L130.28,253.58L130.28,254.86L130.44,261.24L130.81,258.69L131.35,257.41L131.87,254.86L132.11,256.13L132.72,261.24L133.44,259.97L134.43,254.86L134.81,256.13L135.51,254.86L136.58,253.58L137.73,249.75L138.55,251.03L139.3,249.75L139.37,251.03L139.89,249.75L140.25,248.47L140.26,251.03L140.8,245.92L140.8,245.92L141.25,244.64L141.25,242.08L141.82,243.36L142.18,242.08L142.69,239.53L142.72,238.25L142.79,236.97L142.85,240.81L143.4,239.53L143.42,240.81L143.84,238.25L144.47,239.53L144.87,235.7L145.12,245.92L145.12,247.19L145.7,244.64L145.79,243.36L145.79,244.64L146.53,244.64L146.55,245.92L147.73,244.64L147.81,245.92L148.39,243.36L148.39,244.64L148.51,245.92L149.57,244.64L149.89,243.36L150,242.08L150.07,243.36L150.63,244.64L152.39,242.08L152.4,243.36L153.51,236.97L154.41,235.7L154.66,233.14L155.19,234.42L155.19,233.14L155.86,239.53L156.23,238.25L157.43,236.97L157.77,238.25L160.2,231.87L160.35,233.14L160.87,228.03L161.17,226.76L162.49,219.09L163.23,217.82L163.23,219.09L163.62,217.82L164.72,216.54L164.78,215.26L165.24,220.37L165.67,219.09L166.74,216.54L166.74,215.26L166.76,213.98L166.97,222.92L168.26,221.65L168.51,219.09L169.62,217.82L170.36,222.92L170.71,221.65L173.64,211.43L173.71,210.15L173.75,211.43L175.51,210.15L175.76,215.26L175.77,216.54L175.78,220.37L176.19,217.82L178.17,216.54L178.19,219.09L178.34,217.82L179.09,216.54L179.61,211.43L179.62,212.71L180.16,213.98L180.51,215.26L181.43,210.15L181.48,211.43L181.62,212.71L182.47,211.43L182.48,212.71L185.62,207.6L185.72,206.32L186.3,202.49L186.31,203.76L186.73,202.49L186.76,205.04L187.43,203.76L187.61,202.49L188.3,203.76L188.6,202.49L189.35,201.21L189.53,199.93L190.3,197.38L190.44,196.1L190.62,197.38L190.77,194.82L190.79,196.1L191.59,194.82L192.98,185.88L192.98,188.44L193.25,187.16L193.59,184.61L193.91,185.88L194.43,184.61L194.64,182.05L195.1,184.61L195.37,183.33L195.75,180.77L196.32,179.5L197.5,178.22L197.5,179.5L197.58,178.22L197.61,179.5L198.97,178.22L199.72,179.5L200.46,178.22L200.69,176.94L200.69,178.22L202.56,176.94L203.27,175.66L203.28,176.94L203.28,178.22L203.67,176.94L204.52,178.22L204.52,179.5L205.22,179.5L205.4,178.22L206.38,175.66L207.11,174.39L207.76,170.55L208.14,171.83L209.55,166.72L209.88,168L211.32,166.72L211.54,165.45L212.55,164.17L212.67,165.45L213.39,164.17L215.21,160.34L215.52,161.61L215.88,157.78L216.63,156.5L217.07,159.06L217.11,157.78L217.38,156.5L218.14,153.95L218.35,155.23L218.39,156.5L218.41,160.34L219.13,157.78L219.15,156.5L219.59,155.23L220.09,162.89L220.11,161.61L220.85,160.34L221.07,161.61L221.54,157.78L221.67,159.06L222.51,175.66L222.52,174.39L222.58,173.11L223.47,189.71L224.06,188.44L224.23,189.71L224.66,184.61L224.66,185.88L224.82,187.16L225.1,188.44L225.26,185.88L225.38,184.61L226.35,179.5L226.65,178.22L227.14,174.39L227.18,173.11L227.29,178.22L228.22,176.94L230.24,174.39L230.27,173.11L230.87,166.72L231.24,165.45L231.69,166.72L233.37,165.45L234.53,162.89L234.61,161.61L235.47,160.34L235.89,161.61L236.63,159.06L238.5,157.78L239.09,155.23L239.16,153.95L240.06,150.12L240.19,151.39L240.38,150.12L241.55,148.84L241.87,145.01L241.89,152.67L241.89,153.95L241.89,155.23L242.45,150.12L242.88,148.84L243.09,150.12L244.06,148.84L244.22,150.12L244.46,148.84L245.05,150.12L245.13,148.84L245.31,153.95L245.74,151.39L246.01,152.67L246.32,151.39L246.34,153.95L246.45,153.95L246.46,155.23L247.48,151.39L247.93,150.12L248.34,147.56L248.45,153.95L248.48,153.95L248.85,152.67L249.17,151.39L249.31,152.67L249.35,153.95L249.43,152.67L249.74,155.23L250.06,156.5L250.15,153.95L250.18,164.17L250.19,165.45L250.72,185.88L250.87,184.61L251,185.88L251.45,187.16L252,185.88L253.04,180.77L253.13,182.05L254.45,173.11L254.6,174.39L254.88,173.11L256.13,169.28L256.13,170.55L256.28,171.83L256.88,168L257.19,166.72L257.39,165.45L258.04,166.72L258.67,160.34L259.13,159.06L259.61,153.95L259.63,155.23L260.17,156.5L261,151.39L261.18,150.12L262.45,142.45L262.89,141.18L263.09,139.9L264.15,138.62L265.58,130.96L266,129.68L267,125.85L267.04,127.13L268.41,120.74L269.07,119.46L271.08,113.08L271.08,114.35L274.1,97.75L274.32,99.03L274.33,101.58L275.27,100.3L275.27,101.58L275.99,97.75L276.62,96.47L276.92,97.75L278.09,96.47L278.39,92.64L280.86,93.92L281.03,123.29L281.95,122.02L283.14,123.29L283.29,122.02L283.29,120.74L283.38,124.57L283.56,122.02L284.17,123.29L287.1,122.02L287.84,120.74L288.4,116.91L288.41,115.63L288.53,118.18L289.06,116.91L289.18,115.63L289.23,116.91L290.17,115.63L291.37,122.02L291.48,120.74L291.67,119.46L291.7,122.02L292.14,119.46L292.38,118.18L293.15,115.63L293.23,114.35L293.62,111.8L293.99,113.08L293.99,114.35L294.28,127.13L295.23,125.85L295.41,127.13L295.92,124.57L295.93,125.85L295.93,127.13L296.95,124.57L297.12,125.85L297.23,123.29L297.69,124.57L298.07,125.85L298.54,127.13L299.06,125.85L300.53,120.74L300.85,119.46L301.17,122.02L301.33,116.91L301.45,118.18L301.5,116.91L302.06,118.18L303.21,116.91L303.23,118.18L303.78,115.63L304.13,114.35L304.45,109.24L304.72,110.52L305.11,111.8L305.12,116.91L305.31,114.35L306.35,113.08L307.08,124.57L307.08,123.29L307.19,122.02L307.22,120.74L307.53,132.24L307.68,132.24L307.78,133.51L307.83,142.45L308.34,141.18L308.54,139.9L308.89,141.18L308.92,139.9L309.22,138.62L309.88,136.07L310.46,134.79L311.17,133.51L311.24,132.24L312.13,129.68L312.37,130.96L313.01,128.4L313.04,129.68L313.31,130.96L313.33,132.24L313.94,125.85L314.14,124.57L314.16,125.85L314.29,123.29L314.94,122.02L315.14,120.74L316.48,119.46L317.16,115.63L317.21,114.35L318.44,106.69L319.43,105.41L322.16,96.47L323.28,95.19L324.07,92.64L324.89,91.36L325.03,88.81L325.78,90.08L326.14,109.24L326.34,107.97L326.63,109.24L326.91,107.97L326.93,110.52L327.28,109.24L327.92,110.52L328.44,109.24L329.18,110.52L330.32,106.69L331.28,105.41L332.57,104.13L332.92,105.41L332.97,106.69L333.98,105.41L334.51,102.86L334.97,104.13L335.15,102.86L335.58,104.13L335.61,105.41L335.61,106.69L336.29,104.13L336.98,105.41L337.97,141.18L338.26,139.9L338.43,136.07L338.88,141.18L339.04,142.45L340.5,130.96L340.84,129.68L340.97,132.24L341.44,130.96L341.87,129.68L342.87,132.24L343.26,130.96L344.25,129.68L344.26,130.96L344.87,129.68L345.1,128.4L345.44,127.13L345.86,128.4L346.24,127.13L346.84,125.85L347.09,124.57L347.29,122.02L348.41,120.74L348.69,119.46L349.79,118.18L351.4,113.08L351.41,114.35L351.43,115.63L352.4,110.52L352.93,111.8L353.79,106.69L353.79,107.97L354.29,106.69L354.33,107.97L354.96,104.13L355.02,102.86L355.07,101.58L356.39,100.3L357.24,97.75L357.27,96.47L358.1,93.92L358.44,92.64L359.38,97.75L359.77,96.47L359.95,95.19L361.48,92.64L361.69,93.92L362.8,91.36L363.36,90.08L364.93,84.97L365.54,83.7L365.91,82.42L366.13,83.7L366.19,84.97L366.2,83.7L367.09,82.42L368.22,79.87L368.33,78.59L369.32,77.31L369.34,78.59L369.41,96.47L370.06,92.64L370.32,93.92L370.95,91.36L371.19,90.08L371.94,91.36L372.86,90.08L373.49,86.25L373.6,87.53L373.88,86.25L375.17,83.7L376.02,82.42L376.65,79.87L376.65,78.59L376.65,72.2L377.92,70.92L378.95,67.09L380.46,68.37L380.46,70.92L380.88,67.09L380.88,68.37L381.24,67.09L381.74,68.37L382.06,67.09L382.07,65.82L382.32,67.09L383.2,65.82L383.34,64.54L383.34,65.82L384.66,67.09L385.3,65.82L385.36,67.09L385.53,68.37L385.53,69.65L386.15,69.65L386.46,70.92L386.66,84.97L387.65,86.25L388.67,83.7L389.19,82.42L389.32,79.87L389.36,83.7L389.78,84.97L390.99,76.03L391,77.31L391,76.03L391.03,82.42L391.34,79.87L391.9,78.59L393.22,74.76L394.35,73.48L395.06,69.65L395.77,68.37L396.15,64.54L396.62,67.09L396.88,65.82L397.91,59.43L397.91,60.71L399.34,59.43L400.12,53.04L400.13,55.6L400.95,54.32L401.28,55.6L401.32,54.32L401.83,53.04L402.39,50.49L403.04,51.76L403.99,47.93L404.63,46.66L405.25,44.1L405.47,45.38L405.61,46.66L405.92,47.93L406.13,46.66L407.31,47.93L409.71,38.99L409.99,37.71L410.98,36.44L411.71,37.71L412.8,33.88L412.89,32.61L412.95,33.88L413.12,28.77L413.74,30.05L413.81,27.5L414.97,26.22L415.13,23.66L415.31,26.22L415.57,27.5L415.97,26.22L416.14,27.5L416.17,28.77L416.44,31.33L416.98,30.05L418.02,22.39L418.06,26.22L418.73,24.94L418.8,23.66L419.02,26.22L419.25,26.22L419.42,27.5L420.21,22.39L420.54,23.66L420.67,27.5L421.17,22.39L421.51,21.11L422.09,18.55L422.09,19.83L422.16,21.11L422.71,16L422.81,18.55L423.07,19.83L423.24,17.28L423.38,28.77L423.38,30.05L423.78,36.44L424.08,24.94L424.15,26.22L424.77,33.88L424.8,30.05L424.93,31.33L426.61,22.39L426.67,23.66L426.81,36.44L427.22,31.33L427.5,30.05L427.54,32.61L428.07,30.05L428.65,28.77L429.3,32.61L429.58,31.33L429.81,30.05L429.95,32.61L430.03,31.33L430.61,30.05L431.26,40.27L431.28,38.99L431.66,37.71L431.74,36.44L432.06,40.27L432.33,38.99L432.67,37.71L433.09,33.88L433.27,36.44L433.81,35.16L434.23,31.33L434.63,32.61L434.63,33.88L435.2,51.76L435.49,53.04L436.12,49.21L436.96,47.93L437.1,51.76L438.09,53.04L439.19,50.49L439.23,49.21L439.39,50.49L439.76,49.21L440.23,47.93L440.69,45.38L440.81,49.21L440.94,47.93L441.19,46.66L441.83,44.1L442.19,45.38L442.81,51.76L443.04,49.21L443.07,47.93L443.52,51.76L443.77,51.76L443.92,50.49L444.31,41.55L444.68,49.21L444.78,47.93L445.06,44.1L445.18,50.49L445.18,51.76L445.18,53.04L445.78,44.1L445.9,46.66L446.03,45.38L446.39,41.55L446.61,42.82L446.8,44.1L447.05,41.55L447.22,50.49L447.22,51.76L447.51,69.65L447.93,64.54L448.03,65.82L448.04,67.09L448.8,65.82L449.03,63.26L449.09,73.48L449.21,72.2L449.51,70.92L449.61,72.2L450.02,70.92L450.06,72.2L450.16,69.65L450.78,68.37L451.42,64.54L451.6,63.26L452.34,56.87L452.6,59.43L452.63,60.71L452.79,59.43L453.16,65.82L453.74,64.54L453.87,65.82L454.13,63.26L454.31,64.54L454.65,65.82L455.31,55.6L455.61,54.32L455.63,53.04L455.72,56.87L456.07,54.32L456.57,53.04L456.58,54.32L457.17,44.1L457.2,46.66L458,45.38L458.49,41.55L459.06,42.82L459.19,40.27L459.47,46.66L459.85,45.38L459.87,44.1L460.19,42.82L460.45,45.38L460.75,44.1L460.92,46.66L461.29,44.1L461.64,45.38L462.17,38.99L462.52,41.55L462.58,42.82L462.71,41.55L462.74,45.38L463.18,42.82L463.61,41.55L463.62,40.27L464.16,51.76L464.18,49.21L464.33,47.93L465.57,51.76L465.76,50.49L466.01,53.04L466.48,51.76L466.73,50.49L467.73,55.6L467.87,53.04L467.9,51.76L468.01,49.21L468.57,53.04L468.57,53.04L468.92,51.76L469.17,47.93L469.56,51.76L469.59,53.04L469.91,51.76L470.75,72.2L471.02,70.92L471.11,69.65L471.85,67.09L471.88,65.82L472.73,55.6L472.83,56.87L472.9,54.32L473.01,65.82L473.3,65.82L473.85,64.54L474.54,74.76L474.68,72.2L474.75,70.92L474.83,72.2L475.1,65.82L475.71,67.09L475.95,63.26L475.99,68.37L476.15,67.09L476.62,68.37L476.89,69.65L477.18,65.82L477.54,64.54L477.84,68.37L477.86,69.65L479.13,65.82L479.84,64.54L480.1,59.43L480.41,64.54L480.72,63.26L481.84,53.04L482.61,54.32L483.13,67.09L483.55,65.82L483.64,68.37L483.99,60.71L484.16,61.98L484.42,60.71L484.89,68.37L485.59,67.09L485.78,65.82L486.11,68.37L486.11,69.65L486.76,67.09L487.01,81.14L487.1,79.87L487.11,77.31L487.67,84.97L487.95,83.7L488.16,84.97L489.63,83.7L490.22,84.97L490.52,83.7L490.98,84.97L490.99,83.7L491.54,82.42L491.54,81.14L491.8,84.97L491.88,83.7L492.51,82.42L492.73,83.7L493.06,82.42L493.45,81.14L493.53,78.59L493.67,82.42L493.96,81.14L494.49,79.87L494.57,78.59L495,83.7L495,84.97L496.1,81.14L496.5,82.42L496.75,79.87L497.06,82.42L497.06,83.7L497.65,84.97L497.83,83.7L498.62,76.03L498.65,78.59L498.65,79.87L498.65,81.14L498.81,78.59L499.66,79.87L499.66,78.59L499.94,78.59L501.1,77.31L501.66,73.48L501.78,74.76L501.91,76.03L503.09,68.37L503.49,69.65L503.49,70.92L503.8,65.82L503.96,67.09L504.5,65.82L505.07,68.37L505.09,69.65L505.57,68.37L505.63,69.65L505.93,68.37L505.93,67.09L506.64,69.65L506.83,68.37L506.93,67.09L507.85,65.82L508.47,67.09L508.91,65.82L509.66,60.71L509.9,59.43L509.92,60.71L510.07,59.43L510.79,58.15L511.05,60.71L511.51,59.43L511.62,60.71L512.04,55.6L512.2,58.15L512.48,59.43L512.74,55.6L514.53,56.87L514.86,53.04L515.5,54.32L515.75,67.09L516.2,63.26L516.33,64.54L516.46,67.09L517.04,65.82L517.44,64.54L517.76,60.71L518.71,59.43L518.84,56.87L519.87,55.6L520.53,53.04L520.64,51.76L520.76,49.21L522.19,50.49L522.62,69.65L522.9,67.09L522.99,65.82L523.04,68.37L523.78,67.09L524.73,63.26L524.74,64.54L525.46,70.92L525.5,69.65L525.94,68.37L526.58,63.26L526.61,64.54L527.06,63.26L529.55,58.15L529.88,56.87L530.52,54.32L530.99,53.04L531.96,50.49L532.01,49.21L532.21,50.49L532.86,49.21L533.52,46.66L535.02,45.38L536.26,42.82L536.6,41.55L537.98,33.88L537.99,35.16L538.02,33.88L538.06,37.71L538.64,35.16L538.85,33.88L539.7,24.94L539.84,23.66L539.86,21.11L540,21.11" style="fill: rgb(255, 127, 14); fill-opacity: 0.5; stroke-width: 0;"/></g></g><g class="errorbars"/><g class="lines"><path class="js-line" d="M0,318.72L0,316.17L0.56,317.45L1.85,318.72L1.96,317.45L2.99,318.72L3.82,312.34L3.85,313.61L4.54,312.34L4.97,307.23L5.14,308.5L5.51,309.78L5.68,305.95L5.97,311.06L6.12,308.5L6.42,309.78L7.11,298.29L7.23,297.01L7.4,295.73L7.66,298.29L7.67,299.56L7.68,300.84L7.85,290.62L8.54,289.34L8.93,298.29L8.94,299.56L9.67,308.5L9.68,307.23L9.81,305.95L10.13,300.84L10.13,299.56L10.54,298.29L10.57,300.84L10.57,302.12L11.54,305.95L11.66,304.67L11.81,303.39L12.78,285.51L12.83,291.9L12.83,293.18L12.95,290.62L13.26,294.45L13.44,291.9L13.67,290.62L14.08,284.24L14.22,288.07L14.64,286.79L14.83,285.51L14.96,288.07L15.66,289.34L15.83,293.18L17.03,291.9L17.64,289.34L17.77,288.07L18.5,282.96L18.51,284.24L18.64,282.96L19.09,284.24L21.65,282.96L21.65,284.24L22.06,280.4L22.06,282.96L23.6,281.68L23.79,282.96L23.94,281.68L24.79,280.4L25.52,277.85L25.62,279.13L25.94,277.85L26.69,286.79L26.76,285.51L27.04,281.68L27.48,284.24L27.5,285.51L27.65,284.24L27.9,285.51L29.08,286.79L30.53,282.96L30.75,284.24L30.79,288.07L30.79,288.07L31.6,286.79L32.08,290.62L32.5,289.34L32.69,295.73L33.6,297.01L34.31,294.45L34.31,295.73L34.45,297.01L35.05,294.45L35.34,293.18L36.08,295.73L36.45,294.45L36.46,295.73L36.6,289.34L36.88,290.62L37.59,289.34L37.82,285.51L38.01,293.18L38.52,294.45L38.59,293.18L39.03,297.01L39.09,298.29L39.32,293.18L39.61,294.45L39.91,295.73L40.77,289.34L40.9,293.18L41.24,291.9L41.45,289.34L41.47,291.9L41.61,293.18L43.02,285.51L43.71,284.24L44.01,282.96L44.63,284.24L45.3,285.51L45.59,284.24L45.62,288.07L46.07,282.96L46.34,284.24L46.41,281.68L46.73,288.07L46.88,289.34L47.46,293.18L47.61,290.62L47.62,289.34L47.72,293.18L48.03,291.9L48.59,293.18L48.6,297.01L48.9,294.45L49.46,295.73L49.85,294.45L49.86,295.73L50.56,294.45L50.56,295.73L50.75,293.18L50.87,293.18L51.71,291.9L52.89,289.34L53.45,290.62L53.45,291.9L53.89,288.07L54.04,290.62L54.49,289.34L54.59,288.07L54.9,291.9L55.74,290.62L57.07,285.51L57.58,284.24L58.83,272.74L58.9,275.29L59,276.57L59,277.85L59.6,275.29L59.77,274.02L59.89,272.74L59.9,274.02L61.48,272.74L62.69,265.08L62.81,266.35L63.72,263.8L64.27,262.52L64.98,251.03L65.01,253.58L65.75,252.3L66.41,254.86L66.41,256.13L66.42,262.52L66.72,262.52L67.43,261.24L68.69,257.41L69.45,256.13L69.7,263.8L70.61,262.52L71.71,275.29L71.86,274.02L72.39,272.74L72.39,271.46L72.79,271.46L73.25,272.74L74.34,268.91L74.34,270.18L74.78,268.91L74.81,267.63L74.86,268.91L75.72,267.63L76.51,266.35L77.02,265.08L80.36,254.86L80.36,256.13L80.82,259.97L80.95,256.13L81.36,257.41L81.65,258.69L81.72,254.86L81.92,257.41L82.66,258.69L82.99,252.3L83,253.58L84.15,252.3L84.35,253.58L84.55,252.3L84.79,251.03L84.81,249.75L85.53,253.58L85.66,252.3L85.8,253.58L86.38,249.75L86.38,251.03L86.53,252.3L86.93,257.41L87.35,256.13L87.69,254.86L87.7,252.3L87.81,256.13L88.78,254.86L88.78,256.13L88.81,253.58L89.48,256.13L89.65,254.86L90.46,257.41L90.8,256.13L91.38,257.41L91.47,258.69L91.79,263.8L92.33,262.52L92.64,271.46L92.93,268.91L93.4,267.63L94.47,263.8L94.6,265.08L94.61,266.35L96.48,258.69L96.5,259.97L98.61,252.3L98.75,253.58L98.75,254.86L99.65,257.41L99.76,258.69L100.62,270.18L100.93,268.91L101.34,271.46L101.34,270.18L101.44,268.91L101.48,271.46L101.91,258.69L101.91,258.69L102.33,257.41L102.65,254.86L102.92,261.24L103.31,259.97L104.32,257.41L104.32,258.69L104.32,259.97L104.45,262.52L104.89,261.24L105.38,259.97L105.74,263.8L105.87,261.24L106.28,259.97L106.3,261.24L106.87,258.69L106.89,259.97L107.48,258.69L107.59,257.41L107.59,258.69L108.28,259.97L108.63,261.24L108.89,259.97L109.46,258.69L109.88,254.86L110.3,253.58L111.67,247.19L111.71,248.47L111.79,249.75L113.87,245.92L114.44,247.19L115.85,243.36L116.32,244.64L116.62,243.36L117.47,274.02L117.57,272.74L117.75,271.46L118.89,270.18L118.89,271.46L119.88,270.18L120.29,271.46L121.3,267.63L121.55,268.91L121.56,271.46L121.78,266.35L122.3,265.08L122.3,266.35L122.73,263.8L122.79,263.8L123.36,262.52L123.36,261.24L123.85,267.63L125.6,266.35L125.83,267.63L125.88,266.35L126.4,265.08L126.85,259.97L127.64,258.69L129.35,253.58L129.73,254.86L130.21,252.3L130.28,253.58L130.28,254.86L130.44,261.24L130.81,258.69L131.35,257.41L131.87,254.86L132.11,256.13L132.72,261.24L133.44,259.97L134.43,254.86L134.81,256.13L135.51,254.86L136.58,253.58L137.73,249.75L138.55,251.03L139.3,249.75L139.37,251.03L139.89,249.75L140.25,248.47L140.26,251.03L140.8,245.92L140.8,245.92L141.25,244.64L141.25,242.08L141.82,243.36L142.18,242.08L142.69,239.53L142.72,238.25L142.79,236.97L142.85,240.81L143.4,239.53L143.42,240.81L143.84,238.25L144.47,239.53L144.87,235.7L145.12,245.92L145.12,247.19L145.7,244.64L145.79,243.36L145.79,244.64L146.53,244.64L146.55,245.92L147.73,244.64L147.81,245.92L148.39,243.36L148.39,244.64L148.51,245.92L149.57,244.64L149.89,243.36L150,242.08L150.07,243.36L150.63,244.64L152.39,242.08L152.4,243.36L153.51,236.97L154.41,235.7L154.66,233.14L155.19,234.42L155.19,233.14L155.86,239.53L156.23,238.25L157.43,236.97L157.77,238.25L160.2,231.87L160.35,233.14L160.87,228.03L161.17,226.76L162.49,219.09L163.23,217.82L163.23,219.09L163.62,217.82L164.72,216.54L164.78,215.26L165.24,220.37L165.67,219.09L166.74,216.54L166.74,215.26L166.76,213.98L166.97,222.92L168.26,221.65L168.51,219.09L169.62,217.82L170.36,222.92L170.71,221.65L173.64,211.43L173.71,210.15L173.75,211.43L175.51,210.15L175.76,215.26L175.77,216.54L175.78,220.37L176.19,217.82L178.17,216.54L178.19,219.09L178.34,217.82L179.09,216.54L179.61,211.43L179.62,212.71L180.16,213.98L180.51,215.26L181.43,210.15L181.48,211.43L181.62,212.71L182.47,211.43L182.48,212.71L185.62,207.6L185.72,206.32L186.3,202.49L186.31,203.76L186.73,202.49L186.76,205.04L187.43,203.76L187.61,202.49L188.3,203.76L188.6,202.49L189.35,201.21L189.53,199.93L190.3,197.38L190.44,196.1L190.62,197.38L190.77,194.82L190.79,196.1L191.59,194.82L192.98,185.88L192.98,188.44L193.25,187.16L193.59,184.61L193.91,185.88L194.43,184.61L194.64,182.05L195.1,184.61L195.37,183.33L195.75,180.77L196.32,179.5L197.5,178.22L197.5,179.5L197.58,178.22L197.61,179.5L198.97,178.22L199.72,179.5L200.46,178.22L200.69,176.94L200.69,178.22L202.56,176.94L203.27,175.66L203.28,176.94L203.28,178.22L203.67,176.94L204.52,178.22L204.52,179.5L205.22,179.5L205.4,178.22L206.38,175.66L207.11,174.39L207.76,170.55L208.14,171.83L209.55,166.72L209.88,168L211.32,166.72L211.54,165.45L212.55,164.17L212.67,165.45L213.39,164.17L215.21,160.34L215.52,161.61L215.88,157.78L216.63,156.5L217.07,159.06L217.11,157.78L217.38,156.5L218.14,153.95L218.35,155.23L218.39,156.5L218.41,160.34L219.13,157.78L219.15,156.5L219.59,155.23L220.09,162.89L220.11,161.61L220.85,160.34L221.07,161.61L221.54,157.78L221.67,159.06L222.51,175.66L222.52,174.39L222.58,173.11L223.47,189.71L224.06,188.44L224.23,189.71L224.66,184.61L224.66,185.88L224.82,187.16L225.1,188.44L225.26,185.88L225.38,184.61L226.35,179.5L226.65,178.22L227.14,174.39L227.18,173.11L227.29,178.22L228.22,176.94L230.24,174.39L230.27,173.11L230.87,166.72L231.24,165.45L231.69,166.72L233.37,165.45L234.53,162.89L234.61,161.61L235.47,160.34L235.89,161.61L236.63,159.06L238.5,157.78L239.09,155.23L239.16,153.95L240.06,150.12L240.19,151.39L240.38,150.12L241.55,148.84L241.87,145.01L241.89,152.67L241.89,153.95L241.89,155.23L242.45,150.12L242.88,148.84L243.09,150.12L244.06,148.84L244.22,150.12L244.46,148.84L245.05,150.12L245.13,148.84L245.31,153.95L245.74,151.39L246.01,152.67L246.32,151.39L246.34,153.95L246.45,153.95L246.46,155.23L247.48,151.39L247.93,150.12L248.34,147.56L248.45,153.95L248.48,153.95L248.85,152.67L249.17,151.39L249.31,152.67L249.35,153.95L249.43,152.67L249.74,155.23L250.06,156.5L250.15,153.95L250.18,164.17L250.19,165.45L250.72,185.88L250.87,184.61L251,185.88L251.45,187.16L252,185.88L253.04,180.77L253.13,182.05L254.45,173.11L254.6,174.39L254.88,173.11L256.13,169.28L256.13,170.55L256.28,171.83L256.88,168L257.19,166.72L257.39,165.45L258.04,166.72L258.67,160.34L259.13,159.06L259.61,153.95L259.63,155.23L260.17,156.5L261,151.39L261.18,150.12L262.45,142.45L262.89,141.18L263.09,139.9L264.15,138.62L265.58,130.96L266,129.68L267,125.85L267.04,127.13L268.41,120.74L269.07,119.46L271.08,113.08L271.08,114.35L274.1,97.75L274.32,99.03L274.33,101.58L275.27,100.3L275.27,101.58L275.99,97.75L276.62,96.47L276.92,97.75L278.09,96.47L278.39,92.64L280.86,93.92L281.03,123.29L281.95,122.02L283.14,123.29L283.29,122.02L283.29,120.74L283.38,124.57L283.56,122.02L284.17,123.29L287.1,122.02L287.84,120.74L288.4,116.91L288.41,115.63L288.53,118.18L289.06,116.91L289.18,115.63L289.23,116.91L290.17,115.63L291.37,122.02L291.48,120.74L291.67,119.46L291.7,122.02L292.14,119.46L292.38,118.18L293.15,115.63L293.23,114.35L293.62,111.8L293.99,113.08L293.99,114.35L294.28,127.13L295.23,125.85L295.41,127.13L295.92,124.57L295.93,125.85L295.93,127.13L296.95,124.57L297.12,125.85L297.23,123.29L297.69,124.57L298.07,125.85L298.54,127.13L299.06,125.85L300.53,120.74L300.85,119.46L301.17,122.02L301.33,116.91L301.45,118.18L301.5,116.91L302.06,118.18L303.21,116.91L303.23,118.18L303.78,115.63L304.13,114.35L304.45,109.24L304.72,110.52L305.11,111.8L305.12,116.91L305.31,114.35L306.35,113.08L307.08,124.57L307.08,123.29L307.19,122.02L307.22,120.74L307.53,132.24L307.68,132.24L307.78,133.51L307.83,142.45L308.34,141.18L308.54,139.9L308.89,141.18L308.92,139.9L309.22,138.62L309.88,136.07L310.46,134.79L311.17,133.51L311.24,132.24L312.13,129.68L312.37,130.96L313.01,128.4L313.04,129.68L313.31,130.96L313.33,132.24L313.94,125.85L314.14,124.57L314.16,125.85L314.29,123.29L314.94,122.02L315.14,120.74L316.48,119.46L317.16,115.63L317.21,114.35L318.44,106.69L319.43,105.41L322.16,96.47L323.28,95.19L324.07,92.64L324.89,91.36L325.03,88.81L325.78,90.08L326.14,109.24L326.34,107.97L326.63,109.24L326.91,107.97L326.93,110.52L327.28,109.24L327.92,110.52L328.44,109.24L329.18,110.52L330.32,106.69L331.28,105.41L332.57,104.13L332.92,105.41L332.97,106.69L333.98,105.41L334.51,102.86L334.97,104.13L335.15,102.86L335.58,104.13L335.61,105.41L335.61,106.69L336.29,104.13L336.98,105.41L337.97,141.18L338.26,139.9L338.43,136.07L338.88,141.18L339.04,142.45L340.5,130.96L340.84,129.68L340.97,132.24L341.44,130.96L341.87,129.68L342.87,132.24L343.26,130.96L344.25,129.68L344.26,130.96L344.87,129.68L345.1,128.4L345.44,127.13L345.86,128.4L346.24,127.13L346.84,125.85L347.09,124.57L347.29,122.02L348.41,120.74L348.69,119.46L349.79,118.18L351.4,113.08L351.41,114.35L351.43,115.63L352.4,110.52L352.93,111.8L353.79,106.69L353.79,107.97L354.29,106.69L354.33,107.97L354.96,104.13L355.02,102.86L355.07,101.58L356.39,100.3L357.24,97.75L357.27,96.47L358.1,93.92L358.44,92.64L359.38,97.75L359.77,96.47L359.95,95.19L361.48,92.64L361.69,93.92L362.8,91.36L363.36,90.08L364.93,84.97L365.54,83.7L365.91,82.42L366.13,83.7L366.19,84.97L366.2,83.7L367.09,82.42L368.22,79.87L368.33,78.59L369.32,77.31L369.34,78.59L369.41,96.47L370.06,92.64L370.32,93.92L370.95,91.36L371.19,90.08L371.94,91.36L372.86,90.08L373.49,86.25L373.6,87.53L373.88,86.25L375.17,83.7L376.02,82.42L376.65,79.87L376.65,78.59L376.65,72.2L377.92,70.92L378.95,67.09L380.46,68.37L380.46,70.92L380.88,67.09L380.88,68.37L381.24,67.09L381.74,68.37L382.06,67.09L382.07,65.82L382.32,67.09L383.2,65.82L383.34,64.54L383.34,65.82L384.66,67.09L385.3,65.82L385.36,67.09L385.53,68.37L385.53,69.65L386.15,69.65L386.46,70.92L386.66,84.97L387.65,86.25L388.67,83.7L389.19,82.42L389.32,79.87L389.36,83.7L389.78,84.97L390.99,76.03L391,77.31L391,76.03L391.03,82.42L391.34,79.87L391.9,78.59L393.22,74.76L394.35,73.48L395.06,69.65L395.77,68.37L396.15,64.54L396.62,67.09L396.88,65.82L397.91,59.43L397.91,60.71L399.34,59.43L400.12,53.04L400.13,55.6L400.95,54.32L401.28,55.6L401.32,54.32L401.83,53.04L402.39,50.49L403.04,51.76L403.99,47.93L404.63,46.66L405.25,44.1L405.47,45.38L405.61,46.66L405.92,47.93L406.13,46.66L407.31,47.93L409.71,38.99L409.99,37.71L410.98,36.44L411.71,37.71L412.8,33.88L412.89,32.61L412.95,33.88L413.12,28.77L413.74,30.05L413.81,27.5L414.97,26.22L415.13,23.66L415.31,26.22L415.57,27.5L415.97,26.22L416.14,27.5L416.17,28.77L416.44,31.33L416.98,30.05L418.02,22.39L418.06,26.22L418.73,24.94L418.8,23.66L419.02,26.22L419.25,26.22L419.42,27.5L420.21,22.39L420.54,23.66L420.67,27.5L421.17,22.39L421.51,21.11L422.09,18.55L422.09,19.83L422.16,21.11L422.71,16L422.81,18.55L423.07,19.83L423.24,17.28L423.38,28.77L423.38,30.05L423.78,36.44L424.08,24.94L424.15,26.22L424.77,33.88L424.8,30.05L424.93,31.33L426.61,22.39L426.67,23.66L426.81,36.44L427.22,31.33L427.5,30.05L427.54,32.61L428.07,30.05L428.65,28.77L429.3,32.61L429.58,31.33L429.81,30.05L429.95,32.61L430.03,31.33L430.61,30.05L431.26,40.27L431.28,38.99L431.66,37.71L431.74,36.44L432.06,40.27L432.33,38.99L432.67,37.71L433.09,33.88L433.27,36.44L433.81,35.16L434.23,31.33L434.63,32.61L434.63,33.88L435.2,51.76L435.49,53.04L436.12,49.21L436.96,47.93L437.1,51.76L438.09,53.04L439.19,50.49L439.23,49.21L439.39,50.49L439.76,49.21L440.23,47.93L440.69,45.38L440.81,49.21L440.94,47.93L441.19,46.66L441.83,44.1L442.19,45.38L442.81,51.76L443.04,49.21L443.07,47.93L443.52,51.76L443.77,51.76L443.92,50.49L444.31,41.55L444.68,49.21L444.78,47.93L445.06,44.1L445.18,50.49L445.18,51.76L445.18,53.04L445.78,44.1L445.9,46.66L446.03,45.38L446.39,41.55L446.61,42.82L446.8,44.1L447.05,41.55L447.22,50.49L447.22,51.76L447.51,69.65L447.93,64.54L448.03,65.82L448.04,67.09L448.8,65.82L449.03,63.26L449.09,73.48L449.21,72.2L449.51,70.92L449.61,72.2L450.02,70.92L450.06,72.2L450.16,69.65L450.78,68.37L451.42,64.54L451.6,63.26L452.34,56.87L452.6,59.43L452.63,60.71L452.79,59.43L453.16,65.82L453.74,64.54L453.87,65.82L454.13,63.26L454.31,64.54L454.65,65.82L455.31,55.6L455.61,54.32L455.63,53.04L455.72,56.87L456.07,54.32L456.57,53.04L456.58,54.32L457.17,44.1L457.2,46.66L458,45.38L458.49,41.55L459.06,42.82L459.19,40.27L459.47,46.66L459.85,45.38L459.87,44.1L460.19,42.82L460.45,45.38L460.75,44.1L460.92,46.66L461.29,44.1L461.64,45.38L462.17,38.99L462.52,41.55L462.58,42.82L462.71,41.55L462.74,45.38L463.18,42.82L463.61,41.55L463.62,40.27L464.16,51.76L464.18,49.21L464.33,47.93L465.57,51.76L465.76,50.49L466.01,53.04L466.48,51.76L466.73,50.49L467.73,55.6L467.87,53.04L467.9,51.76L468.01,49.21L468.57,53.04L468.57,53.04L468.92,51.76L469.17,47.93L469.56,51.76L469.59,53.04L469.91,51.76L470.75,72.2L471.02,70.92L471.11,69.65L471.85,67.09L471.88,65.82L472.73,55.6L472.83,56.87L472.9,54.32L473.01,65.82L473.3,65.82L473.85,64.54L474.54,74.76L474.68,72.2L474.75,70.92L474.83,72.2L475.1,65.82L475.71,67.09L475.95,63.26L475.99,68.37L476.15,67.09L476.62,68.37L476.89,69.65L477.18,65.82L477.54,64.54L477.84,68.37L477.86,69.65L479.13,65.82L479.84,64.54L480.1,59.43L480.41,64.54L480.72,63.26L481.84,53.04L482.61,54.32L483.13,67.09L483.55,65.82L483.64,68.37L483.99,60.71L484.16,61.98L484.42,60.71L484.89,68.37L485.59,67.09L485.78,65.82L486.11,68.37L486.11,69.65L486.76,67.09L487.01,81.14L487.1,79.87L487.11,77.31L487.67,84.97L487.95,83.7L488.16,84.97L489.63,83.7L490.22,84.97L490.52,83.7L490.98,84.97L490.99,83.7L491.54,82.42L491.54,81.14L491.8,84.97L491.88,83.7L492.51,82.42L492.73,83.7L493.06,82.42L493.45,81.14L493.53,78.59L493.67,82.42L493.96,81.14L494.49,79.87L494.57,78.59L495,83.7L495,84.97L496.1,81.14L496.5,82.42L496.75,79.87L497.06,82.42L497.06,83.7L497.65,84.97L497.83,83.7L498.62,76.03L498.65,78.59L498.65,79.87L498.65,81.14L498.81,78.59L499.66,79.87L499.66,78.59L499.94,78.59L501.1,77.31L501.66,73.48L501.78,74.76L501.91,76.03L503.09,68.37L503.49,69.65L503.49,70.92L503.8,65.82L503.96,67.09L504.5,65.82L505.07,68.37L505.09,69.65L505.57,68.37L505.63,69.65L505.93,68.37L505.93,67.09L506.64,69.65L506.83,68.37L506.93,67.09L507.85,65.82L508.47,67.09L508.91,65.82L509.66,60.71L509.9,59.43L509.92,60.71L510.07,59.43L510.79,58.15L511.05,60.71L511.51,59.43L511.62,60.71L512.04,55.6L512.2,58.15L512.48,59.43L512.74,55.6L514.53,56.87L514.86,53.04L515.5,54.32L515.75,67.09L516.2,63.26L516.33,64.54L516.46,67.09L517.04,65.82L517.44,64.54L517.76,60.71L518.71,59.43L518.84,56.87L519.87,55.6L520.53,53.04L520.64,51.76L520.76,49.21L522.19,50.49L522.62,69.65L522.9,67.09L522.99,65.82L523.04,68.37L523.78,67.09L524.73,63.26L524.74,64.54L525.46,70.92L525.5,69.65L525.94,68.37L526.58,63.26L526.61,64.54L527.06,63.26L529.55,58.15L529.88,56.87L530.52,54.32L530.99,53.04L531.96,50.49L532.01,49.21L532.21,50.49L532.86,49.21L533.52,46.66L535.02,45.38L536.26,42.82L536.6,41.55L537.98,33.88L537.99,35.16L538.02,33.88L538.06,37.71L538.64,35.16L538.85,33.88L539.7,24.94L539.84,23.66L539.86,21.11L540,21.11" style="vector-effect: none; fill: none; stroke: rgb(255, 127, 14); stroke-opacity: 1; stroke-width: 2px; opacity: 1;"/></g><g class="points"/><g class="text"/></g></g></g></g><g class="zerolinelayer-above"/><path class="xlines-above crisp" d="M0,0" style="fill: none;"/><path class="ylines-above crisp" d="M0,0" style="fill: none;"/><g class="overlines-above"/><g class="xaxislayer-above"><g class="xtick"><text text-anchor="middle" x="0" y="439" transform="translate(101,0)" style="font-family: 'Open Sans'; font-size: 18px; fill: rgb(0, 0, 0); fill-opacity: 1; white-space: pre;">2016</text></g><g class="xtick"><text text-anchor="middle" x="0" y="439" style="font-family: 'Open Sans'; font-size: 18px; fill: rgb(0, 0, 0); fill-opacity: 1; white-space: pre;" transform="translate(205.20999999999998,0)">2018</text></g><g class="xtick"><text text-anchor="middle" x="0" y="439" style="font-family: 'Open Sans'; font-size: 18px; fill: rgb(0, 0, 0); fill-opacity: 1; white-space: pre;" transform="translate(309.28,0)">2020</text></g><g class="xtick"><text text-anchor="middle" x="0" y="439" style="font-family: 'Open Sans'; font-size: 18px; fill: rgb(0, 0, 0); fill-opacity: 1; white-space: pre;" transform="translate(413.49,0)">2022</text></g><g class="xtick"><text text-anchor="middle" x="0" y="439" style="font-family: 'Open Sans'; font-size: 18px; fill: rgb(0, 0, 0); fill-opacity: 1; white-space: pre;" transform="translate(517.56,0)">2024</text></g></g><g class="yaxislayer-above"><g class="ytick"><text text-anchor="end" x="79" y="6.3" transform="translate(0,420)" style="font-family: 'Open Sans'; font-size: 18px; fill: rgb(0, 0, 0); fill-opacity: 1; white-space: pre;">0</text></g><g class="ytick"><text text-anchor="end" x="79" y="6.3" style="font-family: 'Open Sans'; font-size: 18px; fill: rgb(0, 0, 0); fill-opacity: 1; white-space: pre;" transform="translate(0,356.13)">50</text></g><g class="ytick"><text text-anchor="end" x="79" y="6.3" style="font-family: 'Open Sans'; font-size: 18px; fill: rgb(0, 0, 0); fill-opacity: 1; white-space: pre;" transform="translate(0,292.27)">100</text></g><g class="ytick"><text text-anchor="end" x="79" y="6.3" style="font-family: 'Open Sans'; font-size: 18px; fill: rgb(0, 0, 0); fill-opacity: 1; white-space: pre;" transform="translate(0,228.4)">150</text></g><g class="ytick"><text text-anchor="end" x="79" y="6.3" style="font-family: 'Open Sans'; font-size: 18px; fill: rgb(0, 0, 0); fill-opacity: 1; white-space: pre;" transform="translate(0,164.54000000000002)">200</text></g><g class="ytick"><text text-anchor="end" x="79" y="6.3" style="font-family: 'Open Sans'; font-size: 18px; fill: rgb(0, 0, 0); fill-opacity: 1; white-space: pre;" transform="translate(0,100.67)">250</text></g></g><g class="overaxes-above"/></g></g><g class="polarlayer"/><g class="smithlayer"/><g class="ternarylayer"/><g class="geolayer"/><g class="funnelarealayer"/><g class="pielayer"/><g class="iciclelayer"/><g class="treemaplayer"/><g class="sunburstlayer"/><g class="glimages"/><defs id="topdefs-b71a18"><g class="clips"/></defs><g class="layer-above"><g class="imagelayer"/><g class="shapelayer"/></g><g class="infolayer"><g class="g-gtitle"><text class="gtitle" x="35" y="50" text-anchor="start" dy="0em" style="opacity: 1; font-family: 'Open Sans'; font-size: 25px; fill: rgb(0, 0, 0); fill-opacity: 1; white-space: pre;">MultiQC/MultiQC - Open Issues Over Time</text></g><g class="g-xtitle"><text class="xtitle" x="350" y="472.9" text-anchor="middle" style="opacity: 1; font-family: 'Open Sans'; font-size: 22px; fill: rgb(0, 0, 0); fill-opacity: 1; white-space: pre;">Date</text></g><g class="g-ytitle"><text class="ytitle" transform="rotate(-90,29.799999999999997,260)" x="29.799999999999997" y="260" text-anchor="middle" style="opacity: 1; font-family: 'Open Sans'; font-size: 22px; fill: rgb(0, 0, 0); fill-opacity: 1; white-space: pre;">Number of Open Issues</text></g></g></svg>