<svg class="main-svg" xmlns="http://www.w3.org/2000/svg" xmlns:xlink="http://www.w3.org/1999/xlink" width="700" height="500" style="" viewBox="0 0 700 500"><rect x="0" y="0" width="700" height="500" style="fill: rgb(0, 0, 0); fill-opacity: 0;"/><defs id="defs-0d5a50"><g class="clips"><clipPath id="clip0d5a50xyplot" class="plotclip"><rect width="540" height="320"/></clipPath><clipPath class="axesclip" id="clip0d5a50x"><rect x="80" y="0" width="540" height="500"/></clipPath><clipPath class="axesclip" id="clip0d5a50y"><rect x="0" y="100" width="700" height="320"/></clipPath><clipPath class="axesclip" id="clip0d5a50xy"><rect x="80" y="100" width="540" height="320"/></clipPath></g><g class="gradients"/><g class="patterns"/></defs><g class="bglayer"><rect class="bg" x="80" y="100" width="540" height="320" style="fill: rgb(0, 0, 0); fill-opacity: 0; stroke-width: 0;"/></g><g class="layer-below"><g class="imagelayer"/><g class="shapelayer"/></g><g class="cartesianlayer"><g class="subplot xy"><g class="layer-subplot"><g class="shapelayer"/><g class="imagelayer"/></g><g class="minor-gridlayer"><g class="x"/><g class="y"/></g><g class="gridlayer"><g class="x"><path class="xgrid crisp" transform="translate(100.55,0)" d="M0,100v320" style="stroke: rgb(255, 255, 255); stroke-opacity: 1; stroke-width: 1px;"/><path class="xgrid crisp" transform="translate(202.51999999999998,0)" d="M0,100v320" style="stroke: rgb(255, 255, 255); stroke-opacity: 1; stroke-width: 1px;"/><path class="xgrid crisp" transform="translate(304.35,0)" d="M0,100v320" style="stroke: rgb(255, 255, 255); stroke-opacity: 1; stroke-width: 1px;"/><path class="xgrid crisp" transform="translate(406.32,0)" d="M0,100v320" style="stroke: rgb(255, 255, 255); stroke-opacity: 1; stroke-width: 1px;"/><path class="xgrid crisp" transform="translate(508.15,0)" d="M0,100v320" style="stroke: rgb(255, 255, 255); stroke-opacity: 1; stroke-width: 1px;"/><path class="xgrid crisp" transform="translate(610.13,0)" d="M0,100v320" style="stroke: rgb(255, 255, 255); stroke-opacity: 1; stroke-width: 1px;"/></g><g class="y"><path class="ygrid crisp" transform="translate(0,359.68)" d="M80,0h540" style="stroke: rgb(255, 255, 255); stroke-opacity: 1; stroke-width: 1px;"/><path class="ygrid crisp" transform="translate(0,299.37)" d="M80,0h540" style="stroke: rgb(255, 255, 255); stroke-opacity: 1; stroke-width: 1px;"/><path class="ygrid crisp" transform="translate(0,239.05)" d="M80,0h540" style="stroke: rgb(255, 255, 255); stroke-opacity: 1; stroke-width: 1px;"/><path class="ygrid crisp" transform="translate(0,178.73000000000002)" d="M80,0h540" style="stroke: rgb(255, 255, 255); stroke-opacity: 1; stroke-width: 1px;"/><path class="ygrid crisp" transform="translate(0,118.41)" d="M80,0h540" style="stroke: rgb(255, 255, 255); stroke-opacity: 1; stroke-width: 1px;"/></g></g><g class="zerolinelayer"><path class="yzl zl crisp" transform="translate(0,420)" d="M80,0h540" style="stroke: rgb(255, 255, 255); stroke-opacity: 1; stroke-width: 2px;"/></g><g class="layer-between"><g class="shapelayer"/><g class="imagelayer"/></g><path class="xlines-below"/><path class="ylines-below"/><g class="overlines-below"/><g class="xaxislayer-below"/><g class="yaxislayer-below"/><g class="overaxes-below"/><g class="overplot"><g class="xy" transform="translate(80,100)" clip-path="url(#clip0d5a50xyplot)"><g class="scatterlayer mlayer"><g class="trace scatter traceffe976" style="stroke-miterlimit: 2;"><g class="fills"><g><path class="js-fill" d="M540,320L0,320L0,318.79L0,316.38L0.55,317.59L1.81,318.79L1.92,317.59L2.92,318.79L3.74,312.76L3.77,313.97L4.44,312.76L4.86,307.94L5.03,309.14L5.39,310.35L5.56,306.73L5.85,311.56L5.99,309.14L6.28,310.35L6.95,299.49L7.07,298.29L7.24,297.08L7.5,299.49L7.5,300.7L7.51,301.9L7.68,292.25L8.36,291.05L8.74,299.49L8.74,300.7L9.46,309.14L9.47,307.94L9.6,306.73L9.91,301.9L9.91,300.7L10.31,299.49L10.34,301.9L10.34,303.11L11.3,306.73L11.41,305.52L11.55,304.32L12.51,287.43L12.55,293.46L12.55,294.67L12.67,292.25L12.97,295.87L13.15,293.46L13.38,292.25L13.77,286.22L13.92,289.84L14.32,288.63L14.51,287.43L14.64,289.84L15.33,291.05L15.49,294.67L16.67,293.46L17.26,291.05L17.39,289.84L18.11,285.02L18.11,286.22L18.24,285.02L18.68,286.22L21.18,285.02L21.18,286.22L21.58,282.6L21.59,285.02L23.09,283.81L23.28,285.02L23.43,283.81L24.26,282.6L24.97,280.19L25.07,281.4L25.38,280.19L26.12,288.63L26.18,287.43L26.22,286.22L26.25,283.81L26.91,287.43L27.05,286.22L27.3,287.43L28.45,288.63L29.87,285.02L30.09,286.22L30.13,289.84L30.13,289.84L30.92,288.63L31.39,292.25L31.8,291.05L31.99,297.08L32.88,298.29L33.57,295.87L33.57,297.08L33.71,298.29L34.58,294.67L34.7,295.87L35.31,297.08L35.67,295.87L35.67,297.08L35.81,291.05L36.09,292.25L36.78,291.05L37.01,287.43L37.19,294.67L37.69,295.87L37.76,294.67L38.19,298.29L38.25,299.49L38.47,294.67L38.76,295.87L39.05,297.08L39.89,291.05L40.02,294.67L40.36,293.46L40.56,291.05L40.72,294.67L40.85,293.46L40.98,294.67L41.95,288.63L41.98,289.84L42.77,286.22L43.07,285.02L43.83,287.43L44.33,286.22L44.63,289.84L45.08,285.02L45.34,286.22L45.41,283.81L45.73,289.84L45.87,291.05L46.44,294.67L46.58,292.25L46.59,291.05L46.69,294.67L47,293.46L47.55,294.67L47.56,298.29L47.85,295.87L48.4,297.08L48.78,295.87L48.78,297.08L49.47,295.87L49.48,297.08L49.66,294.67L49.78,294.67L50.6,293.46L51.76,291.05L52.3,292.25L52.3,293.46L52.73,289.84L52.88,292.25L53.32,291.05L53.42,289.84L53.72,293.46L54.54,292.25L55.85,287.43L56.34,286.22L57.56,275.37L57.64,277.78L57.73,278.98L57.73,280.19L58.48,276.57L58.6,275.37L58.62,276.57L60.16,275.37L61.34,268.13L61.46,269.33L62.35,266.92L62.89,265.71L63.58,254.86L63.61,257.27L64.34,256.06L64.98,258.48L64.98,259.68L65.29,265.71L65.98,264.51L67.22,260.89L67.95,259.68L68.2,266.92L69.09,265.71L70.17,277.78L70.32,276.57L70.84,275.37L70.84,274.16L71.23,274.16L71.67,275.37L72.74,271.75L72.74,272.95L73.17,271.75L73.2,270.54L73.25,271.75L74.09,270.54L74.86,269.33L75.36,268.13L78.63,258.48L78.63,259.68L79.08,263.3L79.21,259.68L79.61,260.89L79.9,262.1L79.96,258.48L80.16,260.89L80.88,262.1L81.21,256.06L81.22,257.27L82.34,256.06L82.54,257.27L82.73,256.06L82.96,254.86L82.99,253.65L83.69,257.27L83.82,256.06L83.96,257.27L84.52,253.65L84.53,254.86L84.67,256.06L85.07,260.89L85.47,259.68L85.81,258.48L85.81,256.06L85.92,259.68L86.87,258.48L86.9,257.27L87.56,259.68L87.73,258.48L88.52,260.89L88.85,259.68L89.41,260.89L89.5,262.1L89.81,266.92L90.34,265.71L90.65,274.16L90.93,271.75L91.39,270.54L92.44,266.92L92.57,268.13L92.57,269.33L94.4,262.1L94.42,263.3L96.49,256.06L96.63,257.27L96.63,258.48L97.51,260.89L97.61,262.1L98.46,272.95L98.76,271.75L99.16,274.16L99.16,272.95L99.26,271.75L99.3,274.16L99.72,262.1L99.72,262.1L100.13,260.89L100.44,258.48L100.71,264.51L101.09,263.3L102.08,260.89L102.08,262.1L102.08,263.3L102.2,265.71L102.64,264.51L103.12,263.3L103.46,266.92L103.6,264.51L104,263.3L104.02,264.51L104.57,262.1L104.59,263.3L105.17,262.1L105.28,260.89L105.28,262.1L105.96,263.3L105.96,264.51L106.55,263.3L107.11,262.1L107.34,258.48L107.51,258.48L107.93,257.27L109.27,251.24L109.31,252.44L109.38,253.65L111.42,250.03L111.98,251.24L113.36,247.62L113.82,248.83L114.12,247.62L114.94,276.57L115.05,275.37L115.65,272.95L115.93,274.16L116.33,272.95L116.33,274.16L117.3,272.95L117.7,274.16L118,272.95L118.01,271.75L118.69,270.54L118.93,271.75L118.94,274.16L119.16,269.33L119.67,268.13L119.68,269.33L120.09,266.92L120.15,266.92L120.7,265.71L120.7,264.51L121.19,270.54L122.9,269.33L123.12,270.54L123.17,269.33L123.69,268.13L124.12,263.3L124.9,262.1L126.57,257.27L126.94,258.48L127.41,256.06L127.48,257.27L127.48,258.48L127.63,264.51L128,262.1L128.52,260.89L129.03,258.48L129.27,259.68L129.27,260.89L129.87,264.51L130.57,263.3L131.54,258.48L131.91,259.68L132.59,258.48L133.65,257.27L134.77,253.65L135.57,254.86L136.3,253.65L136.37,254.86L136.88,253.65L137.23,252.44L137.24,254.86L137.77,250.03L137.77,250.03L138.21,248.83L138.22,246.41L138.77,247.62L139.12,246.41L139.62,244L139.65,242.79L139.72,241.59L139.78,245.21L140.32,244L140.34,245.21L140.74,242.79L141.37,244L141.76,240.38L142,251.24L142.56,250.03L143.29,247.62L143.37,248.83L143.37,247.62L143.4,250.03L144.56,248.83L145.2,247.62L145.32,250.03L146.12,248.83L146.14,250.03L146.78,246.41L146.84,247.62L147.4,248.83L149.11,246.41L149.12,247.62L150.21,241.59L151.09,240.38L151.33,237.97L151.85,239.17L151.85,237.97L152.51,244L152.87,242.79L154.05,241.59L154.38,242.79L156.76,236.76L156.9,237.97L157.41,233.14L157.7,231.94L158.99,224.7L159.72,223.49L159.72,224.7L160.1,223.49L161.18,222.29L161.24,221.08L161.68,225.9L162.11,224.7L163.15,222.29L163.16,221.08L163.18,219.87L163.38,228.32L164.64,227.11L164.89,224.7L165.98,223.49L166.69,228.32L167.04,227.11L169.91,217.46L169.97,216.25L170.02,217.46L171.74,216.25L171.98,221.08L171.99,222.29L172,225.9L172.41,223.49L174.34,222.29L174.36,224.7L174.51,223.49L175.24,222.29L175.75,217.46L175.76,218.67L176.28,219.87L176.63,221.08L177.53,216.25L177.58,217.46L177.71,218.67L178.55,217.46L178.55,218.67L181.63,213.84L181.73,212.63L182.3,209.02L182.31,210.22L182.72,209.02L182.74,211.43L183.4,210.22L183.57,209.02L184.25,210.22L184.55,209.02L184.55,207.81L185.28,207.81L185.46,206.6L186.21,204.19L186.35,202.98L186.53,204.19L186.67,201.78L186.68,202.98L187.48,201.78L188.83,193.33L188.84,195.75L189.1,194.54L189.43,192.13L189.74,193.33L190.25,192.13L190.45,189.71L190.91,192.13L191.17,190.92L191.55,188.51L192.1,187.3L193.25,186.1L193.25,187.3L193.33,186.1L193.36,187.3L194.7,186.1L195.42,187.3L196.15,186.1L196.37,184.89L196.37,186.1L198.21,184.89L198.9,183.68L198.91,184.89L198.91,186.1L199.29,184.89L200.12,186.1L200.12,187.3L200.81,187.3L200.98,186.1L201.94,183.68L202.66,182.48L203.3,178.86L203.67,180.06L205.04,175.24L205.37,176.44L206.77,175.24L207.98,172.83L208.1,174.03L210.59,169.21L210.88,170.41L211.24,166.79L211.98,165.59L212.4,168L212.44,166.79L212.71,165.59L213.45,163.17L213.66,164.38L213.69,165.59L213.72,169.21L214.44,165.59L214.5,166.79L214.87,164.38L214.95,171.62L215.34,170.41L215.36,171.62L215.38,170.41L216.1,169.21L216.31,170.41L216.78,166.79L216.91,168L217.65,182.48L217.73,183.68L217.79,181.27L218.48,192.13L218.49,193.33L218.66,196.95L219.24,195.75L219.25,196.95L219.83,192.13L219.99,194.54L220.26,195.75L221.78,186.1L222.14,184.89L222.3,181.27L222.4,186.1L223.31,184.89L225.29,182.48L225.32,181.27L225.9,175.24L226.27,174.03L226.71,175.24L228.35,174.03L229.49,171.62L229.57,170.41L230.41,169.21L230.82,170.41L231.54,168L233.37,166.79L233.95,164.38L234.02,163.17L234.9,159.56L235.03,160.76L235.21,159.56L236.35,158.35L236.67,154.73L236.69,161.97L236.69,163.17L236.69,164.38L237.23,159.56L237.66,158.35L237.86,159.56L238.82,158.35L238.97,159.56L239.2,158.35L239.79,159.56L239.86,158.35L240.04,163.17L240.46,160.76L240.73,161.97L241.03,160.76L241.05,163.17L241.15,163.17L241.16,164.38L242.16,160.76L242.6,159.56L243,157.14L243.11,163.17L243.13,163.17L243.5,161.97L243.81,160.76L243.95,161.97L243.99,163.17L244.07,161.97L244.37,164.38L244.69,165.59L244.77,163.17L244.82,175.24L244.82,176.44L244.93,174.03L245.61,194.54L245.74,193.33L246.04,194.54L246.58,193.33L247.6,188.51L247.69,189.71L248.98,181.27L249.13,182.48L249.4,181.27L250.62,177.65L250.63,178.86L250.77,180.06L251.35,176.44L251.66,175.24L251.85,174.03L252.49,175.24L253.11,169.21L253.56,168L254.03,163.17L254.05,164.38L254.58,165.59L255.38,160.76L255.56,159.56L256.81,152.32L257.24,151.11L257.44,149.9L258.47,148.7L259.87,141.46L260.28,140.25L261.43,136.63L261.44,137.84L263.66,129.4L263.68,128.19L264.62,125.78L264.71,126.98L265.6,123.37L265.62,122.16L266.16,119.75L266.21,118.54L268.21,110.1L268.42,111.3L268.43,113.71L269.35,112.51L269.35,113.71L270.06,110.1L270.68,108.89L270.97,110.1L272.12,108.89L272.41,105.27L274.82,106.48L274.99,134.22L275.89,133.02L277.05,134.22L277.2,133.02L277.2,131.81L277.29,135.43L277.46,133.02L278.06,134.22L280.93,133.02L281.65,131.81L282.2,128.19L282.21,126.98L282.33,129.4L282.96,126.98L283.01,128.19L283.93,126.98L284.18,128.19L284.71,133.02L284.88,130.6L285.1,131.81L285.1,133.02L285.4,130.6L285.85,131.81L285.86,130.6L287.31,123.37L287.67,124.57L287.95,137.84L288.89,136.63L289.06,137.84L289.56,135.43L289.57,136.63L289.57,137.84L290.57,135.43L290.74,136.63L290.84,134.22L291.29,135.43L291.66,136.63L292.12,137.84L292.63,136.63L294.07,131.81L294.38,130.6L294.7,133.02L294.85,128.19L294.97,129.4L295.02,128.19L295.57,129.4L296.69,128.19L296.71,129.4L297.25,126.98L297.59,125.78L297.91,120.95L298.17,122.16L298.55,123.37L298.56,128.19L298.75,125.78L299.77,124.57L300.48,135.43L300.48,134.22L300.59,133.02L300.61,131.81L301.16,143.87L301.16,145.08L301.46,152.32L301.9,149.9L302.25,151.11L302.95,146.29L303.11,147.49L303.78,145.08L304.31,143.87L304.34,145.08L304.61,141.46L305.42,140.25L305.65,141.46L305.66,140.25L306.28,139.05L306.59,142.67L306.7,139.05L307.15,137.84L307.54,134.22L308.17,133.02L308.36,131.81L309.68,130.6L310.34,126.98L310.39,125.78L311.59,118.54L312.56,117.33L315.24,108.89L316.33,107.68L317.1,105.27L317.91,104.06L318.04,101.65L318.78,102.86L319.13,120.95L319.33,119.75L319.6,120.95L319.88,119.75L319.9,122.16L320.24,120.95L320.87,122.16L321.38,120.95L322.1,122.16L323.22,118.54L324.16,117.33L325.42,116.13L325.76,117.33L325.81,118.54L326.8,117.33L327.32,114.92L327.77,116.13L327.94,114.92L328.37,116.13L328.39,117.33L328.4,118.54L329.06,116.13L329.73,117.33L330.71,151.11L330.99,149.9L331.15,146.29L331.6,151.11L331.75,152.32L333.18,141.46L333.52,140.25L333.64,142.67L334.1,141.46L334.53,140.25L335.5,142.67L335.88,141.46L336.85,140.25L336.86,141.46L337.46,140.25L337.68,139.05L338.02,137.84L338.42,139.05L338.8,137.84L339.38,136.63L339.62,135.43L339.82,133.02L340.92,131.81L341.19,130.6L342.27,129.4L343.85,124.57L343.85,125.78L343.88,126.98L344.82,122.16L345.35,123.37L346.18,118.54L346.18,119.75L346.67,118.54L346.72,119.75L347.33,117.33L347.33,116.13L347.44,113.71L348.73,112.51L349.56,110.1L349.59,108.89L350.41,106.48L350.73,105.27L351.65,110.1L352.03,108.89L352.21,107.68L353.7,105.27L353.91,106.48L355,104.06L355.55,102.86L357.08,98.03L357.69,96.83L358.05,95.62L358.26,96.83L358.32,98.03L358.33,96.83L359.2,95.62L360.3,93.21L360.41,92L361.38,90.79L361.4,92L361.47,108.89L362.11,105.27L362.36,106.48L362.97,104.06L363.21,102.86L363.95,104.06L364.85,102.86L365.46,99.24L365.57,100.44L365.85,99.24L367.11,96.83L367.94,95.62L368.55,93.21L368.55,92L368.55,85.97L369.79,84.76L370.8,81.14L372.28,82.35L372.28,84.76L372.69,81.14L372.7,82.35L373.04,81.14L373.53,82.35L373.84,81.14L373.85,79.94L374.1,81.14L374.96,79.94L375.1,78.73L375.1,79.94L376.4,81.14L377.02,79.94L377.08,81.14L377.24,82.35L377.85,83.56L378.15,84.76L378.35,98.03L379.32,99.24L380.31,96.83L380.82,95.62L380.95,93.21L380.99,96.83L381.4,98.03L382.59,89.59L382.6,90.79L382.6,89.59L382.62,95.62L382.93,93.21L383.48,92L384.76,88.38L385.87,87.17L386.57,83.56L387.26,82.35L387.63,78.73L388.1,81.14L388.35,79.94L389.35,73.9L389.35,75.11L390.76,73.9L391.52,67.87L391.53,70.29L392.33,69.08L392.65,70.29L392.69,69.08L393.19,67.87L393.74,65.46L394.38,66.67L395.31,63.05L395.93,61.84L396.54,59.43L396.76,60.63L396.89,61.84L397.2,63.05L397.4,61.84L398.56,63.05L400.9,54.6L401.17,53.4L402.14,52.19L402.86,53.4L403.93,49.78L404.01,48.57L404.07,49.78L404.24,44.95L404.84,46.16L404.92,43.75L406.04,42.54L406.2,40.13L406.39,42.54L406.64,43.75L407.03,42.54L407.19,43.75L407.22,44.95L407.49,47.37L408.02,46.16L409.03,38.92L409.08,42.54L409.72,41.33L409.8,40.13L410.01,42.54L410.24,42.54L410.4,43.75L411.18,38.92L411.5,40.13L411.63,43.75L412.12,38.92L412.45,37.71L413.01,35.3L413.02,36.51L413.08,37.71L413.62,32.89L413.72,35.3L413.98,36.51L414.14,34.1L414.28,48.57L414.28,49.78L414.67,52.19L414.96,49.78L414.96,48.57L414.96,41.33L415.64,49.78L415.67,46.16L415.79,47.37L417.44,38.92L417.5,40.13L417.63,52.19L418.03,47.37L418.31,46.16L418.35,48.57L418.87,46.16L419.44,44.95L420.07,48.57L420.34,47.37L420.57,46.16L420.71,48.57L420.79,47.37L421.35,46.16L421.98,55.81L422.01,54.6L422.38,53.4L422.46,52.19L422.77,55.81L423.03,54.6L423.37,53.4L423.78,49.78L423.95,52.19L424.48,50.98L424.89,47.37L425.29,49.78L425.29,50.98L426.12,67.87L426.33,66.67L426.75,64.25L427.57,63.05L427.7,66.67L428.67,67.87L429.75,65.46L429.79,64.25L429.94,65.46L430.31,64.25L430.76,63.05L431.21,60.63L431.33,64.25L431.46,63.05L431.7,61.84L432.33,59.43L432.68,60.63L433.29,66.67L433.51,64.25L433.54,63.05L434.23,66.67L434.37,65.46L434.75,57.02L435.12,64.25L435.22,63.05L435.5,59.43L435.61,66.67L435.61,67.87L436.2,59.43L436.32,61.84L436.45,60.63L436.79,57.02L437.2,59.43L437.25,58.22L437.44,57.02L437.58,60.63L437.58,61.84L437.89,83.56L438.31,78.73L438.4,79.94L438.41,81.14L439.15,79.94L439.22,78.73L439.38,77.52L439.43,87.17L439.57,84.76L439.68,85.97L440.49,83.56L441.09,82.35L441.71,78.73L441.89,77.52L442.62,71.49L442.87,73.9L442.9,75.11L443.05,73.9L443.42,79.94L443.99,78.73L444.11,79.94L444.37,77.52L444.54,78.73L444.88,79.94L445.52,70.29L445.82,69.08L445.84,67.87L445.92,71.49L446.27,69.08L446.75,67.87L446.77,69.08L447.34,59.43L447.37,61.84L448.16,60.63L448.64,57.02L449.19,58.22L449.31,55.81L449.59,61.84L449.96,60.63L449.98,59.43L450.3,58.22L450.55,60.63L450.84,59.43L451.02,61.84L451.37,59.43L451.71,60.63L452.23,54.6L452.58,57.02L452.63,58.22L452.76,57.02L452.79,60.63L453.22,58.22L453.64,57.02L453.65,55.81L454.19,66.67L454.2,64.25L454.35,63.05L455.56,66.67L455.74,65.46L455.99,67.87L456.45,66.67L456.69,65.46L457.67,70.29L457.81,67.87L457.84,66.67L457.95,64.25L458.49,67.87L458.5,67.87L458.84,66.67L459.08,63.05L459.47,66.67L459.5,67.87L459.81,66.67L460.63,85.97L460.9,84.76L462.57,70.29L462.66,71.49L462.73,69.08L462.84,79.94L463.12,78.73L463.12,79.94L463.66,78.73L463.68,79.94L463.95,81.14L464.34,88.38L464.62,85.97L464.76,84.76L464.88,79.94L465.5,79.94L465.62,78.73L465.72,77.52L465.75,82.35L465.91,81.14L466.37,82.35L466.64,83.56L467.27,78.73L467.57,79.94L467.59,83.56L468.26,81.14L468.39,82.35L468.83,79.94L469.53,78.73L469.78,73.9L470.09,78.73L470.39,77.52L471.48,67.87L472.24,69.08L472.75,81.14L473.15,79.94L473.25,82.35L473.58,75.11L473.75,76.32L474,75.11L474.46,82.35L475.15,81.14L475.34,79.94L475.66,82.35L475.66,83.56L476.3,81.14L476.54,94.41L476.63,93.21L476.63,90.79L477.18,98.03L477.46,96.83L477.67,98.03L479.1,96.83L479.68,98.03L479.98,96.83L480.42,98.03L480.44,96.83L480.97,95.62L480.97,94.41L481.23,98.03L481.31,96.83L481.92,95.62L482.13,96.83L482.46,95.62L482.85,94.41L482.92,92L483.06,95.62L483.34,94.41L483.86,93.21L483.94,92L484.36,96.83L484.36,98.03L485.44,94.41L485.82,95.62L486.07,93.21L486.37,95.62L486.37,96.83L486.96,98.03L487.13,96.83L487.9,89.59L487.93,93.21L487.93,94.41L488.08,92L488.92,93.21L488.92,92L489.19,92L490.33,90.79L490.87,87.17L491.12,89.59L491.21,88.38L491.84,83.56L492.03,82.35L492.67,84.76L492.7,82.35L492.85,81.14L493.65,79.94L494.21,81.14L494.23,83.56L494.76,83.56L495.05,82.35L495.05,81.14L495.75,83.56L495.94,82.35L496.03,81.14L496.93,79.94L497.54,81.14L497.97,79.94L498.71,75.11L498.94,73.9L498.94,75.11L499.1,73.9L499.81,72.7L500.07,75.11L500.51,73.9L500.62,75.11L501.03,70.29L501.18,72.7L501.46,73.9L501.72,70.29L503.47,71.49L503.79,67.87L504.42,69.08L504.67,81.14L505.1,77.52L505.23,78.73L505.35,81.14L505.93,79.94L506.32,78.73L506.63,75.11L507.56,73.9L507.68,71.49L508.69,70.29L509.34,67.87L509.45,66.67L509.57,64.25L510.97,65.46L511.38,83.56L511.66,81.14L511.74,79.94L511.8,82.35L512.53,81.14L513.45,77.52L513.46,78.73L514.17,84.76L514.21,83.56L514.63,82.35L515.26,77.52L515.29,78.73L515.73,77.52L518.17,72.7L518.49,71.49L519.11,69.08L519.58,67.87L520.52,65.46L520.57,64.25L520.77,65.46L521.4,64.25L522.05,61.84L523.52,60.63L525.06,57.02L525.19,55.81L526.42,49.78L526.42,50.98L526.45,49.78L526.5,53.4L527.06,50.98L527.27,49.78L528.09,41.33L528.23,40.13L528.79,36.51L531.72,35.3L533.17,28.06L534.97,26.86L534.99,25.65L535.93,24.44L535.95,25.65L536.46,22.03L536.76,20.83L537.1,18.41L538.97,17.21L540,16" style="fill: rgb(255, 127, 14); fill-opacity: 0.5; stroke-width: 0;"/></g></g><g class="errorbars"/><g class="lines"><path class="js-line" d="M0,318.79L0,316.38L0.55,317.59L1.81,318.79L1.92,317.59L2.92,318.79L3.74,312.76L3.77,313.97L4.44,312.76L4.86,307.94L5.03,309.14L5.39,310.35L5.56,306.73L5.85,311.56L5.99,309.14L6.28,310.35L6.95,299.49L7.07,298.29L7.24,297.08L7.5,299.49L7.5,300.7L7.51,301.9L7.68,292.25L8.36,291.05L8.74,299.49L8.74,300.7L9.46,309.14L9.47,307.94L9.6,306.73L9.91,301.9L9.91,300.7L10.31,299.49L10.34,301.9L10.34,303.11L11.3,306.73L11.41,305.52L11.55,304.32L12.51,287.43L12.55,293.46L12.55,294.67L12.67,292.25L12.97,295.87L13.15,293.46L13.38,292.25L13.77,286.22L13.92,289.84L14.32,288.63L14.51,287.43L14.64,289.84L15.33,291.05L15.49,294.67L16.67,293.46L17.26,291.05L17.39,289.84L18.11,285.02L18.11,286.22L18.24,285.02L18.68,286.22L21.18,285.02L21.18,286.22L21.58,282.6L21.59,285.02L23.09,283.81L23.28,285.02L23.43,283.81L24.26,282.6L24.97,280.19L25.07,281.4L25.38,280.19L26.12,288.63L26.18,287.43L26.22,286.22L26.25,283.81L26.91,287.43L27.05,286.22L27.3,287.43L28.45,288.63L29.87,285.02L30.09,286.22L30.13,289.84L30.13,289.84L30.92,288.63L31.39,292.25L31.8,291.05L31.99,297.08L32.88,298.29L33.57,295.87L33.57,297.08L33.71,298.29L34.58,294.67L34.7,295.87L35.31,297.08L35.67,295.87L35.67,297.08L35.81,291.05L36.09,292.25L36.78,291.05L37.01,287.43L37.19,294.67L37.69,295.87L37.76,294.67L38.19,298.29L38.25,299.49L38.47,294.67L38.76,295.87L39.05,297.08L39.89,291.05L40.02,294.67L40.36,293.46L40.56,291.05L40.72,294.67L40.85,293.46L40.98,294.67L41.95,288.63L41.98,289.84L42.77,286.22L43.07,285.02L43.83,287.43L44.33,286.22L44.63,289.84L45.08,285.02L45.34,286.22L45.41,283.81L45.73,289.84L45.87,291.05L46.44,294.67L46.58,292.25L46.59,291.05L46.69,294.67L47,293.46L47.55,294.67L47.56,298.29L47.85,295.87L48.4,297.08L48.78,295.87L48.78,297.08L49.47,295.87L49.48,297.08L49.66,294.67L49.78,294.67L50.6,293.46L51.76,291.05L52.3,292.25L52.3,293.46L52.73,289.84L52.88,292.25L53.32,291.05L53.42,289.84L53.72,293.46L54.54,292.25L55.85,287.43L56.34,286.22L57.56,275.37L57.64,277.78L57.73,278.98L57.73,280.19L58.48,276.57L58.6,275.37L58.62,276.57L60.16,275.37L61.34,268.13L61.46,269.33L62.35,266.92L62.89,265.71L63.58,254.86L63.61,257.27L64.34,256.06L64.98,258.48L64.98,259.68L65.29,265.71L65.98,264.51L67.22,260.89L67.95,259.68L68.2,266.92L69.09,265.71L70.17,277.78L70.32,276.57L70.84,275.37L70.84,274.16L71.23,274.16L71.67,275.37L72.74,271.75L72.74,272.95L73.17,271.75L73.2,270.54L73.25,271.75L74.09,270.54L74.86,269.33L75.36,268.13L78.63,258.48L78.63,259.68L79.08,263.3L79.21,259.68L79.61,260.89L79.9,262.1L79.96,258.48L80.16,260.89L80.88,262.1L81.21,256.06L81.22,257.27L82.34,256.06L82.54,257.27L82.73,256.06L82.96,254.86L82.99,253.65L83.69,257.27L83.82,256.06L83.96,257.27L84.52,253.65L84.53,254.86L84.67,256.06L85.07,260.89L85.47,259.68L85.81,258.48L85.81,256.06L85.92,259.68L86.87,258.48L86.9,257.27L87.56,259.68L87.73,258.48L88.52,260.89L88.85,259.68L89.41,260.89L89.5,262.1L89.81,266.92L90.34,265.71L90.65,274.16L90.93,271.75L91.39,270.54L92.44,266.92L92.57,268.13L92.57,269.33L94.4,262.1L94.42,263.3L96.49,256.06L96.63,257.27L96.63,258.48L97.51,260.89L97.61,262.1L98.46,272.95L98.76,271.75L99.16,274.16L99.16,272.95L99.26,271.75L99.3,274.16L99.72,262.1L99.72,262.1L100.13,260.89L100.44,258.48L100.71,264.51L101.09,263.3L102.08,260.89L102.08,262.1L102.08,263.3L102.2,265.71L102.64,264.51L103.12,263.3L103.46,266.92L103.6,264.51L104,263.3L104.02,264.51L104.57,262.1L104.59,263.3L105.17,262.1L105.28,260.89L105.28,262.1L105.96,263.3L105.96,264.51L106.55,263.3L107.11,262.1L107.34,258.48L107.51,258.48L107.93,257.27L109.27,251.24L109.31,252.44L109.38,253.65L111.42,250.03L111.98,251.24L113.36,247.62L113.82,248.83L114.12,247.62L114.94,276.57L115.05,275.37L115.65,272.95L115.93,274.16L116.33,272.95L116.33,274.16L117.3,272.95L117.7,274.16L118,272.95L118.01,271.75L118.69,270.54L118.93,271.75L118.94,274.16L119.16,269.33L119.67,268.13L119.68,269.33L120.09,266.92L120.15,266.92L120.7,265.71L120.7,264.51L121.19,270.54L122.9,269.33L123.12,270.54L123.17,269.33L123.69,268.13L124.12,263.3L124.9,262.1L126.57,257.27L126.94,258.48L127.41,256.06L127.48,257.27L127.48,258.48L127.63,264.51L128,262.1L128.52,260.89L129.03,258.48L129.27,259.68L129.27,260.89L129.87,264.51L130.57,263.3L131.54,258.48L131.91,259.68L132.59,258.48L133.65,257.27L134.77,253.65L135.57,254.86L136.3,253.65L136.37,254.86L136.88,253.65L137.23,252.44L137.24,254.86L137.77,250.03L137.77,250.03L138.21,248.83L138.22,246.41L138.77,247.62L139.12,246.41L139.62,244L139.65,242.79L139.72,241.59L139.78,245.21L140.32,244L140.34,245.21L140.74,242.79L141.37,244L141.76,240.38L142,251.24L142.56,250.03L143.29,247.62L143.37,248.83L143.37,247.62L143.4,250.03L144.56,248.83L145.2,247.62L145.32,250.03L146.12,248.83L146.14,250.03L146.78,246.41L146.84,247.62L147.4,248.83L149.11,246.41L149.12,247.62L150.21,241.59L151.09,240.38L151.33,237.97L151.85,239.17L151.85,237.97L152.51,244L152.87,242.79L154.05,241.59L154.38,242.79L156.76,236.76L156.9,237.97L157.41,233.14L157.7,231.94L158.99,224.7L159.72,223.49L159.72,224.7L160.1,223.49L161.18,222.29L161.24,221.08L161.68,225.9L162.11,224.7L163.15,222.29L163.16,221.08L163.18,219.87L163.38,228.32L164.64,227.11L164.89,224.7L165.98,223.49L166.69,228.32L167.04,227.11L169.91,217.46L169.97,216.25L170.02,217.46L171.74,216.25L171.98,221.08L171.99,222.29L172,225.9L172.41,223.49L174.34,222.29L174.36,224.7L174.51,223.49L175.24,222.29L175.75,217.46L175.76,218.67L176.28,219.87L176.63,221.08L177.53,216.25L177.58,217.46L177.71,218.67L178.55,217.46L178.55,218.67L181.63,213.84L181.73,212.63L182.3,209.02L182.31,210.22L182.72,209.02L182.74,211.43L183.4,210.22L183.57,209.02L184.25,210.22L184.55,209.02L184.55,207.81L185.28,207.81L185.46,206.6L186.21,204.19L186.35,202.98L186.53,204.19L186.67,201.78L186.68,202.98L187.48,201.78L188.83,193.33L188.84,195.75L189.1,194.54L189.43,192.13L189.74,193.33L190.25,192.13L190.45,189.71L190.91,192.13L191.17,190.92L191.55,188.51L192.1,187.3L193.25,186.1L193.25,187.3L193.33,186.1L193.36,187.3L194.7,186.1L195.42,187.3L196.15,186.1L196.37,184.89L196.37,186.1L198.21,184.89L198.9,183.68L198.91,184.89L198.91,186.1L199.29,184.89L200.12,186.1L200.12,187.3L200.81,187.3L200.98,186.1L201.94,183.68L202.66,182.48L203.3,178.86L203.67,180.06L205.04,175.24L205.37,176.44L206.77,175.24L207.98,172.83L208.1,174.03L210.59,169.21L210.88,170.41L211.24,166.79L211.98,165.59L212.4,168L212.44,166.79L212.71,165.59L213.45,163.17L213.66,164.38L213.69,165.59L213.72,169.21L214.44,165.59L214.5,166.79L214.87,164.38L214.95,171.62L215.34,170.41L215.36,171.62L215.38,170.41L216.1,169.21L216.31,170.41L216.78,166.79L216.91,168L217.65,182.48L217.73,183.68L217.79,181.27L218.48,192.13L218.49,193.33L218.66,196.95L219.24,195.75L219.25,196.95L219.83,192.13L219.99,194.54L220.26,195.75L221.78,186.1L222.14,184.89L222.3,181.27L222.4,186.1L223.31,184.89L225.29,182.48L225.32,181.27L225.9,175.24L226.27,174.03L226.71,175.24L228.35,174.03L229.49,171.62L229.57,170.41L230.41,169.21L230.82,170.41L231.54,168L233.37,166.79L233.95,164.38L234.02,163.17L234.9,159.56L235.03,160.76L235.21,159.56L236.35,158.35L236.67,154.73L236.69,161.97L236.69,163.17L236.69,164.38L237.23,159.56L237.66,158.35L237.86,159.56L238.82,158.35L238.97,159.56L239.2,158.35L239.79,159.56L239.86,158.35L240.04,163.17L240.46,160.76L240.73,161.97L241.03,160.76L241.05,163.17L241.15,163.17L241.16,164.38L242.16,160.76L242.6,159.56L243,157.14L243.11,163.17L243.13,163.17L243.5,161.97L243.81,160.76L243.95,161.97L243.99,163.17L244.07,161.97L244.37,164.38L244.69,165.59L244.77,163.17L244.82,175.24L244.82,176.44L244.93,174.03L245.61,194.54L245.74,193.33L246.04,194.54L246.58,193.33L247.6,188.51L247.69,189.71L248.98,181.27L249.13,182.48L249.4,181.27L250.62,177.65L250.63,178.86L250.77,180.06L251.35,176.44L251.66,175.24L251.85,174.03L252.49,175.24L253.11,169.21L253.56,168L254.03,163.17L254.05,164.38L254.58,165.59L255.38,160.76L255.56,159.56L256.81,152.32L257.24,151.11L257.44,149.9L258.47,148.7L259.87,141.46L260.28,140.25L261.43,136.63L261.44,137.84L263.66,129.4L263.68,128.19L264.62,125.78L264.71,126.98L265.6,123.37L265.62,122.16L266.16,119.75L266.21,118.54L268.21,110.1L268.42,111.3L268.43,113.71L269.35,112.51L269.35,113.71L270.06,110.1L270.68,108.89L270.97,110.1L272.12,108.89L272.41,105.27L274.82,106.48L274.99,134.22L275.89,133.02L277.05,134.22L277.2,133.02L277.2,131.81L277.29,135.43L277.46,133.02L278.06,134.22L280.93,133.02L281.65,131.81L282.2,128.19L282.21,126.98L282.33,129.4L282.96,126.98L283.01,128.19L283.93,126.98L284.18,128.19L284.71,133.02L284.88,130.6L285.1,131.81L285.1,133.02L285.4,130.6L285.85,131.81L285.86,130.6L287.31,123.37L287.67,124.57L287.95,137.84L288.89,136.63L289.06,137.84L289.56,135.43L289.57,136.63L289.57,137.84L290.57,135.43L290.74,136.63L290.84,134.22L291.29,135.43L291.66,136.63L292.12,137.84L292.63,136.63L294.07,131.81L294.38,130.6L294.7,133.02L294.85,128.19L294.97,129.4L295.02,128.19L295.57,129.4L296.69,128.19L296.71,129.4L297.25,126.98L297.59,125.78L297.91,120.95L298.17,122.16L298.55,123.37L298.56,128.19L298.75,125.78L299.77,124.57L300.48,135.43L300.48,134.22L300.59,133.02L300.61,131.81L301.16,143.87L301.16,145.08L301.46,152.32L301.9,149.9L302.25,151.11L302.95,146.29L303.11,147.49L303.78,145.08L304.31,143.87L304.34,145.08L304.61,141.46L305.42,140.25L305.65,141.46L305.66,140.25L306.28,139.05L306.59,142.67L306.7,139.05L307.15,137.84L307.54,134.22L308.17,133.02L308.36,131.81L309.68,130.6L310.34,126.98L310.39,125.78L311.59,118.54L312.56,117.33L315.24,108.89L316.33,107.68L317.1,105.27L317.91,104.06L318.04,101.65L318.78,102.86L319.13,120.95L319.33,119.75L319.6,120.95L319.88,119.75L319.9,122.16L320.24,120.95L320.87,122.16L321.38,120.95L322.1,122.16L323.22,118.54L324.16,117.33L325.42,116.13L325.76,117.33L325.81,118.54L326.8,117.33L327.32,114.92L327.77,116.13L327.94,114.92L328.37,116.13L328.39,117.33L328.4,118.54L329.06,116.13L329.73,117.33L330.71,151.11L330.99,149.9L331.15,146.29L331.6,151.11L331.75,152.32L333.18,141.46L333.52,140.25L333.64,142.67L334.1,141.46L334.53,140.25L335.5,142.67L335.88,141.46L336.85,140.25L336.86,141.46L337.46,140.25L337.68,139.05L338.02,137.84L338.42,139.05L338.8,137.84L339.38,136.63L339.62,135.43L339.82,133.02L340.92,131.81L341.19,130.6L342.27,129.4L343.85,124.57L343.85,125.78L343.88,126.98L344.82,122.16L345.35,123.37L346.18,118.54L346.18,119.75L346.67,118.54L346.72,119.75L347.33,117.33L347.33,116.13L347.44,113.71L348.73,112.51L349.56,110.1L349.59,108.89L350.41,106.48L350.73,105.27L351.65,110.1L352.03,108.89L352.21,107.68L353.7,105.27L353.91,106.48L355,104.06L355.55,102.86L357.08,98.03L357.69,96.83L358.05,95.62L358.26,96.83L358.32,98.03L358.33,96.83L359.2,95.62L360.3,93.21L360.41,92L361.38,90.79L361.4,92L361.47,108.89L362.11,105.27L362.36,106.48L362.97,104.06L363.21,102.86L363.95,104.06L364.85,102.86L365.46,99.24L365.57,100.44L365.85,99.24L367.11,96.83L367.94,95.62L368.55,93.21L368.55,92L368.55,85.97L369.79,84.76L370.8,81.14L372.28,82.35L372.28,84.76L372.69,81.14L372.7,82.35L373.04,81.14L373.53,82.35L373.84,81.14L373.85,79.94L374.1,81.14L374.96,79.94L375.1,78.73L375.1,79.94L376.4,81.14L377.02,79.94L377.08,81.14L377.24,82.35L377.85,83.56L378.15,84.76L378.35,98.03L379.32,99.24L380.31,96.83L380.82,95.62L380.95,93.21L380.99,96.83L381.4,98.03L382.59,89.59L382.6,90.79L382.6,89.59L382.62,95.62L382.93,93.21L383.48,92L384.76,88.38L385.87,87.17L386.57,83.56L387.26,82.35L387.63,78.73L388.1,81.14L388.35,79.94L389.35,73.9L389.35,75.11L390.76,73.9L391.52,67.87L391.53,70.29L392.33,69.08L392.65,70.29L392.69,69.08L393.19,67.87L393.74,65.46L394.38,66.67L395.31,63.05L395.93,61.84L396.54,59.43L396.76,60.63L396.89,61.84L397.2,63.05L397.4,61.84L398.56,63.05L400.9,54.6L401.17,53.4L402.14,52.19L402.86,53.4L403.93,49.78L404.01,48.57L404.07,49.78L404.24,44.95L404.84,46.16L404.92,43.75L406.04,42.54L406.2,40.13L406.39,42.54L406.64,43.75L407.03,42.54L407.19,43.75L407.22,44.95L407.49,47.37L408.02,46.16L409.03,38.92L409.08,42.54L409.72,41.33L409.8,40.13L410.01,42.54L410.24,42.54L410.4,43.75L411.18,38.92L411.5,40.13L411.63,43.75L412.12,38.92L412.45,37.71L413.01,35.3L413.02,36.51L413.08,37.71L413.62,32.89L413.72,35.3L413.98,36.51L414.14,34.1L414.28,48.57L414.28,49.78L414.67,52.19L414.96,49.78L414.96,48.57L414.96,41.33L415.64,49.78L415.67,46.16L415.79,47.37L417.44,38.92L417.5,40.13L417.63,52.19L418.03,47.37L418.31,46.16L418.35,48.57L418.87,46.16L419.44,44.95L420.07,48.57L420.34,47.37L420.57,46.16L420.71,48.57L420.79,47.37L421.35,46.16L421.98,55.81L422.01,54.6L422.38,53.4L422.46,52.19L422.77,55.81L423.03,54.6L423.37,53.4L423.78,49.78L423.95,52.19L424.48,50.98L424.89,47.37L425.29,49.78L425.29,50.98L426.12,67.87L426.33,66.67L426.75,64.25L427.57,63.05L427.7,66.67L428.67,67.87L429.75,65.46L429.79,64.25L429.94,65.46L430.31,64.25L430.76,63.05L431.21,60.63L431.33,64.25L431.46,63.05L431.7,61.84L432.33,59.43L432.68,60.63L433.29,66.67L433.51,64.25L433.54,63.05L434.23,66.67L434.37,65.46L434.75,57.02L435.12,64.25L435.22,63.05L435.5,59.43L435.61,66.67L435.61,67.87L436.2,59.43L436.32,61.84L436.45,60.63L436.79,57.02L437.2,59.43L437.25,58.22L437.44,57.02L437.58,60.63L437.58,61.84L437.89,83.56L438.31,78.73L438.4,79.94L438.41,81.14L439.15,79.94L439.22,78.73L439.38,77.52L439.43,87.17L439.57,84.76L439.68,85.97L440.49,83.56L441.09,82.35L441.71,78.73L441.89,77.52L442.62,71.49L442.87,73.9L442.9,75.11L443.05,73.9L443.42,79.94L443.99,78.73L444.11,79.94L444.37,77.52L444.54,78.73L444.88,79.94L445.52,70.29L445.82,69.08L445.84,67.87L445.92,71.49L446.27,69.08L446.75,67.87L446.77,69.08L447.34,59.43L447.37,61.84L448.16,60.63L448.64,57.02L449.19,58.22L449.31,55.81L449.59,61.84L449.96,60.63L449.98,59.43L450.3,58.22L450.55,60.63L450.84,59.43L451.02,61.84L451.37,59.43L451.71,60.63L452.23,54.6L452.58,57.02L452.63,58.22L452.76,57.02L452.79,60.63L453.22,58.22L453.64,57.02L453.65,55.81L454.19,66.67L454.2,64.25L454.35,63.05L455.56,66.67L455.74,65.46L455.99,67.87L456.45,66.67L456.69,65.46L457.67,70.29L457.81,67.87L457.84,66.67L457.95,64.25L458.49,67.87L458.5,67.87L458.84,66.67L459.08,63.05L459.47,66.67L459.5,67.87L459.81,66.67L460.63,85.97L460.9,84.76L462.57,70.29L462.66,71.49L462.73,69.08L462.84,79.94L463.12,78.73L463.12,79.94L463.66,78.73L463.68,79.94L463.95,81.14L464.34,88.38L464.62,85.97L464.76,84.76L464.88,79.94L465.5,79.94L465.62,78.73L465.72,77.52L465.75,82.35L465.91,81.14L466.37,82.35L466.64,83.56L467.27,78.73L467.57,79.94L467.59,83.56L468.26,81.14L468.39,82.35L468.83,79.94L469.53,78.73L469.78,73.9L470.09,78.73L470.39,77.52L471.48,67.87L472.24,69.08L472.75,81.14L473.15,79.94L473.25,82.35L473.58,75.11L473.75,76.32L474,75.11L474.46,82.35L475.15,81.14L475.34,79.94L475.66,82.35L475.66,83.56L476.3,81.14L476.54,94.41L476.63,93.21L476.63,90.79L477.18,98.03L477.46,96.83L477.67,98.03L479.1,96.83L479.68,98.03L479.98,96.83L480.42,98.03L480.44,96.83L480.97,95.62L480.97,94.41L481.23,98.03L481.31,96.83L481.92,95.62L482.13,96.83L482.46,95.62L482.85,94.41L482.92,92L483.06,95.62L483.34,94.41L483.86,93.21L483.94,92L484.36,96.83L484.36,98.03L485.44,94.41L485.82,95.62L486.07,93.21L486.37,95.62L486.37,96.83L486.96,98.03L487.13,96.83L487.9,89.59L487.93,93.21L487.93,94.41L488.08,92L488.92,93.21L488.92,92L489.19,92L490.33,90.79L490.87,87.17L491.12,89.59L491.21,88.38L491.84,83.56L492.03,82.35L492.67,84.76L492.7,82.35L492.85,81.14L493.65,79.94L494.21,81.14L494.23,83.56L494.76,83.56L495.05,82.35L495.05,81.14L495.75,83.56L495.94,82.35L496.03,81.14L496.93,79.94L497.54,81.14L497.97,79.94L498.71,75.11L498.94,73.9L498.94,75.11L499.1,73.9L499.81,72.7L500.07,75.11L500.51,73.9L500.62,75.11L501.03,70.29L501.18,72.7L501.46,73.9L501.72,70.29L503.47,71.49L503.79,67.87L504.42,69.08L504.67,81.14L505.1,77.52L505.23,78.73L505.35,81.14L505.93,79.94L506.32,78.73L506.63,75.11L507.56,73.9L507.68,71.49L508.69,70.29L509.34,67.87L509.45,66.67L509.57,64.25L510.97,65.46L511.38,83.56L511.66,81.14L511.74,79.94L511.8,82.35L512.53,81.14L513.45,77.52L513.46,78.73L514.17,84.76L514.21,83.56L514.63,82.35L515.26,77.52L515.29,78.73L515.73,77.52L518.17,72.7L518.49,71.49L519.11,69.08L519.58,67.87L520.52,65.46L520.57,64.25L520.77,65.46L521.4,64.25L522.05,61.84L523.52,60.63L525.06,57.02L525.19,55.81L526.42,49.78L526.42,50.98L526.45,49.78L526.5,53.4L527.06,50.98L527.27,49.78L528.09,41.33L528.23,40.13L528.79,36.51L531.72,35.3L533.17,28.06L534.97,26.86L534.99,25.65L535.93,24.44L535.95,25.65L536.46,22.03L536.76,20.83L537.1,18.41L538.97,17.21L540,16" style="vector-effect: none; fill: none; stroke: rgb(255, 127, 14); stroke-opacity: 1; stroke-width: 2px; opacity: 1;"/></g><g class="points"/><g class="text"/></g></g></g></g><g class="zerolinelayer-above"/><path class="xlines-above crisp" d="M0,0" style="fill: none;"/><path class="ylines-above crisp" d="M0,0" style="fill: none;"/><g class="overlines-above"/><g class="xaxislayer-above"><g class="xtick"><text text-anchor="middle" x="0" y="439" transform="translate(100.55,0)" style="font-family: 'Open Sans'; font-size: 18px; fill: rgb(0, 0, 0); fill-opacity: 1; white-space: pre;">2016</text></g><g class="xtick"><text text-anchor="middle" x="0" y="439" style="font-family: 'Open Sans'; font-size: 18px; fill: rgb(0, 0, 0); fill-opacity: 1; white-space: pre;" transform="translate(202.51999999999998,0)">2018</text></g><g class="xtick"><text text-anchor="middle" x="0" y="439" style="font-family: 'Open Sans'; font-size: 18px; fill: rgb(0, 0, 0); fill-opacity: 1; white-space: pre;" transform="translate(304.35,0)">2020</text></g><g class="xtick"><text text-anchor="middle" x="0" y="439" style="font-family: 'Open Sans'; font-size: 18px; fill: rgb(0, 0, 0); fill-opacity: 1; white-space: pre;" transform="translate(406.32,0)">2022</text></g><g class="xtick"><text text-anchor="middle" x="0" y="439" style="font-family: 'Open Sans'; font-size: 18px; fill: rgb(0, 0, 0); fill-opacity: 1; white-space: pre;" transform="translate(508.15,0)">2024</text></g><g class="xtick"><text text-anchor="middle" x="0" y="439" style="font-family: 'Open Sans'; font-size: 18px; fill: rgb(0, 0, 0); fill-opacity: 1; white-space: pre;" transform="translate(610.13,0)">2026</text></g></g><g class="yaxislayer-above"><g class="ytick"><text text-anchor="end" x="79" y="6.3" transform="translate(0,420)" style="font-family: 'Open Sans'; font-size: 18px; fill: rgb(0, 0, 0); fill-opacity: 1; white-space: pre;">0</text></g><g class="ytick"><text text-anchor="end" x="79" y="6.3" style="font-family: 'Open Sans'; font-size: 18px; fill: rgb(0, 0, 0); fill-opacity: 1; white-space: pre;" transform="translate(0,359.68)">50</text></g><g class="ytick"><text text-anchor="end" x="79" y="6.3" style="font-family: 'Open Sans'; font-size: 18px; fill: rgb(0, 0, 0); fill-opacity: 1; white-space: pre;" transform="translate(0,299.37)">100</text></g><g class="ytick"><text text-anchor="end" x="79" y="6.3" style="font-family: 'Open Sans'; font-size: 18px; fill: rgb(0, 0, 0); fill-opacity: 1; white-space: pre;" transform="translate(0,239.05)">150</text></g><g class="ytick"><text text-anchor="end" x="79" y="6.3" style="font-family: 'Open Sans'; font-size: 18px; fill: rgb(0, 0, 0); fill-opacity: 1; white-space: pre;" transform="translate(0,178.73000000000002)">200</text></g><g class="ytick"><text text-anchor="end" x="79" y="6.3" style="font-family: 'Open Sans'; font-size: 18px; fill: rgb(0, 0, 0); fill-opacity: 1; white-space: pre;" transform="translate(0,118.41)">250</text></g></g><g class="overaxes-above"/></g></g><g class="polarlayer"/><g class="smithlayer"/><g class="ternarylayer"/><g class="geolayer"/><g class="funnelarealayer"/><g class="pielayer"/><g class="iciclelayer"/><g class="treemaplayer"/><g class="sunburstlayer"/><g class="glimages"/><defs id="topdefs-0d5a50"><g class="clips"/></defs><g class="layer-above"><g class="imagelayer"/><g class="shapelayer"/></g><g class="infolayer"><g class="g-gtitle"><text class="gtitle" x="35" y="50" text-anchor="start" dy="0em" style="opacity: 1; font-family: 'Open Sans'; font-size: 25px; fill: rgb(0, 0, 0); fill-opacity: 1; white-space: pre;">MultiQC/MultiQC - Open Issues Over Time</text></g><g class="g-xtitle"><text class="xtitle" x="350" y="472.9" text-anchor="middle" style="opacity: 1; font-family: 'Open Sans'; font-size: 22px; fill: rgb(0, 0, 0); fill-opacity: 1; white-space: pre;">Date</text></g><g class="g-ytitle"><text class="ytitle" transform="rotate(-90,29.799999999999997,260)" x="29.799999999999997" y="260" text-anchor="middle" style="opacity: 1; font-family: 'Open Sans'; font-size: 22px; fill: rgb(0, 0, 0); fill-opacity: 1; white-space: pre;">Number of Open Issues</text></g></g></svg>