<svg class="main-svg" xmlns="http://www.w3.org/2000/svg" xmlns:xlink="http://www.w3.org/1999/xlink" width="700" height="500" style="" viewBox="0 0 700 500"><rect x="0" y="0" width="700" height="500" style="fill: rgb(0, 0, 0); fill-opacity: 0;"/><defs id="defs-14f31c"><g class="clips"><clipPath id="clip14f31cxyplot" class="plotclip"><rect width="540" height="320"/></clipPath><clipPath class="axesclip" id="clip14f31cx"><rect x="80" y="0" width="540" height="500"/></clipPath><clipPath class="axesclip" id="clip14f31cy"><rect x="0" y="100" width="700" height="320"/></clipPath><clipPath class="axesclip" id="clip14f31cxy"><rect x="80" y="100" width="540" height="320"/></clipPath></g><g class="gradients"/><g class="patterns"/></defs><g class="bglayer"><rect class="bg" x="80" y="100" width="540" height="320" style="fill: rgb(0, 0, 0); fill-opacity: 0; stroke-width: 0;"/></g><g class="layer-below"><g class="imagelayer"/><g class="shapelayer"/></g><g class="cartesianlayer"><g class="subplot xy"><g class="layer-subplot"><g class="shapelayer"/><g class="imagelayer"/></g><g class="minor-gridlayer"><g class="x"/><g class="y"/></g><g class="gridlayer"><g class="x"><path class="xgrid crisp" transform="translate(100.44,0)" d="M0,100v320" style="stroke: rgb(255, 255, 255); stroke-opacity: 1; stroke-width: 1px;"/><path class="xgrid crisp" transform="translate(201.87,0)" d="M0,100v320" style="stroke: rgb(255, 255, 255); stroke-opacity: 1; stroke-width: 1px;"/><path class="xgrid crisp" transform="translate(303.15999999999997,0)" d="M0,100v320" style="stroke: rgb(255, 255, 255); stroke-opacity: 1; stroke-width: 1px;"/><path class="xgrid crisp" transform="translate(404.59,0)" d="M0,100v320" style="stroke: rgb(255, 255, 255); stroke-opacity: 1; stroke-width: 1px;"/><path class="xgrid crisp" transform="translate(505.88,0)" d="M0,100v320" style="stroke: rgb(255, 255, 255); stroke-opacity: 1; stroke-width: 1px;"/><path class="xgrid crisp" transform="translate(607.31,0)" d="M0,100v320" style="stroke: rgb(255, 255, 255); stroke-opacity: 1; stroke-width: 1px;"/></g><g class="y"><path class="ygrid crisp" transform="translate(0,337.88)" d="M80,0h540" style="stroke: rgb(255, 255, 255); stroke-opacity: 1; stroke-width: 1px;"/><path class="ygrid crisp" transform="translate(0,255.76)" d="M80,0h540" style="stroke: rgb(255, 255, 255); stroke-opacity: 1; stroke-width: 1px;"/><path class="ygrid crisp" transform="translate(0,173.65)" d="M80,0h540" style="stroke: rgb(255, 255, 255); stroke-opacity: 1; stroke-width: 1px;"/></g></g><g class="zerolinelayer"><path class="yzl zl crisp" transform="translate(0,420)" d="M80,0h540" style="stroke: rgb(255, 255, 255); stroke-opacity: 1; stroke-width: 2px;"/></g><g class="layer-between"><g class="shapelayer"/><g class="imagelayer"/></g><path class="xlines-below"/><path class="ylines-below"/><g class="overlines-below"/><g class="xaxislayer-below"/><g class="yaxislayer-below"/><g class="overaxes-below"/><g class="overplot"><g class="xy" transform="translate(80,100)" clip-path="url(#clip14f31cxyplot)"><g class="scatterlayer mlayer"><g class="trace scatter traced9d73d" style="stroke-miterlimit: 2;"><g class="fills"><g><path class="js-fill" d="M540,320L0,320L0,319.84L0,319.51L1.91,319.34L3.72,318.36L4.42,318.19L5,317.04L5.37,316.88L5.96,315.89L6.25,315.73L8.32,312.28L8.71,312.12L9.82,311.13L9.83,310.97L10.68,310.15L11.35,309.98L12.34,307.85L12.34,307.68L13.08,306.7L13.31,306.53L13.74,305.38L14.25,305.22L15.38,304.73L16.58,304.56L18.01,303.41L18.15,303.25L23.31,302.26L24.13,302.1L25.25,301.61L25.79,301.44L26.91,300.13L28.73,299.96L31.63,298.16L32.81,297.99L36.64,295.2L36.65,295.04L36.94,294.38L37.56,294.22L39.68,292.08L39.68,291.92L40.35,291.26L40.64,291.09L42.84,289.12L44.09,288.96L46.19,286.99L46.33,286.82L46.69,286.17L47.34,286L51.48,284.2L52.12,284.03L53.13,283.05L54.25,282.88L58.29,279.76L59.84,279.6L63.13,276.48L63.15,276.31L63.99,275.98L64.65,275.82L64.76,275.49L65.63,275.33L68.72,273.69L69.65,273.52L70.46,272.37L70.85,272.21L76.6,270.24L76.71,270.07L78.79,268.59L79.4,268.43L79.73,267.61L80.6,267.44L80.78,266.79L81.9,266.62L84.34,264.82L84.39,264.65L94.75,260.22L94.79,260.05L98.79,257.92L98.9,257.75L99.63,255.29L99.91,255.13L105.99,251.84L106.54,251.68L106.94,251.02L107.36,250.86L109.29,249.87L110.55,249.71L113.51,248.56L114.3,248.39L115.71,247.74L116.68,247.57L118.5,246.42L118.53,246.26L123.24,243.96L123.34,243.79L124.24,243.3L124.63,243.14L134.06,237.88L134.86,237.72L137.48,235.42L137.48,235.25L140.63,233.61L140.77,233.45L143.79,232.13L144.43,231.97L144.43,231.81L145.35,231.64L147.25,230.82L148.32,230.66L149.41,229.34L150.28,229.18L151.05,228.69L152.06,228.52L155.47,227.37L155.93,227.21L158.15,225.4L158.87,225.24L171.49,220.14L173.41,219.98L175.79,218.67L176.37,218.5L177.6,217.85L178.58,217.68L181.32,216.04L181.33,215.87L185.38,213.58L185.46,213.41L188.42,211.28L189.24,211.11L191.08,209.8L192.23,209.63L192.31,209.47L193.66,209.31L198,208.16L198.24,207.99L201.74,206.84L201.77,206.68L203.96,205.69L205.68,205.53L206.88,205.2L207.7,205.04L211.31,203.56L211.58,203.39L216.58,200.11L216.64,199.94L218.41,198.79L218.43,198.63L221.12,196.17L222.13,196L224.36,195.02L224.49,194.85L225.07,194.52L227.14,194.36L232.71,192.72L232.78,192.55L233.66,192.06L233.97,191.9L235.61,190.91L235.7,190.75L236.4,190.09L237.55,189.93L239.19,188.78L239.74,188.61L240.45,187.79L240.87,187.63L241.56,186.8L241.65,186.64L242.52,185.98L242.77,185.82L243.63,185L243.65,184.83L246.52,183.19L246.66,183.03L247.66,182.04L248.08,181.88L251.27,180.07L251.52,179.91L260.48,174.16L260.99,173.99L261.24,173.67L261.89,173.5L264.8,171.53L265.02,171.37L268.62,169.72L269.24,169.56L280.51,167.59L280.52,167.43L281.46,166.77L282.43,166.6L284.12,165.45L284.34,165.29L289.3,162.5L290.44,162.33L293.03,161.02L293.14,160.86L293.91,160.03L295.12,159.87L297.16,157.9L298.18,157.74L299.12,156.09L299.15,155.93L308.03,151.17L308.44,151L309.94,149.52L310.91,149.36L322.44,144.92L323.69,144.76L328.95,143.45L329.24,143.28L330.11,142.46L330.53,142.3L332.75,140.65L334.1,140.49L337.58,139.01L337.82,138.85L339.11,138.36L339.38,138.19L342.42,137.04L342.56,136.88L342.99,136.22L343.65,136.06L344.34,135.56L344.83,135.4L349.77,133.1L350.16,132.94L351.15,132.61L351.83,132.44L360.44,128.99L360.47,128.83L366.59,126.53L366.59,126.37L366.59,125.71L367.83,125.55L368.84,125.05L370.63,124.89L371.06,124.4L371.86,124.23L371.87,124.07L372.97,123.9L373.11,123.74L374.62,123.57L379.64,121.44L379.9,121.27L380.71,120.29L380.73,120.13L381.76,119.47L382.55,119.3L384.31,118.65L384.52,118.48L386.42,117.33L386.71,117.17L387.29,116.51L388.68,116.35L389.44,115.53L390.25,115.36L397.8,112.57L398.35,112.41L406.77,108.14L406.86,107.97L407.55,107.64L407.63,107.48L410.95,104.69L410.95,104.52L412.76,103.21L412.76,103.04L413.47,101.4L413.72,101.24L418.11,97.95L418.32,97.79L419.12,97.3L419.22,97.13L420.39,95.98L420.62,95.82L421.53,95L422.23,94.83L423.57,93.68L424.07,93.52L424.48,93.03L425.3,92.86L428.58,91.88L428.72,91.71L431.79,89.08L431.9,88.92L432.79,86.62L432.91,86.46L435.12,82.52L435.66,82.35L435.98,81.69L436.82,81.53L438.15,80.05L438.75,79.89L439.37,79.39L439.55,79.23L442.01,77.42L442.53,77.26L443.9,74.47L444.38,74.3L446.26,72.33L446.88,72.17L447.91,70.85L448.45,70.69L449.73,69.21L449.83,69.05L451.63,67.41L451.64,67.24L453.33,66.26L454.03,66.09L457.95,62.97L458.06,62.81L458.54,61.82L459.16,61.66L460.5,59.03L461.21,58.87L462.3,57.39L462.3,57.22L463.03,56.57L463.15,56.4L464.79,54.76L465.38,54.6L468.11,52.62L468.11,52.46L468.98,51.47L470.23,51.31L470.87,50.33L471.04,50.16L471.49,49.34L471.86,49.18L472.63,48.85L472.81,48.68L474.1,47.7L474.1,47.53L481.29,44.58L481.37,44.41L485.31,42.11L485.35,41.95L486.6,41.46L487.73,41.29L488.74,40.31L489.06,40.14L490.09,39.16L490.23,38.99L491.03,38.66L491.63,38.5L497.97,35.54L498,35.38L502.29,32.75L502.4,32.59L508.26,29.8L508.71,29.63L513.83,26.68L515.29,26.51L516.82,25.69L517.72,25.53L517.81,25.2L518.63,25.03L519.28,24.7L520.75,24.54L523.06,23.39L523.4,23.23L525.59,20.27L525.98,20.11L530.18,19.12L530.34,18.96L533.61,17.97L533.91,17.81L534.25,17.48L536.11,17.31L540,16" style="fill: rgb(255, 127, 14); fill-opacity: 0.5; stroke-width: 0;"/></g></g><g class="errorbars"/><g class="lines"><path class="js-line" d="M0,319.84L0,319.51L1.91,319.34L3.72,318.36L4.42,318.19L5,317.04L5.37,316.88L5.96,315.89L6.25,315.73L8.32,312.28L8.71,312.12L9.82,311.13L9.83,310.97L10.68,310.15L11.35,309.98L12.34,307.85L12.34,307.68L13.08,306.7L13.31,306.53L13.74,305.38L14.25,305.22L15.38,304.73L16.58,304.56L18.01,303.41L18.15,303.25L23.31,302.26L24.13,302.1L25.25,301.61L25.79,301.44L26.91,300.13L28.73,299.96L31.63,298.16L32.81,297.99L36.64,295.2L36.65,295.04L36.94,294.38L37.56,294.22L39.68,292.08L39.68,291.92L40.35,291.26L40.64,291.09L42.84,289.12L44.09,288.96L46.19,286.99L46.33,286.82L46.69,286.17L47.34,286L51.48,284.2L52.12,284.03L53.13,283.05L54.25,282.88L58.29,279.76L59.84,279.6L63.13,276.48L63.15,276.31L63.99,275.98L64.65,275.82L64.76,275.49L65.63,275.33L68.72,273.69L69.65,273.52L70.46,272.37L70.85,272.21L76.6,270.24L76.71,270.07L78.79,268.59L79.4,268.43L79.73,267.61L80.6,267.44L80.78,266.79L81.9,266.62L84.34,264.82L84.39,264.65L94.75,260.22L94.79,260.05L98.79,257.92L98.9,257.75L99.63,255.29L99.91,255.13L105.99,251.84L106.54,251.68L106.94,251.02L107.36,250.86L109.29,249.87L110.55,249.71L113.51,248.56L114.3,248.39L115.71,247.74L116.68,247.57L118.5,246.42L118.53,246.26L123.24,243.96L123.34,243.79L124.24,243.3L124.63,243.14L134.06,237.88L134.86,237.72L137.48,235.42L137.48,235.25L140.63,233.61L140.77,233.45L143.79,232.13L144.43,231.97L144.43,231.81L145.35,231.64L147.25,230.82L148.32,230.66L149.41,229.34L150.28,229.18L151.05,228.69L152.06,228.52L155.47,227.37L155.93,227.21L158.15,225.4L158.87,225.24L171.49,220.14L173.41,219.98L175.79,218.67L176.37,218.5L177.6,217.85L178.58,217.68L181.32,216.04L181.33,215.87L185.38,213.58L185.46,213.41L188.42,211.28L189.24,211.11L191.08,209.8L192.23,209.63L192.31,209.47L193.66,209.31L198,208.16L198.24,207.99L201.74,206.84L201.77,206.68L203.96,205.69L205.68,205.53L206.88,205.2L207.7,205.04L211.31,203.56L211.58,203.39L216.58,200.11L216.64,199.94L218.41,198.79L218.43,198.63L221.12,196.17L222.13,196L224.36,195.02L224.49,194.85L225.07,194.52L227.14,194.36L232.71,192.72L232.78,192.55L233.66,192.06L233.97,191.9L235.61,190.91L235.7,190.75L236.4,190.09L237.55,189.93L239.19,188.78L239.74,188.61L240.45,187.79L240.87,187.63L241.56,186.8L241.65,186.64L242.52,185.98L242.77,185.82L243.63,185L243.65,184.83L246.52,183.19L246.66,183.03L247.66,182.04L248.08,181.88L251.27,180.07L251.52,179.91L260.48,174.16L260.99,173.99L261.24,173.67L261.89,173.5L264.8,171.53L265.02,171.37L268.62,169.72L269.24,169.56L280.51,167.59L280.52,167.43L281.46,166.77L282.43,166.6L284.12,165.45L284.34,165.29L289.3,162.5L290.44,162.33L293.03,161.02L293.14,160.86L293.91,160.03L295.12,159.87L297.16,157.9L298.18,157.74L299.12,156.09L299.15,155.93L308.03,151.17L308.44,151L309.94,149.52L310.91,149.36L322.44,144.92L323.69,144.76L328.95,143.45L329.24,143.28L330.11,142.46L330.53,142.3L332.75,140.65L334.1,140.49L337.58,139.01L337.82,138.85L339.11,138.36L339.38,138.19L342.42,137.04L342.56,136.88L342.99,136.22L343.65,136.06L344.34,135.56L344.83,135.4L349.77,133.1L350.16,132.94L351.15,132.61L351.83,132.44L360.44,128.99L360.47,128.83L366.59,126.53L366.59,126.37L366.59,125.71L367.83,125.55L368.84,125.05L370.63,124.89L371.06,124.4L371.86,124.23L371.87,124.07L372.97,123.9L373.11,123.74L374.62,123.57L379.64,121.44L379.9,121.27L380.71,120.29L380.73,120.13L381.76,119.47L382.55,119.3L384.31,118.65L384.52,118.48L386.42,117.33L386.71,117.17L387.29,116.51L388.68,116.35L389.44,115.53L390.25,115.36L397.8,112.57L398.35,112.41L406.77,108.14L406.86,107.97L407.55,107.64L407.63,107.48L410.95,104.69L410.95,104.52L412.76,103.21L412.76,103.04L413.47,101.4L413.72,101.24L418.11,97.95L418.32,97.79L419.12,97.3L419.22,97.13L420.39,95.98L420.62,95.82L421.53,95L422.23,94.83L423.57,93.68L424.07,93.52L424.48,93.03L425.3,92.86L428.58,91.88L428.72,91.71L431.79,89.08L431.9,88.92L432.79,86.62L432.91,86.46L435.12,82.52L435.66,82.35L435.98,81.69L436.82,81.53L438.15,80.05L438.75,79.89L439.37,79.39L439.55,79.23L442.01,77.42L442.53,77.26L443.9,74.47L444.38,74.3L446.26,72.33L446.88,72.17L447.91,70.85L448.45,70.69L449.73,69.21L449.83,69.05L451.63,67.41L451.64,67.24L453.33,66.26L454.03,66.09L457.95,62.97L458.06,62.81L458.54,61.82L459.16,61.66L460.5,59.03L461.21,58.87L462.3,57.39L462.3,57.22L463.03,56.57L463.15,56.4L464.79,54.76L465.38,54.6L468.11,52.62L468.11,52.46L468.98,51.47L470.23,51.31L470.87,50.33L471.04,50.16L471.49,49.34L471.86,49.18L472.63,48.85L472.81,48.68L474.1,47.7L474.1,47.53L481.29,44.58L481.37,44.41L485.31,42.11L485.35,41.95L486.6,41.46L487.73,41.29L488.74,40.31L489.06,40.14L490.09,39.16L490.23,38.99L491.03,38.66L491.63,38.5L497.97,35.54L498,35.38L502.29,32.75L502.4,32.59L508.26,29.8L508.71,29.63L513.83,26.68L515.29,26.51L516.82,25.69L517.72,25.53L517.81,25.2L518.63,25.03L519.28,24.7L520.75,24.54L523.06,23.39L523.4,23.23L525.59,20.27L525.98,20.11L530.18,19.12L530.34,18.96L533.61,17.97L533.91,17.81L534.25,17.48L536.11,17.31L540,16" style="vector-effect: none; fill: none; stroke: rgb(255, 127, 14); stroke-opacity: 1; stroke-width: 2px; opacity: 1;"/></g><g class="points"/><g class="text"/></g></g></g></g><g class="zerolinelayer-above"/><path class="xlines-above crisp" d="M0,0" style="fill: none;"/><path class="ylines-above crisp" d="M0,0" style="fill: none;"/><g class="overlines-above"/><g class="xaxislayer-above"><g class="xtick"><text text-anchor="middle" x="0" y="439" transform="translate(100.44,0)" style="font-family: 'Open Sans'; font-size: 18px; fill: rgb(0, 0, 0); fill-opacity: 1; white-space: pre;">2016</text></g><g class="xtick"><text text-anchor="middle" x="0" y="439" style="font-family: 'Open Sans'; font-size: 18px; fill: rgb(0, 0, 0); fill-opacity: 1; white-space: pre;" transform="translate(201.87,0)">2018</text></g><g class="xtick"><text text-anchor="middle" x="0" y="439" style="font-family: 'Open Sans'; font-size: 18px; fill: rgb(0, 0, 0); fill-opacity: 1; white-space: pre;" transform="translate(303.15999999999997,0)">2020</text></g><g class="xtick"><text text-anchor="middle" x="0" y="439" style="font-family: 'Open Sans'; font-size: 18px; fill: rgb(0, 0, 0); fill-opacity: 1; white-space: pre;" transform="translate(404.59,0)">2022</text></g><g class="xtick"><text text-anchor="middle" x="0" y="439" style="font-family: 'Open Sans'; font-size: 18px; fill: rgb(0, 0, 0); fill-opacity: 1; white-space: pre;" transform="translate(505.88,0)">2024</text></g><g class="xtick"><text text-anchor="middle" x="0" y="439" style="font-family: 'Open Sans'; font-size: 18px; fill: rgb(0, 0, 0); fill-opacity: 1; white-space: pre;" transform="translate(607.31,0)">2026</text></g></g><g class="yaxislayer-above"><g class="ytick"><text text-anchor="end" x="79" y="6.3" transform="translate(0,420)" style="font-family: 'Open Sans'; font-size: 18px; fill: rgb(0, 0, 0); fill-opacity: 1; white-space: pre;">0</text></g><g class="ytick"><text text-anchor="end" x="79" y="6.3" style="font-family: 'Open Sans'; font-size: 18px; fill: rgb(0, 0, 0); fill-opacity: 1; white-space: pre;" transform="translate(0,337.88)">500</text></g><g class="ytick"><text text-anchor="end" x="79" y="6.3" style="font-family: 'Open Sans'; font-size: 18px; fill: rgb(0, 0, 0); fill-opacity: 1; white-space: pre;" transform="translate(0,255.76)">1000</text></g><g class="ytick"><text text-anchor="end" x="79" y="6.3" style="font-family: 'Open Sans'; font-size: 18px; fill: rgb(0, 0, 0); fill-opacity: 1; white-space: pre;" transform="translate(0,173.65)">1500</text></g></g><g class="overaxes-above"/></g></g><g class="polarlayer"/><g class="smithlayer"/><g class="ternarylayer"/><g class="geolayer"/><g class="funnelarealayer"/><g class="pielayer"/><g class="iciclelayer"/><g class="treemaplayer"/><g class="sunburstlayer"/><g class="glimages"/><defs id="topdefs-14f31c"><g class="clips"/></defs><g class="layer-above"><g class="imagelayer"/><g class="shapelayer"/></g><g class="infolayer"><g class="g-gtitle"><text class="gtitle" x="35" y="50" text-anchor="start" dy="0em" style="opacity: 1; font-family: 'Open Sans'; font-size: 25px; fill: rgb(0, 0, 0); fill-opacity: 1; white-space: pre;">MultiQC/MultiQC - Issues Created Over Time</text></g><g class="g-xtitle"><text class="xtitle" x="350" y="472.9" text-anchor="middle" style="opacity: 1; font-family: 'Open Sans'; font-size: 22px; fill: rgb(0, 0, 0); fill-opacity: 1; white-space: pre;">Date</text></g><g class="g-ytitle"><text class="ytitle" transform="rotate(-90,20.799999999999997,260)" x="20.799999999999997" y="260" text-anchor="middle" style="opacity: 1; font-family: 'Open Sans'; font-size: 22px; fill: rgb(0, 0, 0); fill-opacity: 1; white-space: pre;">Cumulative Issues Created</text></g></g></svg>