<svg class="main-svg" xmlns="http://www.w3.org/2000/svg" xmlns:xlink="http://www.w3.org/1999/xlink" width="700" height="500" style="" viewBox="0 0 700 500"><rect x="0" y="0" width="700" height="500" style="fill: rgb(0, 0, 0); fill-opacity: 0;"/><defs id="defs-9b8f8b"><g class="clips"><clipPath id="clip9b8f8bxyplot" class="plotclip"><rect width="540" height="320"/></clipPath><clipPath class="axesclip" id="clip9b8f8bx"><rect x="80" y="0" width="540" height="500"/></clipPath><clipPath class="axesclip" id="clip9b8f8by"><rect x="0" y="100" width="700" height="320"/></clipPath><clipPath class="axesclip" id="clip9b8f8bxy"><rect x="80" y="100" width="540" height="320"/></clipPath></g><g class="gradients"/><g class="patterns"/></defs><g class="bglayer"><rect class="bg" x="80" y="100" width="540" height="320" style="fill: rgb(0, 0, 0); fill-opacity: 0; stroke-width: 0;"/></g><g class="layer-below"><g class="imagelayer"/><g class="shapelayer"/></g><g class="cartesianlayer"><g class="subplot xy"><g class="layer-subplot"><g class="shapelayer"/><g class="imagelayer"/></g><g class="minor-gridlayer"><g class="x"/><g class="y"/></g><g class="gridlayer"><g class="x"><path class="xgrid crisp" transform="translate(101.52,0)" d="M0,100v320" style="stroke: rgb(255, 255, 255); stroke-opacity: 1; stroke-width: 1px;"/><path class="xgrid crisp" transform="translate(208.29,0)" d="M0,100v320" style="stroke: rgb(255, 255, 255); stroke-opacity: 1; stroke-width: 1px;"/><path class="xgrid crisp" transform="translate(314.90999999999997,0)" d="M0,100v320" style="stroke: rgb(255, 255, 255); stroke-opacity: 1; stroke-width: 1px;"/><path class="xgrid crisp" transform="translate(421.68,0)" d="M0,100v320" style="stroke: rgb(255, 255, 255); stroke-opacity: 1; stroke-width: 1px;"/><path class="xgrid crisp" transform="translate(528.3,0)" d="M0,100v320" style="stroke: rgb(255, 255, 255); stroke-opacity: 1; stroke-width: 1px;"/></g><g class="y"><path class="ygrid crisp" transform="translate(0,334.8)" d="M80,0h540" style="stroke: rgb(255, 255, 255); stroke-opacity: 1; stroke-width: 1px;"/><path class="ygrid crisp" transform="translate(0,249.6)" d="M80,0h540" style="stroke: rgb(255, 255, 255); stroke-opacity: 1; stroke-width: 1px;"/><path class="ygrid crisp" transform="translate(0,164.39)" d="M80,0h540" style="stroke: rgb(255, 255, 255); stroke-opacity: 1; stroke-width: 1px;"/></g></g><g class="zerolinelayer"><path class="yzl zl crisp" transform="translate(0,420)" d="M80,0h540" style="stroke: rgb(255, 255, 255); stroke-opacity: 1; stroke-width: 2px;"/></g><g class="layer-between"><g class="shapelayer"/><g class="imagelayer"/></g><path class="xlines-below"/><path class="ylines-below"/><g class="overlines-below"/><g class="xaxislayer-below"/><g class="yaxislayer-below"/><g class="overaxes-below"/><g class="overplot"><g class="xy" transform="translate(80,100)" clip-path="url(#clip9b8f8bxyplot)"><g class="scatterlayer mlayer"><g class="trace scatter traceb94e2d" style="stroke-miterlimit: 2;"><g class="fills"><g><path class="js-fill" d="M540,320L0,320L0,319.83L0,319.49L2.01,319.32L3.92,318.3L4.65,318.13L5.26,316.93L5.66,316.76L6.27,315.74L6.58,315.57L8.75,311.99L9.17,311.82L10.34,310.8L10.34,310.63L11.25,309.78L11.94,309.61L12.99,307.39L12.99,307.22L13.26,306.54L13.77,306.37L14.46,304.83L15,304.66L16.19,304.15L17.45,303.98L18.96,302.79L19.1,302.62L24.53,301.6L25.4,301.43L26.58,300.91L27.15,300.74L28.32,299.38L30.24,299.21L33.3,297.34L34.53,297.17L38.56,294.44L38.57,294.27L38.88,293.42L39.54,293.25L41.77,291.03L41.77,290.86L42.47,290.18L42.78,290.01L45.09,287.96L46.41,287.79L48.63,285.75L48.77,285.58L49.15,284.9L49.83,284.73L54.19,282.85L54.86,282.68L55.93,281.66L57.11,281.49L61.36,278.25L62.99,278.08L66.35,275.01L66.45,274.84L66.58,274.5L67.36,274.33L70.02,272.97L70.06,272.8L70.38,272.46L71.15,272.29L72.34,271.95L73.32,271.78L74.17,270.58L74.58,270.41L80.63,268.37L80.75,268.2L82.38,267.17L82.92,267L83.72,265.81L83.93,265.64L86.62,264.45L86.87,264.28L86.9,263.94L87.76,263.77L88.5,262.91L88.78,262.74L89.49,262.23L89.84,262.06L89.85,261.72L90.96,261.55L90.99,261.21L91.86,261.04L96.2,259.68L96.69,259.51L97.82,258.83L98.13,258.65L102.82,256.61L102.83,256.44L104.11,255.42L104.11,255.25L104.84,253.03L104.87,252.86L115.04,247.24L116.37,247.07L119.49,245.87L120.31,245.7L121.81,245.02L122.82,244.85L124.74,243.66L124.77,243.49L129.53,241.27L129.73,241.1L130.78,240.42L131.19,240.25L137.55,235.99L137.73,235.82L142.8,234.12L142.83,233.95L144.26,232.75L144.26,232.58L146.92,230.88L147.08,230.71L152.04,228.49L153,228.32L155,227.47L156.13,227.3L157.28,225.94L158.2,225.77L158.45,225.43L159,225.26L164.14,223.72L164.29,223.55L165.12,222.87L165.3,222.7L177.71,217.42L177.86,217.25L177.97,216.91L179.82,216.74L185.78,214.52L185.88,214.35L190.56,212.65L190.72,212.48L191.32,211.79L191.91,211.62L192.21,211.28L193.23,211.11L193.99,210.77L194.19,210.6L194.97,209.92L195.12,209.75L195.45,209.07L196.3,208.9L198.34,207.19L199.21,207.02L200.56,205.83L201.14,205.66L208.42,203.96L208.67,203.78L212.22,202.76L212.36,202.59L212.86,202.08L213.72,201.91L220.96,199.7L221.18,199.52L224.45,198.16L224.53,197.99L226.29,196.8L226.64,196.63L227.55,195.95L227.88,195.78L228.82,194.75L229.56,194.58L232.76,191.52L233.82,191.35L236.17,190.32L236.31,190.15L236.92,189.81L239.1,189.64L244.96,187.94L245.04,187.77L245.96,187.26L246.28,187.09L247.83,186.23L248.01,186.06L248.85,185.21L250.05,185.04L251.78,183.85L252.36,183.68L253.11,182.83L253.55,182.65L254.28,181.8L254.37,181.63L255.28,180.95L255.55,180.78L256.45,179.93L256.47,179.76L259.25,178.22L259.5,178.05L261.14,176.69L261.66,176.52L264.38,175.16L264.49,174.99L265.02,174.48L265.49,174.3L269.55,171.24L270.63,171.07L272.67,169.53L273.09,169.36L277.95,166.81L278.1,166.64L278.73,165.96L278.97,165.78L282.76,164.08L283.42,163.91L295.28,161.87L295.29,161.7L296.28,161.01L297.3,160.84L299.08,159.65L299.31,159.48L302.65,157.78L303.19,157.61L303.48,157.09L304.24,156.92L306.4,156.24L306.85,156.07L308.61,154.71L308.64,154.54L309.38,154.03L310.65,153.86L312.8,151.81L313.87,151.64L314.79,150.11L314.86,149.94L315.57,149.43L315.91,149.26L318.95,147.38L319.8,147.21L322.87,145L324.25,144.83L325.98,143.29L326.26,143.12L329.27,141.93L329.81,141.76L332.02,141.08L332.87,140.91L333.01,140.57L334.15,140.39L334.94,139.54L335.31,139.37L343.38,137.5L344.25,137.33L348.78,134.6L348.85,134.43L351.69,133.75L352.47,133.58L355.82,131.7L356.96,131.53L365.14,127.44L365.72,127.27L367.23,126.25L368.18,126.08L376.1,123.52L376.89,123.35L385.25,119.78L385.89,119.61L385.89,118.41L387.19,118.24L388.25,117.73L390.14,117.56L390.59,117.05L391.43,116.88L391.45,116.71L392.61,116.54L392.75,116.37L394.34,116.2L399.52,114.15L399.62,113.98L400.91,112.45L400.95,112.28L405.8,110.23L405.87,110.06L407.63,109.04L407.67,108.87L409.82,108.02L409.94,107.85L413.32,106.48L413.65,106.31L416.1,105.29L417.7,105.12L421.07,103.76L422.35,103.59L423.15,102.74L423.17,102.57L423.97,102.05L425.15,101.88L426.39,101.2L427.22,101.03L434.49,95.07L434.49,94.9L435.23,93.19L435.5,93.02L440.59,89.1L441.18,88.93L442.84,87.23L443.29,87.06L444.89,85.87L445.38,85.7L446.47,84.84L446.64,84.67L447.69,84.33L449.54,84.16L453.75,81.78L453.91,81.61L455.21,78.03L455.58,77.86L456.98,74.62L457,74.45L459.95,72.23L460.05,72.06L464.06,68.83L464.88,68.65L466.09,67.12L466.12,66.95L466.91,65.59L467.22,65.42L468.39,63.71L469.25,63.54L469.75,63.03L470.41,62.86L471.29,61.67L471.48,61.5L473.21,60.3L473.21,60.13L474.07,59.11L474.4,58.94L476.4,56.9L477.19,56.73L479.39,55.53L479.5,55.36L482.26,52.64L482.28,52.47L483.56,51.1L483.57,50.93L484.3,50.25L484.34,50.08L487.74,45.99L488.38,45.82L489.26,44.8L489.88,44.63L491.77,43.09L491.89,42.92L493.05,41.9L493.35,41.73L494.98,41.22L495.42,41.05L496.72,38.83L497.51,38.66L499.93,36.96L501.65,36.79L501.7,36.62L502.56,36.45L505.95,34.57L506.09,34.4L510.17,32.36L510.19,32.19L511.93,31.17L512.21,31L514.33,29.97L514.47,29.8L520.56,26.74L521.4,26.57L522.17,25.88L522.41,25.71L522.59,25.37L523.33,25.2L525.26,24.01L525.33,23.84L528.44,22.82L528.49,22.65L529.73,21.28L530.15,21.11L530.47,20.6L531.44,20.43L531.57,20.09L532.63,19.92L536.73,18.04L536.89,17.87L538.99,16.51L539.5,16.34L540,16" style="fill: rgb(255, 127, 14); fill-opacity: 0.5; stroke-width: 0;"/></g></g><g class="errorbars"/><g class="lines"><path class="js-line" d="M0,319.83L0,319.49L2.01,319.32L3.92,318.3L4.65,318.13L5.26,316.93L5.66,316.76L6.27,315.74L6.58,315.57L8.75,311.99L9.17,311.82L10.34,310.8L10.34,310.63L11.25,309.78L11.94,309.61L12.99,307.39L12.99,307.22L13.26,306.54L13.77,306.37L14.46,304.83L15,304.66L16.19,304.15L17.45,303.98L18.96,302.79L19.1,302.62L24.53,301.6L25.4,301.43L26.58,300.91L27.15,300.74L28.32,299.38L30.24,299.21L33.3,297.34L34.53,297.17L38.56,294.44L38.57,294.27L38.88,293.42L39.54,293.25L41.77,291.03L41.77,290.86L42.47,290.18L42.78,290.01L45.09,287.96L46.41,287.79L48.63,285.75L48.77,285.58L49.15,284.9L49.83,284.73L54.19,282.85L54.86,282.68L55.93,281.66L57.11,281.49L61.36,278.25L62.99,278.08L66.35,275.01L66.45,274.84L66.58,274.5L67.36,274.33L70.02,272.97L70.06,272.8L70.38,272.46L71.15,272.29L72.34,271.95L73.32,271.78L74.17,270.58L74.58,270.41L80.63,268.37L80.75,268.2L82.38,267.17L82.92,267L83.72,265.81L83.93,265.64L86.62,264.45L86.87,264.28L86.9,263.94L87.76,263.77L88.5,262.91L88.78,262.74L89.49,262.23L89.84,262.06L89.85,261.72L90.96,261.55L90.99,261.21L91.86,261.04L96.2,259.68L96.69,259.51L97.82,258.83L98.13,258.65L102.82,256.61L102.83,256.44L104.11,255.42L104.11,255.25L104.84,253.03L104.87,252.86L115.04,247.24L116.37,247.07L119.49,245.87L120.31,245.7L121.81,245.02L122.82,244.85L124.74,243.66L124.77,243.49L129.53,241.27L129.73,241.1L130.78,240.42L131.19,240.25L137.55,235.99L137.73,235.82L142.8,234.12L142.83,233.95L144.26,232.75L144.26,232.58L146.92,230.88L147.08,230.71L152.04,228.49L153,228.32L155,227.47L156.13,227.3L157.28,225.94L158.2,225.77L158.45,225.43L159,225.26L164.14,223.72L164.29,223.55L165.12,222.87L165.3,222.7L177.71,217.42L177.86,217.25L177.97,216.91L179.82,216.74L185.78,214.52L185.88,214.35L190.56,212.65L190.72,212.48L191.32,211.79L191.91,211.62L192.21,211.28L193.23,211.11L193.99,210.77L194.19,210.6L194.97,209.92L195.12,209.75L195.45,209.07L196.3,208.9L198.34,207.19L199.21,207.02L200.56,205.83L201.14,205.66L208.42,203.96L208.67,203.78L212.22,202.76L212.36,202.59L212.86,202.08L213.72,201.91L220.96,199.7L221.18,199.52L224.45,198.16L224.53,197.99L226.29,196.8L226.64,196.63L227.55,195.95L227.88,195.78L228.82,194.75L229.56,194.58L232.76,191.52L233.82,191.35L236.17,190.32L236.31,190.15L236.92,189.81L239.1,189.64L244.96,187.94L245.04,187.77L245.96,187.26L246.28,187.09L247.83,186.23L248.01,186.06L248.85,185.21L250.05,185.04L251.78,183.85L252.36,183.68L253.11,182.83L253.55,182.65L254.28,181.8L254.37,181.63L255.28,180.95L255.55,180.78L256.45,179.93L256.47,179.76L259.25,178.22L259.5,178.05L261.14,176.69L261.66,176.52L264.38,175.16L264.49,174.99L265.02,174.48L265.49,174.3L269.55,171.24L270.63,171.07L272.67,169.53L273.09,169.36L277.95,166.81L278.1,166.64L278.73,165.96L278.97,165.78L282.76,164.08L283.42,163.91L295.28,161.87L295.29,161.7L296.28,161.01L297.3,160.84L299.08,159.65L299.31,159.48L302.65,157.78L303.19,157.61L303.48,157.09L304.24,156.92L306.4,156.24L306.85,156.07L308.61,154.71L308.64,154.54L309.38,154.03L310.65,153.86L312.8,151.81L313.87,151.64L314.79,150.11L314.86,149.94L315.57,149.43L315.91,149.26L318.95,147.38L319.8,147.21L322.87,145L324.25,144.83L325.98,143.29L326.26,143.12L329.27,141.93L329.81,141.76L332.02,141.08L332.87,140.91L333.01,140.57L334.15,140.39L334.94,139.54L335.31,139.37L343.38,137.5L344.25,137.33L348.78,134.6L348.85,134.43L351.69,133.75L352.47,133.58L355.82,131.7L356.96,131.53L365.14,127.44L365.72,127.27L367.23,126.25L368.18,126.08L376.1,123.52L376.89,123.35L385.25,119.78L385.89,119.61L385.89,118.41L387.19,118.24L388.25,117.73L390.14,117.56L390.59,117.05L391.43,116.88L391.45,116.71L392.61,116.54L392.75,116.37L394.34,116.2L399.52,114.15L399.62,113.98L400.91,112.45L400.95,112.28L405.8,110.23L405.87,110.06L407.63,109.04L407.67,108.87L409.82,108.02L409.94,107.85L413.32,106.48L413.65,106.31L416.1,105.29L417.7,105.12L421.07,103.76L422.35,103.59L423.15,102.74L423.17,102.57L423.97,102.05L425.15,101.88L426.39,101.2L427.22,101.03L434.49,95.07L434.49,94.9L435.23,93.19L435.5,93.02L440.59,89.1L441.18,88.93L442.84,87.23L443.29,87.06L444.89,85.87L445.38,85.7L446.47,84.84L446.64,84.67L447.69,84.33L449.54,84.16L453.75,81.78L453.91,81.61L455.21,78.03L455.58,77.86L456.98,74.62L457,74.45L459.95,72.23L460.05,72.06L464.06,68.83L464.88,68.65L466.09,67.12L466.12,66.95L466.91,65.59L467.22,65.42L468.39,63.71L469.25,63.54L469.75,63.03L470.41,62.86L471.29,61.67L471.48,61.5L473.21,60.3L473.21,60.13L474.07,59.11L474.4,58.94L476.4,56.9L477.19,56.73L479.39,55.53L479.5,55.36L482.26,52.64L482.28,52.47L483.56,51.1L483.57,50.93L484.3,50.25L484.34,50.08L487.74,45.99L488.38,45.82L489.26,44.8L489.88,44.63L491.77,43.09L491.89,42.92L493.05,41.9L493.35,41.73L494.98,41.22L495.42,41.05L496.72,38.83L497.51,38.66L499.93,36.96L501.65,36.79L501.7,36.62L502.56,36.45L505.95,34.57L506.09,34.4L510.17,32.36L510.19,32.19L511.93,31.17L512.21,31L514.33,29.97L514.47,29.8L520.56,26.74L521.4,26.57L522.17,25.88L522.41,25.71L522.59,25.37L523.33,25.2L525.26,24.01L525.33,23.84L528.44,22.82L528.49,22.65L529.73,21.28L530.15,21.11L530.47,20.6L531.44,20.43L531.57,20.09L532.63,19.92L536.73,18.04L536.89,17.87L538.99,16.51L539.5,16.34L540,16" style="vector-effect: none; fill: none; stroke: rgb(255, 127, 14); stroke-opacity: 1; stroke-width: 2px; opacity: 1;"/></g><g class="points"/><g class="text"/></g></g></g></g><g class="zerolinelayer-above"/><path class="xlines-above crisp" d="M0,0" style="fill: none;"/><path class="ylines-above crisp" d="M0,0" style="fill: none;"/><g class="overlines-above"/><g class="xaxislayer-above"><g class="xtick"><text text-anchor="middle" x="0" y="439" transform="translate(101.52,0)" style="font-family: 'Open Sans'; font-size: 18px; fill: rgb(0, 0, 0); fill-opacity: 1; white-space: pre;">2016</text></g><g class="xtick"><text text-anchor="middle" x="0" y="439" style="font-family: 'Open Sans'; font-size: 18px; fill: rgb(0, 0, 0); fill-opacity: 1; white-space: pre;" transform="translate(208.29,0)">2018</text></g><g class="xtick"><text text-anchor="middle" x="0" y="439" style="font-family: 'Open Sans'; font-size: 18px; fill: rgb(0, 0, 0); fill-opacity: 1; white-space: pre;" transform="translate(314.90999999999997,0)">2020</text></g><g class="xtick"><text text-anchor="middle" x="0" y="439" style="font-family: 'Open Sans'; font-size: 18px; fill: rgb(0, 0, 0); fill-opacity: 1; white-space: pre;" transform="translate(421.68,0)">2022</text></g><g class="xtick"><text text-anchor="middle" x="0" y="439" style="font-family: 'Open Sans'; font-size: 18px; fill: rgb(0, 0, 0); fill-opacity: 1; white-space: pre;" transform="translate(528.3,0)">2024</text></g></g><g class="yaxislayer-above"><g class="ytick"><text text-anchor="end" x="79" y="6.3" transform="translate(0,420)" style="font-family: 'Open Sans'; font-size: 18px; fill: rgb(0, 0, 0); fill-opacity: 1; white-space: pre;">0</text></g><g class="ytick"><text text-anchor="end" x="79" y="6.3" style="font-family: 'Open Sans'; font-size: 18px; fill: rgb(0, 0, 0); fill-opacity: 1; white-space: pre;" transform="translate(0,334.8)">500</text></g><g class="ytick"><text text-anchor="end" x="79" y="6.3" style="font-family: 'Open Sans'; font-size: 18px; fill: rgb(0, 0, 0); fill-opacity: 1; white-space: pre;" transform="translate(0,249.6)">1000</text></g><g class="ytick"><text text-anchor="end" x="79" y="6.3" style="font-family: 'Open Sans'; font-size: 18px; fill: rgb(0, 0, 0); fill-opacity: 1; white-space: pre;" transform="translate(0,164.39)">1500</text></g></g><g class="overaxes-above"/></g></g><g class="polarlayer"/><g class="smithlayer"/><g class="ternarylayer"/><g class="geolayer"/><g class="funnelarealayer"/><g class="pielayer"/><g class="iciclelayer"/><g class="treemaplayer"/><g class="sunburstlayer"/><g class="glimages"/><defs id="topdefs-9b8f8b"><g class="clips"/></defs><g class="layer-above"><g class="imagelayer"/><g class="shapelayer"/></g><g class="infolayer"><g class="g-gtitle"><text class="gtitle" x="35" y="50" text-anchor="start" dy="0em" style="opacity: 1; font-family: 'Open Sans'; font-size: 25px; fill: rgb(0, 0, 0); fill-opacity: 1; white-space: pre;">MultiQC/MultiQC - Issues Created Over Time</text></g><g class="g-xtitle"><text class="xtitle" x="350" y="472.9" text-anchor="middle" style="opacity: 1; font-family: 'Open Sans'; font-size: 22px; fill: rgb(0, 0, 0); fill-opacity: 1; white-space: pre;">Date</text></g><g class="g-ytitle"><text class="ytitle" transform="rotate(-90,20.799999999999997,260)" x="20.799999999999997" y="260" text-anchor="middle" style="opacity: 1; font-family: 'Open Sans'; font-size: 22px; fill: rgb(0, 0, 0); fill-opacity: 1; white-space: pre;">Cumulative Issues Created</text></g></g></svg>