<svg class="main-svg" xmlns="http://www.w3.org/2000/svg" xmlns:xlink="http://www.w3.org/1999/xlink" width="700" height="500" style="" viewBox="0 0 700 500"><rect x="0" y="0" width="700" height="500" style="fill: rgb(0, 0, 0); fill-opacity: 0;"/><defs id="defs-49c06a"><g class="clips"><clipPath id="clip49c06axyplot" class="plotclip"><rect width="540" height="320"/></clipPath><clipPath class="axesclip" id="clip49c06ax"><rect x="80" y="0" width="540" height="500"/></clipPath><clipPath class="axesclip" id="clip49c06ay"><rect x="0" y="100" width="700" height="320"/></clipPath><clipPath class="axesclip" id="clip49c06axy"><rect x="80" y="100" width="540" height="320"/></clipPath></g><g class="gradients"/><g class="patterns"/></defs><g class="bglayer"><rect class="bg" x="80" y="100" width="540" height="320" style="fill: rgb(0, 0, 0); fill-opacity: 0; stroke-width: 0;"/></g><g class="layer-below"><g class="imagelayer"/><g class="shapelayer"/></g><g class="cartesianlayer"><g class="subplot xy"><g class="layer-subplot"><g class="shapelayer"/><g class="imagelayer"/></g><g class="minor-gridlayer"><g class="x"/><g class="y"/></g><g class="gridlayer"><g class="x"><path class="xgrid crisp" transform="translate(94.08,0)" d="M0,100v320" style="stroke: rgb(255, 255, 255); stroke-opacity: 1; stroke-width: 1px;"/><path class="xgrid crisp" transform="translate(199.57999999999998,0)" d="M0,100v320" style="stroke: rgb(255, 255, 255); stroke-opacity: 1; stroke-width: 1px;"/><path class="xgrid crisp" transform="translate(304.91999999999996,0)" d="M0,100v320" style="stroke: rgb(255, 255, 255); stroke-opacity: 1; stroke-width: 1px;"/><path class="xgrid crisp" transform="translate(410.41,0)" d="M0,100v320" style="stroke: rgb(255, 255, 255); stroke-opacity: 1; stroke-width: 1px;"/><path class="xgrid crisp" transform="translate(515.76,0)" d="M0,100v320" style="stroke: rgb(255, 255, 255); stroke-opacity: 1; stroke-width: 1px;"/></g><g class="y"><path class="ygrid crisp" transform="translate(0,335.08000000000004)" d="M80,0h540" style="stroke: rgb(255, 255, 255); stroke-opacity: 1; stroke-width: 1px;"/><path class="ygrid crisp" transform="translate(0,250.17)" d="M80,0h540" style="stroke: rgb(255, 255, 255); stroke-opacity: 1; stroke-width: 1px;"/><path class="ygrid crisp" transform="translate(0,165.25)" d="M80,0h540" style="stroke: rgb(255, 255, 255); stroke-opacity: 1; stroke-width: 1px;"/></g></g><g class="zerolinelayer"><path class="yzl zl crisp" transform="translate(0,420)" d="M80,0h540" style="stroke: rgb(255, 255, 255); stroke-opacity: 1; stroke-width: 2px;"/></g><g class="layer-between"><g class="shapelayer"/><g class="imagelayer"/></g><path class="xlines-below"/><path class="ylines-below"/><g class="overlines-below"/><g class="xaxislayer-below"/><g class="yaxislayer-below"/><g class="overaxes-below"/><g class="overplot"><g class="xy" transform="translate(80,100)" clip-path="url(#clip49c06axyplot)"><g class="scatterlayer mlayer"><g class="trace scatter tracea2cf20" style="stroke-miterlimit: 2;"><g class="fills"><g><path class="js-fill" d="M540,320L0,320L0,318.3L0.22,311.51L0.22,309.81L0.31,299.62L2.5,297.92L20.86,294.53L20.92,292.83L23.86,291.13L24.84,289.43L25.6,287.73L28.08,286.03L31.21,284.34L31.22,282.64L31.32,280.94L34.1,279.24L41.18,277.54L42.91,275.84L43.18,274.15L58.58,272.45L61.08,269.05L64.54,267.35L65.11,263.96L73,262.26L75.19,260.56L75.85,258.86L77.65,255.46L81.71,253.77L92.53,252.07L93.7,250.37L93.85,238.48L95.58,236.78L96.01,231.69L100.49,229.99L101.78,226.59L104.36,224.89L104.49,223.2L105.95,221.5L108,219.8L114.89,218.1L120.66,216.4L129.18,214.7L129.32,213.01L133.06,211.31L133.95,209.61L135.84,207.91L143.88,206.21L145.64,204.51L145.83,202.82L150.38,201.12L152.43,197.72L160.85,196.02L161.96,194.32L170.37,192.63L183.49,189.23L183.45,187.53L191.52,185.83L191.8,184.13L207.11,182.44L213.46,180.74L221.09,177.34L232.11,175.64L239.12,173.94L240.48,172.25L241.07,167.15L242.34,165.45L243.34,162.06L246.36,160.36L247,155.26L249.37,153.56L251.43,150.17L252.63,148.47L258.2,146.77L261.19,145.07L261.52,141.68L263.72,139.98L270.31,138.28L270.59,136.58L271.17,134.88L275.34,133.18L277.46,131.49L285.48,129.79L287.11,128.09L294.57,126.39L295.48,124.69L301.2,122.99L302.04,121.3L309.15,119.6L318.66,116.2L327.73,114.5L350.53,112.8L353.18,111.11L359.23,109.41L359.39,107.71L360.26,106.01L362.26,104.31L362.43,102.61L363.4,100.92L367.73,99.22L368.31,97.52L413.34,95.82L417.65,94.12L418.12,90.73L420.18,89.03L421.3,85.63L424.14,83.93L427.23,82.23L427.34,80.54L429.34,78.84L438.5,77.14L440.53,75.44L440.67,73.74L441.07,70.35L441.89,68.65L443.82,66.95L444.22,65.25L446.97,63.55L453.45,61.85L462.7,60.16L463.43,58.46L464.98,55.06L465.01,53.36L471.62,48.27L482.33,46.57L485.69,44.87L485.7,43.17L485.94,36.38L486.49,34.68L486.54,31.28L503.5,29.59L506.83,27.89L521.84,26.19L522.16,24.49L526.09,22.79L536.44,21.09L536.85,19.4L537.89,17.7L540,16" style="fill: rgb(99, 110, 250); fill-opacity: 0.5; stroke-width: 0;"/></g></g><g class="errorbars"/><g class="lines"><path class="js-line" d="M0,318.3L0.22,311.51L0.22,309.81L0.31,299.62L2.5,297.92L20.86,294.53L20.92,292.83L23.86,291.13L24.84,289.43L25.6,287.73L28.08,286.03L31.21,284.34L31.22,282.64L31.32,280.94L34.1,279.24L41.18,277.54L42.91,275.84L43.18,274.15L58.58,272.45L61.08,269.05L64.54,267.35L65.11,263.96L73,262.26L75.19,260.56L75.85,258.86L77.65,255.46L81.71,253.77L92.53,252.07L93.7,250.37L93.85,238.48L95.58,236.78L96.01,231.69L100.49,229.99L101.78,226.59L104.36,224.89L104.49,223.2L105.95,221.5L108,219.8L114.89,218.1L120.66,216.4L129.18,214.7L129.32,213.01L133.06,211.31L133.95,209.61L135.84,207.91L143.88,206.21L145.64,204.51L145.83,202.82L150.38,201.12L152.43,197.72L160.85,196.02L161.96,194.32L170.37,192.63L183.49,189.23L183.45,187.53L191.52,185.83L191.8,184.13L207.11,182.44L213.46,180.74L221.09,177.34L232.11,175.64L239.12,173.94L240.48,172.25L241.07,167.15L242.34,165.45L243.34,162.06L246.36,160.36L247,155.26L249.37,153.56L251.43,150.17L252.63,148.47L258.2,146.77L261.19,145.07L261.52,141.68L263.72,139.98L270.31,138.28L270.59,136.58L271.17,134.88L275.34,133.18L277.46,131.49L285.48,129.79L287.11,128.09L294.57,126.39L295.48,124.69L301.2,122.99L302.04,121.3L309.15,119.6L318.66,116.2L327.73,114.5L350.53,112.8L353.18,111.11L359.23,109.41L359.39,107.71L360.26,106.01L362.26,104.31L362.43,102.61L363.4,100.92L367.73,99.22L368.31,97.52L413.34,95.82L417.65,94.12L418.12,90.73L420.18,89.03L421.3,85.63L424.14,83.93L427.23,82.23L427.34,80.54L429.34,78.84L438.5,77.14L440.53,75.44L440.67,73.74L441.07,70.35L441.89,68.65L443.82,66.95L444.22,65.25L446.97,63.55L453.45,61.85L462.7,60.16L463.43,58.46L464.98,55.06L465.01,53.36L471.62,48.27L482.33,46.57L485.69,44.87L485.7,43.17L485.94,36.38L486.49,34.68L486.54,31.28L503.5,29.59L506.83,27.89L521.84,26.19L522.16,24.49L526.09,22.79L536.44,21.09L536.85,19.4L537.89,17.7L540,16" style="vector-effect: none; fill: none; stroke: rgb(99, 110, 250); stroke-opacity: 1; stroke-width: 2px; opacity: 1;"/></g><g class="points"/><g class="text"/></g></g></g></g><g class="zerolinelayer-above"/><path class="xlines-above crisp" d="M0,0" style="fill: none;"/><path class="ylines-above crisp" d="M0,0" style="fill: none;"/><g class="overlines-above"/><g class="xaxislayer-above"><g class="xtick"><text text-anchor="middle" x="0" y="439" transform="translate(94.08,0)" style="font-family: 'Open Sans'; font-size: 18px; fill: rgb(0, 0, 0); fill-opacity: 1; white-space: pre;">2016</text></g><g class="xtick"><text text-anchor="middle" x="0" y="439" style="font-family: 'Open Sans'; font-size: 18px; fill: rgb(0, 0, 0); fill-opacity: 1; white-space: pre;" transform="translate(199.57999999999998,0)">2018</text></g><g class="xtick"><text text-anchor="middle" x="0" y="439" style="font-family: 'Open Sans'; font-size: 18px; fill: rgb(0, 0, 0); fill-opacity: 1; white-space: pre;" transform="translate(304.91999999999996,0)">2020</text></g><g class="xtick"><text text-anchor="middle" x="0" y="439" style="font-family: 'Open Sans'; font-size: 18px; fill: rgb(0, 0, 0); fill-opacity: 1; white-space: pre;" transform="translate(410.41,0)">2022</text></g><g class="xtick"><text text-anchor="middle" x="0" y="439" style="font-family: 'Open Sans'; font-size: 18px; fill: rgb(0, 0, 0); fill-opacity: 1; white-space: pre;" transform="translate(515.76,0)">2024</text></g></g><g class="yaxislayer-above"><g class="ytick"><text text-anchor="end" x="79" y="6.3" transform="translate(0,420)" style="font-family: 'Open Sans'; font-size: 18px; fill: rgb(0, 0, 0); fill-opacity: 1; white-space: pre;">0</text></g><g class="ytick"><text text-anchor="end" x="79" y="6.3" style="font-family: 'Open Sans'; font-size: 18px; fill: rgb(0, 0, 0); fill-opacity: 1; white-space: pre;" transform="translate(0,335.08000000000004)">50</text></g><g class="ytick"><text text-anchor="end" x="79" y="6.3" style="font-family: 'Open Sans'; font-size: 18px; fill: rgb(0, 0, 0); fill-opacity: 1; white-space: pre;" transform="translate(0,250.17)">100</text></g><g class="ytick"><text text-anchor="end" x="79" y="6.3" style="font-family: 'Open Sans'; font-size: 18px; fill: rgb(0, 0, 0); fill-opacity: 1; white-space: pre;" transform="translate(0,165.25)">150</text></g></g><g class="overaxes-above"/></g></g><g class="polarlayer"/><g class="smithlayer"/><g class="ternarylayer"/><g class="geolayer"/><g class="funnelarealayer"/><g class="pielayer"/><g class="iciclelayer"/><g class="treemaplayer"/><g class="sunburstlayer"/><g class="glimages"/><defs id="topdefs-49c06a"><g class="clips"/></defs><g class="layer-above"><g class="imagelayer"/><g class="shapelayer"/></g><g class="infolayer"><g class="g-gtitle"><text class="gtitle" x="35" y="50" text-anchor="start" dy="0em" style="opacity: 1; font-family: 'Open Sans'; font-size: 25px; fill: rgb(0, 0, 0); fill-opacity: 1; white-space: pre;">MultiQC modules over time</text></g><g class="g-xtitle"><text class="xtitle" x="350" y="472.9" text-anchor="middle" style="opacity: 1; font-family: 'Open Sans'; font-size: 22px; fill: rgb(0, 0, 0); fill-opacity: 1; white-space: pre;">Date</text></g><g class="g-ytitle"><text class="ytitle" transform="rotate(-90,29.799999999999997,260)" x="29.799999999999997" y="260" text-anchor="middle" style="opacity: 1; font-family: 'Open Sans'; font-size: 22px; fill: rgb(0, 0, 0); fill-opacity: 1; white-space: pre;">Number of modules</text></g></g></svg>