<svg class="main-svg" xmlns="http://www.w3.org/2000/svg" xmlns:xlink="http://www.w3.org/1999/xlink" width="700" height="500" style="" viewBox="0 0 700 500"><rect x="0" y="0" width="700" height="500" style="fill: rgb(0, 0, 0); fill-opacity: 0;"/><defs id="defs-a71d3d"><g class="clips"><clipPath id="clipa71d3dxyplot" class="plotclip"><rect width="540" height="320"/></clipPath><clipPath class="axesclip" id="clipa71d3dx"><rect x="80" y="0" width="540" height="500"/></clipPath><clipPath class="axesclip" id="clipa71d3dy"><rect x="0" y="100" width="700" height="320"/></clipPath><clipPath class="axesclip" id="clipa71d3dxy"><rect x="80" y="100" width="540" height="320"/></clipPath></g><g class="gradients"/><g class="patterns"/></defs><g class="bglayer"><rect class="bg" x="80" y="100" width="540" height="320" style="fill: rgb(0, 0, 0); fill-opacity: 0; stroke-width: 0;"/></g><g class="layer-below"><g class="imagelayer"/><g class="shapelayer"/></g><g class="cartesianlayer"><g class="subplot xy"><g class="layer-subplot"><g class="shapelayer"/><g class="imagelayer"/></g><g class="minor-gridlayer"><g class="x"/><g class="y"/></g><g class="gridlayer"><g class="x"><path class="xgrid crisp" transform="translate(94.18,0)" d="M0,100v320" style="stroke: rgb(255, 255, 255); stroke-opacity: 1; stroke-width: 1px;"/><path class="xgrid crisp" transform="translate(200.37,0)" d="M0,100v320" style="stroke: rgb(255, 255, 255); stroke-opacity: 1; stroke-width: 1px;"/><path class="xgrid crisp" transform="translate(306.40999999999997,0)" d="M0,100v320" style="stroke: rgb(255, 255, 255); stroke-opacity: 1; stroke-width: 1px;"/><path class="xgrid crisp" transform="translate(412.61,0)" d="M0,100v320" style="stroke: rgb(255, 255, 255); stroke-opacity: 1; stroke-width: 1px;"/><path class="xgrid crisp" transform="translate(518.65,0)" d="M0,100v320" style="stroke: rgb(255, 255, 255); stroke-opacity: 1; stroke-width: 1px;"/></g><g class="y"><path class="ygrid crisp" transform="translate(0,333.64)" d="M80,0h540" style="stroke: rgb(255, 255, 255); stroke-opacity: 1; stroke-width: 1px;"/><path class="ygrid crisp" transform="translate(0,247.27)" d="M80,0h540" style="stroke: rgb(255, 255, 255); stroke-opacity: 1; stroke-width: 1px;"/><path class="ygrid crisp" transform="translate(0,160.91)" d="M80,0h540" style="stroke: rgb(255, 255, 255); stroke-opacity: 1; stroke-width: 1px;"/></g></g><g class="zerolinelayer"><path class="yzl zl crisp" transform="translate(0,420)" d="M80,0h540" style="stroke: rgb(255, 255, 255); stroke-opacity: 1; stroke-width: 2px;"/></g><g class="layer-between"><g class="shapelayer"/><g class="imagelayer"/></g><path class="xlines-below"/><path class="ylines-below"/><g class="overlines-below"/><g class="xaxislayer-below"/><g class="yaxislayer-below"/><g class="overaxes-below"/><g class="overplot"><g class="xy" transform="translate(80,100)" clip-path="url(#clipa71d3dxyplot)"><g class="scatterlayer mlayer"><g class="trace scatter traceeb5502" style="stroke-miterlimit: 2;"><g class="fills"><g><path class="js-fill" d="M540,320L0,320L0,318.27L0.22,311.36L0.22,309.64L0.31,299.27L2.52,297.55L21,294.09L21.06,292.36L24.02,290.64L25,288.91L25.77,287.18L28.27,285.45L31.42,283.73L31.43,282L31.53,280.27L34.33,278.55L41.45,276.82L43.19,275.09L43.46,273.36L58.97,271.64L61.48,268.18L64.97,266.45L65.54,263L73.48,261.27L75.69,259.55L76.36,257.82L78.16,254.36L82.25,252.64L93.15,250.91L94.33,249.18L94.47,237.09L96.21,235.36L96.65,231.91L96.64,230.18L101.15,228.45L101.73,226.73L102.46,225L105.05,223.27L105.18,221.55L106.65,219.82L108.71,218.09L115.65,216.36L121.46,214.64L130.04,212.91L130.17,211.18L133.94,209.45L134.84,207.73L136.74,206L144.84,204.27L146.6,202.55L146.8,200.82L151.38,199.09L153.44,195.64L161.91,193.91L163.04,192.18L171.5,190.45L184.7,187L184.67,185.27L192.79,183.55L193.08,181.82L208.48,180.09L214.88,178.36L222.56,174.91L233.65,173.18L240.7,171.45L242.07,169.73L242.67,164.55L243.95,162.82L244.96,159.36L247.99,157.64L248.64,152.45L251.02,150.73L253.1,147.27L254.3,145.55L259.91,143.82L262.92,142.09L263.25,138.64L265.47,136.91L272.1,135.18L272.38,133.45L272.97,131.73L277.17,130L279.3,128.27L287.37,126.55L289.01,124.82L296.52,123.09L297.43,121.36L303.2,119.64L304.05,117.91L311.2,116.18L320.77,112.73L329.9,111L352.85,109.27L355.52,107.55L361.61,105.82L361.77,104.09L362.65,102.36L364.66,100.64L364.83,98.91L365.81,97.18L370.17,95.45L370.75,93.73L416.08,92L420.42,90.27L420.9,86.82L422.96,85.09L424.09,81.64L426.95,79.91L430.06,78.18L430.18,76.45L432.18,74.73L441.41,73L443.45,71.27L443.59,69.55L443.99,66.09L444.82,64.36L446.77,62.64L447.16,60.91L449.93,59.18L456.45,57.45L465.77,55.73L466.5,54L468.07,50.55L468.1,48.82L474.75,43.64L485.53,41.91L488.91,40.18L488.92,38.45L489.16,31.55L489.71,29.82L489.77,26.36L506.84,24.64L510.19,22.91L525.3,21.18L525.62,19.45L529.58,17.73L540,16" style="fill: rgb(99, 110, 250); fill-opacity: 0.5; stroke-width: 0;"/></g></g><g class="errorbars"/><g class="lines"><path class="js-line" d="M0,318.27L0.22,311.36L0.22,309.64L0.31,299.27L2.52,297.55L21,294.09L21.06,292.36L24.02,290.64L25,288.91L25.77,287.18L28.27,285.45L31.42,283.73L31.43,282L31.53,280.27L34.33,278.55L41.45,276.82L43.19,275.09L43.46,273.36L58.97,271.64L61.48,268.18L64.97,266.45L65.54,263L73.48,261.27L75.69,259.55L76.36,257.82L78.16,254.36L82.25,252.64L93.15,250.91L94.33,249.18L94.47,237.09L96.21,235.36L96.65,231.91L96.64,230.18L101.15,228.45L101.73,226.73L102.46,225L105.05,223.27L105.18,221.55L106.65,219.82L108.71,218.09L115.65,216.36L121.46,214.64L130.04,212.91L130.17,211.18L133.94,209.45L134.84,207.73L136.74,206L144.84,204.27L146.6,202.55L146.8,200.82L151.38,199.09L153.44,195.64L161.91,193.91L163.04,192.18L171.5,190.45L184.7,187L184.67,185.27L192.79,183.55L193.08,181.82L208.48,180.09L214.88,178.36L222.56,174.91L233.65,173.18L240.7,171.45L242.07,169.73L242.67,164.55L243.95,162.82L244.96,159.36L247.99,157.64L248.64,152.45L251.02,150.73L253.1,147.27L254.3,145.55L259.91,143.82L262.92,142.09L263.25,138.64L265.47,136.91L272.1,135.18L272.38,133.45L272.97,131.73L277.17,130L279.3,128.27L287.37,126.55L289.01,124.82L296.52,123.09L297.43,121.36L303.2,119.64L304.05,117.91L311.2,116.18L320.77,112.73L329.9,111L352.85,109.27L355.52,107.55L361.61,105.82L361.77,104.09L362.65,102.36L364.66,100.64L364.83,98.91L365.81,97.18L370.17,95.45L370.75,93.73L416.08,92L420.42,90.27L420.9,86.82L422.96,85.09L424.09,81.64L426.95,79.91L430.06,78.18L430.18,76.45L432.18,74.73L441.41,73L443.45,71.27L443.59,69.55L443.99,66.09L444.82,64.36L446.77,62.64L447.16,60.91L449.93,59.18L456.45,57.45L465.77,55.73L466.5,54L468.07,50.55L468.1,48.82L474.75,43.64L485.53,41.91L488.91,40.18L488.92,38.45L489.16,31.55L489.71,29.82L489.77,26.36L506.84,24.64L510.19,22.91L525.3,21.18L525.62,19.45L529.58,17.73L540,16" style="vector-effect: none; fill: none; stroke: rgb(99, 110, 250); stroke-opacity: 1; stroke-width: 2px; opacity: 1;"/></g><g class="points"/><g class="text"/></g></g></g></g><g class="zerolinelayer-above"/><path class="xlines-above crisp" d="M0,0" style="fill: none;"/><path class="ylines-above crisp" d="M0,0" style="fill: none;"/><g class="overlines-above"/><g class="xaxislayer-above"><g class="xtick"><text text-anchor="middle" x="0" y="439" transform="translate(94.18,0)" style="font-family: 'Open Sans'; font-size: 18px; fill: rgb(255, 255, 255); fill-opacity: 1; white-space: pre;">2016</text></g><g class="xtick"><text text-anchor="middle" x="0" y="439" style="font-family: 'Open Sans'; font-size: 18px; fill: rgb(255, 255, 255); fill-opacity: 1; white-space: pre;" transform="translate(200.37,0)">2018</text></g><g class="xtick"><text text-anchor="middle" x="0" y="439" style="font-family: 'Open Sans'; font-size: 18px; fill: rgb(255, 255, 255); fill-opacity: 1; white-space: pre;" transform="translate(306.40999999999997,0)">2020</text></g><g class="xtick"><text text-anchor="middle" x="0" y="439" style="font-family: 'Open Sans'; font-size: 18px; fill: rgb(255, 255, 255); fill-opacity: 1; white-space: pre;" transform="translate(412.61,0)">2022</text></g><g class="xtick"><text text-anchor="middle" x="0" y="439" style="font-family: 'Open Sans'; font-size: 18px; fill: rgb(255, 255, 255); fill-opacity: 1; white-space: pre;" transform="translate(518.65,0)">2024</text></g></g><g class="yaxislayer-above"><g class="ytick"><text text-anchor="end" x="79" y="6.3" transform="translate(0,420)" style="font-family: 'Open Sans'; font-size: 18px; fill: rgb(255, 255, 255); fill-opacity: 1; white-space: pre;">0</text></g><g class="ytick"><text text-anchor="end" x="79" y="6.3" style="font-family: 'Open Sans'; font-size: 18px; fill: rgb(255, 255, 255); fill-opacity: 1; white-space: pre;" transform="translate(0,333.64)">50</text></g><g class="ytick"><text text-anchor="end" x="79" y="6.3" style="font-family: 'Open Sans'; font-size: 18px; fill: rgb(255, 255, 255); fill-opacity: 1; white-space: pre;" transform="translate(0,247.27)">100</text></g><g class="ytick"><text text-anchor="end" x="79" y="6.3" style="font-family: 'Open Sans'; font-size: 18px; fill: rgb(255, 255, 255); fill-opacity: 1; white-space: pre;" transform="translate(0,160.91)">150</text></g></g><g class="overaxes-above"/></g></g><g class="polarlayer"/><g class="smithlayer"/><g class="ternarylayer"/><g class="geolayer"/><g class="funnelarealayer"/><g class="pielayer"/><g class="iciclelayer"/><g class="treemaplayer"/><g class="sunburstlayer"/><g class="glimages"/><defs id="topdefs-a71d3d"><g class="clips"/></defs><g class="layer-above"><g class="imagelayer"/><g class="shapelayer"/></g><g class="infolayer"><g class="g-gtitle"><text class="gtitle" x="35" y="50" text-anchor="start" dy="0em" style="opacity: 1; font-family: 'Open Sans'; font-size: 25px; fill: rgb(255, 255, 255); fill-opacity: 1; white-space: pre;">MultiQC modules over time</text></g><g class="g-xtitle"><text class="xtitle" x="350" y="472.9" text-anchor="middle" style="opacity: 1; font-family: 'Open Sans'; font-size: 22px; fill: rgb(255, 255, 255); fill-opacity: 1; white-space: pre;">Date</text></g><g class="g-ytitle"><text class="ytitle" transform="rotate(-90,29.799999999999997,260)" x="29.799999999999997" y="260" text-anchor="middle" style="opacity: 1; font-family: 'Open Sans'; font-size: 22px; fill: rgb(255, 255, 255); fill-opacity: 1; white-space: pre;">Number of modules</text></g></g></svg>