<svg class="main-svg" xmlns="http://www.w3.org/2000/svg" xmlns:xlink="http://www.w3.org/1999/xlink" width="700" height="500" style="" viewBox="0 0 700 500"><rect x="0" y="0" width="700" height="500" style="fill: rgb(0, 0, 0); fill-opacity: 0;"/><defs id="defs-0203a1"><g class="clips"><clipPath id="clip0203a1xyplot" class="plotclip"><rect width="540" height="320"/></clipPath><clipPath class="axesclip" id="clip0203a1x"><rect x="80" y="0" width="540" height="500"/></clipPath><clipPath class="axesclip" id="clip0203a1y"><rect x="0" y="100" width="700" height="320"/></clipPath><clipPath class="axesclip" id="clip0203a1xy"><rect x="80" y="100" width="540" height="320"/></clipPath></g><g class="gradients"/><g class="patterns"/></defs><g class="bglayer"><rect class="bg" x="80" y="100" width="540" height="320" style="fill: rgb(0, 0, 0); fill-opacity: 0; stroke-width: 0;"/></g><g class="layer-below"><g class="imagelayer"/><g class="shapelayer"/></g><g class="cartesianlayer"><g class="subplot xy"><g class="layer-subplot"><g class="shapelayer"/><g class="imagelayer"/></g><g class="minor-gridlayer"><g class="x"/><g class="y"/></g><g class="gridlayer"><g class="x"><path class="xgrid crisp" transform="translate(93.65,0)" d="M0,100v320" style="stroke: rgb(255, 255, 255); stroke-opacity: 1; stroke-width: 1px;"/><path class="xgrid crisp" transform="translate(195.89,0)" d="M0,100v320" style="stroke: rgb(255, 255, 255); stroke-opacity: 1; stroke-width: 1px;"/><path class="xgrid crisp" transform="translate(297.99,0)" d="M0,100v320" style="stroke: rgb(255, 255, 255); stroke-opacity: 1; stroke-width: 1px;"/><path class="xgrid crisp" transform="translate(400.22,0)" d="M0,100v320" style="stroke: rgb(255, 255, 255); stroke-opacity: 1; stroke-width: 1px;"/><path class="xgrid crisp" transform="translate(502.32,0)" d="M0,100v320" style="stroke: rgb(255, 255, 255); stroke-opacity: 1; stroke-width: 1px;"/><path class="xgrid crisp" transform="translate(604.56,0)" d="M0,100v320" style="stroke: rgb(255, 255, 255); stroke-opacity: 1; stroke-width: 1px;"/></g><g class="y"><path class="ygrid crisp" transform="translate(0,335.56)" d="M80,0h540" style="stroke: rgb(255, 255, 255); stroke-opacity: 1; stroke-width: 1px;"/><path class="ygrid crisp" transform="translate(0,251.11)" d="M80,0h540" style="stroke: rgb(255, 255, 255); stroke-opacity: 1; stroke-width: 1px;"/><path class="ygrid crisp" transform="translate(0,166.67000000000002)" d="M80,0h540" style="stroke: rgb(255, 255, 255); stroke-opacity: 1; stroke-width: 1px;"/></g></g><g class="zerolinelayer"><path class="yzl zl crisp" transform="translate(0,420)" d="M80,0h540" style="stroke: rgb(255, 255, 255); stroke-opacity: 1; stroke-width: 2px;"/></g><g class="layer-between"><g class="shapelayer"/><g class="imagelayer"/></g><path class="xlines-below"/><path class="ylines-below"/><g class="overlines-below"/><g class="xaxislayer-below"/><g class="yaxislayer-below"/><g class="overaxes-below"/><g class="overplot"><g class="xy" transform="translate(80,100)" clip-path="url(#clip0203a1xyplot)"><g class="scatterlayer mlayer"><g class="trace scatter traceb1665b" style="stroke-miterlimit: 2;"><g class="fills"><g><path class="js-fill" d="M540,320L0,320L0,318.31L0.21,311.56L0.21,309.87L0.3,299.73L2.42,298.04L20.22,294.67L20.28,292.98L23.12,291.29L24.07,289.6L24.81,287.91L27.21,286.22L30.25,284.53L30.26,282.84L30.36,281.16L33.05,279.47L39.91,277.78L41.59,276.09L41.85,274.4L56.78,272.71L59.19,269.33L62.55,267.64L63.1,264.27L70.74,262.58L72.87,260.89L73.51,259.2L75.25,255.82L79.19,254.13L89.68,252.44L90.81,250.76L90.96,238.93L92.63,237.24L93.05,232.18L97.39,230.49L98.64,227.11L101.14,225.42L101.26,223.73L102.68,222.04L104.67,220.36L111.35,218.67L116.94,216.98L125.2,215.29L125.33,213.6L128.95,211.91L129.82,210.22L131.65,208.53L139.45,206.84L141.15,205.16L141.33,203.47L145.74,201.78L147.73,198.4L155.89,196.71L156.97,195.02L165.11,193.33L177.83,189.96L177.8,188.27L185.61,186.58L185.89,184.89L200.72,183.2L206.88,181.51L214.27,178.13L224.95,176.44L231.74,174.76L233.06,173.07L233.64,168L234.86,166.31L235.84,162.93L238.76,161.24L239.38,156.18L241.68,154.49L243.68,151.11L244.83,149.42L250.24,147.73L253.13,146.04L253.45,142.67L255.58,140.98L261.97,139.29L262.24,137.6L262.8,135.91L266.85,134.22L268.9,132.53L276.67,130.84L278.25,129.16L285.48,127.47L286.36,125.78L291.91,124.09L292.73,122.4L299.61,120.71L308.83,117.33L317.62,115.64L339.71,113.96L342.29,112.27L348.15,110.58L348.3,108.89L349.15,107.2L351.09,105.51L351.25,103.82L352.2,102.13L356.39,100.44L356.95,98.76L400.59,97.07L404.77,95.38L405.23,92L407.22,90.31L408.3,86.93L411.05,85.24L414.05,83.56L414.16,81.87L416.09,80.18L424.98,78.49L426.94,76.8L427.08,75.11L427.46,71.73L428.26,70.04L430.13,68.36L430.52,66.67L433.18,64.98L439.46,63.29L448.43,61.6L449.14,59.91L450.64,56.53L450.67,54.84L457.08,49.78L467.45,48.09L470.71,46.4L470.72,44.71L470.95,37.96L471.48,36.27L471.54,32.89L487.97,31.2L491.2,29.51L505.75,27.82L506.05,26.13L509.87,24.44L519.9,22.76L520.29,21.07L521.3,19.38L523.34,17.69L540,16" style="fill: rgb(99, 110, 250); fill-opacity: 0.5; stroke-width: 0;"/></g></g><g class="errorbars"/><g class="lines"><path class="js-line" d="M0,318.31L0.21,311.56L0.21,309.87L0.3,299.73L2.42,298.04L20.22,294.67L20.28,292.98L23.12,291.29L24.07,289.6L24.81,287.91L27.21,286.22L30.25,284.53L30.26,282.84L30.36,281.16L33.05,279.47L39.91,277.78L41.59,276.09L41.85,274.4L56.78,272.71L59.19,269.33L62.55,267.64L63.1,264.27L70.74,262.58L72.87,260.89L73.51,259.2L75.25,255.82L79.19,254.13L89.68,252.44L90.81,250.76L90.96,238.93L92.63,237.24L93.05,232.18L97.39,230.49L98.64,227.11L101.14,225.42L101.26,223.73L102.68,222.04L104.67,220.36L111.35,218.67L116.94,216.98L125.2,215.29L125.33,213.6L128.95,211.91L129.82,210.22L131.65,208.53L139.45,206.84L141.15,205.16L141.33,203.47L145.74,201.78L147.73,198.4L155.89,196.71L156.97,195.02L165.11,193.33L177.83,189.96L177.8,188.27L185.61,186.58L185.89,184.89L200.72,183.2L206.88,181.51L214.27,178.13L224.95,176.44L231.74,174.76L233.06,173.07L233.64,168L234.86,166.31L235.84,162.93L238.76,161.24L239.38,156.18L241.68,154.49L243.68,151.11L244.83,149.42L250.24,147.73L253.13,146.04L253.45,142.67L255.58,140.98L261.97,139.29L262.24,137.6L262.8,135.91L266.85,134.22L268.9,132.53L276.67,130.84L278.25,129.16L285.48,127.47L286.36,125.78L291.91,124.09L292.73,122.4L299.61,120.71L308.83,117.33L317.62,115.64L339.71,113.96L342.29,112.27L348.15,110.58L348.3,108.89L349.15,107.2L351.09,105.51L351.25,103.82L352.2,102.13L356.39,100.44L356.95,98.76L400.59,97.07L404.77,95.38L405.23,92L407.22,90.31L408.3,86.93L411.05,85.24L414.05,83.56L414.16,81.87L416.09,80.18L424.98,78.49L426.94,76.8L427.08,75.11L427.46,71.73L428.26,70.04L430.13,68.36L430.52,66.67L433.18,64.98L439.46,63.29L448.43,61.6L449.14,59.91L450.64,56.53L450.67,54.84L457.08,49.78L467.45,48.09L470.71,46.4L470.72,44.71L470.95,37.96L471.48,36.27L471.54,32.89L487.97,31.2L491.2,29.51L505.75,27.82L506.05,26.13L509.87,24.44L519.9,22.76L520.29,21.07L521.3,19.38L523.34,17.69L540,16" style="vector-effect: none; fill: none; stroke: rgb(99, 110, 250); stroke-opacity: 1; stroke-width: 2px; opacity: 1;"/></g><g class="points"/><g class="text"/></g></g></g></g><g class="zerolinelayer-above"/><path class="xlines-above crisp" d="M0,0" style="fill: none;"/><path class="ylines-above crisp" d="M0,0" style="fill: none;"/><g class="overlines-above"/><g class="xaxislayer-above"><g class="xtick"><text text-anchor="middle" x="0" y="439" transform="translate(93.65,0)" style="font-family: 'Open Sans'; font-size: 18px; fill: rgb(255, 255, 255); fill-opacity: 1; white-space: pre;">2016</text></g><g class="xtick"><text text-anchor="middle" x="0" y="439" style="font-family: 'Open Sans'; font-size: 18px; fill: rgb(255, 255, 255); fill-opacity: 1; white-space: pre;" transform="translate(195.89,0)">2018</text></g><g class="xtick"><text text-anchor="middle" x="0" y="439" style="font-family: 'Open Sans'; font-size: 18px; fill: rgb(255, 255, 255); fill-opacity: 1; white-space: pre;" transform="translate(297.99,0)">2020</text></g><g class="xtick"><text text-anchor="middle" x="0" y="439" style="font-family: 'Open Sans'; font-size: 18px; fill: rgb(255, 255, 255); fill-opacity: 1; white-space: pre;" transform="translate(400.22,0)">2022</text></g><g class="xtick"><text text-anchor="middle" x="0" y="439" style="font-family: 'Open Sans'; font-size: 18px; fill: rgb(255, 255, 255); fill-opacity: 1; white-space: pre;" transform="translate(502.32,0)">2024</text></g><g class="xtick"><text text-anchor="middle" x="0" y="439" style="font-family: 'Open Sans'; font-size: 18px; fill: rgb(255, 255, 255); fill-opacity: 1; white-space: pre;" transform="translate(604.56,0)">2026</text></g></g><g class="yaxislayer-above"><g class="ytick"><text text-anchor="end" x="79" y="6.3" transform="translate(0,420)" style="font-family: 'Open Sans'; font-size: 18px; fill: rgb(255, 255, 255); fill-opacity: 1; white-space: pre;">0</text></g><g class="ytick"><text text-anchor="end" x="79" y="6.3" style="font-family: 'Open Sans'; font-size: 18px; fill: rgb(255, 255, 255); fill-opacity: 1; white-space: pre;" transform="translate(0,335.56)">50</text></g><g class="ytick"><text text-anchor="end" x="79" y="6.3" style="font-family: 'Open Sans'; font-size: 18px; fill: rgb(255, 255, 255); fill-opacity: 1; white-space: pre;" transform="translate(0,251.11)">100</text></g><g class="ytick"><text text-anchor="end" x="79" y="6.3" style="font-family: 'Open Sans'; font-size: 18px; fill: rgb(255, 255, 255); fill-opacity: 1; white-space: pre;" transform="translate(0,166.67000000000002)">150</text></g></g><g class="overaxes-above"/></g></g><g class="polarlayer"/><g class="smithlayer"/><g class="ternarylayer"/><g class="geolayer"/><g class="funnelarealayer"/><g class="pielayer"/><g class="iciclelayer"/><g class="treemaplayer"/><g class="sunburstlayer"/><g class="glimages"/><defs id="topdefs-0203a1"><g class="clips"/></defs><g class="layer-above"><g class="imagelayer"/><g class="shapelayer"/></g><g class="infolayer"><g class="g-gtitle"><text class="gtitle" x="35" y="50" text-anchor="start" dy="0em" style="opacity: 1; font-family: 'Open Sans'; font-size: 25px; fill: rgb(255, 255, 255); fill-opacity: 1; white-space: pre;">MultiQC modules over time</text></g><g class="g-xtitle"><text class="xtitle" x="350" y="472.9" text-anchor="middle" style="opacity: 1; font-family: 'Open Sans'; font-size: 22px; fill: rgb(255, 255, 255); fill-opacity: 1; white-space: pre;">Date</text></g><g class="g-ytitle"><text class="ytitle" transform="rotate(-90,29.799999999999997,260)" x="29.799999999999997" y="260" text-anchor="middle" style="opacity: 1; font-family: 'Open Sans'; font-size: 22px; fill: rgb(255, 255, 255); fill-opacity: 1; white-space: pre;">Number of modules</text></g></g></svg>