<svg class="main-svg" xmlns="http://www.w3.org/2000/svg" xmlns:xlink="http://www.w3.org/1999/xlink" width="700" height="500" style="" viewBox="0 0 700 500"><rect x="0" y="0" width="700" height="500" style="fill: rgb(0, 0, 0); fill-opacity: 0;"/><defs id="defs-d4e72d"><g class="clips"><clipPath id="clipd4e72dxyplot" class="plotclip"><rect width="540" height="320"/></clipPath><clipPath class="axesclip" id="clipd4e72dx"><rect x="80" y="0" width="540" height="500"/></clipPath><clipPath class="axesclip" id="clipd4e72dy"><rect x="0" y="100" width="700" height="320"/></clipPath><clipPath class="axesclip" id="clipd4e72dxy"><rect x="80" y="100" width="540" height="320"/></clipPath></g><g class="gradients"/><g class="patterns"/></defs><g class="bglayer"><rect class="bg" x="80" y="100" width="540" height="320" style="fill: rgb(0, 0, 0); fill-opacity: 0; stroke-width: 0;"/></g><g class="layer-below"><g class="imagelayer"/><g class="shapelayer"/></g><g class="cartesianlayer"><g class="subplot xy"><g class="layer-subplot"><g class="shapelayer"/><g class="imagelayer"/></g><g class="minor-gridlayer"><g class="x"/><g class="y"/></g><g class="gridlayer"><g class="x"><path class="xgrid crisp" transform="translate(94.46000000000001,0)" d="M0,100v320" style="stroke: rgb(255, 255, 255); stroke-opacity: 1; stroke-width: 1px;"/><path class="xgrid crisp" transform="translate(202.74,0)" d="M0,100v320" style="stroke: rgb(255, 255, 255); stroke-opacity: 1; stroke-width: 1px;"/><path class="xgrid crisp" transform="translate(310.87,0)" d="M0,100v320" style="stroke: rgb(255, 255, 255); stroke-opacity: 1; stroke-width: 1px;"/><path class="xgrid crisp" transform="translate(419.15,0)" d="M0,100v320" style="stroke: rgb(255, 255, 255); stroke-opacity: 1; stroke-width: 1px;"/><path class="xgrid crisp" transform="translate(527.28,0)" d="M0,100v320" style="stroke: rgb(255, 255, 255); stroke-opacity: 1; stroke-width: 1px;"/></g><g class="y"><path class="ygrid crisp" transform="translate(0,333.14)" d="M80,0h540" style="stroke: rgb(255, 255, 255); stroke-opacity: 1; stroke-width: 1px;"/><path class="ygrid crisp" transform="translate(0,246.29)" d="M80,0h540" style="stroke: rgb(255, 255, 255); stroke-opacity: 1; stroke-width: 1px;"/><path class="ygrid crisp" transform="translate(0,159.43)" d="M80,0h540" style="stroke: rgb(255, 255, 255); stroke-opacity: 1; stroke-width: 1px;"/></g></g><g class="zerolinelayer"><path class="yzl zl crisp" transform="translate(0,420)" d="M80,0h540" style="stroke: rgb(255, 255, 255); stroke-opacity: 1; stroke-width: 2px;"/></g><g class="layer-between"><g class="shapelayer"/><g class="imagelayer"/></g><path class="xlines-below"/><path class="ylines-below"/><g class="overlines-below"/><g class="xaxislayer-below"/><g class="yaxislayer-below"/><g class="overaxes-below"/><g class="overplot"><g class="xy" transform="translate(80,100)" clip-path="url(#clipd4e72dxyplot)"><g class="scatterlayer mlayer"><g class="trace scatter trace12fe57" style="stroke-miterlimit: 2;"><g class="fills"><g><path class="js-fill" d="M540,320L0,320L0,318.26L0.22,311.31L0.22,309.58L0.31,299.15L2.57,297.42L21.42,293.94L21.47,292.21L24.49,290.47L25.49,288.73L26.27,286.99L28.82,285.26L32.04,283.52L32.04,281.78L32.15,280.05L35,278.31L42.26,276.57L44.04,274.83L44.32,273.1L60.13,271.36L62.69,267.89L66.25,266.15L66.83,262.67L74.93,260.94L77.18,259.2L77.86,257.46L79.7,253.99L83.87,252.25L94.98,250.51L96.18,248.78L96.33,236.62L98.11,234.88L98.55,229.67L103.14,227.93L104.47,224.46L107.12,222.72L107.25,220.98L108.75,219.25L110.85,217.51L117.93,215.77L123.85,214.03L132.6,212.3L132.73,210.56L136.57,208.82L137.5,207.09L139.43,205.35L147.69,203.61L149.49,201.87L149.68,200.14L154.35,198.4L156.46,194.93L165.1,193.19L166.24,191.45L174.87,189.71L188.34,186.24L188.3,184.5L196.58,182.77L196.87,181.03L212.58,179.29L219.11,177.55L226.94,174.08L238.25,172.34L245.44,170.61L246.83,168.87L247.45,163.66L248.75,161.92L249.78,158.45L252.87,156.71L253.53,151.5L255.96,149.76L258.08,146.29L259.3,144.55L265.03,142.81L268.09,141.07L268.43,137.6L270.69,135.86L277.46,134.13L277.74,132.39L278.34,130.65L282.62,128.91L284.8,127.18L293.03,125.44L294.7,123.7L302.36,121.97L303.29,120.23L309.17,118.49L310.03,116.75L317.32,115.02L327.08,111.54L336.39,109.81L359.79,108.07L362.52,106.33L368.72,104.59L368.89,102.86L369.79,101.12L371.84,99.38L372.01,97.65L373.01,95.91L377.45,94.17L378.05,92.43L424.27,90.7L428.69,88.96L429.18,85.49L431.28,83.75L432.43,80.27L435.35,78.54L438.52,76.8L438.64,75.06L440.69,73.33L450.09,71.59L452.18,69.85L452.32,68.11L452.73,64.64L453.57,62.9L455.56,61.17L455.96,59.43L458.79,57.69L465.43,55.95L474.93,54.22L475.68,52.48L477.27,49.01L477.31,47.27L484.09,42.06L495.08,40.32L498.53,38.58L498.54,36.85L498.78,29.9L499.35,28.16L499.4,24.69L516.81,22.95L520.23,21.21L535.64,19.47L535.96,17.74L540,16" style="fill: rgb(99, 110, 250); fill-opacity: 0.5; stroke-width: 0;"/></g></g><g class="errorbars"/><g class="lines"><path class="js-line" d="M0,318.26L0.22,311.31L0.22,309.58L0.31,299.15L2.57,297.42L21.42,293.94L21.47,292.21L24.49,290.47L25.49,288.73L26.27,286.99L28.82,285.26L32.04,283.52L32.04,281.78L32.15,280.05L35,278.31L42.26,276.57L44.04,274.83L44.32,273.1L60.13,271.36L62.69,267.89L66.25,266.15L66.83,262.67L74.93,260.94L77.18,259.2L77.86,257.46L79.7,253.99L83.87,252.25L94.98,250.51L96.18,248.78L96.33,236.62L98.11,234.88L98.55,229.67L103.14,227.93L104.47,224.46L107.12,222.72L107.25,220.98L108.75,219.25L110.85,217.51L117.93,215.77L123.85,214.03L132.6,212.3L132.73,210.56L136.57,208.82L137.5,207.09L139.43,205.35L147.69,203.61L149.49,201.87L149.68,200.14L154.35,198.4L156.46,194.93L165.1,193.19L166.24,191.45L174.87,189.71L188.34,186.24L188.3,184.5L196.58,182.77L196.87,181.03L212.58,179.29L219.11,177.55L226.94,174.08L238.25,172.34L245.44,170.61L246.83,168.87L247.45,163.66L248.75,161.92L249.78,158.45L252.87,156.71L253.53,151.5L255.96,149.76L258.08,146.29L259.3,144.55L265.03,142.81L268.09,141.07L268.43,137.6L270.69,135.86L277.46,134.13L277.74,132.39L278.34,130.65L282.62,128.91L284.8,127.18L293.03,125.44L294.7,123.7L302.36,121.97L303.29,120.23L309.17,118.49L310.03,116.75L317.32,115.02L327.08,111.54L336.39,109.81L359.79,108.07L362.52,106.33L368.72,104.59L368.89,102.86L369.79,101.12L371.84,99.38L372.01,97.65L373.01,95.91L377.45,94.17L378.05,92.43L424.27,90.7L428.69,88.96L429.18,85.49L431.28,83.75L432.43,80.27L435.35,78.54L438.52,76.8L438.64,75.06L440.69,73.33L450.09,71.59L452.18,69.85L452.32,68.11L452.73,64.64L453.57,62.9L455.56,61.17L455.96,59.43L458.79,57.69L465.43,55.95L474.93,54.22L475.68,52.48L477.27,49.01L477.31,47.27L484.09,42.06L495.08,40.32L498.53,38.58L498.54,36.85L498.78,29.9L499.35,28.16L499.4,24.69L516.81,22.95L520.23,21.21L535.64,19.47L535.96,17.74L540,16" style="vector-effect: none; fill: none; stroke: rgb(99, 110, 250); stroke-opacity: 1; stroke-width: 2px; opacity: 1;"/></g><g class="points"/><g class="text"/></g></g></g></g><g class="zerolinelayer-above"/><path class="xlines-above crisp" d="M0,0" style="fill: none;"/><path class="ylines-above crisp" d="M0,0" style="fill: none;"/><g class="overlines-above"/><g class="xaxislayer-above"><g class="xtick"><text text-anchor="middle" x="0" y="439" transform="translate(94.46000000000001,0)" style="font-family: 'Open Sans'; font-size: 18px; fill: rgb(0, 0, 0); fill-opacity: 1; white-space: pre;">2016</text></g><g class="xtick"><text text-anchor="middle" x="0" y="439" style="font-family: 'Open Sans'; font-size: 18px; fill: rgb(0, 0, 0); fill-opacity: 1; white-space: pre;" transform="translate(202.74,0)">2018</text></g><g class="xtick"><text text-anchor="middle" x="0" y="439" style="font-family: 'Open Sans'; font-size: 18px; fill: rgb(0, 0, 0); fill-opacity: 1; white-space: pre;" transform="translate(310.87,0)">2020</text></g><g class="xtick"><text text-anchor="middle" x="0" y="439" style="font-family: 'Open Sans'; font-size: 18px; fill: rgb(0, 0, 0); fill-opacity: 1; white-space: pre;" transform="translate(419.15,0)">2022</text></g><g class="xtick"><text text-anchor="middle" x="0" y="439" style="font-family: 'Open Sans'; font-size: 18px; fill: rgb(0, 0, 0); fill-opacity: 1; white-space: pre;" transform="translate(527.28,0)">2024</text></g></g><g class="yaxislayer-above"><g class="ytick"><text text-anchor="end" x="79" y="6.3" transform="translate(0,420)" style="font-family: 'Open Sans'; font-size: 18px; fill: rgb(0, 0, 0); fill-opacity: 1; white-space: pre;">0</text></g><g class="ytick"><text text-anchor="end" x="79" y="6.3" style="font-family: 'Open Sans'; font-size: 18px; fill: rgb(0, 0, 0); fill-opacity: 1; white-space: pre;" transform="translate(0,333.14)">50</text></g><g class="ytick"><text text-anchor="end" x="79" y="6.3" style="font-family: 'Open Sans'; font-size: 18px; fill: rgb(0, 0, 0); fill-opacity: 1; white-space: pre;" transform="translate(0,246.29)">100</text></g><g class="ytick"><text text-anchor="end" x="79" y="6.3" style="font-family: 'Open Sans'; font-size: 18px; fill: rgb(0, 0, 0); fill-opacity: 1; white-space: pre;" transform="translate(0,159.43)">150</text></g></g><g class="overaxes-above"/></g></g><g class="polarlayer"/><g class="smithlayer"/><g class="ternarylayer"/><g class="geolayer"/><g class="funnelarealayer"/><g class="pielayer"/><g class="iciclelayer"/><g class="treemaplayer"/><g class="sunburstlayer"/><g class="glimages"/><defs id="topdefs-d4e72d"><g class="clips"/></defs><g class="layer-above"><g class="imagelayer"/><g class="shapelayer"/></g><g class="infolayer"><g class="g-gtitle"><text class="gtitle" x="35" y="50" text-anchor="start" dy="0em" style="opacity: 1; font-family: 'Open Sans'; font-size: 25px; fill: rgb(0, 0, 0); fill-opacity: 1; white-space: pre;">MultiQC modules over time</text></g><g class="g-xtitle"><text class="xtitle" x="350" y="472.9" text-anchor="middle" style="opacity: 1; font-family: 'Open Sans'; font-size: 22px; fill: rgb(0, 0, 0); fill-opacity: 1; white-space: pre;">Date</text></g><g class="g-ytitle"><text class="ytitle" transform="rotate(-90,29.799999999999997,260)" x="29.799999999999997" y="260" text-anchor="middle" style="opacity: 1; font-family: 'Open Sans'; font-size: 22px; fill: rgb(0, 0, 0); fill-opacity: 1; white-space: pre;">Number of modules</text></g></g></svg>