<svg class="main-svg" xmlns="http://www.w3.org/2000/svg" xmlns:xlink="http://www.w3.org/1999/xlink" width="700" height="500" style="" viewBox="0 0 700 500"><rect x="0" y="0" width="700" height="500" style="fill: rgb(0, 0, 0); fill-opacity: 0;"/><defs id="defs-0a6f0c"><g class="clips"><clipPath id="clip0a6f0cxyplot" class="plotclip"><rect width="540" height="320"/></clipPath><clipPath class="axesclip" id="clip0a6f0cx"><rect x="80" y="0" width="540" height="500"/></clipPath><clipPath class="axesclip" id="clip0a6f0cy"><rect x="0" y="100" width="700" height="320"/></clipPath><clipPath class="axesclip" id="clip0a6f0cxy"><rect x="80" y="100" width="540" height="320"/></clipPath></g><g class="gradients"/><g class="patterns"/></defs><g class="bglayer"><rect class="bg" x="80" y="100" width="540" height="320" style="fill: rgb(0, 0, 0); fill-opacity: 0; stroke-width: 0;"/></g><g class="layer-below"><g class="imagelayer"/><g class="shapelayer"/></g><g class="cartesianlayer"><g class="subplot xy"><g class="layer-subplot"><g class="shapelayer"/><g class="imagelayer"/></g><g class="minor-gridlayer"><g class="x"/><g class="y"/></g><g class="gridlayer"><g class="x"><path class="xgrid crisp" transform="translate(94.14,0)" d="M0,100v320" style="stroke: rgb(255, 255, 255); stroke-opacity: 1; stroke-width: 1px;"/><path class="xgrid crisp" transform="translate(200.04000000000002,0)" d="M0,100v320" style="stroke: rgb(255, 255, 255); stroke-opacity: 1; stroke-width: 1px;"/><path class="xgrid crisp" transform="translate(305.8,0)" d="M0,100v320" style="stroke: rgb(255, 255, 255); stroke-opacity: 1; stroke-width: 1px;"/><path class="xgrid crisp" transform="translate(411.71,0)" d="M0,100v320" style="stroke: rgb(255, 255, 255); stroke-opacity: 1; stroke-width: 1px;"/><path class="xgrid crisp" transform="translate(517.47,0)" d="M0,100v320" style="stroke: rgb(255, 255, 255); stroke-opacity: 1; stroke-width: 1px;"/></g><g class="y"><path class="ygrid crisp" transform="translate(0,334.61)" d="M80,0h540" style="stroke: rgb(255, 255, 255); stroke-opacity: 1; stroke-width: 1px;"/><path class="ygrid crisp" transform="translate(0,249.21)" d="M80,0h540" style="stroke: rgb(255, 255, 255); stroke-opacity: 1; stroke-width: 1px;"/><path class="ygrid crisp" transform="translate(0,163.82)" d="M80,0h540" style="stroke: rgb(255, 255, 255); stroke-opacity: 1; stroke-width: 1px;"/></g></g><g class="zerolinelayer"><path class="yzl zl crisp" transform="translate(0,420)" d="M80,0h540" style="stroke: rgb(255, 255, 255); stroke-opacity: 1; stroke-width: 2px;"/></g><g class="layer-between"><g class="shapelayer"/><g class="imagelayer"/></g><path class="xlines-below"/><path class="ylines-below"/><g class="overlines-below"/><g class="xaxislayer-below"/><g class="yaxislayer-below"/><g class="overaxes-below"/><g class="overplot"><g class="xy" transform="translate(80,100)" clip-path="url(#clip0a6f0cxyplot)"><g class="scatterlayer mlayer"><g class="trace scatter trace7bb1f0" style="stroke-miterlimit: 2;"><g class="fills"><g><path class="js-fill" d="M540,320L0,320L0,318.29L0.22,311.46L0.22,309.75L0.31,299.51L2.51,297.8L20.95,294.38L21,292.67L23.95,290.97L24.93,289.26L25.7,287.55L28.19,285.84L31.33,284.13L31.34,282.43L31.45,280.72L34.23,279.01L41.34,277.3L43.08,275.6L43.35,273.89L58.81,272.18L61.32,268.76L64.79,267.06L65.36,263.64L73.28,261.93L75.49,260.22L76.15,258.52L77.95,255.1L82.03,253.39L92.9,251.69L94.07,249.98L94.22,238.02L95.95,236.31L96.38,232.9L96.38,231.19L100.88,229.48L101.46,227.78L102.18,226.07L104.77,224.36L104.9,222.65L106.36,220.94L108.42,219.24L115.34,217.53L121.13,215.82L129.69,214.11L129.82,212.4L133.58,210.7L134.48,208.99L136.37,207.28L144.45,205.57L146.21,203.87L146.4,202.16L150.97,200.45L153.03,197.03L161.48,195.33L162.6,193.62L171.03,191.91L184.2,188.49L184.17,186.79L192.27,185.08L192.55,183.37L207.92,181.66L214.3,179.96L221.96,176.54L233.02,174.83L240.05,173.12L241.42,171.42L242.02,166.29L243.29,164.58L244.3,161.17L247.32,159.46L247.97,154.34L250.34,152.63L252.42,149.21L253.62,147.51L259.21,145.8L262.21,144.09L262.54,140.67L264.75,138.97L271.37,137.26L271.65,135.55L272.23,133.84L276.42,132.13L278.55,130.43L286.6,128.72L288.23,127.01L295.72,125.3L296.63,123.6L302.38,121.89L303.23,120.18L310.36,118.47L319.91,115.06L329.01,113.35L351.9,111.64L354.56,109.93L360.63,108.22L360.79,106.52L361.67,104.81L363.68,103.1L363.85,101.39L364.83,99.69L369.17,97.98L369.75,96.27L414.96,94.56L419.28,92.85L419.76,89.44L421.82,87.73L422.95,84.31L425.8,82.61L428.9,80.9L429.02,79.19L431.02,77.48L440.22,75.78L442.26,74.07L442.39,72.36L442.79,68.94L443.62,67.24L445.56,65.53L445.96,63.82L448.72,62.11L455.22,60.4L464.51,58.7L465.24,56.99L466.8,53.57L466.83,51.87L473.47,46.74L484.22,45.03L487.6,43.33L487.6,41.62L487.84,34.79L488.39,33.08L488.45,29.66L505.47,27.96L508.82,26.25L523.89,24.54L524.2,22.83L528.15,21.12L538.54,19.42L538.95,17.71L540,16" style="fill: rgb(99, 110, 250); fill-opacity: 0.5; stroke-width: 0;"/></g></g><g class="errorbars"/><g class="lines"><path class="js-line" d="M0,318.29L0.22,311.46L0.22,309.75L0.31,299.51L2.51,297.8L20.95,294.38L21,292.67L23.95,290.97L24.93,289.26L25.7,287.55L28.19,285.84L31.33,284.13L31.34,282.43L31.45,280.72L34.23,279.01L41.34,277.3L43.08,275.6L43.35,273.89L58.81,272.18L61.32,268.76L64.79,267.06L65.36,263.64L73.28,261.93L75.49,260.22L76.15,258.52L77.95,255.1L82.03,253.39L92.9,251.69L94.07,249.98L94.22,238.02L95.95,236.31L96.38,232.9L96.38,231.19L100.88,229.48L101.46,227.78L102.18,226.07L104.77,224.36L104.9,222.65L106.36,220.94L108.42,219.24L115.34,217.53L121.13,215.82L129.69,214.11L129.82,212.4L133.58,210.7L134.48,208.99L136.37,207.28L144.45,205.57L146.21,203.87L146.4,202.16L150.97,200.45L153.03,197.03L161.48,195.33L162.6,193.62L171.03,191.91L184.2,188.49L184.17,186.79L192.27,185.08L192.55,183.37L207.92,181.66L214.3,179.96L221.96,176.54L233.02,174.83L240.05,173.12L241.42,171.42L242.02,166.29L243.29,164.58L244.3,161.17L247.32,159.46L247.97,154.34L250.34,152.63L252.42,149.21L253.62,147.51L259.21,145.8L262.21,144.09L262.54,140.67L264.75,138.97L271.37,137.26L271.65,135.55L272.23,133.84L276.42,132.13L278.55,130.43L286.6,128.72L288.23,127.01L295.72,125.3L296.63,123.6L302.38,121.89L303.23,120.18L310.36,118.47L319.91,115.06L329.01,113.35L351.9,111.64L354.56,109.93L360.63,108.22L360.79,106.52L361.67,104.81L363.68,103.1L363.85,101.39L364.83,99.69L369.17,97.98L369.75,96.27L414.96,94.56L419.28,92.85L419.76,89.44L421.82,87.73L422.95,84.31L425.8,82.61L428.9,80.9L429.02,79.19L431.02,77.48L440.22,75.78L442.26,74.07L442.39,72.36L442.79,68.94L443.62,67.24L445.56,65.53L445.96,63.82L448.72,62.11L455.22,60.4L464.51,58.7L465.24,56.99L466.8,53.57L466.83,51.87L473.47,46.74L484.22,45.03L487.6,43.33L487.6,41.62L487.84,34.79L488.39,33.08L488.45,29.66L505.47,27.96L508.82,26.25L523.89,24.54L524.2,22.83L528.15,21.12L538.54,19.42L538.95,17.71L540,16" style="vector-effect: none; fill: none; stroke: rgb(99, 110, 250); stroke-opacity: 1; stroke-width: 2px; opacity: 1;"/></g><g class="points"/><g class="text"/></g></g></g></g><g class="zerolinelayer-above"/><path class="xlines-above crisp" d="M0,0" style="fill: none;"/><path class="ylines-above crisp" d="M0,0" style="fill: none;"/><g class="overlines-above"/><g class="xaxislayer-above"><g class="xtick"><text text-anchor="middle" x="0" y="439" transform="translate(94.14,0)" style="font-family: 'Open Sans'; font-size: 18px; fill: rgb(0, 0, 0); fill-opacity: 1; white-space: pre;">2016</text></g><g class="xtick"><text text-anchor="middle" x="0" y="439" style="font-family: 'Open Sans'; font-size: 18px; fill: rgb(0, 0, 0); fill-opacity: 1; white-space: pre;" transform="translate(200.04000000000002,0)">2018</text></g><g class="xtick"><text text-anchor="middle" x="0" y="439" style="font-family: 'Open Sans'; font-size: 18px; fill: rgb(0, 0, 0); fill-opacity: 1; white-space: pre;" transform="translate(305.8,0)">2020</text></g><g class="xtick"><text text-anchor="middle" x="0" y="439" style="font-family: 'Open Sans'; font-size: 18px; fill: rgb(0, 0, 0); fill-opacity: 1; white-space: pre;" transform="translate(411.71,0)">2022</text></g><g class="xtick"><text text-anchor="middle" x="0" y="439" style="font-family: 'Open Sans'; font-size: 18px; fill: rgb(0, 0, 0); fill-opacity: 1; white-space: pre;" transform="translate(517.47,0)">2024</text></g></g><g class="yaxislayer-above"><g class="ytick"><text text-anchor="end" x="79" y="6.3" transform="translate(0,420)" style="font-family: 'Open Sans'; font-size: 18px; fill: rgb(0, 0, 0); fill-opacity: 1; white-space: pre;">0</text></g><g class="ytick"><text text-anchor="end" x="79" y="6.3" style="font-family: 'Open Sans'; font-size: 18px; fill: rgb(0, 0, 0); fill-opacity: 1; white-space: pre;" transform="translate(0,334.61)">50</text></g><g class="ytick"><text text-anchor="end" x="79" y="6.3" style="font-family: 'Open Sans'; font-size: 18px; fill: rgb(0, 0, 0); fill-opacity: 1; white-space: pre;" transform="translate(0,249.21)">100</text></g><g class="ytick"><text text-anchor="end" x="79" y="6.3" style="font-family: 'Open Sans'; font-size: 18px; fill: rgb(0, 0, 0); fill-opacity: 1; white-space: pre;" transform="translate(0,163.82)">150</text></g></g><g class="overaxes-above"/></g></g><g class="polarlayer"/><g class="smithlayer"/><g class="ternarylayer"/><g class="geolayer"/><g class="funnelarealayer"/><g class="pielayer"/><g class="iciclelayer"/><g class="treemaplayer"/><g class="sunburstlayer"/><g class="glimages"/><defs id="topdefs-0a6f0c"><g class="clips"/></defs><g class="layer-above"><g class="imagelayer"/><g class="shapelayer"/></g><g class="infolayer"><g class="g-gtitle"><text class="gtitle" x="35" y="50" text-anchor="start" dy="0em" style="opacity: 1; font-family: 'Open Sans'; font-size: 25px; fill: rgb(0, 0, 0); fill-opacity: 1; white-space: pre;">MultiQC modules over time</text></g><g class="g-xtitle"><text class="xtitle" x="350" y="472.9" text-anchor="middle" style="opacity: 1; font-family: 'Open Sans'; font-size: 22px; fill: rgb(0, 0, 0); fill-opacity: 1; white-space: pre;">Date</text></g><g class="g-ytitle"><text class="ytitle" transform="rotate(-90,29.799999999999997,260)" x="29.799999999999997" y="260" text-anchor="middle" style="opacity: 1; font-family: 'Open Sans'; font-size: 22px; fill: rgb(0, 0, 0); fill-opacity: 1; white-space: pre;">Number of modules</text></g></g></svg>