<svg class="main-svg" xmlns="http://www.w3.org/2000/svg" xmlns:xlink="http://www.w3.org/1999/xlink" width="700" height="500" style="" viewBox="0 0 700 500"><rect x="0" y="0" width="700" height="500" style="fill: rgb(0, 0, 0); fill-opacity: 0;"/><defs id="defs-3feeb4"><g class="clips"><clipPath id="clip3feeb4xyplot" class="plotclip"><rect width="540" height="320"/></clipPath><clipPath class="axesclip" id="clip3feeb4x"><rect x="80" y="0" width="540" height="500"/></clipPath><clipPath class="axesclip" id="clip3feeb4y"><rect x="0" y="100" width="700" height="320"/></clipPath><clipPath class="axesclip" id="clip3feeb4xy"><rect x="80" y="100" width="540" height="320"/></clipPath></g><g class="gradients"/><g class="patterns"/></defs><g class="bglayer"><rect class="bg" x="80" y="100" width="540" height="320" style="fill: rgb(0, 0, 0); fill-opacity: 0; stroke-width: 0;"/></g><g class="layer-below"><g class="imagelayer"/><g class="shapelayer"/></g><g class="cartesianlayer"><g class="subplot xy"><g class="layer-subplot"><g class="shapelayer"/><g class="imagelayer"/></g><g class="minor-gridlayer"><g class="x"/><g class="y"/></g><g class="gridlayer"><g class="x"><path class="xgrid crisp" transform="translate(93.57,0)" d="M0,100v320" style="stroke: rgb(255, 255, 255); stroke-opacity: 1; stroke-width: 1px;"/><path class="xgrid crisp" transform="translate(195.23000000000002,0)" d="M0,100v320" style="stroke: rgb(255, 255, 255); stroke-opacity: 1; stroke-width: 1px;"/><path class="xgrid crisp" transform="translate(296.74,0)" d="M0,100v320" style="stroke: rgb(255, 255, 255); stroke-opacity: 1; stroke-width: 1px;"/><path class="xgrid crisp" transform="translate(398.4,0)" d="M0,100v320" style="stroke: rgb(255, 255, 255); stroke-opacity: 1; stroke-width: 1px;"/><path class="xgrid crisp" transform="translate(499.91,0)" d="M0,100v320" style="stroke: rgb(255, 255, 255); stroke-opacity: 1; stroke-width: 1px;"/><path class="xgrid crisp" transform="translate(601.57,0)" d="M0,100v320" style="stroke: rgb(255, 255, 255); stroke-opacity: 1; stroke-width: 1px;"/></g><g class="y"><path class="ygrid crisp" transform="translate(0,339.58000000000004)" d="M80,0h540" style="stroke: rgb(255, 255, 255); stroke-opacity: 1; stroke-width: 1px;"/><path class="ygrid crisp" transform="translate(0,259.15)" d="M80,0h540" style="stroke: rgb(255, 255, 255); stroke-opacity: 1; stroke-width: 1px;"/><path class="ygrid crisp" transform="translate(0,178.73000000000002)" d="M80,0h540" style="stroke: rgb(255, 255, 255); stroke-opacity: 1; stroke-width: 1px;"/></g></g><g class="zerolinelayer"><path class="yzl zl crisp" transform="translate(0,420)" d="M80,0h540" style="stroke: rgb(255, 255, 255); stroke-opacity: 1; stroke-width: 2px;"/></g><g class="layer-between"><g class="shapelayer"/><g class="imagelayer"/></g><path class="xlines-below"/><path class="ylines-below"/><g class="overlines-below"/><g class="xaxislayer-below"/><g class="yaxislayer-below"/><g class="overaxes-below"/><g class="overplot"><g class="xy" transform="translate(80,100)" clip-path="url(#clip3feeb4xyplot)"><g class="scatterlayer mlayer"><g class="trace scatter trace2e2c3e" style="stroke-miterlimit: 2;"><g class="fills"><g><path class="js-fill" d="M540,320L0,320L0,318.39L0.21,311.96L0.21,310.35L0.29,300.7L2.41,299.09L20.11,295.87L20.16,294.26L22.99,292.66L23.93,291.05L24.67,289.44L27.06,287.83L30.08,286.22L30.08,284.61L30.19,283.01L32.86,281.4L39.68,279.79L41.35,278.18L41.61,276.57L56.45,274.96L58.86,271.75L62.19,270.14L62.74,266.92L70.34,265.31L72.46,263.7L73.1,262.1L74.83,258.88L78.73,257.27L89.17,255.66L90.3,254.05L90.44,242.79L92.1,241.19L92.52,236.36L96.83,234.75L98.08,231.53L100.57,229.93L100.69,228.32L102.09,226.71L104.07,225.1L110.71,223.49L124.49,220.28L124.61,218.67L128.22,217.06L129.08,215.45L130.9,213.84L138.65,212.23L140.34,210.62L140.53,209.02L144.91,207.41L146.05,205.8L146.89,204.19L155,202.58L156.07,200.97L164.17,199.37L176.81,196.15L176.78,194.54L184.55,192.93L184.83,191.32L199.58,189.71L205.7,188.11L213.05,184.89L223.67,183.28L230.42,181.67L231.73,180.06L232.31,175.24L233.53,173.63L234.49,170.41L237.4,168.8L238.02,163.98L240.3,162.37L242.29,159.15L243.44,157.54L251.69,154.33L251.87,152.72L252.01,151.11L254.13,149.5L260.48,147.89L260.75,146.29L261.31,144.68L265.33,143.07L267.37,141.46L275.1,139.85L276.67,138.24L283.86,136.63L284.73,135.03L290.25,133.42L291.06,131.81L297.91,130.2L307.07,126.98L315.81,125.38L337.78,123.77L340.34,122.16L346.16,120.55L346.32,118.94L347.16,117.33L349.09,115.72L349.25,114.12L350.19,112.51L354.36,110.9L354.92,109.29L398.31,107.68L402.46,106.07L402.92,102.86L404.9,101.25L405.98,98.03L408.71,96.42L411.69,94.81L411.8,93.21L413.72,91.6L422.56,89.99L424.51,88.38L424.64,86.77L425.03,83.56L425.82,81.95L427.68,80.34L428.06,78.73L430.72,77.12L436.96,75.51L445.88,73.9L446.58,72.3L448.07,69.08L448.1,67.47L454.47,62.65L464.79,61.04L468.03,59.43L468.03,57.82L468.8,49.78L468.85,48.17L468.85,46.56L485.19,44.95L488.4,43.34L502.87,41.74L503.17,40.13L506.96,38.52L516.93,36.91L517.33,35.3L518.33,33.69L520.36,32.08L536.92,30.48L538.77,28.87L539.73,27.26L539.77,25.65L540,16" style="fill: rgb(99, 110, 250); fill-opacity: 0.5; stroke-width: 0;"/></g></g><g class="errorbars"/><g class="lines"><path class="js-line" d="M0,318.39L0.21,311.96L0.21,310.35L0.29,300.7L2.41,299.09L20.11,295.87L20.16,294.26L22.99,292.66L23.93,291.05L24.67,289.44L27.06,287.83L30.08,286.22L30.08,284.61L30.19,283.01L32.86,281.4L39.68,279.79L41.35,278.18L41.61,276.57L56.45,274.96L58.86,271.75L62.19,270.14L62.74,266.92L70.34,265.31L72.46,263.7L73.1,262.1L74.83,258.88L78.73,257.27L89.17,255.66L90.3,254.05L90.44,242.79L92.1,241.19L92.52,236.36L96.83,234.75L98.08,231.53L100.57,229.93L100.69,228.32L102.09,226.71L104.07,225.1L110.71,223.49L124.49,220.28L124.61,218.67L128.22,217.06L129.08,215.45L130.9,213.84L138.65,212.23L140.34,210.62L140.53,209.02L144.91,207.41L146.05,205.8L146.89,204.19L155,202.58L156.07,200.97L164.17,199.37L176.81,196.15L176.78,194.54L184.55,192.93L184.83,191.32L199.58,189.71L205.7,188.11L213.05,184.89L223.67,183.28L230.42,181.67L231.73,180.06L232.31,175.24L233.53,173.63L234.49,170.41L237.4,168.8L238.02,163.98L240.3,162.37L242.29,159.15L243.44,157.54L251.69,154.33L251.87,152.72L252.01,151.11L254.13,149.5L260.48,147.89L260.75,146.29L261.31,144.68L265.33,143.07L267.37,141.46L275.1,139.85L276.67,138.24L283.86,136.63L284.73,135.03L290.25,133.42L291.06,131.81L297.91,130.2L307.07,126.98L315.81,125.38L337.78,123.77L340.34,122.16L346.16,120.55L346.32,118.94L347.16,117.33L349.09,115.72L349.25,114.12L350.19,112.51L354.36,110.9L354.92,109.29L398.31,107.68L402.46,106.07L402.92,102.86L404.9,101.25L405.98,98.03L408.71,96.42L411.69,94.81L411.8,93.21L413.72,91.6L422.56,89.99L424.51,88.38L424.64,86.77L425.03,83.56L425.82,81.95L427.68,80.34L428.06,78.73L430.72,77.12L436.96,75.51L445.88,73.9L446.58,72.3L448.07,69.08L448.1,67.47L454.47,62.65L464.79,61.04L468.03,59.43L468.03,57.82L468.8,49.78L468.85,48.17L468.85,46.56L485.19,44.95L488.4,43.34L502.87,41.74L503.17,40.13L506.96,38.52L516.93,36.91L517.33,35.3L518.33,33.69L520.36,32.08L536.92,30.48L538.77,28.87L539.73,27.26L539.77,25.65L540,16" style="vector-effect: none; fill: none; stroke: rgb(99, 110, 250); stroke-opacity: 1; stroke-width: 2px; opacity: 1;"/></g><g class="points"/><g class="text"/></g></g></g></g><g class="zerolinelayer-above"/><path class="xlines-above crisp" d="M0,0" style="fill: none;"/><path class="ylines-above crisp" d="M0,0" style="fill: none;"/><g class="overlines-above"/><g class="xaxislayer-above"><g class="xtick"><text text-anchor="middle" x="0" y="439" transform="translate(93.57,0)" style="font-family: 'Open Sans'; font-size: 18px; fill: rgb(255, 255, 255); fill-opacity: 1; white-space: pre;">2016</text></g><g class="xtick"><text text-anchor="middle" x="0" y="439" style="font-family: 'Open Sans'; font-size: 18px; fill: rgb(255, 255, 255); fill-opacity: 1; white-space: pre;" transform="translate(195.23000000000002,0)">2018</text></g><g class="xtick"><text text-anchor="middle" x="0" y="439" style="font-family: 'Open Sans'; font-size: 18px; fill: rgb(255, 255, 255); fill-opacity: 1; white-space: pre;" transform="translate(296.74,0)">2020</text></g><g class="xtick"><text text-anchor="middle" x="0" y="439" style="font-family: 'Open Sans'; font-size: 18px; fill: rgb(255, 255, 255); fill-opacity: 1; white-space: pre;" transform="translate(398.4,0)">2022</text></g><g class="xtick"><text text-anchor="middle" x="0" y="439" style="font-family: 'Open Sans'; font-size: 18px; fill: rgb(255, 255, 255); fill-opacity: 1; white-space: pre;" transform="translate(499.91,0)">2024</text></g><g class="xtick"><text text-anchor="middle" x="0" y="439" style="font-family: 'Open Sans'; font-size: 18px; fill: rgb(255, 255, 255); fill-opacity: 1; white-space: pre;" transform="translate(601.57,0)">2026</text></g></g><g class="yaxislayer-above"><g class="ytick"><text text-anchor="end" x="79" y="6.3" transform="translate(0,420)" style="font-family: 'Open Sans'; font-size: 18px; fill: rgb(255, 255, 255); fill-opacity: 1; white-space: pre;">0</text></g><g class="ytick"><text text-anchor="end" x="79" y="6.3" style="font-family: 'Open Sans'; font-size: 18px; fill: rgb(255, 255, 255); fill-opacity: 1; white-space: pre;" transform="translate(0,339.58000000000004)">50</text></g><g class="ytick"><text text-anchor="end" x="79" y="6.3" style="font-family: 'Open Sans'; font-size: 18px; fill: rgb(255, 255, 255); fill-opacity: 1; white-space: pre;" transform="translate(0,259.15)">100</text></g><g class="ytick"><text text-anchor="end" x="79" y="6.3" style="font-family: 'Open Sans'; font-size: 18px; fill: rgb(255, 255, 255); fill-opacity: 1; white-space: pre;" transform="translate(0,178.73000000000002)">150</text></g></g><g class="overaxes-above"/></g></g><g class="polarlayer"/><g class="smithlayer"/><g class="ternarylayer"/><g class="geolayer"/><g class="funnelarealayer"/><g class="pielayer"/><g class="iciclelayer"/><g class="treemaplayer"/><g class="sunburstlayer"/><g class="glimages"/><defs id="topdefs-3feeb4"><g class="clips"/></defs><g class="layer-above"><g class="imagelayer"/><g class="shapelayer"/></g><g class="infolayer"><g class="g-gtitle"><text class="gtitle" x="35" y="50" text-anchor="start" dy="0em" style="opacity: 1; font-family: 'Open Sans'; font-size: 25px; fill: rgb(255, 255, 255); fill-opacity: 1; white-space: pre;">MultiQC modules over time</text></g><g class="g-xtitle"><text class="xtitle" x="350" y="472.9" text-anchor="middle" style="opacity: 1; font-family: 'Open Sans'; font-size: 22px; fill: rgb(255, 255, 255); fill-opacity: 1; white-space: pre;">Date</text></g><g class="g-ytitle"><text class="ytitle" transform="rotate(-90,29.799999999999997,260)" x="29.799999999999997" y="260" text-anchor="middle" style="opacity: 1; font-family: 'Open Sans'; font-size: 22px; fill: rgb(255, 255, 255); fill-opacity: 1; white-space: pre;">Number of modules</text></g></g></svg>