<svg class="main-svg" xmlns="http://www.w3.org/2000/svg" xmlns:xlink="http://www.w3.org/1999/xlink" width="700" height="500" style="" viewBox="0 0 700 500"><rect x="0" y="0" width="700" height="500" style="fill: rgb(0, 0, 0); fill-opacity: 0;"/><defs id="defs-5caaae"><g class="clips"><clipPath id="clip5caaaexyplot" class="plotclip"><rect width="540" height="320"/></clipPath><clipPath class="axesclip" id="clip5caaaex"><rect x="80" y="0" width="540" height="500"/></clipPath><clipPath class="axesclip" id="clip5caaaey"><rect x="0" y="100" width="700" height="320"/></clipPath><clipPath class="axesclip" id="clip5caaaexy"><rect x="80" y="100" width="540" height="320"/></clipPath></g><g class="gradients"/><g class="patterns"/></defs><g class="bglayer"><rect class="bg" x="80" y="100" width="540" height="320" style="fill: rgb(0, 0, 0); fill-opacity: 0; stroke-width: 0;"/></g><g class="layer-below"><g class="imagelayer"/><g class="shapelayer"/></g><g class="cartesianlayer"><g class="subplot xy"><g class="layer-subplot"><g class="shapelayer"/><g class="imagelayer"/></g><g class="minor-gridlayer"><g class="x"/><g class="y"/></g><g class="gridlayer"><g class="x"><path class="xgrid crisp" transform="translate(94.17,0)" d="M0,100v320" style="stroke: rgb(255, 255, 255); stroke-opacity: 1; stroke-width: 1px;"/><path class="xgrid crisp" transform="translate(200.28,0)" d="M0,100v320" style="stroke: rgb(255, 255, 255); stroke-opacity: 1; stroke-width: 1px;"/><path class="xgrid crisp" transform="translate(306.24,0)" d="M0,100v320" style="stroke: rgb(255, 255, 255); stroke-opacity: 1; stroke-width: 1px;"/><path class="xgrid crisp" transform="translate(412.35,0)" d="M0,100v320" style="stroke: rgb(255, 255, 255); stroke-opacity: 1; stroke-width: 1px;"/><path class="xgrid crisp" transform="translate(518.3199999999999,0)" d="M0,100v320" style="stroke: rgb(255, 255, 255); stroke-opacity: 1; stroke-width: 1px;"/></g><g class="y"><path class="ygrid crisp" transform="translate(0,334.12)" d="M80,0h540" style="stroke: rgb(255, 255, 255); stroke-opacity: 1; stroke-width: 1px;"/><path class="ygrid crisp" transform="translate(0,248.25)" d="M80,0h540" style="stroke: rgb(255, 255, 255); stroke-opacity: 1; stroke-width: 1px;"/><path class="ygrid crisp" transform="translate(0,162.37)" d="M80,0h540" style="stroke: rgb(255, 255, 255); stroke-opacity: 1; stroke-width: 1px;"/></g></g><g class="zerolinelayer"><path class="yzl zl crisp" transform="translate(0,420)" d="M80,0h540" style="stroke: rgb(255, 255, 255); stroke-opacity: 1; stroke-width: 2px;"/></g><g class="layer-between"><g class="shapelayer"/><g class="imagelayer"/></g><path class="xlines-below"/><path class="ylines-below"/><g class="overlines-below"/><g class="xaxislayer-below"/><g class="yaxislayer-below"/><g class="overaxes-below"/><g class="overplot"><g class="xy" transform="translate(80,100)" clip-path="url(#clip5caaaexyplot)"><g class="scatterlayer mlayer"><g class="trace scatter trace3b465a" style="stroke-miterlimit: 2;"><g class="fills"><g><path class="js-fill" d="M540,320L0,320L0,318.28L0.22,311.41L0.22,309.69L0.31,299.39L2.52,297.67L20.99,294.24L21.04,292.52L24,290.8L24.98,289.08L25.75,287.37L28.25,285.65L31.39,283.93L31.4,282.21L31.51,280.5L34.3,278.78L41.42,277.06L43.16,275.34L43.43,273.63L58.93,271.91L61.44,268.47L64.92,266.76L65.49,263.32L73.42,261.6L75.63,259.89L76.3,258.17L78.11,254.73L82.18,253.02L93.08,251.3L94.25,249.58L94.4,237.56L96.14,235.84L96.57,230.69L101.08,228.97L102.38,225.54L104.97,223.82L105.1,222.1L106.57,220.38L108.63,218.67L115.56,216.95L121.37,215.23L129.94,213.51L130.07,211.8L133.84,210.08L134.74,208.36L136.64,206.64L144.73,204.93L146.49,203.21L146.68,201.49L151.26,199.77L153.33,196.34L161.79,194.62L162.91,192.9L171.37,191.19L184.56,187.75L184.53,186.03L192.64,184.32L192.93,182.6L208.32,180.88L214.72,179.16L222.39,175.73L233.47,174.01L240.52,172.29L241.89,170.58L242.49,165.42L243.76,163.71L244.77,160.27L247.8,158.55L248.45,153.4L250.83,151.68L252.91,148.25L254.11,146.53L259.72,144.81L262.72,143.1L263.05,139.66L265.27,137.94L271.9,136.23L272.18,134.51L272.76,132.79L276.96,131.07L279.09,129.36L287.15,127.64L288.79,125.92L296.3,124.2L297.21,122.49L302.97,120.77L303.82,119.05L310.96,117.33L320.53,113.9L329.65,112.18L352.58,110.46L355.25,108.75L361.34,107.03L361.49,105.31L362.38,103.59L364.39,101.88L364.56,100.16L365.54,98.44L369.89,96.72L370.47,95.01L415.77,93.29L420.1,91.57L420.58,88.14L422.64,86.42L423.77,82.98L426.62,81.27L429.74,79.55L429.85,77.83L431.86,76.11L441.08,74.4L443.12,72.68L443.26,70.96L443.65,67.53L444.49,65.81L446.43,64.09L446.82,62.37L449.59,60.66L456.11,58.94L465.42,57.22L466.15,55.5L467.71,52.07L467.74,50.35L474.39,45.2L485.16,43.48L488.54,41.76L488.55,40.05L488.79,33.18L489.34,31.46L489.4,28.02L506.45,26.31L509.81,24.59L524.91,22.87L525.22,21.15L529.18,19.44L539.59,17.72L540,16" style="fill: rgb(99, 110, 250); fill-opacity: 0.5; stroke-width: 0;"/></g></g><g class="errorbars"/><g class="lines"><path class="js-line" d="M0,318.28L0.22,311.41L0.22,309.69L0.31,299.39L2.52,297.67L20.99,294.24L21.04,292.52L24,290.8L24.98,289.08L25.75,287.37L28.25,285.65L31.39,283.93L31.4,282.21L31.51,280.5L34.3,278.78L41.42,277.06L43.16,275.34L43.43,273.63L58.93,271.91L61.44,268.47L64.92,266.76L65.49,263.32L73.42,261.6L75.63,259.89L76.3,258.17L78.11,254.73L82.18,253.02L93.08,251.3L94.25,249.58L94.4,237.56L96.14,235.84L96.57,230.69L101.08,228.97L102.38,225.54L104.97,223.82L105.1,222.1L106.57,220.38L108.63,218.67L115.56,216.95L121.37,215.23L129.94,213.51L130.07,211.8L133.84,210.08L134.74,208.36L136.64,206.64L144.73,204.93L146.49,203.21L146.68,201.49L151.26,199.77L153.33,196.34L161.79,194.62L162.91,192.9L171.37,191.19L184.56,187.75L184.53,186.03L192.64,184.32L192.93,182.6L208.32,180.88L214.72,179.16L222.39,175.73L233.47,174.01L240.52,172.29L241.89,170.58L242.49,165.42L243.76,163.71L244.77,160.27L247.8,158.55L248.45,153.4L250.83,151.68L252.91,148.25L254.11,146.53L259.72,144.81L262.72,143.1L263.05,139.66L265.27,137.94L271.9,136.23L272.18,134.51L272.76,132.79L276.96,131.07L279.09,129.36L287.15,127.64L288.79,125.92L296.3,124.2L297.21,122.49L302.97,120.77L303.82,119.05L310.96,117.33L320.53,113.9L329.65,112.18L352.58,110.46L355.25,108.75L361.34,107.03L361.49,105.31L362.38,103.59L364.39,101.88L364.56,100.16L365.54,98.44L369.89,96.72L370.47,95.01L415.77,93.29L420.1,91.57L420.58,88.14L422.64,86.42L423.77,82.98L426.62,81.27L429.74,79.55L429.85,77.83L431.86,76.11L441.08,74.4L443.12,72.68L443.26,70.96L443.65,67.53L444.49,65.81L446.43,64.09L446.82,62.37L449.59,60.66L456.11,58.94L465.42,57.22L466.15,55.5L467.71,52.07L467.74,50.35L474.39,45.2L485.16,43.48L488.54,41.76L488.55,40.05L488.79,33.18L489.34,31.46L489.4,28.02L506.45,26.31L509.81,24.59L524.91,22.87L525.22,21.15L529.18,19.44L539.59,17.72L540,16" style="vector-effect: none; fill: none; stroke: rgb(99, 110, 250); stroke-opacity: 1; stroke-width: 2px; opacity: 1;"/></g><g class="points"/><g class="text"/></g></g></g></g><g class="zerolinelayer-above"/><path class="xlines-above crisp" d="M0,0" style="fill: none;"/><path class="ylines-above crisp" d="M0,0" style="fill: none;"/><g class="overlines-above"/><g class="xaxislayer-above"><g class="xtick"><text text-anchor="middle" x="0" y="439" transform="translate(94.17,0)" style="font-family: 'Open Sans'; font-size: 18px; fill: rgb(255, 255, 255); fill-opacity: 1; white-space: pre;">2016</text></g><g class="xtick"><text text-anchor="middle" x="0" y="439" style="font-family: 'Open Sans'; font-size: 18px; fill: rgb(255, 255, 255); fill-opacity: 1; white-space: pre;" transform="translate(200.28,0)">2018</text></g><g class="xtick"><text text-anchor="middle" x="0" y="439" style="font-family: 'Open Sans'; font-size: 18px; fill: rgb(255, 255, 255); fill-opacity: 1; white-space: pre;" transform="translate(306.24,0)">2020</text></g><g class="xtick"><text text-anchor="middle" x="0" y="439" style="font-family: 'Open Sans'; font-size: 18px; fill: rgb(255, 255, 255); fill-opacity: 1; white-space: pre;" transform="translate(412.35,0)">2022</text></g><g class="xtick"><text text-anchor="middle" x="0" y="439" style="font-family: 'Open Sans'; font-size: 18px; fill: rgb(255, 255, 255); fill-opacity: 1; white-space: pre;" transform="translate(518.3199999999999,0)">2024</text></g></g><g class="yaxislayer-above"><g class="ytick"><text text-anchor="end" x="79" y="6.3" transform="translate(0,420)" style="font-family: 'Open Sans'; font-size: 18px; fill: rgb(255, 255, 255); fill-opacity: 1; white-space: pre;">0</text></g><g class="ytick"><text text-anchor="end" x="79" y="6.3" style="font-family: 'Open Sans'; font-size: 18px; fill: rgb(255, 255, 255); fill-opacity: 1; white-space: pre;" transform="translate(0,334.12)">50</text></g><g class="ytick"><text text-anchor="end" x="79" y="6.3" style="font-family: 'Open Sans'; font-size: 18px; fill: rgb(255, 255, 255); fill-opacity: 1; white-space: pre;" transform="translate(0,248.25)">100</text></g><g class="ytick"><text text-anchor="end" x="79" y="6.3" style="font-family: 'Open Sans'; font-size: 18px; fill: rgb(255, 255, 255); fill-opacity: 1; white-space: pre;" transform="translate(0,162.37)">150</text></g></g><g class="overaxes-above"/></g></g><g class="polarlayer"/><g class="smithlayer"/><g class="ternarylayer"/><g class="geolayer"/><g class="funnelarealayer"/><g class="pielayer"/><g class="iciclelayer"/><g class="treemaplayer"/><g class="sunburstlayer"/><g class="glimages"/><defs id="topdefs-5caaae"><g class="clips"/></defs><g class="layer-above"><g class="imagelayer"/><g class="shapelayer"/></g><g class="infolayer"><g class="g-gtitle"><text class="gtitle" x="35" y="50" text-anchor="start" dy="0em" style="opacity: 1; font-family: 'Open Sans'; font-size: 25px; fill: rgb(255, 255, 255); fill-opacity: 1; white-space: pre;">MultiQC modules over time</text></g><g class="g-xtitle"><text class="xtitle" x="350" y="472.9" text-anchor="middle" style="opacity: 1; font-family: 'Open Sans'; font-size: 22px; fill: rgb(255, 255, 255); fill-opacity: 1; white-space: pre;">Date</text></g><g class="g-ytitle"><text class="ytitle" transform="rotate(-90,29.799999999999997,260)" x="29.799999999999997" y="260" text-anchor="middle" style="opacity: 1; font-family: 'Open Sans'; font-size: 22px; fill: rgb(255, 255, 255); fill-opacity: 1; white-space: pre;">Number of modules</text></g></g></svg>