<svg class="main-svg" xmlns="http://www.w3.org/2000/svg" xmlns:xlink="http://www.w3.org/1999/xlink" width="700" height="500" style="" viewBox="0 0 700 500"><rect x="0" y="0" width="700" height="500" style="fill: rgb(0, 0, 0); fill-opacity: 0;"/><defs id="defs-fef26c"><g class="clips"><clipPath id="clipfef26cxyplot" class="plotclip"><rect width="540" height="320"/></clipPath><clipPath class="axesclip" id="clipfef26cx"><rect x="80" y="0" width="540" height="500"/></clipPath><clipPath class="axesclip" id="clipfef26cy"><rect x="0" y="100" width="700" height="320"/></clipPath><clipPath class="axesclip" id="clipfef26cxy"><rect x="80" y="100" width="540" height="320"/></clipPath></g><g class="gradients"/><g class="patterns"/></defs><g class="bglayer"><rect class="bg" x="80" y="100" width="540" height="320" style="fill: rgb(0, 0, 0); fill-opacity: 0; stroke-width: 0;"/></g><g class="layer-below"><g class="imagelayer"/><g class="shapelayer"/></g><g class="cartesianlayer"><g class="subplot xy"><g class="layer-subplot"><g class="shapelayer"/><g class="imagelayer"/></g><g class="minor-gridlayer"><g class="x"/><g class="y"/></g><g class="gridlayer"><g class="x"><path class="xgrid crisp" transform="translate(93.6,0)" d="M0,100v320" style="stroke: rgb(255, 255, 255); stroke-opacity: 1; stroke-width: 1px;"/><path class="xgrid crisp" transform="translate(195.49,0)" d="M0,100v320" style="stroke: rgb(255, 255, 255); stroke-opacity: 1; stroke-width: 1px;"/><path class="xgrid crisp" transform="translate(297.24,0)" d="M0,100v320" style="stroke: rgb(255, 255, 255); stroke-opacity: 1; stroke-width: 1px;"/><path class="xgrid crisp" transform="translate(399.13,0)" d="M0,100v320" style="stroke: rgb(255, 255, 255); stroke-opacity: 1; stroke-width: 1px;"/><path class="xgrid crisp" transform="translate(500.88,0)" d="M0,100v320" style="stroke: rgb(255, 255, 255); stroke-opacity: 1; stroke-width: 1px;"/><path class="xgrid crisp" transform="translate(602.76,0)" d="M0,100v320" style="stroke: rgb(255, 255, 255); stroke-opacity: 1; stroke-width: 1px;"/></g><g class="y"><path class="ygrid crisp" transform="translate(0,336.02)" d="M80,0h540" style="stroke: rgb(255, 255, 255); stroke-opacity: 1; stroke-width: 1px;"/><path class="ygrid crisp" transform="translate(0,252.04)" d="M80,0h540" style="stroke: rgb(255, 255, 255); stroke-opacity: 1; stroke-width: 1px;"/><path class="ygrid crisp" transform="translate(0,168.07)" d="M80,0h540" style="stroke: rgb(255, 255, 255); stroke-opacity: 1; stroke-width: 1px;"/></g></g><g class="zerolinelayer"><path class="yzl zl crisp" transform="translate(0,420)" d="M80,0h540" style="stroke: rgb(255, 255, 255); stroke-opacity: 1; stroke-width: 2px;"/></g><g class="layer-between"><g class="shapelayer"/><g class="imagelayer"/></g><path class="xlines-below"/><path class="ylines-below"/><g class="overlines-below"/><g class="xaxislayer-below"/><g class="yaxislayer-below"/><g class="overaxes-below"/><g class="overplot"><g class="xy" transform="translate(80,100)" clip-path="url(#clipfef26cxyplot)"><g class="scatterlayer mlayer"><g class="trace scatter traceb822fe" style="stroke-miterlimit: 2;"><g class="fills"><g><path class="js-fill" d="M540,320L0,320L0,318.32L0.21,311.6L0.21,309.92L0.3,299.85L2.42,298.17L20.15,294.81L20.21,293.13L23.05,291.45L23.99,289.77L24.72,288.09L27.12,286.41L30.14,284.73L30.15,283.05L30.25,281.37L32.94,279.69L39.77,278.01L41.44,276.33L41.7,274.65L56.58,272.97L58.99,269.61L62.33,267.93L62.88,264.57L70.5,262.9L72.62,261.22L73.26,259.54L75,256.18L78.91,254.5L89.37,252.82L90.5,251.14L90.64,239.38L92.31,237.7L92.73,232.66L97.05,230.98L98.3,227.62L100.8,225.94L100.92,224.27L102.33,222.59L104.31,220.91L110.97,219.23L116.54,217.55L124.77,215.87L124.9,214.19L128.51,212.51L129.38,210.83L131.2,209.15L138.97,207.47L140.66,205.79L140.85,204.11L145.24,202.43L147.22,199.07L155.35,197.39L156.43,195.71L164.55,194.03L177.22,190.67L177.19,188.99L184.97,187.31L185.25,185.64L200.03,183.96L206.17,182.28L213.54,178.92L224.18,177.24L230.95,175.56L232.26,173.88L232.84,168.84L234.06,167.16L235.03,163.8L237.94,162.12L238.56,157.08L240.85,155.4L242.84,152.04L244,150.36L252.27,147.01L252.45,145.33L252.58,143.65L254.71,141.97L261.08,140.29L261.35,138.61L261.91,136.93L265.94,135.25L267.98,133.57L275.73,131.89L277.3,130.21L284.51,128.53L285.38,126.85L290.91,125.17L291.73,123.49L298.59,121.81L307.77,118.45L316.54,116.77L338.55,115.09L341.12,113.41L346.96,111.73L347.11,110.06L347.96,108.38L349.89,106.7L350.05,105.02L350.99,103.34L355.17,101.66L355.73,99.98L399.22,98.3L403.38,96.62L403.84,93.26L405.82,91.58L406.91,88.22L409.65,86.54L412.64,84.86L412.75,83.18L414.67,81.5L423.52,79.82L425.48,78.14L425.62,76.46L426,73.1L426.8,71.43L428.66,69.75L429.04,68.07L431.7,66.39L437.96,64.71L446.9,63.03L447.6,61.35L449.1,57.99L449.13,56.31L455.51,51.27L465.85,49.59L469.1,47.91L469.11,46.23L469.34,39.51L469.87,37.83L469.92,34.48L486.3,32.8L489.52,31.12L504.02,29.44L504.32,27.76L508.12,26.08L518.12,24.4L518.51,22.72L519.52,21.04L521.55,19.36L538.15,17.68L540,16" style="fill: rgb(99, 110, 250); fill-opacity: 0.5; stroke-width: 0;"/></g></g><g class="errorbars"/><g class="lines"><path class="js-line" d="M0,318.32L0.21,311.6L0.21,309.92L0.3,299.85L2.42,298.17L20.15,294.81L20.21,293.13L23.05,291.45L23.99,289.77L24.72,288.09L27.12,286.41L30.14,284.73L30.15,283.05L30.25,281.37L32.94,279.69L39.77,278.01L41.44,276.33L41.7,274.65L56.58,272.97L58.99,269.61L62.33,267.93L62.88,264.57L70.5,262.9L72.62,261.22L73.26,259.54L75,256.18L78.91,254.5L89.37,252.82L90.5,251.14L90.64,239.38L92.31,237.7L92.73,232.66L97.05,230.98L98.3,227.62L100.8,225.94L100.92,224.27L102.33,222.59L104.31,220.91L110.97,219.23L116.54,217.55L124.77,215.87L124.9,214.19L128.51,212.51L129.38,210.83L131.2,209.15L138.97,207.47L140.66,205.79L140.85,204.11L145.24,202.43L147.22,199.07L155.35,197.39L156.43,195.71L164.55,194.03L177.22,190.67L177.19,188.99L184.97,187.31L185.25,185.64L200.03,183.96L206.17,182.28L213.54,178.92L224.18,177.24L230.95,175.56L232.26,173.88L232.84,168.84L234.06,167.16L235.03,163.8L237.94,162.12L238.56,157.08L240.85,155.4L242.84,152.04L244,150.36L252.27,147.01L252.45,145.33L252.58,143.65L254.71,141.97L261.08,140.29L261.35,138.61L261.91,136.93L265.94,135.25L267.98,133.57L275.73,131.89L277.3,130.21L284.51,128.53L285.38,126.85L290.91,125.17L291.73,123.49L298.59,121.81L307.77,118.45L316.54,116.77L338.55,115.09L341.12,113.41L346.96,111.73L347.11,110.06L347.96,108.38L349.89,106.7L350.05,105.02L350.99,103.34L355.17,101.66L355.73,99.98L399.22,98.3L403.38,96.62L403.84,93.26L405.82,91.58L406.91,88.22L409.65,86.54L412.64,84.86L412.75,83.18L414.67,81.5L423.52,79.82L425.48,78.14L425.62,76.46L426,73.1L426.8,71.43L428.66,69.75L429.04,68.07L431.7,66.39L437.96,64.71L446.9,63.03L447.6,61.35L449.1,57.99L449.13,56.31L455.51,51.27L465.85,49.59L469.1,47.91L469.11,46.23L469.34,39.51L469.87,37.83L469.92,34.48L486.3,32.8L489.52,31.12L504.02,29.44L504.32,27.76L508.12,26.08L518.12,24.4L518.51,22.72L519.52,21.04L521.55,19.36L538.15,17.68L540,16" style="vector-effect: none; fill: none; stroke: rgb(99, 110, 250); stroke-opacity: 1; stroke-width: 2px; opacity: 1;"/></g><g class="points"/><g class="text"/></g></g></g></g><g class="zerolinelayer-above"/><path class="xlines-above crisp" d="M0,0" style="fill: none;"/><path class="ylines-above crisp" d="M0,0" style="fill: none;"/><g class="overlines-above"/><g class="xaxislayer-above"><g class="xtick"><text text-anchor="middle" x="0" y="439" transform="translate(93.6,0)" style="font-family: 'Open Sans'; font-size: 18px; fill: rgb(0, 0, 0); fill-opacity: 1; white-space: pre;">2016</text></g><g class="xtick"><text text-anchor="middle" x="0" y="439" style="font-family: 'Open Sans'; font-size: 18px; fill: rgb(0, 0, 0); fill-opacity: 1; white-space: pre;" transform="translate(195.49,0)">2018</text></g><g class="xtick"><text text-anchor="middle" x="0" y="439" style="font-family: 'Open Sans'; font-size: 18px; fill: rgb(0, 0, 0); fill-opacity: 1; white-space: pre;" transform="translate(297.24,0)">2020</text></g><g class="xtick"><text text-anchor="middle" x="0" y="439" style="font-family: 'Open Sans'; font-size: 18px; fill: rgb(0, 0, 0); fill-opacity: 1; white-space: pre;" transform="translate(399.13,0)">2022</text></g><g class="xtick"><text text-anchor="middle" x="0" y="439" style="font-family: 'Open Sans'; font-size: 18px; fill: rgb(0, 0, 0); fill-opacity: 1; white-space: pre;" transform="translate(500.88,0)">2024</text></g><g class="xtick"><text text-anchor="middle" x="0" y="439" style="font-family: 'Open Sans'; font-size: 18px; fill: rgb(0, 0, 0); fill-opacity: 1; white-space: pre;" transform="translate(602.76,0)">2026</text></g></g><g class="yaxislayer-above"><g class="ytick"><text text-anchor="end" x="79" y="6.3" transform="translate(0,420)" style="font-family: 'Open Sans'; font-size: 18px; fill: rgb(0, 0, 0); fill-opacity: 1; white-space: pre;">0</text></g><g class="ytick"><text text-anchor="end" x="79" y="6.3" style="font-family: 'Open Sans'; font-size: 18px; fill: rgb(0, 0, 0); fill-opacity: 1; white-space: pre;" transform="translate(0,336.02)">50</text></g><g class="ytick"><text text-anchor="end" x="79" y="6.3" style="font-family: 'Open Sans'; font-size: 18px; fill: rgb(0, 0, 0); fill-opacity: 1; white-space: pre;" transform="translate(0,252.04)">100</text></g><g class="ytick"><text text-anchor="end" x="79" y="6.3" style="font-family: 'Open Sans'; font-size: 18px; fill: rgb(0, 0, 0); fill-opacity: 1; white-space: pre;" transform="translate(0,168.07)">150</text></g></g><g class="overaxes-above"/></g></g><g class="polarlayer"/><g class="smithlayer"/><g class="ternarylayer"/><g class="geolayer"/><g class="funnelarealayer"/><g class="pielayer"/><g class="iciclelayer"/><g class="treemaplayer"/><g class="sunburstlayer"/><g class="glimages"/><defs id="topdefs-fef26c"><g class="clips"/></defs><g class="layer-above"><g class="imagelayer"/><g class="shapelayer"/></g><g class="infolayer"><g class="g-gtitle"><text class="gtitle" x="35" y="50" text-anchor="start" dy="0em" style="opacity: 1; font-family: 'Open Sans'; font-size: 25px; fill: rgb(0, 0, 0); fill-opacity: 1; white-space: pre;">MultiQC modules over time</text></g><g class="g-xtitle"><text class="xtitle" x="350" y="472.9" text-anchor="middle" style="opacity: 1; font-family: 'Open Sans'; font-size: 22px; fill: rgb(0, 0, 0); fill-opacity: 1; white-space: pre;">Date</text></g><g class="g-ytitle"><text class="ytitle" transform="rotate(-90,29.799999999999997,260)" x="29.799999999999997" y="260" text-anchor="middle" style="opacity: 1; font-family: 'Open Sans'; font-size: 22px; fill: rgb(0, 0, 0); fill-opacity: 1; white-space: pre;">Number of modules</text></g></g></svg>