<svg class="main-svg" xmlns="http://www.w3.org/2000/svg" xmlns:xlink="http://www.w3.org/1999/xlink" width="700" height="500" style="" viewBox="0 0 700 500"><rect x="0" y="0" width="700" height="500" style="fill: rgb(0, 0, 0); fill-opacity: 0;"/><defs id="defs-cbd85f"><g class="clips"><clipPath id="clipcbd85fxyplot" class="plotclip"><rect width="540" height="320"/></clipPath><clipPath class="axesclip" id="clipcbd85fx"><rect x="80" y="0" width="540" height="500"/></clipPath><clipPath class="axesclip" id="clipcbd85fy"><rect x="0" y="100" width="700" height="320"/></clipPath><clipPath class="axesclip" id="clipcbd85fxy"><rect x="80" y="100" width="540" height="320"/></clipPath></g><g class="gradients"/><g class="patterns"/></defs><g class="bglayer"><rect class="bg" x="80" y="100" width="540" height="320" style="fill: rgb(0, 0, 0); fill-opacity: 0; stroke-width: 0;"/></g><g class="layer-below"><g class="imagelayer"/><g class="shapelayer"/></g><g class="cartesianlayer"><g class="subplot xy"><g class="layer-subplot"><g class="shapelayer"/><g class="imagelayer"/></g><g class="minor-gridlayer"><g class="x"/><g class="y"/></g><g class="gridlayer"><g class="x"><path class="xgrid crisp" transform="translate(96.86,0)" d="M0,100v320" style="stroke: rgb(255, 255, 255); stroke-opacity: 1; stroke-width: 1px;"/><path class="xgrid crisp" transform="translate(200.07999999999998,0)" d="M0,100v320" style="stroke: rgb(255, 255, 255); stroke-opacity: 1; stroke-width: 1px;"/><path class="xgrid crisp" transform="translate(303.15999999999997,0)" d="M0,100v320" style="stroke: rgb(255, 255, 255); stroke-opacity: 1; stroke-width: 1px;"/><path class="xgrid crisp" transform="translate(406.38,0)" d="M0,100v320" style="stroke: rgb(255, 255, 255); stroke-opacity: 1; stroke-width: 1px;"/><path class="xgrid crisp" transform="translate(509.47,0)" d="M0,100v320" style="stroke: rgb(255, 255, 255); stroke-opacity: 1; stroke-width: 1px;"/><path class="xgrid crisp" transform="translate(612.69,0)" d="M0,100v320" style="stroke: rgb(255, 255, 255); stroke-opacity: 1; stroke-width: 1px;"/></g><g class="y"><path class="ygrid crisp" transform="translate(0,383.15)" d="M80,0h540" style="stroke: rgb(255, 255, 255); stroke-opacity: 1; stroke-width: 1px;"/><path class="ygrid crisp" transform="translate(0,346.3)" d="M80,0h540" style="stroke: rgb(255, 255, 255); stroke-opacity: 1; stroke-width: 1px;"/><path class="ygrid crisp" transform="translate(0,309.45)" d="M80,0h540" style="stroke: rgb(255, 255, 255); stroke-opacity: 1; stroke-width: 1px;"/><path class="ygrid crisp" transform="translate(0,272.61)" d="M80,0h540" style="stroke: rgb(255, 255, 255); stroke-opacity: 1; stroke-width: 1px;"/><path class="ygrid crisp" transform="translate(0,235.76)" d="M80,0h540" style="stroke: rgb(255, 255, 255); stroke-opacity: 1; stroke-width: 1px;"/><path class="ygrid crisp" transform="translate(0,198.91)" d="M80,0h540" style="stroke: rgb(255, 255, 255); stroke-opacity: 1; stroke-width: 1px;"/><path class="ygrid crisp" transform="translate(0,162.06)" d="M80,0h540" style="stroke: rgb(255, 255, 255); stroke-opacity: 1; stroke-width: 1px;"/><path class="ygrid crisp" transform="translate(0,125.21000000000001)" d="M80,0h540" style="stroke: rgb(255, 255, 255); stroke-opacity: 1; stroke-width: 1px;"/></g></g><g class="zerolinelayer"><path class="yzl zl crisp" transform="translate(0,420)" d="M80,0h540" style="stroke: rgb(255, 255, 255); stroke-opacity: 1; stroke-width: 2px;"/></g><g class="layer-between"><g class="shapelayer"/><g class="imagelayer"/></g><path class="xlines-below"/><path class="ylines-below"/><g class="overlines-below"/><g class="xaxislayer-below"/><g class="yaxislayer-below"/><g class="overaxes-below"/><g class="overplot"><g class="xy" transform="translate(80,100)" clip-path="url(#clipcbd85fxyplot)"><g class="scatterlayer mlayer"><g class="trace scatter trace2723c1" style="stroke-miterlimit: 2;"><g class="fills"><g><path class="js-fill" d="M540,320L0,320L0,319.82L3.52,318.53L3.81,318.34L5.77,317.24L6.08,317.05L14.4,315.58L21.75,315.39L21.94,315.21L23.55,315.03L23.55,314.84L26.52,314.66L43.49,310.05L43.5,309.87L43.53,309.5L44.46,309.31L45.04,308.95L46.29,308.76L58.53,307.47L59.63,307.29L66.91,305.08L66.96,304.89L67.76,303.97L68.61,303.79L70.04,303.05L74.53,302.87L77.67,302.13L78.64,301.94L82.63,300.65L83.02,300.47L96.87,297.34L96.87,297.15L97.56,294.57L97.97,294.39L98.4,294.02L98.98,293.84L100.66,292.55L100.8,292.36L101.39,291.44L102.36,291.26L103.49,289.97L103.61,289.78L104.36,289.05L105.31,288.86L108.52,287.02L108.52,286.84L109.02,286.28L110.28,286.1L110.41,285.92L112.39,285.73L112.41,285.55L113.51,285.36L121.12,284.07L121.42,283.89L121.73,283.34L122.56,283.15L129.47,281.49L129.48,281.31L130.35,280.57L131.33,280.39L134.97,278.73L135.3,278.55L135.98,277.62L136.1,277.44L142.9,275.78L143.43,275.6L150.37,273.02L152.22,272.83L152.36,272.65L153.93,272.47L180.35,268.41L180.36,268.23L181.01,267.12L182.54,266.94L182.87,266.2L184.52,266.02L185.02,265.46L187.21,265.28L211.57,262.15L212.28,261.96L212.67,261.04L214.08,260.86L218.11,259.75L219.28,259.57L232.02,256.99L232.06,256.8L232.82,256.25L233.1,256.07L235.68,254.78L235.93,254.59L236.39,253.49L236.98,253.3L237.09,253.12L238.37,252.94L240.19,251.83L240.35,251.65L243.98,249.99L244,249.8L245.98,247.59L246.81,247.41L251.09,245.75L255.64,245.57L255.98,245.2L257.87,245.01L261.55,243.54L261.66,243.36L262.97,242.25L265.02,242.07L265.08,241.7L266.1,241.51L270.95,239.85L272.63,239.67L272.82,239.49L274.56,239.3L274.56,239.12L275.52,238.93L275.71,238.75L277.07,238.56L282.48,237.46L282.54,237.28L298.08,234.14L298.08,233.96L298.63,233.22L299.77,233.04L300.63,231.56L300.65,231.38L303.02,229.54L303.06,229.35L306.5,227.69L306.99,227.51L307.42,225.85L309.6,225.67L317.94,224.19L318.59,224.01L318.76,223.27L319.43,223.09L321.3,221.43L323.75,221.25L324.24,220.88L325.48,220.69L333.96,219.04L333.99,218.85L334.82,218.48L336.07,218.3L341.15,216.46L341.24,216.27L348.58,215.17L348.6,214.98L352.01,213.51L352.74,213.32L357.59,211.48L357.63,211.3L358.65,210.56L360.47,210.38L363.54,209.09L364.46,208.9L370.66,207.61L370.78,207.43L375.67,204.85L375.73,204.66L376.37,203.56L377.3,203.37L380.04,201.72L382.5,201.53L383.11,200.98L386.9,200.8L390.55,199.32L392.39,199.14L392.53,198.77L393.97,198.58L394.1,197.48L398.05,197.29L398.89,196.74L400.99,196.56L404.01,195.64L405.26,195.45L408.4,194.35L409.01,194.16L410.35,191.4L410.79,191.21L411.37,189.56L411.73,189.37L412.61,187.16L412.77,186.98L413.05,186.42L413.72,186.24L416.16,179.24L416.57,179.05L418.66,175.37L418.68,175.19L419.54,172.79L419.65,172.61L422.25,170.21L422.25,170.03L422.92,169.11L422.93,168.92L423.91,166.89L424.87,166.71L425.61,165.42L425.61,165.24L425.85,164.87L426.71,164.68L427.71,160.45L428.88,160.26L429.17,159.71L429.83,159.52L432.78,156.95L432.8,156.76L432.85,156.39L433.7,156.21L435.46,152.71L435.47,152.52L436.05,149.94L436.28,149.76L437.72,143.13L437.73,142.94L438.57,140.18L438.7,140L439.34,138.15L440.01,137.97L440.58,137.05L440.59,136.86L441.84,134.84L442.95,134.65L444.41,132.63L444.52,132.44L447.62,126.73L447.63,126.55L448.44,124.52L448.6,124.33L449.32,121.76L449.77,121.57L450.76,120.65L450.76,120.47L451.08,118.99L451.61,118.81L452.14,118.07L452.44,117.89L453.55,115.49L453.56,115.31L454.28,112.73L454.37,112.54L454.58,111.44L455.28,111.25L456.22,109.23L456.27,109.04L458.36,104.99L458.36,104.8L461.24,99.09L461.31,98.91L462.18,96.33L462.21,96.15L462.73,94.67L463.56,94.49L464.49,93.57L464.55,93.38L465.27,91.17L465.4,90.99L467.13,86.01L467.51,85.83L468.26,82.7L468.28,82.51L469.4,80.85L470.34,80.67L471.09,79.75L471.61,79.56L472.47,77.91L473.63,77.72L474.58,76.43L474.61,76.25L475.04,75.33L475.05,75.14L475.72,73.85L475.85,73.67L477.56,71.64L478.25,71.46L478.99,69.61L479.02,69.43L479.59,67.59L480.43,67.4L484.09,65.56L484.11,65.38L486.37,60.96L487.53,60.77L488.44,59.85L488.87,59.67L490.12,58.19L490.97,58.01L493.82,55.43L494.42,55.24L497.89,52.66L497.92,52.48L499.28,50.64L499.75,50.45L501.11,47.87L501.88,47.69L502.7,46.4L503.24,46.22L504.54,44.93L505.14,44.74L505.3,44.56L506.66,44.37L507.66,41.06L507.9,40.87L511.08,38.85L513.3,38.66L513.99,36.45L514.1,36.27L514.84,35.71L515.11,35.53L515.83,34.24L515.87,34.06L517.83,31.11L519.74,30.92L522.77,30L522.92,29.82L523.93,28.53L524.91,28.34L527.83,26.69L527.97,26.5L528.67,24.84L528.94,24.66L529.79,21.71L529.99,21.53L531.11,20.24L531.26,20.05L531.38,19.5L533.69,19.32L534.95,17.47L535.89,17.29L540,16" style="fill: rgb(44, 160, 44); fill-opacity: 0.5; stroke-width: 0;"/></g></g><g class="errorbars"/><g class="lines"><path class="js-line" d="M0,319.82L3.52,318.53L3.81,318.34L5.77,317.24L6.08,317.05L14.4,315.58L21.75,315.39L21.94,315.21L23.55,315.03L23.55,314.84L26.52,314.66L43.49,310.05L43.5,309.87L43.53,309.5L44.46,309.31L45.04,308.95L46.29,308.76L58.53,307.47L59.63,307.29L66.91,305.08L66.96,304.89L67.76,303.97L68.61,303.79L70.04,303.05L74.53,302.87L77.67,302.13L78.64,301.94L82.63,300.65L83.02,300.47L96.87,297.34L96.87,297.15L97.56,294.57L97.97,294.39L98.4,294.02L98.98,293.84L100.66,292.55L100.8,292.36L101.39,291.44L102.36,291.26L103.49,289.97L103.61,289.78L104.36,289.05L105.31,288.86L108.52,287.02L108.52,286.84L109.02,286.28L110.28,286.1L110.41,285.92L112.39,285.73L112.41,285.55L113.51,285.36L121.12,284.07L121.42,283.89L121.73,283.34L122.56,283.15L129.47,281.49L129.48,281.31L130.35,280.57L131.33,280.39L134.97,278.73L135.3,278.55L135.98,277.62L136.1,277.44L142.9,275.78L143.43,275.6L150.37,273.02L152.22,272.83L152.36,272.65L153.93,272.47L180.35,268.41L180.36,268.23L181.01,267.12L182.54,266.94L182.87,266.2L184.52,266.02L185.02,265.46L187.21,265.28L211.57,262.15L212.28,261.96L212.67,261.04L214.08,260.86L218.11,259.75L219.28,259.57L232.02,256.99L232.06,256.8L232.82,256.25L233.1,256.07L235.68,254.78L235.93,254.59L236.39,253.49L236.98,253.3L237.09,253.12L238.37,252.94L240.19,251.83L240.35,251.65L243.98,249.99L244,249.8L245.98,247.59L246.81,247.41L251.09,245.75L255.64,245.57L255.98,245.2L257.87,245.01L261.55,243.54L261.66,243.36L262.97,242.25L265.02,242.07L265.08,241.7L266.1,241.51L270.95,239.85L272.63,239.67L272.82,239.49L274.56,239.3L274.56,239.12L275.52,238.93L275.71,238.75L277.07,238.56L282.48,237.46L282.54,237.28L298.08,234.14L298.08,233.96L298.63,233.22L299.77,233.04L300.63,231.56L300.65,231.38L303.02,229.54L303.06,229.35L306.5,227.69L306.99,227.51L307.42,225.85L309.6,225.67L317.94,224.19L318.59,224.01L318.76,223.27L319.43,223.09L321.3,221.43L323.75,221.25L324.24,220.88L325.48,220.69L333.96,219.04L333.99,218.85L334.82,218.48L336.07,218.3L341.15,216.46L341.24,216.27L348.58,215.17L348.6,214.98L352.01,213.51L352.74,213.32L357.59,211.48L357.63,211.3L358.65,210.56L360.47,210.38L363.54,209.09L364.46,208.9L370.66,207.61L370.78,207.43L375.67,204.85L375.73,204.66L376.37,203.56L377.3,203.37L380.04,201.72L382.5,201.53L383.11,200.98L386.9,200.8L390.55,199.32L392.39,199.14L392.53,198.77L393.97,198.58L394.1,197.48L398.05,197.29L398.89,196.74L400.99,196.56L404.01,195.64L405.26,195.45L408.4,194.35L409.01,194.16L410.35,191.4L410.79,191.21L411.37,189.56L411.73,189.37L412.61,187.16L412.77,186.98L413.05,186.42L413.72,186.24L416.16,179.24L416.57,179.05L418.66,175.37L418.68,175.19L419.54,172.79L419.65,172.61L422.25,170.21L422.25,170.03L422.92,169.11L422.93,168.92L423.91,166.89L424.87,166.71L425.61,165.42L425.61,165.24L425.85,164.87L426.71,164.68L427.71,160.45L428.88,160.26L429.17,159.71L429.83,159.52L432.78,156.95L432.8,156.76L432.85,156.39L433.7,156.21L435.46,152.71L435.47,152.52L436.05,149.94L436.28,149.76L437.72,143.13L437.73,142.94L438.57,140.18L438.7,140L439.34,138.15L440.01,137.97L440.58,137.05L440.59,136.86L441.84,134.84L442.95,134.65L444.41,132.63L444.52,132.44L447.62,126.73L447.63,126.55L448.44,124.52L448.6,124.33L449.32,121.76L449.77,121.57L450.76,120.65L450.76,120.47L451.08,118.99L451.61,118.81L452.14,118.07L452.44,117.89L453.55,115.49L453.56,115.31L454.28,112.73L454.37,112.54L454.58,111.44L455.28,111.25L456.22,109.23L456.27,109.04L458.36,104.99L458.36,104.8L461.24,99.09L461.31,98.91L462.18,96.33L462.21,96.15L462.73,94.67L463.56,94.49L464.49,93.57L464.55,93.38L465.27,91.17L465.4,90.99L467.13,86.01L467.51,85.83L468.26,82.7L468.28,82.51L469.4,80.85L470.34,80.67L471.09,79.75L471.61,79.56L472.47,77.91L473.63,77.72L474.58,76.43L474.61,76.25L475.04,75.33L475.05,75.14L475.72,73.85L475.85,73.67L477.56,71.64L478.25,71.46L478.99,69.61L479.02,69.43L479.59,67.59L480.43,67.4L484.09,65.56L484.11,65.38L486.37,60.96L487.53,60.77L488.44,59.85L488.87,59.67L490.12,58.19L490.97,58.01L493.82,55.43L494.42,55.24L497.89,52.66L497.92,52.48L499.28,50.64L499.75,50.45L501.11,47.87L501.88,47.69L502.7,46.4L503.24,46.22L504.54,44.93L505.14,44.74L505.3,44.56L506.66,44.37L507.66,41.06L507.9,40.87L511.08,38.85L513.3,38.66L513.99,36.45L514.1,36.27L514.84,35.71L515.11,35.53L515.83,34.24L515.87,34.06L517.83,31.11L519.74,30.92L522.77,30L522.92,29.82L523.93,28.53L524.91,28.34L527.83,26.69L527.97,26.5L528.67,24.84L528.94,24.66L529.79,21.71L529.99,21.53L531.11,20.24L531.26,20.05L531.38,19.5L533.69,19.32L534.95,17.47L535.89,17.29L540,16" style="vector-effect: none; fill: none; stroke: rgb(44, 160, 44); stroke-opacity: 1; stroke-width: 2px; opacity: 1;"/></g><g class="points"/><g class="text"/></g></g></g></g><g class="zerolinelayer-above"/><path class="xlines-above crisp" d="M0,0" style="fill: none;"/><path class="ylines-above crisp" d="M0,0" style="fill: none;"/><g class="overlines-above"/><g class="xaxislayer-above"><g class="xtick"><text text-anchor="middle" x="0" y="439" transform="translate(96.86,0)" style="font-family: 'Open Sans'; font-size: 18px; fill: rgb(255, 255, 255); fill-opacity: 1; white-space: pre;">2016</text></g><g class="xtick"><text text-anchor="middle" x="0" y="439" style="font-family: 'Open Sans'; font-size: 18px; fill: rgb(255, 255, 255); fill-opacity: 1; white-space: pre;" transform="translate(200.07999999999998,0)">2018</text></g><g class="xtick"><text text-anchor="middle" x="0" y="439" style="font-family: 'Open Sans'; font-size: 18px; fill: rgb(255, 255, 255); fill-opacity: 1; white-space: pre;" transform="translate(303.15999999999997,0)">2020</text></g><g class="xtick"><text text-anchor="middle" x="0" y="439" style="font-family: 'Open Sans'; font-size: 18px; fill: rgb(255, 255, 255); fill-opacity: 1; white-space: pre;" transform="translate(406.38,0)">2022</text></g><g class="xtick"><text text-anchor="middle" x="0" y="439" style="font-family: 'Open Sans'; font-size: 18px; fill: rgb(255, 255, 255); fill-opacity: 1; white-space: pre;" transform="translate(509.47,0)">2024</text></g><g class="xtick"><text text-anchor="middle" x="0" y="439" style="font-family: 'Open Sans'; font-size: 18px; fill: rgb(255, 255, 255); fill-opacity: 1; white-space: pre;" transform="translate(612.69,0)">2026</text></g></g><g class="yaxislayer-above"><g class="ytick"><text text-anchor="end" x="79" y="6.3" transform="translate(0,420)" style="font-family: 'Open Sans'; font-size: 18px; fill: rgb(255, 255, 255); fill-opacity: 1; white-space: pre;">0</text></g><g class="ytick"><text text-anchor="end" x="79" y="6.3" style="font-family: 'Open Sans'; font-size: 18px; fill: rgb(255, 255, 255); fill-opacity: 1; white-space: pre;" transform="translate(0,383.15)">200</text></g><g class="ytick"><text text-anchor="end" x="79" y="6.3" style="font-family: 'Open Sans'; font-size: 18px; fill: rgb(255, 255, 255); fill-opacity: 1; white-space: pre;" transform="translate(0,346.3)">400</text></g><g class="ytick"><text text-anchor="end" x="79" y="6.3" style="font-family: 'Open Sans'; font-size: 18px; fill: rgb(255, 255, 255); fill-opacity: 1; white-space: pre;" transform="translate(0,309.45)">600</text></g><g class="ytick"><text text-anchor="end" x="79" y="6.3" style="font-family: 'Open Sans'; font-size: 18px; fill: rgb(255, 255, 255); fill-opacity: 1; white-space: pre;" transform="translate(0,272.61)">800</text></g><g class="ytick"><text text-anchor="end" x="79" y="6.3" style="font-family: 'Open Sans'; font-size: 18px; fill: rgb(255, 255, 255); fill-opacity: 1; white-space: pre;" transform="translate(0,235.76)">1000</text></g><g class="ytick"><text text-anchor="end" x="79" y="6.3" style="font-family: 'Open Sans'; font-size: 18px; fill: rgb(255, 255, 255); fill-opacity: 1; white-space: pre;" transform="translate(0,198.91)">1200</text></g><g class="ytick"><text text-anchor="end" x="79" y="6.3" style="font-family: 'Open Sans'; font-size: 18px; fill: rgb(255, 255, 255); fill-opacity: 1; white-space: pre;" transform="translate(0,162.06)">1400</text></g><g class="ytick"><text text-anchor="end" x="79" y="6.3" style="font-family: 'Open Sans'; font-size: 18px; fill: rgb(255, 255, 255); fill-opacity: 1; white-space: pre;" transform="translate(0,125.21000000000001)">1600</text></g></g><g class="overaxes-above"/></g></g><g class="polarlayer"/><g class="smithlayer"/><g class="ternarylayer"/><g class="geolayer"/><g class="funnelarealayer"/><g class="pielayer"/><g class="iciclelayer"/><g class="treemaplayer"/><g class="sunburstlayer"/><g class="glimages"/><defs id="topdefs-cbd85f"><g class="clips"/></defs><g class="layer-above"><g class="imagelayer"/><g class="shapelayer"/></g><g class="infolayer"><g class="g-gtitle"><text class="gtitle" x="35" y="50" text-anchor="start" dy="0em" style="opacity: 1; font-family: 'Open Sans'; font-size: 25px; fill: rgb(255, 255, 255); fill-opacity: 1; white-space: pre;">MultiQC/MultiQC - Pull Requests Created Over Time</text></g><g class="g-xtitle"><text class="xtitle" x="350" y="472.9" text-anchor="middle" style="opacity: 1; font-family: 'Open Sans'; font-size: 22px; fill: rgb(255, 255, 255); fill-opacity: 1; white-space: pre;">Date</text></g><g class="g-ytitle"><text class="ytitle" transform="rotate(-90,20.799999999999997,260)" x="20.799999999999997" y="260" text-anchor="middle" style="opacity: 1; font-family: 'Open Sans'; font-size: 22px; fill: rgb(255, 255, 255); fill-opacity: 1; white-space: pre;">Cumulative PRs Created</text></g></g></svg>