<svg class="main-svg" xmlns="http://www.w3.org/2000/svg" xmlns:xlink="http://www.w3.org/1999/xlink" width="700" height="500" style="" viewBox="0 0 700 500"><rect x="0" y="0" width="700" height="500" style="fill: rgb(0, 0, 0); fill-opacity: 0;"/><defs id="defs-5d4385"><g class="clips"><clipPath id="clip5d4385xyplot" class="plotclip"><rect width="540" height="320"/></clipPath><clipPath class="axesclip" id="clip5d4385x"><rect x="80" y="0" width="540" height="500"/></clipPath><clipPath class="axesclip" id="clip5d4385y"><rect x="0" y="100" width="700" height="320"/></clipPath><clipPath class="axesclip" id="clip5d4385xy"><rect x="80" y="100" width="540" height="320"/></clipPath></g><g class="gradients"/><g class="patterns"/></defs><g class="bglayer"><rect class="bg" x="80" y="100" width="540" height="320" style="fill: rgb(0, 0, 0); fill-opacity: 0; stroke-width: 0;"/></g><g class="layer-below"><g class="imagelayer"/><g class="shapelayer"/></g><g class="cartesianlayer"><g class="subplot xy"><g class="layer-subplot"><g class="shapelayer"/><g class="imagelayer"/></g><g class="minor-gridlayer"><g class="x"/><g class="y"/></g><g class="gridlayer"><g class="x"><path class="xgrid crisp" transform="translate(97.52,0)" d="M0,100v320" style="stroke: rgb(255, 255, 255); stroke-opacity: 1; stroke-width: 1px;"/><path class="xgrid crisp" transform="translate(204.76,0)" d="M0,100v320" style="stroke: rgb(255, 255, 255); stroke-opacity: 1; stroke-width: 1px;"/><path class="xgrid crisp" transform="translate(311.86,0)" d="M0,100v320" style="stroke: rgb(255, 255, 255); stroke-opacity: 1; stroke-width: 1px;"/><path class="xgrid crisp" transform="translate(419.11,0)" d="M0,100v320" style="stroke: rgb(255, 255, 255); stroke-opacity: 1; stroke-width: 1px;"/><path class="xgrid crisp" transform="translate(526.21,0)" d="M0,100v320" style="stroke: rgb(255, 255, 255); stroke-opacity: 1; stroke-width: 1px;"/></g><g class="y"><path class="ygrid crisp" transform="translate(0,381.25)" d="M80,0h540" style="stroke: rgb(255, 255, 255); stroke-opacity: 1; stroke-width: 1px;"/><path class="ygrid crisp" transform="translate(0,342.5)" d="M80,0h540" style="stroke: rgb(255, 255, 255); stroke-opacity: 1; stroke-width: 1px;"/><path class="ygrid crisp" transform="translate(0,303.75)" d="M80,0h540" style="stroke: rgb(255, 255, 255); stroke-opacity: 1; stroke-width: 1px;"/><path class="ygrid crisp" transform="translate(0,265)" d="M80,0h540" style="stroke: rgb(255, 255, 255); stroke-opacity: 1; stroke-width: 1px;"/><path class="ygrid crisp" transform="translate(0,226.25)" d="M80,0h540" style="stroke: rgb(255, 255, 255); stroke-opacity: 1; stroke-width: 1px;"/><path class="ygrid crisp" transform="translate(0,187.5)" d="M80,0h540" style="stroke: rgb(255, 255, 255); stroke-opacity: 1; stroke-width: 1px;"/><path class="ygrid crisp" transform="translate(0,148.74)" d="M80,0h540" style="stroke: rgb(255, 255, 255); stroke-opacity: 1; stroke-width: 1px;"/><path class="ygrid crisp" transform="translate(0,109.99)" d="M80,0h540" style="stroke: rgb(255, 255, 255); stroke-opacity: 1; stroke-width: 1px;"/></g></g><g class="zerolinelayer"><path class="yzl zl crisp" transform="translate(0,420)" d="M80,0h540" style="stroke: rgb(255, 255, 255); stroke-opacity: 1; stroke-width: 2px;"/></g><g class="layer-between"><g class="shapelayer"/><g class="imagelayer"/></g><path class="xlines-below"/><path class="ylines-below"/><g class="overlines-below"/><g class="xaxislayer-below"/><g class="yaxislayer-below"/><g class="overaxes-below"/><g class="overplot"><g class="xy" transform="translate(80,100)" clip-path="url(#clip5d4385xyplot)"><g class="scatterlayer mlayer"><g class="trace scatter traceded62b" style="stroke-miterlimit: 2;"><g class="fills"><g><path class="js-fill" d="M540,320L0,320L0,319.81L3.65,318.45L3.96,318.26L6,317.09L6.32,316.9L14.96,315.35L22.59,315.16L22.8,314.96L24.46,314.77L24.46,314.57L27.55,314.38L35.97,311.86L36.39,311.67L45.08,309.73L45.18,309.54L45.22,308.96L46.19,308.76L46.79,308.37L48.1,308.18L59.26,307.02L60.81,306.82L68.71,304.89L68.8,304.69L70.41,303.14L71.28,302.95L72.77,302.17L77.44,301.98L80.7,301.21L81.7,301.01L85.85,299.66L86.25,299.46L100.64,296.17L100.65,295.97L101.37,293.26L101.78,293.07L102.23,292.68L102.84,292.49L104.58,291.13L104.73,290.94L105.34,289.97L106.35,289.77L107.53,288.42L107.64,288.22L108.42,287.45L109.41,287.26L112.75,285.32L112.75,285.12L113.27,284.54L114.58,284.35L114.71,284.16L116.78,283.96L116.79,283.77L117.93,283.57L125.84,282.22L126.15,282.02L126.48,281.44L127.34,281.25L134.52,279.51L134.52,279.31L135.43,278.54L136.45,278.34L140.58,276.41L141.26,276.21L141.41,275.24L142.74,275.05L142.86,274.86L144.35,274.66L144.91,274.27L146.39,274.08L146.71,273.69L148.47,273.5L158.3,270.21L159.93,270.01L176.77,267.3L176.79,267.11L187.38,265.75L187.39,265.56L188.06,264.39L189.66,264.2L190,263.42L191.71,263.23L192.23,262.65L194.51,262.46L219.81,259.16L220.55,258.97L220.96,258L222.42,257.8L225.02,256.84L226.61,256.64L238.85,254.32L239.17,254.12L241.35,253.15L241.9,252.96L245.6,250.25L245.61,250.05L250.39,247.92L250.58,247.73L251.3,247.34L251.5,247.15L254.65,244.44L254.82,244.24L260.87,241.92L265.6,241.72L265.96,241.34L267.92,241.14L271.75,239.59L271.86,239.4L273.22,238.24L275.34,238.04L275.41,237.65L276.48,237.46L281.51,235.72L283.26,235.52L283.45,235.33L285.26,235.14L285.27,234.94L286.26,234.75L286.45,234.55L287.87,234.36L293.48,233.2L293.55,233L306.24,230.49L306.26,230.29L310.26,228.94L310.27,228.74L312.04,227.77L312.05,227.58L312.78,226.61L313.01,226.42L313.79,225.84L314.43,225.64L315.47,224.48L316.46,224.29L318.36,223.12L318.45,222.93L319.23,221.96L319.23,221.77L319.4,220.99L321.66,220.8L330.33,219.25L331.01,219.05L331.18,218.28L331.88,218.09L333.82,216.34L336.36,216.15L336.88,215.76L338.16,215.57L346.06,214.02L346.98,213.82L347.21,213.44L347.87,213.24L353.42,211.69L353.5,211.5L354.54,210.92L357.73,210.72L362.18,209.56L363.08,209.37L363.54,208.98L364.12,208.79L372.63,204.91L374.52,204.72L377.71,203.36L378.67,203.17L385.11,201.81L385.23,201.62L387.82,200.65L389.05,200.45L389.9,199.49L390.12,199.29L392.01,197.35L392.43,197.16L393.52,196L394.07,195.8L409.44,192.12L409.45,191.93L409.46,191.15L413.56,190.96L414.44,190.38L416.62,190.18L421.06,189.02L422.61,188.83L424.32,187.86L424.95,187.67L426.34,184.76L426.8,184.57L427.41,182.82L427.77,182.63L428.69,180.3L428.85,180.11L429.15,179.53L429.84,179.33L433.09,171L433.71,170.81L434.6,169.26L434.6,169.07L434.97,167.9L435,167.71L435.47,165.38L435.89,165.19L437.25,164.03L437.62,163.83L438.64,162.67L438.7,162.48L439.42,161.12L439.54,160.93L440.43,158.99L441.43,158.8L442.2,157.44L442.2,157.25L442.44,156.86L443.34,156.67L444.38,152.21L445.59,152.02L445.9,151.43L446.59,151.24L449.65,148.53L449.67,148.33L449.72,147.95L450.6,147.75L452.43,144.27L452.44,144.07L453.05,141.17L453.28,140.97L454.49,135.55L454.49,135.35L454.78,134L454.79,133.8L455.52,131.09L455.67,130.9L457.16,128.57L457.61,128.38L458.35,126.05L458.6,125.86L459.06,125.28L460.21,125.08L461.73,122.95L461.85,122.76L465.19,115.98L465.26,115.78L466.39,112.1L466.4,111.91L466.84,111.52L467.3,111.33L468.33,110.36L468.33,110.16L468.67,108.61L469.21,108.42L469.76,107.65L470.07,107.45L471.22,105.32L471.23,105.13L471.97,102.22L471.99,102.03L474.91,96.6L475.18,96.41L475.98,94.28L476.22,94.08L476.64,92.53L477.11,92.34L478.72,89.43L478.73,89.24L480.33,83.81L480.33,83.62L480.77,83.04L481.63,82.85L482.6,81.88L482.66,81.68L483.41,79.36L483.54,79.16L485.34,73.93L485.73,73.74L486.53,70.25L486.66,70.06L487.39,69.48L487.66,69.28L487.7,68.51L488.68,68.31L489.46,67.34L489.99,67.15L490.89,65.41L492.09,65.21L492.82,64.05L493.08,63.86L493.96,61.34L494.26,61.14L496.17,58.82L496.89,58.63L497.62,56.88L497.66,56.69L498.28,54.56L499.16,54.36L502.96,52.43L502.97,52.23L505.33,47.58L506.54,47.39L507.47,46.42L507.92,46.23L509.23,44.68L510.1,44.48L513.07,41.77L513.69,41.58L517.32,38.67L517.43,38.48L517.64,37.51L518.31,37.31L523.62,30.92L524.21,30.73L526.67,29.37L526.68,29.18L527.27,26.85L527.45,26.66L528.01,26.27L529.46,26.08L531,24.33L533.31,24.14L534.02,21.81L534.14,21.62L534.9,21.04L535.19,20.84L535.93,19.49L535.98,19.29L538.02,16.19L540,16" style="fill: rgb(44, 160, 44); fill-opacity: 0.5; stroke-width: 0;"/></g></g><g class="errorbars"/><g class="lines"><path class="js-line" d="M0,319.81L3.65,318.45L3.96,318.26L6,317.09L6.32,316.9L14.96,315.35L22.59,315.16L22.8,314.96L24.46,314.77L24.46,314.57L27.55,314.38L35.97,311.86L36.39,311.67L45.08,309.73L45.18,309.54L45.22,308.96L46.19,308.76L46.79,308.37L48.1,308.18L59.26,307.02L60.81,306.82L68.71,304.89L68.8,304.69L70.41,303.14L71.28,302.95L72.77,302.17L77.44,301.98L80.7,301.21L81.7,301.01L85.85,299.66L86.25,299.46L100.64,296.17L100.65,295.97L101.37,293.26L101.78,293.07L102.23,292.68L102.84,292.49L104.58,291.13L104.73,290.94L105.34,289.97L106.35,289.77L107.53,288.42L107.64,288.22L108.42,287.45L109.41,287.26L112.75,285.32L112.75,285.12L113.27,284.54L114.58,284.35L114.71,284.16L116.78,283.96L116.79,283.77L117.93,283.57L125.84,282.22L126.15,282.02L126.48,281.44L127.34,281.25L134.52,279.51L134.52,279.31L135.43,278.54L136.45,278.34L140.58,276.41L141.26,276.21L141.41,275.24L142.74,275.05L142.86,274.86L144.35,274.66L144.91,274.27L146.39,274.08L146.71,273.69L148.47,273.5L158.3,270.21L159.93,270.01L176.77,267.3L176.79,267.11L187.38,265.75L187.39,265.56L188.06,264.39L189.66,264.2L190,263.42L191.71,263.23L192.23,262.65L194.51,262.46L219.81,259.16L220.55,258.97L220.96,258L222.42,257.8L225.02,256.84L226.61,256.64L238.85,254.32L239.17,254.12L241.35,253.15L241.9,252.96L245.6,250.25L245.61,250.05L250.39,247.92L250.58,247.73L251.3,247.34L251.5,247.15L254.65,244.44L254.82,244.24L260.87,241.92L265.6,241.72L265.96,241.34L267.92,241.14L271.75,239.59L271.86,239.4L273.22,238.24L275.34,238.04L275.41,237.65L276.48,237.46L281.51,235.72L283.26,235.52L283.45,235.33L285.26,235.14L285.27,234.94L286.26,234.75L286.45,234.55L287.87,234.36L293.48,233.2L293.55,233L306.24,230.49L306.26,230.29L310.26,228.94L310.27,228.74L312.04,227.77L312.05,227.58L312.78,226.61L313.01,226.42L313.79,225.84L314.43,225.64L315.47,224.48L316.46,224.29L318.36,223.12L318.45,222.93L319.23,221.96L319.23,221.77L319.4,220.99L321.66,220.8L330.33,219.25L331.01,219.05L331.18,218.28L331.88,218.09L333.82,216.34L336.36,216.15L336.88,215.76L338.16,215.57L346.06,214.02L346.98,213.82L347.21,213.44L347.87,213.24L353.42,211.69L353.5,211.5L354.54,210.92L357.73,210.72L362.18,209.56L363.08,209.37L363.54,208.98L364.12,208.79L372.63,204.91L374.52,204.72L377.71,203.36L378.67,203.17L385.11,201.81L385.23,201.62L387.82,200.65L389.05,200.45L389.9,199.49L390.12,199.29L392.01,197.35L392.43,197.16L393.52,196L394.07,195.8L409.44,192.12L409.45,191.93L409.46,191.15L413.56,190.96L414.44,190.38L416.62,190.18L421.06,189.02L422.61,188.83L424.32,187.86L424.95,187.67L426.34,184.76L426.8,184.57L427.41,182.82L427.77,182.63L428.69,180.3L428.85,180.11L429.15,179.53L429.84,179.33L433.09,171L433.71,170.81L434.6,169.26L434.6,169.07L434.97,167.9L435,167.71L435.47,165.38L435.89,165.19L437.25,164.03L437.62,163.83L438.64,162.67L438.7,162.48L439.42,161.12L439.54,160.93L440.43,158.99L441.43,158.8L442.2,157.44L442.2,157.25L442.44,156.86L443.34,156.67L444.38,152.21L445.59,152.02L445.9,151.43L446.59,151.24L449.65,148.53L449.67,148.33L449.72,147.95L450.6,147.75L452.43,144.27L452.44,144.07L453.05,141.17L453.28,140.97L454.49,135.55L454.49,135.35L454.78,134L454.79,133.8L455.52,131.09L455.67,130.9L457.16,128.57L457.61,128.38L458.35,126.05L458.6,125.86L459.06,125.28L460.21,125.08L461.73,122.95L461.85,122.76L465.19,115.98L465.26,115.78L466.39,112.1L466.4,111.91L466.84,111.52L467.3,111.33L468.33,110.36L468.33,110.16L468.67,108.61L469.21,108.42L469.76,107.65L470.07,107.45L471.22,105.32L471.23,105.13L471.97,102.22L471.99,102.03L474.91,96.6L475.18,96.41L475.98,94.28L476.22,94.08L476.64,92.53L477.11,92.34L478.72,89.43L478.73,89.24L480.33,83.81L480.33,83.62L480.77,83.04L481.63,82.85L482.6,81.88L482.66,81.68L483.41,79.36L483.54,79.16L485.34,73.93L485.73,73.74L486.53,70.25L486.66,70.06L487.39,69.48L487.66,69.28L487.7,68.51L488.68,68.31L489.46,67.34L489.99,67.15L490.89,65.41L492.09,65.21L492.82,64.05L493.08,63.86L493.96,61.34L494.26,61.14L496.17,58.82L496.89,58.63L497.62,56.88L497.66,56.69L498.28,54.56L499.16,54.36L502.96,52.43L502.97,52.23L505.33,47.58L506.54,47.39L507.47,46.42L507.92,46.23L509.23,44.68L510.1,44.48L513.07,41.77L513.69,41.58L517.32,38.67L517.43,38.48L517.64,37.51L518.31,37.31L523.62,30.92L524.21,30.73L526.67,29.37L526.68,29.18L527.27,26.85L527.45,26.66L528.01,26.27L529.46,26.08L531,24.33L533.31,24.14L534.02,21.81L534.14,21.62L534.9,21.04L535.19,20.84L535.93,19.49L535.98,19.29L538.02,16.19L540,16" style="vector-effect: none; fill: none; stroke: rgb(44, 160, 44); stroke-opacity: 1; stroke-width: 2px; opacity: 1;"/></g><g class="points"/><g class="text"/></g></g></g></g><g class="zerolinelayer-above"/><path class="xlines-above crisp" d="M0,0" style="fill: none;"/><path class="ylines-above crisp" d="M0,0" style="fill: none;"/><g class="overlines-above"/><g class="xaxislayer-above"><g class="xtick"><text text-anchor="middle" x="0" y="439" transform="translate(97.52,0)" style="font-family: 'Open Sans'; font-size: 18px; fill: rgb(0, 0, 0); fill-opacity: 1; white-space: pre;">2016</text></g><g class="xtick"><text text-anchor="middle" x="0" y="439" style="font-family: 'Open Sans'; font-size: 18px; fill: rgb(0, 0, 0); fill-opacity: 1; white-space: pre;" transform="translate(204.76,0)">2018</text></g><g class="xtick"><text text-anchor="middle" x="0" y="439" style="font-family: 'Open Sans'; font-size: 18px; fill: rgb(0, 0, 0); fill-opacity: 1; white-space: pre;" transform="translate(311.86,0)">2020</text></g><g class="xtick"><text text-anchor="middle" x="0" y="439" style="font-family: 'Open Sans'; font-size: 18px; fill: rgb(0, 0, 0); fill-opacity: 1; white-space: pre;" transform="translate(419.11,0)">2022</text></g><g class="xtick"><text text-anchor="middle" x="0" y="439" style="font-family: 'Open Sans'; font-size: 18px; fill: rgb(0, 0, 0); fill-opacity: 1; white-space: pre;" transform="translate(526.21,0)">2024</text></g></g><g class="yaxislayer-above"><g class="ytick"><text text-anchor="end" x="79" y="6.3" transform="translate(0,420)" style="font-family: 'Open Sans'; font-size: 18px; fill: rgb(0, 0, 0); fill-opacity: 1; white-space: pre;">0</text></g><g class="ytick"><text text-anchor="end" x="79" y="6.3" style="font-family: 'Open Sans'; font-size: 18px; fill: rgb(0, 0, 0); fill-opacity: 1; white-space: pre;" transform="translate(0,381.25)">200</text></g><g class="ytick"><text text-anchor="end" x="79" y="6.3" style="font-family: 'Open Sans'; font-size: 18px; fill: rgb(0, 0, 0); fill-opacity: 1; white-space: pre;" transform="translate(0,342.5)">400</text></g><g class="ytick"><text text-anchor="end" x="79" y="6.3" style="font-family: 'Open Sans'; font-size: 18px; fill: rgb(0, 0, 0); fill-opacity: 1; white-space: pre;" transform="translate(0,303.75)">600</text></g><g class="ytick"><text text-anchor="end" x="79" y="6.3" style="font-family: 'Open Sans'; font-size: 18px; fill: rgb(0, 0, 0); fill-opacity: 1; white-space: pre;" transform="translate(0,265)">800</text></g><g class="ytick"><text text-anchor="end" x="79" y="6.3" style="font-family: 'Open Sans'; font-size: 18px; fill: rgb(0, 0, 0); fill-opacity: 1; white-space: pre;" transform="translate(0,226.25)">1000</text></g><g class="ytick"><text text-anchor="end" x="79" y="6.3" style="font-family: 'Open Sans'; font-size: 18px; fill: rgb(0, 0, 0); fill-opacity: 1; white-space: pre;" transform="translate(0,187.5)">1200</text></g><g class="ytick"><text text-anchor="end" x="79" y="6.3" style="font-family: 'Open Sans'; font-size: 18px; fill: rgb(0, 0, 0); fill-opacity: 1; white-space: pre;" transform="translate(0,148.74)">1400</text></g><g class="ytick"><text text-anchor="end" x="79" y="6.3" style="font-family: 'Open Sans'; font-size: 18px; fill: rgb(0, 0, 0); fill-opacity: 1; white-space: pre;" transform="translate(0,109.99)">1600</text></g></g><g class="overaxes-above"/></g></g><g class="polarlayer"/><g class="smithlayer"/><g class="ternarylayer"/><g class="geolayer"/><g class="funnelarealayer"/><g class="pielayer"/><g class="iciclelayer"/><g class="treemaplayer"/><g class="sunburstlayer"/><g class="glimages"/><defs id="topdefs-5d4385"><g class="clips"/></defs><g class="layer-above"><g class="imagelayer"/><g class="shapelayer"/></g><g class="infolayer"><g class="g-gtitle"><text class="gtitle" x="35" y="50" text-anchor="start" dy="0em" style="opacity: 1; font-family: 'Open Sans'; font-size: 25px; fill: rgb(0, 0, 0); fill-opacity: 1; white-space: pre;">MultiQC/MultiQC - Pull Requests Created Over Time</text></g><g class="g-xtitle"><text class="xtitle" x="350" y="472.9" text-anchor="middle" style="opacity: 1; font-family: 'Open Sans'; font-size: 22px; fill: rgb(0, 0, 0); fill-opacity: 1; white-space: pre;">Date</text></g><g class="g-ytitle"><text class="ytitle" transform="rotate(-90,20.799999999999997,260)" x="20.799999999999997" y="260" text-anchor="middle" style="opacity: 1; font-family: 'Open Sans'; font-size: 22px; fill: rgb(0, 0, 0); fill-opacity: 1; white-space: pre;">Cumulative PRs Created</text></g></g></svg>