<svg class="main-svg" xmlns="http://www.w3.org/2000/svg" xmlns:xlink="http://www.w3.org/1999/xlink" width="700" height="500" style="" viewBox="0 0 700 500"><rect x="0" y="0" width="700" height="500" style="fill: rgb(0, 0, 0); fill-opacity: 0;"/><defs id="defs-0f7f64"><g class="clips"><clipPath id="clip0f7f64xyplot" class="plotclip"><rect width="540" height="320"/></clipPath><clipPath class="axesclip" id="clip0f7f64x"><rect x="80" y="0" width="540" height="500"/></clipPath><clipPath class="axesclip" id="clip0f7f64y"><rect x="0" y="100" width="700" height="320"/></clipPath><clipPath class="axesclip" id="clip0f7f64xy"><rect x="80" y="100" width="540" height="320"/></clipPath></g><g class="gradients"/><g class="patterns"/></defs><g class="bglayer"><rect class="bg" x="80" y="100" width="540" height="320" style="fill: rgb(0, 0, 0); fill-opacity: 0; stroke-width: 0;"/></g><g class="layer-below"><g class="imagelayer"/><g class="shapelayer"/></g><g class="cartesianlayer"><g class="subplot xy"><g class="layer-subplot"><g class="shapelayer"/><g class="imagelayer"/></g><g class="minor-gridlayer"><g class="x"/><g class="y"/></g><g class="gridlayer"><g class="x"><path class="xgrid crisp" transform="translate(96.96000000000001,0)" d="M0,100v320" style="stroke: rgb(255, 255, 255); stroke-opacity: 1; stroke-width: 1px;"/><path class="xgrid crisp" transform="translate(200.79000000000002,0)" d="M0,100v320" style="stroke: rgb(255, 255, 255); stroke-opacity: 1; stroke-width: 1px;"/><path class="xgrid crisp" transform="translate(304.48,0)" d="M0,100v320" style="stroke: rgb(255, 255, 255); stroke-opacity: 1; stroke-width: 1px;"/><path class="xgrid crisp" transform="translate(408.31,0)" d="M0,100v320" style="stroke: rgb(255, 255, 255); stroke-opacity: 1; stroke-width: 1px;"/><path class="xgrid crisp" transform="translate(512,0)" d="M0,100v320" style="stroke: rgb(255, 255, 255); stroke-opacity: 1; stroke-width: 1px;"/><path class="xgrid crisp" transform="translate(615.83,0)" d="M0,100v320" style="stroke: rgb(255, 255, 255); stroke-opacity: 1; stroke-width: 1px;"/></g><g class="y"><path class="ygrid crisp" transform="translate(0,350.90999999999997)" d="M80,0h540" style="stroke: rgb(255, 255, 255); stroke-opacity: 1; stroke-width: 1px;"/><path class="ygrid crisp" transform="translate(0,281.82)" d="M80,0h540" style="stroke: rgb(255, 255, 255); stroke-opacity: 1; stroke-width: 1px;"/><path class="ygrid crisp" transform="translate(0,212.73000000000002)" d="M80,0h540" style="stroke: rgb(255, 255, 255); stroke-opacity: 1; stroke-width: 1px;"/><path class="ygrid crisp" transform="translate(0,143.64)" d="M80,0h540" style="stroke: rgb(255, 255, 255); stroke-opacity: 1; stroke-width: 1px;"/></g></g><g class="zerolinelayer"><path class="yzl zl crisp" transform="translate(0,420)" d="M80,0h540" style="stroke: rgb(255, 255, 255); stroke-opacity: 1; stroke-width: 2px;"/></g><g class="layer-between"><g class="shapelayer"/><g class="imagelayer"/></g><path class="xlines-below"/><path class="ylines-below"/><g class="overlines-below"/><g class="xaxislayer-below"/><g class="yaxislayer-below"/><g class="overaxes-below"/><g class="overplot"><g class="xy" transform="translate(80,100)" clip-path="url(#clip0f7f64xyplot)"><g class="scatterlayer mlayer"><g class="trace scatter trace1deaf9" style="stroke-miterlimit: 2;"><g class="fills"><g><path class="js-fill" d="M540,320L0,320L0,316.55L0.1,320L1.03,316.55L1.72,320L1.82,316.55L1.82,320L3.08,316.55L3.83,320L4.7,316.55L4.7,320L4.8,320L5.53,316.55L5.53,320L6.12,320L6.95,316.55L6.95,320L7.54,320L9.07,316.55L9.07,320L9.71,316.55L9.93,320L11.64,316.55L11.64,320L14.49,316.55L14.49,320L21.87,316.55L21.87,320L22.07,316.55L22.07,320L23.69,316.55L23.69,313.09L23.83,316.55L24.97,320L26.68,316.55L26.68,320L27.99,313.09L27.99,316.55L27.99,320L30.83,316.55L30.83,320L30.97,320L32.21,316.55L32.21,320L32.81,320L33.7,316.55L33.71,320L34.48,316.55L34.48,320L35.23,316.55L35.32,320L37.92,313.09L38.36,316.55L38.48,313.09L38.48,316.55L39.77,320L40.5,316.55L40.5,320L42.21,316.55L42.21,320L43.29,316.55L43.46,320L43.78,306.18L43.89,309.64L44.42,313.09L44.86,316.55L45.3,313.09L45.31,316.55L46.57,313.09L50.42,309.64L50.42,313.09L50.71,316.55L51.51,313.09L52.42,320L53.83,316.55L54.23,320L57.37,316.55L57.37,320L57.37,316.55L58.87,313.09L59.2,316.55L59.99,313.09L60.76,309.64L60.79,313.09L60.79,309.64L61.36,320L63.21,316.55L63.51,320L64.18,316.55L64.34,313.09L65.31,316.55L65.49,309.64L65.61,313.09L66.44,316.55L66.75,313.09L66.75,316.55L67.3,313.09L67.38,306.18L67.57,320L68.16,316.55L69.01,313.09L69.01,316.55L69.75,309.64L69.75,313.09L70.45,309.64L74.97,306.18L75.45,302.73L77.13,320L78.13,316.55L78.13,320L79.1,316.55L80.3,313.09L80.36,316.55L81.42,309.64L81.83,306.18L82.34,302.73L82.34,306.18L82.36,309.64L83.51,302.73L83.52,306.18L84.35,302.73L84.35,306.18L84.64,309.64L85.22,306.18L85.22,309.64L85.22,306.18L87.03,309.64L87.21,306.18L87.21,309.64L88.11,306.18L88.34,309.64L89.06,306.18L89.52,302.73L90.3,306.18L91.01,302.73L91.31,306.18L93.57,302.73L93.57,306.18L94.16,302.73L94.18,306.18L95.56,309.64L96.07,306.18L96.27,309.64L96.42,306.18L96.42,309.64L97.43,306.18L97.44,285.45L98.14,299.27L98.14,302.73L98.43,309.64L98.6,306.18L98.98,302.73L99.57,299.27L100.1,302.73L100.73,295.82L100.98,292.36L101.27,302.73L101.55,292.36L101.86,288.91L101.99,299.27L101.99,295.82L102.95,299.27L103.39,288.91L103.39,288.91L103.92,292.36L104.97,275.09L105.93,271.64L106.95,275.09L107.24,271.64L107.36,278.55L107.95,278.55L108.08,275.09L108.38,288.91L108.51,285.45L109.16,282L109.66,268.18L109.66,271.64L110.05,275.09L110.09,278.55L110.93,275.09L111.06,271.64L111.08,275.09L112.37,278.55L112.48,292.36L113.06,288.91L113.07,285.45L113.08,292.36L114.18,288.91L114.18,292.36L116.33,288.91L116.33,285.45L116.33,292.36L118.32,288.91L118.33,292.36L118.33,288.91L119.39,292.36L119.45,288.91L121.29,285.45L122.13,292.36L122.14,288.91L122.29,292.36L122.45,288.91L122.46,292.36L123.28,288.91L123.61,292.36L124.31,288.91L124.34,292.36L125.97,288.91L125.99,292.36L127.84,288.91L127.94,292.36L128.33,288.91L128.82,285.45L128.94,288.91L129.83,285.45L129.83,288.91L130.24,275.09L130.38,275.09L130.77,271.64L131.12,288.91L131.12,288.91L132.1,285.45L132.39,292.36L133.09,288.91L134.07,285.45L134.19,282L134.75,285.45L134.94,282L135.04,278.55L135.76,271.64L135.79,275.09L136.1,271.64L136.32,275.09L136.77,271.64L136.78,268.18L136.78,257.82L136.93,278.55L138.19,275.09L138.31,271.64L138.32,275.09L139.75,271.64L140.52,285.45L141.73,282L142.14,285.45L143.74,282L144.82,278.55L144.83,282L146.15,271.64L146.15,275.09L146.4,278.55L146.43,282L146.83,275.09L146.83,278.55L147.16,275.09L147.16,278.55L148.15,282L148.32,288.91L149.03,285.45L149.12,282L150.72,278.55L151.26,268.18L151.26,271.64L151.27,275.09L151.32,285.45L153.12,282L153.22,285.45L153.26,282L154.84,278.55L154.86,282L156.22,278.55L156.22,282L156.64,278.55L157.09,275.09L157.78,271.64L157.81,275.09L160.66,278.55L163.7,271.64L164.43,268.18L165.2,271.64L165.91,268.18L165.92,271.64L168.59,268.18L169.05,271.64L169.65,268.18L170.87,264.73L171.11,268.18L171.11,264.73L171.15,292.36L171.16,288.91L173.54,285.45L173.56,288.91L175.89,292.36L176.99,288.91L176.99,292.36L177.62,288.91L177.65,292.36L179.85,288.91L180.01,285.45L181.39,288.91L181.4,292.36L181.99,264.73L182.07,268.18L182.07,264.73L182.11,278.55L183.62,275.09L183.95,264.73L185.61,261.27L186.11,257.82L186.12,261.27L188.32,257.82L188.8,261.27L190.12,257.82L190.42,261.27L190.73,257.82L192.9,254.36L195.88,250.91L195.99,254.36L196.89,250.91L197.59,254.36L197.62,247.45L197.85,250.91L198.73,254.36L198.98,268.18L199.81,271.64L199.88,275.09L199.98,268.18L203.41,264.73L203.97,268.18L204.66,264.73L204.8,261.27L206.95,257.82L209.9,254.36L211.48,250.91L211.5,247.45L212.81,244L213.6,247.45L213.62,244L213.92,268.18L213.93,264.73L214.9,268.18L215.33,271.64L215.34,268.18L216.48,271.64L216.94,278.55L217.31,275.09L217.33,278.55L217.86,268.18L217.9,275.09L218.46,278.55L218.5,282L219.4,278.55L220.58,275.09L220.59,278.55L222.57,271.64L222.85,268.18L225.21,264.73L226.33,268.18L227.91,264.73L228.39,261.27L230.69,254.36L230.7,257.82L231.56,247.45L233.38,244L233.67,233.64L234.19,230.18L235.26,223.27L235.31,226.73L237.55,202.55L237.63,206L237.63,209.45L237.79,199.09L238.38,202.55L238.49,199.09L239.78,195.64L239.92,192.18L240.19,202.55L240.2,206L240.37,226.73L240.64,219.82L241.14,216.36L242.18,275.09L242.42,271.64L242.6,268.18L242.61,264.73L243.21,275.09L243.3,271.64L243.49,268.18L244.31,275.09L244.42,278.55L244.43,271.64L244.86,282L245.17,285.45L245.57,275.09L245.61,271.64L246.16,282L246.41,278.55L246.41,282L246.71,278.55L247.4,275.09L247.43,271.64L248.24,275.09L248.74,268.18L249.37,264.73L250.24,257.82L250.24,261.27L251.1,254.36L251.1,257.82L252.57,247.45L253.51,250.91L257.14,247.45L257.24,244L257.49,240.55L257.8,244L259.39,240.55L260.33,233.64L260.68,230.18L261.06,226.73L262.65,223.27L263.09,212.91L263.3,223.27L263.3,226.73L264.52,209.45L266.58,206L266.65,199.09L267.67,195.64L269.31,188.73L269.35,192.18L269.36,216.36L269.99,202.55L270.27,199.09L270.28,202.55L270.41,199.09L272.55,195.64L274.24,192.18L274.43,188.73L276.18,185.27L276.18,188.73L276.18,185.27L276.18,188.73L277.14,185.27L277.33,181.82L278,185.27L278.96,199.09L279.16,202.55L280.7,199.09L281.23,202.55L282.6,195.64L283.3,192.18L283.3,195.64L284.1,192.18L284.2,185.27L285.35,188.73L285.92,230.18L288.47,226.73L288.95,230.18L289.34,226.73L289.36,230.18L292.17,226.73L292.88,233.64L292.91,230.18L293.02,226.73L293.02,230.18L293.28,230.18L293.96,233.64L294.14,226.73L294.14,230.18L296.49,226.73L296.51,223.27L297.29,219.82L299.31,216.36L299.83,212.91L299.99,202.55L300.03,219.82L300.39,212.91L300.84,216.36L301.32,223.27L301.54,219.82L301.8,216.36L302.45,257.82L302.59,261.27L303.8,247.45L304.42,244L305.42,226.73L306.38,223.27L307.28,219.82L307.38,216.36L308.22,206L308.26,209.45L309.23,171.45L311.42,168L313.33,164.55L313.33,161.09L316.71,164.55L316.78,161.09L318.04,157.64L318.46,154.18L320.47,140.36L320.47,136.91L320.6,130L321,202.55L321.31,199.09L321.75,195.64L321.77,206L322.02,202.55L322.17,199.09L323.19,181.82L323.31,185.27L325.65,181.82L326.15,178.36L326.44,181.82L327.4,178.36L327.79,181.82L328.94,178.36L330.39,181.82L330.42,192.18L331.07,188.73L331.78,192.18L332.22,212.91L332.64,216.36L332.77,212.91L333.08,223.27L333.28,219.82L333.66,223.27L334.22,219.82L335.04,209.45L335.93,206L336.15,199.09L336.79,195.64L337.65,202.55L338.06,199.09L338.06,202.55L338.76,199.09L339.04,202.55L339.04,209.45L339.61,206L340.94,202.55L341.15,195.64L341.58,206L341.6,206L341.6,209.45L342.25,202.55L342.46,199.09L343.25,192.18L343.26,195.64L346.34,192.18L346.72,195.64L348.1,192.18L348.54,188.73L348.55,192.18L349.3,195.64L349.58,192.18L349.66,199.09L350.41,195.64L351.52,185.27L351.52,188.73L351.96,181.82L352.52,178.36L352.96,185.27L352.98,178.36L353.5,181.82L354.09,178.36L354.1,181.82L354.82,178.36L354.96,181.82L355.63,178.36L356.19,174.91L356.4,178.36L356.8,168L356.85,174.91L357.63,171.45L357.68,168L358.5,164.55L359.6,161.09L359.7,157.64L360.41,143.82L360.77,140.36L360.89,143.82L362.6,140.36L362.88,136.91L363.95,133.45L364.1,164.55L364.22,164.55L365.68,161.09L366.61,157.64L366.62,161.09L368.46,157.64L368.46,161.09L368.88,157.64L371.3,154.18L371.3,157.64L371.97,157.64L372.57,154.18L373.32,140.36L373.39,143.82L374.57,140.36L374.67,133.45L375.11,154.18L375.48,150.73L375.7,154.18L376.67,150.73L377.49,136.91L377.7,133.45L378.29,150.73L378.39,140.36L378.58,136.91L379.29,157.64L379.53,154.18L380.36,188.73L380.44,185.27L381.15,206L381.52,202.55L382.32,206L384.76,202.55L385.37,192.18L385.39,195.64L385.63,199.09L389.18,195.64L389.2,199.09L389.91,192.18L390.81,195.64L391.93,192.18L392.85,188.73L392.85,192.18L394.7,188.73L394.84,181.82L395.86,185.27L396.41,174.91L396.41,171.45L396.42,161.09L400.17,164.55L401.24,150.73L403.36,147.27L403.85,140.36L403.85,143.82L403.85,147.27L405.94,140.36L406.39,136.91L409.16,130L409.35,126.55L409.92,123.09L409.92,126.55L410.09,130L410.69,147.27L410.82,143.82L411.42,140.36L411.47,143.82L411.79,126.55L412.19,123.09L412.38,112.73L412.57,123.09L412.57,126.55L412.58,133.45L413.22,119.64L413.34,116.18L413.63,112.73L413.73,123.09L413.75,126.55L413.8,123.09L414.46,136.91L414.5,133.45L414.59,130L414.6,143.82L415.22,140.36L415.48,136.91L416.21,133.45L416.22,130L416.65,150.73L417.14,143.82L417.17,140.36L417.56,119.64L417.75,157.64L418.06,154.18L418.49,133.45L418.64,147.27L418.64,150.73L418.7,157.64L419.26,147.27L419.3,150.73L419.9,147.27L420.04,157.64L420.61,140.36L420.69,136.91L420.75,140.36L421.12,119.64L421.12,116.18L421.16,105.82L421.29,164.55L421.61,150.73L422.02,147.27L422.44,140.36L422.67,150.73L422.71,147.27L423.11,143.82L423.77,154.18L424.11,157.64L424.41,161.09L424.74,147.27L425.09,150.73L425.69,168L425.72,164.55L426.12,161.09L426.78,178.36L427.37,174.91L427.72,178.36L427.73,171.45L428.1,168L428.36,150.73L429.08,154.18L429.22,171.45L429.52,147.27L429.69,154.18L429.86,157.64L430.08,154.18L430.24,164.55L431.4,161.09L431.54,168L431.7,161.09L432.37,157.64L432.52,161.09L432.7,154.18L433.05,150.73L433.08,161.09L433.48,154.18L434.18,150.73L434.69,147.27L434.69,150.73L434.69,154.18L435.22,147.27L435.22,143.82L435.23,140.36L435.27,154.18L435.4,143.82L436.25,140.36L436.48,130L436.61,143.82L436.69,147.27L437.4,174.91L437.66,168L437.66,164.55L438.02,161.09L438.03,168L438.03,171.45L438.03,168L438.03,178.36L438.63,174.91L438.85,171.45L439.09,174.91L439.34,161.09L439.47,164.55L439.49,161.09L439.93,185.27L440.24,168L440.29,164.55L440.3,161.09L440.32,185.27L441.01,168L441.16,164.55L441.3,171.45L441.64,154.18L441.9,157.64L442.44,188.73L442.6,185.27L443.03,188.73L443.46,171.45L443.75,174.91L444,171.45L444,174.91L444.45,168L444.45,168L445.56,164.55L446.16,157.64L446.16,161.09L446.97,157.64L447.01,154.18L447.04,181.82L447.45,178.36L447.99,181.82L448.1,185.27L448.27,168L448.27,164.55L448.69,157.64L448.73,164.55L448.94,168L448.96,164.55L449.68,188.73L449.68,185.27L449.98,188.73L450.29,178.36L450.57,185.27L450.88,188.73L451.24,192.18L451.55,178.36L451.57,181.82L451.97,178.36L453.06,168L453.39,171.45L453.42,168L453.55,181.82L453.98,181.82L454.27,178.36L454.29,181.82L454.56,174.91L454.81,181.82L455.11,178.36L455.42,192.18L455.67,185.27L455.98,188.73L456.65,181.82L456.65,185.27L456.9,181.82L457.07,171.45L457.08,185.27L457.26,178.36L457.96,181.82L458.34,178.36L458.5,192.18L458.91,188.73L459.21,185.27L459.22,192.18L459.5,188.73L459.79,185.27L460.46,181.82L460.46,185.27L460.63,188.73L460.64,185.27L460.78,202.55L461.32,199.09L461.39,195.64L461.47,192.18L462.05,202.55L462.07,199.09L462.18,202.55L462.89,185.27L462.89,199.09L462.89,202.55L462.91,199.09L463.03,206L463.62,202.55L463.87,199.09L463.87,206L464.6,206L464.63,202.55L465.16,212.91L465.16,209.45L465.46,206L466.29,202.55L466.42,206L467.21,199.09L467.22,195.64L467.32,216.36L467.87,206L468.02,202.55L468.02,216.36L468.74,212.91L468.83,216.36L469.15,206L469.15,209.45L469.71,206L469.71,209.45L470.44,195.64L470.46,199.09L470.72,202.55L471.04,209.45L471.26,199.09L471.87,195.64L472.15,202.55L472.17,199.09L473.12,195.64L473.12,199.09L473.72,192.18L473.87,192.18L474.39,188.73L474.84,181.82L475.12,188.73L475.25,185.27L475.26,181.82L476.17,185.27L476.25,188.73L476.8,181.82L476.8,185.27L476.85,181.82L477.37,199.09L477.41,199.09L477.8,195.64L477.83,202.55L478.53,188.73L478.66,185.27L478.82,181.82L478.83,195.64L479.12,188.73L479.14,192.18L479.79,188.73L479.79,192.18L480.15,188.73L480.15,192.18L480.37,181.82L480.39,192.18L481.07,188.73L481.21,206L481.81,199.09L481.83,202.55L481.86,195.64L482.5,216.36L483.27,212.91L483.66,216.36L483.69,212.91L484.35,209.45L484.9,216.36L485.67,212.91L486.11,206L486.52,209.45L486.6,212.91L486.96,206L486.96,209.45L487.02,212.91L487.05,216.36L487.07,209.45L487.74,212.91L487.75,209.45L487.75,212.91L488.17,202.55L488.23,206L488.92,209.45L489.05,202.55L489.54,209.45L490.41,206L491.27,202.55L491.27,206L491.31,209.45L491.87,202.55L491.87,209.45L492.75,206L492.86,199.09L492.87,209.45L493.01,202.55L493.85,206L494.44,192.18L494.77,188.73L495.29,192.18L495.46,188.73L495.46,185.27L496.1,171.45L496.11,192.18L496.21,188.73L496.45,185.27L496.74,181.82L496.74,188.73L496.74,192.18L497.34,188.73L497.58,192.18L497.69,188.73L498.01,199.09L498.66,202.55L499.14,195.64L499.26,202.55L499.26,206L499.26,202.55L499.65,212.91L499.94,212.91L500.1,209.45L500.71,206L500.8,209.45L500.82,212.91L501.01,202.55L501.16,206L501.81,202.55L502.66,212.91L502.7,209.45L502.94,212.91L503.38,206L503.64,209.45L503.97,199.09L504.06,206L504.84,202.55L505.22,209.45L505.29,199.09L505.64,195.64L506.21,188.73L506.33,206L506.34,202.55L506.34,206L506.95,195.64L507.52,192.18L508.28,185.27L508.68,188.73L508.69,192.18L509.65,188.73L509.9,195.64L510.35,181.82L510.39,192.18L510.48,188.73L510.89,192.18L511.2,188.73L512.61,185.27L513.78,171.45L513.88,174.91L513.88,181.82L514.05,171.45L514.09,171.45L516.32,174.91L516.71,168L516.74,192.18L517.02,192.18L517.03,195.64L517.87,185.27L517.88,188.73L518.15,192.18L518.87,171.45L518.87,178.36L518.91,174.91L519.58,185.27L519.61,178.36L519.71,174.91L519.71,178.36L520.16,171.45L520.6,168L520.73,171.45L520.89,164.55L520.89,171.45L522.81,168L522.81,171.45L524.6,168L526.01,154.18L526.16,150.73L526.22,143.82L526.23,154.18L526.68,150.73L527.02,147.27L528.55,140.36L528.79,136.91L528.79,140.36L529.28,130L530.43,126.55L531.09,112.73L531.1,109.27L531.1,112.73L531.69,92L531.79,92L532.06,88.55L532.06,92L532.51,74.73L532.8,74.73L532.92,71.27L532.92,74.73L533.67,64.36L533.75,67.82L534.51,50.55L536.83,47.09L538.1,22.91L539.05,19.45L540,16" style="fill: rgb(44, 160, 44); fill-opacity: 0.5; stroke-width: 0;"/></g></g><g class="errorbars"/><g class="lines"><path class="js-line" d="M0,316.55L0.1,320L1.03,316.55L1.72,320L1.82,316.55L1.82,320L3.08,316.55L3.83,320L4.7,316.55L4.7,320L4.8,320L5.53,316.55L5.53,320L6.12,320L6.95,316.55L6.95,320L7.54,320L9.07,316.55L9.07,320L9.71,316.55L9.93,320L11.64,316.55L11.64,320L14.49,316.55L14.49,320L21.87,316.55L21.87,320L22.07,316.55L22.07,320L23.69,316.55L23.69,313.09L23.83,316.55L24.97,320L26.68,316.55L26.68,320L27.99,313.09L27.99,316.55L27.99,320L30.83,316.55L30.83,320L30.97,320L32.21,316.55L32.21,320L32.81,320L33.7,316.55L33.71,320L34.48,316.55L34.48,320L35.23,316.55L35.32,320L37.92,313.09L38.36,316.55L38.48,313.09L38.48,316.55L39.77,320L40.5,316.55L40.5,320L42.21,316.55L42.21,320L43.29,316.55L43.46,320L43.78,306.18L43.89,309.64L44.42,313.09L44.86,316.55L45.3,313.09L45.31,316.55L46.57,313.09L50.42,309.64L50.42,313.09L50.71,316.55L51.51,313.09L52.42,320L53.83,316.55L54.23,320L57.37,316.55L57.37,320L57.37,316.55L58.87,313.09L59.2,316.55L59.99,313.09L60.76,309.64L60.79,313.09L60.79,309.64L61.36,320L63.21,316.55L63.51,320L64.18,316.55L64.34,313.09L65.31,316.55L65.49,309.64L65.61,313.09L66.44,316.55L66.75,313.09L66.75,316.55L67.3,313.09L67.38,306.18L67.57,320L68.16,316.55L69.01,313.09L69.01,316.55L69.75,309.64L69.75,313.09L70.45,309.64L74.97,306.18L75.45,302.73L77.13,320L78.13,316.55L78.13,320L79.1,316.55L80.3,313.09L80.36,316.55L81.42,309.64L81.83,306.18L82.34,302.73L82.34,306.18L82.36,309.64L83.51,302.73L83.52,306.18L84.35,302.73L84.35,306.18L84.64,309.64L85.22,306.18L85.22,309.64L85.22,306.18L87.03,309.64L87.21,306.18L87.21,309.64L88.11,306.18L88.34,309.64L89.06,306.18L89.52,302.73L90.3,306.18L91.01,302.73L91.31,306.18L93.57,302.73L93.57,306.18L94.16,302.73L94.18,306.18L95.56,309.64L96.07,306.18L96.27,309.64L96.42,306.18L96.42,309.64L97.43,306.18L97.44,285.45L98.14,299.27L98.14,302.73L98.43,309.64L98.6,306.18L98.98,302.73L99.57,299.27L100.1,302.73L100.73,295.82L100.98,292.36L101.27,302.73L101.55,292.36L101.86,288.91L101.99,299.27L101.99,295.82L102.95,299.27L103.39,288.91L103.39,288.91L103.92,292.36L104.97,275.09L105.93,271.64L106.95,275.09L107.24,271.64L107.36,278.55L107.95,278.55L108.08,275.09L108.38,288.91L108.51,285.45L109.16,282L109.66,268.18L109.66,271.64L110.05,275.09L110.09,278.55L110.93,275.09L111.06,271.64L111.08,275.09L112.37,278.55L112.48,292.36L113.06,288.91L113.07,285.45L113.08,292.36L114.18,288.91L114.18,292.36L116.33,288.91L116.33,285.45L116.33,292.36L118.32,288.91L118.33,292.36L118.33,288.91L119.39,292.36L119.45,288.91L121.29,285.45L122.13,292.36L122.14,288.91L122.29,292.36L122.45,288.91L122.46,292.36L123.28,288.91L123.61,292.36L124.31,288.91L124.34,292.36L125.97,288.91L125.99,292.36L127.84,288.91L127.94,292.36L128.33,288.91L128.82,285.45L128.94,288.91L129.83,285.45L129.83,288.91L130.24,275.09L130.38,275.09L130.77,271.64L131.12,288.91L131.12,288.91L132.1,285.45L132.39,292.36L133.09,288.91L134.07,285.45L134.19,282L134.75,285.45L134.94,282L135.04,278.55L135.76,271.64L135.79,275.09L136.1,271.64L136.32,275.09L136.77,271.64L136.78,268.18L136.78,257.82L136.93,278.55L138.19,275.09L138.31,271.64L138.32,275.09L139.75,271.64L140.52,285.45L141.73,282L142.14,285.45L143.74,282L144.82,278.55L144.83,282L146.15,271.64L146.15,275.09L146.4,278.55L146.43,282L146.83,275.09L146.83,278.55L147.16,275.09L147.16,278.55L148.15,282L148.32,288.91L149.03,285.45L149.12,282L150.72,278.55L151.26,268.18L151.26,271.64L151.27,275.09L151.32,285.45L153.12,282L153.22,285.45L153.26,282L154.84,278.55L154.86,282L156.22,278.55L156.22,282L156.64,278.55L157.09,275.09L157.78,271.64L157.81,275.09L160.66,278.55L163.7,271.64L164.43,268.18L165.2,271.64L165.91,268.18L165.92,271.64L168.59,268.18L169.05,271.64L169.65,268.18L170.87,264.73L171.11,268.18L171.11,264.73L171.15,292.36L171.16,288.91L173.54,285.45L173.56,288.91L175.89,292.36L176.99,288.91L176.99,292.36L177.62,288.91L177.65,292.36L179.85,288.91L180.01,285.45L181.39,288.91L181.4,292.36L181.99,264.73L182.07,268.18L182.07,264.73L182.11,278.55L183.62,275.09L183.95,264.73L185.61,261.27L186.11,257.82L186.12,261.27L188.32,257.82L188.8,261.27L190.12,257.82L190.42,261.27L190.73,257.82L192.9,254.36L195.88,250.91L195.99,254.36L196.89,250.91L197.59,254.36L197.62,247.45L197.85,250.91L198.73,254.36L198.98,268.18L199.81,271.64L199.88,275.09L199.98,268.18L203.41,264.73L203.97,268.18L204.66,264.73L204.8,261.27L206.95,257.82L209.9,254.36L211.48,250.91L211.5,247.45L212.81,244L213.6,247.45L213.62,244L213.92,268.18L213.93,264.73L214.9,268.18L215.33,271.64L215.34,268.18L216.48,271.64L216.94,278.55L217.31,275.09L217.33,278.55L217.86,268.18L217.9,275.09L218.46,278.55L218.5,282L219.4,278.55L220.58,275.09L220.59,278.55L222.57,271.64L222.85,268.18L225.21,264.73L226.33,268.18L227.91,264.73L228.39,261.27L230.69,254.36L230.7,257.82L231.56,247.45L233.38,244L233.67,233.64L234.19,230.18L235.26,223.27L235.31,226.73L237.55,202.55L237.63,206L237.63,209.45L237.79,199.09L238.38,202.55L238.49,199.09L239.78,195.64L239.92,192.18L240.19,202.55L240.2,206L240.37,226.73L240.64,219.82L241.14,216.36L242.18,275.09L242.42,271.64L242.6,268.18L242.61,264.73L243.21,275.09L243.3,271.64L243.49,268.18L244.31,275.09L244.42,278.55L244.43,271.64L244.86,282L245.17,285.45L245.57,275.09L245.61,271.64L246.16,282L246.41,278.55L246.41,282L246.71,278.55L247.4,275.09L247.43,271.64L248.24,275.09L248.74,268.18L249.37,264.73L250.24,257.82L250.24,261.27L251.1,254.36L251.1,257.82L252.57,247.45L253.51,250.91L257.14,247.45L257.24,244L257.49,240.55L257.8,244L259.39,240.55L260.33,233.64L260.68,230.18L261.06,226.73L262.65,223.27L263.09,212.91L263.3,223.27L263.3,226.73L264.52,209.45L266.58,206L266.65,199.09L267.67,195.64L269.31,188.73L269.35,192.18L269.36,216.36L269.99,202.55L270.27,199.09L270.28,202.55L270.41,199.09L272.55,195.64L274.24,192.18L274.43,188.73L276.18,185.27L276.18,188.73L276.18,185.27L276.18,188.73L277.14,185.27L277.33,181.82L278,185.27L278.96,199.09L279.16,202.55L280.7,199.09L281.23,202.55L282.6,195.64L283.3,192.18L283.3,195.64L284.1,192.18L284.2,185.27L285.35,188.73L285.92,230.18L288.47,226.73L288.95,230.18L289.34,226.73L289.36,230.18L292.17,226.73L292.88,233.64L292.91,230.18L293.02,226.73L293.02,230.18L293.28,230.18L293.96,233.64L294.14,226.73L294.14,230.18L296.49,226.73L296.51,223.27L297.29,219.82L299.31,216.36L299.83,212.91L299.99,202.55L300.03,219.82L300.39,212.91L300.84,216.36L301.32,223.27L301.54,219.82L301.8,216.36L302.45,257.82L302.59,261.27L303.8,247.45L304.42,244L305.42,226.73L306.38,223.27L307.28,219.82L307.38,216.36L308.22,206L308.26,209.45L309.23,171.45L311.42,168L313.33,164.55L313.33,161.09L316.71,164.55L316.78,161.09L318.04,157.64L318.46,154.18L320.47,140.36L320.47,136.91L320.6,130L321,202.55L321.31,199.09L321.75,195.64L321.77,206L322.02,202.55L322.17,199.09L323.19,181.82L323.31,185.27L325.65,181.82L326.15,178.36L326.44,181.82L327.4,178.36L327.79,181.82L328.94,178.36L330.39,181.82L330.42,192.18L331.07,188.73L331.78,192.18L332.22,212.91L332.64,216.36L332.77,212.91L333.08,223.27L333.28,219.82L333.66,223.27L334.22,219.82L335.04,209.45L335.93,206L336.15,199.09L336.79,195.64L337.65,202.55L338.06,199.09L338.06,202.55L338.76,199.09L339.04,202.55L339.04,209.45L339.61,206L340.94,202.55L341.15,195.64L341.58,206L341.6,206L341.6,209.45L342.25,202.55L342.46,199.09L343.25,192.18L343.26,195.64L346.34,192.18L346.72,195.64L348.1,192.18L348.54,188.73L348.55,192.18L349.3,195.64L349.58,192.18L349.66,199.09L350.41,195.64L351.52,185.27L351.52,188.73L351.96,181.82L352.52,178.36L352.96,185.27L352.98,178.36L353.5,181.82L354.09,178.36L354.1,181.82L354.82,178.36L354.96,181.82L355.63,178.36L356.19,174.91L356.4,178.36L356.8,168L356.85,174.91L357.63,171.45L357.68,168L358.5,164.55L359.6,161.09L359.7,157.64L360.41,143.82L360.77,140.36L360.89,143.82L362.6,140.36L362.88,136.91L363.95,133.45L364.1,164.55L364.22,164.55L365.68,161.09L366.61,157.64L366.62,161.09L368.46,157.64L368.46,161.09L368.88,157.64L371.3,154.18L371.3,157.64L371.97,157.64L372.57,154.18L373.32,140.36L373.39,143.82L374.57,140.36L374.67,133.45L375.11,154.18L375.48,150.73L375.7,154.18L376.67,150.73L377.49,136.91L377.7,133.45L378.29,150.73L378.39,140.36L378.58,136.91L379.29,157.64L379.53,154.18L380.36,188.73L380.44,185.27L381.15,206L381.52,202.55L382.32,206L384.76,202.55L385.37,192.18L385.39,195.64L385.63,199.09L389.18,195.64L389.2,199.09L389.91,192.18L390.81,195.64L391.93,192.18L392.85,188.73L392.85,192.18L394.7,188.73L394.84,181.82L395.86,185.27L396.41,174.91L396.41,171.45L396.42,161.09L400.17,164.55L401.24,150.73L403.36,147.27L403.85,140.36L403.85,143.82L403.85,147.27L405.94,140.36L406.39,136.91L409.16,130L409.35,126.55L409.92,123.09L409.92,126.55L410.09,130L410.69,147.27L410.82,143.82L411.42,140.36L411.47,143.82L411.79,126.55L412.19,123.09L412.38,112.73L412.57,123.09L412.57,126.55L412.58,133.45L413.22,119.64L413.34,116.18L413.63,112.73L413.73,123.09L413.75,126.55L413.8,123.09L414.46,136.91L414.5,133.45L414.59,130L414.6,143.82L415.22,140.36L415.48,136.91L416.21,133.45L416.22,130L416.65,150.73L417.14,143.82L417.17,140.36L417.56,119.64L417.75,157.64L418.06,154.18L418.49,133.45L418.64,147.27L418.64,150.73L418.7,157.64L419.26,147.27L419.3,150.73L419.9,147.27L420.04,157.64L420.61,140.36L420.69,136.91L420.75,140.36L421.12,119.64L421.12,116.18L421.16,105.82L421.29,164.55L421.61,150.73L422.02,147.27L422.44,140.36L422.67,150.73L422.71,147.27L423.11,143.82L423.77,154.18L424.11,157.64L424.41,161.09L424.74,147.27L425.09,150.73L425.69,168L425.72,164.55L426.12,161.09L426.78,178.36L427.37,174.91L427.72,178.36L427.73,171.45L428.1,168L428.36,150.73L429.08,154.18L429.22,171.45L429.52,147.27L429.69,154.18L429.86,157.64L430.08,154.18L430.24,164.55L431.4,161.09L431.54,168L431.7,161.09L432.37,157.64L432.52,161.09L432.7,154.18L433.05,150.73L433.08,161.09L433.48,154.18L434.18,150.73L434.69,147.27L434.69,150.73L434.69,154.18L435.22,147.27L435.22,143.82L435.23,140.36L435.27,154.18L435.4,143.82L436.25,140.36L436.48,130L436.61,143.82L436.69,147.27L437.4,174.91L437.66,168L437.66,164.55L438.02,161.09L438.03,168L438.03,171.45L438.03,168L438.03,178.36L438.63,174.91L438.85,171.45L439.09,174.91L439.34,161.09L439.47,164.55L439.49,161.09L439.93,185.27L440.24,168L440.29,164.55L440.3,161.09L440.32,185.27L441.01,168L441.16,164.55L441.3,171.45L441.64,154.18L441.9,157.64L442.44,188.73L442.6,185.27L443.03,188.73L443.46,171.45L443.75,174.91L444,171.45L444,174.91L444.45,168L444.45,168L445.56,164.55L446.16,157.64L446.16,161.09L446.97,157.64L447.01,154.18L447.04,181.82L447.45,178.36L447.99,181.82L448.1,185.27L448.27,168L448.27,164.55L448.69,157.64L448.73,164.55L448.94,168L448.96,164.55L449.68,188.73L449.68,185.27L449.98,188.73L450.29,178.36L450.57,185.27L450.88,188.73L451.24,192.18L451.55,178.36L451.57,181.82L451.97,178.36L453.06,168L453.39,171.45L453.42,168L453.55,181.82L453.98,181.82L454.27,178.36L454.29,181.82L454.56,174.91L454.81,181.82L455.11,178.36L455.42,192.18L455.67,185.27L455.98,188.73L456.65,181.82L456.65,185.27L456.9,181.82L457.07,171.45L457.08,185.27L457.26,178.36L457.96,181.82L458.34,178.36L458.5,192.18L458.91,188.73L459.21,185.27L459.22,192.18L459.5,188.73L459.79,185.27L460.46,181.82L460.46,185.27L460.63,188.73L460.64,185.27L460.78,202.55L461.32,199.09L461.39,195.64L461.47,192.18L462.05,202.55L462.07,199.09L462.18,202.55L462.89,185.27L462.89,199.09L462.89,202.55L462.91,199.09L463.03,206L463.62,202.55L463.87,199.09L463.87,206L464.6,206L464.63,202.55L465.16,212.91L465.16,209.45L465.46,206L466.29,202.55L466.42,206L467.21,199.09L467.22,195.64L467.32,216.36L467.87,206L468.02,202.55L468.02,216.36L468.74,212.91L468.83,216.36L469.15,206L469.15,209.45L469.71,206L469.71,209.45L470.44,195.64L470.46,199.09L470.72,202.55L471.04,209.45L471.26,199.09L471.87,195.64L472.15,202.55L472.17,199.09L473.12,195.64L473.12,199.09L473.72,192.18L473.87,192.18L474.39,188.73L474.84,181.82L475.12,188.73L475.25,185.27L475.26,181.82L476.17,185.27L476.25,188.73L476.8,181.82L476.8,185.27L476.85,181.82L477.37,199.09L477.41,199.09L477.8,195.64L477.83,202.55L478.53,188.73L478.66,185.27L478.82,181.82L478.83,195.64L479.12,188.73L479.14,192.18L479.79,188.73L479.79,192.18L480.15,188.73L480.15,192.18L480.37,181.82L480.39,192.18L481.07,188.73L481.21,206L481.81,199.09L481.83,202.55L481.86,195.64L482.5,216.36L483.27,212.91L483.66,216.36L483.69,212.91L484.35,209.45L484.9,216.36L485.67,212.91L486.11,206L486.52,209.45L486.6,212.91L486.96,206L486.96,209.45L487.02,212.91L487.05,216.36L487.07,209.45L487.74,212.91L487.75,209.45L487.75,212.91L488.17,202.55L488.23,206L488.92,209.45L489.05,202.55L489.54,209.45L490.41,206L491.27,202.55L491.27,206L491.31,209.45L491.87,202.55L491.87,209.45L492.75,206L492.86,199.09L492.87,209.45L493.01,202.55L493.85,206L494.44,192.18L494.77,188.73L495.29,192.18L495.46,188.73L495.46,185.27L496.1,171.45L496.11,192.18L496.21,188.73L496.45,185.27L496.74,181.82L496.74,188.73L496.74,192.18L497.34,188.73L497.58,192.18L497.69,188.73L498.01,199.09L498.66,202.55L499.14,195.64L499.26,202.55L499.26,206L499.26,202.55L499.65,212.91L499.94,212.91L500.1,209.45L500.71,206L500.8,209.45L500.82,212.91L501.01,202.55L501.16,206L501.81,202.55L502.66,212.91L502.7,209.45L502.94,212.91L503.38,206L503.64,209.45L503.97,199.09L504.06,206L504.84,202.55L505.22,209.45L505.29,199.09L505.64,195.64L506.21,188.73L506.33,206L506.34,202.55L506.34,206L506.95,195.64L507.52,192.18L508.28,185.27L508.68,188.73L508.69,192.18L509.65,188.73L509.9,195.64L510.35,181.82L510.39,192.18L510.48,188.73L510.89,192.18L511.2,188.73L512.61,185.27L513.78,171.45L513.88,174.91L513.88,181.82L514.05,171.45L514.09,171.45L516.32,174.91L516.71,168L516.74,192.18L517.02,192.18L517.03,195.64L517.87,185.27L517.88,188.73L518.15,192.18L518.87,171.45L518.87,178.36L518.91,174.91L519.58,185.27L519.61,178.36L519.71,174.91L519.71,178.36L520.16,171.45L520.6,168L520.73,171.45L520.89,164.55L520.89,171.45L522.81,168L522.81,171.45L524.6,168L526.01,154.18L526.16,150.73L526.22,143.82L526.23,154.18L526.68,150.73L527.02,147.27L528.55,140.36L528.79,136.91L528.79,140.36L529.28,130L530.43,126.55L531.09,112.73L531.1,109.27L531.1,112.73L531.69,92L531.79,92L532.06,88.55L532.06,92L532.51,74.73L532.8,74.73L532.92,71.27L532.92,74.73L533.67,64.36L533.75,67.82L534.51,50.55L536.83,47.09L538.1,22.91L539.05,19.45L540,16" style="vector-effect: none; fill: none; stroke: rgb(44, 160, 44); stroke-opacity: 1; stroke-width: 2px; opacity: 1;"/></g><g class="points"/><g class="text"/></g></g></g></g><g class="zerolinelayer-above"/><path class="xlines-above crisp" d="M0,0" style="fill: none;"/><path class="ylines-above crisp" d="M0,0" style="fill: none;"/><g class="overlines-above"/><g class="xaxislayer-above"><g class="xtick"><text text-anchor="middle" x="0" y="439" transform="translate(96.96000000000001,0)" style="font-family: 'Open Sans'; font-size: 18px; fill: rgb(0, 0, 0); fill-opacity: 1; white-space: pre;">2016</text></g><g class="xtick"><text text-anchor="middle" x="0" y="439" style="font-family: 'Open Sans'; font-size: 18px; fill: rgb(0, 0, 0); fill-opacity: 1; white-space: pre;" transform="translate(200.79000000000002,0)">2018</text></g><g class="xtick"><text text-anchor="middle" x="0" y="439" style="font-family: 'Open Sans'; font-size: 18px; fill: rgb(0, 0, 0); fill-opacity: 1; white-space: pre;" transform="translate(304.48,0)">2020</text></g><g class="xtick"><text text-anchor="middle" x="0" y="439" style="font-family: 'Open Sans'; font-size: 18px; fill: rgb(0, 0, 0); fill-opacity: 1; white-space: pre;" transform="translate(408.31,0)">2022</text></g><g class="xtick"><text text-anchor="middle" x="0" y="439" style="font-family: 'Open Sans'; font-size: 18px; fill: rgb(0, 0, 0); fill-opacity: 1; white-space: pre;" transform="translate(512,0)">2024</text></g><g class="xtick"><text text-anchor="middle" x="0" y="439" style="font-family: 'Open Sans'; font-size: 18px; fill: rgb(0, 0, 0); fill-opacity: 1; white-space: pre;" transform="translate(615.83,0)">2026</text></g></g><g class="yaxislayer-above"><g class="ytick"><text text-anchor="end" x="79" y="6.3" transform="translate(0,420)" style="font-family: 'Open Sans'; font-size: 18px; fill: rgb(0, 0, 0); fill-opacity: 1; white-space: pre;">0</text></g><g class="ytick"><text text-anchor="end" x="79" y="6.3" style="font-family: 'Open Sans'; font-size: 18px; fill: rgb(0, 0, 0); fill-opacity: 1; white-space: pre;" transform="translate(0,350.90999999999997)">20</text></g><g class="ytick"><text text-anchor="end" x="79" y="6.3" style="font-family: 'Open Sans'; font-size: 18px; fill: rgb(0, 0, 0); fill-opacity: 1; white-space: pre;" transform="translate(0,281.82)">40</text></g><g class="ytick"><text text-anchor="end" x="79" y="6.3" style="font-family: 'Open Sans'; font-size: 18px; fill: rgb(0, 0, 0); fill-opacity: 1; white-space: pre;" transform="translate(0,212.73000000000002)">60</text></g><g class="ytick"><text text-anchor="end" x="79" y="6.3" style="font-family: 'Open Sans'; font-size: 18px; fill: rgb(0, 0, 0); fill-opacity: 1; white-space: pre;" transform="translate(0,143.64)">80</text></g></g><g class="overaxes-above"/></g></g><g class="polarlayer"/><g class="smithlayer"/><g class="ternarylayer"/><g class="geolayer"/><g class="funnelarealayer"/><g class="pielayer"/><g class="iciclelayer"/><g class="treemaplayer"/><g class="sunburstlayer"/><g class="glimages"/><defs id="topdefs-0f7f64"><g class="clips"/></defs><g class="layer-above"><g class="imagelayer"/><g class="shapelayer"/></g><g class="infolayer"><g class="g-gtitle"><text class="gtitle" x="35" y="50" text-anchor="start" dy="0em" style="opacity: 1; font-family: 'Open Sans'; font-size: 25px; fill: rgb(0, 0, 0); fill-opacity: 1; white-space: pre;">MultiQC/MultiQC - Open Pull Requests Over Time</text></g><g class="g-xtitle"><text class="xtitle" x="350" y="472.9" text-anchor="middle" style="opacity: 1; font-family: 'Open Sans'; font-size: 22px; fill: rgb(0, 0, 0); fill-opacity: 1; white-space: pre;">Date</text></g><g class="g-ytitle"><text class="ytitle" transform="rotate(-90,38.8,260)" x="38.8" y="260" text-anchor="middle" style="opacity: 1; font-family: 'Open Sans'; font-size: 22px; fill: rgb(0, 0, 0); fill-opacity: 1; white-space: pre;">Number of Open PRs</text></g></g></svg>