<svg class="main-svg" xmlns="http://www.w3.org/2000/svg" xmlns:xlink="http://www.w3.org/1999/xlink" width="700" height="500" style="" viewBox="0 0 700 500"><rect x="0" y="0" width="700" height="500" style="fill: rgb(0, 0, 0); fill-opacity: 0;"/><defs id="defs-e142cc"><g class="clips"><clipPath id="clipe142ccxyplot" class="plotclip"><rect width="540" height="320"/></clipPath><clipPath class="axesclip" id="clipe142ccx"><rect x="80" y="0" width="540" height="500"/></clipPath><clipPath class="axesclip" id="clipe142ccy"><rect x="0" y="100" width="700" height="320"/></clipPath><clipPath class="axesclip" id="clipe142ccxy"><rect x="80" y="100" width="540" height="320"/></clipPath></g><g class="gradients"/><g class="patterns"/></defs><g class="bglayer"><rect class="bg" x="80" y="100" width="540" height="320" style="fill: rgb(0, 0, 0); fill-opacity: 0; stroke-width: 0;"/></g><g class="layer-below"><g class="imagelayer"/><g class="shapelayer"/></g><g class="cartesianlayer"><g class="subplot xy"><g class="layer-subplot"><g class="shapelayer"/><g class="imagelayer"/></g><g class="minor-gridlayer"><g class="x"/><g class="y"/></g><g class="gridlayer"><g class="x"><path class="xgrid crisp" transform="translate(96.93,0)" d="M0,100v320" style="stroke: rgb(255, 255, 255); stroke-opacity: 1; stroke-width: 1px;"/><path class="xgrid crisp" transform="translate(200.62,0)" d="M0,100v320" style="stroke: rgb(255, 255, 255); stroke-opacity: 1; stroke-width: 1px;"/><path class="xgrid crisp" transform="translate(304.15999999999997,0)" d="M0,100v320" style="stroke: rgb(255, 255, 255); stroke-opacity: 1; stroke-width: 1px;"/><path class="xgrid crisp" transform="translate(407.85,0)" d="M0,100v320" style="stroke: rgb(255, 255, 255); stroke-opacity: 1; stroke-width: 1px;"/><path class="xgrid crisp" transform="translate(511.39,0)" d="M0,100v320" style="stroke: rgb(255, 255, 255); stroke-opacity: 1; stroke-width: 1px;"/><path class="xgrid crisp" transform="translate(615.07,0)" d="M0,100v320" style="stroke: rgb(255, 255, 255); stroke-opacity: 1; stroke-width: 1px;"/></g><g class="y"><path class="ygrid crisp" transform="translate(0,383.04)" d="M80,0h540" style="stroke: rgb(255, 255, 255); stroke-opacity: 1; stroke-width: 1px;"/><path class="ygrid crisp" transform="translate(0,346.08000000000004)" d="M80,0h540" style="stroke: rgb(255, 255, 255); stroke-opacity: 1; stroke-width: 1px;"/><path class="ygrid crisp" transform="translate(0,309.12)" d="M80,0h540" style="stroke: rgb(255, 255, 255); stroke-opacity: 1; stroke-width: 1px;"/><path class="ygrid crisp" transform="translate(0,272.15999999999997)" d="M80,0h540" style="stroke: rgb(255, 255, 255); stroke-opacity: 1; stroke-width: 1px;"/><path class="ygrid crisp" transform="translate(0,235.2)" d="M80,0h540" style="stroke: rgb(255, 255, 255); stroke-opacity: 1; stroke-width: 1px;"/><path class="ygrid crisp" transform="translate(0,198.24)" d="M80,0h540" style="stroke: rgb(255, 255, 255); stroke-opacity: 1; stroke-width: 1px;"/><path class="ygrid crisp" transform="translate(0,161.28)" d="M80,0h540" style="stroke: rgb(255, 255, 255); stroke-opacity: 1; stroke-width: 1px;"/><path class="ygrid crisp" transform="translate(0,124.32)" d="M80,0h540" style="stroke: rgb(255, 255, 255); stroke-opacity: 1; stroke-width: 1px;"/></g></g><g class="zerolinelayer"><path class="yzl zl crisp" transform="translate(0,420)" d="M80,0h540" style="stroke: rgb(255, 255, 255); stroke-opacity: 1; stroke-width: 2px;"/></g><g class="layer-between"><g class="shapelayer"/><g class="imagelayer"/></g><path class="xlines-below"/><path class="ylines-below"/><g class="overlines-below"/><g class="xaxislayer-below"/><g class="yaxislayer-below"/><g class="overaxes-below"/><g class="overplot"><g class="xy" transform="translate(80,100)" clip-path="url(#clipe142ccxyplot)"><g class="scatterlayer mlayer"><g class="trace scatter tracee5cdf7" style="stroke-miterlimit: 2;"><g class="fills"><g><path class="js-fill" d="M540,320L0,320L0,319.82L3.53,318.52L3.82,318.34L5.8,317.23L6.11,317.04L14.47,315.56L21.84,315.38L22.04,315.2L23.65,315.01L23.65,314.83L26.64,314.64L34.78,312.24L35.18,312.05L43.59,310.21L43.68,310.02L43.72,309.47L44.66,309.28L45.24,308.91L46.5,308.73L58.79,307.43L59.9,307.25L67.21,305.03L67.26,304.85L68.07,303.92L68.91,303.74L70.35,303L74.87,302.81L78.99,301.89L80.19,301.7L85.1,300.04L85.1,299.86L95.94,298.19L96.28,298.01L97.3,297.08L97.31,296.9L98,294.5L98.41,294.31L98.84,293.94L99.43,293.76L101.11,292.46L101.25,292.28L101.84,291.36L102.81,291.17L103.96,289.88L104.07,289.69L104.82,288.95L105.78,288.77L109.01,286.92L109.01,286.74L109.51,286.18L110.78,286L110.91,285.81L112.9,285.63L112.91,285.44L114.01,285.26L121.67,283.96L121.96,283.78L122.28,283.22L123.11,283.04L130.05,281.38L130.06,281.19L130.93,280.45L131.92,280.27L135.57,278.6L135.91,278.42L136.59,277.5L136.71,277.31L141.64,276.02L141.84,275.83L145.71,274.72L145.94,274.54L146.95,273.98L148.82,273.8L148.91,273.61L150.51,273.43L153.04,272.51L154.62,272.32L170.9,269.73L170.92,269.55L181.16,268.26L181.17,268.07L181.82,266.96L183.36,266.78L183.69,266.04L185.35,265.85L185.85,265.3L188.05,265.11L212.51,261.97L213.23,261.79L213.63,260.86L215.04,260.68L219.09,259.57L220.26,259.38L233.05,256.98L233.06,256.8L233.86,256.06L234.15,255.87L236.73,254.58L236.98,254.4L237.45,253.29L238.04,253.1L238.15,252.92L239.44,252.73L241.42,251.44L242.08,251.25L243.38,250.33L244.08,250.14L244.08,249.96L245.07,249.78L245.79,248.3L246.06,248.11L247.09,247.37L247.92,247.19L252.21,245.52L256.78,245.34L257.13,244.97L259.02,244.79L262.72,243.31L262.83,243.12L264.14,242.01L266.2,241.83L266.27,241.46L267.3,241.27L272.16,239.61L273.85,239.43L274.04,239.24L275.79,239.06L275.79,238.87L276.75,238.69L276.94,238.5L278.31,238.32L283.74,237.21L283.8,237.02L296.09,234.44L296.87,234.25L299.57,233.33L299.96,233.14L299.97,232.96L301.11,232.77L301.98,231.29L302,231.11L304.37,229.26L304.42,229.08L308.36,227.23L308.46,227.04L308.79,225.57L310.98,225.38L319.36,223.9L320.02,223.72L320.19,222.98L320.86,222.79L322.74,221.13L325.2,220.95L325.69,220.58L326.94,220.39L335.46,218.73L335.48,218.54L336.32,218.17L337.58,217.99L342.68,216.14L342.76,215.96L350.15,214.85L350.16,214.66L353.01,213.37L353.59,213.18L359.19,211.15L359.23,210.97L360.26,210.23L362.08,210.04L365.17,208.75L366.09,208.56L372.32,207.27L372.44,207.09L377.35,204.5L377.41,204.31L378.05,203.2L378.99,203.02L381.74,201.36L384.21,201.17L384.83,200.62L388.63,200.43L392.3,198.95L394.14,198.77L394.28,198.4L395.73,198.22L395.86,197.11L399.83,196.92L400.68,196.37L402.79,196.18L407.07,195.07L408.58,194.89L410.23,193.96L410.84,193.78L412.18,191.01L412.63,190.82L413.22,189.16L413.57,188.98L414.45,186.76L414.62,186.57L414.9,186.02L415.57,185.83L418.02,178.81L418.43,178.63L420.53,175.11L420.53,174.93L421.53,172.16L421.84,171.97L424.65,169.2L424.65,169.02L425.09,167.35L425.12,167.17L427.5,165.32L427.52,165.14L427.75,164.4L428.62,164.21L429.62,159.96L430.8,159.78L431.09,159.22L431.76,159.04L434.72,156.45L434.74,156.27L434.79,155.9L435.64,155.71L437.04,153.12L437.05,152.94L437.42,152.01L437.42,151.83L438,149.43L438.23,149.24L439.68,142.59L439.69,142.4L440.54,139.63L440.66,139.45L441.3,137.6L441.98,137.42L442.55,136.49L442.56,136.31L443.82,134.27L444.93,134.09L446.4,132.06L446.51,131.87L449.62,126.14L449.63,125.96L450.66,123L450.88,122.82L451.33,121.15L451.78,120.97L452.78,120.04L452.78,119.86L453.1,118.38L453.63,118.2L454.16,117.46L454.46,117.27L455.58,115.05L455.58,114.87L456.47,111.17L456.56,110.99L457.85,108.77L458.26,108.59L459.41,106.55L459.56,106.37L460.81,103.23L460.81,103.04L461.84,101.93L462,101.75L464.36,95.28L464.36,95.1L464.8,93.99L465.63,93.8L466.57,92.88L466.63,92.69L467.36,90.48L467.48,90.29L470.6,81.24L471.21,81.05L474.02,78.28L474.02,78.09L474.59,77.17L475.75,76.98L476.46,75.88L476.7,75.69L477.85,73.1L477.98,72.92L481.16,68.67L481.16,68.48L481.73,66.82L482.59,66.64L486.26,64.79L486.27,64.6L488.55,60.17L489.72,59.98L490.62,59.06L491.06,58.87L492.32,57.4L493.16,57.21L496.04,54.62L496.63,54.44L500.15,51.67L500.25,51.48L500.46,50.56L501.1,50.37L506.24,44.27L506.8,44.09L509.18,42.8L509.19,42.61L509.94,40.21L510.17,40.02L513.37,37.99L515.6,37.81L516.29,35.59L516.41,35.4L517.14,34.85L517.42,34.67L518.14,33.37L518.18,33.19L520.15,30.23L522.07,30.04L525.11,29.12L525.26,28.94L526.27,27.64L527.26,27.46L530.33,25.61L530.34,25.42L531.04,23.95L531.31,23.76L532.05,20.99L532.16,20.8L533.75,18.77L533.76,18.59L536.86,17.66L536.88,17.48L537.34,16.55L538.29,16.37L540,16" style="fill: rgb(44, 160, 44); fill-opacity: 0.5; stroke-width: 0;"/></g></g><g class="errorbars"/><g class="lines"><path class="js-line" d="M0,319.82L3.53,318.52L3.82,318.34L5.8,317.23L6.11,317.04L14.47,315.56L21.84,315.38L22.04,315.2L23.65,315.01L23.65,314.83L26.64,314.64L34.78,312.24L35.18,312.05L43.59,310.21L43.68,310.02L43.72,309.47L44.66,309.28L45.24,308.91L46.5,308.73L58.79,307.43L59.9,307.25L67.21,305.03L67.26,304.85L68.07,303.92L68.91,303.74L70.35,303L74.87,302.81L78.99,301.89L80.19,301.7L85.1,300.04L85.1,299.86L95.94,298.19L96.28,298.01L97.3,297.08L97.31,296.9L98,294.5L98.41,294.31L98.84,293.94L99.43,293.76L101.11,292.46L101.25,292.28L101.84,291.36L102.81,291.17L103.96,289.88L104.07,289.69L104.82,288.95L105.78,288.77L109.01,286.92L109.01,286.74L109.51,286.18L110.78,286L110.91,285.81L112.9,285.63L112.91,285.44L114.01,285.26L121.67,283.96L121.96,283.78L122.28,283.22L123.11,283.04L130.05,281.38L130.06,281.19L130.93,280.45L131.92,280.27L135.57,278.6L135.91,278.42L136.59,277.5L136.71,277.31L141.64,276.02L141.84,275.83L145.71,274.72L145.94,274.54L146.95,273.98L148.82,273.8L148.91,273.61L150.51,273.43L153.04,272.51L154.62,272.32L170.9,269.73L170.92,269.55L181.16,268.26L181.17,268.07L181.82,266.96L183.36,266.78L183.69,266.04L185.35,265.85L185.85,265.3L188.05,265.11L212.51,261.97L213.23,261.79L213.63,260.86L215.04,260.68L219.09,259.57L220.26,259.38L233.05,256.98L233.06,256.8L233.86,256.06L234.15,255.87L236.73,254.58L236.98,254.4L237.45,253.29L238.04,253.1L238.15,252.92L239.44,252.73L241.42,251.44L242.08,251.25L243.38,250.33L244.08,250.14L244.08,249.96L245.07,249.78L245.79,248.3L246.06,248.11L247.09,247.37L247.92,247.19L252.21,245.52L256.78,245.34L257.13,244.97L259.02,244.79L262.72,243.31L262.83,243.12L264.14,242.01L266.2,241.83L266.27,241.46L267.3,241.27L272.16,239.61L273.85,239.43L274.04,239.24L275.79,239.06L275.79,238.87L276.75,238.69L276.94,238.5L278.31,238.32L283.74,237.21L283.8,237.02L296.09,234.44L296.87,234.25L299.57,233.33L299.96,233.14L299.97,232.96L301.11,232.77L301.98,231.29L302,231.11L304.37,229.26L304.42,229.08L308.36,227.23L308.46,227.04L308.79,225.57L310.98,225.38L319.36,223.9L320.02,223.72L320.19,222.98L320.86,222.79L322.74,221.13L325.2,220.95L325.69,220.58L326.94,220.39L335.46,218.73L335.48,218.54L336.32,218.17L337.58,217.99L342.68,216.14L342.76,215.96L350.15,214.85L350.16,214.66L353.01,213.37L353.59,213.18L359.19,211.15L359.23,210.97L360.26,210.23L362.08,210.04L365.17,208.75L366.09,208.56L372.32,207.27L372.44,207.09L377.35,204.5L377.41,204.31L378.05,203.2L378.99,203.02L381.74,201.36L384.21,201.17L384.83,200.62L388.63,200.43L392.3,198.95L394.14,198.77L394.28,198.4L395.73,198.22L395.86,197.11L399.83,196.92L400.68,196.37L402.79,196.18L407.07,195.07L408.58,194.89L410.23,193.96L410.84,193.78L412.18,191.01L412.63,190.82L413.22,189.16L413.57,188.98L414.45,186.76L414.62,186.57L414.9,186.02L415.57,185.83L418.02,178.81L418.43,178.63L420.53,175.11L420.53,174.93L421.53,172.16L421.84,171.97L424.65,169.2L424.65,169.02L425.09,167.35L425.12,167.17L427.5,165.32L427.52,165.14L427.75,164.4L428.62,164.21L429.62,159.96L430.8,159.78L431.09,159.22L431.76,159.04L434.72,156.45L434.74,156.27L434.79,155.9L435.64,155.71L437.04,153.12L437.05,152.94L437.42,152.01L437.42,151.83L438,149.43L438.23,149.24L439.68,142.59L439.69,142.4L440.54,139.63L440.66,139.45L441.3,137.6L441.98,137.42L442.55,136.49L442.56,136.31L443.82,134.27L444.93,134.09L446.4,132.06L446.51,131.87L449.62,126.14L449.63,125.96L450.66,123L450.88,122.82L451.33,121.15L451.78,120.97L452.78,120.04L452.78,119.86L453.1,118.38L453.63,118.2L454.16,117.46L454.46,117.27L455.58,115.05L455.58,114.87L456.47,111.17L456.56,110.99L457.85,108.77L458.26,108.59L459.41,106.55L459.56,106.37L460.81,103.23L460.81,103.04L461.84,101.93L462,101.75L464.36,95.28L464.36,95.1L464.8,93.99L465.63,93.8L466.57,92.88L466.63,92.69L467.36,90.48L467.48,90.29L470.6,81.24L471.21,81.05L474.02,78.28L474.02,78.09L474.59,77.17L475.75,76.98L476.46,75.88L476.7,75.69L477.85,73.1L477.98,72.92L481.16,68.67L481.16,68.48L481.73,66.82L482.59,66.64L486.26,64.79L486.27,64.6L488.55,60.17L489.72,59.98L490.62,59.06L491.06,58.87L492.32,57.4L493.16,57.21L496.04,54.62L496.63,54.44L500.15,51.67L500.25,51.48L500.46,50.56L501.1,50.37L506.24,44.27L506.8,44.09L509.18,42.8L509.19,42.61L509.94,40.21L510.17,40.02L513.37,37.99L515.6,37.81L516.29,35.59L516.41,35.4L517.14,34.85L517.42,34.67L518.14,33.37L518.18,33.19L520.15,30.23L522.07,30.04L525.11,29.12L525.26,28.94L526.27,27.64L527.26,27.46L530.33,25.61L530.34,25.42L531.04,23.95L531.31,23.76L532.05,20.99L532.16,20.8L533.75,18.77L533.76,18.59L536.86,17.66L536.88,17.48L537.34,16.55L538.29,16.37L540,16" style="vector-effect: none; fill: none; stroke: rgb(44, 160, 44); stroke-opacity: 1; stroke-width: 2px; opacity: 1;"/></g><g class="points"/><g class="text"/></g></g></g></g><g class="zerolinelayer-above"/><path class="xlines-above crisp" d="M0,0" style="fill: none;"/><path class="ylines-above crisp" d="M0,0" style="fill: none;"/><g class="overlines-above"/><g class="xaxislayer-above"><g class="xtick"><text text-anchor="middle" x="0" y="439" transform="translate(96.93,0)" style="font-family: 'Open Sans'; font-size: 18px; fill: rgb(255, 255, 255); fill-opacity: 1; white-space: pre;">2016</text></g><g class="xtick"><text text-anchor="middle" x="0" y="439" style="font-family: 'Open Sans'; font-size: 18px; fill: rgb(255, 255, 255); fill-opacity: 1; white-space: pre;" transform="translate(200.62,0)">2018</text></g><g class="xtick"><text text-anchor="middle" x="0" y="439" style="font-family: 'Open Sans'; font-size: 18px; fill: rgb(255, 255, 255); fill-opacity: 1; white-space: pre;" transform="translate(304.15999999999997,0)">2020</text></g><g class="xtick"><text text-anchor="middle" x="0" y="439" style="font-family: 'Open Sans'; font-size: 18px; fill: rgb(255, 255, 255); fill-opacity: 1; white-space: pre;" transform="translate(407.85,0)">2022</text></g><g class="xtick"><text text-anchor="middle" x="0" y="439" style="font-family: 'Open Sans'; font-size: 18px; fill: rgb(255, 255, 255); fill-opacity: 1; white-space: pre;" transform="translate(511.39,0)">2024</text></g><g class="xtick"><text text-anchor="middle" x="0" y="439" style="font-family: 'Open Sans'; font-size: 18px; fill: rgb(255, 255, 255); fill-opacity: 1; white-space: pre;" transform="translate(615.07,0)">2026</text></g></g><g class="yaxislayer-above"><g class="ytick"><text text-anchor="end" x="79" y="6.3" transform="translate(0,420)" style="font-family: 'Open Sans'; font-size: 18px; fill: rgb(255, 255, 255); fill-opacity: 1; white-space: pre;">0</text></g><g class="ytick"><text text-anchor="end" x="79" y="6.3" style="font-family: 'Open Sans'; font-size: 18px; fill: rgb(255, 255, 255); fill-opacity: 1; white-space: pre;" transform="translate(0,383.04)">200</text></g><g class="ytick"><text text-anchor="end" x="79" y="6.3" style="font-family: 'Open Sans'; font-size: 18px; fill: rgb(255, 255, 255); fill-opacity: 1; white-space: pre;" transform="translate(0,346.08000000000004)">400</text></g><g class="ytick"><text text-anchor="end" x="79" y="6.3" style="font-family: 'Open Sans'; font-size: 18px; fill: rgb(255, 255, 255); fill-opacity: 1; white-space: pre;" transform="translate(0,309.12)">600</text></g><g class="ytick"><text text-anchor="end" x="79" y="6.3" style="font-family: 'Open Sans'; font-size: 18px; fill: rgb(255, 255, 255); fill-opacity: 1; white-space: pre;" transform="translate(0,272.15999999999997)">800</text></g><g class="ytick"><text text-anchor="end" x="79" y="6.3" style="font-family: 'Open Sans'; font-size: 18px; fill: rgb(255, 255, 255); fill-opacity: 1; white-space: pre;" transform="translate(0,235.2)">1000</text></g><g class="ytick"><text text-anchor="end" x="79" y="6.3" style="font-family: 'Open Sans'; font-size: 18px; fill: rgb(255, 255, 255); fill-opacity: 1; white-space: pre;" transform="translate(0,198.24)">1200</text></g><g class="ytick"><text text-anchor="end" x="79" y="6.3" style="font-family: 'Open Sans'; font-size: 18px; fill: rgb(255, 255, 255); fill-opacity: 1; white-space: pre;" transform="translate(0,161.28)">1400</text></g><g class="ytick"><text text-anchor="end" x="79" y="6.3" style="font-family: 'Open Sans'; font-size: 18px; fill: rgb(255, 255, 255); fill-opacity: 1; white-space: pre;" transform="translate(0,124.32)">1600</text></g></g><g class="overaxes-above"/></g></g><g class="polarlayer"/><g class="smithlayer"/><g class="ternarylayer"/><g class="geolayer"/><g class="funnelarealayer"/><g class="pielayer"/><g class="iciclelayer"/><g class="treemaplayer"/><g class="sunburstlayer"/><g class="glimages"/><defs id="topdefs-e142cc"><g class="clips"/></defs><g class="layer-above"><g class="imagelayer"/><g class="shapelayer"/></g><g class="infolayer"><g class="g-gtitle"><text class="gtitle" x="35" y="50" text-anchor="start" dy="0em" style="opacity: 1; font-family: 'Open Sans'; font-size: 25px; fill: rgb(255, 255, 255); fill-opacity: 1; white-space: pre;">MultiQC/MultiQC - Pull Requests Created Over Time</text></g><g class="g-xtitle"><text class="xtitle" x="350" y="472.9" text-anchor="middle" style="opacity: 1; font-family: 'Open Sans'; font-size: 22px; fill: rgb(255, 255, 255); fill-opacity: 1; white-space: pre;">Date</text></g><g class="g-ytitle"><text class="ytitle" transform="rotate(-90,20.799999999999997,260)" x="20.799999999999997" y="260" text-anchor="middle" style="opacity: 1; font-family: 'Open Sans'; font-size: 22px; fill: rgb(255, 255, 255); fill-opacity: 1; white-space: pre;">Cumulative PRs Created</text></g></g></svg>