<svg class="main-svg" xmlns="http://www.w3.org/2000/svg" xmlns:xlink="http://www.w3.org/1999/xlink" width="700" height="500" style="" viewBox="0 0 700 500"><rect x="0" y="0" width="700" height="500" style="fill: rgb(0, 0, 0); fill-opacity: 0;"/><defs id="defs-0e43eb"><g class="clips"><clipPath id="clip0e43ebxyplot" class="plotclip"><rect width="540" height="320"/></clipPath><clipPath class="axesclip" id="clip0e43ebx"><rect x="80" y="0" width="540" height="500"/></clipPath><clipPath class="axesclip" id="clip0e43eby"><rect x="0" y="100" width="700" height="320"/></clipPath><clipPath class="axesclip" id="clip0e43ebxy"><rect x="80" y="100" width="540" height="320"/></clipPath></g><g class="gradients"/><g class="patterns"/></defs><g class="bglayer"><rect class="bg" x="80" y="100" width="540" height="320" style="fill: rgb(0, 0, 0); fill-opacity: 0; stroke-width: 0;"/></g><g class="layer-below"><g class="imagelayer"/><g class="shapelayer"/></g><g class="cartesianlayer"><g class="subplot xy"><g class="layer-subplot"><g class="shapelayer"/><g class="imagelayer"/></g><g class="minor-gridlayer"><g class="x"/><g class="y"/></g><g class="gridlayer"><g class="x"><path class="xgrid crisp" transform="translate(97.74,0)" d="M0,100v320" style="stroke: rgb(255, 255, 255); stroke-opacity: 1; stroke-width: 1px;"/><path class="xgrid crisp" transform="translate(204.01999999999998,0)" d="M0,100v320" style="stroke: rgb(255, 255, 255); stroke-opacity: 1; stroke-width: 1px;"/><path class="xgrid crisp" transform="translate(310.15999999999997,0)" d="M0,100v320" style="stroke: rgb(255, 255, 255); stroke-opacity: 1; stroke-width: 1px;"/><path class="xgrid crisp" transform="translate(416.45,0)" d="M0,100v320" style="stroke: rgb(255, 255, 255); stroke-opacity: 1; stroke-width: 1px;"/><path class="xgrid crisp" transform="translate(522.5799999999999,0)" d="M0,100v320" style="stroke: rgb(255, 255, 255); stroke-opacity: 1; stroke-width: 1px;"/></g><g class="y"><path class="ygrid crisp" transform="translate(0,382.93)" d="M80,0h540" style="stroke: rgb(255, 255, 255); stroke-opacity: 1; stroke-width: 1px;"/><path class="ygrid crisp" transform="translate(0,345.85)" d="M80,0h540" style="stroke: rgb(255, 255, 255); stroke-opacity: 1; stroke-width: 1px;"/><path class="ygrid crisp" transform="translate(0,308.78)" d="M80,0h540" style="stroke: rgb(255, 255, 255); stroke-opacity: 1; stroke-width: 1px;"/><path class="ygrid crisp" transform="translate(0,271.71000000000004)" d="M80,0h540" style="stroke: rgb(255, 255, 255); stroke-opacity: 1; stroke-width: 1px;"/><path class="ygrid crisp" transform="translate(0,234.63)" d="M80,0h540" style="stroke: rgb(255, 255, 255); stroke-opacity: 1; stroke-width: 1px;"/><path class="ygrid crisp" transform="translate(0,197.56)" d="M80,0h540" style="stroke: rgb(255, 255, 255); stroke-opacity: 1; stroke-width: 1px;"/><path class="ygrid crisp" transform="translate(0,160.49)" d="M80,0h540" style="stroke: rgb(255, 255, 255); stroke-opacity: 1; stroke-width: 1px;"/><path class="ygrid crisp" transform="translate(0,123.41)" d="M80,0h540" style="stroke: rgb(255, 255, 255); stroke-opacity: 1; stroke-width: 1px;"/></g></g><g class="zerolinelayer"><path class="yzl zl crisp" transform="translate(0,420)" d="M80,0h540" style="stroke: rgb(255, 255, 255); stroke-opacity: 1; stroke-width: 2px;"/></g><g class="layer-between"><g class="shapelayer"/><g class="imagelayer"/></g><path class="xlines-below"/><path class="ylines-below"/><g class="overlines-below"/><g class="xaxislayer-below"/><g class="yaxislayer-below"/><g class="overaxes-below"/><g class="overplot"><g class="xy" transform="translate(80,100)" clip-path="url(#clip0e43ebxyplot)"><g class="scatterlayer mlayer"><g class="trace scatter tracecc1bfa" style="stroke-miterlimit: 2;"><g class="fills"><g><path class="js-fill" d="M540,320L0,320L0,286.63L4.36,286.63L8.87,301.46L13.23,316.29L22.25,305.17L26.46,305.17L30.97,294.05L35.33,294.05L39.84,308.88L44.2,275.51L48.71,312.59L53.21,312.59L57.58,305.17L62.08,297.76L66.45,275.51L70.95,301.46L75.46,305.17L79.53,301.46L84.04,290.34L88.4,305.17L92.91,308.88L97.27,227.32L101.78,249.56L106.28,268.1L110.65,279.22L115.15,301.46L119.52,308.88L124.02,290.34L128.53,305.17L132.6,275.51L137.11,268.1L141.47,290.34L145.98,290.34L150.34,301.46L154.85,297.76L163.72,312.59L168.22,312.59L172.58,294.05L177.09,312.59L181.6,308.88L185.67,268.1L190.18,301.46L194.54,308.88L199.05,305.17L203.41,312.59L207.92,305.17L212.42,316.29L216.79,282.93L221.29,297.76L225.65,305.17L230.16,308.88L234.67,297.76L238.89,260.68L243.39,268.1L247.75,256.98L252.26,275.51L256.62,305.17L261.13,308.88L265.64,282.93L270,282.93L274.51,290.34L278.87,301.46L283.38,305.17L287.88,297.76L291.95,301.46L300.82,301.46L305.33,264.39L309.69,264.39L314.2,256.98L318.71,308.88L323.07,305.17L327.58,256.98L331.94,305.17L336.45,312.59L340.95,286.63L345.02,297.76L349.53,294.05L353.89,305.17L358.4,282.93L362.76,286.63L367.27,286.63L371.78,290.34L376.14,305.17L380.65,286.63L385.01,249.56L389.52,294.05L394.02,305.17L398.09,286.63L402.6,282.93L406.96,305.17L411.47,305.17L415.83,294.05L420.34,179.12L424.85,149.46L429.21,168L433.72,219.9L438.08,179.12L442.58,245.85L447.09,16L451.31,197.66L455.82,205.07L460.18,119.8L464.68,164.29L469.05,156.88L473.55,142.05L478.06,93.85L482.42,212.49L491.29,212.49L495.8,216.2L500.31,264.39L504.38,242.15L508.89,242.15L513.25,223.61L517.75,268.1L522.12,212.49L526.62,245.85L531.13,238.44L535.49,268.1L540,316.29" style="fill: rgb(44, 160, 44); fill-opacity: 0.5; stroke-width: 0;"/></g></g><g class="errorbars"/><g class="lines"><path class="js-line" d="M0,286.63L4.36,286.63L8.87,301.46L13.23,316.29L22.25,305.17L26.46,305.17L30.97,294.05L35.33,294.05L39.84,308.88L44.2,275.51L48.71,312.59L53.21,312.59L57.58,305.17L62.08,297.76L66.45,275.51L70.95,301.46L75.46,305.17L79.53,301.46L84.04,290.34L88.4,305.17L92.91,308.88L97.27,227.32L101.78,249.56L106.28,268.1L110.65,279.22L115.15,301.46L119.52,308.88L124.02,290.34L128.53,305.17L132.6,275.51L137.11,268.1L141.47,290.34L145.98,290.34L150.34,301.46L154.85,297.76L163.72,312.59L168.22,312.59L172.58,294.05L177.09,312.59L181.6,308.88L185.67,268.1L190.18,301.46L194.54,308.88L199.05,305.17L203.41,312.59L207.92,305.17L212.42,316.29L216.79,282.93L221.29,297.76L225.65,305.17L230.16,308.88L234.67,297.76L238.89,260.68L243.39,268.1L247.75,256.98L252.26,275.51L256.62,305.17L261.13,308.88L265.64,282.93L270,282.93L274.51,290.34L278.87,301.46L283.38,305.17L287.88,297.76L291.95,301.46L300.82,301.46L305.33,264.39L309.69,264.39L314.2,256.98L318.71,308.88L323.07,305.17L327.58,256.98L331.94,305.17L336.45,312.59L340.95,286.63L345.02,297.76L349.53,294.05L353.89,305.17L358.4,282.93L362.76,286.63L367.27,286.63L371.78,290.34L376.14,305.17L380.65,286.63L385.01,249.56L389.52,294.05L394.02,305.17L398.09,286.63L402.6,282.93L406.96,305.17L411.47,305.17L415.83,294.05L420.34,179.12L424.85,149.46L429.21,168L433.72,219.9L438.08,179.12L442.58,245.85L447.09,16L451.31,197.66L455.82,205.07L460.18,119.8L464.68,164.29L469.05,156.88L473.55,142.05L478.06,93.85L482.42,212.49L491.29,212.49L495.8,216.2L500.31,264.39L504.38,242.15L508.89,242.15L513.25,223.61L517.75,268.1L522.12,212.49L526.62,245.85L531.13,238.44L535.49,268.1L540,316.29" style="vector-effect: none; fill: none; stroke: rgb(44, 160, 44); stroke-opacity: 1; stroke-width: 2px; opacity: 1;"/></g><g class="points"/><g class="text"/></g></g></g></g><g class="zerolinelayer-above"/><path class="xlines-above crisp" d="M0,0" style="fill: none;"/><path class="ylines-above crisp" d="M0,0" style="fill: none;"/><g class="overlines-above"/><g class="xaxislayer-above"><g class="xtick"><text text-anchor="middle" x="0" y="439" transform="translate(97.74,0)" style="font-family: 'Open Sans'; font-size: 18px; fill: rgb(255, 255, 255); fill-opacity: 1; white-space: pre;">2016</text></g><g class="xtick"><text text-anchor="middle" x="0" y="439" style="font-family: 'Open Sans'; font-size: 18px; fill: rgb(255, 255, 255); fill-opacity: 1; white-space: pre;" transform="translate(204.01999999999998,0)">2018</text></g><g class="xtick"><text text-anchor="middle" x="0" y="439" style="font-family: 'Open Sans'; font-size: 18px; fill: rgb(255, 255, 255); fill-opacity: 1; white-space: pre;" transform="translate(310.15999999999997,0)">2020</text></g><g class="xtick"><text text-anchor="middle" x="0" y="439" style="font-family: 'Open Sans'; font-size: 18px; fill: rgb(255, 255, 255); fill-opacity: 1; white-space: pre;" transform="translate(416.45,0)">2022</text></g><g class="xtick"><text text-anchor="middle" x="0" y="439" style="font-family: 'Open Sans'; font-size: 18px; fill: rgb(255, 255, 255); fill-opacity: 1; white-space: pre;" transform="translate(522.5799999999999,0)">2024</text></g></g><g class="yaxislayer-above"><g class="ytick"><text text-anchor="end" x="79" y="6.3" transform="translate(0,420)" style="font-family: 'Open Sans'; font-size: 18px; fill: rgb(255, 255, 255); fill-opacity: 1; white-space: pre;">0</text></g><g class="ytick"><text text-anchor="end" x="79" y="6.3" style="font-family: 'Open Sans'; font-size: 18px; fill: rgb(255, 255, 255); fill-opacity: 1; white-space: pre;" transform="translate(0,382.93)">10</text></g><g class="ytick"><text text-anchor="end" x="79" y="6.3" style="font-family: 'Open Sans'; font-size: 18px; fill: rgb(255, 255, 255); fill-opacity: 1; white-space: pre;" transform="translate(0,345.85)">20</text></g><g class="ytick"><text text-anchor="end" x="79" y="6.3" style="font-family: 'Open Sans'; font-size: 18px; fill: rgb(255, 255, 255); fill-opacity: 1; white-space: pre;" transform="translate(0,308.78)">30</text></g><g class="ytick"><text text-anchor="end" x="79" y="6.3" style="font-family: 'Open Sans'; font-size: 18px; fill: rgb(255, 255, 255); fill-opacity: 1; white-space: pre;" transform="translate(0,271.71000000000004)">40</text></g><g class="ytick"><text text-anchor="end" x="79" y="6.3" style="font-family: 'Open Sans'; font-size: 18px; fill: rgb(255, 255, 255); fill-opacity: 1; white-space: pre;" transform="translate(0,234.63)">50</text></g><g class="ytick"><text text-anchor="end" x="79" y="6.3" style="font-family: 'Open Sans'; font-size: 18px; fill: rgb(255, 255, 255); fill-opacity: 1; white-space: pre;" transform="translate(0,197.56)">60</text></g><g class="ytick"><text text-anchor="end" x="79" y="6.3" style="font-family: 'Open Sans'; font-size: 18px; fill: rgb(255, 255, 255); fill-opacity: 1; white-space: pre;" transform="translate(0,160.49)">70</text></g><g class="ytick"><text text-anchor="end" x="79" y="6.3" style="font-family: 'Open Sans'; font-size: 18px; fill: rgb(255, 255, 255); fill-opacity: 1; white-space: pre;" transform="translate(0,123.41)">80</text></g></g><g class="overaxes-above"/></g></g><g class="polarlayer"/><g class="smithlayer"/><g class="ternarylayer"/><g class="geolayer"/><g class="funnelarealayer"/><g class="pielayer"/><g class="iciclelayer"/><g class="treemaplayer"/><g class="sunburstlayer"/><g class="glimages"/><defs id="topdefs-0e43eb"><g class="clips"/></defs><g class="layer-above"><g class="imagelayer"/><g class="shapelayer"/></g><g class="infolayer"><g class="g-gtitle"><text class="gtitle" x="35" y="50" text-anchor="start" dy="0em" style="opacity: 1; font-family: 'Open Sans'; font-size: 25px; fill: rgb(255, 255, 255); fill-opacity: 1; white-space: pre;">MultiQC/MultiQC - New Pull Requests Per Month</text></g><g class="g-xtitle"><text class="xtitle" x="350" y="472.9" text-anchor="middle" style="opacity: 1; font-family: 'Open Sans'; font-size: 22px; fill: rgb(255, 255, 255); fill-opacity: 1; white-space: pre;">Month</text></g><g class="g-ytitle"><text class="ytitle" transform="rotate(-90,38.8,260)" x="38.8" y="260" text-anchor="middle" style="opacity: 1; font-family: 'Open Sans'; font-size: 22px; fill: rgb(255, 255, 255); fill-opacity: 1; white-space: pre;">New PRs Created</text></g></g></svg>