<svg class="main-svg" xmlns="http://www.w3.org/2000/svg" xmlns:xlink="http://www.w3.org/1999/xlink" width="700" height="500" style="" viewBox="0 0 700 500"><rect x="0" y="0" width="700" height="500" style="fill: rgb(0, 0, 0); fill-opacity: 0;"/><defs id="defs-9ccf8c"><g class="clips"><clipPath id="clip9ccf8cxyplot" class="plotclip"><rect width="540" height="320"/></clipPath><clipPath class="axesclip" id="clip9ccf8cx"><rect x="80" y="0" width="540" height="500"/></clipPath><clipPath class="axesclip" id="clip9ccf8cy"><rect x="0" y="100" width="700" height="320"/></clipPath><clipPath class="axesclip" id="clip9ccf8cxy"><rect x="80" y="100" width="540" height="320"/></clipPath></g><g class="gradients"/><g class="patterns"/></defs><g class="bglayer"><rect class="bg" x="80" y="100" width="540" height="320" style="fill: rgb(0, 0, 0); fill-opacity: 0; stroke-width: 0;"/></g><g class="layer-below"><g class="imagelayer"/><g class="shapelayer"/></g><g class="cartesianlayer"><g class="subplot xy"><g class="layer-subplot"><g class="shapelayer"/><g class="imagelayer"/></g><g class="minor-gridlayer"><g class="x"/><g class="y"/></g><g class="gridlayer"><g class="x"><path class="xgrid crisp" transform="translate(97.24,0)" d="M0,100v320" style="stroke: rgb(255, 255, 255); stroke-opacity: 1; stroke-width: 1px;"/><path class="xgrid crisp" transform="translate(202.81,0)" d="M0,100v320" style="stroke: rgb(255, 255, 255); stroke-opacity: 1; stroke-width: 1px;"/><path class="xgrid crisp" transform="translate(308.24,0)" d="M0,100v320" style="stroke: rgb(255, 255, 255); stroke-opacity: 1; stroke-width: 1px;"/><path class="xgrid crisp" transform="translate(413.81,0)" d="M0,100v320" style="stroke: rgb(255, 255, 255); stroke-opacity: 1; stroke-width: 1px;"/><path class="xgrid crisp" transform="translate(519.23,0)" d="M0,100v320" style="stroke: rgb(255, 255, 255); stroke-opacity: 1; stroke-width: 1px;"/></g><g class="y"><path class="ygrid crisp" transform="translate(0,370.97)" d="M80,0h540" style="stroke: rgb(255, 255, 255); stroke-opacity: 1; stroke-width: 1px;"/><path class="ygrid crisp" transform="translate(0,321.94)" d="M80,0h540" style="stroke: rgb(255, 255, 255); stroke-opacity: 1; stroke-width: 1px;"/><path class="ygrid crisp" transform="translate(0,272.9)" d="M80,0h540" style="stroke: rgb(255, 255, 255); stroke-opacity: 1; stroke-width: 1px;"/><path class="ygrid crisp" transform="translate(0,223.87)" d="M80,0h540" style="stroke: rgb(255, 255, 255); stroke-opacity: 1; stroke-width: 1px;"/><path class="ygrid crisp" transform="translate(0,174.84)" d="M80,0h540" style="stroke: rgb(255, 255, 255); stroke-opacity: 1; stroke-width: 1px;"/><path class="ygrid crisp" transform="translate(0,125.81)" d="M80,0h540" style="stroke: rgb(255, 255, 255); stroke-opacity: 1; stroke-width: 1px;"/></g></g><g class="zerolinelayer"><path class="yzl zl crisp" transform="translate(0,420)" d="M80,0h540" style="stroke: rgb(255, 255, 255); stroke-opacity: 1; stroke-width: 2px;"/></g><g class="layer-between"><g class="shapelayer"/><g class="imagelayer"/></g><path class="xlines-below"/><path class="ylines-below"/><g class="overlines-below"/><g class="xaxislayer-below"/><g class="yaxislayer-below"/><g class="overaxes-below"/><g class="overplot"><g class="xy" transform="translate(80,100)" clip-path="url(#clip9ccf8cxyplot)"><g class="scatterlayer mlayer"><g class="trace scatter tracee2f337" style="stroke-miterlimit: 2;"><g class="fills"><g><path class="js-fill" d="M540,320L0,320L0,315.1L0.1,320L1.05,315.1L1.74,320L1.85,315.1L1.85,320L3.14,315.1L3.9,320L4.78,315.1L4.78,320L4.88,320L5.62,315.1L5.62,320L6.22,320L7.07,315.1L7.07,320L7.66,320L9.22,315.1L9.22,320L9.87,315.1L10.1,320L11.84,315.1L11.84,320L14.73,315.1L14.73,320L22.24,315.1L22.24,320L22.44,315.1L22.44,320L24.08,315.1L24.08,310.19L24.23,315.1L25.39,320L27.12,315.1L27.12,320L28.01,310.19L28.01,315.1L28.46,310.19L28.46,315.1L28.46,320L31.34,315.1L31.34,320L31.49,315.1L31.49,320L32.75,315.1L32.75,320L33.36,320L34.27,315.1L34.27,320L35.06,315.1L35.06,320L35.57,320L35.82,315.1L35.91,320L37.13,315.1L38.56,310.19L39,315.1L39.12,310.19L39.12,315.1L40.44,320L41.18,315.1L41.18,320L42.91,315.1L42.91,320L44.02,315.1L44.02,320L44.52,300.39L44.63,305.29L45.16,310.19L45.61,315.1L46.06,310.19L46.07,315.1L47.35,310.19L51.26,305.29L51.26,310.19L51.56,315.1L52.37,310.19L53.29,320L54.73,315.1L55.13,320L58.33,315.1L58.34,320L58.34,315.1L59.86,310.19L60.19,315.1L60.99,310.19L61.78,305.29L61.81,310.19L61.81,305.29L62.39,320L64.27,315.1L64.57,320L65.26,315.1L65.42,310.19L66.4,315.1L66.58,305.29L66.71,310.19L67.56,315.1L67.87,310.19L67.87,315.1L68.43,310.19L68.51,300.39L68.62,320L68.71,320L69.31,315.1L70.17,310.19L70.17,315.1L70.91,305.29L70.92,310.19L71.63,305.29L76.23,300.39L76.71,295.48L78.42,320L79.44,315.1L79.44,320L80.43,315.1L81.64,310.19L81.7,315.1L82.63,310.19L82.78,305.29L83.72,295.48L83.72,300.39L83.74,305.29L84.91,295.48L84.92,300.39L85.76,295.48L85.76,300.39L86.06,305.29L86.64,300.39L86.64,305.29L86.65,300.39L88.49,305.29L88.67,300.39L88.67,305.29L89.58,300.39L89.82,305.29L90.55,300.39L91.02,295.48L91.81,300.39L92.54,295.48L92.83,300.39L95.14,295.48L95.14,300.39L95.74,295.48L95.76,300.39L97.16,305.29L97.68,300.39L97.89,305.29L98.03,300.39L98.04,305.29L99.06,300.39L99.08,270.97L99.78,290.58L99.79,295.48L100.07,305.29L100.26,300.39L100.64,295.48L101.23,290.58L101.78,295.48L102.42,285.68L102.68,280.77L102.93,295.48L103.25,280.77L103.57,275.87L103.69,290.58L103.7,285.68L104.68,290.58L105.12,275.87L105.12,275.87L105.66,280.77L106.73,256.26L107.7,251.35L108.74,256.26L109.03,251.35L109.76,261.16L109.76,261.16L109.89,256.26L110.2,275.87L110.33,270.97L110.99,266.06L111.5,246.45L111.5,251.35L111.89,256.26L111.93,261.16L112.79,256.26L112.92,251.35L112.94,256.26L114.25,261.16L114.37,280.77L114.95,275.87L114.96,270.97L114.97,280.77L116.09,275.87L116.09,280.77L118.28,275.87L118.28,270.97L118.28,280.77L120.3,275.87L120.31,280.77L120.31,275.87L121.39,280.77L121.45,275.87L123.33,270.97L124.18,280.77L124.18,275.87L124.34,280.77L124.5,275.87L124.51,280.77L125.35,275.87L125.68,280.77L126.39,275.87L126.42,280.77L128.08,275.87L128.1,280.77L129.98,275.87L130.09,280.77L130.48,275.87L130.97,270.97L131.1,275.87L132,270.97L132.01,275.87L132.42,256.26L132.56,256.26L132.96,251.35L133.32,275.87L134.31,270.97L134.61,280.77L135.32,275.87L136.32,270.97L136.43,266.06L137.01,270.97L137.19,266.06L138.04,251.35L138.06,256.26L138.38,251.35L138.6,256.26L139.06,251.35L139.07,246.45L139.07,231.74L139.22,261.16L140.51,256.26L140.62,251.35L140.64,256.26L142.09,251.35L142.88,270.97L144.11,266.06L144.52,270.97L146.15,266.06L147.25,261.16L147.25,266.06L148.59,251.35L148.6,256.26L148.86,261.16L148.88,266.06L149.29,256.26L149.29,261.16L149.62,256.26L149.62,261.16L150.63,266.06L150.8,275.87L151.52,270.97L151.62,266.06L153.25,261.16L153.79,246.45L153.8,251.35L153.8,256.26L153.86,270.97L155.68,266.06L155.78,270.97L155.82,266.06L157.44,261.16L157.45,266.06L158.83,261.16L158.83,266.06L159.26,261.16L159.72,256.26L160.42,251.35L160.45,256.26L163.35,261.16L166.44,251.35L167.18,246.45L167.97,251.35L168.69,246.45L168.7,251.35L171.41,246.45L171.88,251.35L172.49,246.45L173.73,241.55L173.98,246.45L173.98,241.55L174.02,280.77L174.02,275.87L176.45,270.97L176.46,275.87L178.83,280.77L179.95,275.87L179.95,280.77L180.59,275.87L180.62,280.77L182.86,275.87L183.02,270.97L184.43,275.87L184.44,280.77L185.04,241.55L185.12,246.45L185.12,241.55L185.16,261.16L186.7,256.26L187.03,241.55L188.72,236.65L189.23,231.74L189.24,236.65L191.47,231.74L191.96,236.65L193.31,231.74L193.61,236.65L193.92,231.74L196.14,226.84L199.17,221.94L199.27,226.84L200.19,221.94L200.9,226.84L200.93,217.03L201.16,221.94L202.05,226.84L202.32,246.45L203.15,251.35L203.23,256.26L203.33,246.45L206.82,241.55L207.39,246.45L208.08,241.55L208.23,236.65L210.41,231.74L213.42,226.84L215.02,221.94L215.04,217.03L216.38,212.13L217.18,217.03L217.19,212.13L217.5,246.45L217.51,241.55L218.5,246.45L218.93,251.35L218.95,246.45L220.11,251.35L220.58,261.16L220.95,256.26L220.97,261.16L221.51,246.45L221.55,256.26L222.12,261.16L222.16,266.06L223.07,261.16L224.27,256.26L224.28,261.16L226.3,251.35L226.58,246.45L228.98,241.55L230.12,246.45L231.73,241.55L232.22,236.65L234.56,226.84L234.57,231.74L235.43,217.03L237.29,212.13L237.58,197.42L238.12,192.52L239.2,182.71L239.25,187.61L241.53,153.29L241.61,158.19L241.61,163.1L241.77,148.39L242.19,158.19L242.37,153.29L242.48,148.39L243.79,143.48L243.94,138.58L244.22,153.29L244.22,158.19L244.39,187.61L244.67,177.81L245.18,172.9L246.24,256.26L246.48,251.35L246.66,246.45L246.68,241.55L247.28,256.26L247.38,251.35L247.57,246.45L248.4,256.26L248.51,261.16L248.52,251.35L248.96,266.06L249.27,270.97L249.69,256.26L249.73,251.35L250.28,266.06L250.53,261.16L250.68,266.06L250.84,261.16L251.54,256.26L251.58,251.35L252.4,256.26L252.91,246.45L253.55,241.55L254.43,231.74L254.43,236.65L255.31,226.84L255.31,231.74L256.8,217.03L257.76,221.94L261.45,217.03L261.55,212.13L261.8,207.23L262.12,212.13L263.73,207.23L264.69,197.42L265.05,192.52L265.44,187.61L267.05,182.71L267.5,168L267.71,182.71L267.71,187.61L268.95,163.1L271.04,158.19L271.11,148.39L272.16,143.48L273.82,133.68L273.86,138.58L273.87,172.9L274.51,153.29L274.8,148.39L274.8,153.29L274.94,148.39L277.11,143.48L278.83,138.58L279.02,133.68L280.8,128.77L280.8,133.68L280.81,128.77L280.81,133.68L281.78,128.77L281.98,123.87L282.66,128.77L283.63,148.39L283.84,153.29L285.4,148.39L285.94,153.29L287.33,143.48L288.04,138.58L288.04,143.48L288.85,138.58L288.96,128.77L290.13,133.68L290.71,192.52L293.3,187.61L293.79,192.52L294.19,187.61L294.21,192.52L297.07,187.61L297.78,197.42L297.82,192.52L297.93,187.61L297.93,192.52L298.19,192.52L298.89,197.42L299.07,187.61L299.07,192.52L301.46,187.61L301.47,182.71L302.27,177.81L304.32,172.9L304.85,168L305.01,153.29L305.06,177.81L305.42,168L305.88,172.9L306.36,182.71L306.59,177.81L306.85,172.9L307.66,236.65L307.89,231.74L308.89,217.03L309.52,212.13L310.54,187.61L311.51,182.71L312.42,177.81L312.53,172.9L313.38,158.19L313.43,163.1L314.41,109.16L316.64,104.26L318.58,99.35L318.58,94.45L322.01,99.35L322.09,94.45L323.37,89.55L323.79,84.65L325.84,65.03L325.84,60.13L325.97,50.32L326.38,153.29L326.69,148.39L327.14,143.48L327.16,158.19L327.41,153.29L327.57,148.39L328.61,123.87L328.73,128.77L331.11,123.87L331.61,118.97L331.91,123.87L332.88,118.97L333.28,123.87L334.45,118.97L335.93,123.87L335.95,138.58L336.62,133.68L337.34,138.58L337.78,168L338.21,172.9L338.34,168L338.66,182.71L338.86,177.81L339.25,182.71L339.82,177.81L340.66,163.1L341.56,158.19L341.78,148.39L342.43,143.48L343.3,153.29L343.72,148.39L343.72,153.29L344.44,148.39L344.72,153.29L344.72,163.1L345.29,158.19L346.65,153.29L346.86,143.48L347.3,158.19L347.32,158.19L347.32,163.1L347.98,153.29L348.2,148.39L349,138.58L349.01,143.48L352.14,138.58L352.53,143.48L353.93,138.58L354.38,133.68L354.38,138.58L355.15,143.48L355.44,138.58L355.52,148.39L356.28,143.48L357.41,128.77L357.41,133.68L357.86,123.87L358.43,118.97L358.87,128.77L358.89,118.97L359.42,123.87L360.02,118.97L360.03,123.87L360.76,118.97L360.9,123.87L361.59,118.97L362.16,114.06L362.37,118.97L362.77,104.26L362.83,114.06L363.62,109.16L363.67,104.26L364.5,99.35L365.63,94.45L365.72,89.55L366.44,69.94L366.81,65.03L366.93,69.94L368.67,65.03L368.96,60.13L370.04,55.23L370.2,99.35L370.31,99.35L371.8,94.45L372.75,89.55L372.76,94.45L374.63,89.55L374.63,94.45L375.06,89.55L377.52,84.65L377.52,89.55L378.2,89.55L378.81,84.65L379.58,65.03L379.64,69.94L380.84,65.03L380.94,55.23L381.39,79.74L381.39,84.65L381.76,79.74L381.99,84.65L382.97,79.74L383.81,60.13L384.03,55.23L384.62,79.74L384.73,65.03L384.92,60.13L385.65,89.55L385.89,84.65L386.73,133.68L386.81,128.77L387.53,158.19L387.91,153.29L388.67,158.19L388.68,153.29L388.72,158.19L391.2,153.29L391.82,138.58L391.85,143.48L392.09,148.39L395.7,143.48L395.72,148.39L396.44,138.58L397.36,143.48L398.5,138.58L399.43,133.68L399.43,138.58L401.31,133.68L401.45,123.87L402.49,128.77L403.04,118.97L403.05,114.06L403.06,94.45L406.87,99.35L407.96,79.74L410.11,74.84L410.62,65.03L410.62,69.94L410.62,74.84L412.74,65.03L413.2,60.13L416.01,50.32L416.2,45.42L416.78,40.52L416.78,45.42L416.96,50.32L417.57,74.84L417.7,69.94L418.31,65.03L418.36,69.94L418.68,45.42L419.1,40.52L419.28,25.81L419.48,40.52L419.48,45.42L419.49,55.23L420.14,35.61L420.27,30.71L420.56,25.81L420.66,40.52L420.68,45.42L420.73,40.52L421.4,60.13L421.45,55.23L421.53,50.32L421.54,69.94L422.18,65.03L422.44,60.13L423.18,55.23L423.2,50.32L423.63,79.74L424.13,69.94L424.16,65.03L424.55,35.61L424.75,89.55L425.06,84.65L425.5,55.23L425.65,74.84L425.65,79.74L425.71,89.55L426.28,74.84L426.32,79.74L426.94,74.84L427.08,89.55L427.65,65.03L427.73,60.13L427.79,65.03L428.17,35.61L428.18,30.71L428.21,16L428.35,99.35L428.67,79.74L429.08,74.84L429.52,65.03L429.61,74.84L429.75,79.74L430.42,69.94L430.68,74.84L431.21,89.55L431.4,79.74L431.5,84.65L431.85,74.84L432.23,99.35L432.36,94.45L432.37,104.26L432.68,79.74L432.85,99.35L433.26,94.45L433.93,118.97L434.53,114.06L434.88,118.97L434.89,109.16L435.27,104.26L435.53,79.74L436.26,84.65L436.41,109.16L436.72,74.84L436.88,84.65L437.06,89.55L437.28,84.65L437.45,99.35L438.63,94.45L438.77,104.26L438.93,94.45L439.61,89.55L439.77,94.45L439.95,84.65L440.3,79.74L440.33,94.45L440.74,84.65L441.45,79.74L441.97,74.84L441.97,79.74L441.97,84.65L442.51,74.84L442.51,69.94L442.52,65.03L442.56,84.65L442.7,69.94L443.56,65.03L443.79,50.32L443.92,69.94L444,74.84L444.73,114.06L444.99,104.26L444.99,99.35L445.36,94.45L445.36,104.26L445.36,109.16L445.36,104.26L445.37,118.97L445.97,114.06L446.2,109.16L446.45,114.06L446.7,94.45L446.72,104.26L446.83,99.35L446.85,94.45L447.3,128.77L447.41,128.77L447.57,123.87L447.67,94.45L447.69,128.77L448.34,104.26L448.4,99.35L448.59,109.16L449.03,84.65L449.31,89.55L449.85,133.68L450.02,128.77L450.44,133.68L450.89,109.16L451.18,114.06L451.43,109.16L451.44,114.06L451.89,104.26L451.89,104.26L453.02,99.35L453.63,89.55L453.63,94.45L454.45,89.55L454.5,84.65L454.52,123.87L454.94,118.97L455.49,123.87L455.61,128.77L455.75,109.16L455.75,109.16L455.77,104.26L456.2,89.55L456.48,109.16L456.49,109.16L456.52,114.06L456.86,99.35L456.92,123.87L456.94,128.77L457.21,133.68L457.64,118.97L457.71,123.87L457.71,128.77L457.83,118.97L458.11,128.77L458.43,133.68L458.8,138.58L459.13,118.97L459.13,123.87L459.54,118.97L460.65,104.26L460.99,109.16L461.01,104.26L461.15,123.87L461.59,123.87L461.88,118.97L461.9,123.87L462.17,114.06L462.42,123.87L462.73,118.97L463.04,138.58L463.3,128.77L463.62,133.68L464.3,123.87L464.3,128.77L464.55,123.87L464.72,109.16L464.73,128.77L464.91,118.97L465.63,123.87L466.02,118.97L466.18,138.58L466.6,133.68L466.9,128.77L466.91,138.58L467.2,133.68L467.49,128.77L468.17,123.87L468.17,128.77L468.34,133.68L468.35,128.77L468.5,153.29L469.05,148.39L469.11,143.48L469.19,138.58L469.79,153.29L469.81,148.39L469.92,153.29L470.64,128.77L470.64,148.39L470.65,153.29L470.65,148.39L470.79,158.19L471.38,153.29L471.64,148.39L471.64,158.19L472.38,158.19L472.41,153.29L472.95,168L472.95,163.1L473.26,158.19L474.1,153.29L474.23,158.19L475.03,148.39L475.04,143.48L475.14,172.9L475.7,158.19L475.85,153.29L476.59,172.9L476.6,168L476.68,172.9L477,158.19L477.01,163.1L477.57,158.19L477.57,163.1L478.32,143.48L478.32,153.29L478.33,148.39L478.33,143.48L478.73,163.1L479.06,158.19L479.09,153.29L479.78,143.48L480.03,148.39L480.05,143.48L480.06,153.29L480.08,148.39L481.04,143.48L481.04,148.39L481.65,138.58L481.66,143.48L481.81,138.58L482.79,123.87L482.79,128.77L482.92,133.68L483.22,123.87L484.15,128.77L484.23,133.68L484.78,123.87L484.78,128.77L484.83,123.87L485.37,148.39L485.4,148.39L485.8,143.48L485.83,153.29L486.54,133.68L486.68,128.77L486.84,123.87L486.84,143.48L487.15,133.68L487.16,138.58L487.82,133.68L487.82,138.58L488.19,133.68L488.19,138.58L488.42,123.87L488.44,138.58L489.13,133.68L489.27,158.19L489.88,148.39L489.9,153.29L489.93,143.48L490.58,172.9L491.36,168L491.76,172.9L491.79,168L492.46,163.1L493.02,172.9L493.81,168L494.26,158.19L494.67,163.1L494.75,168L495.12,158.19L495.12,163.1L495.18,168L495.2,172.9L495.23,163.1L495.91,168L495.92,163.1L495.92,168L496.35,153.29L496.41,158.19L497.11,163.1L497.24,153.29L497.74,163.1L498.62,158.19L499.5,153.29L499.5,158.19L499.5,153.29L499.54,163.1L500.11,163.1L501,158.19L501.12,148.39L501.13,163.1L501.27,153.29L502.12,158.19L502.72,138.58L503.06,133.68L503.58,138.58L503.76,133.68L503.76,128.77L504.41,109.16L504.42,138.58L504.51,133.68L504.77,128.77L505.06,123.87L505.06,133.68L505.06,138.58L505.66,133.68L505.91,138.58L506.03,133.68L506.35,148.39L507.01,153.29L507.5,143.48L507.62,153.29L507.62,158.19L507.62,153.29L508.02,168L508.31,168L508.47,163.1L509.1,158.19L509.18,163.1L509.21,168L509.35,153.29L509.56,158.19L510.21,153.29L511.08,168L511.12,163.1L511.36,168L511.81,158.19L512.08,163.1L512.41,148.39L512.5,158.19L513.3,153.29L513.68,163.1L513.76,148.39L514.11,143.48L514.69,133.68L514.71,153.29L514.81,158.19L515.44,143.48L516.02,138.58L516.79,128.77L517.2,133.68L517.2,138.58L518.18,133.68L518.89,123.87L518.9,143.48L518.94,138.58L519.03,133.68L519.45,138.58L519.76,133.68L521.19,128.77L522.38,109.16L522.49,114.06L522.49,123.87L522.66,109.16L522.7,109.16L524.97,114.06L525.36,104.26L525.69,143.48L525.8,138.58L525.8,143.48L526.54,128.77L526.55,133.68L526.83,138.58L527.56,109.16L527.56,118.97L527.6,114.06L528.28,128.77L528.31,118.97L528.42,114.06L528.42,118.97L528.87,109.16L529.32,104.26L529.45,109.16L529.61,99.35L529.61,109.16L531.56,104.26L531.56,109.16L533.39,104.26L534.81,84.65L534.98,79.74L535.03,69.94L535.04,84.65L535.5,79.74L535.84,74.84L537.4,65.03L537.64,60.13L537.65,65.03L538.14,50.32L539.32,45.42L539.99,25.81L539.99,20.9L539.99,25.81L540,16" style="fill: rgb(44, 160, 44); fill-opacity: 0.5; stroke-width: 0;"/></g></g><g class="errorbars"/><g class="lines"><path class="js-line" d="M0,315.1L0.1,320L1.05,315.1L1.74,320L1.85,315.1L1.85,320L3.14,315.1L3.9,320L4.78,315.1L4.78,320L4.88,320L5.62,315.1L5.62,320L6.22,320L7.07,315.1L7.07,320L7.66,320L9.22,315.1L9.22,320L9.87,315.1L10.1,320L11.84,315.1L11.84,320L14.73,315.1L14.73,320L22.24,315.1L22.24,320L22.44,315.1L22.44,320L24.08,315.1L24.08,310.19L24.23,315.1L25.39,320L27.12,315.1L27.12,320L28.01,310.19L28.01,315.1L28.46,310.19L28.46,315.1L28.46,320L31.34,315.1L31.34,320L31.49,315.1L31.49,320L32.75,315.1L32.75,320L33.36,320L34.27,315.1L34.27,320L35.06,315.1L35.06,320L35.57,320L35.82,315.1L35.91,320L37.13,315.1L38.56,310.19L39,315.1L39.12,310.19L39.12,315.1L40.44,320L41.18,315.1L41.18,320L42.91,315.1L42.91,320L44.02,315.1L44.02,320L44.52,300.39L44.63,305.29L45.16,310.19L45.61,315.1L46.06,310.19L46.07,315.1L47.35,310.19L51.26,305.29L51.26,310.19L51.56,315.1L52.37,310.19L53.29,320L54.73,315.1L55.13,320L58.33,315.1L58.34,320L58.34,315.1L59.86,310.19L60.19,315.1L60.99,310.19L61.78,305.29L61.81,310.19L61.81,305.29L62.39,320L64.27,315.1L64.57,320L65.26,315.1L65.42,310.19L66.4,315.1L66.58,305.29L66.71,310.19L67.56,315.1L67.87,310.19L67.87,315.1L68.43,310.19L68.51,300.39L68.62,320L68.71,320L69.31,315.1L70.17,310.19L70.17,315.1L70.91,305.29L70.92,310.19L71.63,305.29L76.23,300.39L76.71,295.48L78.42,320L79.44,315.1L79.44,320L80.43,315.1L81.64,310.19L81.7,315.1L82.63,310.19L82.78,305.29L83.72,295.48L83.72,300.39L83.74,305.29L84.91,295.48L84.92,300.39L85.76,295.48L85.76,300.39L86.06,305.29L86.64,300.39L86.64,305.29L86.65,300.39L88.49,305.29L88.67,300.39L88.67,305.29L89.58,300.39L89.82,305.29L90.55,300.39L91.02,295.48L91.81,300.39L92.54,295.48L92.83,300.39L95.14,295.48L95.14,300.39L95.74,295.48L95.76,300.39L97.16,305.29L97.68,300.39L97.89,305.29L98.03,300.39L98.04,305.29L99.06,300.39L99.08,270.97L99.78,290.58L99.79,295.48L100.07,305.29L100.26,300.39L100.64,295.48L101.23,290.58L101.78,295.48L102.42,285.68L102.68,280.77L102.93,295.48L103.25,280.77L103.57,275.87L103.69,290.58L103.7,285.68L104.68,290.58L105.12,275.87L105.12,275.87L105.66,280.77L106.73,256.26L107.7,251.35L108.74,256.26L109.03,251.35L109.76,261.16L109.76,261.16L109.89,256.26L110.2,275.87L110.33,270.97L110.99,266.06L111.5,246.45L111.5,251.35L111.89,256.26L111.93,261.16L112.79,256.26L112.92,251.35L112.94,256.26L114.25,261.16L114.37,280.77L114.95,275.87L114.96,270.97L114.97,280.77L116.09,275.87L116.09,280.77L118.28,275.87L118.28,270.97L118.28,280.77L120.3,275.87L120.31,280.77L120.31,275.87L121.39,280.77L121.45,275.87L123.33,270.97L124.18,280.77L124.18,275.87L124.34,280.77L124.5,275.87L124.51,280.77L125.35,275.87L125.68,280.77L126.39,275.87L126.42,280.77L128.08,275.87L128.1,280.77L129.98,275.87L130.09,280.77L130.48,275.87L130.97,270.97L131.1,275.87L132,270.97L132.01,275.87L132.42,256.26L132.56,256.26L132.96,251.35L133.32,275.87L134.31,270.97L134.61,280.77L135.32,275.87L136.32,270.97L136.43,266.06L137.01,270.97L137.19,266.06L138.04,251.35L138.06,256.26L138.38,251.35L138.6,256.26L139.06,251.35L139.07,246.45L139.07,231.74L139.22,261.16L140.51,256.26L140.62,251.35L140.64,256.26L142.09,251.35L142.88,270.97L144.11,266.06L144.52,270.97L146.15,266.06L147.25,261.16L147.25,266.06L148.59,251.35L148.6,256.26L148.86,261.16L148.88,266.06L149.29,256.26L149.29,261.16L149.62,256.26L149.62,261.16L150.63,266.06L150.8,275.87L151.52,270.97L151.62,266.06L153.25,261.16L153.79,246.45L153.8,251.35L153.8,256.26L153.86,270.97L155.68,266.06L155.78,270.97L155.82,266.06L157.44,261.16L157.45,266.06L158.83,261.16L158.83,266.06L159.26,261.16L159.72,256.26L160.42,251.35L160.45,256.26L163.35,261.16L166.44,251.35L167.18,246.45L167.97,251.35L168.69,246.45L168.7,251.35L171.41,246.45L171.88,251.35L172.49,246.45L173.73,241.55L173.98,246.45L173.98,241.55L174.02,280.77L174.02,275.87L176.45,270.97L176.46,275.87L178.83,280.77L179.95,275.87L179.95,280.77L180.59,275.87L180.62,280.77L182.86,275.87L183.02,270.97L184.43,275.87L184.44,280.77L185.04,241.55L185.12,246.45L185.12,241.55L185.16,261.16L186.7,256.26L187.03,241.55L188.72,236.65L189.23,231.74L189.24,236.65L191.47,231.74L191.96,236.65L193.31,231.74L193.61,236.65L193.92,231.74L196.14,226.84L199.17,221.94L199.27,226.84L200.19,221.94L200.9,226.84L200.93,217.03L201.16,221.94L202.05,226.84L202.32,246.45L203.15,251.35L203.23,256.26L203.33,246.45L206.82,241.55L207.39,246.45L208.08,241.55L208.23,236.65L210.41,231.74L213.42,226.84L215.02,221.94L215.04,217.03L216.38,212.13L217.18,217.03L217.19,212.13L217.5,246.45L217.51,241.55L218.5,246.45L218.93,251.35L218.95,246.45L220.11,251.35L220.58,261.16L220.95,256.26L220.97,261.16L221.51,246.45L221.55,256.26L222.12,261.16L222.16,266.06L223.07,261.16L224.27,256.26L224.28,261.16L226.3,251.35L226.58,246.45L228.98,241.55L230.12,246.45L231.73,241.55L232.22,236.65L234.56,226.84L234.57,231.74L235.43,217.03L237.29,212.13L237.58,197.42L238.12,192.52L239.2,182.71L239.25,187.61L241.53,153.29L241.61,158.19L241.61,163.1L241.77,148.39L242.19,158.19L242.37,153.29L242.48,148.39L243.79,143.48L243.94,138.58L244.22,153.29L244.22,158.19L244.39,187.61L244.67,177.81L245.18,172.9L246.24,256.26L246.48,251.35L246.66,246.45L246.68,241.55L247.28,256.26L247.38,251.35L247.57,246.45L248.4,256.26L248.51,261.16L248.52,251.35L248.96,266.06L249.27,270.97L249.69,256.26L249.73,251.35L250.28,266.06L250.53,261.16L250.68,266.06L250.84,261.16L251.54,256.26L251.58,251.35L252.4,256.26L252.91,246.45L253.55,241.55L254.43,231.74L254.43,236.65L255.31,226.84L255.31,231.74L256.8,217.03L257.76,221.94L261.45,217.03L261.55,212.13L261.8,207.23L262.12,212.13L263.73,207.23L264.69,197.42L265.05,192.52L265.44,187.61L267.05,182.71L267.5,168L267.71,182.71L267.71,187.61L268.95,163.1L271.04,158.19L271.11,148.39L272.16,143.48L273.82,133.68L273.86,138.58L273.87,172.9L274.51,153.29L274.8,148.39L274.8,153.29L274.94,148.39L277.11,143.48L278.83,138.58L279.02,133.68L280.8,128.77L280.8,133.68L280.81,128.77L280.81,133.68L281.78,128.77L281.98,123.87L282.66,128.77L283.63,148.39L283.84,153.29L285.4,148.39L285.94,153.29L287.33,143.48L288.04,138.58L288.04,143.48L288.85,138.58L288.96,128.77L290.13,133.68L290.71,192.52L293.3,187.61L293.79,192.52L294.19,187.61L294.21,192.52L297.07,187.61L297.78,197.42L297.82,192.52L297.93,187.61L297.93,192.52L298.19,192.52L298.89,197.42L299.07,187.61L299.07,192.52L301.46,187.61L301.47,182.71L302.27,177.81L304.32,172.9L304.85,168L305.01,153.29L305.06,177.81L305.42,168L305.88,172.9L306.36,182.71L306.59,177.81L306.85,172.9L307.66,236.65L307.89,231.74L308.89,217.03L309.52,212.13L310.54,187.61L311.51,182.71L312.42,177.81L312.53,172.9L313.38,158.19L313.43,163.1L314.41,109.16L316.64,104.26L318.58,99.35L318.58,94.45L322.01,99.35L322.09,94.45L323.37,89.55L323.79,84.65L325.84,65.03L325.84,60.13L325.97,50.32L326.38,153.29L326.69,148.39L327.14,143.48L327.16,158.19L327.41,153.29L327.57,148.39L328.61,123.87L328.73,128.77L331.11,123.87L331.61,118.97L331.91,123.87L332.88,118.97L333.28,123.87L334.45,118.97L335.93,123.87L335.95,138.58L336.62,133.68L337.34,138.58L337.78,168L338.21,172.9L338.34,168L338.66,182.71L338.86,177.81L339.25,182.71L339.82,177.81L340.66,163.1L341.56,158.19L341.78,148.39L342.43,143.48L343.3,153.29L343.72,148.39L343.72,153.29L344.44,148.39L344.72,153.29L344.72,163.1L345.29,158.19L346.65,153.29L346.86,143.48L347.3,158.19L347.32,158.19L347.32,163.1L347.98,153.29L348.2,148.39L349,138.58L349.01,143.48L352.14,138.58L352.53,143.48L353.93,138.58L354.38,133.68L354.38,138.58L355.15,143.48L355.44,138.58L355.52,148.39L356.28,143.48L357.41,128.77L357.41,133.68L357.86,123.87L358.43,118.97L358.87,128.77L358.89,118.97L359.42,123.87L360.02,118.97L360.03,123.87L360.76,118.97L360.9,123.87L361.59,118.97L362.16,114.06L362.37,118.97L362.77,104.26L362.83,114.06L363.62,109.16L363.67,104.26L364.5,99.35L365.63,94.45L365.72,89.55L366.44,69.94L366.81,65.03L366.93,69.94L368.67,65.03L368.96,60.13L370.04,55.23L370.2,99.35L370.31,99.35L371.8,94.45L372.75,89.55L372.76,94.45L374.63,89.55L374.63,94.45L375.06,89.55L377.52,84.65L377.52,89.55L378.2,89.55L378.81,84.65L379.58,65.03L379.64,69.94L380.84,65.03L380.94,55.23L381.39,79.74L381.39,84.65L381.76,79.74L381.99,84.65L382.97,79.74L383.81,60.13L384.03,55.23L384.62,79.74L384.73,65.03L384.92,60.13L385.65,89.55L385.89,84.65L386.73,133.68L386.81,128.77L387.53,158.19L387.91,153.29L388.67,158.19L388.68,153.29L388.72,158.19L391.2,153.29L391.82,138.58L391.85,143.48L392.09,148.39L395.7,143.48L395.72,148.39L396.44,138.58L397.36,143.48L398.5,138.58L399.43,133.68L399.43,138.58L401.31,133.68L401.45,123.87L402.49,128.77L403.04,118.97L403.05,114.06L403.06,94.45L406.87,99.35L407.96,79.74L410.11,74.84L410.62,65.03L410.62,69.94L410.62,74.84L412.74,65.03L413.2,60.13L416.01,50.32L416.2,45.42L416.78,40.52L416.78,45.42L416.96,50.32L417.57,74.84L417.7,69.94L418.31,65.03L418.36,69.94L418.68,45.42L419.1,40.52L419.28,25.81L419.48,40.52L419.48,45.42L419.49,55.23L420.14,35.61L420.27,30.71L420.56,25.81L420.66,40.52L420.68,45.42L420.73,40.52L421.4,60.13L421.45,55.23L421.53,50.32L421.54,69.94L422.18,65.03L422.44,60.13L423.18,55.23L423.2,50.32L423.63,79.74L424.13,69.94L424.16,65.03L424.55,35.61L424.75,89.55L425.06,84.65L425.5,55.23L425.65,74.84L425.65,79.74L425.71,89.55L426.28,74.84L426.32,79.74L426.94,74.84L427.08,89.55L427.65,65.03L427.73,60.13L427.79,65.03L428.17,35.61L428.18,30.71L428.21,16L428.35,99.35L428.67,79.74L429.08,74.84L429.52,65.03L429.61,74.84L429.75,79.74L430.42,69.94L430.68,74.84L431.21,89.55L431.4,79.74L431.5,84.65L431.85,74.84L432.23,99.35L432.36,94.45L432.37,104.26L432.68,79.74L432.85,99.35L433.26,94.45L433.93,118.97L434.53,114.06L434.88,118.97L434.89,109.16L435.27,104.26L435.53,79.74L436.26,84.65L436.41,109.16L436.72,74.84L436.88,84.65L437.06,89.55L437.28,84.65L437.45,99.35L438.63,94.45L438.77,104.26L438.93,94.45L439.61,89.55L439.77,94.45L439.95,84.65L440.3,79.74L440.33,94.45L440.74,84.65L441.45,79.74L441.97,74.84L441.97,79.74L441.97,84.65L442.51,74.84L442.51,69.94L442.52,65.03L442.56,84.65L442.7,69.94L443.56,65.03L443.79,50.32L443.92,69.94L444,74.84L444.73,114.06L444.99,104.26L444.99,99.35L445.36,94.45L445.36,104.26L445.36,109.16L445.36,104.26L445.37,118.97L445.97,114.06L446.2,109.16L446.45,114.06L446.7,94.45L446.72,104.26L446.83,99.35L446.85,94.45L447.3,128.77L447.41,128.77L447.57,123.87L447.67,94.45L447.69,128.77L448.34,104.26L448.4,99.35L448.59,109.16L449.03,84.65L449.31,89.55L449.85,133.68L450.02,128.77L450.44,133.68L450.89,109.16L451.18,114.06L451.43,109.16L451.44,114.06L451.89,104.26L451.89,104.26L453.02,99.35L453.63,89.55L453.63,94.45L454.45,89.55L454.5,84.65L454.52,123.87L454.94,118.97L455.49,123.87L455.61,128.77L455.75,109.16L455.75,109.16L455.77,104.26L456.2,89.55L456.48,109.16L456.49,109.16L456.52,114.06L456.86,99.35L456.92,123.87L456.94,128.77L457.21,133.68L457.64,118.97L457.71,123.87L457.71,128.77L457.83,118.97L458.11,128.77L458.43,133.68L458.8,138.58L459.13,118.97L459.13,123.87L459.54,118.97L460.65,104.26L460.99,109.16L461.01,104.26L461.15,123.87L461.59,123.87L461.88,118.97L461.9,123.87L462.17,114.06L462.42,123.87L462.73,118.97L463.04,138.58L463.3,128.77L463.62,133.68L464.3,123.87L464.3,128.77L464.55,123.87L464.72,109.16L464.73,128.77L464.91,118.97L465.63,123.87L466.02,118.97L466.18,138.58L466.6,133.68L466.9,128.77L466.91,138.58L467.2,133.68L467.49,128.77L468.17,123.87L468.17,128.77L468.34,133.68L468.35,128.77L468.5,153.29L469.05,148.39L469.11,143.48L469.19,138.58L469.79,153.29L469.81,148.39L469.92,153.29L470.64,128.77L470.64,148.39L470.65,153.29L470.65,148.39L470.79,158.19L471.38,153.29L471.64,148.39L471.64,158.19L472.38,158.19L472.41,153.29L472.95,168L472.95,163.1L473.26,158.19L474.1,153.29L474.23,158.19L475.03,148.39L475.04,143.48L475.14,172.9L475.7,158.19L475.85,153.29L476.59,172.9L476.6,168L476.68,172.9L477,158.19L477.01,163.1L477.57,158.19L477.57,163.1L478.32,143.48L478.32,153.29L478.33,148.39L478.33,143.48L478.73,163.1L479.06,158.19L479.09,153.29L479.78,143.48L480.03,148.39L480.05,143.48L480.06,153.29L480.08,148.39L481.04,143.48L481.04,148.39L481.65,138.58L481.66,143.48L481.81,138.58L482.79,123.87L482.79,128.77L482.92,133.68L483.22,123.87L484.15,128.77L484.23,133.68L484.78,123.87L484.78,128.77L484.83,123.87L485.37,148.39L485.4,148.39L485.8,143.48L485.83,153.29L486.54,133.68L486.68,128.77L486.84,123.87L486.84,143.48L487.15,133.68L487.16,138.58L487.82,133.68L487.82,138.58L488.19,133.68L488.19,138.58L488.42,123.87L488.44,138.58L489.13,133.68L489.27,158.19L489.88,148.39L489.9,153.29L489.93,143.48L490.58,172.9L491.36,168L491.76,172.9L491.79,168L492.46,163.1L493.02,172.9L493.81,168L494.26,158.19L494.67,163.1L494.75,168L495.12,158.19L495.12,163.1L495.18,168L495.2,172.9L495.23,163.1L495.91,168L495.92,163.1L495.92,168L496.35,153.29L496.41,158.19L497.11,163.1L497.24,153.29L497.74,163.1L498.62,158.19L499.5,153.29L499.5,158.19L499.5,153.29L499.54,163.1L500.11,163.1L501,158.19L501.12,148.39L501.13,163.1L501.27,153.29L502.12,158.19L502.72,138.58L503.06,133.68L503.58,138.58L503.76,133.68L503.76,128.77L504.41,109.16L504.42,138.58L504.51,133.68L504.77,128.77L505.06,123.87L505.06,133.68L505.06,138.58L505.66,133.68L505.91,138.58L506.03,133.68L506.35,148.39L507.01,153.29L507.5,143.48L507.62,153.29L507.62,158.19L507.62,153.29L508.02,168L508.31,168L508.47,163.1L509.1,158.19L509.18,163.1L509.21,168L509.35,153.29L509.56,158.19L510.21,153.29L511.08,168L511.12,163.1L511.36,168L511.81,158.19L512.08,163.1L512.41,148.39L512.5,158.19L513.3,153.29L513.68,163.1L513.76,148.39L514.11,143.48L514.69,133.68L514.71,153.29L514.81,158.19L515.44,143.48L516.02,138.58L516.79,128.77L517.2,133.68L517.2,138.58L518.18,133.68L518.89,123.87L518.9,143.48L518.94,138.58L519.03,133.68L519.45,138.58L519.76,133.68L521.19,128.77L522.38,109.16L522.49,114.06L522.49,123.87L522.66,109.16L522.7,109.16L524.97,114.06L525.36,104.26L525.69,143.48L525.8,138.58L525.8,143.48L526.54,128.77L526.55,133.68L526.83,138.58L527.56,109.16L527.56,118.97L527.6,114.06L528.28,128.77L528.31,118.97L528.42,114.06L528.42,118.97L528.87,109.16L529.32,104.26L529.45,109.16L529.61,99.35L529.61,109.16L531.56,104.26L531.56,109.16L533.39,104.26L534.81,84.65L534.98,79.74L535.03,69.94L535.04,84.65L535.5,79.74L535.84,74.84L537.4,65.03L537.64,60.13L537.65,65.03L538.14,50.32L539.32,45.42L539.99,25.81L539.99,20.9L539.99,25.81L540,16" style="vector-effect: none; fill: none; stroke: rgb(44, 160, 44); stroke-opacity: 1; stroke-width: 2px; opacity: 1;"/></g><g class="points"/><g class="text"/></g></g></g></g><g class="zerolinelayer-above"/><path class="xlines-above crisp" d="M0,0" style="fill: none;"/><path class="ylines-above crisp" d="M0,0" style="fill: none;"/><g class="overlines-above"/><g class="xaxislayer-above"><g class="xtick"><text text-anchor="middle" x="0" y="439" transform="translate(97.24,0)" style="font-family: 'Open Sans'; font-size: 18px; fill: rgb(0, 0, 0); fill-opacity: 1; white-space: pre;">2016</text></g><g class="xtick"><text text-anchor="middle" x="0" y="439" style="font-family: 'Open Sans'; font-size: 18px; fill: rgb(0, 0, 0); fill-opacity: 1; white-space: pre;" transform="translate(202.81,0)">2018</text></g><g class="xtick"><text text-anchor="middle" x="0" y="439" style="font-family: 'Open Sans'; font-size: 18px; fill: rgb(0, 0, 0); fill-opacity: 1; white-space: pre;" transform="translate(308.24,0)">2020</text></g><g class="xtick"><text text-anchor="middle" x="0" y="439" style="font-family: 'Open Sans'; font-size: 18px; fill: rgb(0, 0, 0); fill-opacity: 1; white-space: pre;" transform="translate(413.81,0)">2022</text></g><g class="xtick"><text text-anchor="middle" x="0" y="439" style="font-family: 'Open Sans'; font-size: 18px; fill: rgb(0, 0, 0); fill-opacity: 1; white-space: pre;" transform="translate(519.23,0)">2024</text></g></g><g class="yaxislayer-above"><g class="ytick"><text text-anchor="end" x="79" y="6.3" transform="translate(0,420)" style="font-family: 'Open Sans'; font-size: 18px; fill: rgb(0, 0, 0); fill-opacity: 1; white-space: pre;">0</text></g><g class="ytick"><text text-anchor="end" x="79" y="6.3" style="font-family: 'Open Sans'; font-size: 18px; fill: rgb(0, 0, 0); fill-opacity: 1; white-space: pre;" transform="translate(0,370.97)">10</text></g><g class="ytick"><text text-anchor="end" x="79" y="6.3" style="font-family: 'Open Sans'; font-size: 18px; fill: rgb(0, 0, 0); fill-opacity: 1; white-space: pre;" transform="translate(0,321.94)">20</text></g><g class="ytick"><text text-anchor="end" x="79" y="6.3" style="font-family: 'Open Sans'; font-size: 18px; fill: rgb(0, 0, 0); fill-opacity: 1; white-space: pre;" transform="translate(0,272.9)">30</text></g><g class="ytick"><text text-anchor="end" x="79" y="6.3" style="font-family: 'Open Sans'; font-size: 18px; fill: rgb(0, 0, 0); fill-opacity: 1; white-space: pre;" transform="translate(0,223.87)">40</text></g><g class="ytick"><text text-anchor="end" x="79" y="6.3" style="font-family: 'Open Sans'; font-size: 18px; fill: rgb(0, 0, 0); fill-opacity: 1; white-space: pre;" transform="translate(0,174.84)">50</text></g><g class="ytick"><text text-anchor="end" x="79" y="6.3" style="font-family: 'Open Sans'; font-size: 18px; fill: rgb(0, 0, 0); fill-opacity: 1; white-space: pre;" transform="translate(0,125.81)">60</text></g></g><g class="overaxes-above"/></g></g><g class="polarlayer"/><g class="smithlayer"/><g class="ternarylayer"/><g class="geolayer"/><g class="funnelarealayer"/><g class="pielayer"/><g class="iciclelayer"/><g class="treemaplayer"/><g class="sunburstlayer"/><g class="glimages"/><defs id="topdefs-9ccf8c"><g class="clips"/></defs><g class="layer-above"><g class="imagelayer"/><g class="shapelayer"/></g><g class="infolayer"><g class="g-gtitle"><text class="gtitle" x="35" y="50" text-anchor="start" dy="0em" style="opacity: 1; font-family: 'Open Sans'; font-size: 25px; fill: rgb(0, 0, 0); fill-opacity: 1; white-space: pre;">MultiQC/MultiQC - Open Pull Requests Over Time</text></g><g class="g-xtitle"><text class="xtitle" x="350" y="472.9" text-anchor="middle" style="opacity: 1; font-family: 'Open Sans'; font-size: 22px; fill: rgb(0, 0, 0); fill-opacity: 1; white-space: pre;">Date</text></g><g class="g-ytitle"><text class="ytitle" transform="rotate(-90,38.8,260)" x="38.8" y="260" text-anchor="middle" style="opacity: 1; font-family: 'Open Sans'; font-size: 22px; fill: rgb(0, 0, 0); fill-opacity: 1; white-space: pre;">Number of Open PRs</text></g></g></svg>