<svg class="main-svg" xmlns="http://www.w3.org/2000/svg" xmlns:xlink="http://www.w3.org/1999/xlink" width="700" height="500" style="" viewBox="0 0 700 500"><rect x="0" y="0" width="700" height="500" style="fill: rgb(0, 0, 0); fill-opacity: 0;"/><defs id="defs-501995"><g class="clips"><clipPath id="clip501995xyplot" class="plotclip"><rect width="540" height="320"/></clipPath><clipPath class="axesclip" id="clip501995x"><rect x="80" y="0" width="540" height="500"/></clipPath><clipPath class="axesclip" id="clip501995y"><rect x="0" y="100" width="700" height="320"/></clipPath><clipPath class="axesclip" id="clip501995xy"><rect x="80" y="100" width="540" height="320"/></clipPath></g><g class="gradients"/><g class="patterns"/></defs><g class="bglayer"><rect class="bg" x="80" y="100" width="540" height="320" style="fill: rgb(0, 0, 0); fill-opacity: 0; stroke-width: 0;"/></g><g class="layer-below"><g class="imagelayer"/><g class="shapelayer"/></g><g class="cartesianlayer"><g class="subplot xy"><g class="layer-subplot"><g class="shapelayer"/><g class="imagelayer"/></g><g class="minor-gridlayer"><g class="x"/><g class="y"/></g><g class="gridlayer"><g class="x"><path class="xgrid crisp" transform="translate(98.03,0)" d="M0,100v320" style="stroke: rgb(255, 255, 255); stroke-opacity: 1; stroke-width: 1px;"/><path class="xgrid crisp" transform="translate(206.09,0)" d="M0,100v320" style="stroke: rgb(255, 255, 255); stroke-opacity: 1; stroke-width: 1px;"/><path class="xgrid crisp" transform="translate(314,0)" d="M0,100v320" style="stroke: rgb(255, 255, 255); stroke-opacity: 1; stroke-width: 1px;"/><path class="xgrid crisp" transform="translate(422.06,0)" d="M0,100v320" style="stroke: rgb(255, 255, 255); stroke-opacity: 1; stroke-width: 1px;"/><path class="xgrid crisp" transform="translate(529.98,0)" d="M0,100v320" style="stroke: rgb(255, 255, 255); stroke-opacity: 1; stroke-width: 1px;"/></g><g class="y"><path class="ygrid crisp" transform="translate(0,382.93)" d="M80,0h540" style="stroke: rgb(255, 255, 255); stroke-opacity: 1; stroke-width: 1px;"/><path class="ygrid crisp" transform="translate(0,345.85)" d="M80,0h540" style="stroke: rgb(255, 255, 255); stroke-opacity: 1; stroke-width: 1px;"/><path class="ygrid crisp" transform="translate(0,308.78)" d="M80,0h540" style="stroke: rgb(255, 255, 255); stroke-opacity: 1; stroke-width: 1px;"/><path class="ygrid crisp" transform="translate(0,271.71000000000004)" d="M80,0h540" style="stroke: rgb(255, 255, 255); stroke-opacity: 1; stroke-width: 1px;"/><path class="ygrid crisp" transform="translate(0,234.63)" d="M80,0h540" style="stroke: rgb(255, 255, 255); stroke-opacity: 1; stroke-width: 1px;"/><path class="ygrid crisp" transform="translate(0,197.56)" d="M80,0h540" style="stroke: rgb(255, 255, 255); stroke-opacity: 1; stroke-width: 1px;"/><path class="ygrid crisp" transform="translate(0,160.49)" d="M80,0h540" style="stroke: rgb(255, 255, 255); stroke-opacity: 1; stroke-width: 1px;"/><path class="ygrid crisp" transform="translate(0,123.41)" d="M80,0h540" style="stroke: rgb(255, 255, 255); stroke-opacity: 1; stroke-width: 1px;"/></g></g><g class="zerolinelayer"><path class="yzl zl crisp" transform="translate(0,420)" d="M80,0h540" style="stroke: rgb(255, 255, 255); stroke-opacity: 1; stroke-width: 2px;"/></g><g class="layer-between"><g class="shapelayer"/><g class="imagelayer"/></g><path class="xlines-below"/><path class="ylines-below"/><g class="overlines-below"/><g class="xaxislayer-below"/><g class="yaxislayer-below"/><g class="overaxes-below"/><g class="overplot"><g class="xy" transform="translate(80,100)" clip-path="url(#clip501995xyplot)"><g class="scatterlayer mlayer"><g class="trace scatter tracee698ed" style="stroke-miterlimit: 2;"><g class="fills"><g><path class="js-fill" d="M540,320L0,320L0,286.63L4.43,286.63L9.02,301.46L13.45,316.29L22.62,305.17L26.9,305.17L31.49,294.05L35.92,294.05L40.5,308.88L44.94,275.51L49.52,312.59L54.1,312.59L58.54,305.17L63.12,297.76L67.56,275.51L72.14,301.46L76.72,305.17L80.86,301.46L85.44,290.34L89.88,305.17L94.46,308.88L98.89,227.32L103.48,249.56L108.06,268.1L112.49,279.22L117.08,301.46L121.51,308.88L126.09,290.34L130.68,305.17L134.82,275.51L139.4,268.1L143.83,290.34L148.42,290.34L152.85,301.46L157.43,297.76L166.45,312.59L171.03,312.59L175.47,294.05L180.05,312.59L184.63,308.88L188.77,268.1L193.35,301.46L197.79,308.88L202.37,305.17L206.81,312.59L211.39,305.17L215.97,316.29L220.41,282.93L224.99,297.76L229.42,305.17L234,308.88L238.59,297.76L242.87,260.68L247.46,268.1L251.89,256.98L256.47,275.51L260.91,305.17L265.49,308.88L270.07,282.93L274.51,282.93L279.09,290.34L283.53,301.46L288.11,305.17L292.69,297.76L296.83,301.46L305.85,301.46L310.43,264.39L314.86,264.39L319.45,256.98L324.03,308.88L328.46,305.17L333.05,256.98L337.48,305.17L342.06,312.59L346.65,286.63L350.79,297.76L355.37,294.05L359.8,305.17L364.39,282.93L368.82,286.63L373.4,286.63L377.99,290.34L382.42,305.17L387,286.63L391.44,249.56L396.02,294.05L400.6,305.17L404.74,286.63L409.32,282.93L413.76,305.17L418.34,305.17L422.78,294.05L427.36,179.12L431.94,149.46L436.38,168L440.96,219.9L445.39,179.12L449.98,245.85L454.56,16L458.84,197.66L463.43,205.07L467.86,119.8L472.44,164.29L476.88,156.88L481.46,142.05L486.04,93.85L490.48,212.49L499.5,212.49L504.08,216.2L508.66,264.39L512.8,242.15L517.38,242.15L521.82,223.61L526.4,268.1L530.83,212.49L535.42,245.85L540,245.85" style="fill: rgb(44, 160, 44); fill-opacity: 0.5; stroke-width: 0;"/></g></g><g class="errorbars"/><g class="lines"><path class="js-line" d="M0,286.63L4.43,286.63L9.02,301.46L13.45,316.29L22.62,305.17L26.9,305.17L31.49,294.05L35.92,294.05L40.5,308.88L44.94,275.51L49.52,312.59L54.1,312.59L58.54,305.17L63.12,297.76L67.56,275.51L72.14,301.46L76.72,305.17L80.86,301.46L85.44,290.34L89.88,305.17L94.46,308.88L98.89,227.32L103.48,249.56L108.06,268.1L112.49,279.22L117.08,301.46L121.51,308.88L126.09,290.34L130.68,305.17L134.82,275.51L139.4,268.1L143.83,290.34L148.42,290.34L152.85,301.46L157.43,297.76L166.45,312.59L171.03,312.59L175.47,294.05L180.05,312.59L184.63,308.88L188.77,268.1L193.35,301.46L197.79,308.88L202.37,305.17L206.81,312.59L211.39,305.17L215.97,316.29L220.41,282.93L224.99,297.76L229.42,305.17L234,308.88L238.59,297.76L242.87,260.68L247.46,268.1L251.89,256.98L256.47,275.51L260.91,305.17L265.49,308.88L270.07,282.93L274.51,282.93L279.09,290.34L283.53,301.46L288.11,305.17L292.69,297.76L296.83,301.46L305.85,301.46L310.43,264.39L314.86,264.39L319.45,256.98L324.03,308.88L328.46,305.17L333.05,256.98L337.48,305.17L342.06,312.59L346.65,286.63L350.79,297.76L355.37,294.05L359.8,305.17L364.39,282.93L368.82,286.63L373.4,286.63L377.99,290.34L382.42,305.17L387,286.63L391.44,249.56L396.02,294.05L400.6,305.17L404.74,286.63L409.32,282.93L413.76,305.17L418.34,305.17L422.78,294.05L427.36,179.12L431.94,149.46L436.38,168L440.96,219.9L445.39,179.12L449.98,245.85L454.56,16L458.84,197.66L463.43,205.07L467.86,119.8L472.44,164.29L476.88,156.88L481.46,142.05L486.04,93.85L490.48,212.49L499.5,212.49L504.08,216.2L508.66,264.39L512.8,242.15L517.38,242.15L521.82,223.61L526.4,268.1L530.83,212.49L535.42,245.85L540,245.85" style="vector-effect: none; fill: none; stroke: rgb(44, 160, 44); stroke-opacity: 1; stroke-width: 2px; opacity: 1;"/></g><g class="points"/><g class="text"/></g></g></g></g><g class="zerolinelayer-above"/><path class="xlines-above crisp" d="M0,0" style="fill: none;"/><path class="ylines-above crisp" d="M0,0" style="fill: none;"/><g class="overlines-above"/><g class="xaxislayer-above"><g class="xtick"><text text-anchor="middle" x="0" y="439" transform="translate(98.03,0)" style="font-family: 'Open Sans'; font-size: 18px; fill: rgb(0, 0, 0); fill-opacity: 1; white-space: pre;">2016</text></g><g class="xtick"><text text-anchor="middle" x="0" y="439" style="font-family: 'Open Sans'; font-size: 18px; fill: rgb(0, 0, 0); fill-opacity: 1; white-space: pre;" transform="translate(206.09,0)">2018</text></g><g class="xtick"><text text-anchor="middle" x="0" y="439" style="font-family: 'Open Sans'; font-size: 18px; fill: rgb(0, 0, 0); fill-opacity: 1; white-space: pre;" transform="translate(314,0)">2020</text></g><g class="xtick"><text text-anchor="middle" x="0" y="439" style="font-family: 'Open Sans'; font-size: 18px; fill: rgb(0, 0, 0); fill-opacity: 1; white-space: pre;" transform="translate(422.06,0)">2022</text></g><g class="xtick"><text text-anchor="middle" x="0" y="439" style="font-family: 'Open Sans'; font-size: 18px; fill: rgb(0, 0, 0); fill-opacity: 1; white-space: pre;" transform="translate(529.98,0)">2024</text></g></g><g class="yaxislayer-above"><g class="ytick"><text text-anchor="end" x="79" y="6.3" transform="translate(0,420)" style="font-family: 'Open Sans'; font-size: 18px; fill: rgb(0, 0, 0); fill-opacity: 1; white-space: pre;">0</text></g><g class="ytick"><text text-anchor="end" x="79" y="6.3" style="font-family: 'Open Sans'; font-size: 18px; fill: rgb(0, 0, 0); fill-opacity: 1; white-space: pre;" transform="translate(0,382.93)">10</text></g><g class="ytick"><text text-anchor="end" x="79" y="6.3" style="font-family: 'Open Sans'; font-size: 18px; fill: rgb(0, 0, 0); fill-opacity: 1; white-space: pre;" transform="translate(0,345.85)">20</text></g><g class="ytick"><text text-anchor="end" x="79" y="6.3" style="font-family: 'Open Sans'; font-size: 18px; fill: rgb(0, 0, 0); fill-opacity: 1; white-space: pre;" transform="translate(0,308.78)">30</text></g><g class="ytick"><text text-anchor="end" x="79" y="6.3" style="font-family: 'Open Sans'; font-size: 18px; fill: rgb(0, 0, 0); fill-opacity: 1; white-space: pre;" transform="translate(0,271.71000000000004)">40</text></g><g class="ytick"><text text-anchor="end" x="79" y="6.3" style="font-family: 'Open Sans'; font-size: 18px; fill: rgb(0, 0, 0); fill-opacity: 1; white-space: pre;" transform="translate(0,234.63)">50</text></g><g class="ytick"><text text-anchor="end" x="79" y="6.3" style="font-family: 'Open Sans'; font-size: 18px; fill: rgb(0, 0, 0); fill-opacity: 1; white-space: pre;" transform="translate(0,197.56)">60</text></g><g class="ytick"><text text-anchor="end" x="79" y="6.3" style="font-family: 'Open Sans'; font-size: 18px; fill: rgb(0, 0, 0); fill-opacity: 1; white-space: pre;" transform="translate(0,160.49)">70</text></g><g class="ytick"><text text-anchor="end" x="79" y="6.3" style="font-family: 'Open Sans'; font-size: 18px; fill: rgb(0, 0, 0); fill-opacity: 1; white-space: pre;" transform="translate(0,123.41)">80</text></g></g><g class="overaxes-above"/></g></g><g class="polarlayer"/><g class="smithlayer"/><g class="ternarylayer"/><g class="geolayer"/><g class="funnelarealayer"/><g class="pielayer"/><g class="iciclelayer"/><g class="treemaplayer"/><g class="sunburstlayer"/><g class="glimages"/><defs id="topdefs-501995"><g class="clips"/></defs><g class="layer-above"><g class="imagelayer"/><g class="shapelayer"/></g><g class="infolayer"><g class="g-gtitle"><text class="gtitle" x="35" y="50" text-anchor="start" dy="0em" style="opacity: 1; font-family: 'Open Sans'; font-size: 25px; fill: rgb(0, 0, 0); fill-opacity: 1; white-space: pre;">MultiQC/MultiQC - New Pull Requests Per Month</text></g><g class="g-xtitle"><text class="xtitle" x="350" y="472.9" text-anchor="middle" style="opacity: 1; font-family: 'Open Sans'; font-size: 22px; fill: rgb(0, 0, 0); fill-opacity: 1; white-space: pre;">Month</text></g><g class="g-ytitle"><text class="ytitle" transform="rotate(-90,38.8,260)" x="38.8" y="260" text-anchor="middle" style="opacity: 1; font-family: 'Open Sans'; font-size: 22px; fill: rgb(0, 0, 0); fill-opacity: 1; white-space: pre;">New PRs Created</text></g></g></svg>