<svg class="main-svg" xmlns="http://www.w3.org/2000/svg" xmlns:xlink="http://www.w3.org/1999/xlink" width="700" height="500" style="" viewBox="0 0 700 500"><rect x="0" y="0" width="700" height="500" style="fill: rgb(0, 0, 0); fill-opacity: 0;"/><defs id="defs-86f298"><g class="clips"><clipPath id="clip86f298xyplot" class="plotclip"><rect width="540" height="320"/></clipPath><clipPath class="axesclip" id="clip86f298x"><rect x="80" y="0" width="540" height="500"/></clipPath><clipPath class="axesclip" id="clip86f298y"><rect x="0" y="100" width="700" height="320"/></clipPath><clipPath class="axesclip" id="clip86f298xy"><rect x="80" y="100" width="540" height="320"/></clipPath></g><g class="gradients"/><g class="patterns"/></defs><g class="bglayer"><rect class="bg" x="80" y="100" width="540" height="320" style="fill: rgb(0, 0, 0); fill-opacity: 0; stroke-width: 0;"/></g><g class="layer-below"><g class="imagelayer"/><g class="shapelayer"/></g><g class="cartesianlayer"><g class="subplot xy"><g class="layer-subplot"><g class="shapelayer"/><g class="imagelayer"/></g><g class="minor-gridlayer"><g class="x"/><g class="y"/></g><g class="gridlayer"><g class="x"><path class="xgrid crisp" transform="translate(96.34,0)" d="M0,100v320" style="stroke: rgb(255, 255, 255); stroke-opacity: 1; stroke-width: 1px;"/><path class="xgrid crisp" transform="translate(196.37,0)" d="M0,100v320" style="stroke: rgb(255, 255, 255); stroke-opacity: 1; stroke-width: 1px;"/><path class="xgrid crisp" transform="translate(296.26,0)" d="M0,100v320" style="stroke: rgb(255, 255, 255); stroke-opacity: 1; stroke-width: 1px;"/><path class="xgrid crisp" transform="translate(396.29,0)" d="M0,100v320" style="stroke: rgb(255, 255, 255); stroke-opacity: 1; stroke-width: 1px;"/><path class="xgrid crisp" transform="translate(496.19,0)" d="M0,100v320" style="stroke: rgb(255, 255, 255); stroke-opacity: 1; stroke-width: 1px;"/><path class="xgrid crisp" transform="translate(596.22,0)" d="M0,100v320" style="stroke: rgb(255, 255, 255); stroke-opacity: 1; stroke-width: 1px;"/></g><g class="y"><path class="ygrid crisp" transform="translate(0,373.94)" d="M80,0h540" style="stroke: rgb(255, 255, 255); stroke-opacity: 1; stroke-width: 1px;"/><path class="ygrid crisp" transform="translate(0,327.88)" d="M80,0h540" style="stroke: rgb(255, 255, 255); stroke-opacity: 1; stroke-width: 1px;"/><path class="ygrid crisp" transform="translate(0,281.82)" d="M80,0h540" style="stroke: rgb(255, 255, 255); stroke-opacity: 1; stroke-width: 1px;"/><path class="ygrid crisp" transform="translate(0,235.76)" d="M80,0h540" style="stroke: rgb(255, 255, 255); stroke-opacity: 1; stroke-width: 1px;"/><path class="ygrid crisp" transform="translate(0,189.7)" d="M80,0h540" style="stroke: rgb(255, 255, 255); stroke-opacity: 1; stroke-width: 1px;"/><path class="ygrid crisp" transform="translate(0,143.64)" d="M80,0h540" style="stroke: rgb(255, 255, 255); stroke-opacity: 1; stroke-width: 1px;"/></g></g><g class="zerolinelayer"><path class="yzl zl crisp" transform="translate(0,420)" d="M80,0h540" style="stroke: rgb(255, 255, 255); stroke-opacity: 1; stroke-width: 2px;"/></g><g class="layer-between"><g class="shapelayer"/><g class="imagelayer"/></g><path class="xlines-below"/><path class="ylines-below"/><g class="overlines-below"/><g class="xaxislayer-below"/><g class="yaxislayer-below"/><g class="overaxes-below"/><g class="overplot"><g class="xy" transform="translate(80,100)" clip-path="url(#clip86f298xyplot)"><g class="scatterlayer mlayer"><g class="trace scatter trace98c13b" style="stroke-miterlimit: 2;"><g class="fills"><g><path class="js-fill" d="M540,320L0,320L0,317.7L0.1,320L0.99,317.7L1.65,320L1.75,317.7L1.75,320L2.97,317.7L3.69,320L4.52,317.7L4.52,320L4.62,320L5.33,317.7L5.33,320L5.89,320L6.7,317.7L6.7,320L7.26,320L8.74,317.7L8.74,320L9.36,317.7L9.57,320L11.21,317.7L11.21,320L13.96,317.7L13.96,320L21.07,317.7L21.07,320L21.26,317.7L21.26,320L22.82,317.7L22.82,315.39L22.96,317.7L24.06,320L25.7,317.7L25.7,320L26.97,315.39L26.97,317.7L26.97,320L29.7,317.7L29.7,320L29.83,320L31.03,317.7L31.03,320L31.61,320L32.47,317.7L32.47,320L33.22,320L33.26,317.7L33.26,320L33.94,317.7L34.03,320L36.53,315.39L36.95,317.7L37.07,315.39L37.07,317.7L38.32,320L39.02,317.7L39.02,320L40.66,317.7L40.66,320L41.71,317.7L41.71,320L42.18,310.79L42.29,313.09L42.79,315.39L43.22,317.7L43.64,315.39L43.65,317.7L44.86,315.39L48.57,313.09L48.57,315.39L48.86,317.7L49.63,315.39L50.5,320L51.86,317.7L52.24,320L55.27,317.7L55.27,320L55.27,317.7L56.72,315.39L57.03,317.7L57.79,315.39L58.57,313.09L58.58,315.39L59.12,320L60.9,317.7L61.18,320L61.83,317.7L61.98,315.39L62.92,317.7L63.09,313.09L63.21,315.39L64.01,317.7L64.31,315.39L64.31,317.7L64.84,315.39L64.91,310.79L65.02,320L65.1,320L65.67,317.7L66.49,315.39L66.49,317.7L67.19,313.09L67.2,315.39L67.87,313.09L72.23,310.79L72.68,308.48L74.31,320L75.27,317.7L75.27,320L76.21,317.7L77.36,315.39L77.41,317.7L78.44,313.09L78.84,310.79L79.33,308.48L79.33,310.79L79.35,313.09L80.45,308.48L80.46,310.79L81.26,308.48L81.26,310.79L81.54,313.09L82.1,310.79L82.1,313.09L82.1,310.79L83.85,313.09L84.02,310.79L84.02,313.09L84.88,310.79L85.11,313.09L85.8,310.79L86.25,308.48L86.99,310.79L87.68,308.48L87.96,310.79L90.15,308.48L90.15,310.79L90.71,308.48L90.74,310.79L92.07,313.09L92.55,310.79L92.75,313.09L92.89,310.79L92.89,313.09L93.87,310.79L93.88,296.97L94.55,308.48L94.82,310.79L94.82,313.09L94.97,308.48L95.36,308.48L95.92,306.18L96.61,308.48L96.78,306.18L97.29,301.58L97.45,306.18L97.53,308.48L98.14,299.27L98.26,303.88L99.19,306.18L99.6,299.27L99.6,299.27L100.12,301.58L101.13,290.06L102.05,287.76L103.03,290.06L103.31,287.76L103.43,292.36L104,292.36L104.12,290.06L104.41,299.27L104.54,296.97L105.17,294.67L105.65,285.45L105.65,287.76L106.02,290.06L106.06,292.36L106.87,290.06L107,287.76L107.01,290.06L108.25,292.36L108.94,301.58L110,299.27L110,301.58L112.07,299.27L112.07,296.97L112.08,301.58L113.99,299.27L114,301.58L114,299.27L115.02,301.58L115.08,299.27L116.85,296.97L117.81,301.58L117.95,299.27L117.95,301.58L117.98,301.58L118.77,299.27L119.08,301.58L119.76,299.27L119.79,301.58L121.36,299.27L121.38,301.58L123.16,299.27L123.26,301.58L123.64,299.27L124.1,296.97L124.22,299.27L125.08,296.97L125.08,299.27L125.47,290.06L125.61,290.06L125.99,287.76L126.32,299.27L126.32,299.27L127.27,296.97L127.37,301.58L127.55,301.58L128.22,299.27L129.16,296.97L129.28,294.67L129.28,296.97L130,294.67L130.09,292.36L130.79,287.76L130.82,290.06L131.12,287.76L131.33,290.06L131.76,287.76L131.77,285.45L131.77,278.55L131.92,292.36L133.14,290.06L133.25,287.76L133.26,290.06L134.64,287.76L135.38,296.97L136.55,294.67L136.94,296.97L138.48,294.67L139.52,292.36L139.52,294.67L140.8,287.76L140.8,290.06L141.05,292.36L141.07,294.67L141.45,290.06L141.77,292.36L142.73,294.67L142.89,299.27L143.57,296.97L143.66,294.67L145.21,292.36L145.72,285.45L145.73,290.06L145.73,292.36L145.78,296.97L147.51,294.67L147.61,296.97L147.65,294.67L149.17,292.36L149.19,294.67L150.5,292.36L150.5,294.67L150.91,292.36L151.34,290.06L152,287.76L152.04,290.06L154.78,292.36L157.7,287.76L158.41,285.45L159.16,287.76L159.84,285.45L159.84,287.76L162.42,285.45L162.86,287.76L163.44,285.45L164.62,283.15L164.85,285.45L164.85,283.15L164.89,301.58L164.89,299.27L167.19,296.97L167.2,299.27L169.45,301.58L170.51,299.27L170.51,301.58L171.11,299.27L171.14,301.58L173.27,299.27L173.42,296.97L174.75,299.27L174.76,301.58L175.33,283.15L175.44,292.36L176.9,290.06L177.22,283.15L178.82,280.85L179.3,278.55L179.31,280.85L181.42,278.55L181.89,280.85L183.17,278.55L183.45,280.85L183.74,278.55L185.84,276.24L188.72,273.94L188.82,276.24L189.68,273.94L190.35,276.24L190.39,271.64L190.61,273.94L191.45,276.24L191.7,285.45L192.49,287.76L192.57,290.06L192.66,285.45L195.96,283.15L196.51,285.45L197.17,283.15L197.31,280.85L199.37,278.55L202.22,276.24L203.74,273.94L203.76,271.64L205.03,269.33L205.78,271.64L205.8,269.33L206.09,285.45L206.1,283.15L207.04,285.45L207.45,287.76L207.46,285.45L208.56,287.76L209,292.36L209.36,290.06L209.38,292.36L209.89,285.45L209.93,290.06L210.47,292.36L210.5,294.67L211.37,292.36L212.5,290.06L212.51,292.36L214.42,287.76L214.7,285.45L216.96,283.15L218.05,285.45L219.57,283.15L220.03,280.85L222.25,276.24L222.26,278.55L223.08,271.64L224.84,269.33L225.12,262.42L225.62,260.12L226.65,255.52L226.7,257.82L228.86,241.7L228.93,244L228.94,246.3L229.09,239.39L229.65,241.7L229.76,239.39L231,237.09L231.14,234.79L231.4,244L231.41,246.3L231.57,257.82L231.83,253.21L232.31,250.91L233.32,290.06L233.55,287.76L233.72,285.45L233.73,283.15L234.31,290.06L234.4,287.76L234.58,285.45L235.47,292.36L235.48,290.06L235.48,287.76L236.2,296.97L236.43,294.67L236.43,296.97L236.62,287.76L237.15,294.67L237.39,292.36L237.39,294.67L237.68,292.36L238.34,290.06L238.38,287.76L239.16,290.06L239.64,285.45L240.25,283.15L241.91,276.24L241.91,278.55L243.32,271.64L244.23,273.94L247.73,271.64L247.82,269.33L248.07,267.03L248.36,269.33L249.9,267.03L250.8,262.42L251.14,260.12L251.51,257.82L253.04,255.52L253.46,248.61L253.66,255.52L253.66,257.82L254.83,246.3L256.82,244L256.89,239.39L257.88,237.09L259.45,232.48L259.49,234.79L259.51,250.91L260.11,241.7L260.38,239.39L260.38,241.7L260.52,239.39L262.57,237.09L264.2,234.79L264.38,232.48L266.07,230.18L266.07,232.48L266.07,230.18L266.08,232.48L267,230.18L267.18,227.88L267.83,230.18L268.75,239.39L268.95,241.7L270.43,239.39L270.93,241.7L272.26,237.09L272.93,234.79L272.93,237.09L273.7,234.79L273.8,230.18L274.91,232.48L275.45,260.12L277.91,257.82L278.38,260.12L278.75,257.82L278.77,260.12L281.48,257.82L282.16,262.42L282.19,260.12L282.29,257.82L282.54,260.12L283.2,262.42L283.38,257.82L283.38,260.12L285.64,257.82L286.41,253.21L288.36,250.91L288.86,246.3L288.99,244L289.01,241.7L289.05,253.21L289.39,248.61L289.83,250.91L290.29,255.52L290.5,253.21L290.75,250.91L291.52,280.85L291.74,278.55L292.68,271.64L293.28,269.33L294.24,257.82L295.17,255.52L296.13,250.91L296.19,248.61L297.59,239.39L297.6,237.09L297.91,220.97L300.02,218.67L301.86,216.36L301.86,214.06L305.12,216.36L305.19,214.06L306.8,209.45L307.36,207.15L308.74,200.24L308.74,197.94L308.87,193.33L309.25,241.7L309.55,239.39L309.98,237.09L309.99,244L310.23,241.7L310.38,239.39L311.37,227.88L311.48,230.18L313.74,227.88L314.21,225.58L314.49,227.88L315.41,225.58L315.79,227.88L316.9,225.58L318.3,227.88L318.32,230.18L318.33,234.79L318.96,232.48L319.64,234.79L320.06,248.61L320.46,250.91L320.59,248.61L320.89,255.52L321.08,253.21L321.45,255.52L322.53,248.61L322.78,246.3L323.63,244L323.66,241.7L324.47,237.09L324.71,239.39L325.29,241.7L325.68,239.39L325.68,241.7L326.37,239.39L326.63,241.7L326.63,246.3L327.18,244L328.46,241.7L328.66,237.09L329.1,246.3L329.64,244L330.68,234.79L330.7,237.09L333.66,234.79L334.03,237.09L335.36,234.79L335.78,232.48L336.51,237.09L336.79,234.79L336.86,239.39L337.59,237.09L338.66,230.18L338.66,232.48L339.08,227.88L339.62,225.58L340.04,230.18L340.06,225.58L340.56,227.88L341.13,225.58L341.14,227.88L341.83,225.58L341.97,227.88L342.62,225.58L343.73,220.97L343.74,218.67L343.79,223.27L344.54,220.97L345.38,216.36L346.44,214.06L347.56,200.24L347.68,202.55L349.33,200.24L349.6,197.94L350.63,195.64L350.63,197.94L350.77,211.76L350.77,214.06L350.77,216.36L350.77,211.76L350.88,216.36L352.3,214.06L353.19,211.76L353.2,214.06L354.97,211.76L354.97,214.06L355.38,211.76L357.71,209.45L357.71,211.76L358.36,211.76L358.94,209.45L359.66,200.24L359.72,202.55L360.86,200.24L360.96,195.64L361.38,209.45L361.73,207.15L361.95,209.45L362.88,207.15L363.67,197.94L363.88,195.64L364.44,207.15L364.54,200.24L364.73,197.94L365.41,211.76L365.64,209.45L366.44,232.48L366.51,230.18L367.2,244L367.56,241.7L368.33,244L370.68,241.7L371.26,234.79L371.29,237.09L371.52,239.39L374.94,237.09L374.95,239.39L375.64,234.79L376.51,237.09L377.59,234.79L378.48,232.48L378.48,234.79L380.25,232.48L380.39,227.88L381.37,230.18L381.9,223.27L381.9,220.97L381.91,214.06L385.52,216.36L386.56,207.15L388.59,204.85L389.07,200.24L389.07,202.55L389.07,204.85L391.08,200.24L391.52,197.94L394.18,193.33L394.37,191.03L394.91,188.73L394.92,191.03L395.08,193.33L395.66,204.85L395.78,202.55L396.36,200.24L396.41,202.55L396.72,191.03L397.11,188.73L397.28,181.82L397.47,191.03L397.48,193.33L397.48,195.64L398.21,184.12L398.34,181.82L399.13,197.94L399.29,195.64L399.41,193.33L399.42,202.55L400.02,200.24L400.28,197.94L400.98,195.64L400.99,193.33L401.4,207.15L401.87,202.55L401.9,200.24L402.28,186.42L402.46,211.76L402.76,209.45L403.18,195.64L403.32,207.15L403.32,209.45L403.37,211.76L403.92,204.85L403.95,207.15L404.53,204.85L404.67,211.76L405.22,200.24L405.29,197.94L405.35,200.24L405.71,186.42L405.71,184.12L405.74,177.21L405.87,216.36L406.18,207.15L406.57,204.85L406.98,200.24L407.2,207.15L407.24,204.85L407.63,202.55L408.26,209.45L408.58,211.76L408.87,214.06L409.19,204.85L409.54,207.15L409.68,218.67L410.13,216.36L410.52,214.06L411.16,225.58L411.73,223.27L412.07,225.58L412.44,216.36L412.45,214.06L412.68,207.15L413.37,209.45L413.51,220.97L413.8,204.85L414.12,211.76L414.2,214.06L414.34,209.45L414.34,216.36L414.5,216.36L415.61,214.06L415.74,218.67L415.9,214.06L416.54,211.76L416.69,214.06L416.87,209.45L417.2,207.15L417.23,214.06L417.61,209.45L418.29,207.15L418.78,204.85L418.78,207.15L418.78,209.45L419.29,204.85L419.29,202.55L419.3,200.24L419.34,209.45L419.47,202.55L420.29,200.24L420.51,193.33L420.63,202.55L420.71,204.85L421.39,223.27L421.64,218.67L421.64,216.36L421.99,214.06L421.99,218.67L421.99,220.97L421.99,218.67L422,225.58L422.57,223.27L422.79,220.97L423.02,223.27L423.26,214.06L423.38,216.36L423.4,214.06L423.83,230.18L424.13,218.67L424.18,216.36L424.18,214.06L424.2,230.18L424.87,218.67L425.01,216.36L425.15,220.97L425.47,209.45L425.73,211.76L426.25,232.48L426.4,230.18L426.81,232.48L427.23,220.97L427.51,223.27L427.75,220.97L427.75,223.27L428.18,218.67L428.18,218.67L429.25,216.36L429.83,211.76L429.83,214.06L430.61,211.76L430.65,209.45L430.68,227.88L431.07,225.58L431.59,227.88L431.7,230.18L431.86,218.67L431.86,216.36L432.26,211.76L432.3,216.36L432.51,218.67L432.53,216.36L433.22,232.48L433.22,230.18L433.51,232.48L433.81,225.58L434.08,230.18L434.38,232.48L434.72,234.79L435.02,225.58L435.04,227.88L435.43,225.58L436.48,218.67L436.8,220.97L436.8,223.27L436.83,218.67L436.95,227.88L437.37,227.88L437.65,225.58L437.66,227.88L437.92,223.27L438.16,227.88L438.45,225.58L438.75,234.79L438.99,230.18L439.3,232.48L439.94,227.88L439.94,230.18L440.17,227.88L440.34,220.97L440.35,230.18L440.52,225.58L441.2,227.88L441.57,225.58L441.72,234.79L442.11,232.48L442.4,230.18L442.41,234.79L442.68,232.48L442.96,230.18L443.61,227.88L443.61,230.18L443.77,232.48L443.78,230.18L443.92,241.7L444.44,239.39L444.5,237.09L444.58,234.79L445.14,241.7L445.16,239.39L445.26,241.7L445.94,230.18L445.95,239.39L445.95,241.7L445.95,239.39L446.09,244L446.65,241.7L446.89,239.39L446.89,244L447.62,241.7L447.73,244L447.75,248.61L448.42,244L449.23,241.7L449.35,244L449.99,241.7L450.13,237.09L450.18,248.61L450.21,248.61L450.21,250.91L450.89,241.7L450.89,248.61L450.89,250.91L451.56,246.3L451.59,248.61L451.67,250.91L451.98,244L451.98,246.3L452.51,244L452.51,246.3L453.22,237.09L453.24,239.39L453.49,241.7L453.8,246.3L454.01,239.39L454.6,237.09L454.87,241.7L454.89,239.39L455.8,237.09L455.8,239.39L456.38,234.79L456.53,234.79L457.02,232.48L457.46,227.88L457.73,232.48L457.85,230.18L457.87,227.88L458.74,230.18L459.35,227.88L459.63,237.09L459.67,234.79L460.35,241.7L460.59,239.39L460.59,237.09L460.61,239.39L461.29,227.88L461.29,230.18L461.3,227.88L461.3,237.09L461.61,234.79L462.23,232.48L462.23,234.79L462.79,227.88L462.81,234.79L463.46,232.48L463.6,244L464.21,239.39L464.22,237.09L464.84,250.91L465.58,248.61L465.96,250.91L465.99,248.61L466.62,246.3L467.15,250.91L467.9,248.61L468.32,244L468.71,246.3L468.79,248.61L469.14,244L469.2,248.61L469.22,250.91L469.24,246.3L469.95,248.61L470.04,246.3L470.36,241.7L470.36,244L471.03,246.3L471.15,241.7L471.63,246.3L472.46,244L473.29,241.7L473.29,244L473.33,246.3L473.87,241.7L473.87,246.3L474.72,244L474.82,239.39L474.84,246.3L474.97,241.7L475.78,244L476.35,234.79L476.66,232.48L477.16,234.79L477.33,232.48L477.33,230.18L477.95,220.97L477.95,234.79L478.04,232.48L478.28,230.18L478.56,227.88L478.56,232.48L478.56,234.79L479.13,232.48L479.36,234.79L479.47,232.48L479.78,239.39L480.41,241.7L480.87,237.09L480.99,244L480.99,241.7L481,244L481.64,248.61L481.79,246.3L482.39,244L482.63,241.7L482.66,248.61L482.82,244L483.44,241.7L484.26,248.61L484.3,246.3L484.53,248.61L484.95,244L485.21,246.3L485.53,239.39L485.61,244L486.36,241.7L486.73,246.3L487.15,234.79L487.68,232.48L487.83,244L488.4,237.09L488.94,234.79L489.68,230.18L490.06,232.48L490.07,234.79L491,232.48L491.24,237.09L491.67,227.88L491.71,234.79L491.79,232.48L492.19,234.79L492.49,232.48L493.84,230.18L494.97,220.97L495.08,223.27L495.08,225.58L495.08,227.88L495.24,220.97L495.28,220.97L497.42,223.27L497.8,218.67L498.1,237.09L498.21,234.79L498.22,237.09L498.92,230.18L498.92,232.48L499.18,234.79L499.88,220.97L499.92,223.27L500.02,225.58L500.12,223.27L500.56,230.18L500.71,223.27L501.12,220.97L501.63,216.36L501.64,218.67L501.67,220.97L501.82,216.36L501.82,220.97L503.67,218.67L503.67,220.97L505.4,218.67L506.91,207.15L506.95,204.85L506.96,202.55L506.97,209.45L507.4,207.15L507.73,204.85L509.2,200.24L509.43,197.94L509.44,200.24L509.91,193.33L511.02,191.03L511.65,181.82L511.65,181.82L511.66,179.52L511.66,181.82L512.23,168L512.33,168L512.59,165.7L512.59,168L513.02,156.48L513.3,156.48L513.41,154.18L513.41,156.48L514.13,149.58L514.22,151.88L514.95,140.36L517.18,138.06L518.41,121.94L519.32,119.64L520.97,115.03L522.72,112.73L523.63,101.21L523.94,98.91L524.26,94.3L524.8,92L524.81,94.3L525.24,85.09L525.87,82.79L525.87,85.09L526.62,80.48L526.85,78.18L527.7,71.27L528.1,68.97L529.32,66.67L529.33,64.36L530.7,59.76L531.31,57.45L531.31,59.76L531.74,59.76L532.16,57.45L533.31,52.85L533.59,50.55L533.59,52.85L534.19,41.33L534.33,48.24L534.36,45.94L534.42,48.24L535.1,43.64L535.11,45.94L535.15,43.64L535.15,45.94L535.49,27.52L536.34,25.21L538.2,22.91L539.04,20.61L539.44,16L539.52,18.3L540,16" style="fill: rgb(44, 160, 44); fill-opacity: 0.5; stroke-width: 0;"/></g></g><g class="errorbars"/><g class="lines"><path class="js-line" d="M0,317.7L0.1,320L0.99,317.7L1.65,320L1.75,317.7L1.75,320L2.97,317.7L3.69,320L4.52,317.7L4.52,320L4.62,320L5.33,317.7L5.33,320L5.89,320L6.7,317.7L6.7,320L7.26,320L8.74,317.7L8.74,320L9.36,317.7L9.57,320L11.21,317.7L11.21,320L13.96,317.7L13.96,320L21.07,317.7L21.07,320L21.26,317.7L21.26,320L22.82,317.7L22.82,315.39L22.96,317.7L24.06,320L25.7,317.7L25.7,320L26.97,315.39L26.97,317.7L26.97,320L29.7,317.7L29.7,320L29.83,320L31.03,317.7L31.03,320L31.61,320L32.47,317.7L32.47,320L33.22,320L33.26,317.7L33.26,320L33.94,317.7L34.03,320L36.53,315.39L36.95,317.7L37.07,315.39L37.07,317.7L38.32,320L39.02,317.7L39.02,320L40.66,317.7L40.66,320L41.71,317.7L41.71,320L42.18,310.79L42.29,313.09L42.79,315.39L43.22,317.7L43.64,315.39L43.65,317.7L44.86,315.39L48.57,313.09L48.57,315.39L48.86,317.7L49.63,315.39L50.5,320L51.86,317.7L52.24,320L55.27,317.7L55.27,320L55.27,317.7L56.72,315.39L57.03,317.7L57.79,315.39L58.57,313.09L58.58,315.39L59.12,320L60.9,317.7L61.18,320L61.83,317.7L61.98,315.39L62.92,317.7L63.09,313.09L63.21,315.39L64.01,317.7L64.31,315.39L64.31,317.7L64.84,315.39L64.91,310.79L65.02,320L65.1,320L65.67,317.7L66.49,315.39L66.49,317.7L67.19,313.09L67.2,315.39L67.87,313.09L72.23,310.79L72.68,308.48L74.31,320L75.27,317.7L75.27,320L76.21,317.7L77.36,315.39L77.41,317.7L78.44,313.09L78.84,310.79L79.33,308.48L79.33,310.79L79.35,313.09L80.45,308.48L80.46,310.79L81.26,308.48L81.26,310.79L81.54,313.09L82.1,310.79L82.1,313.09L82.1,310.79L83.85,313.09L84.02,310.79L84.02,313.09L84.88,310.79L85.11,313.09L85.8,310.79L86.25,308.48L86.99,310.79L87.68,308.48L87.96,310.79L90.15,308.48L90.15,310.79L90.71,308.48L90.74,310.79L92.07,313.09L92.55,310.79L92.75,313.09L92.89,310.79L92.89,313.09L93.87,310.79L93.88,296.97L94.55,308.48L94.82,310.79L94.82,313.09L94.97,308.48L95.36,308.48L95.92,306.18L96.61,308.48L96.78,306.18L97.29,301.58L97.45,306.18L97.53,308.48L98.14,299.27L98.26,303.88L99.19,306.18L99.6,299.27L99.6,299.27L100.12,301.58L101.13,290.06L102.05,287.76L103.03,290.06L103.31,287.76L103.43,292.36L104,292.36L104.12,290.06L104.41,299.27L104.54,296.97L105.17,294.67L105.65,285.45L105.65,287.76L106.02,290.06L106.06,292.36L106.87,290.06L107,287.76L107.01,290.06L108.25,292.36L108.94,301.58L110,299.27L110,301.58L112.07,299.27L112.07,296.97L112.08,301.58L113.99,299.27L114,301.58L114,299.27L115.02,301.58L115.08,299.27L116.85,296.97L117.81,301.58L117.95,299.27L117.95,301.58L117.98,301.58L118.77,299.27L119.08,301.58L119.76,299.27L119.79,301.58L121.36,299.27L121.38,301.58L123.16,299.27L123.26,301.58L123.64,299.27L124.1,296.97L124.22,299.27L125.08,296.97L125.08,299.27L125.47,290.06L125.61,290.06L125.99,287.76L126.32,299.27L126.32,299.27L127.27,296.97L127.37,301.58L127.55,301.58L128.22,299.27L129.16,296.97L129.28,294.67L129.28,296.97L130,294.67L130.09,292.36L130.79,287.76L130.82,290.06L131.12,287.76L131.33,290.06L131.76,287.76L131.77,285.45L131.77,278.55L131.92,292.36L133.14,290.06L133.25,287.76L133.26,290.06L134.64,287.76L135.38,296.97L136.55,294.67L136.94,296.97L138.48,294.67L139.52,292.36L139.52,294.67L140.8,287.76L140.8,290.06L141.05,292.36L141.07,294.67L141.45,290.06L141.77,292.36L142.73,294.67L142.89,299.27L143.57,296.97L143.66,294.67L145.21,292.36L145.72,285.45L145.73,290.06L145.73,292.36L145.78,296.97L147.51,294.67L147.61,296.97L147.65,294.67L149.17,292.36L149.19,294.67L150.5,292.36L150.5,294.67L150.91,292.36L151.34,290.06L152,287.76L152.04,290.06L154.78,292.36L157.7,287.76L158.41,285.45L159.16,287.76L159.84,285.45L159.84,287.76L162.42,285.45L162.86,287.76L163.44,285.45L164.62,283.15L164.85,285.45L164.85,283.15L164.89,301.58L164.89,299.27L167.19,296.97L167.2,299.27L169.45,301.58L170.51,299.27L170.51,301.58L171.11,299.27L171.14,301.58L173.27,299.27L173.42,296.97L174.75,299.27L174.76,301.58L175.33,283.15L175.44,292.36L176.9,290.06L177.22,283.15L178.82,280.85L179.3,278.55L179.31,280.85L181.42,278.55L181.89,280.85L183.17,278.55L183.45,280.85L183.74,278.55L185.84,276.24L188.72,273.94L188.82,276.24L189.68,273.94L190.35,276.24L190.39,271.64L190.61,273.94L191.45,276.24L191.7,285.45L192.49,287.76L192.57,290.06L192.66,285.45L195.96,283.15L196.51,285.45L197.17,283.15L197.31,280.85L199.37,278.55L202.22,276.24L203.74,273.94L203.76,271.64L205.03,269.33L205.78,271.64L205.8,269.33L206.09,285.45L206.1,283.15L207.04,285.45L207.45,287.76L207.46,285.45L208.56,287.76L209,292.36L209.36,290.06L209.38,292.36L209.89,285.45L209.93,290.06L210.47,292.36L210.5,294.67L211.37,292.36L212.5,290.06L212.51,292.36L214.42,287.76L214.7,285.45L216.96,283.15L218.05,285.45L219.57,283.15L220.03,280.85L222.25,276.24L222.26,278.55L223.08,271.64L224.84,269.33L225.12,262.42L225.62,260.12L226.65,255.52L226.7,257.82L228.86,241.7L228.93,244L228.94,246.3L229.09,239.39L229.65,241.7L229.76,239.39L231,237.09L231.14,234.79L231.4,244L231.41,246.3L231.57,257.82L231.83,253.21L232.31,250.91L233.32,290.06L233.55,287.76L233.72,285.45L233.73,283.15L234.31,290.06L234.4,287.76L234.58,285.45L235.47,292.36L235.48,290.06L235.48,287.76L236.2,296.97L236.43,294.67L236.43,296.97L236.62,287.76L237.15,294.67L237.39,292.36L237.39,294.67L237.68,292.36L238.34,290.06L238.38,287.76L239.16,290.06L239.64,285.45L240.25,283.15L241.91,276.24L241.91,278.55L243.32,271.64L244.23,273.94L247.73,271.64L247.82,269.33L248.07,267.03L248.36,269.33L249.9,267.03L250.8,262.42L251.14,260.12L251.51,257.82L253.04,255.52L253.46,248.61L253.66,255.52L253.66,257.82L254.83,246.3L256.82,244L256.89,239.39L257.88,237.09L259.45,232.48L259.49,234.79L259.51,250.91L260.11,241.7L260.38,239.39L260.38,241.7L260.52,239.39L262.57,237.09L264.2,234.79L264.38,232.48L266.07,230.18L266.07,232.48L266.07,230.18L266.08,232.48L267,230.18L267.18,227.88L267.83,230.18L268.75,239.39L268.95,241.7L270.43,239.39L270.93,241.7L272.26,237.09L272.93,234.79L272.93,237.09L273.7,234.79L273.8,230.18L274.91,232.48L275.45,260.12L277.91,257.82L278.38,260.12L278.75,257.82L278.77,260.12L281.48,257.82L282.16,262.42L282.19,260.12L282.29,257.82L282.54,260.12L283.2,262.42L283.38,257.82L283.38,260.12L285.64,257.82L286.41,253.21L288.36,250.91L288.86,246.3L288.99,244L289.01,241.7L289.05,253.21L289.39,248.61L289.83,250.91L290.29,255.52L290.5,253.21L290.75,250.91L291.52,280.85L291.74,278.55L292.68,271.64L293.28,269.33L294.24,257.82L295.17,255.52L296.13,250.91L296.19,248.61L297.59,239.39L297.6,237.09L297.91,220.97L300.02,218.67L301.86,216.36L301.86,214.06L305.12,216.36L305.19,214.06L306.8,209.45L307.36,207.15L308.74,200.24L308.74,197.94L308.87,193.33L309.25,241.7L309.55,239.39L309.98,237.09L309.99,244L310.23,241.7L310.38,239.39L311.37,227.88L311.48,230.18L313.74,227.88L314.21,225.58L314.49,227.88L315.41,225.58L315.79,227.88L316.9,225.58L318.3,227.88L318.32,230.18L318.33,234.79L318.96,232.48L319.64,234.79L320.06,248.61L320.46,250.91L320.59,248.61L320.89,255.52L321.08,253.21L321.45,255.52L322.53,248.61L322.78,246.3L323.63,244L323.66,241.7L324.47,237.09L324.71,239.39L325.29,241.7L325.68,239.39L325.68,241.7L326.37,239.39L326.63,241.7L326.63,246.3L327.18,244L328.46,241.7L328.66,237.09L329.1,246.3L329.64,244L330.68,234.79L330.7,237.09L333.66,234.79L334.03,237.09L335.36,234.79L335.78,232.48L336.51,237.09L336.79,234.79L336.86,239.39L337.59,237.09L338.66,230.18L338.66,232.48L339.08,227.88L339.62,225.58L340.04,230.18L340.06,225.58L340.56,227.88L341.13,225.58L341.14,227.88L341.83,225.58L341.97,227.88L342.62,225.58L343.73,220.97L343.74,218.67L343.79,223.27L344.54,220.97L345.38,216.36L346.44,214.06L347.56,200.24L347.68,202.55L349.33,200.24L349.6,197.94L350.63,195.64L350.63,197.94L350.77,211.76L350.77,214.06L350.77,216.36L350.77,211.76L350.88,216.36L352.3,214.06L353.19,211.76L353.2,214.06L354.97,211.76L354.97,214.06L355.38,211.76L357.71,209.45L357.71,211.76L358.36,211.76L358.94,209.45L359.66,200.24L359.72,202.55L360.86,200.24L360.96,195.64L361.38,209.45L361.73,207.15L361.95,209.45L362.88,207.15L363.67,197.94L363.88,195.64L364.44,207.15L364.54,200.24L364.73,197.94L365.41,211.76L365.64,209.45L366.44,232.48L366.51,230.18L367.2,244L367.56,241.7L368.33,244L370.68,241.7L371.26,234.79L371.29,237.09L371.52,239.39L374.94,237.09L374.95,239.39L375.64,234.79L376.51,237.09L377.59,234.79L378.48,232.48L378.48,234.79L380.25,232.48L380.39,227.88L381.37,230.18L381.9,223.27L381.9,220.97L381.91,214.06L385.52,216.36L386.56,207.15L388.59,204.85L389.07,200.24L389.07,202.55L389.07,204.85L391.08,200.24L391.52,197.94L394.18,193.33L394.37,191.03L394.91,188.73L394.92,191.03L395.08,193.33L395.66,204.85L395.78,202.55L396.36,200.24L396.41,202.55L396.72,191.03L397.11,188.73L397.28,181.82L397.47,191.03L397.48,193.33L397.48,195.64L398.21,184.12L398.34,181.82L399.13,197.94L399.29,195.64L399.41,193.33L399.42,202.55L400.02,200.24L400.28,197.94L400.98,195.64L400.99,193.33L401.4,207.15L401.87,202.55L401.9,200.24L402.28,186.42L402.46,211.76L402.76,209.45L403.18,195.64L403.32,207.15L403.32,209.45L403.37,211.76L403.92,204.85L403.95,207.15L404.53,204.85L404.67,211.76L405.22,200.24L405.29,197.94L405.35,200.24L405.71,186.42L405.71,184.12L405.74,177.21L405.87,216.36L406.18,207.15L406.57,204.85L406.98,200.24L407.2,207.15L407.24,204.85L407.63,202.55L408.26,209.45L408.58,211.76L408.87,214.06L409.19,204.85L409.54,207.15L409.68,218.67L410.13,216.36L410.52,214.06L411.16,225.58L411.73,223.27L412.07,225.58L412.44,216.36L412.45,214.06L412.68,207.15L413.37,209.45L413.51,220.97L413.8,204.85L414.12,211.76L414.2,214.06L414.34,209.45L414.34,216.36L414.5,216.36L415.61,214.06L415.74,218.67L415.9,214.06L416.54,211.76L416.69,214.06L416.87,209.45L417.2,207.15L417.23,214.06L417.61,209.45L418.29,207.15L418.78,204.85L418.78,207.15L418.78,209.45L419.29,204.85L419.29,202.55L419.3,200.24L419.34,209.45L419.47,202.55L420.29,200.24L420.51,193.33L420.63,202.55L420.71,204.85L421.39,223.27L421.64,218.67L421.64,216.36L421.99,214.06L421.99,218.67L421.99,220.97L421.99,218.67L422,225.58L422.57,223.27L422.79,220.97L423.02,223.27L423.26,214.06L423.38,216.36L423.4,214.06L423.83,230.18L424.13,218.67L424.18,216.36L424.18,214.06L424.2,230.18L424.87,218.67L425.01,216.36L425.15,220.97L425.47,209.45L425.73,211.76L426.25,232.48L426.4,230.18L426.81,232.48L427.23,220.97L427.51,223.27L427.75,220.97L427.75,223.27L428.18,218.67L428.18,218.67L429.25,216.36L429.83,211.76L429.83,214.06L430.61,211.76L430.65,209.45L430.68,227.88L431.07,225.58L431.59,227.88L431.7,230.18L431.86,218.67L431.86,216.36L432.26,211.76L432.3,216.36L432.51,218.67L432.53,216.36L433.22,232.48L433.22,230.18L433.51,232.48L433.81,225.58L434.08,230.18L434.38,232.48L434.72,234.79L435.02,225.58L435.04,227.88L435.43,225.58L436.48,218.67L436.8,220.97L436.8,223.27L436.83,218.67L436.95,227.88L437.37,227.88L437.65,225.58L437.66,227.88L437.92,223.27L438.16,227.88L438.45,225.58L438.75,234.79L438.99,230.18L439.3,232.48L439.94,227.88L439.94,230.18L440.17,227.88L440.34,220.97L440.35,230.18L440.52,225.58L441.2,227.88L441.57,225.58L441.72,234.79L442.11,232.48L442.4,230.18L442.41,234.79L442.68,232.48L442.96,230.18L443.61,227.88L443.61,230.18L443.77,232.48L443.78,230.18L443.92,241.7L444.44,239.39L444.5,237.09L444.58,234.79L445.14,241.7L445.16,239.39L445.26,241.7L445.94,230.18L445.95,239.39L445.95,241.7L445.95,239.39L446.09,244L446.65,241.7L446.89,239.39L446.89,244L447.62,241.7L447.73,244L447.75,248.61L448.42,244L449.23,241.7L449.35,244L449.99,241.7L450.13,237.09L450.18,248.61L450.21,248.61L450.21,250.91L450.89,241.7L450.89,248.61L450.89,250.91L451.56,246.3L451.59,248.61L451.67,250.91L451.98,244L451.98,246.3L452.51,244L452.51,246.3L453.22,237.09L453.24,239.39L453.49,241.7L453.8,246.3L454.01,239.39L454.6,237.09L454.87,241.7L454.89,239.39L455.8,237.09L455.8,239.39L456.38,234.79L456.53,234.79L457.02,232.48L457.46,227.88L457.73,232.48L457.85,230.18L457.87,227.88L458.74,230.18L459.35,227.88L459.63,237.09L459.67,234.79L460.35,241.7L460.59,239.39L460.59,237.09L460.61,239.39L461.29,227.88L461.29,230.18L461.3,227.88L461.3,237.09L461.61,234.79L462.23,232.48L462.23,234.79L462.79,227.88L462.81,234.79L463.46,232.48L463.6,244L464.21,239.39L464.22,237.09L464.84,250.91L465.58,248.61L465.96,250.91L465.99,248.61L466.62,246.3L467.15,250.91L467.9,248.61L468.32,244L468.71,246.3L468.79,248.61L469.14,244L469.2,248.61L469.22,250.91L469.24,246.3L469.95,248.61L470.04,246.3L470.36,241.7L470.36,244L471.03,246.3L471.15,241.7L471.63,246.3L472.46,244L473.29,241.7L473.29,244L473.33,246.3L473.87,241.7L473.87,246.3L474.72,244L474.82,239.39L474.84,246.3L474.97,241.7L475.78,244L476.35,234.79L476.66,232.48L477.16,234.79L477.33,232.48L477.33,230.18L477.95,220.97L477.95,234.79L478.04,232.48L478.28,230.18L478.56,227.88L478.56,232.48L478.56,234.79L479.13,232.48L479.36,234.79L479.47,232.48L479.78,239.39L480.41,241.7L480.87,237.09L480.99,244L480.99,241.7L481,244L481.64,248.61L481.79,246.3L482.39,244L482.63,241.7L482.66,248.61L482.82,244L483.44,241.7L484.26,248.61L484.3,246.3L484.53,248.61L484.95,244L485.21,246.3L485.53,239.39L485.61,244L486.36,241.7L486.73,246.3L487.15,234.79L487.68,232.48L487.83,244L488.4,237.09L488.94,234.79L489.68,230.18L490.06,232.48L490.07,234.79L491,232.48L491.24,237.09L491.67,227.88L491.71,234.79L491.79,232.48L492.19,234.79L492.49,232.48L493.84,230.18L494.97,220.97L495.08,223.27L495.08,225.58L495.08,227.88L495.24,220.97L495.28,220.97L497.42,223.27L497.8,218.67L498.1,237.09L498.21,234.79L498.22,237.09L498.92,230.18L498.92,232.48L499.18,234.79L499.88,220.97L499.92,223.27L500.02,225.58L500.12,223.27L500.56,230.18L500.71,223.27L501.12,220.97L501.63,216.36L501.64,218.67L501.67,220.97L501.82,216.36L501.82,220.97L503.67,218.67L503.67,220.97L505.4,218.67L506.91,207.15L506.95,204.85L506.96,202.55L506.97,209.45L507.4,207.15L507.73,204.85L509.2,200.24L509.43,197.94L509.44,200.24L509.91,193.33L511.02,191.03L511.65,181.82L511.65,181.82L511.66,179.52L511.66,181.82L512.23,168L512.33,168L512.59,165.7L512.59,168L513.02,156.48L513.3,156.48L513.41,154.18L513.41,156.48L514.13,149.58L514.22,151.88L514.95,140.36L517.18,138.06L518.41,121.94L519.32,119.64L520.97,115.03L522.72,112.73L523.63,101.21L523.94,98.91L524.26,94.3L524.8,92L524.81,94.3L525.24,85.09L525.87,82.79L525.87,85.09L526.62,80.48L526.85,78.18L527.7,71.27L528.1,68.97L529.32,66.67L529.33,64.36L530.7,59.76L531.31,57.45L531.31,59.76L531.74,59.76L532.16,57.45L533.31,52.85L533.59,50.55L533.59,52.85L534.19,41.33L534.33,48.24L534.36,45.94L534.42,48.24L535.1,43.64L535.11,45.94L535.15,43.64L535.15,45.94L535.49,27.52L536.34,25.21L538.2,22.91L539.04,20.61L539.44,16L539.52,18.3L540,16" style="vector-effect: none; fill: none; stroke: rgb(44, 160, 44); stroke-opacity: 1; stroke-width: 2px; opacity: 1;"/></g><g class="points"/><g class="text"/></g></g></g></g><g class="zerolinelayer-above"/><path class="xlines-above crisp" d="M0,0" style="fill: none;"/><path class="ylines-above crisp" d="M0,0" style="fill: none;"/><g class="overlines-above"/><g class="xaxislayer-above"><g class="xtick"><text text-anchor="middle" x="0" y="439" transform="translate(96.34,0)" style="font-family: 'Open Sans'; font-size: 18px; fill: rgb(0, 0, 0); fill-opacity: 1; white-space: pre;">2016</text></g><g class="xtick"><text text-anchor="middle" x="0" y="439" style="font-family: 'Open Sans'; font-size: 18px; fill: rgb(0, 0, 0); fill-opacity: 1; white-space: pre;" transform="translate(196.37,0)">2018</text></g><g class="xtick"><text text-anchor="middle" x="0" y="439" style="font-family: 'Open Sans'; font-size: 18px; fill: rgb(0, 0, 0); fill-opacity: 1; white-space: pre;" transform="translate(296.26,0)">2020</text></g><g class="xtick"><text text-anchor="middle" x="0" y="439" style="font-family: 'Open Sans'; font-size: 18px; fill: rgb(0, 0, 0); fill-opacity: 1; white-space: pre;" transform="translate(396.29,0)">2022</text></g><g class="xtick"><text text-anchor="middle" x="0" y="439" style="font-family: 'Open Sans'; font-size: 18px; fill: rgb(0, 0, 0); fill-opacity: 1; white-space: pre;" transform="translate(496.19,0)">2024</text></g><g class="xtick"><text text-anchor="middle" x="0" y="439" style="font-family: 'Open Sans'; font-size: 18px; fill: rgb(0, 0, 0); fill-opacity: 1; white-space: pre;" transform="translate(596.22,0)">2026</text></g></g><g class="yaxislayer-above"><g class="ytick"><text text-anchor="end" x="79" y="6.3" transform="translate(0,420)" style="font-family: 'Open Sans'; font-size: 18px; fill: rgb(0, 0, 0); fill-opacity: 1; white-space: pre;">0</text></g><g class="ytick"><text text-anchor="end" x="79" y="6.3" style="font-family: 'Open Sans'; font-size: 18px; fill: rgb(0, 0, 0); fill-opacity: 1; white-space: pre;" transform="translate(0,373.94)">20</text></g><g class="ytick"><text text-anchor="end" x="79" y="6.3" style="font-family: 'Open Sans'; font-size: 18px; fill: rgb(0, 0, 0); fill-opacity: 1; white-space: pre;" transform="translate(0,327.88)">40</text></g><g class="ytick"><text text-anchor="end" x="79" y="6.3" style="font-family: 'Open Sans'; font-size: 18px; fill: rgb(0, 0, 0); fill-opacity: 1; white-space: pre;" transform="translate(0,281.82)">60</text></g><g class="ytick"><text text-anchor="end" x="79" y="6.3" style="font-family: 'Open Sans'; font-size: 18px; fill: rgb(0, 0, 0); fill-opacity: 1; white-space: pre;" transform="translate(0,235.76)">80</text></g><g class="ytick"><text text-anchor="end" x="79" y="6.3" style="font-family: 'Open Sans'; font-size: 18px; fill: rgb(0, 0, 0); fill-opacity: 1; white-space: pre;" transform="translate(0,189.7)">100</text></g><g class="ytick"><text text-anchor="end" x="79" y="6.3" style="font-family: 'Open Sans'; font-size: 18px; fill: rgb(0, 0, 0); fill-opacity: 1; white-space: pre;" transform="translate(0,143.64)">120</text></g></g><g class="overaxes-above"/></g></g><g class="polarlayer"/><g class="smithlayer"/><g class="ternarylayer"/><g class="geolayer"/><g class="funnelarealayer"/><g class="pielayer"/><g class="iciclelayer"/><g class="treemaplayer"/><g class="sunburstlayer"/><g class="glimages"/><defs id="topdefs-86f298"><g class="clips"/></defs><g class="layer-above"><g class="imagelayer"/><g class="shapelayer"/></g><g class="infolayer"><g class="g-gtitle"><text class="gtitle" x="35" y="50" text-anchor="start" dy="0em" style="opacity: 1; font-family: 'Open Sans'; font-size: 25px; fill: rgb(0, 0, 0); fill-opacity: 1; white-space: pre;">MultiQC/MultiQC - Open Pull Requests Over Time</text></g><g class="g-xtitle"><text class="xtitle" x="350" y="472.9" text-anchor="middle" style="opacity: 1; font-family: 'Open Sans'; font-size: 22px; fill: rgb(0, 0, 0); fill-opacity: 1; white-space: pre;">Date</text></g><g class="g-ytitle"><text class="ytitle" transform="rotate(-90,29.799999999999997,260)" x="29.799999999999997" y="260" text-anchor="middle" style="opacity: 1; font-family: 'Open Sans'; font-size: 22px; fill: rgb(0, 0, 0); fill-opacity: 1; white-space: pre;">Number of Open PRs</text></g></g></svg>