<svg class="main-svg" xmlns="http://www.w3.org/2000/svg" xmlns:xlink="http://www.w3.org/1999/xlink" width="700" height="500" style="" viewBox="0 0 700 500"><rect x="0" y="0" width="700" height="500" style="fill: rgb(0, 0, 0); fill-opacity: 0;"/><defs id="defs-579e4f"><g class="clips"><clipPath id="clip579e4fxyplot" class="plotclip"><rect width="540" height="320"/></clipPath><clipPath class="axesclip" id="clip579e4fx"><rect x="80" y="0" width="540" height="500"/></clipPath><clipPath class="axesclip" id="clip579e4fy"><rect x="0" y="100" width="700" height="320"/></clipPath><clipPath class="axesclip" id="clip579e4fxy"><rect x="80" y="100" width="540" height="320"/></clipPath></g><g class="gradients"/><g class="patterns"/></defs><g class="bglayer"><rect class="bg" x="80" y="100" width="540" height="320" style="fill: rgb(0, 0, 0); fill-opacity: 0; stroke-width: 0;"/></g><g class="layer-below"><g class="imagelayer"/><g class="shapelayer"/></g><g class="cartesianlayer"><g class="subplot xy"><g class="layer-subplot"><g class="shapelayer"/><g class="imagelayer"/></g><g class="minor-gridlayer"><g class="x"/><g class="y"/></g><g class="gridlayer"><g class="x"><path class="xgrid crisp" transform="translate(97.34,0)" d="M0,100v320" style="stroke: rgb(255, 255, 255); stroke-opacity: 1; stroke-width: 1px;"/><path class="xgrid crisp" transform="translate(203.53,0)" d="M0,100v320" style="stroke: rgb(255, 255, 255); stroke-opacity: 1; stroke-width: 1px;"/><path class="xgrid crisp" transform="translate(309.58000000000004,0)" d="M0,100v320" style="stroke: rgb(255, 255, 255); stroke-opacity: 1; stroke-width: 1px;"/><path class="xgrid crisp" transform="translate(415.77,0)" d="M0,100v320" style="stroke: rgb(255, 255, 255); stroke-opacity: 1; stroke-width: 1px;"/><path class="xgrid crisp" transform="translate(521.8199999999999,0)" d="M0,100v320" style="stroke: rgb(255, 255, 255); stroke-opacity: 1; stroke-width: 1px;"/></g><g class="y"><path class="ygrid crisp" transform="translate(0,381.59)" d="M80,0h540" style="stroke: rgb(255, 255, 255); stroke-opacity: 1; stroke-width: 1px;"/><path class="ygrid crisp" transform="translate(0,343.18)" d="M80,0h540" style="stroke: rgb(255, 255, 255); stroke-opacity: 1; stroke-width: 1px;"/><path class="ygrid crisp" transform="translate(0,304.78)" d="M80,0h540" style="stroke: rgb(255, 255, 255); stroke-opacity: 1; stroke-width: 1px;"/><path class="ygrid crisp" transform="translate(0,266.37)" d="M80,0h540" style="stroke: rgb(255, 255, 255); stroke-opacity: 1; stroke-width: 1px;"/><path class="ygrid crisp" transform="translate(0,227.95999999999998)" d="M80,0h540" style="stroke: rgb(255, 255, 255); stroke-opacity: 1; stroke-width: 1px;"/><path class="ygrid crisp" transform="translate(0,189.55)" d="M80,0h540" style="stroke: rgb(255, 255, 255); stroke-opacity: 1; stroke-width: 1px;"/><path class="ygrid crisp" transform="translate(0,151.14)" d="M80,0h540" style="stroke: rgb(255, 255, 255); stroke-opacity: 1; stroke-width: 1px;"/><path class="ygrid crisp" transform="translate(0,112.74)" d="M80,0h540" style="stroke: rgb(255, 255, 255); stroke-opacity: 1; stroke-width: 1px;"/></g></g><g class="zerolinelayer"><path class="yzl zl crisp" transform="translate(0,420)" d="M80,0h540" style="stroke: rgb(255, 255, 255); stroke-opacity: 1; stroke-width: 2px;"/></g><g class="layer-between"><g class="shapelayer"/><g class="imagelayer"/></g><path class="xlines-below"/><path class="ylines-below"/><g class="overlines-below"/><g class="xaxislayer-below"/><g class="yaxislayer-below"/><g class="overaxes-below"/><g class="overplot"><g class="xy" transform="translate(80,100)" clip-path="url(#clip579e4fxyplot)"><g class="scatterlayer mlayer"><g class="trace scatter traceb69e8b" style="stroke-miterlimit: 2;"><g class="fills"><g><path class="js-fill" d="M540,320L0,320L0,319.81L3.62,318.46L3.92,318.27L5.94,317.12L6.26,316.93L14.82,315.39L22.37,315.2L22.57,315.01L24.22,314.81L24.22,314.62L27.28,314.43L35.62,311.93L36.03,311.74L44.64,309.82L44.74,309.63L44.78,309.05L45.74,308.86L46.33,308.48L47.63,308.29L60.21,306.94L61.35,306.75L68.83,304.44L68.88,304.25L69.71,303.29L70.58,303.1L72.05,302.33L76.68,302.14L79.9,301.37L80.9,301.18L85,299.84L85.4,299.64L96.3,297.72L97.77,297.53L99.66,296.19L99.66,295.99L100.37,293.5L100.78,293.31L101.23,292.92L101.83,292.73L103.55,291.39L103.7,291.19L104.31,290.23L105.3,290.04L106.47,288.7L106.58,288.51L107.36,287.74L108.33,287.55L111.64,285.62L111.64,285.43L112.15,284.86L113.46,284.66L113.59,284.47L115.63,284.28L115.64,284.09L116.77,283.9L124.61,282.55L124.91,282.36L125.23,281.78L126.08,281.59L133.2,279.86L133.2,279.67L134.1,278.9L135.1,278.71L139.19,276.79L139.87,276.6L140.02,275.64L141.33,275.45L141.45,275.25L142.93,275.06L143.48,274.68L144.95,274.49L145.27,274.1L147.01,273.91L154.69,271.03L156.6,270.84L156.74,270.65L158.36,270.45L175.03,267.77L175.05,267.57L185.54,266.23L185.54,266.04L186.21,264.88L187.79,264.69L188.13,263.92L189.83,263.73L190.34,263.16L192.6,262.96L217.65,259.7L218.38,259.51L218.79,258.55L220.23,258.36L224.39,257.2L225.59,257.01L238.69,254.51L238.69,254.32L239.52,253.55L239.81,253.36L242.45,252.02L242.71,251.83L243.19,250.67L243.79,250.48L243.91,250.29L245.23,250.1L246.62,249.14L247.1,248.95L248.83,247.98L249.03,247.79L252.15,245.1L252.31,244.91L258.31,242.61L262.99,242.42L263.34,242.03L265.28,241.84L269.07,240.3L269.18,240.11L270.53,238.96L272.64,238.77L272.71,238.38L273.76,238.19L278.74,236.46L280.47,236.27L280.67,236.08L282.46,235.89L282.46,235.69L283.44,235.5L283.63,235.31L285.04,235.12L290.6,233.97L290.66,233.77L303.24,231.09L304.05,230.89L306.81,229.93L307.21,229.74L307.22,229.55L308.39,229.36L309.28,227.82L309.29,227.63L311.73,225.71L311.78,225.52L315.31,223.79L315.81,223.6L316.26,221.87L318.5,221.68L327.08,220.14L327.75,219.95L327.93,219.18L328.61,218.99L330.54,217.26L333.06,217.07L333.56,216.68L334.84,216.49L342.66,214.95L343.56,214.76L343.79,214.38L344.45,214.19L349.94,212.65L350.02,212.46L351.05,211.88L354.21,211.69L358.62,210.54L359.51,210.34L359.96,209.96L360.53,209.77L374.94,204.2L376.83,204.01L377.26,203.82L379.74,203.62L381.44,202.66L381.81,202.47L385.26,201.32L385.37,201.13L388.15,198.44L388.57,198.25L389.65,197.09L390.19,196.9L405.41,193.25L405.42,193.06L405.43,192.29L409.49,192.1L410.36,191.52L412.52,191.33L416.91,190.18L418.45,189.99L420.14,189.03L420.77,188.84L422.15,185.96L422.6,185.76L423.2,184.04L423.57,183.84L424.47,181.54L424.64,181.35L424.93,180.77L425.62,180.58L427.69,174.82L427.92,174.63L428.67,172.9L428.79,172.7L429.45,172.13L429.69,171.94L430.32,170.59L430.33,170.4L430.69,169.25L430.72,169.06L431.19,166.75L431.61,166.56L432.95,165.41L433.32,165.22L434.32,164.06L434.39,163.87L435.09,162.53L435.22,162.33L436.1,160.41L437.09,160.22L437.85,158.88L437.85,158.69L438.09,158.3L438.98,158.11L440.01,153.69L441.21,153.5L441.51,152.92L442.19,152.73L445.22,150.04L445.25,149.85L445.3,149.47L446.17,149.28L447.98,145.82L447.99,145.63L448.59,142.75L448.83,142.55L450.31,135.45L450.32,135.26L451.04,132.76L451.19,132.57L452.66,130.26L453.11,130.07L453.84,127.77L454.09,127.58L454.55,127L455.69,126.81L457.19,124.69L457.31,124.5L460.5,118.36L460.52,118.17L461.27,116.44L461.34,116.25L461.78,114.52L461.78,114.32L462.24,113.36L462.7,113.17L463.72,112.21L463.72,112.02L464.06,110.48L464.6,110.29L465.14,109.52L465.45,109.33L466.59,107.03L466.6,106.84L467.34,103.95L467.44,103.76L467.65,102.61L468.37,102.42L468.92,100.5L469.34,100.31L470.24,98.58L470.51,98.39L471.3,96.27L471.53,96.08L471.95,94.54L472.41,94.35L473.42,92.24L473.43,92.05L474.1,91.09L474.14,90.9L474.86,88.4L475.16,88.21L476.04,85.13L476.89,84.94L477.85,83.98L477.91,83.79L478.65,81.49L478.78,81.29L480.57,76.11L480.95,75.92L481.87,72.27L481.9,72.08L482.9,70.73L483.87,70.54L484.64,69.58L485.17,69.39L486.06,67.66L487.25,67.47L487.98,66.31L488.23,66.12L489.4,63.43L489.54,63.24L491.29,61.13L492,60.94L492.73,59.21L492.76,59.02L493.38,56.9L494.25,56.71L498.01,54.79L498.03,54.6L500.36,49.99L501.55,49.8L502.48,48.84L502.93,48.65L504.22,47.11L505.08,46.92L508.03,44.23L508.64,44.04L512.21,41.35L512.24,41.16L513.63,39.24L514.13,39.04L515.52,36.36L516.31,36.16L517.15,34.82L517.72,34.63L519.05,33.28L519.67,33.09L519.83,32.9L521.23,32.71L522.26,29.25L522.5,29.06L525.78,26.95L528.06,26.75L528.77,24.45L528.89,24.26L529.64,23.68L529.93,23.49L530.66,22.15L530.71,21.95L531.98,19.84L532.43,19.65L532.73,18.88L534.69,18.69L537.8,17.73L537.96,17.54L538.99,16.19L540,16" style="fill: rgb(44, 160, 44); fill-opacity: 0.5; stroke-width: 0;"/></g></g><g class="errorbars"/><g class="lines"><path class="js-line" d="M0,319.81L3.62,318.46L3.92,318.27L5.94,317.12L6.26,316.93L14.82,315.39L22.37,315.2L22.57,315.01L24.22,314.81L24.22,314.62L27.28,314.43L35.62,311.93L36.03,311.74L44.64,309.82L44.74,309.63L44.78,309.05L45.74,308.86L46.33,308.48L47.63,308.29L60.21,306.94L61.35,306.75L68.83,304.44L68.88,304.25L69.71,303.29L70.58,303.1L72.05,302.33L76.68,302.14L79.9,301.37L80.9,301.18L85,299.84L85.4,299.64L96.3,297.72L97.77,297.53L99.66,296.19L99.66,295.99L100.37,293.5L100.78,293.31L101.23,292.92L101.83,292.73L103.55,291.39L103.7,291.19L104.31,290.23L105.3,290.04L106.47,288.7L106.58,288.51L107.36,287.74L108.33,287.55L111.64,285.62L111.64,285.43L112.15,284.86L113.46,284.66L113.59,284.47L115.63,284.28L115.64,284.09L116.77,283.9L124.61,282.55L124.91,282.36L125.23,281.78L126.08,281.59L133.2,279.86L133.2,279.67L134.1,278.9L135.1,278.71L139.19,276.79L139.87,276.6L140.02,275.64L141.33,275.45L141.45,275.25L142.93,275.06L143.48,274.68L144.95,274.49L145.27,274.1L147.01,273.91L154.69,271.03L156.6,270.84L156.74,270.65L158.36,270.45L175.03,267.77L175.05,267.57L185.54,266.23L185.54,266.04L186.21,264.88L187.79,264.69L188.13,263.92L189.83,263.73L190.34,263.16L192.6,262.96L217.65,259.7L218.38,259.51L218.79,258.55L220.23,258.36L224.39,257.2L225.59,257.01L238.69,254.51L238.69,254.32L239.52,253.55L239.81,253.36L242.45,252.02L242.71,251.83L243.19,250.67L243.79,250.48L243.91,250.29L245.23,250.1L246.62,249.14L247.1,248.95L248.83,247.98L249.03,247.79L252.15,245.1L252.31,244.91L258.31,242.61L262.99,242.42L263.34,242.03L265.28,241.84L269.07,240.3L269.18,240.11L270.53,238.96L272.64,238.77L272.71,238.38L273.76,238.19L278.74,236.46L280.47,236.27L280.67,236.08L282.46,235.89L282.46,235.69L283.44,235.5L283.63,235.31L285.04,235.12L290.6,233.97L290.66,233.77L303.24,231.09L304.05,230.89L306.81,229.93L307.21,229.74L307.22,229.55L308.39,229.36L309.28,227.82L309.29,227.63L311.73,225.71L311.78,225.52L315.31,223.79L315.81,223.6L316.26,221.87L318.5,221.68L327.08,220.14L327.75,219.95L327.93,219.18L328.61,218.99L330.54,217.26L333.06,217.07L333.56,216.68L334.84,216.49L342.66,214.95L343.56,214.76L343.79,214.38L344.45,214.19L349.94,212.65L350.02,212.46L351.05,211.88L354.21,211.69L358.62,210.54L359.51,210.34L359.96,209.96L360.53,209.77L374.94,204.2L376.83,204.01L377.26,203.82L379.74,203.62L381.44,202.66L381.81,202.47L385.26,201.32L385.37,201.13L388.15,198.44L388.57,198.25L389.65,197.09L390.19,196.9L405.41,193.25L405.42,193.06L405.43,192.29L409.49,192.1L410.36,191.52L412.52,191.33L416.91,190.18L418.45,189.99L420.14,189.03L420.77,188.84L422.15,185.96L422.6,185.76L423.2,184.04L423.57,183.84L424.47,181.54L424.64,181.35L424.93,180.77L425.62,180.58L427.69,174.82L427.92,174.63L428.67,172.9L428.79,172.7L429.45,172.13L429.69,171.94L430.32,170.59L430.33,170.4L430.69,169.25L430.72,169.06L431.19,166.75L431.61,166.56L432.95,165.41L433.32,165.22L434.32,164.06L434.39,163.87L435.09,162.53L435.22,162.33L436.1,160.41L437.09,160.22L437.85,158.88L437.85,158.69L438.09,158.3L438.98,158.11L440.01,153.69L441.21,153.5L441.51,152.92L442.19,152.73L445.22,150.04L445.25,149.85L445.3,149.47L446.17,149.28L447.98,145.82L447.99,145.63L448.59,142.75L448.83,142.55L450.31,135.45L450.32,135.26L451.04,132.76L451.19,132.57L452.66,130.26L453.11,130.07L453.84,127.77L454.09,127.58L454.55,127L455.69,126.81L457.19,124.69L457.31,124.5L460.5,118.36L460.52,118.17L461.27,116.44L461.34,116.25L461.78,114.52L461.78,114.32L462.24,113.36L462.7,113.17L463.72,112.21L463.72,112.02L464.06,110.48L464.6,110.29L465.14,109.52L465.45,109.33L466.59,107.03L466.6,106.84L467.34,103.95L467.44,103.76L467.65,102.61L468.37,102.42L468.92,100.5L469.34,100.31L470.24,98.58L470.51,98.39L471.3,96.27L471.53,96.08L471.95,94.54L472.41,94.35L473.42,92.24L473.43,92.05L474.1,91.09L474.14,90.9L474.86,88.4L475.16,88.21L476.04,85.13L476.89,84.94L477.85,83.98L477.91,83.79L478.65,81.49L478.78,81.29L480.57,76.11L480.95,75.92L481.87,72.27L481.9,72.08L482.9,70.73L483.87,70.54L484.64,69.58L485.17,69.39L486.06,67.66L487.25,67.47L487.98,66.31L488.23,66.12L489.4,63.43L489.54,63.24L491.29,61.13L492,60.94L492.73,59.21L492.76,59.02L493.38,56.9L494.25,56.71L498.01,54.79L498.03,54.6L500.36,49.99L501.55,49.8L502.48,48.84L502.93,48.65L504.22,47.11L505.08,46.92L508.03,44.23L508.64,44.04L512.21,41.35L512.24,41.16L513.63,39.24L514.13,39.04L515.52,36.36L516.31,36.16L517.15,34.82L517.72,34.63L519.05,33.28L519.67,33.09L519.83,32.9L521.23,32.71L522.26,29.25L522.5,29.06L525.78,26.95L528.06,26.75L528.77,24.45L528.89,24.26L529.64,23.68L529.93,23.49L530.66,22.15L530.71,21.95L531.98,19.84L532.43,19.65L532.73,18.88L534.69,18.69L537.8,17.73L537.96,17.54L538.99,16.19L540,16" style="vector-effect: none; fill: none; stroke: rgb(44, 160, 44); stroke-opacity: 1; stroke-width: 2px; opacity: 1;"/></g><g class="points"/><g class="text"/></g></g></g></g><g class="zerolinelayer-above"/><path class="xlines-above crisp" d="M0,0" style="fill: none;"/><path class="ylines-above crisp" d="M0,0" style="fill: none;"/><g class="overlines-above"/><g class="xaxislayer-above"><g class="xtick"><text text-anchor="middle" x="0" y="439" transform="translate(97.34,0)" style="font-family: 'Open Sans'; font-size: 18px; fill: rgb(0, 0, 0); fill-opacity: 1; white-space: pre;">2016</text></g><g class="xtick"><text text-anchor="middle" x="0" y="439" style="font-family: 'Open Sans'; font-size: 18px; fill: rgb(0, 0, 0); fill-opacity: 1; white-space: pre;" transform="translate(203.53,0)">2018</text></g><g class="xtick"><text text-anchor="middle" x="0" y="439" style="font-family: 'Open Sans'; font-size: 18px; fill: rgb(0, 0, 0); fill-opacity: 1; white-space: pre;" transform="translate(309.58000000000004,0)">2020</text></g><g class="xtick"><text text-anchor="middle" x="0" y="439" style="font-family: 'Open Sans'; font-size: 18px; fill: rgb(0, 0, 0); fill-opacity: 1; white-space: pre;" transform="translate(415.77,0)">2022</text></g><g class="xtick"><text text-anchor="middle" x="0" y="439" style="font-family: 'Open Sans'; font-size: 18px; fill: rgb(0, 0, 0); fill-opacity: 1; white-space: pre;" transform="translate(521.8199999999999,0)">2024</text></g></g><g class="yaxislayer-above"><g class="ytick"><text text-anchor="end" x="79" y="6.3" transform="translate(0,420)" style="font-family: 'Open Sans'; font-size: 18px; fill: rgb(0, 0, 0); fill-opacity: 1; white-space: pre;">0</text></g><g class="ytick"><text text-anchor="end" x="79" y="6.3" style="font-family: 'Open Sans'; font-size: 18px; fill: rgb(0, 0, 0); fill-opacity: 1; white-space: pre;" transform="translate(0,381.59)">200</text></g><g class="ytick"><text text-anchor="end" x="79" y="6.3" style="font-family: 'Open Sans'; font-size: 18px; fill: rgb(0, 0, 0); fill-opacity: 1; white-space: pre;" transform="translate(0,343.18)">400</text></g><g class="ytick"><text text-anchor="end" x="79" y="6.3" style="font-family: 'Open Sans'; font-size: 18px; fill: rgb(0, 0, 0); fill-opacity: 1; white-space: pre;" transform="translate(0,304.78)">600</text></g><g class="ytick"><text text-anchor="end" x="79" y="6.3" style="font-family: 'Open Sans'; font-size: 18px; fill: rgb(0, 0, 0); fill-opacity: 1; white-space: pre;" transform="translate(0,266.37)">800</text></g><g class="ytick"><text text-anchor="end" x="79" y="6.3" style="font-family: 'Open Sans'; font-size: 18px; fill: rgb(0, 0, 0); fill-opacity: 1; white-space: pre;" transform="translate(0,227.95999999999998)">1000</text></g><g class="ytick"><text text-anchor="end" x="79" y="6.3" style="font-family: 'Open Sans'; font-size: 18px; fill: rgb(0, 0, 0); fill-opacity: 1; white-space: pre;" transform="translate(0,189.55)">1200</text></g><g class="ytick"><text text-anchor="end" x="79" y="6.3" style="font-family: 'Open Sans'; font-size: 18px; fill: rgb(0, 0, 0); fill-opacity: 1; white-space: pre;" transform="translate(0,151.14)">1400</text></g><g class="ytick"><text text-anchor="end" x="79" y="6.3" style="font-family: 'Open Sans'; font-size: 18px; fill: rgb(0, 0, 0); fill-opacity: 1; white-space: pre;" transform="translate(0,112.74)">1600</text></g></g><g class="overaxes-above"/></g></g><g class="polarlayer"/><g class="smithlayer"/><g class="ternarylayer"/><g class="geolayer"/><g class="funnelarealayer"/><g class="pielayer"/><g class="iciclelayer"/><g class="treemaplayer"/><g class="sunburstlayer"/><g class="glimages"/><defs id="topdefs-579e4f"><g class="clips"/></defs><g class="layer-above"><g class="imagelayer"/><g class="shapelayer"/></g><g class="infolayer"><g class="g-gtitle"><text class="gtitle" x="35" y="50" text-anchor="start" dy="0em" style="opacity: 1; font-family: 'Open Sans'; font-size: 25px; fill: rgb(0, 0, 0); fill-opacity: 1; white-space: pre;">MultiQC/MultiQC - Pull Requests Created Over Time</text></g><g class="g-xtitle"><text class="xtitle" x="350" y="472.9" text-anchor="middle" style="opacity: 1; font-family: 'Open Sans'; font-size: 22px; fill: rgb(0, 0, 0); fill-opacity: 1; white-space: pre;">Date</text></g><g class="g-ytitle"><text class="ytitle" transform="rotate(-90,20.799999999999997,260)" x="20.799999999999997" y="260" text-anchor="middle" style="opacity: 1; font-family: 'Open Sans'; font-size: 22px; fill: rgb(0, 0, 0); fill-opacity: 1; white-space: pre;">Cumulative PRs Created</text></g></g></svg>