<svg class="main-svg" xmlns="http://www.w3.org/2000/svg" xmlns:xlink="http://www.w3.org/1999/xlink" width="700" height="500" style="" viewBox="0 0 700 500"><rect x="0" y="0" width="700" height="500" style="fill: rgb(0, 0, 0); fill-opacity: 0;"/><defs id="defs-35208a"><g class="clips"><clipPath id="clip35208axyplot" class="plotclip"><rect width="540" height="320"/></clipPath><clipPath class="axesclip" id="clip35208ax"><rect x="80" y="0" width="540" height="500"/></clipPath><clipPath class="axesclip" id="clip35208ay"><rect x="0" y="100" width="700" height="320"/></clipPath><clipPath class="axesclip" id="clip35208axy"><rect x="80" y="100" width="540" height="320"/></clipPath></g><g class="gradients"/><g class="patterns"/></defs><g class="bglayer"><rect class="bg" x="80" y="100" width="540" height="320" style="fill: rgb(0, 0, 0); fill-opacity: 0; stroke-width: 0;"/></g><g class="layer-below"><g class="imagelayer"/><g class="shapelayer"/></g><g class="cartesianlayer"><g class="subplot xy"><g class="layer-subplot"><g class="shapelayer"/><g class="imagelayer"/></g><g class="minor-gridlayer"><g class="x"/><g class="y"/></g><g class="gridlayer"><g class="x"><path class="xgrid crisp" transform="translate(96.34,0)" d="M0,100v320" style="stroke: rgb(255, 255, 255); stroke-opacity: 1; stroke-width: 1px;"/><path class="xgrid crisp" transform="translate(196.37,0)" d="M0,100v320" style="stroke: rgb(255, 255, 255); stroke-opacity: 1; stroke-width: 1px;"/><path class="xgrid crisp" transform="translate(296.26,0)" d="M0,100v320" style="stroke: rgb(255, 255, 255); stroke-opacity: 1; stroke-width: 1px;"/><path class="xgrid crisp" transform="translate(396.29,0)" d="M0,100v320" style="stroke: rgb(255, 255, 255); stroke-opacity: 1; stroke-width: 1px;"/><path class="xgrid crisp" transform="translate(496.19,0)" d="M0,100v320" style="stroke: rgb(255, 255, 255); stroke-opacity: 1; stroke-width: 1px;"/><path class="xgrid crisp" transform="translate(596.22,0)" d="M0,100v320" style="stroke: rgb(255, 255, 255); stroke-opacity: 1; stroke-width: 1px;"/></g><g class="y"><path class="ygrid crisp" transform="translate(0,331.99)" d="M80,0h540" style="stroke: rgb(255, 255, 255); stroke-opacity: 1; stroke-width: 1px;"/><path class="ygrid crisp" transform="translate(0,243.97)" d="M80,0h540" style="stroke: rgb(255, 255, 255); stroke-opacity: 1; stroke-width: 1px;"/><path class="ygrid crisp" transform="translate(0,155.96)" d="M80,0h540" style="stroke: rgb(255, 255, 255); stroke-opacity: 1; stroke-width: 1px;"/></g></g><g class="zerolinelayer"><path class="yzl zl crisp" transform="translate(0,420)" d="M80,0h540" style="stroke: rgb(255, 255, 255); stroke-opacity: 1; stroke-width: 2px;"/></g><g class="layer-between"><g class="shapelayer"/><g class="imagelayer"/></g><path class="xlines-below"/><path class="ylines-below"/><g class="overlines-below"/><g class="xaxislayer-below"/><g class="yaxislayer-below"/><g class="overaxes-below"/><g class="overplot"><g class="xy" transform="translate(80,100)" clip-path="url(#clip35208axyplot)"><g class="scatterlayer mlayer"><g class="trace scatter traceca2f20" style="stroke-miterlimit: 2;"><g class="fills"><g><path class="js-fill" d="M540,320L0,320L0,319.82L3.41,318.59L3.69,318.42L6.7,317.01L7.26,316.83L13.96,315.78L21.07,315.6L21.26,315.42L22.82,315.25L22.82,315.07L25.7,314.9L42.16,310.32L42.17,310.14L42.18,309.97L43.09,309.79L43.64,309.44L44.86,309.26L56.72,308.03L57.79,307.85L64.84,305.74L64.89,305.57L65.67,304.69L66.49,304.51L67.87,303.81L72.23,303.63L76.21,302.75L77.36,302.57L82.1,300.99L82.1,300.81L92.55,299.23L92.89,299.05L93.88,298.17L93.88,298L94.55,295.71L94.94,295.53L95.36,295.18L95.92,295L97.54,293.77L97.68,293.6L98.26,292.72L99.19,292.54L100.29,291.31L100.4,291.13L101.13,290.43L102.05,290.25L105.17,288.49L105.17,288.31L105.65,287.79L106.87,287.61L107,287.43L108.92,287.26L108.93,287.08L110,286.91L117.66,285.5L117.67,285.32L119.76,284.62L121.36,284.44L125.2,283.39L125.47,283.21L126.07,282.51L126.32,282.33L130.09,280.92L130.1,280.75L131.77,279.69L131.77,279.51L131.9,279.34L133.14,279.16L133.25,278.99L134.64,278.81L135.16,278.46L136.55,278.28L136.84,277.93L138.48,277.75L147.65,274.76L149.17,274.58L174.78,270.71L174.78,270.54L175.41,269.48L176.9,269.3L177.22,268.6L178.82,268.42L179.3,267.9L181.42,267.72L205.71,264.55L205.8,264.38L206.1,263.67L207.46,263.5L211.37,262.44L212.5,262.26L224.84,259.8L224.88,259.62L225.62,259.09L225.9,258.92L228.63,257.51L228.64,257.33L229.76,256.1L231,255.93L232.77,254.87L232.92,254.69L236.43,253.11L236.46,252.93L238.38,250.82L239.18,250.65L243.32,249.06L247.73,248.88L248.07,248.53L249.9,248.36L253.57,246.77L253.84,246.6L254.83,245.72L256.82,245.54L256.89,245.19L257.88,245.01L262.57,243.43L264.2,243.25L264.38,243.08L266.07,242.9L266.07,242.72L267,242.55L267.18,242.37L268.5,242.2L273.8,240.96L274.96,240.79L275.45,240.26L277.91,240.08L288.99,237.62L289.01,237.44L291.06,235.86L291.06,235.68L295.17,233.04L296.03,232.87L297.91,230.05L300.02,229.87L308.1,228.47L308.74,228.29L308.9,227.59L309.55,227.41L311.37,225.83L313.74,225.65L314.21,225.3L315.41,225.12L323.63,223.54L323.66,223.36L324.47,223.01L325.68,222.83L330.6,221.07L330.68,220.9L337.81,219.84L337.82,219.66L341.13,218.26L341.83,218.08L346.53,216.32L346.57,216.14L347.56,215.44L349.33,215.26L352.3,214.03L353.19,213.86L359.2,212.62L359.32,212.45L364.05,209.98L364.11,209.81L364.73,208.75L365.64,208.57L368.29,206.99L370.68,206.81L371.26,206.29L374.94,206.11L378.48,204.7L380.25,204.53L380.39,204.17L381.79,204L381.91,202.94L385.74,202.77L386.56,202.24L388.59,202.06L392.73,201.01L394.18,200.83L397.39,197.84L397.47,197.66L400.28,192.38L400.93,192.2L403.29,185.51L403.69,185.34L405.71,181.82L405.74,181.64L406.18,179.53L406.57,179.35L407.84,178.3L408.18,178.12L409.13,177.07L409.19,176.89L409.85,175.66L409.97,175.48L411.73,173.54L412.02,173.37L412.68,171.78L413.52,171.61L414.48,167.56L415.61,167.38L415.9,166.86L416.54,166.68L419.4,164.22L419.42,164.04L419.47,163.69L420.29,163.51L421.99,160.34L422,160.17L422.57,157.53L422.79,157.35L424.19,150.84L424.2,150.66L424.87,148.37L425.01,148.2L428.18,143.09L429.25,142.92L430.78,140.8L430.88,140.63L431.7,139.92L431.74,139.75L434.73,132.88L434.74,132.71L435.43,130.59L435.86,130.42L436.82,129.54L436.82,129.36L437.66,127.6L437.76,127.43L439.53,124.61L439.54,124.43L440.23,121.97L440.33,121.79L440.52,120.74L441.21,120.56L441.72,118.8L442.11,118.62L443.36,116.51L443.49,116.34L444.57,113.52L444.58,113.34L445.72,112.11L445.81,111.94L448.42,104.72L449.23,104.54L450.13,103.66L450.19,103.49L450.89,101.37L451.01,101.2L452.69,96.44L453.05,96.27L453.95,92.75L454.01,92.57L454.87,91.69L454.89,91.52L456.53,90.46L457.02,90.28L457.87,88.7L458.99,88.52L459.9,87.29L459.93,87.12L460.36,86.24L460.36,86.06L461.01,84.83L461.14,84.65L464.21,80.6L464.21,80.43L464.76,78.84L465.58,78.67L469.13,76.91L469.14,76.73L471.33,72.5L472.46,72.33L473.33,71.45L473.75,71.27L474.97,69.86L475.78,69.69L478.56,67.22L479.13,67.05L482.52,64.41L482.62,64.23L482.82,63.35L483.44,63.18L488.4,57.37L488.94,57.19L491.24,55.96L491.24,55.78L491.97,53.49L492.19,53.32L495.28,51.38L497.43,51.21L498.1,49.09L498.21,48.92L498.92,48.39L499.19,48.21L499.92,46.8L500.02,46.63L501.82,43.99L503.67,43.81L506.75,42.76L506.91,42.58L507.73,41.52L508.68,41.35L511.65,39.59L511.65,39.41L512.33,38L512.59,37.83L513.3,35.19L513.41,35.01L514.95,32.9L517.18,32.72L518.41,30.96L519.32,30.79L523.63,29.38L523.94,29.2L524.26,28.67L524.8,28.5L525.24,27.79L525.87,27.62L529.99,25.68L530.7,25.51L534.07,23.75L534.07,23.57L534.54,18.99L535.1,18.82L535.49,17.06L536.34,16.88L540,16" style="fill: rgb(44, 160, 44); fill-opacity: 0.5; stroke-width: 0;"/></g></g><g class="errorbars"/><g class="lines"><path class="js-line" d="M0,319.82L3.41,318.59L3.69,318.42L6.7,317.01L7.26,316.83L13.96,315.78L21.07,315.6L21.26,315.42L22.82,315.25L22.82,315.07L25.7,314.9L42.16,310.32L42.17,310.14L42.18,309.97L43.09,309.79L43.64,309.44L44.86,309.26L56.72,308.03L57.79,307.85L64.84,305.74L64.89,305.57L65.67,304.69L66.49,304.51L67.87,303.81L72.23,303.63L76.21,302.75L77.36,302.57L82.1,300.99L82.1,300.81L92.55,299.23L92.89,299.05L93.88,298.17L93.88,298L94.55,295.71L94.94,295.53L95.36,295.18L95.92,295L97.54,293.77L97.68,293.6L98.26,292.72L99.19,292.54L100.29,291.31L100.4,291.13L101.13,290.43L102.05,290.25L105.17,288.49L105.17,288.31L105.65,287.79L106.87,287.61L107,287.43L108.92,287.26L108.93,287.08L110,286.91L117.66,285.5L117.67,285.32L119.76,284.62L121.36,284.44L125.2,283.39L125.47,283.21L126.07,282.51L126.32,282.33L130.09,280.92L130.1,280.75L131.77,279.69L131.77,279.51L131.9,279.34L133.14,279.16L133.25,278.99L134.64,278.81L135.16,278.46L136.55,278.28L136.84,277.93L138.48,277.75L147.65,274.76L149.17,274.58L174.78,270.71L174.78,270.54L175.41,269.48L176.9,269.3L177.22,268.6L178.82,268.42L179.3,267.9L181.42,267.72L205.71,264.55L205.8,264.38L206.1,263.67L207.46,263.5L211.37,262.44L212.5,262.26L224.84,259.8L224.88,259.62L225.62,259.09L225.9,258.92L228.63,257.51L228.64,257.33L229.76,256.1L231,255.93L232.77,254.87L232.92,254.69L236.43,253.11L236.46,252.93L238.38,250.82L239.18,250.65L243.32,249.06L247.73,248.88L248.07,248.53L249.9,248.36L253.57,246.77L253.84,246.6L254.83,245.72L256.82,245.54L256.89,245.19L257.88,245.01L262.57,243.43L264.2,243.25L264.38,243.08L266.07,242.9L266.07,242.72L267,242.55L267.18,242.37L268.5,242.2L273.8,240.96L274.96,240.79L275.45,240.26L277.91,240.08L288.99,237.62L289.01,237.44L291.06,235.86L291.06,235.68L295.17,233.04L296.03,232.87L297.91,230.05L300.02,229.87L308.1,228.47L308.74,228.29L308.9,227.59L309.55,227.41L311.37,225.83L313.74,225.65L314.21,225.3L315.41,225.12L323.63,223.54L323.66,223.36L324.47,223.01L325.68,222.83L330.6,221.07L330.68,220.9L337.81,219.84L337.82,219.66L341.13,218.26L341.83,218.08L346.53,216.32L346.57,216.14L347.56,215.44L349.33,215.26L352.3,214.03L353.19,213.86L359.2,212.62L359.32,212.45L364.05,209.98L364.11,209.81L364.73,208.75L365.64,208.57L368.29,206.99L370.68,206.81L371.26,206.29L374.94,206.11L378.48,204.7L380.25,204.53L380.39,204.17L381.79,204L381.91,202.94L385.74,202.77L386.56,202.24L388.59,202.06L392.73,201.01L394.18,200.83L397.39,197.84L397.47,197.66L400.28,192.38L400.93,192.2L403.29,185.51L403.69,185.34L405.71,181.82L405.74,181.64L406.18,179.53L406.57,179.35L407.84,178.3L408.18,178.12L409.13,177.07L409.19,176.89L409.85,175.66L409.97,175.48L411.73,173.54L412.02,173.37L412.68,171.78L413.52,171.61L414.48,167.56L415.61,167.38L415.9,166.86L416.54,166.68L419.4,164.22L419.42,164.04L419.47,163.69L420.29,163.51L421.99,160.34L422,160.17L422.57,157.53L422.79,157.35L424.19,150.84L424.2,150.66L424.87,148.37L425.01,148.2L428.18,143.09L429.25,142.92L430.78,140.8L430.88,140.63L431.7,139.92L431.74,139.75L434.73,132.88L434.74,132.71L435.43,130.59L435.86,130.42L436.82,129.54L436.82,129.36L437.66,127.6L437.76,127.43L439.53,124.61L439.54,124.43L440.23,121.97L440.33,121.79L440.52,120.74L441.21,120.56L441.72,118.8L442.11,118.62L443.36,116.51L443.49,116.34L444.57,113.52L444.58,113.34L445.72,112.11L445.81,111.94L448.42,104.72L449.23,104.54L450.13,103.66L450.19,103.49L450.89,101.37L451.01,101.2L452.69,96.44L453.05,96.27L453.95,92.75L454.01,92.57L454.87,91.69L454.89,91.52L456.53,90.46L457.02,90.28L457.87,88.7L458.99,88.52L459.9,87.29L459.93,87.12L460.36,86.24L460.36,86.06L461.01,84.83L461.14,84.65L464.21,80.6L464.21,80.43L464.76,78.84L465.58,78.67L469.13,76.91L469.14,76.73L471.33,72.5L472.46,72.33L473.33,71.45L473.75,71.27L474.97,69.86L475.78,69.69L478.56,67.22L479.13,67.05L482.52,64.41L482.62,64.23L482.82,63.35L483.44,63.18L488.4,57.37L488.94,57.19L491.24,55.96L491.24,55.78L491.97,53.49L492.19,53.32L495.28,51.38L497.43,51.21L498.1,49.09L498.21,48.92L498.92,48.39L499.19,48.21L499.92,46.8L500.02,46.63L501.82,43.99L503.67,43.81L506.75,42.76L506.91,42.58L507.73,41.52L508.68,41.35L511.65,39.59L511.65,39.41L512.33,38L512.59,37.83L513.3,35.19L513.41,35.01L514.95,32.9L517.18,32.72L518.41,30.96L519.32,30.79L523.63,29.38L523.94,29.2L524.26,28.67L524.8,28.5L525.24,27.79L525.87,27.62L529.99,25.68L530.7,25.51L534.07,23.75L534.07,23.57L534.54,18.99L535.1,18.82L535.49,17.06L536.34,16.88L540,16" style="vector-effect: none; fill: none; stroke: rgb(44, 160, 44); stroke-opacity: 1; stroke-width: 2px; opacity: 1;"/></g><g class="points"/><g class="text"/></g></g></g></g><g class="zerolinelayer-above"/><path class="xlines-above crisp" d="M0,0" style="fill: none;"/><path class="ylines-above crisp" d="M0,0" style="fill: none;"/><g class="overlines-above"/><g class="xaxislayer-above"><g class="xtick"><text text-anchor="middle" x="0" y="439" transform="translate(96.34,0)" style="font-family: 'Open Sans'; font-size: 18px; fill: rgb(0, 0, 0); fill-opacity: 1; white-space: pre;">2016</text></g><g class="xtick"><text text-anchor="middle" x="0" y="439" style="font-family: 'Open Sans'; font-size: 18px; fill: rgb(0, 0, 0); fill-opacity: 1; white-space: pre;" transform="translate(196.37,0)">2018</text></g><g class="xtick"><text text-anchor="middle" x="0" y="439" style="font-family: 'Open Sans'; font-size: 18px; fill: rgb(0, 0, 0); fill-opacity: 1; white-space: pre;" transform="translate(296.26,0)">2020</text></g><g class="xtick"><text text-anchor="middle" x="0" y="439" style="font-family: 'Open Sans'; font-size: 18px; fill: rgb(0, 0, 0); fill-opacity: 1; white-space: pre;" transform="translate(396.29,0)">2022</text></g><g class="xtick"><text text-anchor="middle" x="0" y="439" style="font-family: 'Open Sans'; font-size: 18px; fill: rgb(0, 0, 0); fill-opacity: 1; white-space: pre;" transform="translate(496.19,0)">2024</text></g><g class="xtick"><text text-anchor="middle" x="0" y="439" style="font-family: 'Open Sans'; font-size: 18px; fill: rgb(0, 0, 0); fill-opacity: 1; white-space: pre;" transform="translate(596.22,0)">2026</text></g></g><g class="yaxislayer-above"><g class="ytick"><text text-anchor="end" x="79" y="6.3" transform="translate(0,420)" style="font-family: 'Open Sans'; font-size: 18px; fill: rgb(0, 0, 0); fill-opacity: 1; white-space: pre;">0</text></g><g class="ytick"><text text-anchor="end" x="79" y="6.3" style="font-family: 'Open Sans'; font-size: 18px; fill: rgb(0, 0, 0); fill-opacity: 1; white-space: pre;" transform="translate(0,331.99)">500</text></g><g class="ytick"><text text-anchor="end" x="79" y="6.3" style="font-family: 'Open Sans'; font-size: 18px; fill: rgb(0, 0, 0); fill-opacity: 1; white-space: pre;" transform="translate(0,243.97)">1000</text></g><g class="ytick"><text text-anchor="end" x="79" y="6.3" style="font-family: 'Open Sans'; font-size: 18px; fill: rgb(0, 0, 0); fill-opacity: 1; white-space: pre;" transform="translate(0,155.96)">1500</text></g></g><g class="overaxes-above"/></g></g><g class="polarlayer"/><g class="smithlayer"/><g class="ternarylayer"/><g class="geolayer"/><g class="funnelarealayer"/><g class="pielayer"/><g class="iciclelayer"/><g class="treemaplayer"/><g class="sunburstlayer"/><g class="glimages"/><defs id="topdefs-35208a"><g class="clips"/></defs><g class="layer-above"><g class="imagelayer"/><g class="shapelayer"/></g><g class="infolayer"><g class="g-gtitle"><text class="gtitle" x="35" y="50" text-anchor="start" dy="0em" style="opacity: 1; font-family: 'Open Sans'; font-size: 25px; fill: rgb(0, 0, 0); fill-opacity: 1; white-space: pre;">MultiQC/MultiQC - Pull Requests Created Over Time</text></g><g class="g-xtitle"><text class="xtitle" x="350" y="472.9" text-anchor="middle" style="opacity: 1; font-family: 'Open Sans'; font-size: 22px; fill: rgb(0, 0, 0); fill-opacity: 1; white-space: pre;">Date</text></g><g class="g-ytitle"><text class="ytitle" transform="rotate(-90,20.799999999999997,260)" x="20.799999999999997" y="260" text-anchor="middle" style="opacity: 1; font-family: 'Open Sans'; font-size: 22px; fill: rgb(0, 0, 0); fill-opacity: 1; white-space: pre;">Cumulative PRs Created</text></g></g></svg>