<svg class="main-svg" xmlns="http://www.w3.org/2000/svg" xmlns:xlink="http://www.w3.org/1999/xlink" width="700" height="500" style="" viewBox="0 0 700 500"><rect x="0" y="0" width="700" height="500" style="fill: rgb(0, 0, 0); fill-opacity: 0;"/><defs id="defs-900768"><g class="clips"><clipPath id="clip900768xyplot" class="plotclip"><rect width="540" height="320"/></clipPath><clipPath class="axesclip" id="clip900768x"><rect x="80" y="0" width="540" height="500"/></clipPath><clipPath class="axesclip" id="clip900768y"><rect x="0" y="100" width="700" height="320"/></clipPath><clipPath class="axesclip" id="clip900768xy"><rect x="80" y="100" width="540" height="320"/></clipPath></g><g class="gradients"/><g class="patterns"/></defs><g class="bglayer"><rect class="bg" x="80" y="100" width="540" height="320" style="fill: rgb(0, 0, 0); fill-opacity: 0; stroke-width: 0;"/></g><g class="layer-below"><g class="imagelayer"/><g class="shapelayer"/></g><g class="cartesianlayer"><g class="subplot xy"><g class="layer-subplot"><g class="shapelayer"/><g class="imagelayer"/></g><g class="minor-gridlayer"><g class="x"/><g class="y"/></g><g class="gridlayer"><g class="x"><path class="xgrid crisp" transform="translate(97.45,0)" d="M0,100v320" style="stroke: rgb(255, 255, 255); stroke-opacity: 1; stroke-width: 1px;"/><path class="xgrid crisp" transform="translate(202.01999999999998,0)" d="M0,100v320" style="stroke: rgb(255, 255, 255); stroke-opacity: 1; stroke-width: 1px;"/><path class="xgrid crisp" transform="translate(306.44,0)" d="M0,100v320" style="stroke: rgb(255, 255, 255); stroke-opacity: 1; stroke-width: 1px;"/><path class="xgrid crisp" transform="translate(411.01,0)" d="M0,100v320" style="stroke: rgb(255, 255, 255); stroke-opacity: 1; stroke-width: 1px;"/><path class="xgrid crisp" transform="translate(515.4300000000001,0)" d="M0,100v320" style="stroke: rgb(255, 255, 255); stroke-opacity: 1; stroke-width: 1px;"/></g><g class="y"><path class="ygrid crisp" transform="translate(0,382.93)" d="M80,0h540" style="stroke: rgb(255, 255, 255); stroke-opacity: 1; stroke-width: 1px;"/><path class="ygrid crisp" transform="translate(0,345.85)" d="M80,0h540" style="stroke: rgb(255, 255, 255); stroke-opacity: 1; stroke-width: 1px;"/><path class="ygrid crisp" transform="translate(0,308.78)" d="M80,0h540" style="stroke: rgb(255, 255, 255); stroke-opacity: 1; stroke-width: 1px;"/><path class="ygrid crisp" transform="translate(0,271.71000000000004)" d="M80,0h540" style="stroke: rgb(255, 255, 255); stroke-opacity: 1; stroke-width: 1px;"/><path class="ygrid crisp" transform="translate(0,234.63)" d="M80,0h540" style="stroke: rgb(255, 255, 255); stroke-opacity: 1; stroke-width: 1px;"/><path class="ygrid crisp" transform="translate(0,197.56)" d="M80,0h540" style="stroke: rgb(255, 255, 255); stroke-opacity: 1; stroke-width: 1px;"/><path class="ygrid crisp" transform="translate(0,160.49)" d="M80,0h540" style="stroke: rgb(255, 255, 255); stroke-opacity: 1; stroke-width: 1px;"/><path class="ygrid crisp" transform="translate(0,123.41)" d="M80,0h540" style="stroke: rgb(255, 255, 255); stroke-opacity: 1; stroke-width: 1px;"/></g></g><g class="zerolinelayer"><path class="yzl zl crisp" transform="translate(0,420)" d="M80,0h540" style="stroke: rgb(255, 255, 255); stroke-opacity: 1; stroke-width: 2px;"/></g><g class="layer-between"><g class="shapelayer"/><g class="imagelayer"/></g><path class="xlines-below"/><path class="ylines-below"/><g class="overlines-below"/><g class="xaxislayer-below"/><g class="yaxislayer-below"/><g class="overaxes-below"/><g class="overplot"><g class="xy" transform="translate(80,100)" clip-path="url(#clip900768xyplot)"><g class="scatterlayer mlayer"><g class="trace scatter trace381bfb" style="stroke-miterlimit: 2;"><g class="fills"><g><path class="js-fill" d="M540,320L0,320L0,286.63L4.29,286.63L8.73,301.46L13.02,316.29L21.89,305.17L26.03,305.17L30.47,294.05L34.76,294.05L39.19,308.88L43.49,275.51L47.92,312.59L52.35,312.59L56.65,305.17L61.08,297.76L65.37,275.51L69.81,301.46L74.24,305.17L78.25,301.46L82.68,290.34L86.97,305.17L91.41,308.88L95.7,227.32L100.13,249.56L104.57,268.1L108.86,279.22L113.29,301.46L117.58,308.88L122.02,290.34L126.45,305.17L130.46,275.51L134.89,268.1L139.18,290.34L143.62,290.34L147.91,301.46L152.34,297.76L161.07,312.59L165.5,312.59L169.8,294.05L174.23,312.59L178.66,308.88L182.67,268.1L187.1,301.46L191.4,308.88L195.83,305.17L200.12,312.59L204.56,305.17L208.99,316.29L213.28,282.93L217.72,297.76L222.01,305.17L226.44,308.88L230.88,297.76L235.03,260.68L239.46,268.1L243.75,256.98L248.19,275.51L252.48,305.17L256.91,308.88L261.35,282.93L265.64,282.93L270.07,290.34L274.36,301.46L278.8,305.17L283.23,297.76L287.24,301.46L295.96,301.46L300.4,264.39L304.69,264.39L309.12,256.98L313.56,308.88L317.85,305.17L322.28,256.98L326.57,305.17L331.01,312.59L335.44,286.63L339.45,297.76L343.88,294.05L348.17,305.17L352.61,282.93L356.9,286.63L361.34,286.63L365.77,290.34L370.06,305.17L374.5,286.63L378.79,249.56L383.22,294.05L387.66,305.17L391.66,286.63L396.1,282.93L400.39,305.17L404.82,305.17L409.11,294.05L413.55,179.12L417.98,149.46L422.27,168L426.71,219.9L431,179.12L435.43,245.85L439.87,16L444.02,197.66L448.45,205.07L452.74,119.8L457.18,164.29L461.47,156.88L465.9,142.05L470.34,93.85L474.63,212.49L483.35,212.49L487.79,216.2L492.22,264.39L496.23,242.15L500.66,242.15L504.95,223.61L509.39,268.1L513.68,212.49L518.11,245.85L522.55,238.44L526.84,268.1L531.27,264.39L535.57,193.95L540,279.22" style="fill: rgb(44, 160, 44); fill-opacity: 0.5; stroke-width: 0;"/></g></g><g class="errorbars"/><g class="lines"><path class="js-line" d="M0,286.63L4.29,286.63L8.73,301.46L13.02,316.29L21.89,305.17L26.03,305.17L30.47,294.05L34.76,294.05L39.19,308.88L43.49,275.51L47.92,312.59L52.35,312.59L56.65,305.17L61.08,297.76L65.37,275.51L69.81,301.46L74.24,305.17L78.25,301.46L82.68,290.34L86.97,305.17L91.41,308.88L95.7,227.32L100.13,249.56L104.57,268.1L108.86,279.22L113.29,301.46L117.58,308.88L122.02,290.34L126.45,305.17L130.46,275.51L134.89,268.1L139.18,290.34L143.62,290.34L147.91,301.46L152.34,297.76L161.07,312.59L165.5,312.59L169.8,294.05L174.23,312.59L178.66,308.88L182.67,268.1L187.1,301.46L191.4,308.88L195.83,305.17L200.12,312.59L204.56,305.17L208.99,316.29L213.28,282.93L217.72,297.76L222.01,305.17L226.44,308.88L230.88,297.76L235.03,260.68L239.46,268.1L243.75,256.98L248.19,275.51L252.48,305.17L256.91,308.88L261.35,282.93L265.64,282.93L270.07,290.34L274.36,301.46L278.8,305.17L283.23,297.76L287.24,301.46L295.96,301.46L300.4,264.39L304.69,264.39L309.12,256.98L313.56,308.88L317.85,305.17L322.28,256.98L326.57,305.17L331.01,312.59L335.44,286.63L339.45,297.76L343.88,294.05L348.17,305.17L352.61,282.93L356.9,286.63L361.34,286.63L365.77,290.34L370.06,305.17L374.5,286.63L378.79,249.56L383.22,294.05L387.66,305.17L391.66,286.63L396.1,282.93L400.39,305.17L404.82,305.17L409.11,294.05L413.55,179.12L417.98,149.46L422.27,168L426.71,219.9L431,179.12L435.43,245.85L439.87,16L444.02,197.66L448.45,205.07L452.74,119.8L457.18,164.29L461.47,156.88L465.9,142.05L470.34,93.85L474.63,212.49L483.35,212.49L487.79,216.2L492.22,264.39L496.23,242.15L500.66,242.15L504.95,223.61L509.39,268.1L513.68,212.49L518.11,245.85L522.55,238.44L526.84,268.1L531.27,264.39L535.57,193.95L540,279.22" style="vector-effect: none; fill: none; stroke: rgb(44, 160, 44); stroke-opacity: 1; stroke-width: 2px; opacity: 1;"/></g><g class="points"/><g class="text"/></g></g></g></g><g class="zerolinelayer-above"/><path class="xlines-above crisp" d="M0,0" style="fill: none;"/><path class="ylines-above crisp" d="M0,0" style="fill: none;"/><g class="overlines-above"/><g class="xaxislayer-above"><g class="xtick"><text text-anchor="middle" x="0" y="439" transform="translate(97.45,0)" style="font-family: 'Open Sans'; font-size: 18px; fill: rgb(255, 255, 255); fill-opacity: 1; white-space: pre;">2016</text></g><g class="xtick"><text text-anchor="middle" x="0" y="439" style="font-family: 'Open Sans'; font-size: 18px; fill: rgb(255, 255, 255); fill-opacity: 1; white-space: pre;" transform="translate(202.01999999999998,0)">2018</text></g><g class="xtick"><text text-anchor="middle" x="0" y="439" style="font-family: 'Open Sans'; font-size: 18px; fill: rgb(255, 255, 255); fill-opacity: 1; white-space: pre;" transform="translate(306.44,0)">2020</text></g><g class="xtick"><text text-anchor="middle" x="0" y="439" style="font-family: 'Open Sans'; font-size: 18px; fill: rgb(255, 255, 255); fill-opacity: 1; white-space: pre;" transform="translate(411.01,0)">2022</text></g><g class="xtick"><text text-anchor="middle" x="0" y="439" style="font-family: 'Open Sans'; font-size: 18px; fill: rgb(255, 255, 255); fill-opacity: 1; white-space: pre;" transform="translate(515.4300000000001,0)">2024</text></g><g class="xtick"><text text-anchor="middle" x="0" y="439" style="font-family: 'Open Sans'; font-size: 18px; fill: rgb(255, 255, 255); fill-opacity: 1; white-space: pre;" transform="translate(620,0)">2026</text></g></g><g class="yaxislayer-above"><g class="ytick"><text text-anchor="end" x="79" y="6.3" transform="translate(0,420)" style="font-family: 'Open Sans'; font-size: 18px; fill: rgb(255, 255, 255); fill-opacity: 1; white-space: pre;">0</text></g><g class="ytick"><text text-anchor="end" x="79" y="6.3" style="font-family: 'Open Sans'; font-size: 18px; fill: rgb(255, 255, 255); fill-opacity: 1; white-space: pre;" transform="translate(0,382.93)">10</text></g><g class="ytick"><text text-anchor="end" x="79" y="6.3" style="font-family: 'Open Sans'; font-size: 18px; fill: rgb(255, 255, 255); fill-opacity: 1; white-space: pre;" transform="translate(0,345.85)">20</text></g><g class="ytick"><text text-anchor="end" x="79" y="6.3" style="font-family: 'Open Sans'; font-size: 18px; fill: rgb(255, 255, 255); fill-opacity: 1; white-space: pre;" transform="translate(0,308.78)">30</text></g><g class="ytick"><text text-anchor="end" x="79" y="6.3" style="font-family: 'Open Sans'; font-size: 18px; fill: rgb(255, 255, 255); fill-opacity: 1; white-space: pre;" transform="translate(0,271.71000000000004)">40</text></g><g class="ytick"><text text-anchor="end" x="79" y="6.3" style="font-family: 'Open Sans'; font-size: 18px; fill: rgb(255, 255, 255); fill-opacity: 1; white-space: pre;" transform="translate(0,234.63)">50</text></g><g class="ytick"><text text-anchor="end" x="79" y="6.3" style="font-family: 'Open Sans'; font-size: 18px; fill: rgb(255, 255, 255); fill-opacity: 1; white-space: pre;" transform="translate(0,197.56)">60</text></g><g class="ytick"><text text-anchor="end" x="79" y="6.3" style="font-family: 'Open Sans'; font-size: 18px; fill: rgb(255, 255, 255); fill-opacity: 1; white-space: pre;" transform="translate(0,160.49)">70</text></g><g class="ytick"><text text-anchor="end" x="79" y="6.3" style="font-family: 'Open Sans'; font-size: 18px; fill: rgb(255, 255, 255); fill-opacity: 1; white-space: pre;" transform="translate(0,123.41)">80</text></g></g><g class="overaxes-above"/></g></g><g class="polarlayer"/><g class="smithlayer"/><g class="ternarylayer"/><g class="geolayer"/><g class="funnelarealayer"/><g class="pielayer"/><g class="iciclelayer"/><g class="treemaplayer"/><g class="sunburstlayer"/><g class="glimages"/><defs id="topdefs-900768"><g class="clips"/></defs><g class="layer-above"><g class="imagelayer"/><g class="shapelayer"/></g><g class="infolayer"><g class="g-gtitle"><text class="gtitle" x="35" y="50" text-anchor="start" dy="0em" style="opacity: 1; font-family: 'Open Sans'; font-size: 25px; fill: rgb(255, 255, 255); fill-opacity: 1; white-space: pre;">MultiQC/MultiQC - New Pull Requests Per Month</text></g><g class="g-xtitle"><text class="xtitle" x="350" y="472.9" text-anchor="middle" style="opacity: 1; font-family: 'Open Sans'; font-size: 22px; fill: rgb(255, 255, 255); fill-opacity: 1; white-space: pre;">Month</text></g><g class="g-ytitle"><text class="ytitle" transform="rotate(-90,38.8,260)" x="38.8" y="260" text-anchor="middle" style="opacity: 1; font-family: 'Open Sans'; font-size: 22px; fill: rgb(255, 255, 255); fill-opacity: 1; white-space: pre;">New PRs Created</text></g></g></svg>