<svg class="main-svg" xmlns="http://www.w3.org/2000/svg" xmlns:xlink="http://www.w3.org/1999/xlink" width="700" height="500" style="" viewBox="0 0 700 500"><rect x="0" y="0" width="700" height="500" style="fill: rgb(0, 0, 0); fill-opacity: 0;"/><defs id="defs-dff110"><g class="clips"><clipPath id="clipdff110xyplot" class="plotclip"><rect width="540" height="320"/></clipPath><clipPath class="axesclip" id="clipdff110x"><rect x="80" y="0" width="540" height="500"/></clipPath><clipPath class="axesclip" id="clipdff110y"><rect x="0" y="100" width="700" height="320"/></clipPath><clipPath class="axesclip" id="clipdff110xy"><rect x="80" y="100" width="540" height="320"/></clipPath></g><g class="gradients"/><g class="patterns"/></defs><g class="bglayer"><rect class="bg" x="80" y="100" width="540" height="320" style="fill: rgb(0, 0, 0); fill-opacity: 0; stroke-width: 0;"/></g><g class="layer-below"><g class="imagelayer"/><g class="shapelayer"/></g><g class="cartesianlayer"><g class="subplot xy"><g class="layer-subplot"><g class="shapelayer"/><g class="imagelayer"/></g><g class="minor-gridlayer"><g class="x"/><g class="y"/></g><g class="gridlayer"><g class="x"><path class="xgrid crisp" transform="translate(97.4,0)" d="M0,100v320" style="stroke: rgb(255, 255, 255); stroke-opacity: 1; stroke-width: 1px;"/><path class="xgrid crisp" transform="translate(203.93,0)" d="M0,100v320" style="stroke: rgb(255, 255, 255); stroke-opacity: 1; stroke-width: 1px;"/><path class="xgrid crisp" transform="translate(310.32,0)" d="M0,100v320" style="stroke: rgb(255, 255, 255); stroke-opacity: 1; stroke-width: 1px;"/><path class="xgrid crisp" transform="translate(416.85,0)" d="M0,100v320" style="stroke: rgb(255, 255, 255); stroke-opacity: 1; stroke-width: 1px;"/><path class="xgrid crisp" transform="translate(523.23,0)" d="M0,100v320" style="stroke: rgb(255, 255, 255); stroke-opacity: 1; stroke-width: 1px;"/></g><g class="y"><path class="ygrid crisp" transform="translate(0,381.52)" d="M80,0h540" style="stroke: rgb(255, 255, 255); stroke-opacity: 1; stroke-width: 1px;"/><path class="ygrid crisp" transform="translate(0,343.03999999999996)" d="M80,0h540" style="stroke: rgb(255, 255, 255); stroke-opacity: 1; stroke-width: 1px;"/><path class="ygrid crisp" transform="translate(0,304.56)" d="M80,0h540" style="stroke: rgb(255, 255, 255); stroke-opacity: 1; stroke-width: 1px;"/><path class="ygrid crisp" transform="translate(0,266.08000000000004)" d="M80,0h540" style="stroke: rgb(255, 255, 255); stroke-opacity: 1; stroke-width: 1px;"/><path class="ygrid crisp" transform="translate(0,227.59)" d="M80,0h540" style="stroke: rgb(255, 255, 255); stroke-opacity: 1; stroke-width: 1px;"/><path class="ygrid crisp" transform="translate(0,189.11)" d="M80,0h540" style="stroke: rgb(255, 255, 255); stroke-opacity: 1; stroke-width: 1px;"/><path class="ygrid crisp" transform="translate(0,150.63)" d="M80,0h540" style="stroke: rgb(255, 255, 255); stroke-opacity: 1; stroke-width: 1px;"/><path class="ygrid crisp" transform="translate(0,112.15)" d="M80,0h540" style="stroke: rgb(255, 255, 255); stroke-opacity: 1; stroke-width: 1px;"/></g></g><g class="zerolinelayer"><path class="yzl zl crisp" transform="translate(0,420)" d="M80,0h540" style="stroke: rgb(255, 255, 255); stroke-opacity: 1; stroke-width: 2px;"/></g><g class="layer-between"><g class="shapelayer"/><g class="imagelayer"/></g><path class="xlines-below"/><path class="ylines-below"/><g class="overlines-below"/><g class="xaxislayer-below"/><g class="yaxislayer-below"/><g class="overaxes-below"/><g class="overplot"><g class="xy" transform="translate(80,100)" clip-path="url(#clipdff110xyplot)"><g class="scatterlayer mlayer"><g class="trace scatter tracec9d067" style="stroke-miterlimit: 2;"><g class="fills"><g><path class="js-fill" d="M540,320L0,320L0,319.81L3.63,318.46L3.93,318.27L5.96,317.11L6.28,316.92L14.86,315.38L22.44,315.19L22.65,315L24.3,314.81L24.3,314.61L27.37,314.42L35.73,311.92L36.15,311.73L44.78,309.8L44.88,309.61L44.92,309.03L45.89,308.84L46.48,308.46L47.78,308.26L60.4,306.92L61.55,306.72L69.06,304.42L69.11,304.22L69.94,303.26L70.81,303.07L72.29,302.3L76.92,302.11L80.16,301.34L81.16,301.14L85.27,299.8L85.68,299.61L93.38,298.07L96,297.87L99.98,296.14L99.98,295.95L100.69,293.45L101.11,293.26L101.55,292.87L102.16,292.68L103.88,291.33L104.03,291.14L104.64,290.18L105.64,289.98L106.81,288.64L106.93,288.45L107.7,287.68L108.68,287.48L112,285.56L112,285.37L112.51,284.79L113.82,284.6L113.95,284.41L116,284.21L116.01,284.02L117.15,283.83L125.01,282.48L125.31,282.29L125.63,281.71L126.49,281.52L133.62,279.79L133.63,279.59L134.53,278.83L135.54,278.63L139.64,276.71L140.32,276.52L140.47,275.55L141.79,275.36L141.9,275.17L143.39,274.98L143.95,274.59L145.42,274.4L145.73,274.02L147.48,273.82L157.24,270.55L158.87,270.36L175.59,267.67L175.61,267.47L186.14,266.13L186.14,265.93L186.81,264.78L188.4,264.59L188.74,263.82L190.44,263.63L190.95,263.05L193.21,262.86L219.08,259.39L219.17,259.2L219.49,258.43L220.94,258.24L223.53,257.28L225.11,257.08L239.45,254.39L239.46,254.2L240.29,253.43L240.58,253.24L243.23,251.89L243.49,251.7L243.97,250.54L244.58,250.35L244.69,250.16L246.01,249.96L247.41,249L247.89,248.81L249.83,247.66L250.06,247.46L251.96,246.31L252,246.12L252.81,245.15L252.96,244.96L253.87,244.38L254.73,244.19L259.13,242.46L263.83,242.27L264.19,241.88L266.14,241.69L269.94,240.15L270.05,239.96L271.4,238.81L273.51,238.61L273.58,238.23L274.64,238.04L279.64,236.3L281.37,236.11L281.57,235.92L283.36,235.73L283.37,235.53L284.35,235.34L284.54,235.15L285.95,234.96L291.53,233.8L291.59,233.61L304.22,230.92L305.02,230.72L307.79,229.76L308.19,229.57L308.2,229.38L309.38,229.18L309.98,228.03L309.98,227.84L314.35,224.95L315.27,224.76L316.33,223.61L316.83,223.41L317.27,221.68L319.52,221.49L328.13,219.95L328.8,219.76L328.98,218.99L329.67,218.79L331.6,217.06L334.12,216.87L334.63,216.49L335.91,216.29L343.76,214.75L344.67,214.56L344.9,214.18L345.55,213.98L351.07,212.45L351.15,212.25L352.18,211.68L355.34,211.48L359.77,210.33L360.66,210.14L361.12,209.75L361.69,209.56L376.15,203.98L378.04,203.79L378.47,203.59L380.96,203.4L382.67,202.44L383.03,202.25L386.5,201.09L386.61,200.9L389.4,198.21L389.82,198.02L390.9,196.86L391.45,196.67L395.39,195.71L399.3,195.51L403.07,193.97L404.97,193.78L405.11,193.4L406.6,193.21L406.73,192.05L410.81,191.86L411.68,191.28L413.85,191.09L418.25,189.93L419.8,189.74L421.49,188.78L422.12,188.59L423.5,185.7L423.96,185.51L424.56,183.78L424.93,183.58L425.83,181.28L426,181.08L426.29,180.51L426.98,180.31L430.21,172.04L430.82,171.85L431.71,170.31L431.71,170.12L432.08,168.96L432.11,168.77L432.57,166.46L432.99,166.27L434.34,165.11L434.71,164.92L435.72,163.77L435.78,163.57L436.49,162.23L436.62,162.04L437.5,160.11L438.49,159.92L439.26,158.57L439.26,158.38L439.5,157.99L440.39,157.8L441.42,153.38L442.63,153.18L442.93,152.61L443.61,152.42L446.65,149.72L446.68,149.53L446.73,149.14L447.6,148.95L449.42,145.49L449.42,145.3L450.27,142.22L450.33,142.03L451.04,138.56L451.09,138.37L451.46,137.22L451.47,137.02L451.97,132.98L452.39,132.79L453.42,130.1L454.12,129.9L454.71,128.94L454.72,128.75L456.01,126.63L457.15,126.44L458.66,124.32L458.77,124.13L461.98,117.97L462,117.78L462.75,116.05L462.82,115.86L463.26,114.32L463.26,114.13L463.73,112.97L464.19,112.78L465.21,111.82L465.21,111.63L465.55,110.09L466.09,109.89L466.63,109.12L466.94,108.93L468.09,106.82L468.09,106.62L468.84,103.54L468.94,103.35L469.15,102.2L469.88,102.01L470.43,100.08L470.85,99.89L471.75,98.16L472.02,97.96L472.81,95.85L473.05,95.66L473.47,94.12L473.93,93.92L474.94,91.81L474.95,91.62L475.62,90.65L475.66,90.46L476.71,87.57L476.83,87.38L477.57,84.69L478.42,84.5L479.39,83.53L479.44,83.34L480.19,81.03L480.32,80.84L482.11,75.65L482.5,75.45L483.22,72.37L483.27,72.18L483.52,71.41L484.15,71.22L487.04,68.33L487.04,68.14L487.62,67.18L488.82,66.99L489.79,65.64L489.82,65.45L490.27,64.49L490.28,64.29L490.97,62.95L491.11,62.75L492.87,60.64L493.58,60.45L494.31,58.71L494.34,58.52L494.96,56.41L495.84,56.21L499.61,54.29L499.63,54.1L501.96,49.48L503.16,49.29L504.1,48.32L504.54,48.13L505.84,46.59L506.71,46.4L509.66,43.71L510.27,43.51L513.85,40.82L513.88,40.63L515.28,38.7L515.78,38.51L517.17,35.82L517.97,35.63L518.81,34.28L519.38,34.09L520.72,32.74L521.34,32.55L521.5,32.35L522.9,32.16L523.94,28.7L524.18,28.51L527.46,26.39L529.76,26.2L530.47,23.89L530.59,23.7L531.34,23.12L531.63,22.93L532.36,21.58L532.41,21.39L533.69,19.27L534.14,19.08L534.44,18.31L536.41,18.12L539.53,17.15L539.69,16.96L540,16" style="fill: rgb(44, 160, 44); fill-opacity: 0.5; stroke-width: 0;"/></g></g><g class="errorbars"/><g class="lines"><path class="js-line" d="M0,319.81L3.63,318.46L3.93,318.27L5.96,317.11L6.28,316.92L14.86,315.38L22.44,315.19L22.65,315L24.3,314.81L24.3,314.61L27.37,314.42L35.73,311.92L36.15,311.73L44.78,309.8L44.88,309.61L44.92,309.03L45.89,308.84L46.48,308.46L47.78,308.26L60.4,306.92L61.55,306.72L69.06,304.42L69.11,304.22L69.94,303.26L70.81,303.07L72.29,302.3L76.92,302.11L80.16,301.34L81.16,301.14L85.27,299.8L85.68,299.61L93.38,298.07L96,297.87L99.98,296.14L99.98,295.95L100.69,293.45L101.11,293.26L101.55,292.87L102.16,292.68L103.88,291.33L104.03,291.14L104.64,290.18L105.64,289.98L106.81,288.64L106.93,288.45L107.7,287.68L108.68,287.48L112,285.56L112,285.37L112.51,284.79L113.82,284.6L113.95,284.41L116,284.21L116.01,284.02L117.15,283.83L125.01,282.48L125.31,282.29L125.63,281.71L126.49,281.52L133.62,279.79L133.63,279.59L134.53,278.83L135.54,278.63L139.64,276.71L140.32,276.52L140.47,275.55L141.79,275.36L141.9,275.17L143.39,274.98L143.95,274.59L145.42,274.4L145.73,274.02L147.48,273.82L157.24,270.55L158.87,270.36L175.59,267.67L175.61,267.47L186.14,266.13L186.14,265.93L186.81,264.78L188.4,264.59L188.74,263.82L190.44,263.63L190.95,263.05L193.21,262.86L219.08,259.39L219.17,259.2L219.49,258.43L220.94,258.24L223.53,257.28L225.11,257.08L239.45,254.39L239.46,254.2L240.29,253.43L240.58,253.24L243.23,251.89L243.49,251.7L243.97,250.54L244.58,250.35L244.69,250.16L246.01,249.96L247.41,249L247.89,248.81L249.83,247.66L250.06,247.46L251.96,246.31L252,246.12L252.81,245.15L252.96,244.96L253.87,244.38L254.73,244.19L259.13,242.46L263.83,242.27L264.19,241.88L266.14,241.69L269.94,240.15L270.05,239.96L271.4,238.81L273.51,238.61L273.58,238.23L274.64,238.04L279.64,236.3L281.37,236.11L281.57,235.92L283.36,235.73L283.37,235.53L284.35,235.34L284.54,235.15L285.95,234.96L291.53,233.8L291.59,233.61L304.22,230.92L305.02,230.72L307.79,229.76L308.19,229.57L308.2,229.38L309.38,229.18L309.98,228.03L309.98,227.84L314.35,224.95L315.27,224.76L316.33,223.61L316.83,223.41L317.27,221.68L319.52,221.49L328.13,219.95L328.8,219.76L328.98,218.99L329.67,218.79L331.6,217.06L334.12,216.87L334.63,216.49L335.91,216.29L343.76,214.75L344.67,214.56L344.9,214.18L345.55,213.98L351.07,212.45L351.15,212.25L352.18,211.68L355.34,211.48L359.77,210.33L360.66,210.14L361.12,209.75L361.69,209.56L376.15,203.98L378.04,203.79L378.47,203.59L380.96,203.4L382.67,202.44L383.03,202.25L386.5,201.09L386.61,200.9L389.4,198.21L389.82,198.02L390.9,196.86L391.45,196.67L395.39,195.71L399.3,195.51L403.07,193.97L404.97,193.78L405.11,193.4L406.6,193.21L406.73,192.05L410.81,191.86L411.68,191.28L413.85,191.09L418.25,189.93L419.8,189.74L421.49,188.78L422.12,188.59L423.5,185.7L423.96,185.51L424.56,183.78L424.93,183.58L425.83,181.28L426,181.08L426.29,180.51L426.98,180.31L430.21,172.04L430.82,171.85L431.71,170.31L431.71,170.12L432.08,168.96L432.11,168.77L432.57,166.46L432.99,166.27L434.34,165.11L434.71,164.92L435.72,163.77L435.78,163.57L436.49,162.23L436.62,162.04L437.5,160.11L438.49,159.92L439.26,158.57L439.26,158.38L439.5,157.99L440.39,157.8L441.42,153.38L442.63,153.18L442.93,152.61L443.61,152.42L446.65,149.72L446.68,149.53L446.73,149.14L447.6,148.95L449.42,145.49L449.42,145.3L450.27,142.22L450.33,142.03L451.04,138.56L451.09,138.37L451.46,137.22L451.47,137.02L451.97,132.98L452.39,132.79L453.42,130.1L454.12,129.9L454.71,128.94L454.72,128.75L456.01,126.63L457.15,126.44L458.66,124.32L458.77,124.13L461.98,117.97L462,117.78L462.75,116.05L462.82,115.86L463.26,114.32L463.26,114.13L463.73,112.97L464.19,112.78L465.21,111.82L465.21,111.63L465.55,110.09L466.09,109.89L466.63,109.12L466.94,108.93L468.09,106.82L468.09,106.62L468.84,103.54L468.94,103.35L469.15,102.2L469.88,102.01L470.43,100.08L470.85,99.89L471.75,98.16L472.02,97.96L472.81,95.85L473.05,95.66L473.47,94.12L473.93,93.92L474.94,91.81L474.95,91.62L475.62,90.65L475.66,90.46L476.71,87.57L476.83,87.38L477.57,84.69L478.42,84.5L479.39,83.53L479.44,83.34L480.19,81.03L480.32,80.84L482.11,75.65L482.5,75.45L483.22,72.37L483.27,72.18L483.52,71.41L484.15,71.22L487.04,68.33L487.04,68.14L487.62,67.18L488.82,66.99L489.79,65.64L489.82,65.45L490.27,64.49L490.28,64.29L490.97,62.95L491.11,62.75L492.87,60.64L493.58,60.45L494.31,58.71L494.34,58.52L494.96,56.41L495.84,56.21L499.61,54.29L499.63,54.1L501.96,49.48L503.16,49.29L504.1,48.32L504.54,48.13L505.84,46.59L506.71,46.4L509.66,43.71L510.27,43.51L513.85,40.82L513.88,40.63L515.28,38.7L515.78,38.51L517.17,35.82L517.97,35.63L518.81,34.28L519.38,34.09L520.72,32.74L521.34,32.55L521.5,32.35L522.9,32.16L523.94,28.7L524.18,28.51L527.46,26.39L529.76,26.2L530.47,23.89L530.59,23.7L531.34,23.12L531.63,22.93L532.36,21.58L532.41,21.39L533.69,19.27L534.14,19.08L534.44,18.31L536.41,18.12L539.53,17.15L539.69,16.96L540,16" style="vector-effect: none; fill: none; stroke: rgb(44, 160, 44); stroke-opacity: 1; stroke-width: 2px; opacity: 1;"/></g><g class="points"/><g class="text"/></g></g></g></g><g class="zerolinelayer-above"/><path class="xlines-above crisp" d="M0,0" style="fill: none;"/><path class="ylines-above crisp" d="M0,0" style="fill: none;"/><g class="overlines-above"/><g class="xaxislayer-above"><g class="xtick"><text text-anchor="middle" x="0" y="439" transform="translate(97.4,0)" style="font-family: 'Open Sans'; font-size: 18px; fill: rgb(0, 0, 0); fill-opacity: 1; white-space: pre;">2016</text></g><g class="xtick"><text text-anchor="middle" x="0" y="439" style="font-family: 'Open Sans'; font-size: 18px; fill: rgb(0, 0, 0); fill-opacity: 1; white-space: pre;" transform="translate(203.93,0)">2018</text></g><g class="xtick"><text text-anchor="middle" x="0" y="439" style="font-family: 'Open Sans'; font-size: 18px; fill: rgb(0, 0, 0); fill-opacity: 1; white-space: pre;" transform="translate(310.32,0)">2020</text></g><g class="xtick"><text text-anchor="middle" x="0" y="439" style="font-family: 'Open Sans'; font-size: 18px; fill: rgb(0, 0, 0); fill-opacity: 1; white-space: pre;" transform="translate(416.85,0)">2022</text></g><g class="xtick"><text text-anchor="middle" x="0" y="439" style="font-family: 'Open Sans'; font-size: 18px; fill: rgb(0, 0, 0); fill-opacity: 1; white-space: pre;" transform="translate(523.23,0)">2024</text></g></g><g class="yaxislayer-above"><g class="ytick"><text text-anchor="end" x="79" y="6.3" transform="translate(0,420)" style="font-family: 'Open Sans'; font-size: 18px; fill: rgb(0, 0, 0); fill-opacity: 1; white-space: pre;">0</text></g><g class="ytick"><text text-anchor="end" x="79" y="6.3" style="font-family: 'Open Sans'; font-size: 18px; fill: rgb(0, 0, 0); fill-opacity: 1; white-space: pre;" transform="translate(0,381.52)">200</text></g><g class="ytick"><text text-anchor="end" x="79" y="6.3" style="font-family: 'Open Sans'; font-size: 18px; fill: rgb(0, 0, 0); fill-opacity: 1; white-space: pre;" transform="translate(0,343.03999999999996)">400</text></g><g class="ytick"><text text-anchor="end" x="79" y="6.3" style="font-family: 'Open Sans'; font-size: 18px; fill: rgb(0, 0, 0); fill-opacity: 1; white-space: pre;" transform="translate(0,304.56)">600</text></g><g class="ytick"><text text-anchor="end" x="79" y="6.3" style="font-family: 'Open Sans'; font-size: 18px; fill: rgb(0, 0, 0); fill-opacity: 1; white-space: pre;" transform="translate(0,266.08000000000004)">800</text></g><g class="ytick"><text text-anchor="end" x="79" y="6.3" style="font-family: 'Open Sans'; font-size: 18px; fill: rgb(0, 0, 0); fill-opacity: 1; white-space: pre;" transform="translate(0,227.59)">1000</text></g><g class="ytick"><text text-anchor="end" x="79" y="6.3" style="font-family: 'Open Sans'; font-size: 18px; fill: rgb(0, 0, 0); fill-opacity: 1; white-space: pre;" transform="translate(0,189.11)">1200</text></g><g class="ytick"><text text-anchor="end" x="79" y="6.3" style="font-family: 'Open Sans'; font-size: 18px; fill: rgb(0, 0, 0); fill-opacity: 1; white-space: pre;" transform="translate(0,150.63)">1400</text></g><g class="ytick"><text text-anchor="end" x="79" y="6.3" style="font-family: 'Open Sans'; font-size: 18px; fill: rgb(0, 0, 0); fill-opacity: 1; white-space: pre;" transform="translate(0,112.15)">1600</text></g></g><g class="overaxes-above"/></g></g><g class="polarlayer"/><g class="smithlayer"/><g class="ternarylayer"/><g class="geolayer"/><g class="funnelarealayer"/><g class="pielayer"/><g class="iciclelayer"/><g class="treemaplayer"/><g class="sunburstlayer"/><g class="glimages"/><defs id="topdefs-dff110"><g class="clips"/></defs><g class="layer-above"><g class="imagelayer"/><g class="shapelayer"/></g><g class="infolayer"><g class="g-gtitle"><text class="gtitle" x="35" y="50" text-anchor="start" dy="0em" style="opacity: 1; font-family: 'Open Sans'; font-size: 25px; fill: rgb(0, 0, 0); fill-opacity: 1; white-space: pre;">MultiQC/MultiQC - Pull Requests Created Over Time</text></g><g class="g-xtitle"><text class="xtitle" x="350" y="472.9" text-anchor="middle" style="opacity: 1; font-family: 'Open Sans'; font-size: 22px; fill: rgb(0, 0, 0); fill-opacity: 1; white-space: pre;">Date</text></g><g class="g-ytitle"><text class="ytitle" transform="rotate(-90,20.799999999999997,260)" x="20.799999999999997" y="260" text-anchor="middle" style="opacity: 1; font-family: 'Open Sans'; font-size: 22px; fill: rgb(0, 0, 0); fill-opacity: 1; white-space: pre;">Cumulative PRs Created</text></g></g></svg>