<svg class="main-svg" xmlns="http://www.w3.org/2000/svg" xmlns:xlink="http://www.w3.org/1999/xlink" width="700" height="500" style="" viewBox="0 0 700 500"><rect x="0" y="0" width="700" height="500" style="fill: rgb(0, 0, 0); fill-opacity: 0;"/><defs id="defs-79705f"><g class="clips"><clipPath id="clip79705fxyplot" class="plotclip"><rect width="540" height="320"/></clipPath><clipPath class="axesclip" id="clip79705fx"><rect x="80" y="0" width="540" height="500"/></clipPath><clipPath class="axesclip" id="clip79705fy"><rect x="0" y="100" width="700" height="320"/></clipPath><clipPath class="axesclip" id="clip79705fxy"><rect x="80" y="100" width="540" height="320"/></clipPath></g><g class="gradients"/><g class="patterns"/></defs><g class="bglayer"><rect class="bg" x="80" y="100" width="540" height="320" style="fill: rgb(0, 0, 0); fill-opacity: 0; stroke-width: 0;"/></g><g class="layer-below"><g class="imagelayer"/><g class="shapelayer"/></g><g class="cartesianlayer"><g class="subplot xy"><g class="layer-subplot"><g class="shapelayer"/><g class="imagelayer"/></g><g class="minor-gridlayer"><g class="x"/><g class="y"/></g><g class="gridlayer"><g class="x"><path class="xgrid crisp" transform="translate(97.18,0)" d="M0,100v320" style="stroke: rgb(255, 255, 255); stroke-opacity: 1; stroke-width: 1px;"/><path class="xgrid crisp" transform="translate(200.14,0)" d="M0,100v320" style="stroke: rgb(255, 255, 255); stroke-opacity: 1; stroke-width: 1px;"/><path class="xgrid crisp" transform="translate(302.96000000000004,0)" d="M0,100v320" style="stroke: rgb(255, 255, 255); stroke-opacity: 1; stroke-width: 1px;"/><path class="xgrid crisp" transform="translate(405.92,0)" d="M0,100v320" style="stroke: rgb(255, 255, 255); stroke-opacity: 1; stroke-width: 1px;"/><path class="xgrid crisp" transform="translate(508.73,0)" d="M0,100v320" style="stroke: rgb(255, 255, 255); stroke-opacity: 1; stroke-width: 1px;"/><path class="xgrid crisp" transform="translate(611.69,0)" d="M0,100v320" style="stroke: rgb(255, 255, 255); stroke-opacity: 1; stroke-width: 1px;"/></g><g class="y"><path class="ygrid crisp" transform="translate(0,382.93)" d="M80,0h540" style="stroke: rgb(255, 255, 255); stroke-opacity: 1; stroke-width: 1px;"/><path class="ygrid crisp" transform="translate(0,345.85)" d="M80,0h540" style="stroke: rgb(255, 255, 255); stroke-opacity: 1; stroke-width: 1px;"/><path class="ygrid crisp" transform="translate(0,308.78)" d="M80,0h540" style="stroke: rgb(255, 255, 255); stroke-opacity: 1; stroke-width: 1px;"/><path class="ygrid crisp" transform="translate(0,271.71000000000004)" d="M80,0h540" style="stroke: rgb(255, 255, 255); stroke-opacity: 1; stroke-width: 1px;"/><path class="ygrid crisp" transform="translate(0,234.63)" d="M80,0h540" style="stroke: rgb(255, 255, 255); stroke-opacity: 1; stroke-width: 1px;"/><path class="ygrid crisp" transform="translate(0,197.56)" d="M80,0h540" style="stroke: rgb(255, 255, 255); stroke-opacity: 1; stroke-width: 1px;"/><path class="ygrid crisp" transform="translate(0,160.49)" d="M80,0h540" style="stroke: rgb(255, 255, 255); stroke-opacity: 1; stroke-width: 1px;"/><path class="ygrid crisp" transform="translate(0,123.41)" d="M80,0h540" style="stroke: rgb(255, 255, 255); stroke-opacity: 1; stroke-width: 1px;"/></g></g><g class="zerolinelayer"><path class="yzl zl crisp" transform="translate(0,420)" d="M80,0h540" style="stroke: rgb(255, 255, 255); stroke-opacity: 1; stroke-width: 2px;"/></g><g class="layer-between"><g class="shapelayer"/><g class="imagelayer"/></g><path class="xlines-below"/><path class="ylines-below"/><g class="overlines-below"/><g class="xaxislayer-below"/><g class="yaxislayer-below"/><g class="overaxes-below"/><g class="overplot"><g class="xy" transform="translate(80,100)" clip-path="url(#clip79705fxyplot)"><g class="scatterlayer mlayer"><g class="trace scatter trace694bf5" style="stroke-miterlimit: 2;"><g class="fills"><g><path class="js-fill" d="M540,320L0,320L0,286.63L4.23,286.63L8.59,301.46L12.82,316.29L21.55,305.17L25.63,305.17L30,294.05L34.23,294.05L38.59,308.88L42.82,275.51L47.18,312.59L51.55,312.59L55.77,305.17L60.14,297.76L64.37,275.51L68.73,301.46L73.1,305.17L77.04,301.46L81.41,290.34L85.63,305.17L90,308.88L94.23,227.32L98.59,249.56L102.96,268.1L107.18,279.22L111.55,301.46L115.77,308.88L120.14,290.34L124.51,305.17L128.45,275.51L132.82,268.1L137.04,290.34L141.41,290.34L145.63,301.46L150,297.76L158.59,312.59L162.96,312.59L167.18,294.05L171.55,312.59L175.92,308.88L179.86,268.1L184.23,301.46L188.45,308.88L192.82,305.17L197.04,312.59L201.41,305.17L205.77,316.29L210,282.93L214.37,297.76L218.59,305.17L222.96,308.88L227.32,297.76L231.41,260.68L235.77,268.1L240,256.98L244.37,275.51L248.59,305.17L252.96,308.88L257.32,282.93L261.55,282.93L265.92,290.34L270.14,301.46L274.51,305.17L278.87,297.76L282.82,301.46L291.41,301.46L295.77,264.39L300,264.39L304.37,256.98L308.73,308.88L312.96,305.17L317.32,256.98L321.55,305.17L325.92,312.59L330.28,286.63L334.23,297.76L338.59,294.05L342.82,305.17L347.18,282.93L351.41,286.63L355.77,286.63L360.14,290.34L364.37,305.17L368.73,286.63L372.96,249.56L377.32,294.05L381.69,305.17L385.63,286.63L390,282.93L394.23,305.17L398.59,305.17L402.82,294.05L407.18,179.12L411.55,149.46L415.77,168L420.14,219.9L424.37,179.12L428.73,245.85L433.1,16L437.18,197.66L441.55,205.07L445.77,119.8L450.14,164.29L454.37,156.88L458.73,142.05L463.1,93.85L467.32,212.49L475.92,212.49L480.28,216.2L484.65,264.39L488.59,242.15L492.96,242.15L497.18,223.61L501.55,268.1L505.77,212.49L510.14,245.85L514.51,238.44L518.73,268.1L523.1,264.39L527.32,193.95L531.69,271.8L536.06,279.22L540,301.46" style="fill: rgb(44, 160, 44); fill-opacity: 0.5; stroke-width: 0;"/></g></g><g class="errorbars"/><g class="lines"><path class="js-line" d="M0,286.63L4.23,286.63L8.59,301.46L12.82,316.29L21.55,305.17L25.63,305.17L30,294.05L34.23,294.05L38.59,308.88L42.82,275.51L47.18,312.59L51.55,312.59L55.77,305.17L60.14,297.76L64.37,275.51L68.73,301.46L73.1,305.17L77.04,301.46L81.41,290.34L85.63,305.17L90,308.88L94.23,227.32L98.59,249.56L102.96,268.1L107.18,279.22L111.55,301.46L115.77,308.88L120.14,290.34L124.51,305.17L128.45,275.51L132.82,268.1L137.04,290.34L141.41,290.34L145.63,301.46L150,297.76L158.59,312.59L162.96,312.59L167.18,294.05L171.55,312.59L175.92,308.88L179.86,268.1L184.23,301.46L188.45,308.88L192.82,305.17L197.04,312.59L201.41,305.17L205.77,316.29L210,282.93L214.37,297.76L218.59,305.17L222.96,308.88L227.32,297.76L231.41,260.68L235.77,268.1L240,256.98L244.37,275.51L248.59,305.17L252.96,308.88L257.32,282.93L261.55,282.93L265.92,290.34L270.14,301.46L274.51,305.17L278.87,297.76L282.82,301.46L291.41,301.46L295.77,264.39L300,264.39L304.37,256.98L308.73,308.88L312.96,305.17L317.32,256.98L321.55,305.17L325.92,312.59L330.28,286.63L334.23,297.76L338.59,294.05L342.82,305.17L347.18,282.93L351.41,286.63L355.77,286.63L360.14,290.34L364.37,305.17L368.73,286.63L372.96,249.56L377.32,294.05L381.69,305.17L385.63,286.63L390,282.93L394.23,305.17L398.59,305.17L402.82,294.05L407.18,179.12L411.55,149.46L415.77,168L420.14,219.9L424.37,179.12L428.73,245.85L433.1,16L437.18,197.66L441.55,205.07L445.77,119.8L450.14,164.29L454.37,156.88L458.73,142.05L463.1,93.85L467.32,212.49L475.92,212.49L480.28,216.2L484.65,264.39L488.59,242.15L492.96,242.15L497.18,223.61L501.55,268.1L505.77,212.49L510.14,245.85L514.51,238.44L518.73,268.1L523.1,264.39L527.32,193.95L531.69,271.8L536.06,279.22L540,301.46" style="vector-effect: none; fill: none; stroke: rgb(44, 160, 44); stroke-opacity: 1; stroke-width: 2px; opacity: 1;"/></g><g class="points"/><g class="text"/></g></g></g></g><g class="zerolinelayer-above"/><path class="xlines-above crisp" d="M0,0" style="fill: none;"/><path class="ylines-above crisp" d="M0,0" style="fill: none;"/><g class="overlines-above"/><g class="xaxislayer-above"><g class="xtick"><text text-anchor="middle" x="0" y="439" transform="translate(97.18,0)" style="font-family: 'Open Sans'; font-size: 18px; fill: rgb(0, 0, 0); fill-opacity: 1; white-space: pre;">2016</text></g><g class="xtick"><text text-anchor="middle" x="0" y="439" style="font-family: 'Open Sans'; font-size: 18px; fill: rgb(0, 0, 0); fill-opacity: 1; white-space: pre;" transform="translate(200.14,0)">2018</text></g><g class="xtick"><text text-anchor="middle" x="0" y="439" style="font-family: 'Open Sans'; font-size: 18px; fill: rgb(0, 0, 0); fill-opacity: 1; white-space: pre;" transform="translate(302.96000000000004,0)">2020</text></g><g class="xtick"><text text-anchor="middle" x="0" y="439" style="font-family: 'Open Sans'; font-size: 18px; fill: rgb(0, 0, 0); fill-opacity: 1; white-space: pre;" transform="translate(405.92,0)">2022</text></g><g class="xtick"><text text-anchor="middle" x="0" y="439" style="font-family: 'Open Sans'; font-size: 18px; fill: rgb(0, 0, 0); fill-opacity: 1; white-space: pre;" transform="translate(508.73,0)">2024</text></g><g class="xtick"><text text-anchor="middle" x="0" y="439" style="font-family: 'Open Sans'; font-size: 18px; fill: rgb(0, 0, 0); fill-opacity: 1; white-space: pre;" transform="translate(611.69,0)">2026</text></g></g><g class="yaxislayer-above"><g class="ytick"><text text-anchor="end" x="79" y="6.3" transform="translate(0,420)" style="font-family: 'Open Sans'; font-size: 18px; fill: rgb(0, 0, 0); fill-opacity: 1; white-space: pre;">0</text></g><g class="ytick"><text text-anchor="end" x="79" y="6.3" style="font-family: 'Open Sans'; font-size: 18px; fill: rgb(0, 0, 0); fill-opacity: 1; white-space: pre;" transform="translate(0,382.93)">10</text></g><g class="ytick"><text text-anchor="end" x="79" y="6.3" style="font-family: 'Open Sans'; font-size: 18px; fill: rgb(0, 0, 0); fill-opacity: 1; white-space: pre;" transform="translate(0,345.85)">20</text></g><g class="ytick"><text text-anchor="end" x="79" y="6.3" style="font-family: 'Open Sans'; font-size: 18px; fill: rgb(0, 0, 0); fill-opacity: 1; white-space: pre;" transform="translate(0,308.78)">30</text></g><g class="ytick"><text text-anchor="end" x="79" y="6.3" style="font-family: 'Open Sans'; font-size: 18px; fill: rgb(0, 0, 0); fill-opacity: 1; white-space: pre;" transform="translate(0,271.71000000000004)">40</text></g><g class="ytick"><text text-anchor="end" x="79" y="6.3" style="font-family: 'Open Sans'; font-size: 18px; fill: rgb(0, 0, 0); fill-opacity: 1; white-space: pre;" transform="translate(0,234.63)">50</text></g><g class="ytick"><text text-anchor="end" x="79" y="6.3" style="font-family: 'Open Sans'; font-size: 18px; fill: rgb(0, 0, 0); fill-opacity: 1; white-space: pre;" transform="translate(0,197.56)">60</text></g><g class="ytick"><text text-anchor="end" x="79" y="6.3" style="font-family: 'Open Sans'; font-size: 18px; fill: rgb(0, 0, 0); fill-opacity: 1; white-space: pre;" transform="translate(0,160.49)">70</text></g><g class="ytick"><text text-anchor="end" x="79" y="6.3" style="font-family: 'Open Sans'; font-size: 18px; fill: rgb(0, 0, 0); fill-opacity: 1; white-space: pre;" transform="translate(0,123.41)">80</text></g></g><g class="overaxes-above"/></g></g><g class="polarlayer"/><g class="smithlayer"/><g class="ternarylayer"/><g class="geolayer"/><g class="funnelarealayer"/><g class="pielayer"/><g class="iciclelayer"/><g class="treemaplayer"/><g class="sunburstlayer"/><g class="glimages"/><defs id="topdefs-79705f"><g class="clips"/></defs><g class="layer-above"><g class="imagelayer"/><g class="shapelayer"/></g><g class="infolayer"><g class="g-gtitle"><text class="gtitle" x="35" y="50" text-anchor="start" dy="0em" style="opacity: 1; font-family: 'Open Sans'; font-size: 25px; fill: rgb(0, 0, 0); fill-opacity: 1; white-space: pre;">MultiQC/MultiQC - New Pull Requests Per Month</text></g><g class="g-xtitle"><text class="xtitle" x="350" y="472.9" text-anchor="middle" style="opacity: 1; font-family: 'Open Sans'; font-size: 22px; fill: rgb(0, 0, 0); fill-opacity: 1; white-space: pre;">Month</text></g><g class="g-ytitle"><text class="ytitle" transform="rotate(-90,38.8,260)" x="38.8" y="260" text-anchor="middle" style="opacity: 1; font-family: 'Open Sans'; font-size: 22px; fill: rgb(0, 0, 0); fill-opacity: 1; white-space: pre;">New PRs Created</text></g></g></svg>