<svg class="main-svg" xmlns="http://www.w3.org/2000/svg" xmlns:xlink="http://www.w3.org/1999/xlink" width="700" height="500" style="" viewBox="0 0 700 500"><rect x="0" y="0" width="700" height="500" style="fill: rgb(0, 0, 0); fill-opacity: 0;"/><defs id="defs-b692a6"><g class="clips"><clipPath id="clipb692a6xyplot" class="plotclip"><rect width="540" height="320"/></clipPath><clipPath class="axesclip" id="clipb692a6x"><rect x="80" y="0" width="540" height="500"/></clipPath><clipPath class="axesclip" id="clipb692a6y"><rect x="0" y="100" width="700" height="320"/></clipPath><clipPath class="axesclip" id="clipb692a6xy"><rect x="80" y="100" width="540" height="320"/></clipPath></g><g class="gradients"/><g class="patterns"/></defs><g class="bglayer"><rect class="bg" x="80" y="100" width="540" height="320" style="fill: rgb(0, 0, 0); fill-opacity: 0; stroke-width: 0;"/></g><g class="layer-below"><g class="imagelayer"/><g class="shapelayer"/></g><g class="cartesianlayer"><g class="subplot xy"><g class="layer-subplot"><g class="shapelayer"/><g class="imagelayer"/></g><g class="minor-gridlayer"><g class="x"/><g class="y"/></g><g class="gridlayer"><g class="x"><path class="xgrid crisp" transform="translate(96.83,0)" d="M0,100v320" style="stroke: rgb(255, 255, 255); stroke-opacity: 1; stroke-width: 1px;"/><path class="xgrid crisp" transform="translate(199.86,0)" d="M0,100v320" style="stroke: rgb(255, 255, 255); stroke-opacity: 1; stroke-width: 1px;"/><path class="xgrid crisp" transform="translate(302.76,0)" d="M0,100v320" style="stroke: rgb(255, 255, 255); stroke-opacity: 1; stroke-width: 1px;"/><path class="xgrid crisp" transform="translate(405.79,0)" d="M0,100v320" style="stroke: rgb(255, 255, 255); stroke-opacity: 1; stroke-width: 1px;"/><path class="xgrid crisp" transform="translate(508.68,0)" d="M0,100v320" style="stroke: rgb(255, 255, 255); stroke-opacity: 1; stroke-width: 1px;"/><path class="xgrid crisp" transform="translate(611.72,0)" d="M0,100v320" style="stroke: rgb(255, 255, 255); stroke-opacity: 1; stroke-width: 1px;"/></g><g class="y"><path class="ygrid crisp" transform="translate(0,383.26)" d="M80,0h540" style="stroke: rgb(255, 255, 255); stroke-opacity: 1; stroke-width: 1px;"/><path class="ygrid crisp" transform="translate(0,346.53)" d="M80,0h540" style="stroke: rgb(255, 255, 255); stroke-opacity: 1; stroke-width: 1px;"/><path class="ygrid crisp" transform="translate(0,309.78999999999996)" d="M80,0h540" style="stroke: rgb(255, 255, 255); stroke-opacity: 1; stroke-width: 1px;"/><path class="ygrid crisp" transform="translate(0,273.05)" d="M80,0h540" style="stroke: rgb(255, 255, 255); stroke-opacity: 1; stroke-width: 1px;"/><path class="ygrid crisp" transform="translate(0,236.31)" d="M80,0h540" style="stroke: rgb(255, 255, 255); stroke-opacity: 1; stroke-width: 1px;"/><path class="ygrid crisp" transform="translate(0,199.57999999999998)" d="M80,0h540" style="stroke: rgb(255, 255, 255); stroke-opacity: 1; stroke-width: 1px;"/><path class="ygrid crisp" transform="translate(0,162.84)" d="M80,0h540" style="stroke: rgb(255, 255, 255); stroke-opacity: 1; stroke-width: 1px;"/><path class="ygrid crisp" transform="translate(0,126.1)" d="M80,0h540" style="stroke: rgb(255, 255, 255); stroke-opacity: 1; stroke-width: 1px;"/></g></g><g class="zerolinelayer"><path class="yzl zl crisp" transform="translate(0,420)" d="M80,0h540" style="stroke: rgb(255, 255, 255); stroke-opacity: 1; stroke-width: 2px;"/></g><g class="layer-between"><g class="shapelayer"/><g class="imagelayer"/></g><path class="xlines-below"/><path class="ylines-below"/><g class="overlines-below"/><g class="xaxislayer-below"/><g class="yaxislayer-below"/><g class="overaxes-below"/><g class="overplot"><g class="xy" transform="translate(80,100)" clip-path="url(#clipb692a6xyplot)"><g class="scatterlayer mlayer"><g class="trace scatter trace40126f" style="stroke-miterlimit: 2;"><g class="fills"><g><path class="js-fill" d="M540,320L0,320L0,319.82L3.8,318.35L4.66,318.16L5.49,317.61L5.62,317.43L6.9,316.88L7.48,316.69L14.37,315.59L21.71,315.41L21.9,315.22L23.5,315.04L23.5,314.86L26.47,314.67L34.56,312.29L34.96,312.1L43.31,310.26L43.41,310.08L43.45,309.53L44.38,309.35L44.95,308.98L46.21,308.8L58.42,307.51L59.53,307.33L66.79,305.12L66.84,304.94L67.64,304.02L68.48,303.84L69.91,303.1L74.4,302.92L77.53,302.18L78.49,302L82.47,300.71L82.87,300.53L96.69,297.41L96.69,297.22L97.39,294.65L97.79,294.47L98.22,294.1L98.8,293.92L100.47,292.63L100.61,292.45L101.21,291.53L102.17,291.35L103.3,290.06L103.42,289.88L104.17,289.14L105.11,288.96L108.32,287.12L108.32,286.94L108.82,286.39L110.08,286.2L110.21,286.02L112.19,285.83L112.2,285.65L113.3,285.47L120.9,284.18L121.19,284L121.51,283.45L122.34,283.26L129.24,281.61L129.24,281.43L130.11,280.69L131.09,280.51L134.72,278.85L135.06,278.67L135.73,277.75L135.86,277.57L143.17,275.73L143.71,275.55L147.97,273.89L149.57,273.71L152.08,272.79L153.65,272.61L169.83,270.04L169.84,269.85L180.03,268.57L180.03,268.38L180.68,267.28L182.21,267.1L182.54,266.36L184.19,266.18L184.68,265.63L186.87,265.45L211.89,262.14L211.98,261.96L212.28,261.22L213.69,261.04L217.72,259.93L218.88,259.75L231.59,257.36L231.59,257.18L232.4,256.44L232.68,256.26L235.25,254.98L235.49,254.79L235.96,253.69L236.55,253.51L236.66,253.32L237.94,253.14L239.29,252.22L239.76,252.04L241.44,251.12L241.62,250.93L244.51,248.55L244.65,248.36L245.53,247.81L246.36,247.63L250.63,245.97L255.17,245.79L255.52,245.42L257.4,245.24L261.07,243.77L261.18,243.59L262.49,242.48L264.53,242.3L264.6,241.93L265.62,241.75L270.46,240.1L272.13,239.91L272.32,239.73L274.06,239.55L274.06,239.36L275.01,239.18L275.2,238.99L276.57,238.81L281.96,237.71L282.02,237.53L297.53,234.4L297.53,234.22L298.08,233.48L299.22,233.3L300.08,231.83L300.1,231.65L302.46,229.81L302.51,229.63L306.42,227.79L306.52,227.61L306.86,226.14L309.03,225.95L317.36,224.48L318.01,224.3L318.18,223.56L318.84,223.38L320.71,221.73L323.15,221.54L323.65,221.18L324.88,220.99L333.35,219.34L333.38,219.16L334.21,218.79L335.46,218.61L340.53,216.77L340.61,216.58L347.95,215.48L347.96,215.3L351.37,213.83L352.09,213.65L356.94,211.81L356.97,211.63L358,210.89L359.81,210.71L362.87,209.42L363.8,209.24L369.98,207.95L370.1,207.77L374.98,205.2L375.05,205.01L375.68,203.91L376.62,203.73L379.34,202.07L381.8,201.89L382.41,201.34L386.19,201.16L389.84,199.69L391.67,199.5L391.81,199.13L393.25,198.95L393.38,197.85L397.32,197.67L398.16,197.11L400.26,196.93L404.52,195.83L406.01,195.64L409.28,192.71L409.32,192.52L412.29,186.83L412.96,186.64L416.08,178.75L416.68,178.56L417.53,177.09L417.54,176.91L417.89,175.81L417.92,175.62L418.37,173.42L418.78,173.24L420.08,172.13L420.44,171.95L421.41,170.85L421.48,170.66L422.16,169.38L422.28,169.19L423.14,167.36L424.09,167.17L424.83,165.89L424.84,165.7L425.07,165.34L425.93,165.15L426.93,160.93L428.09,160.74L428.39,160.19L429.05,160.01L431.99,157.44L432.01,157.25L432.06,156.89L432.91,156.7L434.67,153.21L434.67,153.03L435.58,148.8L435.81,148.62L438.25,139.25L438.52,139.07L439.21,138.52L439.64,138.33L440.35,136.13L440.59,135.95L441.04,135.4L442.14,135.21L443.6,133.19L443.71,133.01L446.83,126.95L446.83,126.76L448.08,122.91L448.09,122.72L448.5,122.35L448.95,122.17L449.93,121.25L449.93,121.07L450.26,119.6L450.79,119.42L451.31,118.68L451.61,118.5L452.72,116.29L452.73,116.11L453.45,113.35L453.55,113.17L453.75,112.07L454.45,111.88L455.39,109.86L455.44,109.68L457.52,105.64L457.52,105.45L460.4,99.76L460.47,99.58L461.34,97.01L461.37,96.82L461.89,95.35L462.71,95.17L463.65,94.25L463.7,94.07L464.42,91.86L464.55,91.68L466.28,86.72L466.66,86.54L467.41,83.41L467.42,83.23L469.83,80.84L470.08,80.66L471.61,78.64L472.77,78.45L473.71,77.17L473.74,76.98L474.18,76.07L474.18,75.88L474.85,74.6L474.99,74.41L476.68,72.39L477.38,72.21L478.11,70.37L478.14,70.19L478.71,68.35L479.56,68.17L483.21,66.33L483.22,66.15L485.48,61.74L486.64,61.55L487.54,60.64L487.98,60.45L489.23,58.98L490.07,58.8L492.92,56.23L493.52,56.04L497.01,53.29L497.11,53.1L497.32,52.19L497.96,52L503.06,45.94L503.62,45.76L505.99,44.47L505.99,44.29L506.74,41.9L506.97,41.72L510.15,39.7L512.36,39.51L513.05,37.31L513.17,37.12L513.9,36.57L514.17,36.39L514.88,35.1L514.93,34.92L516.89,31.98L518.79,31.8L521.81,30.88L521.97,30.69L522.97,29.41L523.95,29.23L527.01,27.39L527.02,27.2L527.71,25.74L527.97,25.55L528.83,22.61L529.03,22.43L529.96,21.33L530.14,21.14L530.41,20.41L532.71,20.22L533.97,18.39L534.92,18.2L539.35,16.73L539.67,16.55L540,16" style="fill: rgb(44, 160, 44); fill-opacity: 0.5; stroke-width: 0;"/></g></g><g class="errorbars"/><g class="lines"><path class="js-line" d="M0,319.82L3.8,318.35L4.66,318.16L5.49,317.61L5.62,317.43L6.9,316.88L7.48,316.69L14.37,315.59L21.71,315.41L21.9,315.22L23.5,315.04L23.5,314.86L26.47,314.67L34.56,312.29L34.96,312.1L43.31,310.26L43.41,310.08L43.45,309.53L44.38,309.35L44.95,308.98L46.21,308.8L58.42,307.51L59.53,307.33L66.79,305.12L66.84,304.94L67.64,304.02L68.48,303.84L69.91,303.1L74.4,302.92L77.53,302.18L78.49,302L82.47,300.71L82.87,300.53L96.69,297.41L96.69,297.22L97.39,294.65L97.79,294.47L98.22,294.1L98.8,293.92L100.47,292.63L100.61,292.45L101.21,291.53L102.17,291.35L103.3,290.06L103.42,289.88L104.17,289.14L105.11,288.96L108.32,287.12L108.32,286.94L108.82,286.39L110.08,286.2L110.21,286.02L112.19,285.83L112.2,285.65L113.3,285.47L120.9,284.18L121.19,284L121.51,283.45L122.34,283.26L129.24,281.61L129.24,281.43L130.11,280.69L131.09,280.51L134.72,278.85L135.06,278.67L135.73,277.75L135.86,277.57L143.17,275.73L143.71,275.55L147.97,273.89L149.57,273.71L152.08,272.79L153.65,272.61L169.83,270.04L169.84,269.85L180.03,268.57L180.03,268.38L180.68,267.28L182.21,267.1L182.54,266.36L184.19,266.18L184.68,265.63L186.87,265.45L211.89,262.14L211.98,261.96L212.28,261.22L213.69,261.04L217.72,259.93L218.88,259.75L231.59,257.36L231.59,257.18L232.4,256.44L232.68,256.26L235.25,254.98L235.49,254.79L235.96,253.69L236.55,253.51L236.66,253.32L237.94,253.14L239.29,252.22L239.76,252.04L241.44,251.12L241.62,250.93L244.51,248.55L244.65,248.36L245.53,247.81L246.36,247.63L250.63,245.97L255.17,245.79L255.52,245.42L257.4,245.24L261.07,243.77L261.18,243.59L262.49,242.48L264.53,242.3L264.6,241.93L265.62,241.75L270.46,240.1L272.13,239.91L272.32,239.73L274.06,239.55L274.06,239.36L275.01,239.18L275.2,238.99L276.57,238.81L281.96,237.71L282.02,237.53L297.53,234.4L297.53,234.22L298.08,233.48L299.22,233.3L300.08,231.83L300.1,231.65L302.46,229.81L302.51,229.63L306.42,227.79L306.52,227.61L306.86,226.14L309.03,225.95L317.36,224.48L318.01,224.3L318.18,223.56L318.84,223.38L320.71,221.73L323.15,221.54L323.65,221.18L324.88,220.99L333.35,219.34L333.38,219.16L334.21,218.79L335.46,218.61L340.53,216.77L340.61,216.58L347.95,215.48L347.96,215.3L351.37,213.83L352.09,213.65L356.94,211.81L356.97,211.63L358,210.89L359.81,210.71L362.87,209.42L363.8,209.24L369.98,207.95L370.1,207.77L374.98,205.2L375.05,205.01L375.68,203.91L376.62,203.73L379.34,202.07L381.8,201.89L382.41,201.34L386.19,201.16L389.84,199.69L391.67,199.5L391.81,199.13L393.25,198.95L393.38,197.85L397.32,197.67L398.16,197.11L400.26,196.93L404.52,195.83L406.01,195.64L409.28,192.71L409.32,192.52L412.29,186.83L412.96,186.64L416.08,178.75L416.68,178.56L417.53,177.09L417.54,176.91L417.89,175.81L417.92,175.62L418.37,173.42L418.78,173.24L420.08,172.13L420.44,171.95L421.41,170.85L421.48,170.66L422.16,169.38L422.28,169.19L423.14,167.36L424.09,167.17L424.83,165.89L424.84,165.7L425.07,165.34L425.93,165.15L426.93,160.93L428.09,160.74L428.39,160.19L429.05,160.01L431.99,157.44L432.01,157.25L432.06,156.89L432.91,156.7L434.67,153.21L434.67,153.03L435.58,148.8L435.81,148.62L438.25,139.25L438.52,139.07L439.21,138.52L439.64,138.33L440.35,136.13L440.59,135.95L441.04,135.4L442.14,135.21L443.6,133.19L443.71,133.01L446.83,126.95L446.83,126.76L448.08,122.91L448.09,122.72L448.5,122.35L448.95,122.17L449.93,121.25L449.93,121.07L450.26,119.6L450.79,119.42L451.31,118.68L451.61,118.5L452.72,116.29L452.73,116.11L453.45,113.35L453.55,113.17L453.75,112.07L454.45,111.88L455.39,109.86L455.44,109.68L457.52,105.64L457.52,105.45L460.4,99.76L460.47,99.58L461.34,97.01L461.37,96.82L461.89,95.35L462.71,95.17L463.65,94.25L463.7,94.07L464.42,91.86L464.55,91.68L466.28,86.72L466.66,86.54L467.41,83.41L467.42,83.23L469.83,80.84L470.08,80.66L471.61,78.64L472.77,78.45L473.71,77.17L473.74,76.98L474.18,76.07L474.18,75.88L474.85,74.6L474.99,74.41L476.68,72.39L477.38,72.21L478.11,70.37L478.14,70.19L478.71,68.35L479.56,68.17L483.21,66.33L483.22,66.15L485.48,61.74L486.64,61.55L487.54,60.64L487.98,60.45L489.23,58.98L490.07,58.8L492.92,56.23L493.52,56.04L497.01,53.29L497.11,53.1L497.32,52.19L497.96,52L503.06,45.94L503.62,45.76L505.99,44.47L505.99,44.29L506.74,41.9L506.97,41.72L510.15,39.7L512.36,39.51L513.05,37.31L513.17,37.12L513.9,36.57L514.17,36.39L514.88,35.1L514.93,34.92L516.89,31.98L518.79,31.8L521.81,30.88L521.97,30.69L522.97,29.41L523.95,29.23L527.01,27.39L527.02,27.2L527.71,25.74L527.97,25.55L528.83,22.61L529.03,22.43L529.96,21.33L530.14,21.14L530.41,20.41L532.71,20.22L533.97,18.39L534.92,18.2L539.35,16.73L539.67,16.55L540,16" style="vector-effect: none; fill: none; stroke: rgb(44, 160, 44); stroke-opacity: 1; stroke-width: 2px; opacity: 1;"/></g><g class="points"/><g class="text"/></g></g></g></g><g class="zerolinelayer-above"/><path class="xlines-above crisp" d="M0,0" style="fill: none;"/><path class="ylines-above crisp" d="M0,0" style="fill: none;"/><g class="overlines-above"/><g class="xaxislayer-above"><g class="xtick"><text text-anchor="middle" x="0" y="439" transform="translate(96.83,0)" style="font-family: 'Open Sans'; font-size: 18px; fill: rgb(0, 0, 0); fill-opacity: 1; white-space: pre;">2016</text></g><g class="xtick"><text text-anchor="middle" x="0" y="439" style="font-family: 'Open Sans'; font-size: 18px; fill: rgb(0, 0, 0); fill-opacity: 1; white-space: pre;" transform="translate(199.86,0)">2018</text></g><g class="xtick"><text text-anchor="middle" x="0" y="439" style="font-family: 'Open Sans'; font-size: 18px; fill: rgb(0, 0, 0); fill-opacity: 1; white-space: pre;" transform="translate(302.76,0)">2020</text></g><g class="xtick"><text text-anchor="middle" x="0" y="439" style="font-family: 'Open Sans'; font-size: 18px; fill: rgb(0, 0, 0); fill-opacity: 1; white-space: pre;" transform="translate(405.79,0)">2022</text></g><g class="xtick"><text text-anchor="middle" x="0" y="439" style="font-family: 'Open Sans'; font-size: 18px; fill: rgb(0, 0, 0); fill-opacity: 1; white-space: pre;" transform="translate(508.68,0)">2024</text></g><g class="xtick"><text text-anchor="middle" x="0" y="439" style="font-family: 'Open Sans'; font-size: 18px; fill: rgb(0, 0, 0); fill-opacity: 1; white-space: pre;" transform="translate(611.72,0)">2026</text></g></g><g class="yaxislayer-above"><g class="ytick"><text text-anchor="end" x="79" y="6.3" transform="translate(0,420)" style="font-family: 'Open Sans'; font-size: 18px; fill: rgb(0, 0, 0); fill-opacity: 1; white-space: pre;">0</text></g><g class="ytick"><text text-anchor="end" x="79" y="6.3" style="font-family: 'Open Sans'; font-size: 18px; fill: rgb(0, 0, 0); fill-opacity: 1; white-space: pre;" transform="translate(0,383.26)">200</text></g><g class="ytick"><text text-anchor="end" x="79" y="6.3" style="font-family: 'Open Sans'; font-size: 18px; fill: rgb(0, 0, 0); fill-opacity: 1; white-space: pre;" transform="translate(0,346.53)">400</text></g><g class="ytick"><text text-anchor="end" x="79" y="6.3" style="font-family: 'Open Sans'; font-size: 18px; fill: rgb(0, 0, 0); fill-opacity: 1; white-space: pre;" transform="translate(0,309.78999999999996)">600</text></g><g class="ytick"><text text-anchor="end" x="79" y="6.3" style="font-family: 'Open Sans'; font-size: 18px; fill: rgb(0, 0, 0); fill-opacity: 1; white-space: pre;" transform="translate(0,273.05)">800</text></g><g class="ytick"><text text-anchor="end" x="79" y="6.3" style="font-family: 'Open Sans'; font-size: 18px; fill: rgb(0, 0, 0); fill-opacity: 1; white-space: pre;" transform="translate(0,236.31)">1000</text></g><g class="ytick"><text text-anchor="end" x="79" y="6.3" style="font-family: 'Open Sans'; font-size: 18px; fill: rgb(0, 0, 0); fill-opacity: 1; white-space: pre;" transform="translate(0,199.57999999999998)">1200</text></g><g class="ytick"><text text-anchor="end" x="79" y="6.3" style="font-family: 'Open Sans'; font-size: 18px; fill: rgb(0, 0, 0); fill-opacity: 1; white-space: pre;" transform="translate(0,162.84)">1400</text></g><g class="ytick"><text text-anchor="end" x="79" y="6.3" style="font-family: 'Open Sans'; font-size: 18px; fill: rgb(0, 0, 0); fill-opacity: 1; white-space: pre;" transform="translate(0,126.1)">1600</text></g></g><g class="overaxes-above"/></g></g><g class="polarlayer"/><g class="smithlayer"/><g class="ternarylayer"/><g class="geolayer"/><g class="funnelarealayer"/><g class="pielayer"/><g class="iciclelayer"/><g class="treemaplayer"/><g class="sunburstlayer"/><g class="glimages"/><defs id="topdefs-b692a6"><g class="clips"/></defs><g class="layer-above"><g class="imagelayer"/><g class="shapelayer"/></g><g class="infolayer"><g class="g-gtitle"><text class="gtitle" x="35" y="50" text-anchor="start" dy="0em" style="opacity: 1; font-family: 'Open Sans'; font-size: 25px; fill: rgb(0, 0, 0); fill-opacity: 1; white-space: pre;">MultiQC/MultiQC - Pull Requests Created Over Time</text></g><g class="g-xtitle"><text class="xtitle" x="350" y="472.9" text-anchor="middle" style="opacity: 1; font-family: 'Open Sans'; font-size: 22px; fill: rgb(0, 0, 0); fill-opacity: 1; white-space: pre;">Date</text></g><g class="g-ytitle"><text class="ytitle" transform="rotate(-90,20.799999999999997,260)" x="20.799999999999997" y="260" text-anchor="middle" style="opacity: 1; font-family: 'Open Sans'; font-size: 22px; fill: rgb(0, 0, 0); fill-opacity: 1; white-space: pre;">Cumulative PRs Created</text></g></g></svg>