<svg class="main-svg" xmlns="http://www.w3.org/2000/svg" xmlns:xlink="http://www.w3.org/1999/xlink" width="700" height="500" style="" viewBox="0 0 700 500"><rect x="0" y="0" width="700" height="500" style="fill: rgb(0, 0, 0); fill-opacity: 0;"/><defs id="defs-0e100d"><g class="clips"><clipPath id="clip0e100dxyplot" class="plotclip"><rect width="540" height="320"/></clipPath><clipPath class="axesclip" id="clip0e100dx"><rect x="80" y="0" width="540" height="500"/></clipPath><clipPath class="axesclip" id="clip0e100dy"><rect x="0" y="100" width="700" height="320"/></clipPath><clipPath class="axesclip" id="clip0e100dxy"><rect x="80" y="100" width="540" height="320"/></clipPath></g><g class="gradients"/><g class="patterns"/></defs><g class="bglayer"><rect class="bg" x="80" y="100" width="540" height="320" style="fill: rgb(0, 0, 0); fill-opacity: 0; stroke-width: 0;"/></g><g class="layer-below"><g class="imagelayer"/><g class="shapelayer"/></g><g class="cartesianlayer"><g class="subplot xy"><g class="layer-subplot"><g class="shapelayer"/><g class="imagelayer"/></g><g class="minor-gridlayer"><g class="x"/><g class="y"/></g><g class="gridlayer"><g class="x"><path class="xgrid crisp" transform="translate(96.59,0)" d="M0,100v320" style="stroke: rgb(255, 255, 255); stroke-opacity: 1; stroke-width: 1px;"/><path class="xgrid crisp" transform="translate(198.18,0)" d="M0,100v320" style="stroke: rgb(255, 255, 255); stroke-opacity: 1; stroke-width: 1px;"/><path class="xgrid crisp" transform="translate(299.63,0)" d="M0,100v320" style="stroke: rgb(255, 255, 255); stroke-opacity: 1; stroke-width: 1px;"/><path class="xgrid crisp" transform="translate(401.21,0)" d="M0,100v320" style="stroke: rgb(255, 255, 255); stroke-opacity: 1; stroke-width: 1px;"/><path class="xgrid crisp" transform="translate(502.66,0)" d="M0,100v320" style="stroke: rgb(255, 255, 255); stroke-opacity: 1; stroke-width: 1px;"/><path class="xgrid crisp" transform="translate(604.25,0)" d="M0,100v320" style="stroke: rgb(255, 255, 255); stroke-opacity: 1; stroke-width: 1px;"/></g><g class="y"><path class="ygrid crisp" transform="translate(0,383.72)" d="M80,0h540" style="stroke: rgb(255, 255, 255); stroke-opacity: 1; stroke-width: 1px;"/><path class="ygrid crisp" transform="translate(0,347.45)" d="M80,0h540" style="stroke: rgb(255, 255, 255); stroke-opacity: 1; stroke-width: 1px;"/><path class="ygrid crisp" transform="translate(0,311.16999999999996)" d="M80,0h540" style="stroke: rgb(255, 255, 255); stroke-opacity: 1; stroke-width: 1px;"/><path class="ygrid crisp" transform="translate(0,274.89)" d="M80,0h540" style="stroke: rgb(255, 255, 255); stroke-opacity: 1; stroke-width: 1px;"/><path class="ygrid crisp" transform="translate(0,238.62)" d="M80,0h540" style="stroke: rgb(255, 255, 255); stroke-opacity: 1; stroke-width: 1px;"/><path class="ygrid crisp" transform="translate(0,202.34)" d="M80,0h540" style="stroke: rgb(255, 255, 255); stroke-opacity: 1; stroke-width: 1px;"/><path class="ygrid crisp" transform="translate(0,166.06)" d="M80,0h540" style="stroke: rgb(255, 255, 255); stroke-opacity: 1; stroke-width: 1px;"/><path class="ygrid crisp" transform="translate(0,129.79)" d="M80,0h540" style="stroke: rgb(255, 255, 255); stroke-opacity: 1; stroke-width: 1px;"/></g></g><g class="zerolinelayer"><path class="yzl zl crisp" transform="translate(0,420)" d="M80,0h540" style="stroke: rgb(255, 255, 255); stroke-opacity: 1; stroke-width: 2px;"/></g><g class="layer-between"><g class="shapelayer"/><g class="imagelayer"/></g><path class="xlines-below"/><path class="ylines-below"/><g class="overlines-below"/><g class="xaxislayer-below"/><g class="yaxislayer-below"/><g class="overaxes-below"/><g class="overplot"><g class="xy" transform="translate(80,100)" clip-path="url(#clip0e100dxyplot)"><g class="scatterlayer mlayer"><g class="trace scatter tracec4b705" style="stroke-miterlimit: 2;"><g class="fills"><g><path class="js-fill" d="M540,320L0,320L0,319.82L3.46,318.55L3.75,318.37L5.68,317.28L5.98,317.1L14.17,315.65L21.4,315.47L21.59,315.28L23.17,315.1L23.17,314.92L26.1,314.74L42.8,310.21L42.81,310.02L42.84,309.66L43.76,309.48L44.32,309.12L45.56,308.94L57.6,307.67L58.69,307.48L65.85,305.31L65.9,305.13L66.69,304.22L67.52,304.04L68.93,303.31L73.35,303.13L77.39,302.22L78.56,302.04L83.37,300.41L83.38,300.23L93.99,298.6L94.33,298.42L95.34,297.51L95.34,297.33L96.02,294.97L96.41,294.79L96.84,294.42L97.42,294.24L99.06,292.97L99.2,292.79L99.78,291.89L100.73,291.7L101.85,290.43L101.96,290.25L102.7,289.53L103.64,289.35L106.8,287.53L106.8,287.35L107.29,286.81L108.54,286.63L108.66,286.44L110.61,286.26L110.62,286.08L111.71,285.9L119.2,284.63L119.49,284.45L119.8,283.9L120.62,283.72L127.42,282.09L127.42,281.91L128.28,281.18L129.25,281L133.16,279.19L133.81,279.01L133.95,278.1L135.21,277.92L135.32,277.74L136.73,277.56L137.26,277.19L138.67,277.01L138.97,276.65L140.63,276.47L149.94,273.38L151.49,273.2L177.5,269.21L177.5,269.03L178.14,267.94L179.65,267.76L179.98,267.04L181.6,266.85L182.09,266.31L184.24,266.13L208.21,263.05L208.91,262.86L209.3,261.96L210.68,261.78L214.66,260.69L215.81,260.51L228.34,257.97L228.38,257.79L229.13,257.24L229.41,257.06L231.94,255.79L232.19,255.61L232.65,254.52L233.22,254.34L233.33,254.16L234.59,253.98L236.54,252.71L237.18,252.53L238.45,251.62L239.14,251.44L239.14,251.26L240.11,251.07L240.82,249.62L241.08,249.44L242.08,248.72L242.9,248.53L247.11,246.9L251.58,246.72L251.93,246.36L253.78,246.18L257.41,244.73L257.51,244.54L258.8,243.46L260.82,243.27L260.88,242.91L261.89,242.73L266.66,241.1L268.31,240.92L268.5,240.74L270.21,240.55L270.21,240.37L271.15,240.19L271.34,240.01L272.68,239.83L278,238.74L278.06,238.56L290.1,236.02L290.86,235.84L293.5,234.93L293.89,234.75L293.9,234.57L295.02,234.39L295.87,232.94L295.88,232.75L298.21,230.94L298.26,230.76L302.12,228.95L302.21,228.76L302.54,227.31L304.69,227.13L312.9,225.68L313.54,225.5L313.71,224.77L314.36,224.59L316.21,222.96L318.61,222.78L319.1,222.42L320.32,222.23L328.67,220.6L328.69,220.42L329.51,220.06L330.75,219.88L335.75,218.06L335.83,217.88L343.06,216.79L343.07,216.61L347.15,214.98L347.95,214.8L352.61,212.62L352.61,212.44L355.04,211.89L356.08,211.71L356.34,210.99L357.78,210.81L366.47,208.81L366.52,208.63L367.36,208.27L368.52,208.09L369.33,207.18L369.54,207L372.76,203.91L373.28,203.73L387.83,200.29L387.84,200.11L387.85,199.38L391.74,199.2L392.57,198.65L394.64,198.47L398.84,197.38L400.31,197.2L403.57,194.12L403.65,193.94L406.5,188.5L407.16,188.32L409.56,181.42L409.97,181.24L412.02,177.61L412.05,177.43L412.49,175.26L412.89,175.07L414.53,173.8L414.96,173.62L416.48,170.9L416.49,170.72L417.19,169.27L418.13,169.09L418.87,167.82L418.87,167.64L419.1,167.27L419.95,167.09L420.91,163.1L420.93,162.92L423.28,161.83L423.35,161.65L425.82,159.66L425.92,159.47L425.99,158.93L426.82,158.75L428.56,155.48L428.56,155.3L429.46,150.95L429.69,150.77L431.82,142.24L432.04,142.06L432.37,140.97L433.04,140.79L433.6,139.89L433.61,139.7L434.84,137.71L435.93,137.53L437.48,135.35L437.58,135.17L437.73,134.63L438.42,134.44L439.78,131.18L439.88,131L441.78,125.37L441.79,125.19L442.2,124.83L442.64,124.65L443.61,123.74L443.61,123.56L444.46,121.75L444.57,121.57L446.36,118.66L446.37,118.48L447.08,115.94L447.17,115.76L447.37,114.67L448.07,114.49L449.04,112.32L449.16,112.13L449.85,110.86L450.11,110.68L450.86,108.69L451.09,108.51L451.49,107.05L451.93,106.87L453.46,104.15L453.47,103.97L455.4,98.17L456.21,97.99L457.13,97.08L457.19,96.9L457.9,94.72L458.02,94.54L461.07,85.65L461.67,85.47L464.43,82.75L464.43,82.57L464.99,81.66L466.12,81.48L467.06,80.21L467.08,80.03L467.52,79.12L467.52,78.94L468.18,77.67L468.31,77.49L471.39,73.5L471.42,73.32L471.98,71.5L472.82,71.32L476.42,69.51L476.43,69.33L478.66,64.97L479.81,64.79L480.69,63.89L481.12,63.7L482.36,62.25L483.18,62.07L486,59.53L486.58,59.35L490.03,56.63L490.12,56.45L490.33,55.54L490.96,55.36L495.99,49.37L496.54,49.19L498.88,47.92L498.88,47.74L499.62,45.38L499.85,45.2L502.98,43.21L505.16,43.03L505.96,40.49L506.67,40.31L506.96,39.58L507.52,39.4L508.5,36.68L508.92,36.5L511.5,35.41L513.26,35.23L514.84,33.78L514.88,33.59L515.62,33.05L516.59,32.87L519.46,31.24L519.6,31.05L520.29,29.42L520.56,29.24L521.28,26.52L521.4,26.34L522.96,24.16L525.23,23.98L526.47,22.17L527.4,21.99L531.77,20.53L532.09,20.35L532.41,19.81L532.96,19.63L533.41,18.9L534.05,18.72L538.23,16.73L538.95,16.54L540,16" style="fill: rgb(44, 160, 44); fill-opacity: 0.5; stroke-width: 0;"/></g></g><g class="errorbars"/><g class="lines"><path class="js-line" d="M0,319.82L3.46,318.55L3.75,318.37L5.68,317.28L5.98,317.1L14.17,315.65L21.4,315.47L21.59,315.28L23.17,315.1L23.17,314.92L26.1,314.74L42.8,310.21L42.81,310.02L42.84,309.66L43.76,309.48L44.32,309.12L45.56,308.94L57.6,307.67L58.69,307.48L65.85,305.31L65.9,305.13L66.69,304.22L67.52,304.04L68.93,303.31L73.35,303.13L77.39,302.22L78.56,302.04L83.37,300.41L83.38,300.23L93.99,298.6L94.33,298.42L95.34,297.51L95.34,297.33L96.02,294.97L96.41,294.79L96.84,294.42L97.42,294.24L99.06,292.97L99.2,292.79L99.78,291.89L100.73,291.7L101.85,290.43L101.96,290.25L102.7,289.53L103.64,289.35L106.8,287.53L106.8,287.35L107.29,286.81L108.54,286.63L108.66,286.44L110.61,286.26L110.62,286.08L111.71,285.9L119.2,284.63L119.49,284.45L119.8,283.9L120.62,283.72L127.42,282.09L127.42,281.91L128.28,281.18L129.25,281L133.16,279.19L133.81,279.01L133.95,278.1L135.21,277.92L135.32,277.74L136.73,277.56L137.26,277.19L138.67,277.01L138.97,276.65L140.63,276.47L149.94,273.38L151.49,273.2L177.5,269.21L177.5,269.03L178.14,267.94L179.65,267.76L179.98,267.04L181.6,266.85L182.09,266.31L184.24,266.13L208.21,263.05L208.91,262.86L209.3,261.96L210.68,261.78L214.66,260.69L215.81,260.51L228.34,257.97L228.38,257.79L229.13,257.24L229.41,257.06L231.94,255.79L232.19,255.61L232.65,254.52L233.22,254.34L233.33,254.16L234.59,253.98L236.54,252.71L237.18,252.53L238.45,251.62L239.14,251.44L239.14,251.26L240.11,251.07L240.82,249.62L241.08,249.44L242.08,248.72L242.9,248.53L247.11,246.9L251.58,246.72L251.93,246.36L253.78,246.18L257.41,244.73L257.51,244.54L258.8,243.46L260.82,243.27L260.88,242.91L261.89,242.73L266.66,241.1L268.31,240.92L268.5,240.74L270.21,240.55L270.21,240.37L271.15,240.19L271.34,240.01L272.68,239.83L278,238.74L278.06,238.56L290.1,236.02L290.86,235.84L293.5,234.93L293.89,234.75L293.9,234.57L295.02,234.39L295.87,232.94L295.88,232.75L298.21,230.94L298.26,230.76L302.12,228.95L302.21,228.76L302.54,227.31L304.69,227.13L312.9,225.68L313.54,225.5L313.71,224.77L314.36,224.59L316.21,222.96L318.61,222.78L319.1,222.42L320.32,222.23L328.67,220.6L328.69,220.42L329.51,220.06L330.75,219.88L335.75,218.06L335.83,217.88L343.06,216.79L343.07,216.61L347.15,214.98L347.95,214.8L352.61,212.62L352.61,212.44L355.04,211.89L356.08,211.71L356.34,210.99L357.78,210.81L366.47,208.81L366.52,208.63L367.36,208.27L368.52,208.09L369.33,207.18L369.54,207L372.76,203.91L373.28,203.73L387.83,200.29L387.84,200.11L387.85,199.38L391.74,199.2L392.57,198.65L394.64,198.47L398.84,197.38L400.31,197.2L403.57,194.12L403.65,193.94L406.5,188.5L407.16,188.32L409.56,181.42L409.97,181.24L412.02,177.61L412.05,177.43L412.49,175.26L412.89,175.07L414.53,173.8L414.96,173.62L416.48,170.9L416.49,170.72L417.19,169.27L418.13,169.09L418.87,167.82L418.87,167.64L419.1,167.27L419.95,167.09L420.91,163.1L420.93,162.92L423.28,161.83L423.35,161.65L425.82,159.66L425.92,159.47L425.99,158.93L426.82,158.75L428.56,155.48L428.56,155.3L429.46,150.95L429.69,150.77L431.82,142.24L432.04,142.06L432.37,140.97L433.04,140.79L433.6,139.89L433.61,139.7L434.84,137.71L435.93,137.53L437.48,135.35L437.58,135.17L437.73,134.63L438.42,134.44L439.78,131.18L439.88,131L441.78,125.37L441.79,125.19L442.2,124.83L442.64,124.65L443.61,123.74L443.61,123.56L444.46,121.75L444.57,121.57L446.36,118.66L446.37,118.48L447.08,115.94L447.17,115.76L447.37,114.67L448.07,114.49L449.04,112.32L449.16,112.13L449.85,110.86L450.11,110.68L450.86,108.69L451.09,108.51L451.49,107.05L451.93,106.87L453.46,104.15L453.47,103.97L455.4,98.17L456.21,97.99L457.13,97.08L457.19,96.9L457.9,94.72L458.02,94.54L461.07,85.65L461.67,85.47L464.43,82.75L464.43,82.57L464.99,81.66L466.12,81.48L467.06,80.21L467.08,80.03L467.52,79.12L467.52,78.94L468.18,77.67L468.31,77.49L471.39,73.5L471.42,73.32L471.98,71.5L472.82,71.32L476.42,69.51L476.43,69.33L478.66,64.97L479.81,64.79L480.69,63.89L481.12,63.7L482.36,62.25L483.18,62.07L486,59.53L486.58,59.35L490.03,56.63L490.12,56.45L490.33,55.54L490.96,55.36L495.99,49.37L496.54,49.19L498.88,47.92L498.88,47.74L499.62,45.38L499.85,45.2L502.98,43.21L505.16,43.03L505.96,40.49L506.67,40.31L506.96,39.58L507.52,39.4L508.5,36.68L508.92,36.5L511.5,35.41L513.26,35.23L514.84,33.78L514.88,33.59L515.62,33.05L516.59,32.87L519.46,31.24L519.6,31.05L520.29,29.42L520.56,29.24L521.28,26.52L521.4,26.34L522.96,24.16L525.23,23.98L526.47,22.17L527.4,21.99L531.77,20.53L532.09,20.35L532.41,19.81L532.96,19.63L533.41,18.9L534.05,18.72L538.23,16.73L538.95,16.54L540,16" style="vector-effect: none; fill: none; stroke: rgb(44, 160, 44); stroke-opacity: 1; stroke-width: 2px; opacity: 1;"/></g><g class="points"/><g class="text"/></g></g></g></g><g class="zerolinelayer-above"/><path class="xlines-above crisp" d="M0,0" style="fill: none;"/><path class="ylines-above crisp" d="M0,0" style="fill: none;"/><g class="overlines-above"/><g class="xaxislayer-above"><g class="xtick"><text text-anchor="middle" x="0" y="439" transform="translate(96.59,0)" style="font-family: 'Open Sans'; font-size: 18px; fill: rgb(255, 255, 255); fill-opacity: 1; white-space: pre;">2016</text></g><g class="xtick"><text text-anchor="middle" x="0" y="439" style="font-family: 'Open Sans'; font-size: 18px; fill: rgb(255, 255, 255); fill-opacity: 1; white-space: pre;" transform="translate(198.18,0)">2018</text></g><g class="xtick"><text text-anchor="middle" x="0" y="439" style="font-family: 'Open Sans'; font-size: 18px; fill: rgb(255, 255, 255); fill-opacity: 1; white-space: pre;" transform="translate(299.63,0)">2020</text></g><g class="xtick"><text text-anchor="middle" x="0" y="439" style="font-family: 'Open Sans'; font-size: 18px; fill: rgb(255, 255, 255); fill-opacity: 1; white-space: pre;" transform="translate(401.21,0)">2022</text></g><g class="xtick"><text text-anchor="middle" x="0" y="439" style="font-family: 'Open Sans'; font-size: 18px; fill: rgb(255, 255, 255); fill-opacity: 1; white-space: pre;" transform="translate(502.66,0)">2024</text></g><g class="xtick"><text text-anchor="middle" x="0" y="439" style="font-family: 'Open Sans'; font-size: 18px; fill: rgb(255, 255, 255); fill-opacity: 1; white-space: pre;" transform="translate(604.25,0)">2026</text></g></g><g class="yaxislayer-above"><g class="ytick"><text text-anchor="end" x="79" y="6.3" transform="translate(0,420)" style="font-family: 'Open Sans'; font-size: 18px; fill: rgb(255, 255, 255); fill-opacity: 1; white-space: pre;">0</text></g><g class="ytick"><text text-anchor="end" x="79" y="6.3" style="font-family: 'Open Sans'; font-size: 18px; fill: rgb(255, 255, 255); fill-opacity: 1; white-space: pre;" transform="translate(0,383.72)">200</text></g><g class="ytick"><text text-anchor="end" x="79" y="6.3" style="font-family: 'Open Sans'; font-size: 18px; fill: rgb(255, 255, 255); fill-opacity: 1; white-space: pre;" transform="translate(0,347.45)">400</text></g><g class="ytick"><text text-anchor="end" x="79" y="6.3" style="font-family: 'Open Sans'; font-size: 18px; fill: rgb(255, 255, 255); fill-opacity: 1; white-space: pre;" transform="translate(0,311.16999999999996)">600</text></g><g class="ytick"><text text-anchor="end" x="79" y="6.3" style="font-family: 'Open Sans'; font-size: 18px; fill: rgb(255, 255, 255); fill-opacity: 1; white-space: pre;" transform="translate(0,274.89)">800</text></g><g class="ytick"><text text-anchor="end" x="79" y="6.3" style="font-family: 'Open Sans'; font-size: 18px; fill: rgb(255, 255, 255); fill-opacity: 1; white-space: pre;" transform="translate(0,238.62)">1000</text></g><g class="ytick"><text text-anchor="end" x="79" y="6.3" style="font-family: 'Open Sans'; font-size: 18px; fill: rgb(255, 255, 255); fill-opacity: 1; white-space: pre;" transform="translate(0,202.34)">1200</text></g><g class="ytick"><text text-anchor="end" x="79" y="6.3" style="font-family: 'Open Sans'; font-size: 18px; fill: rgb(255, 255, 255); fill-opacity: 1; white-space: pre;" transform="translate(0,166.06)">1400</text></g><g class="ytick"><text text-anchor="end" x="79" y="6.3" style="font-family: 'Open Sans'; font-size: 18px; fill: rgb(255, 255, 255); fill-opacity: 1; white-space: pre;" transform="translate(0,129.79)">1600</text></g></g><g class="overaxes-above"/></g></g><g class="polarlayer"/><g class="smithlayer"/><g class="ternarylayer"/><g class="geolayer"/><g class="funnelarealayer"/><g class="pielayer"/><g class="iciclelayer"/><g class="treemaplayer"/><g class="sunburstlayer"/><g class="glimages"/><defs id="topdefs-0e100d"><g class="clips"/></defs><g class="layer-above"><g class="imagelayer"/><g class="shapelayer"/></g><g class="infolayer"><g class="g-gtitle"><text class="gtitle" x="35" y="50" text-anchor="start" dy="0em" style="opacity: 1; font-family: 'Open Sans'; font-size: 25px; fill: rgb(255, 255, 255); fill-opacity: 1; white-space: pre;">MultiQC/MultiQC - Pull Requests Created Over Time</text></g><g class="g-xtitle"><text class="xtitle" x="350" y="472.9" text-anchor="middle" style="opacity: 1; font-family: 'Open Sans'; font-size: 22px; fill: rgb(255, 255, 255); fill-opacity: 1; white-space: pre;">Date</text></g><g class="g-ytitle"><text class="ytitle" transform="rotate(-90,20.799999999999997,260)" x="20.799999999999997" y="260" text-anchor="middle" style="opacity: 1; font-family: 'Open Sans'; font-size: 22px; fill: rgb(255, 255, 255); fill-opacity: 1; white-space: pre;">Cumulative PRs Created</text></g></g></svg>