<svg class="main-svg" xmlns="http://www.w3.org/2000/svg" xmlns:xlink="http://www.w3.org/1999/xlink" width="700" height="500" style="" viewBox="0 0 700 500"><rect x="0" y="0" width="700" height="500" style="fill: rgb(0, 0, 0); fill-opacity: 0;"/><defs id="defs-c7cee1"><g class="clips"><clipPath id="clipc7cee1xyplot" class="plotclip"><rect width="540" height="320"/></clipPath><clipPath class="axesclip" id="clipc7cee1x"><rect x="80" y="0" width="540" height="500"/></clipPath><clipPath class="axesclip" id="clipc7cee1y"><rect x="0" y="100" width="700" height="320"/></clipPath><clipPath class="axesclip" id="clipc7cee1xy"><rect x="80" y="100" width="540" height="320"/></clipPath></g><g class="gradients"/><g class="patterns"/></defs><g class="bglayer"><rect class="bg" x="80" y="100" width="540" height="320" style="fill: rgb(0, 0, 0); fill-opacity: 0; stroke-width: 0;"/></g><g class="layer-below"><g class="imagelayer"/><g class="shapelayer"/></g><g class="cartesianlayer"><g class="subplot xy"><g class="layer-subplot"><g class="shapelayer"/><g class="imagelayer"/></g><g class="minor-gridlayer"><g class="x"/><g class="y"/></g><g class="gridlayer"><g class="x"><path class="xgrid crisp" transform="translate(96.45,0)" d="M0,100v320" style="stroke: rgb(255, 255, 255); stroke-opacity: 1; stroke-width: 1px;"/><path class="xgrid crisp" transform="translate(197.16,0)" d="M0,100v320" style="stroke: rgb(255, 255, 255); stroke-opacity: 1; stroke-width: 1px;"/><path class="xgrid crisp" transform="translate(297.74,0)" d="M0,100v320" style="stroke: rgb(255, 255, 255); stroke-opacity: 1; stroke-width: 1px;"/><path class="xgrid crisp" transform="translate(398.45,0)" d="M0,100v320" style="stroke: rgb(255, 255, 255); stroke-opacity: 1; stroke-width: 1px;"/><path class="xgrid crisp" transform="translate(499.02,0)" d="M0,100v320" style="stroke: rgb(255, 255, 255); stroke-opacity: 1; stroke-width: 1px;"/><path class="xgrid crisp" transform="translate(599.74,0)" d="M0,100v320" style="stroke: rgb(255, 255, 255); stroke-opacity: 1; stroke-width: 1px;"/></g><g class="y"><path class="ygrid crisp" transform="translate(0,372.5)" d="M80,0h540" style="stroke: rgb(255, 255, 255); stroke-opacity: 1; stroke-width: 1px;"/><path class="ygrid crisp" transform="translate(0,325)" d="M80,0h540" style="stroke: rgb(255, 255, 255); stroke-opacity: 1; stroke-width: 1px;"/><path class="ygrid crisp" transform="translate(0,277.5)" d="M80,0h540" style="stroke: rgb(255, 255, 255); stroke-opacity: 1; stroke-width: 1px;"/><path class="ygrid crisp" transform="translate(0,230)" d="M80,0h540" style="stroke: rgb(255, 255, 255); stroke-opacity: 1; stroke-width: 1px;"/><path class="ygrid crisp" transform="translate(0,182.5)" d="M80,0h540" style="stroke: rgb(255, 255, 255); stroke-opacity: 1; stroke-width: 1px;"/><path class="ygrid crisp" transform="translate(0,135)" d="M80,0h540" style="stroke: rgb(255, 255, 255); stroke-opacity: 1; stroke-width: 1px;"/></g></g><g class="zerolinelayer"><path class="yzl zl crisp" transform="translate(0,420)" d="M80,0h540" style="stroke: rgb(255, 255, 255); stroke-opacity: 1; stroke-width: 2px;"/></g><g class="layer-between"><g class="shapelayer"/><g class="imagelayer"/></g><path class="xlines-below"/><path class="ylines-below"/><g class="overlines-below"/><g class="xaxislayer-below"/><g class="yaxislayer-below"/><g class="overaxes-below"/><g class="overplot"><g class="xy" transform="translate(80,100)" clip-path="url(#clipc7cee1xyplot)"><g class="scatterlayer mlayer"><g class="trace scatter trace7e866b" style="stroke-miterlimit: 2;"><g class="fills"><g><path class="js-fill" d="M540,320L0,320L0,317.63L0.1,320L1,317.63L1.66,320L1.77,317.63L1.77,320L2.99,317.63L3.72,320L4.56,317.63L4.56,320L4.65,320L5.36,317.63L5.36,320L5.93,320L6.75,317.63L6.75,320L7.31,320L8.8,317.63L8.8,320L9.42,317.63L9.63,320L11.29,317.63L11.29,320L14.05,317.63L14.05,320L21.22,317.63L21.22,320L21.41,317.63L21.41,320L22.97,317.63L22.97,315.25L23.11,317.63L24.22,320L25.87,317.63L25.87,320L27.15,315.25L27.15,317.63L27.15,320L29.9,317.63L29.9,320L30.04,320L31.24,317.63L31.83,320L32.69,317.63L32.69,320L33.44,317.63L33.45,320L34.17,317.63L34.26,320L36.78,315.25L37.2,317.63L37.32,315.25L37.32,317.63L38.58,320L39.28,317.63L39.28,320L40.94,317.63L40.94,320L41.99,317.63L42.16,320L42.47,310.5L42.57,312.88L43.09,315.25L43.51,317.63L43.94,315.25L43.95,317.63L45.17,315.25L48.9,312.88L48.91,315.25L49.19,317.63L49.96,315.25L50.84,320L52.21,317.63L52.6,320L55.65,317.63L55.65,320L55.65,317.63L57.11,315.25L57.42,317.63L58.18,315.25L58.97,312.88L58.98,315.25L59.52,320L61.31,317.63L61.6,320L62.26,317.63L62.41,315.25L63.35,317.63L63.52,312.88L63.64,315.25L64.45,317.63L64.75,315.25L64.75,317.63L65.28,315.25L65.36,310.5L65.46,320L65.55,320L66.12,317.63L66.94,315.25L66.94,317.63L67.65,312.88L67.66,315.25L68.34,312.88L72.72,310.5L73.18,308.13L74.81,320L75.78,317.63L75.78,320L76.73,317.63L77.89,315.25L77.94,317.63L78.98,312.88L79.38,310.5L79.87,308.13L79.87,310.5L79.89,312.88L81,308.13L81.01,310.5L81.82,308.13L81.82,310.5L82.1,312.88L82.66,310.5L82.66,312.88L82.66,310.5L84.42,312.88L84.59,310.5L84.59,312.88L85.46,310.5L85.69,312.88L86.39,310.5L86.83,308.13L87.58,310.5L88.28,308.13L88.56,310.5L90.76,308.13L90.76,310.5L91.33,308.13L91.36,310.5L92.69,312.88L93.19,310.5L93.38,312.88L93.52,310.5L93.53,312.88L94.51,310.5L94.52,296.25L95.2,308.13L95.46,310.5L95.47,312.88L95.62,308.13L96.01,308.13L96.58,305.75L97.27,308.13L97.44,305.75L97.95,301L98.11,305.75L98.2,308.13L98.81,298.63L98.93,303.38L99.86,305.75L100.28,298.63L100.28,298.63L100.8,301L101.82,289.13L102.75,286.75L103.74,289.13L104.01,286.75L104.71,291.5L104.71,291.5L104.83,289.13L105.13,298.63L105.25,296.25L105.88,293.88L106.37,284.38L106.37,286.75L106.74,289.13L106.78,291.5L107.6,289.13L107.73,286.75L107.74,289.13L108.99,291.5L109.68,301L110.75,298.63L110.75,301L112.83,298.63L112.84,296.25L112.84,301L114.76,298.63L114.78,301L114.78,298.63L115.81,301L115.86,298.63L117.65,296.25L118.61,301L118.75,298.63L118.78,301L119.58,298.63L119.9,301L120.57,298.63L120.6,301L122.18,298.63L122.21,301L124,298.63L124.1,301L124.48,298.63L124.95,296.25L125.07,298.63L125.93,296.25L125.93,298.63L126.33,289.13L126.46,289.13L126.85,286.75L127.18,298.63L127.18,298.63L128.13,296.25L128.42,301L129.09,298.63L130.04,296.25L130.16,293.88L130.71,296.25L130.88,293.88L130.98,291.5L131.68,286.75L131.71,289.13L132.01,286.75L132.23,289.13L132.66,286.75L132.67,284.38L132.67,277.25L132.82,291.5L134.04,289.13L134.15,286.75L134.17,289.13L135.55,286.75L136.3,296.25L137.48,293.88L137.87,296.25L139.42,293.88L140.47,291.5L140.48,293.88L141.76,286.75L141.76,289.13L142.01,291.5L142.03,293.88L142.42,289.13L142.74,291.5L143.7,293.88L143.87,298.63L144.55,296.25L144.64,293.88L146.2,291.5L146.71,284.38L146.73,289.13L146.73,291.5L146.78,296.25L148.52,293.88L148.61,296.25L148.65,293.88L150.19,291.5L150.2,293.88L151.52,291.5L151.52,293.88L151.94,291.5L152.37,289.13L153.04,286.75L153.07,289.13L155.84,291.5L158.78,286.75L159.49,284.38L160.24,286.75L160.93,284.38L160.93,286.75L163.52,284.38L163.97,286.75L164.56,284.38L165.74,282L165.98,284.38L165.98,282L166.01,301L166.02,298.63L168.33,296.25L168.34,298.63L170.61,301L171.67,298.63L171.67,301L172.28,298.63L172.31,301L174.45,298.63L174.6,296.25L175.94,298.63L175.96,301L176.53,282L176.61,284.38L176.61,282L176.64,291.5L178.11,289.13L178.43,282L180.04,279.63L180.52,277.25L180.53,279.63L182.66,277.25L183.13,279.63L184.41,277.25L184.7,279.63L185,277.25L187.11,274.88L190,272.5L190.1,274.88L190.98,272.5L191.65,274.88L191.69,270.13L191.9,272.5L192.76,274.88L193.01,284.38L193.81,286.75L193.88,289.13L193.98,284.38L197.3,282L197.85,284.38L198.51,282L198.65,279.63L200.73,277.25L203.6,274.88L205.13,272.5L205.15,270.13L206.42,267.75L207.18,270.13L207.2,267.75L207.49,284.38L207.5,282L208.45,284.38L208.86,286.75L208.87,284.38L209.98,286.75L210.43,291.5L210.79,289.13L210.81,291.5L211.32,284.38L211.36,289.13L211.9,291.5L211.94,293.88L212.81,291.5L213.95,289.13L213.96,291.5L215.88,286.75L216.16,284.38L218.44,282L219.53,284.38L221.07,282L221.53,279.63L223.77,274.88L223.78,277.25L224.6,270.13L226.37,267.75L227.16,258.25L227.44,255.88L228.2,253.5L228.24,255.88L230.42,239.25L230.49,241.63L230.5,244L230.65,236.88L231.22,239.25L231.32,236.88L232.57,234.5L232.72,232.13L232.98,241.63L232.98,244L233.15,255.88L233.42,251.13L233.9,248.75L234.91,289.13L235.14,286.75L235.31,284.38L235.33,282L235.91,289.13L236,286.75L236.18,284.38L237.08,291.5L237.09,289.13L237.09,286.75L237.81,296.25L238.04,293.88L238.04,296.25L238.24,286.75L238.77,293.88L239.01,291.5L239.01,293.88L239.3,291.5L239.97,289.13L240,286.75L240.79,289.13L241.27,284.38L241.89,282L243.56,274.88L243.56,277.25L244.98,270.13L245.9,272.5L249.42,270.13L249.51,267.75L249.76,265.38L250.06,267.75L251.6,265.38L252.51,260.63L252.85,258.25L253.22,255.88L254.77,253.5L255.19,246.38L255.39,253.5L255.39,255.88L256.57,244L258.57,241.63L258.64,236.88L259.63,234.5L261.22,229.75L261.26,232.13L261.27,248.75L261.88,239.25L262.16,236.88L262.16,239.25L262.29,236.88L264.36,234.5L266,232.13L266.19,229.75L267.88,227.38L267.89,229.75L267.89,227.38L267.89,229.75L268.82,227.38L269,225L269.66,227.38L270.58,236.88L270.78,239.25L272.27,236.88L272.78,239.25L274.11,234.5L274.79,232.13L274.79,234.5L275.56,232.13L275.67,227.38L276.78,229.75L277.33,258.25L279.81,255.88L280.28,258.25L280.65,255.88L280.67,258.25L283.4,255.88L284.08,260.63L284.11,258.25L284.22,255.88L284.22,258.25L284.47,258.25L285.13,260.63L285.31,255.88L285.31,258.25L287.59,255.88L287.6,253.5L288.36,251.13L290.32,248.75L290.83,246.38L290.98,239.25L291.02,251.13L291.37,246.38L291.81,248.75L292.27,253.5L292.48,251.13L292.73,248.75L293.51,279.63L293.73,277.25L294.68,270.13L295.28,267.75L296.25,255.88L297.18,253.5L298.15,248.75L298.21,246.38L299.62,236.88L299.63,234.5L299.94,217.88L302.07,215.5L303.92,213.13L303.92,210.75L307.2,213.13L307.27,210.75L308.89,206L309.46,203.63L310.84,196.5L310.84,194.13L310.98,189.38L311.36,239.25L311.66,236.88L312.09,234.5L312.11,241.63L312.35,239.25L312.5,236.88L313.49,225L313.6,227.38L315.87,225L316.36,222.63L316.64,225L317.57,222.63L317.94,225L319.07,222.63L320.47,225L320.5,232.13L321.13,229.75L321.82,232.13L322.24,246.38L322.65,248.75L322.78,246.38L323.07,253.5L323.27,251.13L323.64,253.5L324.73,246.38L324.98,244L325.84,241.63L325.87,239.25L326.68,234.5L326.92,236.88L327.51,239.25L327.9,236.88L327.9,239.25L328.59,236.88L328.86,239.25L328.86,244L329.41,241.63L330.7,239.25L330.9,234.5L331.34,244L331.89,241.63L332.94,232.13L332.96,234.5L335.93,232.13L336.31,234.5L337.64,232.13L338.07,229.75L338.81,234.5L339.08,232.13L339.16,236.88L339.89,234.5L340.96,227.38L340.96,229.75L341.39,225L341.94,222.63L342.36,227.38L342.37,222.63L342.89,225L342.89,222.63L343.46,225L344.16,222.63L344.3,225L344.95,222.63L346.08,217.88L346.08,215.5L346.14,220.25L346.89,217.88L347.73,213.13L348.8,210.75L349.93,196.5L350.05,198.88L351.71,196.5L351.98,194.13L353.02,191.75L353.02,194.13L353.16,208.38L353.16,210.75L353.16,213.13L353.16,208.38L353.28,213.13L354.7,210.75L355.6,208.38L355.61,210.75L357.39,208.38L357.39,210.75L357.8,208.38L360.15,206L360.15,208.38L360.8,208.38L361.38,206L362.11,196.5L362.18,198.88L363.32,196.5L363.42,191.75L363.84,206L364.2,203.63L364.42,206L365.35,203.63L366.15,194.13L366.36,191.75L366.93,203.63L367.03,196.5L367.21,194.13L367.9,208.38L368.13,206L368.94,229.75L369.01,227.38L369.7,241.63L370.07,239.25L370.84,241.63L373.2,239.25L373.8,232.13L373.82,234.5L374.05,236.88L377.49,234.5L377.51,236.88L378.2,232.13L379.08,234.5L380.16,232.13L381.06,229.75L381.06,232.13L382.85,229.75L382.98,225L383.97,227.38L384.5,220.25L384.51,217.88L384.52,210.75L388.15,213.13L389.19,203.63L391.24,201.25L391.72,196.5L391.72,198.88L391.73,201.25L393.75,196.5L394.19,194.13L396.87,189.38L397.05,187L397.61,184.63L397.61,187L397.78,189.38L398.36,201.25L398.48,198.88L399.07,196.5L399.11,198.88L399.42,187L399.81,184.63L399.99,177.5L400.18,187L400.19,189.38L400.19,191.75L400.93,179.88L401.06,177.5L401.79,194.13L401.84,191.75L402.13,189.38L402.15,198.88L402.58,191.75L402.61,194.13L402.71,198.88L403.01,194.13L403.66,191.75L403.72,189.38L404.14,203.63L404.14,201.25L404.54,198.88L405.02,182.25L405.2,208.38L405.5,206L405.93,191.75L406.07,201.25L406.07,203.63L406.12,208.38L406.67,201.25L406.71,203.63L407.29,201.25L407.43,208.38L407.98,196.5L408.05,194.13L408.11,196.5L408.47,182.25L408.48,179.88L408.51,172.75L408.64,213.13L408.94,203.63L409.34,201.25L409.75,196.5L409.98,203.63L410.02,201.25L410.4,198.88L411.04,206L411.37,208.38L411.66,210.75L411.98,201.25L412.33,203.63L412.48,215.5L412.93,213.13L413.32,210.75L413.97,222.63L414.54,220.25L414.88,222.63L415.25,213.13L415.26,210.75L415.49,203.63L416.19,206L416.33,217.88L416.63,201.25L416.78,206L416.95,208.38L417.16,206L417.32,213.13L418.45,210.75L418.58,215.5L418.74,210.75L419.38,208.38L419.53,210.75L419.71,206L420.04,203.63L420.07,210.75L420.46,206L421.14,203.63L421.63,201.25L421.63,203.63L421.64,206L422.15,201.25L422.15,198.88L422.16,196.5L422.19,206L422.33,198.88L423.15,196.5L423.38,189.38L423.5,198.88L423.57,201.25L424.26,220.25L424.52,215.5L424.52,213.13L424.87,210.75L424.87,215.5L424.87,217.88L424.87,215.5L424.87,222.63L425.45,220.25L425.67,217.88L425.91,220.25L426.15,210.75L426.27,213.13L426.29,210.75L426.72,227.38L427.02,215.5L427.07,213.13L427.07,210.75L427.09,227.38L427.77,215.5L427.91,213.13L428.04,217.88L428.37,206L428.63,208.38L429.15,229.75L429.31,227.38L429.72,229.75L430.14,217.88L430.43,220.25L430.66,217.88L430.67,220.25L431.1,215.5L431.1,215.5L432.18,213.13L432.76,208.38L432.76,210.75L433.54,208.38L433.59,206L433.61,225L434.01,222.63L434.53,225L434.65,227.38L434.8,215.5L434.81,213.13L435.21,208.38L435.25,213.13L435.46,215.5L435.48,213.13L436.18,229.75L436.18,227.38L436.46,229.75L436.77,222.63L437.04,227.38L437.34,229.75L437.69,232.13L437.99,222.63L438.01,225L438.4,222.63L439.45,215.5L439.78,217.88L439.8,215.5L439.93,225L440.35,225L440.63,222.63L440.65,225L440.91,220.25L441.15,225L441.44,222.63L441.74,232.13L441.99,227.38L442.29,229.75L442.94,225L442.94,227.38L443.17,225L443.34,217.88L443.35,227.38L443.52,222.63L444.21,225L444.21,222.63L444.73,232.13L445.13,229.75L445.42,227.38L445.43,232.13L445.7,229.75L445.98,227.38L446.63,225L446.63,227.38L446.79,229.75L446.81,227.38L446.94,239.25L447.32,236.88L447.46,239.25L447.61,232.13L448.19,236.88L448.3,239.25L448.98,227.38L448.99,236.88L448.99,239.25L448.99,236.88L449.13,241.63L449.69,239.25L449.94,236.88L449.94,241.63L450.67,239.25L450.78,241.63L450.8,246.38L451.48,241.63L452.29,239.25L452.42,241.63L453.05,239.25L453.2,234.5L453.25,246.38L453.28,246.38L453.28,248.75L453.96,239.25L453.97,246.38L453.97,248.75L454.64,244L454.67,246.38L454.75,248.75L455.06,241.63L455.06,244L455.6,241.63L455.6,244L456.31,234.5L456.33,236.88L456.58,239.25L456.9,244L457.11,236.88L457.7,234.5L457.97,239.25L457.99,236.88L458.91,234.5L458.91,236.88L459.49,232.13L459.64,232.13L460.14,229.75L460.58,225L460.85,229.75L460.97,227.38L460.99,225L461.87,227.38L462.48,225L462.77,234.5L462.8,232.13L463.49,239.25L463.73,236.88L463.73,234.5L463.75,236.88L464.44,225L464.44,234.5L464.48,232.13L465.38,229.75L465.38,232.13L465.93,227.38L465.94,225L466.69,239.25L466.76,241.63L467.48,234.5L467.5,241.63L467.5,244L467.5,241.63L468.01,248.75L468.75,246.38L469.14,248.75L469.17,246.38L469.8,244L470.34,248.75L471.09,246.38L471.52,241.63L471.91,244L471.99,246.38L472.34,241.63L472.4,246.38L472.41,248.75L473.15,244L473.15,246.38L473.25,244L473.57,239.25L473.57,241.63L474.24,244L474.37,239.25L474.84,244L475.68,241.63L476.52,239.25L476.52,241.63L476.52,239.25L476.56,244L477.1,244L477.95,241.63L478.06,236.88L478.07,244L478.21,239.25L479.02,241.63L479.59,232.13L479.91,229.75L480.41,232.13L480.58,229.75L480.58,227.38L481.2,217.88L481.21,232.13L481.3,229.75L481.54,227.38L481.82,225L481.82,229.75L481.82,232.13L482.4,229.75L482.63,232.13L482.74,229.75L483.05,236.88L483.68,239.25L484.15,234.5L484.27,239.25L484.27,241.63L484.27,239.25L484.65,246.38L484.93,246.38L485.08,244L485.67,241.63L485.76,244L485.78,246.38L485.97,239.25L486.11,241.63L486.74,239.25L487.56,246.38L487.6,244L487.84,246.38L488.26,241.63L488.52,244L488.84,236.88L488.92,241.63L489.68,239.25L490.05,244L490.12,236.88L490.46,234.5L491.01,229.75L491.13,241.63L491.15,241.63L491.47,239.25L493.02,227.38L493.41,229.75L493.41,232.13L494.34,229.75L494.59,234.5L495.02,225L495.07,232.13L495.15,229.75L495.55,232.13L495.85,229.75L497.21,227.38L498.35,217.88L498.45,220.25L498.45,222.63L498.45,225L498.61,217.88L498.65,217.88L500.81,220.25L501.2,215.5L501.22,232.13L501.49,232.13L501.5,234.5L502.32,227.38L502.32,229.75L502.59,232.13L503.28,217.88L503.33,220.25L503.43,222.63L503.53,220.25L503.97,227.38L504.12,220.25L504.54,217.88L505.06,213.13L505.06,215.5L505.09,217.88L505.24,213.13L505.25,217.88L507.11,215.5L507.11,217.88L508.85,215.5L510.36,203.63L510.41,201.25L510.42,198.88L510.42,206L510.86,203.63L511.19,201.25L512.68,196.5L512.91,194.13L512.91,196.5L513.38,189.38L514.5,187L515.14,177.5L515.15,175.13L515.15,177.5L515.72,163.25L515.82,163.25L516.08,160.88L516.08,163.25L516.52,151.38L516.8,151.38L516.91,149L516.91,151.38L517.64,144.25L517.72,146.63L518.46,134.75L520.71,132.38L521.94,115.75L522.86,113.38L524.52,108.63L526.29,106.25L526.87,96.75L527.2,94.38L528.57,80.13L528.82,77.75L530.22,73L530.44,70.63L531.3,63.5L531.7,61.13L532.93,58.75L532.94,56.38L534.31,51.63L534.93,49.25L534.93,51.63L535.36,51.63L535.79,49.25L536.95,44.5L537.23,42.13L537.23,44.5L537.83,32.63L537.98,39.75L538,37.38L538.06,39.75L538.18,37.38L538.75,35L538.75,37.38L539.14,18.38L540,16" style="fill: rgb(44, 160, 44); fill-opacity: 0.5; stroke-width: 0;"/></g></g><g class="errorbars"/><g class="lines"><path class="js-line" d="M0,317.63L0.1,320L1,317.63L1.66,320L1.77,317.63L1.77,320L2.99,317.63L3.72,320L4.56,317.63L4.56,320L4.65,320L5.36,317.63L5.36,320L5.93,320L6.75,317.63L6.75,320L7.31,320L8.8,317.63L8.8,320L9.42,317.63L9.63,320L11.29,317.63L11.29,320L14.05,317.63L14.05,320L21.22,317.63L21.22,320L21.41,317.63L21.41,320L22.97,317.63L22.97,315.25L23.11,317.63L24.22,320L25.87,317.63L25.87,320L27.15,315.25L27.15,317.63L27.15,320L29.9,317.63L29.9,320L30.04,320L31.24,317.63L31.83,320L32.69,317.63L32.69,320L33.44,317.63L33.45,320L34.17,317.63L34.26,320L36.78,315.25L37.2,317.63L37.32,315.25L37.32,317.63L38.58,320L39.28,317.63L39.28,320L40.94,317.63L40.94,320L41.99,317.63L42.16,320L42.47,310.5L42.57,312.88L43.09,315.25L43.51,317.63L43.94,315.25L43.95,317.63L45.17,315.25L48.9,312.88L48.91,315.25L49.19,317.63L49.96,315.25L50.84,320L52.21,317.63L52.6,320L55.65,317.63L55.65,320L55.65,317.63L57.11,315.25L57.42,317.63L58.18,315.25L58.97,312.88L58.98,315.25L59.52,320L61.31,317.63L61.6,320L62.26,317.63L62.41,315.25L63.35,317.63L63.52,312.88L63.64,315.25L64.45,317.63L64.75,315.25L64.75,317.63L65.28,315.25L65.36,310.5L65.46,320L65.55,320L66.12,317.63L66.94,315.25L66.94,317.63L67.65,312.88L67.66,315.25L68.34,312.88L72.72,310.5L73.18,308.13L74.81,320L75.78,317.63L75.78,320L76.73,317.63L77.89,315.25L77.94,317.63L78.98,312.88L79.38,310.5L79.87,308.13L79.87,310.5L79.89,312.88L81,308.13L81.01,310.5L81.82,308.13L81.82,310.5L82.1,312.88L82.66,310.5L82.66,312.88L82.66,310.5L84.42,312.88L84.59,310.5L84.59,312.88L85.46,310.5L85.69,312.88L86.39,310.5L86.83,308.13L87.58,310.5L88.28,308.13L88.56,310.5L90.76,308.13L90.76,310.5L91.33,308.13L91.36,310.5L92.69,312.88L93.19,310.5L93.38,312.88L93.52,310.5L93.53,312.88L94.51,310.5L94.52,296.25L95.2,308.13L95.46,310.5L95.47,312.88L95.62,308.13L96.01,308.13L96.58,305.75L97.27,308.13L97.44,305.75L97.95,301L98.11,305.75L98.2,308.13L98.81,298.63L98.93,303.38L99.86,305.75L100.28,298.63L100.28,298.63L100.8,301L101.82,289.13L102.75,286.75L103.74,289.13L104.01,286.75L104.71,291.5L104.71,291.5L104.83,289.13L105.13,298.63L105.25,296.25L105.88,293.88L106.37,284.38L106.37,286.75L106.74,289.13L106.78,291.5L107.6,289.13L107.73,286.75L107.74,289.13L108.99,291.5L109.68,301L110.75,298.63L110.75,301L112.83,298.63L112.84,296.25L112.84,301L114.76,298.63L114.78,301L114.78,298.63L115.81,301L115.86,298.63L117.65,296.25L118.61,301L118.75,298.63L118.78,301L119.58,298.63L119.9,301L120.57,298.63L120.6,301L122.18,298.63L122.21,301L124,298.63L124.1,301L124.48,298.63L124.95,296.25L125.07,298.63L125.93,296.25L125.93,298.63L126.33,289.13L126.46,289.13L126.85,286.75L127.18,298.63L127.18,298.63L128.13,296.25L128.42,301L129.09,298.63L130.04,296.25L130.16,293.88L130.71,296.25L130.88,293.88L130.98,291.5L131.68,286.75L131.71,289.13L132.01,286.75L132.23,289.13L132.66,286.75L132.67,284.38L132.67,277.25L132.82,291.5L134.04,289.13L134.15,286.75L134.17,289.13L135.55,286.75L136.3,296.25L137.48,293.88L137.87,296.25L139.42,293.88L140.47,291.5L140.48,293.88L141.76,286.75L141.76,289.13L142.01,291.5L142.03,293.88L142.42,289.13L142.74,291.5L143.7,293.88L143.87,298.63L144.55,296.25L144.64,293.88L146.2,291.5L146.71,284.38L146.73,289.13L146.73,291.5L146.78,296.25L148.52,293.88L148.61,296.25L148.65,293.88L150.19,291.5L150.2,293.88L151.52,291.5L151.52,293.88L151.94,291.5L152.37,289.13L153.04,286.75L153.07,289.13L155.84,291.5L158.78,286.75L159.49,284.38L160.24,286.75L160.93,284.38L160.93,286.75L163.52,284.38L163.97,286.75L164.56,284.38L165.74,282L165.98,284.38L165.98,282L166.01,301L166.02,298.63L168.33,296.25L168.34,298.63L170.61,301L171.67,298.63L171.67,301L172.28,298.63L172.31,301L174.45,298.63L174.6,296.25L175.94,298.63L175.96,301L176.53,282L176.61,284.38L176.61,282L176.64,291.5L178.11,289.13L178.43,282L180.04,279.63L180.52,277.25L180.53,279.63L182.66,277.25L183.13,279.63L184.41,277.25L184.7,279.63L185,277.25L187.11,274.88L190,272.5L190.1,274.88L190.98,272.5L191.65,274.88L191.69,270.13L191.9,272.5L192.76,274.88L193.01,284.38L193.81,286.75L193.88,289.13L193.98,284.38L197.3,282L197.85,284.38L198.51,282L198.65,279.63L200.73,277.25L203.6,274.88L205.13,272.5L205.15,270.13L206.42,267.75L207.18,270.13L207.2,267.75L207.49,284.38L207.5,282L208.45,284.38L208.86,286.75L208.87,284.38L209.98,286.75L210.43,291.5L210.79,289.13L210.81,291.5L211.32,284.38L211.36,289.13L211.9,291.5L211.94,293.88L212.81,291.5L213.95,289.13L213.96,291.5L215.88,286.75L216.16,284.38L218.44,282L219.53,284.38L221.07,282L221.53,279.63L223.77,274.88L223.78,277.25L224.6,270.13L226.37,267.75L227.16,258.25L227.44,255.88L228.2,253.5L228.24,255.88L230.42,239.25L230.49,241.63L230.5,244L230.65,236.88L231.22,239.25L231.32,236.88L232.57,234.5L232.72,232.13L232.98,241.63L232.98,244L233.15,255.88L233.42,251.13L233.9,248.75L234.91,289.13L235.14,286.75L235.31,284.38L235.33,282L235.91,289.13L236,286.75L236.18,284.38L237.08,291.5L237.09,289.13L237.09,286.75L237.81,296.25L238.04,293.88L238.04,296.25L238.24,286.75L238.77,293.88L239.01,291.5L239.01,293.88L239.3,291.5L239.97,289.13L240,286.75L240.79,289.13L241.27,284.38L241.89,282L243.56,274.88L243.56,277.25L244.98,270.13L245.9,272.5L249.42,270.13L249.51,267.75L249.76,265.38L250.06,267.75L251.6,265.38L252.51,260.63L252.85,258.25L253.22,255.88L254.77,253.5L255.19,246.38L255.39,253.5L255.39,255.88L256.57,244L258.57,241.63L258.64,236.88L259.63,234.5L261.22,229.75L261.26,232.13L261.27,248.75L261.88,239.25L262.16,236.88L262.16,239.25L262.29,236.88L264.36,234.5L266,232.13L266.19,229.75L267.88,227.38L267.89,229.75L267.89,227.38L267.89,229.75L268.82,227.38L269,225L269.66,227.38L270.58,236.88L270.78,239.25L272.27,236.88L272.78,239.25L274.11,234.5L274.79,232.13L274.79,234.5L275.56,232.13L275.67,227.38L276.78,229.75L277.33,258.25L279.81,255.88L280.28,258.25L280.65,255.88L280.67,258.25L283.4,255.88L284.08,260.63L284.11,258.25L284.22,255.88L284.22,258.25L284.47,258.25L285.13,260.63L285.31,255.88L285.31,258.25L287.59,255.88L287.6,253.5L288.36,251.13L290.32,248.75L290.83,246.38L290.98,239.25L291.02,251.13L291.37,246.38L291.81,248.75L292.27,253.5L292.48,251.13L292.73,248.75L293.51,279.63L293.73,277.25L294.68,270.13L295.28,267.75L296.25,255.88L297.18,253.5L298.15,248.75L298.21,246.38L299.62,236.88L299.63,234.5L299.94,217.88L302.07,215.5L303.92,213.13L303.92,210.75L307.2,213.13L307.27,210.75L308.89,206L309.46,203.63L310.84,196.5L310.84,194.13L310.98,189.38L311.36,239.25L311.66,236.88L312.09,234.5L312.11,241.63L312.35,239.25L312.5,236.88L313.49,225L313.6,227.38L315.87,225L316.36,222.63L316.64,225L317.57,222.63L317.94,225L319.07,222.63L320.47,225L320.5,232.13L321.13,229.75L321.82,232.13L322.24,246.38L322.65,248.75L322.78,246.38L323.07,253.5L323.27,251.13L323.64,253.5L324.73,246.38L324.98,244L325.84,241.63L325.87,239.25L326.68,234.5L326.92,236.88L327.51,239.25L327.9,236.88L327.9,239.25L328.59,236.88L328.86,239.25L328.86,244L329.41,241.63L330.7,239.25L330.9,234.5L331.34,244L331.89,241.63L332.94,232.13L332.96,234.5L335.93,232.13L336.31,234.5L337.64,232.13L338.07,229.75L338.81,234.5L339.08,232.13L339.16,236.88L339.89,234.5L340.96,227.38L340.96,229.75L341.39,225L341.94,222.63L342.36,227.38L342.37,222.63L342.89,225L342.89,222.63L343.46,225L344.16,222.63L344.3,225L344.95,222.63L346.08,217.88L346.08,215.5L346.14,220.25L346.89,217.88L347.73,213.13L348.8,210.75L349.93,196.5L350.05,198.88L351.71,196.5L351.98,194.13L353.02,191.75L353.02,194.13L353.16,208.38L353.16,210.75L353.16,213.13L353.16,208.38L353.28,213.13L354.7,210.75L355.6,208.38L355.61,210.75L357.39,208.38L357.39,210.75L357.8,208.38L360.15,206L360.15,208.38L360.8,208.38L361.38,206L362.11,196.5L362.18,198.88L363.32,196.5L363.42,191.75L363.84,206L364.2,203.63L364.42,206L365.35,203.63L366.15,194.13L366.36,191.75L366.93,203.63L367.03,196.5L367.21,194.13L367.9,208.38L368.13,206L368.94,229.75L369.01,227.38L369.7,241.63L370.07,239.25L370.84,241.63L373.2,239.25L373.8,232.13L373.82,234.5L374.05,236.88L377.49,234.5L377.51,236.88L378.2,232.13L379.08,234.5L380.16,232.13L381.06,229.75L381.06,232.13L382.85,229.75L382.98,225L383.97,227.38L384.5,220.25L384.51,217.88L384.52,210.75L388.15,213.13L389.19,203.63L391.24,201.25L391.72,196.5L391.72,198.88L391.73,201.25L393.75,196.5L394.19,194.13L396.87,189.38L397.05,187L397.61,184.63L397.61,187L397.78,189.38L398.36,201.25L398.48,198.88L399.07,196.5L399.11,198.88L399.42,187L399.81,184.63L399.99,177.5L400.18,187L400.19,189.38L400.19,191.75L400.93,179.88L401.06,177.5L401.79,194.13L401.84,191.75L402.13,189.38L402.15,198.88L402.58,191.75L402.61,194.13L402.71,198.88L403.01,194.13L403.66,191.75L403.72,189.38L404.14,203.63L404.14,201.25L404.54,198.88L405.02,182.25L405.2,208.38L405.5,206L405.93,191.75L406.07,201.25L406.07,203.63L406.12,208.38L406.67,201.25L406.71,203.63L407.29,201.25L407.43,208.38L407.98,196.5L408.05,194.13L408.11,196.5L408.47,182.25L408.48,179.88L408.51,172.75L408.64,213.13L408.94,203.63L409.34,201.25L409.75,196.5L409.98,203.63L410.02,201.25L410.4,198.88L411.04,206L411.37,208.38L411.66,210.75L411.98,201.25L412.33,203.63L412.48,215.5L412.93,213.13L413.32,210.75L413.97,222.63L414.54,220.25L414.88,222.63L415.25,213.13L415.26,210.75L415.49,203.63L416.19,206L416.33,217.88L416.63,201.25L416.78,206L416.95,208.38L417.16,206L417.32,213.13L418.45,210.75L418.58,215.5L418.74,210.75L419.38,208.38L419.53,210.75L419.71,206L420.04,203.63L420.07,210.75L420.46,206L421.14,203.63L421.63,201.25L421.63,203.63L421.64,206L422.15,201.25L422.15,198.88L422.16,196.5L422.19,206L422.33,198.88L423.15,196.5L423.38,189.38L423.5,198.88L423.57,201.25L424.26,220.25L424.52,215.5L424.52,213.13L424.87,210.75L424.87,215.5L424.87,217.88L424.87,215.5L424.87,222.63L425.45,220.25L425.67,217.88L425.91,220.25L426.15,210.75L426.27,213.13L426.29,210.75L426.72,227.38L427.02,215.5L427.07,213.13L427.07,210.75L427.09,227.38L427.77,215.5L427.91,213.13L428.04,217.88L428.37,206L428.63,208.38L429.15,229.75L429.31,227.38L429.72,229.75L430.14,217.88L430.43,220.25L430.66,217.88L430.67,220.25L431.1,215.5L431.1,215.5L432.18,213.13L432.76,208.38L432.76,210.75L433.54,208.38L433.59,206L433.61,225L434.01,222.63L434.53,225L434.65,227.38L434.8,215.5L434.81,213.13L435.21,208.38L435.25,213.13L435.46,215.5L435.48,213.13L436.18,229.75L436.18,227.38L436.46,229.75L436.77,222.63L437.04,227.38L437.34,229.75L437.69,232.13L437.99,222.63L438.01,225L438.4,222.63L439.45,215.5L439.78,217.88L439.8,215.5L439.93,225L440.35,225L440.63,222.63L440.65,225L440.91,220.25L441.15,225L441.44,222.63L441.74,232.13L441.99,227.38L442.29,229.75L442.94,225L442.94,227.38L443.17,225L443.34,217.88L443.35,227.38L443.52,222.63L444.21,225L444.21,222.63L444.73,232.13L445.13,229.75L445.42,227.38L445.43,232.13L445.7,229.75L445.98,227.38L446.63,225L446.63,227.38L446.79,229.75L446.81,227.38L446.94,239.25L447.32,236.88L447.46,239.25L447.61,232.13L448.19,236.88L448.3,239.25L448.98,227.38L448.99,236.88L448.99,239.25L448.99,236.88L449.13,241.63L449.69,239.25L449.94,236.88L449.94,241.63L450.67,239.25L450.78,241.63L450.8,246.38L451.48,241.63L452.29,239.25L452.42,241.63L453.05,239.25L453.2,234.5L453.25,246.38L453.28,246.38L453.28,248.75L453.96,239.25L453.97,246.38L453.97,248.75L454.64,244L454.67,246.38L454.75,248.75L455.06,241.63L455.06,244L455.6,241.63L455.6,244L456.31,234.5L456.33,236.88L456.58,239.25L456.9,244L457.11,236.88L457.7,234.5L457.97,239.25L457.99,236.88L458.91,234.5L458.91,236.88L459.49,232.13L459.64,232.13L460.14,229.75L460.58,225L460.85,229.75L460.97,227.38L460.99,225L461.87,227.38L462.48,225L462.77,234.5L462.8,232.13L463.49,239.25L463.73,236.88L463.73,234.5L463.75,236.88L464.44,225L464.44,234.5L464.48,232.13L465.38,229.75L465.38,232.13L465.93,227.38L465.94,225L466.69,239.25L466.76,241.63L467.48,234.5L467.5,241.63L467.5,244L467.5,241.63L468.01,248.75L468.75,246.38L469.14,248.75L469.17,246.38L469.8,244L470.34,248.75L471.09,246.38L471.52,241.63L471.91,244L471.99,246.38L472.34,241.63L472.4,246.38L472.41,248.75L473.15,244L473.15,246.38L473.25,244L473.57,239.25L473.57,241.63L474.24,244L474.37,239.25L474.84,244L475.68,241.63L476.52,239.25L476.52,241.63L476.52,239.25L476.56,244L477.1,244L477.95,241.63L478.06,236.88L478.07,244L478.21,239.25L479.02,241.63L479.59,232.13L479.91,229.75L480.41,232.13L480.58,229.75L480.58,227.38L481.2,217.88L481.21,232.13L481.3,229.75L481.54,227.38L481.82,225L481.82,229.75L481.82,232.13L482.4,229.75L482.63,232.13L482.74,229.75L483.05,236.88L483.68,239.25L484.15,234.5L484.27,239.25L484.27,241.63L484.27,239.25L484.65,246.38L484.93,246.38L485.08,244L485.67,241.63L485.76,244L485.78,246.38L485.97,239.25L486.11,241.63L486.74,239.25L487.56,246.38L487.6,244L487.84,246.38L488.26,241.63L488.52,244L488.84,236.88L488.92,241.63L489.68,239.25L490.05,244L490.12,236.88L490.46,234.5L491.01,229.75L491.13,241.63L491.15,241.63L491.47,239.25L493.02,227.38L493.41,229.75L493.41,232.13L494.34,229.75L494.59,234.5L495.02,225L495.07,232.13L495.15,229.75L495.55,232.13L495.85,229.75L497.21,227.38L498.35,217.88L498.45,220.25L498.45,222.63L498.45,225L498.61,217.88L498.65,217.88L500.81,220.25L501.2,215.5L501.22,232.13L501.49,232.13L501.5,234.5L502.32,227.38L502.32,229.75L502.59,232.13L503.28,217.88L503.33,220.25L503.43,222.63L503.53,220.25L503.97,227.38L504.12,220.25L504.54,217.88L505.06,213.13L505.06,215.5L505.09,217.88L505.24,213.13L505.25,217.88L507.11,215.5L507.11,217.88L508.85,215.5L510.36,203.63L510.41,201.25L510.42,198.88L510.42,206L510.86,203.63L511.19,201.25L512.68,196.5L512.91,194.13L512.91,196.5L513.38,189.38L514.5,187L515.14,177.5L515.15,175.13L515.15,177.5L515.72,163.25L515.82,163.25L516.08,160.88L516.08,163.25L516.52,151.38L516.8,151.38L516.91,149L516.91,151.38L517.64,144.25L517.72,146.63L518.46,134.75L520.71,132.38L521.94,115.75L522.86,113.38L524.52,108.63L526.29,106.25L526.87,96.75L527.2,94.38L528.57,80.13L528.82,77.75L530.22,73L530.44,70.63L531.3,63.5L531.7,61.13L532.93,58.75L532.94,56.38L534.31,51.63L534.93,49.25L534.93,51.63L535.36,51.63L535.79,49.25L536.95,44.5L537.23,42.13L537.23,44.5L537.83,32.63L537.98,39.75L538,37.38L538.06,39.75L538.18,37.38L538.75,35L538.75,37.38L539.14,18.38L540,16" style="vector-effect: none; fill: none; stroke: rgb(44, 160, 44); stroke-opacity: 1; stroke-width: 2px; opacity: 1;"/></g><g class="points"/><g class="text"/></g></g></g></g><g class="zerolinelayer-above"/><path class="xlines-above crisp" d="M0,0" style="fill: none;"/><path class="ylines-above crisp" d="M0,0" style="fill: none;"/><g class="overlines-above"/><g class="xaxislayer-above"><g class="xtick"><text text-anchor="middle" x="0" y="439" transform="translate(96.45,0)" style="font-family: 'Open Sans'; font-size: 18px; fill: rgb(0, 0, 0); fill-opacity: 1; white-space: pre;">2016</text></g><g class="xtick"><text text-anchor="middle" x="0" y="439" style="font-family: 'Open Sans'; font-size: 18px; fill: rgb(0, 0, 0); fill-opacity: 1; white-space: pre;" transform="translate(197.16,0)">2018</text></g><g class="xtick"><text text-anchor="middle" x="0" y="439" style="font-family: 'Open Sans'; font-size: 18px; fill: rgb(0, 0, 0); fill-opacity: 1; white-space: pre;" transform="translate(297.74,0)">2020</text></g><g class="xtick"><text text-anchor="middle" x="0" y="439" style="font-family: 'Open Sans'; font-size: 18px; fill: rgb(0, 0, 0); fill-opacity: 1; white-space: pre;" transform="translate(398.45,0)">2022</text></g><g class="xtick"><text text-anchor="middle" x="0" y="439" style="font-family: 'Open Sans'; font-size: 18px; fill: rgb(0, 0, 0); fill-opacity: 1; white-space: pre;" transform="translate(499.02,0)">2024</text></g><g class="xtick"><text text-anchor="middle" x="0" y="439" style="font-family: 'Open Sans'; font-size: 18px; fill: rgb(0, 0, 0); fill-opacity: 1; white-space: pre;" transform="translate(599.74,0)">2026</text></g></g><g class="yaxislayer-above"><g class="ytick"><text text-anchor="end" x="79" y="6.3" transform="translate(0,420)" style="font-family: 'Open Sans'; font-size: 18px; fill: rgb(0, 0, 0); fill-opacity: 1; white-space: pre;">0</text></g><g class="ytick"><text text-anchor="end" x="79" y="6.3" style="font-family: 'Open Sans'; font-size: 18px; fill: rgb(0, 0, 0); fill-opacity: 1; white-space: pre;" transform="translate(0,372.5)">20</text></g><g class="ytick"><text text-anchor="end" x="79" y="6.3" style="font-family: 'Open Sans'; font-size: 18px; fill: rgb(0, 0, 0); fill-opacity: 1; white-space: pre;" transform="translate(0,325)">40</text></g><g class="ytick"><text text-anchor="end" x="79" y="6.3" style="font-family: 'Open Sans'; font-size: 18px; fill: rgb(0, 0, 0); fill-opacity: 1; white-space: pre;" transform="translate(0,277.5)">60</text></g><g class="ytick"><text text-anchor="end" x="79" y="6.3" style="font-family: 'Open Sans'; font-size: 18px; fill: rgb(0, 0, 0); fill-opacity: 1; white-space: pre;" transform="translate(0,230)">80</text></g><g class="ytick"><text text-anchor="end" x="79" y="6.3" style="font-family: 'Open Sans'; font-size: 18px; fill: rgb(0, 0, 0); fill-opacity: 1; white-space: pre;" transform="translate(0,182.5)">100</text></g><g class="ytick"><text text-anchor="end" x="79" y="6.3" style="font-family: 'Open Sans'; font-size: 18px; fill: rgb(0, 0, 0); fill-opacity: 1; white-space: pre;" transform="translate(0,135)">120</text></g></g><g class="overaxes-above"/></g></g><g class="polarlayer"/><g class="smithlayer"/><g class="ternarylayer"/><g class="geolayer"/><g class="funnelarealayer"/><g class="pielayer"/><g class="iciclelayer"/><g class="treemaplayer"/><g class="sunburstlayer"/><g class="glimages"/><defs id="topdefs-c7cee1"><g class="clips"/></defs><g class="layer-above"><g class="imagelayer"/><g class="shapelayer"/></g><g class="infolayer"><g class="g-gtitle"><text class="gtitle" x="35" y="50" text-anchor="start" dy="0em" style="opacity: 1; font-family: 'Open Sans'; font-size: 25px; fill: rgb(0, 0, 0); fill-opacity: 1; white-space: pre;">MultiQC/MultiQC - Open Pull Requests Over Time</text></g><g class="g-xtitle"><text class="xtitle" x="350" y="472.9" text-anchor="middle" style="opacity: 1; font-family: 'Open Sans'; font-size: 22px; fill: rgb(0, 0, 0); fill-opacity: 1; white-space: pre;">Date</text></g><g class="g-ytitle"><text class="ytitle" transform="rotate(-90,29.799999999999997,260)" x="29.799999999999997" y="260" text-anchor="middle" style="opacity: 1; font-family: 'Open Sans'; font-size: 22px; fill: rgb(0, 0, 0); fill-opacity: 1; white-space: pre;">Number of Open PRs</text></g></g></svg>