<svg class="main-svg" xmlns="http://www.w3.org/2000/svg" xmlns:xlink="http://www.w3.org/1999/xlink" width="700" height="500" style="" viewBox="0 0 700 500"><rect x="0" y="0" width="700" height="500" style="fill: rgb(0, 0, 0); fill-opacity: 0;"/><defs id="defs-f651a0"><g class="clips"><clipPath id="clipf651a0xyplot" class="plotclip"><rect width="540" height="320"/></clipPath><clipPath class="axesclip" id="clipf651a0x"><rect x="80" y="0" width="540" height="500"/></clipPath><clipPath class="axesclip" id="clipf651a0y"><rect x="0" y="100" width="700" height="320"/></clipPath><clipPath class="axesclip" id="clipf651a0xy"><rect x="80" y="100" width="540" height="320"/></clipPath></g><g class="gradients"/><g class="patterns"/></defs><g class="bglayer"><rect class="bg" x="80" y="100" width="540" height="320" style="fill: rgb(0, 0, 0); fill-opacity: 0; stroke-width: 0;"/></g><g class="layer-below"><g class="imagelayer"/><g class="shapelayer"/></g><g class="cartesianlayer"><g class="subplot xy"><g class="layer-subplot"><g class="shapelayer"/><g class="imagelayer"/></g><g class="minor-gridlayer"><g class="x"/><g class="y"/></g><g class="gridlayer"><g class="x"><path class="xgrid crisp" transform="translate(97.24,0)" d="M0,100v320" style="stroke: rgb(255, 255, 255); stroke-opacity: 1; stroke-width: 1px;"/><path class="xgrid crisp" transform="translate(202.81,0)" d="M0,100v320" style="stroke: rgb(255, 255, 255); stroke-opacity: 1; stroke-width: 1px;"/><path class="xgrid crisp" transform="translate(308.24,0)" d="M0,100v320" style="stroke: rgb(255, 255, 255); stroke-opacity: 1; stroke-width: 1px;"/><path class="xgrid crisp" transform="translate(413.81,0)" d="M0,100v320" style="stroke: rgb(255, 255, 255); stroke-opacity: 1; stroke-width: 1px;"/><path class="xgrid crisp" transform="translate(519.23,0)" d="M0,100v320" style="stroke: rgb(255, 255, 255); stroke-opacity: 1; stroke-width: 1px;"/></g><g class="y"><path class="ygrid crisp" transform="translate(0,381.93)" d="M80,0h540" style="stroke: rgb(255, 255, 255); stroke-opacity: 1; stroke-width: 1px;"/><path class="ygrid crisp" transform="translate(0,343.86)" d="M80,0h540" style="stroke: rgb(255, 255, 255); stroke-opacity: 1; stroke-width: 1px;"/><path class="ygrid crisp" transform="translate(0,305.78999999999996)" d="M80,0h540" style="stroke: rgb(255, 255, 255); stroke-opacity: 1; stroke-width: 1px;"/><path class="ygrid crisp" transform="translate(0,267.71000000000004)" d="M80,0h540" style="stroke: rgb(255, 255, 255); stroke-opacity: 1; stroke-width: 1px;"/><path class="ygrid crisp" transform="translate(0,229.64)" d="M80,0h540" style="stroke: rgb(255, 255, 255); stroke-opacity: 1; stroke-width: 1px;"/><path class="ygrid crisp" transform="translate(0,191.57)" d="M80,0h540" style="stroke: rgb(255, 255, 255); stroke-opacity: 1; stroke-width: 1px;"/><path class="ygrid crisp" transform="translate(0,153.5)" d="M80,0h540" style="stroke: rgb(255, 255, 255); stroke-opacity: 1; stroke-width: 1px;"/><path class="ygrid crisp" transform="translate(0,115.43)" d="M80,0h540" style="stroke: rgb(255, 255, 255); stroke-opacity: 1; stroke-width: 1px;"/></g></g><g class="zerolinelayer"><path class="yzl zl crisp" transform="translate(0,420)" d="M80,0h540" style="stroke: rgb(255, 255, 255); stroke-opacity: 1; stroke-width: 2px;"/></g><g class="layer-between"><g class="shapelayer"/><g class="imagelayer"/></g><path class="xlines-below"/><path class="ylines-below"/><g class="overlines-below"/><g class="xaxislayer-below"/><g class="yaxislayer-below"/><g class="overaxes-below"/><g class="overplot"><g class="xy" transform="translate(80,100)" clip-path="url(#clipf651a0xyplot)"><g class="scatterlayer mlayer"><g class="trace scatter trace1380ce" style="stroke-miterlimit: 2;"><g class="fills"><g><path class="js-fill" d="M540,320L0,320L0,319.81L3.6,318.48L3.89,318.29L5.91,317.14L6.22,316.95L14.73,315.43L22.24,315.24L22.44,315.05L24.08,314.86L24.08,314.67L27.12,314.48L35.41,312.01L35.82,311.81L44.38,309.91L44.48,309.72L44.52,309.15L45.47,308.96L46.06,308.58L47.35,308.39L59.86,307.06L60.99,306.87L68.43,304.58L68.48,304.39L69.31,303.44L70.17,303.25L71.63,302.49L76.23,302.3L79.44,301.54L80.43,301.35L84.5,300.01L84.91,299.82L95.74,297.92L97.2,297.73L99.07,296.4L99.08,296.21L99.78,293.73L100.19,293.54L100.64,293.16L101.23,292.97L102.94,291.64L103.09,291.45L103.7,290.49L104.68,290.3L105.85,288.97L105.96,288.78L106.73,288.02L107.7,287.83L110.99,285.93L110.99,285.74L111.5,285.16L112.79,284.97L112.92,284.78L114.95,284.59L114.96,284.4L116.09,284.21L123.88,282.88L124.18,282.69L124.5,282.12L125.35,281.93L132.42,280.22L132.42,280.03L133.31,279.26L134.31,279.07L138.38,277.17L139.06,276.98L139.2,276.03L140.51,275.84L140.62,275.65L142.09,275.46L142.65,275.08L144.11,274.89L144.42,274.5L146.15,274.31L153.79,271.46L155.68,271.27L155.82,271.08L157.44,270.89L174.01,268.22L174.02,268.03L184.46,266.7L184.46,266.51L185.12,265.37L186.7,265.18L187.03,264.42L188.72,264.23L189.23,263.65L191.47,263.46L216.38,260.23L217.1,260.04L217.51,259.09L218.95,258.9L221.51,257.94L223.07,257.75L237.29,255.09L237.29,254.9L238.12,254.14L238.4,253.95L241.04,252.61L241.29,252.42L241.77,251.28L242.37,251.09L242.48,250.9L243.79,250.71L245.18,249.76L245.66,249.57L246.68,248.81L247.38,248.62L248.52,247.85L249.52,247.66L250.53,245.95L250.67,245.76L251.58,245.19L252.43,245L256.8,243.29L261.45,243.1L261.8,242.72L263.73,242.52L267.5,241L267.61,240.81L268.95,239.67L271.04,239.48L271.11,239.1L272.16,238.91L277.11,237.19L278.83,237L279.02,236.81L280.8,236.62L280.81,236.43L281.78,236.24L281.98,236.05L283.37,235.86L288.9,234.72L288.96,234.53L301.47,231.86L302.27,231.67L305.01,230.72L305.41,230.53L305.42,230.34L306.59,230.15L307.47,228.63L307.49,228.44L309.91,226.53L309.95,226.34L313.38,224.82L313.47,224.63L314.24,223.68L314.24,223.49L314.41,222.73L316.64,222.54L325.17,221.01L325.84,220.82L326.01,220.06L326.69,219.87L328.61,218.16L331.11,217.97L331.61,217.59L332.88,217.4L340.66,215.87L341.56,215.68L341.78,215.3L342.43,215.11L347.9,213.59L347.98,213.4L349,212.83L352.14,212.64L356.52,211.5L357.41,211.31L357.86,210.93L358.43,210.74L366.81,206.93L368.67,206.74L371.8,205.41L372.75,205.21L379.09,203.88L379.21,203.69L384.2,201.22L384.21,201.03L384.92,199.69L385.89,199.5L388.68,197.79L391.2,197.6L391.82,197.03L395.7,196.84L399.43,195.32L401.31,195.13L401.45,194.75L402.93,194.55L403.06,193.41L407.1,193.22L407.96,192.65L410.11,192.46L414.48,191.32L416.01,191.13L417.69,190.18L418.31,189.99L419.68,187.13L420.13,186.94L420.73,185.23L421.09,185.04L421.99,182.75L422.15,182.56L422.44,181.99L423.13,181.8L425.63,174.57L426.04,174.38L428.18,170.76L428.18,170.57L429.19,167.71L429.52,167.52L432.37,164.67L432.37,164.48L432.82,162.77L432.85,162.57L435.28,160.67L435.29,160.48L435.53,159.72L436.42,159.53L437.31,155.53L437.41,155.34L437.43,155.15L438.63,154.96L438.93,154.39L439.61,154.2L442.62,151.53L442.64,151.34L442.7,150.96L443.56,150.77L445.36,147.35L445.37,147.16L445.97,144.3L446.2,144.11L447.68,137.07L447.69,136.88L448.4,134.4L448.55,134.21L450.9,129.83L450.91,129.64L454.5,126.6L454.52,126.41L457.83,119.93L457.83,119.74L459.1,115.75L459.11,115.56L459.54,115.18L460,114.99L461.01,114.03L461.01,113.84L461.34,112.32L461.88,112.13L462.42,111.37L462.73,111.18L463.86,108.89L463.87,108.7L464.77,104.9L464.86,104.71L466.18,102.42L466.6,102.23L467.49,100.52L467.76,100.33L468.54,98.23L468.78,98.04L469.19,96.52L469.65,96.33L470.65,94.24L470.66,94.05L471.33,93.09L471.36,92.9L472.41,90.05L472.53,89.86L473.26,87.19L474.1,87L475.06,86.05L475.12,85.86L475.85,83.58L475.98,83.39L478.33,76.53L478.72,76.34L479.15,74.06L479.78,73.87L482.64,71.01L482.64,70.82L483.22,69.87L484.4,69.68L485.12,68.54L485.37,68.35L486.54,65.68L486.68,65.49L488.42,63.4L489.13,63.21L489.88,61.3L489.91,61.11L490.49,59.21L491.36,59.02L495.1,57.12L495.12,56.93L497.43,52.36L498.62,52.17L499.54,51.22L499.99,51.03L501.27,49.5L502.13,49.31L505.06,46.65L505.66,46.46L509.21,43.79L509.24,43.6L510.63,41.7L511.12,41.51L512.5,38.84L513.3,38.65L514.11,37.51L514.13,37.32L515.41,36.18L515.44,35.99L518.44,34.46L518.45,34.27L519.03,31.99L519.21,31.8L519.76,31.42L521.19,31.23L522.7,29.52L524.97,29.32L525.8,26.66L526.54,26.47L526.84,25.71L527.42,25.52L528.44,22.66L528.87,22.47L531.56,21.33L533.39,21.14L535.03,19.62L535.07,19.43L535.84,18.86L536.84,18.66L539.83,16.95L539.98,16.76L540,16" style="fill: rgb(44, 160, 44); fill-opacity: 0.5; stroke-width: 0;"/></g></g><g class="errorbars"/><g class="lines"><path class="js-line" d="M0,319.81L3.6,318.48L3.89,318.29L5.91,317.14L6.22,316.95L14.73,315.43L22.24,315.24L22.44,315.05L24.08,314.86L24.08,314.67L27.12,314.48L35.41,312.01L35.82,311.81L44.38,309.91L44.48,309.72L44.52,309.15L45.47,308.96L46.06,308.58L47.35,308.39L59.86,307.06L60.99,306.87L68.43,304.58L68.48,304.39L69.31,303.44L70.17,303.25L71.63,302.49L76.23,302.3L79.44,301.54L80.43,301.35L84.5,300.01L84.91,299.82L95.74,297.92L97.2,297.73L99.07,296.4L99.08,296.21L99.78,293.73L100.19,293.54L100.64,293.16L101.23,292.97L102.94,291.64L103.09,291.45L103.7,290.49L104.68,290.3L105.85,288.97L105.96,288.78L106.73,288.02L107.7,287.83L110.99,285.93L110.99,285.74L111.5,285.16L112.79,284.97L112.92,284.78L114.95,284.59L114.96,284.4L116.09,284.21L123.88,282.88L124.18,282.69L124.5,282.12L125.35,281.93L132.42,280.22L132.42,280.03L133.31,279.26L134.31,279.07L138.38,277.17L139.06,276.98L139.2,276.03L140.51,275.84L140.62,275.65L142.09,275.46L142.65,275.08L144.11,274.89L144.42,274.5L146.15,274.31L153.79,271.46L155.68,271.27L155.82,271.08L157.44,270.89L174.01,268.22L174.02,268.03L184.46,266.7L184.46,266.51L185.12,265.37L186.7,265.18L187.03,264.42L188.72,264.23L189.23,263.65L191.47,263.46L216.38,260.23L217.1,260.04L217.51,259.09L218.95,258.9L221.51,257.94L223.07,257.75L237.29,255.09L237.29,254.9L238.12,254.14L238.4,253.95L241.04,252.61L241.29,252.42L241.77,251.28L242.37,251.09L242.48,250.9L243.79,250.71L245.18,249.76L245.66,249.57L246.68,248.81L247.38,248.62L248.52,247.85L249.52,247.66L250.53,245.95L250.67,245.76L251.58,245.19L252.43,245L256.8,243.29L261.45,243.1L261.8,242.72L263.73,242.52L267.5,241L267.61,240.81L268.95,239.67L271.04,239.48L271.11,239.1L272.16,238.91L277.11,237.19L278.83,237L279.02,236.81L280.8,236.62L280.81,236.43L281.78,236.24L281.98,236.05L283.37,235.86L288.9,234.72L288.96,234.53L301.47,231.86L302.27,231.67L305.01,230.72L305.41,230.53L305.42,230.34L306.59,230.15L307.47,228.63L307.49,228.44L309.91,226.53L309.95,226.34L313.38,224.82L313.47,224.63L314.24,223.68L314.24,223.49L314.41,222.73L316.64,222.54L325.17,221.01L325.84,220.82L326.01,220.06L326.69,219.87L328.61,218.16L331.11,217.97L331.61,217.59L332.88,217.4L340.66,215.87L341.56,215.68L341.78,215.3L342.43,215.11L347.9,213.59L347.98,213.4L349,212.83L352.14,212.64L356.52,211.5L357.41,211.31L357.86,210.93L358.43,210.74L366.81,206.93L368.67,206.74L371.8,205.41L372.75,205.21L379.09,203.88L379.21,203.69L384.2,201.22L384.21,201.03L384.92,199.69L385.89,199.5L388.68,197.79L391.2,197.6L391.82,197.03L395.7,196.84L399.43,195.32L401.31,195.13L401.45,194.75L402.93,194.55L403.06,193.41L407.1,193.22L407.96,192.65L410.11,192.46L414.48,191.32L416.01,191.13L417.69,190.18L418.31,189.99L419.68,187.13L420.13,186.94L420.73,185.23L421.09,185.04L421.99,182.75L422.15,182.56L422.44,181.99L423.13,181.8L425.63,174.57L426.04,174.38L428.18,170.76L428.18,170.57L429.19,167.71L429.52,167.52L432.37,164.67L432.37,164.48L432.82,162.77L432.85,162.57L435.28,160.67L435.29,160.48L435.53,159.72L436.42,159.53L437.31,155.53L437.41,155.34L437.43,155.15L438.63,154.96L438.93,154.39L439.61,154.2L442.62,151.53L442.64,151.34L442.7,150.96L443.56,150.77L445.36,147.35L445.37,147.16L445.97,144.3L446.2,144.11L447.68,137.07L447.69,136.88L448.4,134.4L448.55,134.21L450.9,129.83L450.91,129.64L454.5,126.6L454.52,126.41L457.83,119.93L457.83,119.74L459.1,115.75L459.11,115.56L459.54,115.18L460,114.99L461.01,114.03L461.01,113.84L461.34,112.32L461.88,112.13L462.42,111.37L462.73,111.18L463.86,108.89L463.87,108.7L464.77,104.9L464.86,104.71L466.18,102.42L466.6,102.23L467.49,100.52L467.76,100.33L468.54,98.23L468.78,98.04L469.19,96.52L469.65,96.33L470.65,94.24L470.66,94.05L471.33,93.09L471.36,92.9L472.41,90.05L472.53,89.86L473.26,87.19L474.1,87L475.06,86.05L475.12,85.86L475.85,83.58L475.98,83.39L478.33,76.53L478.72,76.34L479.15,74.06L479.78,73.87L482.64,71.01L482.64,70.82L483.22,69.87L484.4,69.68L485.12,68.54L485.37,68.35L486.54,65.68L486.68,65.49L488.42,63.4L489.13,63.21L489.88,61.3L489.91,61.11L490.49,59.21L491.36,59.02L495.1,57.12L495.12,56.93L497.43,52.36L498.62,52.17L499.54,51.22L499.99,51.03L501.27,49.5L502.13,49.31L505.06,46.65L505.66,46.46L509.21,43.79L509.24,43.6L510.63,41.7L511.12,41.51L512.5,38.84L513.3,38.65L514.11,37.51L514.13,37.32L515.41,36.18L515.44,35.99L518.44,34.46L518.45,34.27L519.03,31.99L519.21,31.8L519.76,31.42L521.19,31.23L522.7,29.52L524.97,29.32L525.8,26.66L526.54,26.47L526.84,25.71L527.42,25.52L528.44,22.66L528.87,22.47L531.56,21.33L533.39,21.14L535.03,19.62L535.07,19.43L535.84,18.86L536.84,18.66L539.83,16.95L539.98,16.76L540,16" style="vector-effect: none; fill: none; stroke: rgb(44, 160, 44); stroke-opacity: 1; stroke-width: 2px; opacity: 1;"/></g><g class="points"/><g class="text"/></g></g></g></g><g class="zerolinelayer-above"/><path class="xlines-above crisp" d="M0,0" style="fill: none;"/><path class="ylines-above crisp" d="M0,0" style="fill: none;"/><g class="overlines-above"/><g class="xaxislayer-above"><g class="xtick"><text text-anchor="middle" x="0" y="439" transform="translate(97.24,0)" style="font-family: 'Open Sans'; font-size: 18px; fill: rgb(0, 0, 0); fill-opacity: 1; white-space: pre;">2016</text></g><g class="xtick"><text text-anchor="middle" x="0" y="439" style="font-family: 'Open Sans'; font-size: 18px; fill: rgb(0, 0, 0); fill-opacity: 1; white-space: pre;" transform="translate(202.81,0)">2018</text></g><g class="xtick"><text text-anchor="middle" x="0" y="439" style="font-family: 'Open Sans'; font-size: 18px; fill: rgb(0, 0, 0); fill-opacity: 1; white-space: pre;" transform="translate(308.24,0)">2020</text></g><g class="xtick"><text text-anchor="middle" x="0" y="439" style="font-family: 'Open Sans'; font-size: 18px; fill: rgb(0, 0, 0); fill-opacity: 1; white-space: pre;" transform="translate(413.81,0)">2022</text></g><g class="xtick"><text text-anchor="middle" x="0" y="439" style="font-family: 'Open Sans'; font-size: 18px; fill: rgb(0, 0, 0); fill-opacity: 1; white-space: pre;" transform="translate(519.23,0)">2024</text></g></g><g class="yaxislayer-above"><g class="ytick"><text text-anchor="end" x="79" y="6.3" transform="translate(0,420)" style="font-family: 'Open Sans'; font-size: 18px; fill: rgb(0, 0, 0); fill-opacity: 1; white-space: pre;">0</text></g><g class="ytick"><text text-anchor="end" x="79" y="6.3" style="font-family: 'Open Sans'; font-size: 18px; fill: rgb(0, 0, 0); fill-opacity: 1; white-space: pre;" transform="translate(0,381.93)">200</text></g><g class="ytick"><text text-anchor="end" x="79" y="6.3" style="font-family: 'Open Sans'; font-size: 18px; fill: rgb(0, 0, 0); fill-opacity: 1; white-space: pre;" transform="translate(0,343.86)">400</text></g><g class="ytick"><text text-anchor="end" x="79" y="6.3" style="font-family: 'Open Sans'; font-size: 18px; fill: rgb(0, 0, 0); fill-opacity: 1; white-space: pre;" transform="translate(0,305.78999999999996)">600</text></g><g class="ytick"><text text-anchor="end" x="79" y="6.3" style="font-family: 'Open Sans'; font-size: 18px; fill: rgb(0, 0, 0); fill-opacity: 1; white-space: pre;" transform="translate(0,267.71000000000004)">800</text></g><g class="ytick"><text text-anchor="end" x="79" y="6.3" style="font-family: 'Open Sans'; font-size: 18px; fill: rgb(0, 0, 0); fill-opacity: 1; white-space: pre;" transform="translate(0,229.64)">1000</text></g><g class="ytick"><text text-anchor="end" x="79" y="6.3" style="font-family: 'Open Sans'; font-size: 18px; fill: rgb(0, 0, 0); fill-opacity: 1; white-space: pre;" transform="translate(0,191.57)">1200</text></g><g class="ytick"><text text-anchor="end" x="79" y="6.3" style="font-family: 'Open Sans'; font-size: 18px; fill: rgb(0, 0, 0); fill-opacity: 1; white-space: pre;" transform="translate(0,153.5)">1400</text></g><g class="ytick"><text text-anchor="end" x="79" y="6.3" style="font-family: 'Open Sans'; font-size: 18px; fill: rgb(0, 0, 0); fill-opacity: 1; white-space: pre;" transform="translate(0,115.43)">1600</text></g></g><g class="overaxes-above"/></g></g><g class="polarlayer"/><g class="smithlayer"/><g class="ternarylayer"/><g class="geolayer"/><g class="funnelarealayer"/><g class="pielayer"/><g class="iciclelayer"/><g class="treemaplayer"/><g class="sunburstlayer"/><g class="glimages"/><defs id="topdefs-f651a0"><g class="clips"/></defs><g class="layer-above"><g class="imagelayer"/><g class="shapelayer"/></g><g class="infolayer"><g class="g-gtitle"><text class="gtitle" x="35" y="50" text-anchor="start" dy="0em" style="opacity: 1; font-family: 'Open Sans'; font-size: 25px; fill: rgb(0, 0, 0); fill-opacity: 1; white-space: pre;">MultiQC/MultiQC - Pull Requests Created Over Time</text></g><g class="g-xtitle"><text class="xtitle" x="350" y="472.9" text-anchor="middle" style="opacity: 1; font-family: 'Open Sans'; font-size: 22px; fill: rgb(0, 0, 0); fill-opacity: 1; white-space: pre;">Date</text></g><g class="g-ytitle"><text class="ytitle" transform="rotate(-90,20.799999999999997,260)" x="20.799999999999997" y="260" text-anchor="middle" style="opacity: 1; font-family: 'Open Sans'; font-size: 22px; fill: rgb(0, 0, 0); fill-opacity: 1; white-space: pre;">Cumulative PRs Created</text></g></g></svg>