<svg class="main-svg" xmlns="http://www.w3.org/2000/svg" xmlns:xlink="http://www.w3.org/1999/xlink" width="700" height="500" style="" viewBox="0 0 700 500"><rect x="0" y="0" width="700" height="500" style="fill: rgb(0, 0, 0); fill-opacity: 0;"/><defs id="defs-a9f536"><g class="clips"><clipPath id="clipa9f536xyplot" class="plotclip"><rect width="540" height="320"/></clipPath><clipPath class="axesclip" id="clipa9f536x"><rect x="80" y="0" width="540" height="500"/></clipPath><clipPath class="axesclip" id="clipa9f536y"><rect x="0" y="100" width="700" height="320"/></clipPath><clipPath class="axesclip" id="clipa9f536xy"><rect x="80" y="100" width="540" height="320"/></clipPath></g><g class="gradients"/><g class="patterns"/></defs><g class="bglayer"><rect class="bg" x="80" y="100" width="540" height="320" style="fill: rgb(0, 0, 0); fill-opacity: 0; stroke-width: 0;"/></g><g class="layer-below"><g class="imagelayer"/><g class="shapelayer"/></g><g class="cartesianlayer"><g class="subplot xy"><g class="layer-subplot"><g class="shapelayer"/><g class="imagelayer"/></g><g class="minor-gridlayer"><g class="x"/><g class="y"/></g><g class="gridlayer"><g class="x"><path class="xgrid crisp" transform="translate(97.59,0)" d="M0,100v320" style="stroke: rgb(255, 255, 255); stroke-opacity: 1; stroke-width: 1px;"/><path class="xgrid crisp" transform="translate(205.26,0)" d="M0,100v320" style="stroke: rgb(255, 255, 255); stroke-opacity: 1; stroke-width: 1px;"/><path class="xgrid crisp" transform="translate(312.78999999999996,0)" d="M0,100v320" style="stroke: rgb(255, 255, 255); stroke-opacity: 1; stroke-width: 1px;"/><path class="xgrid crisp" transform="translate(420.46,0)" d="M0,100v320" style="stroke: rgb(255, 255, 255); stroke-opacity: 1; stroke-width: 1px;"/><path class="xgrid crisp" transform="translate(527.99,0)" d="M0,100v320" style="stroke: rgb(255, 255, 255); stroke-opacity: 1; stroke-width: 1px;"/></g><g class="y"><path class="ygrid crisp" transform="translate(0,381.17)" d="M80,0h540" style="stroke: rgb(255, 255, 255); stroke-opacity: 1; stroke-width: 1px;"/><path class="ygrid crisp" transform="translate(0,342.35)" d="M80,0h540" style="stroke: rgb(255, 255, 255); stroke-opacity: 1; stroke-width: 1px;"/><path class="ygrid crisp" transform="translate(0,303.52)" d="M80,0h540" style="stroke: rgb(255, 255, 255); stroke-opacity: 1; stroke-width: 1px;"/><path class="ygrid crisp" transform="translate(0,264.7)" d="M80,0h540" style="stroke: rgb(255, 255, 255); stroke-opacity: 1; stroke-width: 1px;"/><path class="ygrid crisp" transform="translate(0,225.87)" d="M80,0h540" style="stroke: rgb(255, 255, 255); stroke-opacity: 1; stroke-width: 1px;"/><path class="ygrid crisp" transform="translate(0,187.05)" d="M80,0h540" style="stroke: rgb(255, 255, 255); stroke-opacity: 1; stroke-width: 1px;"/><path class="ygrid crisp" transform="translate(0,148.22)" d="M80,0h540" style="stroke: rgb(255, 255, 255); stroke-opacity: 1; stroke-width: 1px;"/><path class="ygrid crisp" transform="translate(0,109.4)" d="M80,0h540" style="stroke: rgb(255, 255, 255); stroke-opacity: 1; stroke-width: 1px;"/></g></g><g class="zerolinelayer"><path class="yzl zl crisp" transform="translate(0,420)" d="M80,0h540" style="stroke: rgb(255, 255, 255); stroke-opacity: 1; stroke-width: 2px;"/></g><g class="layer-between"><g class="shapelayer"/><g class="imagelayer"/></g><path class="xlines-below"/><path class="ylines-below"/><g class="overlines-below"/><g class="xaxislayer-below"/><g class="yaxislayer-below"/><g class="overaxes-below"/><g class="overplot"><g class="xy" transform="translate(80,100)" clip-path="url(#clipa9f536xyplot)"><g class="scatterlayer mlayer"><g class="trace scatter trace6d47ef" style="stroke-miterlimit: 2;"><g class="fills"><g><path class="js-fill" d="M540,320L0,320L0,319.81L3.67,318.45L3.97,318.25L6.02,317.09L6.34,316.89L15.02,315.34L22.68,315.15L22.89,314.95L24.56,314.76L24.56,314.56L27.66,314.37L36.11,311.85L36.53,311.65L45.26,309.71L45.36,309.52L45.4,308.93L46.38,308.74L46.98,308.35L48.29,308.16L61.05,306.8L62.21,306.61L69.8,304.28L69.85,304.08L69.99,303.31L70.69,303.11L73.06,302.14L77.75,301.95L81.02,301.17L82.03,300.98L86.19,299.62L86.6,299.42L97.65,297.48L99.13,297.29L101.05,295.93L101.05,295.73L101.77,293.21L102.19,293.02L102.64,292.63L103.25,292.43L105,291.08L105.14,290.88L105.76,289.91L106.77,289.72L107.95,288.36L108.07,288.16L108.86,287.39L109.85,287.19L113.2,285.25L113.2,285.06L113.72,284.48L115.04,284.28L115.17,284.09L117.24,283.89L117.25,283.7L118.4,283.5L126.35,282.15L126.65,281.95L126.98,281.37L127.85,281.17L135.06,279.43L135.06,279.23L135.97,278.46L136.99,278.26L141.14,276.32L141.83,276.13L141.97,275.16L143.31,274.96L143.43,274.77L144.92,274.57L145.49,274.19L146.98,273.99L147.29,273.6L149.06,273.41L158.93,270.11L160.57,269.92L177.47,267.2L177.49,267L188.13,265.64L188.14,265.45L188.81,264.29L190.42,264.09L190.76,263.32L192.48,263.12L193,262.54L195.29,262.34L220.69,259.04L221.43,258.85L221.84,257.88L223.31,257.69L225.92,256.72L227.52,256.52L239.81,254.19L240.13,254L242.32,253.03L242.86,252.83L246.58,250.11L246.59,249.92L251.39,247.79L251.58,247.59L252.31,247.2L252.5,247.01L254.87,245.07L254.95,244.87L258.6,243.13L259.43,242.93L260.4,242.35L261.01,242.16L261.91,241.77L266.66,241.57L267.02,241.19L268.99,240.99L272.83,239.44L272.94,239.24L274.31,238.08L276.44,237.89L276.51,237.5L277.58,237.3L282.64,235.56L284.39,235.36L284.59,235.17L286.4,234.97L286.4,234.78L287.4,234.58L287.6,234.39L289.02,234.2L294.66,233.03L294.72,232.84L310.93,229.54L310.93,229.34L311.51,228.57L312.7,228.37L313.3,227.21L313.3,227.01L317.72,224.1L318.65,223.91L319.72,222.74L320.22,222.55L320.67,220.8L322.95,220.61L331.65,219.05L332.33,218.86L332.51,218.08L333.2,217.89L335.16,216.14L337.71,215.95L338.22,215.56L339.51,215.37L348.36,213.62L348.39,213.43L349.26,213.04L350.57,212.84L355.86,210.9L355.95,210.71L363.62,209.54L363.63,209.35L367.19,207.8L367.95,207.6L372.91,205.85L373.01,205.66L373.74,204.88L374.12,204.69L377.57,203.72L377.57,203.52L377.69,203.33L379.21,203.14L388.43,201L388.48,200.81L389.37,200.42L390.61,200.22L391.46,199.25L391.68,199.06L395.09,195.76L395.64,195.57L399.63,194.6L403.58,194.4L407.39,192.85L409.31,192.65L409.45,192.27L410.96,192.07L411.09,190.91L415.21,190.71L416.09,190.13L418.28,189.94L421.43,188.97L422.74,188.77L426.01,187.8L426.01,187.61L427.02,186.64L427.03,186.44L427.71,185.47L427.75,185.28L430.86,179.26L431.56,179.07L433.66,173.24L433.9,173.05L434.53,171.49L434.66,171.3L436.71,167.61L436.74,167.42L437.21,165.09L437.63,164.89L439,163.73L439.37,163.54L440.39,162.37L440.45,162.18L441.17,160.82L441.3,160.62L442.19,158.68L443.19,158.49L443.96,157.13L443.97,156.93L444.21,156.55L445.11,156.35L446.15,151.89L447.37,151.69L447.68,151.11L448.37,150.92L451.44,148.2L451.46,148.01L451.52,147.62L452.4,147.42L453.86,144.7L453.86,144.51L454.25,143.54L454.25,143.35L454.86,140.82L455.09,140.63L456.51,134.42L456.51,134.22L457.49,130.53L457.62,130.34L458.28,128.4L458.98,128.2L459.58,127.23L459.59,127.04L460.9,124.9L462.05,124.71L463.56,122.77L463.58,122.57L466.93,116.17L466.95,115.97L467.78,114.03L467.94,113.84L468.7,111.12L469.17,110.93L470.2,109.96L470.2,109.76L470.54,108.21L471.09,108.02L471.64,107.24L471.95,107.04L473.11,104.72L473.11,104.52L474.04,100.64L474.13,100.44L475.47,98.11L475.89,97.92L477.09,95.79L477.24,95.59L478.46,92.68L478.47,92.49L480.04,89.57L480.49,89.38L482.38,82.78L482.69,82.58L484.53,81.42L484.58,81.23L485.34,78.9L485.47,78.7L487.28,73.46L487.67,73.27L488.41,70.16L488.45,69.97L488.7,69.19L489.34,69L492.26,66.08L492.26,65.89L492.85,64.92L494.06,64.73L494.79,63.56L495.04,63.37L495.94,60.84L496.24,60.65L498.15,58.32L498.87,58.13L499.76,55.21L499.79,55.02L500.27,54.05L501.15,53.85L504.97,51.91L504.98,51.72L507.34,47.06L508.56,46.87L509.5,45.9L509.95,45.7L511.26,44.15L512.14,43.95L515.12,41.24L515.74,41.04L519.36,38.32L519.39,38.13L520.81,36.19L521.31,35.99L522.72,33.28L523.53,33.08L524,32.11L524.36,31.92L525.08,31.14L525.44,30.95L527.09,29.78L528.51,29.59L529.56,26.09L529.8,25.9L533.12,23.77L535.44,23.57L536.15,21.24L536.28,21.05L537.03,20.66L537.04,20.46L538.07,18.91L538.12,18.72L539.41,16.58L539.87,16.39L540,16" style="fill: rgb(44, 160, 44); fill-opacity: 0.5; stroke-width: 0;"/></g></g><g class="errorbars"/><g class="lines"><path class="js-line" d="M0,319.81L3.67,318.45L3.97,318.25L6.02,317.09L6.34,316.89L15.02,315.34L22.68,315.15L22.89,314.95L24.56,314.76L24.56,314.56L27.66,314.37L36.11,311.85L36.53,311.65L45.26,309.71L45.36,309.52L45.4,308.93L46.38,308.74L46.98,308.35L48.29,308.16L61.05,306.8L62.21,306.61L69.8,304.28L69.85,304.08L69.99,303.31L70.69,303.11L73.06,302.14L77.75,301.95L81.02,301.17L82.03,300.98L86.19,299.62L86.6,299.42L97.65,297.48L99.13,297.29L101.05,295.93L101.05,295.73L101.77,293.21L102.19,293.02L102.64,292.63L103.25,292.43L105,291.08L105.14,290.88L105.76,289.91L106.77,289.72L107.95,288.36L108.07,288.16L108.86,287.39L109.85,287.19L113.2,285.25L113.2,285.06L113.72,284.48L115.04,284.28L115.17,284.09L117.24,283.89L117.25,283.7L118.4,283.5L126.35,282.15L126.65,281.95L126.98,281.37L127.85,281.17L135.06,279.43L135.06,279.23L135.97,278.46L136.99,278.26L141.14,276.32L141.83,276.13L141.97,275.16L143.31,274.96L143.43,274.77L144.92,274.57L145.49,274.19L146.98,273.99L147.29,273.6L149.06,273.41L158.93,270.11L160.57,269.92L177.47,267.2L177.49,267L188.13,265.64L188.14,265.45L188.81,264.29L190.42,264.09L190.76,263.32L192.48,263.12L193,262.54L195.29,262.34L220.69,259.04L221.43,258.85L221.84,257.88L223.31,257.69L225.92,256.72L227.52,256.52L239.81,254.19L240.13,254L242.32,253.03L242.86,252.83L246.58,250.11L246.59,249.92L251.39,247.79L251.58,247.59L252.31,247.2L252.5,247.01L254.87,245.07L254.95,244.87L258.6,243.13L259.43,242.93L260.4,242.35L261.01,242.16L261.91,241.77L266.66,241.57L267.02,241.19L268.99,240.99L272.83,239.44L272.94,239.24L274.31,238.08L276.44,237.89L276.51,237.5L277.58,237.3L282.64,235.56L284.39,235.36L284.59,235.17L286.4,234.97L286.4,234.78L287.4,234.58L287.6,234.39L289.02,234.2L294.66,233.03L294.72,232.84L310.93,229.54L310.93,229.34L311.51,228.57L312.7,228.37L313.3,227.21L313.3,227.01L317.72,224.1L318.65,223.91L319.72,222.74L320.22,222.55L320.67,220.8L322.95,220.61L331.65,219.05L332.33,218.86L332.51,218.08L333.2,217.89L335.16,216.14L337.71,215.95L338.22,215.56L339.51,215.37L348.36,213.62L348.39,213.43L349.26,213.04L350.57,212.84L355.86,210.9L355.95,210.71L363.62,209.54L363.63,209.35L367.19,207.8L367.95,207.6L372.91,205.85L373.01,205.66L373.74,204.88L374.12,204.69L377.57,203.72L377.57,203.52L377.69,203.33L379.21,203.14L388.43,201L388.48,200.81L389.37,200.42L390.61,200.22L391.46,199.25L391.68,199.06L395.09,195.76L395.64,195.57L399.63,194.6L403.58,194.4L407.39,192.85L409.31,192.65L409.45,192.27L410.96,192.07L411.09,190.91L415.21,190.71L416.09,190.13L418.28,189.94L421.43,188.97L422.74,188.77L426.01,187.8L426.01,187.61L427.02,186.64L427.03,186.44L427.71,185.47L427.75,185.28L430.86,179.26L431.56,179.07L433.66,173.24L433.9,173.05L434.53,171.49L434.66,171.3L436.71,167.61L436.74,167.42L437.21,165.09L437.63,164.89L439,163.73L439.37,163.54L440.39,162.37L440.45,162.18L441.17,160.82L441.3,160.62L442.19,158.68L443.19,158.49L443.96,157.13L443.97,156.93L444.21,156.55L445.11,156.35L446.15,151.89L447.37,151.69L447.68,151.11L448.37,150.92L451.44,148.2L451.46,148.01L451.52,147.62L452.4,147.42L453.86,144.7L453.86,144.51L454.25,143.54L454.25,143.35L454.86,140.82L455.09,140.63L456.51,134.42L456.51,134.22L457.49,130.53L457.62,130.34L458.28,128.4L458.98,128.2L459.58,127.23L459.59,127.04L460.9,124.9L462.05,124.71L463.56,122.77L463.58,122.57L466.93,116.17L466.95,115.97L467.78,114.03L467.94,113.84L468.7,111.12L469.17,110.93L470.2,109.96L470.2,109.76L470.54,108.21L471.09,108.02L471.64,107.24L471.95,107.04L473.11,104.72L473.11,104.52L474.04,100.64L474.13,100.44L475.47,98.11L475.89,97.92L477.09,95.79L477.24,95.59L478.46,92.68L478.47,92.49L480.04,89.57L480.49,89.38L482.38,82.78L482.69,82.58L484.53,81.42L484.58,81.23L485.34,78.9L485.47,78.7L487.28,73.46L487.67,73.27L488.41,70.16L488.45,69.97L488.7,69.19L489.34,69L492.26,66.08L492.26,65.89L492.85,64.92L494.06,64.73L494.79,63.56L495.04,63.37L495.94,60.84L496.24,60.65L498.15,58.32L498.87,58.13L499.76,55.21L499.79,55.02L500.27,54.05L501.15,53.85L504.97,51.91L504.98,51.72L507.34,47.06L508.56,46.87L509.5,45.9L509.95,45.7L511.26,44.15L512.14,43.95L515.12,41.24L515.74,41.04L519.36,38.32L519.39,38.13L520.81,36.19L521.31,35.99L522.72,33.28L523.53,33.08L524,32.11L524.36,31.92L525.08,31.14L525.44,30.95L527.09,29.78L528.51,29.59L529.56,26.09L529.8,25.9L533.12,23.77L535.44,23.57L536.15,21.24L536.28,21.05L537.03,20.66L537.04,20.46L538.07,18.91L538.12,18.72L539.41,16.58L539.87,16.39L540,16" style="vector-effect: none; fill: none; stroke: rgb(44, 160, 44); stroke-opacity: 1; stroke-width: 2px; opacity: 1;"/></g><g class="points"/><g class="text"/></g></g></g></g><g class="zerolinelayer-above"/><path class="xlines-above crisp" d="M0,0" style="fill: none;"/><path class="ylines-above crisp" d="M0,0" style="fill: none;"/><g class="overlines-above"/><g class="xaxislayer-above"><g class="xtick"><text text-anchor="middle" x="0" y="439" transform="translate(97.59,0)" style="font-family: 'Open Sans'; font-size: 18px; fill: rgb(0, 0, 0); fill-opacity: 1; white-space: pre;">2016</text></g><g class="xtick"><text text-anchor="middle" x="0" y="439" style="font-family: 'Open Sans'; font-size: 18px; fill: rgb(0, 0, 0); fill-opacity: 1; white-space: pre;" transform="translate(205.26,0)">2018</text></g><g class="xtick"><text text-anchor="middle" x="0" y="439" style="font-family: 'Open Sans'; font-size: 18px; fill: rgb(0, 0, 0); fill-opacity: 1; white-space: pre;" transform="translate(312.78999999999996,0)">2020</text></g><g class="xtick"><text text-anchor="middle" x="0" y="439" style="font-family: 'Open Sans'; font-size: 18px; fill: rgb(0, 0, 0); fill-opacity: 1; white-space: pre;" transform="translate(420.46,0)">2022</text></g><g class="xtick"><text text-anchor="middle" x="0" y="439" style="font-family: 'Open Sans'; font-size: 18px; fill: rgb(0, 0, 0); fill-opacity: 1; white-space: pre;" transform="translate(527.99,0)">2024</text></g></g><g class="yaxislayer-above"><g class="ytick"><text text-anchor="end" x="79" y="6.3" transform="translate(0,420)" style="font-family: 'Open Sans'; font-size: 18px; fill: rgb(0, 0, 0); fill-opacity: 1; white-space: pre;">0</text></g><g class="ytick"><text text-anchor="end" x="79" y="6.3" style="font-family: 'Open Sans'; font-size: 18px; fill: rgb(0, 0, 0); fill-opacity: 1; white-space: pre;" transform="translate(0,381.17)">200</text></g><g class="ytick"><text text-anchor="end" x="79" y="6.3" style="font-family: 'Open Sans'; font-size: 18px; fill: rgb(0, 0, 0); fill-opacity: 1; white-space: pre;" transform="translate(0,342.35)">400</text></g><g class="ytick"><text text-anchor="end" x="79" y="6.3" style="font-family: 'Open Sans'; font-size: 18px; fill: rgb(0, 0, 0); fill-opacity: 1; white-space: pre;" transform="translate(0,303.52)">600</text></g><g class="ytick"><text text-anchor="end" x="79" y="6.3" style="font-family: 'Open Sans'; font-size: 18px; fill: rgb(0, 0, 0); fill-opacity: 1; white-space: pre;" transform="translate(0,264.7)">800</text></g><g class="ytick"><text text-anchor="end" x="79" y="6.3" style="font-family: 'Open Sans'; font-size: 18px; fill: rgb(0, 0, 0); fill-opacity: 1; white-space: pre;" transform="translate(0,225.87)">1000</text></g><g class="ytick"><text text-anchor="end" x="79" y="6.3" style="font-family: 'Open Sans'; font-size: 18px; fill: rgb(0, 0, 0); fill-opacity: 1; white-space: pre;" transform="translate(0,187.05)">1200</text></g><g class="ytick"><text text-anchor="end" x="79" y="6.3" style="font-family: 'Open Sans'; font-size: 18px; fill: rgb(0, 0, 0); fill-opacity: 1; white-space: pre;" transform="translate(0,148.22)">1400</text></g><g class="ytick"><text text-anchor="end" x="79" y="6.3" style="font-family: 'Open Sans'; font-size: 18px; fill: rgb(0, 0, 0); fill-opacity: 1; white-space: pre;" transform="translate(0,109.4)">1600</text></g></g><g class="overaxes-above"/></g></g><g class="polarlayer"/><g class="smithlayer"/><g class="ternarylayer"/><g class="geolayer"/><g class="funnelarealayer"/><g class="pielayer"/><g class="iciclelayer"/><g class="treemaplayer"/><g class="sunburstlayer"/><g class="glimages"/><defs id="topdefs-a9f536"><g class="clips"/></defs><g class="layer-above"><g class="imagelayer"/><g class="shapelayer"/></g><g class="infolayer"><g class="g-gtitle"><text class="gtitle" x="35" y="50" text-anchor="start" dy="0em" style="opacity: 1; font-family: 'Open Sans'; font-size: 25px; fill: rgb(0, 0, 0); fill-opacity: 1; white-space: pre;">MultiQC/MultiQC - Pull Requests Created Over Time</text></g><g class="g-xtitle"><text class="xtitle" x="350" y="472.9" text-anchor="middle" style="opacity: 1; font-family: 'Open Sans'; font-size: 22px; fill: rgb(0, 0, 0); fill-opacity: 1; white-space: pre;">Date</text></g><g class="g-ytitle"><text class="ytitle" transform="rotate(-90,20.799999999999997,260)" x="20.799999999999997" y="260" text-anchor="middle" style="opacity: 1; font-family: 'Open Sans'; font-size: 22px; fill: rgb(0, 0, 0); fill-opacity: 1; white-space: pre;">Cumulative PRs Created</text></g></g></svg>