<svg class="main-svg" xmlns="http://www.w3.org/2000/svg" xmlns:xlink="http://www.w3.org/1999/xlink" width="700" height="500" style="" viewBox="0 0 700 500"><rect x="0" y="0" width="700" height="500" style="fill: rgb(0, 0, 0); fill-opacity: 0;"/><defs id="defs-46fcbc"><g class="clips"><clipPath id="clip46fcbcxyplot" class="plotclip"><rect width="540" height="320"/></clipPath><clipPath class="axesclip" id="clip46fcbcx"><rect x="80" y="0" width="540" height="500"/></clipPath><clipPath class="axesclip" id="clip46fcbcy"><rect x="0" y="100" width="700" height="320"/></clipPath><clipPath class="axesclip" id="clip46fcbcxy"><rect x="80" y="100" width="540" height="320"/></clipPath></g><g class="gradients"/><g class="patterns"/></defs><g class="bglayer"><rect class="bg" x="80" y="100" width="540" height="320" style="fill: rgb(0, 0, 0); fill-opacity: 0; stroke-width: 0;"/></g><g class="layer-below"><g class="imagelayer"/><g class="shapelayer"/></g><g class="cartesianlayer"><g class="subplot xy"><g class="layer-subplot"><g class="shapelayer"/><g class="imagelayer"/></g><g class="minor-gridlayer"><g class="x"/><g class="y"/></g><g class="gridlayer"><g class="x"><path class="xgrid crisp" transform="translate(97.3,0)" d="M0,100v320" style="stroke: rgb(255, 255, 255); stroke-opacity: 1; stroke-width: 1px;"/><path class="xgrid crisp" transform="translate(203.24,0)" d="M0,100v320" style="stroke: rgb(255, 255, 255); stroke-opacity: 1; stroke-width: 1px;"/><path class="xgrid crisp" transform="translate(309.02,0)" d="M0,100v320" style="stroke: rgb(255, 255, 255); stroke-opacity: 1; stroke-width: 1px;"/><path class="xgrid crisp" transform="translate(414.96,0)" d="M0,100v320" style="stroke: rgb(255, 255, 255); stroke-opacity: 1; stroke-width: 1px;"/><path class="xgrid crisp" transform="translate(520.75,0)" d="M0,100v320" style="stroke: rgb(255, 255, 255); stroke-opacity: 1; stroke-width: 1px;"/></g><g class="y"><path class="ygrid crisp" transform="translate(0,370.97)" d="M80,0h540" style="stroke: rgb(255, 255, 255); stroke-opacity: 1; stroke-width: 1px;"/><path class="ygrid crisp" transform="translate(0,321.94)" d="M80,0h540" style="stroke: rgb(255, 255, 255); stroke-opacity: 1; stroke-width: 1px;"/><path class="ygrid crisp" transform="translate(0,272.9)" d="M80,0h540" style="stroke: rgb(255, 255, 255); stroke-opacity: 1; stroke-width: 1px;"/><path class="ygrid crisp" transform="translate(0,223.87)" d="M80,0h540" style="stroke: rgb(255, 255, 255); stroke-opacity: 1; stroke-width: 1px;"/><path class="ygrid crisp" transform="translate(0,174.84)" d="M80,0h540" style="stroke: rgb(255, 255, 255); stroke-opacity: 1; stroke-width: 1px;"/><path class="ygrid crisp" transform="translate(0,125.81)" d="M80,0h540" style="stroke: rgb(255, 255, 255); stroke-opacity: 1; stroke-width: 1px;"/></g></g><g class="zerolinelayer"><path class="yzl zl crisp" transform="translate(0,420)" d="M80,0h540" style="stroke: rgb(255, 255, 255); stroke-opacity: 1; stroke-width: 2px;"/></g><g class="layer-between"><g class="shapelayer"/><g class="imagelayer"/></g><path class="xlines-below"/><path class="ylines-below"/><g class="overlines-below"/><g class="xaxislayer-below"/><g class="yaxislayer-below"/><g class="overaxes-below"/><g class="overplot"><g class="xy" transform="translate(80,100)" clip-path="url(#clip46fcbcxyplot)"><g class="scatterlayer mlayer"><g class="trace scatter trace966348" style="stroke-miterlimit: 2;"><g class="fills"><g><path class="js-fill" d="M540,320L0,320L0,315.1L0.1,320L1.05,315.1L1.75,320L1.86,315.1L1.86,320L3.15,315.1L3.62,320L3.91,315.1L3.91,320L4.79,315.1L4.79,320L4.89,320L5.64,315.1L5.64,320L6.24,320L7.1,315.1L7.1,320L7.69,320L9.25,315.1L9.25,320L9.91,315.1L10.13,320L11.88,315.1L11.88,320L14.78,315.1L14.78,320L22.32,315.1L22.32,320L22.52,315.1L22.52,320L24.17,315.1L24.17,310.19L24.31,315.1L25.48,320L27.22,315.1L27.22,320L28.11,310.19L28.11,315.1L28.56,310.19L28.56,315.1L28.56,320L31.45,315.1L31.45,320L31.59,315.1L31.59,320L32.86,315.1L33.48,320L34.39,315.1L34.39,320L35.18,315.1L35.18,320L35.69,320L35.94,315.1L36.04,320L37.26,315.1L38.69,310.19L39.13,315.1L39.26,310.19L39.26,315.1L40.58,320L41.32,315.1L41.32,320L43.06,315.1L43.06,320L44.17,315.1L44.17,320L44.67,300.39L44.78,305.29L45.32,310.19L45.77,315.1L46.22,310.19L46.23,315.1L47.51,310.19L51.44,305.29L51.44,310.19L51.74,315.1L52.55,310.19L53.48,320L54.92,315.1L55.32,320L58.53,315.1L58.54,320L58.54,315.1L60.07,310.19L60.4,315.1L61.2,310.19L61.99,305.29L62.02,310.19L62.02,305.29L62.61,320L64.49,315.1L64.79,320L65.48,315.1L65.64,310.19L66.63,315.1L66.81,305.29L66.94,310.19L67.79,315.1L68.1,310.19L68.1,315.1L68.67,310.19L68.74,300.39L68.86,320L68.94,320L69.54,315.1L70.41,310.19L70.41,315.1L71.16,305.29L71.16,310.19L71.88,305.29L76.49,300.39L76.97,295.48L78.69,320L79.71,315.1L79.71,320L80.7,315.1L81.93,310.19L81.98,315.1L82.92,310.19L83.07,305.29L84.01,295.48L84.01,300.39L84.03,305.29L85.2,295.48L85.21,300.39L86.06,295.48L86.06,300.39L86.36,305.29L86.94,300.39L86.94,305.29L86.95,300.39L88.8,305.29L88.98,300.39L88.98,305.29L89.89,300.39L90.13,305.29L90.87,300.39L91.34,295.48L92.12,300.39L92.86,295.48L93.15,300.39L95.47,295.48L95.47,300.39L96.07,295.48L96.09,300.39L97.5,305.29L98.02,300.39L98.22,305.29L98.37,300.39L98.38,305.29L99.41,300.39L99.42,270.97L100.13,295.48L100.41,300.39L100.42,305.29L100.58,295.48L100.98,295.48L101.58,290.58L102.31,295.48L102.49,290.58L103.03,280.77L103.2,290.58L103.29,295.48L103.93,275.87L104.05,285.68L105.04,290.58L105.48,275.87L105.48,275.87L106.03,280.77L107.1,256.26L108.07,251.35L109.11,256.26L109.41,251.35L109.54,261.16L110.14,261.16L110.27,256.26L110.58,275.87L110.71,270.97L111.37,266.06L111.88,246.45L111.89,251.35L112.28,256.26L112.32,261.16L113.18,256.26L113.31,251.35L113.33,256.26L114.64,261.16L114.76,280.77L115.35,275.87L115.36,270.97L115.37,280.77L116.49,275.87L116.49,280.77L118.68,275.87L118.69,270.97L118.69,280.77L120.71,275.87L120.73,280.77L120.73,275.87L121.81,280.77L121.87,275.87L123.75,270.97L124.6,280.77L124.61,275.87L124.76,280.77L124.93,275.87L124.94,280.77L125.78,275.87L126.11,280.77L126.83,275.87L126.85,280.77L128.52,275.87L128.54,280.77L130.43,275.87L130.53,280.77L130.93,275.87L131.43,270.97L131.55,275.87L132.46,270.97L132.46,275.87L132.88,256.26L133.02,256.26L133.42,251.35L133.78,275.87L134.78,270.97L134.89,280.77L135.08,280.77L135.79,275.87L136.79,270.97L136.91,266.06L136.91,270.97L137.48,270.97L137.67,266.06L138.51,251.35L138.54,256.26L139.55,241.55L139.55,236.65L139.55,231.74L139.7,261.16L140.99,256.26L141.11,251.35L141.12,256.26L142.58,251.35L143.37,270.97L144.6,266.06L145.02,270.97L146.65,266.06L147.76,261.16L147.76,266.06L149.11,251.35L149.11,256.26L149.37,261.16L149.4,266.06L149.8,256.26L149.81,261.16L150.14,256.26L150.14,261.16L151.15,266.06L151.32,275.87L152.05,270.97L152.14,266.06L153.78,261.16L154.32,246.45L154.33,251.35L154.33,256.26L154.39,270.97L156.22,266.06L156.32,270.97L156.36,266.06L157.98,261.16L157.99,266.06L159.38,261.16L159.38,266.06L159.81,261.16L160.27,256.26L160.97,251.35L161.01,256.26L163.91,261.16L167.01,251.35L167.76,246.45L168.55,251.35L169.27,246.45L169.28,251.35L172,246.45L172.47,251.35L173.09,246.45L174.33,241.55L174.58,246.45L174.58,241.55L174.62,280.77L174.62,275.87L177.06,270.97L177.07,275.87L179.45,280.77L180.57,275.87L180.57,280.77L181.21,275.87L181.24,280.77L183.49,275.87L183.65,270.97L185.06,275.87L185.08,280.77L185.39,246.45L185.68,241.55L185.79,261.16L187.34,256.26L187.68,241.55L189.37,236.65L189.88,231.74L189.89,236.65L192.13,231.74L192.62,236.65L193.98,231.74L194.28,236.65L194.59,231.74L196.81,226.84L199.85,221.94L199.96,226.84L200.88,221.94L201.59,226.84L201.63,217.03L201.85,221.94L202.75,226.84L203.01,246.45L203.85,251.35L203.93,256.26L204.03,246.45L207.53,241.55L208.1,246.45L208.8,241.55L208.95,236.65L211.14,231.74L214.15,226.84L215.76,221.94L215.78,217.03L217.13,212.13L217.93,217.03L217.94,212.13L218.25,246.45L218.26,241.55L219.26,246.45L219.69,251.35L219.7,246.45L220.87,251.35L221.34,261.16L221.72,256.26L221.74,261.16L222.27,246.45L222.31,256.26L222.89,261.16L222.92,266.06L223.84,261.16L225.04,256.26L225.06,261.16L227.08,251.35L227.37,246.45L229.77,241.55L230.91,246.45L232.53,241.55L233.02,236.65L235.37,226.84L235.38,231.74L236.25,217.03L238.11,212.13L238.4,197.42L238.94,192.52L240.03,182.71L240.08,187.61L242.36,153.29L242.44,158.19L242.45,163.1L242.6,148.39L243.2,153.29L243.32,148.39L244.63,143.48L244.78,138.58L245.06,153.29L245.06,158.19L245.23,187.61L245.52,177.81L246.02,172.9L247.09,256.26L247.33,251.35L247.51,246.45L247.53,241.55L248.14,256.26L248.23,251.35L248.42,246.45L249.37,261.16L249.38,256.26L249.38,251.35L250.13,270.97L250.39,266.06L250.39,270.97L250.59,251.35L251.12,261.16L251.15,266.06L251.7,261.16L252.41,256.26L252.45,251.35L253.27,256.26L253.78,246.45L254.43,241.55L255.31,231.74L255.31,236.65L255.37,231.74L256.19,226.84L256.19,231.74L256.79,226.84L257.57,221.94L257.68,217.03L258.64,221.94L262.35,217.03L262.45,212.13L262.71,207.23L263.02,212.13L264.64,207.23L265.6,197.42L265.96,192.52L266.35,187.61L267.97,182.71L268.42,168L268.63,182.71L268.63,187.61L269.87,163.1L271.98,158.19L272.05,148.39L273.1,143.48L274.77,133.68L274.8,138.58L274.82,172.9L275.46,153.29L275.75,148.39L275.75,153.29L275.89,148.39L278.07,143.48L279.79,138.58L279.99,133.68L281.77,128.77L281.77,133.68L281.78,128.77L281.78,133.68L282.75,128.77L282.95,123.87L283.64,128.77L284.17,148.39L284.35,143.48L284.61,148.39L284.82,153.29L286.39,148.39L286.92,153.29L287.26,148.39L289.04,138.58L289.04,143.48L289.9,133.68L289.96,128.77L291.13,133.68L291.18,138.58L291.19,133.68L291.63,192.52L291.71,192.52L294.31,187.61L294.81,192.52L295.2,187.61L295.22,192.52L298.09,187.61L298.81,197.42L298.84,192.52L298.95,187.61L299.22,192.52L299.92,197.42L300.1,187.61L300.1,192.52L302.5,187.61L302.51,182.71L303.31,177.81L305.37,172.9L305.91,168L306.06,153.29L306.11,177.81L306.47,168L306.94,172.9L307.42,182.71L307.65,177.81L307.91,172.9L308.72,236.65L308.96,231.74L309.95,217.03L310.59,212.13L311.61,187.61L312.59,182.71L313.5,177.81L313.61,172.9L314.47,158.19L314.51,163.1L315.49,109.16L317.73,104.26L319.68,99.35L319.68,94.45L323.12,99.35L323.2,94.45L324.48,89.55L324.91,84.65L326.96,65.03L326.96,60.13L327.1,50.32L327.5,153.29L327.82,148.39L328.27,143.48L328.29,158.19L328.54,153.29L328.7,148.39L329.74,123.87L329.86,128.77L332.25,123.87L332.76,118.97L333.05,123.87L334.03,118.97L334.43,123.87L335.61,118.97L337.09,123.87L337.11,138.58L337.78,133.68L338.5,138.58L338.95,168L339.37,172.9L339.51,168L339.82,182.71L340.03,177.81L340.42,182.71L340.99,177.81L341.83,163.1L342.73,158.19L342.96,148.39L343.62,143.48L344.49,153.29L344.9,148.39L344.9,153.29L345.63,148.39L345.91,153.29L345.91,163.1L346.48,158.19L347.84,153.29L348.06,143.48L348.5,158.19L348.52,158.19L348.52,163.1L349.18,153.29L349.4,148.39L350.2,138.58L350.22,143.48L353.35,138.58L353.74,143.48L355.15,138.58L355.6,133.68L355.61,138.58L356.37,143.48L356.66,138.58L356.74,148.39L357.51,143.48L358.64,128.77L358.64,133.68L359.09,123.87L359.66,118.97L360.11,128.77L360.12,118.97L360.66,123.87L361.26,118.97L361.27,123.87L362,118.97L362.15,123.87L362.84,118.97L363.41,114.06L363.62,118.97L364.02,104.26L364.08,114.06L364.88,109.16L364.92,104.26L365.76,99.35L366.89,94.45L366.98,89.55L367.71,69.94L368.08,65.03L368.2,69.94L369.94,65.03L370.23,60.13L371.32,55.23L371.47,99.35L371.59,99.35L373.09,94.45L374.04,89.55L374.05,94.45L375.92,89.55L375.92,94.45L376.35,89.55L378.82,84.65L378.82,89.55L379.51,89.55L380.12,84.65L380.89,65.03L380.95,69.94L382.16,65.03L382.26,55.23L382.71,79.74L382.71,84.65L383.08,79.74L383.31,84.65L384.3,79.74L385.14,60.13L385.35,55.23L385.95,79.74L386.06,65.03L386.25,60.13L386.98,89.55L387.22,84.65L387.87,128.77L387.99,123.87L388.07,128.77L388.07,133.68L388.71,133.68L388.84,138.58L388.87,158.19L389.25,153.29L390.01,158.19L390.02,153.29L390.06,158.19L392.55,153.29L393.17,138.58L393.2,143.48L393.44,148.39L397.06,143.48L397.08,148.39L397.81,138.58L398.73,143.48L399.87,138.58L400.81,133.68L400.81,138.58L402.69,133.68L402.84,123.87L403.88,128.77L404.43,118.97L404.44,114.06L404.45,94.45L408.27,99.35L409.37,79.74L411.53,74.84L412.03,65.03L412.03,69.94L412.03,74.84L414.16,65.03L414.62,60.13L417.44,50.32L417.64,45.42L418.22,40.52L418.22,45.42L418.4,50.32L419.01,74.84L419.14,69.94L419.76,65.03L419.8,69.94L420.13,45.42L420.54,40.52L420.73,25.81L420.93,40.52L420.93,45.42L420.94,55.23L421.59,35.61L421.72,30.71L422.01,25.81L422.11,40.52L422.13,45.42L422.18,40.52L422.85,60.13L422.9,55.23L422.98,50.32L422.99,69.94L423.63,65.03L423.9,60.13L424.64,55.23L424.66,50.32L425.09,79.74L425.59,69.94L425.62,65.03L426.02,35.61L426.21,89.55L426.53,84.65L426.97,55.23L427.12,74.84L427.12,79.74L427.18,89.55L427.75,74.84L427.79,79.74L428.41,74.84L428.55,89.55L429.13,65.03L429.21,60.13L429.27,65.03L429.65,35.61L429.65,30.71L429.69,16L429.82,99.35L430.15,79.74L430.56,74.84L431,65.03L431.09,74.84L431.23,79.74L431.9,69.94L432.17,74.84L432.7,89.55L432.88,79.74L432.99,84.65L433.34,74.84L433.72,99.35L433.85,94.45L434.17,79.74L434.32,104.26L434.34,99.35L434.75,94.45L435.43,118.97L436.03,114.06L436.38,118.97L436.39,109.16L436.78,104.26L437.03,79.74L437.77,84.65L437.91,109.16L438.22,74.84L438.39,84.65L438.56,89.55L438.79,84.65L438.96,99.35L440.14,94.45L440.28,104.26L440.45,94.45L441.12,89.55L441.28,94.45L441.47,84.65L441.82,79.74L441.85,94.45L442.26,84.65L442.97,79.74L443.49,74.84L443.49,79.74L443.5,84.65L444.04,74.84L444.04,69.94L444.04,65.03L444.08,84.65L444.22,69.94L445.09,65.03L445.32,50.32L445.45,69.94L445.53,74.84L446.26,114.06L446.52,104.26L446.53,99.35L446.9,94.45L446.9,104.26L446.9,109.16L446.9,104.26L446.9,118.97L447.51,114.06L447.74,109.16L447.99,114.06L448.24,94.45L448.27,104.26L448.37,99.35L448.39,94.45L448.84,128.77L448.96,128.77L449.11,123.87L449.22,94.45L449.24,128.77L449.88,104.26L449.95,99.35L450.14,109.16L450.58,84.65L450.86,89.55L451.4,133.68L451.57,128.77L452,133.68L452.44,109.16L452.74,114.06L452.99,109.16L453,114.06L453.45,104.26L453.45,104.26L454.58,99.35L455.2,89.55L455.2,94.45L456.02,89.55L456.07,84.65L456.09,123.87L456.51,118.97L457.06,123.87L457.18,128.77L457.33,109.16L457.33,109.16L457.35,104.26L457.77,89.55L458.1,114.06L458.18,109.16L458.43,99.35L458.79,133.68L458.79,128.77L459.09,133.68L459.41,118.97L459.69,128.77L460.01,133.68L460.38,138.58L460.72,118.97L460.72,123.87L461.13,118.97L462.24,104.26L462.58,109.16L462.6,104.26L462.74,123.87L463.18,123.87L463.48,118.97L463.49,123.87L463.76,114.06L464.02,123.87L464.32,118.97L464.64,138.58L464.9,128.77L465.22,133.68L465.9,123.87L465.9,128.77L466.15,123.87L466.33,109.16L466.34,128.77L466.52,118.97L467.24,123.87L467.24,118.97L467.79,138.58L468.21,133.68L468.51,128.77L468.52,138.58L468.81,133.68L469.1,128.77L469.79,123.87L469.79,128.77L469.96,133.68L469.97,128.77L470.11,153.29L470.67,148.39L470.73,143.48L470.81,138.58L471.41,153.29L471.43,148.39L471.54,153.29L472.26,128.77L472.27,148.39L472.27,153.29L472.27,148.39L472.41,158.19L473.01,153.29L473.27,148.39L473.27,158.19L474.01,158.19L474.04,153.29L474.58,168L474.59,163.1L474.89,158.19L475.74,153.29L475.87,158.19L476.67,148.39L476.68,143.48L476.78,172.9L477.34,158.19L477.5,153.29L477.5,172.9L478.24,168L478.33,172.9L478.52,158.19L478.66,163.1L479.22,158.19L479.22,163.1L479.97,143.48L479.97,153.29L479.98,148.39L479.98,143.48L480.39,163.1L480.71,158.19L480.74,153.29L481.43,143.48L481.69,148.39L481.69,153.29L481.71,143.48L481.73,148.39L482.7,143.48L482.7,148.39L483.32,138.58L483.32,143.48L483.47,138.58L484.46,123.87L484.46,128.77L484.58,133.68L484.89,123.87L485.82,128.77L485.9,133.68L486.46,123.87L486.46,128.77L486.5,123.87L487.04,148.39L487.08,148.39L487.48,143.48L487.5,153.29L488.22,133.68L488.35,128.77L488.52,123.87L488.52,143.48L488.83,133.68L488.84,138.58L489.5,133.68L489.5,138.58L489.88,133.68L489.88,138.58L490.1,123.87L490.12,138.58L490.81,133.68L490.96,158.19L491.54,153.29L491.57,148.39L491.62,143.48L492.27,172.9L493.06,168L493.46,172.9L493.49,168L494.16,163.1L494.72,172.9L495.51,168L495.96,158.19L496.37,163.1L496.46,168L496.82,158.19L496.83,163.1L496.89,168L496.91,172.9L496.94,163.1L497.62,168L497.63,163.1L497.63,168L498.06,153.29L498.12,158.19L498.82,163.1L498.96,153.29L499.46,163.1L500.34,158.19L501.22,153.29L501.22,158.19L501.26,163.1L501.83,153.29L501.84,163.1L502.73,158.19L502.85,148.39L502.86,163.1L503,153.29L503.86,158.19L504.46,138.58L504.79,133.68L505.32,138.58L505.5,133.68L505.5,128.77L506.15,109.16L506.16,138.58L506.26,133.68L506.8,123.87L506.8,133.68L506.8,138.58L507.41,133.68L507.65,138.58L507.77,133.68L508.09,148.39L508.76,153.29L509.25,143.48L509.37,153.29L509.37,158.19L509.37,153.29L509.77,168L510.07,168L510.23,163.1L510.85,158.19L510.94,163.1L510.96,168L511.16,153.29L511.31,158.19L511.97,153.29L512.84,168L512.88,163.1L513.13,168L513.57,158.19L513.84,163.1L514.18,148.39L514.27,158.19L515.07,153.29L515.46,163.1L515.53,148.39L515.89,143.48L516.47,133.68L516.59,158.19L516.6,153.29L516.62,158.19L518.58,128.77L518.99,133.68L518.99,138.58L519.97,133.68L520.23,143.48L520.68,123.87L520.69,143.48L520.73,138.58L521.55,133.68L522.99,128.77L524.18,109.16L524.29,114.06L524.29,123.87L524.46,109.16L524.5,109.16L526.78,114.06L527.17,104.26L527.5,143.48L527.61,138.58L527.62,143.48L527.62,138.58L528.36,133.68L528.36,128.77L528.64,138.58L528.66,133.68L529.24,128.77L529.38,109.16L529.65,123.87L530.1,128.77L530.7,109.16L531.15,104.26L531.27,109.16L531.44,99.35L531.44,109.16L533.4,104.26L533.4,109.16L535.23,104.26L536.66,84.65L536.82,79.74L536.88,69.94L536.88,84.65L537.35,79.74L537.69,74.84L539.25,65.03L539.5,60.13L539.5,65.03L540,50.32" style="fill: rgb(44, 160, 44); fill-opacity: 0.5; stroke-width: 0;"/></g></g><g class="errorbars"/><g class="lines"><path class="js-line" d="M0,315.1L0.1,320L1.05,315.1L1.75,320L1.86,315.1L1.86,320L3.15,315.1L3.62,320L3.91,315.1L3.91,320L4.79,315.1L4.79,320L4.89,320L5.64,315.1L5.64,320L6.24,320L7.1,315.1L7.1,320L7.69,320L9.25,315.1L9.25,320L9.91,315.1L10.13,320L11.88,315.1L11.88,320L14.78,315.1L14.78,320L22.32,315.1L22.32,320L22.52,315.1L22.52,320L24.17,315.1L24.17,310.19L24.31,315.1L25.48,320L27.22,315.1L27.22,320L28.11,310.19L28.11,315.1L28.56,310.19L28.56,315.1L28.56,320L31.45,315.1L31.45,320L31.59,315.1L31.59,320L32.86,315.1L33.48,320L34.39,315.1L34.39,320L35.18,315.1L35.18,320L35.69,320L35.94,315.1L36.04,320L37.26,315.1L38.69,310.19L39.13,315.1L39.26,310.19L39.26,315.1L40.58,320L41.32,315.1L41.32,320L43.06,315.1L43.06,320L44.17,315.1L44.17,320L44.67,300.39L44.78,305.29L45.32,310.19L45.77,315.1L46.22,310.19L46.23,315.1L47.51,310.19L51.44,305.29L51.44,310.19L51.74,315.1L52.55,310.19L53.48,320L54.92,315.1L55.32,320L58.53,315.1L58.54,320L58.54,315.1L60.07,310.19L60.4,315.1L61.2,310.19L61.99,305.29L62.02,310.19L62.02,305.29L62.61,320L64.49,315.1L64.79,320L65.48,315.1L65.64,310.19L66.63,315.1L66.81,305.29L66.94,310.19L67.79,315.1L68.1,310.19L68.1,315.1L68.67,310.19L68.74,300.39L68.86,320L68.94,320L69.54,315.1L70.41,310.19L70.41,315.1L71.16,305.29L71.16,310.19L71.88,305.29L76.49,300.39L76.97,295.48L78.69,320L79.71,315.1L79.71,320L80.7,315.1L81.93,310.19L81.98,315.1L82.92,310.19L83.07,305.29L84.01,295.48L84.01,300.39L84.03,305.29L85.2,295.48L85.21,300.39L86.06,295.48L86.06,300.39L86.36,305.29L86.94,300.39L86.94,305.29L86.95,300.39L88.8,305.29L88.98,300.39L88.98,305.29L89.89,300.39L90.13,305.29L90.87,300.39L91.34,295.48L92.12,300.39L92.86,295.48L93.15,300.39L95.47,295.48L95.47,300.39L96.07,295.48L96.09,300.39L97.5,305.29L98.02,300.39L98.22,305.29L98.37,300.39L98.38,305.29L99.41,300.39L99.42,270.97L100.13,295.48L100.41,300.39L100.42,305.29L100.58,295.48L100.98,295.48L101.58,290.58L102.31,295.48L102.49,290.58L103.03,280.77L103.2,290.58L103.29,295.48L103.93,275.87L104.05,285.68L105.04,290.58L105.48,275.87L105.48,275.87L106.03,280.77L107.1,256.26L108.07,251.35L109.11,256.26L109.41,251.35L109.54,261.16L110.14,261.16L110.27,256.26L110.58,275.87L110.71,270.97L111.37,266.06L111.88,246.45L111.89,251.35L112.28,256.26L112.32,261.16L113.18,256.26L113.31,251.35L113.33,256.26L114.64,261.16L114.76,280.77L115.35,275.87L115.36,270.97L115.37,280.77L116.49,275.87L116.49,280.77L118.68,275.87L118.69,270.97L118.69,280.77L120.71,275.87L120.73,280.77L120.73,275.87L121.81,280.77L121.87,275.87L123.75,270.97L124.6,280.77L124.61,275.87L124.76,280.77L124.93,275.87L124.94,280.77L125.78,275.87L126.11,280.77L126.83,275.87L126.85,280.77L128.52,275.87L128.54,280.77L130.43,275.87L130.53,280.77L130.93,275.87L131.43,270.97L131.55,275.87L132.46,270.97L132.46,275.87L132.88,256.26L133.02,256.26L133.42,251.35L133.78,275.87L134.78,270.97L134.89,280.77L135.08,280.77L135.79,275.87L136.79,270.97L136.91,266.06L136.91,270.97L137.48,270.97L137.67,266.06L138.51,251.35L138.54,256.26L139.55,241.55L139.55,236.65L139.55,231.74L139.7,261.16L140.99,256.26L141.11,251.35L141.12,256.26L142.58,251.35L143.37,270.97L144.6,266.06L145.02,270.97L146.65,266.06L147.76,261.16L147.76,266.06L149.11,251.35L149.11,256.26L149.37,261.16L149.4,266.06L149.8,256.26L149.81,261.16L150.14,256.26L150.14,261.16L151.15,266.06L151.32,275.87L152.05,270.97L152.14,266.06L153.78,261.16L154.32,246.45L154.33,251.35L154.33,256.26L154.39,270.97L156.22,266.06L156.32,270.97L156.36,266.06L157.98,261.16L157.99,266.06L159.38,261.16L159.38,266.06L159.81,261.16L160.27,256.26L160.97,251.35L161.01,256.26L163.91,261.16L167.01,251.35L167.76,246.45L168.55,251.35L169.27,246.45L169.28,251.35L172,246.45L172.47,251.35L173.09,246.45L174.33,241.55L174.58,246.45L174.58,241.55L174.62,280.77L174.62,275.87L177.06,270.97L177.07,275.87L179.45,280.77L180.57,275.87L180.57,280.77L181.21,275.87L181.24,280.77L183.49,275.87L183.65,270.97L185.06,275.87L185.08,280.77L185.39,246.45L185.68,241.55L185.79,261.16L187.34,256.26L187.68,241.55L189.37,236.65L189.88,231.74L189.89,236.65L192.13,231.74L192.62,236.65L193.98,231.74L194.28,236.65L194.59,231.74L196.81,226.84L199.85,221.94L199.96,226.84L200.88,221.94L201.59,226.84L201.63,217.03L201.85,221.94L202.75,226.84L203.01,246.45L203.85,251.35L203.93,256.26L204.03,246.45L207.53,241.55L208.1,246.45L208.8,241.55L208.95,236.65L211.14,231.74L214.15,226.84L215.76,221.94L215.78,217.03L217.13,212.13L217.93,217.03L217.94,212.13L218.25,246.45L218.26,241.55L219.26,246.45L219.69,251.35L219.7,246.45L220.87,251.35L221.34,261.16L221.72,256.26L221.74,261.16L222.27,246.45L222.31,256.26L222.89,261.16L222.92,266.06L223.84,261.16L225.04,256.26L225.06,261.16L227.08,251.35L227.37,246.45L229.77,241.55L230.91,246.45L232.53,241.55L233.02,236.65L235.37,226.84L235.38,231.74L236.25,217.03L238.11,212.13L238.4,197.42L238.94,192.52L240.03,182.71L240.08,187.61L242.36,153.29L242.44,158.19L242.45,163.1L242.6,148.39L243.2,153.29L243.32,148.39L244.63,143.48L244.78,138.58L245.06,153.29L245.06,158.19L245.23,187.61L245.52,177.81L246.02,172.9L247.09,256.26L247.33,251.35L247.51,246.45L247.53,241.55L248.14,256.26L248.23,251.35L248.42,246.45L249.37,261.16L249.38,256.26L249.38,251.35L250.13,270.97L250.39,266.06L250.39,270.97L250.59,251.35L251.12,261.16L251.15,266.06L251.7,261.16L252.41,256.26L252.45,251.35L253.27,256.26L253.78,246.45L254.43,241.55L255.31,231.74L255.31,236.65L255.37,231.74L256.19,226.84L256.19,231.74L256.79,226.84L257.57,221.94L257.68,217.03L258.64,221.94L262.35,217.03L262.45,212.13L262.71,207.23L263.02,212.13L264.64,207.23L265.6,197.42L265.96,192.52L266.35,187.61L267.97,182.71L268.42,168L268.63,182.71L268.63,187.61L269.87,163.1L271.98,158.19L272.05,148.39L273.1,143.48L274.77,133.68L274.8,138.58L274.82,172.9L275.46,153.29L275.75,148.39L275.75,153.29L275.89,148.39L278.07,143.48L279.79,138.58L279.99,133.68L281.77,128.77L281.77,133.68L281.78,128.77L281.78,133.68L282.75,128.77L282.95,123.87L283.64,128.77L284.17,148.39L284.35,143.48L284.61,148.39L284.82,153.29L286.39,148.39L286.92,153.29L287.26,148.39L289.04,138.58L289.04,143.48L289.9,133.68L289.96,128.77L291.13,133.68L291.18,138.58L291.19,133.68L291.63,192.52L291.71,192.52L294.31,187.61L294.81,192.52L295.2,187.61L295.22,192.52L298.09,187.61L298.81,197.42L298.84,192.52L298.95,187.61L299.22,192.52L299.92,197.42L300.1,187.61L300.1,192.52L302.5,187.61L302.51,182.71L303.31,177.81L305.37,172.9L305.91,168L306.06,153.29L306.11,177.81L306.47,168L306.94,172.9L307.42,182.71L307.65,177.81L307.91,172.9L308.72,236.65L308.96,231.74L309.95,217.03L310.59,212.13L311.61,187.61L312.59,182.71L313.5,177.81L313.61,172.9L314.47,158.19L314.51,163.1L315.49,109.16L317.73,104.26L319.68,99.35L319.68,94.45L323.12,99.35L323.2,94.45L324.48,89.55L324.91,84.65L326.96,65.03L326.96,60.13L327.1,50.32L327.5,153.29L327.82,148.39L328.27,143.48L328.29,158.19L328.54,153.29L328.7,148.39L329.74,123.87L329.86,128.77L332.25,123.87L332.76,118.97L333.05,123.87L334.03,118.97L334.43,123.87L335.61,118.97L337.09,123.87L337.11,138.58L337.78,133.68L338.5,138.58L338.95,168L339.37,172.9L339.51,168L339.82,182.71L340.03,177.81L340.42,182.71L340.99,177.81L341.83,163.1L342.73,158.19L342.96,148.39L343.62,143.48L344.49,153.29L344.9,148.39L344.9,153.29L345.63,148.39L345.91,153.29L345.91,163.1L346.48,158.19L347.84,153.29L348.06,143.48L348.5,158.19L348.52,158.19L348.52,163.1L349.18,153.29L349.4,148.39L350.2,138.58L350.22,143.48L353.35,138.58L353.74,143.48L355.15,138.58L355.6,133.68L355.61,138.58L356.37,143.48L356.66,138.58L356.74,148.39L357.51,143.48L358.64,128.77L358.64,133.68L359.09,123.87L359.66,118.97L360.11,128.77L360.12,118.97L360.66,123.87L361.26,118.97L361.27,123.87L362,118.97L362.15,123.87L362.84,118.97L363.41,114.06L363.62,118.97L364.02,104.26L364.08,114.06L364.88,109.16L364.92,104.26L365.76,99.35L366.89,94.45L366.98,89.55L367.71,69.94L368.08,65.03L368.2,69.94L369.94,65.03L370.23,60.13L371.32,55.23L371.47,99.35L371.59,99.35L373.09,94.45L374.04,89.55L374.05,94.45L375.92,89.55L375.92,94.45L376.35,89.55L378.82,84.65L378.82,89.55L379.51,89.55L380.12,84.65L380.89,65.03L380.95,69.94L382.16,65.03L382.26,55.23L382.71,79.74L382.71,84.65L383.08,79.74L383.31,84.65L384.3,79.74L385.14,60.13L385.35,55.23L385.95,79.74L386.06,65.03L386.25,60.13L386.98,89.55L387.22,84.65L387.87,128.77L387.99,123.87L388.07,128.77L388.07,133.68L388.71,133.68L388.84,138.58L388.87,158.19L389.25,153.29L390.01,158.19L390.02,153.29L390.06,158.19L392.55,153.29L393.17,138.58L393.2,143.48L393.44,148.39L397.06,143.48L397.08,148.39L397.81,138.58L398.73,143.48L399.87,138.58L400.81,133.68L400.81,138.58L402.69,133.68L402.84,123.87L403.88,128.77L404.43,118.97L404.44,114.06L404.45,94.45L408.27,99.35L409.37,79.74L411.53,74.84L412.03,65.03L412.03,69.94L412.03,74.84L414.16,65.03L414.62,60.13L417.44,50.32L417.64,45.42L418.22,40.52L418.22,45.42L418.4,50.32L419.01,74.84L419.14,69.94L419.76,65.03L419.8,69.94L420.13,45.42L420.54,40.52L420.73,25.81L420.93,40.52L420.93,45.42L420.94,55.23L421.59,35.61L421.72,30.71L422.01,25.81L422.11,40.52L422.13,45.42L422.18,40.52L422.85,60.13L422.9,55.23L422.98,50.32L422.99,69.94L423.63,65.03L423.9,60.13L424.64,55.23L424.66,50.32L425.09,79.74L425.59,69.94L425.62,65.03L426.02,35.61L426.21,89.55L426.53,84.65L426.97,55.23L427.12,74.84L427.12,79.74L427.18,89.55L427.75,74.84L427.79,79.74L428.41,74.84L428.55,89.55L429.13,65.03L429.21,60.13L429.27,65.03L429.65,35.61L429.65,30.71L429.69,16L429.82,99.35L430.15,79.74L430.56,74.84L431,65.03L431.09,74.84L431.23,79.74L431.9,69.94L432.17,74.84L432.7,89.55L432.88,79.74L432.99,84.65L433.34,74.84L433.72,99.35L433.85,94.45L434.17,79.74L434.32,104.26L434.34,99.35L434.75,94.45L435.43,118.97L436.03,114.06L436.38,118.97L436.39,109.16L436.78,104.26L437.03,79.74L437.77,84.65L437.91,109.16L438.22,74.84L438.39,84.65L438.56,89.55L438.79,84.65L438.96,99.35L440.14,94.45L440.28,104.26L440.45,94.45L441.12,89.55L441.28,94.45L441.47,84.65L441.82,79.74L441.85,94.45L442.26,84.65L442.97,79.74L443.49,74.84L443.49,79.74L443.5,84.65L444.04,74.84L444.04,69.94L444.04,65.03L444.08,84.65L444.22,69.94L445.09,65.03L445.32,50.32L445.45,69.94L445.53,74.84L446.26,114.06L446.52,104.26L446.53,99.35L446.9,94.45L446.9,104.26L446.9,109.16L446.9,104.26L446.9,118.97L447.51,114.06L447.74,109.16L447.99,114.06L448.24,94.45L448.27,104.26L448.37,99.35L448.39,94.45L448.84,128.77L448.96,128.77L449.11,123.87L449.22,94.45L449.24,128.77L449.88,104.26L449.95,99.35L450.14,109.16L450.58,84.65L450.86,89.55L451.4,133.68L451.57,128.77L452,133.68L452.44,109.16L452.74,114.06L452.99,109.16L453,114.06L453.45,104.26L453.45,104.26L454.58,99.35L455.2,89.55L455.2,94.45L456.02,89.55L456.07,84.65L456.09,123.87L456.51,118.97L457.06,123.87L457.18,128.77L457.33,109.16L457.33,109.16L457.35,104.26L457.77,89.55L458.1,114.06L458.18,109.16L458.43,99.35L458.79,133.68L458.79,128.77L459.09,133.68L459.41,118.97L459.69,128.77L460.01,133.68L460.38,138.58L460.72,118.97L460.72,123.87L461.13,118.97L462.24,104.26L462.58,109.16L462.6,104.26L462.74,123.87L463.18,123.87L463.48,118.97L463.49,123.87L463.76,114.06L464.02,123.87L464.32,118.97L464.64,138.58L464.9,128.77L465.22,133.68L465.9,123.87L465.9,128.77L466.15,123.87L466.33,109.16L466.34,128.77L466.52,118.97L467.24,123.87L467.24,118.97L467.79,138.58L468.21,133.68L468.51,128.77L468.52,138.58L468.81,133.68L469.1,128.77L469.79,123.87L469.79,128.77L469.96,133.68L469.97,128.77L470.11,153.29L470.67,148.39L470.73,143.48L470.81,138.58L471.41,153.29L471.43,148.39L471.54,153.29L472.26,128.77L472.27,148.39L472.27,153.29L472.27,148.39L472.41,158.19L473.01,153.29L473.27,148.39L473.27,158.19L474.01,158.19L474.04,153.29L474.58,168L474.59,163.1L474.89,158.19L475.74,153.29L475.87,158.19L476.67,148.39L476.68,143.48L476.78,172.9L477.34,158.19L477.5,153.29L477.5,172.9L478.24,168L478.33,172.9L478.52,158.19L478.66,163.1L479.22,158.19L479.22,163.1L479.97,143.48L479.97,153.29L479.98,148.39L479.98,143.48L480.39,163.1L480.71,158.19L480.74,153.29L481.43,143.48L481.69,148.39L481.69,153.29L481.71,143.48L481.73,148.39L482.7,143.48L482.7,148.39L483.32,138.58L483.32,143.48L483.47,138.58L484.46,123.87L484.46,128.77L484.58,133.68L484.89,123.87L485.82,128.77L485.9,133.68L486.46,123.87L486.46,128.77L486.5,123.87L487.04,148.39L487.08,148.39L487.48,143.48L487.5,153.29L488.22,133.68L488.35,128.77L488.52,123.87L488.52,143.48L488.83,133.68L488.84,138.58L489.5,133.68L489.5,138.58L489.88,133.68L489.88,138.58L490.1,123.87L490.12,138.58L490.81,133.68L490.96,158.19L491.54,153.29L491.57,148.39L491.62,143.48L492.27,172.9L493.06,168L493.46,172.9L493.49,168L494.16,163.1L494.72,172.9L495.51,168L495.96,158.19L496.37,163.1L496.46,168L496.82,158.19L496.83,163.1L496.89,168L496.91,172.9L496.94,163.1L497.62,168L497.63,163.1L497.63,168L498.06,153.29L498.12,158.19L498.82,163.1L498.96,153.29L499.46,163.1L500.34,158.19L501.22,153.29L501.22,158.19L501.26,163.1L501.83,153.29L501.84,163.1L502.73,158.19L502.85,148.39L502.86,163.1L503,153.29L503.86,158.19L504.46,138.58L504.79,133.68L505.32,138.58L505.5,133.68L505.5,128.77L506.15,109.16L506.16,138.58L506.26,133.68L506.8,123.87L506.8,133.68L506.8,138.58L507.41,133.68L507.65,138.58L507.77,133.68L508.09,148.39L508.76,153.29L509.25,143.48L509.37,153.29L509.37,158.19L509.37,153.29L509.77,168L510.07,168L510.23,163.1L510.85,158.19L510.94,163.1L510.96,168L511.16,153.29L511.31,158.19L511.97,153.29L512.84,168L512.88,163.1L513.13,168L513.57,158.19L513.84,163.1L514.18,148.39L514.27,158.19L515.07,153.29L515.46,163.1L515.53,148.39L515.89,143.48L516.47,133.68L516.59,158.19L516.6,153.29L516.62,158.19L518.58,128.77L518.99,133.68L518.99,138.58L519.97,133.68L520.23,143.48L520.68,123.87L520.69,143.48L520.73,138.58L521.55,133.68L522.99,128.77L524.18,109.16L524.29,114.06L524.29,123.87L524.46,109.16L524.5,109.16L526.78,114.06L527.17,104.26L527.5,143.48L527.61,138.58L527.62,143.48L527.62,138.58L528.36,133.68L528.36,128.77L528.64,138.58L528.66,133.68L529.24,128.77L529.38,109.16L529.65,123.87L530.1,128.77L530.7,109.16L531.15,104.26L531.27,109.16L531.44,99.35L531.44,109.16L533.4,104.26L533.4,109.16L535.23,104.26L536.66,84.65L536.82,79.74L536.88,69.94L536.88,84.65L537.35,79.74L537.69,74.84L539.25,65.03L539.5,60.13L539.5,65.03L540,50.32" style="vector-effect: none; fill: none; stroke: rgb(44, 160, 44); stroke-opacity: 1; stroke-width: 2px; opacity: 1;"/></g><g class="points"/><g class="text"/></g></g></g></g><g class="zerolinelayer-above"/><path class="xlines-above crisp" d="M0,0" style="fill: none;"/><path class="ylines-above crisp" d="M0,0" style="fill: none;"/><g class="overlines-above"/><g class="xaxislayer-above"><g class="xtick"><text text-anchor="middle" x="0" y="439" transform="translate(97.3,0)" style="font-family: 'Open Sans'; font-size: 18px; fill: rgb(255, 255, 255); fill-opacity: 1; white-space: pre;">2016</text></g><g class="xtick"><text text-anchor="middle" x="0" y="439" style="font-family: 'Open Sans'; font-size: 18px; fill: rgb(255, 255, 255); fill-opacity: 1; white-space: pre;" transform="translate(203.24,0)">2018</text></g><g class="xtick"><text text-anchor="middle" x="0" y="439" style="font-family: 'Open Sans'; font-size: 18px; fill: rgb(255, 255, 255); fill-opacity: 1; white-space: pre;" transform="translate(309.02,0)">2020</text></g><g class="xtick"><text text-anchor="middle" x="0" y="439" style="font-family: 'Open Sans'; font-size: 18px; fill: rgb(255, 255, 255); fill-opacity: 1; white-space: pre;" transform="translate(414.96,0)">2022</text></g><g class="xtick"><text text-anchor="middle" x="0" y="439" style="font-family: 'Open Sans'; font-size: 18px; fill: rgb(255, 255, 255); fill-opacity: 1; white-space: pre;" transform="translate(520.75,0)">2024</text></g></g><g class="yaxislayer-above"><g class="ytick"><text text-anchor="end" x="79" y="6.3" transform="translate(0,420)" style="font-family: 'Open Sans'; font-size: 18px; fill: rgb(255, 255, 255); fill-opacity: 1; white-space: pre;">0</text></g><g class="ytick"><text text-anchor="end" x="79" y="6.3" style="font-family: 'Open Sans'; font-size: 18px; fill: rgb(255, 255, 255); fill-opacity: 1; white-space: pre;" transform="translate(0,370.97)">10</text></g><g class="ytick"><text text-anchor="end" x="79" y="6.3" style="font-family: 'Open Sans'; font-size: 18px; fill: rgb(255, 255, 255); fill-opacity: 1; white-space: pre;" transform="translate(0,321.94)">20</text></g><g class="ytick"><text text-anchor="end" x="79" y="6.3" style="font-family: 'Open Sans'; font-size: 18px; fill: rgb(255, 255, 255); fill-opacity: 1; white-space: pre;" transform="translate(0,272.9)">30</text></g><g class="ytick"><text text-anchor="end" x="79" y="6.3" style="font-family: 'Open Sans'; font-size: 18px; fill: rgb(255, 255, 255); fill-opacity: 1; white-space: pre;" transform="translate(0,223.87)">40</text></g><g class="ytick"><text text-anchor="end" x="79" y="6.3" style="font-family: 'Open Sans'; font-size: 18px; fill: rgb(255, 255, 255); fill-opacity: 1; white-space: pre;" transform="translate(0,174.84)">50</text></g><g class="ytick"><text text-anchor="end" x="79" y="6.3" style="font-family: 'Open Sans'; font-size: 18px; fill: rgb(255, 255, 255); fill-opacity: 1; white-space: pre;" transform="translate(0,125.81)">60</text></g></g><g class="overaxes-above"/></g></g><g class="polarlayer"/><g class="smithlayer"/><g class="ternarylayer"/><g class="geolayer"/><g class="funnelarealayer"/><g class="pielayer"/><g class="iciclelayer"/><g class="treemaplayer"/><g class="sunburstlayer"/><g class="glimages"/><defs id="topdefs-46fcbc"><g class="clips"/></defs><g class="layer-above"><g class="imagelayer"/><g class="shapelayer"/></g><g class="infolayer"><g class="g-gtitle"><text class="gtitle" x="35" y="50" text-anchor="start" dy="0em" style="opacity: 1; font-family: 'Open Sans'; font-size: 25px; fill: rgb(255, 255, 255); fill-opacity: 1; white-space: pre;">MultiQC/MultiQC - Open Pull Requests Over Time</text></g><g class="g-xtitle"><text class="xtitle" x="350" y="472.9" text-anchor="middle" style="opacity: 1; font-family: 'Open Sans'; font-size: 22px; fill: rgb(255, 255, 255); fill-opacity: 1; white-space: pre;">Date</text></g><g class="g-ytitle"><text class="ytitle" transform="rotate(-90,38.8,260)" x="38.8" y="260" text-anchor="middle" style="opacity: 1; font-family: 'Open Sans'; font-size: 22px; fill: rgb(255, 255, 255); fill-opacity: 1; white-space: pre;">Number of Open PRs</text></g></g></svg>