<svg class="main-svg" xmlns="http://www.w3.org/2000/svg" xmlns:xlink="http://www.w3.org/1999/xlink" width="700" height="500" style="" viewBox="0 0 700 500"><rect x="0" y="0" width="700" height="500" style="fill: rgb(0, 0, 0); fill-opacity: 0;"/><defs id="defs-7d7347"><g class="clips"><clipPath id="clip7d7347xyplot" class="plotclip"><rect width="540" height="320"/></clipPath><clipPath class="axesclip" id="clip7d7347x"><rect x="80" y="0" width="540" height="500"/></clipPath><clipPath class="axesclip" id="clip7d7347y"><rect x="0" y="100" width="700" height="320"/></clipPath><clipPath class="axesclip" id="clip7d7347xy"><rect x="80" y="100" width="540" height="320"/></clipPath></g><g class="gradients"/><g class="patterns"/></defs><g class="bglayer"><rect class="bg" x="80" y="100" width="540" height="320" style="fill: rgb(0, 0, 0); fill-opacity: 0; stroke-width: 0;"/></g><g class="layer-below"><g class="imagelayer"/><g class="shapelayer"/></g><g class="cartesianlayer"><g class="subplot xy"><g class="layer-subplot"><g class="shapelayer"/><g class="imagelayer"/></g><g class="minor-gridlayer"><g class="x"/><g class="y"/></g><g class="gridlayer"><g class="x"><path class="xgrid crisp" transform="translate(97.38,0)" d="M0,100v320" style="stroke: rgb(255, 255, 255); stroke-opacity: 1; stroke-width: 1px;"/><path class="xgrid crisp" transform="translate(203.76999999999998,0)" d="M0,100v320" style="stroke: rgb(255, 255, 255); stroke-opacity: 1; stroke-width: 1px;"/><path class="xgrid crisp" transform="translate(310.01,0)" d="M0,100v320" style="stroke: rgb(255, 255, 255); stroke-opacity: 1; stroke-width: 1px;"/><path class="xgrid crisp" transform="translate(416.4,0)" d="M0,100v320" style="stroke: rgb(255, 255, 255); stroke-opacity: 1; stroke-width: 1px;"/><path class="xgrid crisp" transform="translate(522.64,0)" d="M0,100v320" style="stroke: rgb(255, 255, 255); stroke-opacity: 1; stroke-width: 1px;"/></g><g class="y"><path class="ygrid crisp" transform="translate(0,381.57)" d="M80,0h540" style="stroke: rgb(255, 255, 255); stroke-opacity: 1; stroke-width: 1px;"/><path class="ygrid crisp" transform="translate(0,343.14)" d="M80,0h540" style="stroke: rgb(255, 255, 255); stroke-opacity: 1; stroke-width: 1px;"/><path class="ygrid crisp" transform="translate(0,304.7)" d="M80,0h540" style="stroke: rgb(255, 255, 255); stroke-opacity: 1; stroke-width: 1px;"/><path class="ygrid crisp" transform="translate(0,266.27)" d="M80,0h540" style="stroke: rgb(255, 255, 255); stroke-opacity: 1; stroke-width: 1px;"/><path class="ygrid crisp" transform="translate(0,227.84)" d="M80,0h540" style="stroke: rgb(255, 255, 255); stroke-opacity: 1; stroke-width: 1px;"/><path class="ygrid crisp" transform="translate(0,189.41)" d="M80,0h540" style="stroke: rgb(255, 255, 255); stroke-opacity: 1; stroke-width: 1px;"/><path class="ygrid crisp" transform="translate(0,150.97)" d="M80,0h540" style="stroke: rgb(255, 255, 255); stroke-opacity: 1; stroke-width: 1px;"/><path class="ygrid crisp" transform="translate(0,112.53999999999999)" d="M80,0h540" style="stroke: rgb(255, 255, 255); stroke-opacity: 1; stroke-width: 1px;"/></g></g><g class="zerolinelayer"><path class="yzl zl crisp" transform="translate(0,420)" d="M80,0h540" style="stroke: rgb(255, 255, 255); stroke-opacity: 1; stroke-width: 2px;"/></g><g class="layer-between"><g class="shapelayer"/><g class="imagelayer"/></g><path class="xlines-below"/><path class="ylines-below"/><g class="overlines-below"/><g class="xaxislayer-below"/><g class="yaxislayer-below"/><g class="overaxes-below"/><g class="overplot"><g class="xy" transform="translate(80,100)" clip-path="url(#clip7d7347xyplot)"><g class="scatterlayer mlayer"><g class="trace scatter trace9f1615" style="stroke-miterlimit: 2;"><g class="fills"><g><path class="js-fill" d="M540,320L0,320L0,319.81L3.62,318.46L3.92,318.27L5.95,317.12L6.27,316.93L14.84,315.39L22.41,315.2L22.61,315L24.27,314.81L24.27,314.62L27.33,314.43L35.68,311.93L36.1,311.74L44.72,309.82L44.82,309.62L44.86,309.05L45.82,308.85L46.42,308.47L47.71,308.28L60.32,306.93L61.46,306.74L68.96,304.43L69.01,304.24L69.84,303.28L70.71,303.09L72.19,302.32L76.82,302.13L80.05,301.36L81.05,301.17L85.16,299.82L85.56,299.63L96.48,297.71L97.95,297.52L99.84,296.17L99.85,295.98L100.56,293.48L100.97,293.29L101.42,292.91L102.02,292.71L103.74,291.37L103.89,291.18L104.5,290.21L105.5,290.02L106.67,288.68L106.78,288.49L107.56,287.72L108.54,287.52L111.85,285.6L111.85,285.41L112.36,284.83L113.67,284.64L113.8,284.45L115.84,284.26L115.85,284.07L116.99,283.87L124.84,282.53L125.14,282.34L125.47,281.76L126.32,281.57L133.44,279.84L133.45,279.65L134.35,278.88L135.36,278.69L138.38,277.15L139.11,276.96L140.15,275.8L140.28,275.61L145.34,274.27L145.54,274.07L149.51,272.92L149.75,272.73L150.78,272.15L152.7,271.96L152.79,271.77L154.44,271.58L157.03,270.61L158.66,270.42L175.36,267.73L175.37,267.54L185.89,266.19L185.89,266L186.56,264.85L188.15,264.66L188.49,263.89L190.18,263.7L190.7,263.12L192.96,262.93L218.06,259.66L218.79,259.47L219.2,258.51L220.64,258.32L224.81,257.16L226.01,256.97L239.13,254.47L239.14,254.28L239.96,253.51L240.26,253.32L242.91,251.97L243.16,251.78L243.65,250.63L244.25,250.44L244.36,250.25L245.68,250.05L247.72,248.71L248.39,248.52L249.73,247.55L250.45,247.36L250.45,247.17L251.46,246.98L252.48,245.25L252.62,245.06L253.53,244.48L254.39,244.29L258.79,242.56L263.48,242.37L263.84,241.98L265.78,241.79L269.58,240.25L269.69,240.06L271.03,238.91L273.15,238.72L273.21,238.33L274.27,238.14L279.26,236.41L281,236.22L281.19,236.03L282.98,235.83L282.99,235.64L283.97,235.45L284.16,235.26L285.57,235.06L291.14,233.91L291.2,233.72L303.81,231.03L304.61,230.84L307.38,229.88L307.78,229.68L307.79,229.49L308.97,229.3L309.85,227.76L309.87,227.57L312.31,225.65L312.36,225.46L315.82,223.92L315.9,223.73L316.68,222.77L316.68,222.57L316.85,221.81L319.09,221.61L327.69,220.08L328.36,219.88L328.54,219.12L329.23,218.92L331.16,217.19L333.68,217L334.19,216.62L335.46,216.42L343.3,214.89L344.21,214.7L344.44,214.31L345.09,214.12L350.6,212.58L350.68,212.39L351.71,211.81L354.87,211.62L359.29,210.47L360.18,210.28L360.63,209.89L361.21,209.7L371.82,205.47L372.91,205.28L373.18,204.51L374.69,204.32L383.8,202.2L383.85,202.01L383.9,201.82L384.73,201.63L386.27,200.67L386.79,200.48L390.92,196.82L391.7,196.63L399.19,195.48L399.34,195.29L399.52,194.9L401.01,194.71L401.59,194.33L402.53,194.13L406.17,193.17L406.18,192.98L406.19,192.21L410.26,192.02L411.13,191.44L413.29,191.25L417.69,190.1L419.24,189.91L420.93,188.95L421.56,188.75L422.94,185.87L423.39,185.68L424,183.95L424.36,183.76L425.27,181.45L425.43,181.26L425.72,180.68L426.41,180.49L429.63,172.23L430.25,172.04L431.13,170.5L431.13,170.31L431.5,169.15L431.53,168.96L431.99,166.65L432.41,166.46L433.76,165.31L434.13,165.12L435.14,163.96L435.2,163.77L435.91,162.43L436.03,162.24L436.92,160.31L437.9,160.12L438.67,158.78L438.67,158.58L438.91,158.2L439.8,158.01L440.83,153.59L442.03,153.4L442.34,152.82L443.02,152.63L446.06,149.94L446.08,149.74L446.13,149.36L447,149.17L448.82,145.71L448.82,145.52L449.67,142.44L449.73,142.25L450.44,138.79L450.49,138.6L450.86,137.45L450.86,137.25L451.36,133.22L451.79,133.03L452.81,130.34L453.51,130.14L454.1,129.18L454.11,128.99L455.4,126.88L456.54,126.69L458.05,124.57L458.16,124.38L461.36,118.23L461.38,118.04L462.2,116.12L462.36,115.92L463.11,113.23L463.57,113.04L464.59,112.08L464.59,111.89L464.92,110.35L465.47,110.16L466.01,109.39L466.32,109.2L467.46,106.89L467.47,106.7L468.38,102.86L468.47,102.66L469.8,100.36L470.22,100.17L471.12,98.44L471.39,98.25L472.18,96.13L472.41,95.94L472.83,94.4L473.3,94.21L474.91,91.14L474.98,90.94L476.93,84.99L477.78,84.79L478.74,83.83L478.8,83.64L479.55,81.34L479.68,81.14L481.47,75.95L481.85,75.76L482.78,72.11L482.8,71.92L483.8,70.57L484.77,70.38L485.55,69.42L486.07,69.23L486.97,67.5L488.16,67.31L488.89,66.15L489.14,65.96L490.32,63.27L490.45,63.08L493.68,58.85L493.71,58.66L494.3,56.74L495.17,56.55L498.95,54.62L498.96,54.43L501.29,49.82L502.49,49.63L503.42,48.67L503.87,48.48L505.16,46.94L506.03,46.75L508.98,44.06L509.59,43.86L513.17,41.17L513.19,40.98L514.59,39.06L515.09,38.87L516.48,36.18L517.28,35.98L518.12,34.64L518.68,34.45L520.02,33.1L520.64,32.91L520.8,32.72L522.21,32.53L523.06,29.26L523.24,29.07L523.8,28.68L525.24,28.49L526.76,26.76L529.05,26.57L529.76,24.26L529.88,24.07L530.63,23.49L530.92,23.3L531.65,21.96L531.7,21.76L533.72,18.69L535.69,18.5L538.81,17.54L538.97,17.35L540,16" style="fill: rgb(44, 160, 44); fill-opacity: 0.5; stroke-width: 0;"/></g></g><g class="errorbars"/><g class="lines"><path class="js-line" d="M0,319.81L3.62,318.46L3.92,318.27L5.95,317.12L6.27,316.93L14.84,315.39L22.41,315.2L22.61,315L24.27,314.81L24.27,314.62L27.33,314.43L35.68,311.93L36.1,311.74L44.72,309.82L44.82,309.62L44.86,309.05L45.82,308.85L46.42,308.47L47.71,308.28L60.32,306.93L61.46,306.74L68.96,304.43L69.01,304.24L69.84,303.28L70.71,303.09L72.19,302.32L76.82,302.13L80.05,301.36L81.05,301.17L85.16,299.82L85.56,299.63L96.48,297.71L97.95,297.52L99.84,296.17L99.85,295.98L100.56,293.48L100.97,293.29L101.42,292.91L102.02,292.71L103.74,291.37L103.89,291.18L104.5,290.21L105.5,290.02L106.67,288.68L106.78,288.49L107.56,287.72L108.54,287.52L111.85,285.6L111.85,285.41L112.36,284.83L113.67,284.64L113.8,284.45L115.84,284.26L115.85,284.07L116.99,283.87L124.84,282.53L125.14,282.34L125.47,281.76L126.32,281.57L133.44,279.84L133.45,279.65L134.35,278.88L135.36,278.69L138.38,277.15L139.11,276.96L140.15,275.8L140.28,275.61L145.34,274.27L145.54,274.07L149.51,272.92L149.75,272.73L150.78,272.15L152.7,271.96L152.79,271.77L154.44,271.58L157.03,270.61L158.66,270.42L175.36,267.73L175.37,267.54L185.89,266.19L185.89,266L186.56,264.85L188.15,264.66L188.49,263.89L190.18,263.7L190.7,263.12L192.96,262.93L218.06,259.66L218.79,259.47L219.2,258.51L220.64,258.32L224.81,257.16L226.01,256.97L239.13,254.47L239.14,254.28L239.96,253.51L240.26,253.32L242.91,251.97L243.16,251.78L243.65,250.63L244.25,250.44L244.36,250.25L245.68,250.05L247.72,248.71L248.39,248.52L249.73,247.55L250.45,247.36L250.45,247.17L251.46,246.98L252.48,245.25L252.62,245.06L253.53,244.48L254.39,244.29L258.79,242.56L263.48,242.37L263.84,241.98L265.78,241.79L269.58,240.25L269.69,240.06L271.03,238.91L273.15,238.72L273.21,238.33L274.27,238.14L279.26,236.41L281,236.22L281.19,236.03L282.98,235.83L282.99,235.64L283.97,235.45L284.16,235.26L285.57,235.06L291.14,233.91L291.2,233.72L303.81,231.03L304.61,230.84L307.38,229.88L307.78,229.68L307.79,229.49L308.97,229.3L309.85,227.76L309.87,227.57L312.31,225.65L312.36,225.46L315.82,223.92L315.9,223.73L316.68,222.77L316.68,222.57L316.85,221.81L319.09,221.61L327.69,220.08L328.36,219.88L328.54,219.12L329.23,218.92L331.16,217.19L333.68,217L334.19,216.62L335.46,216.42L343.3,214.89L344.21,214.7L344.44,214.31L345.09,214.12L350.6,212.58L350.68,212.39L351.71,211.81L354.87,211.62L359.29,210.47L360.18,210.28L360.63,209.89L361.21,209.7L371.82,205.47L372.91,205.28L373.18,204.51L374.69,204.32L383.8,202.2L383.85,202.01L383.9,201.82L384.73,201.63L386.27,200.67L386.79,200.48L390.92,196.82L391.7,196.63L399.19,195.48L399.34,195.29L399.52,194.9L401.01,194.71L401.59,194.33L402.53,194.13L406.17,193.17L406.18,192.98L406.19,192.21L410.26,192.02L411.13,191.44L413.29,191.25L417.69,190.1L419.24,189.91L420.93,188.95L421.56,188.75L422.94,185.87L423.39,185.68L424,183.95L424.36,183.76L425.27,181.45L425.43,181.26L425.72,180.68L426.41,180.49L429.63,172.23L430.25,172.04L431.13,170.5L431.13,170.31L431.5,169.15L431.53,168.96L431.99,166.65L432.41,166.46L433.76,165.31L434.13,165.12L435.14,163.96L435.2,163.77L435.91,162.43L436.03,162.24L436.92,160.31L437.9,160.12L438.67,158.78L438.67,158.58L438.91,158.2L439.8,158.01L440.83,153.59L442.03,153.4L442.34,152.82L443.02,152.63L446.06,149.94L446.08,149.74L446.13,149.36L447,149.17L448.82,145.71L448.82,145.52L449.67,142.44L449.73,142.25L450.44,138.79L450.49,138.6L450.86,137.45L450.86,137.25L451.36,133.22L451.79,133.03L452.81,130.34L453.51,130.14L454.1,129.18L454.11,128.99L455.4,126.88L456.54,126.69L458.05,124.57L458.16,124.38L461.36,118.23L461.38,118.04L462.2,116.12L462.36,115.92L463.11,113.23L463.57,113.04L464.59,112.08L464.59,111.89L464.92,110.35L465.47,110.16L466.01,109.39L466.32,109.2L467.46,106.89L467.47,106.7L468.38,102.86L468.47,102.66L469.8,100.36L470.22,100.17L471.12,98.44L471.39,98.25L472.18,96.13L472.41,95.94L472.83,94.4L473.3,94.21L474.91,91.14L474.98,90.94L476.93,84.99L477.78,84.79L478.74,83.83L478.8,83.64L479.55,81.34L479.68,81.14L481.47,75.95L481.85,75.76L482.78,72.11L482.8,71.92L483.8,70.57L484.77,70.38L485.55,69.42L486.07,69.23L486.97,67.5L488.16,67.31L488.89,66.15L489.14,65.96L490.32,63.27L490.45,63.08L493.68,58.85L493.71,58.66L494.3,56.74L495.17,56.55L498.95,54.62L498.96,54.43L501.29,49.82L502.49,49.63L503.42,48.67L503.87,48.48L505.16,46.94L506.03,46.75L508.98,44.06L509.59,43.86L513.17,41.17L513.19,40.98L514.59,39.06L515.09,38.87L516.48,36.18L517.28,35.98L518.12,34.64L518.68,34.45L520.02,33.1L520.64,32.91L520.8,32.72L522.21,32.53L523.06,29.26L523.24,29.07L523.8,28.68L525.24,28.49L526.76,26.76L529.05,26.57L529.76,24.26L529.88,24.07L530.63,23.49L530.92,23.3L531.65,21.96L531.7,21.76L533.72,18.69L535.69,18.5L538.81,17.54L538.97,17.35L540,16" style="vector-effect: none; fill: none; stroke: rgb(44, 160, 44); stroke-opacity: 1; stroke-width: 2px; opacity: 1;"/></g><g class="points"/><g class="text"/></g></g></g></g><g class="zerolinelayer-above"/><path class="xlines-above crisp" d="M0,0" style="fill: none;"/><path class="ylines-above crisp" d="M0,0" style="fill: none;"/><g class="overlines-above"/><g class="xaxislayer-above"><g class="xtick"><text text-anchor="middle" x="0" y="439" transform="translate(97.38,0)" style="font-family: 'Open Sans'; font-size: 18px; fill: rgb(0, 0, 0); fill-opacity: 1; white-space: pre;">2016</text></g><g class="xtick"><text text-anchor="middle" x="0" y="439" style="font-family: 'Open Sans'; font-size: 18px; fill: rgb(0, 0, 0); fill-opacity: 1; white-space: pre;" transform="translate(203.76999999999998,0)">2018</text></g><g class="xtick"><text text-anchor="middle" x="0" y="439" style="font-family: 'Open Sans'; font-size: 18px; fill: rgb(0, 0, 0); fill-opacity: 1; white-space: pre;" transform="translate(310.01,0)">2020</text></g><g class="xtick"><text text-anchor="middle" x="0" y="439" style="font-family: 'Open Sans'; font-size: 18px; fill: rgb(0, 0, 0); fill-opacity: 1; white-space: pre;" transform="translate(416.4,0)">2022</text></g><g class="xtick"><text text-anchor="middle" x="0" y="439" style="font-family: 'Open Sans'; font-size: 18px; fill: rgb(0, 0, 0); fill-opacity: 1; white-space: pre;" transform="translate(522.64,0)">2024</text></g></g><g class="yaxislayer-above"><g class="ytick"><text text-anchor="end" x="79" y="6.3" transform="translate(0,420)" style="font-family: 'Open Sans'; font-size: 18px; fill: rgb(0, 0, 0); fill-opacity: 1; white-space: pre;">0</text></g><g class="ytick"><text text-anchor="end" x="79" y="6.3" style="font-family: 'Open Sans'; font-size: 18px; fill: rgb(0, 0, 0); fill-opacity: 1; white-space: pre;" transform="translate(0,381.57)">200</text></g><g class="ytick"><text text-anchor="end" x="79" y="6.3" style="font-family: 'Open Sans'; font-size: 18px; fill: rgb(0, 0, 0); fill-opacity: 1; white-space: pre;" transform="translate(0,343.14)">400</text></g><g class="ytick"><text text-anchor="end" x="79" y="6.3" style="font-family: 'Open Sans'; font-size: 18px; fill: rgb(0, 0, 0); fill-opacity: 1; white-space: pre;" transform="translate(0,304.7)">600</text></g><g class="ytick"><text text-anchor="end" x="79" y="6.3" style="font-family: 'Open Sans'; font-size: 18px; fill: rgb(0, 0, 0); fill-opacity: 1; white-space: pre;" transform="translate(0,266.27)">800</text></g><g class="ytick"><text text-anchor="end" x="79" y="6.3" style="font-family: 'Open Sans'; font-size: 18px; fill: rgb(0, 0, 0); fill-opacity: 1; white-space: pre;" transform="translate(0,227.84)">1000</text></g><g class="ytick"><text text-anchor="end" x="79" y="6.3" style="font-family: 'Open Sans'; font-size: 18px; fill: rgb(0, 0, 0); fill-opacity: 1; white-space: pre;" transform="translate(0,189.41)">1200</text></g><g class="ytick"><text text-anchor="end" x="79" y="6.3" style="font-family: 'Open Sans'; font-size: 18px; fill: rgb(0, 0, 0); fill-opacity: 1; white-space: pre;" transform="translate(0,150.97)">1400</text></g><g class="ytick"><text text-anchor="end" x="79" y="6.3" style="font-family: 'Open Sans'; font-size: 18px; fill: rgb(0, 0, 0); fill-opacity: 1; white-space: pre;" transform="translate(0,112.53999999999999)">1600</text></g></g><g class="overaxes-above"/></g></g><g class="polarlayer"/><g class="smithlayer"/><g class="ternarylayer"/><g class="geolayer"/><g class="funnelarealayer"/><g class="pielayer"/><g class="iciclelayer"/><g class="treemaplayer"/><g class="sunburstlayer"/><g class="glimages"/><defs id="topdefs-7d7347"><g class="clips"/></defs><g class="layer-above"><g class="imagelayer"/><g class="shapelayer"/></g><g class="infolayer"><g class="g-gtitle"><text class="gtitle" x="35" y="50" text-anchor="start" dy="0em" style="opacity: 1; font-family: 'Open Sans'; font-size: 25px; fill: rgb(0, 0, 0); fill-opacity: 1; white-space: pre;">MultiQC/MultiQC - Pull Requests Created Over Time</text></g><g class="g-xtitle"><text class="xtitle" x="350" y="472.9" text-anchor="middle" style="opacity: 1; font-family: 'Open Sans'; font-size: 22px; fill: rgb(0, 0, 0); fill-opacity: 1; white-space: pre;">Date</text></g><g class="g-ytitle"><text class="ytitle" transform="rotate(-90,20.799999999999997,260)" x="20.799999999999997" y="260" text-anchor="middle" style="opacity: 1; font-family: 'Open Sans'; font-size: 22px; fill: rgb(0, 0, 0); fill-opacity: 1; white-space: pre;">Cumulative PRs Created</text></g></g></svg>