<svg class="main-svg" xmlns="http://www.w3.org/2000/svg" xmlns:xlink="http://www.w3.org/1999/xlink" width="700" height="500" style="" viewBox="0 0 700 500"><rect x="0" y="0" width="700" height="500" style="fill: rgb(0, 0, 0); fill-opacity: 0;"/><defs id="defs-61bf5f"><g class="clips"><clipPath id="clip61bf5fxyplot" class="plotclip"><rect width="540" height="320"/></clipPath><clipPath class="axesclip" id="clip61bf5fx"><rect x="80" y="0" width="540" height="500"/></clipPath><clipPath class="axesclip" id="clip61bf5fy"><rect x="0" y="100" width="700" height="320"/></clipPath><clipPath class="axesclip" id="clip61bf5fxy"><rect x="80" y="100" width="540" height="320"/></clipPath></g><g class="gradients"/><g class="patterns"/></defs><g class="bglayer"><rect class="bg" x="80" y="100" width="540" height="320" style="fill: rgb(0, 0, 0); fill-opacity: 0; stroke-width: 0;"/></g><g class="layer-below"><g class="imagelayer"/><g class="shapelayer"/></g><g class="cartesianlayer"><g class="subplot xy"><g class="layer-subplot"><g class="shapelayer"/><g class="imagelayer"/></g><g class="minor-gridlayer"><g class="x"/><g class="y"/></g><g class="gridlayer"><g class="x"><path class="xgrid crisp" transform="translate(97.13,0)" d="M0,100v320" style="stroke: rgb(255, 255, 255); stroke-opacity: 1; stroke-width: 1px;"/><path class="xgrid crisp" transform="translate(202.03,0)" d="M0,100v320" style="stroke: rgb(255, 255, 255); stroke-opacity: 1; stroke-width: 1px;"/><path class="xgrid crisp" transform="translate(306.78,0)" d="M0,100v320" style="stroke: rgb(255, 255, 255); stroke-opacity: 1; stroke-width: 1px;"/><path class="xgrid crisp" transform="translate(411.68,0)" d="M0,100v320" style="stroke: rgb(255, 255, 255); stroke-opacity: 1; stroke-width: 1px;"/><path class="xgrid crisp" transform="translate(516.4300000000001,0)" d="M0,100v320" style="stroke: rgb(255, 255, 255); stroke-opacity: 1; stroke-width: 1px;"/></g><g class="y"><path class="ygrid crisp" transform="translate(0,382.72)" d="M80,0h540" style="stroke: rgb(255, 255, 255); stroke-opacity: 1; stroke-width: 1px;"/><path class="ygrid crisp" transform="translate(0,345.44)" d="M80,0h540" style="stroke: rgb(255, 255, 255); stroke-opacity: 1; stroke-width: 1px;"/><path class="ygrid crisp" transform="translate(0,308.16999999999996)" d="M80,0h540" style="stroke: rgb(255, 255, 255); stroke-opacity: 1; stroke-width: 1px;"/><path class="ygrid crisp" transform="translate(0,270.89)" d="M80,0h540" style="stroke: rgb(255, 255, 255); stroke-opacity: 1; stroke-width: 1px;"/><path class="ygrid crisp" transform="translate(0,233.61)" d="M80,0h540" style="stroke: rgb(255, 255, 255); stroke-opacity: 1; stroke-width: 1px;"/><path class="ygrid crisp" transform="translate(0,196.32999999999998)" d="M80,0h540" style="stroke: rgb(255, 255, 255); stroke-opacity: 1; stroke-width: 1px;"/><path class="ygrid crisp" transform="translate(0,159.06)" d="M80,0h540" style="stroke: rgb(255, 255, 255); stroke-opacity: 1; stroke-width: 1px;"/><path class="ygrid crisp" transform="translate(0,121.78)" d="M80,0h540" style="stroke: rgb(255, 255, 255); stroke-opacity: 1; stroke-width: 1px;"/></g></g><g class="zerolinelayer"><path class="yzl zl crisp" transform="translate(0,420)" d="M80,0h540" style="stroke: rgb(255, 255, 255); stroke-opacity: 1; stroke-width: 2px;"/></g><g class="layer-between"><g class="shapelayer"/><g class="imagelayer"/></g><path class="xlines-below"/><path class="ylines-below"/><g class="overlines-below"/><g class="xaxislayer-below"/><g class="yaxislayer-below"/><g class="overaxes-below"/><g class="overplot"><g class="xy" transform="translate(80,100)" clip-path="url(#clip61bf5fxyplot)"><g class="scatterlayer mlayer"><g class="trace scatter trace364203" style="stroke-miterlimit: 2;"><g class="fills"><g><path class="js-fill" d="M540,320L0,320L0,319.81L3.57,318.51L3.87,318.32L5.87,317.2L6.18,317.02L14.63,315.53L22.1,315.34L22.3,315.15L23.93,314.97L23.93,314.78L26.95,314.59L35.18,312.17L35.59,311.99L44.09,310.12L44.19,309.94L44.23,309.38L45.18,309.19L45.77,308.82L47.05,308.63L59.48,307.33L60.6,307.14L68,304.9L68.04,304.72L68.86,303.78L69.72,303.6L71.18,302.85L75.74,302.67L78.93,301.92L79.91,301.73L83.97,300.43L84.36,300.24L98.44,297.07L98.44,296.89L99.15,294.28L99.56,294.09L100,293.72L100.59,293.53L102.29,292.23L102.43,292.04L103.03,291.11L104.02,290.92L105.17,289.62L105.29,289.43L106.05,288.69L107.01,288.5L110.28,286.64L110.28,286.45L110.79,285.89L112.07,285.7L112.2,285.52L114.22,285.33L114.23,285.15L115.35,284.96L123.09,283.65L123.38,283.47L123.71,282.91L124.55,282.72L131.57,281.04L131.58,280.86L132.46,280.11L133.46,279.93L136.43,278.44L137.16,278.25L138.18,277.13L138.31,276.94L143.3,275.64L143.5,275.45L147.41,274.33L147.65,274.15L148.67,273.59L150.56,273.4L150.65,273.22L152.27,273.03L154.83,272.1L156.43,271.91L172.9,269.3L172.91,269.12L183.28,267.81L183.28,267.62L183.94,266.51L185.51,266.32L185.84,265.57L187.52,265.39L188.02,264.83L190.25,264.64L215,261.47L215.72,261.29L216.12,260.36L217.55,260.17L221.65,259.05L222.84,258.86L235.78,256.44L235.78,256.26L236.6,255.51L236.88,255.32L239.5,254.02L239.75,253.83L240.23,252.71L240.82,252.53L240.93,252.34L242.24,252.15L244.25,250.85L244.91,250.66L246.22,249.73L246.94,249.55L246.94,249.36L247.93,249.17L248.93,247.49L249.08,247.31L249.97,246.75L250.82,246.56L255.16,244.89L259.78,244.7L260.14,244.33L262.05,244.14L265.79,242.65L265.9,242.46L267.23,241.34L269.31,241.16L269.38,240.78L270.42,240.6L275.35,238.92L277.05,238.73L277.25,238.55L279.01,238.36L279.02,238.18L279.99,237.99L280.18,237.8L281.57,237.62L287.06,236.5L287.12,236.31L296.98,234.26L297.16,234.07L302.91,232.96L303.05,232.77L303.47,232.21L304.63,232.02L305.51,230.53L305.53,230.35L307.93,228.48L307.98,228.3L311.47,226.62L311.96,226.43L312.4,224.76L314.62,224.57L323.09,223.08L323.76,222.89L323.93,222.15L324.61,221.96L326.51,220.28L329,220.1L329.5,219.72L330.76,219.54L339.38,217.86L339.4,217.67L340.25,217.3L341.53,217.11L346.69,215.25L346.77,215.06L354.24,213.94L354.25,213.76L357.72,212.27L358.46,212.08L363.39,210.22L363.43,210.03L364.47,209.29L366.32,209.1L369.43,207.79L370.38,207.61L376.67,206.3L376.8,206.12L379.33,205.18L380.53,205L381.36,204.07L381.58,203.88L384.9,200.71L385.44,200.52L400.47,196.98L400.48,196.8L400.49,196.05L404.5,195.87L405.36,195.31L407.5,195.12L411.83,194L413.36,193.81L415.02,192.88L415.65,192.7L417,189.9L417.45,189.71L418.05,188.04L418.4,187.85L419.3,185.61L419.46,185.43L419.75,184.87L420.43,184.68L422.91,177.6L423.33,177.41L425.45,173.68L425.48,173.5L425.93,171.26L426.35,171.08L427.67,169.96L428.04,169.77L429.03,168.65L429.1,168.47L429.79,167.16L429.92,166.97L430.79,165.11L431.76,164.92L432.52,163.62L432.52,163.43L432.75,163.06L433.63,162.87L434.64,158.59L435.83,158.4L436.13,157.84L436.81,157.66L439.8,155.05L439.82,154.86L439.87,154.49L440.73,154.3L442.52,150.95L442.53,150.76L443.13,147.96L443.36,147.78L444.84,140.69L444.84,140.51L445.54,138.27L445.69,138.08L448.02,133.8L448.04,133.61L451.6,130.63L451.62,130.44L454.88,124.48L454.89,124.29L455.93,121.31L456.15,121.12L456.61,119.45L457.07,119.26L458.07,118.33L458.07,118.14L458.4,116.65L458.94,116.46L459.47,115.72L459.78,115.53L460.91,113.29L460.91,113.11L461.81,109.38L461.9,109.19L463.21,106.96L463.62,106.77L464.79,104.72L464.93,104.53L466.06,101.93L466.12,101.74L466.81,100.81L467.09,100.62L467.66,98.76L468.1,98.57L469.94,92.23L470.24,92.05L472.03,90.93L472.09,90.74L472.82,88.51L472.95,88.32L474.71,83.29L475.09,83.1L476,79.56L476.03,79.37L477.01,78.07L477.97,77.88L478.74,76.95L479.26,76.76L480.14,75.09L481.31,74.9L482.28,73.59L482.31,73.41L482.75,72.48L482.76,72.29L483.44,70.98L483.57,70.8L485.3,68.75L486.01,68.56L486.76,66.7L486.79,66.51L487.37,64.65L488.23,64.46L491.95,62.6L491.96,62.41L494.26,57.94L495.44,57.75L496.36,56.82L496.8,56.63L498.08,55.14L498.93,54.96L501.84,52.35L502.44,52.16L505.99,49.36L506.09,49.18L506.31,48.25L506.96,48.06L510.85,43.21L511.41,43.03L512.73,41.72L513.34,41.54L513.5,41.35L514.88,41.16L515.9,37.81L516.14,37.62L519.37,35.57L521.63,35.38L522.33,33.15L522.44,32.96L523.19,32.4L523.47,32.22L524.19,30.91L524.24,30.72L526.24,27.74L528.17,27.56L531.25,26.62L531.41,26.44L532.42,25.13L533.42,24.95L536.39,23.27L536.53,23.08L537.25,21.41L537.52,21.22L538.39,18.24L538.59,18.05L539.54,16.93L539.72,16.75L540,16" style="fill: rgb(44, 160, 44); fill-opacity: 0.5; stroke-width: 0;"/></g></g><g class="errorbars"/><g class="lines"><path class="js-line" d="M0,319.81L3.57,318.51L3.87,318.32L5.87,317.2L6.18,317.02L14.63,315.53L22.1,315.34L22.3,315.15L23.93,314.97L23.93,314.78L26.95,314.59L35.18,312.17L35.59,311.99L44.09,310.12L44.19,309.94L44.23,309.38L45.18,309.19L45.77,308.82L47.05,308.63L59.48,307.33L60.6,307.14L68,304.9L68.04,304.72L68.86,303.78L69.72,303.6L71.18,302.85L75.74,302.67L78.93,301.92L79.91,301.73L83.97,300.43L84.36,300.24L98.44,297.07L98.44,296.89L99.15,294.28L99.56,294.09L100,293.72L100.59,293.53L102.29,292.23L102.43,292.04L103.03,291.11L104.02,290.92L105.17,289.62L105.29,289.43L106.05,288.69L107.01,288.5L110.28,286.64L110.28,286.45L110.79,285.89L112.07,285.7L112.2,285.52L114.22,285.33L114.23,285.15L115.35,284.96L123.09,283.65L123.38,283.47L123.71,282.91L124.55,282.72L131.57,281.04L131.58,280.86L132.46,280.11L133.46,279.93L136.43,278.44L137.16,278.25L138.18,277.13L138.31,276.94L143.3,275.64L143.5,275.45L147.41,274.33L147.65,274.15L148.67,273.59L150.56,273.4L150.65,273.22L152.27,273.03L154.83,272.1L156.43,271.91L172.9,269.3L172.91,269.12L183.28,267.81L183.28,267.62L183.94,266.51L185.51,266.32L185.84,265.57L187.52,265.39L188.02,264.83L190.25,264.64L215,261.47L215.72,261.29L216.12,260.36L217.55,260.17L221.65,259.05L222.84,258.86L235.78,256.44L235.78,256.26L236.6,255.51L236.88,255.32L239.5,254.02L239.75,253.83L240.23,252.71L240.82,252.53L240.93,252.34L242.24,252.15L244.25,250.85L244.91,250.66L246.22,249.73L246.94,249.55L246.94,249.36L247.93,249.17L248.93,247.49L249.08,247.31L249.97,246.75L250.82,246.56L255.16,244.89L259.78,244.7L260.14,244.33L262.05,244.14L265.79,242.65L265.9,242.46L267.23,241.34L269.31,241.16L269.38,240.78L270.42,240.6L275.35,238.92L277.05,238.73L277.25,238.55L279.01,238.36L279.02,238.18L279.99,237.99L280.18,237.8L281.57,237.62L287.06,236.5L287.12,236.31L296.98,234.26L297.16,234.07L302.91,232.96L303.05,232.77L303.47,232.21L304.63,232.02L305.51,230.53L305.53,230.35L307.93,228.48L307.98,228.3L311.47,226.62L311.96,226.43L312.4,224.76L314.62,224.57L323.09,223.08L323.76,222.89L323.93,222.15L324.61,221.96L326.51,220.28L329,220.1L329.5,219.72L330.76,219.54L339.38,217.86L339.4,217.67L340.25,217.3L341.53,217.11L346.69,215.25L346.77,215.06L354.24,213.94L354.25,213.76L357.72,212.27L358.46,212.08L363.39,210.22L363.43,210.03L364.47,209.29L366.32,209.1L369.43,207.79L370.38,207.61L376.67,206.3L376.8,206.12L379.33,205.18L380.53,205L381.36,204.07L381.58,203.88L384.9,200.71L385.44,200.52L400.47,196.98L400.48,196.8L400.49,196.05L404.5,195.87L405.36,195.31L407.5,195.12L411.83,194L413.36,193.81L415.02,192.88L415.65,192.7L417,189.9L417.45,189.71L418.05,188.04L418.4,187.85L419.3,185.61L419.46,185.43L419.75,184.87L420.43,184.68L422.91,177.6L423.33,177.41L425.45,173.68L425.48,173.5L425.93,171.26L426.35,171.08L427.67,169.96L428.04,169.77L429.03,168.65L429.1,168.47L429.79,167.16L429.92,166.97L430.79,165.11L431.76,164.92L432.52,163.62L432.52,163.43L432.75,163.06L433.63,162.87L434.64,158.59L435.83,158.4L436.13,157.84L436.81,157.66L439.8,155.05L439.82,154.86L439.87,154.49L440.73,154.3L442.52,150.95L442.53,150.76L443.13,147.96L443.36,147.78L444.84,140.69L444.84,140.51L445.54,138.27L445.69,138.08L448.02,133.8L448.04,133.61L451.6,130.63L451.62,130.44L454.88,124.48L454.89,124.29L455.93,121.31L456.15,121.12L456.61,119.45L457.07,119.26L458.07,118.33L458.07,118.14L458.4,116.65L458.94,116.46L459.47,115.72L459.78,115.53L460.91,113.29L460.91,113.11L461.81,109.38L461.9,109.19L463.21,106.96L463.62,106.77L464.79,104.72L464.93,104.53L466.06,101.93L466.12,101.74L466.81,100.81L467.09,100.62L467.66,98.76L468.1,98.57L469.94,92.23L470.24,92.05L472.03,90.93L472.09,90.74L472.82,88.51L472.95,88.32L474.71,83.29L475.09,83.1L476,79.56L476.03,79.37L477.01,78.07L477.97,77.88L478.74,76.95L479.26,76.76L480.14,75.09L481.31,74.9L482.28,73.59L482.31,73.41L482.75,72.48L482.76,72.29L483.44,70.98L483.57,70.8L485.3,68.75L486.01,68.56L486.76,66.7L486.79,66.51L487.37,64.65L488.23,64.46L491.95,62.6L491.96,62.41L494.26,57.94L495.44,57.75L496.36,56.82L496.8,56.63L498.08,55.14L498.93,54.96L501.84,52.35L502.44,52.16L505.99,49.36L506.09,49.18L506.31,48.25L506.96,48.06L510.85,43.21L511.41,43.03L512.73,41.72L513.34,41.54L513.5,41.35L514.88,41.16L515.9,37.81L516.14,37.62L519.37,35.57L521.63,35.38L522.33,33.15L522.44,32.96L523.19,32.4L523.47,32.22L524.19,30.91L524.24,30.72L526.24,27.74L528.17,27.56L531.25,26.62L531.41,26.44L532.42,25.13L533.42,24.95L536.39,23.27L536.53,23.08L537.25,21.41L537.52,21.22L538.39,18.24L538.59,18.05L539.54,16.93L539.72,16.75L540,16" style="vector-effect: none; fill: none; stroke: rgb(44, 160, 44); stroke-opacity: 1; stroke-width: 2px; opacity: 1;"/></g><g class="points"/><g class="text"/></g></g></g></g><g class="zerolinelayer-above"/><path class="xlines-above crisp" d="M0,0" style="fill: none;"/><path class="ylines-above crisp" d="M0,0" style="fill: none;"/><g class="overlines-above"/><g class="xaxislayer-above"><g class="xtick"><text text-anchor="middle" x="0" y="439" transform="translate(97.13,0)" style="font-family: 'Open Sans'; font-size: 18px; fill: rgb(0, 0, 0); fill-opacity: 1; white-space: pre;">2016</text></g><g class="xtick"><text text-anchor="middle" x="0" y="439" style="font-family: 'Open Sans'; font-size: 18px; fill: rgb(0, 0, 0); fill-opacity: 1; white-space: pre;" transform="translate(202.03,0)">2018</text></g><g class="xtick"><text text-anchor="middle" x="0" y="439" style="font-family: 'Open Sans'; font-size: 18px; fill: rgb(0, 0, 0); fill-opacity: 1; white-space: pre;" transform="translate(306.78,0)">2020</text></g><g class="xtick"><text text-anchor="middle" x="0" y="439" style="font-family: 'Open Sans'; font-size: 18px; fill: rgb(0, 0, 0); fill-opacity: 1; white-space: pre;" transform="translate(411.68,0)">2022</text></g><g class="xtick"><text text-anchor="middle" x="0" y="439" style="font-family: 'Open Sans'; font-size: 18px; fill: rgb(0, 0, 0); fill-opacity: 1; white-space: pre;" transform="translate(516.4300000000001,0)">2024</text></g></g><g class="yaxislayer-above"><g class="ytick"><text text-anchor="end" x="79" y="6.3" transform="translate(0,420)" style="font-family: 'Open Sans'; font-size: 18px; fill: rgb(0, 0, 0); fill-opacity: 1; white-space: pre;">0</text></g><g class="ytick"><text text-anchor="end" x="79" y="6.3" style="font-family: 'Open Sans'; font-size: 18px; fill: rgb(0, 0, 0); fill-opacity: 1; white-space: pre;" transform="translate(0,382.72)">200</text></g><g class="ytick"><text text-anchor="end" x="79" y="6.3" style="font-family: 'Open Sans'; font-size: 18px; fill: rgb(0, 0, 0); fill-opacity: 1; white-space: pre;" transform="translate(0,345.44)">400</text></g><g class="ytick"><text text-anchor="end" x="79" y="6.3" style="font-family: 'Open Sans'; font-size: 18px; fill: rgb(0, 0, 0); fill-opacity: 1; white-space: pre;" transform="translate(0,308.16999999999996)">600</text></g><g class="ytick"><text text-anchor="end" x="79" y="6.3" style="font-family: 'Open Sans'; font-size: 18px; fill: rgb(0, 0, 0); fill-opacity: 1; white-space: pre;" transform="translate(0,270.89)">800</text></g><g class="ytick"><text text-anchor="end" x="79" y="6.3" style="font-family: 'Open Sans'; font-size: 18px; fill: rgb(0, 0, 0); fill-opacity: 1; white-space: pre;" transform="translate(0,233.61)">1000</text></g><g class="ytick"><text text-anchor="end" x="79" y="6.3" style="font-family: 'Open Sans'; font-size: 18px; fill: rgb(0, 0, 0); fill-opacity: 1; white-space: pre;" transform="translate(0,196.32999999999998)">1200</text></g><g class="ytick"><text text-anchor="end" x="79" y="6.3" style="font-family: 'Open Sans'; font-size: 18px; fill: rgb(0, 0, 0); fill-opacity: 1; white-space: pre;" transform="translate(0,159.06)">1400</text></g><g class="ytick"><text text-anchor="end" x="79" y="6.3" style="font-family: 'Open Sans'; font-size: 18px; fill: rgb(0, 0, 0); fill-opacity: 1; white-space: pre;" transform="translate(0,121.78)">1600</text></g></g><g class="overaxes-above"/></g></g><g class="polarlayer"/><g class="smithlayer"/><g class="ternarylayer"/><g class="geolayer"/><g class="funnelarealayer"/><g class="pielayer"/><g class="iciclelayer"/><g class="treemaplayer"/><g class="sunburstlayer"/><g class="glimages"/><defs id="topdefs-61bf5f"><g class="clips"/></defs><g class="layer-above"><g class="imagelayer"/><g class="shapelayer"/></g><g class="infolayer"><g class="g-gtitle"><text class="gtitle" x="35" y="50" text-anchor="start" dy="0em" style="opacity: 1; font-family: 'Open Sans'; font-size: 25px; fill: rgb(0, 0, 0); fill-opacity: 1; white-space: pre;">MultiQC/MultiQC - Pull Requests Created Over Time</text></g><g class="g-xtitle"><text class="xtitle" x="350" y="472.9" text-anchor="middle" style="opacity: 1; font-family: 'Open Sans'; font-size: 22px; fill: rgb(0, 0, 0); fill-opacity: 1; white-space: pre;">Date</text></g><g class="g-ytitle"><text class="ytitle" transform="rotate(-90,20.799999999999997,260)" x="20.799999999999997" y="260" text-anchor="middle" style="opacity: 1; font-family: 'Open Sans'; font-size: 22px; fill: rgb(0, 0, 0); fill-opacity: 1; white-space: pre;">Cumulative PRs Created</text></g></g></svg>