<svg class="main-svg" xmlns="http://www.w3.org/2000/svg" xmlns:xlink="http://www.w3.org/1999/xlink" width="700" height="500" style="" viewBox="0 0 700 500"><rect x="0" y="0" width="700" height="500" style="fill: rgb(0, 0, 0); fill-opacity: 0;"/><defs id="defs-31fb3b"><g class="clips"><clipPath id="clip31fb3bxyplot" class="plotclip"><rect width="540" height="320"/></clipPath><clipPath class="axesclip" id="clip31fb3bx"><rect x="80" y="0" width="540" height="500"/></clipPath><clipPath class="axesclip" id="clip31fb3by"><rect x="0" y="100" width="700" height="320"/></clipPath><clipPath class="axesclip" id="clip31fb3bxy"><rect x="80" y="100" width="540" height="320"/></clipPath></g><g class="gradients"/><g class="patterns"/></defs><g class="bglayer"><rect class="bg" x="80" y="100" width="540" height="320" style="fill: rgb(0, 0, 0); fill-opacity: 0; stroke-width: 0;"/></g><g class="layer-below"><g class="imagelayer"/><g class="shapelayer"/></g><g class="cartesianlayer"><g class="subplot xy"><g class="layer-subplot"><g class="shapelayer"/><g class="imagelayer"/></g><g class="minor-gridlayer"><g class="x"/><g class="y"/></g><g class="gridlayer"><g class="x"><path class="xgrid crisp" transform="translate(96.83,0)" d="M0,100v320" style="stroke: rgb(255, 255, 255); stroke-opacity: 1; stroke-width: 1px;"/><path class="xgrid crisp" transform="translate(199.86,0)" d="M0,100v320" style="stroke: rgb(255, 255, 255); stroke-opacity: 1; stroke-width: 1px;"/><path class="xgrid crisp" transform="translate(302.76,0)" d="M0,100v320" style="stroke: rgb(255, 255, 255); stroke-opacity: 1; stroke-width: 1px;"/><path class="xgrid crisp" transform="translate(405.79,0)" d="M0,100v320" style="stroke: rgb(255, 255, 255); stroke-opacity: 1; stroke-width: 1px;"/><path class="xgrid crisp" transform="translate(508.68,0)" d="M0,100v320" style="stroke: rgb(255, 255, 255); stroke-opacity: 1; stroke-width: 1px;"/><path class="xgrid crisp" transform="translate(611.72,0)" d="M0,100v320" style="stroke: rgb(255, 255, 255); stroke-opacity: 1; stroke-width: 1px;"/></g><g class="y"><path class="ygrid crisp" transform="translate(0,357.96)" d="M80,0h540" style="stroke: rgb(255, 255, 255); stroke-opacity: 1; stroke-width: 1px;"/><path class="ygrid crisp" transform="translate(0,295.91999999999996)" d="M80,0h540" style="stroke: rgb(255, 255, 255); stroke-opacity: 1; stroke-width: 1px;"/><path class="ygrid crisp" transform="translate(0,233.88)" d="M80,0h540" style="stroke: rgb(255, 255, 255); stroke-opacity: 1; stroke-width: 1px;"/><path class="ygrid crisp" transform="translate(0,171.84)" d="M80,0h540" style="stroke: rgb(255, 255, 255); stroke-opacity: 1; stroke-width: 1px;"/><path class="ygrid crisp" transform="translate(0,109.8)" d="M80,0h540" style="stroke: rgb(255, 255, 255); stroke-opacity: 1; stroke-width: 1px;"/></g></g><g class="zerolinelayer"><path class="yzl zl crisp" transform="translate(0,420)" d="M80,0h540" style="stroke: rgb(255, 255, 255); stroke-opacity: 1; stroke-width: 2px;"/></g><g class="layer-between"><g class="shapelayer"/><g class="imagelayer"/></g><path class="xlines-below"/><path class="ylines-below"/><g class="overlines-below"/><g class="xaxislayer-below"/><g class="yaxislayer-below"/><g class="overaxes-below"/><g class="overplot"><g class="xy" transform="translate(80,100)" clip-path="url(#clip31fb3bxyplot)"><g class="scatterlayer mlayer"><g class="trace scatter trace9f5735" style="stroke-miterlimit: 2;"><g class="fills"><g><path class="js-fill" d="M540,320L0,320L0,316.9L0.1,320L1.02,316.9L1.7,320L1.81,316.9L1.81,320L3.06,316.9L3.8,320L4.66,316.9L4.66,320L4.76,320L5.49,316.9L5.49,320L6.07,320L6.9,316.9L6.9,320L7.48,320L9,316.9L9,320L9.64,316.9L9.85,320L11.55,316.9L11.55,320L14.37,316.9L14.37,320L21.71,316.9L21.71,320L21.9,316.9L21.9,320L23.5,316.9L23.5,313.8L23.65,316.9L24.78,320L26.47,316.9L26.47,320L27.78,313.8L27.78,316.9L27.78,320L30.59,316.9L30.59,320L30.73,320L31.96,316.9L32.56,320L32.56,320L33.45,316.9L33.45,320L34.21,316.9L34.72,320L34.96,316.9L35.05,320L37.63,313.8L38.06,316.9L38.18,313.8L38.18,316.9L39.47,320L40.19,316.9L40.19,320L41.88,316.9L41.88,320L42.96,316.9L42.96,320L43.45,307.59L43.55,310.69L44.08,313.8L44.51,316.9L44.95,313.8L44.96,316.9L46.21,313.8L50.03,310.69L50.03,313.8L50.32,316.9L51.12,313.8L52.01,320L53.42,316.9L53.42,320L53.81,320L56.93,316.9L56.93,320L56.93,316.9L58.42,313.8L58.74,316.9L59.53,313.8L60.29,310.69L60.32,313.8L60.33,310.69L60.89,320L62.73,316.9L63.02,320L63.69,316.9L63.84,313.8L64.81,316.9L64.98,310.69L65.11,313.8L65.93,316.9L66.24,313.8L66.24,316.9L66.79,313.8L66.86,307.59L66.97,320L67.06,320L67.64,316.9L68.48,313.8L68.48,316.9L69.21,310.69L69.22,313.8L69.91,310.69L74.4,307.59L74.87,304.49L76.54,320L77.53,316.9L77.53,320L78.49,316.9L79.68,313.8L79.74,316.9L80.8,310.69L81.2,307.59L81.71,304.49L81.71,307.59L81.73,310.69L82.87,304.49L82.88,307.59L83.7,304.49L83.7,307.59L83.99,310.69L84.56,307.59L84.56,310.69L84.57,307.59L86.36,310.69L86.54,307.59L86.54,310.69L87.43,307.59L87.66,310.69L88.38,307.59L88.84,304.49L89.6,307.59L90.31,304.49L90.6,307.59L92.85,304.49L92.85,307.59L93.44,304.49L93.46,307.59L94.83,310.69L95.33,307.59L95.54,310.69L95.68,307.59L95.68,310.69L96.69,307.59L96.7,288.98L97.39,304.49L97.66,307.59L97.67,310.69L97.82,304.49L98.22,304.49L98.8,301.39L99.51,304.49L99.69,301.39L100.21,295.18L100.37,301.39L100.46,304.49L101.08,292.08L101.21,298.29L102.16,301.39L102.59,292.08L102.59,292.08L103.12,295.18L104.17,279.67L105.11,276.57L106.13,279.67L106.41,276.57L107.13,282.78L107.25,279.67L107.55,292.08L107.68,288.98L108.32,285.88L108.82,273.47L108.82,276.57L109.2,279.67L109.24,282.78L110.08,279.67L110.21,276.57L110.22,279.67L111.5,282.78L111.62,295.18L112.19,292.08L112.2,288.98L112.21,295.18L113.3,292.08L113.3,295.18L115.44,292.08L115.44,288.98L115.44,295.18L117.41,292.08L117.42,295.18L117.42,292.08L118.48,295.18L118.53,292.08L120.36,288.98L121.19,295.18L121.2,292.08L121.35,295.18L121.51,292.08L121.52,295.18L122.34,292.08L122.66,295.18L123.35,292.08L123.38,295.18L125,292.08L125.03,295.18L126.86,292.08L126.96,295.18L127.35,292.08L127.83,288.98L127.95,292.08L128.83,288.98L128.83,292.08L129.24,279.67L129.38,279.67L129.77,276.57L130.11,292.08L130.11,292.08L131.09,288.98L131.2,295.18L131.38,295.18L132.07,292.08L133.04,288.98L133.16,285.88L133.72,288.98L133.9,285.88L134,282.78L134.72,276.57L134.75,279.67L135.06,276.57L135.27,279.67L135.72,276.57L135.73,273.47L135.73,264.16L135.88,282.78L137.13,279.67L137.25,276.57L137.26,279.67L138.68,276.57L139.44,288.98L140.65,285.88L141.05,288.98L142.64,285.88L143.71,282.78L143.71,285.88L145.02,276.57L145.03,279.67L145.28,282.78L145.31,285.88L145.7,279.67L145.71,282.78L146.03,279.67L146.03,282.78L147.01,285.88L147.18,292.08L147.88,288.98L147.97,285.88L149.57,282.78L150.1,273.47L150.11,279.67L150.11,282.78L150.16,288.98L151.94,285.88L152.04,288.98L152.08,285.88L153.65,282.78L153.67,285.88L155.02,282.78L155.02,285.88L155.44,282.78L155.88,279.67L156.57,276.57L156.6,279.67L159.43,282.78L162.44,276.57L163.17,273.47L163.93,276.57L164.63,273.47L164.64,276.57L167.29,273.47L167.75,276.57L168.35,273.47L169.56,270.37L169.8,273.47L169.8,270.37L169.84,295.18L169.84,292.08L172.21,288.98L172.22,292.08L174.54,295.18L175.63,292.08L175.63,295.18L176.25,292.08L176.28,295.18L178.47,292.08L178.63,288.98L180,292.08L180.01,295.18L180.59,270.37L180.68,273.47L180.68,270.37L180.71,282.78L182.21,279.67L182.54,270.37L184.19,267.27L184.68,264.16L184.7,267.27L186.87,264.16L187.35,267.27L188.67,264.16L188.96,267.27L189.26,264.16L191.42,261.06L194.38,257.96L194.48,261.06L195.38,257.96L196.07,261.06L196.11,254.86L196.33,257.96L197.2,261.06L197.46,273.47L198.27,276.57L198.35,279.67L198.45,273.47L201.85,270.37L202.41,273.47L203.09,270.37L203.23,267.27L205.36,264.16L208.29,261.06L209.86,257.96L209.88,254.86L211.18,251.76L211.96,254.86L211.98,251.76L212.27,273.47L212.28,270.37L213.25,273.47L213.67,276.57L213.69,273.47L214.82,276.57L215.28,282.78L215.65,279.67L215.66,282.78L216.19,273.47L216.23,279.67L216.79,282.78L216.82,285.88L217.72,282.78L218.88,279.67L218.89,282.78L220.86,276.57L221.14,273.47L223.48,270.37L224.59,273.47L226.16,270.37L226.64,267.27L228.92,261.06L228.93,264.16L229.78,254.86L231.59,251.76L231.88,242.45L232.4,239.35L233.46,233.14L233.5,236.24L235.73,214.53L235.8,217.63L235.81,220.73L235.96,211.43L236.55,214.53L236.66,211.43L237.94,208.33L238.08,205.22L238.35,214.53L238.35,217.63L238.52,236.24L238.8,230.04L239.29,226.94L240.33,279.67L240.56,276.57L240.74,273.47L240.75,270.37L241.34,279.67L241.44,276.57L241.62,273.47L242.54,282.78L242.55,279.67L242.55,276.57L243.29,288.98L243.53,285.88L243.53,288.98L243.73,276.57L244.27,285.88L244.51,282.78L244.66,285.88L244.81,282.78L245.5,279.67L245.53,276.57L246.34,279.67L246.83,273.47L247.46,270.37L248.32,264.16L248.32,267.27L249.17,261.06L249.17,264.16L250.63,254.86L251.56,257.96L255.17,254.86L255.26,251.76L255.52,248.65L255.82,251.76L257.4,248.65L258.33,242.45L258.68,239.35L259.06,236.24L260.64,233.14L261.07,223.84L261.28,233.14L261.28,236.24L262.49,220.73L264.53,217.63L264.6,211.43L265.62,208.33L267.24,202.12L267.28,205.22L267.3,226.94L267.92,214.53L268.2,211.43L268.2,214.53L268.34,211.43L270.46,208.33L272.13,205.22L272.32,202.12L274.06,199.02L274.06,202.12L274.06,199.02L274.06,202.12L275.01,199.02L275.2,195.92L275.87,199.02L276.82,211.43L277.02,214.53L278.55,211.43L279.07,214.53L280.43,208.33L281.13,205.22L281.13,208.33L281.91,205.22L282.02,199.02L283.16,202.12L283.72,239.35L286.25,236.24L286.74,239.35L287.12,236.24L287.14,239.35L289.93,236.24L290.63,242.45L290.66,239.35L290.77,236.24L290.77,239.35L291.02,239.35L291.71,242.45L291.88,236.24L291.88,239.35L294.21,236.24L294.23,233.14L295.01,230.04L297.01,226.94L297.53,223.84L297.69,214.53L297.73,230.04L298.08,223.84L298.53,226.94L299,233.14L299.22,230.04L299.48,226.94L300.27,267.27L300.5,264.16L301.47,254.86L302.08,251.76L303.08,236.24L304.03,233.14L304.92,230.04L305.02,226.94L305.86,217.63L305.9,220.73L306.86,186.61L309.03,183.51L310.92,180.41L310.92,177.31L314.28,180.41L314.35,177.31L315.6,174.2L316.01,171.1L318.01,158.69L318.01,155.59L318.14,149.39L318.54,214.53L318.84,211.43L319.28,208.33L319.3,217.63L319.55,214.53L319.7,211.43L320.71,195.92L320.83,199.02L323.15,195.92L323.65,192.82L323.94,195.92L324.88,192.82L325.27,195.92L326.42,192.82L327.86,195.92L327.88,205.22L328.53,202.12L329.23,205.22L329.67,223.84L330.08,226.94L330.22,223.84L330.52,233.14L330.72,230.04L331.1,233.14L331.66,230.04L332.47,220.73L333.35,217.63L333.57,211.43L334.21,208.33L335.06,214.53L335.46,211.43L335.46,214.53L336.16,211.43L336.44,214.53L336.44,220.73L337,217.63L338.32,214.53L338.53,208.33L338.96,217.63L338.98,217.63L338.98,220.73L339.62,214.53L339.83,211.43L340.61,205.22L340.63,208.33L343.68,205.22L344.06,208.33L345.42,205.22L345.87,202.12L345.87,205.22L346.62,208.33L346.9,205.22L346.98,211.43L347.72,208.33L348.82,199.02L348.82,202.12L349.26,195.92L349.82,192.82L350.25,199.02L350.27,192.82L350.79,195.92L350.79,192.82L351.38,195.92L352.09,192.82L352.23,195.92L352.91,192.82L354.05,186.61L354.06,183.51L354.11,189.71L354.89,186.61L354.93,183.51L355.75,180.41L356.84,177.31L356.94,174.2L357.64,161.8L358,158.69L358.12,161.8L359.81,158.69L360.1,155.59L361.15,152.49L361.3,180.41L361.42,180.41L362.87,177.31L363.8,174.2L363.81,177.31L365.63,174.2L365.63,177.31L366.05,174.2L368.45,171.1L368.45,174.2L369.12,174.2L369.71,171.1L370.46,158.69L370.52,161.8L371.7,158.69L371.79,152.49L372.23,171.1L372.59,168L372.81,171.1L373.77,168L374.59,155.59L374.8,152.49L375.38,168L375.49,158.69L375.68,155.59L376.38,174.2L376.62,171.1L377.44,202.12L377.52,199.02L378.22,217.63L378.6,214.53L379.38,217.63L381.8,214.53L382.41,205.22L382.44,208.33L382.67,211.43L386.19,208.33L386.21,211.43L386.92,205.22L387.81,208.33L388.93,205.22L389.84,202.12L389.84,205.22L391.67,202.12L391.81,195.92L392.82,199.02L393.37,189.71L393.37,186.61L393.38,177.31L397.09,180.41L398.16,168L400.26,164.9L400.75,158.69L400.75,161.8L400.75,164.9L402.82,158.69L403.27,155.59L406.01,149.39L406.21,146.29L406.77,143.18L406.77,146.29L406.94,149.39L407.54,164.9L407.67,161.8L408.26,158.69L408.31,161.8L408.63,146.29L409.03,143.18L409.21,133.88L409.41,143.18L409.41,146.29L409.41,152.49L410.04,140.08L410.17,136.98L410.45,133.88L410.56,143.18L410.58,146.29L410.62,143.18L411.05,155.59L411.32,152.49L411.4,149.39L411.99,161.8L412.03,158.69L412.29,155.59L413.02,152.49L413.03,149.39L413.45,168L413.94,161.8L413.97,158.69L414.36,140.08L414.54,174.2L414.85,171.1L415.28,152.49L415.43,164.9L415.43,168L415.48,174.2L416.04,164.9L416.08,168L416.68,164.9L416.82,174.2L417.38,158.69L417.46,155.59L417.52,158.69L417.89,140.08L417.89,136.98L417.93,127.67L418.06,180.41L418.37,168L418.78,164.9L419.2,158.69L419.43,168L419.47,164.9L419.86,161.8L420.51,171.1L420.85,174.2L421.15,177.31L421.48,164.9L421.83,168L421.98,183.51L422.45,180.41L422.85,177.31L423.51,192.82L424.09,189.71L424.44,192.82L424.82,183.51L424.82,180.41L425.07,168L425.78,171.1L425.92,186.61L426.23,164.9L426.39,171.1L426.56,174.2L426.78,171.1L426.94,180.41L428.09,177.31L428.23,183.51L428.39,177.31L429.05,174.2L429.2,177.31L429.38,171.1L429.72,168L429.75,177.31L430.15,171.1L430.85,168L431.35,164.9L431.35,168L431.35,171.1L431.88,164.9L431.88,161.8L431.89,158.69L431.93,171.1L432.06,161.8L432.91,158.69L433.13,149.39L433.26,161.8L433.34,164.9L434.04,189.71L434.3,183.51L434.3,180.41L434.66,177.31L434.66,183.51L434.66,186.61L434.66,183.51L434.67,192.82L435.26,189.71L435.48,186.61L435.72,189.71L435.97,177.31L436.1,180.41L436.11,177.31L436.67,199.02L436.86,183.51L436.91,180.41L436.92,177.31L436.94,199.02L437.63,183.51L437.77,180.41L437.91,186.61L438.25,171.1L438.51,174.2L439.04,202.12L439.21,199.02L439.62,202.12L440.06,186.61L440.35,189.71L440.59,186.61L440.6,189.71L441.03,183.51L441.04,183.51L442.14,180.41L442.73,174.2L442.73,177.31L443.54,174.2L443.58,171.1L443.61,195.92L444.01,192.82L444.55,195.92L444.66,199.02L444.83,183.51L444.83,180.41L445.24,174.2L445.28,180.41L445.49,183.51L445.52,180.41L446.23,202.12L446.23,199.02L446.52,202.12L446.83,192.82L447.11,199.02L447.42,202.12L447.78,205.22L448.09,192.82L448.11,195.92L448.5,192.82L449.58,183.51L449.91,186.61L449.93,183.51L450.07,195.92L450.5,195.92L450.79,192.82L450.8,195.92L451.07,189.71L451.31,195.92L451.61,192.82L451.92,205.22L452.17,199.02L452.48,202.12L453.15,195.92L453.15,199.02L453.39,195.92L453.56,186.61L453.57,199.02L453.75,192.82L454.45,195.92L454.45,192.82L454.98,205.22L455.39,202.12L455.68,199.02L455.69,205.22L455.97,202.12L456.26,199.02L456.93,195.92L456.93,199.02L457.09,202.12L457.1,199.02L457.24,214.53L457.78,211.43L457.84,208.33L457.92,205.22L458.5,214.53L458.52,211.43L458.63,214.53L459.33,199.02L459.34,211.43L459.34,214.53L459.34,211.43L459.48,217.63L460.06,214.53L460.31,211.43L460.31,217.63L461.06,214.53L461.17,217.63L461.19,223.84L461.89,217.63L462.71,214.53L462.84,217.63L463.5,214.53L463.64,208.33L463.7,223.84L463.73,223.84L463.73,226.94L464.42,214.53L464.43,223.84L464.43,226.94L465.12,220.73L465.15,223.84L465.23,226.94L465.55,217.63L465.55,220.73L466.1,217.63L466.1,220.73L466.83,208.33L466.84,211.43L467.1,214.53L467.43,220.73L467.58,214.53L467.64,211.43L468.25,208.33L468.5,211.43L468.5,214.53L468.52,208.33L468.54,211.43L469.49,208.33L469.49,211.43L470.08,205.22L470.24,205.22L470.74,202.12L471.2,195.92L471.47,202.12L471.6,199.02L471.61,195.92L472.52,199.02L473.14,195.92L473.43,208.33L473.47,205.22L474.17,214.53L474.42,211.43L474.42,208.33L474.42,211.43L475.14,195.92L475.15,208.33L475.19,205.22L476.1,202.12L476.1,205.22L476.67,199.02L476.68,195.92L476.71,205.22L477.38,205.22L477.44,202.12L477.52,217.63L478.16,211.43L478.22,214.53L478.26,208.33L478.79,226.94L479.56,223.84L479.95,226.94L479.98,223.84L480.63,220.73L481.18,226.94L481.95,223.84L482.38,217.63L482.79,220.73L482.87,223.84L483.22,217.63L483.29,223.84L483.3,226.94L484.06,220.73L484.06,223.84L484.15,220.73L484.48,214.53L484.48,217.63L485.17,220.73L485.3,214.53L485.79,220.73L486.64,217.63L487.5,214.53L487.5,217.63L487.54,220.73L488.09,214.53L488.1,220.73L488.97,217.63L489.08,211.43L489.09,220.73L489.23,214.53L490.06,217.63L490.65,205.22L490.97,202.12L491.48,205.22L491.66,202.12L491.66,199.02L492.3,186.61L492.3,205.22L492.4,202.12L492.64,199.02L492.92,195.92L492.93,202.12L492.93,205.22L493.52,202.12L493.76,205.22L493.87,202.12L494.18,211.43L494.83,214.53L495.31,208.33L495.43,214.53L495.43,217.63L495.43,214.53L495.82,223.84L496.1,223.84L496.26,220.73L496.87,217.63L496.95,220.73L496.97,223.84L497.17,214.53L497.32,217.63L497.96,214.53L498.8,223.84L498.84,220.73L499.08,223.84L499.51,217.63L499.78,220.73L500.1,211.43L500.19,217.63L500.97,214.53L501.34,220.73L501.42,211.43L501.76,208.33L502.33,202.12L502.45,217.63L502.45,214.53L502.46,217.63L503.06,208.33L503.62,205.22L504.38,199.02L504.78,202.12L504.78,205.22L505.74,202.12L505.98,208.33L506.43,195.92L506.48,205.22L506.56,202.12L506.97,205.22L507.28,202.12L508.67,199.02L509.83,186.61L509.94,189.71L509.94,192.82L509.94,195.92L510.11,186.61L510.15,186.61L512.36,189.71L512.74,183.51L513.06,208.33L513.17,205.22L513.17,208.33L513.9,199.02L513.9,202.12L514.17,205.22L514.88,186.61L514.89,192.82L514.93,189.71L515.59,199.02L515.62,192.82L515.72,189.71L515.72,192.82L516.17,186.61L516.61,183.51L516.73,186.61L516.89,180.41L516.89,186.61L518.79,183.51L518.79,186.61L520.57,183.51L521.97,171.1L522.13,168L522.18,161.8L522.19,171.1L522.64,168L522.97,164.9L524.49,158.69L524.73,155.59L524.73,158.69L525.22,149.39L526.36,146.29L527.02,133.88L527.02,130.78L527.02,133.88L527.61,115.27L527.71,115.27L527.97,112.16L527.98,115.27L528.43,99.76L528.6,102.86L528.71,99.76L529.71,90.45L529.72,93.55L530.29,78.04L530.41,78.04L532.71,74.94L533.97,53.22L534.92,50.12L536.61,43.92L538.42,40.82L539.01,28.41L539.35,25.31L540,16" style="fill: rgb(44, 160, 44); fill-opacity: 0.5; stroke-width: 0;"/></g></g><g class="errorbars"/><g class="lines"><path class="js-line" d="M0,316.9L0.1,320L1.02,316.9L1.7,320L1.81,316.9L1.81,320L3.06,316.9L3.8,320L4.66,316.9L4.66,320L4.76,320L5.49,316.9L5.49,320L6.07,320L6.9,316.9L6.9,320L7.48,320L9,316.9L9,320L9.64,316.9L9.85,320L11.55,316.9L11.55,320L14.37,316.9L14.37,320L21.71,316.9L21.71,320L21.9,316.9L21.9,320L23.5,316.9L23.5,313.8L23.65,316.9L24.78,320L26.47,316.9L26.47,320L27.78,313.8L27.78,316.9L27.78,320L30.59,316.9L30.59,320L30.73,320L31.96,316.9L32.56,320L32.56,320L33.45,316.9L33.45,320L34.21,316.9L34.72,320L34.96,316.9L35.05,320L37.63,313.8L38.06,316.9L38.18,313.8L38.18,316.9L39.47,320L40.19,316.9L40.19,320L41.88,316.9L41.88,320L42.96,316.9L42.96,320L43.45,307.59L43.55,310.69L44.08,313.8L44.51,316.9L44.95,313.8L44.96,316.9L46.21,313.8L50.03,310.69L50.03,313.8L50.32,316.9L51.12,313.8L52.01,320L53.42,316.9L53.42,320L53.81,320L56.93,316.9L56.93,320L56.93,316.9L58.42,313.8L58.74,316.9L59.53,313.8L60.29,310.69L60.32,313.8L60.33,310.69L60.89,320L62.73,316.9L63.02,320L63.69,316.9L63.84,313.8L64.81,316.9L64.98,310.69L65.11,313.8L65.93,316.9L66.24,313.8L66.24,316.9L66.79,313.8L66.86,307.59L66.97,320L67.06,320L67.64,316.9L68.48,313.8L68.48,316.9L69.21,310.69L69.22,313.8L69.91,310.69L74.4,307.59L74.87,304.49L76.54,320L77.53,316.9L77.53,320L78.49,316.9L79.68,313.8L79.74,316.9L80.8,310.69L81.2,307.59L81.71,304.49L81.71,307.59L81.73,310.69L82.87,304.49L82.88,307.59L83.7,304.49L83.7,307.59L83.99,310.69L84.56,307.59L84.56,310.69L84.57,307.59L86.36,310.69L86.54,307.59L86.54,310.69L87.43,307.59L87.66,310.69L88.38,307.59L88.84,304.49L89.6,307.59L90.31,304.49L90.6,307.59L92.85,304.49L92.85,307.59L93.44,304.49L93.46,307.59L94.83,310.69L95.33,307.59L95.54,310.69L95.68,307.59L95.68,310.69L96.69,307.59L96.7,288.98L97.39,304.49L97.66,307.59L97.67,310.69L97.82,304.49L98.22,304.49L98.8,301.39L99.51,304.49L99.69,301.39L100.21,295.18L100.37,301.39L100.46,304.49L101.08,292.08L101.21,298.29L102.16,301.39L102.59,292.08L102.59,292.08L103.12,295.18L104.17,279.67L105.11,276.57L106.13,279.67L106.41,276.57L107.13,282.78L107.25,279.67L107.55,292.08L107.68,288.98L108.32,285.88L108.82,273.47L108.82,276.57L109.2,279.67L109.24,282.78L110.08,279.67L110.21,276.57L110.22,279.67L111.5,282.78L111.62,295.18L112.19,292.08L112.2,288.98L112.21,295.18L113.3,292.08L113.3,295.18L115.44,292.08L115.44,288.98L115.44,295.18L117.41,292.08L117.42,295.18L117.42,292.08L118.48,295.18L118.53,292.08L120.36,288.98L121.19,295.18L121.2,292.08L121.35,295.18L121.51,292.08L121.52,295.18L122.34,292.08L122.66,295.18L123.35,292.08L123.38,295.18L125,292.08L125.03,295.18L126.86,292.08L126.96,295.18L127.35,292.08L127.83,288.98L127.95,292.08L128.83,288.98L128.83,292.08L129.24,279.67L129.38,279.67L129.77,276.57L130.11,292.08L130.11,292.08L131.09,288.98L131.2,295.18L131.38,295.18L132.07,292.08L133.04,288.98L133.16,285.88L133.72,288.98L133.9,285.88L134,282.78L134.72,276.57L134.75,279.67L135.06,276.57L135.27,279.67L135.72,276.57L135.73,273.47L135.73,264.16L135.88,282.78L137.13,279.67L137.25,276.57L137.26,279.67L138.68,276.57L139.44,288.98L140.65,285.88L141.05,288.98L142.64,285.88L143.71,282.78L143.71,285.88L145.02,276.57L145.03,279.67L145.28,282.78L145.31,285.88L145.7,279.67L145.71,282.78L146.03,279.67L146.03,282.78L147.01,285.88L147.18,292.08L147.88,288.98L147.97,285.88L149.57,282.78L150.1,273.47L150.11,279.67L150.11,282.78L150.16,288.98L151.94,285.88L152.04,288.98L152.08,285.88L153.65,282.78L153.67,285.88L155.02,282.78L155.02,285.88L155.44,282.78L155.88,279.67L156.57,276.57L156.6,279.67L159.43,282.78L162.44,276.57L163.17,273.47L163.93,276.57L164.63,273.47L164.64,276.57L167.29,273.47L167.75,276.57L168.35,273.47L169.56,270.37L169.8,273.47L169.8,270.37L169.84,295.18L169.84,292.08L172.21,288.98L172.22,292.08L174.54,295.18L175.63,292.08L175.63,295.18L176.25,292.08L176.28,295.18L178.47,292.08L178.63,288.98L180,292.08L180.01,295.18L180.59,270.37L180.68,273.47L180.68,270.37L180.71,282.78L182.21,279.67L182.54,270.37L184.19,267.27L184.68,264.16L184.7,267.27L186.87,264.16L187.35,267.27L188.67,264.16L188.96,267.27L189.26,264.16L191.42,261.06L194.38,257.96L194.48,261.06L195.38,257.96L196.07,261.06L196.11,254.86L196.33,257.96L197.2,261.06L197.46,273.47L198.27,276.57L198.35,279.67L198.45,273.47L201.85,270.37L202.41,273.47L203.09,270.37L203.23,267.27L205.36,264.16L208.29,261.06L209.86,257.96L209.88,254.86L211.18,251.76L211.96,254.86L211.98,251.76L212.27,273.47L212.28,270.37L213.25,273.47L213.67,276.57L213.69,273.47L214.82,276.57L215.28,282.78L215.65,279.67L215.66,282.78L216.19,273.47L216.23,279.67L216.79,282.78L216.82,285.88L217.72,282.78L218.88,279.67L218.89,282.78L220.86,276.57L221.14,273.47L223.48,270.37L224.59,273.47L226.16,270.37L226.64,267.27L228.92,261.06L228.93,264.16L229.78,254.86L231.59,251.76L231.88,242.45L232.4,239.35L233.46,233.14L233.5,236.24L235.73,214.53L235.8,217.63L235.81,220.73L235.96,211.43L236.55,214.53L236.66,211.43L237.94,208.33L238.08,205.22L238.35,214.53L238.35,217.63L238.52,236.24L238.8,230.04L239.29,226.94L240.33,279.67L240.56,276.57L240.74,273.47L240.75,270.37L241.34,279.67L241.44,276.57L241.62,273.47L242.54,282.78L242.55,279.67L242.55,276.57L243.29,288.98L243.53,285.88L243.53,288.98L243.73,276.57L244.27,285.88L244.51,282.78L244.66,285.88L244.81,282.78L245.5,279.67L245.53,276.57L246.34,279.67L246.83,273.47L247.46,270.37L248.32,264.16L248.32,267.27L249.17,261.06L249.17,264.16L250.63,254.86L251.56,257.96L255.17,254.86L255.26,251.76L255.52,248.65L255.82,251.76L257.4,248.65L258.33,242.45L258.68,239.35L259.06,236.24L260.64,233.14L261.07,223.84L261.28,233.14L261.28,236.24L262.49,220.73L264.53,217.63L264.6,211.43L265.62,208.33L267.24,202.12L267.28,205.22L267.3,226.94L267.92,214.53L268.2,211.43L268.2,214.53L268.34,211.43L270.46,208.33L272.13,205.22L272.32,202.12L274.06,199.02L274.06,202.12L274.06,199.02L274.06,202.12L275.01,199.02L275.2,195.92L275.87,199.02L276.82,211.43L277.02,214.53L278.55,211.43L279.07,214.53L280.43,208.33L281.13,205.22L281.13,208.33L281.91,205.22L282.02,199.02L283.16,202.12L283.72,239.35L286.25,236.24L286.74,239.35L287.12,236.24L287.14,239.35L289.93,236.24L290.63,242.45L290.66,239.35L290.77,236.24L290.77,239.35L291.02,239.35L291.71,242.45L291.88,236.24L291.88,239.35L294.21,236.24L294.23,233.14L295.01,230.04L297.01,226.94L297.53,223.84L297.69,214.53L297.73,230.04L298.08,223.84L298.53,226.94L299,233.14L299.22,230.04L299.48,226.94L300.27,267.27L300.5,264.16L301.47,254.86L302.08,251.76L303.08,236.24L304.03,233.14L304.92,230.04L305.02,226.94L305.86,217.63L305.9,220.73L306.86,186.61L309.03,183.51L310.92,180.41L310.92,177.31L314.28,180.41L314.35,177.31L315.6,174.2L316.01,171.1L318.01,158.69L318.01,155.59L318.14,149.39L318.54,214.53L318.84,211.43L319.28,208.33L319.3,217.63L319.55,214.53L319.7,211.43L320.71,195.92L320.83,199.02L323.15,195.92L323.65,192.82L323.94,195.92L324.88,192.82L325.27,195.92L326.42,192.82L327.86,195.92L327.88,205.22L328.53,202.12L329.23,205.22L329.67,223.84L330.08,226.94L330.22,223.84L330.52,233.14L330.72,230.04L331.1,233.14L331.66,230.04L332.47,220.73L333.35,217.63L333.57,211.43L334.21,208.33L335.06,214.53L335.46,211.43L335.46,214.53L336.16,211.43L336.44,214.53L336.44,220.73L337,217.63L338.32,214.53L338.53,208.33L338.96,217.63L338.98,217.63L338.98,220.73L339.62,214.53L339.83,211.43L340.61,205.22L340.63,208.33L343.68,205.22L344.06,208.33L345.42,205.22L345.87,202.12L345.87,205.22L346.62,208.33L346.9,205.22L346.98,211.43L347.72,208.33L348.82,199.02L348.82,202.12L349.26,195.92L349.82,192.82L350.25,199.02L350.27,192.82L350.79,195.92L350.79,192.82L351.38,195.92L352.09,192.82L352.23,195.92L352.91,192.82L354.05,186.61L354.06,183.51L354.11,189.71L354.89,186.61L354.93,183.51L355.75,180.41L356.84,177.31L356.94,174.2L357.64,161.8L358,158.69L358.12,161.8L359.81,158.69L360.1,155.59L361.15,152.49L361.3,180.41L361.42,180.41L362.87,177.31L363.8,174.2L363.81,177.31L365.63,174.2L365.63,177.31L366.05,174.2L368.45,171.1L368.45,174.2L369.12,174.2L369.71,171.1L370.46,158.69L370.52,161.8L371.7,158.69L371.79,152.49L372.23,171.1L372.59,168L372.81,171.1L373.77,168L374.59,155.59L374.8,152.49L375.38,168L375.49,158.69L375.68,155.59L376.38,174.2L376.62,171.1L377.44,202.12L377.52,199.02L378.22,217.63L378.6,214.53L379.38,217.63L381.8,214.53L382.41,205.22L382.44,208.33L382.67,211.43L386.19,208.33L386.21,211.43L386.92,205.22L387.81,208.33L388.93,205.22L389.84,202.12L389.84,205.22L391.67,202.12L391.81,195.92L392.82,199.02L393.37,189.71L393.37,186.61L393.38,177.31L397.09,180.41L398.16,168L400.26,164.9L400.75,158.69L400.75,161.8L400.75,164.9L402.82,158.69L403.27,155.59L406.01,149.39L406.21,146.29L406.77,143.18L406.77,146.29L406.94,149.39L407.54,164.9L407.67,161.8L408.26,158.69L408.31,161.8L408.63,146.29L409.03,143.18L409.21,133.88L409.41,143.18L409.41,146.29L409.41,152.49L410.04,140.08L410.17,136.98L410.45,133.88L410.56,143.18L410.58,146.29L410.62,143.18L411.05,155.59L411.32,152.49L411.4,149.39L411.99,161.8L412.03,158.69L412.29,155.59L413.02,152.49L413.03,149.39L413.45,168L413.94,161.8L413.97,158.69L414.36,140.08L414.54,174.2L414.85,171.1L415.28,152.49L415.43,164.9L415.43,168L415.48,174.2L416.04,164.9L416.08,168L416.68,164.9L416.82,174.2L417.38,158.69L417.46,155.59L417.52,158.69L417.89,140.08L417.89,136.98L417.93,127.67L418.06,180.41L418.37,168L418.78,164.9L419.2,158.69L419.43,168L419.47,164.9L419.86,161.8L420.51,171.1L420.85,174.2L421.15,177.31L421.48,164.9L421.83,168L421.98,183.51L422.45,180.41L422.85,177.31L423.51,192.82L424.09,189.71L424.44,192.82L424.82,183.51L424.82,180.41L425.07,168L425.78,171.1L425.92,186.61L426.23,164.9L426.39,171.1L426.56,174.2L426.78,171.1L426.94,180.41L428.09,177.31L428.23,183.51L428.39,177.31L429.05,174.2L429.2,177.31L429.38,171.1L429.72,168L429.75,177.31L430.15,171.1L430.85,168L431.35,164.9L431.35,168L431.35,171.1L431.88,164.9L431.88,161.8L431.89,158.69L431.93,171.1L432.06,161.8L432.91,158.69L433.13,149.39L433.26,161.8L433.34,164.9L434.04,189.71L434.3,183.51L434.3,180.41L434.66,177.31L434.66,183.51L434.66,186.61L434.66,183.51L434.67,192.82L435.26,189.71L435.48,186.61L435.72,189.71L435.97,177.31L436.1,180.41L436.11,177.31L436.67,199.02L436.86,183.51L436.91,180.41L436.92,177.31L436.94,199.02L437.63,183.51L437.77,180.41L437.91,186.61L438.25,171.1L438.51,174.2L439.04,202.12L439.21,199.02L439.62,202.12L440.06,186.61L440.35,189.71L440.59,186.61L440.6,189.71L441.03,183.51L441.04,183.51L442.14,180.41L442.73,174.2L442.73,177.31L443.54,174.2L443.58,171.1L443.61,195.92L444.01,192.82L444.55,195.92L444.66,199.02L444.83,183.51L444.83,180.41L445.24,174.2L445.28,180.41L445.49,183.51L445.52,180.41L446.23,202.12L446.23,199.02L446.52,202.12L446.83,192.82L447.11,199.02L447.42,202.12L447.78,205.22L448.09,192.82L448.11,195.92L448.5,192.82L449.58,183.51L449.91,186.61L449.93,183.51L450.07,195.92L450.5,195.92L450.79,192.82L450.8,195.92L451.07,189.71L451.31,195.92L451.61,192.82L451.92,205.22L452.17,199.02L452.48,202.12L453.15,195.92L453.15,199.02L453.39,195.92L453.56,186.61L453.57,199.02L453.75,192.82L454.45,195.92L454.45,192.82L454.98,205.22L455.39,202.12L455.68,199.02L455.69,205.22L455.97,202.12L456.26,199.02L456.93,195.92L456.93,199.02L457.09,202.12L457.1,199.02L457.24,214.53L457.78,211.43L457.84,208.33L457.92,205.22L458.5,214.53L458.52,211.43L458.63,214.53L459.33,199.02L459.34,211.43L459.34,214.53L459.34,211.43L459.48,217.63L460.06,214.53L460.31,211.43L460.31,217.63L461.06,214.53L461.17,217.63L461.19,223.84L461.89,217.63L462.71,214.53L462.84,217.63L463.5,214.53L463.64,208.33L463.7,223.84L463.73,223.84L463.73,226.94L464.42,214.53L464.43,223.84L464.43,226.94L465.12,220.73L465.15,223.84L465.23,226.94L465.55,217.63L465.55,220.73L466.1,217.63L466.1,220.73L466.83,208.33L466.84,211.43L467.1,214.53L467.43,220.73L467.58,214.53L467.64,211.43L468.25,208.33L468.5,211.43L468.5,214.53L468.52,208.33L468.54,211.43L469.49,208.33L469.49,211.43L470.08,205.22L470.24,205.22L470.74,202.12L471.2,195.92L471.47,202.12L471.6,199.02L471.61,195.92L472.52,199.02L473.14,195.92L473.43,208.33L473.47,205.22L474.17,214.53L474.42,211.43L474.42,208.33L474.42,211.43L475.14,195.92L475.15,208.33L475.19,205.22L476.1,202.12L476.1,205.22L476.67,199.02L476.68,195.92L476.71,205.22L477.38,205.22L477.44,202.12L477.52,217.63L478.16,211.43L478.22,214.53L478.26,208.33L478.79,226.94L479.56,223.84L479.95,226.94L479.98,223.84L480.63,220.73L481.18,226.94L481.95,223.84L482.38,217.63L482.79,220.73L482.87,223.84L483.22,217.63L483.29,223.84L483.3,226.94L484.06,220.73L484.06,223.84L484.15,220.73L484.48,214.53L484.48,217.63L485.17,220.73L485.3,214.53L485.79,220.73L486.64,217.63L487.5,214.53L487.5,217.63L487.54,220.73L488.09,214.53L488.1,220.73L488.97,217.63L489.08,211.43L489.09,220.73L489.23,214.53L490.06,217.63L490.65,205.22L490.97,202.12L491.48,205.22L491.66,202.12L491.66,199.02L492.3,186.61L492.3,205.22L492.4,202.12L492.64,199.02L492.92,195.92L492.93,202.12L492.93,205.22L493.52,202.12L493.76,205.22L493.87,202.12L494.18,211.43L494.83,214.53L495.31,208.33L495.43,214.53L495.43,217.63L495.43,214.53L495.82,223.84L496.1,223.84L496.26,220.73L496.87,217.63L496.95,220.73L496.97,223.84L497.17,214.53L497.32,217.63L497.96,214.53L498.8,223.84L498.84,220.73L499.08,223.84L499.51,217.63L499.78,220.73L500.1,211.43L500.19,217.63L500.97,214.53L501.34,220.73L501.42,211.43L501.76,208.33L502.33,202.12L502.45,217.63L502.45,214.53L502.46,217.63L503.06,208.33L503.62,205.22L504.38,199.02L504.78,202.12L504.78,205.22L505.74,202.12L505.98,208.33L506.43,195.92L506.48,205.22L506.56,202.12L506.97,205.22L507.28,202.12L508.67,199.02L509.83,186.61L509.94,189.71L509.94,192.82L509.94,195.92L510.11,186.61L510.15,186.61L512.36,189.71L512.74,183.51L513.06,208.33L513.17,205.22L513.17,208.33L513.9,199.02L513.9,202.12L514.17,205.22L514.88,186.61L514.89,192.82L514.93,189.71L515.59,199.02L515.62,192.82L515.72,189.71L515.72,192.82L516.17,186.61L516.61,183.51L516.73,186.61L516.89,180.41L516.89,186.61L518.79,183.51L518.79,186.61L520.57,183.51L521.97,171.1L522.13,168L522.18,161.8L522.19,171.1L522.64,168L522.97,164.9L524.49,158.69L524.73,155.59L524.73,158.69L525.22,149.39L526.36,146.29L527.02,133.88L527.02,130.78L527.02,133.88L527.61,115.27L527.71,115.27L527.97,112.16L527.98,115.27L528.43,99.76L528.6,102.86L528.71,99.76L529.71,90.45L529.72,93.55L530.29,78.04L530.41,78.04L532.71,74.94L533.97,53.22L534.92,50.12L536.61,43.92L538.42,40.82L539.01,28.41L539.35,25.31L540,16" style="vector-effect: none; fill: none; stroke: rgb(44, 160, 44); stroke-opacity: 1; stroke-width: 2px; opacity: 1;"/></g><g class="points"/><g class="text"/></g></g></g></g><g class="zerolinelayer-above"/><path class="xlines-above crisp" d="M0,0" style="fill: none;"/><path class="ylines-above crisp" d="M0,0" style="fill: none;"/><g class="overlines-above"/><g class="xaxislayer-above"><g class="xtick"><text text-anchor="middle" x="0" y="439" transform="translate(96.83,0)" style="font-family: 'Open Sans'; font-size: 18px; fill: rgb(255, 255, 255); fill-opacity: 1; white-space: pre;">2016</text></g><g class="xtick"><text text-anchor="middle" x="0" y="439" style="font-family: 'Open Sans'; font-size: 18px; fill: rgb(255, 255, 255); fill-opacity: 1; white-space: pre;" transform="translate(199.86,0)">2018</text></g><g class="xtick"><text text-anchor="middle" x="0" y="439" style="font-family: 'Open Sans'; font-size: 18px; fill: rgb(255, 255, 255); fill-opacity: 1; white-space: pre;" transform="translate(302.76,0)">2020</text></g><g class="xtick"><text text-anchor="middle" x="0" y="439" style="font-family: 'Open Sans'; font-size: 18px; fill: rgb(255, 255, 255); fill-opacity: 1; white-space: pre;" transform="translate(405.79,0)">2022</text></g><g class="xtick"><text text-anchor="middle" x="0" y="439" style="font-family: 'Open Sans'; font-size: 18px; fill: rgb(255, 255, 255); fill-opacity: 1; white-space: pre;" transform="translate(508.68,0)">2024</text></g><g class="xtick"><text text-anchor="middle" x="0" y="439" style="font-family: 'Open Sans'; font-size: 18px; fill: rgb(255, 255, 255); fill-opacity: 1; white-space: pre;" transform="translate(611.72,0)">2026</text></g></g><g class="yaxislayer-above"><g class="ytick"><text text-anchor="end" x="79" y="6.3" transform="translate(0,420)" style="font-family: 'Open Sans'; font-size: 18px; fill: rgb(255, 255, 255); fill-opacity: 1; white-space: pre;">0</text></g><g class="ytick"><text text-anchor="end" x="79" y="6.3" style="font-family: 'Open Sans'; font-size: 18px; fill: rgb(255, 255, 255); fill-opacity: 1; white-space: pre;" transform="translate(0,357.96)">20</text></g><g class="ytick"><text text-anchor="end" x="79" y="6.3" style="font-family: 'Open Sans'; font-size: 18px; fill: rgb(255, 255, 255); fill-opacity: 1; white-space: pre;" transform="translate(0,295.91999999999996)">40</text></g><g class="ytick"><text text-anchor="end" x="79" y="6.3" style="font-family: 'Open Sans'; font-size: 18px; fill: rgb(255, 255, 255); fill-opacity: 1; white-space: pre;" transform="translate(0,233.88)">60</text></g><g class="ytick"><text text-anchor="end" x="79" y="6.3" style="font-family: 'Open Sans'; font-size: 18px; fill: rgb(255, 255, 255); fill-opacity: 1; white-space: pre;" transform="translate(0,171.84)">80</text></g><g class="ytick"><text text-anchor="end" x="79" y="6.3" style="font-family: 'Open Sans'; font-size: 18px; fill: rgb(255, 255, 255); fill-opacity: 1; white-space: pre;" transform="translate(0,109.8)">100</text></g></g><g class="overaxes-above"/></g></g><g class="polarlayer"/><g class="smithlayer"/><g class="ternarylayer"/><g class="geolayer"/><g class="funnelarealayer"/><g class="pielayer"/><g class="iciclelayer"/><g class="treemaplayer"/><g class="sunburstlayer"/><g class="glimages"/><defs id="topdefs-31fb3b"><g class="clips"/></defs><g class="layer-above"><g class="imagelayer"/><g class="shapelayer"/></g><g class="infolayer"><g class="g-gtitle"><text class="gtitle" x="35" y="50" text-anchor="start" dy="0em" style="opacity: 1; font-family: 'Open Sans'; font-size: 25px; fill: rgb(255, 255, 255); fill-opacity: 1; white-space: pre;">MultiQC/MultiQC - Open Pull Requests Over Time</text></g><g class="g-xtitle"><text class="xtitle" x="350" y="472.9" text-anchor="middle" style="opacity: 1; font-family: 'Open Sans'; font-size: 22px; fill: rgb(255, 255, 255); fill-opacity: 1; white-space: pre;">Date</text></g><g class="g-ytitle"><text class="ytitle" transform="rotate(-90,29.799999999999997,260)" x="29.799999999999997" y="260" text-anchor="middle" style="opacity: 1; font-family: 'Open Sans'; font-size: 22px; fill: rgb(255, 255, 255); fill-opacity: 1; white-space: pre;">Number of Open PRs</text></g></g></svg>