<svg class="main-svg" xmlns="http://www.w3.org/2000/svg" xmlns:xlink="http://www.w3.org/1999/xlink" width="700" height="500" style="" viewBox="0 0 700 500"><rect x="0" y="0" width="700" height="500" style="fill: rgb(0, 0, 0); fill-opacity: 0;"/><defs id="defs-79d1ac"><g class="clips"><clipPath id="clip79d1acxyplot" class="plotclip"><rect width="540" height="320"/></clipPath><clipPath class="axesclip" id="clip79d1acx"><rect x="80" y="0" width="540" height="500"/></clipPath><clipPath class="axesclip" id="clip79d1acy"><rect x="0" y="100" width="700" height="320"/></clipPath><clipPath class="axesclip" id="clip79d1acxy"><rect x="80" y="100" width="540" height="320"/></clipPath></g><g class="gradients"/><g class="patterns"/></defs><g class="bglayer"><rect class="bg" x="80" y="100" width="540" height="320" style="fill: rgb(0, 0, 0); fill-opacity: 0; stroke-width: 0;"/></g><g class="layer-below"><g class="imagelayer"/><g class="shapelayer"/></g><g class="cartesianlayer"><g class="subplot xy"><g class="layer-subplot"><g class="shapelayer"/><g class="imagelayer"/></g><g class="minor-gridlayer"><g class="x"/><g class="y"/></g><g class="gridlayer"><g class="x"><path class="xgrid crisp" transform="translate(97.14,0)" d="M0,100v320" style="stroke: rgb(255, 255, 255); stroke-opacity: 1; stroke-width: 1px;"/><path class="xgrid crisp" transform="translate(202.09,0)" d="M0,100v320" style="stroke: rgb(255, 255, 255); stroke-opacity: 1; stroke-width: 1px;"/><path class="xgrid crisp" transform="translate(306.9,0)" d="M0,100v320" style="stroke: rgb(255, 255, 255); stroke-opacity: 1; stroke-width: 1px;"/><path class="xgrid crisp" transform="translate(411.85,0)" d="M0,100v320" style="stroke: rgb(255, 255, 255); stroke-opacity: 1; stroke-width: 1px;"/><path class="xgrid crisp" transform="translate(516.6600000000001,0)" d="M0,100v320" style="stroke: rgb(255, 255, 255); stroke-opacity: 1; stroke-width: 1px;"/></g><g class="y"><path class="ygrid crisp" transform="translate(0,382.63)" d="M80,0h540" style="stroke: rgb(255, 255, 255); stroke-opacity: 1; stroke-width: 1px;"/><path class="ygrid crisp" transform="translate(0,345.26)" d="M80,0h540" style="stroke: rgb(255, 255, 255); stroke-opacity: 1; stroke-width: 1px;"/><path class="ygrid crisp" transform="translate(0,307.89)" d="M80,0h540" style="stroke: rgb(255, 255, 255); stroke-opacity: 1; stroke-width: 1px;"/><path class="ygrid crisp" transform="translate(0,270.52)" d="M80,0h540" style="stroke: rgb(255, 255, 255); stroke-opacity: 1; stroke-width: 1px;"/><path class="ygrid crisp" transform="translate(0,233.15)" d="M80,0h540" style="stroke: rgb(255, 255, 255); stroke-opacity: 1; stroke-width: 1px;"/><path class="ygrid crisp" transform="translate(0,195.78)" d="M80,0h540" style="stroke: rgb(255, 255, 255); stroke-opacity: 1; stroke-width: 1px;"/><path class="ygrid crisp" transform="translate(0,158.41)" d="M80,0h540" style="stroke: rgb(255, 255, 255); stroke-opacity: 1; stroke-width: 1px;"/><path class="ygrid crisp" transform="translate(0,121.03999999999999)" d="M80,0h540" style="stroke: rgb(255, 255, 255); stroke-opacity: 1; stroke-width: 1px;"/></g></g><g class="zerolinelayer"><path class="yzl zl crisp" transform="translate(0,420)" d="M80,0h540" style="stroke: rgb(255, 255, 255); stroke-opacity: 1; stroke-width: 2px;"/></g><g class="layer-between"><g class="shapelayer"/><g class="imagelayer"/></g><path class="xlines-below"/><path class="ylines-below"/><g class="overlines-below"/><g class="xaxislayer-below"/><g class="yaxislayer-below"/><g class="overaxes-below"/><g class="overplot"><g class="xy" transform="translate(80,100)" clip-path="url(#clip79d1acxyplot)"><g class="scatterlayer mlayer"><g class="trace scatter trace4dd39d" style="stroke-miterlimit: 2;"><g class="fills"><g><path class="js-fill" d="M540,320L0,320L0,319.81L3.58,318.51L3.87,318.32L5.87,317.2L6.18,317.01L14.64,315.52L22.11,315.33L22.31,315.14L23.94,314.96L23.94,314.77L26.96,314.58L44.22,309.91L44.23,309.72L44.25,309.35L45.21,309.16L45.79,308.79L47.07,308.6L59.51,307.29L60.63,307.11L68.03,304.87L68.08,304.68L68.9,303.74L69.76,303.56L71.21,302.81L75.78,302.62L79.95,301.69L81.17,301.5L85.26,300.01L86.13,299.82L86.14,299.63L88.15,299.45L98.49,297.02L98.49,296.83L99.2,294.22L99.61,294.03L100.05,293.65L100.64,293.47L102.34,292.16L102.48,291.97L103.09,291.04L104.07,290.85L105.23,289.54L105.34,289.36L106.1,288.61L107.07,288.42L110.34,286.55L110.34,286.37L110.84,285.81L112.13,285.62L112.26,285.43L114.28,285.25L114.29,285.06L115.41,284.87L123.15,283.56L123.45,283.38L123.77,282.82L124.61,282.63L131.64,280.95L131.65,280.76L132.53,280.01L133.53,279.83L136.5,278.33L137.23,278.15L139.8,276.46L141.26,276.28L141.81,275.9L143.26,275.72L143.57,275.34L145.29,275.16L152.89,272.35L154.77,272.17L154.91,271.98L156.51,271.79L172.99,269.18L173,268.99L183.37,267.68L183.38,267.5L184.04,266.37L185.6,266.19L185.94,265.44L187.61,265.25L188.12,264.69L190.35,264.51L215.11,261.33L215.83,261.14L216.23,260.21L217.66,260.02L221.77,258.9L222.95,258.71L235.9,256.29L235.9,256.1L236.72,255.35L237.01,255.16L239.62,253.86L239.88,253.67L240.35,252.55L240.95,252.36L241.06,252.17L242.36,251.99L243.74,251.05L244.22,250.87L245.23,250.12L245.93,249.93L247.06,249.19L248.06,249L249.06,247.32L249.21,247.13L250.1,246.57L250.95,246.38L255.29,244.7L259.92,244.51L260.27,244.14L262.19,243.95L265.93,242.46L266.04,242.27L267.37,241.15L269.45,240.96L269.52,240.59L270.56,240.4L275.49,238.72L277.2,238.53L277.39,238.35L279.16,238.16L279.16,237.97L280.13,237.79L280.32,237.6L281.71,237.41L287.21,236.29L287.27,236.11L303.07,232.93L303.07,232.74L303.63,232L304.79,231.81L305.66,230.31L305.68,230.13L308.09,228.26L308.14,228.07L311.63,226.39L312.13,226.2L312.56,224.52L314.78,224.33L323.26,222.84L323.93,222.65L324.1,221.91L324.78,221.72L326.68,220.04L329.17,219.85L329.67,219.48L330.93,219.29L339.55,217.61L339.58,217.42L340.43,217.05L341.7,216.86L346.87,214.99L346.95,214.81L354.42,213.68L354.43,213.5L357.91,212L358.64,211.82L363.58,209.95L363.62,209.76L364.66,209.01L366.51,208.83L369.63,207.52L370.57,207.33L376.87,206.02L376.99,205.84L379.53,204.9L380.73,204.72L381.56,203.78L381.78,203.59L384.55,200.6L385.1,200.42L389.53,199.3L393.38,199.11L397.09,197.62L398.96,197.43L399.1,197.05L400.57,196.87L400.7,195.75L404.71,195.56L405.57,195L407.71,194.81L412.05,193.69L413.57,193.5L415.24,192.57L415.86,192.38L417.22,189.58L417.67,189.39L418.26,187.71L418.62,187.53L419.52,185.28L419.68,185.1L419.97,184.54L420.65,184.35L422.7,178.74L422.93,178.56L423.67,176.88L423.78,176.69L424.43,176.13L424.67,175.94L425.3,174.63L425.31,174.45L425.67,173.33L425.69,173.14L426.15,170.9L426.57,170.71L427.9,169.59L428.26,169.4L429.25,168.28L429.32,168.09L430.01,166.79L430.14,166.6L431.01,164.73L431.98,164.54L432.74,163.24L432.74,163.05L432.98,162.67L433.86,162.49L434.75,158.56L434.85,158.38L434.87,158.19L436.06,158L436.36,157.44L437.03,157.26L440.03,154.64L440.05,154.45L440.1,154.08L440.96,153.89L442.38,151.28L442.38,151.09L442.76,150.16L442.76,149.97L443.35,147.54L443.59,147.35L445.05,140.63L445.06,140.44L445.77,137.82L445.92,137.64L448.25,133.34L448.27,133.15L451.83,130.35L451.84,130.16L452.23,129.04L452.94,128.86L454.22,125.68L454.35,125.49L456.12,121.19L456.13,121.01L456.85,118.95L457.3,118.77L458.31,117.83L458.31,117.64L458.64,116.15L459.18,115.96L459.71,115.22L460.02,115.03L461.15,112.6L461.16,112.41L461.89,109.8L461.98,109.61L462.19,108.49L462.91,108.3L463.86,106.25L463.91,106.06L466.36,101.2L466.37,101.02L467.9,98.21L468.34,98.03L470.48,91.49L471.32,91.3L472.27,90.37L472.33,90.18L473.07,87.94L473.19,87.75L474.96,82.7L475.34,82.52L476.06,79.53L476.1,79.34L476.34,78.59L476.96,78.41L479.81,75.6L479.81,75.42L480.39,74.48L481.56,74.3L482.53,72.99L482.56,72.8L483,71.87L483.01,71.68L483.69,70.37L483.82,70.19L485.55,68.13L486.26,67.94L487.01,66.07L487.04,65.89L487.62,64.02L488.48,63.83L492.2,61.96L492.21,61.78L494.51,57.29L495.7,57.11L496.62,56.17L497.06,55.99L498.33,54.49L499.19,54.3L502.09,51.69L502.7,51.5L506.26,48.7L506.36,48.51L506.57,47.58L507.22,47.39L511.8,41.97L512.15,41.78L513.76,40.66L515.15,40.48L515.99,37.3L516.17,37.11L516.71,36.74L518.14,36.55L519.64,34.87L521.9,34.68L522.6,32.44L522.71,32.26L523.46,31.7L523.74,31.51L524.46,30.2L524.51,30.01L526.51,27.02L528.45,26.84L531.52,25.9L531.68,25.72L532.7,24.41L533.7,24.22L536.67,22.54L536.81,22.35L537.53,20.67L537.8,20.48L538.55,17.68L538.66,17.49L540,16" style="fill: rgb(44, 160, 44); fill-opacity: 0.5; stroke-width: 0;"/></g></g><g class="errorbars"/><g class="lines"><path class="js-line" d="M0,319.81L3.58,318.51L3.87,318.32L5.87,317.2L6.18,317.01L14.64,315.52L22.11,315.33L22.31,315.14L23.94,314.96L23.94,314.77L26.96,314.58L44.22,309.91L44.23,309.72L44.25,309.35L45.21,309.16L45.79,308.79L47.07,308.6L59.51,307.29L60.63,307.11L68.03,304.87L68.08,304.68L68.9,303.74L69.76,303.56L71.21,302.81L75.78,302.62L79.95,301.69L81.17,301.5L85.26,300.01L86.13,299.82L86.14,299.63L88.15,299.45L98.49,297.02L98.49,296.83L99.2,294.22L99.61,294.03L100.05,293.65L100.64,293.47L102.34,292.16L102.48,291.97L103.09,291.04L104.07,290.85L105.23,289.54L105.34,289.36L106.1,288.61L107.07,288.42L110.34,286.55L110.34,286.37L110.84,285.81L112.13,285.62L112.26,285.43L114.28,285.25L114.29,285.06L115.41,284.87L123.15,283.56L123.45,283.38L123.77,282.82L124.61,282.63L131.64,280.95L131.65,280.76L132.53,280.01L133.53,279.83L136.5,278.33L137.23,278.15L139.8,276.46L141.26,276.28L141.81,275.9L143.26,275.72L143.57,275.34L145.29,275.16L152.89,272.35L154.77,272.17L154.91,271.98L156.51,271.79L172.99,269.18L173,268.99L183.37,267.68L183.38,267.5L184.04,266.37L185.6,266.19L185.94,265.44L187.61,265.25L188.12,264.69L190.35,264.51L215.11,261.33L215.83,261.14L216.23,260.21L217.66,260.02L221.77,258.9L222.95,258.71L235.9,256.29L235.9,256.1L236.72,255.35L237.01,255.16L239.62,253.86L239.88,253.67L240.35,252.55L240.95,252.36L241.06,252.17L242.36,251.99L243.74,251.05L244.22,250.87L245.23,250.12L245.93,249.93L247.06,249.19L248.06,249L249.06,247.32L249.21,247.13L250.1,246.57L250.95,246.38L255.29,244.7L259.92,244.51L260.27,244.14L262.19,243.95L265.93,242.46L266.04,242.27L267.37,241.15L269.45,240.96L269.52,240.59L270.56,240.4L275.49,238.72L277.2,238.53L277.39,238.35L279.16,238.16L279.16,237.97L280.13,237.79L280.32,237.6L281.71,237.41L287.21,236.29L287.27,236.11L303.07,232.93L303.07,232.74L303.63,232L304.79,231.81L305.66,230.31L305.68,230.13L308.09,228.26L308.14,228.07L311.63,226.39L312.13,226.2L312.56,224.52L314.78,224.33L323.26,222.84L323.93,222.65L324.1,221.91L324.78,221.72L326.68,220.04L329.17,219.85L329.67,219.48L330.93,219.29L339.55,217.61L339.58,217.42L340.43,217.05L341.7,216.86L346.87,214.99L346.95,214.81L354.42,213.68L354.43,213.5L357.91,212L358.64,211.82L363.58,209.95L363.62,209.76L364.66,209.01L366.51,208.83L369.63,207.52L370.57,207.33L376.87,206.02L376.99,205.84L379.53,204.9L380.73,204.72L381.56,203.78L381.78,203.59L384.55,200.6L385.1,200.42L389.53,199.3L393.38,199.11L397.09,197.62L398.96,197.43L399.1,197.05L400.57,196.87L400.7,195.75L404.71,195.56L405.57,195L407.71,194.81L412.05,193.69L413.57,193.5L415.24,192.57L415.86,192.38L417.22,189.58L417.67,189.39L418.26,187.71L418.62,187.53L419.52,185.28L419.68,185.1L419.97,184.54L420.65,184.35L422.7,178.74L422.93,178.56L423.67,176.88L423.78,176.69L424.43,176.13L424.67,175.94L425.3,174.63L425.31,174.45L425.67,173.33L425.69,173.14L426.15,170.9L426.57,170.71L427.9,169.59L428.26,169.4L429.25,168.28L429.32,168.09L430.01,166.79L430.14,166.6L431.01,164.73L431.98,164.54L432.74,163.24L432.74,163.05L432.98,162.67L433.86,162.49L434.75,158.56L434.85,158.38L434.87,158.19L436.06,158L436.36,157.44L437.03,157.26L440.03,154.64L440.05,154.45L440.1,154.08L440.96,153.89L442.38,151.28L442.38,151.09L442.76,150.16L442.76,149.97L443.35,147.54L443.59,147.35L445.05,140.63L445.06,140.44L445.77,137.82L445.92,137.64L448.25,133.34L448.27,133.15L451.83,130.35L451.84,130.16L452.23,129.04L452.94,128.86L454.22,125.68L454.35,125.49L456.12,121.19L456.13,121.01L456.85,118.95L457.3,118.77L458.31,117.83L458.31,117.64L458.64,116.15L459.18,115.96L459.71,115.22L460.02,115.03L461.15,112.6L461.16,112.41L461.89,109.8L461.98,109.61L462.19,108.49L462.91,108.3L463.86,106.25L463.91,106.06L466.36,101.2L466.37,101.02L467.9,98.21L468.34,98.03L470.48,91.49L471.32,91.3L472.27,90.37L472.33,90.18L473.07,87.94L473.19,87.75L474.96,82.7L475.34,82.52L476.06,79.53L476.1,79.34L476.34,78.59L476.96,78.41L479.81,75.6L479.81,75.42L480.39,74.48L481.56,74.3L482.53,72.99L482.56,72.8L483,71.87L483.01,71.68L483.69,70.37L483.82,70.19L485.55,68.13L486.26,67.94L487.01,66.07L487.04,65.89L487.62,64.02L488.48,63.83L492.2,61.96L492.21,61.78L494.51,57.29L495.7,57.11L496.62,56.17L497.06,55.99L498.33,54.49L499.19,54.3L502.09,51.69L502.7,51.5L506.26,48.7L506.36,48.51L506.57,47.58L507.22,47.39L511.8,41.97L512.15,41.78L513.76,40.66L515.15,40.48L515.99,37.3L516.17,37.11L516.71,36.74L518.14,36.55L519.64,34.87L521.9,34.68L522.6,32.44L522.71,32.26L523.46,31.7L523.74,31.51L524.46,30.2L524.51,30.01L526.51,27.02L528.45,26.84L531.52,25.9L531.68,25.72L532.7,24.41L533.7,24.22L536.67,22.54L536.81,22.35L537.53,20.67L537.8,20.48L538.55,17.68L538.66,17.49L540,16" style="vector-effect: none; fill: none; stroke: rgb(44, 160, 44); stroke-opacity: 1; stroke-width: 2px; opacity: 1;"/></g><g class="points"/><g class="text"/></g></g></g></g><g class="zerolinelayer-above"/><path class="xlines-above crisp" d="M0,0" style="fill: none;"/><path class="ylines-above crisp" d="M0,0" style="fill: none;"/><g class="overlines-above"/><g class="xaxislayer-above"><g class="xtick"><text text-anchor="middle" x="0" y="439" transform="translate(97.14,0)" style="font-family: 'Open Sans'; font-size: 18px; fill: rgb(255, 255, 255); fill-opacity: 1; white-space: pre;">2016</text></g><g class="xtick"><text text-anchor="middle" x="0" y="439" style="font-family: 'Open Sans'; font-size: 18px; fill: rgb(255, 255, 255); fill-opacity: 1; white-space: pre;" transform="translate(202.09,0)">2018</text></g><g class="xtick"><text text-anchor="middle" x="0" y="439" style="font-family: 'Open Sans'; font-size: 18px; fill: rgb(255, 255, 255); fill-opacity: 1; white-space: pre;" transform="translate(306.9,0)">2020</text></g><g class="xtick"><text text-anchor="middle" x="0" y="439" style="font-family: 'Open Sans'; font-size: 18px; fill: rgb(255, 255, 255); fill-opacity: 1; white-space: pre;" transform="translate(411.85,0)">2022</text></g><g class="xtick"><text text-anchor="middle" x="0" y="439" style="font-family: 'Open Sans'; font-size: 18px; fill: rgb(255, 255, 255); fill-opacity: 1; white-space: pre;" transform="translate(516.6600000000001,0)">2024</text></g></g><g class="yaxislayer-above"><g class="ytick"><text text-anchor="end" x="79" y="6.3" transform="translate(0,420)" style="font-family: 'Open Sans'; font-size: 18px; fill: rgb(255, 255, 255); fill-opacity: 1; white-space: pre;">0</text></g><g class="ytick"><text text-anchor="end" x="79" y="6.3" style="font-family: 'Open Sans'; font-size: 18px; fill: rgb(255, 255, 255); fill-opacity: 1; white-space: pre;" transform="translate(0,382.63)">200</text></g><g class="ytick"><text text-anchor="end" x="79" y="6.3" style="font-family: 'Open Sans'; font-size: 18px; fill: rgb(255, 255, 255); fill-opacity: 1; white-space: pre;" transform="translate(0,345.26)">400</text></g><g class="ytick"><text text-anchor="end" x="79" y="6.3" style="font-family: 'Open Sans'; font-size: 18px; fill: rgb(255, 255, 255); fill-opacity: 1; white-space: pre;" transform="translate(0,307.89)">600</text></g><g class="ytick"><text text-anchor="end" x="79" y="6.3" style="font-family: 'Open Sans'; font-size: 18px; fill: rgb(255, 255, 255); fill-opacity: 1; white-space: pre;" transform="translate(0,270.52)">800</text></g><g class="ytick"><text text-anchor="end" x="79" y="6.3" style="font-family: 'Open Sans'; font-size: 18px; fill: rgb(255, 255, 255); fill-opacity: 1; white-space: pre;" transform="translate(0,233.15)">1000</text></g><g class="ytick"><text text-anchor="end" x="79" y="6.3" style="font-family: 'Open Sans'; font-size: 18px; fill: rgb(255, 255, 255); fill-opacity: 1; white-space: pre;" transform="translate(0,195.78)">1200</text></g><g class="ytick"><text text-anchor="end" x="79" y="6.3" style="font-family: 'Open Sans'; font-size: 18px; fill: rgb(255, 255, 255); fill-opacity: 1; white-space: pre;" transform="translate(0,158.41)">1400</text></g><g class="ytick"><text text-anchor="end" x="79" y="6.3" style="font-family: 'Open Sans'; font-size: 18px; fill: rgb(255, 255, 255); fill-opacity: 1; white-space: pre;" transform="translate(0,121.03999999999999)">1600</text></g></g><g class="overaxes-above"/></g></g><g class="polarlayer"/><g class="smithlayer"/><g class="ternarylayer"/><g class="geolayer"/><g class="funnelarealayer"/><g class="pielayer"/><g class="iciclelayer"/><g class="treemaplayer"/><g class="sunburstlayer"/><g class="glimages"/><defs id="topdefs-79d1ac"><g class="clips"/></defs><g class="layer-above"><g class="imagelayer"/><g class="shapelayer"/></g><g class="infolayer"><g class="g-gtitle"><text class="gtitle" x="35" y="50" text-anchor="start" dy="0em" style="opacity: 1; font-family: 'Open Sans'; font-size: 25px; fill: rgb(255, 255, 255); fill-opacity: 1; white-space: pre;">MultiQC/MultiQC - Pull Requests Created Over Time</text></g><g class="g-xtitle"><text class="xtitle" x="350" y="472.9" text-anchor="middle" style="opacity: 1; font-family: 'Open Sans'; font-size: 22px; fill: rgb(255, 255, 255); fill-opacity: 1; white-space: pre;">Date</text></g><g class="g-ytitle"><text class="ytitle" transform="rotate(-90,20.799999999999997,260)" x="20.799999999999997" y="260" text-anchor="middle" style="opacity: 1; font-family: 'Open Sans'; font-size: 22px; fill: rgb(255, 255, 255); fill-opacity: 1; white-space: pre;">Cumulative PRs Created</text></g></g></svg>