<svg class="main-svg" xmlns="http://www.w3.org/2000/svg" xmlns:xlink="http://www.w3.org/1999/xlink" width="700" height="500" style="" viewBox="0 0 700 500"><rect x="0" y="0" width="700" height="500" style="fill: rgb(0, 0, 0); fill-opacity: 0;"/><defs id="defs-5e355c"><g class="clips"><clipPath id="clip5e355cxyplot" class="plotclip"><rect width="540" height="320"/></clipPath><clipPath class="axesclip" id="clip5e355cx"><rect x="80" y="0" width="540" height="500"/></clipPath><clipPath class="axesclip" id="clip5e355cy"><rect x="0" y="100" width="700" height="320"/></clipPath><clipPath class="axesclip" id="clip5e355cxy"><rect x="80" y="100" width="540" height="320"/></clipPath></g><g class="gradients"/><g class="patterns"/></defs><g class="bglayer"><rect class="bg" x="80" y="100" width="540" height="320" style="fill: rgb(0, 0, 0); fill-opacity: 0; stroke-width: 0;"/></g><g class="layer-below"><g class="imagelayer"/><g class="shapelayer"/></g><g class="cartesianlayer"><g class="subplot xy"><g class="layer-subplot"><g class="shapelayer"/><g class="imagelayer"/></g><g class="minor-gridlayer"><g class="x"/><g class="y"/></g><g class="gridlayer"><g class="x"><path class="xgrid crisp" transform="translate(97.02,0)" d="M0,100v320" style="stroke: rgb(255, 255, 255); stroke-opacity: 1; stroke-width: 1px;"/><path class="xgrid crisp" transform="translate(201.22,0)" d="M0,100v320" style="stroke: rgb(255, 255, 255); stroke-opacity: 1; stroke-width: 1px;"/><path class="xgrid crisp" transform="translate(305.27,0)" d="M0,100v320" style="stroke: rgb(255, 255, 255); stroke-opacity: 1; stroke-width: 1px;"/><path class="xgrid crisp" transform="translate(409.47,0)" d="M0,100v320" style="stroke: rgb(255, 255, 255); stroke-opacity: 1; stroke-width: 1px;"/><path class="xgrid crisp" transform="translate(513.52,0)" d="M0,100v320" style="stroke: rgb(255, 255, 255); stroke-opacity: 1; stroke-width: 1px;"/><path class="xgrid crisp" transform="translate(617.72,0)" d="M0,100v320" style="stroke: rgb(255, 255, 255); stroke-opacity: 1; stroke-width: 1px;"/></g><g class="y"><path class="ygrid crisp" transform="translate(0,382.97)" d="M80,0h540" style="stroke: rgb(255, 255, 255); stroke-opacity: 1; stroke-width: 1px;"/><path class="ygrid crisp" transform="translate(0,345.94)" d="M80,0h540" style="stroke: rgb(255, 255, 255); stroke-opacity: 1; stroke-width: 1px;"/><path class="ygrid crisp" transform="translate(0,308.91999999999996)" d="M80,0h540" style="stroke: rgb(255, 255, 255); stroke-opacity: 1; stroke-width: 1px;"/><path class="ygrid crisp" transform="translate(0,271.89)" d="M80,0h540" style="stroke: rgb(255, 255, 255); stroke-opacity: 1; stroke-width: 1px;"/><path class="ygrid crisp" transform="translate(0,234.86)" d="M80,0h540" style="stroke: rgb(255, 255, 255); stroke-opacity: 1; stroke-width: 1px;"/><path class="ygrid crisp" transform="translate(0,197.82999999999998)" d="M80,0h540" style="stroke: rgb(255, 255, 255); stroke-opacity: 1; stroke-width: 1px;"/><path class="ygrid crisp" transform="translate(0,160.8)" d="M80,0h540" style="stroke: rgb(255, 255, 255); stroke-opacity: 1; stroke-width: 1px;"/><path class="ygrid crisp" transform="translate(0,123.78)" d="M80,0h540" style="stroke: rgb(255, 255, 255); stroke-opacity: 1; stroke-width: 1px;"/></g></g><g class="zerolinelayer"><path class="yzl zl crisp" transform="translate(0,420)" d="M80,0h540" style="stroke: rgb(255, 255, 255); stroke-opacity: 1; stroke-width: 2px;"/></g><g class="layer-between"><g class="shapelayer"/><g class="imagelayer"/></g><path class="xlines-below"/><path class="ylines-below"/><g class="overlines-below"/><g class="xaxislayer-below"/><g class="yaxislayer-below"/><g class="overaxes-below"/><g class="overplot"><g class="xy" transform="translate(80,100)" clip-path="url(#clip5e355cxyplot)"><g class="scatterlayer mlayer"><g class="trace scatter tracece7803" style="stroke-miterlimit: 2;"><g class="fills"><g><path class="js-fill" d="M540,320L0,320L0,319.81L3.55,318.52L3.84,318.33L5.83,317.22L6.14,317.04L14.54,315.56L21.95,315.37L22.15,315.19L23.77,315L23.77,314.82L26.77,314.63L34.95,312.22L35.35,312.04L43.8,310.19L43.9,310L43.94,309.45L44.88,309.26L45.46,308.89L46.73,308.71L59.08,307.41L60.2,307.23L67.54,305L67.59,304.82L68.4,303.89L69.26,303.71L70.7,302.97L75.24,302.78L79.38,301.86L80.58,301.67L84.65,300.19L85.52,300L85.52,299.82L87.52,299.63L97.78,297.23L97.79,297.04L98.49,294.45L98.89,294.27L99.33,293.9L99.92,293.71L101.61,292.41L101.75,292.23L102.35,291.3L103.32,291.12L104.47,289.82L104.58,289.64L105.34,288.9L106.3,288.71L109.55,286.86L109.55,286.67L110.05,286.12L111.33,285.93L111.45,285.75L113.46,285.56L113.47,285.38L114.58,285.19L122.27,283.9L122.56,283.71L122.88,283.16L123.72,282.97L130.7,281.31L130.7,281.12L131.58,280.38L132.57,280.19L136.58,278.34L137.25,278.16L137.39,277.23L138.68,277.05L138.8,276.86L140.25,276.68L140.79,276.31L142.23,276.12L142.54,275.75L144.25,275.57L151.79,272.79L153.66,272.6L153.8,272.42L155.39,272.23L171.75,269.64L171.76,269.46L182.06,268.16L182.06,267.98L182.72,266.86L184.27,266.68L184.6,265.94L186.27,265.75L186.77,265.2L188.98,265.01L213.57,261.87L214.28,261.68L214.68,260.76L216.1,260.57L220.17,259.46L221.35,259.27L234.21,256.87L234.21,256.68L235.02,255.94L235.31,255.76L237.9,254.46L238.15,254.28L238.63,253.16L239.22,252.98L239.33,252.79L240.62,252.61L241.99,251.68L242.46,251.5L244.35,250.39L244.58,250.2L246.44,249.09L246.48,248.91L247.28,247.98L247.42,247.8L248.31,247.24L249.14,247.05L253.46,245.39L258.05,245.2L258.4,244.83L260.31,244.65L264.02,243.17L264.13,242.98L265.45,241.87L267.52,241.69L267.59,241.32L268.62,241.13L273.51,239.46L275.21,239.28L275.4,239.09L277.15,238.91L277.16,238.72L278.12,238.54L278.31,238.35L279.69,238.17L285.14,237.06L285.21,236.87L297.55,234.28L298.34,234.1L301.05,233.17L301.44,232.98L301.45,232.8L302.6,232.61L303.47,231.13L303.49,230.95L305.88,229.1L305.92,228.91L309.31,227.43L309.4,227.24L310.15,226.32L310.16,226.13L310.32,225.39L312.52,225.21L320.94,223.73L321.6,223.54L321.77,222.8L322.45,222.62L324.34,220.95L326.8,220.76L327.3,220.39L328.55,220.21L337.12,218.54L337.14,218.36L337.98,217.99L339.25,217.8L344.38,215.95L344.46,215.77L351.88,214.66L351.89,214.47L354.75,213.17L355.34,212.99L360.97,210.95L361.01,210.77L362.04,210.03L363.88,209.84L366.97,208.55L367.91,208.36L374.16,207.06L374.28,206.88L376.8,205.95L378,205.77L378.82,204.84L379.04,204.66L380.87,202.81L381.27,202.62L382.34,201.51L382.87,201.33L386.73,200.4L390.55,200.21L394.24,198.73L396.09,198.55L396.24,198.18L397.69,197.99L397.82,196.88L401.81,196.7L402.66,196.14L404.78,195.96L409.09,194.85L410.6,194.66L412.26,193.73L412.88,193.55L414.22,190.77L414.67,190.59L415.26,188.92L415.62,188.74L416.51,186.51L416.67,186.33L416.95,185.77L417.63,185.59L419.66,180.03L419.89,179.85L420.63,178.18L420.74,178L421.39,177.44L421.62,177.26L422.25,175.96L422.25,175.78L422.61,174.67L422.64,174.48L423.1,172.26L423.51,172.07L424.82,170.96L425.19,170.78L426.17,169.67L426.24,169.48L426.93,168.19L427.05,168L427.92,166.15L428.88,165.96L429.63,164.67L429.64,164.48L429.87,164.11L430.74,163.93L431.75,159.67L432.93,159.48L433.23,158.93L433.89,158.74L436.87,156.15L436.89,155.97L436.94,155.6L437.79,155.41L439.21,152.82L439.21,152.63L439.58,151.71L439.59,151.52L440.17,149.12L440.4,148.93L441.85,142.27L441.86,142.08L442.72,139.3L442.84,139.12L443.49,137.27L444.17,137.08L444.74,136.16L444.75,135.97L446.02,133.93L447.13,133.75L448.61,131.71L448.72,131.53L451.88,125.42L451.88,125.23L453.14,121.34L453.15,121.16L453.57,120.79L454.02,120.6L455.02,119.68L455.02,119.49L455.35,118.01L455.88,117.83L456.41,117.09L456.71,116.9L457.84,114.68L457.84,114.49L458.73,110.79L458.82,110.61L460.12,108.38L460.53,108.2L461.69,106.16L461.83,105.98L463.01,103.2L463.02,103.02L464.54,100.24L464.98,100.05L467.1,93.57L467.94,93.39L468.88,92.46L468.94,92.28L469.67,90.06L469.8,89.87L471.55,84.87L471.93,84.69L472.68,81.54L472.7,81.35L473.84,79.69L474.79,79.5L475.55,78.58L476.06,78.39L476.94,76.73L478.11,76.54L478.82,75.43L479.06,75.24L480.22,72.65L480.35,72.47L482.07,70.43L482.77,70.25L483.51,68.39L483.54,68.21L484.12,66.36L484.97,66.17L488.67,64.32L488.68,64.14L490.96,59.69L492.14,59.51L493.05,58.58L493.49,58.4L494.76,56.92L495.6,56.73L498.49,54.14L499.09,53.95L502.6,51.36L502.62,51.18L503.99,49.33L504.48,49.14L505.84,46.55L506.62,46.36L507.45,45.07L508,44.88L509.31,43.59L509.92,43.4L510.08,43.22L511.45,43.03L512.46,39.7L512.7,39.51L515.91,37.48L518.15,37.29L518.84,35.07L518.96,34.88L519.7,34.33L519.98,34.14L520.7,32.85L520.75,32.66L522.73,29.7L524.65,29.52L527.71,28.59L527.86,28.4L528.88,27.11L529.87,26.92L532.82,25.26L532.96,25.07L533.67,23.41L533.94,23.22L534.68,20.44L534.8,20.26L536.4,18.04L538.73,17.85L540,16" style="fill: rgb(44, 160, 44); fill-opacity: 0.5; stroke-width: 0;"/></g></g><g class="errorbars"/><g class="lines"><path class="js-line" d="M0,319.81L3.55,318.52L3.84,318.33L5.83,317.22L6.14,317.04L14.54,315.56L21.95,315.37L22.15,315.19L23.77,315L23.77,314.82L26.77,314.63L34.95,312.22L35.35,312.04L43.8,310.19L43.9,310L43.94,309.45L44.88,309.26L45.46,308.89L46.73,308.71L59.08,307.41L60.2,307.23L67.54,305L67.59,304.82L68.4,303.89L69.26,303.71L70.7,302.97L75.24,302.78L79.38,301.86L80.58,301.67L84.65,300.19L85.52,300L85.52,299.82L87.52,299.63L97.78,297.23L97.79,297.04L98.49,294.45L98.89,294.27L99.33,293.9L99.92,293.71L101.61,292.41L101.75,292.23L102.35,291.3L103.32,291.12L104.47,289.82L104.58,289.64L105.34,288.9L106.3,288.71L109.55,286.86L109.55,286.67L110.05,286.12L111.33,285.93L111.45,285.75L113.46,285.56L113.47,285.38L114.58,285.19L122.27,283.9L122.56,283.71L122.88,283.16L123.72,282.97L130.7,281.31L130.7,281.12L131.58,280.38L132.57,280.19L136.58,278.34L137.25,278.16L137.39,277.23L138.68,277.05L138.8,276.86L140.25,276.68L140.79,276.31L142.23,276.12L142.54,275.75L144.25,275.57L151.79,272.79L153.66,272.6L153.8,272.42L155.39,272.23L171.75,269.64L171.76,269.46L182.06,268.16L182.06,267.98L182.72,266.86L184.27,266.68L184.6,265.94L186.27,265.75L186.77,265.2L188.98,265.01L213.57,261.87L214.28,261.68L214.68,260.76L216.1,260.57L220.17,259.46L221.35,259.27L234.21,256.87L234.21,256.68L235.02,255.94L235.31,255.76L237.9,254.46L238.15,254.28L238.63,253.16L239.22,252.98L239.33,252.79L240.62,252.61L241.99,251.68L242.46,251.5L244.35,250.39L244.58,250.2L246.44,249.09L246.48,248.91L247.28,247.98L247.42,247.8L248.31,247.24L249.14,247.05L253.46,245.39L258.05,245.2L258.4,244.83L260.31,244.65L264.02,243.17L264.13,242.98L265.45,241.87L267.52,241.69L267.59,241.32L268.62,241.13L273.51,239.46L275.21,239.28L275.4,239.09L277.15,238.91L277.16,238.72L278.12,238.54L278.31,238.35L279.69,238.17L285.14,237.06L285.21,236.87L297.55,234.28L298.34,234.1L301.05,233.17L301.44,232.98L301.45,232.8L302.6,232.61L303.47,231.13L303.49,230.95L305.88,229.1L305.92,228.91L309.31,227.43L309.4,227.24L310.15,226.32L310.16,226.13L310.32,225.39L312.52,225.21L320.94,223.73L321.6,223.54L321.77,222.8L322.45,222.62L324.34,220.95L326.8,220.76L327.3,220.39L328.55,220.21L337.12,218.54L337.14,218.36L337.98,217.99L339.25,217.8L344.38,215.95L344.46,215.77L351.88,214.66L351.89,214.47L354.75,213.17L355.34,212.99L360.97,210.95L361.01,210.77L362.04,210.03L363.88,209.84L366.97,208.55L367.91,208.36L374.16,207.06L374.28,206.88L376.8,205.95L378,205.77L378.82,204.84L379.04,204.66L380.87,202.81L381.27,202.62L382.34,201.51L382.87,201.33L386.73,200.4L390.55,200.21L394.24,198.73L396.09,198.55L396.24,198.18L397.69,197.99L397.82,196.88L401.81,196.7L402.66,196.14L404.78,195.96L409.09,194.85L410.6,194.66L412.26,193.73L412.88,193.55L414.22,190.77L414.67,190.59L415.26,188.92L415.62,188.74L416.51,186.51L416.67,186.33L416.95,185.77L417.63,185.59L419.66,180.03L419.89,179.85L420.63,178.18L420.74,178L421.39,177.44L421.62,177.26L422.25,175.96L422.25,175.78L422.61,174.67L422.64,174.48L423.1,172.26L423.51,172.07L424.82,170.96L425.19,170.78L426.17,169.67L426.24,169.48L426.93,168.19L427.05,168L427.92,166.15L428.88,165.96L429.63,164.67L429.64,164.48L429.87,164.11L430.74,163.93L431.75,159.67L432.93,159.48L433.23,158.93L433.89,158.74L436.87,156.15L436.89,155.97L436.94,155.6L437.79,155.41L439.21,152.82L439.21,152.63L439.58,151.71L439.59,151.52L440.17,149.12L440.4,148.93L441.85,142.27L441.86,142.08L442.72,139.3L442.84,139.12L443.49,137.27L444.17,137.08L444.74,136.16L444.75,135.97L446.02,133.93L447.13,133.75L448.61,131.71L448.72,131.53L451.88,125.42L451.88,125.23L453.14,121.34L453.15,121.16L453.57,120.79L454.02,120.6L455.02,119.68L455.02,119.49L455.35,118.01L455.88,117.83L456.41,117.09L456.71,116.9L457.84,114.68L457.84,114.49L458.73,110.79L458.82,110.61L460.12,108.38L460.53,108.2L461.69,106.16L461.83,105.98L463.01,103.2L463.02,103.02L464.54,100.24L464.98,100.05L467.1,93.57L467.94,93.39L468.88,92.46L468.94,92.28L469.67,90.06L469.8,89.87L471.55,84.87L471.93,84.69L472.68,81.54L472.7,81.35L473.84,79.69L474.79,79.5L475.55,78.58L476.06,78.39L476.94,76.73L478.11,76.54L478.82,75.43L479.06,75.24L480.22,72.65L480.35,72.47L482.07,70.43L482.77,70.25L483.51,68.39L483.54,68.21L484.12,66.36L484.97,66.17L488.67,64.32L488.68,64.14L490.96,59.69L492.14,59.51L493.05,58.58L493.49,58.4L494.76,56.92L495.6,56.73L498.49,54.14L499.09,53.95L502.6,51.36L502.62,51.18L503.99,49.33L504.48,49.14L505.84,46.55L506.62,46.36L507.45,45.07L508,44.88L509.31,43.59L509.92,43.4L510.08,43.22L511.45,43.03L512.46,39.7L512.7,39.51L515.91,37.48L518.15,37.29L518.84,35.07L518.96,34.88L519.7,34.33L519.98,34.14L520.7,32.85L520.75,32.66L522.73,29.7L524.65,29.52L527.71,28.59L527.86,28.4L528.88,27.11L529.87,26.92L532.82,25.26L532.96,25.07L533.67,23.41L533.94,23.22L534.68,20.44L534.8,20.26L536.4,18.04L538.73,17.85L540,16" style="vector-effect: none; fill: none; stroke: rgb(44, 160, 44); stroke-opacity: 1; stroke-width: 2px; opacity: 1;"/></g><g class="points"/><g class="text"/></g></g></g></g><g class="zerolinelayer-above"/><path class="xlines-above crisp" d="M0,0" style="fill: none;"/><path class="ylines-above crisp" d="M0,0" style="fill: none;"/><g class="overlines-above"/><g class="xaxislayer-above"><g class="xtick"><text text-anchor="middle" x="0" y="439" transform="translate(97.02,0)" style="font-family: 'Open Sans'; font-size: 18px; fill: rgb(255, 255, 255); fill-opacity: 1; white-space: pre;">2016</text></g><g class="xtick"><text text-anchor="middle" x="0" y="439" style="font-family: 'Open Sans'; font-size: 18px; fill: rgb(255, 255, 255); fill-opacity: 1; white-space: pre;" transform="translate(201.22,0)">2018</text></g><g class="xtick"><text text-anchor="middle" x="0" y="439" style="font-family: 'Open Sans'; font-size: 18px; fill: rgb(255, 255, 255); fill-opacity: 1; white-space: pre;" transform="translate(305.27,0)">2020</text></g><g class="xtick"><text text-anchor="middle" x="0" y="439" style="font-family: 'Open Sans'; font-size: 18px; fill: rgb(255, 255, 255); fill-opacity: 1; white-space: pre;" transform="translate(409.47,0)">2022</text></g><g class="xtick"><text text-anchor="middle" x="0" y="439" style="font-family: 'Open Sans'; font-size: 18px; fill: rgb(255, 255, 255); fill-opacity: 1; white-space: pre;" transform="translate(513.52,0)">2024</text></g><g class="xtick"><text text-anchor="middle" x="0" y="439" style="font-family: 'Open Sans'; font-size: 18px; fill: rgb(255, 255, 255); fill-opacity: 1; white-space: pre;" transform="translate(617.72,0)">2026</text></g></g><g class="yaxislayer-above"><g class="ytick"><text text-anchor="end" x="79" y="6.3" transform="translate(0,420)" style="font-family: 'Open Sans'; font-size: 18px; fill: rgb(255, 255, 255); fill-opacity: 1; white-space: pre;">0</text></g><g class="ytick"><text text-anchor="end" x="79" y="6.3" style="font-family: 'Open Sans'; font-size: 18px; fill: rgb(255, 255, 255); fill-opacity: 1; white-space: pre;" transform="translate(0,382.97)">200</text></g><g class="ytick"><text text-anchor="end" x="79" y="6.3" style="font-family: 'Open Sans'; font-size: 18px; fill: rgb(255, 255, 255); fill-opacity: 1; white-space: pre;" transform="translate(0,345.94)">400</text></g><g class="ytick"><text text-anchor="end" x="79" y="6.3" style="font-family: 'Open Sans'; font-size: 18px; fill: rgb(255, 255, 255); fill-opacity: 1; white-space: pre;" transform="translate(0,308.91999999999996)">600</text></g><g class="ytick"><text text-anchor="end" x="79" y="6.3" style="font-family: 'Open Sans'; font-size: 18px; fill: rgb(255, 255, 255); fill-opacity: 1; white-space: pre;" transform="translate(0,271.89)">800</text></g><g class="ytick"><text text-anchor="end" x="79" y="6.3" style="font-family: 'Open Sans'; font-size: 18px; fill: rgb(255, 255, 255); fill-opacity: 1; white-space: pre;" transform="translate(0,234.86)">1000</text></g><g class="ytick"><text text-anchor="end" x="79" y="6.3" style="font-family: 'Open Sans'; font-size: 18px; fill: rgb(255, 255, 255); fill-opacity: 1; white-space: pre;" transform="translate(0,197.82999999999998)">1200</text></g><g class="ytick"><text text-anchor="end" x="79" y="6.3" style="font-family: 'Open Sans'; font-size: 18px; fill: rgb(255, 255, 255); fill-opacity: 1; white-space: pre;" transform="translate(0,160.8)">1400</text></g><g class="ytick"><text text-anchor="end" x="79" y="6.3" style="font-family: 'Open Sans'; font-size: 18px; fill: rgb(255, 255, 255); fill-opacity: 1; white-space: pre;" transform="translate(0,123.78)">1600</text></g></g><g class="overaxes-above"/></g></g><g class="polarlayer"/><g class="smithlayer"/><g class="ternarylayer"/><g class="geolayer"/><g class="funnelarealayer"/><g class="pielayer"/><g class="iciclelayer"/><g class="treemaplayer"/><g class="sunburstlayer"/><g class="glimages"/><defs id="topdefs-5e355c"><g class="clips"/></defs><g class="layer-above"><g class="imagelayer"/><g class="shapelayer"/></g><g class="infolayer"><g class="g-gtitle"><text class="gtitle" x="35" y="50" text-anchor="start" dy="0em" style="opacity: 1; font-family: 'Open Sans'; font-size: 25px; fill: rgb(255, 255, 255); fill-opacity: 1; white-space: pre;">MultiQC/MultiQC - Pull Requests Created Over Time</text></g><g class="g-xtitle"><text class="xtitle" x="350" y="472.9" text-anchor="middle" style="opacity: 1; font-family: 'Open Sans'; font-size: 22px; fill: rgb(255, 255, 255); fill-opacity: 1; white-space: pre;">Date</text></g><g class="g-ytitle"><text class="ytitle" transform="rotate(-90,20.799999999999997,260)" x="20.799999999999997" y="260" text-anchor="middle" style="opacity: 1; font-family: 'Open Sans'; font-size: 22px; fill: rgb(255, 255, 255); fill-opacity: 1; white-space: pre;">Cumulative PRs Created</text></g></g></svg>