<svg class="main-svg" xmlns="http://www.w3.org/2000/svg" xmlns:xlink="http://www.w3.org/1999/xlink" width="700" height="500" style="" viewBox="0 0 700 500"><rect x="0" y="0" width="700" height="500" style="fill: rgb(0, 0, 0); fill-opacity: 0;"/><defs id="defs-3a74b4"><g class="clips"><clipPath id="clip3a74b4xyplot" class="plotclip"><rect width="540" height="320"/></clipPath><clipPath class="axesclip" id="clip3a74b4x"><rect x="80" y="0" width="540" height="500"/></clipPath><clipPath class="axesclip" id="clip3a74b4y"><rect x="0" y="100" width="700" height="320"/></clipPath><clipPath class="axesclip" id="clip3a74b4xy"><rect x="80" y="100" width="540" height="320"/></clipPath></g><g class="gradients"/><g class="patterns"/></defs><g class="bglayer"><rect class="bg" x="80" y="100" width="540" height="320" style="fill: rgb(0, 0, 0); fill-opacity: 0; stroke-width: 0;"/></g><g class="layer-below"><g class="imagelayer"/><g class="shapelayer"/></g><g class="cartesianlayer"><g class="subplot xy"><g class="layer-subplot"><g class="shapelayer"/><g class="imagelayer"/></g><g class="minor-gridlayer"><g class="x"/><g class="y"/></g><g class="gridlayer"><g class="x"><path class="xgrid crisp" transform="translate(96.71000000000001,0)" d="M0,100v320" style="stroke: rgb(255, 255, 255); stroke-opacity: 1; stroke-width: 1px;"/><path class="xgrid crisp" transform="translate(198.99,0)" d="M0,100v320" style="stroke: rgb(255, 255, 255); stroke-opacity: 1; stroke-width: 1px;"/><path class="xgrid crisp" transform="translate(301.13,0)" d="M0,100v320" style="stroke: rgb(255, 255, 255); stroke-opacity: 1; stroke-width: 1px;"/><path class="xgrid crisp" transform="translate(403.42,0)" d="M0,100v320" style="stroke: rgb(255, 255, 255); stroke-opacity: 1; stroke-width: 1px;"/><path class="xgrid crisp" transform="translate(505.56,0)" d="M0,100v320" style="stroke: rgb(255, 255, 255); stroke-opacity: 1; stroke-width: 1px;"/><path class="xgrid crisp" transform="translate(607.85,0)" d="M0,100v320" style="stroke: rgb(255, 255, 255); stroke-opacity: 1; stroke-width: 1px;"/></g><g class="y"><path class="ygrid crisp" transform="translate(0,364.22)" d="M80,0h540" style="stroke: rgb(255, 255, 255); stroke-opacity: 1; stroke-width: 1px;"/><path class="ygrid crisp" transform="translate(0,308.44)" d="M80,0h540" style="stroke: rgb(255, 255, 255); stroke-opacity: 1; stroke-width: 1px;"/><path class="ygrid crisp" transform="translate(0,252.66)" d="M80,0h540" style="stroke: rgb(255, 255, 255); stroke-opacity: 1; stroke-width: 1px;"/><path class="ygrid crisp" transform="translate(0,196.88)" d="M80,0h540" style="stroke: rgb(255, 255, 255); stroke-opacity: 1; stroke-width: 1px;"/><path class="ygrid crisp" transform="translate(0,141.1)" d="M80,0h540" style="stroke: rgb(255, 255, 255); stroke-opacity: 1; stroke-width: 1px;"/></g></g><g class="zerolinelayer"><path class="yzl zl crisp" transform="translate(0,420)" d="M80,0h540" style="stroke: rgb(255, 255, 255); stroke-opacity: 1; stroke-width: 2px;"/></g><g class="layer-between"><g class="shapelayer"/><g class="imagelayer"/></g><path class="xlines-below"/><path class="ylines-below"/><g class="overlines-below"/><g class="xaxislayer-below"/><g class="yaxislayer-below"/><g class="overaxes-below"/><g class="overplot"><g class="xy" transform="translate(80,100)" clip-path="url(#clip3a74b4xyplot)"><g class="scatterlayer mlayer"><g class="trace scatter trace31b66a" style="stroke-miterlimit: 2;"><g class="fills"><g><path class="js-fill" d="M540,320L0,320L0,317.21L0.1,320L1.02,317.21L1.69,320L1.79,317.21L1.79,320L3.04,317.21L3.77,320L4.63,317.21L4.63,320L4.72,320L5.45,317.21L5.45,320L6.03,320L6.85,317.21L6.85,320L7.42,320L8.94,317.21L8.94,320L9.57,317.21L9.78,320L11.47,317.21L11.47,320L14.27,317.21L14.27,320L21.55,317.21L21.55,320L21.74,317.21L21.74,320L23.33,317.21L23.33,314.42L23.47,317.21L24.6,320L26.28,317.21L26.28,320L27.58,314.42L27.58,317.21L27.58,320L30.37,317.21L30.37,320L30.51,320L31.73,317.21L31.73,320L32.32,320L33.2,317.21L33.2,320L33.97,317.21L33.97,320L34.71,317.21L34.79,320L37.36,314.42L37.78,317.21L37.9,314.42L37.9,317.21L39.18,320L39.89,317.21L39.89,320L41.58,317.21L41.58,320L42.65,317.21L42.65,320L43.13,308.84L43.24,311.63L43.76,314.42L44.19,317.21L44.63,314.42L44.64,317.21L45.87,314.42L49.67,311.63L49.67,314.42L49.96,317.21L50.74,314.42L51.63,320L53.03,317.21L53.42,320L56.52,317.21L56.52,320L56.52,317.21L58,314.42L58.32,317.21L59.09,314.42L59.85,311.63L59.88,314.42L59.89,311.63L60.45,320L62.27,317.21L62.56,320L63.23,317.21L63.38,314.42L64.34,317.21L64.51,311.63L64.64,314.42L65.45,317.21L65.76,314.42L65.76,317.21L66.3,314.42L66.38,308.84L66.48,320L66.57,320L67.15,317.21L67.98,314.42L67.99,317.21L68.71,311.63L68.71,314.42L69.4,311.63L73.86,308.84L74.32,306.06L75.98,320L76.96,317.21L76.96,320L77.92,317.21L79.1,314.42L79.16,317.21L80.21,311.63L80.61,308.84L81.12,306.06L81.12,308.84L81.14,311.63L82.26,306.06L82.28,308.84L83.09,306.06L83.1,308.84L83.38,311.63L83.95,308.84L83.95,311.63L83.95,308.84L85.74,311.63L85.91,308.84L85.91,311.63L86.79,308.84L87.03,311.63L87.74,308.84L88.19,306.06L88.95,308.84L89.66,306.06L89.94,308.84L92.18,306.06L92.18,308.84L92.76,306.06L92.78,308.84L94.14,311.63L94.64,308.84L94.84,311.63L94.98,308.84L94.99,311.63L95.98,308.84L95.99,292.11L96.68,306.06L96.95,308.84L96.96,311.63L97.11,306.06L97.5,306.06L98.08,303.27L98.78,306.06L98.96,303.27L99.48,297.69L99.64,303.27L99.73,306.06L100.35,294.9L100.47,300.48L101.42,303.27L101.85,294.9L101.85,294.9L102.37,297.69L103.41,283.74L104.35,280.95L105.36,283.74L105.64,280.95L105.76,286.53L106.35,286.53L106.47,283.74L106.77,294.9L106.89,292.11L107.54,289.32L108.03,278.17L108.03,280.95L108.41,283.74L108.45,286.53L109.28,283.74L109.41,280.95L109.42,283.74L110.69,286.53L111.39,297.69L112.47,294.9L112.47,297.69L114.6,294.9L114.6,292.11L114.6,297.69L116.55,294.9L116.57,297.69L116.57,294.9L117.62,297.69L117.67,294.9L119.49,292.11L120.31,297.69L120.32,294.9L120.47,297.69L120.63,294.9L120.63,297.69L121.45,294.9L121.77,297.69L122.46,294.9L122.48,297.69L124.09,294.9L124.12,297.69L125.93,294.9L126.04,297.69L126.42,294.9L126.9,292.11L127.02,294.9L127.89,292.11L127.9,294.9L128.3,283.74L128.44,283.74L128.82,280.95L129.17,294.9L130.13,292.11L130.42,297.69L131.11,294.9L132.07,292.11L132.19,289.32L132.75,292.11L132.92,289.32L133.03,286.53L133.74,280.95L133.77,283.74L134.07,280.95L134.29,283.74L134.73,280.95L134.74,278.17L134.74,269.8L134.89,286.53L136.13,283.74L136.25,280.95L136.26,283.74L137.67,280.95L138.43,292.11L139.62,289.32L140.02,292.11L141.6,289.32L142.67,286.53L142.67,289.32L143.97,280.95L143.97,283.74L144.22,286.53L144.25,289.32L144.64,283.74L144.65,286.53L144.96,283.74L144.97,286.53L145.94,289.32L146.11,294.9L146.81,292.11L146.9,289.32L148.48,286.53L149,278.17L149.02,283.74L149.02,286.53L149.07,292.11L150.84,289.32L150.93,292.11L150.97,289.32L152.54,286.53L152.55,289.32L153.89,286.53L153.89,289.32L154.31,286.53L154.75,283.74L155.43,280.95L155.46,283.74L158.27,286.53L161.26,280.95L161.98,278.17L162.74,280.95L163.44,278.17L163.45,280.95L166.08,278.17L166.53,280.95L167.13,278.17L168.32,275.38L168.57,278.17L168.57,275.38L168.6,297.69L168.61,294.9L170.96,292.11L170.97,294.9L173.27,297.69L174.35,294.9L174.35,297.69L174.97,294.9L175,297.69L177.17,294.9L177.33,292.11L178.69,294.9L178.7,297.69L179.28,275.38L179.39,286.53L180.89,283.74L181.21,275.38L182.84,272.59L183.34,269.8L183.35,272.59L185.51,269.8L185.99,272.59L187.29,269.8L187.59,272.59L187.88,269.8L190.03,267.01L192.97,264.22L193.07,267.01L193.96,264.22L194.64,267.01L194.68,261.43L194.9,264.22L195.77,267.01L196.02,278.17L196.83,280.95L196.91,283.74L197,278.17L200.38,275.38L200.93,278.17L201.61,275.38L201.75,272.59L203.86,269.8L206.77,267.01L208.33,264.22L208.35,261.43L209.64,258.64L210.42,261.43L210.43,258.64L210.73,278.17L210.74,275.38L211.7,278.17L212.12,280.95L212.13,278.17L213.26,280.95L213.71,286.53L214.08,283.74L214.1,286.53L214.61,278.17L214.65,283.74L215.21,286.53L215.24,289.32L216.13,286.53L217.29,283.74L217.3,286.53L219.25,280.95L219.53,278.17L221.85,275.38L222.96,278.17L224.52,275.38L224.99,272.59L227.26,267.01L227.27,269.8L228.11,261.43L229.91,258.64L230.19,250.28L230.7,247.49L231.76,241.91L231.8,244.7L234.01,225.17L234.09,227.96L234.09,230.75L234.25,222.39L234.83,225.17L234.93,222.39L236.2,219.6L236.35,216.81L236.62,227.96L236.62,230.75L236.78,244.7L237.06,239.12L237.55,236.33L238.58,283.74L238.81,280.95L238.99,278.17L239,275.38L239.59,283.74L239.68,280.95L239.86,278.17L240.78,286.53L240.78,283.74L240.79,280.95L241.21,289.32L241.52,292.11L241.92,283.74L241.95,280.95L242.74,289.32L242.87,286.53L242.88,289.32L243.03,286.53L243.71,283.74L243.75,280.95L244.55,283.74L245.03,278.17L245.66,275.38L246.51,269.8L246.51,272.59L247.36,267.01L247.36,269.8L248.8,261.43L249.73,264.22L253.31,261.43L253.41,258.64L253.66,255.85L253.96,258.64L255.53,255.85L256.45,250.28L256.8,247.49L257.18,244.7L258.74,241.91L259.17,233.54L259.38,241.91L259.38,244.7L260.58,230.75L262.61,227.96L262.67,222.39L263.69,219.6L265.3,214.02L265.34,216.81L265.35,236.33L265.97,225.17L266.25,222.39L266.25,225.17L266.38,222.39L268.49,219.6L270.15,216.81L270.34,214.02L272.06,211.23L272.06,214.02L272.07,211.23L272.07,214.02L273.01,211.23L273.2,208.44L273.86,211.23L274.8,222.39L275,225.17L276.52,222.39L277.04,225.17L278.39,219.6L279.08,216.81L279.08,219.6L279.86,216.81L279.97,211.23L281.1,214.02L281.66,247.49L284.17,244.7L284.65,247.49L285.03,244.7L285.05,247.49L287.82,244.7L288.51,250.28L288.55,247.49L288.65,244.7L288.91,247.49L289.58,250.28L289.76,244.7L289.76,247.49L292.07,244.7L292.86,239.12L294.85,236.33L295.37,230.75L295.5,227.96L295.52,225.17L295.56,239.12L295.91,233.54L296.36,236.33L296.83,241.91L297.05,239.12L297.3,236.33L298.08,272.59L298.31,269.8L299.27,261.43L299.89,258.64L300.87,244.7L301.82,241.91L302.8,236.33L302.86,233.54L304.29,222.39L304.31,219.6L304.62,200.07L306.78,197.28L308.66,194.5L308.66,191.71L311.99,194.5L312.06,191.71L313.3,188.92L313.71,186.13L315.69,174.97L315.69,172.18L315.83,166.61L316.22,225.17L316.52,222.39L316.96,219.6L316.98,227.96L317.22,225.17L317.37,222.39L318.38,208.44L318.5,211.23L320.8,208.44L321.29,205.65L321.58,208.44L322.52,205.65L322.9,208.44L324.04,205.65L325.47,208.44L325.5,216.81L326.14,214.02L326.84,216.81L327.27,233.54L327.68,236.33L327.81,233.54L328.12,241.91L328.31,239.12L328.69,241.91L329.24,239.12L330.05,230.75L330.92,227.96L331.15,222.39L331.78,219.6L332.62,225.17L333.02,222.39L333.02,225.17L333.72,222.39L333.99,225.17L333.99,230.75L334.55,227.96L335.86,225.17L336.06,219.6L336.5,227.96L336.51,227.96L336.51,230.75L337.15,225.17L337.36,222.39L338.13,216.81L338.15,219.6L341.18,216.81L341.55,219.6L342.91,216.81L343.35,214.02L343.35,216.81L344.09,219.6L344.37,216.81L344.45,222.39L345.19,219.6L346.28,211.23L346.28,214.02L346.72,208.44L347.27,205.65L347.7,211.23L347.72,205.65L348.24,208.44L348.24,205.65L348.82,208.44L349.53,205.65L349.67,208.44L350.34,205.65L351.48,200.07L351.48,197.28L351.54,202.86L352.3,200.07L352.35,197.28L353.16,194.5L354.25,191.71L354.34,188.92L355.04,177.76L355.39,174.97L355.51,177.76L357.19,174.97L357.47,172.18L358.52,169.39L358.67,194.5L358.79,194.5L360.23,191.71L361.15,188.92L361.16,191.71L362.97,188.92L362.97,191.71L363.38,188.92L365.77,186.13L365.77,188.92L366.43,188.92L367.02,186.13L367.76,174.97L367.83,177.76L368.99,174.97L369.09,169.39L369.52,186.13L369.88,183.34L370.1,186.13L371.05,183.34L371.87,172.18L372.08,169.39L372.65,183.34L372.75,174.97L372.94,172.18L373.64,188.92L373.87,186.13L374.81,214.02L375.32,211.23L375.47,227.96L375.84,225.17L376.57,227.96L376.58,225.17L376.62,227.96L379.02,225.17L379.63,216.81L379.65,219.6L379.89,222.39L383.38,219.6L383.4,222.39L384.1,216.81L384.99,219.6L386.1,216.81L387,214.02L387,216.81L388.82,214.02L388.96,208.44L389.96,211.23L390.5,202.86L390.51,200.07L390.52,191.71L394.2,194.5L395.27,183.34L397.35,180.55L397.84,174.97L397.84,177.76L397.84,180.55L399.89,174.97L400.34,172.18L403.06,166.61L403.25,163.82L403.81,161.03L403.81,163.82L403.98,166.61L404.57,180.55L404.7,177.76L405.29,174.97L405.34,177.76L405.65,163.82L406.05,161.03L406.23,152.66L406.43,161.03L406.43,163.82L406.43,169.39L407.06,158.24L407.19,155.45L407.47,152.66L407.57,161.03L407.59,163.82L407.64,161.03L408.06,172.18L408.33,169.39L408.41,166.61L408.42,177.76L409.04,174.97L409.29,172.18L410.01,169.39L410.02,166.61L410.44,183.34L410.92,177.76L410.96,174.97L411.34,158.24L411.53,188.92L411.83,186.13L412.26,169.39L412.4,180.55L412.41,183.34L412.46,188.92L413.01,180.55L413.05,183.34L413.65,180.55L413.78,188.92L414.34,174.97L414.42,172.18L414.48,174.97L414.84,158.24L414.85,155.45L414.88,147.08L415.01,194.5L415.33,183.34L415.73,180.55L416.15,174.97L416.38,183.34L416.41,180.55L416.81,177.76L417.45,186.13L417.79,188.92L418.08,191.71L418.41,180.55L418.76,183.34L418.91,197.28L419.37,194.5L419.77,191.71L420.43,205.65L421.01,202.86L421.01,205.65L421.75,186.13L421.97,183.34L422.69,188.92L422.69,191.71L422.82,200.07L423.13,180.55L423.29,186.13L423.45,188.92L423.67,186.13L423.83,194.5L424.98,191.71L425.11,197.28L425.27,191.71L425.93,188.92L426.08,191.71L426.26,186.13L426.59,183.34L426.63,191.71L427.02,186.13L427.71,183.34L428.21,180.55L428.21,183.34L428.21,186.13L428.74,180.55L428.74,177.76L428.74,174.97L428.78,186.13L428.92,177.76L429.75,174.97L429.98,166.61L430.11,177.76L430.18,180.55L430.88,202.86L431.14,197.28L431.14,194.5L431.5,191.71L431.5,197.28L431.5,200.07L431.5,197.28L431.5,205.65L432.09,202.86L432.31,200.07L432.55,202.86L432.8,191.71L432.92,194.5L432.94,191.71L433.38,211.23L433.68,197.28L433.73,194.5L433.74,191.71L433.76,211.23L434.44,197.28L434.59,194.5L434.72,200.07L435.06,186.13L435.32,188.92L435.85,214.02L436.01,211.23L436.42,214.02L436.85,200.07L437.14,202.86L437.38,200.07L437.39,202.86L437.82,197.28L437.83,197.28L438.92,194.5L439.51,188.92L439.51,191.71L440.31,188.92L440.35,186.13L440.38,208.44L440.78,205.65L441.31,208.44L441.43,211.23L441.57,200.07L441.57,200.07L441.59,197.28L442,188.92L442.31,202.86L442.39,200.07L442.64,194.5L442.98,214.02L442.98,211.23L443.27,214.02L443.58,205.65L443.85,211.23L444.16,214.02L444.52,216.81L444.84,205.65L444.84,208.44L445.24,205.65L446.31,197.28L446.64,200.07L446.66,197.28L446.8,208.44L447.22,208.44L447.51,205.65L447.52,208.44L447.78,202.86L448.03,208.44L448.33,205.65L448.63,216.81L448.88,211.23L449.19,214.02L449.85,208.44L449.85,211.23L450.09,208.44L450.26,200.07L450.27,211.23L450.44,205.65L451.14,208.44L451.14,205.65L451.67,216.81L452.07,214.02L452.37,211.23L452.38,216.81L452.66,214.02L452.94,211.23L453.6,208.44L453.6,211.23L453.76,214.02L453.78,211.23L453.92,225.17L454.3,222.39L454.44,225.17L454.59,216.81L455.18,222.39L455.29,225.17L455.99,211.23L455.99,222.39L456,225.17L456,222.39L456.14,227.96L456.71,225.17L456.96,222.39L456.96,227.96L457.71,225.17L457.81,227.96L458.23,233.54L458.53,227.96L459.34,225.17L459.47,227.96L460.12,225.17L460.27,219.6L460.32,233.54L460.35,233.54L460.35,236.33L461.04,225.17L461.05,233.54L461.05,236.33L461.73,230.75L461.76,233.54L461.85,236.33L462.04,227.96L462.16,230.75L462.71,227.96L462.71,230.75L463.43,219.6L463.45,222.39L463.7,225.17L464.02,230.75L464.17,225.17L464.24,222.39L464.84,219.6L465.09,222.39L465.09,225.17L465.11,219.6L465.13,222.39L466.07,219.6L466.07,222.39L466.66,216.81L466.81,216.81L467.32,214.02L467.77,208.44L468.04,214.02L468.17,211.23L468.18,208.44L469.08,211.23L469.7,208.44L469.99,219.6L470.02,216.81L470.72,225.17L470.96,222.39L470.97,219.6L470.97,222.39L471.68,208.44L471.69,219.6L471.73,216.81L472.64,214.02L472.64,216.81L473.2,211.23L473.21,208.44L473.24,216.81L473.9,216.81L473.97,214.02L474.04,227.96L474.68,222.39L474.74,225.17L474.78,219.6L475.31,236.33L476.07,233.54L476.46,236.33L476.49,233.54L477.13,230.75L477.67,236.33L478.44,233.54L478.87,227.96L479.27,230.75L479.35,233.54L479.71,227.96L479.77,233.54L479.79,236.33L479.82,230.75L480.53,233.54L480.63,230.75L480.96,225.17L480.96,227.96L481.64,230.75L481.77,225.17L482.25,230.75L483.1,227.96L483.95,225.17L483.95,227.96L483.99,230.75L484.54,225.17L484.54,230.75L485.41,227.96L485.52,222.39L485.53,230.75L485.67,225.17L486.5,227.96L487.08,216.81L487.4,214.02L487.91,216.81L488.08,214.02L488.08,211.23L488.71,200.07L488.72,216.81L488.81,214.02L489.06,211.23L489.34,208.44L489.34,214.02L489.34,216.81L489.93,214.02L490.16,216.81L490.28,214.02L490.59,222.39L491.23,225.17L491.7,219.6L491.82,225.17L491.82,227.96L491.82,225.17L492.21,233.54L492.49,233.54L492.65,230.75L493.25,227.96L493.33,230.75L493.36,233.54L493.55,225.17L493.7,227.96L494.33,225.17L495.17,233.54L495.21,230.75L495.45,233.54L495.88,227.96L496.14,230.75L496.46,222.39L496.55,227.96L497.32,225.17L497.7,230.75L497.77,222.39L498.11,219.6L498.67,214.02L498.79,227.96L498.8,225.17L498.82,227.96L500.71,211.23L501.1,214.02L501.11,216.81L502.06,214.02L502.3,219.6L502.74,208.44L502.79,216.81L502.87,214.02L503.28,216.81L503.58,214.02L504.97,211.23L506.12,200.07L506.23,202.86L506.23,205.65L506.23,208.44L506.39,200.07L506.43,200.07L508.63,202.86L509.01,197.28L509.32,219.6L509.43,216.81L509.44,219.6L510.16,211.23L510.16,214.02L510.43,216.81L511.14,200.07L511.18,202.86L511.28,205.65L511.39,202.86L511.84,211.23L511.99,202.86L512.41,200.07L512.93,194.5L512.94,197.28L512.97,200.07L513.13,194.5L513.13,200.07L515.02,197.28L515.02,200.07L516.79,197.28L518.32,183.34L518.37,180.55L518.38,177.76L518.39,186.13L518.83,183.34L519.16,180.55L520.67,174.97L520.91,172.18L520.91,174.97L521.39,166.61L522.53,163.82L523.18,152.66L523.18,149.87L523.18,152.66L523.77,135.93L523.87,135.93L524.13,133.14L524.13,135.93L524.58,121.98L524.86,121.98L524.98,119.19L524.98,121.98L525.72,113.61L525.8,116.4L526.55,102.46L528.83,99.67L530.08,80.15L531.02,77.36L532.71,71.78L534.5,68.99L535.09,57.83L535.42,55.05L536.66,41.1L536.82,38.31L537.99,32.73L538.49,29.94L540,16" style="fill: rgb(44, 160, 44); fill-opacity: 0.5; stroke-width: 0;"/></g></g><g class="errorbars"/><g class="lines"><path class="js-line" d="M0,317.21L0.1,320L1.02,317.21L1.69,320L1.79,317.21L1.79,320L3.04,317.21L3.77,320L4.63,317.21L4.63,320L4.72,320L5.45,317.21L5.45,320L6.03,320L6.85,317.21L6.85,320L7.42,320L8.94,317.21L8.94,320L9.57,317.21L9.78,320L11.47,317.21L11.47,320L14.27,317.21L14.27,320L21.55,317.21L21.55,320L21.74,317.21L21.74,320L23.33,317.21L23.33,314.42L23.47,317.21L24.6,320L26.28,317.21L26.28,320L27.58,314.42L27.58,317.21L27.58,320L30.37,317.21L30.37,320L30.51,320L31.73,317.21L31.73,320L32.32,320L33.2,317.21L33.2,320L33.97,317.21L33.97,320L34.71,317.21L34.79,320L37.36,314.42L37.78,317.21L37.9,314.42L37.9,317.21L39.18,320L39.89,317.21L39.89,320L41.58,317.21L41.58,320L42.65,317.21L42.65,320L43.13,308.84L43.24,311.63L43.76,314.42L44.19,317.21L44.63,314.42L44.64,317.21L45.87,314.42L49.67,311.63L49.67,314.42L49.96,317.21L50.74,314.42L51.63,320L53.03,317.21L53.42,320L56.52,317.21L56.52,320L56.52,317.21L58,314.42L58.32,317.21L59.09,314.42L59.85,311.63L59.88,314.42L59.89,311.63L60.45,320L62.27,317.21L62.56,320L63.23,317.21L63.38,314.42L64.34,317.21L64.51,311.63L64.64,314.42L65.45,317.21L65.76,314.42L65.76,317.21L66.3,314.42L66.38,308.84L66.48,320L66.57,320L67.15,317.21L67.98,314.42L67.99,317.21L68.71,311.63L68.71,314.42L69.4,311.63L73.86,308.84L74.32,306.06L75.98,320L76.96,317.21L76.96,320L77.92,317.21L79.1,314.42L79.16,317.21L80.21,311.63L80.61,308.84L81.12,306.06L81.12,308.84L81.14,311.63L82.26,306.06L82.28,308.84L83.09,306.06L83.1,308.84L83.38,311.63L83.95,308.84L83.95,311.63L83.95,308.84L85.74,311.63L85.91,308.84L85.91,311.63L86.79,308.84L87.03,311.63L87.74,308.84L88.19,306.06L88.95,308.84L89.66,306.06L89.94,308.84L92.18,306.06L92.18,308.84L92.76,306.06L92.78,308.84L94.14,311.63L94.64,308.84L94.84,311.63L94.98,308.84L94.99,311.63L95.98,308.84L95.99,292.11L96.68,306.06L96.95,308.84L96.96,311.63L97.11,306.06L97.5,306.06L98.08,303.27L98.78,306.06L98.96,303.27L99.48,297.69L99.64,303.27L99.73,306.06L100.35,294.9L100.47,300.48L101.42,303.27L101.85,294.9L101.85,294.9L102.37,297.69L103.41,283.74L104.35,280.95L105.36,283.74L105.64,280.95L105.76,286.53L106.35,286.53L106.47,283.74L106.77,294.9L106.89,292.11L107.54,289.32L108.03,278.17L108.03,280.95L108.41,283.74L108.45,286.53L109.28,283.74L109.41,280.95L109.42,283.74L110.69,286.53L111.39,297.69L112.47,294.9L112.47,297.69L114.6,294.9L114.6,292.11L114.6,297.69L116.55,294.9L116.57,297.69L116.57,294.9L117.62,297.69L117.67,294.9L119.49,292.11L120.31,297.69L120.32,294.9L120.47,297.69L120.63,294.9L120.63,297.69L121.45,294.9L121.77,297.69L122.46,294.9L122.48,297.69L124.09,294.9L124.12,297.69L125.93,294.9L126.04,297.69L126.42,294.9L126.9,292.11L127.02,294.9L127.89,292.11L127.9,294.9L128.3,283.74L128.44,283.74L128.82,280.95L129.17,294.9L130.13,292.11L130.42,297.69L131.11,294.9L132.07,292.11L132.19,289.32L132.75,292.11L132.92,289.32L133.03,286.53L133.74,280.95L133.77,283.74L134.07,280.95L134.29,283.74L134.73,280.95L134.74,278.17L134.74,269.8L134.89,286.53L136.13,283.74L136.25,280.95L136.26,283.74L137.67,280.95L138.43,292.11L139.62,289.32L140.02,292.11L141.6,289.32L142.67,286.53L142.67,289.32L143.97,280.95L143.97,283.74L144.22,286.53L144.25,289.32L144.64,283.74L144.65,286.53L144.96,283.74L144.97,286.53L145.94,289.32L146.11,294.9L146.81,292.11L146.9,289.32L148.48,286.53L149,278.17L149.02,283.74L149.02,286.53L149.07,292.11L150.84,289.32L150.93,292.11L150.97,289.32L152.54,286.53L152.55,289.32L153.89,286.53L153.89,289.32L154.31,286.53L154.75,283.74L155.43,280.95L155.46,283.74L158.27,286.53L161.26,280.95L161.98,278.17L162.74,280.95L163.44,278.17L163.45,280.95L166.08,278.17L166.53,280.95L167.13,278.17L168.32,275.38L168.57,278.17L168.57,275.38L168.6,297.69L168.61,294.9L170.96,292.11L170.97,294.9L173.27,297.69L174.35,294.9L174.35,297.69L174.97,294.9L175,297.69L177.17,294.9L177.33,292.11L178.69,294.9L178.7,297.69L179.28,275.38L179.39,286.53L180.89,283.74L181.21,275.38L182.84,272.59L183.34,269.8L183.35,272.59L185.51,269.8L185.99,272.59L187.29,269.8L187.59,272.59L187.88,269.8L190.03,267.01L192.97,264.22L193.07,267.01L193.96,264.22L194.64,267.01L194.68,261.43L194.9,264.22L195.77,267.01L196.02,278.17L196.83,280.95L196.91,283.74L197,278.17L200.38,275.38L200.93,278.17L201.61,275.38L201.75,272.59L203.86,269.8L206.77,267.01L208.33,264.22L208.35,261.43L209.64,258.64L210.42,261.43L210.43,258.64L210.73,278.17L210.74,275.38L211.7,278.17L212.12,280.95L212.13,278.17L213.26,280.95L213.71,286.53L214.08,283.74L214.1,286.53L214.61,278.17L214.65,283.74L215.21,286.53L215.24,289.32L216.13,286.53L217.29,283.74L217.3,286.53L219.25,280.95L219.53,278.17L221.85,275.38L222.96,278.17L224.52,275.38L224.99,272.59L227.26,267.01L227.27,269.8L228.11,261.43L229.91,258.64L230.19,250.28L230.7,247.49L231.76,241.91L231.8,244.7L234.01,225.17L234.09,227.96L234.09,230.75L234.25,222.39L234.83,225.17L234.93,222.39L236.2,219.6L236.35,216.81L236.62,227.96L236.62,230.75L236.78,244.7L237.06,239.12L237.55,236.33L238.58,283.74L238.81,280.95L238.99,278.17L239,275.38L239.59,283.74L239.68,280.95L239.86,278.17L240.78,286.53L240.78,283.74L240.79,280.95L241.21,289.32L241.52,292.11L241.92,283.74L241.95,280.95L242.74,289.32L242.87,286.53L242.88,289.32L243.03,286.53L243.71,283.74L243.75,280.95L244.55,283.74L245.03,278.17L245.66,275.38L246.51,269.8L246.51,272.59L247.36,267.01L247.36,269.8L248.8,261.43L249.73,264.22L253.31,261.43L253.41,258.64L253.66,255.85L253.96,258.64L255.53,255.85L256.45,250.28L256.8,247.49L257.18,244.7L258.74,241.91L259.17,233.54L259.38,241.91L259.38,244.7L260.58,230.75L262.61,227.96L262.67,222.39L263.69,219.6L265.3,214.02L265.34,216.81L265.35,236.33L265.97,225.17L266.25,222.39L266.25,225.17L266.38,222.39L268.49,219.6L270.15,216.81L270.34,214.02L272.06,211.23L272.06,214.02L272.07,211.23L272.07,214.02L273.01,211.23L273.2,208.44L273.86,211.23L274.8,222.39L275,225.17L276.52,222.39L277.04,225.17L278.39,219.6L279.08,216.81L279.08,219.6L279.86,216.81L279.97,211.23L281.1,214.02L281.66,247.49L284.17,244.7L284.65,247.49L285.03,244.7L285.05,247.49L287.82,244.7L288.51,250.28L288.55,247.49L288.65,244.7L288.91,247.49L289.58,250.28L289.76,244.7L289.76,247.49L292.07,244.7L292.86,239.12L294.85,236.33L295.37,230.75L295.5,227.96L295.52,225.17L295.56,239.12L295.91,233.54L296.36,236.33L296.83,241.91L297.05,239.12L297.3,236.33L298.08,272.59L298.31,269.8L299.27,261.43L299.89,258.64L300.87,244.7L301.82,241.91L302.8,236.33L302.86,233.54L304.29,222.39L304.31,219.6L304.62,200.07L306.78,197.28L308.66,194.5L308.66,191.71L311.99,194.5L312.06,191.71L313.3,188.92L313.71,186.13L315.69,174.97L315.69,172.18L315.83,166.61L316.22,225.17L316.52,222.39L316.96,219.6L316.98,227.96L317.22,225.17L317.37,222.39L318.38,208.44L318.5,211.23L320.8,208.44L321.29,205.65L321.58,208.44L322.52,205.65L322.9,208.44L324.04,205.65L325.47,208.44L325.5,216.81L326.14,214.02L326.84,216.81L327.27,233.54L327.68,236.33L327.81,233.54L328.12,241.91L328.31,239.12L328.69,241.91L329.24,239.12L330.05,230.75L330.92,227.96L331.15,222.39L331.78,219.6L332.62,225.17L333.02,222.39L333.02,225.17L333.72,222.39L333.99,225.17L333.99,230.75L334.55,227.96L335.86,225.17L336.06,219.6L336.5,227.96L336.51,227.96L336.51,230.75L337.15,225.17L337.36,222.39L338.13,216.81L338.15,219.6L341.18,216.81L341.55,219.6L342.91,216.81L343.35,214.02L343.35,216.81L344.09,219.6L344.37,216.81L344.45,222.39L345.19,219.6L346.28,211.23L346.28,214.02L346.72,208.44L347.27,205.65L347.7,211.23L347.72,205.65L348.24,208.44L348.24,205.65L348.82,208.44L349.53,205.65L349.67,208.44L350.34,205.65L351.48,200.07L351.48,197.28L351.54,202.86L352.3,200.07L352.35,197.28L353.16,194.5L354.25,191.71L354.34,188.92L355.04,177.76L355.39,174.97L355.51,177.76L357.19,174.97L357.47,172.18L358.52,169.39L358.67,194.5L358.79,194.5L360.23,191.71L361.15,188.92L361.16,191.71L362.97,188.92L362.97,191.71L363.38,188.92L365.77,186.13L365.77,188.92L366.43,188.92L367.02,186.13L367.76,174.97L367.83,177.76L368.99,174.97L369.09,169.39L369.52,186.13L369.88,183.34L370.1,186.13L371.05,183.34L371.87,172.18L372.08,169.39L372.65,183.34L372.75,174.97L372.94,172.18L373.64,188.92L373.87,186.13L374.81,214.02L375.32,211.23L375.47,227.96L375.84,225.17L376.57,227.96L376.58,225.17L376.62,227.96L379.02,225.17L379.63,216.81L379.65,219.6L379.89,222.39L383.38,219.6L383.4,222.39L384.1,216.81L384.99,219.6L386.1,216.81L387,214.02L387,216.81L388.82,214.02L388.96,208.44L389.96,211.23L390.5,202.86L390.51,200.07L390.52,191.71L394.2,194.5L395.27,183.34L397.35,180.55L397.84,174.97L397.84,177.76L397.84,180.55L399.89,174.97L400.34,172.18L403.06,166.61L403.25,163.82L403.81,161.03L403.81,163.82L403.98,166.61L404.57,180.55L404.7,177.76L405.29,174.97L405.34,177.76L405.65,163.82L406.05,161.03L406.23,152.66L406.43,161.03L406.43,163.82L406.43,169.39L407.06,158.24L407.19,155.45L407.47,152.66L407.57,161.03L407.59,163.82L407.64,161.03L408.06,172.18L408.33,169.39L408.41,166.61L408.42,177.76L409.04,174.97L409.29,172.18L410.01,169.39L410.02,166.61L410.44,183.34L410.92,177.76L410.96,174.97L411.34,158.24L411.53,188.92L411.83,186.13L412.26,169.39L412.4,180.55L412.41,183.34L412.46,188.92L413.01,180.55L413.05,183.34L413.65,180.55L413.78,188.92L414.34,174.97L414.42,172.18L414.48,174.97L414.84,158.24L414.85,155.45L414.88,147.08L415.01,194.5L415.33,183.34L415.73,180.55L416.15,174.97L416.38,183.34L416.41,180.55L416.81,177.76L417.45,186.13L417.79,188.92L418.08,191.71L418.41,180.55L418.76,183.34L418.91,197.28L419.37,194.5L419.77,191.71L420.43,205.65L421.01,202.86L421.01,205.65L421.75,186.13L421.97,183.34L422.69,188.92L422.69,191.71L422.82,200.07L423.13,180.55L423.29,186.13L423.45,188.92L423.67,186.13L423.83,194.5L424.98,191.71L425.11,197.28L425.27,191.71L425.93,188.92L426.08,191.71L426.26,186.13L426.59,183.34L426.63,191.71L427.02,186.13L427.71,183.34L428.21,180.55L428.21,183.34L428.21,186.13L428.74,180.55L428.74,177.76L428.74,174.97L428.78,186.13L428.92,177.76L429.75,174.97L429.98,166.61L430.11,177.76L430.18,180.55L430.88,202.86L431.14,197.28L431.14,194.5L431.5,191.71L431.5,197.28L431.5,200.07L431.5,197.28L431.5,205.65L432.09,202.86L432.31,200.07L432.55,202.86L432.8,191.71L432.92,194.5L432.94,191.71L433.38,211.23L433.68,197.28L433.73,194.5L433.74,191.71L433.76,211.23L434.44,197.28L434.59,194.5L434.72,200.07L435.06,186.13L435.32,188.92L435.85,214.02L436.01,211.23L436.42,214.02L436.85,200.07L437.14,202.86L437.38,200.07L437.39,202.86L437.82,197.28L437.83,197.28L438.92,194.5L439.51,188.92L439.51,191.71L440.31,188.92L440.35,186.13L440.38,208.44L440.78,205.65L441.31,208.44L441.43,211.23L441.57,200.07L441.57,200.07L441.59,197.28L442,188.92L442.31,202.86L442.39,200.07L442.64,194.5L442.98,214.02L442.98,211.23L443.27,214.02L443.58,205.65L443.85,211.23L444.16,214.02L444.52,216.81L444.84,205.65L444.84,208.44L445.24,205.65L446.31,197.28L446.64,200.07L446.66,197.28L446.8,208.44L447.22,208.44L447.51,205.65L447.52,208.44L447.78,202.86L448.03,208.44L448.33,205.65L448.63,216.81L448.88,211.23L449.19,214.02L449.85,208.44L449.85,211.23L450.09,208.44L450.26,200.07L450.27,211.23L450.44,205.65L451.14,208.44L451.14,205.65L451.67,216.81L452.07,214.02L452.37,211.23L452.38,216.81L452.66,214.02L452.94,211.23L453.6,208.44L453.6,211.23L453.76,214.02L453.78,211.23L453.92,225.17L454.3,222.39L454.44,225.17L454.59,216.81L455.18,222.39L455.29,225.17L455.99,211.23L455.99,222.39L456,225.17L456,222.39L456.14,227.96L456.71,225.17L456.96,222.39L456.96,227.96L457.71,225.17L457.81,227.96L458.23,233.54L458.53,227.96L459.34,225.17L459.47,227.96L460.12,225.17L460.27,219.6L460.32,233.54L460.35,233.54L460.35,236.33L461.04,225.17L461.05,233.54L461.05,236.33L461.73,230.75L461.76,233.54L461.85,236.33L462.04,227.96L462.16,230.75L462.71,227.96L462.71,230.75L463.43,219.6L463.45,222.39L463.7,225.17L464.02,230.75L464.17,225.17L464.24,222.39L464.84,219.6L465.09,222.39L465.09,225.17L465.11,219.6L465.13,222.39L466.07,219.6L466.07,222.39L466.66,216.81L466.81,216.81L467.32,214.02L467.77,208.44L468.04,214.02L468.17,211.23L468.18,208.44L469.08,211.23L469.7,208.44L469.99,219.6L470.02,216.81L470.72,225.17L470.96,222.39L470.97,219.6L470.97,222.39L471.68,208.44L471.69,219.6L471.73,216.81L472.64,214.02L472.64,216.81L473.2,211.23L473.21,208.44L473.24,216.81L473.9,216.81L473.97,214.02L474.04,227.96L474.68,222.39L474.74,225.17L474.78,219.6L475.31,236.33L476.07,233.54L476.46,236.33L476.49,233.54L477.13,230.75L477.67,236.33L478.44,233.54L478.87,227.96L479.27,230.75L479.35,233.54L479.71,227.96L479.77,233.54L479.79,236.33L479.82,230.75L480.53,233.54L480.63,230.75L480.96,225.17L480.96,227.96L481.64,230.75L481.77,225.17L482.25,230.75L483.1,227.96L483.95,225.17L483.95,227.96L483.99,230.75L484.54,225.17L484.54,230.75L485.41,227.96L485.52,222.39L485.53,230.75L485.67,225.17L486.5,227.96L487.08,216.81L487.4,214.02L487.91,216.81L488.08,214.02L488.08,211.23L488.71,200.07L488.72,216.81L488.81,214.02L489.06,211.23L489.34,208.44L489.34,214.02L489.34,216.81L489.93,214.02L490.16,216.81L490.28,214.02L490.59,222.39L491.23,225.17L491.7,219.6L491.82,225.17L491.82,227.96L491.82,225.17L492.21,233.54L492.49,233.54L492.65,230.75L493.25,227.96L493.33,230.75L493.36,233.54L493.55,225.17L493.7,227.96L494.33,225.17L495.17,233.54L495.21,230.75L495.45,233.54L495.88,227.96L496.14,230.75L496.46,222.39L496.55,227.96L497.32,225.17L497.7,230.75L497.77,222.39L498.11,219.6L498.67,214.02L498.79,227.96L498.8,225.17L498.82,227.96L500.71,211.23L501.1,214.02L501.11,216.81L502.06,214.02L502.3,219.6L502.74,208.44L502.79,216.81L502.87,214.02L503.28,216.81L503.58,214.02L504.97,211.23L506.12,200.07L506.23,202.86L506.23,205.65L506.23,208.44L506.39,200.07L506.43,200.07L508.63,202.86L509.01,197.28L509.32,219.6L509.43,216.81L509.44,219.6L510.16,211.23L510.16,214.02L510.43,216.81L511.14,200.07L511.18,202.86L511.28,205.65L511.39,202.86L511.84,211.23L511.99,202.86L512.41,200.07L512.93,194.5L512.94,197.28L512.97,200.07L513.13,194.5L513.13,200.07L515.02,197.28L515.02,200.07L516.79,197.28L518.32,183.34L518.37,180.55L518.38,177.76L518.39,186.13L518.83,183.34L519.16,180.55L520.67,174.97L520.91,172.18L520.91,174.97L521.39,166.61L522.53,163.82L523.18,152.66L523.18,149.87L523.18,152.66L523.77,135.93L523.87,135.93L524.13,133.14L524.13,135.93L524.58,121.98L524.86,121.98L524.98,119.19L524.98,121.98L525.72,113.61L525.8,116.4L526.55,102.46L528.83,99.67L530.08,80.15L531.02,77.36L532.71,71.78L534.5,68.99L535.09,57.83L535.42,55.05L536.66,41.1L536.82,38.31L537.99,32.73L538.49,29.94L540,16" style="vector-effect: none; fill: none; stroke: rgb(44, 160, 44); stroke-opacity: 1; stroke-width: 2px; opacity: 1;"/></g><g class="points"/><g class="text"/></g></g></g></g><g class="zerolinelayer-above"/><path class="xlines-above crisp" d="M0,0" style="fill: none;"/><path class="ylines-above crisp" d="M0,0" style="fill: none;"/><g class="overlines-above"/><g class="xaxislayer-above"><g class="xtick"><text text-anchor="middle" x="0" y="439" transform="translate(96.71000000000001,0)" style="font-family: 'Open Sans'; font-size: 18px; fill: rgb(0, 0, 0); fill-opacity: 1; white-space: pre;">2016</text></g><g class="xtick"><text text-anchor="middle" x="0" y="439" style="font-family: 'Open Sans'; font-size: 18px; fill: rgb(0, 0, 0); fill-opacity: 1; white-space: pre;" transform="translate(198.99,0)">2018</text></g><g class="xtick"><text text-anchor="middle" x="0" y="439" style="font-family: 'Open Sans'; font-size: 18px; fill: rgb(0, 0, 0); fill-opacity: 1; white-space: pre;" transform="translate(301.13,0)">2020</text></g><g class="xtick"><text text-anchor="middle" x="0" y="439" style="font-family: 'Open Sans'; font-size: 18px; fill: rgb(0, 0, 0); fill-opacity: 1; white-space: pre;" transform="translate(403.42,0)">2022</text></g><g class="xtick"><text text-anchor="middle" x="0" y="439" style="font-family: 'Open Sans'; font-size: 18px; fill: rgb(0, 0, 0); fill-opacity: 1; white-space: pre;" transform="translate(505.56,0)">2024</text></g><g class="xtick"><text text-anchor="middle" x="0" y="439" style="font-family: 'Open Sans'; font-size: 18px; fill: rgb(0, 0, 0); fill-opacity: 1; white-space: pre;" transform="translate(607.85,0)">2026</text></g></g><g class="yaxislayer-above"><g class="ytick"><text text-anchor="end" x="79" y="6.3" transform="translate(0,420)" style="font-family: 'Open Sans'; font-size: 18px; fill: rgb(0, 0, 0); fill-opacity: 1; white-space: pre;">0</text></g><g class="ytick"><text text-anchor="end" x="79" y="6.3" style="font-family: 'Open Sans'; font-size: 18px; fill: rgb(0, 0, 0); fill-opacity: 1; white-space: pre;" transform="translate(0,364.22)">20</text></g><g class="ytick"><text text-anchor="end" x="79" y="6.3" style="font-family: 'Open Sans'; font-size: 18px; fill: rgb(0, 0, 0); fill-opacity: 1; white-space: pre;" transform="translate(0,308.44)">40</text></g><g class="ytick"><text text-anchor="end" x="79" y="6.3" style="font-family: 'Open Sans'; font-size: 18px; fill: rgb(0, 0, 0); fill-opacity: 1; white-space: pre;" transform="translate(0,252.66)">60</text></g><g class="ytick"><text text-anchor="end" x="79" y="6.3" style="font-family: 'Open Sans'; font-size: 18px; fill: rgb(0, 0, 0); fill-opacity: 1; white-space: pre;" transform="translate(0,196.88)">80</text></g><g class="ytick"><text text-anchor="end" x="79" y="6.3" style="font-family: 'Open Sans'; font-size: 18px; fill: rgb(0, 0, 0); fill-opacity: 1; white-space: pre;" transform="translate(0,141.1)">100</text></g></g><g class="overaxes-above"/></g></g><g class="polarlayer"/><g class="smithlayer"/><g class="ternarylayer"/><g class="geolayer"/><g class="funnelarealayer"/><g class="pielayer"/><g class="iciclelayer"/><g class="treemaplayer"/><g class="sunburstlayer"/><g class="glimages"/><defs id="topdefs-3a74b4"><g class="clips"/></defs><g class="layer-above"><g class="imagelayer"/><g class="shapelayer"/></g><g class="infolayer"><g class="g-gtitle"><text class="gtitle" x="35" y="50" text-anchor="start" dy="0em" style="opacity: 1; font-family: 'Open Sans'; font-size: 25px; fill: rgb(0, 0, 0); fill-opacity: 1; white-space: pre;">MultiQC/MultiQC - Open Pull Requests Over Time</text></g><g class="g-xtitle"><text class="xtitle" x="350" y="472.9" text-anchor="middle" style="opacity: 1; font-family: 'Open Sans'; font-size: 22px; fill: rgb(0, 0, 0); fill-opacity: 1; white-space: pre;">Date</text></g><g class="g-ytitle"><text class="ytitle" transform="rotate(-90,29.799999999999997,260)" x="29.799999999999997" y="260" text-anchor="middle" style="opacity: 1; font-family: 'Open Sans'; font-size: 22px; fill: rgb(0, 0, 0); fill-opacity: 1; white-space: pre;">Number of Open PRs</text></g></g></svg>