<svg class="main-svg" xmlns="http://www.w3.org/2000/svg" xmlns:xlink="http://www.w3.org/1999/xlink" width="700" height="500" style="" viewBox="0 0 700 500"><rect x="0" y="0" width="700" height="500" style="fill: rgb(0, 0, 0); fill-opacity: 0;"/><defs id="defs-83699d"><g class="clips"><clipPath id="clip83699dxyplot" class="plotclip"><rect width="540" height="320"/></clipPath><clipPath class="axesclip" id="clip83699dx"><rect x="80" y="0" width="540" height="500"/></clipPath><clipPath class="axesclip" id="clip83699dy"><rect x="0" y="100" width="700" height="320"/></clipPath><clipPath class="axesclip" id="clip83699dxy"><rect x="80" y="100" width="540" height="320"/></clipPath></g><g class="gradients"/><g class="patterns"/></defs><g class="bglayer"><rect class="bg" x="80" y="100" width="540" height="320" style="fill: rgb(0, 0, 0); fill-opacity: 0; stroke-width: 0;"/></g><g class="layer-below"><g class="imagelayer"/><g class="shapelayer"/></g><g class="cartesianlayer"><g class="subplot xy"><g class="layer-subplot"><g class="shapelayer"/><g class="imagelayer"/></g><g class="minor-gridlayer"><g class="x"/><g class="y"/></g><g class="gridlayer"><g class="x"><path class="xgrid crisp" transform="translate(97.02,0)" d="M0,100v320" style="stroke: rgb(255, 255, 255); stroke-opacity: 1; stroke-width: 1px;"/><path class="xgrid crisp" transform="translate(201.22,0)" d="M0,100v320" style="stroke: rgb(255, 255, 255); stroke-opacity: 1; stroke-width: 1px;"/><path class="xgrid crisp" transform="translate(305.27,0)" d="M0,100v320" style="stroke: rgb(255, 255, 255); stroke-opacity: 1; stroke-width: 1px;"/><path class="xgrid crisp" transform="translate(409.47,0)" d="M0,100v320" style="stroke: rgb(255, 255, 255); stroke-opacity: 1; stroke-width: 1px;"/><path class="xgrid crisp" transform="translate(513.52,0)" d="M0,100v320" style="stroke: rgb(255, 255, 255); stroke-opacity: 1; stroke-width: 1px;"/><path class="xgrid crisp" transform="translate(617.72,0)" d="M0,100v320" style="stroke: rgb(255, 255, 255); stroke-opacity: 1; stroke-width: 1px;"/></g><g class="y"><path class="ygrid crisp" transform="translate(0,349.3)" d="M80,0h540" style="stroke: rgb(255, 255, 255); stroke-opacity: 1; stroke-width: 1px;"/><path class="ygrid crisp" transform="translate(0,278.6)" d="M80,0h540" style="stroke: rgb(255, 255, 255); stroke-opacity: 1; stroke-width: 1px;"/><path class="ygrid crisp" transform="translate(0,207.91)" d="M80,0h540" style="stroke: rgb(255, 255, 255); stroke-opacity: 1; stroke-width: 1px;"/><path class="ygrid crisp" transform="translate(0,137.21)" d="M80,0h540" style="stroke: rgb(255, 255, 255); stroke-opacity: 1; stroke-width: 1px;"/></g></g><g class="zerolinelayer"><path class="yzl zl crisp" transform="translate(0,420)" d="M80,0h540" style="stroke: rgb(255, 255, 255); stroke-opacity: 1; stroke-width: 2px;"/></g><g class="layer-between"><g class="shapelayer"/><g class="imagelayer"/></g><path class="xlines-below"/><path class="ylines-below"/><g class="overlines-below"/><g class="xaxislayer-below"/><g class="yaxislayer-below"/><g class="overaxes-below"/><g class="overplot"><g class="xy" transform="translate(80,100)" clip-path="url(#clip83699dxyplot)"><g class="scatterlayer mlayer"><g class="trace scatter trace784750" style="stroke-miterlimit: 2;"><g class="fills"><g><path class="js-fill" d="M540,320L0,320L0,316.47L0.1,320L1.04,316.47L1.72,320L1.83,316.47L1.83,320L3.09,316.47L3.84,320L4.71,316.47L4.71,320L4.81,320L5.55,316.47L5.55,320L6.14,320L6.98,316.47L6.98,320L7.56,320L9.1,316.47L9.1,320L9.75,316.47L9.96,320L11.68,316.47L11.68,320L14.54,316.47L14.54,320L21.95,316.47L21.95,320L22.15,316.47L22.15,320L23.77,316.47L23.77,312.93L23.91,316.47L25.06,320L26.77,316.47L26.77,320L28.09,312.93L28.09,316.47L28.09,320L30.93,316.47L30.93,320L31.08,320L32.33,316.47L32.33,320L32.93,320L33.82,316.47L33.82,320L34.6,316.47L34.6,320L35.35,316.47L35.44,320L38.05,312.93L38.49,316.47L38.61,312.93L38.61,316.47L39.91,320L40.64,316.47L40.64,320L42.35,316.47L42.35,320L43.45,316.47L43.45,320L43.94,305.86L44.05,309.4L44.58,312.93L45.02,316.47L45.46,312.93L45.47,316.47L46.73,312.93L50.6,309.4L50.6,312.93L50.89,316.47L51.69,312.93L52.6,320L54.02,316.47L54.42,320L57.57,316.47L57.58,320L57.58,316.47L59.08,312.93L59.41,316.47L60.2,312.93L60.97,309.4L61,312.93L61.01,309.4L61.58,320L63.43,316.47L63.73,320L64.41,316.47L64.57,312.93L65.54,316.47L65.72,309.4L65.84,312.93L66.68,316.47L66.99,312.93L66.99,316.47L67.54,312.93L67.62,305.86L67.73,320L67.81,320L68.4,316.47L69.26,312.93L69.26,316.47L69.99,309.4L70,312.93L70.7,309.4L75.24,305.86L75.71,302.33L77.4,320L78.4,316.47L78.4,320L79.38,316.47L80.58,312.93L80.64,316.47L81.71,309.4L82.12,305.86L82.63,302.33L82.63,305.86L82.66,309.4L83.8,302.33L83.82,305.86L84.65,302.33L84.65,305.86L84.94,309.4L85.52,305.86L85.52,309.4L85.52,305.86L87.34,309.4L87.52,305.86L87.52,309.4L88.42,305.86L88.65,309.4L89.38,305.86L89.84,302.33L90.61,305.86L91.33,302.33L91.63,305.86L93.9,302.33L93.9,305.86L94.49,302.33L94.52,305.86L95.9,309.4L96.41,305.86L96.61,309.4L96.76,305.86L96.76,309.4L97.78,305.86L97.79,284.65L98.49,302.33L98.77,305.86L98.77,309.4L98.93,302.33L99.33,302.33L99.92,298.79L100.63,302.33L100.81,298.79L101.34,291.72L101.5,298.79L101.6,302.33L102.22,288.19L102.35,295.26L103.32,298.79L103.75,288.19L103.75,288.19L104.29,291.72L105.34,274.05L106.3,270.51L107.33,274.05L107.61,270.51L108.34,277.58L108.46,274.05L108.76,288.19L108.89,284.65L109.55,281.12L110.05,266.98L110.05,270.51L110.44,274.05L110.47,277.58L111.33,274.05L111.45,270.51L111.47,274.05L112.76,277.58L112.88,291.72L113.46,288.19L113.47,284.65L113.48,291.72L114.58,288.19L114.58,291.72L116.74,288.19L116.74,284.65L116.75,291.72L118.73,288.19L118.75,291.72L118.75,288.19L119.82,291.72L119.87,288.19L121.72,284.65L122.56,291.72L122.57,288.19L122.72,291.72L122.88,288.19L122.89,291.72L123.72,288.19L124.04,291.72L124.75,288.19L124.78,291.72L126.41,288.19L126.44,291.72L128.29,288.19L128.39,291.72L128.79,288.19L129.27,284.65L129.4,288.19L130.29,284.65L130.29,288.19L130.7,274.05L130.84,274.05L131.23,270.51L131.58,288.19L131.58,288.19L132.57,284.65L132.68,291.72L132.86,291.72L133.56,288.19L134.54,284.65L134.66,281.12L135.23,284.65L135.41,281.12L135.51,277.58L136.24,270.51L136.27,274.05L136.58,270.51L136.8,274.05L137.25,270.51L137.26,266.98L137.26,256.37L137.41,277.58L138.68,274.05L138.8,270.51L138.81,274.05L140.25,270.51L141.02,284.65L142.23,281.12L142.64,284.65L144.25,281.12L145.33,277.58L145.34,281.12L146.66,270.51L146.67,274.05L146.92,277.58L146.95,281.12L147.35,274.05L147.35,277.58L147.68,274.05L147.68,277.58L148.67,281.12L148.84,288.19L149.55,284.65L149.65,281.12L151.25,277.58L151.79,266.98L151.8,270.51L151.8,274.05L151.86,284.65L153.66,281.12L153.76,284.65L153.8,281.12L155.39,277.58L155.4,281.12L156.77,277.58L156.77,281.12L157.19,277.58L157.65,274.05L158.33,270.51L158.37,274.05L161.23,277.58L164.27,270.51L165.01,266.98L165.79,270.51L166.49,266.98L166.5,270.51L169.18,266.98L169.64,270.51L170.25,266.98L171.47,263.44L171.72,266.98L171.72,263.44L171.76,291.72L171.76,288.19L174.15,284.65L174.17,288.19L176.51,291.72L177.61,288.19L177.61,291.72L178.24,288.19L178.27,291.72L180.49,288.19L180.64,284.65L182.03,288.19L182.04,291.72L182.63,263.44L182.72,266.98L182.72,263.44L182.75,277.58L184.27,274.05L184.6,263.44L186.27,259.91L186.77,256.37L186.78,259.91L188.98,256.37L189.47,259.91L190.8,256.37L191.1,259.91L191.4,256.37L193.59,252.84L196.58,249.3L196.68,252.84L197.59,249.3L198.28,252.84L198.32,245.77L198.54,249.3L199.43,252.84L199.69,266.98L200.51,270.51L200.59,274.05L200.69,266.98L204.13,263.44L204.69,266.98L205.38,263.44L205.53,259.91L207.68,256.37L210.64,252.84L212.23,249.3L212.25,245.77L213.57,242.23L214.35,245.77L214.37,242.23L214.67,266.98L214.68,263.44L215.66,266.98L216.09,270.51L216.1,266.98L217.25,270.51L217.71,277.58L218.08,274.05L218.1,277.58L218.63,266.98L218.67,274.05L219.24,277.58L219.27,281.12L220.17,277.58L221.35,274.05L221.37,277.58L223.35,270.51L223.64,266.98L226,263.44L227.13,266.98L228.72,263.44L229.2,259.91L231.51,252.84L231.52,256.37L232.37,245.77L234.21,242.23L234.49,231.63L235.02,228.09L236.09,221.02L236.14,224.56L238.39,199.81L238.47,203.35L238.47,206.88L238.63,196.28L239.22,199.81L239.33,196.28L240.62,192.74L240.77,189.21L241.04,199.81L241.04,203.35L241.21,224.56L241.49,217.49L241.99,213.95L243.04,274.05L243.28,270.51L243.46,266.98L243.47,263.44L244.07,274.05L244.16,270.51L244.35,266.98L245.28,277.58L245.29,274.05L245.29,270.51L246.03,284.65L246.28,281.12L246.28,284.65L246.48,270.51L247.03,281.12L247.28,277.58L247.28,281.12L247.58,277.58L248.27,274.05L248.31,270.51L249.12,274.05L249.62,266.98L250.26,263.44L251.12,256.37L251.12,259.91L251.99,252.84L251.99,256.37L253.46,245.77L254.4,249.3L258.05,245.77L258.15,242.23L258.4,238.7L258.71,242.23L260.31,238.7L261.25,231.63L261.6,228.09L261.99,224.56L263.58,221.02L264.02,210.42L264.23,221.02L264.23,224.56L265.45,206.88L267.52,203.35L267.59,196.28L268.62,192.74L270.26,185.67L270.3,189.21L270.32,213.95L270.94,199.81L271.23,196.28L271.23,199.81L271.37,196.28L273.51,192.74L275.21,189.21L275.4,185.67L277.15,182.14L277.15,185.67L277.16,182.14L277.16,185.67L278.12,182.14L278.31,178.6L278.99,182.14L279.94,196.28L280.15,199.81L281.69,196.28L282.22,199.81L283.6,192.74L284.3,189.21L284.3,192.74L285.1,189.21L285.21,182.14L286.36,185.67L286.93,228.09L289.49,224.56L289.97,228.09L290.37,224.56L290.39,228.09L293.21,224.56L293.91,231.63L293.95,228.09L294.05,224.56L294.31,228.09L295,231.63L295.18,224.56L295.18,228.09L297.54,224.56L297.55,221.02L298.34,217.49L300.37,213.95L300.89,210.42L301.05,199.81L301.09,217.49L301.45,210.42L301.91,213.95L302.38,221.02L302.6,217.49L302.86,213.95L303.66,259.91L303.89,256.37L304.87,245.77L305.5,242.23L306.5,224.56L307.46,221.02L308.36,217.49L308.47,213.95L309.31,203.35L309.35,206.88L310.32,168L312.52,164.47L314.44,160.93L314.44,157.4L317.83,160.93L317.9,157.4L319.17,153.86L319.58,150.33L321.6,136.19L321.6,132.65L321.74,125.58L322.13,199.81L322.45,196.28L322.89,192.74L322.91,203.35L323.16,199.81L323.31,196.28L324.34,178.6L324.46,182.14L326.8,178.6L327.3,175.07L327.59,178.6L328.55,175.07L328.94,178.6L330.11,175.07L331.56,178.6L331.59,189.21L332.24,185.67L332.95,189.21L333.39,210.42L333.81,213.95L333.95,210.42L334.25,221.02L334.45,217.49L334.84,221.02L335.4,217.49L336.23,206.88L337.12,203.35L337.34,196.28L337.98,192.74L338.84,199.81L339.25,196.28L339.25,199.81L339.96,196.28L340.24,199.81L340.24,206.88L340.8,203.35L342.14,199.81L342.35,192.74L342.79,203.35L342.81,203.35L342.81,206.88L343.45,199.81L343.67,196.28L344.46,189.21L344.48,192.74L347.56,189.21L347.95,192.74L349.33,189.21L349.77,185.67L349.78,189.21L350.53,192.74L350.82,189.21L350.9,196.28L351.65,192.74L352.76,182.14L352.76,185.67L353.2,178.6L353.77,175.07L354.2,182.14L354.22,175.07L354.75,178.6L354.75,175.07L355.35,178.6L356.07,175.07L356.21,178.6L356.89,175.07L357.45,171.53L357.66,175.07L358.06,164.47L358.11,171.53L358.9,168L358.94,164.47L359.76,160.93L360.87,157.4L360.97,153.86L361.68,139.72L362.04,136.19L362.16,139.72L363.88,136.19L364.16,132.65L365.23,129.12L365.38,160.93L365.5,160.93L366.97,157.4L367.91,153.86L367.91,157.4L369.76,153.86L369.76,157.4L370.18,153.86L372.61,150.33L372.61,153.86L373.29,153.86L373.89,150.33L374.64,136.19L374.71,139.72L375.89,136.19L375.99,129.12L376.43,150.33L376.8,146.79L377.03,150.33L378,146.79L378.82,132.65L379.04,129.12L379.62,146.79L379.73,136.19L379.92,132.65L380.63,153.86L380.87,150.33L381.71,185.67L381.78,182.14L382.5,203.35L382.87,199.81L383.67,203.35L386.12,199.81L386.73,189.21L386.75,192.74L387,196.28L390.55,192.74L390.57,196.28L391.29,189.21L392.19,192.74L393.32,189.21L394.24,185.67L394.24,189.21L396.09,185.67L396.24,178.6L397.26,182.14L397.81,171.53L397.81,168L397.82,157.4L401.58,160.93L402.66,146.79L404.78,143.26L405.28,136.19L405.28,139.72L405.28,143.26L407.37,136.19L407.83,132.65L410.6,125.58L410.79,122.05L411.37,118.51L411.37,122.05L411.54,125.58L412.14,143.26L412.27,139.72L412.88,136.19L412.92,139.72L413.24,122.05L413.65,118.51L413.83,107.91L414.03,118.51L414.03,122.05L414.04,129.12L414.68,114.98L414.8,111.44L415.09,107.91L415.19,118.51L415.21,122.05L415.26,118.51L415.92,132.65L415.97,129.12L416.05,125.58L416.06,139.72L416.69,136.19L416.95,132.65L417.68,129.12L417.69,125.58L418.12,146.79L418.61,139.72L418.64,136.19L419.04,114.98L419.22,153.86L419.53,150.33L419.97,129.12L420.12,143.26L420.12,146.79L420.18,153.86L420.74,143.26L420.78,146.79L421.39,143.26L421.53,153.86L422.1,136.19L422.17,132.65L422.23,136.19L422.61,114.98L422.61,111.44L422.65,100.84L422.78,160.93L423.1,146.79L423.51,143.26L423.93,136.19L424.03,143.26L424.17,146.79L424.82,139.72L425.08,143.26L425.61,153.86L425.79,146.79L425.89,150.33L426.24,143.26L426.62,160.93L426.74,157.4L426.75,164.47L427.05,146.79L427.22,160.93L427.63,157.4L428.29,175.07L428.88,171.53L429.23,175.07L429.24,168L429.62,164.47L429.87,146.79L430.59,150.33L430.73,168L431.04,143.26L431.21,150.33L431.37,153.86L431.6,150.33L431.76,160.93L432.93,157.4L433.06,164.47L433.23,157.4L433.89,153.86L434.05,157.4L434.23,150.33L434.57,146.79L434.61,157.4L435.01,150.33L435.71,146.79L436.22,143.26L436.22,146.79L436.23,150.33L436.76,143.26L436.76,139.72L436.77,136.19L436.8,150.33L436.94,139.72L437.79,136.19L438.03,125.58L438.15,139.72L438.23,143.26L438.95,171.53L439.21,164.47L439.21,160.93L439.57,157.4L439.57,164.47L439.57,168L439.57,164.47L439.58,175.07L440.17,171.53L440.4,168L440.64,171.53L440.9,157.4L441.02,160.93L441.04,157.4L441.49,182.14L441.79,164.47L441.85,160.93L441.85,157.4L441.87,182.14L442.57,164.47L442.72,160.93L442.86,168L443.2,150.33L443.47,153.86L444,185.67L444.17,182.14L444.59,185.67L445.03,168L445.32,171.53L445.57,168L445.57,171.53L446.02,164.47L446.02,164.47L447.13,160.93L447.73,153.86L447.73,157.4L448.54,153.86L448.59,150.33L448.62,178.6L449.03,175.07L449.57,178.6L449.69,182.14L449.83,168L449.83,168L449.85,164.47L450.27,153.86L450.59,171.53L450.67,168L450.92,160.93L451.27,185.67L451.27,182.14L451.57,185.67L451.88,175.07L452.16,182.14L452.47,185.67L452.83,189.21L453.17,175.07L453.17,178.6L453.57,175.07L454.66,164.47L454.99,168L455.02,164.47L455.15,178.6L455.59,178.6L455.88,175.07L455.89,178.6L456.16,171.53L456.41,178.6L456.71,175.07L457.02,189.21L457.28,182.14L457.6,185.67L458.26,178.6L458.26,182.14L458.51,178.6L458.68,168L458.69,182.14L458.87,175.07L459.58,178.6L459.58,175.07L460.12,189.21L460.53,185.67L460.83,182.14L460.84,189.21L461.12,185.67L461.41,182.14L462.09,178.6L462.09,182.14L462.25,185.67L462.27,182.14L462.41,199.81L462.8,196.28L462.94,199.81L463.09,189.21L463.7,196.28L463.81,199.81L464.52,182.14L464.53,196.28L464.53,199.81L464.53,196.28L464.67,203.35L465.25,199.81L465.51,196.28L465.51,203.35L466.24,203.35L466.27,199.81L466.8,210.42L466.81,206.88L467.1,203.35L467.94,199.81L468.07,203.35L468.86,196.28L468.87,192.74L468.97,213.95L469.52,203.35L469.67,199.81L470.4,213.95L470.4,210.42L470.49,213.95L470.68,203.35L470.81,206.88L471.36,203.35L471.36,206.88L472.1,192.74L472.1,199.81L472.12,196.28L472.12,192.74L472.51,206.88L472.86,199.81L472.92,196.28L473.54,192.74L473.8,196.28L473.8,199.81L473.82,192.74L473.84,196.28L474.79,192.74L474.79,196.28L475.39,189.21L475.4,192.74L475.55,189.21L476.52,178.6L476.52,182.14L476.64,185.67L476.94,178.6L477.85,182.14L477.93,185.67L478.48,178.6L478.48,182.14L478.53,178.6L479.06,196.28L479.09,196.28L479.49,192.74L479.51,199.81L480.22,185.67L480.35,182.14L480.51,178.6L480.52,192.74L480.81,185.67L480.83,189.21L481.48,185.67L481.48,189.21L481.85,185.67L481.85,189.21L482.07,178.6L482.09,189.21L482.77,185.67L482.91,203.35L483.51,196.28L483.54,199.81L483.56,192.74L484.2,213.95L484.97,210.42L485.37,213.95L485.4,210.42L486.06,206.88L486.61,213.95L487.39,210.42L487.83,203.35L488.24,206.88L488.32,210.42L488.68,203.35L488.68,206.88L488.74,210.42L488.77,213.95L488.79,206.88L488.91,210.42L489.47,206.88L489.47,210.42L489.89,199.81L489.96,203.35L490.65,206.88L490.78,199.81L491.27,206.88L492.14,203.35L493.01,199.81L493.01,203.35L493.01,199.81L493.05,206.88L493.61,206.88L494.49,203.35L494.6,196.28L494.62,206.88L494.76,199.81L495.6,203.35L496.19,189.21L496.52,185.67L497.04,189.21L497.21,185.67L497.21,182.14L497.86,168L497.86,189.21L497.96,185.67L498.21,182.14L498.49,178.6L498.5,185.67L498.5,189.21L499.09,185.67L499.33,189.21L499.45,185.67L499.76,196.28L500.42,199.81L500.9,192.74L501.02,199.81L501.02,203.35L501.02,199.81L501.42,210.42L501.71,210.42L501.86,206.88L502.48,203.35L502.56,206.88L502.59,210.42L502.78,199.81L502.93,203.35L503.58,199.81L504.44,210.42L504.48,206.88L504.72,210.42L505.15,203.35L505.42,206.88L505.75,196.28L505.84,203.35L506.62,199.81L507.01,206.88L507.08,196.28L507.43,192.74L508,185.67L508.02,199.81L508.12,203.35L508.74,192.74L509.31,189.21L510.08,182.14L510.48,185.67L510.48,189.21L511.45,185.67L511.7,192.74L512.15,178.6L512.15,192.74L512.2,189.21L513.01,185.67L514.42,182.14L515.59,168L515.7,171.53L515.7,178.6L515.87,168L515.91,168L518.14,171.53L518.54,164.47L518.57,189.21L518.84,185.67L518.85,189.21L518.85,192.74L518.97,189.21L519.69,185.67L519.98,189.21L519.99,182.14L519.99,185.67L520.57,182.14L520.7,168L520.97,178.6L521.41,182.14L522,168L522.44,164.47L522.57,168L522.73,160.93L522.73,168L524.65,164.47L524.65,168L526.45,164.47L527.86,150.33L528.02,146.79L528.08,139.72L528.08,150.33L528.54,146.79L528.88,143.26L530.42,136.19L530.65,132.65L530.66,136.19L531.15,125.58L532.31,122.05L532.97,107.91L532.97,104.37L532.97,107.91L533.57,86.7L533.67,86.7L533.94,83.16L533.94,86.7L534.39,69.02L534.68,69.02L534.8,65.49L534.8,69.02L535.55,58.42L535.64,61.95L536.4,44.28L538.73,40.74L540,16" style="fill: rgb(44, 160, 44); fill-opacity: 0.5; stroke-width: 0;"/></g></g><g class="errorbars"/><g class="lines"><path class="js-line" d="M0,316.47L0.1,320L1.04,316.47L1.72,320L1.83,316.47L1.83,320L3.09,316.47L3.84,320L4.71,316.47L4.71,320L4.81,320L5.55,316.47L5.55,320L6.14,320L6.98,316.47L6.98,320L7.56,320L9.1,316.47L9.1,320L9.75,316.47L9.96,320L11.68,316.47L11.68,320L14.54,316.47L14.54,320L21.95,316.47L21.95,320L22.15,316.47L22.15,320L23.77,316.47L23.77,312.93L23.91,316.47L25.06,320L26.77,316.47L26.77,320L28.09,312.93L28.09,316.47L28.09,320L30.93,316.47L30.93,320L31.08,320L32.33,316.47L32.33,320L32.93,320L33.82,316.47L33.82,320L34.6,316.47L34.6,320L35.35,316.47L35.44,320L38.05,312.93L38.49,316.47L38.61,312.93L38.61,316.47L39.91,320L40.64,316.47L40.64,320L42.35,316.47L42.35,320L43.45,316.47L43.45,320L43.94,305.86L44.05,309.4L44.58,312.93L45.02,316.47L45.46,312.93L45.47,316.47L46.73,312.93L50.6,309.4L50.6,312.93L50.89,316.47L51.69,312.93L52.6,320L54.02,316.47L54.42,320L57.57,316.47L57.58,320L57.58,316.47L59.08,312.93L59.41,316.47L60.2,312.93L60.97,309.4L61,312.93L61.01,309.4L61.58,320L63.43,316.47L63.73,320L64.41,316.47L64.57,312.93L65.54,316.47L65.72,309.4L65.84,312.93L66.68,316.47L66.99,312.93L66.99,316.47L67.54,312.93L67.62,305.86L67.73,320L67.81,320L68.4,316.47L69.26,312.93L69.26,316.47L69.99,309.4L70,312.93L70.7,309.4L75.24,305.86L75.71,302.33L77.4,320L78.4,316.47L78.4,320L79.38,316.47L80.58,312.93L80.64,316.47L81.71,309.4L82.12,305.86L82.63,302.33L82.63,305.86L82.66,309.4L83.8,302.33L83.82,305.86L84.65,302.33L84.65,305.86L84.94,309.4L85.52,305.86L85.52,309.4L85.52,305.86L87.34,309.4L87.52,305.86L87.52,309.4L88.42,305.86L88.65,309.4L89.38,305.86L89.84,302.33L90.61,305.86L91.33,302.33L91.63,305.86L93.9,302.33L93.9,305.86L94.49,302.33L94.52,305.86L95.9,309.4L96.41,305.86L96.61,309.4L96.76,305.86L96.76,309.4L97.78,305.86L97.79,284.65L98.49,302.33L98.77,305.86L98.77,309.4L98.93,302.33L99.33,302.33L99.92,298.79L100.63,302.33L100.81,298.79L101.34,291.72L101.5,298.79L101.6,302.33L102.22,288.19L102.35,295.26L103.32,298.79L103.75,288.19L103.75,288.19L104.29,291.72L105.34,274.05L106.3,270.51L107.33,274.05L107.61,270.51L108.34,277.58L108.46,274.05L108.76,288.19L108.89,284.65L109.55,281.12L110.05,266.98L110.05,270.51L110.44,274.05L110.47,277.58L111.33,274.05L111.45,270.51L111.47,274.05L112.76,277.58L112.88,291.72L113.46,288.19L113.47,284.65L113.48,291.72L114.58,288.19L114.58,291.72L116.74,288.19L116.74,284.65L116.75,291.72L118.73,288.19L118.75,291.72L118.75,288.19L119.82,291.72L119.87,288.19L121.72,284.65L122.56,291.72L122.57,288.19L122.72,291.72L122.88,288.19L122.89,291.72L123.72,288.19L124.04,291.72L124.75,288.19L124.78,291.72L126.41,288.19L126.44,291.72L128.29,288.19L128.39,291.72L128.79,288.19L129.27,284.65L129.4,288.19L130.29,284.65L130.29,288.19L130.7,274.05L130.84,274.05L131.23,270.51L131.58,288.19L131.58,288.19L132.57,284.65L132.68,291.72L132.86,291.72L133.56,288.19L134.54,284.65L134.66,281.12L135.23,284.65L135.41,281.12L135.51,277.58L136.24,270.51L136.27,274.05L136.58,270.51L136.8,274.05L137.25,270.51L137.26,266.98L137.26,256.37L137.41,277.58L138.68,274.05L138.8,270.51L138.81,274.05L140.25,270.51L141.02,284.65L142.23,281.12L142.64,284.65L144.25,281.12L145.33,277.58L145.34,281.12L146.66,270.51L146.67,274.05L146.92,277.58L146.95,281.12L147.35,274.05L147.35,277.58L147.68,274.05L147.68,277.58L148.67,281.12L148.84,288.19L149.55,284.65L149.65,281.12L151.25,277.58L151.79,266.98L151.8,270.51L151.8,274.05L151.86,284.65L153.66,281.12L153.76,284.65L153.8,281.12L155.39,277.58L155.4,281.12L156.77,277.58L156.77,281.12L157.19,277.58L157.65,274.05L158.33,270.51L158.37,274.05L161.23,277.58L164.27,270.51L165.01,266.98L165.79,270.51L166.49,266.98L166.5,270.51L169.18,266.98L169.64,270.51L170.25,266.98L171.47,263.44L171.72,266.98L171.72,263.44L171.76,291.72L171.76,288.19L174.15,284.65L174.17,288.19L176.51,291.72L177.61,288.19L177.61,291.72L178.24,288.19L178.27,291.72L180.49,288.19L180.64,284.65L182.03,288.19L182.04,291.72L182.63,263.44L182.72,266.98L182.72,263.44L182.75,277.58L184.27,274.05L184.6,263.44L186.27,259.91L186.77,256.37L186.78,259.91L188.98,256.37L189.47,259.91L190.8,256.37L191.1,259.91L191.4,256.37L193.59,252.84L196.58,249.3L196.68,252.84L197.59,249.3L198.28,252.84L198.32,245.77L198.54,249.3L199.43,252.84L199.69,266.98L200.51,270.51L200.59,274.05L200.69,266.98L204.13,263.44L204.69,266.98L205.38,263.44L205.53,259.91L207.68,256.37L210.64,252.84L212.23,249.3L212.25,245.77L213.57,242.23L214.35,245.77L214.37,242.23L214.67,266.98L214.68,263.44L215.66,266.98L216.09,270.51L216.1,266.98L217.25,270.51L217.71,277.58L218.08,274.05L218.1,277.58L218.63,266.98L218.67,274.05L219.24,277.58L219.27,281.12L220.17,277.58L221.35,274.05L221.37,277.58L223.35,270.51L223.64,266.98L226,263.44L227.13,266.98L228.72,263.44L229.2,259.91L231.51,252.84L231.52,256.37L232.37,245.77L234.21,242.23L234.49,231.63L235.02,228.09L236.09,221.02L236.14,224.56L238.39,199.81L238.47,203.35L238.47,206.88L238.63,196.28L239.22,199.81L239.33,196.28L240.62,192.74L240.77,189.21L241.04,199.81L241.04,203.35L241.21,224.56L241.49,217.49L241.99,213.95L243.04,274.05L243.28,270.51L243.46,266.98L243.47,263.44L244.07,274.05L244.16,270.51L244.35,266.98L245.28,277.58L245.29,274.05L245.29,270.51L246.03,284.65L246.28,281.12L246.28,284.65L246.48,270.51L247.03,281.12L247.28,277.58L247.28,281.12L247.58,277.58L248.27,274.05L248.31,270.51L249.12,274.05L249.62,266.98L250.26,263.44L251.12,256.37L251.12,259.91L251.99,252.84L251.99,256.37L253.46,245.77L254.4,249.3L258.05,245.77L258.15,242.23L258.4,238.7L258.71,242.23L260.31,238.7L261.25,231.63L261.6,228.09L261.99,224.56L263.58,221.02L264.02,210.42L264.23,221.02L264.23,224.56L265.45,206.88L267.52,203.35L267.59,196.28L268.62,192.74L270.26,185.67L270.3,189.21L270.32,213.95L270.94,199.81L271.23,196.28L271.23,199.81L271.37,196.28L273.51,192.74L275.21,189.21L275.4,185.67L277.15,182.14L277.15,185.67L277.16,182.14L277.16,185.67L278.12,182.14L278.31,178.6L278.99,182.14L279.94,196.28L280.15,199.81L281.69,196.28L282.22,199.81L283.6,192.74L284.3,189.21L284.3,192.74L285.1,189.21L285.21,182.14L286.36,185.67L286.93,228.09L289.49,224.56L289.97,228.09L290.37,224.56L290.39,228.09L293.21,224.56L293.91,231.63L293.95,228.09L294.05,224.56L294.31,228.09L295,231.63L295.18,224.56L295.18,228.09L297.54,224.56L297.55,221.02L298.34,217.49L300.37,213.95L300.89,210.42L301.05,199.81L301.09,217.49L301.45,210.42L301.91,213.95L302.38,221.02L302.6,217.49L302.86,213.95L303.66,259.91L303.89,256.37L304.87,245.77L305.5,242.23L306.5,224.56L307.46,221.02L308.36,217.49L308.47,213.95L309.31,203.35L309.35,206.88L310.32,168L312.52,164.47L314.44,160.93L314.44,157.4L317.83,160.93L317.9,157.4L319.17,153.86L319.58,150.33L321.6,136.19L321.6,132.65L321.74,125.58L322.13,199.81L322.45,196.28L322.89,192.74L322.91,203.35L323.16,199.81L323.31,196.28L324.34,178.6L324.46,182.14L326.8,178.6L327.3,175.07L327.59,178.6L328.55,175.07L328.94,178.6L330.11,175.07L331.56,178.6L331.59,189.21L332.24,185.67L332.95,189.21L333.39,210.42L333.81,213.95L333.95,210.42L334.25,221.02L334.45,217.49L334.84,221.02L335.4,217.49L336.23,206.88L337.12,203.35L337.34,196.28L337.98,192.74L338.84,199.81L339.25,196.28L339.25,199.81L339.96,196.28L340.24,199.81L340.24,206.88L340.8,203.35L342.14,199.81L342.35,192.74L342.79,203.35L342.81,203.35L342.81,206.88L343.45,199.81L343.67,196.28L344.46,189.21L344.48,192.74L347.56,189.21L347.95,192.74L349.33,189.21L349.77,185.67L349.78,189.21L350.53,192.74L350.82,189.21L350.9,196.28L351.65,192.74L352.76,182.14L352.76,185.67L353.2,178.6L353.77,175.07L354.2,182.14L354.22,175.07L354.75,178.6L354.75,175.07L355.35,178.6L356.07,175.07L356.21,178.6L356.89,175.07L357.45,171.53L357.66,175.07L358.06,164.47L358.11,171.53L358.9,168L358.94,164.47L359.76,160.93L360.87,157.4L360.97,153.86L361.68,139.72L362.04,136.19L362.16,139.72L363.88,136.19L364.16,132.65L365.23,129.12L365.38,160.93L365.5,160.93L366.97,157.4L367.91,153.86L367.91,157.4L369.76,153.86L369.76,157.4L370.18,153.86L372.61,150.33L372.61,153.86L373.29,153.86L373.89,150.33L374.64,136.19L374.71,139.72L375.89,136.19L375.99,129.12L376.43,150.33L376.8,146.79L377.03,150.33L378,146.79L378.82,132.65L379.04,129.12L379.62,146.79L379.73,136.19L379.92,132.65L380.63,153.86L380.87,150.33L381.71,185.67L381.78,182.14L382.5,203.35L382.87,199.81L383.67,203.35L386.12,199.81L386.73,189.21L386.75,192.74L387,196.28L390.55,192.74L390.57,196.28L391.29,189.21L392.19,192.74L393.32,189.21L394.24,185.67L394.24,189.21L396.09,185.67L396.24,178.6L397.26,182.14L397.81,171.53L397.81,168L397.82,157.4L401.58,160.93L402.66,146.79L404.78,143.26L405.28,136.19L405.28,139.72L405.28,143.26L407.37,136.19L407.83,132.65L410.6,125.58L410.79,122.05L411.37,118.51L411.37,122.05L411.54,125.58L412.14,143.26L412.27,139.72L412.88,136.19L412.92,139.72L413.24,122.05L413.65,118.51L413.83,107.91L414.03,118.51L414.03,122.05L414.04,129.12L414.68,114.98L414.8,111.44L415.09,107.91L415.19,118.51L415.21,122.05L415.26,118.51L415.92,132.65L415.97,129.12L416.05,125.58L416.06,139.72L416.69,136.19L416.95,132.65L417.68,129.12L417.69,125.58L418.12,146.79L418.61,139.72L418.64,136.19L419.04,114.98L419.22,153.86L419.53,150.33L419.97,129.12L420.12,143.26L420.12,146.79L420.18,153.86L420.74,143.26L420.78,146.79L421.39,143.26L421.53,153.86L422.1,136.19L422.17,132.65L422.23,136.19L422.61,114.98L422.61,111.44L422.65,100.84L422.78,160.93L423.1,146.79L423.51,143.26L423.93,136.19L424.03,143.26L424.17,146.79L424.82,139.72L425.08,143.26L425.61,153.86L425.79,146.79L425.89,150.33L426.24,143.26L426.62,160.93L426.74,157.4L426.75,164.47L427.05,146.79L427.22,160.93L427.63,157.4L428.29,175.07L428.88,171.53L429.23,175.07L429.24,168L429.62,164.47L429.87,146.79L430.59,150.33L430.73,168L431.04,143.26L431.21,150.33L431.37,153.86L431.6,150.33L431.76,160.93L432.93,157.4L433.06,164.47L433.23,157.4L433.89,153.86L434.05,157.4L434.23,150.33L434.57,146.79L434.61,157.4L435.01,150.33L435.71,146.79L436.22,143.26L436.22,146.79L436.23,150.33L436.76,143.26L436.76,139.72L436.77,136.19L436.8,150.33L436.94,139.72L437.79,136.19L438.03,125.58L438.15,139.72L438.23,143.26L438.95,171.53L439.21,164.47L439.21,160.93L439.57,157.4L439.57,164.47L439.57,168L439.57,164.47L439.58,175.07L440.17,171.53L440.4,168L440.64,171.53L440.9,157.4L441.02,160.93L441.04,157.4L441.49,182.14L441.79,164.47L441.85,160.93L441.85,157.4L441.87,182.14L442.57,164.47L442.72,160.93L442.86,168L443.2,150.33L443.47,153.86L444,185.67L444.17,182.14L444.59,185.67L445.03,168L445.32,171.53L445.57,168L445.57,171.53L446.02,164.47L446.02,164.47L447.13,160.93L447.73,153.86L447.73,157.4L448.54,153.86L448.59,150.33L448.62,178.6L449.03,175.07L449.57,178.6L449.69,182.14L449.83,168L449.83,168L449.85,164.47L450.27,153.86L450.59,171.53L450.67,168L450.92,160.93L451.27,185.67L451.27,182.14L451.57,185.67L451.88,175.07L452.16,182.14L452.47,185.67L452.83,189.21L453.17,175.07L453.17,178.6L453.57,175.07L454.66,164.47L454.99,168L455.02,164.47L455.15,178.6L455.59,178.6L455.88,175.07L455.89,178.6L456.16,171.53L456.41,178.6L456.71,175.07L457.02,189.21L457.28,182.14L457.6,185.67L458.26,178.6L458.26,182.14L458.51,178.6L458.68,168L458.69,182.14L458.87,175.07L459.58,178.6L459.58,175.07L460.12,189.21L460.53,185.67L460.83,182.14L460.84,189.21L461.12,185.67L461.41,182.14L462.09,178.6L462.09,182.14L462.25,185.67L462.27,182.14L462.41,199.81L462.8,196.28L462.94,199.81L463.09,189.21L463.7,196.28L463.81,199.81L464.52,182.14L464.53,196.28L464.53,199.81L464.53,196.28L464.67,203.35L465.25,199.81L465.51,196.28L465.51,203.35L466.24,203.35L466.27,199.81L466.8,210.42L466.81,206.88L467.1,203.35L467.94,199.81L468.07,203.35L468.86,196.28L468.87,192.74L468.97,213.95L469.52,203.35L469.67,199.81L470.4,213.95L470.4,210.42L470.49,213.95L470.68,203.35L470.81,206.88L471.36,203.35L471.36,206.88L472.1,192.74L472.1,199.81L472.12,196.28L472.12,192.74L472.51,206.88L472.86,199.81L472.92,196.28L473.54,192.74L473.8,196.28L473.8,199.81L473.82,192.74L473.84,196.28L474.79,192.74L474.79,196.28L475.39,189.21L475.4,192.74L475.55,189.21L476.52,178.6L476.52,182.14L476.64,185.67L476.94,178.6L477.85,182.14L477.93,185.67L478.48,178.6L478.48,182.14L478.53,178.6L479.06,196.28L479.09,196.28L479.49,192.74L479.51,199.81L480.22,185.67L480.35,182.14L480.51,178.6L480.52,192.74L480.81,185.67L480.83,189.21L481.48,185.67L481.48,189.21L481.85,185.67L481.85,189.21L482.07,178.6L482.09,189.21L482.77,185.67L482.91,203.35L483.51,196.28L483.54,199.81L483.56,192.74L484.2,213.95L484.97,210.42L485.37,213.95L485.4,210.42L486.06,206.88L486.61,213.95L487.39,210.42L487.83,203.35L488.24,206.88L488.32,210.42L488.68,203.35L488.68,206.88L488.74,210.42L488.77,213.95L488.79,206.88L488.91,210.42L489.47,206.88L489.47,210.42L489.89,199.81L489.96,203.35L490.65,206.88L490.78,199.81L491.27,206.88L492.14,203.35L493.01,199.81L493.01,203.35L493.01,199.81L493.05,206.88L493.61,206.88L494.49,203.35L494.6,196.28L494.62,206.88L494.76,199.81L495.6,203.35L496.19,189.21L496.52,185.67L497.04,189.21L497.21,185.67L497.21,182.14L497.86,168L497.86,189.21L497.96,185.67L498.21,182.14L498.49,178.6L498.5,185.67L498.5,189.21L499.09,185.67L499.33,189.21L499.45,185.67L499.76,196.28L500.42,199.81L500.9,192.74L501.02,199.81L501.02,203.35L501.02,199.81L501.42,210.42L501.71,210.42L501.86,206.88L502.48,203.35L502.56,206.88L502.59,210.42L502.78,199.81L502.93,203.35L503.58,199.81L504.44,210.42L504.48,206.88L504.72,210.42L505.15,203.35L505.42,206.88L505.75,196.28L505.84,203.35L506.62,199.81L507.01,206.88L507.08,196.28L507.43,192.74L508,185.67L508.02,199.81L508.12,203.35L508.74,192.74L509.31,189.21L510.08,182.14L510.48,185.67L510.48,189.21L511.45,185.67L511.7,192.74L512.15,178.6L512.15,192.74L512.2,189.21L513.01,185.67L514.42,182.14L515.59,168L515.7,171.53L515.7,178.6L515.87,168L515.91,168L518.14,171.53L518.54,164.47L518.57,189.21L518.84,185.67L518.85,189.21L518.85,192.74L518.97,189.21L519.69,185.67L519.98,189.21L519.99,182.14L519.99,185.67L520.57,182.14L520.7,168L520.97,178.6L521.41,182.14L522,168L522.44,164.47L522.57,168L522.73,160.93L522.73,168L524.65,164.47L524.65,168L526.45,164.47L527.86,150.33L528.02,146.79L528.08,139.72L528.08,150.33L528.54,146.79L528.88,143.26L530.42,136.19L530.65,132.65L530.66,136.19L531.15,125.58L532.31,122.05L532.97,107.91L532.97,104.37L532.97,107.91L533.57,86.7L533.67,86.7L533.94,83.16L533.94,86.7L534.39,69.02L534.68,69.02L534.8,65.49L534.8,69.02L535.55,58.42L535.64,61.95L536.4,44.28L538.73,40.74L540,16" style="vector-effect: none; fill: none; stroke: rgb(44, 160, 44); stroke-opacity: 1; stroke-width: 2px; opacity: 1;"/></g><g class="points"/><g class="text"/></g></g></g></g><g class="zerolinelayer-above"/><path class="xlines-above crisp" d="M0,0" style="fill: none;"/><path class="ylines-above crisp" d="M0,0" style="fill: none;"/><g class="overlines-above"/><g class="xaxislayer-above"><g class="xtick"><text text-anchor="middle" x="0" y="439" transform="translate(97.02,0)" style="font-family: 'Open Sans'; font-size: 18px; fill: rgb(255, 255, 255); fill-opacity: 1; white-space: pre;">2016</text></g><g class="xtick"><text text-anchor="middle" x="0" y="439" style="font-family: 'Open Sans'; font-size: 18px; fill: rgb(255, 255, 255); fill-opacity: 1; white-space: pre;" transform="translate(201.22,0)">2018</text></g><g class="xtick"><text text-anchor="middle" x="0" y="439" style="font-family: 'Open Sans'; font-size: 18px; fill: rgb(255, 255, 255); fill-opacity: 1; white-space: pre;" transform="translate(305.27,0)">2020</text></g><g class="xtick"><text text-anchor="middle" x="0" y="439" style="font-family: 'Open Sans'; font-size: 18px; fill: rgb(255, 255, 255); fill-opacity: 1; white-space: pre;" transform="translate(409.47,0)">2022</text></g><g class="xtick"><text text-anchor="middle" x="0" y="439" style="font-family: 'Open Sans'; font-size: 18px; fill: rgb(255, 255, 255); fill-opacity: 1; white-space: pre;" transform="translate(513.52,0)">2024</text></g><g class="xtick"><text text-anchor="middle" x="0" y="439" style="font-family: 'Open Sans'; font-size: 18px; fill: rgb(255, 255, 255); fill-opacity: 1; white-space: pre;" transform="translate(617.72,0)">2026</text></g></g><g class="yaxislayer-above"><g class="ytick"><text text-anchor="end" x="79" y="6.3" transform="translate(0,420)" style="font-family: 'Open Sans'; font-size: 18px; fill: rgb(255, 255, 255); fill-opacity: 1; white-space: pre;">0</text></g><g class="ytick"><text text-anchor="end" x="79" y="6.3" style="font-family: 'Open Sans'; font-size: 18px; fill: rgb(255, 255, 255); fill-opacity: 1; white-space: pre;" transform="translate(0,349.3)">20</text></g><g class="ytick"><text text-anchor="end" x="79" y="6.3" style="font-family: 'Open Sans'; font-size: 18px; fill: rgb(255, 255, 255); fill-opacity: 1; white-space: pre;" transform="translate(0,278.6)">40</text></g><g class="ytick"><text text-anchor="end" x="79" y="6.3" style="font-family: 'Open Sans'; font-size: 18px; fill: rgb(255, 255, 255); fill-opacity: 1; white-space: pre;" transform="translate(0,207.91)">60</text></g><g class="ytick"><text text-anchor="end" x="79" y="6.3" style="font-family: 'Open Sans'; font-size: 18px; fill: rgb(255, 255, 255); fill-opacity: 1; white-space: pre;" transform="translate(0,137.21)">80</text></g></g><g class="overaxes-above"/></g></g><g class="polarlayer"/><g class="smithlayer"/><g class="ternarylayer"/><g class="geolayer"/><g class="funnelarealayer"/><g class="pielayer"/><g class="iciclelayer"/><g class="treemaplayer"/><g class="sunburstlayer"/><g class="glimages"/><defs id="topdefs-83699d"><g class="clips"/></defs><g class="layer-above"><g class="imagelayer"/><g class="shapelayer"/></g><g class="infolayer"><g class="g-gtitle"><text class="gtitle" x="35" y="50" text-anchor="start" dy="0em" style="opacity: 1; font-family: 'Open Sans'; font-size: 25px; fill: rgb(255, 255, 255); fill-opacity: 1; white-space: pre;">MultiQC/MultiQC - Open Pull Requests Over Time</text></g><g class="g-xtitle"><text class="xtitle" x="350" y="472.9" text-anchor="middle" style="opacity: 1; font-family: 'Open Sans'; font-size: 22px; fill: rgb(255, 255, 255); fill-opacity: 1; white-space: pre;">Date</text></g><g class="g-ytitle"><text class="ytitle" transform="rotate(-90,38.8,260)" x="38.8" y="260" text-anchor="middle" style="opacity: 1; font-family: 'Open Sans'; font-size: 22px; fill: rgb(255, 255, 255); fill-opacity: 1; white-space: pre;">Number of Open PRs</text></g></g></svg>