<svg class="main-svg" xmlns="http://www.w3.org/2000/svg" xmlns:xlink="http://www.w3.org/1999/xlink" width="700" height="500" style="" viewBox="0 0 700 500"><rect x="0" y="0" width="700" height="500" style="fill: rgb(0, 0, 0); fill-opacity: 0;"/><defs id="defs-34f2db"><g class="clips"><clipPath id="clip34f2dbxyplot" class="plotclip"><rect width="540" height="320"/></clipPath><clipPath class="axesclip" id="clip34f2dbx"><rect x="80" y="0" width="540" height="500"/></clipPath><clipPath class="axesclip" id="clip34f2dby"><rect x="0" y="100" width="700" height="320"/></clipPath><clipPath class="axesclip" id="clip34f2dbxy"><rect x="80" y="100" width="540" height="320"/></clipPath></g><g class="gradients"/><g class="patterns"/></defs><g class="bglayer"><rect class="bg" x="80" y="100" width="540" height="320" style="fill: rgb(0, 0, 0); fill-opacity: 0; stroke-width: 0;"/></g><g class="layer-below"><g class="imagelayer"/><g class="shapelayer"/></g><g class="cartesianlayer"><g class="subplot xy"><g class="layer-subplot"><g class="shapelayer"/><g class="imagelayer"/></g><g class="minor-gridlayer"><g class="x"/><g class="y"/></g><g class="gridlayer"><g class="x"><path class="xgrid crisp" transform="translate(97.21000000000001,0)" d="M0,100v320" style="stroke: rgb(255, 255, 255); stroke-opacity: 1; stroke-width: 1px;"/><path class="xgrid crisp" transform="translate(202.57,0)" d="M0,100v320" style="stroke: rgb(255, 255, 255); stroke-opacity: 1; stroke-width: 1px;"/><path class="xgrid crisp" transform="translate(307.8,0)" d="M0,100v320" style="stroke: rgb(255, 255, 255); stroke-opacity: 1; stroke-width: 1px;"/><path class="xgrid crisp" transform="translate(413.16,0)" d="M0,100v320" style="stroke: rgb(255, 255, 255); stroke-opacity: 1; stroke-width: 1px;"/><path class="xgrid crisp" transform="translate(518.38,0)" d="M0,100v320" style="stroke: rgb(255, 255, 255); stroke-opacity: 1; stroke-width: 1px;"/></g><g class="y"><path class="ygrid crisp" transform="translate(0,382.19)" d="M80,0h540" style="stroke: rgb(255, 255, 255); stroke-opacity: 1; stroke-width: 1px;"/><path class="ygrid crisp" transform="translate(0,344.38)" d="M80,0h540" style="stroke: rgb(255, 255, 255); stroke-opacity: 1; stroke-width: 1px;"/><path class="ygrid crisp" transform="translate(0,306.57)" d="M80,0h540" style="stroke: rgb(255, 255, 255); stroke-opacity: 1; stroke-width: 1px;"/><path class="ygrid crisp" transform="translate(0,268.76)" d="M80,0h540" style="stroke: rgb(255, 255, 255); stroke-opacity: 1; stroke-width: 1px;"/><path class="ygrid crisp" transform="translate(0,230.95)" d="M80,0h540" style="stroke: rgb(255, 255, 255); stroke-opacity: 1; stroke-width: 1px;"/><path class="ygrid crisp" transform="translate(0,193.13)" d="M80,0h540" style="stroke: rgb(255, 255, 255); stroke-opacity: 1; stroke-width: 1px;"/><path class="ygrid crisp" transform="translate(0,155.32)" d="M80,0h540" style="stroke: rgb(255, 255, 255); stroke-opacity: 1; stroke-width: 1px;"/><path class="ygrid crisp" transform="translate(0,117.51)" d="M80,0h540" style="stroke: rgb(255, 255, 255); stroke-opacity: 1; stroke-width: 1px;"/></g></g><g class="zerolinelayer"><path class="yzl zl crisp" transform="translate(0,420)" d="M80,0h540" style="stroke: rgb(255, 255, 255); stroke-opacity: 1; stroke-width: 2px;"/></g><g class="layer-between"><g class="shapelayer"/><g class="imagelayer"/></g><path class="xlines-below"/><path class="ylines-below"/><g class="overlines-below"/><g class="xaxislayer-below"/><g class="yaxislayer-below"/><g class="overaxes-below"/><g class="overplot"><g class="xy" transform="translate(80,100)" clip-path="url(#clip34f2dbxyplot)"><g class="scatterlayer mlayer"><g class="trace scatter tracee3111d" style="stroke-miterlimit: 2;"><g class="fills"><g><path class="js-fill" d="M540,320L0,320L0,319.81L3.59,318.49L3.89,318.3L5.89,317.16L6.21,316.98L14.7,315.46L22.2,315.27L22.4,315.08L24.04,314.9L24.04,314.71L27.07,314.52L44.39,309.79L44.4,309.6L44.43,309.22L45.38,309.03L45.97,308.66L47.26,308.47L59.74,307.14L60.87,306.96L68.3,304.69L68.35,304.5L69.17,303.55L70.03,303.36L71.49,302.61L76.08,302.42L79.28,301.66L80.27,301.47L84.34,300.15L84.74,299.96L95.55,298.07L97.01,297.88L98.88,296.56L98.88,296.37L99.59,293.91L100,293.72L100.44,293.34L101.04,293.15L102.75,291.83L102.89,291.64L103.5,290.7L104.48,290.51L105.64,289.18L105.76,289L106.52,288.24L107.49,288.05L110.77,286.16L110.78,285.97L111.28,285.4L112.57,285.21L112.7,285.02L114.73,284.84L114.74,284.65L115.86,284.46L123.64,283.13L123.94,282.95L124.26,282.38L125.1,282.19L132.16,280.49L132.16,280.3L133.06,279.54L134.05,279.35L138.11,277.46L138.79,277.27L138.93,276.33L140.24,276.14L140.35,275.95L141.82,275.76L142.37,275.38L143.83,275.19L144.14,274.82L145.86,274.63L155.52,271.41L157.13,271.22L173.67,268.58L173.69,268.39L184.1,267.06L184.1,266.88L184.77,265.74L186.33,265.55L186.67,264.8L188.35,264.61L188.86,264.04L191.1,263.85L215.96,260.64L216.68,260.45L217.09,259.5L218.52,259.31L222.64,258.18L223.83,257.99L236.83,255.53L236.83,255.34L237.65,254.59L237.94,254.4L240.57,253.07L240.82,252.89L241.3,251.75L241.9,251.56L242.01,251.37L243.32,251.18L245.34,249.86L246,249.67L247.32,248.73L248.04,248.54L248.04,248.35L249.04,248.16L250.05,246.46L250.19,246.27L251.09,245.7L251.94,245.51L256.3,243.81L260.94,243.62L261.3,243.24L263.22,243.05L266.98,241.54L267.09,241.35L268.43,240.22L270.52,240.03L270.59,239.65L271.63,239.46L276.58,237.76L278.29,237.57L278.48,237.38L280.26,237.19L280.26,237L281.24,236.82L281.43,236.63L282.82,236.44L288.34,235.3L288.4,235.11L298.31,233.03L298.49,232.85L304.27,231.71L304.41,231.52L304.83,230.96L306,230.77L306.87,229.25L306.89,229.06L309.07,227.36L309.31,227.17L309.94,226.8L310.91,226.61L312.78,225.47L312.86,225.28L313.63,224.34L313.64,224.15L313.8,223.39L316.02,223.2L324.54,221.69L325.2,221.5L325.38,220.75L326.06,220.56L327.97,218.86L330.47,218.67L330.97,218.29L332.24,218.1L340.89,216.4L340.92,216.21L341.77,215.83L343.05,215.64L348.24,213.75L348.32,213.56L355.82,212.43L355.83,212.24L359.32,210.73L360.06,210.54L365.01,208.65L365.05,208.46L366.1,207.7L367.95,207.51L371.08,206.19L372.03,206L378.35,204.68L378.48,204.49L383.46,202.03L383.46,201.84L384.18,200.52L385.14,200.33L387.93,198.63L390.44,198.44L391.06,197.87L394.93,197.68L398.66,196.17L400.53,195.98L400.68,195.6L402.15,195.41L402.28,194.28L406.31,194.09L407.17,193.52L409.32,193.33L413.67,192.2L415.2,192.01L416.88,191.06L417.5,190.88L418.87,188.04L419.32,187.85L419.91,186.15L420.27,185.96L421.17,183.69L421.34,183.5L421.62,182.94L422.31,182.75L424.37,177.07L424.59,176.89L425.34,175.18L425.46,175L426.11,174.43L426.35,174.24L426.98,172.92L426.98,172.73L427.35,171.59L427.38,171.4L427.84,169.13L428.25,168.95L429.58,167.81L429.95,167.62L430.95,166.49L431.01,166.3L431.71,164.98L431.84,164.79L432.71,162.9L433.69,162.71L434.45,161.38L434.45,161.19L434.69,160.82L435.57,160.63L436.46,156.66L436.57,156.47L436.59,156.28L437.78,156.09L438.08,155.52L438.76,155.33L441.76,152.69L441.78,152.5L441.84,152.12L442.7,151.93L444.5,148.53L444.5,148.34L445.34,145.31L445.4,145.12L446.15,141.53L446.43,141.34L447.02,136.24L447.44,136.05L448.46,133.4L449.14,133.21L449.73,132.27L449.74,132.08L451.02,130L452.14,129.81L453.64,127.73L453.75,127.54L456.94,121.3L456.95,121.11L458.2,117.33L458.21,117.14L458.65,116.58L459.11,116.39L460.11,115.44L460.11,115.25L461,113.36L461.11,113.17L462.97,110.34L462.97,110.15L463.87,106.37L463.96,106.18L465.28,103.91L465.69,103.72L466.86,101.64L467.01,101.45L468.2,98.62L468.21,98.43L469.75,95.59L470.19,95.4L472.34,88.79L473.18,88.6L474.14,87.65L474.19,87.46L474.93,85.19L475.06,85L478.22,75.74L478.85,75.55L481.71,72.72L481.71,72.53L482.28,71.58L483.46,71.39L484.43,70.07L484.46,69.88L484.91,68.94L484.91,68.75L485.6,67.42L485.73,67.23L487.47,65.15L488.18,64.97L488.93,63.07L488.96,62.89L489.54,61L490.41,60.81L494.14,58.92L494.16,58.73L496.47,54.19L497.65,54L498.58,53.05L499.02,52.87L500.3,51.35L501.16,51.16L504.08,48.52L504.68,48.33L508.23,45.68L508.25,45.49L509.64,43.6L510.13,43.41L511.51,40.77L512.3,40.58L513.13,39.25L513.69,39.06L515.02,37.74L515.63,37.55L515.79,37.36L517.18,37.17L518.2,33.77L518.44,33.58L521.69,31.5L523.96,31.31L524.66,29.04L524.78,28.86L525.52,28.29L525.81,28.1L526.53,26.78L526.58,26.59L528.59,23.56L530.53,23.37L533.62,22.43L533.78,22.24L534.8,20.92L535.8,20.73L538.79,19.02L538.93,18.84L539.65,17.13L539.92,16.95L540,16" style="fill: rgb(44, 160, 44); fill-opacity: 0.5; stroke-width: 0;"/></g></g><g class="errorbars"/><g class="lines"><path class="js-line" d="M0,319.81L3.59,318.49L3.89,318.3L5.89,317.16L6.21,316.98L14.7,315.46L22.2,315.27L22.4,315.08L24.04,314.9L24.04,314.71L27.07,314.52L44.39,309.79L44.4,309.6L44.43,309.22L45.38,309.03L45.97,308.66L47.26,308.47L59.74,307.14L60.87,306.96L68.3,304.69L68.35,304.5L69.17,303.55L70.03,303.36L71.49,302.61L76.08,302.42L79.28,301.66L80.27,301.47L84.34,300.15L84.74,299.96L95.55,298.07L97.01,297.88L98.88,296.56L98.88,296.37L99.59,293.91L100,293.72L100.44,293.34L101.04,293.15L102.75,291.83L102.89,291.64L103.5,290.7L104.48,290.51L105.64,289.18L105.76,289L106.52,288.24L107.49,288.05L110.77,286.16L110.78,285.97L111.28,285.4L112.57,285.21L112.7,285.02L114.73,284.84L114.74,284.65L115.86,284.46L123.64,283.13L123.94,282.95L124.26,282.38L125.1,282.19L132.16,280.49L132.16,280.3L133.06,279.54L134.05,279.35L138.11,277.46L138.79,277.27L138.93,276.33L140.24,276.14L140.35,275.95L141.82,275.76L142.37,275.38L143.83,275.19L144.14,274.82L145.86,274.63L155.52,271.41L157.13,271.22L173.67,268.58L173.69,268.39L184.1,267.06L184.1,266.88L184.77,265.74L186.33,265.55L186.67,264.8L188.35,264.61L188.86,264.04L191.1,263.85L215.96,260.64L216.68,260.45L217.09,259.5L218.52,259.31L222.64,258.18L223.83,257.99L236.83,255.53L236.83,255.34L237.65,254.59L237.94,254.4L240.57,253.07L240.82,252.89L241.3,251.75L241.9,251.56L242.01,251.37L243.32,251.18L245.34,249.86L246,249.67L247.32,248.73L248.04,248.54L248.04,248.35L249.04,248.16L250.05,246.46L250.19,246.27L251.09,245.7L251.94,245.51L256.3,243.81L260.94,243.62L261.3,243.24L263.22,243.05L266.98,241.54L267.09,241.35L268.43,240.22L270.52,240.03L270.59,239.65L271.63,239.46L276.58,237.76L278.29,237.57L278.48,237.38L280.26,237.19L280.26,237L281.24,236.82L281.43,236.63L282.82,236.44L288.34,235.3L288.4,235.11L298.31,233.03L298.49,232.85L304.27,231.71L304.41,231.52L304.83,230.96L306,230.77L306.87,229.25L306.89,229.06L309.07,227.36L309.31,227.17L309.94,226.8L310.91,226.61L312.78,225.47L312.86,225.28L313.63,224.34L313.64,224.15L313.8,223.39L316.02,223.2L324.54,221.69L325.2,221.5L325.38,220.75L326.06,220.56L327.97,218.86L330.47,218.67L330.97,218.29L332.24,218.1L340.89,216.4L340.92,216.21L341.77,215.83L343.05,215.64L348.24,213.75L348.32,213.56L355.82,212.43L355.83,212.24L359.32,210.73L360.06,210.54L365.01,208.65L365.05,208.46L366.1,207.7L367.95,207.51L371.08,206.19L372.03,206L378.35,204.68L378.48,204.49L383.46,202.03L383.46,201.84L384.18,200.52L385.14,200.33L387.93,198.63L390.44,198.44L391.06,197.87L394.93,197.68L398.66,196.17L400.53,195.98L400.68,195.6L402.15,195.41L402.28,194.28L406.31,194.09L407.17,193.52L409.32,193.33L413.67,192.2L415.2,192.01L416.88,191.06L417.5,190.88L418.87,188.04L419.32,187.85L419.91,186.15L420.27,185.96L421.17,183.69L421.34,183.5L421.62,182.94L422.31,182.75L424.37,177.07L424.59,176.89L425.34,175.18L425.46,175L426.11,174.43L426.35,174.24L426.98,172.92L426.98,172.73L427.35,171.59L427.38,171.4L427.84,169.13L428.25,168.95L429.58,167.81L429.95,167.62L430.95,166.49L431.01,166.3L431.71,164.98L431.84,164.79L432.71,162.9L433.69,162.71L434.45,161.38L434.45,161.19L434.69,160.82L435.57,160.63L436.46,156.66L436.57,156.47L436.59,156.28L437.78,156.09L438.08,155.52L438.76,155.33L441.76,152.69L441.78,152.5L441.84,152.12L442.7,151.93L444.5,148.53L444.5,148.34L445.34,145.31L445.4,145.12L446.15,141.53L446.43,141.34L447.02,136.24L447.44,136.05L448.46,133.4L449.14,133.21L449.73,132.27L449.74,132.08L451.02,130L452.14,129.81L453.64,127.73L453.75,127.54L456.94,121.3L456.95,121.11L458.2,117.33L458.21,117.14L458.65,116.58L459.11,116.39L460.11,115.44L460.11,115.25L461,113.36L461.11,113.17L462.97,110.34L462.97,110.15L463.87,106.37L463.96,106.18L465.28,103.91L465.69,103.72L466.86,101.64L467.01,101.45L468.2,98.62L468.21,98.43L469.75,95.59L470.19,95.4L472.34,88.79L473.18,88.6L474.14,87.65L474.19,87.46L474.93,85.19L475.06,85L478.22,75.74L478.85,75.55L481.71,72.72L481.71,72.53L482.28,71.58L483.46,71.39L484.43,70.07L484.46,69.88L484.91,68.94L484.91,68.75L485.6,67.42L485.73,67.23L487.47,65.15L488.18,64.97L488.93,63.07L488.96,62.89L489.54,61L490.41,60.81L494.14,58.92L494.16,58.73L496.47,54.19L497.65,54L498.58,53.05L499.02,52.87L500.3,51.35L501.16,51.16L504.08,48.52L504.68,48.33L508.23,45.68L508.25,45.49L509.64,43.6L510.13,43.41L511.51,40.77L512.3,40.58L513.13,39.25L513.69,39.06L515.02,37.74L515.63,37.55L515.79,37.36L517.18,37.17L518.2,33.77L518.44,33.58L521.69,31.5L523.96,31.31L524.66,29.04L524.78,28.86L525.52,28.29L525.81,28.1L526.53,26.78L526.58,26.59L528.59,23.56L530.53,23.37L533.62,22.43L533.78,22.24L534.8,20.92L535.8,20.73L538.79,19.02L538.93,18.84L539.65,17.13L539.92,16.95L540,16" style="vector-effect: none; fill: none; stroke: rgb(44, 160, 44); stroke-opacity: 1; stroke-width: 2px; opacity: 1;"/></g><g class="points"/><g class="text"/></g></g></g></g><g class="zerolinelayer-above"/><path class="xlines-above crisp" d="M0,0" style="fill: none;"/><path class="ylines-above crisp" d="M0,0" style="fill: none;"/><g class="overlines-above"/><g class="xaxislayer-above"><g class="xtick"><text text-anchor="middle" x="0" y="439" transform="translate(97.21000000000001,0)" style="font-family: 'Open Sans'; font-size: 18px; fill: rgb(0, 0, 0); fill-opacity: 1; white-space: pre;">2016</text></g><g class="xtick"><text text-anchor="middle" x="0" y="439" style="font-family: 'Open Sans'; font-size: 18px; fill: rgb(0, 0, 0); fill-opacity: 1; white-space: pre;" transform="translate(202.57,0)">2018</text></g><g class="xtick"><text text-anchor="middle" x="0" y="439" style="font-family: 'Open Sans'; font-size: 18px; fill: rgb(0, 0, 0); fill-opacity: 1; white-space: pre;" transform="translate(307.8,0)">2020</text></g><g class="xtick"><text text-anchor="middle" x="0" y="439" style="font-family: 'Open Sans'; font-size: 18px; fill: rgb(0, 0, 0); fill-opacity: 1; white-space: pre;" transform="translate(413.16,0)">2022</text></g><g class="xtick"><text text-anchor="middle" x="0" y="439" style="font-family: 'Open Sans'; font-size: 18px; fill: rgb(0, 0, 0); fill-opacity: 1; white-space: pre;" transform="translate(518.38,0)">2024</text></g></g><g class="yaxislayer-above"><g class="ytick"><text text-anchor="end" x="79" y="6.3" transform="translate(0,420)" style="font-family: 'Open Sans'; font-size: 18px; fill: rgb(0, 0, 0); fill-opacity: 1; white-space: pre;">0</text></g><g class="ytick"><text text-anchor="end" x="79" y="6.3" style="font-family: 'Open Sans'; font-size: 18px; fill: rgb(0, 0, 0); fill-opacity: 1; white-space: pre;" transform="translate(0,382.19)">200</text></g><g class="ytick"><text text-anchor="end" x="79" y="6.3" style="font-family: 'Open Sans'; font-size: 18px; fill: rgb(0, 0, 0); fill-opacity: 1; white-space: pre;" transform="translate(0,344.38)">400</text></g><g class="ytick"><text text-anchor="end" x="79" y="6.3" style="font-family: 'Open Sans'; font-size: 18px; fill: rgb(0, 0, 0); fill-opacity: 1; white-space: pre;" transform="translate(0,306.57)">600</text></g><g class="ytick"><text text-anchor="end" x="79" y="6.3" style="font-family: 'Open Sans'; font-size: 18px; fill: rgb(0, 0, 0); fill-opacity: 1; white-space: pre;" transform="translate(0,268.76)">800</text></g><g class="ytick"><text text-anchor="end" x="79" y="6.3" style="font-family: 'Open Sans'; font-size: 18px; fill: rgb(0, 0, 0); fill-opacity: 1; white-space: pre;" transform="translate(0,230.95)">1000</text></g><g class="ytick"><text text-anchor="end" x="79" y="6.3" style="font-family: 'Open Sans'; font-size: 18px; fill: rgb(0, 0, 0); fill-opacity: 1; white-space: pre;" transform="translate(0,193.13)">1200</text></g><g class="ytick"><text text-anchor="end" x="79" y="6.3" style="font-family: 'Open Sans'; font-size: 18px; fill: rgb(0, 0, 0); fill-opacity: 1; white-space: pre;" transform="translate(0,155.32)">1400</text></g><g class="ytick"><text text-anchor="end" x="79" y="6.3" style="font-family: 'Open Sans'; font-size: 18px; fill: rgb(0, 0, 0); fill-opacity: 1; white-space: pre;" transform="translate(0,117.51)">1600</text></g></g><g class="overaxes-above"/></g></g><g class="polarlayer"/><g class="smithlayer"/><g class="ternarylayer"/><g class="geolayer"/><g class="funnelarealayer"/><g class="pielayer"/><g class="iciclelayer"/><g class="treemaplayer"/><g class="sunburstlayer"/><g class="glimages"/><defs id="topdefs-34f2db"><g class="clips"/></defs><g class="layer-above"><g class="imagelayer"/><g class="shapelayer"/></g><g class="infolayer"><g class="g-gtitle"><text class="gtitle" x="35" y="50" text-anchor="start" dy="0em" style="opacity: 1; font-family: 'Open Sans'; font-size: 25px; fill: rgb(0, 0, 0); fill-opacity: 1; white-space: pre;">MultiQC/MultiQC - Pull Requests Created Over Time</text></g><g class="g-xtitle"><text class="xtitle" x="350" y="472.9" text-anchor="middle" style="opacity: 1; font-family: 'Open Sans'; font-size: 22px; fill: rgb(0, 0, 0); fill-opacity: 1; white-space: pre;">Date</text></g><g class="g-ytitle"><text class="ytitle" transform="rotate(-90,20.799999999999997,260)" x="20.799999999999997" y="260" text-anchor="middle" style="opacity: 1; font-family: 'Open Sans'; font-size: 22px; fill: rgb(0, 0, 0); fill-opacity: 1; white-space: pre;">Cumulative PRs Created</text></g></g></svg>