<svg class="main-svg" xmlns="http://www.w3.org/2000/svg" xmlns:xlink="http://www.w3.org/1999/xlink" width="700" height="500" style="" viewBox="0 0 700 500"><rect x="0" y="0" width="700" height="500" style="fill: rgb(0, 0, 0); fill-opacity: 0;"/><defs id="defs-fc15f2"><g class="clips"><clipPath id="clipfc15f2xyplot" class="plotclip"><rect width="540" height="320"/></clipPath><clipPath class="axesclip" id="clipfc15f2x"><rect x="80" y="0" width="540" height="500"/></clipPath><clipPath class="axesclip" id="clipfc15f2y"><rect x="0" y="100" width="700" height="320"/></clipPath><clipPath class="axesclip" id="clipfc15f2xy"><rect x="80" y="100" width="540" height="320"/></clipPath></g><g class="gradients"/><g class="patterns"/></defs><g class="bglayer"><rect class="bg" x="80" y="100" width="540" height="320" style="fill: rgb(0, 0, 0); fill-opacity: 0; stroke-width: 0;"/></g><g class="layer-below"><g class="imagelayer"/><g class="shapelayer"/></g><g class="cartesianlayer"><g class="subplot xy"><g class="layer-subplot"><g class="shapelayer"/><g class="imagelayer"/></g><g class="minor-gridlayer"><g class="x"/><g class="y"/></g><g class="gridlayer"><g class="x"><path class="xgrid crisp" transform="translate(96.91,0)" d="M0,100v320" style="stroke: rgb(255, 255, 255); stroke-opacity: 1; stroke-width: 1px;"/><path class="xgrid crisp" transform="translate(198.26,0)" d="M0,100v320" style="stroke: rgb(255, 255, 255); stroke-opacity: 1; stroke-width: 1px;"/><path class="xgrid crisp" transform="translate(299.47,0)" d="M0,100v320" style="stroke: rgb(255, 255, 255); stroke-opacity: 1; stroke-width: 1px;"/><path class="xgrid crisp" transform="translate(400.81,0)" d="M0,100v320" style="stroke: rgb(255, 255, 255); stroke-opacity: 1; stroke-width: 1px;"/><path class="xgrid crisp" transform="translate(502.02,0)" d="M0,100v320" style="stroke: rgb(255, 255, 255); stroke-opacity: 1; stroke-width: 1px;"/><path class="xgrid crisp" transform="translate(603.36,0)" d="M0,100v320" style="stroke: rgb(255, 255, 255); stroke-opacity: 1; stroke-width: 1px;"/></g><g class="y"><path class="ygrid crisp" transform="translate(0,382.93)" d="M80,0h540" style="stroke: rgb(255, 255, 255); stroke-opacity: 1; stroke-width: 1px;"/><path class="ygrid crisp" transform="translate(0,345.85)" d="M80,0h540" style="stroke: rgb(255, 255, 255); stroke-opacity: 1; stroke-width: 1px;"/><path class="ygrid crisp" transform="translate(0,308.78)" d="M80,0h540" style="stroke: rgb(255, 255, 255); stroke-opacity: 1; stroke-width: 1px;"/><path class="ygrid crisp" transform="translate(0,271.71000000000004)" d="M80,0h540" style="stroke: rgb(255, 255, 255); stroke-opacity: 1; stroke-width: 1px;"/><path class="ygrid crisp" transform="translate(0,234.63)" d="M80,0h540" style="stroke: rgb(255, 255, 255); stroke-opacity: 1; stroke-width: 1px;"/><path class="ygrid crisp" transform="translate(0,197.56)" d="M80,0h540" style="stroke: rgb(255, 255, 255); stroke-opacity: 1; stroke-width: 1px;"/><path class="ygrid crisp" transform="translate(0,160.49)" d="M80,0h540" style="stroke: rgb(255, 255, 255); stroke-opacity: 1; stroke-width: 1px;"/><path class="ygrid crisp" transform="translate(0,123.41)" d="M80,0h540" style="stroke: rgb(255, 255, 255); stroke-opacity: 1; stroke-width: 1px;"/></g></g><g class="zerolinelayer"><path class="yzl zl crisp" transform="translate(0,420)" d="M80,0h540" style="stroke: rgb(255, 255, 255); stroke-opacity: 1; stroke-width: 2px;"/></g><g class="layer-between"><g class="shapelayer"/><g class="imagelayer"/></g><path class="xlines-below"/><path class="ylines-below"/><g class="overlines-below"/><g class="xaxislayer-below"/><g class="yaxislayer-below"/><g class="overaxes-below"/><g class="overplot"><g class="xy" transform="translate(80,100)" clip-path="url(#clipfc15f2xyplot)"><g class="scatterlayer mlayer"><g class="trace scatter tracefa5bcb" style="stroke-miterlimit: 2;"><g class="fills"><g><path class="js-fill" d="M540,320L0,320L0,286.63L4.16,286.63L8.46,301.46L12.62,316.29L21.21,305.17L25.23,305.17L29.53,294.05L33.69,294.05L37.99,308.88L42.15,275.51L46.44,312.59L50.74,312.59L54.9,305.17L59.2,297.76L63.36,275.51L67.66,301.46L71.95,305.17L75.84,301.46L80.13,290.34L84.29,305.17L88.59,308.88L92.75,227.32L97.05,249.56L101.35,268.1L105.5,279.22L109.8,301.46L113.96,308.88L118.26,290.34L122.56,305.17L126.44,275.51L130.74,268.1L134.9,290.34L139.19,290.34L143.35,301.46L147.65,297.76L156.11,312.59L160.41,312.59L164.56,294.05L168.86,312.59L173.16,308.88L177.04,268.1L181.34,301.46L185.5,308.88L189.8,305.17L193.96,312.59L198.25,305.17L202.55,316.29L206.71,282.93L211.01,297.76L215.17,305.17L219.47,308.88L223.76,297.76L227.78,260.68L232.08,268.1L236.24,256.98L240.54,275.51L244.7,305.17L249,308.88L253.29,282.93L257.45,282.93L261.75,290.34L265.91,301.46L270.21,305.17L274.51,297.76L278.39,301.46L286.84,301.46L291.14,264.39L295.3,264.39L299.6,256.98L303.9,308.88L308.06,305.17L312.35,256.98L316.51,305.17L320.81,312.59L325.11,286.63L328.99,297.76L333.29,294.05L337.45,305.17L341.75,282.93L345.91,286.63L350.2,286.63L354.5,290.34L358.66,305.17L362.96,286.63L367.12,249.56L371.41,294.05L375.71,305.17L379.59,286.63L383.89,282.93L388.05,305.17L392.35,305.17L396.51,294.05L400.81,179.12L405.1,149.46L409.26,168L413.56,219.9L417.72,179.12L422.02,245.85L426.32,16L430.34,197.66L434.63,205.07L438.79,119.8L443.09,164.29L447.25,156.88L451.55,142.05L455.85,93.85L460.01,212.49L468.46,212.49L472.76,216.2L477.06,264.39L480.94,242.15L485.24,242.15L489.4,223.61L493.69,268.1L497.85,212.49L502.15,245.85L506.45,238.44L510.61,268.1L514.91,264.39L519.07,193.95L523.36,271.8L527.66,279.22L531.54,271.8L535.84,286.63L540,156.88" style="fill: rgb(44, 160, 44); fill-opacity: 0.5; stroke-width: 0;"/></g></g><g class="errorbars"/><g class="lines"><path class="js-line" d="M0,286.63L4.16,286.63L8.46,301.46L12.62,316.29L21.21,305.17L25.23,305.17L29.53,294.05L33.69,294.05L37.99,308.88L42.15,275.51L46.44,312.59L50.74,312.59L54.9,305.17L59.2,297.76L63.36,275.51L67.66,301.46L71.95,305.17L75.84,301.46L80.13,290.34L84.29,305.17L88.59,308.88L92.75,227.32L97.05,249.56L101.35,268.1L105.5,279.22L109.8,301.46L113.96,308.88L118.26,290.34L122.56,305.17L126.44,275.51L130.74,268.1L134.9,290.34L139.19,290.34L143.35,301.46L147.65,297.76L156.11,312.59L160.41,312.59L164.56,294.05L168.86,312.59L173.16,308.88L177.04,268.1L181.34,301.46L185.5,308.88L189.8,305.17L193.96,312.59L198.25,305.17L202.55,316.29L206.71,282.93L211.01,297.76L215.17,305.17L219.47,308.88L223.76,297.76L227.78,260.68L232.08,268.1L236.24,256.98L240.54,275.51L244.7,305.17L249,308.88L253.29,282.93L257.45,282.93L261.75,290.34L265.91,301.46L270.21,305.17L274.51,297.76L278.39,301.46L286.84,301.46L291.14,264.39L295.3,264.39L299.6,256.98L303.9,308.88L308.06,305.17L312.35,256.98L316.51,305.17L320.81,312.59L325.11,286.63L328.99,297.76L333.29,294.05L337.45,305.17L341.75,282.93L345.91,286.63L350.2,286.63L354.5,290.34L358.66,305.17L362.96,286.63L367.12,249.56L371.41,294.05L375.71,305.17L379.59,286.63L383.89,282.93L388.05,305.17L392.35,305.17L396.51,294.05L400.81,179.12L405.1,149.46L409.26,168L413.56,219.9L417.72,179.12L422.02,245.85L426.32,16L430.34,197.66L434.63,205.07L438.79,119.8L443.09,164.29L447.25,156.88L451.55,142.05L455.85,93.85L460.01,212.49L468.46,212.49L472.76,216.2L477.06,264.39L480.94,242.15L485.24,242.15L489.4,223.61L493.69,268.1L497.85,212.49L502.15,245.85L506.45,238.44L510.61,268.1L514.91,264.39L519.07,193.95L523.36,271.8L527.66,279.22L531.54,271.8L535.84,286.63L540,156.88" style="vector-effect: none; fill: none; stroke: rgb(44, 160, 44); stroke-opacity: 1; stroke-width: 2px; opacity: 1;"/></g><g class="points"/><g class="text"/></g></g></g></g><g class="zerolinelayer-above"/><path class="xlines-above crisp" d="M0,0" style="fill: none;"/><path class="ylines-above crisp" d="M0,0" style="fill: none;"/><g class="overlines-above"/><g class="xaxislayer-above"><g class="xtick"><text text-anchor="middle" x="0" y="439" transform="translate(96.91,0)" style="font-family: 'Open Sans'; font-size: 18px; fill: rgb(255, 255, 255); fill-opacity: 1; white-space: pre;">2016</text></g><g class="xtick"><text text-anchor="middle" x="0" y="439" style="font-family: 'Open Sans'; font-size: 18px; fill: rgb(255, 255, 255); fill-opacity: 1; white-space: pre;" transform="translate(198.26,0)">2018</text></g><g class="xtick"><text text-anchor="middle" x="0" y="439" style="font-family: 'Open Sans'; font-size: 18px; fill: rgb(255, 255, 255); fill-opacity: 1; white-space: pre;" transform="translate(299.47,0)">2020</text></g><g class="xtick"><text text-anchor="middle" x="0" y="439" style="font-family: 'Open Sans'; font-size: 18px; fill: rgb(255, 255, 255); fill-opacity: 1; white-space: pre;" transform="translate(400.81,0)">2022</text></g><g class="xtick"><text text-anchor="middle" x="0" y="439" style="font-family: 'Open Sans'; font-size: 18px; fill: rgb(255, 255, 255); fill-opacity: 1; white-space: pre;" transform="translate(502.02,0)">2024</text></g><g class="xtick"><text text-anchor="middle" x="0" y="439" style="font-family: 'Open Sans'; font-size: 18px; fill: rgb(255, 255, 255); fill-opacity: 1; white-space: pre;" transform="translate(603.36,0)">2026</text></g></g><g class="yaxislayer-above"><g class="ytick"><text text-anchor="end" x="79" y="6.3" transform="translate(0,420)" style="font-family: 'Open Sans'; font-size: 18px; fill: rgb(255, 255, 255); fill-opacity: 1; white-space: pre;">0</text></g><g class="ytick"><text text-anchor="end" x="79" y="6.3" style="font-family: 'Open Sans'; font-size: 18px; fill: rgb(255, 255, 255); fill-opacity: 1; white-space: pre;" transform="translate(0,382.93)">10</text></g><g class="ytick"><text text-anchor="end" x="79" y="6.3" style="font-family: 'Open Sans'; font-size: 18px; fill: rgb(255, 255, 255); fill-opacity: 1; white-space: pre;" transform="translate(0,345.85)">20</text></g><g class="ytick"><text text-anchor="end" x="79" y="6.3" style="font-family: 'Open Sans'; font-size: 18px; fill: rgb(255, 255, 255); fill-opacity: 1; white-space: pre;" transform="translate(0,308.78)">30</text></g><g class="ytick"><text text-anchor="end" x="79" y="6.3" style="font-family: 'Open Sans'; font-size: 18px; fill: rgb(255, 255, 255); fill-opacity: 1; white-space: pre;" transform="translate(0,271.71000000000004)">40</text></g><g class="ytick"><text text-anchor="end" x="79" y="6.3" style="font-family: 'Open Sans'; font-size: 18px; fill: rgb(255, 255, 255); fill-opacity: 1; white-space: pre;" transform="translate(0,234.63)">50</text></g><g class="ytick"><text text-anchor="end" x="79" y="6.3" style="font-family: 'Open Sans'; font-size: 18px; fill: rgb(255, 255, 255); fill-opacity: 1; white-space: pre;" transform="translate(0,197.56)">60</text></g><g class="ytick"><text text-anchor="end" x="79" y="6.3" style="font-family: 'Open Sans'; font-size: 18px; fill: rgb(255, 255, 255); fill-opacity: 1; white-space: pre;" transform="translate(0,160.49)">70</text></g><g class="ytick"><text text-anchor="end" x="79" y="6.3" style="font-family: 'Open Sans'; font-size: 18px; fill: rgb(255, 255, 255); fill-opacity: 1; white-space: pre;" transform="translate(0,123.41)">80</text></g></g><g class="overaxes-above"/></g></g><g class="polarlayer"/><g class="smithlayer"/><g class="ternarylayer"/><g class="geolayer"/><g class="funnelarealayer"/><g class="pielayer"/><g class="iciclelayer"/><g class="treemaplayer"/><g class="sunburstlayer"/><g class="glimages"/><defs id="topdefs-fc15f2"><g class="clips"/></defs><g class="layer-above"><g class="imagelayer"/><g class="shapelayer"/></g><g class="infolayer"><g class="g-gtitle"><text class="gtitle" x="35" y="50" text-anchor="start" dy="0em" style="opacity: 1; font-family: 'Open Sans'; font-size: 25px; fill: rgb(255, 255, 255); fill-opacity: 1; white-space: pre;">MultiQC/MultiQC - New Pull Requests Per Month</text></g><g class="g-xtitle"><text class="xtitle" x="350" y="472.9" text-anchor="middle" style="opacity: 1; font-family: 'Open Sans'; font-size: 22px; fill: rgb(255, 255, 255); fill-opacity: 1; white-space: pre;">Month</text></g><g class="g-ytitle"><text class="ytitle" transform="rotate(-90,38.8,260)" x="38.8" y="260" text-anchor="middle" style="opacity: 1; font-family: 'Open Sans'; font-size: 22px; fill: rgb(255, 255, 255); fill-opacity: 1; white-space: pre;">New PRs Created</text></g></g></svg>