<svg class="main-svg" xmlns="http://www.w3.org/2000/svg" xmlns:xlink="http://www.w3.org/1999/xlink" width="700" height="500" style="" viewBox="0 0 700 500"><rect x="0" y="0" width="700" height="500" style="fill: rgb(0, 0, 0); fill-opacity: 0;"/><defs id="defs-2b97e6"><g class="clips"><clipPath id="clip2b97e6xyplot" class="plotclip"><rect width="540" height="320"/></clipPath><clipPath class="axesclip" id="clip2b97e6x"><rect x="80" y="0" width="540" height="500"/></clipPath><clipPath class="axesclip" id="clip2b97e6y"><rect x="0" y="100" width="700" height="320"/></clipPath><clipPath class="axesclip" id="clip2b97e6xy"><rect x="80" y="100" width="540" height="320"/></clipPath></g><g class="gradients"/><g class="patterns"/></defs><g class="bglayer"><rect class="bg" x="80" y="100" width="540" height="320" style="fill: rgb(0, 0, 0); fill-opacity: 0; stroke-width: 0;"/></g><g class="layer-below"><g class="imagelayer"/><g class="shapelayer"/></g><g class="cartesianlayer"><g class="subplot xy"><g class="layer-subplot"><g class="shapelayer"/><g class="imagelayer"/></g><g class="minor-gridlayer"><g class="x"/><g class="y"/></g><g class="gridlayer"><g class="x"><path class="xgrid crisp" transform="translate(96.8,0)" d="M0,100v320" style="stroke: rgb(255, 255, 255); stroke-opacity: 1; stroke-width: 1px;"/><path class="xgrid crisp" transform="translate(199.64,0)" d="M0,100v320" style="stroke: rgb(255, 255, 255); stroke-opacity: 1; stroke-width: 1px;"/><path class="xgrid crisp" transform="translate(302.34000000000003,0)" d="M0,100v320" style="stroke: rgb(255, 255, 255); stroke-opacity: 1; stroke-width: 1px;"/><path class="xgrid crisp" transform="translate(405.18,0)" d="M0,100v320" style="stroke: rgb(255, 255, 255); stroke-opacity: 1; stroke-width: 1px;"/><path class="xgrid crisp" transform="translate(507.88,0)" d="M0,100v320" style="stroke: rgb(255, 255, 255); stroke-opacity: 1; stroke-width: 1px;"/><path class="xgrid crisp" transform="translate(610.72,0)" d="M0,100v320" style="stroke: rgb(255, 255, 255); stroke-opacity: 1; stroke-width: 1px;"/></g><g class="y"><path class="ygrid crisp" transform="translate(0,383.37)" d="M80,0h540" style="stroke: rgb(255, 255, 255); stroke-opacity: 1; stroke-width: 1px;"/><path class="ygrid crisp" transform="translate(0,346.75)" d="M80,0h540" style="stroke: rgb(255, 255, 255); stroke-opacity: 1; stroke-width: 1px;"/><path class="ygrid crisp" transform="translate(0,310.12)" d="M80,0h540" style="stroke: rgb(255, 255, 255); stroke-opacity: 1; stroke-width: 1px;"/><path class="ygrid crisp" transform="translate(0,273.49)" d="M80,0h540" style="stroke: rgb(255, 255, 255); stroke-opacity: 1; stroke-width: 1px;"/><path class="ygrid crisp" transform="translate(0,236.87)" d="M80,0h540" style="stroke: rgb(255, 255, 255); stroke-opacity: 1; stroke-width: 1px;"/><path class="ygrid crisp" transform="translate(0,200.24)" d="M80,0h540" style="stroke: rgb(255, 255, 255); stroke-opacity: 1; stroke-width: 1px;"/><path class="ygrid crisp" transform="translate(0,163.61)" d="M80,0h540" style="stroke: rgb(255, 255, 255); stroke-opacity: 1; stroke-width: 1px;"/><path class="ygrid crisp" transform="translate(0,126.99)" d="M80,0h540" style="stroke: rgb(255, 255, 255); stroke-opacity: 1; stroke-width: 1px;"/></g></g><g class="zerolinelayer"><path class="yzl zl crisp" transform="translate(0,420)" d="M80,0h540" style="stroke: rgb(255, 255, 255); stroke-opacity: 1; stroke-width: 2px;"/></g><g class="layer-between"><g class="shapelayer"/><g class="imagelayer"/></g><path class="xlines-below"/><path class="ylines-below"/><g class="overlines-below"/><g class="xaxislayer-below"/><g class="yaxislayer-below"/><g class="overaxes-below"/><g class="overplot"><g class="xy" transform="translate(80,100)" clip-path="url(#clip2b97e6xyplot)"><g class="scatterlayer mlayer"><g class="trace scatter trace1efa78" style="stroke-miterlimit: 2;"><g class="fills"><g><path class="js-fill" d="M540,320L0,320L0,319.82L3.5,318.53L3.79,318.35L5.75,317.25L6.06,317.07L14.35,315.6L21.67,315.42L21.86,315.24L23.46,315.06L23.46,314.87L26.42,314.69L43.33,310.11L43.34,309.93L43.36,309.56L44.3,309.38L44.87,309.01L46.12,308.83L58.31,307.55L59.41,307.36L66.66,305.17L66.71,304.98L67.51,304.07L68.35,303.88L69.78,303.15L74.26,302.97L78.35,302.05L79.53,301.87L84.4,300.22L84.41,300.04L95.16,298.39L95.5,298.21L96.51,297.29L96.52,297.11L97.2,294.73L97.6,294.54L98.04,294.18L98.62,294L100.28,292.71L100.42,292.53L101.02,291.61L101.98,291.43L103.11,290.15L103.22,289.97L103.97,289.23L104.92,289.05L108.12,287.22L108.12,287.04L108.62,286.49L109.88,286.3L110,286.12L111.98,285.94L111.99,285.75L113.09,285.57L120.68,284.29L120.97,284.11L121.28,283.56L122.11,283.37L128.99,281.73L129,281.54L129.87,280.81L130.84,280.63L134.47,278.98L134.8,278.8L135.48,277.88L135.6,277.7L142.9,275.87L143.44,275.68L147.7,274.03L149.29,273.85L151.8,272.93L153.37,272.75L169.51,270.19L169.53,270L179.69,268.72L179.69,268.54L180.34,267.44L181.87,267.26L182.2,266.53L183.84,266.34L184.34,265.79L186.52,265.61L210.79,262.5L211.49,262.31L211.89,261.4L213.29,261.21L217.31,260.12L218.47,259.93L231.16,257.55L231.16,257.37L231.96,256.64L232.24,256.45L234.81,255.17L235.05,254.99L235.52,253.89L236.1,253.71L236.21,253.52L237.49,253.34L239.46,252.06L240.11,251.87L241.4,250.96L242.1,250.78L242.1,250.59L243.08,250.41L243.79,248.94L244.06,248.76L245.08,248.03L245.9,247.85L250.16,246.2L254.69,246.01L255.04,245.65L256.92,245.47L260.59,244L260.69,243.82L262,242.72L264.04,242.53L264.1,242.17L265.12,241.99L269.95,240.34L271.63,240.15L271.81,239.97L273.55,239.79L273.55,239.6L274.5,239.42L274.69,239.24L276.05,239.06L281.43,237.96L281.49,237.77L293.68,235.21L294.46,235.03L297.13,234.11L297.52,233.93L297.53,233.74L298.67,233.56L299.52,232.1L299.54,231.91L301.9,230.08L301.94,229.9L305.37,228.25L305.85,228.07L306.28,226.42L308.45,226.24L317.41,224.59L317.41,224.4L317.58,223.86L318.25,223.67L320.11,222.02L322.55,221.84L323.04,221.47L324.28,221.29L332.73,219.64L332.75,219.46L333.58,219.09L334.83,218.91L339.89,217.08L339.98,216.9L347.3,215.8L347.31,215.61L350.71,214.15L351.43,213.97L356.27,212.13L356.31,211.95L357.33,211.22L359.14,211.04L362.2,209.75L363.12,209.57L369.29,208.29L369.41,208.11L374.28,205.54L374.34,205.36L374.98,204.26L375.91,204.08L378.63,202.43L381.09,202.25L381.7,201.7L385.47,201.51L389.11,200.05L390.94,199.87L391.08,199.5L392.52,199.32L392.64,198.22L396.58,198.03L397.42,197.48L399.51,197.3L403.76,196.2L405.26,196.02L408.55,192.91L408.64,192.72L411.52,187.23L412.19,187.05L414.63,180.09L415.03,179.9L417.11,176.24L417.14,176.06L417.59,173.86L417.99,173.68L419.29,172.58L419.65,172.4L420.63,171.3L420.69,171.11L421.37,169.83L421.49,169.65L422.35,167.82L423.3,167.63L424.04,166.35L424.04,166.17L424.27,165.8L425.14,165.62L426.01,161.77L426.11,161.59L426.13,161.41L427.29,161.22L427.59,160.67L428.25,160.49L431.18,157.93L431.2,157.74L431.25,157.38L432.1,157.2L433.86,153.72L433.86,153.53L434.44,150.97L434.67,150.79L436.12,143.83L436.12,143.64L436.81,141.45L436.96,141.26L440.21,135.95L441.31,135.77L442.77,133.75L442.88,133.57L445.98,127.71L446,127.53L446.72,125.88L446.79,125.7L447.22,124.05L447.22,123.87L447.66,122.95L448.11,122.77L449.09,121.85L449.09,121.67L449.42,120.2L449.95,120.02L450.47,119.29L450.77,119.1L451.88,116.91L451.88,116.72L452.76,113.06L452.85,112.88L454.13,110.68L454.54,110.5L455.68,108.48L455.82,108.3L456.92,105.73L456.99,105.55L457.67,104.64L457.94,104.45L458.5,102.62L458.93,102.44L460.51,97.49L460.58,97.31L461.02,96.03L461.85,95.85L462.78,94.93L462.84,94.75L463.56,92.55L463.68,92.37L465.97,85.77L466.35,85.59L466.77,83.39L467.38,83.21L470.17,80.28L470.31,80.1L470.73,79.36L471.88,79.18L472.59,78.08L472.83,77.9L473.97,75.33L474.1,75.15L475.79,73.14L476.48,72.95L477.39,69.29L477.82,69.11L481.42,67.64L481.48,67.46L482.43,66.36L482.43,66.18L484.57,62.52L485.73,62.33L486.63,61.42L487.07,61.23L488.32,59.77L489.15,59.59L492,57.02L492.6,56.84L496.08,54.09L496.18,53.91L496.39,52.99L497.03,52.81L500.84,48.05L501.39,47.87L502.68,46.58L503.28,46.4L503.44,46.22L504.79,46.03L505.79,42.74L506.02,42.55L509.19,40.54L511.41,40.36L512.09,38.16L512.21,37.98L512.94,37.43L513.21,37.24L513.92,35.96L513.97,35.78L515.92,32.85L517.82,32.67L520.84,31.75L520.99,31.57L521.99,30.28L522.97,30.1L525.88,28.45L526.02,28.27L526.72,26.62L526.99,26.44L527.72,23.69L527.84,23.51L529.42,21.31L531.72,21.13L532.97,19.3L533.92,19.11L538.34,17.65L538.66,17.47L538.99,16.92L539.55,16.73L540,16" style="fill: rgb(44, 160, 44); fill-opacity: 0.5; stroke-width: 0;"/></g></g><g class="errorbars"/><g class="lines"><path class="js-line" d="M0,319.82L3.5,318.53L3.79,318.35L5.75,317.25L6.06,317.07L14.35,315.6L21.67,315.42L21.86,315.24L23.46,315.06L23.46,314.87L26.42,314.69L43.33,310.11L43.34,309.93L43.36,309.56L44.3,309.38L44.87,309.01L46.12,308.83L58.31,307.55L59.41,307.36L66.66,305.17L66.71,304.98L67.51,304.07L68.35,303.88L69.78,303.15L74.26,302.97L78.35,302.05L79.53,301.87L84.4,300.22L84.41,300.04L95.16,298.39L95.5,298.21L96.51,297.29L96.52,297.11L97.2,294.73L97.6,294.54L98.04,294.18L98.62,294L100.28,292.71L100.42,292.53L101.02,291.61L101.98,291.43L103.11,290.15L103.22,289.97L103.97,289.23L104.92,289.05L108.12,287.22L108.12,287.04L108.62,286.49L109.88,286.3L110,286.12L111.98,285.94L111.99,285.75L113.09,285.57L120.68,284.29L120.97,284.11L121.28,283.56L122.11,283.37L128.99,281.73L129,281.54L129.87,280.81L130.84,280.63L134.47,278.98L134.8,278.8L135.48,277.88L135.6,277.7L142.9,275.87L143.44,275.68L147.7,274.03L149.29,273.85L151.8,272.93L153.37,272.75L169.51,270.19L169.53,270L179.69,268.72L179.69,268.54L180.34,267.44L181.87,267.26L182.2,266.53L183.84,266.34L184.34,265.79L186.52,265.61L210.79,262.5L211.49,262.31L211.89,261.4L213.29,261.21L217.31,260.12L218.47,259.93L231.16,257.55L231.16,257.37L231.96,256.64L232.24,256.45L234.81,255.17L235.05,254.99L235.52,253.89L236.1,253.71L236.21,253.52L237.49,253.34L239.46,252.06L240.11,251.87L241.4,250.96L242.1,250.78L242.1,250.59L243.08,250.41L243.79,248.94L244.06,248.76L245.08,248.03L245.9,247.85L250.16,246.2L254.69,246.01L255.04,245.65L256.92,245.47L260.59,244L260.69,243.82L262,242.72L264.04,242.53L264.1,242.17L265.12,241.99L269.95,240.34L271.63,240.15L271.81,239.97L273.55,239.79L273.55,239.6L274.5,239.42L274.69,239.24L276.05,239.06L281.43,237.96L281.49,237.77L293.68,235.21L294.46,235.03L297.13,234.11L297.52,233.93L297.53,233.74L298.67,233.56L299.52,232.1L299.54,231.91L301.9,230.08L301.94,229.9L305.37,228.25L305.85,228.07L306.28,226.42L308.45,226.24L317.41,224.59L317.41,224.4L317.58,223.86L318.25,223.67L320.11,222.02L322.55,221.84L323.04,221.47L324.28,221.29L332.73,219.64L332.75,219.46L333.58,219.09L334.83,218.91L339.89,217.08L339.98,216.9L347.3,215.8L347.31,215.61L350.71,214.15L351.43,213.97L356.27,212.13L356.31,211.95L357.33,211.22L359.14,211.04L362.2,209.75L363.12,209.57L369.29,208.29L369.41,208.11L374.28,205.54L374.34,205.36L374.98,204.26L375.91,204.08L378.63,202.43L381.09,202.25L381.7,201.7L385.47,201.51L389.11,200.05L390.94,199.87L391.08,199.5L392.52,199.32L392.64,198.22L396.58,198.03L397.42,197.48L399.51,197.3L403.76,196.2L405.26,196.02L408.55,192.91L408.64,192.72L411.52,187.23L412.19,187.05L414.63,180.09L415.03,179.9L417.11,176.24L417.14,176.06L417.59,173.86L417.99,173.68L419.29,172.58L419.65,172.4L420.63,171.3L420.69,171.11L421.37,169.83L421.49,169.65L422.35,167.82L423.3,167.63L424.04,166.35L424.04,166.17L424.27,165.8L425.14,165.62L426.01,161.77L426.11,161.59L426.13,161.41L427.29,161.22L427.59,160.67L428.25,160.49L431.18,157.93L431.2,157.74L431.25,157.38L432.1,157.2L433.86,153.72L433.86,153.53L434.44,150.97L434.67,150.79L436.12,143.83L436.12,143.64L436.81,141.45L436.96,141.26L440.21,135.95L441.31,135.77L442.77,133.75L442.88,133.57L445.98,127.71L446,127.53L446.72,125.88L446.79,125.7L447.22,124.05L447.22,123.87L447.66,122.95L448.11,122.77L449.09,121.85L449.09,121.67L449.42,120.2L449.95,120.02L450.47,119.29L450.77,119.1L451.88,116.91L451.88,116.72L452.76,113.06L452.85,112.88L454.13,110.68L454.54,110.5L455.68,108.48L455.82,108.3L456.92,105.73L456.99,105.55L457.67,104.64L457.94,104.45L458.5,102.62L458.93,102.44L460.51,97.49L460.58,97.31L461.02,96.03L461.85,95.85L462.78,94.93L462.84,94.75L463.56,92.55L463.68,92.37L465.97,85.77L466.35,85.59L466.77,83.39L467.38,83.21L470.17,80.28L470.31,80.1L470.73,79.36L471.88,79.18L472.59,78.08L472.83,77.9L473.97,75.33L474.1,75.15L475.79,73.14L476.48,72.95L477.39,69.29L477.82,69.11L481.42,67.64L481.48,67.46L482.43,66.36L482.43,66.18L484.57,62.52L485.73,62.33L486.63,61.42L487.07,61.23L488.32,59.77L489.15,59.59L492,57.02L492.6,56.84L496.08,54.09L496.18,53.91L496.39,52.99L497.03,52.81L500.84,48.05L501.39,47.87L502.68,46.58L503.28,46.4L503.44,46.22L504.79,46.03L505.79,42.74L506.02,42.55L509.19,40.54L511.41,40.36L512.09,38.16L512.21,37.98L512.94,37.43L513.21,37.24L513.92,35.96L513.97,35.78L515.92,32.85L517.82,32.67L520.84,31.75L520.99,31.57L521.99,30.28L522.97,30.1L525.88,28.45L526.02,28.27L526.72,26.62L526.99,26.44L527.72,23.69L527.84,23.51L529.42,21.31L531.72,21.13L532.97,19.3L533.92,19.11L538.34,17.65L538.66,17.47L538.99,16.92L539.55,16.73L540,16" style="vector-effect: none; fill: none; stroke: rgb(44, 160, 44); stroke-opacity: 1; stroke-width: 2px; opacity: 1;"/></g><g class="points"/><g class="text"/></g></g></g></g><g class="zerolinelayer-above"/><path class="xlines-above crisp" d="M0,0" style="fill: none;"/><path class="ylines-above crisp" d="M0,0" style="fill: none;"/><g class="overlines-above"/><g class="xaxislayer-above"><g class="xtick"><text text-anchor="middle" x="0" y="439" transform="translate(96.8,0)" style="font-family: 'Open Sans'; font-size: 18px; fill: rgb(255, 255, 255); fill-opacity: 1; white-space: pre;">2016</text></g><g class="xtick"><text text-anchor="middle" x="0" y="439" style="font-family: 'Open Sans'; font-size: 18px; fill: rgb(255, 255, 255); fill-opacity: 1; white-space: pre;" transform="translate(199.64,0)">2018</text></g><g class="xtick"><text text-anchor="middle" x="0" y="439" style="font-family: 'Open Sans'; font-size: 18px; fill: rgb(255, 255, 255); fill-opacity: 1; white-space: pre;" transform="translate(302.34000000000003,0)">2020</text></g><g class="xtick"><text text-anchor="middle" x="0" y="439" style="font-family: 'Open Sans'; font-size: 18px; fill: rgb(255, 255, 255); fill-opacity: 1; white-space: pre;" transform="translate(405.18,0)">2022</text></g><g class="xtick"><text text-anchor="middle" x="0" y="439" style="font-family: 'Open Sans'; font-size: 18px; fill: rgb(255, 255, 255); fill-opacity: 1; white-space: pre;" transform="translate(507.88,0)">2024</text></g><g class="xtick"><text text-anchor="middle" x="0" y="439" style="font-family: 'Open Sans'; font-size: 18px; fill: rgb(255, 255, 255); fill-opacity: 1; white-space: pre;" transform="translate(610.72,0)">2026</text></g></g><g class="yaxislayer-above"><g class="ytick"><text text-anchor="end" x="79" y="6.3" transform="translate(0,420)" style="font-family: 'Open Sans'; font-size: 18px; fill: rgb(255, 255, 255); fill-opacity: 1; white-space: pre;">0</text></g><g class="ytick"><text text-anchor="end" x="79" y="6.3" style="font-family: 'Open Sans'; font-size: 18px; fill: rgb(255, 255, 255); fill-opacity: 1; white-space: pre;" transform="translate(0,383.37)">200</text></g><g class="ytick"><text text-anchor="end" x="79" y="6.3" style="font-family: 'Open Sans'; font-size: 18px; fill: rgb(255, 255, 255); fill-opacity: 1; white-space: pre;" transform="translate(0,346.75)">400</text></g><g class="ytick"><text text-anchor="end" x="79" y="6.3" style="font-family: 'Open Sans'; font-size: 18px; fill: rgb(255, 255, 255); fill-opacity: 1; white-space: pre;" transform="translate(0,310.12)">600</text></g><g class="ytick"><text text-anchor="end" x="79" y="6.3" style="font-family: 'Open Sans'; font-size: 18px; fill: rgb(255, 255, 255); fill-opacity: 1; white-space: pre;" transform="translate(0,273.49)">800</text></g><g class="ytick"><text text-anchor="end" x="79" y="6.3" style="font-family: 'Open Sans'; font-size: 18px; fill: rgb(255, 255, 255); fill-opacity: 1; white-space: pre;" transform="translate(0,236.87)">1000</text></g><g class="ytick"><text text-anchor="end" x="79" y="6.3" style="font-family: 'Open Sans'; font-size: 18px; fill: rgb(255, 255, 255); fill-opacity: 1; white-space: pre;" transform="translate(0,200.24)">1200</text></g><g class="ytick"><text text-anchor="end" x="79" y="6.3" style="font-family: 'Open Sans'; font-size: 18px; fill: rgb(255, 255, 255); fill-opacity: 1; white-space: pre;" transform="translate(0,163.61)">1400</text></g><g class="ytick"><text text-anchor="end" x="79" y="6.3" style="font-family: 'Open Sans'; font-size: 18px; fill: rgb(255, 255, 255); fill-opacity: 1; white-space: pre;" transform="translate(0,126.99)">1600</text></g></g><g class="overaxes-above"/></g></g><g class="polarlayer"/><g class="smithlayer"/><g class="ternarylayer"/><g class="geolayer"/><g class="funnelarealayer"/><g class="pielayer"/><g class="iciclelayer"/><g class="treemaplayer"/><g class="sunburstlayer"/><g class="glimages"/><defs id="topdefs-2b97e6"><g class="clips"/></defs><g class="layer-above"><g class="imagelayer"/><g class="shapelayer"/></g><g class="infolayer"><g class="g-gtitle"><text class="gtitle" x="35" y="50" text-anchor="start" dy="0em" style="opacity: 1; font-family: 'Open Sans'; font-size: 25px; fill: rgb(255, 255, 255); fill-opacity: 1; white-space: pre;">MultiQC/MultiQC - Pull Requests Created Over Time</text></g><g class="g-xtitle"><text class="xtitle" x="350" y="472.9" text-anchor="middle" style="opacity: 1; font-family: 'Open Sans'; font-size: 22px; fill: rgb(255, 255, 255); fill-opacity: 1; white-space: pre;">Date</text></g><g class="g-ytitle"><text class="ytitle" transform="rotate(-90,20.799999999999997,260)" x="20.799999999999997" y="260" text-anchor="middle" style="opacity: 1; font-family: 'Open Sans'; font-size: 22px; fill: rgb(255, 255, 255); fill-opacity: 1; white-space: pre;">Cumulative PRs Created</text></g></g></svg>