<svg class="main-svg" xmlns="http://www.w3.org/2000/svg" xmlns:xlink="http://www.w3.org/1999/xlink" width="700" height="500" style="" viewBox="0 0 700 500"><rect x="0" y="0" width="700" height="500" style="fill: rgb(0, 0, 0); fill-opacity: 0;"/><defs id="defs-6659a9"><g class="clips"><clipPath id="clip6659a9xyplot" class="plotclip"><rect width="540" height="320"/></clipPath><clipPath class="axesclip" id="clip6659a9x"><rect x="80" y="0" width="540" height="500"/></clipPath><clipPath class="axesclip" id="clip6659a9y"><rect x="0" y="100" width="700" height="320"/></clipPath><clipPath class="axesclip" id="clip6659a9xy"><rect x="80" y="100" width="540" height="320"/></clipPath></g><g class="gradients"/><g class="patterns"/></defs><g class="bglayer"><rect class="bg" x="80" y="100" width="540" height="320" style="fill: rgb(0, 0, 0); fill-opacity: 0; stroke-width: 0;"/></g><g class="layer-below"><g class="imagelayer"/><g class="shapelayer"/></g><g class="cartesianlayer"><g class="subplot xy"><g class="layer-subplot"><g class="shapelayer"/><g class="imagelayer"/></g><g class="minor-gridlayer"><g class="x"/><g class="y"/></g><g class="gridlayer"><g class="x"><path class="xgrid crisp" transform="translate(96.93,0)" d="M0,100v320" style="stroke: rgb(255, 255, 255); stroke-opacity: 1; stroke-width: 1px;"/><path class="xgrid crisp" transform="translate(200.62,0)" d="M0,100v320" style="stroke: rgb(255, 255, 255); stroke-opacity: 1; stroke-width: 1px;"/><path class="xgrid crisp" transform="translate(304.15999999999997,0)" d="M0,100v320" style="stroke: rgb(255, 255, 255); stroke-opacity: 1; stroke-width: 1px;"/><path class="xgrid crisp" transform="translate(407.85,0)" d="M0,100v320" style="stroke: rgb(255, 255, 255); stroke-opacity: 1; stroke-width: 1px;"/><path class="xgrid crisp" transform="translate(511.39,0)" d="M0,100v320" style="stroke: rgb(255, 255, 255); stroke-opacity: 1; stroke-width: 1px;"/><path class="xgrid crisp" transform="translate(615.07,0)" d="M0,100v320" style="stroke: rgb(255, 255, 255); stroke-opacity: 1; stroke-width: 1px;"/></g><g class="y"><path class="ygrid crisp" transform="translate(0,351.69)" d="M80,0h540" style="stroke: rgb(255, 255, 255); stroke-opacity: 1; stroke-width: 1px;"/><path class="ygrid crisp" transform="translate(0,283.37)" d="M80,0h540" style="stroke: rgb(255, 255, 255); stroke-opacity: 1; stroke-width: 1px;"/><path class="ygrid crisp" transform="translate(0,215.06)" d="M80,0h540" style="stroke: rgb(255, 255, 255); stroke-opacity: 1; stroke-width: 1px;"/><path class="ygrid crisp" transform="translate(0,146.74)" d="M80,0h540" style="stroke: rgb(255, 255, 255); stroke-opacity: 1; stroke-width: 1px;"/></g></g><g class="zerolinelayer"><path class="yzl zl crisp" transform="translate(0,420)" d="M80,0h540" style="stroke: rgb(255, 255, 255); stroke-opacity: 1; stroke-width: 2px;"/></g><g class="layer-between"><g class="shapelayer"/><g class="imagelayer"/></g><path class="xlines-below"/><path class="ylines-below"/><g class="overlines-below"/><g class="xaxislayer-below"/><g class="yaxislayer-below"/><g class="overaxes-below"/><g class="overplot"><g class="xy" transform="translate(80,100)" clip-path="url(#clip6659a9xyplot)"><g class="scatterlayer mlayer"><g class="trace scatter trace54c969" style="stroke-miterlimit: 2;"><g class="fills"><g><path class="js-fill" d="M540,320L0,320L0,316.58L0.1,320L1.03,316.58L1.71,320L1.82,316.58L1.82,320L3.08,316.58L3.83,320L4.69,316.58L4.69,320L4.79,320L5.52,316.58L5.52,320L6.11,320L6.94,316.58L6.94,320L7.52,320L9.06,316.58L9.06,320L9.7,316.58L9.92,320L11.62,316.58L11.62,320L14.47,316.58L14.47,320L21.84,316.58L21.84,320L22.04,316.58L22.04,320L23.65,316.58L23.65,313.17L23.8,316.58L24.94,320L26.64,316.58L26.64,320L27.95,313.17L27.95,316.58L27.95,320L30.78,316.58L30.78,320L30.92,320L32.17,316.58L32.17,320L32.76,320L33.66,316.58L33.66,320L34.43,316.58L34.43,320L35.18,316.58L35.27,320L37.87,313.17L38.3,316.58L38.42,313.17L38.42,316.58L39.72,320L40.44,316.58L40.44,320L42.15,316.58L42.15,320L43.23,316.58L43.4,320L43.72,306.34L43.83,309.75L44.36,313.17L44.79,316.58L45.24,313.17L45.25,316.58L46.5,313.17L50.35,309.75L50.35,313.17L50.64,316.58L51.44,313.17L52.34,320L53.75,316.58L54.15,320L57.29,316.58L57.29,320L57.29,316.58L58.79,313.17L59.11,316.58L59.9,313.17L60.67,309.75L60.7,313.17L60.71,309.75L61.28,320L63.12,316.58L63.42,320L64.09,316.58L64.25,313.17L65.22,316.58L65.39,309.75L65.52,313.17L66.35,316.58L66.66,313.17L66.66,316.58L67.21,313.17L67.28,306.34L67.39,320L67.48,320L68.07,316.58L68.91,313.17L68.92,316.58L69.65,309.75L69.65,313.17L70.35,309.75L74.87,306.34L75.34,302.92L77.02,320L78.02,316.58L78.02,320L78.99,316.58L80.19,313.17L80.24,316.58L81.31,309.75L81.72,306.34L82.23,302.92L82.23,306.34L82.25,309.75L83.39,302.92L83.4,306.34L84.23,302.92L84.23,306.34L84.52,309.75L85.1,306.34L85.1,309.75L85.1,306.34L86.91,309.75L87.09,306.34L87.09,309.75L87.98,306.34L88.22,309.75L88.94,306.34L89.4,302.92L90.17,306.34L90.88,302.92L91.18,306.34L93.44,302.92L93.44,306.34L94.03,302.92L94.05,306.34L95.43,309.75L95.94,306.34L96.14,309.75L96.28,306.34L96.29,309.75L97.3,306.34L97.31,285.84L98,302.92L98.28,306.34L98.29,309.75L98.44,302.92L98.84,302.92L99.43,299.51L100.14,302.92L100.32,299.51L100.84,292.67L101.01,299.51L101.1,302.92L101.72,289.26L101.84,296.09L102.81,299.51L103.24,289.26L103.24,289.26L103.77,292.67L104.82,275.6L105.78,272.18L106.8,275.6L107.08,272.18L107.8,279.01L107.8,279.01L107.93,275.6L108.23,289.26L108.36,285.84L109.01,282.43L109.51,268.76L109.51,272.18L109.89,275.6L109.93,279.01L110.78,275.6L110.91,272.18L110.92,275.6L112.21,279.01L112.32,292.67L112.9,289.26L112.91,285.84L112.92,292.67L114.01,289.26L114.02,292.67L116.16,289.26L116.17,285.84L116.17,292.67L118.15,289.26L118.16,292.67L118.17,289.26L119.23,292.67L119.28,289.26L121.12,285.84L122.11,292.67L122.26,289.26L122.26,292.67L122.28,292.67L123.11,289.26L123.43,292.67L124.13,289.26L124.16,292.67L125.79,289.26L125.82,292.67L127.66,289.26L127.76,292.67L128.15,289.26L128.64,285.84L128.76,289.26L129.65,285.84L129.65,289.26L130.06,275.6L130.19,275.6L130.59,272.18L130.93,289.26L130.94,289.26L131.92,285.84L132.02,292.67L132.21,292.67L132.9,289.26L133.88,285.84L134,282.43L134.56,285.84L134.74,282.43L134.85,279.01L135.57,272.18L135.6,275.6L135.91,272.18L136.13,275.6L136.57,272.18L136.58,268.76L136.59,258.52L136.74,279.01L138,275.6L138.11,272.18L138.13,275.6L139.55,272.18L140.32,285.84L141.53,282.43L141.94,285.84L143.54,282.43L144.62,279.01L144.62,282.43L145.94,272.18L145.94,275.6L146.2,279.01L146.22,282.43L146.62,275.6L146.63,279.01L146.95,275.6L146.95,279.01L147.94,282.43L148.11,289.26L148.82,285.84L148.91,282.43L150.51,279.01L151.04,268.76L151.05,272.18L151.06,275.6L151.11,285.84L152.9,282.43L153,285.84L153.04,282.43L154.62,279.01L154.64,282.43L156,279.01L156,282.43L156.42,279.01L156.87,275.6L157.56,272.18L157.59,275.6L160.43,279.01L163.46,272.18L164.2,268.76L164.97,272.18L165.67,268.76L165.68,272.18L168.35,268.76L168.81,272.18L169.41,268.76L170.63,265.35L170.87,268.76L170.87,265.35L170.91,292.67L170.92,289.26L173.3,285.84L173.31,289.26L175.64,292.67L176.74,289.26L176.74,292.67L177.36,289.26L177.4,292.67L179.6,289.26L179.75,285.84L181.13,289.26L181.15,292.67L181.73,265.35L181.82,268.76L181.82,265.35L181.85,279.01L183.36,275.6L183.69,265.35L185.35,261.93L185.85,258.52L185.86,261.93L188.05,258.52L188.53,261.93L189.86,258.52L190.16,261.93L190.46,258.52L192.63,255.1L195.61,251.69L195.71,255.1L196.61,251.69L197.31,255.1L197.34,248.27L197.57,251.69L198.45,255.1L198.7,268.76L199.53,272.18L199.6,275.6L199.7,268.76L203.12,265.35L203.68,268.76L204.37,265.35L204.51,261.93L206.65,258.52L209.61,255.1L211.18,251.69L211.2,248.27L212.51,244.85L213.3,248.27L213.31,244.85L213.61,268.76L213.63,265.35L214.6,268.76L215.02,272.18L215.04,268.76L216.18,272.18L216.64,279.01L217.01,275.6L217.03,279.01L217.55,268.76L217.59,275.6L218.16,279.01L218.19,282.43L219.09,279.01L220.26,275.6L220.28,279.01L222.26,272.18L222.54,268.76L224.89,265.35L226.01,268.76L227.59,265.35L228.07,261.93L230.37,255.1L230.38,258.52L231.23,248.27L233.05,244.85L233.34,234.61L233.86,231.19L234.93,224.36L234.98,227.78L237.22,203.87L237.29,207.28L237.3,210.7L237.45,200.45L238.04,203.87L238.15,200.45L239.44,197.03L239.59,193.62L239.86,207.28L239.86,210.7L240.03,227.78L240.3,220.94L240.8,217.53L241.84,275.6L242.08,272.18L242.26,268.76L242.27,265.35L242.87,275.6L242.96,272.18L243.15,268.76L244.07,279.01L244.08,275.6L244.08,272.18L244.82,285.84L245.07,282.43L245.07,285.84L245.27,272.18L245.81,282.43L246.06,279.01L246.06,282.43L246.36,279.01L247.05,275.6L247.09,272.18L247.89,275.6L248.39,268.76L249.02,265.35L249.89,258.52L249.89,261.93L250.75,255.1L250.75,258.52L252.21,248.27L253.15,251.69L256.78,248.27L256.88,244.85L257.13,241.44L257.44,244.85L259.02,241.44L259.96,234.61L260.31,231.19L260.7,227.78L262.28,224.36L262.72,214.11L262.93,224.36L262.93,227.78L264.14,210.7L266.2,207.28L266.27,200.45L267.3,197.03L268.93,190.2L268.97,193.62L268.98,217.53L269.61,203.87L269.89,200.45L269.89,203.87L270.03,200.45L272.16,197.03L273.85,193.62L274.04,190.2L275.79,186.79L275.79,190.2L275.79,186.79L275.79,190.2L276.75,186.79L276.94,183.37L277.61,186.79L278.56,200.45L278.77,203.87L280.31,200.45L280.83,203.87L282.2,197.03L282.9,193.62L282.9,197.03L283.69,193.62L283.8,186.79L284.95,190.2L285.51,231.19L288.06,227.78L288.55,231.19L288.94,227.78L288.96,231.19L291.76,227.78L292.46,234.61L292.5,231.19L292.61,227.78L292.61,231.19L292.86,231.19L293.55,234.61L293.73,227.78L293.73,231.19L296.07,227.78L296.09,224.36L296.87,220.94L298.89,217.53L299.41,214.11L299.57,203.87L299.61,220.94L299.97,214.11L300.42,217.53L300.89,224.36L301.11,220.94L301.37,217.53L302.17,261.93L302.39,258.52L303.37,248.27L303.99,244.85L304.99,227.78L305.95,224.36L306.84,220.94L306.95,217.53L307.79,207.28L307.83,210.7L308.79,173.12L310.98,169.71L312.89,166.29L312.89,162.88L316.26,166.29L316.34,162.88L317.59,159.46L318.01,156.04L320.02,142.38L320.02,138.97L320.15,132.13L320.55,203.87L320.86,200.45L321.3,197.03L321.32,207.28L321.57,203.87L321.72,200.45L322.74,183.37L322.86,186.79L325.2,183.37L325.69,179.96L325.98,183.37L326.94,179.96L327.32,183.37L328.48,179.96L329.93,183.37L329.95,193.62L330.61,190.2L331.31,193.62L331.75,214.11L332.17,217.53L332.3,214.11L332.61,224.36L332.81,220.94L333.19,224.36L333.75,220.94L334.57,210.7L335.46,207.28L335.68,200.45L336.32,197.03L337.17,203.87L337.58,200.45L337.58,203.87L338.29,200.45L338.56,203.87L338.56,210.7L339.13,207.28L340.46,203.87L340.67,197.03L341.1,207.28L341.12,207.28L341.12,210.7L341.76,203.87L341.98,200.45L342.76,193.62L342.78,197.03L345.85,193.62L346.23,197.03L347.6,193.62L348.05,190.2L348.06,193.62L348.81,197.03L349.09,193.62L349.17,200.45L349.92,197.03L351.03,186.79L351.03,190.2L351.46,183.37L352.03,179.96L352.46,186.79L352.48,179.96L353,183.37L353.59,179.96L353.6,183.37L354.32,179.96L354.46,183.37L355.13,179.96L355.69,176.54L355.9,179.96L356.29,169.71L356.35,176.54L357.13,173.12L357.17,169.71L357.99,166.29L359.1,162.88L359.19,159.46L359.9,145.8L360.26,142.38L360.38,145.8L362.08,142.38L362.37,138.97L363.43,135.55L363.58,166.29L363.7,166.29L365.17,162.88L366.09,159.46L366.1,162.88L367.94,159.46L367.94,162.88L368.36,159.46L370.78,156.04L370.78,159.46L371.45,159.46L372.05,156.04L372.8,142.38L372.86,145.8L374.04,142.38L374.14,135.55L374.58,156.04L374.95,152.63L375.17,156.04L376.13,152.63L376.96,138.97L377.17,135.55L377.75,152.63L377.86,142.38L378.05,138.97L378.76,159.46L378.99,156.04L379.63,186.79L379.76,183.37L379.83,186.79L379.83,190.2L380.46,190.2L380.59,193.62L380.61,207.28L380.99,203.87L381.73,207.28L381.74,203.87L381.78,207.28L384.21,203.87L384.83,193.62L384.85,197.03L385.09,200.45L388.63,197.03L388.65,200.45L389.36,193.62L390.26,197.03L391.38,193.62L392.3,190.2L392.3,193.62L394.14,190.2L394.28,183.37L395.3,186.79L395.85,176.54L395.85,173.12L395.86,162.88L399.6,166.29L400.68,152.63L402.79,149.21L403.28,142.38L403.28,145.8L403.28,149.21L405.37,142.38L405.82,138.97L408.58,132.13L408.77,128.72L409.34,125.3L409.34,128.72L409.51,132.13L410.11,149.21L410.24,145.8L410.84,142.38L410.89,145.8L411.21,128.72L411.61,125.3L411.8,115.06L411.99,125.3L411.99,128.72L412,135.55L412.63,121.89L412.76,118.47L413.05,115.06L413.15,125.3L413.17,128.72L413.22,125.3L413.65,138.97L413.92,135.55L414,132.13L414.01,145.8L414.64,142.38L414.9,138.97L415.62,135.55L415.64,132.13L416.06,152.63L416.55,145.8L416.58,142.38L416.97,121.89L417.16,159.46L417.47,156.04L417.9,135.55L418.05,149.21L418.05,152.63L418.11,159.46L418.67,149.21L418.71,152.63L419.31,149.21L419.45,159.46L420.02,142.38L420.09,138.97L420.15,142.38L420.52,121.89L420.53,118.47L420.56,108.22L420.7,166.29L421.01,152.63L421.42,149.21L421.84,142.38L421.94,149.21L422.08,152.63L422.73,145.8L422.99,149.21L423.51,159.46L423.69,152.63L423.79,156.04L424.14,149.21L424.51,166.29L424.64,162.88L424.65,169.71L424.95,152.63L425.12,166.29L425.52,162.88L426.18,179.96L426.77,176.54L427.12,179.96L427.5,169.71L427.5,166.29L427.75,152.63L428.47,156.04L428.61,173.12L428.92,149.21L429.08,156.04L429.25,159.46L429.47,156.04L429.64,166.29L430.8,162.88L430.93,169.71L431.09,162.88L431.76,159.46L431.91,162.88L432.09,156.04L432.43,152.63L432.47,162.88L432.87,156.04L433.57,152.63L434.08,149.21L434.08,152.63L434.08,156.04L434.61,149.21L434.61,145.8L434.61,142.38L434.65,156.04L434.79,145.8L435.64,142.38L435.87,132.13L435.99,145.8L436.07,149.21L436.78,176.54L437.04,169.71L437.05,166.29L437.41,162.88L437.41,169.71L437.41,173.12L437.41,169.71L437.41,179.96L438.01,176.54L438.23,173.12L438.47,176.54L438.72,162.88L438.85,166.29L438.87,162.88L439.31,186.79L439.62,169.71L439.67,166.29L439.68,162.88L439.7,186.79L440.39,169.71L440.54,166.29L440.68,173.12L441.01,156.04L441.28,159.46L441.82,190.2L441.98,186.79L442.4,190.2L442.84,173.12L443.13,176.54L443.37,173.12L443.38,176.54L443.82,169.71L443.82,169.71L444.93,166.29L445.53,159.46L445.53,162.88L446.34,159.46L446.38,156.04L446.41,183.37L446.81,179.96L447.36,183.37L447.47,186.79L447.63,169.71L447.64,166.29L448.05,159.46L448.1,166.29L448.31,169.71L448.33,166.29L449.05,190.2L449.05,186.79L449.34,190.2L449.66,179.96L449.93,186.79L450.24,190.2L450.6,193.62L450.94,179.96L450.94,183.37L451.33,179.96L452.42,169.71L452.75,173.12L452.78,169.71L452.91,183.37L453.34,183.37L453.63,179.96L453.65,183.37L453.92,176.54L454.16,183.37L454.46,179.96L454.77,193.62L455.03,186.79L455.34,190.2L456.01,183.37L456.01,186.79L456.25,183.37L456.42,173.12L456.43,186.79L456.61,179.96L457.32,183.37L457.32,179.96L457.86,193.62L458.26,190.2L458.56,186.79L458.57,193.62L458.85,190.2L459.14,186.79L459.81,183.37L459.81,186.79L459.98,190.2L459.99,186.79L460.13,203.87L460.67,200.45L460.73,197.03L460.81,193.62L461.4,203.87L461.42,200.45L461.52,203.87L462.23,186.79L462.24,200.45L462.24,203.87L462.24,200.45L462.38,207.28L462.96,203.87L463.22,200.45L463.22,207.28L463.97,203.87L464.08,207.28L464.1,214.11L464.8,207.28L465.63,203.87L465.77,207.28L466.42,203.87L466.57,197.03L466.62,214.11L466.66,214.11L466.66,217.53L467.36,203.87L467.36,214.11L467.36,217.53L468.05,210.7L468.08,214.11L468.17,217.53L468.36,207.28L468.49,210.7L469.04,207.28L469.04,210.7L469.78,197.03L469.79,200.45L470.05,203.87L470.38,210.7L470.53,203.87L470.6,200.45L471.21,197.03L471.46,200.45L471.46,203.87L471.48,197.03L471.5,200.45L472.45,197.03L472.45,200.45L473.05,193.62L473.2,193.62L473.72,190.2L474.17,183.37L474.45,190.2L474.58,186.79L474.59,183.37L475.5,186.79L475.58,190.2L476.13,183.37L476.13,186.79L476.17,183.37L476.7,200.45L476.73,200.45L477.12,197.03L477.15,203.87L477.85,190.2L477.98,186.79L478.15,183.37L478.15,197.03L478.45,190.2L478.46,193.62L479.11,190.2L479.11,193.62L479.47,190.2L479.47,193.62L479.69,183.37L479.71,193.62L480.39,190.2L480.54,207.28L481.13,200.45L481.16,203.87L481.18,197.03L481.82,217.53L482.59,214.11L482.98,217.53L483.01,214.11L483.67,210.7L484.21,217.53L484.99,214.11L485.43,207.28L485.83,210.7L485.91,214.11L486.27,207.28L486.28,210.7L486.34,214.11L486.36,217.53L486.39,210.7L487.08,210.7L487.1,214.11L487.54,203.87L487.54,207.28L488.23,210.7L488.36,203.87L488.85,210.7L489.72,207.28L490.58,203.87L490.58,207.28L490.58,203.87L490.62,210.7L491.18,210.7L492.06,207.28L492.17,200.45L492.18,210.7L492.32,203.87L493.16,207.28L493.75,193.62L494.07,190.2L494.59,193.62L494.76,190.2L494.76,186.79L495.4,173.12L495.41,193.62L495.51,190.2L496.04,183.37L496.04,190.2L496.04,193.62L496.63,190.2L496.87,193.62L496.99,190.2L497.3,200.45L497.95,203.87L498.43,197.03L498.56,203.87L498.56,207.28L498.56,203.87L498.95,214.11L499.24,214.11L499.39,210.7L500.01,207.28L500.09,210.7L500.11,214.11L500.31,203.87L500.46,207.28L501.1,203.87L501.95,214.11L501.99,210.7L502.23,214.11L502.67,207.28L502.93,210.7L503.26,200.45L503.35,207.28L504.13,203.87L504.51,210.7L504.58,200.45L504.93,197.03L505.5,190.2L505.52,203.87L505.62,207.28L506.24,197.03L506.8,193.62L507.56,186.79L507.97,190.2L507.97,193.62L508.93,190.2L509.18,197.03L509.63,183.37L509.67,193.62L509.76,190.2L510.17,193.62L510.48,190.2L511.88,186.79L513.05,173.12L513.16,176.54L513.16,179.96L513.16,183.37L513.33,173.12L513.37,173.12L515.59,176.54L515.99,169.71L516.01,193.62L516.29,193.62L516.3,197.03L517.14,186.79L517.15,190.2L517.42,193.62L518.14,173.12L518.14,179.96L518.18,176.54L518.85,186.79L518.88,179.96L518.98,176.54L518.98,179.96L519.43,173.12L519.87,169.71L519.99,173.12L520.15,166.29L520.15,173.12L522.07,169.71L522.07,173.12L523.86,169.71L525.26,156.04L525.42,152.63L525.48,145.8L525.48,156.04L525.94,152.63L526.27,149.21L527.8,142.38L528.04,138.97L528.05,142.38L528.53,132.13L529.69,128.72L530.34,115.06L530.35,111.64L530.35,115.06L530.94,94.56L531.04,94.56L531.31,91.15L531.31,94.56L531.76,77.48L532.05,77.48L532.16,74.07L532.17,77.48L532.81,70.65L532.91,67.24L533.06,70.65L533.3,60.4L533.48,56.99L533.76,53.57L536.07,50.16L537.34,26.25L538.29,22.83L540,16" style="fill: rgb(44, 160, 44); fill-opacity: 0.5; stroke-width: 0;"/></g></g><g class="errorbars"/><g class="lines"><path class="js-line" d="M0,316.58L0.1,320L1.03,316.58L1.71,320L1.82,316.58L1.82,320L3.08,316.58L3.83,320L4.69,316.58L4.69,320L4.79,320L5.52,316.58L5.52,320L6.11,320L6.94,316.58L6.94,320L7.52,320L9.06,316.58L9.06,320L9.7,316.58L9.92,320L11.62,316.58L11.62,320L14.47,316.58L14.47,320L21.84,316.58L21.84,320L22.04,316.58L22.04,320L23.65,316.58L23.65,313.17L23.8,316.58L24.94,320L26.64,316.58L26.64,320L27.95,313.17L27.95,316.58L27.95,320L30.78,316.58L30.78,320L30.92,320L32.17,316.58L32.17,320L32.76,320L33.66,316.58L33.66,320L34.43,316.58L34.43,320L35.18,316.58L35.27,320L37.87,313.17L38.3,316.58L38.42,313.17L38.42,316.58L39.72,320L40.44,316.58L40.44,320L42.15,316.58L42.15,320L43.23,316.58L43.4,320L43.72,306.34L43.83,309.75L44.36,313.17L44.79,316.58L45.24,313.17L45.25,316.58L46.5,313.17L50.35,309.75L50.35,313.17L50.64,316.58L51.44,313.17L52.34,320L53.75,316.58L54.15,320L57.29,316.58L57.29,320L57.29,316.58L58.79,313.17L59.11,316.58L59.9,313.17L60.67,309.75L60.7,313.17L60.71,309.75L61.28,320L63.12,316.58L63.42,320L64.09,316.58L64.25,313.17L65.22,316.58L65.39,309.75L65.52,313.17L66.35,316.58L66.66,313.17L66.66,316.58L67.21,313.17L67.28,306.34L67.39,320L67.48,320L68.07,316.58L68.91,313.17L68.92,316.58L69.65,309.75L69.65,313.17L70.35,309.75L74.87,306.34L75.34,302.92L77.02,320L78.02,316.58L78.02,320L78.99,316.58L80.19,313.17L80.24,316.58L81.31,309.75L81.72,306.34L82.23,302.92L82.23,306.34L82.25,309.75L83.39,302.92L83.4,306.34L84.23,302.92L84.23,306.34L84.52,309.75L85.1,306.34L85.1,309.75L85.1,306.34L86.91,309.75L87.09,306.34L87.09,309.75L87.98,306.34L88.22,309.75L88.94,306.34L89.4,302.92L90.17,306.34L90.88,302.92L91.18,306.34L93.44,302.92L93.44,306.34L94.03,302.92L94.05,306.34L95.43,309.75L95.94,306.34L96.14,309.75L96.28,306.34L96.29,309.75L97.3,306.34L97.31,285.84L98,302.92L98.28,306.34L98.29,309.75L98.44,302.92L98.84,302.92L99.43,299.51L100.14,302.92L100.32,299.51L100.84,292.67L101.01,299.51L101.1,302.92L101.72,289.26L101.84,296.09L102.81,299.51L103.24,289.26L103.24,289.26L103.77,292.67L104.82,275.6L105.78,272.18L106.8,275.6L107.08,272.18L107.8,279.01L107.8,279.01L107.93,275.6L108.23,289.26L108.36,285.84L109.01,282.43L109.51,268.76L109.51,272.18L109.89,275.6L109.93,279.01L110.78,275.6L110.91,272.18L110.92,275.6L112.21,279.01L112.32,292.67L112.9,289.26L112.91,285.84L112.92,292.67L114.01,289.26L114.02,292.67L116.16,289.26L116.17,285.84L116.17,292.67L118.15,289.26L118.16,292.67L118.17,289.26L119.23,292.67L119.28,289.26L121.12,285.84L122.11,292.67L122.26,289.26L122.26,292.67L122.28,292.67L123.11,289.26L123.43,292.67L124.13,289.26L124.16,292.67L125.79,289.26L125.82,292.67L127.66,289.26L127.76,292.67L128.15,289.26L128.64,285.84L128.76,289.26L129.65,285.84L129.65,289.26L130.06,275.6L130.19,275.6L130.59,272.18L130.93,289.26L130.94,289.26L131.92,285.84L132.02,292.67L132.21,292.67L132.9,289.26L133.88,285.84L134,282.43L134.56,285.84L134.74,282.43L134.85,279.01L135.57,272.18L135.6,275.6L135.91,272.18L136.13,275.6L136.57,272.18L136.58,268.76L136.59,258.52L136.74,279.01L138,275.6L138.11,272.18L138.13,275.6L139.55,272.18L140.32,285.84L141.53,282.43L141.94,285.84L143.54,282.43L144.62,279.01L144.62,282.43L145.94,272.18L145.94,275.6L146.2,279.01L146.22,282.43L146.62,275.6L146.63,279.01L146.95,275.6L146.95,279.01L147.94,282.43L148.11,289.26L148.82,285.84L148.91,282.43L150.51,279.01L151.04,268.76L151.05,272.18L151.06,275.6L151.11,285.84L152.9,282.43L153,285.84L153.04,282.43L154.62,279.01L154.64,282.43L156,279.01L156,282.43L156.42,279.01L156.87,275.6L157.56,272.18L157.59,275.6L160.43,279.01L163.46,272.18L164.2,268.76L164.97,272.18L165.67,268.76L165.68,272.18L168.35,268.76L168.81,272.18L169.41,268.76L170.63,265.35L170.87,268.76L170.87,265.35L170.91,292.67L170.92,289.26L173.3,285.84L173.31,289.26L175.64,292.67L176.74,289.26L176.74,292.67L177.36,289.26L177.4,292.67L179.6,289.26L179.75,285.84L181.13,289.26L181.15,292.67L181.73,265.35L181.82,268.76L181.82,265.35L181.85,279.01L183.36,275.6L183.69,265.35L185.35,261.93L185.85,258.52L185.86,261.93L188.05,258.52L188.53,261.93L189.86,258.52L190.16,261.93L190.46,258.52L192.63,255.1L195.61,251.69L195.71,255.1L196.61,251.69L197.31,255.1L197.34,248.27L197.57,251.69L198.45,255.1L198.7,268.76L199.53,272.18L199.6,275.6L199.7,268.76L203.12,265.35L203.68,268.76L204.37,265.35L204.51,261.93L206.65,258.52L209.61,255.1L211.18,251.69L211.2,248.27L212.51,244.85L213.3,248.27L213.31,244.85L213.61,268.76L213.63,265.35L214.6,268.76L215.02,272.18L215.04,268.76L216.18,272.18L216.64,279.01L217.01,275.6L217.03,279.01L217.55,268.76L217.59,275.6L218.16,279.01L218.19,282.43L219.09,279.01L220.26,275.6L220.28,279.01L222.26,272.18L222.54,268.76L224.89,265.35L226.01,268.76L227.59,265.35L228.07,261.93L230.37,255.1L230.38,258.52L231.23,248.27L233.05,244.85L233.34,234.61L233.86,231.19L234.93,224.36L234.98,227.78L237.22,203.87L237.29,207.28L237.3,210.7L237.45,200.45L238.04,203.87L238.15,200.45L239.44,197.03L239.59,193.62L239.86,207.28L239.86,210.7L240.03,227.78L240.3,220.94L240.8,217.53L241.84,275.6L242.08,272.18L242.26,268.76L242.27,265.35L242.87,275.6L242.96,272.18L243.15,268.76L244.07,279.01L244.08,275.6L244.08,272.18L244.82,285.84L245.07,282.43L245.07,285.84L245.27,272.18L245.81,282.43L246.06,279.01L246.06,282.43L246.36,279.01L247.05,275.6L247.09,272.18L247.89,275.6L248.39,268.76L249.02,265.35L249.89,258.52L249.89,261.93L250.75,255.1L250.75,258.52L252.21,248.27L253.15,251.69L256.78,248.27L256.88,244.85L257.13,241.44L257.44,244.85L259.02,241.44L259.96,234.61L260.31,231.19L260.7,227.78L262.28,224.36L262.72,214.11L262.93,224.36L262.93,227.78L264.14,210.7L266.2,207.28L266.27,200.45L267.3,197.03L268.93,190.2L268.97,193.62L268.98,217.53L269.61,203.87L269.89,200.45L269.89,203.87L270.03,200.45L272.16,197.03L273.85,193.62L274.04,190.2L275.79,186.79L275.79,190.2L275.79,186.79L275.79,190.2L276.75,186.79L276.94,183.37L277.61,186.79L278.56,200.45L278.77,203.87L280.31,200.45L280.83,203.87L282.2,197.03L282.9,193.62L282.9,197.03L283.69,193.62L283.8,186.79L284.95,190.2L285.51,231.19L288.06,227.78L288.55,231.19L288.94,227.78L288.96,231.19L291.76,227.78L292.46,234.61L292.5,231.19L292.61,227.78L292.61,231.19L292.86,231.19L293.55,234.61L293.73,227.78L293.73,231.19L296.07,227.78L296.09,224.36L296.87,220.94L298.89,217.53L299.41,214.11L299.57,203.87L299.61,220.94L299.97,214.11L300.42,217.53L300.89,224.36L301.11,220.94L301.37,217.53L302.17,261.93L302.39,258.52L303.37,248.27L303.99,244.85L304.99,227.78L305.95,224.36L306.84,220.94L306.95,217.53L307.79,207.28L307.83,210.7L308.79,173.12L310.98,169.71L312.89,166.29L312.89,162.88L316.26,166.29L316.34,162.88L317.59,159.46L318.01,156.04L320.02,142.38L320.02,138.97L320.15,132.13L320.55,203.87L320.86,200.45L321.3,197.03L321.32,207.28L321.57,203.87L321.72,200.45L322.74,183.37L322.86,186.79L325.2,183.37L325.69,179.96L325.98,183.37L326.94,179.96L327.32,183.37L328.48,179.96L329.93,183.37L329.95,193.62L330.61,190.2L331.31,193.62L331.75,214.11L332.17,217.53L332.3,214.11L332.61,224.36L332.81,220.94L333.19,224.36L333.75,220.94L334.57,210.7L335.46,207.28L335.68,200.45L336.32,197.03L337.17,203.87L337.58,200.45L337.58,203.87L338.29,200.45L338.56,203.87L338.56,210.7L339.13,207.28L340.46,203.87L340.67,197.03L341.1,207.28L341.12,207.28L341.12,210.7L341.76,203.87L341.98,200.45L342.76,193.62L342.78,197.03L345.85,193.62L346.23,197.03L347.6,193.62L348.05,190.2L348.06,193.62L348.81,197.03L349.09,193.62L349.17,200.45L349.92,197.03L351.03,186.79L351.03,190.2L351.46,183.37L352.03,179.96L352.46,186.79L352.48,179.96L353,183.37L353.59,179.96L353.6,183.37L354.32,179.96L354.46,183.37L355.13,179.96L355.69,176.54L355.9,179.96L356.29,169.71L356.35,176.54L357.13,173.12L357.17,169.71L357.99,166.29L359.1,162.88L359.19,159.46L359.9,145.8L360.26,142.38L360.38,145.8L362.08,142.38L362.37,138.97L363.43,135.55L363.58,166.29L363.7,166.29L365.17,162.88L366.09,159.46L366.1,162.88L367.94,159.46L367.94,162.88L368.36,159.46L370.78,156.04L370.78,159.46L371.45,159.46L372.05,156.04L372.8,142.38L372.86,145.8L374.04,142.38L374.14,135.55L374.58,156.04L374.95,152.63L375.17,156.04L376.13,152.63L376.96,138.97L377.17,135.55L377.75,152.63L377.86,142.38L378.05,138.97L378.76,159.46L378.99,156.04L379.63,186.79L379.76,183.37L379.83,186.79L379.83,190.2L380.46,190.2L380.59,193.62L380.61,207.28L380.99,203.87L381.73,207.28L381.74,203.87L381.78,207.28L384.21,203.87L384.83,193.62L384.85,197.03L385.09,200.45L388.63,197.03L388.65,200.45L389.36,193.62L390.26,197.03L391.38,193.62L392.3,190.2L392.3,193.62L394.14,190.2L394.28,183.37L395.3,186.79L395.85,176.54L395.85,173.12L395.86,162.88L399.6,166.29L400.68,152.63L402.79,149.21L403.28,142.38L403.28,145.8L403.28,149.21L405.37,142.38L405.82,138.97L408.58,132.13L408.77,128.72L409.34,125.3L409.34,128.72L409.51,132.13L410.11,149.21L410.24,145.8L410.84,142.38L410.89,145.8L411.21,128.72L411.61,125.3L411.8,115.06L411.99,125.3L411.99,128.72L412,135.55L412.63,121.89L412.76,118.47L413.05,115.06L413.15,125.3L413.17,128.72L413.22,125.3L413.65,138.97L413.92,135.55L414,132.13L414.01,145.8L414.64,142.38L414.9,138.97L415.62,135.55L415.64,132.13L416.06,152.63L416.55,145.8L416.58,142.38L416.97,121.89L417.16,159.46L417.47,156.04L417.9,135.55L418.05,149.21L418.05,152.63L418.11,159.46L418.67,149.21L418.71,152.63L419.31,149.21L419.45,159.46L420.02,142.38L420.09,138.97L420.15,142.38L420.52,121.89L420.53,118.47L420.56,108.22L420.7,166.29L421.01,152.63L421.42,149.21L421.84,142.38L421.94,149.21L422.08,152.63L422.73,145.8L422.99,149.21L423.51,159.46L423.69,152.63L423.79,156.04L424.14,149.21L424.51,166.29L424.64,162.88L424.65,169.71L424.95,152.63L425.12,166.29L425.52,162.88L426.18,179.96L426.77,176.54L427.12,179.96L427.5,169.71L427.5,166.29L427.75,152.63L428.47,156.04L428.61,173.12L428.92,149.21L429.08,156.04L429.25,159.46L429.47,156.04L429.64,166.29L430.8,162.88L430.93,169.71L431.09,162.88L431.76,159.46L431.91,162.88L432.09,156.04L432.43,152.63L432.47,162.88L432.87,156.04L433.57,152.63L434.08,149.21L434.08,152.63L434.08,156.04L434.61,149.21L434.61,145.8L434.61,142.38L434.65,156.04L434.79,145.8L435.64,142.38L435.87,132.13L435.99,145.8L436.07,149.21L436.78,176.54L437.04,169.71L437.05,166.29L437.41,162.88L437.41,169.71L437.41,173.12L437.41,169.71L437.41,179.96L438.01,176.54L438.23,173.12L438.47,176.54L438.72,162.88L438.85,166.29L438.87,162.88L439.31,186.79L439.62,169.71L439.67,166.29L439.68,162.88L439.7,186.79L440.39,169.71L440.54,166.29L440.68,173.12L441.01,156.04L441.28,159.46L441.82,190.2L441.98,186.79L442.4,190.2L442.84,173.12L443.13,176.54L443.37,173.12L443.38,176.54L443.82,169.71L443.82,169.71L444.93,166.29L445.53,159.46L445.53,162.88L446.34,159.46L446.38,156.04L446.41,183.37L446.81,179.96L447.36,183.37L447.47,186.79L447.63,169.71L447.64,166.29L448.05,159.46L448.1,166.29L448.31,169.71L448.33,166.29L449.05,190.2L449.05,186.79L449.34,190.2L449.66,179.96L449.93,186.79L450.24,190.2L450.6,193.62L450.94,179.96L450.94,183.37L451.33,179.96L452.42,169.71L452.75,173.12L452.78,169.71L452.91,183.37L453.34,183.37L453.63,179.96L453.65,183.37L453.92,176.54L454.16,183.37L454.46,179.96L454.77,193.62L455.03,186.79L455.34,190.2L456.01,183.37L456.01,186.79L456.25,183.37L456.42,173.12L456.43,186.79L456.61,179.96L457.32,183.37L457.32,179.96L457.86,193.62L458.26,190.2L458.56,186.79L458.57,193.62L458.85,190.2L459.14,186.79L459.81,183.37L459.81,186.79L459.98,190.2L459.99,186.79L460.13,203.87L460.67,200.45L460.73,197.03L460.81,193.62L461.4,203.87L461.42,200.45L461.52,203.87L462.23,186.79L462.24,200.45L462.24,203.87L462.24,200.45L462.38,207.28L462.96,203.87L463.22,200.45L463.22,207.28L463.97,203.87L464.08,207.28L464.1,214.11L464.8,207.28L465.63,203.87L465.77,207.28L466.42,203.87L466.57,197.03L466.62,214.11L466.66,214.11L466.66,217.53L467.36,203.87L467.36,214.11L467.36,217.53L468.05,210.7L468.08,214.11L468.17,217.53L468.36,207.28L468.49,210.7L469.04,207.28L469.04,210.7L469.78,197.03L469.79,200.45L470.05,203.87L470.38,210.7L470.53,203.87L470.6,200.45L471.21,197.03L471.46,200.45L471.46,203.87L471.48,197.03L471.5,200.45L472.45,197.03L472.45,200.45L473.05,193.62L473.2,193.62L473.72,190.2L474.17,183.37L474.45,190.2L474.58,186.79L474.59,183.37L475.5,186.79L475.58,190.2L476.13,183.37L476.13,186.79L476.17,183.37L476.7,200.45L476.73,200.45L477.12,197.03L477.15,203.87L477.85,190.2L477.98,186.79L478.15,183.37L478.15,197.03L478.45,190.2L478.46,193.62L479.11,190.2L479.11,193.62L479.47,190.2L479.47,193.62L479.69,183.37L479.71,193.62L480.39,190.2L480.54,207.28L481.13,200.45L481.16,203.87L481.18,197.03L481.82,217.53L482.59,214.11L482.98,217.53L483.01,214.11L483.67,210.7L484.21,217.53L484.99,214.11L485.43,207.28L485.83,210.7L485.91,214.11L486.27,207.28L486.28,210.7L486.34,214.11L486.36,217.53L486.39,210.7L487.08,210.7L487.1,214.11L487.54,203.87L487.54,207.28L488.23,210.7L488.36,203.87L488.85,210.7L489.72,207.28L490.58,203.87L490.58,207.28L490.58,203.87L490.62,210.7L491.18,210.7L492.06,207.28L492.17,200.45L492.18,210.7L492.32,203.87L493.16,207.28L493.75,193.62L494.07,190.2L494.59,193.62L494.76,190.2L494.76,186.79L495.4,173.12L495.41,193.62L495.51,190.2L496.04,183.37L496.04,190.2L496.04,193.62L496.63,190.2L496.87,193.62L496.99,190.2L497.3,200.45L497.95,203.87L498.43,197.03L498.56,203.87L498.56,207.28L498.56,203.87L498.95,214.11L499.24,214.11L499.39,210.7L500.01,207.28L500.09,210.7L500.11,214.11L500.31,203.87L500.46,207.28L501.1,203.87L501.95,214.11L501.99,210.7L502.23,214.11L502.67,207.28L502.93,210.7L503.26,200.45L503.35,207.28L504.13,203.87L504.51,210.7L504.58,200.45L504.93,197.03L505.5,190.2L505.52,203.87L505.62,207.28L506.24,197.03L506.8,193.62L507.56,186.79L507.97,190.2L507.97,193.62L508.93,190.2L509.18,197.03L509.63,183.37L509.67,193.62L509.76,190.2L510.17,193.62L510.48,190.2L511.88,186.79L513.05,173.12L513.16,176.54L513.16,179.96L513.16,183.37L513.33,173.12L513.37,173.12L515.59,176.54L515.99,169.71L516.01,193.62L516.29,193.62L516.3,197.03L517.14,186.79L517.15,190.2L517.42,193.62L518.14,173.12L518.14,179.96L518.18,176.54L518.85,186.79L518.88,179.96L518.98,176.54L518.98,179.96L519.43,173.12L519.87,169.71L519.99,173.12L520.15,166.29L520.15,173.12L522.07,169.71L522.07,173.12L523.86,169.71L525.26,156.04L525.42,152.63L525.48,145.8L525.48,156.04L525.94,152.63L526.27,149.21L527.8,142.38L528.04,138.97L528.05,142.38L528.53,132.13L529.69,128.72L530.34,115.06L530.35,111.64L530.35,115.06L530.94,94.56L531.04,94.56L531.31,91.15L531.31,94.56L531.76,77.48L532.05,77.48L532.16,74.07L532.17,77.48L532.81,70.65L532.91,67.24L533.06,70.65L533.3,60.4L533.48,56.99L533.76,53.57L536.07,50.16L537.34,26.25L538.29,22.83L540,16" style="vector-effect: none; fill: none; stroke: rgb(44, 160, 44); stroke-opacity: 1; stroke-width: 2px; opacity: 1;"/></g><g class="points"/><g class="text"/></g></g></g></g><g class="zerolinelayer-above"/><path class="xlines-above crisp" d="M0,0" style="fill: none;"/><path class="ylines-above crisp" d="M0,0" style="fill: none;"/><g class="overlines-above"/><g class="xaxislayer-above"><g class="xtick"><text text-anchor="middle" x="0" y="439" transform="translate(96.93,0)" style="font-family: 'Open Sans'; font-size: 18px; fill: rgb(0, 0, 0); fill-opacity: 1; white-space: pre;">2016</text></g><g class="xtick"><text text-anchor="middle" x="0" y="439" style="font-family: 'Open Sans'; font-size: 18px; fill: rgb(0, 0, 0); fill-opacity: 1; white-space: pre;" transform="translate(200.62,0)">2018</text></g><g class="xtick"><text text-anchor="middle" x="0" y="439" style="font-family: 'Open Sans'; font-size: 18px; fill: rgb(0, 0, 0); fill-opacity: 1; white-space: pre;" transform="translate(304.15999999999997,0)">2020</text></g><g class="xtick"><text text-anchor="middle" x="0" y="439" style="font-family: 'Open Sans'; font-size: 18px; fill: rgb(0, 0, 0); fill-opacity: 1; white-space: pre;" transform="translate(407.85,0)">2022</text></g><g class="xtick"><text text-anchor="middle" x="0" y="439" style="font-family: 'Open Sans'; font-size: 18px; fill: rgb(0, 0, 0); fill-opacity: 1; white-space: pre;" transform="translate(511.39,0)">2024</text></g><g class="xtick"><text text-anchor="middle" x="0" y="439" style="font-family: 'Open Sans'; font-size: 18px; fill: rgb(0, 0, 0); fill-opacity: 1; white-space: pre;" transform="translate(615.07,0)">2026</text></g></g><g class="yaxislayer-above"><g class="ytick"><text text-anchor="end" x="79" y="6.3" transform="translate(0,420)" style="font-family: 'Open Sans'; font-size: 18px; fill: rgb(0, 0, 0); fill-opacity: 1; white-space: pre;">0</text></g><g class="ytick"><text text-anchor="end" x="79" y="6.3" style="font-family: 'Open Sans'; font-size: 18px; fill: rgb(0, 0, 0); fill-opacity: 1; white-space: pre;" transform="translate(0,351.69)">20</text></g><g class="ytick"><text text-anchor="end" x="79" y="6.3" style="font-family: 'Open Sans'; font-size: 18px; fill: rgb(0, 0, 0); fill-opacity: 1; white-space: pre;" transform="translate(0,283.37)">40</text></g><g class="ytick"><text text-anchor="end" x="79" y="6.3" style="font-family: 'Open Sans'; font-size: 18px; fill: rgb(0, 0, 0); fill-opacity: 1; white-space: pre;" transform="translate(0,215.06)">60</text></g><g class="ytick"><text text-anchor="end" x="79" y="6.3" style="font-family: 'Open Sans'; font-size: 18px; fill: rgb(0, 0, 0); fill-opacity: 1; white-space: pre;" transform="translate(0,146.74)">80</text></g></g><g class="overaxes-above"/></g></g><g class="polarlayer"/><g class="smithlayer"/><g class="ternarylayer"/><g class="geolayer"/><g class="funnelarealayer"/><g class="pielayer"/><g class="iciclelayer"/><g class="treemaplayer"/><g class="sunburstlayer"/><g class="glimages"/><defs id="topdefs-6659a9"><g class="clips"/></defs><g class="layer-above"><g class="imagelayer"/><g class="shapelayer"/></g><g class="infolayer"><g class="g-gtitle"><text class="gtitle" x="35" y="50" text-anchor="start" dy="0em" style="opacity: 1; font-family: 'Open Sans'; font-size: 25px; fill: rgb(0, 0, 0); fill-opacity: 1; white-space: pre;">MultiQC/MultiQC - Open Pull Requests Over Time</text></g><g class="g-xtitle"><text class="xtitle" x="350" y="472.9" text-anchor="middle" style="opacity: 1; font-family: 'Open Sans'; font-size: 22px; fill: rgb(0, 0, 0); fill-opacity: 1; white-space: pre;">Date</text></g><g class="g-ytitle"><text class="ytitle" transform="rotate(-90,38.8,260)" x="38.8" y="260" text-anchor="middle" style="opacity: 1; font-family: 'Open Sans'; font-size: 22px; fill: rgb(0, 0, 0); fill-opacity: 1; white-space: pre;">Number of Open PRs</text></g></g></svg>