<svg class="main-svg" xmlns="http://www.w3.org/2000/svg" xmlns:xlink="http://www.w3.org/1999/xlink" width="700" height="500" style="" viewBox="0 0 700 500"><rect x="0" y="0" width="700" height="500" style="fill: rgb(0, 0, 0); fill-opacity: 0;"/><defs id="defs-44d43d"><g class="clips"><clipPath id="clip44d43dxyplot" class="plotclip"><rect width="540" height="320"/></clipPath><clipPath class="axesclip" id="clip44d43dx"><rect x="80" y="0" width="540" height="500"/></clipPath><clipPath class="axesclip" id="clip44d43dy"><rect x="0" y="100" width="700" height="320"/></clipPath><clipPath class="axesclip" id="clip44d43dxy"><rect x="80" y="100" width="540" height="320"/></clipPath></g><g class="gradients"/><g class="patterns"/></defs><g class="bglayer"><rect class="bg" x="80" y="100" width="540" height="320" style="fill: rgb(0, 0, 0); fill-opacity: 0; stroke-width: 0;"/></g><g class="layer-below"><g class="imagelayer"/><g class="shapelayer"/></g><g class="cartesianlayer"><g class="subplot xy"><g class="layer-subplot"><g class="shapelayer"/><g class="imagelayer"/></g><g class="minor-gridlayer"><g class="x"/><g class="y"/></g><g class="gridlayer"><g class="x"><path class="xgrid crisp" transform="translate(96.47,0)" d="M0,100v320" style="stroke: rgb(255, 255, 255); stroke-opacity: 1; stroke-width: 1px;"/><path class="xgrid crisp" transform="translate(197.35,0)" d="M0,100v320" style="stroke: rgb(255, 255, 255); stroke-opacity: 1; stroke-width: 1px;"/><path class="xgrid crisp" transform="translate(298.08000000000004,0)" d="M0,100v320" style="stroke: rgb(255, 255, 255); stroke-opacity: 1; stroke-width: 1px;"/><path class="xgrid crisp" transform="translate(398.96,0)" d="M0,100v320" style="stroke: rgb(255, 255, 255); stroke-opacity: 1; stroke-width: 1px;"/><path class="xgrid crisp" transform="translate(499.69,0)" d="M0,100v320" style="stroke: rgb(255, 255, 255); stroke-opacity: 1; stroke-width: 1px;"/><path class="xgrid crisp" transform="translate(600.57,0)" d="M0,100v320" style="stroke: rgb(255, 255, 255); stroke-opacity: 1; stroke-width: 1px;"/></g><g class="y"><path class="ygrid crisp" transform="translate(0,331.68)" d="M80,0h540" style="stroke: rgb(255, 255, 255); stroke-opacity: 1; stroke-width: 1px;"/><path class="ygrid crisp" transform="translate(0,243.36)" d="M80,0h540" style="stroke: rgb(255, 255, 255); stroke-opacity: 1; stroke-width: 1px;"/><path class="ygrid crisp" transform="translate(0,155.04)" d="M80,0h540" style="stroke: rgb(255, 255, 255); stroke-opacity: 1; stroke-width: 1px;"/></g></g><g class="zerolinelayer"><path class="yzl zl crisp" transform="translate(0,420)" d="M80,0h540" style="stroke: rgb(255, 255, 255); stroke-opacity: 1; stroke-width: 2px;"/></g><g class="layer-between"><g class="shapelayer"/><g class="imagelayer"/></g><path class="xlines-below"/><path class="ylines-below"/><g class="overlines-below"/><g class="xaxislayer-below"/><g class="yaxislayer-below"/><g class="overaxes-below"/><g class="overplot"><g class="xy" transform="translate(80,100)" clip-path="url(#clip44d43dxyplot)"><g class="scatterlayer mlayer"><g class="trace scatter trace2a0668" style="stroke-miterlimit: 2;"><g class="fills"><g><path class="js-fill" d="M540,320L0,320L0,319.82L3.44,318.59L3.72,318.41L6.76,317L7.32,316.82L14.07,315.76L21.25,315.58L21.44,315.41L23.01,315.23L23.01,315.05L25.92,314.88L42.5,310.46L42.51,310.28L42.53,309.93L43.45,309.75L44.01,309.4L45.24,309.22L57.2,307.99L58.28,307.81L65.39,305.69L65.43,305.52L66.22,304.63L67.05,304.46L68.45,303.75L72.84,303.57L76.85,302.69L78.01,302.51L82.79,300.92L82.79,300.75L93.33,299.16L93.67,298.98L94.67,298.1L94.67,297.92L95.34,295.62L95.74,295.45L96.16,295.09L96.73,294.92L98.36,293.68L98.5,293.5L99.08,292.62L100.03,292.44L101.14,291.21L101.25,291.03L101.98,290.32L102.91,290.15L106.05,288.38L106.05,288.2L106.54,287.67L107.77,287.5L107.9,287.32L109.84,287.14L109.85,286.97L110.92,286.79L118.65,285.38L118.66,285.2L120.77,284.5L122.38,284.32L126.25,283.26L126.53,283.08L127.13,282.38L127.38,282.2L131.19,280.79L131.2,280.61L132.88,279.55L132.88,279.37L133.01,279.2L134.26,279.02L134.37,278.84L135.77,278.67L136.3,278.31L137.7,278.14L137.99,277.78L139.65,277.61L148.89,274.6L150.43,274.43L176.25,270.54L176.25,270.36L176.89,269.3L178.39,269.13L178.71,268.42L180.32,268.24L180.81,267.71L182.95,267.54L207.44,264.36L207.53,264.18L207.83,263.47L209.2,263.3L213.15,262.24L214.29,262.06L226.74,259.59L226.77,259.41L227.52,258.88L227.8,258.71L230.56,257.29L230.56,257.12L231.69,255.88L232.95,255.7L234.88,254.47L235.51,254.29L237.46,253.05L238.42,252.88L239.39,251.29L239.52,251.11L240.39,250.58L241.2,250.4L245.37,248.81L249.82,248.64L250.16,248.28L252,248.11L255.7,246.52L255.97,246.34L256.98,245.46L258.98,245.28L259.05,244.93L260.05,244.75L264.79,243.16L266.43,242.98L266.61,242.81L268.31,242.63L268.32,242.45L269.25,242.28L269.43,242.1L270.77,241.92L276.05,240.86L276.11,240.69L291.29,237.69L291.29,237.51L291.83,236.8L292.95,236.63L293.79,235.21L293.81,235.04L296.12,233.27L296.16,233.09L300,231.33L300.09,231.15L300.42,229.74L302.55,229.56L311.34,227.97L311.34,227.79L311.5,227.26L312.16,227.09L313.99,225.5L316.38,225.32L316.86,224.97L318.07,224.79L326.36,223.2L326.38,223.02L327.2,222.67L328.43,222.49L333.39,220.73L333.47,220.55L340.65,219.49L340.66,219.31L344,217.9L344.71,217.72L349.45,215.96L349.49,215.78L350.49,215.07L352.27,214.9L355.26,213.66L356.17,213.49L362.22,212.25L362.34,212.07L367.11,209.78L367.12,209.6L367.8,208.36L368.72,208.19L371.39,206.6L373.8,206.42L374.39,205.89L378.09,205.71L381.66,204.3L383.46,204.12L383.59,203.77L385,203.59L385.13,202.53L388.99,202.36L389.81,201.83L391.87,201.65L396.04,200.59L397.5,200.41L400.7,197.59L400.73,197.41L404.58,191.23L404.7,191.05L405.58,188.58L405.67,188.4L407.21,184.69L407.32,184.52L407.94,183.99L408.17,183.81L408.77,182.57L408.78,182.4L409.13,181.34L409.15,181.16L409.99,178.86L410.1,178.69L412.64,176.39L412.64,176.21L413.29,175.33L413.31,175.15L414.26,173.21L415.2,173.03L415.92,171.8L415.93,171.62L416.15,171.27L417,171.09L417.95,167.21L417.97,167.03L420.31,165.97L420.38,165.79L422.83,163.85L422.93,163.67L423,163.14L423.83,162.97L425.55,159.61L425.56,159.43L426.13,156.96L426.35,156.78L427.75,150.6L427.75,150.42L428.59,147.6L428.71,147.42L429.34,145.65L430,145.48L430.55,144.6L430.56,144.42L431.79,142.48L432.87,142.3L434.41,140.18L434.51,140L435.34,139.3L435.38,139.12L438.39,132.23L438.4,132.05L439.1,129.93L439.53,129.76L440.5,128.7L440.51,128.52L443.24,123.4L443.27,123.22L443.94,121.28L444.03,121.1L444.23,120.04L444.92,119.87L445.89,117.75L446.01,117.57L446.69,116.33L446.95,116.16L447.7,114.21L447.92,114.04L448.32,112.62L448.76,112.45L450.28,109.62L450.36,109.44L451.91,104.14L452.2,103.97L453.92,102.91L453.98,102.73L454.68,100.61L454.81,100.43L456.5,95.67L456.87,95.49L457.62,92.31L457.74,92.13L458.43,91.6L458.68,91.43L458.72,90.72L459.64,90.54L460.37,89.66L460.87,89.48L461.72,87.89L462.85,87.72L463.78,86.48L463.81,86.3L464.23,85.42L464.24,85.24L464.9,84.01L465.02,83.83L468.11,79.77L468.12,79.59L468.67,78L469.5,77.82L473.08,76.06L473.09,75.88L475.3,71.64L476.44,71.47L477.32,70.58L477.74,70.41L478.97,68.99L479.79,68.82L482.59,66.34L483.17,66.17L486.59,63.52L486.68,63.34L486.89,62.46L487.51,62.28L492.51,56.45L493.06,56.27L495.38,55.04L495.38,54.86L496.11,52.56L496.34,52.39L499.45,50.45L501.62,50.27L502.29,48.15L502.4,47.97L503.12,47.44L503.39,47.27L504.13,45.85L504.23,45.68L506.05,43.03L507.91,42.85L511.02,41.79L511.17,41.61L512,40.55L512.96,40.38L515.95,38.61L515.96,38.43L516.64,37.02L516.9,36.84L517.73,34.02L517.93,33.84L519.02,32.6L519.17,32.43L519.29,31.9L521.54,31.72L522.77,29.95L523.7,29.78L528.04,28.36L528.35,28.19L528.67,27.66L529.22,27.48L529.66,26.78L530.3,26.6L532.55,25.36L533.78,25.19L534.45,24.66L535.16,24.48L538.09,22.89L538.56,22.71L539.04,17.94L539.61,17.77L540,16" style="fill: rgb(44, 160, 44); fill-opacity: 0.5; stroke-width: 0;"/></g></g><g class="errorbars"/><g class="lines"><path class="js-line" d="M0,319.82L3.44,318.59L3.72,318.41L6.76,317L7.32,316.82L14.07,315.76L21.25,315.58L21.44,315.41L23.01,315.23L23.01,315.05L25.92,314.88L42.5,310.46L42.51,310.28L42.53,309.93L43.45,309.75L44.01,309.4L45.24,309.22L57.2,307.99L58.28,307.81L65.39,305.69L65.43,305.52L66.22,304.63L67.05,304.46L68.45,303.75L72.84,303.57L76.85,302.69L78.01,302.51L82.79,300.92L82.79,300.75L93.33,299.16L93.67,298.98L94.67,298.1L94.67,297.92L95.34,295.62L95.74,295.45L96.16,295.09L96.73,294.92L98.36,293.68L98.5,293.5L99.08,292.62L100.03,292.44L101.14,291.21L101.25,291.03L101.98,290.32L102.91,290.15L106.05,288.38L106.05,288.2L106.54,287.67L107.77,287.5L107.9,287.32L109.84,287.14L109.85,286.97L110.92,286.79L118.65,285.38L118.66,285.2L120.77,284.5L122.38,284.32L126.25,283.26L126.53,283.08L127.13,282.38L127.38,282.2L131.19,280.79L131.2,280.61L132.88,279.55L132.88,279.37L133.01,279.2L134.26,279.02L134.37,278.84L135.77,278.67L136.3,278.31L137.7,278.14L137.99,277.78L139.65,277.61L148.89,274.6L150.43,274.43L176.25,270.54L176.25,270.36L176.89,269.3L178.39,269.13L178.71,268.42L180.32,268.24L180.81,267.71L182.95,267.54L207.44,264.36L207.53,264.18L207.83,263.47L209.2,263.3L213.15,262.24L214.29,262.06L226.74,259.59L226.77,259.41L227.52,258.88L227.8,258.71L230.56,257.29L230.56,257.12L231.69,255.88L232.95,255.7L234.88,254.47L235.51,254.29L237.46,253.05L238.42,252.88L239.39,251.29L239.52,251.11L240.39,250.58L241.2,250.4L245.37,248.81L249.82,248.64L250.16,248.28L252,248.11L255.7,246.52L255.97,246.34L256.98,245.46L258.98,245.28L259.05,244.93L260.05,244.75L264.79,243.16L266.43,242.98L266.61,242.81L268.31,242.63L268.32,242.45L269.25,242.28L269.43,242.1L270.77,241.92L276.05,240.86L276.11,240.69L291.29,237.69L291.29,237.51L291.83,236.8L292.95,236.63L293.79,235.21L293.81,235.04L296.12,233.27L296.16,233.09L300,231.33L300.09,231.15L300.42,229.74L302.55,229.56L311.34,227.97L311.34,227.79L311.5,227.26L312.16,227.09L313.99,225.5L316.38,225.32L316.86,224.97L318.07,224.79L326.36,223.2L326.38,223.02L327.2,222.67L328.43,222.49L333.39,220.73L333.47,220.55L340.65,219.49L340.66,219.31L344,217.9L344.71,217.72L349.45,215.96L349.49,215.78L350.49,215.07L352.27,214.9L355.26,213.66L356.17,213.49L362.22,212.25L362.34,212.07L367.11,209.78L367.12,209.6L367.8,208.36L368.72,208.19L371.39,206.6L373.8,206.42L374.39,205.89L378.09,205.71L381.66,204.3L383.46,204.12L383.59,203.77L385,203.59L385.13,202.53L388.99,202.36L389.81,201.83L391.87,201.65L396.04,200.59L397.5,200.41L400.7,197.59L400.73,197.41L404.58,191.23L404.7,191.05L405.58,188.58L405.67,188.4L407.21,184.69L407.32,184.52L407.94,183.99L408.17,183.81L408.77,182.57L408.78,182.4L409.13,181.34L409.15,181.16L409.99,178.86L410.1,178.69L412.64,176.39L412.64,176.21L413.29,175.33L413.31,175.15L414.26,173.21L415.2,173.03L415.92,171.8L415.93,171.62L416.15,171.27L417,171.09L417.95,167.21L417.97,167.03L420.31,165.97L420.38,165.79L422.83,163.85L422.93,163.67L423,163.14L423.83,162.97L425.55,159.61L425.56,159.43L426.13,156.96L426.35,156.78L427.75,150.6L427.75,150.42L428.59,147.6L428.71,147.42L429.34,145.65L430,145.48L430.55,144.6L430.56,144.42L431.79,142.48L432.87,142.3L434.41,140.18L434.51,140L435.34,139.3L435.38,139.12L438.39,132.23L438.4,132.05L439.1,129.93L439.53,129.76L440.5,128.7L440.51,128.52L443.24,123.4L443.27,123.22L443.94,121.28L444.03,121.1L444.23,120.04L444.92,119.87L445.89,117.75L446.01,117.57L446.69,116.33L446.95,116.16L447.7,114.21L447.92,114.04L448.32,112.62L448.76,112.45L450.28,109.62L450.36,109.44L451.91,104.14L452.2,103.97L453.92,102.91L453.98,102.73L454.68,100.61L454.81,100.43L456.5,95.67L456.87,95.49L457.62,92.31L457.74,92.13L458.43,91.6L458.68,91.43L458.72,90.72L459.64,90.54L460.37,89.66L460.87,89.48L461.72,87.89L462.85,87.72L463.78,86.48L463.81,86.3L464.23,85.42L464.24,85.24L464.9,84.01L465.02,83.83L468.11,79.77L468.12,79.59L468.67,78L469.5,77.82L473.08,76.06L473.09,75.88L475.3,71.64L476.44,71.47L477.32,70.58L477.74,70.41L478.97,68.99L479.79,68.82L482.59,66.34L483.17,66.17L486.59,63.52L486.68,63.34L486.89,62.46L487.51,62.28L492.51,56.45L493.06,56.27L495.38,55.04L495.38,54.86L496.11,52.56L496.34,52.39L499.45,50.45L501.62,50.27L502.29,48.15L502.4,47.97L503.12,47.44L503.39,47.27L504.13,45.85L504.23,45.68L506.05,43.03L507.91,42.85L511.02,41.79L511.17,41.61L512,40.55L512.96,40.38L515.95,38.61L515.96,38.43L516.64,37.02L516.9,36.84L517.73,34.02L517.93,33.84L519.02,32.6L519.17,32.43L519.29,31.9L521.54,31.72L522.77,29.95L523.7,29.78L528.04,28.36L528.35,28.19L528.67,27.66L529.22,27.48L529.66,26.78L530.3,26.6L532.55,25.36L533.78,25.19L534.45,24.66L535.16,24.48L538.09,22.89L538.56,22.71L539.04,17.94L539.61,17.77L540,16" style="vector-effect: none; fill: none; stroke: rgb(44, 160, 44); stroke-opacity: 1; stroke-width: 2px; opacity: 1;"/></g><g class="points"/><g class="text"/></g></g></g></g><g class="zerolinelayer-above"/><path class="xlines-above crisp" d="M0,0" style="fill: none;"/><path class="ylines-above crisp" d="M0,0" style="fill: none;"/><g class="overlines-above"/><g class="xaxislayer-above"><g class="xtick"><text text-anchor="middle" x="0" y="439" transform="translate(96.47,0)" style="font-family: 'Open Sans'; font-size: 18px; fill: rgb(255, 255, 255); fill-opacity: 1; white-space: pre;">2016</text></g><g class="xtick"><text text-anchor="middle" x="0" y="439" style="font-family: 'Open Sans'; font-size: 18px; fill: rgb(255, 255, 255); fill-opacity: 1; white-space: pre;" transform="translate(197.35,0)">2018</text></g><g class="xtick"><text text-anchor="middle" x="0" y="439" style="font-family: 'Open Sans'; font-size: 18px; fill: rgb(255, 255, 255); fill-opacity: 1; white-space: pre;" transform="translate(298.08000000000004,0)">2020</text></g><g class="xtick"><text text-anchor="middle" x="0" y="439" style="font-family: 'Open Sans'; font-size: 18px; fill: rgb(255, 255, 255); fill-opacity: 1; white-space: pre;" transform="translate(398.96,0)">2022</text></g><g class="xtick"><text text-anchor="middle" x="0" y="439" style="font-family: 'Open Sans'; font-size: 18px; fill: rgb(255, 255, 255); fill-opacity: 1; white-space: pre;" transform="translate(499.69,0)">2024</text></g><g class="xtick"><text text-anchor="middle" x="0" y="439" style="font-family: 'Open Sans'; font-size: 18px; fill: rgb(255, 255, 255); fill-opacity: 1; white-space: pre;" transform="translate(600.57,0)">2026</text></g></g><g class="yaxislayer-above"><g class="ytick"><text text-anchor="end" x="79" y="6.3" transform="translate(0,420)" style="font-family: 'Open Sans'; font-size: 18px; fill: rgb(255, 255, 255); fill-opacity: 1; white-space: pre;">0</text></g><g class="ytick"><text text-anchor="end" x="79" y="6.3" style="font-family: 'Open Sans'; font-size: 18px; fill: rgb(255, 255, 255); fill-opacity: 1; white-space: pre;" transform="translate(0,331.68)">500</text></g><g class="ytick"><text text-anchor="end" x="79" y="6.3" style="font-family: 'Open Sans'; font-size: 18px; fill: rgb(255, 255, 255); fill-opacity: 1; white-space: pre;" transform="translate(0,243.36)">1000</text></g><g class="ytick"><text text-anchor="end" x="79" y="6.3" style="font-family: 'Open Sans'; font-size: 18px; fill: rgb(255, 255, 255); fill-opacity: 1; white-space: pre;" transform="translate(0,155.04)">1500</text></g></g><g class="overaxes-above"/></g></g><g class="polarlayer"/><g class="smithlayer"/><g class="ternarylayer"/><g class="geolayer"/><g class="funnelarealayer"/><g class="pielayer"/><g class="iciclelayer"/><g class="treemaplayer"/><g class="sunburstlayer"/><g class="glimages"/><defs id="topdefs-44d43d"><g class="clips"/></defs><g class="layer-above"><g class="imagelayer"/><g class="shapelayer"/></g><g class="infolayer"><g class="g-gtitle"><text class="gtitle" x="35" y="50" text-anchor="start" dy="0em" style="opacity: 1; font-family: 'Open Sans'; font-size: 25px; fill: rgb(255, 255, 255); fill-opacity: 1; white-space: pre;">MultiQC/MultiQC - Pull Requests Created Over Time</text></g><g class="g-xtitle"><text class="xtitle" x="350" y="472.9" text-anchor="middle" style="opacity: 1; font-family: 'Open Sans'; font-size: 22px; fill: rgb(255, 255, 255); fill-opacity: 1; white-space: pre;">Date</text></g><g class="g-ytitle"><text class="ytitle" transform="rotate(-90,20.799999999999997,260)" x="20.799999999999997" y="260" text-anchor="middle" style="opacity: 1; font-family: 'Open Sans'; font-size: 22px; fill: rgb(255, 255, 255); fill-opacity: 1; white-space: pre;">Cumulative PRs Created</text></g></g></svg>