<svg class="main-svg" xmlns="http://www.w3.org/2000/svg" xmlns:xlink="http://www.w3.org/1999/xlink" width="700" height="500" style="" viewBox="0 0 700 500"><rect x="0" y="0" width="700" height="500" style="fill: rgb(0, 0, 0); fill-opacity: 0;"/><defs id="defs-52cf1e"><g class="clips"><clipPath id="clip52cf1exyplot" class="plotclip"><rect width="540" height="320"/></clipPath><clipPath class="axesclip" id="clip52cf1ex"><rect x="80" y="0" width="540" height="500"/></clipPath><clipPath class="axesclip" id="clip52cf1ey"><rect x="0" y="100" width="700" height="320"/></clipPath><clipPath class="axesclip" id="clip52cf1exy"><rect x="80" y="100" width="540" height="320"/></clipPath></g><g class="gradients"/><g class="patterns"/></defs><g class="bglayer"><rect class="bg" x="80" y="100" width="540" height="320" style="fill: rgb(0, 0, 0); fill-opacity: 0; stroke-width: 0;"/></g><g class="layer-below"><g class="imagelayer"/><g class="shapelayer"/></g><g class="cartesianlayer"><g class="subplot xy"><g class="layer-subplot"><g class="shapelayer"/><g class="imagelayer"/></g><g class="minor-gridlayer"><g class="x"/><g class="y"/></g><g class="gridlayer"><g class="x"><path class="xgrid crisp" transform="translate(97.4,0)" d="M0,100v320" style="stroke: rgb(255, 255, 255); stroke-opacity: 1; stroke-width: 1px;"/><path class="xgrid crisp" transform="translate(203.93,0)" d="M0,100v320" style="stroke: rgb(255, 255, 255); stroke-opacity: 1; stroke-width: 1px;"/><path class="xgrid crisp" transform="translate(310.32,0)" d="M0,100v320" style="stroke: rgb(255, 255, 255); stroke-opacity: 1; stroke-width: 1px;"/><path class="xgrid crisp" transform="translate(416.85,0)" d="M0,100v320" style="stroke: rgb(255, 255, 255); stroke-opacity: 1; stroke-width: 1px;"/><path class="xgrid crisp" transform="translate(523.23,0)" d="M0,100v320" style="stroke: rgb(255, 255, 255); stroke-opacity: 1; stroke-width: 1px;"/></g><g class="y"><path class="ygrid crisp" transform="translate(0,370.97)" d="M80,0h540" style="stroke: rgb(255, 255, 255); stroke-opacity: 1; stroke-width: 1px;"/><path class="ygrid crisp" transform="translate(0,321.94)" d="M80,0h540" style="stroke: rgb(255, 255, 255); stroke-opacity: 1; stroke-width: 1px;"/><path class="ygrid crisp" transform="translate(0,272.9)" d="M80,0h540" style="stroke: rgb(255, 255, 255); stroke-opacity: 1; stroke-width: 1px;"/><path class="ygrid crisp" transform="translate(0,223.87)" d="M80,0h540" style="stroke: rgb(255, 255, 255); stroke-opacity: 1; stroke-width: 1px;"/><path class="ygrid crisp" transform="translate(0,174.84)" d="M80,0h540" style="stroke: rgb(255, 255, 255); stroke-opacity: 1; stroke-width: 1px;"/><path class="ygrid crisp" transform="translate(0,125.81)" d="M80,0h540" style="stroke: rgb(255, 255, 255); stroke-opacity: 1; stroke-width: 1px;"/></g></g><g class="zerolinelayer"><path class="yzl zl crisp" transform="translate(0,420)" d="M80,0h540" style="stroke: rgb(255, 255, 255); stroke-opacity: 1; stroke-width: 2px;"/></g><g class="layer-between"><g class="shapelayer"/><g class="imagelayer"/></g><path class="xlines-below"/><path class="ylines-below"/><g class="overlines-below"/><g class="xaxislayer-below"/><g class="yaxislayer-below"/><g class="overaxes-below"/><g class="overplot"><g class="xy" transform="translate(80,100)" clip-path="url(#clip52cf1exyplot)"><g class="scatterlayer mlayer"><g class="trace scatter trace09f976" style="stroke-miterlimit: 2;"><g class="fills"><g><path class="js-fill" d="M540,320L0,320L0,315.1L0.1,320L1.06,315.1L1.76,320L1.87,315.1L1.87,320L3.16,315.1L3.64,320L3.93,315.1L3.93,320L4.82,315.1L4.82,320L4.92,320L5.67,315.1L5.67,320L6.28,320L7.14,315.1L7.14,320L7.73,320L9.31,315.1L9.31,320L9.96,315.1L10.19,320L11.94,315.1L11.94,320L14.86,315.1L14.86,320L22.44,315.1L22.44,320L22.65,315.1L22.65,320L24.3,315.1L24.3,310.19L24.45,315.1L25.62,320L27.37,315.1L27.37,320L28.27,310.19L28.27,315.1L28.72,310.19L28.72,315.1L28.72,320L31.63,315.1L31.63,320L31.77,315.1L31.77,320L33.05,315.1L33.05,320L33.66,320L34.58,315.1L34.58,320L35.38,315.1L35.38,320L35.9,320L36.15,315.1L36.24,320L37.47,315.1L38.91,310.19L39.35,315.1L39.48,310.19L39.48,315.1L40.81,320L41.55,315.1L41.55,320L43.3,315.1L43.3,320L44.42,315.1L44.42,320L44.92,300.39L45.03,305.29L45.58,310.19L46.02,315.1L46.48,310.19L46.49,315.1L47.78,310.19L51.73,305.29L51.73,310.19L52.03,315.1L52.85,310.19L53.78,320L55.23,315.1L55.64,320L58.86,315.1L58.87,320L58.87,315.1L60.4,310.19L60.74,315.1L61.55,310.19L62.34,305.29L62.37,310.19L62.37,305.29L62.96,320L64.85,315.1L65.16,320L65.85,315.1L66.01,310.19L67.01,315.1L67.19,305.29L67.32,310.19L68.17,315.1L68.49,310.19L68.49,315.1L69.06,310.19L69.13,300.39L69.24,320L69.33,320L69.94,315.1L70.81,310.19L70.81,315.1L71.56,305.29L71.57,310.19L72.29,305.29L76.92,300.39L77.41,295.48L79.14,320L80.16,315.1L80.16,320L81.16,315.1L82.39,310.19L82.45,315.1L83.38,310.19L83.54,305.29L84.49,295.48L84.49,300.39L84.51,305.29L85.68,295.48L85.69,300.39L86.55,295.48L86.55,300.39L86.84,305.29L87.43,300.39L87.43,305.29L87.44,300.39L89.3,305.29L89.48,300.39L89.48,305.29L90.4,300.39L90.64,305.29L91.38,300.39L91.85,295.48L92.64,300.39L93.38,295.48L93.68,300.39L96,295.48L96.01,300.39L96.61,295.48L96.63,300.39L98.05,305.29L98.57,300.39L98.78,305.29L98.92,300.39L98.93,305.29L99.97,300.39L99.98,270.97L100.7,295.48L100.98,300.39L100.99,305.29L101.14,295.48L101.55,295.48L102.16,290.58L102.89,295.48L103.07,290.58L103.61,280.77L103.78,290.58L103.87,295.48L104.51,275.87L104.6,285.68L104.64,290.58L104.64,285.68L105.63,290.58L106.08,275.87L106.62,280.77L107.7,256.26L108.68,251.35L109.73,256.26L110.02,251.35L110.76,261.16L110.76,261.16L110.89,256.26L111.2,275.87L111.33,270.97L112,266.06L112.51,246.45L112.52,251.35L112.91,256.26L112.95,261.16L113.82,256.26L113.95,251.35L113.97,256.26L115.29,261.16L115.41,280.77L116,275.87L116.01,270.97L116.02,280.77L117.15,275.87L117.15,280.77L119.35,275.87L119.36,270.97L119.36,280.77L121.39,275.87L121.41,280.77L121.41,275.87L122.5,280.77L122.56,275.87L124.45,270.97L125.31,280.77L125.31,275.87L125.47,280.77L125.63,275.87L125.64,280.77L126.49,275.87L126.82,280.77L127.54,275.87L127.57,280.77L129.24,275.87L129.27,280.77L131.16,275.87L131.27,280.77L131.67,275.87L132.17,270.97L132.29,275.87L133.21,270.97L133.21,275.87L133.63,256.26L133.77,256.26L134.17,251.35L134.53,275.87L134.53,275.87L135.54,270.97L135.65,280.77L135.84,280.77L136.55,275.87L137.56,270.97L137.68,266.06L138.26,270.97L138.44,266.06L139.29,251.35L139.32,256.26L140.33,241.55L140.33,236.65L140.34,231.74L140.49,261.16L141.79,256.26L141.9,251.35L141.92,256.26L143.39,251.35L144.18,270.97L145.42,266.06L145.84,270.97L147.48,266.06L148.59,261.16L148.59,266.06L149.95,251.35L149.95,256.26L150.21,261.16L150.24,266.06L150.65,256.26L150.65,261.16L150.98,256.26L150.99,261.16L152,266.06L152.18,275.87L152.9,270.97L153,266.06L154.64,261.16L155.19,246.45L155.2,251.35L155.2,256.26L155.26,270.97L157.1,266.06L157.2,270.97L157.24,266.06L158.87,261.16L158.88,266.06L160.28,261.16L160.28,266.06L160.71,261.16L161.18,256.26L161.88,251.35L161.92,256.26L164.84,261.16L167.95,251.35L168.71,246.45L169.5,251.35L170.22,246.45L170.23,251.35L172.97,246.45L173.44,251.35L174.07,246.45L175.31,241.55L175.57,246.45L175.57,241.55L175.61,280.77L175.61,275.87L178.05,270.97L178.07,275.87L180.46,280.77L181.59,275.87L181.59,280.77L182.24,275.87L182.27,280.77L184.53,275.87L184.69,270.97L186.11,275.87L186.12,280.77L186.72,241.55L186.81,246.45L186.81,241.55L186.84,261.16L188.4,256.26L188.74,241.55L190.44,236.65L190.95,231.74L190.97,236.65L193.21,231.74L193.71,236.65L195.07,231.74L195.38,236.65L195.69,231.74L197.92,226.84L200.98,221.94L201.09,226.84L202.01,221.94L202.73,226.84L202.76,217.03L202.99,221.94L203.9,226.84L204.16,246.45L205,251.35L205.08,256.26L205.18,246.45L208.7,241.55L209.28,246.45L209.98,241.55L210.13,236.65L212.33,231.74L215.36,226.84L216.98,221.94L217,217.03L218.35,212.13L219.15,217.03L219.17,212.13L219.48,246.45L219.49,241.55L220.49,246.45L220.93,251.35L220.94,246.45L222.11,251.35L222.59,261.16L222.97,256.26L222.99,261.16L223.53,246.45L223.57,256.26L224.15,261.16L224.18,266.06L225.11,261.16L226.31,256.26L226.32,261.16L228.36,251.35L228.65,246.45L231.07,241.55L232.22,246.45L233.84,241.55L234.33,236.65L236.69,226.84L236.7,231.74L237.58,217.03L239.45,212.13L239.75,197.42L240.29,192.52L241.38,182.71L241.43,187.61L243.73,153.29L243.81,158.19L243.82,163.1L243.97,148.39L244.39,158.19L244.58,153.29L244.69,148.39L246.01,143.48L246.16,138.58L246.44,153.29L246.44,158.19L246.62,187.61L246.9,177.81L247.41,172.9L248.48,256.26L248.73,251.35L248.91,246.45L248.92,241.55L249.54,256.26L249.63,251.35L249.83,246.45L250.67,256.26L250.77,261.16L250.79,251.35L251.23,266.06L251.55,270.97L251.96,256.26L252,251.35L252.56,266.06L252.81,261.16L252.97,266.06L253.12,261.16L253.83,256.26L253.87,251.35L254.7,256.26L255.21,246.45L255.86,241.55L256.75,231.74L256.75,236.65L256.81,231.74L257.63,226.84L257.63,231.74L258.24,226.84L259.02,221.94L259.13,217.03L260.1,221.94L263.83,217.03L263.93,212.13L264.19,207.23L264.51,212.13L266.14,207.23L267.1,197.42L267.46,192.52L267.86,187.61L269.48,182.71L269.94,168L270.15,182.71L270.15,187.61L271.4,163.1L273.51,158.19L273.58,148.39L274.64,143.48L276.32,133.68L276.35,138.58L276.37,172.9L277.01,153.29L277.3,148.39L277.31,153.29L277.45,148.39L279.64,143.48L281.37,138.58L281.57,133.68L283.36,128.77L283.36,133.68L283.37,128.77L283.37,133.68L284.35,128.77L284.54,123.87L285.24,128.77L285.78,148.39L285.95,143.48L286.21,148.39L286.42,153.29L288,148.39L288.54,153.29L288.88,148.39L290.67,138.58L290.67,143.48L291.49,138.58L291.53,133.68L291.59,128.77L292.78,133.68L293.35,192.52L295.97,187.61L296.47,192.52L296.87,187.61L296.89,192.52L299.77,187.61L300.49,197.42L300.53,192.52L300.64,187.61L300.64,192.52L300.9,192.52L301.61,197.42L301.79,187.61L301.79,192.52L304.2,187.61L304.22,182.71L305.02,177.81L307.1,172.9L307.63,168L307.79,153.29L307.84,177.81L308.2,168L308.67,172.9L309.15,182.71L309.38,177.81L309.65,172.9L310.32,231.74L310.46,236.65L311.7,217.03L312.34,212.13L313.37,187.61L314.35,182.71L315.27,177.81L315.37,172.9L316.24,158.19L316.28,163.1L317.27,109.16L319.52,104.26L321.48,99.35L321.48,94.45L324.95,99.35L325.02,94.45L326.32,89.55L326.74,84.65L328.8,65.03L328.8,60.13L328.94,50.32L329.35,153.29L329.67,148.39L330.12,143.48L330.14,158.19L330.39,153.29L330.55,148.39L331.6,123.87L331.72,128.77L334.12,123.87L334.63,118.97L334.93,123.87L335.91,118.97L336.31,123.87L337.5,118.97L338.99,123.87L339.01,138.58L339.68,133.68L340.41,138.58L340.86,168L341.29,172.9L341.43,168L341.74,182.71L341.95,177.81L342.34,182.71L342.91,177.81L343.76,163.1L344.67,158.19L344.9,148.39L345.55,143.48L346.43,153.29L346.85,148.39L346.85,153.29L347.58,148.39L347.86,153.29L347.86,163.1L348.44,158.19L349.8,153.29L350.02,143.48L350.47,158.19L350.49,158.19L350.49,163.1L351.15,153.29L351.37,148.39L352.18,138.58L352.19,143.48L355.34,138.58L355.74,143.48L357.15,138.58L357.61,133.68L357.61,138.58L358.38,143.48L358.67,138.58L358.76,148.39L359.53,143.48L360.66,128.77L360.66,133.68L361.12,123.87L361.69,118.97L362.14,128.77L362.16,118.97L362.7,123.87L362.7,118.97L363.31,123.87L364.04,118.97L364.19,123.87L364.89,118.97L365.46,114.06L365.67,118.97L366.08,104.26L366.13,114.06L366.93,109.16L366.98,104.26L367.82,99.35L368.96,94.45L369.06,89.55L369.78,69.94L370.15,65.03L370.27,69.94L372.03,65.03L372.32,60.13L373.41,55.23L373.57,99.35L373.69,99.35L375.19,94.45L376.15,89.55L376.16,94.45L378.04,89.55L378.04,94.45L378.47,89.55L380.96,84.65L380.96,89.55L381.65,89.55L382.26,84.65L383.03,65.03L383.1,69.94L384.31,65.03L384.42,55.23L384.87,79.74L384.87,84.65L385.24,79.74L385.47,84.65L386.46,79.74L387.31,60.13L387.53,55.23L388.13,79.74L388.23,65.03L388.43,60.13L389.16,89.55L389.4,84.65L390.05,128.77L390.18,123.87L390.26,128.77L390.26,133.68L390.9,133.68L391.04,138.58L391.06,158.19L391.45,153.29L392.21,158.19L392.22,153.29L392.26,158.19L394.77,153.29L395.39,138.58L395.42,143.48L395.66,148.39L399.3,143.48L399.32,148.39L400.05,138.58L400.98,143.48L402.13,138.58L403.07,133.68L403.07,138.58L404.97,133.68L405.11,123.87L406.16,128.77L406.71,118.97L406.72,114.06L406.73,94.45L410.57,99.35L411.68,79.74L413.85,74.84L414.36,65.03L414.36,69.94L414.36,74.84L416.5,65.03L416.96,60.13L419.8,50.32L419.99,45.42L420.58,40.52L420.58,45.42L420.76,50.32L421.37,74.84L421.51,69.94L422.12,65.03L422.17,69.94L422.5,45.42L422.91,40.52L423.1,25.81L423.3,40.52L423.3,45.42L423.31,55.23L423.96,35.61L424.09,30.71L424.39,25.81L424.49,40.52L424.51,45.42L424.56,40.52L425.24,60.13L425.29,55.23L425.37,50.32L425.38,69.94L425.87,60.13L425.97,65.03L425.97,69.94L426.01,60.13L426.29,60.13L426.98,55.23L427.05,50.32L427.49,79.74L427.49,74.84L427.91,69.94L428.42,35.61L428.62,89.55L428.93,84.65L429.38,55.23L429.53,74.84L429.53,79.74L429.59,89.55L430.17,74.84L430.21,79.74L430.82,74.84L430.97,89.55L431.48,69.94L431.54,69.94L431.55,65.03L432.11,16L432.24,50.32L432.24,55.23L432.25,99.35L432.99,74.84L433.1,69.94L433.43,65.03L433.53,69.94L433.53,74.84L433.67,79.74L433.71,69.94L434.14,74.84L434.34,69.94L435.14,89.55L435.16,84.65L435.33,79.74L435.61,94.45L435.78,74.84L436.15,79.74L436.31,104.26L436.79,99.35L437.2,94.45L437.89,118.97L438.49,114.06L438.85,118.97L438.85,109.16L439.24,104.26L439.5,79.74L440.24,84.65L440.38,109.16L440.7,74.84L440.86,84.65L441.04,89.55L441.26,84.65L441.43,99.35L442.63,94.45L442.76,104.26L442.93,94.45L443.61,89.55L443.77,94.45L443.96,84.65L444.31,79.74L444.34,94.45L444.75,84.65L445.47,79.74L446,74.84L446,79.74L446,84.65L446.54,74.84L446.54,69.94L446.55,65.03L446.59,84.65L446.73,69.94L447.6,65.03L447.84,50.32L447.97,69.94L448.05,74.84L448.78,114.06L449.04,104.26L449.05,99.35L449.42,94.45L449.42,104.26L449.42,109.16L449.42,104.26L449.42,118.97L450.03,114.06L450.27,109.16L450.51,114.06L450.77,94.45L450.9,99.35L450.92,94.45L451.38,128.77L451.67,109.16L451.69,104.26L451.75,94.45L451.77,128.77L451.97,109.16L452.39,104.26L452.78,109.16L453.08,94.45L453.11,94.45L453.12,89.55L453.12,84.65L453.4,114.06L453.42,109.16L453.94,114.06L453.95,133.68L454.69,123.87L454.7,118.97L454.73,123.87L455,109.16L455.29,114.06L455.55,109.16L455.55,114.06L456.01,104.26L456.01,104.26L457.15,99.35L457.76,89.55L457.76,94.45L458.59,89.55L458.64,84.65L458.67,123.87L459.08,118.97L459.64,123.87L459.76,128.77L459.91,109.16L459.91,109.16L459.93,104.26L460.36,89.55L460.68,114.06L460.77,109.16L461.02,99.35L461.38,133.68L461.38,128.77L461.68,133.68L462,118.97L462.29,128.77L462.61,133.68L462.98,138.58L463.3,118.97L463.32,123.87L463.73,118.97L464.84,104.26L465.19,109.16L465.21,104.26L465.35,123.87L465.79,123.87L466.09,118.97L466.11,123.87L466.38,114.06L466.63,123.87L466.94,118.97L467.26,138.58L467.52,128.77L467.85,133.68L468.53,123.87L468.53,128.77L468.78,123.87L468.96,109.16L468.97,128.77L469.15,118.97L469.87,123.87L470.26,118.97L470.43,138.58L470.85,133.68L471.15,128.77L471.16,138.58L471.45,133.68L471.75,128.77L472.44,123.87L472.44,128.77L472.61,133.68L472.62,128.77L472.77,153.29L473.32,148.39L473.39,143.48L473.47,138.58L474.07,153.29L474.09,148.39L474.2,153.29L474.93,128.77L474.93,148.39L474.93,153.29L474.95,148.39L475.08,158.19L475.68,153.29L475.94,148.39L475.94,158.19L476.69,158.19L476.71,153.29L477.26,168L477.26,163.1L477.57,158.19L478.42,153.29L478.55,158.19L479.36,148.39L479.37,143.48L479.47,172.9L480.04,158.19L480.19,153.29L480.94,172.9L480.94,168L481.03,172.9L481.22,158.19L481.36,163.1L481.92,158.19L481.92,163.1L482.05,148.39L482.67,153.29L482.68,148.39L482.68,143.48L483.1,163.1L483.42,158.19L483.45,153.29L484.15,143.48L484.41,148.39L484.41,153.29L484.43,143.48L484.45,148.39L485.42,143.48L485.49,148.39L486.04,138.58L486.05,143.48L486.2,138.58L487.19,123.87L487.19,128.77L487.32,133.68L487.62,123.87L488.56,128.77L488.64,133.68L489.2,123.87L489.2,128.77L489.25,123.87L489.79,148.39L489.82,148.39L490.23,143.48L490.25,153.29L490.97,133.68L491.11,128.77L491.28,123.87L491.28,143.48L491.58,133.68L491.6,138.58L492.27,133.68L492.27,138.58L492.64,133.68L492.64,138.58L492.87,123.87L492.89,138.58L493.58,133.68L493.73,158.19L494.31,153.29L494.34,148.39L494.39,143.48L495.05,172.9L495.84,168L496.24,172.9L496.27,168L496.95,163.1L497.51,172.9L498.31,168L498.76,158.19L499.17,163.1L499.26,168L499.63,158.19L499.63,163.1L499.69,168L499.71,172.9L499.74,163.1L499.87,168L500.43,163.1L500.43,168L500.87,153.29L500.93,158.19L501.64,163.1L501.77,153.29L502.28,163.1L503.16,158.19L504.05,153.29L504.05,158.19L504.05,153.29L504.09,163.1L504.67,163.1L505.57,158.19L505.68,148.39L505.69,163.1L505.84,153.29L506.7,158.19L507.3,138.58L507.64,133.68L508.17,138.58L508.35,133.68L508.35,128.77L509.01,109.16L509.01,138.58L509.11,133.68L509.66,123.87L509.66,133.68L509.66,138.58L510.27,133.68L510.52,138.58L510.64,133.68L510.96,148.39L511.63,153.29L512.12,143.48L512.25,153.29L512.25,158.19L512.25,153.29L512.65,168L512.95,168L513.11,163.1L513.74,158.19L513.82,163.1L513.84,168L514.05,153.29L514.2,158.19L514.86,153.29L515.74,168L515.78,163.1L516.02,168L516.47,158.19L516.74,163.1L517.08,148.39L517.17,158.19L517.97,153.29L518.36,163.1L518.44,148.39L518.8,143.48L519.38,133.68L519.5,158.19L519.51,153.29L519.53,158.19L521.5,128.77L521.91,133.68L521.92,138.58L522.9,133.68L523.62,123.87L523.62,143.48L523.67,138.58L524.5,133.68L525.94,128.77L527.14,109.16L527.25,114.06L527.25,123.87L527.42,109.16L527.46,109.16L529.75,114.06L530.15,104.26L530.18,138.58L530.47,133.68L530.47,143.48L530.6,138.58L531.34,133.68L531.34,128.77L531.63,138.58L531.64,133.68L532.23,128.77L532.36,109.16L532.64,123.87L533.09,128.77L533.69,109.16L534.14,104.26L534.27,109.16L534.44,99.35L534.44,109.16L536.41,104.26L536.41,109.16L538.25,104.26L539.69,84.65L539.85,79.74L539.91,69.94L539.91,84.65L540,84.65" style="fill: rgb(44, 160, 44); fill-opacity: 0.5; stroke-width: 0;"/></g></g><g class="errorbars"/><g class="lines"><path class="js-line" d="M0,315.1L0.1,320L1.06,315.1L1.76,320L1.87,315.1L1.87,320L3.16,315.1L3.64,320L3.93,315.1L3.93,320L4.82,315.1L4.82,320L4.92,320L5.67,315.1L5.67,320L6.28,320L7.14,315.1L7.14,320L7.73,320L9.31,315.1L9.31,320L9.96,315.1L10.19,320L11.94,315.1L11.94,320L14.86,315.1L14.86,320L22.44,315.1L22.44,320L22.65,315.1L22.65,320L24.3,315.1L24.3,310.19L24.45,315.1L25.62,320L27.37,315.1L27.37,320L28.27,310.19L28.27,315.1L28.72,310.19L28.72,315.1L28.72,320L31.63,315.1L31.63,320L31.77,315.1L31.77,320L33.05,315.1L33.05,320L33.66,320L34.58,315.1L34.58,320L35.38,315.1L35.38,320L35.9,320L36.15,315.1L36.24,320L37.47,315.1L38.91,310.19L39.35,315.1L39.48,310.19L39.48,315.1L40.81,320L41.55,315.1L41.55,320L43.3,315.1L43.3,320L44.42,315.1L44.42,320L44.92,300.39L45.03,305.29L45.58,310.19L46.02,315.1L46.48,310.19L46.49,315.1L47.78,310.19L51.73,305.29L51.73,310.19L52.03,315.1L52.85,310.19L53.78,320L55.23,315.1L55.64,320L58.86,315.1L58.87,320L58.87,315.1L60.4,310.19L60.74,315.1L61.55,310.19L62.34,305.29L62.37,310.19L62.37,305.29L62.96,320L64.85,315.1L65.16,320L65.85,315.1L66.01,310.19L67.01,315.1L67.19,305.29L67.32,310.19L68.17,315.1L68.49,310.19L68.49,315.1L69.06,310.19L69.13,300.39L69.24,320L69.33,320L69.94,315.1L70.81,310.19L70.81,315.1L71.56,305.29L71.57,310.19L72.29,305.29L76.92,300.39L77.41,295.48L79.14,320L80.16,315.1L80.16,320L81.16,315.1L82.39,310.19L82.45,315.1L83.38,310.19L83.54,305.29L84.49,295.48L84.49,300.39L84.51,305.29L85.68,295.48L85.69,300.39L86.55,295.48L86.55,300.39L86.84,305.29L87.43,300.39L87.43,305.29L87.44,300.39L89.3,305.29L89.48,300.39L89.48,305.29L90.4,300.39L90.64,305.29L91.38,300.39L91.85,295.48L92.64,300.39L93.38,295.48L93.68,300.39L96,295.48L96.01,300.39L96.61,295.48L96.63,300.39L98.05,305.29L98.57,300.39L98.78,305.29L98.92,300.39L98.93,305.29L99.97,300.39L99.98,270.97L100.7,295.48L100.98,300.39L100.99,305.29L101.14,295.48L101.55,295.48L102.16,290.58L102.89,295.48L103.07,290.58L103.61,280.77L103.78,290.58L103.87,295.48L104.51,275.87L104.6,285.68L104.64,290.58L104.64,285.68L105.63,290.58L106.08,275.87L106.62,280.77L107.7,256.26L108.68,251.35L109.73,256.26L110.02,251.35L110.76,261.16L110.76,261.16L110.89,256.26L111.2,275.87L111.33,270.97L112,266.06L112.51,246.45L112.52,251.35L112.91,256.26L112.95,261.16L113.82,256.26L113.95,251.35L113.97,256.26L115.29,261.16L115.41,280.77L116,275.87L116.01,270.97L116.02,280.77L117.15,275.87L117.15,280.77L119.35,275.87L119.36,270.97L119.36,280.77L121.39,275.87L121.41,280.77L121.41,275.87L122.5,280.77L122.56,275.87L124.45,270.97L125.31,280.77L125.31,275.87L125.47,280.77L125.63,275.87L125.64,280.77L126.49,275.87L126.82,280.77L127.54,275.87L127.57,280.77L129.24,275.87L129.27,280.77L131.16,275.87L131.27,280.77L131.67,275.87L132.17,270.97L132.29,275.87L133.21,270.97L133.21,275.87L133.63,256.26L133.77,256.26L134.17,251.35L134.53,275.87L134.53,275.87L135.54,270.97L135.65,280.77L135.84,280.77L136.55,275.87L137.56,270.97L137.68,266.06L138.26,270.97L138.44,266.06L139.29,251.35L139.32,256.26L140.33,241.55L140.33,236.65L140.34,231.74L140.49,261.16L141.79,256.26L141.9,251.35L141.92,256.26L143.39,251.35L144.18,270.97L145.42,266.06L145.84,270.97L147.48,266.06L148.59,261.16L148.59,266.06L149.95,251.35L149.95,256.26L150.21,261.16L150.24,266.06L150.65,256.26L150.65,261.16L150.98,256.26L150.99,261.16L152,266.06L152.18,275.87L152.9,270.97L153,266.06L154.64,261.16L155.19,246.45L155.2,251.35L155.2,256.26L155.26,270.97L157.1,266.06L157.2,270.97L157.24,266.06L158.87,261.16L158.88,266.06L160.28,261.16L160.28,266.06L160.71,261.16L161.18,256.26L161.88,251.35L161.92,256.26L164.84,261.16L167.95,251.35L168.71,246.45L169.5,251.35L170.22,246.45L170.23,251.35L172.97,246.45L173.44,251.35L174.07,246.45L175.31,241.55L175.57,246.45L175.57,241.55L175.61,280.77L175.61,275.87L178.05,270.97L178.07,275.87L180.46,280.77L181.59,275.87L181.59,280.77L182.24,275.87L182.27,280.77L184.53,275.87L184.69,270.97L186.11,275.87L186.12,280.77L186.72,241.55L186.81,246.45L186.81,241.55L186.84,261.16L188.4,256.26L188.74,241.55L190.44,236.65L190.95,231.74L190.97,236.65L193.21,231.74L193.71,236.65L195.07,231.74L195.38,236.65L195.69,231.74L197.92,226.84L200.98,221.94L201.09,226.84L202.01,221.94L202.73,226.84L202.76,217.03L202.99,221.94L203.9,226.84L204.16,246.45L205,251.35L205.08,256.26L205.18,246.45L208.7,241.55L209.28,246.45L209.98,241.55L210.13,236.65L212.33,231.74L215.36,226.84L216.98,221.94L217,217.03L218.35,212.13L219.15,217.03L219.17,212.13L219.48,246.45L219.49,241.55L220.49,246.45L220.93,251.35L220.94,246.45L222.11,251.35L222.59,261.16L222.97,256.26L222.99,261.16L223.53,246.45L223.57,256.26L224.15,261.16L224.18,266.06L225.11,261.16L226.31,256.26L226.32,261.16L228.36,251.35L228.65,246.45L231.07,241.55L232.22,246.45L233.84,241.55L234.33,236.65L236.69,226.84L236.7,231.74L237.58,217.03L239.45,212.13L239.75,197.42L240.29,192.52L241.38,182.71L241.43,187.61L243.73,153.29L243.81,158.19L243.82,163.1L243.97,148.39L244.39,158.19L244.58,153.29L244.69,148.39L246.01,143.48L246.16,138.58L246.44,153.29L246.44,158.19L246.62,187.61L246.9,177.81L247.41,172.9L248.48,256.26L248.73,251.35L248.91,246.45L248.92,241.55L249.54,256.26L249.63,251.35L249.83,246.45L250.67,256.26L250.77,261.16L250.79,251.35L251.23,266.06L251.55,270.97L251.96,256.26L252,251.35L252.56,266.06L252.81,261.16L252.97,266.06L253.12,261.16L253.83,256.26L253.87,251.35L254.7,256.26L255.21,246.45L255.86,241.55L256.75,231.74L256.75,236.65L256.81,231.74L257.63,226.84L257.63,231.74L258.24,226.84L259.02,221.94L259.13,217.03L260.1,221.94L263.83,217.03L263.93,212.13L264.19,207.23L264.51,212.13L266.14,207.23L267.1,197.42L267.46,192.52L267.86,187.61L269.48,182.71L269.94,168L270.15,182.71L270.15,187.61L271.4,163.1L273.51,158.19L273.58,148.39L274.64,143.48L276.32,133.68L276.35,138.58L276.37,172.9L277.01,153.29L277.3,148.39L277.31,153.29L277.45,148.39L279.64,143.48L281.37,138.58L281.57,133.68L283.36,128.77L283.36,133.68L283.37,128.77L283.37,133.68L284.35,128.77L284.54,123.87L285.24,128.77L285.78,148.39L285.95,143.48L286.21,148.39L286.42,153.29L288,148.39L288.54,153.29L288.88,148.39L290.67,138.58L290.67,143.48L291.49,138.58L291.53,133.68L291.59,128.77L292.78,133.68L293.35,192.52L295.97,187.61L296.47,192.52L296.87,187.61L296.89,192.52L299.77,187.61L300.49,197.42L300.53,192.52L300.64,187.61L300.64,192.52L300.9,192.52L301.61,197.42L301.79,187.61L301.79,192.52L304.2,187.61L304.22,182.71L305.02,177.81L307.1,172.9L307.63,168L307.79,153.29L307.84,177.81L308.2,168L308.67,172.9L309.15,182.71L309.38,177.81L309.65,172.9L310.32,231.74L310.46,236.65L311.7,217.03L312.34,212.13L313.37,187.61L314.35,182.71L315.27,177.81L315.37,172.9L316.24,158.19L316.28,163.1L317.27,109.16L319.52,104.26L321.48,99.35L321.48,94.45L324.95,99.35L325.02,94.45L326.32,89.55L326.74,84.65L328.8,65.03L328.8,60.13L328.94,50.32L329.35,153.29L329.67,148.39L330.12,143.48L330.14,158.19L330.39,153.29L330.55,148.39L331.6,123.87L331.72,128.77L334.12,123.87L334.63,118.97L334.93,123.87L335.91,118.97L336.31,123.87L337.5,118.97L338.99,123.87L339.01,138.58L339.68,133.68L340.41,138.58L340.86,168L341.29,172.9L341.43,168L341.74,182.71L341.95,177.81L342.34,182.71L342.91,177.81L343.76,163.1L344.67,158.19L344.9,148.39L345.55,143.48L346.43,153.29L346.85,148.39L346.85,153.29L347.58,148.39L347.86,153.29L347.86,163.1L348.44,158.19L349.8,153.29L350.02,143.48L350.47,158.19L350.49,158.19L350.49,163.1L351.15,153.29L351.37,148.39L352.18,138.58L352.19,143.48L355.34,138.58L355.74,143.48L357.15,138.58L357.61,133.68L357.61,138.58L358.38,143.48L358.67,138.58L358.76,148.39L359.53,143.48L360.66,128.77L360.66,133.68L361.12,123.87L361.69,118.97L362.14,128.77L362.16,118.97L362.7,123.87L362.7,118.97L363.31,123.87L364.04,118.97L364.19,123.87L364.89,118.97L365.46,114.06L365.67,118.97L366.08,104.26L366.13,114.06L366.93,109.16L366.98,104.26L367.82,99.35L368.96,94.45L369.06,89.55L369.78,69.94L370.15,65.03L370.27,69.94L372.03,65.03L372.32,60.13L373.41,55.23L373.57,99.35L373.69,99.35L375.19,94.45L376.15,89.55L376.16,94.45L378.04,89.55L378.04,94.45L378.47,89.55L380.96,84.65L380.96,89.55L381.65,89.55L382.26,84.65L383.03,65.03L383.1,69.94L384.31,65.03L384.42,55.23L384.87,79.74L384.87,84.65L385.24,79.74L385.47,84.65L386.46,79.74L387.31,60.13L387.53,55.23L388.13,79.74L388.23,65.03L388.43,60.13L389.16,89.55L389.4,84.65L390.05,128.77L390.18,123.87L390.26,128.77L390.26,133.68L390.9,133.68L391.04,138.58L391.06,158.19L391.45,153.29L392.21,158.19L392.22,153.29L392.26,158.19L394.77,153.29L395.39,138.58L395.42,143.48L395.66,148.39L399.3,143.48L399.32,148.39L400.05,138.58L400.98,143.48L402.13,138.58L403.07,133.68L403.07,138.58L404.97,133.68L405.11,123.87L406.16,128.77L406.71,118.97L406.72,114.06L406.73,94.45L410.57,99.35L411.68,79.74L413.85,74.84L414.36,65.03L414.36,69.94L414.36,74.84L416.5,65.03L416.96,60.13L419.8,50.32L419.99,45.42L420.58,40.52L420.58,45.42L420.76,50.32L421.37,74.84L421.51,69.94L422.12,65.03L422.17,69.94L422.5,45.42L422.91,40.52L423.1,25.81L423.3,40.52L423.3,45.42L423.31,55.23L423.96,35.61L424.09,30.71L424.39,25.81L424.49,40.52L424.51,45.42L424.56,40.52L425.24,60.13L425.29,55.23L425.37,50.32L425.38,69.94L425.87,60.13L425.97,65.03L425.97,69.94L426.01,60.13L426.29,60.13L426.98,55.23L427.05,50.32L427.49,79.74L427.49,74.84L427.91,69.94L428.42,35.61L428.62,89.55L428.93,84.65L429.38,55.23L429.53,74.84L429.53,79.74L429.59,89.55L430.17,74.84L430.21,79.74L430.82,74.84L430.97,89.55L431.48,69.94L431.54,69.94L431.55,65.03L432.11,16L432.24,50.32L432.24,55.23L432.25,99.35L432.99,74.84L433.1,69.94L433.43,65.03L433.53,69.94L433.53,74.84L433.67,79.74L433.71,69.94L434.14,74.84L434.34,69.94L435.14,89.55L435.16,84.65L435.33,79.74L435.61,94.45L435.78,74.84L436.15,79.74L436.31,104.26L436.79,99.35L437.2,94.45L437.89,118.97L438.49,114.06L438.85,118.97L438.85,109.16L439.24,104.26L439.5,79.74L440.24,84.65L440.38,109.16L440.7,74.84L440.86,84.65L441.04,89.55L441.26,84.65L441.43,99.35L442.63,94.45L442.76,104.26L442.93,94.45L443.61,89.55L443.77,94.45L443.96,84.65L444.31,79.74L444.34,94.45L444.75,84.65L445.47,79.74L446,74.84L446,79.74L446,84.65L446.54,74.84L446.54,69.94L446.55,65.03L446.59,84.65L446.73,69.94L447.6,65.03L447.84,50.32L447.97,69.94L448.05,74.84L448.78,114.06L449.04,104.26L449.05,99.35L449.42,94.45L449.42,104.26L449.42,109.16L449.42,104.26L449.42,118.97L450.03,114.06L450.27,109.16L450.51,114.06L450.77,94.45L450.9,99.35L450.92,94.45L451.38,128.77L451.67,109.16L451.69,104.26L451.75,94.45L451.77,128.77L451.97,109.16L452.39,104.26L452.78,109.16L453.08,94.45L453.11,94.45L453.12,89.55L453.12,84.65L453.4,114.06L453.42,109.16L453.94,114.06L453.95,133.68L454.69,123.87L454.7,118.97L454.73,123.87L455,109.16L455.29,114.06L455.55,109.16L455.55,114.06L456.01,104.26L456.01,104.26L457.15,99.35L457.76,89.55L457.76,94.45L458.59,89.55L458.64,84.65L458.67,123.87L459.08,118.97L459.64,123.87L459.76,128.77L459.91,109.16L459.91,109.16L459.93,104.26L460.36,89.55L460.68,114.06L460.77,109.16L461.02,99.35L461.38,133.68L461.38,128.77L461.68,133.68L462,118.97L462.29,128.77L462.61,133.68L462.98,138.58L463.3,118.97L463.32,123.87L463.73,118.97L464.84,104.26L465.19,109.16L465.21,104.26L465.35,123.87L465.79,123.87L466.09,118.97L466.11,123.87L466.38,114.06L466.63,123.87L466.94,118.97L467.26,138.58L467.52,128.77L467.85,133.68L468.53,123.87L468.53,128.77L468.78,123.87L468.96,109.16L468.97,128.77L469.15,118.97L469.87,123.87L470.26,118.97L470.43,138.58L470.85,133.68L471.15,128.77L471.16,138.58L471.45,133.68L471.75,128.77L472.44,123.87L472.44,128.77L472.61,133.68L472.62,128.77L472.77,153.29L473.32,148.39L473.39,143.48L473.47,138.58L474.07,153.29L474.09,148.39L474.2,153.29L474.93,128.77L474.93,148.39L474.93,153.29L474.95,148.39L475.08,158.19L475.68,153.29L475.94,148.39L475.94,158.19L476.69,158.19L476.71,153.29L477.26,168L477.26,163.1L477.57,158.19L478.42,153.29L478.55,158.19L479.36,148.39L479.37,143.48L479.47,172.9L480.04,158.19L480.19,153.29L480.94,172.9L480.94,168L481.03,172.9L481.22,158.19L481.36,163.1L481.92,158.19L481.92,163.1L482.05,148.39L482.67,153.29L482.68,148.39L482.68,143.48L483.1,163.1L483.42,158.19L483.45,153.29L484.15,143.48L484.41,148.39L484.41,153.29L484.43,143.48L484.45,148.39L485.42,143.48L485.49,148.39L486.04,138.58L486.05,143.48L486.2,138.58L487.19,123.87L487.19,128.77L487.32,133.68L487.62,123.87L488.56,128.77L488.64,133.68L489.2,123.87L489.2,128.77L489.25,123.87L489.79,148.39L489.82,148.39L490.23,143.48L490.25,153.29L490.97,133.68L491.11,128.77L491.28,123.87L491.28,143.48L491.58,133.68L491.6,138.58L492.27,133.68L492.27,138.58L492.64,133.68L492.64,138.58L492.87,123.87L492.89,138.58L493.58,133.68L493.73,158.19L494.31,153.29L494.34,148.39L494.39,143.48L495.05,172.9L495.84,168L496.24,172.9L496.27,168L496.95,163.1L497.51,172.9L498.31,168L498.76,158.19L499.17,163.1L499.26,168L499.63,158.19L499.63,163.1L499.69,168L499.71,172.9L499.74,163.1L499.87,168L500.43,163.1L500.43,168L500.87,153.29L500.93,158.19L501.64,163.1L501.77,153.29L502.28,163.1L503.16,158.19L504.05,153.29L504.05,158.19L504.05,153.29L504.09,163.1L504.67,163.1L505.57,158.19L505.68,148.39L505.69,163.1L505.84,153.29L506.7,158.19L507.3,138.58L507.64,133.68L508.17,138.58L508.35,133.68L508.35,128.77L509.01,109.16L509.01,138.58L509.11,133.68L509.66,123.87L509.66,133.68L509.66,138.58L510.27,133.68L510.52,138.58L510.64,133.68L510.96,148.39L511.63,153.29L512.12,143.48L512.25,153.29L512.25,158.19L512.25,153.29L512.65,168L512.95,168L513.11,163.1L513.74,158.19L513.82,163.1L513.84,168L514.05,153.29L514.2,158.19L514.86,153.29L515.74,168L515.78,163.1L516.02,168L516.47,158.19L516.74,163.1L517.08,148.39L517.17,158.19L517.97,153.29L518.36,163.1L518.44,148.39L518.8,143.48L519.38,133.68L519.5,158.19L519.51,153.29L519.53,158.19L521.5,128.77L521.91,133.68L521.92,138.58L522.9,133.68L523.62,123.87L523.62,143.48L523.67,138.58L524.5,133.68L525.94,128.77L527.14,109.16L527.25,114.06L527.25,123.87L527.42,109.16L527.46,109.16L529.75,114.06L530.15,104.26L530.18,138.58L530.47,133.68L530.47,143.48L530.6,138.58L531.34,133.68L531.34,128.77L531.63,138.58L531.64,133.68L532.23,128.77L532.36,109.16L532.64,123.87L533.09,128.77L533.69,109.16L534.14,104.26L534.27,109.16L534.44,99.35L534.44,109.16L536.41,104.26L536.41,109.16L538.25,104.26L539.69,84.65L539.85,79.74L539.91,69.94L539.91,84.65L540,84.65" style="vector-effect: none; fill: none; stroke: rgb(44, 160, 44); stroke-opacity: 1; stroke-width: 2px; opacity: 1;"/></g><g class="points"/><g class="text"/></g></g></g></g><g class="zerolinelayer-above"/><path class="xlines-above crisp" d="M0,0" style="fill: none;"/><path class="ylines-above crisp" d="M0,0" style="fill: none;"/><g class="overlines-above"/><g class="xaxislayer-above"><g class="xtick"><text text-anchor="middle" x="0" y="439" transform="translate(97.4,0)" style="font-family: 'Open Sans'; font-size: 18px; fill: rgb(0, 0, 0); fill-opacity: 1; white-space: pre;">2016</text></g><g class="xtick"><text text-anchor="middle" x="0" y="439" style="font-family: 'Open Sans'; font-size: 18px; fill: rgb(0, 0, 0); fill-opacity: 1; white-space: pre;" transform="translate(203.93,0)">2018</text></g><g class="xtick"><text text-anchor="middle" x="0" y="439" style="font-family: 'Open Sans'; font-size: 18px; fill: rgb(0, 0, 0); fill-opacity: 1; white-space: pre;" transform="translate(310.32,0)">2020</text></g><g class="xtick"><text text-anchor="middle" x="0" y="439" style="font-family: 'Open Sans'; font-size: 18px; fill: rgb(0, 0, 0); fill-opacity: 1; white-space: pre;" transform="translate(416.85,0)">2022</text></g><g class="xtick"><text text-anchor="middle" x="0" y="439" style="font-family: 'Open Sans'; font-size: 18px; fill: rgb(0, 0, 0); fill-opacity: 1; white-space: pre;" transform="translate(523.23,0)">2024</text></g></g><g class="yaxislayer-above"><g class="ytick"><text text-anchor="end" x="79" y="6.3" transform="translate(0,420)" style="font-family: 'Open Sans'; font-size: 18px; fill: rgb(0, 0, 0); fill-opacity: 1; white-space: pre;">0</text></g><g class="ytick"><text text-anchor="end" x="79" y="6.3" style="font-family: 'Open Sans'; font-size: 18px; fill: rgb(0, 0, 0); fill-opacity: 1; white-space: pre;" transform="translate(0,370.97)">10</text></g><g class="ytick"><text text-anchor="end" x="79" y="6.3" style="font-family: 'Open Sans'; font-size: 18px; fill: rgb(0, 0, 0); fill-opacity: 1; white-space: pre;" transform="translate(0,321.94)">20</text></g><g class="ytick"><text text-anchor="end" x="79" y="6.3" style="font-family: 'Open Sans'; font-size: 18px; fill: rgb(0, 0, 0); fill-opacity: 1; white-space: pre;" transform="translate(0,272.9)">30</text></g><g class="ytick"><text text-anchor="end" x="79" y="6.3" style="font-family: 'Open Sans'; font-size: 18px; fill: rgb(0, 0, 0); fill-opacity: 1; white-space: pre;" transform="translate(0,223.87)">40</text></g><g class="ytick"><text text-anchor="end" x="79" y="6.3" style="font-family: 'Open Sans'; font-size: 18px; fill: rgb(0, 0, 0); fill-opacity: 1; white-space: pre;" transform="translate(0,174.84)">50</text></g><g class="ytick"><text text-anchor="end" x="79" y="6.3" style="font-family: 'Open Sans'; font-size: 18px; fill: rgb(0, 0, 0); fill-opacity: 1; white-space: pre;" transform="translate(0,125.81)">60</text></g></g><g class="overaxes-above"/></g></g><g class="polarlayer"/><g class="smithlayer"/><g class="ternarylayer"/><g class="geolayer"/><g class="funnelarealayer"/><g class="pielayer"/><g class="iciclelayer"/><g class="treemaplayer"/><g class="sunburstlayer"/><g class="glimages"/><defs id="topdefs-52cf1e"><g class="clips"/></defs><g class="layer-above"><g class="imagelayer"/><g class="shapelayer"/></g><g class="infolayer"><g class="g-gtitle"><text class="gtitle" x="35" y="50" text-anchor="start" dy="0em" style="opacity: 1; font-family: 'Open Sans'; font-size: 25px; fill: rgb(0, 0, 0); fill-opacity: 1; white-space: pre;">MultiQC/MultiQC - Open Pull Requests Over Time</text></g><g class="g-xtitle"><text class="xtitle" x="350" y="472.9" text-anchor="middle" style="opacity: 1; font-family: 'Open Sans'; font-size: 22px; fill: rgb(0, 0, 0); fill-opacity: 1; white-space: pre;">Date</text></g><g class="g-ytitle"><text class="ytitle" transform="rotate(-90,38.8,260)" x="38.8" y="260" text-anchor="middle" style="opacity: 1; font-family: 'Open Sans'; font-size: 22px; fill: rgb(0, 0, 0); fill-opacity: 1; white-space: pre;">Number of Open PRs</text></g></g></svg>