<svg class="main-svg" xmlns="http://www.w3.org/2000/svg" xmlns:xlink="http://www.w3.org/1999/xlink" width="700" height="500" style="" viewBox="0 0 700 500"><rect x="0" y="0" width="700" height="500" style="fill: rgb(0, 0, 0); fill-opacity: 0;"/><defs id="defs-c2af6c"><g class="clips"><clipPath id="clipc2af6cxyplot" class="plotclip"><rect width="540" height="320"/></clipPath><clipPath class="axesclip" id="clipc2af6cx"><rect x="80" y="0" width="540" height="500"/></clipPath><clipPath class="axesclip" id="clipc2af6cy"><rect x="0" y="100" width="700" height="320"/></clipPath><clipPath class="axesclip" id="clipc2af6cxy"><rect x="80" y="100" width="540" height="320"/></clipPath></g><g class="gradients"/><g class="patterns"/></defs><g class="bglayer"><rect class="bg" x="80" y="100" width="540" height="320" style="fill: rgb(0, 0, 0); fill-opacity: 0; stroke-width: 0;"/></g><g class="layer-below"><g class="imagelayer"/><g class="shapelayer"/></g><g class="cartesianlayer"><g class="subplot xy"><g class="layer-subplot"><g class="shapelayer"/><g class="imagelayer"/></g><g class="minor-gridlayer"><g class="x"/><g class="y"/></g><g class="gridlayer"><g class="x"><path class="xgrid crisp" transform="translate(96.59,0)" d="M0,100v320" style="stroke: rgb(255, 255, 255); stroke-opacity: 1; stroke-width: 1px;"/><path class="xgrid crisp" transform="translate(198.18,0)" d="M0,100v320" style="stroke: rgb(255, 255, 255); stroke-opacity: 1; stroke-width: 1px;"/><path class="xgrid crisp" transform="translate(299.62,0)" d="M0,100v320" style="stroke: rgb(255, 255, 255); stroke-opacity: 1; stroke-width: 1px;"/><path class="xgrid crisp" transform="translate(401.21,0)" d="M0,100v320" style="stroke: rgb(255, 255, 255); stroke-opacity: 1; stroke-width: 1px;"/><path class="xgrid crisp" transform="translate(502.66,0)" d="M0,100v320" style="stroke: rgb(255, 255, 255); stroke-opacity: 1; stroke-width: 1px;"/><path class="xgrid crisp" transform="translate(604.24,0)" d="M0,100v320" style="stroke: rgb(255, 255, 255); stroke-opacity: 1; stroke-width: 1px;"/></g><g class="y"><path class="ygrid crisp" transform="translate(0,366.67)" d="M80,0h540" style="stroke: rgb(255, 255, 255); stroke-opacity: 1; stroke-width: 1px;"/><path class="ygrid crisp" transform="translate(0,313.33000000000004)" d="M80,0h540" style="stroke: rgb(255, 255, 255); stroke-opacity: 1; stroke-width: 1px;"/><path class="ygrid crisp" transform="translate(0,260)" d="M80,0h540" style="stroke: rgb(255, 255, 255); stroke-opacity: 1; stroke-width: 1px;"/><path class="ygrid crisp" transform="translate(0,206.67000000000002)" d="M80,0h540" style="stroke: rgb(255, 255, 255); stroke-opacity: 1; stroke-width: 1px;"/><path class="ygrid crisp" transform="translate(0,153.32999999999998)" d="M80,0h540" style="stroke: rgb(255, 255, 255); stroke-opacity: 1; stroke-width: 1px;"/></g></g><g class="zerolinelayer"><path class="yzl zl crisp" transform="translate(0,420)" d="M80,0h540" style="stroke: rgb(255, 255, 255); stroke-opacity: 1; stroke-width: 2px;"/></g><g class="layer-between"><g class="shapelayer"/><g class="imagelayer"/></g><path class="xlines-below"/><path class="ylines-below"/><g class="overlines-below"/><g class="xaxislayer-below"/><g class="yaxislayer-below"/><g class="overaxes-below"/><g class="overplot"><g class="xy" transform="translate(80,100)" clip-path="url(#clipc2af6cxyplot)"><g class="scatterlayer mlayer"><g class="trace scatter trace7f372f" style="stroke-miterlimit: 2;"><g class="fills"><g><path class="js-fill" d="M540,320L0,320L0,317.33L0.1,320L1.01,317.33L1.68,320L1.78,317.33L1.78,320L3.02,317.33L3.75,320L4.59,317.33L4.59,320L4.69,320L5.41,317.33L5.41,320L5.98,320L6.8,317.33L6.8,320L7.37,320L8.87,317.33L8.87,320L9.5,317.33L9.71,320L11.39,317.33L11.39,320L14.17,317.33L14.17,320L21.4,317.33L21.4,320L21.59,317.33L21.59,320L23.17,317.33L23.17,314.67L23.31,317.33L24.43,320L26.1,317.33L26.1,320L27.39,314.67L27.39,317.33L27.39,320L30.16,317.33L30.16,320L30.3,320L31.52,317.33L31.52,320L32.1,320L32.98,317.33L32.98,320L33.73,320L33.78,317.33L33.78,320L34.47,317.33L34.56,320L37.1,314.67L37.53,317.33L37.64,314.67L37.65,317.33L38.91,320L39.62,317.33L39.62,320L41.29,317.33L41.29,320L42.36,317.33L42.36,320L42.84,309.33L42.94,312L43.46,314.67L43.89,317.33L44.32,314.67L44.33,317.33L45.56,314.67L49.33,312L49.33,314.67L49.62,317.33L50.4,314.67L51.28,320L52.67,317.33L52.67,320L53.05,320L56.13,317.33L56.13,320L56.13,317.33L57.6,314.67L57.92,317.33L58.69,314.67L59.44,312L59.47,314.67L59.48,312L60.04,320L61.84,317.33L62.13,320L62.8,317.33L62.95,314.67L63.9,317.33L64.07,312L64.19,314.67L65.01,317.33L65.31,314.67L65.31,317.33L65.85,314.67L65.92,309.33L66.03,320L66.11,320L66.69,317.33L67.52,314.67L67.52,317.33L68.24,312L68.24,314.67L68.93,312L73.35,309.33L73.81,306.67L75.46,320L76.44,317.33L76.44,320L77.39,317.33L78.56,314.67L78.62,317.33L79.66,312L80.06,309.33L80.56,306.67L80.56,309.33L80.58,312L81.7,306.67L81.71,309.33L82.53,306.67L82.53,309.33L82.81,312L83.37,309.33L83.37,312L83.38,309.33L85.15,312L85.33,309.33L85.33,312L86.2,309.33L86.43,312L87.14,309.33L87.59,306.67L88.34,309.33L89.04,306.67L89.33,309.33L91.55,306.67L91.55,309.33L92.12,306.67L92.15,309.33L93.5,312L93.99,309.33L94.19,312L94.33,309.33L94.34,312L95.33,309.33L95.34,293.33L96.02,306.67L96.29,309.33L96.3,312L96.45,306.67L96.84,306.67L97.41,304L98.11,306.67L98.29,304L98.8,298.67L98.96,304L99.05,306.67L99.66,296L99.78,301.33L100.73,304L101.15,296L101.15,296L101.67,298.67L102.7,285.33L103.64,282.67L104.64,285.33L104.92,282.67L105.04,288L105.62,288L105.74,285.33L106.04,296L106.16,293.33L106.8,290.67L107.29,280L107.29,282.67L107.67,285.33L107.7,288L108.54,285.33L108.66,282.67L108.67,285.33L109.94,288L110.63,298.67L111.71,296L111.71,298.67L113.81,296L113.82,293.33L113.82,298.67L115.76,296L115.77,298.67L115.77,296L116.81,298.67L116.86,296L118.67,293.33L119.64,298.67L119.78,296L119.81,298.67L120.62,296L120.93,298.67L121.62,296L121.65,298.67L123.24,296L123.27,298.67L125.07,296L125.18,298.67L125.56,296L126.03,293.33L126.15,296L127.02,293.33L127.02,296L127.42,285.33L127.56,285.33L127.94,282.67L128.28,296L128.28,296L129.24,293.33L129.53,298.67L130.21,296L131.17,293.33L131.29,290.67L131.29,293.33L132.02,290.67L132.12,288L132.83,282.67L132.85,285.33L133.16,282.67L133.37,285.33L133.81,282.67L133.82,280L133.82,272L133.97,288L135.2,285.33L135.32,282.67L135.33,285.33L136.73,282.67L137.48,293.33L138.67,290.67L139.07,293.33L140.63,290.67L141.69,288L141.69,290.67L142.98,282.67L142.99,285.33L143.24,288L143.26,290.67L143.65,285.33L143.98,288L144.94,290.67L145.11,296L145.8,293.33L145.89,290.67L147.46,288L147.99,280L148,285.33L148,288L148.05,293.33L149.81,290.67L149.9,293.33L149.94,290.67L151.49,288L151.51,290.67L152.84,288L152.84,290.67L153.25,288L153.69,285.33L154.37,282.67L154.4,285.33L157.19,288L160.16,282.67L160.87,280L161.63,282.67L162.32,280L162.33,282.67L164.94,280L165.39,282.67L165.98,280L167.17,277.33L167.41,280L167.41,277.33L167.45,298.67L167.46,296L169.79,293.33L169.8,296L172.08,298.67L173.16,296L173.16,298.67L173.77,296L173.8,298.67L175.96,296L176.12,293.33L177.47,296L177.48,298.67L178.06,277.33L178.17,288L179.65,285.33L179.97,277.33L181.6,274.67L182.09,272L182.1,274.67L184.24,272L184.72,274.67L186.01,272L186.31,274.67L186.6,272L188.73,269.33L191.65,266.67L191.75,269.33L192.63,266.67L193.31,269.33L193.35,264L193.57,266.67L194.43,269.33L194.68,280L195.49,282.67L195.56,285.33L195.66,280L199.01,277.33L199.56,280L200.23,277.33L200.37,274.67L202.47,272L205.36,269.33L206.91,266.67L206.93,264L208.21,261.33L208.98,264L209,261.33L209.29,280L209.3,277.33L210.26,280L210.67,282.67L210.68,280L211.8,282.67L212.25,288L212.61,285.33L212.63,288L213.15,280L213.19,285.33L213.74,288L213.77,290.67L214.65,288L215.81,285.33L215.82,288L217.76,282.67L218.03,280L220.34,277.33L221.44,280L222.98,277.33L223.45,274.67L225.7,269.33L225.71,272L226.55,264L228.34,261.33L228.62,253.33L229.13,250.67L230.17,245.33L230.22,248L232.41,229.33L232.49,232L232.49,234.67L232.65,226.67L233.22,229.33L233.33,226.67L234.59,224L234.74,221.33L235,232L235,234.67L235.17,248L235.44,242.67L235.92,240L236.95,285.33L237.18,282.67L237.35,280L237.37,277.33L237.95,285.33L238.04,282.67L238.23,280L239.13,288L239.14,285.33L239.14,282.67L239.87,293.33L240.11,290.67L240.11,293.33L240.3,282.67L240.84,290.67L241.08,288L241.08,290.67L241.37,288L242.05,285.33L242.08,282.67L242.88,285.33L243.36,280L243.98,277.33L244.83,272L244.83,274.67L245.67,269.33L245.67,272L247.1,264L248.03,266.67L251.58,264L251.68,261.33L251.92,258.67L252.22,261.33L253.78,258.67L254.7,253.33L255.04,250.67L255.42,248L256.97,245.33L257.4,237.33L257.6,245.33L257.6,248L258.8,234.67L260.81,232L260.88,226.67L261.88,224L263.49,218.67L263.52,221.33L263.54,240L264.15,229.33L264.43,226.67L264.43,229.33L264.57,226.67L266.66,224L268.31,221.33L268.49,218.67L270.21,216L270.21,218.67L270.21,216L270.21,218.67L271.15,216L271.33,213.33L271.99,216L272.93,226.67L273.13,229.33L274.63,226.67L275.14,229.33L276.49,224L277.17,221.33L277.17,224L277.95,221.33L278.06,216L279.18,218.67L279.73,250.67L282.23,248L282.7,250.67L283.09,248L283.11,250.67L285.86,248L286.54,253.33L286.58,250.67L286.68,248L286.93,250.67L287.6,253.33L287.78,248L287.78,250.67L290.08,248L290.09,245.33L290.86,242.67L292.84,240L293.35,237.33L293.5,229.33L293.55,242.67L293.89,237.33L294.34,240L294.8,245.33L295.02,242.67L295.27,240L296.05,274.67L296.27,272L297.23,264L297.84,261.33L298.82,248L299.76,245.33L300.73,240L300.79,237.33L302.21,226.67L302.23,224L302.54,205.33L304.69,202.67L306.55,200L306.55,197.33L309.86,200L309.93,197.33L311.57,192L312.14,189.33L313.54,181.33L313.54,178.67L313.67,173.33L314.06,229.33L314.36,226.67L314.79,224L314.81,232L315.06,229.33L315.2,226.67L316.21,213.33L316.32,216L318.61,213.33L319.1,210.67L319.38,213.33L320.32,210.67L320.7,213.33L321.83,210.67L323.25,213.33L323.27,221.33L323.91,218.67L324.61,221.33L325.03,237.33L325.44,240L325.58,237.33L325.87,245.33L326.07,242.67L326.44,245.33L326.99,242.67L327.8,234.67L328.66,232L328.88,226.67L329.51,224L330.35,229.33L330.74,226.67L330.75,229.33L331.44,226.67L331.71,229.33L331.71,234.67L332.26,232L333.56,229.33L333.77,224L334.2,232L334.21,232L334.21,234.67L334.84,229.33L335.06,226.67L335.82,221.33L335.84,224L338.85,221.33L339.22,224L340.57,221.33L341,218.67L341.01,221.33L341.74,224L342.02,221.33L342.1,226.67L342.83,224L343.92,216L343.92,218.67L344.35,213.33L344.9,210.67L345.32,216L345.34,210.67L345.86,213.33L345.86,210.67L346.44,213.33L347.14,210.67L347.28,213.33L347.94,210.67L349.07,205.33L349.08,202.67L349.14,208L349.9,205.33L349.94,202.67L350.74,200L351.83,197.33L351.92,194.67L352.61,184L352.97,181.33L353.08,184L354.75,181.33L355.03,178.67L356.08,176L356.22,200L356.34,200L357.77,197.33L358.68,194.67L358.69,197.33L360.49,194.67L360.49,197.33L360.9,194.67L363.27,192L363.27,194.67L363.93,194.67L364.51,192L365.25,181.33L365.31,184L366.47,181.33L366.57,176L367,192L367.36,189.33L367.57,192L368.52,189.33L369.33,178.67L369.53,176L370.11,189.33L370.21,181.33L370.4,178.67L371.09,194.67L371.32,192L372.14,218.67L372.21,216L372.91,232L373.27,229.33L374.05,232L376.44,229.33L377.03,221.33L377.06,224L377.29,226.67L380.76,224L380.78,226.67L381.48,221.33L382.36,224L383.46,221.33L384.36,218.67L384.36,221.33L386.16,218.67L386.3,213.33L387.3,216L387.84,208L387.84,205.33L387.85,197.33L391.51,200L392.57,189.33L394.63,186.67L395.12,181.33L395.12,184L395.12,186.67L397.16,181.33L397.6,178.67L400.31,173.33L400.49,170.67L401.05,168L401.05,170.67L401.22,173.33L401.81,186.67L401.94,184L402.53,181.33L402.57,184L402.88,170.67L403.28,168L403.46,160L403.65,170.67L403.66,173.33L403.66,176L404.4,162.67L404.54,160L405.27,178.67L405.32,176L405.62,173.33L405.63,184L406.06,176L406.1,178.67L406.2,184L406.5,178.67L407.16,176L407.22,173.33L407.64,189.33L407.64,186.67L408.04,184L408.53,165.33L408.72,194.67L409.02,192L409.44,176L409.59,189.33L409.59,192L409.64,194.67L410.19,186.67L410.23,189.33L410.82,186.67L410.96,194.67L411.51,181.33L411.59,178.67L411.65,181.33L412.01,165.33L412.02,162.67L412.05,154.67L412.18,200L412.49,189.33L412.89,186.67L413.3,181.33L413.53,189.33L413.57,186.67L413.96,184L414.6,192L414.94,194.67L415.23,197.33L415.55,186.67L415.9,189.33L416.05,202.67L416.51,200L416.91,197.33L417.55,210.67L418.13,208L418.47,210.67L418.85,200L418.86,197.33L419.09,189.33L419.8,192L419.94,205.33L420.24,186.67L420.4,192L420.56,194.67L420.78,192L420.94,200L422.07,197.33L422.21,202.67L422.37,197.33L423.02,194.67L423.17,197.33L423.35,192L423.68,189.33L423.71,197.33L424.1,192L424.79,189.33L425.29,186.67L425.29,189.33L425.29,192L425.81,186.67L425.81,184L425.82,181.33L425.85,192L425.99,184L426.82,181.33L427.04,173.33L427.17,184L427.24,186.67L427.94,208L428.2,202.67L428.2,200L428.55,197.33L428.55,202.67L428.55,205.33L428.55,202.67L428.56,210.67L429.14,208L429.36,205.33L429.6,208L429.84,197.33L429.97,200L429.98,197.33L430.42,216L430.72,202.67L430.77,200L430.78,197.33L430.79,216L431.48,202.67L431.62,200L431.75,205.33L432.09,192L432.35,194.67L432.87,218.67L433.03,216L433.44,218.67L433.87,205.33L434.16,208L434.4,205.33L434.4,208L434.83,202.67L434.84,202.67L435.92,200L436.51,194.67L436.51,197.33L437.3,194.67L437.35,192L437.37,213.33L437.77,210.67L438.3,213.33L438.41,216L438.57,202.67L438.58,200L438.98,194.67L439.02,200L439.23,202.67L439.25,200L439.96,218.67L439.96,216L440.25,218.67L440.28,210.67L440.82,216L441.13,218.67L441.48,221.33L441.79,210.67L441.81,213.33L442.2,210.67L443.26,202.67L443.59,205.33L443.61,202.67L443.74,213.33L444.16,213.33L444.45,210.67L444.46,213.33L444.73,208L444.97,213.33L445.26,210.67L445.57,221.33L445.82,216L446.12,218.67L446.78,213.33L446.78,216L447.02,213.33L447.18,205.33L447.19,216L447.37,210.67L448.06,213.33L448.06,210.67L448.59,221.33L448.99,218.67L449.28,216L449.29,221.33L449.56,218.67L449.85,216L450.5,213.33L450.5,216L450.66,218.67L450.68,216L450.82,229.33L451.2,226.67L451.34,229.33L451.49,221.33L452.08,226.67L452.18,229.33L452.88,216L452.88,226.67L452.88,229.33L452.9,226.67L453.02,232L453.59,229.33L453.84,226.67L453.84,232L454.58,229.33L454.69,232L454.71,237.33L455.39,232L456.21,229.33L456.34,232L456.98,229.33L457.13,224L457.18,237.33L457.21,237.33L457.21,240L457.9,229.33L457.9,237.33L457.9,240L458.58,234.67L458.61,237.33L458.69,240L459,232L459.01,234.67L459.55,232L459.55,234.67L460.27,224L460.28,226.67L460.54,229.33L460.85,234.67L461.07,226.67L461.67,224L461.94,229.33L461.96,226.67L462.89,224L462.89,226.67L463.48,221.33L463.62,221.33L464.13,218.67L464.57,213.33L464.84,218.67L464.97,216L464.98,213.33L465.87,216L466.49,213.33L466.78,224L466.81,221.33L467.51,229.33L467.75,226.67L467.75,224L467.75,226.67L468.46,213.33L468.47,224L468.51,221.33L469.41,218.67L469.41,221.33L469.97,216L469.98,213.33L470.73,224L470.74,226.67L470.81,232L471.44,224L471.44,226.67L471.5,229.33L471.54,224L472.06,240L472.82,237.33L473.2,240L473.23,237.33L473.87,234.67L474.41,240L475.17,237.33L475.6,232L476,234.67L476.08,237.33L476.43,232L476.49,237.33L476.51,240L476.54,234.67L477.25,237.33L477.35,234.67L477.67,229.33L477.67,232L478.35,234.67L478.48,229.33L478.96,234.67L479.8,232L480.65,229.33L480.65,232L480.65,229.33L480.69,234.67L481.24,234.67L482.09,232L482.2,226.67L482.22,234.67L482.35,229.33L483.17,232L483.75,221.33L484.07,218.67L484.58,221.33L484.75,218.67L484.75,216L485.37,205.33L485.38,221.33L485.47,218.67L485.72,216L485.99,213.33L486,218.67L486,221.33L486.58,218.67L486.81,221.33L486.93,218.67L487.24,226.67L487.87,229.33L488.34,224L488.46,229.33L488.46,232L488.46,229.33L488.85,237.33L489.13,237.33L489.28,234.67L489.88,232L489.97,234.67L489.99,237.33L490.18,229.33L490.32,232L490.96,229.33L491.79,237.33L491.83,234.67L492.06,237.33L492.49,232L492.75,234.67L493.07,226.67L493.16,232L493.92,229.33L494.3,234.67L494.72,221.33L495.26,218.67L495.41,232L495.99,224L496.54,221.33L497.29,216L497.68,218.67L497.68,221.33L498.63,218.67L498.87,224L499.31,213.33L499.36,221.33L499.44,218.67L499.84,221.33L500.15,218.67L501.52,216L502.66,205.33L502.77,208L502.77,210.67L502.77,213.33L502.93,205.33L502.97,205.33L505.15,208L505.54,202.67L505.57,221.33L505.84,221.33L505.85,224L506.67,216L506.68,218.67L506.94,221.33L507.65,205.33L507.69,208L507.79,210.67L507.89,208L508.34,216L508.49,208L508.91,205.33L509.43,200L509.44,202.67L509.46,205.33L509.62,200L509.62,205.33L511.5,202.67L511.5,205.33L513.26,202.67L514.78,189.33L514.83,186.67L514.84,184L514.84,192L515.29,189.33L515.62,186.67L517.12,181.33L517.35,178.67L517.36,181.33L517.83,173.33L518.96,170.67L519.61,160L519.61,157.33L519.61,160L520.19,144L520.29,144L520.55,141.33L520.55,144L521,130.67L521.28,130.67L521.39,128L521.39,130.67L522.13,122.67L522.21,125.33L522.95,112L525.22,109.33L526.46,90.67L527.4,88L529.07,82.67L530.85,80L531.44,69.33L531.77,66.67L533.15,50.67L533.41,48L534.81,42.67L535.04,40L535.9,32L536.31,29.33L537.55,26.67L537.56,24L538.94,18.67L539.57,16L539.57,18.67L540,18.67" style="fill: rgb(44, 160, 44); fill-opacity: 0.5; stroke-width: 0;"/></g></g><g class="errorbars"/><g class="lines"><path class="js-line" d="M0,317.33L0.1,320L1.01,317.33L1.68,320L1.78,317.33L1.78,320L3.02,317.33L3.75,320L4.59,317.33L4.59,320L4.69,320L5.41,317.33L5.41,320L5.98,320L6.8,317.33L6.8,320L7.37,320L8.87,317.33L8.87,320L9.5,317.33L9.71,320L11.39,317.33L11.39,320L14.17,317.33L14.17,320L21.4,317.33L21.4,320L21.59,317.33L21.59,320L23.17,317.33L23.17,314.67L23.31,317.33L24.43,320L26.1,317.33L26.1,320L27.39,314.67L27.39,317.33L27.39,320L30.16,317.33L30.16,320L30.3,320L31.52,317.33L31.52,320L32.1,320L32.98,317.33L32.98,320L33.73,320L33.78,317.33L33.78,320L34.47,317.33L34.56,320L37.1,314.67L37.53,317.33L37.64,314.67L37.65,317.33L38.91,320L39.62,317.33L39.62,320L41.29,317.33L41.29,320L42.36,317.33L42.36,320L42.84,309.33L42.94,312L43.46,314.67L43.89,317.33L44.32,314.67L44.33,317.33L45.56,314.67L49.33,312L49.33,314.67L49.62,317.33L50.4,314.67L51.28,320L52.67,317.33L52.67,320L53.05,320L56.13,317.33L56.13,320L56.13,317.33L57.6,314.67L57.92,317.33L58.69,314.67L59.44,312L59.47,314.67L59.48,312L60.04,320L61.84,317.33L62.13,320L62.8,317.33L62.95,314.67L63.9,317.33L64.07,312L64.19,314.67L65.01,317.33L65.31,314.67L65.31,317.33L65.85,314.67L65.92,309.33L66.03,320L66.11,320L66.69,317.33L67.52,314.67L67.52,317.33L68.24,312L68.24,314.67L68.93,312L73.35,309.33L73.81,306.67L75.46,320L76.44,317.33L76.44,320L77.39,317.33L78.56,314.67L78.62,317.33L79.66,312L80.06,309.33L80.56,306.67L80.56,309.33L80.58,312L81.7,306.67L81.71,309.33L82.53,306.67L82.53,309.33L82.81,312L83.37,309.33L83.37,312L83.38,309.33L85.15,312L85.33,309.33L85.33,312L86.2,309.33L86.43,312L87.14,309.33L87.59,306.67L88.34,309.33L89.04,306.67L89.33,309.33L91.55,306.67L91.55,309.33L92.12,306.67L92.15,309.33L93.5,312L93.99,309.33L94.19,312L94.33,309.33L94.34,312L95.33,309.33L95.34,293.33L96.02,306.67L96.29,309.33L96.3,312L96.45,306.67L96.84,306.67L97.41,304L98.11,306.67L98.29,304L98.8,298.67L98.96,304L99.05,306.67L99.66,296L99.78,301.33L100.73,304L101.15,296L101.15,296L101.67,298.67L102.7,285.33L103.64,282.67L104.64,285.33L104.92,282.67L105.04,288L105.62,288L105.74,285.33L106.04,296L106.16,293.33L106.8,290.67L107.29,280L107.29,282.67L107.67,285.33L107.7,288L108.54,285.33L108.66,282.67L108.67,285.33L109.94,288L110.63,298.67L111.71,296L111.71,298.67L113.81,296L113.82,293.33L113.82,298.67L115.76,296L115.77,298.67L115.77,296L116.81,298.67L116.86,296L118.67,293.33L119.64,298.67L119.78,296L119.81,298.67L120.62,296L120.93,298.67L121.62,296L121.65,298.67L123.24,296L123.27,298.67L125.07,296L125.18,298.67L125.56,296L126.03,293.33L126.15,296L127.02,293.33L127.02,296L127.42,285.33L127.56,285.33L127.94,282.67L128.28,296L128.28,296L129.24,293.33L129.53,298.67L130.21,296L131.17,293.33L131.29,290.67L131.29,293.33L132.02,290.67L132.12,288L132.83,282.67L132.85,285.33L133.16,282.67L133.37,285.33L133.81,282.67L133.82,280L133.82,272L133.97,288L135.2,285.33L135.32,282.67L135.33,285.33L136.73,282.67L137.48,293.33L138.67,290.67L139.07,293.33L140.63,290.67L141.69,288L141.69,290.67L142.98,282.67L142.99,285.33L143.24,288L143.26,290.67L143.65,285.33L143.98,288L144.94,290.67L145.11,296L145.8,293.33L145.89,290.67L147.46,288L147.99,280L148,285.33L148,288L148.05,293.33L149.81,290.67L149.9,293.33L149.94,290.67L151.49,288L151.51,290.67L152.84,288L152.84,290.67L153.25,288L153.69,285.33L154.37,282.67L154.4,285.33L157.19,288L160.16,282.67L160.87,280L161.63,282.67L162.32,280L162.33,282.67L164.94,280L165.39,282.67L165.98,280L167.17,277.33L167.41,280L167.41,277.33L167.45,298.67L167.46,296L169.79,293.33L169.8,296L172.08,298.67L173.16,296L173.16,298.67L173.77,296L173.8,298.67L175.96,296L176.12,293.33L177.47,296L177.48,298.67L178.06,277.33L178.17,288L179.65,285.33L179.97,277.33L181.6,274.67L182.09,272L182.1,274.67L184.24,272L184.72,274.67L186.01,272L186.31,274.67L186.6,272L188.73,269.33L191.65,266.67L191.75,269.33L192.63,266.67L193.31,269.33L193.35,264L193.57,266.67L194.43,269.33L194.68,280L195.49,282.67L195.56,285.33L195.66,280L199.01,277.33L199.56,280L200.23,277.33L200.37,274.67L202.47,272L205.36,269.33L206.91,266.67L206.93,264L208.21,261.33L208.98,264L209,261.33L209.29,280L209.3,277.33L210.26,280L210.67,282.67L210.68,280L211.8,282.67L212.25,288L212.61,285.33L212.63,288L213.15,280L213.19,285.33L213.74,288L213.77,290.67L214.65,288L215.81,285.33L215.82,288L217.76,282.67L218.03,280L220.34,277.33L221.44,280L222.98,277.33L223.45,274.67L225.7,269.33L225.71,272L226.55,264L228.34,261.33L228.62,253.33L229.13,250.67L230.17,245.33L230.22,248L232.41,229.33L232.49,232L232.49,234.67L232.65,226.67L233.22,229.33L233.33,226.67L234.59,224L234.74,221.33L235,232L235,234.67L235.17,248L235.44,242.67L235.92,240L236.95,285.33L237.18,282.67L237.35,280L237.37,277.33L237.95,285.33L238.04,282.67L238.23,280L239.13,288L239.14,285.33L239.14,282.67L239.87,293.33L240.11,290.67L240.11,293.33L240.3,282.67L240.84,290.67L241.08,288L241.08,290.67L241.37,288L242.05,285.33L242.08,282.67L242.88,285.33L243.36,280L243.98,277.33L244.83,272L244.83,274.67L245.67,269.33L245.67,272L247.1,264L248.03,266.67L251.58,264L251.68,261.33L251.92,258.67L252.22,261.33L253.78,258.67L254.7,253.33L255.04,250.67L255.42,248L256.97,245.33L257.4,237.33L257.6,245.33L257.6,248L258.8,234.67L260.81,232L260.88,226.67L261.88,224L263.49,218.67L263.52,221.33L263.54,240L264.15,229.33L264.43,226.67L264.43,229.33L264.57,226.67L266.66,224L268.31,221.33L268.49,218.67L270.21,216L270.21,218.67L270.21,216L270.21,218.67L271.15,216L271.33,213.33L271.99,216L272.93,226.67L273.13,229.33L274.63,226.67L275.14,229.33L276.49,224L277.17,221.33L277.17,224L277.95,221.33L278.06,216L279.18,218.67L279.73,250.67L282.23,248L282.7,250.67L283.09,248L283.11,250.67L285.86,248L286.54,253.33L286.58,250.67L286.68,248L286.93,250.67L287.6,253.33L287.78,248L287.78,250.67L290.08,248L290.09,245.33L290.86,242.67L292.84,240L293.35,237.33L293.5,229.33L293.55,242.67L293.89,237.33L294.34,240L294.8,245.33L295.02,242.67L295.27,240L296.05,274.67L296.27,272L297.23,264L297.84,261.33L298.82,248L299.76,245.33L300.73,240L300.79,237.33L302.21,226.67L302.23,224L302.54,205.33L304.69,202.67L306.55,200L306.55,197.33L309.86,200L309.93,197.33L311.57,192L312.14,189.33L313.54,181.33L313.54,178.67L313.67,173.33L314.06,229.33L314.36,226.67L314.79,224L314.81,232L315.06,229.33L315.2,226.67L316.21,213.33L316.32,216L318.61,213.33L319.1,210.67L319.38,213.33L320.32,210.67L320.7,213.33L321.83,210.67L323.25,213.33L323.27,221.33L323.91,218.67L324.61,221.33L325.03,237.33L325.44,240L325.58,237.33L325.87,245.33L326.07,242.67L326.44,245.33L326.99,242.67L327.8,234.67L328.66,232L328.88,226.67L329.51,224L330.35,229.33L330.74,226.67L330.75,229.33L331.44,226.67L331.71,229.33L331.71,234.67L332.26,232L333.56,229.33L333.77,224L334.2,232L334.21,232L334.21,234.67L334.84,229.33L335.06,226.67L335.82,221.33L335.84,224L338.85,221.33L339.22,224L340.57,221.33L341,218.67L341.01,221.33L341.74,224L342.02,221.33L342.1,226.67L342.83,224L343.92,216L343.92,218.67L344.35,213.33L344.9,210.67L345.32,216L345.34,210.67L345.86,213.33L345.86,210.67L346.44,213.33L347.14,210.67L347.28,213.33L347.94,210.67L349.07,205.33L349.08,202.67L349.14,208L349.9,205.33L349.94,202.67L350.74,200L351.83,197.33L351.92,194.67L352.61,184L352.97,181.33L353.08,184L354.75,181.33L355.03,178.67L356.08,176L356.22,200L356.34,200L357.77,197.33L358.68,194.67L358.69,197.33L360.49,194.67L360.49,197.33L360.9,194.67L363.27,192L363.27,194.67L363.93,194.67L364.51,192L365.25,181.33L365.31,184L366.47,181.33L366.57,176L367,192L367.36,189.33L367.57,192L368.52,189.33L369.33,178.67L369.53,176L370.11,189.33L370.21,181.33L370.4,178.67L371.09,194.67L371.32,192L372.14,218.67L372.21,216L372.91,232L373.27,229.33L374.05,232L376.44,229.33L377.03,221.33L377.06,224L377.29,226.67L380.76,224L380.78,226.67L381.48,221.33L382.36,224L383.46,221.33L384.36,218.67L384.36,221.33L386.16,218.67L386.3,213.33L387.3,216L387.84,208L387.84,205.33L387.85,197.33L391.51,200L392.57,189.33L394.63,186.67L395.12,181.33L395.12,184L395.12,186.67L397.16,181.33L397.6,178.67L400.31,173.33L400.49,170.67L401.05,168L401.05,170.67L401.22,173.33L401.81,186.67L401.94,184L402.53,181.33L402.57,184L402.88,170.67L403.28,168L403.46,160L403.65,170.67L403.66,173.33L403.66,176L404.4,162.67L404.54,160L405.27,178.67L405.32,176L405.62,173.33L405.63,184L406.06,176L406.1,178.67L406.2,184L406.5,178.67L407.16,176L407.22,173.33L407.64,189.33L407.64,186.67L408.04,184L408.53,165.33L408.72,194.67L409.02,192L409.44,176L409.59,189.33L409.59,192L409.64,194.67L410.19,186.67L410.23,189.33L410.82,186.67L410.96,194.67L411.51,181.33L411.59,178.67L411.65,181.33L412.01,165.33L412.02,162.67L412.05,154.67L412.18,200L412.49,189.33L412.89,186.67L413.3,181.33L413.53,189.33L413.57,186.67L413.96,184L414.6,192L414.94,194.67L415.23,197.33L415.55,186.67L415.9,189.33L416.05,202.67L416.51,200L416.91,197.33L417.55,210.67L418.13,208L418.47,210.67L418.85,200L418.86,197.33L419.09,189.33L419.8,192L419.94,205.33L420.24,186.67L420.4,192L420.56,194.67L420.78,192L420.94,200L422.07,197.33L422.21,202.67L422.37,197.33L423.02,194.67L423.17,197.33L423.35,192L423.68,189.33L423.71,197.33L424.1,192L424.79,189.33L425.29,186.67L425.29,189.33L425.29,192L425.81,186.67L425.81,184L425.82,181.33L425.85,192L425.99,184L426.82,181.33L427.04,173.33L427.17,184L427.24,186.67L427.94,208L428.2,202.67L428.2,200L428.55,197.33L428.55,202.67L428.55,205.33L428.55,202.67L428.56,210.67L429.14,208L429.36,205.33L429.6,208L429.84,197.33L429.97,200L429.98,197.33L430.42,216L430.72,202.67L430.77,200L430.78,197.33L430.79,216L431.48,202.67L431.62,200L431.75,205.33L432.09,192L432.35,194.67L432.87,218.67L433.03,216L433.44,218.67L433.87,205.33L434.16,208L434.4,205.33L434.4,208L434.83,202.67L434.84,202.67L435.92,200L436.51,194.67L436.51,197.33L437.3,194.67L437.35,192L437.37,213.33L437.77,210.67L438.3,213.33L438.41,216L438.57,202.67L438.58,200L438.98,194.67L439.02,200L439.23,202.67L439.25,200L439.96,218.67L439.96,216L440.25,218.67L440.28,210.67L440.82,216L441.13,218.67L441.48,221.33L441.79,210.67L441.81,213.33L442.2,210.67L443.26,202.67L443.59,205.33L443.61,202.67L443.74,213.33L444.16,213.33L444.45,210.67L444.46,213.33L444.73,208L444.97,213.33L445.26,210.67L445.57,221.33L445.82,216L446.12,218.67L446.78,213.33L446.78,216L447.02,213.33L447.18,205.33L447.19,216L447.37,210.67L448.06,213.33L448.06,210.67L448.59,221.33L448.99,218.67L449.28,216L449.29,221.33L449.56,218.67L449.85,216L450.5,213.33L450.5,216L450.66,218.67L450.68,216L450.82,229.33L451.2,226.67L451.34,229.33L451.49,221.33L452.08,226.67L452.18,229.33L452.88,216L452.88,226.67L452.88,229.33L452.9,226.67L453.02,232L453.59,229.33L453.84,226.67L453.84,232L454.58,229.33L454.69,232L454.71,237.33L455.39,232L456.21,229.33L456.34,232L456.98,229.33L457.13,224L457.18,237.33L457.21,237.33L457.21,240L457.9,229.33L457.9,237.33L457.9,240L458.58,234.67L458.61,237.33L458.69,240L459,232L459.01,234.67L459.55,232L459.55,234.67L460.27,224L460.28,226.67L460.54,229.33L460.85,234.67L461.07,226.67L461.67,224L461.94,229.33L461.96,226.67L462.89,224L462.89,226.67L463.48,221.33L463.62,221.33L464.13,218.67L464.57,213.33L464.84,218.67L464.97,216L464.98,213.33L465.87,216L466.49,213.33L466.78,224L466.81,221.33L467.51,229.33L467.75,226.67L467.75,224L467.75,226.67L468.46,213.33L468.47,224L468.51,221.33L469.41,218.67L469.41,221.33L469.97,216L469.98,213.33L470.73,224L470.74,226.67L470.81,232L471.44,224L471.44,226.67L471.5,229.33L471.54,224L472.06,240L472.82,237.33L473.2,240L473.23,237.33L473.87,234.67L474.41,240L475.17,237.33L475.6,232L476,234.67L476.08,237.33L476.43,232L476.49,237.33L476.51,240L476.54,234.67L477.25,237.33L477.35,234.67L477.67,229.33L477.67,232L478.35,234.67L478.48,229.33L478.96,234.67L479.8,232L480.65,229.33L480.65,232L480.65,229.33L480.69,234.67L481.24,234.67L482.09,232L482.2,226.67L482.22,234.67L482.35,229.33L483.17,232L483.75,221.33L484.07,218.67L484.58,221.33L484.75,218.67L484.75,216L485.37,205.33L485.38,221.33L485.47,218.67L485.72,216L485.99,213.33L486,218.67L486,221.33L486.58,218.67L486.81,221.33L486.93,218.67L487.24,226.67L487.87,229.33L488.34,224L488.46,229.33L488.46,232L488.46,229.33L488.85,237.33L489.13,237.33L489.28,234.67L489.88,232L489.97,234.67L489.99,237.33L490.18,229.33L490.32,232L490.96,229.33L491.79,237.33L491.83,234.67L492.06,237.33L492.49,232L492.75,234.67L493.07,226.67L493.16,232L493.92,229.33L494.3,234.67L494.72,221.33L495.26,218.67L495.41,232L495.99,224L496.54,221.33L497.29,216L497.68,218.67L497.68,221.33L498.63,218.67L498.87,224L499.31,213.33L499.36,221.33L499.44,218.67L499.84,221.33L500.15,218.67L501.52,216L502.66,205.33L502.77,208L502.77,210.67L502.77,213.33L502.93,205.33L502.97,205.33L505.15,208L505.54,202.67L505.57,221.33L505.84,221.33L505.85,224L506.67,216L506.68,218.67L506.94,221.33L507.65,205.33L507.69,208L507.79,210.67L507.89,208L508.34,216L508.49,208L508.91,205.33L509.43,200L509.44,202.67L509.46,205.33L509.62,200L509.62,205.33L511.5,202.67L511.5,205.33L513.26,202.67L514.78,189.33L514.83,186.67L514.84,184L514.84,192L515.29,189.33L515.62,186.67L517.12,181.33L517.35,178.67L517.36,181.33L517.83,173.33L518.96,170.67L519.61,160L519.61,157.33L519.61,160L520.19,144L520.29,144L520.55,141.33L520.55,144L521,130.67L521.28,130.67L521.39,128L521.39,130.67L522.13,122.67L522.21,125.33L522.95,112L525.22,109.33L526.46,90.67L527.4,88L529.07,82.67L530.85,80L531.44,69.33L531.77,66.67L533.15,50.67L533.41,48L534.81,42.67L535.04,40L535.9,32L536.31,29.33L537.55,26.67L537.56,24L538.94,18.67L539.57,16L539.57,18.67L540,18.67" style="vector-effect: none; fill: none; stroke: rgb(44, 160, 44); stroke-opacity: 1; stroke-width: 2px; opacity: 1;"/></g><g class="points"/><g class="text"/></g></g></g></g><g class="zerolinelayer-above"/><path class="xlines-above crisp" d="M0,0" style="fill: none;"/><path class="ylines-above crisp" d="M0,0" style="fill: none;"/><g class="overlines-above"/><g class="xaxislayer-above"><g class="xtick"><text text-anchor="middle" x="0" y="439" transform="translate(96.59,0)" style="font-family: 'Open Sans'; font-size: 18px; fill: rgb(255, 255, 255); fill-opacity: 1; white-space: pre;">2016</text></g><g class="xtick"><text text-anchor="middle" x="0" y="439" style="font-family: 'Open Sans'; font-size: 18px; fill: rgb(255, 255, 255); fill-opacity: 1; white-space: pre;" transform="translate(198.18,0)">2018</text></g><g class="xtick"><text text-anchor="middle" x="0" y="439" style="font-family: 'Open Sans'; font-size: 18px; fill: rgb(255, 255, 255); fill-opacity: 1; white-space: pre;" transform="translate(299.62,0)">2020</text></g><g class="xtick"><text text-anchor="middle" x="0" y="439" style="font-family: 'Open Sans'; font-size: 18px; fill: rgb(255, 255, 255); fill-opacity: 1; white-space: pre;" transform="translate(401.21,0)">2022</text></g><g class="xtick"><text text-anchor="middle" x="0" y="439" style="font-family: 'Open Sans'; font-size: 18px; fill: rgb(255, 255, 255); fill-opacity: 1; white-space: pre;" transform="translate(502.66,0)">2024</text></g><g class="xtick"><text text-anchor="middle" x="0" y="439" style="font-family: 'Open Sans'; font-size: 18px; fill: rgb(255, 255, 255); fill-opacity: 1; white-space: pre;" transform="translate(604.24,0)">2026</text></g></g><g class="yaxislayer-above"><g class="ytick"><text text-anchor="end" x="79" y="6.3" transform="translate(0,420)" style="font-family: 'Open Sans'; font-size: 18px; fill: rgb(255, 255, 255); fill-opacity: 1; white-space: pre;">0</text></g><g class="ytick"><text text-anchor="end" x="79" y="6.3" style="font-family: 'Open Sans'; font-size: 18px; fill: rgb(255, 255, 255); fill-opacity: 1; white-space: pre;" transform="translate(0,366.67)">20</text></g><g class="ytick"><text text-anchor="end" x="79" y="6.3" style="font-family: 'Open Sans'; font-size: 18px; fill: rgb(255, 255, 255); fill-opacity: 1; white-space: pre;" transform="translate(0,313.33000000000004)">40</text></g><g class="ytick"><text text-anchor="end" x="79" y="6.3" style="font-family: 'Open Sans'; font-size: 18px; fill: rgb(255, 255, 255); fill-opacity: 1; white-space: pre;" transform="translate(0,260)">60</text></g><g class="ytick"><text text-anchor="end" x="79" y="6.3" style="font-family: 'Open Sans'; font-size: 18px; fill: rgb(255, 255, 255); fill-opacity: 1; white-space: pre;" transform="translate(0,206.67000000000002)">80</text></g><g class="ytick"><text text-anchor="end" x="79" y="6.3" style="font-family: 'Open Sans'; font-size: 18px; fill: rgb(255, 255, 255); fill-opacity: 1; white-space: pre;" transform="translate(0,153.32999999999998)">100</text></g><g class="ytick"><text text-anchor="end" x="79" y="6.3" style="font-family: 'Open Sans'; font-size: 18px; fill: rgb(255, 255, 255); fill-opacity: 1; white-space: pre;" transform="translate(0,100)">120</text></g></g><g class="overaxes-above"/></g></g><g class="polarlayer"/><g class="smithlayer"/><g class="ternarylayer"/><g class="geolayer"/><g class="funnelarealayer"/><g class="pielayer"/><g class="iciclelayer"/><g class="treemaplayer"/><g class="sunburstlayer"/><g class="glimages"/><defs id="topdefs-c2af6c"><g class="clips"/></defs><g class="layer-above"><g class="imagelayer"/><g class="shapelayer"/></g><g class="infolayer"><g class="g-gtitle"><text class="gtitle" x="35" y="50" text-anchor="start" dy="0em" style="opacity: 1; font-family: 'Open Sans'; font-size: 25px; fill: rgb(255, 255, 255); fill-opacity: 1; white-space: pre;">MultiQC/MultiQC - Open Pull Requests Over Time</text></g><g class="g-xtitle"><text class="xtitle" x="350" y="472.9" text-anchor="middle" style="opacity: 1; font-family: 'Open Sans'; font-size: 22px; fill: rgb(255, 255, 255); fill-opacity: 1; white-space: pre;">Date</text></g><g class="g-ytitle"><text class="ytitle" transform="rotate(-90,29.799999999999997,260)" x="29.799999999999997" y="260" text-anchor="middle" style="opacity: 1; font-family: 'Open Sans'; font-size: 22px; fill: rgb(255, 255, 255); fill-opacity: 1; white-space: pre;">Number of Open PRs</text></g></g></svg>