<svg class="main-svg" xmlns="http://www.w3.org/2000/svg" xmlns:xlink="http://www.w3.org/1999/xlink" width="700" height="500" style="" viewBox="0 0 700 500"><rect x="0" y="0" width="700" height="500" style="fill: rgb(0, 0, 0); fill-opacity: 0;"/><defs id="defs-20f4af"><g class="clips"><clipPath id="clip20f4afxyplot" class="plotclip"><rect width="540" height="320"/></clipPath><clipPath class="axesclip" id="clip20f4afx"><rect x="80" y="0" width="540" height="500"/></clipPath><clipPath class="axesclip" id="clip20f4afy"><rect x="0" y="100" width="700" height="320"/></clipPath><clipPath class="axesclip" id="clip20f4afxy"><rect x="80" y="100" width="540" height="320"/></clipPath></g><g class="gradients"/><g class="patterns"/></defs><g class="bglayer"><rect class="bg" x="80" y="100" width="540" height="320" style="fill: rgb(0, 0, 0); fill-opacity: 0; stroke-width: 0;"/></g><g class="layer-below"><g class="imagelayer"/><g class="shapelayer"/></g><g class="cartesianlayer"><g class="subplot xy"><g class="layer-subplot"><g class="shapelayer"/><g class="imagelayer"/></g><g class="minor-gridlayer"><g class="x"/><g class="y"/></g><g class="gridlayer"><g class="x"><path class="xgrid crisp" transform="translate(96.35,0)" d="M0,100v320" style="stroke: rgb(255, 255, 255); stroke-opacity: 1; stroke-width: 1px;"/><path class="xgrid crisp" transform="translate(196.49,0)" d="M0,100v320" style="stroke: rgb(255, 255, 255); stroke-opacity: 1; stroke-width: 1px;"/><path class="xgrid crisp" transform="translate(296.49,0)" d="M0,100v320" style="stroke: rgb(255, 255, 255); stroke-opacity: 1; stroke-width: 1px;"/><path class="xgrid crisp" transform="translate(396.62,0)" d="M0,100v320" style="stroke: rgb(255, 255, 255); stroke-opacity: 1; stroke-width: 1px;"/><path class="xgrid crisp" transform="translate(496.62,0)" d="M0,100v320" style="stroke: rgb(255, 255, 255); stroke-opacity: 1; stroke-width: 1px;"/><path class="xgrid crisp" transform="translate(596.75,0)" d="M0,100v320" style="stroke: rgb(255, 255, 255); stroke-opacity: 1; stroke-width: 1px;"/></g><g class="y"><path class="ygrid crisp" transform="translate(0,331.94)" d="M80,0h540" style="stroke: rgb(255, 255, 255); stroke-opacity: 1; stroke-width: 1px;"/><path class="ygrid crisp" transform="translate(0,243.87)" d="M80,0h540" style="stroke: rgb(255, 255, 255); stroke-opacity: 1; stroke-width: 1px;"/><path class="ygrid crisp" transform="translate(0,155.81)" d="M80,0h540" style="stroke: rgb(255, 255, 255); stroke-opacity: 1; stroke-width: 1px;"/></g></g><g class="zerolinelayer"><path class="yzl zl crisp" transform="translate(0,420)" d="M80,0h540" style="stroke: rgb(255, 255, 255); stroke-opacity: 1; stroke-width: 2px;"/></g><g class="layer-between"><g class="shapelayer"/><g class="imagelayer"/></g><path class="xlines-below"/><path class="ylines-below"/><g class="overlines-below"/><g class="xaxislayer-below"/><g class="yaxislayer-below"/><g class="overaxes-below"/><g class="overplot"><g class="xy" transform="translate(80,100)" clip-path="url(#clip20f4afxyplot)"><g class="scatterlayer mlayer"><g class="trace scatter trace2f2302" style="stroke-miterlimit: 2;"><g class="fills"><g><path class="js-fill" d="M540,320L0,320L0,319.82L3.41,318.59L3.69,318.41L5.6,317.36L5.9,317.18L13.97,315.77L21.1,315.6L21.29,315.42L22.84,315.24L22.84,315.07L25.73,314.89L42.19,310.49L42.2,310.31L42.22,309.96L43.13,309.78L43.69,309.43L44.91,309.26L56.78,308.02L57.85,307.85L64.91,305.73L64.96,305.56L65.74,304.68L66.55,304.5L67.94,303.8L72.3,303.62L76.29,302.74L77.44,302.56L82.18,300.98L82.19,300.8L92.65,299.22L92.98,299.04L93.97,298.16L93.98,297.98L94.65,295.69L95.04,295.52L95.46,295.17L96.02,294.99L97.64,293.76L97.78,293.58L98.36,292.7L99.29,292.52L100.4,291.29L100.51,291.11L101.23,290.41L102.16,290.23L105.28,288.47L105.28,288.3L105.76,287.77L106.99,287.59L107.11,287.42L109.03,287.24L109.04,287.06L110.11,286.89L117.78,285.48L117.79,285.3L119.88,284.6L121.48,284.42L125.33,283.37L125.6,283.19L126.2,282.48L126.45,282.31L130.23,280.9L130.24,280.72L131.91,279.67L131.91,279.49L132.03,279.31L133.27,279.14L133.38,278.96L134.78,278.79L135.3,278.43L136.69,278.26L136.98,277.9L138.62,277.73L147.8,274.73L149.33,274.56L174.96,270.68L174.96,270.51L175.59,269.45L177.08,269.27L177.4,268.57L179,268.39L179.49,267.87L181.61,267.69L205.93,264.52L206.01,264.34L206.31,263.64L207.67,263.46L211.59,262.41L212.72,262.23L225.08,259.76L225.11,259.59L225.86,259.06L226.13,258.88L228.63,257.65L228.87,257.47L229.32,256.42L229.89,256.24L230,256.06L231.24,255.89L233.01,254.83L233.16,254.66L236.7,252.89L236.82,252.72L237.63,251.49L237.77,251.31L238.63,250.78L239.43,250.6L243.57,249.02L247.99,248.84L248.33,248.49L250.16,248.32L253.83,246.73L254.1,246.55L255.1,245.67L257.09,245.5L257.15,245.14L258.14,244.97L262.85,243.38L264.48,243.21L264.66,243.03L266.35,242.86L266.35,242.68L267.28,242.5L267.46,242.33L268.78,242.15L274.08,240.92L275.25,240.74L275.74,240.21L278.2,240.04L289.69,237.22L289.7,237.04L291.35,236.16L291.36,235.99L292.04,235.11L292.26,234.93L292.98,234.4L293.58,234.22L294.55,233.17L295.48,232.99L297.25,231.94L297.33,231.76L298.07,230.7L298.07,230.53L298.22,230L300.33,229.82L308.43,228.41L309.06,228.24L309.22,227.53L309.87,227.36L311.69,225.77L314.06,225.59L314.54,225.24L315.74,225.07L323.97,223.48L323.99,223.3L324.8,222.95L326.02,222.78L330.95,221.02L331.03,220.84L338.16,219.78L338.17,219.61L342.97,217.84L343.51,217.67L353.56,213.79L355.34,213.62L355.75,213.44L358.08,213.27L359.69,212.38L360.03,212.21L363.4,210.98L363.54,210.8L364.26,210.27L364.42,210.1L365.11,208.69L366.02,208.51L368.67,206.92L371.06,206.75L371.65,206.22L375.33,206.04L378.87,204.63L380.65,204.46L380.79,204.11L382.19,203.93L382.31,202.87L386.14,202.7L386.96,202.17L389,201.99L393.14,200.94L394.59,200.76L396.18,199.88L396.78,199.7L398.07,197.06L398.5,196.89L399.07,195.3L399.41,195.12L400.26,193.01L400.42,192.83L400.69,192.31L401.34,192.13L403.71,185.44L404.11,185.26L406.13,181.74L406.16,181.56L406.6,179.45L406.99,179.27L408.26,178.22L408.61,178.04L409.62,176.81L409.62,176.63L410.27,175.75L410.28,175.57L411.23,173.64L412.16,173.46L412.88,172.23L412.88,172.05L413.11,171.7L413.95,171.52L414.91,167.47L416.05,167.3L416.33,166.77L416.98,166.59L419.83,164.13L419.85,163.95L419.9,163.6L420.72,163.42L422.43,160.25L422.44,160.07L423.01,157.43L423.23,157.26L424.63,150.74L424.64,150.56L425.31,148.27L425.46,148.1L428.63,142.99L429.7,142.81L431.23,140.7L431.33,140.52L432.15,139.82L432.19,139.64L434.35,134.54L434.41,134.36L435.47,131.01L435.48,130.84L435.88,130.48L436.32,130.31L437.27,129.25L437.28,129.08L440,123.97L440.03,123.79L440.78,121.68L440.79,121.5L440.98,120.62L441.66,120.44L442.62,118.33L442.75,118.16L443.42,116.92L443.68,116.75L444.42,114.81L444.64,114.63L445.04,113.22L445.47,113.05L446.99,110.23L447.06,110.05L448.89,104.59L449.69,104.42L450.6,103.54L450.65,103.36L451.48,101.07L451.53,100.89L451.9,99.66L451.91,99.49L452.43,97.37L452.45,97.2L453.53,96.14L453.53,95.96L454.27,92.97L454.39,92.79L455.08,92.26L455.33,92.09L455.36,91.38L456.28,91.21L457,90.33L457.5,90.15L458.34,88.57L459.46,88.39L460.38,87.16L460.41,86.98L460.83,86.1L460.84,85.92L461.49,84.69L461.62,84.51L464.69,80.46L464.69,80.29L465.24,78.7L466.06,78.53L469.61,76.76L469.63,76.59L471.82,72.36L472.95,72.19L473.83,71.3L474.25,71.13L475.46,69.72L476.28,69.54L479.05,67.08L479.63,66.9L483,64.44L483.02,64.26L484.34,62.5L484.8,62.32L486.12,59.86L486.87,59.68L487.66,58.45L488.19,58.27L490.19,56.69L491.51,56.51L492.31,53.52L492.48,53.34L493,52.99L494.36,52.81L495.79,51.23L497.95,51.05L498.61,48.94L498.73,48.76L499.44,48.23L499.7,48.06L500.44,46.65L500.54,46.47L502.35,43.83L504.2,43.65L507.28,42.6L507.43,42.42L508.25,41.36L509.2,41.19L512.18,39.43L512.19,39.25L512.86,37.84L513.12,37.66L513.83,35.02L513.94,34.85L515.48,32.73L517.72,32.56L518.94,30.79L519.86,30.62L524.17,29.21L524.48,29.03L524.8,28.51L525.34,28.33L525.79,27.62L526.41,27.45L530.54,25.51L531.25,25.33L534.15,23.75L534.62,23.57L535.09,18.82L535.66,18.64L536.05,16.88L536.9,16.7L540,16" style="fill: rgb(44, 160, 44); fill-opacity: 0.5; stroke-width: 0;"/></g></g><g class="errorbars"/><g class="lines"><path class="js-line" d="M0,319.82L3.41,318.59L3.69,318.41L5.6,317.36L5.9,317.18L13.97,315.77L21.1,315.6L21.29,315.42L22.84,315.24L22.84,315.07L25.73,314.89L42.19,310.49L42.2,310.31L42.22,309.96L43.13,309.78L43.69,309.43L44.91,309.26L56.78,308.02L57.85,307.85L64.91,305.73L64.96,305.56L65.74,304.68L66.55,304.5L67.94,303.8L72.3,303.62L76.29,302.74L77.44,302.56L82.18,300.98L82.19,300.8L92.65,299.22L92.98,299.04L93.97,298.16L93.98,297.98L94.65,295.69L95.04,295.52L95.46,295.17L96.02,294.99L97.64,293.76L97.78,293.58L98.36,292.7L99.29,292.52L100.4,291.29L100.51,291.11L101.23,290.41L102.16,290.23L105.28,288.47L105.28,288.3L105.76,287.77L106.99,287.59L107.11,287.42L109.03,287.24L109.04,287.06L110.11,286.89L117.78,285.48L117.79,285.3L119.88,284.6L121.48,284.42L125.33,283.37L125.6,283.19L126.2,282.48L126.45,282.31L130.23,280.9L130.24,280.72L131.91,279.67L131.91,279.49L132.03,279.31L133.27,279.14L133.38,278.96L134.78,278.79L135.3,278.43L136.69,278.26L136.98,277.9L138.62,277.73L147.8,274.73L149.33,274.56L174.96,270.68L174.96,270.51L175.59,269.45L177.08,269.27L177.4,268.57L179,268.39L179.49,267.87L181.61,267.69L205.93,264.52L206.01,264.34L206.31,263.64L207.67,263.46L211.59,262.41L212.72,262.23L225.08,259.76L225.11,259.59L225.86,259.06L226.13,258.88L228.63,257.65L228.87,257.47L229.32,256.42L229.89,256.24L230,256.06L231.24,255.89L233.01,254.83L233.16,254.66L236.7,252.89L236.82,252.72L237.63,251.49L237.77,251.31L238.63,250.78L239.43,250.6L243.57,249.02L247.99,248.84L248.33,248.49L250.16,248.32L253.83,246.73L254.1,246.55L255.1,245.67L257.09,245.5L257.15,245.14L258.14,244.97L262.85,243.38L264.48,243.21L264.66,243.03L266.35,242.86L266.35,242.68L267.28,242.5L267.46,242.33L268.78,242.15L274.08,240.92L275.25,240.74L275.74,240.21L278.2,240.04L289.69,237.22L289.7,237.04L291.35,236.16L291.36,235.99L292.04,235.11L292.26,234.93L292.98,234.4L293.58,234.22L294.55,233.17L295.48,232.99L297.25,231.94L297.33,231.76L298.07,230.7L298.07,230.53L298.22,230L300.33,229.82L308.43,228.41L309.06,228.24L309.22,227.53L309.87,227.36L311.69,225.77L314.06,225.59L314.54,225.24L315.74,225.07L323.97,223.48L323.99,223.3L324.8,222.95L326.02,222.78L330.95,221.02L331.03,220.84L338.16,219.78L338.17,219.61L342.97,217.84L343.51,217.67L353.56,213.79L355.34,213.62L355.75,213.44L358.08,213.27L359.69,212.38L360.03,212.21L363.4,210.98L363.54,210.8L364.26,210.27L364.42,210.1L365.11,208.69L366.02,208.51L368.67,206.92L371.06,206.75L371.65,206.22L375.33,206.04L378.87,204.63L380.65,204.46L380.79,204.11L382.19,203.93L382.31,202.87L386.14,202.7L386.96,202.17L389,201.99L393.14,200.94L394.59,200.76L396.18,199.88L396.78,199.7L398.07,197.06L398.5,196.89L399.07,195.3L399.41,195.12L400.26,193.01L400.42,192.83L400.69,192.31L401.34,192.13L403.71,185.44L404.11,185.26L406.13,181.74L406.16,181.56L406.6,179.45L406.99,179.27L408.26,178.22L408.61,178.04L409.62,176.81L409.62,176.63L410.27,175.75L410.28,175.57L411.23,173.64L412.16,173.46L412.88,172.23L412.88,172.05L413.11,171.7L413.95,171.52L414.91,167.47L416.05,167.3L416.33,166.77L416.98,166.59L419.83,164.13L419.85,163.95L419.9,163.6L420.72,163.42L422.43,160.25L422.44,160.07L423.01,157.43L423.23,157.26L424.63,150.74L424.64,150.56L425.31,148.27L425.46,148.1L428.63,142.99L429.7,142.81L431.23,140.7L431.33,140.52L432.15,139.82L432.19,139.64L434.35,134.54L434.41,134.36L435.47,131.01L435.48,130.84L435.88,130.48L436.32,130.31L437.27,129.25L437.28,129.08L440,123.97L440.03,123.79L440.78,121.68L440.79,121.5L440.98,120.62L441.66,120.44L442.62,118.33L442.75,118.16L443.42,116.92L443.68,116.75L444.42,114.81L444.64,114.63L445.04,113.22L445.47,113.05L446.99,110.23L447.06,110.05L448.89,104.59L449.69,104.42L450.6,103.54L450.65,103.36L451.48,101.07L451.53,100.89L451.9,99.66L451.91,99.49L452.43,97.37L452.45,97.2L453.53,96.14L453.53,95.96L454.27,92.97L454.39,92.79L455.08,92.26L455.33,92.09L455.36,91.38L456.28,91.21L457,90.33L457.5,90.15L458.34,88.57L459.46,88.39L460.38,87.16L460.41,86.98L460.83,86.1L460.84,85.92L461.49,84.69L461.62,84.51L464.69,80.46L464.69,80.29L465.24,78.7L466.06,78.53L469.61,76.76L469.63,76.59L471.82,72.36L472.95,72.19L473.83,71.3L474.25,71.13L475.46,69.72L476.28,69.54L479.05,67.08L479.63,66.9L483,64.44L483.02,64.26L484.34,62.5L484.8,62.32L486.12,59.86L486.87,59.68L487.66,58.45L488.19,58.27L490.19,56.69L491.51,56.51L492.31,53.52L492.48,53.34L493,52.99L494.36,52.81L495.79,51.23L497.95,51.05L498.61,48.94L498.73,48.76L499.44,48.23L499.7,48.06L500.44,46.65L500.54,46.47L502.35,43.83L504.2,43.65L507.28,42.6L507.43,42.42L508.25,41.36L509.2,41.19L512.18,39.43L512.19,39.25L512.86,37.84L513.12,37.66L513.83,35.02L513.94,34.85L515.48,32.73L517.72,32.56L518.94,30.79L519.86,30.62L524.17,29.21L524.48,29.03L524.8,28.51L525.34,28.33L525.79,27.62L526.41,27.45L530.54,25.51L531.25,25.33L534.15,23.75L534.62,23.57L535.09,18.82L535.66,18.64L536.05,16.88L536.9,16.7L540,16" style="vector-effect: none; fill: none; stroke: rgb(44, 160, 44); stroke-opacity: 1; stroke-width: 2px; opacity: 1;"/></g><g class="points"/><g class="text"/></g></g></g></g><g class="zerolinelayer-above"/><path class="xlines-above crisp" d="M0,0" style="fill: none;"/><path class="ylines-above crisp" d="M0,0" style="fill: none;"/><g class="overlines-above"/><g class="xaxislayer-above"><g class="xtick"><text text-anchor="middle" x="0" y="439" transform="translate(96.35,0)" style="font-family: 'Open Sans'; font-size: 18px; fill: rgb(0, 0, 0); fill-opacity: 1; white-space: pre;">2016</text></g><g class="xtick"><text text-anchor="middle" x="0" y="439" style="font-family: 'Open Sans'; font-size: 18px; fill: rgb(0, 0, 0); fill-opacity: 1; white-space: pre;" transform="translate(196.49,0)">2018</text></g><g class="xtick"><text text-anchor="middle" x="0" y="439" style="font-family: 'Open Sans'; font-size: 18px; fill: rgb(0, 0, 0); fill-opacity: 1; white-space: pre;" transform="translate(296.49,0)">2020</text></g><g class="xtick"><text text-anchor="middle" x="0" y="439" style="font-family: 'Open Sans'; font-size: 18px; fill: rgb(0, 0, 0); fill-opacity: 1; white-space: pre;" transform="translate(396.62,0)">2022</text></g><g class="xtick"><text text-anchor="middle" x="0" y="439" style="font-family: 'Open Sans'; font-size: 18px; fill: rgb(0, 0, 0); fill-opacity: 1; white-space: pre;" transform="translate(496.62,0)">2024</text></g><g class="xtick"><text text-anchor="middle" x="0" y="439" style="font-family: 'Open Sans'; font-size: 18px; fill: rgb(0, 0, 0); fill-opacity: 1; white-space: pre;" transform="translate(596.75,0)">2026</text></g></g><g class="yaxislayer-above"><g class="ytick"><text text-anchor="end" x="79" y="6.3" transform="translate(0,420)" style="font-family: 'Open Sans'; font-size: 18px; fill: rgb(0, 0, 0); fill-opacity: 1; white-space: pre;">0</text></g><g class="ytick"><text text-anchor="end" x="79" y="6.3" style="font-family: 'Open Sans'; font-size: 18px; fill: rgb(0, 0, 0); fill-opacity: 1; white-space: pre;" transform="translate(0,331.94)">500</text></g><g class="ytick"><text text-anchor="end" x="79" y="6.3" style="font-family: 'Open Sans'; font-size: 18px; fill: rgb(0, 0, 0); fill-opacity: 1; white-space: pre;" transform="translate(0,243.87)">1000</text></g><g class="ytick"><text text-anchor="end" x="79" y="6.3" style="font-family: 'Open Sans'; font-size: 18px; fill: rgb(0, 0, 0); fill-opacity: 1; white-space: pre;" transform="translate(0,155.81)">1500</text></g></g><g class="overaxes-above"/></g></g><g class="polarlayer"/><g class="smithlayer"/><g class="ternarylayer"/><g class="geolayer"/><g class="funnelarealayer"/><g class="pielayer"/><g class="iciclelayer"/><g class="treemaplayer"/><g class="sunburstlayer"/><g class="glimages"/><defs id="topdefs-20f4af"><g class="clips"/></defs><g class="layer-above"><g class="imagelayer"/><g class="shapelayer"/></g><g class="infolayer"><g class="g-gtitle"><text class="gtitle" x="35" y="50" text-anchor="start" dy="0em" style="opacity: 1; font-family: 'Open Sans'; font-size: 25px; fill: rgb(0, 0, 0); fill-opacity: 1; white-space: pre;">MultiQC/MultiQC - Pull Requests Created Over Time</text></g><g class="g-xtitle"><text class="xtitle" x="350" y="472.9" text-anchor="middle" style="opacity: 1; font-family: 'Open Sans'; font-size: 22px; fill: rgb(0, 0, 0); fill-opacity: 1; white-space: pre;">Date</text></g><g class="g-ytitle"><text class="ytitle" transform="rotate(-90,20.799999999999997,260)" x="20.799999999999997" y="260" text-anchor="middle" style="opacity: 1; font-family: 'Open Sans'; font-size: 22px; fill: rgb(0, 0, 0); fill-opacity: 1; white-space: pre;">Cumulative PRs Created</text></g></g></svg>