<svg class="main-svg" xmlns="http://www.w3.org/2000/svg" xmlns:xlink="http://www.w3.org/1999/xlink" width="700" height="500" style="" viewBox="0 0 700 500"><rect x="0" y="0" width="700" height="500" style="fill: rgb(0, 0, 0); fill-opacity: 0;"/><defs id="defs-041aab"><g class="clips"><clipPath id="clip041aabxyplot" class="plotclip"><rect width="540" height="320"/></clipPath><clipPath class="axesclip" id="clip041aabx"><rect x="80" y="0" width="540" height="500"/></clipPath><clipPath class="axesclip" id="clip041aaby"><rect x="0" y="100" width="700" height="320"/></clipPath><clipPath class="axesclip" id="clip041aabxy"><rect x="80" y="100" width="540" height="320"/></clipPath></g><g class="gradients"/><g class="patterns"/></defs><g class="bglayer"><rect class="bg" x="80" y="100" width="540" height="320" style="fill: rgb(0, 0, 0); fill-opacity: 0; stroke-width: 0;"/></g><g class="layer-below"><g class="imagelayer"/><g class="shapelayer"/></g><g class="cartesianlayer"><g class="subplot xy"><g class="layer-subplot"><g class="shapelayer"/><g class="imagelayer"/></g><g class="minor-gridlayer"><g class="x"/><g class="y"/></g><g class="gridlayer"><g class="x"><path class="xgrid crisp" transform="translate(96.77,0)" d="M0,100v320" style="stroke: rgb(255, 255, 255); stroke-opacity: 1; stroke-width: 1px;"/><path class="xgrid crisp" transform="translate(199.43,0)" d="M0,100v320" style="stroke: rgb(255, 255, 255); stroke-opacity: 1; stroke-width: 1px;"/><path class="xgrid crisp" transform="translate(301.96000000000004,0)" d="M0,100v320" style="stroke: rgb(255, 255, 255); stroke-opacity: 1; stroke-width: 1px;"/><path class="xgrid crisp" transform="translate(404.63,0)" d="M0,100v320" style="stroke: rgb(255, 255, 255); stroke-opacity: 1; stroke-width: 1px;"/><path class="xgrid crisp" transform="translate(507.15,0)" d="M0,100v320" style="stroke: rgb(255, 255, 255); stroke-opacity: 1; stroke-width: 1px;"/><path class="xgrid crisp" transform="translate(609.82,0)" d="M0,100v320" style="stroke: rgb(255, 255, 255); stroke-opacity: 1; stroke-width: 1px;"/></g><g class="y"><path class="ygrid crisp" transform="translate(0,383.42)" d="M80,0h540" style="stroke: rgb(255, 255, 255); stroke-opacity: 1; stroke-width: 1px;"/><path class="ygrid crisp" transform="translate(0,346.84000000000003)" d="M80,0h540" style="stroke: rgb(255, 255, 255); stroke-opacity: 1; stroke-width: 1px;"/><path class="ygrid crisp" transform="translate(0,310.25)" d="M80,0h540" style="stroke: rgb(255, 255, 255); stroke-opacity: 1; stroke-width: 1px;"/><path class="ygrid crisp" transform="translate(0,273.66999999999996)" d="M80,0h540" style="stroke: rgb(255, 255, 255); stroke-opacity: 1; stroke-width: 1px;"/><path class="ygrid crisp" transform="translate(0,237.09)" d="M80,0h540" style="stroke: rgb(255, 255, 255); stroke-opacity: 1; stroke-width: 1px;"/><path class="ygrid crisp" transform="translate(0,200.51)" d="M80,0h540" style="stroke: rgb(255, 255, 255); stroke-opacity: 1; stroke-width: 1px;"/><path class="ygrid crisp" transform="translate(0,163.92000000000002)" d="M80,0h540" style="stroke: rgb(255, 255, 255); stroke-opacity: 1; stroke-width: 1px;"/><path class="ygrid crisp" transform="translate(0,127.34)" d="M80,0h540" style="stroke: rgb(255, 255, 255); stroke-opacity: 1; stroke-width: 1px;"/></g></g><g class="zerolinelayer"><path class="yzl zl crisp" transform="translate(0,420)" d="M80,0h540" style="stroke: rgb(255, 255, 255); stroke-opacity: 1; stroke-width: 2px;"/></g><g class="layer-between"><g class="shapelayer"/><g class="imagelayer"/></g><path class="xlines-below"/><path class="ylines-below"/><g class="overlines-below"/><g class="xaxislayer-below"/><g class="yaxislayer-below"/><g class="overaxes-below"/><g class="overplot"><g class="xy" transform="translate(80,100)" clip-path="url(#clip041aabxyplot)"><g class="scatterlayer mlayer"><g class="trace scatter trace9b27a1" style="stroke-miterlimit: 2;"><g class="fills"><g><path class="js-fill" d="M540,320L0,320L0,319.82L3.5,318.54L3.79,318.35L5.74,317.26L6.05,317.07L14.32,315.61L21.63,315.43L21.82,315.24L23.42,315.06L23.42,314.88L26.38,314.7L41.73,311.04L42.81,310.85L44.79,309.03L46.04,308.84L58.21,307.56L59.31,307.38L66.55,305.18L66.6,305L67.4,304.09L68.24,303.9L69.66,303.17L74.13,302.99L78.21,302.07L79.4,301.89L84.26,300.25L84.27,300.06L94.99,298.42L95.34,298.23L96.35,297.32L96.35,297.14L97.04,294.76L97.44,294.58L97.87,294.21L98.45,294.03L100.11,292.75L100.25,292.56L100.84,291.65L101.81,291.47L102.93,290.19L103.05,290L103.79,289.27L104.74,289.09L107.94,287.08L107.94,286.89L109.82,286.16L111.79,285.98L111.8,285.8L112.9,285.61L120.47,284.33L120.76,284.15L121.08,283.6L121.9,283.42L128.78,281.77L128.78,281.59L129.65,280.86L130.62,280.67L134.58,278.84L135.23,278.66L135.37,277.75L136.64,277.56L136.76,277.38L138.19,277.2L138.72,276.83L140.14,276.65L140.44,276.28L142.13,276.1L151.54,272.99L153.11,272.81L169.22,270.25L169.24,270.06L179.38,268.78L179.39,268.6L180.03,267.5L181.56,267.32L181.89,266.59L183.53,266.41L184.02,265.86L186.2,265.68L211.13,262.38L211.22,262.2L211.53,261.47L212.92,261.29L216.94,260.19L218.1,260L230.77,257.63L230.77,257.44L231.57,256.71L231.85,256.53L234.41,255.25L234.66,255.07L235.12,253.97L235.7,253.79L235.81,253.6L237.09,253.42L238.43,252.51L238.9,252.32L240.76,251.23L240.99,251.04L242.82,249.94L242.86,249.76L243.64,248.85L243.78,248.66L244.66,248.12L245.48,247.93L249.73,246.29L254.26,246.1L254.61,245.74L256.48,245.55L260.14,244.09L260.25,243.91L261.55,242.81L263.59,242.63L263.66,242.26L264.67,242.08L269.49,240.43L271.16,240.25L271.35,240.07L273.08,239.88L273.09,239.7L274.03,239.52L274.22,239.34L275.58,239.15L280.95,238.06L281.02,237.87L293.18,235.31L293.96,235.13L296.62,234.21L297.01,234.03L297.02,233.85L298.16,233.67L299.01,232.2L299.03,232.02L301.39,230.19L301.43,230.01L305.33,228.18L305.43,228L305.76,226.53L307.93,226.35L316.22,224.89L316.88,224.7L317.04,223.97L317.71,223.79L319.57,222.14L322,221.96L322.49,221.59L323.73,221.41L332.16,219.76L332.19,219.58L333.02,219.22L334.26,219.03L339.32,217.2L339.4,217.02L346.71,215.92L346.72,215.74L350.12,214.28L350.84,214.09L355.67,212.26L355.7,212.08L356.72,211.35L358.53,211.17L361.58,209.89L362.5,209.7L368.66,208.42L368.79,208.24L373.64,205.68L373.71,205.5L374.34,204.4L375.27,204.22L377.99,202.57L380.44,202.39L381.05,201.84L384.82,201.66L388.45,200.19L390.27,200.01L390.41,199.64L391.85,199.46L391.98,198.36L395.9,198.18L396.75,197.63L398.83,197.45L403.08,196.35L404.57,196.17L407.86,193.06L407.95,192.88L410.83,187.39L411.49,187.21L413.92,180.26L414.33,180.07L416.4,176.41L416.43,176.23L416.88,174.04L417.28,173.85L418.94,172.57L419.37,172.39L420.91,169.65L420.92,169.46L421.63,168L422.58,167.82L423.32,166.54L423.32,166.35L423.55,165.99L424.42,165.81L425.28,161.96L425.38,161.78L425.4,161.6L426.57,161.42L426.86,160.87L427.52,160.68L430.45,158.12L430.47,157.94L430.52,157.57L431.36,157.39L433.12,154.1L433.12,153.92L433.7,151.17L433.93,150.99L435.36,144.4L435.37,144.22L436.21,141.48L436.34,141.29L436.97,139.47L437.64,139.28L438.21,138.37L438.22,138.19L439.47,136.17L440.56,135.99L442.02,133.98L442.13,133.8L445.24,127.76L445.24,127.58L446.49,123.55L446.51,123.37L448.33,121.91L448.34,121.72L451.13,116.42L451.15,116.24L451.83,114.22L451.93,114.04L452.13,112.94L452.83,112.76L453.76,110.75L453.81,110.57L456.21,105.81L456.22,105.63L457.72,102.88L458.15,102.7L459.73,97.76L459.8,97.58L460.24,96.3L461.06,96.12L461.99,95.2L462.05,95.02L462.77,92.82L462.9,92.64L464.62,87.7L464.99,87.52L465.91,83.86L465.98,83.68L466.85,82.76L466.87,82.58L468.41,81.67L468.56,81.48L469.51,80.39L469.52,80.2L472.44,77.82L472.45,77.64L473.29,75.45L473.45,75.26L473.78,74.35L474.41,74.17L475.83,72.7L475.85,72.52L476.58,69.59L477,69.41L480.6,67.95L480.66,67.76L481.61,66.67L481.61,66.48L483.75,62.83L484.91,62.64L485.81,61.73L486.24,61.55L487.49,60.08L488.32,59.9L491.17,57.34L491.76,57.16L495.24,54.41L495.34,54.23L495.54,53.31L496.18,53.13L501.27,47.1L501.83,46.91L504.19,45.63L504.19,45.45L504.93,43.07L505.16,42.89L508.33,40.88L510.54,40.69L511.22,38.5L511.34,38.32L512.06,37.77L512.34,37.58L513.05,36.3L513.1,36.12L515.05,33.19L516.94,33.01L519.95,32.1L520.11,31.91L521.11,30.63L522.08,30.45L524.99,28.8L525.13,28.62L525.83,26.97L526.09,26.79L526.94,23.87L527.14,23.68L528.07,22.58L528.25,22.4L528.52,21.67L530.81,21.49L532.07,19.66L533.01,19.48L537.43,18.01L537.75,17.83L538.08,17.28L538.63,17.1L539.08,16.37L539.73,16.18L540,16" style="fill: rgb(44, 160, 44); fill-opacity: 0.5; stroke-width: 0;"/></g></g><g class="errorbars"/><g class="lines"><path class="js-line" d="M0,319.82L3.5,318.54L3.79,318.35L5.74,317.26L6.05,317.07L14.32,315.61L21.63,315.43L21.82,315.24L23.42,315.06L23.42,314.88L26.38,314.7L41.73,311.04L42.81,310.85L44.79,309.03L46.04,308.84L58.21,307.56L59.31,307.38L66.55,305.18L66.6,305L67.4,304.09L68.24,303.9L69.66,303.17L74.13,302.99L78.21,302.07L79.4,301.89L84.26,300.25L84.27,300.06L94.99,298.42L95.34,298.23L96.35,297.32L96.35,297.14L97.04,294.76L97.44,294.58L97.87,294.21L98.45,294.03L100.11,292.75L100.25,292.56L100.84,291.65L101.81,291.47L102.93,290.19L103.05,290L103.79,289.27L104.74,289.09L107.94,287.08L107.94,286.89L109.82,286.16L111.79,285.98L111.8,285.8L112.9,285.61L120.47,284.33L120.76,284.15L121.08,283.6L121.9,283.42L128.78,281.77L128.78,281.59L129.65,280.86L130.62,280.67L134.58,278.84L135.23,278.66L135.37,277.75L136.64,277.56L136.76,277.38L138.19,277.2L138.72,276.83L140.14,276.65L140.44,276.28L142.13,276.1L151.54,272.99L153.11,272.81L169.22,270.25L169.24,270.06L179.38,268.78L179.39,268.6L180.03,267.5L181.56,267.32L181.89,266.59L183.53,266.41L184.02,265.86L186.2,265.68L211.13,262.38L211.22,262.2L211.53,261.47L212.92,261.29L216.94,260.19L218.1,260L230.77,257.63L230.77,257.44L231.57,256.71L231.85,256.53L234.41,255.25L234.66,255.07L235.12,253.97L235.7,253.79L235.81,253.6L237.09,253.42L238.43,252.51L238.9,252.32L240.76,251.23L240.99,251.04L242.82,249.94L242.86,249.76L243.64,248.85L243.78,248.66L244.66,248.12L245.48,247.93L249.73,246.29L254.26,246.1L254.61,245.74L256.48,245.55L260.14,244.09L260.25,243.91L261.55,242.81L263.59,242.63L263.66,242.26L264.67,242.08L269.49,240.43L271.16,240.25L271.35,240.07L273.08,239.88L273.09,239.7L274.03,239.52L274.22,239.34L275.58,239.15L280.95,238.06L281.02,237.87L293.18,235.31L293.96,235.13L296.62,234.21L297.01,234.03L297.02,233.85L298.16,233.67L299.01,232.2L299.03,232.02L301.39,230.19L301.43,230.01L305.33,228.18L305.43,228L305.76,226.53L307.93,226.35L316.22,224.89L316.88,224.7L317.04,223.97L317.71,223.79L319.57,222.14L322,221.96L322.49,221.59L323.73,221.41L332.16,219.76L332.19,219.58L333.02,219.22L334.26,219.03L339.32,217.2L339.4,217.02L346.71,215.92L346.72,215.74L350.12,214.28L350.84,214.09L355.67,212.26L355.7,212.08L356.72,211.35L358.53,211.17L361.58,209.89L362.5,209.7L368.66,208.42L368.79,208.24L373.64,205.68L373.71,205.5L374.34,204.4L375.27,204.22L377.99,202.57L380.44,202.39L381.05,201.84L384.82,201.66L388.45,200.19L390.27,200.01L390.41,199.64L391.85,199.46L391.98,198.36L395.9,198.18L396.75,197.63L398.83,197.45L403.08,196.35L404.57,196.17L407.86,193.06L407.95,192.88L410.83,187.39L411.49,187.21L413.92,180.26L414.33,180.07L416.4,176.41L416.43,176.23L416.88,174.04L417.28,173.85L418.94,172.57L419.37,172.39L420.91,169.65L420.92,169.46L421.63,168L422.58,167.82L423.32,166.54L423.32,166.35L423.55,165.99L424.42,165.81L425.28,161.96L425.38,161.78L425.4,161.6L426.57,161.42L426.86,160.87L427.52,160.68L430.45,158.12L430.47,157.94L430.52,157.57L431.36,157.39L433.12,154.1L433.12,153.92L433.7,151.17L433.93,150.99L435.36,144.4L435.37,144.22L436.21,141.48L436.34,141.29L436.97,139.47L437.64,139.28L438.21,138.37L438.22,138.19L439.47,136.17L440.56,135.99L442.02,133.98L442.13,133.8L445.24,127.76L445.24,127.58L446.49,123.55L446.51,123.37L448.33,121.91L448.34,121.72L451.13,116.42L451.15,116.24L451.83,114.22L451.93,114.04L452.13,112.94L452.83,112.76L453.76,110.75L453.81,110.57L456.21,105.81L456.22,105.63L457.72,102.88L458.15,102.7L459.73,97.76L459.8,97.58L460.24,96.3L461.06,96.12L461.99,95.2L462.05,95.02L462.77,92.82L462.9,92.64L464.62,87.7L464.99,87.52L465.91,83.86L465.98,83.68L466.85,82.76L466.87,82.58L468.41,81.67L468.56,81.48L469.51,80.39L469.52,80.2L472.44,77.82L472.45,77.64L473.29,75.45L473.45,75.26L473.78,74.35L474.41,74.17L475.83,72.7L475.85,72.52L476.58,69.59L477,69.41L480.6,67.95L480.66,67.76L481.61,66.67L481.61,66.48L483.75,62.83L484.91,62.64L485.81,61.73L486.24,61.55L487.49,60.08L488.32,59.9L491.17,57.34L491.76,57.16L495.24,54.41L495.34,54.23L495.54,53.31L496.18,53.13L501.27,47.1L501.83,46.91L504.19,45.63L504.19,45.45L504.93,43.07L505.16,42.89L508.33,40.88L510.54,40.69L511.22,38.5L511.34,38.32L512.06,37.77L512.34,37.58L513.05,36.3L513.1,36.12L515.05,33.19L516.94,33.01L519.95,32.1L520.11,31.91L521.11,30.63L522.08,30.45L524.99,28.8L525.13,28.62L525.83,26.97L526.09,26.79L526.94,23.87L527.14,23.68L528.07,22.58L528.25,22.4L528.52,21.67L530.81,21.49L532.07,19.66L533.01,19.48L537.43,18.01L537.75,17.83L538.08,17.28L538.63,17.1L539.08,16.37L539.73,16.18L540,16" style="vector-effect: none; fill: none; stroke: rgb(44, 160, 44); stroke-opacity: 1; stroke-width: 2px; opacity: 1;"/></g><g class="points"/><g class="text"/></g></g></g></g><g class="zerolinelayer-above"/><path class="xlines-above crisp" d="M0,0" style="fill: none;"/><path class="ylines-above crisp" d="M0,0" style="fill: none;"/><g class="overlines-above"/><g class="xaxislayer-above"><g class="xtick"><text text-anchor="middle" x="0" y="439" transform="translate(96.77,0)" style="font-family: 'Open Sans'; font-size: 18px; fill: rgb(255, 255, 255); fill-opacity: 1; white-space: pre;">2016</text></g><g class="xtick"><text text-anchor="middle" x="0" y="439" style="font-family: 'Open Sans'; font-size: 18px; fill: rgb(255, 255, 255); fill-opacity: 1; white-space: pre;" transform="translate(199.43,0)">2018</text></g><g class="xtick"><text text-anchor="middle" x="0" y="439" style="font-family: 'Open Sans'; font-size: 18px; fill: rgb(255, 255, 255); fill-opacity: 1; white-space: pre;" transform="translate(301.96000000000004,0)">2020</text></g><g class="xtick"><text text-anchor="middle" x="0" y="439" style="font-family: 'Open Sans'; font-size: 18px; fill: rgb(255, 255, 255); fill-opacity: 1; white-space: pre;" transform="translate(404.63,0)">2022</text></g><g class="xtick"><text text-anchor="middle" x="0" y="439" style="font-family: 'Open Sans'; font-size: 18px; fill: rgb(255, 255, 255); fill-opacity: 1; white-space: pre;" transform="translate(507.15,0)">2024</text></g><g class="xtick"><text text-anchor="middle" x="0" y="439" style="font-family: 'Open Sans'; font-size: 18px; fill: rgb(255, 255, 255); fill-opacity: 1; white-space: pre;" transform="translate(609.82,0)">2026</text></g></g><g class="yaxislayer-above"><g class="ytick"><text text-anchor="end" x="79" y="6.3" transform="translate(0,420)" style="font-family: 'Open Sans'; font-size: 18px; fill: rgb(255, 255, 255); fill-opacity: 1; white-space: pre;">0</text></g><g class="ytick"><text text-anchor="end" x="79" y="6.3" style="font-family: 'Open Sans'; font-size: 18px; fill: rgb(255, 255, 255); fill-opacity: 1; white-space: pre;" transform="translate(0,383.42)">200</text></g><g class="ytick"><text text-anchor="end" x="79" y="6.3" style="font-family: 'Open Sans'; font-size: 18px; fill: rgb(255, 255, 255); fill-opacity: 1; white-space: pre;" transform="translate(0,346.84000000000003)">400</text></g><g class="ytick"><text text-anchor="end" x="79" y="6.3" style="font-family: 'Open Sans'; font-size: 18px; fill: rgb(255, 255, 255); fill-opacity: 1; white-space: pre;" transform="translate(0,310.25)">600</text></g><g class="ytick"><text text-anchor="end" x="79" y="6.3" style="font-family: 'Open Sans'; font-size: 18px; fill: rgb(255, 255, 255); fill-opacity: 1; white-space: pre;" transform="translate(0,273.66999999999996)">800</text></g><g class="ytick"><text text-anchor="end" x="79" y="6.3" style="font-family: 'Open Sans'; font-size: 18px; fill: rgb(255, 255, 255); fill-opacity: 1; white-space: pre;" transform="translate(0,237.09)">1000</text></g><g class="ytick"><text text-anchor="end" x="79" y="6.3" style="font-family: 'Open Sans'; font-size: 18px; fill: rgb(255, 255, 255); fill-opacity: 1; white-space: pre;" transform="translate(0,200.51)">1200</text></g><g class="ytick"><text text-anchor="end" x="79" y="6.3" style="font-family: 'Open Sans'; font-size: 18px; fill: rgb(255, 255, 255); fill-opacity: 1; white-space: pre;" transform="translate(0,163.92000000000002)">1400</text></g><g class="ytick"><text text-anchor="end" x="79" y="6.3" style="font-family: 'Open Sans'; font-size: 18px; fill: rgb(255, 255, 255); fill-opacity: 1; white-space: pre;" transform="translate(0,127.34)">1600</text></g></g><g class="overaxes-above"/></g></g><g class="polarlayer"/><g class="smithlayer"/><g class="ternarylayer"/><g class="geolayer"/><g class="funnelarealayer"/><g class="pielayer"/><g class="iciclelayer"/><g class="treemaplayer"/><g class="sunburstlayer"/><g class="glimages"/><defs id="topdefs-041aab"><g class="clips"/></defs><g class="layer-above"><g class="imagelayer"/><g class="shapelayer"/></g><g class="infolayer"><g class="g-gtitle"><text class="gtitle" x="35" y="50" text-anchor="start" dy="0em" style="opacity: 1; font-family: 'Open Sans'; font-size: 25px; fill: rgb(255, 255, 255); fill-opacity: 1; white-space: pre;">MultiQC/MultiQC - Pull Requests Created Over Time</text></g><g class="g-xtitle"><text class="xtitle" x="350" y="472.9" text-anchor="middle" style="opacity: 1; font-family: 'Open Sans'; font-size: 22px; fill: rgb(255, 255, 255); fill-opacity: 1; white-space: pre;">Date</text></g><g class="g-ytitle"><text class="ytitle" transform="rotate(-90,20.799999999999997,260)" x="20.799999999999997" y="260" text-anchor="middle" style="opacity: 1; font-family: 'Open Sans'; font-size: 22px; fill: rgb(255, 255, 255); fill-opacity: 1; white-space: pre;">Cumulative PRs Created</text></g></g></svg>