<svg class="main-svg" xmlns="http://www.w3.org/2000/svg" xmlns:xlink="http://www.w3.org/1999/xlink" width="700" height="500" style="" viewBox="0 0 700 500"><rect x="0" y="0" width="700" height="500" style="fill: rgb(0, 0, 0); fill-opacity: 0;"/><defs id="defs-c214f2"><g class="clips"><clipPath id="clipc214f2xyplot" class="plotclip"><rect width="540" height="320"/></clipPath><clipPath class="axesclip" id="clipc214f2x"><rect x="80" y="0" width="540" height="500"/></clipPath><clipPath class="axesclip" id="clipc214f2y"><rect x="0" y="100" width="700" height="320"/></clipPath><clipPath class="axesclip" id="clipc214f2xy"><rect x="80" y="100" width="540" height="320"/></clipPath></g><g class="gradients"/><g class="patterns"/></defs><g class="bglayer"><rect class="bg" x="80" y="100" width="540" height="320" style="fill: rgb(0, 0, 0); fill-opacity: 0; stroke-width: 0;"/></g><g class="layer-below"><g class="imagelayer"/><g class="shapelayer"/></g><g class="cartesianlayer"><g class="subplot xy"><g class="layer-subplot"><g class="shapelayer"/><g class="imagelayer"/></g><g class="minor-gridlayer"><g class="x"/><g class="y"/></g><g class="gridlayer"><g class="x"><path class="xgrid crisp" transform="translate(97.05,0)" d="M0,100v320" style="stroke: rgb(255, 255, 255); stroke-opacity: 1; stroke-width: 1px;"/><path class="xgrid crisp" transform="translate(199.18,0)" d="M0,100v320" style="stroke: rgb(255, 255, 255); stroke-opacity: 1; stroke-width: 1px;"/><path class="xgrid crisp" transform="translate(301.16999999999996,0)" d="M0,100v320" style="stroke: rgb(255, 255, 255); stroke-opacity: 1; stroke-width: 1px;"/><path class="xgrid crisp" transform="translate(403.3,0)" d="M0,100v320" style="stroke: rgb(255, 255, 255); stroke-opacity: 1; stroke-width: 1px;"/><path class="xgrid crisp" transform="translate(505.29,0)" d="M0,100v320" style="stroke: rgb(255, 255, 255); stroke-opacity: 1; stroke-width: 1px;"/><path class="xgrid crisp" transform="translate(607.43,0)" d="M0,100v320" style="stroke: rgb(255, 255, 255); stroke-opacity: 1; stroke-width: 1px;"/></g><g class="y"><path class="ygrid crisp" transform="translate(0,382.93)" d="M80,0h540" style="stroke: rgb(255, 255, 255); stroke-opacity: 1; stroke-width: 1px;"/><path class="ygrid crisp" transform="translate(0,345.85)" d="M80,0h540" style="stroke: rgb(255, 255, 255); stroke-opacity: 1; stroke-width: 1px;"/><path class="ygrid crisp" transform="translate(0,308.78)" d="M80,0h540" style="stroke: rgb(255, 255, 255); stroke-opacity: 1; stroke-width: 1px;"/><path class="ygrid crisp" transform="translate(0,271.71000000000004)" d="M80,0h540" style="stroke: rgb(255, 255, 255); stroke-opacity: 1; stroke-width: 1px;"/><path class="ygrid crisp" transform="translate(0,234.63)" d="M80,0h540" style="stroke: rgb(255, 255, 255); stroke-opacity: 1; stroke-width: 1px;"/><path class="ygrid crisp" transform="translate(0,197.56)" d="M80,0h540" style="stroke: rgb(255, 255, 255); stroke-opacity: 1; stroke-width: 1px;"/><path class="ygrid crisp" transform="translate(0,160.49)" d="M80,0h540" style="stroke: rgb(255, 255, 255); stroke-opacity: 1; stroke-width: 1px;"/><path class="ygrid crisp" transform="translate(0,123.41)" d="M80,0h540" style="stroke: rgb(255, 255, 255); stroke-opacity: 1; stroke-width: 1px;"/></g></g><g class="zerolinelayer"><path class="yzl zl crisp" transform="translate(0,420)" d="M80,0h540" style="stroke: rgb(255, 255, 255); stroke-opacity: 1; stroke-width: 2px;"/></g><g class="layer-between"><g class="shapelayer"/><g class="imagelayer"/></g><path class="xlines-below"/><path class="ylines-below"/><g class="overlines-below"/><g class="xaxislayer-below"/><g class="yaxislayer-below"/><g class="overaxes-below"/><g class="overplot"><g class="xy" transform="translate(80,100)" clip-path="url(#clipc214f2xyplot)"><g class="scatterlayer mlayer"><g class="trace scatter trace7732b7" style="stroke-miterlimit: 2;"><g class="fills"><g><path class="js-fill" d="M540,320L0,320L0,286.63L4.19,286.63L8.52,301.46L12.71,316.29L21.38,305.17L25.43,305.17L29.76,294.05L33.95,294.05L38.28,308.88L42.47,275.51L46.8,312.59L51.14,312.59L55.33,305.17L59.66,297.76L63.85,275.51L68.18,301.46L72.51,305.17L76.42,301.46L80.76,290.34L84.95,305.17L89.28,308.88L93.47,227.32L97.8,249.56L102.13,268.1L106.32,279.22L110.65,301.46L114.85,308.88L119.18,290.34L123.51,305.17L127.42,275.51L131.75,268.1L135.94,290.34L140.27,290.34L144.47,301.46L148.8,297.76L157.32,312.59L161.65,312.59L165.84,294.05L170.17,312.59L174.5,308.88L178.42,268.1L182.75,301.46L186.94,308.88L191.27,305.17L195.46,312.59L199.79,305.17L204.12,316.29L208.32,282.93L212.65,297.76L216.84,305.17L221.17,308.88L225.5,297.76L229.55,260.68L233.88,268.1L238.08,256.98L242.41,275.51L246.6,305.17L250.93,308.88L255.26,282.93L259.45,282.93L263.78,290.34L267.97,301.46L272.31,305.17L276.64,297.76L280.55,301.46L289.07,301.46L293.4,264.39L297.59,264.39L301.92,256.98L306.26,308.88L310.45,305.17L314.78,256.98L318.97,305.17L323.3,312.59L327.63,286.63L331.54,297.76L335.88,294.05L340.07,305.17L344.4,282.93L348.59,286.63L352.92,286.63L357.25,290.34L361.44,305.17L365.77,286.63L369.97,249.56L374.3,294.05L378.63,305.17L382.54,286.63L386.87,282.93L391.06,305.17L395.39,305.17L399.59,294.05L403.92,179.12L408.25,149.46L412.44,168L416.77,219.9L420.96,179.12L425.29,245.85L429.62,16L433.68,197.66L438.01,205.07L442.2,119.8L446.53,164.29L450.72,156.88L455.05,142.05L459.38,93.85L463.58,212.49L472.1,212.49L476.43,216.2L480.76,264.39L484.67,242.15L489,242.15L493.2,223.61L497.53,268.1L501.72,212.49L506.05,245.85L510.38,238.44L514.57,268.1L518.9,264.39L523.09,193.95L527.43,271.8L531.76,279.22L535.67,271.8L540,305.17" style="fill: rgb(44, 160, 44); fill-opacity: 0.5; stroke-width: 0;"/></g></g><g class="errorbars"/><g class="lines"><path class="js-line" d="M0,286.63L4.19,286.63L8.52,301.46L12.71,316.29L21.38,305.17L25.43,305.17L29.76,294.05L33.95,294.05L38.28,308.88L42.47,275.51L46.8,312.59L51.14,312.59L55.33,305.17L59.66,297.76L63.85,275.51L68.18,301.46L72.51,305.17L76.42,301.46L80.76,290.34L84.95,305.17L89.28,308.88L93.47,227.32L97.8,249.56L102.13,268.1L106.32,279.22L110.65,301.46L114.85,308.88L119.18,290.34L123.51,305.17L127.42,275.51L131.75,268.1L135.94,290.34L140.27,290.34L144.47,301.46L148.8,297.76L157.32,312.59L161.65,312.59L165.84,294.05L170.17,312.59L174.5,308.88L178.42,268.1L182.75,301.46L186.94,308.88L191.27,305.17L195.46,312.59L199.79,305.17L204.12,316.29L208.32,282.93L212.65,297.76L216.84,305.17L221.17,308.88L225.5,297.76L229.55,260.68L233.88,268.1L238.08,256.98L242.41,275.51L246.6,305.17L250.93,308.88L255.26,282.93L259.45,282.93L263.78,290.34L267.97,301.46L272.31,305.17L276.64,297.76L280.55,301.46L289.07,301.46L293.4,264.39L297.59,264.39L301.92,256.98L306.26,308.88L310.45,305.17L314.78,256.98L318.97,305.17L323.3,312.59L327.63,286.63L331.54,297.76L335.88,294.05L340.07,305.17L344.4,282.93L348.59,286.63L352.92,286.63L357.25,290.34L361.44,305.17L365.77,286.63L369.97,249.56L374.3,294.05L378.63,305.17L382.54,286.63L386.87,282.93L391.06,305.17L395.39,305.17L399.59,294.05L403.92,179.12L408.25,149.46L412.44,168L416.77,219.9L420.96,179.12L425.29,245.85L429.62,16L433.68,197.66L438.01,205.07L442.2,119.8L446.53,164.29L450.72,156.88L455.05,142.05L459.38,93.85L463.58,212.49L472.1,212.49L476.43,216.2L480.76,264.39L484.67,242.15L489,242.15L493.2,223.61L497.53,268.1L501.72,212.49L506.05,245.85L510.38,238.44L514.57,268.1L518.9,264.39L523.09,193.95L527.43,271.8L531.76,279.22L535.67,271.8L540,305.17" style="vector-effect: none; fill: none; stroke: rgb(44, 160, 44); stroke-opacity: 1; stroke-width: 2px; opacity: 1;"/></g><g class="points"/><g class="text"/></g></g></g></g><g class="zerolinelayer-above"/><path class="xlines-above crisp" d="M0,0" style="fill: none;"/><path class="ylines-above crisp" d="M0,0" style="fill: none;"/><g class="overlines-above"/><g class="xaxislayer-above"><g class="xtick"><text text-anchor="middle" x="0" y="439" transform="translate(97.05,0)" style="font-family: 'Open Sans'; font-size: 18px; fill: rgb(0, 0, 0); fill-opacity: 1; white-space: pre;">2016</text></g><g class="xtick"><text text-anchor="middle" x="0" y="439" style="font-family: 'Open Sans'; font-size: 18px; fill: rgb(0, 0, 0); fill-opacity: 1; white-space: pre;" transform="translate(199.18,0)">2018</text></g><g class="xtick"><text text-anchor="middle" x="0" y="439" style="font-family: 'Open Sans'; font-size: 18px; fill: rgb(0, 0, 0); fill-opacity: 1; white-space: pre;" transform="translate(301.16999999999996,0)">2020</text></g><g class="xtick"><text text-anchor="middle" x="0" y="439" style="font-family: 'Open Sans'; font-size: 18px; fill: rgb(0, 0, 0); fill-opacity: 1; white-space: pre;" transform="translate(403.3,0)">2022</text></g><g class="xtick"><text text-anchor="middle" x="0" y="439" style="font-family: 'Open Sans'; font-size: 18px; fill: rgb(0, 0, 0); fill-opacity: 1; white-space: pre;" transform="translate(505.29,0)">2024</text></g><g class="xtick"><text text-anchor="middle" x="0" y="439" style="font-family: 'Open Sans'; font-size: 18px; fill: rgb(0, 0, 0); fill-opacity: 1; white-space: pre;" transform="translate(607.43,0)">2026</text></g></g><g class="yaxislayer-above"><g class="ytick"><text text-anchor="end" x="79" y="6.3" transform="translate(0,420)" style="font-family: 'Open Sans'; font-size: 18px; fill: rgb(0, 0, 0); fill-opacity: 1; white-space: pre;">0</text></g><g class="ytick"><text text-anchor="end" x="79" y="6.3" style="font-family: 'Open Sans'; font-size: 18px; fill: rgb(0, 0, 0); fill-opacity: 1; white-space: pre;" transform="translate(0,382.93)">10</text></g><g class="ytick"><text text-anchor="end" x="79" y="6.3" style="font-family: 'Open Sans'; font-size: 18px; fill: rgb(0, 0, 0); fill-opacity: 1; white-space: pre;" transform="translate(0,345.85)">20</text></g><g class="ytick"><text text-anchor="end" x="79" y="6.3" style="font-family: 'Open Sans'; font-size: 18px; fill: rgb(0, 0, 0); fill-opacity: 1; white-space: pre;" transform="translate(0,308.78)">30</text></g><g class="ytick"><text text-anchor="end" x="79" y="6.3" style="font-family: 'Open Sans'; font-size: 18px; fill: rgb(0, 0, 0); fill-opacity: 1; white-space: pre;" transform="translate(0,271.71000000000004)">40</text></g><g class="ytick"><text text-anchor="end" x="79" y="6.3" style="font-family: 'Open Sans'; font-size: 18px; fill: rgb(0, 0, 0); fill-opacity: 1; white-space: pre;" transform="translate(0,234.63)">50</text></g><g class="ytick"><text text-anchor="end" x="79" y="6.3" style="font-family: 'Open Sans'; font-size: 18px; fill: rgb(0, 0, 0); fill-opacity: 1; white-space: pre;" transform="translate(0,197.56)">60</text></g><g class="ytick"><text text-anchor="end" x="79" y="6.3" style="font-family: 'Open Sans'; font-size: 18px; fill: rgb(0, 0, 0); fill-opacity: 1; white-space: pre;" transform="translate(0,160.49)">70</text></g><g class="ytick"><text text-anchor="end" x="79" y="6.3" style="font-family: 'Open Sans'; font-size: 18px; fill: rgb(0, 0, 0); fill-opacity: 1; white-space: pre;" transform="translate(0,123.41)">80</text></g></g><g class="overaxes-above"/></g></g><g class="polarlayer"/><g class="smithlayer"/><g class="ternarylayer"/><g class="geolayer"/><g class="funnelarealayer"/><g class="pielayer"/><g class="iciclelayer"/><g class="treemaplayer"/><g class="sunburstlayer"/><g class="glimages"/><defs id="topdefs-c214f2"><g class="clips"/></defs><g class="layer-above"><g class="imagelayer"/><g class="shapelayer"/></g><g class="infolayer"><g class="g-gtitle"><text class="gtitle" x="35" y="50" text-anchor="start" dy="0em" style="opacity: 1; font-family: 'Open Sans'; font-size: 25px; fill: rgb(0, 0, 0); fill-opacity: 1; white-space: pre;">MultiQC/MultiQC - New Pull Requests Per Month</text></g><g class="g-xtitle"><text class="xtitle" x="350" y="472.9" text-anchor="middle" style="opacity: 1; font-family: 'Open Sans'; font-size: 22px; fill: rgb(0, 0, 0); fill-opacity: 1; white-space: pre;">Month</text></g><g class="g-ytitle"><text class="ytitle" transform="rotate(-90,38.8,260)" x="38.8" y="260" text-anchor="middle" style="opacity: 1; font-family: 'Open Sans'; font-size: 22px; fill: rgb(0, 0, 0); fill-opacity: 1; white-space: pre;">New PRs Created</text></g></g></svg>