<svg class="main-svg" xmlns="http://www.w3.org/2000/svg" xmlns:xlink="http://www.w3.org/1999/xlink" width="700" height="500" style="" viewBox="0 0 700 500"><rect x="0" y="0" width="700" height="500" style="fill: rgb(0, 0, 0); fill-opacity: 0;"/><defs id="defs-2e8d99"><g class="clips"><clipPath id="clip2e8d99xyplot" class="plotclip"><rect width="540" height="320"/></clipPath><clipPath class="axesclip" id="clip2e8d99x"><rect x="80" y="0" width="540" height="500"/></clipPath><clipPath class="axesclip" id="clip2e8d99y"><rect x="0" y="100" width="700" height="320"/></clipPath><clipPath class="axesclip" id="clip2e8d99xy"><rect x="80" y="100" width="540" height="320"/></clipPath></g><g class="gradients"/><g class="patterns"/></defs><g class="bglayer"><rect class="bg" x="80" y="100" width="540" height="320" style="fill: rgb(0, 0, 0); fill-opacity: 0; stroke-width: 0;"/></g><g class="layer-below"><g class="imagelayer"/><g class="shapelayer"/></g><g class="cartesianlayer"><g class="subplot xy"><g class="layer-subplot"><g class="shapelayer"/><g class="imagelayer"/></g><g class="minor-gridlayer"><g class="x"/><g class="y"/></g><g class="gridlayer"><g class="x"><path class="xgrid crisp" transform="translate(96.62,0)" d="M0,100v320" style="stroke: rgb(255, 255, 255); stroke-opacity: 1; stroke-width: 1px;"/><path class="xgrid crisp" transform="translate(198.41,0)" d="M0,100v320" style="stroke: rgb(255, 255, 255); stroke-opacity: 1; stroke-width: 1px;"/><path class="xgrid crisp" transform="translate(300.05,0)" d="M0,100v320" style="stroke: rgb(255, 255, 255); stroke-opacity: 1; stroke-width: 1px;"/><path class="xgrid crisp" transform="translate(401.84,0)" d="M0,100v320" style="stroke: rgb(255, 255, 255); stroke-opacity: 1; stroke-width: 1px;"/><path class="xgrid crisp" transform="translate(503.48,0)" d="M0,100v320" style="stroke: rgb(255, 255, 255); stroke-opacity: 1; stroke-width: 1px;"/><path class="xgrid crisp" transform="translate(605.27,0)" d="M0,100v320" style="stroke: rgb(255, 255, 255); stroke-opacity: 1; stroke-width: 1px;"/></g><g class="y"><path class="ygrid crisp" transform="translate(0,383.66)" d="M80,0h540" style="stroke: rgb(255, 255, 255); stroke-opacity: 1; stroke-width: 1px;"/><path class="ygrid crisp" transform="translate(0,347.32)" d="M80,0h540" style="stroke: rgb(255, 255, 255); stroke-opacity: 1; stroke-width: 1px;"/><path class="ygrid crisp" transform="translate(0,310.97)" d="M80,0h540" style="stroke: rgb(255, 255, 255); stroke-opacity: 1; stroke-width: 1px;"/><path class="ygrid crisp" transform="translate(0,274.63)" d="M80,0h540" style="stroke: rgb(255, 255, 255); stroke-opacity: 1; stroke-width: 1px;"/><path class="ygrid crisp" transform="translate(0,238.29)" d="M80,0h540" style="stroke: rgb(255, 255, 255); stroke-opacity: 1; stroke-width: 1px;"/><path class="ygrid crisp" transform="translate(0,201.95)" d="M80,0h540" style="stroke: rgb(255, 255, 255); stroke-opacity: 1; stroke-width: 1px;"/><path class="ygrid crisp" transform="translate(0,165.61)" d="M80,0h540" style="stroke: rgb(255, 255, 255); stroke-opacity: 1; stroke-width: 1px;"/><path class="ygrid crisp" transform="translate(0,129.26)" d="M80,0h540" style="stroke: rgb(255, 255, 255); stroke-opacity: 1; stroke-width: 1px;"/></g></g><g class="zerolinelayer"><path class="yzl zl crisp" transform="translate(0,420)" d="M80,0h540" style="stroke: rgb(255, 255, 255); stroke-opacity: 1; stroke-width: 2px;"/></g><g class="layer-between"><g class="shapelayer"/><g class="imagelayer"/></g><path class="xlines-below"/><path class="ylines-below"/><g class="overlines-below"/><g class="xaxislayer-below"/><g class="yaxislayer-below"/><g class="overaxes-below"/><g class="overplot"><g class="xy" transform="translate(80,100)" clip-path="url(#clip2e8d99xyplot)"><g class="scatterlayer mlayer"><g class="trace scatter trace769dba" style="stroke-miterlimit: 2;"><g class="fills"><g><path class="js-fill" d="M540,320L0,320L0,319.82L3.47,318.55L3.75,318.36L5.69,317.27L6,317.09L14.2,315.64L21.44,315.46L21.64,315.28L23.22,315.09L23.22,314.91L26.15,314.73L42.88,310.19L42.9,310.01L42.92,309.64L43.84,309.46L44.41,309.1L45.65,308.92L57.71,307.64L58.8,307.46L65.98,305.28L66.03,305.1L66.82,304.19L67.65,304.01L69.06,303.28L73.49,303.1L77.54,302.19L78.72,302.01L83.54,300.38L83.54,300.19L94.18,298.56L94.52,298.38L95.52,297.47L95.52,297.29L96.21,294.92L96.6,294.74L97.03,294.38L97.61,294.2L99.25,292.93L99.39,292.74L99.98,291.84L100.93,291.65L102.05,290.38L102.16,290.2L102.9,289.47L103.84,289.29L107.01,287.47L107.01,287.29L107.5,286.75L108.75,286.57L108.87,286.38L110.83,286.2L110.84,286.02L111.93,285.84L119.44,284.57L119.72,284.38L120.04,283.84L120.85,283.66L127.67,282.02L127.67,281.84L128.53,281.11L129.5,280.93L133.42,279.12L134.07,278.93L134.21,278.03L135.47,277.84L135.58,277.66L137,277.48L137.53,277.12L138.94,276.93L139.24,276.57L140.91,276.39L150.24,273.3L151.79,273.12L177.84,269.12L177.85,268.94L178.49,267.85L180,267.67L180.33,266.94L181.95,266.76L182.44,266.21L184.6,266.03L208.62,262.94L209.32,262.76L209.71,261.85L211.09,261.67L215.08,260.58L216.23,260.4L228.79,257.86L228.82,257.67L229.58,257.13L229.86,256.95L232.39,255.67L232.64,255.49L233.1,254.4L233.68,254.22L233.79,254.04L235.05,253.86L237,252.59L237.64,252.4L239.61,251.13L240.58,250.95L241.29,249.5L241.55,249.32L242.56,248.59L243.37,248.41L247.59,246.77L252.08,246.59L252.42,246.23L254.28,246.04L257.91,244.59L258.01,244.41L259.3,243.32L261.32,243.14L261.39,242.77L262.4,242.59L267.18,240.96L268.83,240.77L269.02,240.59L270.74,240.41L270.74,240.23L271.68,240.05L271.87,239.87L273.21,239.68L278.54,238.59L278.6,238.41L290.66,235.87L291.43,235.69L294.08,234.78L294.46,234.6L294.47,234.41L295.6,234.23L296.44,232.78L296.46,232.6L298.8,230.78L298.84,230.6L302.23,228.96L302.71,228.78L303.13,227.15L305.28,226.96L313.51,225.51L314.15,225.33L314.32,224.6L314.98,224.42L316.82,222.79L319.24,222.6L319.72,222.24L320.94,222.06L329.31,220.42L329.33,220.24L330.16,219.88L331.39,219.7L336.4,217.88L336.48,217.7L343.73,216.61L343.74,216.43L348.63,214.61L349.17,214.43L353.3,212.25L353.66,212.06L356.92,211.16L356.92,210.97L357.03,210.79L358.47,210.61L367.19,208.61L367.24,208.43L368.08,208.07L369.24,207.89L370.05,206.98L370.26,206.79L373.48,203.71L374,203.52L388.59,200.07L388.6,199.89L388.61,199.16L392.5,198.98L393.34,198.44L395.41,198.25L399.62,197.16L401.09,196.98L404.35,193.89L404.44,193.71L407.3,188.26L407.96,188.08L410.36,181.17L410.77,180.99L412.82,177.36L412.85,177.18L413.7,174.81L413.8,174.63L416.3,172.45L416.36,172.27L417.16,170.82L417.29,170.63L418.01,169L418.95,168.82L419.68,167.55L419.69,167.36L419.91,167L420.77,166.82L421.73,162.82L421.75,162.64L424.1,161.55L424.18,161.37L426.65,159.37L426.75,159.19L426.82,158.64L427.66,158.46L429.4,155.01L429.4,154.83L429.98,152.28L430.2,152.1L431.62,145.56L431.63,145.38L432.47,142.65L432.59,142.47L433.22,140.65L433.88,140.47L434.44,139.56L434.45,139.38L435.69,137.38L436.78,137.2L438.33,135.02L438.44,134.84L439.27,134.11L439.31,133.93L441.65,128.3L441.67,128.11L442.35,127.02L442.35,126.84L443.06,124.48L443.51,124.3L444.48,123.39L444.48,123.21L445.33,121.39L445.44,121.21L447.24,118.3L447.24,118.12L447.95,115.58L448.05,115.4L448.24,114.3L448.94,114.12L449.91,111.94L450.04,111.76L450.73,110.49L450.99,110.31L451.74,108.31L451.97,108.13L452.37,106.67L452.81,106.49L454.34,103.77L454.35,103.58L455.87,98.5L455.87,98.31L456.29,97.77L457.1,97.59L458.02,96.68L458.08,96.5L458.79,94.32L458.92,94.14L460.63,89.23L461,89.05L461.74,85.96L461.76,85.78L462.86,84.14L463.79,83.96L464.53,83.05L465.04,82.87L465.89,81.23L467.03,81.05L467.97,79.78L468,79.6L468.43,78.69L468.43,78.51L469.1,77.24L469.22,77.05L472.31,73.06L472.34,72.88L472.9,71.06L473.74,70.88L477.35,69.06L477.36,68.88L479.59,64.52L480.74,64.33L481.63,63.43L482.06,63.24L483.3,61.79L484.13,61.61L486.95,59.07L487.53,58.88L490.98,56.16L491.08,55.98L491.28,55.07L491.92,54.89L495.69,50.16L496.23,49.98L497.51,48.71L498.11,48.53L498.26,48.34L499.6,48.16L500.59,44.89L500.82,44.71L503.96,42.71L506.15,42.53L506.83,40.35L506.94,40.17L507.66,39.62L507.94,39.44L508.69,37.99L508.79,37.81L509.91,35.99L510.34,35.81L510.62,35.08L512.5,34.9L515.49,33.99L515.64,33.81L516.63,32.54L517.59,32.35L520.48,30.72L520.62,30.54L521.31,28.9L521.57,28.72L522.41,25.81L522.61,25.63L523.53,24.54L523.71,24.36L523.98,23.63L526.25,23.45L527.49,21.63L528.43,21.45L532.81,20L533.13,19.82L533.45,19.27L534,19.09L534.45,18.36L535.09,18.18L539.28,16.18L540,16" style="fill: rgb(44, 160, 44); fill-opacity: 0.5; stroke-width: 0;"/></g></g><g class="errorbars"/><g class="lines"><path class="js-line" d="M0,319.82L3.47,318.55L3.75,318.36L5.69,317.27L6,317.09L14.2,315.64L21.44,315.46L21.64,315.28L23.22,315.09L23.22,314.91L26.15,314.73L42.88,310.19L42.9,310.01L42.92,309.64L43.84,309.46L44.41,309.1L45.65,308.92L57.71,307.64L58.8,307.46L65.98,305.28L66.03,305.1L66.82,304.19L67.65,304.01L69.06,303.28L73.49,303.1L77.54,302.19L78.72,302.01L83.54,300.38L83.54,300.19L94.18,298.56L94.52,298.38L95.52,297.47L95.52,297.29L96.21,294.92L96.6,294.74L97.03,294.38L97.61,294.2L99.25,292.93L99.39,292.74L99.98,291.84L100.93,291.65L102.05,290.38L102.16,290.2L102.9,289.47L103.84,289.29L107.01,287.47L107.01,287.29L107.5,286.75L108.75,286.57L108.87,286.38L110.83,286.2L110.84,286.02L111.93,285.84L119.44,284.57L119.72,284.38L120.04,283.84L120.85,283.66L127.67,282.02L127.67,281.84L128.53,281.11L129.5,280.93L133.42,279.12L134.07,278.93L134.21,278.03L135.47,277.84L135.58,277.66L137,277.48L137.53,277.12L138.94,276.93L139.24,276.57L140.91,276.39L150.24,273.3L151.79,273.12L177.84,269.12L177.85,268.94L178.49,267.85L180,267.67L180.33,266.94L181.95,266.76L182.44,266.21L184.6,266.03L208.62,262.94L209.32,262.76L209.71,261.85L211.09,261.67L215.08,260.58L216.23,260.4L228.79,257.86L228.82,257.67L229.58,257.13L229.86,256.95L232.39,255.67L232.64,255.49L233.1,254.4L233.68,254.22L233.79,254.04L235.05,253.86L237,252.59L237.64,252.4L239.61,251.13L240.58,250.95L241.29,249.5L241.55,249.32L242.56,248.59L243.37,248.41L247.59,246.77L252.08,246.59L252.42,246.23L254.28,246.04L257.91,244.59L258.01,244.41L259.3,243.32L261.32,243.14L261.39,242.77L262.4,242.59L267.18,240.96L268.83,240.77L269.02,240.59L270.74,240.41L270.74,240.23L271.68,240.05L271.87,239.87L273.21,239.68L278.54,238.59L278.6,238.41L290.66,235.87L291.43,235.69L294.08,234.78L294.46,234.6L294.47,234.41L295.6,234.23L296.44,232.78L296.46,232.6L298.8,230.78L298.84,230.6L302.23,228.96L302.71,228.78L303.13,227.15L305.28,226.96L313.51,225.51L314.15,225.33L314.32,224.6L314.98,224.42L316.82,222.79L319.24,222.6L319.72,222.24L320.94,222.06L329.31,220.42L329.33,220.24L330.16,219.88L331.39,219.7L336.4,217.88L336.48,217.7L343.73,216.61L343.74,216.43L348.63,214.61L349.17,214.43L353.3,212.25L353.66,212.06L356.92,211.16L356.92,210.97L357.03,210.79L358.47,210.61L367.19,208.61L367.24,208.43L368.08,208.07L369.24,207.89L370.05,206.98L370.26,206.79L373.48,203.71L374,203.52L388.59,200.07L388.6,199.89L388.61,199.16L392.5,198.98L393.34,198.44L395.41,198.25L399.62,197.16L401.09,196.98L404.35,193.89L404.44,193.71L407.3,188.26L407.96,188.08L410.36,181.17L410.77,180.99L412.82,177.36L412.85,177.18L413.7,174.81L413.8,174.63L416.3,172.45L416.36,172.27L417.16,170.82L417.29,170.63L418.01,169L418.95,168.82L419.68,167.55L419.69,167.36L419.91,167L420.77,166.82L421.73,162.82L421.75,162.64L424.1,161.55L424.18,161.37L426.65,159.37L426.75,159.19L426.82,158.64L427.66,158.46L429.4,155.01L429.4,154.83L429.98,152.28L430.2,152.1L431.62,145.56L431.63,145.38L432.47,142.65L432.59,142.47L433.22,140.65L433.88,140.47L434.44,139.56L434.45,139.38L435.69,137.38L436.78,137.2L438.33,135.02L438.44,134.84L439.27,134.11L439.31,133.93L441.65,128.3L441.67,128.11L442.35,127.02L442.35,126.84L443.06,124.48L443.51,124.3L444.48,123.39L444.48,123.21L445.33,121.39L445.44,121.21L447.24,118.3L447.24,118.12L447.95,115.58L448.05,115.4L448.24,114.3L448.94,114.12L449.91,111.94L450.04,111.76L450.73,110.49L450.99,110.31L451.74,108.31L451.97,108.13L452.37,106.67L452.81,106.49L454.34,103.77L454.35,103.58L455.87,98.5L455.87,98.31L456.29,97.77L457.1,97.59L458.02,96.68L458.08,96.5L458.79,94.32L458.92,94.14L460.63,89.23L461,89.05L461.74,85.96L461.76,85.78L462.86,84.14L463.79,83.96L464.53,83.05L465.04,82.87L465.89,81.23L467.03,81.05L467.97,79.78L468,79.6L468.43,78.69L468.43,78.51L469.1,77.24L469.22,77.05L472.31,73.06L472.34,72.88L472.9,71.06L473.74,70.88L477.35,69.06L477.36,68.88L479.59,64.52L480.74,64.33L481.63,63.43L482.06,63.24L483.3,61.79L484.13,61.61L486.95,59.07L487.53,58.88L490.98,56.16L491.08,55.98L491.28,55.07L491.92,54.89L495.69,50.16L496.23,49.98L497.51,48.71L498.11,48.53L498.26,48.34L499.6,48.16L500.59,44.89L500.82,44.71L503.96,42.71L506.15,42.53L506.83,40.35L506.94,40.17L507.66,39.62L507.94,39.44L508.69,37.99L508.79,37.81L509.91,35.99L510.34,35.81L510.62,35.08L512.5,34.9L515.49,33.99L515.64,33.81L516.63,32.54L517.59,32.35L520.48,30.72L520.62,30.54L521.31,28.9L521.57,28.72L522.41,25.81L522.61,25.63L523.53,24.54L523.71,24.36L523.98,23.63L526.25,23.45L527.49,21.63L528.43,21.45L532.81,20L533.13,19.82L533.45,19.27L534,19.09L534.45,18.36L535.09,18.18L539.28,16.18L540,16" style="vector-effect: none; fill: none; stroke: rgb(44, 160, 44); stroke-opacity: 1; stroke-width: 2px; opacity: 1;"/></g><g class="points"/><g class="text"/></g></g></g></g><g class="zerolinelayer-above"/><path class="xlines-above crisp" d="M0,0" style="fill: none;"/><path class="ylines-above crisp" d="M0,0" style="fill: none;"/><g class="overlines-above"/><g class="xaxislayer-above"><g class="xtick"><text text-anchor="middle" x="0" y="439" transform="translate(96.62,0)" style="font-family: 'Open Sans'; font-size: 18px; fill: rgb(255, 255, 255); fill-opacity: 1; white-space: pre;">2016</text></g><g class="xtick"><text text-anchor="middle" x="0" y="439" style="font-family: 'Open Sans'; font-size: 18px; fill: rgb(255, 255, 255); fill-opacity: 1; white-space: pre;" transform="translate(198.41,0)">2018</text></g><g class="xtick"><text text-anchor="middle" x="0" y="439" style="font-family: 'Open Sans'; font-size: 18px; fill: rgb(255, 255, 255); fill-opacity: 1; white-space: pre;" transform="translate(300.05,0)">2020</text></g><g class="xtick"><text text-anchor="middle" x="0" y="439" style="font-family: 'Open Sans'; font-size: 18px; fill: rgb(255, 255, 255); fill-opacity: 1; white-space: pre;" transform="translate(401.84,0)">2022</text></g><g class="xtick"><text text-anchor="middle" x="0" y="439" style="font-family: 'Open Sans'; font-size: 18px; fill: rgb(255, 255, 255); fill-opacity: 1; white-space: pre;" transform="translate(503.48,0)">2024</text></g><g class="xtick"><text text-anchor="middle" x="0" y="439" style="font-family: 'Open Sans'; font-size: 18px; fill: rgb(255, 255, 255); fill-opacity: 1; white-space: pre;" transform="translate(605.27,0)">2026</text></g></g><g class="yaxislayer-above"><g class="ytick"><text text-anchor="end" x="79" y="6.3" transform="translate(0,420)" style="font-family: 'Open Sans'; font-size: 18px; fill: rgb(255, 255, 255); fill-opacity: 1; white-space: pre;">0</text></g><g class="ytick"><text text-anchor="end" x="79" y="6.3" style="font-family: 'Open Sans'; font-size: 18px; fill: rgb(255, 255, 255); fill-opacity: 1; white-space: pre;" transform="translate(0,383.66)">200</text></g><g class="ytick"><text text-anchor="end" x="79" y="6.3" style="font-family: 'Open Sans'; font-size: 18px; fill: rgb(255, 255, 255); fill-opacity: 1; white-space: pre;" transform="translate(0,347.32)">400</text></g><g class="ytick"><text text-anchor="end" x="79" y="6.3" style="font-family: 'Open Sans'; font-size: 18px; fill: rgb(255, 255, 255); fill-opacity: 1; white-space: pre;" transform="translate(0,310.97)">600</text></g><g class="ytick"><text text-anchor="end" x="79" y="6.3" style="font-family: 'Open Sans'; font-size: 18px; fill: rgb(255, 255, 255); fill-opacity: 1; white-space: pre;" transform="translate(0,274.63)">800</text></g><g class="ytick"><text text-anchor="end" x="79" y="6.3" style="font-family: 'Open Sans'; font-size: 18px; fill: rgb(255, 255, 255); fill-opacity: 1; white-space: pre;" transform="translate(0,238.29)">1000</text></g><g class="ytick"><text text-anchor="end" x="79" y="6.3" style="font-family: 'Open Sans'; font-size: 18px; fill: rgb(255, 255, 255); fill-opacity: 1; white-space: pre;" transform="translate(0,201.95)">1200</text></g><g class="ytick"><text text-anchor="end" x="79" y="6.3" style="font-family: 'Open Sans'; font-size: 18px; fill: rgb(255, 255, 255); fill-opacity: 1; white-space: pre;" transform="translate(0,165.61)">1400</text></g><g class="ytick"><text text-anchor="end" x="79" y="6.3" style="font-family: 'Open Sans'; font-size: 18px; fill: rgb(255, 255, 255); fill-opacity: 1; white-space: pre;" transform="translate(0,129.26)">1600</text></g></g><g class="overaxes-above"/></g></g><g class="polarlayer"/><g class="smithlayer"/><g class="ternarylayer"/><g class="geolayer"/><g class="funnelarealayer"/><g class="pielayer"/><g class="iciclelayer"/><g class="treemaplayer"/><g class="sunburstlayer"/><g class="glimages"/><defs id="topdefs-2e8d99"><g class="clips"/></defs><g class="layer-above"><g class="imagelayer"/><g class="shapelayer"/></g><g class="infolayer"><g class="g-gtitle"><text class="gtitle" x="35" y="50" text-anchor="start" dy="0em" style="opacity: 1; font-family: 'Open Sans'; font-size: 25px; fill: rgb(255, 255, 255); fill-opacity: 1; white-space: pre;">MultiQC/MultiQC - Pull Requests Created Over Time</text></g><g class="g-xtitle"><text class="xtitle" x="350" y="472.9" text-anchor="middle" style="opacity: 1; font-family: 'Open Sans'; font-size: 22px; fill: rgb(255, 255, 255); fill-opacity: 1; white-space: pre;">Date</text></g><g class="g-ytitle"><text class="ytitle" transform="rotate(-90,20.799999999999997,260)" x="20.799999999999997" y="260" text-anchor="middle" style="opacity: 1; font-family: 'Open Sans'; font-size: 22px; fill: rgb(255, 255, 255); fill-opacity: 1; white-space: pre;">Cumulative PRs Created</text></g></g></svg>