<svg class="main-svg" xmlns="http://www.w3.org/2000/svg" xmlns:xlink="http://www.w3.org/1999/xlink" width="700" height="500" style="" viewBox="0 0 700 500"><rect x="0" y="0" width="700" height="500" style="fill: rgb(0, 0, 0); fill-opacity: 0;"/><defs id="defs-0bc513"><g class="clips"><clipPath id="clip0bc513xyplot" class="plotclip"><rect width="540" height="320"/></clipPath><clipPath class="axesclip" id="clip0bc513x"><rect x="80" y="0" width="540" height="500"/></clipPath><clipPath class="axesclip" id="clip0bc513y"><rect x="0" y="100" width="700" height="320"/></clipPath><clipPath class="axesclip" id="clip0bc513xy"><rect x="80" y="100" width="540" height="320"/></clipPath></g><g class="gradients"/><g class="patterns"/></defs><g class="bglayer"><rect class="bg" x="80" y="100" width="540" height="320" style="fill: rgb(0, 0, 0); fill-opacity: 0; stroke-width: 0;"/></g><g class="layer-below"><g class="imagelayer"/><g class="shapelayer"/></g><g class="cartesianlayer"><g class="subplot xy"><g class="layer-subplot"><g class="shapelayer"/><g class="imagelayer"/></g><g class="minor-gridlayer"><g class="x"/><g class="y"/></g><g class="gridlayer"><g class="x"><path class="xgrid crisp" transform="translate(97.58,0)" d="M0,100v320" style="stroke: rgb(255, 255, 255); stroke-opacity: 1; stroke-width: 1px;"/><path class="xgrid crisp" transform="translate(205.22,0)" d="M0,100v320" style="stroke: rgb(255, 255, 255); stroke-opacity: 1; stroke-width: 1px;"/><path class="xgrid crisp" transform="translate(312.71000000000004,0)" d="M0,100v320" style="stroke: rgb(255, 255, 255); stroke-opacity: 1; stroke-width: 1px;"/><path class="xgrid crisp" transform="translate(420.36,0)" d="M0,100v320" style="stroke: rgb(255, 255, 255); stroke-opacity: 1; stroke-width: 1px;"/><path class="xgrid crisp" transform="translate(527.85,0)" d="M0,100v320" style="stroke: rgb(255, 255, 255); stroke-opacity: 1; stroke-width: 1px;"/></g><g class="y"><path class="ygrid crisp" transform="translate(0,370.97)" d="M80,0h540" style="stroke: rgb(255, 255, 255); stroke-opacity: 1; stroke-width: 1px;"/><path class="ygrid crisp" transform="translate(0,321.94)" d="M80,0h540" style="stroke: rgb(255, 255, 255); stroke-opacity: 1; stroke-width: 1px;"/><path class="ygrid crisp" transform="translate(0,272.9)" d="M80,0h540" style="stroke: rgb(255, 255, 255); stroke-opacity: 1; stroke-width: 1px;"/><path class="ygrid crisp" transform="translate(0,223.87)" d="M80,0h540" style="stroke: rgb(255, 255, 255); stroke-opacity: 1; stroke-width: 1px;"/><path class="ygrid crisp" transform="translate(0,174.84)" d="M80,0h540" style="stroke: rgb(255, 255, 255); stroke-opacity: 1; stroke-width: 1px;"/><path class="ygrid crisp" transform="translate(0,125.81)" d="M80,0h540" style="stroke: rgb(255, 255, 255); stroke-opacity: 1; stroke-width: 1px;"/></g></g><g class="zerolinelayer"><path class="yzl zl crisp" transform="translate(0,420)" d="M80,0h540" style="stroke: rgb(255, 255, 255); stroke-opacity: 1; stroke-width: 2px;"/></g><g class="layer-between"><g class="shapelayer"/><g class="imagelayer"/></g><path class="xlines-below"/><path class="ylines-below"/><g class="overlines-below"/><g class="xaxislayer-below"/><g class="yaxislayer-below"/><g class="overaxes-below"/><g class="overplot"><g class="xy" transform="translate(80,100)" clip-path="url(#clip0bc513xyplot)"><g class="scatterlayer mlayer"><g class="trace scatter trace2fb0b3" style="stroke-miterlimit: 2;"><g class="fills"><g><path class="js-fill" d="M540,320L0,320L0,315.1L0.11,320L1.07,315.1L1.78,320L1.89,315.1L1.89,320L3.2,315.1L3.68,320L3.97,315.1L3.97,320L4.87,315.1L4.87,320L4.97,320L5.73,315.1L5.73,320L6.34,320L7.21,315.1L7.21,320L7.81,320L9.4,315.1L9.4,320L10.07,315.1L10.29,320L12.07,315.1L12.07,320L15.02,315.1L15.02,320L22.68,315.1L22.68,320L22.88,315.1L22.88,320L24.55,315.1L24.55,310.19L24.7,315.1L25.89,320L27.65,315.1L27.65,320L28.56,310.19L28.56,315.1L29.02,310.19L29.02,315.1L29.02,320L31.96,315.1L31.96,320L32.1,315.1L32.1,320L33.39,315.1L33.39,320L34.01,320L34.94,315.1L34.94,320L35.74,315.1L36.27,320L36.52,315.1L36.62,320L37.86,315.1L39.31,310.19L39.76,315.1L39.89,310.19L39.89,315.1L41.23,320L41.98,315.1L41.98,320L43.75,315.1L43.75,320L44.88,315.1L45.06,320L45.39,300.39L45.5,305.29L46.05,310.19L46.5,315.1L46.96,310.19L46.97,315.1L48.28,310.19L52.27,305.29L52.27,310.19L52.57,315.1L53.4,310.19L54.34,320L55.81,315.1L55.81,320L56.22,320L59.48,315.1L59.48,320L59.48,315.1L61.03,310.19L61.37,315.1L62.19,310.19L62.99,305.29L63.02,310.19L63.02,305.29L63.62,320L65.53,315.1L65.84,320L66.54,315.1L66.7,310.19L67.7,315.1L67.89,305.29L68.02,310.19L68.88,315.1L69.2,310.19L69.2,315.1L69.77,310.19L69.85,300.39L70.05,320L70.66,315.1L71.54,310.19L71.55,315.1L72.3,305.29L72.31,310.19L73.04,305.29L77.72,300.39L78.21,295.48L79.96,320L81,315.1L81,320L82,315.1L83.24,310.19L83.3,315.1L84.25,310.19L84.41,305.29L85.37,295.48L85.37,300.39L85.39,305.29L86.57,295.48L86.59,300.39L87.45,295.48L87.45,300.39L87.75,305.29L88.34,300.39L88.34,305.29L88.35,300.39L90.23,305.29L90.41,300.39L90.41,305.29L91.34,300.39L91.58,305.29L92.33,300.39L92.81,295.48L93.61,300.39L94.35,295.48L94.66,300.39L97,295.48L97,300.39L97.62,295.48L97.64,300.39L99.07,305.29L99.6,300.39L99.81,305.29L99.95,300.39L99.96,305.29L101.01,300.39L101.02,270.97L101.74,295.48L102.03,300.39L102.04,305.29L102.2,295.48L102.61,295.48L103.22,290.58L103.96,295.48L104.14,290.58L104.69,280.77L104.86,290.58L104.95,295.48L105.6,275.87L105.69,285.68L105.73,290.58L105.73,285.68L106.73,290.58L107.18,275.87L107.18,275.87L107.73,280.77L108.82,256.26L109.81,251.35L110.87,256.26L111.17,251.35L111.3,261.16L111.92,261.16L112.05,256.26L112.36,275.87L112.49,270.97L113.17,266.06L113.69,246.45L113.69,251.35L114.09,256.26L114.12,261.16L115.01,256.26L115.14,251.35L115.15,256.26L116.49,261.16L116.61,280.77L117.21,275.87L117.22,270.97L117.23,280.77L118.37,275.87L118.37,280.77L120.6,275.87L120.6,270.97L120.6,280.77L122.66,275.87L122.67,280.77L122.67,275.87L123.78,280.77L123.83,275.87L125.74,270.97L126.61,280.77L126.62,275.87L126.95,280.77L127.81,275.87L128.14,280.77L128.87,275.87L128.9,280.77L130.59,275.87L130.62,280.77L132.53,275.87L132.64,280.77L133.04,275.87L133.54,270.97L133.67,275.87L134.59,270.97L134.6,275.87L135.02,256.26L135.16,256.26L135.57,251.35L135.93,275.87L135.93,275.87L136.95,270.97L137.06,280.77L137.25,280.77L137.98,275.87L138.99,270.97L139.11,266.06L139.7,270.97L139.89,266.06L140.74,251.35L140.77,256.26L141.79,241.55L141.79,236.65L141.8,231.74L141.95,261.16L143.26,256.26L143.38,251.35L143.4,256.26L144.88,251.35L145.68,270.97L146.93,266.06L147.35,270.97L149.01,266.06L150.14,261.16L150.14,266.06L151.51,251.35L151.51,256.26L151.78,261.16L151.8,266.06L152.22,256.26L152.22,261.16L152.56,256.26L152.56,261.16L153.58,266.06L153.76,275.87L154.49,270.97L154.59,266.06L156.25,261.16L156.81,246.45L156.81,251.35L156.82,256.26L156.87,270.97L158.74,266.06L158.84,270.97L158.88,266.06L160.52,261.16L160.54,266.06L161.95,261.16L161.95,266.06L162.39,261.16L162.85,256.26L163.57,251.35L163.6,256.26L166.56,261.16L169.7,251.35L170.46,246.45L171.26,251.35L172,246.45L172,251.35L174.77,246.45L175.25,251.35L175.88,246.45L177.14,241.55L177.39,246.45L177.39,241.55L177.43,280.77L177.44,275.87L179.91,270.97L179.92,275.87L182.34,280.77L183.48,275.87L183.48,280.77L184.13,275.87L184.16,280.77L186.45,275.87L186.61,270.97L188.05,275.87L188.06,280.77L188.67,241.55L188.75,246.45L188.76,241.55L188.79,261.16L190.36,256.26L190.7,241.55L192.42,236.65L192.94,231.74L192.95,236.65L195.23,231.74L195.73,236.65L197.1,231.74L197.41,236.65L197.72,231.74L199.98,226.84L203.07,221.94L203.18,226.84L204.11,221.94L204.84,226.84L204.87,217.03L205.11,221.94L206.02,226.84L206.28,246.45L207.14,251.35L207.22,256.26L207.32,246.45L210.87,241.55L211.46,246.45L212.17,241.55L212.32,236.65L214.54,231.74L217.6,226.84L219.24,221.94L219.26,217.03L220.62,212.13L221.44,217.03L221.45,212.13L221.76,246.45L221.78,241.55L222.79,246.45L223.23,251.35L223.24,246.45L224.42,251.35L224.9,261.16L225.29,256.26L225.31,261.16L225.85,246.45L225.9,256.26L226.48,261.16L226.51,266.06L227.45,261.16L228.67,256.26L228.68,261.16L230.74,251.35L231.03,246.45L233.47,241.55L234.63,246.45L236.27,241.55L236.77,236.65L239.16,226.84L239.17,231.74L240.05,217.03L241.95,212.13L242.24,197.42L242.79,192.52L243.89,182.71L243.94,187.61L246.27,153.29L246.35,158.19L246.35,163.1L246.51,148.39L246.94,158.19L247.12,153.29L247.24,148.39L248.57,143.48L248.73,138.58L249,148.39L249.01,153.29L249.18,187.61L249.47,177.81L249.99,172.9L251.07,256.26L251.31,251.35L251.5,246.45L251.52,241.55L252.13,256.26L252.23,251.35L252.43,246.45L253.28,256.26L253.38,261.16L253.4,251.35L253.85,266.06L254.16,270.97L254.58,256.26L254.62,251.35L255.19,266.06L255.45,261.16L255.45,266.06L255.76,261.16L256.47,256.26L256.51,251.35L257.35,256.26L257.87,246.45L258.52,241.55L259.35,236.65L259.42,231.74L259.42,236.65L259.49,231.74L260.32,226.84L260.32,231.74L260.93,226.84L261.72,221.94L261.83,217.03L262.81,221.94L266.58,217.03L266.68,212.13L266.94,207.23L267.26,212.13L268.91,207.23L269.88,197.42L270.24,192.52L270.64,187.61L272.29,182.71L272.75,168L272.96,182.71L272.96,187.61L274.22,163.1L276.36,158.19L276.43,148.39L277.49,143.48L279.19,133.68L279.23,138.58L279.25,172.9L279.9,153.29L280.19,148.39L280.19,153.29L280.34,148.39L282.55,143.48L284.3,138.58L284.5,133.68L286.31,128.77L286.31,133.68L286.32,128.77L286.32,133.68L287.31,128.77L287.51,123.87L288.2,128.77L288.75,148.39L288.93,143.48L289.19,148.39L289.41,153.29L291,148.39L291.54,153.29L291.89,148.39L293.69,138.58L293.69,143.48L294.52,138.58L294.57,133.68L294.63,128.77L295.82,133.68L296.41,192.52L299.05,187.61L299.56,192.52L299.96,187.61L299.98,192.52L302.89,187.61L303.62,197.42L303.66,192.52L303.77,187.61L303.77,192.52L304.04,192.52L304.75,197.42L304.93,187.61L304.93,192.52L307.37,187.61L307.38,182.71L308.2,177.81L310.29,172.9L310.83,168L310.99,153.29L311.04,177.81L311.41,168L311.88,172.9L312.37,182.71L312.6,177.81L312.87,172.9L313.7,236.65L313.93,231.74L314.95,217.03L315.59,212.13L316.63,187.61L317.62,182.71L318.55,177.81L318.66,172.9L319.53,158.19L319.58,163.1L320.57,109.16L322.85,104.26L324.83,99.35L324.83,94.45L328.33,99.35L328.41,94.45L329.71,89.55L330.14,84.65L332.23,65.03L332.23,60.13L332.37,50.32L332.78,153.29L333.1,148.39L333.56,143.48L333.58,158.19L333.83,153.29L333.99,148.39L335.05,123.87L335.18,128.77L337.6,123.87L338.12,118.97L338.42,123.87L339.41,118.97L339.81,123.87L341.01,118.97L342.52,123.87L342.54,138.58L343.22,133.68L343.95,138.58L344.41,168L344.84,172.9L344.98,168L345.3,182.71L345.51,177.81L345.9,182.71L346.48,177.81L347.34,163.1L348.25,158.19L348.49,148.39L349.15,143.48L350.04,153.29L350.46,148.39L350.46,153.29L351.19,148.39L351.48,153.29L351.48,163.1L352.07,158.19L353.45,153.29L353.66,143.48L354.12,158.19L354.13,158.19L354.13,163.1L354.8,153.29L355.03,148.39L355.84,138.58L355.86,143.48L359.04,138.58L359.44,143.48L360.87,138.58L361.33,133.68L361.33,138.58L362.11,143.48L362.41,138.58L362.49,148.39L363.27,143.48L364.42,128.77L364.42,133.68L364.87,123.87L365.46,118.97L365.91,128.77L365.93,118.97L366.47,123.87L367.08,118.97L367.09,123.87L367.83,118.97L367.98,123.87L368.68,118.97L369.26,114.06L369.48,118.97L369.89,104.26L369.95,114.06L370.75,109.16L370.8,104.26L371.65,99.35L372.8,94.45L372.9,89.55L373.63,69.94L374.01,65.03L374.13,69.94L375.9,65.03L376.2,60.13L377.3,55.23L377.46,99.35L377.58,99.35L379.1,94.45L380.06,89.55L380.07,94.45L381.97,89.55L381.98,94.45L382.41,89.55L384.93,84.65L384.93,89.55L385.62,89.55L386.24,84.65L387.02,65.03L387.09,69.94L388.31,65.03L388.42,55.23L388.87,79.74L388.87,84.65L389.25,79.74L389.48,84.65L390.49,79.74L391.34,60.13L391.56,55.23L392.17,79.74L392.28,65.03L392.47,60.13L393.21,89.55L393.45,84.65L394.32,133.68L394.4,128.77L395.13,158.19L395.52,153.29L396.3,158.19L396.3,153.29L396.35,158.19L398.87,153.29L399.51,138.58L399.53,143.48L399.78,148.39L403.46,143.48L403.48,148.39L404.22,138.58L405.15,143.48L406.31,138.58L407.27,133.68L407.27,138.58L409.18,133.68L409.33,123.87L410.38,128.77L410.95,118.97L410.95,114.06L410.97,94.45L414.85,99.35L415.97,79.74L418.16,74.84L418.67,65.03L418.67,69.94L418.67,74.84L420.83,65.03L421.3,60.13L424.17,50.32L424.37,45.42L424.96,40.52L424.96,45.42L425.14,50.32L425.76,74.84L425.89,69.94L426.52,65.03L426.56,69.94L426.9,45.42L427.32,40.52L427.51,25.81L427.71,40.52L427.71,45.42L427.72,55.23L428.38,35.61L428.51,30.71L428.81,25.81L428.91,40.52L428.93,45.42L428.98,40.52L429.67,60.13L429.71,55.23L429.8,50.32L429.81,69.94L430.3,60.13L430.41,65.03L430.41,69.94L430.44,60.13L430.73,60.13L431.43,55.23L431.5,50.32L431.94,79.74L431.94,74.84L432.36,69.94L432.88,35.61L433.03,84.65L433.07,84.65L433.08,89.55L433.77,74.84L433.77,69.94L433.85,55.23L434.06,89.55L434.4,84.65L434.53,79.74L434.66,84.65L435.31,74.84L435.31,79.74L435.45,89.55L435.82,79.74L435.83,74.84L436.58,30.71L436.6,25.81L436.61,16L436.75,99.35L437.08,79.74L437.5,74.84L437.94,65.03L438.04,74.84L438.18,79.74L438.86,69.94L439.13,74.84L439.67,89.55L439.86,79.74L439.96,84.65L440.32,74.84L440.71,99.35L440.84,94.45L440.85,104.26L441.16,79.74L441.34,99.35L441.76,94.45L442.44,118.97L443.05,114.06L443.41,118.97L443.42,109.16L443.81,104.26L444.07,79.74L444.82,84.65L444.97,109.16L445.28,74.84L445.45,84.65L445.63,89.55L445.86,84.65L446.03,99.35L447.23,94.45L447.37,104.26L447.54,94.45L448.23,89.55L448.39,94.45L448.58,84.65L448.93,79.74L448.97,94.45L449.38,84.65L450.11,79.74L450.64,74.84L450.64,79.74L450.64,84.65L451.19,74.84L451.19,69.94L451.2,65.03L451.24,84.65L451.38,69.94L452.26,65.03L452.5,50.32L452.63,69.94L452.71,74.84L453.45,114.06L453.72,104.26L453.72,99.35L454.09,94.45L454.1,104.26L454.1,109.16L454.1,104.26L454.1,118.97L454.72,114.06L454.95,109.16L455.2,114.06L455.46,94.45L455.49,104.26L455.59,99.35L455.61,94.45L456.08,128.77L456.19,128.77L456.35,123.87L456.45,94.45L456.47,128.77L457.13,104.26L457.2,99.35L457.39,109.16L457.84,84.65L458.12,89.55L458.67,133.68L458.84,128.77L459.28,133.68L459.73,109.16L460.03,114.06L460.29,109.16L460.29,114.06L460.75,104.26L460.76,104.26L461.91,99.35L462.53,89.55L462.53,94.45L463.37,89.55L463.41,84.65L463.44,123.87L463.86,118.97L464.43,123.87L464.54,128.77L464.71,104.26L464.72,99.35L465.15,89.55L465.19,99.35L465.41,104.26L465.44,99.35L466.18,133.68L466.18,128.77L466.49,133.68L466.81,118.97L467.1,128.77L467.42,133.68L467.8,138.58L468.14,118.97L468.14,123.87L468.55,118.97L469.68,104.26L470.03,109.16L470.05,104.26L470.19,123.87L470.64,123.87L470.94,118.97L470.96,123.87L471.23,114.06L471.49,123.87L471.8,118.97L472.13,138.58L472.39,128.77L472.71,133.68L473.41,123.87L473.41,128.77L473.66,123.87L473.84,109.16L473.85,128.77L474.03,118.97L474.76,123.87L475.16,118.97L475.33,138.58L475.75,133.68L476.06,128.77L476.07,138.58L476.36,133.68L476.66,128.77L477.36,123.87L477.36,128.77L477.53,133.68L477.54,128.77L477.69,153.29L478.25,148.39L478.31,143.48L478.4,138.58L479,153.29L479.02,148.39L479.13,153.29L479.87,128.77L479.87,148.39L479.88,153.29L479.88,148.39L480.02,158.19L480.63,153.29L480.89,148.39L480.89,158.19L481.35,158.19L481.65,153.29L481.81,168L482.23,163.1L482.54,158.19L483.4,153.29L483.54,158.19L484.35,148.39L484.36,143.48L484.46,172.9L485.03,158.19L485.19,153.29L485.2,172.9L485.94,168L486.03,172.9L486.36,158.19L486.37,163.1L486.94,158.19L486.94,163.1L487.07,148.39L487.69,153.29L487.7,148.39L487.7,143.48L488.13,163.1L488.45,158.19L488.48,153.29L489.19,143.48L489.45,148.39L489.45,153.29L489.47,143.48L489.49,148.39L490.48,143.48L490.48,148.39L491.1,138.58L491.11,143.48L491.26,138.58L492.26,123.87L492.26,128.77L492.39,133.68L492.7,123.87L493.64,128.77L493.73,133.68L494.29,123.87L494.29,128.77L494.34,123.87L494.89,148.39L494.92,148.39L495.33,143.48L495.36,153.29L495.4,138.58L495.78,138.58L496.09,133.68L496.39,123.87L496.39,143.48L496.7,133.68L496.72,138.58L497.39,133.68L497.39,138.58L497.77,133.68L497.77,138.58L498,123.87L498.02,138.58L498.72,133.68L498.87,158.19L499.46,153.29L499.49,148.39L499.54,143.48L500.2,172.9L501,168L501.41,172.9L501.44,168L502.12,163.1L502.69,172.9L503.49,168L503.95,158.19L504.37,163.1L504.45,168L504.83,158.19L504.83,163.1L504.89,168L504.92,172.9L504.94,163.1L505.07,168L505.64,163.1L505.64,168L506.08,153.29L506.14,158.19L506.86,163.1L507,153.29L507.5,163.1L508.4,158.19L509.3,153.29L509.3,158.19L509.3,153.29L509.34,163.1L509.92,163.1L510.83,158.19L510.95,148.39L510.96,163.1L511.1,153.29L511.97,158.19L512.58,138.58L512.92,133.68L513.46,138.58L513.64,133.68L513.64,128.77L514.31,109.16L514.31,138.58L514.41,133.68L514.96,123.87L514.97,133.68L514.97,138.58L515.58,133.68L515.83,138.58L515.95,133.68L516.28,148.39L516.95,153.29L517.45,143.48L517.58,153.29L517.58,158.19L517.58,153.29L517.98,168L518.28,168L518.45,163.1L519.08,158.19L519.17,163.1L519.19,168L519.4,153.29L519.55,158.19L520.22,153.29L521.1,168L521.14,163.1L521.39,168L521.84,158.19L522.12,163.1L522.46,148.39L522.55,158.19L523.36,153.29L523.76,163.1L523.83,148.39L524.2,143.48L524.79,133.68L524.91,158.19L524.92,153.29L524.92,158.19L525.55,143.48L526.14,138.58L526.93,128.77L527.35,133.68L527.35,138.58L528.35,133.68L528.61,143.48L529.07,123.87L529.07,143.48L529.12,138.58L529.96,133.68L531.41,128.77L532.63,109.16L532.74,114.06L532.74,123.87L532.91,109.16L532.95,109.16L535.26,114.06L535.67,104.26L535.7,138.58L535.99,133.68L536,143.48L536.12,138.58L536.87,133.68L536.87,128.77L537.16,138.58L537.18,133.68L537.77,128.77L537.9,109.16L538.18,123.87L538.64,128.77L539.25,109.16L539.7,104.26L539.83,109.16L540,99.35L540,109.16" style="fill: rgb(44, 160, 44); fill-opacity: 0.5; stroke-width: 0;"/></g></g><g class="errorbars"/><g class="lines"><path class="js-line" d="M0,315.1L0.11,320L1.07,315.1L1.78,320L1.89,315.1L1.89,320L3.2,315.1L3.68,320L3.97,315.1L3.97,320L4.87,315.1L4.87,320L4.97,320L5.73,315.1L5.73,320L6.34,320L7.21,315.1L7.21,320L7.81,320L9.4,315.1L9.4,320L10.07,315.1L10.29,320L12.07,315.1L12.07,320L15.02,315.1L15.02,320L22.68,315.1L22.68,320L22.88,315.1L22.88,320L24.55,315.1L24.55,310.19L24.7,315.1L25.89,320L27.65,315.1L27.65,320L28.56,310.19L28.56,315.1L29.02,310.19L29.02,315.1L29.02,320L31.96,315.1L31.96,320L32.1,315.1L32.1,320L33.39,315.1L33.39,320L34.01,320L34.94,315.1L34.94,320L35.74,315.1L36.27,320L36.52,315.1L36.62,320L37.86,315.1L39.31,310.19L39.76,315.1L39.89,310.19L39.89,315.1L41.23,320L41.98,315.1L41.98,320L43.75,315.1L43.75,320L44.88,315.1L45.06,320L45.39,300.39L45.5,305.29L46.05,310.19L46.5,315.1L46.96,310.19L46.97,315.1L48.28,310.19L52.27,305.29L52.27,310.19L52.57,315.1L53.4,310.19L54.34,320L55.81,315.1L55.81,320L56.22,320L59.48,315.1L59.48,320L59.48,315.1L61.03,310.19L61.37,315.1L62.19,310.19L62.99,305.29L63.02,310.19L63.02,305.29L63.62,320L65.53,315.1L65.84,320L66.54,315.1L66.7,310.19L67.7,315.1L67.89,305.29L68.02,310.19L68.88,315.1L69.2,310.19L69.2,315.1L69.77,310.19L69.85,300.39L70.05,320L70.66,315.1L71.54,310.19L71.55,315.1L72.3,305.29L72.31,310.19L73.04,305.29L77.72,300.39L78.21,295.48L79.96,320L81,315.1L81,320L82,315.1L83.24,310.19L83.3,315.1L84.25,310.19L84.41,305.29L85.37,295.48L85.37,300.39L85.39,305.29L86.57,295.48L86.59,300.39L87.45,295.48L87.45,300.39L87.75,305.29L88.34,300.39L88.34,305.29L88.35,300.39L90.23,305.29L90.41,300.39L90.41,305.29L91.34,300.39L91.58,305.29L92.33,300.39L92.81,295.48L93.61,300.39L94.35,295.48L94.66,300.39L97,295.48L97,300.39L97.62,295.48L97.64,300.39L99.07,305.29L99.6,300.39L99.81,305.29L99.95,300.39L99.96,305.29L101.01,300.39L101.02,270.97L101.74,295.48L102.03,300.39L102.04,305.29L102.2,295.48L102.61,295.48L103.22,290.58L103.96,295.48L104.14,290.58L104.69,280.77L104.86,290.58L104.95,295.48L105.6,275.87L105.69,285.68L105.73,290.58L105.73,285.68L106.73,290.58L107.18,275.87L107.18,275.87L107.73,280.77L108.82,256.26L109.81,251.35L110.87,256.26L111.17,251.35L111.3,261.16L111.92,261.16L112.05,256.26L112.36,275.87L112.49,270.97L113.17,266.06L113.69,246.45L113.69,251.35L114.09,256.26L114.12,261.16L115.01,256.26L115.14,251.35L115.15,256.26L116.49,261.16L116.61,280.77L117.21,275.87L117.22,270.97L117.23,280.77L118.37,275.87L118.37,280.77L120.6,275.87L120.6,270.97L120.6,280.77L122.66,275.87L122.67,280.77L122.67,275.87L123.78,280.77L123.83,275.87L125.74,270.97L126.61,280.77L126.62,275.87L126.95,280.77L127.81,275.87L128.14,280.77L128.87,275.87L128.9,280.77L130.59,275.87L130.62,280.77L132.53,275.87L132.64,280.77L133.04,275.87L133.54,270.97L133.67,275.87L134.59,270.97L134.6,275.87L135.02,256.26L135.16,256.26L135.57,251.35L135.93,275.87L135.93,275.87L136.95,270.97L137.06,280.77L137.25,280.77L137.98,275.87L138.99,270.97L139.11,266.06L139.7,270.97L139.89,266.06L140.74,251.35L140.77,256.26L141.79,241.55L141.79,236.65L141.8,231.74L141.95,261.16L143.26,256.26L143.38,251.35L143.4,256.26L144.88,251.35L145.68,270.97L146.93,266.06L147.35,270.97L149.01,266.06L150.14,261.16L150.14,266.06L151.51,251.35L151.51,256.26L151.78,261.16L151.8,266.06L152.22,256.26L152.22,261.16L152.56,256.26L152.56,261.16L153.58,266.06L153.76,275.87L154.49,270.97L154.59,266.06L156.25,261.16L156.81,246.45L156.81,251.35L156.82,256.26L156.87,270.97L158.74,266.06L158.84,270.97L158.88,266.06L160.52,261.16L160.54,266.06L161.95,261.16L161.95,266.06L162.39,261.16L162.85,256.26L163.57,251.35L163.6,256.26L166.56,261.16L169.7,251.35L170.46,246.45L171.26,251.35L172,246.45L172,251.35L174.77,246.45L175.25,251.35L175.88,246.45L177.14,241.55L177.39,246.45L177.39,241.55L177.43,280.77L177.44,275.87L179.91,270.97L179.92,275.87L182.34,280.77L183.48,275.87L183.48,280.77L184.13,275.87L184.16,280.77L186.45,275.87L186.61,270.97L188.05,275.87L188.06,280.77L188.67,241.55L188.75,246.45L188.76,241.55L188.79,261.16L190.36,256.26L190.7,241.55L192.42,236.65L192.94,231.74L192.95,236.65L195.23,231.74L195.73,236.65L197.1,231.74L197.41,236.65L197.72,231.74L199.98,226.84L203.07,221.94L203.18,226.84L204.11,221.94L204.84,226.84L204.87,217.03L205.11,221.94L206.02,226.84L206.28,246.45L207.14,251.35L207.22,256.26L207.32,246.45L210.87,241.55L211.46,246.45L212.17,241.55L212.32,236.65L214.54,231.74L217.6,226.84L219.24,221.94L219.26,217.03L220.62,212.13L221.44,217.03L221.45,212.13L221.76,246.45L221.78,241.55L222.79,246.45L223.23,251.35L223.24,246.45L224.42,251.35L224.9,261.16L225.29,256.26L225.31,261.16L225.85,246.45L225.9,256.26L226.48,261.16L226.51,266.06L227.45,261.16L228.67,256.26L228.68,261.16L230.74,251.35L231.03,246.45L233.47,241.55L234.63,246.45L236.27,241.55L236.77,236.65L239.16,226.84L239.17,231.74L240.05,217.03L241.95,212.13L242.24,197.42L242.79,192.52L243.89,182.71L243.94,187.61L246.27,153.29L246.35,158.19L246.35,163.1L246.51,148.39L246.94,158.19L247.12,153.29L247.24,148.39L248.57,143.48L248.73,138.58L249,148.39L249.01,153.29L249.18,187.61L249.47,177.81L249.99,172.9L251.07,256.26L251.31,251.35L251.5,246.45L251.52,241.55L252.13,256.26L252.23,251.35L252.43,246.45L253.28,256.26L253.38,261.16L253.4,251.35L253.85,266.06L254.16,270.97L254.58,256.26L254.62,251.35L255.19,266.06L255.45,261.16L255.45,266.06L255.76,261.16L256.47,256.26L256.51,251.35L257.35,256.26L257.87,246.45L258.52,241.55L259.35,236.65L259.42,231.74L259.42,236.65L259.49,231.74L260.32,226.84L260.32,231.74L260.93,226.84L261.72,221.94L261.83,217.03L262.81,221.94L266.58,217.03L266.68,212.13L266.94,207.23L267.26,212.13L268.91,207.23L269.88,197.42L270.24,192.52L270.64,187.61L272.29,182.71L272.75,168L272.96,182.71L272.96,187.61L274.22,163.1L276.36,158.19L276.43,148.39L277.49,143.48L279.19,133.68L279.23,138.58L279.25,172.9L279.9,153.29L280.19,148.39L280.19,153.29L280.34,148.39L282.55,143.48L284.3,138.58L284.5,133.68L286.31,128.77L286.31,133.68L286.32,128.77L286.32,133.68L287.31,128.77L287.51,123.87L288.2,128.77L288.75,148.39L288.93,143.48L289.19,148.39L289.41,153.29L291,148.39L291.54,153.29L291.89,148.39L293.69,138.58L293.69,143.48L294.52,138.58L294.57,133.68L294.63,128.77L295.82,133.68L296.41,192.52L299.05,187.61L299.56,192.52L299.96,187.61L299.98,192.52L302.89,187.61L303.62,197.42L303.66,192.52L303.77,187.61L303.77,192.52L304.04,192.52L304.75,197.42L304.93,187.61L304.93,192.52L307.37,187.61L307.38,182.71L308.2,177.81L310.29,172.9L310.83,168L310.99,153.29L311.04,177.81L311.41,168L311.88,172.9L312.37,182.71L312.6,177.81L312.87,172.9L313.7,236.65L313.93,231.74L314.95,217.03L315.59,212.13L316.63,187.61L317.62,182.71L318.55,177.81L318.66,172.9L319.53,158.19L319.58,163.1L320.57,109.16L322.85,104.26L324.83,99.35L324.83,94.45L328.33,99.35L328.41,94.45L329.71,89.55L330.14,84.65L332.23,65.03L332.23,60.13L332.37,50.32L332.78,153.29L333.1,148.39L333.56,143.48L333.58,158.19L333.83,153.29L333.99,148.39L335.05,123.87L335.18,128.77L337.6,123.87L338.12,118.97L338.42,123.87L339.41,118.97L339.81,123.87L341.01,118.97L342.52,123.87L342.54,138.58L343.22,133.68L343.95,138.58L344.41,168L344.84,172.9L344.98,168L345.3,182.71L345.51,177.81L345.9,182.71L346.48,177.81L347.34,163.1L348.25,158.19L348.49,148.39L349.15,143.48L350.04,153.29L350.46,148.39L350.46,153.29L351.19,148.39L351.48,153.29L351.48,163.1L352.07,158.19L353.45,153.29L353.66,143.48L354.12,158.19L354.13,158.19L354.13,163.1L354.8,153.29L355.03,148.39L355.84,138.58L355.86,143.48L359.04,138.58L359.44,143.48L360.87,138.58L361.33,133.68L361.33,138.58L362.11,143.48L362.41,138.58L362.49,148.39L363.27,143.48L364.42,128.77L364.42,133.68L364.87,123.87L365.46,118.97L365.91,128.77L365.93,118.97L366.47,123.87L367.08,118.97L367.09,123.87L367.83,118.97L367.98,123.87L368.68,118.97L369.26,114.06L369.48,118.97L369.89,104.26L369.95,114.06L370.75,109.16L370.8,104.26L371.65,99.35L372.8,94.45L372.9,89.55L373.63,69.94L374.01,65.03L374.13,69.94L375.9,65.03L376.2,60.13L377.3,55.23L377.46,99.35L377.58,99.35L379.1,94.45L380.06,89.55L380.07,94.45L381.97,89.55L381.98,94.45L382.41,89.55L384.93,84.65L384.93,89.55L385.62,89.55L386.24,84.65L387.02,65.03L387.09,69.94L388.31,65.03L388.42,55.23L388.87,79.74L388.87,84.65L389.25,79.74L389.48,84.65L390.49,79.74L391.34,60.13L391.56,55.23L392.17,79.74L392.28,65.03L392.47,60.13L393.21,89.55L393.45,84.65L394.32,133.68L394.4,128.77L395.13,158.19L395.52,153.29L396.3,158.19L396.3,153.29L396.35,158.19L398.87,153.29L399.51,138.58L399.53,143.48L399.78,148.39L403.46,143.48L403.48,148.39L404.22,138.58L405.15,143.48L406.31,138.58L407.27,133.68L407.27,138.58L409.18,133.68L409.33,123.87L410.38,128.77L410.95,118.97L410.95,114.06L410.97,94.45L414.85,99.35L415.97,79.74L418.16,74.84L418.67,65.03L418.67,69.94L418.67,74.84L420.83,65.03L421.3,60.13L424.17,50.32L424.37,45.42L424.96,40.52L424.96,45.42L425.14,50.32L425.76,74.84L425.89,69.94L426.52,65.03L426.56,69.94L426.9,45.42L427.32,40.52L427.51,25.81L427.71,40.52L427.71,45.42L427.72,55.23L428.38,35.61L428.51,30.71L428.81,25.81L428.91,40.52L428.93,45.42L428.98,40.52L429.67,60.13L429.71,55.23L429.8,50.32L429.81,69.94L430.3,60.13L430.41,65.03L430.41,69.94L430.44,60.13L430.73,60.13L431.43,55.23L431.5,50.32L431.94,79.74L431.94,74.84L432.36,69.94L432.88,35.61L433.03,84.65L433.07,84.65L433.08,89.55L433.77,74.84L433.77,69.94L433.85,55.23L434.06,89.55L434.4,84.65L434.53,79.74L434.66,84.65L435.31,74.84L435.31,79.74L435.45,89.55L435.82,79.74L435.83,74.84L436.58,30.71L436.6,25.81L436.61,16L436.75,99.35L437.08,79.74L437.5,74.84L437.94,65.03L438.04,74.84L438.18,79.74L438.86,69.94L439.13,74.84L439.67,89.55L439.86,79.74L439.96,84.65L440.32,74.84L440.71,99.35L440.84,94.45L440.85,104.26L441.16,79.74L441.34,99.35L441.76,94.45L442.44,118.97L443.05,114.06L443.41,118.97L443.42,109.16L443.81,104.26L444.07,79.74L444.82,84.65L444.97,109.16L445.28,74.84L445.45,84.65L445.63,89.55L445.86,84.65L446.03,99.35L447.23,94.45L447.37,104.26L447.54,94.45L448.23,89.55L448.39,94.45L448.58,84.65L448.93,79.74L448.97,94.45L449.38,84.65L450.11,79.74L450.64,74.84L450.64,79.74L450.64,84.65L451.19,74.84L451.19,69.94L451.2,65.03L451.24,84.65L451.38,69.94L452.26,65.03L452.5,50.32L452.63,69.94L452.71,74.84L453.45,114.06L453.72,104.26L453.72,99.35L454.09,94.45L454.1,104.26L454.1,109.16L454.1,104.26L454.1,118.97L454.72,114.06L454.95,109.16L455.2,114.06L455.46,94.45L455.49,104.26L455.59,99.35L455.61,94.45L456.08,128.77L456.19,128.77L456.35,123.87L456.45,94.45L456.47,128.77L457.13,104.26L457.2,99.35L457.39,109.16L457.84,84.65L458.12,89.55L458.67,133.68L458.84,128.77L459.28,133.68L459.73,109.16L460.03,114.06L460.29,109.16L460.29,114.06L460.75,104.26L460.76,104.26L461.91,99.35L462.53,89.55L462.53,94.45L463.37,89.55L463.41,84.65L463.44,123.87L463.86,118.97L464.43,123.87L464.54,128.77L464.71,104.26L464.72,99.35L465.15,89.55L465.19,99.35L465.41,104.26L465.44,99.35L466.18,133.68L466.18,128.77L466.49,133.68L466.81,118.97L467.1,128.77L467.42,133.68L467.8,138.58L468.14,118.97L468.14,123.87L468.55,118.97L469.68,104.26L470.03,109.16L470.05,104.26L470.19,123.87L470.64,123.87L470.94,118.97L470.96,123.87L471.23,114.06L471.49,123.87L471.8,118.97L472.13,138.58L472.39,128.77L472.71,133.68L473.41,123.87L473.41,128.77L473.66,123.87L473.84,109.16L473.85,128.77L474.03,118.97L474.76,123.87L475.16,118.97L475.33,138.58L475.75,133.68L476.06,128.77L476.07,138.58L476.36,133.68L476.66,128.77L477.36,123.87L477.36,128.77L477.53,133.68L477.54,128.77L477.69,153.29L478.25,148.39L478.31,143.48L478.4,138.58L479,153.29L479.02,148.39L479.13,153.29L479.87,128.77L479.87,148.39L479.88,153.29L479.88,148.39L480.02,158.19L480.63,153.29L480.89,148.39L480.89,158.19L481.35,158.19L481.65,153.29L481.81,168L482.23,163.1L482.54,158.19L483.4,153.29L483.54,158.19L484.35,148.39L484.36,143.48L484.46,172.9L485.03,158.19L485.19,153.29L485.2,172.9L485.94,168L486.03,172.9L486.36,158.19L486.37,163.1L486.94,158.19L486.94,163.1L487.07,148.39L487.69,153.29L487.7,148.39L487.7,143.48L488.13,163.1L488.45,158.19L488.48,153.29L489.19,143.48L489.45,148.39L489.45,153.29L489.47,143.48L489.49,148.39L490.48,143.48L490.48,148.39L491.1,138.58L491.11,143.48L491.26,138.58L492.26,123.87L492.26,128.77L492.39,133.68L492.7,123.87L493.64,128.77L493.73,133.68L494.29,123.87L494.29,128.77L494.34,123.87L494.89,148.39L494.92,148.39L495.33,143.48L495.36,153.29L495.4,138.58L495.78,138.58L496.09,133.68L496.39,123.87L496.39,143.48L496.7,133.68L496.72,138.58L497.39,133.68L497.39,138.58L497.77,133.68L497.77,138.58L498,123.87L498.02,138.58L498.72,133.68L498.87,158.19L499.46,153.29L499.49,148.39L499.54,143.48L500.2,172.9L501,168L501.41,172.9L501.44,168L502.12,163.1L502.69,172.9L503.49,168L503.95,158.19L504.37,163.1L504.45,168L504.83,158.19L504.83,163.1L504.89,168L504.92,172.9L504.94,163.1L505.07,168L505.64,163.1L505.64,168L506.08,153.29L506.14,158.19L506.86,163.1L507,153.29L507.5,163.1L508.4,158.19L509.3,153.29L509.3,158.19L509.3,153.29L509.34,163.1L509.92,163.1L510.83,158.19L510.95,148.39L510.96,163.1L511.1,153.29L511.97,158.19L512.58,138.58L512.92,133.68L513.46,138.58L513.64,133.68L513.64,128.77L514.31,109.16L514.31,138.58L514.41,133.68L514.96,123.87L514.97,133.68L514.97,138.58L515.58,133.68L515.83,138.58L515.95,133.68L516.28,148.39L516.95,153.29L517.45,143.48L517.58,153.29L517.58,158.19L517.58,153.29L517.98,168L518.28,168L518.45,163.1L519.08,158.19L519.17,163.1L519.19,168L519.4,153.29L519.55,158.19L520.22,153.29L521.1,168L521.14,163.1L521.39,168L521.84,158.19L522.12,163.1L522.46,148.39L522.55,158.19L523.36,153.29L523.76,163.1L523.83,148.39L524.2,143.48L524.79,133.68L524.91,158.19L524.92,153.29L524.92,158.19L525.55,143.48L526.14,138.58L526.93,128.77L527.35,133.68L527.35,138.58L528.35,133.68L528.61,143.48L529.07,123.87L529.07,143.48L529.12,138.58L529.96,133.68L531.41,128.77L532.63,109.16L532.74,114.06L532.74,123.87L532.91,109.16L532.95,109.16L535.26,114.06L535.67,104.26L535.7,138.58L535.99,133.68L536,143.48L536.12,138.58L536.87,133.68L536.87,128.77L537.16,138.58L537.18,133.68L537.77,128.77L537.9,109.16L538.18,123.87L538.64,128.77L539.25,109.16L539.7,104.26L539.83,109.16L540,99.35L540,109.16" style="vector-effect: none; fill: none; stroke: rgb(44, 160, 44); stroke-opacity: 1; stroke-width: 2px; opacity: 1;"/></g><g class="points"/><g class="text"/></g></g></g></g><g class="zerolinelayer-above"/><path class="xlines-above crisp" d="M0,0" style="fill: none;"/><path class="ylines-above crisp" d="M0,0" style="fill: none;"/><g class="overlines-above"/><g class="xaxislayer-above"><g class="xtick"><text text-anchor="middle" x="0" y="439" transform="translate(97.58,0)" style="font-family: 'Open Sans'; font-size: 18px; fill: rgb(255, 255, 255); fill-opacity: 1; white-space: pre;">2016</text></g><g class="xtick"><text text-anchor="middle" x="0" y="439" style="font-family: 'Open Sans'; font-size: 18px; fill: rgb(255, 255, 255); fill-opacity: 1; white-space: pre;" transform="translate(205.22,0)">2018</text></g><g class="xtick"><text text-anchor="middle" x="0" y="439" style="font-family: 'Open Sans'; font-size: 18px; fill: rgb(255, 255, 255); fill-opacity: 1; white-space: pre;" transform="translate(312.71000000000004,0)">2020</text></g><g class="xtick"><text text-anchor="middle" x="0" y="439" style="font-family: 'Open Sans'; font-size: 18px; fill: rgb(255, 255, 255); fill-opacity: 1; white-space: pre;" transform="translate(420.36,0)">2022</text></g><g class="xtick"><text text-anchor="middle" x="0" y="439" style="font-family: 'Open Sans'; font-size: 18px; fill: rgb(255, 255, 255); fill-opacity: 1; white-space: pre;" transform="translate(527.85,0)">2024</text></g></g><g class="yaxislayer-above"><g class="ytick"><text text-anchor="end" x="79" y="6.3" transform="translate(0,420)" style="font-family: 'Open Sans'; font-size: 18px; fill: rgb(255, 255, 255); fill-opacity: 1; white-space: pre;">0</text></g><g class="ytick"><text text-anchor="end" x="79" y="6.3" style="font-family: 'Open Sans'; font-size: 18px; fill: rgb(255, 255, 255); fill-opacity: 1; white-space: pre;" transform="translate(0,370.97)">10</text></g><g class="ytick"><text text-anchor="end" x="79" y="6.3" style="font-family: 'Open Sans'; font-size: 18px; fill: rgb(255, 255, 255); fill-opacity: 1; white-space: pre;" transform="translate(0,321.94)">20</text></g><g class="ytick"><text text-anchor="end" x="79" y="6.3" style="font-family: 'Open Sans'; font-size: 18px; fill: rgb(255, 255, 255); fill-opacity: 1; white-space: pre;" transform="translate(0,272.9)">30</text></g><g class="ytick"><text text-anchor="end" x="79" y="6.3" style="font-family: 'Open Sans'; font-size: 18px; fill: rgb(255, 255, 255); fill-opacity: 1; white-space: pre;" transform="translate(0,223.87)">40</text></g><g class="ytick"><text text-anchor="end" x="79" y="6.3" style="font-family: 'Open Sans'; font-size: 18px; fill: rgb(255, 255, 255); fill-opacity: 1; white-space: pre;" transform="translate(0,174.84)">50</text></g><g class="ytick"><text text-anchor="end" x="79" y="6.3" style="font-family: 'Open Sans'; font-size: 18px; fill: rgb(255, 255, 255); fill-opacity: 1; white-space: pre;" transform="translate(0,125.81)">60</text></g></g><g class="overaxes-above"/></g></g><g class="polarlayer"/><g class="smithlayer"/><g class="ternarylayer"/><g class="geolayer"/><g class="funnelarealayer"/><g class="pielayer"/><g class="iciclelayer"/><g class="treemaplayer"/><g class="sunburstlayer"/><g class="glimages"/><defs id="topdefs-0bc513"><g class="clips"/></defs><g class="layer-above"><g class="imagelayer"/><g class="shapelayer"/></g><g class="infolayer"><g class="g-gtitle"><text class="gtitle" x="35" y="50" text-anchor="start" dy="0em" style="opacity: 1; font-family: 'Open Sans'; font-size: 25px; fill: rgb(255, 255, 255); fill-opacity: 1; white-space: pre;">MultiQC/MultiQC - Open Pull Requests Over Time</text></g><g class="g-xtitle"><text class="xtitle" x="350" y="472.9" text-anchor="middle" style="opacity: 1; font-family: 'Open Sans'; font-size: 22px; fill: rgb(255, 255, 255); fill-opacity: 1; white-space: pre;">Date</text></g><g class="g-ytitle"><text class="ytitle" transform="rotate(-90,38.8,260)" x="38.8" y="260" text-anchor="middle" style="opacity: 1; font-family: 'Open Sans'; font-size: 22px; fill: rgb(255, 255, 255); fill-opacity: 1; white-space: pre;">Number of Open PRs</text></g></g></svg>