<svg class="main-svg" xmlns="http://www.w3.org/2000/svg" xmlns:xlink="http://www.w3.org/1999/xlink" width="700" height="500" style="" viewBox="0 0 700 500"><rect x="0" y="0" width="700" height="500" style="fill: rgb(0, 0, 0); fill-opacity: 0;"/><defs id="defs-979ae9"><g class="clips"><clipPath id="clip979ae9xyplot" class="plotclip"><rect width="535" height="320"/></clipPath><clipPath class="axesclip" id="clip979ae9x"><rect x="85" y="0" width="535" height="500"/></clipPath><clipPath class="axesclip" id="clip979ae9y"><rect x="0" y="100" width="700" height="320"/></clipPath><clipPath class="axesclip" id="clip979ae9xy"><rect x="85" y="100" width="535" height="320"/></clipPath></g><g class="gradients"/><g class="patterns"/></defs><g class="bglayer"><rect class="bg" x="85" y="100" width="535" height="320" style="fill: rgb(0, 0, 0); fill-opacity: 0; stroke-width: 0;"/></g><g class="layer-below"><g class="imagelayer"/><g class="shapelayer"/></g><g class="cartesianlayer"><g class="subplot xy"><g class="layer-subplot"><g class="shapelayer"/><g class="imagelayer"/></g><g class="minor-gridlayer"><g class="x"/><g class="y"/></g><g class="gridlayer"><g class="x"><path class="xgrid crisp" transform="translate(102.42,0)" d="M0,100v320" style="stroke: rgb(255, 255, 255); stroke-opacity: 1; stroke-width: 1px;"/><path class="xgrid crisp" transform="translate(209.1,0)" d="M0,100v320" style="stroke: rgb(255, 255, 255); stroke-opacity: 1; stroke-width: 1px;"/><path class="xgrid crisp" transform="translate(315.63,0)" d="M0,100v320" style="stroke: rgb(255, 255, 255); stroke-opacity: 1; stroke-width: 1px;"/><path class="xgrid crisp" transform="translate(422.31,0)" d="M0,100v320" style="stroke: rgb(255, 255, 255); stroke-opacity: 1; stroke-width: 1px;"/><path class="xgrid crisp" transform="translate(528.8399999999999,0)" d="M0,100v320" style="stroke: rgb(255, 255, 255); stroke-opacity: 1; stroke-width: 1px;"/></g><g class="y"><path class="ygrid crisp" transform="translate(0,381.17)" d="M85,0h535" style="stroke: rgb(255, 255, 255); stroke-opacity: 1; stroke-width: 1px;"/><path class="ygrid crisp" transform="translate(0,342.35)" d="M85,0h535" style="stroke: rgb(255, 255, 255); stroke-opacity: 1; stroke-width: 1px;"/><path class="ygrid crisp" transform="translate(0,303.52)" d="M85,0h535" style="stroke: rgb(255, 255, 255); stroke-opacity: 1; stroke-width: 1px;"/><path class="ygrid crisp" transform="translate(0,264.7)" d="M85,0h535" style="stroke: rgb(255, 255, 255); stroke-opacity: 1; stroke-width: 1px;"/><path class="ygrid crisp" transform="translate(0,225.87)" d="M85,0h535" style="stroke: rgb(255, 255, 255); stroke-opacity: 1; stroke-width: 1px;"/><path class="ygrid crisp" transform="translate(0,187.05)" d="M85,0h535" style="stroke: rgb(255, 255, 255); stroke-opacity: 1; stroke-width: 1px;"/><path class="ygrid crisp" transform="translate(0,148.22)" d="M85,0h535" style="stroke: rgb(255, 255, 255); stroke-opacity: 1; stroke-width: 1px;"/><path class="ygrid crisp" transform="translate(0,109.4)" d="M85,0h535" style="stroke: rgb(255, 255, 255); stroke-opacity: 1; stroke-width: 1px;"/></g></g><g class="zerolinelayer"><path class="yzl zl crisp" transform="translate(0,420)" d="M85,0h535" style="stroke: rgb(255, 255, 255); stroke-opacity: 1; stroke-width: 2px;"/></g><g class="layer-between"><g class="shapelayer"/><g class="imagelayer"/></g><path class="xlines-below"/><path class="ylines-below"/><g class="overlines-below"/><g class="xaxislayer-below"/><g class="yaxislayer-below"/><g class="overaxes-below"/><g class="overplot"><g class="xy" transform="translate(85,100)" clip-path="url(#clip979ae9xyplot)"><g class="scatterlayer mlayer"><g class="trace scatter tracec886f3" style="stroke-miterlimit: 2;"><g class="fills"><g><path class="js-fill" d="M535,320L0,320L0,319.81L3.63,318.45L3.93,318.25L5.97,317.09L6.28,316.89L14.88,315.34L22.47,315.15L22.68,314.95L24.33,314.76L24.33,314.56L27.41,314.37L35.78,311.85L36.2,311.65L44.84,309.71L44.94,309.52L44.98,308.93L45.95,308.74L46.54,308.35L47.84,308.16L60.49,306.8L61.63,306.61L69.15,304.28L69.2,304.08L70.03,303.11L70.9,302.92L72.38,302.14L77.03,301.95L80.27,301.17L81.27,300.98L85.39,299.62L85.8,299.42L96.74,297.48L98.22,297.29L100.11,295.93L100.12,295.73L100.83,293.21L101.24,293.02L101.69,292.63L102.3,292.43L104.02,291.08L104.17,290.88L104.78,289.91L105.78,289.72L106.96,288.36L107.07,288.16L107.85,287.39L108.83,287.19L112.15,285.25L112.15,285.06L112.67,284.48L113.98,284.28L114.11,284.09L116.16,283.89L116.17,283.7L117.31,283.5L125.18,282.15L125.48,281.95L125.81,281.37L126.66,281.17L133.81,279.43L133.81,279.23L134.71,278.46L135.72,278.26L139.83,276.32L140.51,276.13L140.66,275.16L141.98,274.96L142.1,274.77L143.58,274.57L144.14,274.19L145.62,273.99L145.93,273.6L147.68,273.41L157.46,270.11L159.09,269.92L175.83,267.2L175.85,267L186.39,265.64L186.39,265.45L187.06,264.29L188.65,264.09L188.99,263.32L190.7,263.12L191.21,262.54L193.48,262.34L218.65,259.04L219.38,258.85L219.79,257.88L221.24,257.69L223.83,256.72L225.41,256.52L237.59,254.19L237.9,254L240.07,253.03L240.61,252.83L244.3,250.11L244.31,249.92L249.06,247.79L249.25,247.59L249.97,247.2L250.17,247.01L255.07,243.51L255.56,243.32L259.49,241.77L264.19,241.57L264.55,241.19L266.5,240.99L270.3,239.44L270.41,239.24L271.77,238.08L273.88,237.89L273.95,237.5L275.01,237.3L280.02,235.56L281.76,235.36L281.95,235.17L283.75,234.97L283.75,234.78L284.74,234.58L284.93,234.39L286.34,234.2L291.93,233.03L291.99,232.84L308.05,229.54L308.05,229.34L308.62,228.57L309.8,228.37L310.4,227.21L310.4,227.01L314.78,224.1L315.7,223.91L316.76,222.74L317.26,222.55L317.7,220.8L319.96,220.61L328.58,219.05L329.25,218.86L329.43,218.08L330.12,217.89L332.05,216.14L334.58,215.95L335.09,215.56L336.37,215.37L345.14,213.62L345.16,213.43L346.02,213.04L347.32,212.84L352.57,210.9L352.66,210.71L360.25,209.54L360.26,209.35L363.79,207.8L364.54,207.6L369.46,205.85L369.56,205.66L370.28,204.88L370.66,204.69L374.08,203.72L374.08,203.52L374.19,203.33L375.7,203.14L384.84,201L384.89,200.81L384.94,200.61L385.77,200.42L387.31,199.45L387.84,199.25L391.98,195.57L392.75,195.37L400.27,194.21L400.42,194.01L400.6,193.62L402.09,193.43L402.68,193.04L403.62,192.85L407.27,191.88L407.27,191.68L407.29,190.91L411.37,190.71L412.24,190.13L414.41,189.94L417.53,188.97L418.82,188.77L422.06,187.8L422.07,187.61L423.07,186.64L423.07,186.44L423.75,185.47L423.79,185.28L426.87,179.26L427.56,179.07L430.51,171.49L430.64,171.3L432.69,167.42L432.7,167.22L433.16,165.09L433.58,164.89L434.93,163.73L435.3,163.54L436.31,162.37L436.38,162.18L437.09,160.82L437.21,160.62L438.1,158.68L439.09,158.49L439.85,157.13L439.86,156.93L440.1,156.55L440.99,156.35L442.02,151.89L443.23,151.69L443.53,151.11L444.22,150.92L447.26,148.2L447.28,148.01L447.34,147.62L448.21,147.42L449.66,144.7L449.66,144.51L450.04,143.54L450.04,143.35L450.64,140.82L450.88,140.63L452.39,133.06L452.39,132.86L453.1,130.73L453.25,130.53L455.62,126.07L455.64,125.87L459.26,122.96L459.27,122.77L459.66,121.6L460.39,121.41L461.69,118.11L461.82,117.92L463.89,112.67L463.89,112.48L464.36,111.12L464.82,110.93L465.84,109.96L465.84,109.76L466.18,108.21L466.73,108.02L467.27,107.24L467.58,107.04L468.73,104.72L468.73,104.52L469.65,100.64L469.74,100.44L471.07,98.11L471.49,97.92L472.67,95.79L472.82,95.59L473.96,92.87L474.03,92.68L474.73,91.71L475.02,91.51L475.6,89.57L476.04,89.38L478.22,82.58L479.07,82.39L480.04,81.42L480.1,81.23L480.84,78.9L480.98,78.7L482.77,73.46L483.16,73.27L483.88,70.16L483.93,69.97L484.18,69.19L484.81,69L487.7,65.89L487.85,65.7L488.29,64.92L489.48,64.73L490.21,63.56L490.46,63.37L491.35,60.84L491.64,60.65L493.54,58.32L494.25,58.13L495.13,55.21L495.16,55.02L495.63,54.05L496.51,53.85L500.29,51.91L500.31,51.72L502.65,47.06L503.85,46.87L504.78,45.9L505.23,45.7L506.53,44.15L507.4,43.95L510.35,41.24L510.97,41.04L514.55,38.32L514.58,38.13L515.98,36.19L516.48,35.99L517.88,33.28L518.68,33.08L519.14,32.11L519.5,31.92L520.22,31.14L520.57,30.95L522.21,29.78L523.62,29.59L524.65,26.09L524.89,25.9L528.18,23.77L530.48,23.57L531.19,21.24L531.31,21.05L532.06,20.46L532.35,20.27L533.09,18.91L533.14,18.72L534.42,16.58L534.87,16.39L535,16" style="fill: rgb(44, 160, 44); fill-opacity: 0.5; stroke-width: 0;"/></g></g><g class="errorbars"/><g class="lines"><path class="js-line" d="M0,319.81L3.63,318.45L3.93,318.25L5.97,317.09L6.28,316.89L14.88,315.34L22.47,315.15L22.68,314.95L24.33,314.76L24.33,314.56L27.41,314.37L35.78,311.85L36.2,311.65L44.84,309.71L44.94,309.52L44.98,308.93L45.95,308.74L46.54,308.35L47.84,308.16L60.49,306.8L61.63,306.61L69.15,304.28L69.2,304.08L70.03,303.11L70.9,302.92L72.38,302.14L77.03,301.95L80.27,301.17L81.27,300.98L85.39,299.62L85.8,299.42L96.74,297.48L98.22,297.29L100.11,295.93L100.12,295.73L100.83,293.21L101.24,293.02L101.69,292.63L102.3,292.43L104.02,291.08L104.17,290.88L104.78,289.91L105.78,289.72L106.96,288.36L107.07,288.16L107.85,287.39L108.83,287.19L112.15,285.25L112.15,285.06L112.67,284.48L113.98,284.28L114.11,284.09L116.16,283.89L116.17,283.7L117.31,283.5L125.18,282.15L125.48,281.95L125.81,281.37L126.66,281.17L133.81,279.43L133.81,279.23L134.71,278.46L135.72,278.26L139.83,276.32L140.51,276.13L140.66,275.16L141.98,274.96L142.1,274.77L143.58,274.57L144.14,274.19L145.62,273.99L145.93,273.6L147.68,273.41L157.46,270.11L159.09,269.92L175.83,267.2L175.85,267L186.39,265.64L186.39,265.45L187.06,264.29L188.65,264.09L188.99,263.32L190.7,263.12L191.21,262.54L193.48,262.34L218.65,259.04L219.38,258.85L219.79,257.88L221.24,257.69L223.83,256.72L225.41,256.52L237.59,254.19L237.9,254L240.07,253.03L240.61,252.83L244.3,250.11L244.31,249.92L249.06,247.79L249.25,247.59L249.97,247.2L250.17,247.01L255.07,243.51L255.56,243.32L259.49,241.77L264.19,241.57L264.55,241.19L266.5,240.99L270.3,239.44L270.41,239.24L271.77,238.08L273.88,237.89L273.95,237.5L275.01,237.3L280.02,235.56L281.76,235.36L281.95,235.17L283.75,234.97L283.75,234.78L284.74,234.58L284.93,234.39L286.34,234.2L291.93,233.03L291.99,232.84L308.05,229.54L308.05,229.34L308.62,228.57L309.8,228.37L310.4,227.21L310.4,227.01L314.78,224.1L315.7,223.91L316.76,222.74L317.26,222.55L317.7,220.8L319.96,220.61L328.58,219.05L329.25,218.86L329.43,218.08L330.12,217.89L332.05,216.14L334.58,215.95L335.09,215.56L336.37,215.37L345.14,213.62L345.16,213.43L346.02,213.04L347.32,212.84L352.57,210.9L352.66,210.71L360.25,209.54L360.26,209.35L363.79,207.8L364.54,207.6L369.46,205.85L369.56,205.66L370.28,204.88L370.66,204.69L374.08,203.72L374.08,203.52L374.19,203.33L375.7,203.14L384.84,201L384.89,200.81L384.94,200.61L385.77,200.42L387.31,199.45L387.84,199.25L391.98,195.57L392.75,195.37L400.27,194.21L400.42,194.01L400.6,193.62L402.09,193.43L402.68,193.04L403.62,192.85L407.27,191.88L407.27,191.68L407.29,190.91L411.37,190.71L412.24,190.13L414.41,189.94L417.53,188.97L418.82,188.77L422.06,187.8L422.07,187.61L423.07,186.64L423.07,186.44L423.75,185.47L423.79,185.28L426.87,179.26L427.56,179.07L430.51,171.49L430.64,171.3L432.69,167.42L432.7,167.22L433.16,165.09L433.58,164.89L434.93,163.73L435.3,163.54L436.31,162.37L436.38,162.18L437.09,160.82L437.21,160.62L438.1,158.68L439.09,158.49L439.85,157.13L439.86,156.93L440.1,156.55L440.99,156.35L442.02,151.89L443.23,151.69L443.53,151.11L444.22,150.92L447.26,148.2L447.28,148.01L447.34,147.62L448.21,147.42L449.66,144.7L449.66,144.51L450.04,143.54L450.04,143.35L450.64,140.82L450.88,140.63L452.39,133.06L452.39,132.86L453.1,130.73L453.25,130.53L455.62,126.07L455.64,125.87L459.26,122.96L459.27,122.77L459.66,121.6L460.39,121.41L461.69,118.11L461.82,117.92L463.89,112.67L463.89,112.48L464.36,111.12L464.82,110.93L465.84,109.96L465.84,109.76L466.18,108.21L466.73,108.02L467.27,107.24L467.58,107.04L468.73,104.72L468.73,104.52L469.65,100.64L469.74,100.44L471.07,98.11L471.49,97.92L472.67,95.79L472.82,95.59L473.96,92.87L474.03,92.68L474.73,91.71L475.02,91.51L475.6,89.57L476.04,89.38L478.22,82.58L479.07,82.39L480.04,81.42L480.1,81.23L480.84,78.9L480.98,78.7L482.77,73.46L483.16,73.27L483.88,70.16L483.93,69.97L484.18,69.19L484.81,69L487.7,65.89L487.85,65.7L488.29,64.92L489.48,64.73L490.21,63.56L490.46,63.37L491.35,60.84L491.64,60.65L493.54,58.32L494.25,58.13L495.13,55.21L495.16,55.02L495.63,54.05L496.51,53.85L500.29,51.91L500.31,51.72L502.65,47.06L503.85,46.87L504.78,45.9L505.23,45.7L506.53,44.15L507.4,43.95L510.35,41.24L510.97,41.04L514.55,38.32L514.58,38.13L515.98,36.19L516.48,35.99L517.88,33.28L518.68,33.08L519.14,32.11L519.5,31.92L520.22,31.14L520.57,30.95L522.21,29.78L523.62,29.59L524.65,26.09L524.89,25.9L528.18,23.77L530.48,23.57L531.19,21.24L531.31,21.05L532.06,20.46L532.35,20.27L533.09,18.91L533.14,18.72L534.42,16.58L534.87,16.39L535,16" style="vector-effect: none; fill: none; stroke: rgb(44, 160, 44); stroke-opacity: 1; stroke-width: 2px; opacity: 1;"/></g><g class="points"/><g class="text"/></g></g></g></g><g class="zerolinelayer-above"/><path class="xlines-above crisp" d="M0,0" style="fill: none;"/><path class="ylines-above crisp" d="M0,0" style="fill: none;"/><g class="overlines-above"/><g class="xaxislayer-above"><g class="xtick"><text text-anchor="middle" x="0" y="439" transform="translate(102.42,0)" style="font-family: 'Open Sans'; font-size: 18px; fill: rgb(255, 255, 255); fill-opacity: 1; white-space: pre;">2016</text></g><g class="xtick"><text text-anchor="middle" x="0" y="439" style="font-family: 'Open Sans'; font-size: 18px; fill: rgb(255, 255, 255); fill-opacity: 1; white-space: pre;" transform="translate(209.1,0)">2018</text></g><g class="xtick"><text text-anchor="middle" x="0" y="439" style="font-family: 'Open Sans'; font-size: 18px; fill: rgb(255, 255, 255); fill-opacity: 1; white-space: pre;" transform="translate(315.63,0)">2020</text></g><g class="xtick"><text text-anchor="middle" x="0" y="439" style="font-family: 'Open Sans'; font-size: 18px; fill: rgb(255, 255, 255); fill-opacity: 1; white-space: pre;" transform="translate(422.31,0)">2022</text></g><g class="xtick"><text text-anchor="middle" x="0" y="439" style="font-family: 'Open Sans'; font-size: 18px; fill: rgb(255, 255, 255); fill-opacity: 1; white-space: pre;" transform="translate(528.8399999999999,0)">2024</text></g></g><g class="yaxislayer-above"><g class="ytick"><text text-anchor="end" x="84" y="6.3" transform="translate(0,420)" style="font-family: 'Open Sans'; font-size: 18px; fill: rgb(255, 255, 255); fill-opacity: 1; white-space: pre;">0</text></g><g class="ytick"><text text-anchor="end" x="84" y="6.3" style="font-family: 'Open Sans'; font-size: 18px; fill: rgb(255, 255, 255); fill-opacity: 1; white-space: pre;" transform="translate(0,381.17)">200</text></g><g class="ytick"><text text-anchor="end" x="84" y="6.3" style="font-family: 'Open Sans'; font-size: 18px; fill: rgb(255, 255, 255); fill-opacity: 1; white-space: pre;" transform="translate(0,342.35)">400</text></g><g class="ytick"><text text-anchor="end" x="84" y="6.3" style="font-family: 'Open Sans'; font-size: 18px; fill: rgb(255, 255, 255); fill-opacity: 1; white-space: pre;" transform="translate(0,303.52)">600</text></g><g class="ytick"><text text-anchor="end" x="84" y="6.3" style="font-family: 'Open Sans'; font-size: 18px; fill: rgb(255, 255, 255); fill-opacity: 1; white-space: pre;" transform="translate(0,264.7)">800</text></g><g class="ytick"><text text-anchor="end" x="84" y="6.3" style="font-family: 'Open Sans'; font-size: 18px; fill: rgb(255, 255, 255); fill-opacity: 1; white-space: pre;" transform="translate(0,225.87)">1000</text></g><g class="ytick"><text text-anchor="end" x="84" y="6.3" style="font-family: 'Open Sans'; font-size: 18px; fill: rgb(255, 255, 255); fill-opacity: 1; white-space: pre;" transform="translate(0,187.05)">1200</text></g><g class="ytick"><text text-anchor="end" x="84" y="6.3" style="font-family: 'Open Sans'; font-size: 18px; fill: rgb(255, 255, 255); fill-opacity: 1; white-space: pre;" transform="translate(0,148.22)">1400</text></g><g class="ytick"><text text-anchor="end" x="84" y="6.3" style="font-family: 'Open Sans'; font-size: 18px; fill: rgb(255, 255, 255); fill-opacity: 1; white-space: pre;" transform="translate(0,109.4)">1600</text></g></g><g class="overaxes-above"/></g></g><g class="polarlayer"/><g class="smithlayer"/><g class="ternarylayer"/><g class="geolayer"/><g class="funnelarealayer"/><g class="pielayer"/><g class="iciclelayer"/><g class="treemaplayer"/><g class="sunburstlayer"/><g class="glimages"/><defs id="topdefs-979ae9"><g class="clips"/></defs><g class="layer-above"><g class="imagelayer"/><g class="shapelayer"/></g><g class="infolayer"><g class="g-gtitle"><text class="gtitle" x="35" y="50" text-anchor="start" dy="0em" style="opacity: 1; font-family: 'Open Sans'; font-size: 25px; fill: rgb(255, 255, 255); fill-opacity: 1; white-space: pre;">MultiQC/MultiQC - Pull Requests Created Over Time</text></g><g class="g-xtitle"><text class="xtitle" x="352.5" y="473.9" text-anchor="middle" style="opacity: 1; font-family: 'Open Sans'; font-size: 22px; fill: rgb(255, 255, 255); fill-opacity: 1; white-space: pre;">Date</text></g><g class="g-ytitle" transform="translate(3.3720703125,0)"><text class="ytitle" transform="rotate(-90,20.628124999999997,260)" x="20.628124999999997" y="260" text-anchor="middle" style="opacity: 1; font-family: 'Open Sans'; font-size: 22px; fill: rgb(255, 255, 255); fill-opacity: 1; white-space: pre;">Cumulative PRs Created</text></g></g></svg>