<svg class="main-svg" xmlns="http://www.w3.org/2000/svg" xmlns:xlink="http://www.w3.org/1999/xlink" width="700" height="500" style="" viewBox="0 0 700 500"><rect x="0" y="0" width="700" height="500" style="fill: rgb(0, 0, 0); fill-opacity: 0;"/><defs id="defs-f8e4e9"><g class="clips"><clipPath id="clipf8e4e9xyplot" class="plotclip"><rect width="540" height="320"/></clipPath><clipPath class="axesclip" id="clipf8e4e9x"><rect x="80" y="0" width="540" height="500"/></clipPath><clipPath class="axesclip" id="clipf8e4e9y"><rect x="0" y="100" width="700" height="320"/></clipPath><clipPath class="axesclip" id="clipf8e4e9xy"><rect x="80" y="100" width="540" height="320"/></clipPath></g><g class="gradients"/><g class="patterns"/></defs><g class="bglayer"><rect class="bg" x="80" y="100" width="540" height="320" style="fill: rgb(0, 0, 0); fill-opacity: 0; stroke-width: 0;"/></g><g class="layer-below"><g class="imagelayer"/><g class="shapelayer"/></g><g class="cartesianlayer"><g class="subplot xy"><g class="layer-subplot"><g class="shapelayer"/><g class="imagelayer"/></g><g class="minor-gridlayer"><g class="x"/><g class="y"/></g><g class="gridlayer"><g class="x"><path class="xgrid crisp" transform="translate(96.53,0)" d="M0,100v320" style="stroke: rgb(255, 255, 255); stroke-opacity: 1; stroke-width: 1px;"/><path class="xgrid crisp" transform="translate(197.76999999999998,0)" d="M0,100v320" style="stroke: rgb(255, 255, 255); stroke-opacity: 1; stroke-width: 1px;"/><path class="xgrid crisp" transform="translate(298.86,0)" d="M0,100v320" style="stroke: rgb(255, 255, 255); stroke-opacity: 1; stroke-width: 1px;"/><path class="xgrid crisp" transform="translate(400.09,0)" d="M0,100v320" style="stroke: rgb(255, 255, 255); stroke-opacity: 1; stroke-width: 1px;"/><path class="xgrid crisp" transform="translate(501.18,0)" d="M0,100v320" style="stroke: rgb(255, 255, 255); stroke-opacity: 1; stroke-width: 1px;"/><path class="xgrid crisp" transform="translate(602.42,0)" d="M0,100v320" style="stroke: rgb(255, 255, 255); stroke-opacity: 1; stroke-width: 1px;"/></g><g class="y"><path class="ygrid crisp" transform="translate(0,368.47)" d="M80,0h540" style="stroke: rgb(255, 255, 255); stroke-opacity: 1; stroke-width: 1px;"/><path class="ygrid crisp" transform="translate(0,316.95)" d="M80,0h540" style="stroke: rgb(255, 255, 255); stroke-opacity: 1; stroke-width: 1px;"/><path class="ygrid crisp" transform="translate(0,265.41999999999996)" d="M80,0h540" style="stroke: rgb(255, 255, 255); stroke-opacity: 1; stroke-width: 1px;"/><path class="ygrid crisp" transform="translate(0,213.9)" d="M80,0h540" style="stroke: rgb(255, 255, 255); stroke-opacity: 1; stroke-width: 1px;"/><path class="ygrid crisp" transform="translate(0,162.37)" d="M80,0h540" style="stroke: rgb(255, 255, 255); stroke-opacity: 1; stroke-width: 1px;"/><path class="ygrid crisp" transform="translate(0,110.85)" d="M80,0h540" style="stroke: rgb(255, 255, 255); stroke-opacity: 1; stroke-width: 1px;"/></g></g><g class="zerolinelayer"><path class="yzl zl crisp" transform="translate(0,420)" d="M80,0h540" style="stroke: rgb(255, 255, 255); stroke-opacity: 1; stroke-width: 2px;"/></g><g class="layer-between"><g class="shapelayer"/><g class="imagelayer"/></g><path class="xlines-below"/><path class="ylines-below"/><g class="overlines-below"/><g class="xaxislayer-below"/><g class="yaxislayer-below"/><g class="overaxes-below"/><g class="overplot"><g class="xy" transform="translate(80,100)" clip-path="url(#clipf8e4e9xyplot)"><g class="scatterlayer mlayer"><g class="trace scatter trace9358de" style="stroke-miterlimit: 2;"><g class="fills"><g><path class="js-fill" d="M540,320L0,320L0,317.42L0.1,320L1.01,317.42L1.67,320L1.78,317.42L1.78,320L3.01,317.42L3.74,320L4.58,317.42L4.58,320L4.68,320L5.39,317.42L5.39,320L5.96,320L6.78,317.42L6.78,320L7.35,320L8.84,317.42L8.84,320L9.47,317.42L9.68,320L11.35,317.42L11.35,320L14.12,317.42L14.12,320L21.33,317.42L21.33,320L21.52,317.42L21.52,320L23.09,317.42L23.09,314.85L23.23,317.42L24.35,320L26.01,317.42L26.01,320L27.29,314.85L27.29,317.42L27.29,320L30.05,317.42L30.05,320L30.19,320L31.41,317.42L31.41,320L31.99,320L32.86,317.42L32.86,320L33.62,317.42L33.62,320L34.35,317.42L34.44,320L36.97,314.85L37.4,317.42L37.51,314.85L37.51,317.42L38.78,320L39.48,317.42L39.48,320L41.15,317.42L41.15,320L42.21,317.42L42.21,320L42.69,309.69L42.79,312.27L43.31,314.85L43.74,317.42L44.17,314.85L44.18,317.42L45.4,314.85L49.16,312.27L49.16,314.85L49.44,317.42L50.22,314.85L51.1,320L52.48,317.42L52.87,320L55.94,317.42L55.94,320L55.94,317.42L57.4,314.85L57.72,317.42L58.48,314.85L59.24,312.27L59.27,314.85L59.27,312.27L59.83,320L61.63,317.42L61.92,320L62.58,317.42L62.73,314.85L63.67,317.42L63.85,312.27L63.97,314.85L64.78,317.42L65.08,314.85L65.08,317.42L65.62,314.85L65.69,309.69L65.8,320L65.88,320L66.46,317.42L67.28,314.85L67.29,317.42L68,312.27L68.01,314.85L68.69,312.27L73.1,309.69L73.56,307.12L75.2,320L76.17,317.42L76.17,320L77.12,317.42L78.29,314.85L78.34,317.42L79.38,312.27L79.78,309.69L80.28,307.12L80.28,309.69L80.3,312.27L81.42,307.12L81.43,309.69L82.24,307.12L82.24,309.69L82.52,312.27L83.08,309.69L83.08,312.27L83.09,309.69L84.85,312.27L85.03,309.69L85.03,312.27L85.9,309.69L86.13,312.27L86.83,309.69L87.28,307.12L88.03,309.69L88.73,307.12L89.02,309.69L91.23,307.12L91.23,309.69L91.8,307.12L91.83,309.69L93.17,312.27L93.67,309.69L93.86,312.27L94,309.69L94.01,312.27L94.99,309.69L95.01,294.24L95.69,307.12L95.96,309.69L95.96,312.27L96.11,307.12L96.5,307.12L97.07,304.54L97.77,307.12L97.94,304.54L98.46,299.39L98.62,304.54L98.7,307.12L99.31,296.81L99.43,301.97L100.38,304.54L100.8,296.81L100.8,296.81L101.32,299.39L102.34,286.51L103.28,283.93L104.27,286.51L104.55,283.93L104.68,289.08L105.25,289.08L105.37,286.51L105.67,296.81L105.79,294.24L106.43,291.66L106.92,281.36L106.92,283.93L107.29,286.51L107.33,289.08L108.16,286.51L108.28,283.93L108.3,286.51L109.55,289.08L110.25,299.39L111.32,296.81L111.32,299.39L113.42,296.81L113.42,294.24L113.42,299.39L115.35,296.81L115.37,299.39L115.37,296.81L116.41,299.39L116.46,296.81L118.26,294.24L119.23,299.39L119.36,296.81L119.39,299.39L120.2,296.81L120.51,299.39L121.2,296.81L121.22,299.39L122.81,296.81L122.84,299.39L124.64,296.81L124.74,299.39L125.12,296.81L125.59,294.24L125.71,296.81L126.58,294.24L126.58,296.81L126.98,286.51L127.11,286.51L127.5,283.93L127.83,296.81L127.84,296.81L128.79,294.24L129.08,299.39L129.76,296.81L130.71,294.24L130.83,291.66L131.38,294.24L131.56,291.66L131.66,289.08L132.36,283.93L132.39,286.51L132.69,283.93L132.91,286.51L133.34,283.93L133.35,281.36L133.36,273.63L133.5,289.08L134.73,286.51L134.85,283.93L134.86,286.51L136.25,283.93L137,294.24L138.19,291.66L138.58,294.24L140.14,291.66L141.2,289.08L141.2,291.66L142.49,283.93L142.49,286.51L142.74,289.08L142.76,291.66L143.15,286.51L143.47,289.08L144.44,291.66L144.61,296.81L145.3,294.24L145.39,291.66L146.95,289.08L147.47,281.36L147.48,286.51L147.48,289.08L147.53,294.24L149.28,291.66L149.38,294.24L149.42,291.66L150.97,289.08L150.98,291.66L152.3,289.08L152.3,291.66L152.72,289.08L153.16,286.51L153.83,283.93L153.86,286.51L156.64,289.08L159.6,283.93L160.31,281.36L161.07,283.93L161.75,281.36L161.76,283.93L164.37,281.36L164.81,283.93L165.41,281.36L166.59,278.78L166.83,281.36L166.83,278.78L166.87,299.39L166.87,296.81L169.2,294.24L169.21,296.81L171.48,299.39L172.55,296.81L172.56,299.39L173.17,296.81L173.2,299.39L175.35,296.81L175.5,294.24L176.85,296.81L176.86,299.39L177.43,278.78L177.55,289.08L179.02,286.51L179.35,278.78L180.96,276.2L181.45,273.63L181.46,276.2L183.6,273.63L184.07,276.2L185.36,273.63L185.66,276.2L185.95,273.63L188.08,271.05L190.98,268.47L191.08,271.05L191.96,268.47L192.64,271.05L192.68,265.9L192.89,268.47L193.75,271.05L194,281.36L194.81,283.93L194.88,286.51L194.98,281.36L198.32,278.78L198.87,281.36L199.53,278.78L199.68,276.2L201.76,273.63L204.65,271.05L206.18,268.47L206.2,265.9L207.49,263.32L208.25,265.9L208.27,263.32L208.56,281.36L208.57,278.78L209.52,281.36L209.94,283.93L209.95,281.36L211.06,283.93L211.51,289.08L211.87,286.51L211.89,289.08L212.41,281.36L212.45,286.51L213,289.08L213.03,291.66L213.91,289.08L215.05,286.51L215.06,289.08L217,283.93L217.27,281.36L219.57,278.78L220.66,281.36L222.21,278.78L222.67,276.2L224.92,271.05L224.93,273.63L225.76,265.9L227.54,263.32L227.82,255.59L228.33,253.02L229.37,247.86L229.42,250.44L231.6,232.41L231.68,234.98L231.68,237.56L231.84,229.83L232.41,232.41L232.52,229.83L233.77,227.25L233.92,224.68L234.18,234.98L234.18,237.56L234.35,250.44L234.62,245.29L235.1,242.71L236.12,286.51L236.35,283.93L236.53,281.36L236.54,278.78L237.12,286.51L237.21,283.93L237.4,281.36L238.3,289.08L238.31,286.51L238.31,283.93L239.03,294.24L239.27,291.66L239.27,294.24L239.46,283.93L240,291.66L240.24,289.08L240.24,291.66L240.53,289.08L241.2,286.51L241.24,283.93L242.03,286.51L242.51,281.36L243.13,278.78L243.97,273.63L243.98,276.2L244.82,271.05L244.82,273.63L246.24,265.9L247.16,268.47L250.71,265.9L250.8,263.32L251.05,260.75L251.35,263.32L252.9,260.75L253.81,255.59L254.15,253.02L254.53,250.44L256.08,247.86L256.51,240.14L256.71,247.86L256.71,250.44L257.89,237.56L259.9,234.98L259.97,229.83L260.97,227.25L262.57,222.1L262.6,224.68L262.62,242.71L263.23,232.41L263.51,229.83L263.51,232.41L263.64,229.83L265.73,227.25L267.37,224.68L267.56,222.1L269.26,219.53L269.27,222.1L269.27,219.53L269.27,222.1L270.2,219.53L270.39,216.95L271.04,219.53L271.97,229.83L272.17,232.41L273.68,229.83L274.19,232.41L275.53,227.25L276.21,224.68L276.21,227.25L276.98,224.68L277.09,219.53L278.21,222.1L278.76,253.02L281.25,250.44L281.72,253.02L282.1,250.44L282.12,253.02L284.86,250.44L285.54,255.59L285.58,253.02L285.68,250.44L285.93,253.02L286.6,255.59L286.78,250.44L286.78,253.02L289.07,250.44L289.08,247.86L289.85,245.29L291.82,242.71L292.33,240.14L292.48,232.41L292.52,245.29L292.87,240.14L293.31,242.71L293.77,247.86L293.99,245.29L294.24,242.71L295.02,276.2L295.24,273.63L296.19,265.9L296.8,263.32L297.78,250.44L298.71,247.86L299.68,242.71L299.75,240.14L301.16,229.83L301.18,227.25L301.49,209.22L303.62,206.64L305.49,204.07L305.49,201.49L308.78,204.07L308.85,201.49L310.49,196.34L311.05,193.76L312.45,186.03L312.45,183.46L312.58,178.31L312.96,232.41L313.27,229.83L313.7,227.25L313.71,234.98L313.96,232.41L314.11,229.83L315.1,216.95L315.22,219.53L317.5,216.95L317.99,214.37L318.27,216.95L319.2,214.37L319.58,216.95L320.71,214.37L322.12,216.95L322.15,224.68L322.78,222.1L323.47,224.68L323.9,240.14L324.31,242.71L324.44,240.14L324.74,247.86L324.93,245.29L325.31,247.86L326.4,240.14L326.66,237.56L327.52,234.98L327.54,232.41L328.36,227.25L328.61,229.83L329.2,232.41L329.59,229.83L329.59,232.41L330.28,229.83L330.55,232.41L330.55,237.56L331.1,234.98L332.4,232.41L332.61,227.25L333.03,234.98L333.05,234.98L333.05,237.56L333.68,232.41L333.89,229.83L334.65,224.68L334.67,227.25L337.67,224.68L338.04,227.25L339.38,224.68L339.82,222.1L339.82,224.68L340.55,227.25L340.83,224.68L340.91,229.83L341.64,227.25L342.72,219.53L342.72,222.1L343.15,216.95L343.7,214.37L344.12,219.53L344.14,214.37L344.65,216.95L345.22,214.37L345.23,216.95L345.93,214.37L346.07,216.95L346.73,214.37L347.86,209.22L347.87,206.64L347.92,211.8L348.68,209.22L348.72,206.64L349.52,204.07L350.6,201.49L350.69,198.92L351.38,188.61L351.74,186.03L351.85,188.61L353.52,186.03L353.8,183.46L354.84,180.88L354.98,204.07L355.1,204.07L356.53,201.49L357.43,198.92L357.44,201.49L359.23,198.92L359.23,201.49L359.64,198.92L362.01,196.34L362.01,198.92L362.66,198.92L363.24,196.34L363.98,186.03L364.04,188.61L365.19,186.03L365.29,180.88L365.72,196.34L366.08,193.76L366.29,196.34L367.24,193.76L368.04,183.46L368.25,180.88L368.82,193.76L368.92,186.03L369.11,183.46L369.8,198.92L370.03,196.34L370.84,222.1L370.91,219.53L371.61,234.98L371.97,232.41L372.75,234.98L375.13,232.41L375.72,224.68L375.75,227.25L375.98,229.83L379.44,227.25L379.45,229.83L380.15,224.68L381.03,227.25L382.12,224.68L383.02,222.1L383.02,224.68L384.82,222.1L384.96,216.95L385.95,219.53L386.48,211.8L386.49,209.22L386.5,201.49L390.15,204.07L391.2,193.76L393.26,191.19L393.74,186.03L393.74,188.61L393.74,191.19L395.78,186.03L396.22,183.46L398.91,178.31L399.1,175.73L399.66,173.15L399.66,175.73L399.83,178.31L400.41,191.19L400.54,188.61L401.12,186.03L401.17,188.61L401.48,175.73L401.87,173.15L402.05,165.42L402.24,173.15L402.24,175.73L402.25,180.88L402.87,170.58L403,168L403.27,165.42L403.37,173.15L403.39,175.73L403.44,173.15L404.08,183.46L404.13,180.88L404.21,178.31L404.22,188.61L404.83,186.03L405.08,183.46L405.79,180.88L405.8,178.31L406.22,193.76L406.7,188.61L406.73,186.03L407.11,170.58L407.29,198.92L407.59,196.34L408.02,180.88L408.16,191.19L408.16,193.76L408.21,198.92L408.76,191.19L408.8,193.76L409.39,191.19L409.53,198.92L410.08,186.03L410.16,183.46L410.21,186.03L410.58,168L410.58,168L410.61,165.42L410.61,160.27L410.74,204.07L411.05,193.76L411.45,191.19L411.86,186.03L412.09,193.76L412.13,191.19L412.52,188.61L413.16,196.34L413.49,198.92L413.78,201.49L414.1,191.19L414.45,193.76L414.6,206.64L415.06,204.07L415.45,201.49L416.1,214.37L416.67,211.8L417.01,214.37L417.39,206.64L417.39,204.07L417.63,193.76L418.34,196.34L418.47,209.22L418.77,191.19L418.93,196.34L419.1,198.92L419.31,196.34L419.47,204.07L420.6,201.49L420.74,206.64L420.89,201.49L421.54,198.92L421.7,201.49L421.87,196.34L422.2,193.76L422.24,201.49L422.63,196.34L423.31,193.76L423.81,191.19L423.81,193.76L423.81,196.34L424.32,191.19L424.33,188.61L424.33,186.03L424.37,196.34L424.5,188.61L425.33,186.03L425.56,178.31L425.68,188.61L425.76,191.19L426.45,211.8L426.7,206.64L426.71,204.07L427.06,201.49L427.06,206.64L427.06,209.22L427.06,206.64L427.06,214.37L427.64,211.8L427.87,209.22L428.1,211.8L428.34,201.49L428.47,204.07L428.48,201.49L429.03,219.53L429.22,206.64L429.27,204.07L429.27,201.49L429.29,219.53L429.97,206.64L430.12,204.07L430.25,209.22L430.58,196.34L430.84,198.92L431.36,222.1L431.52,219.53L431.93,222.1L432.36,209.22L432.64,211.8L432.88,209.22L432.89,211.8L433.32,206.64L433.32,206.64L434.4,204.07L434.99,198.92L434.99,201.49L435.78,198.92L435.82,196.34L435.85,216.95L436.24,214.37L436.77,216.95L436.89,219.53L437.04,206.64L437.05,204.07L437.45,198.92L437.49,204.07L437.7,206.64L437.72,204.07L438.42,222.1L438.42,219.53L438.71,222.1L439.02,214.37L439.29,219.53L439.59,222.1L439.94,224.68L440.27,214.37L440.27,216.95L440.66,214.37L441.72,206.64L442.04,209.22L442.06,206.64L442.2,216.95L442.62,216.95L442.9,214.37L442.92,216.95L443.18,211.8L443.42,216.95L443.71,214.37L444.02,224.68L444.26,219.53L444.57,222.1L445.22,216.95L445.22,219.53L445.46,216.95L445.62,209.22L445.63,219.53L445.81,214.37L446.5,216.95L446.5,214.37L447.03,224.68L447.42,222.1L447.71,219.53L447.72,224.68L448,222.1L448.28,219.53L448.93,216.95L448.93,219.53L449.09,222.1L449.11,219.53L449.25,232.41L449.63,229.83L449.77,232.41L449.91,224.68L450.5,229.83L450.61,232.41L451.3,219.53L451.3,229.83L451.31,232.41L451.31,229.83L451.44,234.98L452.01,232.41L452.26,229.83L452.26,234.98L453,232.41L453.1,234.98L453.12,240.14L453.81,234.98L454.62,232.41L454.75,234.98L455.39,232.41L455.53,227.25L455.59,240.14L455.62,240.14L455.62,242.71L456.3,232.41L456.31,240.14L456.31,242.71L456.98,237.56L457.01,240.14L457.09,242.71L457.4,234.98L457.41,237.56L457.95,234.98L457.95,237.56L458.66,227.25L458.68,229.83L458.93,232.41L459.25,237.56L459.46,229.83L460.06,227.25L460.33,232.41L460.35,229.83L461.27,227.25L461.33,229.83L461.86,224.68L462.01,224.68L462.51,222.1L462.95,216.95L463.23,222.1L463.35,219.53L463.36,216.95L464.25,219.53L464.86,216.95L465.15,227.25L465.19,224.68L465.88,232.41L466.12,229.83L466.12,227.25L466.12,229.83L466.83,216.95L466.84,227.25L466.88,224.68L467.77,222.1L467.77,224.68L468.33,219.53L468.35,216.95L469.1,232.41L469.17,234.98L469.89,227.25L469.91,234.98L469.91,237.56L469.91,234.98L470.42,242.71L471.17,240.14L471.56,242.71L471.58,240.14L472.22,237.56L472.76,242.71L473.52,240.14L473.94,234.98L474.34,237.56L474.42,240.14L474.77,234.98L474.83,240.14L474.85,242.71L474.88,237.56L475.59,240.14L475.68,237.56L476.01,232.41L476.01,234.98L476.68,237.56L476.81,232.41L477.29,237.56L478.13,234.98L478.97,232.41L478.97,234.98L479.01,237.56L479.56,232.41L479.56,237.56L480.41,234.98L480.52,229.83L480.54,237.56L480.67,232.41L481.49,234.98L482.07,224.68L482.38,222.1L482.89,224.68L483.06,222.1L483.06,219.53L483.68,209.22L483.69,224.68L483.78,222.1L484.02,219.53L484.3,216.95L484.31,222.1L484.31,224.68L484.89,222.1L485.12,224.68L485.23,222.1L485.54,229.83L486.17,232.41L486.64,227.25L486.76,232.41L486.76,234.98L486.76,232.41L487.14,240.14L487.43,240.14L487.58,237.56L488.18,234.98L488.26,237.56L488.28,240.14L488.47,232.41L488.62,234.98L489.25,232.41L490.08,240.14L490.12,237.56L490.35,240.14L490.77,234.98L491.03,237.56L491.36,229.83L491.44,234.98L492.2,232.41L492.57,237.56L493,224.68L493.54,222.1L493.68,234.98L494.26,227.25L494.81,224.68L495.56,219.53L495.95,222.1L495.95,224.68L496.89,222.1L497.13,227.25L497.57,216.95L497.62,224.68L497.7,222.1L498.1,224.68L498.4,222.1L499.77,219.53L500.91,209.22L501.02,211.8L501.02,214.37L501.02,216.95L501.18,209.22L501.22,209.22L503.39,211.8L503.78,206.64L504.08,227.25L504.19,224.68L504.2,227.25L504.91,219.53L504.91,222.1L505.18,224.68L505.88,209.22L505.92,211.8L506.02,214.37L506.13,211.8L506.57,219.53L506.72,211.8L507.14,209.22L507.66,204.07L507.66,206.64L507.69,209.22L507.85,204.07L507.85,209.22L509.72,206.64L509.72,209.22L511.47,206.64L512.99,193.76L513.04,191.19L513.05,188.61L513.05,196.34L513.5,193.76L513.82,191.19L515.32,186.03L515.55,183.46L515.55,186.03L516.03,178.31L517.15,175.73L517.8,165.42L517.8,162.85L517.8,165.42L518.38,149.97L518.48,149.97L518.74,147.39L518.74,149.97L519.18,137.08L519.46,137.08L519.57,134.51L519.58,137.08L520.2,131.93L520.31,129.36L520.45,131.93L520.69,124.2L520.86,121.63L521.13,119.05L523.39,116.47L524.63,98.44L525.56,95.86L527.22,90.71L529,88.14L529.59,77.83L529.91,75.25L531.14,62.37L531.29,59.8L532.45,54.64L532.95,52.07L534.44,39.19L535.68,36.61L536.35,31.46L537.07,28.88L538.11,26.31L538.12,28.88L540,18.58L540,18.58L540,16" style="fill: rgb(44, 160, 44); fill-opacity: 0.5; stroke-width: 0;"/></g></g><g class="errorbars"/><g class="lines"><path class="js-line" d="M0,317.42L0.1,320L1.01,317.42L1.67,320L1.78,317.42L1.78,320L3.01,317.42L3.74,320L4.58,317.42L4.58,320L4.68,320L5.39,317.42L5.39,320L5.96,320L6.78,317.42L6.78,320L7.35,320L8.84,317.42L8.84,320L9.47,317.42L9.68,320L11.35,317.42L11.35,320L14.12,317.42L14.12,320L21.33,317.42L21.33,320L21.52,317.42L21.52,320L23.09,317.42L23.09,314.85L23.23,317.42L24.35,320L26.01,317.42L26.01,320L27.29,314.85L27.29,317.42L27.29,320L30.05,317.42L30.05,320L30.19,320L31.41,317.42L31.41,320L31.99,320L32.86,317.42L32.86,320L33.62,317.42L33.62,320L34.35,317.42L34.44,320L36.97,314.85L37.4,317.42L37.51,314.85L37.51,317.42L38.78,320L39.48,317.42L39.48,320L41.15,317.42L41.15,320L42.21,317.42L42.21,320L42.69,309.69L42.79,312.27L43.31,314.85L43.74,317.42L44.17,314.85L44.18,317.42L45.4,314.85L49.16,312.27L49.16,314.85L49.44,317.42L50.22,314.85L51.1,320L52.48,317.42L52.87,320L55.94,317.42L55.94,320L55.94,317.42L57.4,314.85L57.72,317.42L58.48,314.85L59.24,312.27L59.27,314.85L59.27,312.27L59.83,320L61.63,317.42L61.92,320L62.58,317.42L62.73,314.85L63.67,317.42L63.85,312.27L63.97,314.85L64.78,317.42L65.08,314.85L65.08,317.42L65.62,314.85L65.69,309.69L65.8,320L65.88,320L66.46,317.42L67.28,314.85L67.29,317.42L68,312.27L68.01,314.85L68.69,312.27L73.1,309.69L73.56,307.12L75.2,320L76.17,317.42L76.17,320L77.12,317.42L78.29,314.85L78.34,317.42L79.38,312.27L79.78,309.69L80.28,307.12L80.28,309.69L80.3,312.27L81.42,307.12L81.43,309.69L82.24,307.12L82.24,309.69L82.52,312.27L83.08,309.69L83.08,312.27L83.09,309.69L84.85,312.27L85.03,309.69L85.03,312.27L85.9,309.69L86.13,312.27L86.83,309.69L87.28,307.12L88.03,309.69L88.73,307.12L89.02,309.69L91.23,307.12L91.23,309.69L91.8,307.12L91.83,309.69L93.17,312.27L93.67,309.69L93.86,312.27L94,309.69L94.01,312.27L94.99,309.69L95.01,294.24L95.69,307.12L95.96,309.69L95.96,312.27L96.11,307.12L96.5,307.12L97.07,304.54L97.77,307.12L97.94,304.54L98.46,299.39L98.62,304.54L98.7,307.12L99.31,296.81L99.43,301.97L100.38,304.54L100.8,296.81L100.8,296.81L101.32,299.39L102.34,286.51L103.28,283.93L104.27,286.51L104.55,283.93L104.68,289.08L105.25,289.08L105.37,286.51L105.67,296.81L105.79,294.24L106.43,291.66L106.92,281.36L106.92,283.93L107.29,286.51L107.33,289.08L108.16,286.51L108.28,283.93L108.3,286.51L109.55,289.08L110.25,299.39L111.32,296.81L111.32,299.39L113.42,296.81L113.42,294.24L113.42,299.39L115.35,296.81L115.37,299.39L115.37,296.81L116.41,299.39L116.46,296.81L118.26,294.24L119.23,299.39L119.36,296.81L119.39,299.39L120.2,296.81L120.51,299.39L121.2,296.81L121.22,299.39L122.81,296.81L122.84,299.39L124.64,296.81L124.74,299.39L125.12,296.81L125.59,294.24L125.71,296.81L126.58,294.24L126.58,296.81L126.98,286.51L127.11,286.51L127.5,283.93L127.83,296.81L127.84,296.81L128.79,294.24L129.08,299.39L129.76,296.81L130.71,294.24L130.83,291.66L131.38,294.24L131.56,291.66L131.66,289.08L132.36,283.93L132.39,286.51L132.69,283.93L132.91,286.51L133.34,283.93L133.35,281.36L133.36,273.63L133.5,289.08L134.73,286.51L134.85,283.93L134.86,286.51L136.25,283.93L137,294.24L138.19,291.66L138.58,294.24L140.14,291.66L141.2,289.08L141.2,291.66L142.49,283.93L142.49,286.51L142.74,289.08L142.76,291.66L143.15,286.51L143.47,289.08L144.44,291.66L144.61,296.81L145.3,294.24L145.39,291.66L146.95,289.08L147.47,281.36L147.48,286.51L147.48,289.08L147.53,294.24L149.28,291.66L149.38,294.24L149.42,291.66L150.97,289.08L150.98,291.66L152.3,289.08L152.3,291.66L152.72,289.08L153.16,286.51L153.83,283.93L153.86,286.51L156.64,289.08L159.6,283.93L160.31,281.36L161.07,283.93L161.75,281.36L161.76,283.93L164.37,281.36L164.81,283.93L165.41,281.36L166.59,278.78L166.83,281.36L166.83,278.78L166.87,299.39L166.87,296.81L169.2,294.24L169.21,296.81L171.48,299.39L172.55,296.81L172.56,299.39L173.17,296.81L173.2,299.39L175.35,296.81L175.5,294.24L176.85,296.81L176.86,299.39L177.43,278.78L177.55,289.08L179.02,286.51L179.35,278.78L180.96,276.2L181.45,273.63L181.46,276.2L183.6,273.63L184.07,276.2L185.36,273.63L185.66,276.2L185.95,273.63L188.08,271.05L190.98,268.47L191.08,271.05L191.96,268.47L192.64,271.05L192.68,265.9L192.89,268.47L193.75,271.05L194,281.36L194.81,283.93L194.88,286.51L194.98,281.36L198.32,278.78L198.87,281.36L199.53,278.78L199.68,276.2L201.76,273.63L204.65,271.05L206.18,268.47L206.2,265.9L207.49,263.32L208.25,265.9L208.27,263.32L208.56,281.36L208.57,278.78L209.52,281.36L209.94,283.93L209.95,281.36L211.06,283.93L211.51,289.08L211.87,286.51L211.89,289.08L212.41,281.36L212.45,286.51L213,289.08L213.03,291.66L213.91,289.08L215.05,286.51L215.06,289.08L217,283.93L217.27,281.36L219.57,278.78L220.66,281.36L222.21,278.78L222.67,276.2L224.92,271.05L224.93,273.63L225.76,265.9L227.54,263.32L227.82,255.59L228.33,253.02L229.37,247.86L229.42,250.44L231.6,232.41L231.68,234.98L231.68,237.56L231.84,229.83L232.41,232.41L232.52,229.83L233.77,227.25L233.92,224.68L234.18,234.98L234.18,237.56L234.35,250.44L234.62,245.29L235.1,242.71L236.12,286.51L236.35,283.93L236.53,281.36L236.54,278.78L237.12,286.51L237.21,283.93L237.4,281.36L238.3,289.08L238.31,286.51L238.31,283.93L239.03,294.24L239.27,291.66L239.27,294.24L239.46,283.93L240,291.66L240.24,289.08L240.24,291.66L240.53,289.08L241.2,286.51L241.24,283.93L242.03,286.51L242.51,281.36L243.13,278.78L243.97,273.63L243.98,276.2L244.82,271.05L244.82,273.63L246.24,265.9L247.16,268.47L250.71,265.9L250.8,263.32L251.05,260.75L251.35,263.32L252.9,260.75L253.81,255.59L254.15,253.02L254.53,250.44L256.08,247.86L256.51,240.14L256.71,247.86L256.71,250.44L257.89,237.56L259.9,234.98L259.97,229.83L260.97,227.25L262.57,222.1L262.6,224.68L262.62,242.71L263.23,232.41L263.51,229.83L263.51,232.41L263.64,229.83L265.73,227.25L267.37,224.68L267.56,222.1L269.26,219.53L269.27,222.1L269.27,219.53L269.27,222.1L270.2,219.53L270.39,216.95L271.04,219.53L271.97,229.83L272.17,232.41L273.68,229.83L274.19,232.41L275.53,227.25L276.21,224.68L276.21,227.25L276.98,224.68L277.09,219.53L278.21,222.1L278.76,253.02L281.25,250.44L281.72,253.02L282.1,250.44L282.12,253.02L284.86,250.44L285.54,255.59L285.58,253.02L285.68,250.44L285.93,253.02L286.6,255.59L286.78,250.44L286.78,253.02L289.07,250.44L289.08,247.86L289.85,245.29L291.82,242.71L292.33,240.14L292.48,232.41L292.52,245.29L292.87,240.14L293.31,242.71L293.77,247.86L293.99,245.29L294.24,242.71L295.02,276.2L295.24,273.63L296.19,265.9L296.8,263.32L297.78,250.44L298.71,247.86L299.68,242.71L299.75,240.14L301.16,229.83L301.18,227.25L301.49,209.22L303.62,206.64L305.49,204.07L305.49,201.49L308.78,204.07L308.85,201.49L310.49,196.34L311.05,193.76L312.45,186.03L312.45,183.46L312.58,178.31L312.96,232.41L313.27,229.83L313.7,227.25L313.71,234.98L313.96,232.41L314.11,229.83L315.1,216.95L315.22,219.53L317.5,216.95L317.99,214.37L318.27,216.95L319.2,214.37L319.58,216.95L320.71,214.37L322.12,216.95L322.15,224.68L322.78,222.1L323.47,224.68L323.9,240.14L324.31,242.71L324.44,240.14L324.74,247.86L324.93,245.29L325.31,247.86L326.4,240.14L326.66,237.56L327.52,234.98L327.54,232.41L328.36,227.25L328.61,229.83L329.2,232.41L329.59,229.83L329.59,232.41L330.28,229.83L330.55,232.41L330.55,237.56L331.1,234.98L332.4,232.41L332.61,227.25L333.03,234.98L333.05,234.98L333.05,237.56L333.68,232.41L333.89,229.83L334.65,224.68L334.67,227.25L337.67,224.68L338.04,227.25L339.38,224.68L339.82,222.1L339.82,224.68L340.55,227.25L340.83,224.68L340.91,229.83L341.64,227.25L342.72,219.53L342.72,222.1L343.15,216.95L343.7,214.37L344.12,219.53L344.14,214.37L344.65,216.95L345.22,214.37L345.23,216.95L345.93,214.37L346.07,216.95L346.73,214.37L347.86,209.22L347.87,206.64L347.92,211.8L348.68,209.22L348.72,206.64L349.52,204.07L350.6,201.49L350.69,198.92L351.38,188.61L351.74,186.03L351.85,188.61L353.52,186.03L353.8,183.46L354.84,180.88L354.98,204.07L355.1,204.07L356.53,201.49L357.43,198.92L357.44,201.49L359.23,198.92L359.23,201.49L359.64,198.92L362.01,196.34L362.01,198.92L362.66,198.92L363.24,196.34L363.98,186.03L364.04,188.61L365.19,186.03L365.29,180.88L365.72,196.34L366.08,193.76L366.29,196.34L367.24,193.76L368.04,183.46L368.25,180.88L368.82,193.76L368.92,186.03L369.11,183.46L369.8,198.92L370.03,196.34L370.84,222.1L370.91,219.53L371.61,234.98L371.97,232.41L372.75,234.98L375.13,232.41L375.72,224.68L375.75,227.25L375.98,229.83L379.44,227.25L379.45,229.83L380.15,224.68L381.03,227.25L382.12,224.68L383.02,222.1L383.02,224.68L384.82,222.1L384.96,216.95L385.95,219.53L386.48,211.8L386.49,209.22L386.5,201.49L390.15,204.07L391.2,193.76L393.26,191.19L393.74,186.03L393.74,188.61L393.74,191.19L395.78,186.03L396.22,183.46L398.91,178.31L399.1,175.73L399.66,173.15L399.66,175.73L399.83,178.31L400.41,191.19L400.54,188.61L401.12,186.03L401.17,188.61L401.48,175.73L401.87,173.15L402.05,165.42L402.24,173.15L402.24,175.73L402.25,180.88L402.87,170.58L403,168L403.27,165.42L403.37,173.15L403.39,175.73L403.44,173.15L404.08,183.46L404.13,180.88L404.21,178.31L404.22,188.61L404.83,186.03L405.08,183.46L405.79,180.88L405.8,178.31L406.22,193.76L406.7,188.61L406.73,186.03L407.11,170.58L407.29,198.92L407.59,196.34L408.02,180.88L408.16,191.19L408.16,193.76L408.21,198.92L408.76,191.19L408.8,193.76L409.39,191.19L409.53,198.92L410.08,186.03L410.16,183.46L410.21,186.03L410.58,168L410.58,168L410.61,165.42L410.61,160.27L410.74,204.07L411.05,193.76L411.45,191.19L411.86,186.03L412.09,193.76L412.13,191.19L412.52,188.61L413.16,196.34L413.49,198.92L413.78,201.49L414.1,191.19L414.45,193.76L414.6,206.64L415.06,204.07L415.45,201.49L416.1,214.37L416.67,211.8L417.01,214.37L417.39,206.64L417.39,204.07L417.63,193.76L418.34,196.34L418.47,209.22L418.77,191.19L418.93,196.34L419.1,198.92L419.31,196.34L419.47,204.07L420.6,201.49L420.74,206.64L420.89,201.49L421.54,198.92L421.7,201.49L421.87,196.34L422.2,193.76L422.24,201.49L422.63,196.34L423.31,193.76L423.81,191.19L423.81,193.76L423.81,196.34L424.32,191.19L424.33,188.61L424.33,186.03L424.37,196.34L424.5,188.61L425.33,186.03L425.56,178.31L425.68,188.61L425.76,191.19L426.45,211.8L426.7,206.64L426.71,204.07L427.06,201.49L427.06,206.64L427.06,209.22L427.06,206.64L427.06,214.37L427.64,211.8L427.87,209.22L428.1,211.8L428.34,201.49L428.47,204.07L428.48,201.49L429.03,219.53L429.22,206.64L429.27,204.07L429.27,201.49L429.29,219.53L429.97,206.64L430.12,204.07L430.25,209.22L430.58,196.34L430.84,198.92L431.36,222.1L431.52,219.53L431.93,222.1L432.36,209.22L432.64,211.8L432.88,209.22L432.89,211.8L433.32,206.64L433.32,206.64L434.4,204.07L434.99,198.92L434.99,201.49L435.78,198.92L435.82,196.34L435.85,216.95L436.24,214.37L436.77,216.95L436.89,219.53L437.04,206.64L437.05,204.07L437.45,198.92L437.49,204.07L437.7,206.64L437.72,204.07L438.42,222.1L438.42,219.53L438.71,222.1L439.02,214.37L439.29,219.53L439.59,222.1L439.94,224.68L440.27,214.37L440.27,216.95L440.66,214.37L441.72,206.64L442.04,209.22L442.06,206.64L442.2,216.95L442.62,216.95L442.9,214.37L442.92,216.95L443.18,211.8L443.42,216.95L443.71,214.37L444.02,224.68L444.26,219.53L444.57,222.1L445.22,216.95L445.22,219.53L445.46,216.95L445.62,209.22L445.63,219.53L445.81,214.37L446.5,216.95L446.5,214.37L447.03,224.68L447.42,222.1L447.71,219.53L447.72,224.68L448,222.1L448.28,219.53L448.93,216.95L448.93,219.53L449.09,222.1L449.11,219.53L449.25,232.41L449.63,229.83L449.77,232.41L449.91,224.68L450.5,229.83L450.61,232.41L451.3,219.53L451.3,229.83L451.31,232.41L451.31,229.83L451.44,234.98L452.01,232.41L452.26,229.83L452.26,234.98L453,232.41L453.1,234.98L453.12,240.14L453.81,234.98L454.62,232.41L454.75,234.98L455.39,232.41L455.53,227.25L455.59,240.14L455.62,240.14L455.62,242.71L456.3,232.41L456.31,240.14L456.31,242.71L456.98,237.56L457.01,240.14L457.09,242.71L457.4,234.98L457.41,237.56L457.95,234.98L457.95,237.56L458.66,227.25L458.68,229.83L458.93,232.41L459.25,237.56L459.46,229.83L460.06,227.25L460.33,232.41L460.35,229.83L461.27,227.25L461.33,229.83L461.86,224.68L462.01,224.68L462.51,222.1L462.95,216.95L463.23,222.1L463.35,219.53L463.36,216.95L464.25,219.53L464.86,216.95L465.15,227.25L465.19,224.68L465.88,232.41L466.12,229.83L466.12,227.25L466.12,229.83L466.83,216.95L466.84,227.25L466.88,224.68L467.77,222.1L467.77,224.68L468.33,219.53L468.35,216.95L469.1,232.41L469.17,234.98L469.89,227.25L469.91,234.98L469.91,237.56L469.91,234.98L470.42,242.71L471.17,240.14L471.56,242.71L471.58,240.14L472.22,237.56L472.76,242.71L473.52,240.14L473.94,234.98L474.34,237.56L474.42,240.14L474.77,234.98L474.83,240.14L474.85,242.71L474.88,237.56L475.59,240.14L475.68,237.56L476.01,232.41L476.01,234.98L476.68,237.56L476.81,232.41L477.29,237.56L478.13,234.98L478.97,232.41L478.97,234.98L479.01,237.56L479.56,232.41L479.56,237.56L480.41,234.98L480.52,229.83L480.54,237.56L480.67,232.41L481.49,234.98L482.07,224.68L482.38,222.1L482.89,224.68L483.06,222.1L483.06,219.53L483.68,209.22L483.69,224.68L483.78,222.1L484.02,219.53L484.3,216.95L484.31,222.1L484.31,224.68L484.89,222.1L485.12,224.68L485.23,222.1L485.54,229.83L486.17,232.41L486.64,227.25L486.76,232.41L486.76,234.98L486.76,232.41L487.14,240.14L487.43,240.14L487.58,237.56L488.18,234.98L488.26,237.56L488.28,240.14L488.47,232.41L488.62,234.98L489.25,232.41L490.08,240.14L490.12,237.56L490.35,240.14L490.77,234.98L491.03,237.56L491.36,229.83L491.44,234.98L492.2,232.41L492.57,237.56L493,224.68L493.54,222.1L493.68,234.98L494.26,227.25L494.81,224.68L495.56,219.53L495.95,222.1L495.95,224.68L496.89,222.1L497.13,227.25L497.57,216.95L497.62,224.68L497.7,222.1L498.1,224.68L498.4,222.1L499.77,219.53L500.91,209.22L501.02,211.8L501.02,214.37L501.02,216.95L501.18,209.22L501.22,209.22L503.39,211.8L503.78,206.64L504.08,227.25L504.19,224.68L504.2,227.25L504.91,219.53L504.91,222.1L505.18,224.68L505.88,209.22L505.92,211.8L506.02,214.37L506.13,211.8L506.57,219.53L506.72,211.8L507.14,209.22L507.66,204.07L507.66,206.64L507.69,209.22L507.85,204.07L507.85,209.22L509.72,206.64L509.72,209.22L511.47,206.64L512.99,193.76L513.04,191.19L513.05,188.61L513.05,196.34L513.5,193.76L513.82,191.19L515.32,186.03L515.55,183.46L515.55,186.03L516.03,178.31L517.15,175.73L517.8,165.42L517.8,162.85L517.8,165.42L518.38,149.97L518.48,149.97L518.74,147.39L518.74,149.97L519.18,137.08L519.46,137.08L519.57,134.51L519.58,137.08L520.2,131.93L520.31,129.36L520.45,131.93L520.69,124.2L520.86,121.63L521.13,119.05L523.39,116.47L524.63,98.44L525.56,95.86L527.22,90.71L529,88.14L529.59,77.83L529.91,75.25L531.14,62.37L531.29,59.8L532.45,54.64L532.95,52.07L534.44,39.19L535.68,36.61L536.35,31.46L537.07,28.88L538.11,26.31L538.12,28.88L540,18.58L540,18.58L540,16" style="vector-effect: none; fill: none; stroke: rgb(44, 160, 44); stroke-opacity: 1; stroke-width: 2px; opacity: 1;"/></g><g class="points"/><g class="text"/></g></g></g></g><g class="zerolinelayer-above"/><path class="xlines-above crisp" d="M0,0" style="fill: none;"/><path class="ylines-above crisp" d="M0,0" style="fill: none;"/><g class="overlines-above"/><g class="xaxislayer-above"><g class="xtick"><text text-anchor="middle" x="0" y="439" transform="translate(96.53,0)" style="font-family: 'Open Sans'; font-size: 18px; fill: rgb(0, 0, 0); fill-opacity: 1; white-space: pre;">2016</text></g><g class="xtick"><text text-anchor="middle" x="0" y="439" style="font-family: 'Open Sans'; font-size: 18px; fill: rgb(0, 0, 0); fill-opacity: 1; white-space: pre;" transform="translate(197.76999999999998,0)">2018</text></g><g class="xtick"><text text-anchor="middle" x="0" y="439" style="font-family: 'Open Sans'; font-size: 18px; fill: rgb(0, 0, 0); fill-opacity: 1; white-space: pre;" transform="translate(298.86,0)">2020</text></g><g class="xtick"><text text-anchor="middle" x="0" y="439" style="font-family: 'Open Sans'; font-size: 18px; fill: rgb(0, 0, 0); fill-opacity: 1; white-space: pre;" transform="translate(400.09,0)">2022</text></g><g class="xtick"><text text-anchor="middle" x="0" y="439" style="font-family: 'Open Sans'; font-size: 18px; fill: rgb(0, 0, 0); fill-opacity: 1; white-space: pre;" transform="translate(501.18,0)">2024</text></g><g class="xtick"><text text-anchor="middle" x="0" y="439" style="font-family: 'Open Sans'; font-size: 18px; fill: rgb(0, 0, 0); fill-opacity: 1; white-space: pre;" transform="translate(602.42,0)">2026</text></g></g><g class="yaxislayer-above"><g class="ytick"><text text-anchor="end" x="79" y="6.3" transform="translate(0,420)" style="font-family: 'Open Sans'; font-size: 18px; fill: rgb(0, 0, 0); fill-opacity: 1; white-space: pre;">0</text></g><g class="ytick"><text text-anchor="end" x="79" y="6.3" style="font-family: 'Open Sans'; font-size: 18px; fill: rgb(0, 0, 0); fill-opacity: 1; white-space: pre;" transform="translate(0,368.47)">20</text></g><g class="ytick"><text text-anchor="end" x="79" y="6.3" style="font-family: 'Open Sans'; font-size: 18px; fill: rgb(0, 0, 0); fill-opacity: 1; white-space: pre;" transform="translate(0,316.95)">40</text></g><g class="ytick"><text text-anchor="end" x="79" y="6.3" style="font-family: 'Open Sans'; font-size: 18px; fill: rgb(0, 0, 0); fill-opacity: 1; white-space: pre;" transform="translate(0,265.41999999999996)">60</text></g><g class="ytick"><text text-anchor="end" x="79" y="6.3" style="font-family: 'Open Sans'; font-size: 18px; fill: rgb(0, 0, 0); fill-opacity: 1; white-space: pre;" transform="translate(0,213.9)">80</text></g><g class="ytick"><text text-anchor="end" x="79" y="6.3" style="font-family: 'Open Sans'; font-size: 18px; fill: rgb(0, 0, 0); fill-opacity: 1; white-space: pre;" transform="translate(0,162.37)">100</text></g><g class="ytick"><text text-anchor="end" x="79" y="6.3" style="font-family: 'Open Sans'; font-size: 18px; fill: rgb(0, 0, 0); fill-opacity: 1; white-space: pre;" transform="translate(0,110.85)">120</text></g></g><g class="overaxes-above"/></g></g><g class="polarlayer"/><g class="smithlayer"/><g class="ternarylayer"/><g class="geolayer"/><g class="funnelarealayer"/><g class="pielayer"/><g class="iciclelayer"/><g class="treemaplayer"/><g class="sunburstlayer"/><g class="glimages"/><defs id="topdefs-f8e4e9"><g class="clips"/></defs><g class="layer-above"><g class="imagelayer"/><g class="shapelayer"/></g><g class="infolayer"><g class="g-gtitle"><text class="gtitle" x="35" y="50" text-anchor="start" dy="0em" style="opacity: 1; font-family: 'Open Sans'; font-size: 25px; fill: rgb(0, 0, 0); fill-opacity: 1; white-space: pre;">MultiQC/MultiQC - Open Pull Requests Over Time</text></g><g class="g-xtitle"><text class="xtitle" x="350" y="472.9" text-anchor="middle" style="opacity: 1; font-family: 'Open Sans'; font-size: 22px; fill: rgb(0, 0, 0); fill-opacity: 1; white-space: pre;">Date</text></g><g class="g-ytitle"><text class="ytitle" transform="rotate(-90,29.799999999999997,260)" x="29.799999999999997" y="260" text-anchor="middle" style="opacity: 1; font-family: 'Open Sans'; font-size: 22px; fill: rgb(0, 0, 0); fill-opacity: 1; white-space: pre;">Number of Open PRs</text></g></g></svg>