<svg class="main-svg" xmlns="http://www.w3.org/2000/svg" xmlns:xlink="http://www.w3.org/1999/xlink" width="700" height="500" style="" viewBox="0 0 700 500"><rect x="0" y="0" width="700" height="500" style="fill: rgb(0, 0, 0); fill-opacity: 0;"/><defs id="defs-3371ff"><g class="clips"><clipPath id="clip3371ffxyplot" class="plotclip"><rect width="540" height="320"/></clipPath><clipPath class="axesclip" id="clip3371ffx"><rect x="80" y="0" width="540" height="500"/></clipPath><clipPath class="axesclip" id="clip3371ffy"><rect x="0" y="100" width="700" height="320"/></clipPath><clipPath class="axesclip" id="clip3371ffxy"><rect x="80" y="100" width="540" height="320"/></clipPath></g><g class="gradients"/><g class="patterns"/></defs><g class="bglayer"><rect class="bg" x="80" y="100" width="540" height="320" style="fill: rgb(0, 0, 0); fill-opacity: 0; stroke-width: 0;"/></g><g class="layer-below"><g class="imagelayer"/><g class="shapelayer"/></g><g class="cartesianlayer"><g class="subplot xy"><g class="layer-subplot"><g class="shapelayer"/><g class="imagelayer"/></g><g class="minor-gridlayer"><g class="x"/><g class="y"/></g><g class="gridlayer"><g class="x"><path class="xgrid crisp" transform="translate(96.74,0)" d="M0,100v320" style="stroke: rgb(255, 255, 255); stroke-opacity: 1; stroke-width: 1px;"/><path class="xgrid crisp" transform="translate(199.25,0)" d="M0,100v320" style="stroke: rgb(255, 255, 255); stroke-opacity: 1; stroke-width: 1px;"/><path class="xgrid crisp" transform="translate(301.62,0)" d="M0,100v320" style="stroke: rgb(255, 255, 255); stroke-opacity: 1; stroke-width: 1px;"/><path class="xgrid crisp" transform="translate(404.12,0)" d="M0,100v320" style="stroke: rgb(255, 255, 255); stroke-opacity: 1; stroke-width: 1px;"/><path class="xgrid crisp" transform="translate(506.49,0)" d="M0,100v320" style="stroke: rgb(255, 255, 255); stroke-opacity: 1; stroke-width: 1px;"/><path class="xgrid crisp" transform="translate(609,0)" d="M0,100v320" style="stroke: rgb(255, 255, 255); stroke-opacity: 1; stroke-width: 1px;"/></g><g class="y"><path class="ygrid crisp" transform="translate(0,383.48)" d="M80,0h540" style="stroke: rgb(255, 255, 255); stroke-opacity: 1; stroke-width: 1px;"/><path class="ygrid crisp" transform="translate(0,346.97)" d="M80,0h540" style="stroke: rgb(255, 255, 255); stroke-opacity: 1; stroke-width: 1px;"/><path class="ygrid crisp" transform="translate(0,310.45)" d="M80,0h540" style="stroke: rgb(255, 255, 255); stroke-opacity: 1; stroke-width: 1px;"/><path class="ygrid crisp" transform="translate(0,273.93)" d="M80,0h540" style="stroke: rgb(255, 255, 255); stroke-opacity: 1; stroke-width: 1px;"/><path class="ygrid crisp" transform="translate(0,237.42)" d="M80,0h540" style="stroke: rgb(255, 255, 255); stroke-opacity: 1; stroke-width: 1px;"/><path class="ygrid crisp" transform="translate(0,200.9)" d="M80,0h540" style="stroke: rgb(255, 255, 255); stroke-opacity: 1; stroke-width: 1px;"/><path class="ygrid crisp" transform="translate(0,164.38)" d="M80,0h540" style="stroke: rgb(255, 255, 255); stroke-opacity: 1; stroke-width: 1px;"/><path class="ygrid crisp" transform="translate(0,127.87)" d="M80,0h540" style="stroke: rgb(255, 255, 255); stroke-opacity: 1; stroke-width: 1px;"/></g></g><g class="zerolinelayer"><path class="yzl zl crisp" transform="translate(0,420)" d="M80,0h540" style="stroke: rgb(255, 255, 255); stroke-opacity: 1; stroke-width: 2px;"/></g><g class="layer-between"><g class="shapelayer"/><g class="imagelayer"/></g><path class="xlines-below"/><path class="ylines-below"/><g class="overlines-below"/><g class="xaxislayer-below"/><g class="yaxislayer-below"/><g class="overaxes-below"/><g class="overplot"><g class="xy" transform="translate(80,100)" clip-path="url(#clip3371ffxyplot)"><g class="scatterlayer mlayer"><g class="trace scatter tracee59b93" style="stroke-miterlimit: 2;"><g class="fills"><g><path class="js-fill" d="M540,320L0,320L0,319.82L3.78,318.36L4.64,318.17L4.73,317.81L5.46,317.63L6.04,317.08L6.87,316.9L11.49,315.8L14.3,315.62L26.34,314.71L27.07,314.52L27.64,314.16L30.43,313.97L30.57,313.79L31.8,313.61L37.99,311.6L39.39,311.42L43.2,309.96L43.21,309.78L43.22,309.59L44.15,309.41L44.72,309.05L45.97,308.86L58.12,307.58L59.22,307.4L66.45,305.21L66.49,305.03L67.29,304.12L68.13,303.93L69.55,303.2L74.02,303.02L78.09,302.11L79.28,301.92L84.13,300.28L84.13,300.1L94.85,298.46L95.19,298.27L96.2,297.36L96.2,297.18L96.89,294.8L97.29,294.62L97.72,294.26L98.3,294.07L99.96,292.8L100.1,292.61L100.69,291.7L101.65,291.52L102.77,290.24L102.89,290.06L103.63,289.33L104.58,289.14L107.77,287.32L107.77,287.14L108.26,286.59L109.52,286.4L109.65,286.22L111.62,286.04L111.63,285.86L112.72,285.67L120.28,284.4L120.57,284.21L120.89,283.67L121.71,283.48L128.58,281.84L128.58,281.66L129.45,280.93L130.42,280.74L134.37,278.92L135.02,278.74L135.16,277.82L136.43,277.64L136.54,277.46L137.97,277.28L138.51,276.91L139.93,276.73L140.23,276.36L141.91,276.18L151.3,273.08L152.87,272.89L168.96,270.34L168.97,270.15L179.1,268.88L179.11,268.69L179.75,267.6L181.28,267.42L181.61,266.69L183.24,266.5L183.74,265.96L185.92,265.77L210.1,262.67L210.81,262.49L211.2,261.57L212.59,261.39L216.6,260.3L217.76,260.11L230.41,257.74L230.41,257.56L231.21,256.83L231.49,256.64L234.04,255.37L234.29,255.18L234.76,254.09L235.34,253.91L235.45,253.72L236.72,253.54L238.68,252.26L239.33,252.08L241.31,250.8L242.29,250.62L243,249.16L243.26,248.98L244.28,248.25L245.1,248.06L249.35,246.42L253.87,246.24L254.21,245.87L256.08,245.69L259.74,244.23L259.84,244.05L261.14,242.95L263.18,242.77L263.25,242.4L264.26,242.22L269.07,240.58L270.74,240.39L270.93,240.21L272.66,240.03L272.66,239.85L273.61,239.66L273.8,239.48L275.15,239.3L280.52,238.2L280.58,238.02L292.73,235.46L293.5,235.28L296.16,234.37L296.55,234.19L296.56,234L297.7,233.82L298.55,232.36L298.57,232.18L300.92,230.35L300.96,230.17L304.38,228.53L304.86,228.34L305.29,226.7L307.45,226.52L315.73,225.06L316.38,224.87L316.55,224.14L317.21,223.96L319.07,222.32L321.5,222.14L321.99,221.77L323.22,221.59L331.65,219.94L331.67,219.76L332.5,219.4L333.75,219.21L338.79,217.39L338.87,217.21L346.17,216.11L346.18,215.93L349.57,214.47L350.29,214.28L355.11,212.46L355.15,212.28L356.17,211.55L357.97,211.36L361.02,210.09L361.94,209.9L368.09,208.62L368.21,208.44L373.06,205.89L373.13,205.7L373.76,204.61L374.69,204.43L377.4,202.78L379.85,202.6L380.46,202.05L384.22,201.87L387.85,200.41L389.67,200.23L389.81,199.86L391.24,199.68L391.37,198.58L395.29,198.4L396.13,197.85L398.21,197.67L402.45,196.57L403.94,196.39L407.22,193.29L407.31,193.11L410.19,187.63L410.85,187.45L413.28,180.51L413.68,180.32L415.75,176.86L415.76,176.67L416.74,173.93L417.05,173.75L419.83,171.01L419.83,170.83L420.27,169.19L420.29,169L422.65,167.18L422.66,167L422.9,166.27L423.76,166.08L424.72,162.07L424.74,161.88L427.12,160.79L427.19,160.61L429.68,158.6L429.78,158.41L429.85,157.87L430.69,157.68L432.44,154.4L432.45,154.22L433.03,151.48L433.26,151.29L434.68,144.72L434.69,144.54L435.54,141.8L435.66,141.62L436.29,139.79L436.96,139.61L437.53,138.7L437.54,138.51L438.78,136.5L439.88,136.32L441.33,134.31L441.44,134.13L444.53,128.29L444.55,128.11L445.27,126.46L445.34,126.28L445.76,124.64L445.77,124.45L446.21,123.54L446.65,123.36L447.63,122.45L447.63,122.26L447.96,120.8L448.48,120.62L449.01,119.89L449.3,119.71L450.41,117.52L450.41,117.33L451.29,113.68L451.38,113.5L452.66,111.31L453.06,111.13L454.2,109.12L454.34,108.93L455.5,106.2L455.51,106.01L457.01,103.27L457.44,103.09L459.01,98.16L459.08,97.98L459.53,96.7L460.35,96.52L461.28,95.61L461.33,95.42L462.05,93.23L462.18,93.05L463.9,88.12L464.27,87.94L465.02,84.83L465.03,84.65L467.43,82.28L467.68,82.09L469.2,80.09L470.35,79.9L471.29,78.63L471.32,78.44L471.75,77.53L471.76,77.35L472.43,76.07L472.56,75.89L474.25,73.88L474.94,73.7L475.67,71.87L475.7,71.69L476.26,69.86L477.11,69.68L480.74,67.85L480.75,67.67L483,63.29L484.16,63.11L485.05,62.19L485.48,62.01L486.73,60.55L487.56,60.37L490.4,57.81L491,57.63L494.47,54.89L494.57,54.71L494.77,53.79L495.41,53.61L500.49,47.59L501.05,47.4L503.4,46.13L503.41,45.94L504.15,43.57L504.38,43.39L507.54,41.38L509.74,41.2L510.55,38.64L511.26,38.46L511.56,37.73L512.12,37.54L513.11,34.81L513.53,34.62L516.14,33.53L517.91,33.35L519.51,31.88L519.55,31.7L520.3,31.15L521.27,30.97L524.17,29.33L524.31,29.15L525.01,27.5L525.28,27.32L526.01,24.58L526.12,24.4L527.7,22.21L529.99,22.03L531.24,20.2L532.18,20.02L536.59,18.56L536.91,18.37L537.24,17.83L537.79,17.64L538.25,16.91L538.89,16.73L540,16" style="fill: rgb(44, 160, 44); fill-opacity: 0.5; stroke-width: 0;"/></g></g><g class="errorbars"/><g class="lines"><path class="js-line" d="M0,319.82L3.78,318.36L4.64,318.17L4.73,317.81L5.46,317.63L6.04,317.08L6.87,316.9L11.49,315.8L14.3,315.62L26.34,314.71L27.07,314.52L27.64,314.16L30.43,313.97L30.57,313.79L31.8,313.61L37.99,311.6L39.39,311.42L43.2,309.96L43.21,309.78L43.22,309.59L44.15,309.41L44.72,309.05L45.97,308.86L58.12,307.58L59.22,307.4L66.45,305.21L66.49,305.03L67.29,304.12L68.13,303.93L69.55,303.2L74.02,303.02L78.09,302.11L79.28,301.92L84.13,300.28L84.13,300.1L94.85,298.46L95.19,298.27L96.2,297.36L96.2,297.18L96.89,294.8L97.29,294.62L97.72,294.26L98.3,294.07L99.96,292.8L100.1,292.61L100.69,291.7L101.65,291.52L102.77,290.24L102.89,290.06L103.63,289.33L104.58,289.14L107.77,287.32L107.77,287.14L108.26,286.59L109.52,286.4L109.65,286.22L111.62,286.04L111.63,285.86L112.72,285.67L120.28,284.4L120.57,284.21L120.89,283.67L121.71,283.48L128.58,281.84L128.58,281.66L129.45,280.93L130.42,280.74L134.37,278.92L135.02,278.74L135.16,277.82L136.43,277.64L136.54,277.46L137.97,277.28L138.51,276.91L139.93,276.73L140.23,276.36L141.91,276.18L151.3,273.08L152.87,272.89L168.96,270.34L168.97,270.15L179.1,268.88L179.11,268.69L179.75,267.6L181.28,267.42L181.61,266.69L183.24,266.5L183.74,265.96L185.92,265.77L210.1,262.67L210.81,262.49L211.2,261.57L212.59,261.39L216.6,260.3L217.76,260.11L230.41,257.74L230.41,257.56L231.21,256.83L231.49,256.64L234.04,255.37L234.29,255.18L234.76,254.09L235.34,253.91L235.45,253.72L236.72,253.54L238.68,252.26L239.33,252.08L241.31,250.8L242.29,250.62L243,249.16L243.26,248.98L244.28,248.25L245.1,248.06L249.35,246.42L253.87,246.24L254.21,245.87L256.08,245.69L259.74,244.23L259.84,244.05L261.14,242.95L263.18,242.77L263.25,242.4L264.26,242.22L269.07,240.58L270.74,240.39L270.93,240.21L272.66,240.03L272.66,239.85L273.61,239.66L273.8,239.48L275.15,239.3L280.52,238.2L280.58,238.02L292.73,235.46L293.5,235.28L296.16,234.37L296.55,234.19L296.56,234L297.7,233.82L298.55,232.36L298.57,232.18L300.92,230.35L300.96,230.17L304.38,228.53L304.86,228.34L305.29,226.7L307.45,226.52L315.73,225.06L316.38,224.87L316.55,224.14L317.21,223.96L319.07,222.32L321.5,222.14L321.99,221.77L323.22,221.59L331.65,219.94L331.67,219.76L332.5,219.4L333.75,219.21L338.79,217.39L338.87,217.21L346.17,216.11L346.18,215.93L349.57,214.47L350.29,214.28L355.11,212.46L355.15,212.28L356.17,211.55L357.97,211.36L361.02,210.09L361.94,209.9L368.09,208.62L368.21,208.44L373.06,205.89L373.13,205.7L373.76,204.61L374.69,204.43L377.4,202.78L379.85,202.6L380.46,202.05L384.22,201.87L387.85,200.41L389.67,200.23L389.81,199.86L391.24,199.68L391.37,198.58L395.29,198.4L396.13,197.85L398.21,197.67L402.45,196.57L403.94,196.39L407.22,193.29L407.31,193.11L410.19,187.63L410.85,187.45L413.28,180.51L413.68,180.32L415.75,176.86L415.76,176.67L416.74,173.93L417.05,173.75L419.83,171.01L419.83,170.83L420.27,169.19L420.29,169L422.65,167.18L422.66,167L422.9,166.27L423.76,166.08L424.72,162.07L424.74,161.88L427.12,160.79L427.19,160.61L429.68,158.6L429.78,158.41L429.85,157.87L430.69,157.68L432.44,154.4L432.45,154.22L433.03,151.48L433.26,151.29L434.68,144.72L434.69,144.54L435.54,141.8L435.66,141.62L436.29,139.79L436.96,139.61L437.53,138.7L437.54,138.51L438.78,136.5L439.88,136.32L441.33,134.31L441.44,134.13L444.53,128.29L444.55,128.11L445.27,126.46L445.34,126.28L445.76,124.64L445.77,124.45L446.21,123.54L446.65,123.36L447.63,122.45L447.63,122.26L447.96,120.8L448.48,120.62L449.01,119.89L449.3,119.71L450.41,117.52L450.41,117.33L451.29,113.68L451.38,113.5L452.66,111.31L453.06,111.13L454.2,109.12L454.34,108.93L455.5,106.2L455.51,106.01L457.01,103.27L457.44,103.09L459.01,98.16L459.08,97.98L459.53,96.7L460.35,96.52L461.28,95.61L461.33,95.42L462.05,93.23L462.18,93.05L463.9,88.12L464.27,87.94L465.02,84.83L465.03,84.65L467.43,82.28L467.68,82.09L469.2,80.09L470.35,79.9L471.29,78.63L471.32,78.44L471.75,77.53L471.76,77.35L472.43,76.07L472.56,75.89L474.25,73.88L474.94,73.7L475.67,71.87L475.7,71.69L476.26,69.86L477.11,69.68L480.74,67.85L480.75,67.67L483,63.29L484.16,63.11L485.05,62.19L485.48,62.01L486.73,60.55L487.56,60.37L490.4,57.81L491,57.63L494.47,54.89L494.57,54.71L494.77,53.79L495.41,53.61L500.49,47.59L501.05,47.4L503.4,46.13L503.41,45.94L504.15,43.57L504.38,43.39L507.54,41.38L509.74,41.2L510.55,38.64L511.26,38.46L511.56,37.73L512.12,37.54L513.11,34.81L513.53,34.62L516.14,33.53L517.91,33.35L519.51,31.88L519.55,31.7L520.3,31.15L521.27,30.97L524.17,29.33L524.31,29.15L525.01,27.5L525.28,27.32L526.01,24.58L526.12,24.4L527.7,22.21L529.99,22.03L531.24,20.2L532.18,20.02L536.59,18.56L536.91,18.37L537.24,17.83L537.79,17.64L538.25,16.91L538.89,16.73L540,16" style="vector-effect: none; fill: none; stroke: rgb(44, 160, 44); stroke-opacity: 1; stroke-width: 2px; opacity: 1;"/></g><g class="points"/><g class="text"/></g></g></g></g><g class="zerolinelayer-above"/><path class="xlines-above crisp" d="M0,0" style="fill: none;"/><path class="ylines-above crisp" d="M0,0" style="fill: none;"/><g class="overlines-above"/><g class="xaxislayer-above"><g class="xtick"><text text-anchor="middle" x="0" y="439" transform="translate(96.74,0)" style="font-family: 'Open Sans'; font-size: 18px; fill: rgb(255, 255, 255); fill-opacity: 1; white-space: pre;">2016</text></g><g class="xtick"><text text-anchor="middle" x="0" y="439" style="font-family: 'Open Sans'; font-size: 18px; fill: rgb(255, 255, 255); fill-opacity: 1; white-space: pre;" transform="translate(199.25,0)">2018</text></g><g class="xtick"><text text-anchor="middle" x="0" y="439" style="font-family: 'Open Sans'; font-size: 18px; fill: rgb(255, 255, 255); fill-opacity: 1; white-space: pre;" transform="translate(301.62,0)">2020</text></g><g class="xtick"><text text-anchor="middle" x="0" y="439" style="font-family: 'Open Sans'; font-size: 18px; fill: rgb(255, 255, 255); fill-opacity: 1; white-space: pre;" transform="translate(404.12,0)">2022</text></g><g class="xtick"><text text-anchor="middle" x="0" y="439" style="font-family: 'Open Sans'; font-size: 18px; fill: rgb(255, 255, 255); fill-opacity: 1; white-space: pre;" transform="translate(506.49,0)">2024</text></g><g class="xtick"><text text-anchor="middle" x="0" y="439" style="font-family: 'Open Sans'; font-size: 18px; fill: rgb(255, 255, 255); fill-opacity: 1; white-space: pre;" transform="translate(609,0)">2026</text></g></g><g class="yaxislayer-above"><g class="ytick"><text text-anchor="end" x="79" y="6.3" transform="translate(0,420)" style="font-family: 'Open Sans'; font-size: 18px; fill: rgb(255, 255, 255); fill-opacity: 1; white-space: pre;">0</text></g><g class="ytick"><text text-anchor="end" x="79" y="6.3" style="font-family: 'Open Sans'; font-size: 18px; fill: rgb(255, 255, 255); fill-opacity: 1; white-space: pre;" transform="translate(0,383.48)">200</text></g><g class="ytick"><text text-anchor="end" x="79" y="6.3" style="font-family: 'Open Sans'; font-size: 18px; fill: rgb(255, 255, 255); fill-opacity: 1; white-space: pre;" transform="translate(0,346.97)">400</text></g><g class="ytick"><text text-anchor="end" x="79" y="6.3" style="font-family: 'Open Sans'; font-size: 18px; fill: rgb(255, 255, 255); fill-opacity: 1; white-space: pre;" transform="translate(0,310.45)">600</text></g><g class="ytick"><text text-anchor="end" x="79" y="6.3" style="font-family: 'Open Sans'; font-size: 18px; fill: rgb(255, 255, 255); fill-opacity: 1; white-space: pre;" transform="translate(0,273.93)">800</text></g><g class="ytick"><text text-anchor="end" x="79" y="6.3" style="font-family: 'Open Sans'; font-size: 18px; fill: rgb(255, 255, 255); fill-opacity: 1; white-space: pre;" transform="translate(0,237.42)">1000</text></g><g class="ytick"><text text-anchor="end" x="79" y="6.3" style="font-family: 'Open Sans'; font-size: 18px; fill: rgb(255, 255, 255); fill-opacity: 1; white-space: pre;" transform="translate(0,200.9)">1200</text></g><g class="ytick"><text text-anchor="end" x="79" y="6.3" style="font-family: 'Open Sans'; font-size: 18px; fill: rgb(255, 255, 255); fill-opacity: 1; white-space: pre;" transform="translate(0,164.38)">1400</text></g><g class="ytick"><text text-anchor="end" x="79" y="6.3" style="font-family: 'Open Sans'; font-size: 18px; fill: rgb(255, 255, 255); fill-opacity: 1; white-space: pre;" transform="translate(0,127.87)">1600</text></g></g><g class="overaxes-above"/></g></g><g class="polarlayer"/><g class="smithlayer"/><g class="ternarylayer"/><g class="geolayer"/><g class="funnelarealayer"/><g class="pielayer"/><g class="iciclelayer"/><g class="treemaplayer"/><g class="sunburstlayer"/><g class="glimages"/><defs id="topdefs-3371ff"><g class="clips"/></defs><g class="layer-above"><g class="imagelayer"/><g class="shapelayer"/></g><g class="infolayer"><g class="g-gtitle"><text class="gtitle" x="35" y="50" text-anchor="start" dy="0em" style="opacity: 1; font-family: 'Open Sans'; font-size: 25px; fill: rgb(255, 255, 255); fill-opacity: 1; white-space: pre;">MultiQC/MultiQC - Pull Requests Created Over Time</text></g><g class="g-xtitle"><text class="xtitle" x="350" y="472.9" text-anchor="middle" style="opacity: 1; font-family: 'Open Sans'; font-size: 22px; fill: rgb(255, 255, 255); fill-opacity: 1; white-space: pre;">Date</text></g><g class="g-ytitle"><text class="ytitle" transform="rotate(-90,20.799999999999997,260)" x="20.799999999999997" y="260" text-anchor="middle" style="opacity: 1; font-family: 'Open Sans'; font-size: 22px; fill: rgb(255, 255, 255); fill-opacity: 1; white-space: pre;">Cumulative PRs Created</text></g></g></svg>