<svg class="main-svg" xmlns="http://www.w3.org/2000/svg" xmlns:xlink="http://www.w3.org/1999/xlink" width="700" height="500" style="" viewBox="0 0 700 500"><rect x="0" y="0" width="700" height="500" style="fill: rgb(0, 0, 0); fill-opacity: 0;"/><defs id="defs-1f3c78"><g class="clips"><clipPath id="clip1f3c78xyplot" class="plotclip"><rect width="540" height="320"/></clipPath><clipPath class="axesclip" id="clip1f3c78x"><rect x="80" y="0" width="540" height="500"/></clipPath><clipPath class="axesclip" id="clip1f3c78y"><rect x="0" y="100" width="700" height="320"/></clipPath><clipPath class="axesclip" id="clip1f3c78xy"><rect x="80" y="100" width="540" height="320"/></clipPath></g><g class="gradients"/><g class="patterns"/></defs><g class="bglayer"><rect class="bg" x="80" y="100" width="540" height="320" style="fill: rgb(0, 0, 0); fill-opacity: 0; stroke-width: 0;"/></g><g class="layer-below"><g class="imagelayer"/><g class="shapelayer"/></g><g class="cartesianlayer"><g class="subplot xy"><g class="layer-subplot"><g class="shapelayer"/><g class="imagelayer"/></g><g class="minor-gridlayer"><g class="x"/><g class="y"/></g><g class="gridlayer"><g class="x"><path class="xgrid crisp" transform="translate(96.71000000000001,0)" d="M0,100v320" style="stroke: rgb(255, 255, 255); stroke-opacity: 1; stroke-width: 1px;"/><path class="xgrid crisp" transform="translate(198.99,0)" d="M0,100v320" style="stroke: rgb(255, 255, 255); stroke-opacity: 1; stroke-width: 1px;"/><path class="xgrid crisp" transform="translate(301.13,0)" d="M0,100v320" style="stroke: rgb(255, 255, 255); stroke-opacity: 1; stroke-width: 1px;"/><path class="xgrid crisp" transform="translate(403.42,0)" d="M0,100v320" style="stroke: rgb(255, 255, 255); stroke-opacity: 1; stroke-width: 1px;"/><path class="xgrid crisp" transform="translate(505.56,0)" d="M0,100v320" style="stroke: rgb(255, 255, 255); stroke-opacity: 1; stroke-width: 1px;"/><path class="xgrid crisp" transform="translate(607.85,0)" d="M0,100v320" style="stroke: rgb(255, 255, 255); stroke-opacity: 1; stroke-width: 1px;"/></g><g class="y"><path class="ygrid crisp" transform="translate(0,383.55)" d="M80,0h540" style="stroke: rgb(255, 255, 255); stroke-opacity: 1; stroke-width: 1px;"/><path class="ygrid crisp" transform="translate(0,347.1)" d="M80,0h540" style="stroke: rgb(255, 255, 255); stroke-opacity: 1; stroke-width: 1px;"/><path class="ygrid crisp" transform="translate(0,310.65)" d="M80,0h540" style="stroke: rgb(255, 255, 255); stroke-opacity: 1; stroke-width: 1px;"/><path class="ygrid crisp" transform="translate(0,274.2)" d="M80,0h540" style="stroke: rgb(255, 255, 255); stroke-opacity: 1; stroke-width: 1px;"/><path class="ygrid crisp" transform="translate(0,237.75)" d="M80,0h540" style="stroke: rgb(255, 255, 255); stroke-opacity: 1; stroke-width: 1px;"/><path class="ygrid crisp" transform="translate(0,201.29000000000002)" d="M80,0h540" style="stroke: rgb(255, 255, 255); stroke-opacity: 1; stroke-width: 1px;"/><path class="ygrid crisp" transform="translate(0,164.84)" d="M80,0h540" style="stroke: rgb(255, 255, 255); stroke-opacity: 1; stroke-width: 1px;"/><path class="ygrid crisp" transform="translate(0,128.39)" d="M80,0h540" style="stroke: rgb(255, 255, 255); stroke-opacity: 1; stroke-width: 1px;"/></g></g><g class="zerolinelayer"><path class="yzl zl crisp" transform="translate(0,420)" d="M80,0h540" style="stroke: rgb(255, 255, 255); stroke-opacity: 1; stroke-width: 2px;"/></g><g class="layer-between"><g class="shapelayer"/><g class="imagelayer"/></g><path class="xlines-below"/><path class="ylines-below"/><g class="overlines-below"/><g class="xaxislayer-below"/><g class="yaxislayer-below"/><g class="overaxes-below"/><g class="overplot"><g class="xy" transform="translate(80,100)" clip-path="url(#clip1f3c78xyplot)"><g class="scatterlayer mlayer"><g class="trace scatter trace92a2d4" style="stroke-miterlimit: 2;"><g class="fills"><g><path class="js-fill" d="M540,320L0,320L0,319.82L3.48,318.54L3.77,318.36L5.72,317.27L6.03,317.08L14.27,315.63L21.55,315.44L21.74,315.26L23.33,315.08L23.33,314.9L26.28,314.71L43.09,310.16L43.11,309.98L43.13,309.61L44.06,309.43L44.63,309.06L45.87,308.88L58,307.61L59.09,307.42L66.3,305.24L66.35,305.06L67.15,304.14L67.98,303.96L69.4,303.23L73.86,303.05L77.92,302.14L79.1,301.96L83.95,300.32L83.95,300.13L94.64,298.49L94.98,298.31L95.99,297.4L95.99,297.22L96.68,294.85L97.08,294.67L97.5,294.3L98.08,294.12L99.74,292.84L99.88,292.66L100.47,291.75L101.43,291.57L102.55,290.29L102.66,290.11L103.41,289.38L104.35,289.2L107.54,287.38L107.54,287.19L108.03,286.65L109.28,286.47L109.41,286.28L111.37,286.1L111.38,285.92L112.47,285.74L120.02,284.46L120.31,284.28L120.63,283.73L121.45,283.55L128.3,281.91L128.3,281.73L129.16,281L130.13,280.82L133.74,279.18L134.07,278.99L134.74,278.08L134.87,277.9L141.6,276.26L142.13,276.08L150.97,273.16L152.54,272.98L168.59,270.43L168.61,270.24L178.71,268.97L178.72,268.79L179.36,267.69L180.89,267.51L181.21,266.78L182.84,266.6L183.34,266.05L185.51,265.87L209.64,262.77L210.35,262.59L210.74,261.68L212.13,261.5L216.13,260.4L217.29,260.22L229.91,257.85L229.91,257.67L230.7,256.94L230.98,256.76L233.53,255.48L233.78,255.3L234.25,254.21L234.83,254.02L234.93,253.84L236.2,253.66L238.16,252.38L238.81,252.2L240.79,250.93L241.76,250.74L242.47,249.29L242.73,249.1L243.75,248.37L244.57,248.19L248.8,246.55L253.31,246.37L253.66,246L255.53,245.82L259.17,244.36L259.28,244.18L260.58,243.09L262.61,242.91L262.67,242.54L263.69,242.36L268.49,240.72L270.15,240.54L270.34,240.35L272.06,240.17L272.07,239.99L273.01,239.81L273.2,239.63L274.55,239.44L279.91,238.35L279.97,238.17L292.09,235.62L292.86,235.43L295.52,234.52L295.9,234.34L295.91,234.16L297.05,233.98L297.9,232.52L297.92,232.34L300.26,230.51L300.31,230.33L303.71,228.69L304.19,228.51L304.62,226.87L306.78,226.69L315.69,225.05L315.69,224.86L315.86,224.32L316.52,224.13L318.38,222.49L320.8,222.31L321.29,221.95L322.52,221.76L330.92,220.12L330.95,219.94L331.78,219.58L333.02,219.4L338.05,217.57L338.13,217.39L345.42,216.3L345.43,216.12L350.34,214.29L350.88,214.11L355.04,211.92L355.39,211.74L358.67,210.83L358.67,210.65L358.78,210.47L360.23,210.28L368.99,208.28L369.04,208.1L369.88,207.73L371.05,207.55L371.87,206.64L372.08,206.46L373.87,204.63L374.27,204.45L375.32,203.36L375.84,203.18L379.63,202.26L383.38,202.08L387,200.62L388.82,200.44L388.96,200.08L390.39,199.89L390.52,198.8L394.43,198.62L395.27,198.07L397.35,197.89L401.58,196.8L403.06,196.61L406.34,193.52L406.42,193.33L410.44,186.41L410.85,186.23L411.52,182.58L411.83,182.4L414.85,177.11L414.85,176.93L415.83,174.2L416.15,174.01L418.91,171.28L418.91,171.1L419.35,169.46L419.37,169.28L421.73,167.45L421.74,167.27L421.97,166.54L422.83,166.36L423.82,162.17L424.98,161.99L425.27,161.44L425.93,161.26L428.84,158.71L428.87,158.52L428.92,158.16L429.75,157.98L431.5,154.7L431.5,154.51L432.41,150.14L432.64,149.96L435.06,140.66L435.33,140.48L436.01,139.93L436.44,139.75L437.14,137.56L437.38,137.38L437.83,136.83L438.92,136.65L440.37,134.65L440.48,134.47L443.58,128.45L443.58,128.27L444.82,124.44L444.82,124.26L445.24,123.89L445.68,123.71L446.66,122.8L446.66,122.62L446.98,121.16L447.51,120.98L448.03,120.25L448.33,120.07L449.43,117.7L449.44,117.52L450.15,114.96L450.24,114.78L450.44,113.69L451.14,113.51L452.07,111.5L452.12,111.32L454.19,107.31L454.19,107.13L457.26,100.93L457.32,100.75L458.23,97.29L458.53,97.1L460.27,96.01L460.33,95.83L461.04,93.64L461.17,93.46L462.89,88.54L463.26,88.35L464,85.26L464.02,85.07L466.41,82.71L466.66,82.52L468.18,80.52L469.33,80.34L470.26,79.06L470.29,78.88L470.73,77.97L470.73,77.78L471.4,76.51L471.53,76.33L473.21,74.32L473.9,74.14L474.63,72.32L474.66,72.13L475.23,70.31L476.07,70.13L479.69,68.31L479.71,68.12L481.95,63.75L483.1,63.57L484,62.66L484.43,62.47L485.67,61.02L486.5,60.83L489.34,58.28L489.93,58.1L493.39,55.37L493.49,55.18L493.7,54.27L494.33,54.09L499.4,48.08L499.95,47.89L502.31,46.62L502.31,46.44L503.05,44.07L503.28,43.88L506.43,41.88L508.63,41.7L509.44,39.15L510.15,38.96L510.44,38.24L511.01,38.05L511.99,35.32L512.41,35.14L515.02,34.04L516.79,33.86L518.38,32.4L518.42,32.22L519.16,31.67L520.13,31.49L523.03,29.85L523.17,29.67L523.87,28.03L524.13,27.85L524.98,24.93L525.18,24.75L526.1,23.65L526.28,23.47L526.55,22.74L528.83,22.56L530.08,20.74L531.02,20.56L535.42,19.1L535.74,18.92L536.07,18.37L536.62,18.19L537.07,17.46L537.71,17.28L540,16" style="fill: rgb(44, 160, 44); fill-opacity: 0.5; stroke-width: 0;"/></g></g><g class="errorbars"/><g class="lines"><path class="js-line" d="M0,319.82L3.48,318.54L3.77,318.36L5.72,317.27L6.03,317.08L14.27,315.63L21.55,315.44L21.74,315.26L23.33,315.08L23.33,314.9L26.28,314.71L43.09,310.16L43.11,309.98L43.13,309.61L44.06,309.43L44.63,309.06L45.87,308.88L58,307.61L59.09,307.42L66.3,305.24L66.35,305.06L67.15,304.14L67.98,303.96L69.4,303.23L73.86,303.05L77.92,302.14L79.1,301.96L83.95,300.32L83.95,300.13L94.64,298.49L94.98,298.31L95.99,297.4L95.99,297.22L96.68,294.85L97.08,294.67L97.5,294.3L98.08,294.12L99.74,292.84L99.88,292.66L100.47,291.75L101.43,291.57L102.55,290.29L102.66,290.11L103.41,289.38L104.35,289.2L107.54,287.38L107.54,287.19L108.03,286.65L109.28,286.47L109.41,286.28L111.37,286.1L111.38,285.92L112.47,285.74L120.02,284.46L120.31,284.28L120.63,283.73L121.45,283.55L128.3,281.91L128.3,281.73L129.16,281L130.13,280.82L133.74,279.18L134.07,278.99L134.74,278.08L134.87,277.9L141.6,276.26L142.13,276.08L150.97,273.16L152.54,272.98L168.59,270.43L168.61,270.24L178.71,268.97L178.72,268.79L179.36,267.69L180.89,267.51L181.21,266.78L182.84,266.6L183.34,266.05L185.51,265.87L209.64,262.77L210.35,262.59L210.74,261.68L212.13,261.5L216.13,260.4L217.29,260.22L229.91,257.85L229.91,257.67L230.7,256.94L230.98,256.76L233.53,255.48L233.78,255.3L234.25,254.21L234.83,254.02L234.93,253.84L236.2,253.66L238.16,252.38L238.81,252.2L240.79,250.93L241.76,250.74L242.47,249.29L242.73,249.1L243.75,248.37L244.57,248.19L248.8,246.55L253.31,246.37L253.66,246L255.53,245.82L259.17,244.36L259.28,244.18L260.58,243.09L262.61,242.91L262.67,242.54L263.69,242.36L268.49,240.72L270.15,240.54L270.34,240.35L272.06,240.17L272.07,239.99L273.01,239.81L273.2,239.63L274.55,239.44L279.91,238.35L279.97,238.17L292.09,235.62L292.86,235.43L295.52,234.52L295.9,234.34L295.91,234.16L297.05,233.98L297.9,232.52L297.92,232.34L300.26,230.51L300.31,230.33L303.71,228.69L304.19,228.51L304.62,226.87L306.78,226.69L315.69,225.05L315.69,224.86L315.86,224.32L316.52,224.13L318.38,222.49L320.8,222.31L321.29,221.95L322.52,221.76L330.92,220.12L330.95,219.94L331.78,219.58L333.02,219.4L338.05,217.57L338.13,217.39L345.42,216.3L345.43,216.12L350.34,214.29L350.88,214.11L355.04,211.92L355.39,211.74L358.67,210.83L358.67,210.65L358.78,210.47L360.23,210.28L368.99,208.28L369.04,208.1L369.88,207.73L371.05,207.55L371.87,206.64L372.08,206.46L373.87,204.63L374.27,204.45L375.32,203.36L375.84,203.18L379.63,202.26L383.38,202.08L387,200.62L388.82,200.44L388.96,200.08L390.39,199.89L390.52,198.8L394.43,198.62L395.27,198.07L397.35,197.89L401.58,196.8L403.06,196.61L406.34,193.52L406.42,193.33L410.44,186.41L410.85,186.23L411.52,182.58L411.83,182.4L414.85,177.11L414.85,176.93L415.83,174.2L416.15,174.01L418.91,171.28L418.91,171.1L419.35,169.46L419.37,169.28L421.73,167.45L421.74,167.27L421.97,166.54L422.83,166.36L423.82,162.17L424.98,161.99L425.27,161.44L425.93,161.26L428.84,158.71L428.87,158.52L428.92,158.16L429.75,157.98L431.5,154.7L431.5,154.51L432.41,150.14L432.64,149.96L435.06,140.66L435.33,140.48L436.01,139.93L436.44,139.75L437.14,137.56L437.38,137.38L437.83,136.83L438.92,136.65L440.37,134.65L440.48,134.47L443.58,128.45L443.58,128.27L444.82,124.44L444.82,124.26L445.24,123.89L445.68,123.71L446.66,122.8L446.66,122.62L446.98,121.16L447.51,120.98L448.03,120.25L448.33,120.07L449.43,117.7L449.44,117.52L450.15,114.96L450.24,114.78L450.44,113.69L451.14,113.51L452.07,111.5L452.12,111.32L454.19,107.31L454.19,107.13L457.26,100.93L457.32,100.75L458.23,97.29L458.53,97.1L460.27,96.01L460.33,95.83L461.04,93.64L461.17,93.46L462.89,88.54L463.26,88.35L464,85.26L464.02,85.07L466.41,82.71L466.66,82.52L468.18,80.52L469.33,80.34L470.26,79.06L470.29,78.88L470.73,77.97L470.73,77.78L471.4,76.51L471.53,76.33L473.21,74.32L473.9,74.14L474.63,72.32L474.66,72.13L475.23,70.31L476.07,70.13L479.69,68.31L479.71,68.12L481.95,63.75L483.1,63.57L484,62.66L484.43,62.47L485.67,61.02L486.5,60.83L489.34,58.28L489.93,58.1L493.39,55.37L493.49,55.18L493.7,54.27L494.33,54.09L499.4,48.08L499.95,47.89L502.31,46.62L502.31,46.44L503.05,44.07L503.28,43.88L506.43,41.88L508.63,41.7L509.44,39.15L510.15,38.96L510.44,38.24L511.01,38.05L511.99,35.32L512.41,35.14L515.02,34.04L516.79,33.86L518.38,32.4L518.42,32.22L519.16,31.67L520.13,31.49L523.03,29.85L523.17,29.67L523.87,28.03L524.13,27.85L524.98,24.93L525.18,24.75L526.1,23.65L526.28,23.47L526.55,22.74L528.83,22.56L530.08,20.74L531.02,20.56L535.42,19.1L535.74,18.92L536.07,18.37L536.62,18.19L537.07,17.46L537.71,17.28L540,16" style="vector-effect: none; fill: none; stroke: rgb(44, 160, 44); stroke-opacity: 1; stroke-width: 2px; opacity: 1;"/></g><g class="points"/><g class="text"/></g></g></g></g><g class="zerolinelayer-above"/><path class="xlines-above crisp" d="M0,0" style="fill: none;"/><path class="ylines-above crisp" d="M0,0" style="fill: none;"/><g class="overlines-above"/><g class="xaxislayer-above"><g class="xtick"><text text-anchor="middle" x="0" y="439" transform="translate(96.71000000000001,0)" style="font-family: 'Open Sans'; font-size: 18px; fill: rgb(0, 0, 0); fill-opacity: 1; white-space: pre;">2016</text></g><g class="xtick"><text text-anchor="middle" x="0" y="439" style="font-family: 'Open Sans'; font-size: 18px; fill: rgb(0, 0, 0); fill-opacity: 1; white-space: pre;" transform="translate(198.99,0)">2018</text></g><g class="xtick"><text text-anchor="middle" x="0" y="439" style="font-family: 'Open Sans'; font-size: 18px; fill: rgb(0, 0, 0); fill-opacity: 1; white-space: pre;" transform="translate(301.13,0)">2020</text></g><g class="xtick"><text text-anchor="middle" x="0" y="439" style="font-family: 'Open Sans'; font-size: 18px; fill: rgb(0, 0, 0); fill-opacity: 1; white-space: pre;" transform="translate(403.42,0)">2022</text></g><g class="xtick"><text text-anchor="middle" x="0" y="439" style="font-family: 'Open Sans'; font-size: 18px; fill: rgb(0, 0, 0); fill-opacity: 1; white-space: pre;" transform="translate(505.56,0)">2024</text></g><g class="xtick"><text text-anchor="middle" x="0" y="439" style="font-family: 'Open Sans'; font-size: 18px; fill: rgb(0, 0, 0); fill-opacity: 1; white-space: pre;" transform="translate(607.85,0)">2026</text></g></g><g class="yaxislayer-above"><g class="ytick"><text text-anchor="end" x="79" y="6.3" transform="translate(0,420)" style="font-family: 'Open Sans'; font-size: 18px; fill: rgb(0, 0, 0); fill-opacity: 1; white-space: pre;">0</text></g><g class="ytick"><text text-anchor="end" x="79" y="6.3" style="font-family: 'Open Sans'; font-size: 18px; fill: rgb(0, 0, 0); fill-opacity: 1; white-space: pre;" transform="translate(0,383.55)">200</text></g><g class="ytick"><text text-anchor="end" x="79" y="6.3" style="font-family: 'Open Sans'; font-size: 18px; fill: rgb(0, 0, 0); fill-opacity: 1; white-space: pre;" transform="translate(0,347.1)">400</text></g><g class="ytick"><text text-anchor="end" x="79" y="6.3" style="font-family: 'Open Sans'; font-size: 18px; fill: rgb(0, 0, 0); fill-opacity: 1; white-space: pre;" transform="translate(0,310.65)">600</text></g><g class="ytick"><text text-anchor="end" x="79" y="6.3" style="font-family: 'Open Sans'; font-size: 18px; fill: rgb(0, 0, 0); fill-opacity: 1; white-space: pre;" transform="translate(0,274.2)">800</text></g><g class="ytick"><text text-anchor="end" x="79" y="6.3" style="font-family: 'Open Sans'; font-size: 18px; fill: rgb(0, 0, 0); fill-opacity: 1; white-space: pre;" transform="translate(0,237.75)">1000</text></g><g class="ytick"><text text-anchor="end" x="79" y="6.3" style="font-family: 'Open Sans'; font-size: 18px; fill: rgb(0, 0, 0); fill-opacity: 1; white-space: pre;" transform="translate(0,201.29000000000002)">1200</text></g><g class="ytick"><text text-anchor="end" x="79" y="6.3" style="font-family: 'Open Sans'; font-size: 18px; fill: rgb(0, 0, 0); fill-opacity: 1; white-space: pre;" transform="translate(0,164.84)">1400</text></g><g class="ytick"><text text-anchor="end" x="79" y="6.3" style="font-family: 'Open Sans'; font-size: 18px; fill: rgb(0, 0, 0); fill-opacity: 1; white-space: pre;" transform="translate(0,128.39)">1600</text></g></g><g class="overaxes-above"/></g></g><g class="polarlayer"/><g class="smithlayer"/><g class="ternarylayer"/><g class="geolayer"/><g class="funnelarealayer"/><g class="pielayer"/><g class="iciclelayer"/><g class="treemaplayer"/><g class="sunburstlayer"/><g class="glimages"/><defs id="topdefs-1f3c78"><g class="clips"/></defs><g class="layer-above"><g class="imagelayer"/><g class="shapelayer"/></g><g class="infolayer"><g class="g-gtitle"><text class="gtitle" x="35" y="50" text-anchor="start" dy="0em" style="opacity: 1; font-family: 'Open Sans'; font-size: 25px; fill: rgb(0, 0, 0); fill-opacity: 1; white-space: pre;">MultiQC/MultiQC - Pull Requests Created Over Time</text></g><g class="g-xtitle"><text class="xtitle" x="350" y="472.9" text-anchor="middle" style="opacity: 1; font-family: 'Open Sans'; font-size: 22px; fill: rgb(0, 0, 0); fill-opacity: 1; white-space: pre;">Date</text></g><g class="g-ytitle"><text class="ytitle" transform="rotate(-90,20.799999999999997,260)" x="20.799999999999997" y="260" text-anchor="middle" style="opacity: 1; font-family: 'Open Sans'; font-size: 22px; fill: rgb(0, 0, 0); fill-opacity: 1; white-space: pre;">Cumulative PRs Created</text></g></g></svg>