<svg class="main-svg" xmlns="http://www.w3.org/2000/svg" xmlns:xlink="http://www.w3.org/1999/xlink" width="700" height="500" style="" viewBox="0 0 700 500"><rect x="0" y="0" width="700" height="500" style="fill: rgb(0, 0, 0); fill-opacity: 0;"/><defs id="defs-827f53"><g class="clips"><clipPath id="clip827f53xyplot" class="plotclip"><rect width="540" height="320"/></clipPath><clipPath class="axesclip" id="clip827f53x"><rect x="80" y="0" width="540" height="500"/></clipPath><clipPath class="axesclip" id="clip827f53y"><rect x="0" y="100" width="700" height="320"/></clipPath><clipPath class="axesclip" id="clip827f53xy"><rect x="80" y="100" width="540" height="320"/></clipPath></g><g class="gradients"/><g class="patterns"/></defs><g class="bglayer"><rect class="bg" x="80" y="100" width="540" height="320" style="fill: rgb(0, 0, 0); fill-opacity: 0; stroke-width: 0;"/></g><g class="layer-below"><g class="imagelayer"/><g class="shapelayer"/></g><g class="cartesianlayer"><g class="subplot xy"><g class="layer-subplot"><g class="shapelayer"/><g class="imagelayer"/></g><g class="minor-gridlayer"><g class="x"/><g class="y"/></g><g class="gridlayer"><g class="x"><path class="xgrid crisp" transform="translate(96.8,0)" d="M0,100v320" style="stroke: rgb(255, 255, 255); stroke-opacity: 1; stroke-width: 1px;"/><path class="xgrid crisp" transform="translate(199.64,0)" d="M0,100v320" style="stroke: rgb(255, 255, 255); stroke-opacity: 1; stroke-width: 1px;"/><path class="xgrid crisp" transform="translate(302.34000000000003,0)" d="M0,100v320" style="stroke: rgb(255, 255, 255); stroke-opacity: 1; stroke-width: 1px;"/><path class="xgrid crisp" transform="translate(405.18,0)" d="M0,100v320" style="stroke: rgb(255, 255, 255); stroke-opacity: 1; stroke-width: 1px;"/><path class="xgrid crisp" transform="translate(507.88,0)" d="M0,100v320" style="stroke: rgb(255, 255, 255); stroke-opacity: 1; stroke-width: 1px;"/><path class="xgrid crisp" transform="translate(610.72,0)" d="M0,100v320" style="stroke: rgb(255, 255, 255); stroke-opacity: 1; stroke-width: 1px;"/></g><g class="y"><path class="ygrid crisp" transform="translate(0,360.39)" d="M80,0h540" style="stroke: rgb(255, 255, 255); stroke-opacity: 1; stroke-width: 1px;"/><path class="ygrid crisp" transform="translate(0,300.78)" d="M80,0h540" style="stroke: rgb(255, 255, 255); stroke-opacity: 1; stroke-width: 1px;"/><path class="ygrid crisp" transform="translate(0,241.18)" d="M80,0h540" style="stroke: rgb(255, 255, 255); stroke-opacity: 1; stroke-width: 1px;"/><path class="ygrid crisp" transform="translate(0,181.57)" d="M80,0h540" style="stroke: rgb(255, 255, 255); stroke-opacity: 1; stroke-width: 1px;"/><path class="ygrid crisp" transform="translate(0,121.96000000000001)" d="M80,0h540" style="stroke: rgb(255, 255, 255); stroke-opacity: 1; stroke-width: 1px;"/></g></g><g class="zerolinelayer"><path class="yzl zl crisp" transform="translate(0,420)" d="M80,0h540" style="stroke: rgb(255, 255, 255); stroke-opacity: 1; stroke-width: 2px;"/></g><g class="layer-between"><g class="shapelayer"/><g class="imagelayer"/></g><path class="xlines-below"/><path class="ylines-below"/><g class="overlines-below"/><g class="xaxislayer-below"/><g class="yaxislayer-below"/><g class="overaxes-below"/><g class="overplot"><g class="xy" transform="translate(80,100)" clip-path="url(#clip827f53xyplot)"><g class="scatterlayer mlayer"><g class="trace scatter trace75d968" style="stroke-miterlimit: 2;"><g class="fills"><g><path class="js-fill" d="M540,320L0,320L0,317.02L0.1,320L1.02,317.02L1.7,320L1.8,317.02L1.8,320L3.05,317.02L3.79,320L4.65,317.02L4.65,320L4.75,320L5.48,317.02L5.48,320L6.06,320L6.89,317.02L6.89,320L7.46,320L8.98,317.02L8.98,320L9.62,317.02L9.83,320L11.53,317.02L11.53,320L14.35,317.02L14.35,320L21.67,317.02L21.67,320L21.86,317.02L21.86,320L23.46,317.02L23.46,314.04L23.6,317.02L24.73,320L26.42,317.02L26.42,320L27.73,314.04L27.73,317.02L27.73,320L30.53,317.02L30.53,320L30.67,320L31.91,317.02L31.91,320L32.5,320L33.38,317.02L33.38,320L34.15,317.02L34.15,320L34.89,317.02L34.98,320L37.56,314.04L37.99,317.02L38.11,314.04L38.11,317.02L39.39,320L40.11,317.02L40.11,320L41.8,317.02L41.8,320L42.88,317.02L42.88,320L43.36,308.08L43.47,311.06L44,314.04L44.43,317.02L44.87,314.04L44.88,317.02L46.12,314.04L49.94,311.06L49.94,314.04L50.23,317.02L51.02,314.04L51.92,320L53.32,317.02L53.32,320L53.71,320L56.83,317.02L56.83,320L56.83,317.02L58.31,314.04L58.63,317.02L59.41,314.04L60.18,311.06L60.21,314.04L60.21,311.06L60.78,320L62.61,317.02L62.9,320L63.57,317.02L63.72,314.04L64.69,317.02L64.86,311.06L64.99,314.04L65.81,317.02L66.12,314.04L66.12,317.02L66.66,314.04L66.74,308.08L66.85,320L66.93,320L67.51,317.02L68.35,314.04L68.36,317.02L69.08,311.06L69.09,314.04L69.78,311.06L74.26,308.08L74.73,305.1L76.4,320L77.38,317.02L77.38,320L78.35,317.02L79.53,314.04L79.59,317.02L80.64,311.06L81.05,308.08L81.56,305.1L81.56,308.08L81.58,311.06L82.71,305.1L82.72,308.08L83.55,305.1L83.55,308.08L83.84,311.06L84.4,308.08L84.41,311.06L84.41,308.08L86.2,311.06L86.38,308.08L86.38,311.06L87.27,308.08L87.5,311.06L88.21,308.08L88.67,305.1L89.43,308.08L90.15,305.1L90.44,308.08L92.68,305.1L92.68,308.08L93.26,305.1L93.29,308.08L94.65,311.06L95.16,308.08L95.36,311.06L95.5,308.08L95.5,311.06L96.5,308.08L96.52,290.2L97.21,305.1L97.48,308.08L97.49,311.06L97.64,305.1L98.04,305.1L98.62,302.12L99.32,305.1L99.5,302.12L100.02,296.16L100.18,302.12L100.27,305.1L100.89,293.18L101.02,299.14L101.97,302.12L102.4,293.18L102.4,293.18L102.93,296.16L103.97,281.25L104.92,278.27L105.93,281.25L106.21,278.27L106.93,284.24L107.05,281.25L107.35,293.18L107.48,290.2L108.12,287.22L108.62,275.29L108.62,278.27L109,281.25L109.04,284.24L109.88,281.25L110,278.27L110.02,281.25L111.3,284.24L112,296.16L113.09,293.18L113.09,296.16L115.22,293.18L115.22,290.2L115.23,296.16L117.19,293.18L117.2,296.16L117.2,293.18L118.26,296.16L118.31,293.18L120.14,290.2L120.97,296.16L120.97,293.18L121.12,296.16L121.28,293.18L121.29,296.16L122.11,293.18L122.43,296.16L123.12,293.18L123.15,296.16L124.77,293.18L124.79,296.16L126.62,293.18L126.72,296.16L127.11,293.18L127.59,290.2L127.71,293.18L128.59,290.2L128.59,293.18L129,281.25L129.14,281.25L129.53,278.27L129.87,293.18L129.87,293.18L130.84,290.2L131.13,296.16L131.82,293.18L132.79,290.2L132.91,287.22L133.47,290.2L133.65,287.22L133.75,284.24L134.47,278.27L134.5,281.25L134.8,278.27L135.02,281.25L135.46,278.27L135.47,275.29L135.48,266.35L135.62,284.24L136.88,281.25L136.99,278.27L137,281.25L138.42,278.27L139.18,290.2L140.38,287.22L140.78,290.2L142.37,287.22L143.44,284.24L143.44,287.22L144.75,278.27L144.76,281.25L145.01,284.24L145.03,287.22L145.43,281.25L145.43,284.24L145.75,281.25L145.76,284.24L146.74,287.22L146.91,293.18L147.61,290.2L147.7,287.22L149.29,284.24L149.81,275.29L149.82,278.27L149.83,281.25L149.88,290.2L151.66,287.22L151.76,290.2L151.8,287.22L153.37,284.24L153.38,287.22L154.73,284.24L154.73,287.22L155.15,284.24L155.59,281.25L156.27,278.27L156.31,281.25L159.13,284.24L162.14,278.27L162.86,275.29L163.63,278.27L164.33,275.29L164.34,278.27L166.98,275.29L167.43,278.27L168.04,275.29L169.24,272.31L169.48,275.29L169.48,272.31L169.52,296.16L169.53,293.18L171.89,290.2L171.9,293.18L174.21,296.16L175.3,293.18L175.3,296.16L175.92,293.18L175.95,296.16L178.14,293.18L178.29,290.2L179.66,293.18L179.68,296.16L180.26,272.31L180.34,275.29L180.34,272.31L180.37,284.24L181.87,281.25L182.2,272.31L183.84,269.33L184.34,266.35L184.35,269.33L186.52,266.35L187,269.33L188.31,266.35L188.61,269.33L188.91,266.35L191.07,263.37L194.02,260.39L194.12,263.37L195.01,260.39L195.7,263.37L195.74,257.41L195.96,260.39L196.83,263.37L197.09,275.29L197.9,278.27L197.98,281.25L198.08,275.29L201.47,272.31L202.03,275.29L202.71,272.31L202.85,269.33L204.97,266.35L207.9,263.37L209.46,260.39L209.48,257.41L210.79,254.43L211.56,257.41L211.58,254.43L211.88,275.29L211.89,272.31L212.86,275.29L213.28,278.27L213.29,275.29L214.42,278.27L214.88,284.24L215.24,281.25L215.26,284.24L215.78,275.29L215.82,281.25L216.38,284.24L216.42,287.22L217.31,284.24L218.47,281.25L218.49,284.24L220.45,278.27L220.73,275.29L223.06,272.31L224.17,275.29L225.74,272.31L226.22,269.33L228.5,263.37L228.51,266.35L229.35,257.41L231.16,254.43L231.44,245.49L231.96,242.51L233.02,236.55L233.07,239.53L235.29,218.67L235.36,221.65L235.37,224.63L235.52,215.69L236.1,218.67L236.21,215.69L237.49,212.71L237.64,209.73L237.91,221.65L237.91,224.63L238.08,239.53L238.35,233.57L238.84,230.59L239.88,281.25L240.11,278.27L240.29,275.29L240.3,272.31L240.89,281.25L240.98,278.27L241.17,275.29L242.09,284.24L242.1,281.25L242.1,278.27L242.83,290.2L243.08,287.22L243.08,290.2L243.27,278.27L243.81,287.22L244.06,284.24L244.06,287.22L244.36,284.24L245.04,281.25L245.08,278.27L245.88,281.25L246.37,275.29L247,272.31L247.85,266.35L247.86,269.33L248.71,263.37L248.71,266.35L250.16,257.41L251.09,260.39L254.69,257.41L254.79,254.43L255.04,251.45L255.34,254.43L256.92,251.45L257.85,245.49L258.2,242.51L258.58,239.53L260.15,236.55L260.59,227.61L260.79,236.55L260.79,239.53L262,224.63L264.04,221.65L264.1,215.69L265.12,212.71L266.75,206.75L266.78,209.73L266.8,230.59L267.42,218.67L267.7,215.69L267.7,218.67L267.84,215.69L269.95,212.71L271.63,209.73L271.81,206.75L273.55,203.76L273.55,206.75L273.55,203.76L273.55,206.75L274.5,203.76L274.69,200.78L275.36,203.76L276.3,215.69L276.5,218.67L278.03,215.69L278.55,218.67L279.91,212.71L280.6,209.73L280.6,212.71L281.39,209.73L281.49,203.76L282.63,206.75L283.19,242.51L285.72,239.53L286.2,242.51L286.59,239.53L286.61,242.51L289.39,239.53L290.09,245.49L290.12,242.51L290.23,239.53L290.23,242.51L290.48,242.51L291.16,245.49L291.34,239.53L291.34,242.51L293.66,239.53L293.68,236.55L294.46,233.57L296.46,230.59L296.98,227.61L297.13,218.67L297.17,233.57L297.53,227.61L297.98,230.59L298.44,236.55L298.67,233.57L298.92,230.59L299.71,269.33L299.94,266.35L300.9,257.41L301.52,254.43L302.51,239.53L303.46,236.55L304.35,233.57L304.45,230.59L305.29,221.65L305.33,224.63L306.28,191.84L308.45,188.86L310.34,185.88L310.34,182.9L313.69,185.88L313.76,182.9L315.01,179.92L315.42,176.94L317.41,165.02L317.41,162.04L317.55,156.08L317.94,218.67L318.25,215.69L318.69,212.71L318.7,221.65L318.95,218.67L319.1,215.69L320.11,200.78L320.23,203.76L322.55,200.78L323.04,197.8L323.33,200.78L324.28,197.8L324.66,200.78L325.81,197.8L327.24,200.78L327.27,209.73L327.92,206.75L328.62,209.73L329.05,227.61L329.47,230.59L329.6,227.61L329.9,236.55L330.1,233.57L330.48,236.55L331.04,233.57L331.85,224.63L332.73,221.65L332.95,215.69L333.58,212.71L334.43,218.67L334.83,215.69L334.83,218.67L335.54,215.69L335.81,218.67L335.81,224.63L336.37,221.65L337.69,218.67L337.89,212.71L338.33,221.65L338.34,221.65L338.35,224.63L338.98,218.67L339.2,215.69L339.98,209.73L339.99,212.71L343.04,209.73L343.42,212.71L344.78,209.73L345.22,206.75L345.22,209.73L345.97,212.71L346.25,209.73L346.33,215.69L347.07,212.71L348.17,203.76L348.17,206.75L348.61,200.78L349.16,197.8L349.59,203.76L349.61,197.8L350.13,200.78L350.71,197.8L350.72,200.78L351.43,197.8L351.57,200.78L352.25,197.8L353.39,191.84L353.4,188.86L353.45,194.82L354.22,191.84L354.27,188.86L355.08,185.88L356.18,182.9L356.27,179.92L356.97,168L357.33,165.02L357.45,168L359.14,165.02L359.42,162.04L360.48,159.06L360.63,185.88L360.74,185.88L362.2,182.9L363.12,179.92L363.13,182.9L364.94,179.92L364.95,182.9L365.36,179.92L367.76,176.94L367.76,179.92L368.43,179.92L369.02,176.94L369.77,165.02L369.83,168L371,165.02L371.1,159.06L371.53,176.94L371.9,173.96L372.12,176.94L373.08,173.96L373.89,162.04L374.1,159.06L374.68,173.96L374.79,165.02L374.98,162.04L375.68,179.92L375.91,176.94L376.74,206.75L376.81,203.76L377.52,221.65L377.89,218.67L378.68,221.65L381.09,218.67L381.7,209.73L381.72,212.71L381.96,215.69L385.47,212.71L385.49,215.69L386.2,209.73L387.09,212.71L388.2,209.73L389.11,206.75L389.11,209.73L390.94,206.75L391.08,200.78L392.09,203.76L392.63,194.82L392.63,191.84L392.64,182.9L396.35,185.88L397.42,173.96L399.51,170.98L400,165.02L400,168L400.01,170.98L402.07,165.02L402.52,162.04L405.26,156.08L405.45,153.1L406.01,150.12L406.01,153.1L406.18,156.08L406.77,170.98L406.91,168L407.5,165.02L407.55,168L407.86,153.1L408.26,150.12L408.45,141.18L408.64,153.1L408.65,156.08L408.65,159.06L409.4,144.16L409.54,141.18L410.29,162.04L410.33,159.06L410.63,156.08L410.65,168L411.08,159.06L411.12,162.04L411.22,168L411.52,162.04L412.19,159.06L412.26,156.08L412.68,173.96L412.68,170.98L413.09,168L413.58,147.14L413.77,179.92L414.07,176.94L414.51,159.06L414.65,170.98L414.65,173.96L414.71,179.92L415.26,170.98L415.3,173.96L415.9,170.98L416.04,179.92L416.6,165.02L416.68,162.04L416.74,165.02L417.11,147.14L417.11,144.16L417.14,135.22L417.28,185.88L417.59,173.96L417.99,170.98L418.41,165.02L418.51,170.98L418.64,173.96L419.29,168L419.55,170.98L420.07,179.92L420.25,173.96L420.35,176.94L420.69,170.98L421.06,185.88L421.19,182.9L421.19,188.86L421.49,173.96L421.66,185.88L422.06,182.9L422.72,197.8L423.3,194.82L423.64,197.8L424.02,188.86L424.03,185.88L424.27,173.96L424.99,176.94L425.13,191.84L425.43,170.98L425.59,176.94L425.76,179.92L425.98,176.94L426.14,185.88L427.29,182.9L427.43,188.86L427.59,182.9L428.25,179.92L428.4,182.9L428.58,176.94L428.92,173.96L428.95,182.9L429.35,176.94L430.04,173.96L430.55,170.98L430.55,173.96L430.55,176.94L431.07,170.98L431.07,168L431.08,165.02L431.12,176.94L431.25,168L432.1,165.02L432.32,156.08L432.45,168L432.53,170.98L433.23,194.82L433.49,188.86L433.49,185.88L433.85,182.9L433.85,188.86L433.85,191.84L433.85,188.86L433.85,197.8L434.44,194.82L434.67,191.84L434.91,194.82L435.16,182.9L435.28,185.88L435.3,182.9L435.74,203.76L436.04,188.86L436.1,185.88L436.1,182.9L436.12,203.76L436.81,188.86L436.96,185.88L437.09,191.84L437.43,176.94L437.69,179.92L438.22,206.75L438.39,203.76L438.8,206.75L439.24,191.84L439.52,194.82L439.77,191.84L439.77,194.82L440.21,188.86L440.21,188.86L441.31,185.88L441.91,179.92L441.91,182.9L442.71,179.92L442.75,176.94L442.78,200.78L443.18,197.8L443.72,200.78L443.83,203.76L443.99,188.86L444,185.88L444.41,179.92L444.45,185.88L444.66,188.86L444.68,185.88L445.4,206.75L445.4,203.76L445.69,206.75L446,197.8L446.27,203.76L446.58,206.75L446.94,209.73L447.27,197.8L447.27,200.78L447.66,197.8L448.74,188.86L449.07,191.84L449.09,188.86L449.23,200.78L449.66,200.78L449.95,197.8L449.96,200.78L450.22,194.82L450.47,200.78L450.77,197.8L451.08,209.73L451.33,203.76L451.64,206.75L452.3,200.78L452.3,203.76L452.54,200.78L452.71,191.84L452.72,203.76L452.9,197.8L453.6,200.78L453.6,197.8L454.13,209.73L454.54,206.75L454.83,203.76L454.84,209.73L455.12,206.75L455.41,203.76L456.07,200.78L456.07,203.76L456.24,206.75L456.25,203.76L456.39,218.67L456.92,215.69L456.99,212.71L457.07,209.73L457.65,218.67L457.67,215.69L457.77,218.67L458.47,203.76L458.48,215.69L458.48,218.67L458.5,215.69L458.62,221.65L459.2,218.67L459.45,215.69L459.45,221.65L460.2,218.67L460.31,221.65L460.33,227.61L461.02,221.65L461.85,218.67L461.98,221.65L462.63,218.67L462.78,212.71L462.83,227.61L462.86,227.61L462.86,230.59L463.56,218.67L463.56,227.61L463.56,230.59L464.25,224.63L464.28,227.61L464.36,230.59L464.68,221.65L464.68,224.63L465.23,221.65L465.23,224.63L465.96,212.71L465.97,215.69L466.23,218.67L466.55,224.63L466.77,215.69L467.38,212.71L467.65,218.67L467.67,215.69L468.61,212.71L468.61,215.69L469.21,209.73L469.36,209.73L469.86,206.75L470.32,200.78L470.59,206.75L470.72,203.76L470.73,200.78L471.63,203.76L472.26,200.78L472.55,212.71L472.59,209.73L473.29,218.67L473.41,212.71L473.53,215.69L474.26,200.78L474.3,209.73L474.56,206.75L475.21,209.73L475.58,206.75L475.58,209.73L475.79,200.78L475.81,209.73L476.48,206.75L476.63,221.65L477.22,215.69L477.24,218.67L477.27,212.71L477.9,230.59L478.66,227.61L479.05,230.59L479.08,227.61L479.73,224.63L480.28,230.59L481.05,227.61L481.48,221.65L481.88,224.63L481.96,227.61L482.32,221.65L482.32,224.63L482.38,227.61L482.4,230.59L482.43,224.63L483.11,227.61L483.12,224.63L483.15,227.61L483.52,218.67L483.58,221.65L484.26,224.63L484.39,218.67L484.88,224.63L485.73,221.65L486.59,218.67L486.59,221.65L486.59,218.67L486.63,224.63L487.19,224.63L488.05,221.65L488.17,215.69L488.18,224.63L488.32,218.67L489.15,221.65L489.73,209.73L490.05,206.75L490.57,209.73L490.74,206.75L490.74,203.76L491.38,191.84L491.38,209.73L491.48,206.75L491.72,203.76L492,200.78L492.01,206.75L492.01,209.73L492.6,206.75L492.83,209.73L492.95,206.75L493.26,215.69L493.9,218.67L494.38,212.71L494.5,218.67L494.5,221.65L494.5,218.67L494.89,227.61L495.18,227.61L495.33,224.63L495.94,221.65L496.02,224.63L496.05,227.61L496.19,218.67L496.39,221.65L497.03,218.67L497.87,227.61L497.91,224.63L498.15,227.61L498.58,221.65L498.84,224.63L499.17,215.69L499.26,221.65L500.03,218.67L500.41,224.63L500.48,215.69L500.83,212.71L501.39,206.75L501.51,221.65L501.53,221.65L501.86,218.67L503.44,203.76L503.83,206.75L503.84,209.73L504.79,206.75L505.04,212.71L505.48,200.78L505.53,209.73L505.61,206.75L506.02,209.73L506.33,206.75L507.72,203.76L508.88,191.84L508.99,194.82L508.99,197.8L508.99,200.78L509.15,191.84L509.19,191.84L511.4,194.82L511.79,188.86L511.82,209.73L512.09,209.73L512.1,212.71L512.94,203.76L512.94,206.75L513.21,209.73L513.92,191.84L513.92,197.8L513.97,194.82L514.63,203.76L514.66,197.8L514.76,194.82L514.76,197.8L515.2,191.84L515.64,188.86L515.76,191.84L515.92,185.88L515.92,191.84L517.82,188.86L517.82,191.84L519.6,188.86L520.99,176.94L521.15,173.96L521.2,168L521.21,176.94L521.66,173.96L521.99,170.98L523.51,165.02L523.75,162.04L523.75,165.02L524.24,156.08L525.38,153.1L526.03,141.18L526.03,138.2L526.04,141.18L526.62,123.29L526.72,123.29L526.99,120.31L526.99,123.29L527.44,108.39L527.72,108.39L527.84,105.41L527.84,108.39L528.58,99.45L528.67,102.43L529.42,87.53L531.72,84.55L532.97,63.69L533.92,60.71L535.61,54.75L537.41,51.76L538.34,36.86L538.66,33.88L538.99,27.92L539.55,24.94L539.56,27.92L540,16" style="fill: rgb(44, 160, 44); fill-opacity: 0.5; stroke-width: 0;"/></g></g><g class="errorbars"/><g class="lines"><path class="js-line" d="M0,317.02L0.1,320L1.02,317.02L1.7,320L1.8,317.02L1.8,320L3.05,317.02L3.79,320L4.65,317.02L4.65,320L4.75,320L5.48,317.02L5.48,320L6.06,320L6.89,317.02L6.89,320L7.46,320L8.98,317.02L8.98,320L9.62,317.02L9.83,320L11.53,317.02L11.53,320L14.35,317.02L14.35,320L21.67,317.02L21.67,320L21.86,317.02L21.86,320L23.46,317.02L23.46,314.04L23.6,317.02L24.73,320L26.42,317.02L26.42,320L27.73,314.04L27.73,317.02L27.73,320L30.53,317.02L30.53,320L30.67,320L31.91,317.02L31.91,320L32.5,320L33.38,317.02L33.38,320L34.15,317.02L34.15,320L34.89,317.02L34.98,320L37.56,314.04L37.99,317.02L38.11,314.04L38.11,317.02L39.39,320L40.11,317.02L40.11,320L41.8,317.02L41.8,320L42.88,317.02L42.88,320L43.36,308.08L43.47,311.06L44,314.04L44.43,317.02L44.87,314.04L44.88,317.02L46.12,314.04L49.94,311.06L49.94,314.04L50.23,317.02L51.02,314.04L51.92,320L53.32,317.02L53.32,320L53.71,320L56.83,317.02L56.83,320L56.83,317.02L58.31,314.04L58.63,317.02L59.41,314.04L60.18,311.06L60.21,314.04L60.21,311.06L60.78,320L62.61,317.02L62.9,320L63.57,317.02L63.72,314.04L64.69,317.02L64.86,311.06L64.99,314.04L65.81,317.02L66.12,314.04L66.12,317.02L66.66,314.04L66.74,308.08L66.85,320L66.93,320L67.51,317.02L68.35,314.04L68.36,317.02L69.08,311.06L69.09,314.04L69.78,311.06L74.26,308.08L74.73,305.1L76.4,320L77.38,317.02L77.38,320L78.35,317.02L79.53,314.04L79.59,317.02L80.64,311.06L81.05,308.08L81.56,305.1L81.56,308.08L81.58,311.06L82.71,305.1L82.72,308.08L83.55,305.1L83.55,308.08L83.84,311.06L84.4,308.08L84.41,311.06L84.41,308.08L86.2,311.06L86.38,308.08L86.38,311.06L87.27,308.08L87.5,311.06L88.21,308.08L88.67,305.1L89.43,308.08L90.15,305.1L90.44,308.08L92.68,305.1L92.68,308.08L93.26,305.1L93.29,308.08L94.65,311.06L95.16,308.08L95.36,311.06L95.5,308.08L95.5,311.06L96.5,308.08L96.52,290.2L97.21,305.1L97.48,308.08L97.49,311.06L97.64,305.1L98.04,305.1L98.62,302.12L99.32,305.1L99.5,302.12L100.02,296.16L100.18,302.12L100.27,305.1L100.89,293.18L101.02,299.14L101.97,302.12L102.4,293.18L102.4,293.18L102.93,296.16L103.97,281.25L104.92,278.27L105.93,281.25L106.21,278.27L106.93,284.24L107.05,281.25L107.35,293.18L107.48,290.2L108.12,287.22L108.62,275.29L108.62,278.27L109,281.25L109.04,284.24L109.88,281.25L110,278.27L110.02,281.25L111.3,284.24L112,296.16L113.09,293.18L113.09,296.16L115.22,293.18L115.22,290.2L115.23,296.16L117.19,293.18L117.2,296.16L117.2,293.18L118.26,296.16L118.31,293.18L120.14,290.2L120.97,296.16L120.97,293.18L121.12,296.16L121.28,293.18L121.29,296.16L122.11,293.18L122.43,296.16L123.12,293.18L123.15,296.16L124.77,293.18L124.79,296.16L126.62,293.18L126.72,296.16L127.11,293.18L127.59,290.2L127.71,293.18L128.59,290.2L128.59,293.18L129,281.25L129.14,281.25L129.53,278.27L129.87,293.18L129.87,293.18L130.84,290.2L131.13,296.16L131.82,293.18L132.79,290.2L132.91,287.22L133.47,290.2L133.65,287.22L133.75,284.24L134.47,278.27L134.5,281.25L134.8,278.27L135.02,281.25L135.46,278.27L135.47,275.29L135.48,266.35L135.62,284.24L136.88,281.25L136.99,278.27L137,281.25L138.42,278.27L139.18,290.2L140.38,287.22L140.78,290.2L142.37,287.22L143.44,284.24L143.44,287.22L144.75,278.27L144.76,281.25L145.01,284.24L145.03,287.22L145.43,281.25L145.43,284.24L145.75,281.25L145.76,284.24L146.74,287.22L146.91,293.18L147.61,290.2L147.7,287.22L149.29,284.24L149.81,275.29L149.82,278.27L149.83,281.25L149.88,290.2L151.66,287.22L151.76,290.2L151.8,287.22L153.37,284.24L153.38,287.22L154.73,284.24L154.73,287.22L155.15,284.24L155.59,281.25L156.27,278.27L156.31,281.25L159.13,284.24L162.14,278.27L162.86,275.29L163.63,278.27L164.33,275.29L164.34,278.27L166.98,275.29L167.43,278.27L168.04,275.29L169.24,272.31L169.48,275.29L169.48,272.31L169.52,296.16L169.53,293.18L171.89,290.2L171.9,293.18L174.21,296.16L175.3,293.18L175.3,296.16L175.92,293.18L175.95,296.16L178.14,293.18L178.29,290.2L179.66,293.18L179.68,296.16L180.26,272.31L180.34,275.29L180.34,272.31L180.37,284.24L181.87,281.25L182.2,272.31L183.84,269.33L184.34,266.35L184.35,269.33L186.52,266.35L187,269.33L188.31,266.35L188.61,269.33L188.91,266.35L191.07,263.37L194.02,260.39L194.12,263.37L195.01,260.39L195.7,263.37L195.74,257.41L195.96,260.39L196.83,263.37L197.09,275.29L197.9,278.27L197.98,281.25L198.08,275.29L201.47,272.31L202.03,275.29L202.71,272.31L202.85,269.33L204.97,266.35L207.9,263.37L209.46,260.39L209.48,257.41L210.79,254.43L211.56,257.41L211.58,254.43L211.88,275.29L211.89,272.31L212.86,275.29L213.28,278.27L213.29,275.29L214.42,278.27L214.88,284.24L215.24,281.25L215.26,284.24L215.78,275.29L215.82,281.25L216.38,284.24L216.42,287.22L217.31,284.24L218.47,281.25L218.49,284.24L220.45,278.27L220.73,275.29L223.06,272.31L224.17,275.29L225.74,272.31L226.22,269.33L228.5,263.37L228.51,266.35L229.35,257.41L231.16,254.43L231.44,245.49L231.96,242.51L233.02,236.55L233.07,239.53L235.29,218.67L235.36,221.65L235.37,224.63L235.52,215.69L236.1,218.67L236.21,215.69L237.49,212.71L237.64,209.73L237.91,221.65L237.91,224.63L238.08,239.53L238.35,233.57L238.84,230.59L239.88,281.25L240.11,278.27L240.29,275.29L240.3,272.31L240.89,281.25L240.98,278.27L241.17,275.29L242.09,284.24L242.1,281.25L242.1,278.27L242.83,290.2L243.08,287.22L243.08,290.2L243.27,278.27L243.81,287.22L244.06,284.24L244.06,287.22L244.36,284.24L245.04,281.25L245.08,278.27L245.88,281.25L246.37,275.29L247,272.31L247.85,266.35L247.86,269.33L248.71,263.37L248.71,266.35L250.16,257.41L251.09,260.39L254.69,257.41L254.79,254.43L255.04,251.45L255.34,254.43L256.92,251.45L257.85,245.49L258.2,242.51L258.58,239.53L260.15,236.55L260.59,227.61L260.79,236.55L260.79,239.53L262,224.63L264.04,221.65L264.1,215.69L265.12,212.71L266.75,206.75L266.78,209.73L266.8,230.59L267.42,218.67L267.7,215.69L267.7,218.67L267.84,215.69L269.95,212.71L271.63,209.73L271.81,206.75L273.55,203.76L273.55,206.75L273.55,203.76L273.55,206.75L274.5,203.76L274.69,200.78L275.36,203.76L276.3,215.69L276.5,218.67L278.03,215.69L278.55,218.67L279.91,212.71L280.6,209.73L280.6,212.71L281.39,209.73L281.49,203.76L282.63,206.75L283.19,242.51L285.72,239.53L286.2,242.51L286.59,239.53L286.61,242.51L289.39,239.53L290.09,245.49L290.12,242.51L290.23,239.53L290.23,242.51L290.48,242.51L291.16,245.49L291.34,239.53L291.34,242.51L293.66,239.53L293.68,236.55L294.46,233.57L296.46,230.59L296.98,227.61L297.13,218.67L297.17,233.57L297.53,227.61L297.98,230.59L298.44,236.55L298.67,233.57L298.92,230.59L299.71,269.33L299.94,266.35L300.9,257.41L301.52,254.43L302.51,239.53L303.46,236.55L304.35,233.57L304.45,230.59L305.29,221.65L305.33,224.63L306.28,191.84L308.45,188.86L310.34,185.88L310.34,182.9L313.69,185.88L313.76,182.9L315.01,179.92L315.42,176.94L317.41,165.02L317.41,162.04L317.55,156.08L317.94,218.67L318.25,215.69L318.69,212.71L318.7,221.65L318.95,218.67L319.1,215.69L320.11,200.78L320.23,203.76L322.55,200.78L323.04,197.8L323.33,200.78L324.28,197.8L324.66,200.78L325.81,197.8L327.24,200.78L327.27,209.73L327.92,206.75L328.62,209.73L329.05,227.61L329.47,230.59L329.6,227.61L329.9,236.55L330.1,233.57L330.48,236.55L331.04,233.57L331.85,224.63L332.73,221.65L332.95,215.69L333.58,212.71L334.43,218.67L334.83,215.69L334.83,218.67L335.54,215.69L335.81,218.67L335.81,224.63L336.37,221.65L337.69,218.67L337.89,212.71L338.33,221.65L338.34,221.65L338.35,224.63L338.98,218.67L339.2,215.69L339.98,209.73L339.99,212.71L343.04,209.73L343.42,212.71L344.78,209.73L345.22,206.75L345.22,209.73L345.97,212.71L346.25,209.73L346.33,215.69L347.07,212.71L348.17,203.76L348.17,206.75L348.61,200.78L349.16,197.8L349.59,203.76L349.61,197.8L350.13,200.78L350.71,197.8L350.72,200.78L351.43,197.8L351.57,200.78L352.25,197.8L353.39,191.84L353.4,188.86L353.45,194.82L354.22,191.84L354.27,188.86L355.08,185.88L356.18,182.9L356.27,179.92L356.97,168L357.33,165.02L357.45,168L359.14,165.02L359.42,162.04L360.48,159.06L360.63,185.88L360.74,185.88L362.2,182.9L363.12,179.92L363.13,182.9L364.94,179.92L364.95,182.9L365.36,179.92L367.76,176.94L367.76,179.92L368.43,179.92L369.02,176.94L369.77,165.02L369.83,168L371,165.02L371.1,159.06L371.53,176.94L371.9,173.96L372.12,176.94L373.08,173.96L373.89,162.04L374.1,159.06L374.68,173.96L374.79,165.02L374.98,162.04L375.68,179.92L375.91,176.94L376.74,206.75L376.81,203.76L377.52,221.65L377.89,218.67L378.68,221.65L381.09,218.67L381.7,209.73L381.72,212.71L381.96,215.69L385.47,212.71L385.49,215.69L386.2,209.73L387.09,212.71L388.2,209.73L389.11,206.75L389.11,209.73L390.94,206.75L391.08,200.78L392.09,203.76L392.63,194.82L392.63,191.84L392.64,182.9L396.35,185.88L397.42,173.96L399.51,170.98L400,165.02L400,168L400.01,170.98L402.07,165.02L402.52,162.04L405.26,156.08L405.45,153.1L406.01,150.12L406.01,153.1L406.18,156.08L406.77,170.98L406.91,168L407.5,165.02L407.55,168L407.86,153.1L408.26,150.12L408.45,141.18L408.64,153.1L408.65,156.08L408.65,159.06L409.4,144.16L409.54,141.18L410.29,162.04L410.33,159.06L410.63,156.08L410.65,168L411.08,159.06L411.12,162.04L411.22,168L411.52,162.04L412.19,159.06L412.26,156.08L412.68,173.96L412.68,170.98L413.09,168L413.58,147.14L413.77,179.92L414.07,176.94L414.51,159.06L414.65,170.98L414.65,173.96L414.71,179.92L415.26,170.98L415.3,173.96L415.9,170.98L416.04,179.92L416.6,165.02L416.68,162.04L416.74,165.02L417.11,147.14L417.11,144.16L417.14,135.22L417.28,185.88L417.59,173.96L417.99,170.98L418.41,165.02L418.51,170.98L418.64,173.96L419.29,168L419.55,170.98L420.07,179.92L420.25,173.96L420.35,176.94L420.69,170.98L421.06,185.88L421.19,182.9L421.19,188.86L421.49,173.96L421.66,185.88L422.06,182.9L422.72,197.8L423.3,194.82L423.64,197.8L424.02,188.86L424.03,185.88L424.27,173.96L424.99,176.94L425.13,191.84L425.43,170.98L425.59,176.94L425.76,179.92L425.98,176.94L426.14,185.88L427.29,182.9L427.43,188.86L427.59,182.9L428.25,179.92L428.4,182.9L428.58,176.94L428.92,173.96L428.95,182.9L429.35,176.94L430.04,173.96L430.55,170.98L430.55,173.96L430.55,176.94L431.07,170.98L431.07,168L431.08,165.02L431.12,176.94L431.25,168L432.1,165.02L432.32,156.08L432.45,168L432.53,170.98L433.23,194.82L433.49,188.86L433.49,185.88L433.85,182.9L433.85,188.86L433.85,191.84L433.85,188.86L433.85,197.8L434.44,194.82L434.67,191.84L434.91,194.82L435.16,182.9L435.28,185.88L435.3,182.9L435.74,203.76L436.04,188.86L436.1,185.88L436.1,182.9L436.12,203.76L436.81,188.86L436.96,185.88L437.09,191.84L437.43,176.94L437.69,179.92L438.22,206.75L438.39,203.76L438.8,206.75L439.24,191.84L439.52,194.82L439.77,191.84L439.77,194.82L440.21,188.86L440.21,188.86L441.31,185.88L441.91,179.92L441.91,182.9L442.71,179.92L442.75,176.94L442.78,200.78L443.18,197.8L443.72,200.78L443.83,203.76L443.99,188.86L444,185.88L444.41,179.92L444.45,185.88L444.66,188.86L444.68,185.88L445.4,206.75L445.4,203.76L445.69,206.75L446,197.8L446.27,203.76L446.58,206.75L446.94,209.73L447.27,197.8L447.27,200.78L447.66,197.8L448.74,188.86L449.07,191.84L449.09,188.86L449.23,200.78L449.66,200.78L449.95,197.8L449.96,200.78L450.22,194.82L450.47,200.78L450.77,197.8L451.08,209.73L451.33,203.76L451.64,206.75L452.3,200.78L452.3,203.76L452.54,200.78L452.71,191.84L452.72,203.76L452.9,197.8L453.6,200.78L453.6,197.8L454.13,209.73L454.54,206.75L454.83,203.76L454.84,209.73L455.12,206.75L455.41,203.76L456.07,200.78L456.07,203.76L456.24,206.75L456.25,203.76L456.39,218.67L456.92,215.69L456.99,212.71L457.07,209.73L457.65,218.67L457.67,215.69L457.77,218.67L458.47,203.76L458.48,215.69L458.48,218.67L458.5,215.69L458.62,221.65L459.2,218.67L459.45,215.69L459.45,221.65L460.2,218.67L460.31,221.65L460.33,227.61L461.02,221.65L461.85,218.67L461.98,221.65L462.63,218.67L462.78,212.71L462.83,227.61L462.86,227.61L462.86,230.59L463.56,218.67L463.56,227.61L463.56,230.59L464.25,224.63L464.28,227.61L464.36,230.59L464.68,221.65L464.68,224.63L465.23,221.65L465.23,224.63L465.96,212.71L465.97,215.69L466.23,218.67L466.55,224.63L466.77,215.69L467.38,212.71L467.65,218.67L467.67,215.69L468.61,212.71L468.61,215.69L469.21,209.73L469.36,209.73L469.86,206.75L470.32,200.78L470.59,206.75L470.72,203.76L470.73,200.78L471.63,203.76L472.26,200.78L472.55,212.71L472.59,209.73L473.29,218.67L473.41,212.71L473.53,215.69L474.26,200.78L474.3,209.73L474.56,206.75L475.21,209.73L475.58,206.75L475.58,209.73L475.79,200.78L475.81,209.73L476.48,206.75L476.63,221.65L477.22,215.69L477.24,218.67L477.27,212.71L477.9,230.59L478.66,227.61L479.05,230.59L479.08,227.61L479.73,224.63L480.28,230.59L481.05,227.61L481.48,221.65L481.88,224.63L481.96,227.61L482.32,221.65L482.32,224.63L482.38,227.61L482.4,230.59L482.43,224.63L483.11,227.61L483.12,224.63L483.15,227.61L483.52,218.67L483.58,221.65L484.26,224.63L484.39,218.67L484.88,224.63L485.73,221.65L486.59,218.67L486.59,221.65L486.59,218.67L486.63,224.63L487.19,224.63L488.05,221.65L488.17,215.69L488.18,224.63L488.32,218.67L489.15,221.65L489.73,209.73L490.05,206.75L490.57,209.73L490.74,206.75L490.74,203.76L491.38,191.84L491.38,209.73L491.48,206.75L491.72,203.76L492,200.78L492.01,206.75L492.01,209.73L492.6,206.75L492.83,209.73L492.95,206.75L493.26,215.69L493.9,218.67L494.38,212.71L494.5,218.67L494.5,221.65L494.5,218.67L494.89,227.61L495.18,227.61L495.33,224.63L495.94,221.65L496.02,224.63L496.05,227.61L496.19,218.67L496.39,221.65L497.03,218.67L497.87,227.61L497.91,224.63L498.15,227.61L498.58,221.65L498.84,224.63L499.17,215.69L499.26,221.65L500.03,218.67L500.41,224.63L500.48,215.69L500.83,212.71L501.39,206.75L501.51,221.65L501.53,221.65L501.86,218.67L503.44,203.76L503.83,206.75L503.84,209.73L504.79,206.75L505.04,212.71L505.48,200.78L505.53,209.73L505.61,206.75L506.02,209.73L506.33,206.75L507.72,203.76L508.88,191.84L508.99,194.82L508.99,197.8L508.99,200.78L509.15,191.84L509.19,191.84L511.4,194.82L511.79,188.86L511.82,209.73L512.09,209.73L512.1,212.71L512.94,203.76L512.94,206.75L513.21,209.73L513.92,191.84L513.92,197.8L513.97,194.82L514.63,203.76L514.66,197.8L514.76,194.82L514.76,197.8L515.2,191.84L515.64,188.86L515.76,191.84L515.92,185.88L515.92,191.84L517.82,188.86L517.82,191.84L519.6,188.86L520.99,176.94L521.15,173.96L521.2,168L521.21,176.94L521.66,173.96L521.99,170.98L523.51,165.02L523.75,162.04L523.75,165.02L524.24,156.08L525.38,153.1L526.03,141.18L526.03,138.2L526.04,141.18L526.62,123.29L526.72,123.29L526.99,120.31L526.99,123.29L527.44,108.39L527.72,108.39L527.84,105.41L527.84,108.39L528.58,99.45L528.67,102.43L529.42,87.53L531.72,84.55L532.97,63.69L533.92,60.71L535.61,54.75L537.41,51.76L538.34,36.86L538.66,33.88L538.99,27.92L539.55,24.94L539.56,27.92L540,16" style="vector-effect: none; fill: none; stroke: rgb(44, 160, 44); stroke-opacity: 1; stroke-width: 2px; opacity: 1;"/></g><g class="points"/><g class="text"/></g></g></g></g><g class="zerolinelayer-above"/><path class="xlines-above crisp" d="M0,0" style="fill: none;"/><path class="ylines-above crisp" d="M0,0" style="fill: none;"/><g class="overlines-above"/><g class="xaxislayer-above"><g class="xtick"><text text-anchor="middle" x="0" y="439" transform="translate(96.8,0)" style="font-family: 'Open Sans'; font-size: 18px; fill: rgb(255, 255, 255); fill-opacity: 1; white-space: pre;">2016</text></g><g class="xtick"><text text-anchor="middle" x="0" y="439" style="font-family: 'Open Sans'; font-size: 18px; fill: rgb(255, 255, 255); fill-opacity: 1; white-space: pre;" transform="translate(199.64,0)">2018</text></g><g class="xtick"><text text-anchor="middle" x="0" y="439" style="font-family: 'Open Sans'; font-size: 18px; fill: rgb(255, 255, 255); fill-opacity: 1; white-space: pre;" transform="translate(302.34000000000003,0)">2020</text></g><g class="xtick"><text text-anchor="middle" x="0" y="439" style="font-family: 'Open Sans'; font-size: 18px; fill: rgb(255, 255, 255); fill-opacity: 1; white-space: pre;" transform="translate(405.18,0)">2022</text></g><g class="xtick"><text text-anchor="middle" x="0" y="439" style="font-family: 'Open Sans'; font-size: 18px; fill: rgb(255, 255, 255); fill-opacity: 1; white-space: pre;" transform="translate(507.88,0)">2024</text></g><g class="xtick"><text text-anchor="middle" x="0" y="439" style="font-family: 'Open Sans'; font-size: 18px; fill: rgb(255, 255, 255); fill-opacity: 1; white-space: pre;" transform="translate(610.72,0)">2026</text></g></g><g class="yaxislayer-above"><g class="ytick"><text text-anchor="end" x="79" y="6.3" transform="translate(0,420)" style="font-family: 'Open Sans'; font-size: 18px; fill: rgb(255, 255, 255); fill-opacity: 1; white-space: pre;">0</text></g><g class="ytick"><text text-anchor="end" x="79" y="6.3" style="font-family: 'Open Sans'; font-size: 18px; fill: rgb(255, 255, 255); fill-opacity: 1; white-space: pre;" transform="translate(0,360.39)">20</text></g><g class="ytick"><text text-anchor="end" x="79" y="6.3" style="font-family: 'Open Sans'; font-size: 18px; fill: rgb(255, 255, 255); fill-opacity: 1; white-space: pre;" transform="translate(0,300.78)">40</text></g><g class="ytick"><text text-anchor="end" x="79" y="6.3" style="font-family: 'Open Sans'; font-size: 18px; fill: rgb(255, 255, 255); fill-opacity: 1; white-space: pre;" transform="translate(0,241.18)">60</text></g><g class="ytick"><text text-anchor="end" x="79" y="6.3" style="font-family: 'Open Sans'; font-size: 18px; fill: rgb(255, 255, 255); fill-opacity: 1; white-space: pre;" transform="translate(0,181.57)">80</text></g><g class="ytick"><text text-anchor="end" x="79" y="6.3" style="font-family: 'Open Sans'; font-size: 18px; fill: rgb(255, 255, 255); fill-opacity: 1; white-space: pre;" transform="translate(0,121.96000000000001)">100</text></g></g><g class="overaxes-above"/></g></g><g class="polarlayer"/><g class="smithlayer"/><g class="ternarylayer"/><g class="geolayer"/><g class="funnelarealayer"/><g class="pielayer"/><g class="iciclelayer"/><g class="treemaplayer"/><g class="sunburstlayer"/><g class="glimages"/><defs id="topdefs-827f53"><g class="clips"/></defs><g class="layer-above"><g class="imagelayer"/><g class="shapelayer"/></g><g class="infolayer"><g class="g-gtitle"><text class="gtitle" x="35" y="50" text-anchor="start" dy="0em" style="opacity: 1; font-family: 'Open Sans'; font-size: 25px; fill: rgb(255, 255, 255); fill-opacity: 1; white-space: pre;">MultiQC/MultiQC - Open Pull Requests Over Time</text></g><g class="g-xtitle"><text class="xtitle" x="350" y="472.9" text-anchor="middle" style="opacity: 1; font-family: 'Open Sans'; font-size: 22px; fill: rgb(255, 255, 255); fill-opacity: 1; white-space: pre;">Date</text></g><g class="g-ytitle"><text class="ytitle" transform="rotate(-90,29.799999999999997,260)" x="29.799999999999997" y="260" text-anchor="middle" style="opacity: 1; font-family: 'Open Sans'; font-size: 22px; fill: rgb(255, 255, 255); fill-opacity: 1; white-space: pre;">Number of Open PRs</text></g></g></svg>