<svg class="main-svg" xmlns="http://www.w3.org/2000/svg" xmlns:xlink="http://www.w3.org/1999/xlink" width="700" height="500" style="" viewBox="0 0 700 500"><rect x="0" y="0" width="700" height="500" style="fill: rgb(0, 0, 0); fill-opacity: 0;"/><defs id="defs-e19f4f"><g class="clips"><clipPath id="clipe19f4fxyplot" class="plotclip"><rect width="540" height="320"/></clipPath><clipPath class="axesclip" id="clipe19f4fx"><rect x="80" y="0" width="540" height="500"/></clipPath><clipPath class="axesclip" id="clipe19f4fy"><rect x="0" y="100" width="700" height="320"/></clipPath><clipPath class="axesclip" id="clipe19f4fxy"><rect x="80" y="100" width="540" height="320"/></clipPath></g><g class="gradients"/><g class="patterns"/></defs><g class="bglayer"><rect class="bg" x="80" y="100" width="540" height="320" style="fill: rgb(0, 0, 0); fill-opacity: 0; stroke-width: 0;"/></g><g class="layer-below"><g class="imagelayer"/><g class="shapelayer"/></g><g class="cartesianlayer"><g class="subplot xy"><g class="layer-subplot"><g class="shapelayer"/><g class="imagelayer"/></g><g class="minor-gridlayer"><g class="x"/><g class="y"/></g><g class="gridlayer"><g class="x"><path class="xgrid crisp" transform="translate(96.96000000000001,0)" d="M0,100v320" style="stroke: rgb(255, 255, 255); stroke-opacity: 1; stroke-width: 1px;"/><path class="xgrid crisp" transform="translate(200.79000000000002,0)" d="M0,100v320" style="stroke: rgb(255, 255, 255); stroke-opacity: 1; stroke-width: 1px;"/><path class="xgrid crisp" transform="translate(304.48,0)" d="M0,100v320" style="stroke: rgb(255, 255, 255); stroke-opacity: 1; stroke-width: 1px;"/><path class="xgrid crisp" transform="translate(408.31,0)" d="M0,100v320" style="stroke: rgb(255, 255, 255); stroke-opacity: 1; stroke-width: 1px;"/><path class="xgrid crisp" transform="translate(512,0)" d="M0,100v320" style="stroke: rgb(255, 255, 255); stroke-opacity: 1; stroke-width: 1px;"/><path class="xgrid crisp" transform="translate(615.83,0)" d="M0,100v320" style="stroke: rgb(255, 255, 255); stroke-opacity: 1; stroke-width: 1px;"/></g><g class="y"><path class="ygrid crisp" transform="translate(0,383.02)" d="M80,0h540" style="stroke: rgb(255, 255, 255); stroke-opacity: 1; stroke-width: 1px;"/><path class="ygrid crisp" transform="translate(0,346.03)" d="M80,0h540" style="stroke: rgb(255, 255, 255); stroke-opacity: 1; stroke-width: 1px;"/><path class="ygrid crisp" transform="translate(0,309.05)" d="M80,0h540" style="stroke: rgb(255, 255, 255); stroke-opacity: 1; stroke-width: 1px;"/><path class="ygrid crisp" transform="translate(0,272.07)" d="M80,0h540" style="stroke: rgb(255, 255, 255); stroke-opacity: 1; stroke-width: 1px;"/><path class="ygrid crisp" transform="translate(0,235.09)" d="M80,0h540" style="stroke: rgb(255, 255, 255); stroke-opacity: 1; stroke-width: 1px;"/><path class="ygrid crisp" transform="translate(0,198.1)" d="M80,0h540" style="stroke: rgb(255, 255, 255); stroke-opacity: 1; stroke-width: 1px;"/><path class="ygrid crisp" transform="translate(0,161.12)" d="M80,0h540" style="stroke: rgb(255, 255, 255); stroke-opacity: 1; stroke-width: 1px;"/><path class="ygrid crisp" transform="translate(0,124.14)" d="M80,0h540" style="stroke: rgb(255, 255, 255); stroke-opacity: 1; stroke-width: 1px;"/></g></g><g class="zerolinelayer"><path class="yzl zl crisp" transform="translate(0,420)" d="M80,0h540" style="stroke: rgb(255, 255, 255); stroke-opacity: 1; stroke-width: 2px;"/></g><g class="layer-between"><g class="shapelayer"/><g class="imagelayer"/></g><path class="xlines-below"/><path class="ylines-below"/><g class="overlines-below"/><g class="xaxislayer-below"/><g class="yaxislayer-below"/><g class="overaxes-below"/><g class="overplot"><g class="xy" transform="translate(80,100)" clip-path="url(#clipe19f4fxyplot)"><g class="scatterlayer mlayer"><g class="trace scatter tracede1800" style="stroke-miterlimit: 2;"><g class="fills"><g><path class="js-fill" d="M540,320L0,320L0,319.82L3.54,318.52L3.83,318.34L5.81,317.23L6.12,317.04L14.49,315.56L21.87,315.38L22.07,315.19L23.69,315.01L23.69,314.82L26.68,314.64L43.75,310.01L43.76,309.83L43.78,309.46L44.72,309.27L45.3,308.91L46.57,308.72L58.87,307.43L59.99,307.24L67.3,305.02L67.35,304.84L68.16,303.91L69.01,303.73L70.45,302.99L74.97,302.8L79.1,301.88L80.3,301.69L85.22,300.03L85.22,299.84L96.07,298.18L96.42,298L97.44,297.07L97.44,296.89L98.14,294.48L98.54,294.3L98.98,293.93L99.57,293.74L101.25,292.45L101.39,292.26L101.99,291.34L102.96,291.15L104.1,289.86L104.22,289.67L104.97,288.93L105.93,288.75L109.16,286.9L109.16,286.72L109.66,286.16L110.93,285.98L111.06,285.79L113.06,285.61L113.07,285.42L114.18,285.24L121.84,283.94L122.13,283.76L122.45,283.2L123.28,283.02L130.24,281.35L130.24,281.17L131.12,280.43L132.1,280.24L136.1,278.39L136.77,278.21L136.91,277.28L138.19,277.1L138.31,276.91L139.75,276.73L140.3,276.36L141.73,276.18L142.04,275.81L143.74,275.62L153.26,272.48L154.84,272.29L171.14,269.7L171.16,269.52L181.42,268.22L181.42,268.04L182.07,266.93L183.62,266.74L183.95,266L185.61,265.82L186.11,265.27L188.32,265.08L212.81,261.94L213.53,261.75L213.93,260.83L215.34,260.64L219.4,259.53L220.58,259.35L233.39,256.76L233.42,256.57L234.19,256.02L234.48,255.83L237.07,254.54L237.32,254.36L237.79,253.25L238.38,253.06L238.49,252.88L239.78,252.69L241.14,251.77L241.61,251.58L243.72,250.29L244.43,250.1L244.43,249.92L245.41,249.73L246.41,248.07L246.55,247.88L247.43,247.33L248.27,247.14L252.57,245.48L257.14,245.29L257.49,244.92L259.39,244.74L263.09,243.26L263.2,243.08L264.52,241.97L266.58,241.78L266.65,241.41L267.67,241.23L272.55,239.56L274.24,239.38L274.43,239.19L276.18,239.01L276.18,238.82L277.14,238.64L277.33,238.45L278.7,238.27L284.14,237.16L284.2,236.97L296.49,234.57L296.51,234.38L300.38,233.09L300.39,232.91L302.11,231.98L302.11,231.8L302.82,230.87L303.05,230.69L303.8,230.13L304.42,229.95L305.42,228.84L306.38,228.65L308.22,227.54L308.31,227.36L309.06,226.43L309.07,226.25L309.23,225.51L311.42,225.32L319.81,223.84L320.47,223.66L320.64,222.92L321.31,222.73L323.19,221.07L325.65,220.89L326.15,220.52L327.4,220.33L335.93,218.67L335.95,218.48L336.79,218.11L338.06,217.93L343.16,216.08L343.25,215.89L350.64,214.78L350.65,214.6L355.63,212.75L356.19,212.56L360.41,210.35L360.77,210.16L364.1,209.24L364.1,209.05L364.21,208.87L365.68,208.68L374.57,206.65L374.62,206.46L375.48,206.09L376.67,205.91L377.49,204.98L377.7,204.8L380.99,201.65L381.52,201.47L385.37,200.55L389.18,200.36L392.85,198.88L394.7,198.7L394.84,198.33L396.29,198.14L396.42,197.03L400.39,196.85L401.24,196.29L403.36,196.11L406.39,195.18L407.65,195L410.81,193.89L411.42,193.7L412.77,190.93L413.21,190.74L413.8,189.08L414.15,188.9L415.04,186.68L415.2,186.49L415.48,185.94L416.16,185.75L418.61,178.73L419.03,178.54L421.12,174.84L421.15,174.66L421.61,172.44L422.02,172.25L423.33,171.14L423.69,170.96L424.67,169.85L424.74,169.66L425.43,168.37L425.55,168.18L426.41,166.34L427.37,166.15L428.12,164.86L428.12,164.67L428.36,164.3L429.23,164.12L430.11,160.23L430.21,160.05L430.23,159.86L431.4,159.68L431.7,159.12L432.37,158.94L435.33,156.35L435.35,156.17L435.4,155.8L436.25,155.61L437.66,153.02L437.66,152.84L438.04,151.91L438.04,151.73L438.62,149.32L438.85,149.14L440.32,142.11L440.32,141.93L441.01,139.71L441.16,139.52L443.47,135.27L443.48,135.09L447.01,132.13L447.03,131.94L450.26,126.02L450.27,125.84L451.09,123.81L451.24,123.62L451.97,121.03L452.42,120.85L453.41,119.92L453.42,119.74L453.74,118.26L454.27,118.07L455.11,117.15L455.27,116.96L455.67,115.85L456.05,115.67L456.65,112.71L456.9,112.53L457.26,110.68L457.97,110.49L458.91,108.46L458.96,108.27L461.06,104.2L461.06,104.02L464.03,98.1L464.04,97.92L464.91,95.51L464.94,95.33L465.46,93.85L466.29,93.66L467.23,92.74L467.29,92.55L468.02,90.34L468.14,90.15L471.26,81.09L471.87,80.91L474.69,77.95L474.84,77.76L475.26,77.02L476.42,76.84L477.38,75.54L477.41,75.36L477.85,74.43L477.85,74.25L478.53,72.95L478.66,72.77L480.37,70.73L481.07,70.55L481.81,68.7L481.84,68.52L482.41,66.67L483.27,66.48L486.95,64.63L486.96,64.45L489.24,60.01L490.41,59.82L491.32,58.9L491.75,58.72L493.01,57.24L493.86,57.05L496.74,54.46L497.34,54.28L500.85,51.5L500.95,51.32L501.16,50.39L501.81,50.21L506.34,44.85L506.69,44.66L508.28,43.55L509.65,43.37L510.66,40.04L510.89,39.85L514.09,37.82L516.33,37.64L517.02,35.42L517.14,35.23L517.87,34.68L518.15,34.49L518.87,33.2L518.91,33.01L520.89,30.05L522.81,29.87L525.85,28.94L526.01,28.76L527.02,27.46L528,27.28L531.08,25.43L531.09,25.25L531.79,23.77L532.06,23.58L532.92,20.62L533.12,20.44L534.24,19.14L534.39,18.96L534.51,18.4L536.83,18.22L538.1,16.37L539.05,16.18L540,16" style="fill: rgb(44, 160, 44); fill-opacity: 0.5; stroke-width: 0;"/></g></g><g class="errorbars"/><g class="lines"><path class="js-line" d="M0,319.82L3.54,318.52L3.83,318.34L5.81,317.23L6.12,317.04L14.49,315.56L21.87,315.38L22.07,315.19L23.69,315.01L23.69,314.82L26.68,314.64L43.75,310.01L43.76,309.83L43.78,309.46L44.72,309.27L45.3,308.91L46.57,308.72L58.87,307.43L59.99,307.24L67.3,305.02L67.35,304.84L68.16,303.91L69.01,303.73L70.45,302.99L74.97,302.8L79.1,301.88L80.3,301.69L85.22,300.03L85.22,299.84L96.07,298.18L96.42,298L97.44,297.07L97.44,296.89L98.14,294.48L98.54,294.3L98.98,293.93L99.57,293.74L101.25,292.45L101.39,292.26L101.99,291.34L102.96,291.15L104.1,289.86L104.22,289.67L104.97,288.93L105.93,288.75L109.16,286.9L109.16,286.72L109.66,286.16L110.93,285.98L111.06,285.79L113.06,285.61L113.07,285.42L114.18,285.24L121.84,283.94L122.13,283.76L122.45,283.2L123.28,283.02L130.24,281.35L130.24,281.17L131.12,280.43L132.1,280.24L136.1,278.39L136.77,278.21L136.91,277.28L138.19,277.1L138.31,276.91L139.75,276.73L140.3,276.36L141.73,276.18L142.04,275.81L143.74,275.62L153.26,272.48L154.84,272.29L171.14,269.7L171.16,269.52L181.42,268.22L181.42,268.04L182.07,266.93L183.62,266.74L183.95,266L185.61,265.82L186.11,265.27L188.32,265.08L212.81,261.94L213.53,261.75L213.93,260.83L215.34,260.64L219.4,259.53L220.58,259.35L233.39,256.76L233.42,256.57L234.19,256.02L234.48,255.83L237.07,254.54L237.32,254.36L237.79,253.25L238.38,253.06L238.49,252.88L239.78,252.69L241.14,251.77L241.61,251.58L243.72,250.29L244.43,250.1L244.43,249.92L245.41,249.73L246.41,248.07L246.55,247.88L247.43,247.33L248.27,247.14L252.57,245.48L257.14,245.29L257.49,244.92L259.39,244.74L263.09,243.26L263.2,243.08L264.52,241.97L266.58,241.78L266.65,241.41L267.67,241.23L272.55,239.56L274.24,239.38L274.43,239.19L276.18,239.01L276.18,238.82L277.14,238.64L277.33,238.45L278.7,238.27L284.14,237.16L284.2,236.97L296.49,234.57L296.51,234.38L300.38,233.09L300.39,232.91L302.11,231.98L302.11,231.8L302.82,230.87L303.05,230.69L303.8,230.13L304.42,229.95L305.42,228.84L306.38,228.65L308.22,227.54L308.31,227.36L309.06,226.43L309.07,226.25L309.23,225.51L311.42,225.32L319.81,223.84L320.47,223.66L320.64,222.92L321.31,222.73L323.19,221.07L325.65,220.89L326.15,220.52L327.4,220.33L335.93,218.67L335.95,218.48L336.79,218.11L338.06,217.93L343.16,216.08L343.25,215.89L350.64,214.78L350.65,214.6L355.63,212.75L356.19,212.56L360.41,210.35L360.77,210.16L364.1,209.24L364.1,209.05L364.21,208.87L365.68,208.68L374.57,206.65L374.62,206.46L375.48,206.09L376.67,205.91L377.49,204.98L377.7,204.8L380.99,201.65L381.52,201.47L385.37,200.55L389.18,200.36L392.85,198.88L394.7,198.7L394.84,198.33L396.29,198.14L396.42,197.03L400.39,196.85L401.24,196.29L403.36,196.11L406.39,195.18L407.65,195L410.81,193.89L411.42,193.7L412.77,190.93L413.21,190.74L413.8,189.08L414.15,188.9L415.04,186.68L415.2,186.49L415.48,185.94L416.16,185.75L418.61,178.73L419.03,178.54L421.12,174.84L421.15,174.66L421.61,172.44L422.02,172.25L423.33,171.14L423.69,170.96L424.67,169.85L424.74,169.66L425.43,168.37L425.55,168.18L426.41,166.34L427.37,166.15L428.12,164.86L428.12,164.67L428.36,164.3L429.23,164.12L430.11,160.23L430.21,160.05L430.23,159.86L431.4,159.68L431.7,159.12L432.37,158.94L435.33,156.35L435.35,156.17L435.4,155.8L436.25,155.61L437.66,153.02L437.66,152.84L438.04,151.91L438.04,151.73L438.62,149.32L438.85,149.14L440.32,142.11L440.32,141.93L441.01,139.71L441.16,139.52L443.47,135.27L443.48,135.09L447.01,132.13L447.03,131.94L450.26,126.02L450.27,125.84L451.09,123.81L451.24,123.62L451.97,121.03L452.42,120.85L453.41,119.92L453.42,119.74L453.74,118.26L454.27,118.07L455.11,117.15L455.27,116.96L455.67,115.85L456.05,115.67L456.65,112.71L456.9,112.53L457.26,110.68L457.97,110.49L458.91,108.46L458.96,108.27L461.06,104.2L461.06,104.02L464.03,98.1L464.04,97.92L464.91,95.51L464.94,95.33L465.46,93.85L466.29,93.66L467.23,92.74L467.29,92.55L468.02,90.34L468.14,90.15L471.26,81.09L471.87,80.91L474.69,77.95L474.84,77.76L475.26,77.02L476.42,76.84L477.38,75.54L477.41,75.36L477.85,74.43L477.85,74.25L478.53,72.95L478.66,72.77L480.37,70.73L481.07,70.55L481.81,68.7L481.84,68.52L482.41,66.67L483.27,66.48L486.95,64.63L486.96,64.45L489.24,60.01L490.41,59.82L491.32,58.9L491.75,58.72L493.01,57.24L493.86,57.05L496.74,54.46L497.34,54.28L500.85,51.5L500.95,51.32L501.16,50.39L501.81,50.21L506.34,44.85L506.69,44.66L508.28,43.55L509.65,43.37L510.66,40.04L510.89,39.85L514.09,37.82L516.33,37.64L517.02,35.42L517.14,35.23L517.87,34.68L518.15,34.49L518.87,33.2L518.91,33.01L520.89,30.05L522.81,29.87L525.85,28.94L526.01,28.76L527.02,27.46L528,27.28L531.08,25.43L531.09,25.25L531.79,23.77L532.06,23.58L532.92,20.62L533.12,20.44L534.24,19.14L534.39,18.96L534.51,18.4L536.83,18.22L538.1,16.37L539.05,16.18L540,16" style="vector-effect: none; fill: none; stroke: rgb(44, 160, 44); stroke-opacity: 1; stroke-width: 2px; opacity: 1;"/></g><g class="points"/><g class="text"/></g></g></g></g><g class="zerolinelayer-above"/><path class="xlines-above crisp" d="M0,0" style="fill: none;"/><path class="ylines-above crisp" d="M0,0" style="fill: none;"/><g class="overlines-above"/><g class="xaxislayer-above"><g class="xtick"><text text-anchor="middle" x="0" y="439" transform="translate(96.96000000000001,0)" style="font-family: 'Open Sans'; font-size: 18px; fill: rgb(0, 0, 0); fill-opacity: 1; white-space: pre;">2016</text></g><g class="xtick"><text text-anchor="middle" x="0" y="439" style="font-family: 'Open Sans'; font-size: 18px; fill: rgb(0, 0, 0); fill-opacity: 1; white-space: pre;" transform="translate(200.79000000000002,0)">2018</text></g><g class="xtick"><text text-anchor="middle" x="0" y="439" style="font-family: 'Open Sans'; font-size: 18px; fill: rgb(0, 0, 0); fill-opacity: 1; white-space: pre;" transform="translate(304.48,0)">2020</text></g><g class="xtick"><text text-anchor="middle" x="0" y="439" style="font-family: 'Open Sans'; font-size: 18px; fill: rgb(0, 0, 0); fill-opacity: 1; white-space: pre;" transform="translate(408.31,0)">2022</text></g><g class="xtick"><text text-anchor="middle" x="0" y="439" style="font-family: 'Open Sans'; font-size: 18px; fill: rgb(0, 0, 0); fill-opacity: 1; white-space: pre;" transform="translate(512,0)">2024</text></g><g class="xtick"><text text-anchor="middle" x="0" y="439" style="font-family: 'Open Sans'; font-size: 18px; fill: rgb(0, 0, 0); fill-opacity: 1; white-space: pre;" transform="translate(615.83,0)">2026</text></g></g><g class="yaxislayer-above"><g class="ytick"><text text-anchor="end" x="79" y="6.3" transform="translate(0,420)" style="font-family: 'Open Sans'; font-size: 18px; fill: rgb(0, 0, 0); fill-opacity: 1; white-space: pre;">0</text></g><g class="ytick"><text text-anchor="end" x="79" y="6.3" style="font-family: 'Open Sans'; font-size: 18px; fill: rgb(0, 0, 0); fill-opacity: 1; white-space: pre;" transform="translate(0,383.02)">200</text></g><g class="ytick"><text text-anchor="end" x="79" y="6.3" style="font-family: 'Open Sans'; font-size: 18px; fill: rgb(0, 0, 0); fill-opacity: 1; white-space: pre;" transform="translate(0,346.03)">400</text></g><g class="ytick"><text text-anchor="end" x="79" y="6.3" style="font-family: 'Open Sans'; font-size: 18px; fill: rgb(0, 0, 0); fill-opacity: 1; white-space: pre;" transform="translate(0,309.05)">600</text></g><g class="ytick"><text text-anchor="end" x="79" y="6.3" style="font-family: 'Open Sans'; font-size: 18px; fill: rgb(0, 0, 0); fill-opacity: 1; white-space: pre;" transform="translate(0,272.07)">800</text></g><g class="ytick"><text text-anchor="end" x="79" y="6.3" style="font-family: 'Open Sans'; font-size: 18px; fill: rgb(0, 0, 0); fill-opacity: 1; white-space: pre;" transform="translate(0,235.09)">1000</text></g><g class="ytick"><text text-anchor="end" x="79" y="6.3" style="font-family: 'Open Sans'; font-size: 18px; fill: rgb(0, 0, 0); fill-opacity: 1; white-space: pre;" transform="translate(0,198.1)">1200</text></g><g class="ytick"><text text-anchor="end" x="79" y="6.3" style="font-family: 'Open Sans'; font-size: 18px; fill: rgb(0, 0, 0); fill-opacity: 1; white-space: pre;" transform="translate(0,161.12)">1400</text></g><g class="ytick"><text text-anchor="end" x="79" y="6.3" style="font-family: 'Open Sans'; font-size: 18px; fill: rgb(0, 0, 0); fill-opacity: 1; white-space: pre;" transform="translate(0,124.14)">1600</text></g></g><g class="overaxes-above"/></g></g><g class="polarlayer"/><g class="smithlayer"/><g class="ternarylayer"/><g class="geolayer"/><g class="funnelarealayer"/><g class="pielayer"/><g class="iciclelayer"/><g class="treemaplayer"/><g class="sunburstlayer"/><g class="glimages"/><defs id="topdefs-e19f4f"><g class="clips"/></defs><g class="layer-above"><g class="imagelayer"/><g class="shapelayer"/></g><g class="infolayer"><g class="g-gtitle"><text class="gtitle" x="35" y="50" text-anchor="start" dy="0em" style="opacity: 1; font-family: 'Open Sans'; font-size: 25px; fill: rgb(0, 0, 0); fill-opacity: 1; white-space: pre;">MultiQC/MultiQC - Pull Requests Created Over Time</text></g><g class="g-xtitle"><text class="xtitle" x="350" y="472.9" text-anchor="middle" style="opacity: 1; font-family: 'Open Sans'; font-size: 22px; fill: rgb(0, 0, 0); fill-opacity: 1; white-space: pre;">Date</text></g><g class="g-ytitle"><text class="ytitle" transform="rotate(-90,20.799999999999997,260)" x="20.799999999999997" y="260" text-anchor="middle" style="opacity: 1; font-family: 'Open Sans'; font-size: 22px; fill: rgb(0, 0, 0); fill-opacity: 1; white-space: pre;">Cumulative PRs Created</text></g></g></svg>