<svg class="main-svg" xmlns="http://www.w3.org/2000/svg" xmlns:xlink="http://www.w3.org/1999/xlink" width="700" height="500" style="" viewBox="0 0 700 500"><rect x="0" y="0" width="700" height="500" style="fill: rgb(0, 0, 0); fill-opacity: 0;"/><defs id="defs-513b1d"><g class="clips"><clipPath id="clip513b1dxyplot" class="plotclip"><rect width="540" height="320"/></clipPath><clipPath class="axesclip" id="clip513b1dx"><rect x="80" y="0" width="540" height="500"/></clipPath><clipPath class="axesclip" id="clip513b1dy"><rect x="0" y="100" width="700" height="320"/></clipPath><clipPath class="axesclip" id="clip513b1dxy"><rect x="80" y="100" width="540" height="320"/></clipPath></g><g class="gradients"/><g class="patterns"/></defs><g class="bglayer"><rect class="bg" x="80" y="100" width="540" height="320" style="fill: rgb(0, 0, 0); fill-opacity: 0; stroke-width: 0;"/></g><g class="layer-below"><g class="imagelayer"/><g class="shapelayer"/></g><g class="cartesianlayer"><g class="subplot xy"><g class="layer-subplot"><g class="shapelayer"/><g class="imagelayer"/></g><g class="minor-gridlayer"><g class="x"/><g class="y"/></g><g class="gridlayer"><g class="x"><path class="xgrid crisp" transform="translate(97.13,0)" d="M0,100v320" style="stroke: rgb(255, 255, 255); stroke-opacity: 1; stroke-width: 1px;"/><path class="xgrid crisp" transform="translate(202.03,0)" d="M0,100v320" style="stroke: rgb(255, 255, 255); stroke-opacity: 1; stroke-width: 1px;"/><path class="xgrid crisp" transform="translate(306.78,0)" d="M0,100v320" style="stroke: rgb(255, 255, 255); stroke-opacity: 1; stroke-width: 1px;"/><path class="xgrid crisp" transform="translate(411.68,0)" d="M0,100v320" style="stroke: rgb(255, 255, 255); stroke-opacity: 1; stroke-width: 1px;"/><path class="xgrid crisp" transform="translate(516.4300000000001,0)" d="M0,100v320" style="stroke: rgb(255, 255, 255); stroke-opacity: 1; stroke-width: 1px;"/></g><g class="y"><path class="ygrid crisp" transform="translate(0,381.03)" d="M80,0h540" style="stroke: rgb(255, 255, 255); stroke-opacity: 1; stroke-width: 1px;"/><path class="ygrid crisp" transform="translate(0,342.05)" d="M80,0h540" style="stroke: rgb(255, 255, 255); stroke-opacity: 1; stroke-width: 1px;"/><path class="ygrid crisp" transform="translate(0,303.08000000000004)" d="M80,0h540" style="stroke: rgb(255, 255, 255); stroke-opacity: 1; stroke-width: 1px;"/><path class="ygrid crisp" transform="translate(0,264.1)" d="M80,0h540" style="stroke: rgb(255, 255, 255); stroke-opacity: 1; stroke-width: 1px;"/><path class="ygrid crisp" transform="translate(0,225.13)" d="M80,0h540" style="stroke: rgb(255, 255, 255); stroke-opacity: 1; stroke-width: 1px;"/><path class="ygrid crisp" transform="translate(0,186.15)" d="M80,0h540" style="stroke: rgb(255, 255, 255); stroke-opacity: 1; stroke-width: 1px;"/><path class="ygrid crisp" transform="translate(0,147.18)" d="M80,0h540" style="stroke: rgb(255, 255, 255); stroke-opacity: 1; stroke-width: 1px;"/><path class="ygrid crisp" transform="translate(0,108.21000000000001)" d="M80,0h540" style="stroke: rgb(255, 255, 255); stroke-opacity: 1; stroke-width: 1px;"/></g></g><g class="zerolinelayer"><path class="yzl zl crisp" transform="translate(0,420)" d="M80,0h540" style="stroke: rgb(255, 255, 255); stroke-opacity: 1; stroke-width: 2px;"/></g><g class="layer-between"><g class="shapelayer"/><g class="imagelayer"/></g><path class="xlines-below"/><path class="ylines-below"/><g class="overlines-below"/><g class="xaxislayer-below"/><g class="yaxislayer-below"/><g class="overaxes-below"/><g class="overplot"><g class="xy" transform="translate(80,100)" clip-path="url(#clip513b1dxyplot)"><g class="scatterlayer mlayer"><g class="trace scatter trace7fd4c9" style="stroke-miterlimit: 2;"><g class="fills"><g><path class="js-fill" d="M540,320L0,320L0,316.1L0.1,320L1.04,316.1L1.73,320L1.84,316.1L1.84,320L3.12,316.1L3.87,320L4.74,316.1L4.74,320L4.84,320L5.58,316.1L5.58,320L6.18,320L7.03,316.1L7.03,320L7.61,320L9.16,316.1L9.16,320L9.81,316.1L10.03,320L11.76,316.1L11.76,320L14.63,316.1L14.63,320L22.1,316.1L22.1,320L22.3,316.1L22.3,320L23.93,316.1L23.93,312.21L24.07,316.1L25.23,320L26.95,316.1L26.95,320L28.28,312.21L28.28,316.1L28.28,320L31.14,316.1L31.14,320L31.29,320L32.54,316.1L32.54,320L33.15,320L34.05,316.1L34.05,320L34.83,316.1L34.83,320L35.34,320L35.59,316.1L35.68,320L36.89,316.1L38.31,312.21L38.75,316.1L38.87,312.21L38.87,316.1L40.18,320L40.91,316.1L40.91,320L42.64,316.1L42.64,320L43.74,316.1L43.74,320L44.23,304.41L44.34,308.31L44.88,312.21L45.32,316.1L45.77,312.21L45.78,316.1L47.05,312.21L50.94,308.31L50.94,312.21L51.23,316.1L52.04,312.21L52.95,320L54.38,316.1L54.78,320L57.96,316.1L57.96,320L57.96,316.1L59.48,312.21L59.8,316.1L60.6,312.21L61.38,308.31L61.41,312.21L61.42,308.31L61.99,320L63.86,316.1L64.16,320L64.84,316.1L65,312.21L65.98,316.1L66.16,308.31L66.29,312.21L67.13,316.1L67.44,312.21L67.44,316.1L68,312.21L68.07,304.41L68.18,320L68.27,320L68.86,316.1L69.72,312.21L69.72,316.1L70.46,308.31L70.47,312.21L71.18,308.31L75.74,304.41L76.22,300.51L77.92,320L78.93,316.1L78.93,320L79.91,316.1L81.12,312.21L81.18,316.1L82.26,308.31L82.67,304.41L83.19,300.51L83.19,304.41L83.21,308.31L84.36,300.51L84.38,304.41L85.22,300.51L85.22,304.41L85.51,308.31L86.09,304.41L86.09,308.31L86.1,304.41L87.93,308.31L88.11,304.41L88.11,308.31L89.01,304.41L89.25,308.31L89.98,304.41L90.44,300.51L91.22,304.41L91.95,300.51L92.24,304.41L94.53,300.51L94.53,304.41L95.13,300.51L95.15,304.41L96.55,308.31L97.06,304.41L97.26,308.31L97.41,304.41L97.41,308.31L98.43,304.41L98.45,281.03L99.15,300.51L99.43,304.41L99.44,308.31L99.59,300.51L100,300.51L100.59,296.62L101.31,300.51L101.49,296.62L102.02,288.82L102.19,296.62L102.28,300.51L102.91,284.92L103.03,292.72L104.01,296.62L104.45,284.92L104.45,284.92L104.99,288.82L106.05,269.33L107.01,265.44L108.05,269.33L108.34,265.44L108.47,273.23L109.06,273.23L109.19,269.33L109.49,284.92L109.62,281.03L110.28,277.13L110.79,261.54L110.79,265.44L111.18,269.33L111.22,273.23L112.07,269.33L112.2,265.44L112.22,269.33L113.52,273.23L113.64,288.82L114.22,284.92L114.23,281.03L114.24,288.82L115.35,284.92L115.35,288.82L117.52,284.92L117.53,281.03L117.53,288.82L119.53,284.92L119.55,288.82L119.55,284.92L120.62,288.82L120.67,284.92L122.54,281.03L123.38,288.82L123.39,284.92L123.54,288.82L123.71,284.92L123.71,288.82L124.55,284.92L124.88,288.82L125.58,284.92L125.61,288.82L127.26,284.92L127.29,288.82L129.15,284.92L129.26,288.82L129.65,284.92L130.14,281.03L130.26,284.92L131.16,281.03L131.16,284.92L131.58,269.33L131.72,269.33L132.11,265.44L132.47,284.92L133.46,281.03L133.57,288.82L133.75,288.82L134.46,284.92L135.45,281.03L135.56,277.13L136.14,281.03L136.32,277.13L137.16,265.44L137.18,269.33L137.5,265.44L137.72,269.33L138.17,265.44L138.18,261.54L138.18,249.85L138.33,273.23L139.61,269.33L139.73,265.44L139.74,269.33L141.19,265.44L141.96,281.03L143.19,277.13L143.6,281.03L145.22,277.13L146.31,273.23L146.31,277.13L147.65,265.44L147.65,269.33L147.91,273.23L147.93,277.13L148.34,269.33L148.34,273.23L148.67,269.33L148.67,273.23L149.67,277.13L149.84,284.92L150.56,281.03L150.65,277.13L152.27,273.23L152.81,261.54L152.82,265.44L152.82,269.33L152.87,281.03L154.69,277.13L154.79,281.03L154.83,277.13L156.43,273.23L156.45,277.13L157.82,273.23L157.82,277.13L158.25,273.23L158.7,269.33L159.4,265.44L159.43,269.33L162.31,273.23L165.38,265.44L166.12,261.54L166.9,265.44L167.61,261.54L167.62,265.44L170.32,261.54L170.78,265.44L171.39,261.54L172.62,257.64L172.87,261.54L172.87,257.64L172.91,288.82L172.91,284.92L175.32,281.03L175.34,284.92L177.69,288.82L178.8,284.92L178.8,288.82L179.44,284.92L179.47,288.82L181.7,284.92L181.86,281.03L183.25,284.92L183.27,288.82L183.86,257.64L183.94,261.54L183.94,257.64L183.97,273.23L185.51,269.33L185.84,257.64L187.52,253.74L188.02,249.85L188.03,253.74L190.25,249.85L190.74,253.74L192.08,249.85L192.38,253.74L192.68,249.85L194.89,245.95L197.9,242.05L198,245.95L198.91,242.05L199.61,245.95L199.65,238.15L199.88,242.05L200.77,245.95L201.03,261.54L201.86,265.44L201.94,269.33L202.04,261.54L205.5,257.64L206.07,261.54L206.76,257.64L206.9,253.74L209.07,249.85L212.06,245.95L213.65,242.05L213.67,238.15L215,234.26L215.79,238.15L215.81,234.26L216.11,261.54L216.12,257.64L217.11,261.54L217.54,265.44L217.55,261.54L218.7,265.44L219.17,273.23L219.55,269.33L219.56,273.23L220.1,261.54L220.14,269.33L220.71,273.23L220.74,277.13L221.65,273.23L222.84,269.33L222.85,273.23L224.85,265.44L225.14,261.54L227.52,257.64L228.65,261.54L230.25,257.64L230.74,253.74L233.06,245.95L233.07,249.85L233.93,238.15L235.78,234.26L236.07,222.56L236.6,218.67L237.68,210.87L237.73,214.77L239.99,187.49L240.07,191.38L240.07,195.28L240.23,183.59L240.82,187.49L240.93,183.59L242.24,179.69L242.39,175.79L242.66,191.38L242.66,195.28L242.83,214.77L243.11,206.97L243.61,203.08L244.67,269.33L244.91,265.44L245.09,261.54L245.1,257.64L245.71,269.33L245.8,265.44L245.99,261.54L246.82,269.33L246.93,273.23L246.94,265.44L247.38,277.13L247.69,281.03L248.1,269.33L248.13,265.44L248.69,277.13L248.93,273.23L249.08,277.13L249.24,273.23L249.94,269.33L249.97,265.44L250.79,269.33L251.29,261.54L251.93,257.64L252.81,249.85L252.81,253.74L253.68,245.95L253.68,249.85L255.16,238.15L256.11,242.05L259.78,238.15L259.88,234.26L260.14,230.36L260.45,234.26L262.05,230.36L263,222.56L263.36,218.67L263.74,214.77L265.35,210.87L265.79,199.18L266,210.87L266,214.77L267.23,195.28L269.31,191.38L269.38,183.59L270.42,179.69L272.08,171.9L272.11,175.79L272.13,203.08L272.76,187.49L273.05,183.59L273.05,187.49L273.19,183.59L275.35,179.69L277.05,175.79L277.25,171.9L279.01,168L279.01,171.9L279.02,168L279.02,171.9L279.99,168L280.18,164.1L280.86,168L281.82,183.59L282.03,187.49L283.58,183.59L284.11,187.49L285.5,179.69L286.21,175.79L286.21,179.69L287.01,175.79L287.12,168L288.28,171.9L288.85,218.67L291.43,214.77L291.92,218.67L292.31,214.77L292.33,218.67L295.17,214.77L295.88,222.56L295.92,218.67L296.03,214.77L296.03,218.67L296.29,218.67L296.98,222.56L297.16,214.77L297.16,218.67L299.53,214.77L299.55,210.87L300.34,206.97L302.38,203.08L302.91,199.18L303.07,187.49L303.11,206.97L303.47,199.18L303.93,203.08L304.41,210.87L304.63,206.97L304.89,203.08L305.7,253.74L305.93,249.85L306.92,238.15L307.55,234.26L308.56,214.77L309.53,210.87L310.43,206.97L310.53,203.08L311.39,191.38L311.43,195.28L312.4,152.41L314.62,148.51L316.55,144.62L316.55,140.72L319.96,144.62L320.03,140.72L321.31,136.82L321.73,132.92L323.76,117.33L323.76,113.44L323.9,105.64L324.29,187.49L324.61,183.59L325.05,179.69L325.07,191.38L325.32,187.49L325.48,183.59L326.51,164.1L326.63,168L329,164.1L329.5,160.21L329.79,164.1L330.76,160.21L331.15,164.1L332.32,160.21L333.78,164.1L333.81,175.79L334.47,171.9L335.19,175.79L335.63,199.18L336.05,203.08L336.19,199.18L336.5,210.87L336.7,206.97L337.09,210.87L337.65,206.97L338.48,195.28L339.38,191.38L339.6,183.59L340.25,179.69L341.12,187.49L341.53,183.59L341.53,187.49L342.24,183.59L342.52,187.49L342.52,195.28L343.09,191.38L344.44,187.49L344.65,179.69L345.09,191.38L345.11,191.38L345.11,195.28L345.76,187.49L345.98,183.59L346.77,175.79L346.79,179.69L349.89,175.79L350.28,179.69L351.67,175.79L352.12,171.9L352.12,175.79L352.88,179.69L353.17,175.79L353.25,183.59L354.01,179.69L355.13,168L355.13,171.9L355.57,164.1L356.14,160.21L356.58,168L356.6,160.21L357.13,164.1L357.13,160.21L357.73,164.1L358.46,160.21L358.6,164.1L359.29,160.21L359.85,156.31L360.06,160.21L360.46,148.51L360.52,156.31L361.3,152.41L361.35,148.51L362.18,144.62L363.29,140.72L363.39,136.82L364.1,121.23L364.47,117.33L364.59,121.23L366.32,117.33L366.61,113.44L367.68,109.54L367.84,144.62L367.95,144.62L369.43,140.72L370.38,136.82L370.38,140.72L372.24,136.82L372.24,140.72L372.67,136.82L375.11,132.92L375.11,136.82L375.79,136.82L376.4,132.92L377.16,117.33L377.22,121.23L378.42,117.33L378.52,109.54L378.96,132.92L379.33,129.03L379.56,132.92L380.53,129.03L381.36,113.44L381.58,109.54L382.17,129.03L382.28,117.33L382.47,113.44L383.19,136.82L383.43,132.92L384.07,168L384.2,164.1L384.27,168L384.27,171.9L384.9,171.9L385.04,175.79L385.06,191.38L385.44,187.49L386.19,191.38L386.2,187.49L386.24,191.38L388.71,187.49L389.32,175.79L389.35,179.69L389.59,183.59L393.17,179.69L393.19,183.59L393.91,175.79L394.82,179.69L395.96,175.79L396.89,171.9L396.89,175.79L398.75,171.9L398.89,164.1L399.92,168L400.47,160.21L400.48,156.31L400.49,140.72L404.27,144.62L405.36,129.03L407.5,125.13L408,117.33L408,121.23L408,125.13L410.11,117.33L410.56,113.44L413.36,105.64L413.55,101.74L414.13,97.85L414.13,101.74L414.3,105.64L414.9,125.13L415.04,121.23L415.65,117.33L415.69,121.23L416.01,101.74L416.42,97.85L416.61,86.15L416.81,97.85L416.81,101.74L416.82,109.54L417.46,93.95L417.59,90.05L417.88,86.15L417.98,97.85L418,101.74L418.05,97.85L418.49,113.44L418.71,113.44L418.76,109.54L418.84,105.64L418.85,121.23L419.33,113.44L419.43,117.33L419.44,121.23L419.47,113.44L419.75,113.44L420.43,109.54L420.5,105.64L420.93,129.03L420.93,125.13L421.34,121.23L421.85,93.95L422.04,136.82L422.35,132.92L422.79,109.54L422.94,125.13L422.94,129.03L422.99,136.82L423.56,125.13L423.6,129.03L424.21,125.13L424.35,136.82L424.93,117.33L425.01,113.44L425.06,117.33L425.45,90.05L425.45,90.05L425.48,86.15L425.48,78.36L425.61,144.62L425.93,129.03L426.35,125.13L426.78,117.33L426.87,125.13L427.01,129.03L427.67,121.23L427.94,125.13L428.46,136.82L428.65,129.03L428.75,132.92L429.1,125.13L429.48,144.62L429.6,140.72L429.92,129.03L430.06,148.51L430.09,144.62L430.49,140.72L431.17,160.21L431.76,156.31L432.11,160.21L432.12,152.41L432.5,148.51L432.75,129.03L433.48,132.92L433.62,152.41L433.93,125.13L434.1,132.92L434.27,136.82L434.49,132.92L434.66,144.62L435.83,140.72L435.97,148.51L436.13,140.72L436.81,136.82L436.96,140.72L437.15,132.92L437.49,129.03L437.52,140.72L437.93,132.92L438.64,129.03L439.15,125.13L439.15,129.03L439.15,132.92L439.69,125.13L439.69,121.23L439.7,117.33L439.73,132.92L439.87,121.23L440.73,117.33L440.96,105.64L441.09,121.23L441.17,125.13L441.89,156.31L442.15,148.51L442.16,144.62L442.52,140.72L442.52,148.51L442.52,152.41L442.52,148.51L442.53,160.21L443.13,156.31L443.36,152.41L443.6,156.31L443.85,140.72L443.98,144.62L444,140.72L444.45,168L444.74,152.41L444.76,148.51L444.82,140.72L444.84,168L445.45,148.51L445.45,152.41L446.17,132.92L446.44,136.82L446.98,171.9L447.15,168L447.57,171.9L448.01,152.41L448.31,156.31L448.56,152.41L448.56,156.31L449.01,148.51L449.01,148.51L450.13,144.62L450.74,136.82L450.74,140.72L451.55,136.82L451.6,132.92L451.63,164.1L452.04,160.21L452.59,164.1L452.7,168L452.87,148.51L452.87,144.62L453.29,136.82L453.33,144.62L453.55,148.51L453.57,144.62L454.3,171.9L454.3,168L454.6,171.9L454.91,160.21L455.19,168L455.51,171.9L455.87,175.79L456.19,160.21L456.21,164.1L456.61,160.21L457.71,148.51L458.05,152.41L458.07,148.51L458.21,164.1L458.64,164.1L458.94,160.21L458.95,164.1L459.22,156.31L459.47,164.1L459.78,160.21L460.09,175.79L460.35,168L460.67,171.9L461.34,164.1L461.34,168L461.59,164.1L461.76,152.41L461.77,168L461.95,160.21L462.66,164.1L463.05,160.21L463.21,175.79L463.62,171.9L463.92,168L463.93,175.79L464.22,171.9L464.51,168L465.19,164.1L465.19,168L465.35,171.9L465.37,168L465.51,187.49L465.91,183.59L466.05,187.49L466.2,175.79L466.81,183.59L466.92,187.49L467.64,168L467.64,183.59L467.65,187.49L467.65,183.59L467.79,191.38L468.38,187.49L468.63,183.59L468.63,191.38L469.37,191.38L469.4,187.49L469.94,199.18L469.94,195.28L470.24,191.38L471.08,187.49L471.21,191.38L472.01,183.59L472.02,179.69L472.11,203.08L472.67,191.38L472.82,187.49L473.56,203.08L473.56,199.18L473.64,203.08L473.96,191.38L473.97,195.28L474.53,191.38L474.53,195.28L475.27,179.69L475.28,183.59L475.55,187.49L475.88,195.28L476.03,187.49L476.1,183.59L476.72,179.69L476.97,183.59L476.97,187.49L476.99,179.69L477.01,183.59L477.97,179.69L478.04,183.59L478.58,175.79L478.59,179.69L478.74,175.79L479.72,164.1L479.72,168L479.84,171.9L480.14,164.1L481.06,168L481.14,171.9L481.69,164.1L481.69,168L481.74,164.1L482.27,183.59L482.31,183.59L482.7,179.69L482.73,187.49L483.44,171.9L483.57,168L483.74,164.1L483.74,179.69L484.04,171.9L484.05,175.79L484.71,171.9L484.71,175.79L485.08,171.9L485.08,175.79L485.3,164.1L485.32,175.79L486.01,171.9L486.15,191.38L486.76,183.59L486.78,187.49L486.8,179.69L487.45,203.08L488.23,199.18L488.63,203.08L488.66,199.18L489.32,195.28L489.88,203.08L490.66,199.18L491.1,191.38L491.51,195.28L491.6,199.18L491.96,191.38L491.96,195.28L492.02,199.18L492.05,203.08L492.07,195.28L492.75,199.18L492.76,195.28L492.76,199.18L493.18,187.49L493.24,191.38L493.94,195.28L494.07,187.49L494.57,195.28L495.44,191.38L496.32,187.49L496.32,191.38L496.32,187.49L496.36,195.28L496.92,195.28L497.81,191.38L497.92,183.59L497.93,195.28L498.08,187.49L498.92,191.38L499.52,175.79L499.85,171.9L500.37,175.79L500.55,171.9L500.55,168L501.2,152.41L501.2,175.79L501.3,171.9L501.55,168L501.84,164.1L501.84,171.9L501.84,175.79L502.44,171.9L502.68,175.79L502.8,171.9L503.12,183.59L503.78,187.49L504.26,179.69L504.38,187.49L504.39,191.38L504.39,187.49L504.78,199.18L505.07,199.18L505.23,195.28L505.85,191.38L505.94,195.28L505.96,199.18L506.16,187.49L506.31,191.38L506.96,187.49L507.82,199.18L507.86,195.28L508.1,199.18L508.54,191.38L508.81,195.28L509.15,183.59L509.23,191.38L510.02,187.49L510.41,195.28L510.48,183.59L510.83,179.69L511.41,171.9L511.43,187.49L511.53,191.38L512.15,179.69L512.73,175.79L513.5,168L513.9,171.9L513.91,175.79L514.88,171.9L515.13,179.69L515.59,164.1L515.63,175.79L515.72,171.9L516.14,175.79L516.45,171.9L517.87,168L519.05,152.41L519.16,156.31L519.16,164.1L519.33,152.41L519.37,152.41L521.62,156.31L522.02,148.51L522.05,175.79L522.33,171.9L522.33,175.79L522.33,179.69L522.45,175.79L523.18,171.9L523.47,175.79L523.48,168L523.48,171.9L524.06,168L524.19,152.41L524.47,164.1L524.91,168L525.5,152.41L525.95,148.51L526.07,152.41L526.24,144.62L526.24,152.41L528.17,148.51L528.17,152.41L529.99,148.51L531.57,129.03L531.62,125.13L531.62,121.23L531.63,132.92L532.09,129.03L532.42,125.13L533.97,117.33L534.22,113.44L534.22,117.33L534.71,105.64L535.88,101.74L536.54,86.15L536.55,82.26L536.55,86.15L537.15,62.77L537.25,62.77L537.52,58.87L537.52,62.77L537.98,43.28L538.27,43.28L538.39,39.38L538.39,43.28L539.14,31.59L539.23,35.49L540,16" style="fill: rgb(44, 160, 44); fill-opacity: 0.5; stroke-width: 0;"/></g></g><g class="errorbars"/><g class="lines"><path class="js-line" d="M0,316.1L0.1,320L1.04,316.1L1.73,320L1.84,316.1L1.84,320L3.12,316.1L3.87,320L4.74,316.1L4.74,320L4.84,320L5.58,316.1L5.58,320L6.18,320L7.03,316.1L7.03,320L7.61,320L9.16,316.1L9.16,320L9.81,316.1L10.03,320L11.76,316.1L11.76,320L14.63,316.1L14.63,320L22.1,316.1L22.1,320L22.3,316.1L22.3,320L23.93,316.1L23.93,312.21L24.07,316.1L25.23,320L26.95,316.1L26.95,320L28.28,312.21L28.28,316.1L28.28,320L31.14,316.1L31.14,320L31.29,320L32.54,316.1L32.54,320L33.15,320L34.05,316.1L34.05,320L34.83,316.1L34.83,320L35.34,320L35.59,316.1L35.68,320L36.89,316.1L38.31,312.21L38.75,316.1L38.87,312.21L38.87,316.1L40.18,320L40.91,316.1L40.91,320L42.64,316.1L42.64,320L43.74,316.1L43.74,320L44.23,304.41L44.34,308.31L44.88,312.21L45.32,316.1L45.77,312.21L45.78,316.1L47.05,312.21L50.94,308.31L50.94,312.21L51.23,316.1L52.04,312.21L52.95,320L54.38,316.1L54.78,320L57.96,316.1L57.96,320L57.96,316.1L59.48,312.21L59.8,316.1L60.6,312.21L61.38,308.31L61.41,312.21L61.42,308.31L61.99,320L63.86,316.1L64.16,320L64.84,316.1L65,312.21L65.98,316.1L66.16,308.31L66.29,312.21L67.13,316.1L67.44,312.21L67.44,316.1L68,312.21L68.07,304.41L68.18,320L68.27,320L68.86,316.1L69.72,312.21L69.72,316.1L70.46,308.31L70.47,312.21L71.18,308.31L75.74,304.41L76.22,300.51L77.92,320L78.93,316.1L78.93,320L79.91,316.1L81.12,312.21L81.18,316.1L82.26,308.31L82.67,304.41L83.19,300.51L83.19,304.41L83.21,308.31L84.36,300.51L84.38,304.41L85.22,300.51L85.22,304.41L85.51,308.31L86.09,304.41L86.09,308.31L86.1,304.41L87.93,308.31L88.11,304.41L88.11,308.31L89.01,304.41L89.25,308.31L89.98,304.41L90.44,300.51L91.22,304.41L91.95,300.51L92.24,304.41L94.53,300.51L94.53,304.41L95.13,300.51L95.15,304.41L96.55,308.31L97.06,304.41L97.26,308.31L97.41,304.41L97.41,308.31L98.43,304.41L98.45,281.03L99.15,300.51L99.43,304.41L99.44,308.31L99.59,300.51L100,300.51L100.59,296.62L101.31,300.51L101.49,296.62L102.02,288.82L102.19,296.62L102.28,300.51L102.91,284.92L103.03,292.72L104.01,296.62L104.45,284.92L104.45,284.92L104.99,288.82L106.05,269.33L107.01,265.44L108.05,269.33L108.34,265.44L108.47,273.23L109.06,273.23L109.19,269.33L109.49,284.92L109.62,281.03L110.28,277.13L110.79,261.54L110.79,265.44L111.18,269.33L111.22,273.23L112.07,269.33L112.2,265.44L112.22,269.33L113.52,273.23L113.64,288.82L114.22,284.92L114.23,281.03L114.24,288.82L115.35,284.92L115.35,288.82L117.52,284.92L117.53,281.03L117.53,288.82L119.53,284.92L119.55,288.82L119.55,284.92L120.62,288.82L120.67,284.92L122.54,281.03L123.38,288.82L123.39,284.92L123.54,288.82L123.71,284.92L123.71,288.82L124.55,284.92L124.88,288.82L125.58,284.92L125.61,288.82L127.26,284.92L127.29,288.82L129.15,284.92L129.26,288.82L129.65,284.92L130.14,281.03L130.26,284.92L131.16,281.03L131.16,284.92L131.58,269.33L131.72,269.33L132.11,265.44L132.47,284.92L133.46,281.03L133.57,288.82L133.75,288.82L134.46,284.92L135.45,281.03L135.56,277.13L136.14,281.03L136.32,277.13L137.16,265.44L137.18,269.33L137.5,265.44L137.72,269.33L138.17,265.44L138.18,261.54L138.18,249.85L138.33,273.23L139.61,269.33L139.73,265.44L139.74,269.33L141.19,265.44L141.96,281.03L143.19,277.13L143.6,281.03L145.22,277.13L146.31,273.23L146.31,277.13L147.65,265.44L147.65,269.33L147.91,273.23L147.93,277.13L148.34,269.33L148.34,273.23L148.67,269.33L148.67,273.23L149.67,277.13L149.84,284.92L150.56,281.03L150.65,277.13L152.27,273.23L152.81,261.54L152.82,265.44L152.82,269.33L152.87,281.03L154.69,277.13L154.79,281.03L154.83,277.13L156.43,273.23L156.45,277.13L157.82,273.23L157.82,277.13L158.25,273.23L158.7,269.33L159.4,265.44L159.43,269.33L162.31,273.23L165.38,265.44L166.12,261.54L166.9,265.44L167.61,261.54L167.62,265.44L170.32,261.54L170.78,265.44L171.39,261.54L172.62,257.64L172.87,261.54L172.87,257.64L172.91,288.82L172.91,284.92L175.32,281.03L175.34,284.92L177.69,288.82L178.8,284.92L178.8,288.82L179.44,284.92L179.47,288.82L181.7,284.92L181.86,281.03L183.25,284.92L183.27,288.82L183.86,257.64L183.94,261.54L183.94,257.64L183.97,273.23L185.51,269.33L185.84,257.64L187.52,253.74L188.02,249.85L188.03,253.74L190.25,249.85L190.74,253.74L192.08,249.85L192.38,253.74L192.68,249.85L194.89,245.95L197.9,242.05L198,245.95L198.91,242.05L199.61,245.95L199.65,238.15L199.88,242.05L200.77,245.95L201.03,261.54L201.86,265.44L201.94,269.33L202.04,261.54L205.5,257.64L206.07,261.54L206.76,257.64L206.9,253.74L209.07,249.85L212.06,245.95L213.65,242.05L213.67,238.15L215,234.26L215.79,238.15L215.81,234.26L216.11,261.54L216.12,257.64L217.11,261.54L217.54,265.44L217.55,261.54L218.7,265.44L219.17,273.23L219.55,269.33L219.56,273.23L220.1,261.54L220.14,269.33L220.71,273.23L220.74,277.13L221.65,273.23L222.84,269.33L222.85,273.23L224.85,265.44L225.14,261.54L227.52,257.64L228.65,261.54L230.25,257.64L230.74,253.74L233.06,245.95L233.07,249.85L233.93,238.15L235.78,234.26L236.07,222.56L236.6,218.67L237.68,210.87L237.73,214.77L239.99,187.49L240.07,191.38L240.07,195.28L240.23,183.59L240.82,187.49L240.93,183.59L242.24,179.69L242.39,175.79L242.66,191.38L242.66,195.28L242.83,214.77L243.11,206.97L243.61,203.08L244.67,269.33L244.91,265.44L245.09,261.54L245.1,257.64L245.71,269.33L245.8,265.44L245.99,261.54L246.82,269.33L246.93,273.23L246.94,265.44L247.38,277.13L247.69,281.03L248.1,269.33L248.13,265.44L248.69,277.13L248.93,273.23L249.08,277.13L249.24,273.23L249.94,269.33L249.97,265.44L250.79,269.33L251.29,261.54L251.93,257.64L252.81,249.85L252.81,253.74L253.68,245.95L253.68,249.85L255.16,238.15L256.11,242.05L259.78,238.15L259.88,234.26L260.14,230.36L260.45,234.26L262.05,230.36L263,222.56L263.36,218.67L263.74,214.77L265.35,210.87L265.79,199.18L266,210.87L266,214.77L267.23,195.28L269.31,191.38L269.38,183.59L270.42,179.69L272.08,171.9L272.11,175.79L272.13,203.08L272.76,187.49L273.05,183.59L273.05,187.49L273.19,183.59L275.35,179.69L277.05,175.79L277.25,171.9L279.01,168L279.01,171.9L279.02,168L279.02,171.9L279.99,168L280.18,164.1L280.86,168L281.82,183.59L282.03,187.49L283.58,183.59L284.11,187.49L285.5,179.69L286.21,175.79L286.21,179.69L287.01,175.79L287.12,168L288.28,171.9L288.85,218.67L291.43,214.77L291.92,218.67L292.31,214.77L292.33,218.67L295.17,214.77L295.88,222.56L295.92,218.67L296.03,214.77L296.03,218.67L296.29,218.67L296.98,222.56L297.16,214.77L297.16,218.67L299.53,214.77L299.55,210.87L300.34,206.97L302.38,203.08L302.91,199.18L303.07,187.49L303.11,206.97L303.47,199.18L303.93,203.08L304.41,210.87L304.63,206.97L304.89,203.08L305.7,253.74L305.93,249.85L306.92,238.15L307.55,234.26L308.56,214.77L309.53,210.87L310.43,206.97L310.53,203.08L311.39,191.38L311.43,195.28L312.4,152.41L314.62,148.51L316.55,144.62L316.55,140.72L319.96,144.62L320.03,140.72L321.31,136.82L321.73,132.92L323.76,117.33L323.76,113.44L323.9,105.64L324.29,187.49L324.61,183.59L325.05,179.69L325.07,191.38L325.32,187.49L325.48,183.59L326.51,164.1L326.63,168L329,164.1L329.5,160.21L329.79,164.1L330.76,160.21L331.15,164.1L332.32,160.21L333.78,164.1L333.81,175.79L334.47,171.9L335.19,175.79L335.63,199.18L336.05,203.08L336.19,199.18L336.5,210.87L336.7,206.97L337.09,210.87L337.65,206.97L338.48,195.28L339.38,191.38L339.6,183.59L340.25,179.69L341.12,187.49L341.53,183.59L341.53,187.49L342.24,183.59L342.52,187.49L342.52,195.28L343.09,191.38L344.44,187.49L344.65,179.69L345.09,191.38L345.11,191.38L345.11,195.28L345.76,187.49L345.98,183.59L346.77,175.79L346.79,179.69L349.89,175.79L350.28,179.69L351.67,175.79L352.12,171.9L352.12,175.79L352.88,179.69L353.17,175.79L353.25,183.59L354.01,179.69L355.13,168L355.13,171.9L355.57,164.1L356.14,160.21L356.58,168L356.6,160.21L357.13,164.1L357.13,160.21L357.73,164.1L358.46,160.21L358.6,164.1L359.29,160.21L359.85,156.31L360.06,160.21L360.46,148.51L360.52,156.31L361.3,152.41L361.35,148.51L362.18,144.62L363.29,140.72L363.39,136.82L364.1,121.23L364.47,117.33L364.59,121.23L366.32,117.33L366.61,113.44L367.68,109.54L367.84,144.62L367.95,144.62L369.43,140.72L370.38,136.82L370.38,140.72L372.24,136.82L372.24,140.72L372.67,136.82L375.11,132.92L375.11,136.82L375.79,136.82L376.4,132.92L377.16,117.33L377.22,121.23L378.42,117.33L378.52,109.54L378.96,132.92L379.33,129.03L379.56,132.92L380.53,129.03L381.36,113.44L381.58,109.54L382.17,129.03L382.28,117.33L382.47,113.44L383.19,136.82L383.43,132.92L384.07,168L384.2,164.1L384.27,168L384.27,171.9L384.9,171.9L385.04,175.79L385.06,191.38L385.44,187.49L386.19,191.38L386.2,187.49L386.24,191.38L388.71,187.49L389.32,175.79L389.35,179.69L389.59,183.59L393.17,179.69L393.19,183.59L393.91,175.79L394.82,179.69L395.96,175.79L396.89,171.9L396.89,175.79L398.75,171.9L398.89,164.1L399.92,168L400.47,160.21L400.48,156.31L400.49,140.72L404.27,144.62L405.36,129.03L407.5,125.13L408,117.33L408,121.23L408,125.13L410.11,117.33L410.56,113.44L413.36,105.64L413.55,101.74L414.13,97.85L414.13,101.74L414.3,105.64L414.9,125.13L415.04,121.23L415.65,117.33L415.69,121.23L416.01,101.74L416.42,97.85L416.61,86.15L416.81,97.85L416.81,101.74L416.82,109.54L417.46,93.95L417.59,90.05L417.88,86.15L417.98,97.85L418,101.74L418.05,97.85L418.49,113.44L418.71,113.44L418.76,109.54L418.84,105.64L418.85,121.23L419.33,113.44L419.43,117.33L419.44,121.23L419.47,113.44L419.75,113.44L420.43,109.54L420.5,105.64L420.93,129.03L420.93,125.13L421.34,121.23L421.85,93.95L422.04,136.82L422.35,132.92L422.79,109.54L422.94,125.13L422.94,129.03L422.99,136.82L423.56,125.13L423.6,129.03L424.21,125.13L424.35,136.82L424.93,117.33L425.01,113.44L425.06,117.33L425.45,90.05L425.45,90.05L425.48,86.15L425.48,78.36L425.61,144.62L425.93,129.03L426.35,125.13L426.78,117.33L426.87,125.13L427.01,129.03L427.67,121.23L427.94,125.13L428.46,136.82L428.65,129.03L428.75,132.92L429.1,125.13L429.48,144.62L429.6,140.72L429.92,129.03L430.06,148.51L430.09,144.62L430.49,140.72L431.17,160.21L431.76,156.31L432.11,160.21L432.12,152.41L432.5,148.51L432.75,129.03L433.48,132.92L433.62,152.41L433.93,125.13L434.1,132.92L434.27,136.82L434.49,132.92L434.66,144.62L435.83,140.72L435.97,148.51L436.13,140.72L436.81,136.82L436.96,140.72L437.15,132.92L437.49,129.03L437.52,140.72L437.93,132.92L438.64,129.03L439.15,125.13L439.15,129.03L439.15,132.92L439.69,125.13L439.69,121.23L439.7,117.33L439.73,132.92L439.87,121.23L440.73,117.33L440.96,105.64L441.09,121.23L441.17,125.13L441.89,156.31L442.15,148.51L442.16,144.62L442.52,140.72L442.52,148.51L442.52,152.41L442.52,148.51L442.53,160.21L443.13,156.31L443.36,152.41L443.6,156.31L443.85,140.72L443.98,144.62L444,140.72L444.45,168L444.74,152.41L444.76,148.51L444.82,140.72L444.84,168L445.45,148.51L445.45,152.41L446.17,132.92L446.44,136.82L446.98,171.9L447.15,168L447.57,171.9L448.01,152.41L448.31,156.31L448.56,152.41L448.56,156.31L449.01,148.51L449.01,148.51L450.13,144.62L450.74,136.82L450.74,140.72L451.55,136.82L451.6,132.92L451.63,164.1L452.04,160.21L452.59,164.1L452.7,168L452.87,148.51L452.87,144.62L453.29,136.82L453.33,144.62L453.55,148.51L453.57,144.62L454.3,171.9L454.3,168L454.6,171.9L454.91,160.21L455.19,168L455.51,171.9L455.87,175.79L456.19,160.21L456.21,164.1L456.61,160.21L457.71,148.51L458.05,152.41L458.07,148.51L458.21,164.1L458.64,164.1L458.94,160.21L458.95,164.1L459.22,156.31L459.47,164.1L459.78,160.21L460.09,175.79L460.35,168L460.67,171.9L461.34,164.1L461.34,168L461.59,164.1L461.76,152.41L461.77,168L461.95,160.21L462.66,164.1L463.05,160.21L463.21,175.79L463.62,171.9L463.92,168L463.93,175.79L464.22,171.9L464.51,168L465.19,164.1L465.19,168L465.35,171.9L465.37,168L465.51,187.49L465.91,183.59L466.05,187.49L466.2,175.79L466.81,183.59L466.92,187.49L467.64,168L467.64,183.59L467.65,187.49L467.65,183.59L467.79,191.38L468.38,187.49L468.63,183.59L468.63,191.38L469.37,191.38L469.4,187.49L469.94,199.18L469.94,195.28L470.24,191.38L471.08,187.49L471.21,191.38L472.01,183.59L472.02,179.69L472.11,203.08L472.67,191.38L472.82,187.49L473.56,203.08L473.56,199.18L473.64,203.08L473.96,191.38L473.97,195.28L474.53,191.38L474.53,195.28L475.27,179.69L475.28,183.59L475.55,187.49L475.88,195.28L476.03,187.49L476.1,183.59L476.72,179.69L476.97,183.59L476.97,187.49L476.99,179.69L477.01,183.59L477.97,179.69L478.04,183.59L478.58,175.79L478.59,179.69L478.74,175.79L479.72,164.1L479.72,168L479.84,171.9L480.14,164.1L481.06,168L481.14,171.9L481.69,164.1L481.69,168L481.74,164.1L482.27,183.59L482.31,183.59L482.7,179.69L482.73,187.49L483.44,171.9L483.57,168L483.74,164.1L483.74,179.69L484.04,171.9L484.05,175.79L484.71,171.9L484.71,175.79L485.08,171.9L485.08,175.79L485.3,164.1L485.32,175.79L486.01,171.9L486.15,191.38L486.76,183.59L486.78,187.49L486.8,179.69L487.45,203.08L488.23,199.18L488.63,203.08L488.66,199.18L489.32,195.28L489.88,203.08L490.66,199.18L491.1,191.38L491.51,195.28L491.6,199.18L491.96,191.38L491.96,195.28L492.02,199.18L492.05,203.08L492.07,195.28L492.75,199.18L492.76,195.28L492.76,199.18L493.18,187.49L493.24,191.38L493.94,195.28L494.07,187.49L494.57,195.28L495.44,191.38L496.32,187.49L496.32,191.38L496.32,187.49L496.36,195.28L496.92,195.28L497.81,191.38L497.92,183.59L497.93,195.28L498.08,187.49L498.92,191.38L499.52,175.79L499.85,171.9L500.37,175.79L500.55,171.9L500.55,168L501.2,152.41L501.2,175.79L501.3,171.9L501.55,168L501.84,164.1L501.84,171.9L501.84,175.79L502.44,171.9L502.68,175.79L502.8,171.9L503.12,183.59L503.78,187.49L504.26,179.69L504.38,187.49L504.39,191.38L504.39,187.49L504.78,199.18L505.07,199.18L505.23,195.28L505.85,191.38L505.94,195.28L505.96,199.18L506.16,187.49L506.31,191.38L506.96,187.49L507.82,199.18L507.86,195.28L508.1,199.18L508.54,191.38L508.81,195.28L509.15,183.59L509.23,191.38L510.02,187.49L510.41,195.28L510.48,183.59L510.83,179.69L511.41,171.9L511.43,187.49L511.53,191.38L512.15,179.69L512.73,175.79L513.5,168L513.9,171.9L513.91,175.79L514.88,171.9L515.13,179.69L515.59,164.1L515.63,175.79L515.72,171.9L516.14,175.79L516.45,171.9L517.87,168L519.05,152.41L519.16,156.31L519.16,164.1L519.33,152.41L519.37,152.41L521.62,156.31L522.02,148.51L522.05,175.79L522.33,171.9L522.33,175.79L522.33,179.69L522.45,175.79L523.18,171.9L523.47,175.79L523.48,168L523.48,171.9L524.06,168L524.19,152.41L524.47,164.1L524.91,168L525.5,152.41L525.95,148.51L526.07,152.41L526.24,144.62L526.24,152.41L528.17,148.51L528.17,152.41L529.99,148.51L531.57,129.03L531.62,125.13L531.62,121.23L531.63,132.92L532.09,129.03L532.42,125.13L533.97,117.33L534.22,113.44L534.22,117.33L534.71,105.64L535.88,101.74L536.54,86.15L536.55,82.26L536.55,86.15L537.15,62.77L537.25,62.77L537.52,58.87L537.52,62.77L537.98,43.28L538.27,43.28L538.39,39.38L538.39,43.28L539.14,31.59L539.23,35.49L540,16" style="vector-effect: none; fill: none; stroke: rgb(44, 160, 44); stroke-opacity: 1; stroke-width: 2px; opacity: 1;"/></g><g class="points"/><g class="text"/></g></g></g></g><g class="zerolinelayer-above"/><path class="xlines-above crisp" d="M0,0" style="fill: none;"/><path class="ylines-above crisp" d="M0,0" style="fill: none;"/><g class="overlines-above"/><g class="xaxislayer-above"><g class="xtick"><text text-anchor="middle" x="0" y="439" transform="translate(97.13,0)" style="font-family: 'Open Sans'; font-size: 18px; fill: rgb(255, 255, 255); fill-opacity: 1; white-space: pre;">2016</text></g><g class="xtick"><text text-anchor="middle" x="0" y="439" style="font-family: 'Open Sans'; font-size: 18px; fill: rgb(255, 255, 255); fill-opacity: 1; white-space: pre;" transform="translate(202.03,0)">2018</text></g><g class="xtick"><text text-anchor="middle" x="0" y="439" style="font-family: 'Open Sans'; font-size: 18px; fill: rgb(255, 255, 255); fill-opacity: 1; white-space: pre;" transform="translate(306.78,0)">2020</text></g><g class="xtick"><text text-anchor="middle" x="0" y="439" style="font-family: 'Open Sans'; font-size: 18px; fill: rgb(255, 255, 255); fill-opacity: 1; white-space: pre;" transform="translate(411.68,0)">2022</text></g><g class="xtick"><text text-anchor="middle" x="0" y="439" style="font-family: 'Open Sans'; font-size: 18px; fill: rgb(255, 255, 255); fill-opacity: 1; white-space: pre;" transform="translate(516.4300000000001,0)">2024</text></g></g><g class="yaxislayer-above"><g class="ytick"><text text-anchor="end" x="79" y="6.3" transform="translate(0,420)" style="font-family: 'Open Sans'; font-size: 18px; fill: rgb(255, 255, 255); fill-opacity: 1; white-space: pre;">0</text></g><g class="ytick"><text text-anchor="end" x="79" y="6.3" style="font-family: 'Open Sans'; font-size: 18px; fill: rgb(255, 255, 255); fill-opacity: 1; white-space: pre;" transform="translate(0,381.03)">10</text></g><g class="ytick"><text text-anchor="end" x="79" y="6.3" style="font-family: 'Open Sans'; font-size: 18px; fill: rgb(255, 255, 255); fill-opacity: 1; white-space: pre;" transform="translate(0,342.05)">20</text></g><g class="ytick"><text text-anchor="end" x="79" y="6.3" style="font-family: 'Open Sans'; font-size: 18px; fill: rgb(255, 255, 255); fill-opacity: 1; white-space: pre;" transform="translate(0,303.08000000000004)">30</text></g><g class="ytick"><text text-anchor="end" x="79" y="6.3" style="font-family: 'Open Sans'; font-size: 18px; fill: rgb(255, 255, 255); fill-opacity: 1; white-space: pre;" transform="translate(0,264.1)">40</text></g><g class="ytick"><text text-anchor="end" x="79" y="6.3" style="font-family: 'Open Sans'; font-size: 18px; fill: rgb(255, 255, 255); fill-opacity: 1; white-space: pre;" transform="translate(0,225.13)">50</text></g><g class="ytick"><text text-anchor="end" x="79" y="6.3" style="font-family: 'Open Sans'; font-size: 18px; fill: rgb(255, 255, 255); fill-opacity: 1; white-space: pre;" transform="translate(0,186.15)">60</text></g><g class="ytick"><text text-anchor="end" x="79" y="6.3" style="font-family: 'Open Sans'; font-size: 18px; fill: rgb(255, 255, 255); fill-opacity: 1; white-space: pre;" transform="translate(0,147.18)">70</text></g><g class="ytick"><text text-anchor="end" x="79" y="6.3" style="font-family: 'Open Sans'; font-size: 18px; fill: rgb(255, 255, 255); fill-opacity: 1; white-space: pre;" transform="translate(0,108.21000000000001)">80</text></g></g><g class="overaxes-above"/></g></g><g class="polarlayer"/><g class="smithlayer"/><g class="ternarylayer"/><g class="geolayer"/><g class="funnelarealayer"/><g class="pielayer"/><g class="iciclelayer"/><g class="treemaplayer"/><g class="sunburstlayer"/><g class="glimages"/><defs id="topdefs-513b1d"><g class="clips"/></defs><g class="layer-above"><g class="imagelayer"/><g class="shapelayer"/></g><g class="infolayer"><g class="g-gtitle"><text class="gtitle" x="35" y="50" text-anchor="start" dy="0em" style="opacity: 1; font-family: 'Open Sans'; font-size: 25px; fill: rgb(255, 255, 255); fill-opacity: 1; white-space: pre;">MultiQC/MultiQC - Open Pull Requests Over Time</text></g><g class="g-xtitle"><text class="xtitle" x="350" y="472.9" text-anchor="middle" style="opacity: 1; font-family: 'Open Sans'; font-size: 22px; fill: rgb(255, 255, 255); fill-opacity: 1; white-space: pre;">Date</text></g><g class="g-ytitle"><text class="ytitle" transform="rotate(-90,38.8,260)" x="38.8" y="260" text-anchor="middle" style="opacity: 1; font-family: 'Open Sans'; font-size: 22px; fill: rgb(255, 255, 255); fill-opacity: 1; white-space: pre;">Number of Open PRs</text></g></g></svg>