<svg class="main-svg" xmlns="http://www.w3.org/2000/svg" xmlns:xlink="http://www.w3.org/1999/xlink" width="700" height="500" style="" viewBox="0 0 700 500"><rect x="0" y="0" width="700" height="500" style="fill: rgb(0, 0, 0); fill-opacity: 0;"/><defs id="defs-953e0a"><g class="clips"><clipPath id="clip953e0axyplot" class="plotclip"><rect width="540" height="320"/></clipPath><clipPath class="axesclip" id="clip953e0ax"><rect x="80" y="0" width="540" height="500"/></clipPath><clipPath class="axesclip" id="clip953e0ay"><rect x="0" y="100" width="700" height="320"/></clipPath><clipPath class="axesclip" id="clip953e0axy"><rect x="80" y="100" width="540" height="320"/></clipPath></g><g class="gradients"/><g class="patterns"/></defs><g class="bglayer"><rect class="bg" x="80" y="100" width="540" height="320" style="fill: rgb(0, 0, 0); fill-opacity: 0; stroke-width: 0;"/></g><g class="layer-below"><g class="imagelayer"/><g class="shapelayer"/></g><g class="cartesianlayer"><g class="subplot xy"><g class="layer-subplot"><g class="shapelayer"/><g class="imagelayer"/></g><g class="minor-gridlayer"><g class="x"/><g class="y"/></g><g class="gridlayer"><g class="x"><path class="xgrid crisp" transform="translate(96.99,0)" d="M0,100v320" style="stroke: rgb(255, 255, 255); stroke-opacity: 1; stroke-width: 1px;"/><path class="xgrid crisp" transform="translate(201,0)" d="M0,100v320" style="stroke: rgb(255, 255, 255); stroke-opacity: 1; stroke-width: 1px;"/><path class="xgrid crisp" transform="translate(304.87,0)" d="M0,100v320" style="stroke: rgb(255, 255, 255); stroke-opacity: 1; stroke-width: 1px;"/><path class="xgrid crisp" transform="translate(408.89,0)" d="M0,100v320" style="stroke: rgb(255, 255, 255); stroke-opacity: 1; stroke-width: 1px;"/><path class="xgrid crisp" transform="translate(512.76,0)" d="M0,100v320" style="stroke: rgb(255, 255, 255); stroke-opacity: 1; stroke-width: 1px;"/><path class="xgrid crisp" transform="translate(616.77,0)" d="M0,100v320" style="stroke: rgb(255, 255, 255); stroke-opacity: 1; stroke-width: 1px;"/></g><g class="y"><path class="ygrid crisp" transform="translate(0,350.11)" d="M80,0h540" style="stroke: rgb(255, 255, 255); stroke-opacity: 1; stroke-width: 1px;"/><path class="ygrid crisp" transform="translate(0,280.23)" d="M80,0h540" style="stroke: rgb(255, 255, 255); stroke-opacity: 1; stroke-width: 1px;"/><path class="ygrid crisp" transform="translate(0,210.34)" d="M80,0h540" style="stroke: rgb(255, 255, 255); stroke-opacity: 1; stroke-width: 1px;"/><path class="ygrid crisp" transform="translate(0,140.46)" d="M80,0h540" style="stroke: rgb(255, 255, 255); stroke-opacity: 1; stroke-width: 1px;"/></g></g><g class="zerolinelayer"><path class="yzl zl crisp" transform="translate(0,420)" d="M80,0h540" style="stroke: rgb(255, 255, 255); stroke-opacity: 1; stroke-width: 2px;"/></g><g class="layer-between"><g class="shapelayer"/><g class="imagelayer"/></g><path class="xlines-below"/><path class="ylines-below"/><g class="overlines-below"/><g class="xaxislayer-below"/><g class="yaxislayer-below"/><g class="overaxes-below"/><g class="overplot"><g class="xy" transform="translate(80,100)" clip-path="url(#clip953e0axyplot)"><g class="scatterlayer mlayer"><g class="trace scatter tracee73c6a" style="stroke-miterlimit: 2;"><g class="fills"><g><path class="js-fill" d="M540,320L0,320L0,316.51L0.1,320L1.03,316.51L1.72,320L1.82,316.51L1.82,320L3.09,316.51L3.84,320L4.7,316.51L4.7,320L4.8,320L5.54,316.51L5.54,320L6.13,320L6.97,316.51L6.97,320L7.55,320L9.09,316.51L9.09,320L9.73,316.51L9.95,320L11.66,316.51L11.66,320L14.51,316.51L14.51,320L21.91,316.51L21.91,320L22.11,316.51L22.11,320L23.73,316.51L23.73,313.01L23.87,316.51L25.01,320L26.72,316.51L26.72,320L28.04,313.01L28.04,316.51L28.04,320L30.88,316.51L30.88,320L31.02,320L32.27,316.51L32.27,320L32.87,320L33.76,316.51L33.76,320L34.54,316.51L34.54,320L35.29,316.51L35.38,320L37.99,313.01L38.42,316.51L38.54,313.01L38.54,316.51L39.84,320L40.57,316.51L40.57,320L42.28,316.51L42.28,320L43.37,316.51L43.37,320L43.86,306.02L43.97,309.52L44.5,313.01L44.94,316.51L45.38,313.01L45.39,316.51L46.65,313.01L50.51,309.52L50.51,313.01L50.8,316.51L51.6,313.01L52.51,320L53.92,316.51L54.32,320L57.47,316.51L57.48,320L57.48,316.51L58.98,313.01L59.3,316.51L60.09,313.01L60.86,309.52L60.9,313.01L60.9,309.52L61.47,320L63.32,316.51L63.62,320L64.3,316.51L64.45,313.01L65.42,316.51L65.6,309.52L65.73,313.01L66.56,316.51L66.87,313.01L66.87,316.51L67.42,313.01L67.5,306.02L67.61,320L67.69,320L68.28,316.51L69.13,313.01L69.14,316.51L69.87,309.52L69.87,313.01L70.58,309.52L75.1,306.02L75.58,302.53L77.27,320L78.27,316.51L78.27,320L79.24,316.51L80.44,313.01L80.5,316.51L81.56,309.52L81.98,306.02L82.49,302.53L82.49,306.02L82.51,309.52L83.65,302.53L83.67,306.02L84.5,302.53L84.5,306.02L84.79,309.52L85.37,306.02L85.37,309.52L85.37,306.02L87.19,309.52L87.37,306.02L87.37,309.52L88.26,306.02L88.5,309.52L89.22,306.02L89.68,302.53L90.45,306.02L91.17,302.53L91.47,306.02L93.73,302.53L93.74,306.02L94.33,302.53L94.35,306.02L95.73,309.52L96.24,306.02L96.44,309.52L96.59,306.02L96.59,309.52L97.6,306.02L97.62,285.06L98.31,299.03L98.32,302.53L98.6,309.52L98.78,306.02L99.15,302.53L99.74,299.03L100.28,302.53L100.91,295.54L101.16,292.05L101.42,302.53L101.73,292.05L102.04,288.55L102.17,299.03L102.17,295.54L103.13,299.03L103.57,288.55L103.57,288.55L104.1,292.05L105.16,274.57L106.11,271.08L107.14,274.57L107.42,271.08L108.14,278.07L108.14,278.07L108.27,274.57L108.57,288.55L108.7,285.06L109.35,281.56L109.85,267.59L109.86,271.08L110.24,274.57L110.28,278.07L111.13,274.57L111.26,271.08L111.27,274.57L112.56,278.07L112.68,292.05L113.26,288.55L113.27,285.06L113.28,292.05L114.38,288.55L114.38,292.05L116.53,288.55L116.54,285.06L116.54,292.05L118.52,288.55L118.54,292.05L118.54,288.55L119.6,292.05L119.66,288.55L121.51,285.06L122.35,292.05L122.35,288.55L122.5,292.05L122.66,288.55L122.67,292.05L123.5,288.55L123.83,292.05L124.53,288.55L124.55,292.05L126.19,288.55L126.21,292.05L128.06,288.55L128.17,292.05L128.56,288.55L129.04,285.06L129.17,288.55L130.06,285.06L130.06,288.55L130.47,274.57L130.61,274.57L131,271.08L131.35,288.55L131.35,288.55L132.33,285.06L132.63,292.05L133.33,288.55L134.31,285.06L134.42,281.56L134.99,285.06L135.17,281.56L135.27,278.07L136,271.08L136.03,274.57L136.34,271.08L136.56,274.57L137.01,271.08L137.02,267.59L137.02,257.1L137.17,278.07L138.44,274.57L138.55,271.08L138.57,274.57L140,271.08L140.77,285.06L141.98,281.56L142.39,285.06L143.99,281.56L145.08,278.07L145.08,281.56L146.4,271.08L146.41,274.57L146.66,278.07L146.69,281.56L147.09,274.57L147.09,278.07L147.42,274.57L147.42,278.07L148.41,281.56L148.58,288.55L149.29,285.06L149.38,281.56L150.99,278.07L151.52,267.59L151.53,271.08L151.54,274.57L151.59,285.06L153.39,281.56L153.48,285.06L153.53,281.56L155.11,278.07L155.13,281.56L156.49,278.07L156.49,281.56L156.92,278.07L157.37,274.57L158.05,271.08L158.09,274.57L160.94,278.07L163.98,271.08L164.72,267.59L165.49,271.08L166.2,267.59L166.21,271.08L168.88,267.59L169.34,271.08L169.95,267.59L171.17,264.09L171.42,267.59L171.42,264.09L171.45,292.05L171.46,288.55L173.85,285.06L173.86,288.55L176.2,292.05L177.3,288.55L177.3,292.05L177.93,288.55L177.96,292.05L180.17,288.55L180.33,285.06L181.71,288.55L181.72,292.05L182.31,264.09L182.43,278.07L183.94,274.57L184.28,264.09L185.94,260.6L186.44,257.1L186.45,260.6L188.65,257.1L189.13,260.6L190.46,257.1L190.76,260.6L191.06,257.1L193.24,253.61L196.23,250.11L196.33,253.61L197.24,250.11L197.93,253.61L197.97,246.62L198.19,250.11L199.08,253.61L199.33,267.59L200.16,271.08L200.24,274.57L200.33,267.59L203.77,264.09L204.33,267.59L205.02,264.09L205.16,260.6L207.31,257.1L210.27,253.61L211.85,250.11L211.87,246.62L213.19,243.13L213.97,246.62L213.99,243.13L214.29,267.59L214.3,264.09L215.28,267.59L215.71,271.08L215.72,267.59L216.86,271.08L217.33,278.07L217.7,274.57L217.72,278.07L218.24,267.59L218.28,274.57L218.85,278.07L218.88,281.56L219.79,278.07L220.96,274.57L220.97,278.07L222.96,271.08L223.24,267.59L225.6,264.09L226.73,267.59L228.31,264.09L228.79,260.6L231.1,253.61L231.11,257.1L231.96,246.62L233.79,243.13L234.08,232.64L234.61,229.15L235.68,222.16L235.72,225.66L237.97,201.2L238.05,204.69L238.05,208.18L238.21,197.7L238.8,201.2L238.9,197.7L240.2,194.21L240.35,190.71L240.62,204.69L240.62,208.18L240.79,225.66L241.07,218.67L241.56,215.17L242.61,274.57L242.85,271.08L243.03,267.59L243.04,264.09L243.64,274.57L243.73,271.08L243.92,267.59L244.85,278.07L244.86,274.57L244.86,271.08L245.6,285.06L245.85,281.56L245.85,285.06L246.04,271.08L246.59,281.56L246.84,278.07L246.99,281.56L247.14,278.07L247.83,274.57L247.87,271.08L248.68,274.57L249.18,267.59L249.81,264.09L250.68,257.1L250.68,260.6L251.54,253.61L251.54,257.1L253.01,246.62L253.96,250.11L257.6,246.62L257.69,243.13L257.94,239.63L258.25,243.13L259.85,239.63L260.78,232.64L261.14,229.15L261.52,225.66L263.11,222.16L263.56,211.68L263.76,222.16L263.76,225.66L264.98,208.18L267.05,204.69L267.11,197.7L268.14,194.21L269.79,187.22L269.82,190.71L269.84,215.17L270.46,201.2L270.75,197.7L270.75,201.2L270.89,197.7L273.03,194.21L274.72,190.71L274.91,187.22L276.66,183.72L276.66,187.22L276.67,183.72L276.67,187.22L277.63,183.72L277.82,180.23L278.49,183.72L279.45,197.7L279.65,201.2L281.2,197.7L281.72,201.2L283.1,194.21L283.8,190.71L283.8,194.21L284.59,190.71L284.7,183.72L285.85,187.22L286.42,229.15L288.98,225.66L289.46,229.15L289.85,225.66L289.87,229.15L292.69,225.66L293.39,232.64L293.43,229.15L293.53,225.66L293.79,229.15L294.48,232.64L294.66,225.66L294.66,229.15L297.01,225.66L297.03,222.16L297.81,218.67L299.84,215.17L300.36,211.68L300.52,201.2L300.56,218.67L300.92,211.68L301.37,215.17L301.84,222.16L302.07,218.67L302.33,215.17L302.99,257.1L303.12,260.6L304.33,246.62L304.96,243.13L305.96,225.66L306.92,222.16L307.82,218.67L307.92,215.17L308.76,204.69L308.81,208.18L309.77,169.75L311.97,166.25L313.88,162.76L313.88,159.26L317.26,162.76L317.34,159.26L318.6,155.77L319.02,152.28L321.03,138.3L321.03,134.8L321.17,127.82L321.56,201.2L321.88,197.7L322.32,194.21L322.33,204.69L322.59,201.2L322.74,197.7L323.76,180.23L323.88,183.72L326.23,180.23L326.72,176.74L327.02,180.23L327.97,176.74L328.36,180.23L329.52,176.74L330.97,180.23L331,190.71L331.65,187.22L332.36,190.71L332.8,211.68L333.22,215.17L333.36,211.68L333.66,222.16L333.86,218.67L334.25,222.16L334.81,218.67L335.63,208.18L336.52,204.69L336.74,197.7L337.39,194.21L338.24,201.2L338.65,197.7L338.65,201.2L339.36,197.7L339.64,201.2L339.64,208.18L340.2,204.69L341.54,201.2L341.75,194.21L342.18,204.69L342.2,204.69L342.2,208.18L342.85,201.2L343.06,197.7L343.85,190.71L343.87,194.21L346.94,190.71L347.33,194.21L348.71,190.71L349.15,187.22L349.16,190.71L349.91,194.21L350.2,190.71L350.28,197.7L351.03,194.21L352.14,183.72L352.14,187.22L352.58,180.23L353.14,176.74L353.58,183.72L353.6,176.74L354.12,180.23L354.71,176.74L354.72,180.23L355.44,176.74L355.58,180.23L356.26,176.74L356.82,173.24L357.03,176.74L357.42,166.25L357.48,173.24L358.26,169.75L358.31,166.25L359.13,162.76L360.23,159.26L360.33,155.77L361.04,141.79L361.4,138.3L361.52,141.79L363.23,138.3L363.52,134.8L364.59,131.31L364.74,162.76L364.86,162.76L366.32,159.26L367.26,155.77L367.26,159.26L369.1,155.77L369.11,159.26L369.53,155.77L371.95,152.28L371.95,155.77L372.63,155.77L373.23,152.28L373.98,138.3L374.05,141.79L375.23,138.3L375.33,131.31L375.77,152.28L376.14,148.78L376.36,152.28L377.33,148.78L378.15,134.8L378.37,131.31L378.95,148.78L379.06,138.3L379.25,134.8L379.96,155.77L380.2,152.28L381.03,187.22L381.11,183.72L381.82,204.69L382.19,201.2L382.99,204.69L385.43,201.2L386.05,190.71L386.07,194.21L386.31,197.7L389.86,194.21L389.88,197.7L390.6,190.71L391.5,194.21L392.62,190.71L393.54,187.22L393.55,190.71L395.39,187.22L395.54,180.23L396.56,183.72L397.11,173.24L397.11,169.75L397.12,159.26L400.87,162.76L401.95,148.78L404.07,145.29L404.56,138.3L404.56,141.79L404.56,145.29L406.65,138.3L407.1,134.8L409.87,127.82L410.07,124.32L410.64,120.83L410.64,124.32L410.81,127.82L411.41,145.29L411.54,141.79L412.15,138.3L412.19,141.79L412.51,124.32L412.92,120.83L413.1,110.34L413.3,120.83L413.3,124.32L413.31,131.31L413.94,117.33L414.07,113.84L414.36,110.34L414.46,120.83L414.48,124.32L414.53,120.83L414.96,134.8L415.23,131.31L415.31,127.82L415.9,141.79L415.95,138.3L416.21,134.8L416.94,131.31L416.96,127.82L417.38,148.78L417.87,141.79L417.9,138.3L418.3,117.33L418.48,155.77L418.79,152.28L419.23,131.31L419.38,145.29L419.38,148.78L419.43,155.77L420,145.29L420.04,148.78L420.64,145.29L420.78,155.77L421.35,138.3L421.43,134.8L421.49,138.3L421.86,117.33L421.86,113.84L421.9,103.36L422.03,162.76L422.35,148.78L422.76,145.29L423.18,138.3L423.28,145.29L423.42,148.78L424.07,141.79L424.33,145.29L424.85,155.77L425.04,148.78L425.14,152.28L425.48,145.29L425.86,162.76L425.99,159.26L425.99,166.25L426.3,148.78L426.46,162.76L426.87,159.26L427.53,176.74L428.13,173.24L428.13,176.74L428.88,152.28L429.11,148.78L429.83,155.77L429.83,159.26L429.97,169.75L430.28,145.29L430.44,152.28L430.61,155.77L430.83,152.28L431,162.76L432.16,159.26L432.3,166.25L432.46,159.26L433.13,155.77L433.28,159.26L433.46,152.28L433.81,148.78L433.84,159.26L434.24,152.28L434.94,148.78L435.45,145.29L435.45,148.78L435.45,152.28L435.99,145.29L435.99,141.79L435.99,138.3L436.03,152.28L436.17,141.79L437.02,138.3L437.25,127.82L437.38,141.79L437.46,145.29L438.17,173.24L438.43,166.25L438.43,162.76L438.79,159.26L438.79,166.25L438.8,169.75L438.8,166.25L438.8,176.74L439.4,173.24L439.62,169.75L439.87,173.24L440.12,159.26L440.24,162.76L440.26,159.26L440.71,183.72L441.01,166.25L441.07,162.76L441.07,159.26L441.09,183.72L441.79,166.25L441.94,162.76L442.07,169.75L442.41,152.28L442.68,155.77L443.22,187.22L443.38,183.72L443.8,187.22L444.24,169.75L444.53,173.24L444.78,169.75L444.78,173.24L445.23,166.25L445.23,166.25L446.34,162.76L446.94,155.77L446.94,159.26L447.75,155.77L447.8,152.28L447.82,180.23L448.23,176.74L448.78,180.23L448.89,183.72L449.05,166.25L449.06,162.76L449.47,155.77L449.52,162.76L449.73,166.25L449.75,162.76L450.47,187.22L450.47,183.72L450.77,187.22L451.08,176.74L451.36,183.72L451.67,187.22L452.03,190.71L452.37,176.74L452.37,180.23L452.77,176.74L453.86,166.25L454.19,169.75L454.21,166.25L454.35,180.23L454.78,180.23L455.07,176.74L455.09,180.23L455.36,173.24L455.6,180.23L455.91,176.74L456.22,190.71L456.47,183.72L456.79,187.22L457.45,180.23L457.45,183.72L457.7,180.23L457.87,169.75L457.88,183.72L458.06,176.74L458.77,180.23L458.77,176.74L459.31,190.71L459.72,187.22L460.01,183.72L460.03,190.71L460.31,187.22L460.6,183.72L461.27,180.23L461.27,183.72L461.44,187.22L461.45,183.72L461.59,201.2L462.13,197.7L462.2,194.21L462.28,190.71L462.86,201.2L462.88,197.7L462.99,201.2L463.7,183.72L463.7,197.7L463.71,201.2L463.71,197.7L463.85,204.69L464.43,201.2L464.69,197.7L464.69,204.69L465.44,201.2L465.55,204.69L465.98,211.68L466.28,204.69L467.11,201.2L467.24,204.69L467.9,201.2L468.05,194.21L468.1,211.68L468.14,211.68L468.14,215.17L468.84,201.2L468.85,211.68L468.85,215.17L469.54,208.18L469.57,211.68L469.65,215.17L469.97,204.69L469.98,208.18L470.53,204.69L470.53,208.18L471.27,194.21L471.28,197.7L471.55,201.2L471.87,208.18L472.09,197.7L472.7,194.21L472.98,201.2L473,197.7L473.95,194.21L473.95,197.7L474.55,190.71L474.56,194.21L474.71,190.71L475.68,180.23L475.68,183.72L475.8,187.22L476.1,180.23L477.01,183.72L477.64,180.23L477.83,194.21L477.92,190.71L478.68,201.2L478.68,197.7L478.69,194.21L478.69,197.7L479.37,187.22L479.5,183.72L479.66,180.23L479.67,194.21L479.96,187.22L479.98,190.71L480.63,187.22L480.63,190.71L481,187.22L481,190.71L481.22,180.23L481.24,190.71L481.91,187.22L482.06,204.69L482.66,197.7L482.68,201.2L482.71,194.21L483.34,215.17L484.12,211.68L484.51,215.17L484.54,211.68L485.2,208.18L485.75,215.17L486.53,211.68L486.97,204.69L487.38,208.18L487.46,211.68L487.82,204.69L487.88,211.68L487.9,215.17L487.93,208.18L488.65,208.18L488.66,211.68L489.03,201.2L489.09,204.69L489.78,208.18L489.91,201.2L490.4,208.18L491.27,204.69L492.14,201.2L492.14,204.69L492.14,201.2L492.18,208.18L492.74,208.18L493.62,204.69L493.73,197.7L493.74,208.18L493.88,201.2L494.72,204.69L495.31,190.71L495.64,187.22L496.16,190.71L496.33,187.22L496.33,183.72L496.98,169.75L496.98,190.71L497.08,187.22L497.61,180.23L497.61,187.22L497.61,190.71L498.21,187.22L498.45,190.71L498.57,187.22L498.88,197.7L499.53,201.2L500.01,194.21L500.14,201.2L500.14,204.69L500.14,201.2L500.53,211.68L500.82,211.68L500.98,208.18L501.59,204.69L501.68,208.18L501.7,211.68L501.89,201.2L502.04,204.69L502.69,201.2L503.54,211.68L503.58,208.18L503.83,211.68L504.26,204.69L504.53,208.18L504.86,197.7L504.95,204.69L505.73,201.2L506.11,208.18L506.18,197.7L506.53,194.21L507.1,187.22L507.22,204.69L507.23,201.2L507.23,204.69L507.84,194.21L508.41,190.71L509.17,183.72L509.58,187.22L509.58,190.71L510.54,187.22L511.24,180.23L511.25,194.21L511.29,190.71L511.38,187.22L511.79,190.71L512.1,187.22L513.51,183.72L514.68,169.75L514.79,173.24L514.79,180.23L514.96,169.75L515,169.75L517.23,173.24L517.62,166.25L517.93,194.21L518.04,190.71L518.05,194.21L518.78,187.22L518.78,183.72L519.06,190.71L519.07,187.22L519.65,183.72L519.78,169.75L520.05,180.23L520.49,183.72L521.07,169.75L521.52,166.25L521.64,169.75L521.8,162.76L521.8,169.75L523.73,166.25L523.73,169.75L525.52,166.25L526.93,152.28L527.09,148.78L527.14,141.79L527.15,152.28L527.61,148.78L527.94,145.29L529.48,138.3L529.72,134.8L529.72,138.3L530.21,127.82L531.37,124.32L532.03,110.34L532.03,106.85L532.03,110.34L532.63,89.38L532.73,89.38L532.99,85.89L532.99,89.38L533.45,71.91L533.74,71.91L533.85,68.41L533.86,71.91L534.5,64.92L534.6,61.43L534.75,64.92L535,54.44L535.18,50.94L535.45,47.45L537.78,43.95L539.05,19.49L540,16" style="fill: rgb(44, 160, 44); fill-opacity: 0.5; stroke-width: 0;"/></g></g><g class="errorbars"/><g class="lines"><path class="js-line" d="M0,316.51L0.1,320L1.03,316.51L1.72,320L1.82,316.51L1.82,320L3.09,316.51L3.84,320L4.7,316.51L4.7,320L4.8,320L5.54,316.51L5.54,320L6.13,320L6.97,316.51L6.97,320L7.55,320L9.09,316.51L9.09,320L9.73,316.51L9.95,320L11.66,316.51L11.66,320L14.51,316.51L14.51,320L21.91,316.51L21.91,320L22.11,316.51L22.11,320L23.73,316.51L23.73,313.01L23.87,316.51L25.01,320L26.72,316.51L26.72,320L28.04,313.01L28.04,316.51L28.04,320L30.88,316.51L30.88,320L31.02,320L32.27,316.51L32.27,320L32.87,320L33.76,316.51L33.76,320L34.54,316.51L34.54,320L35.29,316.51L35.38,320L37.99,313.01L38.42,316.51L38.54,313.01L38.54,316.51L39.84,320L40.57,316.51L40.57,320L42.28,316.51L42.28,320L43.37,316.51L43.37,320L43.86,306.02L43.97,309.52L44.5,313.01L44.94,316.51L45.38,313.01L45.39,316.51L46.65,313.01L50.51,309.52L50.51,313.01L50.8,316.51L51.6,313.01L52.51,320L53.92,316.51L54.32,320L57.47,316.51L57.48,320L57.48,316.51L58.98,313.01L59.3,316.51L60.09,313.01L60.86,309.52L60.9,313.01L60.9,309.52L61.47,320L63.32,316.51L63.62,320L64.3,316.51L64.45,313.01L65.42,316.51L65.6,309.52L65.73,313.01L66.56,316.51L66.87,313.01L66.87,316.51L67.42,313.01L67.5,306.02L67.61,320L67.69,320L68.28,316.51L69.13,313.01L69.14,316.51L69.87,309.52L69.87,313.01L70.58,309.52L75.1,306.02L75.58,302.53L77.27,320L78.27,316.51L78.27,320L79.24,316.51L80.44,313.01L80.5,316.51L81.56,309.52L81.98,306.02L82.49,302.53L82.49,306.02L82.51,309.52L83.65,302.53L83.67,306.02L84.5,302.53L84.5,306.02L84.79,309.52L85.37,306.02L85.37,309.52L85.37,306.02L87.19,309.52L87.37,306.02L87.37,309.52L88.26,306.02L88.5,309.52L89.22,306.02L89.68,302.53L90.45,306.02L91.17,302.53L91.47,306.02L93.73,302.53L93.74,306.02L94.33,302.53L94.35,306.02L95.73,309.52L96.24,306.02L96.44,309.52L96.59,306.02L96.59,309.52L97.6,306.02L97.62,285.06L98.31,299.03L98.32,302.53L98.6,309.52L98.78,306.02L99.15,302.53L99.74,299.03L100.28,302.53L100.91,295.54L101.16,292.05L101.42,302.53L101.73,292.05L102.04,288.55L102.17,299.03L102.17,295.54L103.13,299.03L103.57,288.55L103.57,288.55L104.1,292.05L105.16,274.57L106.11,271.08L107.14,274.57L107.42,271.08L108.14,278.07L108.14,278.07L108.27,274.57L108.57,288.55L108.7,285.06L109.35,281.56L109.85,267.59L109.86,271.08L110.24,274.57L110.28,278.07L111.13,274.57L111.26,271.08L111.27,274.57L112.56,278.07L112.68,292.05L113.26,288.55L113.27,285.06L113.28,292.05L114.38,288.55L114.38,292.05L116.53,288.55L116.54,285.06L116.54,292.05L118.52,288.55L118.54,292.05L118.54,288.55L119.6,292.05L119.66,288.55L121.51,285.06L122.35,292.05L122.35,288.55L122.5,292.05L122.66,288.55L122.67,292.05L123.5,288.55L123.83,292.05L124.53,288.55L124.55,292.05L126.19,288.55L126.21,292.05L128.06,288.55L128.17,292.05L128.56,288.55L129.04,285.06L129.17,288.55L130.06,285.06L130.06,288.55L130.47,274.57L130.61,274.57L131,271.08L131.35,288.55L131.35,288.55L132.33,285.06L132.63,292.05L133.33,288.55L134.31,285.06L134.42,281.56L134.99,285.06L135.17,281.56L135.27,278.07L136,271.08L136.03,274.57L136.34,271.08L136.56,274.57L137.01,271.08L137.02,267.59L137.02,257.1L137.17,278.07L138.44,274.57L138.55,271.08L138.57,274.57L140,271.08L140.77,285.06L141.98,281.56L142.39,285.06L143.99,281.56L145.08,278.07L145.08,281.56L146.4,271.08L146.41,274.57L146.66,278.07L146.69,281.56L147.09,274.57L147.09,278.07L147.42,274.57L147.42,278.07L148.41,281.56L148.58,288.55L149.29,285.06L149.38,281.56L150.99,278.07L151.52,267.59L151.53,271.08L151.54,274.57L151.59,285.06L153.39,281.56L153.48,285.06L153.53,281.56L155.11,278.07L155.13,281.56L156.49,278.07L156.49,281.56L156.92,278.07L157.37,274.57L158.05,271.08L158.09,274.57L160.94,278.07L163.98,271.08L164.72,267.59L165.49,271.08L166.2,267.59L166.21,271.08L168.88,267.59L169.34,271.08L169.95,267.59L171.17,264.09L171.42,267.59L171.42,264.09L171.45,292.05L171.46,288.55L173.85,285.06L173.86,288.55L176.2,292.05L177.3,288.55L177.3,292.05L177.93,288.55L177.96,292.05L180.17,288.55L180.33,285.06L181.71,288.55L181.72,292.05L182.31,264.09L182.43,278.07L183.94,274.57L184.28,264.09L185.94,260.6L186.44,257.1L186.45,260.6L188.65,257.1L189.13,260.6L190.46,257.1L190.76,260.6L191.06,257.1L193.24,253.61L196.23,250.11L196.33,253.61L197.24,250.11L197.93,253.61L197.97,246.62L198.19,250.11L199.08,253.61L199.33,267.59L200.16,271.08L200.24,274.57L200.33,267.59L203.77,264.09L204.33,267.59L205.02,264.09L205.16,260.6L207.31,257.1L210.27,253.61L211.85,250.11L211.87,246.62L213.19,243.13L213.97,246.62L213.99,243.13L214.29,267.59L214.3,264.09L215.28,267.59L215.71,271.08L215.72,267.59L216.86,271.08L217.33,278.07L217.7,274.57L217.72,278.07L218.24,267.59L218.28,274.57L218.85,278.07L218.88,281.56L219.79,278.07L220.96,274.57L220.97,278.07L222.96,271.08L223.24,267.59L225.6,264.09L226.73,267.59L228.31,264.09L228.79,260.6L231.1,253.61L231.11,257.1L231.96,246.62L233.79,243.13L234.08,232.64L234.61,229.15L235.68,222.16L235.72,225.66L237.97,201.2L238.05,204.69L238.05,208.18L238.21,197.7L238.8,201.2L238.9,197.7L240.2,194.21L240.35,190.71L240.62,204.69L240.62,208.18L240.79,225.66L241.07,218.67L241.56,215.17L242.61,274.57L242.85,271.08L243.03,267.59L243.04,264.09L243.64,274.57L243.73,271.08L243.92,267.59L244.85,278.07L244.86,274.57L244.86,271.08L245.6,285.06L245.85,281.56L245.85,285.06L246.04,271.08L246.59,281.56L246.84,278.07L246.99,281.56L247.14,278.07L247.83,274.57L247.87,271.08L248.68,274.57L249.18,267.59L249.81,264.09L250.68,257.1L250.68,260.6L251.54,253.61L251.54,257.1L253.01,246.62L253.96,250.11L257.6,246.62L257.69,243.13L257.94,239.63L258.25,243.13L259.85,239.63L260.78,232.64L261.14,229.15L261.52,225.66L263.11,222.16L263.56,211.68L263.76,222.16L263.76,225.66L264.98,208.18L267.05,204.69L267.11,197.7L268.14,194.21L269.79,187.22L269.82,190.71L269.84,215.17L270.46,201.2L270.75,197.7L270.75,201.2L270.89,197.7L273.03,194.21L274.72,190.71L274.91,187.22L276.66,183.72L276.66,187.22L276.67,183.72L276.67,187.22L277.63,183.72L277.82,180.23L278.49,183.72L279.45,197.7L279.65,201.2L281.2,197.7L281.72,201.2L283.1,194.21L283.8,190.71L283.8,194.21L284.59,190.71L284.7,183.72L285.85,187.22L286.42,229.15L288.98,225.66L289.46,229.15L289.85,225.66L289.87,229.15L292.69,225.66L293.39,232.64L293.43,229.15L293.53,225.66L293.79,229.15L294.48,232.64L294.66,225.66L294.66,229.15L297.01,225.66L297.03,222.16L297.81,218.67L299.84,215.17L300.36,211.68L300.52,201.2L300.56,218.67L300.92,211.68L301.37,215.17L301.84,222.16L302.07,218.67L302.33,215.17L302.99,257.1L303.12,260.6L304.33,246.62L304.96,243.13L305.96,225.66L306.92,222.16L307.82,218.67L307.92,215.17L308.76,204.69L308.81,208.18L309.77,169.75L311.97,166.25L313.88,162.76L313.88,159.26L317.26,162.76L317.34,159.26L318.6,155.77L319.02,152.28L321.03,138.3L321.03,134.8L321.17,127.82L321.56,201.2L321.88,197.7L322.32,194.21L322.33,204.69L322.59,201.2L322.74,197.7L323.76,180.23L323.88,183.72L326.23,180.23L326.72,176.74L327.02,180.23L327.97,176.74L328.36,180.23L329.52,176.74L330.97,180.23L331,190.71L331.65,187.22L332.36,190.71L332.8,211.68L333.22,215.17L333.36,211.68L333.66,222.16L333.86,218.67L334.25,222.16L334.81,218.67L335.63,208.18L336.52,204.69L336.74,197.7L337.39,194.21L338.24,201.2L338.65,197.7L338.65,201.2L339.36,197.7L339.64,201.2L339.64,208.18L340.2,204.69L341.54,201.2L341.75,194.21L342.18,204.69L342.2,204.69L342.2,208.18L342.85,201.2L343.06,197.7L343.85,190.71L343.87,194.21L346.94,190.71L347.33,194.21L348.71,190.71L349.15,187.22L349.16,190.71L349.91,194.21L350.2,190.71L350.28,197.7L351.03,194.21L352.14,183.72L352.14,187.22L352.58,180.23L353.14,176.74L353.58,183.72L353.6,176.74L354.12,180.23L354.71,176.74L354.72,180.23L355.44,176.74L355.58,180.23L356.26,176.74L356.82,173.24L357.03,176.74L357.42,166.25L357.48,173.24L358.26,169.75L358.31,166.25L359.13,162.76L360.23,159.26L360.33,155.77L361.04,141.79L361.4,138.3L361.52,141.79L363.23,138.3L363.52,134.8L364.59,131.31L364.74,162.76L364.86,162.76L366.32,159.26L367.26,155.77L367.26,159.26L369.1,155.77L369.11,159.26L369.53,155.77L371.95,152.28L371.95,155.77L372.63,155.77L373.23,152.28L373.98,138.3L374.05,141.79L375.23,138.3L375.33,131.31L375.77,152.28L376.14,148.78L376.36,152.28L377.33,148.78L378.15,134.8L378.37,131.31L378.95,148.78L379.06,138.3L379.25,134.8L379.96,155.77L380.2,152.28L381.03,187.22L381.11,183.72L381.82,204.69L382.19,201.2L382.99,204.69L385.43,201.2L386.05,190.71L386.07,194.21L386.31,197.7L389.86,194.21L389.88,197.7L390.6,190.71L391.5,194.21L392.62,190.71L393.54,187.22L393.55,190.71L395.39,187.22L395.54,180.23L396.56,183.72L397.11,173.24L397.11,169.75L397.12,159.26L400.87,162.76L401.95,148.78L404.07,145.29L404.56,138.3L404.56,141.79L404.56,145.29L406.65,138.3L407.1,134.8L409.87,127.82L410.07,124.32L410.64,120.83L410.64,124.32L410.81,127.82L411.41,145.29L411.54,141.79L412.15,138.3L412.19,141.79L412.51,124.32L412.92,120.83L413.1,110.34L413.3,120.83L413.3,124.32L413.31,131.31L413.94,117.33L414.07,113.84L414.36,110.34L414.46,120.83L414.48,124.32L414.53,120.83L414.96,134.8L415.23,131.31L415.31,127.82L415.9,141.79L415.95,138.3L416.21,134.8L416.94,131.31L416.96,127.82L417.38,148.78L417.87,141.79L417.9,138.3L418.3,117.33L418.48,155.77L418.79,152.28L419.23,131.31L419.38,145.29L419.38,148.78L419.43,155.77L420,145.29L420.04,148.78L420.64,145.29L420.78,155.77L421.35,138.3L421.43,134.8L421.49,138.3L421.86,117.33L421.86,113.84L421.9,103.36L422.03,162.76L422.35,148.78L422.76,145.29L423.18,138.3L423.28,145.29L423.42,148.78L424.07,141.79L424.33,145.29L424.85,155.77L425.04,148.78L425.14,152.28L425.48,145.29L425.86,162.76L425.99,159.26L425.99,166.25L426.3,148.78L426.46,162.76L426.87,159.26L427.53,176.74L428.13,173.24L428.13,176.74L428.88,152.28L429.11,148.78L429.83,155.77L429.83,159.26L429.97,169.75L430.28,145.29L430.44,152.28L430.61,155.77L430.83,152.28L431,162.76L432.16,159.26L432.3,166.25L432.46,159.26L433.13,155.77L433.28,159.26L433.46,152.28L433.81,148.78L433.84,159.26L434.24,152.28L434.94,148.78L435.45,145.29L435.45,148.78L435.45,152.28L435.99,145.29L435.99,141.79L435.99,138.3L436.03,152.28L436.17,141.79L437.02,138.3L437.25,127.82L437.38,141.79L437.46,145.29L438.17,173.24L438.43,166.25L438.43,162.76L438.79,159.26L438.79,166.25L438.8,169.75L438.8,166.25L438.8,176.74L439.4,173.24L439.62,169.75L439.87,173.24L440.12,159.26L440.24,162.76L440.26,159.26L440.71,183.72L441.01,166.25L441.07,162.76L441.07,159.26L441.09,183.72L441.79,166.25L441.94,162.76L442.07,169.75L442.41,152.28L442.68,155.77L443.22,187.22L443.38,183.72L443.8,187.22L444.24,169.75L444.53,173.24L444.78,169.75L444.78,173.24L445.23,166.25L445.23,166.25L446.34,162.76L446.94,155.77L446.94,159.26L447.75,155.77L447.8,152.28L447.82,180.23L448.23,176.74L448.78,180.23L448.89,183.72L449.05,166.25L449.06,162.76L449.47,155.77L449.52,162.76L449.73,166.25L449.75,162.76L450.47,187.22L450.47,183.72L450.77,187.22L451.08,176.74L451.36,183.72L451.67,187.22L452.03,190.71L452.37,176.74L452.37,180.23L452.77,176.74L453.86,166.25L454.19,169.75L454.21,166.25L454.35,180.23L454.78,180.23L455.07,176.74L455.09,180.23L455.36,173.24L455.6,180.23L455.91,176.74L456.22,190.71L456.47,183.72L456.79,187.22L457.45,180.23L457.45,183.72L457.7,180.23L457.87,169.75L457.88,183.72L458.06,176.74L458.77,180.23L458.77,176.74L459.31,190.71L459.72,187.22L460.01,183.72L460.03,190.71L460.31,187.22L460.6,183.72L461.27,180.23L461.27,183.72L461.44,187.22L461.45,183.72L461.59,201.2L462.13,197.7L462.2,194.21L462.28,190.71L462.86,201.2L462.88,197.7L462.99,201.2L463.7,183.72L463.7,197.7L463.71,201.2L463.71,197.7L463.85,204.69L464.43,201.2L464.69,197.7L464.69,204.69L465.44,201.2L465.55,204.69L465.98,211.68L466.28,204.69L467.11,201.2L467.24,204.69L467.9,201.2L468.05,194.21L468.1,211.68L468.14,211.68L468.14,215.17L468.84,201.2L468.85,211.68L468.85,215.17L469.54,208.18L469.57,211.68L469.65,215.17L469.97,204.69L469.98,208.18L470.53,204.69L470.53,208.18L471.27,194.21L471.28,197.7L471.55,201.2L471.87,208.18L472.09,197.7L472.7,194.21L472.98,201.2L473,197.7L473.95,194.21L473.95,197.7L474.55,190.71L474.56,194.21L474.71,190.71L475.68,180.23L475.68,183.72L475.8,187.22L476.1,180.23L477.01,183.72L477.64,180.23L477.83,194.21L477.92,190.71L478.68,201.2L478.68,197.7L478.69,194.21L478.69,197.7L479.37,187.22L479.5,183.72L479.66,180.23L479.67,194.21L479.96,187.22L479.98,190.71L480.63,187.22L480.63,190.71L481,187.22L481,190.71L481.22,180.23L481.24,190.71L481.91,187.22L482.06,204.69L482.66,197.7L482.68,201.2L482.71,194.21L483.34,215.17L484.12,211.68L484.51,215.17L484.54,211.68L485.2,208.18L485.75,215.17L486.53,211.68L486.97,204.69L487.38,208.18L487.46,211.68L487.82,204.69L487.88,211.68L487.9,215.17L487.93,208.18L488.65,208.18L488.66,211.68L489.03,201.2L489.09,204.69L489.78,208.18L489.91,201.2L490.4,208.18L491.27,204.69L492.14,201.2L492.14,204.69L492.14,201.2L492.18,208.18L492.74,208.18L493.62,204.69L493.73,197.7L493.74,208.18L493.88,201.2L494.72,204.69L495.31,190.71L495.64,187.22L496.16,190.71L496.33,187.22L496.33,183.72L496.98,169.75L496.98,190.71L497.08,187.22L497.61,180.23L497.61,187.22L497.61,190.71L498.21,187.22L498.45,190.71L498.57,187.22L498.88,197.7L499.53,201.2L500.01,194.21L500.14,201.2L500.14,204.69L500.14,201.2L500.53,211.68L500.82,211.68L500.98,208.18L501.59,204.69L501.68,208.18L501.7,211.68L501.89,201.2L502.04,204.69L502.69,201.2L503.54,211.68L503.58,208.18L503.83,211.68L504.26,204.69L504.53,208.18L504.86,197.7L504.95,204.69L505.73,201.2L506.11,208.18L506.18,197.7L506.53,194.21L507.1,187.22L507.22,204.69L507.23,201.2L507.23,204.69L507.84,194.21L508.41,190.71L509.17,183.72L509.58,187.22L509.58,190.71L510.54,187.22L511.24,180.23L511.25,194.21L511.29,190.71L511.38,187.22L511.79,190.71L512.1,187.22L513.51,183.72L514.68,169.75L514.79,173.24L514.79,180.23L514.96,169.75L515,169.75L517.23,173.24L517.62,166.25L517.93,194.21L518.04,190.71L518.05,194.21L518.78,187.22L518.78,183.72L519.06,190.71L519.07,187.22L519.65,183.72L519.78,169.75L520.05,180.23L520.49,183.72L521.07,169.75L521.52,166.25L521.64,169.75L521.8,162.76L521.8,169.75L523.73,166.25L523.73,169.75L525.52,166.25L526.93,152.28L527.09,148.78L527.14,141.79L527.15,152.28L527.61,148.78L527.94,145.29L529.48,138.3L529.72,134.8L529.72,138.3L530.21,127.82L531.37,124.32L532.03,110.34L532.03,106.85L532.03,110.34L532.63,89.38L532.73,89.38L532.99,85.89L532.99,89.38L533.45,71.91L533.74,71.91L533.85,68.41L533.86,71.91L534.5,64.92L534.6,61.43L534.75,64.92L535,54.44L535.18,50.94L535.45,47.45L537.78,43.95L539.05,19.49L540,16" style="vector-effect: none; fill: none; stroke: rgb(44, 160, 44); stroke-opacity: 1; stroke-width: 2px; opacity: 1;"/></g><g class="points"/><g class="text"/></g></g></g></g><g class="zerolinelayer-above"/><path class="xlines-above crisp" d="M0,0" style="fill: none;"/><path class="ylines-above crisp" d="M0,0" style="fill: none;"/><g class="overlines-above"/><g class="xaxislayer-above"><g class="xtick"><text text-anchor="middle" x="0" y="439" transform="translate(96.99,0)" style="font-family: 'Open Sans'; font-size: 18px; fill: rgb(255, 255, 255); fill-opacity: 1; white-space: pre;">2016</text></g><g class="xtick"><text text-anchor="middle" x="0" y="439" style="font-family: 'Open Sans'; font-size: 18px; fill: rgb(255, 255, 255); fill-opacity: 1; white-space: pre;" transform="translate(201,0)">2018</text></g><g class="xtick"><text text-anchor="middle" x="0" y="439" style="font-family: 'Open Sans'; font-size: 18px; fill: rgb(255, 255, 255); fill-opacity: 1; white-space: pre;" transform="translate(304.87,0)">2020</text></g><g class="xtick"><text text-anchor="middle" x="0" y="439" style="font-family: 'Open Sans'; font-size: 18px; fill: rgb(255, 255, 255); fill-opacity: 1; white-space: pre;" transform="translate(408.89,0)">2022</text></g><g class="xtick"><text text-anchor="middle" x="0" y="439" style="font-family: 'Open Sans'; font-size: 18px; fill: rgb(255, 255, 255); fill-opacity: 1; white-space: pre;" transform="translate(512.76,0)">2024</text></g><g class="xtick"><text text-anchor="middle" x="0" y="439" style="font-family: 'Open Sans'; font-size: 18px; fill: rgb(255, 255, 255); fill-opacity: 1; white-space: pre;" transform="translate(616.77,0)">2026</text></g></g><g class="yaxislayer-above"><g class="ytick"><text text-anchor="end" x="79" y="6.3" transform="translate(0,420)" style="font-family: 'Open Sans'; font-size: 18px; fill: rgb(255, 255, 255); fill-opacity: 1; white-space: pre;">0</text></g><g class="ytick"><text text-anchor="end" x="79" y="6.3" style="font-family: 'Open Sans'; font-size: 18px; fill: rgb(255, 255, 255); fill-opacity: 1; white-space: pre;" transform="translate(0,350.11)">20</text></g><g class="ytick"><text text-anchor="end" x="79" y="6.3" style="font-family: 'Open Sans'; font-size: 18px; fill: rgb(255, 255, 255); fill-opacity: 1; white-space: pre;" transform="translate(0,280.23)">40</text></g><g class="ytick"><text text-anchor="end" x="79" y="6.3" style="font-family: 'Open Sans'; font-size: 18px; fill: rgb(255, 255, 255); fill-opacity: 1; white-space: pre;" transform="translate(0,210.34)">60</text></g><g class="ytick"><text text-anchor="end" x="79" y="6.3" style="font-family: 'Open Sans'; font-size: 18px; fill: rgb(255, 255, 255); fill-opacity: 1; white-space: pre;" transform="translate(0,140.46)">80</text></g></g><g class="overaxes-above"/></g></g><g class="polarlayer"/><g class="smithlayer"/><g class="ternarylayer"/><g class="geolayer"/><g class="funnelarealayer"/><g class="pielayer"/><g class="iciclelayer"/><g class="treemaplayer"/><g class="sunburstlayer"/><g class="glimages"/><defs id="topdefs-953e0a"><g class="clips"/></defs><g class="layer-above"><g class="imagelayer"/><g class="shapelayer"/></g><g class="infolayer"><g class="g-gtitle"><text class="gtitle" x="35" y="50" text-anchor="start" dy="0em" style="opacity: 1; font-family: 'Open Sans'; font-size: 25px; fill: rgb(255, 255, 255); fill-opacity: 1; white-space: pre;">MultiQC/MultiQC - Open Pull Requests Over Time</text></g><g class="g-xtitle"><text class="xtitle" x="350" y="472.9" text-anchor="middle" style="opacity: 1; font-family: 'Open Sans'; font-size: 22px; fill: rgb(255, 255, 255); fill-opacity: 1; white-space: pre;">Date</text></g><g class="g-ytitle"><text class="ytitle" transform="rotate(-90,38.8,260)" x="38.8" y="260" text-anchor="middle" style="opacity: 1; font-family: 'Open Sans'; font-size: 22px; fill: rgb(255, 255, 255); fill-opacity: 1; white-space: pre;">Number of Open PRs</text></g></g></svg>