<svg class="main-svg" xmlns="http://www.w3.org/2000/svg" xmlns:xlink="http://www.w3.org/1999/xlink" width="700" height="500" style="" viewBox="0 0 700 500"><rect x="0" y="0" width="700" height="500" style="fill: rgb(0, 0, 0); fill-opacity: 0;"/><defs id="defs-07ca24"><g class="clips"><clipPath id="clip07ca24xyplot" class="plotclip"><rect width="540" height="320"/></clipPath><clipPath class="axesclip" id="clip07ca24x"><rect x="80" y="0" width="540" height="500"/></clipPath><clipPath class="axesclip" id="clip07ca24y"><rect x="0" y="100" width="700" height="320"/></clipPath><clipPath class="axesclip" id="clip07ca24xy"><rect x="80" y="100" width="540" height="320"/></clipPath></g><g class="gradients"/><g class="patterns"/></defs><g class="bglayer"><rect class="bg" x="80" y="100" width="540" height="320" style="fill: rgb(0, 0, 0); fill-opacity: 0; stroke-width: 0;"/></g><g class="layer-below"><g class="imagelayer"/><g class="shapelayer"/></g><g class="cartesianlayer"><g class="subplot xy"><g class="layer-subplot"><g class="shapelayer"/><g class="imagelayer"/></g><g class="minor-gridlayer"><g class="x"/><g class="y"/></g><g class="gridlayer"><g class="x"><path class="xgrid crisp" transform="translate(97.89,0)" d="M0,100v320" style="stroke: rgb(255, 255, 255); stroke-opacity: 1; stroke-width: 1px;"/><path class="xgrid crisp" transform="translate(205.07,0)" d="M0,100v320" style="stroke: rgb(255, 255, 255); stroke-opacity: 1; stroke-width: 1px;"/><path class="xgrid crisp" transform="translate(312.1,0)" d="M0,100v320" style="stroke: rgb(255, 255, 255); stroke-opacity: 1; stroke-width: 1px;"/><path class="xgrid crisp" transform="translate(419.28,0)" d="M0,100v320" style="stroke: rgb(255, 255, 255); stroke-opacity: 1; stroke-width: 1px;"/><path class="xgrid crisp" transform="translate(526.31,0)" d="M0,100v320" style="stroke: rgb(255, 255, 255); stroke-opacity: 1; stroke-width: 1px;"/></g><g class="y"><path class="ygrid crisp" transform="translate(0,382.93)" d="M80,0h540" style="stroke: rgb(255, 255, 255); stroke-opacity: 1; stroke-width: 1px;"/><path class="ygrid crisp" transform="translate(0,345.85)" d="M80,0h540" style="stroke: rgb(255, 255, 255); stroke-opacity: 1; stroke-width: 1px;"/><path class="ygrid crisp" transform="translate(0,308.78)" d="M80,0h540" style="stroke: rgb(255, 255, 255); stroke-opacity: 1; stroke-width: 1px;"/><path class="ygrid crisp" transform="translate(0,271.71000000000004)" d="M80,0h540" style="stroke: rgb(255, 255, 255); stroke-opacity: 1; stroke-width: 1px;"/><path class="ygrid crisp" transform="translate(0,234.63)" d="M80,0h540" style="stroke: rgb(255, 255, 255); stroke-opacity: 1; stroke-width: 1px;"/><path class="ygrid crisp" transform="translate(0,197.56)" d="M80,0h540" style="stroke: rgb(255, 255, 255); stroke-opacity: 1; stroke-width: 1px;"/><path class="ygrid crisp" transform="translate(0,160.49)" d="M80,0h540" style="stroke: rgb(255, 255, 255); stroke-opacity: 1; stroke-width: 1px;"/><path class="ygrid crisp" transform="translate(0,123.41)" d="M80,0h540" style="stroke: rgb(255, 255, 255); stroke-opacity: 1; stroke-width: 1px;"/></g></g><g class="zerolinelayer"><path class="yzl zl crisp" transform="translate(0,420)" d="M80,0h540" style="stroke: rgb(255, 255, 255); stroke-opacity: 1; stroke-width: 2px;"/></g><g class="layer-between"><g class="shapelayer"/><g class="imagelayer"/></g><path class="xlines-below"/><path class="ylines-below"/><g class="overlines-below"/><g class="xaxislayer-below"/><g class="yaxislayer-below"/><g class="overaxes-below"/><g class="overplot"><g class="xy" transform="translate(80,100)" clip-path="url(#clip07ca24xyplot)"><g class="scatterlayer mlayer"><g class="trace scatter trace3abbdc" style="stroke-miterlimit: 2;"><g class="fills"><g><path class="js-fill" d="M540,320L0,320L0,286.63L4.4,286.63L8.94,301.46L13.34,316.29L22.43,305.17L26.68,305.17L31.23,294.05L35.63,294.05L40.17,308.88L44.57,275.51L49.12,312.59L53.66,312.59L58.06,305.17L62.61,297.76L67.01,275.51L71.55,301.46L76.1,305.17L80.2,301.46L84.75,290.34L89.14,305.17L93.69,308.88L98.09,227.32L102.63,249.56L107.18,268.1L111.58,279.22L116.12,301.46L120.52,308.88L125.07,290.34L129.61,305.17L133.72,275.51L138.26,268.1L142.66,290.34L147.21,290.34L151.6,301.46L156.15,297.76L165.09,312.59L169.64,312.59L174.04,294.05L178.58,312.59L183.13,308.88L187.23,268.1L191.78,301.46L196.18,308.88L200.72,305.17L205.12,312.59L209.67,305.17L214.21,316.29L218.61,282.93L223.16,297.76L227.55,305.17L232.1,308.88L236.64,297.76L240.9,260.68L245.44,268.1L249.84,256.98L254.39,275.51L258.78,305.17L263.33,308.88L267.87,282.93L272.27,282.93L276.82,290.34L281.22,301.46L285.76,305.17L290.31,297.76L294.41,301.46L303.36,301.46L307.9,264.39L312.3,264.39L316.84,256.98L321.39,308.88L325.79,305.17L330.33,256.98L334.73,305.17L339.28,312.59L343.82,286.63L347.93,297.76L352.47,294.05L356.87,305.17L361.42,282.93L365.82,286.63L370.36,286.63L374.91,290.34L379.3,305.17L383.85,286.63L388.25,249.56L392.79,294.05L397.34,305.17L401.44,286.63L405.99,282.93L410.39,305.17L414.93,305.17L419.33,294.05L423.88,179.12L428.42,149.46L432.82,168L437.37,219.9L441.76,179.12L446.31,245.85L450.86,16L455.11,197.66L459.65,205.07L464.05,119.8L468.6,164.29L472.99,156.88L477.54,142.05L482.09,93.85L486.48,212.49L495.43,212.49L499.97,216.2L504.52,264.39L508.62,242.15L513.17,242.15L517.57,223.61L522.11,268.1L526.51,212.49L531.06,245.85L535.6,238.44L540,305.17" style="fill: rgb(44, 160, 44); fill-opacity: 0.5; stroke-width: 0;"/></g></g><g class="errorbars"/><g class="lines"><path class="js-line" d="M0,286.63L4.4,286.63L8.94,301.46L13.34,316.29L22.43,305.17L26.68,305.17L31.23,294.05L35.63,294.05L40.17,308.88L44.57,275.51L49.12,312.59L53.66,312.59L58.06,305.17L62.61,297.76L67.01,275.51L71.55,301.46L76.1,305.17L80.2,301.46L84.75,290.34L89.14,305.17L93.69,308.88L98.09,227.32L102.63,249.56L107.18,268.1L111.58,279.22L116.12,301.46L120.52,308.88L125.07,290.34L129.61,305.17L133.72,275.51L138.26,268.1L142.66,290.34L147.21,290.34L151.6,301.46L156.15,297.76L165.09,312.59L169.64,312.59L174.04,294.05L178.58,312.59L183.13,308.88L187.23,268.1L191.78,301.46L196.18,308.88L200.72,305.17L205.12,312.59L209.67,305.17L214.21,316.29L218.61,282.93L223.16,297.76L227.55,305.17L232.1,308.88L236.64,297.76L240.9,260.68L245.44,268.1L249.84,256.98L254.39,275.51L258.78,305.17L263.33,308.88L267.87,282.93L272.27,282.93L276.82,290.34L281.22,301.46L285.76,305.17L290.31,297.76L294.41,301.46L303.36,301.46L307.9,264.39L312.3,264.39L316.84,256.98L321.39,308.88L325.79,305.17L330.33,256.98L334.73,305.17L339.28,312.59L343.82,286.63L347.93,297.76L352.47,294.05L356.87,305.17L361.42,282.93L365.82,286.63L370.36,286.63L374.91,290.34L379.3,305.17L383.85,286.63L388.25,249.56L392.79,294.05L397.34,305.17L401.44,286.63L405.99,282.93L410.39,305.17L414.93,305.17L419.33,294.05L423.88,179.12L428.42,149.46L432.82,168L437.37,219.9L441.76,179.12L446.31,245.85L450.86,16L455.11,197.66L459.65,205.07L464.05,119.8L468.6,164.29L472.99,156.88L477.54,142.05L482.09,93.85L486.48,212.49L495.43,212.49L499.97,216.2L504.52,264.39L508.62,242.15L513.17,242.15L517.57,223.61L522.11,268.1L526.51,212.49L531.06,245.85L535.6,238.44L540,305.17" style="vector-effect: none; fill: none; stroke: rgb(44, 160, 44); stroke-opacity: 1; stroke-width: 2px; opacity: 1;"/></g><g class="points"/><g class="text"/></g></g></g></g><g class="zerolinelayer-above"/><path class="xlines-above crisp" d="M0,0" style="fill: none;"/><path class="ylines-above crisp" d="M0,0" style="fill: none;"/><g class="overlines-above"/><g class="xaxislayer-above"><g class="xtick"><text text-anchor="middle" x="0" y="439" transform="translate(97.89,0)" style="font-family: 'Open Sans'; font-size: 18px; fill: rgb(255, 255, 255); fill-opacity: 1; white-space: pre;">2016</text></g><g class="xtick"><text text-anchor="middle" x="0" y="439" style="font-family: 'Open Sans'; font-size: 18px; fill: rgb(255, 255, 255); fill-opacity: 1; white-space: pre;" transform="translate(205.07,0)">2018</text></g><g class="xtick"><text text-anchor="middle" x="0" y="439" style="font-family: 'Open Sans'; font-size: 18px; fill: rgb(255, 255, 255); fill-opacity: 1; white-space: pre;" transform="translate(312.1,0)">2020</text></g><g class="xtick"><text text-anchor="middle" x="0" y="439" style="font-family: 'Open Sans'; font-size: 18px; fill: rgb(255, 255, 255); fill-opacity: 1; white-space: pre;" transform="translate(419.28,0)">2022</text></g><g class="xtick"><text text-anchor="middle" x="0" y="439" style="font-family: 'Open Sans'; font-size: 18px; fill: rgb(255, 255, 255); fill-opacity: 1; white-space: pre;" transform="translate(526.31,0)">2024</text></g></g><g class="yaxislayer-above"><g class="ytick"><text text-anchor="end" x="79" y="6.3" transform="translate(0,420)" style="font-family: 'Open Sans'; font-size: 18px; fill: rgb(255, 255, 255); fill-opacity: 1; white-space: pre;">0</text></g><g class="ytick"><text text-anchor="end" x="79" y="6.3" style="font-family: 'Open Sans'; font-size: 18px; fill: rgb(255, 255, 255); fill-opacity: 1; white-space: pre;" transform="translate(0,382.93)">10</text></g><g class="ytick"><text text-anchor="end" x="79" y="6.3" style="font-family: 'Open Sans'; font-size: 18px; fill: rgb(255, 255, 255); fill-opacity: 1; white-space: pre;" transform="translate(0,345.85)">20</text></g><g class="ytick"><text text-anchor="end" x="79" y="6.3" style="font-family: 'Open Sans'; font-size: 18px; fill: rgb(255, 255, 255); fill-opacity: 1; white-space: pre;" transform="translate(0,308.78)">30</text></g><g class="ytick"><text text-anchor="end" x="79" y="6.3" style="font-family: 'Open Sans'; font-size: 18px; fill: rgb(255, 255, 255); fill-opacity: 1; white-space: pre;" transform="translate(0,271.71000000000004)">40</text></g><g class="ytick"><text text-anchor="end" x="79" y="6.3" style="font-family: 'Open Sans'; font-size: 18px; fill: rgb(255, 255, 255); fill-opacity: 1; white-space: pre;" transform="translate(0,234.63)">50</text></g><g class="ytick"><text text-anchor="end" x="79" y="6.3" style="font-family: 'Open Sans'; font-size: 18px; fill: rgb(255, 255, 255); fill-opacity: 1; white-space: pre;" transform="translate(0,197.56)">60</text></g><g class="ytick"><text text-anchor="end" x="79" y="6.3" style="font-family: 'Open Sans'; font-size: 18px; fill: rgb(255, 255, 255); fill-opacity: 1; white-space: pre;" transform="translate(0,160.49)">70</text></g><g class="ytick"><text text-anchor="end" x="79" y="6.3" style="font-family: 'Open Sans'; font-size: 18px; fill: rgb(255, 255, 255); fill-opacity: 1; white-space: pre;" transform="translate(0,123.41)">80</text></g></g><g class="overaxes-above"/></g></g><g class="polarlayer"/><g class="smithlayer"/><g class="ternarylayer"/><g class="geolayer"/><g class="funnelarealayer"/><g class="pielayer"/><g class="iciclelayer"/><g class="treemaplayer"/><g class="sunburstlayer"/><g class="glimages"/><defs id="topdefs-07ca24"><g class="clips"/></defs><g class="layer-above"><g class="imagelayer"/><g class="shapelayer"/></g><g class="infolayer"><g class="g-gtitle"><text class="gtitle" x="35" y="50" text-anchor="start" dy="0em" style="opacity: 1; font-family: 'Open Sans'; font-size: 25px; fill: rgb(255, 255, 255); fill-opacity: 1; white-space: pre;">MultiQC/MultiQC - New Pull Requests Per Month</text></g><g class="g-xtitle"><text class="xtitle" x="350" y="472.9" text-anchor="middle" style="opacity: 1; font-family: 'Open Sans'; font-size: 22px; fill: rgb(255, 255, 255); fill-opacity: 1; white-space: pre;">Month</text></g><g class="g-ytitle"><text class="ytitle" transform="rotate(-90,38.8,260)" x="38.8" y="260" text-anchor="middle" style="opacity: 1; font-family: 'Open Sans'; font-size: 22px; fill: rgb(255, 255, 255); fill-opacity: 1; white-space: pre;">New PRs Created</text></g></g></svg>