<svg class="main-svg" xmlns="http://www.w3.org/2000/svg" xmlns:xlink="http://www.w3.org/1999/xlink" width="700" height="500" style="" viewBox="0 0 700 500"><rect x="0" y="0" width="700" height="500" style="fill: rgb(0, 0, 0); fill-opacity: 0;"/><defs id="defs-eaff2d"><g class="clips"><clipPath id="clipeaff2dxyplot" class="plotclip"><rect width="540" height="320"/></clipPath><clipPath class="axesclip" id="clipeaff2dx"><rect x="80" y="0" width="540" height="500"/></clipPath><clipPath class="axesclip" id="clipeaff2dy"><rect x="0" y="100" width="700" height="320"/></clipPath><clipPath class="axesclip" id="clipeaff2dxy"><rect x="80" y="100" width="540" height="320"/></clipPath></g><g class="gradients"/><g class="patterns"/></defs><g class="bglayer"><rect class="bg" x="80" y="100" width="540" height="320" style="fill: rgb(0, 0, 0); fill-opacity: 0; stroke-width: 0;"/></g><g class="layer-below"><g class="imagelayer"/><g class="shapelayer"/></g><g class="cartesianlayer"><g class="subplot xy"><g class="layer-subplot"><g class="shapelayer"/><g class="imagelayer"/></g><g class="minor-gridlayer"><g class="x"/><g class="y"/></g><g class="gridlayer"><g class="x"><path class="xgrid crisp" transform="translate(96.58,0)" d="M0,100v320" style="stroke: rgb(255, 255, 255); stroke-opacity: 1; stroke-width: 1px;"/><path class="xgrid crisp" transform="translate(198.07999999999998,0)" d="M0,100v320" style="stroke: rgb(255, 255, 255); stroke-opacity: 1; stroke-width: 1px;"/><path class="xgrid crisp" transform="translate(299.45,0)" d="M0,100v320" style="stroke: rgb(255, 255, 255); stroke-opacity: 1; stroke-width: 1px;"/><path class="xgrid crisp" transform="translate(400.95,0)" d="M0,100v320" style="stroke: rgb(255, 255, 255); stroke-opacity: 1; stroke-width: 1px;"/><path class="xgrid crisp" transform="translate(502.32,0)" d="M0,100v320" style="stroke: rgb(255, 255, 255); stroke-opacity: 1; stroke-width: 1px;"/><path class="xgrid crisp" transform="translate(603.82,0)" d="M0,100v320" style="stroke: rgb(255, 255, 255); stroke-opacity: 1; stroke-width: 1px;"/></g><g class="y"><path class="ygrid crisp" transform="translate(0,366.67)" d="M80,0h540" style="stroke: rgb(255, 255, 255); stroke-opacity: 1; stroke-width: 1px;"/><path class="ygrid crisp" transform="translate(0,313.33000000000004)" d="M80,0h540" style="stroke: rgb(255, 255, 255); stroke-opacity: 1; stroke-width: 1px;"/><path class="ygrid crisp" transform="translate(0,260)" d="M80,0h540" style="stroke: rgb(255, 255, 255); stroke-opacity: 1; stroke-width: 1px;"/><path class="ygrid crisp" transform="translate(0,206.67000000000002)" d="M80,0h540" style="stroke: rgb(255, 255, 255); stroke-opacity: 1; stroke-width: 1px;"/><path class="ygrid crisp" transform="translate(0,153.32999999999998)" d="M80,0h540" style="stroke: rgb(255, 255, 255); stroke-opacity: 1; stroke-width: 1px;"/></g></g><g class="zerolinelayer"><path class="yzl zl crisp" transform="translate(0,420)" d="M80,0h540" style="stroke: rgb(255, 255, 255); stroke-opacity: 1; stroke-width: 2px;"/></g><g class="layer-between"><g class="shapelayer"/><g class="imagelayer"/></g><path class="xlines-below"/><path class="ylines-below"/><g class="overlines-below"/><g class="xaxislayer-below"/><g class="yaxislayer-below"/><g class="overaxes-below"/><g class="overplot"><g class="xy" transform="translate(80,100)" clip-path="url(#clipeaff2dxyplot)"><g class="scatterlayer mlayer"><g class="trace scatter traceb70a89" style="stroke-miterlimit: 2;"><g class="fills"><g><path class="js-fill" d="M540,320L0,320L0,317.33L0.1,320L1.01,317.33L1.68,320L1.78,317.33L1.78,320L3.01,317.33L3.75,320L4.59,317.33L4.59,320L4.69,320L5.4,317.33L5.4,320L5.98,320L6.8,317.33L6.8,320L7.37,320L8.87,317.33L8.87,320L9.49,317.33L9.71,320L11.38,317.33L11.38,320L14.16,317.33L14.16,320L21.38,317.33L21.38,320L21.58,317.33L21.58,320L23.15,317.33L23.15,314.67L23.29,317.33L24.41,320L26.08,317.33L26.08,320L27.37,314.67L27.37,317.33L27.37,320L30.13,317.33L30.13,320L30.27,320L31.49,317.33L31.49,320L32.08,320L32.95,317.33L32.95,320L33.71,317.33L33.71,320L34.44,317.33L34.53,320L37.07,314.67L37.5,317.33L37.61,314.67L37.61,317.33L38.88,320L39.59,317.33L39.59,320L41.26,317.33L41.26,320L42.32,317.33L42.49,320L42.8,309.33L42.91,312L43.43,314.67L43.85,317.33L44.29,314.67L44.3,317.33L45.52,314.67L49.29,312L49.29,314.67L49.58,317.33L50.36,314.67L51.24,320L52.62,317.33L53.01,320L56.09,317.33L56.09,320L56.09,317.33L57.55,314.67L57.87,317.33L58.64,314.67L59.4,312L59.43,314.67L59.43,312L59.99,320L61.79,317.33L62.08,320L62.75,317.33L62.9,314.67L63.84,317.33L64.02,312L64.14,314.67L64.95,317.33L65.26,314.67L65.26,317.33L65.8,314.67L65.87,309.33L65.98,320L66.06,320L66.64,317.33L67.46,314.67L67.47,317.33L68.18,312L68.19,314.67L68.87,312L73.29,309.33L73.75,306.67L75.4,320L76.38,317.33L76.38,320L77.33,317.33L78.5,314.67L78.55,317.33L79.6,312L80,309.33L80.5,306.67L80.5,309.33L80.52,312L81.64,306.67L81.65,309.33L82.46,306.67L82.46,309.33L82.75,312L83.31,309.33L83.31,312L83.31,309.33L85.08,312L85.26,309.33L85.26,312L86.13,309.33L86.36,312L87.07,309.33L87.52,306.67L88.27,309.33L88.97,306.67L89.26,309.33L91.47,306.67L91.47,309.33L92.05,306.67L92.07,309.33L93.42,312L93.92,309.33L94.12,312L94.26,309.33L94.26,312L95.25,309.33L95.26,293.33L95.94,306.67L96.21,309.33L96.22,312L96.37,306.67L96.76,306.67L97.34,304L98.03,306.67L98.21,304L98.72,298.67L98.88,304L98.97,306.67L99.58,296L99.7,301.33L100.65,304L101.07,296L101.07,296L101.59,298.67L102.62,285.33L103.55,282.67L104.55,285.33L104.83,282.67L105.53,288L105.53,288L105.66,285.33L105.95,296L106.08,293.33L106.72,290.67L107.2,280L107.21,282.67L107.58,285.33L107.62,288L108.45,285.33L108.57,282.67L108.59,285.33L109.85,288L109.96,298.67L110.52,296L110.54,293.33L110.54,298.67L111.62,296L111.62,298.67L113.72,296L113.72,293.33L113.73,298.67L115.66,296L115.68,298.67L115.68,296L116.72,298.67L116.77,296L118.58,293.33L119.55,298.67L119.68,296L119.71,298.67L120.52,296L120.84,298.67L121.52,296L121.55,298.67L123.14,296L123.17,298.67L124.97,296L125.08,298.67L125.46,296L125.93,293.33L126.05,296L126.92,293.33L126.92,296L127.32,285.33L127.46,285.33L127.84,282.67L128.18,296L128.18,296L129.14,293.33L129.25,298.67L129.43,298.67L130.11,296L131.07,293.33L131.18,290.67L131.73,293.33L131.91,290.67L132.01,288L132.72,282.67L132.75,285.33L133.05,282.67L133.26,285.33L133.7,282.67L133.71,280L133.72,272L133.86,288L135.1,285.33L135.21,282.67L135.22,285.33L136.62,282.67L137.37,293.33L138.56,290.67L138.95,293.33L140.52,290.67L141.58,288L141.58,290.67L142.87,282.67L142.87,285.33L143.12,288L143.15,290.67L143.54,285.33L143.54,288L143.86,285.33L143.86,288L144.83,290.67L145,296L145.69,293.33L145.78,290.67L147.34,288L147.87,280L147.88,285.33L147.88,288L147.93,293.33L149.69,290.67L149.78,293.33L149.82,290.67L151.37,288L151.38,290.67L152.71,288L152.71,290.67L153.13,288L153.57,285.33L154.24,282.67L154.27,285.33L157.06,288L160.03,282.67L160.74,280L161.5,282.67L162.19,280L162.2,282.67L164.81,280L165.26,282.67L165.85,280L167.04,277.33L167.28,280L167.28,277.33L167.32,298.67L167.32,296L169.65,293.33L169.67,296L171.95,298.67L173.02,296L173.02,298.67L173.63,296L173.66,298.67L175.82,296L175.97,293.33L177.33,296L177.34,298.67L177.91,277.33L178.02,288L179.51,285.33L179.83,277.33L181.45,274.67L181.94,272L181.95,274.67L184.1,272L184.57,274.67L185.86,272L186.16,274.67L186.45,272L188.58,269.33L191.49,266.67L191.6,269.33L192.48,266.67L193.16,269.33L193.19,264L193.41,266.67L194.27,269.33L194.52,280L195.33,282.67L195.4,285.33L195.5,280L198.85,277.33L199.4,280L200.07,277.33L200.21,274.67L202.31,272L205.2,269.33L206.74,266.67L206.76,264L208.05,261.33L208.81,264L208.83,261.33L209.12,280L209.13,277.33L210.09,280L210.5,282.67L210.51,280L211.63,282.67L212.08,288L212.44,285.33L212.46,288L212.98,280L213.02,285.33L213.57,288L213.6,290.67L214.48,288L215.63,285.33L215.64,288L217.58,282.67L217.86,280L220.16,277.33L221.26,280L222.8,277.33L223.27,274.67L225.52,269.33L225.53,272L226.37,264L228.15,261.33L228.43,253.33L228.95,250.67L229.99,245.33L230.04,248L232.23,229.33L232.3,232L232.31,234.67L232.46,226.67L233.03,229.33L233.14,226.67L234.4,224L234.55,221.33L234.81,232L234.81,234.67L234.98,248L235.25,242.67L235.73,240L236.76,285.33L236.99,282.67L237.16,280L237.18,277.33L237.76,285.33L237.85,282.67L238.04,280L238.94,288L238.95,285.33L238.95,282.67L239.67,293.33L239.91,290.67L239.91,293.33L240.11,282.67L240.64,290.67L240.88,288L241.03,290.67L241.18,288L241.85,285.33L241.89,282.67L242.68,285.33L243.17,280L243.79,277.33L245.47,269.33L245.47,272L246.91,264L247.83,266.67L251.38,264L251.47,261.33L251.72,258.67L252.02,261.33L253.58,258.67L254.49,253.33L254.84,250.67L255.21,248L256.77,245.33L257.2,237.33L257.4,245.33L257.4,248L258.59,234.67L260.6,232L260.67,226.67L261.67,224L263.28,218.67L263.31,221.33L263.33,240L263.94,229.33L264.22,226.67L264.22,229.33L264.35,226.67L266.44,224L268.09,221.33L268.28,218.67L269.99,216L269.99,218.67L269.99,216L269.99,218.67L270.93,216L271.12,213.33L271.77,216L272.71,226.67L272.91,229.33L274.41,226.67L274.92,229.33L276.27,224L276.95,221.33L276.95,224L277.73,221.33L277.83,216L278.96,218.67L279.51,250.67L282,248L282.48,250.67L282.86,248L282.88,250.67L285.63,248L286.31,253.33L286.35,250.67L286.45,248L286.7,250.67L287.37,253.33L287.55,248L287.55,250.67L289.84,248L289.86,245.33L290.63,242.67L292.6,240L293.11,237.33L293.26,229.33L293.31,242.67L293.66,237.33L294.1,240L294.56,245.33L294.78,242.67L295.03,240L295.81,274.67L296.03,272L296.99,264L297.6,261.33L298.58,248L299.52,245.33L300.49,240L300.55,237.33L301.97,226.67L301.99,224L302.3,205.33L304.44,202.67L306.31,200L306.31,197.33L309.61,200L309.68,197.33L311.32,192L311.89,189.33L313.29,181.33L313.29,178.67L313.42,173.33L313.81,229.33L314.11,226.67L314.54,224L314.56,232L314.8,229.33L314.95,226.67L315.95,213.33L316.07,216L318.36,213.33L318.84,210.67L319.13,213.33L320.06,210.67L320.44,213.33L321.57,210.67L322.99,213.33L323.02,221.33L323.65,218.67L324.35,221.33L324.77,237.33L325.18,240L325.31,237.33L325.61,245.33L325.81,242.67L326.18,245.33L326.73,242.67L327.54,234.67L328.4,232L328.62,226.67L329.25,224L330.08,229.33L330.48,226.67L330.48,229.33L331.17,226.67L331.44,229.33L331.44,234.67L331.99,232L333.3,229.33L333.5,224L333.94,234.67L334.5,232L334.79,226.67L335.47,224L335.56,221.33L335.57,224L338.57,221.33L338.95,224L340.29,221.33L340.73,218.67L340.73,221.33L341.47,224L341.75,221.33L341.82,226.67L342.56,224L343.64,216L343.64,218.67L344.07,213.33L344.62,210.67L345.05,216L345.06,210.67L345.58,213.33L345.58,210.67L346.16,213.33L346.86,210.67L347,213.33L347.66,210.67L348.79,205.33L348.8,202.67L348.85,208L349.62,205.33L349.66,202.67L350.46,200L351.54,197.33L351.64,194.67L352.33,184L352.68,181.33L352.8,184L354.47,181.33L354.75,178.67L355.79,176L355.94,200L356.05,200L357.49,197.33L358.4,194.67L358.4,197.33L360.2,194.67L360.2,197.33L360.61,194.67L362.98,192L362.98,194.67L363.64,194.67L364.22,192L364.96,181.33L365.02,184L366.18,181.33L366.27,176L366.7,192L367.06,189.33L367.28,192L368.22,189.33L369.03,178.67L369.24,176L369.81,189.33L369.91,181.33L370.1,178.67L370.79,194.67L371.02,192L371.84,218.67L371.91,216L372.61,232L372.97,229.33L373.75,232L376.13,229.33L376.73,221.33L376.76,224L376.99,226.67L380.46,224L380.47,226.67L381.17,221.33L382.05,224L383.15,221.33L384.05,218.67L384.05,221.33L385.85,218.67L385.99,213.33L386.99,216L387.52,208L387.53,205.33L387.54,197.33L391.2,200L392.25,189.33L394.32,186.67L394.8,181.33L394.8,184L394.8,186.67L396.84,181.33L397.28,178.67L399.99,173.33L400.17,170.67L400.73,168L400.73,170.67L400.9,173.33L401.48,186.67L401.61,184L402.2,181.33L402.25,184L402.56,170.67L402.95,168L403.14,160L403.33,170.67L403.33,173.33L403.33,176L404.08,162.67L404.21,160L404.95,178.67L405,176L405.29,173.33L405.3,184L405.74,176L405.77,178.67L405.87,184L406.17,178.67L406.83,176L406.9,173.33L407.31,189.33L407.31,186.67L407.71,184L408.2,165.33L408.39,194.67L408.69,192L409.12,176L409.26,189.33L409.26,192L409.31,194.67L409.86,186.67L409.9,189.33L410.49,186.67L410.63,194.67L411.18,181.33L411.26,178.67L411.32,181.33L411.68,165.33L411.69,162.67L411.72,154.67L411.85,200L412.16,189.33L412.56,186.67L412.97,181.33L413.2,189.33L413.24,186.67L413.63,184L414.27,192L414.6,194.67L414.9,197.33L415.22,186.67L415.57,189.33L415.72,202.67L416.17,200L416.57,197.33L417.22,210.67L417.8,208L417.8,210.67L418.53,192L418.76,189.33L419.46,194.67L419.46,197.33L419.6,205.33L419.9,186.67L420.06,192L420.22,194.67L420.44,192L420.6,200L421.74,197.33L421.87,202.67L422.03,197.33L422.68,194.67L422.83,197.33L423.01,192L423.34,189.33L423.37,197.33L423.76,192L424.45,189.33L424.95,186.67L424.95,189.33L424.95,192L425.47,186.67L425.47,184L425.47,181.33L425.51,192L425.65,184L426.48,181.33L426.7,173.33L426.83,184L426.9,186.67L427.6,208L427.85,202.67L427.85,200L428.21,197.33L428.21,202.67L428.21,205.33L428.21,202.67L428.21,210.67L428.79,208L429.02,205.33L429.25,208L429.5,197.33L429.62,200L429.64,197.33L430.07,216L430.37,202.67L430.43,200L430.43,197.33L430.45,216L431.13,202.67L431.27,200L431.41,205.33L431.74,192L432,194.67L432.52,218.67L432.68,216L433.1,218.67L433.52,205.33L433.81,208L434.05,205.33L434.05,208L434.48,202.67L434.49,202.67L435.57,200L436.16,194.67L436.16,197.33L436.95,194.67L436.99,192L437.02,213.33L437.42,210.67L437.95,213.33L438.06,216L438.22,202.67L438.22,200L438.63,194.67L438.67,200L438.88,202.67L438.9,200L439.6,218.67L439.6,216L439.89,218.67L440.2,210.67L440.47,216L440.77,218.67L441.13,221.33L441.45,210.67L441.45,213.33L441.84,210.67L442.91,202.67L443.23,205.33L443.23,208L443.26,202.67L443.39,213.33L443.81,213.33L444.09,210.67L444.11,213.33L444.37,208L444.61,213.33L444.91,210.67L445.21,221.33L445.46,216L445.77,218.67L446.42,213.33L446.42,216L446.66,213.33L446.82,205.33L446.83,216L447.01,210.67L447.7,213.33L447.7,210.67L448.23,221.33L448.63,218.67L448.92,216L448.93,221.33L449.2,218.67L449.49,216L450.14,213.33L450.14,216L450.3,218.67L450.32,216L450.45,229.33L450.84,226.67L450.98,229.33L451.12,221.33L451.71,226.67L451.82,229.33L452.51,216L452.52,226.67L452.52,229.33L452.52,226.67L452.66,232L453.23,229.33L453.47,226.67L453.47,232L454.21,229.33L454.32,232L454.34,237.33L455.03,232L455.84,229.33L455.97,232L456.61,229.33L456.76,224L456.81,237.33L456.84,237.33L456.84,240L457.53,229.33L457.54,237.33L457.54,240L458.21,234.67L458.24,237.33L458.32,240L458.63,232L458.64,234.67L459.18,232L459.18,234.67L459.9,224L459.91,226.67L460.17,229.33L460.48,234.67L460.7,226.67L461.3,224L461.57,229.33L461.59,226.67L462.51,224L462.57,226.67L463.1,221.33L463.25,221.33L463.75,218.67L464.2,213.33L464.47,218.67L464.6,216L464.61,213.33L465.5,216L466.11,213.33L466.4,224L466.44,221.33L467.13,229.33L467.37,226.67L467.38,224L467.38,226.67L468.09,213.33L468.13,221.33L468.38,218.67L469.03,221.33L469.39,218.67L469.39,221.33L469.6,213.33L469.63,221.33L470.29,218.67L470.43,232L471.04,229.33L471.05,226.67L471.16,224L471.68,240L472.44,237.33L472.82,240L472.85,237.33L473.49,234.67L474.03,240L474.79,237.33L475.22,232L475.62,234.67L475.69,237.33L476.05,232L476.11,237.33L476.13,240L476.16,234.67L476.87,237.33L476.96,234.67L477.29,229.33L477.29,232L477.96,234.67L478.09,229.33L478.57,234.67L479.42,232L480.26,229.33L480.26,232L480.3,234.67L480.85,229.33L480.85,234.67L481.71,232L481.82,226.67L481.83,234.67L481.97,229.33L482.79,232L483.36,221.33L483.68,218.67L484.19,221.33L484.36,218.67L484.36,216L484.98,205.33L484.99,221.33L485.08,218.67L485.33,216L485.6,213.33L485.61,218.67L485.61,221.33L486.19,218.67L486.42,221.33L486.54,218.67L486.84,226.67L487.48,229.33L487.95,224L488.07,229.33L488.07,232L488.07,229.33L488.45,237.33L488.74,237.33L488.89,234.67L489.49,232L489.57,234.67L489.59,237.33L489.79,229.33L489.93,232L490.56,229.33L491.4,237.33L491.43,234.67L491.67,237.33L492.09,232L492.35,234.67L492.68,226.67L492.76,232L493.53,229.33L493.9,234.67L493.97,226.67L494.31,224L494.87,218.67L494.98,232L494.99,229.33L495.01,232L496.89,216L497.28,218.67L497.28,221.33L498.23,218.67L498.47,224L498.91,213.33L498.95,221.33L499.04,218.67L499.44,221.33L499.74,218.67L501.12,216L502.26,205.33L502.37,208L502.37,210.67L502.37,213.33L502.53,205.33L502.57,205.33L504.75,208L505.13,202.67L505.44,224L505.55,221.33L505.55,224L506.26,216L506.27,218.67L506.54,221.33L507.24,205.33L507.28,208L507.38,210.67L507.49,208L507.93,216L508.08,208L508.5,205.33L509.02,200L509.03,202.67L509.06,205.33L509.21,200L509.21,205.33L511.09,202.67L511.09,205.33L512.84,202.67L514.22,192L514.37,189.33L514.43,184L514.43,192L514.88,189.33L515.2,186.67L516.7,181.33L516.94,178.67L516.94,181.33L517.42,173.33L518.55,170.67L519.19,160L519.19,157.33L519.19,160L519.78,144L519.87,144L520.13,141.33L520.14,144L520.58,130.67L520.75,133.33L520.86,130.67L521.84,122.67L521.85,125.33L522.53,112L524.8,109.33L526.04,90.67L526.97,88L528.64,82.67L530.42,80L531.34,66.67L531.66,64L531.98,58.67L532.53,56L532.54,58.67L532.98,48L533.61,45.33L533.61,48L533.88,45.33L534.38,42.67L535.88,29.33L537.12,26.67L537.79,21.33L538.51,18.67L539.56,16L539.57,18.67L540,16" style="fill: rgb(44, 160, 44); fill-opacity: 0.5; stroke-width: 0;"/></g></g><g class="errorbars"/><g class="lines"><path class="js-line" d="M0,317.33L0.1,320L1.01,317.33L1.68,320L1.78,317.33L1.78,320L3.01,317.33L3.75,320L4.59,317.33L4.59,320L4.69,320L5.4,317.33L5.4,320L5.98,320L6.8,317.33L6.8,320L7.37,320L8.87,317.33L8.87,320L9.49,317.33L9.71,320L11.38,317.33L11.38,320L14.16,317.33L14.16,320L21.38,317.33L21.38,320L21.58,317.33L21.58,320L23.15,317.33L23.15,314.67L23.29,317.33L24.41,320L26.08,317.33L26.08,320L27.37,314.67L27.37,317.33L27.37,320L30.13,317.33L30.13,320L30.27,320L31.49,317.33L31.49,320L32.08,320L32.95,317.33L32.95,320L33.71,317.33L33.71,320L34.44,317.33L34.53,320L37.07,314.67L37.5,317.33L37.61,314.67L37.61,317.33L38.88,320L39.59,317.33L39.59,320L41.26,317.33L41.26,320L42.32,317.33L42.49,320L42.8,309.33L42.91,312L43.43,314.67L43.85,317.33L44.29,314.67L44.3,317.33L45.52,314.67L49.29,312L49.29,314.67L49.58,317.33L50.36,314.67L51.24,320L52.62,317.33L53.01,320L56.09,317.33L56.09,320L56.09,317.33L57.55,314.67L57.87,317.33L58.64,314.67L59.4,312L59.43,314.67L59.43,312L59.99,320L61.79,317.33L62.08,320L62.75,317.33L62.9,314.67L63.84,317.33L64.02,312L64.14,314.67L64.95,317.33L65.26,314.67L65.26,317.33L65.8,314.67L65.87,309.33L65.98,320L66.06,320L66.64,317.33L67.46,314.67L67.47,317.33L68.18,312L68.19,314.67L68.87,312L73.29,309.33L73.75,306.67L75.4,320L76.38,317.33L76.38,320L77.33,317.33L78.5,314.67L78.55,317.33L79.6,312L80,309.33L80.5,306.67L80.5,309.33L80.52,312L81.64,306.67L81.65,309.33L82.46,306.67L82.46,309.33L82.75,312L83.31,309.33L83.31,312L83.31,309.33L85.08,312L85.26,309.33L85.26,312L86.13,309.33L86.36,312L87.07,309.33L87.52,306.67L88.27,309.33L88.97,306.67L89.26,309.33L91.47,306.67L91.47,309.33L92.05,306.67L92.07,309.33L93.42,312L93.92,309.33L94.12,312L94.26,309.33L94.26,312L95.25,309.33L95.26,293.33L95.94,306.67L96.21,309.33L96.22,312L96.37,306.67L96.76,306.67L97.34,304L98.03,306.67L98.21,304L98.72,298.67L98.88,304L98.97,306.67L99.58,296L99.7,301.33L100.65,304L101.07,296L101.07,296L101.59,298.67L102.62,285.33L103.55,282.67L104.55,285.33L104.83,282.67L105.53,288L105.53,288L105.66,285.33L105.95,296L106.08,293.33L106.72,290.67L107.2,280L107.21,282.67L107.58,285.33L107.62,288L108.45,285.33L108.57,282.67L108.59,285.33L109.85,288L109.96,298.67L110.52,296L110.54,293.33L110.54,298.67L111.62,296L111.62,298.67L113.72,296L113.72,293.33L113.73,298.67L115.66,296L115.68,298.67L115.68,296L116.72,298.67L116.77,296L118.58,293.33L119.55,298.67L119.68,296L119.71,298.67L120.52,296L120.84,298.67L121.52,296L121.55,298.67L123.14,296L123.17,298.67L124.97,296L125.08,298.67L125.46,296L125.93,293.33L126.05,296L126.92,293.33L126.92,296L127.32,285.33L127.46,285.33L127.84,282.67L128.18,296L128.18,296L129.14,293.33L129.25,298.67L129.43,298.67L130.11,296L131.07,293.33L131.18,290.67L131.73,293.33L131.91,290.67L132.01,288L132.72,282.67L132.75,285.33L133.05,282.67L133.26,285.33L133.7,282.67L133.71,280L133.72,272L133.86,288L135.1,285.33L135.21,282.67L135.22,285.33L136.62,282.67L137.37,293.33L138.56,290.67L138.95,293.33L140.52,290.67L141.58,288L141.58,290.67L142.87,282.67L142.87,285.33L143.12,288L143.15,290.67L143.54,285.33L143.54,288L143.86,285.33L143.86,288L144.83,290.67L145,296L145.69,293.33L145.78,290.67L147.34,288L147.87,280L147.88,285.33L147.88,288L147.93,293.33L149.69,290.67L149.78,293.33L149.82,290.67L151.37,288L151.38,290.67L152.71,288L152.71,290.67L153.13,288L153.57,285.33L154.24,282.67L154.27,285.33L157.06,288L160.03,282.67L160.74,280L161.5,282.67L162.19,280L162.2,282.67L164.81,280L165.26,282.67L165.85,280L167.04,277.33L167.28,280L167.28,277.33L167.32,298.67L167.32,296L169.65,293.33L169.67,296L171.95,298.67L173.02,296L173.02,298.67L173.63,296L173.66,298.67L175.82,296L175.97,293.33L177.33,296L177.34,298.67L177.91,277.33L178.02,288L179.51,285.33L179.83,277.33L181.45,274.67L181.94,272L181.95,274.67L184.1,272L184.57,274.67L185.86,272L186.16,274.67L186.45,272L188.58,269.33L191.49,266.67L191.6,269.33L192.48,266.67L193.16,269.33L193.19,264L193.41,266.67L194.27,269.33L194.52,280L195.33,282.67L195.4,285.33L195.5,280L198.85,277.33L199.4,280L200.07,277.33L200.21,274.67L202.31,272L205.2,269.33L206.74,266.67L206.76,264L208.05,261.33L208.81,264L208.83,261.33L209.12,280L209.13,277.33L210.09,280L210.5,282.67L210.51,280L211.63,282.67L212.08,288L212.44,285.33L212.46,288L212.98,280L213.02,285.33L213.57,288L213.6,290.67L214.48,288L215.63,285.33L215.64,288L217.58,282.67L217.86,280L220.16,277.33L221.26,280L222.8,277.33L223.27,274.67L225.52,269.33L225.53,272L226.37,264L228.15,261.33L228.43,253.33L228.95,250.67L229.99,245.33L230.04,248L232.23,229.33L232.3,232L232.31,234.67L232.46,226.67L233.03,229.33L233.14,226.67L234.4,224L234.55,221.33L234.81,232L234.81,234.67L234.98,248L235.25,242.67L235.73,240L236.76,285.33L236.99,282.67L237.16,280L237.18,277.33L237.76,285.33L237.85,282.67L238.04,280L238.94,288L238.95,285.33L238.95,282.67L239.67,293.33L239.91,290.67L239.91,293.33L240.11,282.67L240.64,290.67L240.88,288L241.03,290.67L241.18,288L241.85,285.33L241.89,282.67L242.68,285.33L243.17,280L243.79,277.33L245.47,269.33L245.47,272L246.91,264L247.83,266.67L251.38,264L251.47,261.33L251.72,258.67L252.02,261.33L253.58,258.67L254.49,253.33L254.84,250.67L255.21,248L256.77,245.33L257.2,237.33L257.4,245.33L257.4,248L258.59,234.67L260.6,232L260.67,226.67L261.67,224L263.28,218.67L263.31,221.33L263.33,240L263.94,229.33L264.22,226.67L264.22,229.33L264.35,226.67L266.44,224L268.09,221.33L268.28,218.67L269.99,216L269.99,218.67L269.99,216L269.99,218.67L270.93,216L271.12,213.33L271.77,216L272.71,226.67L272.91,229.33L274.41,226.67L274.92,229.33L276.27,224L276.95,221.33L276.95,224L277.73,221.33L277.83,216L278.96,218.67L279.51,250.67L282,248L282.48,250.67L282.86,248L282.88,250.67L285.63,248L286.31,253.33L286.35,250.67L286.45,248L286.7,250.67L287.37,253.33L287.55,248L287.55,250.67L289.84,248L289.86,245.33L290.63,242.67L292.6,240L293.11,237.33L293.26,229.33L293.31,242.67L293.66,237.33L294.1,240L294.56,245.33L294.78,242.67L295.03,240L295.81,274.67L296.03,272L296.99,264L297.6,261.33L298.58,248L299.52,245.33L300.49,240L300.55,237.33L301.97,226.67L301.99,224L302.3,205.33L304.44,202.67L306.31,200L306.31,197.33L309.61,200L309.68,197.33L311.32,192L311.89,189.33L313.29,181.33L313.29,178.67L313.42,173.33L313.81,229.33L314.11,226.67L314.54,224L314.56,232L314.8,229.33L314.95,226.67L315.95,213.33L316.07,216L318.36,213.33L318.84,210.67L319.13,213.33L320.06,210.67L320.44,213.33L321.57,210.67L322.99,213.33L323.02,221.33L323.65,218.67L324.35,221.33L324.77,237.33L325.18,240L325.31,237.33L325.61,245.33L325.81,242.67L326.18,245.33L326.73,242.67L327.54,234.67L328.4,232L328.62,226.67L329.25,224L330.08,229.33L330.48,226.67L330.48,229.33L331.17,226.67L331.44,229.33L331.44,234.67L331.99,232L333.3,229.33L333.5,224L333.94,234.67L334.5,232L334.79,226.67L335.47,224L335.56,221.33L335.57,224L338.57,221.33L338.95,224L340.29,221.33L340.73,218.67L340.73,221.33L341.47,224L341.75,221.33L341.82,226.67L342.56,224L343.64,216L343.64,218.67L344.07,213.33L344.62,210.67L345.05,216L345.06,210.67L345.58,213.33L345.58,210.67L346.16,213.33L346.86,210.67L347,213.33L347.66,210.67L348.79,205.33L348.8,202.67L348.85,208L349.62,205.33L349.66,202.67L350.46,200L351.54,197.33L351.64,194.67L352.33,184L352.68,181.33L352.8,184L354.47,181.33L354.75,178.67L355.79,176L355.94,200L356.05,200L357.49,197.33L358.4,194.67L358.4,197.33L360.2,194.67L360.2,197.33L360.61,194.67L362.98,192L362.98,194.67L363.64,194.67L364.22,192L364.96,181.33L365.02,184L366.18,181.33L366.27,176L366.7,192L367.06,189.33L367.28,192L368.22,189.33L369.03,178.67L369.24,176L369.81,189.33L369.91,181.33L370.1,178.67L370.79,194.67L371.02,192L371.84,218.67L371.91,216L372.61,232L372.97,229.33L373.75,232L376.13,229.33L376.73,221.33L376.76,224L376.99,226.67L380.46,224L380.47,226.67L381.17,221.33L382.05,224L383.15,221.33L384.05,218.67L384.05,221.33L385.85,218.67L385.99,213.33L386.99,216L387.52,208L387.53,205.33L387.54,197.33L391.2,200L392.25,189.33L394.32,186.67L394.8,181.33L394.8,184L394.8,186.67L396.84,181.33L397.28,178.67L399.99,173.33L400.17,170.67L400.73,168L400.73,170.67L400.9,173.33L401.48,186.67L401.61,184L402.2,181.33L402.25,184L402.56,170.67L402.95,168L403.14,160L403.33,170.67L403.33,173.33L403.33,176L404.08,162.67L404.21,160L404.95,178.67L405,176L405.29,173.33L405.3,184L405.74,176L405.77,178.67L405.87,184L406.17,178.67L406.83,176L406.9,173.33L407.31,189.33L407.31,186.67L407.71,184L408.2,165.33L408.39,194.67L408.69,192L409.12,176L409.26,189.33L409.26,192L409.31,194.67L409.86,186.67L409.9,189.33L410.49,186.67L410.63,194.67L411.18,181.33L411.26,178.67L411.32,181.33L411.68,165.33L411.69,162.67L411.72,154.67L411.85,200L412.16,189.33L412.56,186.67L412.97,181.33L413.2,189.33L413.24,186.67L413.63,184L414.27,192L414.6,194.67L414.9,197.33L415.22,186.67L415.57,189.33L415.72,202.67L416.17,200L416.57,197.33L417.22,210.67L417.8,208L417.8,210.67L418.53,192L418.76,189.33L419.46,194.67L419.46,197.33L419.6,205.33L419.9,186.67L420.06,192L420.22,194.67L420.44,192L420.6,200L421.74,197.33L421.87,202.67L422.03,197.33L422.68,194.67L422.83,197.33L423.01,192L423.34,189.33L423.37,197.33L423.76,192L424.45,189.33L424.95,186.67L424.95,189.33L424.95,192L425.47,186.67L425.47,184L425.47,181.33L425.51,192L425.65,184L426.48,181.33L426.7,173.33L426.83,184L426.9,186.67L427.6,208L427.85,202.67L427.85,200L428.21,197.33L428.21,202.67L428.21,205.33L428.21,202.67L428.21,210.67L428.79,208L429.02,205.33L429.25,208L429.5,197.33L429.62,200L429.64,197.33L430.07,216L430.37,202.67L430.43,200L430.43,197.33L430.45,216L431.13,202.67L431.27,200L431.41,205.33L431.74,192L432,194.67L432.52,218.67L432.68,216L433.1,218.67L433.52,205.33L433.81,208L434.05,205.33L434.05,208L434.48,202.67L434.49,202.67L435.57,200L436.16,194.67L436.16,197.33L436.95,194.67L436.99,192L437.02,213.33L437.42,210.67L437.95,213.33L438.06,216L438.22,202.67L438.22,200L438.63,194.67L438.67,200L438.88,202.67L438.9,200L439.6,218.67L439.6,216L439.89,218.67L440.2,210.67L440.47,216L440.77,218.67L441.13,221.33L441.45,210.67L441.45,213.33L441.84,210.67L442.91,202.67L443.23,205.33L443.23,208L443.26,202.67L443.39,213.33L443.81,213.33L444.09,210.67L444.11,213.33L444.37,208L444.61,213.33L444.91,210.67L445.21,221.33L445.46,216L445.77,218.67L446.42,213.33L446.42,216L446.66,213.33L446.82,205.33L446.83,216L447.01,210.67L447.7,213.33L447.7,210.67L448.23,221.33L448.63,218.67L448.92,216L448.93,221.33L449.2,218.67L449.49,216L450.14,213.33L450.14,216L450.3,218.67L450.32,216L450.45,229.33L450.84,226.67L450.98,229.33L451.12,221.33L451.71,226.67L451.82,229.33L452.51,216L452.52,226.67L452.52,229.33L452.52,226.67L452.66,232L453.23,229.33L453.47,226.67L453.47,232L454.21,229.33L454.32,232L454.34,237.33L455.03,232L455.84,229.33L455.97,232L456.61,229.33L456.76,224L456.81,237.33L456.84,237.33L456.84,240L457.53,229.33L457.54,237.33L457.54,240L458.21,234.67L458.24,237.33L458.32,240L458.63,232L458.64,234.67L459.18,232L459.18,234.67L459.9,224L459.91,226.67L460.17,229.33L460.48,234.67L460.7,226.67L461.3,224L461.57,229.33L461.59,226.67L462.51,224L462.57,226.67L463.1,221.33L463.25,221.33L463.75,218.67L464.2,213.33L464.47,218.67L464.6,216L464.61,213.33L465.5,216L466.11,213.33L466.4,224L466.44,221.33L467.13,229.33L467.37,226.67L467.38,224L467.38,226.67L468.09,213.33L468.13,221.33L468.38,218.67L469.03,221.33L469.39,218.67L469.39,221.33L469.6,213.33L469.63,221.33L470.29,218.67L470.43,232L471.04,229.33L471.05,226.67L471.16,224L471.68,240L472.44,237.33L472.82,240L472.85,237.33L473.49,234.67L474.03,240L474.79,237.33L475.22,232L475.62,234.67L475.69,237.33L476.05,232L476.11,237.33L476.13,240L476.16,234.67L476.87,237.33L476.96,234.67L477.29,229.33L477.29,232L477.96,234.67L478.09,229.33L478.57,234.67L479.42,232L480.26,229.33L480.26,232L480.3,234.67L480.85,229.33L480.85,234.67L481.71,232L481.82,226.67L481.83,234.67L481.97,229.33L482.79,232L483.36,221.33L483.68,218.67L484.19,221.33L484.36,218.67L484.36,216L484.98,205.33L484.99,221.33L485.08,218.67L485.33,216L485.6,213.33L485.61,218.67L485.61,221.33L486.19,218.67L486.42,221.33L486.54,218.67L486.84,226.67L487.48,229.33L487.95,224L488.07,229.33L488.07,232L488.07,229.33L488.45,237.33L488.74,237.33L488.89,234.67L489.49,232L489.57,234.67L489.59,237.33L489.79,229.33L489.93,232L490.56,229.33L491.4,237.33L491.43,234.67L491.67,237.33L492.09,232L492.35,234.67L492.68,226.67L492.76,232L493.53,229.33L493.9,234.67L493.97,226.67L494.31,224L494.87,218.67L494.98,232L494.99,229.33L495.01,232L496.89,216L497.28,218.67L497.28,221.33L498.23,218.67L498.47,224L498.91,213.33L498.95,221.33L499.04,218.67L499.44,221.33L499.74,218.67L501.12,216L502.26,205.33L502.37,208L502.37,210.67L502.37,213.33L502.53,205.33L502.57,205.33L504.75,208L505.13,202.67L505.44,224L505.55,221.33L505.55,224L506.26,216L506.27,218.67L506.54,221.33L507.24,205.33L507.28,208L507.38,210.67L507.49,208L507.93,216L508.08,208L508.5,205.33L509.02,200L509.03,202.67L509.06,205.33L509.21,200L509.21,205.33L511.09,202.67L511.09,205.33L512.84,202.67L514.22,192L514.37,189.33L514.43,184L514.43,192L514.88,189.33L515.2,186.67L516.7,181.33L516.94,178.67L516.94,181.33L517.42,173.33L518.55,170.67L519.19,160L519.19,157.33L519.19,160L519.78,144L519.87,144L520.13,141.33L520.14,144L520.58,130.67L520.75,133.33L520.86,130.67L521.84,122.67L521.85,125.33L522.53,112L524.8,109.33L526.04,90.67L526.97,88L528.64,82.67L530.42,80L531.34,66.67L531.66,64L531.98,58.67L532.53,56L532.54,58.67L532.98,48L533.61,45.33L533.61,48L533.88,45.33L534.38,42.67L535.88,29.33L537.12,26.67L537.79,21.33L538.51,18.67L539.56,16L539.57,18.67L540,16" style="vector-effect: none; fill: none; stroke: rgb(44, 160, 44); stroke-opacity: 1; stroke-width: 2px; opacity: 1;"/></g><g class="points"/><g class="text"/></g></g></g></g><g class="zerolinelayer-above"/><path class="xlines-above crisp" d="M0,0" style="fill: none;"/><path class="ylines-above crisp" d="M0,0" style="fill: none;"/><g class="overlines-above"/><g class="xaxislayer-above"><g class="xtick"><text text-anchor="middle" x="0" y="439" transform="translate(96.58,0)" style="font-family: 'Open Sans'; font-size: 18px; fill: rgb(255, 255, 255); fill-opacity: 1; white-space: pre;">2016</text></g><g class="xtick"><text text-anchor="middle" x="0" y="439" style="font-family: 'Open Sans'; font-size: 18px; fill: rgb(255, 255, 255); fill-opacity: 1; white-space: pre;" transform="translate(198.07999999999998,0)">2018</text></g><g class="xtick"><text text-anchor="middle" x="0" y="439" style="font-family: 'Open Sans'; font-size: 18px; fill: rgb(255, 255, 255); fill-opacity: 1; white-space: pre;" transform="translate(299.45,0)">2020</text></g><g class="xtick"><text text-anchor="middle" x="0" y="439" style="font-family: 'Open Sans'; font-size: 18px; fill: rgb(255, 255, 255); fill-opacity: 1; white-space: pre;" transform="translate(400.95,0)">2022</text></g><g class="xtick"><text text-anchor="middle" x="0" y="439" style="font-family: 'Open Sans'; font-size: 18px; fill: rgb(255, 255, 255); fill-opacity: 1; white-space: pre;" transform="translate(502.32,0)">2024</text></g><g class="xtick"><text text-anchor="middle" x="0" y="439" style="font-family: 'Open Sans'; font-size: 18px; fill: rgb(255, 255, 255); fill-opacity: 1; white-space: pre;" transform="translate(603.82,0)">2026</text></g></g><g class="yaxislayer-above"><g class="ytick"><text text-anchor="end" x="79" y="6.3" transform="translate(0,420)" style="font-family: 'Open Sans'; font-size: 18px; fill: rgb(255, 255, 255); fill-opacity: 1; white-space: pre;">0</text></g><g class="ytick"><text text-anchor="end" x="79" y="6.3" style="font-family: 'Open Sans'; font-size: 18px; fill: rgb(255, 255, 255); fill-opacity: 1; white-space: pre;" transform="translate(0,366.67)">20</text></g><g class="ytick"><text text-anchor="end" x="79" y="6.3" style="font-family: 'Open Sans'; font-size: 18px; fill: rgb(255, 255, 255); fill-opacity: 1; white-space: pre;" transform="translate(0,313.33000000000004)">40</text></g><g class="ytick"><text text-anchor="end" x="79" y="6.3" style="font-family: 'Open Sans'; font-size: 18px; fill: rgb(255, 255, 255); fill-opacity: 1; white-space: pre;" transform="translate(0,260)">60</text></g><g class="ytick"><text text-anchor="end" x="79" y="6.3" style="font-family: 'Open Sans'; font-size: 18px; fill: rgb(255, 255, 255); fill-opacity: 1; white-space: pre;" transform="translate(0,206.67000000000002)">80</text></g><g class="ytick"><text text-anchor="end" x="79" y="6.3" style="font-family: 'Open Sans'; font-size: 18px; fill: rgb(255, 255, 255); fill-opacity: 1; white-space: pre;" transform="translate(0,153.32999999999998)">100</text></g><g class="ytick"><text text-anchor="end" x="79" y="6.3" style="font-family: 'Open Sans'; font-size: 18px; fill: rgb(255, 255, 255); fill-opacity: 1; white-space: pre;" transform="translate(0,100)">120</text></g></g><g class="overaxes-above"/></g></g><g class="polarlayer"/><g class="smithlayer"/><g class="ternarylayer"/><g class="geolayer"/><g class="funnelarealayer"/><g class="pielayer"/><g class="iciclelayer"/><g class="treemaplayer"/><g class="sunburstlayer"/><g class="glimages"/><defs id="topdefs-eaff2d"><g class="clips"/></defs><g class="layer-above"><g class="imagelayer"/><g class="shapelayer"/></g><g class="infolayer"><g class="g-gtitle"><text class="gtitle" x="35" y="50" text-anchor="start" dy="0em" style="opacity: 1; font-family: 'Open Sans'; font-size: 25px; fill: rgb(255, 255, 255); fill-opacity: 1; white-space: pre;">MultiQC/MultiQC - Open Pull Requests Over Time</text></g><g class="g-xtitle"><text class="xtitle" x="350" y="472.9" text-anchor="middle" style="opacity: 1; font-family: 'Open Sans'; font-size: 22px; fill: rgb(255, 255, 255); fill-opacity: 1; white-space: pre;">Date</text></g><g class="g-ytitle"><text class="ytitle" transform="rotate(-90,29.799999999999997,260)" x="29.799999999999997" y="260" text-anchor="middle" style="opacity: 1; font-family: 'Open Sans'; font-size: 22px; fill: rgb(255, 255, 255); fill-opacity: 1; white-space: pre;">Number of Open PRs</text></g></g></svg>