<svg class="main-svg" xmlns="http://www.w3.org/2000/svg" xmlns:xlink="http://www.w3.org/1999/xlink" width="700" height="500" style="" viewBox="0 0 700 500"><rect x="0" y="0" width="700" height="500" style="fill: rgb(0, 0, 0); fill-opacity: 0;"/><defs id="defs-e0b3ac"><g class="clips"><clipPath id="clipe0b3acxyplot" class="plotclip"><rect width="540" height="320"/></clipPath><clipPath class="axesclip" id="clipe0b3acx"><rect x="80" y="0" width="540" height="500"/></clipPath><clipPath class="axesclip" id="clipe0b3acy"><rect x="0" y="100" width="700" height="320"/></clipPath><clipPath class="axesclip" id="clipe0b3acxy"><rect x="80" y="100" width="540" height="320"/></clipPath></g><g class="gradients"/><g class="patterns"/></defs><g class="bglayer"><rect class="bg" x="80" y="100" width="540" height="320" style="fill: rgb(0, 0, 0); fill-opacity: 0; stroke-width: 0;"/></g><g class="layer-below"><g class="imagelayer"/><g class="shapelayer"/></g><g class="cartesianlayer"><g class="subplot xy"><g class="layer-subplot"><g class="shapelayer"/><g class="imagelayer"/></g><g class="minor-gridlayer"><g class="x"/><g class="y"/></g><g class="gridlayer"><g class="x"><path class="xgrid crisp" transform="translate(97.05,0)" d="M0,100v320" style="stroke: rgb(255, 255, 255); stroke-opacity: 1; stroke-width: 1px;"/><path class="xgrid crisp" transform="translate(201.47,0)" d="M0,100v320" style="stroke: rgb(255, 255, 255); stroke-opacity: 1; stroke-width: 1px;"/><path class="xgrid crisp" transform="translate(305.75,0)" d="M0,100v320" style="stroke: rgb(255, 255, 255); stroke-opacity: 1; stroke-width: 1px;"/><path class="xgrid crisp" transform="translate(410.16,0)" d="M0,100v320" style="stroke: rgb(255, 255, 255); stroke-opacity: 1; stroke-width: 1px;"/><path class="xgrid crisp" transform="translate(514.44,0)" d="M0,100v320" style="stroke: rgb(255, 255, 255); stroke-opacity: 1; stroke-width: 1px;"/><path class="xgrid crisp" transform="translate(618.86,0)" d="M0,100v320" style="stroke: rgb(255, 255, 255); stroke-opacity: 1; stroke-width: 1px;"/></g><g class="y"><path class="ygrid crisp" transform="translate(0,382.79)" d="M80,0h540" style="stroke: rgb(255, 255, 255); stroke-opacity: 1; stroke-width: 1px;"/><path class="ygrid crisp" transform="translate(0,345.58000000000004)" d="M80,0h540" style="stroke: rgb(255, 255, 255); stroke-opacity: 1; stroke-width: 1px;"/><path class="ygrid crisp" transform="translate(0,308.37)" d="M80,0h540" style="stroke: rgb(255, 255, 255); stroke-opacity: 1; stroke-width: 1px;"/><path class="ygrid crisp" transform="translate(0,271.15999999999997)" d="M80,0h540" style="stroke: rgb(255, 255, 255); stroke-opacity: 1; stroke-width: 1px;"/><path class="ygrid crisp" transform="translate(0,233.95)" d="M80,0h540" style="stroke: rgb(255, 255, 255); stroke-opacity: 1; stroke-width: 1px;"/><path class="ygrid crisp" transform="translate(0,196.74)" d="M80,0h540" style="stroke: rgb(255, 255, 255); stroke-opacity: 1; stroke-width: 1px;"/><path class="ygrid crisp" transform="translate(0,159.53)" d="M80,0h540" style="stroke: rgb(255, 255, 255); stroke-opacity: 1; stroke-width: 1px;"/><path class="ygrid crisp" transform="translate(0,122.33)" d="M80,0h540" style="stroke: rgb(255, 255, 255); stroke-opacity: 1; stroke-width: 1px;"/></g></g><g class="zerolinelayer"><path class="yzl zl crisp" transform="translate(0,420)" d="M80,0h540" style="stroke: rgb(255, 255, 255); stroke-opacity: 1; stroke-width: 2px;"/></g><g class="layer-between"><g class="shapelayer"/><g class="imagelayer"/></g><path class="xlines-below"/><path class="ylines-below"/><g class="overlines-below"/><g class="xaxislayer-below"/><g class="yaxislayer-below"/><g class="overaxes-below"/><g class="overplot"><g class="xy" transform="translate(80,100)" clip-path="url(#clipe0b3acxyplot)"><g class="scatterlayer mlayer"><g class="trace scatter trace22b2c0" style="stroke-miterlimit: 2;"><g class="fills"><g><path class="js-fill" d="M540,320L0,320L0,319.81L3.56,318.51L3.85,318.33L5.84,317.21L6.15,317.02L14.57,315.53L22,315.35L22.2,315.16L23.82,314.98L23.82,314.79L26.83,314.6L35.02,312.19L35.43,312L43.89,310.14L43.99,309.95L44.03,309.4L44.98,309.21L45.56,308.84L46.83,308.65L59.21,307.35L60.33,307.16L67.69,304.93L67.73,304.74L68.55,303.81L69.4,303.63L70.85,302.88L75.4,302.7L78.57,301.95L79.55,301.77L83.58,300.47L83.98,300.28L94.69,298.42L96.14,298.23L97.99,296.93L98,296.74L98.69,294.33L99.1,294.14L99.54,293.77L100.13,293.58L101.82,292.28L101.96,292.09L102.56,291.16L103.54,290.98L104.69,289.67L104.8,289.49L105.56,288.74L106.53,288.56L109.78,286.7L109.78,286.51L110.28,285.95L111.56,285.77L111.69,285.58L113.7,285.4L113.71,285.21L114.82,285.02L122.53,283.72L122.82,283.53L123.14,282.98L123.98,282.79L130.97,281.12L130.98,280.93L131.86,280.19L132.85,280L135.81,278.51L136.53,278.33L139.09,276.65L140.54,276.47L141.09,276.09L142.53,275.91L142.84,275.53L144.55,275.35L152.11,272.56L153.98,272.37L154.12,272.19L155.72,272L172.11,269.4L172.12,269.21L182.44,267.91L182.45,267.72L183.1,266.6L184.66,266.42L184.99,265.67L186.66,265.49L187.16,264.93L189.38,264.74L214.02,261.58L214.73,261.4L215.14,260.47L216.56,260.28L220.64,259.16L221.82,258.98L234.7,256.56L234.7,256.37L235.52,255.63L235.8,255.44L238.41,254.14L238.66,253.95L239.13,252.84L239.72,252.65L239.83,252.47L241.13,252.28L242.5,251.35L242.98,251.16L244.87,250.05L245.1,249.86L246.96,248.74L247,248.56L247.8,247.63L247.94,247.44L248.83,246.88L249.67,246.7L253.99,245.02L258.6,244.84L258.95,244.47L260.86,244.28L264.58,242.79L264.69,242.6L266.01,241.49L268.09,241.3L268.15,240.93L269.19,240.74L274.09,239.07L275.79,238.88L275.98,238.7L277.74,238.51L277.74,238.33L278.71,238.14L278.9,237.95L280.28,237.77L285.75,236.65L285.81,236.47L301.53,233.3L301.53,233.12L302.09,232.37L303.24,232.19L304.11,230.7L304.13,230.51L306.53,228.65L306.57,228.47L310.05,226.79L310.54,226.6L310.98,224.93L313.18,224.74L321.62,223.26L322.28,223.07L322.45,222.33L323.13,222.14L325.02,220.47L327.5,220.28L327.99,219.91L329.25,219.72L337.83,218.05L337.85,217.86L338.7,217.49L339.97,217.3L345.1,215.44L345.19,215.26L352.62,214.14L352.63,213.95L355.5,212.65L356.09,212.47L361.73,210.42L361.77,210.23L362.81,209.49L364.65,209.3L367.75,208L368.68,207.81L374.95,206.51L375.08,206.33L377.6,205.4L378.79,205.21L379.62,204.28L379.84,204.09L382.6,201.12L383.15,200.93L387.55,199.81L391.38,199.63L395.07,198.14L396.93,197.95L397.07,197.58L398.53,197.4L398.66,196.28L402.66,196.09L403.51,195.53L405.64,195.35L408.69,194.42L409.95,194.23L413.13,193.12L413.75,192.93L415.1,190.14L415.54,189.95L416.14,188.28L416.49,188.09L417.39,185.86L417.55,185.67L417.83,185.12L418.51,184.93L420.55,179.35L420.78,179.16L421.52,177.49L421.63,177.3L422.28,176.74L422.51,176.56L423.14,175.26L423.14,175.07L423.5,173.95L423.53,173.77L423.99,171.53L424.4,171.35L425.72,170.23L426.08,170.05L427.07,168.93L427.14,168.74L427.83,167.44L427.95,167.26L428.82,165.4L429.79,165.21L430.54,163.91L430.54,163.72L430.78,163.35L431.65,163.16L432.66,158.88L433.84,158.7L434.14,158.14L434.81,157.95L437.79,155.35L437.81,155.16L437.86,154.79L438.72,154.6L440.13,152L440.14,151.81L440.51,150.88L440.51,150.7L441.1,148.28L441.33,148.09L442.79,141.4L442.8,141.21L443.65,138.42L443.78,138.23L444.42,136.37L445.11,136.19L445.68,135.26L445.69,135.07L446.96,133.02L448.08,132.84L449.56,130.79L449.67,130.6L452.8,124.84L452.81,124.65L453.85,121.67L454.06,121.49L454.53,119.81L454.98,119.63L455.98,118.7L455.98,118.51L456.31,117.02L456.84,116.84L457.38,116.09L457.68,115.91L458.8,113.67L458.81,113.49L459.54,110.7L459.64,110.51L459.84,109.4L460.56,109.21L461.09,107.35L461.5,107.16L462.66,105.12L462.81,104.93L464.07,101.77L464.07,101.58L465.1,100.47L465.26,100.28L467.38,94.7L467.38,94.51L468.09,92.47L468.93,92.28L469.87,91.35L469.93,91.16L470.66,88.93L470.79,88.74L472.54,83.72L472.92,83.53L473.86,79.81L473.92,79.63L474.82,78.7L474.84,78.51L476.4,77.58L476.55,77.4L477.52,76.28L477.53,76.09L480.08,74.05L480.1,73.86L480.55,72.93L480.55,72.74L481.23,71.44L481.36,71.26L483.09,69.21L483.79,69.02L484.53,67.16L484.56,66.98L485.14,65.12L486,64.93L489.7,63.07L489.71,62.88L492,58.42L493.18,58.23L494.09,57.3L494.53,57.12L495.8,55.63L496.65,55.44L499.54,52.84L500.15,52.65L503.66,50.05L503.68,49.86L505.06,48L505.54,47.81L506.91,45.21L507.69,45.02L508.52,43.72L509.07,43.53L510.38,42.23L510.99,42.05L511.15,41.86L512.53,41.67L513.54,38.33L513.78,38.14L517,36.09L519.24,35.91L520.07,33.3L520.79,33.12L521.09,32.37L521.67,32.19L522.67,29.4L523.1,29.21L525.76,28.09L527.57,27.91L529.19,26.42L529.24,26.23L529.99,25.67L530.98,25.49L533.94,23.81L534.08,23.63L534.8,21.95L535.07,21.77L535.81,18.98L535.93,18.79L537.53,16.56L539.87,16.37L540,16" style="fill: rgb(44, 160, 44); fill-opacity: 0.5; stroke-width: 0;"/></g></g><g class="errorbars"/><g class="lines"><path class="js-line" d="M0,319.81L3.56,318.51L3.85,318.33L5.84,317.21L6.15,317.02L14.57,315.53L22,315.35L22.2,315.16L23.82,314.98L23.82,314.79L26.83,314.6L35.02,312.19L35.43,312L43.89,310.14L43.99,309.95L44.03,309.4L44.98,309.21L45.56,308.84L46.83,308.65L59.21,307.35L60.33,307.16L67.69,304.93L67.73,304.74L68.55,303.81L69.4,303.63L70.85,302.88L75.4,302.7L78.57,301.95L79.55,301.77L83.58,300.47L83.98,300.28L94.69,298.42L96.14,298.23L97.99,296.93L98,296.74L98.69,294.33L99.1,294.14L99.54,293.77L100.13,293.58L101.82,292.28L101.96,292.09L102.56,291.16L103.54,290.98L104.69,289.67L104.8,289.49L105.56,288.74L106.53,288.56L109.78,286.7L109.78,286.51L110.28,285.95L111.56,285.77L111.69,285.58L113.7,285.4L113.71,285.21L114.82,285.02L122.53,283.72L122.82,283.53L123.14,282.98L123.98,282.79L130.97,281.12L130.98,280.93L131.86,280.19L132.85,280L135.81,278.51L136.53,278.33L139.09,276.65L140.54,276.47L141.09,276.09L142.53,275.91L142.84,275.53L144.55,275.35L152.11,272.56L153.98,272.37L154.12,272.19L155.72,272L172.11,269.4L172.12,269.21L182.44,267.91L182.45,267.72L183.1,266.6L184.66,266.42L184.99,265.67L186.66,265.49L187.16,264.93L189.38,264.74L214.02,261.58L214.73,261.4L215.14,260.47L216.56,260.28L220.64,259.16L221.82,258.98L234.7,256.56L234.7,256.37L235.52,255.63L235.8,255.44L238.41,254.14L238.66,253.95L239.13,252.84L239.72,252.65L239.83,252.47L241.13,252.28L242.5,251.35L242.98,251.16L244.87,250.05L245.1,249.86L246.96,248.74L247,248.56L247.8,247.63L247.94,247.44L248.83,246.88L249.67,246.7L253.99,245.02L258.6,244.84L258.95,244.47L260.86,244.28L264.58,242.79L264.69,242.6L266.01,241.49L268.09,241.3L268.15,240.93L269.19,240.74L274.09,239.07L275.79,238.88L275.98,238.7L277.74,238.51L277.74,238.33L278.71,238.14L278.9,237.95L280.28,237.77L285.75,236.65L285.81,236.47L301.53,233.3L301.53,233.12L302.09,232.37L303.24,232.19L304.11,230.7L304.13,230.51L306.53,228.65L306.57,228.47L310.05,226.79L310.54,226.6L310.98,224.93L313.18,224.74L321.62,223.26L322.28,223.07L322.45,222.33L323.13,222.14L325.02,220.47L327.5,220.28L327.99,219.91L329.25,219.72L337.83,218.05L337.85,217.86L338.7,217.49L339.97,217.3L345.1,215.44L345.19,215.26L352.62,214.14L352.63,213.95L355.5,212.65L356.09,212.47L361.73,210.42L361.77,210.23L362.81,209.49L364.65,209.3L367.75,208L368.68,207.81L374.95,206.51L375.08,206.33L377.6,205.4L378.79,205.21L379.62,204.28L379.84,204.09L382.6,201.12L383.15,200.93L387.55,199.81L391.38,199.63L395.07,198.14L396.93,197.95L397.07,197.58L398.53,197.4L398.66,196.28L402.66,196.09L403.51,195.53L405.64,195.35L408.69,194.42L409.95,194.23L413.13,193.12L413.75,192.93L415.1,190.14L415.54,189.95L416.14,188.28L416.49,188.09L417.39,185.86L417.55,185.67L417.83,185.12L418.51,184.93L420.55,179.35L420.78,179.16L421.52,177.49L421.63,177.3L422.28,176.74L422.51,176.56L423.14,175.26L423.14,175.07L423.5,173.95L423.53,173.77L423.99,171.53L424.4,171.35L425.72,170.23L426.08,170.05L427.07,168.93L427.14,168.74L427.83,167.44L427.95,167.26L428.82,165.4L429.79,165.21L430.54,163.91L430.54,163.72L430.78,163.35L431.65,163.16L432.66,158.88L433.84,158.7L434.14,158.14L434.81,157.95L437.79,155.35L437.81,155.16L437.86,154.79L438.72,154.6L440.13,152L440.14,151.81L440.51,150.88L440.51,150.7L441.1,148.28L441.33,148.09L442.79,141.4L442.8,141.21L443.65,138.42L443.78,138.23L444.42,136.37L445.11,136.19L445.68,135.26L445.69,135.07L446.96,133.02L448.08,132.84L449.56,130.79L449.67,130.6L452.8,124.84L452.81,124.65L453.85,121.67L454.06,121.49L454.53,119.81L454.98,119.63L455.98,118.7L455.98,118.51L456.31,117.02L456.84,116.84L457.38,116.09L457.68,115.91L458.8,113.67L458.81,113.49L459.54,110.7L459.64,110.51L459.84,109.4L460.56,109.21L461.09,107.35L461.5,107.16L462.66,105.12L462.81,104.93L464.07,101.77L464.07,101.58L465.1,100.47L465.26,100.28L467.38,94.7L467.38,94.51L468.09,92.47L468.93,92.28L469.87,91.35L469.93,91.16L470.66,88.93L470.79,88.74L472.54,83.72L472.92,83.53L473.86,79.81L473.92,79.63L474.82,78.7L474.84,78.51L476.4,77.58L476.55,77.4L477.52,76.28L477.53,76.09L480.08,74.05L480.1,73.86L480.55,72.93L480.55,72.74L481.23,71.44L481.36,71.26L483.09,69.21L483.79,69.02L484.53,67.16L484.56,66.98L485.14,65.12L486,64.93L489.7,63.07L489.71,62.88L492,58.42L493.18,58.23L494.09,57.3L494.53,57.12L495.8,55.63L496.65,55.44L499.54,52.84L500.15,52.65L503.66,50.05L503.68,49.86L505.06,48L505.54,47.81L506.91,45.21L507.69,45.02L508.52,43.72L509.07,43.53L510.38,42.23L510.99,42.05L511.15,41.86L512.53,41.67L513.54,38.33L513.78,38.14L517,36.09L519.24,35.91L520.07,33.3L520.79,33.12L521.09,32.37L521.67,32.19L522.67,29.4L523.1,29.21L525.76,28.09L527.57,27.91L529.19,26.42L529.24,26.23L529.99,25.67L530.98,25.49L533.94,23.81L534.08,23.63L534.8,21.95L535.07,21.77L535.81,18.98L535.93,18.79L537.53,16.56L539.87,16.37L540,16" style="vector-effect: none; fill: none; stroke: rgb(44, 160, 44); stroke-opacity: 1; stroke-width: 2px; opacity: 1;"/></g><g class="points"/><g class="text"/></g></g></g></g><g class="zerolinelayer-above"/><path class="xlines-above crisp" d="M0,0" style="fill: none;"/><path class="ylines-above crisp" d="M0,0" style="fill: none;"/><g class="overlines-above"/><g class="xaxislayer-above"><g class="xtick"><text text-anchor="middle" x="0" y="439" transform="translate(97.05,0)" style="font-family: 'Open Sans'; font-size: 18px; fill: rgb(255, 255, 255); fill-opacity: 1; white-space: pre;">2016</text></g><g class="xtick"><text text-anchor="middle" x="0" y="439" style="font-family: 'Open Sans'; font-size: 18px; fill: rgb(255, 255, 255); fill-opacity: 1; white-space: pre;" transform="translate(201.47,0)">2018</text></g><g class="xtick"><text text-anchor="middle" x="0" y="439" style="font-family: 'Open Sans'; font-size: 18px; fill: rgb(255, 255, 255); fill-opacity: 1; white-space: pre;" transform="translate(305.75,0)">2020</text></g><g class="xtick"><text text-anchor="middle" x="0" y="439" style="font-family: 'Open Sans'; font-size: 18px; fill: rgb(255, 255, 255); fill-opacity: 1; white-space: pre;" transform="translate(410.16,0)">2022</text></g><g class="xtick"><text text-anchor="middle" x="0" y="439" style="font-family: 'Open Sans'; font-size: 18px; fill: rgb(255, 255, 255); fill-opacity: 1; white-space: pre;" transform="translate(514.44,0)">2024</text></g><g class="xtick"><text text-anchor="middle" x="0" y="439" style="font-family: 'Open Sans'; font-size: 18px; fill: rgb(255, 255, 255); fill-opacity: 1; white-space: pre;" transform="translate(618.86,0)">2026</text></g></g><g class="yaxislayer-above"><g class="ytick"><text text-anchor="end" x="79" y="6.3" transform="translate(0,420)" style="font-family: 'Open Sans'; font-size: 18px; fill: rgb(255, 255, 255); fill-opacity: 1; white-space: pre;">0</text></g><g class="ytick"><text text-anchor="end" x="79" y="6.3" style="font-family: 'Open Sans'; font-size: 18px; fill: rgb(255, 255, 255); fill-opacity: 1; white-space: pre;" transform="translate(0,382.79)">200</text></g><g class="ytick"><text text-anchor="end" x="79" y="6.3" style="font-family: 'Open Sans'; font-size: 18px; fill: rgb(255, 255, 255); fill-opacity: 1; white-space: pre;" transform="translate(0,345.58000000000004)">400</text></g><g class="ytick"><text text-anchor="end" x="79" y="6.3" style="font-family: 'Open Sans'; font-size: 18px; fill: rgb(255, 255, 255); fill-opacity: 1; white-space: pre;" transform="translate(0,308.37)">600</text></g><g class="ytick"><text text-anchor="end" x="79" y="6.3" style="font-family: 'Open Sans'; font-size: 18px; fill: rgb(255, 255, 255); fill-opacity: 1; white-space: pre;" transform="translate(0,271.15999999999997)">800</text></g><g class="ytick"><text text-anchor="end" x="79" y="6.3" style="font-family: 'Open Sans'; font-size: 18px; fill: rgb(255, 255, 255); fill-opacity: 1; white-space: pre;" transform="translate(0,233.95)">1000</text></g><g class="ytick"><text text-anchor="end" x="79" y="6.3" style="font-family: 'Open Sans'; font-size: 18px; fill: rgb(255, 255, 255); fill-opacity: 1; white-space: pre;" transform="translate(0,196.74)">1200</text></g><g class="ytick"><text text-anchor="end" x="79" y="6.3" style="font-family: 'Open Sans'; font-size: 18px; fill: rgb(255, 255, 255); fill-opacity: 1; white-space: pre;" transform="translate(0,159.53)">1400</text></g><g class="ytick"><text text-anchor="end" x="79" y="6.3" style="font-family: 'Open Sans'; font-size: 18px; fill: rgb(255, 255, 255); fill-opacity: 1; white-space: pre;" transform="translate(0,122.33)">1600</text></g></g><g class="overaxes-above"/></g></g><g class="polarlayer"/><g class="smithlayer"/><g class="ternarylayer"/><g class="geolayer"/><g class="funnelarealayer"/><g class="pielayer"/><g class="iciclelayer"/><g class="treemaplayer"/><g class="sunburstlayer"/><g class="glimages"/><defs id="topdefs-e0b3ac"><g class="clips"/></defs><g class="layer-above"><g class="imagelayer"/><g class="shapelayer"/></g><g class="infolayer"><g class="g-gtitle"><text class="gtitle" x="35" y="50" text-anchor="start" dy="0em" style="opacity: 1; font-family: 'Open Sans'; font-size: 25px; fill: rgb(255, 255, 255); fill-opacity: 1; white-space: pre;">MultiQC/MultiQC - Pull Requests Created Over Time</text></g><g class="g-xtitle"><text class="xtitle" x="350" y="472.9" text-anchor="middle" style="opacity: 1; font-family: 'Open Sans'; font-size: 22px; fill: rgb(255, 255, 255); fill-opacity: 1; white-space: pre;">Date</text></g><g class="g-ytitle"><text class="ytitle" transform="rotate(-90,20.799999999999997,260)" x="20.799999999999997" y="260" text-anchor="middle" style="opacity: 1; font-family: 'Open Sans'; font-size: 22px; fill: rgb(255, 255, 255); fill-opacity: 1; white-space: pre;">Cumulative PRs Created</text></g></g></svg>