<svg class="main-svg" xmlns="http://www.w3.org/2000/svg" xmlns:xlink="http://www.w3.org/1999/xlink" width="700" height="500" style="" viewBox="0 0 700 500"><rect x="0" y="0" width="700" height="500" style="fill: rgb(0, 0, 0); fill-opacity: 0;"/><defs id="defs-1a7ba5"><g class="clips"><clipPath id="clip1a7ba5xyplot" class="plotclip"><rect width="540" height="320"/></clipPath><clipPath class="axesclip" id="clip1a7ba5x"><rect x="80" y="0" width="540" height="500"/></clipPath><clipPath class="axesclip" id="clip1a7ba5y"><rect x="0" y="100" width="700" height="320"/></clipPath><clipPath class="axesclip" id="clip1a7ba5xy"><rect x="80" y="100" width="540" height="320"/></clipPath></g><g class="gradients"/><g class="patterns"/></defs><g class="bglayer"><rect class="bg" x="80" y="100" width="540" height="320" style="fill: rgb(0, 0, 0); fill-opacity: 0; stroke-width: 0;"/></g><g class="layer-below"><g class="imagelayer"/><g class="shapelayer"/></g><g class="cartesianlayer"><g class="subplot xy"><g class="layer-subplot"><g class="shapelayer"/><g class="imagelayer"/></g><g class="minor-gridlayer"><g class="x"/><g class="y"/></g><g class="gridlayer"><g class="x"><path class="xgrid crisp" transform="translate(96.39,0)" d="M0,100v320" style="stroke: rgb(255, 255, 255); stroke-opacity: 1; stroke-width: 1px;"/><path class="xgrid crisp" transform="translate(196.76,0)" d="M0,100v320" style="stroke: rgb(255, 255, 255); stroke-opacity: 1; stroke-width: 1px;"/><path class="xgrid crisp" transform="translate(296.99,0)" d="M0,100v320" style="stroke: rgb(255, 255, 255); stroke-opacity: 1; stroke-width: 1px;"/><path class="xgrid crisp" transform="translate(397.35,0)" d="M0,100v320" style="stroke: rgb(255, 255, 255); stroke-opacity: 1; stroke-width: 1px;"/><path class="xgrid crisp" transform="translate(497.58,0)" d="M0,100v320" style="stroke: rgb(255, 255, 255); stroke-opacity: 1; stroke-width: 1px;"/><path class="xgrid crisp" transform="translate(597.94,0)" d="M0,100v320" style="stroke: rgb(255, 255, 255); stroke-opacity: 1; stroke-width: 1px;"/></g><g class="y"><path class="ygrid crisp" transform="translate(0,372.87)" d="M80,0h540" style="stroke: rgb(255, 255, 255); stroke-opacity: 1; stroke-width: 1px;"/><path class="ygrid crisp" transform="translate(0,325.74)" d="M80,0h540" style="stroke: rgb(255, 255, 255); stroke-opacity: 1; stroke-width: 1px;"/><path class="ygrid crisp" transform="translate(0,278.6)" d="M80,0h540" style="stroke: rgb(255, 255, 255); stroke-opacity: 1; stroke-width: 1px;"/><path class="ygrid crisp" transform="translate(0,231.47)" d="M80,0h540" style="stroke: rgb(255, 255, 255); stroke-opacity: 1; stroke-width: 1px;"/><path class="ygrid crisp" transform="translate(0,184.34)" d="M80,0h540" style="stroke: rgb(255, 255, 255); stroke-opacity: 1; stroke-width: 1px;"/><path class="ygrid crisp" transform="translate(0,137.21)" d="M80,0h540" style="stroke: rgb(255, 255, 255); stroke-opacity: 1; stroke-width: 1px;"/></g></g><g class="zerolinelayer"><path class="yzl zl crisp" transform="translate(0,420)" d="M80,0h540" style="stroke: rgb(255, 255, 255); stroke-opacity: 1; stroke-width: 2px;"/></g><g class="layer-between"><g class="shapelayer"/><g class="imagelayer"/></g><path class="xlines-below"/><path class="ylines-below"/><g class="overlines-below"/><g class="xaxislayer-below"/><g class="yaxislayer-below"/><g class="overaxes-below"/><g class="overplot"><g class="xy" transform="translate(80,100)" clip-path="url(#clip1a7ba5xyplot)"><g class="scatterlayer mlayer"><g class="trace scatter trace06deb9" style="stroke-miterlimit: 2;"><g class="fills"><g><path class="js-fill" d="M540,320L0,320L0,317.64L0.1,320L1,317.64L1.66,320L1.76,317.64L1.76,320L2.98,317.64L3.7,320L4.54,317.64L4.54,320L4.64,320L5.34,317.64L5.34,320L5.91,320L6.72,317.64L6.72,320L7.28,320L8.77,317.64L8.77,320L9.39,317.64L9.6,320L11.25,317.64L11.25,320L14,317.64L14,320L21.14,317.64L21.14,320L21.33,317.64L21.33,320L22.89,317.64L22.9,315.29L23.03,317.64L24.14,320L25.79,317.64L25.79,320L27.06,315.29L27.06,317.64L27.06,320L29.8,317.64L29.8,320L29.93,320L31.14,317.64L31.14,320L31.72,320L32.58,317.64L32.58,320L33.33,320L33.37,317.64L33.37,320L34.05,317.64L34.14,320L36.66,315.29L37.08,317.64L37.19,315.29L37.19,317.64L38.45,320L39.15,317.64L39.15,320L40.8,317.64L40.8,320L41.85,317.64L41.85,320L42.32,310.57L42.43,312.93L42.94,315.29L43.36,317.64L43.79,315.29L43.8,317.64L45.01,315.29L48.74,312.93L48.74,315.29L49.02,317.64L49.79,315.29L50.67,320L52.03,317.64L52.42,320L55.46,317.64L55.46,320L55.46,317.64L56.91,315.29L57.22,317.64L57.98,315.29L58.76,312.93L58.77,315.29L59.32,320L61.1,317.64L61.39,320L62.04,317.64L62.19,315.29L63.13,317.64L63.3,312.93L63.42,315.29L64.23,317.64L64.52,315.29L64.52,317.64L65.06,315.29L65.13,310.57L65.24,320L65.32,320L65.89,317.64L66.71,315.29L66.71,317.64L67.42,312.93L67.42,315.29L68.1,312.93L72.47,310.57L72.93,308.22L74.56,320L75.52,317.64L75.52,320L76.46,317.64L77.62,315.29L77.67,317.64L78.7,312.93L79.1,310.57L79.6,308.22L79.6,310.57L79.62,312.93L80.72,308.22L80.73,310.57L81.54,308.22L81.54,310.57L81.82,312.93L82.37,310.57L82.37,312.93L82.38,310.57L84.13,312.93L84.3,310.57L84.3,312.93L85.17,310.57L85.39,312.93L86.09,310.57L86.53,308.22L87.28,310.57L87.97,308.22L88.26,310.57L90.45,308.22L90.45,310.57L91.02,308.22L91.04,310.57L92.37,312.93L92.86,310.57L93.06,312.93L93.2,310.57L93.21,312.93L94.18,310.57L94.19,296.43L94.87,308.22L95.13,310.57L95.14,312.93L95.29,308.22L95.68,308.22L96.24,305.86L96.93,308.22L97.1,305.86L97.61,301.15L97.77,305.86L97.86,308.22L98.46,298.79L98.58,303.5L99.52,305.86L99.93,298.79L99.94,298.79L100.45,301.15L101.47,289.36L102.39,287.01L103.38,289.36L103.66,287.01L103.78,291.72L104.35,291.72L104.47,289.36L104.76,298.79L104.89,296.43L105.52,294.08L106,284.65L106,287.01L106.37,289.36L106.41,291.72L107.23,289.36L107.36,287.01L107.37,289.36L108.62,291.72L109.3,301.15L110.36,298.79L110.36,301.15L112.45,298.79L112.45,296.43L112.45,301.15L114.37,298.79L114.38,301.15L114.38,298.79L115.41,301.15L115.46,298.79L117.25,296.43L118.05,301.15L118.06,298.79L118.21,301.15L118.36,298.79L118.37,301.15L119.17,298.79L119.48,301.15L120.16,298.79L120.19,301.15L121.76,298.79L121.79,301.15L123.57,298.79L123.67,301.15L124.05,298.79L124.52,296.43L124.64,298.79L125.49,296.43L125.5,298.79L125.89,289.36L126.03,289.36L126.41,287.01L126.74,298.79L126.74,298.79L127.69,296.43L127.97,301.15L128.65,298.79L129.6,296.43L129.71,294.08L130.25,296.43L130.43,294.08L130.53,291.72L131.23,287.01L131.26,289.36L131.56,287.01L131.77,289.36L132.2,287.01L132.21,284.65L132.21,277.58L132.36,291.72L133.58,289.36L133.69,287.01L133.7,289.36L135.09,287.01L135.83,296.43L137,294.08L137.39,296.43L138.94,294.08L139.99,291.72L139.99,294.08L141.27,287.01L141.27,289.36L141.52,291.72L141.54,294.08L141.93,289.36L142.25,291.72L143.2,294.08L143.37,298.79L144.05,296.43L144.14,294.08L145.69,291.72L146.21,284.65L146.22,289.36L146.22,291.72L146.27,296.43L148.01,294.08L148.1,296.43L148.14,294.08L149.67,291.72L149.69,294.08L151,291.72L151,294.08L151.41,291.72L151.85,289.36L152.51,287.01L152.54,289.36L155.3,291.72L158.23,287.01L158.94,284.65L159.69,287.01L160.37,284.65L160.38,287.01L162.96,284.65L163.4,287.01L163.99,284.65L165.17,282.29L165.4,284.65L165.4,282.29L165.44,301.15L165.44,298.79L167.75,296.43L167.76,298.79L170.02,301.15L171.08,298.79L171.08,301.15L171.69,298.79L171.72,301.15L173.85,298.79L174,296.43L175.34,298.79L175.35,301.15L175.92,282.29L176.03,291.72L177.49,289.36L177.81,282.29L179.41,279.94L179.9,277.58L179.91,279.94L182.03,277.58L182.5,279.94L183.78,277.58L184.07,279.94L184.36,277.58L186.47,275.22L189.35,272.87L189.45,275.22L190.32,272.87L190.99,275.22L191.03,270.51L191.24,272.87L192.09,275.22L192.34,284.65L193.14,287.01L193.21,289.36L193.31,284.65L196.62,282.29L197.16,284.65L197.83,282.29L197.97,279.94L200.04,277.58L202.89,275.22L204.42,272.87L204.44,270.51L205.71,268.16L206.47,270.51L206.48,268.16L206.78,284.65L206.79,282.29L207.73,284.65L208.14,287.01L208.15,284.65L209.26,287.01L209.7,291.72L210.06,289.36L210.08,291.72L210.59,284.65L210.63,289.36L211.17,291.72L211.2,294.08L212.08,291.72L213.21,289.36L213.22,291.72L215.14,287.01L215.41,284.65L217.69,282.29L218.78,284.65L220.3,282.29L220.77,279.94L222.99,275.22L223,277.58L223.83,270.51L225.59,268.16L225.87,261.09L226.38,258.73L227.41,254.02L227.46,256.37L229.62,239.88L229.7,242.23L229.7,244.59L229.85,237.52L230.42,239.88L230.53,237.52L231.77,235.16L231.92,232.81L232.18,242.23L232.18,244.59L232.34,256.37L232.61,251.66L233.09,249.3L234.1,289.36L234.33,287.01L234.5,284.65L234.52,282.29L235.09,289.36L235.18,287.01L235.36,284.65L236.26,291.72L236.27,289.36L236.27,287.01L236.98,296.43L237.22,294.08L237.22,296.43L237.41,287.01L237.94,294.08L238.18,291.72L238.32,294.08L238.47,291.72L239.14,289.36L239.17,287.01L239.96,289.36L240.44,284.65L241.05,282.29L242.72,275.22L242.72,277.58L244.14,270.51L245.05,272.87L248.56,270.51L248.65,268.16L248.9,265.8L249.19,268.16L250.73,265.8L251.64,261.09L251.98,258.73L252.35,256.37L253.89,254.02L254.31,246.95L254.51,254.02L254.51,256.37L255.69,244.59L257.68,242.23L257.74,237.52L258.74,235.16L260.32,230.45L260.36,232.81L260.37,249.3L260.98,239.88L261.25,237.52L261.25,239.88L261.39,237.52L263.45,235.16L265.09,232.81L265.27,230.45L266.96,228.09L266.96,230.45L266.96,228.09L266.97,230.45L267.89,228.09L268.07,225.74L268.72,228.09L269.65,237.52L269.84,239.88L271.33,237.52L271.84,239.88L273.17,235.16L273.84,232.81L273.84,235.16L274.61,232.81L274.72,228.09L275.83,230.45L276.37,258.73L278.84,256.37L279.31,258.73L279.69,256.37L279.7,258.73L282.42,256.37L283.1,261.09L283.13,258.73L283.24,256.37L283.24,258.73L283.49,258.73L284.15,261.09L284.32,256.37L284.32,258.73L286.59,256.37L287.37,251.66L289.32,249.3L289.83,244.59L289.96,242.23L289.97,239.88L290.02,251.66L290.36,246.95L290.8,249.3L291.26,254.02L291.47,251.66L291.72,249.3L292.49,279.94L292.71,277.58L293.66,270.51L294.26,268.16L295.23,256.37L296.16,254.02L297.12,249.3L297.18,246.95L298.58,237.52L298.6,235.16L298.91,218.67L301.03,216.31L302.87,213.95L302.87,211.6L306.14,213.95L306.21,211.6L307.83,206.88L308.39,204.53L309.77,197.46L309.77,195.1L309.9,190.39L310.28,239.88L310.59,237.52L311.01,235.16L311.03,242.23L311.27,239.88L311.42,237.52L312.41,225.74L312.52,228.09L314.78,225.74L315.26,223.38L315.55,225.74L316.47,223.38L316.84,225.74L317.96,223.38L319.36,225.74L319.39,232.81L320.02,230.45L320.71,232.81L321.13,246.95L321.53,249.3L321.66,246.95L321.96,254.02L322.15,251.66L322.52,254.02L323.61,246.95L323.86,244.59L324.72,242.23L324.74,239.88L325.55,235.16L325.8,237.52L326.38,239.88L326.77,237.52L326.77,239.88L327.46,237.52L327.72,239.88L327.72,244.59L328.27,242.23L329.56,239.88L329.76,235.16L330.2,244.59L330.75,242.23L331.71,235.16L331.79,232.81L331.81,235.16L334.78,232.81L335.15,235.16L336.48,232.81L336.91,230.45L336.91,232.81L337.64,235.16L337.91,232.81L337.99,237.52L338.72,235.16L339.79,228.09L339.79,230.45L340.21,225.74L340.76,223.38L341.17,228.09L341.19,223.38L341.7,225.74L342.27,223.38L342.28,225.74L342.97,223.38L343.11,225.74L343.76,223.38L344.88,218.67L344.89,216.31L344.94,221.02L345.69,218.67L346.53,213.95L347.6,211.6L348.73,197.46L348.84,199.81L350.49,197.46L350.77,195.1L351.8,192.74L351.8,195.1L351.94,209.24L351.94,211.6L351.94,213.95L351.94,209.24L352.06,213.95L353.47,211.6L354.37,209.24L354.38,211.6L356.16,209.24L356.16,211.6L356.57,209.24L358.91,206.88L358.91,209.24L359.56,209.24L360.14,206.88L360.86,197.46L360.93,199.81L362.07,197.46L362.16,192.74L362.59,206.88L362.94,204.53L363.16,206.88L364.09,204.53L364.89,195.1L365.1,192.74L365.66,204.53L365.76,197.46L365.95,195.1L366.63,209.24L366.86,206.88L367.67,230.45L367.74,228.09L368.43,242.23L368.79,239.88L369.56,242.23L371.91,239.88L372.51,232.81L372.53,235.16L372.76,237.52L376.19,235.16L376.21,237.52L376.9,232.81L377.77,235.16L378.85,232.81L379.74,230.45L379.74,232.81L381.53,230.45L381.66,225.74L382.65,228.09L383.18,221.02L383.18,218.67L383.19,211.6L386.81,213.95L387.85,204.53L389.89,202.17L390.37,197.46L390.37,199.81L390.37,202.17L392.39,197.46L392.83,195.1L395.5,190.39L395.68,188.03L396.24,185.67L396.24,188.03L396.4,190.39L396.98,202.17L397.11,199.81L397.69,197.46L397.73,199.81L398.04,188.03L398.43,185.67L398.61,178.6L398.8,185.67L398.8,188.03L398.81,192.74L399.42,183.32L399.55,180.96L399.82,178.6L399.92,185.67L399.94,188.03L399.99,185.67L400.63,195.1L400.67,192.74L400.75,190.39L400.76,199.81L401.36,197.46L401.62,195.1L402.32,192.74L402.33,190.39L402.74,204.53L403.22,199.81L403.25,197.46L403.62,183.32L403.81,209.24L404.1,206.88L404.53,192.74L404.67,202.17L404.67,204.53L404.72,209.24L405.27,202.17L405.3,204.53L405.89,202.17L406.02,209.24L406.57,197.46L406.65,195.1L406.7,197.46L407.07,180.96L407.07,180.96L407.09,178.6L407.1,173.89L407.23,213.95L407.53,204.53L407.93,202.17L408.34,197.46L408.56,204.53L408.6,202.17L408.99,199.81L409.62,206.88L409.95,209.24L410.24,211.6L410.56,202.17L410.91,204.53L411.05,216.31L411.51,213.95L411.9,211.6L412.54,223.38L413.11,221.02L413.44,223.38L413.82,213.95L413.83,211.6L414.06,204.53L414.76,206.88L414.89,218.67L415.19,202.17L415.51,209.24L415.58,211.6L415.72,206.88L415.72,213.95L415.88,213.95L417,211.6L417.13,216.31L417.29,211.6L417.93,209.24L418.09,211.6L418.26,206.88L418.59,204.53L418.62,211.6L419.01,206.88L419.69,204.53L420.18,202.17L420.18,204.53L420.18,206.88L420.69,202.17L420.69,199.81L420.7,197.46L420.74,206.88L420.87,199.81L421.69,197.46L421.91,190.39L422.11,202.17L422.24,204.53L422.62,221.02L422.99,218.67L423.04,216.31L423.4,211.6L423.41,223.38L423.55,221.02L423.8,218.67L423.85,221.02L424.56,213.95L424.68,211.6L425.25,228.09L425.36,228.09L425.5,225.74L425.6,211.6L425.62,228.09L426.29,216.31L426.43,213.95L426.57,218.67L426.89,206.88L427.15,209.24L427.67,230.45L427.83,228.09L428.24,230.45L428.66,218.67L428.94,221.02L429.18,218.67L429.18,221.02L429.61,216.31L429.61,216.31L430.69,213.95L431.27,209.24L431.27,211.6L432.05,209.24L432.09,206.88L432.12,225.74L432.51,223.38L433.03,225.74L433.15,228.09L433.28,218.67L433.29,218.67L433.3,216.31L433.71,209.24L434.02,221.02L434.09,218.67L434.33,213.95L434.67,230.45L434.67,228.09L434.96,230.45L435.26,223.38L435.53,228.09L435.83,230.45L436.18,232.81L436.48,223.38L436.5,225.74L436.89,223.38L437.94,216.31L438.26,218.67L438.26,221.02L438.29,216.31L438.41,225.74L438.83,225.74L439.11,223.38L439.13,225.74L439.38,221.02L439.62,225.74L439.91,223.38L440.21,232.81L440.46,228.09L440.76,230.45L441.41,225.74L441.41,228.09L441.64,225.74L441.81,218.67L441.82,228.09L441.99,223.38L442.68,225.74L442.68,223.38L443.2,232.81L443.59,230.45L443.88,228.09L443.89,232.81L444.16,230.45L444.44,228.09L445.09,225.74L445.09,228.09L445.25,230.45L445.26,228.09L445.4,239.88L445.98,235.16L445.98,237.52L446.06,232.81L446.63,239.88L446.65,237.52L446.75,239.88L447.43,228.09L447.44,237.52L447.44,239.88L447.46,237.52L447.58,242.23L448.14,239.88L448.39,237.52L448.39,242.23L449.12,239.88L449.23,242.23L449.24,246.95L449.92,242.23L450.73,239.88L450.85,242.23L451.49,239.88L451.63,235.16L451.69,246.95L451.72,246.95L451.72,249.3L452.39,239.88L452.4,246.95L452.4,249.3L453.07,244.59L453.1,246.95L453.18,249.3L453.49,242.23L453.49,244.59L454.03,242.23L454.03,244.59L454.74,235.16L454.75,237.52L455.01,239.88L455.32,244.59L455.53,237.52L456.12,235.16L456.39,239.88L456.41,237.52L457.33,235.16L457.33,237.52L457.91,232.81L458.05,232.81L458.55,230.45L458.99,225.74L459.26,230.45L459.38,228.09L459.4,225.74L460.28,228.09L460.88,225.74L461.17,235.16L461.21,232.81L461.89,239.88L462.13,237.52L462.13,235.16L462.15,237.52L462.83,225.74L462.84,235.16L462.88,232.81L463.77,230.45L463.77,232.81L464.32,228.09L464.34,225.74L465.08,239.88L465.15,242.23L465.87,235.16L465.88,239.88L465.89,242.23L466.39,249.3L467.14,246.95L467.52,249.3L467.55,246.95L468.18,244.59L468.71,249.3L469.46,246.95L469.89,242.23L470.28,244.59L470.36,246.95L470.71,242.23L470.77,246.95L470.78,249.3L471.52,244.59L471.52,246.95L471.61,244.59L471.93,239.88L471.93,242.23L472.6,244.59L472.73,239.88L473.2,244.59L474.04,242.23L474.87,239.88L474.87,242.23L474.91,244.59L475.45,239.88L475.45,244.59L476.3,242.23L476.41,237.52L476.42,244.59L476.56,239.88L477.37,242.23L477.94,232.81L478.25,230.45L478.75,232.81L478.92,230.45L478.92,228.09L479.54,218.67L479.55,232.81L479.64,230.45L479.88,228.09L480.16,225.74L480.16,230.45L480.16,232.81L480.74,230.45L480.97,232.81L481.08,230.45L481.38,237.52L482.01,239.88L482.48,235.16L482.59,239.88L482.6,242.23L482.6,239.88L482.97,246.95L483.25,246.95L483.41,244.59L484,242.23L484.08,244.59L484.1,246.95L484.29,239.88L484.43,242.23L485.06,239.88L485.88,246.95L485.92,244.59L486.15,246.95L486.57,242.23L486.83,244.59L487.15,237.52L487.23,242.23L487.99,239.88L488.36,244.59L488.43,237.52L488.77,235.16L489.31,230.45L489.43,242.23L489.46,242.23L489.77,239.88L491.31,228.09L491.7,230.45L491.71,232.81L492.64,230.45L492.88,235.16L493.31,225.74L493.36,232.81L493.44,230.45L493.84,232.81L494.14,230.45L495.5,228.09L496.63,218.67L496.73,221.02L496.73,223.38L496.73,225.74L496.89,218.67L496.93,218.67L499.09,221.02L499.46,216.31L499.77,235.16L499.87,232.81L499.88,235.16L500.58,228.09L500.59,230.45L500.85,232.81L501.55,218.67L501.59,221.02L501.69,223.38L501.79,221.02L502.23,228.09L502.38,221.02L502.8,218.67L503.31,213.95L503.32,216.31L503.34,218.67L503.5,213.95L503.5,218.67L505.36,216.31L505.36,218.67L507.09,216.31L508.6,204.53L508.65,202.17L508.65,199.81L508.66,206.88L509.1,204.53L509.42,202.17L510.91,197.46L511.14,195.1L511.14,197.46L511.61,190.39L512.73,188.03L513.37,178.6L513.37,176.25L513.37,178.6L513.94,164.47L514.04,164.47L514.3,162.11L514.3,164.47L514.74,152.68L515.02,152.68L515.13,150.33L515.13,152.68L515.85,145.61L515.94,147.97L516.67,136.19L518.91,133.83L520.14,117.33L521.06,114.98L522.71,110.26L524.47,107.91L525.05,98.48L525.38,96.12L526.75,81.98L527,79.63L528.39,74.91L528.61,72.56L529.47,65.49L529.87,63.13L531.09,60.78L531.1,58.42L532.47,53.71L533.09,51.35L533.09,53.71L533.51,53.71L533.94,51.35L535.09,46.64L535.38,44.28L535.38,46.64L535.98,34.85L536.12,41.92L536.14,39.57L536.2,41.92L536.33,39.57L536.89,37.21L536.89,39.57L537.28,20.71L538.14,18.36L540,16" style="fill: rgb(44, 160, 44); fill-opacity: 0.5; stroke-width: 0;"/></g></g><g class="errorbars"/><g class="lines"><path class="js-line" d="M0,317.64L0.1,320L1,317.64L1.66,320L1.76,317.64L1.76,320L2.98,317.64L3.7,320L4.54,317.64L4.54,320L4.64,320L5.34,317.64L5.34,320L5.91,320L6.72,317.64L6.72,320L7.28,320L8.77,317.64L8.77,320L9.39,317.64L9.6,320L11.25,317.64L11.25,320L14,317.64L14,320L21.14,317.64L21.14,320L21.33,317.64L21.33,320L22.89,317.64L22.9,315.29L23.03,317.64L24.14,320L25.79,317.64L25.79,320L27.06,315.29L27.06,317.64L27.06,320L29.8,317.64L29.8,320L29.93,320L31.14,317.64L31.14,320L31.72,320L32.58,317.64L32.58,320L33.33,320L33.37,317.64L33.37,320L34.05,317.64L34.14,320L36.66,315.29L37.08,317.64L37.19,315.29L37.19,317.64L38.45,320L39.15,317.64L39.15,320L40.8,317.64L40.8,320L41.85,317.64L41.85,320L42.32,310.57L42.43,312.93L42.94,315.29L43.36,317.64L43.79,315.29L43.8,317.64L45.01,315.29L48.74,312.93L48.74,315.29L49.02,317.64L49.79,315.29L50.67,320L52.03,317.64L52.42,320L55.46,317.64L55.46,320L55.46,317.64L56.91,315.29L57.22,317.64L57.98,315.29L58.76,312.93L58.77,315.29L59.32,320L61.1,317.64L61.39,320L62.04,317.64L62.19,315.29L63.13,317.64L63.3,312.93L63.42,315.29L64.23,317.64L64.52,315.29L64.52,317.64L65.06,315.29L65.13,310.57L65.24,320L65.32,320L65.89,317.64L66.71,315.29L66.71,317.64L67.42,312.93L67.42,315.29L68.1,312.93L72.47,310.57L72.93,308.22L74.56,320L75.52,317.64L75.52,320L76.46,317.64L77.62,315.29L77.67,317.64L78.7,312.93L79.1,310.57L79.6,308.22L79.6,310.57L79.62,312.93L80.72,308.22L80.73,310.57L81.54,308.22L81.54,310.57L81.82,312.93L82.37,310.57L82.37,312.93L82.38,310.57L84.13,312.93L84.3,310.57L84.3,312.93L85.17,310.57L85.39,312.93L86.09,310.57L86.53,308.22L87.28,310.57L87.97,308.22L88.26,310.57L90.45,308.22L90.45,310.57L91.02,308.22L91.04,310.57L92.37,312.93L92.86,310.57L93.06,312.93L93.2,310.57L93.21,312.93L94.18,310.57L94.19,296.43L94.87,308.22L95.13,310.57L95.14,312.93L95.29,308.22L95.68,308.22L96.24,305.86L96.93,308.22L97.1,305.86L97.61,301.15L97.77,305.86L97.86,308.22L98.46,298.79L98.58,303.5L99.52,305.86L99.93,298.79L99.94,298.79L100.45,301.15L101.47,289.36L102.39,287.01L103.38,289.36L103.66,287.01L103.78,291.72L104.35,291.72L104.47,289.36L104.76,298.79L104.89,296.43L105.52,294.08L106,284.65L106,287.01L106.37,289.36L106.41,291.72L107.23,289.36L107.36,287.01L107.37,289.36L108.62,291.72L109.3,301.15L110.36,298.79L110.36,301.15L112.45,298.79L112.45,296.43L112.45,301.15L114.37,298.79L114.38,301.15L114.38,298.79L115.41,301.15L115.46,298.79L117.25,296.43L118.05,301.15L118.06,298.79L118.21,301.15L118.36,298.79L118.37,301.15L119.17,298.79L119.48,301.15L120.16,298.79L120.19,301.15L121.76,298.79L121.79,301.15L123.57,298.79L123.67,301.15L124.05,298.79L124.52,296.43L124.64,298.79L125.49,296.43L125.5,298.79L125.89,289.36L126.03,289.36L126.41,287.01L126.74,298.79L126.74,298.79L127.69,296.43L127.97,301.15L128.65,298.79L129.6,296.43L129.71,294.08L130.25,296.43L130.43,294.08L130.53,291.72L131.23,287.01L131.26,289.36L131.56,287.01L131.77,289.36L132.2,287.01L132.21,284.65L132.21,277.58L132.36,291.72L133.58,289.36L133.69,287.01L133.7,289.36L135.09,287.01L135.83,296.43L137,294.08L137.39,296.43L138.94,294.08L139.99,291.72L139.99,294.08L141.27,287.01L141.27,289.36L141.52,291.72L141.54,294.08L141.93,289.36L142.25,291.72L143.2,294.08L143.37,298.79L144.05,296.43L144.14,294.08L145.69,291.72L146.21,284.65L146.22,289.36L146.22,291.72L146.27,296.43L148.01,294.08L148.1,296.43L148.14,294.08L149.67,291.72L149.69,294.08L151,291.72L151,294.08L151.41,291.72L151.85,289.36L152.51,287.01L152.54,289.36L155.3,291.72L158.23,287.01L158.94,284.65L159.69,287.01L160.37,284.65L160.38,287.01L162.96,284.65L163.4,287.01L163.99,284.65L165.17,282.29L165.4,284.65L165.4,282.29L165.44,301.15L165.44,298.79L167.75,296.43L167.76,298.79L170.02,301.15L171.08,298.79L171.08,301.15L171.69,298.79L171.72,301.15L173.85,298.79L174,296.43L175.34,298.79L175.35,301.15L175.92,282.29L176.03,291.72L177.49,289.36L177.81,282.29L179.41,279.94L179.9,277.58L179.91,279.94L182.03,277.58L182.5,279.94L183.78,277.58L184.07,279.94L184.36,277.58L186.47,275.22L189.35,272.87L189.45,275.22L190.32,272.87L190.99,275.22L191.03,270.51L191.24,272.87L192.09,275.22L192.34,284.65L193.14,287.01L193.21,289.36L193.31,284.65L196.62,282.29L197.16,284.65L197.83,282.29L197.97,279.94L200.04,277.58L202.89,275.22L204.42,272.87L204.44,270.51L205.71,268.16L206.47,270.51L206.48,268.16L206.78,284.65L206.79,282.29L207.73,284.65L208.14,287.01L208.15,284.65L209.26,287.01L209.7,291.72L210.06,289.36L210.08,291.72L210.59,284.65L210.63,289.36L211.17,291.72L211.2,294.08L212.08,291.72L213.21,289.36L213.22,291.72L215.14,287.01L215.41,284.65L217.69,282.29L218.78,284.65L220.3,282.29L220.77,279.94L222.99,275.22L223,277.58L223.83,270.51L225.59,268.16L225.87,261.09L226.38,258.73L227.41,254.02L227.46,256.37L229.62,239.88L229.7,242.23L229.7,244.59L229.85,237.52L230.42,239.88L230.53,237.52L231.77,235.16L231.92,232.81L232.18,242.23L232.18,244.59L232.34,256.37L232.61,251.66L233.09,249.3L234.1,289.36L234.33,287.01L234.5,284.65L234.52,282.29L235.09,289.36L235.18,287.01L235.36,284.65L236.26,291.72L236.27,289.36L236.27,287.01L236.98,296.43L237.22,294.08L237.22,296.43L237.41,287.01L237.94,294.08L238.18,291.72L238.32,294.08L238.47,291.72L239.14,289.36L239.17,287.01L239.96,289.36L240.44,284.65L241.05,282.29L242.72,275.22L242.72,277.58L244.14,270.51L245.05,272.87L248.56,270.51L248.65,268.16L248.9,265.8L249.19,268.16L250.73,265.8L251.64,261.09L251.98,258.73L252.35,256.37L253.89,254.02L254.31,246.95L254.51,254.02L254.51,256.37L255.69,244.59L257.68,242.23L257.74,237.52L258.74,235.16L260.32,230.45L260.36,232.81L260.37,249.3L260.98,239.88L261.25,237.52L261.25,239.88L261.39,237.52L263.45,235.16L265.09,232.81L265.27,230.45L266.96,228.09L266.96,230.45L266.96,228.09L266.97,230.45L267.89,228.09L268.07,225.74L268.72,228.09L269.65,237.52L269.84,239.88L271.33,237.52L271.84,239.88L273.17,235.16L273.84,232.81L273.84,235.16L274.61,232.81L274.72,228.09L275.83,230.45L276.37,258.73L278.84,256.37L279.31,258.73L279.69,256.37L279.7,258.73L282.42,256.37L283.1,261.09L283.13,258.73L283.24,256.37L283.24,258.73L283.49,258.73L284.15,261.09L284.32,256.37L284.32,258.73L286.59,256.37L287.37,251.66L289.32,249.3L289.83,244.59L289.96,242.23L289.97,239.88L290.02,251.66L290.36,246.95L290.8,249.3L291.26,254.02L291.47,251.66L291.72,249.3L292.49,279.94L292.71,277.58L293.66,270.51L294.26,268.16L295.23,256.37L296.16,254.02L297.12,249.3L297.18,246.95L298.58,237.52L298.6,235.16L298.91,218.67L301.03,216.31L302.87,213.95L302.87,211.6L306.14,213.95L306.21,211.6L307.83,206.88L308.39,204.53L309.77,197.46L309.77,195.1L309.9,190.39L310.28,239.88L310.59,237.52L311.01,235.16L311.03,242.23L311.27,239.88L311.42,237.52L312.41,225.74L312.52,228.09L314.78,225.74L315.26,223.38L315.55,225.74L316.47,223.38L316.84,225.74L317.96,223.38L319.36,225.74L319.39,232.81L320.02,230.45L320.71,232.81L321.13,246.95L321.53,249.3L321.66,246.95L321.96,254.02L322.15,251.66L322.52,254.02L323.61,246.95L323.86,244.59L324.72,242.23L324.74,239.88L325.55,235.16L325.8,237.52L326.38,239.88L326.77,237.52L326.77,239.88L327.46,237.52L327.72,239.88L327.72,244.59L328.27,242.23L329.56,239.88L329.76,235.16L330.2,244.59L330.75,242.23L331.71,235.16L331.79,232.81L331.81,235.16L334.78,232.81L335.15,235.16L336.48,232.81L336.91,230.45L336.91,232.81L337.64,235.16L337.91,232.81L337.99,237.52L338.72,235.16L339.79,228.09L339.79,230.45L340.21,225.74L340.76,223.38L341.17,228.09L341.19,223.38L341.7,225.74L342.27,223.38L342.28,225.74L342.97,223.38L343.11,225.74L343.76,223.38L344.88,218.67L344.89,216.31L344.94,221.02L345.69,218.67L346.53,213.95L347.6,211.6L348.73,197.46L348.84,199.81L350.49,197.46L350.77,195.1L351.8,192.74L351.8,195.1L351.94,209.24L351.94,211.6L351.94,213.95L351.94,209.24L352.06,213.95L353.47,211.6L354.37,209.24L354.38,211.6L356.16,209.24L356.16,211.6L356.57,209.24L358.91,206.88L358.91,209.24L359.56,209.24L360.14,206.88L360.86,197.46L360.93,199.81L362.07,197.46L362.16,192.74L362.59,206.88L362.94,204.53L363.16,206.88L364.09,204.53L364.89,195.1L365.1,192.74L365.66,204.53L365.76,197.46L365.95,195.1L366.63,209.24L366.86,206.88L367.67,230.45L367.74,228.09L368.43,242.23L368.79,239.88L369.56,242.23L371.91,239.88L372.51,232.81L372.53,235.16L372.76,237.52L376.19,235.16L376.21,237.52L376.9,232.81L377.77,235.16L378.85,232.81L379.74,230.45L379.74,232.81L381.53,230.45L381.66,225.74L382.65,228.09L383.18,221.02L383.18,218.67L383.19,211.6L386.81,213.95L387.85,204.53L389.89,202.17L390.37,197.46L390.37,199.81L390.37,202.17L392.39,197.46L392.83,195.1L395.5,190.39L395.68,188.03L396.24,185.67L396.24,188.03L396.4,190.39L396.98,202.17L397.11,199.81L397.69,197.46L397.73,199.81L398.04,188.03L398.43,185.67L398.61,178.6L398.8,185.67L398.8,188.03L398.81,192.74L399.42,183.32L399.55,180.96L399.82,178.6L399.92,185.67L399.94,188.03L399.99,185.67L400.63,195.1L400.67,192.74L400.75,190.39L400.76,199.81L401.36,197.46L401.62,195.1L402.32,192.74L402.33,190.39L402.74,204.53L403.22,199.81L403.25,197.46L403.62,183.32L403.81,209.24L404.1,206.88L404.53,192.74L404.67,202.17L404.67,204.53L404.72,209.24L405.27,202.17L405.3,204.53L405.89,202.17L406.02,209.24L406.57,197.46L406.65,195.1L406.7,197.46L407.07,180.96L407.07,180.96L407.09,178.6L407.1,173.89L407.23,213.95L407.53,204.53L407.93,202.17L408.34,197.46L408.56,204.53L408.6,202.17L408.99,199.81L409.62,206.88L409.95,209.24L410.24,211.6L410.56,202.17L410.91,204.53L411.05,216.31L411.51,213.95L411.9,211.6L412.54,223.38L413.11,221.02L413.44,223.38L413.82,213.95L413.83,211.6L414.06,204.53L414.76,206.88L414.89,218.67L415.19,202.17L415.51,209.24L415.58,211.6L415.72,206.88L415.72,213.95L415.88,213.95L417,211.6L417.13,216.31L417.29,211.6L417.93,209.24L418.09,211.6L418.26,206.88L418.59,204.53L418.62,211.6L419.01,206.88L419.69,204.53L420.18,202.17L420.18,204.53L420.18,206.88L420.69,202.17L420.69,199.81L420.7,197.46L420.74,206.88L420.87,199.81L421.69,197.46L421.91,190.39L422.11,202.17L422.24,204.53L422.62,221.02L422.99,218.67L423.04,216.31L423.4,211.6L423.41,223.38L423.55,221.02L423.8,218.67L423.85,221.02L424.56,213.95L424.68,211.6L425.25,228.09L425.36,228.09L425.5,225.74L425.6,211.6L425.62,228.09L426.29,216.31L426.43,213.95L426.57,218.67L426.89,206.88L427.15,209.24L427.67,230.45L427.83,228.09L428.24,230.45L428.66,218.67L428.94,221.02L429.18,218.67L429.18,221.02L429.61,216.31L429.61,216.31L430.69,213.95L431.27,209.24L431.27,211.6L432.05,209.24L432.09,206.88L432.12,225.74L432.51,223.38L433.03,225.74L433.15,228.09L433.28,218.67L433.29,218.67L433.3,216.31L433.71,209.24L434.02,221.02L434.09,218.67L434.33,213.95L434.67,230.45L434.67,228.09L434.96,230.45L435.26,223.38L435.53,228.09L435.83,230.45L436.18,232.81L436.48,223.38L436.5,225.74L436.89,223.38L437.94,216.31L438.26,218.67L438.26,221.02L438.29,216.31L438.41,225.74L438.83,225.74L439.11,223.38L439.13,225.74L439.38,221.02L439.62,225.74L439.91,223.38L440.21,232.81L440.46,228.09L440.76,230.45L441.41,225.74L441.41,228.09L441.64,225.74L441.81,218.67L441.82,228.09L441.99,223.38L442.68,225.74L442.68,223.38L443.2,232.81L443.59,230.45L443.88,228.09L443.89,232.81L444.16,230.45L444.44,228.09L445.09,225.74L445.09,228.09L445.25,230.45L445.26,228.09L445.4,239.88L445.98,235.16L445.98,237.52L446.06,232.81L446.63,239.88L446.65,237.52L446.75,239.88L447.43,228.09L447.44,237.52L447.44,239.88L447.46,237.52L447.58,242.23L448.14,239.88L448.39,237.52L448.39,242.23L449.12,239.88L449.23,242.23L449.24,246.95L449.92,242.23L450.73,239.88L450.85,242.23L451.49,239.88L451.63,235.16L451.69,246.95L451.72,246.95L451.72,249.3L452.39,239.88L452.4,246.95L452.4,249.3L453.07,244.59L453.1,246.95L453.18,249.3L453.49,242.23L453.49,244.59L454.03,242.23L454.03,244.59L454.74,235.16L454.75,237.52L455.01,239.88L455.32,244.59L455.53,237.52L456.12,235.16L456.39,239.88L456.41,237.52L457.33,235.16L457.33,237.52L457.91,232.81L458.05,232.81L458.55,230.45L458.99,225.74L459.26,230.45L459.38,228.09L459.4,225.74L460.28,228.09L460.88,225.74L461.17,235.16L461.21,232.81L461.89,239.88L462.13,237.52L462.13,235.16L462.15,237.52L462.83,225.74L462.84,235.16L462.88,232.81L463.77,230.45L463.77,232.81L464.32,228.09L464.34,225.74L465.08,239.88L465.15,242.23L465.87,235.16L465.88,239.88L465.89,242.23L466.39,249.3L467.14,246.95L467.52,249.3L467.55,246.95L468.18,244.59L468.71,249.3L469.46,246.95L469.89,242.23L470.28,244.59L470.36,246.95L470.71,242.23L470.77,246.95L470.78,249.3L471.52,244.59L471.52,246.95L471.61,244.59L471.93,239.88L471.93,242.23L472.6,244.59L472.73,239.88L473.2,244.59L474.04,242.23L474.87,239.88L474.87,242.23L474.91,244.59L475.45,239.88L475.45,244.59L476.3,242.23L476.41,237.52L476.42,244.59L476.56,239.88L477.37,242.23L477.94,232.81L478.25,230.45L478.75,232.81L478.92,230.45L478.92,228.09L479.54,218.67L479.55,232.81L479.64,230.45L479.88,228.09L480.16,225.74L480.16,230.45L480.16,232.81L480.74,230.45L480.97,232.81L481.08,230.45L481.38,237.52L482.01,239.88L482.48,235.16L482.59,239.88L482.6,242.23L482.6,239.88L482.97,246.95L483.25,246.95L483.41,244.59L484,242.23L484.08,244.59L484.1,246.95L484.29,239.88L484.43,242.23L485.06,239.88L485.88,246.95L485.92,244.59L486.15,246.95L486.57,242.23L486.83,244.59L487.15,237.52L487.23,242.23L487.99,239.88L488.36,244.59L488.43,237.52L488.77,235.16L489.31,230.45L489.43,242.23L489.46,242.23L489.77,239.88L491.31,228.09L491.7,230.45L491.71,232.81L492.64,230.45L492.88,235.16L493.31,225.74L493.36,232.81L493.44,230.45L493.84,232.81L494.14,230.45L495.5,228.09L496.63,218.67L496.73,221.02L496.73,223.38L496.73,225.74L496.89,218.67L496.93,218.67L499.09,221.02L499.46,216.31L499.77,235.16L499.87,232.81L499.88,235.16L500.58,228.09L500.59,230.45L500.85,232.81L501.55,218.67L501.59,221.02L501.69,223.38L501.79,221.02L502.23,228.09L502.38,221.02L502.8,218.67L503.31,213.95L503.32,216.31L503.34,218.67L503.5,213.95L503.5,218.67L505.36,216.31L505.36,218.67L507.09,216.31L508.6,204.53L508.65,202.17L508.65,199.81L508.66,206.88L509.1,204.53L509.42,202.17L510.91,197.46L511.14,195.1L511.14,197.46L511.61,190.39L512.73,188.03L513.37,178.6L513.37,176.25L513.37,178.6L513.94,164.47L514.04,164.47L514.3,162.11L514.3,164.47L514.74,152.68L515.02,152.68L515.13,150.33L515.13,152.68L515.85,145.61L515.94,147.97L516.67,136.19L518.91,133.83L520.14,117.33L521.06,114.98L522.71,110.26L524.47,107.91L525.05,98.48L525.38,96.12L526.75,81.98L527,79.63L528.39,74.91L528.61,72.56L529.47,65.49L529.87,63.13L531.09,60.78L531.1,58.42L532.47,53.71L533.09,51.35L533.09,53.71L533.51,53.71L533.94,51.35L535.09,46.64L535.38,44.28L535.38,46.64L535.98,34.85L536.12,41.92L536.14,39.57L536.2,41.92L536.33,39.57L536.89,37.21L536.89,39.57L537.28,20.71L538.14,18.36L540,16" style="vector-effect: none; fill: none; stroke: rgb(44, 160, 44); stroke-opacity: 1; stroke-width: 2px; opacity: 1;"/></g><g class="points"/><g class="text"/></g></g></g></g><g class="zerolinelayer-above"/><path class="xlines-above crisp" d="M0,0" style="fill: none;"/><path class="ylines-above crisp" d="M0,0" style="fill: none;"/><g class="overlines-above"/><g class="xaxislayer-above"><g class="xtick"><text text-anchor="middle" x="0" y="439" transform="translate(96.39,0)" style="font-family: 'Open Sans'; font-size: 18px; fill: rgb(0, 0, 0); fill-opacity: 1; white-space: pre;">2016</text></g><g class="xtick"><text text-anchor="middle" x="0" y="439" style="font-family: 'Open Sans'; font-size: 18px; fill: rgb(0, 0, 0); fill-opacity: 1; white-space: pre;" transform="translate(196.76,0)">2018</text></g><g class="xtick"><text text-anchor="middle" x="0" y="439" style="font-family: 'Open Sans'; font-size: 18px; fill: rgb(0, 0, 0); fill-opacity: 1; white-space: pre;" transform="translate(296.99,0)">2020</text></g><g class="xtick"><text text-anchor="middle" x="0" y="439" style="font-family: 'Open Sans'; font-size: 18px; fill: rgb(0, 0, 0); fill-opacity: 1; white-space: pre;" transform="translate(397.35,0)">2022</text></g><g class="xtick"><text text-anchor="middle" x="0" y="439" style="font-family: 'Open Sans'; font-size: 18px; fill: rgb(0, 0, 0); fill-opacity: 1; white-space: pre;" transform="translate(497.58,0)">2024</text></g><g class="xtick"><text text-anchor="middle" x="0" y="439" style="font-family: 'Open Sans'; font-size: 18px; fill: rgb(0, 0, 0); fill-opacity: 1; white-space: pre;" transform="translate(597.94,0)">2026</text></g></g><g class="yaxislayer-above"><g class="ytick"><text text-anchor="end" x="79" y="6.3" transform="translate(0,420)" style="font-family: 'Open Sans'; font-size: 18px; fill: rgb(0, 0, 0); fill-opacity: 1; white-space: pre;">0</text></g><g class="ytick"><text text-anchor="end" x="79" y="6.3" style="font-family: 'Open Sans'; font-size: 18px; fill: rgb(0, 0, 0); fill-opacity: 1; white-space: pre;" transform="translate(0,372.87)">20</text></g><g class="ytick"><text text-anchor="end" x="79" y="6.3" style="font-family: 'Open Sans'; font-size: 18px; fill: rgb(0, 0, 0); fill-opacity: 1; white-space: pre;" transform="translate(0,325.74)">40</text></g><g class="ytick"><text text-anchor="end" x="79" y="6.3" style="font-family: 'Open Sans'; font-size: 18px; fill: rgb(0, 0, 0); fill-opacity: 1; white-space: pre;" transform="translate(0,278.6)">60</text></g><g class="ytick"><text text-anchor="end" x="79" y="6.3" style="font-family: 'Open Sans'; font-size: 18px; fill: rgb(0, 0, 0); fill-opacity: 1; white-space: pre;" transform="translate(0,231.47)">80</text></g><g class="ytick"><text text-anchor="end" x="79" y="6.3" style="font-family: 'Open Sans'; font-size: 18px; fill: rgb(0, 0, 0); fill-opacity: 1; white-space: pre;" transform="translate(0,184.34)">100</text></g><g class="ytick"><text text-anchor="end" x="79" y="6.3" style="font-family: 'Open Sans'; font-size: 18px; fill: rgb(0, 0, 0); fill-opacity: 1; white-space: pre;" transform="translate(0,137.21)">120</text></g></g><g class="overaxes-above"/></g></g><g class="polarlayer"/><g class="smithlayer"/><g class="ternarylayer"/><g class="geolayer"/><g class="funnelarealayer"/><g class="pielayer"/><g class="iciclelayer"/><g class="treemaplayer"/><g class="sunburstlayer"/><g class="glimages"/><defs id="topdefs-1a7ba5"><g class="clips"/></defs><g class="layer-above"><g class="imagelayer"/><g class="shapelayer"/></g><g class="infolayer"><g class="g-gtitle"><text class="gtitle" x="35" y="50" text-anchor="start" dy="0em" style="opacity: 1; font-family: 'Open Sans'; font-size: 25px; fill: rgb(0, 0, 0); fill-opacity: 1; white-space: pre;">MultiQC/MultiQC - Open Pull Requests Over Time</text></g><g class="g-xtitle"><text class="xtitle" x="350" y="472.9" text-anchor="middle" style="opacity: 1; font-family: 'Open Sans'; font-size: 22px; fill: rgb(0, 0, 0); fill-opacity: 1; white-space: pre;">Date</text></g><g class="g-ytitle"><text class="ytitle" transform="rotate(-90,29.799999999999997,260)" x="29.799999999999997" y="260" text-anchor="middle" style="opacity: 1; font-family: 'Open Sans'; font-size: 22px; fill: rgb(0, 0, 0); fill-opacity: 1; white-space: pre;">Number of Open PRs</text></g></g></svg>