<svg class="main-svg" xmlns="http://www.w3.org/2000/svg" xmlns:xlink="http://www.w3.org/1999/xlink" width="700" height="500" style="" viewBox="0 0 700 500"><rect x="0" y="0" width="700" height="500" style="fill: rgb(0, 0, 0); fill-opacity: 0;"/><defs id="defs-d1bb18"><g class="clips"><clipPath id="clipd1bb18xyplot" class="plotclip"><rect width="540" height="320"/></clipPath><clipPath class="axesclip" id="clipd1bb18x"><rect x="80" y="0" width="540" height="500"/></clipPath><clipPath class="axesclip" id="clipd1bb18y"><rect x="0" y="100" width="700" height="320"/></clipPath><clipPath class="axesclip" id="clipd1bb18xy"><rect x="80" y="100" width="540" height="320"/></clipPath></g><g class="gradients"/><g class="patterns"/></defs><g class="bglayer"><rect class="bg" x="80" y="100" width="540" height="320" style="fill: rgb(0, 0, 0); fill-opacity: 0; stroke-width: 0;"/></g><g class="layer-below"><g class="imagelayer"/><g class="shapelayer"/></g><g class="cartesianlayer"><g class="subplot xy"><g class="layer-subplot"><g class="shapelayer"/><g class="imagelayer"/></g><g class="minor-gridlayer"><g class="x"/><g class="y"/></g><g class="gridlayer"><g class="x"><path class="xgrid crisp" transform="translate(97.31,0)" d="M0,100v320" style="stroke: rgb(255, 255, 255); stroke-opacity: 1; stroke-width: 1px;"/><path class="xgrid crisp" transform="translate(201.01999999999998,0)" d="M0,100v320" style="stroke: rgb(255, 255, 255); stroke-opacity: 1; stroke-width: 1px;"/><path class="xgrid crisp" transform="translate(304.6,0)" d="M0,100v320" style="stroke: rgb(255, 255, 255); stroke-opacity: 1; stroke-width: 1px;"/><path class="xgrid crisp" transform="translate(408.31,0)" d="M0,100v320" style="stroke: rgb(255, 255, 255); stroke-opacity: 1; stroke-width: 1px;"/><path class="xgrid crisp" transform="translate(511.89,0)" d="M0,100v320" style="stroke: rgb(255, 255, 255); stroke-opacity: 1; stroke-width: 1px;"/><path class="xgrid crisp" transform="translate(615.6,0)" d="M0,100v320" style="stroke: rgb(255, 255, 255); stroke-opacity: 1; stroke-width: 1px;"/></g><g class="y"><path class="ygrid crisp" transform="translate(0,382.93)" d="M80,0h540" style="stroke: rgb(255, 255, 255); stroke-opacity: 1; stroke-width: 1px;"/><path class="ygrid crisp" transform="translate(0,345.85)" d="M80,0h540" style="stroke: rgb(255, 255, 255); stroke-opacity: 1; stroke-width: 1px;"/><path class="ygrid crisp" transform="translate(0,308.78)" d="M80,0h540" style="stroke: rgb(255, 255, 255); stroke-opacity: 1; stroke-width: 1px;"/><path class="ygrid crisp" transform="translate(0,271.71000000000004)" d="M80,0h540" style="stroke: rgb(255, 255, 255); stroke-opacity: 1; stroke-width: 1px;"/><path class="ygrid crisp" transform="translate(0,234.63)" d="M80,0h540" style="stroke: rgb(255, 255, 255); stroke-opacity: 1; stroke-width: 1px;"/><path class="ygrid crisp" transform="translate(0,197.56)" d="M80,0h540" style="stroke: rgb(255, 255, 255); stroke-opacity: 1; stroke-width: 1px;"/><path class="ygrid crisp" transform="translate(0,160.49)" d="M80,0h540" style="stroke: rgb(255, 255, 255); stroke-opacity: 1; stroke-width: 1px;"/><path class="ygrid crisp" transform="translate(0,123.41)" d="M80,0h540" style="stroke: rgb(255, 255, 255); stroke-opacity: 1; stroke-width: 1px;"/></g></g><g class="zerolinelayer"><path class="yzl zl crisp" transform="translate(0,420)" d="M80,0h540" style="stroke: rgb(255, 255, 255); stroke-opacity: 1; stroke-width: 2px;"/></g><g class="layer-between"><g class="shapelayer"/><g class="imagelayer"/></g><path class="xlines-below"/><path class="ylines-below"/><g class="overlines-below"/><g class="xaxislayer-below"/><g class="yaxislayer-below"/><g class="overaxes-below"/><g class="overplot"><g class="xy" transform="translate(80,100)" clip-path="url(#clipd1bb18xyplot)"><g class="scatterlayer mlayer"><g class="trace scatter trace233d2a" style="stroke-miterlimit: 2;"><g class="fills"><g><path class="js-fill" d="M540,320L0,320L0,286.63L4.26,286.63L8.65,301.46L12.91,316.29L21.71,305.17L25.82,305.17L30.22,294.05L34.48,294.05L38.88,308.88L43.13,275.51L47.53,312.59L51.93,312.59L56.18,305.17L60.58,297.76L64.84,275.51L69.24,301.46L73.64,305.17L77.61,301.46L82.01,290.34L86.26,305.17L90.66,308.88L94.92,227.32L99.32,249.56L103.72,268.1L107.97,279.22L112.37,301.46L116.63,308.88L121.02,290.34L125.42,305.17L129.4,275.51L133.79,268.1L138.05,290.34L142.45,290.34L146.71,301.46L151.1,297.76L159.76,312.59L164.16,312.59L168.41,294.05L172.81,312.59L177.21,308.88L181.18,268.1L185.58,301.46L189.84,308.88L194.24,305.17L198.49,312.59L202.89,305.17L207.29,316.29L211.54,282.93L215.94,297.76L220.2,305.17L224.6,308.88L229,297.76L233.11,260.68L237.51,268.1L241.77,256.98L246.16,275.51L250.42,305.17L254.82,308.88L259.22,282.93L263.47,282.93L267.87,290.34L272.13,301.46L276.53,305.17L280.92,297.76L284.9,301.46L293.55,301.46L297.95,264.39L302.21,264.39L306.61,256.98L311,308.88L315.26,305.17L319.66,256.98L323.91,305.17L328.31,312.59L332.71,286.63L336.68,297.76L341.08,294.05L345.34,305.17L349.74,282.93L353.99,286.63L358.39,286.63L362.79,290.34L367.05,305.17L371.45,286.63L375.7,249.56L380.1,294.05L384.5,305.17L388.47,286.63L392.87,282.93L397.13,305.17L401.52,305.17L405.78,294.05L410.18,179.12L414.58,149.46L418.83,168L423.23,219.9L427.49,179.12L431.89,245.85L436.28,16L440.4,197.66L444.8,205.07L449.05,119.8L453.45,164.29L457.71,156.88L462.11,142.05L466.51,93.85L470.76,212.49L479.42,212.49L483.82,216.2L488.21,264.39L492.19,242.15L496.58,242.15L500.84,223.61L505.24,268.1L509.5,212.49L513.89,245.85L518.29,238.44L522.55,268.1L526.95,264.39L531.2,193.95L535.6,271.8L540,316.29" style="fill: rgb(44, 160, 44); fill-opacity: 0.5; stroke-width: 0;"/></g></g><g class="errorbars"/><g class="lines"><path class="js-line" d="M0,286.63L4.26,286.63L8.65,301.46L12.91,316.29L21.71,305.17L25.82,305.17L30.22,294.05L34.48,294.05L38.88,308.88L43.13,275.51L47.53,312.59L51.93,312.59L56.18,305.17L60.58,297.76L64.84,275.51L69.24,301.46L73.64,305.17L77.61,301.46L82.01,290.34L86.26,305.17L90.66,308.88L94.92,227.32L99.32,249.56L103.72,268.1L107.97,279.22L112.37,301.46L116.63,308.88L121.02,290.34L125.42,305.17L129.4,275.51L133.79,268.1L138.05,290.34L142.45,290.34L146.71,301.46L151.1,297.76L159.76,312.59L164.16,312.59L168.41,294.05L172.81,312.59L177.21,308.88L181.18,268.1L185.58,301.46L189.84,308.88L194.24,305.17L198.49,312.59L202.89,305.17L207.29,316.29L211.54,282.93L215.94,297.76L220.2,305.17L224.6,308.88L229,297.76L233.11,260.68L237.51,268.1L241.77,256.98L246.16,275.51L250.42,305.17L254.82,308.88L259.22,282.93L263.47,282.93L267.87,290.34L272.13,301.46L276.53,305.17L280.92,297.76L284.9,301.46L293.55,301.46L297.95,264.39L302.21,264.39L306.61,256.98L311,308.88L315.26,305.17L319.66,256.98L323.91,305.17L328.31,312.59L332.71,286.63L336.68,297.76L341.08,294.05L345.34,305.17L349.74,282.93L353.99,286.63L358.39,286.63L362.79,290.34L367.05,305.17L371.45,286.63L375.7,249.56L380.1,294.05L384.5,305.17L388.47,286.63L392.87,282.93L397.13,305.17L401.52,305.17L405.78,294.05L410.18,179.12L414.58,149.46L418.83,168L423.23,219.9L427.49,179.12L431.89,245.85L436.28,16L440.4,197.66L444.8,205.07L449.05,119.8L453.45,164.29L457.71,156.88L462.11,142.05L466.51,93.85L470.76,212.49L479.42,212.49L483.82,216.2L488.21,264.39L492.19,242.15L496.58,242.15L500.84,223.61L505.24,268.1L509.5,212.49L513.89,245.85L518.29,238.44L522.55,268.1L526.95,264.39L531.2,193.95L535.6,271.8L540,316.29" style="vector-effect: none; fill: none; stroke: rgb(44, 160, 44); stroke-opacity: 1; stroke-width: 2px; opacity: 1;"/></g><g class="points"/><g class="text"/></g></g></g></g><g class="zerolinelayer-above"/><path class="xlines-above crisp" d="M0,0" style="fill: none;"/><path class="ylines-above crisp" d="M0,0" style="fill: none;"/><g class="overlines-above"/><g class="xaxislayer-above"><g class="xtick"><text text-anchor="middle" x="0" y="439" transform="translate(97.31,0)" style="font-family: 'Open Sans'; font-size: 18px; fill: rgb(0, 0, 0); fill-opacity: 1; white-space: pre;">2016</text></g><g class="xtick"><text text-anchor="middle" x="0" y="439" style="font-family: 'Open Sans'; font-size: 18px; fill: rgb(0, 0, 0); fill-opacity: 1; white-space: pre;" transform="translate(201.01999999999998,0)">2018</text></g><g class="xtick"><text text-anchor="middle" x="0" y="439" style="font-family: 'Open Sans'; font-size: 18px; fill: rgb(0, 0, 0); fill-opacity: 1; white-space: pre;" transform="translate(304.6,0)">2020</text></g><g class="xtick"><text text-anchor="middle" x="0" y="439" style="font-family: 'Open Sans'; font-size: 18px; fill: rgb(0, 0, 0); fill-opacity: 1; white-space: pre;" transform="translate(408.31,0)">2022</text></g><g class="xtick"><text text-anchor="middle" x="0" y="439" style="font-family: 'Open Sans'; font-size: 18px; fill: rgb(0, 0, 0); fill-opacity: 1; white-space: pre;" transform="translate(511.89,0)">2024</text></g><g class="xtick"><text text-anchor="middle" x="0" y="439" style="font-family: 'Open Sans'; font-size: 18px; fill: rgb(0, 0, 0); fill-opacity: 1; white-space: pre;" transform="translate(615.6,0)">2026</text></g></g><g class="yaxislayer-above"><g class="ytick"><text text-anchor="end" x="79" y="6.3" transform="translate(0,420)" style="font-family: 'Open Sans'; font-size: 18px; fill: rgb(0, 0, 0); fill-opacity: 1; white-space: pre;">0</text></g><g class="ytick"><text text-anchor="end" x="79" y="6.3" style="font-family: 'Open Sans'; font-size: 18px; fill: rgb(0, 0, 0); fill-opacity: 1; white-space: pre;" transform="translate(0,382.93)">10</text></g><g class="ytick"><text text-anchor="end" x="79" y="6.3" style="font-family: 'Open Sans'; font-size: 18px; fill: rgb(0, 0, 0); fill-opacity: 1; white-space: pre;" transform="translate(0,345.85)">20</text></g><g class="ytick"><text text-anchor="end" x="79" y="6.3" style="font-family: 'Open Sans'; font-size: 18px; fill: rgb(0, 0, 0); fill-opacity: 1; white-space: pre;" transform="translate(0,308.78)">30</text></g><g class="ytick"><text text-anchor="end" x="79" y="6.3" style="font-family: 'Open Sans'; font-size: 18px; fill: rgb(0, 0, 0); fill-opacity: 1; white-space: pre;" transform="translate(0,271.71000000000004)">40</text></g><g class="ytick"><text text-anchor="end" x="79" y="6.3" style="font-family: 'Open Sans'; font-size: 18px; fill: rgb(0, 0, 0); fill-opacity: 1; white-space: pre;" transform="translate(0,234.63)">50</text></g><g class="ytick"><text text-anchor="end" x="79" y="6.3" style="font-family: 'Open Sans'; font-size: 18px; fill: rgb(0, 0, 0); fill-opacity: 1; white-space: pre;" transform="translate(0,197.56)">60</text></g><g class="ytick"><text text-anchor="end" x="79" y="6.3" style="font-family: 'Open Sans'; font-size: 18px; fill: rgb(0, 0, 0); fill-opacity: 1; white-space: pre;" transform="translate(0,160.49)">70</text></g><g class="ytick"><text text-anchor="end" x="79" y="6.3" style="font-family: 'Open Sans'; font-size: 18px; fill: rgb(0, 0, 0); fill-opacity: 1; white-space: pre;" transform="translate(0,123.41)">80</text></g></g><g class="overaxes-above"/></g></g><g class="polarlayer"/><g class="smithlayer"/><g class="ternarylayer"/><g class="geolayer"/><g class="funnelarealayer"/><g class="pielayer"/><g class="iciclelayer"/><g class="treemaplayer"/><g class="sunburstlayer"/><g class="glimages"/><defs id="topdefs-d1bb18"><g class="clips"/></defs><g class="layer-above"><g class="imagelayer"/><g class="shapelayer"/></g><g class="infolayer"><g class="g-gtitle"><text class="gtitle" x="35" y="50" text-anchor="start" dy="0em" style="opacity: 1; font-family: 'Open Sans'; font-size: 25px; fill: rgb(0, 0, 0); fill-opacity: 1; white-space: pre;">MultiQC/MultiQC - New Pull Requests Per Month</text></g><g class="g-xtitle"><text class="xtitle" x="350" y="472.9" text-anchor="middle" style="opacity: 1; font-family: 'Open Sans'; font-size: 22px; fill: rgb(0, 0, 0); fill-opacity: 1; white-space: pre;">Month</text></g><g class="g-ytitle"><text class="ytitle" transform="rotate(-90,38.8,260)" x="38.8" y="260" text-anchor="middle" style="opacity: 1; font-family: 'Open Sans'; font-size: 22px; fill: rgb(0, 0, 0); fill-opacity: 1; white-space: pre;">New PRs Created</text></g></g></svg>