<svg class="main-svg" xmlns="http://www.w3.org/2000/svg" xmlns:xlink="http://www.w3.org/1999/xlink" width="700" height="500" style="" viewBox="0 0 700 500"><rect x="0" y="0" width="700" height="500" style="fill: rgb(0, 0, 0); fill-opacity: 0;"/><defs id="defs-b46009"><g class="clips"><clipPath id="clipb46009xyplot" class="plotclip"><rect width="540" height="320"/></clipPath><clipPath class="axesclip" id="clipb46009x"><rect x="80" y="0" width="540" height="500"/></clipPath><clipPath class="axesclip" id="clipb46009y"><rect x="0" y="100" width="700" height="320"/></clipPath><clipPath class="axesclip" id="clipb46009xy"><rect x="80" y="100" width="540" height="320"/></clipPath></g><g class="gradients"/><g class="patterns"/></defs><g class="bglayer"><rect class="bg" x="80" y="100" width="540" height="320" style="fill: rgb(0, 0, 0); fill-opacity: 0; stroke-width: 0;"/></g><g class="layer-below"><g class="imagelayer"/><g class="shapelayer"/></g><g class="cartesianlayer"><g class="subplot xy"><g class="layer-subplot"><g class="shapelayer"/><g class="imagelayer"/></g><g class="minor-gridlayer"><g class="x"/><g class="y"/></g><g class="gridlayer"><g class="x"><path class="xgrid crisp" transform="translate(96.65,0)" d="M0,100v320" style="stroke: rgb(255, 255, 255); stroke-opacity: 1; stroke-width: 1px;"/><path class="xgrid crisp" transform="translate(198.57,0)" d="M0,100v320" style="stroke: rgb(255, 255, 255); stroke-opacity: 1; stroke-width: 1px;"/><path class="xgrid crisp" transform="translate(300.35,0)" d="M0,100v320" style="stroke: rgb(255, 255, 255); stroke-opacity: 1; stroke-width: 1px;"/><path class="xgrid crisp" transform="translate(402.27,0)" d="M0,100v320" style="stroke: rgb(255, 255, 255); stroke-opacity: 1; stroke-width: 1px;"/><path class="xgrid crisp" transform="translate(504.05,0)" d="M0,100v320" style="stroke: rgb(255, 255, 255); stroke-opacity: 1; stroke-width: 1px;"/><path class="xgrid crisp" transform="translate(605.97,0)" d="M0,100v320" style="stroke: rgb(255, 255, 255); stroke-opacity: 1; stroke-width: 1px;"/></g><g class="y"><path class="ygrid crisp" transform="translate(0,365.71)" d="M80,0h540" style="stroke: rgb(255, 255, 255); stroke-opacity: 1; stroke-width: 1px;"/><path class="ygrid crisp" transform="translate(0,311.43)" d="M80,0h540" style="stroke: rgb(255, 255, 255); stroke-opacity: 1; stroke-width: 1px;"/><path class="ygrid crisp" transform="translate(0,257.14)" d="M80,0h540" style="stroke: rgb(255, 255, 255); stroke-opacity: 1; stroke-width: 1px;"/><path class="ygrid crisp" transform="translate(0,202.86)" d="M80,0h540" style="stroke: rgb(255, 255, 255); stroke-opacity: 1; stroke-width: 1px;"/><path class="ygrid crisp" transform="translate(0,148.57)" d="M80,0h540" style="stroke: rgb(255, 255, 255); stroke-opacity: 1; stroke-width: 1px;"/></g></g><g class="zerolinelayer"><path class="yzl zl crisp" transform="translate(0,420)" d="M80,0h540" style="stroke: rgb(255, 255, 255); stroke-opacity: 1; stroke-width: 2px;"/></g><g class="layer-between"><g class="shapelayer"/><g class="imagelayer"/></g><path class="xlines-below"/><path class="ylines-below"/><g class="overlines-below"/><g class="xaxislayer-below"/><g class="yaxislayer-below"/><g class="overaxes-below"/><g class="overplot"><g class="xy" transform="translate(80,100)" clip-path="url(#clipb46009xyplot)"><g class="scatterlayer mlayer"><g class="trace scatter tracea6f3a3" style="stroke-miterlimit: 2;"><g class="fills"><g><path class="js-fill" d="M540,320L0,320L0,317.29L0.1,320L1.01,317.29L1.68,320L1.79,317.29L1.79,320L3.03,317.29L3.76,320L4.61,317.29L4.61,320L4.71,320L5.43,317.29L5.43,320L6,320L6.83,317.29L6.83,320L7.4,320L8.9,317.29L8.9,320L9.53,317.29L9.75,320L11.43,317.29L11.43,320L14.22,317.29L14.22,320L21.47,317.29L21.47,320L21.66,317.29L21.66,320L23.25,317.29L23.25,314.57L23.39,317.29L24.51,320L26.18,317.29L26.18,320L27.48,314.57L27.48,317.29L27.48,320L30.26,317.29L30.26,320L30.4,320L31.62,317.29L31.62,320L32.21,320L33.08,317.29L33.09,320L33.84,317.29L34.34,320L34.58,317.29L34.67,320L37.22,314.57L37.65,317.29L37.77,314.57L37.77,317.29L39.04,320L39.75,317.29L39.75,320L41.43,317.29L41.43,320L42.5,317.29L42.5,320L42.98,309.14L43.08,311.86L43.6,314.57L44.03,317.29L44.47,314.57L44.48,317.29L45.71,314.57L49.49,311.86L49.49,314.57L49.78,317.29L50.56,314.57L51.45,320L52.84,317.29L53.23,320L56.32,317.29L56.32,320L56.32,317.29L57.79,314.57L58.11,317.29L58.88,314.57L59.64,311.86L59.67,314.57L59.67,311.86L60.23,320L62.05,317.29L62.34,320L63,317.29L63.15,314.57L64.11,317.29L64.28,311.86L64.41,314.57L65.22,317.29L65.52,314.57L65.52,317.29L66.07,314.57L66.14,309.14L66.25,320L66.33,320L66.91,317.29L67.74,314.57L67.75,317.29L68.46,311.86L68.47,314.57L69.16,311.86L73.59,309.14L74.06,306.43L75.71,320L76.69,317.29L76.69,320L77.65,317.29L78.82,314.57L78.88,317.29L79.92,311.86L80.33,309.14L80.83,306.43L80.83,309.14L80.85,311.86L81.97,306.43L81.98,309.14L82.8,306.43L82.8,309.14L83.09,311.86L83.65,309.14L83.65,311.86L83.65,309.14L85.43,311.86L85.61,309.14L85.61,311.86L86.49,309.14L86.72,311.86L87.42,309.14L87.88,306.43L88.63,309.14L89.34,306.43L89.63,309.14L91.85,306.43L91.85,309.14L92.43,306.43L92.45,309.14L93.81,311.86L94.3,309.14L94.5,311.86L94.64,309.14L94.65,311.86L95.64,309.14L95.65,292.86L96.34,306.43L96.61,309.14L96.61,311.86L96.77,306.43L97.16,306.43L97.74,303.71L98.43,306.43L98.61,303.71L99.13,298.29L99.29,303.71L99.38,306.43L99.99,295.57L100.11,301L101.06,303.71L101.48,295.57L101.48,295.57L102.01,298.29L103.04,284.71L103.98,282L104.98,284.71L105.26,282L105.97,287.43L105.97,287.43L106.09,284.71L106.39,295.57L106.51,292.86L107.15,290.14L107.64,279.29L107.65,282L108.02,284.71L108.06,287.43L108.89,284.71L109.02,282L109.03,284.71L110.3,287.43L110.41,298.29L110.98,295.57L110.99,292.86L111,298.29L112.08,295.57L112.08,298.29L114.19,295.57L114.19,292.86L114.19,298.29L116.14,295.57L116.15,298.29L116.16,295.57L117.2,298.29L117.25,295.57L119.06,292.86L119.88,298.29L119.89,295.57L120.04,298.29L120.2,295.57L120.2,298.29L121.01,295.57L121.33,298.29L122.02,295.57L122.05,298.29L123.65,295.57L123.68,298.29L125.49,295.57L125.59,298.29L125.97,295.57L126.45,292.86L126.57,295.57L127.44,292.86L127.44,295.57L127.84,284.71L127.98,284.71L128.37,282L128.7,295.57L128.71,295.57L129.67,292.86L129.96,298.29L130.64,295.57L131.6,292.86L131.72,290.14L132.27,292.86L132.45,290.14L132.55,287.43L133.26,282L133.29,284.71L133.6,282L133.81,284.71L134.25,282L134.26,279.29L134.26,271.14L134.41,287.43L135.65,284.71L135.76,282L135.78,284.71L137.18,282L137.94,292.86L139.13,290.14L139.52,292.86L141.1,290.14L142.16,287.43L142.16,290.14L143.46,282L143.46,284.71L143.71,287.43L143.74,290.14L144.13,284.71L144.13,287.43L144.45,284.71L144.45,287.43L145.42,290.14L145.59,295.57L146.29,292.86L146.38,290.14L147.95,287.43L148.47,279.29L148.48,282L148.49,284.71L148.54,292.86L150.3,290.14L150.4,292.86L150.44,290.14L151.99,287.43L152.01,290.14L153.34,287.43L153.34,290.14L153.76,287.43L154.2,284.71L154.88,282L154.91,284.71L157.71,287.43L160.68,282L161.4,279.29L162.16,282L162.86,279.29L162.86,282L165.49,279.29L165.94,282L166.53,279.29L167.73,276.57L167.97,279.29L167.97,276.57L168.01,298.29L168.01,295.57L170.35,292.86L170.36,295.57L172.65,298.29L173.73,295.57L173.73,298.29L174.35,295.57L174.38,298.29L176.54,295.57L176.7,292.86L178.05,295.57L178.07,298.29L178.64,276.57L178.72,279.29L178.73,276.57L178.76,287.43L180.24,284.71L180.57,276.57L182.2,273.86L182.69,271.14L182.7,273.86L184.85,271.14L185.33,273.86L186.63,271.14L186.92,273.86L187.22,271.14L189.36,268.43L192.28,265.71L192.38,268.43L193.27,265.71L193.95,268.43L193.99,263L194.21,265.71L195.07,268.43L195.32,279.29L196.13,282L196.21,284.71L196.3,279.29L199.67,276.57L200.22,279.29L200.89,276.57L201.03,273.86L203.14,271.14L206.04,268.43L207.59,265.71L207.61,263L208.9,260.29L209.67,263L209.69,260.29L209.98,279.29L209.99,276.57L210.95,279.29L211.37,282L211.38,279.29L212.5,282L212.95,287.43L213.32,284.71L213.33,287.43L213.85,279.29L213.89,284.71L214.45,287.43L214.48,290.14L215.36,287.43L216.52,284.71L216.53,287.43L218.47,282L218.75,279.29L221.06,276.57L222.17,279.29L223.72,276.57L224.19,273.86L226.45,268.43L226.46,271.14L227.3,263L229.09,260.29L229.37,252.14L229.89,249.43L230.93,244L230.98,246.71L233.18,227.71L233.26,230.43L233.26,233.14L233.41,225L233.99,227.71L234.1,225L235.36,222.29L235.51,219.57L235.78,230.43L235.78,233.14L235.94,246.71L236.22,241.29L236.7,238.57L237.73,284.71L237.96,282L238.14,279.29L238.15,276.57L238.73,284.71L238.83,282L239.01,279.29L239.92,287.43L239.93,284.71L239.93,282L240.66,292.86L240.9,290.14L240.9,292.86L241.09,282L241.63,290.14L241.87,287.43L242.02,290.14L242.17,287.43L242.85,284.71L242.88,282L243.68,284.71L244.16,279.29L244.79,276.57L245.64,271.14L245.64,273.86L246.48,268.43L246.48,271.14L247.92,263L248.85,265.71L252.41,263L252.51,260.29L252.76,257.57L253.06,260.29L254.62,257.57L255.54,252.14L255.88,249.43L256.26,246.71L257.82,244L258.25,235.86L258.45,244L258.45,246.71L259.65,233.14L261.67,230.43L261.74,225L262.75,222.29L264.36,216.86L264.39,219.57L264.41,238.57L265.02,227.71L265.3,225L265.3,227.71L265.44,225L267.54,222.29L269.19,219.57L269.38,216.86L271.1,214.14L271.1,216.86L271.1,214.14L271.1,216.86L272.04,214.14L272.23,211.43L272.89,214.14L273.83,225L274.03,227.71L275.54,225L276.05,227.71L277.4,222.29L278.09,219.57L278.09,222.29L278.87,219.57L278.97,214.14L280.1,216.86L280.66,249.43L283.16,246.71L283.64,249.43L284.02,246.71L284.04,249.43L286.8,246.71L287.49,252.14L287.52,249.43L287.63,246.71L287.63,249.43L287.88,249.43L288.55,252.14L288.73,246.71L288.73,249.43L291.04,246.71L291.05,244L291.82,241.29L293.8,238.57L294.32,235.86L294.47,227.71L294.51,241.29L294.86,235.86L295.31,238.57L295.77,244L295.99,241.29L296.24,238.57L297.03,273.86L297.25,271.14L298.21,263L298.82,260.29L299.8,246.71L300.75,244L301.72,238.57L301.79,235.86L303.21,225L303.23,222.29L303.54,203.29L305.69,200.57L307.56,197.86L307.57,195.14L310.88,197.86L310.95,195.14L312.19,192.43L312.6,189.71L314.57,178.86L314.57,176.14L314.71,170.71L315.09,227.71L315.4,225L315.83,222.29L315.85,230.43L316.1,227.71L316.24,225L317.25,211.43L317.37,214.14L319.66,211.43L320.15,208.71L320.44,211.43L321.37,208.71L321.76,211.43L322.89,208.71L324.32,211.43L324.34,219.57L324.98,216.86L325.68,219.57L326.1,235.86L326.52,238.57L326.65,235.86L326.95,244L327.15,241.29L327.52,244L328.07,241.29L328.88,233.14L329.75,230.43L329.97,225L330.6,222.29L331.44,227.71L331.84,225L331.84,227.71L332.53,225L332.8,227.71L332.8,233.14L333.36,230.43L334.66,227.71L334.87,222.29L335.3,230.43L335.32,230.43L335.32,233.14L335.95,227.71L336.16,225L336.93,219.57L336.95,222.29L339.96,219.57L340.34,222.29L341.69,219.57L342.13,216.86L342.13,219.57L342.87,222.29L343.15,219.57L343.23,225L343.97,222.29L345.05,214.14L345.05,216.86L345.49,211.43L346.04,208.71L346.46,214.14L346.48,208.71L347,211.43L347,208.71L347.58,211.43L348.29,208.71L348.43,211.43L349.09,208.71L350.23,203.29L350.23,200.57L350.29,206L351.05,203.29L351.1,200.57L351.9,197.86L352.99,195.14L353.08,192.43L353.77,181.57L354.13,178.86L354.25,181.57L355.93,178.86L356.21,176.14L357.25,173.43L357.4,197.86L357.51,197.86L358.95,195.14L359.87,192.43L359.88,195.14L361.68,192.43L361.68,195.14L362.09,192.43L364.47,189.71L364.47,192.43L365.13,192.43L365.72,189.71L366.46,178.86L366.52,181.57L367.68,178.86L367.78,173.43L368.21,189.71L368.57,187L368.79,189.71L369.74,187L370.55,176.14L370.75,173.43L371.33,187L371.43,178.86L371.62,176.14L372.32,192.43L372.55,189.71L373.37,216.86L373.44,214.14L374.14,230.43L374.5,227.71L375.29,230.43L377.68,227.71L378.28,219.57L378.3,222.29L378.54,225L382.02,222.29L382.04,225L382.74,219.57L383.62,222.29L384.72,219.57L385.63,216.86L385.63,219.57L387.44,216.86L387.58,211.43L388.58,214.14L389.12,206L389.12,203.29L389.13,195.14L392.8,197.86L393.86,187L395.94,184.29L396.42,178.86L396.42,181.57L396.42,184.29L398.47,178.86L398.91,176.14L401.63,170.71L401.82,168L402.38,165.29L402.38,168L402.55,170.71L403.13,184.29L403.26,181.57L403.85,178.86L403.9,181.57L404.21,168L404.61,165.29L404.79,157.14L404.98,168L404.99,170.71L404.99,173.43L405.74,159.86L405.87,157.14L406.61,176.14L406.66,173.43L406.96,170.71L406.97,181.57L407.4,173.43L407.44,176.14L407.54,181.57L407.84,176.14L408.5,173.43L408.57,170.71L408.98,187L408.99,184.29L409.39,181.57L409.88,162.57L410.06,192.43L410.37,189.71L410.8,173.43L410.94,187L410.94,189.71L410.99,192.43L411.55,184.29L411.59,187L412.18,184.29L412.32,192.43L412.87,178.86L412.95,176.14L413.01,178.86L413.37,162.57L413.38,159.86L413.41,151.71L413.54,197.86L413.85,187L414.25,184.29L414.67,178.86L414.76,184.29L414.9,187L415.54,181.57L415.79,184.29L416.31,192.43L416.48,187L416.59,189.71L416.92,184.29L417.29,197.86L417.42,195.14L417.42,200.57L417.72,187L417.88,197.86L418.28,195.14L418.93,208.71L419.51,206L419.85,208.71L420.23,200.57L420.23,197.86L420.48,187L421.18,189.71L421.32,203.29L421.62,184.29L421.78,189.71L421.95,192.43L422.17,189.71L422.33,197.86L423.47,195.14L423.6,200.57L423.76,195.14L424.41,192.43L424.57,195.14L424.74,189.71L425.08,187L425.11,195.14L425.5,189.71L426.19,187L426.69,184.29L426.69,187L426.69,189.71L427.21,184.29L427.22,181.57L427.22,178.86L427.26,189.71L427.39,181.57L428.23,178.86L428.45,170.71L428.65,184.29L428.78,187L429.17,206L429.45,200.57L429.55,203.29L429.97,195.14L429.97,208.71L430.12,206L430.37,203.29L430.42,206L430.87,197.86L431.1,203.29L431.14,200.57L431.26,195.14L431.84,214.14L431.84,214.14L431.92,211.43L431.92,214.14L432.2,195.14L432.41,203.29L432.81,200.57L433.18,203.29L433.51,189.71L433.77,192.43L434.3,216.86L434.46,214.14L434.88,216.86L435.3,203.29L435.59,206L435.83,203.29L435.84,206L436.27,200.57L436.27,200.57L437.36,197.86L437.95,192.43L437.95,195.14L438.74,192.43L438.79,189.71L438.81,211.43L439.21,208.71L439.75,211.43L439.86,214.14L440.02,200.57L440.02,197.86L440.43,192.43L440.47,197.86L440.68,200.57L440.7,197.86L441.41,216.86L441.41,214.14L441.7,216.86L442.01,208.71L442.28,214.14L442.58,216.86L442.94,219.57L443.26,208.71L443.26,211.43L443.66,208.71L444.73,200.57L445.05,203.29L445.07,200.57L445.21,211.43L445.63,211.43L445.92,208.71L445.93,211.43L446.19,206L446.44,211.43L446.73,208.71L447.04,219.57L447.29,214.14L447.6,216.86L448.25,211.43L448.25,214.14L448.49,211.43L448.66,203.29L448.67,214.14L448.84,208.71L449.54,211.43L449.54,208.71L450.07,219.57L450.47,216.86L450.76,214.14L450.77,219.57L451.05,216.86L451.33,214.14L451.99,211.43L451.99,214.14L452.15,216.86L452.17,214.14L452.3,227.71L452.69,225L452.83,227.71L452.98,219.57L453.57,225L453.67,227.71L454.37,214.14L454.38,225L454.38,227.71L454.38,225L454.52,230.43L455.09,227.71L455.34,225L455.34,230.43L456.08,227.71L456.19,230.43L456.21,235.86L456.9,230.43L457.71,227.71L457.84,230.43L458.49,227.71L458.64,222.29L458.69,235.86L458.72,235.86L458.72,238.57L459.41,227.71L459.41,235.86L459.41,238.57L460.09,233.14L460.12,235.86L460.21,238.57L460.4,230.43L460.52,233.14L461.06,230.43L461.06,233.14L461.79,222.29L461.8,225L462.06,227.71L462.38,233.14L462.59,225L463.19,222.29L463.46,227.71L463.48,225L464.41,222.29L464.47,225L465.01,219.57L465.01,222.29L465.15,219.57L466.11,211.43L466.11,214.14L466.23,216.86L466.52,211.43L467.41,214.14L468.03,211.43L468.32,222.29L468.36,219.57L469.05,227.71L469.29,225L469.3,222.29L469.3,225L470.01,211.43L470.02,222.29L470.06,219.57L470.96,216.86L470.96,219.57L471.52,214.14L471.53,211.43L471.55,219.57L472.28,216.86L472.29,219.57L472.36,230.43L472.99,225L473.06,227.71L473.09,222.29L473.62,238.57L474.38,235.86L474.77,238.57L474.8,235.86L475.44,233.14L475.98,238.57L476.74,235.86L477.17,230.43L477.57,233.14L477.65,235.86L478,230.43L478.06,235.86L478.08,238.57L478.83,233.14L478.83,235.86L478.92,233.14L479.25,227.71L479.25,230.43L479.93,233.14L480.06,227.71L480.54,233.14L481.39,230.43L482.24,227.71L482.24,230.43L482.24,227.71L482.27,233.14L482.82,233.14L483.69,230.43L483.8,225L483.81,233.14L483.94,227.71L484.77,230.43L485.35,219.57L485.67,216.86L486.17,219.57L486.35,216.86L486.35,214.14L486.98,203.29L486.98,219.57L487.08,216.86L487.32,214.14L487.6,211.43L487.6,216.86L487.6,219.57L488.19,216.86L488.42,219.57L488.53,216.86L488.84,225L489.48,227.71L489.95,222.29L490.07,227.71L490.08,230.43L490.08,227.71L490.46,235.86L490.74,235.86L490.9,233.14L491.5,230.43L491.58,233.14L491.6,235.86L491.8,227.71L491.94,230.43L492.58,227.71L493.41,235.86L493.45,233.14L493.69,235.86L494.12,230.43L494.38,233.14L494.7,225L494.79,230.43L495.55,227.71L495.93,233.14L496.36,219.57L496.9,216.86L497.04,230.43L497.62,222.29L498.18,219.57L498.93,214.14L499.32,216.86L499.33,219.57L500.27,216.86L500.52,222.29L500.96,211.43L501,219.57L501.09,216.86L501.49,219.57L501.8,216.86L503.18,214.14L504.32,203.29L504.43,206L504.43,208.71L504.43,211.43L504.6,203.29L504.63,203.29L506.82,206L507.21,200.57L507.24,219.57L507.51,219.57L507.51,222.29L508.34,214.14L508.35,216.86L508.62,219.57L509.32,203.29L509.37,206L509.47,208.71L509.57,206L510.02,214.14L510.17,206L510.59,203.29L511.11,197.86L511.12,200.57L511.15,203.29L511.31,197.86L511.31,203.29L513.19,200.57L513.19,203.29L514.95,200.57L516.33,189.71L516.48,187L516.54,181.57L516.54,189.71L516.99,187L517.32,184.29L518.83,178.86L519.06,176.14L519.06,178.86L519.54,170.71L520.68,168L521.32,157.14L521.33,154.43L521.33,157.14L521.91,140.86L522.01,140.86L522.27,138.14L522.27,140.86L522.72,127.29L523,127.29L523.11,124.57L523.11,127.29L523.85,119.14L523.93,121.86L524.68,108.29L526.96,105.57L528.2,86.57L529.14,83.86L530.81,78.43L532.6,75.71L533.19,64.86L533.52,62.14L534.75,48.57L534.91,45.86L536.08,40.43L536.58,37.71L538.08,24.14L539.33,21.43L539.69,16L540,16" style="fill: rgb(44, 160, 44); fill-opacity: 0.5; stroke-width: 0;"/></g></g><g class="errorbars"/><g class="lines"><path class="js-line" d="M0,317.29L0.1,320L1.01,317.29L1.68,320L1.79,317.29L1.79,320L3.03,317.29L3.76,320L4.61,317.29L4.61,320L4.71,320L5.43,317.29L5.43,320L6,320L6.83,317.29L6.83,320L7.4,320L8.9,317.29L8.9,320L9.53,317.29L9.75,320L11.43,317.29L11.43,320L14.22,317.29L14.22,320L21.47,317.29L21.47,320L21.66,317.29L21.66,320L23.25,317.29L23.25,314.57L23.39,317.29L24.51,320L26.18,317.29L26.18,320L27.48,314.57L27.48,317.29L27.48,320L30.26,317.29L30.26,320L30.4,320L31.62,317.29L31.62,320L32.21,320L33.08,317.29L33.09,320L33.84,317.29L34.34,320L34.58,317.29L34.67,320L37.22,314.57L37.65,317.29L37.77,314.57L37.77,317.29L39.04,320L39.75,317.29L39.75,320L41.43,317.29L41.43,320L42.5,317.29L42.5,320L42.98,309.14L43.08,311.86L43.6,314.57L44.03,317.29L44.47,314.57L44.48,317.29L45.71,314.57L49.49,311.86L49.49,314.57L49.78,317.29L50.56,314.57L51.45,320L52.84,317.29L53.23,320L56.32,317.29L56.32,320L56.32,317.29L57.79,314.57L58.11,317.29L58.88,314.57L59.64,311.86L59.67,314.57L59.67,311.86L60.23,320L62.05,317.29L62.34,320L63,317.29L63.15,314.57L64.11,317.29L64.28,311.86L64.41,314.57L65.22,317.29L65.52,314.57L65.52,317.29L66.07,314.57L66.14,309.14L66.25,320L66.33,320L66.91,317.29L67.74,314.57L67.75,317.29L68.46,311.86L68.47,314.57L69.16,311.86L73.59,309.14L74.06,306.43L75.71,320L76.69,317.29L76.69,320L77.65,317.29L78.82,314.57L78.88,317.29L79.92,311.86L80.33,309.14L80.83,306.43L80.83,309.14L80.85,311.86L81.97,306.43L81.98,309.14L82.8,306.43L82.8,309.14L83.09,311.86L83.65,309.14L83.65,311.86L83.65,309.14L85.43,311.86L85.61,309.14L85.61,311.86L86.49,309.14L86.72,311.86L87.42,309.14L87.88,306.43L88.63,309.14L89.34,306.43L89.63,309.14L91.85,306.43L91.85,309.14L92.43,306.43L92.45,309.14L93.81,311.86L94.3,309.14L94.5,311.86L94.64,309.14L94.65,311.86L95.64,309.14L95.65,292.86L96.34,306.43L96.61,309.14L96.61,311.86L96.77,306.43L97.16,306.43L97.74,303.71L98.43,306.43L98.61,303.71L99.13,298.29L99.29,303.71L99.38,306.43L99.99,295.57L100.11,301L101.06,303.71L101.48,295.57L101.48,295.57L102.01,298.29L103.04,284.71L103.98,282L104.98,284.71L105.26,282L105.97,287.43L105.97,287.43L106.09,284.71L106.39,295.57L106.51,292.86L107.15,290.14L107.64,279.29L107.65,282L108.02,284.71L108.06,287.43L108.89,284.71L109.02,282L109.03,284.71L110.3,287.43L110.41,298.29L110.98,295.57L110.99,292.86L111,298.29L112.08,295.57L112.08,298.29L114.19,295.57L114.19,292.86L114.19,298.29L116.14,295.57L116.15,298.29L116.16,295.57L117.2,298.29L117.25,295.57L119.06,292.86L119.88,298.29L119.89,295.57L120.04,298.29L120.2,295.57L120.2,298.29L121.01,295.57L121.33,298.29L122.02,295.57L122.05,298.29L123.65,295.57L123.68,298.29L125.49,295.57L125.59,298.29L125.97,295.57L126.45,292.86L126.57,295.57L127.44,292.86L127.44,295.57L127.84,284.71L127.98,284.71L128.37,282L128.7,295.57L128.71,295.57L129.67,292.86L129.96,298.29L130.64,295.57L131.6,292.86L131.72,290.14L132.27,292.86L132.45,290.14L132.55,287.43L133.26,282L133.29,284.71L133.6,282L133.81,284.71L134.25,282L134.26,279.29L134.26,271.14L134.41,287.43L135.65,284.71L135.76,282L135.78,284.71L137.18,282L137.94,292.86L139.13,290.14L139.52,292.86L141.1,290.14L142.16,287.43L142.16,290.14L143.46,282L143.46,284.71L143.71,287.43L143.74,290.14L144.13,284.71L144.13,287.43L144.45,284.71L144.45,287.43L145.42,290.14L145.59,295.57L146.29,292.86L146.38,290.14L147.95,287.43L148.47,279.29L148.48,282L148.49,284.71L148.54,292.86L150.3,290.14L150.4,292.86L150.44,290.14L151.99,287.43L152.01,290.14L153.34,287.43L153.34,290.14L153.76,287.43L154.2,284.71L154.88,282L154.91,284.71L157.71,287.43L160.68,282L161.4,279.29L162.16,282L162.86,279.29L162.86,282L165.49,279.29L165.94,282L166.53,279.29L167.73,276.57L167.97,279.29L167.97,276.57L168.01,298.29L168.01,295.57L170.35,292.86L170.36,295.57L172.65,298.29L173.73,295.57L173.73,298.29L174.35,295.57L174.38,298.29L176.54,295.57L176.7,292.86L178.05,295.57L178.07,298.29L178.64,276.57L178.72,279.29L178.73,276.57L178.76,287.43L180.24,284.71L180.57,276.57L182.2,273.86L182.69,271.14L182.7,273.86L184.85,271.14L185.33,273.86L186.63,271.14L186.92,273.86L187.22,271.14L189.36,268.43L192.28,265.71L192.38,268.43L193.27,265.71L193.95,268.43L193.99,263L194.21,265.71L195.07,268.43L195.32,279.29L196.13,282L196.21,284.71L196.3,279.29L199.67,276.57L200.22,279.29L200.89,276.57L201.03,273.86L203.14,271.14L206.04,268.43L207.59,265.71L207.61,263L208.9,260.29L209.67,263L209.69,260.29L209.98,279.29L209.99,276.57L210.95,279.29L211.37,282L211.38,279.29L212.5,282L212.95,287.43L213.32,284.71L213.33,287.43L213.85,279.29L213.89,284.71L214.45,287.43L214.48,290.14L215.36,287.43L216.52,284.71L216.53,287.43L218.47,282L218.75,279.29L221.06,276.57L222.17,279.29L223.72,276.57L224.19,273.86L226.45,268.43L226.46,271.14L227.3,263L229.09,260.29L229.37,252.14L229.89,249.43L230.93,244L230.98,246.71L233.18,227.71L233.26,230.43L233.26,233.14L233.41,225L233.99,227.71L234.1,225L235.36,222.29L235.51,219.57L235.78,230.43L235.78,233.14L235.94,246.71L236.22,241.29L236.7,238.57L237.73,284.71L237.96,282L238.14,279.29L238.15,276.57L238.73,284.71L238.83,282L239.01,279.29L239.92,287.43L239.93,284.71L239.93,282L240.66,292.86L240.9,290.14L240.9,292.86L241.09,282L241.63,290.14L241.87,287.43L242.02,290.14L242.17,287.43L242.85,284.71L242.88,282L243.68,284.71L244.16,279.29L244.79,276.57L245.64,271.14L245.64,273.86L246.48,268.43L246.48,271.14L247.92,263L248.85,265.71L252.41,263L252.51,260.29L252.76,257.57L253.06,260.29L254.62,257.57L255.54,252.14L255.88,249.43L256.26,246.71L257.82,244L258.25,235.86L258.45,244L258.45,246.71L259.65,233.14L261.67,230.43L261.74,225L262.75,222.29L264.36,216.86L264.39,219.57L264.41,238.57L265.02,227.71L265.3,225L265.3,227.71L265.44,225L267.54,222.29L269.19,219.57L269.38,216.86L271.1,214.14L271.1,216.86L271.1,214.14L271.1,216.86L272.04,214.14L272.23,211.43L272.89,214.14L273.83,225L274.03,227.71L275.54,225L276.05,227.71L277.4,222.29L278.09,219.57L278.09,222.29L278.87,219.57L278.97,214.14L280.1,216.86L280.66,249.43L283.16,246.71L283.64,249.43L284.02,246.71L284.04,249.43L286.8,246.71L287.49,252.14L287.52,249.43L287.63,246.71L287.63,249.43L287.88,249.43L288.55,252.14L288.73,246.71L288.73,249.43L291.04,246.71L291.05,244L291.82,241.29L293.8,238.57L294.32,235.86L294.47,227.71L294.51,241.29L294.86,235.86L295.31,238.57L295.77,244L295.99,241.29L296.24,238.57L297.03,273.86L297.25,271.14L298.21,263L298.82,260.29L299.8,246.71L300.75,244L301.72,238.57L301.79,235.86L303.21,225L303.23,222.29L303.54,203.29L305.69,200.57L307.56,197.86L307.57,195.14L310.88,197.86L310.95,195.14L312.19,192.43L312.6,189.71L314.57,178.86L314.57,176.14L314.71,170.71L315.09,227.71L315.4,225L315.83,222.29L315.85,230.43L316.1,227.71L316.24,225L317.25,211.43L317.37,214.14L319.66,211.43L320.15,208.71L320.44,211.43L321.37,208.71L321.76,211.43L322.89,208.71L324.32,211.43L324.34,219.57L324.98,216.86L325.68,219.57L326.1,235.86L326.52,238.57L326.65,235.86L326.95,244L327.15,241.29L327.52,244L328.07,241.29L328.88,233.14L329.75,230.43L329.97,225L330.6,222.29L331.44,227.71L331.84,225L331.84,227.71L332.53,225L332.8,227.71L332.8,233.14L333.36,230.43L334.66,227.71L334.87,222.29L335.3,230.43L335.32,230.43L335.32,233.14L335.95,227.71L336.16,225L336.93,219.57L336.95,222.29L339.96,219.57L340.34,222.29L341.69,219.57L342.13,216.86L342.13,219.57L342.87,222.29L343.15,219.57L343.23,225L343.97,222.29L345.05,214.14L345.05,216.86L345.49,211.43L346.04,208.71L346.46,214.14L346.48,208.71L347,211.43L347,208.71L347.58,211.43L348.29,208.71L348.43,211.43L349.09,208.71L350.23,203.29L350.23,200.57L350.29,206L351.05,203.29L351.1,200.57L351.9,197.86L352.99,195.14L353.08,192.43L353.77,181.57L354.13,178.86L354.25,181.57L355.93,178.86L356.21,176.14L357.25,173.43L357.4,197.86L357.51,197.86L358.95,195.14L359.87,192.43L359.88,195.14L361.68,192.43L361.68,195.14L362.09,192.43L364.47,189.71L364.47,192.43L365.13,192.43L365.72,189.71L366.46,178.86L366.52,181.57L367.68,178.86L367.78,173.43L368.21,189.71L368.57,187L368.79,189.71L369.74,187L370.55,176.14L370.75,173.43L371.33,187L371.43,178.86L371.62,176.14L372.32,192.43L372.55,189.71L373.37,216.86L373.44,214.14L374.14,230.43L374.5,227.71L375.29,230.43L377.68,227.71L378.28,219.57L378.3,222.29L378.54,225L382.02,222.29L382.04,225L382.74,219.57L383.62,222.29L384.72,219.57L385.63,216.86L385.63,219.57L387.44,216.86L387.58,211.43L388.58,214.14L389.12,206L389.12,203.29L389.13,195.14L392.8,197.86L393.86,187L395.94,184.29L396.42,178.86L396.42,181.57L396.42,184.29L398.47,178.86L398.91,176.14L401.63,170.71L401.82,168L402.38,165.29L402.38,168L402.55,170.71L403.13,184.29L403.26,181.57L403.85,178.86L403.9,181.57L404.21,168L404.61,165.29L404.79,157.14L404.98,168L404.99,170.71L404.99,173.43L405.74,159.86L405.87,157.14L406.61,176.14L406.66,173.43L406.96,170.71L406.97,181.57L407.4,173.43L407.44,176.14L407.54,181.57L407.84,176.14L408.5,173.43L408.57,170.71L408.98,187L408.99,184.29L409.39,181.57L409.88,162.57L410.06,192.43L410.37,189.71L410.8,173.43L410.94,187L410.94,189.71L410.99,192.43L411.55,184.29L411.59,187L412.18,184.29L412.32,192.43L412.87,178.86L412.95,176.14L413.01,178.86L413.37,162.57L413.38,159.86L413.41,151.71L413.54,197.86L413.85,187L414.25,184.29L414.67,178.86L414.76,184.29L414.9,187L415.54,181.57L415.79,184.29L416.31,192.43L416.48,187L416.59,189.71L416.92,184.29L417.29,197.86L417.42,195.14L417.42,200.57L417.72,187L417.88,197.86L418.28,195.14L418.93,208.71L419.51,206L419.85,208.71L420.23,200.57L420.23,197.86L420.48,187L421.18,189.71L421.32,203.29L421.62,184.29L421.78,189.71L421.95,192.43L422.17,189.71L422.33,197.86L423.47,195.14L423.6,200.57L423.76,195.14L424.41,192.43L424.57,195.14L424.74,189.71L425.08,187L425.11,195.14L425.5,189.71L426.19,187L426.69,184.29L426.69,187L426.69,189.71L427.21,184.29L427.22,181.57L427.22,178.86L427.26,189.71L427.39,181.57L428.23,178.86L428.45,170.71L428.65,184.29L428.78,187L429.17,206L429.45,200.57L429.55,203.29L429.97,195.14L429.97,208.71L430.12,206L430.37,203.29L430.42,206L430.87,197.86L431.1,203.29L431.14,200.57L431.26,195.14L431.84,214.14L431.84,214.14L431.92,211.43L431.92,214.14L432.2,195.14L432.41,203.29L432.81,200.57L433.18,203.29L433.51,189.71L433.77,192.43L434.3,216.86L434.46,214.14L434.88,216.86L435.3,203.29L435.59,206L435.83,203.29L435.84,206L436.27,200.57L436.27,200.57L437.36,197.86L437.95,192.43L437.95,195.14L438.74,192.43L438.79,189.71L438.81,211.43L439.21,208.71L439.75,211.43L439.86,214.14L440.02,200.57L440.02,197.86L440.43,192.43L440.47,197.86L440.68,200.57L440.7,197.86L441.41,216.86L441.41,214.14L441.7,216.86L442.01,208.71L442.28,214.14L442.58,216.86L442.94,219.57L443.26,208.71L443.26,211.43L443.66,208.71L444.73,200.57L445.05,203.29L445.07,200.57L445.21,211.43L445.63,211.43L445.92,208.71L445.93,211.43L446.19,206L446.44,211.43L446.73,208.71L447.04,219.57L447.29,214.14L447.6,216.86L448.25,211.43L448.25,214.14L448.49,211.43L448.66,203.29L448.67,214.14L448.84,208.71L449.54,211.43L449.54,208.71L450.07,219.57L450.47,216.86L450.76,214.14L450.77,219.57L451.05,216.86L451.33,214.14L451.99,211.43L451.99,214.14L452.15,216.86L452.17,214.14L452.3,227.71L452.69,225L452.83,227.71L452.98,219.57L453.57,225L453.67,227.71L454.37,214.14L454.38,225L454.38,227.71L454.38,225L454.52,230.43L455.09,227.71L455.34,225L455.34,230.43L456.08,227.71L456.19,230.43L456.21,235.86L456.9,230.43L457.71,227.71L457.84,230.43L458.49,227.71L458.64,222.29L458.69,235.86L458.72,235.86L458.72,238.57L459.41,227.71L459.41,235.86L459.41,238.57L460.09,233.14L460.12,235.86L460.21,238.57L460.4,230.43L460.52,233.14L461.06,230.43L461.06,233.14L461.79,222.29L461.8,225L462.06,227.71L462.38,233.14L462.59,225L463.19,222.29L463.46,227.71L463.48,225L464.41,222.29L464.47,225L465.01,219.57L465.01,222.29L465.15,219.57L466.11,211.43L466.11,214.14L466.23,216.86L466.52,211.43L467.41,214.14L468.03,211.43L468.32,222.29L468.36,219.57L469.05,227.71L469.29,225L469.3,222.29L469.3,225L470.01,211.43L470.02,222.29L470.06,219.57L470.96,216.86L470.96,219.57L471.52,214.14L471.53,211.43L471.55,219.57L472.28,216.86L472.29,219.57L472.36,230.43L472.99,225L473.06,227.71L473.09,222.29L473.62,238.57L474.38,235.86L474.77,238.57L474.8,235.86L475.44,233.14L475.98,238.57L476.74,235.86L477.17,230.43L477.57,233.14L477.65,235.86L478,230.43L478.06,235.86L478.08,238.57L478.83,233.14L478.83,235.86L478.92,233.14L479.25,227.71L479.25,230.43L479.93,233.14L480.06,227.71L480.54,233.14L481.39,230.43L482.24,227.71L482.24,230.43L482.24,227.71L482.27,233.14L482.82,233.14L483.69,230.43L483.8,225L483.81,233.14L483.94,227.71L484.77,230.43L485.35,219.57L485.67,216.86L486.17,219.57L486.35,216.86L486.35,214.14L486.98,203.29L486.98,219.57L487.08,216.86L487.32,214.14L487.6,211.43L487.6,216.86L487.6,219.57L488.19,216.86L488.42,219.57L488.53,216.86L488.84,225L489.48,227.71L489.95,222.29L490.07,227.71L490.08,230.43L490.08,227.71L490.46,235.86L490.74,235.86L490.9,233.14L491.5,230.43L491.58,233.14L491.6,235.86L491.8,227.71L491.94,230.43L492.58,227.71L493.41,235.86L493.45,233.14L493.69,235.86L494.12,230.43L494.38,233.14L494.7,225L494.79,230.43L495.55,227.71L495.93,233.14L496.36,219.57L496.9,216.86L497.04,230.43L497.62,222.29L498.18,219.57L498.93,214.14L499.32,216.86L499.33,219.57L500.27,216.86L500.52,222.29L500.96,211.43L501,219.57L501.09,216.86L501.49,219.57L501.8,216.86L503.18,214.14L504.32,203.29L504.43,206L504.43,208.71L504.43,211.43L504.6,203.29L504.63,203.29L506.82,206L507.21,200.57L507.24,219.57L507.51,219.57L507.51,222.29L508.34,214.14L508.35,216.86L508.62,219.57L509.32,203.29L509.37,206L509.47,208.71L509.57,206L510.02,214.14L510.17,206L510.59,203.29L511.11,197.86L511.12,200.57L511.15,203.29L511.31,197.86L511.31,203.29L513.19,200.57L513.19,203.29L514.95,200.57L516.33,189.71L516.48,187L516.54,181.57L516.54,189.71L516.99,187L517.32,184.29L518.83,178.86L519.06,176.14L519.06,178.86L519.54,170.71L520.68,168L521.32,157.14L521.33,154.43L521.33,157.14L521.91,140.86L522.01,140.86L522.27,138.14L522.27,140.86L522.72,127.29L523,127.29L523.11,124.57L523.11,127.29L523.85,119.14L523.93,121.86L524.68,108.29L526.96,105.57L528.2,86.57L529.14,83.86L530.81,78.43L532.6,75.71L533.19,64.86L533.52,62.14L534.75,48.57L534.91,45.86L536.08,40.43L536.58,37.71L538.08,24.14L539.33,21.43L539.69,16L540,16" style="vector-effect: none; fill: none; stroke: rgb(44, 160, 44); stroke-opacity: 1; stroke-width: 2px; opacity: 1;"/></g><g class="points"/><g class="text"/></g></g></g></g><g class="zerolinelayer-above"/><path class="xlines-above crisp" d="M0,0" style="fill: none;"/><path class="ylines-above crisp" d="M0,0" style="fill: none;"/><g class="overlines-above"/><g class="xaxislayer-above"><g class="xtick"><text text-anchor="middle" x="0" y="439" transform="translate(96.65,0)" style="font-family: 'Open Sans'; font-size: 18px; fill: rgb(0, 0, 0); fill-opacity: 1; white-space: pre;">2016</text></g><g class="xtick"><text text-anchor="middle" x="0" y="439" style="font-family: 'Open Sans'; font-size: 18px; fill: rgb(0, 0, 0); fill-opacity: 1; white-space: pre;" transform="translate(198.57,0)">2018</text></g><g class="xtick"><text text-anchor="middle" x="0" y="439" style="font-family: 'Open Sans'; font-size: 18px; fill: rgb(0, 0, 0); fill-opacity: 1; white-space: pre;" transform="translate(300.35,0)">2020</text></g><g class="xtick"><text text-anchor="middle" x="0" y="439" style="font-family: 'Open Sans'; font-size: 18px; fill: rgb(0, 0, 0); fill-opacity: 1; white-space: pre;" transform="translate(402.27,0)">2022</text></g><g class="xtick"><text text-anchor="middle" x="0" y="439" style="font-family: 'Open Sans'; font-size: 18px; fill: rgb(0, 0, 0); fill-opacity: 1; white-space: pre;" transform="translate(504.05,0)">2024</text></g><g class="xtick"><text text-anchor="middle" x="0" y="439" style="font-family: 'Open Sans'; font-size: 18px; fill: rgb(0, 0, 0); fill-opacity: 1; white-space: pre;" transform="translate(605.97,0)">2026</text></g></g><g class="yaxislayer-above"><g class="ytick"><text text-anchor="end" x="79" y="6.3" transform="translate(0,420)" style="font-family: 'Open Sans'; font-size: 18px; fill: rgb(0, 0, 0); fill-opacity: 1; white-space: pre;">0</text></g><g class="ytick"><text text-anchor="end" x="79" y="6.3" style="font-family: 'Open Sans'; font-size: 18px; fill: rgb(0, 0, 0); fill-opacity: 1; white-space: pre;" transform="translate(0,365.71)">20</text></g><g class="ytick"><text text-anchor="end" x="79" y="6.3" style="font-family: 'Open Sans'; font-size: 18px; fill: rgb(0, 0, 0); fill-opacity: 1; white-space: pre;" transform="translate(0,311.43)">40</text></g><g class="ytick"><text text-anchor="end" x="79" y="6.3" style="font-family: 'Open Sans'; font-size: 18px; fill: rgb(0, 0, 0); fill-opacity: 1; white-space: pre;" transform="translate(0,257.14)">60</text></g><g class="ytick"><text text-anchor="end" x="79" y="6.3" style="font-family: 'Open Sans'; font-size: 18px; fill: rgb(0, 0, 0); fill-opacity: 1; white-space: pre;" transform="translate(0,202.86)">80</text></g><g class="ytick"><text text-anchor="end" x="79" y="6.3" style="font-family: 'Open Sans'; font-size: 18px; fill: rgb(0, 0, 0); fill-opacity: 1; white-space: pre;" transform="translate(0,148.57)">100</text></g></g><g class="overaxes-above"/></g></g><g class="polarlayer"/><g class="smithlayer"/><g class="ternarylayer"/><g class="geolayer"/><g class="funnelarealayer"/><g class="pielayer"/><g class="iciclelayer"/><g class="treemaplayer"/><g class="sunburstlayer"/><g class="glimages"/><defs id="topdefs-b46009"><g class="clips"/></defs><g class="layer-above"><g class="imagelayer"/><g class="shapelayer"/></g><g class="infolayer"><g class="g-gtitle"><text class="gtitle" x="35" y="50" text-anchor="start" dy="0em" style="opacity: 1; font-family: 'Open Sans'; font-size: 25px; fill: rgb(0, 0, 0); fill-opacity: 1; white-space: pre;">MultiQC/MultiQC - Open Pull Requests Over Time</text></g><g class="g-xtitle"><text class="xtitle" x="350" y="472.9" text-anchor="middle" style="opacity: 1; font-family: 'Open Sans'; font-size: 22px; fill: rgb(0, 0, 0); fill-opacity: 1; white-space: pre;">Date</text></g><g class="g-ytitle"><text class="ytitle" transform="rotate(-90,29.799999999999997,260)" x="29.799999999999997" y="260" text-anchor="middle" style="opacity: 1; font-family: 'Open Sans'; font-size: 22px; fill: rgb(0, 0, 0); fill-opacity: 1; white-space: pre;">Number of Open PRs</text></g></g></svg>