<svg class="main-svg" xmlns="http://www.w3.org/2000/svg" xmlns:xlink="http://www.w3.org/1999/xlink" width="700" height="500" style="" viewBox="0 0 700 500"><rect x="0" y="0" width="700" height="500" style="fill: rgb(0, 0, 0); fill-opacity: 0;"/><defs id="defs-293f8e"><g class="clips"><clipPath id="clip293f8exyplot" class="plotclip"><rect width="540" height="320"/></clipPath><clipPath class="axesclip" id="clip293f8ex"><rect x="80" y="0" width="540" height="500"/></clipPath><clipPath class="axesclip" id="clip293f8ey"><rect x="0" y="100" width="700" height="320"/></clipPath><clipPath class="axesclip" id="clip293f8exy"><rect x="80" y="100" width="540" height="320"/></clipPath></g><g class="gradients"/><g class="patterns"/></defs><g class="bglayer"><rect class="bg" x="80" y="100" width="540" height="320" style="fill: rgb(0, 0, 0); fill-opacity: 0; stroke-width: 0;"/></g><g class="layer-below"><g class="imagelayer"/><g class="shapelayer"/></g><g class="cartesianlayer"><g class="subplot xy"><g class="layer-subplot"><g class="shapelayer"/><g class="imagelayer"/></g><g class="minor-gridlayer"><g class="x"/><g class="y"/></g><g class="gridlayer"><g class="x"><path class="xgrid crisp" transform="translate(96.86,0)" d="M0,100v320" style="stroke: rgb(255, 255, 255); stroke-opacity: 1; stroke-width: 1px;"/><path class="xgrid crisp" transform="translate(200.07999999999998,0)" d="M0,100v320" style="stroke: rgb(255, 255, 255); stroke-opacity: 1; stroke-width: 1px;"/><path class="xgrid crisp" transform="translate(303.15999999999997,0)" d="M0,100v320" style="stroke: rgb(255, 255, 255); stroke-opacity: 1; stroke-width: 1px;"/><path class="xgrid crisp" transform="translate(406.38,0)" d="M0,100v320" style="stroke: rgb(255, 255, 255); stroke-opacity: 1; stroke-width: 1px;"/><path class="xgrid crisp" transform="translate(509.47,0)" d="M0,100v320" style="stroke: rgb(255, 255, 255); stroke-opacity: 1; stroke-width: 1px;"/><path class="xgrid crisp" transform="translate(612.69,0)" d="M0,100v320" style="stroke: rgb(255, 255, 255); stroke-opacity: 1; stroke-width: 1px;"/></g><g class="y"><path class="ygrid crisp" transform="translate(0,355.32)" d="M80,0h540" style="stroke: rgb(255, 255, 255); stroke-opacity: 1; stroke-width: 1px;"/><path class="ygrid crisp" transform="translate(0,290.64)" d="M80,0h540" style="stroke: rgb(255, 255, 255); stroke-opacity: 1; stroke-width: 1px;"/><path class="ygrid crisp" transform="translate(0,225.95999999999998)" d="M80,0h540" style="stroke: rgb(255, 255, 255); stroke-opacity: 1; stroke-width: 1px;"/><path class="ygrid crisp" transform="translate(0,161.28)" d="M80,0h540" style="stroke: rgb(255, 255, 255); stroke-opacity: 1; stroke-width: 1px;"/></g></g><g class="zerolinelayer"><path class="yzl zl crisp" transform="translate(0,420)" d="M80,0h540" style="stroke: rgb(255, 255, 255); stroke-opacity: 1; stroke-width: 2px;"/></g><g class="layer-between"><g class="shapelayer"/><g class="imagelayer"/></g><path class="xlines-below"/><path class="ylines-below"/><g class="overlines-below"/><g class="xaxislayer-below"/><g class="yaxislayer-below"/><g class="overaxes-below"/><g class="overplot"><g class="xy" transform="translate(80,100)" clip-path="url(#clip293f8exyplot)"><g class="scatterlayer mlayer"><g class="trace scatter tracee70bb7" style="stroke-miterlimit: 2;"><g class="fills"><g><path class="js-fill" d="M540,320L0,320L0,316.77L0.1,320L1.03,316.77L1.71,320L1.81,316.77L1.81,320L3.07,316.77L3.81,320L4.67,316.77L4.67,320L4.77,320L5.5,316.77L5.5,320L6.08,320L6.91,316.77L6.91,320L7.49,320L9.02,316.77L9.02,320L9.65,316.77L9.87,320L11.57,316.77L11.57,320L14.4,316.77L14.4,320L21.75,316.77L21.75,320L21.94,316.77L21.94,320L23.55,316.77L23.55,313.53L23.69,316.77L24.82,320L26.52,316.77L26.52,320L27.83,313.53L27.83,316.77L27.83,320L30.65,316.77L30.65,320L30.79,320L32.02,316.77L32.02,320L32.62,320L33.51,316.77L33.51,320L34.28,316.77L34.28,320L35.02,316.77L35.11,320L37.7,313.53L38.13,316.77L38.25,313.53L38.25,316.77L39.54,320L40.26,316.77L40.26,320L41.96,316.77L41.96,320L43.04,316.77L43.04,320L43.53,307.06L43.63,310.3L44.16,313.53L44.6,316.77L45.04,313.53L45.05,316.77L46.29,313.53L50.12,310.3L50.12,313.53L50.42,316.77L51.21,313.53L52.11,320L53.51,316.77L53.91,320L57.04,316.77L57.04,320L57.04,316.77L58.53,313.53L58.85,316.77L59.63,313.53L60.4,310.3L60.43,313.53L60.44,310.3L61,320L62.84,316.77L63.13,320L63.81,316.77L63.96,313.53L64.93,316.77L65.1,310.3L65.23,313.53L66.05,316.77L66.36,313.53L66.36,316.77L66.91,313.53L66.98,307.06L67.09,320L67.18,320L67.76,316.77L68.61,313.53L68.61,316.77L69.34,310.3L69.34,313.53L70.04,310.3L74.53,307.06L75,303.83L76.68,320L77.67,316.77L77.67,320L78.64,316.77L79.83,313.53L79.88,316.77L80.94,310.3L81.35,307.06L81.86,303.83L81.86,307.06L81.88,310.3L83.02,303.83L83.03,307.06L83.86,303.83L83.86,307.06L84.15,310.3L84.72,307.06L84.72,310.3L84.72,307.06L86.52,310.3L86.7,307.06L86.7,310.3L87.59,307.06L87.82,310.3L88.54,307.06L89,303.83L89.77,307.06L90.48,303.83L90.77,307.06L93.02,303.83L93.02,307.06L93.61,303.83L93.63,307.06L95,310.3L95.51,307.06L95.71,310.3L95.85,307.06L95.86,310.3L96.86,307.06L96.87,287.66L97.57,300.6L97.57,303.83L97.85,310.3L98.03,307.06L98.4,303.83L98.98,300.6L99.51,303.83L100.14,297.36L100.39,294.13L100.68,303.83L100.95,294.13L101.27,290.89L101.39,300.6L101.39,297.36L102.35,300.6L102.78,290.89L102.78,290.89L103.31,294.13L104.36,277.96L105.31,274.72L106.32,277.96L106.61,274.72L106.73,281.19L107.32,281.19L107.45,277.96L107.74,290.89L107.87,287.66L108.52,284.43L109.02,271.49L109.02,274.72L109.4,277.96L109.44,281.19L110.28,277.96L110.41,274.72L110.43,277.96L111.71,281.19L111.82,294.13L112.39,290.89L112.41,287.66L112.41,294.13L113.51,290.89L113.51,294.13L115.65,290.89L115.65,287.66L115.65,294.13L117.62,290.89L117.64,294.13L117.64,290.89L118.69,294.13L118.75,290.89L120.58,287.66L121.42,294.13L121.42,290.89L121.57,294.13L121.73,290.89L121.74,294.13L122.56,290.89L122.88,294.13L123.58,290.89L123.61,294.13L125.23,290.89L125.25,294.13L127.09,290.89L127.19,294.13L127.58,290.89L128.06,287.66L128.18,290.89L129.07,287.66L129.07,290.89L129.48,277.96L129.61,277.96L130.01,274.72L130.35,290.89L130.35,290.89L131.33,287.66L131.44,294.13L131.62,294.13L132.31,290.89L133.28,287.66L133.4,284.43L133.96,287.66L134.14,284.43L134.25,281.19L134.97,274.72L134.99,277.96L135.3,274.72L135.52,277.96L135.96,274.72L135.97,271.49L135.98,261.79L136.13,281.19L137.38,277.96L137.5,274.72L137.51,277.96L138.93,274.72L139.7,287.66L140.9,284.43L141.31,287.66L142.9,284.43L143.97,281.19L143.98,284.43L145.29,274.72L145.29,277.96L145.55,281.19L145.57,284.43L145.97,277.96L145.97,281.19L146.29,277.96L146.3,281.19L147.28,284.43L147.45,290.89L148.15,287.66L148.24,284.43L149.84,281.19L150.37,271.49L150.38,277.96L150.38,281.19L150.43,287.66L152.22,284.43L152.32,287.66L152.36,284.43L153.93,281.19L153.95,284.43L155.3,281.19L155.3,284.43L155.72,281.19L156.17,277.96L156.85,274.72L156.89,277.96L159.72,281.19L162.74,274.72L163.46,271.49L164.23,274.72L164.94,271.49L164.94,274.72L167.6,271.49L168.05,274.72L168.66,271.49L169.87,268.26L170.11,271.49L170.11,268.26L170.15,294.13L170.15,290.89L172.52,287.66L172.54,290.89L174.86,294.13L175.95,290.89L175.95,294.13L176.57,290.89L176.6,294.13L178.8,290.89L178.95,287.66L180.33,290.89L180.34,294.13L180.92,268.26L181.04,281.19L182.54,277.96L182.87,268.26L184.52,265.02L185.02,261.79L185.03,265.02L187.21,261.79L187.69,265.02L189.01,261.79L189.31,265.02L189.61,261.79L191.77,258.55L194.74,255.32L194.84,258.55L195.74,255.32L196.43,258.55L196.46,252.09L196.69,255.32L197.56,258.55L197.82,271.49L198.64,274.72L198.71,277.96L198.81,271.49L202.22,268.26L202.78,271.49L203.46,268.26L203.6,265.02L205.73,261.79L208.67,258.55L210.24,255.32L210.26,252.09L211.57,248.85L212.35,252.09L212.36,248.85L212.66,271.49L212.67,268.26L213.64,271.49L214.07,274.72L214.08,271.49L215.21,274.72L215.67,281.19L216.04,277.96L216.06,281.19L216.58,271.49L216.62,277.96L217.18,281.19L217.22,284.43L218.11,281.19L219.28,277.96L219.29,281.19L221.26,274.72L221.55,271.49L223.89,268.26L225,271.49L226.58,268.26L227.05,265.02L229.34,258.55L229.35,261.79L230.2,252.09L232.02,248.85L232.3,239.15L232.82,235.91L233.88,229.45L233.93,232.68L236.16,210.04L236.24,213.28L236.24,216.51L236.39,206.81L236.98,210.04L237.09,206.81L238.37,203.57L238.52,200.34L238.79,213.28L238.79,216.51L238.96,232.68L239.23,226.21L239.72,222.98L240.76,277.96L241,274.72L241.18,271.49L241.19,268.26L241.78,277.96L241.88,274.72L242.07,271.49L242.98,281.19L242.99,277.96L243,274.72L243.43,284.43L243.73,287.66L244.14,277.96L244.17,274.72L244.72,284.43L244.96,281.19L245.11,284.43L245.26,281.19L245.95,277.96L245.98,274.72L246.79,277.96L247.28,271.49L247.91,268.26L248.77,261.79L248.77,265.02L249.63,258.55L249.63,261.79L251.09,252.09L252.02,255.32L255.64,252.09L255.73,248.85L255.98,245.62L256.29,248.85L257.87,245.62L258.8,239.15L259.15,235.91L259.53,232.68L261.11,229.45L261.55,219.74L261.75,229.45L261.75,232.68L262.97,216.51L265.02,213.28L265.08,206.81L266.1,203.57L267.73,197.11L267.77,200.34L267.78,222.98L268.41,210.04L268.69,206.81L268.69,210.04L268.83,206.81L270.95,203.57L272.63,200.34L272.82,197.11L274.56,193.87L274.56,197.11L274.56,193.87L274.57,197.11L275.52,193.87L275.71,190.64L276.38,193.87L277.32,206.81L277.53,210.04L279.06,206.81L279.58,210.04L280.94,203.57L281.64,200.34L281.64,203.57L282.43,200.34L282.54,193.87L283.68,197.11L284.24,235.91L286.78,232.68L287.26,235.91L287.65,232.68L287.67,235.91L290.46,232.68L291.16,239.15L291.19,235.91L291.3,232.68L291.56,235.91L292.24,239.15L292.42,232.68L292.42,235.91L294.75,232.68L294.77,229.45L295.55,226.21L297.56,222.98L298.08,219.74L298.23,210.04L298.28,226.21L298.63,219.74L299.08,222.98L299.55,229.45L299.77,226.21L300.03,222.98L300.68,261.79L300.82,265.02L302.02,252.09L302.64,248.85L303.63,232.68L304.59,229.45L305.58,222.98L305.64,219.74L306.42,213.28L306.46,216.51L307.42,180.94L309.6,177.7L311.49,174.47L311.49,171.23L314.85,174.47L314.93,171.23L316.18,168L316.59,164.77L318.59,151.83L318.59,148.6L318.73,142.13L319.12,210.04L319.43,206.81L319.87,203.57L319.88,213.28L320.13,210.04L320.28,206.81L321.3,190.64L321.42,193.87L323.75,190.64L324.24,187.4L324.53,190.64L325.48,187.4L325.86,190.64L327.02,187.4L328.46,190.64L328.48,200.34L329.13,197.11L329.84,200.34L330.27,219.74L330.69,222.98L330.82,219.74L331.13,229.45L331.32,226.21L331.7,229.45L332.26,226.21L333.08,216.51L333.96,213.28L334.18,206.81L334.82,203.57L335.67,210.04L336.07,206.81L336.08,210.04L336.78,206.81L337.05,210.04L337.05,216.51L337.61,213.28L338.94,210.04L339.15,203.57L339.58,213.28L339.6,213.28L339.6,216.51L340.24,210.04L340.45,206.81L341.24,200.34L341.25,203.57L344.31,200.34L344.69,203.57L346.06,200.34L346.5,197.11L346.5,200.34L347.25,203.57L347.53,200.34L347.61,206.81L348.36,203.57L349.46,193.87L349.46,197.11L349.9,190.64L350.46,187.4L350.89,193.87L350.91,187.4L351.43,190.64L351.43,187.4L352.02,190.64L352.74,187.4L352.88,190.64L353.55,187.4L354.7,180.94L354.71,177.7L354.76,184.17L355.54,180.94L355.58,177.7L356.4,174.47L357.5,171.23L357.59,168L358.29,155.06L358.65,151.83L358.77,155.06L360.47,151.83L360.75,148.6L361.81,145.36L361.96,174.47L362.08,174.47L363.54,171.23L364.46,168L364.47,171.23L366.3,168L366.3,171.23L366.72,168L369.13,164.77L369.13,168L369.79,168L370.39,164.77L371.14,151.83L371.2,155.06L372.37,151.83L372.47,145.36L372.91,164.77L373.28,161.53L373.5,164.77L374.46,161.53L375.28,148.6L375.49,145.36L376.07,161.53L376.17,151.83L376.37,148.6L377.07,168L377.3,164.77L378.25,197.11L378.76,193.87L378.91,213.28L379.29,210.04L380.03,213.28L380.04,210.04L380.08,213.28L382.5,210.04L383.11,200.34L383.13,203.57L383.37,206.81L386.9,203.57L386.92,206.81L387.63,200.34L388.52,203.57L389.64,200.34L390.55,197.11L390.55,200.34L392.39,197.11L392.53,190.64L393.54,193.87L394.09,184.17L394.09,180.94L394.1,171.23L397.82,174.47L398.89,161.53L400.99,158.3L401.49,151.83L401.49,155.06L401.49,158.3L403.56,151.83L404.01,148.6L406.76,142.13L406.95,138.89L407.52,135.66L407.52,138.89L407.69,142.13L408.28,158.3L408.41,155.06L409.01,151.83L409.06,155.06L409.37,138.89L409.78,135.66L409.96,125.96L410.15,138.89L410.16,142.13L410.16,145.36L410.79,132.43L410.92,129.19L411.2,125.96L411.31,135.66L411.33,138.89L411.37,135.66L411.8,148.6L412.07,145.36L412.16,142.13L412.17,155.06L412.79,151.83L413.05,148.6L413.77,145.36L413.78,142.13L414.21,161.53L414.69,155.06L414.73,151.83L415.11,132.43L415.3,168L415.61,164.77L416.04,145.36L416.19,158.3L416.19,161.53L416.24,168L416.8,158.3L416.84,161.53L417.44,158.3L417.58,168L418.14,151.83L418.22,148.6L418.28,151.83L418.65,132.43L418.66,129.19L418.69,119.49L418.82,174.47L419.14,161.53L419.54,158.3L419.96,151.83L420.06,158.3L420.2,161.53L420.85,155.06L421.1,158.3L421.62,168L421.8,161.53L421.9,164.77L422.25,158.3L422.62,174.47L422.75,171.23L422.75,177.7L423.05,161.53L423.22,174.47L423.62,171.23L424.28,187.4L424.87,184.17L425.21,187.4L425.22,180.94L425.6,177.7L425.85,161.53L426.56,164.77L426.7,180.94L427.01,158.3L427.17,164.77L427.34,168L427.56,164.77L427.72,174.47L428.88,171.23L429.01,177.7L429.17,171.23L429.83,168L429.99,171.23L430.17,164.77L430.51,161.53L430.54,171.23L430.94,164.77L431.63,161.53L432.14,158.3L432.14,161.53L432.14,164.77L432.67,158.3L432.67,155.06L432.68,151.83L432.71,164.77L432.85,155.06L433.7,151.83L433.93,142.13L434.05,155.06L434.13,158.3L434.84,184.17L435.09,177.7L435.1,174.47L435.46,171.23L435.46,177.7L435.46,180.94L435.46,177.7L435.46,187.4L436.05,184.17L436.28,180.94L436.52,184.17L436.77,171.23L436.89,174.47L436.91,171.23L437.36,193.87L437.66,177.7L437.71,174.47L437.72,171.23L437.74,193.87L438.43,177.7L438.57,174.47L438.71,180.94L439.05,164.77L439.31,168L439.85,197.11L440.01,193.87L440.43,197.11L440.86,180.94L441.15,184.17L441.4,180.94L441.4,184.17L441.84,177.7L441.84,177.7L442.95,174.47L443.54,168L443.54,171.23L444.35,168L444.39,164.77L444.42,190.64L444.82,187.4L445.36,190.64L445.48,193.87L445.62,180.94L445.62,180.94L445.64,177.7L446.06,168L446.37,184.17L446.45,180.94L446.7,174.47L447.05,197.11L447.05,193.87L447.34,197.11L447.65,187.4L447.93,193.87L448.24,197.11L448.6,200.34L448.9,187.4L448.93,190.64L449.32,187.4L450.4,177.7L450.74,180.94L450.76,177.7L450.89,190.64L451.32,190.64L451.61,187.4L451.63,190.64L451.89,184.17L452.14,190.64L452.44,187.4L452.75,200.34L453,193.87L453.31,197.11L453.97,190.64L453.97,193.87L454.22,190.64L454.39,180.94L454.4,193.87L454.58,187.4L455.28,190.64L455.28,187.4L455.82,200.34L456.22,197.11L456.52,193.87L456.53,200.34L456.81,197.11L457.1,193.87L457.76,190.64L457.76,193.87L457.93,197.11L457.94,193.87L458.08,210.04L458.62,206.81L458.68,203.57L458.76,200.34L459.34,210.04L459.36,206.81L459.47,210.04L460.17,193.87L460.18,206.81L460.18,210.04L460.18,206.81L460.32,213.28L460.9,210.04L461.15,206.81L461.15,213.28L461.9,210.04L462.01,213.28L462.43,219.74L462.73,213.28L463.56,210.04L463.69,213.28L464.34,210.04L464.49,203.57L464.54,219.74L464.57,216.51L464.58,219.74L464.58,222.98L465.27,210.04L465.28,222.98L465.4,219.74L465.97,216.51L466.09,222.98L466.13,219.74L466.14,216.51L466.23,219.74L466.27,213.28L466.4,216.51L466.95,213.28L466.95,216.51L467.68,203.57L467.7,206.81L467.96,210.04L468.28,216.51L468.5,206.81L469.11,203.57L469.38,210.04L469.4,206.81L470.34,203.57L470.41,206.81L470.94,200.34L470.95,203.57L471.09,200.34L472.06,190.64L472.06,193.87L472.18,197.11L472.47,190.64L473.38,193.87L474,190.64L474.19,203.57L474.29,200.34L475.04,210.04L475.05,203.57L475.07,200.34L475.31,206.81L475.72,197.11L475.85,193.87L476.02,190.64L476.02,203.57L476.31,197.11L476.33,200.34L476.97,197.11L476.97,200.34L477.34,197.11L477.34,200.34L477.56,190.64L477.58,200.34L478.25,197.11L478.39,213.28L478.99,206.81L479.01,210.04L479.03,203.57L479.67,222.98L480.43,219.74L480.83,222.98L480.86,219.74L481.51,216.51L482.06,222.98L482.83,219.74L483.27,213.28L483.67,216.51L483.75,219.74L484.11,213.28L484.17,219.74L484.19,222.98L484.22,216.51L484.94,219.74L485.04,216.51L485.37,210.04L485.37,213.28L486.06,216.51L486.19,210.04L486.67,216.51L487.53,213.28L488.39,210.04L488.39,213.28L488.43,216.51L488.99,210.04L488.99,216.51L489.86,213.28L489.97,206.81L489.99,216.51L490.12,210.04L490.96,213.28L491.55,200.34L491.87,197.11L492.38,200.34L492.56,197.11L492.56,193.87L493.2,180.94L493.2,200.34L493.3,197.11L493.54,193.87L493.82,190.64L493.83,197.11L493.83,200.34L494.42,197.11L494.66,200.34L494.77,197.11L495.09,206.81L495.73,210.04L496.21,203.57L496.33,210.04L496.33,213.28L496.33,210.04L496.72,219.74L497.01,219.74L497.17,216.51L497.78,213.28L497.86,216.51L497.88,219.74L498.08,210.04L498.22,213.28L498.87,210.04L499.71,219.74L499.75,216.51L499.99,219.74L500.42,213.28L500.69,216.51L501.02,206.81L501.11,213.28L501.88,210.04L502.26,216.51L502.33,206.81L502.68,203.57L503.24,197.11L503.36,213.28L503.37,210.04L503.37,213.28L503.98,203.57L504.54,200.34L505.3,193.87L505.7,197.11L505.7,200.34L506.66,197.11L506.91,203.57L507.36,190.64L507.4,200.34L507.49,197.11L507.9,200.34L508.2,197.11L509.6,193.87L510.76,180.94L510.87,184.17L510.87,187.4L510.87,190.64L511.04,180.94L511.08,180.94L513.29,184.17L513.69,177.7L513.71,200.34L513.99,197.11L513.99,200.34L514.11,203.57L514.11,200.34L514.83,197.11L515.11,200.34L515.13,193.87L515.13,197.11L515.7,193.87L515.83,180.94L516.09,190.64L516.53,193.87L517.11,180.94L517.55,177.7L517.67,180.94L517.83,174.47L517.84,180.94L519.74,177.7L519.74,180.94L521.53,177.7L522.92,164.77L523.08,161.53L523.13,155.06L523.14,164.77L523.59,161.53L523.93,158.3L525.45,151.83L525.69,148.6L525.69,151.83L526.18,142.13L527.32,138.89L527.98,125.96L527.98,122.72L527.98,125.96L528.58,106.55L528.67,106.55L528.94,103.32L528.94,106.55L529.39,90.38L529.68,90.38L529.79,87.15L529.79,90.38L530.54,80.68L530.62,83.91L531.38,67.74L533.69,64.51L534.95,41.87L535.89,38.64L537.59,32.17L539.4,28.94L540,16" style="fill: rgb(44, 160, 44); fill-opacity: 0.5; stroke-width: 0;"/></g></g><g class="errorbars"/><g class="lines"><path class="js-line" d="M0,316.77L0.1,320L1.03,316.77L1.71,320L1.81,316.77L1.81,320L3.07,316.77L3.81,320L4.67,316.77L4.67,320L4.77,320L5.5,316.77L5.5,320L6.08,320L6.91,316.77L6.91,320L7.49,320L9.02,316.77L9.02,320L9.65,316.77L9.87,320L11.57,316.77L11.57,320L14.4,316.77L14.4,320L21.75,316.77L21.75,320L21.94,316.77L21.94,320L23.55,316.77L23.55,313.53L23.69,316.77L24.82,320L26.52,316.77L26.52,320L27.83,313.53L27.83,316.77L27.83,320L30.65,316.77L30.65,320L30.79,320L32.02,316.77L32.02,320L32.62,320L33.51,316.77L33.51,320L34.28,316.77L34.28,320L35.02,316.77L35.11,320L37.7,313.53L38.13,316.77L38.25,313.53L38.25,316.77L39.54,320L40.26,316.77L40.26,320L41.96,316.77L41.96,320L43.04,316.77L43.04,320L43.53,307.06L43.63,310.3L44.16,313.53L44.6,316.77L45.04,313.53L45.05,316.77L46.29,313.53L50.12,310.3L50.12,313.53L50.42,316.77L51.21,313.53L52.11,320L53.51,316.77L53.91,320L57.04,316.77L57.04,320L57.04,316.77L58.53,313.53L58.85,316.77L59.63,313.53L60.4,310.3L60.43,313.53L60.44,310.3L61,320L62.84,316.77L63.13,320L63.81,316.77L63.96,313.53L64.93,316.77L65.1,310.3L65.23,313.53L66.05,316.77L66.36,313.53L66.36,316.77L66.91,313.53L66.98,307.06L67.09,320L67.18,320L67.76,316.77L68.61,313.53L68.61,316.77L69.34,310.3L69.34,313.53L70.04,310.3L74.53,307.06L75,303.83L76.68,320L77.67,316.77L77.67,320L78.64,316.77L79.83,313.53L79.88,316.77L80.94,310.3L81.35,307.06L81.86,303.83L81.86,307.06L81.88,310.3L83.02,303.83L83.03,307.06L83.86,303.83L83.86,307.06L84.15,310.3L84.72,307.06L84.72,310.3L84.72,307.06L86.52,310.3L86.7,307.06L86.7,310.3L87.59,307.06L87.82,310.3L88.54,307.06L89,303.83L89.77,307.06L90.48,303.83L90.77,307.06L93.02,303.83L93.02,307.06L93.61,303.83L93.63,307.06L95,310.3L95.51,307.06L95.71,310.3L95.85,307.06L95.86,310.3L96.86,307.06L96.87,287.66L97.57,300.6L97.57,303.83L97.85,310.3L98.03,307.06L98.4,303.83L98.98,300.6L99.51,303.83L100.14,297.36L100.39,294.13L100.68,303.83L100.95,294.13L101.27,290.89L101.39,300.6L101.39,297.36L102.35,300.6L102.78,290.89L102.78,290.89L103.31,294.13L104.36,277.96L105.31,274.72L106.32,277.96L106.61,274.72L106.73,281.19L107.32,281.19L107.45,277.96L107.74,290.89L107.87,287.66L108.52,284.43L109.02,271.49L109.02,274.72L109.4,277.96L109.44,281.19L110.28,277.96L110.41,274.72L110.43,277.96L111.71,281.19L111.82,294.13L112.39,290.89L112.41,287.66L112.41,294.13L113.51,290.89L113.51,294.13L115.65,290.89L115.65,287.66L115.65,294.13L117.62,290.89L117.64,294.13L117.64,290.89L118.69,294.13L118.75,290.89L120.58,287.66L121.42,294.13L121.42,290.89L121.57,294.13L121.73,290.89L121.74,294.13L122.56,290.89L122.88,294.13L123.58,290.89L123.61,294.13L125.23,290.89L125.25,294.13L127.09,290.89L127.19,294.13L127.58,290.89L128.06,287.66L128.18,290.89L129.07,287.66L129.07,290.89L129.48,277.96L129.61,277.96L130.01,274.72L130.35,290.89L130.35,290.89L131.33,287.66L131.44,294.13L131.62,294.13L132.31,290.89L133.28,287.66L133.4,284.43L133.96,287.66L134.14,284.43L134.25,281.19L134.97,274.72L134.99,277.96L135.3,274.72L135.52,277.96L135.96,274.72L135.97,271.49L135.98,261.79L136.13,281.19L137.38,277.96L137.5,274.72L137.51,277.96L138.93,274.72L139.7,287.66L140.9,284.43L141.31,287.66L142.9,284.43L143.97,281.19L143.98,284.43L145.29,274.72L145.29,277.96L145.55,281.19L145.57,284.43L145.97,277.96L145.97,281.19L146.29,277.96L146.3,281.19L147.28,284.43L147.45,290.89L148.15,287.66L148.24,284.43L149.84,281.19L150.37,271.49L150.38,277.96L150.38,281.19L150.43,287.66L152.22,284.43L152.32,287.66L152.36,284.43L153.93,281.19L153.95,284.43L155.3,281.19L155.3,284.43L155.72,281.19L156.17,277.96L156.85,274.72L156.89,277.96L159.72,281.19L162.74,274.72L163.46,271.49L164.23,274.72L164.94,271.49L164.94,274.72L167.6,271.49L168.05,274.72L168.66,271.49L169.87,268.26L170.11,271.49L170.11,268.26L170.15,294.13L170.15,290.89L172.52,287.66L172.54,290.89L174.86,294.13L175.95,290.89L175.95,294.13L176.57,290.89L176.6,294.13L178.8,290.89L178.95,287.66L180.33,290.89L180.34,294.13L180.92,268.26L181.04,281.19L182.54,277.96L182.87,268.26L184.52,265.02L185.02,261.79L185.03,265.02L187.21,261.79L187.69,265.02L189.01,261.79L189.31,265.02L189.61,261.79L191.77,258.55L194.74,255.32L194.84,258.55L195.74,255.32L196.43,258.55L196.46,252.09L196.69,255.32L197.56,258.55L197.82,271.49L198.64,274.72L198.71,277.96L198.81,271.49L202.22,268.26L202.78,271.49L203.46,268.26L203.6,265.02L205.73,261.79L208.67,258.55L210.24,255.32L210.26,252.09L211.57,248.85L212.35,252.09L212.36,248.85L212.66,271.49L212.67,268.26L213.64,271.49L214.07,274.72L214.08,271.49L215.21,274.72L215.67,281.19L216.04,277.96L216.06,281.19L216.58,271.49L216.62,277.96L217.18,281.19L217.22,284.43L218.11,281.19L219.28,277.96L219.29,281.19L221.26,274.72L221.55,271.49L223.89,268.26L225,271.49L226.58,268.26L227.05,265.02L229.34,258.55L229.35,261.79L230.2,252.09L232.02,248.85L232.3,239.15L232.82,235.91L233.88,229.45L233.93,232.68L236.16,210.04L236.24,213.28L236.24,216.51L236.39,206.81L236.98,210.04L237.09,206.81L238.37,203.57L238.52,200.34L238.79,213.28L238.79,216.51L238.96,232.68L239.23,226.21L239.72,222.98L240.76,277.96L241,274.72L241.18,271.49L241.19,268.26L241.78,277.96L241.88,274.72L242.07,271.49L242.98,281.19L242.99,277.96L243,274.72L243.43,284.43L243.73,287.66L244.14,277.96L244.17,274.72L244.72,284.43L244.96,281.19L245.11,284.43L245.26,281.19L245.95,277.96L245.98,274.72L246.79,277.96L247.28,271.49L247.91,268.26L248.77,261.79L248.77,265.02L249.63,258.55L249.63,261.79L251.09,252.09L252.02,255.32L255.64,252.09L255.73,248.85L255.98,245.62L256.29,248.85L257.87,245.62L258.8,239.15L259.15,235.91L259.53,232.68L261.11,229.45L261.55,219.74L261.75,229.45L261.75,232.68L262.97,216.51L265.02,213.28L265.08,206.81L266.1,203.57L267.73,197.11L267.77,200.34L267.78,222.98L268.41,210.04L268.69,206.81L268.69,210.04L268.83,206.81L270.95,203.57L272.63,200.34L272.82,197.11L274.56,193.87L274.56,197.11L274.56,193.87L274.57,197.11L275.52,193.87L275.71,190.64L276.38,193.87L277.32,206.81L277.53,210.04L279.06,206.81L279.58,210.04L280.94,203.57L281.64,200.34L281.64,203.57L282.43,200.34L282.54,193.87L283.68,197.11L284.24,235.91L286.78,232.68L287.26,235.91L287.65,232.68L287.67,235.91L290.46,232.68L291.16,239.15L291.19,235.91L291.3,232.68L291.56,235.91L292.24,239.15L292.42,232.68L292.42,235.91L294.75,232.68L294.77,229.45L295.55,226.21L297.56,222.98L298.08,219.74L298.23,210.04L298.28,226.21L298.63,219.74L299.08,222.98L299.55,229.45L299.77,226.21L300.03,222.98L300.68,261.79L300.82,265.02L302.02,252.09L302.64,248.85L303.63,232.68L304.59,229.45L305.58,222.98L305.64,219.74L306.42,213.28L306.46,216.51L307.42,180.94L309.6,177.7L311.49,174.47L311.49,171.23L314.85,174.47L314.93,171.23L316.18,168L316.59,164.77L318.59,151.83L318.59,148.6L318.73,142.13L319.12,210.04L319.43,206.81L319.87,203.57L319.88,213.28L320.13,210.04L320.28,206.81L321.3,190.64L321.42,193.87L323.75,190.64L324.24,187.4L324.53,190.64L325.48,187.4L325.86,190.64L327.02,187.4L328.46,190.64L328.48,200.34L329.13,197.11L329.84,200.34L330.27,219.74L330.69,222.98L330.82,219.74L331.13,229.45L331.32,226.21L331.7,229.45L332.26,226.21L333.08,216.51L333.96,213.28L334.18,206.81L334.82,203.57L335.67,210.04L336.07,206.81L336.08,210.04L336.78,206.81L337.05,210.04L337.05,216.51L337.61,213.28L338.94,210.04L339.15,203.57L339.58,213.28L339.6,213.28L339.6,216.51L340.24,210.04L340.45,206.81L341.24,200.34L341.25,203.57L344.31,200.34L344.69,203.57L346.06,200.34L346.5,197.11L346.5,200.34L347.25,203.57L347.53,200.34L347.61,206.81L348.36,203.57L349.46,193.87L349.46,197.11L349.9,190.64L350.46,187.4L350.89,193.87L350.91,187.4L351.43,190.64L351.43,187.4L352.02,190.64L352.74,187.4L352.88,190.64L353.55,187.4L354.7,180.94L354.71,177.7L354.76,184.17L355.54,180.94L355.58,177.7L356.4,174.47L357.5,171.23L357.59,168L358.29,155.06L358.65,151.83L358.77,155.06L360.47,151.83L360.75,148.6L361.81,145.36L361.96,174.47L362.08,174.47L363.54,171.23L364.46,168L364.47,171.23L366.3,168L366.3,171.23L366.72,168L369.13,164.77L369.13,168L369.79,168L370.39,164.77L371.14,151.83L371.2,155.06L372.37,151.83L372.47,145.36L372.91,164.77L373.28,161.53L373.5,164.77L374.46,161.53L375.28,148.6L375.49,145.36L376.07,161.53L376.17,151.83L376.37,148.6L377.07,168L377.3,164.77L378.25,197.11L378.76,193.87L378.91,213.28L379.29,210.04L380.03,213.28L380.04,210.04L380.08,213.28L382.5,210.04L383.11,200.34L383.13,203.57L383.37,206.81L386.9,203.57L386.92,206.81L387.63,200.34L388.52,203.57L389.64,200.34L390.55,197.11L390.55,200.34L392.39,197.11L392.53,190.64L393.54,193.87L394.09,184.17L394.09,180.94L394.1,171.23L397.82,174.47L398.89,161.53L400.99,158.3L401.49,151.83L401.49,155.06L401.49,158.3L403.56,151.83L404.01,148.6L406.76,142.13L406.95,138.89L407.52,135.66L407.52,138.89L407.69,142.13L408.28,158.3L408.41,155.06L409.01,151.83L409.06,155.06L409.37,138.89L409.78,135.66L409.96,125.96L410.15,138.89L410.16,142.13L410.16,145.36L410.79,132.43L410.92,129.19L411.2,125.96L411.31,135.66L411.33,138.89L411.37,135.66L411.8,148.6L412.07,145.36L412.16,142.13L412.17,155.06L412.79,151.83L413.05,148.6L413.77,145.36L413.78,142.13L414.21,161.53L414.69,155.06L414.73,151.83L415.11,132.43L415.3,168L415.61,164.77L416.04,145.36L416.19,158.3L416.19,161.53L416.24,168L416.8,158.3L416.84,161.53L417.44,158.3L417.58,168L418.14,151.83L418.22,148.6L418.28,151.83L418.65,132.43L418.66,129.19L418.69,119.49L418.82,174.47L419.14,161.53L419.54,158.3L419.96,151.83L420.06,158.3L420.2,161.53L420.85,155.06L421.1,158.3L421.62,168L421.8,161.53L421.9,164.77L422.25,158.3L422.62,174.47L422.75,171.23L422.75,177.7L423.05,161.53L423.22,174.47L423.62,171.23L424.28,187.4L424.87,184.17L425.21,187.4L425.22,180.94L425.6,177.7L425.85,161.53L426.56,164.77L426.7,180.94L427.01,158.3L427.17,164.77L427.34,168L427.56,164.77L427.72,174.47L428.88,171.23L429.01,177.7L429.17,171.23L429.83,168L429.99,171.23L430.17,164.77L430.51,161.53L430.54,171.23L430.94,164.77L431.63,161.53L432.14,158.3L432.14,161.53L432.14,164.77L432.67,158.3L432.67,155.06L432.68,151.83L432.71,164.77L432.85,155.06L433.7,151.83L433.93,142.13L434.05,155.06L434.13,158.3L434.84,184.17L435.09,177.7L435.1,174.47L435.46,171.23L435.46,177.7L435.46,180.94L435.46,177.7L435.46,187.4L436.05,184.17L436.28,180.94L436.52,184.17L436.77,171.23L436.89,174.47L436.91,171.23L437.36,193.87L437.66,177.7L437.71,174.47L437.72,171.23L437.74,193.87L438.43,177.7L438.57,174.47L438.71,180.94L439.05,164.77L439.31,168L439.85,197.11L440.01,193.87L440.43,197.11L440.86,180.94L441.15,184.17L441.4,180.94L441.4,184.17L441.84,177.7L441.84,177.7L442.95,174.47L443.54,168L443.54,171.23L444.35,168L444.39,164.77L444.42,190.64L444.82,187.4L445.36,190.64L445.48,193.87L445.62,180.94L445.62,180.94L445.64,177.7L446.06,168L446.37,184.17L446.45,180.94L446.7,174.47L447.05,197.11L447.05,193.87L447.34,197.11L447.65,187.4L447.93,193.87L448.24,197.11L448.6,200.34L448.9,187.4L448.93,190.64L449.32,187.4L450.4,177.7L450.74,180.94L450.76,177.7L450.89,190.64L451.32,190.64L451.61,187.4L451.63,190.64L451.89,184.17L452.14,190.64L452.44,187.4L452.75,200.34L453,193.87L453.31,197.11L453.97,190.64L453.97,193.87L454.22,190.64L454.39,180.94L454.4,193.87L454.58,187.4L455.28,190.64L455.28,187.4L455.82,200.34L456.22,197.11L456.52,193.87L456.53,200.34L456.81,197.11L457.1,193.87L457.76,190.64L457.76,193.87L457.93,197.11L457.94,193.87L458.08,210.04L458.62,206.81L458.68,203.57L458.76,200.34L459.34,210.04L459.36,206.81L459.47,210.04L460.17,193.87L460.18,206.81L460.18,210.04L460.18,206.81L460.32,213.28L460.9,210.04L461.15,206.81L461.15,213.28L461.9,210.04L462.01,213.28L462.43,219.74L462.73,213.28L463.56,210.04L463.69,213.28L464.34,210.04L464.49,203.57L464.54,219.74L464.57,216.51L464.58,219.74L464.58,222.98L465.27,210.04L465.28,222.98L465.4,219.74L465.97,216.51L466.09,222.98L466.13,219.74L466.14,216.51L466.23,219.74L466.27,213.28L466.4,216.51L466.95,213.28L466.95,216.51L467.68,203.57L467.7,206.81L467.96,210.04L468.28,216.51L468.5,206.81L469.11,203.57L469.38,210.04L469.4,206.81L470.34,203.57L470.41,206.81L470.94,200.34L470.95,203.57L471.09,200.34L472.06,190.64L472.06,193.87L472.18,197.11L472.47,190.64L473.38,193.87L474,190.64L474.19,203.57L474.29,200.34L475.04,210.04L475.05,203.57L475.07,200.34L475.31,206.81L475.72,197.11L475.85,193.87L476.02,190.64L476.02,203.57L476.31,197.11L476.33,200.34L476.97,197.11L476.97,200.34L477.34,197.11L477.34,200.34L477.56,190.64L477.58,200.34L478.25,197.11L478.39,213.28L478.99,206.81L479.01,210.04L479.03,203.57L479.67,222.98L480.43,219.74L480.83,222.98L480.86,219.74L481.51,216.51L482.06,222.98L482.83,219.74L483.27,213.28L483.67,216.51L483.75,219.74L484.11,213.28L484.17,219.74L484.19,222.98L484.22,216.51L484.94,219.74L485.04,216.51L485.37,210.04L485.37,213.28L486.06,216.51L486.19,210.04L486.67,216.51L487.53,213.28L488.39,210.04L488.39,213.28L488.43,216.51L488.99,210.04L488.99,216.51L489.86,213.28L489.97,206.81L489.99,216.51L490.12,210.04L490.96,213.28L491.55,200.34L491.87,197.11L492.38,200.34L492.56,197.11L492.56,193.87L493.2,180.94L493.2,200.34L493.3,197.11L493.54,193.87L493.82,190.64L493.83,197.11L493.83,200.34L494.42,197.11L494.66,200.34L494.77,197.11L495.09,206.81L495.73,210.04L496.21,203.57L496.33,210.04L496.33,213.28L496.33,210.04L496.72,219.74L497.01,219.74L497.17,216.51L497.78,213.28L497.86,216.51L497.88,219.74L498.08,210.04L498.22,213.28L498.87,210.04L499.71,219.74L499.75,216.51L499.99,219.74L500.42,213.28L500.69,216.51L501.02,206.81L501.11,213.28L501.88,210.04L502.26,216.51L502.33,206.81L502.68,203.57L503.24,197.11L503.36,213.28L503.37,210.04L503.37,213.28L503.98,203.57L504.54,200.34L505.3,193.87L505.7,197.11L505.7,200.34L506.66,197.11L506.91,203.57L507.36,190.64L507.4,200.34L507.49,197.11L507.9,200.34L508.2,197.11L509.6,193.87L510.76,180.94L510.87,184.17L510.87,187.4L510.87,190.64L511.04,180.94L511.08,180.94L513.29,184.17L513.69,177.7L513.71,200.34L513.99,197.11L513.99,200.34L514.11,203.57L514.11,200.34L514.83,197.11L515.11,200.34L515.13,193.87L515.13,197.11L515.7,193.87L515.83,180.94L516.09,190.64L516.53,193.87L517.11,180.94L517.55,177.7L517.67,180.94L517.83,174.47L517.84,180.94L519.74,177.7L519.74,180.94L521.53,177.7L522.92,164.77L523.08,161.53L523.13,155.06L523.14,164.77L523.59,161.53L523.93,158.3L525.45,151.83L525.69,148.6L525.69,151.83L526.18,142.13L527.32,138.89L527.98,125.96L527.98,122.72L527.98,125.96L528.58,106.55L528.67,106.55L528.94,103.32L528.94,106.55L529.39,90.38L529.68,90.38L529.79,87.15L529.79,90.38L530.54,80.68L530.62,83.91L531.38,67.74L533.69,64.51L534.95,41.87L535.89,38.64L537.59,32.17L539.4,28.94L540,16" style="vector-effect: none; fill: none; stroke: rgb(44, 160, 44); stroke-opacity: 1; stroke-width: 2px; opacity: 1;"/></g><g class="points"/><g class="text"/></g></g></g></g><g class="zerolinelayer-above"/><path class="xlines-above crisp" d="M0,0" style="fill: none;"/><path class="ylines-above crisp" d="M0,0" style="fill: none;"/><g class="overlines-above"/><g class="xaxislayer-above"><g class="xtick"><text text-anchor="middle" x="0" y="439" transform="translate(96.86,0)" style="font-family: 'Open Sans'; font-size: 18px; fill: rgb(0, 0, 0); fill-opacity: 1; white-space: pre;">2016</text></g><g class="xtick"><text text-anchor="middle" x="0" y="439" style="font-family: 'Open Sans'; font-size: 18px; fill: rgb(0, 0, 0); fill-opacity: 1; white-space: pre;" transform="translate(200.07999999999998,0)">2018</text></g><g class="xtick"><text text-anchor="middle" x="0" y="439" style="font-family: 'Open Sans'; font-size: 18px; fill: rgb(0, 0, 0); fill-opacity: 1; white-space: pre;" transform="translate(303.15999999999997,0)">2020</text></g><g class="xtick"><text text-anchor="middle" x="0" y="439" style="font-family: 'Open Sans'; font-size: 18px; fill: rgb(0, 0, 0); fill-opacity: 1; white-space: pre;" transform="translate(406.38,0)">2022</text></g><g class="xtick"><text text-anchor="middle" x="0" y="439" style="font-family: 'Open Sans'; font-size: 18px; fill: rgb(0, 0, 0); fill-opacity: 1; white-space: pre;" transform="translate(509.47,0)">2024</text></g><g class="xtick"><text text-anchor="middle" x="0" y="439" style="font-family: 'Open Sans'; font-size: 18px; fill: rgb(0, 0, 0); fill-opacity: 1; white-space: pre;" transform="translate(612.69,0)">2026</text></g></g><g class="yaxislayer-above"><g class="ytick"><text text-anchor="end" x="79" y="6.3" transform="translate(0,420)" style="font-family: 'Open Sans'; font-size: 18px; fill: rgb(0, 0, 0); fill-opacity: 1; white-space: pre;">0</text></g><g class="ytick"><text text-anchor="end" x="79" y="6.3" style="font-family: 'Open Sans'; font-size: 18px; fill: rgb(0, 0, 0); fill-opacity: 1; white-space: pre;" transform="translate(0,355.32)">20</text></g><g class="ytick"><text text-anchor="end" x="79" y="6.3" style="font-family: 'Open Sans'; font-size: 18px; fill: rgb(0, 0, 0); fill-opacity: 1; white-space: pre;" transform="translate(0,290.64)">40</text></g><g class="ytick"><text text-anchor="end" x="79" y="6.3" style="font-family: 'Open Sans'; font-size: 18px; fill: rgb(0, 0, 0); fill-opacity: 1; white-space: pre;" transform="translate(0,225.95999999999998)">60</text></g><g class="ytick"><text text-anchor="end" x="79" y="6.3" style="font-family: 'Open Sans'; font-size: 18px; fill: rgb(0, 0, 0); fill-opacity: 1; white-space: pre;" transform="translate(0,161.28)">80</text></g></g><g class="overaxes-above"/></g></g><g class="polarlayer"/><g class="smithlayer"/><g class="ternarylayer"/><g class="geolayer"/><g class="funnelarealayer"/><g class="pielayer"/><g class="iciclelayer"/><g class="treemaplayer"/><g class="sunburstlayer"/><g class="glimages"/><defs id="topdefs-293f8e"><g class="clips"/></defs><g class="layer-above"><g class="imagelayer"/><g class="shapelayer"/></g><g class="infolayer"><g class="g-gtitle"><text class="gtitle" x="35" y="50" text-anchor="start" dy="0em" style="opacity: 1; font-family: 'Open Sans'; font-size: 25px; fill: rgb(0, 0, 0); fill-opacity: 1; white-space: pre;">MultiQC/MultiQC - Open Pull Requests Over Time</text></g><g class="g-xtitle"><text class="xtitle" x="350" y="472.9" text-anchor="middle" style="opacity: 1; font-family: 'Open Sans'; font-size: 22px; fill: rgb(0, 0, 0); fill-opacity: 1; white-space: pre;">Date</text></g><g class="g-ytitle"><text class="ytitle" transform="rotate(-90,38.8,260)" x="38.8" y="260" text-anchor="middle" style="opacity: 1; font-family: 'Open Sans'; font-size: 22px; fill: rgb(0, 0, 0); fill-opacity: 1; white-space: pre;">Number of Open PRs</text></g></g></svg>