<svg class="main-svg" xmlns="http://www.w3.org/2000/svg" xmlns:xlink="http://www.w3.org/1999/xlink" width="700" height="500" style="" viewBox="0 0 700 500"><rect x="0" y="0" width="700" height="500" style="fill: rgb(0, 0, 0); fill-opacity: 0;"/><defs id="defs-1c97ac"><g class="clips"><clipPath id="clip1c97acxyplot" class="plotclip"><rect width="540" height="320"/></clipPath><clipPath class="axesclip" id="clip1c97acx"><rect x="80" y="0" width="540" height="500"/></clipPath><clipPath class="axesclip" id="clip1c97acy"><rect x="0" y="100" width="700" height="320"/></clipPath><clipPath class="axesclip" id="clip1c97acxy"><rect x="80" y="100" width="540" height="320"/></clipPath></g><g class="gradients"/><g class="patterns"/></defs><g class="bglayer"><rect class="bg" x="80" y="100" width="540" height="320" style="fill: rgb(0, 0, 0); fill-opacity: 0; stroke-width: 0;"/></g><g class="layer-below"><g class="imagelayer"/><g class="shapelayer"/></g><g class="cartesianlayer"><g class="subplot xy"><g class="layer-subplot"><g class="shapelayer"/><g class="imagelayer"/></g><g class="minor-gridlayer"><g class="x"/><g class="y"/></g><g class="gridlayer"><g class="x"><path class="xgrid crisp" transform="translate(97.18,0)" d="M0,100v320" style="stroke: rgb(255, 255, 255); stroke-opacity: 1; stroke-width: 1px;"/><path class="xgrid crisp" transform="translate(202.35,0)" d="M0,100v320" style="stroke: rgb(255, 255, 255); stroke-opacity: 1; stroke-width: 1px;"/><path class="xgrid crisp" transform="translate(307.38,0)" d="M0,100v320" style="stroke: rgb(255, 255, 255); stroke-opacity: 1; stroke-width: 1px;"/><path class="xgrid crisp" transform="translate(412.55,0)" d="M0,100v320" style="stroke: rgb(255, 255, 255); stroke-opacity: 1; stroke-width: 1px;"/><path class="xgrid crisp" transform="translate(517.5699999999999,0)" d="M0,100v320" style="stroke: rgb(255, 255, 255); stroke-opacity: 1; stroke-width: 1px;"/></g><g class="y"><path class="ygrid crisp" transform="translate(0,377.78)" d="M80,0h540" style="stroke: rgb(255, 255, 255); stroke-opacity: 1; stroke-width: 1px;"/><path class="ygrid crisp" transform="translate(0,335.56)" d="M80,0h540" style="stroke: rgb(255, 255, 255); stroke-opacity: 1; stroke-width: 1px;"/><path class="ygrid crisp" transform="translate(0,293.33000000000004)" d="M80,0h540" style="stroke: rgb(255, 255, 255); stroke-opacity: 1; stroke-width: 1px;"/><path class="ygrid crisp" transform="translate(0,251.11)" d="M80,0h540" style="stroke: rgb(255, 255, 255); stroke-opacity: 1; stroke-width: 1px;"/><path class="ygrid crisp" transform="translate(0,208.89)" d="M80,0h540" style="stroke: rgb(255, 255, 255); stroke-opacity: 1; stroke-width: 1px;"/><path class="ygrid crisp" transform="translate(0,166.67000000000002)" d="M80,0h540" style="stroke: rgb(255, 255, 255); stroke-opacity: 1; stroke-width: 1px;"/><path class="ygrid crisp" transform="translate(0,124.44)" d="M80,0h540" style="stroke: rgb(255, 255, 255); stroke-opacity: 1; stroke-width: 1px;"/></g></g><g class="zerolinelayer"><path class="yzl zl crisp" transform="translate(0,420)" d="M80,0h540" style="stroke: rgb(255, 255, 255); stroke-opacity: 1; stroke-width: 2px;"/></g><g class="layer-between"><g class="shapelayer"/><g class="imagelayer"/></g><path class="xlines-below"/><path class="ylines-below"/><g class="overlines-below"/><g class="xaxislayer-below"/><g class="yaxislayer-below"/><g class="overaxes-below"/><g class="overplot"><g class="xy" transform="translate(80,100)" clip-path="url(#clip1c97acxyplot)"><g class="scatterlayer mlayer"><g class="trace scatter trace7a5bab" style="stroke-miterlimit: 2;"><g class="fills"><g><path class="js-fill" d="M540,320L0,320L0,315.78L0.1,320L1.04,315.78L1.74,320L1.85,315.78L1.85,320L3.12,315.78L3.59,320L3.88,315.78L3.88,320L4.76,315.78L4.76,320L4.86,320L5.6,315.78L5.6,320L6.2,320L7.04,315.78L7.04,320L7.63,320L9.19,315.78L9.19,320L9.84,315.78L10.06,320L11.79,315.78L11.79,320L14.67,315.78L14.67,320L22.16,315.78L22.16,320L22.36,315.78L22.36,320L23.99,315.78L23.99,311.56L24.14,315.78L25.29,320L27.02,315.78L27.02,320L28.35,311.56L28.35,315.78L28.36,320L31.22,315.78L31.22,320L31.37,320L32.63,315.78L32.63,320L33.23,320L34.14,315.78L34.14,320L34.92,315.78L35.44,320L35.68,315.78L35.78,320L36.99,315.78L38.41,311.56L38.85,315.78L38.97,311.56L38.97,315.78L40.29,320L41.02,315.78L41.02,320L42.75,315.78L42.75,320L43.85,315.78L44.03,320L44.35,303.11L44.46,307.33L44.99,311.56L45.44,315.78L45.89,311.56L45.9,315.78L47.17,311.56L51.07,307.33L51.07,311.56L51.37,315.78L52.18,311.56L53.09,320L54.52,315.78L54.93,320L58.11,315.78L58.12,320L58.12,315.78L59.63,311.56L59.96,315.78L60.76,311.56L61.54,307.33L61.57,311.56L61.58,307.33L62.16,320L64.03,315.78L64.32,320L65.01,315.78L65.17,311.56L66.15,315.78L66.33,307.33L66.46,311.56L67.3,315.78L67.61,311.56L67.61,315.78L68.17,311.56L68.25,303.11L68.36,320L68.45,320L69.04,315.78L69.9,311.56L69.91,315.78L70.65,307.33L70.65,311.56L71.36,307.33L75.94,303.11L76.42,298.89L78.13,320L79.14,315.78L79.14,320L80.12,315.78L81.34,311.56L81.39,315.78L82.32,311.56L82.47,307.33L83.41,298.89L83.41,303.11L83.43,307.33L84.58,298.89L84.6,303.11L85.44,298.89L85.44,303.11L85.74,307.33L86.32,303.11L86.32,307.33L86.32,303.11L88.16,307.33L88.34,303.11L88.34,307.33L89.24,303.11L89.48,307.33L90.21,303.11L90.68,298.89L91.46,303.11L92.19,298.89L92.48,303.11L94.78,298.89L94.78,303.11L95.38,298.89L95.4,303.11L96.8,307.33L97.31,303.11L97.52,307.33L97.66,303.11L97.67,307.33L98.69,303.11L98.7,277.78L99.41,290.44L99.41,294.67L99.7,307.33L99.88,303.11L100.26,298.89L100.85,294.67L101.39,298.89L102.03,290.44L102.29,286.22L102.54,298.89L102.86,286.22L103.18,282L103.3,294.67L103.3,290.44L104.28,294.67L104.72,282L104.72,282L105.26,286.22L106.33,265.11L107.29,260.89L108.33,265.11L108.62,260.89L108.75,269.33L109.35,269.33L109.48,265.11L109.78,282L109.91,277.78L110.57,273.56L111.08,256.67L111.08,260.89L111.47,265.11L111.51,269.33L112.37,265.11L112.5,260.89L112.51,265.11L113.82,269.33L113.94,286.22L114.52,282L114.53,277.78L114.54,286.22L115.65,282L115.65,286.22L117.83,282L117.83,277.78L117.84,286.22L119.84,282L119.86,286.22L119.86,282L120.94,286.22L120.99,282L122.86,277.78L123.71,286.22L123.71,282L123.87,286.22L124.03,282L124.04,286.22L124.87,282L125.2,286.22L125.91,282L125.94,286.22L127.59,282L127.62,286.22L129.49,282L129.59,286.22L129.99,282L130.48,277.78L130.6,282L131.5,277.78L131.51,282L131.92,265.11L132.06,265.11L132.46,260.89L132.81,282L132.81,282L133.81,277.78L133.92,286.22L134.1,286.22L134.81,282L135.8,277.78L135.92,273.56L136.49,277.78L136.68,273.56L137.51,260.89L137.54,265.11L137.86,260.89L138.08,265.11L138.53,260.89L138.54,256.67L138.55,244L138.7,269.33L139.98,265.11L140.09,260.89L140.11,265.11L141.56,260.89L142.34,277.78L143.56,273.56L143.97,277.78L145.6,273.56L146.69,269.33L146.69,273.56L148.03,260.89L148.04,265.11L148.29,269.33L148.32,273.56L148.72,265.11L148.73,269.33L149.06,265.11L149.06,269.33L150.06,273.56L150.23,282L150.95,277.78L151.04,273.56L152.67,269.33L153.21,256.67L153.22,260.89L153.22,265.11L153.27,277.78L155.09,273.56L155.19,277.78L155.24,273.56L156.84,269.33L156.85,273.56L158.23,269.33L158.23,273.56L158.66,269.33L159.12,265.11L159.81,260.89L159.85,265.11L162.73,269.33L165.81,260.89L166.55,256.67L167.33,260.89L168.05,256.67L168.06,260.89L170.76,256.67L171.23,260.89L171.84,256.67L173.08,252.44L173.32,256.67L173.32,252.44L173.36,286.22L173.37,282L175.78,277.78L175.8,282L178.16,286.22L179.27,282L179.27,286.22L179.91,282L179.94,286.22L182.17,282L182.33,277.78L183.73,282L183.75,286.22L184.06,256.67L184.34,252.44L184.46,269.33L185.99,265.11L186.33,252.44L188.01,248.22L188.51,244L188.53,248.22L190.75,244L191.24,248.22L192.58,244L192.88,248.22L193.19,244L195.39,239.78L198.41,235.56L198.52,239.78L199.43,235.56L200.14,239.78L200.17,231.33L200.4,235.56L201.29,239.78L201.55,256.67L202.39,260.89L202.46,265.11L202.56,256.67L206.03,252.44L206.6,256.67L207.3,252.44L207.45,248.22L209.62,244L212.61,239.78L214.21,235.56L214.23,231.33L215.56,227.11L216.36,231.33L216.37,227.11L216.68,256.67L216.69,252.44L217.68,256.67L218.11,260.89L218.12,256.67L219.28,260.89L219.74,269.33L220.12,265.11L220.14,269.33L220.67,256.67L220.71,265.11L221.28,269.33L221.32,273.56L222.23,269.33L223.42,265.11L223.43,269.33L225.44,260.89L225.73,256.67L228.11,252.44L229.25,256.67L230.85,252.44L231.34,248.22L233.67,239.78L233.68,244L234.54,231.33L236.4,227.11L236.69,214.44L237.22,210.22L238.3,201.78L238.35,206L240.62,176.44L240.7,180.67L240.7,184.89L240.86,172.22L241.45,176.44L241.56,172.22L242.87,168L243.02,163.78L243.29,176.44L243.3,180.67L243.47,206L243.75,197.56L244.25,193.33L245.31,265.11L245.55,260.89L245.73,256.67L245.75,252.44L246.35,265.11L246.44,260.89L246.63,256.67L247.57,269.33L247.58,265.11L247.58,260.89L248.33,277.78L248.58,273.56L248.58,277.78L248.78,260.89L249.31,269.33L249.34,273.56L250.63,260.89L251.45,265.11L251.95,256.67L252.59,252.44L253.47,244L253.47,248.22L254.34,239.78L254.34,244L255.83,231.33L256.78,235.56L260.46,231.33L260.56,227.11L260.82,222.89L261.13,227.11L262.74,222.89L263.69,214.44L264.04,210.22L264.43,206L266.04,201.78L266.49,189.11L266.7,201.78L266.7,206L267.93,184.89L270.02,180.67L270.09,172.22L271.13,168L272.79,159.56L272.82,163.78L272.84,193.33L273.47,176.44L273.76,172.22L273.76,176.44L273.9,172.22L276.07,168L277.78,163.78L277.97,159.56L279.74,155.33L279.74,159.56L279.75,155.33L279.75,159.56L280.72,155.33L280.91,151.11L281.59,155.33L282.13,172.22L282.3,168L282.56,172.22L282.77,176.44L284.33,172.22L284.86,176.44L285.19,172.22L286.96,163.78L286.96,168L287.81,159.56L287.87,155.33L289.04,159.56L289.08,163.78L289.09,159.56L289.53,210.22L289.61,210.22L292.19,206L292.68,210.22L293.08,206L293.1,210.22L295.95,206L296.66,214.44L296.69,210.22L296.8,206L296.8,210.22L297.06,210.22L297.76,214.44L297.94,206L297.94,210.22L300.32,206L300.33,201.78L301.13,197.56L303.17,193.33L303.7,189.11L303.86,176.44L303.91,197.56L304.27,189.11L304.73,193.33L305.2,201.78L305.43,197.56L305.69,193.33L306.5,248.22L306.73,244L307.72,231.33L308.35,227.11L309.37,206L310.34,201.78L311.24,197.56L311.35,193.33L312.2,180.67L312.24,184.89L313.22,138.44L315.44,134.22L317.37,130L317.37,125.78L320.8,130L320.87,125.78L322.15,121.56L322.57,117.33L324.6,100.44L324.6,96.22L324.74,87.78L325.14,176.44L325.46,172.22L325.9,168L325.92,180.67L326.17,176.44L326.33,172.22L327.37,151.11L327.49,155.33L329.86,151.11L330.36,146.89L330.65,151.11L331.62,146.89L332.02,151.11L333.19,146.89L334.66,151.11L334.68,163.78L335.35,159.56L336.06,163.78L336.5,189.11L336.93,193.33L337.07,189.11L337.38,201.78L337.58,197.56L337.97,201.78L338.53,197.56L339.37,184.89L340.26,180.67L340.49,172.22L341.14,168L342.01,176.44L342.42,172.22L342.42,176.44L343.14,172.22L343.42,176.44L343.42,184.89L343.99,180.67L345.34,176.44L345.55,168L345.99,180.67L346.01,180.67L346.01,184.89L346.66,176.44L346.88,172.22L347.68,163.78L347.69,168L350.81,163.78L351.2,168L352.59,163.78L353.04,159.56L353.04,163.78L353.81,168L354.09,163.78L354.17,172.22L354.93,168L356.06,155.33L356.06,159.56L356.5,151.11L357.07,146.89L357.51,155.33L357.53,146.89L358.06,151.11L358.66,146.89L358.67,151.11L359.39,146.89L359.54,151.11L360.22,146.89L360.79,142.67L361,146.89L361.4,134.22L361.46,142.67L362.25,138.44L362.29,134.22L363.12,130L364.24,125.78L364.34,121.56L365.06,104.67L365.42,100.44L365.54,104.67L367.28,100.44L367.56,96.22L368.64,92L368.8,130L368.92,130L370.4,125.78L371.34,121.56L371.35,125.78L373.21,121.56L373.21,125.78L373.64,121.56L376.09,117.33L376.09,121.56L376.77,121.56L377.38,117.33L378.14,100.44L378.21,104.67L379.4,100.44L379.51,92L379.95,113.11L379.95,117.33L380.32,113.11L380.55,117.33L381.53,113.11L382.36,96.22L382.58,92L383.17,113.11L383.28,100.44L383.47,96.22L384.19,121.56L384.43,117.33L385.07,155.33L385.2,151.11L385.27,155.33L385.27,159.56L385.91,159.56L386.04,163.78L386.07,180.67L386.45,176.44L387.2,180.67L387.21,176.44L387.25,180.67L389.72,176.44L390.34,163.78L390.37,168L390.61,172.22L394.2,168L394.22,172.22L394.94,163.78L395.86,168L396.99,163.78L397.92,159.56L397.92,163.78L399.79,159.56L399.94,151.11L400.97,155.33L401.52,146.89L401.52,142.67L401.54,125.78L405.33,130L406.42,113.11L408.56,108.89L409.06,100.44L409.06,104.67L409.07,108.89L411.18,100.44L411.64,96.22L414.44,87.78L414.63,83.56L415.21,79.33L415.21,83.56L415.38,87.78L415.99,108.89L416.12,104.67L416.73,100.44L416.78,104.67L417.1,83.56L417.51,79.33L417.7,66.67L417.9,79.33L417.9,83.56L417.91,92L418.55,75.11L418.68,70.89L418.97,66.67L419.07,79.33L419.09,83.56L419.14,79.33L419.81,96.22L419.85,92L419.94,87.78L419.95,104.67L420.58,100.44L420.85,96.22L421.58,92L421.6,87.78L422.03,113.11L422.52,104.67L422.55,100.44L422.95,75.11L423.14,121.56L423.45,117.33L423.9,92L424.04,108.89L424.05,113.11L424.1,121.56L424.67,108.89L424.71,113.11L425.32,108.89L425.46,121.56L426.04,100.44L426.12,96.22L426.18,100.44L426.55,75.11L426.56,70.89L426.59,58.22L426.73,130L427.05,113.11L427.46,108.89L427.89,100.44L427.99,108.89L428.13,113.11L428.79,104.67L429.05,108.89L429.58,121.56L429.77,113.11L429.87,117.33L430.22,108.89L430.6,130L430.73,125.78L430.74,134.22L431.04,113.11L431.21,130L431.62,125.78L432.29,146.89L432.89,142.67L433.24,146.89L433.25,138.44L433.63,134.22L433.88,113.11L434.62,117.33L434.76,138.44L435.07,108.89L435.23,117.33L435.4,121.56L435.63,117.33L435.8,130L436.97,125.78L437.11,134.22L437.27,125.78L437.95,121.56L438.11,125.78L438.29,117.33L438.63,113.11L438.67,125.78L439.07,117.33L439.78,113.11L440.3,108.89L440.3,113.11L440.3,117.33L440.84,108.89L440.84,104.67L440.85,100.44L440.88,117.33L441.02,104.67L441.88,100.44L442.12,87.78L442.25,104.67L442.32,108.89L443.05,142.67L443.31,134.22L443.31,130L443.68,125.78L443.68,134.22L443.68,138.44L443.68,134.22L443.68,146.89L444.29,142.67L444.52,138.44L444.76,142.67L445.01,125.78L445.14,130L445.16,125.78L445.61,155.33L445.9,138.44L445.92,134.22L445.98,125.78L446,155.33L446.19,138.44L446.62,134.22L446.62,138.44L447.34,117.33L447.61,121.56L448.15,159.56L448.32,155.33L448.74,159.56L449.18,138.44L449.48,142.67L449.73,138.44L449.73,142.67L450.18,134.22L450.18,134.22L451.31,130L451.92,121.56L451.92,125.78L452.73,121.56L452.78,117.33L452.81,151.11L453.22,146.89L453.77,151.11L453.89,155.33L454.03,138.44L454.03,138.44L454.05,134.22L454.48,121.56L454.76,138.44L454.77,138.44L454.8,142.67L455.13,130L455.21,155.33L455.3,151.11L455.33,155.33L455.49,159.56L456.1,146.89L456.1,151.11L456.11,155.33L456.36,151.11L456.7,159.56L456.8,155.33L456.8,159.56L457.06,163.78L457.4,146.89L457.4,151.11L457.8,146.89L458.91,134.22L459.24,138.44L459.27,134.22L459.41,151.11L459.84,151.11L460.14,146.89L460.15,151.11L460.42,142.67L460.67,151.11L460.98,146.89L461.29,163.78L461.55,155.33L461.87,159.56L462.54,151.11L462.54,155.33L462.79,151.11L462.97,138.44L462.98,155.33L463.16,146.89L463.87,151.11L464.26,146.89L464.42,163.78L464.83,159.56L465.13,155.33L465.15,163.78L465.43,159.56L465.72,155.33L466.4,151.11L466.4,155.33L466.57,159.56L466.58,155.33L466.73,176.44L467.27,172.22L467.34,168L467.42,163.78L468.01,176.44L468.03,172.22L468.14,176.44L468.86,155.33L468.86,172.22L468.87,176.44L468.87,172.22L469.01,180.67L469.6,176.44L469.86,172.22L469.86,180.67L470.6,180.67L470.62,176.44L471.16,189.11L471.17,184.89L471.47,180.67L472.31,176.44L472.44,180.67L473.24,172.22L473.25,168L473.35,193.33L473.91,180.67L474.06,176.44L474.07,193.33L474.79,189.11L474.88,193.33L475.2,180.67L475.21,184.89L475.77,180.67L475.77,184.89L476.51,168L476.51,176.44L476.53,172.22L476.53,168L476.93,184.89L477.28,176.44L477.34,172.22L477.96,168L478.22,172.22L478.22,176.44L478.24,168L478.26,172.22L479.22,168L479.29,172.22L479.83,163.78L479.84,168L479.99,163.78L480.97,151.11L480.97,155.33L481.09,159.56L481.39,151.11L482.32,155.33L482.4,159.56L482.95,151.11L482.95,155.33L483,151.11L483.54,172.22L483.57,172.22L483.96,168L483.99,176.44L484.7,159.56L484.84,155.33L485,151.11L485,168L485.3,159.56L485.32,163.78L485.98,159.56L485.98,163.78L486.35,159.56L486.35,163.78L486.57,151.11L486.59,163.78L487.28,159.56L487.42,180.67L488.03,172.22L488.05,176.44L488.08,168L488.72,193.33L489.5,189.11L489.91,193.33L489.94,189.11L490.6,184.89L491.16,193.33L491.94,189.11L492.39,180.67L492.8,184.89L492.88,189.11L493.24,180.67L493.25,184.89L493.31,189.11L493.33,193.33L493.36,184.89L494.04,189.11L494.05,184.89L494.05,189.11L494.47,176.44L494.53,180.67L495.23,184.89L495.37,176.44L495.86,184.89L496.74,180.67L497.61,176.44L497.61,180.67L497.65,184.89L498.22,176.44L498.22,184.89L499.11,180.67L499.22,172.22L499.24,184.89L499.38,176.44L500.23,180.67L500.82,163.78L501.15,159.56L501.68,163.78L501.86,159.56L501.86,155.33L502.51,138.44L502.51,163.78L502.61,159.56L502.86,155.33L503.15,151.11L503.15,159.56L503.15,163.78L503.75,159.56L504,163.78L504.11,159.56L504.43,172.22L505.09,176.44L505.58,168L505.7,176.44L505.7,180.67L505.7,176.44L506.1,189.11L506.39,189.11L506.55,184.89L507.17,180.67L507.26,184.89L507.28,189.11L507.48,176.44L507.63,180.67L508.28,176.44L509.15,189.11L509.19,184.89L509.43,189.11L509.87,180.67L510.14,184.89L510.48,172.22L510.57,180.67L511.36,176.44L511.74,184.89L511.82,172.22L512.17,168L512.75,159.56L512.77,176.44L512.87,180.67L513.49,168L514.07,163.78L514.84,155.33L515.25,159.56L515.25,163.78L516.23,159.56L516.48,168L516.93,151.11L516.98,163.78L517.07,159.56L517.49,163.78L517.8,159.56L519.22,155.33L520.41,138.44L520.52,142.67L520.52,151.11L520.69,138.44L520.73,138.44L522.98,142.67L523.38,134.22L523.41,163.78L523.69,159.56L523.69,163.78L523.82,168L523.82,163.78L524.55,159.56L524.55,155.33L524.84,163.78L524.85,159.56L525.43,155.33L525.56,138.44L525.84,151.11L526.28,155.33L526.87,138.44L527.32,134.22L527.45,138.44L527.61,130L527.61,138.44L529.55,134.22L529.55,138.44L531.37,134.22L532.79,117.33L532.95,113.11L533.01,104.67L533.02,117.33L533.48,113.11L533.82,108.89L535.37,100.44L535.61,96.22L535.62,100.44L536.11,87.78L537.28,83.56L537.95,66.67L537.95,62.44L537.95,66.67L538.55,41.33L538.65,41.33L538.93,37.11L538.93,41.33L539.38,20.22L539.68,20.22L539.79,16L539.8,20.22L540,16" style="fill: rgb(44, 160, 44); fill-opacity: 0.5; stroke-width: 0;"/></g></g><g class="errorbars"/><g class="lines"><path class="js-line" d="M0,315.78L0.1,320L1.04,315.78L1.74,320L1.85,315.78L1.85,320L3.12,315.78L3.59,320L3.88,315.78L3.88,320L4.76,315.78L4.76,320L4.86,320L5.6,315.78L5.6,320L6.2,320L7.04,315.78L7.04,320L7.63,320L9.19,315.78L9.19,320L9.84,315.78L10.06,320L11.79,315.78L11.79,320L14.67,315.78L14.67,320L22.16,315.78L22.16,320L22.36,315.78L22.36,320L23.99,315.78L23.99,311.56L24.14,315.78L25.29,320L27.02,315.78L27.02,320L28.35,311.56L28.35,315.78L28.36,320L31.22,315.78L31.22,320L31.37,320L32.63,315.78L32.63,320L33.23,320L34.14,315.78L34.14,320L34.92,315.78L35.44,320L35.68,315.78L35.78,320L36.99,315.78L38.41,311.56L38.85,315.78L38.97,311.56L38.97,315.78L40.29,320L41.02,315.78L41.02,320L42.75,315.78L42.75,320L43.85,315.78L44.03,320L44.35,303.11L44.46,307.33L44.99,311.56L45.44,315.78L45.89,311.56L45.9,315.78L47.17,311.56L51.07,307.33L51.07,311.56L51.37,315.78L52.18,311.56L53.09,320L54.52,315.78L54.93,320L58.11,315.78L58.12,320L58.12,315.78L59.63,311.56L59.96,315.78L60.76,311.56L61.54,307.33L61.57,311.56L61.58,307.33L62.16,320L64.03,315.78L64.32,320L65.01,315.78L65.17,311.56L66.15,315.78L66.33,307.33L66.46,311.56L67.3,315.78L67.61,311.56L67.61,315.78L68.17,311.56L68.25,303.11L68.36,320L68.45,320L69.04,315.78L69.9,311.56L69.91,315.78L70.65,307.33L70.65,311.56L71.36,307.33L75.94,303.11L76.42,298.89L78.13,320L79.14,315.78L79.14,320L80.12,315.78L81.34,311.56L81.39,315.78L82.32,311.56L82.47,307.33L83.41,298.89L83.41,303.11L83.43,307.33L84.58,298.89L84.6,303.11L85.44,298.89L85.44,303.11L85.74,307.33L86.32,303.11L86.32,307.33L86.32,303.11L88.16,307.33L88.34,303.11L88.34,307.33L89.24,303.11L89.48,307.33L90.21,303.11L90.68,298.89L91.46,303.11L92.19,298.89L92.48,303.11L94.78,298.89L94.78,303.11L95.38,298.89L95.4,303.11L96.8,307.33L97.31,303.11L97.52,307.33L97.66,303.11L97.67,307.33L98.69,303.11L98.7,277.78L99.41,290.44L99.41,294.67L99.7,307.33L99.88,303.11L100.26,298.89L100.85,294.67L101.39,298.89L102.03,290.44L102.29,286.22L102.54,298.89L102.86,286.22L103.18,282L103.3,294.67L103.3,290.44L104.28,294.67L104.72,282L104.72,282L105.26,286.22L106.33,265.11L107.29,260.89L108.33,265.11L108.62,260.89L108.75,269.33L109.35,269.33L109.48,265.11L109.78,282L109.91,277.78L110.57,273.56L111.08,256.67L111.08,260.89L111.47,265.11L111.51,269.33L112.37,265.11L112.5,260.89L112.51,265.11L113.82,269.33L113.94,286.22L114.52,282L114.53,277.78L114.54,286.22L115.65,282L115.65,286.22L117.83,282L117.83,277.78L117.84,286.22L119.84,282L119.86,286.22L119.86,282L120.94,286.22L120.99,282L122.86,277.78L123.71,286.22L123.71,282L123.87,286.22L124.03,282L124.04,286.22L124.87,282L125.2,286.22L125.91,282L125.94,286.22L127.59,282L127.62,286.22L129.49,282L129.59,286.22L129.99,282L130.48,277.78L130.6,282L131.5,277.78L131.51,282L131.92,265.11L132.06,265.11L132.46,260.89L132.81,282L132.81,282L133.81,277.78L133.92,286.22L134.1,286.22L134.81,282L135.8,277.78L135.92,273.56L136.49,277.78L136.68,273.56L137.51,260.89L137.54,265.11L137.86,260.89L138.08,265.11L138.53,260.89L138.54,256.67L138.55,244L138.7,269.33L139.98,265.11L140.09,260.89L140.11,265.11L141.56,260.89L142.34,277.78L143.56,273.56L143.97,277.78L145.6,273.56L146.69,269.33L146.69,273.56L148.03,260.89L148.04,265.11L148.29,269.33L148.32,273.56L148.72,265.11L148.73,269.33L149.06,265.11L149.06,269.33L150.06,273.56L150.23,282L150.95,277.78L151.04,273.56L152.67,269.33L153.21,256.67L153.22,260.89L153.22,265.11L153.27,277.78L155.09,273.56L155.19,277.78L155.24,273.56L156.84,269.33L156.85,273.56L158.23,269.33L158.23,273.56L158.66,269.33L159.12,265.11L159.81,260.89L159.85,265.11L162.73,269.33L165.81,260.89L166.55,256.67L167.33,260.89L168.05,256.67L168.06,260.89L170.76,256.67L171.23,260.89L171.84,256.67L173.08,252.44L173.32,256.67L173.32,252.44L173.36,286.22L173.37,282L175.78,277.78L175.8,282L178.16,286.22L179.27,282L179.27,286.22L179.91,282L179.94,286.22L182.17,282L182.33,277.78L183.73,282L183.75,286.22L184.06,256.67L184.34,252.44L184.46,269.33L185.99,265.11L186.33,252.44L188.01,248.22L188.51,244L188.53,248.22L190.75,244L191.24,248.22L192.58,244L192.88,248.22L193.19,244L195.39,239.78L198.41,235.56L198.52,239.78L199.43,235.56L200.14,239.78L200.17,231.33L200.4,235.56L201.29,239.78L201.55,256.67L202.39,260.89L202.46,265.11L202.56,256.67L206.03,252.44L206.6,256.67L207.3,252.44L207.45,248.22L209.62,244L212.61,239.78L214.21,235.56L214.23,231.33L215.56,227.11L216.36,231.33L216.37,227.11L216.68,256.67L216.69,252.44L217.68,256.67L218.11,260.89L218.12,256.67L219.28,260.89L219.74,269.33L220.12,265.11L220.14,269.33L220.67,256.67L220.71,265.11L221.28,269.33L221.32,273.56L222.23,269.33L223.42,265.11L223.43,269.33L225.44,260.89L225.73,256.67L228.11,252.44L229.25,256.67L230.85,252.44L231.34,248.22L233.67,239.78L233.68,244L234.54,231.33L236.4,227.11L236.69,214.44L237.22,210.22L238.3,201.78L238.35,206L240.62,176.44L240.7,180.67L240.7,184.89L240.86,172.22L241.45,176.44L241.56,172.22L242.87,168L243.02,163.78L243.29,176.44L243.3,180.67L243.47,206L243.75,197.56L244.25,193.33L245.31,265.11L245.55,260.89L245.73,256.67L245.75,252.44L246.35,265.11L246.44,260.89L246.63,256.67L247.57,269.33L247.58,265.11L247.58,260.89L248.33,277.78L248.58,273.56L248.58,277.78L248.78,260.89L249.31,269.33L249.34,273.56L250.63,260.89L251.45,265.11L251.95,256.67L252.59,252.44L253.47,244L253.47,248.22L254.34,239.78L254.34,244L255.83,231.33L256.78,235.56L260.46,231.33L260.56,227.11L260.82,222.89L261.13,227.11L262.74,222.89L263.69,214.44L264.04,210.22L264.43,206L266.04,201.78L266.49,189.11L266.7,201.78L266.7,206L267.93,184.89L270.02,180.67L270.09,172.22L271.13,168L272.79,159.56L272.82,163.78L272.84,193.33L273.47,176.44L273.76,172.22L273.76,176.44L273.9,172.22L276.07,168L277.78,163.78L277.97,159.56L279.74,155.33L279.74,159.56L279.75,155.33L279.75,159.56L280.72,155.33L280.91,151.11L281.59,155.33L282.13,172.22L282.3,168L282.56,172.22L282.77,176.44L284.33,172.22L284.86,176.44L285.19,172.22L286.96,163.78L286.96,168L287.81,159.56L287.87,155.33L289.04,159.56L289.08,163.78L289.09,159.56L289.53,210.22L289.61,210.22L292.19,206L292.68,210.22L293.08,206L293.1,210.22L295.95,206L296.66,214.44L296.69,210.22L296.8,206L296.8,210.22L297.06,210.22L297.76,214.44L297.94,206L297.94,210.22L300.32,206L300.33,201.78L301.13,197.56L303.17,193.33L303.7,189.11L303.86,176.44L303.91,197.56L304.27,189.11L304.73,193.33L305.2,201.78L305.43,197.56L305.69,193.33L306.5,248.22L306.73,244L307.72,231.33L308.35,227.11L309.37,206L310.34,201.78L311.24,197.56L311.35,193.33L312.2,180.67L312.24,184.89L313.22,138.44L315.44,134.22L317.37,130L317.37,125.78L320.8,130L320.87,125.78L322.15,121.56L322.57,117.33L324.6,100.44L324.6,96.22L324.74,87.78L325.14,176.44L325.46,172.22L325.9,168L325.92,180.67L326.17,176.44L326.33,172.22L327.37,151.11L327.49,155.33L329.86,151.11L330.36,146.89L330.65,151.11L331.62,146.89L332.02,151.11L333.19,146.89L334.66,151.11L334.68,163.78L335.35,159.56L336.06,163.78L336.5,189.11L336.93,193.33L337.07,189.11L337.38,201.78L337.58,197.56L337.97,201.78L338.53,197.56L339.37,184.89L340.26,180.67L340.49,172.22L341.14,168L342.01,176.44L342.42,172.22L342.42,176.44L343.14,172.22L343.42,176.44L343.42,184.89L343.99,180.67L345.34,176.44L345.55,168L345.99,180.67L346.01,180.67L346.01,184.89L346.66,176.44L346.88,172.22L347.68,163.78L347.69,168L350.81,163.78L351.2,168L352.59,163.78L353.04,159.56L353.04,163.78L353.81,168L354.09,163.78L354.17,172.22L354.93,168L356.06,155.33L356.06,159.56L356.5,151.11L357.07,146.89L357.51,155.33L357.53,146.89L358.06,151.11L358.66,146.89L358.67,151.11L359.39,146.89L359.54,151.11L360.22,146.89L360.79,142.67L361,146.89L361.4,134.22L361.46,142.67L362.25,138.44L362.29,134.22L363.12,130L364.24,125.78L364.34,121.56L365.06,104.67L365.42,100.44L365.54,104.67L367.28,100.44L367.56,96.22L368.64,92L368.8,130L368.92,130L370.4,125.78L371.34,121.56L371.35,125.78L373.21,121.56L373.21,125.78L373.64,121.56L376.09,117.33L376.09,121.56L376.77,121.56L377.38,117.33L378.14,100.44L378.21,104.67L379.4,100.44L379.51,92L379.95,113.11L379.95,117.33L380.32,113.11L380.55,117.33L381.53,113.11L382.36,96.22L382.58,92L383.17,113.11L383.28,100.44L383.47,96.22L384.19,121.56L384.43,117.33L385.07,155.33L385.2,151.11L385.27,155.33L385.27,159.56L385.91,159.56L386.04,163.78L386.07,180.67L386.45,176.44L387.2,180.67L387.21,176.44L387.25,180.67L389.72,176.44L390.34,163.78L390.37,168L390.61,172.22L394.2,168L394.22,172.22L394.94,163.78L395.86,168L396.99,163.78L397.92,159.56L397.92,163.78L399.79,159.56L399.94,151.11L400.97,155.33L401.52,146.89L401.52,142.67L401.54,125.78L405.33,130L406.42,113.11L408.56,108.89L409.06,100.44L409.06,104.67L409.07,108.89L411.18,100.44L411.64,96.22L414.44,87.78L414.63,83.56L415.21,79.33L415.21,83.56L415.38,87.78L415.99,108.89L416.12,104.67L416.73,100.44L416.78,104.67L417.1,83.56L417.51,79.33L417.7,66.67L417.9,79.33L417.9,83.56L417.91,92L418.55,75.11L418.68,70.89L418.97,66.67L419.07,79.33L419.09,83.56L419.14,79.33L419.81,96.22L419.85,92L419.94,87.78L419.95,104.67L420.58,100.44L420.85,96.22L421.58,92L421.6,87.78L422.03,113.11L422.52,104.67L422.55,100.44L422.95,75.11L423.14,121.56L423.45,117.33L423.9,92L424.04,108.89L424.05,113.11L424.1,121.56L424.67,108.89L424.71,113.11L425.32,108.89L425.46,121.56L426.04,100.44L426.12,96.22L426.18,100.44L426.55,75.11L426.56,70.89L426.59,58.22L426.73,130L427.05,113.11L427.46,108.89L427.89,100.44L427.99,108.89L428.13,113.11L428.79,104.67L429.05,108.89L429.58,121.56L429.77,113.11L429.87,117.33L430.22,108.89L430.6,130L430.73,125.78L430.74,134.22L431.04,113.11L431.21,130L431.62,125.78L432.29,146.89L432.89,142.67L433.24,146.89L433.25,138.44L433.63,134.22L433.88,113.11L434.62,117.33L434.76,138.44L435.07,108.89L435.23,117.33L435.4,121.56L435.63,117.33L435.8,130L436.97,125.78L437.11,134.22L437.27,125.78L437.95,121.56L438.11,125.78L438.29,117.33L438.63,113.11L438.67,125.78L439.07,117.33L439.78,113.11L440.3,108.89L440.3,113.11L440.3,117.33L440.84,108.89L440.84,104.67L440.85,100.44L440.88,117.33L441.02,104.67L441.88,100.44L442.12,87.78L442.25,104.67L442.32,108.89L443.05,142.67L443.31,134.22L443.31,130L443.68,125.78L443.68,134.22L443.68,138.44L443.68,134.22L443.68,146.89L444.29,142.67L444.52,138.44L444.76,142.67L445.01,125.78L445.14,130L445.16,125.78L445.61,155.33L445.9,138.44L445.92,134.22L445.98,125.78L446,155.33L446.19,138.44L446.62,134.22L446.62,138.44L447.34,117.33L447.61,121.56L448.15,159.56L448.32,155.33L448.74,159.56L449.18,138.44L449.48,142.67L449.73,138.44L449.73,142.67L450.18,134.22L450.18,134.22L451.31,130L451.92,121.56L451.92,125.78L452.73,121.56L452.78,117.33L452.81,151.11L453.22,146.89L453.77,151.11L453.89,155.33L454.03,138.44L454.03,138.44L454.05,134.22L454.48,121.56L454.76,138.44L454.77,138.44L454.8,142.67L455.13,130L455.21,155.33L455.3,151.11L455.33,155.33L455.49,159.56L456.1,146.89L456.1,151.11L456.11,155.33L456.36,151.11L456.7,159.56L456.8,155.33L456.8,159.56L457.06,163.78L457.4,146.89L457.4,151.11L457.8,146.89L458.91,134.22L459.24,138.44L459.27,134.22L459.41,151.11L459.84,151.11L460.14,146.89L460.15,151.11L460.42,142.67L460.67,151.11L460.98,146.89L461.29,163.78L461.55,155.33L461.87,159.56L462.54,151.11L462.54,155.33L462.79,151.11L462.97,138.44L462.98,155.33L463.16,146.89L463.87,151.11L464.26,146.89L464.42,163.78L464.83,159.56L465.13,155.33L465.15,163.78L465.43,159.56L465.72,155.33L466.4,151.11L466.4,155.33L466.57,159.56L466.58,155.33L466.73,176.44L467.27,172.22L467.34,168L467.42,163.78L468.01,176.44L468.03,172.22L468.14,176.44L468.86,155.33L468.86,172.22L468.87,176.44L468.87,172.22L469.01,180.67L469.6,176.44L469.86,172.22L469.86,180.67L470.6,180.67L470.62,176.44L471.16,189.11L471.17,184.89L471.47,180.67L472.31,176.44L472.44,180.67L473.24,172.22L473.25,168L473.35,193.33L473.91,180.67L474.06,176.44L474.07,193.33L474.79,189.11L474.88,193.33L475.2,180.67L475.21,184.89L475.77,180.67L475.77,184.89L476.51,168L476.51,176.44L476.53,172.22L476.53,168L476.93,184.89L477.28,176.44L477.34,172.22L477.96,168L478.22,172.22L478.22,176.44L478.24,168L478.26,172.22L479.22,168L479.29,172.22L479.83,163.78L479.84,168L479.99,163.78L480.97,151.11L480.97,155.33L481.09,159.56L481.39,151.11L482.32,155.33L482.4,159.56L482.95,151.11L482.95,155.33L483,151.11L483.54,172.22L483.57,172.22L483.96,168L483.99,176.44L484.7,159.56L484.84,155.33L485,151.11L485,168L485.3,159.56L485.32,163.78L485.98,159.56L485.98,163.78L486.35,159.56L486.35,163.78L486.57,151.11L486.59,163.78L487.28,159.56L487.42,180.67L488.03,172.22L488.05,176.44L488.08,168L488.72,193.33L489.5,189.11L489.91,193.33L489.94,189.11L490.6,184.89L491.16,193.33L491.94,189.11L492.39,180.67L492.8,184.89L492.88,189.11L493.24,180.67L493.25,184.89L493.31,189.11L493.33,193.33L493.36,184.89L494.04,189.11L494.05,184.89L494.05,189.11L494.47,176.44L494.53,180.67L495.23,184.89L495.37,176.44L495.86,184.89L496.74,180.67L497.61,176.44L497.61,180.67L497.65,184.89L498.22,176.44L498.22,184.89L499.11,180.67L499.22,172.22L499.24,184.89L499.38,176.44L500.23,180.67L500.82,163.78L501.15,159.56L501.68,163.78L501.86,159.56L501.86,155.33L502.51,138.44L502.51,163.78L502.61,159.56L502.86,155.33L503.15,151.11L503.15,159.56L503.15,163.78L503.75,159.56L504,163.78L504.11,159.56L504.43,172.22L505.09,176.44L505.58,168L505.7,176.44L505.7,180.67L505.7,176.44L506.1,189.11L506.39,189.11L506.55,184.89L507.17,180.67L507.26,184.89L507.28,189.11L507.48,176.44L507.63,180.67L508.28,176.44L509.15,189.11L509.19,184.89L509.43,189.11L509.87,180.67L510.14,184.89L510.48,172.22L510.57,180.67L511.36,176.44L511.74,184.89L511.82,172.22L512.17,168L512.75,159.56L512.77,176.44L512.87,180.67L513.49,168L514.07,163.78L514.84,155.33L515.25,159.56L515.25,163.78L516.23,159.56L516.48,168L516.93,151.11L516.98,163.78L517.07,159.56L517.49,163.78L517.8,159.56L519.22,155.33L520.41,138.44L520.52,142.67L520.52,151.11L520.69,138.44L520.73,138.44L522.98,142.67L523.38,134.22L523.41,163.78L523.69,159.56L523.69,163.78L523.82,168L523.82,163.78L524.55,159.56L524.55,155.33L524.84,163.78L524.85,159.56L525.43,155.33L525.56,138.44L525.84,151.11L526.28,155.33L526.87,138.44L527.32,134.22L527.45,138.44L527.61,130L527.61,138.44L529.55,134.22L529.55,138.44L531.37,134.22L532.79,117.33L532.95,113.11L533.01,104.67L533.02,117.33L533.48,113.11L533.82,108.89L535.37,100.44L535.61,96.22L535.62,100.44L536.11,87.78L537.28,83.56L537.95,66.67L537.95,62.44L537.95,66.67L538.55,41.33L538.65,41.33L538.93,37.11L538.93,41.33L539.38,20.22L539.68,20.22L539.79,16L539.8,20.22L540,16" style="vector-effect: none; fill: none; stroke: rgb(44, 160, 44); stroke-opacity: 1; stroke-width: 2px; opacity: 1;"/></g><g class="points"/><g class="text"/></g></g></g></g><g class="zerolinelayer-above"/><path class="xlines-above crisp" d="M0,0" style="fill: none;"/><path class="ylines-above crisp" d="M0,0" style="fill: none;"/><g class="overlines-above"/><g class="xaxislayer-above"><g class="xtick"><text text-anchor="middle" x="0" y="439" transform="translate(97.18,0)" style="font-family: 'Open Sans'; font-size: 18px; fill: rgb(255, 255, 255); fill-opacity: 1; white-space: pre;">2016</text></g><g class="xtick"><text text-anchor="middle" x="0" y="439" style="font-family: 'Open Sans'; font-size: 18px; fill: rgb(255, 255, 255); fill-opacity: 1; white-space: pre;" transform="translate(202.35,0)">2018</text></g><g class="xtick"><text text-anchor="middle" x="0" y="439" style="font-family: 'Open Sans'; font-size: 18px; fill: rgb(255, 255, 255); fill-opacity: 1; white-space: pre;" transform="translate(307.38,0)">2020</text></g><g class="xtick"><text text-anchor="middle" x="0" y="439" style="font-family: 'Open Sans'; font-size: 18px; fill: rgb(255, 255, 255); fill-opacity: 1; white-space: pre;" transform="translate(412.55,0)">2022</text></g><g class="xtick"><text text-anchor="middle" x="0" y="439" style="font-family: 'Open Sans'; font-size: 18px; fill: rgb(255, 255, 255); fill-opacity: 1; white-space: pre;" transform="translate(517.5699999999999,0)">2024</text></g></g><g class="yaxislayer-above"><g class="ytick"><text text-anchor="end" x="79" y="6.3" transform="translate(0,420)" style="font-family: 'Open Sans'; font-size: 18px; fill: rgb(255, 255, 255); fill-opacity: 1; white-space: pre;">0</text></g><g class="ytick"><text text-anchor="end" x="79" y="6.3" style="font-family: 'Open Sans'; font-size: 18px; fill: rgb(255, 255, 255); fill-opacity: 1; white-space: pre;" transform="translate(0,377.78)">10</text></g><g class="ytick"><text text-anchor="end" x="79" y="6.3" style="font-family: 'Open Sans'; font-size: 18px; fill: rgb(255, 255, 255); fill-opacity: 1; white-space: pre;" transform="translate(0,335.56)">20</text></g><g class="ytick"><text text-anchor="end" x="79" y="6.3" style="font-family: 'Open Sans'; font-size: 18px; fill: rgb(255, 255, 255); fill-opacity: 1; white-space: pre;" transform="translate(0,293.33000000000004)">30</text></g><g class="ytick"><text text-anchor="end" x="79" y="6.3" style="font-family: 'Open Sans'; font-size: 18px; fill: rgb(255, 255, 255); fill-opacity: 1; white-space: pre;" transform="translate(0,251.11)">40</text></g><g class="ytick"><text text-anchor="end" x="79" y="6.3" style="font-family: 'Open Sans'; font-size: 18px; fill: rgb(255, 255, 255); fill-opacity: 1; white-space: pre;" transform="translate(0,208.89)">50</text></g><g class="ytick"><text text-anchor="end" x="79" y="6.3" style="font-family: 'Open Sans'; font-size: 18px; fill: rgb(255, 255, 255); fill-opacity: 1; white-space: pre;" transform="translate(0,166.67000000000002)">60</text></g><g class="ytick"><text text-anchor="end" x="79" y="6.3" style="font-family: 'Open Sans'; font-size: 18px; fill: rgb(255, 255, 255); fill-opacity: 1; white-space: pre;" transform="translate(0,124.44)">70</text></g></g><g class="overaxes-above"/></g></g><g class="polarlayer"/><g class="smithlayer"/><g class="ternarylayer"/><g class="geolayer"/><g class="funnelarealayer"/><g class="pielayer"/><g class="iciclelayer"/><g class="treemaplayer"/><g class="sunburstlayer"/><g class="glimages"/><defs id="topdefs-1c97ac"><g class="clips"/></defs><g class="layer-above"><g class="imagelayer"/><g class="shapelayer"/></g><g class="infolayer"><g class="g-gtitle"><text class="gtitle" x="35" y="50" text-anchor="start" dy="0em" style="opacity: 1; font-family: 'Open Sans'; font-size: 25px; fill: rgb(255, 255, 255); fill-opacity: 1; white-space: pre;">MultiQC/MultiQC - Open Pull Requests Over Time</text></g><g class="g-xtitle"><text class="xtitle" x="350" y="472.9" text-anchor="middle" style="opacity: 1; font-family: 'Open Sans'; font-size: 22px; fill: rgb(255, 255, 255); fill-opacity: 1; white-space: pre;">Date</text></g><g class="g-ytitle"><text class="ytitle" transform="rotate(-90,38.8,260)" x="38.8" y="260" text-anchor="middle" style="opacity: 1; font-family: 'Open Sans'; font-size: 22px; fill: rgb(255, 255, 255); fill-opacity: 1; white-space: pre;">Number of Open PRs</text></g></g></svg>