<svg class="main-svg" xmlns="http://www.w3.org/2000/svg" xmlns:xlink="http://www.w3.org/1999/xlink" width="700" height="500" style="" viewBox="0 0 700 500"><rect x="0" y="0" width="700" height="500" style="fill: rgb(0, 0, 0); fill-opacity: 0;"/><defs id="defs-682f8a"><g class="clips"><clipPath id="clip682f8axyplot" class="plotclip"><rect width="540" height="320"/></clipPath><clipPath class="axesclip" id="clip682f8ax"><rect x="80" y="0" width="540" height="500"/></clipPath><clipPath class="axesclip" id="clip682f8ay"><rect x="0" y="100" width="700" height="320"/></clipPath><clipPath class="axesclip" id="clip682f8axy"><rect x="80" y="100" width="540" height="320"/></clipPath></g><g class="gradients"/><g class="patterns"/></defs><g class="bglayer"><rect class="bg" x="80" y="100" width="540" height="320" style="fill: rgb(0, 0, 0); fill-opacity: 0; stroke-width: 0;"/></g><g class="layer-below"><g class="imagelayer"/><g class="shapelayer"/></g><g class="cartesianlayer"><g class="subplot xy"><g class="layer-subplot"><g class="shapelayer"/><g class="imagelayer"/></g><g class="minor-gridlayer"><g class="x"/><g class="y"/></g><g class="gridlayer"><g class="x"><path class="xgrid crisp" transform="translate(97.44,0)" d="M0,100v320" style="stroke: rgb(255, 255, 255); stroke-opacity: 1; stroke-width: 1px;"/><path class="xgrid crisp" transform="translate(204.22,0)" d="M0,100v320" style="stroke: rgb(255, 255, 255); stroke-opacity: 1; stroke-width: 1px;"/><path class="xgrid crisp" transform="translate(310.86,0)" d="M0,100v320" style="stroke: rgb(255, 255, 255); stroke-opacity: 1; stroke-width: 1px;"/><path class="xgrid crisp" transform="translate(417.65,0)" d="M0,100v320" style="stroke: rgb(255, 255, 255); stroke-opacity: 1; stroke-width: 1px;"/><path class="xgrid crisp" transform="translate(524.28,0)" d="M0,100v320" style="stroke: rgb(255, 255, 255); stroke-opacity: 1; stroke-width: 1px;"/></g><g class="y"><path class="ygrid crisp" transform="translate(0,381.32)" d="M80,0h540" style="stroke: rgb(255, 255, 255); stroke-opacity: 1; stroke-width: 1px;"/><path class="ygrid crisp" transform="translate(0,342.65)" d="M80,0h540" style="stroke: rgb(255, 255, 255); stroke-opacity: 1; stroke-width: 1px;"/><path class="ygrid crisp" transform="translate(0,303.97)" d="M80,0h540" style="stroke: rgb(255, 255, 255); stroke-opacity: 1; stroke-width: 1px;"/><path class="ygrid crisp" transform="translate(0,265.28999999999996)" d="M80,0h540" style="stroke: rgb(255, 255, 255); stroke-opacity: 1; stroke-width: 1px;"/><path class="ygrid crisp" transform="translate(0,226.62)" d="M80,0h540" style="stroke: rgb(255, 255, 255); stroke-opacity: 1; stroke-width: 1px;"/><path class="ygrid crisp" transform="translate(0,187.94)" d="M80,0h540" style="stroke: rgb(255, 255, 255); stroke-opacity: 1; stroke-width: 1px;"/><path class="ygrid crisp" transform="translate(0,149.26)" d="M80,0h540" style="stroke: rgb(255, 255, 255); stroke-opacity: 1; stroke-width: 1px;"/><path class="ygrid crisp" transform="translate(0,110.59)" d="M80,0h540" style="stroke: rgb(255, 255, 255); stroke-opacity: 1; stroke-width: 1px;"/></g></g><g class="zerolinelayer"><path class="yzl zl crisp" transform="translate(0,420)" d="M80,0h540" style="stroke: rgb(255, 255, 255); stroke-opacity: 1; stroke-width: 2px;"/></g><g class="layer-between"><g class="shapelayer"/><g class="imagelayer"/></g><path class="xlines-below"/><path class="ylines-below"/><g class="overlines-below"/><g class="xaxislayer-below"/><g class="yaxislayer-below"/><g class="overaxes-below"/><g class="overplot"><g class="xy" transform="translate(80,100)" clip-path="url(#clip682f8axyplot)"><g class="scatterlayer mlayer"><g class="trace scatter trace71b4dd" style="stroke-miterlimit: 2;"><g class="fills"><g><path class="js-fill" d="M540,320L0,320L0,319.81L3.64,318.45L3.94,318.26L5.97,317.1L6.29,316.91L14.9,315.36L22.5,315.17L22.7,314.97L24.36,314.78L24.36,314.59L27.43,314.39L35.81,311.88L36.23,311.68L44.89,309.75L44.99,309.56L45.03,308.98L45.99,308.78L46.59,308.4L47.89,308.2L60.55,306.85L61.69,306.66L69.22,304.34L69.27,304.14L70.1,303.18L70.97,302.98L72.46,302.21L77.1,302.02L80.35,301.24L81.35,301.05L85.48,299.69L85.88,299.5L96.84,297.57L98.31,297.37L100.21,296.02L100.22,295.83L100.93,293.31L101.35,293.12L101.79,292.73L102.4,292.54L104.13,291.19L104.27,290.99L104.89,290.03L105.89,289.83L107.06,288.48L107.18,288.28L107.96,287.51L108.94,287.32L112.27,285.38L112.27,285.19L112.78,284.61L114.09,284.42L114.22,284.22L116.27,284.03L116.28,283.84L117.42,283.64L125.3,282.29L125.6,282.1L125.93,281.52L126.79,281.32L133.94,279.58L133.94,279.39L134.85,278.62L135.86,278.42L139.97,276.49L140.65,276.3L140.8,275.33L142.12,275.13L142.24,274.94L143.73,274.75L144.29,274.36L145.76,274.17L146.08,273.78L147.83,273.59L155.56,270.69L157.47,270.49L157.62,270.3L159.25,270.11L176.01,267.4L176.02,267.21L186.58,265.85L186.58,265.66L187.25,264.5L188.84,264.31L189.18,263.53L190.89,263.34L191.4,262.76L193.67,262.56L218.87,259.28L219.6,259.08L220.01,258.12L221.46,257.92L224.06,256.96L225.64,256.76L237.83,254.44L238.14,254.25L240.31,253.28L240.85,253.09L244.55,250.38L244.55,250.19L249.5,247.87L249.51,247.67L252.55,246.13L252.56,245.93L253.56,244.58L253.72,244.39L259.75,242.07L264.46,241.87L264.81,241.49L266.77,241.29L270.58,239.75L270.69,239.55L272.04,238.39L274.16,238.2L274.23,237.81L275.29,237.62L280.3,235.88L282.04,235.68L282.23,235.49L284.03,235.3L284.04,235.1L285.02,234.91L285.22,234.72L286.63,234.52L292.22,233.36L292.28,233.17L304.92,230.66L304.94,230.46L308.92,229.11L308.93,228.92L310.7,227.95L310.7,227.76L311.43,226.79L311.66,226.6L312.44,226.02L313.08,225.82L314.11,224.66L315.09,224.47L316.99,223.31L317.07,223.11L317.85,222.15L317.86,221.95L318.02,221.18L320.28,220.99L328.9,219.44L329.58,219.25L329.76,218.47L330.45,218.28L332.39,216.54L334.92,216.35L335.43,215.96L336.71,215.77L345.48,214.03L345.51,213.83L346.37,213.45L347.67,213.25L352.92,211.32L353.01,211.12L360.61,209.96L360.62,209.77L363.56,208.42L364.16,208.22L369.93,206.1L369.97,205.9L371.03,205.13L372.91,204.94L376.08,203.58L377.04,203.39L383.45,202.04L383.57,201.84L388.62,199.33L388.63,199.13L389.35,197.78L390.32,197.59L393.15,195.85L395.7,195.65L396.33,195.07L400.25,194.88L404.03,193.33L405.92,193.14L406.07,192.75L407.56,192.56L407.69,191.4L411.78,191.21L412.65,190.63L414.83,190.43L419.24,189.27L420.79,189.08L422.49,188.11L423.12,187.92L424.5,185.02L424.96,184.82L425.57,183.08L425.93,182.89L426.84,180.57L427.01,180.38L427.3,179.8L427.99,179.6L431.22,171.29L431.84,171.09L432.73,169.55L432.73,169.35L433.1,168.19L433.13,168L433.6,165.68L434.02,165.49L435.37,164.33L435.74,164.13L436.75,162.97L436.81,162.78L437.52,161.42L437.65,161.23L438.54,159.3L439.53,159.1L440.29,157.75L440.3,157.56L440.54,157.17L441.43,156.98L442.46,152.53L443.67,152.34L443.98,151.76L444.66,151.56L447.71,148.85L447.73,148.66L447.79,148.27L448.66,148.08L450.48,144.6L450.49,144.41L451.1,141.51L451.33,141.31L452.83,134.16L452.84,133.96L453.56,131.45L453.71,131.26L455.19,128.94L455.64,128.74L456.37,126.42L456.62,126.23L457.09,125.65L458.23,125.46L459.75,123.33L459.86,123.13L463.07,116.95L463.09,116.75L463.92,114.82L464.07,114.63L464.82,111.92L465.29,111.73L466.31,110.76L466.31,110.56L466.65,109.02L467.19,108.82L467.74,108.05L468.05,107.86L469.2,105.54L469.2,105.34L470.12,101.48L470.21,101.28L471.54,98.96L471.96,98.77L472.87,97.03L473.14,96.83L473.93,94.71L474.17,94.51L474.59,92.97L475.05,92.77L476.06,90.65L476.07,90.45L476.74,89.49L476.78,89.29L477.81,86.59L477.84,86.39L478.24,84.46L478.26,84.26L478.7,83.49L479.55,83.3L480.52,82.33L480.58,82.14L481.33,79.82L481.46,79.62L483.25,74.4L483.64,74.21L484.37,71.11L484.42,70.92L484.66,70.15L485.29,69.95L488.19,67.05L488.19,66.86L488.78,65.89L489.97,65.7L490.7,64.54L490.95,64.35L491.84,61.83L492.14,61.64L494.03,59.32L494.75,59.12L495.48,57.38L495.51,57.19L496.13,55.06L497.01,54.87L500.8,52.94L500.81,52.74L503.15,48.1L504.35,47.91L505.29,47.13L505.29,46.94L506.89,45.59L506.95,45.39L507.9,45.01L508.06,44.81L511.87,41.53L512.11,41.33L514.05,40.17L514.09,39.98L515.25,38.43L515.26,38.24L520.74,32.24L521.1,32.05L522.74,30.89L524.14,30.7L525.18,27.22L525.42,27.02L528.71,24.9L531.01,24.7L531.72,22.38L531.84,22.19L532.6,21.61L532.88,21.41L533.67,19.87L533.78,19.67L534.95,17.74L535.41,17.55L535.7,16.77L537.67,16.58L540,16" style="fill: rgb(44, 160, 44); fill-opacity: 0.5; stroke-width: 0;"/></g></g><g class="errorbars"/><g class="lines"><path class="js-line" d="M0,319.81L3.64,318.45L3.94,318.26L5.97,317.1L6.29,316.91L14.9,315.36L22.5,315.17L22.7,314.97L24.36,314.78L24.36,314.59L27.43,314.39L35.81,311.88L36.23,311.68L44.89,309.75L44.99,309.56L45.03,308.98L45.99,308.78L46.59,308.4L47.89,308.2L60.55,306.85L61.69,306.66L69.22,304.34L69.27,304.14L70.1,303.18L70.97,302.98L72.46,302.21L77.1,302.02L80.35,301.24L81.35,301.05L85.48,299.69L85.88,299.5L96.84,297.57L98.31,297.37L100.21,296.02L100.22,295.83L100.93,293.31L101.35,293.12L101.79,292.73L102.4,292.54L104.13,291.19L104.27,290.99L104.89,290.03L105.89,289.83L107.06,288.48L107.18,288.28L107.96,287.51L108.94,287.32L112.27,285.38L112.27,285.19L112.78,284.61L114.09,284.42L114.22,284.22L116.27,284.03L116.28,283.84L117.42,283.64L125.3,282.29L125.6,282.1L125.93,281.52L126.79,281.32L133.94,279.58L133.94,279.39L134.85,278.62L135.86,278.42L139.97,276.49L140.65,276.3L140.8,275.33L142.12,275.13L142.24,274.94L143.73,274.75L144.29,274.36L145.76,274.17L146.08,273.78L147.83,273.59L155.56,270.69L157.47,270.49L157.62,270.3L159.25,270.11L176.01,267.4L176.02,267.21L186.58,265.85L186.58,265.66L187.25,264.5L188.84,264.31L189.18,263.53L190.89,263.34L191.4,262.76L193.67,262.56L218.87,259.28L219.6,259.08L220.01,258.12L221.46,257.92L224.06,256.96L225.64,256.76L237.83,254.44L238.14,254.25L240.31,253.28L240.85,253.09L244.55,250.38L244.55,250.19L249.5,247.87L249.51,247.67L252.55,246.13L252.56,245.93L253.56,244.58L253.72,244.39L259.75,242.07L264.46,241.87L264.81,241.49L266.77,241.29L270.58,239.75L270.69,239.55L272.04,238.39L274.16,238.2L274.23,237.81L275.29,237.62L280.3,235.88L282.04,235.68L282.23,235.49L284.03,235.3L284.04,235.1L285.02,234.91L285.22,234.72L286.63,234.52L292.22,233.36L292.28,233.17L304.92,230.66L304.94,230.46L308.92,229.11L308.93,228.92L310.7,227.95L310.7,227.76L311.43,226.79L311.66,226.6L312.44,226.02L313.08,225.82L314.11,224.66L315.09,224.47L316.99,223.31L317.07,223.11L317.85,222.15L317.86,221.95L318.02,221.18L320.28,220.99L328.9,219.44L329.58,219.25L329.76,218.47L330.45,218.28L332.39,216.54L334.92,216.35L335.43,215.96L336.71,215.77L345.48,214.03L345.51,213.83L346.37,213.45L347.67,213.25L352.92,211.32L353.01,211.12L360.61,209.96L360.62,209.77L363.56,208.42L364.16,208.22L369.93,206.1L369.97,205.9L371.03,205.13L372.91,204.94L376.08,203.58L377.04,203.39L383.45,202.04L383.57,201.84L388.62,199.33L388.63,199.13L389.35,197.78L390.32,197.59L393.15,195.85L395.7,195.65L396.33,195.07L400.25,194.88L404.03,193.33L405.92,193.14L406.07,192.75L407.56,192.56L407.69,191.4L411.78,191.21L412.65,190.63L414.83,190.43L419.24,189.27L420.79,189.08L422.49,188.11L423.12,187.92L424.5,185.02L424.96,184.82L425.57,183.08L425.93,182.89L426.84,180.57L427.01,180.38L427.3,179.8L427.99,179.6L431.22,171.29L431.84,171.09L432.73,169.55L432.73,169.35L433.1,168.19L433.13,168L433.6,165.68L434.02,165.49L435.37,164.33L435.74,164.13L436.75,162.97L436.81,162.78L437.52,161.42L437.65,161.23L438.54,159.3L439.53,159.1L440.29,157.75L440.3,157.56L440.54,157.17L441.43,156.98L442.46,152.53L443.67,152.34L443.98,151.76L444.66,151.56L447.71,148.85L447.73,148.66L447.79,148.27L448.66,148.08L450.48,144.6L450.49,144.41L451.1,141.51L451.33,141.31L452.83,134.16L452.84,133.96L453.56,131.45L453.71,131.26L455.19,128.94L455.64,128.74L456.37,126.42L456.62,126.23L457.09,125.65L458.23,125.46L459.75,123.33L459.86,123.13L463.07,116.95L463.09,116.75L463.92,114.82L464.07,114.63L464.82,111.92L465.29,111.73L466.31,110.76L466.31,110.56L466.65,109.02L467.19,108.82L467.74,108.05L468.05,107.86L469.2,105.54L469.2,105.34L470.12,101.48L470.21,101.28L471.54,98.96L471.96,98.77L472.87,97.03L473.14,96.83L473.93,94.71L474.17,94.51L474.59,92.97L475.05,92.77L476.06,90.65L476.07,90.45L476.74,89.49L476.78,89.29L477.81,86.59L477.84,86.39L478.24,84.46L478.26,84.26L478.7,83.49L479.55,83.3L480.52,82.33L480.58,82.14L481.33,79.82L481.46,79.62L483.25,74.4L483.64,74.21L484.37,71.11L484.42,70.92L484.66,70.15L485.29,69.95L488.19,67.05L488.19,66.86L488.78,65.89L489.97,65.7L490.7,64.54L490.95,64.35L491.84,61.83L492.14,61.64L494.03,59.32L494.75,59.12L495.48,57.38L495.51,57.19L496.13,55.06L497.01,54.87L500.8,52.94L500.81,52.74L503.15,48.1L504.35,47.91L505.29,47.13L505.29,46.94L506.89,45.59L506.95,45.39L507.9,45.01L508.06,44.81L511.87,41.53L512.11,41.33L514.05,40.17L514.09,39.98L515.25,38.43L515.26,38.24L520.74,32.24L521.1,32.05L522.74,30.89L524.14,30.7L525.18,27.22L525.42,27.02L528.71,24.9L531.01,24.7L531.72,22.38L531.84,22.19L532.6,21.61L532.88,21.41L533.67,19.87L533.78,19.67L534.95,17.74L535.41,17.55L535.7,16.77L537.67,16.58L540,16" style="vector-effect: none; fill: none; stroke: rgb(44, 160, 44); stroke-opacity: 1; stroke-width: 2px; opacity: 1;"/></g><g class="points"/><g class="text"/></g></g></g></g><g class="zerolinelayer-above"/><path class="xlines-above crisp" d="M0,0" style="fill: none;"/><path class="ylines-above crisp" d="M0,0" style="fill: none;"/><g class="overlines-above"/><g class="xaxislayer-above"><g class="xtick"><text text-anchor="middle" x="0" y="439" transform="translate(97.44,0)" style="font-family: 'Open Sans'; font-size: 18px; fill: rgb(255, 255, 255); fill-opacity: 1; white-space: pre;">2016</text></g><g class="xtick"><text text-anchor="middle" x="0" y="439" style="font-family: 'Open Sans'; font-size: 18px; fill: rgb(255, 255, 255); fill-opacity: 1; white-space: pre;" transform="translate(204.22,0)">2018</text></g><g class="xtick"><text text-anchor="middle" x="0" y="439" style="font-family: 'Open Sans'; font-size: 18px; fill: rgb(255, 255, 255); fill-opacity: 1; white-space: pre;" transform="translate(310.86,0)">2020</text></g><g class="xtick"><text text-anchor="middle" x="0" y="439" style="font-family: 'Open Sans'; font-size: 18px; fill: rgb(255, 255, 255); fill-opacity: 1; white-space: pre;" transform="translate(417.65,0)">2022</text></g><g class="xtick"><text text-anchor="middle" x="0" y="439" style="font-family: 'Open Sans'; font-size: 18px; fill: rgb(255, 255, 255); fill-opacity: 1; white-space: pre;" transform="translate(524.28,0)">2024</text></g></g><g class="yaxislayer-above"><g class="ytick"><text text-anchor="end" x="79" y="6.3" transform="translate(0,420)" style="font-family: 'Open Sans'; font-size: 18px; fill: rgb(255, 255, 255); fill-opacity: 1; white-space: pre;">0</text></g><g class="ytick"><text text-anchor="end" x="79" y="6.3" style="font-family: 'Open Sans'; font-size: 18px; fill: rgb(255, 255, 255); fill-opacity: 1; white-space: pre;" transform="translate(0,381.32)">200</text></g><g class="ytick"><text text-anchor="end" x="79" y="6.3" style="font-family: 'Open Sans'; font-size: 18px; fill: rgb(255, 255, 255); fill-opacity: 1; white-space: pre;" transform="translate(0,342.65)">400</text></g><g class="ytick"><text text-anchor="end" x="79" y="6.3" style="font-family: 'Open Sans'; font-size: 18px; fill: rgb(255, 255, 255); fill-opacity: 1; white-space: pre;" transform="translate(0,303.97)">600</text></g><g class="ytick"><text text-anchor="end" x="79" y="6.3" style="font-family: 'Open Sans'; font-size: 18px; fill: rgb(255, 255, 255); fill-opacity: 1; white-space: pre;" transform="translate(0,265.28999999999996)">800</text></g><g class="ytick"><text text-anchor="end" x="79" y="6.3" style="font-family: 'Open Sans'; font-size: 18px; fill: rgb(255, 255, 255); fill-opacity: 1; white-space: pre;" transform="translate(0,226.62)">1000</text></g><g class="ytick"><text text-anchor="end" x="79" y="6.3" style="font-family: 'Open Sans'; font-size: 18px; fill: rgb(255, 255, 255); fill-opacity: 1; white-space: pre;" transform="translate(0,187.94)">1200</text></g><g class="ytick"><text text-anchor="end" x="79" y="6.3" style="font-family: 'Open Sans'; font-size: 18px; fill: rgb(255, 255, 255); fill-opacity: 1; white-space: pre;" transform="translate(0,149.26)">1400</text></g><g class="ytick"><text text-anchor="end" x="79" y="6.3" style="font-family: 'Open Sans'; font-size: 18px; fill: rgb(255, 255, 255); fill-opacity: 1; white-space: pre;" transform="translate(0,110.59)">1600</text></g></g><g class="overaxes-above"/></g></g><g class="polarlayer"/><g class="smithlayer"/><g class="ternarylayer"/><g class="geolayer"/><g class="funnelarealayer"/><g class="pielayer"/><g class="iciclelayer"/><g class="treemaplayer"/><g class="sunburstlayer"/><g class="glimages"/><defs id="topdefs-682f8a"><g class="clips"/></defs><g class="layer-above"><g class="imagelayer"/><g class="shapelayer"/></g><g class="infolayer"><g class="g-gtitle"><text class="gtitle" x="35" y="50" text-anchor="start" dy="0em" style="opacity: 1; font-family: 'Open Sans'; font-size: 25px; fill: rgb(255, 255, 255); fill-opacity: 1; white-space: pre;">MultiQC/MultiQC - Pull Requests Created Over Time</text></g><g class="g-xtitle"><text class="xtitle" x="350" y="472.9" text-anchor="middle" style="opacity: 1; font-family: 'Open Sans'; font-size: 22px; fill: rgb(255, 255, 255); fill-opacity: 1; white-space: pre;">Date</text></g><g class="g-ytitle"><text class="ytitle" transform="rotate(-90,20.799999999999997,260)" x="20.799999999999997" y="260" text-anchor="middle" style="opacity: 1; font-family: 'Open Sans'; font-size: 22px; fill: rgb(255, 255, 255); fill-opacity: 1; white-space: pre;">Cumulative PRs Created</text></g></g></svg>