<svg class="main-svg" xmlns="http://www.w3.org/2000/svg" xmlns:xlink="http://www.w3.org/1999/xlink" width="700" height="500" style="" viewBox="0 0 700 500"><rect x="0" y="0" width="700" height="500" style="fill: rgb(0, 0, 0); fill-opacity: 0;"/><defs id="defs-0df261"><g class="clips"><clipPath id="clip0df261xyplot" class="plotclip"><rect width="540" height="320"/></clipPath><clipPath class="axesclip" id="clip0df261x"><rect x="80" y="0" width="540" height="500"/></clipPath><clipPath class="axesclip" id="clip0df261y"><rect x="0" y="100" width="700" height="320"/></clipPath><clipPath class="axesclip" id="clip0df261xy"><rect x="80" y="100" width="540" height="320"/></clipPath></g><g class="gradients"/><g class="patterns"/></defs><g class="bglayer"><rect class="bg" x="80" y="100" width="540" height="320" style="fill: rgb(0, 0, 0); fill-opacity: 0; stroke-width: 0;"/></g><g class="layer-below"><g class="imagelayer"/><g class="shapelayer"/></g><g class="cartesianlayer"><g class="subplot xy"><g class="layer-subplot"><g class="shapelayer"/><g class="imagelayer"/></g><g class="minor-gridlayer"><g class="x"/><g class="y"/></g><g class="gridlayer"><g class="x"><path class="xgrid crisp" transform="translate(96.58,0)" d="M0,100v320" style="stroke: rgb(255, 255, 255); stroke-opacity: 1; stroke-width: 1px;"/><path class="xgrid crisp" transform="translate(198.07999999999998,0)" d="M0,100v320" style="stroke: rgb(255, 255, 255); stroke-opacity: 1; stroke-width: 1px;"/><path class="xgrid crisp" transform="translate(299.45,0)" d="M0,100v320" style="stroke: rgb(255, 255, 255); stroke-opacity: 1; stroke-width: 1px;"/><path class="xgrid crisp" transform="translate(400.95,0)" d="M0,100v320" style="stroke: rgb(255, 255, 255); stroke-opacity: 1; stroke-width: 1px;"/><path class="xgrid crisp" transform="translate(502.32,0)" d="M0,100v320" style="stroke: rgb(255, 255, 255); stroke-opacity: 1; stroke-width: 1px;"/><path class="xgrid crisp" transform="translate(603.82,0)" d="M0,100v320" style="stroke: rgb(255, 255, 255); stroke-opacity: 1; stroke-width: 1px;"/></g><g class="y"><path class="ygrid crisp" transform="translate(0,383.74)" d="M80,0h540" style="stroke: rgb(255, 255, 255); stroke-opacity: 1; stroke-width: 1px;"/><path class="ygrid crisp" transform="translate(0,347.49)" d="M80,0h540" style="stroke: rgb(255, 255, 255); stroke-opacity: 1; stroke-width: 1px;"/><path class="ygrid crisp" transform="translate(0,311.23)" d="M80,0h540" style="stroke: rgb(255, 255, 255); stroke-opacity: 1; stroke-width: 1px;"/><path class="ygrid crisp" transform="translate(0,274.98)" d="M80,0h540" style="stroke: rgb(255, 255, 255); stroke-opacity: 1; stroke-width: 1px;"/><path class="ygrid crisp" transform="translate(0,238.72)" d="M80,0h540" style="stroke: rgb(255, 255, 255); stroke-opacity: 1; stroke-width: 1px;"/><path class="ygrid crisp" transform="translate(0,202.47)" d="M80,0h540" style="stroke: rgb(255, 255, 255); stroke-opacity: 1; stroke-width: 1px;"/><path class="ygrid crisp" transform="translate(0,166.20999999999998)" d="M80,0h540" style="stroke: rgb(255, 255, 255); stroke-opacity: 1; stroke-width: 1px;"/><path class="ygrid crisp" transform="translate(0,129.96)" d="M80,0h540" style="stroke: rgb(255, 255, 255); stroke-opacity: 1; stroke-width: 1px;"/></g></g><g class="zerolinelayer"><path class="yzl zl crisp" transform="translate(0,420)" d="M80,0h540" style="stroke: rgb(255, 255, 255); stroke-opacity: 1; stroke-width: 2px;"/></g><g class="layer-between"><g class="shapelayer"/><g class="imagelayer"/></g><path class="xlines-below"/><path class="ylines-below"/><g class="overlines-below"/><g class="xaxislayer-below"/><g class="yaxislayer-below"/><g class="overaxes-below"/><g class="overplot"><g class="xy" transform="translate(80,100)" clip-path="url(#clip0df261xyplot)"><g class="scatterlayer mlayer"><g class="trace scatter traceaf8f51" style="stroke-miterlimit: 2;"><g class="fills"><g><path class="js-fill" d="M540,320L0,320L0,319.82L3.46,318.55L3.74,318.37L5.68,317.28L5.98,317.1L14.16,315.65L21.38,315.47L21.58,315.29L23.15,315.11L23.15,314.92L26.08,314.74L42.76,310.21L42.78,310.03L42.8,309.67L43.72,309.49L44.29,309.12L45.52,308.94L57.55,307.67L58.64,307.49L65.8,305.32L65.84,305.14L66.64,304.23L67.46,304.05L68.87,303.32L73.29,303.14L77.33,302.23L78.5,302.05L83.31,300.42L83.31,300.24L93.92,298.61L94.26,298.43L95.26,297.52L95.26,297.34L95.94,294.98L96.34,294.8L96.76,294.44L97.34,294.26L98.98,292.99L99.12,292.81L99.7,291.9L100.65,291.72L101.77,290.45L101.88,290.27L102.62,289.55L103.55,289.36L106.72,287.55L106.72,287.37L107.2,286.83L108.45,286.65L108.57,286.46L110.52,286.28L110.54,286.1L111.62,285.92L119.11,284.65L119.39,284.47L119.71,283.93L120.52,283.74L127.32,282.11L127.32,281.93L128.18,281.21L129.14,281.03L132.72,279.39L133.05,279.21L133.72,278.31L133.84,278.13L141.04,276.31L141.58,276.13L145.78,274.5L147.34,274.32L149.82,273.41L151.37,273.23L177.35,269.24L177.36,269.06L177.99,267.97L179.51,267.79L179.83,267.07L181.45,266.89L181.94,266.34L184.1,266.16L208.05,263.08L208.74,262.9L209.13,261.99L210.51,261.81L214.48,260.72L215.63,260.54L228.15,258.18L228.15,258L228.95,257.28L229.22,257.1L231.75,255.83L232,255.65L232.46,254.56L233.03,254.38L233.14,254.2L234.4,254.02L236.35,252.75L236.99,252.57L238.26,251.66L238.95,251.48L238.95,251.3L239.91,251.12L240.88,249.48L241.02,249.3L241.89,248.76L242.7,248.58L246.91,246.95L251.38,246.76L251.72,246.4L253.58,246.22L257.2,244.77L257.3,244.59L258.59,243.5L260.6,243.32L260.67,242.96L261.67,242.78L266.44,241.14L268.09,240.96L268.28,240.78L269.99,240.6L269.99,240.42L270.93,240.24L271.12,240.06L272.46,239.88L277.83,238.61L279.01,238.43L279.51,237.88L282,237.7L293.26,234.98L293.65,234.8L293.66,234.62L294.78,234.44L295.63,232.99L295.64,232.81L297.97,230.99L298.01,230.81L301.4,229.18L301.87,229L302.3,227.37L304.44,227.19L312.64,225.74L313.29,225.56L313.45,224.83L314.11,224.65L315.95,223.02L318.36,222.84L318.84,222.47L320.06,222.29L328.4,220.66L328.43,220.48L329.25,220.12L330.48,219.94L335.47,218.12L335.56,217.94L342.78,216.85L342.79,216.67L346.15,215.22L346.86,215.04L351.64,213.23L351.67,213.05L352.68,212.32L354.47,212.14L357.49,210.87L358.4,210.69L364.49,209.42L364.61,209.24L369.41,206.7L369.48,206.52L370.1,205.43L371.02,205.25L373.71,203.62L376.13,203.44L376.73,202.9L380.46,202.71L384.05,201.26L385.85,201.08L385.99,200.72L387.41,200.54L387.54,199.45L391.42,199.27L392.25,198.73L394.32,198.55L397.28,197.64L398.51,197.46L401.6,196.37L402.2,196.19L403.52,193.47L403.95,193.29L404.53,191.66L404.87,191.48L405.74,189.3L405.9,189.12L406.17,188.57L406.83,188.39L409.23,181.51L409.63,181.32L411.69,177.88L411.69,177.7L412.66,174.98L412.97,174.8L415.72,172.08L415.72,171.9L416.15,170.27L416.17,170.08L418.51,168.27L418.52,168.09L418.76,167.37L419.61,167.18L420.57,163.2L420.59,163.01L422.94,161.93L423.01,161.75L425.47,159.75L425.57,159.57L425.65,159.03L426.48,158.85L428.21,155.4L428.22,155.22L428.79,152.68L429.02,152.5L430.62,143.98L430.64,143.8L431.41,142.71L431.43,142.53L432.02,141.08L432.68,140.9L433.25,139.99L433.26,139.81L434.49,137.82L435.57,137.64L437.01,135.64L437.12,135.46L440.18,129.66L440.2,129.48L440.91,127.85L440.98,127.67L441.4,126.03L441.4,125.85L441.84,124.95L442.28,124.77L443.25,123.86L443.25,123.68L444.1,121.87L444.21,121.68L446,118.96L446,118.78L446.87,115.16L446.96,114.98L448.23,112.8L448.63,112.62L449.49,110.99L449.74,110.81L450.5,108.81L450.72,108.63L451.12,107.18L451.56,107L453.09,104.28L453.1,104.1L455.03,98.3L455.84,98.12L456.76,97.21L456.82,97.03L457.53,94.86L457.65,94.67L459.36,89.78L459.73,89.6L460.48,86.34L460.61,86.15L461.3,85.61L461.55,85.43L461.59,84.7L462.51,84.52L463.25,83.62L463.75,83.43L464.61,81.8L465.75,81.62L466.68,80.35L466.71,80.17L467.14,79.27L467.14,79.08L467.8,77.82L467.93,77.63L471.01,73.65L471.04,73.46L471.6,71.65L472.44,71.47L476.03,69.66L476.05,69.48L478.27,65.13L479.42,64.94L480.3,64.04L480.73,63.86L481.97,62.41L482.79,62.23L485.6,59.69L486.19,59.51L489.73,56.61L489.74,56.42L490.56,55.52L490.71,55.34L495.59,49.54L496.14,49.35L498.48,48.09L498.48,47.9L499.21,45.55L499.44,45.37L502.57,43.37L504.75,43.19L505.55,40.65L506.26,40.47L506.55,39.75L507.11,39.57L508.08,36.85L508.5,36.67L511.09,35.58L512.84,35.4L514.43,33.95L514.47,33.77L515.2,33.22L516.17,33.04L519.18,31.23L519.19,31.05L519.87,29.6L520.13,29.41L520.97,26.51L521.17,26.33L522.09,25.25L522.26,25.06L522.53,24.34L524.8,24.16L526.04,22.34L526.97,22.16L531.34,20.71L531.66,20.53L531.98,19.99L532.53,19.81L532.98,19.08L533.61,18.9L537.79,16.91L538.51,16.73L540,16" style="fill: rgb(44, 160, 44); fill-opacity: 0.5; stroke-width: 0;"/></g></g><g class="errorbars"/><g class="lines"><path class="js-line" d="M0,319.82L3.46,318.55L3.74,318.37L5.68,317.28L5.98,317.1L14.16,315.65L21.38,315.47L21.58,315.29L23.15,315.11L23.15,314.92L26.08,314.74L42.76,310.21L42.78,310.03L42.8,309.67L43.72,309.49L44.29,309.12L45.52,308.94L57.55,307.67L58.64,307.49L65.8,305.32L65.84,305.14L66.64,304.23L67.46,304.05L68.87,303.32L73.29,303.14L77.33,302.23L78.5,302.05L83.31,300.42L83.31,300.24L93.92,298.61L94.26,298.43L95.26,297.52L95.26,297.34L95.94,294.98L96.34,294.8L96.76,294.44L97.34,294.26L98.98,292.99L99.12,292.81L99.7,291.9L100.65,291.72L101.77,290.45L101.88,290.27L102.62,289.55L103.55,289.36L106.72,287.55L106.72,287.37L107.2,286.83L108.45,286.65L108.57,286.46L110.52,286.28L110.54,286.1L111.62,285.92L119.11,284.65L119.39,284.47L119.71,283.93L120.52,283.74L127.32,282.11L127.32,281.93L128.18,281.21L129.14,281.03L132.72,279.39L133.05,279.21L133.72,278.31L133.84,278.13L141.04,276.31L141.58,276.13L145.78,274.5L147.34,274.32L149.82,273.41L151.37,273.23L177.35,269.24L177.36,269.06L177.99,267.97L179.51,267.79L179.83,267.07L181.45,266.89L181.94,266.34L184.1,266.16L208.05,263.08L208.74,262.9L209.13,261.99L210.51,261.81L214.48,260.72L215.63,260.54L228.15,258.18L228.15,258L228.95,257.28L229.22,257.1L231.75,255.83L232,255.65L232.46,254.56L233.03,254.38L233.14,254.2L234.4,254.02L236.35,252.75L236.99,252.57L238.26,251.66L238.95,251.48L238.95,251.3L239.91,251.12L240.88,249.48L241.02,249.3L241.89,248.76L242.7,248.58L246.91,246.95L251.38,246.76L251.72,246.4L253.58,246.22L257.2,244.77L257.3,244.59L258.59,243.5L260.6,243.32L260.67,242.96L261.67,242.78L266.44,241.14L268.09,240.96L268.28,240.78L269.99,240.6L269.99,240.42L270.93,240.24L271.12,240.06L272.46,239.88L277.83,238.61L279.01,238.43L279.51,237.88L282,237.7L293.26,234.98L293.65,234.8L293.66,234.62L294.78,234.44L295.63,232.99L295.64,232.81L297.97,230.99L298.01,230.81L301.4,229.18L301.87,229L302.3,227.37L304.44,227.19L312.64,225.74L313.29,225.56L313.45,224.83L314.11,224.65L315.95,223.02L318.36,222.84L318.84,222.47L320.06,222.29L328.4,220.66L328.43,220.48L329.25,220.12L330.48,219.94L335.47,218.12L335.56,217.94L342.78,216.85L342.79,216.67L346.15,215.22L346.86,215.04L351.64,213.23L351.67,213.05L352.68,212.32L354.47,212.14L357.49,210.87L358.4,210.69L364.49,209.42L364.61,209.24L369.41,206.7L369.48,206.52L370.1,205.43L371.02,205.25L373.71,203.62L376.13,203.44L376.73,202.9L380.46,202.71L384.05,201.26L385.85,201.08L385.99,200.72L387.41,200.54L387.54,199.45L391.42,199.27L392.25,198.73L394.32,198.55L397.28,197.64L398.51,197.46L401.6,196.37L402.2,196.19L403.52,193.47L403.95,193.29L404.53,191.66L404.87,191.48L405.74,189.3L405.9,189.12L406.17,188.57L406.83,188.39L409.23,181.51L409.63,181.32L411.69,177.88L411.69,177.7L412.66,174.98L412.97,174.8L415.72,172.08L415.72,171.9L416.15,170.27L416.17,170.08L418.51,168.27L418.52,168.09L418.76,167.37L419.61,167.18L420.57,163.2L420.59,163.01L422.94,161.93L423.01,161.75L425.47,159.75L425.57,159.57L425.65,159.03L426.48,158.85L428.21,155.4L428.22,155.22L428.79,152.68L429.02,152.5L430.62,143.98L430.64,143.8L431.41,142.71L431.43,142.53L432.02,141.08L432.68,140.9L433.25,139.99L433.26,139.81L434.49,137.82L435.57,137.64L437.01,135.64L437.12,135.46L440.18,129.66L440.2,129.48L440.91,127.85L440.98,127.67L441.4,126.03L441.4,125.85L441.84,124.95L442.28,124.77L443.25,123.86L443.25,123.68L444.1,121.87L444.21,121.68L446,118.96L446,118.78L446.87,115.16L446.96,114.98L448.23,112.8L448.63,112.62L449.49,110.99L449.74,110.81L450.5,108.81L450.72,108.63L451.12,107.18L451.56,107L453.09,104.28L453.1,104.1L455.03,98.3L455.84,98.12L456.76,97.21L456.82,97.03L457.53,94.86L457.65,94.67L459.36,89.78L459.73,89.6L460.48,86.34L460.61,86.15L461.3,85.61L461.55,85.43L461.59,84.7L462.51,84.52L463.25,83.62L463.75,83.43L464.61,81.8L465.75,81.62L466.68,80.35L466.71,80.17L467.14,79.27L467.14,79.08L467.8,77.82L467.93,77.63L471.01,73.65L471.04,73.46L471.6,71.65L472.44,71.47L476.03,69.66L476.05,69.48L478.27,65.13L479.42,64.94L480.3,64.04L480.73,63.86L481.97,62.41L482.79,62.23L485.6,59.69L486.19,59.51L489.73,56.61L489.74,56.42L490.56,55.52L490.71,55.34L495.59,49.54L496.14,49.35L498.48,48.09L498.48,47.9L499.21,45.55L499.44,45.37L502.57,43.37L504.75,43.19L505.55,40.65L506.26,40.47L506.55,39.75L507.11,39.57L508.08,36.85L508.5,36.67L511.09,35.58L512.84,35.4L514.43,33.95L514.47,33.77L515.2,33.22L516.17,33.04L519.18,31.23L519.19,31.05L519.87,29.6L520.13,29.41L520.97,26.51L521.17,26.33L522.09,25.25L522.26,25.06L522.53,24.34L524.8,24.16L526.04,22.34L526.97,22.16L531.34,20.71L531.66,20.53L531.98,19.99L532.53,19.81L532.98,19.08L533.61,18.9L537.79,16.91L538.51,16.73L540,16" style="vector-effect: none; fill: none; stroke: rgb(44, 160, 44); stroke-opacity: 1; stroke-width: 2px; opacity: 1;"/></g><g class="points"/><g class="text"/></g></g></g></g><g class="zerolinelayer-above"/><path class="xlines-above crisp" d="M0,0" style="fill: none;"/><path class="ylines-above crisp" d="M0,0" style="fill: none;"/><g class="overlines-above"/><g class="xaxislayer-above"><g class="xtick"><text text-anchor="middle" x="0" y="439" transform="translate(96.58,0)" style="font-family: 'Open Sans'; font-size: 18px; fill: rgb(255, 255, 255); fill-opacity: 1; white-space: pre;">2016</text></g><g class="xtick"><text text-anchor="middle" x="0" y="439" style="font-family: 'Open Sans'; font-size: 18px; fill: rgb(255, 255, 255); fill-opacity: 1; white-space: pre;" transform="translate(198.07999999999998,0)">2018</text></g><g class="xtick"><text text-anchor="middle" x="0" y="439" style="font-family: 'Open Sans'; font-size: 18px; fill: rgb(255, 255, 255); fill-opacity: 1; white-space: pre;" transform="translate(299.45,0)">2020</text></g><g class="xtick"><text text-anchor="middle" x="0" y="439" style="font-family: 'Open Sans'; font-size: 18px; fill: rgb(255, 255, 255); fill-opacity: 1; white-space: pre;" transform="translate(400.95,0)">2022</text></g><g class="xtick"><text text-anchor="middle" x="0" y="439" style="font-family: 'Open Sans'; font-size: 18px; fill: rgb(255, 255, 255); fill-opacity: 1; white-space: pre;" transform="translate(502.32,0)">2024</text></g><g class="xtick"><text text-anchor="middle" x="0" y="439" style="font-family: 'Open Sans'; font-size: 18px; fill: rgb(255, 255, 255); fill-opacity: 1; white-space: pre;" transform="translate(603.82,0)">2026</text></g></g><g class="yaxislayer-above"><g class="ytick"><text text-anchor="end" x="79" y="6.3" transform="translate(0,420)" style="font-family: 'Open Sans'; font-size: 18px; fill: rgb(255, 255, 255); fill-opacity: 1; white-space: pre;">0</text></g><g class="ytick"><text text-anchor="end" x="79" y="6.3" style="font-family: 'Open Sans'; font-size: 18px; fill: rgb(255, 255, 255); fill-opacity: 1; white-space: pre;" transform="translate(0,383.74)">200</text></g><g class="ytick"><text text-anchor="end" x="79" y="6.3" style="font-family: 'Open Sans'; font-size: 18px; fill: rgb(255, 255, 255); fill-opacity: 1; white-space: pre;" transform="translate(0,347.49)">400</text></g><g class="ytick"><text text-anchor="end" x="79" y="6.3" style="font-family: 'Open Sans'; font-size: 18px; fill: rgb(255, 255, 255); fill-opacity: 1; white-space: pre;" transform="translate(0,311.23)">600</text></g><g class="ytick"><text text-anchor="end" x="79" y="6.3" style="font-family: 'Open Sans'; font-size: 18px; fill: rgb(255, 255, 255); fill-opacity: 1; white-space: pre;" transform="translate(0,274.98)">800</text></g><g class="ytick"><text text-anchor="end" x="79" y="6.3" style="font-family: 'Open Sans'; font-size: 18px; fill: rgb(255, 255, 255); fill-opacity: 1; white-space: pre;" transform="translate(0,238.72)">1000</text></g><g class="ytick"><text text-anchor="end" x="79" y="6.3" style="font-family: 'Open Sans'; font-size: 18px; fill: rgb(255, 255, 255); fill-opacity: 1; white-space: pre;" transform="translate(0,202.47)">1200</text></g><g class="ytick"><text text-anchor="end" x="79" y="6.3" style="font-family: 'Open Sans'; font-size: 18px; fill: rgb(255, 255, 255); fill-opacity: 1; white-space: pre;" transform="translate(0,166.20999999999998)">1400</text></g><g class="ytick"><text text-anchor="end" x="79" y="6.3" style="font-family: 'Open Sans'; font-size: 18px; fill: rgb(255, 255, 255); fill-opacity: 1; white-space: pre;" transform="translate(0,129.96)">1600</text></g></g><g class="overaxes-above"/></g></g><g class="polarlayer"/><g class="smithlayer"/><g class="ternarylayer"/><g class="geolayer"/><g class="funnelarealayer"/><g class="pielayer"/><g class="iciclelayer"/><g class="treemaplayer"/><g class="sunburstlayer"/><g class="glimages"/><defs id="topdefs-0df261"><g class="clips"/></defs><g class="layer-above"><g class="imagelayer"/><g class="shapelayer"/></g><g class="infolayer"><g class="g-gtitle"><text class="gtitle" x="35" y="50" text-anchor="start" dy="0em" style="opacity: 1; font-family: 'Open Sans'; font-size: 25px; fill: rgb(255, 255, 255); fill-opacity: 1; white-space: pre;">MultiQC/MultiQC - Pull Requests Created Over Time</text></g><g class="g-xtitle"><text class="xtitle" x="350" y="472.9" text-anchor="middle" style="opacity: 1; font-family: 'Open Sans'; font-size: 22px; fill: rgb(255, 255, 255); fill-opacity: 1; white-space: pre;">Date</text></g><g class="g-ytitle"><text class="ytitle" transform="rotate(-90,20.799999999999997,260)" x="20.799999999999997" y="260" text-anchor="middle" style="opacity: 1; font-family: 'Open Sans'; font-size: 22px; fill: rgb(255, 255, 255); fill-opacity: 1; white-space: pre;">Cumulative PRs Created</text></g></g></svg>