<svg class="main-svg" xmlns="http://www.w3.org/2000/svg" xmlns:xlink="http://www.w3.org/1999/xlink" width="700" height="500" style="" viewBox="0 0 700 500"><rect x="0" y="0" width="700" height="500" style="fill: rgb(0, 0, 0); fill-opacity: 0;"/><defs id="defs-b9e8c1"><g class="clips"><clipPath id="clipb9e8c1xyplot" class="plotclip"><rect width="540" height="320"/></clipPath><clipPath class="axesclip" id="clipb9e8c1x"><rect x="80" y="0" width="540" height="500"/></clipPath><clipPath class="axesclip" id="clipb9e8c1y"><rect x="0" y="100" width="700" height="320"/></clipPath><clipPath class="axesclip" id="clipb9e8c1xy"><rect x="80" y="100" width="540" height="320"/></clipPath></g><g class="gradients"/><g class="patterns"/></defs><g class="bglayer"><rect class="bg" x="80" y="100" width="540" height="320" style="fill: rgb(0, 0, 0); fill-opacity: 0; stroke-width: 0;"/></g><g class="layer-below"><g class="imagelayer"/><g class="shapelayer"/></g><g class="cartesianlayer"><g class="subplot xy"><g class="layer-subplot"><g class="shapelayer"/><g class="imagelayer"/></g><g class="minor-gridlayer"><g class="x"/><g class="y"/></g><g class="gridlayer"><g class="x"><path class="xgrid crisp" transform="translate(96.74,0)" d="M0,100v320" style="stroke: rgb(255, 255, 255); stroke-opacity: 1; stroke-width: 1px;"/><path class="xgrid crisp" transform="translate(199.25,0)" d="M0,100v320" style="stroke: rgb(255, 255, 255); stroke-opacity: 1; stroke-width: 1px;"/><path class="xgrid crisp" transform="translate(301.62,0)" d="M0,100v320" style="stroke: rgb(255, 255, 255); stroke-opacity: 1; stroke-width: 1px;"/><path class="xgrid crisp" transform="translate(404.12,0)" d="M0,100v320" style="stroke: rgb(255, 255, 255); stroke-opacity: 1; stroke-width: 1px;"/><path class="xgrid crisp" transform="translate(506.49,0)" d="M0,100v320" style="stroke: rgb(255, 255, 255); stroke-opacity: 1; stroke-width: 1px;"/><path class="xgrid crisp" transform="translate(609,0)" d="M0,100v320" style="stroke: rgb(255, 255, 255); stroke-opacity: 1; stroke-width: 1px;"/></g><g class="y"><path class="ygrid crisp" transform="translate(0,362.64)" d="M80,0h540" style="stroke: rgb(255, 255, 255); stroke-opacity: 1; stroke-width: 1px;"/><path class="ygrid crisp" transform="translate(0,305.28)" d="M80,0h540" style="stroke: rgb(255, 255, 255); stroke-opacity: 1; stroke-width: 1px;"/><path class="ygrid crisp" transform="translate(0,247.92)" d="M80,0h540" style="stroke: rgb(255, 255, 255); stroke-opacity: 1; stroke-width: 1px;"/><path class="ygrid crisp" transform="translate(0,190.57)" d="M80,0h540" style="stroke: rgb(255, 255, 255); stroke-opacity: 1; stroke-width: 1px;"/><path class="ygrid crisp" transform="translate(0,133.21)" d="M80,0h540" style="stroke: rgb(255, 255, 255); stroke-opacity: 1; stroke-width: 1px;"/></g></g><g class="zerolinelayer"><path class="yzl zl crisp" transform="translate(0,420)" d="M80,0h540" style="stroke: rgb(255, 255, 255); stroke-opacity: 1; stroke-width: 2px;"/></g><g class="layer-between"><g class="shapelayer"/><g class="imagelayer"/></g><path class="xlines-below"/><path class="ylines-below"/><g class="overlines-below"/><g class="xaxislayer-below"/><g class="yaxislayer-below"/><g class="overaxes-below"/><g class="overplot"><g class="xy" transform="translate(80,100)" clip-path="url(#clipb9e8c1xyplot)"><g class="scatterlayer mlayer"><g class="trace scatter tracef156dd" style="stroke-miterlimit: 2;"><g class="fills"><g><path class="js-fill" d="M540,320L0,320L0,317.13L0.1,320L1.02,317.13L1.69,320L1.8,317.13L1.8,320L3.04,317.13L3.78,320L4.64,317.13L4.64,320L4.73,320L5.46,317.13L5.46,320L6.04,320L6.87,317.13L6.87,320L7.44,320L8.96,317.13L8.96,320L9.59,317.13L9.8,320L11.49,317.13L11.49,320L14.3,317.13L14.3,320L21.6,317.13L21.6,320L21.79,317.13L21.79,320L23.38,317.13L23.38,314.26L23.52,317.13L24.65,320L26.34,317.13L26.34,320L27.64,314.26L27.64,317.13L27.64,320L30.43,317.13L30.43,320L30.57,320L31.8,317.13L31.8,320L32.39,320L33.27,317.13L33.28,320L34.04,317.13L34.04,320L34.78,317.13L34.87,320L37.44,314.26L37.87,317.13L37.99,314.26L37.99,317.13L39.27,320L39.98,317.13L39.98,320L41.67,317.13L41.67,320L42.74,317.13L42.91,320L43.22,308.53L43.33,311.4L43.85,314.26L44.29,317.13L44.72,314.26L44.73,317.13L45.97,314.26L49.78,311.4L49.78,314.26L50.07,317.13L50.85,314.26L51.75,320L53.14,317.13L53.54,320L56.64,317.13L56.64,320L56.64,317.13L58.12,314.26L58.44,317.13L59.22,314.26L59.98,311.4L60.01,314.26L60.02,311.4L60.58,320L62.4,317.13L62.7,320L63.37,317.13L63.52,314.26L64.48,317.13L64.65,311.4L64.78,314.26L65.6,317.13L65.9,314.26L65.9,317.13L66.45,314.26L66.52,308.53L66.63,320L66.71,320L67.29,317.13L68.13,314.26L68.13,317.13L68.86,311.4L68.86,314.26L69.55,311.4L74.02,308.53L74.48,305.66L76.15,320L77.13,317.13L77.13,320L78.09,317.13L79.28,314.26L79.33,317.13L80.38,311.4L80.79,308.53L81.29,305.66L81.29,308.53L81.31,311.4L82.44,305.66L82.46,308.53L83.28,305.66L83.28,308.53L83.56,311.4L84.13,308.53L84.13,311.4L84.13,308.53L85.92,311.4L86.1,308.53L86.1,311.4L86.98,308.53L87.22,311.4L87.93,308.53L88.38,305.66L89.14,308.53L89.85,305.66L90.14,308.53L92.38,305.66L92.38,308.53L92.96,305.66L92.98,308.53L94.35,311.4L94.85,308.53L95.05,311.4L95.19,308.53L95.19,311.4L96.19,308.53L96.2,291.32L96.89,305.66L97.16,308.53L97.17,311.4L97.32,305.66L97.72,305.66L98.3,302.79L99,305.66L99.18,302.79L99.7,297.06L99.86,302.79L99.95,305.66L100.57,294.19L100.69,299.92L101.64,302.79L102.07,294.19L102.07,294.19L102.6,297.06L103.63,282.72L104.58,279.85L105.59,282.72L105.87,279.85L105.99,285.58L106.58,285.58L106.7,282.72L107,294.19L107.13,291.32L107.77,288.45L108.26,276.98L108.27,279.85L108.65,282.72L108.68,285.58L109.52,282.72L109.65,279.85L109.66,282.72L110.93,285.58L111.05,297.06L111.62,294.19L111.63,291.32L111.64,297.06L112.72,294.19L112.72,297.06L114.85,294.19L114.85,291.32L114.85,297.06L116.81,294.19L116.82,297.06L116.82,294.19L117.87,297.06L117.93,294.19L119.75,291.32L120.57,297.06L120.58,294.19L120.73,297.06L120.89,294.19L120.9,297.06L121.71,294.19L122.03,297.06L122.72,294.19L122.75,297.06L124.36,294.19L124.39,297.06L126.21,294.19L126.31,297.06L126.7,294.19L127.17,291.32L127.3,294.19L128.17,291.32L128.18,294.19L128.58,282.72L128.72,282.72L129.11,279.85L129.45,294.19L129.45,294.19L130.42,291.32L130.53,297.06L130.71,297.06L131.4,294.19L132.36,291.32L132.48,288.45L133.03,291.32L133.21,288.45L133.32,285.58L134.03,279.85L134.06,282.72L134.37,279.85L134.58,282.72L135.02,279.85L135.03,276.98L135.04,268.38L135.18,285.58L136.43,282.72L136.54,279.85L136.56,282.72L137.97,279.85L138.73,291.32L139.93,288.45L140.33,291.32L141.91,288.45L142.98,285.58L142.98,288.45L144.28,279.85L144.29,282.72L144.54,285.58L144.56,288.45L144.96,282.72L144.96,285.58L145.28,282.72L145.28,285.58L146.26,288.45L146.43,294.19L147.13,291.32L147.22,288.45L148.8,285.58L149.33,276.98L149.34,282.72L149.34,285.58L149.39,291.32L151.17,288.45L151.26,291.32L151.3,288.45L152.87,285.58L152.88,288.45L154.22,285.58L154.22,288.45L154.64,285.58L155.09,282.72L155.77,279.85L155.8,282.72L158.61,285.58L161.61,279.85L162.33,276.98L163.1,279.85L163.79,276.98L163.8,279.85L166.44,276.98L166.89,279.85L167.49,276.98L168.69,274.11L168.93,276.98L168.93,274.11L168.97,297.06L168.97,294.19L171.33,291.32L171.34,294.19L173.65,297.06L174.73,294.19L174.73,297.06L175.35,294.19L175.38,297.06L177.56,294.19L177.71,291.32L179.08,294.19L179.09,297.06L179.67,274.11L179.78,285.58L181.28,282.72L181.61,274.11L183.24,271.25L183.74,268.38L183.75,271.25L185.92,268.38L186.39,271.25L187.7,268.38L188,271.25L188.29,268.38L190.45,265.51L193.39,262.64L193.49,265.51L194.38,262.64L195.07,265.51L195.1,259.77L195.32,262.64L196.19,265.51L196.45,276.98L197.26,279.85L197.34,282.72L197.43,276.98L200.82,274.11L201.37,276.98L202.05,274.11L202.19,271.25L204.31,268.38L207.23,265.51L208.78,262.64L208.8,259.77L210.1,256.91L210.88,259.77L210.89,256.91L211.19,276.98L211.2,274.11L212.16,276.98L212.58,279.85L212.59,276.98L213.72,279.85L214.18,285.58L214.54,282.72L214.56,285.58L215.08,276.98L215.12,282.72L215.68,285.58L215.71,288.45L216.6,285.58L217.76,282.72L217.78,285.58L219.73,279.85L220.01,276.98L222.34,274.11L223.44,276.98L225.01,274.11L225.48,271.25L227.75,265.51L227.76,268.38L228.6,259.77L230.41,256.91L230.69,248.3L231.21,245.43L232.26,239.7L232.31,242.57L234.52,222.49L234.6,225.36L234.6,228.23L234.76,219.62L235.34,222.49L235.45,219.62L236.72,216.75L236.87,213.89L237.13,225.36L237.13,228.23L237.3,242.57L237.57,236.83L238.06,233.96L239.1,282.72L239.33,279.85L239.51,276.98L239.52,274.11L240.11,282.72L240.2,279.85L240.39,276.98L241.3,285.58L241.31,282.72L241.31,279.85L242.04,291.32L242.29,288.45L242.29,291.32L242.48,279.85L243.02,288.45L243.26,285.58L243.41,288.45L243.56,285.58L244.24,282.72L244.28,279.85L245.08,282.72L245.57,276.98L246.2,274.11L247.05,268.38L247.05,271.25L247.9,265.51L247.9,268.38L249.35,259.77L250.28,262.64L253.87,259.77L253.96,256.91L254.21,254.04L254.51,256.91L256.08,254.04L257.01,248.3L257.36,245.43L257.74,242.57L259.3,239.7L259.74,231.09L259.94,239.7L259.94,242.57L261.14,228.23L263.18,225.36L263.25,219.62L264.26,216.75L265.88,211.02L265.91,213.89L265.93,233.96L266.55,222.49L266.83,219.62L266.83,222.49L266.97,219.62L269.07,216.75L270.74,213.89L270.93,211.02L272.66,208.15L272.66,211.02L272.66,208.15L272.66,211.02L273.61,208.15L273.8,205.28L274.46,208.15L275.4,219.62L275.6,222.49L277.12,219.62L277.64,222.49L279,216.75L279.69,213.89L279.69,216.75L280.47,213.89L280.58,208.15L281.71,211.02L282.27,245.43L284.79,242.57L285.27,245.43L285.66,242.57L285.67,245.43L288.45,242.57L289.14,248.3L289.18,245.43L289.28,242.57L289.54,245.43L290.21,248.3L290.39,242.57L290.39,245.43L292.71,242.57L293.5,236.83L295.49,233.96L296.01,228.23L296.15,225.36L296.16,222.49L296.21,236.83L296.56,231.09L297.01,233.96L297.47,239.7L297.7,236.83L297.95,233.96L298.74,271.25L298.96,268.38L299.93,259.77L300.54,256.91L301.53,242.57L302.48,239.7L303.46,233.96L303.52,231.09L304.95,219.62L304.97,216.75L305.29,196.68L307.45,193.81L309.33,190.94L309.33,188.08L312.67,190.94L312.74,188.08L313.99,185.21L314.4,182.34L316.38,170.87L316.38,168L316.52,162.26L316.91,222.49L317.21,219.62L317.65,216.75L317.67,225.36L317.91,222.49L318.06,219.62L319.07,205.28L319.19,208.15L321.5,205.28L321.99,202.42L322.28,205.28L323.22,202.42L323.61,205.28L324.75,202.42L326.18,205.28L326.21,213.89L326.85,211.02L327.55,213.89L327.98,231.09L328.4,233.96L328.53,231.09L328.83,239.7L329.03,236.83L329.41,239.7L329.96,236.83L330.77,228.23L331.65,225.36L331.87,219.62L332.5,216.75L333.34,222.49L333.75,219.62L333.75,222.49L334.45,219.62L334.72,222.49L334.72,228.23L335.28,225.36L336.59,222.49L336.8,216.75L337.23,225.36L337.25,225.36L337.25,228.23L337.88,222.49L338.1,219.62L338.87,213.89L338.89,216.75L341.92,213.89L342.3,216.75L343.66,213.89L344.1,211.02L344.1,213.89L344.85,216.75L345.12,213.89L345.2,219.62L345.94,216.75L347.04,208.15L347.04,211.02L347.47,205.28L348.03,202.42L348.46,208.15L348.48,202.42L349,205.28L349,202.42L349.58,205.28L350.29,202.42L350.43,205.28L351.1,202.42L352.24,196.68L352.25,193.81L352.3,199.55L353.07,196.68L353.12,193.81L353.93,190.94L355.02,188.08L355.11,185.21L355.81,173.74L356.17,170.87L356.28,173.74L357.97,170.87L358.25,168L359.31,165.13L359.46,190.94L359.57,190.94L361.02,188.08L361.94,185.21L361.95,188.08L363.76,185.21L363.76,188.08L364.18,185.21L366.57,182.34L366.57,185.21L367.23,185.21L367.82,182.34L368.56,170.87L368.63,173.74L369.79,170.87L369.89,165.13L370.33,182.34L370.69,179.47L370.91,182.34L371.86,179.47L372.68,168L372.89,165.13L373.46,179.47L373.57,170.87L373.76,168L374.46,185.21L374.69,182.34L375.51,211.02L375.59,208.15L376.29,225.36L376.66,222.49L377.44,225.36L379.85,222.49L380.46,213.89L380.48,216.75L380.72,219.62L384.22,216.75L384.24,219.62L384.94,213.89L385.83,216.75L386.94,213.89L387.85,211.02L387.85,213.89L389.67,211.02L389.81,205.28L390.81,208.15L391.36,199.55L391.36,196.68L391.37,188.08L395.06,190.94L396.13,179.47L398.21,176.6L398.7,170.87L398.7,173.74L398.71,176.6L400.76,170.87L401.21,168L403.94,162.26L404.13,159.4L404.69,156.53L404.69,159.4L404.86,162.26L405.45,176.6L405.58,173.74L406.18,170.87L406.22,173.74L406.54,159.4L406.94,156.53L407.12,147.92L407.31,159.4L407.32,162.26L407.32,165.13L408.07,150.79L408.21,147.92L408.95,168L409,165.13L409.3,162.26L409.31,173.74L409.75,165.13L409.78,168L409.88,173.74L410.19,168L410.85,165.13L410.92,162.26L411.34,179.47L411.34,176.6L411.74,173.74L412.24,153.66L412.42,185.21L412.73,182.34L413.16,165.13L413.31,179.47L413.31,182.34L413.36,185.21L413.92,176.6L413.95,179.47L414.55,176.6L414.69,185.21L415.25,170.87L415.32,168L415.38,170.87L415.75,153.66L415.75,150.79L415.79,142.19L415.92,190.94L416.23,179.47L416.64,176.6L417.05,170.87L417.28,179.47L417.32,176.6L417.72,173.74L418.36,182.34L418.7,185.21L419,188.08L419.32,176.6L419.68,179.47L419.83,193.81L420.29,190.94L420.69,188.08L421.34,202.42L421.93,199.55L421.93,202.42L422.67,182.34L422.9,179.47L423.61,185.21L423.61,188.08L423.75,196.68L424.05,176.6L424.21,182.34L424.38,185.21L424.59,182.34L424.76,190.94L425.9,188.08L426.04,193.81L426.2,188.08L426.85,185.21L427.01,188.08L427.19,182.34L427.52,179.47L427.56,188.08L427.95,182.34L428.64,179.47L429.15,176.6L429.15,179.47L429.15,182.34L429.67,176.6L429.67,173.74L429.68,170.87L429.72,182.34L429.85,173.74L430.69,170.87L430.92,162.26L431.04,173.74L431.12,176.6L431.82,199.55L432.08,193.81L432.08,190.94L432.44,188.08L432.44,193.81L432.44,196.68L432.44,193.81L432.44,202.42L433.03,199.55L433.26,196.68L433.5,199.55L433.74,188.08L433.87,190.94L433.88,188.08L434.43,208.15L434.63,193.81L434.68,190.94L434.68,188.08L434.7,208.15L435.39,193.81L435.54,190.94L435.67,196.68L436.01,182.34L436.27,185.21L436.8,211.02L436.96,208.15L437.38,211.02L437.81,196.68L438.09,199.55L438.34,196.68L438.34,199.55L438.78,193.81L438.78,193.81L439.88,190.94L440.47,185.21L440.47,188.08L441.27,185.21L441.31,182.34L441.34,205.28L441.74,202.42L442.28,205.28L442.39,208.15L442.55,193.81L442.56,190.94L442.97,185.21L443.01,190.94L443.21,193.81L443.24,190.94L443.95,211.02L443.95,208.15L444.24,211.02L444.55,202.42L444.82,208.15L445.13,211.02L445.49,213.89L445.82,202.42L445.82,205.28L446.21,202.42L447.28,193.81L447.61,196.68L447.63,193.81L447.77,205.28L448.19,205.28L448.48,202.42L448.5,205.28L448.76,199.55L449.01,205.28L449.3,202.42L449.61,213.89L449.86,208.15L450.17,211.02L450.83,205.28L450.83,208.15L451.07,205.28L451.24,196.68L451.25,208.15L451.43,202.42L452.12,205.28L452.5,202.42L452.66,213.89L453.06,211.02L453.35,208.15L453.37,213.89L453.64,211.02L453.93,208.15L454.59,205.28L454.59,208.15L454.75,211.02L454.77,208.15L454.91,222.49L455.29,219.62L455.43,222.49L455.58,213.89L456.18,219.62L456.28,222.49L456.98,208.15L456.99,219.62L456.99,222.49L457.01,219.62L457.13,225.36L457.71,222.49L457.96,219.62L457.96,225.36L458.7,222.49L458.81,225.36L458.83,231.09L459.53,225.36L460.35,222.49L460.48,225.36L461.13,222.49L461.27,216.75L461.33,231.09L461.36,231.09L461.36,233.96L462.05,222.49L462.06,231.09L462.06,233.96L462.74,228.23L462.77,231.09L462.85,233.96L463.17,225.36L463.17,228.23L463.72,225.36L463.72,228.23L464.44,216.75L464.46,219.62L464.72,222.49L465.04,228.23L465.25,219.62L465.86,216.75L466.13,222.49L466.15,219.62L467.09,216.75L467.09,219.62L467.68,213.89L467.83,213.89L468.34,211.02L468.79,205.28L469.06,211.02L469.19,208.15L469.2,205.28L470.1,208.15L470.72,205.28L471.01,216.75L471.05,213.89L471.75,222.49L471.99,219.62L472,216.75L472,219.62L472.71,205.28L472.72,216.75L472.76,213.89L473.67,211.02L473.67,213.89L474.23,208.15L474.25,205.28L474.27,213.89L475,213.89L475.01,216.75L475.08,225.36L475.72,219.62L475.78,222.49L475.81,216.75L476.34,233.96L477.11,231.09L477.5,233.96L477.53,231.09L478.17,228.23L478.72,233.96L479.48,231.09L479.92,225.36L480.32,228.23L480.4,231.09L480.75,225.36L480.81,231.09L480.83,233.96L481.58,228.23L481.58,231.09L481.68,228.23L482.01,222.49L482.01,225.36L482.69,228.23L482.82,222.49L483.3,228.23L484.16,225.36L485.01,222.49L485.01,225.36L485.01,222.49L485.05,228.23L485.6,228.23L486.47,225.36L486.58,219.62L486.59,228.23L486.73,222.49L487.56,225.36L488.14,213.89L488.46,211.02L488.97,213.89L489.15,211.02L489.15,208.15L489.78,196.68L489.79,213.89L489.88,211.02L490.12,208.15L490.4,205.28L490.41,211.02L490.41,213.89L491,211.02L491.23,213.89L491.35,211.02L491.66,219.62L492.3,222.49L492.77,216.75L492.89,222.49L492.9,225.36L492.9,222.49L493.28,231.09L493.57,231.09L493.72,228.23L494.33,225.36L494.41,228.23L494.43,231.09L494.63,222.49L494.77,225.36L495.41,222.49L496.25,231.09L496.29,228.23L496.53,231.09L496.96,225.36L497.22,228.23L497.55,219.62L497.63,225.36L498.4,222.49L498.78,228.23L498.85,219.62L499.2,216.75L499.76,211.02L499.88,225.36L499.9,225.36L500.23,222.49L501.8,208.15L502.2,211.02L502.2,213.89L503.15,211.02L503.4,216.75L503.84,205.28L503.89,213.89L503.97,211.02L504.38,213.89L504.68,211.02L506.07,208.15L507.23,196.68L507.33,199.55L507.33,202.42L507.33,205.28L507.5,196.68L507.54,196.68L509.74,199.55L510.12,193.81L510.43,216.75L510.54,213.89L510.55,216.75L511.26,211.02L511.27,208.15L511.54,213.89L511.56,211.02L512.12,208.15L512.25,196.68L512.52,205.28L512.95,208.15L513.53,196.68L513.96,193.81L514.09,196.68L514.25,190.94L514.25,196.68L516.14,193.81L516.14,196.68L517.91,193.81L519.3,182.34L519.46,179.47L519.51,173.74L519.52,182.34L519.97,179.47L520.3,176.6L521.81,170.87L522.05,168L522.05,170.87L522.53,162.26L523.67,159.4L524.32,147.92L524.33,145.06L524.33,147.92L524.91,130.72L525.01,130.72L525.28,127.85L525.28,130.72L525.72,116.38L526.01,116.38L526.12,113.51L526.12,116.38L526.86,107.77L526.95,110.64L527.7,96.3L529.99,93.43L531.24,73.36L532.18,70.49L533.87,64.75L535.66,61.89L536.59,47.55L536.91,44.68L537.24,38.94L537.79,36.08L537.81,38.94L538.25,27.47L538.89,24.6L538.89,27.47L539.16,24.6L539.66,21.74L540,16" style="fill: rgb(44, 160, 44); fill-opacity: 0.5; stroke-width: 0;"/></g></g><g class="errorbars"/><g class="lines"><path class="js-line" d="M0,317.13L0.1,320L1.02,317.13L1.69,320L1.8,317.13L1.8,320L3.04,317.13L3.78,320L4.64,317.13L4.64,320L4.73,320L5.46,317.13L5.46,320L6.04,320L6.87,317.13L6.87,320L7.44,320L8.96,317.13L8.96,320L9.59,317.13L9.8,320L11.49,317.13L11.49,320L14.3,317.13L14.3,320L21.6,317.13L21.6,320L21.79,317.13L21.79,320L23.38,317.13L23.38,314.26L23.52,317.13L24.65,320L26.34,317.13L26.34,320L27.64,314.26L27.64,317.13L27.64,320L30.43,317.13L30.43,320L30.57,320L31.8,317.13L31.8,320L32.39,320L33.27,317.13L33.28,320L34.04,317.13L34.04,320L34.78,317.13L34.87,320L37.44,314.26L37.87,317.13L37.99,314.26L37.99,317.13L39.27,320L39.98,317.13L39.98,320L41.67,317.13L41.67,320L42.74,317.13L42.91,320L43.22,308.53L43.33,311.4L43.85,314.26L44.29,317.13L44.72,314.26L44.73,317.13L45.97,314.26L49.78,311.4L49.78,314.26L50.07,317.13L50.85,314.26L51.75,320L53.14,317.13L53.54,320L56.64,317.13L56.64,320L56.64,317.13L58.12,314.26L58.44,317.13L59.22,314.26L59.98,311.4L60.01,314.26L60.02,311.4L60.58,320L62.4,317.13L62.7,320L63.37,317.13L63.52,314.26L64.48,317.13L64.65,311.4L64.78,314.26L65.6,317.13L65.9,314.26L65.9,317.13L66.45,314.26L66.52,308.53L66.63,320L66.71,320L67.29,317.13L68.13,314.26L68.13,317.13L68.86,311.4L68.86,314.26L69.55,311.4L74.02,308.53L74.48,305.66L76.15,320L77.13,317.13L77.13,320L78.09,317.13L79.28,314.26L79.33,317.13L80.38,311.4L80.79,308.53L81.29,305.66L81.29,308.53L81.31,311.4L82.44,305.66L82.46,308.53L83.28,305.66L83.28,308.53L83.56,311.4L84.13,308.53L84.13,311.4L84.13,308.53L85.92,311.4L86.1,308.53L86.1,311.4L86.98,308.53L87.22,311.4L87.93,308.53L88.38,305.66L89.14,308.53L89.85,305.66L90.14,308.53L92.38,305.66L92.38,308.53L92.96,305.66L92.98,308.53L94.35,311.4L94.85,308.53L95.05,311.4L95.19,308.53L95.19,311.4L96.19,308.53L96.2,291.32L96.89,305.66L97.16,308.53L97.17,311.4L97.32,305.66L97.72,305.66L98.3,302.79L99,305.66L99.18,302.79L99.7,297.06L99.86,302.79L99.95,305.66L100.57,294.19L100.69,299.92L101.64,302.79L102.07,294.19L102.07,294.19L102.6,297.06L103.63,282.72L104.58,279.85L105.59,282.72L105.87,279.85L105.99,285.58L106.58,285.58L106.7,282.72L107,294.19L107.13,291.32L107.77,288.45L108.26,276.98L108.27,279.85L108.65,282.72L108.68,285.58L109.52,282.72L109.65,279.85L109.66,282.72L110.93,285.58L111.05,297.06L111.62,294.19L111.63,291.32L111.64,297.06L112.72,294.19L112.72,297.06L114.85,294.19L114.85,291.32L114.85,297.06L116.81,294.19L116.82,297.06L116.82,294.19L117.87,297.06L117.93,294.19L119.75,291.32L120.57,297.06L120.58,294.19L120.73,297.06L120.89,294.19L120.9,297.06L121.71,294.19L122.03,297.06L122.72,294.19L122.75,297.06L124.36,294.19L124.39,297.06L126.21,294.19L126.31,297.06L126.7,294.19L127.17,291.32L127.3,294.19L128.17,291.32L128.18,294.19L128.58,282.72L128.72,282.72L129.11,279.85L129.45,294.19L129.45,294.19L130.42,291.32L130.53,297.06L130.71,297.06L131.4,294.19L132.36,291.32L132.48,288.45L133.03,291.32L133.21,288.45L133.32,285.58L134.03,279.85L134.06,282.72L134.37,279.85L134.58,282.72L135.02,279.85L135.03,276.98L135.04,268.38L135.18,285.58L136.43,282.72L136.54,279.85L136.56,282.72L137.97,279.85L138.73,291.32L139.93,288.45L140.33,291.32L141.91,288.45L142.98,285.58L142.98,288.45L144.28,279.85L144.29,282.72L144.54,285.58L144.56,288.45L144.96,282.72L144.96,285.58L145.28,282.72L145.28,285.58L146.26,288.45L146.43,294.19L147.13,291.32L147.22,288.45L148.8,285.58L149.33,276.98L149.34,282.72L149.34,285.58L149.39,291.32L151.17,288.45L151.26,291.32L151.3,288.45L152.87,285.58L152.88,288.45L154.22,285.58L154.22,288.45L154.64,285.58L155.09,282.72L155.77,279.85L155.8,282.72L158.61,285.58L161.61,279.85L162.33,276.98L163.1,279.85L163.79,276.98L163.8,279.85L166.44,276.98L166.89,279.85L167.49,276.98L168.69,274.11L168.93,276.98L168.93,274.11L168.97,297.06L168.97,294.19L171.33,291.32L171.34,294.19L173.65,297.06L174.73,294.19L174.73,297.06L175.35,294.19L175.38,297.06L177.56,294.19L177.71,291.32L179.08,294.19L179.09,297.06L179.67,274.11L179.78,285.58L181.28,282.72L181.61,274.11L183.24,271.25L183.74,268.38L183.75,271.25L185.92,268.38L186.39,271.25L187.7,268.38L188,271.25L188.29,268.38L190.45,265.51L193.39,262.64L193.49,265.51L194.38,262.64L195.07,265.51L195.1,259.77L195.32,262.64L196.19,265.51L196.45,276.98L197.26,279.85L197.34,282.72L197.43,276.98L200.82,274.11L201.37,276.98L202.05,274.11L202.19,271.25L204.31,268.38L207.23,265.51L208.78,262.64L208.8,259.77L210.1,256.91L210.88,259.77L210.89,256.91L211.19,276.98L211.2,274.11L212.16,276.98L212.58,279.85L212.59,276.98L213.72,279.85L214.18,285.58L214.54,282.72L214.56,285.58L215.08,276.98L215.12,282.72L215.68,285.58L215.71,288.45L216.6,285.58L217.76,282.72L217.78,285.58L219.73,279.85L220.01,276.98L222.34,274.11L223.44,276.98L225.01,274.11L225.48,271.25L227.75,265.51L227.76,268.38L228.6,259.77L230.41,256.91L230.69,248.3L231.21,245.43L232.26,239.7L232.31,242.57L234.52,222.49L234.6,225.36L234.6,228.23L234.76,219.62L235.34,222.49L235.45,219.62L236.72,216.75L236.87,213.89L237.13,225.36L237.13,228.23L237.3,242.57L237.57,236.83L238.06,233.96L239.1,282.72L239.33,279.85L239.51,276.98L239.52,274.11L240.11,282.72L240.2,279.85L240.39,276.98L241.3,285.58L241.31,282.72L241.31,279.85L242.04,291.32L242.29,288.45L242.29,291.32L242.48,279.85L243.02,288.45L243.26,285.58L243.41,288.45L243.56,285.58L244.24,282.72L244.28,279.85L245.08,282.72L245.57,276.98L246.2,274.11L247.05,268.38L247.05,271.25L247.9,265.51L247.9,268.38L249.35,259.77L250.28,262.64L253.87,259.77L253.96,256.91L254.21,254.04L254.51,256.91L256.08,254.04L257.01,248.3L257.36,245.43L257.74,242.57L259.3,239.7L259.74,231.09L259.94,239.7L259.94,242.57L261.14,228.23L263.18,225.36L263.25,219.62L264.26,216.75L265.88,211.02L265.91,213.89L265.93,233.96L266.55,222.49L266.83,219.62L266.83,222.49L266.97,219.62L269.07,216.75L270.74,213.89L270.93,211.02L272.66,208.15L272.66,211.02L272.66,208.15L272.66,211.02L273.61,208.15L273.8,205.28L274.46,208.15L275.4,219.62L275.6,222.49L277.12,219.62L277.64,222.49L279,216.75L279.69,213.89L279.69,216.75L280.47,213.89L280.58,208.15L281.71,211.02L282.27,245.43L284.79,242.57L285.27,245.43L285.66,242.57L285.67,245.43L288.45,242.57L289.14,248.3L289.18,245.43L289.28,242.57L289.54,245.43L290.21,248.3L290.39,242.57L290.39,245.43L292.71,242.57L293.5,236.83L295.49,233.96L296.01,228.23L296.15,225.36L296.16,222.49L296.21,236.83L296.56,231.09L297.01,233.96L297.47,239.7L297.7,236.83L297.95,233.96L298.74,271.25L298.96,268.38L299.93,259.77L300.54,256.91L301.53,242.57L302.48,239.7L303.46,233.96L303.52,231.09L304.95,219.62L304.97,216.75L305.29,196.68L307.45,193.81L309.33,190.94L309.33,188.08L312.67,190.94L312.74,188.08L313.99,185.21L314.4,182.34L316.38,170.87L316.38,168L316.52,162.26L316.91,222.49L317.21,219.62L317.65,216.75L317.67,225.36L317.91,222.49L318.06,219.62L319.07,205.28L319.19,208.15L321.5,205.28L321.99,202.42L322.28,205.28L323.22,202.42L323.61,205.28L324.75,202.42L326.18,205.28L326.21,213.89L326.85,211.02L327.55,213.89L327.98,231.09L328.4,233.96L328.53,231.09L328.83,239.7L329.03,236.83L329.41,239.7L329.96,236.83L330.77,228.23L331.65,225.36L331.87,219.62L332.5,216.75L333.34,222.49L333.75,219.62L333.75,222.49L334.45,219.62L334.72,222.49L334.72,228.23L335.28,225.36L336.59,222.49L336.8,216.75L337.23,225.36L337.25,225.36L337.25,228.23L337.88,222.49L338.1,219.62L338.87,213.89L338.89,216.75L341.92,213.89L342.3,216.75L343.66,213.89L344.1,211.02L344.1,213.89L344.85,216.75L345.12,213.89L345.2,219.62L345.94,216.75L347.04,208.15L347.04,211.02L347.47,205.28L348.03,202.42L348.46,208.15L348.48,202.42L349,205.28L349,202.42L349.58,205.28L350.29,202.42L350.43,205.28L351.1,202.42L352.24,196.68L352.25,193.81L352.3,199.55L353.07,196.68L353.12,193.81L353.93,190.94L355.02,188.08L355.11,185.21L355.81,173.74L356.17,170.87L356.28,173.74L357.97,170.87L358.25,168L359.31,165.13L359.46,190.94L359.57,190.94L361.02,188.08L361.94,185.21L361.95,188.08L363.76,185.21L363.76,188.08L364.18,185.21L366.57,182.34L366.57,185.21L367.23,185.21L367.82,182.34L368.56,170.87L368.63,173.74L369.79,170.87L369.89,165.13L370.33,182.34L370.69,179.47L370.91,182.34L371.86,179.47L372.68,168L372.89,165.13L373.46,179.47L373.57,170.87L373.76,168L374.46,185.21L374.69,182.34L375.51,211.02L375.59,208.15L376.29,225.36L376.66,222.49L377.44,225.36L379.85,222.49L380.46,213.89L380.48,216.75L380.72,219.62L384.22,216.75L384.24,219.62L384.94,213.89L385.83,216.75L386.94,213.89L387.85,211.02L387.85,213.89L389.67,211.02L389.81,205.28L390.81,208.15L391.36,199.55L391.36,196.68L391.37,188.08L395.06,190.94L396.13,179.47L398.21,176.6L398.7,170.87L398.7,173.74L398.71,176.6L400.76,170.87L401.21,168L403.94,162.26L404.13,159.4L404.69,156.53L404.69,159.4L404.86,162.26L405.45,176.6L405.58,173.74L406.18,170.87L406.22,173.74L406.54,159.4L406.94,156.53L407.12,147.92L407.31,159.4L407.32,162.26L407.32,165.13L408.07,150.79L408.21,147.92L408.95,168L409,165.13L409.3,162.26L409.31,173.74L409.75,165.13L409.78,168L409.88,173.74L410.19,168L410.85,165.13L410.92,162.26L411.34,179.47L411.34,176.6L411.74,173.74L412.24,153.66L412.42,185.21L412.73,182.34L413.16,165.13L413.31,179.47L413.31,182.34L413.36,185.21L413.92,176.6L413.95,179.47L414.55,176.6L414.69,185.21L415.25,170.87L415.32,168L415.38,170.87L415.75,153.66L415.75,150.79L415.79,142.19L415.92,190.94L416.23,179.47L416.64,176.6L417.05,170.87L417.28,179.47L417.32,176.6L417.72,173.74L418.36,182.34L418.7,185.21L419,188.08L419.32,176.6L419.68,179.47L419.83,193.81L420.29,190.94L420.69,188.08L421.34,202.42L421.93,199.55L421.93,202.42L422.67,182.34L422.9,179.47L423.61,185.21L423.61,188.08L423.75,196.68L424.05,176.6L424.21,182.34L424.38,185.21L424.59,182.34L424.76,190.94L425.9,188.08L426.04,193.81L426.2,188.08L426.85,185.21L427.01,188.08L427.19,182.34L427.52,179.47L427.56,188.08L427.95,182.34L428.64,179.47L429.15,176.6L429.15,179.47L429.15,182.34L429.67,176.6L429.67,173.74L429.68,170.87L429.72,182.34L429.85,173.74L430.69,170.87L430.92,162.26L431.04,173.74L431.12,176.6L431.82,199.55L432.08,193.81L432.08,190.94L432.44,188.08L432.44,193.81L432.44,196.68L432.44,193.81L432.44,202.42L433.03,199.55L433.26,196.68L433.5,199.55L433.74,188.08L433.87,190.94L433.88,188.08L434.43,208.15L434.63,193.81L434.68,190.94L434.68,188.08L434.7,208.15L435.39,193.81L435.54,190.94L435.67,196.68L436.01,182.34L436.27,185.21L436.8,211.02L436.96,208.15L437.38,211.02L437.81,196.68L438.09,199.55L438.34,196.68L438.34,199.55L438.78,193.81L438.78,193.81L439.88,190.94L440.47,185.21L440.47,188.08L441.27,185.21L441.31,182.34L441.34,205.28L441.74,202.42L442.28,205.28L442.39,208.15L442.55,193.81L442.56,190.94L442.97,185.21L443.01,190.94L443.21,193.81L443.24,190.94L443.95,211.02L443.95,208.15L444.24,211.02L444.55,202.42L444.82,208.15L445.13,211.02L445.49,213.89L445.82,202.42L445.82,205.28L446.21,202.42L447.28,193.81L447.61,196.68L447.63,193.81L447.77,205.28L448.19,205.28L448.48,202.42L448.5,205.28L448.76,199.55L449.01,205.28L449.3,202.42L449.61,213.89L449.86,208.15L450.17,211.02L450.83,205.28L450.83,208.15L451.07,205.28L451.24,196.68L451.25,208.15L451.43,202.42L452.12,205.28L452.5,202.42L452.66,213.89L453.06,211.02L453.35,208.15L453.37,213.89L453.64,211.02L453.93,208.15L454.59,205.28L454.59,208.15L454.75,211.02L454.77,208.15L454.91,222.49L455.29,219.62L455.43,222.49L455.58,213.89L456.18,219.62L456.28,222.49L456.98,208.15L456.99,219.62L456.99,222.49L457.01,219.62L457.13,225.36L457.71,222.49L457.96,219.62L457.96,225.36L458.7,222.49L458.81,225.36L458.83,231.09L459.53,225.36L460.35,222.49L460.48,225.36L461.13,222.49L461.27,216.75L461.33,231.09L461.36,231.09L461.36,233.96L462.05,222.49L462.06,231.09L462.06,233.96L462.74,228.23L462.77,231.09L462.85,233.96L463.17,225.36L463.17,228.23L463.72,225.36L463.72,228.23L464.44,216.75L464.46,219.62L464.72,222.49L465.04,228.23L465.25,219.62L465.86,216.75L466.13,222.49L466.15,219.62L467.09,216.75L467.09,219.62L467.68,213.89L467.83,213.89L468.34,211.02L468.79,205.28L469.06,211.02L469.19,208.15L469.2,205.28L470.1,208.15L470.72,205.28L471.01,216.75L471.05,213.89L471.75,222.49L471.99,219.62L472,216.75L472,219.62L472.71,205.28L472.72,216.75L472.76,213.89L473.67,211.02L473.67,213.89L474.23,208.15L474.25,205.28L474.27,213.89L475,213.89L475.01,216.75L475.08,225.36L475.72,219.62L475.78,222.49L475.81,216.75L476.34,233.96L477.11,231.09L477.5,233.96L477.53,231.09L478.17,228.23L478.72,233.96L479.48,231.09L479.92,225.36L480.32,228.23L480.4,231.09L480.75,225.36L480.81,231.09L480.83,233.96L481.58,228.23L481.58,231.09L481.68,228.23L482.01,222.49L482.01,225.36L482.69,228.23L482.82,222.49L483.3,228.23L484.16,225.36L485.01,222.49L485.01,225.36L485.01,222.49L485.05,228.23L485.6,228.23L486.47,225.36L486.58,219.62L486.59,228.23L486.73,222.49L487.56,225.36L488.14,213.89L488.46,211.02L488.97,213.89L489.15,211.02L489.15,208.15L489.78,196.68L489.79,213.89L489.88,211.02L490.12,208.15L490.4,205.28L490.41,211.02L490.41,213.89L491,211.02L491.23,213.89L491.35,211.02L491.66,219.62L492.3,222.49L492.77,216.75L492.89,222.49L492.9,225.36L492.9,222.49L493.28,231.09L493.57,231.09L493.72,228.23L494.33,225.36L494.41,228.23L494.43,231.09L494.63,222.49L494.77,225.36L495.41,222.49L496.25,231.09L496.29,228.23L496.53,231.09L496.96,225.36L497.22,228.23L497.55,219.62L497.63,225.36L498.4,222.49L498.78,228.23L498.85,219.62L499.2,216.75L499.76,211.02L499.88,225.36L499.9,225.36L500.23,222.49L501.8,208.15L502.2,211.02L502.2,213.89L503.15,211.02L503.4,216.75L503.84,205.28L503.89,213.89L503.97,211.02L504.38,213.89L504.68,211.02L506.07,208.15L507.23,196.68L507.33,199.55L507.33,202.42L507.33,205.28L507.5,196.68L507.54,196.68L509.74,199.55L510.12,193.81L510.43,216.75L510.54,213.89L510.55,216.75L511.26,211.02L511.27,208.15L511.54,213.89L511.56,211.02L512.12,208.15L512.25,196.68L512.52,205.28L512.95,208.15L513.53,196.68L513.96,193.81L514.09,196.68L514.25,190.94L514.25,196.68L516.14,193.81L516.14,196.68L517.91,193.81L519.3,182.34L519.46,179.47L519.51,173.74L519.52,182.34L519.97,179.47L520.3,176.6L521.81,170.87L522.05,168L522.05,170.87L522.53,162.26L523.67,159.4L524.32,147.92L524.33,145.06L524.33,147.92L524.91,130.72L525.01,130.72L525.28,127.85L525.28,130.72L525.72,116.38L526.01,116.38L526.12,113.51L526.12,116.38L526.86,107.77L526.95,110.64L527.7,96.3L529.99,93.43L531.24,73.36L532.18,70.49L533.87,64.75L535.66,61.89L536.59,47.55L536.91,44.68L537.24,38.94L537.79,36.08L537.81,38.94L538.25,27.47L538.89,24.6L538.89,27.47L539.16,24.6L539.66,21.74L540,16" style="vector-effect: none; fill: none; stroke: rgb(44, 160, 44); stroke-opacity: 1; stroke-width: 2px; opacity: 1;"/></g><g class="points"/><g class="text"/></g></g></g></g><g class="zerolinelayer-above"/><path class="xlines-above crisp" d="M0,0" style="fill: none;"/><path class="ylines-above crisp" d="M0,0" style="fill: none;"/><g class="overlines-above"/><g class="xaxislayer-above"><g class="xtick"><text text-anchor="middle" x="0" y="439" transform="translate(96.74,0)" style="font-family: 'Open Sans'; font-size: 18px; fill: rgb(255, 255, 255); fill-opacity: 1; white-space: pre;">2016</text></g><g class="xtick"><text text-anchor="middle" x="0" y="439" style="font-family: 'Open Sans'; font-size: 18px; fill: rgb(255, 255, 255); fill-opacity: 1; white-space: pre;" transform="translate(199.25,0)">2018</text></g><g class="xtick"><text text-anchor="middle" x="0" y="439" style="font-family: 'Open Sans'; font-size: 18px; fill: rgb(255, 255, 255); fill-opacity: 1; white-space: pre;" transform="translate(301.62,0)">2020</text></g><g class="xtick"><text text-anchor="middle" x="0" y="439" style="font-family: 'Open Sans'; font-size: 18px; fill: rgb(255, 255, 255); fill-opacity: 1; white-space: pre;" transform="translate(404.12,0)">2022</text></g><g class="xtick"><text text-anchor="middle" x="0" y="439" style="font-family: 'Open Sans'; font-size: 18px; fill: rgb(255, 255, 255); fill-opacity: 1; white-space: pre;" transform="translate(506.49,0)">2024</text></g><g class="xtick"><text text-anchor="middle" x="0" y="439" style="font-family: 'Open Sans'; font-size: 18px; fill: rgb(255, 255, 255); fill-opacity: 1; white-space: pre;" transform="translate(609,0)">2026</text></g></g><g class="yaxislayer-above"><g class="ytick"><text text-anchor="end" x="79" y="6.3" transform="translate(0,420)" style="font-family: 'Open Sans'; font-size: 18px; fill: rgb(255, 255, 255); fill-opacity: 1; white-space: pre;">0</text></g><g class="ytick"><text text-anchor="end" x="79" y="6.3" style="font-family: 'Open Sans'; font-size: 18px; fill: rgb(255, 255, 255); fill-opacity: 1; white-space: pre;" transform="translate(0,362.64)">20</text></g><g class="ytick"><text text-anchor="end" x="79" y="6.3" style="font-family: 'Open Sans'; font-size: 18px; fill: rgb(255, 255, 255); fill-opacity: 1; white-space: pre;" transform="translate(0,305.28)">40</text></g><g class="ytick"><text text-anchor="end" x="79" y="6.3" style="font-family: 'Open Sans'; font-size: 18px; fill: rgb(255, 255, 255); fill-opacity: 1; white-space: pre;" transform="translate(0,247.92)">60</text></g><g class="ytick"><text text-anchor="end" x="79" y="6.3" style="font-family: 'Open Sans'; font-size: 18px; fill: rgb(255, 255, 255); fill-opacity: 1; white-space: pre;" transform="translate(0,190.57)">80</text></g><g class="ytick"><text text-anchor="end" x="79" y="6.3" style="font-family: 'Open Sans'; font-size: 18px; fill: rgb(255, 255, 255); fill-opacity: 1; white-space: pre;" transform="translate(0,133.21)">100</text></g></g><g class="overaxes-above"/></g></g><g class="polarlayer"/><g class="smithlayer"/><g class="ternarylayer"/><g class="geolayer"/><g class="funnelarealayer"/><g class="pielayer"/><g class="iciclelayer"/><g class="treemaplayer"/><g class="sunburstlayer"/><g class="glimages"/><defs id="topdefs-b9e8c1"><g class="clips"/></defs><g class="layer-above"><g class="imagelayer"/><g class="shapelayer"/></g><g class="infolayer"><g class="g-gtitle"><text class="gtitle" x="35" y="50" text-anchor="start" dy="0em" style="opacity: 1; font-family: 'Open Sans'; font-size: 25px; fill: rgb(255, 255, 255); fill-opacity: 1; white-space: pre;">MultiQC/MultiQC - Open Pull Requests Over Time</text></g><g class="g-xtitle"><text class="xtitle" x="350" y="472.9" text-anchor="middle" style="opacity: 1; font-family: 'Open Sans'; font-size: 22px; fill: rgb(255, 255, 255); fill-opacity: 1; white-space: pre;">Date</text></g><g class="g-ytitle"><text class="ytitle" transform="rotate(-90,29.799999999999997,260)" x="29.799999999999997" y="260" text-anchor="middle" style="opacity: 1; font-family: 'Open Sans'; font-size: 22px; fill: rgb(255, 255, 255); fill-opacity: 1; white-space: pre;">Number of Open PRs</text></g></g></svg>