<svg class="main-svg" xmlns="http://www.w3.org/2000/svg" xmlns:xlink="http://www.w3.org/1999/xlink" width="700" height="500" style="" viewBox="0 0 700 500"><rect x="0" y="0" width="700" height="500" style="fill: rgb(0, 0, 0); fill-opacity: 0;"/><defs id="defs-13ae41"><g class="clips"><clipPath id="clip13ae41xyplot" class="plotclip"><rect width="540" height="320"/></clipPath><clipPath class="axesclip" id="clip13ae41x"><rect x="80" y="0" width="540" height="500"/></clipPath><clipPath class="axesclip" id="clip13ae41y"><rect x="0" y="100" width="700" height="320"/></clipPath><clipPath class="axesclip" id="clip13ae41xy"><rect x="80" y="100" width="540" height="320"/></clipPath></g><g class="gradients"/><g class="patterns"/></defs><g class="bglayer"><rect class="bg" x="80" y="100" width="540" height="320" style="fill: rgb(0, 0, 0); fill-opacity: 0; stroke-width: 0;"/></g><g class="layer-below"><g class="imagelayer"/><g class="shapelayer"/></g><g class="cartesianlayer"><g class="subplot xy"><g class="layer-subplot"><g class="shapelayer"/><g class="imagelayer"/></g><g class="minor-gridlayer"><g class="x"/><g class="y"/></g><g class="gridlayer"><g class="x"><path class="xgrid crisp" transform="translate(97.44,0)" d="M0,100v320" style="stroke: rgb(255, 255, 255); stroke-opacity: 1; stroke-width: 1px;"/><path class="xgrid crisp" transform="translate(204.22,0)" d="M0,100v320" style="stroke: rgb(255, 255, 255); stroke-opacity: 1; stroke-width: 1px;"/><path class="xgrid crisp" transform="translate(310.86,0)" d="M0,100v320" style="stroke: rgb(255, 255, 255); stroke-opacity: 1; stroke-width: 1px;"/><path class="xgrid crisp" transform="translate(417.65,0)" d="M0,100v320" style="stroke: rgb(255, 255, 255); stroke-opacity: 1; stroke-width: 1px;"/><path class="xgrid crisp" transform="translate(524.28,0)" d="M0,100v320" style="stroke: rgb(255, 255, 255); stroke-opacity: 1; stroke-width: 1px;"/></g><g class="y"><path class="ygrid crisp" transform="translate(0,370.97)" d="M80,0h540" style="stroke: rgb(255, 255, 255); stroke-opacity: 1; stroke-width: 1px;"/><path class="ygrid crisp" transform="translate(0,321.94)" d="M80,0h540" style="stroke: rgb(255, 255, 255); stroke-opacity: 1; stroke-width: 1px;"/><path class="ygrid crisp" transform="translate(0,272.9)" d="M80,0h540" style="stroke: rgb(255, 255, 255); stroke-opacity: 1; stroke-width: 1px;"/><path class="ygrid crisp" transform="translate(0,223.87)" d="M80,0h540" style="stroke: rgb(255, 255, 255); stroke-opacity: 1; stroke-width: 1px;"/><path class="ygrid crisp" transform="translate(0,174.84)" d="M80,0h540" style="stroke: rgb(255, 255, 255); stroke-opacity: 1; stroke-width: 1px;"/><path class="ygrid crisp" transform="translate(0,125.81)" d="M80,0h540" style="stroke: rgb(255, 255, 255); stroke-opacity: 1; stroke-width: 1px;"/></g></g><g class="zerolinelayer"><path class="yzl zl crisp" transform="translate(0,420)" d="M80,0h540" style="stroke: rgb(255, 255, 255); stroke-opacity: 1; stroke-width: 2px;"/></g><g class="layer-between"><g class="shapelayer"/><g class="imagelayer"/></g><path class="xlines-below"/><path class="ylines-below"/><g class="overlines-below"/><g class="xaxislayer-below"/><g class="yaxislayer-below"/><g class="overaxes-below"/><g class="overplot"><g class="xy" transform="translate(80,100)" clip-path="url(#clip13ae41xyplot)"><g class="scatterlayer mlayer"><g class="trace scatter traceaff27a" style="stroke-miterlimit: 2;"><g class="fills"><g><path class="js-fill" d="M540,320L0,320L0,315.1L0.1,320L1.06,315.1L1.76,320L1.87,315.1L1.87,320L3.17,315.1L3.65,320L3.94,315.1L3.94,320L4.83,315.1L4.83,320L4.93,320L5.69,315.1L5.69,320L6.29,320L7.15,315.1L7.15,320L7.75,320L9.33,315.1L9.33,320L9.99,315.1L10.21,320L11.97,315.1L11.97,320L14.9,315.1L14.9,320L22.5,315.1L22.5,320L22.7,315.1L22.7,320L24.36,315.1L24.36,310.19L24.51,315.1L25.68,320L27.43,315.1L27.43,320L28.34,310.19L28.34,315.1L28.79,310.19L28.79,315.1L28.79,320L31.7,315.1L31.7,320L31.85,315.1L31.85,320L33.13,315.1L33.13,320L33.74,320L34.66,315.1L34.66,320L35.46,315.1L35.46,320L35.98,320L36.23,315.1L36.32,320L37.56,315.1L39,310.19L39.45,315.1L39.57,310.19L39.57,315.1L40.9,320L41.65,315.1L41.65,320L43.41,315.1L43.41,320L44.52,315.1L44.7,320L45.03,300.39L45.14,305.29L45.68,310.19L46.13,315.1L46.59,310.19L46.6,315.1L47.89,310.19L51.85,305.29L51.85,310.19L52.16,315.1L52.98,310.19L53.91,320L55.36,315.1L55.77,320L59,315.1L59.01,320L59.01,315.1L60.55,310.19L60.88,315.1L61.69,310.19L62.49,305.29L62.52,310.19L62.52,305.29L63.11,320L65.01,315.1L65.31,320L66.01,315.1L66.17,310.19L67.17,315.1L67.35,305.29L67.48,310.19L68.33,315.1L68.65,310.19L68.65,315.1L69.22,310.19L69.3,300.39L69.41,320L69.5,320L70.1,315.1L70.97,310.19L70.98,315.1L71.73,305.29L71.73,310.19L72.46,305.29L77.1,300.39L77.59,295.48L79.32,320L80.35,315.1L80.35,320L81.35,315.1L82.58,310.19L82.64,315.1L83.58,310.19L83.74,305.29L84.69,295.48L84.69,300.39L84.71,305.29L85.88,295.48L85.9,300.39L86.75,295.48L86.75,300.39L87.05,305.29L87.64,300.39L87.64,305.29L87.64,300.39L89.51,305.29L89.69,300.39L89.69,305.29L90.61,300.39L90.85,305.29L91.6,300.39L92.07,295.48L92.86,300.39L93.6,295.48L93.9,300.39L96.23,295.48L96.23,300.39L96.84,295.48L96.86,300.39L98.28,305.29L98.8,300.39L99.01,305.29L99.16,300.39L99.17,305.29L100.2,300.39L100.22,270.97L100.93,290.58L100.93,295.48L101.22,305.29L101.41,300.39L101.79,295.48L102.4,290.58L102.95,295.48L103.6,285.68L103.86,280.77L104.12,295.48L104.44,280.77L104.76,275.87L104.89,290.58L104.89,285.68L105.88,290.58L106.33,275.87L106.33,275.87L106.88,280.77L107.96,256.26L108.94,251.35L109.99,256.26L110.28,251.35L111.02,261.16L111.02,261.16L111.15,256.26L111.46,275.87L111.59,270.97L112.27,266.06L112.78,246.45L112.78,251.35L113.18,256.26L113.22,261.16L114.09,256.26L114.22,251.35L114.24,256.26L115.56,261.16L115.68,280.77L116.27,275.87L116.28,270.97L116.29,280.77L117.42,275.87L117.42,280.77L119.64,275.87L119.64,270.97L119.64,280.77L121.68,275.87L121.7,280.77L121.7,275.87L122.79,280.77L122.84,275.87L124.74,270.97L125.6,280.77L125.61,275.87L125.76,280.77L125.93,275.87L125.94,280.77L126.79,275.87L127.12,280.77L127.84,275.87L127.87,280.77L129.55,275.87L129.58,280.77L131.47,275.87L131.58,280.77L131.98,275.87L132.48,270.97L132.61,275.87L133.52,270.97L133.52,275.87L133.94,256.26L134.09,256.26L134.49,251.35L134.85,275.87L134.85,275.87L135.86,270.97L135.97,280.77L136.16,280.77L136.88,275.87L137.88,270.97L138,266.06L138.58,270.97L138.77,266.06L139.62,251.35L139.65,256.26L140.67,241.55L140.67,236.65L140.67,231.74L140.82,261.16L142.12,256.26L142.24,251.35L142.26,256.26L143.73,251.35L144.52,270.97L145.76,266.06L146.18,270.97L147.83,266.06L148.94,261.16L148.94,266.06L150.3,251.35L150.31,256.26L150.57,261.16L150.59,266.06L151,256.26L151.01,261.16L151.34,256.26L151.34,261.16L152.36,266.06L152.54,275.87L153.26,270.97L153.36,266.06L155.01,261.16L155.56,246.45L155.56,251.35L155.57,256.26L155.62,270.97L157.47,266.06L157.57,270.97L157.62,266.06L159.25,261.16L159.26,266.06L160.66,261.16L160.66,266.06L161.1,261.16L161.56,256.26L162.26,251.35L162.3,256.26L165.23,261.16L168.35,251.35L169.1,246.45L169.9,251.35L170.63,246.45L170.64,251.35L173.38,246.45L173.85,251.35L174.48,246.45L175.73,241.55L175.98,246.45L175.98,241.55L176.02,280.77L176.02,275.87L178.48,270.97L178.49,275.87L180.89,280.77L182.02,275.87L182.02,280.77L182.67,275.87L182.7,280.77L184.96,275.87L185.13,270.97L186.55,275.87L186.56,280.77L187.17,241.55L187.25,246.45L187.25,241.55L187.28,261.16L188.84,256.26L189.18,241.55L190.89,236.65L191.4,231.74L191.42,236.65L193.67,231.74L194.17,236.65L195.53,231.74L195.84,236.65L196.15,231.74L198.39,226.84L201.46,221.94L201.56,226.84L202.49,221.94L203.21,226.84L203.24,217.03L203.47,221.94L204.38,226.84L204.64,246.45L205.49,251.35L205.57,256.26L205.67,246.45L209.19,241.55L209.77,246.45L210.48,241.55L210.63,236.65L212.83,231.74L215.87,226.84L217.49,221.94L217.51,217.03L218.87,212.13L219.67,217.03L219.69,212.13L220,246.45L220.01,241.55L221.01,246.45L221.45,251.35L221.46,246.45L222.64,251.35L223.11,261.16L223.49,256.26L223.51,261.16L224.06,246.45L224.1,256.26L224.68,261.16L224.71,266.06L225.64,261.16L226.85,256.26L226.86,261.16L228.9,251.35L229.19,246.45L231.61,241.55L232.77,246.45L234.39,241.55L234.89,236.65L237.25,226.84L237.26,231.74L238.14,217.03L240.02,212.13L240.31,197.42L240.85,192.52L241.95,182.71L242,187.61L244.31,153.29L244.39,158.19L244.39,163.1L244.55,148.39L244.97,158.19L245.16,153.29L245.27,148.39L246.59,143.48L246.75,138.58L247.02,153.29L247.03,158.19L247.2,187.61L247.49,177.81L248,172.9L249.07,256.26L249.31,251.35L249.5,246.45L249.51,241.55L250.13,256.26L250.22,251.35L250.42,246.45L251.26,256.26L251.37,261.16L251.38,251.35L251.82,266.06L252.14,270.97L252.56,256.26L252.6,251.35L253.16,266.06L253.41,261.16L253.56,266.06L253.72,261.16L254.43,256.26L254.47,251.35L255.3,256.26L255.81,246.45L256.47,241.55L257.36,231.74L257.36,236.65L257.42,231.74L258.24,226.84L258.24,231.74L258.85,226.84L259.64,221.94L259.75,217.03L260.72,221.94L264.46,217.03L264.55,212.13L264.81,207.23L265.13,212.13L266.77,207.23L267.73,197.42L268.09,192.52L268.49,187.61L270.12,182.71L270.58,168L270.79,182.71L270.79,187.61L272.04,163.1L274.16,158.19L274.23,148.39L275.29,143.48L276.97,133.68L277.01,138.58L277.02,172.9L277.67,153.29L277.96,148.39L277.96,153.29L278.1,148.39L280.3,143.48L282.04,138.58L282.23,133.68L284.03,128.77L284.03,133.68L284.04,128.77L284.04,133.68L285.02,128.77L285.22,123.87L285.91,128.77L286.45,148.39L286.63,143.48L286.89,148.39L287.1,153.29L288.69,148.39L289.22,153.29L289.57,148.39L291.36,138.58L291.36,143.48L292.22,133.68L292.28,128.77L293.47,133.68L293.51,138.58L293.52,133.68L293.97,192.52L294.05,192.52L296.67,187.61L297.17,192.52L297.57,187.61L297.59,192.52L300.48,187.61L301.21,197.42L301.24,192.52L301.35,187.61L301.62,192.52L302.32,197.42L302.51,187.61L302.51,192.52L304.92,187.61L304.94,182.71L305.74,177.81L307.82,172.9L308.36,168L308.52,153.29L308.57,177.81L308.93,168L309.4,172.9L309.88,182.71L310.11,177.81L310.38,172.9L311.2,236.65L311.43,231.74L312.44,217.03L313.08,212.13L314.11,187.61L315.09,182.71L316.01,177.81L316.12,172.9L316.99,158.19L317.03,163.1L318.02,109.16L320.28,104.26L322.24,99.35L322.24,94.45L325.71,99.35L325.79,94.45L327.09,89.55L327.51,84.65L329.58,65.03L329.58,60.13L329.72,50.32L330.13,153.29L330.45,148.39L330.9,143.48L330.92,158.19L331.18,153.29L331.33,148.39L332.39,123.87L332.51,128.77L334.92,123.87L335.43,118.97L335.72,123.87L336.71,118.97L337.11,123.87L338.3,118.97L339.79,123.87L339.82,138.58L340.49,133.68L341.22,138.58L341.66,168L342.1,172.9L342.23,168L342.55,182.71L342.76,177.81L343.15,182.71L343.73,177.81L344.57,163.1L345.48,158.19L345.71,148.39L346.37,143.48L347.25,153.29L347.67,148.39L347.67,153.29L348.4,148.39L348.68,153.29L348.68,163.1L349.26,158.19L350.63,153.29L350.85,143.48L351.3,158.19L351.31,158.19L351.31,163.1L351.98,153.29L352.2,148.39L353.01,138.58L353.03,143.48L356.18,138.58L356.58,143.48L357.99,138.58L358.45,133.68L358.46,138.58L359.23,143.48L359.52,138.58L359.6,148.39L360.38,143.48L361.52,128.77L361.52,133.68L361.97,123.87L362.55,118.97L362.99,128.77L363.01,118.97L363.56,123.87L363.56,118.97L364.17,123.87L364.91,118.97L365.05,123.87L365.75,118.97L366.32,114.06L366.54,118.97L366.94,104.26L367,114.06L367.8,109.16L367.85,104.26L368.69,99.35L369.83,94.45L369.93,89.55L370.65,69.94L371.03,65.03L371.15,69.94L372.91,65.03L373.2,60.13L374.3,55.23L374.45,99.35L374.57,99.35L376.08,94.45L377.04,89.55L377.05,94.45L378.93,89.55L378.94,94.45L379.37,89.55L381.86,84.65L381.86,89.55L382.55,89.55L383.17,84.65L383.94,65.03L384.01,69.94L385.22,65.03L385.32,55.23L385.78,79.74L385.78,84.65L386.15,79.74L386.38,84.65L387.38,79.74L388.22,60.13L388.44,55.23L389.04,79.74L389.15,65.03L389.35,60.13L390.08,89.55L390.32,84.65L390.98,128.77L391.11,123.87L391.18,128.77L391.18,133.68L391.83,133.68L391.96,138.58L391.99,158.19L392.37,153.29L393.14,158.19L393.15,153.29L393.19,158.19L395.7,153.29L396.33,138.58L396.35,143.48L396.6,148.39L400.25,143.48L400.27,148.39L401,138.58L401.93,143.48L403.08,138.58L404.03,133.68L404.03,138.58L405.92,133.68L406.07,123.87L407.12,128.77L407.67,118.97L407.68,114.06L407.69,94.45L411.55,99.35L412.65,79.74L414.83,74.84L415.34,65.03L415.34,69.94L415.34,74.84L417.48,65.03L417.95,60.13L420.79,50.32L420.99,45.42L421.57,40.52L421.58,45.42L421.75,50.32L422.37,74.84L422.5,69.94L423.12,65.03L423.17,69.94L423.5,45.42L423.91,40.52L424.11,25.81L424.3,40.52L424.31,45.42L424.31,55.23L424.97,35.61L425.1,30.71L425.39,25.81L425.5,40.52L425.52,45.42L425.57,40.52L426.01,60.13L426.25,60.13L426.29,55.23L426.38,50.32L426.39,69.94L426.87,60.13L426.98,65.03L426.98,69.94L427.01,60.13L427.3,60.13L427.99,55.23L428.06,50.32L428.5,79.74L428.5,74.84L428.92,69.94L429.44,35.61L429.63,89.55L429.95,84.65L430.4,55.23L430.54,74.84L430.55,79.74L430.6,89.55L431.18,74.84L431.22,79.74L431.84,74.84L431.99,89.55L432.57,65.03L432.65,60.13L432.71,65.03L433.09,35.61L433.1,30.71L433.13,16L433.27,99.35L433.6,79.74L434.02,74.84L434.45,65.03L434.55,74.84L434.69,79.74L435.37,69.94L435.63,74.84L436.17,89.55L436.36,79.74L436.46,84.65L436.81,74.84L437.2,99.35L437.33,94.45L437.65,79.74L437.8,104.26L437.82,99.35L438.24,94.45L438.92,118.97L439.53,114.06L439.88,118.97L439.89,109.16L440.28,104.26L440.54,79.74L441.28,84.65L441.42,109.16L441.74,74.84L441.91,84.65L442.08,89.55L442.31,84.65L442.48,99.35L443.67,94.45L443.81,104.26L443.98,94.45L444.66,89.55L444.82,94.45L445.01,84.65L445.36,79.74L445.39,94.45L445.8,84.65L446.53,79.74L447.05,74.84L447.05,79.74L447.05,84.65L447.6,74.84L447.6,69.94L447.6,65.03L447.64,84.65L447.79,69.94L448.66,65.03L448.9,50.32L449.03,69.94L449.11,74.84L449.84,114.06L450.11,104.26L450.11,99.35L450.48,94.45L450.48,104.26L450.48,109.16L450.48,104.26L450.49,118.97L451.1,114.06L451.33,109.16L451.58,114.06L451.84,94.45L451.86,104.26L451.97,99.35L451.98,94.45L452.44,128.77L452.56,128.77L452.71,123.87L452.82,94.45L452.84,128.77L453.49,104.26L453.56,99.35L453.75,109.16L454.19,84.65L454.47,89.55L455.02,133.68L455.19,128.77L455.62,133.68L456.07,109.16L456.37,114.06L456.62,109.16L456.63,114.06L457.08,104.26L457.09,104.26L458.23,99.35L458.85,89.55L458.85,94.45L459.68,89.55L459.73,84.65L459.75,123.87L460.17,118.97L460.73,123.87L460.85,128.77L460.99,109.16L460.99,109.16L461.01,104.26L461.44,89.55L461.73,109.16L461.74,109.16L461.77,114.06L462.11,99.35L462.17,123.87L462.19,128.77L462.47,133.68L462.91,118.97L462.98,123.87L462.98,128.77L463.1,118.97L463.38,128.77L463.7,133.68L464.07,138.58L464.41,118.97L464.41,123.87L464.82,118.97L465.94,104.26L466.29,109.16L466.31,104.26L466.45,123.87L466.89,123.87L467.19,118.97L467.21,123.87L467.48,114.06L467.74,123.87L468.05,118.97L468.37,138.58L468.63,128.77L468.95,133.68L469.64,123.87L469.64,128.77L469.89,123.87L470.06,109.16L470.08,128.77L470.26,118.97L470.99,123.87L470.99,118.97L471.54,138.58L471.96,133.68L472.27,128.77L472.28,138.58L472.57,133.68L472.87,128.77L473.56,123.87L473.56,128.77L473.72,133.68L473.74,128.77L473.88,153.29L474.29,148.39L474.43,153.29L474.59,138.58L475.07,148.39L475.19,153.29L475.96,138.58L476.04,133.68L476.05,128.77L476.2,158.19L476.74,153.29L476.77,158.19L477.51,148.39L477.52,158.19L477.81,153.29L477.97,168L478.39,163.1L478.7,158.19L479.55,153.29L479.69,158.19L480.5,148.39L480.51,143.48L480.61,172.9L481.17,158.19L481.33,153.29L481.33,172.9L482.07,168L482.16,172.9L482.49,158.19L482.49,163.1L483.06,158.19L483.06,163.1L483.19,148.39L483.81,153.29L483.82,148.39L483.82,143.48L484.24,163.1L484.56,158.19L484.59,153.29L485.29,143.48L485.55,148.39L485.55,153.29L485.57,143.48L485.59,148.39L486.57,143.48L486.63,148.39L487.19,138.58L487.2,143.48L487.35,138.58L488.34,123.87L488.35,128.77L488.47,133.68L488.78,123.87L489.71,128.77L489.79,133.68L490.36,123.87L490.36,128.77L490.41,123.87L490.95,148.39L490.98,148.39L491.39,143.48L491.41,153.29L492.14,133.68L492.27,128.77L492.44,123.87L492.44,143.48L492.75,133.68L492.76,138.58L493.43,133.68L493.43,138.58L493.81,133.68L493.81,138.58L494.03,123.87L494.05,138.58L494.75,133.68L494.9,158.19L495.48,153.29L495.51,148.39L495.56,143.48L496.22,172.9L497.01,168L497.42,172.9L497.45,168L498.12,163.1L498.69,172.9L499.49,168L499.94,158.19L500.36,163.1L500.44,168L500.81,158.19L500.81,163.1L500.87,168L500.9,172.9L500.92,163.1L501.05,168L501.61,163.1L501.61,168L502.05,153.29L502.12,158.19L502.82,163.1L502.96,153.29L503.46,163.1L504.35,158.19L505.24,153.29L505.24,158.19L505.28,163.1L505.86,153.29L505.86,163.1L506.76,158.19L506.88,148.39L506.89,163.1L507.03,153.29L507.9,158.19L508.5,138.58L508.84,133.68L509.37,138.58L509.55,133.68L509.55,128.77L510.21,109.16L510.22,138.58L510.32,133.68L510.86,123.87L510.87,133.68L510.87,138.58L511.48,133.68L511.73,138.58L511.84,133.68L512.17,148.39L512.84,153.29L513.33,143.48L513.46,153.29L513.46,158.19L513.46,153.29L513.86,168L514.16,168L514.32,163.1L514.95,158.19L515.04,163.1L515.06,168L515.26,153.29L515.41,158.19L516.08,153.29L516.96,168L517,163.1L517.24,168L517.69,158.19L517.96,163.1L518.3,148.39L518.39,158.19L519.2,153.29L519.59,163.1L519.66,148.39L520.02,143.48L520.61,133.68L520.63,153.29L520.73,158.19L521.37,143.48L521.95,138.58L522.74,128.77L523.15,133.68L523.15,138.58L524.14,133.68L524.4,143.48L524.86,123.87L524.86,143.48L524.91,138.58L525.74,133.68L527.18,128.77L528.39,109.16L528.5,114.06L528.5,123.87L528.67,109.16L528.71,109.16L531,114.06L531.41,104.26L531.44,138.58L531.72,133.68L531.73,143.48L531.85,138.58L532.59,133.68L532.88,138.58L532.9,128.77L532.9,133.68L533.49,128.77L533.62,109.16L533.9,123.87L534.35,128.77L534.95,109.16L535.41,104.26L535.53,109.16L535.7,99.35L535.7,109.16L537.67,104.26L537.67,109.16L539.52,104.26L540,94.45" style="fill: rgb(44, 160, 44); fill-opacity: 0.5; stroke-width: 0;"/></g></g><g class="errorbars"/><g class="lines"><path class="js-line" d="M0,315.1L0.1,320L1.06,315.1L1.76,320L1.87,315.1L1.87,320L3.17,315.1L3.65,320L3.94,315.1L3.94,320L4.83,315.1L4.83,320L4.93,320L5.69,315.1L5.69,320L6.29,320L7.15,315.1L7.15,320L7.75,320L9.33,315.1L9.33,320L9.99,315.1L10.21,320L11.97,315.1L11.97,320L14.9,315.1L14.9,320L22.5,315.1L22.5,320L22.7,315.1L22.7,320L24.36,315.1L24.36,310.19L24.51,315.1L25.68,320L27.43,315.1L27.43,320L28.34,310.19L28.34,315.1L28.79,310.19L28.79,315.1L28.79,320L31.7,315.1L31.7,320L31.85,315.1L31.85,320L33.13,315.1L33.13,320L33.74,320L34.66,315.1L34.66,320L35.46,315.1L35.46,320L35.98,320L36.23,315.1L36.32,320L37.56,315.1L39,310.19L39.45,315.1L39.57,310.19L39.57,315.1L40.9,320L41.65,315.1L41.65,320L43.41,315.1L43.41,320L44.52,315.1L44.7,320L45.03,300.39L45.14,305.29L45.68,310.19L46.13,315.1L46.59,310.19L46.6,315.1L47.89,310.19L51.85,305.29L51.85,310.19L52.16,315.1L52.98,310.19L53.91,320L55.36,315.1L55.77,320L59,315.1L59.01,320L59.01,315.1L60.55,310.19L60.88,315.1L61.69,310.19L62.49,305.29L62.52,310.19L62.52,305.29L63.11,320L65.01,315.1L65.31,320L66.01,315.1L66.17,310.19L67.17,315.1L67.35,305.29L67.48,310.19L68.33,315.1L68.65,310.19L68.65,315.1L69.22,310.19L69.3,300.39L69.41,320L69.5,320L70.1,315.1L70.97,310.19L70.98,315.1L71.73,305.29L71.73,310.19L72.46,305.29L77.1,300.39L77.59,295.48L79.32,320L80.35,315.1L80.35,320L81.35,315.1L82.58,310.19L82.64,315.1L83.58,310.19L83.74,305.29L84.69,295.48L84.69,300.39L84.71,305.29L85.88,295.48L85.9,300.39L86.75,295.48L86.75,300.39L87.05,305.29L87.64,300.39L87.64,305.29L87.64,300.39L89.51,305.29L89.69,300.39L89.69,305.29L90.61,300.39L90.85,305.29L91.6,300.39L92.07,295.48L92.86,300.39L93.6,295.48L93.9,300.39L96.23,295.48L96.23,300.39L96.84,295.48L96.86,300.39L98.28,305.29L98.8,300.39L99.01,305.29L99.16,300.39L99.17,305.29L100.2,300.39L100.22,270.97L100.93,290.58L100.93,295.48L101.22,305.29L101.41,300.39L101.79,295.48L102.4,290.58L102.95,295.48L103.6,285.68L103.86,280.77L104.12,295.48L104.44,280.77L104.76,275.87L104.89,290.58L104.89,285.68L105.88,290.58L106.33,275.87L106.33,275.87L106.88,280.77L107.96,256.26L108.94,251.35L109.99,256.26L110.28,251.35L111.02,261.16L111.02,261.16L111.15,256.26L111.46,275.87L111.59,270.97L112.27,266.06L112.78,246.45L112.78,251.35L113.18,256.26L113.22,261.16L114.09,256.26L114.22,251.35L114.24,256.26L115.56,261.16L115.68,280.77L116.27,275.87L116.28,270.97L116.29,280.77L117.42,275.87L117.42,280.77L119.64,275.87L119.64,270.97L119.64,280.77L121.68,275.87L121.7,280.77L121.7,275.87L122.79,280.77L122.84,275.87L124.74,270.97L125.6,280.77L125.61,275.87L125.76,280.77L125.93,275.87L125.94,280.77L126.79,275.87L127.12,280.77L127.84,275.87L127.87,280.77L129.55,275.87L129.58,280.77L131.47,275.87L131.58,280.77L131.98,275.87L132.48,270.97L132.61,275.87L133.52,270.97L133.52,275.87L133.94,256.26L134.09,256.26L134.49,251.35L134.85,275.87L134.85,275.87L135.86,270.97L135.97,280.77L136.16,280.77L136.88,275.87L137.88,270.97L138,266.06L138.58,270.97L138.77,266.06L139.62,251.35L139.65,256.26L140.67,241.55L140.67,236.65L140.67,231.74L140.82,261.16L142.12,256.26L142.24,251.35L142.26,256.26L143.73,251.35L144.52,270.97L145.76,266.06L146.18,270.97L147.83,266.06L148.94,261.16L148.94,266.06L150.3,251.35L150.31,256.26L150.57,261.16L150.59,266.06L151,256.26L151.01,261.16L151.34,256.26L151.34,261.16L152.36,266.06L152.54,275.87L153.26,270.97L153.36,266.06L155.01,261.16L155.56,246.45L155.56,251.35L155.57,256.26L155.62,270.97L157.47,266.06L157.57,270.97L157.62,266.06L159.25,261.16L159.26,266.06L160.66,261.16L160.66,266.06L161.1,261.16L161.56,256.26L162.26,251.35L162.3,256.26L165.23,261.16L168.35,251.35L169.1,246.45L169.9,251.35L170.63,246.45L170.64,251.35L173.38,246.45L173.85,251.35L174.48,246.45L175.73,241.55L175.98,246.45L175.98,241.55L176.02,280.77L176.02,275.87L178.48,270.97L178.49,275.87L180.89,280.77L182.02,275.87L182.02,280.77L182.67,275.87L182.7,280.77L184.96,275.87L185.13,270.97L186.55,275.87L186.56,280.77L187.17,241.55L187.25,246.45L187.25,241.55L187.28,261.16L188.84,256.26L189.18,241.55L190.89,236.65L191.4,231.74L191.42,236.65L193.67,231.74L194.17,236.65L195.53,231.74L195.84,236.65L196.15,231.74L198.39,226.84L201.46,221.94L201.56,226.84L202.49,221.94L203.21,226.84L203.24,217.03L203.47,221.94L204.38,226.84L204.64,246.45L205.49,251.35L205.57,256.26L205.67,246.45L209.19,241.55L209.77,246.45L210.48,241.55L210.63,236.65L212.83,231.74L215.87,226.84L217.49,221.94L217.51,217.03L218.87,212.13L219.67,217.03L219.69,212.13L220,246.45L220.01,241.55L221.01,246.45L221.45,251.35L221.46,246.45L222.64,251.35L223.11,261.16L223.49,256.26L223.51,261.16L224.06,246.45L224.1,256.26L224.68,261.16L224.71,266.06L225.64,261.16L226.85,256.26L226.86,261.16L228.9,251.35L229.19,246.45L231.61,241.55L232.77,246.45L234.39,241.55L234.89,236.65L237.25,226.84L237.26,231.74L238.14,217.03L240.02,212.13L240.31,197.42L240.85,192.52L241.95,182.71L242,187.61L244.31,153.29L244.39,158.19L244.39,163.1L244.55,148.39L244.97,158.19L245.16,153.29L245.27,148.39L246.59,143.48L246.75,138.58L247.02,153.29L247.03,158.19L247.2,187.61L247.49,177.81L248,172.9L249.07,256.26L249.31,251.35L249.5,246.45L249.51,241.55L250.13,256.26L250.22,251.35L250.42,246.45L251.26,256.26L251.37,261.16L251.38,251.35L251.82,266.06L252.14,270.97L252.56,256.26L252.6,251.35L253.16,266.06L253.41,261.16L253.56,266.06L253.72,261.16L254.43,256.26L254.47,251.35L255.3,256.26L255.81,246.45L256.47,241.55L257.36,231.74L257.36,236.65L257.42,231.74L258.24,226.84L258.24,231.74L258.85,226.84L259.64,221.94L259.75,217.03L260.72,221.94L264.46,217.03L264.55,212.13L264.81,207.23L265.13,212.13L266.77,207.23L267.73,197.42L268.09,192.52L268.49,187.61L270.12,182.71L270.58,168L270.79,182.71L270.79,187.61L272.04,163.1L274.16,158.19L274.23,148.39L275.29,143.48L276.97,133.68L277.01,138.58L277.02,172.9L277.67,153.29L277.96,148.39L277.96,153.29L278.1,148.39L280.3,143.48L282.04,138.58L282.23,133.68L284.03,128.77L284.03,133.68L284.04,128.77L284.04,133.68L285.02,128.77L285.22,123.87L285.91,128.77L286.45,148.39L286.63,143.48L286.89,148.39L287.1,153.29L288.69,148.39L289.22,153.29L289.57,148.39L291.36,138.58L291.36,143.48L292.22,133.68L292.28,128.77L293.47,133.68L293.51,138.58L293.52,133.68L293.97,192.52L294.05,192.52L296.67,187.61L297.17,192.52L297.57,187.61L297.59,192.52L300.48,187.61L301.21,197.42L301.24,192.52L301.35,187.61L301.62,192.52L302.32,197.42L302.51,187.61L302.51,192.52L304.92,187.61L304.94,182.71L305.74,177.81L307.82,172.9L308.36,168L308.52,153.29L308.57,177.81L308.93,168L309.4,172.9L309.88,182.71L310.11,177.81L310.38,172.9L311.2,236.65L311.43,231.74L312.44,217.03L313.08,212.13L314.11,187.61L315.09,182.71L316.01,177.81L316.12,172.9L316.99,158.19L317.03,163.1L318.02,109.16L320.28,104.26L322.24,99.35L322.24,94.45L325.71,99.35L325.79,94.45L327.09,89.55L327.51,84.65L329.58,65.03L329.58,60.13L329.72,50.32L330.13,153.29L330.45,148.39L330.9,143.48L330.92,158.19L331.18,153.29L331.33,148.39L332.39,123.87L332.51,128.77L334.92,123.87L335.43,118.97L335.72,123.87L336.71,118.97L337.11,123.87L338.3,118.97L339.79,123.87L339.82,138.58L340.49,133.68L341.22,138.58L341.66,168L342.1,172.9L342.23,168L342.55,182.71L342.76,177.81L343.15,182.71L343.73,177.81L344.57,163.1L345.48,158.19L345.71,148.39L346.37,143.48L347.25,153.29L347.67,148.39L347.67,153.29L348.4,148.39L348.68,153.29L348.68,163.1L349.26,158.19L350.63,153.29L350.85,143.48L351.3,158.19L351.31,158.19L351.31,163.1L351.98,153.29L352.2,148.39L353.01,138.58L353.03,143.48L356.18,138.58L356.58,143.48L357.99,138.58L358.45,133.68L358.46,138.58L359.23,143.48L359.52,138.58L359.6,148.39L360.38,143.48L361.52,128.77L361.52,133.68L361.97,123.87L362.55,118.97L362.99,128.77L363.01,118.97L363.56,123.87L363.56,118.97L364.17,123.87L364.91,118.97L365.05,123.87L365.75,118.97L366.32,114.06L366.54,118.97L366.94,104.26L367,114.06L367.8,109.16L367.85,104.26L368.69,99.35L369.83,94.45L369.93,89.55L370.65,69.94L371.03,65.03L371.15,69.94L372.91,65.03L373.2,60.13L374.3,55.23L374.45,99.35L374.57,99.35L376.08,94.45L377.04,89.55L377.05,94.45L378.93,89.55L378.94,94.45L379.37,89.55L381.86,84.65L381.86,89.55L382.55,89.55L383.17,84.65L383.94,65.03L384.01,69.94L385.22,65.03L385.32,55.23L385.78,79.74L385.78,84.65L386.15,79.74L386.38,84.65L387.38,79.74L388.22,60.13L388.44,55.23L389.04,79.74L389.15,65.03L389.35,60.13L390.08,89.55L390.32,84.65L390.98,128.77L391.11,123.87L391.18,128.77L391.18,133.68L391.83,133.68L391.96,138.58L391.99,158.19L392.37,153.29L393.14,158.19L393.15,153.29L393.19,158.19L395.7,153.29L396.33,138.58L396.35,143.48L396.6,148.39L400.25,143.48L400.27,148.39L401,138.58L401.93,143.48L403.08,138.58L404.03,133.68L404.03,138.58L405.92,133.68L406.07,123.87L407.12,128.77L407.67,118.97L407.68,114.06L407.69,94.45L411.55,99.35L412.65,79.74L414.83,74.84L415.34,65.03L415.34,69.94L415.34,74.84L417.48,65.03L417.95,60.13L420.79,50.32L420.99,45.42L421.57,40.52L421.58,45.42L421.75,50.32L422.37,74.84L422.5,69.94L423.12,65.03L423.17,69.94L423.5,45.42L423.91,40.52L424.11,25.81L424.3,40.52L424.31,45.42L424.31,55.23L424.97,35.61L425.1,30.71L425.39,25.81L425.5,40.52L425.52,45.42L425.57,40.52L426.01,60.13L426.25,60.13L426.29,55.23L426.38,50.32L426.39,69.94L426.87,60.13L426.98,65.03L426.98,69.94L427.01,60.13L427.3,60.13L427.99,55.23L428.06,50.32L428.5,79.74L428.5,74.84L428.92,69.94L429.44,35.61L429.63,89.55L429.95,84.65L430.4,55.23L430.54,74.84L430.55,79.74L430.6,89.55L431.18,74.84L431.22,79.74L431.84,74.84L431.99,89.55L432.57,65.03L432.65,60.13L432.71,65.03L433.09,35.61L433.1,30.71L433.13,16L433.27,99.35L433.6,79.74L434.02,74.84L434.45,65.03L434.55,74.84L434.69,79.74L435.37,69.94L435.63,74.84L436.17,89.55L436.36,79.74L436.46,84.65L436.81,74.84L437.2,99.35L437.33,94.45L437.65,79.74L437.8,104.26L437.82,99.35L438.24,94.45L438.92,118.97L439.53,114.06L439.88,118.97L439.89,109.16L440.28,104.26L440.54,79.74L441.28,84.65L441.42,109.16L441.74,74.84L441.91,84.65L442.08,89.55L442.31,84.65L442.48,99.35L443.67,94.45L443.81,104.26L443.98,94.45L444.66,89.55L444.82,94.45L445.01,84.65L445.36,79.74L445.39,94.45L445.8,84.65L446.53,79.74L447.05,74.84L447.05,79.74L447.05,84.65L447.6,74.84L447.6,69.94L447.6,65.03L447.64,84.65L447.79,69.94L448.66,65.03L448.9,50.32L449.03,69.94L449.11,74.84L449.84,114.06L450.11,104.26L450.11,99.35L450.48,94.45L450.48,104.26L450.48,109.16L450.48,104.26L450.49,118.97L451.1,114.06L451.33,109.16L451.58,114.06L451.84,94.45L451.86,104.26L451.97,99.35L451.98,94.45L452.44,128.77L452.56,128.77L452.71,123.87L452.82,94.45L452.84,128.77L453.49,104.26L453.56,99.35L453.75,109.16L454.19,84.65L454.47,89.55L455.02,133.68L455.19,128.77L455.62,133.68L456.07,109.16L456.37,114.06L456.62,109.16L456.63,114.06L457.08,104.26L457.09,104.26L458.23,99.35L458.85,89.55L458.85,94.45L459.68,89.55L459.73,84.65L459.75,123.87L460.17,118.97L460.73,123.87L460.85,128.77L460.99,109.16L460.99,109.16L461.01,104.26L461.44,89.55L461.73,109.16L461.74,109.16L461.77,114.06L462.11,99.35L462.17,123.87L462.19,128.77L462.47,133.68L462.91,118.97L462.98,123.87L462.98,128.77L463.1,118.97L463.38,128.77L463.7,133.68L464.07,138.58L464.41,118.97L464.41,123.87L464.82,118.97L465.94,104.26L466.29,109.16L466.31,104.26L466.45,123.87L466.89,123.87L467.19,118.97L467.21,123.87L467.48,114.06L467.74,123.87L468.05,118.97L468.37,138.58L468.63,128.77L468.95,133.68L469.64,123.87L469.64,128.77L469.89,123.87L470.06,109.16L470.08,128.77L470.26,118.97L470.99,123.87L470.99,118.97L471.54,138.58L471.96,133.68L472.27,128.77L472.28,138.58L472.57,133.68L472.87,128.77L473.56,123.87L473.56,128.77L473.72,133.68L473.74,128.77L473.88,153.29L474.29,148.39L474.43,153.29L474.59,138.58L475.07,148.39L475.19,153.29L475.96,138.58L476.04,133.68L476.05,128.77L476.2,158.19L476.74,153.29L476.77,158.19L477.51,148.39L477.52,158.19L477.81,153.29L477.97,168L478.39,163.1L478.7,158.19L479.55,153.29L479.69,158.19L480.5,148.39L480.51,143.48L480.61,172.9L481.17,158.19L481.33,153.29L481.33,172.9L482.07,168L482.16,172.9L482.49,158.19L482.49,163.1L483.06,158.19L483.06,163.1L483.19,148.39L483.81,153.29L483.82,148.39L483.82,143.48L484.24,163.1L484.56,158.19L484.59,153.29L485.29,143.48L485.55,148.39L485.55,153.29L485.57,143.48L485.59,148.39L486.57,143.48L486.63,148.39L487.19,138.58L487.2,143.48L487.35,138.58L488.34,123.87L488.35,128.77L488.47,133.68L488.78,123.87L489.71,128.77L489.79,133.68L490.36,123.87L490.36,128.77L490.41,123.87L490.95,148.39L490.98,148.39L491.39,143.48L491.41,153.29L492.14,133.68L492.27,128.77L492.44,123.87L492.44,143.48L492.75,133.68L492.76,138.58L493.43,133.68L493.43,138.58L493.81,133.68L493.81,138.58L494.03,123.87L494.05,138.58L494.75,133.68L494.9,158.19L495.48,153.29L495.51,148.39L495.56,143.48L496.22,172.9L497.01,168L497.42,172.9L497.45,168L498.12,163.1L498.69,172.9L499.49,168L499.94,158.19L500.36,163.1L500.44,168L500.81,158.19L500.81,163.1L500.87,168L500.9,172.9L500.92,163.1L501.05,168L501.61,163.1L501.61,168L502.05,153.29L502.12,158.19L502.82,163.1L502.96,153.29L503.46,163.1L504.35,158.19L505.24,153.29L505.24,158.19L505.28,163.1L505.86,153.29L505.86,163.1L506.76,158.19L506.88,148.39L506.89,163.1L507.03,153.29L507.9,158.19L508.5,138.58L508.84,133.68L509.37,138.58L509.55,133.68L509.55,128.77L510.21,109.16L510.22,138.58L510.32,133.68L510.86,123.87L510.87,133.68L510.87,138.58L511.48,133.68L511.73,138.58L511.84,133.68L512.17,148.39L512.84,153.29L513.33,143.48L513.46,153.29L513.46,158.19L513.46,153.29L513.86,168L514.16,168L514.32,163.1L514.95,158.19L515.04,163.1L515.06,168L515.26,153.29L515.41,158.19L516.08,153.29L516.96,168L517,163.1L517.24,168L517.69,158.19L517.96,163.1L518.3,148.39L518.39,158.19L519.2,153.29L519.59,163.1L519.66,148.39L520.02,143.48L520.61,133.68L520.63,153.29L520.73,158.19L521.37,143.48L521.95,138.58L522.74,128.77L523.15,133.68L523.15,138.58L524.14,133.68L524.4,143.48L524.86,123.87L524.86,143.48L524.91,138.58L525.74,133.68L527.18,128.77L528.39,109.16L528.5,114.06L528.5,123.87L528.67,109.16L528.71,109.16L531,114.06L531.41,104.26L531.44,138.58L531.72,133.68L531.73,143.48L531.85,138.58L532.59,133.68L532.88,138.58L532.9,128.77L532.9,133.68L533.49,128.77L533.62,109.16L533.9,123.87L534.35,128.77L534.95,109.16L535.41,104.26L535.53,109.16L535.7,99.35L535.7,109.16L537.67,104.26L537.67,109.16L539.52,104.26L540,94.45" style="vector-effect: none; fill: none; stroke: rgb(44, 160, 44); stroke-opacity: 1; stroke-width: 2px; opacity: 1;"/></g><g class="points"/><g class="text"/></g></g></g></g><g class="zerolinelayer-above"/><path class="xlines-above crisp" d="M0,0" style="fill: none;"/><path class="ylines-above crisp" d="M0,0" style="fill: none;"/><g class="overlines-above"/><g class="xaxislayer-above"><g class="xtick"><text text-anchor="middle" x="0" y="439" transform="translate(97.44,0)" style="font-family: 'Open Sans'; font-size: 18px; fill: rgb(255, 255, 255); fill-opacity: 1; white-space: pre;">2016</text></g><g class="xtick"><text text-anchor="middle" x="0" y="439" style="font-family: 'Open Sans'; font-size: 18px; fill: rgb(255, 255, 255); fill-opacity: 1; white-space: pre;" transform="translate(204.22,0)">2018</text></g><g class="xtick"><text text-anchor="middle" x="0" y="439" style="font-family: 'Open Sans'; font-size: 18px; fill: rgb(255, 255, 255); fill-opacity: 1; white-space: pre;" transform="translate(310.86,0)">2020</text></g><g class="xtick"><text text-anchor="middle" x="0" y="439" style="font-family: 'Open Sans'; font-size: 18px; fill: rgb(255, 255, 255); fill-opacity: 1; white-space: pre;" transform="translate(417.65,0)">2022</text></g><g class="xtick"><text text-anchor="middle" x="0" y="439" style="font-family: 'Open Sans'; font-size: 18px; fill: rgb(255, 255, 255); fill-opacity: 1; white-space: pre;" transform="translate(524.28,0)">2024</text></g></g><g class="yaxislayer-above"><g class="ytick"><text text-anchor="end" x="79" y="6.3" transform="translate(0,420)" style="font-family: 'Open Sans'; font-size: 18px; fill: rgb(255, 255, 255); fill-opacity: 1; white-space: pre;">0</text></g><g class="ytick"><text text-anchor="end" x="79" y="6.3" style="font-family: 'Open Sans'; font-size: 18px; fill: rgb(255, 255, 255); fill-opacity: 1; white-space: pre;" transform="translate(0,370.97)">10</text></g><g class="ytick"><text text-anchor="end" x="79" y="6.3" style="font-family: 'Open Sans'; font-size: 18px; fill: rgb(255, 255, 255); fill-opacity: 1; white-space: pre;" transform="translate(0,321.94)">20</text></g><g class="ytick"><text text-anchor="end" x="79" y="6.3" style="font-family: 'Open Sans'; font-size: 18px; fill: rgb(255, 255, 255); fill-opacity: 1; white-space: pre;" transform="translate(0,272.9)">30</text></g><g class="ytick"><text text-anchor="end" x="79" y="6.3" style="font-family: 'Open Sans'; font-size: 18px; fill: rgb(255, 255, 255); fill-opacity: 1; white-space: pre;" transform="translate(0,223.87)">40</text></g><g class="ytick"><text text-anchor="end" x="79" y="6.3" style="font-family: 'Open Sans'; font-size: 18px; fill: rgb(255, 255, 255); fill-opacity: 1; white-space: pre;" transform="translate(0,174.84)">50</text></g><g class="ytick"><text text-anchor="end" x="79" y="6.3" style="font-family: 'Open Sans'; font-size: 18px; fill: rgb(255, 255, 255); fill-opacity: 1; white-space: pre;" transform="translate(0,125.81)">60</text></g></g><g class="overaxes-above"/></g></g><g class="polarlayer"/><g class="smithlayer"/><g class="ternarylayer"/><g class="geolayer"/><g class="funnelarealayer"/><g class="pielayer"/><g class="iciclelayer"/><g class="treemaplayer"/><g class="sunburstlayer"/><g class="glimages"/><defs id="topdefs-13ae41"><g class="clips"/></defs><g class="layer-above"><g class="imagelayer"/><g class="shapelayer"/></g><g class="infolayer"><g class="g-gtitle"><text class="gtitle" x="35" y="50" text-anchor="start" dy="0em" style="opacity: 1; font-family: 'Open Sans'; font-size: 25px; fill: rgb(255, 255, 255); fill-opacity: 1; white-space: pre;">MultiQC/MultiQC - Open Pull Requests Over Time</text></g><g class="g-xtitle"><text class="xtitle" x="350" y="472.9" text-anchor="middle" style="opacity: 1; font-family: 'Open Sans'; font-size: 22px; fill: rgb(255, 255, 255); fill-opacity: 1; white-space: pre;">Date</text></g><g class="g-ytitle"><text class="ytitle" transform="rotate(-90,38.8,260)" x="38.8" y="260" text-anchor="middle" style="opacity: 1; font-family: 'Open Sans'; font-size: 22px; fill: rgb(255, 255, 255); fill-opacity: 1; white-space: pre;">Number of Open PRs</text></g></g></svg>