<svg class="main-svg" xmlns="http://www.w3.org/2000/svg" xmlns:xlink="http://www.w3.org/1999/xlink" width="700" height="500" style="" viewBox="0 0 700 500"><rect x="0" y="0" width="700" height="500" style="fill: rgb(0, 0, 0); fill-opacity: 0;"/><defs id="defs-caef2a"><g class="clips"><clipPath id="clipcaef2axyplot" class="plotclip"><rect width="540" height="320"/></clipPath><clipPath class="axesclip" id="clipcaef2ax"><rect x="80" y="0" width="540" height="500"/></clipPath><clipPath class="axesclip" id="clipcaef2ay"><rect x="0" y="100" width="700" height="320"/></clipPath><clipPath class="axesclip" id="clipcaef2axy"><rect x="80" y="100" width="540" height="320"/></clipPath></g><g class="gradients"/><g class="patterns"/></defs><g class="bglayer"><rect class="bg" x="80" y="100" width="540" height="320" style="fill: rgb(0, 0, 0); fill-opacity: 0; stroke-width: 0;"/></g><g class="layer-below"><g class="imagelayer"/><g class="shapelayer"/></g><g class="cartesianlayer"><g class="subplot xy"><g class="layer-subplot"><g class="shapelayer"/><g class="imagelayer"/></g><g class="minor-gridlayer"><g class="x"/><g class="y"/></g><g class="gridlayer"><g class="x"><path class="xgrid crisp" transform="translate(97.52,0)" d="M0,100v320" style="stroke: rgb(255, 255, 255); stroke-opacity: 1; stroke-width: 1px;"/><path class="xgrid crisp" transform="translate(204.76,0)" d="M0,100v320" style="stroke: rgb(255, 255, 255); stroke-opacity: 1; stroke-width: 1px;"/><path class="xgrid crisp" transform="translate(311.86,0)" d="M0,100v320" style="stroke: rgb(255, 255, 255); stroke-opacity: 1; stroke-width: 1px;"/><path class="xgrid crisp" transform="translate(419.11,0)" d="M0,100v320" style="stroke: rgb(255, 255, 255); stroke-opacity: 1; stroke-width: 1px;"/><path class="xgrid crisp" transform="translate(526.2,0)" d="M0,100v320" style="stroke: rgb(255, 255, 255); stroke-opacity: 1; stroke-width: 1px;"/></g><g class="y"><path class="ygrid crisp" transform="translate(0,370.97)" d="M80,0h540" style="stroke: rgb(255, 255, 255); stroke-opacity: 1; stroke-width: 1px;"/><path class="ygrid crisp" transform="translate(0,321.94)" d="M80,0h540" style="stroke: rgb(255, 255, 255); stroke-opacity: 1; stroke-width: 1px;"/><path class="ygrid crisp" transform="translate(0,272.9)" d="M80,0h540" style="stroke: rgb(255, 255, 255); stroke-opacity: 1; stroke-width: 1px;"/><path class="ygrid crisp" transform="translate(0,223.87)" d="M80,0h540" style="stroke: rgb(255, 255, 255); stroke-opacity: 1; stroke-width: 1px;"/><path class="ygrid crisp" transform="translate(0,174.84)" d="M80,0h540" style="stroke: rgb(255, 255, 255); stroke-opacity: 1; stroke-width: 1px;"/><path class="ygrid crisp" transform="translate(0,125.81)" d="M80,0h540" style="stroke: rgb(255, 255, 255); stroke-opacity: 1; stroke-width: 1px;"/></g></g><g class="zerolinelayer"><path class="yzl zl crisp" transform="translate(0,420)" d="M80,0h540" style="stroke: rgb(255, 255, 255); stroke-opacity: 1; stroke-width: 2px;"/></g><g class="layer-between"><g class="shapelayer"/><g class="imagelayer"/></g><path class="xlines-below"/><path class="ylines-below"/><g class="overlines-below"/><g class="xaxislayer-below"/><g class="yaxislayer-below"/><g class="overaxes-below"/><g class="overplot"><g class="xy" transform="translate(80,100)" clip-path="url(#clipcaef2axyplot)"><g class="scatterlayer mlayer"><g class="trace scatter trace71c408" style="stroke-miterlimit: 2;"><g class="fills"><g><path class="js-fill" d="M540,320L0,320L0,315.1L0.1,320L1.07,315.1L1.77,320L1.88,315.1L1.88,320L3.19,315.1L3.66,320L3.96,315.1L3.96,320L4.85,315.1L4.85,320L4.95,320L5.71,315.1L5.71,320L6.32,320L7.18,315.1L7.18,320L7.78,320L9.37,315.1L9.37,320L10.03,315.1L10.26,320L12.02,315.1L12.02,320L14.96,315.1L14.96,320L22.59,315.1L22.59,320L22.8,315.1L22.8,320L24.46,315.1L24.46,310.19L24.61,315.1L25.79,320L27.55,315.1L27.55,320L28.46,310.19L28.46,315.1L28.91,310.19L28.91,315.1L28.91,320L31.84,315.1L31.84,320L31.99,315.1L31.99,320L33.27,315.1L33.27,320L33.89,320L34.81,315.1L34.81,320L35.61,315.1L35.61,320L36.14,320L36.39,315.1L36.48,320L37.72,315.1L39.17,310.19L39.62,315.1L39.74,310.19L39.74,315.1L41.08,320L41.83,315.1L41.83,320L43.59,315.1L43.59,320L44.72,315.1L44.72,320L45.22,300.39L45.34,305.29L45.88,310.19L46.33,315.1L46.79,310.19L46.8,315.1L48.1,310.19L52.08,305.29L52.08,310.19L52.38,315.1L53.2,310.19L54.14,320L55.6,315.1L56.01,320L59.26,315.1L59.26,320L59.26,315.1L60.81,310.19L61.14,315.1L61.96,310.19L62.76,305.29L62.79,310.19L62.79,305.29L63.38,320L65.29,315.1L65.59,320L66.29,315.1L66.45,310.19L67.46,315.1L67.64,305.29L67.77,310.19L68.63,315.1L68.95,310.19L68.95,315.1L69.52,310.19L69.6,300.39L69.71,320L69.8,320L70.41,315.1L71.28,310.19L71.28,315.1L72.04,305.29L72.05,310.19L72.77,305.29L77.44,300.39L77.93,295.48L79.67,320L80.7,315.1L80.7,320L81.7,315.1L82.94,310.19L83,315.1L83.94,310.19L84.1,305.29L85.05,295.48L85.05,300.39L85.07,305.29L86.25,295.48L86.27,300.39L87.13,295.48L87.13,300.39L87.43,305.29L88.02,300.39L88.02,305.29L88.02,300.39L89.89,305.29L90.08,300.39L90.08,305.29L91,300.39L91.25,305.29L91.99,300.39L92.47,295.48L93.26,300.39L94.01,295.48L94.31,300.39L96.65,295.48L96.65,300.39L97.26,295.48L97.28,300.39L98.71,305.29L99.23,300.39L99.44,305.29L99.59,300.39L99.59,305.29L100.64,300.39L100.65,270.97L101.37,295.48L101.66,300.39L101.66,305.29L101.82,295.48L102.23,295.48L102.84,290.58L103.58,295.48L103.76,290.58L104.3,280.77L104.47,290.58L104.57,295.48L105.21,275.87L105.3,285.68L105.34,290.58L105.34,285.68L106.34,290.58L106.79,275.87L106.79,275.87L107.34,280.77L108.42,256.26L109.41,251.35L110.47,256.26L110.76,251.35L111.5,261.16L111.5,261.16L111.63,256.26L111.94,275.87L112.08,270.97L112.75,266.06L113.27,246.45L113.27,251.35L113.67,256.26L113.71,261.16L114.58,256.26L114.71,251.35L114.73,256.26L116.06,261.16L116.18,280.77L116.78,275.87L116.79,270.97L116.8,280.77L117.93,275.87L117.93,280.77L120.15,275.87L120.16,270.97L120.16,280.77L122.21,275.87L122.22,280.77L122.22,275.87L123.32,280.77L123.38,275.87L125.28,270.97L126.15,280.77L126.15,275.87L126.31,280.77L126.48,275.87L126.48,280.77L127.34,275.87L127.67,280.77L128.4,275.87L128.42,280.77L130.11,275.87L130.14,280.77L132.04,275.87L132.15,280.77L132.55,275.87L133.05,270.97L133.18,275.87L134.1,270.97L134.1,275.87L134.52,256.26L134.67,256.26L135.07,251.35L135.43,275.87L135.43,275.87L136.45,270.97L136.56,280.77L136.75,280.77L137.47,275.87L138.48,270.97L138.6,266.06L139.18,270.97L139.37,266.06L140.23,251.35L140.26,256.26L141.27,241.55L141.27,236.65L141.28,231.74L141.43,261.16L142.74,256.26L142.86,251.35L142.87,256.26L144.35,251.35L145.14,270.97L146.39,266.06L146.81,270.97L148.47,266.06L149.59,261.16L149.59,266.06L150.95,251.35L150.96,256.26L151.22,261.16L151.25,266.06L151.66,256.26L151.66,261.16L152,256.26L152,261.16L153.02,266.06L153.2,275.87L153.93,270.97L154.02,266.06L155.68,261.16L156.23,246.45L156.24,251.35L156.24,256.26L156.3,270.97L158.15,266.06L158.25,270.97L158.3,266.06L159.93,261.16L159.95,266.06L161.35,261.16L161.35,266.06L161.79,261.16L162.26,256.26L162.97,251.35L163,256.26L165.94,261.16L169.08,251.35L169.84,246.45L170.63,251.35L171.36,246.45L171.37,251.35L174.13,246.45L174.6,251.35L175.23,246.45L176.49,241.55L176.74,246.45L176.74,241.55L176.78,280.77L176.79,275.87L179.25,270.97L179.26,275.87L181.67,280.77L182.81,275.87L182.81,280.77L183.46,275.87L183.49,280.77L185.76,275.87L185.93,270.97L187.36,275.87L187.37,280.77L187.98,241.55L188.06,246.45L188.06,241.55L188.09,261.16L189.66,256.26L190,241.55L191.71,236.65L192.23,231.74L192.24,236.65L194.51,231.74L195.01,236.65L196.38,231.74L196.69,236.65L197,231.74L199.25,226.84L202.33,221.94L202.43,226.84L203.36,221.94L204.08,226.84L204.12,217.03L204.35,221.94L205.26,226.84L205.53,246.45L206.38,251.35L206.46,256.26L206.56,246.45L210.1,241.55L210.68,246.45L211.39,241.55L211.54,236.65L213.75,231.74L216.8,226.84L218.43,221.94L218.45,217.03L219.81,212.13L220.62,217.03L220.64,212.13L220.95,246.45L220.96,241.55L221.97,246.45L222.41,251.35L222.42,246.45L223.6,251.35L224.08,261.16L224.46,256.26L224.48,261.16L225.02,246.45L225.07,256.26L225.65,261.16L225.68,266.06L226.61,261.16L227.83,256.26L227.84,261.16L229.89,251.35L230.18,246.45L232.61,241.55L233.77,246.45L235.41,241.55L235.9,236.65L238.28,226.84L238.29,231.74L239.17,217.03L241.06,212.13L241.35,197.42L241.9,192.52L243,182.71L243.05,187.61L245.36,153.29L245.44,158.19L245.45,163.1L245.61,148.39L246.03,158.19L246.22,153.29L246.33,148.39L247.66,143.48L247.81,138.58L248.09,153.29L248.09,158.19L248.27,187.61L248.56,177.81L249.07,172.9L250.15,256.26L250.39,251.35L250.58,246.45L250.59,241.55L251.21,256.26L251.3,251.35L251.5,246.45L252.35,256.26L252.45,261.16L252.47,251.35L252.91,266.06L253.23,270.97L253.65,256.26L253.69,251.35L254.26,266.06L254.51,261.16L254.66,266.06L254.82,261.16L255.53,256.26L255.57,251.35L256.41,256.26L256.92,246.45L257.58,241.55L258.47,231.74L258.47,236.65L258.53,231.74L259.36,226.84L259.36,231.74L259.97,226.84L260.76,221.94L260.87,217.03L261.85,221.94L265.6,217.03L265.7,212.13L265.96,207.23L266.28,212.13L267.92,207.23L268.89,197.42L269.25,192.52L269.65,187.61L271.29,182.71L271.75,168L271.96,182.71L271.96,187.61L273.22,163.1L275.34,158.19L275.41,148.39L276.48,143.48L278.17,133.68L278.21,138.58L278.22,172.9L278.87,153.29L279.16,148.39L279.16,153.29L279.31,148.39L281.51,143.48L283.26,138.58L283.45,133.68L285.26,128.77L285.26,133.68L285.27,128.77L285.27,133.68L286.26,128.77L286.45,123.87L287.15,128.77L287.69,148.39L287.87,143.48L288.13,148.39L288.34,153.29L289.93,148.39L290.47,153.29L290.82,148.39L292.62,138.58L292.62,143.48L293.44,138.58L293.48,133.68L293.55,128.77L294.74,133.68L295.32,192.52L297.95,187.61L298.46,192.52L298.86,187.61L298.88,192.52L301.78,187.61L302.51,197.42L302.54,192.52L302.66,187.61L302.66,192.52L302.92,192.52L303.63,197.42L303.81,187.61L303.82,192.52L306.24,187.61L306.26,182.71L307.07,177.81L309.15,172.9L309.69,168L309.85,153.29L309.9,177.81L310.27,168L310.74,172.9L311.22,182.71L311.46,177.81L311.72,172.9L312.54,236.65L312.78,231.74L313.79,217.03L314.43,212.13L315.47,187.61L316.46,182.71L317.38,177.81L317.49,172.9L318.36,158.19L318.4,163.1L319.4,109.16L321.66,104.26L323.63,99.35L323.63,94.45L327.12,99.35L327.2,94.45L328.5,89.55L328.93,84.65L331.01,65.03L331.01,60.13L331.15,50.32L331.56,153.29L331.88,148.39L332.33,143.48L332.35,158.19L332.61,153.29L332.77,148.39L333.82,123.87L333.95,128.77L336.36,123.87L336.88,118.97L337.18,123.87L338.16,118.97L338.57,123.87L339.76,118.97L341.26,123.87L341.29,138.58L341.96,133.68L342.69,138.58L343.14,168L343.58,172.9L343.72,168L344.03,182.71L344.24,177.81L344.63,182.71L345.21,177.81L346.06,163.1L346.98,158.19L347.21,148.39L347.87,143.48L348.75,153.29L349.17,148.39L349.17,153.29L349.91,148.39L350.19,153.29L350.19,163.1L350.77,158.19L352.15,153.29L352.36,143.48L352.82,158.19L352.83,158.19L352.83,163.1L353.5,153.29L353.72,148.39L354.54,138.58L354.55,143.48L357.73,138.58L358.12,143.48L359.54,138.58L360,133.68L360.01,138.58L360.79,143.48L361.08,138.58L361.16,148.39L361.94,143.48L363.08,128.77L363.08,133.68L363.54,123.87L364.12,118.97L364.56,128.77L364.58,118.97L365.13,123.87L365.13,118.97L365.74,123.87L366.48,118.97L366.63,123.87L367.33,118.97L367.9,114.06L368.12,118.97L368.53,104.26L368.59,114.06L369.39,109.16L369.44,104.26L370.29,99.35L371.43,94.45L371.53,89.55L372.26,69.94L372.63,65.03L372.75,69.94L374.52,65.03L374.81,60.13L375.92,55.23L376.07,99.35L376.19,99.35L377.71,94.45L378.67,89.55L378.68,94.45L380.57,89.55L380.58,94.45L381.01,89.55L383.51,84.65L383.51,89.55L384.21,89.55L384.82,84.65L385.6,65.03L385.67,69.94L386.89,65.03L386.99,55.23L387.44,79.74L387.45,84.65L387.82,79.74L388.05,84.65L389.05,79.74L389.9,60.13L390.12,55.23L390.73,79.74L390.84,65.03L391.03,60.13L391.77,89.55L392.01,84.65L392.67,128.77L392.8,123.87L392.87,128.77L392.87,133.68L393.52,133.68L393.66,138.58L393.68,158.19L394.07,153.29L394.84,158.19L394.85,153.29L394.89,158.19L397.41,153.29L398.04,138.58L398.07,143.48L398.32,148.39L401.98,143.48L402,148.39L402.73,138.58L403.67,143.48L404.82,138.58L405.77,133.68L405.77,138.58L407.68,133.68L407.83,123.87L408.88,128.77L409.44,118.97L409.45,114.06L409.46,94.45L413.33,99.35L414.44,79.74L416.62,74.84L417.13,65.03L417.13,69.94L417.14,74.84L419.29,65.03L419.75,60.13L422.61,50.32L422.81,45.42L423.4,40.52L423.4,45.42L423.58,50.32L424.19,74.84L424.33,69.94L424.95,65.03L425,69.94L425.33,45.42L425.75,40.52L425.94,25.81L426.14,40.52L426.14,45.42L426.15,55.23L426.81,35.61L426.94,30.71L427.23,25.81L427.34,40.52L427.36,45.42L427.41,40.52L427.86,60.13L428.09,60.13L428.14,55.23L428.22,50.32L428.23,69.94L428.72,60.13L428.83,65.03L428.83,69.94L428.86,60.13L429.15,60.13L429.84,55.23L429.91,50.32L430.35,79.74L430.35,74.84L430.78,69.94L431.29,35.61L431.49,89.55L431.81,84.65L432.26,55.23L432.41,74.84L432.41,79.74L432.47,89.55L433.05,74.84L433.09,79.74L433.71,74.84L433.86,89.55L434.44,65.03L434.52,60.13L434.58,65.03L434.96,40.52L434.97,35.61L435.01,16L435.14,99.35L435.47,79.74L435.89,74.84L436.33,65.03L436.43,74.84L436.57,79.74L437.25,69.94L437.52,74.84L438.05,89.55L438.24,79.74L438.35,84.65L438.7,74.84L439.09,99.35L439.22,94.45L439.54,79.74L439.69,104.26L439.72,99.35L440.13,94.45L440.82,118.97L441.43,114.06L441.79,118.97L441.79,109.16L442.18,104.26L442.44,79.74L443.19,84.65L443.33,109.16L443.65,74.84L443.82,84.65L443.99,89.55L444.22,84.65L444.39,99.35L445.59,94.45L445.73,104.26L445.9,94.45L446.59,89.55L446.75,94.45L446.93,84.65L447.29,79.74L447.32,94.45L447.73,84.65L448.46,79.74L448.98,74.84L448.98,79.74L448.99,84.65L449.53,74.84L449.53,69.94L449.54,65.03L449.58,84.65L449.72,69.94L450.6,65.03L450.84,50.32L450.97,69.94L451.05,74.84L451.78,114.06L452.05,104.26L452.06,99.35L452.43,94.45L452.43,104.26L452.43,109.16L452.43,104.26L452.43,118.97L453.05,114.06L453.28,109.16L453.53,114.06L453.79,94.45L453.82,104.26L453.92,99.35L453.94,94.45L454.4,128.77L454.51,128.77L454.67,123.87L454.78,94.45L454.8,128.77L455.45,104.26L455.52,99.35L455.71,109.16L456.16,84.65L456.44,89.55L456.99,133.68L457.16,128.77L457.59,133.68L458.04,109.16L458.35,114.06L458.6,109.16L458.6,114.06L459.06,104.26L459.06,104.26L460.21,99.35L460.83,89.55L460.83,94.45L461.66,89.55L461.71,84.65L461.74,123.87L462.16,118.97L462.72,123.87L462.84,128.77L462.99,109.16L462.99,109.16L463.01,104.26L463.44,89.55L463.73,109.16L463.74,109.16L463.77,114.06L464.11,99.35L464.19,128.77L464.28,123.87L464.31,128.77L464.47,133.68L465.1,118.97L465.1,123.87L465.1,128.77L465.36,123.87L465.71,133.68L465.71,128.77L465.78,133.68L466.08,138.58L466.4,118.97L466.42,123.87L466.84,118.97L467.96,104.26L468.3,109.16L468.33,104.26L468.47,123.87L468.91,123.87L469.21,118.97L469.23,123.87L469.5,114.06L469.76,123.87L470.07,118.97L470.39,138.58L470.66,128.77L470.98,133.68L471.67,123.87L471.67,128.77L471.92,123.87L472.1,109.16L472.11,128.77L472.29,118.97L473.02,123.87L473.41,118.97L473.58,138.58L474,133.68L474.31,128.77L474.32,138.58L474.61,133.68L474.91,128.77L475.6,123.87L475.6,128.77L475.77,133.68L475.79,128.77L475.93,153.29L476.34,148.39L476.49,153.29L476.64,138.58L477.13,148.39L477.25,153.29L478.02,138.58L478.1,133.68L478.11,128.77L478.26,158.19L478.81,153.29L478.83,158.19L479.57,148.39L479.58,158.19L479.88,153.29L480.04,168L480.46,163.1L480.77,158.19L481.63,153.29L481.76,158.19L482.57,148.39L482.58,143.48L482.69,172.9L483.25,158.19L483.41,153.29L483.42,172.9L484.16,168L484.25,172.9L484.45,158.19L484.58,163.1L485.15,158.19L485.15,163.1L485.28,148.39L485.9,153.29L485.91,148.39L485.91,143.48L486.33,163.1L486.66,158.19L486.69,153.29L487.39,143.48L487.65,148.39L487.65,153.29L487.67,143.48L487.7,148.39L488.68,143.48L488.68,148.39L489.3,138.58L489.31,143.48L489.46,138.58L490.46,123.87L490.46,128.77L490.58,133.68L490.89,123.87L491.83,128.77L491.91,133.68L492.48,123.87L492.48,128.77L492.53,123.87L493.07,148.39L493.11,148.39L493.51,143.48L493.54,153.29L494.26,133.68L494.4,128.77L494.57,123.87L494.57,143.48L494.88,133.68L494.89,138.58L495.56,133.68L495.56,138.58L495.94,133.68L495.94,138.58L496.17,123.87L496.19,138.58L496.89,133.68L497.04,158.19L497.62,153.29L497.66,148.39L497.7,143.48L498.36,172.9L499.16,168L499.57,172.9L499.6,168L500.28,163.1L500.84,172.9L501.65,168L502.1,158.19L502.52,163.1L502.6,168L502.97,158.19L502.98,163.1L503.04,168L503.06,172.9L503.09,163.1L503.22,168L503.78,163.1L503.78,168L504.22,153.29L504.29,158.19L505,163.1L505.14,153.29L505.64,163.1L506.54,158.19L507.43,153.29L507.43,158.19L507.43,153.29L507.47,163.1L508.05,163.1L508.95,158.19L509.07,148.39L509.08,163.1L509.23,153.29L510.09,158.19L510.7,138.58L511.04,133.68L511.57,138.58L511.76,133.68L511.76,128.77L512.42,109.16L512.42,138.58L512.52,133.68L513.07,123.87L513.08,133.68L513.08,138.58L513.69,133.68L513.94,138.58L514.06,133.68L514.38,148.39L515.05,153.29L515.55,143.48L515.68,153.29L515.68,158.19L515.68,153.29L516.08,168L516.38,168L516.54,163.1L517.18,158.19L517.26,163.1L517.29,168L517.49,153.29L517.64,158.19L518.31,153.29L519.19,168L519.23,163.1L519.48,168L519.93,158.19L520.2,163.1L520.55,148.39L520.64,158.19L521.44,153.29L521.84,163.1L521.91,148.39L522.27,143.48L522.86,133.68L522.88,153.29L522.98,158.19L523.62,143.48L524.21,138.58L525,128.77L525.41,133.68L525.41,138.58L526.41,133.68L526.67,143.48L527.13,123.87L527.13,143.48L527.18,138.58L528.01,133.68L529.46,128.77L530.67,109.16L530.78,114.06L530.78,123.87L530.96,109.16L531,109.16L533.3,114.06L533.71,104.26L533.74,138.58L534.02,133.68L534.03,143.48L534.15,138.58L534.9,133.68L534.9,128.77L535.19,138.58L535.2,133.68L535.8,128.77L535.93,109.16L536.21,123.87L536.66,128.77L537.27,109.16L537.72,104.26L537.85,109.16L538.02,99.35L538.02,109.16L540,104.26L540,109.16" style="fill: rgb(44, 160, 44); fill-opacity: 0.5; stroke-width: 0;"/></g></g><g class="errorbars"/><g class="lines"><path class="js-line" d="M0,315.1L0.1,320L1.07,315.1L1.77,320L1.88,315.1L1.88,320L3.19,315.1L3.66,320L3.96,315.1L3.96,320L4.85,315.1L4.85,320L4.95,320L5.71,315.1L5.71,320L6.32,320L7.18,315.1L7.18,320L7.78,320L9.37,315.1L9.37,320L10.03,315.1L10.26,320L12.02,315.1L12.02,320L14.96,315.1L14.96,320L22.59,315.1L22.59,320L22.8,315.1L22.8,320L24.46,315.1L24.46,310.19L24.61,315.1L25.79,320L27.55,315.1L27.55,320L28.46,310.19L28.46,315.1L28.91,310.19L28.91,315.1L28.91,320L31.84,315.1L31.84,320L31.99,315.1L31.99,320L33.27,315.1L33.27,320L33.89,320L34.81,315.1L34.81,320L35.61,315.1L35.61,320L36.14,320L36.39,315.1L36.48,320L37.72,315.1L39.17,310.19L39.62,315.1L39.74,310.19L39.74,315.1L41.08,320L41.83,315.1L41.83,320L43.59,315.1L43.59,320L44.72,315.1L44.72,320L45.22,300.39L45.34,305.29L45.88,310.19L46.33,315.1L46.79,310.19L46.8,315.1L48.1,310.19L52.08,305.29L52.08,310.19L52.38,315.1L53.2,310.19L54.14,320L55.6,315.1L56.01,320L59.26,315.1L59.26,320L59.26,315.1L60.81,310.19L61.14,315.1L61.96,310.19L62.76,305.29L62.79,310.19L62.79,305.29L63.38,320L65.29,315.1L65.59,320L66.29,315.1L66.45,310.19L67.46,315.1L67.64,305.29L67.77,310.19L68.63,315.1L68.95,310.19L68.95,315.1L69.52,310.19L69.6,300.39L69.71,320L69.8,320L70.41,315.1L71.28,310.19L71.28,315.1L72.04,305.29L72.05,310.19L72.77,305.29L77.44,300.39L77.93,295.48L79.67,320L80.7,315.1L80.7,320L81.7,315.1L82.94,310.19L83,315.1L83.94,310.19L84.1,305.29L85.05,295.48L85.05,300.39L85.07,305.29L86.25,295.48L86.27,300.39L87.13,295.48L87.13,300.39L87.43,305.29L88.02,300.39L88.02,305.29L88.02,300.39L89.89,305.29L90.08,300.39L90.08,305.29L91,300.39L91.25,305.29L91.99,300.39L92.47,295.48L93.26,300.39L94.01,295.48L94.31,300.39L96.65,295.48L96.65,300.39L97.26,295.48L97.28,300.39L98.71,305.29L99.23,300.39L99.44,305.29L99.59,300.39L99.59,305.29L100.64,300.39L100.65,270.97L101.37,295.48L101.66,300.39L101.66,305.29L101.82,295.48L102.23,295.48L102.84,290.58L103.58,295.48L103.76,290.58L104.3,280.77L104.47,290.58L104.57,295.48L105.21,275.87L105.3,285.68L105.34,290.58L105.34,285.68L106.34,290.58L106.79,275.87L106.79,275.87L107.34,280.77L108.42,256.26L109.41,251.35L110.47,256.26L110.76,251.35L111.5,261.16L111.5,261.16L111.63,256.26L111.94,275.87L112.08,270.97L112.75,266.06L113.27,246.45L113.27,251.35L113.67,256.26L113.71,261.16L114.58,256.26L114.71,251.35L114.73,256.26L116.06,261.16L116.18,280.77L116.78,275.87L116.79,270.97L116.8,280.77L117.93,275.87L117.93,280.77L120.15,275.87L120.16,270.97L120.16,280.77L122.21,275.87L122.22,280.77L122.22,275.87L123.32,280.77L123.38,275.87L125.28,270.97L126.15,280.77L126.15,275.87L126.31,280.77L126.48,275.87L126.48,280.77L127.34,275.87L127.67,280.77L128.4,275.87L128.42,280.77L130.11,275.87L130.14,280.77L132.04,275.87L132.15,280.77L132.55,275.87L133.05,270.97L133.18,275.87L134.1,270.97L134.1,275.87L134.52,256.26L134.67,256.26L135.07,251.35L135.43,275.87L135.43,275.87L136.45,270.97L136.56,280.77L136.75,280.77L137.47,275.87L138.48,270.97L138.6,266.06L139.18,270.97L139.37,266.06L140.23,251.35L140.26,256.26L141.27,241.55L141.27,236.65L141.28,231.74L141.43,261.16L142.74,256.26L142.86,251.35L142.87,256.26L144.35,251.35L145.14,270.97L146.39,266.06L146.81,270.97L148.47,266.06L149.59,261.16L149.59,266.06L150.95,251.35L150.96,256.26L151.22,261.16L151.25,266.06L151.66,256.26L151.66,261.16L152,256.26L152,261.16L153.02,266.06L153.2,275.87L153.93,270.97L154.02,266.06L155.68,261.16L156.23,246.45L156.24,251.35L156.24,256.26L156.3,270.97L158.15,266.06L158.25,270.97L158.3,266.06L159.93,261.16L159.95,266.06L161.35,261.16L161.35,266.06L161.79,261.16L162.26,256.26L162.97,251.35L163,256.26L165.94,261.16L169.08,251.35L169.84,246.45L170.63,251.35L171.36,246.45L171.37,251.35L174.13,246.45L174.6,251.35L175.23,246.45L176.49,241.55L176.74,246.45L176.74,241.55L176.78,280.77L176.79,275.87L179.25,270.97L179.26,275.87L181.67,280.77L182.81,275.87L182.81,280.77L183.46,275.87L183.49,280.77L185.76,275.87L185.93,270.97L187.36,275.87L187.37,280.77L187.98,241.55L188.06,246.45L188.06,241.55L188.09,261.16L189.66,256.26L190,241.55L191.71,236.65L192.23,231.74L192.24,236.65L194.51,231.74L195.01,236.65L196.38,231.74L196.69,236.65L197,231.74L199.25,226.84L202.33,221.94L202.43,226.84L203.36,221.94L204.08,226.84L204.12,217.03L204.35,221.94L205.26,226.84L205.53,246.45L206.38,251.35L206.46,256.26L206.56,246.45L210.1,241.55L210.68,246.45L211.39,241.55L211.54,236.65L213.75,231.74L216.8,226.84L218.43,221.94L218.45,217.03L219.81,212.13L220.62,217.03L220.64,212.13L220.95,246.45L220.96,241.55L221.97,246.45L222.41,251.35L222.42,246.45L223.6,251.35L224.08,261.16L224.46,256.26L224.48,261.16L225.02,246.45L225.07,256.26L225.65,261.16L225.68,266.06L226.61,261.16L227.83,256.26L227.84,261.16L229.89,251.35L230.18,246.45L232.61,241.55L233.77,246.45L235.41,241.55L235.9,236.65L238.28,226.84L238.29,231.74L239.17,217.03L241.06,212.13L241.35,197.42L241.9,192.52L243,182.71L243.05,187.61L245.36,153.29L245.44,158.19L245.45,163.1L245.61,148.39L246.03,158.19L246.22,153.29L246.33,148.39L247.66,143.48L247.81,138.58L248.09,153.29L248.09,158.19L248.27,187.61L248.56,177.81L249.07,172.9L250.15,256.26L250.39,251.35L250.58,246.45L250.59,241.55L251.21,256.26L251.3,251.35L251.5,246.45L252.35,256.26L252.45,261.16L252.47,251.35L252.91,266.06L253.23,270.97L253.65,256.26L253.69,251.35L254.26,266.06L254.51,261.16L254.66,266.06L254.82,261.16L255.53,256.26L255.57,251.35L256.41,256.26L256.92,246.45L257.58,241.55L258.47,231.74L258.47,236.65L258.53,231.74L259.36,226.84L259.36,231.74L259.97,226.84L260.76,221.94L260.87,217.03L261.85,221.94L265.6,217.03L265.7,212.13L265.96,207.23L266.28,212.13L267.92,207.23L268.89,197.42L269.25,192.52L269.65,187.61L271.29,182.71L271.75,168L271.96,182.71L271.96,187.61L273.22,163.1L275.34,158.19L275.41,148.39L276.48,143.48L278.17,133.68L278.21,138.58L278.22,172.9L278.87,153.29L279.16,148.39L279.16,153.29L279.31,148.39L281.51,143.48L283.26,138.58L283.45,133.68L285.26,128.77L285.26,133.68L285.27,128.77L285.27,133.68L286.26,128.77L286.45,123.87L287.15,128.77L287.69,148.39L287.87,143.48L288.13,148.39L288.34,153.29L289.93,148.39L290.47,153.29L290.82,148.39L292.62,138.58L292.62,143.48L293.44,138.58L293.48,133.68L293.55,128.77L294.74,133.68L295.32,192.52L297.95,187.61L298.46,192.52L298.86,187.61L298.88,192.52L301.78,187.61L302.51,197.42L302.54,192.52L302.66,187.61L302.66,192.52L302.92,192.52L303.63,197.42L303.81,187.61L303.82,192.52L306.24,187.61L306.26,182.71L307.07,177.81L309.15,172.9L309.69,168L309.85,153.29L309.9,177.81L310.27,168L310.74,172.9L311.22,182.71L311.46,177.81L311.72,172.9L312.54,236.65L312.78,231.74L313.79,217.03L314.43,212.13L315.47,187.61L316.46,182.71L317.38,177.81L317.49,172.9L318.36,158.19L318.4,163.1L319.4,109.16L321.66,104.26L323.63,99.35L323.63,94.45L327.12,99.35L327.2,94.45L328.5,89.55L328.93,84.65L331.01,65.03L331.01,60.13L331.15,50.32L331.56,153.29L331.88,148.39L332.33,143.48L332.35,158.19L332.61,153.29L332.77,148.39L333.82,123.87L333.95,128.77L336.36,123.87L336.88,118.97L337.18,123.87L338.16,118.97L338.57,123.87L339.76,118.97L341.26,123.87L341.29,138.58L341.96,133.68L342.69,138.58L343.14,168L343.58,172.9L343.72,168L344.03,182.71L344.24,177.81L344.63,182.71L345.21,177.81L346.06,163.1L346.98,158.19L347.21,148.39L347.87,143.48L348.75,153.29L349.17,148.39L349.17,153.29L349.91,148.39L350.19,153.29L350.19,163.1L350.77,158.19L352.15,153.29L352.36,143.48L352.82,158.19L352.83,158.19L352.83,163.1L353.5,153.29L353.72,148.39L354.54,138.58L354.55,143.48L357.73,138.58L358.12,143.48L359.54,138.58L360,133.68L360.01,138.58L360.79,143.48L361.08,138.58L361.16,148.39L361.94,143.48L363.08,128.77L363.08,133.68L363.54,123.87L364.12,118.97L364.56,128.77L364.58,118.97L365.13,123.87L365.13,118.97L365.74,123.87L366.48,118.97L366.63,123.87L367.33,118.97L367.9,114.06L368.12,118.97L368.53,104.26L368.59,114.06L369.39,109.16L369.44,104.26L370.29,99.35L371.43,94.45L371.53,89.55L372.26,69.94L372.63,65.03L372.75,69.94L374.52,65.03L374.81,60.13L375.92,55.23L376.07,99.35L376.19,99.35L377.71,94.45L378.67,89.55L378.68,94.45L380.57,89.55L380.58,94.45L381.01,89.55L383.51,84.65L383.51,89.55L384.21,89.55L384.82,84.65L385.6,65.03L385.67,69.94L386.89,65.03L386.99,55.23L387.44,79.74L387.45,84.65L387.82,79.74L388.05,84.65L389.05,79.74L389.9,60.13L390.12,55.23L390.73,79.74L390.84,65.03L391.03,60.13L391.77,89.55L392.01,84.65L392.67,128.77L392.8,123.87L392.87,128.77L392.87,133.68L393.52,133.68L393.66,138.58L393.68,158.19L394.07,153.29L394.84,158.19L394.85,153.29L394.89,158.19L397.41,153.29L398.04,138.58L398.07,143.48L398.32,148.39L401.98,143.48L402,148.39L402.73,138.58L403.67,143.48L404.82,138.58L405.77,133.68L405.77,138.58L407.68,133.68L407.83,123.87L408.88,128.77L409.44,118.97L409.45,114.06L409.46,94.45L413.33,99.35L414.44,79.74L416.62,74.84L417.13,65.03L417.13,69.94L417.14,74.84L419.29,65.03L419.75,60.13L422.61,50.32L422.81,45.42L423.4,40.52L423.4,45.42L423.58,50.32L424.19,74.84L424.33,69.94L424.95,65.03L425,69.94L425.33,45.42L425.75,40.52L425.94,25.81L426.14,40.52L426.14,45.42L426.15,55.23L426.81,35.61L426.94,30.71L427.23,25.81L427.34,40.52L427.36,45.42L427.41,40.52L427.86,60.13L428.09,60.13L428.14,55.23L428.22,50.32L428.23,69.94L428.72,60.13L428.83,65.03L428.83,69.94L428.86,60.13L429.15,60.13L429.84,55.23L429.91,50.32L430.35,79.74L430.35,74.84L430.78,69.94L431.29,35.61L431.49,89.55L431.81,84.65L432.26,55.23L432.41,74.84L432.41,79.74L432.47,89.55L433.05,74.84L433.09,79.74L433.71,74.84L433.86,89.55L434.44,65.03L434.52,60.13L434.58,65.03L434.96,40.52L434.97,35.61L435.01,16L435.14,99.35L435.47,79.74L435.89,74.84L436.33,65.03L436.43,74.84L436.57,79.74L437.25,69.94L437.52,74.84L438.05,89.55L438.24,79.74L438.35,84.65L438.7,74.84L439.09,99.35L439.22,94.45L439.54,79.74L439.69,104.26L439.72,99.35L440.13,94.45L440.82,118.97L441.43,114.06L441.79,118.97L441.79,109.16L442.18,104.26L442.44,79.74L443.19,84.65L443.33,109.16L443.65,74.84L443.82,84.65L443.99,89.55L444.22,84.65L444.39,99.35L445.59,94.45L445.73,104.26L445.9,94.45L446.59,89.55L446.75,94.45L446.93,84.65L447.29,79.74L447.32,94.45L447.73,84.65L448.46,79.74L448.98,74.84L448.98,79.74L448.99,84.65L449.53,74.84L449.53,69.94L449.54,65.03L449.58,84.65L449.72,69.94L450.6,65.03L450.84,50.32L450.97,69.94L451.05,74.84L451.78,114.06L452.05,104.26L452.06,99.35L452.43,94.45L452.43,104.26L452.43,109.16L452.43,104.26L452.43,118.97L453.05,114.06L453.28,109.16L453.53,114.06L453.79,94.45L453.82,104.26L453.92,99.35L453.94,94.45L454.4,128.77L454.51,128.77L454.67,123.87L454.78,94.45L454.8,128.77L455.45,104.26L455.52,99.35L455.71,109.16L456.16,84.65L456.44,89.55L456.99,133.68L457.16,128.77L457.59,133.68L458.04,109.16L458.35,114.06L458.6,109.16L458.6,114.06L459.06,104.26L459.06,104.26L460.21,99.35L460.83,89.55L460.83,94.45L461.66,89.55L461.71,84.65L461.74,123.87L462.16,118.97L462.72,123.87L462.84,128.77L462.99,109.16L462.99,109.16L463.01,104.26L463.44,89.55L463.73,109.16L463.74,109.16L463.77,114.06L464.11,99.35L464.19,128.77L464.28,123.87L464.31,128.77L464.47,133.68L465.1,118.97L465.1,123.87L465.1,128.77L465.36,123.87L465.71,133.68L465.71,128.77L465.78,133.68L466.08,138.58L466.4,118.97L466.42,123.87L466.84,118.97L467.96,104.26L468.3,109.16L468.33,104.26L468.47,123.87L468.91,123.87L469.21,118.97L469.23,123.87L469.5,114.06L469.76,123.87L470.07,118.97L470.39,138.58L470.66,128.77L470.98,133.68L471.67,123.87L471.67,128.77L471.92,123.87L472.1,109.16L472.11,128.77L472.29,118.97L473.02,123.87L473.41,118.97L473.58,138.58L474,133.68L474.31,128.77L474.32,138.58L474.61,133.68L474.91,128.77L475.6,123.87L475.6,128.77L475.77,133.68L475.79,128.77L475.93,153.29L476.34,148.39L476.49,153.29L476.64,138.58L477.13,148.39L477.25,153.29L478.02,138.58L478.1,133.68L478.11,128.77L478.26,158.19L478.81,153.29L478.83,158.19L479.57,148.39L479.58,158.19L479.88,153.29L480.04,168L480.46,163.1L480.77,158.19L481.63,153.29L481.76,158.19L482.57,148.39L482.58,143.48L482.69,172.9L483.25,158.19L483.41,153.29L483.42,172.9L484.16,168L484.25,172.9L484.45,158.19L484.58,163.1L485.15,158.19L485.15,163.1L485.28,148.39L485.9,153.29L485.91,148.39L485.91,143.48L486.33,163.1L486.66,158.19L486.69,153.29L487.39,143.48L487.65,148.39L487.65,153.29L487.67,143.48L487.7,148.39L488.68,143.48L488.68,148.39L489.3,138.58L489.31,143.48L489.46,138.58L490.46,123.87L490.46,128.77L490.58,133.68L490.89,123.87L491.83,128.77L491.91,133.68L492.48,123.87L492.48,128.77L492.53,123.87L493.07,148.39L493.11,148.39L493.51,143.48L493.54,153.29L494.26,133.68L494.4,128.77L494.57,123.87L494.57,143.48L494.88,133.68L494.89,138.58L495.56,133.68L495.56,138.58L495.94,133.68L495.94,138.58L496.17,123.87L496.19,138.58L496.89,133.68L497.04,158.19L497.62,153.29L497.66,148.39L497.7,143.48L498.36,172.9L499.16,168L499.57,172.9L499.6,168L500.28,163.1L500.84,172.9L501.65,168L502.1,158.19L502.52,163.1L502.6,168L502.97,158.19L502.98,163.1L503.04,168L503.06,172.9L503.09,163.1L503.22,168L503.78,163.1L503.78,168L504.22,153.29L504.29,158.19L505,163.1L505.14,153.29L505.64,163.1L506.54,158.19L507.43,153.29L507.43,158.19L507.43,153.29L507.47,163.1L508.05,163.1L508.95,158.19L509.07,148.39L509.08,163.1L509.23,153.29L510.09,158.19L510.7,138.58L511.04,133.68L511.57,138.58L511.76,133.68L511.76,128.77L512.42,109.16L512.42,138.58L512.52,133.68L513.07,123.87L513.08,133.68L513.08,138.58L513.69,133.68L513.94,138.58L514.06,133.68L514.38,148.39L515.05,153.29L515.55,143.48L515.68,153.29L515.68,158.19L515.68,153.29L516.08,168L516.38,168L516.54,163.1L517.18,158.19L517.26,163.1L517.29,168L517.49,153.29L517.64,158.19L518.31,153.29L519.19,168L519.23,163.1L519.48,168L519.93,158.19L520.2,163.1L520.55,148.39L520.64,158.19L521.44,153.29L521.84,163.1L521.91,148.39L522.27,143.48L522.86,133.68L522.88,153.29L522.98,158.19L523.62,143.48L524.21,138.58L525,128.77L525.41,133.68L525.41,138.58L526.41,133.68L526.67,143.48L527.13,123.87L527.13,143.48L527.18,138.58L528.01,133.68L529.46,128.77L530.67,109.16L530.78,114.06L530.78,123.87L530.96,109.16L531,109.16L533.3,114.06L533.71,104.26L533.74,138.58L534.02,133.68L534.03,143.48L534.15,138.58L534.9,133.68L534.9,128.77L535.19,138.58L535.2,133.68L535.8,128.77L535.93,109.16L536.21,123.87L536.66,128.77L537.27,109.16L537.72,104.26L537.85,109.16L538.02,99.35L538.02,109.16L540,104.26L540,109.16" style="vector-effect: none; fill: none; stroke: rgb(44, 160, 44); stroke-opacity: 1; stroke-width: 2px; opacity: 1;"/></g><g class="points"/><g class="text"/></g></g></g></g><g class="zerolinelayer-above"/><path class="xlines-above crisp" d="M0,0" style="fill: none;"/><path class="ylines-above crisp" d="M0,0" style="fill: none;"/><g class="overlines-above"/><g class="xaxislayer-above"><g class="xtick"><text text-anchor="middle" x="0" y="439" transform="translate(97.52,0)" style="font-family: 'Open Sans'; font-size: 18px; fill: rgb(0, 0, 0); fill-opacity: 1; white-space: pre;">2016</text></g><g class="xtick"><text text-anchor="middle" x="0" y="439" style="font-family: 'Open Sans'; font-size: 18px; fill: rgb(0, 0, 0); fill-opacity: 1; white-space: pre;" transform="translate(204.76,0)">2018</text></g><g class="xtick"><text text-anchor="middle" x="0" y="439" style="font-family: 'Open Sans'; font-size: 18px; fill: rgb(0, 0, 0); fill-opacity: 1; white-space: pre;" transform="translate(311.86,0)">2020</text></g><g class="xtick"><text text-anchor="middle" x="0" y="439" style="font-family: 'Open Sans'; font-size: 18px; fill: rgb(0, 0, 0); fill-opacity: 1; white-space: pre;" transform="translate(419.11,0)">2022</text></g><g class="xtick"><text text-anchor="middle" x="0" y="439" style="font-family: 'Open Sans'; font-size: 18px; fill: rgb(0, 0, 0); fill-opacity: 1; white-space: pre;" transform="translate(526.2,0)">2024</text></g></g><g class="yaxislayer-above"><g class="ytick"><text text-anchor="end" x="79" y="6.3" transform="translate(0,420)" style="font-family: 'Open Sans'; font-size: 18px; fill: rgb(0, 0, 0); fill-opacity: 1; white-space: pre;">0</text></g><g class="ytick"><text text-anchor="end" x="79" y="6.3" style="font-family: 'Open Sans'; font-size: 18px; fill: rgb(0, 0, 0); fill-opacity: 1; white-space: pre;" transform="translate(0,370.97)">10</text></g><g class="ytick"><text text-anchor="end" x="79" y="6.3" style="font-family: 'Open Sans'; font-size: 18px; fill: rgb(0, 0, 0); fill-opacity: 1; white-space: pre;" transform="translate(0,321.94)">20</text></g><g class="ytick"><text text-anchor="end" x="79" y="6.3" style="font-family: 'Open Sans'; font-size: 18px; fill: rgb(0, 0, 0); fill-opacity: 1; white-space: pre;" transform="translate(0,272.9)">30</text></g><g class="ytick"><text text-anchor="end" x="79" y="6.3" style="font-family: 'Open Sans'; font-size: 18px; fill: rgb(0, 0, 0); fill-opacity: 1; white-space: pre;" transform="translate(0,223.87)">40</text></g><g class="ytick"><text text-anchor="end" x="79" y="6.3" style="font-family: 'Open Sans'; font-size: 18px; fill: rgb(0, 0, 0); fill-opacity: 1; white-space: pre;" transform="translate(0,174.84)">50</text></g><g class="ytick"><text text-anchor="end" x="79" y="6.3" style="font-family: 'Open Sans'; font-size: 18px; fill: rgb(0, 0, 0); fill-opacity: 1; white-space: pre;" transform="translate(0,125.81)">60</text></g></g><g class="overaxes-above"/></g></g><g class="polarlayer"/><g class="smithlayer"/><g class="ternarylayer"/><g class="geolayer"/><g class="funnelarealayer"/><g class="pielayer"/><g class="iciclelayer"/><g class="treemaplayer"/><g class="sunburstlayer"/><g class="glimages"/><defs id="topdefs-caef2a"><g class="clips"/></defs><g class="layer-above"><g class="imagelayer"/><g class="shapelayer"/></g><g class="infolayer"><g class="g-gtitle"><text class="gtitle" x="35" y="50" text-anchor="start" dy="0em" style="opacity: 1; font-family: 'Open Sans'; font-size: 25px; fill: rgb(0, 0, 0); fill-opacity: 1; white-space: pre;">MultiQC/MultiQC - Open Pull Requests Over Time</text></g><g class="g-xtitle"><text class="xtitle" x="350" y="472.9" text-anchor="middle" style="opacity: 1; font-family: 'Open Sans'; font-size: 22px; fill: rgb(0, 0, 0); fill-opacity: 1; white-space: pre;">Date</text></g><g class="g-ytitle"><text class="ytitle" transform="rotate(-90,38.8,260)" x="38.8" y="260" text-anchor="middle" style="opacity: 1; font-family: 'Open Sans'; font-size: 22px; fill: rgb(0, 0, 0); fill-opacity: 1; white-space: pre;">Number of Open PRs</text></g></g></svg>