<svg class="main-svg" xmlns="http://www.w3.org/2000/svg" xmlns:xlink="http://www.w3.org/1999/xlink" width="700" height="500" style="" viewBox="0 0 700 500"><rect x="0" y="0" width="700" height="500" style="fill: rgb(0, 0, 0); fill-opacity: 0;"/><defs id="defs-88f4e1"><g class="clips"><clipPath id="clip88f4e1xyplot" class="plotclip"><rect width="540" height="320"/></clipPath><clipPath class="axesclip" id="clip88f4e1x"><rect x="80" y="0" width="540" height="500"/></clipPath><clipPath class="axesclip" id="clip88f4e1y"><rect x="0" y="100" width="700" height="320"/></clipPath><clipPath class="axesclip" id="clip88f4e1xy"><rect x="80" y="100" width="540" height="320"/></clipPath></g><g class="gradients"/><g class="patterns"/></defs><g class="bglayer"><rect class="bg" x="80" y="100" width="540" height="320" style="fill: rgb(0, 0, 0); fill-opacity: 0; stroke-width: 0;"/></g><g class="layer-below"><g class="imagelayer"/><g class="shapelayer"/></g><g class="cartesianlayer"><g class="subplot xy"><g class="layer-subplot"><g class="shapelayer"/><g class="imagelayer"/></g><g class="minor-gridlayer"><g class="x"/><g class="y"/></g><g class="gridlayer"><g class="x"><path class="xgrid crisp" transform="translate(96.35,0)" d="M0,100v320" style="stroke: rgb(255, 255, 255); stroke-opacity: 1; stroke-width: 1px;"/><path class="xgrid crisp" transform="translate(196.47,0)" d="M0,100v320" style="stroke: rgb(255, 255, 255); stroke-opacity: 1; stroke-width: 1px;"/><path class="xgrid crisp" transform="translate(296.46000000000004,0)" d="M0,100v320" style="stroke: rgb(255, 255, 255); stroke-opacity: 1; stroke-width: 1px;"/><path class="xgrid crisp" transform="translate(396.58,0)" d="M0,100v320" style="stroke: rgb(255, 255, 255); stroke-opacity: 1; stroke-width: 1px;"/><path class="xgrid crisp" transform="translate(496.56,0)" d="M0,100v320" style="stroke: rgb(255, 255, 255); stroke-opacity: 1; stroke-width: 1px;"/><path class="xgrid crisp" transform="translate(596.68,0)" d="M0,100v320" style="stroke: rgb(255, 255, 255); stroke-opacity: 1; stroke-width: 1px;"/></g><g class="y"><path class="ygrid crisp" transform="translate(0,373.94)" d="M80,0h540" style="stroke: rgb(255, 255, 255); stroke-opacity: 1; stroke-width: 1px;"/><path class="ygrid crisp" transform="translate(0,327.88)" d="M80,0h540" style="stroke: rgb(255, 255, 255); stroke-opacity: 1; stroke-width: 1px;"/><path class="ygrid crisp" transform="translate(0,281.82)" d="M80,0h540" style="stroke: rgb(255, 255, 255); stroke-opacity: 1; stroke-width: 1px;"/><path class="ygrid crisp" transform="translate(0,235.76)" d="M80,0h540" style="stroke: rgb(255, 255, 255); stroke-opacity: 1; stroke-width: 1px;"/><path class="ygrid crisp" transform="translate(0,189.7)" d="M80,0h540" style="stroke: rgb(255, 255, 255); stroke-opacity: 1; stroke-width: 1px;"/><path class="ygrid crisp" transform="translate(0,143.64)" d="M80,0h540" style="stroke: rgb(255, 255, 255); stroke-opacity: 1; stroke-width: 1px;"/></g></g><g class="zerolinelayer"><path class="yzl zl crisp" transform="translate(0,420)" d="M80,0h540" style="stroke: rgb(255, 255, 255); stroke-opacity: 1; stroke-width: 2px;"/></g><g class="layer-between"><g class="shapelayer"/><g class="imagelayer"/></g><path class="xlines-below"/><path class="ylines-below"/><g class="overlines-below"/><g class="xaxislayer-below"/><g class="yaxislayer-below"/><g class="overaxes-below"/><g class="overplot"><g class="xy" transform="translate(80,100)" clip-path="url(#clip88f4e1xyplot)"><g class="scatterlayer mlayer"><g class="trace scatter trace2f2db6" style="stroke-miterlimit: 2;"><g class="fills"><g><path class="js-fill" d="M540,320L0,320L0,317.7L0.1,320L0.99,317.7L1.65,320L1.76,317.7L1.76,320L2.97,317.7L3.69,320L4.53,317.7L4.53,320L4.62,320L5.33,317.7L5.33,320L5.9,320L6.71,317.7L6.71,320L7.27,320L8.75,317.7L8.75,320L9.36,317.7L9.57,320L11.22,317.7L11.22,320L13.97,317.7L13.97,320L21.09,317.7L21.09,320L21.28,317.7L21.28,320L22.84,317.7L22.84,315.39L22.98,317.7L24.08,320L25.72,317.7L25.72,320L26.99,315.39L26.99,317.7L26.99,320L29.72,317.7L29.72,320L29.86,320L31.06,317.7L31.06,320L31.64,320L32.5,317.7L32.5,320L33.25,320L33.29,317.7L33.29,320L33.97,317.7L34.06,320L36.57,315.39L36.98,317.7L37.1,315.39L37.1,317.7L38.35,320L39.05,317.7L39.05,320L40.7,317.7L40.7,320L41.75,317.7L41.75,320L42.22,310.79L42.32,313.09L42.83,315.39L43.26,317.7L43.68,315.39L43.69,317.7L44.9,315.39L48.62,313.09L48.62,315.39L48.9,317.7L49.67,315.39L50.54,320L51.91,317.7L51.91,320L52.29,320L55.32,317.7L55.32,320L55.32,317.7L56.77,315.39L57.08,317.7L57.84,315.39L58.62,313.09L58.63,315.39L59.17,320L60.95,317.7L61.24,320L61.89,317.7L62.04,315.39L62.97,317.7L63.15,313.09L63.27,315.39L64.07,317.7L64.37,315.39L64.37,317.7L64.9,315.39L64.97,310.79L65.08,320L65.16,320L65.73,317.7L66.55,315.39L66.55,317.7L67.25,313.09L67.26,315.39L67.94,313.09L72.29,310.79L72.75,308.48L74.37,320L75.34,317.7L75.34,320L76.27,317.7L77.43,315.39L77.48,317.7L78.51,313.09L78.91,310.79L79.4,308.48L79.4,310.79L79.42,313.09L80.52,308.48L80.54,310.79L81.34,308.48L81.34,310.79L81.62,313.09L82.17,310.79L82.17,313.09L82.18,310.79L83.92,313.09L84.1,310.79L84.1,313.09L84.96,310.79L85.19,313.09L85.88,310.79L86.32,308.48L87.07,310.79L87.76,308.48L88.04,310.79L90.23,308.48L90.23,310.79L90.8,308.48L90.82,310.79L92.15,313.09L92.64,310.79L92.83,313.09L92.97,310.79L92.98,313.09L93.95,310.79L93.96,296.97L94.64,308.48L94.9,310.79L94.91,313.09L95.06,308.48L95.44,308.48L96.01,306.18L96.69,308.48L96.87,306.18L97.38,301.58L97.53,306.18L97.62,308.48L98.22,299.27L98.34,303.88L99.27,306.18L99.69,299.27L99.69,299.27L100.21,301.58L101.22,290.06L102.14,287.76L103.13,290.06L103.4,287.76L104.1,292.36L104.1,292.36L104.22,290.06L104.51,299.27L104.63,296.97L105.26,294.67L105.74,285.45L105.75,287.76L106.12,290.06L106.15,292.36L106.97,290.06L107.09,287.76L107.11,290.06L108.35,292.36L109.04,301.58L110.1,299.27L110.1,301.58L112.17,299.27L112.17,296.97L112.18,301.58L114.09,299.27L114.1,301.58L114.1,299.27L115.13,301.58L115.18,299.27L116.96,296.97L117.92,301.58L118.05,299.27L118.08,301.58L118.88,299.27L119.19,301.58L119.87,299.27L119.89,301.58L121.47,299.27L121.49,301.58L123.27,299.27L123.37,301.58L123.75,299.27L124.21,296.97L124.33,299.27L125.19,296.97L125.19,299.27L125.59,290.06L125.72,290.06L126.1,287.76L126.43,299.27L126.43,299.27L127.38,296.97L127.49,301.58L127.66,301.58L128.34,299.27L129.28,296.97L129.39,294.67L129.94,296.97L130.11,294.67L130.21,292.36L130.91,287.76L130.94,290.06L131.24,287.76L131.45,290.06L131.88,287.76L131.89,285.45L131.89,278.55L132.04,292.36L133.26,290.06L133.37,287.76L133.38,290.06L134.76,287.76L135.5,296.97L136.67,294.67L137.06,296.97L138.6,294.67L139.65,292.36L139.65,294.67L140.92,287.76L140.93,290.06L141.17,292.36L141.2,294.67L141.58,290.06L141.59,292.36L141.9,290.06L141.9,292.36L142.85,294.67L143.02,299.27L143.7,296.97L143.79,294.67L145.34,292.36L145.85,285.45L145.86,290.06L145.87,292.36L145.91,296.97L147.65,294.67L147.74,296.97L147.78,294.67L149.31,292.36L149.32,294.67L150.63,292.36L150.63,294.67L151.04,292.36L151.48,290.06L152.14,287.76L152.17,290.06L154.92,292.36L157.85,287.76L158.55,285.45L159.3,287.76L159.98,285.45L159.99,287.76L162.56,285.45L163,287.76L163.59,285.45L164.76,283.15L165,285.45L165,283.15L165.04,301.58L165.04,299.27L167.34,296.97L167.35,299.27L169.6,301.58L170.66,299.27L170.66,301.58L171.27,299.27L171.3,301.58L173.42,299.27L173.58,296.97L174.91,299.27L174.92,301.58L175.49,283.15L175.6,292.36L177.06,290.06L177.38,283.15L178.98,280.85L179.46,278.55L179.47,280.85L181.59,278.55L182.05,280.85L183.33,278.55L183.62,280.85L183.91,278.55L186.01,276.24L188.88,273.94L188.98,276.24L189.85,273.94L190.53,276.24L190.56,271.64L190.78,273.94L191.62,276.24L191.87,285.45L192.67,287.76L192.74,290.06L192.84,285.45L196.14,283.15L196.68,285.45L197.34,283.15L197.48,280.85L199.55,278.55L202.4,276.24L203.92,273.94L203.94,271.64L205.21,269.33L205.97,271.64L205.98,269.33L206.27,285.45L206.28,283.15L207.22,285.45L207.63,287.76L207.64,285.45L208.75,287.76L209.19,292.36L209.55,290.06L209.57,292.36L210.07,285.45L210.11,290.06L210.66,292.36L210.69,294.67L211.56,292.36L212.69,290.06L212.7,292.36L214.62,287.76L214.89,285.45L217.16,283.15L218.24,285.45L219.77,283.15L220.23,280.85L222.45,276.24L222.46,278.55L223.28,271.64L225.04,269.33L225.83,260.12L226.1,257.82L226.86,255.52L226.9,257.82L229.06,241.7L229.14,244L229.14,246.3L229.29,239.39L229.86,241.7L229.96,239.39L231.21,237.09L231.35,234.79L231.61,244L231.61,246.3L231.78,257.82L232.04,253.21L232.52,250.91L233.53,290.06L233.76,287.76L233.93,285.45L233.94,283.15L234.52,290.06L234.61,287.76L234.79,285.45L235.68,292.36L235.69,290.06L235.69,287.76L236.41,296.97L236.64,294.67L236.64,296.97L236.84,287.76L237.36,294.67L237.6,292.36L237.74,294.67L237.89,292.36L238.56,290.06L238.59,287.76L239.37,290.06L239.85,285.45L240.46,283.15L242.13,276.24L242.13,278.55L243.54,271.64L244.45,273.94L247.95,271.64L248.05,269.33L248.29,267.03L248.59,269.33L250.12,267.03L251.02,262.42L251.36,260.12L251.74,257.82L253.27,255.52L253.69,248.61L253.89,255.52L253.89,257.82L255.06,246.3L257.05,244L257.12,239.39L258.11,237.09L259.69,232.48L259.72,234.79L259.74,250.91L260.34,241.7L260.62,239.39L260.62,241.7L260.75,239.39L262.81,237.09L264.44,234.79L264.62,232.48L266.31,230.18L266.31,232.48L266.31,230.18L266.31,232.48L267.24,230.18L267.42,227.88L268.07,230.18L268.99,239.39L269.19,241.7L270.67,239.39L271.18,241.7L272.5,237.09L273.18,234.79L273.18,237.09L273.94,234.79L274.05,230.18L275.16,232.48L275.7,260.12L278.16,257.82L278.63,260.12L279,257.82L279.02,260.12L281.73,257.82L282.41,262.42L282.44,260.12L282.55,257.82L282.55,260.12L282.8,260.12L283.46,262.42L283.63,257.82L283.63,260.12L285.89,257.82L286.67,253.21L288.61,250.91L289.12,246.3L289.25,244L289.27,241.7L289.31,253.21L289.65,248.61L290.09,250.91L290.55,255.52L290.76,253.21L291.01,250.91L291.78,280.85L292,278.55L292.94,271.64L293.54,269.33L294.51,257.82L295.43,255.52L296.4,250.91L296.46,248.61L297.85,239.39L297.87,237.09L298.18,220.97L300.29,218.67L302.13,216.36L302.13,214.06L305.39,216.36L305.46,214.06L307.08,209.45L307.64,207.15L309.02,200.24L309.02,197.94L309.15,193.33L309.53,241.7L309.83,239.39L310.25,237.09L310.27,244L310.51,241.7L310.66,239.39L311.65,227.88L311.76,230.18L314.02,227.88L314.5,225.58L314.78,227.88L315.7,225.58L316.07,227.88L317.19,225.58L318.59,227.88L318.61,234.79L319.24,232.48L319.92,234.79L320.34,248.61L320.75,250.91L320.88,248.61L321.18,255.52L321.37,253.21L321.74,255.52L322.82,248.61L323.07,246.3L323.92,244L323.95,241.7L324.76,237.09L325,239.39L325.58,241.7L325.98,239.39L325.98,241.7L326.66,239.39L326.92,241.7L326.92,246.3L327.47,244L328.75,241.7L328.96,237.09L329.38,244L329.39,244L329.39,246.3L330.02,241.7L330.22,239.39L330.98,234.79L331,237.09L333.96,234.79L334.33,237.09L335.66,234.79L336.09,232.48L336.09,234.79L336.82,237.09L337.09,234.79L337.17,239.39L337.89,237.09L338.96,230.18L338.96,232.48L339.38,227.88L339.93,225.58L340.34,230.18L340.36,225.58L340.87,227.88L340.87,225.58L341.44,227.88L342.14,225.58L342.27,227.88L342.93,225.58L344.04,220.97L344.05,218.67L344.1,223.27L344.85,220.97L345.69,216.36L346.75,214.06L347.88,200.24L347.99,202.55L349.64,200.24L349.91,197.94L350.94,195.64L350.94,197.94L351.09,211.76L351.09,214.06L351.09,216.36L351.09,211.76L351.2,216.36L352.61,214.06L353.51,211.76L353.52,214.06L355.29,211.76L355.29,214.06L355.7,211.76L358.03,209.45L358.03,211.76L358.68,211.76L359.26,209.45L359.98,200.24L360.05,202.55L361.19,200.24L361.28,195.64L361.71,209.45L362.06,207.15L362.27,209.45L363.21,207.15L364,197.94L364.21,195.64L364.77,207.15L364.87,200.24L365.06,197.94L365.74,211.76L365.97,209.45L366.77,232.48L366.84,230.18L367.53,244L367.89,241.7L368.66,244L371.01,241.7L371.6,234.79L371.62,237.09L371.85,239.39L375.27,237.09L375.29,239.39L375.98,234.79L376.85,237.09L377.93,234.79L378.82,232.48L378.82,234.79L380.6,232.48L380.73,227.88L381.71,230.18L382.24,223.27L382.25,220.97L382.26,214.06L385.87,216.36L386.91,207.15L388.94,204.85L389.42,200.24L389.42,202.55L389.42,204.85L391.43,200.24L391.87,197.94L394.53,193.33L394.72,191.03L395.27,188.73L395.27,191.03L395.44,193.33L396.01,204.85L396.14,202.55L396.72,200.24L396.76,202.55L397.07,191.03L397.46,188.73L397.64,181.82L397.83,191.03L397.84,193.33L397.84,195.64L398.57,184.12L398.7,181.82L399.43,197.94L399.48,195.64L399.77,193.33L399.78,202.55L400.24,197.94L400.34,200.24L400.34,202.55L400.37,197.94L400.64,197.94L401.29,195.64L401.35,193.33L401.76,207.15L401.76,204.85L402.16,202.55L402.64,186.42L402.82,211.76L403.12,209.45L403.54,195.64L403.68,207.15L403.68,209.45L403.73,211.76L404.28,204.85L404.32,207.15L404.9,204.85L405.03,211.76L405.58,200.24L405.66,197.94L405.71,200.24L406.08,184.12L406.08,184.12L406.1,181.82L406.11,177.21L406.24,216.36L406.54,207.15L406.94,204.85L407.34,200.24L407.57,207.15L407.61,204.85L407.99,202.55L408.62,209.45L408.95,211.76L409.24,214.06L409.56,204.85L409.9,207.15L410.48,218.67L410.5,216.36L410.89,214.06L411.53,225.58L412.1,223.27L412.44,225.58L412.81,216.36L412.82,214.06L413.05,207.15L413.74,209.45L413.88,220.97L414.18,204.85L414.33,209.45L414.5,211.76L414.71,209.45L414.87,216.36L415.99,214.06L416.12,218.67L416.27,214.06L416.92,211.76L417.07,214.06L417.24,209.45L417.57,207.15L417.6,214.06L417.99,209.45L418.66,207.15L419.16,204.85L419.16,207.15L419.16,209.45L419.67,204.85L419.67,202.55L419.68,200.24L419.71,209.45L419.84,202.55L420.66,200.24L420.89,193.33L421.01,202.55L421.08,204.85L421.77,223.27L422.02,218.67L422.02,216.36L422.37,214.06L422.37,218.67L422.37,220.97L422.37,218.67L422.38,225.58L422.95,223.27L423.17,220.97L423.4,223.27L423.64,214.06L423.77,216.36L423.78,214.06L424.21,230.18L424.51,218.67L424.56,216.36L424.56,214.06L424.58,230.18L425.25,218.67L425.4,216.36L425.53,220.97L425.85,209.45L426.11,211.76L426.63,232.48L426.79,230.18L427.19,232.48L427.61,220.97L427.9,223.27L428.13,220.97L428.14,223.27L428.56,218.67L428.57,218.67L429.64,216.36L430.22,211.76L430.22,214.06L430.99,211.76L431.04,209.45L431.06,227.88L431.46,225.58L431.98,227.88L432.09,230.18L432.25,218.67L432.25,216.36L432.65,211.76L432.69,216.36L432.9,218.67L432.92,216.36L433.61,232.48L433.61,230.18L433.9,232.48L434.2,225.58L434.47,230.18L434.77,232.48L435.12,234.79L435.42,225.58L435.44,227.88L435.82,225.58L436.87,218.67L437.19,220.97L437.19,223.27L437.22,218.67L437.35,227.88L437.76,227.88L438.04,225.58L438.06,227.88L438.31,223.27L438.55,227.88L438.84,225.58L439.14,234.79L439.39,230.18L439.69,232.48L440.33,227.88L440.33,230.18L440.57,227.88L440.73,220.97L440.74,230.18L440.92,225.58L441.6,227.88L441.6,225.58L442.12,234.79L442.51,232.48L442.8,230.18L442.81,234.79L443.08,232.48L443.36,230.18L444.01,227.88L444.01,230.18L444.17,232.48L444.18,230.18L444.32,241.7L444.84,239.39L444.9,237.09L444.97,234.79L445.54,241.7L445.56,239.39L445.66,241.7L446.34,230.18L446.35,239.39L446.35,241.7L446.37,239.39L446.49,244L447.05,241.7L447.29,239.39L447.29,244L448.02,241.7L448.13,244L448.15,248.61L448.83,244L449.63,241.7L449.76,244L450.39,241.7L450.53,237.09L450.59,248.61L450.62,248.61L450.62,250.91L451.29,241.7L451.3,248.61L451.3,250.91L451.97,246.3L451.99,248.61L452.08,250.91L452.26,244L452.39,246.3L452.92,244L452.92,246.3L453.63,237.09L453.64,239.39L453.9,241.7L454.21,246.3L454.42,239.39L455.01,237.09L455.28,241.7L455.3,239.39L456.21,237.09L456.21,239.39L456.79,234.79L456.94,234.79L457.43,232.48L457.87,227.88L458.14,232.48L458.26,230.18L458.28,227.88L459.16,230.18L459.76,227.88L460.05,237.09L460.08,234.79L460.76,241.7L461,239.39L461.01,237.09L461.01,239.39L461.71,227.88L461.75,234.79L462,232.48L462.64,234.79L462.99,232.48L462.99,234.79L463.21,227.88L463.23,234.79L463.88,232.48L464.02,244L464.63,239.39L464.64,237.09L465.25,250.91L466,248.61L466.38,250.91L466.41,248.61L467.04,246.3L467.57,250.91L468.32,248.61L468.74,244L469.13,246.3L469.21,248.61L469.56,244L469.62,248.61L469.64,250.91L469.67,246.3L470.37,248.61L470.46,246.3L470.78,241.7L470.78,244L471.45,246.3L471.58,241.7L472.05,246.3L472.88,244L473.72,241.7L473.72,244L473.72,241.7L473.76,246.3L474.3,246.3L475.14,244L475.25,239.39L475.26,246.3L475.4,241.7L476.21,244L476.77,234.79L477.09,232.48L477.59,234.79L477.76,232.48L477.76,230.18L478.38,220.97L478.38,234.79L478.47,232.48L478.71,230.18L478.99,227.88L478.99,232.48L478.99,234.79L479.56,232.48L479.8,234.79L479.91,232.48L480.21,239.39L480.84,241.7L481.3,237.09L481.42,244L481.42,241.7L481.44,244L482.08,248.61L482.23,246.3L482.82,244L483.06,241.7L483.09,248.61L483.25,244L483.88,241.7L484.7,248.61L484.74,246.3L484.97,248.61L485.39,244L485.64,246.3L485.96,239.39L486.05,244L486.8,241.7L487.17,246.3L487.59,234.79L488.12,232.48L488.27,244L488.84,237.09L489.38,234.79L490.12,230.18L490.51,232.48L490.51,234.79L491.44,232.48L491.68,237.09L492.11,227.88L492.16,234.79L492.24,232.48L492.64,234.79L492.93,232.48L494.29,230.18L495.42,220.97L495.52,223.27L495.52,225.58L495.52,227.88L495.68,220.97L495.72,220.97L497.87,223.27L498.25,218.67L498.55,237.09L498.66,234.79L498.66,237.09L499.36,230.18L499.37,232.48L499.63,234.79L500.33,220.97L500.37,223.27L500.47,225.58L500.57,223.27L501.01,230.18L501.16,223.27L501.57,220.97L502.09,216.36L502.09,218.67L502.12,220.97L502.27,216.36L502.27,220.97L504.12,218.67L504.13,220.97L505.86,218.67L507.36,207.15L507.41,204.85L507.41,202.55L507.42,209.45L507.86,207.15L508.18,204.85L509.66,200.24L509.89,197.94L509.9,200.24L510.37,193.33L511.48,191.03L512.11,181.82L512.12,179.52L512.12,181.82L512.69,168L512.79,168L513.05,165.7L513.05,168L513.48,156.48L513.76,156.48L513.87,154.18L513.87,156.48L514.6,149.58L514.68,151.88L515.41,140.36L517.65,138.06L518.87,121.94L519.79,119.64L521.44,115.03L523.19,112.73L524.1,101.21L524.41,98.91L524.73,94.3L525.27,92L525.29,94.3L525.71,85.09L526.34,82.79L526.34,85.09L526.61,82.79L527.1,80.48L528.58,68.97L529.8,66.67L530.46,62.06L531.17,59.76L532.21,57.45L532.21,59.76L534.07,50.55L534.07,50.55L534.07,48.24L534.55,43.64L534.55,45.94L534.55,48.24L534.67,41.33L535.02,45.94L535.59,43.64L535.59,45.94L535.97,27.52L536.83,25.21L538.68,22.91L539.52,20.61L539.92,16L540,18.3" style="fill: rgb(44, 160, 44); fill-opacity: 0.5; stroke-width: 0;"/></g></g><g class="errorbars"/><g class="lines"><path class="js-line" d="M0,317.7L0.1,320L0.99,317.7L1.65,320L1.76,317.7L1.76,320L2.97,317.7L3.69,320L4.53,317.7L4.53,320L4.62,320L5.33,317.7L5.33,320L5.9,320L6.71,317.7L6.71,320L7.27,320L8.75,317.7L8.75,320L9.36,317.7L9.57,320L11.22,317.7L11.22,320L13.97,317.7L13.97,320L21.09,317.7L21.09,320L21.28,317.7L21.28,320L22.84,317.7L22.84,315.39L22.98,317.7L24.08,320L25.72,317.7L25.72,320L26.99,315.39L26.99,317.7L26.99,320L29.72,317.7L29.72,320L29.86,320L31.06,317.7L31.06,320L31.64,320L32.5,317.7L32.5,320L33.25,320L33.29,317.7L33.29,320L33.97,317.7L34.06,320L36.57,315.39L36.98,317.7L37.1,315.39L37.1,317.7L38.35,320L39.05,317.7L39.05,320L40.7,317.7L40.7,320L41.75,317.7L41.75,320L42.22,310.79L42.32,313.09L42.83,315.39L43.26,317.7L43.68,315.39L43.69,317.7L44.9,315.39L48.62,313.09L48.62,315.39L48.9,317.7L49.67,315.39L50.54,320L51.91,317.7L51.91,320L52.29,320L55.32,317.7L55.32,320L55.32,317.7L56.77,315.39L57.08,317.7L57.84,315.39L58.62,313.09L58.63,315.39L59.17,320L60.95,317.7L61.24,320L61.89,317.7L62.04,315.39L62.97,317.7L63.15,313.09L63.27,315.39L64.07,317.7L64.37,315.39L64.37,317.7L64.9,315.39L64.97,310.79L65.08,320L65.16,320L65.73,317.7L66.55,315.39L66.55,317.7L67.25,313.09L67.26,315.39L67.94,313.09L72.29,310.79L72.75,308.48L74.37,320L75.34,317.7L75.34,320L76.27,317.7L77.43,315.39L77.48,317.7L78.51,313.09L78.91,310.79L79.4,308.48L79.4,310.79L79.42,313.09L80.52,308.48L80.54,310.79L81.34,308.48L81.34,310.79L81.62,313.09L82.17,310.79L82.17,313.09L82.18,310.79L83.92,313.09L84.1,310.79L84.1,313.09L84.96,310.79L85.19,313.09L85.88,310.79L86.32,308.48L87.07,310.79L87.76,308.48L88.04,310.79L90.23,308.48L90.23,310.79L90.8,308.48L90.82,310.79L92.15,313.09L92.64,310.79L92.83,313.09L92.97,310.79L92.98,313.09L93.95,310.79L93.96,296.97L94.64,308.48L94.9,310.79L94.91,313.09L95.06,308.48L95.44,308.48L96.01,306.18L96.69,308.48L96.87,306.18L97.38,301.58L97.53,306.18L97.62,308.48L98.22,299.27L98.34,303.88L99.27,306.18L99.69,299.27L99.69,299.27L100.21,301.58L101.22,290.06L102.14,287.76L103.13,290.06L103.4,287.76L104.1,292.36L104.1,292.36L104.22,290.06L104.51,299.27L104.63,296.97L105.26,294.67L105.74,285.45L105.75,287.76L106.12,290.06L106.15,292.36L106.97,290.06L107.09,287.76L107.11,290.06L108.35,292.36L109.04,301.58L110.1,299.27L110.1,301.58L112.17,299.27L112.17,296.97L112.18,301.58L114.09,299.27L114.1,301.58L114.1,299.27L115.13,301.58L115.18,299.27L116.96,296.97L117.92,301.58L118.05,299.27L118.08,301.58L118.88,299.27L119.19,301.58L119.87,299.27L119.89,301.58L121.47,299.27L121.49,301.58L123.27,299.27L123.37,301.58L123.75,299.27L124.21,296.97L124.33,299.27L125.19,296.97L125.19,299.27L125.59,290.06L125.72,290.06L126.1,287.76L126.43,299.27L126.43,299.27L127.38,296.97L127.49,301.58L127.66,301.58L128.34,299.27L129.28,296.97L129.39,294.67L129.94,296.97L130.11,294.67L130.21,292.36L130.91,287.76L130.94,290.06L131.24,287.76L131.45,290.06L131.88,287.76L131.89,285.45L131.89,278.55L132.04,292.36L133.26,290.06L133.37,287.76L133.38,290.06L134.76,287.76L135.5,296.97L136.67,294.67L137.06,296.97L138.6,294.67L139.65,292.36L139.65,294.67L140.92,287.76L140.93,290.06L141.17,292.36L141.2,294.67L141.58,290.06L141.59,292.36L141.9,290.06L141.9,292.36L142.85,294.67L143.02,299.27L143.7,296.97L143.79,294.67L145.34,292.36L145.85,285.45L145.86,290.06L145.87,292.36L145.91,296.97L147.65,294.67L147.74,296.97L147.78,294.67L149.31,292.36L149.32,294.67L150.63,292.36L150.63,294.67L151.04,292.36L151.48,290.06L152.14,287.76L152.17,290.06L154.92,292.36L157.85,287.76L158.55,285.45L159.3,287.76L159.98,285.45L159.99,287.76L162.56,285.45L163,287.76L163.59,285.45L164.76,283.15L165,285.45L165,283.15L165.04,301.58L165.04,299.27L167.34,296.97L167.35,299.27L169.6,301.58L170.66,299.27L170.66,301.58L171.27,299.27L171.3,301.58L173.42,299.27L173.58,296.97L174.91,299.27L174.92,301.58L175.49,283.15L175.6,292.36L177.06,290.06L177.38,283.15L178.98,280.85L179.46,278.55L179.47,280.85L181.59,278.55L182.05,280.85L183.33,278.55L183.62,280.85L183.91,278.55L186.01,276.24L188.88,273.94L188.98,276.24L189.85,273.94L190.53,276.24L190.56,271.64L190.78,273.94L191.62,276.24L191.87,285.45L192.67,287.76L192.74,290.06L192.84,285.45L196.14,283.15L196.68,285.45L197.34,283.15L197.48,280.85L199.55,278.55L202.4,276.24L203.92,273.94L203.94,271.64L205.21,269.33L205.97,271.64L205.98,269.33L206.27,285.45L206.28,283.15L207.22,285.45L207.63,287.76L207.64,285.45L208.75,287.76L209.19,292.36L209.55,290.06L209.57,292.36L210.07,285.45L210.11,290.06L210.66,292.36L210.69,294.67L211.56,292.36L212.69,290.06L212.7,292.36L214.62,287.76L214.89,285.45L217.16,283.15L218.24,285.45L219.77,283.15L220.23,280.85L222.45,276.24L222.46,278.55L223.28,271.64L225.04,269.33L225.83,260.12L226.1,257.82L226.86,255.52L226.9,257.82L229.06,241.7L229.14,244L229.14,246.3L229.29,239.39L229.86,241.7L229.96,239.39L231.21,237.09L231.35,234.79L231.61,244L231.61,246.3L231.78,257.82L232.04,253.21L232.52,250.91L233.53,290.06L233.76,287.76L233.93,285.45L233.94,283.15L234.52,290.06L234.61,287.76L234.79,285.45L235.68,292.36L235.69,290.06L235.69,287.76L236.41,296.97L236.64,294.67L236.64,296.97L236.84,287.76L237.36,294.67L237.6,292.36L237.74,294.67L237.89,292.36L238.56,290.06L238.59,287.76L239.37,290.06L239.85,285.45L240.46,283.15L242.13,276.24L242.13,278.55L243.54,271.64L244.45,273.94L247.95,271.64L248.05,269.33L248.29,267.03L248.59,269.33L250.12,267.03L251.02,262.42L251.36,260.12L251.74,257.82L253.27,255.52L253.69,248.61L253.89,255.52L253.89,257.82L255.06,246.3L257.05,244L257.12,239.39L258.11,237.09L259.69,232.48L259.72,234.79L259.74,250.91L260.34,241.7L260.62,239.39L260.62,241.7L260.75,239.39L262.81,237.09L264.44,234.79L264.62,232.48L266.31,230.18L266.31,232.48L266.31,230.18L266.31,232.48L267.24,230.18L267.42,227.88L268.07,230.18L268.99,239.39L269.19,241.7L270.67,239.39L271.18,241.7L272.5,237.09L273.18,234.79L273.18,237.09L273.94,234.79L274.05,230.18L275.16,232.48L275.7,260.12L278.16,257.82L278.63,260.12L279,257.82L279.02,260.12L281.73,257.82L282.41,262.42L282.44,260.12L282.55,257.82L282.55,260.12L282.8,260.12L283.46,262.42L283.63,257.82L283.63,260.12L285.89,257.82L286.67,253.21L288.61,250.91L289.12,246.3L289.25,244L289.27,241.7L289.31,253.21L289.65,248.61L290.09,250.91L290.55,255.52L290.76,253.21L291.01,250.91L291.78,280.85L292,278.55L292.94,271.64L293.54,269.33L294.51,257.82L295.43,255.52L296.4,250.91L296.46,248.61L297.85,239.39L297.87,237.09L298.18,220.97L300.29,218.67L302.13,216.36L302.13,214.06L305.39,216.36L305.46,214.06L307.08,209.45L307.64,207.15L309.02,200.24L309.02,197.94L309.15,193.33L309.53,241.7L309.83,239.39L310.25,237.09L310.27,244L310.51,241.7L310.66,239.39L311.65,227.88L311.76,230.18L314.02,227.88L314.5,225.58L314.78,227.88L315.7,225.58L316.07,227.88L317.19,225.58L318.59,227.88L318.61,234.79L319.24,232.48L319.92,234.79L320.34,248.61L320.75,250.91L320.88,248.61L321.18,255.52L321.37,253.21L321.74,255.52L322.82,248.61L323.07,246.3L323.92,244L323.95,241.7L324.76,237.09L325,239.39L325.58,241.7L325.98,239.39L325.98,241.7L326.66,239.39L326.92,241.7L326.92,246.3L327.47,244L328.75,241.7L328.96,237.09L329.38,244L329.39,244L329.39,246.3L330.02,241.7L330.22,239.39L330.98,234.79L331,237.09L333.96,234.79L334.33,237.09L335.66,234.79L336.09,232.48L336.09,234.79L336.82,237.09L337.09,234.79L337.17,239.39L337.89,237.09L338.96,230.18L338.96,232.48L339.38,227.88L339.93,225.58L340.34,230.18L340.36,225.58L340.87,227.88L340.87,225.58L341.44,227.88L342.14,225.58L342.27,227.88L342.93,225.58L344.04,220.97L344.05,218.67L344.1,223.27L344.85,220.97L345.69,216.36L346.75,214.06L347.88,200.24L347.99,202.55L349.64,200.24L349.91,197.94L350.94,195.64L350.94,197.94L351.09,211.76L351.09,214.06L351.09,216.36L351.09,211.76L351.2,216.36L352.61,214.06L353.51,211.76L353.52,214.06L355.29,211.76L355.29,214.06L355.7,211.76L358.03,209.45L358.03,211.76L358.68,211.76L359.26,209.45L359.98,200.24L360.05,202.55L361.19,200.24L361.28,195.64L361.71,209.45L362.06,207.15L362.27,209.45L363.21,207.15L364,197.94L364.21,195.64L364.77,207.15L364.87,200.24L365.06,197.94L365.74,211.76L365.97,209.45L366.77,232.48L366.84,230.18L367.53,244L367.89,241.7L368.66,244L371.01,241.7L371.6,234.79L371.62,237.09L371.85,239.39L375.27,237.09L375.29,239.39L375.98,234.79L376.85,237.09L377.93,234.79L378.82,232.48L378.82,234.79L380.6,232.48L380.73,227.88L381.71,230.18L382.24,223.27L382.25,220.97L382.26,214.06L385.87,216.36L386.91,207.15L388.94,204.85L389.42,200.24L389.42,202.55L389.42,204.85L391.43,200.24L391.87,197.94L394.53,193.33L394.72,191.03L395.27,188.73L395.27,191.03L395.44,193.33L396.01,204.85L396.14,202.55L396.72,200.24L396.76,202.55L397.07,191.03L397.46,188.73L397.64,181.82L397.83,191.03L397.84,193.33L397.84,195.64L398.57,184.12L398.7,181.82L399.43,197.94L399.48,195.64L399.77,193.33L399.78,202.55L400.24,197.94L400.34,200.24L400.34,202.55L400.37,197.94L400.64,197.94L401.29,195.64L401.35,193.33L401.76,207.15L401.76,204.85L402.16,202.55L402.64,186.42L402.82,211.76L403.12,209.45L403.54,195.64L403.68,207.15L403.68,209.45L403.73,211.76L404.28,204.85L404.32,207.15L404.9,204.85L405.03,211.76L405.58,200.24L405.66,197.94L405.71,200.24L406.08,184.12L406.08,184.12L406.1,181.82L406.11,177.21L406.24,216.36L406.54,207.15L406.94,204.85L407.34,200.24L407.57,207.15L407.61,204.85L407.99,202.55L408.62,209.45L408.95,211.76L409.24,214.06L409.56,204.85L409.9,207.15L410.48,218.67L410.5,216.36L410.89,214.06L411.53,225.58L412.1,223.27L412.44,225.58L412.81,216.36L412.82,214.06L413.05,207.15L413.74,209.45L413.88,220.97L414.18,204.85L414.33,209.45L414.5,211.76L414.71,209.45L414.87,216.36L415.99,214.06L416.12,218.67L416.27,214.06L416.92,211.76L417.07,214.06L417.24,209.45L417.57,207.15L417.6,214.06L417.99,209.45L418.66,207.15L419.16,204.85L419.16,207.15L419.16,209.45L419.67,204.85L419.67,202.55L419.68,200.24L419.71,209.45L419.84,202.55L420.66,200.24L420.89,193.33L421.01,202.55L421.08,204.85L421.77,223.27L422.02,218.67L422.02,216.36L422.37,214.06L422.37,218.67L422.37,220.97L422.37,218.67L422.38,225.58L422.95,223.27L423.17,220.97L423.4,223.27L423.64,214.06L423.77,216.36L423.78,214.06L424.21,230.18L424.51,218.67L424.56,216.36L424.56,214.06L424.58,230.18L425.25,218.67L425.4,216.36L425.53,220.97L425.85,209.45L426.11,211.76L426.63,232.48L426.79,230.18L427.19,232.48L427.61,220.97L427.9,223.27L428.13,220.97L428.14,223.27L428.56,218.67L428.57,218.67L429.64,216.36L430.22,211.76L430.22,214.06L430.99,211.76L431.04,209.45L431.06,227.88L431.46,225.58L431.98,227.88L432.09,230.18L432.25,218.67L432.25,216.36L432.65,211.76L432.69,216.36L432.9,218.67L432.92,216.36L433.61,232.48L433.61,230.18L433.9,232.48L434.2,225.58L434.47,230.18L434.77,232.48L435.12,234.79L435.42,225.58L435.44,227.88L435.82,225.58L436.87,218.67L437.19,220.97L437.19,223.27L437.22,218.67L437.35,227.88L437.76,227.88L438.04,225.58L438.06,227.88L438.31,223.27L438.55,227.88L438.84,225.58L439.14,234.79L439.39,230.18L439.69,232.48L440.33,227.88L440.33,230.18L440.57,227.88L440.73,220.97L440.74,230.18L440.92,225.58L441.6,227.88L441.6,225.58L442.12,234.79L442.51,232.48L442.8,230.18L442.81,234.79L443.08,232.48L443.36,230.18L444.01,227.88L444.01,230.18L444.17,232.48L444.18,230.18L444.32,241.7L444.84,239.39L444.9,237.09L444.97,234.79L445.54,241.7L445.56,239.39L445.66,241.7L446.34,230.18L446.35,239.39L446.35,241.7L446.37,239.39L446.49,244L447.05,241.7L447.29,239.39L447.29,244L448.02,241.7L448.13,244L448.15,248.61L448.83,244L449.63,241.7L449.76,244L450.39,241.7L450.53,237.09L450.59,248.61L450.62,248.61L450.62,250.91L451.29,241.7L451.3,248.61L451.3,250.91L451.97,246.3L451.99,248.61L452.08,250.91L452.26,244L452.39,246.3L452.92,244L452.92,246.3L453.63,237.09L453.64,239.39L453.9,241.7L454.21,246.3L454.42,239.39L455.01,237.09L455.28,241.7L455.3,239.39L456.21,237.09L456.21,239.39L456.79,234.79L456.94,234.79L457.43,232.48L457.87,227.88L458.14,232.48L458.26,230.18L458.28,227.88L459.16,230.18L459.76,227.88L460.05,237.09L460.08,234.79L460.76,241.7L461,239.39L461.01,237.09L461.01,239.39L461.71,227.88L461.75,234.79L462,232.48L462.64,234.79L462.99,232.48L462.99,234.79L463.21,227.88L463.23,234.79L463.88,232.48L464.02,244L464.63,239.39L464.64,237.09L465.25,250.91L466,248.61L466.38,250.91L466.41,248.61L467.04,246.3L467.57,250.91L468.32,248.61L468.74,244L469.13,246.3L469.21,248.61L469.56,244L469.62,248.61L469.64,250.91L469.67,246.3L470.37,248.61L470.46,246.3L470.78,241.7L470.78,244L471.45,246.3L471.58,241.7L472.05,246.3L472.88,244L473.72,241.7L473.72,244L473.72,241.7L473.76,246.3L474.3,246.3L475.14,244L475.25,239.39L475.26,246.3L475.4,241.7L476.21,244L476.77,234.79L477.09,232.48L477.59,234.79L477.76,232.48L477.76,230.18L478.38,220.97L478.38,234.79L478.47,232.48L478.71,230.18L478.99,227.88L478.99,232.48L478.99,234.79L479.56,232.48L479.8,234.79L479.91,232.48L480.21,239.39L480.84,241.7L481.3,237.09L481.42,244L481.42,241.7L481.44,244L482.08,248.61L482.23,246.3L482.82,244L483.06,241.7L483.09,248.61L483.25,244L483.88,241.7L484.7,248.61L484.74,246.3L484.97,248.61L485.39,244L485.64,246.3L485.96,239.39L486.05,244L486.8,241.7L487.17,246.3L487.59,234.79L488.12,232.48L488.27,244L488.84,237.09L489.38,234.79L490.12,230.18L490.51,232.48L490.51,234.79L491.44,232.48L491.68,237.09L492.11,227.88L492.16,234.79L492.24,232.48L492.64,234.79L492.93,232.48L494.29,230.18L495.42,220.97L495.52,223.27L495.52,225.58L495.52,227.88L495.68,220.97L495.72,220.97L497.87,223.27L498.25,218.67L498.55,237.09L498.66,234.79L498.66,237.09L499.36,230.18L499.37,232.48L499.63,234.79L500.33,220.97L500.37,223.27L500.47,225.58L500.57,223.27L501.01,230.18L501.16,223.27L501.57,220.97L502.09,216.36L502.09,218.67L502.12,220.97L502.27,216.36L502.27,220.97L504.12,218.67L504.13,220.97L505.86,218.67L507.36,207.15L507.41,204.85L507.41,202.55L507.42,209.45L507.86,207.15L508.18,204.85L509.66,200.24L509.89,197.94L509.9,200.24L510.37,193.33L511.48,191.03L512.11,181.82L512.12,179.52L512.12,181.82L512.69,168L512.79,168L513.05,165.7L513.05,168L513.48,156.48L513.76,156.48L513.87,154.18L513.87,156.48L514.6,149.58L514.68,151.88L515.41,140.36L517.65,138.06L518.87,121.94L519.79,119.64L521.44,115.03L523.19,112.73L524.1,101.21L524.41,98.91L524.73,94.3L525.27,92L525.29,94.3L525.71,85.09L526.34,82.79L526.34,85.09L526.61,82.79L527.1,80.48L528.58,68.97L529.8,66.67L530.46,62.06L531.17,59.76L532.21,57.45L532.21,59.76L534.07,50.55L534.07,50.55L534.07,48.24L534.55,43.64L534.55,45.94L534.55,48.24L534.67,41.33L535.02,45.94L535.59,43.64L535.59,45.94L535.97,27.52L536.83,25.21L538.68,22.91L539.52,20.61L539.92,16L540,18.3" style="vector-effect: none; fill: none; stroke: rgb(44, 160, 44); stroke-opacity: 1; stroke-width: 2px; opacity: 1;"/></g><g class="points"/><g class="text"/></g></g></g></g><g class="zerolinelayer-above"/><path class="xlines-above crisp" d="M0,0" style="fill: none;"/><path class="ylines-above crisp" d="M0,0" style="fill: none;"/><g class="overlines-above"/><g class="xaxislayer-above"><g class="xtick"><text text-anchor="middle" x="0" y="439" transform="translate(96.35,0)" style="font-family: 'Open Sans'; font-size: 18px; fill: rgb(0, 0, 0); fill-opacity: 1; white-space: pre;">2016</text></g><g class="xtick"><text text-anchor="middle" x="0" y="439" style="font-family: 'Open Sans'; font-size: 18px; fill: rgb(0, 0, 0); fill-opacity: 1; white-space: pre;" transform="translate(196.47,0)">2018</text></g><g class="xtick"><text text-anchor="middle" x="0" y="439" style="font-family: 'Open Sans'; font-size: 18px; fill: rgb(0, 0, 0); fill-opacity: 1; white-space: pre;" transform="translate(296.46000000000004,0)">2020</text></g><g class="xtick"><text text-anchor="middle" x="0" y="439" style="font-family: 'Open Sans'; font-size: 18px; fill: rgb(0, 0, 0); fill-opacity: 1; white-space: pre;" transform="translate(396.58,0)">2022</text></g><g class="xtick"><text text-anchor="middle" x="0" y="439" style="font-family: 'Open Sans'; font-size: 18px; fill: rgb(0, 0, 0); fill-opacity: 1; white-space: pre;" transform="translate(496.56,0)">2024</text></g><g class="xtick"><text text-anchor="middle" x="0" y="439" style="font-family: 'Open Sans'; font-size: 18px; fill: rgb(0, 0, 0); fill-opacity: 1; white-space: pre;" transform="translate(596.68,0)">2026</text></g></g><g class="yaxislayer-above"><g class="ytick"><text text-anchor="end" x="79" y="6.3" transform="translate(0,420)" style="font-family: 'Open Sans'; font-size: 18px; fill: rgb(0, 0, 0); fill-opacity: 1; white-space: pre;">0</text></g><g class="ytick"><text text-anchor="end" x="79" y="6.3" style="font-family: 'Open Sans'; font-size: 18px; fill: rgb(0, 0, 0); fill-opacity: 1; white-space: pre;" transform="translate(0,373.94)">20</text></g><g class="ytick"><text text-anchor="end" x="79" y="6.3" style="font-family: 'Open Sans'; font-size: 18px; fill: rgb(0, 0, 0); fill-opacity: 1; white-space: pre;" transform="translate(0,327.88)">40</text></g><g class="ytick"><text text-anchor="end" x="79" y="6.3" style="font-family: 'Open Sans'; font-size: 18px; fill: rgb(0, 0, 0); fill-opacity: 1; white-space: pre;" transform="translate(0,281.82)">60</text></g><g class="ytick"><text text-anchor="end" x="79" y="6.3" style="font-family: 'Open Sans'; font-size: 18px; fill: rgb(0, 0, 0); fill-opacity: 1; white-space: pre;" transform="translate(0,235.76)">80</text></g><g class="ytick"><text text-anchor="end" x="79" y="6.3" style="font-family: 'Open Sans'; font-size: 18px; fill: rgb(0, 0, 0); fill-opacity: 1; white-space: pre;" transform="translate(0,189.7)">100</text></g><g class="ytick"><text text-anchor="end" x="79" y="6.3" style="font-family: 'Open Sans'; font-size: 18px; fill: rgb(0, 0, 0); fill-opacity: 1; white-space: pre;" transform="translate(0,143.64)">120</text></g></g><g class="overaxes-above"/></g></g><g class="polarlayer"/><g class="smithlayer"/><g class="ternarylayer"/><g class="geolayer"/><g class="funnelarealayer"/><g class="pielayer"/><g class="iciclelayer"/><g class="treemaplayer"/><g class="sunburstlayer"/><g class="glimages"/><defs id="topdefs-88f4e1"><g class="clips"/></defs><g class="layer-above"><g class="imagelayer"/><g class="shapelayer"/></g><g class="infolayer"><g class="g-gtitle"><text class="gtitle" x="35" y="50" text-anchor="start" dy="0em" style="opacity: 1; font-family: 'Open Sans'; font-size: 25px; fill: rgb(0, 0, 0); fill-opacity: 1; white-space: pre;">MultiQC/MultiQC - Open Pull Requests Over Time</text></g><g class="g-xtitle"><text class="xtitle" x="350" y="472.9" text-anchor="middle" style="opacity: 1; font-family: 'Open Sans'; font-size: 22px; fill: rgb(0, 0, 0); fill-opacity: 1; white-space: pre;">Date</text></g><g class="g-ytitle"><text class="ytitle" transform="rotate(-90,29.799999999999997,260)" x="29.799999999999997" y="260" text-anchor="middle" style="opacity: 1; font-family: 'Open Sans'; font-size: 22px; fill: rgb(0, 0, 0); fill-opacity: 1; white-space: pre;">Number of Open PRs</text></g></g></svg>