<svg class="main-svg" xmlns="http://www.w3.org/2000/svg" xmlns:xlink="http://www.w3.org/1999/xlink" width="700" height="500" style="" viewBox="0 0 700 500"><rect x="0" y="0" width="700" height="500" style="fill: rgb(0, 0, 0); fill-opacity: 0;"/><defs id="defs-fe10d9"><g class="clips"><clipPath id="clipfe10d9xyplot" class="plotclip"><rect width="540" height="320"/></clipPath><clipPath class="axesclip" id="clipfe10d9x"><rect x="80" y="0" width="540" height="500"/></clipPath><clipPath class="axesclip" id="clipfe10d9y"><rect x="0" y="100" width="700" height="320"/></clipPath><clipPath class="axesclip" id="clipfe10d9xy"><rect x="80" y="100" width="540" height="320"/></clipPath></g><g class="gradients"/><g class="patterns"/></defs><g class="bglayer"><rect class="bg" x="80" y="100" width="540" height="320" style="fill: rgb(0, 0, 0); fill-opacity: 0; stroke-width: 0;"/></g><g class="layer-below"><g class="imagelayer"/><g class="shapelayer"/></g><g class="cartesianlayer"><g class="subplot xy"><g class="layer-subplot"><g class="shapelayer"/><g class="imagelayer"/></g><g class="minor-gridlayer"><g class="x"/><g class="y"/></g><g class="gridlayer"><g class="x"><path class="xgrid crisp" transform="translate(96.78,0)" d="M0,100v320" style="stroke: rgb(255, 255, 255); stroke-opacity: 1; stroke-width: 1px;"/><path class="xgrid crisp" transform="translate(197.32999999999998,0)" d="M0,100v320" style="stroke: rgb(255, 255, 255); stroke-opacity: 1; stroke-width: 1px;"/><path class="xgrid crisp" transform="translate(297.73,0)" d="M0,100v320" style="stroke: rgb(255, 255, 255); stroke-opacity: 1; stroke-width: 1px;"/><path class="xgrid crisp" transform="translate(398.28,0)" d="M0,100v320" style="stroke: rgb(255, 255, 255); stroke-opacity: 1; stroke-width: 1px;"/><path class="xgrid crisp" transform="translate(498.69,0)" d="M0,100v320" style="stroke: rgb(255, 255, 255); stroke-opacity: 1; stroke-width: 1px;"/><path class="xgrid crisp" transform="translate(599.23,0)" d="M0,100v320" style="stroke: rgb(255, 255, 255); stroke-opacity: 1; stroke-width: 1px;"/></g><g class="y"><path class="ygrid crisp" transform="translate(0,382.93)" d="M80,0h540" style="stroke: rgb(255, 255, 255); stroke-opacity: 1; stroke-width: 1px;"/><path class="ygrid crisp" transform="translate(0,345.85)" d="M80,0h540" style="stroke: rgb(255, 255, 255); stroke-opacity: 1; stroke-width: 1px;"/><path class="ygrid crisp" transform="translate(0,308.78)" d="M80,0h540" style="stroke: rgb(255, 255, 255); stroke-opacity: 1; stroke-width: 1px;"/><path class="ygrid crisp" transform="translate(0,271.71000000000004)" d="M80,0h540" style="stroke: rgb(255, 255, 255); stroke-opacity: 1; stroke-width: 1px;"/><path class="ygrid crisp" transform="translate(0,234.63)" d="M80,0h540" style="stroke: rgb(255, 255, 255); stroke-opacity: 1; stroke-width: 1px;"/><path class="ygrid crisp" transform="translate(0,197.56)" d="M80,0h540" style="stroke: rgb(255, 255, 255); stroke-opacity: 1; stroke-width: 1px;"/><path class="ygrid crisp" transform="translate(0,160.49)" d="M80,0h540" style="stroke: rgb(255, 255, 255); stroke-opacity: 1; stroke-width: 1px;"/><path class="ygrid crisp" transform="translate(0,123.41)" d="M80,0h540" style="stroke: rgb(255, 255, 255); stroke-opacity: 1; stroke-width: 1px;"/></g></g><g class="zerolinelayer"><path class="yzl zl crisp" transform="translate(0,420)" d="M80,0h540" style="stroke: rgb(255, 255, 255); stroke-opacity: 1; stroke-width: 2px;"/></g><g class="layer-between"><g class="shapelayer"/><g class="imagelayer"/></g><path class="xlines-below"/><path class="ylines-below"/><g class="overlines-below"/><g class="xaxislayer-below"/><g class="yaxislayer-below"/><g class="overaxes-below"/><g class="overplot"><g class="xy" transform="translate(80,100)" clip-path="url(#clipfe10d9xyplot)"><g class="scatterlayer mlayer"><g class="trace scatter tracea48f9d" style="stroke-miterlimit: 2;"><g class="fills"><g><path class="js-fill" d="M540,320L0,320L0,286.63L4.13,286.63L8.39,301.46L12.52,316.29L21.04,305.17L25.03,305.17L29.3,294.05L33.42,294.05L37.69,308.88L41.81,275.51L46.08,312.59L50.34,312.59L54.47,305.17L58.73,297.76L62.86,275.51L67.12,301.46L71.39,305.17L75.24,301.46L79.5,290.34L83.63,305.17L87.89,308.88L92.02,227.32L96.28,249.56L100.55,268.1L104.67,279.22L108.94,301.46L113.06,308.88L117.33,290.34L121.59,305.17L125.44,275.51L129.7,268.1L133.83,290.34L138.09,290.34L142.22,301.46L146.48,297.76L154.88,312.59L159.14,312.59L163.27,294.05L167.53,312.59L171.79,308.88L175.64,268.1L179.91,301.46L184.03,308.88L188.3,305.17L192.42,312.59L196.69,305.17L200.95,316.29L205.08,282.93L209.34,297.76L213.47,305.17L217.73,308.88L222,297.76L225.99,260.68L230.25,268.1L234.38,256.98L238.64,275.51L242.77,305.17L247.03,308.88L251.29,282.93L255.42,282.93L259.68,290.34L263.81,301.46L268.07,305.17L272.34,297.76L276.19,301.46L284.58,301.46L288.84,264.39L292.97,264.39L297.23,256.98L301.5,308.88L305.62,305.17L309.89,256.98L314.01,305.17L318.28,312.59L322.54,286.63L326.39,297.76L330.66,294.05L334.78,305.17L339.05,282.93L343.17,286.63L347.44,286.63L351.7,290.34L355.83,305.17L360.09,286.63L364.22,249.56L368.48,294.05L372.75,305.17L376.6,286.63L380.86,282.93L384.99,305.17L389.25,305.17L393.38,294.05L397.64,179.12L401.91,149.46L406.03,168L410.3,219.9L414.42,179.12L418.69,245.85L422.95,16L426.94,197.66L431.2,205.07L435.33,119.8L439.59,164.29L443.72,156.88L447.98,142.05L452.25,93.85L456.37,212.49L464.76,212.49L469.03,216.2L473.29,264.39L477.14,242.15L481.41,242.15L485.53,223.61L489.8,268.1L493.92,212.49L498.19,245.85L502.45,238.44L506.58,268.1L510.84,264.39L514.97,193.95L519.23,271.8L523.49,279.22L527.35,271.8L531.61,286.63L535.74,153.17L540,316.29" style="fill: rgb(44, 160, 44); fill-opacity: 0.5; stroke-width: 0;"/></g></g><g class="errorbars"/><g class="lines"><path class="js-line" d="M0,286.63L4.13,286.63L8.39,301.46L12.52,316.29L21.04,305.17L25.03,305.17L29.3,294.05L33.42,294.05L37.69,308.88L41.81,275.51L46.08,312.59L50.34,312.59L54.47,305.17L58.73,297.76L62.86,275.51L67.12,301.46L71.39,305.17L75.24,301.46L79.5,290.34L83.63,305.17L87.89,308.88L92.02,227.32L96.28,249.56L100.55,268.1L104.67,279.22L108.94,301.46L113.06,308.88L117.33,290.34L121.59,305.17L125.44,275.51L129.7,268.1L133.83,290.34L138.09,290.34L142.22,301.46L146.48,297.76L154.88,312.59L159.14,312.59L163.27,294.05L167.53,312.59L171.79,308.88L175.64,268.1L179.91,301.46L184.03,308.88L188.3,305.17L192.42,312.59L196.69,305.17L200.95,316.29L205.08,282.93L209.34,297.76L213.47,305.17L217.73,308.88L222,297.76L225.99,260.68L230.25,268.1L234.38,256.98L238.64,275.51L242.77,305.17L247.03,308.88L251.29,282.93L255.42,282.93L259.68,290.34L263.81,301.46L268.07,305.17L272.34,297.76L276.19,301.46L284.58,301.46L288.84,264.39L292.97,264.39L297.23,256.98L301.5,308.88L305.62,305.17L309.89,256.98L314.01,305.17L318.28,312.59L322.54,286.63L326.39,297.76L330.66,294.05L334.78,305.17L339.05,282.93L343.17,286.63L347.44,286.63L351.7,290.34L355.83,305.17L360.09,286.63L364.22,249.56L368.48,294.05L372.75,305.17L376.6,286.63L380.86,282.93L384.99,305.17L389.25,305.17L393.38,294.05L397.64,179.12L401.91,149.46L406.03,168L410.3,219.9L414.42,179.12L418.69,245.85L422.95,16L426.94,197.66L431.2,205.07L435.33,119.8L439.59,164.29L443.72,156.88L447.98,142.05L452.25,93.85L456.37,212.49L464.76,212.49L469.03,216.2L473.29,264.39L477.14,242.15L481.41,242.15L485.53,223.61L489.8,268.1L493.92,212.49L498.19,245.85L502.45,238.44L506.58,268.1L510.84,264.39L514.97,193.95L519.23,271.8L523.49,279.22L527.35,271.8L531.61,286.63L535.74,153.17L540,316.29" style="vector-effect: none; fill: none; stroke: rgb(44, 160, 44); stroke-opacity: 1; stroke-width: 2px; opacity: 1;"/></g><g class="points"/><g class="text"/></g></g></g></g><g class="zerolinelayer-above"/><path class="xlines-above crisp" d="M0,0" style="fill: none;"/><path class="ylines-above crisp" d="M0,0" style="fill: none;"/><g class="overlines-above"/><g class="xaxislayer-above"><g class="xtick"><text text-anchor="middle" x="0" y="439" transform="translate(96.78,0)" style="font-family: 'Open Sans'; font-size: 18px; fill: rgb(255, 255, 255); fill-opacity: 1; white-space: pre;">2016</text></g><g class="xtick"><text text-anchor="middle" x="0" y="439" style="font-family: 'Open Sans'; font-size: 18px; fill: rgb(255, 255, 255); fill-opacity: 1; white-space: pre;" transform="translate(197.32999999999998,0)">2018</text></g><g class="xtick"><text text-anchor="middle" x="0" y="439" style="font-family: 'Open Sans'; font-size: 18px; fill: rgb(255, 255, 255); fill-opacity: 1; white-space: pre;" transform="translate(297.73,0)">2020</text></g><g class="xtick"><text text-anchor="middle" x="0" y="439" style="font-family: 'Open Sans'; font-size: 18px; fill: rgb(255, 255, 255); fill-opacity: 1; white-space: pre;" transform="translate(398.28,0)">2022</text></g><g class="xtick"><text text-anchor="middle" x="0" y="439" style="font-family: 'Open Sans'; font-size: 18px; fill: rgb(255, 255, 255); fill-opacity: 1; white-space: pre;" transform="translate(498.69,0)">2024</text></g><g class="xtick"><text text-anchor="middle" x="0" y="439" style="font-family: 'Open Sans'; font-size: 18px; fill: rgb(255, 255, 255); fill-opacity: 1; white-space: pre;" transform="translate(599.23,0)">2026</text></g></g><g class="yaxislayer-above"><g class="ytick"><text text-anchor="end" x="79" y="6.3" transform="translate(0,420)" style="font-family: 'Open Sans'; font-size: 18px; fill: rgb(255, 255, 255); fill-opacity: 1; white-space: pre;">0</text></g><g class="ytick"><text text-anchor="end" x="79" y="6.3" style="font-family: 'Open Sans'; font-size: 18px; fill: rgb(255, 255, 255); fill-opacity: 1; white-space: pre;" transform="translate(0,382.93)">10</text></g><g class="ytick"><text text-anchor="end" x="79" y="6.3" style="font-family: 'Open Sans'; font-size: 18px; fill: rgb(255, 255, 255); fill-opacity: 1; white-space: pre;" transform="translate(0,345.85)">20</text></g><g class="ytick"><text text-anchor="end" x="79" y="6.3" style="font-family: 'Open Sans'; font-size: 18px; fill: rgb(255, 255, 255); fill-opacity: 1; white-space: pre;" transform="translate(0,308.78)">30</text></g><g class="ytick"><text text-anchor="end" x="79" y="6.3" style="font-family: 'Open Sans'; font-size: 18px; fill: rgb(255, 255, 255); fill-opacity: 1; white-space: pre;" transform="translate(0,271.71000000000004)">40</text></g><g class="ytick"><text text-anchor="end" x="79" y="6.3" style="font-family: 'Open Sans'; font-size: 18px; fill: rgb(255, 255, 255); fill-opacity: 1; white-space: pre;" transform="translate(0,234.63)">50</text></g><g class="ytick"><text text-anchor="end" x="79" y="6.3" style="font-family: 'Open Sans'; font-size: 18px; fill: rgb(255, 255, 255); fill-opacity: 1; white-space: pre;" transform="translate(0,197.56)">60</text></g><g class="ytick"><text text-anchor="end" x="79" y="6.3" style="font-family: 'Open Sans'; font-size: 18px; fill: rgb(255, 255, 255); fill-opacity: 1; white-space: pre;" transform="translate(0,160.49)">70</text></g><g class="ytick"><text text-anchor="end" x="79" y="6.3" style="font-family: 'Open Sans'; font-size: 18px; fill: rgb(255, 255, 255); fill-opacity: 1; white-space: pre;" transform="translate(0,123.41)">80</text></g></g><g class="overaxes-above"/></g></g><g class="polarlayer"/><g class="smithlayer"/><g class="ternarylayer"/><g class="geolayer"/><g class="funnelarealayer"/><g class="pielayer"/><g class="iciclelayer"/><g class="treemaplayer"/><g class="sunburstlayer"/><g class="glimages"/><defs id="topdefs-fe10d9"><g class="clips"/></defs><g class="layer-above"><g class="imagelayer"/><g class="shapelayer"/></g><g class="infolayer"><g class="g-gtitle"><text class="gtitle" x="35" y="50" text-anchor="start" dy="0em" style="opacity: 1; font-family: 'Open Sans'; font-size: 25px; fill: rgb(255, 255, 255); fill-opacity: 1; white-space: pre;">MultiQC/MultiQC - New Pull Requests Per Month</text></g><g class="g-xtitle"><text class="xtitle" x="350" y="472.9" text-anchor="middle" style="opacity: 1; font-family: 'Open Sans'; font-size: 22px; fill: rgb(255, 255, 255); fill-opacity: 1; white-space: pre;">Month</text></g><g class="g-ytitle"><text class="ytitle" transform="rotate(-90,38.8,260)" x="38.8" y="260" text-anchor="middle" style="opacity: 1; font-family: 'Open Sans'; font-size: 22px; fill: rgb(255, 255, 255); fill-opacity: 1; white-space: pre;">New PRs Created</text></g></g></svg>