<svg class="main-svg" xmlns="http://www.w3.org/2000/svg" xmlns:xlink="http://www.w3.org/1999/xlink" width="700" height="500" style="" viewBox="0 0 700 500"><rect x="0" y="0" width="700" height="500" style="fill: rgb(0, 0, 0); fill-opacity: 0;"/><defs id="defs-e2f381"><g class="clips"><clipPath id="clipe2f381xyplot" class="plotclip"><rect width="540" height="320"/></clipPath><clipPath class="axesclip" id="clipe2f381x"><rect x="80" y="0" width="540" height="500"/></clipPath><clipPath class="axesclip" id="clipe2f381y"><rect x="0" y="100" width="700" height="320"/></clipPath><clipPath class="axesclip" id="clipe2f381xy"><rect x="80" y="100" width="540" height="320"/></clipPath></g><g class="gradients"/><g class="patterns"/></defs><g class="bglayer"><rect class="bg" x="80" y="100" width="540" height="320" style="fill: rgb(0, 0, 0); fill-opacity: 0; stroke-width: 0;"/></g><g class="layer-below"><g class="imagelayer"/><g class="shapelayer"/></g><g class="cartesianlayer"><g class="subplot xy"><g class="layer-subplot"><g class="shapelayer"/><g class="imagelayer"/></g><g class="minor-gridlayer"><g class="x"/><g class="y"/></g><g class="gridlayer"><g class="x"><path class="xgrid crisp" transform="translate(96.16,0)" d="M0,100v320" style="stroke: rgb(255, 255, 255); stroke-opacity: 1; stroke-width: 1px;"/><path class="xgrid crisp" transform="translate(195.09,0)" d="M0,100v320" style="stroke: rgb(255, 255, 255); stroke-opacity: 1; stroke-width: 1px;"/><path class="xgrid crisp" transform="translate(293.89,0)" d="M0,100v320" style="stroke: rgb(255, 255, 255); stroke-opacity: 1; stroke-width: 1px;"/><path class="xgrid crisp" transform="translate(392.82,0)" d="M0,100v320" style="stroke: rgb(255, 255, 255); stroke-opacity: 1; stroke-width: 1px;"/><path class="xgrid crisp" transform="translate(491.62,0)" d="M0,100v320" style="stroke: rgb(255, 255, 255); stroke-opacity: 1; stroke-width: 1px;"/><path class="xgrid crisp" transform="translate(590.56,0)" d="M0,100v320" style="stroke: rgb(255, 255, 255); stroke-opacity: 1; stroke-width: 1px;"/></g><g class="y"><path class="ygrid crisp" transform="translate(0,378.36)" d="M80,0h540" style="stroke: rgb(255, 255, 255); stroke-opacity: 1; stroke-width: 1px;"/><path class="ygrid crisp" transform="translate(0,336.71000000000004)" d="M80,0h540" style="stroke: rgb(255, 255, 255); stroke-opacity: 1; stroke-width: 1px;"/><path class="ygrid crisp" transform="translate(0,295.07)" d="M80,0h540" style="stroke: rgb(255, 255, 255); stroke-opacity: 1; stroke-width: 1px;"/><path class="ygrid crisp" transform="translate(0,253.42)" d="M80,0h540" style="stroke: rgb(255, 255, 255); stroke-opacity: 1; stroke-width: 1px;"/><path class="ygrid crisp" transform="translate(0,211.78)" d="M80,0h540" style="stroke: rgb(255, 255, 255); stroke-opacity: 1; stroke-width: 1px;"/><path class="ygrid crisp" transform="translate(0,170.14)" d="M80,0h540" style="stroke: rgb(255, 255, 255); stroke-opacity: 1; stroke-width: 1px;"/><path class="ygrid crisp" transform="translate(0,128.49)" d="M80,0h540" style="stroke: rgb(255, 255, 255); stroke-opacity: 1; stroke-width: 1px;"/></g></g><g class="zerolinelayer"><path class="yzl zl crisp" transform="translate(0,420)" d="M80,0h540" style="stroke: rgb(255, 255, 255); stroke-opacity: 1; stroke-width: 2px;"/></g><g class="layer-between"><g class="shapelayer"/><g class="imagelayer"/></g><path class="xlines-below"/><path class="ylines-below"/><g class="overlines-below"/><g class="xaxislayer-below"/><g class="yaxislayer-below"/><g class="overaxes-below"/><g class="overplot"><g class="xy" transform="translate(80,100)" clip-path="url(#clipe2f381xyplot)"><g class="scatterlayer mlayer"><g class="trace scatter trace615d93" style="stroke-miterlimit: 2;"><g class="fills"><g><path class="js-fill" d="M540,320L0,320L0,317.92L0.1,320L0.98,317.92L1.63,320L1.74,317.92L1.74,320L2.94,317.92L3.65,320L4.47,317.92L4.47,320L4.57,320L5.27,317.92L5.27,320L5.83,320L6.63,317.92L6.63,320L7.18,320L8.64,317.92L8.64,320L9.25,317.92L9.46,320L11.09,317.92L11.09,320L13.8,317.92L13.8,320L20.84,317.92L20.84,320L21.03,317.92L21.03,320L22.57,317.92L22.57,315.84L22.7,317.92L23.79,320L25.42,317.92L25.42,320L26.67,315.84L26.67,317.92L26.67,320L29.37,317.92L29.37,320L29.51,320L30.69,317.92L30.69,320L31.26,320L32.11,317.92L32.85,320L32.89,317.92L32.89,320L33.57,317.92L33.65,320L36.13,315.84L36.55,317.92L36.66,315.84L36.66,317.92L37.9,320L38.59,317.92L38.59,320L40.21,317.92L40.21,320L41.25,317.92L41.41,320L41.72,311.67L41.82,313.75L42.33,315.84L42.74,317.92L43.16,315.84L43.17,317.92L44.37,315.84L48.04,313.75L48.04,315.84L48.32,317.92L49.08,315.84L49.94,320L51.29,317.92L51.67,320L54.67,317.92L54.67,320L54.67,317.92L56.1,315.84L56.4,317.92L57.16,315.84L57.92,313.75L57.93,315.84L58.3,317.92L58.47,320L60.23,317.92L60.51,320L61.16,317.92L61.3,315.84L62.23,317.92L62.4,313.75L62.52,315.84L63.31,317.92L64.13,315.84L64.13,317.92L64.2,311.67L64.31,320L64.39,320L64.95,317.92L65.76,315.84L65.76,317.92L66.46,313.75L66.46,315.84L67.13,313.75L71.44,311.67L71.89,309.59L73.49,320L74.44,317.92L74.44,320L75.37,317.92L76.51,315.84L76.56,317.92L77.58,313.75L77.97,311.67L78.46,309.59L78.46,311.67L78.48,313.75L79.57,309.59L79.58,311.67L80.37,309.59L80.37,311.67L80.65,313.75L81.2,311.67L82.93,313.75L83.1,311.67L83.1,313.75L83.95,311.67L84.18,313.75L84.86,311.67L85.3,309.59L86.04,311.67L86.72,309.59L87,311.67L89.16,309.59L89.16,311.67L89.72,309.59L89.74,311.67L91.06,313.75L91.54,311.67L91.73,313.75L91.87,311.67L91.88,313.75L92.84,311.67L92.85,299.18L93.51,309.59L93.78,311.67L93.78,313.75L93.93,309.59L94.31,309.59L94.87,307.51L95.55,309.59L95.72,307.51L96.22,303.34L96.38,307.51L96.46,309.59L97.06,301.26L97.18,305.42L98.1,307.51L98.51,301.26L98.51,301.26L99.02,303.34L100.02,292.93L100.93,290.85L101.9,292.93L102.18,290.85L102.3,295.01L102.86,295.01L102.98,292.93L103.27,301.26L103.39,299.18L104.01,297.1L104.49,288.77L104.49,290.85L104.86,292.93L104.89,295.01L105.7,292.93L105.82,290.85L105.84,292.93L107.07,295.01L107.74,303.34L108.79,301.26L108.79,303.34L110.84,301.26L110.84,299.18L110.85,303.34L112.74,301.26L112.75,303.34L112.75,301.26L113.76,303.34L113.81,301.26L115.57,299.18L116.52,303.34L116.65,301.26L116.68,303.34L117.47,301.26L117.78,303.34L118.44,301.26L118.47,303.34L120.03,301.26L120.05,303.34L121.81,301.26L121.91,303.34L122.28,301.26L122.74,299.18L122.86,301.26L123.7,299.18L123.71,301.26L124.1,292.93L124.23,292.93L124.6,290.85L124.94,301.26L125.87,299.18L125.97,303.34L126.15,303.34L126.81,301.26L127.75,299.18L127.86,297.1L128.4,299.18L128.57,297.1L128.67,295.01L129.36,290.85L129.39,292.93L129.68,290.85L129.89,292.93L130.31,290.85L130.32,288.77L130.33,282.52L130.47,295.01L131.67,292.93L131.78,290.85L131.8,292.93L133.16,290.85L133.89,299.18L135.05,297.1L135.43,299.18L136.96,297.1L137.99,295.01L137.99,297.1L139.25,290.85L139.26,292.93L139.5,295.01L139.52,297.1L139.9,292.93L140.22,295.01L141.16,297.1L141.32,301.26L142,299.18L142.09,297.1L143.61,295.01L144.12,288.77L144.13,292.93L144.14,295.01L144.18,299.18L145.9,297.1L145.99,299.18L146.03,297.1L147.54,295.01L147.55,297.1L148.85,295.01L148.85,297.1L149.25,295.01L149.68,292.93L150.34,290.85L150.37,292.93L153.08,295.01L155.97,290.85L156.67,288.77L157.41,290.85L158.08,288.77L158.09,290.85L160.64,288.77L161.07,290.85L161.65,288.77L162.81,286.68L163.04,288.77L163.04,286.68L163.08,303.34L163.08,301.26L165.36,299.18L165.37,301.26L167.59,303.34L168.64,301.26L168.64,303.34L169.24,301.26L169.27,303.34L171.37,301.26L171.52,299.18L172.83,301.26L172.85,303.34L173.41,286.68L173.49,288.77L173.49,286.68L173.52,295.01L174.96,292.93L175.28,286.68L176.86,284.6L177.33,282.52L177.34,284.6L179.43,282.52L179.89,284.6L181.16,282.52L181.44,284.6L181.73,282.52L183.81,280.44L186.65,278.36L186.74,280.44L187.6,278.36L188.27,280.44L188.3,276.27L188.51,278.36L189.35,280.44L189.6,288.77L190.38,290.85L190.46,292.93L190.55,288.77L193.81,286.68L194.35,288.77L195,286.68L195.14,284.6L197.18,282.52L200,280.44L201.5,278.36L201.52,276.27L202.78,274.19L203.55,276.27L203.55,278.36L203.56,276.27L203.83,288.77L203.84,286.68L204.77,288.77L205.17,290.85L205.18,288.77L206.27,290.85L206.71,295.01L207.06,292.93L207.08,295.01L207.58,288.77L207.62,292.93L208.16,295.01L208.19,297.1L209.05,295.01L210.17,292.93L210.18,295.01L212.07,290.85L212.34,288.77L214.58,286.68L215.65,288.77L217.16,286.68L217.62,284.6L219.81,280.44L219.82,282.52L220.63,276.27L222.38,274.19L222.65,267.95L223.15,265.86L224.17,261.7L224.21,263.78L226.35,249.21L226.42,251.29L226.43,253.37L226.57,247.12L227.13,249.21L227.24,247.12L228.47,245.04L228.61,242.96L228.87,251.29L228.87,253.37L229.03,263.78L229.29,259.62L229.76,257.53L230.76,292.93L230.99,290.85L231.16,288.77L231.17,286.68L231.74,292.93L231.83,290.85L232.01,288.77L232.89,295.01L232.9,292.93L232.9,290.85L233.6,299.18L233.84,297.1L233.84,299.18L234.03,290.85L234.55,297.1L234.78,295.01L234.92,297.1L235.07,295.01L235.73,292.93L235.76,290.85L236.53,292.93L237.01,288.77L237.61,286.68L239.26,280.44L239.26,282.52L240.65,276.27L241.55,278.36L245.01,276.27L245.1,274.19L245.35,272.11L245.64,274.19L247.15,272.11L248.05,267.95L248.38,265.86L248.75,263.78L250.26,261.7L250.68,255.45L250.88,261.7L250.88,263.78L252.04,253.37L254,251.29L254.07,247.12L255.05,245.04L256.61,240.88L256.64,242.96L256.66,257.53L257.26,249.21L257.53,247.12L257.53,249.21L257.66,247.12L259.69,245.04L261.3,242.96L261.48,240.88L263.15,238.79L263.15,240.88L263.16,238.79L263.16,240.88L264.07,238.79L264.25,236.71L264.89,238.79L265.8,247.12L266,249.21L267.46,247.12L267.96,249.21L269.27,245.04L269.94,242.96L269.94,245.04L270.7,242.96L270.8,238.79L271.89,240.88L272.43,265.86L274.86,263.78L275.32,265.86L275.7,263.78L275.71,265.86L278.39,263.78L279.06,267.95L279.1,265.86L279.2,263.78L279.2,265.86L279.44,265.86L280.1,267.95L280.27,263.78L280.27,265.86L282.5,263.78L283.27,259.62L285.19,257.53L285.69,253.37L285.82,251.29L285.84,249.21L285.88,259.62L286.22,255.45L286.65,257.53L287.1,261.7L287.32,259.62L287.56,257.53L288.32,284.6L288.54,282.52L289.47,276.27L290.06,274.19L291.02,263.78L291.93,261.7L292.88,257.53L292.94,255.45L294.32,247.12L294.34,245.04L294.64,230.47L296.73,228.38L298.55,226.3L298.55,224.22L301.77,226.3L301.84,224.22L303.44,220.05L303.99,217.97L305.35,211.73L305.35,209.64L305.48,205.48L305.86,249.21L306.16,247.12L306.58,245.04L306.59,251.29L306.83,249.21L306.98,247.12L307.95,236.71L308.06,238.79L310.29,236.71L310.77,234.63L311.04,236.71L311.95,234.63L312.32,236.71L313.43,234.63L314.81,236.71L314.83,238.79L314.84,242.96L315.46,240.88L316.13,242.96L316.55,255.45L316.95,257.53L317.08,255.45L317.37,261.7L317.56,259.62L317.92,261.7L318.99,255.45L319.24,253.37L320.08,251.29L320.11,249.21L320.91,245.04L321.15,247.12L321.72,249.21L322.11,247.12L322.11,249.21L322.79,247.12L323.05,249.21L323.05,253.37L323.59,251.29L324.86,249.21L325.05,245.04L325.49,253.37L326.03,251.29L327.06,242.96L327.07,245.04L330,242.96L330.37,245.04L331.68,242.96L332.1,240.88L332.82,245.04L333.09,242.96L333.17,247.12L333.88,245.04L334.94,238.79L334.94,240.88L335.36,236.71L335.9,234.63L336.31,238.79L336.33,234.63L336.83,236.71L336.83,234.63L337.4,236.71L338.08,234.63L338.21,236.71L338.86,234.63L339.96,230.47L339.97,228.38L340.02,232.55L340.76,230.47L341.59,226.3L342.64,224.22L343.75,211.73L343.86,213.81L345.49,211.73L345.76,209.64L346.78,207.56L346.78,209.64L346.92,222.14L346.92,224.22L346.92,226.3L346.92,222.14L347.04,226.3L348.43,224.22L349.32,222.14L349.33,224.22L351.08,222.14L351.08,224.22L351.48,222.14L353.79,220.05L353.79,222.14L354.43,222.14L355,220.05L355.71,211.73L355.78,213.81L356.9,211.73L357,207.56L357.42,220.05L357.77,217.97L357.98,220.05L358.9,217.97L359.68,209.64L359.89,207.56L360.44,217.97L360.54,211.73L360.73,209.64L361.4,222.14L361.63,220.05L362.42,240.88L362.49,238.79L363.17,251.29L363.53,249.21L364.29,251.29L366.61,249.21L367.19,242.96L367.22,245.04L367.44,247.12L370.82,245.04L370.84,247.12L371.52,242.96L372.38,245.04L373.45,242.96L374.32,240.88L374.32,242.96L376.08,240.88L376.22,236.71L377.19,238.79L377.71,232.55L377.71,230.47L377.72,224.22L381.29,226.3L382.32,217.97L384.33,215.89L384.8,211.73L384.8,213.81L384.81,215.89L386.79,211.73L387.22,209.64L389.86,205.48L390.04,203.4L390.58,201.32L390.58,203.4L390.75,205.48L391.32,215.89L391.44,213.81L392.02,211.73L392.06,213.81L392.36,203.4L392.75,201.32L392.93,195.07L393.11,203.4L393.12,205.48L393.12,207.56L393.85,197.15L393.97,195.07L394.75,209.64L394.91,207.56L395.03,205.48L395.04,213.81L395.64,211.73L395.89,209.64L396.58,207.56L396.59,205.48L397,217.97L397.46,213.81L397.49,211.73L397.87,199.23L398.05,222.14L398.34,220.05L398.76,207.56L398.9,217.97L398.9,220.05L398.95,222.14L399.48,215.89L399.52,217.97L400.1,215.89L400.23,222.14L400.85,209.64L400.9,211.73L401.29,190.9L401.42,226.3L401.5,224.22L401.66,222.14L402.51,211.73L402.61,213.81L402.74,217.97L403.36,213.81L403.61,215.89L404.39,224.22L404.53,222.14L404.7,215.89L405.19,228.38L405.19,226.3L405.33,224.22L405.48,217.97L405.61,228.38L406.02,224.22L406.13,226.3L406.65,234.63L407.22,232.55L407.22,234.63L407.93,220.05L408.15,217.97L408.84,222.14L408.84,224.22L408.97,230.47L409.26,215.89L409.58,222.14L409.65,224.22L409.79,220.05L409.79,226.3L409.95,226.3L411.06,224.22L411.18,228.38L411.34,224.22L411.97,222.14L412.12,224.22L412.29,220.05L412.62,217.97L412.65,224.22L413.03,220.05L413.7,217.97L414.19,215.89L414.19,217.97L414.19,220.05L414.69,215.89L414.69,213.81L414.7,211.73L414.74,220.05L414.87,213.81L415.68,211.73L415.9,205.48L416.09,215.89L416.22,217.97L416.59,232.55L416.96,230.47L417.01,228.38L417.36,224.22L417.37,234.63L417.76,230.47L417.77,228.38L418.24,226.3L418.38,232.55L418.5,228.38L418.51,226.3L418.76,224.22L418.78,232.55L418.86,232.55L418.86,234.63L419.18,238.79L419.53,224.22L419.55,238.79L419.68,236.71L420.48,226.3L420.48,228.38L420.8,220.05L421.07,232.55L421.08,230.47L421.56,232.55L421.57,240.88L422.3,236.71L422.44,234.63L422.44,236.71L422.54,230.47L423.06,230.47L423.48,228.38L423.48,230.47L423.48,228.38L424.54,226.3L425.11,222.14L425.11,224.22L425.88,222.14L425.93,220.05L425.95,236.71L426.34,234.63L426.86,236.71L426.97,238.79L427.12,228.38L427.13,226.3L427.52,222.14L427.56,226.3L427.76,228.38L427.79,226.3L428.47,240.88L428.47,238.79L428.75,240.88L429.05,234.63L429.31,238.79L429.61,240.88L429.96,242.96L430.27,234.63L430.27,236.71L430.65,234.63L431.69,228.38L432.01,230.47L432.01,232.55L432.04,228.38L432.16,236.71L432.57,236.71L432.85,234.63L432.86,236.71L433.12,232.55L433.35,236.71L433.64,234.63L433.94,242.96L434.18,238.79L434.48,240.88L435.11,236.71L435.11,238.79L435.35,236.71L435.51,230.47L435.52,238.79L435.69,234.63L436.36,236.71L436.72,234.63L436.88,242.96L437.26,240.88L437.55,238.79L437.56,242.96L437.83,240.88L438.1,238.79L438.74,236.71L438.74,238.79L438.9,240.88L438.91,238.79L439.05,249.21L439.63,245.04L439.63,247.12L439.7,242.96L440.15,247.12L440.26,249.21L441.05,238.79L441.06,240.88L441.19,251.29L441.75,249.21L441.99,247.12L441.99,251.29L442.71,249.21L442.82,251.29L442.84,255.45L443.51,251.29L444.3,249.21L444.42,251.29L445.05,249.21L445.17,247.12L445.19,245.04L445.27,257.53L445.8,251.29L445.94,249.21L446.63,257.53L446.64,255.45L446.72,257.53L446.9,251.29L447.02,253.37L447.55,251.29L447.55,253.37L448.25,245.04L448.26,247.12L448.52,249.21L448.82,253.37L449.03,247.12L449.62,245.04L449.88,249.21L449.9,247.12L450.8,245.04L450.8,247.12L451.38,242.96L451.52,242.96L452.01,240.88L452.44,236.71L452.71,240.88L452.83,238.79L452.84,236.71L453.71,238.79L454.31,236.71L454.59,245.04L454.63,242.96L455.3,249.21L455.54,247.12L455.54,245.04L455.54,247.12L456.23,236.71L456.28,242.96L456.52,240.88L457.16,242.96L457.5,240.88L457.5,242.96L457.71,236.71L457.73,242.96L458.38,240.88L458.52,251.29L459.13,247.12L459.19,249.21L459.23,245.04L459.74,257.53L460.47,255.45L460.85,257.53L460.88,255.45L461.5,253.37L462.03,257.53L462.77,255.45L463.19,251.29L463.57,253.37L463.65,255.45L463.99,251.29L464.05,255.45L464.07,257.53L464.1,253.37L464.79,255.45L464.88,253.37L465.2,249.21L465.2,251.29L465.86,253.37L465.99,249.21L466.45,253.37L467.28,251.29L468.1,249.21L468.1,251.29L468.1,249.21L468.14,253.37L468.67,253.37L469.51,251.29L469.61,247.12L469.63,253.37L469.76,249.21L470.56,251.29L471.12,242.96L471.43,240.88L471.92,242.96L472.09,240.88L472.09,238.79L472.7,230.47L472.71,242.96L472.8,240.88L473.04,238.79L473.31,236.71L473.31,240.88L473.31,242.96L473.88,240.88L474.11,242.96L474.22,240.88L474.52,247.12L475.14,249.21L475.59,245.04L475.71,251.29L475.71,249.21L475.73,251.29L476.36,255.45L476.51,253.37L477.09,251.29L477.33,249.21L477.36,255.45L477.52,251.29L478.14,249.21L478.95,255.45L478.99,253.37L479.22,255.45L479.63,251.29L479.89,253.37L480.2,247.12L480.28,251.29L481.03,249.21L481.39,253.37L481.79,245.04L481.81,242.96L482.33,240.88L482.35,242.96L482.35,245.04L482.45,251.29L483.04,245.04L483.58,242.96L484.31,238.79L484.69,240.88L484.69,242.96L485.61,240.88L485.85,245.04L486.27,236.71L486.32,242.96L486.4,240.88L486.79,242.96L487.09,240.88L488.43,238.79L489.54,230.47L489.65,232.55L489.65,234.63L489.65,236.71L489.81,230.47L489.84,230.47L491.97,232.55L492.34,228.38L492.64,245.04L492.74,242.96L492.75,245.04L493.44,238.79L493.45,240.88L493.71,242.96L494.39,230.47L494.44,232.55L494.53,234.63L494.64,232.55L495.07,238.79L495.22,232.55L495.63,230.47L496.13,226.3L496.14,228.38L496.16,230.47L496.32,226.3L496.32,230.47L498.15,228.38L498.15,230.47L499.86,228.38L501.35,217.97L501.39,215.89L501.4,213.81L501.4,220.05L501.84,217.97L502.16,215.89L503.62,211.73L503.85,209.64L503.85,211.73L504.31,205.48L505.41,203.4L506.04,195.07L506.05,192.99L506.05,195.07L506.61,182.58L506.71,182.58L506.96,180.49L506.96,182.58L507.39,172.16L507.67,172.16L507.78,170.08L507.78,172.16L508.49,165.92L508.58,168L509.3,157.59L511.51,155.51L512.72,140.93L513.63,138.85L515.26,134.68L516.99,132.6L517.88,122.19L518.19,120.11L518.51,115.95L519.04,113.86L519.06,115.95L519.48,107.62L520.1,105.53L520.1,107.62L520.85,103.45L521.07,101.37L521.91,95.12L522.31,93.04L523.52,90.96L523.53,88.88L524.87,84.71L525.48,82.63L525.48,84.71L525.9,84.71L526.33,82.63L527.46,78.47L527.74,76.38L527.74,78.47L528.33,68.05L528.49,72.22L528.5,74.3L529.24,70.14L529.24,72.22L529.28,70.14L529.28,72.22L529.62,55.56L530.46,53.48L532.3,51.4L533.12,49.32L533.52,45.15L533.6,47.23L534.08,45.15L534.86,43.07L535.17,40.99L535.81,36.82L537.16,34.74L538.19,28.49L538.65,26.41L539.38,20.16L539.9,18.08L540,16" style="fill: rgb(44, 160, 44); fill-opacity: 0.5; stroke-width: 0;"/></g></g><g class="errorbars"/><g class="lines"><path class="js-line" d="M0,317.92L0.1,320L0.98,317.92L1.63,320L1.74,317.92L1.74,320L2.94,317.92L3.65,320L4.47,317.92L4.47,320L4.57,320L5.27,317.92L5.27,320L5.83,320L6.63,317.92L6.63,320L7.18,320L8.64,317.92L8.64,320L9.25,317.92L9.46,320L11.09,317.92L11.09,320L13.8,317.92L13.8,320L20.84,317.92L20.84,320L21.03,317.92L21.03,320L22.57,317.92L22.57,315.84L22.7,317.92L23.79,320L25.42,317.92L25.42,320L26.67,315.84L26.67,317.92L26.67,320L29.37,317.92L29.37,320L29.51,320L30.69,317.92L30.69,320L31.26,320L32.11,317.92L32.85,320L32.89,317.92L32.89,320L33.57,317.92L33.65,320L36.13,315.84L36.55,317.92L36.66,315.84L36.66,317.92L37.9,320L38.59,317.92L38.59,320L40.21,317.92L40.21,320L41.25,317.92L41.41,320L41.72,311.67L41.82,313.75L42.33,315.84L42.74,317.92L43.16,315.84L43.17,317.92L44.37,315.84L48.04,313.75L48.04,315.84L48.32,317.92L49.08,315.84L49.94,320L51.29,317.92L51.67,320L54.67,317.92L54.67,320L54.67,317.92L56.1,315.84L56.4,317.92L57.16,315.84L57.92,313.75L57.93,315.84L58.3,317.92L58.47,320L60.23,317.92L60.51,320L61.16,317.92L61.3,315.84L62.23,317.92L62.4,313.75L62.52,315.84L63.31,317.92L64.13,315.84L64.13,317.92L64.2,311.67L64.31,320L64.39,320L64.95,317.92L65.76,315.84L65.76,317.92L66.46,313.75L66.46,315.84L67.13,313.75L71.44,311.67L71.89,309.59L73.49,320L74.44,317.92L74.44,320L75.37,317.92L76.51,315.84L76.56,317.92L77.58,313.75L77.97,311.67L78.46,309.59L78.46,311.67L78.48,313.75L79.57,309.59L79.58,311.67L80.37,309.59L80.37,311.67L80.65,313.75L81.2,311.67L82.93,313.75L83.1,311.67L83.1,313.75L83.95,311.67L84.18,313.75L84.86,311.67L85.3,309.59L86.04,311.67L86.72,309.59L87,311.67L89.16,309.59L89.16,311.67L89.72,309.59L89.74,311.67L91.06,313.75L91.54,311.67L91.73,313.75L91.87,311.67L91.88,313.75L92.84,311.67L92.85,299.18L93.51,309.59L93.78,311.67L93.78,313.75L93.93,309.59L94.31,309.59L94.87,307.51L95.55,309.59L95.72,307.51L96.22,303.34L96.38,307.51L96.46,309.59L97.06,301.26L97.18,305.42L98.1,307.51L98.51,301.26L98.51,301.26L99.02,303.34L100.02,292.93L100.93,290.85L101.9,292.93L102.18,290.85L102.3,295.01L102.86,295.01L102.98,292.93L103.27,301.26L103.39,299.18L104.01,297.1L104.49,288.77L104.49,290.85L104.86,292.93L104.89,295.01L105.7,292.93L105.82,290.85L105.84,292.93L107.07,295.01L107.74,303.34L108.79,301.26L108.79,303.34L110.84,301.26L110.84,299.18L110.85,303.34L112.74,301.26L112.75,303.34L112.75,301.26L113.76,303.34L113.81,301.26L115.57,299.18L116.52,303.34L116.65,301.26L116.68,303.34L117.47,301.26L117.78,303.34L118.44,301.26L118.47,303.34L120.03,301.26L120.05,303.34L121.81,301.26L121.91,303.34L122.28,301.26L122.74,299.18L122.86,301.26L123.7,299.18L123.71,301.26L124.1,292.93L124.23,292.93L124.6,290.85L124.94,301.26L125.87,299.18L125.97,303.34L126.15,303.34L126.81,301.26L127.75,299.18L127.86,297.1L128.4,299.18L128.57,297.1L128.67,295.01L129.36,290.85L129.39,292.93L129.68,290.85L129.89,292.93L130.31,290.85L130.32,288.77L130.33,282.52L130.47,295.01L131.67,292.93L131.78,290.85L131.8,292.93L133.16,290.85L133.89,299.18L135.05,297.1L135.43,299.18L136.96,297.1L137.99,295.01L137.99,297.1L139.25,290.85L139.26,292.93L139.5,295.01L139.52,297.1L139.9,292.93L140.22,295.01L141.16,297.1L141.32,301.26L142,299.18L142.09,297.1L143.61,295.01L144.12,288.77L144.13,292.93L144.14,295.01L144.18,299.18L145.9,297.1L145.99,299.18L146.03,297.1L147.54,295.01L147.55,297.1L148.85,295.01L148.85,297.1L149.25,295.01L149.68,292.93L150.34,290.85L150.37,292.93L153.08,295.01L155.97,290.85L156.67,288.77L157.41,290.85L158.08,288.77L158.09,290.85L160.64,288.77L161.07,290.85L161.65,288.77L162.81,286.68L163.04,288.77L163.04,286.68L163.08,303.34L163.08,301.26L165.36,299.18L165.37,301.26L167.59,303.34L168.64,301.26L168.64,303.34L169.24,301.26L169.27,303.34L171.37,301.26L171.52,299.18L172.83,301.26L172.85,303.34L173.41,286.68L173.49,288.77L173.49,286.68L173.52,295.01L174.96,292.93L175.28,286.68L176.86,284.6L177.33,282.52L177.34,284.6L179.43,282.52L179.89,284.6L181.16,282.52L181.44,284.6L181.73,282.52L183.81,280.44L186.65,278.36L186.74,280.44L187.6,278.36L188.27,280.44L188.3,276.27L188.51,278.36L189.35,280.44L189.6,288.77L190.38,290.85L190.46,292.93L190.55,288.77L193.81,286.68L194.35,288.77L195,286.68L195.14,284.6L197.18,282.52L200,280.44L201.5,278.36L201.52,276.27L202.78,274.19L203.55,276.27L203.55,278.36L203.56,276.27L203.83,288.77L203.84,286.68L204.77,288.77L205.17,290.85L205.18,288.77L206.27,290.85L206.71,295.01L207.06,292.93L207.08,295.01L207.58,288.77L207.62,292.93L208.16,295.01L208.19,297.1L209.05,295.01L210.17,292.93L210.18,295.01L212.07,290.85L212.34,288.77L214.58,286.68L215.65,288.77L217.16,286.68L217.62,284.6L219.81,280.44L219.82,282.52L220.63,276.27L222.38,274.19L222.65,267.95L223.15,265.86L224.17,261.7L224.21,263.78L226.35,249.21L226.42,251.29L226.43,253.37L226.57,247.12L227.13,249.21L227.24,247.12L228.47,245.04L228.61,242.96L228.87,251.29L228.87,253.37L229.03,263.78L229.29,259.62L229.76,257.53L230.76,292.93L230.99,290.85L231.16,288.77L231.17,286.68L231.74,292.93L231.83,290.85L232.01,288.77L232.89,295.01L232.9,292.93L232.9,290.85L233.6,299.18L233.84,297.1L233.84,299.18L234.03,290.85L234.55,297.1L234.78,295.01L234.92,297.1L235.07,295.01L235.73,292.93L235.76,290.85L236.53,292.93L237.01,288.77L237.61,286.68L239.26,280.44L239.26,282.52L240.65,276.27L241.55,278.36L245.01,276.27L245.1,274.19L245.35,272.11L245.64,274.19L247.15,272.11L248.05,267.95L248.38,265.86L248.75,263.78L250.26,261.7L250.68,255.45L250.88,261.7L250.88,263.78L252.04,253.37L254,251.29L254.07,247.12L255.05,245.04L256.61,240.88L256.64,242.96L256.66,257.53L257.26,249.21L257.53,247.12L257.53,249.21L257.66,247.12L259.69,245.04L261.3,242.96L261.48,240.88L263.15,238.79L263.15,240.88L263.16,238.79L263.16,240.88L264.07,238.79L264.25,236.71L264.89,238.79L265.8,247.12L266,249.21L267.46,247.12L267.96,249.21L269.27,245.04L269.94,242.96L269.94,245.04L270.7,242.96L270.8,238.79L271.89,240.88L272.43,265.86L274.86,263.78L275.32,265.86L275.7,263.78L275.71,265.86L278.39,263.78L279.06,267.95L279.1,265.86L279.2,263.78L279.2,265.86L279.44,265.86L280.1,267.95L280.27,263.78L280.27,265.86L282.5,263.78L283.27,259.62L285.19,257.53L285.69,253.37L285.82,251.29L285.84,249.21L285.88,259.62L286.22,255.45L286.65,257.53L287.1,261.7L287.32,259.62L287.56,257.53L288.32,284.6L288.54,282.52L289.47,276.27L290.06,274.19L291.02,263.78L291.93,261.7L292.88,257.53L292.94,255.45L294.32,247.12L294.34,245.04L294.64,230.47L296.73,228.38L298.55,226.3L298.55,224.22L301.77,226.3L301.84,224.22L303.44,220.05L303.99,217.97L305.35,211.73L305.35,209.64L305.48,205.48L305.86,249.21L306.16,247.12L306.58,245.04L306.59,251.29L306.83,249.21L306.98,247.12L307.95,236.71L308.06,238.79L310.29,236.71L310.77,234.63L311.04,236.71L311.95,234.63L312.32,236.71L313.43,234.63L314.81,236.71L314.83,238.79L314.84,242.96L315.46,240.88L316.13,242.96L316.55,255.45L316.95,257.53L317.08,255.45L317.37,261.7L317.56,259.62L317.92,261.7L318.99,255.45L319.24,253.37L320.08,251.29L320.11,249.21L320.91,245.04L321.15,247.12L321.72,249.21L322.11,247.12L322.11,249.21L322.79,247.12L323.05,249.21L323.05,253.37L323.59,251.29L324.86,249.21L325.05,245.04L325.49,253.37L326.03,251.29L327.06,242.96L327.07,245.04L330,242.96L330.37,245.04L331.68,242.96L332.1,240.88L332.82,245.04L333.09,242.96L333.17,247.12L333.88,245.04L334.94,238.79L334.94,240.88L335.36,236.71L335.9,234.63L336.31,238.79L336.33,234.63L336.83,236.71L336.83,234.63L337.4,236.71L338.08,234.63L338.21,236.71L338.86,234.63L339.96,230.47L339.97,228.38L340.02,232.55L340.76,230.47L341.59,226.3L342.64,224.22L343.75,211.73L343.86,213.81L345.49,211.73L345.76,209.64L346.78,207.56L346.78,209.64L346.92,222.14L346.92,224.22L346.92,226.3L346.92,222.14L347.04,226.3L348.43,224.22L349.32,222.14L349.33,224.22L351.08,222.14L351.08,224.22L351.48,222.14L353.79,220.05L353.79,222.14L354.43,222.14L355,220.05L355.71,211.73L355.78,213.81L356.9,211.73L357,207.56L357.42,220.05L357.77,217.97L357.98,220.05L358.9,217.97L359.68,209.64L359.89,207.56L360.44,217.97L360.54,211.73L360.73,209.64L361.4,222.14L361.63,220.05L362.42,240.88L362.49,238.79L363.17,251.29L363.53,249.21L364.29,251.29L366.61,249.21L367.19,242.96L367.22,245.04L367.44,247.12L370.82,245.04L370.84,247.12L371.52,242.96L372.38,245.04L373.45,242.96L374.32,240.88L374.32,242.96L376.08,240.88L376.22,236.71L377.19,238.79L377.71,232.55L377.71,230.47L377.72,224.22L381.29,226.3L382.32,217.97L384.33,215.89L384.8,211.73L384.8,213.81L384.81,215.89L386.79,211.73L387.22,209.64L389.86,205.48L390.04,203.4L390.58,201.32L390.58,203.4L390.75,205.48L391.32,215.89L391.44,213.81L392.02,211.73L392.06,213.81L392.36,203.4L392.75,201.32L392.93,195.07L393.11,203.4L393.12,205.48L393.12,207.56L393.85,197.15L393.97,195.07L394.75,209.64L394.91,207.56L395.03,205.48L395.04,213.81L395.64,211.73L395.89,209.64L396.58,207.56L396.59,205.48L397,217.97L397.46,213.81L397.49,211.73L397.87,199.23L398.05,222.14L398.34,220.05L398.76,207.56L398.9,217.97L398.9,220.05L398.95,222.14L399.48,215.89L399.52,217.97L400.1,215.89L400.23,222.14L400.85,209.64L400.9,211.73L401.29,190.9L401.42,226.3L401.5,224.22L401.66,222.14L402.51,211.73L402.61,213.81L402.74,217.97L403.36,213.81L403.61,215.89L404.39,224.22L404.53,222.14L404.7,215.89L405.19,228.38L405.19,226.3L405.33,224.22L405.48,217.97L405.61,228.38L406.02,224.22L406.13,226.3L406.65,234.63L407.22,232.55L407.22,234.63L407.93,220.05L408.15,217.97L408.84,222.14L408.84,224.22L408.97,230.47L409.26,215.89L409.58,222.14L409.65,224.22L409.79,220.05L409.79,226.3L409.95,226.3L411.06,224.22L411.18,228.38L411.34,224.22L411.97,222.14L412.12,224.22L412.29,220.05L412.62,217.97L412.65,224.22L413.03,220.05L413.7,217.97L414.19,215.89L414.19,217.97L414.19,220.05L414.69,215.89L414.69,213.81L414.7,211.73L414.74,220.05L414.87,213.81L415.68,211.73L415.9,205.48L416.09,215.89L416.22,217.97L416.59,232.55L416.96,230.47L417.01,228.38L417.36,224.22L417.37,234.63L417.76,230.47L417.77,228.38L418.24,226.3L418.38,232.55L418.5,228.38L418.51,226.3L418.76,224.22L418.78,232.55L418.86,232.55L418.86,234.63L419.18,238.79L419.53,224.22L419.55,238.79L419.68,236.71L420.48,226.3L420.48,228.38L420.8,220.05L421.07,232.55L421.08,230.47L421.56,232.55L421.57,240.88L422.3,236.71L422.44,234.63L422.44,236.71L422.54,230.47L423.06,230.47L423.48,228.38L423.48,230.47L423.48,228.38L424.54,226.3L425.11,222.14L425.11,224.22L425.88,222.14L425.93,220.05L425.95,236.71L426.34,234.63L426.86,236.71L426.97,238.79L427.12,228.38L427.13,226.3L427.52,222.14L427.56,226.3L427.76,228.38L427.79,226.3L428.47,240.88L428.47,238.79L428.75,240.88L429.05,234.63L429.31,238.79L429.61,240.88L429.96,242.96L430.27,234.63L430.27,236.71L430.65,234.63L431.69,228.38L432.01,230.47L432.01,232.55L432.04,228.38L432.16,236.71L432.57,236.71L432.85,234.63L432.86,236.71L433.12,232.55L433.35,236.71L433.64,234.63L433.94,242.96L434.18,238.79L434.48,240.88L435.11,236.71L435.11,238.79L435.35,236.71L435.51,230.47L435.52,238.79L435.69,234.63L436.36,236.71L436.72,234.63L436.88,242.96L437.26,240.88L437.55,238.79L437.56,242.96L437.83,240.88L438.1,238.79L438.74,236.71L438.74,238.79L438.9,240.88L438.91,238.79L439.05,249.21L439.63,245.04L439.63,247.12L439.7,242.96L440.15,247.12L440.26,249.21L441.05,238.79L441.06,240.88L441.19,251.29L441.75,249.21L441.99,247.12L441.99,251.29L442.71,249.21L442.82,251.29L442.84,255.45L443.51,251.29L444.3,249.21L444.42,251.29L445.05,249.21L445.17,247.12L445.19,245.04L445.27,257.53L445.8,251.29L445.94,249.21L446.63,257.53L446.64,255.45L446.72,257.53L446.9,251.29L447.02,253.37L447.55,251.29L447.55,253.37L448.25,245.04L448.26,247.12L448.52,249.21L448.82,253.37L449.03,247.12L449.62,245.04L449.88,249.21L449.9,247.12L450.8,245.04L450.8,247.12L451.38,242.96L451.52,242.96L452.01,240.88L452.44,236.71L452.71,240.88L452.83,238.79L452.84,236.71L453.71,238.79L454.31,236.71L454.59,245.04L454.63,242.96L455.3,249.21L455.54,247.12L455.54,245.04L455.54,247.12L456.23,236.71L456.28,242.96L456.52,240.88L457.16,242.96L457.5,240.88L457.5,242.96L457.71,236.71L457.73,242.96L458.38,240.88L458.52,251.29L459.13,247.12L459.19,249.21L459.23,245.04L459.74,257.53L460.47,255.45L460.85,257.53L460.88,255.45L461.5,253.37L462.03,257.53L462.77,255.45L463.19,251.29L463.57,253.37L463.65,255.45L463.99,251.29L464.05,255.45L464.07,257.53L464.1,253.37L464.79,255.45L464.88,253.37L465.2,249.21L465.2,251.29L465.86,253.37L465.99,249.21L466.45,253.37L467.28,251.29L468.1,249.21L468.1,251.29L468.1,249.21L468.14,253.37L468.67,253.37L469.51,251.29L469.61,247.12L469.63,253.37L469.76,249.21L470.56,251.29L471.12,242.96L471.43,240.88L471.92,242.96L472.09,240.88L472.09,238.79L472.7,230.47L472.71,242.96L472.8,240.88L473.04,238.79L473.31,236.71L473.31,240.88L473.31,242.96L473.88,240.88L474.11,242.96L474.22,240.88L474.52,247.12L475.14,249.21L475.59,245.04L475.71,251.29L475.71,249.21L475.73,251.29L476.36,255.45L476.51,253.37L477.09,251.29L477.33,249.21L477.36,255.45L477.52,251.29L478.14,249.21L478.95,255.45L478.99,253.37L479.22,255.45L479.63,251.29L479.89,253.37L480.2,247.12L480.28,251.29L481.03,249.21L481.39,253.37L481.79,245.04L481.81,242.96L482.33,240.88L482.35,242.96L482.35,245.04L482.45,251.29L483.04,245.04L483.58,242.96L484.31,238.79L484.69,240.88L484.69,242.96L485.61,240.88L485.85,245.04L486.27,236.71L486.32,242.96L486.4,240.88L486.79,242.96L487.09,240.88L488.43,238.79L489.54,230.47L489.65,232.55L489.65,234.63L489.65,236.71L489.81,230.47L489.84,230.47L491.97,232.55L492.34,228.38L492.64,245.04L492.74,242.96L492.75,245.04L493.44,238.79L493.45,240.88L493.71,242.96L494.39,230.47L494.44,232.55L494.53,234.63L494.64,232.55L495.07,238.79L495.22,232.55L495.63,230.47L496.13,226.3L496.14,228.38L496.16,230.47L496.32,226.3L496.32,230.47L498.15,228.38L498.15,230.47L499.86,228.38L501.35,217.97L501.39,215.89L501.4,213.81L501.4,220.05L501.84,217.97L502.16,215.89L503.62,211.73L503.85,209.64L503.85,211.73L504.31,205.48L505.41,203.4L506.04,195.07L506.05,192.99L506.05,195.07L506.61,182.58L506.71,182.58L506.96,180.49L506.96,182.58L507.39,172.16L507.67,172.16L507.78,170.08L507.78,172.16L508.49,165.92L508.58,168L509.3,157.59L511.51,155.51L512.72,140.93L513.63,138.85L515.26,134.68L516.99,132.6L517.88,122.19L518.19,120.11L518.51,115.95L519.04,113.86L519.06,115.95L519.48,107.62L520.1,105.53L520.1,107.62L520.85,103.45L521.07,101.37L521.91,95.12L522.31,93.04L523.52,90.96L523.53,88.88L524.87,84.71L525.48,82.63L525.48,84.71L525.9,84.71L526.33,82.63L527.46,78.47L527.74,76.38L527.74,78.47L528.33,68.05L528.49,72.22L528.5,74.3L529.24,70.14L529.24,72.22L529.28,70.14L529.28,72.22L529.62,55.56L530.46,53.48L532.3,51.4L533.12,49.32L533.52,45.15L533.6,47.23L534.08,45.15L534.86,43.07L535.17,40.99L535.81,36.82L537.16,34.74L538.19,28.49L538.65,26.41L539.38,20.16L539.9,18.08L540,16" style="vector-effect: none; fill: none; stroke: rgb(44, 160, 44); stroke-opacity: 1; stroke-width: 2px; opacity: 1;"/></g><g class="points"/><g class="text"/></g></g></g></g><g class="zerolinelayer-above"/><path class="xlines-above crisp" d="M0,0" style="fill: none;"/><path class="ylines-above crisp" d="M0,0" style="fill: none;"/><g class="overlines-above"/><g class="xaxislayer-above"><g class="xtick"><text text-anchor="middle" x="0" y="439" transform="translate(96.16,0)" style="font-family: 'Open Sans'; font-size: 18px; fill: rgb(0, 0, 0); fill-opacity: 1; white-space: pre;">2016</text></g><g class="xtick"><text text-anchor="middle" x="0" y="439" style="font-family: 'Open Sans'; font-size: 18px; fill: rgb(0, 0, 0); fill-opacity: 1; white-space: pre;" transform="translate(195.09,0)">2018</text></g><g class="xtick"><text text-anchor="middle" x="0" y="439" style="font-family: 'Open Sans'; font-size: 18px; fill: rgb(0, 0, 0); fill-opacity: 1; white-space: pre;" transform="translate(293.89,0)">2020</text></g><g class="xtick"><text text-anchor="middle" x="0" y="439" style="font-family: 'Open Sans'; font-size: 18px; fill: rgb(0, 0, 0); fill-opacity: 1; white-space: pre;" transform="translate(392.82,0)">2022</text></g><g class="xtick"><text text-anchor="middle" x="0" y="439" style="font-family: 'Open Sans'; font-size: 18px; fill: rgb(0, 0, 0); fill-opacity: 1; white-space: pre;" transform="translate(491.62,0)">2024</text></g><g class="xtick"><text text-anchor="middle" x="0" y="439" style="font-family: 'Open Sans'; font-size: 18px; fill: rgb(0, 0, 0); fill-opacity: 1; white-space: pre;" transform="translate(590.56,0)">2026</text></g></g><g class="yaxislayer-above"><g class="ytick"><text text-anchor="end" x="79" y="6.3" transform="translate(0,420)" style="font-family: 'Open Sans'; font-size: 18px; fill: rgb(0, 0, 0); fill-opacity: 1; white-space: pre;">0</text></g><g class="ytick"><text text-anchor="end" x="79" y="6.3" style="font-family: 'Open Sans'; font-size: 18px; fill: rgb(0, 0, 0); fill-opacity: 1; white-space: pre;" transform="translate(0,378.36)">20</text></g><g class="ytick"><text text-anchor="end" x="79" y="6.3" style="font-family: 'Open Sans'; font-size: 18px; fill: rgb(0, 0, 0); fill-opacity: 1; white-space: pre;" transform="translate(0,336.71000000000004)">40</text></g><g class="ytick"><text text-anchor="end" x="79" y="6.3" style="font-family: 'Open Sans'; font-size: 18px; fill: rgb(0, 0, 0); fill-opacity: 1; white-space: pre;" transform="translate(0,295.07)">60</text></g><g class="ytick"><text text-anchor="end" x="79" y="6.3" style="font-family: 'Open Sans'; font-size: 18px; fill: rgb(0, 0, 0); fill-opacity: 1; white-space: pre;" transform="translate(0,253.42)">80</text></g><g class="ytick"><text text-anchor="end" x="79" y="6.3" style="font-family: 'Open Sans'; font-size: 18px; fill: rgb(0, 0, 0); fill-opacity: 1; white-space: pre;" transform="translate(0,211.78)">100</text></g><g class="ytick"><text text-anchor="end" x="79" y="6.3" style="font-family: 'Open Sans'; font-size: 18px; fill: rgb(0, 0, 0); fill-opacity: 1; white-space: pre;" transform="translate(0,170.14)">120</text></g><g class="ytick"><text text-anchor="end" x="79" y="6.3" style="font-family: 'Open Sans'; font-size: 18px; fill: rgb(0, 0, 0); fill-opacity: 1; white-space: pre;" transform="translate(0,128.49)">140</text></g></g><g class="overaxes-above"/></g></g><g class="polarlayer"/><g class="smithlayer"/><g class="ternarylayer"/><g class="geolayer"/><g class="funnelarealayer"/><g class="pielayer"/><g class="iciclelayer"/><g class="treemaplayer"/><g class="sunburstlayer"/><g class="glimages"/><defs id="topdefs-e2f381"><g class="clips"/></defs><g class="layer-above"><g class="imagelayer"/><g class="shapelayer"/></g><g class="infolayer"><g class="g-gtitle"><text class="gtitle" x="35" y="50" text-anchor="start" dy="0em" style="opacity: 1; font-family: 'Open Sans'; font-size: 25px; fill: rgb(0, 0, 0); fill-opacity: 1; white-space: pre;">MultiQC/MultiQC - Open Pull Requests Over Time</text></g><g class="g-xtitle"><text class="xtitle" x="350" y="472.9" text-anchor="middle" style="opacity: 1; font-family: 'Open Sans'; font-size: 22px; fill: rgb(0, 0, 0); fill-opacity: 1; white-space: pre;">Date</text></g><g class="g-ytitle"><text class="ytitle" transform="rotate(-90,29.799999999999997,260)" x="29.799999999999997" y="260" text-anchor="middle" style="opacity: 1; font-family: 'Open Sans'; font-size: 22px; fill: rgb(0, 0, 0); fill-opacity: 1; white-space: pre;">Number of Open PRs</text></g></g></svg>