<svg class="main-svg" xmlns="http://www.w3.org/2000/svg" xmlns:xlink="http://www.w3.org/1999/xlink" width="700" height="500" style="" viewBox="0 0 700 500"><rect x="0" y="0" width="700" height="500" style="fill: rgb(0, 0, 0); fill-opacity: 0;"/><defs id="defs-8196cf"><g class="clips"><clipPath id="clip8196cfxyplot" class="plotclip"><rect width="540" height="320"/></clipPath><clipPath class="axesclip" id="clip8196cfx"><rect x="80" y="0" width="540" height="500"/></clipPath><clipPath class="axesclip" id="clip8196cfy"><rect x="0" y="100" width="700" height="320"/></clipPath><clipPath class="axesclip" id="clip8196cfxy"><rect x="80" y="100" width="540" height="320"/></clipPath></g><g class="gradients"/><g class="patterns"/></defs><g class="bglayer"><rect class="bg" x="80" y="100" width="540" height="320" style="fill: rgb(0, 0, 0); fill-opacity: 0; stroke-width: 0;"/></g><g class="layer-below"><g class="imagelayer"/><g class="shapelayer"/></g><g class="cartesianlayer"><g class="subplot xy"><g class="layer-subplot"><g class="shapelayer"/><g class="imagelayer"/></g><g class="minor-gridlayer"><g class="x"/><g class="y"/></g><g class="gridlayer"><g class="x"><path class="xgrid crisp" transform="translate(97.34,0)" d="M0,100v320" style="stroke: rgb(255, 255, 255); stroke-opacity: 1; stroke-width: 1px;"/><path class="xgrid crisp" transform="translate(203.53,0)" d="M0,100v320" style="stroke: rgb(255, 255, 255); stroke-opacity: 1; stroke-width: 1px;"/><path class="xgrid crisp" transform="translate(309.58000000000004,0)" d="M0,100v320" style="stroke: rgb(255, 255, 255); stroke-opacity: 1; stroke-width: 1px;"/><path class="xgrid crisp" transform="translate(415.77,0)" d="M0,100v320" style="stroke: rgb(255, 255, 255); stroke-opacity: 1; stroke-width: 1px;"/><path class="xgrid crisp" transform="translate(521.8199999999999,0)" d="M0,100v320" style="stroke: rgb(255, 255, 255); stroke-opacity: 1; stroke-width: 1px;"/></g><g class="y"><path class="ygrid crisp" transform="translate(0,370.97)" d="M80,0h540" style="stroke: rgb(255, 255, 255); stroke-opacity: 1; stroke-width: 1px;"/><path class="ygrid crisp" transform="translate(0,321.94)" d="M80,0h540" style="stroke: rgb(255, 255, 255); stroke-opacity: 1; stroke-width: 1px;"/><path class="ygrid crisp" transform="translate(0,272.9)" d="M80,0h540" style="stroke: rgb(255, 255, 255); stroke-opacity: 1; stroke-width: 1px;"/><path class="ygrid crisp" transform="translate(0,223.87)" d="M80,0h540" style="stroke: rgb(255, 255, 255); stroke-opacity: 1; stroke-width: 1px;"/><path class="ygrid crisp" transform="translate(0,174.84)" d="M80,0h540" style="stroke: rgb(255, 255, 255); stroke-opacity: 1; stroke-width: 1px;"/><path class="ygrid crisp" transform="translate(0,125.81)" d="M80,0h540" style="stroke: rgb(255, 255, 255); stroke-opacity: 1; stroke-width: 1px;"/></g></g><g class="zerolinelayer"><path class="yzl zl crisp" transform="translate(0,420)" d="M80,0h540" style="stroke: rgb(255, 255, 255); stroke-opacity: 1; stroke-width: 2px;"/></g><g class="layer-between"><g class="shapelayer"/><g class="imagelayer"/></g><path class="xlines-below"/><path class="ylines-below"/><g class="overlines-below"/><g class="xaxislayer-below"/><g class="yaxislayer-below"/><g class="overaxes-below"/><g class="overplot"><g class="xy" transform="translate(80,100)" clip-path="url(#clip8196cfxyplot)"><g class="scatterlayer mlayer"><g class="trace scatter trace139c2c" style="stroke-miterlimit: 2;"><g class="fills"><g><path class="js-fill" d="M540,320L0,320L0,315.1L0.1,320L1.05,315.1L1.75,320L1.86,315.1L1.86,320L3.15,315.1L3.63,320L3.92,315.1L3.92,320L4.8,315.1L4.8,320L4.9,320L5.65,315.1L5.65,320L6.26,320L7.11,315.1L7.11,320L7.71,320L9.28,315.1L9.28,320L9.93,315.1L10.15,320L11.9,315.1L11.9,320L14.82,315.1L14.82,320L22.37,315.1L22.37,320L22.57,315.1L22.57,320L24.22,315.1L24.22,310.19L24.37,315.1L25.54,320L27.28,315.1L27.28,320L28.18,310.19L28.18,315.1L28.63,310.19L28.63,315.1L28.63,320L31.53,315.1L31.53,320L31.67,315.1L31.67,320L32.94,315.1L32.94,320L33.56,320L34.47,315.1L34.47,320L35.26,315.1L35.26,320L35.78,320L36.03,315.1L36.12,320L37.35,315.1L38.78,310.19L39.23,315.1L39.35,310.19L39.35,315.1L40.68,320L41.42,315.1L41.42,320L43.16,315.1L43.16,320L44.28,315.1L44.28,320L44.78,300.39L44.89,305.29L45.43,310.19L45.88,315.1L46.33,310.19L46.34,315.1L47.63,310.19L51.57,305.29L51.57,310.19L51.87,315.1L52.68,310.19L53.61,320L55.05,315.1L55.46,320L58.68,315.1L58.68,320L58.68,315.1L60.21,310.19L60.54,315.1L61.35,310.19L62.14,305.29L62.17,310.19L62.17,305.29L62.76,320L64.65,315.1L64.95,320L65.64,315.1L65.8,310.19L66.79,315.1L66.97,305.29L67.1,310.19L67.95,315.1L68.27,310.19L68.27,315.1L68.83,310.19L68.91,300.39L69.11,320L69.71,315.1L70.58,310.19L70.58,315.1L71.33,305.29L71.34,310.19L72.05,305.29L76.68,300.39L77.16,295.48L78.88,320L79.9,315.1L79.9,320L80.9,315.1L82.12,310.19L82.18,315.1L83.12,310.19L83.27,305.29L84.22,295.48L84.22,300.39L84.24,305.29L85.4,295.48L85.42,300.39L86.27,295.48L86.27,300.39L86.57,305.29L87.15,300.39L87.15,305.29L87.16,300.39L89.01,305.29L89.19,300.39L89.2,305.29L90.11,300.39L90.35,305.29L91.09,300.39L91.56,295.48L92.35,300.39L93.08,295.48L93.38,300.39L95.7,295.48L95.7,300.39L96.3,295.48L96.32,300.39L97.74,305.29L98.25,300.39L98.46,305.29L98.61,300.39L98.62,305.29L99.65,300.39L99.66,270.97L100.37,295.48L100.66,300.39L100.66,305.29L100.82,295.48L101.23,295.48L101.83,290.58L102.56,295.48L102.74,290.58L103.28,280.77L103.45,290.58L103.54,295.48L104.18,275.87L104.31,285.68L105.29,290.58L105.74,275.87L106.28,280.77L107.36,256.26L108.33,251.35L109.38,256.26L109.67,251.35L110.41,261.16L110.41,261.16L110.54,256.26L110.84,275.87L110.98,270.97L111.64,266.06L112.15,246.45L112.16,251.35L112.55,256.26L112.59,261.16L113.46,256.26L113.59,251.35L113.6,256.26L114.92,261.16L115.04,280.77L115.63,275.87L115.64,270.97L115.65,280.77L116.77,275.87L116.77,280.77L118.97,275.87L118.98,270.97L118.98,280.77L121.01,275.87L121.02,280.77L121.02,275.87L122.11,280.77L122.16,275.87L124.05,270.97L124.91,280.77L124.91,275.87L125.07,280.77L125.23,275.87L125.24,280.77L126.08,275.87L126.42,280.77L127.13,275.87L127.16,280.77L128.83,275.87L128.86,280.77L130.74,275.87L130.85,280.77L131.25,275.87L131.74,270.97L131.87,275.87L132.78,270.97L132.78,275.87L133.2,256.26L133.34,256.26L133.74,251.35L134.1,275.87L134.1,275.87L135.1,270.97L135.4,280.77L136.12,275.87L137.12,270.97L137.24,266.06L137.82,270.97L138,266.06L138.85,251.35L138.88,256.26L139.88,241.55L139.88,236.65L139.89,231.74L140.04,261.16L141.33,256.26L141.45,251.35L141.47,256.26L142.93,251.35L143.72,270.97L144.95,266.06L145.37,270.97L147.01,266.06L148.11,261.16L148.12,266.06L149.47,251.35L149.47,256.26L149.73,261.16L149.76,266.06L150.17,256.26L150.17,261.16L150.5,256.26L150.5,261.16L151.52,266.06L151.69,275.87L152.41,270.97L152.51,266.06L154.15,261.16L154.69,246.45L154.7,251.35L154.71,256.26L154.76,270.97L156.6,266.06L156.7,270.97L156.74,266.06L158.36,261.16L158.37,266.06L159.77,261.16L159.77,266.06L160.2,261.16L160.66,256.26L161.36,251.35L161.4,256.26L164.31,261.16L167.42,251.35L168.17,246.45L168.96,251.35L169.68,246.45L169.69,251.35L172.42,246.45L172.89,251.35L173.51,246.45L174.75,241.55L175,246.45L175,241.55L175.04,280.77L175.05,275.87L177.48,270.97L177.5,275.87L179.89,280.77L181.01,275.87L181.01,280.77L181.65,275.87L181.68,280.77L183.94,275.87L184.1,270.97L185.51,275.87L185.53,280.77L185.84,246.45L186.13,241.55L186.24,261.16L187.79,256.26L188.13,241.55L189.83,236.65L190.34,231.74L190.35,236.65L192.6,231.74L193.09,236.65L194.45,231.74L194.75,236.65L195.06,231.74L197.29,226.84L200.34,221.94L200.44,226.84L201.36,221.94L202.08,226.84L202.11,217.03L202.34,221.94L203.24,226.84L203.51,246.45L204.35,251.35L204.43,256.26L204.53,246.45L208.03,241.55L208.61,246.45L209.31,241.55L209.46,236.65L211.65,231.74L214.67,226.84L216.28,221.94L216.31,217.03L217.65,212.13L218.45,217.03L218.47,212.13L218.78,246.45L218.79,241.55L219.79,246.45L220.22,251.35L220.23,246.45L221.4,251.35L221.87,261.16L222.25,256.26L222.27,261.16L222.81,246.45L222.85,256.26L223.43,261.16L223.46,266.06L224.39,261.16L225.59,256.26L225.6,261.16L227.63,251.35L227.92,246.45L230.33,241.55L231.47,246.45L233.09,241.55L233.58,236.65L235.94,226.84L235.95,231.74L236.82,217.03L238.69,212.13L238.98,197.42L239.52,192.52L240.61,182.71L240.66,187.61L242.95,153.29L243.03,158.19L243.03,163.1L243.19,148.39L243.61,158.19L243.79,153.29L243.91,148.39L245.23,143.48L245.38,138.58L245.65,153.29L245.65,158.19L245.83,187.61L246.11,177.81L246.62,172.9L247.69,256.26L247.93,251.35L248.11,246.45L248.13,241.55L248.74,256.26L248.83,251.35L249.03,246.45L249.86,256.26L249.97,261.16L249.98,251.35L250.43,266.06L250.74,270.97L251.16,256.26L251.19,251.35L251.75,266.06L252.01,261.16L252.01,266.06L252.31,261.16L253.02,256.26L253.06,251.35L253.89,256.26L254.39,246.45L255.04,241.55L255.93,231.74L255.93,236.65L255.99,231.74L256.81,226.84L256.81,231.74L257.41,226.84L258.19,221.94L258.31,217.03L259.27,221.94L262.99,217.03L263.08,212.13L263.34,207.23L263.66,212.13L265.28,207.23L266.24,197.42L266.6,192.52L267,187.61L268.62,182.71L269.07,168L269.28,182.71L269.28,187.61L270.53,163.1L272.64,158.19L272.71,148.39L273.76,143.48L275.43,133.68L275.47,138.58L275.49,172.9L276.13,153.29L276.42,148.39L276.42,153.29L276.56,148.39L278.74,143.48L280.47,138.58L280.67,133.68L282.46,128.77L282.46,133.68L282.46,128.77L282.46,133.68L283.44,128.77L283.63,123.87L284.32,128.77L284.86,148.39L285.04,143.48L285.3,148.39L285.51,153.29L287.08,148.39L287.62,153.29L287.96,148.39L289.74,138.58L289.74,143.48L290.6,133.68L290.66,128.77L291.84,133.68L291.88,138.58L291.89,133.68L292.34,192.52L292.42,192.52L295.02,187.61L295.52,192.52L295.92,187.61L295.94,192.52L298.81,187.61L299.53,197.42L299.57,192.52L299.68,187.61L299.68,192.52L299.94,192.52L300.64,197.42L300.83,187.61L300.83,192.52L303.23,187.61L303.24,182.71L304.05,177.81L306.11,172.9L306.65,168L306.81,153.29L306.85,177.81L307.22,168L307.68,172.9L308.16,182.71L308.39,177.81L308.66,172.9L309.33,231.74L309.47,236.65L310.7,217.03L311.34,212.13L312.36,187.61L313.35,182.71L314.26,177.81L314.37,172.9L315.23,158.19L315.27,163.1L316.26,109.16L318.5,104.26L320.45,99.35L320.45,94.45L323.91,99.35L323.98,94.45L325.27,89.55L325.7,84.65L327.75,65.03L327.75,60.13L327.89,50.32L328.29,153.29L328.61,148.39L329.06,143.48L329.08,158.19L329.34,153.29L329.49,148.39L330.54,123.87L330.66,128.77L333.06,123.87L333.56,118.97L333.86,123.87L334.84,118.97L335.24,123.87L336.42,118.97L337.9,123.87L337.93,138.58L338.6,133.68L339.32,138.58L339.77,168L340.2,172.9L340.33,168L340.65,182.71L340.85,177.81L341.24,182.71L341.82,177.81L342.66,163.1L343.56,158.19L343.79,148.39L344.45,143.48L345.32,153.29L345.74,148.39L345.74,153.29L346.46,148.39L346.75,153.29L346.75,163.1L347.32,158.19L348.68,153.29L348.9,143.48L349.35,158.19L349.36,158.19L349.36,163.1L350.02,153.29L350.24,148.39L351.05,138.58L351.07,143.48L354.21,138.58L354.6,143.48L356.01,138.58L356.46,133.68L356.47,138.58L357.24,143.48L357.53,138.58L357.61,148.39L358.38,143.48L359.51,128.77L359.51,133.68L359.96,123.87L360.53,118.97L360.98,128.77L361,118.97L361.54,123.87L361.54,118.97L362.15,123.87L362.88,118.97L363.02,123.87L363.72,118.97L364.29,114.06L364.5,118.97L364.91,104.26L364.96,114.06L365.76,109.16L365.81,104.26L366.64,99.35L367.78,94.45L367.87,89.55L368.6,69.94L368.97,65.03L369.09,69.94L370.84,65.03L371.13,60.13L372.22,55.23L372.37,99.35L372.49,99.35L373.99,94.45L374.94,89.55L374.95,94.45L376.83,89.55L376.83,94.45L377.26,89.55L379.74,84.65L379.74,89.55L380.43,89.55L381.04,84.65L381.81,65.03L381.88,69.94L383.08,65.03L383.18,55.23L383.63,79.74L383.63,84.65L384.01,79.74L384.24,84.65L385.23,79.74L386.07,60.13L386.29,55.23L386.88,79.74L386.99,65.03L387.19,60.13L387.91,89.55L388.15,84.65L389.08,133.68L389.1,128.77L389.81,158.19L390.19,153.29L390.96,158.19L390.97,153.29L391.01,158.19L393.5,153.29L394.13,138.58L394.15,143.48L394.4,148.39L398.02,143.48L398.04,148.39L398.77,138.58L399.69,143.48L400.84,138.58L401.78,133.68L401.78,138.58L403.67,133.68L403.82,123.87L404.86,128.77L405.41,118.97L405.42,114.06L405.43,94.45L409.26,99.35L410.36,79.74L412.52,74.84L413.03,65.03L413.03,69.94L413.03,74.84L415.16,65.03L415.63,60.13L418.45,50.32L418.65,45.42L419.23,40.52L419.23,45.42L419.41,50.32L420.02,74.84L420.16,69.94L420.77,65.03L420.82,69.94L421.15,45.42L421.56,40.52L421.75,25.81L421.95,40.52L421.95,45.42L421.96,55.23L422.61,35.61L422.74,30.71L423.03,25.81L423.13,40.52L423.15,45.42L423.2,40.52L423.88,60.13L423.92,55.23L424.01,50.32L424.02,69.94L424.66,65.03L424.93,60.13L425.67,55.23L425.68,50.32L426.12,79.74L426.62,69.94L426.65,65.03L427.05,35.61L427.24,89.55L427.56,84.65L428.01,55.23L428.15,74.84L428.16,79.74L428.21,89.55L428.79,74.84L428.83,79.74L429.45,74.84L429.59,89.55L430.17,65.03L430.25,60.13L430.31,65.03L430.69,35.61L430.69,30.71L430.73,16L430.86,99.35L431.19,79.74L431.61,74.84L432.04,65.03L432.14,74.84L432.28,79.74L432.95,69.94L433.21,74.84L433.75,89.55L433.93,79.74L434.04,84.65L434.39,74.84L434.78,99.35L434.9,94.45L435.22,79.74L435.37,104.26L435.39,99.35L435.8,94.45L436.48,118.97L437.09,114.06L437.09,118.97L437.84,99.35L437.85,94.45L438.09,79.74L438.83,84.65L438.97,109.16L439.29,74.84L439.45,84.65L439.63,89.55L439.85,84.65L440.02,99.35L441.21,94.45L441.35,104.26L441.51,94.45L442.19,89.55L442.35,94.45L442.54,84.65L442.89,79.74L442.92,94.45L443.33,84.65L444.05,79.74L444.57,74.84L444.57,79.74L444.57,84.65L445.11,74.84L445.11,69.94L445.12,65.03L445.16,84.65L445.3,69.94L446.17,65.03L446.4,50.32L446.53,69.94L446.61,74.84L447.34,114.06L447.61,104.26L447.61,99.35L447.98,94.45L447.98,104.26L447.98,109.16L447.98,104.26L447.98,118.97L448.59,114.06L448.83,109.16L449.07,114.06L449.33,94.45L449.46,99.35L449.47,94.45L450.04,128.77L450.23,109.16L450.24,104.26L450.3,94.45L450.32,128.77L450.52,109.16L450.95,104.26L450.95,109.16L451.67,84.65L451.95,89.55L452.49,133.68L452.66,128.77L453.09,133.68L453.54,109.16L453.84,114.06L454.09,109.16L454.09,114.06L454.55,104.26L454.55,104.26L455.69,99.35L456.3,89.55L456.3,94.45L457.12,89.55L457.17,84.65L457.2,123.87L457.61,118.97L458.17,123.87L458.29,128.77L458.43,109.16L458.43,109.16L458.45,104.26L458.88,89.55L459.16,109.16L459.18,109.16L459.21,114.06L459.55,99.35L459.63,128.77L459.71,123.87L459.75,128.77L459.9,133.68L460.52,118.97L460.52,123.87L460.53,128.77L460.78,123.87L461.13,133.68L461.13,128.77L461.2,133.68L461.5,138.58L461.81,118.97L461.83,123.87L462.24,118.97L463.36,104.26L463.7,109.16L463.72,104.26L463.86,123.87L464.3,123.87L464.6,118.97L464.61,123.87L464.89,114.06L465.14,123.87L465.45,118.97L465.77,138.58L466.03,128.77L466.35,133.68L467.03,123.87L467.03,128.77L467.28,123.87L467.45,109.16L467.47,128.77L467.65,118.97L468.37,123.87L468.37,118.97L468.92,138.58L469.34,133.68L469.64,128.77L469.66,138.58L469.94,133.68L470.24,128.77L470.93,123.87L470.93,128.77L471.09,133.68L471.11,128.77L471.25,153.29L471.65,148.39L471.8,153.29L471.95,138.58L472.55,153.29L472.57,148.39L473,153.29L473.16,148.39L473.26,143.48L473.41,128.77L473.56,158.19L473.87,153.29L474.41,148.39L474.55,158.19L474.58,153.29L474.59,148.39L475.32,168L475.32,163.1L475.45,168L476.04,158.19L476.89,153.29L477.02,158.19L477.7,153.29L477.85,143.48L477.9,168L477.93,168L477.94,172.9L478.65,153.29L478.66,168L478.66,172.9L479.37,163.1L479.4,168L479.49,172.9L479.68,158.19L479.82,163.1L480.38,158.19L480.38,163.1L481.13,143.48L481.13,153.29L481.15,148.39L481.15,143.48L481.55,163.1L481.9,153.29L481.97,148.39L482.6,143.48L482.86,148.39L482.86,153.29L482.88,143.48L482.9,148.39L483.87,143.48L483.87,148.39L484.49,138.58L484.5,143.48L484.64,138.58L485.63,123.87L485.63,128.77L485.76,133.68L486.06,123.87L486.99,128.77L487.07,133.68L487.64,123.87L487.64,128.77L487.68,123.87L488.22,148.39L488.26,148.39L488.66,143.48L488.68,153.29L489.4,133.68L489.54,128.77L489.7,123.87L489.71,143.48L490.01,133.68L490.03,138.58L490.69,133.68L490.69,138.58L491.06,133.68L491.06,138.58L491.29,123.87L491.31,138.58L492,133.68L492.15,158.19L492.73,153.29L492.76,148.39L492.81,143.48L493.46,172.9L494.25,168L494.66,172.9L494.69,168L495.36,163.1L495.92,172.9L496.71,168L497.16,158.19L497.58,163.1L497.66,168L498.03,158.19L498.03,163.1L498.09,168L498.12,172.9L498.14,163.1L498.27,168L498.83,163.1L498.83,168L499.26,153.29L499.33,158.19L500.03,163.1L500.17,153.29L500.67,163.1L501.55,158.19L502.44,153.29L502.44,158.19L502.44,153.29L502.48,163.1L503.05,163.1L503.95,158.19L504.06,148.39L504.08,163.1L504.22,153.29L505.08,158.19L505.68,138.58L506.01,133.68L506.54,138.58L506.72,133.68L506.72,128.77L507.38,109.16L507.38,138.58L507.48,133.68L508.03,123.87L508.03,133.68L508.03,138.58L508.64,133.68L508.88,138.58L509,133.68L509.32,148.39L509.99,153.29L510.48,143.48L510.61,153.29L510.61,158.19L510.61,153.29L511.01,168L511.3,168L511.46,163.1L512.09,158.19L512.18,163.1L512.2,168L512.4,153.29L512.55,158.19L513.21,153.29L514.08,168L514.13,163.1L514.37,168L514.82,158.19L515.09,163.1L515.43,148.39L515.52,158.19L516.31,153.29L516.7,163.1L516.78,148.39L517.14,143.48L517.72,133.68L517.84,158.19L517.85,153.29L517.87,158.19L519.83,128.77L520.24,133.68L520.25,138.58L521.23,133.68L521.49,143.48L521.95,123.87L521.95,143.48L521.99,138.58L522.82,133.68L524.26,128.77L525.45,109.16L525.56,114.06L525.56,123.87L525.73,109.16L525.78,109.16L528.05,114.06L528.46,104.26L528.49,138.58L528.77,133.68L528.78,143.48L528.9,138.58L529.64,133.68L529.64,128.77L529.93,138.58L529.94,133.68L530.53,128.77L530.66,109.16L530.94,123.87L531.39,128.77L531.98,109.16L532.43,104.26L532.56,109.16L532.73,99.35L532.73,109.16L534.69,104.26L534.69,109.16L536.52,104.26L537.96,84.65L538.12,79.74L538.18,69.94L538.18,84.65L538.65,79.74L538.99,74.84L540,69.94" style="fill: rgb(44, 160, 44); fill-opacity: 0.5; stroke-width: 0;"/></g></g><g class="errorbars"/><g class="lines"><path class="js-line" d="M0,315.1L0.1,320L1.05,315.1L1.75,320L1.86,315.1L1.86,320L3.15,315.1L3.63,320L3.92,315.1L3.92,320L4.8,315.1L4.8,320L4.9,320L5.65,315.1L5.65,320L6.26,320L7.11,315.1L7.11,320L7.71,320L9.28,315.1L9.28,320L9.93,315.1L10.15,320L11.9,315.1L11.9,320L14.82,315.1L14.82,320L22.37,315.1L22.37,320L22.57,315.1L22.57,320L24.22,315.1L24.22,310.19L24.37,315.1L25.54,320L27.28,315.1L27.28,320L28.18,310.19L28.18,315.1L28.63,310.19L28.63,315.1L28.63,320L31.53,315.1L31.53,320L31.67,315.1L31.67,320L32.94,315.1L32.94,320L33.56,320L34.47,315.1L34.47,320L35.26,315.1L35.26,320L35.78,320L36.03,315.1L36.12,320L37.35,315.1L38.78,310.19L39.23,315.1L39.35,310.19L39.35,315.1L40.68,320L41.42,315.1L41.42,320L43.16,315.1L43.16,320L44.28,315.1L44.28,320L44.78,300.39L44.89,305.29L45.43,310.19L45.88,315.1L46.33,310.19L46.34,315.1L47.63,310.19L51.57,305.29L51.57,310.19L51.87,315.1L52.68,310.19L53.61,320L55.05,315.1L55.46,320L58.68,315.1L58.68,320L58.68,315.1L60.21,310.19L60.54,315.1L61.35,310.19L62.14,305.29L62.17,310.19L62.17,305.29L62.76,320L64.65,315.1L64.95,320L65.64,315.1L65.8,310.19L66.79,315.1L66.97,305.29L67.1,310.19L67.95,315.1L68.27,310.19L68.27,315.1L68.83,310.19L68.91,300.39L69.11,320L69.71,315.1L70.58,310.19L70.58,315.1L71.33,305.29L71.34,310.19L72.05,305.29L76.68,300.39L77.16,295.48L78.88,320L79.9,315.1L79.9,320L80.9,315.1L82.12,310.19L82.18,315.1L83.12,310.19L83.27,305.29L84.22,295.48L84.22,300.39L84.24,305.29L85.4,295.48L85.42,300.39L86.27,295.48L86.27,300.39L86.57,305.29L87.15,300.39L87.15,305.29L87.16,300.39L89.01,305.29L89.19,300.39L89.2,305.29L90.11,300.39L90.35,305.29L91.09,300.39L91.56,295.48L92.35,300.39L93.08,295.48L93.38,300.39L95.7,295.48L95.7,300.39L96.3,295.48L96.32,300.39L97.74,305.29L98.25,300.39L98.46,305.29L98.61,300.39L98.62,305.29L99.65,300.39L99.66,270.97L100.37,295.48L100.66,300.39L100.66,305.29L100.82,295.48L101.23,295.48L101.83,290.58L102.56,295.48L102.74,290.58L103.28,280.77L103.45,290.58L103.54,295.48L104.18,275.87L104.31,285.68L105.29,290.58L105.74,275.87L106.28,280.77L107.36,256.26L108.33,251.35L109.38,256.26L109.67,251.35L110.41,261.16L110.41,261.16L110.54,256.26L110.84,275.87L110.98,270.97L111.64,266.06L112.15,246.45L112.16,251.35L112.55,256.26L112.59,261.16L113.46,256.26L113.59,251.35L113.6,256.26L114.92,261.16L115.04,280.77L115.63,275.87L115.64,270.97L115.65,280.77L116.77,275.87L116.77,280.77L118.97,275.87L118.98,270.97L118.98,280.77L121.01,275.87L121.02,280.77L121.02,275.87L122.11,280.77L122.16,275.87L124.05,270.97L124.91,280.77L124.91,275.87L125.07,280.77L125.23,275.87L125.24,280.77L126.08,275.87L126.42,280.77L127.13,275.87L127.16,280.77L128.83,275.87L128.86,280.77L130.74,275.87L130.85,280.77L131.25,275.87L131.74,270.97L131.87,275.87L132.78,270.97L132.78,275.87L133.2,256.26L133.34,256.26L133.74,251.35L134.1,275.87L134.1,275.87L135.1,270.97L135.4,280.77L136.12,275.87L137.12,270.97L137.24,266.06L137.82,270.97L138,266.06L138.85,251.35L138.88,256.26L139.88,241.55L139.88,236.65L139.89,231.74L140.04,261.16L141.33,256.26L141.45,251.35L141.47,256.26L142.93,251.35L143.72,270.97L144.95,266.06L145.37,270.97L147.01,266.06L148.11,261.16L148.12,266.06L149.47,251.35L149.47,256.26L149.73,261.16L149.76,266.06L150.17,256.26L150.17,261.16L150.5,256.26L150.5,261.16L151.52,266.06L151.69,275.87L152.41,270.97L152.51,266.06L154.15,261.16L154.69,246.45L154.7,251.35L154.71,256.26L154.76,270.97L156.6,266.06L156.7,270.97L156.74,266.06L158.36,261.16L158.37,266.06L159.77,261.16L159.77,266.06L160.2,261.16L160.66,256.26L161.36,251.35L161.4,256.26L164.31,261.16L167.42,251.35L168.17,246.45L168.96,251.35L169.68,246.45L169.69,251.35L172.42,246.45L172.89,251.35L173.51,246.45L174.75,241.55L175,246.45L175,241.55L175.04,280.77L175.05,275.87L177.48,270.97L177.5,275.87L179.89,280.77L181.01,275.87L181.01,280.77L181.65,275.87L181.68,280.77L183.94,275.87L184.1,270.97L185.51,275.87L185.53,280.77L185.84,246.45L186.13,241.55L186.24,261.16L187.79,256.26L188.13,241.55L189.83,236.65L190.34,231.74L190.35,236.65L192.6,231.74L193.09,236.65L194.45,231.74L194.75,236.65L195.06,231.74L197.29,226.84L200.34,221.94L200.44,226.84L201.36,221.94L202.08,226.84L202.11,217.03L202.34,221.94L203.24,226.84L203.51,246.45L204.35,251.35L204.43,256.26L204.53,246.45L208.03,241.55L208.61,246.45L209.31,241.55L209.46,236.65L211.65,231.74L214.67,226.84L216.28,221.94L216.31,217.03L217.65,212.13L218.45,217.03L218.47,212.13L218.78,246.45L218.79,241.55L219.79,246.45L220.22,251.35L220.23,246.45L221.4,251.35L221.87,261.16L222.25,256.26L222.27,261.16L222.81,246.45L222.85,256.26L223.43,261.16L223.46,266.06L224.39,261.16L225.59,256.26L225.6,261.16L227.63,251.35L227.92,246.45L230.33,241.55L231.47,246.45L233.09,241.55L233.58,236.65L235.94,226.84L235.95,231.74L236.82,217.03L238.69,212.13L238.98,197.42L239.52,192.52L240.61,182.71L240.66,187.61L242.95,153.29L243.03,158.19L243.03,163.1L243.19,148.39L243.61,158.19L243.79,153.29L243.91,148.39L245.23,143.48L245.38,138.58L245.65,153.29L245.65,158.19L245.83,187.61L246.11,177.81L246.62,172.9L247.69,256.26L247.93,251.35L248.11,246.45L248.13,241.55L248.74,256.26L248.83,251.35L249.03,246.45L249.86,256.26L249.97,261.16L249.98,251.35L250.43,266.06L250.74,270.97L251.16,256.26L251.19,251.35L251.75,266.06L252.01,261.16L252.01,266.06L252.31,261.16L253.02,256.26L253.06,251.35L253.89,256.26L254.39,246.45L255.04,241.55L255.93,231.74L255.93,236.65L255.99,231.74L256.81,226.84L256.81,231.74L257.41,226.84L258.19,221.94L258.31,217.03L259.27,221.94L262.99,217.03L263.08,212.13L263.34,207.23L263.66,212.13L265.28,207.23L266.24,197.42L266.6,192.52L267,187.61L268.62,182.71L269.07,168L269.28,182.71L269.28,187.61L270.53,163.1L272.64,158.19L272.71,148.39L273.76,143.48L275.43,133.68L275.47,138.58L275.49,172.9L276.13,153.29L276.42,148.39L276.42,153.29L276.56,148.39L278.74,143.48L280.47,138.58L280.67,133.68L282.46,128.77L282.46,133.68L282.46,128.77L282.46,133.68L283.44,128.77L283.63,123.87L284.32,128.77L284.86,148.39L285.04,143.48L285.3,148.39L285.51,153.29L287.08,148.39L287.62,153.29L287.96,148.39L289.74,138.58L289.74,143.48L290.6,133.68L290.66,128.77L291.84,133.68L291.88,138.58L291.89,133.68L292.34,192.52L292.42,192.52L295.02,187.61L295.52,192.52L295.92,187.61L295.94,192.52L298.81,187.61L299.53,197.42L299.57,192.52L299.68,187.61L299.68,192.52L299.94,192.52L300.64,197.42L300.83,187.61L300.83,192.52L303.23,187.61L303.24,182.71L304.05,177.81L306.11,172.9L306.65,168L306.81,153.29L306.85,177.81L307.22,168L307.68,172.9L308.16,182.71L308.39,177.81L308.66,172.9L309.33,231.74L309.47,236.65L310.7,217.03L311.34,212.13L312.36,187.61L313.35,182.71L314.26,177.81L314.37,172.9L315.23,158.19L315.27,163.1L316.26,109.16L318.5,104.26L320.45,99.35L320.45,94.45L323.91,99.35L323.98,94.45L325.27,89.55L325.7,84.65L327.75,65.03L327.75,60.13L327.89,50.32L328.29,153.29L328.61,148.39L329.06,143.48L329.08,158.19L329.34,153.29L329.49,148.39L330.54,123.87L330.66,128.77L333.06,123.87L333.56,118.97L333.86,123.87L334.84,118.97L335.24,123.87L336.42,118.97L337.9,123.87L337.93,138.58L338.6,133.68L339.32,138.58L339.77,168L340.2,172.9L340.33,168L340.65,182.71L340.85,177.81L341.24,182.71L341.82,177.81L342.66,163.1L343.56,158.19L343.79,148.39L344.45,143.48L345.32,153.29L345.74,148.39L345.74,153.29L346.46,148.39L346.75,153.29L346.75,163.1L347.32,158.19L348.68,153.29L348.9,143.48L349.35,158.19L349.36,158.19L349.36,163.1L350.02,153.29L350.24,148.39L351.05,138.58L351.07,143.48L354.21,138.58L354.6,143.48L356.01,138.58L356.46,133.68L356.47,138.58L357.24,143.48L357.53,138.58L357.61,148.39L358.38,143.48L359.51,128.77L359.51,133.68L359.96,123.87L360.53,118.97L360.98,128.77L361,118.97L361.54,123.87L361.54,118.97L362.15,123.87L362.88,118.97L363.02,123.87L363.72,118.97L364.29,114.06L364.5,118.97L364.91,104.26L364.96,114.06L365.76,109.16L365.81,104.26L366.64,99.35L367.78,94.45L367.87,89.55L368.6,69.94L368.97,65.03L369.09,69.94L370.84,65.03L371.13,60.13L372.22,55.23L372.37,99.35L372.49,99.35L373.99,94.45L374.94,89.55L374.95,94.45L376.83,89.55L376.83,94.45L377.26,89.55L379.74,84.65L379.74,89.55L380.43,89.55L381.04,84.65L381.81,65.03L381.88,69.94L383.08,65.03L383.18,55.23L383.63,79.74L383.63,84.65L384.01,79.74L384.24,84.65L385.23,79.74L386.07,60.13L386.29,55.23L386.88,79.74L386.99,65.03L387.19,60.13L387.91,89.55L388.15,84.65L389.08,133.68L389.1,128.77L389.81,158.19L390.19,153.29L390.96,158.19L390.97,153.29L391.01,158.19L393.5,153.29L394.13,138.58L394.15,143.48L394.4,148.39L398.02,143.48L398.04,148.39L398.77,138.58L399.69,143.48L400.84,138.58L401.78,133.68L401.78,138.58L403.67,133.68L403.82,123.87L404.86,128.77L405.41,118.97L405.42,114.06L405.43,94.45L409.26,99.35L410.36,79.74L412.52,74.84L413.03,65.03L413.03,69.94L413.03,74.84L415.16,65.03L415.63,60.13L418.45,50.32L418.65,45.42L419.23,40.52L419.23,45.42L419.41,50.32L420.02,74.84L420.16,69.94L420.77,65.03L420.82,69.94L421.15,45.42L421.56,40.52L421.75,25.81L421.95,40.52L421.95,45.42L421.96,55.23L422.61,35.61L422.74,30.71L423.03,25.81L423.13,40.52L423.15,45.42L423.2,40.52L423.88,60.13L423.92,55.23L424.01,50.32L424.02,69.94L424.66,65.03L424.93,60.13L425.67,55.23L425.68,50.32L426.12,79.74L426.62,69.94L426.65,65.03L427.05,35.61L427.24,89.55L427.56,84.65L428.01,55.23L428.15,74.84L428.16,79.74L428.21,89.55L428.79,74.84L428.83,79.74L429.45,74.84L429.59,89.55L430.17,65.03L430.25,60.13L430.31,65.03L430.69,35.61L430.69,30.71L430.73,16L430.86,99.35L431.19,79.74L431.61,74.84L432.04,65.03L432.14,74.84L432.28,79.74L432.95,69.94L433.21,74.84L433.75,89.55L433.93,79.74L434.04,84.65L434.39,74.84L434.78,99.35L434.9,94.45L435.22,79.74L435.37,104.26L435.39,99.35L435.8,94.45L436.48,118.97L437.09,114.06L437.09,118.97L437.84,99.35L437.85,94.45L438.09,79.74L438.83,84.65L438.97,109.16L439.29,74.84L439.45,84.65L439.63,89.55L439.85,84.65L440.02,99.35L441.21,94.45L441.35,104.26L441.51,94.45L442.19,89.55L442.35,94.45L442.54,84.65L442.89,79.74L442.92,94.45L443.33,84.65L444.05,79.74L444.57,74.84L444.57,79.74L444.57,84.65L445.11,74.84L445.11,69.94L445.12,65.03L445.16,84.65L445.3,69.94L446.17,65.03L446.4,50.32L446.53,69.94L446.61,74.84L447.34,114.06L447.61,104.26L447.61,99.35L447.98,94.45L447.98,104.26L447.98,109.16L447.98,104.26L447.98,118.97L448.59,114.06L448.83,109.16L449.07,114.06L449.33,94.45L449.46,99.35L449.47,94.45L450.04,128.77L450.23,109.16L450.24,104.26L450.3,94.45L450.32,128.77L450.52,109.16L450.95,104.26L450.95,109.16L451.67,84.65L451.95,89.55L452.49,133.68L452.66,128.77L453.09,133.68L453.54,109.16L453.84,114.06L454.09,109.16L454.09,114.06L454.55,104.26L454.55,104.26L455.69,99.35L456.3,89.55L456.3,94.45L457.12,89.55L457.17,84.65L457.2,123.87L457.61,118.97L458.17,123.87L458.29,128.77L458.43,109.16L458.43,109.16L458.45,104.26L458.88,89.55L459.16,109.16L459.18,109.16L459.21,114.06L459.55,99.35L459.63,128.77L459.71,123.87L459.75,128.77L459.9,133.68L460.52,118.97L460.52,123.87L460.53,128.77L460.78,123.87L461.13,133.68L461.13,128.77L461.2,133.68L461.5,138.58L461.81,118.97L461.83,123.87L462.24,118.97L463.36,104.26L463.7,109.16L463.72,104.26L463.86,123.87L464.3,123.87L464.6,118.97L464.61,123.87L464.89,114.06L465.14,123.87L465.45,118.97L465.77,138.58L466.03,128.77L466.35,133.68L467.03,123.87L467.03,128.77L467.28,123.87L467.45,109.16L467.47,128.77L467.65,118.97L468.37,123.87L468.37,118.97L468.92,138.58L469.34,133.68L469.64,128.77L469.66,138.58L469.94,133.68L470.24,128.77L470.93,123.87L470.93,128.77L471.09,133.68L471.11,128.77L471.25,153.29L471.65,148.39L471.8,153.29L471.95,138.58L472.55,153.29L472.57,148.39L473,153.29L473.16,148.39L473.26,143.48L473.41,128.77L473.56,158.19L473.87,153.29L474.41,148.39L474.55,158.19L474.58,153.29L474.59,148.39L475.32,168L475.32,163.1L475.45,168L476.04,158.19L476.89,153.29L477.02,158.19L477.7,153.29L477.85,143.48L477.9,168L477.93,168L477.94,172.9L478.65,153.29L478.66,168L478.66,172.9L479.37,163.1L479.4,168L479.49,172.9L479.68,158.19L479.82,163.1L480.38,158.19L480.38,163.1L481.13,143.48L481.13,153.29L481.15,148.39L481.15,143.48L481.55,163.1L481.9,153.29L481.97,148.39L482.6,143.48L482.86,148.39L482.86,153.29L482.88,143.48L482.9,148.39L483.87,143.48L483.87,148.39L484.49,138.58L484.5,143.48L484.64,138.58L485.63,123.87L485.63,128.77L485.76,133.68L486.06,123.87L486.99,128.77L487.07,133.68L487.64,123.87L487.64,128.77L487.68,123.87L488.22,148.39L488.26,148.39L488.66,143.48L488.68,153.29L489.4,133.68L489.54,128.77L489.7,123.87L489.71,143.48L490.01,133.68L490.03,138.58L490.69,133.68L490.69,138.58L491.06,133.68L491.06,138.58L491.29,123.87L491.31,138.58L492,133.68L492.15,158.19L492.73,153.29L492.76,148.39L492.81,143.48L493.46,172.9L494.25,168L494.66,172.9L494.69,168L495.36,163.1L495.92,172.9L496.71,168L497.16,158.19L497.58,163.1L497.66,168L498.03,158.19L498.03,163.1L498.09,168L498.12,172.9L498.14,163.1L498.27,168L498.83,163.1L498.83,168L499.26,153.29L499.33,158.19L500.03,163.1L500.17,153.29L500.67,163.1L501.55,158.19L502.44,153.29L502.44,158.19L502.44,153.29L502.48,163.1L503.05,163.1L503.95,158.19L504.06,148.39L504.08,163.1L504.22,153.29L505.08,158.19L505.68,138.58L506.01,133.68L506.54,138.58L506.72,133.68L506.72,128.77L507.38,109.16L507.38,138.58L507.48,133.68L508.03,123.87L508.03,133.68L508.03,138.58L508.64,133.68L508.88,138.58L509,133.68L509.32,148.39L509.99,153.29L510.48,143.48L510.61,153.29L510.61,158.19L510.61,153.29L511.01,168L511.3,168L511.46,163.1L512.09,158.19L512.18,163.1L512.2,168L512.4,153.29L512.55,158.19L513.21,153.29L514.08,168L514.13,163.1L514.37,168L514.82,158.19L515.09,163.1L515.43,148.39L515.52,158.19L516.31,153.29L516.7,163.1L516.78,148.39L517.14,143.48L517.72,133.68L517.84,158.19L517.85,153.29L517.87,158.19L519.83,128.77L520.24,133.68L520.25,138.58L521.23,133.68L521.49,143.48L521.95,123.87L521.95,143.48L521.99,138.58L522.82,133.68L524.26,128.77L525.45,109.16L525.56,114.06L525.56,123.87L525.73,109.16L525.78,109.16L528.05,114.06L528.46,104.26L528.49,138.58L528.77,133.68L528.78,143.48L528.9,138.58L529.64,133.68L529.64,128.77L529.93,138.58L529.94,133.68L530.53,128.77L530.66,109.16L530.94,123.87L531.39,128.77L531.98,109.16L532.43,104.26L532.56,109.16L532.73,99.35L532.73,109.16L534.69,104.26L534.69,109.16L536.52,104.26L537.96,84.65L538.12,79.74L538.18,69.94L538.18,84.65L538.65,79.74L538.99,74.84L540,69.94" style="vector-effect: none; fill: none; stroke: rgb(44, 160, 44); stroke-opacity: 1; stroke-width: 2px; opacity: 1;"/></g><g class="points"/><g class="text"/></g></g></g></g><g class="zerolinelayer-above"/><path class="xlines-above crisp" d="M0,0" style="fill: none;"/><path class="ylines-above crisp" d="M0,0" style="fill: none;"/><g class="overlines-above"/><g class="xaxislayer-above"><g class="xtick"><text text-anchor="middle" x="0" y="439" transform="translate(97.34,0)" style="font-family: 'Open Sans'; font-size: 18px; fill: rgb(0, 0, 0); fill-opacity: 1; white-space: pre;">2016</text></g><g class="xtick"><text text-anchor="middle" x="0" y="439" style="font-family: 'Open Sans'; font-size: 18px; fill: rgb(0, 0, 0); fill-opacity: 1; white-space: pre;" transform="translate(203.53,0)">2018</text></g><g class="xtick"><text text-anchor="middle" x="0" y="439" style="font-family: 'Open Sans'; font-size: 18px; fill: rgb(0, 0, 0); fill-opacity: 1; white-space: pre;" transform="translate(309.58000000000004,0)">2020</text></g><g class="xtick"><text text-anchor="middle" x="0" y="439" style="font-family: 'Open Sans'; font-size: 18px; fill: rgb(0, 0, 0); fill-opacity: 1; white-space: pre;" transform="translate(415.77,0)">2022</text></g><g class="xtick"><text text-anchor="middle" x="0" y="439" style="font-family: 'Open Sans'; font-size: 18px; fill: rgb(0, 0, 0); fill-opacity: 1; white-space: pre;" transform="translate(521.8199999999999,0)">2024</text></g></g><g class="yaxislayer-above"><g class="ytick"><text text-anchor="end" x="79" y="6.3" transform="translate(0,420)" style="font-family: 'Open Sans'; font-size: 18px; fill: rgb(0, 0, 0); fill-opacity: 1; white-space: pre;">0</text></g><g class="ytick"><text text-anchor="end" x="79" y="6.3" style="font-family: 'Open Sans'; font-size: 18px; fill: rgb(0, 0, 0); fill-opacity: 1; white-space: pre;" transform="translate(0,370.97)">10</text></g><g class="ytick"><text text-anchor="end" x="79" y="6.3" style="font-family: 'Open Sans'; font-size: 18px; fill: rgb(0, 0, 0); fill-opacity: 1; white-space: pre;" transform="translate(0,321.94)">20</text></g><g class="ytick"><text text-anchor="end" x="79" y="6.3" style="font-family: 'Open Sans'; font-size: 18px; fill: rgb(0, 0, 0); fill-opacity: 1; white-space: pre;" transform="translate(0,272.9)">30</text></g><g class="ytick"><text text-anchor="end" x="79" y="6.3" style="font-family: 'Open Sans'; font-size: 18px; fill: rgb(0, 0, 0); fill-opacity: 1; white-space: pre;" transform="translate(0,223.87)">40</text></g><g class="ytick"><text text-anchor="end" x="79" y="6.3" style="font-family: 'Open Sans'; font-size: 18px; fill: rgb(0, 0, 0); fill-opacity: 1; white-space: pre;" transform="translate(0,174.84)">50</text></g><g class="ytick"><text text-anchor="end" x="79" y="6.3" style="font-family: 'Open Sans'; font-size: 18px; fill: rgb(0, 0, 0); fill-opacity: 1; white-space: pre;" transform="translate(0,125.81)">60</text></g></g><g class="overaxes-above"/></g></g><g class="polarlayer"/><g class="smithlayer"/><g class="ternarylayer"/><g class="geolayer"/><g class="funnelarealayer"/><g class="pielayer"/><g class="iciclelayer"/><g class="treemaplayer"/><g class="sunburstlayer"/><g class="glimages"/><defs id="topdefs-8196cf"><g class="clips"/></defs><g class="layer-above"><g class="imagelayer"/><g class="shapelayer"/></g><g class="infolayer"><g class="g-gtitle"><text class="gtitle" x="35" y="50" text-anchor="start" dy="0em" style="opacity: 1; font-family: 'Open Sans'; font-size: 25px; fill: rgb(0, 0, 0); fill-opacity: 1; white-space: pre;">MultiQC/MultiQC - Open Pull Requests Over Time</text></g><g class="g-xtitle"><text class="xtitle" x="350" y="472.9" text-anchor="middle" style="opacity: 1; font-family: 'Open Sans'; font-size: 22px; fill: rgb(0, 0, 0); fill-opacity: 1; white-space: pre;">Date</text></g><g class="g-ytitle"><text class="ytitle" transform="rotate(-90,38.8,260)" x="38.8" y="260" text-anchor="middle" style="opacity: 1; font-family: 'Open Sans'; font-size: 22px; fill: rgb(0, 0, 0); fill-opacity: 1; white-space: pre;">Number of Open PRs</text></g></g></svg>