<svg class="main-svg" xmlns="http://www.w3.org/2000/svg" xmlns:xlink="http://www.w3.org/1999/xlink" width="700" height="500" style="" viewBox="0 0 700 500"><rect x="0" y="0" width="700" height="500" style="fill: rgb(0, 0, 0); fill-opacity: 0;"/><defs id="defs-5992e6"><g class="clips"><clipPath id="clip5992e6xyplot" class="plotclip"><rect width="540" height="320"/></clipPath><clipPath class="axesclip" id="clip5992e6x"><rect x="80" y="0" width="540" height="500"/></clipPath><clipPath class="axesclip" id="clip5992e6y"><rect x="0" y="100" width="700" height="320"/></clipPath><clipPath class="axesclip" id="clip5992e6xy"><rect x="80" y="100" width="540" height="320"/></clipPath></g><g class="gradients"/><g class="patterns"/></defs><g class="bglayer"><rect class="bg" x="80" y="100" width="540" height="320" style="fill: rgb(0, 0, 0); fill-opacity: 0; stroke-width: 0;"/></g><g class="layer-below"><g class="imagelayer"/><g class="shapelayer"/></g><g class="cartesianlayer"><g class="subplot xy"><g class="layer-subplot"><g class="shapelayer"/><g class="imagelayer"/></g><g class="minor-gridlayer"><g class="x"/><g class="y"/></g><g class="gridlayer"><g class="x"><path class="xgrid crisp" transform="translate(97.18,0)" d="M0,100v320" style="stroke: rgb(255, 255, 255); stroke-opacity: 1; stroke-width: 1px;"/><path class="xgrid crisp" transform="translate(202.35,0)" d="M0,100v320" style="stroke: rgb(255, 255, 255); stroke-opacity: 1; stroke-width: 1px;"/><path class="xgrid crisp" transform="translate(307.38,0)" d="M0,100v320" style="stroke: rgb(255, 255, 255); stroke-opacity: 1; stroke-width: 1px;"/><path class="xgrid crisp" transform="translate(412.55,0)" d="M0,100v320" style="stroke: rgb(255, 255, 255); stroke-opacity: 1; stroke-width: 1px;"/><path class="xgrid crisp" transform="translate(517.5699999999999,0)" d="M0,100v320" style="stroke: rgb(255, 255, 255); stroke-opacity: 1; stroke-width: 1px;"/></g><g class="y"><path class="ygrid crisp" transform="translate(0,382.47)" d="M80,0h540" style="stroke: rgb(255, 255, 255); stroke-opacity: 1; stroke-width: 1px;"/><path class="ygrid crisp" transform="translate(0,344.94)" d="M80,0h540" style="stroke: rgb(255, 255, 255); stroke-opacity: 1; stroke-width: 1px;"/><path class="ygrid crisp" transform="translate(0,307.40999999999997)" d="M80,0h540" style="stroke: rgb(255, 255, 255); stroke-opacity: 1; stroke-width: 1px;"/><path class="ygrid crisp" transform="translate(0,269.88)" d="M80,0h540" style="stroke: rgb(255, 255, 255); stroke-opacity: 1; stroke-width: 1px;"/><path class="ygrid crisp" transform="translate(0,232.35)" d="M80,0h540" style="stroke: rgb(255, 255, 255); stroke-opacity: 1; stroke-width: 1px;"/><path class="ygrid crisp" transform="translate(0,194.81)" d="M80,0h540" style="stroke: rgb(255, 255, 255); stroke-opacity: 1; stroke-width: 1px;"/><path class="ygrid crisp" transform="translate(0,157.28)" d="M80,0h540" style="stroke: rgb(255, 255, 255); stroke-opacity: 1; stroke-width: 1px;"/><path class="ygrid crisp" transform="translate(0,119.75)" d="M80,0h540" style="stroke: rgb(255, 255, 255); stroke-opacity: 1; stroke-width: 1px;"/></g></g><g class="zerolinelayer"><path class="yzl zl crisp" transform="translate(0,420)" d="M80,0h540" style="stroke: rgb(255, 255, 255); stroke-opacity: 1; stroke-width: 2px;"/></g><g class="layer-between"><g class="shapelayer"/><g class="imagelayer"/></g><path class="xlines-below"/><path class="ylines-below"/><g class="overlines-below"/><g class="xaxislayer-below"/><g class="yaxislayer-below"/><g class="overaxes-below"/><g class="overplot"><g class="xy" transform="translate(80,100)" clip-path="url(#clip5992e6xyplot)"><g class="scatterlayer mlayer"><g class="trace scatter tracefdeb2e" style="stroke-miterlimit: 2;"><g class="fills"><g><path class="js-fill" d="M540,320L0,320L0,319.81L3.58,318.5L3.88,318.31L5.88,317.19L6.2,317L14.67,315.5L22.16,315.31L22.36,315.12L23.99,314.93L23.99,314.75L27.02,314.56L44.31,309.87L44.32,309.68L44.35,309.3L45.3,309.12L45.89,308.74L47.17,308.55L59.63,307.24L60.76,307.05L68.17,304.8L68.22,304.61L69.04,303.67L69.9,303.49L71.36,302.74L75.94,302.55L79.14,301.8L80.12,301.61L84.19,300.3L84.58,300.11L95.38,298.23L96.83,298.04L98.7,296.73L98.7,296.54L99.41,294.1L99.82,293.92L100.26,293.54L100.85,293.35L102.56,292.04L102.7,291.85L103.3,290.91L104.29,290.73L105.45,289.41L105.56,289.22L106.33,288.47L107.29,288.29L110.57,286.41L110.57,286.22L111.08,285.66L112.37,285.47L112.5,285.28L114.52,285.1L114.53,284.91L115.65,284.72L123.41,283.41L123.71,283.22L124.03,282.66L124.87,282.47L131.92,280.78L131.92,280.59L132.81,279.84L133.81,279.65L137.86,277.78L138.53,277.59L138.67,276.65L139.98,276.46L140.09,276.28L141.56,276.09L142.11,275.71L143.56,275.53L143.87,275.15L145.6,274.96L155.24,271.77L156.84,271.59L173.35,268.96L173.37,268.77L183.76,267.46L183.76,267.27L184.42,266.14L185.99,265.96L186.33,265.2L188.01,265.02L188.51,264.45L190.75,264.27L215.56,261.08L216.28,260.89L216.69,259.95L218.12,259.76L222.23,258.64L223.42,258.45L236.4,256.01L236.4,255.82L237.22,255.07L237.5,254.88L240.13,253.57L240.38,253.38L240.86,252.26L241.45,252.07L241.56,251.88L242.87,251.69L244.89,250.38L245.55,250.19L246.87,249.25L247.58,249.07L247.58,248.88L248.58,248.69L249.59,247L249.73,246.81L250.63,246.25L251.47,246.06L255.83,244.38L260.46,244.19L260.82,243.81L262.74,243.62L266.49,242.12L266.6,241.94L267.93,240.81L270.02,240.62L270.09,240.25L271.13,240.06L276.07,238.37L277.78,238.18L277.97,238L279.74,237.81L279.75,237.62L280.72,237.43L280.91,237.24L282.3,237.06L287.81,235.93L287.87,235.74L297.76,233.68L297.94,233.49L303.71,232.37L303.84,232.18L304.27,231.61L305.43,231.43L306.31,229.93L306.32,229.74L308.74,227.86L308.78,227.67L312.2,226.17L312.29,225.99L313.05,225.05L313.06,224.86L313.22,224.11L315.44,223.92L323.94,222.42L324.6,222.23L324.78,221.48L325.46,221.29L327.37,219.6L329.86,219.42L330.36,219.04L331.62,218.85L340.26,217.17L340.29,216.98L341.14,216.6L342.42,216.41L347.59,214.54L347.68,214.35L355.17,213.22L355.18,213.04L358.66,211.54L359.39,211.35L364.34,209.47L364.38,209.28L365.42,208.53L367.28,208.35L370.4,207.03L371.34,206.84L377.66,205.53L377.78,205.34L382.75,202.9L382.76,202.72L383.47,201.4L384.43,201.21L387.21,199.53L389.72,199.34L390.34,198.78L394.2,198.59L397.92,197.09L399.79,196.9L399.94,196.52L401.41,196.34L401.54,195.21L405.56,195.02L406.42,194.46L408.56,194.27L412.91,193.15L414.44,192.96L416.11,192.02L416.73,191.83L418.09,189.02L418.54,188.83L419.14,187.14L419.5,186.95L420.4,184.7L420.56,184.51L420.85,183.95L421.53,183.76L424.02,176.63L424.43,176.44L426.56,172.88L426.56,172.69L427.57,169.88L427.89,169.69L430.74,166.87L430.74,166.69L431.19,165L431.21,164.81L433.63,162.93L433.65,162.75L433.88,162L434.77,161.81L435.66,157.87L435.76,157.68L435.78,157.49L436.97,157.3L437.27,156.74L437.95,156.55L440.95,153.93L440.97,153.74L441.02,153.36L441.88,153.18L443.68,149.8L443.68,149.61L444.52,146.61L444.58,146.42L445.33,142.85L445.61,142.67L446.19,137.6L446.62,137.41L447.63,134.79L448.32,134.6L448.9,133.66L448.91,133.47L450.18,131.41L451.31,131.22L452.8,129.16L452.91,128.97L456.1,122.78L456.1,122.59L457.37,118.65L457.38,118.46L457.8,118.08L458.26,117.9L459.27,116.96L459.27,116.77L459.6,115.27L460.14,115.08L460.67,114.33L460.98,114.14L462.11,111.89L462.12,111.7L462.85,108.89L462.95,108.7L463.16,107.58L463.88,107.39L464.83,105.32L464.88,105.14L467.34,100.26L467.35,100.07L468.88,97.25L469.32,97.07L471.17,90.69L471.47,90.5L473.26,89.37L473.32,89.19L474.06,86.93L474.19,86.75L475.95,81.68L476.34,81.49L477.05,78.49L477.1,78.3L477.34,77.55L477.96,77.36L480.82,74.74L480.82,74.55L481.39,73.42L482.57,73.23L483.29,72.11L483.54,71.92L484.7,69.29L484.84,69.11L486.57,67.04L487.28,66.85L488.03,64.98L488.06,64.79L488.64,62.91L489.5,62.73L493.23,60.85L493.24,60.66L495.55,56.16L496.74,55.97L497.66,55.03L498.1,54.84L499.38,53.34L500.23,53.16L503.15,50.53L503.75,50.34L507.29,47.71L507.32,47.53L508.7,45.65L509.19,45.46L510.57,42.83L511.36,42.65L512.17,41.52L512.19,41.33L513.46,40.21L513.49,40.02L516.48,38.52L516.49,38.33L517.07,36.08L517.25,35.89L517.8,35.52L519.22,35.33L520.73,33.64L522.99,33.45L523.69,31.2L523.81,31.01L524.55,30.45L524.84,30.26L525.56,28.95L525.61,28.76L527.61,25.76L529.55,25.57L532.64,24.63L532.79,24.44L533.82,23.13L534.81,22.94L537.79,21.25L537.94,21.07L538.65,19.38L538.93,19.19L539.68,16.38L539.79,16.19L540,16" style="fill: rgb(44, 160, 44); fill-opacity: 0.5; stroke-width: 0;"/></g></g><g class="errorbars"/><g class="lines"><path class="js-line" d="M0,319.81L3.58,318.5L3.88,318.31L5.88,317.19L6.2,317L14.67,315.5L22.16,315.31L22.36,315.12L23.99,314.93L23.99,314.75L27.02,314.56L44.31,309.87L44.32,309.68L44.35,309.3L45.3,309.12L45.89,308.74L47.17,308.55L59.63,307.24L60.76,307.05L68.17,304.8L68.22,304.61L69.04,303.67L69.9,303.49L71.36,302.74L75.94,302.55L79.14,301.8L80.12,301.61L84.19,300.3L84.58,300.11L95.38,298.23L96.83,298.04L98.7,296.73L98.7,296.54L99.41,294.1L99.82,293.92L100.26,293.54L100.85,293.35L102.56,292.04L102.7,291.85L103.3,290.91L104.29,290.73L105.45,289.41L105.56,289.22L106.33,288.47L107.29,288.29L110.57,286.41L110.57,286.22L111.08,285.66L112.37,285.47L112.5,285.28L114.52,285.1L114.53,284.91L115.65,284.72L123.41,283.41L123.71,283.22L124.03,282.66L124.87,282.47L131.92,280.78L131.92,280.59L132.81,279.84L133.81,279.65L137.86,277.78L138.53,277.59L138.67,276.65L139.98,276.46L140.09,276.28L141.56,276.09L142.11,275.71L143.56,275.53L143.87,275.15L145.6,274.96L155.24,271.77L156.84,271.59L173.35,268.96L173.37,268.77L183.76,267.46L183.76,267.27L184.42,266.14L185.99,265.96L186.33,265.2L188.01,265.02L188.51,264.45L190.75,264.27L215.56,261.08L216.28,260.89L216.69,259.95L218.12,259.76L222.23,258.64L223.42,258.45L236.4,256.01L236.4,255.82L237.22,255.07L237.5,254.88L240.13,253.57L240.38,253.38L240.86,252.26L241.45,252.07L241.56,251.88L242.87,251.69L244.89,250.38L245.55,250.19L246.87,249.25L247.58,249.07L247.58,248.88L248.58,248.69L249.59,247L249.73,246.81L250.63,246.25L251.47,246.06L255.83,244.38L260.46,244.19L260.82,243.81L262.74,243.62L266.49,242.12L266.6,241.94L267.93,240.81L270.02,240.62L270.09,240.25L271.13,240.06L276.07,238.37L277.78,238.18L277.97,238L279.74,237.81L279.75,237.62L280.72,237.43L280.91,237.24L282.3,237.06L287.81,235.93L287.87,235.74L297.76,233.68L297.94,233.49L303.71,232.37L303.84,232.18L304.27,231.61L305.43,231.43L306.31,229.93L306.32,229.74L308.74,227.86L308.78,227.67L312.2,226.17L312.29,225.99L313.05,225.05L313.06,224.86L313.22,224.11L315.44,223.92L323.94,222.42L324.6,222.23L324.78,221.48L325.46,221.29L327.37,219.6L329.86,219.42L330.36,219.04L331.62,218.85L340.26,217.17L340.29,216.98L341.14,216.6L342.42,216.41L347.59,214.54L347.68,214.35L355.17,213.22L355.18,213.04L358.66,211.54L359.39,211.35L364.34,209.47L364.38,209.28L365.42,208.53L367.28,208.35L370.4,207.03L371.34,206.84L377.66,205.53L377.78,205.34L382.75,202.9L382.76,202.72L383.47,201.4L384.43,201.21L387.21,199.53L389.72,199.34L390.34,198.78L394.2,198.59L397.92,197.09L399.79,196.9L399.94,196.52L401.41,196.34L401.54,195.21L405.56,195.02L406.42,194.46L408.56,194.27L412.91,193.15L414.44,192.96L416.11,192.02L416.73,191.83L418.09,189.02L418.54,188.83L419.14,187.14L419.5,186.95L420.4,184.7L420.56,184.51L420.85,183.95L421.53,183.76L424.02,176.63L424.43,176.44L426.56,172.88L426.56,172.69L427.57,169.88L427.89,169.69L430.74,166.87L430.74,166.69L431.19,165L431.21,164.81L433.63,162.93L433.65,162.75L433.88,162L434.77,161.81L435.66,157.87L435.76,157.68L435.78,157.49L436.97,157.3L437.27,156.74L437.95,156.55L440.95,153.93L440.97,153.74L441.02,153.36L441.88,153.18L443.68,149.8L443.68,149.61L444.52,146.61L444.58,146.42L445.33,142.85L445.61,142.67L446.19,137.6L446.62,137.41L447.63,134.79L448.32,134.6L448.9,133.66L448.91,133.47L450.18,131.41L451.31,131.22L452.8,129.16L452.91,128.97L456.1,122.78L456.1,122.59L457.37,118.65L457.38,118.46L457.8,118.08L458.26,117.9L459.27,116.96L459.27,116.77L459.6,115.27L460.14,115.08L460.67,114.33L460.98,114.14L462.11,111.89L462.12,111.7L462.85,108.89L462.95,108.7L463.16,107.58L463.88,107.39L464.83,105.32L464.88,105.14L467.34,100.26L467.35,100.07L468.88,97.25L469.32,97.07L471.17,90.69L471.47,90.5L473.26,89.37L473.32,89.19L474.06,86.93L474.19,86.75L475.95,81.68L476.34,81.49L477.05,78.49L477.1,78.3L477.34,77.55L477.96,77.36L480.82,74.74L480.82,74.55L481.39,73.42L482.57,73.23L483.29,72.11L483.54,71.92L484.7,69.29L484.84,69.11L486.57,67.04L487.28,66.85L488.03,64.98L488.06,64.79L488.64,62.91L489.5,62.73L493.23,60.85L493.24,60.66L495.55,56.16L496.74,55.97L497.66,55.03L498.1,54.84L499.38,53.34L500.23,53.16L503.15,50.53L503.75,50.34L507.29,47.71L507.32,47.53L508.7,45.65L509.19,45.46L510.57,42.83L511.36,42.65L512.17,41.52L512.19,41.33L513.46,40.21L513.49,40.02L516.48,38.52L516.49,38.33L517.07,36.08L517.25,35.89L517.8,35.52L519.22,35.33L520.73,33.64L522.99,33.45L523.69,31.2L523.81,31.01L524.55,30.45L524.84,30.26L525.56,28.95L525.61,28.76L527.61,25.76L529.55,25.57L532.64,24.63L532.79,24.44L533.82,23.13L534.81,22.94L537.79,21.25L537.94,21.07L538.65,19.38L538.93,19.19L539.68,16.38L539.79,16.19L540,16" style="vector-effect: none; fill: none; stroke: rgb(44, 160, 44); stroke-opacity: 1; stroke-width: 2px; opacity: 1;"/></g><g class="points"/><g class="text"/></g></g></g></g><g class="zerolinelayer-above"/><path class="xlines-above crisp" d="M0,0" style="fill: none;"/><path class="ylines-above crisp" d="M0,0" style="fill: none;"/><g class="overlines-above"/><g class="xaxislayer-above"><g class="xtick"><text text-anchor="middle" x="0" y="439" transform="translate(97.18,0)" style="font-family: 'Open Sans'; font-size: 18px; fill: rgb(255, 255, 255); fill-opacity: 1; white-space: pre;">2016</text></g><g class="xtick"><text text-anchor="middle" x="0" y="439" style="font-family: 'Open Sans'; font-size: 18px; fill: rgb(255, 255, 255); fill-opacity: 1; white-space: pre;" transform="translate(202.35,0)">2018</text></g><g class="xtick"><text text-anchor="middle" x="0" y="439" style="font-family: 'Open Sans'; font-size: 18px; fill: rgb(255, 255, 255); fill-opacity: 1; white-space: pre;" transform="translate(307.38,0)">2020</text></g><g class="xtick"><text text-anchor="middle" x="0" y="439" style="font-family: 'Open Sans'; font-size: 18px; fill: rgb(255, 255, 255); fill-opacity: 1; white-space: pre;" transform="translate(412.55,0)">2022</text></g><g class="xtick"><text text-anchor="middle" x="0" y="439" style="font-family: 'Open Sans'; font-size: 18px; fill: rgb(255, 255, 255); fill-opacity: 1; white-space: pre;" transform="translate(517.5699999999999,0)">2024</text></g></g><g class="yaxislayer-above"><g class="ytick"><text text-anchor="end" x="79" y="6.3" transform="translate(0,420)" style="font-family: 'Open Sans'; font-size: 18px; fill: rgb(255, 255, 255); fill-opacity: 1; white-space: pre;">0</text></g><g class="ytick"><text text-anchor="end" x="79" y="6.3" style="font-family: 'Open Sans'; font-size: 18px; fill: rgb(255, 255, 255); fill-opacity: 1; white-space: pre;" transform="translate(0,382.47)">200</text></g><g class="ytick"><text text-anchor="end" x="79" y="6.3" style="font-family: 'Open Sans'; font-size: 18px; fill: rgb(255, 255, 255); fill-opacity: 1; white-space: pre;" transform="translate(0,344.94)">400</text></g><g class="ytick"><text text-anchor="end" x="79" y="6.3" style="font-family: 'Open Sans'; font-size: 18px; fill: rgb(255, 255, 255); fill-opacity: 1; white-space: pre;" transform="translate(0,307.40999999999997)">600</text></g><g class="ytick"><text text-anchor="end" x="79" y="6.3" style="font-family: 'Open Sans'; font-size: 18px; fill: rgb(255, 255, 255); fill-opacity: 1; white-space: pre;" transform="translate(0,269.88)">800</text></g><g class="ytick"><text text-anchor="end" x="79" y="6.3" style="font-family: 'Open Sans'; font-size: 18px; fill: rgb(255, 255, 255); fill-opacity: 1; white-space: pre;" transform="translate(0,232.35)">1000</text></g><g class="ytick"><text text-anchor="end" x="79" y="6.3" style="font-family: 'Open Sans'; font-size: 18px; fill: rgb(255, 255, 255); fill-opacity: 1; white-space: pre;" transform="translate(0,194.81)">1200</text></g><g class="ytick"><text text-anchor="end" x="79" y="6.3" style="font-family: 'Open Sans'; font-size: 18px; fill: rgb(255, 255, 255); fill-opacity: 1; white-space: pre;" transform="translate(0,157.28)">1400</text></g><g class="ytick"><text text-anchor="end" x="79" y="6.3" style="font-family: 'Open Sans'; font-size: 18px; fill: rgb(255, 255, 255); fill-opacity: 1; white-space: pre;" transform="translate(0,119.75)">1600</text></g></g><g class="overaxes-above"/></g></g><g class="polarlayer"/><g class="smithlayer"/><g class="ternarylayer"/><g class="geolayer"/><g class="funnelarealayer"/><g class="pielayer"/><g class="iciclelayer"/><g class="treemaplayer"/><g class="sunburstlayer"/><g class="glimages"/><defs id="topdefs-5992e6"><g class="clips"/></defs><g class="layer-above"><g class="imagelayer"/><g class="shapelayer"/></g><g class="infolayer"><g class="g-gtitle"><text class="gtitle" x="35" y="50" text-anchor="start" dy="0em" style="opacity: 1; font-family: 'Open Sans'; font-size: 25px; fill: rgb(255, 255, 255); fill-opacity: 1; white-space: pre;">MultiQC/MultiQC - Pull Requests Created Over Time</text></g><g class="g-xtitle"><text class="xtitle" x="350" y="472.9" text-anchor="middle" style="opacity: 1; font-family: 'Open Sans'; font-size: 22px; fill: rgb(255, 255, 255); fill-opacity: 1; white-space: pre;">Date</text></g><g class="g-ytitle"><text class="ytitle" transform="rotate(-90,20.799999999999997,260)" x="20.799999999999997" y="260" text-anchor="middle" style="opacity: 1; font-family: 'Open Sans'; font-size: 22px; fill: rgb(255, 255, 255); fill-opacity: 1; white-space: pre;">Cumulative PRs Created</text></g></g></svg>