<svg class="main-svg" xmlns="http://www.w3.org/2000/svg" xmlns:xlink="http://www.w3.org/1999/xlink" width="700" height="500" style="" viewBox="0 0 700 500"><rect x="0" y="0" width="700" height="500" style="fill: rgb(0, 0, 0); fill-opacity: 0;"/><defs id="defs-7189c2"><g class="clips"><clipPath id="clip7189c2xyplot" class="plotclip"><rect width="540" height="320"/></clipPath><clipPath class="axesclip" id="clip7189c2x"><rect x="80" y="0" width="540" height="500"/></clipPath><clipPath class="axesclip" id="clip7189c2y"><rect x="0" y="100" width="700" height="320"/></clipPath><clipPath class="axesclip" id="clip7189c2xy"><rect x="80" y="100" width="540" height="320"/></clipPath></g><g class="gradients"/><g class="patterns"/></defs><g class="bglayer"><rect class="bg" x="80" y="100" width="540" height="320" style="fill: rgb(0, 0, 0); fill-opacity: 0; stroke-width: 0;"/></g><g class="layer-below"><g class="imagelayer"/><g class="shapelayer"/></g><g class="cartesianlayer"><g class="subplot xy"><g class="layer-subplot"><g class="shapelayer"/><g class="imagelayer"/></g><g class="minor-gridlayer"><g class="x"/><g class="y"/></g><g class="gridlayer"><g class="x"><path class="xgrid crisp" transform="translate(97.3,0)" d="M0,100v320" style="stroke: rgb(255, 255, 255); stroke-opacity: 1; stroke-width: 1px;"/><path class="xgrid crisp" transform="translate(203.24,0)" d="M0,100v320" style="stroke: rgb(255, 255, 255); stroke-opacity: 1; stroke-width: 1px;"/><path class="xgrid crisp" transform="translate(309.02,0)" d="M0,100v320" style="stroke: rgb(255, 255, 255); stroke-opacity: 1; stroke-width: 1px;"/><path class="xgrid crisp" transform="translate(414.96,0)" d="M0,100v320" style="stroke: rgb(255, 255, 255); stroke-opacity: 1; stroke-width: 1px;"/><path class="xgrid crisp" transform="translate(520.75,0)" d="M0,100v320" style="stroke: rgb(255, 255, 255); stroke-opacity: 1; stroke-width: 1px;"/></g><g class="y"><path class="ygrid crisp" transform="translate(0,381.71)" d="M80,0h540" style="stroke: rgb(255, 255, 255); stroke-opacity: 1; stroke-width: 1px;"/><path class="ygrid crisp" transform="translate(0,343.43)" d="M80,0h540" style="stroke: rgb(255, 255, 255); stroke-opacity: 1; stroke-width: 1px;"/><path class="ygrid crisp" transform="translate(0,305.14)" d="M80,0h540" style="stroke: rgb(255, 255, 255); stroke-opacity: 1; stroke-width: 1px;"/><path class="ygrid crisp" transform="translate(0,266.85)" d="M80,0h540" style="stroke: rgb(255, 255, 255); stroke-opacity: 1; stroke-width: 1px;"/><path class="ygrid crisp" transform="translate(0,228.56)" d="M80,0h540" style="stroke: rgb(255, 255, 255); stroke-opacity: 1; stroke-width: 1px;"/><path class="ygrid crisp" transform="translate(0,190.28)" d="M80,0h540" style="stroke: rgb(255, 255, 255); stroke-opacity: 1; stroke-width: 1px;"/><path class="ygrid crisp" transform="translate(0,151.99)" d="M80,0h540" style="stroke: rgb(255, 255, 255); stroke-opacity: 1; stroke-width: 1px;"/><path class="ygrid crisp" transform="translate(0,113.7)" d="M80,0h540" style="stroke: rgb(255, 255, 255); stroke-opacity: 1; stroke-width: 1px;"/></g></g><g class="zerolinelayer"><path class="yzl zl crisp" transform="translate(0,420)" d="M80,0h540" style="stroke: rgb(255, 255, 255); stroke-opacity: 1; stroke-width: 2px;"/></g><g class="layer-between"><g class="shapelayer"/><g class="imagelayer"/></g><path class="xlines-below"/><path class="ylines-below"/><g class="overlines-below"/><g class="xaxislayer-below"/><g class="yaxislayer-below"/><g class="overaxes-below"/><g class="overplot"><g class="xy" transform="translate(80,100)" clip-path="url(#clip7189c2xyplot)"><g class="scatterlayer mlayer"><g class="trace scatter trace80f13b" style="stroke-miterlimit: 2;"><g class="fills"><g><path class="js-fill" d="M540,320L0,320L0,319.81L3.61,318.47L3.91,318.28L5.93,317.13L6.24,316.94L14.78,315.41L22.32,315.21L22.52,315.02L24.17,314.83L24.17,314.64L27.22,314.45L35.53,311.96L35.94,311.77L44.53,309.85L44.63,309.66L44.67,309.09L45.63,308.9L46.22,308.51L47.51,308.32L60.07,306.98L61.2,306.79L68.67,304.49L68.72,304.3L69.54,303.35L70.41,303.15L71.88,302.39L76.49,302.2L79.71,301.43L80.7,301.24L84.8,299.9L85.2,299.71L96.07,297.79L97.53,297.6L99.42,296.26L99.42,296.07L100.13,293.58L100.54,293.39L100.98,293.01L101.58,292.82L103.3,291.48L103.44,291.28L104.05,290.33L105.05,290.14L106.21,288.8L106.33,288.6L107.1,287.84L108.07,287.65L111.37,285.73L111.37,285.54L111.88,284.97L113.18,284.78L113.31,284.58L115.35,284.39L115.36,284.2L116.49,284.01L124.31,282.67L124.6,282.48L124.93,281.9L125.78,281.71L132.87,279.99L132.88,279.8L133.77,279.03L134.78,278.84L138.86,276.93L139.54,276.74L139.68,275.78L140.99,275.59L141.11,275.4L142.58,275.2L143.14,274.82L144.6,274.63L144.91,274.25L146.65,274.06L154.32,271.18L156.22,270.99L156.36,270.8L157.98,270.61L174.61,267.93L174.62,267.74L185.09,266.4L185.1,266.21L185.76,265.06L187.34,264.87L187.68,264.1L189.37,263.91L189.88,263.34L192.13,263.14L217.13,259.89L217.85,259.7L218.26,258.74L219.7,258.55L222.27,257.59L223.84,257.4L238.11,254.72L238.11,254.53L238.94,253.76L239.23,253.57L241.87,252.23L242.12,252.04L242.6,250.89L243.2,250.7L243.32,250.51L244.63,250.32L246.02,249.36L246.5,249.17L248.42,248.02L248.66,247.83L250.55,246.68L250.59,246.49L251.4,245.53L251.54,245.34L252.45,244.77L253.3,244.57L257.68,242.85L262.35,242.66L262.71,242.28L264.64,242.09L268.42,240.55L268.53,240.36L269.87,239.21L271.98,239.02L272.05,238.64L273.1,238.45L278.07,236.73L279.79,236.53L279.99,236.34L281.77,236.15L281.78,235.96L282.75,235.77L282.95,235.58L284.35,235.39L289.9,234.24L289.96,234.05L305.91,230.79L305.91,230.6L306.47,229.83L307.65,229.64L308.53,228.11L308.55,227.92L310.98,226.01L311.02,225.81L314.47,224.28L314.55,224.09L315.32,223.13L315.33,222.94L315.49,222.18L317.73,221.98L326.29,220.45L326.96,220.26L327.13,219.5L327.82,219.3L329.74,217.58L332.25,217.39L332.76,217.01L334.03,216.82L342.73,215.09L342.76,214.9L343.62,214.52L344.9,214.33L350.12,212.41L350.2,212.22L357.74,211.07L357.75,210.88L360.67,209.54L361.26,209.35L366.98,207.24L367.02,207.05L368.08,206.29L369.94,206.1L373.09,204.76L374.04,204.56L380.4,203.22L380.52,203.03L385.53,200.54L385.53,200.35L386.25,199.01L387.22,198.82L390.02,197.1L392.55,196.91L393.17,196.33L397.06,196.14L400.81,194.61L402.69,194.42L402.84,194.04L404.32,193.84L404.45,192.7L408.5,192.5L409.37,191.93L411.53,191.74L415.91,190.59L417.44,190.4L419.13,189.44L419.76,189.25L421.13,186.38L421.58,186.19L422.18,184.46L422.54,184.27L423.45,181.97L423.61,181.78L423.9,181.21L424.59,181.02L427.09,173.74L427.51,173.55L429.65,169.91L429.65,169.72L430.67,166.85L431,166.66L433.86,163.79L433.86,163.6L434.32,161.87L434.34,161.68L436.78,159.77L436.79,159.58L437.03,158.81L437.92,158.62L438.94,154.22L440.14,154.03L440.45,153.45L441.12,153.26L444.15,150.58L444.17,150.39L444.22,150.01L445.09,149.81L446.9,146.37L446.9,146.18L447.74,143.11L447.8,142.92L448.56,139.28L448.84,139.09L449.43,133.92L449.86,133.73L450.58,131.63L450.86,131.44L451.57,130.86L452.01,130.67L452.74,128.37L452.99,128.18L453.45,127.61L454.58,127.42L456.09,125.31L456.2,125.12L459.39,118.99L459.41,118.8L460.15,117.08L460.22,116.89L460.66,115.36L460.66,115.16L461.13,114.02L461.59,113.82L462.6,112.87L462.6,112.68L462.94,111.14L463.48,110.95L464.02,110.19L464.32,109.99L465.46,107.7L465.47,107.51L466.38,103.68L466.47,103.49L467.79,101.19L468.21,101L469.1,99.27L469.37,99.08L470.16,96.98L470.39,96.79L470.81,95.25L471.27,95.06L472.27,92.96L472.28,92.77L472.95,91.81L472.99,91.62L474.04,88.75L474.16,88.55L474.89,85.87L475.74,85.68L476.7,84.73L476.75,84.53L477.5,82.24L477.63,82.05L479.41,76.88L479.79,76.69L480.71,73.05L480.74,72.86L481.73,71.52L482.7,71.32L483.47,70.37L483.99,70.18L484.89,68.45L486.07,68.26L486.8,67.11L487.05,66.92L488.22,64.24L488.35,64.05L491.57,59.84L491.6,59.65L492.18,57.73L493.06,57.54L496.81,55.63L496.82,55.44L499.15,50.84L500.34,50.65L501.27,49.69L501.71,49.5L503,47.97L503.86,47.78L506.8,45.1L507.41,44.91L510.97,42.23L511,42.04L512.39,40.12L512.88,39.93L514.27,37.25L515.07,37.06L515.53,36.1L515.89,35.91L516.6,35.14L516.95,34.95L518.58,33.8L519.97,33.61L521,30.17L521.24,29.97L524.5,27.87L526.78,27.68L527.62,25L528.36,24.81L528.66,24.04L529.24,23.85L530.26,20.98L530.7,20.79L533.4,19.64L535.23,19.45L536.88,17.91L536.92,17.72L537.69,17.15L538.69,16.96L540,16" style="fill: rgb(44, 160, 44); fill-opacity: 0.5; stroke-width: 0;"/></g></g><g class="errorbars"/><g class="lines"><path class="js-line" d="M0,319.81L3.61,318.47L3.91,318.28L5.93,317.13L6.24,316.94L14.78,315.41L22.32,315.21L22.52,315.02L24.17,314.83L24.17,314.64L27.22,314.45L35.53,311.96L35.94,311.77L44.53,309.85L44.63,309.66L44.67,309.09L45.63,308.9L46.22,308.51L47.51,308.32L60.07,306.98L61.2,306.79L68.67,304.49L68.72,304.3L69.54,303.35L70.41,303.15L71.88,302.39L76.49,302.2L79.71,301.43L80.7,301.24L84.8,299.9L85.2,299.71L96.07,297.79L97.53,297.6L99.42,296.26L99.42,296.07L100.13,293.58L100.54,293.39L100.98,293.01L101.58,292.82L103.3,291.48L103.44,291.28L104.05,290.33L105.05,290.14L106.21,288.8L106.33,288.6L107.1,287.84L108.07,287.65L111.37,285.73L111.37,285.54L111.88,284.97L113.18,284.78L113.31,284.58L115.35,284.39L115.36,284.2L116.49,284.01L124.31,282.67L124.6,282.48L124.93,281.9L125.78,281.71L132.87,279.99L132.88,279.8L133.77,279.03L134.78,278.84L138.86,276.93L139.54,276.74L139.68,275.78L140.99,275.59L141.11,275.4L142.58,275.2L143.14,274.82L144.6,274.63L144.91,274.25L146.65,274.06L154.32,271.18L156.22,270.99L156.36,270.8L157.98,270.61L174.61,267.93L174.62,267.74L185.09,266.4L185.1,266.21L185.76,265.06L187.34,264.87L187.68,264.1L189.37,263.91L189.88,263.34L192.13,263.14L217.13,259.89L217.85,259.7L218.26,258.74L219.7,258.55L222.27,257.59L223.84,257.4L238.11,254.72L238.11,254.53L238.94,253.76L239.23,253.57L241.87,252.23L242.12,252.04L242.6,250.89L243.2,250.7L243.32,250.51L244.63,250.32L246.02,249.36L246.5,249.17L248.42,248.02L248.66,247.83L250.55,246.68L250.59,246.49L251.4,245.53L251.54,245.34L252.45,244.77L253.3,244.57L257.68,242.85L262.35,242.66L262.71,242.28L264.64,242.09L268.42,240.55L268.53,240.36L269.87,239.21L271.98,239.02L272.05,238.64L273.1,238.45L278.07,236.73L279.79,236.53L279.99,236.34L281.77,236.15L281.78,235.96L282.75,235.77L282.95,235.58L284.35,235.39L289.9,234.24L289.96,234.05L305.91,230.79L305.91,230.6L306.47,229.83L307.65,229.64L308.53,228.11L308.55,227.92L310.98,226.01L311.02,225.81L314.47,224.28L314.55,224.09L315.32,223.13L315.33,222.94L315.49,222.18L317.73,221.98L326.29,220.45L326.96,220.26L327.13,219.5L327.82,219.3L329.74,217.58L332.25,217.39L332.76,217.01L334.03,216.82L342.73,215.09L342.76,214.9L343.62,214.52L344.9,214.33L350.12,212.41L350.2,212.22L357.74,211.07L357.75,210.88L360.67,209.54L361.26,209.35L366.98,207.24L367.02,207.05L368.08,206.29L369.94,206.1L373.09,204.76L374.04,204.56L380.4,203.22L380.52,203.03L385.53,200.54L385.53,200.35L386.25,199.01L387.22,198.82L390.02,197.1L392.55,196.91L393.17,196.33L397.06,196.14L400.81,194.61L402.69,194.42L402.84,194.04L404.32,193.84L404.45,192.7L408.5,192.5L409.37,191.93L411.53,191.74L415.91,190.59L417.44,190.4L419.13,189.44L419.76,189.25L421.13,186.38L421.58,186.19L422.18,184.46L422.54,184.27L423.45,181.97L423.61,181.78L423.9,181.21L424.59,181.02L427.09,173.74L427.51,173.55L429.65,169.91L429.65,169.72L430.67,166.85L431,166.66L433.86,163.79L433.86,163.6L434.32,161.87L434.34,161.68L436.78,159.77L436.79,159.58L437.03,158.81L437.92,158.62L438.94,154.22L440.14,154.03L440.45,153.45L441.12,153.26L444.15,150.58L444.17,150.39L444.22,150.01L445.09,149.81L446.9,146.37L446.9,146.18L447.74,143.11L447.8,142.92L448.56,139.28L448.84,139.09L449.43,133.92L449.86,133.73L450.58,131.63L450.86,131.44L451.57,130.86L452.01,130.67L452.74,128.37L452.99,128.18L453.45,127.61L454.58,127.42L456.09,125.31L456.2,125.12L459.39,118.99L459.41,118.8L460.15,117.08L460.22,116.89L460.66,115.36L460.66,115.16L461.13,114.02L461.59,113.82L462.6,112.87L462.6,112.68L462.94,111.14L463.48,110.95L464.02,110.19L464.32,109.99L465.46,107.7L465.47,107.51L466.38,103.68L466.47,103.49L467.79,101.19L468.21,101L469.1,99.27L469.37,99.08L470.16,96.98L470.39,96.79L470.81,95.25L471.27,95.06L472.27,92.96L472.28,92.77L472.95,91.81L472.99,91.62L474.04,88.75L474.16,88.55L474.89,85.87L475.74,85.68L476.7,84.73L476.75,84.53L477.5,82.24L477.63,82.05L479.41,76.88L479.79,76.69L480.71,73.05L480.74,72.86L481.73,71.52L482.7,71.32L483.47,70.37L483.99,70.18L484.89,68.45L486.07,68.26L486.8,67.11L487.05,66.92L488.22,64.24L488.35,64.05L491.57,59.84L491.6,59.65L492.18,57.73L493.06,57.54L496.81,55.63L496.82,55.44L499.15,50.84L500.34,50.65L501.27,49.69L501.71,49.5L503,47.97L503.86,47.78L506.8,45.1L507.41,44.91L510.97,42.23L511,42.04L512.39,40.12L512.88,39.93L514.27,37.25L515.07,37.06L515.53,36.1L515.89,35.91L516.6,35.14L516.95,34.95L518.58,33.8L519.97,33.61L521,30.17L521.24,29.97L524.5,27.87L526.78,27.68L527.62,25L528.36,24.81L528.66,24.04L529.24,23.85L530.26,20.98L530.7,20.79L533.4,19.64L535.23,19.45L536.88,17.91L536.92,17.72L537.69,17.15L538.69,16.96L540,16" style="vector-effect: none; fill: none; stroke: rgb(44, 160, 44); stroke-opacity: 1; stroke-width: 2px; opacity: 1;"/></g><g class="points"/><g class="text"/></g></g></g></g><g class="zerolinelayer-above"/><path class="xlines-above crisp" d="M0,0" style="fill: none;"/><path class="ylines-above crisp" d="M0,0" style="fill: none;"/><g class="overlines-above"/><g class="xaxislayer-above"><g class="xtick"><text text-anchor="middle" x="0" y="439" transform="translate(97.3,0)" style="font-family: 'Open Sans'; font-size: 18px; fill: rgb(255, 255, 255); fill-opacity: 1; white-space: pre;">2016</text></g><g class="xtick"><text text-anchor="middle" x="0" y="439" style="font-family: 'Open Sans'; font-size: 18px; fill: rgb(255, 255, 255); fill-opacity: 1; white-space: pre;" transform="translate(203.24,0)">2018</text></g><g class="xtick"><text text-anchor="middle" x="0" y="439" style="font-family: 'Open Sans'; font-size: 18px; fill: rgb(255, 255, 255); fill-opacity: 1; white-space: pre;" transform="translate(309.02,0)">2020</text></g><g class="xtick"><text text-anchor="middle" x="0" y="439" style="font-family: 'Open Sans'; font-size: 18px; fill: rgb(255, 255, 255); fill-opacity: 1; white-space: pre;" transform="translate(414.96,0)">2022</text></g><g class="xtick"><text text-anchor="middle" x="0" y="439" style="font-family: 'Open Sans'; font-size: 18px; fill: rgb(255, 255, 255); fill-opacity: 1; white-space: pre;" transform="translate(520.75,0)">2024</text></g></g><g class="yaxislayer-above"><g class="ytick"><text text-anchor="end" x="79" y="6.3" transform="translate(0,420)" style="font-family: 'Open Sans'; font-size: 18px; fill: rgb(255, 255, 255); fill-opacity: 1; white-space: pre;">0</text></g><g class="ytick"><text text-anchor="end" x="79" y="6.3" style="font-family: 'Open Sans'; font-size: 18px; fill: rgb(255, 255, 255); fill-opacity: 1; white-space: pre;" transform="translate(0,381.71)">200</text></g><g class="ytick"><text text-anchor="end" x="79" y="6.3" style="font-family: 'Open Sans'; font-size: 18px; fill: rgb(255, 255, 255); fill-opacity: 1; white-space: pre;" transform="translate(0,343.43)">400</text></g><g class="ytick"><text text-anchor="end" x="79" y="6.3" style="font-family: 'Open Sans'; font-size: 18px; fill: rgb(255, 255, 255); fill-opacity: 1; white-space: pre;" transform="translate(0,305.14)">600</text></g><g class="ytick"><text text-anchor="end" x="79" y="6.3" style="font-family: 'Open Sans'; font-size: 18px; fill: rgb(255, 255, 255); fill-opacity: 1; white-space: pre;" transform="translate(0,266.85)">800</text></g><g class="ytick"><text text-anchor="end" x="79" y="6.3" style="font-family: 'Open Sans'; font-size: 18px; fill: rgb(255, 255, 255); fill-opacity: 1; white-space: pre;" transform="translate(0,228.56)">1000</text></g><g class="ytick"><text text-anchor="end" x="79" y="6.3" style="font-family: 'Open Sans'; font-size: 18px; fill: rgb(255, 255, 255); fill-opacity: 1; white-space: pre;" transform="translate(0,190.28)">1200</text></g><g class="ytick"><text text-anchor="end" x="79" y="6.3" style="font-family: 'Open Sans'; font-size: 18px; fill: rgb(255, 255, 255); fill-opacity: 1; white-space: pre;" transform="translate(0,151.99)">1400</text></g><g class="ytick"><text text-anchor="end" x="79" y="6.3" style="font-family: 'Open Sans'; font-size: 18px; fill: rgb(255, 255, 255); fill-opacity: 1; white-space: pre;" transform="translate(0,113.7)">1600</text></g></g><g class="overaxes-above"/></g></g><g class="polarlayer"/><g class="smithlayer"/><g class="ternarylayer"/><g class="geolayer"/><g class="funnelarealayer"/><g class="pielayer"/><g class="iciclelayer"/><g class="treemaplayer"/><g class="sunburstlayer"/><g class="glimages"/><defs id="topdefs-7189c2"><g class="clips"/></defs><g class="layer-above"><g class="imagelayer"/><g class="shapelayer"/></g><g class="infolayer"><g class="g-gtitle"><text class="gtitle" x="35" y="50" text-anchor="start" dy="0em" style="opacity: 1; font-family: 'Open Sans'; font-size: 25px; fill: rgb(255, 255, 255); fill-opacity: 1; white-space: pre;">MultiQC/MultiQC - Pull Requests Created Over Time</text></g><g class="g-xtitle"><text class="xtitle" x="350" y="472.9" text-anchor="middle" style="opacity: 1; font-family: 'Open Sans'; font-size: 22px; fill: rgb(255, 255, 255); fill-opacity: 1; white-space: pre;">Date</text></g><g class="g-ytitle"><text class="ytitle" transform="rotate(-90,20.799999999999997,260)" x="20.799999999999997" y="260" text-anchor="middle" style="opacity: 1; font-family: 'Open Sans'; font-size: 22px; fill: rgb(255, 255, 255); fill-opacity: 1; white-space: pre;">Cumulative PRs Created</text></g></g></svg>