<svg class="main-svg" xmlns="http://www.w3.org/2000/svg" xmlns:xlink="http://www.w3.org/1999/xlink" width="700" height="500" style="" viewBox="0 0 700 500"><rect x="0" y="0" width="700" height="500" style="fill: rgb(0, 0, 0); fill-opacity: 0;"/><defs id="defs-c28c8b"><g class="clips"><clipPath id="clipc28c8bxyplot" class="plotclip"><rect width="540" height="320"/></clipPath><clipPath class="axesclip" id="clipc28c8bx"><rect x="80" y="0" width="540" height="500"/></clipPath><clipPath class="axesclip" id="clipc28c8by"><rect x="0" y="100" width="700" height="320"/></clipPath><clipPath class="axesclip" id="clipc28c8bxy"><rect x="80" y="100" width="540" height="320"/></clipPath></g><g class="gradients"/><g class="patterns"/></defs><g class="bglayer"><rect class="bg" x="80" y="100" width="540" height="320" style="fill: rgb(0, 0, 0); fill-opacity: 0; stroke-width: 0;"/></g><g class="layer-below"><g class="imagelayer"/><g class="shapelayer"/></g><g class="cartesianlayer"><g class="subplot xy"><g class="layer-subplot"><g class="shapelayer"/><g class="imagelayer"/></g><g class="minor-gridlayer"><g class="x"/><g class="y"/></g><g class="gridlayer"><g class="x"><path class="xgrid crisp" transform="translate(96.5,0)" d="M0,100v320" style="stroke: rgb(255, 255, 255); stroke-opacity: 1; stroke-width: 1px;"/><path class="xgrid crisp" transform="translate(197.56,0)" d="M0,100v320" style="stroke: rgb(255, 255, 255); stroke-opacity: 1; stroke-width: 1px;"/><path class="xgrid crisp" transform="translate(298.47,0)" d="M0,100v320" style="stroke: rgb(255, 255, 255); stroke-opacity: 1; stroke-width: 1px;"/><path class="xgrid crisp" transform="translate(399.52,0)" d="M0,100v320" style="stroke: rgb(255, 255, 255); stroke-opacity: 1; stroke-width: 1px;"/><path class="xgrid crisp" transform="translate(500.44,0)" d="M0,100v320" style="stroke: rgb(255, 255, 255); stroke-opacity: 1; stroke-width: 1px;"/><path class="xgrid crisp" transform="translate(601.49,0)" d="M0,100v320" style="stroke: rgb(255, 255, 255); stroke-opacity: 1; stroke-width: 1px;"/></g><g class="y"><path class="ygrid crisp" transform="translate(0,331.11)" d="M80,0h540" style="stroke: rgb(255, 255, 255); stroke-opacity: 1; stroke-width: 1px;"/><path class="ygrid crisp" transform="translate(0,242.22)" d="M80,0h540" style="stroke: rgb(255, 255, 255); stroke-opacity: 1; stroke-width: 1px;"/><path class="ygrid crisp" transform="translate(0,153.32999999999998)" d="M80,0h540" style="stroke: rgb(255, 255, 255); stroke-opacity: 1; stroke-width: 1px;"/></g></g><g class="zerolinelayer"><path class="yzl zl crisp" transform="translate(0,420)" d="M80,0h540" style="stroke: rgb(255, 255, 255); stroke-opacity: 1; stroke-width: 2px;"/></g><g class="layer-between"><g class="shapelayer"/><g class="imagelayer"/></g><path class="xlines-below"/><path class="ylines-below"/><g class="overlines-below"/><g class="xaxislayer-below"/><g class="yaxislayer-below"/><g class="overaxes-below"/><g class="overplot"><g class="xy" transform="translate(80,100)" clip-path="url(#clipc28c8bxyplot)"><g class="scatterlayer mlayer"><g class="trace scatter trace8bfe32" style="stroke-miterlimit: 2;"><g class="fills"><g><path class="js-fill" d="M540,320L0,320L0,319.82L3.73,318.4L4.57,318.22L5.38,317.69L5.52,317.51L6.77,316.98L7.33,316.8L14.1,315.73L21.29,315.56L21.48,315.38L23.05,315.2L23.05,315.02L25.96,314.84L33.89,312.53L34.29,312.36L42.48,310.58L42.57,310.4L42.61,309.87L43.53,309.69L44.09,309.33L45.32,309.16L57.3,307.91L58.38,307.73L65.5,305.6L65.55,305.42L66.34,304.53L67.17,304.36L68.57,303.64L72.97,303.47L76.98,302.58L78.15,302.4L82.94,300.8L82.94,300.62L93.5,299.02L93.84,298.84L94.83,297.96L94.84,297.78L95.51,295.47L95.91,295.29L96.33,294.93L96.9,294.76L98.54,293.51L98.68,293.33L99.26,292.44L100.2,292.27L101.32,291.02L101.43,290.84L102.16,290.13L103.09,289.96L106.24,288.18L106.24,288L106.73,287.47L107.97,287.29L108.09,287.11L110.03,286.93L110.04,286.76L111.12,286.58L118.58,285.33L118.86,285.16L119.17,284.62L119.98,284.44L126.75,282.84L126.76,282.67L127.61,281.96L128.57,281.78L132.13,280.18L132.46,280L133.12,279.11L133.24,278.93L139.89,277.33L140.42,277.16L149.16,274.31L150.7,274.13L176.56,270.22L176.57,270.04L177.2,268.98L178.71,268.8L179.03,268.09L180.64,267.91L181.13,267.38L183.28,267.2L207.81,264L207.9,263.82L208.2,263.11L209.58,262.93L213.53,261.87L214.67,261.69L227.14,259.2L227.18,259.02L227.93,258.49L228.2,258.31L230.72,257.07L230.97,256.89L231.43,255.82L232,255.64L232.1,255.47L233.36,255.29L234.69,254.4L235.15,254.22L236.98,253.16L237.2,252.98L239.04,251.73L239.06,251.56L240.81,250.13L241.63,249.96L245.81,248.36L250.26,248.18L250.6,247.82L252.45,247.64L256.05,246.22L256.16,246.04L257.44,244.98L259.45,244.8L259.51,244.44L260.51,244.27L265.26,242.67L266.9,242.49L267.09,242.31L268.79,242.13L268.79,241.96L269.73,241.78L269.91,241.6L271.25,241.42L276.6,240.18L277.77,240L278.27,239.47L280.75,239.29L291.96,236.62L292.34,236.44L292.35,236.27L293.47,236.09L294.31,234.67L294.33,234.49L296.65,232.71L296.69,232.53L300.06,230.93L300.53,230.76L300.95,229.16L303.09,228.98L311.89,227.38L311.89,227.2L312.06,226.67L312.71,226.49L314.55,224.89L316.94,224.71L317.42,224.36L318.64,224.18L326.94,222.58L326.97,222.4L327.78,222.04L329.01,221.87L333.98,220.09L334.06,219.91L341.26,218.84L341.27,218.67L346.12,216.89L346.66,216.71L356.8,212.8L358.6,212.62L359.01,212.44L361.37,212.27L362.99,211.38L363.33,211.2L366.73,209.96L366.87,209.78L367.6,209.24L367.77,209.07L368.45,207.64L369.37,207.47L372.05,205.87L374.46,205.69L375.06,205.16L378.77,204.98L382.34,203.56L384.14,203.38L384.28,203.02L385.69,202.84L385.81,201.78L389.68,201.6L390.51,201.07L392.56,200.89L396.74,199.82L398.21,199.64L401.45,196.62L401.53,196.44L404.37,191.11L405.02,190.93L407.41,184.18L407.81,184L409.86,180.44L409.88,180.27L410.72,177.96L410.83,177.78L413.37,175.47L413.37,175.29L414.03,174.4L414.04,174.22L415,172.27L415.94,172.09L416.67,170.84L416.67,170.67L416.9,170.31L417.74,170.13L418.72,166.04L419.86,165.87L420.15,165.33L420.8,165.16L423.68,162.67L423.7,162.49L423.75,162.13L424.58,161.96L426.31,158.58L426.31,158.4L427.2,154.31L427.43,154.13L429.82,145.07L430.09,144.89L430.76,144.36L431.18,144.18L431.88,142.04L432.12,141.87L432.56,141.33L433.64,141.16L435.18,139.02L435.28,138.84L436.16,137.96L436.25,137.78L436.95,136.18L437.07,136L437.65,134.58L437.95,134.4L438.82,132.09L438.89,131.91L439.88,128.71L440.32,128.53L441.28,127.64L441.28,127.47L442.13,125.69L442.24,125.51L444.02,122.67L444.03,122.49L444.73,120L444.82,119.82L445.02,118.76L445.71,118.58L446.68,116.44L446.81,116.27L447.49,115.02L447.74,114.84L448.5,112.89L448.72,112.71L449.12,111.29L449.56,111.11L451.09,108.27L451.16,108.09L453.01,102.58L453.82,102.4L454.73,101.51L454.79,101.33L455.49,99.2L455.62,99.02L457.32,94.22L457.68,94.04L458.59,90.49L458.65,90.31L459.51,89.42L459.53,89.24L461.19,88.18L461.69,88L462.54,86.4L463.68,86.22L464.6,84.98L464.63,84.8L465.06,83.91L465.06,83.73L465.72,82.49L465.85,82.31L468.95,78.22L468.95,78.04L469.51,76.44L470.34,76.27L473.92,74.49L473.93,74.31L476.15,70.04L477.29,69.87L478.17,68.98L478.59,68.8L479.82,67.38L480.65,67.2L483.45,64.71L484.03,64.53L487.43,62.04L487.45,61.87L488.78,60.09L489.25,59.91L490.57,57.42L491.33,57.24L492.13,56L492.67,55.82L493.94,54.58L494.53,54.4L494.68,54.22L496.01,54.04L496.99,50.84L497.22,50.67L500.34,48.71L502.51,48.53L503.19,46.4L503.3,46.22L504.01,45.69L504.29,45.51L505.03,44.09L505.13,43.91L506.95,41.24L508.82,41.07L511.93,40L512.09,39.82L512.91,38.76L513.87,38.58L516.87,36.8L516.88,36.62L517.56,35.2L517.82,35.02L518.66,32.18L518.86,32L519.94,30.76L520.09,30.58L520.21,30.04L522.47,29.87L523.7,28.09L524.63,27.91L528.98,26.49L529.29,26.31L529.62,25.78L530.16,25.6L530.61,24.89L531.24,24.71L533.5,23.47L534.73,23.29L535.4,22.76L536.12,22.58L539.05,20.98L539.52,20.8L540,16" style="fill: rgb(44, 160, 44); fill-opacity: 0.5; stroke-width: 0;"/></g></g><g class="errorbars"/><g class="lines"><path class="js-line" d="M0,319.82L3.73,318.4L4.57,318.22L5.38,317.69L5.52,317.51L6.77,316.98L7.33,316.8L14.1,315.73L21.29,315.56L21.48,315.38L23.05,315.2L23.05,315.02L25.96,314.84L33.89,312.53L34.29,312.36L42.48,310.58L42.57,310.4L42.61,309.87L43.53,309.69L44.09,309.33L45.32,309.16L57.3,307.91L58.38,307.73L65.5,305.6L65.55,305.42L66.34,304.53L67.17,304.36L68.57,303.64L72.97,303.47L76.98,302.58L78.15,302.4L82.94,300.8L82.94,300.62L93.5,299.02L93.84,298.84L94.83,297.96L94.84,297.78L95.51,295.47L95.91,295.29L96.33,294.93L96.9,294.76L98.54,293.51L98.68,293.33L99.26,292.44L100.2,292.27L101.32,291.02L101.43,290.84L102.16,290.13L103.09,289.96L106.24,288.18L106.24,288L106.73,287.47L107.97,287.29L108.09,287.11L110.03,286.93L110.04,286.76L111.12,286.58L118.58,285.33L118.86,285.16L119.17,284.62L119.98,284.44L126.75,282.84L126.76,282.67L127.61,281.96L128.57,281.78L132.13,280.18L132.46,280L133.12,279.11L133.24,278.93L139.89,277.33L140.42,277.16L149.16,274.31L150.7,274.13L176.56,270.22L176.57,270.04L177.2,268.98L178.71,268.8L179.03,268.09L180.64,267.91L181.13,267.38L183.28,267.2L207.81,264L207.9,263.82L208.2,263.11L209.58,262.93L213.53,261.87L214.67,261.69L227.14,259.2L227.18,259.02L227.93,258.49L228.2,258.31L230.72,257.07L230.97,256.89L231.43,255.82L232,255.64L232.1,255.47L233.36,255.29L234.69,254.4L235.15,254.22L236.98,253.16L237.2,252.98L239.04,251.73L239.06,251.56L240.81,250.13L241.63,249.96L245.81,248.36L250.26,248.18L250.6,247.82L252.45,247.64L256.05,246.22L256.16,246.04L257.44,244.98L259.45,244.8L259.51,244.44L260.51,244.27L265.26,242.67L266.9,242.49L267.09,242.31L268.79,242.13L268.79,241.96L269.73,241.78L269.91,241.6L271.25,241.42L276.6,240.18L277.77,240L278.27,239.47L280.75,239.29L291.96,236.62L292.34,236.44L292.35,236.27L293.47,236.09L294.31,234.67L294.33,234.49L296.65,232.71L296.69,232.53L300.06,230.93L300.53,230.76L300.95,229.16L303.09,228.98L311.89,227.38L311.89,227.2L312.06,226.67L312.71,226.49L314.55,224.89L316.94,224.71L317.42,224.36L318.64,224.18L326.94,222.58L326.97,222.4L327.78,222.04L329.01,221.87L333.98,220.09L334.06,219.91L341.26,218.84L341.27,218.67L346.12,216.89L346.66,216.71L356.8,212.8L358.6,212.62L359.01,212.44L361.37,212.27L362.99,211.38L363.33,211.2L366.73,209.96L366.87,209.78L367.6,209.24L367.77,209.07L368.45,207.64L369.37,207.47L372.05,205.87L374.46,205.69L375.06,205.16L378.77,204.98L382.34,203.56L384.14,203.38L384.28,203.02L385.69,202.84L385.81,201.78L389.68,201.6L390.51,201.07L392.56,200.89L396.74,199.82L398.21,199.64L401.45,196.62L401.53,196.44L404.37,191.11L405.02,190.93L407.41,184.18L407.81,184L409.86,180.44L409.88,180.27L410.72,177.96L410.83,177.78L413.37,175.47L413.37,175.29L414.03,174.4L414.04,174.22L415,172.27L415.94,172.09L416.67,170.84L416.67,170.67L416.9,170.31L417.74,170.13L418.72,166.04L419.86,165.87L420.15,165.33L420.8,165.16L423.68,162.67L423.7,162.49L423.75,162.13L424.58,161.96L426.31,158.58L426.31,158.4L427.2,154.31L427.43,154.13L429.82,145.07L430.09,144.89L430.76,144.36L431.18,144.18L431.88,142.04L432.12,141.87L432.56,141.33L433.64,141.16L435.18,139.02L435.28,138.84L436.16,137.96L436.25,137.78L436.95,136.18L437.07,136L437.65,134.58L437.95,134.4L438.82,132.09L438.89,131.91L439.88,128.71L440.32,128.53L441.28,127.64L441.28,127.47L442.13,125.69L442.24,125.51L444.02,122.67L444.03,122.49L444.73,120L444.82,119.82L445.02,118.76L445.71,118.58L446.68,116.44L446.81,116.27L447.49,115.02L447.74,114.84L448.5,112.89L448.72,112.71L449.12,111.29L449.56,111.11L451.09,108.27L451.16,108.09L453.01,102.58L453.82,102.4L454.73,101.51L454.79,101.33L455.49,99.2L455.62,99.02L457.32,94.22L457.68,94.04L458.59,90.49L458.65,90.31L459.51,89.42L459.53,89.24L461.19,88.18L461.69,88L462.54,86.4L463.68,86.22L464.6,84.98L464.63,84.8L465.06,83.91L465.06,83.73L465.72,82.49L465.85,82.31L468.95,78.22L468.95,78.04L469.51,76.44L470.34,76.27L473.92,74.49L473.93,74.31L476.15,70.04L477.29,69.87L478.17,68.98L478.59,68.8L479.82,67.38L480.65,67.2L483.45,64.71L484.03,64.53L487.43,62.04L487.45,61.87L488.78,60.09L489.25,59.91L490.57,57.42L491.33,57.24L492.13,56L492.67,55.82L493.94,54.58L494.53,54.4L494.68,54.22L496.01,54.04L496.99,50.84L497.22,50.67L500.34,48.71L502.51,48.53L503.19,46.4L503.3,46.22L504.01,45.69L504.29,45.51L505.03,44.09L505.13,43.91L506.95,41.24L508.82,41.07L511.93,40L512.09,39.82L512.91,38.76L513.87,38.58L516.87,36.8L516.88,36.62L517.56,35.2L517.82,35.02L518.66,32.18L518.86,32L519.94,30.76L520.09,30.58L520.21,30.04L522.47,29.87L523.7,28.09L524.63,27.91L528.98,26.49L529.29,26.31L529.62,25.78L530.16,25.6L530.61,24.89L531.24,24.71L533.5,23.47L534.73,23.29L535.4,22.76L536.12,22.58L539.05,20.98L539.52,20.8L540,16" style="vector-effect: none; fill: none; stroke: rgb(44, 160, 44); stroke-opacity: 1; stroke-width: 2px; opacity: 1;"/></g><g class="points"/><g class="text"/></g></g></g></g><g class="zerolinelayer-above"/><path class="xlines-above crisp" d="M0,0" style="fill: none;"/><path class="ylines-above crisp" d="M0,0" style="fill: none;"/><g class="overlines-above"/><g class="xaxislayer-above"><g class="xtick"><text text-anchor="middle" x="0" y="439" transform="translate(96.5,0)" style="font-family: 'Open Sans'; font-size: 18px; fill: rgb(0, 0, 0); fill-opacity: 1; white-space: pre;">2016</text></g><g class="xtick"><text text-anchor="middle" x="0" y="439" style="font-family: 'Open Sans'; font-size: 18px; fill: rgb(0, 0, 0); fill-opacity: 1; white-space: pre;" transform="translate(197.56,0)">2018</text></g><g class="xtick"><text text-anchor="middle" x="0" y="439" style="font-family: 'Open Sans'; font-size: 18px; fill: rgb(0, 0, 0); fill-opacity: 1; white-space: pre;" transform="translate(298.47,0)">2020</text></g><g class="xtick"><text text-anchor="middle" x="0" y="439" style="font-family: 'Open Sans'; font-size: 18px; fill: rgb(0, 0, 0); fill-opacity: 1; white-space: pre;" transform="translate(399.52,0)">2022</text></g><g class="xtick"><text text-anchor="middle" x="0" y="439" style="font-family: 'Open Sans'; font-size: 18px; fill: rgb(0, 0, 0); fill-opacity: 1; white-space: pre;" transform="translate(500.44,0)">2024</text></g><g class="xtick"><text text-anchor="middle" x="0" y="439" style="font-family: 'Open Sans'; font-size: 18px; fill: rgb(0, 0, 0); fill-opacity: 1; white-space: pre;" transform="translate(601.49,0)">2026</text></g></g><g class="yaxislayer-above"><g class="ytick"><text text-anchor="end" x="79" y="6.3" transform="translate(0,420)" style="font-family: 'Open Sans'; font-size: 18px; fill: rgb(0, 0, 0); fill-opacity: 1; white-space: pre;">0</text></g><g class="ytick"><text text-anchor="end" x="79" y="6.3" style="font-family: 'Open Sans'; font-size: 18px; fill: rgb(0, 0, 0); fill-opacity: 1; white-space: pre;" transform="translate(0,331.11)">500</text></g><g class="ytick"><text text-anchor="end" x="79" y="6.3" style="font-family: 'Open Sans'; font-size: 18px; fill: rgb(0, 0, 0); fill-opacity: 1; white-space: pre;" transform="translate(0,242.22)">1000</text></g><g class="ytick"><text text-anchor="end" x="79" y="6.3" style="font-family: 'Open Sans'; font-size: 18px; fill: rgb(0, 0, 0); fill-opacity: 1; white-space: pre;" transform="translate(0,153.32999999999998)">1500</text></g></g><g class="overaxes-above"/></g></g><g class="polarlayer"/><g class="smithlayer"/><g class="ternarylayer"/><g class="geolayer"/><g class="funnelarealayer"/><g class="pielayer"/><g class="iciclelayer"/><g class="treemaplayer"/><g class="sunburstlayer"/><g class="glimages"/><defs id="topdefs-c28c8b"><g class="clips"/></defs><g class="layer-above"><g class="imagelayer"/><g class="shapelayer"/></g><g class="infolayer"><g class="g-gtitle"><text class="gtitle" x="35" y="50" text-anchor="start" dy="0em" style="opacity: 1; font-family: 'Open Sans'; font-size: 25px; fill: rgb(0, 0, 0); fill-opacity: 1; white-space: pre;">MultiQC/MultiQC - Pull Requests Created Over Time</text></g><g class="g-xtitle"><text class="xtitle" x="350" y="472.9" text-anchor="middle" style="opacity: 1; font-family: 'Open Sans'; font-size: 22px; fill: rgb(0, 0, 0); fill-opacity: 1; white-space: pre;">Date</text></g><g class="g-ytitle"><text class="ytitle" transform="rotate(-90,20.799999999999997,260)" x="20.799999999999997" y="260" text-anchor="middle" style="opacity: 1; font-family: 'Open Sans'; font-size: 22px; fill: rgb(0, 0, 0); fill-opacity: 1; white-space: pre;">Cumulative PRs Created</text></g></g></svg>