<svg class="main-svg" xmlns="http://www.w3.org/2000/svg" xmlns:xlink="http://www.w3.org/1999/xlink" width="700" height="500" style="" viewBox="0 0 700 500"><rect x="0" y="0" width="700" height="500" style="fill: rgb(0, 0, 0); fill-opacity: 0;"/><defs id="defs-2ac3af"><g class="clips"><clipPath id="clip2ac3afxyplot" class="plotclip"><rect width="540" height="320"/></clipPath><clipPath class="axesclip" id="clip2ac3afx"><rect x="80" y="0" width="540" height="500"/></clipPath><clipPath class="axesclip" id="clip2ac3afy"><rect x="0" y="100" width="700" height="320"/></clipPath><clipPath class="axesclip" id="clip2ac3afxy"><rect x="80" y="100" width="540" height="320"/></clipPath></g><g class="gradients"/><g class="patterns"/></defs><g class="bglayer"><rect class="bg" x="80" y="100" width="540" height="320" style="fill: rgb(0, 0, 0); fill-opacity: 0; stroke-width: 0;"/></g><g class="layer-below"><g class="imagelayer"/><g class="shapelayer"/></g><g class="cartesianlayer"><g class="subplot xy"><g class="layer-subplot"><g class="shapelayer"/><g class="imagelayer"/></g><g class="minor-gridlayer"><g class="x"/><g class="y"/></g><g class="gridlayer"><g class="x"><path class="xgrid crisp" transform="translate(97.05,0)" d="M0,100v320" style="stroke: rgb(255, 255, 255); stroke-opacity: 1; stroke-width: 1px;"/><path class="xgrid crisp" transform="translate(201.47,0)" d="M0,100v320" style="stroke: rgb(255, 255, 255); stroke-opacity: 1; stroke-width: 1px;"/><path class="xgrid crisp" transform="translate(305.75,0)" d="M0,100v320" style="stroke: rgb(255, 255, 255); stroke-opacity: 1; stroke-width: 1px;"/><path class="xgrid crisp" transform="translate(410.16,0)" d="M0,100v320" style="stroke: rgb(255, 255, 255); stroke-opacity: 1; stroke-width: 1px;"/><path class="xgrid crisp" transform="translate(514.44,0)" d="M0,100v320" style="stroke: rgb(255, 255, 255); stroke-opacity: 1; stroke-width: 1px;"/><path class="xgrid crisp" transform="translate(618.86,0)" d="M0,100v320" style="stroke: rgb(255, 255, 255); stroke-opacity: 1; stroke-width: 1px;"/></g><g class="y"><path class="ygrid crisp" transform="translate(0,382)" d="M80,0h540" style="stroke: rgb(255, 255, 255); stroke-opacity: 1; stroke-width: 1px;"/><path class="ygrid crisp" transform="translate(0,344)" d="M80,0h540" style="stroke: rgb(255, 255, 255); stroke-opacity: 1; stroke-width: 1px;"/><path class="ygrid crisp" transform="translate(0,306)" d="M80,0h540" style="stroke: rgb(255, 255, 255); stroke-opacity: 1; stroke-width: 1px;"/><path class="ygrid crisp" transform="translate(0,268)" d="M80,0h540" style="stroke: rgb(255, 255, 255); stroke-opacity: 1; stroke-width: 1px;"/><path class="ygrid crisp" transform="translate(0,230)" d="M80,0h540" style="stroke: rgb(255, 255, 255); stroke-opacity: 1; stroke-width: 1px;"/><path class="ygrid crisp" transform="translate(0,192)" d="M80,0h540" style="stroke: rgb(255, 255, 255); stroke-opacity: 1; stroke-width: 1px;"/><path class="ygrid crisp" transform="translate(0,154)" d="M80,0h540" style="stroke: rgb(255, 255, 255); stroke-opacity: 1; stroke-width: 1px;"/><path class="ygrid crisp" transform="translate(0,116)" d="M80,0h540" style="stroke: rgb(255, 255, 255); stroke-opacity: 1; stroke-width: 1px;"/></g></g><g class="zerolinelayer"><path class="yzl zl crisp" transform="translate(0,420)" d="M80,0h540" style="stroke: rgb(255, 255, 255); stroke-opacity: 1; stroke-width: 2px;"/></g><g class="layer-between"><g class="shapelayer"/><g class="imagelayer"/></g><path class="xlines-below"/><path class="ylines-below"/><g class="overlines-below"/><g class="xaxislayer-below"/><g class="yaxislayer-below"/><g class="overaxes-below"/><g class="overplot"><g class="xy" transform="translate(80,100)" clip-path="url(#clip2ac3afxyplot)"><g class="scatterlayer mlayer"><g class="trace scatter traced27b36" style="stroke-miterlimit: 2;"><g class="fills"><g><path class="js-fill" d="M540,320L0,320L0,316.2L0.1,320L1.04,316.2L1.73,320L1.83,316.2L1.83,320L3.1,316.2L3.85,320L4.72,316.2L4.72,320L4.82,320L5.56,316.2L5.56,320L6.15,320L6.99,316.2L6.99,320L7.58,320L9.12,316.2L9.12,320L9.77,316.2L9.99,320L11.71,316.2L11.71,320L14.57,316.2L14.57,320L22,316.2L22,320L22.2,316.2L22.2,320L23.82,316.2L23.82,312.4L23.96,316.2L25.11,320L26.83,316.2L26.83,320L28.15,312.4L28.15,316.2L28.15,320L31,316.2L31,320L31.14,320L32.39,316.2L32.39,320L33,320L33.89,316.2L33.9,320L34.67,316.2L35.18,320L35.43,316.2L35.52,320L36.73,316.2L38.14,312.4L38.57,316.2L38.69,312.4L38.69,316.2L40,320L40.73,316.2L40.73,320L42.44,316.2L42.44,320L43.54,316.2L43.54,320L44.03,304.8L44.14,308.6L44.67,312.4L45.11,316.2L45.56,312.4L45.57,316.2L46.83,312.4L50.7,308.6L50.7,312.4L51,316.2L51.8,312.4L52.71,320L54.13,316.2L54.53,320L57.7,316.2L57.7,320L57.7,316.2L59.21,312.4L59.53,316.2L60.33,312.4L61.1,308.6L61.13,312.4L61.14,308.6L61.71,320L63.57,316.2L63.86,320L64.55,316.2L64.7,312.4L65.68,316.2L65.86,308.6L65.98,312.4L66.82,316.2L67.13,312.4L67.13,316.2L67.69,312.4L67.76,304.8L67.87,320L67.96,320L68.55,316.2L69.4,312.4L69.4,316.2L70.14,308.6L70.15,312.4L70.85,308.6L75.4,304.8L75.87,301L77.57,320L78.57,316.2L78.57,320L79.55,316.2L80.75,312.4L80.81,316.2L81.88,308.6L82.3,304.8L82.81,301L82.81,304.8L82.83,308.6L83.98,301L83.99,304.8L84.83,301L84.83,304.8L85.12,308.6L85.7,304.8L85.7,308.6L85.7,304.8L87.52,308.6L87.71,304.8L87.71,308.6L88.6,304.8L88.84,308.6L89.57,304.8L90.03,301L90.81,304.8L91.53,301L91.82,304.8L94.1,301L94.1,304.8L94.69,301L94.72,304.8L96.1,308.6L96.61,304.8L96.82,308.6L96.96,304.8L96.97,308.6L97.98,304.8L98,282L98.7,301L98.98,304.8L98.98,308.6L99.14,301L99.54,301L100.13,297.2L100.84,301L101.03,297.2L101.55,289.6L101.72,297.2L101.81,301L102.44,285.8L102.56,293.4L103.54,297.2L103.97,285.8L103.97,285.8L104.51,289.6L105.56,270.6L106.53,266.8L107.55,270.6L107.84,266.8L108.56,274.4L108.56,274.4L108.69,270.6L108.99,285.8L109.12,282L109.78,278.2L110.28,263L110.28,266.8L110.67,270.6L110.71,274.4L111.56,270.6L111.69,266.8L111.7,270.6L113,274.4L113.12,289.6L113.7,285.8L113.71,282L113.72,289.6L114.82,285.8L114.82,289.6L116.99,285.8L116.99,282L116.99,289.6L118.99,285.8L119,289.6L119,285.8L120.07,289.6L120.12,285.8L121.98,282L122.82,289.6L122.83,285.8L122.98,289.6L123.14,285.8L123.15,289.6L123.98,285.8L124.31,289.6L125.01,285.8L125.04,289.6L126.68,285.8L126.71,289.6L128.56,285.8L128.67,289.6L129.06,285.8L129.55,282L129.67,285.8L130.56,282L130.57,285.8L130.98,270.6L131.12,270.6L131.51,266.8L131.86,285.8L131.86,285.8L132.85,282L132.96,289.6L133.14,289.6L133.84,285.8L134.83,282L134.95,278.2L134.95,282L135.7,278.2L135.8,274.4L136.53,266.8L136.56,270.6L136.87,266.8L137.09,270.6L137.54,266.8L137.55,263L137.55,251.6L137.7,274.4L138.97,270.6L139.09,266.8L139.1,270.6L140.54,266.8L141.32,282L142.53,278.2L142.94,282L144.55,278.2L145.64,274.4L145.64,278.2L146.97,266.8L146.98,270.6L147.23,274.4L147.26,278.2L147.66,270.6L147.66,274.4L147.99,270.6L147.99,274.4L148.99,278.2L149.16,285.8L149.87,282L149.96,278.2L151.57,274.4L152.11,263L152.12,266.8L152.12,270.6L152.18,282L153.98,278.2L154.08,282L154.12,278.2L155.72,274.4L155.73,278.2L157.1,274.4L157.1,278.2L157.53,274.4L157.98,270.6L158.67,266.8L158.7,270.6L161.57,274.4L164.62,266.8L165.36,263L166.14,266.8L166.85,263L166.86,266.8L169.54,263L170,266.8L170.61,263L171.84,259.2L172.08,263L172.08,259.2L172.12,289.6L172.12,285.8L174.52,282L174.54,285.8L176.88,289.6L177.99,285.8L177.99,289.6L178.62,285.8L178.65,289.6L180.87,285.8L181.03,282L182.42,285.8L182.43,289.6L183.02,259.2L183.13,274.4L184.66,270.6L184.99,259.2L186.66,255.4L187.16,251.6L187.18,255.4L189.38,251.6L189.87,255.4L191.2,251.6L191.5,255.4L191.8,251.6L194,247.8L196.99,244L197.1,247.8L198,244L198.7,247.8L198.74,240.2L198.96,244L199.85,247.8L200.11,263L200.94,266.8L201.01,270.6L201.11,263L204.56,259.2L205.12,263L205.81,259.2L205.96,255.4L208.11,251.6L211.09,247.8L212.67,244L212.7,240.2L214.02,236.4L214.81,240.2L214.82,236.4L215.12,263L215.14,259.2L216.12,263L216.54,266.8L216.56,263L217.71,266.8L218.17,274.4L218.54,270.6L218.56,274.4L219.09,263L219.13,270.6L219.7,274.4L219.73,278.2L220.64,274.4L221.82,270.6L221.83,274.4L223.83,266.8L224.11,263L226.48,259.2L227.61,263L229.2,259.2L229.68,255.4L232,247.8L232.01,251.6L232.87,240.2L234.7,236.4L234.99,225L235.52,221.2L236.59,213.6L236.64,217.4L238.89,190.8L238.97,194.6L238.98,198.4L239.13,187L239.72,190.8L239.83,187L241.13,183.2L241.28,179.4L241.55,190.8L241.55,194.6L241.72,217.4L242,209.8L242.5,206L243.55,270.6L243.79,266.8L243.97,263L243.99,259.2L244.58,270.6L244.68,266.8L244.87,263L245.8,274.4L245.81,270.6L245.81,266.8L246.55,282L246.8,278.2L246.8,282L247,266.8L247.55,278.2L247.8,274.4L247.95,278.2L248.1,274.4L248.8,270.6L248.83,266.8L249.65,270.6L250.15,263L250.78,259.2L251.65,251.6L251.65,255.4L252.52,247.8L252.52,251.6L253.99,240.2L254.94,244L258.6,240.2L258.69,236.4L258.95,232.6L259.26,236.4L260.86,232.6L261.8,225L262.15,221.2L262.54,217.4L264.14,213.6L264.58,202.2L264.79,213.6L264.79,217.4L266.01,198.4L268.09,194.6L268.15,187L269.19,183.2L270.83,175.6L270.87,179.4L270.89,206L271.52,190.8L271.8,187L271.8,190.8L271.94,187L274.09,183.2L275.79,179.4L275.98,175.6L277.74,171.8L277.74,175.6L277.74,171.8L277.75,175.6L278.71,171.8L278.9,168L279.58,171.8L280.53,187L280.74,190.8L282.29,187L282.82,190.8L284.2,183.2L284.9,179.4L284.9,183.2L285.7,179.4L285.81,171.8L286.97,175.6L287.53,221.2L290.1,217.4L290.59,221.2L290.98,217.4L291,221.2L293.83,217.4L294.53,225L294.57,221.2L294.68,217.4L294.68,221.2L294.93,221.2L295.62,225L295.8,217.4L295.8,221.2L298.17,217.4L298.18,213.6L298.97,209.8L301,206L301.53,202.2L301.68,190.8L301.73,209.8L302.09,202.2L302.54,206L303.02,213.6L303.24,209.8L303.5,206L304.3,255.4L304.53,251.6L305.52,240.2L306.14,236.4L307.15,217.4L308.11,213.6L309.01,209.8L309.12,206L309.96,194.6L310.01,198.4L310.98,156.6L313.18,152.8L315.1,149L315.1,145.2L318.5,149L318.57,145.2L319.84,141.4L320.26,137.6L322.28,122.4L322.28,118.6L322.42,111L322.81,190.8L323.13,187L323.57,183.2L323.59,194.6L323.84,190.8L323.99,187L325.02,168L325.14,171.8L327.5,168L327.99,164.2L328.29,168L329.25,164.2L329.64,168L330.8,164.2L332.26,168L332.29,179.4L332.94,175.6L333.66,179.4L334.09,202.2L334.52,206L334.65,202.2L334.96,213.6L335.16,209.8L335.55,213.6L336.11,209.8L336.94,198.4L337.83,194.6L338.05,187L338.7,183.2L339.56,190.8L339.97,187L339.97,190.8L340.68,187L340.96,190.8L340.96,198.4L341.52,194.6L342.86,190.8L343.07,183.2L343.51,194.6L343.53,194.6L343.53,198.4L344.18,190.8L344.4,187L345.19,179.4L345.2,183.2L348.29,179.4L348.68,183.2L350.06,179.4L350.51,175.6L350.52,179.4L351.27,183.2L351.56,179.4L351.64,187L352.39,183.2L353.51,171.8L353.51,175.6L353.95,168L354.52,164.2L354.95,171.8L354.97,164.2L355.5,168L355.5,164.2L356.1,168L356.82,164.2L356.96,168L357.64,164.2L358.2,160.4L358.42,164.2L358.81,152.8L358.87,160.4L359.65,156.6L359.7,152.8L360.52,149L361.64,145.2L361.73,141.4L362.44,126.2L362.81,122.4L362.93,126.2L364.65,122.4L364.93,118.6L366,114.8L366.16,149L366.27,149L367.75,145.2L368.68,141.4L368.69,145.2L370.54,141.4L370.54,145.2L370.96,141.4L373.4,137.6L373.4,141.4L374.08,141.4L374.68,137.6L375.43,122.4L375.5,126.2L376.69,122.4L376.79,114.8L377.23,137.6L377.6,133.8L377.82,137.6L378.79,133.8L379.62,118.6L379.84,114.8L380.42,133.8L380.53,122.4L380.72,118.6L381.44,141.4L381.67,137.6L382.51,175.6L382.59,171.8L383.3,194.6L383.68,190.8L384.48,194.6L386.93,190.8L387.55,179.4L387.57,183.2L387.81,187L391.38,183.2L391.4,187L392.12,179.4L393.02,183.2L394.15,179.4L395.07,175.6L395.08,179.4L396.93,175.6L397.07,168L398.1,171.8L398.65,160.4L398.65,156.6L398.66,145.2L402.43,149L403.51,133.8L405.64,130L406.14,122.4L406.14,126.2L406.14,130L408.23,122.4L408.69,118.6L411.47,111L411.66,107.2L412.23,103.4L412.24,107.2L412.41,111L413.01,130L413.14,126.2L413.75,122.4L413.79,126.2L414.11,107.2L414.52,103.4L414.71,92L414.9,103.4L414.91,107.2L414.91,114.8L415.55,99.6L415.68,95.8L415.97,92L416.07,103.4L416.09,107.2L416.14,103.4L416.8,118.6L416.85,114.8L416.93,111L416.94,126.2L417.57,122.4L417.83,118.6L418.56,114.8L418.58,111L419,133.8L419.5,126.2L419.53,122.4L419.92,99.6L420.11,141.4L420.42,137.6L420.86,114.8L421.01,130L421.01,133.8L421.06,141.4L421.63,130L421.67,133.8L422.28,130L422.42,141.4L422.99,122.4L423.07,118.6L423.12,122.4L423.5,95.8L423.5,95.8L423.53,92L423.54,84.4L423.67,149L423.99,133.8L424.4,130L424.83,122.4L424.92,130L425.06,133.8L425.72,126.2L425.98,130L426.5,141.4L426.69,133.8L426.79,137.6L427.14,130L427.52,149L427.64,145.2L427.95,133.8L428.1,152.8L428.12,149L428.53,145.2L429.2,164.2L429.79,160.4L430.14,164.2L430.52,152.8L430.53,149L430.78,133.8L431.5,137.6L431.64,156.6L431.95,130L432.12,137.6L432.29,141.4L432.51,137.6L432.68,149L433.84,145.2L433.98,152.8L434.14,145.2L434.81,141.4L434.97,145.2L435.15,137.6L435.49,133.8L435.53,145.2L435.93,137.6L436.63,133.8L437.15,130L437.15,133.8L437.15,137.6L437.68,130L437.68,126.2L437.69,122.4L437.73,137.6L437.86,126.2L438.72,122.4L438.95,111L439.08,126.2L439.16,130L439.87,160.4L440.13,152.8L440.14,149L440.5,145.2L440.5,152.8L440.5,156.6L440.5,152.8L440.51,164.2L441.1,160.4L441.33,156.6L441.58,160.4L441.83,145.2L441.95,149L441.97,145.2L442.42,171.8L442.71,156.6L442.73,152.8L442.79,145.2L442.81,171.8L443.42,152.8L443.42,156.6L444.13,137.6L444.4,141.4L444.94,175.6L445.11,171.8L445.53,175.6L445.97,156.6L446.26,160.4L446.51,156.6L446.51,160.4L446.96,152.8L446.96,152.8L448.08,149L448.68,141.4L448.68,145.2L449.49,141.4L449.54,137.6L449.57,168L449.97,164.2L450.52,168L450.64,171.8L450.78,156.6L450.78,156.6L450.8,152.8L451.22,141.4L451.54,160.4L451.62,156.6L451.87,149L452.22,175.6L452.22,171.8L452.52,175.6L452.84,164.2L453.11,171.8L453.43,175.6L453.79,179.4L454.1,164.2L454.12,168L454.53,164.2L455.62,152.8L455.96,156.6L455.98,152.8L456.12,168L456.55,168L456.84,164.2L456.86,168L457.13,160.4L457.38,168L457.68,164.2L457.99,179.4L458.25,171.8L458.56,175.6L459.23,168L459.23,171.8L459.48,168L459.65,156.6L459.66,171.8L459.84,164.2L460.55,168L460.93,164.2L461.1,179.4L461.5,175.6L461.8,171.8L461.82,179.4L462.1,175.6L462.39,171.8L463.06,168L463.06,171.8L463.23,175.6L463.24,171.8L463.39,190.8L463.93,187L463.99,183.2L464.07,179.4L464.66,190.8L464.68,187L464.79,190.8L465.5,171.8L465.51,187L465.51,190.8L465.51,187L465.65,194.6L466.24,190.8L466.49,187L466.49,194.6L467.23,194.6L467.25,190.8L467.79,202.2L467.79,198.4L468.09,194.6L468.93,190.8L469.06,194.6L469.85,187L469.86,183.2L469.96,206L470.51,194.6L470.66,190.8L471.39,206L471.39,202.2L471.48,206L471.8,194.6L471.81,198.4L472.36,194.6L472.36,198.4L473.1,183.2L473.11,187L473.38,190.8L473.7,198.4L473.92,187L474.54,183.2L474.82,190.8L474.84,187L475.79,183.2L475.85,187L476.4,179.4L476.41,183.2L476.55,179.4L477.53,168L477.53,171.8L477.65,175.6L477.95,168L478.86,171.8L478.94,175.6L479.49,168L479.49,171.8L479.54,168L480.07,187L480.1,187L480.5,183.2L480.53,190.8L481.23,175.6L481.36,171.8L481.53,168L481.53,183.2L481.83,175.6L481.84,179.4L482.5,175.6L482.5,179.4L482.87,175.6L482.87,179.4L483.09,168L483.11,179.4L483.79,175.6L483.93,194.6L484.53,187L484.56,190.8L484.58,183.2L485.22,206L486,202.2L486.4,206L486.43,202.2L487.09,198.4L487.64,206L488.42,202.2L488.86,194.6L489.27,198.4L489.35,202.2L489.71,194.6L489.71,198.4L489.78,202.2L489.8,206L489.82,198.4L490.51,202.2L490.53,198.4L490.56,202.2L490.93,190.8L490.99,194.6L491.68,198.4L491.82,190.8L492.31,198.4L493.18,194.6L494.05,190.8L494.05,194.6L494.05,190.8L494.09,198.4L494.65,198.4L495.54,194.6L495.65,187L495.66,198.4L495.8,190.8L496.65,194.6L497.24,179.4L497.57,175.6L498.09,179.4L498.26,175.6L498.26,171.8L498.91,156.6L498.91,179.4L499.01,175.6L499.54,168L499.55,175.6L499.55,179.4L500.15,175.6L500.39,179.4L500.5,175.6L500.82,187L501.47,190.8L501.96,183.2L502.08,190.8L502.08,194.6L502.08,190.8L502.47,202.2L502.77,202.2L502.93,198.4L503.54,194.6L503.63,198.4L503.65,202.2L503.85,190.8L503.99,194.6L504.64,190.8L505.5,202.2L505.54,198.4L505.78,202.2L506.22,194.6L506.49,198.4L506.82,187L506.91,194.6L507.69,190.8L508.08,198.4L508.15,187L508.5,183.2L509.07,175.6L509.19,194.6L509.2,190.8L509.2,194.6L509.82,183.2L510.38,179.4L511.15,171.8L511.56,175.6L511.56,179.4L512.53,175.6L512.78,183.2L513.23,168L513.28,179.4L513.36,175.6L513.78,179.4L514.09,175.6L515.5,171.8L516.68,156.6L516.79,160.4L516.79,168L516.96,156.6L517,156.6L519.24,160.4L519.63,152.8L519.95,183.2L520.06,179.4L520.07,183.2L520.79,175.6L520.8,171.8L521.08,179.4L521.09,175.6L521.67,171.8L521.8,156.6L522.07,168L522.51,171.8L523.1,156.6L523.54,152.8L523.67,156.6L523.83,149L523.83,156.6L525.76,152.8L525.76,156.6L527.57,152.8L529.14,133.8L529.19,130L529.19,126.2L529.2,137.6L529.66,133.8L529.99,130L531.54,122.4L531.78,118.6L531.78,122.4L532.27,111L533.43,107.2L534.09,92L534.1,88.2L534.1,92L534.7,69.2L534.8,69.2L535.07,65.4L535.07,69.2L535.52,50.2L535.81,50.2L535.93,46.4L535.93,50.2L536.68,38.8L536.77,42.6L537.53,23.6L539.87,19.8L540,16" style="fill: rgb(44, 160, 44); fill-opacity: 0.5; stroke-width: 0;"/></g></g><g class="errorbars"/><g class="lines"><path class="js-line" d="M0,316.2L0.1,320L1.04,316.2L1.73,320L1.83,316.2L1.83,320L3.1,316.2L3.85,320L4.72,316.2L4.72,320L4.82,320L5.56,316.2L5.56,320L6.15,320L6.99,316.2L6.99,320L7.58,320L9.12,316.2L9.12,320L9.77,316.2L9.99,320L11.71,316.2L11.71,320L14.57,316.2L14.57,320L22,316.2L22,320L22.2,316.2L22.2,320L23.82,316.2L23.82,312.4L23.96,316.2L25.11,320L26.83,316.2L26.83,320L28.15,312.4L28.15,316.2L28.15,320L31,316.2L31,320L31.14,320L32.39,316.2L32.39,320L33,320L33.89,316.2L33.9,320L34.67,316.2L35.18,320L35.43,316.2L35.52,320L36.73,316.2L38.14,312.4L38.57,316.2L38.69,312.4L38.69,316.2L40,320L40.73,316.2L40.73,320L42.44,316.2L42.44,320L43.54,316.2L43.54,320L44.03,304.8L44.14,308.6L44.67,312.4L45.11,316.2L45.56,312.4L45.57,316.2L46.83,312.4L50.7,308.6L50.7,312.4L51,316.2L51.8,312.4L52.71,320L54.13,316.2L54.53,320L57.7,316.2L57.7,320L57.7,316.2L59.21,312.4L59.53,316.2L60.33,312.4L61.1,308.6L61.13,312.4L61.14,308.6L61.71,320L63.57,316.2L63.86,320L64.55,316.2L64.7,312.4L65.68,316.2L65.86,308.6L65.98,312.4L66.82,316.2L67.13,312.4L67.13,316.2L67.69,312.4L67.76,304.8L67.87,320L67.96,320L68.55,316.2L69.4,312.4L69.4,316.2L70.14,308.6L70.15,312.4L70.85,308.6L75.4,304.8L75.87,301L77.57,320L78.57,316.2L78.57,320L79.55,316.2L80.75,312.4L80.81,316.2L81.88,308.6L82.3,304.8L82.81,301L82.81,304.8L82.83,308.6L83.98,301L83.99,304.8L84.83,301L84.83,304.8L85.12,308.6L85.7,304.8L85.7,308.6L85.7,304.8L87.52,308.6L87.71,304.8L87.71,308.6L88.6,304.8L88.84,308.6L89.57,304.8L90.03,301L90.81,304.8L91.53,301L91.82,304.8L94.1,301L94.1,304.8L94.69,301L94.72,304.8L96.1,308.6L96.61,304.8L96.82,308.6L96.96,304.8L96.97,308.6L97.98,304.8L98,282L98.7,301L98.98,304.8L98.98,308.6L99.14,301L99.54,301L100.13,297.2L100.84,301L101.03,297.2L101.55,289.6L101.72,297.2L101.81,301L102.44,285.8L102.56,293.4L103.54,297.2L103.97,285.8L103.97,285.8L104.51,289.6L105.56,270.6L106.53,266.8L107.55,270.6L107.84,266.8L108.56,274.4L108.56,274.4L108.69,270.6L108.99,285.8L109.12,282L109.78,278.2L110.28,263L110.28,266.8L110.67,270.6L110.71,274.4L111.56,270.6L111.69,266.8L111.7,270.6L113,274.4L113.12,289.6L113.7,285.8L113.71,282L113.72,289.6L114.82,285.8L114.82,289.6L116.99,285.8L116.99,282L116.99,289.6L118.99,285.8L119,289.6L119,285.8L120.07,289.6L120.12,285.8L121.98,282L122.82,289.6L122.83,285.8L122.98,289.6L123.14,285.8L123.15,289.6L123.98,285.8L124.31,289.6L125.01,285.8L125.04,289.6L126.68,285.8L126.71,289.6L128.56,285.8L128.67,289.6L129.06,285.8L129.55,282L129.67,285.8L130.56,282L130.57,285.8L130.98,270.6L131.12,270.6L131.51,266.8L131.86,285.8L131.86,285.8L132.85,282L132.96,289.6L133.14,289.6L133.84,285.8L134.83,282L134.95,278.2L134.95,282L135.7,278.2L135.8,274.4L136.53,266.8L136.56,270.6L136.87,266.8L137.09,270.6L137.54,266.8L137.55,263L137.55,251.6L137.7,274.4L138.97,270.6L139.09,266.8L139.1,270.6L140.54,266.8L141.32,282L142.53,278.2L142.94,282L144.55,278.2L145.64,274.4L145.64,278.2L146.97,266.8L146.98,270.6L147.23,274.4L147.26,278.2L147.66,270.6L147.66,274.4L147.99,270.6L147.99,274.4L148.99,278.2L149.16,285.8L149.87,282L149.96,278.2L151.57,274.4L152.11,263L152.12,266.8L152.12,270.6L152.18,282L153.98,278.2L154.08,282L154.12,278.2L155.72,274.4L155.73,278.2L157.1,274.4L157.1,278.2L157.53,274.4L157.98,270.6L158.67,266.8L158.7,270.6L161.57,274.4L164.62,266.8L165.36,263L166.14,266.8L166.85,263L166.86,266.8L169.54,263L170,266.8L170.61,263L171.84,259.2L172.08,263L172.08,259.2L172.12,289.6L172.12,285.8L174.52,282L174.54,285.8L176.88,289.6L177.99,285.8L177.99,289.6L178.62,285.8L178.65,289.6L180.87,285.8L181.03,282L182.42,285.8L182.43,289.6L183.02,259.2L183.13,274.4L184.66,270.6L184.99,259.2L186.66,255.4L187.16,251.6L187.18,255.4L189.38,251.6L189.87,255.4L191.2,251.6L191.5,255.4L191.8,251.6L194,247.8L196.99,244L197.1,247.8L198,244L198.7,247.8L198.74,240.2L198.96,244L199.85,247.8L200.11,263L200.94,266.8L201.01,270.6L201.11,263L204.56,259.2L205.12,263L205.81,259.2L205.96,255.4L208.11,251.6L211.09,247.8L212.67,244L212.7,240.2L214.02,236.4L214.81,240.2L214.82,236.4L215.12,263L215.14,259.2L216.12,263L216.54,266.8L216.56,263L217.71,266.8L218.17,274.4L218.54,270.6L218.56,274.4L219.09,263L219.13,270.6L219.7,274.4L219.73,278.2L220.64,274.4L221.82,270.6L221.83,274.4L223.83,266.8L224.11,263L226.48,259.2L227.61,263L229.2,259.2L229.68,255.4L232,247.8L232.01,251.6L232.87,240.2L234.7,236.4L234.99,225L235.52,221.2L236.59,213.6L236.64,217.4L238.89,190.8L238.97,194.6L238.98,198.4L239.13,187L239.72,190.8L239.83,187L241.13,183.2L241.28,179.4L241.55,190.8L241.55,194.6L241.72,217.4L242,209.8L242.5,206L243.55,270.6L243.79,266.8L243.97,263L243.99,259.2L244.58,270.6L244.68,266.8L244.87,263L245.8,274.4L245.81,270.6L245.81,266.8L246.55,282L246.8,278.2L246.8,282L247,266.8L247.55,278.2L247.8,274.4L247.95,278.2L248.1,274.4L248.8,270.6L248.83,266.8L249.65,270.6L250.15,263L250.78,259.2L251.65,251.6L251.65,255.4L252.52,247.8L252.52,251.6L253.99,240.2L254.94,244L258.6,240.2L258.69,236.4L258.95,232.6L259.26,236.4L260.86,232.6L261.8,225L262.15,221.2L262.54,217.4L264.14,213.6L264.58,202.2L264.79,213.6L264.79,217.4L266.01,198.4L268.09,194.6L268.15,187L269.19,183.2L270.83,175.6L270.87,179.4L270.89,206L271.52,190.8L271.8,187L271.8,190.8L271.94,187L274.09,183.2L275.79,179.4L275.98,175.6L277.74,171.8L277.74,175.6L277.74,171.8L277.75,175.6L278.71,171.8L278.9,168L279.58,171.8L280.53,187L280.74,190.8L282.29,187L282.82,190.8L284.2,183.2L284.9,179.4L284.9,183.2L285.7,179.4L285.81,171.8L286.97,175.6L287.53,221.2L290.1,217.4L290.59,221.2L290.98,217.4L291,221.2L293.83,217.4L294.53,225L294.57,221.2L294.68,217.4L294.68,221.2L294.93,221.2L295.62,225L295.8,217.4L295.8,221.2L298.17,217.4L298.18,213.6L298.97,209.8L301,206L301.53,202.2L301.68,190.8L301.73,209.8L302.09,202.2L302.54,206L303.02,213.6L303.24,209.8L303.5,206L304.3,255.4L304.53,251.6L305.52,240.2L306.14,236.4L307.15,217.4L308.11,213.6L309.01,209.8L309.12,206L309.96,194.6L310.01,198.4L310.98,156.6L313.18,152.8L315.1,149L315.1,145.2L318.5,149L318.57,145.2L319.84,141.4L320.26,137.6L322.28,122.4L322.28,118.6L322.42,111L322.81,190.8L323.13,187L323.57,183.2L323.59,194.6L323.84,190.8L323.99,187L325.02,168L325.14,171.8L327.5,168L327.99,164.2L328.29,168L329.25,164.2L329.64,168L330.8,164.2L332.26,168L332.29,179.4L332.94,175.6L333.66,179.4L334.09,202.2L334.52,206L334.65,202.2L334.96,213.6L335.16,209.8L335.55,213.6L336.11,209.8L336.94,198.4L337.83,194.6L338.05,187L338.7,183.2L339.56,190.8L339.97,187L339.97,190.8L340.68,187L340.96,190.8L340.96,198.4L341.52,194.6L342.86,190.8L343.07,183.2L343.51,194.6L343.53,194.6L343.53,198.4L344.18,190.8L344.4,187L345.19,179.4L345.2,183.2L348.29,179.4L348.68,183.2L350.06,179.4L350.51,175.6L350.52,179.4L351.27,183.2L351.56,179.4L351.64,187L352.39,183.2L353.51,171.8L353.51,175.6L353.95,168L354.52,164.2L354.95,171.8L354.97,164.2L355.5,168L355.5,164.2L356.1,168L356.82,164.2L356.96,168L357.64,164.2L358.2,160.4L358.42,164.2L358.81,152.8L358.87,160.4L359.65,156.6L359.7,152.8L360.52,149L361.64,145.2L361.73,141.4L362.44,126.2L362.81,122.4L362.93,126.2L364.65,122.4L364.93,118.6L366,114.8L366.16,149L366.27,149L367.75,145.2L368.68,141.4L368.69,145.2L370.54,141.4L370.54,145.2L370.96,141.4L373.4,137.6L373.4,141.4L374.08,141.4L374.68,137.6L375.43,122.4L375.5,126.2L376.69,122.4L376.79,114.8L377.23,137.6L377.6,133.8L377.82,137.6L378.79,133.8L379.62,118.6L379.84,114.8L380.42,133.8L380.53,122.4L380.72,118.6L381.44,141.4L381.67,137.6L382.51,175.6L382.59,171.8L383.3,194.6L383.68,190.8L384.48,194.6L386.93,190.8L387.55,179.4L387.57,183.2L387.81,187L391.38,183.2L391.4,187L392.12,179.4L393.02,183.2L394.15,179.4L395.07,175.6L395.08,179.4L396.93,175.6L397.07,168L398.1,171.8L398.65,160.4L398.65,156.6L398.66,145.2L402.43,149L403.51,133.8L405.64,130L406.14,122.4L406.14,126.2L406.14,130L408.23,122.4L408.69,118.6L411.47,111L411.66,107.2L412.23,103.4L412.24,107.2L412.41,111L413.01,130L413.14,126.2L413.75,122.4L413.79,126.2L414.11,107.2L414.52,103.4L414.71,92L414.9,103.4L414.91,107.2L414.91,114.8L415.55,99.6L415.68,95.8L415.97,92L416.07,103.4L416.09,107.2L416.14,103.4L416.8,118.6L416.85,114.8L416.93,111L416.94,126.2L417.57,122.4L417.83,118.6L418.56,114.8L418.58,111L419,133.8L419.5,126.2L419.53,122.4L419.92,99.6L420.11,141.4L420.42,137.6L420.86,114.8L421.01,130L421.01,133.8L421.06,141.4L421.63,130L421.67,133.8L422.28,130L422.42,141.4L422.99,122.4L423.07,118.6L423.12,122.4L423.5,95.8L423.5,95.8L423.53,92L423.54,84.4L423.67,149L423.99,133.8L424.4,130L424.83,122.4L424.92,130L425.06,133.8L425.72,126.2L425.98,130L426.5,141.4L426.69,133.8L426.79,137.6L427.14,130L427.52,149L427.64,145.2L427.95,133.8L428.1,152.8L428.12,149L428.53,145.2L429.2,164.2L429.79,160.4L430.14,164.2L430.52,152.8L430.53,149L430.78,133.8L431.5,137.6L431.64,156.6L431.95,130L432.12,137.6L432.29,141.4L432.51,137.6L432.68,149L433.84,145.2L433.98,152.8L434.14,145.2L434.81,141.4L434.97,145.2L435.15,137.6L435.49,133.8L435.53,145.2L435.93,137.6L436.63,133.8L437.15,130L437.15,133.8L437.15,137.6L437.68,130L437.68,126.2L437.69,122.4L437.73,137.6L437.86,126.2L438.72,122.4L438.95,111L439.08,126.2L439.16,130L439.87,160.4L440.13,152.8L440.14,149L440.5,145.2L440.5,152.8L440.5,156.6L440.5,152.8L440.51,164.2L441.1,160.4L441.33,156.6L441.58,160.4L441.83,145.2L441.95,149L441.97,145.2L442.42,171.8L442.71,156.6L442.73,152.8L442.79,145.2L442.81,171.8L443.42,152.8L443.42,156.6L444.13,137.6L444.4,141.4L444.94,175.6L445.11,171.8L445.53,175.6L445.97,156.6L446.26,160.4L446.51,156.6L446.51,160.4L446.96,152.8L446.96,152.8L448.08,149L448.68,141.4L448.68,145.2L449.49,141.4L449.54,137.6L449.57,168L449.97,164.2L450.52,168L450.64,171.8L450.78,156.6L450.78,156.6L450.8,152.8L451.22,141.4L451.54,160.4L451.62,156.6L451.87,149L452.22,175.6L452.22,171.8L452.52,175.6L452.84,164.2L453.11,171.8L453.43,175.6L453.79,179.4L454.1,164.2L454.12,168L454.53,164.2L455.62,152.8L455.96,156.6L455.98,152.8L456.12,168L456.55,168L456.84,164.2L456.86,168L457.13,160.4L457.38,168L457.68,164.2L457.99,179.4L458.25,171.8L458.56,175.6L459.23,168L459.23,171.8L459.48,168L459.65,156.6L459.66,171.8L459.84,164.2L460.55,168L460.93,164.2L461.1,179.4L461.5,175.6L461.8,171.8L461.82,179.4L462.1,175.6L462.39,171.8L463.06,168L463.06,171.8L463.23,175.6L463.24,171.8L463.39,190.8L463.93,187L463.99,183.2L464.07,179.4L464.66,190.8L464.68,187L464.79,190.8L465.5,171.8L465.51,187L465.51,190.8L465.51,187L465.65,194.6L466.24,190.8L466.49,187L466.49,194.6L467.23,194.6L467.25,190.8L467.79,202.2L467.79,198.4L468.09,194.6L468.93,190.8L469.06,194.6L469.85,187L469.86,183.2L469.96,206L470.51,194.6L470.66,190.8L471.39,206L471.39,202.2L471.48,206L471.8,194.6L471.81,198.4L472.36,194.6L472.36,198.4L473.1,183.2L473.11,187L473.38,190.8L473.7,198.4L473.92,187L474.54,183.2L474.82,190.8L474.84,187L475.79,183.2L475.85,187L476.4,179.4L476.41,183.2L476.55,179.4L477.53,168L477.53,171.8L477.65,175.6L477.95,168L478.86,171.8L478.94,175.6L479.49,168L479.49,171.8L479.54,168L480.07,187L480.1,187L480.5,183.2L480.53,190.8L481.23,175.6L481.36,171.8L481.53,168L481.53,183.2L481.83,175.6L481.84,179.4L482.5,175.6L482.5,179.4L482.87,175.6L482.87,179.4L483.09,168L483.11,179.4L483.79,175.6L483.93,194.6L484.53,187L484.56,190.8L484.58,183.2L485.22,206L486,202.2L486.4,206L486.43,202.2L487.09,198.4L487.64,206L488.42,202.2L488.86,194.6L489.27,198.4L489.35,202.2L489.71,194.6L489.71,198.4L489.78,202.2L489.8,206L489.82,198.4L490.51,202.2L490.53,198.4L490.56,202.2L490.93,190.8L490.99,194.6L491.68,198.4L491.82,190.8L492.31,198.4L493.18,194.6L494.05,190.8L494.05,194.6L494.05,190.8L494.09,198.4L494.65,198.4L495.54,194.6L495.65,187L495.66,198.4L495.8,190.8L496.65,194.6L497.24,179.4L497.57,175.6L498.09,179.4L498.26,175.6L498.26,171.8L498.91,156.6L498.91,179.4L499.01,175.6L499.54,168L499.55,175.6L499.55,179.4L500.15,175.6L500.39,179.4L500.5,175.6L500.82,187L501.47,190.8L501.96,183.2L502.08,190.8L502.08,194.6L502.08,190.8L502.47,202.2L502.77,202.2L502.93,198.4L503.54,194.6L503.63,198.4L503.65,202.2L503.85,190.8L503.99,194.6L504.64,190.8L505.5,202.2L505.54,198.4L505.78,202.2L506.22,194.6L506.49,198.4L506.82,187L506.91,194.6L507.69,190.8L508.08,198.4L508.15,187L508.5,183.2L509.07,175.6L509.19,194.6L509.2,190.8L509.2,194.6L509.82,183.2L510.38,179.4L511.15,171.8L511.56,175.6L511.56,179.4L512.53,175.6L512.78,183.2L513.23,168L513.28,179.4L513.36,175.6L513.78,179.4L514.09,175.6L515.5,171.8L516.68,156.6L516.79,160.4L516.79,168L516.96,156.6L517,156.6L519.24,160.4L519.63,152.8L519.95,183.2L520.06,179.4L520.07,183.2L520.79,175.6L520.8,171.8L521.08,179.4L521.09,175.6L521.67,171.8L521.8,156.6L522.07,168L522.51,171.8L523.1,156.6L523.54,152.8L523.67,156.6L523.83,149L523.83,156.6L525.76,152.8L525.76,156.6L527.57,152.8L529.14,133.8L529.19,130L529.19,126.2L529.2,137.6L529.66,133.8L529.99,130L531.54,122.4L531.78,118.6L531.78,122.4L532.27,111L533.43,107.2L534.09,92L534.1,88.2L534.1,92L534.7,69.2L534.8,69.2L535.07,65.4L535.07,69.2L535.52,50.2L535.81,50.2L535.93,46.4L535.93,50.2L536.68,38.8L536.77,42.6L537.53,23.6L539.87,19.8L540,16" style="vector-effect: none; fill: none; stroke: rgb(44, 160, 44); stroke-opacity: 1; stroke-width: 2px; opacity: 1;"/></g><g class="points"/><g class="text"/></g></g></g></g><g class="zerolinelayer-above"/><path class="xlines-above crisp" d="M0,0" style="fill: none;"/><path class="ylines-above crisp" d="M0,0" style="fill: none;"/><g class="overlines-above"/><g class="xaxislayer-above"><g class="xtick"><text text-anchor="middle" x="0" y="439" transform="translate(97.05,0)" style="font-family: 'Open Sans'; font-size: 18px; fill: rgb(255, 255, 255); fill-opacity: 1; white-space: pre;">2016</text></g><g class="xtick"><text text-anchor="middle" x="0" y="439" style="font-family: 'Open Sans'; font-size: 18px; fill: rgb(255, 255, 255); fill-opacity: 1; white-space: pre;" transform="translate(201.47,0)">2018</text></g><g class="xtick"><text text-anchor="middle" x="0" y="439" style="font-family: 'Open Sans'; font-size: 18px; fill: rgb(255, 255, 255); fill-opacity: 1; white-space: pre;" transform="translate(305.75,0)">2020</text></g><g class="xtick"><text text-anchor="middle" x="0" y="439" style="font-family: 'Open Sans'; font-size: 18px; fill: rgb(255, 255, 255); fill-opacity: 1; white-space: pre;" transform="translate(410.16,0)">2022</text></g><g class="xtick"><text text-anchor="middle" x="0" y="439" style="font-family: 'Open Sans'; font-size: 18px; fill: rgb(255, 255, 255); fill-opacity: 1; white-space: pre;" transform="translate(514.44,0)">2024</text></g><g class="xtick"><text text-anchor="middle" x="0" y="439" style="font-family: 'Open Sans'; font-size: 18px; fill: rgb(255, 255, 255); fill-opacity: 1; white-space: pre;" transform="translate(618.86,0)">2026</text></g></g><g class="yaxislayer-above"><g class="ytick"><text text-anchor="end" x="79" y="6.3" transform="translate(0,420)" style="font-family: 'Open Sans'; font-size: 18px; fill: rgb(255, 255, 255); fill-opacity: 1; white-space: pre;">0</text></g><g class="ytick"><text text-anchor="end" x="79" y="6.3" style="font-family: 'Open Sans'; font-size: 18px; fill: rgb(255, 255, 255); fill-opacity: 1; white-space: pre;" transform="translate(0,382)">10</text></g><g class="ytick"><text text-anchor="end" x="79" y="6.3" style="font-family: 'Open Sans'; font-size: 18px; fill: rgb(255, 255, 255); fill-opacity: 1; white-space: pre;" transform="translate(0,344)">20</text></g><g class="ytick"><text text-anchor="end" x="79" y="6.3" style="font-family: 'Open Sans'; font-size: 18px; fill: rgb(255, 255, 255); fill-opacity: 1; white-space: pre;" transform="translate(0,306)">30</text></g><g class="ytick"><text text-anchor="end" x="79" y="6.3" style="font-family: 'Open Sans'; font-size: 18px; fill: rgb(255, 255, 255); fill-opacity: 1; white-space: pre;" transform="translate(0,268)">40</text></g><g class="ytick"><text text-anchor="end" x="79" y="6.3" style="font-family: 'Open Sans'; font-size: 18px; fill: rgb(255, 255, 255); fill-opacity: 1; white-space: pre;" transform="translate(0,230)">50</text></g><g class="ytick"><text text-anchor="end" x="79" y="6.3" style="font-family: 'Open Sans'; font-size: 18px; fill: rgb(255, 255, 255); fill-opacity: 1; white-space: pre;" transform="translate(0,192)">60</text></g><g class="ytick"><text text-anchor="end" x="79" y="6.3" style="font-family: 'Open Sans'; font-size: 18px; fill: rgb(255, 255, 255); fill-opacity: 1; white-space: pre;" transform="translate(0,154)">70</text></g><g class="ytick"><text text-anchor="end" x="79" y="6.3" style="font-family: 'Open Sans'; font-size: 18px; fill: rgb(255, 255, 255); fill-opacity: 1; white-space: pre;" transform="translate(0,116)">80</text></g></g><g class="overaxes-above"/></g></g><g class="polarlayer"/><g class="smithlayer"/><g class="ternarylayer"/><g class="geolayer"/><g class="funnelarealayer"/><g class="pielayer"/><g class="iciclelayer"/><g class="treemaplayer"/><g class="sunburstlayer"/><g class="glimages"/><defs id="topdefs-2ac3af"><g class="clips"/></defs><g class="layer-above"><g class="imagelayer"/><g class="shapelayer"/></g><g class="infolayer"><g class="g-gtitle"><text class="gtitle" x="35" y="50" text-anchor="start" dy="0em" style="opacity: 1; font-family: 'Open Sans'; font-size: 25px; fill: rgb(255, 255, 255); fill-opacity: 1; white-space: pre;">MultiQC/MultiQC - Open Pull Requests Over Time</text></g><g class="g-xtitle"><text class="xtitle" x="350" y="472.9" text-anchor="middle" style="opacity: 1; font-family: 'Open Sans'; font-size: 22px; fill: rgb(255, 255, 255); fill-opacity: 1; white-space: pre;">Date</text></g><g class="g-ytitle"><text class="ytitle" transform="rotate(-90,38.8,260)" x="38.8" y="260" text-anchor="middle" style="opacity: 1; font-family: 'Open Sans'; font-size: 22px; fill: rgb(255, 255, 255); fill-opacity: 1; white-space: pre;">Number of Open PRs</text></g></g></svg>