<svg class="main-svg" xmlns="http://www.w3.org/2000/svg" xmlns:xlink="http://www.w3.org/1999/xlink" width="700" height="500" style="" viewBox="0 0 700 500"><rect x="0" y="0" width="700" height="500" style="fill: rgb(0, 0, 0); fill-opacity: 0;"/><defs id="defs-d62ade"><g class="clips"><clipPath id="clipd62adexyplot" class="plotclip"><rect width="540" height="320"/></clipPath><clipPath class="axesclip" id="clipd62adex"><rect x="80" y="0" width="540" height="500"/></clipPath><clipPath class="axesclip" id="clipd62adey"><rect x="0" y="100" width="700" height="320"/></clipPath><clipPath class="axesclip" id="clipd62adexy"><rect x="80" y="100" width="540" height="320"/></clipPath></g><g class="gradients"/><g class="patterns"/></defs><g class="bglayer"><rect class="bg" x="80" y="100" width="540" height="320" style="fill: rgb(0, 0, 0); fill-opacity: 0; stroke-width: 0;"/></g><g class="layer-below"><g class="imagelayer"/><g class="shapelayer"/></g><g class="cartesianlayer"><g class="subplot xy"><g class="layer-subplot"><g class="shapelayer"/><g class="imagelayer"/></g><g class="minor-gridlayer"><g class="x"/><g class="y"/></g><g class="gridlayer"><g class="x"><path class="xgrid crisp" transform="translate(96.77,0)" d="M0,100v320" style="stroke: rgb(255, 255, 255); stroke-opacity: 1; stroke-width: 1px;"/><path class="xgrid crisp" transform="translate(199.43,0)" d="M0,100v320" style="stroke: rgb(255, 255, 255); stroke-opacity: 1; stroke-width: 1px;"/><path class="xgrid crisp" transform="translate(301.96000000000004,0)" d="M0,100v320" style="stroke: rgb(255, 255, 255); stroke-opacity: 1; stroke-width: 1px;"/><path class="xgrid crisp" transform="translate(404.63,0)" d="M0,100v320" style="stroke: rgb(255, 255, 255); stroke-opacity: 1; stroke-width: 1px;"/><path class="xgrid crisp" transform="translate(507.15,0)" d="M0,100v320" style="stroke: rgb(255, 255, 255); stroke-opacity: 1; stroke-width: 1px;"/><path class="xgrid crisp" transform="translate(609.82,0)" d="M0,100v320" style="stroke: rgb(255, 255, 255); stroke-opacity: 1; stroke-width: 1px;"/></g><g class="y"><path class="ygrid crisp" transform="translate(0,360.97)" d="M80,0h540" style="stroke: rgb(255, 255, 255); stroke-opacity: 1; stroke-width: 1px;"/><path class="ygrid crisp" transform="translate(0,301.94)" d="M80,0h540" style="stroke: rgb(255, 255, 255); stroke-opacity: 1; stroke-width: 1px;"/><path class="ygrid crisp" transform="translate(0,242.91)" d="M80,0h540" style="stroke: rgb(255, 255, 255); stroke-opacity: 1; stroke-width: 1px;"/><path class="ygrid crisp" transform="translate(0,183.88)" d="M80,0h540" style="stroke: rgb(255, 255, 255); stroke-opacity: 1; stroke-width: 1px;"/><path class="ygrid crisp" transform="translate(0,124.85)" d="M80,0h540" style="stroke: rgb(255, 255, 255); stroke-opacity: 1; stroke-width: 1px;"/></g></g><g class="zerolinelayer"><path class="yzl zl crisp" transform="translate(0,420)" d="M80,0h540" style="stroke: rgb(255, 255, 255); stroke-opacity: 1; stroke-width: 2px;"/></g><g class="layer-between"><g class="shapelayer"/><g class="imagelayer"/></g><path class="xlines-below"/><path class="ylines-below"/><g class="overlines-below"/><g class="xaxislayer-below"/><g class="yaxislayer-below"/><g class="overaxes-below"/><g class="overplot"><g class="xy" transform="translate(80,100)" clip-path="url(#clipd62adexyplot)"><g class="scatterlayer mlayer"><g class="trace scatter trace44699e" style="stroke-miterlimit: 2;"><g class="fills"><g><path class="js-fill" d="M540,320L0,320L0,317.05L0.1,320L1.02,317.05L1.7,320L1.8,317.05L1.8,320L3.05,317.05L3.79,320L4.64,317.05L4.64,320L4.74,320L5.47,317.05L5.47,320L6.05,320L6.88,317.05L6.88,320L7.45,320L8.97,317.05L8.97,320L9.6,317.05L9.82,320L11.51,317.05L11.51,320L14.32,317.05L14.32,320L21.63,317.05L21.63,320L21.82,317.05L21.82,320L23.42,317.05L23.42,314.1L23.56,317.05L24.69,320L26.38,317.05L26.38,320L27.68,314.1L27.68,317.05L27.68,320L30.48,317.05L30.48,320L30.62,320L31.85,317.05L31.85,320L32.44,320L33.33,317.05L33.33,320L34.09,317.05L34.09,320L34.83,317.05L34.92,320L37.5,314.1L37.93,317.05L38.05,314.1L38.05,317.05L39.33,320L40.04,317.05L40.04,320L41.73,317.05L41.73,320L42.81,317.05L42.81,320L43.29,308.19L43.4,311.15L43.92,314.1L44.36,317.05L44.79,314.1L44.8,317.05L46.04,314.1L49.85,311.15L49.85,314.1L50.15,317.05L50.93,314.1L51.83,320L53.23,317.05L53.23,320L53.62,320L56.73,317.05L56.73,320L56.73,317.05L58.21,314.1L58.53,317.05L59.31,314.1L60.08,311.15L60.11,314.1L60.11,311.15L60.68,320L62.5,317.05L62.79,320L63.46,317.05L63.62,314.1L64.58,317.05L64.75,311.15L64.88,314.1L65.7,317.05L66,314.1L66,317.05L66.55,314.1L66.62,308.19L66.73,320L66.82,320L67.4,317.05L68.24,314.1L68.24,317.05L68.96,311.15L68.97,314.1L69.66,311.15L74.13,308.19L74.6,305.24L76.27,320L77.25,317.05L77.25,320L78.21,317.05L79.4,314.1L79.45,317.05L80.51,311.15L80.92,308.19L81.42,305.24L81.42,308.19L81.44,311.15L82.57,305.24L82.58,308.19L83.41,305.24L83.41,308.19L83.69,311.15L84.26,308.19L84.26,311.15L84.27,308.19L86.06,311.15L86.23,308.19L86.24,311.15L87.12,308.19L87.35,311.15L88.06,308.19L88.52,305.24L89.28,308.19L89.99,305.24L90.28,308.19L92.52,305.24L92.52,308.19L93.11,305.24L93.13,308.19L94.49,311.15L94.99,308.19L95.19,311.15L95.34,308.19L95.34,311.15L96.34,308.19L96.35,290.49L97.04,305.24L97.32,308.19L97.32,311.15L97.47,305.24L97.87,305.24L98.45,302.29L99.15,305.24L99.33,302.29L99.85,296.39L100.01,302.29L100.1,305.24L100.72,293.44L100.84,299.34L101.8,302.29L102.23,293.44L102.23,293.44L102.76,296.39L103.79,281.63L104.74,278.68L105.75,281.63L106.03,278.68L106.74,284.58L106.74,284.58L106.87,281.63L107.16,293.44L107.29,290.49L107.94,287.53L108.43,275.73L108.43,278.68L108.81,281.63L108.85,284.58L109.69,281.63L109.82,278.68L109.83,281.63L111.11,284.58L111.22,296.39L111.79,293.44L111.8,290.49L111.81,296.39L112.9,293.44L112.9,296.39L115.02,293.44L115.03,290.49L115.03,296.39L116.99,293.44L117,296.39L117.01,293.44L118.06,296.39L118.11,293.44L119.93,290.49L120.92,296.39L121.06,293.44L121.06,296.39L121.08,296.39L121.9,293.44L122.22,296.39L122.91,293.44L122.94,296.39L124.55,293.44L124.58,296.39L126.41,293.44L126.51,296.39L126.9,293.44L127.37,290.49L127.49,293.44L128.37,290.49L128.38,293.44L128.78,281.63L128.92,281.63L129.31,278.68L129.65,293.44L129.65,293.44L130.62,290.49L130.73,296.39L130.91,296.39L131.6,293.44L132.57,290.49L132.68,287.53L133.24,290.49L133.42,287.53L133.52,284.58L134.24,278.68L134.27,281.63L134.58,278.68L134.79,281.63L135.23,278.68L135.24,275.73L135.25,266.87L135.39,284.58L136.64,281.63L136.76,278.68L136.77,281.63L138.19,278.68L138.95,290.49L140.14,287.53L140.55,290.49L142.13,287.53L143.2,284.58L143.2,287.53L144.51,278.68L144.51,281.63L144.76,284.58L144.79,287.53L145.18,281.63L145.19,284.58L145.51,281.63L145.51,284.58L146.49,287.53L146.66,293.44L147.36,290.49L147.45,287.53L149.03,284.58L149.56,275.73L149.57,281.63L149.57,284.58L149.62,290.49L151.4,287.53L151.5,290.49L151.54,287.53L153.11,284.58L153.12,287.53L154.46,284.58L154.46,287.53L154.88,284.58L155.33,281.63L156.01,278.68L156.04,281.63L158.86,284.58L161.86,278.68L162.58,275.73L163.35,278.68L164.05,275.73L164.06,278.68L166.7,275.73L167.15,278.68L167.75,275.73L168.95,272.78L169.2,275.73L169.2,272.78L169.23,296.39L169.24,293.44L171.59,290.49L171.61,293.44L173.92,296.39L175,293.44L175,296.39L175.62,293.44L175.65,296.39L177.83,293.44L177.99,290.49L179.36,293.44L179.37,296.39L179.95,272.78L180.06,284.58L181.56,281.63L181.89,272.78L183.53,269.83L184.02,266.87L184.04,269.83L186.2,266.87L186.68,269.83L187.99,266.87L188.29,269.83L188.59,266.87L190.74,263.92L193.69,260.97L193.79,263.92L194.68,260.97L195.37,263.92L195.41,258.02L195.63,260.97L196.5,263.92L196.75,275.73L197.57,278.68L197.64,281.63L197.74,275.73L201.13,272.78L201.68,275.73L202.36,272.78L202.51,269.83L204.62,266.87L207.55,263.92L209.11,260.97L209.13,258.02L210.43,255.07L211.2,258.02L211.22,255.07L211.52,275.73L211.53,272.78L212.49,275.73L212.91,278.68L212.92,275.73L214.05,278.68L214.51,284.58L214.88,281.63L214.9,284.58L215.42,275.73L215.46,281.63L216.01,284.58L216.05,287.53L216.94,284.58L218.1,281.63L218.11,284.58L220.07,278.68L220.35,275.73L222.68,272.78L223.79,275.73L225.36,272.78L225.83,269.83L228.11,263.92L228.12,266.87L228.96,258.02L230.77,255.07L231.05,246.21L231.57,243.26L232.62,237.36L232.67,240.31L234.89,219.65L234.96,222.6L234.97,225.55L235.12,216.7L235.7,219.65L235.81,216.7L237.09,213.75L237.23,210.8L237.5,219.65L237.5,222.6L237.67,240.31L237.94,234.41L238.43,231.46L239.47,281.63L239.7,278.68L239.88,275.73L239.89,272.78L240.48,281.63L240.57,278.68L240.76,275.73L241.68,284.58L241.69,281.63L241.69,278.68L242.42,290.49L242.66,287.53L242.66,290.49L242.86,278.68L243.4,287.53L243.64,284.58L243.79,287.53L243.94,284.58L244.62,281.63L244.66,278.68L245.46,281.63L245.95,275.73L246.58,272.78L247.43,266.87L247.43,269.83L248.29,263.92L248.29,266.87L249.73,258.02L250.67,260.97L254.26,258.02L254.35,255.07L254.61,252.12L254.91,255.07L256.48,252.12L257.41,246.21L257.76,243.26L258.14,240.31L259.71,237.36L260.14,228.5L260.35,237.36L260.35,240.31L261.55,225.55L263.59,222.6L263.66,216.7L264.67,213.75L266.29,207.84L266.33,210.8L266.34,231.46L266.96,219.65L267.24,216.7L267.24,219.65L267.38,216.7L269.49,213.75L271.16,210.8L271.35,207.84L273.08,204.89L273.08,207.84L273.09,204.89L273.09,207.84L274.03,204.89L274.22,201.94L274.89,204.89L275.83,216.7L276.03,219.65L277.56,216.7L278.07,219.65L279.43,213.75L280.12,210.8L280.12,213.75L280.91,210.8L281.02,204.89L282.15,207.84L282.71,243.26L285.23,240.31L285.71,243.26L286.1,240.31L286.12,243.26L288.9,240.31L289.59,246.21L289.63,243.26L289.73,240.31L289.99,243.26L290.67,246.21L290.84,240.31L290.84,243.26L293.17,240.31L293.18,237.36L293.96,234.41L295.95,231.46L296.47,228.5L296.62,219.65L296.67,234.41L297.02,228.5L297.47,231.46L297.94,237.36L298.16,234.41L298.41,231.46L299.2,269.83L299.43,266.87L300.39,258.02L301.01,255.07L302,240.31L302.95,237.36L303.93,231.46L304,228.5L305.43,216.7L305.45,213.75L305.76,193.09L307.93,190.14L309.82,187.18L309.82,184.23L313.16,187.18L313.23,184.23L314.48,181.28L314.89,178.33L316.88,166.52L316.88,163.57L317.01,157.67L317.4,219.65L317.71,216.7L318.14,213.75L318.16,222.6L318.41,219.65L318.56,216.7L319.57,201.94L319.69,204.89L322,201.94L322.49,198.99L322.78,201.94L323.73,198.99L324.11,201.94L325.26,198.99L326.69,201.94L326.72,210.8L327.36,207.84L328.06,210.8L328.49,228.5L328.91,231.46L329.04,228.5L329.34,237.36L329.54,234.41L329.92,237.36L330.47,234.41L331.29,225.55L332.16,222.6L332.38,216.7L333.02,213.75L333.86,219.65L334.26,216.7L334.27,219.65L334.97,216.7L335.24,219.65L335.24,225.55L335.8,222.6L337.11,219.65L337.32,213.75L337.75,222.6L337.77,222.6L337.77,225.55L338.41,219.65L338.62,216.7L339.4,210.8L339.41,213.75L342.45,210.8L342.83,213.75L344.19,210.8L344.63,207.84L344.64,210.8L345.38,213.75L345.66,210.8L345.74,216.7L346.48,213.75L347.58,204.89L347.58,207.84L348.01,201.94L348.57,198.99L349,204.89L349.02,198.99L349.54,201.94L349.54,198.99L350.13,201.94L350.84,198.99L350.98,201.94L351.65,198.99L352.79,193.09L352.8,190.14L352.85,196.04L353.62,193.09L353.67,190.14L354.48,187.18L355.57,184.23L355.67,181.28L356.36,169.48L356.72,166.52L356.84,169.48L358.53,166.52L358.81,163.57L359.87,160.62L360.02,187.18L360.13,187.18L361.58,184.23L362.5,181.28L362.51,184.23L364.32,181.28L364.33,184.23L364.74,181.28L367.14,178.33L367.14,181.28L367.8,181.28L368.39,178.33L369.14,166.52L369.2,169.48L370.37,166.52L370.47,160.62L370.9,178.33L371.27,175.38L371.49,178.33L372.44,175.38L373.26,163.57L373.47,160.62L374.05,175.38L374.15,166.52L374.34,163.57L375.04,181.28L375.27,178.33L376.1,207.84L376.17,204.89L376.88,222.6L377.25,219.65L378.03,222.6L380.44,219.65L381.05,210.8L381.07,213.75L381.31,216.7L384.82,213.75L384.83,216.7L385.54,210.8L386.43,213.75L387.54,210.8L388.45,207.84L388.45,210.8L390.27,207.84L390.41,201.94L391.42,204.89L391.96,196.04L391.97,193.09L391.98,184.23L395.68,187.18L396.75,175.38L398.83,172.43L399.32,166.52L399.32,169.48L399.33,172.43L401.39,166.52L401.83,163.57L404.57,157.67L404.76,154.72L405.32,151.77L405.32,154.72L405.49,157.67L406.08,172.43L406.21,169.48L406.81,166.52L406.85,169.48L407.17,154.72L407.57,151.77L407.75,142.91L407.95,151.77L407.95,154.72L407.96,160.62L408.58,148.82L408.71,145.86L408.99,142.91L409.09,151.77L409.11,154.72L409.16,151.77L409.81,163.57L409.86,160.62L409.94,157.67L409.95,169.48L410.57,166.52L410.83,163.57L411.54,160.62L411.56,157.67L411.98,175.38L412.46,169.48L412.49,166.52L412.88,148.82L413.07,181.28L413.37,178.33L413.8,160.62L413.95,172.43L413.95,175.38L414,181.28L414.56,172.43L414.6,175.38L415.19,172.43L415.33,181.28L415.89,166.52L415.97,163.57L416.03,166.52L416.4,148.82L416.4,145.86L416.44,137.01L416.57,187.18L416.88,175.38L417.28,172.43L417.7,166.52L417.8,172.43L417.93,175.38L418.58,169.48L418.84,172.43L419.35,181.28L419.53,175.38L419.63,178.33L419.97,172.43L420.35,187.18L420.47,184.23L420.48,190.14L420.78,175.38L420.94,187.18L421.34,184.23L422,198.99L422.58,196.04L422.92,198.99L423.3,190.14L423.31,187.18L423.55,175.38L424.27,178.33L424.41,193.09L424.71,172.43L424.87,178.33L425.04,181.28L425.25,178.33L425.42,187.18L426.57,184.23L426.7,190.14L426.86,184.23L427.52,181.28L427.67,184.23L427.85,178.33L428.19,175.38L428.22,184.23L428.62,178.33L429.31,175.38L429.82,172.43L429.82,175.38L429.82,178.33L430.34,172.43L430.34,169.48L430.35,166.52L430.39,178.33L430.52,169.48L431.36,166.52L431.59,157.67L431.71,169.48L431.79,172.43L432.5,196.04L432.75,190.14L432.76,187.18L433.11,184.23L433.11,190.14L433.11,193.09L433.12,198.99L433.59,190.14L433.71,196.04L433.93,193.09L434.17,196.04L434.42,184.23L434.54,187.18L434.56,184.23L435,204.89L435.3,190.14L435.36,187.18L435.36,184.23L435.38,204.89L436.07,190.14L436.21,187.18L436.35,193.09L436.68,178.33L436.95,181.28L437.48,207.84L437.64,204.89L438.06,207.84L438.49,193.09L438.78,196.04L439.02,193.09L439.03,196.04L439.46,190.14L439.47,190.14L440.56,187.18L441.16,181.28L441.16,184.23L441.95,181.28L442,178.33L442.03,201.94L442.43,198.99L442.97,201.94L443.08,204.89L443.24,190.14L443.24,187.18L443.65,181.28L443.7,187.18L443.9,190.14L443.93,187.18L444.64,207.84L444.64,204.89L444.93,207.84L445.24,198.99L445.51,204.89L445.82,207.84L446.18,210.8L446.51,198.99L446.51,201.94L446.9,198.99L447.98,190.14L448.31,193.09L448.33,190.14L448.47,201.94L448.89,201.94L449.18,198.99L449.2,201.94L449.46,196.04L449.71,201.94L450,198.99L450.31,210.8L450.56,204.89L450.87,207.84L451.53,201.94L451.53,204.89L451.77,201.94L451.94,193.09L451.95,204.89L452.13,198.99L452.83,201.94L452.83,198.99L453.36,210.8L453.76,207.84L454.06,204.89L454.07,210.8L454.35,207.84L454.63,204.89L455.3,201.94L455.3,204.89L455.46,207.84L455.47,204.89L455.61,219.65L456.15,216.7L456.21,213.75L456.29,210.8L456.87,219.65L456.89,216.7L456.99,219.65L457.7,204.89L457.7,216.7L457.7,219.65L457.72,216.7L457.84,222.6L458.42,219.65L458.67,216.7L458.67,222.6L459.42,219.65L459.53,222.6L459.55,228.5L460.24,222.6L461.06,219.65L461.19,222.6L461.84,219.65L461.99,213.75L462.04,228.5L462.07,228.5L462.08,231.46L462.77,219.65L462.78,228.5L462.78,231.46L463.46,225.55L463.49,228.5L463.57,231.46L463.89,222.6L463.89,225.55L464.44,222.6L464.44,225.55L465.17,213.75L465.18,216.7L465.44,219.65L465.76,225.55L465.98,216.7L466.58,213.75L466.86,219.65L466.87,216.7L467.81,213.75L467.87,216.7L468.41,210.8L468.42,213.75L468.56,210.8L469.52,201.94L469.52,204.89L469.64,207.84L469.93,201.94L470.83,204.89L471.45,201.94L471.75,213.75L471.78,210.8L472.48,219.65L472.73,216.7L472.73,213.75L472.73,216.7L473.45,201.94L473.46,213.75L473.5,210.8L474.41,207.84L474.41,210.8L474.97,204.89L474.98,201.94L475.75,219.65L475.82,222.6L476.55,213.75L476.57,222.6L476.57,225.55L476.57,222.6L477.09,231.46L477.85,228.5L478.24,231.46L478.27,228.5L478.92,225.55L479.46,231.46L480.23,228.5L480.66,222.6L481.06,225.55L481.14,228.5L481.5,222.6L481.5,225.55L481.56,228.5L481.59,231.46L481.61,225.55L482.28,228.5L482.3,225.55L482.33,228.5L482.7,219.65L482.76,222.6L483.44,225.55L483.57,219.65L484.05,225.55L484.91,222.6L485.76,219.65L485.76,222.6L485.8,225.55L486.35,219.65L486.36,225.55L487.22,222.6L487.34,216.7L487.35,225.55L487.49,219.65L488.32,222.6L488.9,210.8L489.22,207.84L489.73,210.8L489.91,207.84L489.91,204.89L490.54,193.09L490.55,210.8L490.64,207.84L490.89,204.89L491.17,201.94L491.17,207.84L491.17,210.8L491.76,207.84L492,210.8L492.11,207.84L492.42,216.7L493.07,219.65L493.54,213.75L493.66,219.65L493.66,222.6L493.66,219.65L494.05,228.5L494.34,228.5L494.49,225.55L495.1,222.6L495.18,225.55L495.2,228.5L495.4,219.65L495.54,222.6L496.18,219.65L497.02,228.5L497.06,225.55L497.3,228.5L497.73,222.6L497.99,225.55L498.32,216.7L498.41,222.6L499.18,219.65L499.56,225.55L499.99,210.8L500.54,207.84L500.68,222.6L501.27,213.75L501.83,210.8L502.58,204.89L502.98,207.84L502.98,210.8L503.93,207.84L504.62,201.94L504.63,213.75L504.67,210.8L504.75,207.84L505.16,210.8L505.47,207.84L506.86,204.89L508.01,193.09L508.12,196.04L508.12,198.99L508.12,201.94L508.29,193.09L508.33,193.09L510.53,196.04L510.92,190.14L510.95,210.8L511.22,210.8L511.23,213.75L512.06,204.89L512.07,207.84L512.34,210.8L513.05,193.09L513.05,198.99L513.1,196.04L513.75,204.89L513.79,198.99L513.88,196.04L513.88,198.99L514.33,193.09L514.76,190.14L514.89,193.09L515.05,187.18L515.05,193.09L516.94,190.14L516.95,193.09L518.72,190.14L520.26,175.38L520.31,172.43L520.32,169.48L520.32,178.33L520.77,175.38L521.11,172.43L522.62,166.52L522.86,163.57L522.86,166.52L523.34,157.67L524.49,154.72L525.14,142.91L525.14,139.96L525.14,142.91L525.73,125.2L525.83,125.2L526.09,122.25L526.09,125.2L526.54,110.45L526.83,110.45L526.94,107.5L526.94,110.45L527.68,101.59L527.77,104.54L528.52,89.79L530.81,86.83L532.07,66.17L533.01,63.22L534.7,57.32L536.5,54.37L537.09,42.56L537.43,39.61L538.67,24.85L538.83,21.9L540,16" style="fill: rgb(44, 160, 44); fill-opacity: 0.5; stroke-width: 0;"/></g></g><g class="errorbars"/><g class="lines"><path class="js-line" d="M0,317.05L0.1,320L1.02,317.05L1.7,320L1.8,317.05L1.8,320L3.05,317.05L3.79,320L4.64,317.05L4.64,320L4.74,320L5.47,317.05L5.47,320L6.05,320L6.88,317.05L6.88,320L7.45,320L8.97,317.05L8.97,320L9.6,317.05L9.82,320L11.51,317.05L11.51,320L14.32,317.05L14.32,320L21.63,317.05L21.63,320L21.82,317.05L21.82,320L23.42,317.05L23.42,314.1L23.56,317.05L24.69,320L26.38,317.05L26.38,320L27.68,314.1L27.68,317.05L27.68,320L30.48,317.05L30.48,320L30.62,320L31.85,317.05L31.85,320L32.44,320L33.33,317.05L33.33,320L34.09,317.05L34.09,320L34.83,317.05L34.92,320L37.5,314.1L37.93,317.05L38.05,314.1L38.05,317.05L39.33,320L40.04,317.05L40.04,320L41.73,317.05L41.73,320L42.81,317.05L42.81,320L43.29,308.19L43.4,311.15L43.92,314.1L44.36,317.05L44.79,314.1L44.8,317.05L46.04,314.1L49.85,311.15L49.85,314.1L50.15,317.05L50.93,314.1L51.83,320L53.23,317.05L53.23,320L53.62,320L56.73,317.05L56.73,320L56.73,317.05L58.21,314.1L58.53,317.05L59.31,314.1L60.08,311.15L60.11,314.1L60.11,311.15L60.68,320L62.5,317.05L62.79,320L63.46,317.05L63.62,314.1L64.58,317.05L64.75,311.15L64.88,314.1L65.7,317.05L66,314.1L66,317.05L66.55,314.1L66.62,308.19L66.73,320L66.82,320L67.4,317.05L68.24,314.1L68.24,317.05L68.96,311.15L68.97,314.1L69.66,311.15L74.13,308.19L74.6,305.24L76.27,320L77.25,317.05L77.25,320L78.21,317.05L79.4,314.1L79.45,317.05L80.51,311.15L80.92,308.19L81.42,305.24L81.42,308.19L81.44,311.15L82.57,305.24L82.58,308.19L83.41,305.24L83.41,308.19L83.69,311.15L84.26,308.19L84.26,311.15L84.27,308.19L86.06,311.15L86.23,308.19L86.24,311.15L87.12,308.19L87.35,311.15L88.06,308.19L88.52,305.24L89.28,308.19L89.99,305.24L90.28,308.19L92.52,305.24L92.52,308.19L93.11,305.24L93.13,308.19L94.49,311.15L94.99,308.19L95.19,311.15L95.34,308.19L95.34,311.15L96.34,308.19L96.35,290.49L97.04,305.24L97.32,308.19L97.32,311.15L97.47,305.24L97.87,305.24L98.45,302.29L99.15,305.24L99.33,302.29L99.85,296.39L100.01,302.29L100.1,305.24L100.72,293.44L100.84,299.34L101.8,302.29L102.23,293.44L102.23,293.44L102.76,296.39L103.79,281.63L104.74,278.68L105.75,281.63L106.03,278.68L106.74,284.58L106.74,284.58L106.87,281.63L107.16,293.44L107.29,290.49L107.94,287.53L108.43,275.73L108.43,278.68L108.81,281.63L108.85,284.58L109.69,281.63L109.82,278.68L109.83,281.63L111.11,284.58L111.22,296.39L111.79,293.44L111.8,290.49L111.81,296.39L112.9,293.44L112.9,296.39L115.02,293.44L115.03,290.49L115.03,296.39L116.99,293.44L117,296.39L117.01,293.44L118.06,296.39L118.11,293.44L119.93,290.49L120.92,296.39L121.06,293.44L121.06,296.39L121.08,296.39L121.9,293.44L122.22,296.39L122.91,293.44L122.94,296.39L124.55,293.44L124.58,296.39L126.41,293.44L126.51,296.39L126.9,293.44L127.37,290.49L127.49,293.44L128.37,290.49L128.38,293.44L128.78,281.63L128.92,281.63L129.31,278.68L129.65,293.44L129.65,293.44L130.62,290.49L130.73,296.39L130.91,296.39L131.6,293.44L132.57,290.49L132.68,287.53L133.24,290.49L133.42,287.53L133.52,284.58L134.24,278.68L134.27,281.63L134.58,278.68L134.79,281.63L135.23,278.68L135.24,275.73L135.25,266.87L135.39,284.58L136.64,281.63L136.76,278.68L136.77,281.63L138.19,278.68L138.95,290.49L140.14,287.53L140.55,290.49L142.13,287.53L143.2,284.58L143.2,287.53L144.51,278.68L144.51,281.63L144.76,284.58L144.79,287.53L145.18,281.63L145.19,284.58L145.51,281.63L145.51,284.58L146.49,287.53L146.66,293.44L147.36,290.49L147.45,287.53L149.03,284.58L149.56,275.73L149.57,281.63L149.57,284.58L149.62,290.49L151.4,287.53L151.5,290.49L151.54,287.53L153.11,284.58L153.12,287.53L154.46,284.58L154.46,287.53L154.88,284.58L155.33,281.63L156.01,278.68L156.04,281.63L158.86,284.58L161.86,278.68L162.58,275.73L163.35,278.68L164.05,275.73L164.06,278.68L166.7,275.73L167.15,278.68L167.75,275.73L168.95,272.78L169.2,275.73L169.2,272.78L169.23,296.39L169.24,293.44L171.59,290.49L171.61,293.44L173.92,296.39L175,293.44L175,296.39L175.62,293.44L175.65,296.39L177.83,293.44L177.99,290.49L179.36,293.44L179.37,296.39L179.95,272.78L180.06,284.58L181.56,281.63L181.89,272.78L183.53,269.83L184.02,266.87L184.04,269.83L186.2,266.87L186.68,269.83L187.99,266.87L188.29,269.83L188.59,266.87L190.74,263.92L193.69,260.97L193.79,263.92L194.68,260.97L195.37,263.92L195.41,258.02L195.63,260.97L196.5,263.92L196.75,275.73L197.57,278.68L197.64,281.63L197.74,275.73L201.13,272.78L201.68,275.73L202.36,272.78L202.51,269.83L204.62,266.87L207.55,263.92L209.11,260.97L209.13,258.02L210.43,255.07L211.2,258.02L211.22,255.07L211.52,275.73L211.53,272.78L212.49,275.73L212.91,278.68L212.92,275.73L214.05,278.68L214.51,284.58L214.88,281.63L214.9,284.58L215.42,275.73L215.46,281.63L216.01,284.58L216.05,287.53L216.94,284.58L218.1,281.63L218.11,284.58L220.07,278.68L220.35,275.73L222.68,272.78L223.79,275.73L225.36,272.78L225.83,269.83L228.11,263.92L228.12,266.87L228.96,258.02L230.77,255.07L231.05,246.21L231.57,243.26L232.62,237.36L232.67,240.31L234.89,219.65L234.96,222.6L234.97,225.55L235.12,216.7L235.7,219.65L235.81,216.7L237.09,213.75L237.23,210.8L237.5,219.65L237.5,222.6L237.67,240.31L237.94,234.41L238.43,231.46L239.47,281.63L239.7,278.68L239.88,275.73L239.89,272.78L240.48,281.63L240.57,278.68L240.76,275.73L241.68,284.58L241.69,281.63L241.69,278.68L242.42,290.49L242.66,287.53L242.66,290.49L242.86,278.68L243.4,287.53L243.64,284.58L243.79,287.53L243.94,284.58L244.62,281.63L244.66,278.68L245.46,281.63L245.95,275.73L246.58,272.78L247.43,266.87L247.43,269.83L248.29,263.92L248.29,266.87L249.73,258.02L250.67,260.97L254.26,258.02L254.35,255.07L254.61,252.12L254.91,255.07L256.48,252.12L257.41,246.21L257.76,243.26L258.14,240.31L259.71,237.36L260.14,228.5L260.35,237.36L260.35,240.31L261.55,225.55L263.59,222.6L263.66,216.7L264.67,213.75L266.29,207.84L266.33,210.8L266.34,231.46L266.96,219.65L267.24,216.7L267.24,219.65L267.38,216.7L269.49,213.75L271.16,210.8L271.35,207.84L273.08,204.89L273.08,207.84L273.09,204.89L273.09,207.84L274.03,204.89L274.22,201.94L274.89,204.89L275.83,216.7L276.03,219.65L277.56,216.7L278.07,219.65L279.43,213.75L280.12,210.8L280.12,213.75L280.91,210.8L281.02,204.89L282.15,207.84L282.71,243.26L285.23,240.31L285.71,243.26L286.1,240.31L286.12,243.26L288.9,240.31L289.59,246.21L289.63,243.26L289.73,240.31L289.99,243.26L290.67,246.21L290.84,240.31L290.84,243.26L293.17,240.31L293.18,237.36L293.96,234.41L295.95,231.46L296.47,228.5L296.62,219.65L296.67,234.41L297.02,228.5L297.47,231.46L297.94,237.36L298.16,234.41L298.41,231.46L299.2,269.83L299.43,266.87L300.39,258.02L301.01,255.07L302,240.31L302.95,237.36L303.93,231.46L304,228.5L305.43,216.7L305.45,213.75L305.76,193.09L307.93,190.14L309.82,187.18L309.82,184.23L313.16,187.18L313.23,184.23L314.48,181.28L314.89,178.33L316.88,166.52L316.88,163.57L317.01,157.67L317.4,219.65L317.71,216.7L318.14,213.75L318.16,222.6L318.41,219.65L318.56,216.7L319.57,201.94L319.69,204.89L322,201.94L322.49,198.99L322.78,201.94L323.73,198.99L324.11,201.94L325.26,198.99L326.69,201.94L326.72,210.8L327.36,207.84L328.06,210.8L328.49,228.5L328.91,231.46L329.04,228.5L329.34,237.36L329.54,234.41L329.92,237.36L330.47,234.41L331.29,225.55L332.16,222.6L332.38,216.7L333.02,213.75L333.86,219.65L334.26,216.7L334.27,219.65L334.97,216.7L335.24,219.65L335.24,225.55L335.8,222.6L337.11,219.65L337.32,213.75L337.75,222.6L337.77,222.6L337.77,225.55L338.41,219.65L338.62,216.7L339.4,210.8L339.41,213.75L342.45,210.8L342.83,213.75L344.19,210.8L344.63,207.84L344.64,210.8L345.38,213.75L345.66,210.8L345.74,216.7L346.48,213.75L347.58,204.89L347.58,207.84L348.01,201.94L348.57,198.99L349,204.89L349.02,198.99L349.54,201.94L349.54,198.99L350.13,201.94L350.84,198.99L350.98,201.94L351.65,198.99L352.79,193.09L352.8,190.14L352.85,196.04L353.62,193.09L353.67,190.14L354.48,187.18L355.57,184.23L355.67,181.28L356.36,169.48L356.72,166.52L356.84,169.48L358.53,166.52L358.81,163.57L359.87,160.62L360.02,187.18L360.13,187.18L361.58,184.23L362.5,181.28L362.51,184.23L364.32,181.28L364.33,184.23L364.74,181.28L367.14,178.33L367.14,181.28L367.8,181.28L368.39,178.33L369.14,166.52L369.2,169.48L370.37,166.52L370.47,160.62L370.9,178.33L371.27,175.38L371.49,178.33L372.44,175.38L373.26,163.57L373.47,160.62L374.05,175.38L374.15,166.52L374.34,163.57L375.04,181.28L375.27,178.33L376.1,207.84L376.17,204.89L376.88,222.6L377.25,219.65L378.03,222.6L380.44,219.65L381.05,210.8L381.07,213.75L381.31,216.7L384.82,213.75L384.83,216.7L385.54,210.8L386.43,213.75L387.54,210.8L388.45,207.84L388.45,210.8L390.27,207.84L390.41,201.94L391.42,204.89L391.96,196.04L391.97,193.09L391.98,184.23L395.68,187.18L396.75,175.38L398.83,172.43L399.32,166.52L399.32,169.48L399.33,172.43L401.39,166.52L401.83,163.57L404.57,157.67L404.76,154.72L405.32,151.77L405.32,154.72L405.49,157.67L406.08,172.43L406.21,169.48L406.81,166.52L406.85,169.48L407.17,154.72L407.57,151.77L407.75,142.91L407.95,151.77L407.95,154.72L407.96,160.62L408.58,148.82L408.71,145.86L408.99,142.91L409.09,151.77L409.11,154.72L409.16,151.77L409.81,163.57L409.86,160.62L409.94,157.67L409.95,169.48L410.57,166.52L410.83,163.57L411.54,160.62L411.56,157.67L411.98,175.38L412.46,169.48L412.49,166.52L412.88,148.82L413.07,181.28L413.37,178.33L413.8,160.62L413.95,172.43L413.95,175.38L414,181.28L414.56,172.43L414.6,175.38L415.19,172.43L415.33,181.28L415.89,166.52L415.97,163.57L416.03,166.52L416.4,148.82L416.4,145.86L416.44,137.01L416.57,187.18L416.88,175.38L417.28,172.43L417.7,166.52L417.8,172.43L417.93,175.38L418.58,169.48L418.84,172.43L419.35,181.28L419.53,175.38L419.63,178.33L419.97,172.43L420.35,187.18L420.47,184.23L420.48,190.14L420.78,175.38L420.94,187.18L421.34,184.23L422,198.99L422.58,196.04L422.92,198.99L423.3,190.14L423.31,187.18L423.55,175.38L424.27,178.33L424.41,193.09L424.71,172.43L424.87,178.33L425.04,181.28L425.25,178.33L425.42,187.18L426.57,184.23L426.7,190.14L426.86,184.23L427.52,181.28L427.67,184.23L427.85,178.33L428.19,175.38L428.22,184.23L428.62,178.33L429.31,175.38L429.82,172.43L429.82,175.38L429.82,178.33L430.34,172.43L430.34,169.48L430.35,166.52L430.39,178.33L430.52,169.48L431.36,166.52L431.59,157.67L431.71,169.48L431.79,172.43L432.5,196.04L432.75,190.14L432.76,187.18L433.11,184.23L433.11,190.14L433.11,193.09L433.12,198.99L433.59,190.14L433.71,196.04L433.93,193.09L434.17,196.04L434.42,184.23L434.54,187.18L434.56,184.23L435,204.89L435.3,190.14L435.36,187.18L435.36,184.23L435.38,204.89L436.07,190.14L436.21,187.18L436.35,193.09L436.68,178.33L436.95,181.28L437.48,207.84L437.64,204.89L438.06,207.84L438.49,193.09L438.78,196.04L439.02,193.09L439.03,196.04L439.46,190.14L439.47,190.14L440.56,187.18L441.16,181.28L441.16,184.23L441.95,181.28L442,178.33L442.03,201.94L442.43,198.99L442.97,201.94L443.08,204.89L443.24,190.14L443.24,187.18L443.65,181.28L443.7,187.18L443.9,190.14L443.93,187.18L444.64,207.84L444.64,204.89L444.93,207.84L445.24,198.99L445.51,204.89L445.82,207.84L446.18,210.8L446.51,198.99L446.51,201.94L446.9,198.99L447.98,190.14L448.31,193.09L448.33,190.14L448.47,201.94L448.89,201.94L449.18,198.99L449.2,201.94L449.46,196.04L449.71,201.94L450,198.99L450.31,210.8L450.56,204.89L450.87,207.84L451.53,201.94L451.53,204.89L451.77,201.94L451.94,193.09L451.95,204.89L452.13,198.99L452.83,201.94L452.83,198.99L453.36,210.8L453.76,207.84L454.06,204.89L454.07,210.8L454.35,207.84L454.63,204.89L455.3,201.94L455.3,204.89L455.46,207.84L455.47,204.89L455.61,219.65L456.15,216.7L456.21,213.75L456.29,210.8L456.87,219.65L456.89,216.7L456.99,219.65L457.7,204.89L457.7,216.7L457.7,219.65L457.72,216.7L457.84,222.6L458.42,219.65L458.67,216.7L458.67,222.6L459.42,219.65L459.53,222.6L459.55,228.5L460.24,222.6L461.06,219.65L461.19,222.6L461.84,219.65L461.99,213.75L462.04,228.5L462.07,228.5L462.08,231.46L462.77,219.65L462.78,228.5L462.78,231.46L463.46,225.55L463.49,228.5L463.57,231.46L463.89,222.6L463.89,225.55L464.44,222.6L464.44,225.55L465.17,213.75L465.18,216.7L465.44,219.65L465.76,225.55L465.98,216.7L466.58,213.75L466.86,219.65L466.87,216.7L467.81,213.75L467.87,216.7L468.41,210.8L468.42,213.75L468.56,210.8L469.52,201.94L469.52,204.89L469.64,207.84L469.93,201.94L470.83,204.89L471.45,201.94L471.75,213.75L471.78,210.8L472.48,219.65L472.73,216.7L472.73,213.75L472.73,216.7L473.45,201.94L473.46,213.75L473.5,210.8L474.41,207.84L474.41,210.8L474.97,204.89L474.98,201.94L475.75,219.65L475.82,222.6L476.55,213.75L476.57,222.6L476.57,225.55L476.57,222.6L477.09,231.46L477.85,228.5L478.24,231.46L478.27,228.5L478.92,225.55L479.46,231.46L480.23,228.5L480.66,222.6L481.06,225.55L481.14,228.5L481.5,222.6L481.5,225.55L481.56,228.5L481.59,231.46L481.61,225.55L482.28,228.5L482.3,225.55L482.33,228.5L482.7,219.65L482.76,222.6L483.44,225.55L483.57,219.65L484.05,225.55L484.91,222.6L485.76,219.65L485.76,222.6L485.8,225.55L486.35,219.65L486.36,225.55L487.22,222.6L487.34,216.7L487.35,225.55L487.49,219.65L488.32,222.6L488.9,210.8L489.22,207.84L489.73,210.8L489.91,207.84L489.91,204.89L490.54,193.09L490.55,210.8L490.64,207.84L490.89,204.89L491.17,201.94L491.17,207.84L491.17,210.8L491.76,207.84L492,210.8L492.11,207.84L492.42,216.7L493.07,219.65L493.54,213.75L493.66,219.65L493.66,222.6L493.66,219.65L494.05,228.5L494.34,228.5L494.49,225.55L495.1,222.6L495.18,225.55L495.2,228.5L495.4,219.65L495.54,222.6L496.18,219.65L497.02,228.5L497.06,225.55L497.3,228.5L497.73,222.6L497.99,225.55L498.32,216.7L498.41,222.6L499.18,219.65L499.56,225.55L499.99,210.8L500.54,207.84L500.68,222.6L501.27,213.75L501.83,210.8L502.58,204.89L502.98,207.84L502.98,210.8L503.93,207.84L504.62,201.94L504.63,213.75L504.67,210.8L504.75,207.84L505.16,210.8L505.47,207.84L506.86,204.89L508.01,193.09L508.12,196.04L508.12,198.99L508.12,201.94L508.29,193.09L508.33,193.09L510.53,196.04L510.92,190.14L510.95,210.8L511.22,210.8L511.23,213.75L512.06,204.89L512.07,207.84L512.34,210.8L513.05,193.09L513.05,198.99L513.1,196.04L513.75,204.89L513.79,198.99L513.88,196.04L513.88,198.99L514.33,193.09L514.76,190.14L514.89,193.09L515.05,187.18L515.05,193.09L516.94,190.14L516.95,193.09L518.72,190.14L520.26,175.38L520.31,172.43L520.32,169.48L520.32,178.33L520.77,175.38L521.11,172.43L522.62,166.52L522.86,163.57L522.86,166.52L523.34,157.67L524.49,154.72L525.14,142.91L525.14,139.96L525.14,142.91L525.73,125.2L525.83,125.2L526.09,122.25L526.09,125.2L526.54,110.45L526.83,110.45L526.94,107.5L526.94,110.45L527.68,101.59L527.77,104.54L528.52,89.79L530.81,86.83L532.07,66.17L533.01,63.22L534.7,57.32L536.5,54.37L537.09,42.56L537.43,39.61L538.67,24.85L538.83,21.9L540,16" style="vector-effect: none; fill: none; stroke: rgb(44, 160, 44); stroke-opacity: 1; stroke-width: 2px; opacity: 1;"/></g><g class="points"/><g class="text"/></g></g></g></g><g class="zerolinelayer-above"/><path class="xlines-above crisp" d="M0,0" style="fill: none;"/><path class="ylines-above crisp" d="M0,0" style="fill: none;"/><g class="overlines-above"/><g class="xaxislayer-above"><g class="xtick"><text text-anchor="middle" x="0" y="439" transform="translate(96.77,0)" style="font-family: 'Open Sans'; font-size: 18px; fill: rgb(0, 0, 0); fill-opacity: 1; white-space: pre;">2016</text></g><g class="xtick"><text text-anchor="middle" x="0" y="439" style="font-family: 'Open Sans'; font-size: 18px; fill: rgb(0, 0, 0); fill-opacity: 1; white-space: pre;" transform="translate(199.43,0)">2018</text></g><g class="xtick"><text text-anchor="middle" x="0" y="439" style="font-family: 'Open Sans'; font-size: 18px; fill: rgb(0, 0, 0); fill-opacity: 1; white-space: pre;" transform="translate(301.96000000000004,0)">2020</text></g><g class="xtick"><text text-anchor="middle" x="0" y="439" style="font-family: 'Open Sans'; font-size: 18px; fill: rgb(0, 0, 0); fill-opacity: 1; white-space: pre;" transform="translate(404.63,0)">2022</text></g><g class="xtick"><text text-anchor="middle" x="0" y="439" style="font-family: 'Open Sans'; font-size: 18px; fill: rgb(0, 0, 0); fill-opacity: 1; white-space: pre;" transform="translate(507.15,0)">2024</text></g><g class="xtick"><text text-anchor="middle" x="0" y="439" style="font-family: 'Open Sans'; font-size: 18px; fill: rgb(0, 0, 0); fill-opacity: 1; white-space: pre;" transform="translate(609.82,0)">2026</text></g></g><g class="yaxislayer-above"><g class="ytick"><text text-anchor="end" x="79" y="6.3" transform="translate(0,420)" style="font-family: 'Open Sans'; font-size: 18px; fill: rgb(0, 0, 0); fill-opacity: 1; white-space: pre;">0</text></g><g class="ytick"><text text-anchor="end" x="79" y="6.3" style="font-family: 'Open Sans'; font-size: 18px; fill: rgb(0, 0, 0); fill-opacity: 1; white-space: pre;" transform="translate(0,360.97)">20</text></g><g class="ytick"><text text-anchor="end" x="79" y="6.3" style="font-family: 'Open Sans'; font-size: 18px; fill: rgb(0, 0, 0); fill-opacity: 1; white-space: pre;" transform="translate(0,301.94)">40</text></g><g class="ytick"><text text-anchor="end" x="79" y="6.3" style="font-family: 'Open Sans'; font-size: 18px; fill: rgb(0, 0, 0); fill-opacity: 1; white-space: pre;" transform="translate(0,242.91)">60</text></g><g class="ytick"><text text-anchor="end" x="79" y="6.3" style="font-family: 'Open Sans'; font-size: 18px; fill: rgb(0, 0, 0); fill-opacity: 1; white-space: pre;" transform="translate(0,183.88)">80</text></g><g class="ytick"><text text-anchor="end" x="79" y="6.3" style="font-family: 'Open Sans'; font-size: 18px; fill: rgb(0, 0, 0); fill-opacity: 1; white-space: pre;" transform="translate(0,124.85)">100</text></g></g><g class="overaxes-above"/></g></g><g class="polarlayer"/><g class="smithlayer"/><g class="ternarylayer"/><g class="geolayer"/><g class="funnelarealayer"/><g class="pielayer"/><g class="iciclelayer"/><g class="treemaplayer"/><g class="sunburstlayer"/><g class="glimages"/><defs id="topdefs-d62ade"><g class="clips"/></defs><g class="layer-above"><g class="imagelayer"/><g class="shapelayer"/></g><g class="infolayer"><g class="g-gtitle"><text class="gtitle" x="35" y="50" text-anchor="start" dy="0em" style="opacity: 1; font-family: 'Open Sans'; font-size: 25px; fill: rgb(0, 0, 0); fill-opacity: 1; white-space: pre;">MultiQC/MultiQC - Open Pull Requests Over Time</text></g><g class="g-xtitle"><text class="xtitle" x="350" y="472.9" text-anchor="middle" style="opacity: 1; font-family: 'Open Sans'; font-size: 22px; fill: rgb(0, 0, 0); fill-opacity: 1; white-space: pre;">Date</text></g><g class="g-ytitle"><text class="ytitle" transform="rotate(-90,29.799999999999997,260)" x="29.799999999999997" y="260" text-anchor="middle" style="opacity: 1; font-family: 'Open Sans'; font-size: 22px; fill: rgb(0, 0, 0); fill-opacity: 1; white-space: pre;">Number of Open PRs</text></g></g></svg>