<svg class="main-svg" xmlns="http://www.w3.org/2000/svg" xmlns:xlink="http://www.w3.org/1999/xlink" width="700" height="500" style="" viewBox="0 0 700 500"><rect x="0" y="0" width="700" height="500" style="fill: rgb(0, 0, 0); fill-opacity: 0;"/><defs id="defs-f790ef"><g class="clips"><clipPath id="clipf790efxyplot" class="plotclip"><rect width="540" height="320"/></clipPath><clipPath class="axesclip" id="clipf790efx"><rect x="80" y="0" width="540" height="500"/></clipPath><clipPath class="axesclip" id="clipf790efy"><rect x="0" y="100" width="700" height="320"/></clipPath><clipPath class="axesclip" id="clipf790efxy"><rect x="80" y="100" width="540" height="320"/></clipPath></g><g class="gradients"/><g class="patterns"/></defs><g class="bglayer"><rect class="bg" x="80" y="100" width="540" height="320" style="fill: rgb(0, 0, 0); fill-opacity: 0; stroke-width: 0;"/></g><g class="layer-below"><g class="imagelayer"/><g class="shapelayer"/></g><g class="cartesianlayer"><g class="subplot xy"><g class="layer-subplot"><g class="shapelayer"/><g class="imagelayer"/></g><g class="minor-gridlayer"><g class="x"/><g class="y"/></g><g class="gridlayer"><g class="x"><path class="xgrid crisp" transform="translate(96.39,0)" d="M0,100v320" style="stroke: rgb(255, 255, 255); stroke-opacity: 1; stroke-width: 1px;"/><path class="xgrid crisp" transform="translate(196.76,0)" d="M0,100v320" style="stroke: rgb(255, 255, 255); stroke-opacity: 1; stroke-width: 1px;"/><path class="xgrid crisp" transform="translate(296.99,0)" d="M0,100v320" style="stroke: rgb(255, 255, 255); stroke-opacity: 1; stroke-width: 1px;"/><path class="xgrid crisp" transform="translate(397.35,0)" d="M0,100v320" style="stroke: rgb(255, 255, 255); stroke-opacity: 1; stroke-width: 1px;"/><path class="xgrid crisp" transform="translate(497.58,0)" d="M0,100v320" style="stroke: rgb(255, 255, 255); stroke-opacity: 1; stroke-width: 1px;"/><path class="xgrid crisp" transform="translate(597.94,0)" d="M0,100v320" style="stroke: rgb(255, 255, 255); stroke-opacity: 1; stroke-width: 1px;"/></g><g class="y"><path class="ygrid crisp" transform="translate(0,331.78)" d="M80,0h540" style="stroke: rgb(255, 255, 255); stroke-opacity: 1; stroke-width: 1px;"/><path class="ygrid crisp" transform="translate(0,243.56)" d="M80,0h540" style="stroke: rgb(255, 255, 255); stroke-opacity: 1; stroke-width: 1px;"/><path class="ygrid crisp" transform="translate(0,155.35)" d="M80,0h540" style="stroke: rgb(255, 255, 255); stroke-opacity: 1; stroke-width: 1px;"/></g></g><g class="zerolinelayer"><path class="yzl zl crisp" transform="translate(0,420)" d="M80,0h540" style="stroke: rgb(255, 255, 255); stroke-opacity: 1; stroke-width: 2px;"/></g><g class="layer-between"><g class="shapelayer"/><g class="imagelayer"/></g><path class="xlines-below"/><path class="ylines-below"/><g class="overlines-below"/><g class="xaxislayer-below"/><g class="yaxislayer-below"/><g class="overaxes-below"/><g class="overplot"><g class="xy" transform="translate(80,100)" clip-path="url(#clipf790efxyplot)"><g class="scatterlayer mlayer"><g class="trace scatter trace90f654" style="stroke-miterlimit: 2;"><g class="fills"><g><path class="js-fill" d="M540,320L0,320L0,319.82L3.42,318.59L3.7,318.41L5.61,317.35L5.91,317.18L14,315.77L21.14,315.59L21.33,315.41L22.89,315.24L22.9,315.06L25.79,314.88L42.28,310.47L42.3,310.3L42.32,309.94L43.23,309.77L43.79,309.41L45.01,309.24L56.91,308L57.98,307.83L65.06,305.71L65.11,305.53L65.89,304.65L66.71,304.47L68.1,303.77L72.47,303.59L76.46,302.71L77.62,302.53L82.37,300.94L82.38,300.77L92.86,299.18L93.2,299L94.19,298.12L94.19,297.95L94.86,295.65L95.25,295.48L95.68,295.12L96.24,294.95L97.87,293.71L98.01,293.53L98.58,292.65L99.52,292.48L100.63,291.24L100.74,291.06L101.47,290.36L102.39,290.18L105.52,288.42L105.52,288.24L106,287.71L107.23,287.54L107.36,287.36L109.28,287.18L109.29,287.01L110.36,286.83L118.05,285.42L118.06,285.24L120.16,284.54L121.76,284.36L125.62,283.3L125.89,283.12L126.49,282.42L126.74,282.24L130.53,280.83L130.54,280.65L132.21,279.6L132.21,279.42L132.34,279.24L133.58,279.07L133.69,278.89L135.09,278.71L135.61,278.36L137,278.18L137.3,277.83L138.94,277.66L148.14,274.66L149.67,274.48L175.36,270.6L175.37,270.42L176,269.36L177.49,269.19L177.81,268.48L179.41,268.3L179.9,267.77L182.03,267.6L206.4,264.42L206.48,264.25L206.79,263.54L208.15,263.36L212.08,262.31L213.21,262.13L225.59,259.66L225.63,259.48L226.38,258.95L226.65,258.78L229.39,257.37L229.4,257.19L230.53,255.95L231.77,255.78L233.7,254.54L234.33,254.37L235.59,253.48L236.27,253.31L236.27,253.13L237.22,252.95L238.18,251.37L238.32,251.19L239.17,250.66L239.98,250.48L244.14,248.9L248.56,248.72L248.9,248.37L250.73,248.19L254.41,246.6L254.69,246.43L255.69,245.54L257.68,245.37L257.74,245.01L258.74,244.84L263.45,243.25L265.09,243.07L265.27,242.9L266.96,242.72L266.96,242.54L267.89,242.37L268.07,242.19L269.4,242.02L274.72,240.78L275.88,240.6L276.37,240.07L278.84,239.9L289.97,237.25L290.35,237.07L290.36,236.9L291.47,236.72L292.31,235.31L292.33,235.13L294.63,233.37L294.67,233.19L298.49,231.43L298.58,231.25L298.91,229.84L301.03,229.66L309.13,228.25L309.77,228.08L309.94,227.37L310.59,227.19L312.41,225.61L314.78,225.43L315.26,225.08L316.47,224.9L324.72,223.31L324.74,223.14L325.55,222.78L326.77,222.61L331.71,220.84L331.79,220.67L338.94,219.61L338.95,219.43L343.76,217.67L344.3,217.49L354.37,213.61L356.16,213.43L359.06,212.9L360.14,212.73L360.86,212.02L362.07,211.84L362.94,211.32L364.09,211.14L364.89,210.26L365.1,210.08L366.86,208.32L367.25,208.14L368.28,207.08L368.79,206.9L383.17,203.55L383.18,203.38L383.19,202.67L387.03,202.49L387.85,201.96L389.89,201.79L394.04,200.73L395.5,200.55L398.71,197.55L398.8,197.38L401.62,192.08L402.27,191.91L404.64,185.2L405.04,185.03L407.07,181.5L407.09,181.32L407.93,179.03L408.03,178.85L410.56,176.56L410.56,176.38L411.21,175.5L411.23,175.32L412.18,173.38L413.11,173.2L413.83,171.97L413.83,171.79L414.06,171.44L414.9,171.26L415.87,167.21L417,167.03L417.29,166.5L417.93,166.32L420.8,163.85L420.82,163.68L420.87,163.32L421.69,163.15L423.41,159.8L423.41,159.62L424.3,155.56L424.52,155.38L426.89,146.39L427.16,146.21L427.83,145.68L428.25,145.5L428.94,143.39L429.18,143.21L429.61,142.68L430.69,142.5L432.22,140.39L432.32,140.21L433.15,139.51L433.19,139.33L436.45,131.21L436.45,131.04L436.89,130.15L437.32,129.98L438.28,129.1L438.28,128.92L439.12,127.15L439.23,126.98L441,124.16L441.01,123.98L441.7,121.51L441.8,121.33L441.99,120.27L442.68,120.1L443.64,117.98L443.76,117.8L444.44,116.57L444.7,116.39L445.44,114.45L445.66,114.28L446.06,112.86L446.5,112.69L448.02,109.86L448.09,109.69L449.92,104.22L450.73,104.04L451.64,103.16L451.69,102.98L452.39,100.87L452.52,100.69L454.2,95.93L454.57,95.75L455.32,92.57L455.44,92.4L456.12,91.87L456.37,91.69L456.41,90.99L457.33,90.81L458.05,89.93L458.55,89.75L459.4,88.16L460.52,87.99L461.44,86.75L461.47,86.57L461.9,85.69L461.9,85.52L462.55,84.28L462.68,84.1L465.76,80.05L465.76,79.87L466.31,78.28L467.14,78.11L470.69,76.34L470.71,76.16L472.91,71.93L474.04,71.75L474.92,70.87L475.34,70.7L476.56,69.28L477.38,69.11L480.16,66.64L480.74,66.46L484.23,63.64L484.24,63.46L485.06,62.58L485.2,62.4L490.58,56.58L491.16,56.4L491.31,56.23L492.64,56.05L493.44,53.05L493.61,52.88L495.81,51.99L496.44,51.82L496.93,50.76L499.09,50.58L499.76,48.46L499.87,48.29L500.58,47.76L500.85,47.58L501.69,45.99L501.79,45.82L502.38,44.41L502.8,44.23L505.36,43.17L507.09,42.99L508.65,41.58L508.69,41.41L509.42,40.88L510.38,40.7L513.36,38.94L513.37,38.76L514.04,37.35L514.3,37.17L515.13,34.35L515.32,34.17L516.4,32.94L516.55,32.76L516.67,32.23L518.91,32.06L520.14,30.29L521.06,30.11L525.38,28.7L525.69,28.53L526.01,28L526.55,27.82L527,27.12L527.63,26.94L529.87,25.7L531.09,25.53L531.76,25L532.47,24.82L535.38,23.41L535.38,23.23L535.92,22.35L535.92,22.18L536.33,18.29L536.89,18.12L537.28,16.35L538.14,16.18L540,16" style="fill: rgb(44, 160, 44); fill-opacity: 0.5; stroke-width: 0;"/></g></g><g class="errorbars"/><g class="lines"><path class="js-line" d="M0,319.82L3.42,318.59L3.7,318.41L5.61,317.35L5.91,317.18L14,315.77L21.14,315.59L21.33,315.41L22.89,315.24L22.9,315.06L25.79,314.88L42.28,310.47L42.3,310.3L42.32,309.94L43.23,309.77L43.79,309.41L45.01,309.24L56.91,308L57.98,307.83L65.06,305.71L65.11,305.53L65.89,304.65L66.71,304.47L68.1,303.77L72.47,303.59L76.46,302.71L77.62,302.53L82.37,300.94L82.38,300.77L92.86,299.18L93.2,299L94.19,298.12L94.19,297.95L94.86,295.65L95.25,295.48L95.68,295.12L96.24,294.95L97.87,293.71L98.01,293.53L98.58,292.65L99.52,292.48L100.63,291.24L100.74,291.06L101.47,290.36L102.39,290.18L105.52,288.42L105.52,288.24L106,287.71L107.23,287.54L107.36,287.36L109.28,287.18L109.29,287.01L110.36,286.83L118.05,285.42L118.06,285.24L120.16,284.54L121.76,284.36L125.62,283.3L125.89,283.12L126.49,282.42L126.74,282.24L130.53,280.83L130.54,280.65L132.21,279.6L132.21,279.42L132.34,279.24L133.58,279.07L133.69,278.89L135.09,278.71L135.61,278.36L137,278.18L137.3,277.83L138.94,277.66L148.14,274.66L149.67,274.48L175.36,270.6L175.37,270.42L176,269.36L177.49,269.19L177.81,268.48L179.41,268.3L179.9,267.77L182.03,267.6L206.4,264.42L206.48,264.25L206.79,263.54L208.15,263.36L212.08,262.31L213.21,262.13L225.59,259.66L225.63,259.48L226.38,258.95L226.65,258.78L229.39,257.37L229.4,257.19L230.53,255.95L231.77,255.78L233.7,254.54L234.33,254.37L235.59,253.48L236.27,253.31L236.27,253.13L237.22,252.95L238.18,251.37L238.32,251.19L239.17,250.66L239.98,250.48L244.14,248.9L248.56,248.72L248.9,248.37L250.73,248.19L254.41,246.6L254.69,246.43L255.69,245.54L257.68,245.37L257.74,245.01L258.74,244.84L263.45,243.25L265.09,243.07L265.27,242.9L266.96,242.72L266.96,242.54L267.89,242.37L268.07,242.19L269.4,242.02L274.72,240.78L275.88,240.6L276.37,240.07L278.84,239.9L289.97,237.25L290.35,237.07L290.36,236.9L291.47,236.72L292.31,235.31L292.33,235.13L294.63,233.37L294.67,233.19L298.49,231.43L298.58,231.25L298.91,229.84L301.03,229.66L309.13,228.25L309.77,228.08L309.94,227.37L310.59,227.19L312.41,225.61L314.78,225.43L315.26,225.08L316.47,224.9L324.72,223.31L324.74,223.14L325.55,222.78L326.77,222.61L331.71,220.84L331.79,220.67L338.94,219.61L338.95,219.43L343.76,217.67L344.3,217.49L354.37,213.61L356.16,213.43L359.06,212.9L360.14,212.73L360.86,212.02L362.07,211.84L362.94,211.32L364.09,211.14L364.89,210.26L365.1,210.08L366.86,208.32L367.25,208.14L368.28,207.08L368.79,206.9L383.17,203.55L383.18,203.38L383.19,202.67L387.03,202.49L387.85,201.96L389.89,201.79L394.04,200.73L395.5,200.55L398.71,197.55L398.8,197.38L401.62,192.08L402.27,191.91L404.64,185.2L405.04,185.03L407.07,181.5L407.09,181.32L407.93,179.03L408.03,178.85L410.56,176.56L410.56,176.38L411.21,175.5L411.23,175.32L412.18,173.38L413.11,173.2L413.83,171.97L413.83,171.79L414.06,171.44L414.9,171.26L415.87,167.21L417,167.03L417.29,166.5L417.93,166.32L420.8,163.85L420.82,163.68L420.87,163.32L421.69,163.15L423.41,159.8L423.41,159.62L424.3,155.56L424.52,155.38L426.89,146.39L427.16,146.21L427.83,145.68L428.25,145.5L428.94,143.39L429.18,143.21L429.61,142.68L430.69,142.5L432.22,140.39L432.32,140.21L433.15,139.51L433.19,139.33L436.45,131.21L436.45,131.04L436.89,130.15L437.32,129.98L438.28,129.1L438.28,128.92L439.12,127.15L439.23,126.98L441,124.16L441.01,123.98L441.7,121.51L441.8,121.33L441.99,120.27L442.68,120.1L443.64,117.98L443.76,117.8L444.44,116.57L444.7,116.39L445.44,114.45L445.66,114.28L446.06,112.86L446.5,112.69L448.02,109.86L448.09,109.69L449.92,104.22L450.73,104.04L451.64,103.16L451.69,102.98L452.39,100.87L452.52,100.69L454.2,95.93L454.57,95.75L455.32,92.57L455.44,92.4L456.12,91.87L456.37,91.69L456.41,90.99L457.33,90.81L458.05,89.93L458.55,89.75L459.4,88.16L460.52,87.99L461.44,86.75L461.47,86.57L461.9,85.69L461.9,85.52L462.55,84.28L462.68,84.1L465.76,80.05L465.76,79.87L466.31,78.28L467.14,78.11L470.69,76.34L470.71,76.16L472.91,71.93L474.04,71.75L474.92,70.87L475.34,70.7L476.56,69.28L477.38,69.11L480.16,66.64L480.74,66.46L484.23,63.64L484.24,63.46L485.06,62.58L485.2,62.4L490.58,56.58L491.16,56.4L491.31,56.23L492.64,56.05L493.44,53.05L493.61,52.88L495.81,51.99L496.44,51.82L496.93,50.76L499.09,50.58L499.76,48.46L499.87,48.29L500.58,47.76L500.85,47.58L501.69,45.99L501.79,45.82L502.38,44.41L502.8,44.23L505.36,43.17L507.09,42.99L508.65,41.58L508.69,41.41L509.42,40.88L510.38,40.7L513.36,38.94L513.37,38.76L514.04,37.35L514.3,37.17L515.13,34.35L515.32,34.17L516.4,32.94L516.55,32.76L516.67,32.23L518.91,32.06L520.14,30.29L521.06,30.11L525.38,28.7L525.69,28.53L526.01,28L526.55,27.82L527,27.12L527.63,26.94L529.87,25.7L531.09,25.53L531.76,25L532.47,24.82L535.38,23.41L535.38,23.23L535.92,22.35L535.92,22.18L536.33,18.29L536.89,18.12L537.28,16.35L538.14,16.18L540,16" style="vector-effect: none; fill: none; stroke: rgb(44, 160, 44); stroke-opacity: 1; stroke-width: 2px; opacity: 1;"/></g><g class="points"/><g class="text"/></g></g></g></g><g class="zerolinelayer-above"/><path class="xlines-above crisp" d="M0,0" style="fill: none;"/><path class="ylines-above crisp" d="M0,0" style="fill: none;"/><g class="overlines-above"/><g class="xaxislayer-above"><g class="xtick"><text text-anchor="middle" x="0" y="439" transform="translate(96.39,0)" style="font-family: 'Open Sans'; font-size: 18px; fill: rgb(0, 0, 0); fill-opacity: 1; white-space: pre;">2016</text></g><g class="xtick"><text text-anchor="middle" x="0" y="439" style="font-family: 'Open Sans'; font-size: 18px; fill: rgb(0, 0, 0); fill-opacity: 1; white-space: pre;" transform="translate(196.76,0)">2018</text></g><g class="xtick"><text text-anchor="middle" x="0" y="439" style="font-family: 'Open Sans'; font-size: 18px; fill: rgb(0, 0, 0); fill-opacity: 1; white-space: pre;" transform="translate(296.99,0)">2020</text></g><g class="xtick"><text text-anchor="middle" x="0" y="439" style="font-family: 'Open Sans'; font-size: 18px; fill: rgb(0, 0, 0); fill-opacity: 1; white-space: pre;" transform="translate(397.35,0)">2022</text></g><g class="xtick"><text text-anchor="middle" x="0" y="439" style="font-family: 'Open Sans'; font-size: 18px; fill: rgb(0, 0, 0); fill-opacity: 1; white-space: pre;" transform="translate(497.58,0)">2024</text></g><g class="xtick"><text text-anchor="middle" x="0" y="439" style="font-family: 'Open Sans'; font-size: 18px; fill: rgb(0, 0, 0); fill-opacity: 1; white-space: pre;" transform="translate(597.94,0)">2026</text></g></g><g class="yaxislayer-above"><g class="ytick"><text text-anchor="end" x="79" y="6.3" transform="translate(0,420)" style="font-family: 'Open Sans'; font-size: 18px; fill: rgb(0, 0, 0); fill-opacity: 1; white-space: pre;">0</text></g><g class="ytick"><text text-anchor="end" x="79" y="6.3" style="font-family: 'Open Sans'; font-size: 18px; fill: rgb(0, 0, 0); fill-opacity: 1; white-space: pre;" transform="translate(0,331.78)">500</text></g><g class="ytick"><text text-anchor="end" x="79" y="6.3" style="font-family: 'Open Sans'; font-size: 18px; fill: rgb(0, 0, 0); fill-opacity: 1; white-space: pre;" transform="translate(0,243.56)">1000</text></g><g class="ytick"><text text-anchor="end" x="79" y="6.3" style="font-family: 'Open Sans'; font-size: 18px; fill: rgb(0, 0, 0); fill-opacity: 1; white-space: pre;" transform="translate(0,155.35)">1500</text></g></g><g class="overaxes-above"/></g></g><g class="polarlayer"/><g class="smithlayer"/><g class="ternarylayer"/><g class="geolayer"/><g class="funnelarealayer"/><g class="pielayer"/><g class="iciclelayer"/><g class="treemaplayer"/><g class="sunburstlayer"/><g class="glimages"/><defs id="topdefs-f790ef"><g class="clips"/></defs><g class="layer-above"><g class="imagelayer"/><g class="shapelayer"/></g><g class="infolayer"><g class="g-gtitle"><text class="gtitle" x="35" y="50" text-anchor="start" dy="0em" style="opacity: 1; font-family: 'Open Sans'; font-size: 25px; fill: rgb(0, 0, 0); fill-opacity: 1; white-space: pre;">MultiQC/MultiQC - Pull Requests Created Over Time</text></g><g class="g-xtitle"><text class="xtitle" x="350" y="472.9" text-anchor="middle" style="opacity: 1; font-family: 'Open Sans'; font-size: 22px; fill: rgb(0, 0, 0); fill-opacity: 1; white-space: pre;">Date</text></g><g class="g-ytitle"><text class="ytitle" transform="rotate(-90,20.799999999999997,260)" x="20.799999999999997" y="260" text-anchor="middle" style="opacity: 1; font-family: 'Open Sans'; font-size: 22px; fill: rgb(0, 0, 0); fill-opacity: 1; white-space: pre;">Cumulative PRs Created</text></g></g></svg>