<svg class="main-svg" xmlns="http://www.w3.org/2000/svg" xmlns:xlink="http://www.w3.org/1999/xlink" width="700" height="500" style="" viewBox="0 0 700 500"><rect x="0" y="0" width="700" height="500" style="fill: rgb(0, 0, 0); fill-opacity: 0;"/><defs id="defs-0c2660"><g class="clips"><clipPath id="clip0c2660xyplot" class="plotclip"><rect width="540" height="320"/></clipPath><clipPath class="axesclip" id="clip0c2660x"><rect x="80" y="0" width="540" height="500"/></clipPath><clipPath class="axesclip" id="clip0c2660y"><rect x="0" y="100" width="700" height="320"/></clipPath><clipPath class="axesclip" id="clip0c2660xy"><rect x="80" y="100" width="540" height="320"/></clipPath></g><g class="gradients"/><g class="patterns"/></defs><g class="bglayer"><rect class="bg" x="80" y="100" width="540" height="320" style="fill: rgb(0, 0, 0); fill-opacity: 0; stroke-width: 0;"/></g><g class="layer-below"><g class="imagelayer"/><g class="shapelayer"/></g><g class="cartesianlayer"><g class="subplot xy"><g class="layer-subplot"><g class="shapelayer"/><g class="imagelayer"/></g><g class="minor-gridlayer"><g class="x"/><g class="y"/></g><g class="gridlayer"><g class="x"><path class="xgrid crisp" transform="translate(97.38,0)" d="M0,100v320" style="stroke: rgb(255, 255, 255); stroke-opacity: 1; stroke-width: 1px;"/><path class="xgrid crisp" transform="translate(203.76999999999998,0)" d="M0,100v320" style="stroke: rgb(255, 255, 255); stroke-opacity: 1; stroke-width: 1px;"/><path class="xgrid crisp" transform="translate(310.01,0)" d="M0,100v320" style="stroke: rgb(255, 255, 255); stroke-opacity: 1; stroke-width: 1px;"/><path class="xgrid crisp" transform="translate(416.4,0)" d="M0,100v320" style="stroke: rgb(255, 255, 255); stroke-opacity: 1; stroke-width: 1px;"/><path class="xgrid crisp" transform="translate(522.64,0)" d="M0,100v320" style="stroke: rgb(255, 255, 255); stroke-opacity: 1; stroke-width: 1px;"/></g><g class="y"><path class="ygrid crisp" transform="translate(0,370.97)" d="M80,0h540" style="stroke: rgb(255, 255, 255); stroke-opacity: 1; stroke-width: 1px;"/><path class="ygrid crisp" transform="translate(0,321.94)" d="M80,0h540" style="stroke: rgb(255, 255, 255); stroke-opacity: 1; stroke-width: 1px;"/><path class="ygrid crisp" transform="translate(0,272.9)" d="M80,0h540" style="stroke: rgb(255, 255, 255); stroke-opacity: 1; stroke-width: 1px;"/><path class="ygrid crisp" transform="translate(0,223.87)" d="M80,0h540" style="stroke: rgb(255, 255, 255); stroke-opacity: 1; stroke-width: 1px;"/><path class="ygrid crisp" transform="translate(0,174.84)" d="M80,0h540" style="stroke: rgb(255, 255, 255); stroke-opacity: 1; stroke-width: 1px;"/><path class="ygrid crisp" transform="translate(0,125.81)" d="M80,0h540" style="stroke: rgb(255, 255, 255); stroke-opacity: 1; stroke-width: 1px;"/></g></g><g class="zerolinelayer"><path class="yzl zl crisp" transform="translate(0,420)" d="M80,0h540" style="stroke: rgb(255, 255, 255); stroke-opacity: 1; stroke-width: 2px;"/></g><g class="layer-between"><g class="shapelayer"/><g class="imagelayer"/></g><path class="xlines-below"/><path class="ylines-below"/><g class="overlines-below"/><g class="xaxislayer-below"/><g class="yaxislayer-below"/><g class="overaxes-below"/><g class="overplot"><g class="xy" transform="translate(80,100)" clip-path="url(#clip0c2660xyplot)"><g class="scatterlayer mlayer"><g class="trace scatter trace3d8e2f" style="stroke-miterlimit: 2;"><g class="fills"><g><path class="js-fill" d="M540,320L0,320L0,315.1L0.1,320L1.06,315.1L1.76,320L1.87,315.1L1.87,320L3.16,315.1L3.63,320L3.92,315.1L3.93,320L4.81,315.1L4.81,320L4.91,320L5.66,315.1L5.66,320L6.27,320L7.13,315.1L7.13,320L7.72,320L9.29,315.1L9.29,320L9.95,315.1L10.17,320L11.93,315.1L11.93,320L14.84,315.1L14.84,320L22.41,315.1L22.41,320L22.61,315.1L22.61,320L24.27,315.1L24.27,310.19L24.42,315.1L25.59,320L27.33,315.1L27.33,320L28.23,310.19L28.23,315.1L28.68,310.19L28.68,315.1L28.68,320L31.59,315.1L31.59,320L31.73,315.1L31.73,320L33.01,315.1L33.01,320L33.62,320L34.53,315.1L34.54,320L35.33,315.1L35.33,320L35.85,320L36.1,315.1L36.19,320L37.42,315.1L38.86,310.19L39.3,315.1L39.42,310.19L39.43,315.1L40.75,320L41.5,315.1L41.5,320L43.25,315.1L43.25,320L44.36,315.1L44.36,320L44.86,300.39L44.97,305.29L45.52,310.19L45.96,315.1L46.42,310.19L46.43,315.1L47.71,310.19L51.66,305.29L51.66,310.19L51.96,315.1L52.78,310.19L53.71,320L55.16,315.1L55.16,320L55.56,320L58.79,315.1L58.79,320L58.79,315.1L60.32,310.19L60.66,315.1L61.46,310.19L62.26,305.29L62.29,310.19L62.29,305.29L62.88,320L64.77,315.1L65.07,320L65.77,315.1L65.92,310.19L66.92,315.1L67.1,305.29L67.23,310.19L68.08,315.1L68.4,310.19L68.4,315.1L68.96,310.19L69.04,300.39L69.15,320L69.24,320L69.84,315.1L70.71,310.19L70.72,315.1L71.46,305.29L71.47,310.19L72.19,305.29L76.82,300.39L77.3,295.48L79.03,320L80.05,315.1L80.05,320L81.05,315.1L82.28,310.19L82.33,315.1L83.27,310.19L83.43,305.29L84.37,295.48L84.37,300.39L84.39,305.29L85.56,295.48L85.58,300.39L86.43,295.48L86.43,300.39L86.73,305.29L87.32,300.39L87.32,305.29L87.32,300.39L89.18,305.29L89.36,300.39L89.36,305.29L90.28,300.39L90.52,305.29L91.26,300.39L91.73,295.48L92.52,300.39L93.26,295.48L93.55,300.39L95.88,295.48L95.88,300.39L96.48,295.48L96.5,300.39L97.92,305.29L98.44,300.39L98.65,305.29L98.79,300.39L98.8,305.29L99.83,300.39L99.85,270.97L100.56,290.58L100.56,295.48L100.85,305.29L101.03,300.39L101.42,295.48L102.02,290.58L102.57,295.48L103.21,285.68L103.47,280.77L103.77,295.48L104.05,280.77L104.37,275.87L104.5,290.58L104.5,285.68L105.49,290.58L105.93,275.87L105.93,275.87L106.48,280.77L107.56,256.26L108.54,251.35L109.58,256.26L109.88,251.35L110.01,261.16L110.61,261.16L110.74,256.26L111.05,275.87L111.18,270.97L111.85,266.06L112.36,246.45L112.37,251.35L112.76,256.26L112.8,261.16L113.67,256.26L113.8,251.35L113.81,256.26L115.14,261.16L115.25,280.77L115.84,275.87L115.85,270.97L115.86,280.77L116.99,275.87L116.99,280.77L119.19,275.87L119.2,270.97L119.2,280.77L121.23,275.87L121.25,280.77L121.25,275.87L122.34,280.77L122.39,275.87L124.28,270.97L125.14,280.77L125.15,275.87L125.3,280.77L125.47,275.87L125.47,280.77L126.32,275.87L126.65,280.77L127.37,275.87L127.4,280.77L129.07,275.87L129.1,280.77L130.99,275.87L131.09,280.77L131.5,275.87L131.99,270.97L132.12,275.87L133.03,270.97L133.03,275.87L133.45,256.26L133.59,256.26L133.99,251.35L134.35,275.87L134.35,275.87L135.36,270.97L135.47,280.77L135.66,280.77L136.37,275.87L137.37,270.97L137.49,266.06L138.07,270.97L138.26,266.06L139.11,251.35L139.14,256.26L140.15,241.55L140.15,236.65L140.15,231.74L140.3,261.16L141.6,256.26L141.72,251.35L141.73,256.26L143.2,251.35L143.98,270.97L145.23,266.06L145.64,270.97L147.28,266.06L148.39,261.16L148.39,266.06L149.75,251.35L149.75,256.26L150.01,261.16L150.04,266.06L150.45,256.26L150.45,261.16L150.78,256.26L150.78,261.16L151.8,266.06L151.98,275.87L152.7,270.97L152.79,266.06L154.44,261.16L154.98,246.45L154.99,251.35L155,256.26L155.05,270.97L156.89,266.06L156.99,270.97L157.03,266.06L158.66,261.16L158.67,266.06L160.06,261.16L160.06,266.06L160.5,261.16L160.96,256.26L161.67,251.35L161.7,256.26L164.62,261.16L167.73,251.35L168.48,246.45L169.27,251.35L170,246.45L170.01,251.35L172.74,246.45L173.21,251.35L173.83,246.45L175.08,241.55L175.33,246.45L175.33,241.55L175.37,280.77L175.37,275.87L177.82,270.97L177.83,275.87L180.22,280.77L181.35,275.87L181.35,280.77L181.99,275.87L182.02,280.77L184.28,275.87L184.44,270.97L185.86,275.87L185.87,280.77L186.48,241.55L186.56,246.45L186.56,241.55L186.59,261.16L188.15,256.26L188.49,241.55L190.18,236.65L190.7,231.74L190.71,236.65L192.96,231.74L193.45,236.65L194.81,231.74L195.12,236.65L195.42,231.74L197.66,226.84L200.71,221.94L200.82,226.84L201.74,221.94L202.45,226.84L202.49,217.03L202.72,221.94L203.62,226.84L203.89,246.45L204.73,251.35L204.81,256.26L204.91,246.45L208.42,241.55L209,246.45L209.7,241.55L209.85,236.65L212.04,231.74L215.07,226.84L216.69,221.94L216.71,217.03L218.06,212.13L218.86,217.03L218.88,212.13L219.19,246.45L219.2,241.55L220.2,246.45L220.63,251.35L220.64,246.45L221.82,251.35L222.29,261.16L222.67,256.26L222.69,261.16L223.23,246.45L223.27,256.26L223.85,261.16L223.88,266.06L224.81,261.16L226.01,256.26L226.02,261.16L228.05,251.35L228.34,246.45L230.76,241.55L231.91,246.45L233.53,241.55L234.02,236.65L236.38,226.84L236.39,231.74L237.26,217.03L239.13,212.13L239.43,197.42L239.96,192.52L241.06,182.71L241.11,187.61L243.4,153.29L243.48,158.19L243.49,163.1L243.65,148.39L244.07,158.19L244.25,153.29L244.36,148.39L245.68,143.48L245.84,138.58L246.11,153.29L246.11,158.19L246.29,187.61L246.57,177.81L247.08,172.9L248.15,256.26L248.39,251.35L248.58,246.45L248.59,241.55L249.2,256.26L249.3,251.35L249.49,246.45L250.44,261.16L250.45,256.26L250.45,251.35L250.89,266.06L251.21,270.97L251.63,256.26L251.66,251.35L252.23,266.06L252.48,261.16L252.48,266.06L252.79,261.16L253.49,256.26L253.53,251.35L254.36,256.26L254.87,246.45L255.52,241.55L256.41,231.74L256.41,236.65L256.47,231.74L257.29,226.84L257.29,231.74L257.89,226.84L258.68,221.94L258.79,217.03L259.76,221.94L263.48,217.03L263.58,212.13L263.84,207.23L264.15,212.13L265.78,207.23L266.74,197.42L267.1,192.52L267.5,187.61L269.12,182.71L269.58,168L269.79,182.71L269.79,187.61L271.03,163.1L273.15,158.19L273.21,148.39L274.27,143.48L275.95,133.68L275.98,138.58L276,172.9L276.64,153.29L276.93,148.39L276.93,153.29L277.08,148.39L279.26,143.48L281,138.58L281.19,133.68L282.98,128.77L282.98,133.68L282.99,128.77L282.99,133.68L283.97,128.77L284.16,123.87L284.85,128.77L285.83,148.39L286.04,153.29L287.62,148.39L288.16,153.29L289.56,143.48L290.28,138.58L290.28,143.48L291.1,138.58L291.2,128.77L292.38,133.68L292.96,192.52L295.58,187.61L296.07,192.52L296.47,187.61L296.49,192.52L299.37,187.61L300.09,197.42L300.13,192.52L300.24,187.61L300.24,192.52L300.5,192.52L301.21,197.42L301.39,187.61L301.39,192.52L303.79,187.61L303.81,182.71L304.61,177.81L306.68,172.9L307.22,168L307.38,153.29L307.43,177.81L307.79,168L308.26,172.9L308.74,182.71L308.97,177.81L309.23,172.9L310.05,236.65L310.28,231.74L311.28,217.03L311.92,212.13L312.95,187.61L313.93,182.71L314.85,177.81L314.95,172.9L315.82,158.19L315.86,163.1L316.85,109.16L319.09,104.26L321.05,99.35L321.05,94.45L324.51,99.35L324.59,94.45L325.88,89.55L326.31,84.65L328.36,65.03L328.36,60.13L328.5,50.32L328.91,153.29L329.23,148.39L329.68,143.48L329.7,158.19L329.95,153.29L330.11,148.39L331.16,123.87L331.28,128.77L333.68,123.87L334.19,118.97L334.49,123.87L335.46,118.97L335.86,123.87L337.05,118.97L338.53,123.87L338.56,138.58L339.23,133.68L339.96,138.58L340.4,168L340.83,172.9L340.97,168L341.28,182.71L341.49,177.81L341.88,182.71L342.46,177.81L343.3,163.1L344.21,158.19L344.44,148.39L345.09,143.48L345.97,153.29L346.38,148.39L346.39,153.29L347.11,148.39L347.39,153.29L347.39,163.1L347.97,158.19L349.34,153.29L349.55,143.48L350,158.19L350.02,158.19L350.02,163.1L350.68,153.29L350.9,148.39L351.71,138.58L351.72,143.48L354.87,138.58L355.26,143.48L356.67,138.58L357.13,133.68L357.13,138.58L357.91,143.48L358.2,138.58L358.28,148.39L359.05,143.48L360.18,128.77L360.18,133.68L360.63,123.87L361.21,118.97L361.65,128.77L361.67,118.97L362.21,123.87L362.81,118.97L362.82,123.87L363.56,118.97L363.7,123.87L364.4,118.97L364.97,114.06L365.18,118.97L365.59,104.26L365.64,114.06L366.44,109.16L366.49,104.26L367.33,99.35L368.46,94.45L368.56,89.55L369.29,69.94L369.66,65.03L369.78,69.94L371.53,65.03L371.82,60.13L372.91,55.23L373.07,99.35L373.19,99.35L374.69,94.45L375.64,89.55L375.65,94.45L377.53,89.55L377.54,94.45L377.97,89.55L380.45,84.65L380.45,89.55L381.14,89.55L381.75,84.65L382.52,65.03L382.59,69.94L383.8,65.03L383.9,55.23L384.35,79.74L384.35,84.65L384.73,79.74L384.96,84.65L385.95,79.74L386.79,60.13L387.01,55.23L387.61,79.74L387.72,65.03L387.91,60.13L388.64,89.55L388.88,84.65L389.53,128.77L389.66,123.87L389.74,128.77L389.74,133.68L390.38,133.68L390.51,138.58L390.54,158.19L390.92,153.29L391.69,158.19L391.7,153.29L391.74,158.19L394.24,153.29L394.86,138.58L394.89,143.48L395.14,148.39L398.77,143.48L398.79,148.39L399.52,138.58L400.44,143.48L401.59,138.58L402.53,133.68L402.53,138.58L404.42,133.68L404.57,123.87L405.61,128.77L406.17,118.97L406.18,114.06L406.19,94.45L410.03,99.35L411.13,79.74L413.29,74.84L413.8,65.03L413.8,69.94L413.8,74.84L415.94,65.03L416.4,60.13L419.24,50.32L419.43,45.42L420.02,40.52L420.02,45.42L420.2,50.32L420.81,74.84L420.94,69.94L421.56,65.03L421.61,69.94L421.93,45.42L422.35,40.52L422.54,25.81L422.74,40.52L422.74,45.42L422.75,55.23L423.4,35.61L423.53,30.71L423.82,25.81L423.93,40.52L423.95,45.42L424,40.52L424.44,60.13L424.67,60.13L424.72,55.23L424.8,50.32L424.81,69.94L425.3,60.13L425.4,65.03L425.4,69.94L425.44,60.13L425.72,60.13L426.41,55.23L426.48,50.32L426.91,79.74L426.92,74.84L427.34,69.94L427.85,35.61L428.04,89.55L428.36,84.65L428.81,55.23L428.95,74.84L428.96,79.74L429.01,89.55L429.59,74.84L429.63,79.74L430.25,74.84L430.39,89.55L430.97,65.03L431.05,60.13L431.11,65.03L431.49,35.61L431.5,30.71L431.54,16L431.67,99.35L431.99,79.74L432.41,74.84L432.85,65.03L432.95,74.84L433.09,79.74L433.76,69.94L434.02,74.84L434.56,89.55L434.74,79.74L434.85,84.65L435.2,74.84L435.59,99.35L435.72,94.45L435.73,104.26L436.03,79.74L436.2,99.35L436.62,94.45L437.3,118.97L437.9,114.06L438.26,118.97L438.27,109.16L438.65,104.26L438.91,79.74L439.65,84.65L439.79,109.16L440.11,74.84L440.27,84.65L440.45,89.55L440.67,84.65L440.84,99.35L442.03,94.45L442.17,104.26L442.34,94.45L443.02,89.55L443.18,94.45L443.37,84.65L443.72,79.74L443.75,94.45L444.16,84.65L444.88,79.74L445.4,74.84L445.4,79.74L445.4,84.65L445.94,74.84L445.95,69.94L445.95,65.03L445.99,84.65L446.13,69.94L447,65.03L447.24,50.32L447.37,69.94L447.45,74.84L448.18,114.06L448.44,104.26L448.45,99.35L448.82,94.45L448.82,104.26L448.82,109.16L448.82,104.26L448.82,118.97L449.43,114.06L449.67,109.16L449.91,114.06L450.17,94.45L450.3,99.35L450.32,94.45L450.77,128.77L451.07,109.16L451.09,104.26L451.15,94.45L451.17,128.77L451.79,104.26L451.79,109.16L452.52,84.65L452.79,89.55L453.34,133.68L453.51,128.77L453.94,133.68L454.39,109.16L454.69,114.06L454.94,109.16L454.94,114.06L455.4,104.26L455.4,104.26L456.54,99.35L457.15,89.55L457.15,94.45L457.98,89.55L458.03,84.65L458.05,123.87L458.47,118.97L459.03,123.87L459.14,128.77L459.31,104.26L459.32,99.35L459.74,89.55L459.78,99.35L460,104.26L460.02,99.35L460.76,133.68L460.76,128.77L461.07,133.68L461.1,118.97L461.67,128.77L461.99,133.68L462.36,138.58L462.68,118.97L462.7,123.87L463.11,118.97L464.22,104.26L464.56,109.16L464.59,104.26L464.73,123.87L465.17,123.87L465.47,118.97L465.48,123.87L465.76,114.06L466.01,123.87L466.32,118.97L466.64,138.58L466.9,128.77L467.22,133.68L467.9,123.87L467.9,128.77L468.15,123.87L468.33,109.16L468.34,128.77L468.52,118.97L469.25,123.87L469.25,118.97L469.8,138.58L470.22,133.68L470.52,128.77L470.53,138.58L470.82,133.68L471.12,128.77L471.81,123.87L471.81,128.77L471.98,133.68L471.99,128.77L472.13,153.29L472.69,148.39L472.75,143.48L472.83,138.58L473.44,153.29L473.45,148.39L473.56,153.29L474.29,128.77L474.3,148.39L474.3,153.29L474.3,148.39L474.44,158.19L475.04,153.29L475.3,148.39L475.3,158.19L476.05,158.19L476.08,153.29L476.62,168L476.62,163.1L476.93,158.19L477.78,153.29L477.91,158.19L478.72,148.39L478.73,143.48L478.83,172.9L479.4,158.19L479.55,153.29L479.56,172.9L480.29,168L480.38,172.9L480.71,158.19L480.71,163.1L481.28,158.19L481.28,163.1L482.03,143.48L482.03,153.29L482.05,148.39L482.05,143.48L482.45,163.1L482.8,153.29L482.87,148.39L483.5,143.48L483.76,148.39L483.76,153.29L483.78,143.48L483.8,148.39L484.77,143.48L484.84,148.39L485.39,138.58L485.4,143.48L485.55,138.58L486.54,123.87L486.54,128.77L486.67,133.68L486.97,123.87L487.9,128.77L487.99,133.68L488.55,123.87L488.55,128.77L488.6,123.87L489.14,148.39L489.17,148.39L489.57,143.48L489.6,153.29L490.32,133.68L490.45,128.77L490.62,123.87L490.62,143.48L490.93,133.68L490.94,138.58L491.61,133.68L491.61,138.58L491.98,133.68L491.98,138.58L492.21,123.87L492.23,138.58L492.92,133.68L493.07,158.19L493.65,153.29L493.68,148.39L493.73,143.48L494.38,172.9L495.17,168L495.58,172.9L495.61,168L496.28,163.1L496.85,172.9L497.64,168L498.09,158.19L498.51,163.1L498.59,168L498.96,158.19L498.96,163.1L499.02,168L499.05,172.9L499.07,163.1L499.2,168L499.76,163.1L499.76,168L500.2,153.29L500.26,158.19L500.97,163.1L501.1,153.29L501.6,163.1L502.49,158.19L503.38,153.29L503.38,158.19L503.38,153.29L503.42,163.1L503.99,163.1L504.89,158.19L505.01,148.39L505.02,163.1L505.16,153.29L506.02,158.19L506.63,138.58L506.96,133.68L507.49,138.58L507.67,133.68L507.67,128.77L508.33,109.16L508.33,138.58L508.43,133.68L508.98,123.87L508.98,133.68L508.98,138.58L509.59,133.68L509.84,138.58L509.95,133.68L510.28,148.39L510.94,153.29L511.44,143.48L511.56,153.29L511.56,158.19L511.56,153.29L511.96,168L512.26,168L512.42,163.1L513.05,158.19L513.13,163.1L513.16,168L513.36,153.29L513.51,158.19L514.17,153.29L515.05,168L515.09,163.1L515.33,168L515.78,158.19L516.05,163.1L516.39,148.39L516.48,158.19L517.28,153.29L517.67,163.1L517.74,148.39L518.1,143.48L518.68,133.68L518.71,153.29L518.81,158.19L519.44,143.48L520.02,138.58L520.8,128.77L521.22,133.68L521.22,138.58L522.21,133.68L522.46,143.48L522.92,123.87L522.92,143.48L522.97,138.58L523.8,133.68L525.24,128.77L526.43,109.16L526.55,114.06L526.55,123.87L526.72,109.16L526.76,109.16L529.04,114.06L529.45,104.26L529.47,138.58L529.76,133.68L529.77,143.48L529.89,138.58L530.63,133.68L530.63,128.77L530.92,138.58L530.93,133.68L531.52,128.77L531.65,109.16L531.93,123.87L532.38,128.77L532.98,109.16L533.43,104.26L533.56,109.16L533.72,99.35L533.72,109.16L535.69,104.26L535.69,109.16L537.53,104.26L538.97,84.65L539.13,79.74L539.18,69.94L539.19,84.65L539.66,79.74L540,74.84" style="fill: rgb(44, 160, 44); fill-opacity: 0.5; stroke-width: 0;"/></g></g><g class="errorbars"/><g class="lines"><path class="js-line" d="M0,315.1L0.1,320L1.06,315.1L1.76,320L1.87,315.1L1.87,320L3.16,315.1L3.63,320L3.92,315.1L3.93,320L4.81,315.1L4.81,320L4.91,320L5.66,315.1L5.66,320L6.27,320L7.13,315.1L7.13,320L7.72,320L9.29,315.1L9.29,320L9.95,315.1L10.17,320L11.93,315.1L11.93,320L14.84,315.1L14.84,320L22.41,315.1L22.41,320L22.61,315.1L22.61,320L24.27,315.1L24.27,310.19L24.42,315.1L25.59,320L27.33,315.1L27.33,320L28.23,310.19L28.23,315.1L28.68,310.19L28.68,315.1L28.68,320L31.59,315.1L31.59,320L31.73,315.1L31.73,320L33.01,315.1L33.01,320L33.62,320L34.53,315.1L34.54,320L35.33,315.1L35.33,320L35.85,320L36.1,315.1L36.19,320L37.42,315.1L38.86,310.19L39.3,315.1L39.42,310.19L39.43,315.1L40.75,320L41.5,315.1L41.5,320L43.25,315.1L43.25,320L44.36,315.1L44.36,320L44.86,300.39L44.97,305.29L45.52,310.19L45.96,315.1L46.42,310.19L46.43,315.1L47.71,310.19L51.66,305.29L51.66,310.19L51.96,315.1L52.78,310.19L53.71,320L55.16,315.1L55.16,320L55.56,320L58.79,315.1L58.79,320L58.79,315.1L60.32,310.19L60.66,315.1L61.46,310.19L62.26,305.29L62.29,310.19L62.29,305.29L62.88,320L64.77,315.1L65.07,320L65.77,315.1L65.92,310.19L66.92,315.1L67.1,305.29L67.23,310.19L68.08,315.1L68.4,310.19L68.4,315.1L68.96,310.19L69.04,300.39L69.15,320L69.24,320L69.84,315.1L70.71,310.19L70.72,315.1L71.46,305.29L71.47,310.19L72.19,305.29L76.82,300.39L77.3,295.48L79.03,320L80.05,315.1L80.05,320L81.05,315.1L82.28,310.19L82.33,315.1L83.27,310.19L83.43,305.29L84.37,295.48L84.37,300.39L84.39,305.29L85.56,295.48L85.58,300.39L86.43,295.48L86.43,300.39L86.73,305.29L87.32,300.39L87.32,305.29L87.32,300.39L89.18,305.29L89.36,300.39L89.36,305.29L90.28,300.39L90.52,305.29L91.26,300.39L91.73,295.48L92.52,300.39L93.26,295.48L93.55,300.39L95.88,295.48L95.88,300.39L96.48,295.48L96.5,300.39L97.92,305.29L98.44,300.39L98.65,305.29L98.79,300.39L98.8,305.29L99.83,300.39L99.85,270.97L100.56,290.58L100.56,295.48L100.85,305.29L101.03,300.39L101.42,295.48L102.02,290.58L102.57,295.48L103.21,285.68L103.47,280.77L103.77,295.48L104.05,280.77L104.37,275.87L104.5,290.58L104.5,285.68L105.49,290.58L105.93,275.87L105.93,275.87L106.48,280.77L107.56,256.26L108.54,251.35L109.58,256.26L109.88,251.35L110.01,261.16L110.61,261.16L110.74,256.26L111.05,275.87L111.18,270.97L111.85,266.06L112.36,246.45L112.37,251.35L112.76,256.26L112.8,261.16L113.67,256.26L113.8,251.35L113.81,256.26L115.14,261.16L115.25,280.77L115.84,275.87L115.85,270.97L115.86,280.77L116.99,275.87L116.99,280.77L119.19,275.87L119.2,270.97L119.2,280.77L121.23,275.87L121.25,280.77L121.25,275.87L122.34,280.77L122.39,275.87L124.28,270.97L125.14,280.77L125.15,275.87L125.3,280.77L125.47,275.87L125.47,280.77L126.32,275.87L126.65,280.77L127.37,275.87L127.4,280.77L129.07,275.87L129.1,280.77L130.99,275.87L131.09,280.77L131.5,275.87L131.99,270.97L132.12,275.87L133.03,270.97L133.03,275.87L133.45,256.26L133.59,256.26L133.99,251.35L134.35,275.87L134.35,275.87L135.36,270.97L135.47,280.77L135.66,280.77L136.37,275.87L137.37,270.97L137.49,266.06L138.07,270.97L138.26,266.06L139.11,251.35L139.14,256.26L140.15,241.55L140.15,236.65L140.15,231.74L140.3,261.16L141.6,256.26L141.72,251.35L141.73,256.26L143.2,251.35L143.98,270.97L145.23,266.06L145.64,270.97L147.28,266.06L148.39,261.16L148.39,266.06L149.75,251.35L149.75,256.26L150.01,261.16L150.04,266.06L150.45,256.26L150.45,261.16L150.78,256.26L150.78,261.16L151.8,266.06L151.98,275.87L152.7,270.97L152.79,266.06L154.44,261.16L154.98,246.45L154.99,251.35L155,256.26L155.05,270.97L156.89,266.06L156.99,270.97L157.03,266.06L158.66,261.16L158.67,266.06L160.06,261.16L160.06,266.06L160.5,261.16L160.96,256.26L161.67,251.35L161.7,256.26L164.62,261.16L167.73,251.35L168.48,246.45L169.27,251.35L170,246.45L170.01,251.35L172.74,246.45L173.21,251.35L173.83,246.45L175.08,241.55L175.33,246.45L175.33,241.55L175.37,280.77L175.37,275.87L177.82,270.97L177.83,275.87L180.22,280.77L181.35,275.87L181.35,280.77L181.99,275.87L182.02,280.77L184.28,275.87L184.44,270.97L185.86,275.87L185.87,280.77L186.48,241.55L186.56,246.45L186.56,241.55L186.59,261.16L188.15,256.26L188.49,241.55L190.18,236.65L190.7,231.74L190.71,236.65L192.96,231.74L193.45,236.65L194.81,231.74L195.12,236.65L195.42,231.74L197.66,226.84L200.71,221.94L200.82,226.84L201.74,221.94L202.45,226.84L202.49,217.03L202.72,221.94L203.62,226.84L203.89,246.45L204.73,251.35L204.81,256.26L204.91,246.45L208.42,241.55L209,246.45L209.7,241.55L209.85,236.65L212.04,231.74L215.07,226.84L216.69,221.94L216.71,217.03L218.06,212.13L218.86,217.03L218.88,212.13L219.19,246.45L219.2,241.55L220.2,246.45L220.63,251.35L220.64,246.45L221.82,251.35L222.29,261.16L222.67,256.26L222.69,261.16L223.23,246.45L223.27,256.26L223.85,261.16L223.88,266.06L224.81,261.16L226.01,256.26L226.02,261.16L228.05,251.35L228.34,246.45L230.76,241.55L231.91,246.45L233.53,241.55L234.02,236.65L236.38,226.84L236.39,231.74L237.26,217.03L239.13,212.13L239.43,197.42L239.96,192.52L241.06,182.71L241.11,187.61L243.4,153.29L243.48,158.19L243.49,163.1L243.65,148.39L244.07,158.19L244.25,153.29L244.36,148.39L245.68,143.48L245.84,138.58L246.11,153.29L246.11,158.19L246.29,187.61L246.57,177.81L247.08,172.9L248.15,256.26L248.39,251.35L248.58,246.45L248.59,241.55L249.2,256.26L249.3,251.35L249.49,246.45L250.44,261.16L250.45,256.26L250.45,251.35L250.89,266.06L251.21,270.97L251.63,256.26L251.66,251.35L252.23,266.06L252.48,261.16L252.48,266.06L252.79,261.16L253.49,256.26L253.53,251.35L254.36,256.26L254.87,246.45L255.52,241.55L256.41,231.74L256.41,236.65L256.47,231.74L257.29,226.84L257.29,231.74L257.89,226.84L258.68,221.94L258.79,217.03L259.76,221.94L263.48,217.03L263.58,212.13L263.84,207.23L264.15,212.13L265.78,207.23L266.74,197.42L267.1,192.52L267.5,187.61L269.12,182.71L269.58,168L269.79,182.71L269.79,187.61L271.03,163.1L273.15,158.19L273.21,148.39L274.27,143.48L275.95,133.68L275.98,138.58L276,172.9L276.64,153.29L276.93,148.39L276.93,153.29L277.08,148.39L279.26,143.48L281,138.58L281.19,133.68L282.98,128.77L282.98,133.68L282.99,128.77L282.99,133.68L283.97,128.77L284.16,123.87L284.85,128.77L285.83,148.39L286.04,153.29L287.62,148.39L288.16,153.29L289.56,143.48L290.28,138.58L290.28,143.48L291.1,138.58L291.2,128.77L292.38,133.68L292.96,192.52L295.58,187.61L296.07,192.52L296.47,187.61L296.49,192.52L299.37,187.61L300.09,197.42L300.13,192.52L300.24,187.61L300.24,192.52L300.5,192.52L301.21,197.42L301.39,187.61L301.39,192.52L303.79,187.61L303.81,182.71L304.61,177.81L306.68,172.9L307.22,168L307.38,153.29L307.43,177.81L307.79,168L308.26,172.9L308.74,182.71L308.97,177.81L309.23,172.9L310.05,236.65L310.28,231.74L311.28,217.03L311.92,212.13L312.95,187.61L313.93,182.71L314.85,177.81L314.95,172.9L315.82,158.19L315.86,163.1L316.85,109.16L319.09,104.26L321.05,99.35L321.05,94.45L324.51,99.35L324.59,94.45L325.88,89.55L326.31,84.65L328.36,65.03L328.36,60.13L328.5,50.32L328.91,153.29L329.23,148.39L329.68,143.48L329.7,158.19L329.95,153.29L330.11,148.39L331.16,123.87L331.28,128.77L333.68,123.87L334.19,118.97L334.49,123.87L335.46,118.97L335.86,123.87L337.05,118.97L338.53,123.87L338.56,138.58L339.23,133.68L339.96,138.58L340.4,168L340.83,172.9L340.97,168L341.28,182.71L341.49,177.81L341.88,182.71L342.46,177.81L343.3,163.1L344.21,158.19L344.44,148.39L345.09,143.48L345.97,153.29L346.38,148.39L346.39,153.29L347.11,148.39L347.39,153.29L347.39,163.1L347.97,158.19L349.34,153.29L349.55,143.48L350,158.19L350.02,158.19L350.02,163.1L350.68,153.29L350.9,148.39L351.71,138.58L351.72,143.48L354.87,138.58L355.26,143.48L356.67,138.58L357.13,133.68L357.13,138.58L357.91,143.48L358.2,138.58L358.28,148.39L359.05,143.48L360.18,128.77L360.18,133.68L360.63,123.87L361.21,118.97L361.65,128.77L361.67,118.97L362.21,123.87L362.81,118.97L362.82,123.87L363.56,118.97L363.7,123.87L364.4,118.97L364.97,114.06L365.18,118.97L365.59,104.26L365.64,114.06L366.44,109.16L366.49,104.26L367.33,99.35L368.46,94.45L368.56,89.55L369.29,69.94L369.66,65.03L369.78,69.94L371.53,65.03L371.82,60.13L372.91,55.23L373.07,99.35L373.19,99.35L374.69,94.45L375.64,89.55L375.65,94.45L377.53,89.55L377.54,94.45L377.97,89.55L380.45,84.65L380.45,89.55L381.14,89.55L381.75,84.65L382.52,65.03L382.59,69.94L383.8,65.03L383.9,55.23L384.35,79.74L384.35,84.65L384.73,79.74L384.96,84.65L385.95,79.74L386.79,60.13L387.01,55.23L387.61,79.74L387.72,65.03L387.91,60.13L388.64,89.55L388.88,84.65L389.53,128.77L389.66,123.87L389.74,128.77L389.74,133.68L390.38,133.68L390.51,138.58L390.54,158.19L390.92,153.29L391.69,158.19L391.7,153.29L391.74,158.19L394.24,153.29L394.86,138.58L394.89,143.48L395.14,148.39L398.77,143.48L398.79,148.39L399.52,138.58L400.44,143.48L401.59,138.58L402.53,133.68L402.53,138.58L404.42,133.68L404.57,123.87L405.61,128.77L406.17,118.97L406.18,114.06L406.19,94.45L410.03,99.35L411.13,79.74L413.29,74.84L413.8,65.03L413.8,69.94L413.8,74.84L415.94,65.03L416.4,60.13L419.24,50.32L419.43,45.42L420.02,40.52L420.02,45.42L420.2,50.32L420.81,74.84L420.94,69.94L421.56,65.03L421.61,69.94L421.93,45.42L422.35,40.52L422.54,25.81L422.74,40.52L422.74,45.42L422.75,55.23L423.4,35.61L423.53,30.71L423.82,25.81L423.93,40.52L423.95,45.42L424,40.52L424.44,60.13L424.67,60.13L424.72,55.23L424.8,50.32L424.81,69.94L425.3,60.13L425.4,65.03L425.4,69.94L425.44,60.13L425.72,60.13L426.41,55.23L426.48,50.32L426.91,79.74L426.92,74.84L427.34,69.94L427.85,35.61L428.04,89.55L428.36,84.65L428.81,55.23L428.95,74.84L428.96,79.74L429.01,89.55L429.59,74.84L429.63,79.74L430.25,74.84L430.39,89.55L430.97,65.03L431.05,60.13L431.11,65.03L431.49,35.61L431.5,30.71L431.54,16L431.67,99.35L431.99,79.74L432.41,74.84L432.85,65.03L432.95,74.84L433.09,79.74L433.76,69.94L434.02,74.84L434.56,89.55L434.74,79.74L434.85,84.65L435.2,74.84L435.59,99.35L435.72,94.45L435.73,104.26L436.03,79.74L436.2,99.35L436.62,94.45L437.3,118.97L437.9,114.06L438.26,118.97L438.27,109.16L438.65,104.26L438.91,79.74L439.65,84.65L439.79,109.16L440.11,74.84L440.27,84.65L440.45,89.55L440.67,84.65L440.84,99.35L442.03,94.45L442.17,104.26L442.34,94.45L443.02,89.55L443.18,94.45L443.37,84.65L443.72,79.74L443.75,94.45L444.16,84.65L444.88,79.74L445.4,74.84L445.4,79.74L445.4,84.65L445.94,74.84L445.95,69.94L445.95,65.03L445.99,84.65L446.13,69.94L447,65.03L447.24,50.32L447.37,69.94L447.45,74.84L448.18,114.06L448.44,104.26L448.45,99.35L448.82,94.45L448.82,104.26L448.82,109.16L448.82,104.26L448.82,118.97L449.43,114.06L449.67,109.16L449.91,114.06L450.17,94.45L450.3,99.35L450.32,94.45L450.77,128.77L451.07,109.16L451.09,104.26L451.15,94.45L451.17,128.77L451.79,104.26L451.79,109.16L452.52,84.65L452.79,89.55L453.34,133.68L453.51,128.77L453.94,133.68L454.39,109.16L454.69,114.06L454.94,109.16L454.94,114.06L455.4,104.26L455.4,104.26L456.54,99.35L457.15,89.55L457.15,94.45L457.98,89.55L458.03,84.65L458.05,123.87L458.47,118.97L459.03,123.87L459.14,128.77L459.31,104.26L459.32,99.35L459.74,89.55L459.78,99.35L460,104.26L460.02,99.35L460.76,133.68L460.76,128.77L461.07,133.68L461.1,118.97L461.67,128.77L461.99,133.68L462.36,138.58L462.68,118.97L462.7,123.87L463.11,118.97L464.22,104.26L464.56,109.16L464.59,104.26L464.73,123.87L465.17,123.87L465.47,118.97L465.48,123.87L465.76,114.06L466.01,123.87L466.32,118.97L466.64,138.58L466.9,128.77L467.22,133.68L467.9,123.87L467.9,128.77L468.15,123.87L468.33,109.16L468.34,128.77L468.52,118.97L469.25,123.87L469.25,118.97L469.8,138.58L470.22,133.68L470.52,128.77L470.53,138.58L470.82,133.68L471.12,128.77L471.81,123.87L471.81,128.77L471.98,133.68L471.99,128.77L472.13,153.29L472.69,148.39L472.75,143.48L472.83,138.58L473.44,153.29L473.45,148.39L473.56,153.29L474.29,128.77L474.3,148.39L474.3,153.29L474.3,148.39L474.44,158.19L475.04,153.29L475.3,148.39L475.3,158.19L476.05,158.19L476.08,153.29L476.62,168L476.62,163.1L476.93,158.19L477.78,153.29L477.91,158.19L478.72,148.39L478.73,143.48L478.83,172.9L479.4,158.19L479.55,153.29L479.56,172.9L480.29,168L480.38,172.9L480.71,158.19L480.71,163.1L481.28,158.19L481.28,163.1L482.03,143.48L482.03,153.29L482.05,148.39L482.05,143.48L482.45,163.1L482.8,153.29L482.87,148.39L483.5,143.48L483.76,148.39L483.76,153.29L483.78,143.48L483.8,148.39L484.77,143.48L484.84,148.39L485.39,138.58L485.4,143.48L485.55,138.58L486.54,123.87L486.54,128.77L486.67,133.68L486.97,123.87L487.9,128.77L487.99,133.68L488.55,123.87L488.55,128.77L488.6,123.87L489.14,148.39L489.17,148.39L489.57,143.48L489.6,153.29L490.32,133.68L490.45,128.77L490.62,123.87L490.62,143.48L490.93,133.68L490.94,138.58L491.61,133.68L491.61,138.58L491.98,133.68L491.98,138.58L492.21,123.87L492.23,138.58L492.92,133.68L493.07,158.19L493.65,153.29L493.68,148.39L493.73,143.48L494.38,172.9L495.17,168L495.58,172.9L495.61,168L496.28,163.1L496.85,172.9L497.64,168L498.09,158.19L498.51,163.1L498.59,168L498.96,158.19L498.96,163.1L499.02,168L499.05,172.9L499.07,163.1L499.2,168L499.76,163.1L499.76,168L500.2,153.29L500.26,158.19L500.97,163.1L501.1,153.29L501.6,163.1L502.49,158.19L503.38,153.29L503.38,158.19L503.38,153.29L503.42,163.1L503.99,163.1L504.89,158.19L505.01,148.39L505.02,163.1L505.16,153.29L506.02,158.19L506.63,138.58L506.96,133.68L507.49,138.58L507.67,133.68L507.67,128.77L508.33,109.16L508.33,138.58L508.43,133.68L508.98,123.87L508.98,133.68L508.98,138.58L509.59,133.68L509.84,138.58L509.95,133.68L510.28,148.39L510.94,153.29L511.44,143.48L511.56,153.29L511.56,158.19L511.56,153.29L511.96,168L512.26,168L512.42,163.1L513.05,158.19L513.13,163.1L513.16,168L513.36,153.29L513.51,158.19L514.17,153.29L515.05,168L515.09,163.1L515.33,168L515.78,158.19L516.05,163.1L516.39,148.39L516.48,158.19L517.28,153.29L517.67,163.1L517.74,148.39L518.1,143.48L518.68,133.68L518.71,153.29L518.81,158.19L519.44,143.48L520.02,138.58L520.8,128.77L521.22,133.68L521.22,138.58L522.21,133.68L522.46,143.48L522.92,123.87L522.92,143.48L522.97,138.58L523.8,133.68L525.24,128.77L526.43,109.16L526.55,114.06L526.55,123.87L526.72,109.16L526.76,109.16L529.04,114.06L529.45,104.26L529.47,138.58L529.76,133.68L529.77,143.48L529.89,138.58L530.63,133.68L530.63,128.77L530.92,138.58L530.93,133.68L531.52,128.77L531.65,109.16L531.93,123.87L532.38,128.77L532.98,109.16L533.43,104.26L533.56,109.16L533.72,99.35L533.72,109.16L535.69,104.26L535.69,109.16L537.53,104.26L538.97,84.65L539.13,79.74L539.18,69.94L539.19,84.65L539.66,79.74L540,74.84" style="vector-effect: none; fill: none; stroke: rgb(44, 160, 44); stroke-opacity: 1; stroke-width: 2px; opacity: 1;"/></g><g class="points"/><g class="text"/></g></g></g></g><g class="zerolinelayer-above"/><path class="xlines-above crisp" d="M0,0" style="fill: none;"/><path class="ylines-above crisp" d="M0,0" style="fill: none;"/><g class="overlines-above"/><g class="xaxislayer-above"><g class="xtick"><text text-anchor="middle" x="0" y="439" transform="translate(97.38,0)" style="font-family: 'Open Sans'; font-size: 18px; fill: rgb(0, 0, 0); fill-opacity: 1; white-space: pre;">2016</text></g><g class="xtick"><text text-anchor="middle" x="0" y="439" style="font-family: 'Open Sans'; font-size: 18px; fill: rgb(0, 0, 0); fill-opacity: 1; white-space: pre;" transform="translate(203.76999999999998,0)">2018</text></g><g class="xtick"><text text-anchor="middle" x="0" y="439" style="font-family: 'Open Sans'; font-size: 18px; fill: rgb(0, 0, 0); fill-opacity: 1; white-space: pre;" transform="translate(310.01,0)">2020</text></g><g class="xtick"><text text-anchor="middle" x="0" y="439" style="font-family: 'Open Sans'; font-size: 18px; fill: rgb(0, 0, 0); fill-opacity: 1; white-space: pre;" transform="translate(416.4,0)">2022</text></g><g class="xtick"><text text-anchor="middle" x="0" y="439" style="font-family: 'Open Sans'; font-size: 18px; fill: rgb(0, 0, 0); fill-opacity: 1; white-space: pre;" transform="translate(522.64,0)">2024</text></g></g><g class="yaxislayer-above"><g class="ytick"><text text-anchor="end" x="79" y="6.3" transform="translate(0,420)" style="font-family: 'Open Sans'; font-size: 18px; fill: rgb(0, 0, 0); fill-opacity: 1; white-space: pre;">0</text></g><g class="ytick"><text text-anchor="end" x="79" y="6.3" style="font-family: 'Open Sans'; font-size: 18px; fill: rgb(0, 0, 0); fill-opacity: 1; white-space: pre;" transform="translate(0,370.97)">10</text></g><g class="ytick"><text text-anchor="end" x="79" y="6.3" style="font-family: 'Open Sans'; font-size: 18px; fill: rgb(0, 0, 0); fill-opacity: 1; white-space: pre;" transform="translate(0,321.94)">20</text></g><g class="ytick"><text text-anchor="end" x="79" y="6.3" style="font-family: 'Open Sans'; font-size: 18px; fill: rgb(0, 0, 0); fill-opacity: 1; white-space: pre;" transform="translate(0,272.9)">30</text></g><g class="ytick"><text text-anchor="end" x="79" y="6.3" style="font-family: 'Open Sans'; font-size: 18px; fill: rgb(0, 0, 0); fill-opacity: 1; white-space: pre;" transform="translate(0,223.87)">40</text></g><g class="ytick"><text text-anchor="end" x="79" y="6.3" style="font-family: 'Open Sans'; font-size: 18px; fill: rgb(0, 0, 0); fill-opacity: 1; white-space: pre;" transform="translate(0,174.84)">50</text></g><g class="ytick"><text text-anchor="end" x="79" y="6.3" style="font-family: 'Open Sans'; font-size: 18px; fill: rgb(0, 0, 0); fill-opacity: 1; white-space: pre;" transform="translate(0,125.81)">60</text></g></g><g class="overaxes-above"/></g></g><g class="polarlayer"/><g class="smithlayer"/><g class="ternarylayer"/><g class="geolayer"/><g class="funnelarealayer"/><g class="pielayer"/><g class="iciclelayer"/><g class="treemaplayer"/><g class="sunburstlayer"/><g class="glimages"/><defs id="topdefs-0c2660"><g class="clips"/></defs><g class="layer-above"><g class="imagelayer"/><g class="shapelayer"/></g><g class="infolayer"><g class="g-gtitle"><text class="gtitle" x="35" y="50" text-anchor="start" dy="0em" style="opacity: 1; font-family: 'Open Sans'; font-size: 25px; fill: rgb(0, 0, 0); fill-opacity: 1; white-space: pre;">MultiQC/MultiQC - Open Pull Requests Over Time</text></g><g class="g-xtitle"><text class="xtitle" x="350" y="472.9" text-anchor="middle" style="opacity: 1; font-family: 'Open Sans'; font-size: 22px; fill: rgb(0, 0, 0); fill-opacity: 1; white-space: pre;">Date</text></g><g class="g-ytitle"><text class="ytitle" transform="rotate(-90,38.8,260)" x="38.8" y="260" text-anchor="middle" style="opacity: 1; font-family: 'Open Sans'; font-size: 22px; fill: rgb(0, 0, 0); fill-opacity: 1; white-space: pre;">Number of Open PRs</text></g></g></svg>