<svg class="main-svg" xmlns="http://www.w3.org/2000/svg" xmlns:xlink="http://www.w3.org/1999/xlink" width="700" height="500" style="" viewBox="0 0 700 500"><rect x="0" y="0" width="700" height="500" style="fill: rgb(0, 0, 0); fill-opacity: 0;"/><defs id="defs-c00b60"><g class="clips"><clipPath id="clipc00b60xyplot" class="plotclip"><rect width="540" height="320"/></clipPath><clipPath class="axesclip" id="clipc00b60x"><rect x="80" y="0" width="540" height="500"/></clipPath><clipPath class="axesclip" id="clipc00b60y"><rect x="0" y="100" width="700" height="320"/></clipPath><clipPath class="axesclip" id="clipc00b60xy"><rect x="80" y="100" width="540" height="320"/></clipPath></g><g class="gradients"/><g class="patterns"/></defs><g class="bglayer"><rect class="bg" x="80" y="100" width="540" height="320" style="fill: rgb(0, 0, 0); fill-opacity: 0; stroke-width: 0;"/></g><g class="layer-below"><g class="imagelayer"/><g class="shapelayer"/></g><g class="cartesianlayer"><g class="subplot xy"><g class="layer-subplot"><g class="shapelayer"/><g class="imagelayer"/></g><g class="minor-gridlayer"><g class="x"/><g class="y"/></g><g class="gridlayer"><g class="x"><path class="xgrid crisp" transform="translate(96.5,0)" d="M0,100v320" style="stroke: rgb(255, 255, 255); stroke-opacity: 1; stroke-width: 1px;"/><path class="xgrid crisp" transform="translate(197.56,0)" d="M0,100v320" style="stroke: rgb(255, 255, 255); stroke-opacity: 1; stroke-width: 1px;"/><path class="xgrid crisp" transform="translate(298.47,0)" d="M0,100v320" style="stroke: rgb(255, 255, 255); stroke-opacity: 1; stroke-width: 1px;"/><path class="xgrid crisp" transform="translate(399.52,0)" d="M0,100v320" style="stroke: rgb(255, 255, 255); stroke-opacity: 1; stroke-width: 1px;"/><path class="xgrid crisp" transform="translate(500.44,0)" d="M0,100v320" style="stroke: rgb(255, 255, 255); stroke-opacity: 1; stroke-width: 1px;"/><path class="xgrid crisp" transform="translate(601.49,0)" d="M0,100v320" style="stroke: rgb(255, 255, 255); stroke-opacity: 1; stroke-width: 1px;"/></g><g class="y"><path class="ygrid crisp" transform="translate(0,369.75)" d="M80,0h540" style="stroke: rgb(255, 255, 255); stroke-opacity: 1; stroke-width: 1px;"/><path class="ygrid crisp" transform="translate(0,319.5)" d="M80,0h540" style="stroke: rgb(255, 255, 255); stroke-opacity: 1; stroke-width: 1px;"/><path class="ygrid crisp" transform="translate(0,269.26)" d="M80,0h540" style="stroke: rgb(255, 255, 255); stroke-opacity: 1; stroke-width: 1px;"/><path class="ygrid crisp" transform="translate(0,219.01)" d="M80,0h540" style="stroke: rgb(255, 255, 255); stroke-opacity: 1; stroke-width: 1px;"/><path class="ygrid crisp" transform="translate(0,168.76)" d="M80,0h540" style="stroke: rgb(255, 255, 255); stroke-opacity: 1; stroke-width: 1px;"/><path class="ygrid crisp" transform="translate(0,118.51)" d="M80,0h540" style="stroke: rgb(255, 255, 255); stroke-opacity: 1; stroke-width: 1px;"/></g></g><g class="zerolinelayer"><path class="yzl zl crisp" transform="translate(0,420)" d="M80,0h540" style="stroke: rgb(255, 255, 255); stroke-opacity: 1; stroke-width: 2px;"/></g><g class="layer-between"><g class="shapelayer"/><g class="imagelayer"/></g><path class="xlines-below"/><path class="ylines-below"/><g class="overlines-below"/><g class="xaxislayer-below"/><g class="yaxislayer-below"/><g class="overaxes-below"/><g class="overplot"><g class="xy" transform="translate(80,100)" clip-path="url(#clipc00b60xyplot)"><g class="scatterlayer mlayer"><g class="trace scatter trace39e5ee" style="stroke-miterlimit: 2;"><g class="fills"><g><path class="js-fill" d="M540,320L0,320L0,317.49L0.1,320L1,317.49L1.67,320L1.77,317.49L1.77,320L3,317.49L3.73,320L4.57,317.49L4.57,320L4.67,320L5.38,317.49L5.38,320L5.95,320L6.77,317.49L6.77,320L7.33,320L8.83,317.49L8.83,320L9.45,317.49L9.66,320L11.33,317.49L11.33,320L14.1,317.49L14.1,320L21.29,317.49L21.29,320L21.48,317.49L21.48,320L23.05,317.49L23.05,314.98L23.19,317.49L24.3,320L25.96,317.49L25.96,320L27.24,314.98L27.24,317.49L27.24,320L30,317.49L30,320L30.14,320L31.35,317.49L31.35,320L31.93,320L32.8,317.49L32.8,320L33.56,317.49L33.56,320L34.29,317.49L34.37,320L36.91,314.98L37.33,317.49L37.45,314.98L37.45,317.49L38.71,320L39.41,317.49L39.41,320L41.08,317.49L41.08,320L42.14,317.49L42.14,320L42.61,309.95L42.72,312.46L43.23,314.98L43.66,317.49L44.09,314.98L44.1,317.49L45.32,314.98L49.07,312.46L49.07,314.98L49.36,317.49L50.13,314.98L51.01,320L52.39,317.49L52.78,320L55.84,317.49L55.84,320L55.84,317.49L57.3,314.98L57.61,317.49L58.38,314.98L59.17,312.46L59.18,314.98L59.72,320L61.52,317.49L61.81,320L62.47,317.49L62.62,314.98L63.56,317.49L63.73,312.46L63.86,314.98L64.67,317.49L64.97,314.98L64.97,317.49L65.5,314.98L65.58,309.95L65.68,320L65.77,320L66.34,317.49L67.17,314.98L67.17,317.49L67.88,312.46L67.88,314.98L68.57,312.46L72.97,309.95L73.43,307.44L75.07,320L76.04,317.49L76.04,320L76.98,317.49L78.15,314.98L78.21,317.49L79.24,312.46L79.64,309.95L80.14,307.44L80.14,309.95L80.16,312.46L81.27,307.44L81.29,309.95L82.09,307.44L82.09,309.95L82.38,312.46L82.94,309.95L82.94,312.46L82.94,309.95L84.7,312.46L84.88,309.95L84.88,312.46L85.75,309.95L85.98,312.46L86.68,309.95L87.13,307.44L87.88,309.95L88.58,307.44L88.86,309.95L91.07,307.44L91.07,309.95L91.64,307.44L91.66,309.95L93.01,312.46L93.5,309.95L93.7,312.46L93.84,309.95L93.84,312.46L94.83,309.95L94.84,294.88L95.52,307.44L95.79,309.95L95.79,312.46L95.94,307.44L96.33,307.44L96.9,304.93L97.59,307.44L97.77,304.93L98.28,299.9L98.44,304.93L98.53,307.44L99.14,297.39L99.26,302.41L100.2,304.93L100.62,297.39L100.62,297.39L101.14,299.9L102.16,287.34L103.09,284.83L104.09,287.34L104.37,284.83L104.49,289.85L105.07,289.85L105.19,287.34L105.48,297.39L105.61,294.88L106.24,292.36L106.73,282.31L106.73,284.83L107.1,287.34L107.14,289.85L107.97,287.34L108.09,284.83L108.1,287.34L109.36,289.85L110.05,299.9L111.12,297.39L111.12,299.9L113.22,297.39L113.22,294.88L113.22,299.9L115.15,297.39L115.16,299.9L115.17,297.39L116.2,299.9L116.25,297.39L118.05,294.88L119.02,299.9L119.15,297.39L119.18,299.9L119.98,297.39L120.3,299.9L120.98,297.39L121.01,299.9L122.6,297.39L122.62,299.9L124.42,297.39L124.52,299.9L124.9,297.39L125.37,294.88L125.49,297.39L126.35,294.88L126.36,297.39L126.76,287.34L126.89,287.34L127.27,284.83L127.61,297.39L127.61,297.39L128.57,294.88L128.67,299.9L128.85,299.9L129.53,297.39L130.48,294.88L130.6,292.36L131.15,294.88L131.32,292.36L131.42,289.85L132.13,284.83L132.16,287.34L132.46,284.83L132.67,287.34L133.11,284.83L133.12,282.31L133.12,274.78L133.26,289.85L134.5,287.34L134.61,284.83L134.62,287.34L136.01,284.83L136.76,294.88L137.94,292.36L138.34,294.88L139.89,292.36L140.95,289.85L140.95,292.36L142.23,284.83L142.24,287.34L142.49,289.85L142.51,292.36L142.9,287.34L143.22,289.85L144.18,292.36L144.35,297.39L145.04,294.88L145.13,292.36L146.69,289.85L147.21,282.31L147.22,287.34L147.22,289.85L147.27,294.88L149.02,292.36L149.12,294.88L149.16,292.36L150.7,289.85L150.71,292.36L152.04,289.85L152.04,292.36L152.45,289.85L152.89,287.34L153.56,284.83L153.59,287.34L156.36,289.85L159.32,284.83L160.03,282.31L160.78,284.83L161.47,282.31L161.48,284.83L164.08,282.31L164.52,284.83L165.11,282.31L166.3,279.8L166.54,282.31L166.54,279.8L166.57,299.9L166.58,297.39L168.9,294.88L168.91,297.39L171.18,299.9L172.25,297.39L172.25,299.9L172.86,297.39L172.89,299.9L175.04,297.39L175.19,294.88L176.54,297.39L176.55,299.9L177.12,279.8L177.23,289.85L178.71,287.34L179.03,279.8L180.64,277.29L181.13,274.78L181.14,277.29L183.28,274.78L183.75,277.29L185.04,274.78L185.33,277.29L185.62,274.78L187.74,272.26L190.64,269.75L190.74,272.26L191.62,269.75L192.3,272.26L192.34,267.24L192.55,269.75L193.41,272.26L193.66,282.31L194.46,284.83L194.54,287.34L194.63,282.31L197.97,279.8L198.51,282.31L199.18,279.8L199.32,277.29L201.41,274.78L204.28,272.26L205.82,269.75L205.84,267.24L207.12,264.73L207.88,267.24L207.9,264.73L208.19,282.31L208.2,279.8L209.15,282.31L209.57,284.83L209.58,282.31L210.69,284.83L211.14,289.85L211.5,287.34L211.52,289.85L212.03,282.31L212.07,287.34L212.62,289.85L212.65,292.36L213.53,289.85L214.67,287.34L214.69,289.85L216.61,284.83L216.89,282.31L219.18,279.8L220.27,282.31L221.81,279.8L222.28,277.29L224.52,272.26L224.53,274.78L225.36,267.24L227.14,264.73L227.42,257.19L227.93,254.68L228.97,249.65L229.01,252.17L231.2,234.58L231.27,237.09L231.28,239.6L231.43,232.07L232,234.58L232.1,232.07L233.36,229.55L233.5,227.04L233.77,237.09L233.77,239.6L233.93,252.17L234.2,247.14L234.69,244.63L235.7,287.34L235.93,284.83L236.11,282.31L236.12,279.8L236.7,287.34L236.79,284.83L236.98,282.31L237.88,289.85L237.89,287.34L237.89,284.83L238.61,294.88L238.85,292.36L238.85,294.88L239.04,284.83L239.57,292.36L239.81,289.85L239.96,292.36L240.11,289.85L240.78,287.34L240.81,284.83L241.6,287.34L242.08,282.31L242.7,279.8L244.38,272.26L244.38,274.78L245.81,267.24L246.73,269.75L250.26,267.24L250.36,264.73L250.6,262.21L250.9,264.73L252.45,262.21L253.36,257.19L253.7,254.68L254.08,252.17L255.63,249.65L256.05,242.12L256.25,249.65L256.25,252.17L257.44,239.6L259.45,237.09L259.51,232.07L260.51,229.55L262.11,224.53L262.14,227.04L262.16,244.63L262.77,234.58L263.04,232.07L263.04,234.58L263.18,232.07L265.26,229.55L266.9,227.04L267.09,224.53L268.79,222.02L268.79,224.53L268.79,222.02L268.79,224.53L269.73,222.02L269.91,219.5L270.57,222.02L271.49,232.07L271.69,234.58L273.19,232.07L273.7,234.58L275.04,229.55L275.72,227.04L275.72,229.55L276.49,227.04L276.6,222.02L277.72,224.53L278.27,254.68L280.75,252.17L281.22,254.68L281.6,252.17L281.62,254.68L284.36,252.17L285.04,257.19L285.07,254.68L285.18,252.17L285.18,254.68L285.43,254.68L286.1,257.19L286.27,252.17L286.27,254.68L288.56,252.17L288.57,249.65L289.33,247.14L291.3,244.63L291.81,242.12L291.96,234.58L292.01,247.14L292.35,242.12L292.79,244.63L293.25,249.65L293.47,247.14L293.72,244.63L294.5,277.29L294.72,274.78L295.67,267.24L296.28,264.73L297.25,252.17L298.18,249.65L299.16,244.63L299.22,242.12L300.63,232.07L300.65,229.55L300.95,211.97L303.09,209.45L304.95,206.94L304.95,204.43L308.23,206.94L308.31,204.43L309.94,199.4L310.5,196.89L311.89,189.36L311.89,186.84L312.03,181.82L312.41,234.58L312.71,232.07L313.14,229.55L313.16,237.09L313.4,234.58L313.55,232.07L314.55,219.5L314.66,222.02L316.94,219.5L317.42,216.99L317.71,219.5L318.64,216.99L319.02,219.5L320.14,216.99L321.55,219.5L321.58,227.04L322.21,224.53L322.9,227.04L323.33,242.12L323.74,244.63L323.87,242.12L324.17,249.65L324.36,247.14L324.73,249.65L325.82,242.12L326.08,239.6L326.94,237.09L326.97,234.58L327.78,229.55L328.03,232.07L328.61,234.58L329.01,232.07L329.01,234.58L329.7,232.07L329.97,234.58L329.97,239.6L330.52,237.09L331.81,234.58L332.02,229.55L332.44,237.09L332.46,237.09L332.46,239.6L333.09,234.58L333.3,232.07L334.06,227.04L334.08,229.55L337.07,227.04L337.44,229.55L338.78,227.04L339.21,224.53L339.22,227.04L339.95,229.55L340.23,227.04L340.31,232.07L341.04,229.55L342.12,222.02L342.12,224.53L342.54,219.5L343.09,216.99L343.51,222.02L343.53,216.99L344.04,219.5L344.61,216.99L344.62,219.5L345.32,216.99L345.46,219.5L346.12,216.99L347.24,211.97L347.25,209.45L347.3,214.48L348.06,211.97L348.9,206.94L349.98,204.43L351.12,189.36L351.23,191.87L352.89,189.36L353.17,186.84L354.21,184.33L354.21,186.84L354.35,201.92L354.35,204.43L354.36,201.92L354.47,206.94L355.9,204.43L356.8,201.92L356.81,204.43L358.6,201.92L358.6,204.43L359.01,201.92L361.37,199.4L361.37,201.92L362.02,201.92L362.6,199.4L363.33,189.36L363.4,191.87L364.55,189.36L364.64,184.33L365.07,199.4L365.43,196.89L365.65,199.4L366.59,196.89L367.39,186.84L367.6,184.33L368.17,196.89L368.27,189.36L368.45,186.84L369.15,201.92L369.37,199.4L370.19,224.53L370.26,222.02L370.95,237.09L371.32,234.58L372.09,237.09L374.46,234.58L375.06,227.04L375.08,229.55L375.32,232.07L378.77,229.55L378.78,232.07L379.48,227.04L380.36,229.55L381.45,227.04L382.34,224.53L382.34,227.04L384.14,224.53L384.28,219.5L385.27,222.02L385.8,214.48L385.81,211.97L385.81,204.43L389.46,206.94L390.51,196.89L392.56,194.38L393.05,189.36L393.05,191.87L393.05,194.38L395.08,189.36L395.52,186.84L398.21,181.82L398.39,179.31L398.95,176.79L398.95,179.31L399.12,181.82L399.7,194.38L399.83,191.87L400.41,189.36L400.46,191.87L400.77,179.31L401.16,176.79L401.34,169.26L401.53,179.31L401.54,181.82L401.54,184.33L402.28,171.77L402.41,169.26L403.21,186.84L403.37,184.33L403.49,181.82L403.5,191.87L404.11,189.36L404.37,186.84L405.07,184.33L405.09,181.82L405.5,196.89L405.98,191.87L406.01,189.36L406.39,174.28L406.57,201.92L406.87,199.4L407.3,184.33L407.44,194.38L407.44,196.89L407.49,201.92L408.04,194.38L408.08,196.89L408.67,194.38L408.8,201.92L409.36,189.36L409.43,186.84L409.49,189.36L409.85,174.28L409.86,171.77L409.89,164.23L410.02,206.94L410.33,196.89L410.72,194.38L411.14,189.36L411.36,196.89L411.4,194.38L411.79,191.87L412.43,199.4L412.76,201.92L413.05,204.43L413.37,194.38L413.72,196.89L413.87,209.45L414.33,206.94L414.72,204.43L415.37,216.99L415.94,214.48L416.28,216.99L416.65,206.94L416.66,204.43L416.9,196.89L417.6,199.4L417.73,211.97L418.03,194.38L418.19,199.4L418.36,201.92L418.57,199.4L418.73,206.94L419.86,204.43L419.99,209.45L420.15,204.43L420.8,201.92L420.95,204.43L421.13,199.4L421.46,196.89L421.49,204.43L421.88,199.4L422.56,196.89L423.06,194.38L423.06,196.89L423.06,199.4L423.58,194.38L423.58,191.87L423.58,189.36L423.62,199.4L423.75,191.87L424.58,189.36L424.8,181.82L425,194.38L425.13,196.89L425.51,214.48L425.79,209.45L425.89,211.97L426.3,204.43L426.31,216.99L426.45,214.48L426.71,211.97L426.76,214.48L427.47,206.94L427.59,204.43L428.16,222.02L428.27,222.02L428.42,219.5L428.52,204.43L428.54,222.02L429.21,209.45L429.36,206.94L429.49,211.97L429.82,199.4L430.08,201.92L430.6,224.53L430.76,222.02L431.17,224.53L431.6,211.97L431.88,214.48L432.12,211.97L432.12,214.48L432.55,209.45L432.56,209.45L433.64,206.94L434.22,201.92L434.22,204.43L435.01,201.92L435.05,199.4L435.08,219.5L435.47,216.99L436,219.5L436.11,222.02L436.27,209.45L436.28,206.94L436.68,201.92L436.72,206.94L436.93,209.45L436.95,206.94L437.65,224.53L437.65,222.02L437.94,224.53L438.24,216.99L438.51,222.02L438.81,224.53L439.17,227.04L439.49,216.99L439.49,219.5L439.88,216.99L440.94,209.45L441.26,211.97L441.28,209.45L441.42,219.5L441.84,219.5L442.12,216.99L442.13,219.5L442.39,214.48L442.64,219.5L442.93,216.99L443.23,227.04L443.48,222.02L443.78,224.53L444.43,219.5L444.43,222.02L444.67,219.5L444.84,211.97L444.85,222.02L445.02,216.99L445.71,219.5L445.71,216.99L446.24,227.04L446.63,224.53L446.92,222.02L446.93,227.04L447.21,224.53L447.49,222.02L448.14,219.5L448.14,222.02L448.3,224.53L448.31,222.02L448.45,234.58L448.98,232.07L449.04,229.55L449.12,227.04L449.69,234.58L449.71,232.07L449.81,234.58L450.5,222.02L450.51,232.07L450.51,234.58L450.51,232.07L450.64,237.09L451.21,234.58L451.46,232.07L451.46,237.09L452.2,234.58L452.3,237.09L452.32,242.12L453.01,237.09L453.82,234.58L453.94,237.09L454.58,234.58L454.73,229.55L454.78,242.12L454.81,242.12L454.81,244.63L455.49,234.58L455.5,242.12L455.5,244.63L456.17,239.6L456.2,242.12L456.29,244.63L456.47,237.09L456.6,239.6L457.14,237.09L457.14,239.6L457.85,229.55L457.87,232.07L458.12,234.58L458.44,239.6L458.65,232.07L459.25,229.55L459.52,234.58L459.53,232.07L460.46,229.55L460.46,232.07L461.05,227.04L461.19,227.04L461.69,224.53L462.14,219.5L462.41,224.53L462.53,222.02L462.54,219.5L463.43,222.02L464.04,219.5L464.33,229.55L464.37,227.04L465.05,234.58L465.3,232.07L465.3,229.55L465.3,232.07L466.01,219.5L466.05,227.04L466.3,224.53L466.95,227.04L467.3,224.53L467.3,227.04L467.52,219.5L467.54,227.04L468.2,224.53L468.34,237.09L468.95,234.58L468.96,232.07L469.06,229.55L469.59,244.63L470.34,242.12L470.72,244.63L470.75,242.12L471.39,239.6L471.92,244.63L472.68,242.12L473.11,237.09L473.5,239.6L473.58,242.12L473.93,237.09L473.99,242.12L474.01,244.63L474.04,239.6L474.75,242.12L474.84,239.6L475.17,234.58L475.17,237.09L475.84,239.6L475.97,234.58L476.44,239.6L477.29,237.09L478.13,234.58L478.13,237.09L478.13,234.58L478.17,239.6L478.71,239.6L479.57,237.09L479.67,232.07L479.69,239.6L479.82,234.58L480.64,237.09L481.21,227.04L481.53,224.53L482.03,227.04L482.21,224.53L482.21,222.02L482.83,211.97L482.84,227.04L482.93,224.53L483.17,222.02L483.45,219.5L483.45,224.53L483.45,227.04L484.03,224.53L484.26,227.04L484.37,224.53L484.68,232.07L485.31,234.58L485.78,229.55L485.9,234.58L485.9,237.09L485.9,234.58L486.28,242.12L486.56,242.12L486.72,239.6L487.31,237.09L487.4,239.6L487.42,242.12L487.61,234.58L487.75,237.09L488.38,234.58L489.21,242.12L489.25,239.6L489.48,242.12L489.91,237.09L490.17,239.6L490.49,232.07L490.57,237.09L491.33,234.58L491.7,239.6L492.13,227.04L492.67,224.53L492.81,237.09L493.39,229.55L493.94,227.04L494.68,222.02L495.07,224.53L495.07,227.04L496.01,224.53L496.26,229.55L496.69,219.5L496.74,227.04L496.82,224.53L497.22,227.04L497.52,224.53L498.89,222.02L500.03,211.97L500.13,214.48L500.13,216.99L500.13,219.5L500.3,211.97L500.34,211.97L502.5,214.48L502.89,209.45L502.92,227.04L503.19,227.04L503.19,229.55L504.01,222.02L504.02,224.53L504.29,227.04L504.98,211.97L505.03,214.48L505.13,216.99L505.23,214.48L505.68,222.02L505.83,214.48L506.24,211.97L506.76,206.94L506.77,209.45L506.79,211.97L506.95,206.94L506.95,211.97L508.82,209.45L508.82,211.97L510.57,209.45L512.09,196.89L512.13,194.38L512.14,191.87L512.15,199.4L512.59,196.89L512.91,194.38L514.41,189.36L514.64,186.84L514.64,189.36L515.12,181.82L516.24,179.31L516.88,169.26L516.89,166.74L516.89,169.26L517.47,154.18L517.56,154.18L517.82,151.67L517.82,154.18L518.26,141.62L518.55,141.62L518.66,139.11L518.66,141.62L519.39,134.08L519.47,136.6L520.21,124.03L522.47,121.52L523.7,103.93L524.63,101.42L526.29,96.4L528.06,93.88L528.98,81.32L529.29,78.81L529.62,73.79L530.16,71.27L530.18,73.79L530.61,63.74L531.24,61.22L531.24,63.74L531.51,61.22L532.01,58.71L533.5,46.15L534.73,43.64L535.4,38.61L536.12,36.1L537.16,33.59L537.17,36.1L539.05,26.05L539.05,26.05L539.05,23.54L539.53,18.51L539.53,21.02L539.53,23.54L539.65,16L540,21.02" style="fill: rgb(44, 160, 44); fill-opacity: 0.5; stroke-width: 0;"/></g></g><g class="errorbars"/><g class="lines"><path class="js-line" d="M0,317.49L0.1,320L1,317.49L1.67,320L1.77,317.49L1.77,320L3,317.49L3.73,320L4.57,317.49L4.57,320L4.67,320L5.38,317.49L5.38,320L5.95,320L6.77,317.49L6.77,320L7.33,320L8.83,317.49L8.83,320L9.45,317.49L9.66,320L11.33,317.49L11.33,320L14.1,317.49L14.1,320L21.29,317.49L21.29,320L21.48,317.49L21.48,320L23.05,317.49L23.05,314.98L23.19,317.49L24.3,320L25.96,317.49L25.96,320L27.24,314.98L27.24,317.49L27.24,320L30,317.49L30,320L30.14,320L31.35,317.49L31.35,320L31.93,320L32.8,317.49L32.8,320L33.56,317.49L33.56,320L34.29,317.49L34.37,320L36.91,314.98L37.33,317.49L37.45,314.98L37.45,317.49L38.71,320L39.41,317.49L39.41,320L41.08,317.49L41.08,320L42.14,317.49L42.14,320L42.61,309.95L42.72,312.46L43.23,314.98L43.66,317.49L44.09,314.98L44.1,317.49L45.32,314.98L49.07,312.46L49.07,314.98L49.36,317.49L50.13,314.98L51.01,320L52.39,317.49L52.78,320L55.84,317.49L55.84,320L55.84,317.49L57.3,314.98L57.61,317.49L58.38,314.98L59.17,312.46L59.18,314.98L59.72,320L61.52,317.49L61.81,320L62.47,317.49L62.62,314.98L63.56,317.49L63.73,312.46L63.86,314.98L64.67,317.49L64.97,314.98L64.97,317.49L65.5,314.98L65.58,309.95L65.68,320L65.77,320L66.34,317.49L67.17,314.98L67.17,317.49L67.88,312.46L67.88,314.98L68.57,312.46L72.97,309.95L73.43,307.44L75.07,320L76.04,317.49L76.04,320L76.98,317.49L78.15,314.98L78.21,317.49L79.24,312.46L79.64,309.95L80.14,307.44L80.14,309.95L80.16,312.46L81.27,307.44L81.29,309.95L82.09,307.44L82.09,309.95L82.38,312.46L82.94,309.95L82.94,312.46L82.94,309.95L84.7,312.46L84.88,309.95L84.88,312.46L85.75,309.95L85.98,312.46L86.68,309.95L87.13,307.44L87.88,309.95L88.58,307.44L88.86,309.95L91.07,307.44L91.07,309.95L91.64,307.44L91.66,309.95L93.01,312.46L93.5,309.95L93.7,312.46L93.84,309.95L93.84,312.46L94.83,309.95L94.84,294.88L95.52,307.44L95.79,309.95L95.79,312.46L95.94,307.44L96.33,307.44L96.9,304.93L97.59,307.44L97.77,304.93L98.28,299.9L98.44,304.93L98.53,307.44L99.14,297.39L99.26,302.41L100.2,304.93L100.62,297.39L100.62,297.39L101.14,299.9L102.16,287.34L103.09,284.83L104.09,287.34L104.37,284.83L104.49,289.85L105.07,289.85L105.19,287.34L105.48,297.39L105.61,294.88L106.24,292.36L106.73,282.31L106.73,284.83L107.1,287.34L107.14,289.85L107.97,287.34L108.09,284.83L108.1,287.34L109.36,289.85L110.05,299.9L111.12,297.39L111.12,299.9L113.22,297.39L113.22,294.88L113.22,299.9L115.15,297.39L115.16,299.9L115.17,297.39L116.2,299.9L116.25,297.39L118.05,294.88L119.02,299.9L119.15,297.39L119.18,299.9L119.98,297.39L120.3,299.9L120.98,297.39L121.01,299.9L122.6,297.39L122.62,299.9L124.42,297.39L124.52,299.9L124.9,297.39L125.37,294.88L125.49,297.39L126.35,294.88L126.36,297.39L126.76,287.34L126.89,287.34L127.27,284.83L127.61,297.39L127.61,297.39L128.57,294.88L128.67,299.9L128.85,299.9L129.53,297.39L130.48,294.88L130.6,292.36L131.15,294.88L131.32,292.36L131.42,289.85L132.13,284.83L132.16,287.34L132.46,284.83L132.67,287.34L133.11,284.83L133.12,282.31L133.12,274.78L133.26,289.85L134.5,287.34L134.61,284.83L134.62,287.34L136.01,284.83L136.76,294.88L137.94,292.36L138.34,294.88L139.89,292.36L140.95,289.85L140.95,292.36L142.23,284.83L142.24,287.34L142.49,289.85L142.51,292.36L142.9,287.34L143.22,289.85L144.18,292.36L144.35,297.39L145.04,294.88L145.13,292.36L146.69,289.85L147.21,282.31L147.22,287.34L147.22,289.85L147.27,294.88L149.02,292.36L149.12,294.88L149.16,292.36L150.7,289.85L150.71,292.36L152.04,289.85L152.04,292.36L152.45,289.85L152.89,287.34L153.56,284.83L153.59,287.34L156.36,289.85L159.32,284.83L160.03,282.31L160.78,284.83L161.47,282.31L161.48,284.83L164.08,282.31L164.52,284.83L165.11,282.31L166.3,279.8L166.54,282.31L166.54,279.8L166.57,299.9L166.58,297.39L168.9,294.88L168.91,297.39L171.18,299.9L172.25,297.39L172.25,299.9L172.86,297.39L172.89,299.9L175.04,297.39L175.19,294.88L176.54,297.39L176.55,299.9L177.12,279.8L177.23,289.85L178.71,287.34L179.03,279.8L180.64,277.29L181.13,274.78L181.14,277.29L183.28,274.78L183.75,277.29L185.04,274.78L185.33,277.29L185.62,274.78L187.74,272.26L190.64,269.75L190.74,272.26L191.62,269.75L192.3,272.26L192.34,267.24L192.55,269.75L193.41,272.26L193.66,282.31L194.46,284.83L194.54,287.34L194.63,282.31L197.97,279.8L198.51,282.31L199.18,279.8L199.32,277.29L201.41,274.78L204.28,272.26L205.82,269.75L205.84,267.24L207.12,264.73L207.88,267.24L207.9,264.73L208.19,282.31L208.2,279.8L209.15,282.31L209.57,284.83L209.58,282.31L210.69,284.83L211.14,289.85L211.5,287.34L211.52,289.85L212.03,282.31L212.07,287.34L212.62,289.85L212.65,292.36L213.53,289.85L214.67,287.34L214.69,289.85L216.61,284.83L216.89,282.31L219.18,279.8L220.27,282.31L221.81,279.8L222.28,277.29L224.52,272.26L224.53,274.78L225.36,267.24L227.14,264.73L227.42,257.19L227.93,254.68L228.97,249.65L229.01,252.17L231.2,234.58L231.27,237.09L231.28,239.6L231.43,232.07L232,234.58L232.1,232.07L233.36,229.55L233.5,227.04L233.77,237.09L233.77,239.6L233.93,252.17L234.2,247.14L234.69,244.63L235.7,287.34L235.93,284.83L236.11,282.31L236.12,279.8L236.7,287.34L236.79,284.83L236.98,282.31L237.88,289.85L237.89,287.34L237.89,284.83L238.61,294.88L238.85,292.36L238.85,294.88L239.04,284.83L239.57,292.36L239.81,289.85L239.96,292.36L240.11,289.85L240.78,287.34L240.81,284.83L241.6,287.34L242.08,282.31L242.7,279.8L244.38,272.26L244.38,274.78L245.81,267.24L246.73,269.75L250.26,267.24L250.36,264.73L250.6,262.21L250.9,264.73L252.45,262.21L253.36,257.19L253.7,254.68L254.08,252.17L255.63,249.65L256.05,242.12L256.25,249.65L256.25,252.17L257.44,239.6L259.45,237.09L259.51,232.07L260.51,229.55L262.11,224.53L262.14,227.04L262.16,244.63L262.77,234.58L263.04,232.07L263.04,234.58L263.18,232.07L265.26,229.55L266.9,227.04L267.09,224.53L268.79,222.02L268.79,224.53L268.79,222.02L268.79,224.53L269.73,222.02L269.91,219.5L270.57,222.02L271.49,232.07L271.69,234.58L273.19,232.07L273.7,234.58L275.04,229.55L275.72,227.04L275.72,229.55L276.49,227.04L276.6,222.02L277.72,224.53L278.27,254.68L280.75,252.17L281.22,254.68L281.6,252.17L281.62,254.68L284.36,252.17L285.04,257.19L285.07,254.68L285.18,252.17L285.18,254.68L285.43,254.68L286.1,257.19L286.27,252.17L286.27,254.68L288.56,252.17L288.57,249.65L289.33,247.14L291.3,244.63L291.81,242.12L291.96,234.58L292.01,247.14L292.35,242.12L292.79,244.63L293.25,249.65L293.47,247.14L293.72,244.63L294.5,277.29L294.72,274.78L295.67,267.24L296.28,264.73L297.25,252.17L298.18,249.65L299.16,244.63L299.22,242.12L300.63,232.07L300.65,229.55L300.95,211.97L303.09,209.45L304.95,206.94L304.95,204.43L308.23,206.94L308.31,204.43L309.94,199.4L310.5,196.89L311.89,189.36L311.89,186.84L312.03,181.82L312.41,234.58L312.71,232.07L313.14,229.55L313.16,237.09L313.4,234.58L313.55,232.07L314.55,219.5L314.66,222.02L316.94,219.5L317.42,216.99L317.71,219.5L318.64,216.99L319.02,219.5L320.14,216.99L321.55,219.5L321.58,227.04L322.21,224.53L322.9,227.04L323.33,242.12L323.74,244.63L323.87,242.12L324.17,249.65L324.36,247.14L324.73,249.65L325.82,242.12L326.08,239.6L326.94,237.09L326.97,234.58L327.78,229.55L328.03,232.07L328.61,234.58L329.01,232.07L329.01,234.58L329.7,232.07L329.97,234.58L329.97,239.6L330.52,237.09L331.81,234.58L332.02,229.55L332.44,237.09L332.46,237.09L332.46,239.6L333.09,234.58L333.3,232.07L334.06,227.04L334.08,229.55L337.07,227.04L337.44,229.55L338.78,227.04L339.21,224.53L339.22,227.04L339.95,229.55L340.23,227.04L340.31,232.07L341.04,229.55L342.12,222.02L342.12,224.53L342.54,219.5L343.09,216.99L343.51,222.02L343.53,216.99L344.04,219.5L344.61,216.99L344.62,219.5L345.32,216.99L345.46,219.5L346.12,216.99L347.24,211.97L347.25,209.45L347.3,214.48L348.06,211.97L348.9,206.94L349.98,204.43L351.12,189.36L351.23,191.87L352.89,189.36L353.17,186.84L354.21,184.33L354.21,186.84L354.35,201.92L354.35,204.43L354.36,201.92L354.47,206.94L355.9,204.43L356.8,201.92L356.81,204.43L358.6,201.92L358.6,204.43L359.01,201.92L361.37,199.4L361.37,201.92L362.02,201.92L362.6,199.4L363.33,189.36L363.4,191.87L364.55,189.36L364.64,184.33L365.07,199.4L365.43,196.89L365.65,199.4L366.59,196.89L367.39,186.84L367.6,184.33L368.17,196.89L368.27,189.36L368.45,186.84L369.15,201.92L369.37,199.4L370.19,224.53L370.26,222.02L370.95,237.09L371.32,234.58L372.09,237.09L374.46,234.58L375.06,227.04L375.08,229.55L375.32,232.07L378.77,229.55L378.78,232.07L379.48,227.04L380.36,229.55L381.45,227.04L382.34,224.53L382.34,227.04L384.14,224.53L384.28,219.5L385.27,222.02L385.8,214.48L385.81,211.97L385.81,204.43L389.46,206.94L390.51,196.89L392.56,194.38L393.05,189.36L393.05,191.87L393.05,194.38L395.08,189.36L395.52,186.84L398.21,181.82L398.39,179.31L398.95,176.79L398.95,179.31L399.12,181.82L399.7,194.38L399.83,191.87L400.41,189.36L400.46,191.87L400.77,179.31L401.16,176.79L401.34,169.26L401.53,179.31L401.54,181.82L401.54,184.33L402.28,171.77L402.41,169.26L403.21,186.84L403.37,184.33L403.49,181.82L403.5,191.87L404.11,189.36L404.37,186.84L405.07,184.33L405.09,181.82L405.5,196.89L405.98,191.87L406.01,189.36L406.39,174.28L406.57,201.92L406.87,199.4L407.3,184.33L407.44,194.38L407.44,196.89L407.49,201.92L408.04,194.38L408.08,196.89L408.67,194.38L408.8,201.92L409.36,189.36L409.43,186.84L409.49,189.36L409.85,174.28L409.86,171.77L409.89,164.23L410.02,206.94L410.33,196.89L410.72,194.38L411.14,189.36L411.36,196.89L411.4,194.38L411.79,191.87L412.43,199.4L412.76,201.92L413.05,204.43L413.37,194.38L413.72,196.89L413.87,209.45L414.33,206.94L414.72,204.43L415.37,216.99L415.94,214.48L416.28,216.99L416.65,206.94L416.66,204.43L416.9,196.89L417.6,199.4L417.73,211.97L418.03,194.38L418.19,199.4L418.36,201.92L418.57,199.4L418.73,206.94L419.86,204.43L419.99,209.45L420.15,204.43L420.8,201.92L420.95,204.43L421.13,199.4L421.46,196.89L421.49,204.43L421.88,199.4L422.56,196.89L423.06,194.38L423.06,196.89L423.06,199.4L423.58,194.38L423.58,191.87L423.58,189.36L423.62,199.4L423.75,191.87L424.58,189.36L424.8,181.82L425,194.38L425.13,196.89L425.51,214.48L425.79,209.45L425.89,211.97L426.3,204.43L426.31,216.99L426.45,214.48L426.71,211.97L426.76,214.48L427.47,206.94L427.59,204.43L428.16,222.02L428.27,222.02L428.42,219.5L428.52,204.43L428.54,222.02L429.21,209.45L429.36,206.94L429.49,211.97L429.82,199.4L430.08,201.92L430.6,224.53L430.76,222.02L431.17,224.53L431.6,211.97L431.88,214.48L432.12,211.97L432.12,214.48L432.55,209.45L432.56,209.45L433.64,206.94L434.22,201.92L434.22,204.43L435.01,201.92L435.05,199.4L435.08,219.5L435.47,216.99L436,219.5L436.11,222.02L436.27,209.45L436.28,206.94L436.68,201.92L436.72,206.94L436.93,209.45L436.95,206.94L437.65,224.53L437.65,222.02L437.94,224.53L438.24,216.99L438.51,222.02L438.81,224.53L439.17,227.04L439.49,216.99L439.49,219.5L439.88,216.99L440.94,209.45L441.26,211.97L441.28,209.45L441.42,219.5L441.84,219.5L442.12,216.99L442.13,219.5L442.39,214.48L442.64,219.5L442.93,216.99L443.23,227.04L443.48,222.02L443.78,224.53L444.43,219.5L444.43,222.02L444.67,219.5L444.84,211.97L444.85,222.02L445.02,216.99L445.71,219.5L445.71,216.99L446.24,227.04L446.63,224.53L446.92,222.02L446.93,227.04L447.21,224.53L447.49,222.02L448.14,219.5L448.14,222.02L448.3,224.53L448.31,222.02L448.45,234.58L448.98,232.07L449.04,229.55L449.12,227.04L449.69,234.58L449.71,232.07L449.81,234.58L450.5,222.02L450.51,232.07L450.51,234.58L450.51,232.07L450.64,237.09L451.21,234.58L451.46,232.07L451.46,237.09L452.2,234.58L452.3,237.09L452.32,242.12L453.01,237.09L453.82,234.58L453.94,237.09L454.58,234.58L454.73,229.55L454.78,242.12L454.81,242.12L454.81,244.63L455.49,234.58L455.5,242.12L455.5,244.63L456.17,239.6L456.2,242.12L456.29,244.63L456.47,237.09L456.6,239.6L457.14,237.09L457.14,239.6L457.85,229.55L457.87,232.07L458.12,234.58L458.44,239.6L458.65,232.07L459.25,229.55L459.52,234.58L459.53,232.07L460.46,229.55L460.46,232.07L461.05,227.04L461.19,227.04L461.69,224.53L462.14,219.5L462.41,224.53L462.53,222.02L462.54,219.5L463.43,222.02L464.04,219.5L464.33,229.55L464.37,227.04L465.05,234.58L465.3,232.07L465.3,229.55L465.3,232.07L466.01,219.5L466.05,227.04L466.3,224.53L466.95,227.04L467.3,224.53L467.3,227.04L467.52,219.5L467.54,227.04L468.2,224.53L468.34,237.09L468.95,234.58L468.96,232.07L469.06,229.55L469.59,244.63L470.34,242.12L470.72,244.63L470.75,242.12L471.39,239.6L471.92,244.63L472.68,242.12L473.11,237.09L473.5,239.6L473.58,242.12L473.93,237.09L473.99,242.12L474.01,244.63L474.04,239.6L474.75,242.12L474.84,239.6L475.17,234.58L475.17,237.09L475.84,239.6L475.97,234.58L476.44,239.6L477.29,237.09L478.13,234.58L478.13,237.09L478.13,234.58L478.17,239.6L478.71,239.6L479.57,237.09L479.67,232.07L479.69,239.6L479.82,234.58L480.64,237.09L481.21,227.04L481.53,224.53L482.03,227.04L482.21,224.53L482.21,222.02L482.83,211.97L482.84,227.04L482.93,224.53L483.17,222.02L483.45,219.5L483.45,224.53L483.45,227.04L484.03,224.53L484.26,227.04L484.37,224.53L484.68,232.07L485.31,234.58L485.78,229.55L485.9,234.58L485.9,237.09L485.9,234.58L486.28,242.12L486.56,242.12L486.72,239.6L487.31,237.09L487.4,239.6L487.42,242.12L487.61,234.58L487.75,237.09L488.38,234.58L489.21,242.12L489.25,239.6L489.48,242.12L489.91,237.09L490.17,239.6L490.49,232.07L490.57,237.09L491.33,234.58L491.7,239.6L492.13,227.04L492.67,224.53L492.81,237.09L493.39,229.55L493.94,227.04L494.68,222.02L495.07,224.53L495.07,227.04L496.01,224.53L496.26,229.55L496.69,219.5L496.74,227.04L496.82,224.53L497.22,227.04L497.52,224.53L498.89,222.02L500.03,211.97L500.13,214.48L500.13,216.99L500.13,219.5L500.3,211.97L500.34,211.97L502.5,214.48L502.89,209.45L502.92,227.04L503.19,227.04L503.19,229.55L504.01,222.02L504.02,224.53L504.29,227.04L504.98,211.97L505.03,214.48L505.13,216.99L505.23,214.48L505.68,222.02L505.83,214.48L506.24,211.97L506.76,206.94L506.77,209.45L506.79,211.97L506.95,206.94L506.95,211.97L508.82,209.45L508.82,211.97L510.57,209.45L512.09,196.89L512.13,194.38L512.14,191.87L512.15,199.4L512.59,196.89L512.91,194.38L514.41,189.36L514.64,186.84L514.64,189.36L515.12,181.82L516.24,179.31L516.88,169.26L516.89,166.74L516.89,169.26L517.47,154.18L517.56,154.18L517.82,151.67L517.82,154.18L518.26,141.62L518.55,141.62L518.66,139.11L518.66,141.62L519.39,134.08L519.47,136.6L520.21,124.03L522.47,121.52L523.7,103.93L524.63,101.42L526.29,96.4L528.06,93.88L528.98,81.32L529.29,78.81L529.62,73.79L530.16,71.27L530.18,73.79L530.61,63.74L531.24,61.22L531.24,63.74L531.51,61.22L532.01,58.71L533.5,46.15L534.73,43.64L535.4,38.61L536.12,36.1L537.16,33.59L537.17,36.1L539.05,26.05L539.05,26.05L539.05,23.54L539.53,18.51L539.53,21.02L539.53,23.54L539.65,16L540,21.02" style="vector-effect: none; fill: none; stroke: rgb(44, 160, 44); stroke-opacity: 1; stroke-width: 2px; opacity: 1;"/></g><g class="points"/><g class="text"/></g></g></g></g><g class="zerolinelayer-above"/><path class="xlines-above crisp" d="M0,0" style="fill: none;"/><path class="ylines-above crisp" d="M0,0" style="fill: none;"/><g class="overlines-above"/><g class="xaxislayer-above"><g class="xtick"><text text-anchor="middle" x="0" y="439" transform="translate(96.5,0)" style="font-family: 'Open Sans'; font-size: 18px; fill: rgb(255, 255, 255); fill-opacity: 1; white-space: pre;">2016</text></g><g class="xtick"><text text-anchor="middle" x="0" y="439" style="font-family: 'Open Sans'; font-size: 18px; fill: rgb(255, 255, 255); fill-opacity: 1; white-space: pre;" transform="translate(197.56,0)">2018</text></g><g class="xtick"><text text-anchor="middle" x="0" y="439" style="font-family: 'Open Sans'; font-size: 18px; fill: rgb(255, 255, 255); fill-opacity: 1; white-space: pre;" transform="translate(298.47,0)">2020</text></g><g class="xtick"><text text-anchor="middle" x="0" y="439" style="font-family: 'Open Sans'; font-size: 18px; fill: rgb(255, 255, 255); fill-opacity: 1; white-space: pre;" transform="translate(399.52,0)">2022</text></g><g class="xtick"><text text-anchor="middle" x="0" y="439" style="font-family: 'Open Sans'; font-size: 18px; fill: rgb(255, 255, 255); fill-opacity: 1; white-space: pre;" transform="translate(500.44,0)">2024</text></g><g class="xtick"><text text-anchor="middle" x="0" y="439" style="font-family: 'Open Sans'; font-size: 18px; fill: rgb(255, 255, 255); fill-opacity: 1; white-space: pre;" transform="translate(601.49,0)">2026</text></g></g><g class="yaxislayer-above"><g class="ytick"><text text-anchor="end" x="79" y="6.3" transform="translate(0,420)" style="font-family: 'Open Sans'; font-size: 18px; fill: rgb(255, 255, 255); fill-opacity: 1; white-space: pre;">0</text></g><g class="ytick"><text text-anchor="end" x="79" y="6.3" style="font-family: 'Open Sans'; font-size: 18px; fill: rgb(255, 255, 255); fill-opacity: 1; white-space: pre;" transform="translate(0,369.75)">20</text></g><g class="ytick"><text text-anchor="end" x="79" y="6.3" style="font-family: 'Open Sans'; font-size: 18px; fill: rgb(255, 255, 255); fill-opacity: 1; white-space: pre;" transform="translate(0,319.5)">40</text></g><g class="ytick"><text text-anchor="end" x="79" y="6.3" style="font-family: 'Open Sans'; font-size: 18px; fill: rgb(255, 255, 255); fill-opacity: 1; white-space: pre;" transform="translate(0,269.26)">60</text></g><g class="ytick"><text text-anchor="end" x="79" y="6.3" style="font-family: 'Open Sans'; font-size: 18px; fill: rgb(255, 255, 255); fill-opacity: 1; white-space: pre;" transform="translate(0,219.01)">80</text></g><g class="ytick"><text text-anchor="end" x="79" y="6.3" style="font-family: 'Open Sans'; font-size: 18px; fill: rgb(255, 255, 255); fill-opacity: 1; white-space: pre;" transform="translate(0,168.76)">100</text></g><g class="ytick"><text text-anchor="end" x="79" y="6.3" style="font-family: 'Open Sans'; font-size: 18px; fill: rgb(255, 255, 255); fill-opacity: 1; white-space: pre;" transform="translate(0,118.51)">120</text></g></g><g class="overaxes-above"/></g></g><g class="polarlayer"/><g class="smithlayer"/><g class="ternarylayer"/><g class="geolayer"/><g class="funnelarealayer"/><g class="pielayer"/><g class="iciclelayer"/><g class="treemaplayer"/><g class="sunburstlayer"/><g class="glimages"/><defs id="topdefs-c00b60"><g class="clips"/></defs><g class="layer-above"><g class="imagelayer"/><g class="shapelayer"/></g><g class="infolayer"><g class="g-gtitle"><text class="gtitle" x="35" y="50" text-anchor="start" dy="0em" style="opacity: 1; font-family: 'Open Sans'; font-size: 25px; fill: rgb(255, 255, 255); fill-opacity: 1; white-space: pre;">MultiQC/MultiQC - Open Pull Requests Over Time</text></g><g class="g-xtitle"><text class="xtitle" x="350" y="472.9" text-anchor="middle" style="opacity: 1; font-family: 'Open Sans'; font-size: 22px; fill: rgb(255, 255, 255); fill-opacity: 1; white-space: pre;">Date</text></g><g class="g-ytitle"><text class="ytitle" transform="rotate(-90,29.799999999999997,260)" x="29.799999999999997" y="260" text-anchor="middle" style="opacity: 1; font-family: 'Open Sans'; font-size: 22px; fill: rgb(255, 255, 255); fill-opacity: 1; white-space: pre;">Number of Open PRs</text></g></g></svg>