<svg class="main-svg" xmlns="http://www.w3.org/2000/svg" xmlns:xlink="http://www.w3.org/1999/xlink" width="700" height="500" style="" viewBox="0 0 700 500"><rect x="0" y="0" width="700" height="500" style="fill: rgb(0, 0, 0); fill-opacity: 0;"/><defs id="defs-263cd2"><g class="clips"><clipPath id="clip263cd2xyplot" class="plotclip"><rect width="540" height="320"/></clipPath><clipPath class="axesclip" id="clip263cd2x"><rect x="80" y="0" width="540" height="500"/></clipPath><clipPath class="axesclip" id="clip263cd2y"><rect x="0" y="100" width="700" height="320"/></clipPath><clipPath class="axesclip" id="clip263cd2xy"><rect x="80" y="100" width="540" height="320"/></clipPath></g><g class="gradients"/><g class="patterns"/></defs><g class="bglayer"><rect class="bg" x="80" y="100" width="540" height="320" style="fill: rgb(0, 0, 0); fill-opacity: 0; stroke-width: 0;"/></g><g class="layer-below"><g class="imagelayer"/><g class="shapelayer"/></g><g class="cartesianlayer"><g class="subplot xy"><g class="layer-subplot"><g class="shapelayer"/><g class="imagelayer"/></g><g class="minor-gridlayer"><g class="x"/><g class="y"/></g><g class="gridlayer"><g class="x"><path class="xgrid crisp" transform="translate(96.53,0)" d="M0,100v320" style="stroke: rgb(255, 255, 255); stroke-opacity: 1; stroke-width: 1px;"/><path class="xgrid crisp" transform="translate(197.76999999999998,0)" d="M0,100v320" style="stroke: rgb(255, 255, 255); stroke-opacity: 1; stroke-width: 1px;"/><path class="xgrid crisp" transform="translate(298.86,0)" d="M0,100v320" style="stroke: rgb(255, 255, 255); stroke-opacity: 1; stroke-width: 1px;"/><path class="xgrid crisp" transform="translate(400.09,0)" d="M0,100v320" style="stroke: rgb(255, 255, 255); stroke-opacity: 1; stroke-width: 1px;"/><path class="xgrid crisp" transform="translate(501.18,0)" d="M0,100v320" style="stroke: rgb(255, 255, 255); stroke-opacity: 1; stroke-width: 1px;"/><path class="xgrid crisp" transform="translate(602.42,0)" d="M0,100v320" style="stroke: rgb(255, 255, 255); stroke-opacity: 1; stroke-width: 1px;"/></g><g class="y"><path class="ygrid crisp" transform="translate(0,383.85)" d="M80,0h540" style="stroke: rgb(255, 255, 255); stroke-opacity: 1; stroke-width: 1px;"/><path class="ygrid crisp" transform="translate(0,347.71000000000004)" d="M80,0h540" style="stroke: rgb(255, 255, 255); stroke-opacity: 1; stroke-width: 1px;"/><path class="ygrid crisp" transform="translate(0,311.56)" d="M80,0h540" style="stroke: rgb(255, 255, 255); stroke-opacity: 1; stroke-width: 1px;"/><path class="ygrid crisp" transform="translate(0,275.40999999999997)" d="M80,0h540" style="stroke: rgb(255, 255, 255); stroke-opacity: 1; stroke-width: 1px;"/><path class="ygrid crisp" transform="translate(0,239.26)" d="M80,0h540" style="stroke: rgb(255, 255, 255); stroke-opacity: 1; stroke-width: 1px;"/><path class="ygrid crisp" transform="translate(0,203.12)" d="M80,0h540" style="stroke: rgb(255, 255, 255); stroke-opacity: 1; stroke-width: 1px;"/><path class="ygrid crisp" transform="translate(0,166.97)" d="M80,0h540" style="stroke: rgb(255, 255, 255); stroke-opacity: 1; stroke-width: 1px;"/><path class="ygrid crisp" transform="translate(0,130.82)" d="M80,0h540" style="stroke: rgb(255, 255, 255); stroke-opacity: 1; stroke-width: 1px;"/></g></g><g class="zerolinelayer"><path class="yzl zl crisp" transform="translate(0,420)" d="M80,0h540" style="stroke: rgb(255, 255, 255); stroke-opacity: 1; stroke-width: 2px;"/></g><g class="layer-between"><g class="shapelayer"/><g class="imagelayer"/></g><path class="xlines-below"/><path class="ylines-below"/><g class="overlines-below"/><g class="xaxislayer-below"/><g class="yaxislayer-below"/><g class="overaxes-below"/><g class="overplot"><g class="xy" transform="translate(80,100)" clip-path="url(#clip263cd2xyplot)"><g class="scatterlayer mlayer"><g class="trace scatter trace8933c1" style="stroke-miterlimit: 2;"><g class="fills"><g><path class="js-fill" d="M540,320L0,320L0,319.82L3.45,318.55L3.73,318.37L5.66,317.29L5.96,317.11L14.12,315.66L21.33,315.48L21.52,315.3L23.09,315.12L23.09,314.94L26.01,314.76L42.65,310.24L42.66,310.06L42.69,309.7L43.6,309.52L44.17,309.16L45.4,308.98L57.4,307.71L58.48,307.53L65.62,305.36L65.67,305.18L66.46,304.28L67.28,304.1L68.69,303.37L73.1,303.19L77.12,302.29L78.29,302.11L83.08,300.48L83.09,300.3L93.67,298.67L94,298.49L95,297.59L95.01,297.41L95.68,295.06L96.08,294.88L96.5,294.52L97.07,294.34L98.71,293.07L98.85,292.89L99.43,291.99L100.38,291.8L101.5,290.54L101.61,290.36L102.34,289.64L103.28,289.46L106.43,287.47L106.43,287.29L108.28,286.56L110.23,286.38L110.24,286.2L111.32,286.02L118.79,284.76L119.07,284.58L119.38,284.03L120.2,283.85L126.98,282.23L126.98,282.05L127.84,281.32L128.79,281.14L132.69,279.33L133.34,279.15L133.48,278.25L134.73,278.07L134.85,277.89L136.25,277.71L136.78,277.35L138.19,277.17L138.48,276.8L140.14,276.62L149.42,273.55L150.97,273.37L176.88,269.39L176.88,269.21L177.52,268.13L179.02,267.95L179.35,267.22L180.96,267.04L181.45,266.5L183.6,266.32L207.49,263.25L208.18,263.07L208.57,262.16L209.95,261.98L213.91,260.9L215.05,260.72L227.54,258.19L227.58,258.01L228.33,257.46L228.61,257.28L231.13,256.02L231.37,255.84L231.84,254.75L232.41,254.57L232.52,254.39L233.77,254.21L235.71,252.95L236.35,252.77L238.31,251.5L239.27,251.32L239.98,249.87L240.24,249.69L241.24,248.97L242.05,248.79L246.24,247.16L250.71,246.98L251.05,246.62L252.9,246.44L256.51,244.99L256.61,244.81L257.89,243.73L259.9,243.55L259.97,243.19L260.97,243.01L265.73,241.38L267.37,241.2L267.56,241.02L269.26,240.84L269.27,240.66L270.2,240.48L270.39,240.29L271.73,240.11L277.03,239.03L277.09,238.85L292.33,235.78L292.33,235.6L292.87,234.87L293.99,234.69L294.83,233.25L294.85,233.07L297.17,231.26L297.22,231.08L300.59,229.45L301.06,229.27L301.49,227.64L303.62,227.46L311.8,226.02L312.45,225.84L312.61,225.11L313.27,224.93L315.1,223.31L317.5,223.12L317.99,222.76L319.2,222.58L327.52,220.96L327.54,220.78L328.36,220.41L329.59,220.23L334.57,218.43L334.65,218.24L341.86,217.16L341.87,216.98L345.22,215.53L345.93,215.35L350.69,213.55L350.73,213.37L351.74,212.64L353.52,212.46L356.53,211.2L357.43,211.02L363.51,209.75L363.63,209.57L368.42,207.04L368.48,206.86L369.11,205.77L370.03,205.59L372.71,203.97L375.13,203.79L375.72,203.24L379.44,203.06L383.02,201.62L384.82,201.44L384.96,201.07L386.37,200.89L386.5,199.81L390.37,199.63L391.2,199.09L393.26,198.91L397.44,197.82L398.91,197.64L402.16,194.57L402.24,194.39L405.08,188.97L405.74,188.78L408.13,181.92L408.53,181.74L410.58,178.3L410.58,178.12L411.55,175.41L411.86,175.23L414.6,172.52L414.6,172.34L415.04,170.71L415.06,170.53L417.39,168.72L417.4,168.54L417.63,167.82L418.48,167.64L419.46,163.48L420.6,163.3L420.89,162.76L421.54,162.58L424.43,160.05L424.45,159.87L424.5,159.51L425.33,159.32L427.06,156.07L427.06,155.89L427.96,151.55L428.19,151.37L430.31,142.88L430.53,142.7L430.86,141.61L431.52,141.43L432.08,140.53L432.09,140.35L433.32,138.36L434.4,138.18L435.84,136.19L435.95,136.01L439.26,129.32L439.27,129.14L439.94,128.06L439.95,127.88L440.66,125.53L441.1,125.35L442.06,124.44L442.06,124.26L442.91,122.45L443.02,122.27L444.81,119.38L444.81,119.2L445.52,116.67L445.61,116.49L445.81,115.41L446.5,115.22L447.47,113.06L447.6,112.88L448.28,111.61L448.54,111.43L449.29,109.44L449.51,109.26L449.91,107.81L450.35,107.63L451.88,104.92L451.88,104.74L453.39,99.68L453.39,99.5L453.81,98.96L454.62,98.78L455.54,97.87L455.59,97.69L456.3,95.52L456.42,95.34L459.46,86.49L460.06,86.31L462.81,83.41L462.95,83.23L463.36,82.51L464.5,82.33L465.43,81.07L465.45,80.88L465.88,79.98L465.89,79.8L466.55,78.54L466.68,78.35L469.78,74.2L469.78,74.02L470.34,72.39L471.17,72.21L474.76,70.4L474.77,70.22L476.99,65.88L478.13,65.7L479.02,64.8L479.44,64.62L480.67,63.17L481.5,62.99L484.3,60.46L484.89,60.28L488.31,57.57L488.41,57.39L488.62,56.49L489.25,56.3L493.67,51.06L494,50.88L495.56,49.8L496.89,49.62L497.87,46.36L498.1,46.18L501.22,44.2L503.4,44.01L504.08,41.85L504.19,41.66L504.91,41.12L505.18,40.94L505.92,39.5L506.02,39.32L507.14,37.51L507.57,37.33L507.85,36.6L509.72,36.42L512.69,35.52L512.84,35.34L513.82,34.07L514.78,33.89L517.65,32.27L517.79,32.09L518.48,30.46L518.74,30.28L519.57,27.39L519.77,27.21L520.86,25.94L521.01,25.76L521.13,25.22L523.39,25.04L524.63,23.23L525.56,23.05L529.91,21.6L530.23,21.42L530.55,20.88L531.1,20.7L531.55,19.98L532.18,19.8L534.44,18.53L535.68,18.35L536.35,17.81L537.07,17.63L540,16" style="fill: rgb(44, 160, 44); fill-opacity: 0.5; stroke-width: 0;"/></g></g><g class="errorbars"/><g class="lines"><path class="js-line" d="M0,319.82L3.45,318.55L3.73,318.37L5.66,317.29L5.96,317.11L14.12,315.66L21.33,315.48L21.52,315.3L23.09,315.12L23.09,314.94L26.01,314.76L42.65,310.24L42.66,310.06L42.69,309.7L43.6,309.52L44.17,309.16L45.4,308.98L57.4,307.71L58.48,307.53L65.62,305.36L65.67,305.18L66.46,304.28L67.28,304.1L68.69,303.37L73.1,303.19L77.12,302.29L78.29,302.11L83.08,300.48L83.09,300.3L93.67,298.67L94,298.49L95,297.59L95.01,297.41L95.68,295.06L96.08,294.88L96.5,294.52L97.07,294.34L98.71,293.07L98.85,292.89L99.43,291.99L100.38,291.8L101.5,290.54L101.61,290.36L102.34,289.64L103.28,289.46L106.43,287.47L106.43,287.29L108.28,286.56L110.23,286.38L110.24,286.2L111.32,286.02L118.79,284.76L119.07,284.58L119.38,284.03L120.2,283.85L126.98,282.23L126.98,282.05L127.84,281.32L128.79,281.14L132.69,279.33L133.34,279.15L133.48,278.25L134.73,278.07L134.85,277.89L136.25,277.71L136.78,277.35L138.19,277.17L138.48,276.8L140.14,276.62L149.42,273.55L150.97,273.37L176.88,269.39L176.88,269.21L177.52,268.13L179.02,267.95L179.35,267.22L180.96,267.04L181.45,266.5L183.6,266.32L207.49,263.25L208.18,263.07L208.57,262.16L209.95,261.98L213.91,260.9L215.05,260.72L227.54,258.19L227.58,258.01L228.33,257.46L228.61,257.28L231.13,256.02L231.37,255.84L231.84,254.75L232.41,254.57L232.52,254.39L233.77,254.21L235.71,252.95L236.35,252.77L238.31,251.5L239.27,251.32L239.98,249.87L240.24,249.69L241.24,248.97L242.05,248.79L246.24,247.16L250.71,246.98L251.05,246.62L252.9,246.44L256.51,244.99L256.61,244.81L257.89,243.73L259.9,243.55L259.97,243.19L260.97,243.01L265.73,241.38L267.37,241.2L267.56,241.02L269.26,240.84L269.27,240.66L270.2,240.48L270.39,240.29L271.73,240.11L277.03,239.03L277.09,238.85L292.33,235.78L292.33,235.6L292.87,234.87L293.99,234.69L294.83,233.25L294.85,233.07L297.17,231.26L297.22,231.08L300.59,229.45L301.06,229.27L301.49,227.64L303.62,227.46L311.8,226.02L312.45,225.84L312.61,225.11L313.27,224.93L315.1,223.31L317.5,223.12L317.99,222.76L319.2,222.58L327.52,220.96L327.54,220.78L328.36,220.41L329.59,220.23L334.57,218.43L334.65,218.24L341.86,217.16L341.87,216.98L345.22,215.53L345.93,215.35L350.69,213.55L350.73,213.37L351.74,212.64L353.52,212.46L356.53,211.2L357.43,211.02L363.51,209.75L363.63,209.57L368.42,207.04L368.48,206.86L369.11,205.77L370.03,205.59L372.71,203.97L375.13,203.79L375.72,203.24L379.44,203.06L383.02,201.62L384.82,201.44L384.96,201.07L386.37,200.89L386.5,199.81L390.37,199.63L391.2,199.09L393.26,198.91L397.44,197.82L398.91,197.64L402.16,194.57L402.24,194.39L405.08,188.97L405.74,188.78L408.13,181.92L408.53,181.74L410.58,178.3L410.58,178.12L411.55,175.41L411.86,175.23L414.6,172.52L414.6,172.34L415.04,170.71L415.06,170.53L417.39,168.72L417.4,168.54L417.63,167.82L418.48,167.64L419.46,163.48L420.6,163.3L420.89,162.76L421.54,162.58L424.43,160.05L424.45,159.87L424.5,159.51L425.33,159.32L427.06,156.07L427.06,155.89L427.96,151.55L428.19,151.37L430.31,142.88L430.53,142.7L430.86,141.61L431.52,141.43L432.08,140.53L432.09,140.35L433.32,138.36L434.4,138.18L435.84,136.19L435.95,136.01L439.26,129.32L439.27,129.14L439.94,128.06L439.95,127.88L440.66,125.53L441.1,125.35L442.06,124.44L442.06,124.26L442.91,122.45L443.02,122.27L444.81,119.38L444.81,119.2L445.52,116.67L445.61,116.49L445.81,115.41L446.5,115.22L447.47,113.06L447.6,112.88L448.28,111.61L448.54,111.43L449.29,109.44L449.51,109.26L449.91,107.81L450.35,107.63L451.88,104.92L451.88,104.74L453.39,99.68L453.39,99.5L453.81,98.96L454.62,98.78L455.54,97.87L455.59,97.69L456.3,95.52L456.42,95.34L459.46,86.49L460.06,86.31L462.81,83.41L462.95,83.23L463.36,82.51L464.5,82.33L465.43,81.07L465.45,80.88L465.88,79.98L465.89,79.8L466.55,78.54L466.68,78.35L469.78,74.2L469.78,74.02L470.34,72.39L471.17,72.21L474.76,70.4L474.77,70.22L476.99,65.88L478.13,65.7L479.02,64.8L479.44,64.62L480.67,63.17L481.5,62.99L484.3,60.46L484.89,60.28L488.31,57.57L488.41,57.39L488.62,56.49L489.25,56.3L493.67,51.06L494,50.88L495.56,49.8L496.89,49.62L497.87,46.36L498.1,46.18L501.22,44.2L503.4,44.01L504.08,41.85L504.19,41.66L504.91,41.12L505.18,40.94L505.92,39.5L506.02,39.32L507.14,37.51L507.57,37.33L507.85,36.6L509.72,36.42L512.69,35.52L512.84,35.34L513.82,34.07L514.78,33.89L517.65,32.27L517.79,32.09L518.48,30.46L518.74,30.28L519.57,27.39L519.77,27.21L520.86,25.94L521.01,25.76L521.13,25.22L523.39,25.04L524.63,23.23L525.56,23.05L529.91,21.6L530.23,21.42L530.55,20.88L531.1,20.7L531.55,19.98L532.18,19.8L534.44,18.53L535.68,18.35L536.35,17.81L537.07,17.63L540,16" style="vector-effect: none; fill: none; stroke: rgb(44, 160, 44); stroke-opacity: 1; stroke-width: 2px; opacity: 1;"/></g><g class="points"/><g class="text"/></g></g></g></g><g class="zerolinelayer-above"/><path class="xlines-above crisp" d="M0,0" style="fill: none;"/><path class="ylines-above crisp" d="M0,0" style="fill: none;"/><g class="overlines-above"/><g class="xaxislayer-above"><g class="xtick"><text text-anchor="middle" x="0" y="439" transform="translate(96.53,0)" style="font-family: 'Open Sans'; font-size: 18px; fill: rgb(0, 0, 0); fill-opacity: 1; white-space: pre;">2016</text></g><g class="xtick"><text text-anchor="middle" x="0" y="439" style="font-family: 'Open Sans'; font-size: 18px; fill: rgb(0, 0, 0); fill-opacity: 1; white-space: pre;" transform="translate(197.76999999999998,0)">2018</text></g><g class="xtick"><text text-anchor="middle" x="0" y="439" style="font-family: 'Open Sans'; font-size: 18px; fill: rgb(0, 0, 0); fill-opacity: 1; white-space: pre;" transform="translate(298.86,0)">2020</text></g><g class="xtick"><text text-anchor="middle" x="0" y="439" style="font-family: 'Open Sans'; font-size: 18px; fill: rgb(0, 0, 0); fill-opacity: 1; white-space: pre;" transform="translate(400.09,0)">2022</text></g><g class="xtick"><text text-anchor="middle" x="0" y="439" style="font-family: 'Open Sans'; font-size: 18px; fill: rgb(0, 0, 0); fill-opacity: 1; white-space: pre;" transform="translate(501.18,0)">2024</text></g><g class="xtick"><text text-anchor="middle" x="0" y="439" style="font-family: 'Open Sans'; font-size: 18px; fill: rgb(0, 0, 0); fill-opacity: 1; white-space: pre;" transform="translate(602.42,0)">2026</text></g></g><g class="yaxislayer-above"><g class="ytick"><text text-anchor="end" x="79" y="6.3" transform="translate(0,420)" style="font-family: 'Open Sans'; font-size: 18px; fill: rgb(0, 0, 0); fill-opacity: 1; white-space: pre;">0</text></g><g class="ytick"><text text-anchor="end" x="79" y="6.3" style="font-family: 'Open Sans'; font-size: 18px; fill: rgb(0, 0, 0); fill-opacity: 1; white-space: pre;" transform="translate(0,383.85)">200</text></g><g class="ytick"><text text-anchor="end" x="79" y="6.3" style="font-family: 'Open Sans'; font-size: 18px; fill: rgb(0, 0, 0); fill-opacity: 1; white-space: pre;" transform="translate(0,347.71000000000004)">400</text></g><g class="ytick"><text text-anchor="end" x="79" y="6.3" style="font-family: 'Open Sans'; font-size: 18px; fill: rgb(0, 0, 0); fill-opacity: 1; white-space: pre;" transform="translate(0,311.56)">600</text></g><g class="ytick"><text text-anchor="end" x="79" y="6.3" style="font-family: 'Open Sans'; font-size: 18px; fill: rgb(0, 0, 0); fill-opacity: 1; white-space: pre;" transform="translate(0,275.40999999999997)">800</text></g><g class="ytick"><text text-anchor="end" x="79" y="6.3" style="font-family: 'Open Sans'; font-size: 18px; fill: rgb(0, 0, 0); fill-opacity: 1; white-space: pre;" transform="translate(0,239.26)">1000</text></g><g class="ytick"><text text-anchor="end" x="79" y="6.3" style="font-family: 'Open Sans'; font-size: 18px; fill: rgb(0, 0, 0); fill-opacity: 1; white-space: pre;" transform="translate(0,203.12)">1200</text></g><g class="ytick"><text text-anchor="end" x="79" y="6.3" style="font-family: 'Open Sans'; font-size: 18px; fill: rgb(0, 0, 0); fill-opacity: 1; white-space: pre;" transform="translate(0,166.97)">1400</text></g><g class="ytick"><text text-anchor="end" x="79" y="6.3" style="font-family: 'Open Sans'; font-size: 18px; fill: rgb(0, 0, 0); fill-opacity: 1; white-space: pre;" transform="translate(0,130.82)">1600</text></g></g><g class="overaxes-above"/></g></g><g class="polarlayer"/><g class="smithlayer"/><g class="ternarylayer"/><g class="geolayer"/><g class="funnelarealayer"/><g class="pielayer"/><g class="iciclelayer"/><g class="treemaplayer"/><g class="sunburstlayer"/><g class="glimages"/><defs id="topdefs-263cd2"><g class="clips"/></defs><g class="layer-above"><g class="imagelayer"/><g class="shapelayer"/></g><g class="infolayer"><g class="g-gtitle"><text class="gtitle" x="35" y="50" text-anchor="start" dy="0em" style="opacity: 1; font-family: 'Open Sans'; font-size: 25px; fill: rgb(0, 0, 0); fill-opacity: 1; white-space: pre;">MultiQC/MultiQC - Pull Requests Created Over Time</text></g><g class="g-xtitle"><text class="xtitle" x="350" y="472.9" text-anchor="middle" style="opacity: 1; font-family: 'Open Sans'; font-size: 22px; fill: rgb(0, 0, 0); fill-opacity: 1; white-space: pre;">Date</text></g><g class="g-ytitle"><text class="ytitle" transform="rotate(-90,20.799999999999997,260)" x="20.799999999999997" y="260" text-anchor="middle" style="opacity: 1; font-family: 'Open Sans'; font-size: 22px; fill: rgb(0, 0, 0); fill-opacity: 1; white-space: pre;">Cumulative PRs Created</text></g></g></svg>