<svg class="main-svg" xmlns="http://www.w3.org/2000/svg" xmlns:xlink="http://www.w3.org/1999/xlink" width="700" height="500" style="" viewBox="0 0 700 500"><rect x="0" y="0" width="700" height="500" style="fill: rgb(0, 0, 0); fill-opacity: 0;"/><defs id="defs-0ae565"><g class="clips"><clipPath id="clip0ae565xyplot" class="plotclip"><rect width="540" height="320"/></clipPath><clipPath class="axesclip" id="clip0ae565x"><rect x="80" y="0" width="540" height="500"/></clipPath><clipPath class="axesclip" id="clip0ae565y"><rect x="0" y="100" width="700" height="320"/></clipPath><clipPath class="axesclip" id="clip0ae565xy"><rect x="80" y="100" width="540" height="320"/></clipPath></g><g class="gradients"/><g class="patterns"/></defs><g class="bglayer"><rect class="bg" x="80" y="100" width="540" height="320" style="fill: rgb(0, 0, 0); fill-opacity: 0; stroke-width: 0;"/></g><g class="layer-below"><g class="imagelayer"/><g class="shapelayer"/></g><g class="cartesianlayer"><g class="subplot xy"><g class="layer-subplot"><g class="shapelayer"/><g class="imagelayer"/></g><g class="minor-gridlayer"><g class="x"/><g class="y"/></g><g class="gridlayer"><g class="x"><path class="xgrid crisp" transform="translate(96.47,0)" d="M0,100v320" style="stroke: rgb(255, 255, 255); stroke-opacity: 1; stroke-width: 1px;"/><path class="xgrid crisp" transform="translate(197.35,0)" d="M0,100v320" style="stroke: rgb(255, 255, 255); stroke-opacity: 1; stroke-width: 1px;"/><path class="xgrid crisp" transform="translate(298.08000000000004,0)" d="M0,100v320" style="stroke: rgb(255, 255, 255); stroke-opacity: 1; stroke-width: 1px;"/><path class="xgrid crisp" transform="translate(398.96,0)" d="M0,100v320" style="stroke: rgb(255, 255, 255); stroke-opacity: 1; stroke-width: 1px;"/><path class="xgrid crisp" transform="translate(499.69,0)" d="M0,100v320" style="stroke: rgb(255, 255, 255); stroke-opacity: 1; stroke-width: 1px;"/><path class="xgrid crisp" transform="translate(600.57,0)" d="M0,100v320" style="stroke: rgb(255, 255, 255); stroke-opacity: 1; stroke-width: 1px;"/></g><g class="y"><path class="ygrid crisp" transform="translate(0,372.13)" d="M80,0h540" style="stroke: rgb(255, 255, 255); stroke-opacity: 1; stroke-width: 1px;"/><path class="ygrid crisp" transform="translate(0,324.25)" d="M80,0h540" style="stroke: rgb(255, 255, 255); stroke-opacity: 1; stroke-width: 1px;"/><path class="ygrid crisp" transform="translate(0,276.38)" d="M80,0h540" style="stroke: rgb(255, 255, 255); stroke-opacity: 1; stroke-width: 1px;"/><path class="ygrid crisp" transform="translate(0,228.5)" d="M80,0h540" style="stroke: rgb(255, 255, 255); stroke-opacity: 1; stroke-width: 1px;"/><path class="ygrid crisp" transform="translate(0,180.63)" d="M80,0h540" style="stroke: rgb(255, 255, 255); stroke-opacity: 1; stroke-width: 1px;"/><path class="ygrid crisp" transform="translate(0,132.76)" d="M80,0h540" style="stroke: rgb(255, 255, 255); stroke-opacity: 1; stroke-width: 1px;"/></g></g><g class="zerolinelayer"><path class="yzl zl crisp" transform="translate(0,420)" d="M80,0h540" style="stroke: rgb(255, 255, 255); stroke-opacity: 1; stroke-width: 2px;"/></g><g class="layer-between"><g class="shapelayer"/><g class="imagelayer"/></g><path class="xlines-below"/><path class="ylines-below"/><g class="overlines-below"/><g class="xaxislayer-below"/><g class="yaxislayer-below"/><g class="overaxes-below"/><g class="overplot"><g class="xy" transform="translate(80,100)" clip-path="url(#clip0ae565xyplot)"><g class="scatterlayer mlayer"><g class="trace scatter trace5fde72" style="stroke-miterlimit: 2;"><g class="fills"><g><path class="js-fill" d="M540,320L0,320L0,317.61L0.1,320L1,317.61L1.67,320L1.77,317.61L1.77,320L3,317.61L3.72,320L4.56,317.61L4.56,320L4.66,320L5.37,317.61L5.37,320L5.94,320L6.76,317.61L6.76,320L7.32,320L8.81,317.61L8.81,320L9.43,317.61L9.65,320L11.31,317.61L11.31,320L14.07,317.61L14.07,320L21.25,317.61L21.25,320L21.44,317.61L21.44,320L23.01,317.61L23.01,315.21L23.15,317.61L24.26,320L25.92,317.61L25.92,320L27.2,315.21L27.2,317.61L27.2,320L29.95,317.61L29.95,320L30.09,320L31.29,317.61L31.88,320L31.88,320L32.74,317.61L32.75,320L33.5,317.61L33.5,320L34.23,317.61L34.31,320L36.84,315.21L37.26,317.61L37.38,315.21L37.38,317.61L38.64,320L39.34,317.61L39.34,320L41,317.61L41,320L42.06,317.61L42.06,320L42.53,310.43L42.64,312.82L43.16,315.21L43.58,317.61L44.01,315.21L44.02,317.61L45.24,315.21L48.98,312.82L48.98,315.21L49.27,317.61L50.04,315.21L50.92,320L52.3,317.61L52.3,320L52.68,320L55.74,317.61L55.74,320L55.74,317.61L57.2,315.21L57.51,317.61L58.28,315.21L59.06,312.82L59.07,315.21L59.62,320L61.41,317.61L61.7,320L62.36,317.61L62.51,315.21L63.45,317.61L63.62,312.82L63.74,315.21L64.55,317.61L64.85,315.21L64.85,317.61L65.39,315.21L65.46,310.43L65.57,320L65.65,320L66.22,317.61L67.05,315.21L67.05,317.61L67.76,312.82L67.76,315.21L68.45,312.82L72.84,310.43L73.3,308.03L74.93,320L75.9,317.61L75.9,320L76.85,317.61L78.01,315.21L78.07,317.61L79.1,312.82L79.5,310.43L80,308.03L80,310.43L80.02,312.82L81.13,308.03L81.14,310.43L81.95,308.03L81.95,310.43L82.23,312.82L82.79,310.43L82.79,312.82L82.79,310.43L84.55,312.82L84.73,310.43L84.73,312.82L85.6,310.43L85.83,312.82L86.53,310.43L86.97,308.03L87.72,310.43L88.42,308.03L88.7,310.43L90.9,308.03L90.91,310.43L91.48,308.03L91.5,310.43L92.84,312.82L93.33,310.43L93.53,312.82L93.67,310.43L93.68,312.82L94.66,310.43L94.67,296.06L95.35,308.03L95.62,310.43L95.62,312.82L95.77,308.03L96.16,308.03L96.73,305.64L97.42,308.03L97.6,305.64L98.11,300.85L98.27,305.64L98.35,308.03L98.96,298.46L99.08,303.24L100.02,305.64L100.44,298.46L100.44,298.46L100.96,300.85L101.98,288.88L102.91,286.49L103.9,288.88L104.18,286.49L104.3,291.28L104.88,291.28L105,288.88L105.29,298.46L105.42,296.06L106.05,293.67L106.54,284.09L106.54,286.49L106.91,288.88L106.95,291.28L107.77,288.88L107.9,286.49L107.91,288.88L109.17,291.28L109.86,300.85L110.92,298.46L110.92,300.85L113.01,298.46L113.02,296.06L113.02,300.85L114.95,298.46L114.96,300.85L114.96,298.46L115.99,300.85L116.05,298.46L117.84,296.06L118.8,300.85L118.94,298.46L118.97,300.85L119.77,298.46L120.09,300.85L120.77,298.46L120.79,300.85L122.38,298.46L122.4,300.85L124.2,298.46L124.3,300.85L124.68,298.46L125.15,296.06L125.27,298.46L126.13,296.06L126.13,298.46L126.53,288.88L126.66,288.88L127.05,286.49L127.38,298.46L127.39,298.46L128.34,296.06L128.44,300.85L128.62,300.85L129.3,298.46L130.25,296.06L130.36,293.67L130.91,296.06L131.09,293.67L131.19,291.28L131.89,286.49L131.92,288.88L132.22,286.49L132.44,288.88L132.87,286.49L132.88,284.09L132.88,276.91L133.03,291.28L134.26,288.88L134.37,286.49L134.38,288.88L135.77,286.49L136.52,296.06L137.7,293.67L138.09,296.06L139.65,293.67L140.7,291.28L140.7,293.67L141.98,286.49L141.99,288.88L142.23,291.28L142.26,293.67L142.65,288.88L142.65,291.28L142.97,288.88L142.97,291.28L143.93,293.67L144.1,298.46L144.78,296.06L144.87,293.67L146.43,291.28L146.95,284.09L146.96,288.88L146.96,291.28L147.01,296.06L148.76,293.67L148.85,296.06L148.89,293.67L150.43,291.28L150.44,293.67L151.77,291.28L151.77,293.67L152.18,291.28L152.62,288.88L153.28,286.49L153.32,288.88L156.08,291.28L159.03,286.49L159.74,284.09L160.5,286.49L161.18,284.09L161.19,286.49L163.78,284.09L164.23,286.49L164.82,284.09L166,281.7L166.24,284.09L166.24,281.7L166.28,300.85L166.28,298.46L168.6,296.06L168.61,298.46L170.88,300.85L171.94,298.46L171.95,300.85L172.56,298.46L172.59,300.85L174.73,298.46L174.88,296.06L176.22,298.46L176.24,300.85L176.81,281.7L176.89,284.09L176.89,281.7L176.92,291.28L178.39,288.88L178.71,281.7L180.32,279.31L180.81,276.91L180.82,279.31L182.95,276.91L183.42,279.31L184.71,276.91L185,279.31L185.29,276.91L187.41,274.52L190.3,272.13L190.41,274.52L191.28,272.13L191.96,274.52L191.99,269.73L192.21,272.13L193.07,274.52L193.31,284.09L194.12,286.49L194.19,288.88L194.29,284.09L197.61,281.7L198.16,284.09L198.83,281.7L198.97,279.31L201.05,276.91L203.92,274.52L205.45,272.13L205.47,269.73L206.75,267.34L207.51,269.73L207.53,267.34L207.82,284.09L207.83,281.7L208.78,284.09L209.19,286.49L209.2,284.09L210.31,286.49L210.76,291.28L211.12,288.88L211.14,291.28L211.65,284.09L211.69,288.88L212.24,291.28L212.27,293.67L213.15,291.28L214.29,288.88L214.3,291.28L216.23,286.49L216.5,284.09L218.79,281.7L219.88,284.09L221.42,281.7L221.89,279.31L224.12,274.52L224.13,276.91L224.96,269.73L226.74,267.34L227.01,260.16L227.52,257.76L228.56,252.98L228.61,255.37L230.78,238.61L230.86,241.01L230.86,243.4L231.01,236.22L231.59,238.61L231.69,236.22L232.95,233.83L233.09,231.43L233.35,241.01L233.35,243.4L233.52,255.37L233.79,250.58L234.27,248.19L235.29,288.88L235.51,286.49L235.69,284.09L235.7,281.7L236.28,288.88L236.37,286.49L236.56,284.09L237.45,291.28L237.46,288.88L237.46,286.49L238.18,296.06L238.42,293.67L238.42,296.06L238.62,286.49L239.15,293.67L239.39,291.28L239.39,293.67L239.68,291.28L240.35,288.88L240.39,286.49L241.17,288.88L241.65,284.09L242.27,281.7L243.95,274.52L243.95,276.91L245.37,269.73L246.29,272.13L249.82,269.73L249.91,267.34L250.16,264.94L250.46,267.34L252,264.94L252.91,260.16L253.25,257.76L253.63,255.37L255.17,252.98L255.6,245.8L255.8,252.98L255.8,255.37L256.98,243.4L258.98,241.01L259.05,236.22L260.05,233.83L261.64,229.04L261.67,231.43L261.69,248.19L262.3,238.61L262.57,236.22L262.58,238.61L262.71,236.22L264.79,233.83L266.43,231.43L266.61,229.04L268.31,226.65L268.31,229.04L268.32,226.65L268.32,229.04L269.25,226.65L269.43,224.25L270.09,226.65L271.01,236.22L271.21,238.61L272.71,236.22L273.22,238.61L274.55,233.83L275.23,231.43L275.23,233.83L276,231.43L276.11,226.65L277.22,229.04L277.77,257.76L280.25,255.37L280.72,257.76L281.1,255.37L281.12,257.76L283.85,255.37L284.53,260.16L284.57,257.76L284.67,255.37L284.92,257.76L285.59,260.16L285.76,255.37L285.76,257.76L288.04,255.37L288.82,250.58L290.78,248.19L291.29,243.4L291.43,241.01L291.44,238.61L291.49,250.58L291.83,245.8L292.27,248.19L292.73,252.98L292.95,250.58L293.2,248.19L293.97,279.31L294.19,276.91L295.14,269.73L295.75,267.34L296.72,255.37L297.65,252.98L298.62,248.19L298.68,245.8L300.09,236.22L300.11,233.83L300.42,217.07L302.55,214.68L304.4,212.28L304.4,209.89L307.69,212.28L307.76,209.89L309.39,205.1L309.95,202.71L311.34,195.53L311.34,193.13L311.47,188.35L311.86,238.61L312.16,236.22L312.59,233.83L312.6,241.01L312.85,238.61L312.99,236.22L313.99,224.25L314.1,226.65L316.38,224.25L316.86,221.86L317.14,224.25L318.07,221.86L318.45,224.25L319.57,221.86L320.98,224.25L321.01,231.43L321.64,229.04L322.33,231.43L322.75,245.8L323.16,248.19L323.29,245.8L323.59,252.98L323.78,250.58L324.16,252.98L325.24,245.8L325.5,243.4L326.36,241.01L326.38,238.61L327.2,233.83L327.44,236.22L328.03,238.61L328.43,236.22L328.43,238.61L329.11,236.22L329.38,238.61L329.38,243.4L329.93,241.01L331.22,238.61L331.43,233.83L331.85,241.01L331.87,241.01L331.87,243.4L332.5,238.61L332.71,236.22L333.47,231.43L333.49,233.83L336.47,231.43L336.84,233.83L338.18,231.43L338.61,229.04L338.62,231.43L339.35,233.83L339.62,231.43L339.7,236.22L340.43,233.83L341.51,226.65L341.51,229.04L341.93,224.25L342.48,221.86L342.9,226.65L342.92,221.86L343.43,224.25L344,221.86L344.01,224.25L344.71,221.86L344.85,224.25L345.5,221.86L346.63,217.07L346.63,214.68L346.69,219.46L347.44,217.07L348.28,212.28L349.36,209.89L350.49,195.53L350.6,197.92L352.27,195.53L352.54,193.13L353.58,190.74L353.58,193.13L353.72,207.5L353.72,209.89L353.73,207.5L353.84,212.28L355.26,209.89L356.17,207.5L356.18,209.89L357.96,207.5L357.96,209.89L358.37,207.5L360.72,205.1L360.72,207.5L361.38,207.5L361.96,205.1L362.69,195.53L362.75,197.92L363.9,195.53L364,190.74L364.42,205.1L364.78,202.71L365,205.1L365.94,202.71L366.74,193.13L366.94,190.74L367.51,202.71L367.61,195.53L367.8,193.13L368.49,207.5L368.72,205.1L369.53,229.04L369.6,226.65L370.29,241.01L370.66,238.61L371.43,241.01L373.8,238.61L374.39,231.43L374.41,233.83L374.65,236.22L378.09,233.83L378.11,236.22L378.8,231.43L379.68,233.83L380.77,231.43L381.66,229.04L381.66,231.43L383.46,229.04L383.59,224.25L384.58,226.65L385.12,219.46L385.12,217.07L385.13,209.89L388.77,212.28L389.81,202.71L391.87,200.31L392.35,195.53L392.35,197.92L392.35,200.31L394.37,195.53L394.81,193.13L397.5,188.35L397.69,185.95L398.24,183.56L398.24,185.95L398.41,188.35L398.99,200.31L399.12,197.92L399.7,195.53L399.75,197.92L400.06,185.95L400.45,183.56L400.63,176.38L400.82,185.95L400.83,188.35L400.83,190.74L401.57,178.77L401.7,176.38L402.43,193.13L402.48,190.74L402.77,188.35L402.79,197.92L403.22,190.74L403.25,193.13L403.35,197.92L403.65,193.13L404.3,190.74L404.37,188.35L404.78,202.71L404.78,200.31L405.18,197.92L405.67,181.17L405.85,207.5L406.15,205.1L406.57,190.74L406.71,200.31L406.72,202.71L406.77,207.5L407.32,200.31L407.35,202.71L407.94,200.31L408.08,207.5L408.63,195.53L408.7,193.13L408.76,195.53L409.12,181.17L409.13,178.77L409.16,171.59L409.29,212.28L409.6,202.71L409.99,200.31L410.41,195.53L410.63,202.71L410.67,200.31L411.06,197.92L411.69,205.1L412.03,207.5L412.32,209.89L412.64,200.31L412.98,202.71L413.57,214.68L413.59,212.28L413.98,209.89L414.63,221.86L415.2,219.46L415.54,221.86L415.91,212.28L415.92,209.89L416.15,202.71L416.85,205.1L416.99,217.07L417.29,200.31L417.45,205.1L417.61,207.5L417.83,205.1L417.99,212.28L419.11,209.89L419.25,214.68L419.4,209.89L420.05,207.5L420.2,209.89L420.38,205.1L420.71,202.71L420.74,209.89L421.13,205.1L421.81,202.71L422.31,200.31L422.31,202.71L422.31,205.1L422.82,200.31L422.82,197.92L422.83,195.53L422.87,205.1L423,197.92L423.83,195.53L424.05,188.35L424.25,200.31L424.38,202.71L424.76,219.46L425.13,217.07L425.18,214.68L425.54,209.89L425.69,221.86L425.7,219.46L425.95,217.07L426,219.46L426.71,212.28L426.83,209.89L427.4,226.65L427.51,226.65L427.66,224.25L427.75,209.89L427.77,226.65L428.45,212.28L428.45,214.68L428.64,217.07L429.05,205.1L429.32,212.28L429.32,214.68L429.83,229.04L430,226.65L430.4,229.04L430.83,217.07L431.11,219.46L431.35,217.07L431.36,219.46L431.78,214.68L431.79,214.68L432.87,212.28L433.45,207.5L433.45,209.89L434.23,207.5L434.28,205.1L434.3,224.25L434.7,221.86L435.23,224.25L435.34,226.65L435.5,214.68L435.5,212.28L435.9,207.5L435.94,212.28L436.15,214.68L436.17,212.28L436.87,229.04L436.87,226.65L437.16,229.04L437.46,221.86L437.73,226.65L438.03,229.04L438.39,231.43L438.71,221.86L438.71,224.25L439.1,221.86L440.15,214.68L440.48,217.07L440.48,219.46L440.51,214.68L440.63,224.25L441.05,224.25L441.33,221.86L441.35,224.25L441.61,219.46L441.85,224.25L442.14,221.86L442.44,231.43L442.69,226.65L442.99,229.04L443.64,224.25L443.64,226.65L443.88,224.25L444.05,217.07L444.06,226.65L444.23,221.86L444.92,224.25L444.92,221.86L445.44,231.43L445.84,229.04L446.13,226.65L446.14,231.43L446.41,229.04L446.69,226.65L447.34,224.25L447.34,226.65L447.5,229.04L447.52,226.65L447.66,238.61L448.03,236.22L448.17,238.61L448.32,231.43L448.91,236.22L449.01,238.61L449.7,226.65L449.7,236.22L449.71,238.61L449.71,236.22L449.84,241.01L450.41,238.61L450.66,236.22L450.66,241.01L451.39,238.61L451.5,241.01L451.52,245.8L452.2,241.01L453.01,238.61L453.14,241.01L453.77,238.61L453.92,233.83L453.97,245.8L454,245.8L454,248.19L454.68,238.61L454.69,245.8L454.69,248.19L455.36,243.4L455.39,245.8L455.48,248.19L455.66,241.01L455.79,243.4L456.32,241.01L456.32,243.4L457.04,233.83L457.05,236.22L457.31,238.61L457.62,243.4L457.84,236.22L458.43,233.83L458.7,238.61L458.72,236.22L459.64,233.83L459.64,236.22L460.23,231.43L460.37,231.43L460.87,229.04L461.31,224.25L461.58,229.04L461.71,226.65L461.72,224.25L462.61,226.65L463.22,224.25L463.5,233.83L463.54,231.43L464.23,238.61L464.47,236.22L464.47,233.83L464.47,236.22L465.18,224.25L465.22,231.43L465.47,229.04L466.12,231.43L466.47,229.04L466.47,231.43L466.69,224.25L466.71,231.43L467.36,229.04L467.51,241.01L468.11,241.01L468.12,238.61L468.13,233.83L468.75,248.19L469.5,245.8L469.89,248.19L469.91,245.8L470.55,243.4L471.08,248.19L471.84,245.8L472.27,241.01L472.66,243.4L472.74,245.8L473.09,241.01L473.15,245.8L473.17,248.19L473.2,243.4L473.9,245.8L474,243.4L474.32,238.61L474.32,241.01L474.99,243.4L475.12,238.61L475.6,243.4L476.44,241.01L477.28,238.61L477.28,241.01L477.28,238.61L477.32,243.4L477.86,243.4L478.71,241.01L478.82,236.22L478.83,243.4L478.97,238.61L479.79,241.01L480.36,231.43L480.67,229.04L481.18,231.43L481.35,229.04L481.35,226.65L481.97,217.07L481.98,231.43L482.07,229.04L482.31,226.65L482.59,224.25L482.59,229.04L482.59,231.43L483.17,229.04L483.4,231.43L483.51,229.04L483.82,236.22L484.45,238.61L484.92,233.83L485.04,238.61L485.04,241.01L485.04,238.61L485.42,245.8L485.7,245.8L485.85,243.4L486.45,241.01L486.53,243.4L486.55,245.8L486.74,238.61L486.89,241.01L487.51,238.61L488.34,245.8L488.38,243.4L488.61,245.8L489.04,241.01L489.29,243.4L489.62,236.22L489.7,241.01L490.46,238.61L490.83,243.4L490.9,236.22L491.24,233.83L491.79,229.04L491.91,241.01L491.94,241.01L492.25,238.61L493.8,226.65L494.19,229.04L494.19,231.43L495.13,229.04L495.37,233.83L495.81,224.25L495.85,231.43L495.94,229.04L496.34,231.43L496.64,229.04L498,226.65L499.14,217.07L499.25,219.46L499.25,221.86L499.25,224.25L499.41,217.07L499.45,217.07L501.61,219.46L501.99,214.68L502.02,231.43L502.29,231.43L502.3,233.83L503.12,226.65L503.12,229.04L503.39,231.43L504.09,217.07L504.13,219.46L504.23,221.86L504.33,219.46L504.78,226.65L504.93,219.46L505.34,217.07L505.86,212.28L505.87,214.68L505.89,217.07L506.05,212.28L506.05,217.07L507.91,214.68L507.91,217.07L509.66,214.68L511.17,202.71L511.22,200.31L511.23,197.92L511.23,205.1L511.68,202.71L512,200.31L513.49,195.53L513.72,193.13L513.73,195.53L514.2,188.35L515.32,185.95L515.96,176.38L515.97,173.98L515.97,176.38L516.55,162.02L516.64,162.02L516.9,159.62L516.9,162.02L517.34,150.05L517.62,150.05L517.73,147.65L517.74,150.05L518.46,142.87L518.55,145.26L519.29,133.29L521.54,130.9L522.77,114.14L523.7,111.75L525.36,106.96L527.12,104.57L528.04,92.6L528.35,90.2L528.67,85.42L529.22,83.02L529.23,85.42L529.66,75.84L530.3,73.45L530.3,75.84L530.57,73.45L531.06,71.06L532.55,59.09L533.78,56.69L534.45,51.91L535.16,49.51L536.21,47.12L536.21,49.51L538.09,39.94L538.09,39.94L538.09,37.54L538.57,32.76L538.57,35.15L538.57,37.54L538.69,30.36L539.04,35.15L539.61,32.76L539.61,35.15L540,16" style="fill: rgb(44, 160, 44); fill-opacity: 0.5; stroke-width: 0;"/></g></g><g class="errorbars"/><g class="lines"><path class="js-line" d="M0,317.61L0.1,320L1,317.61L1.67,320L1.77,317.61L1.77,320L3,317.61L3.72,320L4.56,317.61L4.56,320L4.66,320L5.37,317.61L5.37,320L5.94,320L6.76,317.61L6.76,320L7.32,320L8.81,317.61L8.81,320L9.43,317.61L9.65,320L11.31,317.61L11.31,320L14.07,317.61L14.07,320L21.25,317.61L21.25,320L21.44,317.61L21.44,320L23.01,317.61L23.01,315.21L23.15,317.61L24.26,320L25.92,317.61L25.92,320L27.2,315.21L27.2,317.61L27.2,320L29.95,317.61L29.95,320L30.09,320L31.29,317.61L31.88,320L31.88,320L32.74,317.61L32.75,320L33.5,317.61L33.5,320L34.23,317.61L34.31,320L36.84,315.21L37.26,317.61L37.38,315.21L37.38,317.61L38.64,320L39.34,317.61L39.34,320L41,317.61L41,320L42.06,317.61L42.06,320L42.53,310.43L42.64,312.82L43.16,315.21L43.58,317.61L44.01,315.21L44.02,317.61L45.24,315.21L48.98,312.82L48.98,315.21L49.27,317.61L50.04,315.21L50.92,320L52.3,317.61L52.3,320L52.68,320L55.74,317.61L55.74,320L55.74,317.61L57.2,315.21L57.51,317.61L58.28,315.21L59.06,312.82L59.07,315.21L59.62,320L61.41,317.61L61.7,320L62.36,317.61L62.51,315.21L63.45,317.61L63.62,312.82L63.74,315.21L64.55,317.61L64.85,315.21L64.85,317.61L65.39,315.21L65.46,310.43L65.57,320L65.65,320L66.22,317.61L67.05,315.21L67.05,317.61L67.76,312.82L67.76,315.21L68.45,312.82L72.84,310.43L73.3,308.03L74.93,320L75.9,317.61L75.9,320L76.85,317.61L78.01,315.21L78.07,317.61L79.1,312.82L79.5,310.43L80,308.03L80,310.43L80.02,312.82L81.13,308.03L81.14,310.43L81.95,308.03L81.95,310.43L82.23,312.82L82.79,310.43L82.79,312.82L82.79,310.43L84.55,312.82L84.73,310.43L84.73,312.82L85.6,310.43L85.83,312.82L86.53,310.43L86.97,308.03L87.72,310.43L88.42,308.03L88.7,310.43L90.9,308.03L90.91,310.43L91.48,308.03L91.5,310.43L92.84,312.82L93.33,310.43L93.53,312.82L93.67,310.43L93.68,312.82L94.66,310.43L94.67,296.06L95.35,308.03L95.62,310.43L95.62,312.82L95.77,308.03L96.16,308.03L96.73,305.64L97.42,308.03L97.6,305.64L98.11,300.85L98.27,305.64L98.35,308.03L98.96,298.46L99.08,303.24L100.02,305.64L100.44,298.46L100.44,298.46L100.96,300.85L101.98,288.88L102.91,286.49L103.9,288.88L104.18,286.49L104.3,291.28L104.88,291.28L105,288.88L105.29,298.46L105.42,296.06L106.05,293.67L106.54,284.09L106.54,286.49L106.91,288.88L106.95,291.28L107.77,288.88L107.9,286.49L107.91,288.88L109.17,291.28L109.86,300.85L110.92,298.46L110.92,300.85L113.01,298.46L113.02,296.06L113.02,300.85L114.95,298.46L114.96,300.85L114.96,298.46L115.99,300.85L116.05,298.46L117.84,296.06L118.8,300.85L118.94,298.46L118.97,300.85L119.77,298.46L120.09,300.85L120.77,298.46L120.79,300.85L122.38,298.46L122.4,300.85L124.2,298.46L124.3,300.85L124.68,298.46L125.15,296.06L125.27,298.46L126.13,296.06L126.13,298.46L126.53,288.88L126.66,288.88L127.05,286.49L127.38,298.46L127.39,298.46L128.34,296.06L128.44,300.85L128.62,300.85L129.3,298.46L130.25,296.06L130.36,293.67L130.91,296.06L131.09,293.67L131.19,291.28L131.89,286.49L131.92,288.88L132.22,286.49L132.44,288.88L132.87,286.49L132.88,284.09L132.88,276.91L133.03,291.28L134.26,288.88L134.37,286.49L134.38,288.88L135.77,286.49L136.52,296.06L137.7,293.67L138.09,296.06L139.65,293.67L140.7,291.28L140.7,293.67L141.98,286.49L141.99,288.88L142.23,291.28L142.26,293.67L142.65,288.88L142.65,291.28L142.97,288.88L142.97,291.28L143.93,293.67L144.1,298.46L144.78,296.06L144.87,293.67L146.43,291.28L146.95,284.09L146.96,288.88L146.96,291.28L147.01,296.06L148.76,293.67L148.85,296.06L148.89,293.67L150.43,291.28L150.44,293.67L151.77,291.28L151.77,293.67L152.18,291.28L152.62,288.88L153.28,286.49L153.32,288.88L156.08,291.28L159.03,286.49L159.74,284.09L160.5,286.49L161.18,284.09L161.19,286.49L163.78,284.09L164.23,286.49L164.82,284.09L166,281.7L166.24,284.09L166.24,281.7L166.28,300.85L166.28,298.46L168.6,296.06L168.61,298.46L170.88,300.85L171.94,298.46L171.95,300.85L172.56,298.46L172.59,300.85L174.73,298.46L174.88,296.06L176.22,298.46L176.24,300.85L176.81,281.7L176.89,284.09L176.89,281.7L176.92,291.28L178.39,288.88L178.71,281.7L180.32,279.31L180.81,276.91L180.82,279.31L182.95,276.91L183.42,279.31L184.71,276.91L185,279.31L185.29,276.91L187.41,274.52L190.3,272.13L190.41,274.52L191.28,272.13L191.96,274.52L191.99,269.73L192.21,272.13L193.07,274.52L193.31,284.09L194.12,286.49L194.19,288.88L194.29,284.09L197.61,281.7L198.16,284.09L198.83,281.7L198.97,279.31L201.05,276.91L203.92,274.52L205.45,272.13L205.47,269.73L206.75,267.34L207.51,269.73L207.53,267.34L207.82,284.09L207.83,281.7L208.78,284.09L209.19,286.49L209.2,284.09L210.31,286.49L210.76,291.28L211.12,288.88L211.14,291.28L211.65,284.09L211.69,288.88L212.24,291.28L212.27,293.67L213.15,291.28L214.29,288.88L214.3,291.28L216.23,286.49L216.5,284.09L218.79,281.7L219.88,284.09L221.42,281.7L221.89,279.31L224.12,274.52L224.13,276.91L224.96,269.73L226.74,267.34L227.01,260.16L227.52,257.76L228.56,252.98L228.61,255.37L230.78,238.61L230.86,241.01L230.86,243.4L231.01,236.22L231.59,238.61L231.69,236.22L232.95,233.83L233.09,231.43L233.35,241.01L233.35,243.4L233.52,255.37L233.79,250.58L234.27,248.19L235.29,288.88L235.51,286.49L235.69,284.09L235.7,281.7L236.28,288.88L236.37,286.49L236.56,284.09L237.45,291.28L237.46,288.88L237.46,286.49L238.18,296.06L238.42,293.67L238.42,296.06L238.62,286.49L239.15,293.67L239.39,291.28L239.39,293.67L239.68,291.28L240.35,288.88L240.39,286.49L241.17,288.88L241.65,284.09L242.27,281.7L243.95,274.52L243.95,276.91L245.37,269.73L246.29,272.13L249.82,269.73L249.91,267.34L250.16,264.94L250.46,267.34L252,264.94L252.91,260.16L253.25,257.76L253.63,255.37L255.17,252.98L255.6,245.8L255.8,252.98L255.8,255.37L256.98,243.4L258.98,241.01L259.05,236.22L260.05,233.83L261.64,229.04L261.67,231.43L261.69,248.19L262.3,238.61L262.57,236.22L262.58,238.61L262.71,236.22L264.79,233.83L266.43,231.43L266.61,229.04L268.31,226.65L268.31,229.04L268.32,226.65L268.32,229.04L269.25,226.65L269.43,224.25L270.09,226.65L271.01,236.22L271.21,238.61L272.71,236.22L273.22,238.61L274.55,233.83L275.23,231.43L275.23,233.83L276,231.43L276.11,226.65L277.22,229.04L277.77,257.76L280.25,255.37L280.72,257.76L281.1,255.37L281.12,257.76L283.85,255.37L284.53,260.16L284.57,257.76L284.67,255.37L284.92,257.76L285.59,260.16L285.76,255.37L285.76,257.76L288.04,255.37L288.82,250.58L290.78,248.19L291.29,243.4L291.43,241.01L291.44,238.61L291.49,250.58L291.83,245.8L292.27,248.19L292.73,252.98L292.95,250.58L293.2,248.19L293.97,279.31L294.19,276.91L295.14,269.73L295.75,267.34L296.72,255.37L297.65,252.98L298.62,248.19L298.68,245.8L300.09,236.22L300.11,233.83L300.42,217.07L302.55,214.68L304.4,212.28L304.4,209.89L307.69,212.28L307.76,209.89L309.39,205.1L309.95,202.71L311.34,195.53L311.34,193.13L311.47,188.35L311.86,238.61L312.16,236.22L312.59,233.83L312.6,241.01L312.85,238.61L312.99,236.22L313.99,224.25L314.1,226.65L316.38,224.25L316.86,221.86L317.14,224.25L318.07,221.86L318.45,224.25L319.57,221.86L320.98,224.25L321.01,231.43L321.64,229.04L322.33,231.43L322.75,245.8L323.16,248.19L323.29,245.8L323.59,252.98L323.78,250.58L324.16,252.98L325.24,245.8L325.5,243.4L326.36,241.01L326.38,238.61L327.2,233.83L327.44,236.22L328.03,238.61L328.43,236.22L328.43,238.61L329.11,236.22L329.38,238.61L329.38,243.4L329.93,241.01L331.22,238.61L331.43,233.83L331.85,241.01L331.87,241.01L331.87,243.4L332.5,238.61L332.71,236.22L333.47,231.43L333.49,233.83L336.47,231.43L336.84,233.83L338.18,231.43L338.61,229.04L338.62,231.43L339.35,233.83L339.62,231.43L339.7,236.22L340.43,233.83L341.51,226.65L341.51,229.04L341.93,224.25L342.48,221.86L342.9,226.65L342.92,221.86L343.43,224.25L344,221.86L344.01,224.25L344.71,221.86L344.85,224.25L345.5,221.86L346.63,217.07L346.63,214.68L346.69,219.46L347.44,217.07L348.28,212.28L349.36,209.89L350.49,195.53L350.6,197.92L352.27,195.53L352.54,193.13L353.58,190.74L353.58,193.13L353.72,207.5L353.72,209.89L353.73,207.5L353.84,212.28L355.26,209.89L356.17,207.5L356.18,209.89L357.96,207.5L357.96,209.89L358.37,207.5L360.72,205.1L360.72,207.5L361.38,207.5L361.96,205.1L362.69,195.53L362.75,197.92L363.9,195.53L364,190.74L364.42,205.1L364.78,202.71L365,205.1L365.94,202.71L366.74,193.13L366.94,190.74L367.51,202.71L367.61,195.53L367.8,193.13L368.49,207.5L368.72,205.1L369.53,229.04L369.6,226.65L370.29,241.01L370.66,238.61L371.43,241.01L373.8,238.61L374.39,231.43L374.41,233.83L374.65,236.22L378.09,233.83L378.11,236.22L378.8,231.43L379.68,233.83L380.77,231.43L381.66,229.04L381.66,231.43L383.46,229.04L383.59,224.25L384.58,226.65L385.12,219.46L385.12,217.07L385.13,209.89L388.77,212.28L389.81,202.71L391.87,200.31L392.35,195.53L392.35,197.92L392.35,200.31L394.37,195.53L394.81,193.13L397.5,188.35L397.69,185.95L398.24,183.56L398.24,185.95L398.41,188.35L398.99,200.31L399.12,197.92L399.7,195.53L399.75,197.92L400.06,185.95L400.45,183.56L400.63,176.38L400.82,185.95L400.83,188.35L400.83,190.74L401.57,178.77L401.7,176.38L402.43,193.13L402.48,190.74L402.77,188.35L402.79,197.92L403.22,190.74L403.25,193.13L403.35,197.92L403.65,193.13L404.3,190.74L404.37,188.35L404.78,202.71L404.78,200.31L405.18,197.92L405.67,181.17L405.85,207.5L406.15,205.1L406.57,190.74L406.71,200.31L406.72,202.71L406.77,207.5L407.32,200.31L407.35,202.71L407.94,200.31L408.08,207.5L408.63,195.53L408.7,193.13L408.76,195.53L409.12,181.17L409.13,178.77L409.16,171.59L409.29,212.28L409.6,202.71L409.99,200.31L410.41,195.53L410.63,202.71L410.67,200.31L411.06,197.92L411.69,205.1L412.03,207.5L412.32,209.89L412.64,200.31L412.98,202.71L413.57,214.68L413.59,212.28L413.98,209.89L414.63,221.86L415.2,219.46L415.54,221.86L415.91,212.28L415.92,209.89L416.15,202.71L416.85,205.1L416.99,217.07L417.29,200.31L417.45,205.1L417.61,207.5L417.83,205.1L417.99,212.28L419.11,209.89L419.25,214.68L419.4,209.89L420.05,207.5L420.2,209.89L420.38,205.1L420.71,202.71L420.74,209.89L421.13,205.1L421.81,202.71L422.31,200.31L422.31,202.71L422.31,205.1L422.82,200.31L422.82,197.92L422.83,195.53L422.87,205.1L423,197.92L423.83,195.53L424.05,188.35L424.25,200.31L424.38,202.71L424.76,219.46L425.13,217.07L425.18,214.68L425.54,209.89L425.69,221.86L425.7,219.46L425.95,217.07L426,219.46L426.71,212.28L426.83,209.89L427.4,226.65L427.51,226.65L427.66,224.25L427.75,209.89L427.77,226.65L428.45,212.28L428.45,214.68L428.64,217.07L429.05,205.1L429.32,212.28L429.32,214.68L429.83,229.04L430,226.65L430.4,229.04L430.83,217.07L431.11,219.46L431.35,217.07L431.36,219.46L431.78,214.68L431.79,214.68L432.87,212.28L433.45,207.5L433.45,209.89L434.23,207.5L434.28,205.1L434.3,224.25L434.7,221.86L435.23,224.25L435.34,226.65L435.5,214.68L435.5,212.28L435.9,207.5L435.94,212.28L436.15,214.68L436.17,212.28L436.87,229.04L436.87,226.65L437.16,229.04L437.46,221.86L437.73,226.65L438.03,229.04L438.39,231.43L438.71,221.86L438.71,224.25L439.1,221.86L440.15,214.68L440.48,217.07L440.48,219.46L440.51,214.68L440.63,224.25L441.05,224.25L441.33,221.86L441.35,224.25L441.61,219.46L441.85,224.25L442.14,221.86L442.44,231.43L442.69,226.65L442.99,229.04L443.64,224.25L443.64,226.65L443.88,224.25L444.05,217.07L444.06,226.65L444.23,221.86L444.92,224.25L444.92,221.86L445.44,231.43L445.84,229.04L446.13,226.65L446.14,231.43L446.41,229.04L446.69,226.65L447.34,224.25L447.34,226.65L447.5,229.04L447.52,226.65L447.66,238.61L448.03,236.22L448.17,238.61L448.32,231.43L448.91,236.22L449.01,238.61L449.7,226.65L449.7,236.22L449.71,238.61L449.71,236.22L449.84,241.01L450.41,238.61L450.66,236.22L450.66,241.01L451.39,238.61L451.5,241.01L451.52,245.8L452.2,241.01L453.01,238.61L453.14,241.01L453.77,238.61L453.92,233.83L453.97,245.8L454,245.8L454,248.19L454.68,238.61L454.69,245.8L454.69,248.19L455.36,243.4L455.39,245.8L455.48,248.19L455.66,241.01L455.79,243.4L456.32,241.01L456.32,243.4L457.04,233.83L457.05,236.22L457.31,238.61L457.62,243.4L457.84,236.22L458.43,233.83L458.7,238.61L458.72,236.22L459.64,233.83L459.64,236.22L460.23,231.43L460.37,231.43L460.87,229.04L461.31,224.25L461.58,229.04L461.71,226.65L461.72,224.25L462.61,226.65L463.22,224.25L463.5,233.83L463.54,231.43L464.23,238.61L464.47,236.22L464.47,233.83L464.47,236.22L465.18,224.25L465.22,231.43L465.47,229.04L466.12,231.43L466.47,229.04L466.47,231.43L466.69,224.25L466.71,231.43L467.36,229.04L467.51,241.01L468.11,241.01L468.12,238.61L468.13,233.83L468.75,248.19L469.5,245.8L469.89,248.19L469.91,245.8L470.55,243.4L471.08,248.19L471.84,245.8L472.27,241.01L472.66,243.4L472.74,245.8L473.09,241.01L473.15,245.8L473.17,248.19L473.2,243.4L473.9,245.8L474,243.4L474.32,238.61L474.32,241.01L474.99,243.4L475.12,238.61L475.6,243.4L476.44,241.01L477.28,238.61L477.28,241.01L477.28,238.61L477.32,243.4L477.86,243.4L478.71,241.01L478.82,236.22L478.83,243.4L478.97,238.61L479.79,241.01L480.36,231.43L480.67,229.04L481.18,231.43L481.35,229.04L481.35,226.65L481.97,217.07L481.98,231.43L482.07,229.04L482.31,226.65L482.59,224.25L482.59,229.04L482.59,231.43L483.17,229.04L483.4,231.43L483.51,229.04L483.82,236.22L484.45,238.61L484.92,233.83L485.04,238.61L485.04,241.01L485.04,238.61L485.42,245.8L485.7,245.8L485.85,243.4L486.45,241.01L486.53,243.4L486.55,245.8L486.74,238.61L486.89,241.01L487.51,238.61L488.34,245.8L488.38,243.4L488.61,245.8L489.04,241.01L489.29,243.4L489.62,236.22L489.7,241.01L490.46,238.61L490.83,243.4L490.9,236.22L491.24,233.83L491.79,229.04L491.91,241.01L491.94,241.01L492.25,238.61L493.8,226.65L494.19,229.04L494.19,231.43L495.13,229.04L495.37,233.83L495.81,224.25L495.85,231.43L495.94,229.04L496.34,231.43L496.64,229.04L498,226.65L499.14,217.07L499.25,219.46L499.25,221.86L499.25,224.25L499.41,217.07L499.45,217.07L501.61,219.46L501.99,214.68L502.02,231.43L502.29,231.43L502.3,233.83L503.12,226.65L503.12,229.04L503.39,231.43L504.09,217.07L504.13,219.46L504.23,221.86L504.33,219.46L504.78,226.65L504.93,219.46L505.34,217.07L505.86,212.28L505.87,214.68L505.89,217.07L506.05,212.28L506.05,217.07L507.91,214.68L507.91,217.07L509.66,214.68L511.17,202.71L511.22,200.31L511.23,197.92L511.23,205.1L511.68,202.71L512,200.31L513.49,195.53L513.72,193.13L513.73,195.53L514.2,188.35L515.32,185.95L515.96,176.38L515.97,173.98L515.97,176.38L516.55,162.02L516.64,162.02L516.9,159.62L516.9,162.02L517.34,150.05L517.62,150.05L517.73,147.65L517.74,150.05L518.46,142.87L518.55,145.26L519.29,133.29L521.54,130.9L522.77,114.14L523.7,111.75L525.36,106.96L527.12,104.57L528.04,92.6L528.35,90.2L528.67,85.42L529.22,83.02L529.23,85.42L529.66,75.84L530.3,73.45L530.3,75.84L530.57,73.45L531.06,71.06L532.55,59.09L533.78,56.69L534.45,51.91L535.16,49.51L536.21,47.12L536.21,49.51L538.09,39.94L538.09,39.94L538.09,37.54L538.57,32.76L538.57,35.15L538.57,37.54L538.69,30.36L539.04,35.15L539.61,32.76L539.61,35.15L540,16" style="vector-effect: none; fill: none; stroke: rgb(44, 160, 44); stroke-opacity: 1; stroke-width: 2px; opacity: 1;"/></g><g class="points"/><g class="text"/></g></g></g></g><g class="zerolinelayer-above"/><path class="xlines-above crisp" d="M0,0" style="fill: none;"/><path class="ylines-above crisp" d="M0,0" style="fill: none;"/><g class="overlines-above"/><g class="xaxislayer-above"><g class="xtick"><text text-anchor="middle" x="0" y="439" transform="translate(96.47,0)" style="font-family: 'Open Sans'; font-size: 18px; fill: rgb(255, 255, 255); fill-opacity: 1; white-space: pre;">2016</text></g><g class="xtick"><text text-anchor="middle" x="0" y="439" style="font-family: 'Open Sans'; font-size: 18px; fill: rgb(255, 255, 255); fill-opacity: 1; white-space: pre;" transform="translate(197.35,0)">2018</text></g><g class="xtick"><text text-anchor="middle" x="0" y="439" style="font-family: 'Open Sans'; font-size: 18px; fill: rgb(255, 255, 255); fill-opacity: 1; white-space: pre;" transform="translate(298.08000000000004,0)">2020</text></g><g class="xtick"><text text-anchor="middle" x="0" y="439" style="font-family: 'Open Sans'; font-size: 18px; fill: rgb(255, 255, 255); fill-opacity: 1; white-space: pre;" transform="translate(398.96,0)">2022</text></g><g class="xtick"><text text-anchor="middle" x="0" y="439" style="font-family: 'Open Sans'; font-size: 18px; fill: rgb(255, 255, 255); fill-opacity: 1; white-space: pre;" transform="translate(499.69,0)">2024</text></g><g class="xtick"><text text-anchor="middle" x="0" y="439" style="font-family: 'Open Sans'; font-size: 18px; fill: rgb(255, 255, 255); fill-opacity: 1; white-space: pre;" transform="translate(600.57,0)">2026</text></g></g><g class="yaxislayer-above"><g class="ytick"><text text-anchor="end" x="79" y="6.3" transform="translate(0,420)" style="font-family: 'Open Sans'; font-size: 18px; fill: rgb(255, 255, 255); fill-opacity: 1; white-space: pre;">0</text></g><g class="ytick"><text text-anchor="end" x="79" y="6.3" style="font-family: 'Open Sans'; font-size: 18px; fill: rgb(255, 255, 255); fill-opacity: 1; white-space: pre;" transform="translate(0,372.13)">20</text></g><g class="ytick"><text text-anchor="end" x="79" y="6.3" style="font-family: 'Open Sans'; font-size: 18px; fill: rgb(255, 255, 255); fill-opacity: 1; white-space: pre;" transform="translate(0,324.25)">40</text></g><g class="ytick"><text text-anchor="end" x="79" y="6.3" style="font-family: 'Open Sans'; font-size: 18px; fill: rgb(255, 255, 255); fill-opacity: 1; white-space: pre;" transform="translate(0,276.38)">60</text></g><g class="ytick"><text text-anchor="end" x="79" y="6.3" style="font-family: 'Open Sans'; font-size: 18px; fill: rgb(255, 255, 255); fill-opacity: 1; white-space: pre;" transform="translate(0,228.5)">80</text></g><g class="ytick"><text text-anchor="end" x="79" y="6.3" style="font-family: 'Open Sans'; font-size: 18px; fill: rgb(255, 255, 255); fill-opacity: 1; white-space: pre;" transform="translate(0,180.63)">100</text></g><g class="ytick"><text text-anchor="end" x="79" y="6.3" style="font-family: 'Open Sans'; font-size: 18px; fill: rgb(255, 255, 255); fill-opacity: 1; white-space: pre;" transform="translate(0,132.76)">120</text></g></g><g class="overaxes-above"/></g></g><g class="polarlayer"/><g class="smithlayer"/><g class="ternarylayer"/><g class="geolayer"/><g class="funnelarealayer"/><g class="pielayer"/><g class="iciclelayer"/><g class="treemaplayer"/><g class="sunburstlayer"/><g class="glimages"/><defs id="topdefs-0ae565"><g class="clips"/></defs><g class="layer-above"><g class="imagelayer"/><g class="shapelayer"/></g><g class="infolayer"><g class="g-gtitle"><text class="gtitle" x="35" y="50" text-anchor="start" dy="0em" style="opacity: 1; font-family: 'Open Sans'; font-size: 25px; fill: rgb(255, 255, 255); fill-opacity: 1; white-space: pre;">MultiQC/MultiQC - Open Pull Requests Over Time</text></g><g class="g-xtitle"><text class="xtitle" x="350" y="472.9" text-anchor="middle" style="opacity: 1; font-family: 'Open Sans'; font-size: 22px; fill: rgb(255, 255, 255); fill-opacity: 1; white-space: pre;">Date</text></g><g class="g-ytitle"><text class="ytitle" transform="rotate(-90,29.799999999999997,260)" x="29.799999999999997" y="260" text-anchor="middle" style="opacity: 1; font-family: 'Open Sans'; font-size: 22px; fill: rgb(255, 255, 255); fill-opacity: 1; white-space: pre;">Number of Open PRs</text></g></g></svg>