<svg class="main-svg" xmlns="http://www.w3.org/2000/svg" xmlns:xlink="http://www.w3.org/1999/xlink" width="700" height="500" style="" viewBox="0 0 700 500"><rect x="0" y="0" width="700" height="500" style="fill: rgb(0, 0, 0); fill-opacity: 0;"/><defs id="defs-953379"><g class="clips"><clipPath id="clip953379xyplot" class="plotclip"><rect width="540" height="320"/></clipPath><clipPath class="axesclip" id="clip953379x"><rect x="80" y="0" width="540" height="500"/></clipPath><clipPath class="axesclip" id="clip953379y"><rect x="0" y="100" width="700" height="320"/></clipPath><clipPath class="axesclip" id="clip953379xy"><rect x="80" y="100" width="540" height="320"/></clipPath></g><g class="gradients"/><g class="patterns"/></defs><g class="bglayer"><rect class="bg" x="80" y="100" width="540" height="320" style="fill: rgb(0, 0, 0); fill-opacity: 0; stroke-width: 0;"/></g><g class="layer-below"><g class="imagelayer"/><g class="shapelayer"/></g><g class="cartesianlayer"><g class="subplot xy"><g class="layer-subplot"><g class="shapelayer"/><g class="imagelayer"/></g><g class="minor-gridlayer"><g class="x"/><g class="y"/></g><g class="gridlayer"><g class="x"><path class="xgrid crisp" transform="translate(97.6,0)" d="M0,100v320" style="stroke: rgb(255, 255, 255); stroke-opacity: 1; stroke-width: 1px;"/><path class="xgrid crisp" transform="translate(203.03,0)" d="M0,100v320" style="stroke: rgb(255, 255, 255); stroke-opacity: 1; stroke-width: 1px;"/><path class="xgrid crisp" transform="translate(308.32,0)" d="M0,100v320" style="stroke: rgb(255, 255, 255); stroke-opacity: 1; stroke-width: 1px;"/><path class="xgrid crisp" transform="translate(413.75,0)" d="M0,100v320" style="stroke: rgb(255, 255, 255); stroke-opacity: 1; stroke-width: 1px;"/><path class="xgrid crisp" transform="translate(519.04,0)" d="M0,100v320" style="stroke: rgb(255, 255, 255); stroke-opacity: 1; stroke-width: 1px;"/></g><g class="y"><path class="ygrid crisp" transform="translate(0,382.93)" d="M80,0h540" style="stroke: rgb(255, 255, 255); stroke-opacity: 1; stroke-width: 1px;"/><path class="ygrid crisp" transform="translate(0,345.85)" d="M80,0h540" style="stroke: rgb(255, 255, 255); stroke-opacity: 1; stroke-width: 1px;"/><path class="ygrid crisp" transform="translate(0,308.78)" d="M80,0h540" style="stroke: rgb(255, 255, 255); stroke-opacity: 1; stroke-width: 1px;"/><path class="ygrid crisp" transform="translate(0,271.71000000000004)" d="M80,0h540" style="stroke: rgb(255, 255, 255); stroke-opacity: 1; stroke-width: 1px;"/><path class="ygrid crisp" transform="translate(0,234.63)" d="M80,0h540" style="stroke: rgb(255, 255, 255); stroke-opacity: 1; stroke-width: 1px;"/><path class="ygrid crisp" transform="translate(0,197.56)" d="M80,0h540" style="stroke: rgb(255, 255, 255); stroke-opacity: 1; stroke-width: 1px;"/><path class="ygrid crisp" transform="translate(0,160.49)" d="M80,0h540" style="stroke: rgb(255, 255, 255); stroke-opacity: 1; stroke-width: 1px;"/><path class="ygrid crisp" transform="translate(0,123.41)" d="M80,0h540" style="stroke: rgb(255, 255, 255); stroke-opacity: 1; stroke-width: 1px;"/></g></g><g class="zerolinelayer"><path class="yzl zl crisp" transform="translate(0,420)" d="M80,0h540" style="stroke: rgb(255, 255, 255); stroke-opacity: 1; stroke-width: 2px;"/></g><g class="layer-between"><g class="shapelayer"/><g class="imagelayer"/></g><path class="xlines-below"/><path class="ylines-below"/><g class="overlines-below"/><g class="xaxislayer-below"/><g class="yaxislayer-below"/><g class="overaxes-below"/><g class="overplot"><g class="xy" transform="translate(80,100)" clip-path="url(#clip953379xyplot)"><g class="scatterlayer mlayer"><g class="trace scatter trace945307" style="stroke-miterlimit: 2;"><g class="fills"><g><path class="js-fill" d="M540,320L0,320L0,286.63L4.33,286.63L8.8,301.46L13.13,316.29L22.07,305.17L26.25,305.17L30.72,294.05L35.05,294.05L39.52,308.88L43.85,275.51L48.32,312.59L52.79,312.59L57.12,305.17L61.59,297.76L65.91,275.51L70.38,301.46L74.86,305.17L78.89,301.46L83.37,290.34L87.69,305.17L92.16,308.88L96.49,227.32L100.96,249.56L105.43,268.1L109.76,279.22L114.23,301.46L118.56,308.88L123.03,290.34L127.5,305.17L131.54,275.51L136.01,268.1L140.34,290.34L144.81,290.34L149.13,301.46L153.61,297.76L162.4,312.59L166.88,312.59L171.2,294.05L175.67,312.59L180.14,308.88L184.18,268.1L188.65,301.46L192.98,308.88L197.45,305.17L201.78,312.59L206.25,305.17L210.72,316.29L215.05,282.93L219.52,297.76L223.85,305.17L228.32,308.88L232.79,297.76L236.97,260.68L241.44,268.1L245.77,256.98L250.24,275.51L254.57,305.17L259.04,308.88L263.51,282.93L267.84,282.93L272.31,290.34L276.63,301.46L281.11,305.17L285.58,297.76L289.62,301.46L298.41,301.46L302.88,264.39L307.21,264.39L311.68,256.98L316.15,308.88L320.48,305.17L324.95,256.98L329.28,305.17L333.75,312.59L338.22,286.63L342.26,297.76L346.73,294.05L351.06,305.17L355.53,282.93L359.86,286.63L364.33,286.63L368.8,290.34L373.13,305.17L377.6,286.63L381.92,249.56L386.39,294.05L390.87,305.17L394.9,286.63L399.38,282.93L403.7,305.17L408.17,305.17L412.5,294.05L416.97,179.12L421.44,149.46L425.77,168L430.24,219.9L434.57,179.12L439.04,245.85L443.51,16L447.69,197.66L452.16,205.07L456.49,119.8L460.96,164.29L465.29,156.88L469.76,142.05L474.23,93.85L478.56,212.49L487.36,212.49L491.83,216.2L496.3,264.39L500.34,242.15L504.81,242.15L509.13,223.61L513.61,268.1L517.93,212.49L522.4,245.85L526.88,238.44L531.2,268.1L535.67,264.39L540,193.95" style="fill: rgb(44, 160, 44); fill-opacity: 0.5; stroke-width: 0;"/></g></g><g class="errorbars"/><g class="lines"><path class="js-line" d="M0,286.63L4.33,286.63L8.8,301.46L13.13,316.29L22.07,305.17L26.25,305.17L30.72,294.05L35.05,294.05L39.52,308.88L43.85,275.51L48.32,312.59L52.79,312.59L57.12,305.17L61.59,297.76L65.91,275.51L70.38,301.46L74.86,305.17L78.89,301.46L83.37,290.34L87.69,305.17L92.16,308.88L96.49,227.32L100.96,249.56L105.43,268.1L109.76,279.22L114.23,301.46L118.56,308.88L123.03,290.34L127.5,305.17L131.54,275.51L136.01,268.1L140.34,290.34L144.81,290.34L149.13,301.46L153.61,297.76L162.4,312.59L166.88,312.59L171.2,294.05L175.67,312.59L180.14,308.88L184.18,268.1L188.65,301.46L192.98,308.88L197.45,305.17L201.78,312.59L206.25,305.17L210.72,316.29L215.05,282.93L219.52,297.76L223.85,305.17L228.32,308.88L232.79,297.76L236.97,260.68L241.44,268.1L245.77,256.98L250.24,275.51L254.57,305.17L259.04,308.88L263.51,282.93L267.84,282.93L272.31,290.34L276.63,301.46L281.11,305.17L285.58,297.76L289.62,301.46L298.41,301.46L302.88,264.39L307.21,264.39L311.68,256.98L316.15,308.88L320.48,305.17L324.95,256.98L329.28,305.17L333.75,312.59L338.22,286.63L342.26,297.76L346.73,294.05L351.06,305.17L355.53,282.93L359.86,286.63L364.33,286.63L368.8,290.34L373.13,305.17L377.6,286.63L381.92,249.56L386.39,294.05L390.87,305.17L394.9,286.63L399.38,282.93L403.7,305.17L408.17,305.17L412.5,294.05L416.97,179.12L421.44,149.46L425.77,168L430.24,219.9L434.57,179.12L439.04,245.85L443.51,16L447.69,197.66L452.16,205.07L456.49,119.8L460.96,164.29L465.29,156.88L469.76,142.05L474.23,93.85L478.56,212.49L487.36,212.49L491.83,216.2L496.3,264.39L500.34,242.15L504.81,242.15L509.13,223.61L513.61,268.1L517.93,212.49L522.4,245.85L526.88,238.44L531.2,268.1L535.67,264.39L540,193.95" style="vector-effect: none; fill: none; stroke: rgb(44, 160, 44); stroke-opacity: 1; stroke-width: 2px; opacity: 1;"/></g><g class="points"/><g class="text"/></g></g></g></g><g class="zerolinelayer-above"/><path class="xlines-above crisp" d="M0,0" style="fill: none;"/><path class="ylines-above crisp" d="M0,0" style="fill: none;"/><g class="overlines-above"/><g class="xaxislayer-above"><g class="xtick"><text text-anchor="middle" x="0" y="439" transform="translate(97.6,0)" style="font-family: 'Open Sans'; font-size: 18px; fill: rgb(0, 0, 0); fill-opacity: 1; white-space: pre;">2016</text></g><g class="xtick"><text text-anchor="middle" x="0" y="439" style="font-family: 'Open Sans'; font-size: 18px; fill: rgb(0, 0, 0); fill-opacity: 1; white-space: pre;" transform="translate(203.03,0)">2018</text></g><g class="xtick"><text text-anchor="middle" x="0" y="439" style="font-family: 'Open Sans'; font-size: 18px; fill: rgb(0, 0, 0); fill-opacity: 1; white-space: pre;" transform="translate(308.32,0)">2020</text></g><g class="xtick"><text text-anchor="middle" x="0" y="439" style="font-family: 'Open Sans'; font-size: 18px; fill: rgb(0, 0, 0); fill-opacity: 1; white-space: pre;" transform="translate(413.75,0)">2022</text></g><g class="xtick"><text text-anchor="middle" x="0" y="439" style="font-family: 'Open Sans'; font-size: 18px; fill: rgb(0, 0, 0); fill-opacity: 1; white-space: pre;" transform="translate(519.04,0)">2024</text></g></g><g class="yaxislayer-above"><g class="ytick"><text text-anchor="end" x="79" y="6.3" transform="translate(0,420)" style="font-family: 'Open Sans'; font-size: 18px; fill: rgb(0, 0, 0); fill-opacity: 1; white-space: pre;">0</text></g><g class="ytick"><text text-anchor="end" x="79" y="6.3" style="font-family: 'Open Sans'; font-size: 18px; fill: rgb(0, 0, 0); fill-opacity: 1; white-space: pre;" transform="translate(0,382.93)">10</text></g><g class="ytick"><text text-anchor="end" x="79" y="6.3" style="font-family: 'Open Sans'; font-size: 18px; fill: rgb(0, 0, 0); fill-opacity: 1; white-space: pre;" transform="translate(0,345.85)">20</text></g><g class="ytick"><text text-anchor="end" x="79" y="6.3" style="font-family: 'Open Sans'; font-size: 18px; fill: rgb(0, 0, 0); fill-opacity: 1; white-space: pre;" transform="translate(0,308.78)">30</text></g><g class="ytick"><text text-anchor="end" x="79" y="6.3" style="font-family: 'Open Sans'; font-size: 18px; fill: rgb(0, 0, 0); fill-opacity: 1; white-space: pre;" transform="translate(0,271.71000000000004)">40</text></g><g class="ytick"><text text-anchor="end" x="79" y="6.3" style="font-family: 'Open Sans'; font-size: 18px; fill: rgb(0, 0, 0); fill-opacity: 1; white-space: pre;" transform="translate(0,234.63)">50</text></g><g class="ytick"><text text-anchor="end" x="79" y="6.3" style="font-family: 'Open Sans'; font-size: 18px; fill: rgb(0, 0, 0); fill-opacity: 1; white-space: pre;" transform="translate(0,197.56)">60</text></g><g class="ytick"><text text-anchor="end" x="79" y="6.3" style="font-family: 'Open Sans'; font-size: 18px; fill: rgb(0, 0, 0); fill-opacity: 1; white-space: pre;" transform="translate(0,160.49)">70</text></g><g class="ytick"><text text-anchor="end" x="79" y="6.3" style="font-family: 'Open Sans'; font-size: 18px; fill: rgb(0, 0, 0); fill-opacity: 1; white-space: pre;" transform="translate(0,123.41)">80</text></g></g><g class="overaxes-above"/></g></g><g class="polarlayer"/><g class="smithlayer"/><g class="ternarylayer"/><g class="geolayer"/><g class="funnelarealayer"/><g class="pielayer"/><g class="iciclelayer"/><g class="treemaplayer"/><g class="sunburstlayer"/><g class="glimages"/><defs id="topdefs-953379"><g class="clips"/></defs><g class="layer-above"><g class="imagelayer"/><g class="shapelayer"/></g><g class="infolayer"><g class="g-gtitle"><text class="gtitle" x="35" y="50" text-anchor="start" dy="0em" style="opacity: 1; font-family: 'Open Sans'; font-size: 25px; fill: rgb(0, 0, 0); fill-opacity: 1; white-space: pre;">MultiQC/MultiQC - New Pull Requests Per Month</text></g><g class="g-xtitle"><text class="xtitle" x="350" y="472.9" text-anchor="middle" style="opacity: 1; font-family: 'Open Sans'; font-size: 22px; fill: rgb(0, 0, 0); fill-opacity: 1; white-space: pre;">Month</text></g><g class="g-ytitle"><text class="ytitle" transform="rotate(-90,38.8,260)" x="38.8" y="260" text-anchor="middle" style="opacity: 1; font-family: 'Open Sans'; font-size: 22px; fill: rgb(0, 0, 0); fill-opacity: 1; white-space: pre;">New PRs Created</text></g></g></svg>