<svg class="main-svg" xmlns="http://www.w3.org/2000/svg" xmlns:xlink="http://www.w3.org/1999/xlink" width="700" height="500" style="" viewBox="0 0 700 500"><rect x="0" y="0" width="700" height="500" style="fill: rgb(0, 0, 0); fill-opacity: 0;"/><defs id="defs-4ddcc3"><g class="clips"><clipPath id="clip4ddcc3xyplot" class="plotclip"><rect width="540" height="320"/></clipPath><clipPath class="axesclip" id="clip4ddcc3x"><rect x="80" y="0" width="540" height="500"/></clipPath><clipPath class="axesclip" id="clip4ddcc3y"><rect x="0" y="100" width="700" height="320"/></clipPath><clipPath class="axesclip" id="clip4ddcc3xy"><rect x="80" y="100" width="540" height="320"/></clipPath></g><g class="gradients"/><g class="patterns"/></defs><g class="bglayer"><rect class="bg" x="80" y="100" width="540" height="320" style="fill: rgb(0, 0, 0); fill-opacity: 0; stroke-width: 0;"/></g><g class="layer-below"><g class="imagelayer"/><g class="shapelayer"/></g><g class="cartesianlayer"><g class="subplot xy"><g class="layer-subplot"><g class="shapelayer"/><g class="imagelayer"/></g><g class="minor-gridlayer"><g class="x"/><g class="y"/></g><g class="gridlayer"><g class="x"><path class="xgrid crisp" transform="translate(96.99,0)" d="M0,100v320" style="stroke: rgb(255, 255, 255); stroke-opacity: 1; stroke-width: 1px;"/><path class="xgrid crisp" transform="translate(201,0)" d="M0,100v320" style="stroke: rgb(255, 255, 255); stroke-opacity: 1; stroke-width: 1px;"/><path class="xgrid crisp" transform="translate(304.87,0)" d="M0,100v320" style="stroke: rgb(255, 255, 255); stroke-opacity: 1; stroke-width: 1px;"/><path class="xgrid crisp" transform="translate(408.89,0)" d="M0,100v320" style="stroke: rgb(255, 255, 255); stroke-opacity: 1; stroke-width: 1px;"/><path class="xgrid crisp" transform="translate(512.76,0)" d="M0,100v320" style="stroke: rgb(255, 255, 255); stroke-opacity: 1; stroke-width: 1px;"/><path class="xgrid crisp" transform="translate(616.77,0)" d="M0,100v320" style="stroke: rgb(255, 255, 255); stroke-opacity: 1; stroke-width: 1px;"/></g><g class="y"><path class="ygrid crisp" transform="translate(0,382.99)" d="M80,0h540" style="stroke: rgb(255, 255, 255); stroke-opacity: 1; stroke-width: 1px;"/><path class="ygrid crisp" transform="translate(0,345.99)" d="M80,0h540" style="stroke: rgb(255, 255, 255); stroke-opacity: 1; stroke-width: 1px;"/><path class="ygrid crisp" transform="translate(0,308.98)" d="M80,0h540" style="stroke: rgb(255, 255, 255); stroke-opacity: 1; stroke-width: 1px;"/><path class="ygrid crisp" transform="translate(0,271.98)" d="M80,0h540" style="stroke: rgb(255, 255, 255); stroke-opacity: 1; stroke-width: 1px;"/><path class="ygrid crisp" transform="translate(0,234.97)" d="M80,0h540" style="stroke: rgb(255, 255, 255); stroke-opacity: 1; stroke-width: 1px;"/><path class="ygrid crisp" transform="translate(0,197.97)" d="M80,0h540" style="stroke: rgb(255, 255, 255); stroke-opacity: 1; stroke-width: 1px;"/><path class="ygrid crisp" transform="translate(0,160.96)" d="M80,0h540" style="stroke: rgb(255, 255, 255); stroke-opacity: 1; stroke-width: 1px;"/><path class="ygrid crisp" transform="translate(0,123.96000000000001)" d="M80,0h540" style="stroke: rgb(255, 255, 255); stroke-opacity: 1; stroke-width: 1px;"/></g></g><g class="zerolinelayer"><path class="yzl zl crisp" transform="translate(0,420)" d="M80,0h540" style="stroke: rgb(255, 255, 255); stroke-opacity: 1; stroke-width: 2px;"/></g><g class="layer-between"><g class="shapelayer"/><g class="imagelayer"/></g><path class="xlines-below"/><path class="ylines-below"/><g class="overlines-below"/><g class="xaxislayer-below"/><g class="yaxislayer-below"/><g class="overaxes-below"/><g class="overplot"><g class="xy" transform="translate(80,100)" clip-path="url(#clip4ddcc3xyplot)"><g class="scatterlayer mlayer"><g class="trace scatter tracea9f854" style="stroke-miterlimit: 2;"><g class="fills"><g><path class="js-fill" d="M540,320L0,320L0,319.81L3.54,318.52L3.84,318.33L5.82,317.22L6.13,317.04L14.51,315.56L21.91,315.37L22.11,315.19L23.73,315L23.73,314.82L26.72,314.63L34.89,312.23L35.29,312.04L43.72,310.19L43.82,310.01L43.86,309.45L44.8,309.27L45.38,308.9L46.65,308.71L58.98,307.42L60.09,307.23L67.42,305.01L67.47,304.83L68.28,303.9L69.13,303.72L70.58,302.98L75.1,302.79L79.24,301.87L80.44,301.68L85.37,300.02L85.37,299.83L96.24,298.17L96.59,297.98L97.61,297.06L97.62,296.87L98.31,294.47L98.72,294.28L99.15,293.91L99.74,293.73L101.43,292.43L101.57,292.25L102.17,291.32L103.14,291.14L104.29,289.84L104.4,289.66L105.16,288.92L106.11,288.73L109.35,286.88L109.35,286.7L109.85,286.14L111.13,285.95L111.26,285.77L113.26,285.58L113.27,285.4L114.38,285.21L122.05,283.92L122.35,283.73L122.66,283.18L123.5,282.99L130.46,281.33L130.47,281.14L131.35,280.4L132.33,280.22L136.34,278.37L137.01,278.18L137.15,277.26L138.44,277.07L138.55,276.89L140,276.7L140.54,276.33L141.98,276.15L142.29,275.78L143.99,275.59L153.53,272.45L155.11,272.26L171.44,269.67L171.46,269.49L181.74,268.19L181.74,268.01L182.39,266.9L183.94,266.71L184.28,265.97L185.94,265.79L186.44,265.23L188.65,265.05L213.9,261.72L213.99,261.53L214.3,260.79L215.72,260.61L219.79,259.5L220.96,259.31L233.79,256.91L233.8,256.72L234.61,255.98L234.89,255.8L237.48,254.5L237.73,254.32L238.21,253.21L238.8,253.02L238.9,252.84L240.2,252.65L242.19,251.35L242.85,251.17L244.15,250.24L244.86,250.06L244.86,249.87L245.85,249.69L246.57,248.21L246.84,248.02L247.87,247.28L248.7,247.1L253.01,245.43L257.6,245.25L257.94,244.88L259.85,244.69L263.56,243.21L263.66,243.03L264.98,241.92L267.05,241.73L267.11,241.36L268.14,241.18L273.03,239.51L274.72,239.33L274.91,239.14L276.66,238.96L276.67,238.77L277.63,238.59L277.82,238.4L279.19,238.22L284.64,237.11L284.7,236.92L297.03,234.33L297.81,234.15L300.52,233.22L300.91,233.04L300.92,232.85L302.07,232.67L302.93,231.19L302.95,231L305.34,229.15L305.38,228.97L308.85,227.3L309.34,227.12L309.77,225.45L311.97,225.27L320.37,223.79L321.03,223.6L321.2,222.86L321.88,222.68L323.76,221.01L326.23,220.83L326.72,220.46L327.97,220.27L336.52,218.6L336.54,218.42L337.39,218.05L338.65,217.86L343.77,216.01L343.85,215.83L351.26,214.72L351.27,214.53L354.13,213.24L354.71,213.05L360.33,211.02L360.37,210.83L361.4,210.09L363.23,209.91L366.32,208.61L367.26,208.43L373.5,207.13L373.62,206.95L376.14,206.02L377.33,205.84L378.15,204.91L378.37,204.73L380.2,202.88L380.6,202.69L381.66,201.58L382.19,201.4L386.05,200.47L389.86,200.29L393.54,198.81L395.39,198.62L395.54,198.25L396.99,198.07L397.12,196.96L401.1,196.77L401.95,196.22L404.07,196.03L408.37,194.92L409.87,194.74L411.53,193.81L412.15,193.63L413.49,190.85L413.94,190.67L414.53,189L414.88,188.82L415.77,186.6L415.93,186.41L416.21,185.86L416.89,185.67L419.35,178.64L419.76,178.45L421.86,174.94L421.86,174.75L422.86,171.98L423.18,171.79L426,169.02L426,168.83L426.44,167.17L426.46,166.98L428.86,165.13L428.87,164.95L429.11,164.21L429.98,164.02L430.98,159.77L432.16,159.58L432.46,159.03L433.13,158.84L436.1,156.25L436.12,156.07L436.17,155.7L437.02,155.51L438.43,152.92L438.43,152.74L438.8,151.81L438.81,151.63L439.39,149.22L439.62,149.03L441.07,142.37L441.08,142.19L441.79,139.6L441.94,139.41L444.25,135.16L444.26,134.97L447.8,132.01L447.82,131.83L451.08,125.54L451.08,125.35L452.34,121.47L452.34,121.28L452.77,120.91L453.22,120.73L454.21,119.8L454.21,119.62L454.54,118.14L455.07,117.95L455.6,117.21L455.91,117.02L457.03,114.8L457.03,114.62L457.92,110.92L458.01,110.73L459.31,108.51L459.72,108.33L460.87,106.29L461.01,106.11L462.2,103.33L462.2,103.15L463.72,100.37L464.16,100.19L465.44,96.49L465.56,96.3L466.28,93.71L467.11,93.53L468.05,92.6L468.11,92.42L468.84,90.2L468.97,90.01L470.71,85.02L471.09,84.83L472.02,81.13L472.09,80.94L472.98,80.02L473,79.83L474.55,78.91L474.71,78.72L475.67,77.61L475.68,77.43L478.64,75.02L478.65,74.84L479.5,72.62L479.66,72.43L479.99,71.51L480.63,71.32L482.08,69.84L482.09,69.66L482.83,66.7L483.26,66.51L486.9,65.03L486.97,64.85L487.93,63.74L487.93,63.55L490.1,59.85L491.27,59.67L492.18,58.74L492.62,58.56L493.88,57.08L494.73,56.89L497.61,54.3L498.21,54.12L501.73,51.34L501.83,51.16L502.04,50.23L502.69,50.05L507.23,44.68L507.58,44.49L509.17,43.38L510.54,43.2L511.55,39.87L511.79,39.68L515,37.65L517.23,37.46L518.05,34.87L518.78,34.69L519.07,33.95L519.65,33.76L520.65,30.99L521.07,30.8L523.73,29.69L525.52,29.51L527.14,28.03L527.19,27.84L527.94,27.29L528.93,27.1L531.88,25.44L532.02,25.25L532.73,23.59L532.99,23.4L533.85,20.44L534.06,20.26L535.18,18.96L535.33,18.78L535.45,18.22L537.78,18.04L539.05,16.19L540,16" style="fill: rgb(44, 160, 44); fill-opacity: 0.5; stroke-width: 0;"/></g></g><g class="errorbars"/><g class="lines"><path class="js-line" d="M0,319.81L3.54,318.52L3.84,318.33L5.82,317.22L6.13,317.04L14.51,315.56L21.91,315.37L22.11,315.19L23.73,315L23.73,314.82L26.72,314.63L34.89,312.23L35.29,312.04L43.72,310.19L43.82,310.01L43.86,309.45L44.8,309.27L45.38,308.9L46.65,308.71L58.98,307.42L60.09,307.23L67.42,305.01L67.47,304.83L68.28,303.9L69.13,303.72L70.58,302.98L75.1,302.79L79.24,301.87L80.44,301.68L85.37,300.02L85.37,299.83L96.24,298.17L96.59,297.98L97.61,297.06L97.62,296.87L98.31,294.47L98.72,294.28L99.15,293.91L99.74,293.73L101.43,292.43L101.57,292.25L102.17,291.32L103.14,291.14L104.29,289.84L104.4,289.66L105.16,288.92L106.11,288.73L109.35,286.88L109.35,286.7L109.85,286.14L111.13,285.95L111.26,285.77L113.26,285.58L113.27,285.4L114.38,285.21L122.05,283.92L122.35,283.73L122.66,283.18L123.5,282.99L130.46,281.33L130.47,281.14L131.35,280.4L132.33,280.22L136.34,278.37L137.01,278.18L137.15,277.26L138.44,277.07L138.55,276.89L140,276.7L140.54,276.33L141.98,276.15L142.29,275.78L143.99,275.59L153.53,272.45L155.11,272.26L171.44,269.67L171.46,269.49L181.74,268.19L181.74,268.01L182.39,266.9L183.94,266.71L184.28,265.97L185.94,265.79L186.44,265.23L188.65,265.05L213.9,261.72L213.99,261.53L214.3,260.79L215.72,260.61L219.79,259.5L220.96,259.31L233.79,256.91L233.8,256.72L234.61,255.98L234.89,255.8L237.48,254.5L237.73,254.32L238.21,253.21L238.8,253.02L238.9,252.84L240.2,252.65L242.19,251.35L242.85,251.17L244.15,250.24L244.86,250.06L244.86,249.87L245.85,249.69L246.57,248.21L246.84,248.02L247.87,247.28L248.7,247.1L253.01,245.43L257.6,245.25L257.94,244.88L259.85,244.69L263.56,243.21L263.66,243.03L264.98,241.92L267.05,241.73L267.11,241.36L268.14,241.18L273.03,239.51L274.72,239.33L274.91,239.14L276.66,238.96L276.67,238.77L277.63,238.59L277.82,238.4L279.19,238.22L284.64,237.11L284.7,236.92L297.03,234.33L297.81,234.15L300.52,233.22L300.91,233.04L300.92,232.85L302.07,232.67L302.93,231.19L302.95,231L305.34,229.15L305.38,228.97L308.85,227.3L309.34,227.12L309.77,225.45L311.97,225.27L320.37,223.79L321.03,223.6L321.2,222.86L321.88,222.68L323.76,221.01L326.23,220.83L326.72,220.46L327.97,220.27L336.52,218.6L336.54,218.42L337.39,218.05L338.65,217.86L343.77,216.01L343.85,215.83L351.26,214.72L351.27,214.53L354.13,213.24L354.71,213.05L360.33,211.02L360.37,210.83L361.4,210.09L363.23,209.91L366.32,208.61L367.26,208.43L373.5,207.13L373.62,206.95L376.14,206.02L377.33,205.84L378.15,204.91L378.37,204.73L380.2,202.88L380.6,202.69L381.66,201.58L382.19,201.4L386.05,200.47L389.86,200.29L393.54,198.81L395.39,198.62L395.54,198.25L396.99,198.07L397.12,196.96L401.1,196.77L401.95,196.22L404.07,196.03L408.37,194.92L409.87,194.74L411.53,193.81L412.15,193.63L413.49,190.85L413.94,190.67L414.53,189L414.88,188.82L415.77,186.6L415.93,186.41L416.21,185.86L416.89,185.67L419.35,178.64L419.76,178.45L421.86,174.94L421.86,174.75L422.86,171.98L423.18,171.79L426,169.02L426,168.83L426.44,167.17L426.46,166.98L428.86,165.13L428.87,164.95L429.11,164.21L429.98,164.02L430.98,159.77L432.16,159.58L432.46,159.03L433.13,158.84L436.1,156.25L436.12,156.07L436.17,155.7L437.02,155.51L438.43,152.92L438.43,152.74L438.8,151.81L438.81,151.63L439.39,149.22L439.62,149.03L441.07,142.37L441.08,142.19L441.79,139.6L441.94,139.41L444.25,135.16L444.26,134.97L447.8,132.01L447.82,131.83L451.08,125.54L451.08,125.35L452.34,121.47L452.34,121.28L452.77,120.91L453.22,120.73L454.21,119.8L454.21,119.62L454.54,118.14L455.07,117.95L455.6,117.21L455.91,117.02L457.03,114.8L457.03,114.62L457.92,110.92L458.01,110.73L459.31,108.51L459.72,108.33L460.87,106.29L461.01,106.11L462.2,103.33L462.2,103.15L463.72,100.37L464.16,100.19L465.44,96.49L465.56,96.3L466.28,93.71L467.11,93.53L468.05,92.6L468.11,92.42L468.84,90.2L468.97,90.01L470.71,85.02L471.09,84.83L472.02,81.13L472.09,80.94L472.98,80.02L473,79.83L474.55,78.91L474.71,78.72L475.67,77.61L475.68,77.43L478.64,75.02L478.65,74.84L479.5,72.62L479.66,72.43L479.99,71.51L480.63,71.32L482.08,69.84L482.09,69.66L482.83,66.7L483.26,66.51L486.9,65.03L486.97,64.85L487.93,63.74L487.93,63.55L490.1,59.85L491.27,59.67L492.18,58.74L492.62,58.56L493.88,57.08L494.73,56.89L497.61,54.3L498.21,54.12L501.73,51.34L501.83,51.16L502.04,50.23L502.69,50.05L507.23,44.68L507.58,44.49L509.17,43.38L510.54,43.2L511.55,39.87L511.79,39.68L515,37.65L517.23,37.46L518.05,34.87L518.78,34.69L519.07,33.95L519.65,33.76L520.65,30.99L521.07,30.8L523.73,29.69L525.52,29.51L527.14,28.03L527.19,27.84L527.94,27.29L528.93,27.1L531.88,25.44L532.02,25.25L532.73,23.59L532.99,23.4L533.85,20.44L534.06,20.26L535.18,18.96L535.33,18.78L535.45,18.22L537.78,18.04L539.05,16.19L540,16" style="vector-effect: none; fill: none; stroke: rgb(44, 160, 44); stroke-opacity: 1; stroke-width: 2px; opacity: 1;"/></g><g class="points"/><g class="text"/></g></g></g></g><g class="zerolinelayer-above"/><path class="xlines-above crisp" d="M0,0" style="fill: none;"/><path class="ylines-above crisp" d="M0,0" style="fill: none;"/><g class="overlines-above"/><g class="xaxislayer-above"><g class="xtick"><text text-anchor="middle" x="0" y="439" transform="translate(96.99,0)" style="font-family: 'Open Sans'; font-size: 18px; fill: rgb(0, 0, 0); fill-opacity: 1; white-space: pre;">2016</text></g><g class="xtick"><text text-anchor="middle" x="0" y="439" style="font-family: 'Open Sans'; font-size: 18px; fill: rgb(0, 0, 0); fill-opacity: 1; white-space: pre;" transform="translate(201,0)">2018</text></g><g class="xtick"><text text-anchor="middle" x="0" y="439" style="font-family: 'Open Sans'; font-size: 18px; fill: rgb(0, 0, 0); fill-opacity: 1; white-space: pre;" transform="translate(304.87,0)">2020</text></g><g class="xtick"><text text-anchor="middle" x="0" y="439" style="font-family: 'Open Sans'; font-size: 18px; fill: rgb(0, 0, 0); fill-opacity: 1; white-space: pre;" transform="translate(408.89,0)">2022</text></g><g class="xtick"><text text-anchor="middle" x="0" y="439" style="font-family: 'Open Sans'; font-size: 18px; fill: rgb(0, 0, 0); fill-opacity: 1; white-space: pre;" transform="translate(512.76,0)">2024</text></g><g class="xtick"><text text-anchor="middle" x="0" y="439" style="font-family: 'Open Sans'; font-size: 18px; fill: rgb(0, 0, 0); fill-opacity: 1; white-space: pre;" transform="translate(616.77,0)">2026</text></g></g><g class="yaxislayer-above"><g class="ytick"><text text-anchor="end" x="79" y="6.3" transform="translate(0,420)" style="font-family: 'Open Sans'; font-size: 18px; fill: rgb(0, 0, 0); fill-opacity: 1; white-space: pre;">0</text></g><g class="ytick"><text text-anchor="end" x="79" y="6.3" style="font-family: 'Open Sans'; font-size: 18px; fill: rgb(0, 0, 0); fill-opacity: 1; white-space: pre;" transform="translate(0,382.99)">200</text></g><g class="ytick"><text text-anchor="end" x="79" y="6.3" style="font-family: 'Open Sans'; font-size: 18px; fill: rgb(0, 0, 0); fill-opacity: 1; white-space: pre;" transform="translate(0,345.99)">400</text></g><g class="ytick"><text text-anchor="end" x="79" y="6.3" style="font-family: 'Open Sans'; font-size: 18px; fill: rgb(0, 0, 0); fill-opacity: 1; white-space: pre;" transform="translate(0,308.98)">600</text></g><g class="ytick"><text text-anchor="end" x="79" y="6.3" style="font-family: 'Open Sans'; font-size: 18px; fill: rgb(0, 0, 0); fill-opacity: 1; white-space: pre;" transform="translate(0,271.98)">800</text></g><g class="ytick"><text text-anchor="end" x="79" y="6.3" style="font-family: 'Open Sans'; font-size: 18px; fill: rgb(0, 0, 0); fill-opacity: 1; white-space: pre;" transform="translate(0,234.97)">1000</text></g><g class="ytick"><text text-anchor="end" x="79" y="6.3" style="font-family: 'Open Sans'; font-size: 18px; fill: rgb(0, 0, 0); fill-opacity: 1; white-space: pre;" transform="translate(0,197.97)">1200</text></g><g class="ytick"><text text-anchor="end" x="79" y="6.3" style="font-family: 'Open Sans'; font-size: 18px; fill: rgb(0, 0, 0); fill-opacity: 1; white-space: pre;" transform="translate(0,160.96)">1400</text></g><g class="ytick"><text text-anchor="end" x="79" y="6.3" style="font-family: 'Open Sans'; font-size: 18px; fill: rgb(0, 0, 0); fill-opacity: 1; white-space: pre;" transform="translate(0,123.96000000000001)">1600</text></g></g><g class="overaxes-above"/></g></g><g class="polarlayer"/><g class="smithlayer"/><g class="ternarylayer"/><g class="geolayer"/><g class="funnelarealayer"/><g class="pielayer"/><g class="iciclelayer"/><g class="treemaplayer"/><g class="sunburstlayer"/><g class="glimages"/><defs id="topdefs-4ddcc3"><g class="clips"/></defs><g class="layer-above"><g class="imagelayer"/><g class="shapelayer"/></g><g class="infolayer"><g class="g-gtitle"><text class="gtitle" x="35" y="50" text-anchor="start" dy="0em" style="opacity: 1; font-family: 'Open Sans'; font-size: 25px; fill: rgb(0, 0, 0); fill-opacity: 1; white-space: pre;">MultiQC/MultiQC - Pull Requests Created Over Time</text></g><g class="g-xtitle"><text class="xtitle" x="350" y="472.9" text-anchor="middle" style="opacity: 1; font-family: 'Open Sans'; font-size: 22px; fill: rgb(0, 0, 0); fill-opacity: 1; white-space: pre;">Date</text></g><g class="g-ytitle"><text class="ytitle" transform="rotate(-90,20.799999999999997,260)" x="20.799999999999997" y="260" text-anchor="middle" style="opacity: 1; font-family: 'Open Sans'; font-size: 22px; fill: rgb(0, 0, 0); fill-opacity: 1; white-space: pre;">Cumulative PRs Created</text></g></g></svg>