<svg class="main-svg" xmlns="http://www.w3.org/2000/svg" xmlns:xlink="http://www.w3.org/1999/xlink" width="700" height="500" style="" viewBox="0 0 700 500"><rect x="0" y="0" width="700" height="500" style="fill: rgb(0, 0, 0); fill-opacity: 0;"/><defs id="defs-32fab0"><g class="clips"><clipPath id="clip32fab0xyplot" class="plotclip"><rect width="540" height="320"/></clipPath><clipPath class="axesclip" id="clip32fab0x"><rect x="80" y="0" width="540" height="500"/></clipPath><clipPath class="axesclip" id="clip32fab0y"><rect x="0" y="100" width="700" height="320"/></clipPath><clipPath class="axesclip" id="clip32fab0xy"><rect x="80" y="100" width="540" height="320"/></clipPath></g><g class="gradients"/><g class="patterns"/></defs><g class="bglayer"><rect class="bg" x="80" y="100" width="540" height="320" style="fill: rgb(0, 0, 0); fill-opacity: 0; stroke-width: 0;"/></g><g class="layer-below"><g class="imagelayer"/><g class="shapelayer"/></g><g class="cartesianlayer"><g class="subplot xy"><g class="layer-subplot"><g class="shapelayer"/><g class="imagelayer"/></g><g class="minor-gridlayer"><g class="x"/><g class="y"/></g><g class="gridlayer"><g class="x"><path class="xgrid crisp" transform="translate(97.2,0)" d="M0,100v320" style="stroke: rgb(255, 255, 255); stroke-opacity: 1; stroke-width: 1px;"/><path class="xgrid crisp" transform="translate(202.55,0)" d="M0,100v320" style="stroke: rgb(255, 255, 255); stroke-opacity: 1; stroke-width: 1px;"/><path class="xgrid crisp" transform="translate(307.75,0)" d="M0,100v320" style="stroke: rgb(255, 255, 255); stroke-opacity: 1; stroke-width: 1px;"/><path class="xgrid crisp" transform="translate(413.09,0)" d="M0,100v320" style="stroke: rgb(255, 255, 255); stroke-opacity: 1; stroke-width: 1px;"/><path class="xgrid crisp" transform="translate(518.29,0)" d="M0,100v320" style="stroke: rgb(255, 255, 255); stroke-opacity: 1; stroke-width: 1px;"/></g><g class="y"><path class="ygrid crisp" transform="translate(0,375.29)" d="M80,0h540" style="stroke: rgb(255, 255, 255); stroke-opacity: 1; stroke-width: 1px;"/><path class="ygrid crisp" transform="translate(0,330.59000000000003)" d="M80,0h540" style="stroke: rgb(255, 255, 255); stroke-opacity: 1; stroke-width: 1px;"/><path class="ygrid crisp" transform="translate(0,285.88)" d="M80,0h540" style="stroke: rgb(255, 255, 255); stroke-opacity: 1; stroke-width: 1px;"/><path class="ygrid crisp" transform="translate(0,241.18)" d="M80,0h540" style="stroke: rgb(255, 255, 255); stroke-opacity: 1; stroke-width: 1px;"/><path class="ygrid crisp" transform="translate(0,196.47)" d="M80,0h540" style="stroke: rgb(255, 255, 255); stroke-opacity: 1; stroke-width: 1px;"/><path class="ygrid crisp" transform="translate(0,151.76)" d="M80,0h540" style="stroke: rgb(255, 255, 255); stroke-opacity: 1; stroke-width: 1px;"/><path class="ygrid crisp" transform="translate(0,107.06)" d="M80,0h540" style="stroke: rgb(255, 255, 255); stroke-opacity: 1; stroke-width: 1px;"/></g></g><g class="zerolinelayer"><path class="yzl zl crisp" transform="translate(0,420)" d="M80,0h540" style="stroke: rgb(255, 255, 255); stroke-opacity: 1; stroke-width: 2px;"/></g><g class="layer-between"><g class="shapelayer"/><g class="imagelayer"/></g><path class="xlines-below"/><path class="ylines-below"/><g class="overlines-below"/><g class="xaxislayer-below"/><g class="yaxislayer-below"/><g class="overaxes-below"/><g class="overplot"><g class="xy" transform="translate(80,100)" clip-path="url(#clip32fab0xyplot)"><g class="scatterlayer mlayer"><g class="trace scatter trace513779" style="stroke-miterlimit: 2;"><g class="fills"><g><path class="js-fill" d="M540,320L0,320L0,315.53L0.1,320L1.05,315.53L1.74,320L1.85,315.53L1.85,320L3.13,315.53L3.6,320L3.89,315.53L3.89,320L4.76,315.53L4.76,320L4.87,320L5.61,315.53L5.61,320L6.21,320L7.06,315.53L7.06,320L7.65,320L9.2,315.53L9.2,320L9.85,315.53L10.07,320L11.81,315.53L11.81,320L14.7,315.53L14.7,320L22.19,315.53L22.19,320L22.39,315.53L22.39,320L24.03,315.53L24.03,311.06L24.18,315.53L25.33,320L27.06,315.53L27.06,320L28.4,311.06L28.4,315.53L28.4,320L31.27,315.53L31.27,320L31.42,320L32.68,315.53L32.68,320L33.29,320L34.2,315.53L34.2,320L34.98,315.53L34.98,320L35.5,320L35.74,315.53L35.83,320L37.05,315.53L38.47,311.06L38.91,315.53L39.04,311.06L39.04,315.53L40.35,320L41.09,315.53L41.09,320L42.82,315.53L42.82,320L43.92,315.53L44.1,320L44.42,302.12L44.53,306.59L45.07,311.06L45.51,315.53L45.96,311.06L45.97,315.53L47.25,311.06L51.15,306.59L51.15,311.06L51.45,315.53L52.26,311.06L53.18,320L54.61,315.53L55.02,320L58.21,315.53L58.21,320L58.21,315.53L59.73,311.06L60.06,315.53L60.86,311.06L61.64,306.59L61.67,311.06L61.68,306.59L62.26,320L64.13,315.53L64.43,320L65.12,315.53L65.27,311.06L66.26,315.53L66.44,306.59L66.57,311.06L67.41,315.53L67.72,311.06L67.72,315.53L68.28,311.06L68.36,302.12L68.56,320L69.16,315.53L70.02,311.06L70.02,315.53L70.76,306.59L70.77,311.06L71.48,306.59L76.06,302.12L76.54,297.65L78.25,320L79.27,315.53L79.27,320L80.25,315.53L81.47,311.06L81.53,315.53L82.61,306.59L83.02,302.12L83.54,297.65L83.54,302.12L83.56,306.59L84.72,297.65L84.74,302.12L85.58,297.65L85.58,302.12L85.88,306.59L86.46,302.12L86.46,306.59L86.46,302.12L88.3,306.59L88.48,302.12L88.48,306.59L89.39,302.12L89.63,306.59L90.36,302.12L90.83,297.65L91.61,302.12L92.34,297.65L92.63,302.12L94.93,297.65L94.93,302.12L95.53,297.65L95.56,302.12L96.96,306.59L97.47,302.12L97.68,306.59L97.82,302.12L97.83,306.59L98.85,302.12L98.86,275.29L99.57,288.71L99.57,293.18L99.86,306.59L100.04,302.12L100.42,297.65L101.02,293.18L101.56,297.65L102.2,288.71L102.45,284.24L102.75,297.65L103.03,284.24L103.35,279.76L103.47,293.18L103.47,288.71L104.45,293.18L104.89,279.76L104.89,279.76L105.43,284.24L106.5,261.88L107.47,257.41L108.51,261.88L108.8,257.41L108.93,266.35L109.53,266.35L109.65,261.88L109.96,279.76L110.09,275.29L110.75,270.82L111.26,252.94L111.26,257.41L111.65,261.88L111.69,266.35L112.55,261.88L112.68,257.41L112.69,261.88L114,266.35L114.12,284.24L114.7,279.76L114.72,275.29L114.72,284.24L115.84,279.76L115.84,284.24L118.02,279.76L118.03,275.29L118.03,284.24L120.04,279.76L120.05,284.24L120.06,279.76L121.13,284.24L121.19,279.76L123.06,275.29L123.91,284.24L123.92,279.76L124.07,284.24L124.23,279.76L124.24,284.24L125.08,279.76L125.41,284.24L126.12,279.76L126.15,284.24L127.8,279.76L127.83,284.24L129.7,279.76L129.81,284.24L130.2,279.76L130.69,275.29L130.82,279.76L131.72,275.29L131.72,279.76L132.14,261.88L132.28,261.88L132.68,257.41L133.03,279.76L133.03,279.76L134.02,275.29L134.32,284.24L135.03,279.76L136.02,275.29L136.14,270.82L136.71,275.29L136.9,270.82L137.74,257.41L137.77,261.88L138.77,248.47L138.77,244L138.77,239.53L138.92,266.35L140.21,261.88L140.32,257.41L140.34,261.88L141.79,257.41L142.57,275.29L143.8,270.82L144.21,275.29L145.83,270.82L146.93,266.35L146.93,270.82L148.27,257.41L148.28,261.88L148.54,266.35L148.56,270.82L148.97,261.88L148.97,266.35L149.3,261.88L149.3,266.35L150.31,270.82L150.48,279.76L151.2,275.29L151.29,270.82L152.92,266.35L153.46,252.94L153.47,257.41L153.47,261.88L153.52,275.29L155.35,270.82L155.45,275.29L155.49,270.82L157.1,266.35L157.11,270.82L158.49,266.35L158.49,270.82L158.92,266.35L159.38,261.88L160.08,257.41L160.11,261.88L163,266.35L166.08,257.41L166.82,252.94L167.61,257.41L168.32,252.94L168.33,257.41L171.04,252.94L171.51,257.41L172.12,252.94L173.36,248.47L173.61,252.94L173.61,248.47L173.65,284.24L173.65,279.76L176.07,275.29L176.08,279.76L178.45,284.24L179.56,279.76L179.56,284.24L180.2,279.76L180.23,284.24L182.47,279.76L182.63,275.29L184.03,279.76L184.05,284.24L184.64,248.47L184.72,252.94L184.73,248.47L184.76,266.35L186.29,261.88L186.63,248.47L188.31,244L188.82,239.53L188.83,244L191.06,239.53L191.55,244L192.89,239.53L193.2,244L193.5,239.53L195.71,235.06L198.74,230.59L198.84,235.06L199.76,230.59L200.46,235.06L200.5,226.12L200.73,230.59L201.62,235.06L201.88,252.94L202.72,257.41L202.8,261.88L202.89,252.94L206.37,248.47L206.94,252.94L207.64,248.47L207.78,244L209.96,239.53L212.96,235.06L214.56,230.59L214.58,226.12L215.91,221.65L216.71,226.12L216.73,221.65L217.03,252.94L217.04,248.47L218.03,252.94L218.46,257.41L218.47,252.94L219.63,257.41L220.1,266.35L220.48,261.88L220.5,266.35L221.03,252.94L221.07,261.88L221.65,266.35L221.68,270.82L222.59,266.35L223.79,261.88L223.8,266.35L225.81,257.41L226.1,252.94L228.49,248.47L229.63,252.94L231.23,248.47L231.72,244L234.05,235.06L234.06,239.53L234.93,226.12L236.78,221.65L237.07,208.24L237.6,203.76L238.69,194.82L238.74,199.29L241.01,168L241.09,172.47L241.09,176.94L241.25,163.53L241.67,172.47L241.85,168L241.96,163.53L243.27,159.06L243.42,154.59L243.69,168L243.69,172.47L243.87,199.29L244.15,190.35L244.65,185.88L245.71,261.88L245.95,257.41L246.13,252.94L246.15,248.47L246.75,261.88L246.85,257.41L247.04,252.94L247.87,261.88L247.98,266.35L247.99,257.41L248.43,270.82L248.74,275.29L249.15,261.88L249.19,257.41L249.74,270.82L249.99,266.35L250.14,270.82L250.3,266.35L251,261.88L251.04,257.41L251.86,261.88L252.36,252.94L253.01,248.47L253.88,239.53L253.88,244L254.76,235.06L254.76,239.53L256.24,226.12L257.2,230.59L260.89,226.12L260.98,221.65L261.24,217.18L261.55,221.65L263.17,217.18L264.12,208.24L264.48,203.76L264.87,199.29L266.48,194.82L266.92,181.41L267.13,194.82L267.13,199.29L268.37,176.94L270.46,172.47L270.53,163.53L271.57,159.06L273.23,150.12L273.27,154.59L273.29,185.88L273.92,168L274.21,163.53L274.21,168L274.35,163.53L276.52,159.06L278.23,154.59L278.42,150.12L280.2,145.65L280.2,150.12L280.2,145.65L280.21,150.12L281.18,145.65L281.37,141.18L282.05,145.65L283.02,163.53L283.23,168L284.79,163.53L285.32,168L286.72,159.06L287.43,154.59L287.43,159.06L288.23,154.59L288.34,145.65L289.51,150.12L290.08,203.76L292.67,199.29L293.16,203.76L293.56,199.29L293.58,203.76L296.43,199.29L297.14,208.24L297.18,203.76L297.29,199.29L297.29,203.76L297.55,203.76L298.24,208.24L298.42,199.29L298.43,203.76L300.81,199.29L300.82,194.82L301.62,190.35L303.67,185.88L304.2,181.41L304.36,168L304.4,190.35L304.76,181.41L305.22,185.88L305.7,194.82L305.93,190.35L306.19,185.88L307,244L307.23,239.53L308.22,226.12L308.85,221.65L309.87,199.29L310.84,194.82L311.75,190.35L311.86,185.88L312.71,172.47L312.75,176.94L313.73,127.76L315.96,123.29L317.89,118.82L317.89,114.35L321.32,118.82L321.4,114.35L322.67,109.88L323.1,105.41L325.13,87.53L325.14,83.06L325.27,74.12L325.67,168L325.99,163.53L326.44,159.06L326.45,172.47L326.71,168L326.86,163.53L327.9,141.18L328.02,145.65L330.4,141.18L330.9,136.71L331.2,141.18L332.16,136.71L332.56,141.18L333.73,136.71L335.2,141.18L335.23,154.59L335.89,150.12L336.61,154.59L337.05,181.41L337.48,185.88L337.62,181.41L337.93,194.82L338.13,190.35L338.52,194.82L339.09,190.35L339.92,176.94L340.82,172.47L341.05,163.53L341.7,159.06L342.57,168L342.98,163.53L342.98,168L343.7,163.53L343.98,168L343.98,176.94L344.55,172.47L345.9,168L346.11,159.06L346.56,172.47L346.57,172.47L346.57,176.94L347.23,168L347.45,163.53L348.25,154.59L348.26,159.06L351.38,154.59L351.77,159.06L353.16,154.59L353.62,150.12L353.62,154.59L354.39,159.06L354.67,154.59L354.75,163.53L355.51,159.06L356.64,145.65L356.64,150.12L357.09,141.18L357.66,136.71L358.1,145.65L358.12,136.71L358.65,141.18L358.65,136.71L359.25,141.18L359.98,136.71L360.13,141.18L360.81,136.71L361.38,132.24L361.59,136.71L361.99,123.29L362.05,132.24L362.84,127.76L362.89,123.29L363.72,118.82L364.84,114.35L364.94,109.88L365.65,92L366.02,87.53L366.14,92L367.88,87.53L368.17,83.06L369.25,78.59L369.4,118.82L369.52,118.82L371.01,114.35L371.95,109.88L371.96,114.35L373.82,109.88L373.82,114.35L374.25,109.88L376.71,105.41L376.71,109.88L377.39,109.88L378,105.41L378.76,87.53L378.83,92L380.02,87.53L380.13,78.59L380.57,105.41L380.94,100.94L381.17,105.41L382.15,100.94L382.99,83.06L383.2,78.59L383.8,100.94L383.9,87.53L384.1,83.06L384.82,109.88L385.06,105.41L385.9,150.12L385.98,145.65L386.7,172.47L387.08,168L387.89,172.47L390.36,168L390.98,154.59L391.01,159.06L391.25,163.53L394.85,159.06L394.86,163.53L395.59,154.59L396.5,159.06L397.64,154.59L398.57,150.12L398.58,154.59L400.45,150.12L400.59,141.18L401.62,145.65L402.17,136.71L402.18,132.24L402.19,114.35L405.99,118.82L407.09,100.94L409.23,96.47L409.73,87.53L409.73,92L409.73,96.47L411.85,87.53L412.31,83.06L415.11,74.12L415.31,69.65L415.89,65.18L415.89,69.65L416.06,74.12L416.67,96.47L416.8,92L417.41,87.53L417.46,92L417.78,69.65L418.19,65.18L418.38,51.76L418.58,65.18L418.58,69.65L418.59,78.59L419.23,60.71L419.36,56.24L419.65,51.76L419.76,65.18L419.78,69.65L419.83,65.18L420.26,83.06L420.49,83.06L420.54,78.59L420.62,74.12L420.63,92L421.12,83.06L421.22,87.53L421.22,92L421.25,83.06L421.53,83.06L422.22,78.59L422.29,74.12L422.72,100.94L422.72,96.47L423.13,92L423.64,60.71L423.79,105.41L423.82,105.41L423.83,109.88L424.51,96.47L424.51,92L424.59,78.59L424.79,109.88L425.13,105.41L425.25,100.94L425.38,105.41L426.02,96.47L426.02,100.94L426.16,109.88L426.52,100.94L426.53,96.47L427.28,51.76L427.29,47.29L427.29,42.82L427.42,118.82L427.75,100.94L428.16,96.47L428.59,87.53L428.69,96.47L428.83,100.94L429.49,92L429.76,96.47L430.28,109.88L430.47,100.94L430.57,105.41L430.92,96.47L431.3,118.82L431.43,114.35L431.44,123.29L431.75,100.94L431.91,118.82L432.33,114.35L433,136.71L433.6,132.24L433.95,136.71L433.96,127.76L434.34,123.29L434.59,100.94L435.33,105.41L435.47,127.76L435.78,96.47L435.94,105.41L436.12,109.88L436.34,105.41L436.51,118.82L437.69,114.35L437.82,123.29L437.99,114.35L438.66,109.88L438.82,114.35L439,105.41L439.35,100.94L439.38,114.35L439.79,105.41L440.5,100.94L441.02,96.47L441.02,100.94L441.02,105.41L441.56,96.47L441.56,92L441.57,87.53L441.6,105.41L441.74,92L442.61,87.53L442.84,74.12L442.97,92L443.05,96.47L443.77,132.24L444.03,123.29L444.04,118.82L444.4,114.35L444.4,123.29L444.4,127.76L444.4,123.29L444.41,136.71L445.01,132.24L445.24,127.76L445.49,132.24L445.74,114.35L445.87,118.82L445.89,114.35L446.34,145.65L446.63,127.76L446.65,123.29L446.71,114.35L446.73,145.65L447.35,123.29L447.35,127.76L448.07,105.41L448.34,109.88L448.88,150.12L449.05,145.65L449.48,150.12L449.92,127.76L450.21,132.24L450.46,127.76L450.47,132.24L450.92,123.29L450.92,123.29L452.05,118.82L452.66,109.88L452.66,114.35L453.47,109.88L453.52,105.41L453.55,141.18L453.96,136.71L454.51,141.18L454.63,145.65L454.77,127.76L454.77,127.76L454.79,123.29L455.22,109.88L455.5,127.76L455.51,127.76L455.54,132.24L455.88,118.82L455.96,145.65L456.04,141.18L456.08,145.65L456.23,150.12L456.85,136.71L456.85,141.18L456.85,145.65L457.11,141.18L457.44,150.12L457.45,145.65L457.52,150.12L457.81,154.59L458.13,136.71L458.15,141.18L458.55,136.71L459.66,123.29L460,127.76L460.02,123.29L460.16,141.18L460.59,141.18L460.89,136.71L460.9,141.18L461.18,132.24L461.43,141.18L461.73,136.71L462.05,154.59L462.31,145.65L462.62,150.12L463.3,141.18L463.3,145.65L463.55,141.18L463.72,127.76L463.73,145.65L463.91,136.71L464.63,141.18L465.02,136.71L465.18,154.59L465.59,150.12L465.89,145.65L465.91,154.59L466.19,150.12L466.49,145.65L467.17,141.18L467.17,145.65L467.33,150.12L467.35,145.65L467.49,168L467.89,163.53L468.03,168L468.18,154.59L468.78,168L468.8,163.53L469.22,168L469.39,163.53L469.48,159.06L469.63,145.65L469.78,172.47L470.09,168L470.62,163.53L470.76,172.47L470.8,168L470.94,163.53L471.68,181.41L471.71,176.94L471.78,172.47L471.78,181.41L472.24,172.47L473.08,168L473.21,172.47L473.88,168L474.03,159.06L474.09,181.41L474.12,181.41L474.12,185.88L474.83,168L474.84,181.41L474.84,185.88L475.54,176.94L475.57,181.41L475.66,185.88L475.85,172.47L475.98,176.94L476.55,172.47L476.55,176.94L477.29,159.06L477.29,168L477.31,163.53L477.31,159.06L477.71,176.94L478.06,168L478.12,163.53L478.74,159.06L479,163.53L479,168L479.02,159.06L479.04,163.53L480.01,159.06L480.01,163.53L480.62,154.59L480.63,159.06L480.77,154.59L481.76,141.18L481.76,145.65L481.88,150.12L482.18,141.18L483.11,145.65L483.19,150.12L483.74,141.18L483.74,145.65L483.79,141.18L484.33,163.53L484.36,163.53L484.76,159.06L484.78,168L485.5,150.12L485.63,145.65L485.79,141.18L485.8,159.06L486.1,150.12L486.11,154.59L486.77,150.12L486.77,154.59L487.14,150.12L487.14,154.59L487.37,141.18L487.39,154.59L488.07,150.12L488.22,172.47L488.8,168L488.83,163.53L488.87,159.06L489.52,185.88L490.3,181.41L490.71,185.88L490.74,181.41L491.4,176.94L491.96,185.88L492.75,181.41L493.19,172.47L493.6,176.94L493.69,181.41L494.05,172.47L494.05,176.94L494.12,181.41L494.14,185.88L494.16,176.94L494.86,181.41L494.87,176.94L494.9,181.41L495.28,168L495.34,172.47L496.04,176.94L496.17,168L496.67,176.94L497.55,172.47L498.43,168L498.43,172.47L498.43,168L498.47,176.94L499.04,176.94L499.93,172.47L500.04,163.53L500.05,176.94L500.19,168L501.04,172.47L501.64,154.59L501.97,150.12L502.5,154.59L502.68,150.12L502.68,145.65L503.33,127.76L503.33,154.59L503.43,150.12L503.68,145.65L503.97,141.18L503.97,150.12L503.97,154.59L504.58,150.12L504.82,154.59L504.94,150.12L505.26,163.53L505.92,168L506.41,159.06L506.53,168L506.53,172.47L506.53,168L506.93,181.41L507.22,181.41L507.38,176.94L508,172.47L508.09,176.94L508.11,181.41L508.31,168L508.46,172.47L509.12,168L509.98,181.41L510.02,176.94L510.26,181.41L510.71,172.47L510.97,176.94L511.31,163.53L511.4,172.47L512.19,168L512.58,176.94L512.65,163.53L513.01,159.06L513.58,150.12L513.7,172.47L513.73,172.47L514.07,168L515.68,145.65L516.09,150.12L516.09,154.59L517.07,150.12L517.32,159.06L517.78,141.18L517.78,159.06L517.83,154.59L518.64,150.12L520.07,145.65L521.26,127.76L521.37,132.24L521.37,141.18L521.54,127.76L521.58,127.76L523.84,132.24L524.23,123.29L524.55,159.06L524.67,154.59L524.67,159.06L525.41,145.65L525.42,150.12L525.69,154.59L526.42,127.76L526.42,136.71L526.47,132.24L527.14,145.65L527.18,136.71L527.28,132.24L527.28,136.71L527.73,127.76L528.18,123.29L528.31,127.76L528.47,118.82L528.47,127.76L530.42,123.29L530.42,127.76L532.24,123.29L533.66,105.41L533.83,100.94L533.88,92L533.89,105.41L534.35,100.94L534.69,96.47L536.25,87.53L536.49,83.06L536.49,87.53L536.99,74.12L538.16,69.65L538.83,51.76L538.83,47.29L538.83,51.76L539.43,24.94L539.53,24.94L539.81,20.47L539.81,24.94L539.87,16L540,20.47" style="fill: rgb(44, 160, 44); fill-opacity: 0.5; stroke-width: 0;"/></g></g><g class="errorbars"/><g class="lines"><path class="js-line" d="M0,315.53L0.1,320L1.05,315.53L1.74,320L1.85,315.53L1.85,320L3.13,315.53L3.6,320L3.89,315.53L3.89,320L4.76,315.53L4.76,320L4.87,320L5.61,315.53L5.61,320L6.21,320L7.06,315.53L7.06,320L7.65,320L9.2,315.53L9.2,320L9.85,315.53L10.07,320L11.81,315.53L11.81,320L14.7,315.53L14.7,320L22.19,315.53L22.19,320L22.39,315.53L22.39,320L24.03,315.53L24.03,311.06L24.18,315.53L25.33,320L27.06,315.53L27.06,320L28.4,311.06L28.4,315.53L28.4,320L31.27,315.53L31.27,320L31.42,320L32.68,315.53L32.68,320L33.29,320L34.2,315.53L34.2,320L34.98,315.53L34.98,320L35.5,320L35.74,315.53L35.83,320L37.05,315.53L38.47,311.06L38.91,315.53L39.04,311.06L39.04,315.53L40.35,320L41.09,315.53L41.09,320L42.82,315.53L42.82,320L43.92,315.53L44.1,320L44.42,302.12L44.53,306.59L45.07,311.06L45.51,315.53L45.96,311.06L45.97,315.53L47.25,311.06L51.15,306.59L51.15,311.06L51.45,315.53L52.26,311.06L53.18,320L54.61,315.53L55.02,320L58.21,315.53L58.21,320L58.21,315.53L59.73,311.06L60.06,315.53L60.86,311.06L61.64,306.59L61.67,311.06L61.68,306.59L62.26,320L64.13,315.53L64.43,320L65.12,315.53L65.27,311.06L66.26,315.53L66.44,306.59L66.57,311.06L67.41,315.53L67.72,311.06L67.72,315.53L68.28,311.06L68.36,302.12L68.56,320L69.16,315.53L70.02,311.06L70.02,315.53L70.76,306.59L70.77,311.06L71.48,306.59L76.06,302.12L76.54,297.65L78.25,320L79.27,315.53L79.27,320L80.25,315.53L81.47,311.06L81.53,315.53L82.61,306.59L83.02,302.12L83.54,297.65L83.54,302.12L83.56,306.59L84.72,297.65L84.74,302.12L85.58,297.65L85.58,302.12L85.88,306.59L86.46,302.12L86.46,306.59L86.46,302.12L88.3,306.59L88.48,302.12L88.48,306.59L89.39,302.12L89.63,306.59L90.36,302.12L90.83,297.65L91.61,302.12L92.34,297.65L92.63,302.12L94.93,297.65L94.93,302.12L95.53,297.65L95.56,302.12L96.96,306.59L97.47,302.12L97.68,306.59L97.82,302.12L97.83,306.59L98.85,302.12L98.86,275.29L99.57,288.71L99.57,293.18L99.86,306.59L100.04,302.12L100.42,297.65L101.02,293.18L101.56,297.65L102.2,288.71L102.45,284.24L102.75,297.65L103.03,284.24L103.35,279.76L103.47,293.18L103.47,288.71L104.45,293.18L104.89,279.76L104.89,279.76L105.43,284.24L106.5,261.88L107.47,257.41L108.51,261.88L108.8,257.41L108.93,266.35L109.53,266.35L109.65,261.88L109.96,279.76L110.09,275.29L110.75,270.82L111.26,252.94L111.26,257.41L111.65,261.88L111.69,266.35L112.55,261.88L112.68,257.41L112.69,261.88L114,266.35L114.12,284.24L114.7,279.76L114.72,275.29L114.72,284.24L115.84,279.76L115.84,284.24L118.02,279.76L118.03,275.29L118.03,284.24L120.04,279.76L120.05,284.24L120.06,279.76L121.13,284.24L121.19,279.76L123.06,275.29L123.91,284.24L123.92,279.76L124.07,284.24L124.23,279.76L124.24,284.24L125.08,279.76L125.41,284.24L126.12,279.76L126.15,284.24L127.8,279.76L127.83,284.24L129.7,279.76L129.81,284.24L130.2,279.76L130.69,275.29L130.82,279.76L131.72,275.29L131.72,279.76L132.14,261.88L132.28,261.88L132.68,257.41L133.03,279.76L133.03,279.76L134.02,275.29L134.32,284.24L135.03,279.76L136.02,275.29L136.14,270.82L136.71,275.29L136.9,270.82L137.74,257.41L137.77,261.88L138.77,248.47L138.77,244L138.77,239.53L138.92,266.35L140.21,261.88L140.32,257.41L140.34,261.88L141.79,257.41L142.57,275.29L143.8,270.82L144.21,275.29L145.83,270.82L146.93,266.35L146.93,270.82L148.27,257.41L148.28,261.88L148.54,266.35L148.56,270.82L148.97,261.88L148.97,266.35L149.3,261.88L149.3,266.35L150.31,270.82L150.48,279.76L151.2,275.29L151.29,270.82L152.92,266.35L153.46,252.94L153.47,257.41L153.47,261.88L153.52,275.29L155.35,270.82L155.45,275.29L155.49,270.82L157.1,266.35L157.11,270.82L158.49,266.35L158.49,270.82L158.92,266.35L159.38,261.88L160.08,257.41L160.11,261.88L163,266.35L166.08,257.41L166.82,252.94L167.61,257.41L168.32,252.94L168.33,257.41L171.04,252.94L171.51,257.41L172.12,252.94L173.36,248.47L173.61,252.94L173.61,248.47L173.65,284.24L173.65,279.76L176.07,275.29L176.08,279.76L178.45,284.24L179.56,279.76L179.56,284.24L180.2,279.76L180.23,284.24L182.47,279.76L182.63,275.29L184.03,279.76L184.05,284.24L184.64,248.47L184.72,252.94L184.73,248.47L184.76,266.35L186.29,261.88L186.63,248.47L188.31,244L188.82,239.53L188.83,244L191.06,239.53L191.55,244L192.89,239.53L193.2,244L193.5,239.53L195.71,235.06L198.74,230.59L198.84,235.06L199.76,230.59L200.46,235.06L200.5,226.12L200.73,230.59L201.62,235.06L201.88,252.94L202.72,257.41L202.8,261.88L202.89,252.94L206.37,248.47L206.94,252.94L207.64,248.47L207.78,244L209.96,239.53L212.96,235.06L214.56,230.59L214.58,226.12L215.91,221.65L216.71,226.12L216.73,221.65L217.03,252.94L217.04,248.47L218.03,252.94L218.46,257.41L218.47,252.94L219.63,257.41L220.1,266.35L220.48,261.88L220.5,266.35L221.03,252.94L221.07,261.88L221.65,266.35L221.68,270.82L222.59,266.35L223.79,261.88L223.8,266.35L225.81,257.41L226.1,252.94L228.49,248.47L229.63,252.94L231.23,248.47L231.72,244L234.05,235.06L234.06,239.53L234.93,226.12L236.78,221.65L237.07,208.24L237.6,203.76L238.69,194.82L238.74,199.29L241.01,168L241.09,172.47L241.09,176.94L241.25,163.53L241.67,172.47L241.85,168L241.96,163.53L243.27,159.06L243.42,154.59L243.69,168L243.69,172.47L243.87,199.29L244.15,190.35L244.65,185.88L245.71,261.88L245.95,257.41L246.13,252.94L246.15,248.47L246.75,261.88L246.85,257.41L247.04,252.94L247.87,261.88L247.98,266.35L247.99,257.41L248.43,270.82L248.74,275.29L249.15,261.88L249.19,257.41L249.74,270.82L249.99,266.35L250.14,270.82L250.3,266.35L251,261.88L251.04,257.41L251.86,261.88L252.36,252.94L253.01,248.47L253.88,239.53L253.88,244L254.76,235.06L254.76,239.53L256.24,226.12L257.2,230.59L260.89,226.12L260.98,221.65L261.24,217.18L261.55,221.65L263.17,217.18L264.12,208.24L264.48,203.76L264.87,199.29L266.48,194.82L266.92,181.41L267.13,194.82L267.13,199.29L268.37,176.94L270.46,172.47L270.53,163.53L271.57,159.06L273.23,150.12L273.27,154.59L273.29,185.88L273.92,168L274.21,163.53L274.21,168L274.35,163.53L276.52,159.06L278.23,154.59L278.42,150.12L280.2,145.65L280.2,150.12L280.2,145.65L280.21,150.12L281.18,145.65L281.37,141.18L282.05,145.65L283.02,163.53L283.23,168L284.79,163.53L285.32,168L286.72,159.06L287.43,154.59L287.43,159.06L288.23,154.59L288.34,145.65L289.51,150.12L290.08,203.76L292.67,199.29L293.16,203.76L293.56,199.29L293.58,203.76L296.43,199.29L297.14,208.24L297.18,203.76L297.29,199.29L297.29,203.76L297.55,203.76L298.24,208.24L298.42,199.29L298.43,203.76L300.81,199.29L300.82,194.82L301.62,190.35L303.67,185.88L304.2,181.41L304.36,168L304.4,190.35L304.76,181.41L305.22,185.88L305.7,194.82L305.93,190.35L306.19,185.88L307,244L307.23,239.53L308.22,226.12L308.85,221.65L309.87,199.29L310.84,194.82L311.75,190.35L311.86,185.88L312.71,172.47L312.75,176.94L313.73,127.76L315.96,123.29L317.89,118.82L317.89,114.35L321.32,118.82L321.4,114.35L322.67,109.88L323.1,105.41L325.13,87.53L325.14,83.06L325.27,74.12L325.67,168L325.99,163.53L326.44,159.06L326.45,172.47L326.71,168L326.86,163.53L327.9,141.18L328.02,145.65L330.4,141.18L330.9,136.71L331.2,141.18L332.16,136.71L332.56,141.18L333.73,136.71L335.2,141.18L335.23,154.59L335.89,150.12L336.61,154.59L337.05,181.41L337.48,185.88L337.62,181.41L337.93,194.82L338.13,190.35L338.52,194.82L339.09,190.35L339.92,176.94L340.82,172.47L341.05,163.53L341.7,159.06L342.57,168L342.98,163.53L342.98,168L343.7,163.53L343.98,168L343.98,176.94L344.55,172.47L345.9,168L346.11,159.06L346.56,172.47L346.57,172.47L346.57,176.94L347.23,168L347.45,163.53L348.25,154.59L348.26,159.06L351.38,154.59L351.77,159.06L353.16,154.59L353.62,150.12L353.62,154.59L354.39,159.06L354.67,154.59L354.75,163.53L355.51,159.06L356.64,145.65L356.64,150.12L357.09,141.18L357.66,136.71L358.1,145.65L358.12,136.71L358.65,141.18L358.65,136.71L359.25,141.18L359.98,136.71L360.13,141.18L360.81,136.71L361.38,132.24L361.59,136.71L361.99,123.29L362.05,132.24L362.84,127.76L362.89,123.29L363.72,118.82L364.84,114.35L364.94,109.88L365.65,92L366.02,87.53L366.14,92L367.88,87.53L368.17,83.06L369.25,78.59L369.4,118.82L369.52,118.82L371.01,114.35L371.95,109.88L371.96,114.35L373.82,109.88L373.82,114.35L374.25,109.88L376.71,105.41L376.71,109.88L377.39,109.88L378,105.41L378.76,87.53L378.83,92L380.02,87.53L380.13,78.59L380.57,105.41L380.94,100.94L381.17,105.41L382.15,100.94L382.99,83.06L383.2,78.59L383.8,100.94L383.9,87.53L384.1,83.06L384.82,109.88L385.06,105.41L385.9,150.12L385.98,145.65L386.7,172.47L387.08,168L387.89,172.47L390.36,168L390.98,154.59L391.01,159.06L391.25,163.53L394.85,159.06L394.86,163.53L395.59,154.59L396.5,159.06L397.64,154.59L398.57,150.12L398.58,154.59L400.45,150.12L400.59,141.18L401.62,145.65L402.17,136.71L402.18,132.24L402.19,114.35L405.99,118.82L407.09,100.94L409.23,96.47L409.73,87.53L409.73,92L409.73,96.47L411.85,87.53L412.31,83.06L415.11,74.12L415.31,69.65L415.89,65.18L415.89,69.65L416.06,74.12L416.67,96.47L416.8,92L417.41,87.53L417.46,92L417.78,69.65L418.19,65.18L418.38,51.76L418.58,65.18L418.58,69.65L418.59,78.59L419.23,60.71L419.36,56.24L419.65,51.76L419.76,65.18L419.78,69.65L419.83,65.18L420.26,83.06L420.49,83.06L420.54,78.59L420.62,74.12L420.63,92L421.12,83.06L421.22,87.53L421.22,92L421.25,83.06L421.53,83.06L422.22,78.59L422.29,74.12L422.72,100.94L422.72,96.47L423.13,92L423.64,60.71L423.79,105.41L423.82,105.41L423.83,109.88L424.51,96.47L424.51,92L424.59,78.59L424.79,109.88L425.13,105.41L425.25,100.94L425.38,105.41L426.02,96.47L426.02,100.94L426.16,109.88L426.52,100.94L426.53,96.47L427.28,51.76L427.29,47.29L427.29,42.82L427.42,118.82L427.75,100.94L428.16,96.47L428.59,87.53L428.69,96.47L428.83,100.94L429.49,92L429.76,96.47L430.28,109.88L430.47,100.94L430.57,105.41L430.92,96.47L431.3,118.82L431.43,114.35L431.44,123.29L431.75,100.94L431.91,118.82L432.33,114.35L433,136.71L433.6,132.24L433.95,136.71L433.96,127.76L434.34,123.29L434.59,100.94L435.33,105.41L435.47,127.76L435.78,96.47L435.94,105.41L436.12,109.88L436.34,105.41L436.51,118.82L437.69,114.35L437.82,123.29L437.99,114.35L438.66,109.88L438.82,114.35L439,105.41L439.35,100.94L439.38,114.35L439.79,105.41L440.5,100.94L441.02,96.47L441.02,100.94L441.02,105.41L441.56,96.47L441.56,92L441.57,87.53L441.6,105.41L441.74,92L442.61,87.53L442.84,74.12L442.97,92L443.05,96.47L443.77,132.24L444.03,123.29L444.04,118.82L444.4,114.35L444.4,123.29L444.4,127.76L444.4,123.29L444.41,136.71L445.01,132.24L445.24,127.76L445.49,132.24L445.74,114.35L445.87,118.82L445.89,114.35L446.34,145.65L446.63,127.76L446.65,123.29L446.71,114.35L446.73,145.65L447.35,123.29L447.35,127.76L448.07,105.41L448.34,109.88L448.88,150.12L449.05,145.65L449.48,150.12L449.92,127.76L450.21,132.24L450.46,127.76L450.47,132.24L450.92,123.29L450.92,123.29L452.05,118.82L452.66,109.88L452.66,114.35L453.47,109.88L453.52,105.41L453.55,141.18L453.96,136.71L454.51,141.18L454.63,145.65L454.77,127.76L454.77,127.76L454.79,123.29L455.22,109.88L455.5,127.76L455.51,127.76L455.54,132.24L455.88,118.82L455.96,145.65L456.04,141.18L456.08,145.65L456.23,150.12L456.85,136.71L456.85,141.18L456.85,145.65L457.11,141.18L457.44,150.12L457.45,145.65L457.52,150.12L457.81,154.59L458.13,136.71L458.15,141.18L458.55,136.71L459.66,123.29L460,127.76L460.02,123.29L460.16,141.18L460.59,141.18L460.89,136.71L460.9,141.18L461.18,132.24L461.43,141.18L461.73,136.71L462.05,154.59L462.31,145.65L462.62,150.12L463.3,141.18L463.3,145.65L463.55,141.18L463.72,127.76L463.73,145.65L463.91,136.71L464.63,141.18L465.02,136.71L465.18,154.59L465.59,150.12L465.89,145.65L465.91,154.59L466.19,150.12L466.49,145.65L467.17,141.18L467.17,145.65L467.33,150.12L467.35,145.65L467.49,168L467.89,163.53L468.03,168L468.18,154.59L468.78,168L468.8,163.53L469.22,168L469.39,163.53L469.48,159.06L469.63,145.65L469.78,172.47L470.09,168L470.62,163.53L470.76,172.47L470.8,168L470.94,163.53L471.68,181.41L471.71,176.94L471.78,172.47L471.78,181.41L472.24,172.47L473.08,168L473.21,172.47L473.88,168L474.03,159.06L474.09,181.41L474.12,181.41L474.12,185.88L474.83,168L474.84,181.41L474.84,185.88L475.54,176.94L475.57,181.41L475.66,185.88L475.85,172.47L475.98,176.94L476.55,172.47L476.55,176.94L477.29,159.06L477.29,168L477.31,163.53L477.31,159.06L477.71,176.94L478.06,168L478.12,163.53L478.74,159.06L479,163.53L479,168L479.02,159.06L479.04,163.53L480.01,159.06L480.01,163.53L480.62,154.59L480.63,159.06L480.77,154.59L481.76,141.18L481.76,145.65L481.88,150.12L482.18,141.18L483.11,145.65L483.19,150.12L483.74,141.18L483.74,145.65L483.79,141.18L484.33,163.53L484.36,163.53L484.76,159.06L484.78,168L485.5,150.12L485.63,145.65L485.79,141.18L485.8,159.06L486.1,150.12L486.11,154.59L486.77,150.12L486.77,154.59L487.14,150.12L487.14,154.59L487.37,141.18L487.39,154.59L488.07,150.12L488.22,172.47L488.8,168L488.83,163.53L488.87,159.06L489.52,185.88L490.3,181.41L490.71,185.88L490.74,181.41L491.4,176.94L491.96,185.88L492.75,181.41L493.19,172.47L493.6,176.94L493.69,181.41L494.05,172.47L494.05,176.94L494.12,181.41L494.14,185.88L494.16,176.94L494.86,181.41L494.87,176.94L494.9,181.41L495.28,168L495.34,172.47L496.04,176.94L496.17,168L496.67,176.94L497.55,172.47L498.43,168L498.43,172.47L498.43,168L498.47,176.94L499.04,176.94L499.93,172.47L500.04,163.53L500.05,176.94L500.19,168L501.04,172.47L501.64,154.59L501.97,150.12L502.5,154.59L502.68,150.12L502.68,145.65L503.33,127.76L503.33,154.59L503.43,150.12L503.68,145.65L503.97,141.18L503.97,150.12L503.97,154.59L504.58,150.12L504.82,154.59L504.94,150.12L505.26,163.53L505.92,168L506.41,159.06L506.53,168L506.53,172.47L506.53,168L506.93,181.41L507.22,181.41L507.38,176.94L508,172.47L508.09,176.94L508.11,181.41L508.31,168L508.46,172.47L509.12,168L509.98,181.41L510.02,176.94L510.26,181.41L510.71,172.47L510.97,176.94L511.31,163.53L511.4,172.47L512.19,168L512.58,176.94L512.65,163.53L513.01,159.06L513.58,150.12L513.7,172.47L513.73,172.47L514.07,168L515.68,145.65L516.09,150.12L516.09,154.59L517.07,150.12L517.32,159.06L517.78,141.18L517.78,159.06L517.83,154.59L518.64,150.12L520.07,145.65L521.26,127.76L521.37,132.24L521.37,141.18L521.54,127.76L521.58,127.76L523.84,132.24L524.23,123.29L524.55,159.06L524.67,154.59L524.67,159.06L525.41,145.65L525.42,150.12L525.69,154.59L526.42,127.76L526.42,136.71L526.47,132.24L527.14,145.65L527.18,136.71L527.28,132.24L527.28,136.71L527.73,127.76L528.18,123.29L528.31,127.76L528.47,118.82L528.47,127.76L530.42,123.29L530.42,127.76L532.24,123.29L533.66,105.41L533.83,100.94L533.88,92L533.89,105.41L534.35,100.94L534.69,96.47L536.25,87.53L536.49,83.06L536.49,87.53L536.99,74.12L538.16,69.65L538.83,51.76L538.83,47.29L538.83,51.76L539.43,24.94L539.53,24.94L539.81,20.47L539.81,24.94L539.87,16L540,20.47" style="vector-effect: none; fill: none; stroke: rgb(44, 160, 44); stroke-opacity: 1; stroke-width: 2px; opacity: 1;"/></g><g class="points"/><g class="text"/></g></g></g></g><g class="zerolinelayer-above"/><path class="xlines-above crisp" d="M0,0" style="fill: none;"/><path class="ylines-above crisp" d="M0,0" style="fill: none;"/><g class="overlines-above"/><g class="xaxislayer-above"><g class="xtick"><text text-anchor="middle" x="0" y="439" transform="translate(97.2,0)" style="font-family: 'Open Sans'; font-size: 18px; fill: rgb(255, 255, 255); fill-opacity: 1; white-space: pre;">2016</text></g><g class="xtick"><text text-anchor="middle" x="0" y="439" style="font-family: 'Open Sans'; font-size: 18px; fill: rgb(255, 255, 255); fill-opacity: 1; white-space: pre;" transform="translate(202.55,0)">2018</text></g><g class="xtick"><text text-anchor="middle" x="0" y="439" style="font-family: 'Open Sans'; font-size: 18px; fill: rgb(255, 255, 255); fill-opacity: 1; white-space: pre;" transform="translate(307.75,0)">2020</text></g><g class="xtick"><text text-anchor="middle" x="0" y="439" style="font-family: 'Open Sans'; font-size: 18px; fill: rgb(255, 255, 255); fill-opacity: 1; white-space: pre;" transform="translate(413.09,0)">2022</text></g><g class="xtick"><text text-anchor="middle" x="0" y="439" style="font-family: 'Open Sans'; font-size: 18px; fill: rgb(255, 255, 255); fill-opacity: 1; white-space: pre;" transform="translate(518.29,0)">2024</text></g></g><g class="yaxislayer-above"><g class="ytick"><text text-anchor="end" x="79" y="6.3" transform="translate(0,420)" style="font-family: 'Open Sans'; font-size: 18px; fill: rgb(255, 255, 255); fill-opacity: 1; white-space: pre;">0</text></g><g class="ytick"><text text-anchor="end" x="79" y="6.3" style="font-family: 'Open Sans'; font-size: 18px; fill: rgb(255, 255, 255); fill-opacity: 1; white-space: pre;" transform="translate(0,375.29)">10</text></g><g class="ytick"><text text-anchor="end" x="79" y="6.3" style="font-family: 'Open Sans'; font-size: 18px; fill: rgb(255, 255, 255); fill-opacity: 1; white-space: pre;" transform="translate(0,330.59000000000003)">20</text></g><g class="ytick"><text text-anchor="end" x="79" y="6.3" style="font-family: 'Open Sans'; font-size: 18px; fill: rgb(255, 255, 255); fill-opacity: 1; white-space: pre;" transform="translate(0,285.88)">30</text></g><g class="ytick"><text text-anchor="end" x="79" y="6.3" style="font-family: 'Open Sans'; font-size: 18px; fill: rgb(255, 255, 255); fill-opacity: 1; white-space: pre;" transform="translate(0,241.18)">40</text></g><g class="ytick"><text text-anchor="end" x="79" y="6.3" style="font-family: 'Open Sans'; font-size: 18px; fill: rgb(255, 255, 255); fill-opacity: 1; white-space: pre;" transform="translate(0,196.47)">50</text></g><g class="ytick"><text text-anchor="end" x="79" y="6.3" style="font-family: 'Open Sans'; font-size: 18px; fill: rgb(255, 255, 255); fill-opacity: 1; white-space: pre;" transform="translate(0,151.76)">60</text></g><g class="ytick"><text text-anchor="end" x="79" y="6.3" style="font-family: 'Open Sans'; font-size: 18px; fill: rgb(255, 255, 255); fill-opacity: 1; white-space: pre;" transform="translate(0,107.06)">70</text></g></g><g class="overaxes-above"/></g></g><g class="polarlayer"/><g class="smithlayer"/><g class="ternarylayer"/><g class="geolayer"/><g class="funnelarealayer"/><g class="pielayer"/><g class="iciclelayer"/><g class="treemaplayer"/><g class="sunburstlayer"/><g class="glimages"/><defs id="topdefs-32fab0"><g class="clips"/></defs><g class="layer-above"><g class="imagelayer"/><g class="shapelayer"/></g><g class="infolayer"><g class="g-gtitle"><text class="gtitle" x="35" y="50" text-anchor="start" dy="0em" style="opacity: 1; font-family: 'Open Sans'; font-size: 25px; fill: rgb(255, 255, 255); fill-opacity: 1; white-space: pre;">MultiQC/MultiQC - Open Pull Requests Over Time</text></g><g class="g-xtitle"><text class="xtitle" x="350" y="472.9" text-anchor="middle" style="opacity: 1; font-family: 'Open Sans'; font-size: 22px; fill: rgb(255, 255, 255); fill-opacity: 1; white-space: pre;">Date</text></g><g class="g-ytitle"><text class="ytitle" transform="rotate(-90,38.8,260)" x="38.8" y="260" text-anchor="middle" style="opacity: 1; font-family: 'Open Sans'; font-size: 22px; fill: rgb(255, 255, 255); fill-opacity: 1; white-space: pre;">Number of Open PRs</text></g></g></svg>