<svg class="main-svg" xmlns="http://www.w3.org/2000/svg" xmlns:xlink="http://www.w3.org/1999/xlink" width="700" height="500" style="" viewBox="0 0 700 500"><rect x="0" y="0" width="700" height="500" style="fill: rgb(0, 0, 0); fill-opacity: 0;"/><defs id="defs-d19b08"><g class="clips"><clipPath id="clipd19b08xyplot" class="plotclip"><rect width="540" height="320"/></clipPath><clipPath class="axesclip" id="clipd19b08x"><rect x="80" y="0" width="540" height="500"/></clipPath><clipPath class="axesclip" id="clipd19b08y"><rect x="0" y="100" width="700" height="320"/></clipPath><clipPath class="axesclip" id="clipd19b08xy"><rect x="80" y="100" width="540" height="320"/></clipPath></g><g class="gradients"/><g class="patterns"/></defs><g class="bglayer"><rect class="bg" x="80" y="100" width="540" height="320" style="fill: rgb(0, 0, 0); fill-opacity: 0; stroke-width: 0;"/></g><g class="layer-below"><g class="imagelayer"/><g class="shapelayer"/></g><g class="cartesianlayer"><g class="subplot xy"><g class="layer-subplot"><g class="shapelayer"/><g class="imagelayer"/></g><g class="minor-gridlayer"><g class="x"/><g class="y"/></g><g class="gridlayer"><g class="x"><path class="xgrid crisp" transform="translate(96.45,0)" d="M0,100v320" style="stroke: rgb(255, 255, 255); stroke-opacity: 1; stroke-width: 1px;"/><path class="xgrid crisp" transform="translate(197.16,0)" d="M0,100v320" style="stroke: rgb(255, 255, 255); stroke-opacity: 1; stroke-width: 1px;"/><path class="xgrid crisp" transform="translate(297.74,0)" d="M0,100v320" style="stroke: rgb(255, 255, 255); stroke-opacity: 1; stroke-width: 1px;"/><path class="xgrid crisp" transform="translate(398.45,0)" d="M0,100v320" style="stroke: rgb(255, 255, 255); stroke-opacity: 1; stroke-width: 1px;"/><path class="xgrid crisp" transform="translate(499.02,0)" d="M0,100v320" style="stroke: rgb(255, 255, 255); stroke-opacity: 1; stroke-width: 1px;"/><path class="xgrid crisp" transform="translate(599.74,0)" d="M0,100v320" style="stroke: rgb(255, 255, 255); stroke-opacity: 1; stroke-width: 1px;"/></g><g class="y"><path class="ygrid crisp" transform="translate(0,331.73)" d="M80,0h540" style="stroke: rgb(255, 255, 255); stroke-opacity: 1; stroke-width: 1px;"/><path class="ygrid crisp" transform="translate(0,243.46)" d="M80,0h540" style="stroke: rgb(255, 255, 255); stroke-opacity: 1; stroke-width: 1px;"/><path class="ygrid crisp" transform="translate(0,155.19)" d="M80,0h540" style="stroke: rgb(255, 255, 255); stroke-opacity: 1; stroke-width: 1px;"/></g></g><g class="zerolinelayer"><path class="yzl zl crisp" transform="translate(0,420)" d="M80,0h540" style="stroke: rgb(255, 255, 255); stroke-opacity: 1; stroke-width: 2px;"/></g><g class="layer-between"><g class="shapelayer"/><g class="imagelayer"/></g><path class="xlines-below"/><path class="ylines-below"/><g class="overlines-below"/><g class="xaxislayer-below"/><g class="yaxislayer-below"/><g class="overaxes-below"/><g class="overplot"><g class="xy" transform="translate(80,100)" clip-path="url(#clipd19b08xyplot)"><g class="scatterlayer mlayer"><g class="trace scatter trace39c5b3" style="stroke-miterlimit: 2;"><g class="fills"><g><path class="js-fill" d="M540,320L0,320L0,319.82L3.43,318.59L3.71,318.41L6.75,317L7.31,316.82L14.05,315.76L21.22,315.59L21.41,315.41L22.97,315.23L22.97,315.06L25.87,314.88L42.43,310.47L42.44,310.29L42.47,309.94L43.38,309.76L43.94,309.41L45.17,309.23L57.11,308L58.18,307.82L65.28,305.7L65.33,305.52L66.12,304.64L66.94,304.46L68.34,303.76L72.72,303.58L76.73,302.7L77.89,302.52L82.66,300.93L82.66,300.76L93.19,299.17L93.52,298.99L94.52,298.11L94.52,297.93L95.19,295.64L95.58,295.46L96.01,295.11L96.58,294.93L98.21,293.7L98.35,293.52L98.93,292.64L99.87,292.46L100.98,291.22L101.09,291.05L101.82,290.34L102.75,290.16L105.88,288.4L105.88,288.22L106.37,287.69L107.6,287.52L107.73,287.34L109.66,287.16L109.67,286.99L110.75,286.81L118.46,285.4L118.47,285.22L120.57,284.52L122.18,284.34L126.05,283.28L126.32,283.1L126.93,282.4L127.18,282.22L130.98,280.81L130.99,280.63L132.67,279.57L132.67,279.4L132.8,279.22L134.04,279.04L134.15,278.87L135.55,278.69L136.08,278.34L137.48,278.16L137.77,277.81L139.42,277.63L148.65,274.63L150.19,274.45L175.97,270.57L175.97,270.39L176.61,269.33L178.11,269.16L178.43,268.45L180.04,268.27L180.52,267.74L182.66,267.57L207.11,264.39L207.2,264.21L207.5,263.51L208.87,263.33L212.81,262.27L213.95,262.1L226.38,259.62L226.41,259.45L227.16,258.92L227.44,258.74L230.19,257.33L230.2,257.15L231.32,255.92L232.57,255.74L234.5,254.5L235.14,254.33L236.4,253.44L237.09,253.27L237.09,253.09L238.04,252.92L239.01,251.33L239.14,251.15L240,250.62L240.81,250.44L244.98,248.85L249.42,248.68L249.76,248.33L251.6,248.15L255.3,246.56L255.57,246.38L256.57,245.5L258.57,245.32L258.64,244.97L259.63,244.79L264.36,243.21L266,243.03L266.19,242.85L267.88,242.68L267.89,242.5L268.82,242.32L269,242.15L270.33,241.97L275.67,240.73L276.84,240.56L277.33,240.03L279.81,239.85L291.36,237.03L291.37,236.85L293.03,235.97L293.04,235.79L293.73,234.91L293.94,234.73L294.68,234.2L295.28,234.03L296.25,232.97L297.18,232.79L298.97,231.73L299.05,231.55L299.79,230.49L299.79,230.32L299.94,229.79L302.07,229.61L310.21,228.2L310.84,228.02L311.01,227.32L311.66,227.14L313.49,225.55L315.87,225.38L316.36,225.02L317.57,224.85L325.84,223.26L325.87,223.08L326.68,222.73L327.9,222.55L332.86,220.79L332.94,220.61L340.11,219.55L340.12,219.37L343.45,217.96L344.16,217.78L348.9,216.02L348.93,215.84L349.93,215.14L351.71,214.96L354.7,213.72L355.6,213.55L361.65,212.31L361.77,212.13L366.53,209.66L366.6,209.49L367.21,208.43L368.13,208.25L370.8,206.66L373.2,206.49L373.8,205.96L377.49,205.78L381.06,204.37L382.85,204.19L382.98,203.84L384.39,203.66L384.52,202.6L388.37,202.43L389.19,201.9L391.24,201.72L395.41,200.66L396.87,200.48L400.1,197.48L400.18,197.31L403.01,192.01L403.66,191.83L406.04,185.12L406.44,184.95L408.48,181.42L408.5,181.24L409.34,178.95L409.44,178.77L411.98,176.47L411.98,176.3L412.64,175.41L412.65,175.24L413.61,173.3L414.54,173.12L415.26,171.88L415.27,171.71L415.49,171.35L416.34,171.18L417.29,167.29L417.31,167.12L419.64,166.06L419.71,165.88L422.16,163.94L422.26,163.76L422.33,163.23L423.15,163.06L424.87,159.88L424.88,159.7L425.45,157.05L425.67,156.88L427.08,150.35L427.09,150.17L427.77,147.87L427.91,147.7L431.1,142.58L432.18,142.4L433.61,140.46L433.71,140.28L436.59,135.16L436.59,134.99L437.69,132.52L437.7,132.34L438.4,130.04L438.84,129.87L439.8,128.81L439.81,128.63L442.53,123.69L442.54,123.51L443.52,120.16L444.21,119.98L445.18,117.86L445.3,117.69L445.98,116.45L446.24,116.27L446.99,114.33L447.21,114.16L447.61,112.74L448.04,112.57L449.57,109.74L449.64,109.57L451.48,104.09L452.29,103.92L453.2,103.03L453.26,102.86L453.96,100.74L454.09,100.56L455.78,95.8L456.14,95.62L457.04,92.09L457.11,91.91L457.97,91.03L457.99,90.85L459.64,89.79L460.14,89.62L460.99,88.03L462.12,87.85L463.04,86.62L463.07,86.44L463.49,85.56L463.5,85.38L464.16,84.14L464.28,83.97L467.37,79.91L467.37,79.73L467.93,78.14L468.75,77.97L472.32,76.2L472.34,76.02L474.54,71.79L475.68,71.61L476.56,70.73L476.98,70.55L478.21,69.14L479.03,68.96L481.82,66.49L482.4,66.31L485.79,63.84L485.81,63.67L487.14,61.9L487.6,61.72L488.92,59.25L489.68,59.08L490.47,57.84L491.01,57.66L492.27,56.43L492.86,56.25L493.02,56.07L494.34,55.9L495.32,52.72L495.55,52.54L498.65,50.6L500.82,50.43L501.49,48.31L501.61,48.13L502.32,47.6L502.59,47.42L503.33,46.01L503.43,45.84L505.24,43.19L507.11,43.01L510.21,41.95L510.36,41.77L511.19,40.72L512.14,40.54L515.13,38.77L515.14,38.6L515.82,37.18L516.08,37.01L516.91,34.18L517.11,34.01L518.19,32.77L518.34,32.59L518.46,32.07L520.71,31.89L521.94,30.12L522.86,29.95L527.2,28.53L527.51,28.36L527.83,27.83L528.38,27.65L528.82,26.95L529.45,26.77L531.7,25.53L532.93,25.36L533.6,24.83L534.31,24.65L537.71,22.89L537.71,22.71L538.18,18.12L538.75,17.94L539.14,16.18L540,16" style="fill: rgb(44, 160, 44); fill-opacity: 0.5; stroke-width: 0;"/></g></g><g class="errorbars"/><g class="lines"><path class="js-line" d="M0,319.82L3.43,318.59L3.71,318.41L6.75,317L7.31,316.82L14.05,315.76L21.22,315.59L21.41,315.41L22.97,315.23L22.97,315.06L25.87,314.88L42.43,310.47L42.44,310.29L42.47,309.94L43.38,309.76L43.94,309.41L45.17,309.23L57.11,308L58.18,307.82L65.28,305.7L65.33,305.52L66.12,304.64L66.94,304.46L68.34,303.76L72.72,303.58L76.73,302.7L77.89,302.52L82.66,300.93L82.66,300.76L93.19,299.17L93.52,298.99L94.52,298.11L94.52,297.93L95.19,295.64L95.58,295.46L96.01,295.11L96.58,294.93L98.21,293.7L98.35,293.52L98.93,292.64L99.87,292.46L100.98,291.22L101.09,291.05L101.82,290.34L102.75,290.16L105.88,288.4L105.88,288.22L106.37,287.69L107.6,287.52L107.73,287.34L109.66,287.16L109.67,286.99L110.75,286.81L118.46,285.4L118.47,285.22L120.57,284.52L122.18,284.34L126.05,283.28L126.32,283.1L126.93,282.4L127.18,282.22L130.98,280.81L130.99,280.63L132.67,279.57L132.67,279.4L132.8,279.22L134.04,279.04L134.15,278.87L135.55,278.69L136.08,278.34L137.48,278.16L137.77,277.81L139.42,277.63L148.65,274.63L150.19,274.45L175.97,270.57L175.97,270.39L176.61,269.33L178.11,269.16L178.43,268.45L180.04,268.27L180.52,267.74L182.66,267.57L207.11,264.39L207.2,264.21L207.5,263.51L208.87,263.33L212.81,262.27L213.95,262.1L226.38,259.62L226.41,259.45L227.16,258.92L227.44,258.74L230.19,257.33L230.2,257.15L231.32,255.92L232.57,255.74L234.5,254.5L235.14,254.33L236.4,253.44L237.09,253.27L237.09,253.09L238.04,252.92L239.01,251.33L239.14,251.15L240,250.62L240.81,250.44L244.98,248.85L249.42,248.68L249.76,248.33L251.6,248.15L255.3,246.56L255.57,246.38L256.57,245.5L258.57,245.32L258.64,244.97L259.63,244.79L264.36,243.21L266,243.03L266.19,242.85L267.88,242.68L267.89,242.5L268.82,242.32L269,242.15L270.33,241.97L275.67,240.73L276.84,240.56L277.33,240.03L279.81,239.85L291.36,237.03L291.37,236.85L293.03,235.97L293.04,235.79L293.73,234.91L293.94,234.73L294.68,234.2L295.28,234.03L296.25,232.97L297.18,232.79L298.97,231.73L299.05,231.55L299.79,230.49L299.79,230.32L299.94,229.79L302.07,229.61L310.21,228.2L310.84,228.02L311.01,227.32L311.66,227.14L313.49,225.55L315.87,225.38L316.36,225.02L317.57,224.85L325.84,223.26L325.87,223.08L326.68,222.73L327.9,222.55L332.86,220.79L332.94,220.61L340.11,219.55L340.12,219.37L343.45,217.96L344.16,217.78L348.9,216.02L348.93,215.84L349.93,215.14L351.71,214.96L354.7,213.72L355.6,213.55L361.65,212.31L361.77,212.13L366.53,209.66L366.6,209.49L367.21,208.43L368.13,208.25L370.8,206.66L373.2,206.49L373.8,205.96L377.49,205.78L381.06,204.37L382.85,204.19L382.98,203.84L384.39,203.66L384.52,202.6L388.37,202.43L389.19,201.9L391.24,201.72L395.41,200.66L396.87,200.48L400.1,197.48L400.18,197.31L403.01,192.01L403.66,191.83L406.04,185.12L406.44,184.95L408.48,181.42L408.5,181.24L409.34,178.95L409.44,178.77L411.98,176.47L411.98,176.3L412.64,175.41L412.65,175.24L413.61,173.3L414.54,173.12L415.26,171.88L415.27,171.71L415.49,171.35L416.34,171.18L417.29,167.29L417.31,167.12L419.64,166.06L419.71,165.88L422.16,163.94L422.26,163.76L422.33,163.23L423.15,163.06L424.87,159.88L424.88,159.7L425.45,157.05L425.67,156.88L427.08,150.35L427.09,150.17L427.77,147.87L427.91,147.7L431.1,142.58L432.18,142.4L433.61,140.46L433.71,140.28L436.59,135.16L436.59,134.99L437.69,132.52L437.7,132.34L438.4,130.04L438.84,129.87L439.8,128.81L439.81,128.63L442.53,123.69L442.54,123.51L443.52,120.16L444.21,119.98L445.18,117.86L445.3,117.69L445.98,116.45L446.24,116.27L446.99,114.33L447.21,114.16L447.61,112.74L448.04,112.57L449.57,109.74L449.64,109.57L451.48,104.09L452.29,103.92L453.2,103.03L453.26,102.86L453.96,100.74L454.09,100.56L455.78,95.8L456.14,95.62L457.04,92.09L457.11,91.91L457.97,91.03L457.99,90.85L459.64,89.79L460.14,89.62L460.99,88.03L462.12,87.85L463.04,86.62L463.07,86.44L463.49,85.56L463.5,85.38L464.16,84.14L464.28,83.97L467.37,79.91L467.37,79.73L467.93,78.14L468.75,77.97L472.32,76.2L472.34,76.02L474.54,71.79L475.68,71.61L476.56,70.73L476.98,70.55L478.21,69.14L479.03,68.96L481.82,66.49L482.4,66.31L485.79,63.84L485.81,63.67L487.14,61.9L487.6,61.72L488.92,59.25L489.68,59.08L490.47,57.84L491.01,57.66L492.27,56.43L492.86,56.25L493.02,56.07L494.34,55.9L495.32,52.72L495.55,52.54L498.65,50.6L500.82,50.43L501.49,48.31L501.61,48.13L502.32,47.6L502.59,47.42L503.33,46.01L503.43,45.84L505.24,43.19L507.11,43.01L510.21,41.95L510.36,41.77L511.19,40.72L512.14,40.54L515.13,38.77L515.14,38.6L515.82,37.18L516.08,37.01L516.91,34.18L517.11,34.01L518.19,32.77L518.34,32.59L518.46,32.07L520.71,31.89L521.94,30.12L522.86,29.95L527.2,28.53L527.51,28.36L527.83,27.83L528.38,27.65L528.82,26.95L529.45,26.77L531.7,25.53L532.93,25.36L533.6,24.83L534.31,24.65L537.71,22.89L537.71,22.71L538.18,18.12L538.75,17.94L539.14,16.18L540,16" style="vector-effect: none; fill: none; stroke: rgb(44, 160, 44); stroke-opacity: 1; stroke-width: 2px; opacity: 1;"/></g><g class="points"/><g class="text"/></g></g></g></g><g class="zerolinelayer-above"/><path class="xlines-above crisp" d="M0,0" style="fill: none;"/><path class="ylines-above crisp" d="M0,0" style="fill: none;"/><g class="overlines-above"/><g class="xaxislayer-above"><g class="xtick"><text text-anchor="middle" x="0" y="439" transform="translate(96.45,0)" style="font-family: 'Open Sans'; font-size: 18px; fill: rgb(0, 0, 0); fill-opacity: 1; white-space: pre;">2016</text></g><g class="xtick"><text text-anchor="middle" x="0" y="439" style="font-family: 'Open Sans'; font-size: 18px; fill: rgb(0, 0, 0); fill-opacity: 1; white-space: pre;" transform="translate(197.16,0)">2018</text></g><g class="xtick"><text text-anchor="middle" x="0" y="439" style="font-family: 'Open Sans'; font-size: 18px; fill: rgb(0, 0, 0); fill-opacity: 1; white-space: pre;" transform="translate(297.74,0)">2020</text></g><g class="xtick"><text text-anchor="middle" x="0" y="439" style="font-family: 'Open Sans'; font-size: 18px; fill: rgb(0, 0, 0); fill-opacity: 1; white-space: pre;" transform="translate(398.45,0)">2022</text></g><g class="xtick"><text text-anchor="middle" x="0" y="439" style="font-family: 'Open Sans'; font-size: 18px; fill: rgb(0, 0, 0); fill-opacity: 1; white-space: pre;" transform="translate(499.02,0)">2024</text></g><g class="xtick"><text text-anchor="middle" x="0" y="439" style="font-family: 'Open Sans'; font-size: 18px; fill: rgb(0, 0, 0); fill-opacity: 1; white-space: pre;" transform="translate(599.74,0)">2026</text></g></g><g class="yaxislayer-above"><g class="ytick"><text text-anchor="end" x="79" y="6.3" transform="translate(0,420)" style="font-family: 'Open Sans'; font-size: 18px; fill: rgb(0, 0, 0); fill-opacity: 1; white-space: pre;">0</text></g><g class="ytick"><text text-anchor="end" x="79" y="6.3" style="font-family: 'Open Sans'; font-size: 18px; fill: rgb(0, 0, 0); fill-opacity: 1; white-space: pre;" transform="translate(0,331.73)">500</text></g><g class="ytick"><text text-anchor="end" x="79" y="6.3" style="font-family: 'Open Sans'; font-size: 18px; fill: rgb(0, 0, 0); fill-opacity: 1; white-space: pre;" transform="translate(0,243.46)">1000</text></g><g class="ytick"><text text-anchor="end" x="79" y="6.3" style="font-family: 'Open Sans'; font-size: 18px; fill: rgb(0, 0, 0); fill-opacity: 1; white-space: pre;" transform="translate(0,155.19)">1500</text></g></g><g class="overaxes-above"/></g></g><g class="polarlayer"/><g class="smithlayer"/><g class="ternarylayer"/><g class="geolayer"/><g class="funnelarealayer"/><g class="pielayer"/><g class="iciclelayer"/><g class="treemaplayer"/><g class="sunburstlayer"/><g class="glimages"/><defs id="topdefs-d19b08"><g class="clips"/></defs><g class="layer-above"><g class="imagelayer"/><g class="shapelayer"/></g><g class="infolayer"><g class="g-gtitle"><text class="gtitle" x="35" y="50" text-anchor="start" dy="0em" style="opacity: 1; font-family: 'Open Sans'; font-size: 25px; fill: rgb(0, 0, 0); fill-opacity: 1; white-space: pre;">MultiQC/MultiQC - Pull Requests Created Over Time</text></g><g class="g-xtitle"><text class="xtitle" x="350" y="472.9" text-anchor="middle" style="opacity: 1; font-family: 'Open Sans'; font-size: 22px; fill: rgb(0, 0, 0); fill-opacity: 1; white-space: pre;">Date</text></g><g class="g-ytitle"><text class="ytitle" transform="rotate(-90,20.799999999999997,260)" x="20.799999999999997" y="260" text-anchor="middle" style="opacity: 1; font-family: 'Open Sans'; font-size: 22px; fill: rgb(0, 0, 0); fill-opacity: 1; white-space: pre;">Cumulative PRs Created</text></g></g></svg>