<svg class="main-svg" xmlns="http://www.w3.org/2000/svg" xmlns:xlink="http://www.w3.org/1999/xlink" width="700" height="500" style="" viewBox="0 0 700 500"><rect x="0" y="0" width="700" height="500" style="fill: rgb(0, 0, 0); fill-opacity: 0;"/><defs id="defs-28e4e4"><g class="clips"><clipPath id="clip28e4e4xyplot" class="plotclip"><rect width="540" height="320"/></clipPath><clipPath class="axesclip" id="clip28e4e4x"><rect x="80" y="0" width="540" height="500"/></clipPath><clipPath class="axesclip" id="clip28e4e4y"><rect x="0" y="100" width="700" height="320"/></clipPath><clipPath class="axesclip" id="clip28e4e4xy"><rect x="80" y="100" width="540" height="320"/></clipPath></g><g class="gradients"/><g class="patterns"/></defs><g class="bglayer"><rect class="bg" x="80" y="100" width="540" height="320" style="fill: rgb(0, 0, 0); fill-opacity: 0; stroke-width: 0;"/></g><g class="layer-below"><g class="imagelayer"/><g class="shapelayer"/></g><g class="cartesianlayer"><g class="subplot xy"><g class="layer-subplot"><g class="shapelayer"/><g class="imagelayer"/></g><g class="minor-gridlayer"><g class="x"/><g class="y"/></g><g class="gridlayer"><g class="x"><path class="xgrid crisp" transform="translate(97.14,0)" d="M0,100v320" style="stroke: rgb(255, 255, 255); stroke-opacity: 1; stroke-width: 1px;"/><path class="xgrid crisp" transform="translate(202.09,0)" d="M0,100v320" style="stroke: rgb(255, 255, 255); stroke-opacity: 1; stroke-width: 1px;"/><path class="xgrid crisp" transform="translate(306.9,0)" d="M0,100v320" style="stroke: rgb(255, 255, 255); stroke-opacity: 1; stroke-width: 1px;"/><path class="xgrid crisp" transform="translate(411.85,0)" d="M0,100v320" style="stroke: rgb(255, 255, 255); stroke-opacity: 1; stroke-width: 1px;"/><path class="xgrid crisp" transform="translate(516.6600000000001,0)" d="M0,100v320" style="stroke: rgb(255, 255, 255); stroke-opacity: 1; stroke-width: 1px;"/></g><g class="y"><path class="ygrid crisp" transform="translate(0,380.52)" d="M80,0h540" style="stroke: rgb(255, 255, 255); stroke-opacity: 1; stroke-width: 1px;"/><path class="ygrid crisp" transform="translate(0,341.03999999999996)" d="M80,0h540" style="stroke: rgb(255, 255, 255); stroke-opacity: 1; stroke-width: 1px;"/><path class="ygrid crisp" transform="translate(0,301.56)" d="M80,0h540" style="stroke: rgb(255, 255, 255); stroke-opacity: 1; stroke-width: 1px;"/><path class="ygrid crisp" transform="translate(0,262.08000000000004)" d="M80,0h540" style="stroke: rgb(255, 255, 255); stroke-opacity: 1; stroke-width: 1px;"/><path class="ygrid crisp" transform="translate(0,222.6)" d="M80,0h540" style="stroke: rgb(255, 255, 255); stroke-opacity: 1; stroke-width: 1px;"/><path class="ygrid crisp" transform="translate(0,183.12)" d="M80,0h540" style="stroke: rgb(255, 255, 255); stroke-opacity: 1; stroke-width: 1px;"/><path class="ygrid crisp" transform="translate(0,143.64)" d="M80,0h540" style="stroke: rgb(255, 255, 255); stroke-opacity: 1; stroke-width: 1px;"/><path class="ygrid crisp" transform="translate(0,104.16)" d="M80,0h540" style="stroke: rgb(255, 255, 255); stroke-opacity: 1; stroke-width: 1px;"/></g></g><g class="zerolinelayer"><path class="yzl zl crisp" transform="translate(0,420)" d="M80,0h540" style="stroke: rgb(255, 255, 255); stroke-opacity: 1; stroke-width: 2px;"/></g><g class="layer-between"><g class="shapelayer"/><g class="imagelayer"/></g><path class="xlines-below"/><path class="ylines-below"/><g class="overlines-below"/><g class="xaxislayer-below"/><g class="yaxislayer-below"/><g class="overaxes-below"/><g class="overplot"><g class="xy" transform="translate(80,100)" clip-path="url(#clip28e4e4xyplot)"><g class="scatterlayer mlayer"><g class="trace scatter trace3204dd" style="stroke-miterlimit: 2;"><g class="fills"><g><path class="js-fill" d="M540,320L0,320L0,316.05L0.1,320L1.04,316.05L1.73,320L1.84,316.05L1.84,320L3.12,316.05L3.87,320L4.75,316.05L4.75,320L4.85,320L5.59,316.05L5.59,320L6.18,320L7.03,316.05L7.03,320L7.62,320L9.17,316.05L9.17,320L9.82,316.05L10.04,320L11.77,316.05L11.77,320L14.64,316.05L14.64,320L22.11,316.05L22.11,320L22.31,316.05L22.31,320L23.94,316.05L23.94,312.1L24.09,316.05L25.24,320L26.96,316.05L26.96,320L28.3,312.1L28.3,316.05L28.3,320L31.16,316.05L31.16,320L31.3,320L32.56,316.05L32.56,320L33.16,320L34.07,316.05L34.07,320L34.85,316.05L34.85,320L35.36,320L35.61,316.05L35.7,320L36.91,316.05L38.33,312.1L38.77,316.05L38.89,312.1L38.89,316.05L40.2,320L40.93,316.05L40.93,320L42.66,316.05L42.66,320L43.76,316.05L43.76,320L44.25,304.21L44.37,308.16L44.9,312.1L45.34,316.05L45.79,312.1L45.8,316.05L47.07,312.1L50.96,308.16L50.96,312.1L51.26,316.05L52.07,312.1L52.98,320L54.41,316.05L54.81,320L57.99,316.05L57.99,320L57.99,316.05L59.51,312.1L59.84,316.05L60.63,312.1L61.41,308.16L61.44,312.1L61.45,308.16L62.03,320L63.89,316.05L64.19,320L64.88,316.05L65.03,312.1L66.01,316.05L66.19,308.16L66.32,312.1L67.16,316.05L67.47,312.1L67.47,316.05L68.03,312.1L68.11,304.21L68.22,320L68.3,320L68.9,316.05L69.76,312.1L69.76,316.05L70.5,308.16L70.5,312.1L71.21,308.16L75.78,304.21L76.26,300.26L77.96,320L78.97,316.05L78.97,320L79.95,316.05L81.17,312.1L81.22,316.05L82.15,312.1L82.3,308.16L83.23,300.26L83.23,304.21L83.25,308.16L84.41,300.26L84.42,304.21L85.26,300.26L85.26,304.21L85.56,308.16L86.13,304.21L86.14,308.16L86.14,304.21L87.97,308.16L88.15,304.21L88.15,308.16L89.06,304.21L89.3,308.16L90.02,304.21L90.49,300.26L91.27,304.21L91.99,300.26L92.29,304.21L94.58,300.26L94.58,304.21L95.18,300.26L95.2,304.21L96.6,308.16L97.11,304.21L97.31,308.16L97.46,304.21L97.46,308.16L98.48,304.21L98.5,280.52L99.2,300.26L99.48,304.21L99.49,308.16L99.64,300.26L100.05,300.26L100.64,296.31L101.36,300.26L101.54,296.31L102.07,288.42L102.24,296.31L102.33,300.26L102.96,284.47L103.09,292.36L104.06,296.31L104.5,284.47L104.5,284.47L105.04,288.42L106.1,268.68L107.07,264.73L108.1,268.68L108.39,264.73L109.12,272.62L109.12,272.62L109.25,268.68L109.55,284.47L109.68,280.52L110.34,276.57L110.84,260.78L110.85,264.73L111.24,268.68L111.27,272.62L112.13,268.68L112.26,264.73L112.28,268.68L113.58,272.62L113.7,288.42L114.28,284.47L114.29,280.52L114.3,288.42L115.41,284.47L115.41,288.42L117.58,284.47L117.59,280.52L117.59,288.42L119.59,284.47L119.61,288.42L119.61,284.47L120.68,288.42L120.74,284.47L122.6,280.52L123.45,288.42L123.45,284.47L123.61,288.42L123.77,284.47L123.78,288.42L124.61,284.47L124.94,288.42L125.65,284.47L125.68,288.42L127.33,284.47L127.35,288.42L129.22,284.47L129.32,288.42L129.72,284.47L130.21,280.52L130.33,284.47L131.23,280.52L131.23,284.47L131.65,268.68L131.79,268.68L132.18,264.73L132.53,284.47L132.53,284.47L133.53,280.52L133.64,288.42L133.82,288.42L134.53,284.47L135.52,280.52L135.63,276.57L136.21,280.52L136.39,276.57L137.23,264.73L137.26,268.68L138.25,256.83L138.25,252.88L138.26,248.94L138.41,272.62L139.68,268.68L139.8,264.73L139.81,268.68L141.26,264.73L142.04,280.52L143.26,276.57L143.67,280.52L145.29,276.57L146.39,272.62L146.39,276.57L147.72,264.73L147.73,268.68L147.98,272.62L148.01,276.57L148.41,268.68L148.42,272.62L148.74,268.68L148.75,272.62L149.75,276.57L149.92,284.47L150.63,280.52L150.73,276.57L152.35,272.62L152.89,260.78L152.89,264.73L152.9,268.68L152.95,280.52L154.77,276.57L154.87,280.52L154.91,276.57L156.51,272.62L156.53,276.57L157.9,272.62L157.9,276.57L158.33,272.62L158.79,268.68L159.48,264.73L159.51,268.68L162.39,272.62L165.46,264.73L166.2,260.78L166.98,264.73L167.7,260.78L167.71,264.73L170.41,260.78L170.87,264.73L171.48,260.78L172.71,256.83L172.96,260.78L172.96,256.83L173,288.42L173,284.47L175.41,280.52L175.43,284.47L177.79,288.42L178.89,284.47L178.9,288.42L179.53,284.47L179.56,288.42L181.79,284.47L181.95,280.52L183.35,284.47L183.36,288.42L183.95,256.83L184.04,260.78L184.04,256.83L184.07,272.62L185.6,268.68L185.94,256.83L187.61,252.88L188.12,248.94L188.13,252.88L190.35,248.94L190.84,252.88L192.18,248.94L192.48,252.88L192.78,248.94L194.99,244.99L198,241.04L198.1,244.99L199.01,241.04L199.72,244.99L199.75,237.09L199.98,241.04L200.87,244.99L201.13,260.78L201.96,264.73L202.04,268.68L202.14,260.78L205.6,256.83L206.17,260.78L206.86,256.83L207.01,252.88L209.18,248.94L212.17,244.99L213.76,241.04L213.78,237.09L215.11,233.14L215.9,237.09L215.92,233.14L216.22,260.78L216.23,256.83L217.22,260.78L217.65,264.73L217.66,260.78L218.82,264.73L219.28,272.62L219.66,268.68L219.68,272.62L220.21,260.78L220.25,268.68L220.82,272.62L220.85,276.57L221.77,272.62L222.95,268.68L222.97,272.62L224.97,264.73L225.26,260.78L227.64,256.83L228.77,260.78L230.37,256.83L230.86,252.88L233.18,244.99L233.19,248.94L234.05,237.09L235.9,233.14L236.19,221.3L236.72,217.35L237.8,209.45L237.85,213.4L240.11,185.77L240.19,189.71L240.2,193.66L240.35,181.82L240.95,185.77L241.06,181.82L242.36,177.87L242.51,173.92L242.79,185.77L242.79,189.71L242.96,213.4L243.24,205.51L243.74,201.56L244.8,268.68L245.04,264.73L245.22,260.78L245.23,256.83L245.83,268.68L245.93,264.73L246.12,260.78L246.95,268.68L247.05,272.62L247.06,264.73L247.5,276.57L247.81,280.52L248.22,268.68L248.26,264.73L248.82,276.57L249.06,272.62L249.21,276.57L249.37,272.62L250.07,268.68L250.1,264.73L250.92,268.68L251.42,260.78L252.07,256.83L252.94,248.94L252.94,252.88L253.81,244.99L253.81,248.94L255.29,237.09L256.24,241.04L259.92,237.09L260.01,233.14L260.27,229.19L260.58,233.14L262.19,229.19L263.13,221.3L263.49,217.35L263.88,213.4L265.49,209.45L265.93,197.61L266.14,209.45L266.14,213.4L267.37,193.66L269.45,189.71L269.52,181.82L270.56,177.87L272.22,169.97L272.25,173.92L272.27,201.56L272.9,185.77L273.19,181.82L273.19,185.77L273.33,181.82L275.49,177.87L277.2,173.92L277.39,169.97L279.16,166.03L279.16,169.97L279.16,166.03L279.16,169.97L280.13,166.03L280.32,162.08L281,166.03L281.97,181.82L282.17,185.77L283.73,181.82L284.26,185.77L285.65,177.87L286.36,173.92L286.36,177.87L287.16,173.92L287.27,166.03L288.43,169.97L289,217.35L291.58,213.4L292.07,217.35L292.47,213.4L292.48,217.35L295.33,213.4L296.04,221.3L296.07,217.35L296.18,213.4L296.18,217.35L296.44,217.35L297.13,221.3L297.31,213.4L297.32,217.35L299.69,213.4L299.7,209.45L300.5,205.51L302.54,201.56L303.07,197.61L303.22,185.77L303.27,205.51L303.63,197.61L304.09,201.56L304.57,209.45L304.79,205.51L305.05,201.56L305.86,252.88L306.09,248.94L307.08,237.09L307.71,233.14L308.72,213.4L309.69,209.45L310.59,205.51L310.7,201.56L311.55,189.71L311.59,193.66L312.56,150.23L314.78,146.29L316.71,142.34L316.71,138.39L320.12,142.34L320.2,138.39L321.47,134.44L321.89,130.49L323.93,114.7L323.93,110.75L324.06,102.86L324.46,185.77L324.78,181.82L325.22,177.87L325.24,189.71L325.49,185.77L325.65,181.82L326.68,162.08L326.8,166.03L329.17,162.08L329.67,158.13L329.96,162.08L330.93,158.13L331.32,162.08L332.49,158.13L333.96,162.08L333.98,173.92L334.64,169.97L335.36,173.92L335.8,197.61L336.22,201.56L336.36,197.61L336.67,209.45L336.87,205.51L337.26,209.45L337.83,205.51L338.66,193.66L339.55,189.71L339.78,181.82L340.43,177.87L341.29,185.77L341.7,181.82L341.7,185.77L342.42,181.82L342.7,185.77L342.7,193.66L343.27,189.71L344.61,185.77L344.83,177.87L345.27,189.71L345.29,189.71L345.29,193.66L345.94,185.77L346.16,181.82L346.95,173.92L346.97,177.87L350.07,173.92L350.46,177.87L351.85,173.92L352.3,169.97L352.31,173.92L353.07,177.87L353.35,173.92L353.43,181.82L354.19,177.87L355.31,166.03L355.31,169.97L355.76,162.08L356.33,158.13L356.76,166.03L356.78,158.13L357.32,162.08L357.32,158.13L357.92,162.08L358.64,158.13L358.79,162.08L359.47,158.13L360.03,154.18L360.25,158.13L360.65,146.29L360.7,154.18L361.49,150.23L361.54,146.29L362.36,142.34L363.48,138.39L363.58,134.44L364.29,118.65L364.66,114.7L364.78,118.65L366.51,114.7L366.8,110.75L367.87,106.81L368.03,142.34L368.14,142.34L369.63,138.39L370.57,134.44L370.57,138.39L372.43,134.44L372.43,138.39L372.86,134.44L375.31,130.49L375.31,134.44L375.99,134.44L376.59,130.49L377.35,114.7L377.42,118.65L378.61,114.7L378.71,106.81L379.16,130.49L379.53,126.55L379.75,130.49L380.73,126.55L381.56,110.75L381.78,106.81L382.37,126.55L382.47,114.7L382.67,110.75L383.39,134.44L383.62,130.49L384.27,166.03L384.39,162.08L384.47,166.03L384.47,169.97L385.1,169.97L385.24,173.92L385.26,189.71L385.64,185.77L386.39,189.71L386.4,185.77L386.44,189.71L388.91,185.77L389.53,173.92L389.55,177.87L389.79,181.82L393.38,177.87L393.4,181.82L394.12,173.92L395.03,177.87L396.16,173.92L397.09,169.97L397.09,173.92L398.96,169.97L399.1,162.08L400.13,166.03L400.68,158.13L400.69,154.18L400.7,138.39L404.48,142.34L405.57,126.55L407.71,122.6L408.21,114.7L408.21,118.65L408.21,122.6L410.32,114.7L410.77,110.75L413.57,102.86L413.76,98.91L414.34,94.96L414.34,98.91L414.52,102.86L415.12,122.6L415.25,118.65L415.86,114.7L415.91,118.65L416.23,98.91L416.64,94.96L416.83,83.12L417.02,98.91L417.03,102.86L417.03,106.81L417.67,91.01L417.8,87.06L418.09,83.12L418.19,94.96L418.21,98.91L418.26,94.96L418.93,110.75L418.98,106.81L419.06,102.86L419.07,118.65L419.7,114.7L419.97,110.75L420.7,106.81L420.71,102.86L421.14,126.55L421.64,118.65L421.67,114.7L422.07,91.01L422.26,134.44L422.57,130.49L423.01,106.81L423.16,122.6L423.16,126.55L423.21,134.44L423.78,122.6L423.82,126.55L424.43,122.6L424.57,134.44L425.15,114.7L425.23,110.75L425.28,114.7L425.67,87.06L425.67,87.06L425.69,83.12L425.7,75.22L425.83,142.34L426.15,126.55L426.57,122.6L427,114.7L427.09,122.6L427.23,126.55L427.9,118.65L428.16,122.6L428.68,134.44L428.87,126.55L428.97,130.49L429.32,122.6L429.7,142.34L429.83,138.39L429.83,146.29L430.14,126.55L430.31,142.34L430.72,138.39L431.39,158.13L431.98,154.18L432.33,158.13L432.34,150.23L432.72,146.29L432.98,126.55L433.71,130.49L433.85,150.23L434.16,122.6L434.32,130.49L434.49,134.44L434.72,130.49L434.88,142.34L436.06,138.39L436.19,146.29L436.36,138.39L437.03,134.44L437.19,138.39L437.37,130.49L437.72,126.55L437.75,138.39L438.15,130.49L438.86,126.55L439.38,122.6L439.38,126.55L439.38,130.49L439.92,122.6L439.92,118.65L439.92,114.7L439.96,130.49L440.1,118.65L440.96,114.7L441.19,102.86L441.32,118.65L441.4,122.6L442.12,154.18L442.38,146.29L442.38,142.34L442.75,138.39L442.75,146.29L442.75,150.23L442.75,146.29L442.75,158.13L443.36,154.18L443.59,150.23L443.83,154.18L444.08,138.39L444.21,142.34L444.23,138.39L444.68,166.03L444.97,150.23L444.99,146.29L445.05,138.39L445.07,166.03L445.68,146.29L445.69,150.23L446.4,130.49L446.67,134.44L447.21,169.97L447.38,166.03L447.8,169.97L448.25,150.23L448.54,154.18L448.79,150.23L448.79,154.18L449.24,146.29L449.24,146.29L450.37,142.34L450.97,134.44L450.97,138.39L451.79,134.44L451.84,130.49L451.86,162.08L452.27,158.13L452.82,162.08L452.94,166.03L453.08,150.23L453.08,150.23L453.1,146.29L453.53,134.44L453.8,150.23L453.82,150.23L453.85,154.18L454.18,142.34L454.26,166.03L454.35,162.08L454.38,166.03L454.53,169.97L455.15,158.13L455.15,162.08L455.15,166.03L455.41,162.08L455.74,169.97L455.82,166.03L455.82,169.97L456.11,173.92L456.44,158.13L456.44,162.08L456.85,158.13L457.95,146.29L458.28,150.23L458.31,146.29L458.45,162.08L458.88,162.08L459.18,158.13L459.19,162.08L459.46,154.18L459.71,162.08L460.02,158.13L460.33,173.92L460.59,166.03L460.9,169.97L461.58,162.08L461.58,166.03L461.82,162.08L462,150.23L462.01,166.03L462.19,158.13L462.9,162.08L463.29,158.13L463.45,173.92L463.86,169.97L464.16,166.03L464.17,173.92L464.46,169.97L464.75,166.03L465.43,162.08L465.43,166.03L465.6,169.97L465.61,166.03L465.75,185.77L466.3,181.82L466.36,177.87L466.44,173.92L467.04,185.77L467.05,181.82L467.16,185.77L467.88,166.03L467.88,181.82L467.89,185.77L467.89,181.82L468.03,189.71L468.62,185.77L468.87,181.82L468.87,189.71L469.61,189.71L469.64,185.77L470.18,197.61L470.18,193.66L470.48,189.71L471.32,185.77L471.45,189.71L472.25,181.82L472.26,177.87L472.36,201.56L472.91,189.71L473.07,185.77L473.07,201.56L473.8,197.61L473.89,201.56L474.08,189.71L474.21,193.66L474.77,189.71L474.77,193.66L475.52,177.87L475.52,185.77L475.53,181.82L475.53,177.87L475.93,193.66L476.28,185.77L476.34,181.82L476.96,177.87L477.22,181.82L477.22,185.77L477.24,177.87L477.26,181.82L478.22,177.87L478.22,181.82L478.83,173.92L478.84,177.87L478.98,173.92L479.96,162.08L479.96,166.03L480.09,169.97L480.39,162.08L481.31,166.03L481.39,169.97L481.94,162.08L481.94,166.03L481.99,162.08L482.52,181.82L482.56,181.82L482.95,177.87L482.98,185.77L483.69,169.97L483.82,166.03L483.99,162.08L483.99,177.87L484.29,169.97L484.3,173.92L484.96,169.97L484.96,173.92L485.33,169.97L485.33,173.92L485.55,162.08L485.57,173.92L486.26,169.97L486.41,189.71L487.01,181.82L487.03,185.77L487.06,177.87L487.7,201.56L488.48,197.61L488.88,201.56L488.91,197.61L489.57,193.66L490.13,201.56L490.91,197.61L491.36,189.71L491.77,193.66L491.85,197.61L492.21,189.71L492.21,193.66L492.28,197.61L492.3,201.56L492.33,193.66L493.02,197.61L493.03,193.66L493.06,197.61L493.44,185.77L493.5,189.71L494.2,193.66L494.33,185.77L494.82,193.66L495.7,189.71L496.57,185.77L496.57,189.71L496.61,193.66L497.18,185.77L497.18,193.66L498.07,189.71L498.18,181.82L498.19,193.66L498.33,185.77L499.18,189.71L499.78,173.92L500.11,169.97L500.63,173.92L500.81,169.97L500.81,166.03L501.46,150.23L501.46,173.92L501.56,169.97L501.81,166.03L502.09,162.08L502.1,169.97L502.1,173.92L502.7,169.97L502.94,173.92L503.06,169.97L503.38,181.82L504.04,185.77L504.52,177.87L504.65,185.77L504.65,189.71L504.65,185.77L505.04,197.61L505.33,197.61L505.49,193.66L506.11,189.71L506.2,193.66L506.22,197.61L506.42,185.77L506.57,189.71L507.22,185.77L508.08,197.61L508.12,193.66L508.37,197.61L508.81,189.71L509.07,193.66L509.41,181.82L509.5,189.71L510.29,185.77L510.67,193.66L510.75,181.82L511.1,177.87L511.67,169.97L511.79,189.71L511.82,189.71L512.15,185.77L513.76,166.03L514.17,169.97L514.17,173.92L515.15,169.97L515.4,177.87L515.85,162.08L515.9,173.92L515.99,169.97L516.4,173.92L516.71,169.97L518.14,166.03L519.32,150.23L519.43,154.18L519.43,162.08L519.6,150.23L519.64,150.23L521.89,154.18L522.29,146.29L522.32,173.92L522.6,169.97L522.6,173.92L522.6,177.87L522.72,173.92L523.45,169.97L523.74,173.92L523.75,166.03L523.75,169.97L524.33,166.03L524.46,150.23L524.74,162.08L525.18,166.03L525.77,150.23L526.22,146.29L526.34,150.23L526.51,142.34L526.51,150.23L528.45,146.29L528.45,150.23L530.26,146.29L531.68,130.49L531.84,126.55L531.9,118.65L531.9,130.49L532.36,126.55L532.7,122.6L534.25,114.7L534.49,110.75L534.5,114.7L534.99,102.86L536.16,98.91L536.82,83.12L536.83,79.17L536.83,83.12L537.43,59.43L537.53,59.43L537.8,55.48L537.8,59.43L538.26,39.69L538.55,39.69L538.66,35.74L538.67,39.69L539.32,31.79L539.42,27.84L539.57,31.79L539.82,19.95L540,16" style="fill: rgb(44, 160, 44); fill-opacity: 0.5; stroke-width: 0;"/></g></g><g class="errorbars"/><g class="lines"><path class="js-line" d="M0,316.05L0.1,320L1.04,316.05L1.73,320L1.84,316.05L1.84,320L3.12,316.05L3.87,320L4.75,316.05L4.75,320L4.85,320L5.59,316.05L5.59,320L6.18,320L7.03,316.05L7.03,320L7.62,320L9.17,316.05L9.17,320L9.82,316.05L10.04,320L11.77,316.05L11.77,320L14.64,316.05L14.64,320L22.11,316.05L22.11,320L22.31,316.05L22.31,320L23.94,316.05L23.94,312.1L24.09,316.05L25.24,320L26.96,316.05L26.96,320L28.3,312.1L28.3,316.05L28.3,320L31.16,316.05L31.16,320L31.3,320L32.56,316.05L32.56,320L33.16,320L34.07,316.05L34.07,320L34.85,316.05L34.85,320L35.36,320L35.61,316.05L35.7,320L36.91,316.05L38.33,312.1L38.77,316.05L38.89,312.1L38.89,316.05L40.2,320L40.93,316.05L40.93,320L42.66,316.05L42.66,320L43.76,316.05L43.76,320L44.25,304.21L44.37,308.16L44.9,312.1L45.34,316.05L45.79,312.1L45.8,316.05L47.07,312.1L50.96,308.16L50.96,312.1L51.26,316.05L52.07,312.1L52.98,320L54.41,316.05L54.81,320L57.99,316.05L57.99,320L57.99,316.05L59.51,312.1L59.84,316.05L60.63,312.1L61.41,308.16L61.44,312.1L61.45,308.16L62.03,320L63.89,316.05L64.19,320L64.88,316.05L65.03,312.1L66.01,316.05L66.19,308.16L66.32,312.1L67.16,316.05L67.47,312.1L67.47,316.05L68.03,312.1L68.11,304.21L68.22,320L68.3,320L68.9,316.05L69.76,312.1L69.76,316.05L70.5,308.16L70.5,312.1L71.21,308.16L75.78,304.21L76.26,300.26L77.96,320L78.97,316.05L78.97,320L79.95,316.05L81.17,312.1L81.22,316.05L82.15,312.1L82.3,308.16L83.23,300.26L83.23,304.21L83.25,308.16L84.41,300.26L84.42,304.21L85.26,300.26L85.26,304.21L85.56,308.16L86.13,304.21L86.14,308.16L86.14,304.21L87.97,308.16L88.15,304.21L88.15,308.16L89.06,304.21L89.3,308.16L90.02,304.21L90.49,300.26L91.27,304.21L91.99,300.26L92.29,304.21L94.58,300.26L94.58,304.21L95.18,300.26L95.2,304.21L96.6,308.16L97.11,304.21L97.31,308.16L97.46,304.21L97.46,308.16L98.48,304.21L98.5,280.52L99.2,300.26L99.48,304.21L99.49,308.16L99.64,300.26L100.05,300.26L100.64,296.31L101.36,300.26L101.54,296.31L102.07,288.42L102.24,296.31L102.33,300.26L102.96,284.47L103.09,292.36L104.06,296.31L104.5,284.47L104.5,284.47L105.04,288.42L106.1,268.68L107.07,264.73L108.1,268.68L108.39,264.73L109.12,272.62L109.12,272.62L109.25,268.68L109.55,284.47L109.68,280.52L110.34,276.57L110.84,260.78L110.85,264.73L111.24,268.68L111.27,272.62L112.13,268.68L112.26,264.73L112.28,268.68L113.58,272.62L113.7,288.42L114.28,284.47L114.29,280.52L114.3,288.42L115.41,284.47L115.41,288.42L117.58,284.47L117.59,280.52L117.59,288.42L119.59,284.47L119.61,288.42L119.61,284.47L120.68,288.42L120.74,284.47L122.6,280.52L123.45,288.42L123.45,284.47L123.61,288.42L123.77,284.47L123.78,288.42L124.61,284.47L124.94,288.42L125.65,284.47L125.68,288.42L127.33,284.47L127.35,288.42L129.22,284.47L129.32,288.42L129.72,284.47L130.21,280.52L130.33,284.47L131.23,280.52L131.23,284.47L131.65,268.68L131.79,268.68L132.18,264.73L132.53,284.47L132.53,284.47L133.53,280.52L133.64,288.42L133.82,288.42L134.53,284.47L135.52,280.52L135.63,276.57L136.21,280.52L136.39,276.57L137.23,264.73L137.26,268.68L138.25,256.83L138.25,252.88L138.26,248.94L138.41,272.62L139.68,268.68L139.8,264.73L139.81,268.68L141.26,264.73L142.04,280.52L143.26,276.57L143.67,280.52L145.29,276.57L146.39,272.62L146.39,276.57L147.72,264.73L147.73,268.68L147.98,272.62L148.01,276.57L148.41,268.68L148.42,272.62L148.74,268.68L148.75,272.62L149.75,276.57L149.92,284.47L150.63,280.52L150.73,276.57L152.35,272.62L152.89,260.78L152.89,264.73L152.9,268.68L152.95,280.52L154.77,276.57L154.87,280.52L154.91,276.57L156.51,272.62L156.53,276.57L157.9,272.62L157.9,276.57L158.33,272.62L158.79,268.68L159.48,264.73L159.51,268.68L162.39,272.62L165.46,264.73L166.2,260.78L166.98,264.73L167.7,260.78L167.71,264.73L170.41,260.78L170.87,264.73L171.48,260.78L172.71,256.83L172.96,260.78L172.96,256.83L173,288.42L173,284.47L175.41,280.52L175.43,284.47L177.79,288.42L178.89,284.47L178.9,288.42L179.53,284.47L179.56,288.42L181.79,284.47L181.95,280.52L183.35,284.47L183.36,288.42L183.95,256.83L184.04,260.78L184.04,256.83L184.07,272.62L185.6,268.68L185.94,256.83L187.61,252.88L188.12,248.94L188.13,252.88L190.35,248.94L190.84,252.88L192.18,248.94L192.48,252.88L192.78,248.94L194.99,244.99L198,241.04L198.1,244.99L199.01,241.04L199.72,244.99L199.75,237.09L199.98,241.04L200.87,244.99L201.13,260.78L201.96,264.73L202.04,268.68L202.14,260.78L205.6,256.83L206.17,260.78L206.86,256.83L207.01,252.88L209.18,248.94L212.17,244.99L213.76,241.04L213.78,237.09L215.11,233.14L215.9,237.09L215.92,233.14L216.22,260.78L216.23,256.83L217.22,260.78L217.65,264.73L217.66,260.78L218.82,264.73L219.28,272.62L219.66,268.68L219.68,272.62L220.21,260.78L220.25,268.68L220.82,272.62L220.85,276.57L221.77,272.62L222.95,268.68L222.97,272.62L224.97,264.73L225.26,260.78L227.64,256.83L228.77,260.78L230.37,256.83L230.86,252.88L233.18,244.99L233.19,248.94L234.05,237.09L235.9,233.14L236.19,221.3L236.72,217.35L237.8,209.45L237.85,213.4L240.11,185.77L240.19,189.71L240.2,193.66L240.35,181.82L240.95,185.77L241.06,181.82L242.36,177.87L242.51,173.92L242.79,185.77L242.79,189.71L242.96,213.4L243.24,205.51L243.74,201.56L244.8,268.68L245.04,264.73L245.22,260.78L245.23,256.83L245.83,268.68L245.93,264.73L246.12,260.78L246.95,268.68L247.05,272.62L247.06,264.73L247.5,276.57L247.81,280.52L248.22,268.68L248.26,264.73L248.82,276.57L249.06,272.62L249.21,276.57L249.37,272.62L250.07,268.68L250.1,264.73L250.92,268.68L251.42,260.78L252.07,256.83L252.94,248.94L252.94,252.88L253.81,244.99L253.81,248.94L255.29,237.09L256.24,241.04L259.92,237.09L260.01,233.14L260.27,229.19L260.58,233.14L262.19,229.19L263.13,221.3L263.49,217.35L263.88,213.4L265.49,209.45L265.93,197.61L266.14,209.45L266.14,213.4L267.37,193.66L269.45,189.71L269.52,181.82L270.56,177.87L272.22,169.97L272.25,173.92L272.27,201.56L272.9,185.77L273.19,181.82L273.19,185.77L273.33,181.82L275.49,177.87L277.2,173.92L277.39,169.97L279.16,166.03L279.16,169.97L279.16,166.03L279.16,169.97L280.13,166.03L280.32,162.08L281,166.03L281.97,181.82L282.17,185.77L283.73,181.82L284.26,185.77L285.65,177.87L286.36,173.92L286.36,177.87L287.16,173.92L287.27,166.03L288.43,169.97L289,217.35L291.58,213.4L292.07,217.35L292.47,213.4L292.48,217.35L295.33,213.4L296.04,221.3L296.07,217.35L296.18,213.4L296.18,217.35L296.44,217.35L297.13,221.3L297.31,213.4L297.32,217.35L299.69,213.4L299.7,209.45L300.5,205.51L302.54,201.56L303.07,197.61L303.22,185.77L303.27,205.51L303.63,197.61L304.09,201.56L304.57,209.45L304.79,205.51L305.05,201.56L305.86,252.88L306.09,248.94L307.08,237.09L307.71,233.14L308.72,213.4L309.69,209.45L310.59,205.51L310.7,201.56L311.55,189.71L311.59,193.66L312.56,150.23L314.78,146.29L316.71,142.34L316.71,138.39L320.12,142.34L320.2,138.39L321.47,134.44L321.89,130.49L323.93,114.7L323.93,110.75L324.06,102.86L324.46,185.77L324.78,181.82L325.22,177.87L325.24,189.71L325.49,185.77L325.65,181.82L326.68,162.08L326.8,166.03L329.17,162.08L329.67,158.13L329.96,162.08L330.93,158.13L331.32,162.08L332.49,158.13L333.96,162.08L333.98,173.92L334.64,169.97L335.36,173.92L335.8,197.61L336.22,201.56L336.36,197.61L336.67,209.45L336.87,205.51L337.26,209.45L337.83,205.51L338.66,193.66L339.55,189.71L339.78,181.82L340.43,177.87L341.29,185.77L341.7,181.82L341.7,185.77L342.42,181.82L342.7,185.77L342.7,193.66L343.27,189.71L344.61,185.77L344.83,177.87L345.27,189.71L345.29,189.71L345.29,193.66L345.94,185.77L346.16,181.82L346.95,173.92L346.97,177.87L350.07,173.92L350.46,177.87L351.85,173.92L352.3,169.97L352.31,173.92L353.07,177.87L353.35,173.92L353.43,181.82L354.19,177.87L355.31,166.03L355.31,169.97L355.76,162.08L356.33,158.13L356.76,166.03L356.78,158.13L357.32,162.08L357.32,158.13L357.92,162.08L358.64,158.13L358.79,162.08L359.47,158.13L360.03,154.18L360.25,158.13L360.65,146.29L360.7,154.18L361.49,150.23L361.54,146.29L362.36,142.34L363.48,138.39L363.58,134.44L364.29,118.65L364.66,114.7L364.78,118.65L366.51,114.7L366.8,110.75L367.87,106.81L368.03,142.34L368.14,142.34L369.63,138.39L370.57,134.44L370.57,138.39L372.43,134.44L372.43,138.39L372.86,134.44L375.31,130.49L375.31,134.44L375.99,134.44L376.59,130.49L377.35,114.7L377.42,118.65L378.61,114.7L378.71,106.81L379.16,130.49L379.53,126.55L379.75,130.49L380.73,126.55L381.56,110.75L381.78,106.81L382.37,126.55L382.47,114.7L382.67,110.75L383.39,134.44L383.62,130.49L384.27,166.03L384.39,162.08L384.47,166.03L384.47,169.97L385.1,169.97L385.24,173.92L385.26,189.71L385.64,185.77L386.39,189.71L386.4,185.77L386.44,189.71L388.91,185.77L389.53,173.92L389.55,177.87L389.79,181.82L393.38,177.87L393.4,181.82L394.12,173.92L395.03,177.87L396.16,173.92L397.09,169.97L397.09,173.92L398.96,169.97L399.1,162.08L400.13,166.03L400.68,158.13L400.69,154.18L400.7,138.39L404.48,142.34L405.57,126.55L407.71,122.6L408.21,114.7L408.21,118.65L408.21,122.6L410.32,114.7L410.77,110.75L413.57,102.86L413.76,98.91L414.34,94.96L414.34,98.91L414.52,102.86L415.12,122.6L415.25,118.65L415.86,114.7L415.91,118.65L416.23,98.91L416.64,94.96L416.83,83.12L417.02,98.91L417.03,102.86L417.03,106.81L417.67,91.01L417.8,87.06L418.09,83.12L418.19,94.96L418.21,98.91L418.26,94.96L418.93,110.75L418.98,106.81L419.06,102.86L419.07,118.65L419.7,114.7L419.97,110.75L420.7,106.81L420.71,102.86L421.14,126.55L421.64,118.65L421.67,114.7L422.07,91.01L422.26,134.44L422.57,130.49L423.01,106.81L423.16,122.6L423.16,126.55L423.21,134.44L423.78,122.6L423.82,126.55L424.43,122.6L424.57,134.44L425.15,114.7L425.23,110.75L425.28,114.7L425.67,87.06L425.67,87.06L425.69,83.12L425.7,75.22L425.83,142.34L426.15,126.55L426.57,122.6L427,114.7L427.09,122.6L427.23,126.55L427.9,118.65L428.16,122.6L428.68,134.44L428.87,126.55L428.97,130.49L429.32,122.6L429.7,142.34L429.83,138.39L429.83,146.29L430.14,126.55L430.31,142.34L430.72,138.39L431.39,158.13L431.98,154.18L432.33,158.13L432.34,150.23L432.72,146.29L432.98,126.55L433.71,130.49L433.85,150.23L434.16,122.6L434.32,130.49L434.49,134.44L434.72,130.49L434.88,142.34L436.06,138.39L436.19,146.29L436.36,138.39L437.03,134.44L437.19,138.39L437.37,130.49L437.72,126.55L437.75,138.39L438.15,130.49L438.86,126.55L439.38,122.6L439.38,126.55L439.38,130.49L439.92,122.6L439.92,118.65L439.92,114.7L439.96,130.49L440.1,118.65L440.96,114.7L441.19,102.86L441.32,118.65L441.4,122.6L442.12,154.18L442.38,146.29L442.38,142.34L442.75,138.39L442.75,146.29L442.75,150.23L442.75,146.29L442.75,158.13L443.36,154.18L443.59,150.23L443.83,154.18L444.08,138.39L444.21,142.34L444.23,138.39L444.68,166.03L444.97,150.23L444.99,146.29L445.05,138.39L445.07,166.03L445.68,146.29L445.69,150.23L446.4,130.49L446.67,134.44L447.21,169.97L447.38,166.03L447.8,169.97L448.25,150.23L448.54,154.18L448.79,150.23L448.79,154.18L449.24,146.29L449.24,146.29L450.37,142.34L450.97,134.44L450.97,138.39L451.79,134.44L451.84,130.49L451.86,162.08L452.27,158.13L452.82,162.08L452.94,166.03L453.08,150.23L453.08,150.23L453.1,146.29L453.53,134.44L453.8,150.23L453.82,150.23L453.85,154.18L454.18,142.34L454.26,166.03L454.35,162.08L454.38,166.03L454.53,169.97L455.15,158.13L455.15,162.08L455.15,166.03L455.41,162.08L455.74,169.97L455.82,166.03L455.82,169.97L456.11,173.92L456.44,158.13L456.44,162.08L456.85,158.13L457.95,146.29L458.28,150.23L458.31,146.29L458.45,162.08L458.88,162.08L459.18,158.13L459.19,162.08L459.46,154.18L459.71,162.08L460.02,158.13L460.33,173.92L460.59,166.03L460.9,169.97L461.58,162.08L461.58,166.03L461.82,162.08L462,150.23L462.01,166.03L462.19,158.13L462.9,162.08L463.29,158.13L463.45,173.92L463.86,169.97L464.16,166.03L464.17,173.92L464.46,169.97L464.75,166.03L465.43,162.08L465.43,166.03L465.6,169.97L465.61,166.03L465.75,185.77L466.3,181.82L466.36,177.87L466.44,173.92L467.04,185.77L467.05,181.82L467.16,185.77L467.88,166.03L467.88,181.82L467.89,185.77L467.89,181.82L468.03,189.71L468.62,185.77L468.87,181.82L468.87,189.71L469.61,189.71L469.64,185.77L470.18,197.61L470.18,193.66L470.48,189.71L471.32,185.77L471.45,189.71L472.25,181.82L472.26,177.87L472.36,201.56L472.91,189.71L473.07,185.77L473.07,201.56L473.8,197.61L473.89,201.56L474.08,189.71L474.21,193.66L474.77,189.71L474.77,193.66L475.52,177.87L475.52,185.77L475.53,181.82L475.53,177.87L475.93,193.66L476.28,185.77L476.34,181.82L476.96,177.87L477.22,181.82L477.22,185.77L477.24,177.87L477.26,181.82L478.22,177.87L478.22,181.82L478.83,173.92L478.84,177.87L478.98,173.92L479.96,162.08L479.96,166.03L480.09,169.97L480.39,162.08L481.31,166.03L481.39,169.97L481.94,162.08L481.94,166.03L481.99,162.08L482.52,181.82L482.56,181.82L482.95,177.87L482.98,185.77L483.69,169.97L483.82,166.03L483.99,162.08L483.99,177.87L484.29,169.97L484.3,173.92L484.96,169.97L484.96,173.92L485.33,169.97L485.33,173.92L485.55,162.08L485.57,173.92L486.26,169.97L486.41,189.71L487.01,181.82L487.03,185.77L487.06,177.87L487.7,201.56L488.48,197.61L488.88,201.56L488.91,197.61L489.57,193.66L490.13,201.56L490.91,197.61L491.36,189.71L491.77,193.66L491.85,197.61L492.21,189.71L492.21,193.66L492.28,197.61L492.3,201.56L492.33,193.66L493.02,197.61L493.03,193.66L493.06,197.61L493.44,185.77L493.5,189.71L494.2,193.66L494.33,185.77L494.82,193.66L495.7,189.71L496.57,185.77L496.57,189.71L496.61,193.66L497.18,185.77L497.18,193.66L498.07,189.71L498.18,181.82L498.19,193.66L498.33,185.77L499.18,189.71L499.78,173.92L500.11,169.97L500.63,173.92L500.81,169.97L500.81,166.03L501.46,150.23L501.46,173.92L501.56,169.97L501.81,166.03L502.09,162.08L502.1,169.97L502.1,173.92L502.7,169.97L502.94,173.92L503.06,169.97L503.38,181.82L504.04,185.77L504.52,177.87L504.65,185.77L504.65,189.71L504.65,185.77L505.04,197.61L505.33,197.61L505.49,193.66L506.11,189.71L506.2,193.66L506.22,197.61L506.42,185.77L506.57,189.71L507.22,185.77L508.08,197.61L508.12,193.66L508.37,197.61L508.81,189.71L509.07,193.66L509.41,181.82L509.5,189.71L510.29,185.77L510.67,193.66L510.75,181.82L511.1,177.87L511.67,169.97L511.79,189.71L511.82,189.71L512.15,185.77L513.76,166.03L514.17,169.97L514.17,173.92L515.15,169.97L515.4,177.87L515.85,162.08L515.9,173.92L515.99,169.97L516.4,173.92L516.71,169.97L518.14,166.03L519.32,150.23L519.43,154.18L519.43,162.08L519.6,150.23L519.64,150.23L521.89,154.18L522.29,146.29L522.32,173.92L522.6,169.97L522.6,173.92L522.6,177.87L522.72,173.92L523.45,169.97L523.74,173.92L523.75,166.03L523.75,169.97L524.33,166.03L524.46,150.23L524.74,162.08L525.18,166.03L525.77,150.23L526.22,146.29L526.34,150.23L526.51,142.34L526.51,150.23L528.45,146.29L528.45,150.23L530.26,146.29L531.68,130.49L531.84,126.55L531.9,118.65L531.9,130.49L532.36,126.55L532.7,122.6L534.25,114.7L534.49,110.75L534.5,114.7L534.99,102.86L536.16,98.91L536.82,83.12L536.83,79.17L536.83,83.12L537.43,59.43L537.53,59.43L537.8,55.48L537.8,59.43L538.26,39.69L538.55,39.69L538.66,35.74L538.67,39.69L539.32,31.79L539.42,27.84L539.57,31.79L539.82,19.95L540,16" style="vector-effect: none; fill: none; stroke: rgb(44, 160, 44); stroke-opacity: 1; stroke-width: 2px; opacity: 1;"/></g><g class="points"/><g class="text"/></g></g></g></g><g class="zerolinelayer-above"/><path class="xlines-above crisp" d="M0,0" style="fill: none;"/><path class="ylines-above crisp" d="M0,0" style="fill: none;"/><g class="overlines-above"/><g class="xaxislayer-above"><g class="xtick"><text text-anchor="middle" x="0" y="439" transform="translate(97.14,0)" style="font-family: 'Open Sans'; font-size: 18px; fill: rgb(255, 255, 255); fill-opacity: 1; white-space: pre;">2016</text></g><g class="xtick"><text text-anchor="middle" x="0" y="439" style="font-family: 'Open Sans'; font-size: 18px; fill: rgb(255, 255, 255); fill-opacity: 1; white-space: pre;" transform="translate(202.09,0)">2018</text></g><g class="xtick"><text text-anchor="middle" x="0" y="439" style="font-family: 'Open Sans'; font-size: 18px; fill: rgb(255, 255, 255); fill-opacity: 1; white-space: pre;" transform="translate(306.9,0)">2020</text></g><g class="xtick"><text text-anchor="middle" x="0" y="439" style="font-family: 'Open Sans'; font-size: 18px; fill: rgb(255, 255, 255); fill-opacity: 1; white-space: pre;" transform="translate(411.85,0)">2022</text></g><g class="xtick"><text text-anchor="middle" x="0" y="439" style="font-family: 'Open Sans'; font-size: 18px; fill: rgb(255, 255, 255); fill-opacity: 1; white-space: pre;" transform="translate(516.6600000000001,0)">2024</text></g></g><g class="yaxislayer-above"><g class="ytick"><text text-anchor="end" x="79" y="6.3" transform="translate(0,420)" style="font-family: 'Open Sans'; font-size: 18px; fill: rgb(255, 255, 255); fill-opacity: 1; white-space: pre;">0</text></g><g class="ytick"><text text-anchor="end" x="79" y="6.3" style="font-family: 'Open Sans'; font-size: 18px; fill: rgb(255, 255, 255); fill-opacity: 1; white-space: pre;" transform="translate(0,380.52)">10</text></g><g class="ytick"><text text-anchor="end" x="79" y="6.3" style="font-family: 'Open Sans'; font-size: 18px; fill: rgb(255, 255, 255); fill-opacity: 1; white-space: pre;" transform="translate(0,341.03999999999996)">20</text></g><g class="ytick"><text text-anchor="end" x="79" y="6.3" style="font-family: 'Open Sans'; font-size: 18px; fill: rgb(255, 255, 255); fill-opacity: 1; white-space: pre;" transform="translate(0,301.56)">30</text></g><g class="ytick"><text text-anchor="end" x="79" y="6.3" style="font-family: 'Open Sans'; font-size: 18px; fill: rgb(255, 255, 255); fill-opacity: 1; white-space: pre;" transform="translate(0,262.08000000000004)">40</text></g><g class="ytick"><text text-anchor="end" x="79" y="6.3" style="font-family: 'Open Sans'; font-size: 18px; fill: rgb(255, 255, 255); fill-opacity: 1; white-space: pre;" transform="translate(0,222.6)">50</text></g><g class="ytick"><text text-anchor="end" x="79" y="6.3" style="font-family: 'Open Sans'; font-size: 18px; fill: rgb(255, 255, 255); fill-opacity: 1; white-space: pre;" transform="translate(0,183.12)">60</text></g><g class="ytick"><text text-anchor="end" x="79" y="6.3" style="font-family: 'Open Sans'; font-size: 18px; fill: rgb(255, 255, 255); fill-opacity: 1; white-space: pre;" transform="translate(0,143.64)">70</text></g><g class="ytick"><text text-anchor="end" x="79" y="6.3" style="font-family: 'Open Sans'; font-size: 18px; fill: rgb(255, 255, 255); fill-opacity: 1; white-space: pre;" transform="translate(0,104.16)">80</text></g></g><g class="overaxes-above"/></g></g><g class="polarlayer"/><g class="smithlayer"/><g class="ternarylayer"/><g class="geolayer"/><g class="funnelarealayer"/><g class="pielayer"/><g class="iciclelayer"/><g class="treemaplayer"/><g class="sunburstlayer"/><g class="glimages"/><defs id="topdefs-28e4e4"><g class="clips"/></defs><g class="layer-above"><g class="imagelayer"/><g class="shapelayer"/></g><g class="infolayer"><g class="g-gtitle"><text class="gtitle" x="35" y="50" text-anchor="start" dy="0em" style="opacity: 1; font-family: 'Open Sans'; font-size: 25px; fill: rgb(255, 255, 255); fill-opacity: 1; white-space: pre;">MultiQC/MultiQC - Open Pull Requests Over Time</text></g><g class="g-xtitle"><text class="xtitle" x="350" y="472.9" text-anchor="middle" style="opacity: 1; font-family: 'Open Sans'; font-size: 22px; fill: rgb(255, 255, 255); fill-opacity: 1; white-space: pre;">Date</text></g><g class="g-ytitle"><text class="ytitle" transform="rotate(-90,38.8,260)" x="38.8" y="260" text-anchor="middle" style="opacity: 1; font-family: 'Open Sans'; font-size: 22px; fill: rgb(255, 255, 255); fill-opacity: 1; white-space: pre;">Number of Open PRs</text></g></g></svg>