<svg class="main-svg" xmlns="http://www.w3.org/2000/svg" xmlns:xlink="http://www.w3.org/1999/xlink" width="700" height="500" style="" viewBox="0 0 700 500"><rect x="0" y="0" width="700" height="500" style="fill: rgb(0, 0, 0); fill-opacity: 0;"/><defs id="defs-5ff0a1"><g class="clips"><clipPath id="clip5ff0a1xyplot" class="plotclip"><rect width="540" height="320"/></clipPath><clipPath class="axesclip" id="clip5ff0a1x"><rect x="80" y="0" width="540" height="500"/></clipPath><clipPath class="axesclip" id="clip5ff0a1y"><rect x="0" y="100" width="700" height="320"/></clipPath><clipPath class="axesclip" id="clip5ff0a1xy"><rect x="80" y="100" width="540" height="320"/></clipPath></g><g class="gradients"/><g class="patterns"/></defs><g class="bglayer"><rect class="bg" x="80" y="100" width="540" height="320" style="fill: rgb(0, 0, 0); fill-opacity: 0; stroke-width: 0;"/></g><g class="layer-below"><g class="imagelayer"/><g class="shapelayer"/></g><g class="cartesianlayer"><g class="subplot xy"><g class="layer-subplot"><g class="shapelayer"/><g class="imagelayer"/></g><g class="minor-gridlayer"><g class="x"/><g class="y"/></g><g class="gridlayer"><g class="x"><path class="xgrid crisp" transform="translate(97.58,0)" d="M0,100v320" style="stroke: rgb(255, 255, 255); stroke-opacity: 1; stroke-width: 1px;"/><path class="xgrid crisp" transform="translate(205.22,0)" d="M0,100v320" style="stroke: rgb(255, 255, 255); stroke-opacity: 1; stroke-width: 1px;"/><path class="xgrid crisp" transform="translate(312.71000000000004,0)" d="M0,100v320" style="stroke: rgb(255, 255, 255); stroke-opacity: 1; stroke-width: 1px;"/><path class="xgrid crisp" transform="translate(420.36,0)" d="M0,100v320" style="stroke: rgb(255, 255, 255); stroke-opacity: 1; stroke-width: 1px;"/><path class="xgrid crisp" transform="translate(527.85,0)" d="M0,100v320" style="stroke: rgb(255, 255, 255); stroke-opacity: 1; stroke-width: 1px;"/></g><g class="y"><path class="ygrid crisp" transform="translate(0,381.22)" d="M80,0h540" style="stroke: rgb(255, 255, 255); stroke-opacity: 1; stroke-width: 1px;"/><path class="ygrid crisp" transform="translate(0,342.45)" d="M80,0h540" style="stroke: rgb(255, 255, 255); stroke-opacity: 1; stroke-width: 1px;"/><path class="ygrid crisp" transform="translate(0,303.66999999999996)" d="M80,0h540" style="stroke: rgb(255, 255, 255); stroke-opacity: 1; stroke-width: 1px;"/><path class="ygrid crisp" transform="translate(0,264.9)" d="M80,0h540" style="stroke: rgb(255, 255, 255); stroke-opacity: 1; stroke-width: 1px;"/><path class="ygrid crisp" transform="translate(0,226.12)" d="M80,0h540" style="stroke: rgb(255, 255, 255); stroke-opacity: 1; stroke-width: 1px;"/><path class="ygrid crisp" transform="translate(0,187.35)" d="M80,0h540" style="stroke: rgb(255, 255, 255); stroke-opacity: 1; stroke-width: 1px;"/><path class="ygrid crisp" transform="translate(0,148.57)" d="M80,0h540" style="stroke: rgb(255, 255, 255); stroke-opacity: 1; stroke-width: 1px;"/><path class="ygrid crisp" transform="translate(0,109.8)" d="M80,0h540" style="stroke: rgb(255, 255, 255); stroke-opacity: 1; stroke-width: 1px;"/></g></g><g class="zerolinelayer"><path class="yzl zl crisp" transform="translate(0,420)" d="M80,0h540" style="stroke: rgb(255, 255, 255); stroke-opacity: 1; stroke-width: 2px;"/></g><g class="layer-between"><g class="shapelayer"/><g class="imagelayer"/></g><path class="xlines-below"/><path class="ylines-below"/><g class="overlines-below"/><g class="xaxislayer-below"/><g class="yaxislayer-below"/><g class="overaxes-below"/><g class="overplot"><g class="xy" transform="translate(80,100)" clip-path="url(#clip5ff0a1xyplot)"><g class="scatterlayer mlayer"><g class="trace scatter trace26511c" style="stroke-miterlimit: 2;"><g class="fills"><g><path class="js-fill" d="M540,320L0,320L0,319.81L3.67,318.45L3.97,318.26L6.02,317.09L6.34,316.9L15.02,315.35L22.68,315.15L22.88,314.96L24.55,314.77L24.55,314.57L27.65,314.38L43.75,310.5L44.88,310.31L46.5,308.56L46.96,308.37L67.88,305.27L67.89,305.07L69.82,304.1L69.85,303.91L69.97,303.33L70.66,303.13L73.04,302.16L77.72,301.97L81,301.19L82,301L86.16,299.64L86.57,299.45L97.62,297.51L99.1,297.32L101.02,295.96L101.02,295.77L101.74,293.24L102.16,293.05L102.61,292.66L103.22,292.47L104.96,291.11L105.11,290.92L105.73,289.95L106.74,289.76L107.92,288.4L108.04,288.2L108.82,287.43L109.81,287.23L111.92,285.88L112.05,285.68L115.14,284.13L117.21,283.94L117.22,283.74L118.37,283.55L126.31,282.19L126.61,282L126.94,281.42L127.81,281.22L135.01,279.48L135.02,279.29L135.93,278.51L136.95,278.32L139.31,277.35L139.89,277.15L140.74,276.57L141.1,276.38L141.8,275.41L141.93,275.21L147.05,273.86L147.25,273.66L151.27,272.5L151.51,272.31L152.56,271.72L154.49,271.53L154.59,271.34L156.25,271.14L158.88,270.17L160.52,269.98L177.42,267.27L177.44,267.07L188.07,265.71L188.08,265.52L188.76,264.36L190.36,264.16L190.7,263.39L192.42,263.19L192.94,262.61L195.23,262.42L221.36,258.93L221.45,258.73L221.78,257.96L223.24,257.77L225.85,256.8L227.45,256.6L239.73,254.28L240.05,254.08L242.24,253.11L242.79,252.92L246.51,250.2L246.51,250.01L251.31,247.88L251.5,247.68L252.23,247.3L252.43,247.1L254.8,245.16L254.87,244.97L258.52,243.22L259.35,243.03L260.32,242.45L260.93,242.26L261.83,241.87L266.58,241.67L266.94,241.29L268.91,241.09L272.75,239.54L272.86,239.35L274.22,238.18L276.36,237.99L276.43,237.6L277.49,237.41L282.55,235.66L284.3,235.47L284.5,235.28L286.31,235.08L286.32,234.89L287.31,234.69L287.51,234.5L288.93,234.31L294.57,233.14L294.63,232.95L304.75,230.82L304.93,230.62L310.84,229.46L310.98,229.27L311.41,228.68L312.6,228.49L313.2,227.33L313.21,227.13L317.62,224.22L318.55,224.03L320.57,220.93L322.85,220.73L331.54,219.18L332.23,218.99L332.4,218.21L333.1,218.02L335.05,216.28L337.6,216.08L338.12,215.69L339.41,215.5L347.34,213.95L348.25,213.76L348.49,213.37L349.15,213.17L354.72,211.62L354.8,211.43L355.84,210.85L359.04,210.65L363.52,209.49L364.42,209.3L364.87,208.91L365.46,208.71L380.06,203.09L381.97,202.9L382.41,202.7L384.93,202.51L385.09,202.32L386.24,202.12L387.02,201.35L388.31,201.15L388.42,200.77L389.25,200.57L390.81,199.6L391.34,199.41L394.97,195.92L395.52,195.72L399.51,194.76L403.46,194.56L407.27,193.01L409.18,192.82L409.33,192.43L410.83,192.23L410.97,191.07L415.08,190.88L415.97,190.3L418.16,190.1L422.61,188.94L424.17,188.74L425.88,187.78L426.52,187.58L427.91,184.67L428.37,184.48L428.98,182.73L429.35,182.54L430.27,180.21L430.43,180.02L430.73,179.44L431.43,179.24L433.53,173.43L433.76,173.23L434.53,171.49L434.64,171.3L435.31,170.71L435.55,170.52L436.2,169.16L436.2,168.97L436.58,167.81L436.6,167.61L437.08,165.29L437.5,165.09L438.86,163.93L439.23,163.73L440.25,162.57L440.32,162.38L441.03,161.02L441.16,160.83L442.06,158.89L443.05,158.69L443.83,157.34L443.83,157.14L444.07,156.76L444.98,156.56L445.89,152.49L445.99,152.3L446.01,152.1L447.23,151.91L447.54,151.33L448.23,151.13L451.3,148.42L451.33,148.22L451.38,147.84L452.26,147.64L453.72,144.93L453.72,144.73L454.11,143.77L454.11,143.57L454.72,141.05L454.95,140.86L456.37,134.65L456.37,134.46L457.35,130.78L457.48,130.58L458.14,128.64L458.84,128.45L459.44,127.48L459.45,127.29L460.76,125.15L461.91,124.96L463.44,122.83L463.55,122.63L466.79,116.43L466.81,116.23L467.53,114.68L467.57,114.49L469.02,111.19L469.68,111L470.39,108.48L470.94,108.29L471.49,107.51L471.8,107.32L472.96,104.99L472.97,104.8L473.89,100.92L473.98,100.72L475.32,98.4L475.75,98.2L476.66,96.46L476.93,96.27L477.73,94.13L477.97,93.94L478.4,92.39L478.86,92.19L479.88,90.06L479.89,89.87L480.57,88.9L480.61,88.7L481.35,86.18L481.65,85.99L482.54,82.89L483.4,82.69L484.38,81.72L484.43,81.53L485.19,79.2L485.32,79.01L487.13,73.78L487.52,73.58L488.26,70.48L488.3,70.29L488.55,69.51L489.19,69.32L492.11,66.41L492.11,66.21L492.7,65.24L493.9,65.05L494.64,63.89L494.89,63.69L495.78,61.17L496.09,60.98L498,58.65L498.72,58.46L499.46,56.71L499.49,56.52L500.11,54.39L501,54.19L504.81,52.26L504.83,52.06L507.19,47.41L508.4,47.21L509.34,46.44L509.34,46.24L510.96,44.89L511.01,44.69L511.98,44.31L512.14,44.11L515.98,40.82L516.22,40.62L518.18,39.46L518.22,39.27L519.38,37.71L519.4,37.52L524.21,32.09L524.79,31.9L526.14,30.54L526.77,30.35L526.93,30.15L528.35,29.96L529.39,26.47L529.64,26.28L532.95,24.14L535.27,23.95L535.99,21.62L536.11,21.43L536.87,20.85L537.16,20.65L537.9,19.3L537.95,19.1L540,16" style="fill: rgb(44, 160, 44); fill-opacity: 0.5; stroke-width: 0;"/></g></g><g class="errorbars"/><g class="lines"><path class="js-line" d="M0,319.81L3.67,318.45L3.97,318.26L6.02,317.09L6.34,316.9L15.02,315.35L22.68,315.15L22.88,314.96L24.55,314.77L24.55,314.57L27.65,314.38L43.75,310.5L44.88,310.31L46.5,308.56L46.96,308.37L67.88,305.27L67.89,305.07L69.82,304.1L69.85,303.91L69.97,303.33L70.66,303.13L73.04,302.16L77.72,301.97L81,301.19L82,301L86.16,299.64L86.57,299.45L97.62,297.51L99.1,297.32L101.02,295.96L101.02,295.77L101.74,293.24L102.16,293.05L102.61,292.66L103.22,292.47L104.96,291.11L105.11,290.92L105.73,289.95L106.74,289.76L107.92,288.4L108.04,288.2L108.82,287.43L109.81,287.23L111.92,285.88L112.05,285.68L115.14,284.13L117.21,283.94L117.22,283.74L118.37,283.55L126.31,282.19L126.61,282L126.94,281.42L127.81,281.22L135.01,279.48L135.02,279.29L135.93,278.51L136.95,278.32L139.31,277.35L139.89,277.15L140.74,276.57L141.1,276.38L141.8,275.41L141.93,275.21L147.05,273.86L147.25,273.66L151.27,272.5L151.51,272.31L152.56,271.72L154.49,271.53L154.59,271.34L156.25,271.14L158.88,270.17L160.52,269.98L177.42,267.27L177.44,267.07L188.07,265.71L188.08,265.52L188.76,264.36L190.36,264.16L190.7,263.39L192.42,263.19L192.94,262.61L195.23,262.42L221.36,258.93L221.45,258.73L221.78,257.96L223.24,257.77L225.85,256.8L227.45,256.6L239.73,254.28L240.05,254.08L242.24,253.11L242.79,252.92L246.51,250.2L246.51,250.01L251.31,247.88L251.5,247.68L252.23,247.3L252.43,247.1L254.8,245.16L254.87,244.97L258.52,243.22L259.35,243.03L260.32,242.45L260.93,242.26L261.83,241.87L266.58,241.67L266.94,241.29L268.91,241.09L272.75,239.54L272.86,239.35L274.22,238.18L276.36,237.99L276.43,237.6L277.49,237.41L282.55,235.66L284.3,235.47L284.5,235.28L286.31,235.08L286.32,234.89L287.31,234.69L287.51,234.5L288.93,234.31L294.57,233.14L294.63,232.95L304.75,230.82L304.93,230.62L310.84,229.46L310.98,229.27L311.41,228.68L312.6,228.49L313.2,227.33L313.21,227.13L317.62,224.22L318.55,224.03L320.57,220.93L322.85,220.73L331.54,219.18L332.23,218.99L332.4,218.21L333.1,218.02L335.05,216.28L337.6,216.08L338.12,215.69L339.41,215.5L347.34,213.95L348.25,213.76L348.49,213.37L349.15,213.17L354.72,211.62L354.8,211.43L355.84,210.85L359.04,210.65L363.52,209.49L364.42,209.3L364.87,208.91L365.46,208.71L380.06,203.09L381.97,202.9L382.41,202.7L384.93,202.51L385.09,202.32L386.24,202.12L387.02,201.35L388.31,201.15L388.42,200.77L389.25,200.57L390.81,199.6L391.34,199.41L394.97,195.92L395.52,195.72L399.51,194.76L403.46,194.56L407.27,193.01L409.18,192.82L409.33,192.43L410.83,192.23L410.97,191.07L415.08,190.88L415.97,190.3L418.16,190.1L422.61,188.94L424.17,188.74L425.88,187.78L426.52,187.58L427.91,184.67L428.37,184.48L428.98,182.73L429.35,182.54L430.27,180.21L430.43,180.02L430.73,179.44L431.43,179.24L433.53,173.43L433.76,173.23L434.53,171.49L434.64,171.3L435.31,170.71L435.55,170.52L436.2,169.16L436.2,168.97L436.58,167.81L436.6,167.61L437.08,165.29L437.5,165.09L438.86,163.93L439.23,163.73L440.25,162.57L440.32,162.38L441.03,161.02L441.16,160.83L442.06,158.89L443.05,158.69L443.83,157.34L443.83,157.14L444.07,156.76L444.98,156.56L445.89,152.49L445.99,152.3L446.01,152.1L447.23,151.91L447.54,151.33L448.23,151.13L451.3,148.42L451.33,148.22L451.38,147.84L452.26,147.64L453.72,144.93L453.72,144.73L454.11,143.77L454.11,143.57L454.72,141.05L454.95,140.86L456.37,134.65L456.37,134.46L457.35,130.78L457.48,130.58L458.14,128.64L458.84,128.45L459.44,127.48L459.45,127.29L460.76,125.15L461.91,124.96L463.44,122.83L463.55,122.63L466.79,116.43L466.81,116.23L467.53,114.68L467.57,114.49L469.02,111.19L469.68,111L470.39,108.48L470.94,108.29L471.49,107.51L471.8,107.32L472.96,104.99L472.97,104.8L473.89,100.92L473.98,100.72L475.32,98.4L475.75,98.2L476.66,96.46L476.93,96.27L477.73,94.13L477.97,93.94L478.4,92.39L478.86,92.19L479.88,90.06L479.89,89.87L480.57,88.9L480.61,88.7L481.35,86.18L481.65,85.99L482.54,82.89L483.4,82.69L484.38,81.72L484.43,81.53L485.19,79.2L485.32,79.01L487.13,73.78L487.52,73.58L488.26,70.48L488.3,70.29L488.55,69.51L489.19,69.32L492.11,66.41L492.11,66.21L492.7,65.24L493.9,65.05L494.64,63.89L494.89,63.69L495.78,61.17L496.09,60.98L498,58.65L498.72,58.46L499.46,56.71L499.49,56.52L500.11,54.39L501,54.19L504.81,52.26L504.83,52.06L507.19,47.41L508.4,47.21L509.34,46.44L509.34,46.24L510.96,44.89L511.01,44.69L511.98,44.31L512.14,44.11L515.98,40.82L516.22,40.62L518.18,39.46L518.22,39.27L519.38,37.71L519.4,37.52L524.21,32.09L524.79,31.9L526.14,30.54L526.77,30.35L526.93,30.15L528.35,29.96L529.39,26.47L529.64,26.28L532.95,24.14L535.27,23.95L535.99,21.62L536.11,21.43L536.87,20.85L537.16,20.65L537.9,19.3L537.95,19.1L540,16" style="vector-effect: none; fill: none; stroke: rgb(44, 160, 44); stroke-opacity: 1; stroke-width: 2px; opacity: 1;"/></g><g class="points"/><g class="text"/></g></g></g></g><g class="zerolinelayer-above"/><path class="xlines-above crisp" d="M0,0" style="fill: none;"/><path class="ylines-above crisp" d="M0,0" style="fill: none;"/><g class="overlines-above"/><g class="xaxislayer-above"><g class="xtick"><text text-anchor="middle" x="0" y="439" transform="translate(97.58,0)" style="font-family: 'Open Sans'; font-size: 18px; fill: rgb(0, 0, 0); fill-opacity: 1; white-space: pre;">2016</text></g><g class="xtick"><text text-anchor="middle" x="0" y="439" style="font-family: 'Open Sans'; font-size: 18px; fill: rgb(0, 0, 0); fill-opacity: 1; white-space: pre;" transform="translate(205.22,0)">2018</text></g><g class="xtick"><text text-anchor="middle" x="0" y="439" style="font-family: 'Open Sans'; font-size: 18px; fill: rgb(0, 0, 0); fill-opacity: 1; white-space: pre;" transform="translate(312.71000000000004,0)">2020</text></g><g class="xtick"><text text-anchor="middle" x="0" y="439" style="font-family: 'Open Sans'; font-size: 18px; fill: rgb(0, 0, 0); fill-opacity: 1; white-space: pre;" transform="translate(420.36,0)">2022</text></g><g class="xtick"><text text-anchor="middle" x="0" y="439" style="font-family: 'Open Sans'; font-size: 18px; fill: rgb(0, 0, 0); fill-opacity: 1; white-space: pre;" transform="translate(527.85,0)">2024</text></g></g><g class="yaxislayer-above"><g class="ytick"><text text-anchor="end" x="79" y="6.3" transform="translate(0,420)" style="font-family: 'Open Sans'; font-size: 18px; fill: rgb(0, 0, 0); fill-opacity: 1; white-space: pre;">0</text></g><g class="ytick"><text text-anchor="end" x="79" y="6.3" style="font-family: 'Open Sans'; font-size: 18px; fill: rgb(0, 0, 0); fill-opacity: 1; white-space: pre;" transform="translate(0,381.22)">200</text></g><g class="ytick"><text text-anchor="end" x="79" y="6.3" style="font-family: 'Open Sans'; font-size: 18px; fill: rgb(0, 0, 0); fill-opacity: 1; white-space: pre;" transform="translate(0,342.45)">400</text></g><g class="ytick"><text text-anchor="end" x="79" y="6.3" style="font-family: 'Open Sans'; font-size: 18px; fill: rgb(0, 0, 0); fill-opacity: 1; white-space: pre;" transform="translate(0,303.66999999999996)">600</text></g><g class="ytick"><text text-anchor="end" x="79" y="6.3" style="font-family: 'Open Sans'; font-size: 18px; fill: rgb(0, 0, 0); fill-opacity: 1; white-space: pre;" transform="translate(0,264.9)">800</text></g><g class="ytick"><text text-anchor="end" x="79" y="6.3" style="font-family: 'Open Sans'; font-size: 18px; fill: rgb(0, 0, 0); fill-opacity: 1; white-space: pre;" transform="translate(0,226.12)">1000</text></g><g class="ytick"><text text-anchor="end" x="79" y="6.3" style="font-family: 'Open Sans'; font-size: 18px; fill: rgb(0, 0, 0); fill-opacity: 1; white-space: pre;" transform="translate(0,187.35)">1200</text></g><g class="ytick"><text text-anchor="end" x="79" y="6.3" style="font-family: 'Open Sans'; font-size: 18px; fill: rgb(0, 0, 0); fill-opacity: 1; white-space: pre;" transform="translate(0,148.57)">1400</text></g><g class="ytick"><text text-anchor="end" x="79" y="6.3" style="font-family: 'Open Sans'; font-size: 18px; fill: rgb(0, 0, 0); fill-opacity: 1; white-space: pre;" transform="translate(0,109.8)">1600</text></g></g><g class="overaxes-above"/></g></g><g class="polarlayer"/><g class="smithlayer"/><g class="ternarylayer"/><g class="geolayer"/><g class="funnelarealayer"/><g class="pielayer"/><g class="iciclelayer"/><g class="treemaplayer"/><g class="sunburstlayer"/><g class="glimages"/><defs id="topdefs-5ff0a1"><g class="clips"/></defs><g class="layer-above"><g class="imagelayer"/><g class="shapelayer"/></g><g class="infolayer"><g class="g-gtitle"><text class="gtitle" x="35" y="50" text-anchor="start" dy="0em" style="opacity: 1; font-family: 'Open Sans'; font-size: 25px; fill: rgb(0, 0, 0); fill-opacity: 1; white-space: pre;">MultiQC/MultiQC - Pull Requests Created Over Time</text></g><g class="g-xtitle"><text class="xtitle" x="350" y="472.9" text-anchor="middle" style="opacity: 1; font-family: 'Open Sans'; font-size: 22px; fill: rgb(0, 0, 0); fill-opacity: 1; white-space: pre;">Date</text></g><g class="g-ytitle"><text class="ytitle" transform="rotate(-90,20.799999999999997,260)" x="20.799999999999997" y="260" text-anchor="middle" style="opacity: 1; font-family: 'Open Sans'; font-size: 22px; fill: rgb(0, 0, 0); fill-opacity: 1; white-space: pre;">Cumulative PRs Created</text></g></g></svg>