<svg class="main-svg" xmlns="http://www.w3.org/2000/svg" xmlns:xlink="http://www.w3.org/1999/xlink" width="700" height="500" style="" viewBox="0 0 700 500"><rect x="0" y="0" width="700" height="500" style="fill: rgb(0, 0, 0); fill-opacity: 0;"/><defs id="defs-6fe838"><g class="clips"><clipPath id="clip6fe838xyplot" class="plotclip"><rect width="540" height="320"/></clipPath><clipPath class="axesclip" id="clip6fe838x"><rect x="80" y="0" width="540" height="500"/></clipPath><clipPath class="axesclip" id="clip6fe838y"><rect x="0" y="100" width="700" height="320"/></clipPath><clipPath class="axesclip" id="clip6fe838xy"><rect x="80" y="100" width="540" height="320"/></clipPath></g><g class="gradients"/><g class="patterns"/></defs><g class="bglayer"><rect class="bg" x="80" y="100" width="540" height="320" style="fill: rgb(0, 0, 0); fill-opacity: 0; stroke-width: 0;"/></g><g class="layer-below"><g class="imagelayer"/><g class="shapelayer"/></g><g class="cartesianlayer"><g class="subplot xy"><g class="layer-subplot"><g class="shapelayer"/><g class="imagelayer"/></g><g class="minor-gridlayer"><g class="x"/><g class="y"/></g><g class="gridlayer"><g class="x"><path class="xgrid crisp" transform="translate(96.65,0)" d="M0,100v320" style="stroke: rgb(255, 255, 255); stroke-opacity: 1; stroke-width: 1px;"/><path class="xgrid crisp" transform="translate(198.57,0)" d="M0,100v320" style="stroke: rgb(255, 255, 255); stroke-opacity: 1; stroke-width: 1px;"/><path class="xgrid crisp" transform="translate(300.35,0)" d="M0,100v320" style="stroke: rgb(255, 255, 255); stroke-opacity: 1; stroke-width: 1px;"/><path class="xgrid crisp" transform="translate(402.27,0)" d="M0,100v320" style="stroke: rgb(255, 255, 255); stroke-opacity: 1; stroke-width: 1px;"/><path class="xgrid crisp" transform="translate(504.05,0)" d="M0,100v320" style="stroke: rgb(255, 255, 255); stroke-opacity: 1; stroke-width: 1px;"/><path class="xgrid crisp" transform="translate(605.97,0)" d="M0,100v320" style="stroke: rgb(255, 255, 255); stroke-opacity: 1; stroke-width: 1px;"/></g><g class="y"><path class="ygrid crisp" transform="translate(0,383.64)" d="M80,0h540" style="stroke: rgb(255, 255, 255); stroke-opacity: 1; stroke-width: 1px;"/><path class="ygrid crisp" transform="translate(0,347.27)" d="M80,0h540" style="stroke: rgb(255, 255, 255); stroke-opacity: 1; stroke-width: 1px;"/><path class="ygrid crisp" transform="translate(0,310.90999999999997)" d="M80,0h540" style="stroke: rgb(255, 255, 255); stroke-opacity: 1; stroke-width: 1px;"/><path class="ygrid crisp" transform="translate(0,274.55)" d="M80,0h540" style="stroke: rgb(255, 255, 255); stroke-opacity: 1; stroke-width: 1px;"/><path class="ygrid crisp" transform="translate(0,238.18)" d="M80,0h540" style="stroke: rgb(255, 255, 255); stroke-opacity: 1; stroke-width: 1px;"/><path class="ygrid crisp" transform="translate(0,201.82)" d="M80,0h540" style="stroke: rgb(255, 255, 255); stroke-opacity: 1; stroke-width: 1px;"/><path class="ygrid crisp" transform="translate(0,165.45)" d="M80,0h540" style="stroke: rgb(255, 255, 255); stroke-opacity: 1; stroke-width: 1px;"/><path class="ygrid crisp" transform="translate(0,129.09)" d="M80,0h540" style="stroke: rgb(255, 255, 255); stroke-opacity: 1; stroke-width: 1px;"/></g></g><g class="zerolinelayer"><path class="yzl zl crisp" transform="translate(0,420)" d="M80,0h540" style="stroke: rgb(255, 255, 255); stroke-opacity: 1; stroke-width: 2px;"/></g><g class="layer-between"><g class="shapelayer"/><g class="imagelayer"/></g><path class="xlines-below"/><path class="ylines-below"/><g class="overlines-below"/><g class="xaxislayer-below"/><g class="yaxislayer-below"/><g class="overaxes-below"/><g class="overplot"><g class="xy" transform="translate(80,100)" clip-path="url(#clip6fe838xyplot)"><g class="scatterlayer mlayer"><g class="trace scatter trace787338" style="stroke-miterlimit: 2;"><g class="fills"><g><path class="js-fill" d="M540,320L0,320L0,319.82L3.47,318.55L3.76,318.36L5.7,317.27L6,317.09L14.22,315.64L21.47,315.45L21.66,315.27L23.25,315.09L23.25,314.91L26.18,314.73L42.94,310.18L42.95,310L42.98,309.64L43.9,309.45L44.47,309.09L45.71,308.91L57.79,307.64L58.88,307.45L66.07,305.27L66.11,305.09L66.91,304.18L67.74,304L69.16,303.27L73.59,303.09L77.65,302.18L78.82,302L83.65,300.36L83.65,300.18L94.3,298.55L94.64,298.36L95.65,297.45L95.65,297.27L96.33,294.91L96.73,294.73L97.16,294.36L97.74,294.18L99.39,292.91L99.53,292.73L100.11,291.82L101.07,291.64L102.19,290.36L102.3,290.18L103.04,289.45L103.98,289.27L107.15,287.45L107.15,287.27L107.64,286.73L108.89,286.55L109.02,286.36L110.98,286.18L110.99,286L112.08,285.82L119.6,284.55L119.88,284.36L120.2,283.82L121.01,283.64L127.84,282L127.84,281.82L128.71,281.09L129.67,280.91L133.6,279.09L134.25,278.91L134.39,278L135.65,277.82L135.76,277.64L137.18,277.45L137.71,277.09L139.13,276.91L139.42,276.55L141.1,276.36L150.44,273.27L151.99,273.09L178.08,269.09L178.08,268.91L178.73,267.82L180.24,267.64L180.57,266.91L182.2,266.73L182.69,266.18L184.85,266L208.9,262.91L209.6,262.73L209.99,261.82L211.38,261.64L215.36,260.55L216.52,260.36L229.09,257.82L229.13,257.64L229.89,257.09L230.16,256.91L232.7,255.64L232.95,255.45L233.41,254.36L233.99,254.18L234.1,254L235.36,253.82L237.32,252.55L237.96,252.36L239.93,251.09L240.9,250.91L241.61,249.45L241.87,249.27L242.88,248.55L243.7,248.36L247.92,246.73L252.41,246.55L252.76,246.18L254.62,246L258.25,244.55L258.36,244.36L259.65,243.27L261.67,243.09L261.74,242.73L262.75,242.55L267.54,240.91L269.19,240.73L269.38,240.55L271.1,240.36L271.1,240.18L272.04,240L272.23,239.82L273.58,239.64L278.91,238.55L278.97,238.36L291.05,235.82L291.82,235.64L294.47,234.73L294.85,234.55L294.86,234.36L295.99,234.18L296.84,232.73L296.86,232.55L299.2,230.73L299.24,230.55L303.11,228.73L303.21,228.55L303.54,227.09L305.69,226.91L313.93,225.45L314.57,225.27L314.74,224.55L315.4,224.36L317.25,222.73L319.66,222.55L320.15,222.18L321.37,222L329.75,220.36L329.77,220.18L330.6,219.82L331.84,219.64L336.85,217.82L336.93,217.64L344.19,216.55L344.2,216.36L348.29,214.73L349.09,214.55L353.77,212.18L354.13,212L357.4,211.09L357.4,210.91L357.51,210.73L358.95,210.55L367.68,208.55L367.73,208.36L368.57,208L369.74,207.82L370.55,206.91L370.75,206.73L373.98,203.64L374.5,203.45L389.11,200L389.12,199.82L389.13,199.09L393.03,198.91L393.86,198.36L395.94,198.18L400.15,197.09L401.63,196.91L404.89,193.82L404.98,193.64L407.84,188.18L408.5,188L410.91,181.09L411.32,180.91L413.38,177.27L413.4,177.09L414.25,174.73L414.36,174.55L416.92,172.18L416.92,172L417.59,171.09L417.6,170.91L418.57,168.91L419.51,168.73L420.24,167.45L420.25,167.27L420.48,166.91L421.33,166.73L422.31,162.55L423.47,162.36L423.76,161.82L424.41,161.64L427.32,159.09L427.34,158.91L427.39,158.55L428.23,158.36L429.97,154.91L429.98,154.73L430.55,152.18L430.78,152L432.2,145.45L432.21,145.27L433.04,142.55L433.17,142.36L433.8,140.55L434.46,140.36L435.03,139.45L435.04,139.27L436.27,137.27L437.36,137.09L438.81,135.09L438.92,134.91L442.25,128.18L442.26,128L442.94,126.91L442.95,126.73L443.66,124.36L444.1,124.18L445.07,123.27L445.07,123.09L445.4,121.64L445.92,121.45L446.44,120.73L446.73,120.55L447.83,118.36L447.83,118.18L448.71,114.55L448.8,114.36L449.84,113.09L449.91,112.91L450.65,110.91L450.76,110.73L452.29,108.91L452.29,108.73L452.98,106.55L453.42,106.36L454.95,103.64L454.96,103.45L456.9,97.64L457.71,97.45L458.64,96.55L458.69,96.36L459.53,94L459.58,93.82L459.96,92.73L459.96,92.55L460.52,90L461.06,89.82L461.8,87.45L462.17,87.27L462.59,85.09L463.19,84.91L465.96,82.18L465.96,82L466.52,81.09L467.66,80.91L468.59,79.64L468.62,79.45L469.05,78.55L469.06,78.36L469.72,77.09L469.85,76.91L472.95,72.91L472.98,72.73L473.54,70.91L474.38,70.73L477.99,68.91L478,68.73L480.24,64.36L481.39,64.18L482.28,63.27L482.71,63.09L483.94,61.64L484.77,61.45L488.19,58.73L488.52,58.55L488.79,58L489.66,57.82L491.74,55.82L491.75,55.64L492.58,54.73L492.72,54.55L497.62,48.73L498.18,48.55L500.52,47.27L500.53,47.09L501.26,44.73L501.49,44.55L504.63,42.55L506.83,42.36L507.51,40.18L507.62,40L508.34,39.45L508.62,39.27L509.37,37.82L509.47,37.64L510.59,35.82L511.02,35.64L511.31,34.91L513.19,34.73L516.18,33.82L516.33,33.64L517.32,32.36L518.29,32.18L521.17,30.55L521.31,30.36L522.01,28.73L522.27,28.55L523.11,25.64L523.31,25.45L524.23,24.36L524.41,24.18L524.68,23.45L526.96,23.27L528.2,21.45L529.14,21.27L533.52,19.82L533.84,19.64L534.17,19.09L534.72,18.91L535.17,18.18L535.8,18L540,16" style="fill: rgb(44, 160, 44); fill-opacity: 0.5; stroke-width: 0;"/></g></g><g class="errorbars"/><g class="lines"><path class="js-line" d="M0,319.82L3.47,318.55L3.76,318.36L5.7,317.27L6,317.09L14.22,315.64L21.47,315.45L21.66,315.27L23.25,315.09L23.25,314.91L26.18,314.73L42.94,310.18L42.95,310L42.98,309.64L43.9,309.45L44.47,309.09L45.71,308.91L57.79,307.64L58.88,307.45L66.07,305.27L66.11,305.09L66.91,304.18L67.74,304L69.16,303.27L73.59,303.09L77.65,302.18L78.82,302L83.65,300.36L83.65,300.18L94.3,298.55L94.64,298.36L95.65,297.45L95.65,297.27L96.33,294.91L96.73,294.73L97.16,294.36L97.74,294.18L99.39,292.91L99.53,292.73L100.11,291.82L101.07,291.64L102.19,290.36L102.3,290.18L103.04,289.45L103.98,289.27L107.15,287.45L107.15,287.27L107.64,286.73L108.89,286.55L109.02,286.36L110.98,286.18L110.99,286L112.08,285.82L119.6,284.55L119.88,284.36L120.2,283.82L121.01,283.64L127.84,282L127.84,281.82L128.71,281.09L129.67,280.91L133.6,279.09L134.25,278.91L134.39,278L135.65,277.82L135.76,277.64L137.18,277.45L137.71,277.09L139.13,276.91L139.42,276.55L141.1,276.36L150.44,273.27L151.99,273.09L178.08,269.09L178.08,268.91L178.73,267.82L180.24,267.64L180.57,266.91L182.2,266.73L182.69,266.18L184.85,266L208.9,262.91L209.6,262.73L209.99,261.82L211.38,261.64L215.36,260.55L216.52,260.36L229.09,257.82L229.13,257.64L229.89,257.09L230.16,256.91L232.7,255.64L232.95,255.45L233.41,254.36L233.99,254.18L234.1,254L235.36,253.82L237.32,252.55L237.96,252.36L239.93,251.09L240.9,250.91L241.61,249.45L241.87,249.27L242.88,248.55L243.7,248.36L247.92,246.73L252.41,246.55L252.76,246.18L254.62,246L258.25,244.55L258.36,244.36L259.65,243.27L261.67,243.09L261.74,242.73L262.75,242.55L267.54,240.91L269.19,240.73L269.38,240.55L271.1,240.36L271.1,240.18L272.04,240L272.23,239.82L273.58,239.64L278.91,238.55L278.97,238.36L291.05,235.82L291.82,235.64L294.47,234.73L294.85,234.55L294.86,234.36L295.99,234.18L296.84,232.73L296.86,232.55L299.2,230.73L299.24,230.55L303.11,228.73L303.21,228.55L303.54,227.09L305.69,226.91L313.93,225.45L314.57,225.27L314.74,224.55L315.4,224.36L317.25,222.73L319.66,222.55L320.15,222.18L321.37,222L329.75,220.36L329.77,220.18L330.6,219.82L331.84,219.64L336.85,217.82L336.93,217.64L344.19,216.55L344.2,216.36L348.29,214.73L349.09,214.55L353.77,212.18L354.13,212L357.4,211.09L357.4,210.91L357.51,210.73L358.95,210.55L367.68,208.55L367.73,208.36L368.57,208L369.74,207.82L370.55,206.91L370.75,206.73L373.98,203.64L374.5,203.45L389.11,200L389.12,199.82L389.13,199.09L393.03,198.91L393.86,198.36L395.94,198.18L400.15,197.09L401.63,196.91L404.89,193.82L404.98,193.64L407.84,188.18L408.5,188L410.91,181.09L411.32,180.91L413.38,177.27L413.4,177.09L414.25,174.73L414.36,174.55L416.92,172.18L416.92,172L417.59,171.09L417.6,170.91L418.57,168.91L419.51,168.73L420.24,167.45L420.25,167.27L420.48,166.91L421.33,166.73L422.31,162.55L423.47,162.36L423.76,161.82L424.41,161.64L427.32,159.09L427.34,158.91L427.39,158.55L428.23,158.36L429.97,154.91L429.98,154.73L430.55,152.18L430.78,152L432.2,145.45L432.21,145.27L433.04,142.55L433.17,142.36L433.8,140.55L434.46,140.36L435.03,139.45L435.04,139.27L436.27,137.27L437.36,137.09L438.81,135.09L438.92,134.91L442.25,128.18L442.26,128L442.94,126.91L442.95,126.73L443.66,124.36L444.1,124.18L445.07,123.27L445.07,123.09L445.4,121.64L445.92,121.45L446.44,120.73L446.73,120.55L447.83,118.36L447.83,118.18L448.71,114.55L448.8,114.36L449.84,113.09L449.91,112.91L450.65,110.91L450.76,110.73L452.29,108.91L452.29,108.73L452.98,106.55L453.42,106.36L454.95,103.64L454.96,103.45L456.9,97.64L457.71,97.45L458.64,96.55L458.69,96.36L459.53,94L459.58,93.82L459.96,92.73L459.96,92.55L460.52,90L461.06,89.82L461.8,87.45L462.17,87.27L462.59,85.09L463.19,84.91L465.96,82.18L465.96,82L466.52,81.09L467.66,80.91L468.59,79.64L468.62,79.45L469.05,78.55L469.06,78.36L469.72,77.09L469.85,76.91L472.95,72.91L472.98,72.73L473.54,70.91L474.38,70.73L477.99,68.91L478,68.73L480.24,64.36L481.39,64.18L482.28,63.27L482.71,63.09L483.94,61.64L484.77,61.45L488.19,58.73L488.52,58.55L488.79,58L489.66,57.82L491.74,55.82L491.75,55.64L492.58,54.73L492.72,54.55L497.62,48.73L498.18,48.55L500.52,47.27L500.53,47.09L501.26,44.73L501.49,44.55L504.63,42.55L506.83,42.36L507.51,40.18L507.62,40L508.34,39.45L508.62,39.27L509.37,37.82L509.47,37.64L510.59,35.82L511.02,35.64L511.31,34.91L513.19,34.73L516.18,33.82L516.33,33.64L517.32,32.36L518.29,32.18L521.17,30.55L521.31,30.36L522.01,28.73L522.27,28.55L523.11,25.64L523.31,25.45L524.23,24.36L524.41,24.18L524.68,23.45L526.96,23.27L528.2,21.45L529.14,21.27L533.52,19.82L533.84,19.64L534.17,19.09L534.72,18.91L535.17,18.18L535.8,18L540,16" style="vector-effect: none; fill: none; stroke: rgb(44, 160, 44); stroke-opacity: 1; stroke-width: 2px; opacity: 1;"/></g><g class="points"/><g class="text"/></g></g></g></g><g class="zerolinelayer-above"/><path class="xlines-above crisp" d="M0,0" style="fill: none;"/><path class="ylines-above crisp" d="M0,0" style="fill: none;"/><g class="overlines-above"/><g class="xaxislayer-above"><g class="xtick"><text text-anchor="middle" x="0" y="439" transform="translate(96.65,0)" style="font-family: 'Open Sans'; font-size: 18px; fill: rgb(0, 0, 0); fill-opacity: 1; white-space: pre;">2016</text></g><g class="xtick"><text text-anchor="middle" x="0" y="439" style="font-family: 'Open Sans'; font-size: 18px; fill: rgb(0, 0, 0); fill-opacity: 1; white-space: pre;" transform="translate(198.57,0)">2018</text></g><g class="xtick"><text text-anchor="middle" x="0" y="439" style="font-family: 'Open Sans'; font-size: 18px; fill: rgb(0, 0, 0); fill-opacity: 1; white-space: pre;" transform="translate(300.35,0)">2020</text></g><g class="xtick"><text text-anchor="middle" x="0" y="439" style="font-family: 'Open Sans'; font-size: 18px; fill: rgb(0, 0, 0); fill-opacity: 1; white-space: pre;" transform="translate(402.27,0)">2022</text></g><g class="xtick"><text text-anchor="middle" x="0" y="439" style="font-family: 'Open Sans'; font-size: 18px; fill: rgb(0, 0, 0); fill-opacity: 1; white-space: pre;" transform="translate(504.05,0)">2024</text></g><g class="xtick"><text text-anchor="middle" x="0" y="439" style="font-family: 'Open Sans'; font-size: 18px; fill: rgb(0, 0, 0); fill-opacity: 1; white-space: pre;" transform="translate(605.97,0)">2026</text></g></g><g class="yaxislayer-above"><g class="ytick"><text text-anchor="end" x="79" y="6.3" transform="translate(0,420)" style="font-family: 'Open Sans'; font-size: 18px; fill: rgb(0, 0, 0); fill-opacity: 1; white-space: pre;">0</text></g><g class="ytick"><text text-anchor="end" x="79" y="6.3" style="font-family: 'Open Sans'; font-size: 18px; fill: rgb(0, 0, 0); fill-opacity: 1; white-space: pre;" transform="translate(0,383.64)">200</text></g><g class="ytick"><text text-anchor="end" x="79" y="6.3" style="font-family: 'Open Sans'; font-size: 18px; fill: rgb(0, 0, 0); fill-opacity: 1; white-space: pre;" transform="translate(0,347.27)">400</text></g><g class="ytick"><text text-anchor="end" x="79" y="6.3" style="font-family: 'Open Sans'; font-size: 18px; fill: rgb(0, 0, 0); fill-opacity: 1; white-space: pre;" transform="translate(0,310.90999999999997)">600</text></g><g class="ytick"><text text-anchor="end" x="79" y="6.3" style="font-family: 'Open Sans'; font-size: 18px; fill: rgb(0, 0, 0); fill-opacity: 1; white-space: pre;" transform="translate(0,274.55)">800</text></g><g class="ytick"><text text-anchor="end" x="79" y="6.3" style="font-family: 'Open Sans'; font-size: 18px; fill: rgb(0, 0, 0); fill-opacity: 1; white-space: pre;" transform="translate(0,238.18)">1000</text></g><g class="ytick"><text text-anchor="end" x="79" y="6.3" style="font-family: 'Open Sans'; font-size: 18px; fill: rgb(0, 0, 0); fill-opacity: 1; white-space: pre;" transform="translate(0,201.82)">1200</text></g><g class="ytick"><text text-anchor="end" x="79" y="6.3" style="font-family: 'Open Sans'; font-size: 18px; fill: rgb(0, 0, 0); fill-opacity: 1; white-space: pre;" transform="translate(0,165.45)">1400</text></g><g class="ytick"><text text-anchor="end" x="79" y="6.3" style="font-family: 'Open Sans'; font-size: 18px; fill: rgb(0, 0, 0); fill-opacity: 1; white-space: pre;" transform="translate(0,129.09)">1600</text></g></g><g class="overaxes-above"/></g></g><g class="polarlayer"/><g class="smithlayer"/><g class="ternarylayer"/><g class="geolayer"/><g class="funnelarealayer"/><g class="pielayer"/><g class="iciclelayer"/><g class="treemaplayer"/><g class="sunburstlayer"/><g class="glimages"/><defs id="topdefs-6fe838"><g class="clips"/></defs><g class="layer-above"><g class="imagelayer"/><g class="shapelayer"/></g><g class="infolayer"><g class="g-gtitle"><text class="gtitle" x="35" y="50" text-anchor="start" dy="0em" style="opacity: 1; font-family: 'Open Sans'; font-size: 25px; fill: rgb(0, 0, 0); fill-opacity: 1; white-space: pre;">MultiQC/MultiQC - Pull Requests Created Over Time</text></g><g class="g-xtitle"><text class="xtitle" x="350" y="472.9" text-anchor="middle" style="opacity: 1; font-family: 'Open Sans'; font-size: 22px; fill: rgb(0, 0, 0); fill-opacity: 1; white-space: pre;">Date</text></g><g class="g-ytitle"><text class="ytitle" transform="rotate(-90,20.799999999999997,260)" x="20.799999999999997" y="260" text-anchor="middle" style="opacity: 1; font-family: 'Open Sans'; font-size: 22px; fill: rgb(0, 0, 0); fill-opacity: 1; white-space: pre;">Cumulative PRs Created</text></g></g></svg>