<svg class="main-svg" xmlns="http://www.w3.org/2000/svg" xmlns:xlink="http://www.w3.org/1999/xlink" width="700" height="500" style="" viewBox="0 0 700 500"><rect x="0" y="0" width="700" height="500" style="fill: rgb(0, 0, 0); fill-opacity: 0;"/><defs id="defs-884bab"><g class="clips"><clipPath id="clip884babxyplot" class="plotclip"><rect width="540" height="320"/></clipPath><clipPath class="axesclip" id="clip884babx"><rect x="80" y="0" width="540" height="500"/></clipPath><clipPath class="axesclip" id="clip884baby"><rect x="0" y="100" width="700" height="320"/></clipPath><clipPath class="axesclip" id="clip884babxy"><rect x="80" y="100" width="540" height="320"/></clipPath></g><g class="gradients"/><g class="patterns"/></defs><g class="bglayer"><rect class="bg" x="80" y="100" width="540" height="320" style="fill: rgb(0, 0, 0); fill-opacity: 0; stroke-width: 0;"/></g><g class="layer-below"><g class="imagelayer"/><g class="shapelayer"/></g><g class="cartesianlayer"><g class="subplot xy"><g class="layer-subplot"><g class="shapelayer"/><g class="imagelayer"/></g><g class="minor-gridlayer"><g class="x"/><g class="y"/></g><g class="gridlayer"><g class="x"><path class="xgrid crisp" transform="translate(96.62,0)" d="M0,100v320" style="stroke: rgb(255, 255, 255); stroke-opacity: 1; stroke-width: 1px;"/><path class="xgrid crisp" transform="translate(198.41,0)" d="M0,100v320" style="stroke: rgb(255, 255, 255); stroke-opacity: 1; stroke-width: 1px;"/><path class="xgrid crisp" transform="translate(300.05,0)" d="M0,100v320" style="stroke: rgb(255, 255, 255); stroke-opacity: 1; stroke-width: 1px;"/><path class="xgrid crisp" transform="translate(401.84,0)" d="M0,100v320" style="stroke: rgb(255, 255, 255); stroke-opacity: 1; stroke-width: 1px;"/><path class="xgrid crisp" transform="translate(503.48,0)" d="M0,100v320" style="stroke: rgb(255, 255, 255); stroke-opacity: 1; stroke-width: 1px;"/><path class="xgrid crisp" transform="translate(605.27,0)" d="M0,100v320" style="stroke: rgb(255, 255, 255); stroke-opacity: 1; stroke-width: 1px;"/></g><g class="y"><path class="ygrid crisp" transform="translate(0,366.19)" d="M80,0h540" style="stroke: rgb(255, 255, 255); stroke-opacity: 1; stroke-width: 1px;"/><path class="ygrid crisp" transform="translate(0,312.39)" d="M80,0h540" style="stroke: rgb(255, 255, 255); stroke-opacity: 1; stroke-width: 1px;"/><path class="ygrid crisp" transform="translate(0,258.58000000000004)" d="M80,0h540" style="stroke: rgb(255, 255, 255); stroke-opacity: 1; stroke-width: 1px;"/><path class="ygrid crisp" transform="translate(0,204.78)" d="M80,0h540" style="stroke: rgb(255, 255, 255); stroke-opacity: 1; stroke-width: 1px;"/><path class="ygrid crisp" transform="translate(0,150.97)" d="M80,0h540" style="stroke: rgb(255, 255, 255); stroke-opacity: 1; stroke-width: 1px;"/></g></g><g class="zerolinelayer"><path class="yzl zl crisp" transform="translate(0,420)" d="M80,0h540" style="stroke: rgb(255, 255, 255); stroke-opacity: 1; stroke-width: 2px;"/></g><g class="layer-between"><g class="shapelayer"/><g class="imagelayer"/></g><path class="xlines-below"/><path class="ylines-below"/><g class="overlines-below"/><g class="xaxislayer-below"/><g class="yaxislayer-below"/><g class="overaxes-below"/><g class="overplot"><g class="xy" transform="translate(80,100)" clip-path="url(#clip884babxyplot)"><g class="scatterlayer mlayer"><g class="trace scatter trace0efd88" style="stroke-miterlimit: 2;"><g class="fills"><g><path class="js-fill" d="M540,320L0,320L0,317.31L0.1,320L1.01,317.31L1.68,320L1.79,317.31L1.79,320L3.02,317.31L3.76,320L4.6,317.31L4.6,320L4.7,320L5.42,317.31L5.42,320L6,320L6.82,317.31L6.82,320L7.39,320L8.89,317.31L8.89,320L9.52,317.31L9.73,320L11.41,317.31L11.41,320L14.2,317.31L14.2,320L21.44,317.31L21.44,320L21.64,317.31L21.64,320L23.22,317.31L23.22,314.62L23.36,317.31L24.48,320L26.15,317.31L26.15,320L27.44,314.62L27.44,317.31L27.44,320L30.22,317.31L30.22,320L30.36,320L31.58,317.31L31.58,320L32.16,320L33.04,317.31L33.04,320L33.8,317.31L33.8,320L34.54,317.31L34.62,320L37.17,314.62L37.6,317.31L37.72,314.62L37.72,317.31L38.99,320L39.7,317.31L39.7,320L41.37,317.31L41.37,320L42.44,317.31L42.44,320L42.92,309.24L43.03,311.93L43.55,314.62L43.97,317.31L44.41,314.62L44.42,317.31L45.65,314.62L49.43,311.93L49.43,314.62L49.71,317.31L50.5,314.62L51.38,320L52.77,317.31L53.16,320L56.24,317.31L56.24,320L56.24,317.31L57.71,314.62L58.03,317.31L58.8,314.62L59.56,311.93L59.59,314.62L59.59,311.93L60.15,320L61.96,317.31L62.25,320L62.92,317.31L63.07,314.62L64.02,317.31L64.19,311.93L64.32,314.62L65.13,317.31L65.44,314.62L65.44,317.31L65.98,314.62L66.05,309.24L66.16,320L66.24,320L66.82,317.31L67.65,314.62L67.65,317.31L68.37,311.93L68.38,314.62L69.06,311.93L73.49,309.24L73.96,306.55L75.61,320L76.59,317.31L76.59,320L77.54,317.31L78.72,314.62L78.77,317.31L79.82,311.93L80.22,309.24L80.72,306.55L80.72,309.24L80.74,311.93L81.86,306.55L81.87,309.24L82.69,306.55L82.69,309.24L82.97,311.93L83.54,309.24L83.54,311.93L83.54,309.24L85.32,311.93L85.49,309.24L85.49,311.93L86.37,309.24L86.6,311.93L87.31,309.24L87.76,306.55L88.52,309.24L89.22,306.55L89.51,309.24L91.73,306.55L91.73,309.24L92.31,306.55L92.33,309.24L93.68,311.93L94.18,309.24L94.38,311.93L94.52,309.24L94.52,311.93L95.51,309.24L95.52,293.1L96.21,306.55L96.48,309.24L96.49,311.93L96.64,306.55L97.03,306.55L97.61,303.86L98.3,306.55L98.48,303.86L98.99,298.48L99.15,303.86L99.24,306.55L99.86,295.79L99.98,301.17L100.92,303.86L101.35,295.79L101.35,295.79L101.87,298.48L102.9,285.03L103.84,282.34L104.84,285.03L105.12,282.34L105.83,287.72L105.83,287.72L105.95,285.03L106.24,295.79L106.37,293.1L107.01,290.41L107.5,279.65L107.5,282.34L107.88,285.03L107.92,287.72L108.75,285.03L108.87,282.34L108.89,285.03L110.15,287.72L110.85,298.48L111.93,295.79L111.93,298.48L114.04,295.79L114.04,293.1L114.04,298.48L115.98,295.79L116,298.48L116,295.79L117.04,298.48L117.09,295.79L118.9,293.1L119.72,298.48L119.73,295.79L119.88,298.48L120.04,295.79L120.04,298.48L120.85,295.79L121.17,298.48L121.86,295.79L121.89,298.48L123.48,295.79L123.51,298.48L125.32,295.79L125.42,298.48L125.8,295.79L126.28,293.1L126.4,295.79L127.27,293.1L127.27,295.79L127.67,285.03L127.81,285.03L128.2,282.34L128.53,295.79L128.54,295.79L129.5,293.1L129.6,298.48L129.78,298.48L130.47,295.79L131.43,293.1L131.54,290.41L132.1,293.1L132.28,290.41L132.38,287.72L133.09,282.34L133.11,285.03L133.42,282.34L133.63,285.03L134.07,282.34L134.08,279.65L134.08,271.58L134.23,287.72L135.47,285.03L135.58,282.34L135.6,285.03L137,282.34L137.75,293.1L138.94,290.41L139.34,293.1L140.91,290.41L141.97,287.72L141.97,290.41L143.26,282.34L143.27,285.03L143.52,287.72L143.54,290.41L143.93,285.03L143.94,287.72L144.26,285.03L144.26,287.72L145.23,290.41L145.4,295.79L146.09,293.1L146.18,290.41L147.75,287.72L148.28,279.65L148.29,285.03L148.29,287.72L148.34,293.1L150.1,290.41L150.2,293.1L150.24,290.41L151.79,287.72L151.8,290.41L153.14,287.72L153.14,290.41L153.55,287.72L153.99,285.03L154.67,282.34L154.7,285.03L157.49,287.72L160.47,282.34L161.19,279.65L161.95,282.34L162.64,279.65L162.65,282.34L165.26,279.65L165.71,282.34L166.31,279.65L167.5,276.96L167.74,279.65L167.74,276.96L167.78,298.48L167.78,295.79L170.12,293.1L170.14,295.79L172.42,298.48L173.5,295.79L173.5,298.48L174.11,295.79L174.14,298.48L176.31,295.79L176.46,293.1L177.82,295.79L177.83,298.48L178.4,276.96L178.52,287.72L180,285.03L180.33,276.96L181.95,274.27L182.44,271.58L182.46,274.27L184.6,271.58L185.08,274.27L186.38,271.58L186.67,274.27L186.97,271.58L189.1,268.88L192.02,266.19L192.13,268.88L193.01,266.19L193.69,268.88L193.73,263.5L193.95,266.19L194.81,268.88L195.06,279.65L195.87,282.34L195.94,285.03L196.04,279.65L199.4,276.96L199.95,279.65L200.62,276.96L200.77,274.27L202.87,271.58L205.76,268.88L207.31,266.19L207.33,263.5L208.62,260.81L209.39,263.5L209.4,260.81L209.7,279.65L209.71,276.96L210.67,279.65L211.08,282.34L211.09,279.65L212.22,282.34L212.67,287.72L213.03,285.03L213.05,287.72L213.57,279.65L213.61,285.03L214.16,287.72L214.19,290.41L215.08,287.72L216.23,285.03L216.24,287.72L218.18,282.34L218.46,279.65L220.77,276.96L221.87,279.65L223.42,276.96L223.89,274.27L226.15,268.88L226.16,271.58L226.99,263.5L228.78,260.81L229.06,252.74L229.58,250.05L230.63,244.67L230.67,247.36L232.87,228.53L232.95,231.22L232.95,233.91L233.1,225.84L233.68,228.53L233.79,225.84L235.05,223.15L235.2,220.46L235.46,231.22L235.46,233.91L235.63,247.36L235.9,241.98L236.39,239.29L237.41,285.03L237.64,282.34L237.82,279.65L237.83,276.96L238.42,285.03L238.51,282.34L238.69,279.65L239.6,287.72L239.61,285.03L239.61,282.34L240.34,293.1L240.58,290.41L240.58,293.1L240.77,282.34L241.31,290.41L241.55,287.72L241.69,290.41L241.84,287.72L242.52,285.03L242.56,282.34L243.35,285.03L243.84,279.65L244.46,276.96L246.15,268.88L246.15,271.58L247.59,263.5L248.51,266.19L252.08,263.5L252.17,260.81L252.42,258.12L252.72,260.81L254.28,258.12L255.2,252.74L255.54,250.05L255.92,247.36L257.48,244.67L257.91,236.6L258.11,244.67L258.11,247.36L259.3,233.91L261.32,231.22L261.39,225.84L262.4,223.15L264,217.77L264.04,220.46L264.05,239.29L264.67,228.53L264.95,225.84L264.95,228.53L265.08,225.84L267.18,223.15L268.83,220.46L269.02,217.77L270.74,215.08L270.74,217.77L270.74,215.08L270.74,217.77L271.68,215.08L271.87,212.39L272.53,215.08L273.46,225.84L273.66,228.53L275.17,225.84L275.68,228.53L277.03,223.15L277.72,220.46L277.72,223.15L278.5,220.46L278.6,215.08L279.73,217.77L280.28,250.05L282.78,247.36L283.26,250.05L283.64,247.36L283.66,250.05L286.42,247.36L287.1,252.74L287.14,250.05L287.24,247.36L287.5,250.05L288.17,252.74L288.34,247.36L288.34,250.05L290.65,247.36L290.66,244.67L291.43,241.98L293.41,239.29L293.92,236.6L294.08,228.53L294.12,241.98L294.47,236.6L294.91,239.29L295.38,244.67L295.6,241.98L295.85,239.29L296.49,271.58L296.63,274.27L297.81,263.5L298.42,260.81L299.4,247.36L300.34,244.67L301.32,239.29L301.38,236.6L302.8,225.84L302.82,223.15L303.13,204.32L305.28,201.63L307.15,198.94L307.15,196.25L310.47,198.94L310.54,196.25L312.18,190.87L312.75,188.18L314.15,180.11L314.15,177.42L314.29,172.04L314.67,228.53L314.98,225.84L315.41,223.15L315.43,231.22L315.67,228.53L315.82,225.84L316.82,212.39L316.94,215.08L319.24,212.39L319.72,209.7L320.01,212.39L320.94,209.7L321.33,212.39L322.46,209.7L323.88,212.39L323.91,220.46L324.55,217.77L325.24,220.46L325.67,236.6L326.08,239.29L326.21,236.6L326.51,244.67L326.71,241.98L327.08,244.67L327.63,241.98L328.44,233.91L329.31,231.22L329.53,225.84L330.16,223.15L330.99,228.53L331.39,225.84L331.39,228.53L332.09,225.84L332.36,228.53L332.36,233.91L332.91,231.22L334.22,228.53L334.42,223.15L334.87,233.91L335.42,231.22L336.48,220.46L336.5,223.15L339.51,220.46L339.89,223.15L341.23,220.46L341.67,217.77L342.41,223.15L342.69,220.46L342.77,225.84L343.51,223.15L344.59,215.08L344.59,217.77L345.02,212.39L345.58,209.7L346,215.08L346.02,209.7L346.54,212.39L346.54,209.7L347.12,212.39L347.82,209.7L347.96,212.39L348.63,209.7L349.76,204.32L349.77,201.63L349.82,207.01L350.58,204.32L351.43,198.94L352.52,196.25L353.66,180.11L353.77,182.8L355.45,180.11L355.73,177.42L356.77,174.73L356.77,177.42L356.92,193.56L356.92,196.25L356.92,198.94L356.92,193.56L357.04,198.94L358.47,196.25L359.39,193.56L359.39,196.25L361.19,193.56L361.2,196.25L361.61,193.56L363.98,190.87L363.98,193.56L364.64,193.56L365.23,190.87L365.97,180.11L366.03,182.8L367.19,180.11L367.29,174.73L367.72,190.87L368.08,188.18L368.29,190.87L369.24,188.18L370.05,177.42L370.26,174.73L370.83,188.18L370.93,180.11L371.12,177.42L371.82,193.56L372.05,190.87L372.87,217.77L372.94,215.08L373.64,231.22L374,228.53L374.78,231.22L377.17,228.53L377.77,220.46L377.8,223.15L378.03,225.84L381.51,223.15L381.53,225.84L382.23,220.46L383.11,223.15L384.21,220.46L385.11,217.77L385.11,220.46L386.92,217.77L387.06,212.39L388.06,215.08L388.6,207.01L388.6,204.32L388.61,196.25L392.28,198.94L393.34,188.18L395.41,185.49L395.89,180.11L395.89,182.8L395.89,185.49L397.94,180.11L398.38,177.42L401.09,172.04L401.28,169.35L401.84,166.65L401.84,169.35L402.01,172.04L402.59,185.49L402.72,182.8L403.31,180.11L403.36,182.8L403.67,169.35L404.07,166.65L404.25,158.58L404.44,169.35L404.45,172.04L404.45,174.73L405.2,161.27L405.33,158.58L406.07,177.42L406.11,174.73L406.41,172.04L406.43,182.8L406.86,174.73L406.89,177.42L406.99,182.8L407.3,177.42L407.96,174.73L408.02,172.04L408.44,188.18L408.44,185.49L408.84,182.8L409.33,163.96L409.52,193.56L409.82,190.87L410.25,174.73L410.39,188.18L410.39,190.87L410.44,193.56L411,185.49L411.04,188.18L411.63,185.49L411.76,193.56L412.32,180.11L412.4,177.42L412.45,180.11L412.82,161.27L412.82,161.27L412.85,158.58L412.86,153.2L412.99,198.94L413.3,188.18L413.7,185.49L414.11,180.11L414.34,188.18L414.38,185.49L414.77,182.8L415.41,190.87L415.75,193.56L416.04,196.25L416.37,185.49L416.72,188.18L416.87,201.63L417.33,198.94L417.72,196.25L418.37,209.7L418.95,207.01L419.29,209.7L419.67,198.94L419.68,196.25L419.91,188.18L420.62,190.87L420.76,204.32L421.06,185.49L421.22,190.87L421.38,193.56L421.6,190.87L421.76,198.94L422.9,196.25L423.03,201.63L423.19,196.25L423.85,193.56L424,196.25L424.18,190.87L424.51,188.18L424.54,196.25L424.93,190.87L425.62,188.18L426.12,185.49L426.12,188.18L426.12,190.87L426.64,185.49L426.64,182.8L426.65,180.11L426.69,190.87L426.82,182.8L427.66,180.11L427.88,172.04L428.08,185.49L428.21,188.18L428.6,207.01L428.88,201.63L428.97,204.32L429.39,196.25L429.4,209.7L429.54,207.01L429.8,204.32L429.85,207.01L430.57,198.94L430.68,196.25L431.26,215.08L431.37,215.08L431.52,212.39L431.62,196.25L431.64,215.08L432.32,198.94L432.32,201.63L432.51,204.32L432.93,190.87L433.2,198.94L433.2,201.63L433.72,217.77L433.88,215.08L434.29,217.77L434.72,204.32L435.01,207.01L435.25,204.32L435.25,207.01L435.69,201.63L435.69,201.63L436.78,198.94L437.37,193.56L437.37,196.25L438.16,193.56L438.2,190.87L438.23,212.39L438.63,209.7L439.16,212.39L439.27,215.08L439.43,201.63L439.44,198.94L439.84,193.56L439.88,198.94L440.09,201.63L440.11,198.94L440.82,217.77L440.82,215.08L441.11,217.77L441.42,209.7L441.69,215.08L441.99,217.77L442.35,220.46L442.67,209.7L442.67,212.39L443.06,209.7L444.13,201.63L444.46,204.32L444.48,201.63L444.61,212.39L445.04,212.39L445.32,209.7L445.34,212.39L445.6,207.01L445.84,212.39L446.14,209.7L446.44,220.46L446.69,215.08L447,217.77L447.65,212.39L447.65,215.08L447.89,212.39L448.06,204.32L448.07,215.08L448.24,209.7L448.94,212.39L448.94,209.7L449.47,220.46L449.87,217.77L450.16,215.08L450.17,220.46L450.44,217.77L450.73,215.08L451.39,212.39L451.39,215.08L451.55,217.77L451.56,215.08L451.7,228.53L452.23,225.84L452.29,223.15L452.37,220.46L452.94,228.53L452.96,225.84L453.07,228.53L453.76,215.08L453.77,225.84L453.77,228.53L453.77,225.84L453.91,231.22L454.48,228.53L454.73,225.84L454.73,231.22L455.47,228.53L455.58,231.22L455.6,236.6L456.29,231.22L457.1,228.53L457.23,231.22L457.87,228.53L458.02,223.15L458.07,236.6L458.1,236.6L458.11,239.29L458.79,228.53L458.8,236.6L458.8,239.29L459.48,233.91L459.51,236.6L459.59,239.29L459.78,231.22L459.91,233.91L460.45,231.22L460.45,233.91L461.17,223.15L461.18,225.84L461.44,228.53L461.76,233.91L461.97,225.84L462.57,223.15L462.84,228.53L462.86,225.84L463.79,223.15L463.85,225.84L464.38,220.46L464.53,220.46L465.04,217.77L465.48,212.39L465.76,217.77L465.88,215.08L465.89,212.39L466.79,215.08L467.4,212.39L467.69,223.15L467.73,220.46L468.42,228.53L468.66,225.84L468.67,223.15L468.67,225.84L469.38,212.39L469.39,223.15L469.43,220.46L470.33,217.77L470.33,220.46L470.89,215.08L470.9,212.39L470.92,220.46L471.65,220.46L471.66,223.15L471.73,231.22L472.36,225.84L472.42,228.53L472.46,223.15L472.99,239.29L473.74,236.6L474.13,239.29L474.16,236.6L474.8,233.91L475.34,239.29L476.1,236.6L476.53,231.22L476.93,233.91L477.01,236.6L477.36,231.22L477.42,236.6L477.44,239.29L478.19,233.91L478.19,236.6L478.28,233.91L478.61,228.53L478.61,231.22L479.28,233.91L479.41,228.53L479.89,233.91L480.74,231.22L481.59,228.53L481.59,231.22L481.59,228.53L481.63,233.91L482.18,233.91L483.04,231.22L483.15,225.84L483.16,233.91L483.3,228.53L484.12,231.22L484.7,220.46L485.02,217.77L485.52,220.46L485.7,217.77L485.7,215.08L486.33,204.32L486.33,220.46L486.43,217.77L486.67,215.08L486.95,212.39L486.95,217.77L486.95,220.46L487.53,217.77L487.77,220.46L487.88,217.77L488.19,225.84L488.83,228.53L489.3,223.15L489.42,228.53L489.42,231.22L489.42,228.53L489.8,236.6L490.09,236.6L490.24,233.91L490.84,231.22L490.93,233.91L490.95,236.6L491.14,228.53L491.28,231.22L491.92,228.53L492.75,236.6L492.79,233.91L493.03,236.6L493.45,231.22L493.71,233.91L494.04,225.84L494.13,231.22L494.89,228.53L495.26,233.91L495.69,220.46L496.23,217.77L496.38,231.22L496.96,223.15L497.51,220.46L498.26,215.08L498.66,217.77L498.66,220.46L499.6,217.77L499.85,223.15L500.29,212.39L500.33,220.46L500.42,217.77L500.82,220.46L501.12,217.77L502.5,215.08L503.65,204.32L503.76,207.01L503.76,209.7L503.76,212.39L503.92,204.32L503.96,204.32L506.14,207.01L506.53,201.63L506.56,220.46L506.83,220.46L506.84,223.15L507.66,215.08L507.67,217.77L507.94,220.46L508.64,204.32L508.69,207.01L508.78,209.7L508.89,207.01L509.34,215.08L509.49,207.01L509.91,204.32L510.43,198.94L510.44,201.63L510.46,204.32L510.62,198.94L510.62,204.32L512.5,201.63L512.5,204.32L514.26,201.63L515.64,190.87L515.79,188.18L515.85,182.8L515.85,190.87L516.3,188.18L516.63,185.49L518.13,180.11L518.37,177.42L518.37,180.11L518.85,172.04L519.98,169.35L520.63,158.58L520.63,155.89L520.63,158.58L521.21,142.44L521.31,142.44L521.57,139.75L521.57,142.44L522.02,128.99L522.3,128.99L522.41,126.3L522.41,128.99L523.15,120.92L523.23,123.61L523.98,110.16L526.25,107.47L527.49,88.64L528.43,85.95L530.1,80.57L531.89,77.88L532.48,67.12L532.81,64.42L534.04,50.97L534.2,48.28L535.36,42.9L535.86,40.21L537.36,26.76L538.6,24.07L539.28,18.69L540,16" style="fill: rgb(44, 160, 44); fill-opacity: 0.5; stroke-width: 0;"/></g></g><g class="errorbars"/><g class="lines"><path class="js-line" d="M0,317.31L0.1,320L1.01,317.31L1.68,320L1.79,317.31L1.79,320L3.02,317.31L3.76,320L4.6,317.31L4.6,320L4.7,320L5.42,317.31L5.42,320L6,320L6.82,317.31L6.82,320L7.39,320L8.89,317.31L8.89,320L9.52,317.31L9.73,320L11.41,317.31L11.41,320L14.2,317.31L14.2,320L21.44,317.31L21.44,320L21.64,317.31L21.64,320L23.22,317.31L23.22,314.62L23.36,317.31L24.48,320L26.15,317.31L26.15,320L27.44,314.62L27.44,317.31L27.44,320L30.22,317.31L30.22,320L30.36,320L31.58,317.31L31.58,320L32.16,320L33.04,317.31L33.04,320L33.8,317.31L33.8,320L34.54,317.31L34.62,320L37.17,314.62L37.6,317.31L37.72,314.62L37.72,317.31L38.99,320L39.7,317.31L39.7,320L41.37,317.31L41.37,320L42.44,317.31L42.44,320L42.92,309.24L43.03,311.93L43.55,314.62L43.97,317.31L44.41,314.62L44.42,317.31L45.65,314.62L49.43,311.93L49.43,314.62L49.71,317.31L50.5,314.62L51.38,320L52.77,317.31L53.16,320L56.24,317.31L56.24,320L56.24,317.31L57.71,314.62L58.03,317.31L58.8,314.62L59.56,311.93L59.59,314.62L59.59,311.93L60.15,320L61.96,317.31L62.25,320L62.92,317.31L63.07,314.62L64.02,317.31L64.19,311.93L64.32,314.62L65.13,317.31L65.44,314.62L65.44,317.31L65.98,314.62L66.05,309.24L66.16,320L66.24,320L66.82,317.31L67.65,314.62L67.65,317.31L68.37,311.93L68.38,314.62L69.06,311.93L73.49,309.24L73.96,306.55L75.61,320L76.59,317.31L76.59,320L77.54,317.31L78.72,314.62L78.77,317.31L79.82,311.93L80.22,309.24L80.72,306.55L80.72,309.24L80.74,311.93L81.86,306.55L81.87,309.24L82.69,306.55L82.69,309.24L82.97,311.93L83.54,309.24L83.54,311.93L83.54,309.24L85.32,311.93L85.49,309.24L85.49,311.93L86.37,309.24L86.6,311.93L87.31,309.24L87.76,306.55L88.52,309.24L89.22,306.55L89.51,309.24L91.73,306.55L91.73,309.24L92.31,306.55L92.33,309.24L93.68,311.93L94.18,309.24L94.38,311.93L94.52,309.24L94.52,311.93L95.51,309.24L95.52,293.1L96.21,306.55L96.48,309.24L96.49,311.93L96.64,306.55L97.03,306.55L97.61,303.86L98.3,306.55L98.48,303.86L98.99,298.48L99.15,303.86L99.24,306.55L99.86,295.79L99.98,301.17L100.92,303.86L101.35,295.79L101.35,295.79L101.87,298.48L102.9,285.03L103.84,282.34L104.84,285.03L105.12,282.34L105.83,287.72L105.83,287.72L105.95,285.03L106.24,295.79L106.37,293.1L107.01,290.41L107.5,279.65L107.5,282.34L107.88,285.03L107.92,287.72L108.75,285.03L108.87,282.34L108.89,285.03L110.15,287.72L110.85,298.48L111.93,295.79L111.93,298.48L114.04,295.79L114.04,293.1L114.04,298.48L115.98,295.79L116,298.48L116,295.79L117.04,298.48L117.09,295.79L118.9,293.1L119.72,298.48L119.73,295.79L119.88,298.48L120.04,295.79L120.04,298.48L120.85,295.79L121.17,298.48L121.86,295.79L121.89,298.48L123.48,295.79L123.51,298.48L125.32,295.79L125.42,298.48L125.8,295.79L126.28,293.1L126.4,295.79L127.27,293.1L127.27,295.79L127.67,285.03L127.81,285.03L128.2,282.34L128.53,295.79L128.54,295.79L129.5,293.1L129.6,298.48L129.78,298.48L130.47,295.79L131.43,293.1L131.54,290.41L132.1,293.1L132.28,290.41L132.38,287.72L133.09,282.34L133.11,285.03L133.42,282.34L133.63,285.03L134.07,282.34L134.08,279.65L134.08,271.58L134.23,287.72L135.47,285.03L135.58,282.34L135.6,285.03L137,282.34L137.75,293.1L138.94,290.41L139.34,293.1L140.91,290.41L141.97,287.72L141.97,290.41L143.26,282.34L143.27,285.03L143.52,287.72L143.54,290.41L143.93,285.03L143.94,287.72L144.26,285.03L144.26,287.72L145.23,290.41L145.4,295.79L146.09,293.1L146.18,290.41L147.75,287.72L148.28,279.65L148.29,285.03L148.29,287.72L148.34,293.1L150.1,290.41L150.2,293.1L150.24,290.41L151.79,287.72L151.8,290.41L153.14,287.72L153.14,290.41L153.55,287.72L153.99,285.03L154.67,282.34L154.7,285.03L157.49,287.72L160.47,282.34L161.19,279.65L161.95,282.34L162.64,279.65L162.65,282.34L165.26,279.65L165.71,282.34L166.31,279.65L167.5,276.96L167.74,279.65L167.74,276.96L167.78,298.48L167.78,295.79L170.12,293.1L170.14,295.79L172.42,298.48L173.5,295.79L173.5,298.48L174.11,295.79L174.14,298.48L176.31,295.79L176.46,293.1L177.82,295.79L177.83,298.48L178.4,276.96L178.52,287.72L180,285.03L180.33,276.96L181.95,274.27L182.44,271.58L182.46,274.27L184.6,271.58L185.08,274.27L186.38,271.58L186.67,274.27L186.97,271.58L189.1,268.88L192.02,266.19L192.13,268.88L193.01,266.19L193.69,268.88L193.73,263.5L193.95,266.19L194.81,268.88L195.06,279.65L195.87,282.34L195.94,285.03L196.04,279.65L199.4,276.96L199.95,279.65L200.62,276.96L200.77,274.27L202.87,271.58L205.76,268.88L207.31,266.19L207.33,263.5L208.62,260.81L209.39,263.5L209.4,260.81L209.7,279.65L209.71,276.96L210.67,279.65L211.08,282.34L211.09,279.65L212.22,282.34L212.67,287.72L213.03,285.03L213.05,287.72L213.57,279.65L213.61,285.03L214.16,287.72L214.19,290.41L215.08,287.72L216.23,285.03L216.24,287.72L218.18,282.34L218.46,279.65L220.77,276.96L221.87,279.65L223.42,276.96L223.89,274.27L226.15,268.88L226.16,271.58L226.99,263.5L228.78,260.81L229.06,252.74L229.58,250.05L230.63,244.67L230.67,247.36L232.87,228.53L232.95,231.22L232.95,233.91L233.1,225.84L233.68,228.53L233.79,225.84L235.05,223.15L235.2,220.46L235.46,231.22L235.46,233.91L235.63,247.36L235.9,241.98L236.39,239.29L237.41,285.03L237.64,282.34L237.82,279.65L237.83,276.96L238.42,285.03L238.51,282.34L238.69,279.65L239.6,287.72L239.61,285.03L239.61,282.34L240.34,293.1L240.58,290.41L240.58,293.1L240.77,282.34L241.31,290.41L241.55,287.72L241.69,290.41L241.84,287.72L242.52,285.03L242.56,282.34L243.35,285.03L243.84,279.65L244.46,276.96L246.15,268.88L246.15,271.58L247.59,263.5L248.51,266.19L252.08,263.5L252.17,260.81L252.42,258.12L252.72,260.81L254.28,258.12L255.2,252.74L255.54,250.05L255.92,247.36L257.48,244.67L257.91,236.6L258.11,244.67L258.11,247.36L259.3,233.91L261.32,231.22L261.39,225.84L262.4,223.15L264,217.77L264.04,220.46L264.05,239.29L264.67,228.53L264.95,225.84L264.95,228.53L265.08,225.84L267.18,223.15L268.83,220.46L269.02,217.77L270.74,215.08L270.74,217.77L270.74,215.08L270.74,217.77L271.68,215.08L271.87,212.39L272.53,215.08L273.46,225.84L273.66,228.53L275.17,225.84L275.68,228.53L277.03,223.15L277.72,220.46L277.72,223.15L278.5,220.46L278.6,215.08L279.73,217.77L280.28,250.05L282.78,247.36L283.26,250.05L283.64,247.36L283.66,250.05L286.42,247.36L287.1,252.74L287.14,250.05L287.24,247.36L287.5,250.05L288.17,252.74L288.34,247.36L288.34,250.05L290.65,247.36L290.66,244.67L291.43,241.98L293.41,239.29L293.92,236.6L294.08,228.53L294.12,241.98L294.47,236.6L294.91,239.29L295.38,244.67L295.6,241.98L295.85,239.29L296.49,271.58L296.63,274.27L297.81,263.5L298.42,260.81L299.4,247.36L300.34,244.67L301.32,239.29L301.38,236.6L302.8,225.84L302.82,223.15L303.13,204.32L305.28,201.63L307.15,198.94L307.15,196.25L310.47,198.94L310.54,196.25L312.18,190.87L312.75,188.18L314.15,180.11L314.15,177.42L314.29,172.04L314.67,228.53L314.98,225.84L315.41,223.15L315.43,231.22L315.67,228.53L315.82,225.84L316.82,212.39L316.94,215.08L319.24,212.39L319.72,209.7L320.01,212.39L320.94,209.7L321.33,212.39L322.46,209.7L323.88,212.39L323.91,220.46L324.55,217.77L325.24,220.46L325.67,236.6L326.08,239.29L326.21,236.6L326.51,244.67L326.71,241.98L327.08,244.67L327.63,241.98L328.44,233.91L329.31,231.22L329.53,225.84L330.16,223.15L330.99,228.53L331.39,225.84L331.39,228.53L332.09,225.84L332.36,228.53L332.36,233.91L332.91,231.22L334.22,228.53L334.42,223.15L334.87,233.91L335.42,231.22L336.48,220.46L336.5,223.15L339.51,220.46L339.89,223.15L341.23,220.46L341.67,217.77L342.41,223.15L342.69,220.46L342.77,225.84L343.51,223.15L344.59,215.08L344.59,217.77L345.02,212.39L345.58,209.7L346,215.08L346.02,209.7L346.54,212.39L346.54,209.7L347.12,212.39L347.82,209.7L347.96,212.39L348.63,209.7L349.76,204.32L349.77,201.63L349.82,207.01L350.58,204.32L351.43,198.94L352.52,196.25L353.66,180.11L353.77,182.8L355.45,180.11L355.73,177.42L356.77,174.73L356.77,177.42L356.92,193.56L356.92,196.25L356.92,198.94L356.92,193.56L357.04,198.94L358.47,196.25L359.39,193.56L359.39,196.25L361.19,193.56L361.2,196.25L361.61,193.56L363.98,190.87L363.98,193.56L364.64,193.56L365.23,190.87L365.97,180.11L366.03,182.8L367.19,180.11L367.29,174.73L367.72,190.87L368.08,188.18L368.29,190.87L369.24,188.18L370.05,177.42L370.26,174.73L370.83,188.18L370.93,180.11L371.12,177.42L371.82,193.56L372.05,190.87L372.87,217.77L372.94,215.08L373.64,231.22L374,228.53L374.78,231.22L377.17,228.53L377.77,220.46L377.8,223.15L378.03,225.84L381.51,223.15L381.53,225.84L382.23,220.46L383.11,223.15L384.21,220.46L385.11,217.77L385.11,220.46L386.92,217.77L387.06,212.39L388.06,215.08L388.6,207.01L388.6,204.32L388.61,196.25L392.28,198.94L393.34,188.18L395.41,185.49L395.89,180.11L395.89,182.8L395.89,185.49L397.94,180.11L398.38,177.42L401.09,172.04L401.28,169.35L401.84,166.65L401.84,169.35L402.01,172.04L402.59,185.49L402.72,182.8L403.31,180.11L403.36,182.8L403.67,169.35L404.07,166.65L404.25,158.58L404.44,169.35L404.45,172.04L404.45,174.73L405.2,161.27L405.33,158.58L406.07,177.42L406.11,174.73L406.41,172.04L406.43,182.8L406.86,174.73L406.89,177.42L406.99,182.8L407.3,177.42L407.96,174.73L408.02,172.04L408.44,188.18L408.44,185.49L408.84,182.8L409.33,163.96L409.52,193.56L409.82,190.87L410.25,174.73L410.39,188.18L410.39,190.87L410.44,193.56L411,185.49L411.04,188.18L411.63,185.49L411.76,193.56L412.32,180.11L412.4,177.42L412.45,180.11L412.82,161.27L412.82,161.27L412.85,158.58L412.86,153.2L412.99,198.94L413.3,188.18L413.7,185.49L414.11,180.11L414.34,188.18L414.38,185.49L414.77,182.8L415.41,190.87L415.75,193.56L416.04,196.25L416.37,185.49L416.72,188.18L416.87,201.63L417.33,198.94L417.72,196.25L418.37,209.7L418.95,207.01L419.29,209.7L419.67,198.94L419.68,196.25L419.91,188.18L420.62,190.87L420.76,204.32L421.06,185.49L421.22,190.87L421.38,193.56L421.6,190.87L421.76,198.94L422.9,196.25L423.03,201.63L423.19,196.25L423.85,193.56L424,196.25L424.18,190.87L424.51,188.18L424.54,196.25L424.93,190.87L425.62,188.18L426.12,185.49L426.12,188.18L426.12,190.87L426.64,185.49L426.64,182.8L426.65,180.11L426.69,190.87L426.82,182.8L427.66,180.11L427.88,172.04L428.08,185.49L428.21,188.18L428.6,207.01L428.88,201.63L428.97,204.32L429.39,196.25L429.4,209.7L429.54,207.01L429.8,204.32L429.85,207.01L430.57,198.94L430.68,196.25L431.26,215.08L431.37,215.08L431.52,212.39L431.62,196.25L431.64,215.08L432.32,198.94L432.32,201.63L432.51,204.32L432.93,190.87L433.2,198.94L433.2,201.63L433.72,217.77L433.88,215.08L434.29,217.77L434.72,204.32L435.01,207.01L435.25,204.32L435.25,207.01L435.69,201.63L435.69,201.63L436.78,198.94L437.37,193.56L437.37,196.25L438.16,193.56L438.2,190.87L438.23,212.39L438.63,209.7L439.16,212.39L439.27,215.08L439.43,201.63L439.44,198.94L439.84,193.56L439.88,198.94L440.09,201.63L440.11,198.94L440.82,217.77L440.82,215.08L441.11,217.77L441.42,209.7L441.69,215.08L441.99,217.77L442.35,220.46L442.67,209.7L442.67,212.39L443.06,209.7L444.13,201.63L444.46,204.32L444.48,201.63L444.61,212.39L445.04,212.39L445.32,209.7L445.34,212.39L445.6,207.01L445.84,212.39L446.14,209.7L446.44,220.46L446.69,215.08L447,217.77L447.65,212.39L447.65,215.08L447.89,212.39L448.06,204.32L448.07,215.08L448.24,209.7L448.94,212.39L448.94,209.7L449.47,220.46L449.87,217.77L450.16,215.08L450.17,220.46L450.44,217.77L450.73,215.08L451.39,212.39L451.39,215.08L451.55,217.77L451.56,215.08L451.7,228.53L452.23,225.84L452.29,223.15L452.37,220.46L452.94,228.53L452.96,225.84L453.07,228.53L453.76,215.08L453.77,225.84L453.77,228.53L453.77,225.84L453.91,231.22L454.48,228.53L454.73,225.84L454.73,231.22L455.47,228.53L455.58,231.22L455.6,236.6L456.29,231.22L457.1,228.53L457.23,231.22L457.87,228.53L458.02,223.15L458.07,236.6L458.1,236.6L458.11,239.29L458.79,228.53L458.8,236.6L458.8,239.29L459.48,233.91L459.51,236.6L459.59,239.29L459.78,231.22L459.91,233.91L460.45,231.22L460.45,233.91L461.17,223.15L461.18,225.84L461.44,228.53L461.76,233.91L461.97,225.84L462.57,223.15L462.84,228.53L462.86,225.84L463.79,223.15L463.85,225.84L464.38,220.46L464.53,220.46L465.04,217.77L465.48,212.39L465.76,217.77L465.88,215.08L465.89,212.39L466.79,215.08L467.4,212.39L467.69,223.15L467.73,220.46L468.42,228.53L468.66,225.84L468.67,223.15L468.67,225.84L469.38,212.39L469.39,223.15L469.43,220.46L470.33,217.77L470.33,220.46L470.89,215.08L470.9,212.39L470.92,220.46L471.65,220.46L471.66,223.15L471.73,231.22L472.36,225.84L472.42,228.53L472.46,223.15L472.99,239.29L473.74,236.6L474.13,239.29L474.16,236.6L474.8,233.91L475.34,239.29L476.1,236.6L476.53,231.22L476.93,233.91L477.01,236.6L477.36,231.22L477.42,236.6L477.44,239.29L478.19,233.91L478.19,236.6L478.28,233.91L478.61,228.53L478.61,231.22L479.28,233.91L479.41,228.53L479.89,233.91L480.74,231.22L481.59,228.53L481.59,231.22L481.59,228.53L481.63,233.91L482.18,233.91L483.04,231.22L483.15,225.84L483.16,233.91L483.3,228.53L484.12,231.22L484.7,220.46L485.02,217.77L485.52,220.46L485.7,217.77L485.7,215.08L486.33,204.32L486.33,220.46L486.43,217.77L486.67,215.08L486.95,212.39L486.95,217.77L486.95,220.46L487.53,217.77L487.77,220.46L487.88,217.77L488.19,225.84L488.83,228.53L489.3,223.15L489.42,228.53L489.42,231.22L489.42,228.53L489.8,236.6L490.09,236.6L490.24,233.91L490.84,231.22L490.93,233.91L490.95,236.6L491.14,228.53L491.28,231.22L491.92,228.53L492.75,236.6L492.79,233.91L493.03,236.6L493.45,231.22L493.71,233.91L494.04,225.84L494.13,231.22L494.89,228.53L495.26,233.91L495.69,220.46L496.23,217.77L496.38,231.22L496.96,223.15L497.51,220.46L498.26,215.08L498.66,217.77L498.66,220.46L499.6,217.77L499.85,223.15L500.29,212.39L500.33,220.46L500.42,217.77L500.82,220.46L501.12,217.77L502.5,215.08L503.65,204.32L503.76,207.01L503.76,209.7L503.76,212.39L503.92,204.32L503.96,204.32L506.14,207.01L506.53,201.63L506.56,220.46L506.83,220.46L506.84,223.15L507.66,215.08L507.67,217.77L507.94,220.46L508.64,204.32L508.69,207.01L508.78,209.7L508.89,207.01L509.34,215.08L509.49,207.01L509.91,204.32L510.43,198.94L510.44,201.63L510.46,204.32L510.62,198.94L510.62,204.32L512.5,201.63L512.5,204.32L514.26,201.63L515.64,190.87L515.79,188.18L515.85,182.8L515.85,190.87L516.3,188.18L516.63,185.49L518.13,180.11L518.37,177.42L518.37,180.11L518.85,172.04L519.98,169.35L520.63,158.58L520.63,155.89L520.63,158.58L521.21,142.44L521.31,142.44L521.57,139.75L521.57,142.44L522.02,128.99L522.3,128.99L522.41,126.3L522.41,128.99L523.15,120.92L523.23,123.61L523.98,110.16L526.25,107.47L527.49,88.64L528.43,85.95L530.1,80.57L531.89,77.88L532.48,67.12L532.81,64.42L534.04,50.97L534.2,48.28L535.36,42.9L535.86,40.21L537.36,26.76L538.6,24.07L539.28,18.69L540,16" style="vector-effect: none; fill: none; stroke: rgb(44, 160, 44); stroke-opacity: 1; stroke-width: 2px; opacity: 1;"/></g><g class="points"/><g class="text"/></g></g></g></g><g class="zerolinelayer-above"/><path class="xlines-above crisp" d="M0,0" style="fill: none;"/><path class="ylines-above crisp" d="M0,0" style="fill: none;"/><g class="overlines-above"/><g class="xaxislayer-above"><g class="xtick"><text text-anchor="middle" x="0" y="439" transform="translate(96.62,0)" style="font-family: 'Open Sans'; font-size: 18px; fill: rgb(0, 0, 0); fill-opacity: 1; white-space: pre;">2016</text></g><g class="xtick"><text text-anchor="middle" x="0" y="439" style="font-family: 'Open Sans'; font-size: 18px; fill: rgb(0, 0, 0); fill-opacity: 1; white-space: pre;" transform="translate(198.41,0)">2018</text></g><g class="xtick"><text text-anchor="middle" x="0" y="439" style="font-family: 'Open Sans'; font-size: 18px; fill: rgb(0, 0, 0); fill-opacity: 1; white-space: pre;" transform="translate(300.05,0)">2020</text></g><g class="xtick"><text text-anchor="middle" x="0" y="439" style="font-family: 'Open Sans'; font-size: 18px; fill: rgb(0, 0, 0); fill-opacity: 1; white-space: pre;" transform="translate(401.84,0)">2022</text></g><g class="xtick"><text text-anchor="middle" x="0" y="439" style="font-family: 'Open Sans'; font-size: 18px; fill: rgb(0, 0, 0); fill-opacity: 1; white-space: pre;" transform="translate(503.48,0)">2024</text></g><g class="xtick"><text text-anchor="middle" x="0" y="439" style="font-family: 'Open Sans'; font-size: 18px; fill: rgb(0, 0, 0); fill-opacity: 1; white-space: pre;" transform="translate(605.27,0)">2026</text></g></g><g class="yaxislayer-above"><g class="ytick"><text text-anchor="end" x="79" y="6.3" transform="translate(0,420)" style="font-family: 'Open Sans'; font-size: 18px; fill: rgb(0, 0, 0); fill-opacity: 1; white-space: pre;">0</text></g><g class="ytick"><text text-anchor="end" x="79" y="6.3" style="font-family: 'Open Sans'; font-size: 18px; fill: rgb(0, 0, 0); fill-opacity: 1; white-space: pre;" transform="translate(0,366.19)">20</text></g><g class="ytick"><text text-anchor="end" x="79" y="6.3" style="font-family: 'Open Sans'; font-size: 18px; fill: rgb(0, 0, 0); fill-opacity: 1; white-space: pre;" transform="translate(0,312.39)">40</text></g><g class="ytick"><text text-anchor="end" x="79" y="6.3" style="font-family: 'Open Sans'; font-size: 18px; fill: rgb(0, 0, 0); fill-opacity: 1; white-space: pre;" transform="translate(0,258.58000000000004)">60</text></g><g class="ytick"><text text-anchor="end" x="79" y="6.3" style="font-family: 'Open Sans'; font-size: 18px; fill: rgb(0, 0, 0); fill-opacity: 1; white-space: pre;" transform="translate(0,204.78)">80</text></g><g class="ytick"><text text-anchor="end" x="79" y="6.3" style="font-family: 'Open Sans'; font-size: 18px; fill: rgb(0, 0, 0); fill-opacity: 1; white-space: pre;" transform="translate(0,150.97)">100</text></g></g><g class="overaxes-above"/></g></g><g class="polarlayer"/><g class="smithlayer"/><g class="ternarylayer"/><g class="geolayer"/><g class="funnelarealayer"/><g class="pielayer"/><g class="iciclelayer"/><g class="treemaplayer"/><g class="sunburstlayer"/><g class="glimages"/><defs id="topdefs-884bab"><g class="clips"/></defs><g class="layer-above"><g class="imagelayer"/><g class="shapelayer"/></g><g class="infolayer"><g class="g-gtitle"><text class="gtitle" x="35" y="50" text-anchor="start" dy="0em" style="opacity: 1; font-family: 'Open Sans'; font-size: 25px; fill: rgb(0, 0, 0); fill-opacity: 1; white-space: pre;">MultiQC/MultiQC - Open Pull Requests Over Time</text></g><g class="g-xtitle"><text class="xtitle" x="350" y="472.9" text-anchor="middle" style="opacity: 1; font-family: 'Open Sans'; font-size: 22px; fill: rgb(0, 0, 0); fill-opacity: 1; white-space: pre;">Date</text></g><g class="g-ytitle"><text class="ytitle" transform="rotate(-90,29.799999999999997,260)" x="29.799999999999997" y="260" text-anchor="middle" style="opacity: 1; font-family: 'Open Sans'; font-size: 22px; fill: rgb(0, 0, 0); fill-opacity: 1; white-space: pre;">Number of Open PRs</text></g></g></svg>